<?xml version="1.0" encoding="UTF-8"?>
<svg id="Ebene_1" xmlns="http://www.w3.org/2000/svg" version="1.1" viewBox="0 0 560.2 223.6">
  <!-- Generator: Adobe Illustrator 30.2.0, SVG Export Plug-In . SVG Version: 2.1.1 Build 105)  -->
  <rect y="0" width="560.2" height="223.6" style="fill: none;"/>
  <path d="M248.8,110.3c5.359-2.072,8.867-7.255,8.8-13,0-11.7-8.3-17.5-19.7-17.5h-29.9v63.6h32.5c10,0,19.8-7,19.8-17.7,0-12.7-11.5-15.3-11.5-15.4ZM223.6,93h11.6c3.125-.188,5.812,2.192,6,5.317.014.227.014.455,0,.683-.064,3.273-2.768,5.874-6.041,5.811-.086-.002-.173-.005-.259-.011h-11.3v-11.8ZM235.3,130.1h-11.7v-12.5h11.4c5.7,0,8.4,2.5,8.4,6.2,0,4.6-3.4,6.3-8.1,6.3Z" style="fill: #ed0007; fill-rule: evenodd;"/>
  <path d="M294.7,78.2c-18.4,0-29.2,14.7-29.2,33.3,0,18.7,10.8,33.3,29.2,33.3,18.5,0,29.2-14.6,29.2-33.3,0-18.6-10.7-33.3-29.2-33.3ZM294.7,129.6c-9,0-13.5-8.1-13.5-18.1s4.5-18,13.5-18,13.6,8.1,13.6,18c0,10.1-4.6,18.1-13.6,18.1Z" style="fill: #ed0007; fill-rule: evenodd;"/>
  <path d="M357.8,104.8l-2.2-.5c-5.4-1.1-9.7-2.5-9.7-6.4,0-4.2,4.1-5.9,7.7-5.9,4.964.078,9.673,2.215,13,5.9l9.9-9.8c-4.5-5.1-11.8-10-23.2-10-13.4,0-23.6,7.5-23.6,20,0,11.4,8.2,17,18.2,19.1l2.2.5c8.3,1.7,11.4,3,11.4,7,0,3.8-3.4,6.3-8.6,6.3-6.2,0-11.8-2.7-16.1-8.2l-10.1,10c5.6,6.7,12.7,11.9,26.4,11.9,11.9,0,24.6-6.8,24.6-20.7.2-14.5-10.8-17.3-19.9-19.2Z" style="fill: #ed0007; fill-rule: evenodd;"/>
  <path d="M413.3,129.6c-7,0-14.3-5.8-14.3-18.5,0-11.3,6.8-17.6,13.9-17.6,5.6,0,8.9,2.6,11.5,7.1l12.8-8.5c-6.4-9.7-14-13.8-24.5-13.8-19.2,0-29.6,14.9-29.6,32.9,0,18.9,11.5,33.7,29.4,33.7,12.6,0,18.6-4.4,25.1-13.8l-12.9-8.7c-2.6,4.2-5.4,7.2-11.4,7.2Z" style="fill: #ed0007; fill-rule: evenodd;"/>
  <polygon points="479.9 79.8 479.9 103.2 460.6 103.2 460.6 79.8 443.9 79.8 443.9 143.4 460.6 143.4 460.6 118.3 479.9 118.3 479.9 143.4 496.6 143.4 496.6 79.8 479.9 79.8" style="fill: #ed0007; fill-rule: evenodd;"/>
  <path d="M111.8,63.6c-26.62,0-48.2,21.58-48.2,48.2s21.58,48.2,48.2,48.2,48.2-21.58,48.2-48.2c-.014-26.614-21.586-48.186-48.2-48.2ZM111.8,155.5c-24.135,0-43.7-19.565-43.7-43.7s19.565-43.7,43.7-43.7,43.7,19.565,43.7,43.7h0c-.025,24.125-19.575,43.675-43.7,43.7Z" style="fill: #fff;"/>
  <path d="M131.7,81.7h-3.3v16.5h-33.1v-16.5h-3.4c-16.624,10.97-21.207,33.339-10.237,49.963,2.685,4.069,6.168,7.552,10.237,10.237h3.4v-16.5h33.1v16.5h3.3c16.624-10.97,21.207-33.339,10.237-49.963-2.685-4.069-6.168-7.552-10.237-10.237ZM90.7,135.4c-13.034-11.583-14.21-31.538-2.628-44.572.824-.927,1.701-1.804,2.628-2.628v47.2ZM128.4,120.8h-33.1v-18.1h33.1v18.1ZM132.9,135.3v-10h0v-27.1h0v-10c13.006,11.686,14.076,31.704,2.39,44.71-.753.839-1.551,1.636-2.39,2.39Z" style="fill: #fff;"/>
</svg>