<svg xmlns="http://www.w3.org/2000/svg" viewBox="0 0 192 192"><path d="M68 32v128H53.407V56.263c-7.913 5.1-24.44 8.264-34.814 8.264l-1.934-9.494C33.89 53.274 50.242 44.835 58.506 32zm90.829 106.829-5.658-5.658L140 146.343l-5.171-5.172-5.658 5.658L140 157.657zM144 176c-17.645 0-32-14.355-32-32s14.355-32 32-32 32 14.355 32 32-14.355 32-32 32m0-56c-13.234 0-24 10.766-24 24s10.766 24 24 24 24-10.766 24-24-10.766-24-24-24m-40 24c0-2.677.268-5.292.77-7.822-5.856-9.067-9.113-23.04-9.113-40.79 0-31.257 11.35-51.339 28.988-51.339 17.812 0 28.988 20.082 28.988 51.864 0 3.184-.116 6.245-.334 9.185a39.8 39.8 0 0 1 14.552 6.79c.75-5.037 1.149-10.371 1.149-15.975C169 58.019 151.013 32 124.645 32 98.451 32 80.29 58.019 80.29 95.389c0 28.436 9.592 49.903 25.175 59.333A40 40 0 0 1 104 144"/></svg>