<svg xmlns="http://www.w3.org/2000/svg" viewBox="0 0 192 192"><path d="M104 84h4.046C114.637 84 120 78.638 120 72.046V68h36v-8h-36V36H88.115l8 8H112v28.046A3.96 3.96 0 0 1 108.046 76H83.953a3.96 3.96 0 0 1-3.954-3.954V62.03l-7.953-7.953V60H35.999v8h36.047v3.777C71.999 78.638 77.362 84 83.953 84h4.046v6.537l7.891 5.176-39.891 16.621V158.6l40 17.778 40-17.778v-45.199L96.145 95.688l7.854-5.151zm-12 81.845-28-12.444v-32.245l28 12.445v32.245Zm36-12.445-28 12.444v-32.178L128 122zm-31.949-26.754-25.935-11.527 25.834-10.764 25.935 11.527-25.833 10.764Zm-36.687-85.01 4-6.928 6.928 4-4 6.928zM57 30.829l-5.657-5.657L57 19.516l5.657 5.656zm22.431.448-7.813-1.718 1.718-7.813 7.813 1.719zm19.765 27.455-6.928 4-4-6.928 6.928-4zM76.515 47.171l5.656-5.656 5.657 5.656-5.657 5.657z"/></svg>