<svg xmlns="http://www.w3.org/2000/svg" viewBox="0 0 192 192"><path d="M68 36c0-2.21 4.477-4 10-4s10 1.79 10 4-4.477 4-10 4-10-1.79-10-4m46 4c5.523 0 10-1.79 10-4s-4.477-4-10-4-10 1.79-10 4 4.477 4 10 4m42 106v24c0 3.309-2.773 6-6.182 6h-6.545c-4.01 0-7.273-3.14-7.273-7v-5h-12v9.229a2.77 2.77 0 0 1-2.771 2.771h-2.458a2.77 2.77 0 0 1-2.771-2.771V164H76v9.229A2.77 2.77 0 0 1 73.229 176H70.77a2.77 2.77 0 0 1-2.77-2.771V164H56v5c0 3.86-3.263 7-7.273 7h-6.545c-3.41 0-6.182-2.691-6.182-6v-24c0-3.309 2.773-6 6.182-6H44v-8.944l4-8V43.372l6.308-19.585C56.054 19.129 60.57 16 65.544 16h60.912c4.974 0 9.49 3.129 11.236 7.787l.062.178L144 43.372v79.63l4.002 7.523V140h1.816c3.409 0 6.182 2.691 6.182 6m-46.016-22c2 0 3.705-1.496 3.966-3.479l8.877-67.467A129 129 0 0 1 96 55.891c-8.625 0-17.25-.873-25.797-2.616l8.847 67.246A4.01 4.01 0 0 0 83.016 124zM56.986 41.564c25.908 8.705 52.12 8.705 78.028 0l-4.84-15.042A4.02 4.02 0 0 0 126.455 24H65.544a4.02 4.02 0 0 0-3.717 2.522zM56 156h36v-24h-8.984c-6 0-11.115-4.486-11.897-10.435l-8.807-66.937L56 51.472v73.472l-4 8V156zm80 0h4l.002-23.48-4.002-7.522V51.697l-5.301 2.854-8.818 67.014c-.782 5.95-5.897 10.435-11.897 10.435H100v24z"/></svg>