<svg xmlns="http://www.w3.org/2000/svg" viewBox="0 0 192 192"><path fill-rule="evenodd" d="M44 40v56h24V40zm12 48c-2.21 0-4-1.79-4-4s1.79-4 4-4 4 1.79 4 4-1.79 4-4 4m0-16c-2.21 0-4-1.79-4-4s1.79-4 4-4 4 1.79 4 4-1.79 4-4 4m0-16c-2.21 0-4-1.79-4-4s1.79-4 4-4 4 1.79 4 4-1.79 4-4 4m92 40V40h-24v56zm-12-48c2.21 0 4 1.79 4 4s-1.79 4-4 4-4-1.79-4-4 1.79-4 4-4m0 16c2.21 0 4 1.79 4 4s-1.79 4-4 4-4-1.79-4-4 1.79-4 4-4m0 16c2.21 0 4 1.79 4 4s-1.79 4-4 4-4-1.79-4-4 1.79-4 4-4M76 40v56h40V40zm12 8c2.21 0 4 1.79 4 4s-1.79 4-4 4-4-1.79-4-4 1.79-4 4-4m0 40c-2.21 0-4-1.79-4-4s1.79-4 4-4 4 1.79 4 4-1.79 4-4 4m16 0c-2.21 0-4-1.79-4-4s1.79-4 4-4 4 1.79 4 4-1.79 4-4 4m4-16H84v-8h24zm-4-16c-2.21 0-4-1.79-4-4s1.79-4 4-4 4 1.79 4 4-1.79 4-4 4M76 40h-8V16h56v24h-8V24H76zm84 96v-8h-36V96h-8v32H76V96h-8v32H32v8h36v24h-4v8h4.349a6 6 0 0 0-.349 2 6 6 0 1 0 12 0 6 6 0 0 0-.349-2h32.698a6 6 0 0 0-.349 2 6 6 0 1 0 12 0 6 6 0 0 0-.349-2H128v-8h-4v-24zm-44 24H76v-24h40z" clip-rule="evenodd"/></svg>