<svg xmlns="http://www.w3.org/2000/svg" viewBox="0 0 192 192"><path d="M100 64H72v-8h28zm0 8H72v8h28zm16-32v40h-8V48H24v48h4c0-8.415 5.232-15.62 12.608-18.567C37.808 75.234 36 71.828 36 68c0-6.617 5.383-12 12-12s12 5.383 12 12c0 3.828-1.808 7.234-4.608 9.433C62.768 80.381 68 87.585 68 96h4v8H16V40zM44 68c0 2.206 1.794 4 4 4s4-1.794 4-4-1.794-4-4-4-4 1.794-4 4m-8 28h24c0-6.617-5.383-12-12-12s-12 5.383-12 12m124 8h-24v8h24zm0 16h-24v8h24zm16-32v64H80V88zm-52 56c0-6.62-5.385-12.004-12.004-12.004S99.99 137.38 99.99 144zm-12.009-24c2.206 0 4-1.794 4-4s-1.794-4-4-4-4 1.794-4 4 1.795 4 4 4M168 96H88v48h3.991c0-8.415 5.23-15.62 12.605-18.569-2.798-2.199-4.605-5.605-4.605-9.431 0-6.617 5.384-12 12-12s12 5.383 12 12c0 3.825-1.805 7.23-4.602 9.429C126.767 128.377 132 135.583 132 144h36zM54 70"/></svg>