<svg xmlns="http://www.w3.org/2000/svg" viewBox="0 0 192 192"><path d="m55.665 116.423-3.397-9.98H31.02l-3.433 9.98h-10.98L35.813 64.06h13.449l18.85 52.363zm-13.95-41.31L33.813 98.11h15.702l-7.798-22.998zm33.73-11.053h19.42q13.27 0 20.137 7.726 6.009 6.76 6.009 18.277 0 13.413-7.868 20.351-6.868 6.009-18.635 6.009H75.444zm19.635 43.064q7.153 0 10.658-4.936 3.04-4.292 3.04-11.982 0-8.763-4.006-13.055-3.505-3.791-9.763-3.792h-7.833v33.765zm36.625-43.064h22.998q9.013 0 13.77 4.507 4.185 3.97 4.185 10.516 0 5.65-2.861 9.048-1.323 1.574-2.844 2.468t-4.166 1.717q3.72 1.11 5.562 3.416 1.84 2.307 2.843 7.064 2.646 11.23 4.256 13.34v.287h-12.017q-1.968-3.541-3.935-12.59-.895-4.005-2.771-5.705-1.878-1.699-5.455-1.699h-7.976v19.994h-11.589zm21.246 23.642q4.291 0 6.438-2.146 1.86-1.86 1.86-5.15 0-7.19-7.476-7.19h-10.48v14.486z"/></svg>