<svg xmlns="http://www.w3.org/2000/svg" viewBox="0 0 192 192"><path d="M52.389 64h87.222c6.831 0 12.39-5.558 12.39-12.39V28.39c0-6.832-5.559-12.39-12.39-12.39H52.39C45.558 16 40 21.558 40 28.39v23.22C40 58.443 45.558 64 52.39 64zM64 56v-8h64v8zM48 28.39c0-2.422 1.97-4.39 4.39-4.39h87.222a4.394 4.394 0 0 1 4.39 4.39v23.22c0 2.421-1.97 4.39-4.39 4.39h-3.61v-9.023A6.985 6.985 0 0 0 129.023 40H62.977A6.985 6.985 0 0 0 56 46.977V56h-3.61A4.394 4.394 0 0 1 48 51.61zM144.886 92h-98.25l-28.4 76h155.566zm-61.329 8h24.886l2.824 24H80.734zm28.65 32 3.295 28H76.498l3.294-28h32.416zm8.056 0h31.282l10.653 28h-38.64zm28.238-8h-29.18l-2.823-24h22.872zM40.23 132h31.508l-3.294 28H29.765z"/></svg>