<svg xmlns="http://www.w3.org/2000/svg" viewBox="0 0 192 192"><path d="M52.389 64h87.222c6.832 0 12.39-5.557 12.39-12.389V28.389C152 21.558 146.442 16 139.61 16H52.389C45.558 16 40 21.558 40 28.39v23.22C40 58.442 45.558 64 52.389 64M64 56v-8h64v8zM48 28.39A4.394 4.394 0 0 1 52.39 24h87.222c2.42 0 4.39 1.969 4.39 4.389V51.61c0 2.42-1.97 4.39-4.39 4.39H136v-9.024c0-3.847-3.13-6.977-6.978-6.977H62.977A6.985 6.985 0 0 0 56 46.977V56h-3.61A4.394 4.394 0 0 1 48 51.611V28.389zM144.886 92h-98.25l-28.4 76h155.566zm-32.678 40 3.294 28H76.499l3.294-28zm-31.474-8 2.823-24h24.886l2.824 24zm67.768 0h-29.18l-2.823-24h22.871zm-96.315-24h23.315l-2.823 24h-29.46zm-11.958 32h31.508l-3.294 28H29.765z"/></svg>