<svg xmlns="http://www.w3.org/2000/svg" viewBox="0 0 192 192"><path d="M52.389 64h87.222c6.831 0 12.39-5.557 12.39-12.389V28.389C152 21.558 146.441 16 139.61 16H52.39C45.558 16 40 21.558 40 28.39v23.22C40 58.442 45.558 64 52.389 64M64 56v-8h64v8zM48 28.39A4.394 4.394 0 0 1 52.39 24h87.222a4.394 4.394 0 0 1 4.39 4.389V51.61c0 2.42-1.97 4.39-4.39 4.39h-3.61v-9.024A6.985 6.985 0 0 0 129.023 40H62.977A6.985 6.985 0 0 0 56 46.977V56h-3.61A4.394 4.394 0 0 1 48 51.611V28.389zM144.886 92h-98.25l-28.4 76h155.566zm-64.153 32 2.824-24h24.886l2.824 24zm39.53 8h31.282l10.653 28h-38.64zm28.239-8h-29.18l-2.824-24h22.872zm-96.314-24h23.314l-2.824 24h-29.46zm-11.96 32h31.51l-3.295 28H29.765z"/></svg>