<svg xmlns="http://www.w3.org/2000/svg" viewBox="0 0 192 192"><path d="M174.829 158.829c-.702.7-17.464 17.171-42.829 17.171-16.944 0-27.541-5.298-37.79-10.422C84.36 160.652 75.057 156 60 156c-21.962 0-37.028 14.686-37.178 14.834l-5.65-5.663C17.871 164.471 34.634 148 60 148c16.944 0 27.541 5.298 37.79 10.422C107.64 163.348 116.943 168 132 168c21.962 0 37.028-14.686 37.178-14.834l5.65 5.663zM45.17 125.17l15.727-15.726c-5.431-9.062-19.5-37.5 2.273-59.274 11.73-11.727 29.075-18.74 50.163-20.284 15.71-1.15 27.893 1.087 28.404 1.182l2.69.505.505 2.69c.095.51 2.332 12.691 1.182 28.404-1.543 21.088-8.557 38.433-20.285 50.162-8.84 8.84-18.781 11.771-28.077 11.771-13.597 0-25.814-6.27-31.198-9.497L50.83 130.829l-5.658-5.658zm21.559-21.558L111.17 59.17l5.658 5.658-44.442 44.441c3.315 1.872 8.415 4.365 14.358 5.922 13.357 3.498 24.604.801 33.426-8.02 7.193-7.193 16.145-20.819 17.95-44.89.786-10.478-.07-19.435-.636-23.767-4.33-.565-13.287-1.42-23.766-.636-13.287.996-31.86 4.92-44.89 17.95-8.823 8.821-11.52 20.067-8.02 33.426 1.556 5.942 4.048 11.042 5.921 14.358"/></svg>