<svg xmlns="http://www.w3.org/2000/svg" viewBox="0 0 192 192"><path d="M15.97 80V48c0-8.82 7.18-16 16-16h111.05l-8 8H31.97c-4.41 0-8 3.59-8 8v32c0 4.41 3.59 8 8 8H40V76c0-4.41 3.59-8 8-8h59.02l-8 8H48v12h39.02l-8 8H31.97c-8.82 0-16-7.18-16-16m155.8-42.79-5.67 5.67a7.93 7.93 0 0 1 1.87 5.12v32c0 4.41-3.59 8-8 8H152V76c0-4.41-3.59-8-8-8h-3.02l-8 8H144v12h-23.02l-8 8h46.99c8.83 0 16-7.18 16-16V48c0-4.15-1.59-7.94-4.2-10.79M100 132v-23.02l-8 8V132zm43.113-21.546 9.058 22.226 7.408-3.02-9.058-22.225-7.408 3.02zM32.296 129.66l7.408 3.02 9.058-22.226-7.408-3.02zm100.875 13.168 9.172 9.172H56.98l-7.66 7.66-.34.34-5.32 5.32 9.51 9.51 5.66-5.66-9.17-9.17h92.683l-9.172 9.172 5.658 5.656L157.657 156l-18.828-18.828zM56.83 140.83 101.66 96l8-8 12-12 8-8 28-28 7.22-7.22 9.95-9.95L172 20l-2.83-2.83L154.34 32l-8 8-28 28-8 8-12 12-8 8-73.17 73.17L20 172l2.83 2.83L38 159.66l4.49-4.49 3.17-3.17z"/></svg>