<svg xmlns="http://www.w3.org/2000/svg" viewBox="0 0 192 192"><path fill="#010202" d="M100 58.989v-9.257C109.105 55.159 118.095 60 132 60c21.962 0 37.028-14.686 37.178-14.834l5.65 5.663C174.129 51.529 157.366 68 132 68c-13.8 0-23.398-4.16-32-9.011M60 36c-25.365 0-42.127 16.47-42.829 17.171l5.651 5.663C22.972 58.686 38.038 44 60 44c13.905 0 22.895 4.84 32 10.268v-9.257C83.398 40.16 73.8 36 60 36m72 76c25.365 0 42.127-16.47 42.829-17.171l-5.651-5.663C169.028 89.314 153.962 104 132 104c-13.905 0-22.895-4.84-32-10.268v9.257c8.602 4.851 18.2 9.011 32 9.011m0 44c25.365 0 42.127-16.47 42.829-17.171l-5.651-5.663C169.028 133.314 153.962 148 132 148c-13.905 0-22.895-4.84-32-10.268v9.257c8.602 4.851 18.2 9.011 32 9.011M60 80c-25.365 0-42.127 16.47-42.829 17.171l5.651 5.663C22.972 102.686 38.038 88 60 88c13.905 0 22.895 4.84 32 10.268v-9.257C83.398 84.16 73.8 80 60 80m0 44c-25.365 0-42.127 16.47-42.829 17.171l5.651 5.663C22.972 146.686 38.038 132 60 132c13.905 0 22.895 4.84 32 10.268v-9.257C83.398 128.16 73.8 124 60 124"/></svg>