<svg xmlns="http://www.w3.org/2000/svg" viewBox="0 0 192 192"><path d="M60 168h72v8H60zm92-120v96c0 8.822-7.178 16-16 16H56c-8.822 0-16-7.178-16-16V48c0-8.822 7.178-16 16-16V16h80v16c8.822 0 16 7.178 16 16M64 32h64v-8H64zm80 16c0-4.411-3.589-8-8-8H56c-4.411 0-8 3.589-8 8v96c0 4.411 3.589 8 8 8h80c4.411 0 8-3.589 8-8zM81.92 88.694H65.6v-17.4H56v42.9h9.6v-17.76h16.32v17.76h9.6v-42.9h-9.6zm52.438 14.34c1.56 6.66 2.46 9.6 3.48 10.92v.24H128c-1.2-2.16-2.04-4.86-3.24-10.32-.96-4.38-2.82-6.06-6.72-6.06h-6.54v16.38h-9.48v-42.9h18.84c9.18 0 14.699 4.621 14.699 12.3 0 3.06-.78 5.58-2.34 7.44-1.44 1.68-2.82 2.52-5.76 3.42 4.08 1.2 5.82 3.42 6.9 8.58zm-8.159-18.36c0-3.839-2.1-5.88-6.12-5.88H111.5v11.88h7.919c4.38 0 6.78-2.1 6.78-6"/></svg>