<svg xmlns="http://www.w3.org/2000/svg" viewBox="0 0 192 192"><path d="M160 32H32c-8.822 0-16 7.178-16 16v96c0 8.822 7.178 16 16 16h128c8.822 0 16-7.178 16-16V48c0-8.822-7.178-16-16-16m8 112c0 4.411-3.589 8-8 8H32c-4.411 0-8-3.589-8-8V48c0-4.411 3.589-8 8-8h128c4.411 0 8 3.589 8 8zm8-128v8H16v-8zM16 168h16v8H16zm24 0h16v8H40zm24 0h16v8H64zm24 0h16v8H88zm24 0h16v8h-16zm24 0h16v8h-16zm24 0h16v8h-16zM80 80H64v-8h16zm24 0H88v-8h16zm24 0h-16v-8h16zm0-20h-16v-8h16zm-24 0H88v-8h16zm-24 0H64v-8h16zm64 52H48c-4.411 0-8 3.589-8 8v12c0 4.411 3.589 8 8 8h96c4.411 0 8-3.589 8-8v-12c0-4.411-3.589-8-8-8m-96 20v-12h96l.005 12zm-8-60V60c0-4.411 3.589-8 8-8h8v8h-8v12h8v8h-8c-4.411 0-8-3.589-8-8m112-12v12c0 4.411-3.589 8-8 8h-8v-8h8V60h-8v-8h8c4.411 0 8 3.589 8 8"/></svg>