<svg xmlns="http://www.w3.org/2000/svg" viewBox="0 0 192 192"><path d="M160 32H32c-8.822 0-16 7.178-16 16v32c0 8.822 7.178 16 16 16h128c8.822 0 16-7.178 16-16V48c0-8.822-7.178-16-16-16M48 88V76l96-.005V88zm120-8c0 4.411-3.589 8-8 8h-8V76c0-4.411-3.589-8-8-8H48c-4.411 0-8 3.589-8 8v12h-8c-4.411 0-8-3.589-8-8V48c0-4.411 3.589-8 8-8h128c4.411 0 8 3.589 8 8zm-76 56h8v40h-8zm27.429-6.06 20 33.282-6.858 4.12-20-33.281 6.858-4.122zm14.631-17.369 33.282 20-4.12 6.858-33.282-20zM72.571 129.94l6.858 4.122-20 33.282-6.858-4.121zm-10.51-10.51-33.283 20-4.12-6.858 33.282-20 4.12 6.858z"/></svg>