<svg xmlns="http://www.w3.org/2000/svg" viewBox="0 0 192 192"><path d="m43.627 112 7.568 2.592L33.717 160l-7.569-2.592zM92 164h8l.002-48h-7.997zm47.857-49.408L157.336 160l7.568-2.592L147.426 112zM175.974 48v32c0 8.822-7.178 16-16 16h-128c-8.823 0-16-7.178-16-16V48c0-8.822 7.177-16 16-16h128c8.822 0 16 7.178 16 16M144 88V75.995L48 76v12zm23.974-40c0-4.411-3.59-8-8-8h-128c-4.411 0-8 3.589-8 8v32c0 4.411 3.589 8 8 8H40V76c0-4.411 3.589-8 8-8h96c4.411 0 8 3.589 8 8v12h7.974c4.41 0 8-3.589 8-8z"/></svg>