<svg xmlns="http://www.w3.org/2000/svg" viewBox="0 0 192 192"><path d="M159.974 32h-128c-8.823 0-16 7.178-16 16v32c0 8.822 7.177 16 16 16h128c8.822 0 16-7.178 16-16V48c0-8.822-7.178-16-16-16M48 88V76l96-.005V88zm119.974-8c0 4.411-3.59 8-8 8H152V76c0-4.411-3.589-8-8-8H48c-4.411 0-8 3.589-8 8v12h-8.026c-4.412 0-8-3.589-8-8V48c0-4.411 3.588-8 8-8h128c4.41 0 8 3.589 8 8zm-20.548 32 17.478 45.408-7.568 2.592-17.479-45.408zm-51.74 0 17.479 45.408-7.568 2.592-17.479-45.408zm-51.476 0 17.478 45.408L54.12 160l-17.478-45.408z"/></svg>