<svg xmlns="http://www.w3.org/2000/svg" viewBox="0 0 192 192"><path d="M160 176H32c-8.822 0-16-7.178-16-16V32c0-8.822 7.178-16 16-16h128c8.822 0 16 7.178 16 16v128c0 8.822-7.178 16-16 16M32 24c-4.411 0-8 3.589-8 8v128c0 4.411 3.589 8 8 8h128c4.411 0 8-3.589 8-8V32c0-4.411-3.589-8-8-8zm92 136H68c-4.411 0-8-3.589-8-8v-12c0-4.411 3.589-8 8-8h56c4.411 0 8 3.589 8 8v12c0 4.411-3.589 8-8 8m-56-20v12h56v-12zm84-8h-12c-4.411 0-8-3.589-8-8V68c0-4.411 3.589-8 8-8h12c4.411 0 8 3.589 8 8v56c0 4.411-3.589 8-8 8m-12-64v56h12V68zm-88 64H40c-4.411 0-8-3.589-8-8V68c0-4.411 3.589-8 8-8h12c4.411 0 8 3.589 8 8v56c0 4.411-3.589 8-8 8M40 68v56h12V68zm84-8H68c-4.411 0-8-3.589-8-8V40c0-4.411 3.589-8 8-8h56c4.411 0 8 3.589 8 8v12c0 4.411-3.589 8-8 8m0-20.005L68 40v12h56z"/></svg>