<svg xmlns="http://www.w3.org/2000/svg" viewBox="0 0 192 192"><path d="M160 16H32c-8.822 0-16 7.178-16 16v32c0 8.822 7.178 16 16 16h128c8.822 0 16-7.178 16-16V32c0-8.822-7.178-16-16-16M48 72V60l96-.005V72zm120-8c0 4.411-3.589 8-8 8h-8V60c0-4.411-3.589-8-8-8H48c-4.411 0-8 3.589-8 8v12h-8c-4.411 0-8-3.589-8-8V32c0-4.411 3.589-8 8-8h128c4.411 0 8 3.589 8 8zm-33.94 32.571 33.282 20-4.12 6.857-33.282-20zm-72 6.858-33.282 20-4.12-6.857 33.282-20zm46.602 33.441c7.475-4.37 12.512-12.477 12.512-21.744 0-13.88-11.292-25.173-25.173-25.173s-25.173 11.293-25.173 25.173c0 9.266 5.036 17.374 12.512 21.744-16.639 5.221-28.392 20.548-28.392 39.13h8c0-18.535 14.519-33.054 33.054-33.054s33.054 14.519 33.054 33.054h8c0-18.582-11.753-33.909-28.392-39.13ZM96 97.953c9.469 0 17.173 7.704 17.173 17.173S105.469 132.3 96 132.3s-17.173-7.704-17.173-17.174S86.531 97.953 96 97.953"/></svg>