<svg xmlns="http://www.w3.org/2000/svg" viewBox="0 0 192 192"><path d="M159.974 32h-128c-8.823 0-16 7.178-16 16v32c0 8.822 7.177 16 16 16h128c8.822 0 16-7.178 16-16V48c0-8.822-7.178-16-16-16M48 88V76l96-.005V88zm119.974-8c0 4.411-3.59 8-8 8H152V76c0-4.411-3.589-8-8-8H48c-4.411 0-8 3.589-8 8v12h-8.026c-4.412 0-8-3.589-8-8V48c0-4.411 3.588-8 8-8h128c4.41 0 8 3.589 8 8zm-131.43 79.963h-6.122l15.527-42.89h6.738l15.293 42.89h-6.65l-3.428-10.02h-17.93zm19.63-15.059-7.207-21.123-7.266 21.123zm37.265 10.254q-2.959 5.39-9.375 5.39-5.127 0-7.734-3.632-2.285-3.164-2.285-8.643v-19.687h6.299v18.662q0 4.717 1.465 6.533 1.317 1.612 4.189 1.612 3.662 0 5.684-2.461 1.757-2.11 1.757-5.508v-18.838h6.3v31.377h-6.3zm14.092-26.572h4.688v-7.617l6.299-1.817v9.434h7.441v5.039h-7.441v17.578q0 4.19 3.252 4.19 1.873 0 3.955-1.377l1.962 4.218q-3.017 2.315-6.708 2.315-4.366 0-6.71-2.549-2.05-2.197-2.05-5.83v-18.545h-4.688v-5.04zm38.936-.586q7.002 0 11.308 5.186 3.75 4.482 3.75 10.986.001 7.675-4.834 12.334-4.219 4.043-10.4 4.043-7.09 0-11.426-5.156-3.75-4.454-3.75-11.016 0-7.706 4.864-12.363Q140.197 128 146.467 128m-.293 5.04q-4.191 0-6.504 3.427-2.022 2.988-2.022 7.822 0 5.596 2.579 8.613 2.285 2.608 6.005 2.608 4.364 0 6.71-3.399 2.05-2.959 2.05-7.822 0-5.654-2.666-8.643-2.285-2.607-6.152-2.607z"/></svg>