<svg xmlns="http://www.w3.org/2000/svg" viewBox="0 0 192 192"><path d="M159.974 32h-128c-8.823 0-16 7.178-16 16v32c0 8.822 7.177 16 16 16h128c8.822 0 16-7.178 16-16V48c0-8.822-7.178-16-16-16M48 88V76l96-.005V88zm119.974-8c0 4.411-3.59 8-8 8H152V76c0-4.411-3.589-8-8-8H48c-4.411 0-8 3.589-8 8v12h-8.026c-4.412 0-8-3.589-8-8V48c0-4.411 3.588-8 8-8h128c4.41 0 8 3.589 8 8zM100 108v24h-8v-24zm50.521-.565 9.058 22.225-7.408 3.02-9.058-22.226zM39.704 132.68l-7.408-3.02 9.058-22.225 7.408 3.02zm99.125 4.492L157.657 156l-18.828 18.828-5.658-5.656 9.172-9.172H49.657l9.172 9.172-5.658 5.656L34.343 156l18.828-18.828 5.658 5.656L49.657 152h92.686l-9.172-9.172z"/></svg>