<svg xmlns="http://www.w3.org/2000/svg" viewBox="0 0 192 192"><path d="M32 100V48c0-8.82 7.18-16 16-16h52c8.82 0 16 7.18 16 16v11.02l-8 8V48c0-4.41-3.59-8-8-8H48c-4.41 0-8 3.59-8 8v52c0 4.41 3.59 8 8 8h19.02l-8 8H48c-8.82 0-16-7.18-16-16m60 76h8v-40h-8zm16.268-42.562 14.614 37.91 7.465-2.876-14.615-37.91zm13.188-6.326 28.284 28.284 5.657-5.656-28.284-28.284zm9.105-11.38 37.91 14.615 2.878-7.465-37.91-14.614zm5.441-23.73v8h40v-8zM174.83 22.83 172 20l-2.83-2.83L116 70.34l-8 8L78.34 108l-8 8-53.17 53.17L20 172l2.83 2.83L81.66 116 116 81.66z"/></svg>