<svg xmlns="http://www.w3.org/2000/svg" viewBox="0 0 192 192"><path d="M52.389 64h87.222C146.442 64 152 58.443 152 51.611V28.389C152 21.558 146.442 16 139.61 16H52.39C45.559 16 40 21.558 40 28.389V51.61C40 58.442 45.559 64 52.39 64zm11.61-8v-8h64v8zM48 28.39A4.394 4.394 0 0 1 52.39 24h87.222A4.394 4.394 0 0 1 144 28.39v23.22c0 2.42-1.969 4.39-4.389 4.39H136v-9.024A6.985 6.985 0 0 0 129.023 40H62.976A6.985 6.985 0 0 0 56 46.977V56h-3.611a4.394 4.394 0 0 1-4.39-4.389V28.389zM144.887 92h-98.25l-28.4 76h155.566zm-65.094 40h32.415l3.295 28H76.498l3.294-28zm.941-8 2.824-24h24.886l2.824 24zm39.53 8h31.282l10.653 28h-38.64zm28.238-8h-29.18l-2.823-24h22.872zm-96.314-24h23.315l-2.824 24h-29.46l8.97-24z"/></svg>