<svg xmlns="http://www.w3.org/2000/svg" viewBox="0 0 192 192"><path d="M92 112h8.002L100 160h-8zm43.448 5.241 33.926 34.877 5.94-5.359-33.927-34.877zm-118.38 29.518 5.939 5.36 33.926-34.878-5.94-5.36zM175.973 48v32c0 8.822-7.178 16-16 16h-128c-8.823 0-16-7.178-16-16V48c0-8.822 7.177-16 16-16h128c8.822 0 16 7.178 16 16M144 88V75.995L48 76v12zm23.974-40c0-4.411-3.59-8-8-8h-128c-4.411 0-8 3.589-8 8v32c0 4.411 3.589 8 8 8H40V76c0-4.411 3.589-8 8-8h96c4.411 0 8 3.589 8 8v12h7.974c4.41 0 8-3.589 8-8z"/></svg>