<svg xmlns="http://www.w3.org/2000/svg" viewBox="0 0 192 192"><path d="M32 104h8c0 30.878 25.122 56 56 56s56-25.122 56-56h8c0 35.29-28.71 64-64 64s-64-28.71-64-64m64 40c22.056 0 40-17.944 40-40h-8c0 17.645-14.355 32-32 32s-32-14.355-32-32h-8c0 22.056 17.944 40 40 40m0-24c8.822 0 16-7.178 16-16h-8c0 4.411-3.589 8-8 8s-8-3.589-8-8h-8c0 8.822 7.178 16 16 16m80-72v32c0 8.822-7.178 16-16 16H32c-8.822 0-16-7.178-16-16V48c0-8.822 7.178-16 16-16h128c8.822 0 16 7.178 16 16m-32 27.995L48 76v12h96zM168 48c0-4.411-3.589-8-8-8H32c-4.411 0-8 3.589-8 8v32c0 4.411 3.589 8 8 8h8V76c0-4.411 3.589-8 8-8h96c4.411 0 8 3.589 8 8v12h8c4.411 0 8-3.589 8-8z"/></svg>