<svg xmlns="http://www.w3.org/2000/svg" viewBox="0 0 192 192"><path d="M116 84c0-6.617-5.383-12-12-12s-12 5.383-12 12 5.383 12 12 12 12-5.383 12-12m-16 0c0-2.206 1.794-4 4-4s4 1.794 4 4-1.794 4-4 4-4-1.794-4-4M55.194 50.402C47.87 60.152 44 71.77 44 84s3.87 23.848 11.194 33.598l-6.397 4.804C40.425 111.256 36 97.977 36 84s4.425-27.256 12.797-38.402zM24 84c0 18.32 6.734 35.833 18.963 49.313l-5.926 5.375C23.471 123.731 16 104.31 16 84s7.471-39.732 21.037-54.688l5.926 5.375C30.734 48.168 24 65.681 24 84m152-4c0-6.953-3.364-12-8-12s-8 5.047-8 12c0 4.167 1.215 7.64 3.181 9.761-3.308 19.661-16.472 36.433-35.181 44.458v-8.677c14.333-8.312 24-23.814 24-41.542 0-26.467-21.533-48-48-48S56 57.533 56 84c0 17.728 9.667 33.23 24 41.542V160h48v-17.16c22.868-8.497 39.09-28.273 43.054-51.659C174.04 89.49 176 85.303 176 80M64 84c0-22.056 17.944-40 40-40s40 17.944 40 40-17.944 40-40 40-40-17.944-40-40m24 68v-22.752c5.008 1.776 10.391 2.752 16 2.752s10.992-.976 16-2.752V152z"/></svg>