<svg xmlns="http://www.w3.org/2000/svg" viewBox="0 0 192 192"><path d="M175.725 66.543c-1.354-3.46-5.537-3.588-6.911-3.63-22.567-.696-53.963 4.777-57.662 5.733-11.179 2.887-15.733 5.919-24.001 11.424-3.712 2.472-8.166 5.437-14.419 9.206a47 47 0 0 0-2.188-5.411c-4.079-8.514-11.359-15.84-14.469-18.969l-.623-.628c-.758-.771-1.732-1.71-2.849-2.787-5.503-5.302-14.712-14.176-17.148-21.778-.115-.36-.219-.716-.32-1.059-.622-2.119-1.562-5.322-4.901-5.999-4.737-.952-8.861 5.38-9.933 7.676-.545 1.169-1.061 2.202-1.525 3.134-1.583 3.176-2.833 5.685-2.776 8.621.079 4.086 2.053 6.947 3.639 9.247.312.453.622.899.902 1.342.153.244.209.31.644.825 11.03 13.066 18.671 23.319 19.943 26.758.256.694.417 1.354.499 1.878-2.203.096-5.816.584-10.415 4.624-2.563 2.251-3.949 4.579-4.96 6.279-.292.491-.67 1.126-.928 1.468-7.576.35-8.573 6.235-8.697 8.061-.215 3.166.983 5.135 2.027 6.229 1.38 1.447 3.365 2.25 5.427 2.211 2.337-.047 3.593-1.507 4.129-2.13.406-.472 1.02-1.185 3.912-2.029 2.907-.851 6.556.822 11.606 3.134 4.102 1.877 8.75 4.006 14.516 5.452 6.096 1.528 25.127 4.413 40.698 4.413 9.658 0 17.987-1.11 21.066-4.342 1.622-1.702 2.164-3.961 1.487-6.198-.681-2.253-2.368-2.627-4.322-3.06-13.32-2.953-20.112-5.093-23.558-6.458q.388-.278.809-.598c.308-.235.622-.48.978-.759 2.145-1.68 6.139-4.807 21.987-15.444 7.25-4.866 10.985-5.879 23.816-8.096l1.797-.306c11.295-1.911 23.777-4.282 28.933-8.255.767-.591 5.468-5.491 3.791-9.78ZM27.298 58.33l-.141-.167a57 57 0 0 0-.933-1.382c-1.359-1.971-2.194-3.26-2.225-4.857-.019-.972.845-2.705 1.938-4.899.492-.987 1.037-2.081 1.614-3.318.137-.292.312-.6.507-.905 3.292 9.312 13.088 18.75 18.995 24.442 1.056 1.018 1.979 1.905 2.695 2.634l.653.659c2.823 2.841 9.435 9.494 12.928 16.786a39 39 0 0 1 1.663 4.066c-2.856.23-7.56.481-15.331.574-.128-1.711-.598-3.323-1.029-4.488-2.105-5.695-12.764-18.992-21.334-29.145m70.584 61.311a192 192 0 0 0 7.368 2.01c-3.589.212-8.384.237-14.651-.103-12.499-.677-24.758-2.465-30.409-3.882-5.051-1.267-9.344-3.232-13.132-4.966-4.721-2.162-8.946-4.096-13.278-4.096q-.814-.001-1.636.095c.36-.532.681-1.07.983-1.579.86-1.446 1.75-2.941 3.364-4.359 2.938-2.58 4.509-2.621 6.028-2.66.418-.011.931-.031 1.485-.103 5.78-.009 10.317-.096 13.853-.219-.476.964-.613 2.002-.304 3.175.795 3.017 3.662 3.423 5.966 3.749 2.884.409 7.71 1.092 15.029 4.336 1.028.455 2.294 1.097 3.761 1.839.844.427 1.746.884 2.706 1.358l.046-.092c2.484 2.07 6.889 3.735 12.82 5.496Zm43.786-42.952-1.825.311c-13.99 2.417-18.617 3.768-26.913 9.336-16.091 10.801-20.234 14.045-22.46 15.788-.326.255-.612.479-.894.694-1.581 1.204-2.605 1.728-3.354 2.11-.271.139-.587.301-.915.502-1.304-.659-2.465-1.239-3.516-1.704-4.524-2.005-8.276-3.158-11.258-3.866l1.726-1.005c8.921-5.197 14.69-9.039 19.326-12.125 8.032-5.348 11.697-7.789 21.568-10.337 1.845-.477 30.387-5.691 52.459-5.538-5.437 2.705-18.654 4.94-23.944 5.835Z"/></svg>