<svg xmlns="http://www.w3.org/2000/svg" viewBox="0 0 192 192"><path d="M147.932 85.274V49.846c0-5.391-4.18-9.778-9.317-9.778h-89.23c-5.137 0-9.317 4.387-9.317 9.778v92.308c0 5.391 4.18 9.778 9.317 9.778h89.23c5.137 0 9.317-4.387 9.317-9.778v-31.671h8.136v31.67c0 9.879-7.83 17.915-17.453 17.915h-89.23c-9.624 0-17.453-8.036-17.453-17.914V49.846c0-9.878 7.83-17.914 17.453-17.914h89.23c9.624 0 17.453 8.036 17.453 17.914v35.43l8.103-8.104 5.658 5.657L152 100.657l-17.829-17.829 5.658-5.657zM125.527 91.3l-5.813 1.887 3.746 2.96-4.959 6.277-7.935-6.268-12.094 3.925 7.486 10.306 10.095-.407.322 7.994-4.768.192 3.592 4.945-6.472 4.701-3.592-4.945-1.656 4.476-7.503-2.776 3.508-9.48L92 104.781l-7.506 10.333 3.508 9.48-7.502 2.776-1.657-4.476-3.592 4.945-6.473-4.701 3.593-4.946-4.768-.192.322-7.993 10.096.407 7.509-10.337-12.12-3.938-7.92 6.257-4.96-6.277 3.735-2.951-5.804-1.886 2.472-7.609 5.817 1.89-1.294-4.605 7.702-2.164 2.736 9.74L88 92.468V79.745l-8.408-5.606 4.437-6.656L88 70.13v-6.112h8v6.112l3.97-2.647 4.438 6.656L96 79.745v12.727l12.102-3.928 2.731-9.723 7.702 2.163-1.29 4.593 5.814-1.887 2.47 7.61zM92 97.975v-.002z"/></svg>