<svg xmlns="http://www.w3.org/2000/svg" viewBox="0 0 192 192"><path d="m173.657 96-22.828 22.829-5.658-5.658L158.343 100h-31.855l-1.928-8h33.784L145.17 78.829l5.658-5.658zm-49.768-40.937A4 4 0 0 0 120.042 52c-1.805.007-3.444 1.21-3.91 2.982L100 116.282l-16.132-61.3a4 4 0 0 0-7.736 0L60 116.282l-16.132-61.3A4 4 0 0 0 40 52h-.047a4 4 0 0 0-3.844 3.074L16.84 136h8.223l15.13-63.545 15.938 60.563a4 4 0 0 0 7.736 0L80 71.718l16.132 61.3a4 4 0 0 0 7.736 0l15.961-60.652L122.632 84h8.23zM143.392 136l-6.747-28h-8.23l6.748 28z"/></svg>