<svg xmlns="http://www.w3.org/2000/svg" viewBox="0 0 192 192"><path d="M100 160H32c-8.822 0-16-7.178-16-16V92c0-8.822 7.178-16 16-16h36v8H32c-4.411 0-8 3.589-8 8v52c0 4.411 3.589 8 8 8h68c4.411 0 8-3.589 8-8V92c0-4.411-3.589-8-8-8h-8v-8h8c8.822 0 16 7.178 16 16v52c0 8.822-7.178 16-16 16m76-60V48c0-8.822-7.178-16-16-16H92c-8.822 0-16 7.178-16 16v52c0 8.822 7.178 16 16 16h8v-8h-8c-4.411 0-8-3.589-8-8V48c0-4.411 3.589-8 8-8h68c4.411 0 8 3.589 8 8v52c0 4.411-3.589 8-8 8h-36v8h36c8.822 0 16-7.178 16-16"/></svg>