<svg xmlns="http://www.w3.org/2000/svg" viewBox="0 0 192 192"><path fill="#010101" d="M36 72v48h14.552L80 144.54V47.46L50.552 72zm36-7.46v62.92L53.448 112H44V80h9.448zm18.829-17.711L85.17 41.17l20-20 5.658 5.658zm0 98.342 20 20-5.658 5.658-20-20zM156 96c0 30.722-10.85 56.507-33.171 78.829l-5.658-5.658C138.204 148.14 148 124.888 148 96s-9.796-52.14-30.829-73.171l5.658-5.658C145.149 39.493 156 65.278 156 96m-102.784 6h2.493v-2.39h1.52v-2.033h-1.52v-7.922h-2.868l-5.515 7.82v2.134h5.89zm-3.5-4.423 3.62-5.275v5.275zM61.665 102h-2.732V89.791h2.732v5.26l4.149-5.26h3.039l-4.2 5.174 4.49 7.035h-3.056l-3.244-5.02-1.178 1.434zm52.964 6.045c7.357.22 10.466 2.102 10.466 6.263 0 2.452-.963 3.766-3.46 4.904l2.76 5.387c1.708-.92 2.627-1.577 3.503-2.671 1.708-2.015 2.584-4.686 2.584-7.795 0-8.19-6.044-12.832-16.773-12.832-9.984 0-15.502 4.248-15.502 11.956 0 6.656 4.379 11.21 10.86 11.21 5.562 0 9.371-3.81 9.371-9.415 0-3.065-1.313-5.474-3.81-7.007zm-6.088 9.854c-2.978 0-5.08-1.927-5.08-4.686 0-2.672 2.102-4.642 4.993-4.642 2.934 0 5.036 1.927 5.036 4.642s-2.102 4.686-4.948 4.686zm-5.692-22.952c2.846 1.883 7.05 2.978 11.298 2.978 10.116 0 16.335-4.51 16.335-11.824 0-3.679-1.665-6.875-4.642-8.758-3.022-1.927-7.007-2.978-11.518-2.978-9.853 0-16.115 4.554-16.115 11.78 0 3.722 1.664 6.876 4.642 8.802m11.517-13.532c6.832 0 10.73 1.708 10.73 4.73 0 2.978-3.942 4.73-10.598 4.73-7.051 0-10.905-1.708-10.905-4.774 0-2.978 3.898-4.686 10.773-4.686M104.6 66.26c0-2.803-2.102-4.949-4.773-4.949s-4.73 2.146-4.73 4.905c0 2.89 2.015 5.036 4.73 5.036s4.773-2.146 4.773-4.992m-4.73 1.839c-1.094 0-1.883-.745-1.883-1.796 0-1.095.789-1.84 1.884-1.84 1.05 0 1.839.745 1.839 1.797 0 1.094-.788 1.839-1.84 1.839"/></svg>