<svg xmlns="http://www.w3.org/2000/svg" viewBox="0 0 192 192"><path d="m48.623 93.872-.273-1.536c1.93-.325 3.347-.957 4.149-2.68h2.22V102h-2.647v-8.828c-.853.444-2.22.7-3.449.7m12.171 4.542 1.179-1.435L65.217 102h3.056l-4.49-7.035 4.2-5.174h-3.04l-4.149 5.26v-5.26h-2.731V102h2.731zM130 122.513H98.338v5.693c4.423 2.058 6.043 5.693 6.875 10.642l3.942-.702c0-3.152-.657-6.656-1.796-8.845H130zm-8.978-30.835c-3.722 0-6.174 1.884-7.488 5.781-1.401-3.372-3.547-4.992-6.613-4.992-5.211 0-8.714 4.291-8.714 10.685 0 5.912 2.758 9.81 8.189 11.561l1.576-5.605c-3.021-1.226-4.38-2.978-4.38-5.693 0-2.54 1.49-4.117 3.942-4.117 2.496 0 3.986 1.752 3.986 4.686v2.672h4.948v-2.847c0-3.24 1.533-5.08 4.204-5.08 2.76 0 4.423 1.883 4.423 5.08 0 3.284-1.489 5.168-4.86 6.131l1.532 6.087c2.671-.613 4.292-1.532 5.78-3.284 1.928-2.278 2.935-5.43 2.935-9.24 0-7.27-3.679-11.825-9.46-11.825m9.46-14.806c0 7.314-6.219 11.824-16.335 11.824-4.248 0-8.452-1.095-11.298-2.978-2.978-1.927-4.642-5.08-4.642-8.802 0-7.226 6.262-11.78 16.115-11.78 4.511 0 8.496 1.05 11.518 2.977 2.977 1.884 4.642 5.08 4.642 8.76zm-5.387.044c0-3.022-3.897-4.73-10.729-4.73-6.875 0-10.773 1.708-10.773 4.686 0 3.066 3.854 4.774 10.905 4.774 6.656 0 10.597-1.752 10.597-4.73M99.827 61.804c-2.715 0-4.73-2.146-4.73-5.036 0-2.759 2.058-4.905 4.73-4.905s4.773 2.146 4.773 4.949c0 2.846-2.058 4.992-4.773 4.992m.044-3.153c1.05 0 1.839-.744 1.839-1.839 0-1.051-.788-1.796-1.84-1.796-1.094 0-1.883.745-1.883 1.84 0 1.05.789 1.795 1.884 1.795M50.55 72 80 47.46v97.08L50.552 120H36V72h14.552zm2.897 8H44v32h9.448L72 127.46V64.54zm57.38-53.171-5.657-5.658-20 20 5.658 5.658 20-20zm-25.657 124 20 20 5.658-5.658-20-20zM122.83 17.17l-5.658 5.658C138.204 43.86 148 67.112 148 96s-9.796 52.14-30.829 73.171l5.658 5.658C145.149 152.507 156 126.722 156 96s-10.85-56.507-33.171-78.829z"/></svg>