<svg xmlns="http://www.w3.org/2000/svg" viewBox="0 0 192 192"><path d="M16 168h160v8H16zM136.736 28.13l-43.09 77.391L67.02 56.103l-7.042 3.794 29.048 53.92-15.54 27.912-24.48-44.652-7.014 3.846 31.439 57.348 20.098-36.097 19.55 36.288 47.01-88.012.36.187L164.375 83 172 80.58l-8.055-25.38-25.38 8.055 2.42 7.625 11.807-3.747-39.742 74.405-14.901-27.659 45.89-82.422.347.18L148.374 44l7.561-2.42-8.055-25.38-25.38 8.055 2.42 7.625zM39.63 44.307c-4.445-10.29 1.683-24.336 1.946-24.93l1.498-3.374 3.484 1.223c.611.215 15.04 5.38 19.485 15.67 3.146 7.282-.219 15.766-7.501 18.912a14.3 14.3 0 0 1-5.685 1.18c-5.57 0-10.881-3.252-13.227-8.68zm7.344-3.173a6.396 6.396 0 0 0 8.396 3.33 6.35 6.35 0 0 0 3.403-3.508 6.34 6.34 0 0 0-.074-4.887c-1.85-4.283-7.158-7.722-11.153-9.714-1.288 4.272-2.422 10.496-.572 14.78zM21.63 85.317c-4.445-10.291 1.683-24.337 1.946-24.93l1.498-3.374 3.484 1.223c.611.215 15.04 5.38 19.485 15.67a14.3 14.3 0 0 1 .166 11.01 14.29 14.29 0 0 1-7.667 7.901 14.3 14.3 0 0 1-5.686 1.18c-5.569 0-10.88-3.251-13.226-8.68m7.344-3.172a6.35 6.35 0 0 0 3.508 3.402 6.34 6.34 0 0 0 4.887-.073c1.566-.677 2.775-1.923 3.404-3.508s.602-3.321-.074-4.887c-1.85-4.284-7.158-7.722-11.154-9.714-1.287 4.272-2.421 10.495-.57 14.78z"/></svg>