<svg xmlns="http://www.w3.org/2000/svg" viewBox="0 0 192 192"><path d="M173.265 59.795A4 4 0 0 0 176 56V36a4 4 0 0 0-4-4h-28c-.621 0-1.233.145-1.789.422l-16 8A4 4 0 0 0 124 44H52c-.865 0-1.708.281-2.4.8l-10.958 8.218A3.97 3.97 0 0 0 36 52H20a4 4 0 0 0-4 4v80a4 4 0 0 0 4 4h16a3.97 3.97 0 0 0 2.642-1.018L49.6 147.2c.692.519 1.535.8 2.4.8h72c0 1.515.856 2.9 2.211 3.578l16 8A4 4 0 0 0 144 160h28a4 4 0 0 0 4-4v-20a4 4 0 0 0-2.735-3.795L164 129.117v-10.234l9.265-3.088A4 4 0 0 0 176 112V80a4 4 0 0 0-2.735-3.795L164 73.117V62.883zM124 124h-20v-8h20zm-28 8v8H80v-8h-8v8H56V52h16v20.7c-4.653 1.653-8 6.087-8 11.3v16c0 5.213 3.347 9.647 8 11.3V124h8v-12.7c4.653-1.653 8-6.087 8-11.3V84c0-5.213-3.347-9.647-8-11.3V52h16zm-20-28c-2.206 0-4-1.794-4-4V84c0-2.206 1.794-4 4-4s4 1.794 4 4v16c0 2.206-1.794 4-4 4m48 4h-20v-8h20zm0-16h-20v-8h20zm0-16h-20v-8h20zm0-16h-20v-8h20zM24 132V60h8v72zm16-70 8-6v80l-8-6zm64 78v-8h20v8zm28 4V46.472l8-4v107.056l-8-4zm26.735-64.205L168 82.883v26.234l-9.265 3.088A4 4 0 0 0 156 116v16a4 4 0 0 0 2.735 3.795l9.265 3.088V152h-20V40h20v13.117l-9.265 3.088A4 4 0 0 0 156 60v16a4 4 0 0 0 2.735 3.795"/></svg>