<svg xmlns="http://www.w3.org/2000/svg" viewBox="0 0 192 192"><path d="M96 16c-44.112 0-80 35.888-80 80s35.888 80 80 80 80-35.888 80-80-35.888-80-80-80m-.121 68.682 5.31 2.56.53.258 1.41 6.136-4.078 5.004h-6.218L88.76 93.5l1.412-6.085 5.708-2.733zm70.723 25.432-61.485-29.856 50.704-24.277A71.6 71.6 0 0 1 168 96c0 4.83-.486 9.548-1.398 14.114m-15.717-60.64L92.486 77.436l2.924-12.6 3.779-16.283 5.5-24.01c18.44 2.23 34.749 11.448 46.196 24.931m-54.299-25.46-5.192 22.742L82.4 85.505 48.058 42.342C60.8 30.946 77.601 24 96 24c.197 0 .39.013.586.015zm-54.223 24.02 39.052 49.08 1.17 1.477-58.528-.349C24.034 97.496 24 96.752 24 96c0-18.41 6.954-35.222 18.363-47.966M24.74 106.247l66.159.393h.021l1.69.01-38.329 47.977c-15.672-11.185-26.691-28.477-29.54-48.38zm36.415 52.732 31.474-39.517.088-.11.113-.14 11.22-14.045 1.324-1.624 4.815 21.312 8.885 39.33A71.7 71.7 0 0 1 96 168a71.54 71.54 0 0 1-34.844-9.02zm65.437 2.18-15.625-69.166 53.579 26.016c-6.14 19.077-20.032 34.7-37.954 43.15"/></svg>