<svg xmlns="http://www.w3.org/2000/svg" viewBox="0 0 192 192"><path d="M128 176H64c-15.44 0-28-12.56-28-28V44c0-15.44 12.56-28 28-28h64c15.44 0 28 12.56 28 28v104c0 15.44-12.56 28-28 28M64 24c-11.028 0-20 8.972-20 20v104c0 11.028 8.972 20 20 20h64c11.028 0 20-8.972 20-20V44c0-11.028-8.972-20-20-20zm76 124c-1.594 0-7.16-2.964-10.114-6.546a4 4 0 0 0-6.172 0C122.447 142.99 117.816 148 111.4 148s-11.047-5.01-12.314-6.546a4 4 0 0 0-6.171 0C91.648 142.99 87.016 148 80.6 148s-11.048-5.01-12.314-6.546a4 4 0 0 0-6.17 0C59.158 145.036 53.592 148 51.999 148v8c3.833 0 9.193-2.929 13.147-6.31C68.46 152.645 73.731 156 80.6 156c6.832 0 12.084-3.318 15.4-6.264 3.315 2.946 8.568 6.264 15.4 6.264 6.869 0 12.14-3.354 15.453-6.31 3.954 3.381 9.313 6.31 13.147 6.31zm-8-43.805c0-10.167-4.358-16.647-8.203-22.363-3.671-5.458-6.842-10.172-6.842-17.9 0-11.383 8.616-19.314 8.693-19.383l-5.326-5.97c-.464.414-11.367 10.313-11.367 25.353 0 10.168 4.358 16.648 8.203 22.364 3.671 5.458 6.842 10.172 6.842 17.9 0 11.138-10.762 19.04-10.871 19.118l4.656 6.505c.581-.414 14.215-10.319 14.215-25.624m-24.478 0c0-10.167-4.358-16.647-8.203-22.363-3.671-5.458-6.841-10.172-6.841-17.9 0-11.383 8.616-19.314 8.693-19.383l-5.326-5.97c-.464.414-11.367 10.313-11.367 25.353 0 10.168 4.358 16.648 8.203 22.364 3.671 5.458 6.841 10.172 6.841 17.9 0 11.138-10.761 19.04-10.87 19.118l2.333 3.25-2.324-3.256 4.648 6.511c.58-.414 14.213-10.319 14.213-25.624m-24.477 0c0-10.167-4.358-16.647-8.203-22.363C71.17 76.374 68 71.66 68 63.932c0-11.383 8.617-19.314 8.693-19.383l-5.325-5.97C70.903 38.993 60 48.892 60 63.932c0 10.168 4.358 16.648 8.204 22.364 3.671 5.458 6.841 10.172 6.841 17.9 0 11.138-10.761 19.04-10.87 19.118l4.657 6.505c.58-.414 14.213-10.319 14.213-25.624"/></svg>