<svg xmlns="http://www.w3.org/2000/svg" viewBox="0 0 192 192"><path d="M128 176H64c-15.44 0-28-12.56-28-28V44c0-15.44 12.56-28 28-28h64c15.44 0 28 12.56 28 28v104c0 15.44-12.56 28-28 28M64 24c-11.028 0-20 8.972-20 20v104c0 11.028 8.972 20 20 20h64c11.028 0 20-8.972 20-20V44c0-11.028-8.972-20-20-20z"/><path d="M140 152c-3.833 0-9.193-2.929-13.147-6.31-3.313 2.956-8.584 6.31-15.453 6.31-6.832 0-12.084-3.318-15.4-6.264-3.316 2.946-8.568 6.264-15.4 6.264-6.869 0-12.14-3.354-15.453-6.31C61.193 149.07 55.833 152 52 152v-8c1.593 0 7.16-2.963 10.115-6.546a4 4 0 0 1 6.17 0C69.553 138.99 74.186 144 80.6 144s11.048-5.01 12.315-6.545a4 4 0 0 1 6.17 0c1.267 1.535 5.899 6.545 12.315 6.545s11.048-5.01 12.314-6.545a4 4 0 0 1 6.171 0C132.841 141.036 138.407 144 140 144zm0-20c-3.833 0-9.193-2.929-13.147-6.31-3.313 2.956-8.584 6.31-15.453 6.31-6.832 0-12.084-3.318-15.4-6.264-3.316 2.946-8.568 6.264-15.4 6.264-6.869 0-12.14-3.354-15.453-6.31C61.193 129.07 55.833 132 52 132v-8c1.593 0 7.16-2.963 10.115-6.546a4 4 0 0 1 6.17 0C69.553 118.99 74.186 124 80.6 124s11.048-5.01 12.315-6.545a4 4 0 0 1 6.17 0c1.267 1.535 5.899 6.545 12.315 6.545s11.048-5.01 12.314-6.545a4 4 0 0 1 6.171 0C132.841 121.036 138.407 124 140 124zm0-20c-3.833 0-9.193-2.929-13.147-6.31-3.313 2.956-8.584 6.31-15.453 6.31-6.832 0-12.084-3.318-15.4-6.264-3.316 2.946-8.568 6.264-15.4 6.264-6.869 0-12.14-3.354-15.453-6.31C61.193 109.07 55.833 112 52 112v-8c1.593 0 7.16-2.963 10.115-6.546a4 4 0 0 1 6.17 0C69.553 98.99 74.186 104 80.6 104s11.048-5.01 12.315-6.545a4 4 0 0 1 6.17 0C100.352 98.99 104.984 104 111.4 104s11.048-5.01 12.314-6.545a4 4 0 0 1 6.171 0C132.841 101.036 138.407 104 140 104zM96 84c-8.822 0-16-7.776-16-17.334 0-7.015 3.804-13.457 6.861-18.632l.686-1.165c3.02-5.16 4.899-8.704 4.917-8.74L96 31.45l3.536 6.68c.018.036 1.898 3.58 4.916 8.74l.687 1.165C108.196 53.21 112 59.651 112 66.667 112 76.224 104.822 84 96 84m0-35.765q-.713 1.247-1.548 2.674l-.702 1.194C91.188 56.439 88 61.837 88 66.666 88 71.814 91.589 76 96 76s8-4.187 8-9.334c0-4.829-3.188-10.227-5.75-14.563l-.703-1.194A367 367 0 0 1 96 48.235"/></svg>