<svg xmlns="http://www.w3.org/2000/svg" viewBox="0 0 192 192"><path d="M48 100c-15.112 0-26.025-8.502-26.483-8.864l4.957-6.28C26.564 84.928 35.75 92 48 92c8.542 0 13.43-1.82 18.604-3.749C72.214 86.161 78.016 84 88 84c15.112 0 26.025 8.502 26.483 8.864l-4.966 6.272C109.435 99.072 100.25 92 88 92c-8.542 0-13.43 1.82-18.604 3.749C63.786 97.839 57.984 100 48 100m21.396-28.251C74.57 69.82 79.458 68 88 68c12.249 0 21.435 7.072 21.517 7.136l4.966-6.272C114.025 68.502 103.113 60 88 60c-9.984 0-15.786 2.162-21.396 4.251C61.43 66.18 56.542 68 48 68c-12.249 0-21.435-7.072-21.526-7.144l-4.957 6.28C21.975 67.498 32.887 76 48 76c9.984 0 15.786-2.162 21.396-4.251m0-24C74.57 45.82 79.458 44 88 44c12.249 0 21.435 7.072 21.517 7.136l4.966-6.272C114.025 44.502 103.113 36 88 36c-9.984 0-15.786 2.162-21.396 4.251C61.43 42.18 56.542 44 48 44c-12.249 0-21.435-7.072-21.526-7.144l-4.957 6.28C21.975 43.498 32.887 52 48 52c9.984 0 15.786-2.162 21.396-4.251M156 16H96c-6.617 0-12 5.383-12 12v.077q1.488-.076 3-.077c1.711 0 3.366.094 5 .231V28c0-2.206 1.794-4 4-4h60c2.206 0 4 1.794 4 4v136c0 2.206-1.794 4-4 4H96c-2.206 0-4-1.794-4-4v-63.665a31 31 0 0 0-4.73-.324c-1.12.01-2.202.093-3.27.214V164c0 6.617 5.383 12 12 12h60c6.617 0 12-5.383 12-12V28c0-6.617-5.383-12-12-12"/></svg>