<svg xmlns="http://www.w3.org/2000/svg" viewBox="0 0 192 192"><path d="M148 16H84c-15.44 0-28 12.56-28 28v104c0 1.358.102 2.693.29 4H44c-4.038 0-8-3.962-8-8v-20.524c6.897-1.78 12-8.023 12-15.476v-8h-4V88h-8v12h-8V88h-8v12h-4v8c0 7.453 5.103 13.697 12 15.476V144c0 8.374 7.626 16 16 16h14.707c4.502 9.451 14.146 16 25.293 16h64c15.44 0 28-12.56 28-28V44c0-15.44-12.56-28-28-28m20 132c0 11.028-8.972 20-20 20H84c-11.028 0-20-8.972-20-20V44c0-11.028 8.972-20 20-20h64c11.028 0 20 8.972 20 20zm-20.286-53.485C149.82 99.782 152 105.229 152 112c0 13.501-8.797 22.454-9.171 22.829L140 132l-2.84-2.816c.068-.07 6.84-7.079 6.84-17.184 0-5.23-1.804-9.74-3.714-14.515C138.18 92.218 136 86.771 136 80c0-13.501 8.797-22.454 9.171-22.829l5.658 5.658C150.772 62.886 144 69.895 144 80c0 5.23 1.804 9.74 3.714 14.515m-28 0C121.82 99.782 124 105.229 124 112c0 13.501-8.797 22.454-9.171 22.829L112 132l-2.84-2.816c.068-.07 6.84-7.079 6.84-17.184 0-5.23-1.804-9.74-3.714-14.515C110.18 92.218 108 86.771 108 80c0-13.501 8.797-22.454 9.171-22.829l5.658 5.658C122.772 62.886 116 69.895 116 80c0 5.23 1.804 9.74 3.714 14.515m-28 0C93.82 99.782 96 105.229 96 112c0 13.501-8.797 22.454-9.171 22.829L84 132l-2.84-2.816c.068-.07 6.84-7.079 6.84-17.184 0-5.23-1.804-9.74-3.714-14.515C82.18 92.218 80 86.771 80 80c0-13.501 8.797-22.454 9.171-22.829l5.658 5.658C94.772 62.886 88 69.895 88 80c0 5.23 1.804 9.74 3.714 14.515M148 16H84c-15.44 0-28 12.56-28 28v104c0 1.358.102 2.693.29 4H44c-4.038 0-8-3.962-8-8v-20.524c6.897-1.78 12-8.023 12-15.476v-8h-4V88h-8v12h-8V88h-8v12h-4v8c0 7.453 5.103 13.697 12 15.476V144c0 8.374 7.626 16 16 16h14.707c4.502 9.451 14.146 16 25.293 16h64c15.44 0 28-12.56 28-28V44c0-15.44-12.56-28-28-28m20 132c0 11.028-8.972 20-20 20H84c-11.028 0-20-8.972-20-20V44c0-11.028 8.972-20 20-20h64c11.028 0 20 8.972 20 20zm-20.286-53.485C149.82 99.782 152 105.229 152 112c0 13.501-8.797 22.454-9.171 22.829L140 132l-2.84-2.816c.068-.07 6.84-7.079 6.84-17.184 0-5.23-1.804-9.74-3.714-14.515C138.18 92.218 136 86.771 136 80c0-13.501 8.797-22.454 9.171-22.829l5.658 5.658C150.772 62.886 144 69.895 144 80c0 5.23 1.804 9.74 3.714 14.515m-28 0C121.82 99.782 124 105.229 124 112c0 13.501-8.797 22.454-9.171 22.829L112 132l-2.84-2.816c.068-.07 6.84-7.079 6.84-17.184 0-5.23-1.804-9.74-3.714-14.515C110.18 92.218 108 86.771 108 80c0-13.501 8.797-22.454 9.171-22.829l5.658 5.658C122.772 62.886 116 69.895 116 80c0 5.23 1.804 9.74 3.714 14.515m-28 0C93.82 99.782 96 105.229 96 112c0 13.501-8.797 22.454-9.171 22.829L84 132l-2.84-2.816c.068-.07 6.84-7.079 6.84-17.184 0-5.23-1.804-9.74-3.714-14.515C82.18 92.218 80 86.771 80 80c0-13.501 8.797-22.454 9.171-22.829l5.658 5.658C94.772 62.886 88 69.895 88 80c0 5.23 1.804 9.74 3.714 14.515"/></svg>