<svg xmlns="http://www.w3.org/2000/svg" viewBox="0 0 192 192"><path d="M128 16H64c-15.44 0-28 12.56-28 28v104c0 15.44 12.56 28 28 28h64c15.44 0 28-12.56 28-28V44c0-15.44-12.56-28-28-28m20 132c0 11.028-8.972 20-20 20H64c-11.028 0-20-8.972-20-20V44c0-11.028 8.972-20 20-20h64c11.028 0 20 8.972 20 20zm-8-4v8c-3.833 0-9.193-2.929-13.147-6.31-3.313 2.956-8.584 6.31-15.453 6.31-6.832 0-12.084-3.318-15.4-6.264-3.316 2.946-8.568 6.264-15.4 6.264-6.869 0-12.14-3.354-15.453-6.31C61.193 149.07 55.833 152 52 152v-8c1.593 0 7.16-2.963 10.115-6.546a4 4 0 0 1 6.17 0C69.553 138.99 74.186 144 80.6 144s11.048-5.01 12.315-6.545a4 4 0 0 1 6.17 0c1.267 1.535 5.899 6.545 12.315 6.545s11.048-5.01 12.314-6.545a4 4 0 0 1 6.171 0C132.841 141.036 138.407 144 140 144m0-20v8c-3.833 0-9.193-2.929-13.147-6.31-3.313 2.956-8.584 6.31-15.453 6.31-6.832 0-12.084-3.318-15.4-6.264-3.316 2.946-8.568 6.264-15.4 6.264-6.869 0-12.14-3.354-15.453-6.31C61.193 129.07 55.833 132 52 132v-8c1.593 0 7.16-2.963 10.115-6.546a4 4 0 0 1 6.17 0C69.553 118.99 74.186 124 80.6 124s11.048-5.01 12.315-6.545a4 4 0 0 1 6.17 0c1.267 1.535 5.899 6.545 12.315 6.545s11.048-5.01 12.314-6.545a4 4 0 0 1 6.171 0C132.841 121.036 138.407 124 140 124m0-20v8c-3.833 0-9.193-2.929-13.147-6.31-3.313 2.956-8.584 6.31-15.453 6.31-6.832 0-12.084-3.318-15.4-6.264-3.316 2.946-8.568 6.264-15.4 6.264-6.869 0-12.14-3.354-15.453-6.31C61.193 109.07 55.833 112 52 112v-8c1.593 0 7.16-2.963 10.115-6.546a4 4 0 0 1 6.17 0C69.553 98.99 74.186 104 80.6 104s11.048-5.01 12.315-6.545a4 4 0 0 1 6.17 0C100.352 98.99 104.984 104 111.4 104s11.048-5.01 12.314-6.545a4 4 0 0 1 6.171 0C132.841 101.036 138.407 104 140 104m-23.38-41.86c-2.165-3.42-4.62-7.296-4.62-13.509 0-9.672 9.461-15.758 9.864-16.013l4.272 6.764c-1.696 1.092-6.136 4.903-6.136 9.25 0 3.892 1.491 6.247 3.38 9.228 2.165 3.42 4.62 7.296 4.62 13.508 0 9.673-9.461 15.76-9.864 16.014L116 84l-2.15-3.373c1.71-1.101 6.15-4.912 6.15-9.259 0-3.892-1.491-6.247-3.38-9.228m-24 0C90.456 58.72 88 54.844 88 48.631c0-9.672 9.461-15.758 9.864-16.013l4.272 6.764C100.44 40.474 96 44.285 96 48.632c0 3.892 1.491 6.247 3.38 9.228 2.165 3.42 4.62 7.296 4.62 13.508 0 9.673-9.461 15.76-9.864 16.014L92 84l-2.15-3.373c1.71-1.101 6.15-4.912 6.15-9.259 0-3.892-1.491-6.247-3.38-9.228m-24 0C66.456 58.72 64 54.844 64 48.631c0-9.672 9.461-15.758 9.864-16.013l4.272 6.764C76.44 40.474 72 44.285 72 48.632c0 3.892 1.491 6.247 3.38 9.228C77.544 61.28 80 65.156 80 71.369c0 9.672-9.461 15.758-9.864 16.013L68 84l-2.15-3.373C67.56 79.526 72 75.715 72 71.37c0-3.893-1.491-6.248-3.38-9.229z"/></svg>