<svg xmlns="http://www.w3.org/2000/svg" viewBox="0 0 192 192"><path d="M92 64H80v-8h12V44h8v12h12v8h-12v12h-8zM72.268 92.061h-7.18c-.92 4.051-3.866 6.26-9.512 7.058v6.996c3.497-.062 6.75-.675 8.345-1.534v24.178h-7.977V136H80v-7.241h-7.732V92.06zm64.131 8.592c0 5.584-3.927 9.512-9.45 9.512-5.645 0-9.45-3.866-9.45-9.634 0-5.4 3.927-9.328 9.45-9.328 5.584 0 9.45 3.927 9.45 9.45m-5.707 0c0-3.314-1.288-5.032-3.743-5.032s-3.743 1.78-3.743 4.97c0 3.437 1.289 5.155 3.743 5.155 2.455 0 3.743-1.718 3.743-5.093m-15.171 13.318c0 6.15-1.434 11.582-4.06 15.702-2.569 4.06-6.927 6.327-11.941 6.327-9.97 0-16.12-8.478-16.12-22.27 0-5.79 1.492-11.521 4.059-15.403 2.627-4.06 6.927-6.327 12-6.327 9.851 0 16.062 8.537 16.062 21.97zm-9.614.058c0-9.373-2.328-14.686-6.387-14.686-4.179 0-6.507 5.253-6.507 14.866 0 9.074 2.387 14.448 6.446 14.448 4.12 0 6.448-5.313 6.448-14.628M160 44.842v102.316C160 163.062 147.062 176 131.158 176H60.842C44.938 176 32 163.062 32 147.158V44.842C32 28.938 44.938 16 60.842 16h70.316C147.062 16 160 28.938 160 44.842m-8 0C152 33.35 142.65 24 131.158 24H60.842C49.35 24 40 33.35 40 44.842v102.316C40 158.65 49.35 168 60.842 168h70.316C142.65 168 152 158.65 152 147.158z"/></svg>