<svg xmlns="http://www.w3.org/2000/svg" viewBox="0 0 192 192"><path d="M132 16H80c-11.493 0-21.938 7.263-26.092 17.889C43.443 37.948 36 48.118 36 60v88c0 15.439 12.561 28 28 28h52c11.887 0 22.061-7.449 26.116-17.922C152.841 153.893 160 143.529 160 132V44c0-15.439-12.561-28-28-28m4 132c0 11.028-8.972 20-20 20H64c-11.028 0-20-8.972-20-20V60c0-11.028 8.972-20 20-20h52c11.028 0 20 8.972 20 20zm16-16c0 6.37-3.063 12.248-8 15.97V60c0-15.439-12.561-28-28-28H64.06c3.725-4.901 9.606-8 15.94-8h52c11.028 0 20 8.972 20 20zM90 51.989c-20.953 0-38 17.047-38 38s17.047 38 38 38 38-17.047 38-38-17.047-38-38-38m0 68c-16.542 0-30-13.458-30-30s13.458-30 30-30 30 13.458 30 30-13.458 30-30 30m21.128-21.14.093.088-.05.118a22.4 22.4 0 0 1-1.732 3.309 22.4 22.4 0 0 1-2.32 3.021l-.087.095-.12-.048c-1.937-.787-3.494-1.57-4.899-2.467-3.022-1.927-5.647-4.344-7.853-7.152-1.043.706-2.3 1.118-3.651 1.118s-2.616-.416-3.661-1.125c-2.208 2.812-4.834 5.23-7.859 7.16-1.406.896-2.962 1.68-4.899 2.467l-.12.048-.087-.095a22.3 22.3 0 0 1-2.32-3.021 22 22 0 0 1-1.732-3.309l-.05-.118.093-.088c1.174-1.118 2.601-2.404 4.276-3.472a32.3 32.3 0 0 1 9.878-4.193 7 7 0 0 1-.052-.786 6.54 6.54 0 0 1 3.912-5.98 31.6 31.6 0 0 1-1.792-10.484c0-1.667.176-3.401.555-5.458l.023-.127.127-.022a21.9 21.9 0 0 1 7.516-.013l.126.021.025.125c.311 1.591.628 3.486.628 5.473 0 3.629-.602 7.182-1.774 10.576 2.196 1.054 3.72 3.293 3.72 5.888 0 .268-.021.53-.053.79a32.3 32.3 0 0 1 9.863 4.189c1.676 1.068 3.102 2.354 4.276 3.472"/></svg>