<svg xmlns="http://www.w3.org/2000/svg" viewBox="0 0 192 192"><path d="M120 72v24H96v-8h10.333c-3.52-3.131-10.285-8-18.333-8-8.221 0-12.775 2.545-18.049 5.492C64.492 88.542 58.305 92 48 92c-15.576 0-26.598-12.875-27.06-13.423l6.113-5.161C27.143 73.52 36.195 84 48 84c8.221 0 12.775-2.545 18.049-5.492C71.508 75.458 77.695 72 88 72c10.946 0 19.637 6.355 24 10.325V72zM88 44c-10.305 0-16.492 3.458-21.951 6.508C60.775 53.455 56.22 56 48 56c-8.046 0-14.81-4.866-18.332-8H40v-8H16v24h8V53.675C28.363 57.645 37.054 64 48 64c10.305 0 16.492-3.458 21.951-6.508C75.225 54.545 79.78 52 88 52c11.805 0 20.857 10.479 20.94 10.577l6.12-5.154C114.598 56.875 103.576 44 88 44m64-28H92c-6.617 0-12 5.383-12 12v8.659c2.394-.4 5.03-.64 8-.654V28c0-2.206 1.794-4 4-4h60c2.206 0 4 1.794 4 4v136c0 2.206-1.794 4-4 4H92c-2.206 0-4-1.794-4-4V88.015c-.08-.002-.158-.015-.239-.015-3.115 0-5.575.522-7.761 1.35V164c0 6.617 5.383 12 12 12h60c6.617 0 12-5.383 12-12V28c0-6.617-5.383-12-12-12"/></svg>