<svg xmlns="http://www.w3.org/2000/svg" viewBox="0 0 192 192"><path d="M64 168c-11.03 0-20-8.97-20-20V44c0-11.03 8.97-20 20-20h64c11.03 0 20 8.97 20 20v70.31c1.64-.2 3.31-.31 5-.31 1.01 0 2.01.04 3 .11V44c0-15.44-12.56-28-28-28H64c-15.44 0-28 12.56-28 28v104c0 15.44 12.56 28 28 28h57.49c-1.8-2.46-3.31-5.15-4.5-8zm59.38-94.14c6.09 9.62 12.56 28.28 12.62 44.03a38.5 38.5 0 0 0-8.32 5.45c.21-1.69.32-3.44.32-5.23 0-11.74-4.2-26.09-8.91-35.54l-8.27 8.27-2.43-5.12c-3.22-6.77-5.27-14.49-7.25-21.96-2.97-11.2-5.44-19.38-9.39-22.44-1.32 13.91-7.64 24.95-13.78 35.66C70.79 89.53 64 101.39 64 118.11c0 10.49 3.64 19.32 9.83 25.33C72.66 140.12 72 136.3 72 132c0-11.29 2.97-27.88 17.1-42.75l5.37-5.66 1.46 7.66c1.21 6.39 6.05 12.43 11.17 18.82 5.6 6.99 11.37 14.19 12.64 22.55a38.8 38.8 0 0 0-5.19 13.81c-.26 1.52-.43 3.08-.5 4.66-.03.63-.05 1.27-.05 1.91 0 .99.04 1.96.11 2.93-5.17 2.54-11.07 3.97-17.46 4.06-.22.01-.43.01-.65.01-23.18 0-40-17.62-40-41.89 0-18.85 7.64-32.2 15.03-45.1C77.7 61.36 84 50.35 84 36v-4h4c12.98 0 16.99 15.1 20.87 29.7 1.37 5.15 2.76 10.41 4.53 15.24l7.31-7.3zM80 132c0 13.74 8.29 20 16 20 7.93 0 16-8.07 16-16 0-7.02-5.41-13.78-11.14-20.93-3.85-4.8-7.79-9.73-10.36-15.1C81.94 111.46 80 123.47 80 132m96 28h-16v16h-16v-16h-16v-16h16v-16h16v16h16z"/></svg>