<svg xmlns="http://www.w3.org/2000/svg" viewBox="0 0 192 192"><path d="M128 16H64c-15.44 0-28 12.56-28 28v104c0 15.44 12.56 28 28 28h64c15.44 0 28-12.56 28-28V44c0-15.44-12.56-28-28-28m20 132c0 11.028-8.972 20-20 20H64c-11.028 0-20-8.972-20-20V44c0-11.028 8.972-20 20-20h64c11.028 0 20 8.972 20 20zm-27.294-78.362-7.307 7.306c-1.765-4.83-3.164-10.098-4.53-15.24C104.993 47.101 100.982 32 88 32h-4v4c0 14.35-6.3 25.355-12.971 37.007C63.64 85.914 56 99.26 56 118.105 56 142.381 72.822 160 96 160s40-17.62 40-41.895c0-15.795-6.502-34.585-12.62-44.245zM80 132c0-8.533 1.945-20.536 10.501-32.03 2.566 5.375 6.508 10.295 10.358 15.101C106.59 122.222 112 128.977 112 136c0 7.925-8.075 16-16 16-7.706 0-16-6.259-16-20m38.858 10.745c.737-2.178 1.142-4.45 1.142-6.745 0-9.833-6.557-18.017-12.897-25.931-5.123-6.393-9.96-12.432-11.173-18.816l-1.456-7.664-5.374 5.656C74.967 104.122 72 120.707 72 132c0 4.297.666 8.108 1.83 11.436-6.189-6.014-9.83-14.838-9.83-25.33 0-16.719 6.787-28.573 13.972-41.124 6.134-10.716 12.455-21.756 13.777-35.663 3.954 3.06 6.417 11.246 9.389 22.438 1.983 7.468 4.034 15.19 7.249 21.96l2.432 5.12 8.27-8.27c4.706 9.45 8.911 23.8 8.911 35.538 0 10.098-3.373 18.65-9.142 24.64"/></svg>