<svg xmlns="http://www.w3.org/2000/svg" viewBox="0 0 192 192"><path d="M128 16H64c-15.44 0-28 12.56-28 28v104c0 15.44 12.56 28 28 28h64c15.44 0 28-12.56 28-28V44c0-15.44-12.56-28-28-28m20 132c0 11.028-8.972 20-20 20H64c-11.028 0-20-8.972-20-20V44c0-11.028 8.972-20 20-20h64c11.028 0 20 8.972 20 20zm-40.282-46.816a12.2 12.2 0 0 0-3.479-6.058 61 61 0 0 0 3.313-19.792c0-3.147-.337-6.538-1.03-10.364l-.496-2.741-2.744-.485a41.5 41.5 0 0 0-14.422-.026l-2.725.471-.522 2.716c-.576 3.002-1.165 6.588-1.165 10.43 0 6.78 1.11 13.493 3.247 19.851a12.2 12.2 0 0 0-3.413 6 60.04 60.04 0 0 0-26.862 12.961l-2.115 1.786.925 2.609a42.9 42.9 0 0 0 7.332 12.953l1.833 2.227 2.692-1.036c9.354-3.603 17.691-9.513 24.277-17.066a11.9 11.9 0 0 0 3.636.57c1.177 0 2.312-.18 3.388-.499 6.589 7.644 14.978 13.584 24.428 17.148l2.666 1.006 1.822-2.19a42.9 42.9 0 0 0 7.466-13.113l.925-2.609-2.115-1.786a60 60 0 0 0-26.862-12.963m-15.27-25.85c0-2.097.226-4.17.525-6.097a32.8 32.8 0 0 1 6.134.008c.302 2.198.445 4.178.445 6.09 0 5.621-.91 11.2-2.658 16.52-.296-.021-.592-.045-.894-.045-.329 0-.651.024-.974.05a54.4 54.4 0 0 1-2.578-16.526m-24.481 48.734a35 35 0 0 1-3.152-5.591 52 52 0 0 1 20.29-9.294c.257.551.544 1.085.876 1.587-5.014 5.638-11.156 10.197-18.014 13.298m55.947.167c-6.886-3.058-13.038-7.601-18.04-13.262.392-.565.732-1.168 1.025-1.798a52 52 0 0 1 20.286 9.302 34.8 34.8 0 0 1-3.271 5.758"/></svg>