<svg xmlns="http://www.w3.org/2000/svg" viewBox="0 0 192 192"><path d="M128 16H64c-15.44 0-28 12.56-28 28v104c0 15.44 12.56 28 28 28h64c15.44 0 28-12.56 28-28V44c0-15.44-12.56-28-28-28m20 132c0 11.028-8.972 20-20 20H64c-11.028 0-20-8.972-20-20V44c0-11.028 8.972-20 20-20h64c11.028 0 20 8.972 20 20zm-12.722-60.557-8.108 2.635 5.452 4.307-4.96 6.278-9.637-7.614-15.54 5.05 9.61 13.226 12.272-.495.322 7.993-6.942.28 5.011 6.898-6.471 4.702-5.012-6.898-2.412 6.516-7.503-2.776 4.263-11.518-9.613-13.232-9.637 13.264 4.263 11.519-7.503 2.776-2.411-6.516-5.012 6.898-6.472-4.702 5.011-6.898-6.942-.28.322-7.994 12.272.495 9.65-13.282-15.566-5.057-9.637 7.613-4.959-6.277 5.452-4.308-8.109-2.634 2.473-7.609 8.108 2.635-1.879-6.69 7.702-2.163 3.322 11.824 15.553 5.054v-16.33l-10.219-6.814 4.438-6.656 5.78 3.854v-8.526h8v8.526l5.782-3.854 4.438 6.656-10.22 6.813v16.36l15.543-5.051 3.322-11.824 7.702 2.163-1.88 6.69 8.11-2.635z"/></svg>