<svg xmlns="http://www.w3.org/2000/svg" viewBox="0 0 192 192"><path d="M128 16H64c-15.44 0-28 12.56-28 28v104c0 15.44 12.56 28 28 28h64c15.44 0 28-12.56 28-28V44c0-15.44-12.56-28-28-28m20 132c0 11.028-8.972 20-20 20H64c-11.028 0-20-8.972-20-20V44c0-11.028 8.972-20 20-20h64c11.028 0 20 8.972 20 20zm-8-4v8c-3.833 0-9.193-2.929-13.147-6.31-3.313 2.956-8.584 6.31-15.453 6.31-6.832 0-12.084-3.318-15.4-6.264-3.316 2.946-8.568 6.264-15.4 6.264-6.869 0-12.14-3.354-15.453-6.31C61.193 149.07 55.833 152 52 152v-8c1.593 0 7.16-2.963 10.115-6.546a4 4 0 0 1 6.17 0C69.553 138.99 74.186 144 80.6 144s11.048-5.01 12.315-6.545a4 4 0 0 1 6.17 0c1.267 1.535 5.899 6.545 12.315 6.545s11.048-5.01 12.314-6.545a4 4 0 0 1 6.171 0C132.841 141.036 138.407 144 140 144m-81.171-17.171 12.176-12.177c6.133 3.748 15.209 7.396 24.754 7.396 7.972 0 16.266-2.546 23.426-9.705 22.955-22.956 15.9-62.26 15.588-63.922l-.504-2.69-2.69-.504c-1.663-.312-40.965-7.368-63.922 15.588-15.73 15.73-9.187 36.924-2.31 48.182L53.17 121.17zm14.485-60.356c16.72-16.721 45.055-14.86 54-13.782 1.091 8.944 2.977 37.232-13.787 53.995-6.88 6.88-15.664 8.987-26.107 6.262-4.212-1.099-7.894-2.795-10.508-4.203l35.03-35.03-5.657-5.657-35.03 35.03c-4.052-7.544-10.492-24.064 2.059-36.615"/></svg>