<svg xmlns="http://www.w3.org/2000/svg" viewBox="0 0 192 192"><path d="M128 16H64c-15.44 0-28 12.56-28 28v104c0 15.439 12.56 28 28 28h64c15.439 0 28-12.561 28-28V44c0-15.44-12.561-28-28-28m20 132c0 11.027-8.972 20-20 20H64c-11.028 0-20-8.973-20-20V44c0-11.028 8.972-20 20-20h64c11.028 0 20 8.972 20 20z"/><path d="m66.751 134.904-5.502-5.808L64 132l-2.764-2.892c.068-.065 6.764-6.633 6.764-16.055 0-6.77-1.79-11.01-3.685-15.497C62.292 92.766 60 87.336 60 78.947c0-12.94 8.872-21.493 9.249-21.85l5.502 5.807C74.696 62.957 68 69.525 68 78.947c0 6.77 1.79 11.01 3.685 15.497 2.023 4.79 4.315 10.22 4.315 18.609 0 12.94-8.872 21.493-9.249 21.85zm28 0-5.502-5.808L92 132l-2.764-2.892c.068-.065 6.764-6.633 6.764-16.055 0-6.77-1.79-11.01-3.685-15.497C90.292 92.766 88 87.336 88 78.947c0-12.94 8.872-21.493 9.249-21.85l5.502 5.807c-.055.053-6.751 6.621-6.751 16.043 0 6.77 1.79 11.01 3.685 15.497 2.023 4.79 4.315 10.22 4.315 18.609 0 12.94-8.872 21.493-9.249 21.85zm28 0-5.502-5.808L120 132l-2.764-2.892c.068-.065 6.764-6.633 6.764-16.055 0-6.77-1.79-11.01-3.685-15.497-2.023-4.79-4.315-10.22-4.315-18.609 0-12.94 8.872-21.493 9.249-21.85l5.502 5.807c-.055.053-6.751 6.621-6.751 16.043 0 6.77 1.79 11.01 3.685 15.497 2.023 4.79 4.315 10.22 4.315 18.609 0 12.94-8.872 21.493-9.249 21.85z"/></svg>