<svg xmlns="http://www.w3.org/2000/svg" viewBox="0 0 192 192"><path d="M112 156c-3.82 0-9.155-2.908-13.106-6.275C94.44 153.845 89.356 156 84 156c-6.378 0-12.068-2.985-16-6.342-3.932 3.357-9.622 6.342-16 6.342-5.356 0-10.44-2.154-14.894-6.275C33.156 153.092 27.82 156 24 156v-8c1.593 0 7.16-2.963 10.115-6.546a4 4 0 0 1 6.17 0C43.87 145.799 47.81 148 52 148c5.19 0 10.227-3.288 12.915-6.545a4 4 0 0 1 6.17 0C73.773 144.712 78.81 148 84 148c4.19 0 8.131-2.202 11.714-6.545a4 4 0 0 1 6.171 0C104.841 145.036 110.407 148 112 148zm0-28c-1.593 0-7.16-2.963-10.115-6.546a4 4 0 0 0-6.17 0C92.13 125.799 88.19 128 84 128c-5.19 0-10.227-3.288-12.915-6.545a4 4 0 0 0-6.17 0C62.227 124.712 57.19 128 52 128c-4.19 0-8.131-2.202-11.714-6.545a4 4 0 0 0-6.17 0C31.158 125.036 25.592 128 23.999 128v8c3.82 0 9.155-2.908 13.106-6.275C41.56 133.845 46.644 136 52 136c6.378 0 12.068-2.985 16-6.342 3.932 3.357 9.622 6.342 16 6.342 5.356 0 10.44-2.154 14.894-6.275C102.844 133.092 108.18 136 112 136zm0-20c-1.593 0-7.16-2.963-10.115-6.546a4 4 0 0 0-6.17 0C92.13 105.799 88.19 108 84 108c-5.19 0-10.227-3.288-12.915-6.545a4 4 0 0 0-6.17 0C62.227 104.712 57.19 108 52 108c-4.19 0-8.131-2.202-11.714-6.545a4 4 0 0 0-6.17 0C31.158 105.036 25.592 108 23.999 108v8c3.82 0 9.155-2.908 13.106-6.275C41.56 113.845 46.644 116 52 116c6.378 0 12.068-2.985 16-6.342 3.932 3.357 9.622 6.342 16 6.342 5.356 0 10.44-2.154 14.894-6.275C102.844 113.092 108.18 116 112 116zm44-92H96c-6.617 0-12 5.383-12 12v72c3.156 0 6.321-4.43 8-6.888V28c0-2.206 1.794-4 4-4h60c2.206 0 4 1.794 4 4v136c0 2.206-1.794 4-4 4H96c-2.206 0-4-1.794-4-4v-1.173A28.3 28.3 0 0 1 84 164c0 6.617 5.383 12 12 12h60c6.617 0 12-5.383 12-12V28c0-6.617-5.383-12-12-12"/></svg>