<svg xmlns="http://www.w3.org/2000/svg" viewBox="0 0 192 192"><path d="M64 32h-8v-4c0-6.617 5.383-12 12-12h60c6.617 0 12 5.383 12 12v76.2a39.7 39.7 0 0 0-8 1.641V28c0-2.206-1.794-4-4-4H68c-2.206 0-4 1.794-4 4zm.001 132v-52h-8v52c0 6.62 5.38 12 12 12H104v-8H68.001c-2.21 0-4-1.79-4-4m56 11.98v.02h.03c-.01-.01-.02-.02-.03-.02M168 112v10.84c-6.016-6.8-14.755-10.84-24-10.84-17.644 0-32 14.355-32 32h8c0-13.234 10.767-24 24-24 6.873 0 13.368 2.981 17.876 8H152v8h24v-24zM86.828 58.829l-5.656-5.658-8.396 8.396c-1.51-2.606-3.06-5.077-4.443-7.345C63.157 45.73 60 40 60 40s-3.157 5.73-8.333 14.222C46.856 62.114 40 72.39 40 82.667c0 3.435.78 6.67 2.132 9.544l-8.96 8.96 5.656 5.658 8.07-8.07C50.407 102.015 54.981 104 60 104c11.046 0 20-9.551 20-21.333 0-4.624-1.393-9.246-3.358-13.652zm81.3 85.171c0 13.234-10.766 24-24 24-6.872 0-13.368-2.981-17.876-8H136v-8h-24v24h8v-10.994c6.02 6.89 14.815 10.994 24.129 10.994 17.644 0 32-14.355 32-32h-8z"/></svg>