<svg xmlns="http://www.w3.org/2000/svg" viewBox="0 0 192 192"><path fill="#1d1d1b" d="m87.137 44.054-.506-2.69-2.69-.503c-1.168-.217-28.75-5.156-44.956 11.011-10.95 10.924-6.992 25.431-2.28 33.66l-7.654 7.636 5.65 5.664 7.664-7.647c4.338 2.475 10.418 4.744 16.807 4.744 5.746 0 11.739-1.836 16.924-7.009 16.212-16.173 11.26-43.702 11.04-44.866zM70.445 83.257c-7.348 7.33-16.784 4.555-22.126 1.989L71.128 62.49l-5.65-5.663-22.826 22.771c-2.574-5.325-5.362-14.735 1.984-22.063 10.53-10.505 28.177-9.885 35.01-9.183.705 6.825 1.32 24.41-9.2 34.904zM64 32h-8v-4c0-6.617 5.383-12 12-12h60c6.617 0 12 5.383 12 12v76.207a39.7 39.7 0 0 0-8 1.663V28c0-2.206-1.794-4-4-4H68c-2.206 0-4 1.794-4 4zm56.11 144H68c-6.617 0-12-5.383-12-12v-60h8v60c0 2.206 1.794 4 4 4h44.105a40.3 40.3 0 0 0 8.006 8zM152 128h9.878c-4.51-5.02-11.006-8-17.878-8-13.234 0-24 10.766-24 24s10.766 24 24 24 24-10.766 24-24h8c0 17.645-14.356 32-32 32s-32-14.355-32-32 14.355-32 32-32c9.245 0 17.984 4.04 24 10.84V112h8v24h-24z"/></svg>