<svg xmlns="http://www.w3.org/2000/svg" viewBox="0 0 192 192"><path d="M128 16H64c-15.44 0-28 12.56-28 28v104c0 15.44 12.56 28 28 28h64c15.44 0 28-12.56 28-28V44c0-15.44-12.56-28-28-28m20 132c0 11.028-8.972 20-20 20H64c-11.028 0-20-8.972-20-20V44c0-11.028 8.972-20 20-20h64c11.028 0 20 8.972 20 20zm-16.69-45.515-19.048-14.601a12 12 0 0 0-.996-.686c-.112-.07-.23-.126-.344-.191-.232-.134-.464-.27-.703-.386-.12-.058-.242-.103-.363-.157-.24-.108-.48-.217-.726-.309-.122-.045-.246-.077-.368-.117-.248-.083-.496-.168-.749-.234-.148-.039-.297-.063-.446-.096-.228-.05-.455-.105-.686-.142-.227-.036-.455-.054-.683-.077l.046-.122c.055-.15.118-.296.168-.448.486-1.495.677-3.074.56-4.642-.013-.17-.042-.336-.061-.505-.025-.21-.043-.422-.08-.633-.043-.255-.105-.506-.165-.757-.03-.124-.05-.249-.084-.372-.076-.277-.17-.548-.267-.82-.034-.096-.06-.195-.097-.292a12 12 0 0 0-.352-.804c-.044-.093-.08-.188-.125-.28a12 12 0 0 0-.435-.77c-.054-.09-.1-.184-.156-.273a12 12 0 0 0-1.504-1.916c-4.125-4.28-10.86-4.896-15.721-1.332-.107.078-.218.145-.323.227L68.724 86.57a11.92 11.92 0 0 0-4.495 8.004 11.92 11.92 0 0 0 2.464 8.844c.17.217.356.418.539.62C60.973 104.439 56 109.644 56 116c0 6.617 5.383 12 12 12h24c6.617 0 12-5.383 12-12 0-1.82-.42-3.541-1.148-5.089l13.856 10.622a11.94 11.94 0 0 0 7.287 2.47 11.99 11.99 0 0 0 9.538-4.694c4.025-5.252 3.028-12.799-2.224-16.824zm-23.174-2.644a3.98 3.98 0 0 1-2.651 1.533 4 4 0 0 1-3.543-1.342c-.027-.031-.045-.068-.071-.1a4 4 0 0 1-.386-.545l-.006-.014a4.02 4.02 0 0 1-.39-2.962l.001-.01c.057-.22.142-.435.238-.646.014-.031.02-.065.035-.095q.174-.358.424-.685c.18-.236.387-.44.606-.623.082-.069.173-.125.26-.186.141-.1.284-.195.435-.275.12-.064.246-.117.374-.168a4 4 0 0 1 .84-.24q.246-.042.493-.055c.062-.002.123-.012.184-.012.437 0 .866.07 1.273.207.027.01.054.025.081.035.173.063.344.133.507.22.136.072.265.162.394.252.052.036.11.064.16.103l.003.003a4.005 4.005 0 0 1 .739 5.605m-16.27-16.18a4.006 4.006 0 0 1 .675-5.617l.01-.007q.291-.224.611-.39c.08-.041.163-.07.244-.106a4 4 0 0 1 .423-.164c.1-.031.201-.053.303-.076a4 4 0 0 1 .718-.096c.113-.005.226.002.34.007a4 4 0 0 1 .841.126q.27.073.53.183c.087.036.176.071.26.114.18.09.349.202.514.32.069.05.142.091.207.145.222.182.432.385.616.62.654.834.944 1.88.815 2.947a3.97 3.97 0 0 1-1.492 2.67 4.006 4.006 0 0 1-5.616-.677zm1.12 14.374c.017.315.037.63.078.945a11.93 11.93 0 0 0 2.185 5.479A12 12 0 0 0 92 104h-6.613zm-19.323-5.173 9.99-7.842a11.9 11.9 0 0 0 1.92 3.58 12 12 0 0 0 3.012 2.72l-9.982 7.835a3.95 3.95 0 0 1-2.948.816 3.97 3.97 0 0 1-2.669-1.492 4.005 4.005 0 0 1 .677-5.617M64 116c0-2.206 1.794-4 4-4s4 1.794 4 4-1.794 4-4 4-4-1.794-4-4m28 4H79.3c.445-1.253.7-2.596.7-4s-.255-2.747-.7-4H92c2.206 0 4 1.794 4 4s-1.794 4-4 4m35.183-5.558a4.005 4.005 0 0 1-5.608.741l-10.074-7.722a11.9 11.9 0 0 0 2.983-2.753 11.9 11.9 0 0 0 1.878-3.6l10.08 7.726a3.97 3.97 0 0 1 1.522 2.652 3.97 3.97 0 0 1-.78 2.956z"/></svg>