<svg xmlns="http://www.w3.org/2000/svg" viewBox="0 0 192 192"><path fill="#141413" d="M133.259 16.001H58.62c-14.712 0-26.682 12.054-26.682 26.87V148c0 14.246 11.852 26.82 25.819 27.922V176h74.38c14.81 0 27.801-13.084 27.801-28V42.87c0-14.815-11.968-26.869-26.68-26.869zM151.939 148c0 10.28-9.623 20-19.801 20H59.74c-10.178 0-19.802-9.72-19.802-20V42.87c0-10.404 8.38-18.869 18.682-18.869h74.638c10.3 0 18.68 8.465 18.68 18.87zM136 40v8h-12.001v-8zm-12.001 16H136v8h-12.001zm0 16H136v8h-12.001zm0 16H136v8h-12.001zm-43.441 63.296q1.134 1.28 1.134 3.343 0 2.692-1.815 4.147-1.58 1.269-4.158 1.269-3.002 0-4.735-1.61-.867-.804-1.331-2.073l3.652-.99q.516 1.588 2.28 1.588 1.052 0 1.63-.691.506-.61.506-1.6 0-1.02-.62-1.567-.546-.485-1.434-.485-1.35 0-1.919 1.145h-3.425l1.084-9.079h9.316v3.209h-6.47l-.35 3.084q1.156-1.166 2.992-1.166 2.363 0 3.663 1.476m10.11-1.444q-2.373 0-3.57 1.939.145-2.001.794-3.033.733-1.176 2.188-1.176.69 0 1.181.273.49.273 1.016.955l2.641-1.92q-.876-1.175-1.97-1.764-1.238-.67-2.961-.67-2.828 0-4.663 1.95-2.115 2.238-2.115 6.107 0 3.765 1.836 5.705 1.743 1.837 4.53 1.837 2.445 0 4.033-1.29 1.837-1.485 1.837-4.034 0-2.022-1.166-3.353-1.341-1.526-3.611-1.526m.433 6.468q-.598.69-1.6.691-.845 0-1.423-.526-.66-.608-.66-1.63 0-.867.516-1.455.588-.68 1.547-.68.888 0 1.465.515.67.6.671 1.62 0 .877-.516 1.465m10.08-11.864q-1.681 0-2.796.97-1.28 1.114-1.28 2.981 0 1.579.98 2.631 1.125 1.218 3.014 1.217 1.65 0 2.754-.97 1.28-1.114 1.28-2.96 0-1.569-.98-2.631-1.125-1.238-2.972-1.238m.985 5.174q-.366.449-1.026.449-.681 0-1.058-.465-.377-.464-.377-1.29 0-.794.377-1.242.377-.45 1.037-.45c.66 0 .786.154 1.037.46q.377.459.377 1.274t-.367 1.264m20.06 6.577a6.66 6.66 0 0 1-2.011 2.517q-1.806 1.33-4.581 1.33-3.663 0-5.695-2.372-1.764-2.053-1.764-5.365 0-3.714 2.331-5.932 2.032-1.929 5.087-1.929 3.053 0 4.88 1.63.928.876 1.588 2.177l-3.662 1.547q-.485-1.083-1.155-1.547-.672-.465-1.713-.465-1.59 0-2.363 1.29-.68 1.125-.68 3.167 0 2.332.907 3.467.784.99 2.218.99 1.095 0 1.775-.47.68-.469 1.166-1.552zM104.008 112a8 8 0 0 1-16 0A7.99 7.99 0 0 1 92 105.084V68h8v37.075a7.99 7.99 0 0 1 4.008 6.925M116 96.552V52.063c.03-1.133.035-8.87-5.286-14.453C107.167 33.888 102.217 32 96 32c-6.203 0-11.146 1.884-14.693 5.6-5.334 5.59-5.336 13.342-5.307 14.461v44.461c-3.405 4.25-5.129 9.406-5.129 15.35C70.871 125.726 82.144 137 96 137c13.935 0 25.272-11.215 25.272-25.001 0-5.66-1.862-11.085-5.272-15.447M96 129c-9.445 0-17.129-7.684-17.129-17.129 0-4.524 1.334-8.177 4.077-11.167L84 99.557V52l-.003-.162c-.002-.053-.144-5.361 3.135-8.754C89.11 41.038 92.094 40 96 40c3.917 0 6.907 1.04 8.884 3.089 3.272 3.39 3.121 8.69 3.12 8.718L108 99.524l1.015 1.138c2.785 3.124 4.257 7.044 4.257 11.337 0 9.375-7.748 17.001-17.272 17.001"/></svg>