<svg xmlns="http://www.w3.org/2000/svg" viewBox="0 0 192 192"><path d="M128 176H64c-15.44 0-28-12.56-28-28V44c0-15.44 12.56-28 28-28h64c15.44 0 28 12.56 28 28v104c0 15.44-12.56 28-28 28M64 24c-11.028 0-20 8.972-20 20v104c0 11.028 8.972 20 20 20h64c11.028 0 20-8.972 20-20V44c0-11.028-8.972-20-20-20zm36 8h-8v12h8zm40 40h-12v8h12zm-76 0H52v8h12zm11.314-20.829-8.485-8.485-5.658 5.657 8.486 8.486zm55.515-2.828-5.658-5.657-8.485 8.485 5.657 5.658zM140 144c-1.593 0-7.16-2.963-10.115-6.546a4 4 0 0 0-6.17 0c-1.267 1.536-5.9 6.546-12.315 6.546s-11.048-5.01-12.315-6.545a4 4 0 0 0-6.17 0C91.648 138.99 87.016 144 80.6 144s-11.048-5.01-12.314-6.545a4 4 0 0 0-6.17 0C59.158 141.036 53.592 144 51.999 144v8c3.833 0 9.193-2.929 13.147-6.31C68.46 148.645 73.731 152 80.6 152c6.832 0 12.084-3.318 15.4-6.264 3.316 2.946 8.568 6.264 15.4 6.264 6.869 0 12.14-3.354 15.453-6.31 3.954 3.381 9.314 6.31 13.147 6.31zm0-20c-1.593 0-7.16-2.963-10.115-6.546a4 4 0 0 0-6.17 0c-1.267 1.536-5.9 6.546-12.315 6.546s-11.048-5.01-12.315-6.545a4 4 0 0 0-6.17 0C91.648 118.99 87.016 124 80.6 124s-11.048-5.01-12.314-6.545a4 4 0 0 0-6.17 0C59.158 121.036 53.592 124 51.999 124v8c3.833 0 9.193-2.929 13.147-6.31C68.46 128.645 73.731 132 80.6 132c6.832 0 12.084-3.318 15.4-6.264 3.316 2.946 8.568 6.264 15.4 6.264 6.869 0 12.14-3.354 15.453-6.31 3.954 3.381 9.314 6.31 13.147 6.31zm0-20c-1.593 0-7.16-2.963-10.115-6.546a4 4 0 0 0-6.17 0c-1.267 1.536-5.9 6.546-12.315 6.546s-11.048-5.01-12.315-6.545a4 4 0 0 0-6.17 0C91.648 98.99 87.016 104 80.6 104s-11.048-5.01-12.314-6.545a4 4 0 0 0-6.17 0C59.158 101.036 53.592 104 51.999 104v8c3.833 0 9.193-2.929 13.147-6.31C68.46 108.645 73.731 112 80.6 112c6.832 0 12.084-3.318 15.4-6.264 3.316 2.946 8.568 6.264 15.4 6.264 6.869 0 12.14-3.354 15.453-6.31 3.954 3.381 9.314 6.31 13.147 6.31zm-20-28c0-13.234-10.766-24-24-24S72 62.766 72 76c0 3.32.676 6.552 2.01 9.603l7.33-3.206A15.9 15.9 0 0 1 80 76c0-8.822 7.178-16 16-16s16 7.178 16 16c0 2.21-.45 4.364-1.34 6.397l7.33 3.206A23.8 23.8 0 0 0 120 76"/></svg>