<svg xmlns="http://www.w3.org/2000/svg" viewBox="0 0 192 192"><path d="M144 112c-17.645 0-32 14.355-32 32s14.355 32 32 32 32-14.355 32-32-14.355-32-32-32m0 56c-13.234 0-24-10.766-24-24s10.766-24 24-24 24 10.766 24 24-10.766 24-24 24m-37.217-9.366A42.5 42.5 0 0 1 96 160c-23.18 0-40-17.62-40-41.89 0-18.85 7.64-32.2 15.03-45.1C77.7 61.36 84 50.35 84 36v-4h4c12.98 0 16.99 15.1 20.87 29.7 1.37 5.15 2.76 10.41 4.53 15.24l7.31-7.3 2.67 4.22c4.492 7.09 9.178 19.099 11.359 31.234a39.7 39.7 0 0 0-7.66 2.672c-1.488-9.071-4.602-18.4-7.989-25.196l-8.27 8.27-2.43-5.12c-3.22-6.77-5.27-14.49-7.25-21.96-2.97-11.2-5.44-19.38-9.39-22.44-1.32 13.91-7.64 24.95-13.78 35.66C70.79 89.53 64 101.39 64 118.11c0 10.49 3.64 19.32 9.83 25.33C72.66 140.12 72 136.3 72 132c0-11.29 2.97-27.88 17.1-42.75l5.37-5.66 1.46 7.66c1.21 6.39 6.05 12.43 11.17 18.82 2.158 2.692 4.335 5.42 6.277 8.23a40 40 0 0 0-4.837 7.221c-2.065-3.44-4.832-6.898-7.68-10.451-3.85-4.8-7.79-9.73-10.36-15.1C81.94 111.46 80 123.47 80 132c0 13.74 8.29 20 16 20 2.898 0 5.81-1.085 8.344-2.84a39.7 39.7 0 0 0 2.44 9.474zM120.025 176H64c-15.44 0-28-12.56-28-28V44c0-15.44 12.56-28 28-28h64c15.44 0 28 12.56 28 28v61.84a39.7 39.7 0 0 0-8-1.64V44c0-11.028-8.972-20-20-20H64c-11.028 0-20 8.972-20 20v104c0 11.028 8.972 20 20 20h48.02a40.3 40.3 0 0 0 8.005 8M160 148h-18.343l5.172 5.171-5.658 5.658L126.343 144l14.828-14.829 5.658 5.658-5.172 5.171H160z"/></svg>