<svg xmlns="http://www.w3.org/2000/svg" viewBox="0 0 192 192"><path d="M148 16H84c-15.44 0-28 12.56-28 28v104c0 1.358.102 2.693.29 4H44c-4.038 0-8-3.962-8-8v-20.524c6.897-1.78 12-8.023 12-15.476v-8h-4V88h-8v12h-8V88h-8v12h-4v8c0 7.453 5.103 13.697 12 15.476V144c0 8.374 7.626 16 16 16h14.707c4.502 9.451 14.146 16 25.293 16h64c15.44 0 28-12.56 28-28V44c0-15.44-12.56-28-28-28m20 132c0 11.028-8.972 20-20 20H84c-11.028 0-20-8.972-20-20V44c0-11.028 8.972-20 20-20h64c11.028 0 20 8.972 20 20zm-68-44h3.056l-4 8H76v-8zm-24 16h19.056l-4 8H76zm13.37-24H76v-8h20.37l-2.39 2.732zm14-16H76v-8h34.37zm11.26 40H156v8h-48.37l2.39-2.732zm28-32H156v8h-20.37l2.39-2.732zm-9.686-16H156v8h-27.056zm-4.314 32H156v8h-34.37zM104 120l12-24h-16l28-32-12 24h16z"/></svg>