<svg xmlns="http://www.w3.org/2000/svg" viewBox="0 0 192 192"><path fill="#141413" d="M132.14 176H57.76v-.08c-13.97-1.1-25.82-13.68-25.82-27.92V42.87C31.94 28.05 43.91 16 58.62 16h74.64c14.71 0 26.68 12.05 26.68 26.87V148c0 14.92-12.99 28-27.8 28m-72.4-8h72.4c10.18 0 19.8-9.72 19.8-20V42.87c0-10.4-8.38-18.87-18.68-18.87H58.62c-10.3 0-18.68 8.46-18.68 18.87V148c0 10.28 9.62 20 19.8 20M136 52.03h-12v8h12zm0 16h-12v8h12zm0 16h-12v8h12zm0 16h-12v8h12zm-36 17.07V80.03h-8v37.08a7.998 7.998 0 0 0 4.01 14.92c4.42 0 8-3.58 8-8 0-2.96-1.62-5.54-4.01-6.93m-4 31.93c-13.86 0-25.13-11.27-25.13-25.13 0-5.94 1.72-11.1 5.13-15.35V64.09c-.03-1.12-.03-8.87 5.31-14.46 3.55-3.72 8.49-5.6 14.69-5.6 6.22 0 11.17 1.89 14.71 5.61 5.32 5.58 5.32 13.32 5.29 14.45v44.49c3.41 4.36 5.27 9.79 5.27 15.45 0 13.78-11.33 25-25.27 25m0-97c-3.91 0-6.89 1.04-8.87 3.08-3.28 3.39-3.13 8.7-3.13 8.76v47.72l-1.05 1.15c-2.74 2.99-4.08 6.64-4.08 11.17 0 9.44 7.68 17.13 17.13 17.13 9.52 0 17.27-7.63 17.27-17 0-4.29-1.47-8.21-4.26-11.34l-1.01-1.14V63.84c0-.03.15-5.33-3.12-8.72-1.97-2.05-4.96-3.09-8.88-3.09"/></svg>