<svg xmlns="http://www.w3.org/2000/svg" xml:space="preserve" viewBox="0 0 192 192"><path d="m140 157.7-10.8-10.8 5.7-5.7 5.2 5.2 13.2-13.2 5.7 5.7zm36-13.7c0-17.6-14.4-32-32-32s-32 14.4-32 32 14.4 32 32 32 32-14.4 32-32m-8 0c0 13.2-10.8 24-24 24s-24-10.8-24-24 10.8-24 24-24 24 10.8 24 24m-21.2-94.8-5.7 5.7L158.3 72h-9.8C117.3 72 92 97.3 92 128.5V176h8v-47.5c0-26.7 21.8-48.5 48.5-48.5h9.8l-17.2 17.2 5.7 5.7L173.7 76zm-59.4 58.7c.6-1.7 1.2-3.4 1.9-5 .6-1.5 1.3-2.9 2.1-4.3-10-16-27.7-26.6-47.9-26.6h-9.4l17.2-17.2-5.7-5.7L18.8 76l26.8 26.8 5.7-5.7L34.1 80h9.4c19.4 0 36.1 11.4 43.9 27.9M96 18.3 69.2 45.2l5.7 5.7L92 33.7V86c1.4 1.6 2.7 3.3 4 5 1.3-1.8 2.6-3.5 4-5.1V33.6l17.2 17.2 5.7-5.7z"/></svg>