<svg xmlns="http://www.w3.org/2000/svg" viewBox="0 0 192 192"><path d="M100 136V73.7l13.2 13.1 5.6-5.6L96 58.3 73.2 81.2l5.6 5.6L92 73.7V136z"/><path d="M110.9 166.4c-4.8 1-9.8 1.6-14.9 1.6-39.7 0-72-32.3-72-72s32.3-72 72-72 72 32.3 72 72c0 5.1-.5 10.1-1.6 14.9 2.5 1.7 4.8 3.7 6.8 5.9 1.8-6.6 2.7-13.6 2.7-20.8 0-44.1-35.9-80-80-80S16 51.9 16 96s35.9 80 80 80c7.2 0 14.1-1 20.8-2.7-2.2-2.1-4.2-4.4-5.9-6.9"/><path d="m140 146.3-5.2-5.1-5.6 5.6 10.8 10.9 18.8-18.9-5.6-5.6z"/><path d="M144 112c-17.6 0-32 14.4-32 32s14.4 32 32 32 32-14.4 32-32-14.4-32-32-32m0 56c-13.2 0-24-10.8-24-24s10.8-24 24-24 24 10.8 24 24-10.8 24-24 24"/></svg>