<svg xmlns="http://www.w3.org/2000/svg" viewBox="0 0 192 192"><path d="M116 91.716h8V124H91.716v-8h18.627L65.17 70.829l5.658-5.658L116 110.343zm36.569 60.853c-15.596 15.596-36.083 23.393-56.569 23.393s-40.973-7.797-56.569-23.393C8.24 121.376 8.24 70.624 39.431 39.43c31.193-31.191 81.945-31.191 113.138 0 31.191 31.193 31.191 81.945 0 113.138zm-5.657-107.48C132.875 31.051 114.437 24.033 96 24.033s-36.875 7.018-50.912 21.054c-28.072 28.073-28.072 73.75 0 101.824s73.75 28.072 101.824 0c28.072-28.073 28.072-73.75 0-101.824z"/></svg>