<svg xmlns="http://www.w3.org/2000/svg" viewBox="0 0 192 192"><path d="M95.986 15.718c-44.12 0-80.013 35.95-80.013 80.14S51.867 176 95.986 176 176 140.049 176 95.859s-35.894-80.141-80.014-80.141m0 152.282c-39.708 0-72.013-32.362-72.013-72.141s32.305-72.141 72.013-72.141S168 56.08 168 95.858 135.695 168 95.986 168M56 128h80v8H56zm49.685-50.455-5.657-5.657 15.971-15.97 15.971 15.97-5.657 5.657-6.315-6.315V120h-8V71.233zm-39.998 0-5.658-5.657L76 55.918l15.972 15.97-5.658 5.657L80 71.231V120h-8V71.23z"/></svg>