<svg xmlns="http://www.w3.org/2000/svg" viewBox="0 0 192 192"><path d="M126.829 70.829 81.657 116h18.627v8H68V91.716h8v18.627l45.171-45.172zm25.74 81.74c-15.596 15.596-36.083 23.393-56.569 23.393s-40.973-7.797-56.569-23.393C8.24 121.376 8.24 70.624 39.431 39.43c31.193-31.191 81.945-31.191 113.138 0 31.191 31.193 31.191 81.945 0 113.138zm-5.657-107.48C132.877 31.053 114.436 24.033 96 24.033c-18.44 0-36.874 7.016-50.912 21.054-28.072 28.073-28.072 73.75 0 101.824s73.75 28.072 101.824 0c28.072-28.073 28.072-73.75 0-101.824z"/></svg>