<svg xmlns="http://www.w3.org/2000/svg" viewBox="0 0 192 192"><path d="M135.246 128H168v8h-32.753c-7.382 0-14.348-2.781-19.616-7.831l-19.606-18.797-19.658 18.798c-5.267 5.037-12.232 7.81-19.612 7.81H24v-8h32.753c5.31 0 10.311-1.986 14.082-5.591l19.408-18.559-19.515-18.709c-3.552-3.44-8.878-5.305-14.604-5.123L56 80H29.657L46.87 97.214l-5.657 5.656L14.343 76l26.87-26.87 5.657 5.657L29.657 72h26.282c7.862-.23 15.272 2.45 20.341 7.36l19.751 18.936 19.706-18.844C120.69 74.716 128.077 72 136 72h22.357L141.17 54.785l5.662-5.653 26.826 26.87-26.868 26.868-5.656-5.656L158.346 80H136c-5.798 0-11.306 1.957-14.733 5.234l-19.455 18.603 19.355 18.557c3.77 3.615 8.77 5.606 14.08 5.606z"/></svg>