<svg xmlns="http://www.w3.org/2000/svg" viewBox="0 0 192 192"><path d="m81.657 76 45.172 45.171-5.658 5.658L76 81.657v18.627h-8V68h32.284v8zm70.912 76.569c-15.596 15.596-36.083 23.393-56.569 23.393s-40.973-7.797-56.569-23.393C8.24 121.376 8.24 70.624 39.431 39.43c31.193-31.191 81.945-31.191 113.138 0 31.191 31.193 31.191 81.945 0 113.138zm-5.657-107.48c-28.073-28.073-73.75-28.073-101.824 0s-28.072 73.75 0 101.823c28.073 28.072 73.751 28.072 101.824 0 28.072-28.073 28.072-73.75 0-101.824z"/></svg>