<svg xmlns="http://www.w3.org/2000/svg" viewBox="0 0 192 192"><path fill="#020204" d="m82.829 40.827-5.656-5.657 18.828-18.825 18.828 18.825-5.656 5.657-9.172-9.171V97.36a47 47 0 0 0-4.03 4.41 50 50 0 0 0-3.97-4.36V31.657zm8.441 68.003c-1.51 2.74-2.8 5.69-3.85 8.83C79.67 102.12 63.92 100 55.94 100H31.655l9.172 9.173-5.657 5.656-18.826-18.828L35.17 77.173l5.657 5.656-9.169 9.17H55.94c15.58 0 27.77 6.06 35.33 16.83ZM27.72 95.939l-.063.063.063.063v-.125ZM175.66 96l-11.44 11.44v.56h-.56l-6.83 6.83-5.66-5.66 1.17-1.17 8-8H136c-7.97 0-23.73 2.12-31.48 17.66-2.77 5.55-4.52 12.83-4.52 22.34v36h-8.06v-36H92c0-8.44 1.37-15.98 3.97-22.43q.12-.33.27-.66c1.06-2.54 2.32-4.91 3.76-7.09.21-.33.44-.67.67-.99C108.23 98.06 120.42 92 136 92h24.34l-8-8-1.17-1.17 5.66-5.66 6.83 6.83h.56v.56zm-11.44.12.12-.12-.12-.12z"/></svg>