<svg xmlns="http://www.w3.org/2000/svg" xml:space="preserve" viewBox="0 0 192 192"><path d="M158.385 72H16v-8h142.385l-17.213-17.213 5.656-5.657L173.7 68l-26.87 26.87-5.657-5.657zM140 146.343l-5.172-5.171-5.656 5.656L140 157.658l18.828-18.83-5.656-5.656zM176 144c0 17.645-14.355 32-32 32s-32-14.355-32-32 14.355-32 32-32 32 14.355 32 32m-8 0c0-13.233-10.767-24-24-24s-24 10.767-24 24 10.767 24 24 24 24-10.767 24-24m-56-23.972v-.027H33.658l17.213-17.214-5.657-5.656L18.344 124l26.87 26.87 5.657-5.656L33.658 128h73.692a40 40 0 0 1 4.65-7.973"/></svg>