<svg xmlns="http://www.w3.org/2000/svg" viewBox="0 0 192 192"><path d="M92 136V73.7L78.8 86.8l-5.7-5.7L96 58.3l22.8 22.8-5.7 5.7L100 73.7V136zm84 8c0 17.6-14.4 32-32 32s-32-14.4-32-32 14.4-32 32-32 32 14.4 32 32m-8 0c0-13.2-10.8-24-24-24s-24 10.8-24 24 10.8 24 24 24 24-10.8 24-24m-15.5-14.1-8.5 8.5-8.5-8.5-5.7 5.7 8.5 8.5-8.5 8.5 5.7 5.7 8.5-8.5 8.5 8.5 5.7-5.7-8.5-8.5 8.5-8.5zm-41.6 36.5c-4.8 1-9.8 1.6-14.9 1.6-39.7 0-72-32.3-72-72s32.3-72 72-72 72 32.3 72 72c0 5.1-.5 10.1-1.6 14.9 2.5 1.7 4.8 3.7 6.8 5.9 1.8-6.6 2.7-13.6 2.7-20.8 0-44.1-35.9-80-80-80S16 51.9 16 96s35.9 80 80 80c7.2 0 14.1-1 20.8-2.7-2.2-2.1-4.2-4.4-5.9-6.9"/></svg>