<svg xmlns="http://www.w3.org/2000/svg" viewBox="0 0 192 192"><path d="M100 160h-8v-28c0-21.682 16.486-40 36-40v8c-14.916 0-28 14.953-28 32zM96.002 46.402l12.882 16.083 6.244-5-19.13-23.887-19.116 23.905L83.13 62.5zm62.4 49.597-23.905-19.123-4.997 6.248L145.598 96l-16.083 12.876 5 6.246zm-95.903 12.876L46.402 96.01l16.084-12.887-5.002-6.244-23.886 19.14 23.906 19.107 4.995-6.25zm33.429-9.254A48 48 0 0 1 100 95.326V60h-8v35.846a50 50 0 0 1 3.763 3.982q.082-.105.165-.207m-17.002-3.58c-.282-.158-.568-.305-.854-.454-.125-.066-.253-.124-.379-.188a33 33 0 0 0-1.777-.815 34 34 0 0 0-3.738-1.348 31 31 0 0 0-2.008-.52 30 30 0 0 0-1.983-.38c-.454-.068-.907-.137-1.363-.182q-.3-.03-.602-.054A26 26 0 0 0 64 92v8c10.277 0 18.574 7.684 23.099 14.977a52.6 52.6 0 0 1 3.906-8.307l.054-.09c-3.68-4.783-7.882-8.212-12.133-10.54z"/></svg>