<svg xmlns="http://www.w3.org/2000/svg" viewBox="0 0 192 192"><path d="M87.677 136.096s1.686-1.32 1.686-2.786c0-1.467-.66-6.452-.293-8.139s2.346-2.86 4.253-3.592c1.906-.734 4.619-1.467 6.085-2.933 1.467-1.467 2.86-3.813 4.033-4.106s2.713.953 3.3.66 1.539-2.126 3.665-2.713 3.593-.587 3.593-.147-2.273 3.3.586 4.84 4.18 0 4.18-1.027.293-4.84 1.613-4.84 3.08 3.74 2.566 5.573-.733 3.226.88 5.352 4.326 2.787 3.886 5.133-.22 4.032-2.127 5.865-2.2 1.32-3.592 3.007-2.127 3.592-3.08 4.032-2.273 1.173-3.52 1.173-3.665.367-4.105-.513-1.1-2.346-1.026-3.886c.073-1.54-.294-2.493-1.174-2.126-.88.366-.953 1.466-1.906 1.1-.953-.367-1.026-3.666-6.159-2.347-5.132 1.32-8.945 3.446-10.411 3.446s-2.933.22-2.933-1.026m-39.3-81.898c-1.32.806-.22 1.76.44 2.713s.734 1.686-.366 3.592-.367 3.153 1.393 3.153 2.493 2.346 2.273 3.08c-.22.733-3.006 1.686-3.886 1.612s-2.126.807-2.273 3.52 2.2 2.566 2.64 2.713c.44.146.66 1.246 1.026 3.666.367 2.42 4.62 10.558 5.5 10.851s.806-1.026 1.685-1.98.44-4.399 1.32-7.698 5.28-6.012 7.699-6.379c2.42-.367 4.766 3.446 5.499 5.206s1.686 1.833 2.42 1.54c.732-.294 1.539 1.392 2.126 3.812.586 2.42.293 4.84.513 5.792.22.953 2.64 4.766 4.106 6.746s1.76-.367 1.54-1.393-2.347-3.226-3.813-5.426-.807-3.666-.66-4.766.953-.806 3.08.44c2.126 1.247 1.54 3.74 2.419 3.886s2.053-1.466 3.3-2.273c1.246-.806.366-2.346.073-4.4-.294-2.052-3.226-4.105-3.593-5.205s1.466-1.833 2.2-2.346c.733-.513 5.279-.66 7.698-1.833s2.64-3.153 2.786-6.012c.147-2.86-1.76-3.52-3.152-4.986-1.394-1.466-.514-2.053.073-3.446.586-1.393-1.1-.733-2.42-1.246s-.66-1.393-.293-2.347c.367-.953 1.76-.366 3.08-.513s3.959 2.2 5.058 4.473 1.467 1.76 2.86 1.173-.22-1.173-1.1-2.566-2.2-2.787-2.273-5.06.733-3.299 1.32-4.032-.587-1.76-1.906-1.833c-1.32-.073-3.226-.733-5.28-1.54-2.052-.806-2.565-2.566-5.132-4.399s-4.252.293-3.812.953.66 2.566-.147 3.226c-.806.66-3.886.147-7.039.147s-8.725-2.273-9.898-2.273-.22 1.393-1.613 1.906-2.786-.953-4.472-1.393-1.907.66-3.52 1.467c-1.613.806-4.68 2.768-4.619 5.132.073 2.86-1.54 3.74-2.86 4.546m64.449 92.31c1.32-.367 2.273-1.907 2.273-2.494 0-.586-1.09-1.573-2.787-.513-.586.367-.806 3.373.514 3.006zm19.65 2.785c.953-.66 3.079-1.98 4.545-3.079 1.467-1.1 1.393-2.273 1.1-3.08s-1.906 1.32-1.906 1.32l-4.546 2.787c-4.693 1.76-.147 2.712.806 2.052zm8.211-8.651c-.737.491-1.906 4.252-.293 3.372s3.666-1.686 4.18-2.859c.512-1.173-1.247-.733-1.394-2.346s-1.026-1.98-1.173-.587-.22 1.687-1.32 2.42M74.113 92.764c-1.3 0-.22 1.1.293 1.686.513.587 2.2 1.76 3.813 4.546s2.86 6.599 4.692 5.792c1.833-.806.66-3.299-2.346-6.525s-4.033-5.5-6.452-5.5zm13.27 4.692c-.366 1.027-.146 2.493.954 4.326s4.106.88 5.646.66 2.2-4.472 2.492-4.986-1.246-2.492-.66-3.372c.587-.88.954-1.613.22-2.2-.733-.586-1.686.22-1.98.953-.292.733-2.712 2.347-2.712 2.347-.367 1.906-3.593 1.246-3.96 2.272m-2.859 8.359c-.57.641 1.467 1.32 2.713 1.54 1.247.22 5.792 1.833 6.012.806s-3.006-1.613-4.472-1.833-3.666-1.173-4.253-.513m25.442-6.379c-1.28.078.953.953 1.173 1.466.22.514 0 1.394.954 1.98s3.739.44 4.472 2.126c.733 1.687-.807 2.053.073 2.273s1.76 1.613 3.3 1.467c1.54-.147 2.566-1.907 3.812-1.173 1.247.733 3.813 3.666 4.84 3.372 1.026-.293-2.42-3.446-3.813-4.692-1.393-1.247-.66-2.2-3.52-3.593s-4.545-2.566-5.205-2.346-2.42 1.613-2.64 1.1c-.22-.514-1.026-2.127-3.446-1.98m-6.672-38.86c-.171.6 1.504.794 3.304.264 1.08-.318 3.084-.163 3.881-1.07.615-.7.043-2.156.134-2.832.223-1.662-.872-3.034-1.967-3.034-1.54 0 1.907 1.907-.22 3.666-2.126 1.76-4.692 1.467-5.132 3.007zm5.866-8.505c.66-.146 1.833-.293 1.98-.88.146-.586-1.687-.293-2.64-.733s-1.467-1.686-1.98-1.393.293.734 0 1.98 1.1 1.76 1.1 1.76c.733-.074.88-.587 1.54-.733zm-8.725-12.537c-2.42.605 1.246 1.613 2.42 3.52 1.172 1.905 2.125 4.692 3.299 4.105s-.88-3.373-1.54-4.326-2.713-3.666-4.18-3.3zm-2.053 43.478c.66.807 2.786 1.613 3.226 1.1s-.807-.953-1.98-1.613-.293-1.98-.22-2.786c.074-.806-.933-2.495-1.76-1.393-1.1 1.466.074 3.886.734 4.692m-.22 21.63c1.073-.239.22-2.127.88-2.42s1.026 2.126 2.053 1.467c1.026-.66-.514-1.687-.514-2.347s1.613-.66 1.1-1.32-2.86-.146-2.566-.88c.293-.732 2.126-.073 2.86-.512.733-.44.22-1.467-2.347-1.467s-1.54.293-1.686 1.247c-.147.953.44 1.54.146 2.2-.293.659-.586 4.178.074 4.032m2.346-14.664c-.073.44.807.513 1.466.806.66.294.22 1.613 1.1 1.833s1.393-.953 1.687-1.32c.293-.366-.468-3.135-1.247-3.006-.44.074-2.933 1.247-3.006 1.687M176 96c0-44.112-35.888-80-80-80S16 51.888 16 96s35.888 80 80 80 80-35.888 80-80m-8 0c0 39.701-32.299 72-72 72s-72-32.299-72-72 32.299-72 72-72 72 32.299 72 72"/></svg>