<svg xmlns="http://www.w3.org/2000/svg" viewBox="0 0 192 192"><path d="m159.422 121.837-27.197-31.083a8.07 8.07 0 0 0-6.07-2.754h-60.31a8.07 8.07 0 0 0-6.071 2.755l-27.196 31.081L16.037 160h159.896zM65.845 96l60.36.022L147.185 120H124v-16H84v16H44.822zm-27.219 32H92v-16h24v16h37.373l10.383 24H28.224zm60.202-54.828a4 4 0 1 1-5.658 5.657 4 4 0 0 1 5.658-5.657M76.201 56.201l-5.657-5.657c14.037-14.036 36.875-14.036 50.912 0l-5.657 5.657C110.511 50.912 103.479 48 96 48s-14.511 2.913-19.799 8.201m28.284 11.314C102.219 65.249 99.205 64 96 64s-6.219 1.249-8.485 3.515l-5.657-5.656c3.777-3.778 8.8-5.858 14.142-5.858s10.365 2.081 14.142 5.858z"/></svg>