<svg xmlns="http://www.w3.org/2000/svg" viewBox="0 0 192 192"><path d="M140 152h8v8h-8zm-96 8h8v-8h-8zm132.004-5v2c0 10.48-8.53 19-19 19h-122c-10.48 0-19-8.52-19-19v-2c0-10.48 8.52-19 19-19h37.04l-.04-11.99c-.01-1.06.41-2.08 1.16-2.83.75-.76 1.77-1.18 2.84-1.18h28a4.014 4.014 0 0 1 4 4l-.01 12h12.01v-12c0-2.21 1.79-4 4-4h28c1.06 0 2.07.42 2.82 1.17.76.75 1.18 1.77 1.18 2.83l-.01 12h1.01c10.47 0 19 8.52 19 19m-48-19h19.99v-8h-19.99zm-47.99-8 .03 8h19.95l.01-8zm87.99 27c0-6.07-4.94-11-11-11h-122c-6.07 0-11 4.93-11 11v2c0 6.07 4.93 11 11 11h122c6.06 0 11-4.93 11-11zm-92-75h-4V48c0-8.82 7.17-16 16-16 3.08 0 5.96.89 8.4 2.41l23.84-6.2.03-12.07 55.69-.15-.1 44-55.69.16.02-8.23-16.19 4.21v23.86l-4 .01v24h-8v8h-8v-8h-8zm52.25-53.87-.02 8.27-.02 7.16-.02 8.28v2.29l39.69-.12.06-28-23.79.06-8.05.02-7.85.02zm-25.83 14.98c.98 2.05 1.55 4.34 1.57 6.75l16.22-4.22.01-7.16zM92.004 80h-8v16h8zm-12-32c0 4.41 3.59 8 8 8s8-3.59 8-8-3.59-8-8-8-8 3.59-8 8m0 24h16V61.84a16 16 0 0 1-8 2.16c-2.92 0-5.65-.8-8-2.16zM39.172 49.172a4 4 0 1 0 5.656 5.656 4 4 0 0 0-5.656-5.656m22.627-16.97 5.657-5.658c-14.037-14.036-36.876-14.036-50.912 0l5.657 5.657c10.917-10.916 28.68-10.917 39.598 0zm-5.657 5.656c-7.8-7.798-20.486-7.797-28.284 0l5.657 5.657c4.679-4.678 12.291-4.68 16.97 0z"/></svg>