<svg xmlns="http://www.w3.org/2000/svg" viewBox="0 0 192 192"><path d="M155.514 103.165a109 109 0 0 0-6.565-7.168C164.492 80.388 170.826 65.602 165.282 56c-4.638-8.034-16.47-10.862-33.32-7.958-3.056.526-6.23 1.237-9.485 2.103a109 109 0 0 0-2.925-9.268C113.642 24.835 105.278 16 96 16c-9.722 0-18.188 9.352-24.132 26.488a145 145 0 0 1 7.678 2.297C84.116 31.832 90.227 24 96 24c6.822 0 14.11 10.69 18.841 28.424-6.109 2.016-12.437 4.546-18.834 7.53-12.648-5.898-25.034-10.028-35.968-11.913-16.852-2.902-28.683-.076-33.32 7.959-4.64 8.035-1.17 19.696 9.767 32.835a109 109 0 0 0 6.557 7.16C27.478 111.6 21.15 126.357 26.718 136c3.45 5.976 10.878 9.07 21.39 9.07 3.622 0 7.612-.367 11.93-1.112 3.056-.526 6.23-1.237 9.485-2.103a109 109 0 0 0 2.925 9.268C78.358 167.165 86.722 176 96 176c9.7 0 18.18-9.367 24.13-26.495a145 145 0 0 1-7.682-2.302C107.88 160.135 101.746 168 96 168c-6.822 0-14.11-10.69-18.841-28.424 6.109-2.016 12.437-4.546 18.834-7.53 12.648 5.898 25.034 10.028 35.968 11.912 4.32.744 8.308 1.112 11.931 1.112 10.51 0 17.94-3.095 21.39-9.07 4.639-8.035 1.17-19.696-9.768-32.835m-22.194-47.24c12.917-2.224 22.276-.702 25.034 4.075 3.857 6.68-3.755 18.843-15.293 30.443-4.776-4.255-10.096-8.444-15.842-12.467-.614-7.024-1.589-13.758-2.897-20.05a102 102 0 0 1 8.998-2zm-16.654 4.317c.76 3.768 1.405 7.785 1.924 12.01a213 213 0 0 0-13.305-7.682 158 158 0 0 1 11.38-4.328zM58.68 136.075c-12.918 2.224-22.276.702-25.034-4.075-2.199-3.809-.584-10.136 4.548-17.815 2.707-4.05 6.347-8.341 10.69-12.678 4.79 4.273 10.128 8.478 15.897 12.517.614 7.024 1.589 13.758 2.897 20.05a102 102 0 0 1-8.998 2zm16.654-4.317a159 159 0 0 1-1.924-12.01 213 213 0 0 0 13.305 7.682 158 158 0 0 1-11.38 4.328zm83.02.242c-2.758 4.776-12.117 6.3-25.034 4.074-8.572-1.477-18.141-4.452-28.052-8.652 1.495-.793 2.99-1.6 4.484-2.438l.255-1.666c.344-2.237.643-5.156.898-8.248a219 219 0 0 1-2.905 1.715 202 202 0 0 1-12 6.399 202 202 0 0 1-23.545-13.59A204 204 0 0 1 72 96c0-9.528.689-18.993 1.985-27.767a123 123 0 0 0-7.732-2.396C64.763 75.369 64 85.483 64 96q0 3.877.139 7.689a159 159 0 0 1-9.419-7.653c.442-.39.873-.782 1.325-1.172.079-1.907.26-6.025.544-10.812a163 163 0 0 0-7.748 6.476C35.849 77.563 30.235 65.908 33.646 60c1.923-3.33 7.052-5.079 14.36-5.079 3.175 0 6.762.33 10.674 1.005 8.572 1.477 18.141 4.452 28.052 8.652a212 212 0 0 0-4.48 2.436l-.353 2.388c-.304 2.06-.573 4.708-.806 7.53.966-.58 1.935-1.156 2.907-1.717a202 202 0 0 1 12-6.399 202 202 0 0 1 23.545 13.59C119.837 86.768 120 91.3 120 96c0 9.932-.701 19.51-2.085 28.531 2.663.72 5.265 1.345 7.793 1.902C127.226 116.807 128 106.59 128 96q0-3.877-.139-7.689a159 159 0 0 1 9.394 7.63q-.644.578-1.299 1.149a617 617 0 0 1-.55 10.863c2.75-2.16 5.329-4.325 7.75-6.484 12.994 12.966 18.61 24.623 15.198 30.531M96 80c-8.822 0-16 7.178-16 16s7.178 16 16 16 16-7.178 16-16-7.178-16-16-16m0 24c-4.411 0-8-3.589-8-8s3.589-8 8-8 8 3.589 8 8-3.589 8-8 8"/></svg>