<svg xmlns="http://www.w3.org/2000/svg" viewBox="0 0 192 192"><path d="M96 16c-44.112 0-80 35.888-80 80s35.888 80 80 80 80-35.888 80-80-35.888-80-80-80m0 152c-39.701 0-72-32.299-72-72s32.299-72 72-72 72 32.299 72 72-32.299 72-72 72m4-56a4 4 0 1 1-8 0 4 4 0 0 1 8 0m0 16a4 4 0 1 1-8 0 4 4 0 0 1 8 0m0-32a4 4 0 1 1-8 0 4 4 0 0 1 8 0m0-16a4 4 0 1 1-8 0 4 4 0 0 1 8 0m17 0a4 4 0 1 1-8 0 4 4 0 0 1 8 0m0-16a4 4 0 1 1-8 0 4 4 0 0 1 8 0M84 80a4 4 0 1 1-8 0 4 4 0 0 1 8 0m0-16a4 4 0 1 1-8 0 4 4 0 0 1 8 0m16 0a4 4 0 1 1-8 0 4 4 0 0 1 8 0m-4-32c-35.29 0-64 28.71-64 64s28.71 64 64 64 64-28.71 64-64-28.71-64-64-64m0 120c-30.878 0-56-25.122-56-56s25.122-56 56-56 56 25.122 56 56-25.122 56-56 56M84 96a4 4 0 1 1-8 0 4 4 0 0 1 8 0m-16 0a4 4 0 1 1-8 0 4 4 0 0 1 8 0m0-16a4 4 0 1 1-8 0 4 4 0 0 1 8 0m0 32a4 4 0 1 1-8 0 4 4 0 0 1 8 0m48-16a4 4 0 1 1-8 0 4 4 0 0 1 8 0m0 16a4 4 0 1 1-8 0 4 4 0 0 1 8 0m-32 0a4 4 0 1 1-8 0 4 4 0 0 1 8 0m0 16a4 4 0 1 1-8 0 4 4 0 0 1 8 0m32 0a4 4 0 1 1-8 0 4 4 0 0 1 8 0m16-32a4 4 0 1 1-8 0 4 4 0 0 1 8 0m0-16a4 4 0 1 1-8 0 4 4 0 0 1 8 0m0 32a4 4 0 1 1-8 0 4 4 0 0 1 8 0"/></svg>