<svg xmlns="http://www.w3.org/2000/svg" viewBox="0 0 192 192"><path d="m175.792 137.789-12.022-48.13A12.006 12.006 0 0 0 152 80h-16V61.646L96 39.424 56 61.646V80H40a12.006 12.006 0 0 0-11.77 9.66l-11.97 47.896-.051.233c-.66 3.52.273 7.119 2.56 9.875S24.421 152 28.002 152h135.996c3.581 0 6.947-1.58 9.234-4.336s3.22-6.355 2.56-9.875M96 48.576 123.764 64 96 79.424 68.236 64zm32 22.222v38.848l-28 15.556V86.353zm-64 0 28 15.555v38.85l-28-15.557zm103.076 71.757a3.95 3.95 0 0 1-3.078 1.445H28.002a3.95 3.95 0 0 1-3.078-1.445 3.95 3.95 0 0 1-.87-3.194l11.964-47.865.05-.233A4 4 0 0 1 40 88h16v26.354l40 22.222 40-22.222V88h16a4 4 0 0 1 3.931 3.263l12.015 48.098a3.95 3.95 0 0 1-.87 3.194M154 112c0 2.21-2.686 4-6 4s-6-1.79-6-4 2.686-4 6-4 6 1.79 6 4m-106.12-3.03-3 12a4 4 0 0 1-4.85 2.91 4 4 0 0 1-2.91-4.85l3-12a4 4 0 1 1 7.76 1.94"/></svg>