<svg xmlns="http://www.w3.org/2000/svg" viewBox="0 0 192 192"><path fill="#0f0e09" d="m58.466 25.009-40.79 60.867a.916.916 0 0 1-1.67-.606A79.52 79.52 0 0 1 57.27 23.695a.915.915 0 0 1 1.195 1.314zm77.406 137.93H58.551c-.337 0-.668.162-.835.454a.917.917 0 0 0 .328 1.252c11.982 7.012 25.518 10.718 39.145 10.718 13.613 0 27.135-3.698 39.107-10.696.29-.17.496-.476.492-.813a.916.916 0 0 0-.916-.914zm1.664-138.279c-.697-.429-1.502.369-1.102 1.089l38.06 68.465c.403.725 1.506.439 1.506-.39 0-29.316-15.406-54.983-38.464-69.164m23.03 76.79-38.482-69.312c-4.933-8.886-13.537-14.514-23.605-15.442a75 75 0 0 0-2.823-.059c-.852 0-1.773.019-2.811.058l-.017.008h-.165c-9.497.899-17.823 6.109-22.854 14.31-.21.332-22.867 36.206-45.886 72.778l-.031.05c-1.96 3.119-2.544 6.928-1.601 10.45 2.95 11.028 6.708 16.851 9.652 20.693q.152.199.368.198a.57.57 0 0 0 .44-.216q.126-.165.06-.4c-2.295-8.268-1.222-16.534 3.021-23.276a63941 63941 0 0 1 45.905-72.808l.057-.092c2.966-4.856 8.138-7.755 13.834-7.755q.162 0 .327.003c5.827.12 10.996 3.236 13.825 8.332l38.482 69.31c3.352 6.036 3.262 13.192-.24 19.14-3.5 5.95-9.713 9.5-16.616 9.5l-53.223.002c-4.909 0-9.318-2.745-11.507-7.164-1.936-3.906-1.661-8.729.716-12.587l25.7-41.714a2.17 2.17 0 0 1 3.75.092l12.156 22.09c.341.62.355 1.371.037 2.008a2 2 0 0 1-1.515 1.106 2 2 0 0 1-.312.022H94.073c-3.868 0-7.116 3.048-7.241 6.794a6.99 6.99 0 0 0 1.974 5.134 6.98 6.98 0 0 0 5.058 2.145h20.916a6.14 6.14 0 0 1 5.376 3.175l1.776 3.222c.238.431.721 1.12 1.16 1.56 1.375 1.422 3.274 2.238 5.21 2.238 1.08 0 2.114-.248 3.076-.737a6.99 6.99 0 0 0 3.543-4.207 6.98 6.98 0 0 0-.564-5.467l-28.995-52.79c-2.02-3.67-5.725-5.922-9.911-6.024a11.56 11.56 0 0 0-10.197 5.53l-29.97 48.643c-5.184 8.416-5.403 18.593-.583 27.223s13.597 13.781 23.482 13.781h53.223c11.942 0 22.688-6.145 28.745-16.436s6.213-22.669.415-33.11z"/></svg>