<svg xmlns="http://www.w3.org/2000/svg" viewBox="0 0 192 192"><path d="M164 52v-9.85c0-7.27-7.09-14.15-14.59-14.15H112v-8c0-2.21-1.79-4-4-4s-4 1.79-4 4v8h-8v104H20v8h69.35c-.87 1.82-1.35 3.86-1.35 6 0 7.72 6.28 14 14 14 3.81 0 7.26-1.53 9.79-4H152c7.626 0 12-4.374 12-12v-12h-48v-8h48V72h8V52zm-60 5.27 20 9.28V96h-20zM97.54 150a5.93 5.93 0 0 1-1.54-4c0-3.31 2.69-6 6-6 .7 0 1.37.12 2 .35 2.33.81 4 3.04 4 5.65 0 3.31-2.69 6-6 6-1.77 0-3.37-.77-4.46-2m58.46-6c0 3.001-.578 4-4 4h-36v-8h40zm0-28h-52v-12h28V61.45l-28-13V36h45.41c3.08 0 6.59 3.28 6.59 6.15zm-119.987 1.708L17.16 98.51l5.708-5.606 9.146 9.313V55.999h8v46.22l9.147-9.314 5.707 5.606-18.854 19.197zm28-52.052v46.343h8V65.656l9.172 9.172 5.656-5.657-18.828-18.829-18.828 18.829 5.656 5.657z"/></svg>