<svg xmlns="http://www.w3.org/2000/svg" viewBox="0 0 192 192"><path d="M72 139.327V52.673L139.397 96zm8-72v57.346L124.603 96zM100 16h-8v16h8zm0 144h-8v16h8zM67.464 38.574l-8-13.856-6.928 4 8 13.856zm72 124.708-8-13.856-6.928 4 8 13.856zM42.574 60.536l-13.856-8-4 6.928 13.856 8zm124.708 72-13.856-8-4 6.928 13.856 8zM32 92H16v8h16zm144 0h-16v8h16zM42.574 131.464l-4-6.928-13.856 8 4 6.928zm124.708-72-4-6.928-13.856 8 4 6.928zm-99.818 93.962-6.928-4-8 13.856 6.928 4zm72-124.708-6.928-4-8 13.856 6.928 4z"/></svg>