<svg xmlns="http://www.w3.org/2000/svg" viewBox="0 0 192 192"><path d="M160 112v-8.42c0-10.8-8.52-19.58-19-19.58H52V68c0-2.21-1.79-4-4-4s-4 1.79-4 4v16.47l-12 9.96V148h12.14c.98 6.78 6.82 12 13.86 12s12.88-5.22 13.86-12h48.28c.98 6.78 6.82 12 13.86 12s12.88-5.22 13.86-12H160v-28h-52v-8zM58 152c-2.61 0-4.84-1.67-5.65-4h11.3c-.81 2.33-3.04 4-5.65 4m76 0c-2.61 0-4.84-1.67-5.65-4h11.3c-.81 2.33-3.04 4-5.65 4m18-24v12H40V98.19L47.44 92H141c6.07 0 11 5.19 11 11.58v.42h-52v24zm-68-12c0 8.837-7.163 16-16 16s-16-7.163-16-16 7.163-16 16-16 16 7.163 16 16m12-12a4 4 0 1 1-8 0 4 4 0 0 1 8 0"/></svg>