<svg xmlns="http://www.w3.org/2000/svg" viewBox="0 0 192 192"><path d="M148 132c-5.223 0-9.653 3.342-11.303 8H87.303c-1.65-4.658-6.08-8-11.303-8s-9.653 3.342-11.303 8H60c-11.028 0-20-8.972-20-20s8.972-20 20-20h24.697c1.65 4.658 6.08 8 11.303 8s9.653-3.342 11.303-8H132c15.44 0 28-12.56 28-28s-12.56-28-28-28h-4.697c-1.65-4.658-6.08-8-11.303-8s-9.653 3.342-11.303 8H63.473C61.69 37.11 55.44 32 48 32c-8.822 0-16 7.178-16 16s7.178 16 16 16c7.439 0 13.69-5.11 15.473-12h41.224c1.65 4.658 6.08 8 11.303 8s9.653-3.342 11.303-8H132c11.028 0 20 8.972 20 20s-8.972 20-20 20h-24.697c-1.65-4.658-6.08-8-11.303-8s-9.653 3.342-11.303 8H60c-15.44 0-28 12.56-28 28s12.56 28 28 28h4.697c1.65 4.658 6.08 8 11.303 8s9.653-3.342 11.303-8h49.394c1.65 4.658 6.08 8 11.303 8 6.627 0 12-5.373 12-12s-5.373-12-12-12M48 56c-4.411 0-8-3.589-8-8s3.589-8 8-8 8 3.589 8 8-3.589 8-8 8"/></svg>