<svg xmlns="http://www.w3.org/2000/svg" viewBox="0 0 192 192"><path d="M150.868 96H76V42.127l28.003-10.06C104.04 40.858 111.27 48 120.153 48 129.04 48 136 40.972 136 32v-8h-33.205L68 36.501V96h-5c-10.477 0-19 8.523-19 19v25H32v-12h4v-8H20v8h4v12h-8v8h28v12h20.16c.975 6.773 6.801 12 13.84 12s12.865-5.227 13.84-12h32.32c.975 6.773 6.801 12 13.84 12s12.865-5.227 13.84-12H168v-46c0-9.925-7.686-18-17.132-18M128 32c0 4.486-3.446 8-7.846 8-4.496 0-8.154-3.589-8.154-8zM78 164c-2.607 0-4.824-1.673-5.65-4h11.3c-.826 2.327-3.043 4-5.65 4m60 0c-2.607 0-4.824-1.673-5.65-4h11.3c-.826 2.327-3.043 4-5.65 4m-86-12v-37c0-6.065 4.935-11 11-11h87.868c5.035 0 9.132 4.486 9.132 10v38z"/></svg>