<svg xmlns="http://www.w3.org/2000/svg" viewBox="0 0 192 192"><path d="M174.83 78.828 152 101.658l-22.828-22.83 5.656-5.656L148 86.342V49.846c0-5.429-4.21-9.846-9.385-9.846h-89.23C44.21 40 40 44.417 40 49.846v92.308c0 5.429 4.21 9.846 9.385 9.846H116v8H49.385C39.799 160 32 151.994 32 142.154V49.846C32 40.006 39.799 32 49.385 32h89.23C148.201 32 156 40.006 156 49.846v36.498l13.173-13.172 5.656 5.656zm-34.274 33.285 2.16 1.794-.953 2.64a48.4 48.4 0 0 1-8.609 14.873l-1.813 2.143-2.633-.976c-11.005-4.082-20.833-10.923-28.532-19.826a13.3 13.3 0 0 1-4.176.676c-1.561 0-3.054-.283-4.448-.776-7.705 8.81-17.48 15.624-28.377 19.751l-2.66 1.008-1.824-2.18a48.4 48.4 0 0 1-8.454-14.691l-.953-2.642 2.16-1.794A69.65 69.65 0 0 1 82.89 97.28a13.4 13.4 0 0 1 4.177-7.198 69.5 69.5 0 0 1-3.878-22.936c0-4.364.683-8.449 1.35-11.869l.53-2.714 2.725-.463a48.4 48.4 0 0 1 16.574.029l2.746.476.504 2.74c.803 4.357 1.193 8.217 1.193 11.8a68 68 0 0 1-3.957 22.865 13.4 13.4 0 0 1 4.255 7.269 69.7 69.7 0 0 1 31.447 14.835zM94.375 86.748A13 13 0 0 1 96 86.64c.518 0 1.028.036 1.531.094a60.1 60.1 0 0 0 3.28-19.59c0-2.352-.19-4.791-.59-7.522a39.7 39.7 0 0 0-8.34-.012c-.388 2.36-.692 4.93-.692 7.535a61.6 61.6 0 0 0 3.186 19.603m-9.254 21.08a13.4 13.4 0 0 1-1.441-2.53 61.6 61.6 0 0 0-24.859 11.176 40.4 40.4 0 0 0 4.232 7.356c8.4-3.64 15.94-9.127 22.068-16.001zM96 105.438c2.977 0 5.398-2.422 5.398-5.399S98.977 94.64 96 94.64s-5.398 2.422-5.398 5.398 2.421 5.399 5.398 5.399zm37.179 11.037a61.6 61.6 0 0 0-24.858-11.178 13.4 13.4 0 0 1-1.61 2.757c6.106 6.899 13.656 12.374 22.097 15.966a40.4 40.4 0 0 0 4.37-7.545zM164.745 176H176l-17.813-49.484h-12.1L128.003 176h9.971l3.312-9.7h20.146zm-20.855-17.374 7.537-22.038 7.47 22.038z"/></svg>