<svg xmlns="http://www.w3.org/2000/svg" viewBox="0 0 192 192"><path d="M119.994 54.161A24.01 24.01 0 0 0 108 33.546V28c0-6.617-5.383-12-12-12a12 12 0 0 0-9 4.062A12 12 0 0 0 84 28v5.546A24.01 24.01 0 0 0 72.006 54.16C67.228 56.932 64 62.091 64 68v92c0 8.822 7.178 16 16 16h32c8.822 0 16-7.178 16-16V68c0-5.909-3.228-11.068-8.006-13.839M89.602 39.666 92 38.617V28c0-.976.354-1.915.999-2.644A4 4 0 0 1 96 24c2.206 0 4 1.794 4 4v10.617l2.398 1.049A16.01 16.01 0 0 1 111.828 52H80.172a16.01 16.01 0 0 1 9.43-12.334M80 60h32c4.411 0 8 3.589 8 8H72c0-4.411 3.589-8 8-8m40 100c0 4.411-3.589 8-8 8H80c-4.411 0-8-3.589-8-8V76h48zm-24-52H80v-8h16zm0 16H80v-8h16zm0 16H80v-8h16z"/></svg>