<svg xmlns="http://www.w3.org/2000/svg" viewBox="0 0 192 192"><path d="M160 84h-21.23l-9.73 6.64L123.56 44H112c0-16.748-11.252-28-28-28S56 27.252 56 44H44.44l-8.41 71.39-.03.47c0 6.69 5.65 12.14 12.6 12.14h25.64l-23.47 16H32c-8.82 0-16 7.18-16 16s7.18 16 16 16h21.23l88-60H160c8.82 0 16-7.18 16-16s-7.18-16-16-16M84 24c14.746 0 20 10.332 20 20H64c0-9.668 5.254-20 20-20m-35.4 96c-2.46 0-4.48-1.75-4.6-3.95L51.56 52h64.88l5.16 43.71L85.97 120zM160 108h-21.23l-7.12 4.86L109.44 128l-58.67 40H32c-4.41 0-8-3.59-8-8s3.59-8 8-8h21.23l35.2-24 11.73-8 22.5-15.34 7.43-5.06 11.14-7.6H160c4.41 0 8 3.59 8 8s-3.59 8-8 8"/></svg>