<svg xmlns="http://www.w3.org/2000/svg" viewBox="0 0 192 192"><path d="m140 157.657-10.829-10.828 5.658-5.658 5.171 5.172 13.171-13.172 5.658 5.658zM176 144c0-17.645-14.355-32-32-32s-32 14.355-32 32 14.355 32 32 32 32-14.355 32-32m-8 0c0 13.234-10.766 24-24 24s-24-10.766-24-24 10.766-24 24-24 24 10.766 24 24M24 120h-8v24h8zm16-20h-8v44h8zm16-20h-8v64h8zm16-32h-8v96h8zm16-16h-8v112h8zM16 152v8h91.35a39.7 39.7 0 0 1-2.545-8zM96 48v96h8V48zm24 64.022V80h-8v40.028a40.3 40.3 0 0 1 8-8.006M136 100h-8v7.35a39.7 39.7 0 0 1 8-2.545z"/></svg>