<svg xmlns="http://www.w3.org/2000/svg" viewBox="0 0 192 192"><path d="m140 157.657-10.829-10.828 5.658-5.658 5.171 5.172 13.171-13.172 5.658 5.658zM176 144c0-17.645-14.355-32-32-32s-32 14.355-32 32 14.355 32 32 32 32-14.355 32-32m-8 0c0 13.234-10.766 24-24 24s-24-10.766-24-24 10.766-24 24-24 24 10.766 24 24M100 32h-8v128h8zM84 92H16v8h68zm0-16H32v8h52zm0-16H48v8h36zm0-16H56v8h28zm0 64H32v8h52zm0 16H48v8h36zm0 16H56v8h28zm92-48h-68v8h68zm-16-16h-52v8h52zm-16-16h-36v8h36zm-8-16h-28v8h28z"/></svg>