<svg xmlns="http://www.w3.org/2000/svg" viewBox="0 0 192 192"><path fill="#04080c" d="M88 84h-8v-8h8zm16 68H88v-12h-8v20h32v-12h-8zm0-28h8V96h-8zm32-84h16v88h8V32h-32v44h8zM32 120h32v40H32zm8 32h16v-24H40zm136 13.242a10.7 10.7 0 0 1-3.151 7.607 10.73 10.73 0 0 1-7.608 3.146 10.73 10.73 0 0 1-7.606-3.146l-35.524-35.523A29.8 29.8 0 0 1 110 139.893c-16.482 0-29.893-13.378-29.893-29.821S93.517 80.25 110 80.25s29.893 13.377 29.893 29.82c0 4.287-.919 8.362-2.558 12.05l35.514 35.513a10.69 10.69 0 0 1 3.151 7.608zm-43.893-55.17c0-12.15-9.917-22.036-22.107-22.036s-22.107 9.885-22.107 22.036S97.81 132.107 110 132.107s22.107-9.885 22.107-22.035M168 165.242c0-.737-.287-1.43-.808-1.95L133 129.098a30 30 0 0 1-3.904 3.898l34.196 34.196a2.76 2.76 0 0 0 3.901 0c.52-.521.808-1.213.808-1.95z"/></svg>