<svg xmlns="http://www.w3.org/2000/svg" viewBox="0 0 192 192"><path d="M176 60V32c0-6.4-5.3-11.8-11.8-12L19.4 15.9l9.1 68.5L89 78.8l7.9 29.2h16.2l9.4 38.7c.5 1.8-.4 3.7-2.1 4.6l-13.3 6.7 6 18H164c3.7 0 7.1-1.6 9.4-4.5s3.1-6.6 2.3-10.2L153.9 73l10.9-1c6.3-.4 11.2-5.7 11.2-12M28.6 24.1l11.9.3 7 50.1-12 1.1zm74.5 75.9-5.9-21.9 8.6-.8 5.5 22.7zm64.8 63.1c.3 1.2 0 2.4-.8 3.4s-1.9 1.5-3.1 1.5h-45.1l-2-6 7.1-3.6c5-2.5 7.6-8.3 6.3-13.7l-16.5-68.2 32.1-2.9zM55.4 73.9l-6.8-49.2L164 28c2.2.1 4 1.9 4 4v28c0 2.1-1.6 3.9-3.7 4z"/></svg>