<svg xmlns="http://www.w3.org/2000/svg" viewBox="0 0 192 192"><path d="M92 92.083H76.11v-8H92zM104 96h8v-3.99h4v-8h-4V80h-8v4.01h-4v8h4zm-50.837 21.69-12.506-10.566-5.163 6.111 7.413 6.264-6.48 11.314 9.959 8.415-4.824 8.42 6.941 3.977 8.139-14.206-9.96-8.415zm-22.056 6.399-10.025-8.47-5.164 6.11 4.934 4.168-4.868 8.497 7.48 6.32-3.21 5.603 6.941 3.977 6.525-11.39-7.48-6.319zm124.467-71.265-9.96-8.414 4.824-8.422-6.941-3.976-8.139 14.206 9.96 8.415-6.481 11.314 12.506 10.566 5.163-6.112-7.413-6.263 6.48-11.314zm15.574 4.915 4.868-8.496-7.48-6.32 3.21-5.603-6.941-3.977-6.525 11.389 7.48 6.32-4.867 8.496 10.025 8.47 5.164-6.11zM120 64h12v64H59.996l-.017-64h12.02v-8H88v8h16v-8h16zm-52.019 8 .013 48H124V72z"/></svg>