<svg xmlns="http://www.w3.org/2000/svg" viewBox="0 0 192 192"><path d="M148.001 128v8.043L146.73 148h-5.458l-1.271-12.044V128zm-3.945 23.999c-2.249 0-4.055 1.791-4.055 4 0 2.248 1.769 4 4.018 4a3.98 3.98 0 0 0 3.982-4c0-2.171-1.806-4-3.945-4M176 144c0 17.645-14.355 32-32 32s-32-14.355-32-32 14.355-32 32-32 32 14.355 32 32m-8 0c0-13.234-10.766-24-24-24s-24 10.766-24 24 10.766 24 24 24 24-10.766 24-24m-16-72V52H16v88h88.201a39.7 39.7 0 0 1 1.641-8H24V60h120v44c2.739 0 5.414.278 8 .805V80h16v32h-.028a40.4 40.4 0 0 1 8.006 8H176V72zm-64 52h20V68H88zm-8 0V68H60v56zm-28 0V68H32v56z"/></svg>