<svg xmlns="http://www.w3.org/2000/svg" viewBox="0 0 192 192"><path d="M152 72V52H16v88h136v-20h24V72zm-8 0v60H24V60h120zm24 40h-16V80h16zm-117.142 3.996H32V88.591h7.551v21.349h11.307zm3.108-20.046h7.09v20.046h-7.09zm-.383-5.52c0-2.146 1.686-3.756 3.986-3.756 2.185 0 3.871 1.648 3.871 3.757 0 2.146-1.724 3.794-3.91 3.794-2.223 0-3.947-1.648-3.947-3.794zm20.852 16.214h-9.85v-6.44h9.85zm11.807 9.352H78.69V88.591h7.55v27.405zm15.026.46c6.286 0 10.655-4.331 10.655-10.579 0-6.133-4.331-10.464-10.464-10.464-6.362 0-10.77 4.331-10.77 10.656 0 6.209 4.293 10.387 10.579 10.387m.153-15.715c2.185 0 3.258 1.648 3.258 5.098 0 3.526-1.112 5.29-3.373 5.29-2.223 0-3.373-1.802-3.373-5.252 0-3.526 1.111-5.136 3.488-5.136m21.122 15.255h-7.09V95.95h7.09v3.181c1.418-2.491 3.45-3.718 6.286-3.718 3.91 0 6.171 2.683 6.171 7.398v13.185h-7.091v-12.035c0-2.108-.766-3.105-2.453-3.105-1.878 0-2.913 1.227-2.913 3.526z"/></svg>