<svg xmlns="http://www.w3.org/2000/svg" viewBox="0 0 192 192"><path d="M144 44V32h-28v12H76V32H48v12H32v116h128V44zm8 108H40V52h112zm-59.744-36.189-1.794-5.304h-11.31l-1.833 5.304h-5.85l10.218-27.886h7.176l10.024 27.887h-6.63zm-7.41-21.997-4.212 12.247h8.346zm32.994 5.695c.351 1.014.469 1.599.469 2.418 0 3.861-3.394 6.474-8.503 6.474-1.365 0-2.457-.156-3.705-.546q-.82.585-.82 1.404c0 1.093.703 1.482 2.77 1.482h5.148c4.72 0 7.332 1.99 7.332 5.655 0 4.603-4.017 7.216-11.037 7.216-6.084 0-9.672-1.911-9.672-5.226 0-1.678 1.053-2.926 3.315-3.9-1.56-.937-2.301-2.146-2.301-3.706 0-1.794.935-3.12 2.886-4.134-1.677-1.326-2.457-2.847-2.457-4.836 0-4.017 3.549-6.903 8.424-6.903 1.911 0 3.51.429 5.265 1.365l5.5-1.248v4.485zm-10.218 16.03c-.741 0-1.014 0-1.365-.079-.858.585-1.248 1.17-1.248 1.99 0 1.599 1.443 2.3 4.64 2.3 3.628 0 5.5-.857 5.5-2.573 0-1.132-.819-1.638-2.808-1.638zm-.975-13.729c0 1.989 1.209 3.198 3.16 3.198 1.949 0 3.12-1.21 3.12-3.198 0-1.95-1.171-3.16-3.12-3.16-1.99 0-3.16 1.17-3.16 3.16"/></svg>