<svg xmlns="http://www.w3.org/2000/svg" viewBox="0 0 192 192"><path d="M100 72H32V60h68zm0 8H32v12h68zm-8.443 44.001H24V48h84v53.011a46.8 46.8 0 0 1 8-4.927V40h-12v-8H80v8H52v-8H28v8H16v92h73.567a49.3 49.3 0 0 1 1.99-8zM100 100H32v12h68zm76 36.133h-7.375l3.286-4.967-6.672-4.414-6.205 9.38h-15.639l8.677-13.542 11.472-.908-.63-7.975-5.427.43 3.453-5.39-6.736-4.315-3.813 5.951-2.465-5.42-7.282 3.312 4.607 10.13-9.19 14.346-8.898-13.882 4.07-10.245-7.434-2.954-1.95 4.907-3.756-5.861-6.736 4.316 3.965 6.187-6.114-.319-.416 7.99 11.842.617 8.092 12.626H112.36l-6.934-9.184-6.385 4.82 3.294 4.364H96v8h6.038l-2.846 3.618 6.288 4.945 6.735-8.563h16.554l-8.658 13.513-11.422.955.666 7.973 5.322-.445-3.385 5.282 6.737 4.316 3.408-5.32 1.672 4.55 7.51-2.76-3.766-10.244 9.209-14.374 9.185 14.332-4.2 10.732 7.451 2.915 2.083-5.324 3.695 5.766 6.736-4.316-3.195-4.986 4.307.444.82-7.958-10.646-1.096-8.943-13.955h15.909l6.877 9.152 6.395-4.806-3.266-4.346H176z"/></svg>