<svg xmlns="http://www.w3.org/2000/svg" viewBox="0 0 192 192"><path d="M52 124H32V68h20zm28-56H60v56h20zm28 0H88v56h20zm33.4 78c2.86 3.19 4.6 7.4 4.6 12 0 9.93-8.07 18-18 18s-18-8.07-18-18c0-5.32 2.32-10.11 6-13.4V112c0-6.62 5.38-12 12-12 3.58 0 6.8 1.58 9 4.08 1.87 2.11 3 4.88 3 7.92v32.6c.5.44.96.9 1.4 1.4m-3.4 12c0-2.25-.74-4.32-2-5.99a10 10 0 0 0-4-3.17V112c0-2.21-1.79-4-4-4s-4 1.79-4 4v36.84c-1.59.69-2.97 1.8-4 3.17-1.26 1.67-2 3.74-2 5.99 0 .69.07 1.36.2 2 .93 4.56 4.98 8 9.8 8s8.87-3.44 9.8-8c.13-.64.2-1.31.2-2m14-86V52H16v88h92v-8H24V60h120v36h8V80h16v16h8V72zm12 32h-8v8h-8v8h8v8h8v-8h8v-8h-8z"/></svg>