<svg xmlns="http://www.w3.org/2000/svg" viewBox="0 0 192 192"><path d="M32 104V48h20v56zm48 0V48H60v56zm28 0V48H88v56zm28 0V48h-20v56zm40-52v48h-24v4.8c-2.6-.5-5.3-.8-8-.8V40H24v72h96c-3 2.3-5.7 5-8 8H16V32h136v20zm-8 8h-16v32h16zm-28 86.3-5.2-5.2-5.7 5.7 10.8 10.8 18.8-18.8-5.7-5.7zm36-2.3c0 17.6-14.4 32-32 32-11.2 0-21.7-5.9-27.4-15.5-3-5-4.6-10.7-4.6-16.5s1.6-11.5 4.6-16.5c5.7-9.6 16.3-15.5 27.4-15.5 17.6 0 32 14.4 32 32m-8 0c0-13.2-10.8-24-24-24-8.5 0-16.2 4.4-20.6 11.6-2.2 3.7-3.4 8-3.4 12.4s1.2 8.6 3.4 12.4c4.4 7.3 12.1 11.6 20.6 11.6 13.2 0 24-10.8 24-24"/></svg>