<svg xmlns="http://www.w3.org/2000/svg" viewBox="0 0 192 192"><path d="M144 44V32h-28v12H76V32H48v12H32v116h128V44zm8 108H40V52h112zm-22.775-64.877h6.437l-10.086 29.315h-6.97L108.52 87.123h7.052l6.847 21.36zM68.51 110.649H56.295v-4.946L67.51 86.78h6.788v19.203h3.644v4.666h-3.644v5.787H68.51zm.3-4.666V92.847l-7.248 13.136h7.249zm16.2-5.126q-3.804-2.122-3.804-6.127 0-3.304 2.243-5.527 2.542-2.543 6.948-2.543c4.406 0 5.253.847 6.949 2.543q2.242 2.223 2.242 5.527 0 4.005-3.804 6.127 4.705 2.262 4.705 7.309 0 4.545-3.584 6.968-2.643 1.762-6.508 1.762-3.904 0-6.508-1.762-3.585-2.443-3.584-6.968 0-5.046 4.706-7.309zm5.387 2.063q-1.542 0-2.563 1.1-1.181 1.263-1.181 3.485 0 2.383 1.181 3.624 1.04 1.101 2.563 1.102c1.523.001 1.87-.368 2.563-1.102q1.182-1.24 1.182-3.564 0-2.283-1.182-3.544-1.04-1.101-2.563-1.101m0-11.795q-1.522 0-2.463 1.142-.9 1.1-.9 2.743 0 1.763.9 2.863.921 1.142 2.463 1.142c1.542 0 1.85-.38 2.463-1.142q.901-1.1.901-2.803c0-1.703-.3-2.07-.9-2.803q-.943-1.142-2.464-1.142"/></svg>