<svg xmlns="http://www.w3.org/2000/svg" viewBox="0 0 192 192"><path d="M144 44V32h-28v12H76V32H48v12H32v116h128V44zm8 108H40V52h112zm-76.333-38.367-1.564-4.623h-9.859l-1.597 4.623h-5.1l8.907-24.307h6.256l8.737 24.307zm-6.46-19.174-3.67 10.675h7.275L69.208 94.46zm23.12-5.133 5.508 16.658 5.508-16.658h7.785v24.307h-5.337v-18.29l-6.188 18.29h-4.011L89.37 95.31v18.324h-4.86V89.326h7.819zm27.099 16.862c1.02 2.482 2.652 3.536 5.372 3.536s4.351-1.122 4.351-2.992c0-1.632-.884-2.278-4.42-3.094-3.841-.884-5.031-1.292-6.153-2.006-1.87-1.19-2.753-2.855-2.753-5.2 0-4.624 3.263-7.446 8.635-7.446 4.453 0 7.547 1.666 9.383 5.031l-4.386 2.074c-1.19-2.074-2.516-2.821-4.964-2.821-2.209 0-3.467.951-3.467 2.617 0 1.53 1.054 2.244 4.215 2.856 3.298.68 5.066 1.257 6.392 2.073 1.904 1.259 2.822 3.026 2.822 5.576 0 4.896-3.434 7.615-9.588 7.615-5.099 0-8.227-1.801-10.13-5.813z"/></svg>