<svg xmlns="http://www.w3.org/2000/svg" viewBox="0 0 192 192"><path d="M144 44V32h-28v12H76V32H48v12H32v116h128V44zm8 108H40V52h112zM54.211 93.654h-5.492v-3.503h15.324v3.503h-5.479v15.922h-4.353zm12.685-3.503h8.531q3.344 0 5.108 1.672 1.553 1.472 1.553 3.9 0 2.097-1.062 3.357-.492.584-1.056.915-.564.333-1.545.637 1.38.411 2.062 1.268.684.855 1.056 2.62.982 4.167 1.578 4.949v.106h-4.458q-.73-1.314-1.459-4.671-.332-1.485-1.028-2.116-.698-.63-2.023-.63h-2.959v7.417h-4.299V90.151zm7.881 8.771q1.592 0 2.389-.796.69-.69.689-1.911 0-2.667-2.772-2.667h-3.888v5.374zm27.48 2.879q0 4.207-2.309 6.276-2.018 1.804-5.626 1.804-4.154 0-6.196-2.321-1.792-2.03-1.792-5.64V90.151h4.353v11.543q0 2.615.995 3.702.862.955 2.667.955 2.11 0 2.999-1.313.782-1.154.782-3.503V90.151h4.127zm12.976 8.08q-4.55 0-7.099-3.051-2.216-2.667-2.216-6.9 0-4.776 2.905-7.615 2.522-2.469 6.329-2.469 3.756 0 5.984 2.07a9.1 9.1 0 0 1 1.924 2.746l-3.821 1.579q-.676-1.539-1.639-2.216c-.963-.677-1.466-.677-2.475-.677q-2.388 0-3.608 1.924-1.062 1.672-1.062 4.578 0 3.357 1.406 5.055 1.233 1.474 3.37 1.474 1.593 0 2.587-.717.996-.717 1.686-2.335l3.861 1.578q-.97 2.123-2.614 3.344-2.161 1.632-5.518 1.632m11.597-19.73h4.352v8.372l6.607-8.372h4.83l-6.688 8.227 7.152 11.198h-4.87l-5.161-7.987-1.871 2.282v5.705h-4.352V90.151z"/></svg>