<svg xmlns="http://www.w3.org/2000/svg" viewBox="0 0 192 192"><path d="m105.971 76 27.65-36H148V16h-25.875l-18.172 21.808L98.961 32H84v-8h8.108v-8h-24v8H76v8H56V20H28v24h20v32zM36 36v-8h12v8zm20 8v-4h39.29l8.758 10.192L125.873 24H140v8h-10.32l-27.651 36H56zm84.689 5.039L138 46.597l-2.689 2.442C134.153 50.089 124 59.615 124 70.162 124 77.792 130.28 84 138 84s14-6.208 14-13.838c0-10.547-10.153-20.072-11.311-21.123M138 76c-3.309 0-6-2.619-6-5.838 0-4.3 3.272-9.166 6-12.369 2.729 3.205 6 8.07 6 12.37 0 3.218-2.691 5.837-6 5.837m10 24v-8h-20v8h-20v-8H88v8H76v76h84.032v-76h-12.033zm4.032 68H84v-60h68.032z"/></svg>