<svg xmlns="http://www.w3.org/2000/svg" viewBox="0 0 192 192"><path d="M99.938 176H16V16h88.041v16.001h-8V24H24v144h67.938v-8h8zm73.621-55.303-8.574 28.58a9.27 9.27 0 0 1-8.935 6.648h-28.018c-3.66 0-7.1-1.425-9.688-4.012l-.768-.768c-2.192 2.897-5.657 4.78-9.561 4.78-6.617 0-12-5.383-12-12v-24c0-6.617 5.383-12 12-12a11.95 11.95 0 0 1 8.38 3.428l4.719-1.345a6.38 6.38 0 0 0 4.157-4.767l3.464-17.316h13.28c5.513 0 10 4.486 10 10v10h12.042a9.83 9.83 0 0 1 7.959 3.999 9.83 9.83 0 0 1 1.543 8.773m-61.545-.772c0-2.206-1.794-4-4-4a4.004 4.004 0 0 0-3.999 4v24c0 2.206 1.794 4 4 4a4.004 4.004 0 0 0 3.999-4zm53.584-3.225a1.88 1.88 0 0 0-1.541-.775h-20.043v-18c0-1.103-.897-2-2-2h-6.72l-2.178 10.885a14.4 14.4 0 0 1-9.546 10.813l-.169.052-3.456.985q.067.623.069 1.265v22.343l3.987 3.987a5.66 5.66 0 0 0 4.031 1.67h28.018a1.32 1.32 0 0 0 1.273-.946l8.573-28.581a1.88 1.88 0 0 0-.298-1.698M154.82 29.17l-5.655 5.66 9.176 9.17H96.04v36h8V52h54.305l-9.172 9.171 5.657 5.658 18.83-18.83zM87.99 60.007v91.995H31.995V60.006h12.003v-15.97h31.97v15.97zm-35.992 0h15.97v-7.97H52v7.97zm27.991 8h-4.02v.003h-31.97v-.003h-4.003v75.995H79.99V68.006z"/></svg>