<svg xmlns="http://www.w3.org/2000/svg" viewBox="0 0 192 192"><path d="M144 44V32h-28v12H76V32H48v12H32v116h128V44zm8 108H40V52h112zm-79.471-42.99h-9.843l-1.595 4.617H56l8.892-24.268h6.245l8.723 24.268h-5.77zm-8.553-3.869h7.263L67.64 94.484zm36.045 4.922c-1.9 2.749-4.174 3.937-7.5 3.937-6.687 0-11.234-4.99-11.234-12.388 0-7.433 4.82-12.626 12.116-12.626 2.885 0 5.397.849 7.264 2.512.95.848 1.527 1.663 2.206 2.986l-4.922 1.969c-1.052-2.172-2.511-3.089-4.989-3.089-3.801 0-6.007 3.02-6.007 8.214 0 5.125 2.24 8.043 6.21 8.043 3.259 0 5.533-2.07 5.533-5.022v-.204h-5.125v-4.04h10.42v13.272h-3.021zm22.708-4.073 5.499-16.63H136v24.267h-5.329v-18.26l-6.177 18.26h-4.005l-6.21-18.294v18.294h-4.854V89.359h7.806l5.498 16.63z"/></svg>