<svg xmlns="http://www.w3.org/2000/svg" viewBox="0 0 192 192"><path d="M139.682 143.35c0 3.06 2.31 5.34 5.43 5.34s5.46-2.31 5.46-5.46c0-3.03-2.31-5.34-5.37-5.34-3.21 0-5.52 2.31-5.52 5.46m7.65-.03c0 1.71-.84 2.76-2.19 2.76-1.38 0-2.22-1.08-2.22-2.85 0-1.68.84-2.73 2.19-2.73s2.22 1.11 2.22 2.82m16.666-27.311-8.525-.004c13.306 11.401 20.535 26.755 20.527 43.997l-8-.004c.008-15.741-7.064-29.688-19.986-39.733l-.014 7.742-8-.014.035-19.995 23.967.01-.004 8zM61.493 92.253l5.657 5.658-14.303 14.302-5.657-5.657zm55.21 67.417v-4.2h2.67v-3.57h-2.67v-13.919h-5.04l-9.69 13.74v3.75h10.35v4.199zm-10.53-7.77 6.36-9.27v9.27zm-29.005 7.757 66.955-66.955-60.825-60.825-8.173 8.173-6.13-6.13-15.873 15.873 6.13 6.13-18.863 18.863-6.13-6.13L18.388 84.53l6.13 6.13-8.174 8.173 60.825 60.825zM64.908 61.58l15.874-15.873 2.516-2.516 49.511 49.511-55.641 55.641-49.511-49.511L64.909 61.58zM74.8 78.856l5.345-5.344-5.345-5.345 5.658-5.657 5.344 5.345 5.344-5.345 5.658 5.657-5.345 5.345 5.345 5.344-5.658 5.658-5.344-5.345-5.344 5.345zm57.052 73.704c0-2.28-1.29-3.69-3.33-3.69-1.41 0-2.4.57-3.06 1.8h-3.96l1.35-12.45h12.45v3.69h-9.06l-.6 5.19c.96-1.08 2.4-1.62 4.2-1.62 4.11 0 6.72 2.76 6.72 7.02 0 4.62-3.06 7.5-7.95 7.5-2.64 0-4.8-.78-6.3-2.25-.87-.87-1.2-1.41-1.65-2.73l-.12-.3 4.35-1.2c.57 1.89 1.68 2.79 3.51 2.79 2.16 0 3.45-1.41 3.45-3.75M15.848 168H176v8H15.848z"/></svg>