<svg xmlns="http://www.w3.org/2000/svg" viewBox="0 0 192 192"><path d="M160 88v16H72V88zm-50.619 36a40.2 40.2 0 0 1 6.09-8H64V36h104v76.021a40.3 40.3 0 0 1 8 8.006V28h-16V16h-24v12H96V16H72v12H56v76H43.34c-4.047 0-7.34-3.229-7.34-7.197V75.476c6.897-1.78 12-8.023 12-15.476v-8h-4V40h-8v12h-8V40h-8v12h-4v8c0 7.453 5.103 13.697 12 15.476v21.327C28 105.183 34.882 112 43.34 112H56v12zM176 143.999C176 126.354 161.646 112 144.001 112S112 126.354 112 143.999C112 161.645 126.356 176 144.001 176S176 161.645 176 143.999m-8 0C168 157.233 157.234 168 144.001 168 130.767 168 120 157.233 120 143.999 120 130.766 130.767 120 144.001 120 157.234 120 168 130.766 168 143.999M148 156c0-2.17-1.806-4-3.945-4-2.247 0-4.056 1.792-4.056 4 0 2.248 1.77 4.002 4.02 4.002A3.98 3.98 0 0 0 148 156m-1.27-8 1.27-11.957V128h-8v7.957L141.27 148z"/></svg>