<svg xmlns="http://www.w3.org/2000/svg" viewBox="0 0 192 192"><path d="M144 44V32h-28v12H76V32H48v12H32v116h128V44zm8 108H40V52h112zM67.028 86.795h5.33v29.643h-6.355V95.241c-2.05 1.066-5.33 1.68-8.282 1.68l-.656-3.69c4.633-.778 8.037-2.295 9.963-6.436m62.197.328h6.437l-10.086 29.315h-6.97L108.52 87.123h7.052l6.847 21.36zM79.22 111.437c4.714-2.991 6.026-3.934 8.403-6.024 3.607-3.239 5.451-6.476 5.451-9.633 0-2.54-1.352-4.057-3.689-4.057-2.213 0-3.525 1.311-4.385 4.427l-5.739-1.394c1.517-5.452 4.837-8.075 10.411-8.075 6.19 0 10.001 3.525 10.001 9.181 0 3.812-1.64 7.173-5.082 10.452-1.68 1.64-3.484 2.91-7.009 5.082H100v5.042H79.22z"/></svg>