<svg xmlns="http://www.w3.org/2000/svg" viewBox="0 0 192 192"><path d="M64 164H40v-8h24zm88-8h-8v-8h-8v8h-8v8h8v8h8v-8h8zm-.01-28H168v48h-8v-40H32v40h-8v-48h16v-6.499l-12.943-11.459-4.916-86.023 8.162-.407V15.87h8v7.345l7.842-.39 2.008 39.313 3.854 1.131.12-.039 3.728-1.095 2.113-39.31 23.997 1.195-5.023 86.025L64 121.501V128h64v-6.66l-12.616-11.167-4.915-86.024 8.161-.406V16h8v7.346l7.842-.39 2.008 39.312 3.855 1.131.12-.04 3.727-1.094 2.113-39.309 23.998 1.194-5.024 86.025-13.278 11.755V128zM43.495 69.107l-3.04-.893-1.891-37.003-7.975.397 4.266 74.652 2.54 2.25 5.484-24.56a13.4 13.4 0 0 1-1.495-3.5c-1.047-3.923-.12-8.083 2.111-11.343m16.589 46.9-5.723-25.63a13.6 13.6 0 0 1-4.544-.787l-5.899 26.417zm6.522-7.497 2.544-2.252 4.36-74.65-7.98-.397-1.99 37.005-10.333 3.075c-2.873.767-4.863 4.215-4.094 7.095a5.34 5.34 0 0 0 2.5 3.264 5.34 5.34 0 0 0 4.077.54c.141-.038.277-.087.412-.136l4.259-1.513 6.245 27.97zm65.217-39.272-3.041-.893-1.89-37.003-7.975.397 4.265 74.652 2.541 2.25 5.484-24.56a13.4 13.4 0 0 1-1.495-3.5c-1.047-3.923-.12-8.083 2.111-11.343m16.559 46.77-5.694-25.5h-.078c-1.522 0-3.028-.266-4.466-.782l-5.868 26.281zm.307-35.336 6.244 27.97 2.544-2.253 4.36-74.65-7.98-.397-1.988 37.005-10.333 3.075c-1.365.364-2.606 1.369-3.408 2.756-.801 1.389-1.052 2.97-.687 4.339a5.34 5.34 0 0 0 2.5 3.264 5.34 5.34 0 0 0 4.077.54c.139-.037.275-.087.412-.136zM96 112c-2.25 0-4 1.75-4 4s1.75 4 4 4c2.188 0 4-1.813 4-4s-1.812-4-4-4m-1.344-5.533h2.688L98.811 89.6V75.911H93.19V89.6z"/></svg>