<svg xmlns="http://www.w3.org/2000/svg" viewBox="0 0 192 192"><path d="M144 44V32h-28v12H76V32H48v12H32v116h128V44zm8 108H40V52h112zM47.993 94.098h3.773v13.803h7.419v3.037H47.993zm15.345-1.3q.92 0 1.541.656.53.564.529 1.323 0 .897-.679 1.484-.598.518-1.415.518-.932 0-1.541-.656a1.9 1.9 0 0 1-.529-1.346q0-.885.679-1.472.598-.506 1.415-.506Zm-1.806 5.82h3.6v12.32h-3.6zm7.512-4.52h11.618v3.037h-7.845v4.452h6.051v2.945h-6.051v6.407h-3.773zm19.267 17.104q-3.048 0-4.831-1.978-1.553-1.725-1.553-4.337 0-3.106 1.967-4.969 1.703-1.61 4.245-1.61 2.899 0 4.429 1.932 1.346 1.68 1.346 4.475v.966h-8.363q.092 1.484.978 2.232.747.621 1.944.621.84 0 1.495-.345c.655-.345.748-.541.932-.932l2.83 1.093q-.816 1.553-2.163 2.22-1.266.633-3.255.633Zm-2.692-7.707h4.785q-.15-1.346-.684-1.938c-.534-.592-.891-.592-1.605-.592q-1.047 0-1.645.604c-.598.604-.683 1.045-.851 1.927Zm11.296-9.397h7.166q3.06 0 4.659 1.633 1.392 1.427 1.392 3.83 0 2.623-1.76 4.003-1.542 1.208-4.13 1.208h-3.554v6.166h-3.773zm6.925 7.867q1.369 0 2.036-.725.587-.633.587-1.748 0-2.404-2.6-2.404h-3.175v4.877zm16.817-8.132q2.324 0 4.187 1.116 1.818 1.104 2.841 3.048 1.047 1.979 1.047 4.463 0 4.141-2.588 6.603-2.243 2.14-5.636 2.14-3.853 0-6.143-2.715-1.978-2.37-1.978-5.935 0-2.508 1.07-4.521 1.047-1.967 2.91-3.071 1.898-1.127 4.291-1.127Zm-.172 3.037q-2.07 0-3.186 1.714-.978 1.484-.978 3.922 0 2.83 1.288 4.348 1.116 1.311 2.979 1.311 2.128 0 3.244-1.679.966-1.46.966-3.934 0-2.864-1.288-4.371-1.128-1.311-3.025-1.311m18.002 10.766h-8.133v-2.945l7.615-10.79h3.957v10.928h2.094v2.807h-2.094v3.301h-3.439zm-4.831-2.806h4.992v-7.27z"/></svg>