<svg xmlns="http://www.w3.org/2000/svg" viewBox="0 0 192 192"><path d="M144 44V32h-28v12H76V32H48v12H32v116h128V44zm8 108H40V52h112zM48 120h96v20H48zm22.171-28.829c-5.796-5.796-4.387-13.27 0-17.657L73 70.686l5.657 5.657-2.828 2.829c-.954.954-2.863 3.48 0 6.343 5.796 5.796 4.387 13.27 0 17.657L73 106l-5.657-5.657 2.828-2.829c.954-.954 2.863-3.48 0-6.343m46 0c-5.796-5.796-4.387-13.27 0-17.657L119 70.686l5.657 5.657-2.828 2.829c-.954.954-2.863 3.48 0 6.343 5.796 5.796 4.387 13.27 0 17.657L119 106l-5.657-5.657 2.828-2.829c.954-.954 2.863-3.48 0-6.343m-23 0c-5.796-5.796-4.387-13.27 0-17.657L96 70.686l5.657 5.657-2.828 2.829c-.954.954-2.863 3.48 0 6.343 5.796 5.796 4.387 13.27 0 17.657L96 106l-5.657-5.657 2.828-2.829c.954-.954 2.863-3.48 0-6.343"/></svg>