<svg xmlns="http://www.w3.org/2000/svg" viewBox="0 0 192 192"><path d="m96.001 148.664-44.037-26.399.02-52.53L96 43.334l44.019 26.4-.02 52.53zm-36.035-30.93L96 139.337l36.002-21.601.016-43.47L96 52.665l-36.019 21.6-.015 43.47zm36.053 6.93-24.02-14.399.01-28.53 24.009-14.4 24.009 14.4-.01 28.53zM80 105.734l16.016 9.602 16.002-9.601.006-19.47-16.007-9.6-16.01 9.6-.007 19.47zm16.004 66.93L31.95 134.265l.028-76.53 64.025-38.4 64.027 38.4-.028 76.53-63.998 38.4zm-56.052-42.93 56.05 33.602 56.002-33.601.024-67.47-56.025-33.6-56.026 33.6z"/></svg>