<svg xmlns="http://www.w3.org/2000/svg" viewBox="0 0 192 192"><path d="M40.57 98.062C36.553 91.367 32 83.778 32 69.336s4.553-22.03 8.57-28.726c1.655-2.758 3.268-5.451 4.568-8.61h8.511c-1.684 5.149-4.028 9.075-6.219 12.726C43.61 51.094 40 57.11 40 69.336s3.609 18.242 7.43 24.61C51.447 100.64 56 108.23 56 122.67s-4.553 22.029-8.57 28.723c-1.654 2.757-3.268 5.45-4.567 8.606h-8.512c1.684-5.147 4.029-9.072 6.219-12.722C44.39 140.91 48 134.896 48 122.67s-3.609-18.24-7.43-24.609zm28.23 24.61c0 12.224-3.61 18.238-7.43 24.606-2.19 3.65-4.535 7.575-6.219 12.722h8.512c1.3-3.157 2.912-5.85 4.566-8.606 4.018-6.694 8.57-14.282 8.57-28.723s-4.552-22.03-8.569-28.725c-3.821-6.368-7.43-12.384-7.43-24.61s3.609-18.242 7.43-24.61c2.19-3.65 4.535-7.577 6.22-12.726h-8.512c-1.3 3.159-2.914 5.852-4.568 8.61-4.017 6.695-8.57 14.284-8.57 28.726s4.553 22.03 8.57 28.726c3.82 6.368 7.43 12.384 7.43 24.61m20.8 0c0 12.224-3.609 18.238-7.43 24.606-2.19 3.65-4.534 7.575-6.218 12.722h8.511c1.3-3.157 2.913-5.85 4.567-8.606 4.017-6.694 8.57-14.282 8.57-28.723s-4.553-22.03-8.57-28.725c-3.821-6.368-7.43-12.384-7.43-24.61s3.609-18.242 7.43-24.61c2.19-3.65 4.536-7.577 6.22-12.726h-8.512c-1.3 3.159-2.913 5.852-4.568 8.61-4.017 6.695-8.57 14.284-8.57 28.726s4.553 22.03 8.57 28.726c3.821 6.368 7.43 12.384 7.43 24.61m20.8 0c0 12.224-3.609 18.238-7.43 24.606-2.19 3.65-4.535 7.575-6.219 12.722h8.512c1.3-3.157 2.912-5.85 4.567-8.606 4.017-6.694 8.57-14.282 8.57-28.723s-4.553-22.03-8.57-28.725c-3.821-6.368-7.43-12.384-7.43-24.61s3.609-18.242 7.43-24.61c2.19-3.65 4.535-7.577 6.22-12.726h-8.512c-1.3 3.159-2.913 5.852-4.568 8.61-4.017 6.695-8.57 14.284-8.57 28.726s4.553 22.03 8.57 28.726c3.821 6.368 7.43 12.384 7.43 24.61m20.8 0c0 12.224-3.609 18.238-7.43 24.606-2.19 3.65-4.534 7.575-6.218 12.722h8.512c1.299-3.157 2.912-5.85 4.566-8.606 4.017-6.694 8.57-14.282 8.57-28.723s-4.553-22.03-8.57-28.725c-3.82-6.368-7.43-12.384-7.43-24.61s3.61-18.242 7.43-24.61c2.19-3.65 4.536-7.577 6.22-12.726h-8.512c-1.3 3.159-2.913 5.852-4.568 8.61-4.017 6.695-8.57 14.284-8.57 28.726s4.553 22.03 8.57 28.726c3.821 6.368 7.43 12.384 7.43 24.61m20.8 0c0 12.224-3.609 18.238-7.43 24.606-2.19 3.65-4.535 7.575-6.219 12.722h8.512c1.3-3.157 2.913-5.85 4.567-8.606 4.017-6.694 8.57-14.282 8.57-28.723s-4.553-22.03-8.57-28.725c-3.821-6.368-7.43-12.384-7.43-24.61s3.609-18.242 7.43-24.61c2.19-3.65 4.535-7.577 6.22-12.726h-8.512c-1.3 3.159-2.913 5.852-4.568 8.61-4.017 6.695-8.57 14.284-8.57 28.726s4.553 22.03 8.57 28.726c3.821 6.368 7.43 12.384 7.43 24.61"/></svg>