<svg xmlns="http://www.w3.org/2000/svg" viewBox="0 0 192 192"><path d="M176.058 40.742c0-13.643-11.1-24.742-24.743-24.742-8.77 0-16.837 4.726-21.247 12.095A75.5 75.5 0 0 0 96 20a75.5 75.5 0 0 0-34.194 8.16C57.426 20.752 49.376 16 40.623 16 27.045 16 16 27.1 16 40.742c0 8.779 4.712 16.854 12.058 21.262A75.5 75.5 0 0 0 20 96c0 41.217 32.987 74.852 73.944 75.948a41 41 0 0 0 4.112 0C139.013 170.852 172 137.218 172 96a75.5 75.5 0 0 0-8.058-33.997c7.381-4.407 12.116-12.482 12.116-21.26zM151.315 24c9.232 0 16.743 7.51 16.743 16.742 0 5.894-3.154 11.317-8.08 14.315a76.6 76.6 0 0 0-22.968-22.992c3-4.918 8.418-8.065 14.305-8.065M24 40.742C24 31.511 31.457 24 40.623 24c5.875 0 11.28 3.18 14.25 8.14a76.6 76.6 0 0 0-22.851 22.917C27.13 52.06 24 46.637 24 40.742M96 164c-17.645 0-32-14.355-32-32s14.355-32 32-32 32 14.355 32 32-14.355 32-32 32m68-68c0 25.936-14.6 48.519-36.009 59.983A39.8 39.8 0 0 0 136 132c0-22.056-17.944-40-40-40s-40 17.944-40 40a39.8 39.8 0 0 0 8.009 23.983C42.6 144.52 28 121.936 28 96c0-37.495 30.505-68 68-68s68 30.505 68 68M76 68c0 4.418-2.686 8-6 8s-6-3.582-6-8 2.686-8 6-8 6 3.582 6 8m52 0c0 4.418-2.686 8-6 8s-6-3.582-6-8 2.686-8 6-8 6 3.582 6 8m-20.895 63.384 5.657 5.657A23.55 23.55 0 0 1 96 143.985a23.55 23.55 0 0 1-16.763-6.944l5.657-5.657a15.6 15.6 0 0 0 6.606 3.946v-7.171c0-1.691-2.07-5.459-4.396-7.283a5.25 5.25 0 0 1-1.724-5.846 5.27 5.27 0 0 1 4.975-3.545h11.29a5.27 5.27 0 0 1 4.975 3.545 5.25 5.25 0 0 1-1.723 5.846c-2.327 1.824-4.397 5.592-4.397 7.283v7.17a15.6 15.6 0 0 0 6.605-3.945"/></svg>