<svg xmlns="http://www.w3.org/2000/svg" viewBox="0 0 192 192"><path d="M48.524 175.976c-11.321 0-22.049-6.8-26.482-17.943-5.802-14.583 1.342-31.168 15.925-36.97l99.04-39.404c14.583-5.8 31.168 1.342 36.97 15.925s-1.342 31.168-15.925 36.97l-99.04 39.404a28.3 28.3 0 0 1-10.488 2.018m98.98-88.334c-2.513 0-5.066.466-7.54 1.45l-99.04 39.405a20.33 20.33 0 0 0-11.23 10.918 20.33 20.33 0 0 0-.219 15.66c4.171 10.484 16.093 15.62 26.58 11.45l99.04-39.404c10.484-4.171 15.62-16.095 11.448-26.58-3.187-8.01-10.9-12.899-19.039-12.899m-91.487 68.424c-6.607 0-11.983-5.398-11.983-12.033S49.41 132 56.017 132 68 137.398 68 144.033s-5.375 12.033-11.983 12.033m0-16.066c-2.196 0-3.983 1.81-3.983 4.033s1.787 4.033 3.983 4.033S60 146.257 60 144.033 58.213 140 56.017 140m84-16c-6.607 0-11.983-5.398-11.983-12.033s5.376-12.033 11.983-12.033S152 105.332 152 111.967 146.625 124 140.017 124m0-16.066c-2.196 0-3.983 1.809-3.983 4.033S137.82 116 140.017 116s3.983-1.81 3.983-4.033-1.787-4.033-3.983-4.033m-.907-36.322c-6.608 0-11.983-5.398-11.983-12.033s5.375-12.033 11.983-12.033 11.983 5.398 11.983 12.033-5.376 12.033-11.983 12.033m0-16.066c-2.196 0-3.983 1.809-3.983 4.033s1.787 4.033 3.983 4.033 3.983-1.809 3.983-4.033-1.787-4.033-3.983-4.033m-83.127 48.52C49.375 104.066 44 98.668 44 92.033S49.375 80 55.983 80s11.983 5.398 11.983 12.033-5.376 12.033-11.983 12.033m0-16.066C53.787 88 52 89.81 52 92.033s1.787 4.033 3.983 4.033 3.983-1.809 3.983-4.033S58.18 88 55.983 88m-25.601 28.723a28.6 28.6 0 0 1 7.08-4.069l.629-.25c-3.728-2.226-6.79-5.628-8.516-9.964-4.171-10.485.965-22.408 11.449-26.58l99.04-39.403a20.4 20.4 0 0 1 7.57-1.461c2.747 0 5.492.56 8.091 1.68a20.33 20.33 0 0 1 10.919 11.23 20.33 20.33 0 0 1-.22 15.66 20.3 20.3 0 0 1-8.783 9.73c.215.087.431.168.645.26a28.6 28.6 0 0 1 6.963 4.265c9.629-7.599 13.589-20.907 8.828-32.873-2.81-7.065-8.204-12.612-15.187-15.62-6.981-3.007-14.717-3.115-21.783-.305l-99.04 39.404c-14.583 5.802-21.727 22.386-15.925 36.97a28.26 28.26 0 0 0 8.24 11.326"/></svg>