<svg xmlns="http://www.w3.org/2000/svg" viewBox="0 0 192 192"><path fill-rule="evenodd" d="M-116.538 109.842c0 6.616-5.384 12-12 12s-12-5.384-12-12 5.383-12 12-12 12 5.383 12 12m262.54-57.843a21.9 21.9 0 0 1 6.93 1.124l4.62-6.809a29.8 29.8 0 0 0-11.55-2.315c-4.08 0-7.97.821-11.518 2.302l4.613 6.814A21.9 21.9 0 0 1 146 51.999zm27.76 10.641-6.836 4.574a21.9 21.9 0 0 1 1.075 6.785c0 2.287-.351 4.494-1.002 6.57l6.88 4.49A29.8 29.8 0 0 0 176.001 74c0-4.02-.8-7.853-2.24-11.359zm-1.162-6.38-.01-.06c-2.31-3.45-5.2-6.37-8.61-8.68l-.04-.02-6.71 9.88-.03.04.04.03c2.12 1.44 3.93 3.27 5.38 5.43l.03.04 9.93-6.64zM166 98.97a31.5 31.5 0 0 0 6.79-7.451l.02-.05-6.81-4.45zm-30.126-9.53-.04-.03a20 20 0 0 1-5.44-5.36l-.03-.05-9.86 6.76-.04.03.03.04c2.35 3.42 5.28 6.31 8.72 8.59l.04.02 6.59-9.96zm7.01 13.013v-8.107a22 22 0 0 1-2.689-.661l-4.534 6.856a29.9 29.9 0 0 0 7.223 1.912m-8.266-45.333-6.528-9.641-.04.03a31.8 31.8 0 0 0-8.63 8.66l-.03.05 6.798 4.554zM160 74c0 .09-.01.175-.013.264H160V130c0 9.925-8.075 18-18 18a18 18 0 0 1-1.59-.08l-.006.035-108-16.281.002-.015C23.09 129.959 16 121.799 16 112c0-11.028 8.972-20 20-20h28.7a11.9 11.9 0 0 1-.7-4c0-6.617 5.384-12 12-12 6.327 0 11.513 4.925 11.957 11.14l54.753-23.905.004.008A11.9 11.9 0 0 1 148 62c6.617 0 12 5.383 12 12m-36 56c0-9.925 8.075-18 18-18 3.698 0 7.138 1.124 10 3.044V85.3c-1.253.445-2.595.7-4 .7-6.32 0-11.504-4.916-11.955-11.124l-55.32 24.152-.097.043-.096.042-.003-.006a11.9 11.9 0 0 1-4.23.879V100H76l-.028-.001h-24.01c2.523 3.347 4.038 7.495 4.038 12 0 5.57-2.293 10.61-5.98 14.24l75.712 11.413A17.9 17.9 0 0 1 124 130m24-60c-2.205 0-4 1.794-4 4s1.795 4 4 4 4-1.794 4-4-1.794-4-4-4M75.986 92h.029a4 4 0 0 0 1.51-.304l.067-.03A4 4 0 0 0 80 88.002c0-2.206-1.794-4-4-4s-4 1.794-4 4c0 2.2 1.787 3.99 3.986 3.999zM36 124c6.617 0 12-5.383 12-12s-5.383-12-12-12-12 5.383-12 12 5.383 12 12 12m116 6c0-5.514-4.486-10-10-10s-10 4.486-10 10 4.486 10 10 10 10-4.486 10-10M40 112a4 4 0 1 0-8 0 4 4 0 0 0 8 0" clip-rule="evenodd"/></svg>