<svg xmlns="http://www.w3.org/2000/svg" viewBox="0 0 192 192"><path d="m166.082 26.034-.103-.102c-6.422-6.422-14.96-9.959-24.042-9.959s-17.62 3.537-24.042 9.959l-92.057 92.057c-6.422 6.422-9.959 14.96-9.959 24.042 0 9.081 3.537 17.62 9.959 24.041l.11.11c6.421 6.421 14.96 9.958 24.04 9.958 9.083 0 17.62-3.537 24.043-9.958l92.057-92.057c13.256-13.257 13.256-34.828-.006-48.09zm-5.651 42.433-92.057 92.057c-4.911 4.912-11.44 7.616-18.385 7.616s-13.474-2.704-18.385-7.616l-.11-.109c-4.91-4.91-7.615-11.44-7.615-18.384s2.705-13.474 7.616-18.385l92.057-92.057c4.91-4.911 11.44-7.616 18.385-7.616s13.474 2.705 18.39 7.622l.104.103c4.91 4.91 7.615 11.44 7.615 18.385s-2.704 13.474-7.615 18.384M142 31.998c-9.925 0-18 8.075-18 18S132.075 68 142 68s18-8.075 18-18-8.075-18.001-18-18.001zm0 28.001c-5.514 0-10-4.486-10-10s4.486-10.001 10-10.001 10 4.486 10 10S147.514 60 142 60zM36.913 75.302c-1.622-1.505-1.7-4.056-.175-5.7 1.524-1.642 4.074-1.755 5.696-.25s1.7 4.056.175 5.699-4.075 1.755-5.696.25zm31.883-32.988c-1.344-1.793-1-4.323.77-5.65 1.769-1.327 4.293-.949 5.638.845s1 4.322-.769 5.65c-1.77 1.326-4.294.948-5.639-.845M82.343 24H76v-8h20v20h-8v-6.344l-5.174 5.173-5.656-5.657zM36 96H16V76.145h8v6.198l5.171-5.172 5.658 5.658L29.657 88H36zm14.83-29.172-5.658-5.658 16-16 5.657 5.658-16 16zm-.81 57.171c-9.925 0-18 8.075-18 18S40.095 160 50.02 160s18-8.075 18-18-8.075-18.001-18-18.001m0 28.001c-5.514 0-10-4.486-10-10s4.486-10.001 10-10.001 10 4.486 10 10S55.535 152 50.02 152"/></svg>