<svg xmlns="http://www.w3.org/2000/svg" viewBox="0 0 192 192"><path d="M152 104.028c-.001-1.091-.183-26.875-13.32-38.918-11.937-10.943-30.203-12.796-38.516-13.045C101.421 36.495 109.99 24 120 24v-8c-14.768 0-26.523 15.545-27.868 36.055-8.171.214-26.733 1.983-38.812 13.055C40.183 77.153 40 102.937 40 104.028l-.004 3.725 3.715.27c.233.017 1.55.104 3.626.104q.36 0 .75-.004c.654 17 5.361 33.1 13.437 45.711C70.676 168.128 82.92 176 96 176s25.324-7.872 34.476-22.166c8.076-12.611 12.783-28.712 13.437-45.71l.75.003c2.075 0 3.393-.087 3.626-.104l3.715-.27zm-8.196-3.915c-7.402-.103-23.562-1.476-32.982-10.896-8.574-8.574-10.39-22.453-10.752-29.138 7.324.255 23.343 1.889 33.204 10.929 7.894 7.236 9.98 22.034 10.53 29.105M58.726 71.008c9.866-9.045 25.895-10.676 33.212-10.93-.35 6.676-2.149 20.528-10.76 29.139-9.396 9.397-25.605 10.778-33.006 10.89.632-8.185 3.181-22.34 10.554-29.1zM96 168c-20.925 0-38.71-27.284-39.928-60.355 9.377-1.023 22.077-4.084 30.763-12.771 4.304-4.303 7.205-9.525 9.165-14.73 1.96 5.205 4.861 10.426 9.165 14.73 8.687 8.687 21.386 11.748 30.763 12.771C134.71 140.716 116.925 168 96 168m-20-47.967a4 4 0 1 1-8 0 4 4 0 0 1 8 0m24 0a4 4 0 1 1-8 0 4 4 0 0 1 8 0m-12 16a4 4 0 1 1-8 0 4 4 0 0 1 8 0m16 0a4 4 0 1 1 8 0 4 4 0 0 1-8 0M116 120a4 4 0 1 1 8 0 4 4 0 0 1-8 0"/></svg>