<svg xmlns="http://www.w3.org/2000/svg" viewBox="0 0 192 192"><path d="m105.055 48.039-4.245 6.157c27.864-1.371 53.416 16.242 62.047 42.77l4.245-6.157 6.016 4.147-10.87 15.77-15.77-10.87 4.147-6.018 4.48 3.089c-8.024-21.358-28.685-35.6-51.498-35.499l4.478 3.087-4.146 6.017-15.771-10.87L99.039 43.89l6.016 4.148zM98 76a49.7 49.7 0 0 0-17.745 3.264L65.224 45.86l24.143-12.07-3.578-7.157-12.8 6.4-3.2-6.4-23.156 11.578 3.578 7.156 4.912-2.456 2.04 4.532L16 72.219v9.345l32.17-19.363L16 109.218v27.926L63.21 60.88l9.822 21.827C58.085 91.362 48 107.52 48 126c0 27.57 22.43 50 50 50s50-22.43 50-50-22.43-50-50-50m0 92c-23.159 0-42-18.841-42-42 0-15.236 8.156-28.6 20.33-35.964l17.664 39.253 7.295-3.283-17.748-39.44A41.8 41.8 0 0 1 98 84c23.159 0 42 18.841 42 42s-18.841 42-42 42"/></svg>