<svg xmlns="http://www.w3.org/2000/svg" viewBox="0 0 192 192"><path d="m160.1 137.6 1.6 7.8-19.6 3.9-3.9-19.6 7.8-1.6 1.3 6.2c8.3-11 12.8-24.4 12.8-38.4 0-35.3-28.7-64-64-64-9.4 0-18.5 2-27 6l-3.4-7.2C75.2 26.3 85.4 24 96 24c39.7 0 72 32.3 72 72 0 15.6-5 30.5-14.1 42.8zM96 160c-35.3 0-64-28.7-64-64 0-14.5 4.8-28.3 13.7-39.6l1.2 6 7.8-1.6-3.9-19.6-19.6 3.9 1.6 7.8 6.4-1.3C29.3 64.4 24 79.8 24 96c0 39.7 32.3 72 72 72 10.6 0 20.8-2.3 30.4-6.7L123 154c-8.5 4-17.6 6-27 6m-31-40.1 1.5-1.7 3.5 5.9h4.8l-5.4-8.9 4.9-5.7h-4.6l-4.6 5.7V103h-4.3v21.1H65zm29.9-10.8c-.9 0-1.8.2-2.5.6s-1.4 1-2.1 1.9q-1.2-2.4-3.9-2.4c-1.8 0-3.2.9-4.2 2.6v-2.2H78v14.6h4.3v-8.9c0-.8.2-1.5.5-2 .4-.6 1-.8 1.8-.8 1.3 0 2 .8 2 2.5v9.1h4.3v-8.8c0-.8.2-1.5.6-2q.6-.9 1.8-.9c1.3 0 2 .9 2 2.6v9.1h4.3v-9.5c0-1.6-.4-2.9-1.1-3.9-.8-1.1-2-1.6-3.6-1.6m11.1 19.1 8.2-25.9h-3.9l-8.2 25.9zm20.7-19.1q-3.15 0-4.5 2.7V103h-4.3v21.1h4.3v-8.6q0-1.35.6-2.1.75-.9 2.1-.9c1.5 0 2.2.9 2.2 2.8v8.9h4.3v-9.5c0-1.6-.4-3-1.1-3.9-.8-1.2-2-1.7-3.6-1.7m-46-23.2c-1.2 1-2.3 1.9-3.3 2.6s-2.6 1.8-5 3.3v4.9h20.3v-4.9h-12c3.2-2 5.5-3.6 6.8-5 3.3-3.2 5-6.5 5-10.2 0-2.6-.8-4.7-2.3-6.2q-2.7-2.7-7.5-2.7c-2.5 0-4.6.6-6.2 1.7-1.8 1.3-3.2 3.3-3.9 6.2l5.6 1.3c.4-1.5 1-2.6 1.6-3.3.7-.7 1.6-1 2.6-1 1.1 0 1.9.3 2.5.9.7.7 1.1 1.7 1.1 3 0 3-1.8 6.2-5.3 9.4m27.9 6.2c-2.4 0-3.9-1.2-4.7-3.7L98.2 90l.2.4c.3.9.6 1.5.9 2s.7 1 1.3 1.6q3 3 8.4 3c3 0 5.5-.8 7.4-2.4 2.2-1.8 3.2-4.3 3.2-7.6 0-2.6-.7-4.8-2.1-6.5-1.6-1.9-3.9-2.9-6.8-2.9-2.5 0-4.3.7-5.6 2.1l.8-6.9H118V68h-16.6l-1.8 16.6h5.3c.9-1.6 2.2-2.4 4.1-2.4 1.3 0 2.3.4 3.1 1.2.9.9 1.4 2.1 1.4 3.8 0 1.5-.4 2.6-1.1 3.5-1.1.9-2.2 1.4-3.8 1.4"/></svg>