<svg xmlns="http://www.w3.org/2000/svg" viewBox="0 0 192 192"><path d="M86.82 103.98h4.09V124H86l-7.62-13.89V124H74.3v-20.02h5.1l7.42 13.58zm26.29 5.01c-1.85 0-3.22.73-4.54 2.44-.84-1.65-2.07-2.44-3.89-2.44-1.85 0-3.22.84-4.23 2.55v-2.18h-4.28V124h4.28v-8.88c0-1.74.9-2.8 2.35-2.8 1.32 0 1.99.87 1.99 2.55V124h4.28v-8.82c0-1.76.92-2.86 2.38-2.86 1.29 0 1.96.87 1.96 2.6V124h4.28v-9.46c.01-3.5-1.67-5.55-4.58-5.55m42.94-76.94-.01 13.8C140.9 26.56 119.86 16.02 96.06 16h-.07C50.44 16 16.06 50.38 16 96c.02 45.61 34.42 80 80 80h4v-40h-8v31.9c-18.75-.92-35.67-8.27-48-20.95-12.89-13.25-19.99-31.35-20-50.94.03-20.35 7.52-38.82 21.1-52.02C58.35 31.09 76.42 24 95.99 24h.06c21.75.02 40.98 9.93 54.65 28.04l-14.68-.01-.01 8 28 .02.02-28zM85.52 91.02v5.6h5.84v-5.6h3.56v-4.76h-3.56V67.7h-6.72L71.72 86.02v5zm-8.2-4.76L85.8 73.9v12.36zm32.2-18.68c-3.4 0-6.28 1.52-8.04 4.24-1.72 2.6-2.72 6.44-2.72 10.32 0 9.24 4.12 14.92 10.8 14.92 3.36 0 6.28-1.52 8-4.24 1.76-2.76 2.72-6.4 2.72-10.52 0-9-4.16-14.72-10.76-14.72m.04 4.92c2.72 0 4.28 3.56 4.28 9.84 0 6.24-1.56 9.8-4.32 9.8-2.72 0-4.32-3.6-4.32-9.68 0-6.44 1.56-9.96 4.36-9.96"/></svg>