<svg xmlns="http://www.w3.org/2000/svg" viewBox="0 0 192 192"><path d="M139.246 44h-28.29A17.9 17.9 0 0 0 114 34c0-9.925-8.075-18-18-18s-18 8.075-18 18c0 3.698 1.124 7.138 3.044 10h-28.29L35.07 128h121.86zM86 34c0-5.514 4.486-10 10-10s10 4.486 10 10-4.486 10-10 10-10-4.486-10-10M59.246 52h73.508l14.316 68H44.93zm-23.4 111.608c4.14-2.627 5.291-3.455 7.379-5.29 3.167-2.844 4.787-5.688 4.787-8.46 0-2.232-1.188-3.563-3.24-3.563-1.943 0-3.095 1.152-3.85 3.887l-5.04-1.223c1.332-4.788 4.247-7.092 9.143-7.092 5.435 0 8.782 3.096 8.782 8.063 0 3.348-1.44 6.3-4.463 9.179-1.476 1.44-3.06 2.556-6.155 4.464h10.906V168H35.846zm22.283 7.884c1.548-.432 2.484-1.692 2.592-3.6-2.016-.18-3.204-1.332-3.204-3.132 0-1.835 1.404-3.167 3.312-3.167 2.268 0 3.707 1.8 3.707 4.679 0 2.304-.648 4.355-1.8 5.687-1.151 1.368-2.303 1.908-4.607 2.16zM69.83 168c.504-8.243 3.816-15.982 9.071-21.31H66.266v-4.427H84.37v4.175c-5.04 5.22-8.17 13.355-8.386 21.562h-6.156zm23.472-15.082c1.152-1.296 2.88-1.944 5.04-1.944 4.93 0 8.062 3.312 8.062 8.423 0 5.543-3.671 8.999-9.538 8.999-3.168 0-5.76-.936-7.56-2.7-1.044-1.044-1.44-1.692-1.98-3.275l-.144-.36 5.22-1.44c.684 2.268 2.016 3.347 4.212 3.347 2.59 0 4.139-1.691 4.139-4.499 0-2.736-1.548-4.427-3.995-4.427-1.692 0-2.88.684-3.672 2.16h-4.752l1.62-14.939h14.938v4.428h-10.87zm29.447 9.755V168h-5.507v-27.104h5.507v15.622l5.904-7.344h5.975l-6.3 7.38L135.275 168h-6.12l-4.499-7.56zm30.923-9.719c.323.936.431 1.476.431 2.232 0 3.563-3.131 5.975-7.846 5.975-1.26 0-2.268-.144-3.42-.504q-.756.54-.756 1.296c0 1.007.648 1.368 2.555 1.368h4.752c4.355 0 6.767 1.835 6.767 5.219 0 4.248-3.707 6.66-10.186 6.66-5.616 0-8.927-1.764-8.927-4.825 0-1.547.971-2.699 3.06-3.599-1.44-.864-2.125-1.98-2.125-3.42 0-1.655.865-2.879 2.664-3.815-1.547-1.224-2.268-2.627-2.268-4.463 0-3.708 3.276-6.371 7.775-6.371 1.764 0 3.24.396 4.86 1.26l5.075-1.153v4.14zm-9.431 14.794c-.684 0-.936 0-1.26-.072-.792.54-1.152 1.08-1.152 1.836 0 1.476 1.332 2.124 4.284 2.124 3.347 0 5.075-.792 5.075-2.376 0-1.044-.756-1.512-2.592-1.512h-4.356zm-.9-12.67c0 1.836 1.116 2.951 2.916 2.951s2.843-1.115 2.843-2.951-1.044-2.916-2.916-2.916c-1.763 0-2.843 1.116-2.843 2.916"/></svg>