<svg xmlns="http://www.w3.org/2000/svg" viewBox="0 0 192 192"><path d="M48 40H24v-8h24zm-8 56h-8v48h8zm136 20c0 24.262-19.738 44-44 44s-44-19.738-44-44c0-16.132 8.732-30.255 21.712-37.915l-5.415-11.491-40.298 49.87v-12.729L96.107 64H63.999v-8h35.306L87.999 31.992h36v8h-23.394l16.334 34.664A43.8 43.8 0 0 1 131.999 72c24.262 0 44 19.738 44 44Zm-8 0c0-19.851-16.149-36-36-36-4.069 0-7.978.688-11.628 1.938l16.952 35.975-7.237 3.41-16.949-35.97c-10.274 6.347-17.137 17.708-17.137 30.646 0 19.851 16.149 36 36 36s36-16.149 36-36ZM56 48H16v112h40zm-32 8h24v96H24z"/></svg>