<svg xmlns="http://www.w3.org/2000/svg" viewBox="0 0 192 192"><path d="M136 114.101c3.053 1.26 6.497 1.899 10.05 1.899 15.701 0 33.333-12.17 26.867-35.334 1.967-3.246 3.085-8.382 3.085-12.318 0-12.361-10.149-23.559-24-24.232-3.307-7.33-10.828-12.116-20-12.116h-.003c-9.172 0-16.694 4.787-20 12.116-13.851.673-24 11.871-24 24.232 0 3.936 1.118 9.072 3.085 12.318C84.617 103.832 102.249 116 117.951 116c3.552 0 6.996-.639 10.05-1.899v37.754c-15.542-1.223-25.356-10.293-35.701-19.861-11.821-10.935-25.18-23.284-48.299-23.961V100h6c7.72 0 14-6.28 14-14 0-6.495-4.446-11.971-10.455-13.545C51.972 66.447 46.496 62 40.001 62S28.03 66.446 26.456 72.455C20.448 74.029 16.001 79.505 16.001 86c0 7.72 6.28 14 14 14h6v8h-20v8h26c21.227 0 32.71 10.622 44.867 21.867C98.632 148.748 110.796 160 131.605 160h44.396v-8h-40zM24 86c0-3.309 2.691-6 6-6h4v-4c0-3.309 2.691-6 6-6s6 2.691 6 6v4h4c3.309 0 6 2.691 6 6s-2.691 6-6 6H30c-3.309 0-6-2.691-6-6m103.362 19.413c-2.347 1.669-5.689 2.587-9.411 2.587-6.861 0-13.375-2.966-16.999-7.74-3.411-4.494-4.139-10.363-2.162-17.442l.931-3.335-1.794-2.962C96.864 74.767 96 71.101 96 68.349c0-8.517 7.352-15.802 16.388-16.241l4.891-.237 2.014-4.463c2.092-4.637 6.843-7.406 12.708-7.406h.003c5.865 0 10.616 2.769 12.708 7.406l2.013 4.463 4.891.237c9.036.439 16.388 7.725 16.388 16.241 0 2.752-.865 6.419-1.927 8.172l-1.795 2.962.931 3.335c1.976 7.079 1.249 12.947-2.163 17.442-3.624 4.775-10.138 7.741-16.998 7.741-3.722 0-7.064-.919-9.411-2.587l-.638-.452v-12.96h-8v12.959l-.638.454Z"/></svg>