<svg xmlns="http://www.w3.org/2000/svg" viewBox="0 0 192 192"><path d="M139.246 44h-28.289a17.9 17.9 0 0 0 3.044-10c0-9.925-8.075-18-18-18s-18 8.075-18 18c0 3.698 1.124 7.138 3.044 10H52.756l-17.684 84h121.859zM86 34c0-5.514 4.486-10 10-10s10 4.486 10 10-4.486 10-10 10-10-4.486-10-10M59.246 52h73.509l14.316 68H44.93zm-13.78 116.007v-4.377q4.921-3.129 7.365-5.309 4.799-4.272 4.799-8.438 0-1.477-.703-2.443-.827-1.143-2.531-1.143-2.11 0-3.164 2.057-.37.72-.686 1.846l-5.045-1.213q.808-2.97 2.32-4.518 2.514-2.601 6.82-2.602 3.885 0 6.24 2.004 2.549 2.162 2.549 6.082 0 4.922-4.447 9.158-2.004 1.916-6.17 4.465h10.898v4.43H45.465Zm22.711 6.118v-2.619q2.338-.756 2.584-3.604-1.3-.106-2.057-.703-1.143-.88-1.143-2.426c0-1.546.387-1.852 1.16-2.461q.896-.72 2.145-.721 1.687 0 2.725 1.283 1.002 1.23 1.002 3.393 0 3.603-1.793 5.695-1.143 1.318-2.707 1.811-.65.211-1.916.352m24.592-19.758q4.482 1.969 4.482 6.346 0 4.06-3.533 6.135-2.655 1.564-6.504 1.564c-3.849 0-4.717-.521-6.486-1.564q-3.533-2.075-3.533-6.135 0-4.377 4.482-6.346-3.322-1.863-3.322-5.326 0-3.393 2.76-5.361 2.549-1.81 6.117-1.811c3.568-.001 4.43.604 6.117 1.811q2.76 1.969 2.76 5.361 0 3.445-3.34 5.326m-5.537 1.881q-1.81 0-3.023.984-1.283 1.055-1.283 2.9 0 1.968 1.283 3.041 1.196.984 3.041.984 1.81 0 3.006-.984 1.283-1.072 1.283-2.971 0-1.916-1.283-2.971-1.213-.984-3.023-.984Zm-.018-10.301q-1.599 0-2.619.984-.95.95-.949 2.355 0 1.495.949 2.443 1.002.984 2.637.984 1.617 0 2.619-.984.95-.95.949-2.408c-.001-1.458-.316-1.77-.949-2.391q-1.036-.984-2.637-.984Zm32.46 22.06-4.5-7.559-1.898 2.232v5.326h-5.502v-27.105h5.502v15.627l5.906-7.348h5.977l-6.311 7.383 6.961 11.443zm13.535-7.33q-.756.528-.756 1.301 0 .879.896 1.195.474.158 1.67.158h4.746q3.235 0 4.939 1.283 1.828 1.353 1.828 3.92 0 3.34-2.742 4.992-2.795 1.688-7.436 1.688-4.272 0-6.768-1.371-2.162-1.178-2.162-3.445 0-2.303 3.059-3.621-2.127-1.248-2.127-3.41 0-2.426 2.654-3.797-2.268-1.81-2.268-4.482 0-3.024 2.514-4.816 2.162-1.564 5.256-1.564 2.585 0 4.869 1.266l5.08-1.143v4.131h-2.408q.422 1.23.422 2.215 0 3.181-2.883 4.834-2.039 1.16-4.957 1.16-1.793 0-3.428-.492Zm.159 7.014q-1.16.756-1.16 1.846 0 1.055.879 1.529 1.09.58 3.393.58 5.08 0 5.08-2.355 0-.826-.633-1.178-.615-.352-1.951-.352h-4.359q-.861 0-1.248-.07Zm3.269-15.522q-1.441 0-2.215.826-.703.774-.703 2.092 0 .984.404 1.67.756 1.283 2.496 1.283c1.74 0 1.986-.422 2.479-1.266q.404-.686.404-1.688 0-1.371-.756-2.127-.774-.79-2.109-.791Z"/></svg>