<svg xmlns="http://www.w3.org/2000/svg" viewBox="0 0 192 192"><path d="M139.246 44h-28.289a17.9 17.9 0 0 0 3.044-10c0-9.925-8.075-18-18-18s-18 8.075-18 18c0 3.698 1.124 7.138 3.044 10H52.756l-17.684 84h121.859zM86 34c0-5.514 4.486-10 10-10s10 4.486 10 10-4.486 10-10 10-10-4.486-10-10M59.246 52h73.509l14.316 68H44.93zM39.104 162.96v-4.499l11.626-16.486h6.047v16.702h3.204v4.283h-3.204V168h-5.255v-5.04zm12.67-4.283v-11.123l-7.631 11.123zm17.604 6.3c0 1.872-1.512 3.383-3.384 3.383s-3.383-1.476-3.383-3.383 1.512-3.384 3.419-3.384c1.836 0 3.348 1.548 3.348 3.384m2.593-2.017v-4.499l11.626-16.486h6.047v16.702h3.204v4.283h-3.204V168h-5.255v-5.04zm12.671-4.283v-11.123l-7.631 11.123zm27.899 8.639c-1.008.9-3.132 1.188-4.968 1.188-3.887 0-5.831-1.584-5.831-6.155v-21.453h5.507v21.561c0 1.224.612 1.764 1.656 1.764.612 0 1.368-.18 2.196-.9zm7.848-15.298c1.44-2.232 3.275-3.312 5.759-3.312 4.571 0 7.667 3.923 7.667 9.827 0 6.047-2.988 9.863-7.775 9.863-2.52 0-4.463-1.116-5.651-3.312V168h-5.507v-27.104h5.507zm-.144 6.587c0 3.528 1.44 5.507 4.031 5.507s3.924-1.835 3.924-5.471c0-3.708-1.368-5.651-3.959-5.651-2.52 0-3.996 2.088-3.996 5.615m29.88-4.427c-1.764-.864-3.456-1.404-5.292-1.404-1.692 0-2.448.468-2.448 1.476 0 1.116.648 1.44 3.708 2.016 2.16.36 3.312.72 4.355 1.368 1.656.972 2.448 2.484 2.448 4.536 0 3.959-3.023 6.227-8.279 6.227-3.636 0-5.976-.756-8.243-2.7l2.556-3.563c1.728 1.583 3.312 2.196 5.543 2.196 2.016 0 3.096-.612 3.096-1.8 0-.54-.216-.9-.684-1.152-.504-.252-.684-.324-3.312-.828-4.392-.828-6.335-2.627-6.335-5.903 0-3.708 2.844-5.939 7.667-5.939 3.024 0 5.184.576 7.379 1.872l-2.16 3.6Z"/></svg>