<svg xmlns="http://www.w3.org/2000/svg" viewBox="0 0 192 192"><path d="M158 96h-8c0-29.776-24.224-54-54-54v-8c34.187 0 62 27.813 62 62M96 16c-44.112 0-80 35.888-80 80h8c0-39.701 32.299-72 72-72s72 32.299 72 72h8c0-44.112-35.888-80-80-80M60.343 146.475c-1.764-3.132-4.248-4.608-7.775-4.608-6.516 0-10.727 5.436-10.727 13.859 0 4.103.864 7.09 2.7 9.286 1.835 2.232 4.39 3.384 7.415 3.384 5.543 0 9.25-3.563 9.25-8.855 0-4.931-3.239-8.315-7.955-8.315q-3.94 0-5.939 3.132c.36-5.328 2.124-8.063 5.22-8.063 1.691 0 2.627.648 3.851 2.735zm-8.531 8.818c2.375 0 3.995 1.764 3.995 4.392s-1.62 4.392-3.995 4.392-3.996-1.764-3.996-4.32c0-2.7 1.584-4.464 3.996-4.464m22.14-13.426c-3.06 0-5.652 1.368-7.236 3.816-1.548 2.34-2.448 5.795-2.448 9.287 0 8.315 3.708 13.426 9.72 13.426 3.023 0 5.65-1.368 7.198-3.815 1.584-2.484 2.448-5.76 2.448-9.467 0-8.1-3.744-13.247-9.683-13.247zm.036 4.428c2.447 0 3.85 3.204 3.85 8.854 0 5.616-1.403 8.82-3.887 8.82-2.447 0-3.887-3.24-3.887-8.711 0-5.796 1.404-8.963 3.924-8.963m22.5-4.428c-3.06 0-5.652 1.368-7.236 3.816-1.548 2.34-2.448 5.795-2.448 9.287 0 8.315 3.707 13.426 9.719 13.426 3.024 0 5.651-1.368 7.199-3.815 1.584-2.484 2.448-5.76 2.448-9.467 0-8.1-3.744-13.247-9.683-13.247zm.035 4.428c2.447 0 3.851 3.204 3.851 8.854 0 5.616-1.404 8.82-3.887 8.82-2.448 0-3.888-3.24-3.888-8.711 0-5.796 1.404-8.963 3.924-8.963m18.505-4.032L121.65 168h6.01l5.004-17.386L137.561 168h5.939l6.659-25.737h-5.544l-4.463 18.25-5.039-18.25h-4.788l-5.003 18.106-4.248-18.106zm-7.033-46.172a11.9 11.9 0 0 1-1.334 5.373c-2.13 4.109-6.335 6.47-10.683 6.47-1.85 0-3.724-.427-5.477-1.328a11.9 11.9 0 0 1-5.936-7.008 11.86 11.86 0 0 1 .774-9.125c3.036-5.857 10.286-8.162 16.16-5.142a11.95 11.95 0 0 1 3.891 3.194l32.394-10.336 2.432 7.622zm-8.182-1.32a3.95 3.95 0 0 0-1.973-2.326c-1.963-1.01-4.386-.244-5.397 1.708a3.91 3.91 0 0 0-.256 3.013 3.95 3.95 0 0 0 1.973 2.325c1.962 1.01 4.384.243 5.398-1.708a3.92 3.92 0 0 0 .255-3.012"/></svg>