<svg xmlns="http://www.w3.org/2000/svg" viewBox="0 0 192 192"><path d="M92 64H76v-8h16V40h8v16h16v8h-16v16h-8zm-16 72h40v-8H76zm67.71-42.29c.22 1.52.22 3.06 0 4.58l-9.88 68.28c-.78 5.37-5.46 9.42-10.89 9.42H69.06c-5.43 0-10.11-4.05-10.89-9.42l-9.88-68.28c-.22-1.52-.22-3.06 0-4.58l9.88-68.28c.78-5.38 5.46-9.43 10.89-9.43h53.88c5.43 0 10.11 4.05 10.89 9.42zM56.62 92h78.76l-9.47-65.43a3.02 3.02 0 0 0-2.97-2.57H69.06c-1.48 0-2.76 1.1-2.97 2.57zm78.76 8H56.62l9.47 65.43a3.02 3.02 0 0 0 2.97 2.57h53.88c1.48 0 2.76-1.1 2.97-2.57z"/></svg>