<svg xmlns="http://www.w3.org/2000/svg" viewBox="0 0 192 192"><path d="m176.318 50.193-6.854 22.514-22.515-6.853 2.33-7.653 9.814 2.987A71.91 71.91 0 0 0 95.99 23.876h-.034c-39.701.019-71.985 32.333-71.967 72.033.019 39.689 32.315 71.967 72 71.967h.034c9.187-.004 18.133-1.714 26.589-5.081l2.959 7.433c-9.4 3.743-19.34 5.644-29.544 5.648h-.038c-44.098 0-79.979-35.861-80-79.963-.021-44.112 35.851-80.017 79.963-80.037h.038a79.89 79.89 0 0 1 69.907 41.078l2.767-9.091 7.653 2.33Zm-14.339 78.12-13.672 19.176-25.961-16.256c-7.822 5.882-17.071 8.836-26.331 8.836-10.073 0-20.153-3.483-28.409-10.457-18.534-15.656-20.876-43.472-5.22-62.006 15.657-18.535 43.472-20.876 62.006-5.22 13.587 11.477 18.85 29.936 13.599 46.73l23.988 19.196Zm-47.016-1.703-27.327-17.112c-2.979-1.866-5.202-4.421-6.426-7.387a15.96 15.96 0 0 1 2.567-16.436 15.9 15.9 0 0 1 10.88-5.619 15.9 15.9 0 0 1 11.624 3.685l24.893 19.921c2.808-12.874-1.65-26.468-11.944-35.163-15.165-12.809-37.922-10.894-50.732 4.271s-10.894 37.923 4.271 50.732c12.147 10.26 29.115 11.279 42.194 3.108m36.109 3.221-49.91-39.942a7.94 7.94 0 0 0-5.834-1.86 7.95 7.95 0 0 0-5.44 2.809 7.98 7.98 0 0 0-1.283 8.223c.738 1.789 2.19 2.977 3.277 3.658l54.285 33.992 4.905-6.879Z"/></svg>