<svg xmlns="http://www.w3.org/2000/svg" viewBox="0 0 192 192"><path d="M80 68h56v8H80v8h-8v-8H60v-8h12v-8h8zm28 16h-8v8H60v8h40v8h8v-8h28v-8h-28zm38.66 88.786c.458-.408 11.272-10.06 17.377-17.183C169.825 148.851 176 140.747 176 130c0-9.925-8.075-18-18-18-5.648 0-10.697 2.615-14 6.698-3.303-4.083-8.352-6.698-14-6.698-9.925 0-18 8.075-18 18 0 10.747 6.175 18.85 11.963 25.603 6.105 7.123 16.919 16.775 17.376 17.183l2.661 2.37zM140 130h8c0-5.514 4.486-10 10-10s10 4.486 10 10c0 7.234-3.84 13.168-10.037 20.397-3.986 4.65-10.377 10.69-13.963 13.995-3.586-3.305-9.977-9.345-13.963-13.995C123.84 143.167 120 137.234 120 130c0-5.514 4.486-10 10-10s10 4.486 10 10m-22.11 30.71a107 107 0 0 1-4.205-5.197c-10.497-2.556-21.9-6.05-32.556-10.09-24.889-9.435-41.668-20.242-44.883-28.909-6.805-18.342-10.81-34.045-11.981-38.88 2.098-3.479 8.127-13.162 15.783-22.715C51.893 40.139 62.589 32 70.166 32c21.105 0 87.374 30.166 93.936 42.691 2.68 7.61 3.67 19.544 3.888 31.208a26.1 26.1 0 0 1 8.058 5.313c-.017-14.043-.98-29.699-4.499-39.455l-.165-.392c-5.25-10.794-33.344-24.496-45.18-29.886C108.5 33.416 83.2 24 70.167 24c-23.537 0-50.62 45.764-53.63 50.982l-.781 1.353.342 1.523c.171.76 4.283 18.89 12.648 41.439 7.83 21.106 60.008 39.763 93.587 46.259-1.592-1.65-3.118-3.3-4.443-4.846M108.044 116H88v-8h-8v8H60v8h20v8h8v-8h16.684a25.9 25.9 0 0 1 3.36-8"/></svg>