<svg xmlns="http://www.w3.org/2000/svg" viewBox="0 0 192 192"><path d="M144 108c-3.721 0-7.294.645-10.619 1.819L118.471 80H136v-8h-30.472l8 16H77.616l-3.5-8H80v-8H56v8h9.383l5.566 12.72-10.408 17.843A31.8 31.8 0 0 0 48 108c-17.645 0-32 14.355-32 32s14.355 32 32 32c16.29 0 29.765-12.237 31.741-28H94.29l25.508-43.459 6.431 12.862C117.656 119.15 112 128.926 112 140c0 17.645 14.355 32 32 32s32-14.355 32-32-14.355-32-32-32m-96 56c-13.233 0-24-10.766-24-24s10.767-24 24-24c2.98 0 5.832.55 8.467 1.547L41.037 144H71.66c-1.91 11.336-11.79 20-23.66 20m23.66-28H54.964l8.408-14.413A24 24 0 0 1 71.66 136m8.081 0c-1.09-8.69-5.671-16.305-12.298-21.392l7.475-12.814L89.81 135.83l-.099.169h-9.969zm26.889-28.827-7.18 1.197-7.26 12.94L81.116 96h32.072zM144 164c-13.233 0-24-10.766-24-24 0-7.944 3.882-14.994 9.845-19.365l10.577 21.154 7.156-3.578-10.583-21.165A24 24 0 0 1 144 116c13.233 0 24 10.766 24 24s-10.767 24-24 24M68 28v-8c17.645 0 32 14.243 32 31.75v2.772l7.219-7.243 5.666 5.648L96.007 69.86 78.94 52.83l5.65-5.664L92 54.56v-2.81C92 38.654 81.233 28 68 28"/></svg>