<svg xmlns="http://www.w3.org/2000/svg" viewBox="0 0 192 192"><path d="M160 176H32v-8h128zM81.323 99.212l-5.883 2.566c.647 2.362.999 4.845.999 7.413 0 15.464-12.536 28-28 28s-28-12.536-28-28 12.536-28 28-28c10.052 0 18.863 5.3 23.802 13.256l8.137-3.549zm-13.325 5.812-17.958 7.832-3.198-7.332 17.948-7.828c-3.62-5.139-9.587-8.505-16.351-8.505-11.046 0-20 8.954-20 20s8.954 20 20 20 20-8.954 20-20c0-1.43-.156-2.822-.441-4.167m-5.514-42.361 11.974-14.099c2.586-3.062 7.077-3.736 10.446-1.563l24.244 15.625 4.334-6.725-24.244-15.625c-6.738-4.344-15.719-2.999-20.885 3.117L56.386 57.484a7.95 7.95 0 0 0-1.739 6.783 7.95 7.95 0 0 0 4.266 5.554l24.484 12.217 4.922 43.312 7.949-.903-5.413-47.627zm36.423-24.601c4.942 2.466 10.947.458 13.413-4.483 2.466-4.942.459-10.947-4.483-13.413s-10.947-.459-13.413 4.483-.458 10.947 4.483 13.413m62.923 84.29c0 15.464-12.536 28-28 28s-28-12.536-28-28c0-11.244 6.631-20.935 16.194-25.389l-4.153-13.69-21.205 9.248-.945-8.315 19.812-8.641-3.041-10.023 19.45-5.769 2.274 7.67-11.732 3.479 7.202 23.737a28 28 0 0 1 4.145-.307c15.464 0 28 12.536 28 28Zm-8 0c0-11.046-8.954-20-20-20-.602 0-1.195.038-1.784.09l5.847 19.271-7.655 2.323-5.859-19.311c-6.278 3.374-10.549 9.999-10.549 17.626 0 11.046 8.954 20 20 20s20-8.954 20-20Z"/></svg>