<svg xmlns="http://www.w3.org/2000/svg" viewBox="0 0 192 192"><path d="m132 32-20.008 3.922L92 32v.045L84 32v76c-21.183.063-31.935.87-37.025 6.207-2.138 2.243-3.138 5.16-2.971 8.671.56 11.778 15.371 12.747 28.439 13.602 9.038.591 19.282 1.261 22.531 5.064.549.643 1.255 1.767 1.042 4.092-.149 1.627-.374 4.085-8.66 5.423-7.396 1.193-18.918 1.118-34.865 1.011C47.44 152.037 32 152 32 152v8s15.403.037 20.438.07c4.285.028 8.256.055 11.932.055 10.335 0 18.319-.208 24.262-1.167 6.187-.999 14.509-3.39 15.352-12.591.362-3.952-.623-7.322-2.926-10.019-5.442-6.369-16.957-7.122-28.092-7.85-9.726-.636-20.749-1.357-20.97-5.999-.079-1.648.345-2.326.77-2.771C56.059 116.275 69.674 116 87.131 116h4.87V84.721l20.065 3.345 20.049-4.01L160 88.008V40zm20 46.794L132 76V60h-20v20l-20-3.389V60h20V44l.008.078L132 40v20h20z"/></svg>