<svg xmlns="http://www.w3.org/2000/svg" viewBox="0 0 192 192"><path d="M108.19 77.287a4 4 0 1 1 5.877 5.426 4 4 0 0 1-5.877-5.426M70.477 90.733a4 4 0 1 0 7.802 1.761 4 4 0 0 0-7.802-1.761m25.522-58.734c-35.29 0-64 28.71-64 64 0 4.69.51 9.27 1.47 13.67l7.83-1.7c-.86-3.86-1.3-7.86-1.3-11.97 0-30.88 25.12-56 56-56s56 25.12 56 56-25.12 56-56 56c-17.98 0-34.01-8.52-44.26-21.73l-8.54 1.85c11.53 16.82 30.9 27.88 52.8 27.88 35.29 0 64-28.71 64-64s-28.71-64-64-64m0 96c-5.59 0-10.84-1.44-15.42-3.97l-10.63 2.3c7 6.02 16.11 9.67 26.05 9.67 22.06 0 40-17.94 40-40s-17.94-40-40-40-40 17.95-40 40c0 2.95.32 5.83.93 8.59l7.82-1.7a32 32 0 0 1-.75-6.89c0-17.64 14.36-32 32-32s32 14.36 32 32-14.35 32-32 32m-48.99-4.9-8.12 1.76-12.86 2.79c-.28.06-.57.1-.85.1-1.84 0-3.5-1.28-3.9-3.16-.47-2.16.9-4.29 3.06-4.75l11.34-2.46 7.89-1.71 15.87-3.45 8.03-1.74 6.55-1.42c2.78-.62 5.36-1.98 7.46-3.93l3.88-3.61c-.49-.91-.84-1.87-1.07-2.86-.39-1.72-.39-3.52.01-5.3.7-3.13 2.58-5.79 5.29-7.5 2.71-1.72 5.93-2.27 9.05-1.57a12 12 0 0 1 7.51 5.3c1.49 2.36 2.1 5.1 1.77 7.83a11.97 11.97 0 0 1-5.51 8.73 11.96 11.96 0 0 1-6.39 1.85c-.88 0-1.77-.09-2.66-.29-.75-.17-1.47-.41-2.16-.71l-4.27 3.98a24.07 24.07 0 0 1-11.19 5.89l-3.33.72-8.76 1.9zm45.12-26.13c.09.41.26.8.49 1.17.57.9 1.46 1.53 2.5 1.76 1.05.24 2.12.05 3.02-.52a3.96 3.96 0 0 0 1.76-2.5c.12-.51.13-1.02.04-1.52a3.96 3.96 0 0 0-3.06-3.26c-.29-.07-.59-.1-.89-.1-.74 0-1.48.21-2.12.62-.91.57-1.54 1.46-1.77 2.5-.14.62-.13 1.25.03 1.85m21.668 2.151a4 4 0 1 0 7.802 1.761 4 4 0 0 0-7.802-1.761M91.188 78.661a4 4 0 1 0-2.378-7.64 4 4 0 0 0 2.378 7.64m15.661 36.888a4.015 4.015 0 0 0-5.14-2.39 4.01 4.01 0 0 0-2.38 5.14c.21.57.53 1.06.94 1.46a4 4 0 0 0 4.19.92 3.97 3.97 0 0 0 2.54-2.93c.15-.71.11-1.47-.15-2.2"/></svg>