<svg xmlns="http://www.w3.org/2000/svg" viewBox="0 0 192 192"><path d="M152.022 48h-40.061c2.523-3.347 4.038-7.495 4.038-12 0-11.028-8.972-20-20-20s-20 8.972-20 20c0 4.505 1.515 8.653 4.038 12H39.978L16.084 176h159.832zM84 36c0-6.617 5.383-12 12-12s12 5.383 12 12-5.383 12-12 12-12-5.383-12-12M46.622 56h98.756l20.906 112H25.716zM144 132h-8c0-22.056-17.944-40-40-40s-40 17.944-40 40h-8c0-26.467 21.533-48 48-48s48 21.533 48 48m-16 0h-8c0-13.233-10.767-24-24-24v-8c17.645 0 32 14.355 32 32m-24.279-2.064c.176.66.279 1.349.279 2.064a8 8 0 1 1-8-8c.715 0 1.405.103 2.064.279l7.107-7.107 5.657 5.657z"/></svg>