<svg xmlns="http://www.w3.org/2000/svg" viewBox="0 0 192 192"><path fill="#070707" d="m158.5 136.29 1.58 7.84-19.61 3.95-3.95-19.61 7.84-1.58 1.26 6.28C153.65 122.5 158 109.59 158 96c0-34.19-27.81-62-62-62-9.14 0-17.95 1.95-26.2 5.81l-3.39-7.25C75.73 28.21 85.68 26 96 26c38.6 0 70 31.4 70 70 0 15.15-4.78 29.56-13.63 41.52zM96 158c-34.19 0-62-27.81-62-62 0-13.59 4.35-26.5 12.37-37.17l1.26 6.28 7.84-1.58-3.95-19.61-19.61 3.95 1.58 7.84 6.13-1.23C30.78 66.44 26 80.85 26 96c0 38.6 31.4 70 70 70 10.32 0 20.27-2.21 29.59-6.56l-3.39-7.25c-8.25 3.86-17.06 5.81-26.2 5.81"/></svg>