<svg xmlns="http://www.w3.org/2000/svg" viewBox="0 0 192 192"><path d="M48 16v16H32v8h16v32H32v8h16v32H32v8h16v32H32v8h16v16h112V16zm8 56h17.188L56 101.283zm96 96H56v-50.913l23.799-40.546 6.431 12.861c-8.573 5.747-14.229 15.523-14.229 26.597 0 17.645 14.355 32 32 32s32-14.355 32-32-14.355-32-32-32c-3.721 0-7.294.645-10.619 1.818L78.473 55.999h17.528v-8H65.529l8 16H56.001V24h96v144ZM96.995 93.046A24 24 0 0 1 104 92c13.234 0 24 10.766 24 24s-10.766 24-24 24-24-10.766-24-24c0-7.944 3.882-14.995 9.845-19.365l10.577 21.154 7.155-3.578-10.583-21.165Z"/></svg>