<svg xmlns="http://www.w3.org/2000/svg" viewBox="0 0 192 192"><path d="M169.67 123.95h-57.59V116H80.07v7.95H22.33c-3.49 0-6.33 2.84-6.33 6.33v11.4c0 3.49 2.84 6.33 6.33 6.33h57.74v28h8v-52h16.01v52h8v-28h57.59c3.49 0 6.33-2.84 6.33-6.33v-11.4c0-3.49-2.84-6.33-6.33-6.33M24 140v-8.05h56.07V140zm144 0h-55.92v-8.05H168zM53.05 68h85.89c4.99 0 9.05-3.59 9.05-8V24c0-4.41-4.06-8-9.05-8H53.05C48.06 16 44 19.59 44 24v36c0 4.41 4.06 8 9.05 8M52 24.28c.17-.12.54-.28 1.05-.28h85.89c.51 0 .88.16 1.05.28v35.44c-.17.12-.54.28-1.05.28H53.05c-.51 0-.88-.16-1.05-.28zM60 48V36.04c0-2.21 1.79-4 4-4s4 1.79 4 4V48c0 2.21-1.79 4-4 4s-4-1.79-4-4m40.07 28v20.8l7.96-7.95 5.66 5.66-17.61 17.61L78.46 94.5l5.66-5.66 7.96 7.95V76z"/></svg>