<svg xmlns="http://www.w3.org/2000/svg" viewBox="0 0 192 192"><path d="M160 64.138V128h-8V68.127L96 25.944 40 68.127V128h-8V64.138l64-48.209zm-4.006 87.868C155.994 165.236 145.23 176 132 176s-23.994-10.764-23.994-23.994c0-7.765 3.711-14.677 9.449-19.065l-3.819-7.261-15.163 30.326H85.38C83.469 167.338 73.593 176 61.726 176c-13.23 0-23.994-10.764-23.994-23.994s10.764-23.994 23.994-23.994c3.107 0 6.075.6 8.803 1.68l6.75-12.198-4.734-9.495h-8.543v-8h24v8h-6.517l2.857 5.73h23.01l-7.222-13.73h23.761v8h-10.514l11.155 21.209a23.9 23.9 0 0 1 7.469-1.197c13.23 0 23.994 10.764 23.994 23.994Zm-78.619-18.165c4.145 3.576 7.056 8.539 8.004 14.164h7.113l-10.88-21.82zm-7.839 14.165h7.656a15.95 15.95 0 0 0-3.822-6.928zm7.656 8H55.966l10.639-19.226a15.9 15.9 0 0 0-4.881-.768c-8.819 0-15.994 7.175-15.994 15.994S52.905 168 61.724 168c7.436 0 13.684-5.108 15.467-11.994Zm29.474-34.276H88.329l9.156 18.362zm41.328 30.276c0-8.819-7.175-15.994-15.994-15.994a16 16 0 0 0-3.66.439l7.202 13.693-7.08 3.724-7.197-13.683c-3.221 2.928-5.259 7.136-5.259 11.821 0 8.819 7.175 15.994 15.994 15.994s15.994-7.175 15.994-15.994"/></svg>