<svg xmlns="http://www.w3.org/2000/svg" viewBox="0 0 192 192"><path d="M100 32h-8V16.025h8zm-15.293 3.171L73.819 24.284l-5.656 5.657 10.888 10.888zm39.13-5.23-5.656-5.657-10.888 10.888 5.656 5.657zm26.455 95.152-16.923 16.923c-7.347 7.347-17.764 12.206-28.853 13.671l1.655 1.654-18.788 18.789-50.375-50.374 18.789-18.788 1.8 1.8c1.33-5.969 3.941-12.293 7.889-19.122-1.285-4.566-3.023-10.312-4.577-15.446-2.69-8.893-3.646-12.113-3.788-13.33-.177-1.495-.331-4.384.622-6.918 2.423-6.856 10.75-10.125 17.434-7.454 3.114 1.17 5.896 3.864 7.438 7.205l10.474 22.678 37.573-37.573c7.418-7.45 20.098-2.613 20.447 7.819a11.9 11.9 0 0 1-3.471 8.777l-17.517 17.517c4.196 1.051 8.145 4.191 10.111 8.173l13.173 25.812a15.99 15.99 0 0 1-3.113 18.187m-55.436 32.249-39.06-39.06-7.475 7.474 39.061 39.06zm51.355-46.94-13.105-25.677c-2.331-4.77-9.042-5.86-12.744-2.032l-.006-.006-5.656-5.657 27.283-27.283c1.577-1.509 1.482-4.249-.193-5.654-1.497-1.314-3.95-1.148-5.471.373L90.636 90.149 75.354 57.058c-.662-1.431-1.836-2.637-2.991-3.071-3.893-1.456-8.214 1.086-7.296 5.947 1.709 6.532 7.085 23.325 9.039 30.87-5.464 8.708-9.113 17.834-9.474 24.999l32.356 32.356c11.685.105 23.203-4.276 30.726-11.799l16.923-16.923a7.98 7.98 0 0 0 1.574-9.035"/></svg>