<svg xmlns="http://www.w3.org/2000/svg" viewBox="0 0 192 192"><path d="m16.097 77.858-.342-1.524.78-1.352C19.545 69.764 46.63 24 70.166 24c13.034 0 38.334 9.416 56.039 17.479a319 319 0 0 1 5.01 2.335l-6.03 6.03C104.478 40.213 81.176 32 70.165 32c-7.577 0-18.273 8.14-30.118 22.919-7.656 9.553-13.685 19.236-15.783 22.715 1.17 4.835 5.176 20.538 11.981 38.88 1.334 3.596 5.01 7.562 10.625 11.644l-5.737 5.738c-6.092-4.638-10.514-9.548-12.388-14.6C20.38 96.749 16.268 78.62 16.097 77.859zm155.287-6.493c-2.426-4.989-9.734-10.597-18.058-15.72l-5.817 5.817c8.556 5.076 14.802 9.81 16.593 13.229 6.763 19.199 2.771 65.918 2.73 66.39l-.008.108c-.13 1.98-1.933 19.335-25.126 18.799-13.886-.32-38.793-6.31-60.57-14.565a225 225 0 0 1-12.447-5.133l-6.103 6.102c26.927 12.61 62.32 21.21 78.935 21.594q.63.015 1.245.014c29.147 0 31.869-24.209 32.042-26.221h.001c.176-2.004 4.217-49.31-3.252-70.022zM72 84h8v-8h19.03l7.999-8H80v-8h-8v8H56v8h16zm56 0h-3.03L120 88.97V92h-3.03l-8 8H120v8h8v-8h8v-8h-8zm-44.97 8H56v8h19.03zM112 108h-8v8H92.97l-8 8H104v8h8v-8h24v-8h-24zm62.829-85.171-5.658-5.658-152 152 5.658 5.658z"/></svg>