<svg xmlns="http://www.w3.org/2000/svg" viewBox="0 0 192 192"><path d="M139.246 44h-28.289a17.9 17.9 0 0 0 3.044-10c0-9.925-8.075-18-18-18s-18 8.075-18 18c0 3.698 1.124 7.138 3.044 10H52.756l-17.684 84h121.859zM86 34c0-5.514 4.486-10 10-10s10 4.486 10 10-4.486 10-10 10-10-4.486-10-10M59.246 52h73.509l14.316 68H44.93zm-7.381 116.007v-5.045H39.437v-4.5l11.654-16.488h6.029v16.699h3.199v4.289H57.12v5.045h-5.256Zm.246-20.425-7.629 11.092h7.629zm14.045 14.009q1.389 0 2.391 1.02.967.984.967 2.373c0 1.389-.322 1.717-.967 2.373q-1.002 1.002-2.408 1.002-1.424 0-2.426-.984-.967-.984-.967-2.391c0-1.407.322-1.734.967-2.391q.984-1.002 2.443-1.002m20.092-6.222q-1.916 3.129-5.783 3.129-3.445 0-5.607-2.162-2.127-2.11-2.127-5.555 0-4.131 2.76-6.645 2.514-2.268 6.469-2.268 5.343 0 7.91 4.201 1.898 3.129 1.898 8.561 0 7.593-3.604 11.162-2.655 2.619-6.943 2.619-3.867 0-6.416-2.109-1.195-.984-2.18-2.918l4.43-2.268q.597 1.371 1.248 1.934 1.055.932 2.76.932 2.32 0 3.568-1.652 1.46-1.969 1.617-6.961m-4.272-9.176q-1.564 0-2.584.984-1.248 1.195-1.248 3.076 0 1.987 1.248 3.199 1.02.984 2.584.984 1.547 0 2.566-.984 1.248-1.213 1.248-3.146 0-1.899-1.248-3.129-1.002-.984-2.566-.984m21.105 21.814v-27.105h5.502v27.105zm16.171-15.978q2.109-3.322 5.748-3.322 3.2 0 5.256 2.355 2.426 2.76 2.426 7.471 0 5.361-2.848 8.033-1.986 1.846-4.922 1.846-3.832 0-5.66-3.322v2.918h-5.502v-27.105h5.502zm3.973.967q-2.232 0-3.287 1.846-.826 1.407-.826 3.779 0 3.182 1.477 4.57 1.002.932 2.549.932 3.938 0 3.938-5.502 0-2.496-.826-3.885-1.037-1.74-3.023-1.74Zm25.242 1.441a8 8 0 0 0-4.957-1.67q-2.426 0-2.426 1.477 0 .827.791 1.248.686.369 2.9.756 2.953.528 4.377 1.371 2.443 1.476 2.443 4.553 0 3.937-3.691 5.449-1.899.79-4.605.791-3.48 0-5.924-1.16-1.178-.562-2.373-1.582l2.549-3.568q2.444 2.25 5.607 2.25 3.111 0 3.111-1.793 0-.809-.703-1.178-.492-.263-3.287-.791-2.513-.492-3.92-1.371-2.426-1.512-2.426-4.553 0-3.27 2.725-4.834 1.951-1.125 4.957-1.125 4.307 0 7.365 2.232z"/></svg>