<svg xmlns="http://www.w3.org/2000/svg" viewBox="0 0 192 192"><path d="M86.82 103.98h4.09V124H86l-7.62-13.89V124H74.3v-20.02h5.1l7.42 13.58zm26.29 5.01c-1.85 0-3.22.73-4.54 2.44-.84-1.65-2.07-2.44-3.89-2.44-1.85 0-3.22.84-4.23 2.55v-2.18h-4.28V124h4.28v-8.88c0-1.74.9-2.8 2.35-2.8 1.32 0 1.99.87 1.99 2.55V124h4.28v-8.82c0-1.76.92-2.86 2.38-2.86 1.29 0 1.96.87 1.96 2.6V124h4.28v-9.46c.01-3.5-1.67-5.55-4.58-5.55m42.94-76.94-.01 13.8C140.9 26.56 119.86 16.02 96.06 16h-.07C50.44 16 16.06 50.38 16 96c.02 45.61 34.42 80 80 80h4v-40h-8v31.9c-18.75-.92-35.67-8.27-48-20.95-12.89-13.25-19.99-31.35-20-50.94.03-20.35 7.52-38.82 21.1-52.02C58.35 31.09 76.42 24 95.99 24h.06c21.75.02 40.98 9.93 54.65 28.04l-14.68-.01-.01 8 28 .02.02-28zM92.96 72.7c-1.96-3.48-4.72-5.12-8.64-5.12-7.24 0-11.92 6.04-11.92 15.4 0 4.56.96 7.88 3 10.32 2.04 2.48 4.88 3.76 8.24 3.76 6.16 0 10.28-3.96 10.28-9.84 0-5.48-3.6-9.24-8.84-9.24q-4.38 0-6.6 3.48c.4-5.92 2.36-8.96 5.8-8.96 1.88 0 2.92.72 4.28 3.04zm-9.48 9.8c2.64 0 4.44 1.96 4.44 4.88s-1.8 4.88-4.44 4.88-4.44-1.96-4.44-4.8c0-3 1.76-4.96 4.44-4.96m22.36-9.56h12.08v-4.92h-16.6l-1.8 16.6h5.28c.88-1.64 2.2-2.4 4.08-2.4 2.72 0 4.44 1.88 4.44 4.92 0 3.12-1.72 5-4.6 5-2.44 0-3.92-1.2-4.68-3.72l-5.8 1.6.16.4c.6 1.76 1.04 2.48 2.2 3.64 2 1.96 4.88 3 8.4 3 6.52 0 10.6-3.84 10.6-10 0-5.68-3.48-9.36-8.96-9.36-2.4 0-4.32.72-5.6 2.16z"/></svg>