<svg xmlns="http://www.w3.org/2000/svg" viewBox="0 0 192 192"><path d="M67.82 128H36.47c-2.24 0-4.48-1.76-4.48-4V28c0-2.24 1.76-4 4-4h47.97c2.24 0 4 1.76 4 4v37.76c2.32-2.4 5.04-4.4 8-6V28c0-6.64-5.36-12-11.99-12H35.99C29.36 16 24 21.36 24 28v96c0 6.64 5.36 12 11.99 12h26.63zM168 154.72V176h-22.47l-5.52-11.04v-7.2l-7.28-7.2-7.28-14.72c-3.28-.32-6.32-1.28-9.44-3.12-2.88 1.68-6.16 2.8-9.67 3.12L82.29 176H61.58l-6-12.08 5.52-10.96 7.68-3.84 3.68-11.04 10.71-14.32c-3.12-5.52-3.92-11.92-2.32-18.08 1.28-4.72 3.84-8.8 7.44-11.92-2.4-15.92 9.99-29.84 25.67-29.84 14.23 0 26.46 11.6 25.98 27.2 3.6 2.08 6.64 5.04 8.8 8.8 4.32 7.44 4.32 16.48 0 24zM96.04 89.36c6.56-2.32 13.83-1.68 19.99 1.84 4.88-2.8 10.39-3.84 15.91-2.88-.88-9.12-8.56-16.32-17.91-16.32s-17.59 7.76-17.99 17.36M90.12 120c3.92 6.8 12.07 9.6 19.19 7.04-7.44-9.28-6.8-21.68 0-30.16-8.72-3.12-18.39 1.92-20.79 10.96-1.12 4.16-.56 8.4 1.6 12.16m7.36 15.12c-3.44-.96-6.48-2.64-9.12-4.88l-8.79 11.68-4.32 12.96-8.32 4.16-2.48 5.04 2 4h11.27zm26.46-7.52c8.56 2.32 17.19-2.88 19.51-11.36 1.6-6-.4-12.24-5.04-16.24-1.52 4.4-4.16 8.16-7.84 11.2-1.68 1.44-4.24 1.2-5.6-.56-1.44-1.68-1.2-4.24.56-5.6 2.88-2.4 4.72-5.2 5.76-8.56-8.24-1.68-16.39 3.28-18.63 11.52-2.31 8.56 2.81 17.28 11.28 19.6m35.98 29.52-16.63-26.64c-2.64 2.16-5.68 3.84-9.27 4.8l5.2 10.56 8.72 8.56v8.64l2.48 4.96h9.52v-10.88zM64.01 40h-8c-2.21 0-4-1.79-4-4s1.79-4 4-4h8c2.21 0 4 1.79 4 4s-1.8 4-4 4"/></svg>