<svg xmlns="http://www.w3.org/2000/svg" viewBox="0 0 192 192"><path d="M80 72a43.8 43.8 0 0 0-14.992 2.633L48.753 39.992h23.248v-8H36.163L47.429 56H16.002v8H44.42l-28.418 37.323v13.221l36.435-47.87 5.338 11.377c-13.014 7.651-21.774 21.793-21.774 37.95 0 24.262 19.738 44 44 44s44-19.738 44-44-19.738-44-44-44Zm0 80c-19.851 0-36-16.149-36-36 0-12.959 6.885-24.337 17.186-30.678l16.892 35.998 7.242-3.398L68.426 81.92A35.8 35.8 0 0 1 79.999 80c19.851 0 36 16.149 36 36s-16.149 36-36 36Zm70-36c0 10.584-2.307 20.76-6.856 30.242l-7.213-3.46C139.958 134.388 142 125.377 142 116c0-22.049-11.881-42.622-31.007-53.688L115 55.387c21.589 12.492 35 35.718 35 60.613m26 0c0 14.52-3.163 28.475-9.4 41.476l-7.213-3.461C165.102 142.102 168 129.312 168 116c0-31.314-16.859-60.521-43.997-76.223l4.007-6.925C157.612 49.98 176 81.84 176 116"/></svg>