<svg xmlns="http://www.w3.org/2000/svg" viewBox="0 0 192 192"><path d="M91.6 95.6c.7 0 1.4 0 2 .1-4.7-5.6-10.8-10.1-17.8-12.7C83.2 77.8 88 69.2 88 59.4c0-2.5-.3-5-1-7.4h5c1.2 0 2.4-.6 3.2-1.6s1-2.3.7-3.5C90.8 28.4 76.4 16 60 16S29.2 28.4 24.1 47c-.3 1.2-.1 2.5.7 3.5s2 1.5 3.2 1.5h5c-.6 2.4-1 4.9-1 7.4 0 9.8 4.8 18.4 12.2 23.6C27.7 89.3 16 105.3 16 124h8c0-18.5 14-33.8 32-35.8V124h8V88.2c7.5.8 14.2 4 19.6 8.7 2.6-.8 5.2-1.3 8-1.3M86.4 44H66.8L78 31.5c3.5 3.3 6.4 7.5 8.4 12.5M48.6 26.8C52.1 25 56 24 60 24s7.9 1 11.4 2.8L60 39.6zM42 31.5 53.2 44H33.6c2-5 4.9-9.2 8.4-12.5M60 80c-11 0-20-9.2-20-20.6 0-2.5.5-5 1.3-7.4h37.3c.9 2.3 1.3 4.9 1.3 7.4C80 70.8 71 80 60 80m96 56c-6.9 0-13.1 3.6-16.7 8.9l-24.1-11.1-4.7-2.2c1-2.4 1.5-4.9 1.5-7.6s-.5-5.3-1.5-7.6l6.1-2.8 22.7-10.5c3.6 5.4 9.7 8.9 16.7 8.9 11 0 20-9 20-20s-9-20-20-20-20 9-20 20c0 1.2.1 2.5.3 3.6l-23.4 10.8-7 3.2c-1.7-1.7-3.7-3-5.9-4-2.4-1.1-5.1-1.7-8-1.7-.7 0-1.4 0-2 .1-10.1 1-18 9.5-18 19.9 0 11 9 20 20 20 5.4 0 10.3-2.2 13.9-5.7l4.6 2.1 25.9 11.9q-.3 1.8-.3 3.6c0 11 9 20 20 20s20-9 20-20C176 145 167 136 156 136m0-56c6.6 0 12 5.4 12 12s-5.4 12-12 12-12-5.4-12-12 5.4-12 12-12m-64 56c-6.6 0-12-5.4-12-12s5.4-12 12-12c.7 0 1.3.1 2 .2 5.5.9 9.7 5.6 10 11.3v.5c0 6.6-5.4 12-12 12m64 32c-6.6 0-12-5.4-12-12s5.4-12 12-12 12 5.4 12 12-5.4 12-12 12"/></svg>