<svg xmlns="http://www.w3.org/2000/svg" viewBox="0 0 192 192"><path d="M139.246 44h-28.289a17.9 17.9 0 0 0 3.044-10c0-9.925-8.075-18-18-18s-18 8.075-18 18c0 3.698 1.124 7.138 3.044 10H52.754L35.07 128h121.86zM86 34c0-5.514 4.486-10 10-10s10 4.486 10 10-4.486 10-10 10-10-4.486-10-10M59.246 52h73.509l14.316 68H44.93zM35.828 163.608c4.139-2.627 5.291-3.456 7.379-5.291 3.167-2.844 4.788-5.688 4.788-8.459 0-2.232-1.188-3.563-3.24-3.563-1.944 0-3.096 1.152-3.852 3.887l-5.04-1.224c1.332-4.788 4.248-7.091 9.143-7.091 5.436 0 8.783 3.096 8.783 8.063 0 3.348-1.439 6.299-4.463 9.179-1.476 1.44-3.06 2.556-6.155 4.464h10.907V168h-18.25zm28.474 1.369a3.38 3.38 0 0 1-3.384 3.383c-1.872 0-3.383-1.476-3.383-3.383s1.512-3.384 3.419-3.384c1.837 0 3.348 1.548 3.348 3.384M69.847 168c.504-8.243 3.815-15.982 9.071-21.309H66.283v-4.428h18.105v4.175c-5.04 5.22-8.171 13.354-8.387 21.562zm23.472-15.082c1.152-1.296 2.879-1.944 5.039-1.944 4.932 0 8.063 3.312 8.063 8.423 0 5.543-3.671 8.999-9.539 8.999-3.168 0-5.759-.936-7.559-2.7-1.044-1.044-1.44-1.692-1.98-3.275l-.144-.36 5.22-1.439c.684 2.268 2.016 3.347 4.211 3.347 2.591 0 4.139-1.691 4.139-4.499 0-2.736-1.548-4.428-3.995-4.428-1.692 0-2.88.684-3.672 2.16h-4.751l1.62-14.938h14.938v4.428H94.038zm29.447 9.755V168h-5.507v-27.104h5.507v15.622l5.903-7.343h5.975l-6.299 7.379L135.292 168h-6.119l-4.5-7.559zm30.923-9.719c.324.936.432 1.476.432 2.231 0 3.563-3.131 5.975-7.847 5.975-1.26 0-2.268-.144-3.42-.504q-.756.54-.756 1.296c0 1.008.648 1.368 2.556 1.368h4.751c4.355 0 6.767 1.835 6.767 5.219 0 4.248-3.708 6.659-10.187 6.659-5.615 0-8.927-1.764-8.927-4.824 0-1.547.972-2.699 3.06-3.599-1.44-.864-2.124-1.98-2.124-3.42 0-1.656.864-2.879 2.664-3.815-1.548-1.224-2.268-2.627-2.268-4.463 0-3.708 3.276-6.371 7.775-6.371 1.764 0 3.24.396 4.86 1.26l5.075-1.152v4.14zm-9.431 14.794c-.684 0-.936 0-1.26-.072-.792.54-1.152 1.08-1.152 1.835 0 1.476 1.332 2.124 4.284 2.124 3.348 0 5.075-.792 5.075-2.376 0-1.044-.756-1.512-2.592-1.512zm-.9-12.67c0 1.836 1.116 2.952 2.916 2.952s2.843-1.116 2.843-2.952-1.043-2.916-2.916-2.916c-1.763 0-2.843 1.116-2.843 2.916"/></svg>