<svg xmlns="http://www.w3.org/2000/svg" viewBox="0 0 192 192"><path d="M155.2 142.436c-5.577 0-10.513 2.745-13.567 6.944l-21.787-10.055a16.7 16.7 0 0 0 1.007-5.669c0-1.992-.367-3.896-1.007-5.67l21.787-10.055c3.053 4.198 7.99 6.944 13.567 6.944 9.253 0 16.781-7.528 16.781-16.782s-7.528-16.782-16.781-16.782-16.782 7.528-16.782 16.782c0 .825.08 1.629.195 2.422l-23.274 10.742c-2.982-2.712-6.929-4.382-11.268-4.382-9.253 0-16.781 7.528-16.781 16.782 0 9.253 7.528 16.781 16.781 16.781 4.339 0 8.286-1.669 11.268-4.381l23.274 10.742a17 17 0 0 0-.195 2.422c0 9.254 7.528 16.782 16.782 16.782 9.253 0 16.781-7.528 16.781-16.782s-7.528-16.785-16.781-16.785m-16.587-31.924-23.274 10.742M155.2 99.308c4.842 0 8.781 3.939 8.781 8.782s-3.939 8.782-8.781 8.782-8.782-3.939-8.782-8.782 3.939-8.782 8.782-8.782m-51.129 43.128c-4.842 0-8.781-3.939-8.781-8.781s3.939-8.782 8.781-8.782 8.782 3.939 8.782 8.782c.001 4.841-3.939 8.781-8.782 8.781M155.2 168c-4.843 0-8.782-3.939-8.782-8.782s3.939-8.782 8.782-8.782c4.842 0 8.781 3.939 8.781 8.782S160.042 168 155.2 168m-27.2-6.19v2.189c0 6.617-5.383 12-12 12H44c-6.617 0-12-5.383-12-12v-136c0-6.617 5.383-12 12-12h72c6.617 0 12 5.383 12 12v77.499l-8 3.692V27.999c0-2.206-1.794-4-4-4H44c-2.206 0-4 1.794-4 4v136c0 2.206 1.794 4 4 4h72c2.206 0 4-1.794 4-4v-5.882zM88 40H75a4 4 0 0 1 0-8h13a4 4 0 0 1 0 8m.492 75.798L70.153 70.835 63.516 88H48v-8h10.031l11.923-30.835 17.554 43.037L91.335 80H112v8H97.21z"/></svg>