<svg xmlns="http://www.w3.org/2000/svg" viewBox="0 0 192 192"><path d="M69.707 164a6.2 6.2 0 0 1-2.715-.648c-5.47-1.866-29.186-10.221-34.328-16.51-2.397-2.931-3.686-6.717-4.886-11.499-1.545-6.164-9.742-41.14-9.906-44.856-.323-7.315-1.297-23.373-1.85-32.295a11.53 11.53 0 0 1 6.543-11.144C37.81 39.71 56.737 30.72 60.333 29.562c3.393-1.093 7.372-1.586 12.523-1.561l.373.02 92.42 9.152a11.53 11.53 0 0 1 7.982 4.434 11.5 11.5 0 0 1 2.217 8.824l-6.178 37.644c-1.19 7.257-7.158 12.623-14.512 13.048-47.93 2.777-69.868 4.685-75.12 5.638l-8.781 14.803c.15 3.583 2.16 17.602 4.17 30.059l.024.173c.479 4.099.598 9.087-2.755 11.308a5.37 5.37 0 0 1-2.989.896m2.734-128c-4.092 0-7.168.375-9.656 1.177-2.36.76-16.442 7.304-36.75 17.08a3.57 3.57 0 0 0-2.028 3.441c.554 8.948 1.532 25.06 1.857 32.437.24 2.907 7.301 33.796 9.674 43.262.938 3.742 1.862 6.599 3.319 8.38 2.397 2.933 16.143 8.91 28.834 13.352a27 27 0 0 0-.176-2.32c-4.982-30.883-4.351-32.687-3.974-33.764l.132-.376 10.418-17.543c1.384-1.995 1.85-2.668 33.898-4.998 16.786-1.22 36.468-2.398 46.706-2.991 3.59-.208 6.5-2.823 7.08-6.358l6.178-37.644a3.41 3.41 0 0 0-.668-2.656 3.45 3.45 0 0 0-2.424-1.345L72.63 36zM96 48H72v8h24zm0 16H72v8h24zm0 16H72v8h24zm48.901 3.005c4.226-.263 7.68-3.644 8.032-7.861L154.17 60.4c.366-4.361-2.748-8.21-7.125-8.767l-30.576-3.607-.938 7.946 30.54 3.602c.078.01.134.08.128.157l-1.238 14.743a.6.6 0 0 1-.545.545l-16.653.987.474 7.986 16.664-.988z"/></svg>