<svg xmlns="http://www.w3.org/2000/svg" viewBox="0 0 192 192"><path d="m60.45 146.78-4.59 6.55C37.16 140.21 26 118.78 26 96c0-15.15 4.78-29.56 13.63-41.52l-6.13 1.23-1.58-7.84 19.61-3.95 3.95 19.61-7.84 1.58-1.26-6.28C38.35 69.5 34 82.41 34 96c0 20.18 9.89 39.16 26.45 50.78m66.55 2.91c-11.76 6.79-25.12 9.49-38.37 7.87l4.8-4.23-5.29-6-15.01 13.22 13.22 15.01 6-5.29-4.14-4.7c2.63.3 5.26.46 7.89.46 12.13 0 24.1-3.18 34.89-9.41 19.73-11.39 32.71-31.77 34.72-54.52l-7.97-.7c-1.77 20.15-13.26 38.2-30.74 48.29m0-107.38c11.77 6.79 20.77 17.01 26 29.3l-6.07-2.04-2.55 7.58 18.95 6.39 6.39-18.95-7.58-2.55-2 5.92C154.21 54.3 144.12 42.95 131 35.38c-19.73-11.39-43.87-12.44-64.58-2.81l3.38 7.25c18.34-8.53 39.72-7.6 57.2 2.49"/></svg>