<svg xmlns="http://www.w3.org/2000/svg" viewBox="0 0 192 192"><path d="M140 24h-32.7c-1.653-4.653-6.087-8-11.3-8s-9.647 3.347-11.3 8H52c-11.028 0-20 8.972-20 20v72c0 11.028 8.972 20 20 20h6.933l-14.397 37.096 7.458 2.895 4.653-11.99h78.705l4.653 11.99 7.458-2.895L133.066 136h6.933c11.028 0 20-8.972 20-20V44c0-11.028-8.972-20-20-20Zm-44 0c2.206 0 4 1.794 4 4s-1.794 4-4 4-4-1.794-4-4 1.794-4 4-4M40 55.914h52.086v36.172H40zM59.752 156l7.762-20h56.971l7.762 20zM152 116c0 6.617-5.383 12-12 12H52c-6.617 0-12-5.383-12-12V99.914h112zm0-23.914H99.914V55.914H152zm0-44H40V44c0-6.617 5.383-12 12-12h32.7c1.653 4.653 6.087 8 11.3 8s9.647-3.347 11.3-8H140c6.617 0 12 5.383 12 12zM60 114a6 6 0 1 1 12 0 6 6 0 0 1-12 0m60 0a6 6 0 1 1 12 0 6 6 0 0 1-12 0"/></svg>