<svg xmlns="http://www.w3.org/2000/svg" viewBox="0 0 192 192"><path d="M160 120c-7.439 0-13.69 5.111-15.473 12H124v-12.081h12v-48h-12V60h20.527c1.783 6.889 8.034 12 15.473 12 8.823 0 16-7.178 16-16s-7.178-16-16-16c-7.439 0-13.69 5.111-15.473 12H116v19.919h-16V47.474c6.889-1.783 12-8.034 12-15.473 0-8.822-7.178-16-16-16s-16 7.178-16 16c0 7.439 5.111 13.69 12 15.473v24.445H76V52H47.473C45.69 45.111 39.439 40 32 40c-8.822 0-16 7.178-16 16s7.178 16 16 16c7.439 0 13.69-5.111 15.473-12H68v11.919H56v48h12V132H47.473c-1.783-6.889-8.034-12-15.473-12-8.822 0-16 7.178-16 16s7.178 16 16 16c7.439 0 13.69-5.111 15.473-12H76v-20.081h16.128v24.608c-6.889 1.783-12 8.034-12 15.473 0 8.822 7.178 16 16 16s16-7.178 16-16c0-7.439-5.111-13.69-12-15.473v-24.608H116V140h28.527c1.783 6.889 8.034 12 15.473 12 8.823 0 16-7.178 16-16s-7.178-16-16-16m0-72c4.412 0 8 3.589 8 8s-3.589 8-8 8-8-3.589-8-8 3.589-8 8-8M88 32c0-4.411 3.589-8 8-8s8 3.589 8 8-3.589 8-8 8-8-3.589-8-8M32 64c-4.411 0-8-3.589-8-8s3.589-8 8-8 8 3.589 8 8-3.589 8-8 8m0 80c-4.411 0-8-3.589-8-8s3.589-8 8-8 8 3.589 8 8-3.589 8-8 8m72.128 16c0 4.411-3.589 8-8 8s-8-3.589-8-8 3.589-8 8-8 8 3.589 8 8M64 79.919h64v32H64zM160 144c-4.411 0-8-3.589-8-8s3.589-8 8-8 8 3.589 8 8-3.589 8-8 8"/></svg>