<svg xmlns="http://www.w3.org/2000/svg" viewBox="0 0 192 192"><path d="M73.633 162.96c0 3.456-2.424 5.376-6.768 5.376-3.6 0-5.809-1.273-7.153-4.105l3.312-1.416c.72 1.752 1.872 2.497 3.792 2.497s3.073-.792 3.073-2.113c0-1.152-.624-1.608-3.12-2.184-2.713-.624-3.553-.912-4.345-1.416-1.32-.84-1.944-2.016-1.944-3.672 0-3.264 2.304-5.257 6.336-5.257 2.665 0 4.801.96 6.385 3.073l-3.12 1.728c-1.008-1.392-2.04-1.777-3.24-1.777-1.8 0-2.689.673-2.689 1.848 0 1.08.744 1.585 2.976 2.017 2.329.48 3.577.888 4.513 1.464 1.344.888 1.992 2.136 1.992 3.936zm15.624-1.2c0 4.008-2.016 6.576-5.137 6.576-1.704 0-3-.72-3.816-2.136v6.24h-3.672v-16.921h3.672v1.896c.96-1.488 2.184-2.208 3.84-2.208 3.073 0 5.113 2.616 5.113 6.552zm-3.744.071c0-2.472-.912-3.768-2.64-3.768-1.681 0-2.665 1.392-2.665 3.744s.96 3.672 2.688 3.672 2.617-1.224 2.617-3.648m18.024-.096v.984h-8.52c.12 1.92 1.271 2.905 2.975 2.905 1.032 0 2.065-.433 2.472-1.296l2.88 1.104c-1.008 1.92-2.544 2.904-5.52 2.904-3.864 0-6.504-2.616-6.504-6.433 0-3.936 2.616-6.696 6.336-6.696 3.673 0 5.88 2.448 5.88 6.528zm-3.577-1.248c-.191-1.8-.864-2.568-2.328-2.568-1.44 0-2.208.792-2.544 2.568zm17.76 1.248v.984h-8.52c.12 1.92 1.272 2.905 2.976 2.905 1.032 0 2.064-.433 2.472-1.296l2.88 1.104c-1.008 1.92-2.544 2.904-5.52 2.904-3.864 0-6.505-2.616-6.505-6.433 0-3.936 2.617-6.696 6.337-6.696 3.672 0 5.88 2.448 5.88 6.528m-3.576-1.248c-.192-1.8-.864-2.568-2.328-2.568-1.44 0-2.209.792-2.545 2.568zm14.472-10.489h3.672v18.074h-3.672v-1.992c-.816 1.488-2.089 2.256-3.793 2.256-3.144 0-5.136-2.544-5.136-6.553s2.016-6.576 5.136-6.576c1.728 0 2.952.696 3.793 2.16zm.12 11.81c0-2.4-1.008-3.745-2.76-3.745-1.633 0-2.545 1.344-2.545 3.744 0 2.424.864 3.672 2.592 3.672s2.713-1.32 2.713-3.672zM96 16c-44.112 0-80 35.888-80 80 0 21.368 8.321 41.458 23.431 56.569l2.829 2.828 14.142-14.142-5.657-5.657-8.409 8.409C31.37 131.779 25.013 116.4 24.12 100H36v-8H24.117c.927-16.844 7.672-32.158 18.252-43.974l8.376 8.376 5.657-5.657-8.376-8.376C59.842 31.79 75.156 25.044 92 24.117V36h8V24.117c16.844.927 32.158 7.672 43.974 18.252l-8.376 8.376 5.657 5.657 8.376-8.376c10.58 11.816 17.325 27.13 18.252 43.974H156v8h11.88c-.893 16.4-7.25 31.779-18.216 44.007l-8.41-8.41-5.656 5.658 14.142 14.142 2.829-2.828C167.679 137.458 176 117.369 176 96c0-44.112-35.888-80-80-80m-21.77 93.44h-4.648l-4.592 5.712V103h-4.284v21.084h4.284v-4.144l1.484-1.736 3.5 5.88h4.76l-5.404-8.904zm16.1 2.072c-.84-1.652-2.071-2.436-3.892-2.436-1.847 0-3.22.84-4.228 2.548v-2.184h-4.283v14.644h4.283v-8.876c0-1.736.896-2.8 2.352-2.8 1.316 0 1.989.868 1.989 2.548v9.128h4.283v-8.82c0-1.764.925-2.856 2.38-2.856 1.288 0 1.96.868 1.96 2.604v9.072h4.284v-9.464c0-3.5-1.68-5.544-4.592-5.544-1.848 0-3.22.728-4.536 2.436m15.568 16.716 8.176-25.872h-3.864l-8.204 25.872zm16.24-12.768c0-1.932.98-3.052 2.687-3.052 1.485 0 2.185.868 2.185 2.772v8.904h4.284v-9.464c0-3.528-1.68-5.544-4.62-5.544-2.072 0-3.557.868-4.537 2.66V103h-4.283v21.084h4.283v-8.624zM91.136 67.705V86.26h3.559v4.76h-3.56v5.599h-5.838v-5.6H71.5V86.02l12.918-18.316h6.719zm-5.56 6.198L77.1 86.261h8.479V73.903zm23.16 18.238c-2.439 0-3.919-1.2-4.678-3.72l-5.8 1.6.16.4c.6 1.76 1.04 2.48 2.2 3.639 2 1.96 4.88 3 8.399 3 6.519 0 10.598-3.84 10.598-9.999 0-5.679-3.48-9.358-8.959-9.358-2.4 0-4.319.72-5.598 2.16l.8-6.92h12.077v-4.919h-16.597l-1.8 16.598h5.28c.88-1.64 2.2-2.4 4.079-2.4 2.72 0 4.439 1.88 4.439 4.92 0 3.119-1.72 4.999-4.6 4.999"/></svg>