<svg xmlns="http://www.w3.org/2000/svg" viewBox="0 0 192 192"><path d="M160 144c-7.417 0-13.68 5.123-15.47 12H64.3c-10.3 0-19.5-5.4-24.5-14 4.9-2.8 8.2-8 8.2-14s-3.3-11.3-8.2-14c5-8.6 14.2-14 24.5-14h63.5c.067 0 .133-.007.2-.007v-.003c13.876-.111 26.144-7.877 32.2-19.99 8.7-.1 15.8-7.3 15.8-16 0-8.8-7.1-15.9-15.8-16-6.056-12.112-18.324-19.878-32.2-19.99v-.003c-.067 0-.133-.007-.2-.007H47.5c-1.8-6.9-8.1-12-15.5-12-8.8 0-16 7.2-16 16s7.2 16 16 16c7.5 0 13.7-5.1 15.5-12h80.2c10.3 0 19.5 5.4 24.5 14-4.9 2.8-8.2 8-8.2 14s3.3 11.3 8.2 14c-5 8.6-14.2 14-24.5 14H64.3c-14 0-26.4 7.8-32.5 20-8.7.1-15.8 7.3-15.8 16 0 8.8 7.1 15.9 15.8 16 6.1 12.2 18.5 20 32.5 20h80.23c1.79 6.877 8.053 12 15.47 12 8.8 0 16-7.2 16-16s-7.2-16-16-16M32 40c-4.4 0-8-3.6-8-8s3.6-8 8-8 8 3.6 8 8-3.6 8-8 8m120 24c0-4.4 3.6-8 8-8s8 3.6 8 8-3.6 8-8 8-8-3.6-8-8M32 136c-4.4 0-8-3.6-8-8s3.6-8 8-8 8 3.6 8 8-3.6 8-8 8m128 32c-4.4 0-8-3.6-8-8s3.6-8 8-8 8 3.6 8 8-3.6 8-8 8"/></svg>