<svg xmlns="http://www.w3.org/2000/svg" viewBox="0 0 192 192"><path d="M139.246 44h-28.289a17.9 17.9 0 0 0 3.044-10c0-9.925-8.075-18-18-18s-18 8.075-18 18c0 3.698 1.124 7.138 3.044 10H52.756l-17.684 84h121.859zM86 34c0-5.514 4.486-10 10-10s10 4.486 10 10-4.486 10-10 10-10-4.486-10-10M59.246 52h73.509l14.316 68H44.93zm-3.83 102.367q4.482 1.969 4.482 6.346 0 4.06-3.533 6.135-2.655 1.564-6.504 1.564c-3.849 0-4.717-.521-6.486-1.564q-3.533-2.075-3.533-6.135 0-4.377 4.482-6.346-3.322-1.863-3.322-5.326 0-3.393 2.76-5.361 2.548-1.81 6.117-1.811c3.569-.001 4.43.604 6.117 1.811q2.76 1.969 2.76 5.361 0 3.445-3.34 5.326m-5.538 1.881q-1.81 0-3.023.984-1.283 1.055-1.283 2.9 0 1.968 1.283 3.041 1.196.984 3.041.984 1.81 0 3.006-.984 1.283-1.072 1.283-2.971 0-1.916-1.283-2.971-1.213-.984-3.023-.984Zm-.017-10.301q-1.599 0-2.619.984-.95.95-.949 2.355 0 1.495.949 2.443 1.002.984 2.637.984 1.617 0 2.619-.984.95-.95.949-2.408c-.001-1.458-.316-1.77-.949-2.391q-1.036-.984-2.637-.984Zm16.295 15.644q1.389 0 2.391 1.02.967.984.967 2.373c0 1.389-.322 1.717-.967 2.373q-1.002 1.002-2.408 1.002-1.424 0-2.426-.984-.967-.984-.967-2.391c0-1.407.322-1.734.967-2.391q.984-1.002 2.443-1.002m12.111-7.224q2.004-3.129 5.941-3.129 3.532 0 5.766 2.32 2.197 2.284 2.197 5.994 0 3.762-2.32 6.188-2.567 2.672-6.926 2.672-4.605 0-7.436-3.393-2.69-3.234-2.689-9.299 0-6.187 2.883-9.984 2.918-3.867 7.857-3.867 5.167 0 7.752 4.605l-3.955 2.549q-.667-1.143-1.143-1.635-1.072-1.09-2.707-1.09-2.936 0-4.289 3.357-.738 1.81-.932 4.711Zm4.5.931q-1.846 0-2.988 1.336-1.002 1.16-1.002 3.006 0 1.934 1.002 3.111 1.143 1.336 3.006 1.336 1.828 0 2.971-1.336 1.002-1.178 1.002-3.059 0-1.916-1.002-3.059-1.16-1.336-2.988-1.336Zm20.314 12.709v-27.105h5.502v27.105zm16.171-15.978q2.109-3.322 5.748-3.322 3.2 0 5.256 2.355 2.426 2.76 2.426 7.471 0 5.361-2.848 8.033-1.986 1.846-4.922 1.846-3.832 0-5.66-3.322v2.918h-5.502v-27.105h5.502v11.127Zm3.973.967q-2.232 0-3.287 1.846-.826 1.407-.826 3.779 0 3.182 1.477 4.57 1.002.932 2.549.932 3.938 0 3.938-5.502 0-2.496-.826-3.885-1.037-1.74-3.023-1.74Zm25.242 1.441a8 8 0 0 0-4.957-1.67q-2.426 0-2.426 1.477 0 .827.791 1.248.686.369 2.9.756 2.953.528 4.377 1.371 2.443 1.476 2.443 4.553 0 3.937-3.691 5.449-1.899.79-4.605.791-3.48 0-5.924-1.16-1.178-.562-2.373-1.582l2.549-3.568q2.444 2.25 5.607 2.25 3.111 0 3.111-1.793 0-.809-.703-1.178-.492-.263-3.287-.791-2.513-.492-3.92-1.371-2.426-1.512-2.426-4.553 0-3.27 2.725-4.834 1.951-1.125 4.957-1.125 4.307 0 7.365 2.232z"/></svg>