<svg xmlns="http://www.w3.org/2000/svg" viewBox="0 0 192 192"><path d="M135.3 115.77c3-5.94 4.7-12.66 4.7-19.77 0-24.26-19.74-44-44-44S52 71.74 52 96s19.74 44 44 44c7.11 0 13.83-1.7 19.78-4.7l28.45 25.61 16.68-16.68zM96 132c-19.85 0-36-16.15-36-36s16.15-36 36-36 36 16.15 36 36c0 4.69-.9 9.17-2.54 13.28l-22-24.44-.15-.15c-6.23-6.24-16.39-6.24-22.62 0-6.24 6.23-6.24 16.39 0 22.62l24.6 22.14c-4.11 1.65-8.6 2.55-13.29 2.55m47.94 17.89-21.13-19.02-6.07-5.46-26.46-23.82c-3.06-3.12-3.03-8.15.06-11.25 3.1-3.09 8.12-3.12 11.25-.06l23.82 26.46 5.46 6.07 19.02 21.13zm22.737-67.628c-3.67-18.879-14.47-35.199-30.415-45.953-12.093-8.156-26.047-12.361-40.319-12.32V24q-2.062.003-4.095.125-.48.031-.963.067a69 69 0 0 0-3.193.306l-.534.063c-18.13 2.326-34.069 11.853-45.87 27.483l14.677-.012.007 8-28 .022-.023-28 8-.006.011 13.796c11.823-15.066 27.254-24.786 44.784-28.33l-.009-.044a82 82 0 0 1 5.04-.798 81 81 0 0 1 4.192-.434c.49-.037.98-.075 1.473-.103 17.41-1.03 34.591 3.623 49.295 13.542 17.716 11.949 29.718 30.082 33.795 51.058 3.748 19.284.302 39.081-9.667 55.943l-5.629-6.264c8.004-14.683 10.655-31.629 7.443-48.152"/></svg>