<svg xmlns="http://www.w3.org/2000/svg" viewBox="0 0 192 192"><path d="M176 96c0 21.368-8.321 41.458-23.431 56.569l-2.829 2.828-14.143-14.142 5.657-5.657 8.409 8.409C160.63 131.779 166.987 116.4 167.88 100H156v-8h11.883c-.927-16.844-7.672-32.158-18.252-43.974l-8.376 8.376-5.657-5.657 8.376-8.376c-11.816-10.58-27.13-17.325-43.974-18.252V36h-8V24.117c-16.844.927-32.158 7.672-43.974 18.252l8.376 8.376-5.657 5.657-8.376-8.376C31.789 59.842 25.044 75.156 24.117 92H36v8H24.12c.893 16.4 7.25 31.779 18.216 44.007l8.409-8.409 5.657 5.657-14.142 14.142-2.829-2.828C24.321 137.458 16 117.368 16 96c0-44.112 35.888-80 80-80s80 35.888 80 80M74.23 109.44h-4.648l-4.592 5.712V103h-4.284v21.084h4.284v-4.144l1.484-1.736 3.5 5.88h4.76l-5.404-8.904zm16.1 2.072c-.84-1.652-2.072-2.436-3.892-2.436-1.848 0-3.22.84-4.228 2.548v-2.184h-4.284v14.644h4.284v-8.876c0-1.736.896-2.8 2.352-2.8 1.316 0 1.988.868 1.988 2.548v9.128h4.284v-8.82c0-1.764.924-2.856 2.38-2.856 1.288 0 1.96.868 1.96 2.604v9.072h4.284v-9.464c0-3.5-1.68-5.544-4.592-5.544-1.848 0-3.22.728-4.536 2.436m15.568 16.716 8.176-25.872h-3.864l-8.204 25.872zm16.239-12.768c0-1.932.98-3.052 2.688-3.052 1.484 0 2.184.868 2.184 2.772v8.904h4.284v-9.464c0-3.528-1.68-5.544-4.62-5.544-2.072 0-3.556.868-4.536 2.66V103h-4.284v21.084h4.284zm-51.769 47.091c-.792 1.872-1.872 2.688-3.768 2.688-2.712 0-4.225-2.064-4.225-5.761 0-3.672 1.488-5.736 4.128-5.736 1.776 0 2.833.744 3.625 2.544l3.384-1.392c-.528-1.128-.984-1.728-1.704-2.424-1.296-1.2-3.072-1.824-5.281-1.824-4.824 0-8.161 3.648-8.161 8.905 0 5.352 3.216 8.785 8.233 8.785 2.016 0 3.6-.48 4.873-1.44 1.032-.768 1.68-1.584 2.304-2.952zm6.24-7.032v12.553h3.672v-6.312c0-1.92 1.032-3.12 2.64-3.12.6 0 .984.12 1.512.432l.912-3.312c-.576-.36-1.128-.504-1.824-.504-1.416 0-2.424.744-3.24 2.4v-2.136zm18.24 12.553h3.672v-12.553h-3.672v7.369c0 1.608-.84 2.568-2.256 2.568-1.176 0-1.704-.72-1.704-2.304v-7.633h-3.672v8.065c0 3.024 1.416 4.752 3.888 4.752 1.752 0 2.928-.672 3.745-2.185v1.921zm9.168-18.482c-1.2 0-2.136.888-2.136 2.016 0 1.152.936 2.04 2.112 2.04 1.2 0 2.136-.912 2.136-2.04 0-1.104-.936-2.016-2.112-2.016m-1.848 5.929v12.553h3.672v-12.553zm16.848.936c-1.464-.864-2.904-1.248-4.92-1.248-3.216 0-5.112 1.488-5.112 3.96 0 2.184 1.296 3.384 4.225 3.937 1.752.336 1.872.384 2.208.552.312.168.456.408.456.768 0 .792-.72 1.2-2.064 1.2-1.488 0-2.544-.408-3.697-1.464l-1.704 2.376c1.512 1.296 3.072 1.8 5.497 1.8 3.504 0 5.521-1.512 5.521-4.152 0-1.368-.528-2.376-1.632-3.024-.696-.432-1.464-.672-2.904-.912-2.041-.384-2.473-.6-2.473-1.344 0-.672.504-.984 1.632-.984 1.224 0 2.352.36 3.528.936zm11.544 7.873c-.408.864-1.44 1.296-2.472 1.296-1.704 0-2.856-.984-2.976-2.904h8.521v-.984c0-4.081-2.208-6.529-5.88-6.529-3.72 0-6.336 2.76-6.336 6.697 0 3.816 2.64 6.433 6.504 6.433 2.976 0 4.512-.984 5.521-2.904zm-5.376-3.841c.336-1.776 1.104-2.568 2.544-2.568 1.464 0 2.136.768 2.328 2.568zM72.542 96.62h20.276v-4.919H80.7c3.439-2.12 5.199-3.36 6.839-4.959 3.36-3.199 4.959-6.479 4.959-10.198 0-5.519-3.719-8.958-9.758-8.958-5.439 0-8.679 2.56-10.159 7.879l5.599 1.359c.84-3.039 2.12-4.319 4.279-4.319 2.28 0 3.6 1.479 3.6 3.959 0 3.08-1.8 6.239-5.319 9.398-2.319 2.04-3.599 2.959-8.198 5.879zm33.159-23.677h12.078v-4.919h-16.597l-1.8 16.597h5.279c.88-1.64 2.2-2.399 4.08-2.399 2.719 0 4.439 1.879 4.439 4.919 0 3.12-1.72 5-4.599 5-2.439 0-3.919-1.2-4.679-3.72l-5.799 1.6.16.4c.6 1.759 1.04 2.479 2.2 3.639 2 1.959 4.879 3 8.398 3 6.519 0 10.598-3.839 10.598-9.999 0-5.679-3.479-9.358-8.958-9.358-2.399 0-4.319.72-5.599 2.16z"/></svg>