<svg xmlns="http://www.w3.org/2000/svg" viewBox="0 0 192 192"><path fill-rule="evenodd" d="M91.14 103.901c-1.368-1.26-2.243-3.015-2.243-4.992C88.897 95.093 92.077 92 96 92s7.103 3.093 7.103 6.91c0 1.979-.879 3.736-2.251 4.996V116H91.14zm32.77-37.788v5.923h11.994V140H56V72.036h12.273v-5.923c0-15.34 12.48-27.82 27.819-27.82s27.819 12.48 27.819 27.82zm-47.637 5.923h39.638v-5.923c0-10.928-8.891-19.82-19.82-19.82s-19.818 8.892-19.818 19.82zm51.63 8H64V132h63.904zm-22.065-63.433-.978 7.939c35.805 4.412 62.805 34.988 62.805 71.123 0 36.1-26.97 66.672-62.735 71.114l.986 7.94c39.763-4.94 69.749-38.926 69.749-79.054 0-40.168-30.019-74.158-69.827-79.062M24.335 95.665c0-36.135 27-66.71 62.805-71.123l-.979-7.94c-39.807 4.905-69.826 38.895-69.826 79.063 0 40.128 29.986 74.113 69.749 79.053l.986-7.94c-35.765-4.442-62.735-35.014-62.735-71.113" clip-rule="evenodd"/></svg>