<svg xmlns="http://www.w3.org/2000/svg" viewBox="0 0 192 192"><path d="m92.8 157.9-.4 8c-21.3-1.1-40.9-12-53.2-29.2l-.7 6.3-7.9-.9 2.3-19.9 19.9 2.3-.9 7.9-6.3-.7c10.7 15.4 28.1 25.2 47.2 26.2m21.6-2.7 2.6-5.8-7.3-3.3-8.3 18.2 18.2 8.3 3.3-7.3-5.7-2.6c10.4-3.3 19.8-9 27.5-16.4 7.2-7 13-15.5 16.7-25.2l-7.5-2.9c-6.8 17.8-21.6 31.4-39.5 37M140 41.6l-5 6.2c14.8 12 23.2 30.2 23 49l-4.7-4.3-5.4 5.9 14.7 13.5 13.5-14.7-5.9-5.4-4.3 4.7c.2-21.1-9.3-41.5-25.9-54.9m-24.1-4.3-5.5 3.1 3.9 7 17.4-9.8-9.8-17.4-7 3.9 3.1 5.5c-20-6.6-42.3-3.9-60.2 7.7l4.4 6.7c16-10.4 35.9-12.7 53.7-6.7M47.6 65.1l7.8-1.6-4-19.6-19.6 4 1.6 7.8 6.2-1.3c-12.5 17-16.8 39-11.3 59.7L36 112c-4.9-18.4-1-38.1 10.2-53.2zM88 63.9l20.3-4.1L136 69v48.8l-28-5.8-20 4-20-4v24h-8V60h8zM88 88H68v15.9l20 4zh20v15.9l20 4.2V88h-20V68.2l-.3-.1-19.7 4z"/></svg>