<svg xmlns="http://www.w3.org/2000/svg" viewBox="0 0 192 192"><path d="M100 68v24h24v8h-24v24h-8v-24H68v-8h24V68zm66 28c0-38.6-31.4-70-70-70-10.32 0-20.28 2.21-29.6 6.57l3.39 7.25C78.04 35.96 86.86 34 96 34c34.19 0 62 27.81 62 62 0 25.25-15.18 47.01-36.89 56.67-.48.21-.97.43-1.45.63q-.765.315-1.53.6c-.48.18-.96.36-1.44.53-.54.19-1.09.38-1.64.56l-1.34.42c-.59.18-1.18.35-1.77.5-.42.11-.84.21-1.25.31-.62.15-1.24.3-1.87.43-.41.09-.83.16-1.24.24-.63.12-1.26.24-1.9.34-.45.07-.9.12-1.36.19-.6.08-1.2.17-1.81.23-.58.06-1.16.1-1.74.14-.49.04-.98.09-1.47.11-1.11.07-2.2.1-3.3.1-34.19 0-62-27.81-62-62 0-13.59 4.35-26.5 12.37-37.17l1.26 6.28 7.84-1.58-3.95-19.61-19.61 3.95 1.58 7.84 6.13-1.23C30.78 66.44 26 80.85 26 96c0 38.6 31.4 70 70 70 1.24 0 2.48-.04 3.7-.1.55-.03 1.1-.08 1.65-.13.66-.05 1.33-.09 1.98-.16.68-.07 1.35-.17 2.02-.26.52-.07 1.04-.13 1.56-.21.71-.11 1.41-.25 2.12-.38.48-.09.96-.18 1.43-.28.7-.15 1.39-.31 2.08-.48.49-.12.97-.24 1.45-.36.66-.18 1.31-.36 1.97-.56.52-.15 1.04-.31 1.55-.48.61-.2 1.22-.4 1.82-.62a85 85 0 0 0 3.35-1.29c.56-.23 1.12-.48 1.68-.73.4-.18.81-.34 1.22-.53l-.01-.02C149.43 148.25 166 124.03 166 96"/></svg>