<svg xmlns="http://www.w3.org/2000/svg" viewBox="0 0 192 192"><path d="M156 36v69.841a39.7 39.7 0 0 0-8-1.641V36c0-6.617-5.383-12-12-12H88c-6.617 0-12 5.383-12 12v12h-8V36c0-11.028 8.972-20 20-20h48c11.028 0 20 8.972 20 20m-52 40c0-11.028-8.972-20-20-20H36c-11.028 0-20 8.972-20 20v92h88zm-80 0c0-6.617 5.383-12 12-12h48c6.617 0 12 5.383 12 12v84H24zm108 29.841a39.7 39.7 0 0 1 8-1.641V40H84v8h48zM176 144c0-17.645-14.355-32-32-32s-32 14.355-32 32 14.355 32 32 32 32-14.355 32-32m-8 0c0 13.233-10.766 24-24 24s-24-10.767-24-24 10.766-24 24-24 24 10.767 24 24m-20-4h12v8h-12v12h-8v-12h-12v-8h12v-12h8zM88 80H32v72h56zm-48 8h40v56H40z"/></svg>