<svg xmlns="http://www.w3.org/2000/svg" viewBox="0 0 192 192"><path d="M139.2 44H111c1.9-2.9 3-6.3 3-10 0-9.9-8.1-18-18-18s-18 8.1-18 18c0 3.7 1.1 7.1 3 10H52.8l-17.7 84H157zM86 34c0-5.5 4.5-10 10-10s10 4.5 10 10-4.5 10-10 10-10-4.5-10-10M59.2 52h73.5l14.3 68H44.9zm-5.1 90h4.7v26h-5.6v-18.6c-.9.5-2 .8-3.3 1.1s-2.6.4-4 .4l-.6-3.2c2.4-.4 4.2-1 5.6-1.9 1.3-1 2.4-2.2 3.2-3.8m16.4 19.6c1 0 1.8.4 2.5 1.1.6.7.9 1.4.9 2.3 0 1-.4 1.8-1.1 2.5-.6.6-1.4.9-2.3.9-1 0-1.9-.4-2.5-1.1-.6-.6-.9-1.4-.9-2.3 0-1 .4-1.9 1.1-2.5.6-.6 1.4-.9 2.3-.9M91.9 149c-.6-1-1.2-1.8-1.7-2.2s-1.3-.6-2.1-.6c-3.1 0-4.9 2.7-5.2 8.1 1.3-2.1 3.3-3.1 5.9-3.1 2.5 0 4.5.9 6 2.6 1.3 1.5 1.9 3.4 1.9 5.7 0 2.8-1 5.1-2.9 6.7-1.7 1.4-3.8 2.1-6.4 2.1-3.1 0-5.6-1.1-7.4-3.4q-2.7-3.15-2.7-9.3c0-4.5 1.1-8 3.3-10.6 1.9-2.2 4.4-3.3 7.4-3.3 3.5 0 6.1 1.5 7.8 4.6zm-4.6 6.3c-1.3 0-2.3.5-3 1.4-.6.8-1 1.8-1 3.1q0 2.1 1.2 3.3c.7.7 1.6 1.1 2.7 1.1 1.3 0 2.3-.5 3-1.4.6-.8 1-1.8 1-3q0-2.1-1.2-3.3c-.6-.9-1.5-1.2-2.7-1.2m27.9 5.1-1.9 2.2v5.3h-5.5v-27.1h5.5v15.6l5.9-7.3h6l-6.3 7.4 7 11.4h-6.1zm29-7.4c.3.8.4 1.6.4 2.2q0 2.85-2.4 4.5c-1.4 1-3.2 1.4-5.4 1.4-1.2 0-2.3-.2-3.4-.5-.5.4-.8.8-.8 1.3s.2.9.6 1.1 1 .3 2 .3h4.7c2.3 0 4.1.5 5.2 1.5 1 .9 1.5 2.1 1.5 3.7 0 2.3-1 4-3 5.2-1.8 1-4.1 1.5-7.2 1.5s-5.3-.5-6.9-1.4c-1.4-.8-2.1-2-2.1-3.4 0-1.5 1-2.7 3.1-3.6-1.4-.9-2.1-2-2.1-3.4 0-1.6.9-2.9 2.7-3.8-1.5-1.2-2.3-2.7-2.3-4.5 0-2 .8-3.6 2.5-4.8 1.4-1.1 3.2-1.6 5.3-1.6 1.7 0 3.3.4 4.9 1.3l5.1-1.1v4.1zm-9.4 14.8c-.6 0-1 0-1.2-.1q-1.2.75-1.2 1.8c0 1.05.3 1.3 1 1.6s1.8.5 3.3.5q5.1 0 5.1-2.4c0-1-.9-1.5-2.6-1.5h-4.4zm1.9-15.6c-.9 0-1.6.3-2.1.8s-.8 1.2-.8 2.1.3 1.6.8 2.2 1.2.8 2.1.8 1.6-.3 2.1-.8.8-1.2.8-2.2-.3-1.6-.8-2.2-1.2-.7-2.1-.7"/></svg>