<svg xmlns="http://www.w3.org/2000/svg" viewBox="0 0 192 192"><path d="M71.51 112H40V40h56v20.86c-3 1.81-5.7 4.07-8 6.68V48H48v56h24.53a32.6 32.6 0 0 0-1.02 8m1.87 10.82c-.34-.93-.61-1.87-.86-2.82H32V32c0-4.41 3.59-8 8-8h56c4.41 0 8 3.59 8 8v25.36c2.56-.75 5.23-1.2 8-1.32V32c0-8.82-7.18-16-16-16H40c-8.82 0-16 7.18-16 16v96h45.5zM168 154.85V176h-22.47L140 164.94v-7.22l-7.29-7.19-7.27-14.69c-1.22-.13-2.44-.35-3.66-.67-2.05-.55-3.98-1.38-5.77-2.41-.01 0-.01.01-.02.01a23.9 23.9 0 0 1-9.66 3.1L82.26 176H61.53l-6-12 5.49-10.98 7.71-3.86 3.68-11.04 10.72-14.29c-3.13-5.51-3.95-11.91-2.31-18.04 1.26-4.71 3.86-8.82 7.48-11.93-.19-1.28-.3-2.57-.3-3.86 0-14.34 11.66-26 26-26s26 11.66 26 26c0 .41-.01.82-.03 1.22 3.62 2.08 6.66 5.06 8.81 8.78 3.21 5.55 4.06 12.02 2.4 18.21-.56 2.07-1.39 4.02-2.44 5.83zM96.03 89.37A23.77 23.77 0 0 1 116 91.22c4.87-2.81 10.44-3.81 15.91-2.9C131.07 79.18 123.36 72 114 72c-9.71 0-17.63 7.74-17.97 17.37M90.15 120a15.9 15.9 0 0 0 9.71 7.45c3.18.85 6.46.7 9.49-.38-.78-.96-1.5-1.98-2.13-3.07-3.21-5.55-4.06-12.02-2.4-18.21.88-3.3 2.44-6.29 4.52-8.87-4.36-1.56-9.2-1.17-13.34 1.22a15.9 15.9 0 0 0-7.45 9.71 15.88 15.88 0 0 0 1.6 12.15m7.34 15.08c-3.42-.96-6.5-2.64-9.12-4.9l-8.77 11.7-4.32 12.96-8.29 4.14-2.52 5.02 2 4h11.26zm26.37-7.63c4.13 1.11 8.44.54 12.14-1.6a15.9 15.9 0 0 0 7.45-9.71c1.11-4.13.54-8.44-1.6-12.14-.92-1.59-2.09-2.96-3.43-4.13-1.53 4.38-4.15 8.13-7.87 11.21-.75.62-1.65.92-2.55.92-1.15 0-2.29-.5-3.09-1.45a3.99 3.99 0 0 1 .54-5.63c2.87-2.37 4.74-5.18 5.72-8.59a15.7 15.7 0 0 0-3.2-.33c-2.77 0-5.51.73-7.97 2.15a15.9 15.9 0 0 0-7.45 9.71 15.86 15.86 0 0 0 1.6 12.14c2.13 3.7 5.58 6.35 9.71 7.45m36.14 29.7-16.69-26.7c-1.03.85-2.13 1.65-3.32 2.33-1.89 1.09-3.88 1.9-5.94 2.44l5.23 10.56 8.71 8.59v8.67l2.47 4.94H160z"/></svg>