<svg xmlns="http://www.w3.org/2000/svg" viewBox="0 0 192 192"><path d="M139.246 44h-28.29A17.9 17.9 0 0 0 114 34c0-9.925-8.075-18-18-18s-18 8.075-18 18c0 3.698 1.124 7.138 3.044 10h-28.29L35.07 128h121.86zM86 34c0-5.514 4.486-10 10-10s10 4.486 10 10-4.486 10-10 10-10-4.486-10-10M59.246 52h73.508l14.316 68H44.93zM45.35 163.608c4.139-2.627 5.29-3.455 7.379-5.29 3.167-2.844 4.787-5.688 4.787-8.46 0-2.232-1.188-3.563-3.24-3.563-1.943 0-3.095 1.152-3.851 3.887l-5.04-1.223c1.333-4.788 4.248-7.092 9.144-7.092 5.435 0 8.782 3.096 8.782 8.063 0 3.348-1.44 6.3-4.463 9.179-1.476 1.44-3.06 2.556-6.155 4.464h10.906V168H45.35zm28.474 1.369a3.38 3.38 0 0 1-3.383 3.383c-1.872 0-3.384-1.476-3.384-3.383s1.512-3.384 3.42-3.384c1.836 0 3.347 1.548 3.347 3.384m8.46-3.852c.936 2.052 2.017 2.843 4.032 2.843 3.42 0 4.967-2.555 5.148-8.602-1.26 2.051-3.24 3.131-5.76 3.131-4.607 0-7.739-3.131-7.739-7.703 0-5.327 3.744-8.927 9.215-8.927 6.335 0 9.827 4.536 9.827 12.743 0 8.819-3.816 13.786-10.547 13.786-2.555 0-4.751-.72-6.407-2.124-.9-.72-1.44-1.476-2.196-2.88zm1.08-10.763c0 2.34 1.62 4.068 3.852 4.068s3.815-1.728 3.815-4.14c0-2.375-1.62-4.103-3.815-4.103-2.268 0-3.851 1.728-3.851 4.175zm29.88 12.31V168h-5.507v-27.104h5.507v15.622l5.904-7.344h5.975l-6.3 7.38L125.771 168h-6.12l-4.499-7.56-1.908 2.233zm30.923-9.718c.323.936.431 1.476.431 2.232 0 3.563-3.131 5.975-7.846 5.975-1.26 0-2.268-.144-3.42-.504q-.756.54-.756 1.296c0 1.007.648 1.368 2.556 1.368h4.751c4.356 0 6.767 1.835 6.767 5.219 0 4.248-3.707 6.66-10.186 6.66-5.616 0-8.927-1.764-8.927-4.825 0-1.547.972-2.699 3.06-3.599-1.44-.864-2.125-1.98-2.125-3.42 0-1.655.865-2.879 2.664-3.815-1.547-1.224-2.268-2.627-2.268-4.463 0-3.708 3.276-6.371 7.775-6.371 1.764 0 3.24.396 4.86 1.26l5.075-1.153v4.14zm-9.431 14.794c-.684 0-.936 0-1.26-.072-.792.54-1.152 1.08-1.152 1.836 0 1.476 1.332 2.124 4.284 2.124 3.347 0 5.075-.792 5.075-2.376 0-1.044-.756-1.512-2.592-1.512zm-.9-12.67c0 1.836 1.116 2.951 2.916 2.951s2.843-1.115 2.843-2.951-1.043-2.916-2.916-2.916c-1.763 0-2.843 1.116-2.843 2.916"/></svg>