<svg xmlns="http://www.w3.org/2000/svg" viewBox="0 0 192 192"><path d="m168.706 43.156-1.716-1.025a14.9 14.9 0 0 0-11.406-1.659 14.9 14.9 0 0 0-9.216 6.924l-45.193 76.762.051 31.083 27.429-14.686 45.282-76.914c4.167-7.08 1.821-16.27-5.23-20.485Zm-59.518 89.147 8.472 5.065-8.457 4.528-.016-9.592Zm15.184-.243-13.733-8.21 34.5-58.6 13.733 8.209zm42.67-72.477-4.111 6.983-13.733-8.209 4.063-6.902a6.95 6.95 0 0 1 4.301-3.231 6.96 6.96 0 0 1 5.323.774l1.716 1.025c3.291 1.967 4.386 6.256 2.44 9.56ZM93.23 157.964A43.8 43.8 0 0 1 80 160c-24.262 0-44-19.738-44-44 0-16.157 8.76-30.299 21.774-37.95l-5.338-11.377-36.435 47.87v-13.221l28.418-37.323H16.001v-8h31.427L36.162 31.991H72v8H48.752l16.255 34.641a43.8 43.8 0 0 1 14.992-2.633c13.393 0 25.4 6.023 33.477 15.493l-4.349 7.387c-6.55-9.008-17.163-14.88-29.128-14.88-4.049 0-7.938.682-11.573 1.92l16.894 36.002-7.242 3.398-16.892-35.998C50.884 91.662 44 103.04 44 115.999c0 19.851 16.149 36 36 36 4.665 0 9.121-.902 13.216-2.524z"/></svg>