<svg xmlns="http://www.w3.org/2000/svg" viewBox="0 0 192 192"><path d="M139.2 44H111c1.9-2.9 3-6.3 3-10 0-9.9-8.1-18-18-18s-18 8.1-18 18c0 3.7 1.1 7.1 3 10H52.8l-17.7 84H157zM86 34c0-5.5 4.5-10 10-10s10 4.5 10 10-4.5 10-10 10-10-4.5-10-10M59.2 52h73.5l14.3 68H44.9zm11.4 102.4q4.5 1.95 4.5 6.3c0 2.5-1 4.4-3.1 5.9q-2.7 1.8-6.9 1.8c-3.3 0-5.8-.8-7.6-2.4-1.6-1.4-2.4-3.2-2.4-5.3q0-4.35 4.5-6.3c-2.2-1.3-3.3-3-3.3-5.3 0-2.2.9-4 2.8-5.4 1.6-1.2 3.7-1.8 6.1-1.8 2.8 0 5 .8 6.7 2.3 1.5 1.3 2.2 2.9 2.2 4.9-.2 2.2-1.3 4-3.5 5.3m-5.5 1.8q-2.1 0-3.3 1.2c-.7.7-1 1.6-1 2.8 0 1.3.4 2.2 1.3 3q1.2.9 3 .9 2.1 0 3.3-1.2c.7-.7 1-1.6 1-2.7 0-1.3-.4-2.3-1.3-3-.8-.6-1.8-1-3-1m0-10.3c-1.2 0-2.1.4-2.7 1.1q-.9.9-.9 2.4c0 1.5.4 1.9 1.1 2.5s1.5.8 2.5.8c1.1 0 2-.4 2.7-1.1.6-.6.9-1.4.9-2.3 0-1.1-.4-1.9-1.1-2.5s-1.5-.9-2.5-.9m26.7 22.6c-2.1 0-3.7-.5-4.6-1.6-.8-1-1.3-2.5-1.3-4.6v-21.4h5.5v21.6c0 1.2.6 1.8 1.7 1.8.8 0 1.5-.3 2.2-.9l1.4 4c-.8.7-2.5 1.1-4.9 1.1m12.8-16.5c1.4-2.2 3.4-3.3 5.8-3.3s4.4 1 5.8 3.1c1.2 1.8 1.9 4 1.9 6.8q0 4.8-2.4 7.5c-1.4 1.6-3.2 2.3-5.4 2.3q-3.9 0-5.7-3.3v2.9h-5.5v-27.1h5.5zm3.8 1c-1.3 0-2.4.6-3.1 1.7q-.9 1.5-.9 3.9c0 1.9.4 3.3 1.2 4.3.7.8 1.6 1.2 2.9 1.2 2.6 0 3.9-1.8 3.9-5.5s-1.3-5.6-4-5.6m25.8 1.2c-1.9-.9-3.7-1.4-5.3-1.4q-2.4 0-2.4 1.5c0 .6.2 1 .7 1.2s1.5.5 3 .8c2 .3 3.4.8 4.4 1.4q2.4 1.5 2.4 4.5c0 2.1-.8 3.7-2.5 4.8-1.4.9-3.4 1.4-5.8 1.4-1.8 0-3.4-.2-4.6-.6s-2.5-1.1-3.6-2.1l2.5-3.6c.9.8 1.7 1.4 2.6 1.7s1.8.5 3 .5c2.1 0 3.1-.6 3.1-1.8 0-.5-.2-.9-.7-1.2-.4-.2-1.5-.5-3.3-.8-2.3-.4-4-1.2-5-2.2-.9-.9-1.3-2.2-1.3-3.7 0-2 .8-3.5 2.3-4.6 1.3-.9 3.1-1.4 5.4-1.4 2.8 0 5.3.6 7.4 1.9z"/></svg>