<svg xmlns="http://www.w3.org/2000/svg" viewBox="0 0 192 192"><path d="M144.455 80.352c-3.268 0-6.42.5-9.387 1.426l-8.662-18.099 12.588-5.945-3.417-7.234-8.263 3.903-3.382-7.161-14.66 6.922 3.416 7.234 3.063-1.446 1.693 3.538-31.267 19.516L77.435 64H84v-8H60v8h8.63l10.706 23.276-7.413 4.627c-5.789-7.047-14.567-11.551-24.378-11.551-17.392 0-31.541 14.149-31.541 31.541s14.149 31.541 31.541 31.541c14.134 0 26.126-9.345 30.123-22.181l16.669 3.152 27.785-51.146 5.68 11.868c-8.93 5.576-14.886 15.487-14.886 26.768 0 17.392 14.149 31.541 31.541 31.541s31.541-14.149 31.541-31.541-14.151-31.543-31.543-31.543m-37.109-1.128-12.885 21.792-4.914-10.683zm-59.801 56.209c-12.98 0-23.541-10.56-23.541-23.541s10.561-23.541 23.541-23.541c6.95 0 13.203 3.029 17.516 7.834l-19.179 11.971L44 109.353v5.533l25.732 4.865c-3.243 9.127-11.962 15.682-22.187 15.682m21.775-32.475a23.4 23.4 0 0 1 1.765 8.907l-12.308-2.327zm9.728 10.413a31.35 31.35 0 0 0-2.873-14.691l6.532-4.077 8.581 18.655-1.195 2.2zm65.407 22.062c-12.98 0-23.541-10.56-23.541-23.541 0-8.103 4.115-15.262 10.365-19.499L141.62 114l7.216-3.454-10.266-21.451a23.5 23.5 0 0 1 5.884-.745c12.98 0 23.541 10.56 23.541 23.541s-10.559 23.542-23.54 23.542"/></svg>