<svg xmlns="http://www.w3.org/2000/svg" viewBox="0 0 192 192"><path d="M96 16c-44.112 0-80 35.888-80 80s35.888 80 80 80 80-35.888 80-80-35.888-80-80-80m0 152c-39.701 0-72-32.299-72-72s32.299-72 72-72 72 32.299 72 72-32.299 72-72 72m0-131.45c-32.781 0-59.45 26.669-59.45 59.45S63.219 155.45 96 155.45s59.45-26.669 59.45-59.45S128.781 36.55 96 36.55m4 8.171c11.182.865 21.369 5.314 29.416 12.206L100 86.343zm-8 41.622L62.584 56.927C70.631 50.035 80.818 45.586 92 44.721zM86.343 92H44.721c.865-11.182 5.314-21.369 12.206-29.416zm0 8-29.416 29.416c-6.892-8.047-11.341-18.234-12.206-29.416zM92 105.657v41.622c-11.182-.865-21.369-5.314-29.416-12.206zm8 .001 29.416 29.416c-8.047 6.891-18.233 11.341-29.416 12.206zm5.657-5.658h41.622c-.865 11.182-5.315 21.37-12.206 29.416zm0-8 29.416-29.416c6.892 8.047 11.341 18.234 12.206 29.416z"/></svg>