<svg xmlns="http://www.w3.org/2000/svg" viewBox="0 0 192 192"><path d="M176 136V32H16v104h64v16H64v8h64v-8h-16v-16zM24 40h144v88H24zm80 112H88v-16h16zM42.352 80.257c3.22 0 6.02-1.457 7.668-4.064 1.687-2.646 2.607-6.135 2.607-10.084C52.627 57.482 48.64 52 42.314 52c-3.26 0-6.02 1.457-7.707 4.064C32.958 58.556 32 62.237 32 65.956c0 8.856 3.95 14.3 10.352 14.3zm-.038-23.541c2.645 0 4.14 3.412 4.14 9.393 0 6.02-1.495 9.432-4.102 9.432-2.684 0-4.179-3.374-4.179-9.547 0-5.866 1.533-9.278 4.14-9.278zm35.335 23.119H60.664v-4.793h5.828V60.665c-1.304.498-3.412.805-5.674.767v-4.333c3.987-.383 5.904-1.84 6.633-4.984h4.984v22.927h5.214zm26.057-3.642c1.687-2.646 2.607-6.135 2.607-10.084C106.313 57.482 102.326 52 96 52c-3.259 0-6.02 1.457-7.706 4.064-1.65 2.492-2.608 6.173-2.608 9.892 0 8.856 3.95 14.3 10.352 14.3 3.22 0 6.02-1.456 7.668-4.063M91.86 65.994c0-5.866 1.534-9.278 4.141-9.278 2.645 0 4.14 3.412 4.14 9.393 0 6.02-1.495 9.432-4.102 9.432-2.684 0-4.179-3.374-4.179-9.547m57.866 14.263c3.22 0 6.02-1.457 7.668-4.064C159.08 73.547 160 70.058 160 66.109 160 57.482 156.013 52 149.687 52c-3.26 0-6.02 1.457-7.707 4.064-1.649 2.492-2.607 6.173-2.607 9.892 0 8.856 3.95 14.3 10.352 14.3zm-.038-23.541c2.645 0 4.14 3.412 4.14 9.393 0 6.02-1.495 9.432-4.102 9.432-2.684 0-4.18-3.374-4.18-9.547 0-5.866 1.534-9.278 4.142-9.278m-18.351 23.119H114.35v-4.793h5.828V60.665c-1.304.498-3.413.805-5.675.767v-4.333c3.987-.383 5.904-1.84 6.633-4.984h4.984v22.927h5.215v4.793zm-88.861 7.79c-3.31 0-6.114 1.479-7.827 4.126C32.973 94.283 32 98.021 32 101.797c0 8.995 4.01 14.525 10.513 14.525 3.271 0 6.114-1.48 7.788-4.128 1.713-2.687 2.648-6.23 2.648-10.24 0-8.762-4.05-14.33-10.474-14.33zm.038 23.907c-2.725 0-4.244-3.426-4.244-9.696 0-5.957 1.558-9.423 4.206-9.423 2.686 0 4.205 3.466 4.205 9.54 0 6.114-1.519 9.579-4.167 9.579m28.599-23.908c-3.31 0-6.114 1.48-7.827 4.127-1.674 2.532-2.648 6.27-2.648 10.046 0 8.995 4.011 14.525 10.514 14.525 3.27 0 6.113-1.48 7.787-4.128 1.714-2.687 2.648-6.23 2.648-10.24 0-8.762-4.05-14.33-10.474-14.33m.039 23.908c-2.726 0-4.244-3.426-4.244-9.696 0-5.957 1.557-9.423 4.205-9.423 2.687 0 4.205 3.466 4.205 9.54 0 6.114-1.518 9.579-4.166 9.579m30.078-.078h5.296v4.868h-17.25v-4.868h5.919V96.852c-1.325.506-3.466.818-5.764.78v-4.4c4.05-.39 5.997-1.87 6.737-5.063h5.062zm53.575 0h5.296v4.868h-17.25v-4.868h5.92V96.852c-1.325.506-3.466.818-5.764.78v-4.4c4.05-.39 5.997-1.87 6.737-5.063h5.061zm-31.278-23.83c-3.31 0-6.114 1.48-7.827 4.127-1.675 2.532-2.648 6.27-2.648 10.046 0 8.995 4.011 14.525 10.513 14.525 3.271 0 6.114-1.48 7.788-4.128 1.713-2.687 2.648-6.23 2.648-10.24 0-8.762-4.05-14.33-10.474-14.33m.038 23.908c-2.725 0-4.244-3.426-4.244-9.696 0-5.957 1.558-9.423 4.206-9.423 2.686 0 4.205 3.466 4.205 9.54 0 6.114-1.519 9.579-4.167 9.579"/></svg>