<svg xmlns="http://www.w3.org/2000/svg" viewBox="0 0 192 192"><path d="M144 32c-17.645 0-32 14.355-32 32v10.13c-4.25-3.808-9.858-6.13-16-6.13s-11.75 2.322-16 6.13V64c0-17.645-14.355-32-32-32S16 46.355 16 64v64c0 17.645 14.355 32 32 32h.003C65.646 160 80 145.645 80 128v-1c0-8.271 7.178-15 16-15s16 6.729 16 15v1c0 .471.015.939.036 1.405.003.079.002.159.006.237C112.899 146.527 126.906 160 144 160c17.645 0 32-14.355 32-32V64c0-17.645-14.355-32-32-32m-24 32c0-13.234 10.767-24 24-24s24 10.766 24 24v42.871C162.132 100.213 153.55 96 143.998 96c-9.55 0-18.13 4.21-23.998 10.867zm23.998 40c13.232 0 23.998 10.766 23.998 23.998s-10.766 23.998-23.998 23.998S120 141.23 120 127.998 130.766 104 143.998 104m-95.997 48c-13.23 0-23.995-10.767-23.995-24s10.765-24 23.997-24S72 114.766 72 128q0 1.242-.124 2.45C70.645 142.537 60.407 152 48 152zM48 40c13.233 0 24 10.766 24 24v42.867C66.132 100.21 57.552 96 48.003 96 38.45 96 29.868 100.214 24 106.874V64c0-13.234 10.766-24 24-24m48 64c-6.142 0-11.75 2.225-16 5.875V92c0-8.822 7.178-16 16-16s16 7.178 16 16v17.875c-4.25-3.65-9.858-5.875-16-5.875"/></svg>