<svg xmlns="http://www.w3.org/2000/svg" xml:space="preserve" viewBox="0 0 192 192"><path d="M171.399 36.601A15.6 15.6 0 0 0 160.29 32a15.6 15.6 0 0 0-11.11 4.601l-45.283 45.312-7.396 29.585 29.585-7.396 42.47-42.47.013.014 2.829-2.828A15.6 15.6 0 0 0 176 47.71c0-4.196-1.634-8.14-4.601-11.108m-61.385 53.837 7.548 7.549-10.064 2.515zm56.111-37.688-41.242 41.242-10.875-10.875 41.242-41.242A7.65 7.65 0 0 1 160.29 40c2.06 0 3.996.802 5.452 2.258S168 45.65 168 47.71c0 1.872-.662 3.641-1.875 5.041M92 92H32v-8h60zm-20 20H32v-8h40zm20-40H32v-8h60zm68 10.916V136H65.48L32 164.697V136H16V44h113.064l-7.995 8H24v76h16v19.303L62.52 128H152V90.916z"/></svg>