<svg xmlns="http://www.w3.org/2000/svg" viewBox="0 0 192 192"><path d="M88 160.37v-56.74l21.3 14.75a32.2 32.2 0 0 1 5.24-6.1L90.78 95.83l52.26-40.2L80 16.84v70.62L38.56 52.93l-5.12 6.14 44.11 36.76L33.6 128.8l4.8 6.4L80 104v71.63l30.11-20.84a32.1 32.1 0 0 1-3.88-7.04zm0-129.21 40.96 25.21L88 87.88zm84.43 123.31-6.83-6.32-6.42-5.94c.54-1.98.82-4.06.82-6.21 0-13.23-10.77-24-24-24-5.51 0-10.59 1.86-14.64 5-2.15 1.65-4 3.66-5.48 5.94A23.75 23.75 0 0 0 112 136c0 2.44.37 4.8 1.05 7.02.8 2.62 2.04 5.06 3.64 7.21 4.37 5.92 11.4 9.77 19.31 9.77 1.86 0 3.68-.21 5.42-.63l6.38 6.38 6.7 6.68c2.29 2.28 5.42 3.57 8.65 3.57h.35c3.34-.1 6.54-1.59 8.76-4.09l.65-.72c4.29-4.81 4.08-12.16-.48-16.72m-49.16-8.79a15.84 15.84 0 0 1-3.12-7.57c-.1-.69-.15-1.39-.15-2.11 0-3.13.9-6.04 2.46-8.51a16.1 16.1 0 0 1 5.99-5.59c2.25-1.21 4.82-1.9 7.55-1.9 8.82 0 16 7.18 16 16s-7.18 16-16 16c-5.19 0-9.81-2.48-12.73-6.32m43.67 20.19-.65.72c-.78.87-1.85 1.37-3.03 1.41-1.16.02-2.27-.41-3.1-1.23l-5.1-5.08-4.52-4.51 5.99-6.52 5 4.62 5.29 4.89a4.194 4.194 0 0 1 .12 5.7"/></svg>