<svg xmlns="http://www.w3.org/2000/svg" viewBox="0 0 192 192"><path d="M161.79 169.62v-5.56h9.89v-6.1h-9.89v-5.02h13.59v-6.39h-21.54V176H176v-6.38zm-24.22-.13v-22.94h-8.11V176h20.26v-6.51zm-40.1-57.96-5.75 5.75L112.97 132 72 160.37V137l-8 8v30.63L127.03 132zm-13.41-9.27L78.32 108l.01.01 5.75-5.75zm6.7 4.64-5.74 5.74.01.01 5.75-5.75zM64 122.32v.02l8-8v-.02zm0 11.34v.02l8-8v-.02zm58.29-80.95L64 16.84v70.62L22.56 52.93l-5.12 6.14 44.11 36.76L17.6 128.8l4.8 6.4L64 104v7l13.37-13.37-2.59-1.8L93.8 81.2zM72 87.88V31.16l40.96 25.21zm102.83-65.05L90.76 106.9l-5.74 5.74L72 125.66l-49.17 49.17-5.66-5.66L72 114.34l6.33-6.33 5.75-5.75 85.09-85.09z"/></svg>