<svg xmlns="http://www.w3.org/2000/svg" viewBox="0 0 192 192"><path fill="#231f20" d="M132.001 16h-72c-8.822 0-16 7.178-16 16v112c0 8.822 7.178 16 16 16h20v16h8v-16h16v16h8v-16h20c8.822 0 16-7.178 16-16V32c0-8.822-7.178-16-16-16m8 128c0 4.411-3.589 8-8 8h-72c-4.411 0-8-3.589-8-8V32c0-4.411 3.589-8 8-8h72c4.411 0 8 3.589 8 8zm-44-47.97c-11.02 0-19.985 8.965-19.985 19.985S84.981 136 96.001 136s19.985-8.965 19.985-19.985-8.965-19.985-19.985-19.985m0 31.97c-6.608 0-11.985-5.376-11.985-11.985s5.376-11.985 11.985-11.985 11.985 5.376 11.985 11.985S102.61 128 96.001 128m-20-88h40v8h-40z"/></svg>