<svg xmlns="http://www.w3.org/2000/svg" viewBox="0 0 192 192"><path fill="#231f20" d="M148 155.995c0 2.21-1.769 4-3.981 4-2.249 0-4.019-1.752-4.019-4 0-2.209 1.807-4 4.056-4 2.138 0 3.944 1.83 3.944 4m-8-20.043 1.271 12.044h5.458L148 136.038v-8.042h-8zM120 16H48c-8.822 0-16 7.178-16 16v112c0 8.822 7.178 16 16 16h20v16.012h8V160h16v16.012h8V160h7.35a39.7 39.7 0 0 1-2.545-8H48c-4.411 0-8-3.589-8-8V32c0-4.411 3.589-8 8-8h72c4.411 0 8 3.589 8 8v75.35a39.7 39.7 0 0 1 8-2.545V32c0-8.822-7.178-16-16-16M84 96.054c11.013 0 19.973 8.96 19.973 19.973S95.013 136 84 136s-19.973-8.96-19.973-19.973S72.987 96.054 84 96.054m0 8c-6.602 0-11.973 5.371-11.973 11.973S77.397 128 84 128s11.973-5.371 11.973-11.973-5.37-11.973-11.973-11.973M104 40H64v8h40zm72 104c0 17.645-14.355 32-32 32s-32-14.355-32-32 14.355-32 32-32 32 14.355 32 32m-8 0c0-13.234-10.766-24-24-24s-24 10.766-24 24 10.766 24 24 24 24-10.766 24-24"/></svg>