<svg xmlns="http://www.w3.org/2000/svg" viewBox="0 0 192 192"><path fill="#231f20" d="M88.015 116.015C88.015 127.035 96.98 136 108 136s19.985-8.965 19.985-19.985S119.02 96.03 108 96.03s-19.985 8.966-19.985 19.985m31.97 0c0 6.609-5.377 11.985-11.985 11.985s-11.985-5.376-11.985-11.985S101.392 104.03 108 104.03s11.985 5.377 11.985 11.985M128 48H88v-8h40zm-74.828 6.828a4 4 0 1 1 5.657-5.656 4 4 0 0 1-5.657 5.656M56 40a11.92 11.92 0 0 0-8.485 3.515l-5.657-5.657C45.635 34.081 50.658 32 56 32s10.365 2.08 14.142 5.858l-5.657 5.657A11.92 11.92 0 0 0 56 40m-19.799-7.799-5.657-5.657c14.037-14.036 36.875-14.036 50.912 0L75.8 32.2c-10.917-10.918-28.68-10.918-39.598 0zM160.086 32v112c0 8.87-7.216 16.086-16.086 16.086h-20V176h-8v-15.914h-16V176h-8v-15.914H72c-8.87 0-16.086-7.216-16.086-16.086V63.996a11.95 11.95 0 0 0 8.172-3.15V144c0 4.364 3.55 7.915 7.914 7.915h72c4.364 0 7.914-3.55 7.914-7.915V32c0-4.364-3.55-7.914-7.914-7.914H89.948a43.8 43.8 0 0 0-8.796-8.172H144c8.87 0 16.086 7.216 16.086 16.086"/></svg>