<svg xmlns="http://www.w3.org/2000/svg" viewBox="0 0 192 192"><path fill="#1d1d1b" d="M132 176c-16.57 0-24.11-24.336-30.981-51.448-.638-2.516-1.27-5.052-1.901-7.59C92.936 92.139 85.928 64 74 64c-11.93 0-18.936 28.14-25.119 52.967-7.56 30.358-14.7 59.033-32.88 59.033v-8c11.928 0 18.935-28.14 25.118-52.966C48.679 84.674 55.819 56 73.999 56c18.182 0 25.322 28.673 32.881 59.03.63 2.526 1.258 5.051 1.893 7.556C114.343 144.559 121.188 168 132 168zm-36-40H52v24h44zm-36 8h28v8H60zm72-112c1.384 0 2.72.194 4 .525V20h-8v12.524c1.28-.33 2.616-.524 4-.524m44 12.022h-37.079a7.99 7.99 0 0 0-6.921-4 8 8 0 0 0 0 16 7.99 7.99 0 0 0 6.921-4h37.08zm-52.115-9.794-17.056-17.057-5.657 5.658 17.056 17.056a16.05 16.05 0 0 1 5.657-5.657M116 48c0-1.384.194-2.72.524-4H100v8h16.524a16 16 0 0 1-.524-4m29.772-8.115 17.057-17.056-5.657-5.658-17.056 17.057a16.05 16.05 0 0 1 5.656 5.657m-27.544 16.23-17.056 17.056 5.657 5.658 17.056-17.057a16.05 16.05 0 0 1-5.657-5.656zM132 64a16 16 0 0 1-4-.524v24.748h8V63.475c-1.28.33-2.616.525-4 .525m13.772-7.885a16.05 16.05 0 0 1-5.656 5.657l9.056 9.057 5.657-5.658z"/></svg>