<svg xmlns="http://www.w3.org/2000/svg" viewBox="0 0 192 192"><path fill="#1d1d1b" d="M77.923 156.011c-9.925 0-18-8.074-18-18s8.075-18 18-18 18 8.075 18 18-8.075 18-18 18m0-28c-5.514 0-10 4.486-10 10s4.486 10 10 10 10-4.486 10-10-4.487-10-10-10M140 152c-12.299 0-19.638-30.252-26.112-56.943C106.02 62.63 98.59 32 80 32c-16.514 0-25.565 22.192-34.817 58-6.761 26.165-16.02 62-29.183 62v8c19.36 0 28.291-34.569 36.929-68C59.906 64.993 68.017 40 80 40c12.299 0 19.638 30.252 26.112 56.943C113.98 129.37 121.41 160 140 160z"/></svg>