<svg xmlns="http://www.w3.org/2000/svg" xml:space="preserve" viewBox="0 0 192 192"><path d="M176 32v80l-8-8.135V40h-60c-4.411 0-8 3.589-8 8v50.672l-8 8.012V48c0-4.411-3.589-8-8-8H24v104h56v8H16V32h68c4.78 0 9.066 2.118 12 5.453C98.934 34.118 103.22 32 108 32zm-12 108h12v-8h-12zm-76 0h12v-8H88zm48.001-44h-8v12h8zm-29.893 8.465-5.652 5.661 8.719 8.705 5.652-5.662zm43.065 8.706 5.656 5.658 8.704-8.704-5.656-5.658zM124 176h16v-8h-16zm8.001-59.999a21.86 21.86 0 0 0-15.557 6.443c-8.578 8.578-8.578 22.535.001 31.115.635.634 1.22 1.132 1.785 1.615l.546.468c.183.159.412.34.67.537.157.12.381.293.555.443V160h8V156c0-3.339-2.58-5.32-3.683-6.167-.109-.084-.21-.159-.29-.227l-.608-.523c-.488-.415-.91-.774-1.32-1.183-5.457-5.46-5.457-14.34 0-19.8 2.645-2.644 6.16-4.1 9.901-4.1s7.256 1.456 9.9 4.1c5.458 5.46 5.458 14.34.001 19.798-.41.411-.832.77-1.32 1.185l-.607.522c-.08.07-.182.144-.291.228-1.103.847-3.683 2.828-3.683 6.167V160h8v-3.378c.174-.15.398-.323.556-.443.256-.198.486-.378.669-.537l.545-.468c.566-.483 1.15-.981 1.787-1.617 8.578-8.578 8.578-22.535 0-31.113A21.86 21.86 0 0 0 132 116.001"/></svg>