<svg xmlns="http://www.w3.org/2000/svg" viewBox="0 0 192 192"><path d="M137.465 113.72q1.997 2.02 1.997 4.865 0 2.984-2.295 5.049-1.928 1.79-4.544 1.79-3.03 0-5.095-2.295-1.79-1.928-1.79-4.544 0-2.846 2.043-4.865 2.042-2.02 4.934-2.02 2.755 0 4.75 2.02m-2.777-48.974q4.086 0 6.702 2.157 3.075 2.479 3.075 6.84 0 3.166-1.56 5.484-1.562 2.318-5.6 5.118-5.233 3.671-7.092 6.839c-1.859 3.168-1.859 4.91-1.859 8.399v4.314h8.95v-3.396q0-3.947 1.194-6.013t5.003-4.59q6.472-4.267 8.835-7.756t2.364-8.767q0-7.022-4.727-11.52-5.416-5.187-14.826-5.187-9.042 0-14.779 4.865-2.708 2.295-4.223 5.049c-1.515 2.754-1.82 4.192-2.432 7.068l8.904 1.699q2.25-10.603 12.071-10.603M176 32v120h-68c-4.411 0-8 3.589-8 8h-8c0-4.411-3.589-8-8-8H16V32h68c4.78 0 9.066 2.118 12 5.453C98.934 34.118 103.22 32 108 32zM92 48c0-4.411-3.589-8-8-8H24v104h60c2.912 0 5.646.782 8 2.147zm76-8h-60c-4.411 0-8 3.589-8 8v98.147a15.9 15.9 0 0 1 8-2.147h60z"/></svg>