<svg xmlns="http://www.w3.org/2000/svg" viewBox="0 0 192 192"><path d="M144 112c-17.645 0-32 14.355-32 32 0 5.232 1.27 10.17 3.507 14.536l.042.083q.282.548.585 1.084l.02.035a32 32 0 0 0 2.794 4.136l.095.122a32 32 0 0 0 .886 1.054q.344.394.701.777.101.108.204.214.369.39.75.767l.017.017a32 32 0 0 0 1.809 1.645q.038.032.076.066.355.294.718.578.194.154.388.305a32 32 0 0 0 1.147.837q.331.232.668.455.261.171.527.338.324.209.656.41c.211.127.427.247.642.37q.48.273.97.53c.263.138.527.277.796.408q.288.14.58.271.364.172.734.333a32 32 0 0 0 1.358.55q.292.112.587.218.418.149.844.286.262.089.529.172.609.188 1.23.35.117.032.236.063.666.17 1.343.31c.161.035.325.063.487.094q.486.096.976.175a32 32 0 0 0 3.09.341c.162.01.323.024.485.031q.757.037 1.523.039c17.645 0 32-14.355 32-32s-14.355-32-32-32m0 56c-13.234 0-24-10.766-24-24s10.766-24 24-24 24 10.766 24 24-10.766 24-24 24m4-28h12v8h-12v12h-8v-12h-12v-8h12v-12h8zm-27.972 36H48v-16H32v-8h16v-32H32v-8h16V80H32v-8h16V40H32v-8h16V16h112v91.35a39.7 39.7 0 0 0-8-2.545V24H56v144h56.022a40.3 40.3 0 0 0 8.006 8m7.38-96-10.58 10.58-5.658-5.658L122 74.092V68l12-8 8 8-8 12h-6.593zm-55.065 38.343 20-20 11.313 11.314-20 20a8 8 0 0 1-11.313-11.314m45.648-4.695L87.163 82.82A11.9 11.9 0 0 1 82 84c-6.627 0-12-5.373-12-12 0-1.851.431-3.597 1.18-5.163l7.992 7.991a4 4 0 0 0 5.656-5.656l-7.991-7.992A11.9 11.9 0 0 1 82 60c6.627 0 12 5.373 12 12a11.9 11.9 0 0 1-1.18 5.163l31.84 31.839a40 40 0 0 0-6.669 4.646"/></svg>