<svg xmlns="http://www.w3.org/2000/svg" viewBox="0 0 192 192"><path d="M175.97 112v24h-24v-8h9.876c-4.508-5.019-11.005-8-17.877-8-13.234 0-24 10.766-24 24h-8c0-17.645 14.355-32 32-32 9.246 0 17.985 4.04 24 10.84V112h8zm-32 56c-6.872 0-13.369-2.98-17.878-8h9.877v-8h-24v24h8v-10.84c6.016 6.8 14.755 10.84 24 10.84 17.645 0 32-14.355 32-32h-8c0 13.234-10.766 24-24 24zm-27.142-77.42L127.408 80H134l8-12-8-8-12 8v6.093l-10.83 10.83zm-33.171 39.077 20-20-11.314-11.313-20 20a8 8 0 1 0 11.314 11.313M104 176v-8H56V24h96v80.802a39.7 39.7 0 0 1 8 2.536V16H48v16H32v8h16v32H32v8h16v32H32v8h16v32H32v8h16v16zm20.649-67.008L92.82 77.162A11.9 11.9 0 0 0 94 72c0-6.627-5.373-12-12-12a11.9 11.9 0 0 0-5.163 1.18l7.991 7.992a4 4 0 0 1-5.656 5.656l-7.992-7.991A11.9 11.9 0 0 0 70 72c0 6.627 5.373 12 12 12a11.9 11.9 0 0 0 5.163-1.18l30.815 30.815a40 40 0 0 1 6.67-4.643z"/></svg>