<svg xmlns="http://www.w3.org/2000/svg" xml:space="preserve" viewBox="0 0 192 192"><path d="M64 72h-8v-8h8zm0 8h-8v8h8zm0 16h-8v8h8zm48-12h-8v8h8zm0 20h-8v8h8zm41.404 57.026L128 81.364V160H16V32h32v16h24V36h24v28h26.463l-6.733-21.112 22.866-7.292 37.674 118.138zM96 72v64h24V72zM80 48v88h8V44h-8zm-40 8H24v80h16zM24 40v8h16v-8zm16 112v-8H24v8zm32-96H48v96h24zm16 96v-8h-8v8zm32 0v-8H96v8zm46.217-3.457-2.43-7.622-7.622 2.431 2.43 7.622zm-4.86-15.244-23.092-72.406-7.621 2.43 23.09 72.407zm-35.574-85.22 2.43 7.622 7.622-2.43-2.43-7.622z"/></svg>