<svg xmlns="http://www.w3.org/2000/svg" viewBox="0 0 192 192"><path d="M158.829 110.829 96 173.657l-62.829-62.828 5.658-5.658L96 162.343l57.171-57.172zM101.865 112H64V16h33.973c20.002 0 30.475 8.456 30.475 24.571 0 10.07-4.16 16.246-13.83 20.543 7.522 2.148 11.283 4.564 14.64 9.129 2.82 3.892 4.296 8.997 4.296 14.633 0 16.787-12.086 27.124-31.689 27.124M71.653 58.561h29.808c12.354 0 19.067-6.445 19.067-18.258 0-11.818-7.249-17.727-22.019-17.727H71.653zm0 46.858h31.284c14.234 0 22.69-7.653 22.69-20.406 0-13.027-8.051-19.87-23.226-19.87H71.653z"/></svg>