<svg xmlns="http://www.w3.org/2000/svg" viewBox="0 0 192 192"><path d="M53.172 54.828a4 4 0 1 1 5.657-5.656 4 4 0 0 1-5.657 5.656m22.627-22.627 5.657-5.657c-14.037-14.036-36.875-14.036-50.912 0L36.2 32.2c10.917-10.918 28.68-10.918 39.598 0zM64.485 43.515l5.657-5.657C66.365 34.081 61.342 32 56 32s-10.365 2.08-14.142 5.858l5.657 5.657C49.781 41.249 52.795 40 56 40s6.219 1.249 8.485 3.515M176 104h-8v16a23.84 23.84 0 0 1-7.03 16.97A23.84 23.84 0 0 1 144 144c-13.233 0-24-10.766-24-24V55.976c0-8.812-7.169-15.99-15.981-16h-.02c-4.27 0-8.285 1.661-11.306 4.68A15.9 15.9 0 0 0 88 55.975V68h12v24.31c7.515 4.746 12 13.121 12 23.69v59.999H56v-60c0-10.568 4.484-18.944 11.999-23.689V68h12V55.976a23.84 23.84 0 0 1 7.04-16.981A23.84 23.84 0 0 1 104 31.976h.03c13.218.016 23.971 10.782 23.971 24V120c0 8.822 7.178 16 16 16 4.273 0 8.291-1.665 11.313-4.687S160 124.273 160 120v-16h-8V68h24zm-72 12c0-12.336-7.664-20-20-20s-20 7.664-20 20v51.999h40v-52zM92 75.999H76v12.948c2.492-.617 5.165-.947 8-.947s5.51.33 8.001.947V75.999zM168 76h-8v20h8z"/></svg>