<svg xmlns="http://www.w3.org/2000/svg" viewBox="0 0 192 192"><path d="M32 116.322V96h-4c-6.617 0-12-5.383-12-12V40c0-6.617 5.383-12 12-12h88c6.617 0 12 5.383 12 12v44c0 6.617-5.383 12-12 12H57.403zM28 36c-2.206 0-4 1.794-4 4v44c0 2.206 1.794 4 4 4h12v11.678L54.597 88H116c2.206 0 4-1.794 4-4V40c0-2.206-1.794-4-4-4zm5.516 18.556h7.111q2.676 0 3.997 1.214 1.149 1.053 1.149 2.943 0 1.278-.51 2.052-.51.773-1.714 1.332 1.601.548 2.245 1.525.57.848.57 2.234 0 2.31-1.59 3.438-1.396.989-3.91.988h-7.348zm6.907 6.359q1.945 0 1.945-1.848 0-1.826-2.095-1.826h-3.298v3.674zm.183 6.682q1.17 0 1.762-.623.515-.537.515-1.494 0-2.062-2.406-2.062h-3.502v4.179zM56.3 54.309q2.17 0 3.91 1.042 1.697 1.03 2.654 2.846.977 1.848.977 4.168 0 3.867-2.417 6.166-2.095 1.998-5.263 1.998-3.6 0-5.737-2.535-1.848-2.213-1.847-5.543 0-2.34.999-4.222a7.2 7.2 0 0 1 2.717-2.868q1.773-1.052 4.007-1.052m-.16 2.836q-1.935 0-2.976 1.6-.915 1.386-.914 3.663 0 2.643 1.204 4.06 1.042 1.225 2.782 1.225 1.987 0 3.03-1.568.9-1.365.901-3.674 0-2.674-1.203-4.082-1.052-1.224-2.825-1.224zm12.492 8.325q.484 1.192 1.316 1.74c.832.548 1.277.548 2.165.548q1.407 0 2.159-.58a1.64 1.64 0 0 0 .655-1.354q0-.847-.666-1.257-.59-.375-2.191-.752-1.815-.408-2.621-.671a6 6 0 0 1-1.365-.618q-1.782-1.137-1.783-3.373 0-2.406 1.719-3.684 1.514-1.128 4.082-1.128 3.737 0 5.855 2.814l-2.858 1.58q-.623-.849-1.327-1.236c-.704-.387-1.019-.387-1.648-.387q-2.46 0-2.46 1.698 0 .74.596 1.144c.596.404 1.108.503 2.132.703q2.943.602 4.136 1.343 1.826 1.203 1.826 3.599 0 2.535-1.826 3.813-1.59 1.117-4.383 1.117-2.632 0-4.265-1.031-1.428-.912-2.288-2.74zm19.444 5.06q-3.685 0-5.747-2.471-1.795-2.16-1.794-5.586 0-3.867 2.352-6.166 2.04-1.998 5.124-1.998 3.04 0 4.845 1.675a7.4 7.4 0 0 1 1.558 2.224l-3.094 1.278q-.548-1.245-1.327-1.794-.78-.547-2.003-.547-1.934 0-2.922 1.557-.86 1.353-.86 3.706 0 2.718 1.14 4.093.997 1.192 2.728 1.192 1.29 0 2.094-.58c.804-.58.992-1.016 1.365-1.89L94.66 66.5q-.785 1.719-2.117 2.707-1.751 1.32-4.468 1.321zm9.388-15.974h3.524v6.38h5.972v-6.38h3.524v15.726h-3.524v-6.51h-5.972v6.51h-3.524zm-3.773 55.586h-4.447v-2.836h12.407v2.836h-4.437v12.89h-3.523zm18.928 12.89-1.02-2.997h-6.382l-1.031 2.997h-3.298l5.769-15.726h4.039l5.66 15.726zm-4.19-12.407-2.374 6.907h4.716zm10.13-3.32h3.524v12.891h6.928v2.836H118.56v-15.726zm12.848 0h3.523v6.779l5.35-6.778h3.91l-5.414 6.66 5.79 9.066h-3.942l-4.18-6.467-1.514 1.848v4.62h-3.523zm16.908 10.915q.482 1.192 1.316 1.74.832.548 2.164.548 1.407 0 2.16-.58a1.64 1.64 0 0 0 .655-1.354q0-.848-.666-1.257-.591-.375-2.192-.752-1.816-.408-2.62-.671a6 6 0 0 1-1.365-.618q-1.783-1.138-1.783-3.373 0-2.406 1.719-3.684 1.514-1.128 4.082-1.128 3.738 0 5.854 2.814l-2.857 1.58q-.624-.849-1.327-1.236-.704-.387-1.649-.387-2.46 0-2.46 1.698 0 .74.596 1.144c.596.404 1.108.503 2.133.703q2.943.603 4.135 1.343 1.827 1.203 1.827 3.599 0 2.535-1.827 3.813-1.59 1.117-4.382 1.117-2.633 0-4.265-1.031-1.429-.912-2.288-2.74zM164 84h-27.765v4.289c0 1.323-.217 2.52-.606 3.711H164c2.206 0 4 1.884 4 4.11v35.853c0 2.226-1.794 4.037-4 4.037h-36v16.12L101.098 136H84c-2.206 0-4-1.81-4-4.037V104h-8v27.963C72 138.641 77.383 144 84 144h15l37 22.301V144h28c6.617 0 12-5.36 12-12.037V96.11c0-6.677-5.383-12.11-12-12.11"/></svg>