<svg xmlns="http://www.w3.org/2000/svg" viewBox="0 0 192 192"><path d="M101.161 25.188c.35-.178 1.262-.518 2.179.152l44.422 29.976 4.474-6.631L107.99 18.83c-3.062-2.2-7.06-2.498-10.45-.774-3.419 1.735-5.54 5.176-5.54 8.98V44H80v16.519l-12.353 9.584-.245.275C65.208 72.844 64 76.058 64 79.425v79.74c0 9.283 8.093 16.836 18.041 16.836h28.08c9.86 0 17.88-7.546 17.88-16.822V79.445c0-3.496-1.151-6.716-3.241-9.066l-.246-.276L112 60.395V44h-12V27.036c0-1.135.813-1.67 1.161-1.848M120 79.445v79.734c0 4.947-4.34 8.822-9.88 8.822H82.04c-5.537 0-10.041-3.964-10.041-8.837V79.425c0-1.294.416-2.52 1.176-3.486L83.41 68h25.34l10.224 7.932c.664.877 1.026 2.111 1.026 3.514zM104 60H88v-8h16z"/></svg>