<svg xmlns="http://www.w3.org/2000/svg" viewBox="0 0 192 192"><path d="M155.01 36.372c-.81-3.684-3.582-6.577-7.256-7.562-3.701-.993-7.58.148-10.123 2.978l-11.339 12.616-8.924-8.02-11.042 12.285L90.73 47.54l-.366.041c-3.281.368-6.328 1.95-8.578 4.454l-53.303 59.307c-6.205 6.905-5.234 17.932 2.163 24.581l20.886 18.77c3.464 3.114 7.82 4.82 12.293 4.82l.277-.003c4.67-.073 8.923-1.983 11.972-5.376l53.3-59.303c2.337-2.601 3.633-5.766 3.648-8.91l.002-.37-2.816-15.583 10.958-12.195-8.924-8.02 11.338-12.617c.759-.846 1.722-.701 2.1-.599s1.284.458 1.518 1.568l13.001 51.99 7.762-1.94-12.952-51.783zm-37.04 11.31 11.9 10.694-5.347 5.95-11.9-10.696zm-30.233 9.7c.865-.962 1.992-1.595 3.205-1.806l12.918.936 18.849 16.94L124.615 84h-60.8zm-17.612 91.404c-1.544 1.72-3.728 2.687-6.148 2.725-2.55.067-5.066-.943-7.096-2.767l-20.886-18.77c-4.117-3.702-4.817-9.66-1.56-13.285L56.624 92h64.54z"/></svg>