<svg xmlns="http://www.w3.org/2000/svg" viewBox="0 0 192 192"><path d="m143.14 23.055-2.72 2.933c-27.282 29.422-41.668 35.47-55.58 41.32-11.96 5.029-23.257 9.778-40.457 28.33l-24.89 26.841c-3.89 4.196-3.642 10.775.553 14.666l36.903 34.218a10.12 10.12 0 0 0 7.32 2.714 10.13 10.13 0 0 0 7.092-3.257l25.012-26.974c17.332-18.69 21.326-30.26 25.556-42.508 4.681-13.561 9.988-28.931 36.694-58.546l2.642-2.93zm-28.774 75.672c-4.117 11.925-7.673 22.225-23.858 39.68L65.495 165.38a2.18 2.18 0 0 1-1.528.702 2.22 2.22 0 0 1-1.578-.585l-36.904-34.22a2.38 2.38 0 0 1-.127-3.36l24.89-26.841C66.275 83.792 76.315 79.57 87.94 74.683c5.11-2.148 10.468-4.403 16.594-7.887l16.403 15.21c-2.94 6.212-4.8 11.59-6.57 16.721zm10.39-24.091-13.171-12.213c5.858-3.931 12.434-9.093 20.072-16.228l7.628 7.073c-6.462 8.234-11.07 15.217-14.53 21.368zm19.58-27.595-6.918-6.414a306 306 0 0 0 6.132-6.281l6.505 6.032a320 320 0 0 0-5.72 6.663zM76.393 98.419a8.58 8.58 0 0 0-6.166-2.285 8.53 8.53 0 0 0-5.974 2.743l-22.272 24.018a8.54 8.54 0 0 0-2.284 6.165 8.53 8.53 0 0 0 2.743 5.975l14.792 13.717a8.56 8.56 0 0 0 5.838 2.287c2.31 0 4.613-.923 6.302-2.746l22.27-24.016a8.53 8.53 0 0 0 2.287-6.166 8.54 8.54 0 0 0-2.744-5.975L76.394 98.419zm9.384 20.418-22.271 24.017a.59.59 0 0 1-.834.031L47.88 129.168a.58.58 0 0 1-.189-.41.58.58 0 0 1 .157-.424l22.271-24.018a.59.59 0 0 1 .834-.03L85.747 118c.147.138.184.3.189.412a.58.58 0 0 1-.158.424zM151.917 88a4 4 0 1 1-8 0 4 4 0 0 1 8 0m20.082-8.001a4 4 0 1 1-8 0 4 4 0 0 1 8 0m-8-16a4 4 0 1 1 0-8 4 4 0 0 1 0 8m-48.193-40.674a4 4 0 1 1 7.731 2.058 4 4 0 0 1-7.731-2.058m-23.671-.865a4 4 0 1 1 7.731 2.057 4 4 0 0 1-7.731-2.057m0 20.512a4 4 0 1 1 7.731 2.058 4 4 0 0 1-7.731-2.058"/></svg>