<svg xmlns="http://www.w3.org/2000/svg" viewBox="0 0 192 192"><path d="M144.1 112c-17.6 0-32 14.4-32 32s14.4 32 32 32 32-14.4 32-32-14.4-32-32-32m0 56c-13.2 0-24-10.8-24-24s10.8-24 24-24 24 10.8 24 24-10.8 24-24 24m4-28h12v8h-12v12h-8v-12h-12v-8h12v-12h8zm-40.7 20c-1.1-2.5-1.9-5.2-2.5-8H40V68h28v1.6C68 81.9 78.2 92 90.7 92h10.7c12.5 0 22.7-10.1 22.7-22.4V68h28v37.1c2.8.6 5.5 1.4 8 2.5V68h16V32H16v36h16v92zm8.6-90.4c0 8.1-6.4 14.4-14.7 14.4H90.7C82.4 84 76 77.7 76 69.6V68h40zM24 60V40h144v20z"/></svg>