<svg xmlns="http://www.w3.org/2000/svg" viewBox="0 0 192 192"><path d="M40 64h-8V24h8zm16-32h-8v21h8zm15.975-16h-8v32h8zM48 121.373V82.697l25.14 13.537 5.906-5.906-24.258-13.062 17.229-8.69 18.556 10.225 5.889-5.89-15.79-8.7L96 56.48l11.23 5.664 5.956-5.956L96 47.52 40 75.765v53.608zm69.85-24.595L144 82.697v59.611l-44 23.077v-50.758l-8 8v42.758l-28.047-14.71-5.926 5.925L96 176.517l56-29.371V75.765l-8.733-4.405-25.418 25.418zm55.808-67.121-11.315-11.314-144 144 11.315 11.314zM144 25.373V24h-8v9.373zm-15.975 15.976V16h-8v32h1.348zM152 62.627V68h8V54.627z"/></svg>