<svg xmlns="http://www.w3.org/2000/svg" viewBox="0 0 192 192"><path d="M144 176c-17.645 0-32-14.355-32-32s14.355-32 32-32 32 14.355 32 32-14.355 32-32 32m0-56c-13.234 0-24 10.766-24 24s10.766 24 24 24 24-10.766 24-24-10.766-24-24-24M96 19.594 40 45.439v69.707l56 29.37 8.183-4.292a39.7 39.7 0 0 1 2.372-10.278L100 133.385V74.558l44-20.307V104c2.74 0 5.414.278 8 .805V45.439zM48 54.25l44 20.307v58.827l-44-23.077zm48 13.343L53.545 47.999l17.425-8.042 40.756 20.378zm25.028-11.552L80.272 35.664 96 28.404 138.455 48l-17.427 8.043zm19.266 91.023c0-3.158 1.01-4.869 4.078-6.974 2.5-1.71 3.201-2.674 3.201-4.385 0-1.973-1.358-3.288-3.42-3.288-2.368 0-3.946 1.315-4.735 4.077l-6.008-1.623c.79-2.717 1.798-4.252 3.596-5.656 1.93-1.49 4.472-2.28 7.498-2.28 6.14 0 10.086 3.29 10.086 8.376 0 3.2-1.227 5.13-4.954 7.63-2.545 1.71-3.071 2.5-3.071 4.56v.791h-6.27zm7.062 8.068c0 2.282-1.843 4.08-4.123 4.08a4.07 4.07 0 0 1-4.08-4.08 4.12 4.12 0 0 1 4.123-4.122c2.237 0 4.08 1.842 4.08 4.122"/></svg>