<svg xmlns="http://www.w3.org/2000/svg" viewBox="0 0 192 192"><path d="m140 157.7-10.8-10.8 5.7-5.7 5.2 5.2 13.2-13.2 5.7 5.7zm36-13.7c0-17.6-14.4-32-32-32s-32 14.4-32 32 14.4 32 32 32 32-14.4 32-32m-8 0c0 13.2-10.8 24-24 24s-24-10.8-24-24 10.8-24 24-24 24 10.8 24 24M48 60H16v8h32zm0 32H16v8h32zm0-16H24v8h24zm104-30.6v59.4c-2.6-.5-5.3-.8-8-.8V54.3l-44 20.3v58.8l6.6-3.4c-1.2 3.2-2 6.7-2.4 10.3l-8.2 4.3-56-29.4V108h8v2.3l44 23.1V74.6L43.1 52H40v-6.6l56-25.8zm-40.3 14.9L71 40l-17.4 8L96 67.6zM138.5 48 96 28.4l-15.7 7.3L121 56z"/></svg>