<svg xmlns="http://www.w3.org/2000/svg" viewBox="0 0 192 192"><path d="M140.587 52v8h-12v-8zM54 60h12v-8H54zm46-44h-8v12h8zm-29.893 8.465-5.652 5.661 8.719 8.705 5.652-5.662zm43.064 8.706 5.658 5.658 8.704-8.704-5.658-5.658zM88 96h16v-8H88zm8-59.999a21.86 21.86 0 0 0-15.557 6.443c-8.577 8.578-8.577 22.535 0 31.114.636.635 1.222 1.134 1.788 1.617l.544.467c.183.159.412.34.67.537.157.12.381.293.555.443V80h8v-4c0-3.339-2.58-5.32-3.682-6.167-.11-.084-.211-.159-.29-.227l-.608-.522c-.488-.415-.91-.774-1.32-1.184-5.458-5.46-5.458-14.34 0-19.8 2.645-2.644 6.16-4.1 9.9-4.1s7.256 1.456 9.9 4.1c5.458 5.46 5.458 14.34 0 19.8-.41.41-.832.769-1.32 1.184l-.605.521c-.081.07-.183.144-.292.228C102.581 70.68 100 72.661 100 76v4h8v-3.378c.174-.15.398-.323.556-.443.257-.198.486-.378.67-.537l.544-.467c.566-.483 1.151-.982 1.787-1.618 8.578-8.578 8.577-22.535 0-31.113A21.86 21.86 0 0 0 96 36.001m-5.996 78.217L37.78 96.81l-7.783 12.972L82.22 127.19l7.783-12.972zM100 126.442v36.009l52-17.334V121.55l-45.78 15.26zm-59.969-4.882v23.647L92 162.457v-36.015l-6.22 10.368zm114.19-24.75-52.225 17.408 7.783 12.972 52.225-17.408zm19.775 17.408L160 118.883v32l-63.998 21.332-63.97-21.235v-32.087l-14.028-4.675 15.328-25.545 38.524-12.842a30 30 0 0 0 2.854 3.325c.41.41.869.841 1.29 1.226v2.501L48.65 92 96 107.784 143.35 92 116 82.883v-2.5c.421-.385.88-.817 1.29-1.228a30 30 0 0 0 2.854-3.324l38.524 12.842z"/></svg>