<svg xmlns="http://www.w3.org/2000/svg" viewBox="0 0 192 192"><path d="M158.668 88.673 108 71.783v8.433L143.35 92l-45.57 15.19-1.78.594-1.78-.593L48.65 92 84 80.216v-8.432l-50.668 16.89-15.328 25.544L32 118.883v32l64 21.333 64-21.333v-32l13.996-4.665zm-128.672 21.11 7.783-12.973 52.225 17.408-7.783 12.972-52.225-17.408zM92 162.45l-52-17.333V121.55l45.78 15.26L92 126.44zm60-17.333-52 17.333v-36.009l6.22 10.369L152 121.55zm-42.22-17.927-7.784-12.972L154.22 96.81l7.783 12.972-52.225 17.408zm11.39-72.36L100 33.657V96h-8V33.657L70.829 54.829 65.17 49.17 96 18.343l30.829 30.828-5.658 5.658z"/></svg>