<svg xmlns="http://www.w3.org/2000/svg" viewBox="0 0 192 192"><path d="M158.669 88.673 124 77.117v8.433L143.35 92 96 107.784 48.65 92l16.866-5.622-6.24-6.353-25.944 8.648-15.328 25.545L32 118.883v32l64 21.333 64-21.333v-32l13.995-4.665zm-128.673 21.11 7.783-12.973 52.226 17.408-7.784 12.972-52.225-17.408zM92 162.45l-52-17.333V121.55l45.78 15.26L92 126.442zm60-17.333-52 17.333v-36.008l6.22 10.368L152 121.55zm-42.22-17.927-7.785-12.972 52.226-17.408 7.784 12.972-52.226 17.408zm15.392-80.361L116 37.657V84h-8V37.657l-9.172 9.172-5.656-5.658L112 22.343l18.828 18.828zM93.146 64.906l5.708 5.606L80 89.709 61.146 70.511l5.708-5.606L76 74.22V28h8v46.219z"/></svg>