<svg xmlns="http://www.w3.org/2000/svg" viewBox="0 0 192 192"><path d="M64 89.415v41.176l32 13.714 32-13.714V89.415L96 75.701zm49.846 2.638L96 99.7l-17.846-7.648L96 84.404zM72 98.119l20 8.571v27.197l-20-8.572V98.12zm28 35.768V106.69l20-8.571v27.196zm-38.375 17.768-27.34 12.15 11.2 4.481-2.97 7.428-23.715-9.485 9.486-23.714 7.428 2.97-4.345 10.863 27.006-12.003zM82.829 42.828l-5.658-5.656L96 18.342l18.829 18.83-5.658 5.656-9.171-9.17V64h-8V33.657zm90.37 123.4-23.714 9.486-2.97-7.428 11.2-4.48-27.34-12.15 3.25-7.311 27.006 12.003-4.345-10.863 7.428-2.97 9.486 23.714z"/></svg>