<svg xmlns="http://www.w3.org/2000/svg" viewBox="0 0 192 192"><path d="m100 74.558 44-20.307v49.748c2.74 0 5.414.277 8 .804V45.44L96 19.594 40 45.439v69.707l56 29.37 8.182-4.292a39.7 39.7 0 0 1 2.371-10.277L100 133.385zm-4-46.154L138.455 48l-17.427 8.043-40.756-20.378zm-4 104.98-44-23.076V54.25l44 20.307zM53.545 48l17.425-8.042 40.756 20.378L96 67.594zM152 128h9.877c-4.51-5.02-11.005-8-17.877-8-13.234 0-24 10.766-24 24s10.766 24 24 24 24-10.766 24-24h8c0 17.645-14.355 32-32 32s-32-14.355-32-32 14.355-32 32-32c9.245 0 17.984 4.04 24 10.84V112h8v24h-24z"/></svg>