<svg xmlns="http://www.w3.org/2000/svg" viewBox="0 0 192 192"><path d="M96 47.595 40 73.44V80h3.121L92 102.56v58.825l-44-23.077V136h-8v7.146l56 29.37 56-29.37V73.44zm0 8.81L138.455 76l-15.858 7.32L83.15 62.335zM53.545 76l20.484-9.454 39.448 20.983L96 95.595zM144 138.308l-44 23.077V102.56l44-20.307v56.056zM48 96H16v-8h32zm0 32H16v-8h32zm-24-16v-8h24v8zm34.828-62.828a4 4 0 1 1-5.657 5.656 4 4 0 0 1 5.657-5.656m-22.627-16.97-5.657-5.658c14.037-14.036 36.875-14.036 50.912 0L75.8 32.2c-10.917-10.918-28.68-10.918-39.598 0zm28.284 11.313C62.219 41.249 59.205 40 56 40s-6.219 1.249-8.485 3.515l-5.657-5.657C45.635 34.081 50.658 32 56 32s10.365 2.08 14.142 5.858z"/></svg>