<svg xmlns="http://www.w3.org/2000/svg" viewBox="0 0 192 192"><path fill-rule="evenodd" d="M43.549 129c1.611 0 3.194-.397 4.639-1.109C62.732 120.721 78.625 116 96.001 116s33.269 4.721 47.813 11.891c1.445.712 3.028 1.109 4.638 1.109h10.085a8 8 0 0 0 7.99-7.591l.276-5.409h5.198a4 4 0 0 0 4-4V96a4 4 0 0 0-4-4h-3.866l.57-10.283c.179-3.227-1.594-6.263-4.552-7.565-20.662-9.097-44.246-14.151-68.152-14.151S48.51 65.055 27.849 74.152c-2.958 1.302-4.731 4.338-4.552 7.565L23.867 92H20a4 4 0 0 0-4 4v16a4 4 0 0 0 4 4h5.198l.277 5.409a8 8 0 0 0 7.99 7.591zM92 68.051c-20.928.514-41.281 5.041-59.438 12.78a1.98 1.98 0 0 0-1.198 1.935l1.965 36.342A2 2 0 0 0 35.326 121h6.401c1.549 0 3.074-.367 4.474-1.03 14.158-6.708 29.34-11.394 45.799-11.905zm8 0c20.928.514 41.281 5.041 59.438 12.78a1.98 1.98 0 0 1 1.199 1.935l-1.966 36.342a2 2 0 0 1-1.997 1.892h-6.401c-1.549 0-3.074-.367-4.474-1.03-14.158-6.708-29.34-11.394-45.799-11.905z"/></svg>