<svg xmlns="http://www.w3.org/2000/svg" viewBox="0 0 192 192"><path d="M120 92c-15.44 0-28 12.56-28 28s12.56 28 28 28 28-12.56 28-28-12.56-28-28-28m0 48c-11.03 0-20-8.97-20-20s8.97-20 20-20 20 8.97 20 20-8.97 20-20 20m3.429-30.286a3.429 3.429 0 1 1-6.858 0 3.429 3.429 0 0 1 6.858 0M133.714 120a3.429 3.429 0 1 1-6.857 0 3.429 3.429 0 0 1 6.857 0m-10.285 10.286a3.429 3.429 0 1 1-6.858 0 3.429 3.429 0 0 1 6.858 0M113.143 120a3.429 3.429 0 1 1-6.857 0 3.429 3.429 0 0 1 6.857 0M120 64c-16.32 0-31.04 7.02-41.29 18.2l-6.76-6.76-2.83 2.82C58.93 88.45 52.96 101.74 52.11 116H46V72h22V16H16v56h22v52h14.16c1.03 13.95 6.96 26.92 16.96 36.92l2.83 2.83 6.38-6.38C88.59 168.8 103.47 176 120 176c30.88 0 56-25.12 56-56s-25.12-56-56-56M33.42 48.31c0-3.54 2.07-6.73 3.74-9.3l.36-.57c1.62-2.51 2.62-4.24 2.63-4.26L42 31l1.85 3.18c.01.02 1.01 1.75 2.63 4.26l.36.57c1.67 2.57 3.74 5.76 3.74 9.3C50.58 53.1 46.73 57 42 57s-8.58-3.9-8.58-8.69M73.39 151l-1.33 1.33A50 50 0 0 1 60.19 124a50 50 0 0 1-.19-4.41c0-1.2.04-2.4.13-3.59.75-10.79 4.89-20.92 11.93-29.14l1.66 1.66 5.76 5.76 1.14 1.14A38.2 38.2 0 0 0 72.25 116h-.08c-.11 1.32-.17 2.65-.17 4s.06 2.68.17 4h.17c.8 7.07 3.56 13.94 8.28 19.76l-1.45 1.45zM120 168c-14.33 0-27.21-6.31-36.01-16.29l7.8-7.8-2.83-2.83c-11.85-11.85-11.85-31.13 0-42.98l2.83-2.82-7.42-7.42C93.17 78.13 105.88 72 120 72c26.47 0 48 21.53 48 48s-21.53 48-48 48"/></svg>