<svg xmlns="http://www.w3.org/2000/svg" viewBox="0 0 192 192"><path d="M164 32v28h-28v-8h14.7C137 33.9 117.8 24 96 24c-39.7 0-72 32.3-72 72h-8c0-44.1 35.9-80 80-80 23.8 0 44.8 10.5 60 29.8V32zm4 64c0 39.7-32.3 72-72 72-21.8 0-41-9.9-54.7-28H56v-8H28v28h8v-13.8C51.2 165.5 72.2 176 96 176c44.1 0 80-35.9 80-80zm-62.7-26v3.3H100C99.3 88.2 87 100 72 100c-15.4 0-28-12.6-28-28 0-15 11.8-27.3 26.7-28v-5.4H74c16.4 0 31.3 15 31.3 31.4M92 73.3h-5.3V70c0-7.5-5.2-12.7-12.6-12.7h-3.3V52C60.2 52.7 52 61.4 52 72c0 11 9 20 20 20 10.6 0 19.3-8.2 20-18.7M72 64c-4.4 0-8 3.6-8 8s3.6 8 8 8 8-3.6 8-8-3.6-8-8-8m76 52c0 15.4-12.6 28-28 28s-28-12.6-28-28 12.6-28 28-28 28 12.6 28 28m-46.3-8 12.6 2.4c1.5-1.5 3.5-2.4 5.7-2.4s4.2.9 5.7 2.3l12.6-2.4c-3.1-7-10.1-12-18.3-12-8.2.1-15.2 5-18.3 12.1m14.3 27.6v-12.7c-1.8-1-3.2-2.8-3.7-4.8l-12.3-2.3v.2c0 9.7 6.9 17.7 16 19.6m24-19.6v-.2l-12.3 2.3c-.6 2.1-1.9 3.8-3.7 4.8v12.7c9.1-1.9 16-9.9 16-19.6"/></svg>