<svg xmlns="http://www.w3.org/2000/svg" xml:space="preserve" viewBox="0 0 192 192"><path d="M128.041 58.006A6.005 6.005 0 0 1 134.045 52a6 6 0 0 1 5.996 6.006 6 6 0 0 1-5.996 5.998 6 6 0 0 1-6.004-5.998m-50.04 5.998a5.997 5.997 0 0 0 5.995-5.996 6 6 0 0 0-5.994-6.004A6.004 6.004 0 0 0 72 58.008c0 3.31 2.69 5.996 6.002 5.996m14.02 42.017c0-7.708 6.271-13.979 13.979-13.979s13.98 6.271 13.98 13.979S113.707 120 106 120s-13.98-6.271-13.98-13.979m8 0c0 3.297 2.682 5.979 5.979 5.979s5.98-2.682 5.98-5.979-2.683-5.979-5.98-5.979-5.98 2.682-5.98 5.979M68 106c0-20.953 17.02-38 37.94-38s37.939 17.047 37.939 38-17.02 38-37.94 38S68 126.953 68 106m8 0c0 16.542 13.43 30 29.94 30s29.939-13.458 29.939-30-13.43-30-29.94-30S76 89.458 76 106m88-74v128H48V32zm-8 8H56v112h100zM16 48v96c0 8.822 7.178 16 16 16h8v-8h-8c-4.411 0-8-3.589-8-8V48c0-4.411 3.589-8 8-8h8v-8h-8c-8.822 0-16 7.178-16 16"/></svg>