<svg xmlns="http://www.w3.org/2000/svg" viewBox="0 0 192 192"><path d="M170.004 90a5.98 5.98 0 0 0-4.464 2H160v-4h-20V68h-16.002l-.016-28.059c0-9.097-8.93-23.941-15.985-23.941H91.984C84.93 16 76 30.82 76 39.902v.376l-4.594.926-4.303-20.865-39.83 8.588 4.239 20.324-2.451.494c-1.158.115-2.265.64-3.174 1.515A6.2 6.2 0 0 0 24 55.696L28.525 88H40v24h36v39.977C76 161.245 84.744 176 92.015 176h15.956c4.669 0 8.847-5.57 10.923-8.89 1.537-2.46 5.11-8.855 5.11-15.134L124 124h16v-20h20v-4h5.536c1.1 1.225 2.691 2 4.468 2A5.997 5.997 0 0 0 176 96.005 6.003 6.003 0 0 0 170.004 90M60.897 29.86l2.666 12.926-24.208 4.883-2.628-12.596 24.17-5.212zM35.475 80 32.26 57.26 76 48.44V80zM132 104v12h-16.001l.005 35.977c0 6.189-6.042 14.897-8.334 16.023H92.28c-2.262-1.05-8.28-9.738-8.28-16.023V104H48V88h36V39.902c0-5.904 6.07-14.718 8.32-15.902h15.364c2.289 1.154 8.298 9.826 8.298 15.943l.02 36.057H132z"/></svg>