<svg xmlns="http://www.w3.org/2000/svg" viewBox="0 0 192 192"><path d="M79.619 72.018a4 4 0 1 1 .761 7.963 161 161 0 0 0-42.934 10.162 4 4 0 0 1-2.893-7.459 169 169 0 0 1 45.065-10.666Zm32.762 0a4 4 0 0 0-.762 7.963 161 161 0 0 1 42.935 10.162 4 4 0 0 0 2.893-7.459 169 169 0 0 0-45.066-10.666M34.554 99.685a4 4 0 1 0 2.893 7.458 161 161 0 0 1 42.934-10.162 4 4 0 1 0-.761-7.963 169 169 0 0 0-45.065 10.666Zm21.51 10.272a4 4 0 1 0 1.873 7.777 162 162 0 0 1 22.444-3.753 4 4 0 1 0-.761-7.963 170 170 0 0 0-23.556 3.939m56.317-3.939a4 4 0 0 0-.762 7.963 162 162 0 0 1 22.445 3.753 4 4 0 1 0 1.873-7.777 170 170 0 0 0-23.556-3.939m0-17a4 4 0 0 0-.762 7.963 161 161 0 0 1 42.935 10.162 4 4 0 1 0 2.893-7.458 169 169 0 0 0-45.066-10.666Zm-92.21-17.226C17.579 73.126 16 75.824 16 78.739v53.26a8 8 0 0 0 8 8h4.686a8 8 0 0 0 5.657-2.343l5.071-5.071a2 2 0 0 1 1.414-.586h6.468a1.7 1.7 0 0 1 1.202.498c2.164 2.164 5.322 2.981 8.294 2.25 12.615-3.103 25.569-6.794 39.208-6.794s26.593 3.691 39.208 6.794c2.973.731 6.13-.086 8.294-2.25a1.7 1.7 0 0 1 1.202-.498h6.468a2 2 0 0 1 1.414.586l5.071 5.071a8 8 0 0 0 5.657 2.343H168a8 8 0 0 0 8-8v-53.26c0-2.915-1.579-5.614-4.171-6.947C149.099 60.1 123.32 52 96 52s-53.099 8.1-75.829 19.792M100 60.05c24.03.597 46.711 8.054 66.911 18.216A1.98 1.98 0 0 1 168 80.041V130a2 2 0 0 1-2 2h-1.857a2 2 0 0 1-1.414-.586l-4.487-4.486a10 10 0 0 0-7.07-2.928h-7.045a8.3 8.3 0 0 0-5.874 2.433 1.67 1.67 0 0 1-1.576.439c-11.843-2.88-23.988-6.584-36.677-6.872zM92 120c-12.689.288-24.835 3.991-36.678 6.871a1.67 1.67 0 0 1-1.576-.439A8.3 8.3 0 0 0 47.874 124h-7.046a10 10 0 0 0-7.071 2.929l-4.486 4.485a2 2 0 0 1-1.414.586H26a2 2 0 0 1-2-2V80.041c0-.75.419-1.438 1.089-1.775C45.288 68.103 67.97 60.646 92 60.05z"/></svg>