<svg xmlns="http://www.w3.org/2000/svg" viewBox="0 0 192 192"><path d="M64 39.94h20v24H64zM108 64h20V40h-20zm-44 87.97h20v-24H64zm44 .06h20v-24h-20zM44.003 40.002h8v24h-8zm8 112h-8v-24h8zm69.74 16h-51.48c-6.83 0-14.75-1.52-17.36-8h.51c3.63 0 6.59-2.96 6.59-6.59v-26.82c0-3.64-2.96-6.59-6.59-6.59h-1.41v-48h1.41c3.63 0 6.59-2.96 6.59-6.59v-26.82c0-3.64-2.96-6.59-6.59-6.59h-1.27c.76-5.31 4.76-8 11.9-8h63.92c7.14 0 11.14 2.69 11.9 8h-1.27a6.59 6.59 0 0 0-6.59 6.59v26.82c0 3.63 2.95 6.59 6.59 6.59h1.41v48h-1.41a6.59 6.59 0 0 0-6.59 6.59v26.82c0 3.63 2.95 6.59 6.59 6.59h.51c-2.61 6.48-10.53 8-17.36 8m18.26-104v-24h8v24zm9.41 8c3.63 0 6.59-2.96 6.59-6.59v-26.82c0-3.64-2.96-6.59-6.59-6.59h-1.5c-.87-9.92-8.35-16-19.95-16h-63.92c-11.6 0-19.08 6.08-19.95 16h-1.5a6.59 6.59 0 0 0-6.59 6.59v26.82c0 3.63 2.95 6.59 6.59 6.59h1.41v48h-1.41a6.59 6.59 0 0 0-6.59 6.59v26.82c0 3.63 2.95 6.59 6.59 6.59h1.94c2.22 10.12 11.49 16 25.73 16h51.48c14.23 0 23.51-5.88 25.73-16h1.94c3.63 0 6.59-2.96 6.59-6.59v-26.82c0-3.64-2.96-6.59-6.59-6.59h-1.41v-48zm-1.41 80h-8v-24h8z"/></svg>