<svg xmlns="http://www.w3.org/2000/svg" viewBox="0 0 192 192"><path d="M88.002 160C103.44 160 116 147.44 116 132.003 116 116.562 103.44 104 88.002 104 72.562 104 60 116.562 60 132.003 60 147.44 72.562 160 88.002 160m0-48C99.029 112 108 120.973 108 132.003 108 143.029 99.03 152 88.002 152 76.972 152 68 143.03 68 132.003 68 120.973 76.973 112 88.002 112m-.004 31.896c6.565 0 11.905-5.338 11.905-11.9 0-6.558-5.34-11.892-11.905-11.892-6.562 0-11.901 5.334-11.901 11.892 0 6.562 5.339 11.9 11.901 11.9m0-15.792a3.903 3.903 0 0 1 3.905 3.892c0 2.15-1.752 3.9-3.905 3.9a3.905 3.905 0 0 1-3.901-3.9 3.9 3.9 0 0 1 3.901-3.892m82.006-14.088a5.98 5.98 0 0 0-4.464 2H160V112h-12V88h-8v8h-7.993V80h-4.224a10 10 0 0 0 .202-2.004v-28c0-5.514-4.486-10-10-10H87.987v-16.01H55.97v16.01H54c-5.514 0-10 4.486-10 10v28c0 .686.07 1.356.202 2.004h-4.281v96h92.086v-32H140v8h8v-24h12v-3.984h5.536c1.1 1.225 2.691 2 4.468 2A5.997 5.997 0 0 0 176 120.02a6.003 6.003 0 0 0-5.996-6.005zM63.97 31.986h16.017v8.01H63.97zM52 49.996c0-1.084.916-2 2-2h63.985c1.084 0 2 .916 2 2v28c0 1.084-.916 2-2 2H54c-1.084 0-2-.916-2-2zM124.007 168H47.92V88h76.086v80zm8-32v-32H140v32zM28.889 160h3.11v8h-3.11C21.782 168 16 162.617 16 156v-52c0-6.617 5.782-12 12.889-12h3.088v8h-3.088c-2.696 0-4.889 1.794-4.889 4v52c0 2.206 2.193 4 4.889 4M56 104.007a3.996 3.996 0 1 1 7.993 0A3.99 3.99 0 0 1 59.999 108 3.994 3.994 0 0 1 56 104.007m24-8.004a4 4 0 1 1 8 0A3.996 3.996 0 0 1 84.003 100 4 4 0 0 1 80 96.003"/></svg>