<svg xmlns="http://www.w3.org/2000/svg" viewBox="0 0 192 192"><path d="M77.97 30.625 26.745 64.637 16 50.54V37.343l12.564 16.483 39.142-25.989L61.926 16h8.903zm75.855 73.388a11.43 11.43 0 0 1 1.175 8.64 11.43 11.43 0 0 1-5.21 6.972l-21.949 14.368 1.956 3.386c2.725-.76 5.61-.8 8.416-.05a15.9 15.9 0 0 1 9.715 7.456l6 10.392-3.464 2 4 6.928-6.928 4-4-6.928-6.928 4 4 6.928-6.928 4-4-6.928-3.464 2-6-10.392c-3.72-6.443-2.42-14.412 2.655-19.401l-2.295-3.976-3.766-5.755 28.833-18.87a3.48 3.48 0 0 0 1.613-2.137 3.48 3.48 0 0 0-.371-2.653l-.077-.138-9.296-17.341-26.295 15.181-4-6.927 60.62-35 4 6.927-27.394 15.817 9.382 17.5zm-23.753 41.843c-3.82 2.206-5.134 7.108-2.928 10.929l2 3.464 13.856-8-2-3.464a7.95 7.95 0 0 0-4.857-3.728 7.95 7.95 0 0 0-6.07.8zM94 91.71l2.36 4.067-40.05 21.843-1.946-3.405c-.168-.293-4.16-7.312-9.419-19.154-5.654-12.736-7.93-23.565-8.025-24.02l-.7-3.386 3.25-1.183c4.726-1.722 18.082-6.963 23.047-10.5 5.961-4.246 13.126-13.152 13.198-13.242l1.111-1.388 1.776-.105c7.644-.45 12.702-.699 16.766-.9 5.013-.247 8.635-.426 14.01-.824 10.559-.782 22.486-2.659 32.071-4.168 2.136-.336 4.155-.654 6.015-.937q.727-.111 1.384-.217c9.666-1.543 12.342.295 20.437 14.06l1.992 3.389-3.352 2.051C130.58 76.544 104.15 87.767 93.999 91.71zm-11.75-4.315 4.621-1.573c.291-.099 28.862-9.958 73.491-36.894-2-3.239-3.89-5.955-5.261-6.877-.825-.554-1.683-.488-4.99.04q-.684.111-1.442.227c-1.848.282-3.853.597-5.975.931-9.728 1.531-21.837 3.437-32.723 4.243-5.474.405-9.136.586-14.206.837-3.73.184-8.303.41-14.952.794-2.426 2.885-8.264 9.528-13.654 13.366-5.112 3.643-16.048 8.093-21.596 10.236 1.057 4.01 3.2 11.217 6.697 19.091 2.972 6.697 5.554 11.847 7.191 14.98l25.867-14.11z"/></svg>