<svg xmlns="http://www.w3.org/2000/svg" viewBox="0 0 192 192"><path d="M153.984 148.235a11.97 11.97 0 0 0 2.016-6.657v-67.18L111.711 28H92V16H60v12h-.815L36 54.497v87.08c0 2.378.697 4.68 2.016 6.657L39.192 150l-1.176 1.765A11.97 11.97 0 0 0 36 158.422V164c0 6.617 5.383 12 12 12h95c6.925 0 13-5.607 13-12v-5.578c0-2.377-.697-4.679-2.016-6.657L152.43 150l1.175-1.28.38-.485zM148 141.578c0 .706-.185 1.393-.536 2L141.57 150l5.893 6.422c.351.607.536 1.294.536 2V164c0 1.944-2.57 4-5 4H48c-2.206 0-4-1.794-4-4v-5.578c0-.792.232-1.56.672-2.219L48.808 150l-4.136-6.204a4 4 0 0 1-.672-2.218V57.503L62.815 36h45.474L148 77.603zM104 106c0 5.523-4.477 10-10 10s-10-4.477-10-10 4.477-10 10-10 10 4.477 10 10m29-.171C133 83.867 115.133 66 93.171 66h-4v6.349C72.703 74.7 60 88.892 60 106c0 18.748 15.252 34 34 34 17.453 0 31.87-13.22 33.779-30.171H133zM94 132c-14.336 0-26-11.664-26-26 0-12.686 9.135-23.273 21.171-25.543V87.2h4c10.563 0 19.829 8.705 19.829 18.63v4h6.716C117.859 122.356 107.036 132 94 132"/></svg>