<svg xmlns="http://www.w3.org/2000/svg" viewBox="0 0 192 192"><path d="M96 64c-17.645 0-32 14.355-32 32s14.355 32 32 32 32-14.355 32-32-14.355-32-32-32m0 56c-13.234 0-24-10.766-24-24s10.766-24 24-24 24 10.766 24 24-10.766 24-24 24m80-24c0-44.112-35.888-80-80-80h-4v12.127C56.36 30.207 28 59.85 28 96c0 37.495 30.505 68 68 68 36.151 0 65.794-28.36 67.873-64H176zm-80 60c-33.084 0-60-26.916-60-60 0-31.739 24.776-57.785 56-59.852V52h4c24.262 0 44 19.738 44 44v4h15.852c-2.067 31.224-28.113 56-59.852 56m51.848-64C145.899 66.51 125.49 46.1 100 44.152V24.11c36.523 2.01 65.88 31.367 67.89 67.89zM100 84a4 4 0 1 1-8 0 4 4 0 0 1 8 0m12 12a4 4 0 1 1-8 0 4 4 0 0 1 8 0m-12 12a4 4 0 1 1-8 0 4 4 0 0 1 8 0M88 96a4 4 0 1 1-8 0 4 4 0 0 1 8 0"/></svg>