<svg xmlns="http://www.w3.org/2000/svg" viewBox="0 0 192 192"><path d="M175.964 83.002c-.51-6.15-5.68-11-11.96-11-6.62 0-12 5.38-12 12h-8v-12.5c0-6.34-5.16-11.5-11.5-11.5h-1c-2.86 0-5.48 1.05-7.5 2.79l-.006.005a11.44 11.44 0 0 0-7.494-2.795h-1a11.44 11.44 0 0 0-7.5 2.8 11.44 11.44 0 0 0-7.5-2.8h-1a11.44 11.44 0 0 0-7.5 2.8 11.44 11.44 0 0 0-7.5-2.8h-1c-6.342 0-11.5 5.159-11.5 11.5v1.978a64 64 0 0 0-2.491-1.066A64.4 64.4 0 0 0 46.03 68H16v56h24.24v-4c0-9.27 7.05-15.998 16.764-15.998 1.061 0 2.05.051 3 .13v27.87h26.343l36.328 36.328 5.657-5.657-38.672-38.671H68.004v-16h12v-36.5c0-1.93 1.57-3.5 3.5-3.5h1c1.93 0 3.5 1.57 3.5 3.5v16.5h8v-16.5c0-1.93 1.57-3.5 3.5-3.5h1c1.93 0 3.5 1.57 3.5 3.5v16.5h8v-16.5c0-1.93 1.57-3.5 3.5-3.5h1c1.93 0 3.5 1.57 3.5 3.5v16.5h8v-16.5c0-1.93 1.57-3.5 3.5-3.5h1c1.93 0 3.5 1.57 3.5 3.5v50.157l21.671 21.67 5.657-5.656-19.328-19.329v-10.342h16.77c8.39 0 15.23-6.83 15.23-15.23v-9.77zM32.553 116H24V92.656l12.947 12.948A23.36 23.36 0 0 0 32.553 116m39.45-31.998v15.56c-3.765-2.382-8.69-3.56-15-3.56-5.38 0-10.246 1.511-14.22 4.123L24 81.343V76h22.03a56.4 56.4 0 0 1 20.572 3.865c.632.247 2.09.874 5.402 2.407v1.73zm96 9.71v.05c0 .05 0 .13-.01.24-.02.34-.1.92-.36 1.44-.05.11-.12.22-.19.32-.15.22-.41.69-.58.89a7.23 7.23 0 0 1-6.09 3.35h-16.77v-8h16v-8c0-2.21 1.79-4 4-4s4 1.79 4 4zm0-.94v1.23h-.01"/></svg>