<svg xmlns="http://www.w3.org/2000/svg" xml:space="preserve" viewBox="0 0 192 192"><path d="M170.004 126a5.98 5.98 0 0 0-4.464 2H160v-4h-16v-16h-8V88H76v-6c0-1.599-.621-3.09-1.75-4.199-1.196-1.176-2.812-1.789-4.672-1.775l-.364.007-6.6 1.33-3.511-17.024-39.83 8.588 3.438 16.485-1.65.333c-1.158.115-2.265.64-3.174 1.515A6.2 6.2 0 0 0 16 91.696L20.422 124H32v24h36v28h68v-20h8v-16h16v-4h5.536c1.1 1.225 2.691 2 4.468 2a5.997 5.997 0 0 0 5.996-5.995 6.003 6.003 0 0 0-5.996-6.005M52.897 69.86l1.874 9.086-24.217 4.884-1.827-8.757zM27.393 116l-3.14-22.738L68 84.44V116H27.393M136 124v24h-8v20H76v-28H40v-16h36V96h52v20h8z"/></svg>