<svg xmlns="http://www.w3.org/2000/svg" viewBox="0 0 192 192"><path d="M96 88c-19.85 0-36-16.15-36-36s16.15-36 36-36 36 16.15 36 36-16.15 36-36 36m0-64c-15.44 0-28 12.56-28 28s12.56 28 28 28 28-12.56 28-28-12.56-28-28-28m-6.026 100.019c-7.72 0-14-6.28-14-14s6.28-14 14-14 14 6.28 14 14-6.28 14-14 14m0-20c-3.308 0-6 2.691-6 6s2.692 6 6 6 6-2.691 6-6-2.691-6-6-6M54 112c-9.926 0-18-8.075-18-18s8.074-18 18-18 18 8.075 18 18-8.075 18-18 18m0-28c-5.514 0-10 4.486-10 10s4.486 10 10 10 10-4.486 10-10-4.486-10-10-10m40 83.981c-9.925 0-18-8.075-18-18s8.075-18 18-18 18 8.075 18 18-8.075 18-18 18m0-28c-5.514 0-10 4.486-10 10s4.486 10 10 10 10-4.486 10-10-4.487-10-10-10m36.01 4.03c-12.136 0-22.01-9.87-22.01-22s9.874-22 22.01-22 22.01 9.868 22.01 22-9.875 22-22.01 22m0-36c-7.725 0-14.01 6.28-14.01 14s6.285 14 14.01 14 14.01-6.281 14.01-14-6.286-14-14.01-14M58 176c-7.72 0-14-6.28-14-14s6.28-14 14-14 14 6.28 14 14-6.28 14-14 14m0-20c-3.309 0-6 2.691-6 6s2.691 6 6 6 6-2.691 6-6-2.692-6-6-6"/></svg>