<svg xmlns="http://www.w3.org/2000/svg" viewBox="0 0 192 192"><path d="M84 49.2V45c0-6.617-5.383-12-12-12s-12 5.383-12 12v24.595L31.117 101.58a12.88 12.88 0 0 0-3.327 9.35 12.88 12.88 0 0 0 4.26 8.965l36.614 33.064a12.92 12.92 0 0 0 8.685 3.337 12.94 12.94 0 0 0 9.63-4.27l49.808-55.157zM84 93c0 2.206-1.794 4-4 4s-4-1.794-4-4 1.794-4 4-4 4 1.794 4 4M68 45c0-2.206 1.794-4 4-4s4 1.794 4 4v6.877l-8 8.86zm13.041 101.664a4.93 4.93 0 0 1-3.434 1.632 4.95 4.95 0 0 1-3.582-1.275l-36.613-33.063a4.93 4.93 0 0 1-1.632-3.435 4.94 4.94 0 0 1 1.274-3.581L76 63.814V81.7c-4.653 1.653-8 6.087-8 11.3 0 6.617 5.383 12 12 12s12-5.383 12-12c0-5.213-3.347-9.647-8-11.3V59.98l41.488 37.465-44.447 49.22zm65.672-38.603L144 105.556l-2.713 2.505c-.543.5-13.287 12.41-13.287 25.093 0 8.822 7.178 16 16 16s16-7.178 16-16c0-12.682-12.744-24.592-13.287-25.093M144 141.154c-4.411 0-8-3.59-8-8 0-5.826 4.538-12.379 8-16.368 3.463 3.991 8 10.543 8 16.368 0 4.41-3.589 8-8 8"/></svg>