<svg xmlns="http://www.w3.org/2000/svg" viewBox="0 0 192 192"><path d="m100 69.373-8 8v-9.25c-12.837.71-23.55 4.61-28 6.471v30.78l-8 8V108H32v-8h24V82.425L35.15 71.546l3.7-7.092L56 73.4v-3.873l2.21-1.106c.28-.139 3.136-1.547 7.81-3.173.204-8.251 3.753-15.684 9.344-20.993L68.672 34.22l6.656-4.438 6.518 9.777C86.065 37.29 90.884 36 96 36s9.935 1.29 14.154 3.558l6.518-9.777 6.656 4.438-6.692 10.037a30.2 30.2 0 0 1 3.924 4.557l-5.781 5.781C110.914 48.254 103.953 44 96 44c-11.043 0-20.208 8.179-21.764 18.797C80.359 61.255 87.842 60 96 60c4.377 0 8.55.368 12.432.941l-7.265 7.265zm36 13.1 21.79-10.895-3.58-7.156-8.012 4.007L128 86.627V120c0 16.29-12.237 29.765-28 31.741v-37.114l-8 8v29.114c-7.562-.948-14.307-4.547-19.285-9.83l-5.656 5.657C74.349 155.218 84.623 160 96 160c18.37 0 33.876-12.45 38.55-29.353l18.166 12.637 4.568-6.568-21.332-14.84q.047-.933.048-1.876v-12h24v-8h-24V82.472zm37.657-52.816-11.314-11.314-144 144 11.314 11.314z"/></svg>