<svg xmlns="http://www.w3.org/2000/svg" viewBox="0 0 192 192"><path d="m141.604 92.335-64.001-28c-.05-.021-.102-.035-.152-.055-.078-.03-.15-.07-.23-.095-.028-.009-.057-.011-.084-.02q-.057-.013-.114-.026a4 4 0 0 0-.747-.124c-.052-.003-.104-.01-.157-.01a4 4 0 0 0-.536.022 4 4 0 0 0-.379.055q-.054.012-.11.027c-.416.097-.813.26-1.18.485q-.052.028-.103.058l-.04.03a4 4 0 0 0-.445.35 4 4 0 0 0-.244.235c-.059.063-.11.13-.165.196-.057.069-.12.13-.172.204L52.748 93.625a4 4 0 0 0-.747 2.328l.004 76.052a4 4 0 0 0 4 4l19.997.001c.02 0 .037-.005.055-.005l63.944-.001a4 4 0 0 0 4-4V96a4 4 0 0 0-2.397-3.665M72 168.005H60.005l-.004-70.77L72 80.462v87.544zm64.001-.005H80.003L80 102.665V74.116l56.001 24.5zm-24-8h-8v-56h8zM96 160h-8v-56h8zm32 0h-8v-56h8zm40.57-108.402A11.92 11.92 0 0 0 160.12 48c-2.672-.047-5.233.827-7.34 2.427l-8.878-4.664q.087-.796.096-1.606a16 16 0 0 0-.106-1.912l8.891-4.671a11.97 11.97 0 0 0 7.216 2.42c3.112 0 6.224-1.2 8.57-3.593 4.632-4.726 4.556-12.338-.169-16.97A11.92 11.92 0 0 0 160.004 16h-.122a11.92 11.92 0 0 0-8.45 3.6c-3.011 3.07-4.02 7.36-3.069 11.26l-7.347 3.86a16 16 0 0 0-1.59-1.923A15.9 15.9 0 0 0 128.157 28l-.162-.001a15.9 15.9 0 0 0-11.197 4.574A15.9 15.9 0 0 0 112.53 40h-9.23a11.9 11.9 0 0 0-2.718-4.388A11.92 11.92 0 0 0 92.137 32c-3.22-.02-6.233 1.178-8.524 3.418-2.293 2.24-3.575 5.24-3.612 8.445s1.178 6.233 3.418 8.525a11.97 11.97 0 0 0 8.583 3.606c3.027 0 6.057-1.136 8.387-3.413a11.9 11.9 0 0 0 2.91-4.582h9.228a15.9 15.9 0 0 0 4.048 7.2 15.9 15.9 0 0 0 11.267 4.799h.162a15.9 15.9 0 0 0 13.014-6.713l7.338 3.854a11.92 11.92 0 0 0 3.076 11.26A11.92 11.92 0 0 0 160.004 72a11.92 11.92 0 0 0 8.398-3.431c4.725-4.632 4.8-12.246.168-16.97zM157.144 25.2a3.97 3.97 0 0 1 2.816-1.2h.04c1.054 0 2.046.405 2.8 1.144a4.005 4.005 0 0 1 .056 5.657 4.006 4.006 0 0 1-5.657.056 4.005 4.005 0 0 1-.055-5.657M94.796 46.86a4.005 4.005 0 0 1-5.656-.065c-.746-.764-1.151-1.773-1.139-2.84s.44-2.069 1.204-2.816A3.97 3.97 0 0 1 92 39.999h.046a3.98 3.98 0 0 1 2.815 1.205 4.004 4.004 0 0 1-.065 5.656m38.805 2.85c-1.526 1.497-3.537 2.32-5.68 2.288a7.95 7.95 0 0 1-5.633-2.399c-3.088-3.15-3.038-8.225.111-11.313A7.95 7.95 0 0 1 128.08 36a7.95 7.95 0 0 1 5.633 2.399c1.496 1.526 2.309 3.543 2.288 5.68s-.874 4.137-2.4 5.633zm29.2 13.146a3.9 3.9 0 0 1-2.84 1.144 3.97 3.97 0 0 1-2.816-1.2A3.98 3.98 0 0 1 156 59.96a3.97 3.97 0 0 1 1.2-2.817 3.97 3.97 0 0 1 2.8-1.144h.041c1.068.01 2.068.437 2.816 1.2s1.155 1.771 1.144 2.84a3.97 3.97 0 0 1-1.2 2.817"/></svg>