<svg xmlns="http://www.w3.org/2000/svg" viewBox="0 0 192 192"><path d="M88 68H32v32h56zm-8 24H40V76h40zm40-4V76h-16v20h-8V68h32v20zm-88 56h32v-32H32zm8-24h16v16H40zm54 32h2v8H16V52.9l84.5-21.1L144 53.5V84h-8V58.5L99.5 40.2 24 59.1V152h48v-40h20v8H80v32zm81.5-22.3-.4-2.6-8.6-2.2c-.3-.8-.7-1.7-1-2.5l4.5-7.7-1.5-2.1c-2.5-3.4-5.5-6.4-8.9-8.9l-2.1-1.5-7.7 4.5c-.8-.4-1.6-.7-2.5-1l-2.3-8.6-2.6-.4q-6.3-1.05-12.6 0l-2.6.4-2.2 8.6c-.8.3-1.7.7-2.5 1l-7.7-4.5-2.1 1.5c-3.4 2.5-6.4 5.5-8.9 8.9l-1.5 2.1 4.5 7.7c-.4.8-.7 1.6-1 2.5l-8.6 2.3-.4 2.6c-.3 2.1-.5 4.2-.5 6.3s.2 4.2.5 6.3l.4 2.6 8.6 2.2c.3.8.7 1.7 1 2.5l-4.5 7.7 1.5 2.1c2.5 3.4 5.5 6.4 8.9 8.9l2.1 1.5 7.7-4.5c.8.4 1.6.7 2.5 1l2.3 8.6 2.6.4c2.1.3 4.2.5 6.3.5s4.2-.2 6.3-.5l2.6-.4 2.2-8.6c.8-.3 1.7-.7 2.5-1l7.7 4.5 2.1-1.5c3.4-2.5 6.4-5.5 8.9-8.9l1.5-2.1-4.5-7.7c.4-.8.7-1.6 1-2.5l8.6-2.3.4-2.6c.3-2.1.5-4.2.5-6.3s-.2-4.2-.5-6.3m-7.6 8.8-7.8 2-.6 2.2q-.75 2.7-2.1 5.1l-1.1 2 4.1 7c-1.1 1.3-2.3 2.5-3.5 3.5l-7-4.1-2 1.1q-2.4 1.35-5.1 2.1l-2.2.6-2 7.8c-1.7.1-3.3.1-5 0l-2-7.8-2.2-.6q-2.7-.75-5.1-2.1l-2-1.1-7 4.1c-1.3-1.1-2.5-2.3-3.5-3.5l4.1-7-1.1-2q-1.35-2.4-2.1-5.1l-.6-2.2-7.8-2c-.1-.8-.1-1.7-.1-2.5s0-1.7.1-2.5l7.8-2 .6-2.2q.75-2.7 2.1-5.1l1.1-2-4.1-7c1.1-1.3 2.3-2.5 3.5-3.5l7 4.1 2-1.1q2.4-1.35 5.1-2.1l2.2-.6 2-7.8c1.7-.1 3.3-.1 5 0l2 7.8 2.2.6q2.7.75 5.1 2.1l2 1.1 7-4.1c1.3 1.1 2.5 2.3 3.5 3.5l-4.1 7 1.1 2q1.35 2.4 2.1 5.1l.6 2.2 7.8 2c.1.8.1 1.7.1 2.5s0 1.7-.1 2.5M140 148c0 2.2-1.8 4-4 4s-4-1.8-4-4 1.8-4 4.1-4c2.1 0 3.9 1.8 3.9 4m0-28v8l-1.3 12h-5.5l-1.3-12v-8z"/></svg>