<svg xmlns="http://www.w3.org/2000/svg" viewBox="0 0 192 192"><path d="M75.178 118.045c-3.62-.547-13.156-2-13.156-2l-.603-.045C56.226 116 52 120.935 52 127v2c0 6.065 4.226 11 9.42 11h13.16c5.194 0 9.42-4.935 9.42-11 0-5.936-3.38-10.134-8.822-10.955M74.58 132H61.419c-.433 0-1.419-1.133-1.419-3v-2c0-1.7.818-2.792 1.292-2.973 1.97.3 9.552 1.454 12.691 1.928.851.129 2.017.305 2.017 3.045 0 1.867-.986 3-1.42 3m56-16-.603.045s-9.535 1.453-13.156 2c-5.442.821-8.822 5.02-8.822 10.955 0 6.065 4.226 11 9.42 11h13.16c5.194 0 9.42-4.935 9.42-11v-2c0-6.065-4.226-11-9.42-11zm1.42 13c0 1.867-.986 3-1.42 3h-13.16c-.434 0-1.42-1.133-1.42-3 0-2.74 1.166-2.917 2.017-3.045 3.139-.474 10.72-1.628 12.691-1.928.474.18 1.292 1.273 1.292 2.973zm27.999-89c-2.313 0-4.215.566-5.787 1.446-1.022-4.427-2.59-8.673-4.988-11.797-4.449-6.32-14.917-10.518-31.119-12.477-11.072-1.339-20.954-1.18-22.105-1.155-1.15-.024-11.033-.184-22.105 1.155-16.202 1.959-26.67 6.156-31.12 12.477-2.396 3.123-3.965 7.37-4.987 11.795C36.217 40.566 34.314 40 32 40c-5.898 0-12 4.585-12 12.258v23.449A4.295 4.295 0 0 0 24.287 80H36v74c-.001 14.543 2.13 18.497 3.988 20.317 1.11 1.088 2.52 1.683 3.984 1.683l.109-.001c1.32-.027 4.536-.016 7.372-.007 1.336.005 2.629.019 3.547.008 7.038-.001 8.672-9.556 8.95-20.001h64.098c.278 10.445 1.912 20 8.95 20.001.958.01 2.212-.003 3.547-.008 2.837-.008 6.052-.018 7.372.007l.11.001c1.462 0 2.873-.595 3.983-1.683 1.86-1.819 3.99-5.773 3.99-20.317V80h11.714A4.295 4.295 0 0 0 172 75.705V52.258C172 44.585 165.898 40 160 40zM49.157 34.474l.132-.179c5.653-8.166 31.587-10.643 46.614-10.278l.098.002.096-.002c15.014-.37 40.961 2.112 46.614 10.278l.132.18c3.845 4.943 4.98 15.727 5.181 23.027l-.007 5-.013.336h.013l-.004 2.575H148v4.622c-.01 6.816-4.658 12.813-12.134 15.655C119.487 91.916 96.232 92 96 92s-23.455-.072-39.866-6.31c-7.472-2.84-12.118-8.833-12.133-15.644V56.6c.265-7.255 1.458-17.37 5.156-22.125zM28.001 72.001V52.258c0-3.124 2.392-4.258 4-4.258 2.98 0 3.801 2.583 4 3.557v4.592a92 92 0 0 0 0 6.993V68H36v4.001zm118.652 95.986c-1.647-.008-3.996 0-6.132.006-.95.003-1.86.006-2.65.007-.564-1.104-1.871-4.866-1.871-16v-4H56v4c0 11.134-1.307 14.896-1.872 16-.788-.001-1.698-.004-2.649-.007a860 860 0 0 0-6.132-.006C44.859 166.628 44 162.964 44 154V87.553c2.577 2.327 5.698 4.25 9.29 5.615C71.061 99.923 94.992 100 96 100s24.939-.077 42.709-6.832c3.592-1.366 6.713-3.288 9.29-5.615V154c0 8.963-.858 12.627-1.346 13.986zM164 72l-8-.001v-1.962l.001-.025v-4.599H156v-2.271c.036-.824.126-3.456 0-6.993v-4.567c.228-1.088 1.07-3.582 4-3.582 1.608 0 4 1.134 4 4.258z"/></svg>