<svg xmlns="http://www.w3.org/2000/svg" viewBox="0 0 192 192"><path d="m92 95.76 8 3.37V108H84.612l7.348 51.434-7.92 1.132L76.53 108H39.47l-7.51 52.566-7.92-1.132L31.388 108H16V32h84v41.08l-8-3.37V40H24v60h68zM176 84v28h-8v48h-8v-56h8V84c0-8.822-7.178-16-16-16a16.01 16.01 0 0 0-14.67 9.602c-.827 1.89-6.65 16.447-9.615 23.88l-7.43-2.963c.351-.883 8.63-21.64 9.714-24.12a24 24 0 0 1 13.514-12.847l-.003-.002C139 58.72 136 53.7 136 48c0-8.82 7.18-16 16-16s16 7.18 16 16c0 5.7-3 10.72-7.51 13.55l-.006.004C169.542 64.989 176 73.752 176 84m-32-36c0 4.41 3.59 8 8 8s8-3.59 8-8-3.59-8-8-8-8 3.59-8 8m-8 112h8v-56h-8zM92 78.39l-14.45-6.08-3.1 7.38L92 87.08l8 3.37 12.45 5.24 3.1-7.38L100 81.76zM49.32 92v-5.76c-6.27-.41-11.09-3.11-13.32-7.42l7.1-3.62c1.49 2.64 3.34 3.9 6.22 4.31v-6.73c-3.85-.69-5.71-1.34-7.61-2.59-2.74-1.77-4.09-4.37-4.09-7.85 0-6.08 4-9.61 11.7-10.26V48h3.62v4.18c4.87.55 8.36 2.64 10.81 6.36l-6.49 3.85c-1.44-1.95-2.56-2.83-4.32-3.39v6.45c4.04.74 5.99 1.39 7.84 2.55 2.7 1.68 3.9 4.09 3.9 7.66 0 2.97-.97 5.53-2.83 7.29-1.9 1.86-4.55 2.78-8.91 3.25V92zm3.62-12.44c2.6-.37 3.85-1.3 3.85-2.97 0-1.62-.97-2.46-3.85-3.2zm-3.62-14.67v-6.21c-2.78.27-4.04 1.2-4.04 2.97 0 1.67 1.07 2.55 4.04 3.24"/></svg>