<svg xmlns="http://www.w3.org/2000/svg" viewBox="0 0 192 192"><path d="M96 175.962c-20.487 0-40.973-7.797-56.57-23.393-31.19-31.193-31.19-81.945 0-113.138 31.193-31.19 81.945-31.192 113.138 0 31.192 31.193 31.192 81.945 0 113.138-15.596 15.596-36.083 23.393-56.568 23.393M95.999 24c-19.231 0-37.312 7.49-50.911 21.088-28.073 28.073-28.073 73.75 0 101.824C58.687 160.51 76.768 168 95.999 168s37.313-7.49 50.912-21.088c28.073-28.073 28.073-73.75 0-101.824C133.312 31.49 115.23 24 95.999 24M56.811 66.955c-1.038-1.622-2.239-2.012-4.25-2.012-1.883 0-2.888.617-2.888 1.785 0 1.136.81 1.655 3.31 2.142 3.568.68 5.126 1.135 6.489 1.979 1.947 1.2 2.823 2.92 2.823 5.516 0 4.9-3.31 7.592-9.345 7.592-4.997 0-8.274-1.298-10.189-4.737l5.354-2.596c.876 1.882 2.304 2.402 4.64 2.402 2.141 0 3.407-.747 3.407-2.012 0-1.136-.876-1.72-3.277-2.174-3.374-.65-4.672-1.039-6.035-1.785-2.11-1.168-3.115-2.985-3.115-5.678 0-4.575 3.31-7.365 8.76-7.365 4.284 0 7.399 1.298 9.313 4.38zm7.434-1.46v-5.127h18.852v5.127h-6.23v18.073h-6.392V65.495zM87.61 83.568h-5.905l8.372-23.2h7.527l8.21 23.2h-6.782l-1.266-3.926h-8.858zm2.759-8.436h5.97l-2.953-9.053zm28.98-14.764c5.256 0 8.371 2.531 8.371 6.782 0 3.18-1.233 4.932-4.088 5.905 2.336.746 2.952 1.655 3.828 5.71.682 2.856 1.071 4.09 1.525 4.673v.13h-6.554c-.519-.909-1.038-2.466-1.492-4.575-.65-3.018-1.2-3.667-3.05-3.667h-2.953v8.242h-6.392v-23.2zm-.811 10.383c1.979 0 3.05-.973 3.05-2.79 0-.941-.293-1.655-.844-2.142-.552-.454-1.136-.583-2.499-.583h-3.309v5.515zm11.848-5.256v-5.127h18.851v5.127h-6.23v18.073h-6.391V65.495zM152 92H40v8h112zm-86.04 22.96c-1.04-1.627-2.244-2.017-4.26-2.017-1.886 0-2.894.618-2.894 1.789 0 1.138.813 1.658 3.317 2.146 3.577.683 5.138 1.138 6.504 1.984 1.951 1.203 2.83 2.927 2.83 5.528 0 4.91-3.318 7.61-9.366 7.61-5.009 0-8.293-1.3-10.212-4.748l5.366-2.602c.878 1.886 2.309 2.407 4.65 2.407 2.147 0 3.415-.748 3.415-2.016 0-1.139-.878-1.724-3.285-2.18-3.382-.65-4.683-1.04-6.048-1.788-2.114-1.17-3.122-2.992-3.122-5.69 0-4.586 3.316-7.383 8.78-7.383 4.293 0 7.415 1.3 9.334 4.39zm7.451-1.464v-5.139h18.895v5.139h-6.244v18.114h-6.407v-18.114zM116.928 120c0 7.155-4.65 12-11.512 12s-11.545-4.845-11.545-11.967c0-3.74 1.3-6.992 3.675-9.171 2.146-1.951 4.683-2.862 8-2.862 6.732 0 11.382 4.91 11.382 12m-16.423 0c0 4.488 1.691 6.862 4.878 6.862s4.91-2.374 4.91-6.83c0-4.552-1.69-6.894-4.975-6.894-3.122 0-4.813 2.44-4.813 6.862m30.867-11.643c5.496 0 8.748 2.895 8.748 7.838 0 4.683-3.154 7.512-8.423 7.512h-4.358v7.903h-6.406v-23.253zm-.553 10.7c2.049 0 3.155-1.04 3.155-2.96s-1.074-2.926-3.122-2.926h-3.513v5.886z"/></svg>