<svg xmlns="http://www.w3.org/2000/svg" viewBox="0 0 192 192"><path d="m91.18 108.15 6.88 6.88c-2.51 11.14-7.44 19.95-14.75 26.32-10.84 9.45-23.97 10.88-30.95 10.88H52V158H16v-20h36v6.22c5.63.02 17.07-1.03 26.11-8.95 7-6.13 11.38-15.22 13.07-27.12M140 34v5.77c-6.89-.05-20.28 1.27-31.31 10.88-7.31 6.37-12.24 15.18-14.75 26.32l6.88 6.88c1.69-11.9 6.07-20.99 13.07-27.12 9.05-7.92 20.48-8.97 26.11-8.95V54h36V34zM92.41 86.75l-9.58-9.58-5.66 5.66 14.82 14.82 7.6 7.6 9.58 9.58 5.66-5.66-14.82-14.82z"/></svg>