<svg xmlns="http://www.w3.org/2000/svg" viewBox="0 0 192 192"><path fill="#231f20" d="m149.249 132.381 6.287-6.287v-6.093l12-8 8 8-8 12h-6.593l-6.037 6.037zm-19.345 14.403-15.561 15.561a8 8 0 0 0 11.314 11.314l15.561-15.561zm36.926 14.389 7.992 7.992a11.9 11.9 0 0 0 1.18-5.163c0-6.627-5.373-12-12-12-1.851 0-3.597.431-5.163 1.18l-24.018-24.018a11.9 11.9 0 0 0 1.18-5.163c0-6.627-5.373-12-12-12-1.851 0-3.597.431-5.163 1.18l7.992 7.992a4 4 0 0 1-5.657 5.657l-7.992-7.992a11.9 11.9 0 0 0-1.18 5.163c0 6.627 5.373 12 12 12 1.851 0 3.597-.431 5.163-1.18l24.019 24.019a11.94 11.94 0 0 0-1.18 5.163c0 6.627 5.373 12 12 12 1.851 0 3.597-.431 5.163-1.18l-7.992-7.992a4 4 0 0 1 5.657-5.657ZM136 31.964V104h-8V71.982H24.009V152H104v8H16.009V31.964H40V19.982h8v11.982h56V20h8v11.964zm-8 32.018V39.964h-16V48h-8v-8.036H48v8.018h-8v-8.018H24.009v24.018zM52.662 88.611h7.793V132h-9.287v-31.025q-2.169 1.143-5.449 1.802a34 34 0 0 1-6.68.659l-.938-5.391q5.889-.996 9.258-3.164 3.428-2.226 5.303-6.27m20.83 36.065q5.186-3.28 7.427-4.893 2.241-1.611 4.878-3.926 7.968-7.148 7.969-14.092 0-2.989-1.611-4.57-1.406-1.377-3.779-1.377-2.433 0-3.955 1.538-1.524 1.538-2.461 4.937l-8.408-2.021q1.787-6.416 5.918-9.287 3.632-2.549 9.316-2.549 7.266 0 11.221 4.102 3.428 3.545 3.428 9.346 0 8.203-7.441 15.293-3.106 3.019-10.254 7.441h18.164v7.383h-30.41v-7.324Z"/></svg>