<svg xmlns="http://www.w3.org/2000/svg" viewBox="0 0 192 192"><path d="m170.828 119.563 5.155-5.154v45.573h-45.575l7.965-7.965h29.646v-29.645l2.81-2.81ZM176 64v8h-.018v4.885c-4.855-4.65-11.202-7.21-17.945-7.21A25.9 25.9 0 0 0 147.284 72H23.982v80.018h53.254l-2.655 7.965H16.018V72.001H16v-8h.018V32.019H56V20.001h8v12.018h64V20.001h8v12.018h39.982v31.982H176Zm-7.982-24.018H136V48h-8v-8.018H64V48h-8v-8.018H23.982V64h144.035V39.982Zm2.721 42.279c3.393 3.393 5.261 7.903 5.261 12.702s-1.868 9.308-5.261 12.701l-54.962 54.961-38.101 12.7 12.7-38.101 54.97-54.972.017-.017c3.391-3.381 7.885-5.235 12.675-5.235s9.309 1.868 12.702 5.261ZM106.21 157.38l-10.59-10.59-5.295 15.885zm58.872-69.462c-3.875-3.876-9.717-3.919-14.063-.023l-51.49 51.489 14.087 14.087 51.466-51.466c3.884-3.883 3.884-10.203 0-14.087"/></svg>