<svg xmlns="http://www.w3.org/2000/svg" xml:space="preserve" viewBox="0 0 192 192"><path d="M156 148h-16v-20h8v12h8zm20-76h-.018v48.005a40.3 40.3 0 0 0-7.964-7.97V72H23.982v80.018h80.826a39.7 39.7 0 0 0 2.534 7.964H16.018V72H16v-8h.018V32.018H56V20h8v12.018h64V20h8v12.018h39.982V64H176zm-7.982-8V39.982H136V48h-8v-8.018H64V48h-8v-8.018H23.982V64zM176 144c0-17.645-14.355-32-32-32s-32 14.355-32 32 14.355 32 32 32 32-14.355 32-32m-8 0c0 13.234-10.766 24-24 24s-24-10.766-24-24 10.766-24 24-24 24 10.766 24 24"/></svg>