<svg xmlns="http://www.w3.org/2000/svg" viewBox="0 0 192 192"><path d="M136 32V20h-8v12H64V20h-8v12H16v128h60.54c-2.664-3.24-4.578-6.09-5.758-8H24V72h144v52.07a77 77 0 0 1 8 10.038V32zM24 64V40h32v8h8v-8h64v8h8v-8h32v24zm147.46 96a76 76 0 0 0 4.54-6.108V160zm1.056-16-.973-1.856C170.898 140.914 155.393 112 124 112s-46.898 28.913-47.543 30.144L75.484 144l.973 1.856C77.102 147.086 92.607 176 124 176s46.898-28.913 47.543-30.144zM124 168c-22.252 0-35.576-18.072-39.346-24 3.775-5.935 17.099-24 39.346-24s35.57 18.065 39.346 24c-3.775 5.935-17.099 24-39.346 24m0-40c-8.822 0-16 7.178-16 16s7.178 16 16 16 16-7.178 16-16-7.178-16-16-16m0 24c-4.411 0-8-3.589-8-8s3.589-8 8-8 8 3.589 8 8-3.589 8-8 8"/></svg>