<svg xmlns="http://www.w3.org/2000/svg" viewBox="0 0 192 192"><path d="M175.982 64V32.018H136V20h-8v12.018H64V20h-8v12.018H16.018V64H16v8h.018v87.982h91.324a39.7 39.7 0 0 1-2.534-7.964H23.982V72h144.036v40.036a40.3 40.3 0 0 1 7.964 7.97V72H176v-8zm-7.964 0H23.982V39.982H56V48h8v-8.018h64V48h8v-8.018h32.018zM148 140h12v8h-12v12h-8v-12h-12v-8h12v-12h8zm-4-28c-17.645 0-32 14.355-32 32s14.355 32 32 32 32-14.355 32-32-14.355-32-32-32m0 56c-13.234 0-24-10.766-24-24s10.766-24 24-24 24 10.766 24 24-10.766 24-24 24"/></svg>