<svg xmlns="http://www.w3.org/2000/svg" xml:space="preserve" viewBox="0 0 192 192"><path d="M136.009 31.964V19.982h-8v11.982H64.007V19.982h-8v11.982H16.009v79.844c0 .061-.009.12-.009.183 0 .062.008.121.01.183V160h160.009V31.964zM24.009 152v-28.348c.659.255 1.34.465 2.047.607l-.01.039L149.727 152zm15.198-32.953 18.081-17.674 79.42 39.513zm128.812 28.48L55.762 91.678l-15.753 15.381-8.322 8.136a4.5 4.5 0 0 1-3.174 1.31 4.513 4.513 0 0 1-4.504-4.422v-40.1h144.01zm0-83.545H24.009V39.964h31.998v8.018h8v-8.018h64.002v8.018h8v-8.018h32.01z" style="fill:#231f20"/></svg>