<svg xmlns="http://www.w3.org/2000/svg" viewBox="0 0 192 192"><path d="M157 144c0-.933-.103-1.841-.29-2.719l3.146-1.817-4-6.928-3.163 1.826a13 13 0 0 0-4.693-2.726V128h-8v3.636a13 13 0 0 0-4.694 2.726l-3.162-1.826-4 6.928 3.147 1.817c-.188.878-.291 1.786-.291 2.719s.103 1.841.291 2.719l-3.147 1.817 4 6.928 3.162-1.826a13 13 0 0 0 4.694 2.726V160h8v-3.636a13 13 0 0 0 4.694-2.726l3.162 1.826 4-6.928-3.147-1.817c.188-.878.291-1.786.291-2.719m-13 5c-2.757 0-5-2.243-5-5s2.243-5 5-5 5 2.243 5 5-2.243 5-5 5m-36.658 10.982a39.7 39.7 0 0 1-2.534-7.964H23.982V72h144.036v40.036a40.3 40.3 0 0 1 7.964 7.97V72H176v-8h-.018V32.018H136V20h-8v12.018H64V20h-8v12.018H16.018V64H16v8h.018v87.982zm-83.36-120H56V48h8v-8.018h64V48h8v-8.018h32.018V64H23.982zM144 176c-17.645 0-32-14.355-32-32s14.355-32 32-32 32 14.355 32 32-14.355 32-32 32m0-56c-13.234 0-24 10.766-24 24s10.766 24 24 24 24-10.766 24-24-10.766-24-24-24"/></svg>