<svg xmlns="http://www.w3.org/2000/svg" xml:space="preserve" viewBox="0 0 192 192"><path d="M127.837 176.002c-5.385 0-29.729-1.433-54.067-25.772-26.392-26.391-25.851-52.789-25.755-55.014a8.85 8.85 0 0 1 2.61-6.191L61.04 78.609C62.723 76.927 64.96 76 67.34 76s4.617.927 6.3 2.61l13.887 13.887a8.85 8.85 0 0 1 2.61 6.3 8.85 8.85 0 0 1-2.61 6.3l-8.1 8.1a.9.9 0 0 0-.267.644l-.008.39c.043.931.748 7.67 11.847 18.77 11.807 11.807 18.691 11.866 18.73 11.862l.43-.023a.9.9 0 0 0 .642-.266l8.102-8.101a8.85 8.85 0 0 1 6.3-2.61c2.38 0 4.617.927 6.3 2.61l13.888 13.887c1.682 1.683 2.609 3.92 2.609 6.3s-.927 4.617-2.61 6.3l-10.415 10.416a8.85 8.85 0 0 1-6.191 2.609c-.174.007-.493.017-.947.017M67.34 84a.9.9 0 0 0-.643.267L56.28 94.682a.9.9 0 0 0-.266.643l-.007.223c-.01.23-.904 24.703 23.419 49.025 24.324 24.325 48.8 23.43 49.039 23.418l.209-.006a.9.9 0 0 0 .643-.266l10.415-10.416c.221-.22.267-.471.267-.643s-.046-.423-.267-.643l-13.887-13.887c-.22-.22-.471-.267-.643-.267s-.423.046-.643.266l-8.102 8.101a8.85 8.85 0 0 1-6.162 2.609c-1.94.097-11.074-.301-24.954-14.18-13.88-13.881-14.277-23.016-14.18-24.955a8.85 8.85 0 0 1 2.607-6.163l8.101-8.1c.22-.221.267-.472.267-.644s-.046-.423-.267-.643L67.983 84.267A.9.9 0 0 0 67.34 84m39.173-22.43C114.49 57.665 120 49.465 120 40c0-13.234-10.766-24-24-24S72 26.766 72 40c0 9.465 5.509 17.665 13.487 21.57a36 36 0 0 0-13.05 7.246c2.496.774 4.837 2.118 6.775 4.056l.427.427A27.84 27.84 0 0 1 96 68c15.44 0 28 12.56 28 28h8c0-16.194-10.75-29.921-25.487-34.43M80 40c0-8.822 7.178-16 16-16s16 7.178 16 16-7.178 16-16 16-16-7.178-16-16M58 56c0-8.822-7.178-16-16-16s-16 7.178-16 16c0 5.655 2.957 10.623 7.398 13.469C23.278 73.029 16 82.678 16 94v2h8v-2c0-9.925 8.075-18 18-18 2.927 0 5.778.728 8.319 2.055l5.243-5.243c.2-.2.418-.376.626-.564a26.3 26.3 0 0 0-5.6-2.771C55.038 66.632 58 61.66 58 56m-16 8c-4.411 0-8-3.589-8-8s3.589-8 8-8 8 3.589 8 8-3.589 8-8 8m116.602 5.469C163.042 66.623 166 61.655 166 56c0-8.822-7.178-16-16-16s-16 7.178-16 16c0 5.66 2.963 10.632 7.41 13.477a26.3 26.3 0 0 0-7.54 4.156 44 44 0 0 1 3.543 7.512C140.753 77.886 145.278 76 150 76c9.925 0 18 8.075 18 18v2h8v-2c0-11.322-7.277-20.972-17.398-24.531M150 64c-4.411 0-8-3.589-8-8s3.589-8 8-8 8 3.589 8 8-3.589 8-8 8"/></svg>