<svg xmlns="http://www.w3.org/2000/svg" viewBox="0 0 192 192"><path d="M96 176c-44.112 0-80-35.888-80-80s35.888-80 80-80 80 35.888 80 80-35.888 80-80 80m0-152c-39.701 0-72 32.299-72 72s32.299 72 72 72 72-32.299 72-72-32.299-72-72-72m31.129 124.002c-5.6 0-30.939-1.49-56.29-26.841C43.33 93.652 43.916 66.158 44.016 63.88a9.06 9.06 0 0 1 2.67-6.34l2.587-2.577 9.433-8.385c3.563-3.463 9.28-3.432 12.807.093L85.38 61.078c1.67 1.669 2.62 3.96 2.62 6.397a9.07 9.07 0 0 1-2.672 6.45l-9.183 8.83c-.074.075-.2.25-.251.51.307 1.222 2.364 7.577 13.813 19.026 11.447 11.446 17.801 13.504 19.025 13.812a1.1 1.1 0 0 0 .565-.306l9.444-9.167c3.516-3.515 9.303-3.514 12.86.041l13.692 13.358c1.758 1.758 2.707 4.05 2.707 6.486a9.06 9.06 0 0 1-2.544 6.32l-8.581 10.062-2.416 2.415a9.06 9.06 0 0 1-6.34 2.672c-.18.008-.514.018-.99.018M54.676 60.865l-2.332 2.332c-.15.15-.329.41-.329.794l-.006.223c-.012.242-.955 25.848 24.487 51.29 25.61 25.609 51.033 24.496 51.29 24.487l.222-.007a1.1 1.1 0 0 0 .794-.329l2.302-2.301 8.567-10.045a1.124 1.124 0 0 0 0-1.588l-13.692-13.358c-.472-.472-1.186-.472-1.624-.034l-9.442 9.166c-1.681 1.682-3.972 2.63-6.41 2.63l-.288-.01c-1.44-.104-9.37-1.372-24.165-16.167S67.986 85.222 67.882 83.783l-.01-.289c0-2.437.949-4.728 2.672-6.451l9.183-8.83c.216-.216.273-.526.273-.738a1.1 1.1 0 0 0-.33-.795L65.802 52.275c-.385-.384-1.098-.384-1.535.055l-.17.16-9.42 8.375z"/></svg>