<svg xmlns="http://www.w3.org/2000/svg" viewBox="0 0 192 192"><path d="M54.408 65.066c1.938 4.715 5.037 6.717 10.204 6.717s8.267-2.131 8.267-5.683c0-3.1-1.68-4.328-8.396-5.877-7.298-1.68-9.558-2.455-11.69-3.811-3.552-2.26-5.23-5.425-5.23-9.882 0-8.783 6.2-14.144 16.404-14.144 8.46 0 14.337 3.165 17.825 9.56l-8.332 3.939c-2.26-3.94-4.779-5.36-9.429-5.36-4.198 0-6.587 1.808-6.587 4.972 0 2.907 2.001 4.263 8.008 5.425 6.265 1.292 9.623 2.39 12.142 3.94 3.616 2.39 5.36 5.748 5.36 10.591 0 9.3-6.523 14.467-18.213 14.467-9.687 0-15.629-3.422-19.246-11.043zm79.628-9.106c0 14.144-9.236 23.96-22.54 23.96-13.175 0-22.282-9.687-22.282-23.702 0-13.95 9.43-23.896 22.67-23.896 12.916 0 22.152 9.882 22.152 23.638M100 56.154c0 9.622 4.391 15.435 11.69 15.435s11.56-5.683 11.56-15.435c0-9.559-4.392-15.5-11.496-15.5-7.427 0-11.754 5.683-11.754 15.5m47.722 8.912c1.938 4.715 5.038 6.717 10.205 6.717s8.267-2.131 8.267-5.683c0-3.1-1.68-4.328-8.396-5.877-7.298-1.68-9.559-2.455-11.69-3.811-3.552-2.26-5.231-5.425-5.231-9.882 0-8.783 6.2-14.144 16.404-14.144 8.46 0 14.337 3.165 17.825 9.56l-8.331 3.939c-2.26-3.94-4.78-5.36-9.43-5.36-4.197 0-6.587 1.808-6.587 4.972 0 2.907 2.002 4.263 8.008 5.425 6.265 1.292 9.623 2.39 12.142 3.94 3.617 2.39 5.36 5.748 5.36 10.591 0 9.3-6.522 14.467-18.212 14.467-9.687 0-15.63-3.422-19.246-11.043zM133.5 129.61l-16.971-16.97c-1.89-1.889-4.4-2.93-7.071-2.93s-5.183 1.041-7.072 2.93l-9.9 9.9a2 2 0 0 1-1.413.585l-.095-.034-.275.047c-.81-.008-9.38-.45-23.672-14.741-11.708-11.708-14.119-19.571-14.613-22.478-2.87-1.093-5.413-2.621-7.638-4.623a10 10 0 0 0-.475 2.9c-.125 2.122.193 12.982 17.07 29.858s27.735 17.2 29.856 17.07a9.93 9.93 0 0 0 6.913-2.928l9.9-9.9a2 2 0 0 1 2.828 0l16.97 16.97c.78.78.78 2.05 0 2.83l-12.727 12.727c-.22.219-.694.586-1.415.586l-.223.007c-.303.012-30.383 1.329-60.588-28.877-30.037-30.037-28.89-60.297-28.876-60.588l.006-.223c0-.72.367-1.195.586-1.414l12.728-12.729A2 2 0 0 1 38.746 47a2.1 2.1 0 0 1 .82.188c-.002-.136-.01-.267-.01-.404 0-2.74.405-5.274 1.145-7.594a10 10 0 0 0-1.955-.19 9.93 9.93 0 0 0-7.07 2.929l-12.73 12.728a9.93 9.93 0 0 0-2.927 6.961c-.113 2.509-.87 34.496 31.212 66.578 29.503 29.503 58.924 31.235 65.416 31.235.567 0 .96-.014 1.162-.022a9.94 9.94 0 0 0 6.961-2.928l12.729-12.729c3.897-3.899 3.897-10.243 0-14.142z"/></svg>