<svg xmlns="http://www.w3.org/2000/svg" xml:space="preserve" viewBox="0 0 192 192"><path d="M128.647 159.431c-6.492 0-35.913-1.732-65.416-31.235-32.082-32.082-31.325-64.069-31.212-66.578a9.93 9.93 0 0 1 2.927-6.96l12.73-12.73A9.93 9.93 0 0 1 54.745 39c2.671 0 5.182 1.04 7.071 2.929l16.97 16.97c1.89 1.89 2.93 4.4 2.93 7.072s-1.04 5.182-2.93 7.071l-9.899 9.9a2 2 0 0 0-.586 1.413l-.012.39c.014.914.552 9.463 14.74 23.652 14.292 14.291 22.862 14.733 23.672 14.74l.275-.046.095.034c.72 0 1.195-.367 1.413-.585l9.9-9.9c1.89-1.889 4.4-2.93 7.072-2.93s5.182 1.041 7.07 2.93l16.972 16.97c3.897 3.9 3.897 10.243 0 14.142L136.77 156.48a9.94 9.94 0 0 1-6.961 2.928c-.202.008-.595.022-1.162.022M54.747 47c-.31 0-.906.076-1.415.585L40.604 60.314a2 2 0 0 0-.586 1.414l-.006.223c-.014.29-1.16 30.551 28.876 60.588 30.205 30.206 60.288 28.89 60.588 28.877l.223-.007c.72 0 1.196-.367 1.415-.586l12.727-12.728c.78-.78.78-2.049 0-2.828l-16.97-16.97a2 2 0 0 0-2.829 0l-9.899 9.9a9.93 9.93 0 0 1-6.913 2.927c-2.116.13-12.979-.193-29.857-17.07-16.876-16.876-17.194-27.736-17.07-29.857a9.93 9.93 0 0 1 2.927-6.912l9.9-9.9c.78-.78.78-2.049 0-2.828L56.16 47.586A2 2 0 0 0 54.746 47"/></svg>