<svg xmlns="http://www.w3.org/2000/svg" xml:space="preserve" viewBox="0 0 192 192"><path d="M109.022 124.625a39.8 39.8 0 0 0-3.18 7.376c-11.247-3.699-27.026-11.331-42.769-27.074-31.979-31.98-31.227-63.865-31.114-66.37a9.91 9.91 0 0 1 2.922-6.947l12.687-12.687c3.891-3.89 10.223-3.89 14.114 0l16.916 16.915c3.89 3.891 3.89 10.223 0 14.115L68.73 59.82c-.216.216-.58.687-.58 1.4l-.013.39c.015.914.556 9.431 14.69 23.564C97.062 99.41 105.6 99.855 106.41 99.863l.275-.047.095.034c.714 0 1.183-.363 1.4-.58l9.867-9.868a9.92 9.92 0 0 1 7.057-2.923 9.92 9.92 0 0 1 7.058 2.923l14.667 14.667-.04.04A40 40 0 0 0 144 104c-2.665 0-5.268.268-7.788.767l-9.707-9.707a1.97 1.97 0 0 0-1.4-.58 1.97 1.97 0 0 0-1.4.58l-9.868 9.867a9.92 9.92 0 0 1-6.899 2.922c-2.124.124-12.946-.195-29.77-17.018-16.82-16.822-17.14-27.65-17.017-29.769a9.91 9.91 0 0 1 2.921-6.898l9.868-9.869a1.98 1.98 0 0 0 0-2.8L56.025 24.58a1.98 1.98 0 0 0-2.8 0L40.538 37.267c-.217.216-.58.686-.58 1.4l-.006.223c-.014.29-1.156 30.445 28.778 60.38 14.979 14.978 29.888 22.034 40.292 25.355M160 140h-12v-12h-8v12h-12v8h12v12h8v-12h12zm16 4c0-17.645-14.355-32-32-32s-32 14.355-32 32 14.355 32 32 32 32-14.355 32-32m-8 0c0 13.234-10.766 24-24 24s-24-10.766-24-24 10.766-24 24-24 24 10.766 24 24"/></svg>