<svg xmlns="http://www.w3.org/2000/svg" viewBox="0 0 192 192"><path d="M57.491 132.001h-.096L26.683 132c-5.855-.05-10.63-4.822-10.682-10.636V95.99a10.41 10.41 0 0 1 2.92-7.342C21.071 86.073 44.151 60 96 60c51.701 0 74.827 26.056 76.975 28.619 1.929 2 3.001 4.602 3.025 7.346v25.447a10.47 10.47 0 0 1-3.081 7.533 10.38 10.38 0 0 1-7.393 3.055h-30.85c-5.852-.05-10.625-4.832-10.676-10.66v-18.839c-.65-.976-5.36-6.501-28-6.501-22.576 0-27.334 5.447-28 6.422v19.13a10.25 10.25 0 0 1-3.013 7.378c-1.983 1.982-4.641 3.07-7.496 3.071M96 68c-49.592 0-70.777 25.575-70.986 25.833l-.285.318A2.5 2.5 0 0 0 24 95.955l.001 25.375c.013 1.444 1.231 2.657 2.716 2.67H57.43c.757-.004 1.425-.251 1.9-.727.31-.31.679-.854.671-1.686v-19.655c-.016-1.822 1.01-3.932 2.816-5.753C66.516 92.45 75.276 88 96 88c34.873 0 35.987 12.536 36 13.965v19.341c.013 1.457 1.229 2.681 2.71 2.694h30.757c.696-.027 1.33-.247 1.795-.712a2.55 2.55 0 0 0 .738-1.842V96c-.006-.668-.3-1.346-.828-1.873l-.282-.314C166.687 93.565 145.167 68 96 68m-28 33.897"/></svg>