<svg xmlns="http://www.w3.org/2000/svg" viewBox="0 0 192 192"><path d="M92 140h8v28h-8zm-27.578 22.21 7.156 3.58 12-24-7.156-3.58zm44-20.42 12 24 7.156-3.58-12-24zM176 32v8h-16v8h-13.67l-3.95 31.62c-.88 7.06-7.2 12.38-14.7 12.38h-10.82c-.27 2.54-1.01 4.95-2.12 7.13l-.75 13.29h-.07c.05.5.08 1.01.08 1.52 0 9.93-8.07 18-18 18s-18-8.07-18-18c0-.52.03-1.03.08-1.54h-.07l-.77-13.31A20.7 20.7 0 0 1 75.13 92H64.39c-7.49 0-13.81-5.31-14.7-12.35L45.68 48H32v-8H16v-8h16v-8h128v8zm-70 81.94c0-.59-.05-1.18-.16-1.74a9.8 9.8 0 0 0-1.25-3.38c-.75-1.24-1.75-2.3-2.93-3.12-1.61-1.11-3.56-1.76-5.66-1.76s-4.05.65-5.66 1.76c-1.18.82-2.18 1.88-2.93 3.12a9.9 9.9 0 0 0-1.25 3.35c-.11.57-.16 1.16-.16 1.77 0 5.52 4.49 10 10 10s10-4.48 10-10m.98-19.5c-.01-.84-.12-1.66-.33-2.44-1.19-4.58-5.53-7.99-10.68-7.99h-.01c-3.03 0-5.85 1.15-7.94 3.24A10.3 10.3 0 0 0 85.3 92c-.2.78-.31 1.58-.32 2.4l.14 2.37.16 2.75c.42-.32.86-.61 1.31-.89 2.74-1.69 5.96-2.69 9.41-2.69s6.67.99 9.4 2.7c.45.27.88.56 1.3.87l.15-2.69zm3.02-16.6C109.91 70.19 103.67 64 96 64s-13.91 6.19-14 13.84l.32 3.8.05-.05c3.6-3.6 8.42-5.58 13.59-5.58h.02c5.37.01 10.23 2.19 13.69 5.7zM138.27 48H53.74l3.89 30.64c.38 3.06 3.29 5.36 6.76 5.36h10.12L74 78c0-12.13 9.87-22 22-22s22 9.87 22 22l-.01.34-.49 5.66h10.18c3.47 0 6.38-2.31 6.76-5.37zM152 32H40v8h112z"/></svg>