<svg xmlns="http://www.w3.org/2000/svg" viewBox="0 0 192 192"><path d="M176 56v64c-2.3-3-5-5.7-8-8V64h-43.1l-4-16H71.1l-4 16H24v88h80.8c.6 2.8 1.4 5.5 2.5 8H16V56h44.9l4-16h62.2l4 16zm-28 72h-8v12h-12v8h12v12h8v-12h12v-8h-12zm28 16c0 17.6-14.4 32-32 32s-32-14.4-32-32 14.4-32 32-32 32 14.4 32 32m-8 0c0-13.2-10.8-24-24-24s-24 10.8-24 24 10.8 24 24 24 24-10.8 24-24M96 80c15.4 0 28 12.6 28 28v1.4c2.5-1.4 5.2-2.6 8-3.5C130.8 87 115.1 72 96 72c-19.9 0-36 16.1-36 36s16.1 36 36 36c2.8 0 5.4-.3 8-.9.1-3 .5-5.9 1.1-8.6-2.9 1-5.9 1.5-9.2 1.5-15.4 0-28-12.6-28-28S80.6 80 96 80"/></svg>