<svg xmlns="http://www.w3.org/2000/svg" viewBox="0 0 192 192"><path d="M136 100h8c0 26.467-21.533 48-48 48v-8c22.056 0 40-17.944 40-40m-40 32c-17.645 0-32-14.355-32-32s14.355-32 32-32 32 14.355 32 32-14.355 32-32 32m0-8c13.234 0 24-10.766 24-24s-10.766-24-24-24-24 10.766-24 24 10.766 24 24 24m0-8c-8.822 0-16-7.178-16-16s7.178-16 16-16 16 7.178 16 16-7.178 16-16 16m0-8c4.411 0 8-3.589 8-8s-3.589-8-8-8-8 3.589-8 8 3.589 8 8 8m0-64a4 4 0 1 0 0-8 4 4 0 0 0 0 8m80-28v28c0 7.439-5.11 13.69-12 15.473V95c0 38.047-30.505 69-68 69s-68-30.953-68-69V59.473C21.11 57.69 16 51.44 16 44V16zm-20 79V60H36v35c0 33.636 26.916 61 60 61s60-27.364 60-61m12-71H24v20c0 4.411 3.589 8 8 8h128c4.411 0 8-3.589 8-8z"/></svg>