<svg xmlns="http://www.w3.org/2000/svg" viewBox="0 0 192 192"><path d="m166.415 99.312 7.673.71c-1.746 18.875-10.411 36.353-24.4 49.212-14.082 12.944-32.364 20.073-51.48 20.073-1.341 0-2.69-.036-4.01-.104l.037-.703.07-28.648a49.7 49.7 0 0 1-15.707-3.742l-23.285 38.8-3.246-1.948c-14.532-7.753-26.468-19.97-33.882-34.661l-2.014-3.628 37.726-20.95a49.6 49.6 0 0 1-4.972-13.597l-24.98 3.435-1.209.169A77 77 0 0 1 22 93.098c0-33.433 22.023-62.854 53.35-72.704l-.002-.01.161-.042a75 75 0 0 1 6.828-1.788l.75-.197.008.03.016-.003.053.268L88.97 40.82c2.582-.47 5.23-.739 7.933-.795l.087-20.307-.03-3.062.808-.004c19.35 0 37.827 7.172 52.025 20.193 14.127 12.955 22.778 30.526 24.36 49.475l-3.945.329-22.24 2.182c.01.39.03.776.03 1.168 0 2.63-.207 5.212-.6 7.734l19.018 1.558-.002.02zm-22.028-56.57c-10.945-10.038-24.734-16.182-39.419-17.704l-.066 15.456c21.31 2.974 38.355 19.395 42.247 40.38l17.888-1.755c-2.837-13.897-9.993-26.604-20.65-36.377M140 90c0-23.16-18.866-42-42.054-42S55.892 66.84 55.892 90s18.865 41.999 42.054 41.999 42.054-18.84 42.054-42zm-92.052 2.184A51 51 0 0 1 47.892 90c0-21.72 13.94-40.24 33.347-47.125l-3.86-14.732C49.54 37.071 30 63.303 30 93.098c0 .516.015 1.034.027 1.551zm23.538 40.23a50.4 50.4 0 0 1-13.208-11.973l-31.286 17.374a72.7 72.7 0 0 0 25.525 26.206zm93.417-25.219-19.413-1.59c-6.142 18.625-22.957 32.44-43.186 34.193l-.051 21.375a67.88 67.88 0 0 0 42.02-17.829 68.3 68.3 0 0 0 20.63-36.149M69.398 83.37l3.125 9.874 3.17-9.874h6.34v16.305H77.63v-11.22l-3.74 11.22h-3.17L67.027 88.41v11.265h-3.9V83.37zm30.237 9.623c0 4.538-2.417 6.956-6.978 6.956-4.652 0-7.137-2.418-7.137-6.933V83.37h4.492v9.464c0 2.463.798 3.512 2.668 3.512s2.691-1.095 2.691-3.558V83.37h4.264zm7.98-9.623v12.702h6.728v3.603h-11.22V83.37zm5.997 3.603V83.37h13.25v3.603h-4.378v12.702h-4.493V86.973zm19.886-3.603v16.305h-4.493V83.37z"/></svg>