<svg xmlns="http://www.w3.org/2000/svg" viewBox="0 0 192 192"><path fill="#020204" d="M160 128h-34.522c-3.64-7.06-11.001-11.902-19.477-11.902-8.6 0-16.053 4.983-19.635 12.211l-14.492-4.83v-19.25c0-10.354 16.718-40.272 42.557-40.272h45.568v-8h-45.568c-13.73 0-26.967 6.822-37.275 19.209-7.82 9.397-13.282 21.348-13.282 29.063v25.016l20.318 6.773a22 22 0 0 0-.094 1.983c0 12.078 9.825 21.903 21.903 21.903s21.903-9.825 21.903-21.903c0-.675-.035-1.341-.095-2h32.19v-8zm-54 24.098c-7.773 0-14.097-6.324-14.097-14.097s6.324-14.097 14.097-14.097 14.097 6.324 14.097 14.097-6.324 14.097-14.097 14.097M63.866 39.985v24h-24v-8h10.343l-18.23-18.23 5.658-5.656 18.229 18.229V39.985z"/></svg>