<svg xmlns="http://www.w3.org/2000/svg" viewBox="0 0 192 192"><path d="M68 128h8c0-6.617 5.383-12 12-12s12 5.383 12 12h8c0-7.12-3.752-13.367-9.372-16.912A13.93 13.93 0 0 0 102 102c0-7.72-6.28-14-14-14s-14 6.28-14 14c0 3.469 1.275 6.64 3.372 9.088C71.752 114.633 68 120.88 68 128m20-32c3.309 0 6 2.691 6 6s-2.691 6-6 6-6-2.691-6-6 2.691-6 6-6m76.987 14.77-37.384-6.55-14.939-10.865a28 28 0 0 0-6.29-3.433 21.86 21.86 0 0 1 3.608 11.375l14.415 10.483 39.24 6.876c2.35.393 4.363 3.267 4.363 5.344v16h-12.527c-1.783-6.89-8.034-12-15.473-12s-13.69 5.11-15.473 12H59.473C57.69 133.11 51.44 128 44 128c-6.982 0-12.918 4.503-15.097 10.751L24 137.117V124c0-5.796 10.517-28 28-28h14.838a22 22 0 0 1 4.204-8H52c-22.028 0-36 25.314-36 36v18.883l12.289 4.096C29.69 154.381 36.197 160 44 160c7.439 0 13.69-5.11 15.473-12h65.054c1.783 6.89 8.034 12 15.473 12s13.69-5.11 15.473-12H176v-24c0-6.171-5.057-12.232-11.013-13.23M44 152c-4.411 0-8-3.589-8-8s3.589-8 8-8 8 3.589 8 8-3.589 8-8 8m96 0c-4.411 0-8-3.589-8-8s3.589-8 8-8 8 3.589 8 8-3.589 8-8 8"/></svg>