<svg xmlns="http://www.w3.org/2000/svg" viewBox="0 0 192 192"><path d="M115.531 96H76.47l-4.816-38.525 2.812-1.169C74.888 56.13 84.953 52 96 52s21.112 4.13 21.535 4.306l2.812 1.17L115.53 96zm-32-8h24.938l3.164-25.311C108.233 61.595 102.213 60 96 60s-12.232 1.595-15.633 2.689zm12.47 64c-10.5 0-21.025-4.104-21.469-4.279l-3.11-1.227L76.721 120h38.558l5.3 26.494-3.111 1.227c-.443.175-10.97 4.279-21.468 4.279zM80.61 141.349C84.158 142.449 90.194 144 96 144s11.842-1.552 15.39-2.651L108.72 128H83.28zm-39.281-11.914-14.31-9.34-4.372 6.7 14.31 9.34zm6.231 32.967-6.515-4.641-9.914 13.918 6.516 4.642zm-9.423-11.224-1.489-7.86-17.67 3.347 1.488 7.86zM117.167 176H74.832C64.448 176 56 167.551 56 157.166V84h-9c-4.382 0-7-3.771-7-7.417v-8.068c0-2.76 1.774-5.233 4.35-6.12L56 57.368V39.5C56 26.542 66.542 16 79.5 16h33c12.958 0 23.5 10.542 23.5 23.5v17.87l11.65 5.024c2.577.888 4.35 3.361 4.35 6.121v8.068c0 3.646-2.618 7.417-7 7.417h-9v73.166c0 10.385-8.45 18.834-18.834 18.834zM48 76h16v81.166C64 163.14 68.86 168 74.833 168h42.333c5.974 0 10.834-4.86 10.834-10.834V76h16v-6.468l-16-6.901V39.5c0-8.547-6.953-15.5-15.5-15.5h-33C70.953 24 64 30.953 64 39.5v23.13l-16 6.902z"/></svg>