<svg xmlns="http://www.w3.org/2000/svg" viewBox="0 0 192 192"><path d="M115.531 96H76.47l-4.816-38.525 2.812-1.169C74.888 56.13 84.953 52 96 52s21.112 4.13 21.535 4.306l2.812 1.17L115.53 96zm-32-8h24.938l3.164-25.311C108.233 61.595 102.213 60 96 60s-12.232 1.595-15.633 2.689zm12.47 64c-10.5 0-21.025-4.104-21.469-4.279l-3.11-1.227L76.721 120h38.558l5.3 26.494-3.111 1.227c-.443.175-10.97 4.279-21.468 4.279zM80.61 141.349C84.158 142.449 90.194 144 96 144s11.842-1.552 15.39-2.651L108.72 128H83.28zM117.167 176H74.833C64.448 176 56 167.551 56 157.166V84h-9c-4.382 0-7-3.771-7-7.417v-8.068c0-2.76 1.774-5.233 4.35-6.12L56 57.368V39.5C56 26.542 66.542 16 79.5 16h33c12.958 0 23.5 10.542 23.5 23.5v17.87l11.65 5.024c2.577.888 4.35 3.361 4.35 6.121v8.068c0 3.646-2.618 7.417-7 7.417h-9v73.166c0 10.385-8.448 18.834-18.833 18.834M48 76h16v81.166C64 163.14 68.86 168 74.833 168h42.334c5.974 0 10.833-4.86 10.833-10.834V76h16v-6.468l-16-6.901V39.5c0-8.547-6.953-15.5-15.5-15.5h-33C70.953 24 64 30.953 64 39.5v23.13l-16 6.902zm110.708-56.538-7.45-2.917-6.23 15.912 7.449 2.917zm19.145 41.474-16.152-5.58-2.611 7.562 16.151 5.58zm-1.274-20.16-3.35-7.264-16.331 7.532 3.35 7.265z"/></svg>