<svg xmlns="http://www.w3.org/2000/svg" viewBox="0 0 192 192"><path d="M140 116h14.947v8H132V95.369h8zm35 4c0 22.056-17.944 40-40 40s-40-17.944-40-40 17.944-40 40-40 40 17.944 40 40m-8 0c0-17.645-14.355-32-32-32s-32 14.355-32 32 14.355 32 32 32 32-14.355 32-32M68.464 98.027C74.963 98.787 79 102.99 79 109c0 6.065-4.935 11-11 11H51c-6.065 0-11-4.935-11-11v-2c0-6.065 4.935-11 11-11l.468.027s12.319 1.453 16.996 2m-.928 7.946a23868 23868 0 0 1-16.723-1.967A3.004 3.004 0 0 0 48 107v2c0 1.654 1.346 3 3 3h17c1.654 0 3-1.346 3-3 0-1.044 0-2.622-3.464-3.027m28.339-65.975.128.004.127-.004c8.016-.266 30.217 1.084 36.582 10.279l.132.179c5.881 7.562 10.399 20.044 11.227 22.415A47.6 47.6 0 0 1 154.156 76h10.475c1.18.256 3.37 1.121 3.37 4 0 1.144-.555 2.67-1.922 3.464a48.4 48.4 0 0 1 5.706 5.743C174.499 86.88 176 83.408 176 80c0-8.281-6.825-11.444-10.434-11.96l-14.75-.04c-1.829-4.888-6.069-15.23-11.593-22.371-4.398-6.27-13.126-10.458-25.943-12.45-8.615-1.34-16.173-1.207-17.28-1.18-1.102-.03-8.617-.163-17.238 1.173-12.842 1.99-21.583 6.18-25.986 12.457-5.524 7.14-9.764 17.483-11.593 22.371H27l-.566.04C22.825 68.556 16 71.719 16 80c0 5.029 3.262 10.205 8.879 11.622C22.522 95.878 20 101.865 20 108v28c0 7.216.975 24 10 24h17.331l.327-.054c7.055-1.176 8.814-12.821 9.225-19.946h34.5a47.6 47.6 0 0 1-2.864-8H49v4c0 11.42-2.292 15.079-3.084 16H30.644C29.612 150.537 28 144.988 28 136v-28c0-8.44 7.056-17.416 7.124-17.501L40.322 84H28c-2.935 0-4-2.392-4-4 0-2.903 2.227-3.758 3.357-4h19.526l.912-2.735c.048-.143 4.858-14.447 11.362-22.81l.132-.178c6.35-9.173 28.558-10.528 36.586-10.279"/></svg>