<svg xmlns="http://www.w3.org/2000/svg" viewBox="0 0 192 192"><path d="m164.983 98.386-35.465-6.182-16.92-11.282c-2.965-2.148-6.951-4.623-11.61-4.858a61 61 0 0 0-2.812-.062l-6.155 7.997h4.777c1.267-.005 2.577-.006 3.785.055 2.59.131 5.302 1.88 7.376 3.388l18.524 12.353 37.153 6.477c2.35.394 4.364 3.267 4.364 5.344V128h-8.526c-1.783-6.89-8.035-12-15.474-12s-13.69 5.11-15.473 12H83.474c-1.783-6.89-8.035-12-15.474-12-6.981 0-12.918 4.502-15.097 10.75L48 125.118v-19.954c1.62-2.28 6.615-8.84 11.164-14.715l-6.327-4.897C40 102.132 40 102.273 40 104v10.729c-2.301-1.49-4-4.09-4-6.73V87.476C42.897 85.697 48 79.452 48 72v-8h-4V52h-8v12h-8V52h-8v12h-4v8c0 7.453 5.103 13.697 12 15.476V108c0 7.009 5.348 13.475 12 15.403v7.48l12.29 4.096c1.4 7.402 7.907 13.02 15.71 13.02 7.44 0 13.69-5.11 15.474-12h45.053c1.783 6.89 8.035 12 15.473 12s13.69-5.11 15.474-12H176v-24.383c0-6.172-5.057-12.233-11.017-13.23M68 140c-4.41 0-8-3.59-8-8 0-4.412 3.59-8 8-8s8 3.588 8 8c0 4.41-3.588 8-8 8m83.993-7.846c-.084 4.34-3.633 7.846-7.993 7.846-4.41 0-8-3.59-8-8 0-4.412 3.59-8 8-8 4.36 0 7.91 3.506 7.993 7.845zM76 78.334H60L85.143 48 76 71.333h16L66.857 104 76 78.333z"/></svg>