<svg xmlns="http://www.w3.org/2000/svg" viewBox="0 0 192 192"><path d="M167.12 107.62c2.36 4.26 4.88 10.25 4.88 16.38v28c0 7.22-.97 24-10 24h-17.33l-.33-.05c-2.04-.34-8.39-2.8-9.24-19.95H56.88c-.41 7.13-2.17 18.77-9.22 19.95l-.33.05H30c-9.03 0-10-16.78-10-24v-28c0-6.13 2.52-12.12 4.88-16.38C19.26 106.21 16 101.03 16 96c0-8.28 6.83-11.44 10.43-11.96L27 84h14.18c1.83-4.89 6.07-15.23 11.6-22.37 4.12-5.88 12.05-9.92 23.58-12.05.07.66.23 1.96.23 1.96s0 .01.01.04v.03c.06.44.41 2.91 1.08 5.86-9.24 1.72-15.57 4.75-18.39 8.81l-.13.18c-6.51 8.36-11.32 22.66-11.37 22.81L46.88 92H27.36c-1.13.24-3.36 1.1-3.36 4 0 1.61 1.07 4 4 4h12.32l-5.2 6.5c-.06.08-7.12 9.06-7.12 17.5v28c0 8.99 1.61 14.54 2.64 16h15.28c.79-.92 3.08-4.58 3.08-16v-4h94v4c0 11.42 2.29 15.08 3.08 16h15.28c1.03-1.46 2.64-7.01 2.64-16v-28c0-8.44-7.06-17.42-7.13-17.5l-5.05-6.36-.1-.13h.28l12-.01c2.94 0 4-2.39 4-4 0-2.88-2.19-3.74-3.37-4h-3.14c2.31-2.21 4.58-4.62 6.75-7.23C171.79 86.15 176 89.5 176 96c0 5.03-3.26 10.21-8.88 11.62M92.05 44c-.01-.22-.01-.43-.01-.65 0-10.68 8.66-19.37 19.3-19.37 6.12 0 11.74 2.82 15.43 7.75l1.71 2.29 1.49 1.98 1.17-1.57 2.03-2.7c3.69-4.93 9.31-7.75 15.44-7.75 10.64 0 19.29 8.69 19.29 19.37 0 30.25-30.48 47.79-37.93 51.62-3.37-1.73-11.44-6.25-19.26-13.45-.63-.58-1.26-1.17-1.88-1.8-3.44-3.37-6.76-7.29-9.52-11.72h-9.19c11.89 23.12 37.07 34.57 38.22 35.08l1.63.73 1.63-.73c.45-.2 11.18-5.04 22-14.69 14.59-13.01 22.3-28.58 22.3-45.04 0-15.09-12.24-27.37-27.29-27.37-7.05 0-13.62 2.64-18.64 7.36-5.01-4.72-11.59-7.36-18.63-7.36-15.05 0-27.3 12.28-27.3 27.37 0 .22 0 .43.01.65zM79 125c0 6.07-4.93 11-11 11H51c-6.07 0-11-4.93-11-11v-2c0-6.06 4.93-11 11-11l.47.03 16.99 2c6.5.76 10.54 4.96 10.54 10.97m-8 0c0-1.04 0-2.62-3.46-3.03-4.27-.49-14.86-1.74-16.73-1.96A3 3 0 0 0 48 123v2c0 1.66 1.35 3 3 3h17c1.65 0 3-1.34 3-3m69.53-12.97.47-.03c6.07 0 11 4.94 11 11v2c0 6.07-4.93 11-11 11h-17c-6.06 0-11-4.93-11-11 0-6.01 4.04-10.21 10.54-10.97zm-16.06 9.94c-3.47.41-3.47 1.99-3.47 3.03 0 1.66 1.35 3 3 3h17c1.66 0 3-1.34 3-3v-2c0-1.59-1.24-2.9-2.81-2.99-1.87.22-12.46 1.47-16.72 1.96m27.54-69.96L139.4 52h-.01c-1.32 0-2.54.65-3.28 1.72l-3.66-7.68-.84-1.76a4.01 4.01 0 0 0-3.77-2.28c-.98.04-1.88.43-2.57 1.07-.43.41-.78.92-1 1.49l-6.22 16.17-2.3-6.13A4 4 0 0 0 112 52H88v8h21.23l5.02 13.4c.14.38.33.73.57 1.03.01.01.02.02.02.03.24.31.52.57.83.79.01.01.03.02.04.03.65.46 1.44.72 2.27.72h.02a4 4 0 0 0 3.73-2.56l6.66-17.32 4 8.39a4 4 0 0 0 3.57 2.27h.04c1.51 0 2.9-.85 3.58-2.21l2.28-4.57 10.14.01z"/></svg>