<svg xmlns="http://www.w3.org/2000/svg" viewBox="0 0 192 192"><path d="M176 100c0-6.172-5.057-12.232-11.013-13.23l-37.384-6.55-14.939-10.865A27.82 27.82 0 0 0 96.196 64H52c-22.028 0-36 25.314-36 36v18.883l12.289 4.096C29.69 130.381 36.197 136 44 136c7.439 0 13.69-5.11 15.473-12h65.054c1.783 6.89 8.034 12 15.473 12s13.69-5.11 15.473-12H176zM44 128c-4.411 0-8-3.589-8-8s3.589-8 8-8 8 3.589 8 8-3.589 8-8 8m96 0c-4.411 0-8-3.589-8-8s3.589-8 8-8 8 3.589 8 8-3.589 8-8 8m28-12h-12.527c-1.783-6.89-8.034-12-15.473-12s-13.69 5.11-15.473 12H59.473C57.69 109.11 51.44 104 44 104c-6.982 0-12.918 4.503-15.097 10.751L24 113.117V100c0-5.796 10.517-28 28-28h44.196c4.254 0 8.322 1.323 11.763 3.825l16.438 11.955 39.24 6.876c2.35.393 4.363 3.267 4.363 5.344z"/></svg>