<svg xmlns="http://www.w3.org/2000/svg" viewBox="0 0 192 192"><path d="M24 96h-8c0-44.112 35.888-80 80-80 23.794 0 44.85 10.522 60 29.797V32h8v28h-28v-8h14.677C136.989 33.902 117.754 24 96 24c-39.701 0-72 32.299-72 72m144 0c0 39.701-32.299 72-72 72-21.754 0-40.99-9.902-54.677-28H56v-8H28v28h8v-13.797C51.15 165.478 72.206 176 96 176c44.112 0 80-35.888 80-80zm-24-14.947h-4.575c2.39 2.548 4.883 6.19 4.883 10.316v17.894c0 9.365-2.804 14.737-7.693 14.737H125.54c-1.62-.005-6.47-.866-7.5-10.737H73.96c-1.03 9.87-5.878 10.732-7.485 10.737h-11.09c-4.889 0-7.693-5.372-7.693-14.737V91.37c0-4.126 2.494-7.767 4.883-10.316H48a4 4 0 0 1 0-8h10.486l.705-1.369c.408-.84 4.805-9.801 9.201-15.03 6.571-8.531 25.492-8.682 27.631-8.654 2.084-.025 21.013.124 27.585 8.654 4.396 5.229 8.793 14.19 9.2 15.03l.706 1.369H144a4 4 0 0 1 0 8zm-7.692 10.316c0-2.361-3.39-5.848-5.68-7.46l-.802-.566-4.197-8.13c-.043-.088-4.316-8.89-8.194-13.47l-.142-.177C114.104 57.336 101.868 56 96.226 56h-.4c-7.12 0-18.212 1.71-21.12 5.566l-.141.178c-3.889 4.591-8.15 13.38-8.194 13.468l-.047.095-4.146 8.04-.814.567c-2.282 1.607-5.672 5.094-5.672 7.455v17.894c0 3.429.496 5.683.898 6.737h8.632c.35-.766.932-2.653.932-6.737v-4h59.692v4c0 4.084.583 5.971.932 6.737h8.632c.402-1.054.898-3.308.898-6.737V91.37z"/></svg>