<svg xmlns="http://www.w3.org/2000/svg" viewBox="0 0 192 192"><path fill="#1a1a18" d="m68.987 62.771-37.384-6.55-14.939-10.865c-.215-.156-.444-.293-.664-.443v9.851l12.397 9.016 39.239 6.875c2.35.393 4.364 3.268 4.364 5.344v16H59.473c-1.783-6.889-8.034-12-15.473-12s-13.69 5.111-15.473 12H16v8h12.527c1.783 6.889 8.034 12 15.473 12s13.69-5.111 15.473-12H80v-24c0-6.172-5.057-12.232-11.013-13.229ZM44 104c-4.411 0-8-3.589-8-8s3.589-8 8-8 8 3.589 8 8-3.589 8-8 8m132-28.059V111L88 84v-8.059zM144 112c-17.645 0-32 14.355-32 32s14.355 32 32 32 32-14.355 32-32-14.355-32-32-32m0 56c-13.234 0-24-10.766-24-24s10.766-24 24-24 24 10.766 24 24-10.766 24-24 24m9.171-34.829 5.657 5.657-18.829 18.828-10.829-10.828 5.657-5.657 5.171 5.172 13.171-13.172Z"/></svg>