<svg xmlns="http://www.w3.org/2000/svg" viewBox="0 0 192 192"><path d="M61.357 139.99a6.51 6.51 0 0 1-4.635-1.92l-38.73-37.37c-2.606-2.61-2.604-6.766-.05-9.318l38.851-37.426c1.447-1.448 3.54-2.175 5.553-1.894 3.23.453 5.667 3.28 5.667 6.577L68.005 72h14.997c2.756 0 4.997 2.255 4.997 5.027v37.993c0 2.745-2.243 4.978-5 4.978h-15l-.003 13.436c0 2.6-1.66 5.035-4.133 6.06-.797.33-1.64.497-2.506.497zM24.66 96.018l35.337 34.096.004-18.117h19.998V80H60.001l.01-18.036-35.35 34.055zm149.378-4.688-38.746-37.324c-1.5-1.5-3.593-2.229-5.604-1.945-3.232.452-5.668 3.28-5.668 6.58l.007 13.357H109.03c-2.756 0-4.997 2.255-4.997 5.027v37.993c0 2.745 2.243 4.978 5 4.978h15.001l.002 13.435c0 2.6 1.661 5.036 4.13 6.058.797.332 1.642.5 2.509.5 1.75 0 3.396-.68 4.585-1.87l38.833-37.472a6.52 6.52 0 0 0 1.918-4.633c0-1.752-.684-3.398-1.973-4.684"/></svg>