<svg xmlns="http://www.w3.org/2000/svg" viewBox="0 0 192 192"><path d="m141.001 96-.468.027s-12.318 1.453-16.996 2c-6.499.76-10.536 4.964-10.536 10.973 0 6.065 4.935 11 11 11h17c6.065 0 11-4.935 11-11v-2c0-6.065-4.935-11-11-11m3 13c0 1.654-1.346 3-3 3h-17c-1.654 0-3-1.346-3-3 0-1.044 0-2.622 3.464-3.027 4.261-.498 14.858-1.748 16.722-1.967A3.003 3.003 0 0 1 144 107v2ZM176 80c0-8.281-6.825-11.444-10.434-11.96l-14.75-.04c-1.829-4.888-6.069-15.23-11.593-22.371-4.398-6.269-13.126-10.458-25.943-12.45-8.615-1.339-16.174-1.207-17.28-1.18-1.102-.03-8.617-.163-17.238 1.174-12.841 1.989-21.583 6.18-25.986 12.457-5.524 7.141-9.764 17.483-11.593 22.371H26.999l-.566.04c-3.609.516-10.434 3.679-10.434 11.96 0 5.029 3.262 10.205 8.879 11.622-2.357 4.256-4.879 10.243-4.879 16.378v28c0 7.216.975 24 10 24H47.33l.327-.054c7.055-1.176 8.814-12.821 9.225-19.946h78.214c.855 17.145 7.205 19.605 9.247 19.946l.327.054h17.331c9.025 0 10-16.784 10-24v-28c0-6.135-2.522-12.122-4.879-16.378 5.617-1.417 8.879-6.593 8.879-11.622ZM68.099 70.812C68.676 66.964 71.994 64 76.001 64c4.33 0 7.86 3.461 7.988 7.76a338 338 0 0 1-15.89-.949Zm-8.942-20.356.131-.179c6.35-9.172 28.559-10.528 36.586-10.279l.128.004.127-.004c8.017-.266 30.217 1.083 36.583 10.279l.131.179c4.212 5.416 7.722 13.351 9.681 18.292a337.5 337.5 0 0 1-50.526 3.195C91.967 63.147 84.804 56 76.001 56c-8.162 0-14.905 6.148-15.869 14.054q-5.335-.568-10.658-1.307c1.955-4.937 5.462-12.864 9.683-18.292ZM164 84l-12.284.005 5.157 6.489c.071.09 7.127 9.066 7.127 17.506v28c0 8.988-1.612 14.537-2.644 16h-15.272c-.792-.921-3.084-4.581-3.084-16v-4H49v4c0 11.419-2.292 15.079-3.084 16H30.644C29.612 150.537 28 144.988 28 136v-28c0-8.44 7.056-17.417 7.124-17.501L40.323 84H28.001c-2.935 0-4-2.392-4-4 0-2.903 2.227-3.758 3.357-4h16.358c17.348 2.652 34.817 3.981 52.286 3.981S130.94 78.652 148.288 76h16.343c1.18.256 3.37 1.121 3.37 4 0 1.608-1.065 4-4 4ZM68.464 98.027c-4.678-.546-16.996-2-16.996-2L51 96c-6.065 0-11 4.935-11 11v2c0 6.065 4.935 11 11 11h17c6.065 0 11-4.935 11-11 0-6.009-4.037-10.213-10.536-10.973M68 112H51c-1.654 0-3-1.346-3-3v-2a3.004 3.004 0 0 1 2.813-2.994c1.864.22 12.461 1.469 16.722 1.967 3.464.405 3.464 1.983 3.464 3.027 0 1.654-1.346 3-3 3Zm-5.903 41.116h10.427q4.052 0 6.208 2.001 1.865 1.75 1.865 4.689 0 2.5-1.07 3.908-.933 1.235-2.875 1.923 1.79.579 2.477 1.75.627 1.048 1.223 3.876.901 3.861 1.468 4.611v.125h-6.33q-.78-1.406-1.437-4.518-.474-2.219-1.04-2.915-.566-.695-1.911-.695h-2.844v8.128h-6.162v-22.884Zm9.632 10.238q2.95 0 2.951-2.751 0-1.375-.81-2.11-.687-.578-2.416-.578h-3.195v5.439zm13.485-10.238h6.162v8.769h7.186v-8.769h6.161V176h-6.161v-9.05h-7.186V176h-6.162zm24.462 0h8.791q5.703 0 8.76 3.423 2.676 2.985 2.676 7.909 0 5.753-3.501 8.847-3.059 2.704-8.088 2.704h-8.638v-22.884Zm8.882 17.96q2.584 0 3.853-1.891 1.101-1.656 1.101-4.643 0-3.407-1.453-5.064-1.254-1.437-3.562-1.438h-2.66v13.036z"/></svg>