<svg xmlns="http://www.w3.org/2000/svg" viewBox="0 0 192 192"><path d="M68 120H51c-6.066 0-11-4.935-11-11v-2c0-6.066 4.934-11 11-11l.468.027s12.318 1.453 16.996 2c6.499.76 10.535 4.964 10.535 10.972 0 6.066-4.934 11-11 11zm-17.187-15.995A3.003 3.003 0 0 0 48 107v2c0 1.654 1.345 3 3 3h17c1.654 0 3-1.346 3-3 0-1.044 0-2.622-3.465-3.028-4.26-.497-14.858-1.747-16.722-1.967m108.015 34.823-5.657-5.657L140 146.343l-5.172-5.172-5.657 5.657 10.828 10.828 18.83-18.828zM144 176c-17.646 0-32-14.355-32-32s14.354-32 32-32 32 14.354 32 32-14.355 32-32 32m0-56c-13.234 0-24 10.766-24 24s10.766 24 24 24 24-10.767 24-24-10.767-24-24-24M80 68a4 4 0 0 0-4-4H36a4 4 0 0 0 0 8h40a4 4 0 0 0 4-4m0-16a4 4 0 0 0-4-4H36a4 4 0 0 0 0 8h40a4 4 0 0 0 4-4m0-16a4 4 0 0 0-4-4H36a4 4 0 0 0 0 8h40a4 4 0 0 0 4-4M20.78 71.92c.26-.05.51-.12.75-.22s.47-.23.69-.37c.22-.15.42-.32.61-.5.74-.75 1.17-1.78 1.17-2.83a4.1 4.1 0 0 0-.31-1.53q-.15-.36-.36-.69a5 5 0 0 0-.5-.61c-.19-.18-.39-.35-.61-.49-.22-.15-.45-.27-.69-.37s-.49-.18-.75-.23c-1.3-.26-2.68.16-3.61 1.09-.18.19-.35.39-.49.61a4.1 4.1 0 0 0-.6 1.44c-.05.26-.08.52-.08.78 0 1.05.43 2.08 1.17 2.83.75.75 1.78 1.17 2.83 1.17.26 0 .52-.02.78-.08m2.05-17.09c.18-.18.35-.39.5-.61q.21-.33.36-.69A4.1 4.1 0 0 0 24 52c0-.26-.03-.52-.08-.78s-.13-.51-.23-.75-.22-.47-.36-.69a5 5 0 0 0-.5-.61A4.06 4.06 0 0 0 20 48c-1.05 0-2.08.43-2.83 1.17-.18.19-.35.39-.5.61q-.21.33-.36.69c-.1.24-.18.49-.23.75s-.08.52-.08.78a4.1 4.1 0 0 0 .31 1.53q.15.36.36.69c.15.22.32.43.5.61.75.74 1.78 1.17 2.83 1.17s2.08-.43 2.83-1.17m0-16C23.57 38.08 24 37.05 24 36a4.1 4.1 0 0 0-.31-1.53q-.15-.36-.36-.69a5 5 0 0 0-.5-.61 4.04 4.04 0 0 0-3.61-1.09c-.26.05-.51.13-.75.23s-.47.22-.69.37c-.22.14-.42.31-.61.49-.18.19-.35.39-.5.61q-.21.33-.36.69A4.1 4.1 0 0 0 16 36c0 1.06.43 2.09 1.17 2.83.19.18.39.35.61.5q.33.21.69.36c.24.1.49.18.75.23s.52.08.78.08c1.05 0 2.08-.43 2.83-1.17m-2.05-14.91c.26-.05.51-.13.75-.23.24-.09.47-.22.69-.36.22-.15.42-.32.61-.5.74-.75 1.17-1.78 1.17-2.83s-.43-2.08-1.17-2.83c-.19-.18-.39-.35-.61-.49-.22-.15-.45-.27-.69-.37s-.49-.18-.75-.23c-.51-.1-1.05-.1-1.56 0-.26.05-.51.13-.75.23s-.47.22-.69.37c-.22.14-.42.31-.61.49-.74.75-1.17 1.78-1.17 2.83s.43 2.08 1.17 2.83c.19.18.39.35.61.5.22.14.45.27.69.36.24.1.49.18.75.23s.52.08.78.08.52-.03.78-.08M79.999 20a4 4 0 0 0-4-4h-40a4 4 0 0 0 0 8h40a4 4 0 0 0 4-4m41.64 90.828A2.97 2.97 0 0 1 121 109c0-1.044 0-2.622 3.465-3.027 4.26-.498 14.858-1.748 16.722-1.968.15.01.295.04.439.07A41 41 0 0 1 144 104c2.659 0 5.255.266 7.769.76C150.732 99.766 146.298 96 141 96l-.468.028s-12.318 1.453-16.996 2C117.037 98.787 113 102.99 113 109c0 2.636.935 5.058 2.487 6.955a40 40 0 0 1 6.153-5.127zM176 80c0-8.282-6.825-11.445-10.434-11.96l-14.75-.04c-1.828-4.888-6.068-15.231-11.592-22.372C129.334 31.533 99.95 31.89 96 31.998c-1.077-.032-4.053-.08-8.001.15v8.039c3.168-.214 5.936-.25 7.874-.19l.128.004.127-.003c8.017-.266 30.217 1.083 36.583 10.278l.131.18c6.487 8.34 11.315 22.666 11.363 22.81l.913 2.734h19.512c1.18.256 3.37 1.12 3.37 4 0 1.607-1.066 4-4 4l-12.285.004 5.157 6.49c.071.089 7.127 9.065 7.127 17.506v1.363a40.1 40.1 0 0 1 8 6.08V108c0-6.135-2.521-12.123-4.878-16.378C172.738 90.205 176 85.028 176 80M49 136c0 11.419-2.292 15.078-3.084 16H30.643C29.611 150.536 28 144.987 28 136v-28c0-8.44 7.056-17.417 7.123-17.501l5.199-6.5H28c-2.935 0-4-2.391-4-3.999h-8c0 5.029 3.262 10.205 8.878 11.622C22.521 95.877 20 101.865 20 108v28c0 7.216.974 24 10 24h17.33l.327-.055c2.042-.34 8.391-2.8 9.247-19.945H104.2a39.8 39.8 0 0 1 1.634-8H49z"/></svg>