<svg xmlns="http://www.w3.org/2000/svg" viewBox="0 0 192 192"><path fill="#1a1a18" d="M176 154.642 112 112V99.941h64zM104 100v24H83.473c-1.783 6.889-8.034 12-15.473 12s-13.69-5.111-15.473-12H16v-8h36.527c1.783-6.889 8.034-12 15.473-12s13.69 5.111 15.473 12H96v-16c0-2.077-2.014-4.951-4.364-5.344l-39.239-6.875-16.438-11.955C32.567 73.359 28.32 72.001 24 72.001h-8v-8h8c5.998 0 11.916 1.902 16.664 5.355l14.939 10.865 37.384 6.55C98.943 87.768 104 93.829 104 100m-28 20c0-4.411-3.589-8-8-8s-8 3.589-8 8 3.589 8 8 8 8-3.589 8-8M63.707 44.655h6.457V37.66h5.084v6.995h6.55v4.898h-6.55v6.921h-5.084v-6.921h-6.457zm41.324.947q4.713 2.078 4.713 6.698 0 3.952-3.266 6.179-2.839 1.948-7.292 1.948-5.177 0-8.071-2.505-2.542-2.189-2.542-5.622 0-4.638 4.75-6.698-3.526-1.985-3.525-5.622 0-3.562 2.969-5.696 2.578-1.874 6.42-1.874 4.379 0 7.032 2.412 2.301 2.079 2.301 5.158 0 3.618-3.488 5.622Zm-5.845 1.985q-2.264 0-3.488 1.299-1.077 1.114-1.076 2.95 0 1.986 1.41 3.117 1.243.983 3.154.983 2.189 0 3.433-1.28 1.076-1.113 1.076-2.895 0-2.022-1.392-3.173-1.224-1.002-3.117-1.002Zm0-10.892q-1.837 0-2.895 1.132-.909.965-.909 2.486 0 1.652 1.188 2.672 1.058.872 2.616.872 1.763 0 2.82-1.132.927-.983.928-2.449 0-1.688-1.188-2.69-1.039-.891-2.561-.891Zm23.175-4.286q5.028 0 7.812 4.286 2.412 3.73 2.412 9.704c0 3.958-.855 7.295-2.579 10.001a8.45 8.45 0 0 1-3.488 3.117q-1.875.909-4.119.909-5.085 0-7.849-4.305-2.412-3.748-2.412-9.871 0-2.783.687-5.381.686-2.597 1.893-4.435a8.6 8.6 0 0 1 3.507-3.117q1.873-.909 4.138-.909Zm.037 4.676q-2.134 0-3.191 2.765-.946 2.432-.946 6.698 0 4.64 1.225 7.069 1.076 2.134 2.876 2.134 2.096 0 3.173-2.765.927-2.394.928-6.55 0-4.769-1.206-7.218-1.058-2.133-2.857-2.134Zm24.921-4.546q3.47 0 5.511 2.486 1.781 2.134 1.781 5.381 0 3.878-2.301 6.086-2.004 1.93-5.121 1.93-3.526 0-5.548-2.468-1.744-2.133-1.744-5.474 0-3.785 2.319-6.012 2.022-1.93 5.103-1.93Zm-.167 3.859q-2.505 0-2.505 4.045c0 4.045.847 4.026 2.542 4.026q2.672 0 2.672-4.026c0-4.026-.903-4.045-2.709-4.045m15.772-3.562h4.342L152.051 60h-4.323zm4.861 11.652q3.488 0 5.529 2.468 1.8 2.134 1.8 5.362 0 3.86-2.319 6.104-2.024 1.948-5.121 1.948-3.544 0-5.548-2.468-1.744-2.133-1.744-5.474 0-3.804 2.319-6.03 2.004-1.911 5.084-1.911Zm-.111 3.878q-2.542 0-2.542 3.989 0 4.063 2.542 4.063 2.653 0 2.653-4.026c0-4.026-.885-4.026-2.653-4.026"/></svg>