<svg xmlns="http://www.w3.org/2000/svg" viewBox="0 0 192 192"><path d="M140.717 48.14c5.262 5.262 13.27 6.074 19.4 2.474l7.883 8.87v56.48c0 4.037-3.962 8-8 8h-2.112c-2.03-4.793-4.872-8.215-5.471-8.906L146.903 108H152a4 4 0 0 0 0-8h-10.226c-1.739-4.281-5.053-11.59-9.265-16.823-8.442-11.515-33.12-11.26-36.508-11.165-3.38-.1-28.055-.37-36.51 11.165-4.212 5.232-7.526 12.542-9.265 16.823h-10.31a4 4 0 0 0 0 8h5.18l-5.55 7.104c-.438.534-3.262 4.075-5.327 8.859H32c-4.038 0-8-3.963-8-8V59.528l3.934-4.262 2.936 2.936c2.551 3.464 6.645 5.725 11.267 5.725 7.72 0 14-6.28 14-14 0-4.25-1.91-8.057-4.91-10.627l3.224-3.224-4.525-4.525c4.247-4.006 12.56-10.237 19.96-6.261l3.786-7.047c-6.897-3.706-14.867-2.822-23.047 2.558-2.543 1.673-4.713 3.528-6.359 5.09l-1.151-1.15c-1.453-1.454-3.39-2.254-5.452-2.254s-3.998.8-5.451 2.253l-11.95 11.95c-3.007 3.006-3.007 7.897 0 10.903l2.01 2.012L16 56.4v59.564c0 8.374 7.626 16 16 16h.075a19 19 0 0 0-.075 1.641v22.397c0 6.013.877 19.998 9 19.998h14.569l.394-.08c2.214-.45 7.11-2.95 7.935-16.107l64.22-.024c.822 13.143 5.693 15.664 7.895 16.126l.406.085H151c8.123 0 9-13.985 9-19.998v-22.397c0-.552-.027-1.1-.07-1.641h.07c8.374 0 16-7.626 16-16v-59.52l-10.207-11.488c3.63-6.137 2.826-14.17-2.449-19.443l-2.828 2.828-8.485-8.486-5.657 5.658 8.485 8.485-5.657 5.657-8.485-8.485-5.657 5.656 8.485 8.486m-95.408 4.615c0 3.308-2.692 6-6 6a6 6 0 0 1-4.938-2.6l8.339-8.338a6 6 0 0 1 2.599 4.938M65.774 88.13l.137-.178c4.545-6.3 20.79-8.21 29.968-7.94l.123.003.12-.004c9.17-.272 25.423 1.64 29.967 7.94l.137.18c3.394 4.187 6.24 10.317 7.866 14.23a296.3 296.3 0 0 1-76.184 0c1.626-3.913 4.472-10.043 7.866-14.23zM152 156.002c0 6.704-1.142 10.676-1.87 11.998h-12c-.664-.96-2.13-4.011-2.13-12.21v-4l-79.982.029v3.997c0 8.2-1.472 11.235-2.133 12.184H41.871c-.729-1.322-1.871-5.294-1.871-11.998v-22.397c0-5.326 4.146-11.51 5.74-13.436l8.045-10.295A304 304 0 0 0 96 112.827c14.102 0 28.203-.991 42.214-2.953l7.968 10.197.164.197c.056.064 5.654 6.468 5.654 13.337zm-77.012-33.9c-4.465-1.095-12.211-2.046-12.539-2.086l-.484-.03c-5.495 0-9.965 4.935-9.965 11v2c0 6.066 4.47 11 9.965 11h12.07c5.495 0 9.965-4.934 9.965-11 0-5.593-3.2-9.46-9.012-10.884m-.952 13.885H61.965c-.928 0-1.965-1.283-1.965-3v-2c0-1.622.925-2.856 1.81-2.988 1.498.19 7.752 1.01 11.273 1.873 2.714.665 2.917 1.665 2.917 3.115 0 1.717-1.037 3-1.964 3m56-15.987-.485.03c-.328.04-8.074.99-12.538 2.085C111.2 123.539 108 127.405 108 133c0 6.064 4.47 10.999 9.965 10.999h12.07c5.495 0 9.965-4.935 9.965-11v-2c0-6.064-4.47-10.999-9.965-10.999zM132 133c0 1.716-1.037 2.999-1.965 2.999h-12.07c-.928 0-1.965-1.283-1.965-3 0-1.45.203-2.449 2.917-3.114 3.522-.864 9.775-1.683 11.274-1.873.884.132 1.809 1.366 1.809 2.987v2z"/></svg>