<svg xmlns="http://www.w3.org/2000/svg" viewBox="0 0 192 192"><path d="M158.676 39.644 124 16.526V51.46l-17.44-14.533-5.12 6.146L121.751 60l-20.313 16.927 5.122 6.146L124 68.54v34.934l34.676-23.118L134.248 60zM132 51.46V31.474l13.324 8.882zm0 37.066V68.54l13.324 11.104zM68 136H51c-6.065 0-11-4.935-11-11v-2c0-6.065 4.935-11 11-11l.468.027s12.319 1.453 16.996 2C74.963 114.787 79 118.99 79 125c0 6.065-4.935 11-11 11m-17.187-15.994A3.003 3.003 0 0 0 48 123v2c0 1.654 1.346 3 3 3h17c1.654 0 3-1.346 3-3 0-1.044 0-2.622-3.464-3.027a23868 23868 0 0 1-16.723-1.967M141.001 136h-17c-6.065 0-11-4.935-11-11 0-6.009 4.037-10.213 10.536-10.973 4.677-.547 16.995-2 16.996-2L141 112c6.065 0 11 4.935 11 11v2c0 6.065-4.935 11-11 11zm.186-15.994c-1.863.22-12.46 1.47-16.722 1.967-3.464.405-3.464 1.983-3.464 3.027 0 1.654 1.346 3 3 3h17c1.654 0 3-1.346 3-3v-2a3.003 3.003 0 0 0-2.814-2.994m25.935-12.384c2.357 4.256 4.879 10.243 4.879 16.378v28c0 7.216-.975 24-10 24H144.67l-.327-.054c-2.042-.341-8.39-2.801-9.246-19.946H56.883c-.41 7.125-2.17 18.77-9.225 19.946l-.327.054H30c-9.025 0-10-16.784-10-24v-28c0-6.135 2.522-12.122 4.879-16.378C19.262 106.205 16 101.03 16 96c0-8.281 6.825-11.444 10.434-11.96L27 84h14.184c1.829-4.888 6.069-15.23 11.593-22.371 4.403-6.277 13.144-10.467 25.986-12.457 7.097-1.1 13.435-1.202 16.072-1.19l1.483 1.236 8.451 7.043c-5.005-.371-8.592-.265-8.64-.263l-.126.004-.128-.004c-8.028-.25-30.236 1.107-36.586 10.279l-.132.179c-6.504 8.362-11.314 22.666-11.362 22.81L46.883 92H27.357c-1.13.242-3.357 1.097-3.357 4 0 1.608 1.065 4 4 4h12.322l-5.198 6.499C35.056 106.584 28 115.559 28 124v28c0 8.988 1.612 14.537 2.644 16h15.272c.792-.921 3.084-4.58 3.084-16v-4h94.001v4c0 11.42 2.292 15.079 3.084 16h15.272c1.032-1.463 2.644-7.012 2.644-16v-28c0-7.052-5.142-15.024-7.124-17.501L151.68 100H164c2.935 0 4-2.392 4-4 0-2.879-2.19-3.744-3.37-4h-8.998l7.48-4.987 3.964-2.642C170.799 85.442 176 88.771 176 96c0 5.029-3.262 10.205-8.879 11.622z"/></svg>