<svg xmlns="http://www.w3.org/2000/svg" viewBox="0 0 192 192"><path d="m164.988 98.77-37.384-6.55-14.94-10.865a28 28 0 0 0-1.189-.815l-5.233 6.172a20 20 0 0 1 1.717 1.114l16.438 11.954 39.24 6.876c2.35.393 4.363 3.266 4.363 5.344v16h-12.526c-1.784-6.89-8.035-12-15.474-12s-13.69 5.11-15.473 12H59.474c-1.784-6.89-8.035-12-15.474-12-6.982 0-12.918 4.502-15.097 10.75L24 125.118v-19.175a84 84 0 0 1 2.894-3.18l-5.787-5.524c-4.71 4.935-5.107 5.864-5.107 7.453v26.191l12.289 4.097C29.69 142.382 36.197 148 44 148c7.44 0 13.69-5.11 15.474-12h65.053c1.783 6.89 8.034 12 15.473 12s13.69-5.11 15.474-12H176v-24c0-6.171-5.056-12.232-11.012-13.229zM44 140c-4.41 0-8-3.59-8-8 0-4.412 3.59-8 8-8s8 3.588 8 8c0 4.41-3.589 8-8 8m96 0c-4.41 0-8-3.59-8-8 0-4.412 3.59-8 8-8s8 3.588 8 8c0 4.41-3.589 8-8 8M95.025 74.176h-16.9l26.557-31.385-9.657 24.142h16.9l-26.557 33.799zM80.018 92l-2.892 8H50.343l-8-8H32v-8h-8v4h-8V71.816h8V76h8v-8h10.343l8-8H60v-8h-4v-8h16v8h-4v8h9.657l1.088 1.087L72.885 68H53.657l-8 8H40v8h5.657l8 8h26.36z"/></svg>