<svg xmlns="http://www.w3.org/2000/svg" viewBox="0 0 192 192"><path fill="#020204" d="M68.464 114.027c-4.677-.547-16.995-2-16.996-2L51 112c-6.065 0-11 4.935-11 11v2c0 6.065 4.935 11 11 11h17c6.065 0 11-4.935 11-11 0-6.009-4.037-10.213-10.536-10.973M68 128H51c-1.654 0-3-1.346-3-3v-2a3.003 3.003 0 0 1 2.813-2.994c1.864.22 12.462 1.47 16.723 1.967C71 122.378 71 123.956 71 125c0 1.654-1.346 3-3 3m73.001-16-.468.027s-12.319 1.453-16.996 2C117.038 114.787 113 118.99 113 125c0 6.065 4.935 11 11 11h17c6.065 0 11-4.935 11-11v-2c0-6.065-4.935-11-11-11zm3 13c0 1.654-1.346 3-3 3h-17c-1.654 0-3-1.346-3-3 0-1.044 0-2.622 3.464-3.027 4.261-.498 14.859-1.747 16.723-1.967A3.003 3.003 0 0 1 144 123v2zM86.626 48.283l-7.598-7.597 5.658-5.658 7.313 7.314V16h8v26.342l7.314-7.314 5.657 5.658-7.6 7.599.053.003-7.681 7.681-.057.001-1.686 1.686-1.683-1.683h-.03l-7.688-7.688q.015 0 .028-.002M176.001 96c0-8.281-6.825-11.444-10.434-11.96l-14.75-.04c-1.829-4.888-6.069-15.23-11.593-22.371-4.142-5.904-12.127-9.962-23.75-12.078l-7.028 7.028c9.28 1.056 20.124 3.715 24.266 9.698l.132.179c4.211 5.415 7.722 13.35 9.681 18.292a337.4 337.4 0 0 1-93.05 0c1.955-4.937 5.46-12.864 9.682-18.292l.132-.18c4.137-5.975 15.004-8.632 24.297-9.69l-7.04-7.04c-11.633 2.116-19.624 6.175-23.77 12.083-5.523 7.14-9.763 17.483-11.592 22.371H27l-.566.04C22.825 84.556 16 87.719 16 96c0 5.029 3.262 10.205 8.879 11.622C22.522 111.878 20 117.865 20 124v28c0 7.216.975 24 10 24h17.331l.327-.054c7.055-1.176 8.814-12.821 9.225-19.946h78.214c.855 17.145 7.204 19.605 9.246 19.946l.327.054H162c9.025 0 10-16.784 10-24v-28c0-6.135-2.522-12.122-4.879-16.378C172.738 106.205 176 101.029 176 96zm-12 4-12.284.005 5.157 6.489c.07.09 7.127 9.066 7.127 17.506v28c0 8.988-1.612 14.537-2.644 16h-15.272c-.792-.921-3.084-4.58-3.084-16v-4H49v4c0 11.42-2.292 15.079-3.084 16H30.644C29.612 166.537 28 160.988 28 152v-28c0-8.44 7.056-17.416 7.124-17.501L40.322 100H28c-2.935 0-4-2.392-4-4 0-2.903 2.227-3.758 3.357-4h16.357C61.062 94.652 78.53 95.981 96 95.981s34.938-1.329 52.286-3.981h16.345c1.18.256 3.37 1.121 3.37 4 0 1.608-1.065 4-4 4"/></svg>