<svg xmlns="http://www.w3.org/2000/svg" viewBox="0 0 192 192"><path d="m126.829 73.171-5.657 5.658-11.278-11.278a24.2 24.2 0 0 0 5.657-5.657zM112 112.001H80v8h32zM76.427 61.86 64.975 73.18l5.625 5.69 11.474-11.342a24.2 24.2 0 0 1-5.647-5.666zM96 72a24 24 0 0 1-4-.34V88h8V71.66a24 24 0 0 1-4 .34m56.157-24 20.163 52.077L146.638 160H45.362l-25.671-59.9L39.22 48H20v-8h152v8zM88 48c0 4.411 3.59 8 8 8s8-3.589 8-8zM52 96h87.868V48H112c0 8.822-7.177 16-16 16s-16-7.178-16-16H52zm-22.23 0H44V58.043zm132.163 8H30.066l20.572 48h90.725zm-14.066-44.92V96h14.294z"/></svg>