<svg xmlns="http://www.w3.org/2000/svg" viewBox="0 0 192 192"><path fill="#231f20" d="M169.692 88.821a6.96 6.96 0 0 0-5.386-2.669l-43.045-2.095c-2.658-1.697-10.437-6.59-15.358-8.946-6.728-3.221-13.951-3.474-24.157-2.826-11.197.712-18.266 1.622-21.013 2.702l-22.767 8.952c-2.114.831-4.299 1.69-14.338 2.625l-2.505.233-4.555 12.291 9.128 8.645.086.079c.702.627 4.524 3.646 14.247 5.094.453 6.197 5.651 11.104 11.969 11.104 5.22 0 9.67-3.35 11.32-8.01h69.36c1.65 4.66 6.1 8.01 11.32 8.01 6.609 0 11.989-5.369 12.01-11.968l7.236-3.019a9 9 0 0 0 5.062-5.427l.082-.275c.075-.289.252-.79.475-1.447.578-1.705 1.452-4.282 2.13-7.084a6.95 6.95 0 0 0-1.302-5.968ZM52 116.01c-2.21 0-4.01-1.8-4.01-4.01s1.8-4.01 4.01-4.01 4.01 1.8 4.01 4.01-1.8 4.01-4.01 4.01m92 0c-2.21 0-4.01-1.8-4.01-4.01s1.8-4.01 4.01-4.01 4.01 1.8 4.01 4.01-1.8 4.01-4.01 4.01m17.288-16.707a41 41 0 0 0-.585 1.801 1 1 0 0 1-.537.536l-6.806 2.84c-2.21-2.73-5.58-4.49-9.36-4.49-5.22 0-9.67 3.35-11.32 8.01H63.32c-1.65-4.66-6.1-8.01-11.32-8.01a11.98 11.98 0 0 0-9.834 5.132c-7.583-.993-10.679-3.022-11.095-3.319l-5.164-4.89.976-2.632c9.09-.962 11.591-1.945 14.054-2.913l22.725-8.936c1.104-.435 6.262-1.378 18.593-2.164 10.36-.659 15.646-.12 20.196 2.058 5.42 2.594 15.276 8.967 15.375 9.031l.904.585 44.186 2.15c-.543 2.017-1.181 3.895-1.627 5.209Z"/></svg>