<svg xmlns="http://www.w3.org/2000/svg" xml:space="preserve" viewBox="0 0 192 192"><path d="M92.957 120h-17c-6.065 0-11-4.935-11-11 0-6.009 4.037-10.213 10.536-10.973 4.676-.547 16.995-2 16.996-2l.468-.027c6.065 0 11 4.935 11 11v2c0 6.065-4.935 11-11 11m.187-15.994c-1.864.22-12.462 1.47-16.723 1.967-3.464.405-3.464 1.983-3.464 3.027 0 1.654 1.346 3 3 3h17c1.654 0 3-1.346 3-3v-2a3.003 3.003 0 0 0-2.813-2.994m61.665-26.442-5.538-5.772-11.916 11.432 5.538 5.772zm-.018 44.872-11.895-11.43-5.543 5.769 11.895 11.43zm5.211-26.432-15.939-.007-.003 8 15.939.007zm-31.968 6.036c0-3.342-2.688-6.051-6.004-6.051a6 6 0 0 0-.786.058 48 48 0 0 0-2.166-4.425c5.617-1.417 8.879-6.593 8.879-11.622 0-8.281-6.825-11.444-10.434-11.96l-14.75-.04c-1.829-4.888-6.069-15.23-11.593-22.371-4.398-6.27-13.126-10.458-25.943-12.45-8.615-1.34-16.175-1.207-17.28-1.18-1.006-.028-7.369-.137-15.034.862v8.062c5.972-.86 11.626-1.027 14.908-.925l.128.004.127-.004c8.02-.266 30.216 1.084 36.582 10.279l.132.179c6.487 8.34 11.315 22.667 11.363 22.81L97.076 76h19.511c1.18.256 3.37 1.121 3.37 4 0 1.608-1.065 4-4 4l-12.284.005 5.157 6.489c.07.09 7.127 9.066 7.127 17.506v28c0 8.988-1.612 14.537-2.644 16H98.041c-.792-.921-3.084-4.58-3.084-16v-4H32.923v8h54.13c.855 17.145 7.204 19.605 9.246 19.946l.327.054h17.331c9.025 0 10-16.784 10-24v-28c0-.077-.005-.154-.006-.23a6.05 6.05 0 0 0 4.083-5.73"/></svg>