<svg xmlns="http://www.w3.org/2000/svg" viewBox="0 0 192 192"><path d="M156.317 92.011c-15.744-1.633-35.612-3.572-39.321-3.933C112.739 86.293 87.518 76 72 76c-15.666 0-27.063 5.134-34.457 10.144L34.472 80H16v8l13.527.001 1.613 3.225a46 46 0 0 0-2.048 2.027C26.632 95.855 24.028 95.997 24 96h-4v23.123l16.058 4.014C36.64 130.326 42.664 136 50 136c7.039 0 12.864-5.227 13.84-12h60.32c.975 6.773 6.801 12 13.84 12s12.865-5.227 13.84-12h19.5l.596-3.286c.52-2.869 1.32-5.285 2.094-7.622 1.013-3.062 1.97-5.954 1.97-9.092 0-10.303-16.154-11.788-19.683-11.989M50 128c-3.31 0-6-2.691-6-6s2.69-6 6-6 6 2.691 6 6-2.692 6-6 6m88 0c-3.309 0-6-2.691-6-6s2.691-6 6-6 6 2.691 6 6-2.691 6-6 6m28.435-17.422c-.542 1.636-1.13 3.416-1.647 5.422H150.63c-2.253-4.722-7.06-8-12.63-8s-10.377 3.278-12.63 8H62.63c-2.253-4.722-7.06-8-12.63-8-5.296 0-9.913 2.956-12.291 7.304l-9.71-2.427v-9.631c2.027-.688 4.545-1.999 6.908-4.499C39.097 94.313 51.097 84 72 84c14.987 0 42.152 11.56 42.425 11.677l.57.244.619.06c.224.022 22.636 2.199 39.973 3.998l.2.015c6.74.361 12.213 2.683 12.213 4.006 0 1.849-.69 3.936-1.565 6.578"/></svg>