<svg xmlns="http://www.w3.org/2000/svg" viewBox="0 0 192 192"><path d="M102.66 65.07c-1-2.63-2.51-4.99-4.41-6.96l9.98-10.4 5.77 5.54zm-32.91-6.96-9.98-10.4L54 53.25l11.34 11.82c1-2.63 2.51-4.99 4.41-6.96M88 52.41V36h-8v16.41c1.29-.27 2.63-.41 4-.41s2.71.14 4 .41M176 116v24h-20.51c-1.78 6.89-8.05 12-15.49 12s-13.71-5.11-15.49-12H59.49c-1.78 6.89-8.05 12-15.49 12-7.8 0-14.32-5.62-15.71-13.02L16 134.88V116c0-10.69 13.97-36 36-36h20v-7.57C72 65.58 77.38 60 84 60s12 5.58 12 12.43V80h.2a27.75 27.75 0 0 1 16.46 5.36l14.94 10.86 37.39 6.55c5.95 1 11.01 7.06 11.01 13.23M80 80h8v-7.57c0-2.44-1.79-4.43-4-4.43s-4 1.99-4 4.43zm-28 56c0-4.41-3.59-8-8-8s-8 3.59-8 8 3.59 8 8 8 8-3.59 8-8m96 0c0-4.41-3.59-8-8-8s-8 3.59-8 8 3.59 8 8 8 8-3.59 8-8m20-20c0-2.08-2.01-4.95-4.36-5.34l-39.24-6.88-16.44-11.95a19.9 19.9 0 0 0-6.24-3.06A20 20 0 0 0 96.2 88H52c-17.48 0-28 22.2-28 28v13.12l4.89 1.63C31.06 124.5 37.02 120 44 120c7.44 0 13.71 5.11 15.49 12h65.02c1.78-6.89 8.05-12 15.49-12s13.71 5.11 15.49 12H168z"/></svg>