<svg xmlns="http://www.w3.org/2000/svg" viewBox="0 0 192 192"><path d="M159.99 140.313 172.488 32H168c-13.638 0-25.232 9.28-28.226 22.576L125.85 107.25l-.038.156a76.3 76.3 0 0 0-1.75 13.595c-14.459-2.308-29.606-2.648-37.032-.792C76.703 122.791 72 132.324 72 140.089c0 5.874 3.226 11.002 8 13.758V176h76v-24.842c2.498-2.713 3.943-6.432 3.99-10.845m-26.386-31.096 13.924-52.67.037-.155c1.808-8.13 8.056-14.195 15.891-15.905l-10.35 89.704c-4.893-3.254-12.555-5.836-21.067-7.694.093-4.46.603-8.921 1.565-13.28M88.97 127.97c11.785-2.946 47.608.743 59.778 8.927 1.836 1.234 2.977 2.48 3.248 3.537-.165 6.573-5.059 7.566-7.996 7.566H88c-4.411 0-8-3.549-8-7.91 0-4.757 2.807-10.58 8.97-12.12M148 168H88v-12h60zM98.338 98.616l-7.352 3.153-5.762-13.438L68 94.53v6.766L16 173.02v-13.628l44-60.69V97.41l-17.646 6.353-2.708-7.528L60 88.91V69.657L46.343 56H16v-8h33.657L68 66.343V86.03l14.065-5.064-5.74-13.388 7.35-3.154 5.93 13.828.04-.015.244.676 8.449 19.704z"/></svg>