<svg xmlns="http://www.w3.org/2000/svg" viewBox="0 0 192 192"><path d="M67.371 51.88c.72-.12 1.41-.34 2.05-.65-.7.21-1.39.42-2.05.65m108.63 44.13c0-8.28-6.83-11.46-10.43-11.98h-14.75c-1.83-4.89-6.24-15.122-11.6-22.39-4.546-6.165-13.12-10.46-25.94-12.45-5.4-.84-10.37-1.1-13.61-1.18a41 41 0 0 1-1.8 7.97c9.11-.01 28.9 1.74 34.84 10.31l.13.18c6.49 8.34 11.32 22.66 11.37 22.81l.91 2.73h19.51c1.18.26 3.37 1.12 3.37 4 0 1.61-1.07 4-4 4h-12.28l5.15 6.49c.07.09 7.13 9.07 7.13 17.51v28c0 8.99-1.61 14.54-2.64 16h-15.28c-.79-.92-3.08-4.58-3.08-16v-4h-94v4c0 11.42-2.29 15.08-3.08 16h-15.28c-1.03-1.46-2.64-7.01-2.64-16v-28c0-8.44 7.06-17.42 7.12-17.5l5.2-6.5h-12.32c-2.94 0-4-2.39-4-4 0-2.9 2.23-3.76 3.36-4h19.52l.91-2.73c.02-.06.72-2.16 1.96-5.21-1.59-2.71-3.34-5.69-5.03-8.55-1.56 3.37-2.77 6.43-3.54 8.51h-14.75c-3.61.52-10.43 3.7-10.43 11.98 0 5.03 3.26 10.2 8.88 11.62-2.36 4.26-4.88 10.25-4.88 16.38v28c0 7.22.97 24 10 24h17.33l.33-.05c7.05-1.18 8.81-12.83 9.22-19.95h78.22c.85 17.14 7.2 19.6 9.24 19.95l.33.05h17.33c9.03 0 10-16.78 10-24v-28c0-6.13-2.52-12.12-4.88-16.38 5.62-1.42 8.88-6.59 8.88-11.62M66.001 16c-14.37 0-26.06 11.69-26.06 26.05 0 6.31 1.55 12.42 4.26 16.77l21.8 37.06s18.56-31.5 21.8-37.06c.52-.84 1-1.74 1.42-2.7 1.1-2.41 1.9-5.16 2.36-8.08.31-1.94.47-3.96.47-5.99 0-14.36-11.68-26.05-26.05-26.05m0 64.12c-2.11-3.57-10.59-18-11.87-20.18v-.01l-3.12-5.29c-1.92-3.08-3.07-7.78-3.07-12.59 0-9.95 8.1-18.05 18.06-18.05s18.05 8.1 18.05 18.05c0 2.26-.25 4.49-.72 6.54-.52 2.33-1.32 4.42-2.34 6.05zm0-44.12c-4.42 0-8 3.58-8 8s3.58 8 8 8c.46 0 .91-.04 1.35-.11.01 0 .01-.01.02-.01.72-.12 1.41-.34 2.05-.65.02 0 .03-.01.05-.02a7.99 7.99 0 0 0 4.53-7.21c0-4.42-3.58-8-8-8m0 0c-4.42 0-8 3.58-8 8s3.58 8 8 8c.46 0 .91-.04 1.35-.11.01 0 .01-.01.02-.01.72-.12 1.41-.34 2.05-.65.02 0 .03-.01.05-.02a7.99 7.99 0 0 0 4.53-7.21c0-4.42-3.58-8-8-8m0 0c-4.42 0-8 3.58-8 8s3.58 8 8 8c.46 0 .91-.04 1.35-.11.01 0 .01-.01.02-.01.72-.12 1.41-.34 2.05-.65.02 0 .03-.01.05-.02a7.99 7.99 0 0 0 4.53-7.21c0-4.42-3.58-8-8-8m0 0c-4.42 0-8 3.58-8 8s3.58 8 8 8c.46 0 .91-.04 1.35-.11.01 0 .01-.01.02-.01.72-.12 1.41-.34 2.05-.65.02 0 .03-.01.05-.02a7.99 7.99 0 0 0 4.53-7.21c0-4.42-3.58-8-8-8m0-20c-14.37 0-26.06 11.69-26.06 26.05 0 6.31 1.55 12.42 4.26 16.77l21.8 37.06s18.56-31.5 21.8-37.06c.52-.84 1-1.74 1.42-2.7 1.1-2.41 1.9-5.16 2.36-8.08.31-1.94.47-3.96.47-5.99 0-14.36-11.68-26.05-26.05-26.05m0 64.12c-2.11-3.57-10.59-18-11.87-20.18v-.01l-3.12-5.29c-1.92-3.08-3.07-7.78-3.07-12.59 0-9.95 8.1-18.05 18.06-18.05s18.05 8.1 18.05 18.05c0 2.26-.25 4.49-.72 6.54-.52 2.33-1.32 4.42-2.34 6.05zm2.46 33.92-17.46-2.03c-6.07 0-11 4.93-11 11v2c0 6.07 4.93 11 11 11h17c6.06 0 11-4.93 11-11 0-6.01-4.04-10.21-10.54-10.97m-.46 13.97h-17c-1.66 0-3-1.35-3-3v-2c0-1.59 1.24-2.9 2.81-2.99l16.72 1.96c3.47.41 3.47 1.99 3.47 3.03 0 1.65-1.35 3-3 3m73-16-17.47 2.03c-6.49.76-10.53 4.96-10.53 10.97 0 6.07 4.93 11 11 11h17c6.07 0 11-4.93 11-11v-2c0-6.07-4.93-11-11-11m3 13c0 1.65-1.35 3-3 3h-17c-1.65 0-3-1.35-3-3 0-1.04 0-2.62 3.46-3.03l16.73-1.96a3 3 0 0 1 2.81 2.99zm-70-81.01c0 3.18-1.85 5.92-4.53 7.21-.02.01-.03.02-.05.02-.64.31-1.33.53-2.05.65-.01 0-.01.01-.02.01-.44.07-.89.11-1.35.11-4.42 0-8-3.58-8-8s3.58-8 8-8 8 3.58 8 8"/></svg>