<svg xmlns="http://www.w3.org/2000/svg" viewBox="0 0 192 192"><path d="M104 140.3 116.5 32H112c-13.6 0-25.2 9.3-28.2 22.6l-13.9 52.7v.2c-1 4.5-1.6 9-1.7 13.6-14.5-2.3-29.6-2.6-37-.8-10.3 2.6-15 12.1-15 19.9 0 5.9 3.2 11 8 13.8v22h76v-24.8c2.3-2.8 3.7-6.5 3.8-10.9m-26.4-31.1 13.9-52.7v-.2c1.8-8.1 8.1-14.2 15.9-15.9L97 130.1c-4.9-3.3-12.6-5.8-21.1-7.7.2-4.4.7-8.8 1.7-13.2M33 128c11.8-2.9 47.6.7 59.8 8.9 1.8 1.2 3 2.5 3.2 3.5-.2 6.6-5.1 7.6-8 7.6H32c-4.4 0-8-3.5-8-7.9 0-4.8 2.8-10.6 9-12.1m59 40H32v-12h60zm52 8c-17.6 0-32-14.4-32-32s14.4-32 32-32 32 14.4 32 32-14.4 32-32 32m0-56c-13.2 0-24 10.8-24 24s10.8 24 24 24 24-10.8 24-24-10.8-24-24-24m16 28h-12v12h-8v-12h-12v-8h12v-12h8v12h12z"/></svg>