<svg xmlns="http://www.w3.org/2000/svg" viewBox="0 0 192 192"><path d="m116.13 73.6-.11.4c0-.15.01-.29.02-.43zm-7.83 1.14c0-1.13.07-2.25.21-3.34l-12.5-3.6-44.05 12.52v15.94c2.36-.18 4.92-.26 7.7-.26h.38v-9.58L92 77.33v26.16c3.67 2.98 6.03 6.7 8 10.88V77.35l8.66 2.49c-.24-1.66-.36-3.37-.36-5.1m57.36-38.73c.01-.16.01-.32.01-.49 0-10.75-8.54-19.5-19.04-19.5-5.66 0-11.03 2.63-14.62 7.01-3.91-.59-7.86.08-11.39 1.98-3.71 2-6.71 5.23-8.39 8.92C105.28 35.6 100 41.71 100 48.58c0 6.98 4.57 12.9 10.81 14.79 1.27-2.75 3-5.24 5.08-7.37h-.81c-3.9 0-7.08-3.33-7.08-7.42 0-3.92 3.85-6.83 7.45-7.08l2.83-.2.75-2.73c.72-2.62 2.78-5.11 5.39-6.52 1.17-.63 2.81-1.23 4.81-1.23 1 0 2.1.15 3.27.53l3.06.99 1.63-2.78c2.02-3.47 5.55-5.54 9.44-5.54 6.09 0 11.04 5.16 11.04 11.5 0 .65-.06 1.32-.17 1.98l-.5 3.01 2.77 1.27c2.57 1.19 4.23 3.86 4.23 6.8 0 4.09-3.18 7.42-7.08 7.42h-4.81c2.24 2.29 4.07 4.99 5.36 7.99 8.06-.3 14.53-7.1 14.53-15.41 0-5.04-2.42-9.71-6.34-12.57m-46.8 50.54c-1.82-3.09-2.86-7.4-2.86-11.81 0-.25 0-.5.02-.74 0-.15.01-.29.02-.43.21-3.54 1.37-6.83 3.22-9.57 3.26-4.84 8.65-8 14.74-8s11.48 3.16 14.74 8c1.75 2.59 2.88 5.67 3.18 8.99.05.57.08 1.16.08 1.75 0 .95-.05 1.9-.15 2.84-.34 3.38-1.28 6.55-2.71 8.97-2.1 3.78-11.65 20.84-11.65 20.84l-3.49 6.24-3.49-6.24s-9.55-17.06-11.65-20.84M124 74.74c0 2.96.68 5.94 1.77 7.78l.06.1c1.23 2.22 5.2 9.32 8.17 14.63 2.97-5.31 6.94-12.41 8.17-14.63l.06-.1c1.11-1.87 1.77-4.78 1.77-7.78 0-5.92-4.49-10.74-10-10.74s-10 4.82-10 10.74m8.73 4.45c.35.11.73.16 1.11.16.53 0 1.05-.11 1.51-.29v-.01a3.999 3.999 0 0 0-1.51-7.7 3.999 3.999 0 0 0-1.11 7.84m26.69-8.29c.19 1.25.28 2.54.28 3.84 0 1.54-.1 3.05-.28 4.53l8.54-2.38v68.3L136 154.61v-21.65l-8-14.29v35.74l-12.01-4c.02 2.12.01 4.91-.09 8.48l16.03 5.34 44.11-13V66.26zm-51.48 76.83c.05 1.72.09 4.46.02 8.51-.03 1.47-.07 3.11-.13 4.93-.24 7.24-1.53 11.55-4.06 13.59-1.26 1.01-2.49 1.23-3.34 1.23H89.61l-.82-.39c-3.91-1.87-5.28-7.32-5.74-11.6h-42.1c-.46 4.28-1.83 9.73-5.74 11.6l-.82.39H23.76c-.85.03-2.18-.14-3.53-1.23-2.53-2.04-3.82-6.35-4.06-13.59-.38-11.66 0-15.69.02-15.86l.02-.18c.01-.1.1-.67.31-1.56.4-1.67 1.25-4.48 2.89-7.47-2.08-.98-3.41-2.81-3.41-4.99 0-3.29 3.03-5.78 7.05-5.78h4.88c.29-.67.55-1.33.79-1.98.37-.98.7-1.93 1.02-2.88.3-.89.61-1.76.93-2.59 2.9-7.5 6.96-12.38 21.29-13.59 2.29-.19 4.85-.29 7.71-.29h2.51c19.46 0 25.73 4.54 29.82 12.28.47.88.91 1.8 1.33 2.76.33.73.64 1.48.96 2.26.29.71.58 1.42.89 2.15.26.62.54 1.24.83 1.88h4.94c4.02 0 7.05 2.49 7.05 5.78 0 2.18-1.33 4.01-3.41 4.99a30.7 30.7 0 0 1 2.88 7.47c.22.9.31 1.47.32 1.56l.02.18c.01.07.08.79.13 2.42m-8 .27c-.03-1-.06-1.58-.08-1.8-.03-.17-.12-.62-.28-1.26l-.02-.05c-.29-1.05-.79-2.61-1.65-4.28-.75-1.51-1.79-3.12-3.19-4.55-.83-.84-1.74-1.58-2.7-2.19l-.02-.01-.84-.53-.49-.88c-1.67-2.95-2.79-5.7-3.78-8.12-3.36-8.21-5.05-12.33-24.7-12.33h-2.53c-2.99 0-5.53.09-7.7.28-11.3.94-12.48 4.4-14.65 10.77-.95 2.78-2.02 5.94-3.98 9.4l-.49.88-.86.54c-2.84 1.79-4.69 4.37-5.89 6.71a23.5 23.5 0 0 0-1.65 4.31c-.18.66-.27 1.12-.3 1.31-.05.68-.3 4.75.03 14.71.13 4.08.61 6.13.94 7.08h6.75c.69-1.48 1.29-4.97 1.31-8.01l.02-3.97 3.98-.01h53.65l.01 3.98c.02 3.04.62 6.53 1.31 8.01h6.75c.33-.95.81-3 .94-7.08.1-2.93.15-5.35.16-7.33.02-2.57-.01-4.39-.05-5.58m-47.98-5.52c-.65-.73-1.66-1.19-3.03-1.35-2.64-.31-9.57-1.13-9.57-1.13-2.18 0-3.94 1.77-3.94 3.94v1.13c0 1.16.51 2.21 1.31 2.93.69.63 1.62 1.01 2.63 1.01h9.57c1.01 0 1.93-.38 2.62-1.01.15-.13.29-.27.41-.42.57-.68.91-1.55.91-2.51 0-1.05-.31-1.93-.91-2.59M87.15 140s-.12.01-.34.04c-1.43.17-6.95.82-9.23 1.09-2.63.3-3.94 1.76-3.94 3.94 0 1.16.51 2.21 1.31 2.93.69.63 1.62 1.01 2.63 1.01h9.57c1.01 0 1.93-.38 2.62-1.01.77-.68 1.26-1.65 1.31-2.74.01-.06.01-.13.01-.19v-1.13c0-2.17-1.77-3.94-3.94-3.94"/></svg>