<svg xmlns="http://www.w3.org/2000/svg" viewBox="0 0 192 192"><path d="M170.222 114a5.784 5.784 0 0 0 5.778 5.778v8.444c-7.334 0-13.387-5.581-14.14-12.719l-13.86-4.62v-14.62c0-8.165 9.797-28.136 27.958-28.136v8c-13.54 0-19.958 16.151-19.958 20.136v8.854l7.335 2.445c2.354-4.612 7.141-7.784 12.665-7.784v8.444a5.784 5.784 0 0 0-5.778 5.778M84 108h8v-8h-8zm16 0h8v-8h-8zm16 0h8v-8h-8zm-48 4h8V96h-8zm64-12v12h8V96h-8zm-72.01-3.8v19.79l-15.91.01h-.02c-.18 1.29-.54 2.53-1.04 3.69-.59 1.35-1.39 2.59-2.35 3.69-.14.15-.28.31-.42.46s-.29.3-.44.44-.3.28-.46.42-.32.27-.48.4c-.32.26-.66.51-1 .74-.18.11-.35.23-.53.33q-.285.18-.57.33c-.2.11-.4.21-.61.31-.42.21-.85.39-1.28.54-.2.08-.39.14-.59.21-.15.04-.3.09-.45.13-.19.06-.38.1-.57.15-.27.06-.55.12-.83.17-.15.03-.31.05-.46.07-.64.09-1.31.14-1.98.14a16 16 0 0 1-2.28-.18c-.2-.04-.39-.07-.58-.11a7 7 0 0 1-.63-.15c-1.98-.5-3.8-1.41-5.35-2.65l-.38-.32c-.16-.13-.31-.27-.46-.41a14.3 14.3 0 0 1-3.22-4.45c-.51-1.13-.89-2.33-1.1-3.59v-4.84q.33-1.86 1.11-3.51h.01c.14-.3.29-.6.45-.89a14.4 14.4 0 0 1 2.39-3.17c.23-.23.47-.46.72-.67.25-.22.51-.43.77-.63.01-.01.03-.03.05-.04.52-.38 1.06-.73 1.63-1.05.23-.13.47-.25.71-.37.13-.07.25-.12.38-.17.17-.09.35-.16.53-.23a12 12 0 0 1 1.88-.6c.14-.04.29-.07.44-.1.31-.07.62-.13.94-.17.28-.04.57-.07.85-.09.05-.01.11-.01.17-.01.32-.03.64-.04.97-.04s.65.01.97.04c.06 0 .12 0 .17.01.28.02.57.05.85.09.32.04.63.1.94.17.15.03.3.06.44.1.65.15 1.27.35 1.88.6.18.07.36.14.53.23.13.05.25.1.38.17.24.11.48.24.71.37.3.16.58.33.86.51.26.17.52.35.77.54.03.02.05.03.07.05.26.2.5.4.74.61.5.43.97.9 1.4 1.4.87 1 1.6 2.12 2.17 3.33l9.11-.01V96.2c0-1.25-1.35-3.16-2.74-3.39l-29.94-5.36L16 85.04v-9.89l6.53 4.75 28.09 5.03c5.06.85 9.37 6.01 9.37 11.27M35.78 114c0-3.19-2.59-5.78-5.78-5.78s-5.78 2.59-5.78 5.78 2.59 5.78 5.78 5.78 5.78-2.59 5.78-5.78"/></svg>