<svg xmlns="http://www.w3.org/2000/svg" viewBox="0 0 192 192"><path d="M176 96h-8.307c-4.97-5.295-11.12-7.562-15.361-7.986l-41.586-3.466-7.389-14.777-.32-.374C95.563 60.677 83.515 60 80 60c-18.45 0-30.364 10.715-31.842 28.232A31.5 31.5 0 0 0 40 90.31V80h-8v12H16v8h10.658a46 46 0 0 0-2.913 3.675c-5.34 7.476-7.502 14.913-7.591 15.226L14.697 124h21.83c1.783 6.89 8.034 12 15.473 12s13.69-5.11 15.473-12h77.054c1.783 6.89 8.034 12 15.473 12 8.822 0 16-7.178 16-16 0-6.47-1.181-11.739-3.06-16H176zM80 68c1.852 0 11.216.307 16.656 6.257l5.014 10.027L93.86 96H80v-8h-4v-8h-8v8H56.232C57.62 75.074 65.92 68 80 68m-28 60c-4.411 0-8-3.589-8-8s3.589-8 8-8 8 3.589 8 8-3.589 8-8 8m92.527-12H67.473C65.69 109.11 59.44 104 52 104s-13.69 5.11-15.473 12h-10.69C29.214 108.662 37.191 96 52 96h20v8h26.14l7.88-11.818 45.582 3.798c.46.046 8.016.923 12.71 8.627A16 16 0 0 0 160 104c-7.439 0-13.69 5.11-15.473 12M160 128c-4.411 0-8-3.589-8-8s3.589-8 8-8 8 3.589 8 8-3.589 8-8 8"/></svg>