<svg xmlns="http://www.w3.org/2000/svg" viewBox="0 0 192 192"><path d="M176 148.006h-16.665l6.33 6.33L160 160l-16-16 16-16 5.664 5.664-6.33 6.331H176v8.01zM32 32l-5.664 5.664 6.33 6.331H16v8.01h16.665l-6.33 6.33L32 64l16-16zm64 116c-3.544 0-8.17-.914-8.217-.923l-1.568 7.845c.22.044 5.439 1.078 9.785 1.078s9.564-1.034 9.785-1.078l-1.568-7.845c-.046.01-4.673.923-8.217.923m50.829-70.829L136 66.343V34c0-11.103-6.142-18-16.029-18H72.03C62.142 16 56 22.897 56 34v32.343L45.171 77.171l5.658 5.658L56 77.657V155c0 13.15 7.737 21 20.696 21h38.608c12.96 0 20.696-7.85 20.696-21V77.657l5.171 5.172zm-82.554 1.295.166.381c3.245 7.449 6.876 16.569 7.468 23.336L64 107.997V77.842zm56.632-4.435c-.08.178-.158.35-.237.53a277 277 0 0 0-1.13 2.59 294 294 0 0 1-2.933 6.366c-.37.78-1.69.43-1.895.37l-.352-.118-.368-.052c-.486-.068-11.97-1.667-17.992-1.667s-17.506 1.599-17.992 1.667l-.312.033-.352.118c-.26.08-1.58.429-1.95-.35-2.285-4.8-4.933-10.774-5.986-13.62a10 10 0 0 1 1.016-.511l.327-.156C70.851 69.18 80.848 64 96 64s25.15 5.18 25.249 5.231l.316.151c.328.14.696.327 1.027.516-.383 1.033-.977 2.481-1.685 4.133M64 117.926l6.834-5.024c-1.482 6.876-4.168 15.05-6.834 22.328zM80.002 104c0-3.668-.808-7.796-2.062-12.071.491-.078.99-.18 1.504-.334C81.347 91.335 91.06 90.05 96 90.05s14.653 1.286 16.556 1.545c.51.153 1.007.263 1.494.34-1.235 4.256-2.05 8.407-2.05 12.065 0 6.738 2.625 16.686 5.772 26.192-1.282-.124-2.454-.01-3.357.213-1.879.237-13.298 1.65-18.415 1.65s-16.536-1.413-18.415-1.65c-.904-.223-2.074-.337-3.355-.213 3.147-9.506 5.772-19.454 5.772-26.192m41.19 9.013 6.808 5.152v17.062c-2.652-7.237-5.322-15.362-6.808-22.214m-1.097-10.862c.543-6.156 3.564-14.25 6.394-20.907a203 203 0 0 0 1.511-3.41v30.3zM64 34c0-6.623 2.692-9.986 8-9.999V32h8a8 8 0 0 0 8-8h16a8 8 0 0 0 8 8h8v-7.999c5.308.013 8 3.376 8 9.999v25.044a311 311 0 0 0-1.821 3.681 18 18 0 0 0-1.347-.647C123.259 61.275 112.305 56 96 56s-27.259 5.275-28.832 6.078a18 18 0 0 0-1.35.649A294 294 0 0 0 64 59.044zm51.304 134H76.696c-7.853 0-12.094-3.805-12.633-11.308a339 339 0 0 0 3.554-8.546c1.74-3.11 3.803-6.505 5.543-8.85.93-1.253 2.024-1.218 2.52-1.116l.62.126c.553.071 13.63 1.748 19.7 1.748s19.147-1.677 19.7-1.748l.335-.043.322-.098c.014-.004 1.371-.367 2.483 1.131 1.74 2.346 3.805 5.743 5.544 8.853a339 339 0 0 0 3.553 8.543c-.54 7.503-4.78 11.308-12.633 11.308"/></svg>