<svg xmlns="http://www.w3.org/2000/svg" viewBox="0 0 192 192"><path d="M147.999 92.001a4 4 0 0 0 0-8H136.47l-.87-1.741c-.42-.89-5.17-10.9-9.91-16.72-7.02-9.4-27.41-9.54-29.67-9.54-2.31-.02-22.7.13-29.71 9.54-4.74 5.82-9.49 15.83-9.91 16.72l-.87 1.741H43.999a4 4 0 0 0 0 8h5.93C47.199 94.791 44 99.101 44 104v16c0 10.17 2.92 16 8 16h12.01c1.69 0 6.82-.96 7.82-12h48.34c.99 11.04 6.13 12 7.83 12h12c5.08 0 8-5.83 8-16v-16c0-4.899-3.199-9.209-5.939-11.999zM140 120c0 4.21-.63 6.86-1.11 8h-9.72c-.41-.8-1.17-2.96-1.17-8v-4H64v4c0 5.04-.76 7.2-1.17 8h-9.72c-.48-1.14-1.11-3.79-1.11-8v-16c0-3.14 4.27-7.25 6.33-8.75l.81-.58 4.44-8.88.04-.09c.05-.1 4.7-10 8.94-15.16l.14-.18C76.1 65.71 88.55 64 95.81 64h.42c7.22 0 19.67 1.71 23.07 6.36l.14.18c4.24 5.16 8.89 15.06 8.94 15.16l4.49 8.97.79.57c2.07 1.51 6.34 5.62 6.34 8.76zM24 96c0 18.2 6.79 34.85 17.98 47.54a15.95 15.95 0 0 0-4.85 6.57C24.01 135.86 16 116.85 16 96c0-7.24.97-14.26 2.78-20.93a16 16 0 0 0 7.52 2.84A72 72 0 0 0 24 96m105.95 72.43C119.64 173.29 108.13 176 96 176s-23.64-2.71-33.95-7.57a15.9 15.9 0 0 0 4.84-6.59C75.79 165.8 85.64 168 96 168s20.21-2.2 29.11-6.16c1.02 2.6 2.7 4.87 4.84 6.59M32.97 46.79c11.81-15.1 28.91-25.86 48.49-29.46A15.8 15.8 0 0 0 80 24c0 .6.03 1.2.1 1.78-16.2 3.65-30.34 12.79-40.37 25.35a16.1 16.1 0 0 0-6.76-4.34M176 96c0 20.85-8.01 39.86-21.13 54.11a15.95 15.95 0 0 0-4.85-6.57C161.21 130.85 168 114.2 168 96a71.8 71.8 0 0 0-2.28-18.01c.09.01.19.01.28.01 2.71 0 5.26-.68 7.5-1.88 1.63 6.36 2.5 13.02 2.5 19.88m-64-72c0-2.38-.52-4.64-1.46-6.67 19.83 3.65 37.13 14.65 48.95 30.06a16.1 16.1 0 0 0-6.26 4.98c-10.07-13.2-24.61-22.82-41.33-26.59.07-.58.1-1.18.1-1.78m-23.99.44C88 24.29 88 24.15 88 24c0-4.27 3.37-7.77 7.59-7.99.14-.01.27-.01.41-.01s.27 0 .41.01c4.22.22 7.59 3.72 7.59 7.99 0 .15 0 .29-.01.44-.23 4.21-3.73 7.56-7.99 7.56s-7.76-3.35-7.99-7.56M21.55 66.72A7.97 7.97 0 0 1 20 62c0-4.39 3.56-7.97 7.94-8H28c2.94 0 5.51 1.59 6.9 3.96.7 1.19 1.1 2.57 1.1 4.04 0 4.11-3.12 7.51-7.12 7.95a7.99 7.99 0 0 1-7.33-3.23m136.73-6.82A8.03 8.03 0 0 1 166 54c4.41 0 8 3.59 8 8 0 2.51-1.16 4.75-2.98 6.22A7.96 7.96 0 0 1 166 70c-1.1 0-2.15-.22-3.11-.63-2.87-1.22-4.89-4.06-4.89-7.37 0-.73.1-1.43.28-2.1M148 156c0 .26-.01.52-.04.77-.39 4.05-3.81 7.23-7.96 7.23-.56 0-1.11-.06-1.64-.17A8.02 8.02 0 0 1 132 156c0-4.41 3.59-8 8-8 1.6 0 3.1.48 4.35 1.3A7.97 7.97 0 0 1 148 156m-88 0q0 1.125-.3 2.16a8.02 8.02 0 0 1-6.06 5.67c-.53.11-1.08.17-1.64.17-4.15 0-7.57-3.18-7.96-7.23a7.97 7.97 0 0 1 3.61-7.47A7.9 7.9 0 0 1 52 148c4.41 0 8 3.59 8 8"/></svg>