<svg xmlns="http://www.w3.org/2000/svg" viewBox="0 0 192 192"><path d="m80.987 86.77-37.383-6.55-14.94-10.865A27.8 27.8 0 0 0 16 64.273v8.103a19.9 19.9 0 0 1 7.959 3.45L40.396 87.78l39.24 6.876C81.987 95.049 84 97.923 84 100v16H71.473C69.69 109.11 63.44 104 56 104s-13.69 5.11-15.473 12H16v8h24.527c1.783 6.89 8.034 12 15.473 12s13.69-5.11 15.473-12H92v-24c0-6.172-5.057-12.232-11.013-13.23M56 128c-4.411 0-8-3.589-8-8s3.589-8 8-8 8 3.589 8 8-3.589 8-8 8m120-12h-32.527c-1.783-6.89-8.034-12-15.473-12-6.982 0-12.918 4.503-15.097 10.751L108 113.117V100c0-5.796 10.518-28 28-28h40v-8h-40c-22.028 0-36 25.314-36 36v18.883l12.289 4.096C113.69 130.381 120.197 136 128 136c7.439 0 13.69-5.11 15.473-12H176zm-48 12c-4.411 0-8-3.589-8-8s3.589-8 8-8 8 3.589 8 8-3.589 8-8 8M87.285 81.187 69 74.85l2.621-7.558L80.59 70.4 83.938 44l15.108 20.511 5.522-9.403 6.899 4.052L99.8 79.024 89.358 64.848l-2.073 16.34z"/></svg>