<svg xmlns="http://www.w3.org/2000/svg" viewBox="0 0 192 192"><path d="M166.496 152c0-12.695-.388-20.627-7.556-33.978l4.517 1.16 1.992-7.747-17.592-4.523-4.53 17.616 7.749 1.993 1.084-4.217c6.027 11.427 6.336 18.222 6.336 29.696H67.393l10.573-6.77c1.526-.983 5.627-4.875-.253-15.882l23.733-14.966 23.385-14.971c7.544 9.973 12.803 7.873 14.334 6.9l.084-.055c.084-.057 8.48-5.69 10.922-7.254 1.58-1.01 4.012-3.6 2.565-9.581-.711-2.94-2.29-6.414-4.445-9.78l-12.167-19.004c-2.44-3.813-7.605-6.895-12.024-8.988l4.88-3.124a4 4 0 0 0-4.315-6.737L115.43 47.7c-4.5-2.86-14.84-9.202-21.292-11.328-12.17-4.59-33.531 8.898-35.898 10.432-2.42 1.53-23.612 15.296-24.535 28.26-.77 6.75.661 18.793 1.377 24.078l-9.238 5.915a4 4 0 0 0 4.315 6.737l4.88-3.124c.05 4.889.687 10.87 3.128 14.682 1.874 2.927 3.874 6.211 5.81 9.388 1.968 3.233 4.003 6.576 5.95 9.616 2.973 4.645 5.958 7.893 8.768 9.643H24v8h152v-8zM84.58 72.201a5 5 0 0 1-.677-3.787 5 5 0 0 1 2.2-3.156 4.98 4.98 0 0 1 3.787-.676 5 5 0 0 1 3.124 2.159 298 298 0 0 1-8.218 5.798zm-42.92 3.7.02-.225c.416-6.752 13.001-17.146 20.87-22.133 6.696-4.33 18.502-10.169 25.69-10.169 1.174 0 2.226.156 3.112.5l.212.075c4.702 1.527 12.918 6.343 18.161 9.615a288 288 0 0 1-10.321 8.37 12.92 12.92 0 0 0-7.8-5.167 12.94 12.94 0 0 0-9.815 1.753 12.94 12.94 0 0 0-5.7 8.18 12.94 12.94 0 0 0 1.754 9.815l.286.446c-11.37 7.307-23.235 13.846-35.338 19.457-.778-6.131-1.713-15.61-1.131-20.518m9.147 52.68c-1.958-3.215-3.982-6.54-5.904-9.541-1.748-2.73-2.045-9.032-1.804-13.975 26.664-11.987 52.305-28.403 74.351-47.602 4.59 1.85 10.188 4.757 11.936 7.488l12.166 19.003c2.63 4.106 3.595 7.411 3.638 8.742-2.443 1.59-7.436 4.93-9.493 6.309-.838-.408-3.019-1.9-6.41-7.197l-2.158-3.369-29.964 19.184-30.407 19.175 2.171 3.392c3.425 5.348 3.842 7.95 3.854 8.86l-9.763 6.25c-1.127-.68-3.568-2.9-6.357-7.257-1.899-2.964-3.91-6.268-5.856-9.462m10.52-9.95a4 4 0 0 1-5.525-1.212 4 4 0 0 1 1.212-5.524l11.403-7.3a4 4 0 1 1 4.313 6.737zm43.885-32.846a4 4 0 0 1 1.213-5.525l11.404-7.3a4 4 0 1 1 4.312 6.737l-11.403 7.3a4 4 0 0 1-5.525-1.212"/></svg>