<svg xmlns="http://www.w3.org/2000/svg" viewBox="0 0 192 192"><path d="m73.91 31.702 6.63 4.5 2.14-1.16c1.3-.7 2.66-1.28 4.06-1.71l2.32-.73 1.4-7.89c.99-.11 1.99-.16 2.97-.17h.22v-8h-.28c-2.36.02-4.75.26-7.11.71l-2.7.52-1.55 8.76c-.3.12-.61.25-.91.39l-7.36-5-2.26 1.58a38.7 38.7 0 0 0-9.99 10.13l-1.54 2.28 5.1 7.29c-.13.3-.25.61-.37.91l-8.73 1.68-.49 2.71c-.42 2.37-.62 4.77-.61 7.12.02 2.35.26 4.74.72 7.11l.52 2.7 8.75 1.55c.13.3.26.61.39.91l-4.99 7.36 1.57 2.26c2.75 3.93 6.16 7.3 10.14 9.99l2.28 1.54 7.28-5.1c.31.13.61.25.92.37l1.67 8.73 3.64.65c2.12.38 2.63.46 4.29.46.31 0 .65 0 1.06-.01h.56v-8h-.63c-1.08.01-1.57.02-2.1-.04l-1.53-7.96-2.34-.7c-1.4-.41-2.73-.95-4.07-1.65l-2.16-1.13-6.57 4.6a31 31 0 0 1-4.23-4.18l4.5-6.64-1.16-2.13c-.7-1.3-1.28-2.67-1.72-4.06l-.73-2.32-7.89-1.4c-.1-.99-.16-1.99-.17-2.97 0-.98.04-1.98.13-2.97l7.87-1.51.69-2.34c.42-1.39.98-2.77 1.66-4.08l1.13-2.15-4.6-6.57a31 31 0 0 1 4.18-4.24m17.07 17.63c.86-.38 1.76-.57 2.67-.57v-8c-2.02 0-4.03.42-5.92 1.26-7.35 3.27-10.68 11.92-7.41 19.27 2.41 5.43 7.74 8.66 13.33 8.67v-8a6.62 6.62 0 0 1-6.02-3.92c-1.48-3.32.02-7.23 3.35-8.71m20.591-25.625a5.272 5.272 0 1 1-10.544 0 5.272 5.272 0 0 1 10.544 0m0 21.791a5.272 5.272 0 1 1-10.544 0 5.272 5.272 0 0 1 10.544 0m0 21.792a5.272 5.272 0 1 1-10.544 0 5.272 5.272 0 0 1 10.544 0m0 21.79a5.272 5.272 0 1 1-10.544 0 5.272 5.272 0 0 1 10.544 0m15.816-32.335a5.272 5.272 0 1 1-10.544 0 5.272 5.272 0 0 1 10.544 0m-10.544-21.79a5.272 5.272 0 1 1 10.545 0 5.272 5.272 0 0 1-10.545 0m10.544 43.582a5.272 5.272 0 1 1-10.544 0 5.272 5.272 0 0 1 10.544 0M144.052 124h-12.4c-1.657-3.272-4.791-9.097-7.926-12.942-6.512-8.728-25.3-8.873-27.377-8.856-2.127.01-20.91.126-27.425 8.855-3.134 3.846-6.269 9.67-7.925 12.943H48.103a4 4 0 0 0 0 8h5.246c-2.57 2.603-5.35 6.415-5.35 10.756v18.277C48 172.08 52.372 176 56.115 176h11.527l.54-.154c1.743-.498 5.527-2.645 6.381-11.846h43.526c.854 9.201 4.638 11.348 6.38 11.846l.54.154h11.528c4.883 0 7.464-5.46 7.464-15.788v-18.278c0-4.134-2.324-7.554-4.622-9.934h4.674a4 4 0 0 0 0-8zM136 160.212c0 3.946-.495 6.544-.906 7.788h-7.945c-.468-.916-1.235-3.156-1.235-8v-4H66.736v4c0 4.844-.768 7.084-1.235 8h-8.315c-.521-1.082-1.186-3.575-1.186-6.967v-18.277c0-2.42 3.592-6 6.011-7.654l.317-.213 4.423-4.421.298-.637c.042-.09 4.267-9.081 8.125-13.78l.137-.178c2.898-3.965 14.051-5.732 21.035-5.671 6.96-.061 18.095 1.705 20.993 5.67l.137.18c3.848 4.685 8.084 13.69 8.126 13.78l.3.637 4.475 4.473.39.242c1.639 1.021 5.233 4.14 5.233 6.75z"/></svg>