<svg xmlns="http://www.w3.org/2000/svg" viewBox="0 0 192 192"><path fill="#1a1a18" d="M16 24.016v-8.003q.348-.008.966-.013h1.656c9.767.073 40.295 1.548 51.01 16.848 5.159 6.656 8.241 13.337 10.602 19.151h-8.677c-2.013-4.616-4.537-9.479-8.305-14.325l-.131-.179c-8.286-11.967-36.702-13.789-47.12-13.479Zm86.936 119.983v2.671c0 12.833-2.47 20.038-3.907 21.33H78.91c-.778-1.174-2.911-5.7-2.911-20v-4H16v8h52.055c.329 11.481 2.135 18.707 5.494 22.03 1.778 1.759 3.529 1.968 4.21 1.97h21.587c10.461-.011 11.591-20.513 11.591-29.33v-2.671zm-64.865-19.998h34.435v-9.352H49.67V72.167H38.071V124Zm43.863 0h37.552v-9.352H93.388v-12.832h18.994V93.19H93.388V81.518h24.938v-9.352H81.933v51.833Zm48.864 0h18.849c16.674 0 26.243-9.497 26.243-26.098 0-16.311-9.497-25.735-25.88-25.735h-19.211zm11.599-9.207v-33.42h7.757c8.844 0 13.629 5.872 13.629 16.674 0 10.875-4.712 16.746-13.557 16.746h-7.83Z"/></svg>