<svg xmlns="http://www.w3.org/2000/svg" viewBox="0 0 192 192"><path d="M101.654 92.007h26.36l-2.89 8h-26.78l-8-8h-10.34v-8h-8v4h-8v-16.01h8v4.01h8v-8h10.34l8-8h9.66v-8h-4v-8h16v8h-4v8h9.65l1.09 1.09-5.86 6.91h-19.23l-8 8h-5.65v8h5.65zm58.27-25.07h-16.9l9.66-24.14-11.54 13.63-8.74 10.33-4.24 5.01-2.04 2.41h16.9l-9.66 26.56zM176 111.616V136h-16.526c-1.783 6.889-8.035 12-15.474 12s-13.69-5.111-15.473-12H83.474c-1.783 6.889-8.035 12-15.474 12-7.803 0-14.31-5.62-15.71-13.021L40 130.882v-7.479c-6.652-1.928-12-8.394-12-15.403V87.476C21.103 85.697 16 79.453 16 72v-8h4V52h8v12h8V52h8v12h4v8c0 7.452-5.103 13.697-12 15.475V108c0 2.64 1.699 5.24 4 6.729v-10.73c0-1.726 0-1.867 12.837-18.448l6.327 4.897c-4.55 5.876-9.543 12.435-11.164 14.715v19.954l4.903 1.634C55.083 120.502 61.019 116 68 116c7.44 0 13.69 5.11 15.474 12h45.053c1.783-6.89 8.034-12 15.473-12s13.69 5.11 15.474 12H168v-16.384c0-2.077-2.013-4.95-4.364-5.344l-21.534-3.754 5.639-7.138 17.242 3.006c5.96.997 11.017 7.058 11.017 13.23M76 132c0-4.412-3.588-8-8-8s-8 3.588-8 8c0 4.41 3.59 8 8 8s8-3.59 8-8m75.993-.155c-.084-4.34-3.633-7.845-7.993-7.845-4.41 0-8 3.588-8 8 0 4.41 3.59 8 8 8 4.36 0 7.91-3.507 7.993-7.846z"/></svg>