<svg xmlns="http://www.w3.org/2000/svg" viewBox="0 0 192 192"><path d="M176 168v8H16v-8zM32.834 81.98a4 4 0 0 1 5.611-.72l6.331 4.89c-.61-4.264-.734-10.8 2.97-15.335l14.112-17.28c6.948-8.505 13.35-11.513 17.565-8.258l10.66 8.236c.584.453 1.945 1.768 2.238 4.366.349 3.095-.97 6.77-4.018 11.168l43.645 33.719c8.55-8.964 13.558-6.428 14.98-5.338l10.67 8.245c1.335 1.03 2.148 2.516 2.352 4.298.56 4.893-3.903 11.191-6.613 14.51l-14.113 17.28c-3.636 4.452-10.073 5.809-14.43 6.207l6.04 4.667a4 4 0 1 1-4.89 6.33l-10.534-8.136-2.363 1.07c-.952.459-12.216 5.838-20.477 7.594-1.325.342-2.71.497-4.13.497-12.057 0-26.663-11.122-28.468-12.535-2.006-1.53-19.869-15.538-19.458-28.311-.11-8.25 2.728-20.147 2.978-21.179l.5-2.31-10.437-8.065a4 4 0 0 1-.72-5.61zm15.683 37.256-.005.116c-.27 6.544 9.886 16.829 16.353 21.774 6.476 5.054 19.153 12.375 25.749 10.609l.213-.05c7.489-1.57 18.671-6.956 18.783-7.01l.092-.043 10.075-4.564.961.045c2.373.107 9.752-.305 12.29-3.412l14.113-17.28c3.171-3.884 4.478-6.742 4.785-8.021l-9.114-7.041c-.84.273-3.195 1.44-7.242 6.396l-2.463 3.015-56.081-43.326 2.6-3.183c3.84-4.702 4.584-7.163 4.72-8.072L75.22 52.14c-1.18.519-3.876 2.427-7.166 6.456l-14.113 17.28c-2.489 3.047-1.248 10.016-.616 12.217l.277.967-2.326 10.752c-.03.118-2.885 11.897-2.762 19.309zm78.34-54.571c10.495 8.747 20.036 7.31 20.036 7.31.5-.046.933-.292 1.23-.652l.772-.937 2.703-3.28a1.834 1.834 0 0 0-.24-2.571l-5.597-4.665a1.81 1.81 0 0 0-2.558.239l-2.704 3.28c-.296.36-.73.605-1.229.652 0 0-2.953.604-8.55-4.062-5.597-4.665-5.555-7.695-5.555-7.695a1.83 1.83 0 0 1 .41-1.336l2.703-3.28a1.834 1.834 0 0 0-.24-2.571l-5.597-4.665a1.81 1.81 0 0 0-2.558.239l-2.704 3.28-.772.937c-.297.36-.457.833-.41 1.335 0 0 .367 9.695 10.86 18.442"/></svg>