<svg xmlns="http://www.w3.org/2000/svg" viewBox="0 0 192 192"><path d="M50.47 110.63c-1.98.88-4.17 1.37-6.47 1.37-7.8 0-14.32-5.62-15.71-13.02L16 94.88V76c0-8.45 8.73-26.04 23.27-33.03a53.4 53.4 0 0 0-5.77 14.37v.01C27.38 64.15 24 72.71 24 76v13.12l4.89 1.63c.96-2.77 2.66-5.19 4.87-7.03.79 3 1.83 5.9 3.11 8.67A7.85 7.85 0 0 0 36 96c0 4.41 3.59 8 8 8h.07c1.95 2.39 4.08 4.61 6.4 6.63M140 112c-1.54 0-3.03-.22-4.44-.63l32.85 41.19c2.43 3.05 3.7 6.8 3.58 10.57-.13 4.13-1.91 7.77-5.03 10.26-2.43 1.94-5.37 2.87-8.36 2.87-4.49 0-9.1-2.11-12.27-6.1l-39.98-50.14-5.24-6.57A45.9 45.9 0 0 1 86 116c-11.06 0-21.22-3.92-29.16-10.46a45 45 0 0 1-5.82-5.71 45.9 45.9 0 0 1-7.35-11.82 45.3 45.3 0 0 1-2.51-7.75C40.4 76.96 40 73.53 40 70c0-7.47 1.79-14.52 4.96-20.76 1.69-3.33 3.77-6.42 6.18-9.22C59.58 30.22 72.08 24 86 24c20.72 0 38.28 13.77 44.02 32.64.83 2.71 1.41 5.53 1.71 8.43.18 1.62.27 3.27.27 4.93a45.7 45.7 0 0 1-5.61 22c-.73 1.33-1.53 2.63-2.39 3.88V96q0 .45.03.9v.01l2.47 3.09 2.3 2.89c1.23-1.59 2.38-3.26 3.43-5 .85 3.5 4.01 6.11 7.77 6.11 4.41 0 8-3.59 8-8s-3.59-8-8-8c-1.19 0-2.33.27-3.35.74a53 53 0 0 0 2.41-8.71c.31-.02.62-.03.94-.03 7.44 0 13.71 5.11 15.49 12H168V76c0-2.08-2.01-4.95-4.36-5.34l-23.76-4.17c-.18-2.84-.58-5.63-1.19-8.33l26.3 4.61c5.95 1 11.01 7.06 11.01 13.23v24h-20.51c-1.78 6.89-8.05 12-15.49 12m-54-4c8.78 0 16.86-2.99 23.3-8 2.93-2.28 5.52-4.98 7.67-8A37.76 37.76 0 0 0 124 70c0-2.38-.22-4.72-.64-6.98-.95-5.11-2.93-9.87-5.72-14.04C110.82 38.75 99.18 32 86 32c-8.78 0-16.86 2.99-23.3 8a38.3 38.3 0 0 0-7.67 8A37.76 37.76 0 0 0 48 70c0 3.84.57 7.54 1.63 11.03C51 85.53 53.18 89.68 56 93.3a39 39 0 0 0 3.92 4.32c.89.84 1.81 1.63 2.78 2.38 6.44 5.01 14.52 8 23.3 8m37.39.93-5.02-6.29a46 46 0 0 1-9.75 7.4l5.04 6.32 38.92 48.82c2.21 2.77 6.43 4.31 9.39 1.95 2.95-2.35 2.39-6.81.18-9.58zM86 40a29.83 29.83 0 0 0-20.37 8H96.2c4.25 0 8.32 1.32 11.76 3.83l3.74 2.72C106.45 45.84 96.89 40 86 40m0 60c7.86 0 15.02-3.03 20.37-8H65.63c5.35 4.97 12.51 8 20.37 8"/></svg>