<svg xmlns="http://www.w3.org/2000/svg" viewBox="0 0 192 192"><path d="m141.001 96-.468.027s-12.319 1.453-16.996 2C117.038 98.787 113 102.99 113 109c0 6.065 4.935 11 11 11h17c6.065 0 11-4.935 11-11v-2c0-6.065-4.935-11-11-11zm3 13c0 1.654-1.346 3-3 3h-17c-1.654 0-3-1.346-3-3 0-1.044 0-2.622 3.464-3.027 4.261-.498 14.859-1.747 16.723-1.967A3.003 3.003 0 0 1 144 107v2zm32-29c0-8.281-6.826-11.444-10.435-11.96l-14.75-.04c-1.828-4.888-6.068-15.23-11.592-22.371-4.399-6.27-13.126-10.458-25.944-12.45-8.615-1.34-16.174-1.207-17.28-1.18-1.101-.03-8.617-.163-17.238 1.173-12.841 1.99-21.582 6.18-25.986 12.457-5.524 7.14-9.764 17.483-11.592 22.371H27l-.566.04C22.824 68.556 16 71.719 16 80c0 5.029 3.262 10.205 8.878 11.622C22.521 95.878 20 101.865 20 108v28c0 7.216.974 24 10 24h17.33l.327-.054c7.055-1.176 8.815-12.821 9.225-19.946h78.214c.856 17.145 7.205 19.605 9.247 19.946l.326.054H162c9.026 0 10-16.784 10-24v-28c0-6.135-2.521-12.122-4.878-16.378C172.738 90.205 176 85.03 176 80zM68.098 70.812C68.676 66.964 71.995 64 76.001 64c4.33 0 7.86 3.46 7.988 7.76-5.3-.188-10.598-.51-15.89-.948zm-8.942-20.356.131-.18c6.35-9.172 28.559-10.527 36.586-10.278l.128.004.127-.004c8.017-.266 30.217 1.084 36.583 10.279l.131.179c4.212 5.415 7.723 13.35 9.682 18.292a337.6 337.6 0 0 1-50.527 3.195C91.968 63.147 84.804 56 76.001 56c-8.162 0-14.905 6.148-15.87 14.054q-5.334-.568-10.657-1.307c1.955-4.937 5.461-12.863 9.683-18.291zM164 84l-12.284.005 5.157 6.489c.071.09 7.127 9.066 7.127 17.506v28c0 8.988-1.611 14.537-2.643 16h-15.273c-.792-.921-3.083-4.58-3.083-16v-4H49v4c0 11.42-2.292 15.079-3.084 16H30.643C29.611 150.537 28 144.988 28 136v-28c0-8.44 7.056-17.416 7.123-17.501L40.322 84H28c-2.935 0-4-2.392-4-4 0-2.903 2.226-3.758 3.357-4h16.357c17.349 2.652 34.818 3.981 52.287 3.981s34.938-1.329 52.286-3.981h16.344c1.18.256 3.37 1.121 3.37 4 0 1.608-1.066 4-4 4zM68.464 98.027c-4.677-.547-16.995-2-16.996-2L51 96c-6.065 0-11 4.935-11 11v2c0 6.065 4.935 11 11 11h17c6.065 0 11-4.935 11-11 0-6.009-4.037-10.213-10.536-10.973M68 112H51c-1.654 0-3-1.346-3-3v-2a3.003 3.003 0 0 1 2.813-2.994c1.864.22 12.462 1.47 16.723 1.967C71 106.378 71 107.956 71 109c0 1.654-1.346 3-3 3m13.391 53.633c2.816-.96 4.032-2.688 4.032-5.824 0-4.191-3.072-6.687-8.256-6.687H66.512V176h6.304v-8.127h2.912c1.823 0 2.367.64 3.007 3.615.448 2.08.96 3.616 1.472 4.512h6.464v-.128c-.448-.576-.832-1.792-1.504-4.608-.864-4-1.472-4.895-3.776-5.631m-5.023-2.272h-3.552v-5.44h3.264c1.343 0 1.92.128 2.463.576.544.48.832 1.184.832 2.112 0 1.792-1.056 2.752-3.007 2.752m20.096 7.583h9.439V176H90.16v-22.878h6.304zm19.04.097h11.039V176h-17.215v-22.878h16.735v4.96h-10.56v3.903h7.68v4.736h-7.68z"/></svg>