<svg xmlns="http://www.w3.org/2000/svg" viewBox="0 0 192 192"><path d="M167.12 107.62c2.36 4.26 4.88 10.25 4.88 16.38v28c0 7.22-.97 24-10 24h-17.33l-.33-.05c-2.04-.34-8.39-2.8-9.24-19.95H56.88c-.41 7.13-2.17 18.77-9.22 19.95l-.33.05H30c-9.03 0-10-16.78-10-24v-28c0-6.13 2.52-12.12 4.88-16.38C19.26 106.21 16 101.03 16 96c0-8.28 6.83-11.44 10.43-11.96L27 84h14.18c1.83-4.89 6.07-15.23 11.6-22.37 4.4-6.28 13.14-10.47 25.98-12.46 5.2-.8 10.01-1.07 13.24-1.15V52c0 1.37.1 2.7.31 3.99-9.71.21-27.46 2.25-33.02 10.29l-.13.18c-6.51 8.36-11.32 22.66-11.37 22.81L46.88 92H27.36c-1.13.24-3.36 1.1-3.36 4 0 1.61 1.07 4 4 4h12.32l-5.2 6.5c-.06.08-7.12 9.06-7.12 17.5v28c0 8.99 1.61 14.54 2.64 16h15.28c.79-.92 3.08-4.58 3.08-16v-4h94v4c0 11.42 2.29 15.08 3.08 16h15.28c1.03-1.46 2.64-7.01 2.64-16v-28c0-8.44-7.06-17.42-7.13-17.5l-5.15-6.49L164 100c2.94 0 4-2.39 4-4 0-2.88-2.19-3.74-3.37-4h-12.9c1.45-2.38 2.56-5.06 3.28-7.98l10.56.02C169.18 84.56 176 87.72 176 96c0 5.03-3.26 10.21-8.88 11.62m-98.66 6.41c6.5.76 10.54 4.96 10.54 10.97 0 6.07-4.93 11-11 11H51c-6.07 0-11-4.93-11-11v-2c0-6.06 4.93-11 11-11l.47.03zm-.92 7.94c-4.27-.49-14.86-1.74-16.73-1.96A3 3 0 0 0 48 123v2c0 1.66 1.35 3 3 3h17c1.65 0 3-1.34 3-3 0-1.04 0-2.62-3.46-3.03M141 112c6.07 0 11 4.94 11 11v2c0 6.07-4.93 11-11 11h-17c-6.06 0-11-4.93-11-11 0-6.01 4.04-10.21 10.54-10.97l16.99-2zm.19 8.01c-1.87.22-12.46 1.47-16.72 1.96-3.47.41-3.47 1.99-3.47 3.03 0 1.66 1.35 3 3 3h17c1.66 0 3-1.34 3-3v-2c0-1.59-1.24-2.9-2.81-2.99M104 62.93c-2.52-2.79-4-6.58-4-10.93V24.07c0-4.53 3.51-8.07 8-8.07h4v8h-4v28c0 5.53 4.02 8 8 8s8-2.47 8-8V24.01l-4-.01v-8h4c4.49 0 8 3.54 8 8.07V52c0 4.35-1.48 8.14-4 10.93-2.06 2.27-4.8 3.89-8 4.62v8.56c0 2.79.72 11.89 10 11.89 8.5 0 9.92-7.5 10-11.97V44c0-9.03 7.41-13.91 14.39-13.91 7.76 0 13.61 6.03 13.61 14.04l-.03 12.64a10.07 10.07 0 0 1 6.08 9.23c0 5.54-4.51 10.05-10.05 10.05-3.26 0-6.17-1.56-8-3.98a9.96 9.96 0 0 1-2.05-6.07c0-4.11 2.48-7.65 6.02-9.2l.03-12.68c0-4.16-2.82-6.03-5.61-6.03-2.38 0-6.39 1.24-6.39 5.91v32.11C147.77 88.22 140.71 96 130 96c-12.43 0-18-9.99-18-19.89v-8.56c-3.2-.73-5.94-2.35-8-4.62M166.05 66c0-1.13-.92-2.05-2.05-2.05s-2.05.92-2.05 2.05.92 2.05 2.05 2.05 2.05-.92 2.05-2.05"/></svg>