<svg xmlns="http://www.w3.org/2000/svg" viewBox="0 0 192 192"><path d="m131.24 42.26-2.32 8.5 9.02-2.68 1.13-4.12C146.29 43.41 152 37.36 152 30c0-7.72-6.28-14-14-14s-14 6.28-14 14c0 5.27 2.93 9.87 7.24 12.26M138 24c3.31 0 6 2.69 6 6s-2.69 6-6 6-6-2.69-6-6 2.69-6 6-6M75.39 88.04l16.19-2.49 4.14 7.47-19.11 2.93zm45.36.6-4.11-7.4 4.17-.74.68-2.49V78l9.02-2.67-3.32 12.16zm-58.24 19.64L83.23 100l16.38.02 4.45 8-19.29-.02-19.28 7.71zm85.54-38.17 9.6-2.85-15.19 40.81-10.92-.01-4.45-8.01 9.81.01zm23.7-40.72-3.62 9.71-9.6 2.86 5.72-15.36zm-50.78 90.82c-1.38-.34-3.02-.61-4.87-.81a73 73 0 0 0-5.92-.36c-17.118-.41-43.822 3.519-55.285 11.147L43.975 35.54l-7.948.917L48 140.221v.009c.03 4.46 1.48 8.23 4 10.96V176h76v-22.14c4.78-2.75 8-7.9 8-13.77 0-3.89-1.18-8.21-3.64-11.89-2.47-3.67-6.22-6.7-11.39-7.99M120 168H60v-12h60zm0-20H64c-2.94 0-7.83-.99-7.99-7.57.27-1.05 1.41-2.3 3.24-3.53 9.36-6.3 32.74-9.93 48.38-9.93 4.69 0 8.68.32 11.4 1 6.16 1.54 8.97 7.36 8.97 12.12 0 4.36-3.59 7.91-8 7.91m-16.5-73.94 4.81 8.66 4.11 7.4 5.51 9.92 4.44 8.01.15.26-6.99 3.88-2.31-4.16-4.45-8-4.68-8.43-4.11-7.4-3.48-6.26zm60.04-22.62 1.59 5.4-4.04 1.19-9.59 2.82-18.53 5.45-9.01 2.65-6.82 2.01h-.01L116 67.12l-1.13-3.84 11.56-3.4 9.02-2.65 19.54-5.75 7.88-2.32zm-86.37 3.388a4 4 0 1 1 5.657-5.656 4 4 0 0 1-5.657 5.656M60.2 32.201l-5.658-5.657c14.039-14.036 36.876-14.035 50.912 0L99.797 32.2c-10.918-10.917-28.68-10.916-39.597 0zm33.94 5.657-5.657 5.657c-4.677-4.678-12.29-4.678-16.97 0l-5.657-5.657c7.8-7.798 20.486-7.797 28.285 0z"/></svg>