<svg xmlns="http://www.w3.org/2000/svg" viewBox="0 0 192 192"><path d="M167.12 107.639c2.358 4.256 4.88 10.243 4.88 16.378v28c0 7.216-.975 24-10 24h-17.332l-.326-.055c-2.042-.34-8.391-2.8-9.247-19.945H56.881c-.41 7.125-2.17 18.77-9.225 19.945l-.326.055H29.999c-9.026 0-10-16.784-10-24v-28c0-6.135 2.522-12.122 4.878-16.378C19.261 106.222 16 101.045 16 96.017c0-8.282 6.825-11.445 10.434-11.96l.566-.04h14.184c.409-1.094.945-2.472 1.584-4.016h8.71c-2.274 5.09-3.658 9.204-3.684 9.28l-.912 2.736H27.356c-1.13.241-3.357 1.096-3.357 4 0 1.608 1.065 4 4 4H40.32l-5.199 6.499c-.067.084-7.123 9.06-7.123 17.5v28c0 8.988 1.611 14.537 2.643 16h15.273c.792-.92 3.084-4.58 3.084-16v-4h94v4c0 11.42 2.292 15.08 3.084 16h15.273c1.032-1.463 2.643-7.012 2.643-16v-28c0-8.44-7.056-17.416-7.127-17.506l-5.157-6.489 12.284-.004c2.935 0 4-2.392 4-4 0-2.88-2.189-3.744-3.37-4h-19.51l-.914-2.734c-.048-.144-4.876-14.47-11.363-22.81l-.131-.18c-3.644-5.263-12.475-7.951-20.865-9.241a25.4 25.4 0 0 0-.421-8.123q.918.122 1.854.266c12.818 1.992 21.545 6.181 25.944 12.45 5.524 7.141 9.764 17.484 11.592 22.372l14.75.04c3.61.515 10.434 3.678 10.434 11.96 0 5.028-3.262 10.205-8.878 11.622M79 125.017c0-6.009-4.037-10.213-10.536-10.974-4.678-.546-16.996-2-16.996-2l-.468-.026c-6.066 0-11 4.934-11 11v2c0 6.065 4.934 11 11 11h17c6.065 0 11-4.935 11-11m-11.465-3.028C71 122.395 71 123.973 71 125.017c0 1.654-1.346 3-3 3H51c-1.655 0-3-1.346-3-3v-2a3.003 3.003 0 0 1 2.813-2.995c1.864.22 12.461 1.47 16.722 1.967M152 125.017v-2c0-6.066-4.935-11-11-11l-.469.027s-12.318 1.453-16.996 2c-6.499.76-10.535 4.964-10.535 10.973 0 6.065 4.934 11 11 11h17c6.065 0 11-4.935 11-11m-8-2v2c0 1.654-1.346 3-3 3h-17c-1.655 0-3-1.346-3-3 0-1.044 0-2.622 3.464-3.027 4.26-.498 14.858-1.748 16.722-1.968a3.004 3.004 0 0 1 2.814 2.995M78.827 53.173 64 38.345 49.17 53.173l5.658 5.657L60 53.658V80h8V53.658l5.17 5.172 5.658-5.657zM95.98 39.547q.02-.469.02-.933c0-12.468-10.318-22.613-23-22.613-7.03 0-13.49 3.06-17.828 8.317a18.2 18.2 0 0 0-4.172-.48c-8.496 0-15.522 5.275-17.527 12.7C25.804 38.589 20 45.946 20 54.289c0 9.767 8.074 17.713 18 17.713h14v-8H38c-5.515 0-10-4.357-10-9.714 0-5.338 4.125-9.956 9.196-10.294l3.482-.233.242-3.481c.34-4.89 4.58-8.44 10.08-8.44 1.427 0 2.808.287 4.104.856l3.19 1.398 1.824-2.968c2.74-4.46 7.556-7.124 12.882-7.124 8.27 0 15 6.556 15 14.613a14.4 14.4 0 0 1-.219 2.47l-.539 3.088 2.87 1.262C93.688 47.004 96 50.48 96 54.287c0 5.357-4.486 9.714-10 9.714H76v8h10c9.925 0 18-7.946 18-17.714 0-5.976-3.07-11.49-8.02-14.74"/></svg>