<svg xmlns="http://www.w3.org/2000/svg" viewBox="0 0 192 192"><path d="M113.001 109c0 6.065 4.935 11 11 11h17c6.065 0 11-4.935 11-11v-2c0-6.065-4.935-11-11-11l-.468.027s-12.319 1.453-16.996 2C117.038 98.787 113 102.99 113 109zm8 0c0-1.044 0-2.622 3.464-3.027 4.261-.498 14.859-1.747 16.723-1.967A3.003 3.003 0 0 1 144 107v2c0 1.654-1.346 3-3 3h-17c-1.654 0-3-1.346-3-3zM24.879 91.622C22.522 95.878 20 101.865 20 108v28c0 7.216.975 24 10 24h17.331l.327-.054c2.042-.341 8.39-2.801 9.246-19.946h78.214c.41 7.125 2.17 18.77 9.225 19.946l.327.054H162c9.025 0 10-16.784 10-24v-28c0-6.135-2.522-12.122-4.879-16.378C172.738 90.205 176 85.029 176 80c0-8.281-6.825-11.444-10.434-11.96L165 68h-14.184c-1.829-4.888-6.069-15.23-11.593-22.371-4.403-6.277-13.144-10.467-25.986-12.457C104.618 31.836 97.102 31.968 96 32c-1.107-.027-8.665-.16-17.28 1.18-12.817 1.992-21.545 6.18-25.943 12.45-5.524 7.14-9.764 17.483-11.593 22.371l-14.75.04C22.825 68.556 16 71.719 16 80c0 5.029 3.262 10.205 8.879 11.622m43.22-20.81C68.676 66.964 71.995 64 76.001 64c4.33 0 7.86 3.46 7.988 7.76a338 338 0 0 1-15.89-.948m74.428-2.064a337.6 337.6 0 0 1-50.529 3.195C91.968 63.147 84.804 56 76.001 56c-8.162 0-14.905 6.148-15.87 14.054q-5.334-.568-10.655-1.306c1.959-4.942 5.47-12.877 9.681-18.292l.132-.18c6.365-9.194 28.565-10.544 36.582-10.278l.127.004.128-.004c8.028-.25 30.236 1.107 36.586 10.279l.132.179c4.221 5.428 7.727 13.355 9.683 18.292M24 80c0-2.879 2.19-3.744 3.37-4h16.344c17.349 2.652 34.818 3.981 52.287 3.981s34.938-1.329 52.286-3.981h16.357c1.13.242 3.357 1.097 3.357 4 0 1.608-1.065 4-4 4h-12.322l5.198 6.499c.068.084 7.124 9.06 7.124 17.501v28c0 8.988-1.612 14.537-2.644 16h-15.272c-.792-.921-3.084-4.58-3.084-16v-4H49v4c0 11.42-2.292 15.079-3.084 16H30.644C29.612 150.537 28 144.988 28 136v-28c0-7.052 5.142-15.024 7.124-17.501L40.322 84H28c-2.935 0-4-2.392-4-4m16 27v2c0 6.065 4.935 11 11 11h17c6.065 0 11-4.935 11-11 0-6.009-4.037-10.213-10.536-10.973-4.677-.547-16.995-2-16.996-2L51 96c-6.065 0-11 4.935-11 11m8 0a3.003 3.003 0 0 1 2.813-2.994c1.864.22 12.462 1.47 16.723 1.967C71 106.378 71 107.956 71 109c0 1.654-1.346 3-3 3H51c-1.654 0-3-1.346-3-3z"/></svg>