<svg xmlns="http://www.w3.org/2000/svg" viewBox="0 0 192 192"><path fill="#020204" d="m141.001 112-.468.027s-12.319 1.453-16.996 2C117.038 114.787 113 118.99 113 125c0 6.065 4.935 11 11 11h17c6.065 0 11-4.935 11-11v-2c0-6.065-4.935-11-11-11zm3 13c0 1.654-1.346 3-3 3h-17c-1.654 0-3-1.346-3-3 0-1.044 0-2.622 3.464-3.027 4.261-.498 14.859-1.747 16.723-1.967A3.003 3.003 0 0 1 144 123v2zm-75.537-10.973c-4.677-.547-16.995-2-16.996-2L51 112c-6.065 0-11 4.935-11 11v2c0 6.065 4.935 11 11 11h17c6.065 0 11-4.935 11-11 0-6.009-4.037-10.213-10.536-10.973M68 128H51c-1.654 0-3-1.346-3-3v-2a3.003 3.003 0 0 1 2.813-2.994c1.864.22 12.462 1.47 16.723 1.967C71 122.378 71 123.956 71 125c0 1.654-1.346 3-3 3m-1.484-75.827L55.03 40.687l5.658-5.658L68 42.343V16h8v26.343l7.313-7.314 5.658 5.658-8.201 8.2.065-.009-8.822 8.822-5.52-5.52zM176.001 96c0-8.281-6.825-11.444-10.434-11.96l-14.75-.04c-1.829-4.888-6.069-15.23-11.593-22.371-4.398-6.27-13.126-10.458-25.943-12.45-8.615-1.34-16.173-1.206-17.28-1.18a76 76 0 0 0-2.967-.006l-8.491 8.49c4.59-.474 8.715-.566 11.332-.485l.128.004.127-.004c8.016-.264 30.217 1.084 36.582 10.279l.132.179c4.211 5.415 7.722 13.35 9.681 18.292a337.6 337.6 0 0 1-50.527 3.195C91.968 79.147 84.804 72 76.001 72c-8.162 0-14.905 6.148-15.87 14.054a340 340 0 0 1-10.657-1.306c1.956-4.937 5.462-12.864 9.683-18.292l.132-.18c1.257-1.816 3.151-3.316 5.42-4.567l-5.822-5.821c-2.542 1.664-4.59 3.575-6.11 5.74C47.253 68.77 43.013 79.113 41.184 84H27l-.566.04C22.825 84.556 16 87.719 16 96c0 5.029 3.262 10.205 8.879 11.622C22.522 111.878 20 117.865 20 124v28c0 7.216.975 24 10 24h17.331l.327-.054c7.055-1.176 8.814-12.821 9.225-19.946h78.214c.855 17.145 7.204 19.605 9.246 19.946l.327.054H162c9.025 0 10-16.784 10-24v-28c0-6.135-2.522-12.122-4.879-16.378C172.738 106.205 176 101.029 176 96zm-100-16c4.33 0 7.86 3.46 7.988 7.76-5.3-.188-10.598-.51-15.89-.948.577-3.848 3.896-6.812 7.902-6.812m88 20-12.284.005 5.157 6.489c.07.09 7.127 9.066 7.127 17.506v28c0 8.988-1.612 14.537-2.644 16h-15.272c-.792-.921-3.084-4.58-3.084-16v-4H49v4c0 11.42-2.292 15.079-3.084 16H30.644C29.612 166.537 28 160.988 28 152v-28c0-8.44 7.056-17.416 7.124-17.501L40.322 100H28c-2.935 0-4-2.392-4-4 0-2.903 2.227-3.758 3.357-4h16.357c17.349 2.652 34.818 3.981 52.287 3.981s34.938-1.329 52.286-3.981h16.344c1.18.256 3.37 1.121 3.37 4 0 1.608-1.065 4-4 4"/></svg>