<svg xmlns="http://www.w3.org/2000/svg" xml:space="preserve" viewBox="0 0 192 192"><path d="M160.437 32h-40.874C110.982 32 104 38.982 104 47.563v28.874C104 85.018 110.982 92 119.563 92H124v58.14l16 10.668 16-10.667V92h4.437C169.018 92 176 85.018 176 76.437V47.563C176 38.982 169.018 32 160.437 32M148 145.86l-8 5.332-8-5.333V92h16zm20-69.423c0 4.17-3.393 7.563-7.563 7.563h-40.874c-4.17 0-7.563-3.393-7.563-7.563V47.563c0-4.17 3.393-7.563 7.563-7.563h40.874c4.17 0 7.563 3.393 7.563 7.563zM51.468 96.027 51 96c-6.065 0-11 4.935-11 11v2c0 6.065 4.935 11 11 11h17c6.065 0 11-4.935 11-11 0-6.009-4.037-10.213-10.536-10.973-4.677-.547-16.995-2-16.996-2M71 109c0 1.654-1.346 3-3 3H51c-1.654 0-3-1.346-3-3v-2a3.003 3.003 0 0 1 2.813-2.994c1.864.22 12.462 1.47 16.723 1.967C71 106.378 71 107.956 71 109m-22 23h67v8H56.883c-.41 7.125-2.17 18.77-9.225 19.946l-.327.054H30c-9.025 0-10-16.784-10-24v-28c0-6.135 2.522-12.122 4.879-16.378C19.262 90.205 16 85.03 16 80c0-8.281 6.825-11.444 10.434-11.96L27 68h14.184c1.829-4.888 6.069-15.23 11.592-22.37 4.404-6.277 13.145-10.468 25.987-12.458C87.62 31.8 95.29 31.98 96.055 32h5.838a23.6 23.6 0 0 0-4.64 8H96l-.129-.002c-8.019-.257-30.232 1.107-36.582 10.279l-.132.179c-6.504 8.362-11.314 22.666-11.362 22.81L46.883 76H27.357c-1.13.242-3.357 1.097-3.357 4 0 1.608 1.065 4 4 4h12.322l-5.198 6.499C35.056 90.584 28 99.559 28 108v28c0 8.988 1.612 14.537 2.644 16h15.272c.792-.921 3.084-4.58 3.084-16z"/></svg>