<svg xmlns="http://www.w3.org/2000/svg" viewBox="0 0 192 192"><path d="M50.999 112.017c-6.066 0-11 4.934-11 11v2c0 6.065 4.934 11 11 11h17c6.065 0 11-4.935 11-11 0-6.009-4.037-10.213-10.536-10.974-4.678-.546-16.996-2-16.996-2zm20 13c0 1.654-1.346 3-3 3h-17c-1.655 0-3-1.346-3-3v-2a3.003 3.003 0 0 1 2.813-2.995c1.864.22 12.461 1.47 16.722 1.967 3.465.406 3.465 1.984 3.465 3.028M113.953 24v-8c23.158 0 41.998 18.84 41.998 42 0 11.734-4.86 22.184-13.79 30h9.883v8h-24V72h8v10.712c7.708-6.377 11.907-15.017 11.907-24.712 0-18.748-15.251-34-33.998-34m-28.211 4.001h-9.697v-8h24v24h-8V33.143c-7.823 6.39-12.09 15.086-12.09 24.857 0 18.747 15.25 34 33.998 34v8c-23.159 0-41.999-18.842-41.999-42 0-11.733 4.86-22.183 13.788-29.999m2.303 27.998h12.888a4 4 0 0 1 3.567 2.188l2.86 5.631 8.909-25.541a4 4 0 0 1 3.745-2.683h.032a4 4 0 0 1 3.755 2.624L130.316 56h9.728v8h-12.523a4 4 0 0 1-3.755-2.624l-3.628-9.9-8.316 23.841a4 4 0 0 1-7.343.495l-6-11.812H88.045v-8zm52.486 56.045s-12.318 1.453-16.996 2c-6.499.76-10.535 4.964-10.535 10.973 0 6.065 4.934 11 11 11h17c6.065 0 11-4.935 11-11v-2c0-6.066-4.935-11-11-11zM144 123.017v2c0 1.654-1.346 3-3 3h-17c-1.655 0-3-1.346-3-3 0-1.044 0-2.622 3.464-3.027 4.26-.498 14.858-1.748 16.722-1.968a3.004 3.004 0 0 1 2.814 2.995m23.12-15.378c2.358 4.256 4.88 10.243 4.88 16.378v28c0 7.216-.975 24-10 24h-17.332l-.326-.055c-2.042-.34-8.391-2.8-9.247-19.945H56.881c-.41 7.125-2.17 18.77-9.225 19.945l-.326.055H29.999c-9.026 0-10-16.784-10-24v-28c0-6.135 2.522-12.122 4.878-16.378C19.261 106.222 16 101.045 16 96.017c0-8.282 6.825-11.445 10.434-11.96l.566-.04h14.184c1.828-4.888 6.068-15.23 11.592-22.371 2.545-3.627 6.547-6.553 11.942-8.765A50 50 0 0 0 64.453 58c0 1.269.063 2.523.158 3.768-2.23 1.242-4.082 2.732-5.324 4.525l-.131.18c-6.504 8.362-11.315 22.665-11.363 22.809l-.912 2.735H27.356c-1.13.241-3.357 1.096-3.357 4 0 1.608 1.065 4 4 4H40.32l-5.199 6.499c-.067.084-7.123 9.06-7.123 17.5v28c0 8.988 1.611 14.537 2.643 16h15.273c.792-.92 3.084-4.58 3.084-16v-4h94v4c0 11.42 2.292 15.08 3.084 16h15.273c1.032-1.463 2.643-7.012 2.643-16v-28c0-4.552-2.051-9.248-3.953-12.633v-11.365l3.953-.001c2.935 0 4-2.392 4-4 0-2.88-2.189-3.744-3.37-4h-4.586v-7.975l5.522.015c3.61.515 10.434 3.678 10.434 11.96 0 5.028-3.262 10.205-8.878 11.622"/></svg>