<svg xmlns="http://www.w3.org/2000/svg" viewBox="0 0 192 192"><path d="M29.805 143.997 16 144v-8h10.255c6.061-6.332 32.906-31.978 69.92-31.978 36.994 0 63.554 25.612 69.584 31.978h10.24v8h-13.82l-1.197-1.374c-.264-.303-27.175-30.604-64.806-30.604-37.648 0-64.907 30.32-65.178 30.625zm63.47 25.1a3.97 3.97 0 0 0-1.25 2.89 3.99 3.99 0 0 0 3.992 3.99 3.97 3.97 0 0 0 2.972-1.35l.046.04 13.882-16.068-6.053-5.23-13.588 15.727zM124 59.992h12v-8h-12zm-56-8H56v8h12zm32-36h-8v12h8zm-21.842 17.17-8.69-8.676-5.652 5.66 8.69 8.676zm49.3-2.972-5.655-5.657-8.631 8.63 5.656 5.657zm-39.46 61.793 15.997.024.012-8-15.997-.024zm-6.153-21.58c.582.588 1.113 1.045 1.627 1.488l.521.452.01.01L84 75.989l8 .007.003-4.003c0-3.264-1.917-4.946-2.785-5.707l-.529-.458c-.43-.371-.802-.692-1.16-1.053-4.702-4.751-4.702-12.482 0-17.233 2.266-2.29 5.274-3.55 8.47-3.55s6.206 1.26 8.472 3.55c4.703 4.751 4.703 12.482-.002 17.235-.355.359-.726.678-1.156 1.048l-.583.506c-.817.718-2.73 2.398-2.73 5.661v4h8V72.35l.06-.053.471-.408a26 26 0 0 0 1.625-1.486c7.776-7.854 7.776-20.635 0-28.49-3.78-3.817-8.807-5.92-14.156-5.92s-10.377 2.103-14.156 5.92c-7.775 7.856-7.775 20.635 0 28.49zm-57.62 105.565a14 14 0 0 1-.154-1.958c0-7.722 6.282-14.005 14.005-14.005 7.722 0 14.004 6.283 14.004 14.005 0 .666-.063 1.316-.153 1.958h8.226c.033-19.783 16.136-35.868 35.927-35.868 19.79 0 35.893 16.085 35.926 35.868h8.172a14 14 0 0 1-.154-1.958c0-7.722 6.283-14.005 14.005-14.005s14.004 6.283 14.004 14.005c0 .666-.063 1.316-.153 1.958h8.061c.058-.646.092-1.298.092-1.958 0-12.134-9.871-22.005-22.004-22.005-6.856 0-12.989 3.153-17.027 8.084-6.396-16.363-22.322-27.989-40.922-27.989-18.619 0-34.557 11.648-40.941 28.035-4.038-4.956-10.186-8.13-17.063-8.13-12.134 0-22.005 9.871-22.005 22.005 0 .66.035 1.312.092 1.958z"/></svg>