<svg xmlns="http://www.w3.org/2000/svg" viewBox="0 0 192 192"><path fill="#1a1a18" d="M133.138 90.886c-.46-.683-1.117-1.299-1.681-1.742-10.496-8.248-33.41-26.326-37.798-29.408-4.957-3.482-7.368-3.73-10.036-3.73H52.067c-1.352 0-.846 1.368-.846 1.368l6.495 35.623s0 .621-.604.621c-.605 0-1.21.25-1.21.25l5.804 42.146h70.366c5.547-13.203 5.933-31.091 2.413-42.367-.337-1.08-.766-1.9-1.347-2.761m-49.515-26.88c1.37 0 2.196 0 5.438 2.277 3.146 2.209 17.208 13.233 28 21.718H64.937l-4.375-23.995zm42.8 64.008H68.68l-4.208-30.556c.277-.457.496-.95.685-1.457h61.68l.012.03c2.398 7.684 2.849 20.737-.427 31.983zM88 108a4 4 0 0 1-4 4h-8a4 4 0 0 1 0-8h8a4 4 0 0 1 4 4"/></svg>