<svg xmlns="http://www.w3.org/2000/svg" viewBox="0 0 192 192"><path fill="#020203" d="M152.97 37.504C151.785 28.039 147.607 24 139 24H53c-8.608 0-12.786 4.039-13.971 13.52l-7 58L32 168h128V95.76zM40 96.24l6.97-57.745C47.75 32.25 49.287 32 53 32h39v128H40zM152 160h-52V32h39c3.712 0 5.25.249 6.029 6.48L152 96.24zm-24-48a4 4 0 0 1-4 4h-12a4 4 0 0 1 0-8h12a4 4 0 0 1 4 4m11.958-43.644c-.687-7.266-5.602-8.353-8.477-8.353L112 60h-.001a4 4 0 0 0-4 4v32a4 4 0 0 0 4 4h22.48c2.794 0 4.945-.832 6.396-2.473 2.365-2.677 1.876-6.464 1.706-7.74l-2.623-21.43zM134.384 92h-18.385V68l15.481.003q.201.001.325.014c.06.198.14.548.192 1.127q.005.063.013.126l2.633 21.51.005.043c.07.52.088.902.086 1.172q-.149.005-.35.005M84 64a4 4 0 0 0-4-4l-19.481.003c-2.875 0-7.79 1.087-8.478 8.353l-2.623 21.43c-.17 1.277-.66 5.064 1.706 7.74 1.45 1.642 3.602 2.474 6.36 2.474H80a4 4 0 0 0 4-4zM57.578 92c-.116.003-.222-.001-.313-.004-.002-.27.017-.652.086-1.173l.005-.044 2.633-21.51.013-.124c.053-.58.132-.93.192-1.128q.123-.013.325-.014L76 68v24z"/></svg>