<svg xmlns="http://www.w3.org/2000/svg" viewBox="0 0 192 192"><path d="m176.006 132-.029-20.221c0-5.259-4.314-10.424-9.391-11.274l-29.002-5.082-11.955-8.518c-4.047-2.945-8.59-2.93-12.587-2.908l-35.802.002C59.047 83.999 48 103.447 48 112v14.883l12.022 4.008C60.485 138.195 66.558 144 73.977 144c7.039 0 12.864-5.227 13.84-12h44.32c.976 6.773 6.801 12 13.84 12s12.864-5.227 13.84-12zm-102.029 4c-3.309 0-6-2.692-6-6s2.691-6 6-6 6 2.69 6 6-2.691 6-6 6m72 0c-3.155 0-5.744-2.45-5.977-5.547v-.907c.233-3.097 2.822-5.546 5.977-5.546 3.309 0 6 2.69 6 6s-2.691 6-6 6m0-20c-5.57 0-10.378 3.278-12.63 8h-46.74c-2.252-4.722-7.06-8-12.63-8-5.194 0-9.727 2.85-12.143 7.061L56 121.117V112c0-4.282 7.732-20 21.24-20h34.892l.944-.002c3.672-.013 6.012.043 7.879 1.4l13.462 9.593 30.818 5.4c1.386.232 2.742 2.137 2.742 3.395l.017 12.215h-9.387c-2.252-4.722-7.06-8-12.63-8zM39.992 59.97h8v24h-24v-8h10.343L16.106 57.74l5.656-5.657 18.23 18.23V59.968z"/></svg>