<svg xmlns="http://www.w3.org/2000/svg" viewBox="0 0 192 192"><path d="M120.015 114c0-5.525-4.495-10.021-10.02-10.021h-9.998L99.991 96h9.645C115.351 96 120 91.351 120 85.636V53.657l3.171 3.172 5.658-5.658L120 42.343V28c0-6.617-5.383-12-12-12H84c-6.617 0-12 5.383-12 12v14.343l-8.829 8.828 5.658 5.658L72 53.657v31.98c0 .035.005.069.005.104 0 .015-.005.034-.005.049h.008C72.09 91.433 76.7 96 82.364 96h9.627l.006 7.979H81.994c-5.525 0-10.02 4.496-10.02 10.021v18l-4.238-.001-.004 15.996 4.241.001V166c0 5.525 4.496 10.021 10.021 10.021h28c5.526 0 10.021-4.496 10.021-10.021v-18.043h4.555V132h-4.555zm-14.028-43.504c-2.15.27-7.493.875-9.868.875h-.013c-2.368-.002-7.725-.62-9.878-.893-1.558-.347-4.069-.277-6.228 1.406V54.818c1.859 2.129 4.78 2.664 7.214 2.015 1.942-.26 6.57-.812 8.881-.812h.013c2.307.002 6.947.565 8.892.829a7.8 7.8 0 0 0 2.007.263c1.802 0 3.64-.632 4.993-2.027v16.671c-2.107-1.532-4.506-1.594-6.013-1.26zM83.56 44.011c1.704-.714 6.281-2.347 12.526-2.347h.034c6.263.006 10.851 1.652 12.556 2.37a142 142 0 0 1-2.235 4.938l-.05-.007c-.276-.038-6.798-.941-10.277-.944h-.018c-3.483 0-9.985.888-10.26.925l-.058-.01a143 143 0 0 1-2.218-4.925m1.624 5.075-.061.026s.044-.02.038-.027zM80 28c0-2.206 1.794-4 4-4h24c2.206 0 4 1.794 4 4v8.757c-2.318-1.004-8.061-3.086-15.871-3.093h-.042c-8.07 0-13.947 2.223-16.087 3.171zm.08 58.212c.746-1.6 3.088-5.625 4.72-7.853l.176.023c.31.04 7.653.986 11.124.99h.017c3.477 0 10.797-.93 11.107-.969l.18-.023c1.609 2.201 3.888 6.154 4.556 7.648A2.36 2.36 0 0 1 109.636 88H82.364a2.36 2.36 0 0 1-2.285-1.788zM111.972 166a1.98 1.98 0 0 1-1.979 1.979h-28A1.98 1.98 0 0 1 80.015 166v-52c0-1.091.888-1.979 1.98-1.979h28c1.09 0 1.978.888 1.978 1.979v52z"/></svg>