<svg xmlns="http://www.w3.org/2000/svg" viewBox="0 0 192 192"><path d="M162 160.009h-17.33l-.327-.054c-2.042-.341-8.391-2.801-9.247-19.946H56.904c-.856 17.145-7.205 19.605-9.247 19.946l-.326.054H30c-9.026 0-10-16.784-10-24v-28c0-6.135 2.521-12.122 4.878-16.378C19.262 90.214 16 85.038 16 80.009c0-8.281 6.825-11.445 10.434-11.96l.566-.04h14.184c1.828-4.888 6.068-15.23 11.592-22.371C62.68 31.522 92.05 31.89 96.001 32.007c3.95-.108 33.333-.465 43.223 13.63 5.524 7.141 9.764 17.484 11.592 22.372l14.75.04c3.61.515 10.434 3.679 10.434 11.96 0 5.029-3.262 10.205-8.878 11.622 2.356 4.256 4.878 10.243 4.878 16.378v28c0 7.216-.974 24-10 24m-15.916-8h15.273c1.032-1.464 2.643-7.012 2.643-16v-28c0-8.44-7.056-17.417-7.127-17.507l-5.157-6.488L164 84.009c2.935 0 4-2.392 4-4 0-2.88-2.189-3.744-3.37-4h-19.51l-.914-2.734c-.048-.144-4.876-14.47-11.363-22.81l-.131-.18c-6.366-9.195-28.566-10.539-36.583-10.278l-.127.004-.128-.004c-8.027-.251-30.236 1.106-36.586 10.279l-.131.178c-6.504 8.363-11.315 22.666-11.363 22.81l-.912 2.735H27.357c-1.13.241-3.357 1.096-3.357 4 0 1.608 1.065 4 4 4h12.322l-5.199 6.499c-.067.084-7.123 9.06-7.123 17.5v28c0 8.989 1.611 14.537 2.643 16h15.273c.792-.92 3.084-4.58 3.084-16v-4h94v4c0 11.42 2.292 15.08 3.084 16zm-23.531-49.298c0-7.566-2.876-12.36-5.414-16.589-2.293-3.822-4.274-7.123-4.274-12.473 0-7.822 5.25-13.279 5.287-13.317l-5.657-5.658c-.311.312-7.63 7.76-7.63 18.975 0 7.566 2.876 12.36 5.414 16.59 2.293 3.821 4.274 7.122 4.274 12.472 0 7.577-6.52 12.98-6.586 13.034l2.512 3.112-2.498-3.123 4.997 6.247c.391-.313 9.575-7.792 9.575-19.27m-18.761 0c0-7.566-2.876-12.36-5.414-16.589C96.085 82.3 94.104 79 94.104 73.65c0-7.822 5.25-13.279 5.288-13.317l-5.658-5.658c-.311.312-7.63 7.76-7.63 18.975 0 7.566 2.876 12.36 5.414 16.59 2.294 3.821 4.274 7.122 4.274 12.472 0 7.577-6.52 12.98-6.586 13.034l5.012 6.236c.39-.313 9.574-7.792 9.574-19.27zm-18.76 0c0-7.566-2.876-12.36-5.414-16.589C77.325 82.3 75.344 79 75.344 73.65c0-7.822 5.249-13.279 5.287-13.318l-5.657-5.656c-.312.311-7.63 7.759-7.63 18.974 0 7.566 2.876 12.36 5.414 16.59 2.293 3.821 4.274 7.122 4.274 12.472 0 7.577-6.52 12.98-6.586 13.034l2.512 3.112-2.498-3.123 4.997 6.247c.391-.313 9.575-7.792 9.575-19.27z"/></svg>