<svg xmlns="http://www.w3.org/2000/svg" viewBox="0 0 192 192"><path fill="#020204" d="M68.464 114.027c-4.677-.547-16.995-2-16.996-2L51 112c-6.065 0-11 4.935-11 11v2c0 6.065 4.935 11 11 11h17c6.065 0 11-4.935 11-11 0-6.009-4.037-10.213-10.536-10.973M68 128H51c-1.654 0-3-1.346-3-3v-2a3.003 3.003 0 0 1 2.813-2.994c1.864.22 12.462 1.47 16.723 1.967C71 122.378 71 123.956 71 125c0 1.654-1.346 3-3 3m73.001-16-.468.027s-12.319 1.453-16.996 2C117.038 114.787 113 118.99 113 125c0 6.065 4.935 11 11 11h17c6.065 0 11-4.935 11-11v-2c0-6.065-4.935-11-11-11zm3 13c0 1.654-1.346 3-3 3h-17c-1.654 0-3-1.346-3-3 0-1.044 0-2.622 3.464-3.027 4.261-.498 14.859-1.747 16.723-1.967A3.003 3.003 0 0 1 144 123v2zm32-29c0-8.281-6.825-11.444-10.434-11.96l-14.75-.04c-1.829-4.888-6.069-15.23-11.593-22.371-1.516-2.161-3.56-4.07-6.096-5.732l-5.809 5.81c2.259 1.25 4.137 2.756 5.393 4.57l.132.179c4.211 5.415 7.722 13.35 9.681 18.292q-5.322.738-10.656 1.306C130.905 78.148 124.162 72 116 72c-8.803 0-15.966 7.147-15.997 15.943-16.872.2-33.753-.862-50.529-3.195 1.956-4.937 5.462-12.864 9.683-18.292l.132-.18c6.35-9.172 28.558-10.527 36.586-10.278l.128.004.127-.004c2.617-.086 6.748.002 11.343.476l-8.479-8.479a80 80 0 0 0-2.993.004c-1.102-.03-8.617-.163-17.238 1.173-12.842 1.99-21.583 6.18-25.986 12.457-5.524 7.14-9.764 17.483-11.593 22.371H27l-.566.04C22.825 84.556 16 87.719 16 96c0 5.029 3.262 10.205 8.879 11.622C22.522 111.878 20 117.865 20 124v28c0 7.216.975 24 10 24h17.331l.327-.054c7.055-1.176 8.814-12.821 9.225-19.946h78.214c.855 17.145 7.204 19.605 9.246 19.946l.327.054H162c9.025 0 10-16.784 10-24v-28c0-6.135-2.522-12.122-4.879-16.378C172.738 106.205 176 101.029 176 96zM116 80c4.006 0 7.325 2.964 7.902 6.812-5.292.439-10.59.76-15.89.948.128-4.3 3.658-7.76 7.988-7.76m48.001 20-12.284.005 5.157 6.489c.07.09 7.127 9.066 7.127 17.506v28c0 8.988-1.612 14.537-2.644 16h-15.272c-.792-.921-3.084-4.58-3.084-16v-4H49v4c0 11.42-2.292 15.079-3.084 16H30.644C29.612 166.537 28 160.988 28 152v-28c0-8.44 7.056-17.416 7.124-17.501L40.322 100H28c-2.935 0-4-2.392-4-4 0-2.903 2.227-3.758 3.357-4h16.357C61.062 94.652 78.53 95.981 96 95.981s34.938-1.329 52.286-3.981h16.345c1.18.256 3.37 1.121 3.37 4 0 1.608-1.065 4-4 4M111.23 48.887l-8.201-8.2 5.657-5.658L116 42.343V16h8v26.343l7.313-7.314 5.657 5.658-11.487 11.487.042.014-5.513 5.512-8.817-8.818z"/></svg>