<svg xmlns="http://www.w3.org/2000/svg" viewBox="0 0 192 192"><path d="m164.987 86.77-37.383-6.55-14.94-10.865A27.82 27.82 0 0 0 96.195 64H52c-22.028 0-36 25.314-36 36v20h20c0-6.617 5.383-12 12-12s12 5.383 12 12h64c0-6.617 5.383-12 12-12s12 5.383 12 12h28v-20c0-6.172-5.057-12.232-11.013-13.23M168 112h-13.682c-3.093-7.055-10.135-12-18.318-12s-15.225 4.945-18.318 12H66.318c-3.093-7.055-10.135-12-18.318-12s-15.225 4.945-18.318 12H24v-12c0-5.796 10.518-28 28-28h44.195c4.255 0 8.324 1.323 11.764 3.825l16.437 11.955 39.24 6.876c2.35.393 4.364 3.267 4.364 5.344z"/></svg>