<svg xmlns="http://www.w3.org/2000/svg" viewBox="0 0 192 192"><path fill="#020203" d="M49.908 101.514c1.464 1.65 3.624 2.486 6.384 2.486h79.392c2.79 0 4.945-.834 6.407-2.482 2.433-2.742 1.92-6.7 1.76-7.945l-5.198-44.981c-.681-7.473-5.643-8.592-8.545-8.592H61.92c-2.906 0-7.875 1.117-8.558 8.59l-5.205 44.927c-.168 1.3-.682 5.254 1.751 7.997M61.315 49.46l.011-.109c.064-.72.166-1.125.237-1.333q.129-.017.356-.018h68.189q.219.001.345.017c.07.209.172.614.235 1.333l.012.109 5.21 45.087a8.6 8.6 0 0 1 .085 1.446 9 9 0 0 1-.409.008H56.388a5 5 0 0 1-.381-.007c-.013-.31-.001-.792.09-1.5zM160 95.76l-7.03-58.256C151.785 28.039 147.607 24 139 24H53c-8.608 0-12.786 4.039-13.971 13.52l-7 58L32 168h128zM96 160H40V96.24l6.97-57.744C47.75 32.25 49.287 32 53 32h86c3.712 0 5.25.249 6.029 6.48L152 96.24V160zm32-40a4 4 0 0 1 0-8h12a4 4 0 0 1 0 8z"/></svg>