<svg xmlns="http://www.w3.org/2000/svg" viewBox="0 0 192 192"><path d="m120.502 92.108-18.953-17.281c-3.112-2.839-6.238-3.051-8.314-2.724-2.534.395-4.996 1.835-7.12 4.166l-43.433 47.684c-5.425 5.955-5.134 12.993.76 18.367l15.264 13.917c3.34 3.047 6.54 3.763 8.808 3.763q.322 0 .616-.018c3.213-.186 6.295-1.803 8.916-4.673l.07.065a4 4 0 0 0 .456-.642l42.922-47.121c4.689-5.147 4.692-11.232.008-15.503m-26.466 24.869c-.442-.529-4.306-5.138-6.7-7.32-2.396-2.186-7.349-5.614-7.906-5.997a141 141 0 0 1 1.541-4.74c1.758.64 5.971 2.454 10.305 6.405 4.338 3.955 6.534 7.988 7.33 9.678a138 138 0 0 1-4.57 1.974m-18.941-6.589c1.557 1.079 5.212 3.685 6.852 5.18 1.637 1.492 4.57 4.894 5.79 6.347 1.22 1.898 3.383 3.353 5.845 3.36l-13.087 14.37c-.598-2.304-2.2-3.815-3.453-4.539-1.713-1.207-5.919-4.244-7.601-5.778s-5.095-5.443-6.454-7.037c-.876-1.239-2.649-2.774-5.18-3.065l13.384-14.693c.109 2.605 1.81 4.766 3.904 5.855m-7.427 41.607c-1.081.057-2.289-.498-3.572-1.669L48.833 136.41c-2.586-2.357-2.658-4.402-.251-7.053l.136.124a3 3 0 0 1-.649.55c.903-.512 5.717-2.195 8.615-2.801l.058.068c.491.578 4.87 5.72 7.308 7.942 2.44 2.224 7.96 6.111 8.582 6.547l.076.053c-.29 2.557-1.274 6.695-1.8 8.318-.824.85-1.988 1.766-3.24 1.838zm46.912-49.771-8.669 9.516c-1.093-2.357-3.856-7.413-9.245-12.326-5.593-5.1-11.069-7.363-13.38-8.158l8.744-9.6c.856-.94 1.745-1.541 2.437-1.65.21-.032.76-.116 1.692.732l18.953 17.282c.717.654 1.801 1.642-.532 4.204M159.98 96h-8c0-30.843-25.147-55.936-56.056-55.936v-8c35.32 0 64.056 28.682 64.056 63.936m16.071-.059h-8c0-39.718-32.299-72.032-72-72.032v-8c44.113 0 80 35.903 80 80.032M144.067 96h-8c0-22.06-17.984-40.007-40.088-40.007v-8c26.516 0 48.088 21.536 48.088 48.007"/></svg>