<svg xmlns="http://www.w3.org/2000/svg" viewBox="0 0 192 192"><path d="m174.829 22.829-152 152-5.657-5.657L169.171 17.171l5.657 5.657ZM24.879 91.622C22.522 95.878 20 101.865 20 108v28c0 4.169.329 11.525 2.343 17l6.528-6.528C28.372 143.815 28 140.308 28 136v-28c0-8.44 7.056-17.417 7.124-17.501L40.323 84H28.001c-2.935 0-4-2.392-4-4 0-2.903 2.227-3.758 3.357-4h16.356a346 346 0 0 0 51.654 3.975l23.681-23.681a16 16 0 0 0-3.048-.294c-8.803 0-15.966 7.147-15.997 15.943-16.872.2-33.751-.869-50.527-3.2 1.956-4.937 5.461-12.862 9.682-18.288l.131-.179c6.35-9.172 28.558-10.528 36.586-10.279l.128.004.127-.004c6.786-.225 23.732.709 32.637 6.578l5.724-5.724c-4.898-3.663-11.99-6.24-21.211-7.673-8.615-1.339-16.173-1.207-17.28-1.18-1.102-.03-8.617-.163-17.238 1.174-12.841 1.989-21.583 6.18-25.986 12.457C47.253 52.77 43.013 63.112 41.184 68H27l-.566.04C22.825 68.556 16 71.719 16 80c0 5.029 3.262 10.205 8.879 11.622m25.934 12.384c1.864.22 12.461 1.469 16.722 1.967a8 8 0 0 1 1.519.315l5.847-5.847c-1.701-1.271-3.874-2.114-6.438-2.414-4.678-.546-16.996-2-16.996-2L50.999 96c-6.065 0-11 4.935-11 11v2c0 6.065 4.935 11 11 11h4.343l8-8H50.999c-1.654 0-3-1.346-3-3v-2a3.004 3.004 0 0 1 2.813-2.994ZM176.001 80c0-8.281-6.825-11.444-10.434-11.96l-14.75-.04a126 126 0 0 0-2.801-6.858l-6.101 6.101c.213.517.419 1.023.605 1.491-.804.111-1.609.211-2.413.318l-9.139 9.139A344 344 0 0 0 148.292 76h16.341c1.18.256 3.37 1.121 3.37 4 0 1.608-1.065 4-4 4l-12.284.005 5.157 6.489c.071.09 7.127 9.066 7.127 17.506v28c0 8.988-1.612 14.537-2.644 16h-15.272c-.792-.921-3.084-4.581-3.084-16v-4H77.159l-8 8h65.939c.855 17.145 7.205 19.605 9.247 19.946l.327.054h17.331c9.025 0 10-16.784 10-24v-28c0-6.135-2.522-12.122-4.879-16.378 5.617-1.417 8.879-6.593 8.879-11.622Zm-63 29c0-6.009 4.037-10.213 10.536-10.973 4.678-.546 16.996-2 16.996-2l.468-.027c6.065 0 11 4.935 11 11v2c0 6.065-4.935 11-11 11h-17c-6.065 0-11-4.935-11-11m8 0c0 1.654 1.346 3 3 3h17c1.654 0 3-1.346 3-3v-2a3.004 3.004 0 0 0-2.813-2.994c-1.864.22-12.461 1.469-16.722 1.967-3.464.405-3.464 1.983-3.464 3.027Zm-57.427 44.122h6.331v17.815h9.505V176H63.574zm18.931 0h6.331v8.767h7.384v-8.767h6.331V176H96.22v-9.048h-7.384V176h-6.331zm25.136 0h9.033q5.86 0 9.002 3.422 2.75 2.985 2.749 7.907 0 5.75-3.598 8.845-3.142 2.704-8.311 2.704h-8.876zm9.128 17.955q2.655 0 3.959-1.891 1.131-1.656 1.131-4.641 0-3.407-1.492-5.063-1.288-1.437-3.661-1.438h-2.734v13.033z"/></svg>