<svg xmlns="http://www.w3.org/2000/svg" viewBox="0 0 192 192"><path d="m134.609 84.99-29.322-5.139-11.636-8.462C89.351 68.262 84.431 68 80.154 68h-34.89C27.055 68 16 87.63 16 96.263v14.62l11.82 3.94c.43 7.459 6.616 13.4 14.18 13.4 7.143 0 13.057-5.3 14.057-12.17h43.886c1 6.87 6.914 12.17 14.057 12.17s13.057-5.3 14.057-12.17H144v-19.79c0-5.259-4.314-10.424-9.391-11.274zM42 119.777c-3.186 0-5.778-2.592-5.778-5.778s2.592-5.778 5.778-5.778 5.778 2.592 5.778 5.778-2.592 5.778-5.778 5.778m72 0c-3.186 0-5.778-2.592-5.778-5.778s2.592-5.778 5.778-5.778 5.778 2.592 5.778 5.778-2.592 5.778-5.778 5.778m22-11.725h-9.098c-2.257-4.877-7.185-8.275-12.902-8.275s-10.645 3.398-12.902 8.275H54.902c-2.257-4.877-7.185-8.275-12.902-8.275-5.295 0-9.915 2.914-12.363 7.218L24 105.117v-8.854C24 92.068 31.987 76 45.263 76h34.891c3.85 0 6.664.311 8.792 1.859l13.135 9.552 31.177 5.463c1.386.232 2.742 2.137 2.742 3.39zm16.118-26.057 11.047-10.606 5.54 5.77-12.28 11.792a28 28 0 0 0-4.307-6.956M176 96.004l-.002 8-17.589-.007a28 28 0 0 0 .288-3.997c0-1.36-.1-2.695-.289-4.003zm-7.295 26.836-5.541 5.77-11.047-10.606a28 28 0 0 0 4.307-6.955l12.28 11.791z"/></svg>