<svg xmlns="http://www.w3.org/2000/svg" viewBox="0 0 192 192"><path d="m104.217 147.077 1.568 7.845c-.22.044-5.439 1.078-9.785 1.078s-9.564-1.034-9.785-1.078l1.568-7.845c.046.01 4.673.923 8.217.923s8.17-.914 8.217-.923m36.954-64.248L136 77.657V155c0 13.15-7.737 21-20.696 21H76.696C63.736 176 56 168.15 56 155V77.657l-5.171 5.172-5.658-5.658L56 66.343V34c0-11.103 6.142-18 16.029-18h47.942C129.858 16 136 22.897 136 34v32.343l10.829 10.828zM64 77.842v30.155l7.91-5.814c-.593-6.767-4.224-15.887-7.47-23.336l-.165-.38zm58.592-7.944c-.33-.189-.699-.376-1.027-.516l-.316-.15C121.149 69.178 111.152 64 96 64s-25.15 5.18-25.249 5.231l-.327.156c-.322.137-.687.323-1.016.51 1.053 2.847 3.7 8.821 5.985 13.62.37.78 1.69.43 1.951.351l.352-.118.312-.033c.486-.068 11.97-1.667 17.992-1.667s17.506 1.599 17.992 1.667l.368.052.352.118c.205.06 1.525.41 1.895-.37a294 294 0 0 0 2.932-6.366c.38-.88.758-1.748 1.13-2.59l.238-.53c.708-1.652 1.302-3.1 1.685-4.133M64 135.23c2.667-7.277 5.352-15.452 6.834-22.328L64 117.926zm10.23-5.038c1.28-.124 2.451-.01 3.355.213 1.88.237 13.298 1.65 18.415 1.65s16.536-1.413 18.415-1.65c.903-.223 2.075-.337 3.357-.213C114.625 120.686 112 110.738 112 104c0-3.658.815-7.809 2.05-12.064a11.5 11.5 0 0 1-1.494-.341c-1.903-.26-11.616-1.545-16.556-1.545s-14.653 1.286-16.556 1.545c-.514.154-1.013.256-1.504.334 1.254 4.275 2.062 8.403 2.062 12.071 0 6.738-2.625 16.686-5.772 26.192m53.77 5.035v-17.062l-6.808-5.152c1.486 6.852 4.156 14.977 6.808 22.214m0-27.094v-30.3a203 203 0 0 1-1.51 3.41c-2.831 6.658-5.852 14.752-6.395 20.908zM64 56v3.044c.39.775 1.024 2.047 1.818 3.683.475-.253.935-.47 1.35-.65C68.741 61.276 79.695 56 96 56s27.259 5.275 28.832 6.078c.414.178.873.395 1.347.647A311 311 0 0 1 128 59.044V34c0-6.623-2.692-9.986-8-9.999V32h-8a8 8 0 0 1-8-8H88a8 8 0 0 1-8 8h-8v-7.999c-5.308.013-8 3.376-8 9.999zm63.937 100.692a339 339 0 0 1-3.553-8.543c-1.739-3.11-3.803-6.507-5.544-8.853-1.112-1.498-2.469-1.135-2.483-1.131l-.322.098-.334.043c-.554.071-13.632 1.748-19.701 1.748s-19.147-1.677-19.7-1.748l-.62-.126c-.496-.102-1.59-.137-2.52 1.116-1.74 2.345-3.804 5.74-5.542 8.85a339 339 0 0 1-3.555 8.546c.54 7.503 4.78 11.308 12.633 11.308h38.608c7.853 0 12.094-3.805 12.633-11.308"/></svg>