<svg xmlns="http://www.w3.org/2000/svg" viewBox="0 0 192 192"><path d="M82.074 59.528 70.599 70.869l-5.624-5.69 11.451-11.317a24.2 24.2 0 0 0 5.648 5.666M100 64h-8v16h8zm-12.5 54.04h-13v4h13zm-18.394 11.92-6.78-18.92h-4.888L50.5 129.96h3.994l1.209-3.573h7.674l1.209 3.574h4.52zm-6.675-6.621h-5.676l2.838-8.305zm40.412-13.24h-3.315c-.473 2.19-1.776 3.196-4.439 3.432v2.96c1.48 0 2.9-.177 3.788-.533v9.825h-3.906v3.256h11.364v-3.256h-3.492zm13.003 15.744c2.25-1.42 3.373-2.19 4.44-3.315 2.19-2.072 3.255-4.203 3.255-6.629 0-3.61-2.427-5.86-6.393-5.86-3.552 0-5.683 1.657-6.629 5.15l3.67.887c.532-2.01 1.361-2.84 2.781-2.84 1.48 0 2.368 1.005 2.368 2.604 0 2.013-1.184 4.084-3.492 6.155-1.48 1.362-2.309 1.953-5.327 3.848v3.196h13.258v-3.196zm21.51-2.545c0 1.598-1.126 2.604-3.02 2.545-1.953 0-3.018-.888-3.61-2.84l-3.552.887c.415 1.54.948 2.486 1.954 3.374 1.361 1.124 3.196 1.716 5.445 1.716 4.262 0 6.926-2.19 6.926-5.564 0-2.19-1.066-3.61-3.374-4.38 1.953-.829 2.9-2.13 2.9-3.906 0-3.02-2.545-5.09-6.274-5.09-3.492 0-5.8 1.597-6.807 4.793l3.315.947c.71-1.775 1.716-2.545 3.314-2.545 1.48 0 2.427.888 2.427 2.31 0 1.48-1.006 2.366-2.723 2.366h-1.539v2.901h1.658c1.894 0 2.96.947 2.96 2.486M176 92H16v56h160zm-152 8h144v40H24zm16 8h-8v8h8zm0 16h-8v8h8zm120-16h-8v8h8zm0 16h-8v8h8zm-44.45-70.106a24.2 24.2 0 0 1-5.656 5.657l11.277 11.278 5.658-5.658zM96 48c-4.411 0-8-3.589-8-8h-8c0 8.822 7.178 16 16 16s16-7.178 16-16h-8c0 4.411-3.589 8-8 8"/></svg>