<svg xmlns="http://www.w3.org/2000/svg" viewBox="0 0 192 192"><path d="M176 154.642 112 112V99.941h64zM104 100v24H83.473C81.69 130.89 75.44 136 68 136s-13.69-5.11-15.473-12H16v-8h36.527c1.783-6.89 8.034-12 15.473-12s13.69 5.11 15.473 12H96v-16c0-2.077-2.014-4.951-4.364-5.344L52.397 87.78 35.959 75.825C32.567 73.358 28.319 72 24 72h-8v-8h8c5.998 0 11.916 1.902 16.664 5.355L55.603 80.22l37.384 6.55C98.943 87.769 104 93.829 104 100m-28 20c0-4.411-3.589-8-8-8s-8 3.589-8 8 3.589 8 8 8 8-3.589 8-8"/></svg>