<svg xmlns="http://www.w3.org/2000/svg" viewBox="0 0 192 192"><path d="M139.997 66.72v-5.1l.02-5.39h-.02V33.8c0-10.95-7-17.8-17.84-17.8h-52.89c-10.65 0-17.27 6.68-17.27 17.78v32.87l-10.82 10.82 5.65 5.66 5.17-5.17v76.82c0 13.15 8.17 21.21 22.21 21.21h42.59c14.18 0 23.2-8.15 23.2-20.93V77.95l5.2 5.12 5.61-5.7zm-8 88.34c0 10.51-8.36 12.93-15.2 12.93h-42.59c-9.57 0-14.21-4.59-14.21-13.21v-121c0-6.16 2.69-9.31 8-9.73V32h8c.14 0 .29 0 .43-.01 2.04-.11 3.88-.98 5.23-2.33.87-.87 1.54-1.94 1.93-3.14.27-.79.41-1.64.41-2.52h24c0 .88.14 1.73.41 2.52.39 1.2 1.06 2.27 1.93 3.14a8.04 8.04 0 0 0 5.24 2.33c.14.01.28.01.42.01h8v-7.88c6.9.81 8 6.23 8 9.68v27.7l-.03 8.54.03.03zm-8-15.06v13.66l-6.34 6.34h-13.66v-8h10.35l1.65-1.66V140zm-36.07 12v8h-13.58l-6.35-6.34V140h8v10.34l1.66 1.66zm34.91-22.57c-8.78 4.24-18.06 6.57-26.84 6.57-9.66 0-18.85-2.02-27.18-5.65l2.37-7.71c7.56 3.45 15.97 5.36 24.81 5.36 7.97 0 16.45-2.24 24.46-6.31zm-4.55-14.79c-7.34 3.45-15.02 5.36-22.29 5.36-8 0-15.64-1.58-22.63-4.44l2.36-7.68c6.22 2.66 13.08 4.12 20.27 4.12 6.48 0 13.35-1.84 19.91-5.1zm-7.11-23.14c-4.98 2.82-10.25 4.47-15.08 4.47-5.59 0-10.88-1.28-15.61-3.57l-2.38 7.72c5.5 2.47 11.58 3.85 17.99 3.85 5.62 0 11.67-1.74 17.44-4.78zm-2.11-6.86c-3.92 2.14-8.38 3.36-13.07 3.36-4.76 0-9.23-1.19-13.15-3.29l2.41-7.85c3.1 1.99 6.79 3.14 10.74 3.14 3.84 0 7.51-1.21 10.64-3.27zm-4.52-14.71c-2.63 1.33-5.54 2.07-8.55 2.07-3.09 0-6.02-.7-8.64-1.97l2.4-7.79c1.82 1.12 3.95 1.76 6.24 1.76 2.27 0 4.35-.72 6.14-1.9zM97.807 48h-3.67l-2.32 7.54c1.35.31 2.74.46 4.18.46 1.41 0 2.78-.16 4.12-.47zM76 60h-8V46.34L74.337 40h13.66L88 48H77.658l-1.491 1.48-.17.17zm47.997-13.66v13.65h-8V49.65l-.16-.16-1.49-1.5h-10.35v-8h13.66zm-23.88 9.19L97.807 48m15.73 51.19-2.36-7.69m11.66 37.93-2.38-7.74"/></svg>