<svg xmlns="http://www.w3.org/2000/svg" viewBox="0 0 192 192"><path fill="#1a1a18" d="M29.805 143.997 16 144v-8h10.255c6.062-6.332 32.906-31.978 69.921-31.978S159.73 129.634 165.759 136H176v8h-13.821l-1.196-1.374c-.265-.303-27.176-30.604-64.807-30.604s-64.906 30.319-65.178 30.625zm63.471 25.099a3.97 3.97 0 0 0-1.251 2.89 3.99 3.99 0 0 0 3.992 3.991 3.96 3.96 0 0 0 2.972-1.351l.046.04 13.882-16.067-6.053-5.23-13.588 15.728Zm-69.052 6.872a14 14 0 0 1-.153-1.958c0-7.722 6.282-14.004 14.005-14.004s14.004 6.282 14.004 14.004c0 .666-.063 1.316-.153 1.958h8.226c.033-19.783 16.136-35.868 35.927-35.868s35.893 16.085 35.926 35.868h8.171a14 14 0 0 1-.153-1.958c0-7.722 6.282-14.004 14.005-14.004s14.004 6.282 14.004 14.004c0 .666-.063 1.316-.153 1.958h8.062c.057-.646.092-1.298.092-1.958 0-12.133-9.871-22.004-22.004-22.004-6.856 0-12.989 3.153-17.027 8.084-6.396-16.363-22.322-27.989-40.922-27.989s-34.557 11.648-40.941 28.035c-4.038-4.957-10.186-8.13-17.063-8.13-12.134 0-22.005 9.871-22.005 22.004 0 .66.035 1.312.092 1.958h8.062ZM142.986 96H48.999l47.087-79.889zm-79.985-8h66.013L96.073 31.889 63.002 88ZM100 80c0 2.188-1.813 4-4 4-2.25 0-4-1.75-4-4s1.75-4 4-4c2.187 0 4 1.813 4 4m-8-21.248V48h8v10.752L97.913 72h-3.826z"/></svg>