<svg xmlns="http://www.w3.org/2000/svg" viewBox="0 0 192 192"><path d="M68.464 98.027c-4.678-.546-16.996-2-16.996-2L51 96c-6.065 0-11 4.935-11 11v2c0 6.065 4.935 11 11 11h17c6.065 0 11-4.935 11-11 0-6.009-4.037-10.213-10.536-10.973M68 112H51c-1.654 0-3-1.346-3-3v-2a3.004 3.004 0 0 1 2.813-2.994c1.864.22 12.461 1.469 16.722 1.967 3.464.405 3.464 1.983 3.464 3.027 0 1.654-1.346 3-3 3Zm108-32c0-8.281-6.825-11.444-10.434-11.96l-14.75-.04c-1.829-4.888-6.069-15.23-11.593-22.371-4.398-6.269-13.126-10.458-25.943-12.45-8.615-1.339-16.174-1.207-17.28-1.18-1.102-.03-8.617-.163-17.238 1.174-12.841 1.989-21.583 6.18-25.986 12.457-5.524 7.141-9.764 17.483-11.593 22.371H26.999l-.566.04c-3.609.516-10.434 3.679-10.434 11.96 0 5.029 3.262 10.205 8.879 11.622-2.357 4.256-4.879 10.243-4.879 16.378v28c0 7.216.975 24 10 24H47.33l.327-.054c7.055-1.176 8.814-12.821 9.225-19.946h78.214c.855 17.145 7.205 19.605 9.247 19.946l.327.054h17.331c9.025 0 10-16.784 10-24v-28c0-6.135-2.522-12.122-4.879-16.378 5.617-1.417 8.879-6.593 8.879-11.622Zm-67.988-8.24C108.14 67.46 111.67 64 116 64c4.006 0 7.325 2.964 7.902 6.812a338 338 0 0 1-15.89.949ZM59.157 50.456l.131-.179c6.35-9.172 28.559-10.528 36.586-10.279l.128.004.127-.004c8.017-.266 30.217 1.083 36.583 10.279l.131.179c4.212 5.415 7.722 13.351 9.681 18.292a339 339 0 0 1-10.655 1.306C130.904 62.148 124.162 56 116 56c-8.803 0-15.966 7.147-15.997 15.943-16.872.2-33.753-.863-50.529-3.196 1.955-4.937 5.462-12.864 9.683-18.292ZM164 84l-12.284.005 5.157 6.489c.071.09 7.127 9.066 7.127 17.506v28c0 8.988-1.612 14.537-2.644 16h-15.272c-.792-.921-3.084-4.581-3.084-16v-4H49v4c0 11.419-2.292 15.079-3.084 16H30.644C29.612 150.537 28 144.988 28 136v-28c0-8.44 7.056-17.417 7.124-17.501L40.323 84H28.001c-2.935 0-4-2.392-4-4 0-2.903 2.227-3.758 3.357-4h16.357c17.348 2.652 34.817 3.981 52.286 3.981s34.938-1.329 52.286-3.981h16.344c1.18.256 3.37 1.121 3.37 4 0 1.608-1.065 4-4 4Zm-22.999 12-.468.027s-12.318 1.453-16.996 2c-6.499.76-10.536 4.964-10.536 10.973 0 6.065 4.935 11 11 11h17c6.065 0 11-4.935 11-11v-2c0-6.065-4.935-11-11-11m3 13c0 1.654-1.346 3-3 3h-17c-1.654 0-3-1.346-3-3 0-1.044 0-2.622 3.464-3.027 4.261-.498 14.858-1.748 16.722-1.967A3.003 3.003 0 0 1 144 107v2Zm-80.427 44.122h6.331v17.815h9.505V176H63.574zm18.931 0h6.331v8.767h7.384v-8.767h6.331V176H96.22v-9.048h-7.384V176h-6.331zm25.136 0h9.033q5.86 0 9.002 3.422 2.75 2.985 2.749 7.907 0 5.75-3.598 8.845-3.142 2.704-8.311 2.704h-8.876zm9.128 17.955q2.655 0 3.959-1.891 1.131-1.656 1.131-4.641 0-3.407-1.492-5.063-1.288-1.437-3.661-1.438h-2.734v13.033z"/></svg>