<svg xmlns="http://www.w3.org/2000/svg" viewBox="0 0 192 192"><path d="m85.657 68-8-8H68v-8h4v-8H56v8h4v8h-9.657l-8 8H32v8h-8v-4.184h-8V88h8v-4h8v8h10.343l8 8H96V68zM88 92H53.657l-8-8H40v-8h5.657l8-8h20.686l8 8H88zm88 20c0-6.172-5.057-12.233-11.013-13.23l-37.384-6.55-14.939-10.865A28.2 28.2 0 0 0 104 77.122v8.472c1.4.594 2.735 1.341 3.96 2.232l16.437 11.954 39.24 6.876c2.35.392 4.363 3.266 4.363 5.344v16h-12.527c-1.783-6.89-8.034-12-15.473-12s-13.69 5.11-15.474 12H59.473C57.69 121.11 51.44 116 44 116c-6.982 0-12.918 4.502-15.098 10.75L24 125.118v-19.175a84 84 0 0 1 2.894-3.18l-5.788-5.524c-4.71 4.935-5.106 5.864-5.106 7.453v26.191l12.289 4.097c1.401 7.402 7.908 13.02 15.71 13.02 7.44 0 13.691-5.11 15.474-12h65.053c1.784 6.89 8.035 12 15.474 12s13.69-5.11 15.473-12H176zM44 140c-4.411 0-8-3.59-8-8 0-4.412 3.589-8 8-8s8 3.588 8 8c0 4.41-3.589 8-8 8m96 0c-4.411 0-8-3.59-8-8 0-4.412 3.589-8 8-8s8 3.588 8 8c0 4.41-3.589 8-8 8m-30.362-96.19v9.935h9.317V43.81h5.481v24.493h-5.48v-10.14h-9.318v10.14h-5.48V43.81zm19.384 20.314c3.94-2.5 5.036-3.289 7.022-5.036 3.015-2.706 4.556-5.412 4.556-8.05 0-2.123-1.13-3.391-3.083-3.391-1.85 0-2.945 1.096-3.665 3.7l-4.795-1.165c1.267-4.556 4.042-6.749 8.7-6.749 5.173 0 8.359 2.946 8.359 7.674 0 3.186-1.37 5.994-4.248 8.735-1.404 1.37-2.912 2.432-5.858 4.247h10.38v4.214h-17.368v-4.18z"/></svg>