<svg xmlns="http://www.w3.org/2000/svg" viewBox="0 0 192 192"><path d="m125.38 75.385-6.997 4.04c-3.447-9.035-12.198-15.472-22.428-15.472-10.522 0-19.478 6.809-22.709 16.25l-7.025-4.056c4.71-11.817 16.258-20.194 29.734-20.194 13.185 0 24.53 8.018 29.425 19.432m-29.425.031c-6.53 0-12.17 3.813-14.856 9.32l6.949 4.013c1.27-3.123 4.333-5.332 7.907-5.332 3.283 0 6.135 1.866 7.562 4.59l6.932-4.001c-2.816-5.114-8.256-8.59-14.494-8.59M42.726 62.582c7.329-22.398 28.413-38.629 53.229-38.629 24.523 0 45.401 15.853 52.962 37.843l7.05-4.07c-9.052-24.365-32.535-41.773-60.012-41.773-27.769 0-51.453 17.781-60.292 42.552zm53.229-26.629c-20.622 0-38.245 13.073-45.025 31.366l7.056 4.074c5.28-15.92 20.3-27.44 37.969-27.44 17.377 0 32.194 11.142 37.702 26.654l7.02-4.053c-6.984-17.889-24.391-30.6-44.722-30.6zM148 120h-13.55c-1.75-3.484-5.28-10.125-8.809-14.454-7.012-9.41-27.4-9.554-29.662-9.544-2.332-.036-22.698.135-29.71 9.544-3.53 4.328-7.06 10.97-8.81 14.454H44.024a4 4 0 0 0 0 8h5.873c-2.737 2.788-5.942 7.093-5.942 12v20c0 10.168 2.916 16 8 16h12.013c1.689-.006 6.822-.958 7.818-12h48.337c.997 11.042 6.13 11.994 7.832 12h12c5.084 0 8-5.832 8-16v-20c0-4.907-3.206-9.212-5.943-12H148a4 4 0 0 0 0-8m-8.045 40c0 4.205-.632 6.862-1.113 8h-9.718c-.41-.798-1.17-2.958-1.17-8v-4h-64v4c0 5.042-.76 7.202-1.169 8h-9.719c-.48-1.138-1.111-3.795-1.111-8v-20c0-3.138 4.273-7.255 6.334-8.752l.264-.19 4.726-4.724.298-.636c.047-.1 4.701-9.993 8.941-15.158l.138-.178c3.433-4.698 16.112-6.419 23.323-6.36 6.035-.024 19.7 1.47 23.274 6.36l.138.178c4.24 5.165 8.894 15.058 8.941 15.158l.298.637 4.497 4.494.485.414c2.07 1.502 6.343 5.62 6.343 8.757z"/></svg>