<svg xmlns="http://www.w3.org/2000/svg" viewBox="0 0 192 192"><path d="M148 32c-13.638 0-25.232 9.279-28.225 22.576l-13.962 52.83a76.3 76.3 0 0 0-1.751 13.585c-3.14-.5-6.312-.91-9.432-1.22-.87 2.88-2.08 5.45-3.41 7.67 14.13 1.19 30.16 4.5 37.53 9.46 1.83 1.23 2.97 2.48 3.25 3.53-.17 6.58-5.06 7.57-8 7.57H68c-4.41 0-8-3.55-8-7.91v-.09h-8v.09c0 5.87 3.22 11.02 8 13.77v22.14h76v-24.81c2.52-2.73 3.97-6.5 4-10.96l12.488-108.23H148Zm-20 136H68v-12h60zm5.106-37.813c-4.896-3.256-12.557-5.834-21.067-7.693.094-4.462.603-8.921 1.566-13.276l13.961-52.826c1.807-8.13 8.055-14.195 15.889-15.904l-10.35 89.7ZM69.58 79.37c0-11.94 7.79-19.87 8.12-20.2l5.65 5.66c-.04.04-5.77 5.99-5.77 14.54 0 5.84 2.15 9.42 4.64 13.57 2.71 4.52 5.78 9.64 5.78 17.69 0 11.831-9.027 19.523-10.14 20.45-.02.02-.04.03-.05.04-3.256-4.078-3.131-3.97-3.18-3.97l-1.83-2.26s.01-.01.02-.01c1.252-1.06 7.18-6.709 7.18-14.25 0-12.279-10.42-16.125-10.42-31.26m-19.11 0c0-11.94 7.79-19.87 8.12-20.2l5.66 5.66c-.04.04-5.78 5.99-5.78 14.54 0 12.296 10.42 16.1 10.42 31.26 0 11.006-8.042 18.795-10.18 20.49l-5.01-6.23s.01 0 .01-.01c.32-.27 7.18-6.1 7.18-14.25 0-12.316-10.42-16.093-10.42-31.26m-.68 31.26c0 12.2-9.77 20.16-10.19 20.49l-5.01-6.23.02-.01c.43-.36 7.18-6.17 7.18-14.25 0-12.344-10.42-16.004-10.42-31.26 0-11.94 7.79-19.87 8.12-20.2l5.65 5.66c-.04.04-5.77 5.99-5.77 14.54 0 12.282 10.42 16.116 10.42 31.26"/></svg>