<svg xmlns="http://www.w3.org/2000/svg" viewBox="0 0 192 192"><path d="M24.879 91.622C22.522 95.878 20 101.865 20 108v28c0 3.055.18 7.822 1.067 12.306l7.129-7.129A67 67 0 0 1 28 136v-28c0-8.44 7.056-17.416 7.124-17.501L40.322 84H28c-2.935 0-4-2.392-4-4 0-2.903 2.227-3.758 3.357-4h16.357a346 346 0 0 0 45.75 3.91l7.951-7.952q-2.709.005-5.418-.027C91.96 63.14 84.8 56 76.001 56c-8.164 0-14.908 6.15-15.87 14.06-3.556-.38-7.107-.826-10.654-1.32 1.956-4.937 5.46-12.859 9.68-18.284l.132-.18c6.35-9.171 28.558-10.527 36.586-10.278l.128.004.127-.004c5.892-.195 19.44.485 28.737 4.508l5.96-5.96c-4.558-2.454-10.406-4.257-17.546-5.367-8.615-1.34-16.173-1.207-17.28-1.18-1.102-.03-8.617-.163-17.238 1.173-12.842 1.99-21.583 6.18-25.986 12.457-5.524 7.14-9.764 17.483-11.593 22.371H27l-.566.04C22.825 68.556 16 71.719 16 80c0 5.029 3.262 10.205 8.879 11.622M76 64c4.324 0 7.85 3.451 7.987 7.743-5.3-.188-10.597-.495-15.888-.933C68.677 66.963 71.995 64 76 64m48 56h17c6.065 0 11-4.935 11-11v-2c0-6.065-4.935-11-11-11l-.468.027s-12.319 1.453-16.996 2C117.038 98.787 113 102.99 113 109c0 6.065 4.935 11 11 11m.464-14.027c4.261-.498 14.859-1.747 16.722-1.967A3.003 3.003 0 0 1 144 107v2c0 1.654-1.346 3-3 3h-17c-1.654 0-3-1.346-3-3 0-1.044 0-2.622 3.464-3.027m-56-7.946a15.3 15.3 0 0 1 2.39.49l-7.021 7.022-13.02-1.533A3.003 3.003 0 0 0 48 107v2c0 1.654 1.346 3 3 3h6.373l-7.884 7.884C44.138 119.144 40 114.552 40 109v-2c0-6.065 4.935-11 11-11l.468.027s12.319 1.453 16.996 2m-38.808 75.63-11.314-11.314 144-144 11.314 11.314zM176 80c0 5.029-3.262 10.205-8.879 11.622C169.478 95.878 172 101.865 172 108v28c0 7.216-.975 24-10 24h-17.33l-.327-.054c-2.042-.341-8.39-2.801-9.246-19.946h-60.47l8-8H143v4c0 11.42 2.292 15.079 3.084 16h15.272c1.032-1.463 2.644-7.012 2.644-16v-28c0-8.44-7.056-17.416-7.127-17.506l-5.157-6.49L164 84c2.935 0 4-2.392 4-4 0-2.879-2.19-3.744-3.37-4h-16.34a337 337 0 0 1-11.172 1.508l12.524-12.524c.46 1.14.854 2.162 1.174 3.016l14.75.04C169.176 68.556 176 71.719 176 80m-98.834 73.122c5.184 0 8.256 2.496 8.256 6.687 0 3.136-1.216 4.864-4.032 5.824 2.304.736 2.912 1.632 3.776 5.631.672 2.816 1.056 4.032 1.504 4.608V176h-6.464c-.512-.896-1.024-2.432-1.472-4.512-.64-2.975-1.184-3.615-3.007-3.615h-2.912V176h-6.304v-22.878zm-.8 10.239c1.952 0 3.008-.96 3.008-2.752 0-.928-.288-1.632-.832-2.112-.543-.448-1.12-.576-2.463-.576h-3.264v5.44h3.552zm20.097-10.24v17.823h9.439V176H90.16v-22.878h6.304zm29.599 0v4.96h-10.56v3.904h7.68v4.736h-7.68v4.32h11.04V176h-17.215v-22.878h16.735z"/></svg>