<svg xmlns="http://www.w3.org/2000/svg" viewBox="0 0 192 192"><path d="m84.93 47.96 1.13 4.12 9.02 2.68-2.32-8.5C97.07 43.87 100 39.27 100 34c0-7.72-6.28-14-14-14s-14 6.28-14 14c0 7.36 5.71 13.41 12.93 13.96M86 28c3.31 0 6 2.69 6 6s-2.69 6-6 6-6-2.69-6-6 2.69-6 6-6m17.25 64.64-6.44-1.14-3.32-12.17 9.02 2.69.68 2.48 4.17.74zm29.17-3.08 16.19 2.49-1.22 7.9-19.11-2.94zM55.86 43.1l-3.61-9.7 7.5-2.8 5.72 15.36zm31.24 60.96 9.81-.01-4.45 8.01-10.92.01-15.19-40.81 9.6 2.86zm53.67-.06 20.72 8.29-2.97 7.42-19.29-7.71-19.29.02 4.45-8zm-34.7.04 5.51-9.92 4.11-7.4 4.81-8.66 7 3.88-3.48 6.26-4.1 7.39h-.01l-4.68 8.44-4.45 8-2.31 4.16-6.99-3.88.14-.26h.01zm39.273-49.212A4 4 0 1 1 151 49.172a4 4 0 0 1-5.657 5.656m28.284-28.284L167.97 32.2c-10.916-10.917-28.68-10.917-39.598 0l-5.657-5.657c14.038-14.037 36.877-14.035 50.912 0zm-11.313 11.314-5.657 5.657c-4.68-4.68-12.292-4.678-16.97 0l-5.658-5.657c7.799-7.797 20.486-7.798 28.285 0M61.13 53.16l7.88 2.32 19.54 5.75 9.02 2.66 11.56 3.4-1.13 3.84-1.13 3.83h-.01l-6.82-2.01-9.01-2.65-18.53-5.45-9.59-2.82-4.04-1.19 1.59-5.39v-.01zm59.84 67.05c-1.44-.36-3.16-.63-5.12-.83-4.27-.43-9.64-.48-15.47-.16-16.247.91-36.033 4.679-45.485 10.967L43.975 35.54l-7.948.917L48 140.221v.009c.03 4.46 1.48 8.23 4 10.96V176h76v-22.14c4.78-2.75 8-7.9 8-13.77 0-3.89-1.18-8.21-3.64-11.89-2.47-3.67-6.22-6.7-11.39-7.99M120 168H60v-12h60zm0-20H64c-2.94 0-7.83-.99-7.99-7.57.27-1.05 1.41-2.3 3.24-3.53 9.36-6.3 32.74-9.93 48.38-9.93 4.69 0 8.68.32 11.4 1 6.16 1.54 8.97 7.36 8.97 12.12 0 4.36-3.59 7.91-8 7.91"/></svg>