<svg xmlns="http://www.w3.org/2000/svg" viewBox="0 0 192 192"><path d="M68 136.01H51c-6.065 0-11-4.935-11-11v-2c0-6.066 4.935-11 11-11l.468.027s12.319 1.453 16.996 2C74.964 114.797 79 119 79 125.01c0 6.065-4.935 11-11 11m-17.187-15.994A3.004 3.004 0 0 0 48 123.01v2c0 1.654 1.346 3 3 3h17c1.654 0 3-1.346 3-3 0-1.044 0-2.622-3.465-3.028-4.26-.497-14.858-1.747-16.722-1.966m90.188 15.994h-17c-6.065 0-11-4.935-11-11 0-6.009 4.037-10.213 10.535-10.973 4.678-.547 16.996-2 16.997-2l.468-.027c6.065 0 11 4.934 11 11v2c0 6.065-4.935 11-11 11m.186-15.994c-1.863.22-12.46 1.469-16.722 1.967-3.464.405-3.464 1.983-3.464 3.027 0 1.654 1.346 3 3 3h17c1.654 0 3-1.346 3-3v-2a3.003 3.003 0 0 0-2.814-2.994m34.814-24.006c0-8.281-6.825-11.445-10.434-11.96l-9.568-.026v7.986h8.632c1.18.256 3.37 1.12 3.37 4 0 1.608-1.065 4-4 4l-12.284.005 5.157 6.488c.07.09 7.127 9.066 7.127 17.507v28c0 8.988-1.612 14.536-2.644 16h-15.272c-.792-.922-3.084-4.58-3.084-16v-4H49v4c0 11.42-2.292 15.078-3.084 16H30.644c-1.032-1.464-2.644-7.012-2.644-16v-28c0-8.44 7.056-17.417 7.124-17.501l5.198-6.5H28c-2.935 0-4-2.391-4-4 0-2.903 2.227-3.758 3.357-4h19.526l.912-2.734c.048-.144 4.858-14.447 11.362-22.81l.132-.178c1.828-2.64 4.972-4.63 8.711-6.123v-8.496c-7.085 2.306-12.186 5.642-15.223 9.97-5.524 7.141-9.764 17.484-11.593 22.372H27l-.566.04C22.825 84.565 16 87.729 16 96.01c0 5.029 3.262 10.205 8.879 11.622C22.522 111.888 20 117.875 20 124.01v28c0 7.216.975 24 10 24h17.331l.327-.054c7.055-1.177 8.814-12.821 9.225-19.946h78.214c.855 17.145 7.204 19.605 9.246 19.946l.327.054H162c9.025 0 10-16.784 10-24v-28c0-6.135-2.522-12.122-4.879-16.378 5.617-1.417 8.879-6.593 8.879-11.622zM147.999 52h12l.001-8h-12V27.999h-16V16h-8v12h-12V16h-8v11.999H88V44H76v8h12v12H76v8h12v16h16v12h8V87.999h12v11.974h8V87.999h16V72h12v-8h-12.001zm-8 27.999H96v-44h43.999zm-8.093-36h-28v28h28zm-8 20h-12v-12h12z"/></svg>