<svg xmlns="http://www.w3.org/2000/svg" viewBox="0 0 192 192"><path d="M139.99 140.313 152.488 32H148c-13.638 0-25.232 9.28-28.225 22.576L105.85 107.25l-.037.155a76 76 0 0 0-1.75 13.596c-14.46-2.308-29.607-2.648-37.033-.792C56.703 122.791 52 132.324 52 140.089c0 5.874 3.226 11.002 8 13.758V176h76v-24.842c2.498-2.713 3.943-6.432 3.99-10.845m-26.385-31.095 13.924-52.672.037-.154c1.807-8.13 8.055-14.195 15.89-15.905l-10.35 89.704c-4.893-3.254-12.555-5.836-21.067-7.694a68 68 0 0 1 1.566-13.28zM68.97 127.97c11.783-2.947 47.61.743 59.778 8.927 1.835 1.234 2.977 2.48 3.248 3.537-.165 6.573-5.059 7.566-7.996 7.566H68c-4.411 0-8-3.549-8-7.91 0-4.757 2.807-10.58 8.97-12.12M128 168H68v-12h60z"/></svg>