<svg xmlns="http://www.w3.org/2000/svg" viewBox="0 0 192 192"><path d="M114.42 45.33a20.2 20.2 0 0 0-4.39-6.99l10.2-10.63 5.77 5.54zm-32.44-7L71.77 27.71 66 33.25l11.58 12.08c.98-2.64 2.49-5.02 4.4-7m18.02-5.6V16h-8v16.73c1.29-.28 2.63-.42 4-.42s2.71.14 4 .42M81.41 133c0 6.06-4.77 11-10.64 11H54.64C48.77 144 44 139.06 44 133v-2c0-6.07 4.77-11 10.64-11l.49.03 16.13 2c6.26.77 10.15 4.97 10.15 10.97m-8 0c0-1.39-.24-2.67-3.13-3.03-4.01-.5-13.96-1.73-15.83-1.96-1.37.11-2.45 1.41-2.45 2.99v2c0 1.65 1.18 3 2.64 3h16.13c1.45 0 2.64-1.35 2.64-3m74.59-2v2c0 6.06-4.73 11-10.53 11H121.6c-5.81 0-10.53-4.94-10.53-11 0-5.99 3.84-10.19 10.03-10.97 4.37-.55 15.86-2 15.87-2l.5-.03c5.8 0 10.53 4.93 10.53 11m-8 0c0-1.58-1.04-2.88-2.35-2.99-1.87.23-11.61 1.46-15.55 1.96-2.54.32-3.03 1.35-3.03 3.03 0 1.65 1.14 3 2.53 3h15.87c1.39 0 2.53-1.35 2.53-3zm23.49-17.91c2.21 3.99 4.51 9.5 4.51 15.14v26.05c0 5.09-.72 21.72-9.97 21.72h-16.27c-1.35.17-3.11-.11-4.76-1.33-3.1-2.3-4.78-7.01-5.19-14.67H59.88c-.41 7.69-2.08 12.4-5.18 14.69-1.34 1-2.77 1.36-3.98 1.36-.25 0-.49-.02-.72-.05H33.64c-8.41 0-9.66-13.57-9.66-21.67V128.2c0-5.63 2.27-11.12 4.46-15.1-5.21-1.46-8.24-6.31-8.24-11.03 0-7.91 6.58-10.93 10.05-11.42l.56-.04h13.47C47.03 82.4 56 60 72 60h12.1v-7.57c0-6.79 5.34-12.32 11.9-12.32s11.89 5.53 11.89 12.32V60H120c8.1 0 15.6 5.91 21.68 17.09 2.9 5.33 4.83 10.61 5.8 13.53l14.19.03c3.47.49 10.04 3.51 10.04 11.42 0 4.71-3.01 9.55-8.22 11.02M91.9 60h8.2v-7.57c0-2.5-1.84-4.53-4.1-4.53s-4.1 2.03-4.1 4.53zM52.5 91.38c15.76 3.29 31.64 4.82 47.5 4.6v-.78c0-8.38 7.18-15.2 16-15.2 8.09 0 14.81 5.74 15.85 13.17 2.53-.41 5.06-.86 7.58-1.37-.98-2.76-2.6-6.91-4.84-11C131.4 74.96 126.27 68 120 68H72c-8.94 0-16.22 14.59-19.5 23.38M116 88c-4.41 0-8 3.23-8 7.2v.51c5.32-.26 10.64-.73 15.94-1.39-.49-3.56-3.86-6.32-7.94-6.32m47.72 14.07c0-2.47-1.93-3.23-2.98-3.46h-14.79c-16.24 3.59-32.59 5.4-48.94 5.4-16.39 0-32.77-1.81-49.05-5.42l-.04.02H31.17c-1.01.21-2.97.97-2.97 3.46 0 1.4.95 3.47 3.56 3.47h12.16l-5.28 6.51c-.06.08-6.66 8.39-6.66 16.15v26.13c0 8.04 1.43 12.46 2.26 13.67h15.9c.52-.8 1.84-3.64 1.84-12v-4h87.72v4c0 8.41 1.35 11.23 1.88 12h15.9c.98-1.25 2.52-6.03 2.52-13.72v-26.05c0-7.77-6.65-16.09-6.72-16.17l-5.27-6.52h12.15c2.61 0 3.56-2.07 3.56-3.47"/></svg>