<svg xmlns="http://www.w3.org/2000/svg" viewBox="0 0 192 192"><path d="M32 100h52V68H32zm8-24h36v16H40zm116 60v16h-8V46.95c0-3.83-3.12-6.95-6.95-6.95H39.69C26.62 40 16 50.62 16 63.69V155c0 2.76 2.24 5 5 5h27.4c1.86 9.12 9.94 16 19.6 16s17.74-6.88 19.6-16H156v8h8v-24h12v-8zm-76.69 24c-1.65 4.66-6.09 8-11.31 8s-9.66-3.34-11.31-8c-.45-1.25-.69-2.6-.69-4s.24-2.75.69-4c1.65-4.66 6.09-8 11.31-8s9.66 3.34 11.31 8c.45 1.25.69 2.6.69 4s-.24 2.75-.69 4m44.689-8h-20V76h20zM140 152h-8.001V68h-36v84H87.6c-1.86-9.12-9.94-16-19.6-16s-17.74 6.88-19.6 16H24V63.69C24 55.04 31.04 48 39.69 48H140z"/></svg>