<svg xmlns="http://www.w3.org/2000/svg" viewBox="0 0 192 192"><path d="M160 120h-11.528l-.872-1.744c-.419-.89-5.173-10.898-9.913-16.712-7.013-9.41-27.412-9.558-29.663-9.544-2.322-.027-22.698.134-29.71 9.544-4.741 5.814-9.495 15.821-9.914 16.712L67.528 120H56a4 4 0 0 0 0 8h5.941C59.205 130.788 56 135.095 56 140v20c0 10.168 2.916 16 8 16h12.014c1.689-.006 6.821-.959 7.818-12h48.336c.997 11.041 6.13 11.994 7.832 12h12c5.084 0 8-5.832 8-16v-20c0-4.905-3.205-9.212-5.941-12H160a4 4 0 0 0 0-8m-8 40c0 4.205-.631 6.862-1.112 8h-9.719c-.41-.798-1.169-2.958-1.169-8v-4H76v4c0 5.042-.76 7.202-1.17 8h-9.718c-.48-1.138-1.112-3.795-1.112-8v-20c0-3.138 4.273-7.255 6.334-8.752l.802-.576 4.442-8.883.045-.093c.046-.1 4.7-9.993 8.94-15.158l.139-.178c3.433-4.698 16.1-6.429 23.322-6.36 6.032-.024 19.7 1.47 23.274 6.36l.139.178c4.24 5.165 8.894 15.058 8.94 15.158l4.49 8.972.79.575c2.07 1.502 6.343 5.62 6.343 8.757zm24-112a4 4 0 0 1-4 4h-5.941c2.736 2.788 5.941 7.095 5.941 12v20c0 10.168-2.916 16-8 16h-12c-1.701-.006-6.835-.959-7.832-12H132c0-2.141-.404-4.227-1.066-6.217A12 12 0 0 0 132.926 80H152v4c0 5.042.76 7.202 1.17 8h9.718c.48-1.138 1.112-3.795 1.112-8V64c0-3.138-4.273-7.255-6.342-8.757l-.79-.575-4.49-8.972c-.047-.1-4.702-9.993-8.941-15.158l-.139-.178c-3.573-4.89-17.24-6.393-23.274-6.36-7.238-.034-19.889 1.662-23.322 6.36l-.139.178c-1.078 1.313-2.182 2.933-3.231 4.618a62.5 62.5 0 0 0-8.117-2.023c1.55-2.652 3.325-5.414 5.098-7.589 7.013-9.41 27.386-9.563 29.711-9.544 2.247-.015 22.65.135 29.663 9.544 4.74 5.814 9.494 15.821 9.913 16.712l.872 1.744H172a4 4 0 0 1 4 4M56 112h-8.168a29 29 0 0 1-.582 3.806 11.94 11.94 0 0 0-3.095 6.358c-1.61 1.595-3.302 1.833-4.141 1.836H28c-5.084 0-8-5.832-8-16V88c0-4.905 3.205-9.212 5.941-12H20a4 4 0 0 1 0-8h11.528l.872-1.744c.419-.89 5.173-10.898 9.913-16.712 7.013-9.41 27.38-9.57 29.711-9.544 2.244-.003 22.65.135 29.663 9.544 4.74 5.814 9.494 15.821 9.913 16.712l.872 1.744H124a4 4 0 0 1 0 8h-5.941c2.289 2.332 4.896 5.726 5.692 9.645a69 69 0 0 0-9.203-1.384c-1.434-2.11-3.594-4.077-4.89-5.018l-.79-.575-4.49-8.972c-.047-.1-4.702-9.993-8.941-15.158l-.139-.178c-3.573-4.89-17.246-6.39-23.274-6.36-7.224-.065-19.89 1.662-23.322 6.36l-.139.178c-4.24 5.165-8.894 15.058-8.94 15.158l-.045.093-4.442 8.883-.802.576C32.273 80.745 28 84.862 28 88v20c0 4.205.631 6.862 1.112 8h9.719c.41-.798 1.169-2.958 1.169-8v-4h26.935c-1.663 2.752-3.058 5.453-4.302 8z"/></svg>