<svg xmlns="http://www.w3.org/2000/svg" viewBox="0 0 192 192"><path d="m160 104.983-27.181-7.766 7.061-28.247-7.76-1.94-6.997 27.988-13.827-3.95a11.91 11.91 0 0 0-10.523 1.958 11.9 11.9 0 0 0-4.773 9.58V144H72.01l3.448-48.28c.447-6.254-4.065-11.847-10.271-12.734l-2.46-.351 1.369-7.993 7.885 1.35 1.35-7.886-23.656-4.049-1.35 7.886 7.885 1.35-1.405 8.21-2.18-.312a11.9 11.9 0 0 0-8.98 2.343 11.9 11.9 0 0 0-4.624 8.049L31.469 152H45.37c2.253 4.722 7.06 8 12.63 8s10.377-3.278 12.63-8h54.74c2.253 4.722 7.06 8 12.63 8s10.377-3.278 12.63-8H160zM44.16 144h-3.63l6.428-51.425a3.97 3.97 0 0 1 1.541-2.683 3.97 3.97 0 0 1 2.994-.78l12.561 1.794a4.013 4.013 0 0 1 3.424 4.244l-2.755 38.576A13.9 13.9 0 0 0 58 132c-7.039 0-12.865 5.227-13.84 12M58 152c-3.309 0-6-2.691-6-6s2.691-6 6-6 6 2.691 6 6-2.691 6-6 6m80 0c-3.309 0-6-2.691-6-6s2.691-6 6-6 6 2.691 6 6-2.691 6-6 6m14-8h-.16c-.975-6.773-6.801-12-13.84-12s-12.865 5.227-13.84 12H104v-41.394c0-1.267.58-2.43 1.591-3.193a3.96 3.96 0 0 1 3.508-.653L152 111.017z"/></svg>