<svg xmlns="http://www.w3.org/2000/svg" viewBox="0 0 192 192"><path d="M156 116v-4h-24v4h-16v60h56v-60zm8 52h-40v-44h8v4h24v-4h8zm-56 8H62.343L16 129.657V62.343L62.343 16h67.314L176 62.343V108h-8V65.657L126.343 24H65.657L24 65.657v60.686L65.657 168H108zm-4.889-47.111c0 3.89-3.222 7.111-7.111 7.111-4 0-7.111-3.11-7.111-7.111s3.11-7.111 7.11-7.111c3.89 0 7.112 3.222 7.112 7.11zm-12.223-48V56h10.223v24.889l-2.667 30.667h-4.888zM156 116v-4h-24v4h-16v60h56v-60zm8 52h-40v-44h8v4h24v-4h8zm-32-32h24v8h-24zm0 16h24v8h-24z"/></svg>