<svg xmlns="http://www.w3.org/2000/svg" viewBox="0 0 192 192"><path d="M125.922 68H48.024L48 75.905h.012v70.115c0 6.342 3.694 9.98 10.133 9.98H64v12.667c0 3.632 3.634 7.333 7.2 7.333h9.6c1.463 0 3.09-.563 4.354-1.504 1.836-1.37 2.846-3.405 2.845-5.73V156H96v12.666c0 3.302 3.138 7.334 6.8 7.334h22.4c1.476 0 3.088-.623 4.312-1.667 1.605-1.368 2.488-3.346 2.487-5.567V156h5.869c6.155 0 10.132-3.917 10.132-9.98V90.58C148 78.34 137.89 68 125.922 68M80 168h-8v-12h8l-.001 12zm44 0h-20v-12h20l-.002 12zm16-21.98c0 1.437-.184 1.98-2.132 1.98H58.145c-2.133 0-2.133-.34-2.133-1.98V76h69.91c7.5 0 14.078 6.813 14.078 14.58zm-25.03-90.99-5.657 5.657c-6.238-6.239-16.388-6.239-22.626 0l-5.658-5.658c9.359-9.357 24.583-9.357 33.942 0zm5.657-5.657c-12.476-12.477-32.778-12.477-45.254 0l-5.658-5.658c15.597-15.595 40.973-15.595 56.57 0zM64.06 38.059l-5.657-5.657C68.979 21.825 83.042 16 98 16s29.021 5.825 39.598 16.402l-5.657 5.657c-18.715-18.716-49.167-18.716-67.882 0z"/></svg>