<svg xmlns="http://www.w3.org/2000/svg" viewBox="0 0 192 192"><path d="M176 112h-16v-8h8V23.943H24V112h-8V15.943h160zm-24-16h-8v63.406l-16-12-16 12V148h-8v27.406l24-18 24 18zm-16.166-3.73c2.972-.966 4.452-3.627 5.532-5.57.368-.663.925-1.665 1.187-1.892.33-.208 1.476-.435 2.234-.584 2.167-.429 5.135-1.015 6.954-3.516 1.808-2.484 1.456-5.475 1.198-7.66-.092-.781-.232-1.963-.142-2.309.147-.342.907-1.157 1.41-1.697 1.524-1.638 3.613-3.88 3.613-7.042s-2.089-5.404-3.613-7.041c-.503-.54-1.263-1.355-1.397-1.66-.103-.384.037-1.565.129-2.347.258-2.184.611-5.175-1.197-7.66-1.82-2.5-4.788-3.087-6.955-3.515-.758-.15-1.903-.376-2.204-.563-.291-.248-.848-1.25-1.217-1.913-1.08-1.944-2.56-4.606-5.532-5.57-2.89-.939-5.492.26-7.584 1.225-.69.318-1.846.85-2.247.864-.407-.014-1.563-.546-2.253-.864-2.091-.964-4.692-2.164-7.584-1.226-2.972.966-4.452 3.627-5.532 5.57-.368.663-.925 1.665-1.187 1.892-.33.208-1.476.435-2.234.584-2.167.429-5.135 1.015-6.954 3.516-1.808 2.484-1.456 5.475-1.198 7.66.092.781.232 1.963.142 2.309-.147.342-.907 1.157-1.41 1.697-1.524 1.638-3.613 3.88-3.613 7.042s2.089 5.404 3.613 7.041c.503.54 1.263 1.355 1.397 1.66.103.384-.037 1.565-.129 2.347-.258 2.184-.611 5.175 1.197 7.66 1.82 2.5 4.788 3.087 6.955 3.515.758.15 1.903.376 2.204.563.291.248.848 1.25 1.217 1.913 1.08 1.944 2.56 4.606 5.532 5.57 2.889.938 5.492-.262 7.584-1.225.69-.318 1.846-.85 2.247-.864.407.014 1.563.546 2.253.864 1.557.718 3.396 1.566 5.427 1.566.698 0 1.418-.1 2.157-.34m-15.433-8.491c-.527.242-1.262.581-1.747.74-.315-.423-.73-1.172-1.028-1.707-.851-1.531-1.816-3.267-3.484-4.481-1.685-1.227-3.647-1.614-5.378-1.956-.596-.118-1.428-.282-1.922-.449-.004-.517.094-1.346.164-1.94.207-1.759.443-3.753-.204-5.747-.63-1.94-1.971-3.38-3.155-4.65-.418-.45-1.066-1.146-1.363-1.589.297-.443.945-1.14 1.363-1.59 1.184-1.27 2.524-2.709 3.155-4.65.647-1.993.411-3.987.204-5.746-.07-.594-.168-1.423-.164-1.94.495-.167 1.327-.332 1.922-.449 1.731-.342 3.694-.73 5.378-1.956 1.669-1.214 2.633-2.95 3.484-4.481.298-.536.714-1.284 1.028-1.707.486.159 1.22.497 1.748.74 1.626.75 3.469 1.599 5.598 1.599s3.973-.85 5.599-1.599c.527-.242 1.262-.581 1.747-.74.315.423.73 1.172 1.028 1.707.851 1.531 1.816 3.267 3.484 4.481 1.685 1.227 3.647 1.614 5.378 1.956.596.118 1.428.282 1.922.449.004.517-.094 1.346-.164 1.94-.207 1.759-.443 3.753.204 5.747.63 1.94 1.971 3.38 3.155 4.65.418.45 1.066 1.146 1.363 1.589-.297.443-.945 1.14-1.363 1.59-1.184 1.27-2.524 2.709-3.155 4.65-.647 1.993-.411 3.987-.204 5.746.07.594.168 1.423.164 1.94-.495.167-1.327.332-1.922.449-1.731.342-3.694.73-5.378 1.956-1.669 1.214-2.633 2.95-3.484 4.482-.298.535-.714 1.283-1.028 1.706-.486-.159-1.22-.497-1.748-.74-1.626-.75-3.469-1.599-5.598-1.599s-3.973.85-5.599 1.599m-14.524 55.627h17.488v-5.179h-8.059c5.372-2.442 8.012-5.617 8.012-9.525 0-4.447-3.372-7.28-8.648-7.28-4.835 0-7.817 2.15-8.94 6.499l6.058 1.416c.44-1.808 1.124-2.59 2.442-2.59 1.221 0 1.906.831 1.906 2.297 0 2.98-2.98 5.714-10.26 9.428zM56.249 118.84c-1.61 4.642-3.906 6.645-7.767 6.645-5.519 0-8.598-4.203-8.598-11.725 0-7.474 3.03-11.677 8.403-11.677 3.762 0 5.96 1.808 7.622 6.303l6.935-2.834c-1.318-3.03-2.295-4.445-3.956-6.058-2.639-2.443-6.253-3.712-10.553-3.712-9.82 0-16.61 7.425-16.61 18.123 0 10.896 6.548 17.88 16.757 17.88 3.761 0 6.987-.976 9.575-2.931 2.395-1.758 3.763-3.711 5.18-7.18zm28.064-23.06c-10.016 0-17.149 7.522-17.149 18.076 0 10.6 6.888 17.928 16.854 17.928 10.064 0 17.05-7.425 17.05-18.123 0-10.406-6.986-17.88-16.755-17.88zm-.1 6.301c5.374 0 8.698 4.495 8.698 11.725 0 7.377-3.226 11.677-8.745 11.677-5.522 0-8.843-4.398-8.843-11.677 0-7.425 3.274-11.725 8.89-11.725"/></svg>