<svg xmlns="http://www.w3.org/2000/svg" viewBox="0 0 192 192"><path d="M16 159.996h71.996V88H16zM24 96h55.996v55.996H24zm115.998-8C120.148 88 104 104.148 104 123.998s16.148 35.998 35.998 35.998 35.998-16.148 35.998-35.998S159.848 88 139.998 88m0 63.996c-15.438 0-27.998-12.56-27.998-27.998S124.56 96 139.998 96s27.998 12.56 27.998 27.998-12.56 27.998-27.998 27.998m-84.017-16.983h6.334v5.823H41.68v-5.823h7.08v-17.466c-1.583.606-4.145.978-6.893.932v-5.264c4.844-.465 7.173-2.235 8.058-6.055h6.055v27.853zm82.039-1.421h12.111v4.917h-20.266v-4.877c4.597-2.918 5.876-3.838 8.194-5.877 3.518-3.157 5.317-6.316 5.317-9.394 0-2.478-1.319-3.957-3.597-3.957-2.16 0-3.439 1.28-4.278 4.318l-5.597-1.36c1.48-5.316 4.717-7.874 10.154-7.874 6.036 0 9.754 3.437 9.754 8.954 0 3.717-1.599 6.995-4.957 10.193-1.64 1.6-3.398 2.838-6.835 4.957M96 40c-17.645 0-32 14.355-32 32h-8c0-22.056 17.944-40 40-40 20.26 0 37.038 15.144 39.639 34.704l9.532-9.533 5.658 5.658L132 81.657l-18.829-18.828 5.658-5.658 8.549 8.55C124.45 51.073 111.496 40 96 40"/></svg>