<svg xmlns="http://www.w3.org/2000/svg" viewBox="0 0 192 192"><path d="M176.003 95.214c-.201-20.75-8.409-40.39-23.11-55.304-14.704-14.916-34.224-23.399-54.966-23.888-21.74-.509-42.286 7.565-57.826 22.745-15.545 15.184-24.107 35.512-24.107 57.239 0 34.745 24.501 67.764 55.78 75.172 2.28.54 4.538.805 6.727.805 5.311 0 10.21-1.564 14.009-4.568 4.831-3.821 7.491-9.59 7.491-16.247v-31.459c13.551-1.947 24-13.629 24-27.71v-20h-12v-16h-8v16h-16v-16h-8v16h-12v20c0 14.081 10.449 25.763 24 27.71v31.459c0 4.219-1.54 7.667-4.454 9.972-3.434 2.715-8.511 3.536-13.929 2.253-27.826-6.59-49.624-36.19-49.624-67.387 0-19.555 7.706-37.85 21.697-51.516 13.987-13.661 32.492-20.933 52.048-20.47 18.655.439 36.219 8.077 49.457 21.506s20.626 31.102 20.807 49.765c.221 22.833-10.142 43.963-28.002 57.72V124h-8v40.013h44v-8h-27.063c17.353-15.252 27.294-37.207 27.066-60.799ZM76 92V80h40v12c0 11.028-8.972 20-20 20s-20-8.972-20-20"/></svg>