<svg xmlns="http://www.w3.org/2000/svg" viewBox="0 0 192 192"><path d="m153.171 133.171 5.658 5.658L140 157.657l-10.829-10.828 5.658-5.658 5.171 5.172zM32 152v8h75.35a39.7 39.7 0 0 1-2.545-8zm8-120h-8v112h8zm16 0h-8v112h8zm16 0h-8v112h8zm16 0h-8v112h8zm16 0h-8v112h8zm16 80.022V32h-8v88.028a40.3 40.3 0 0 1 8-8.006M136 32h-8v75.35a39.7 39.7 0 0 1 8-2.545zm16 0h-8v72c2.74 0 5.414.278 8 .805zm24 112c0 17.645-14.355 32-32 32s-32-14.355-32-32 14.355-32 32-32 32 14.355 32 32m-8 0c0-13.234-10.766-24-24-24s-24 10.766-24 24 10.766 24 24 24 24-10.766 24-24"/></svg>