<svg xmlns="http://www.w3.org/2000/svg" viewBox="0 0 192 192"><path d="m54.97 130.68-5.95-5.35 38.21-42.45 20.15 12.09L138.34 64H128v-8h24v24h-8V69.66l-35.38 35.38-19.85-11.91zM104.8 152H40V32h-8v128h75.35a40 40 0 0 1-2.55-8m39.2 24c-17.65 0-32-14.35-32-32s14.35-32 32-32 32 14.35 32 32-14.35 32-32 32m0-56c-13.23 0-24 10.77-24 24s10.77 24 24 24 24-10.77 24-24-10.77-24-24-24m10.43 28.13c0 2.16-.7 4.01-2.05 5.29-1.39 1.35-3.31 2.03-6.49 2.37V160h-2.63v-4.17c-4.55-.31-8.06-2.27-9.68-5.41l5.16-2.63c1.08 1.92 2.43 2.83 4.52 3.14v-4.9c-2.8-.51-4.15-.97-5.53-1.89-1.99-1.28-2.98-3.18-2.98-5.7 0-4.42 2.91-6.99 8.5-7.46V128h2.63v3.05c3.55.4 6.08 1.92 7.86 4.63l-4.72 2.8c-1.04-1.42-1.86-2.06-3.14-2.47v4.7c2.94.53 4.35 1.01 5.7 1.85 1.97 1.22 2.85 2.96 2.85 5.57m-11.17-12.36c-2.02.2-2.93.88-2.93 2.16 0 1.22.77 1.86 2.93 2.36zm5.44 13.04c0-1.19-.71-1.79-2.81-2.34v4.5c1.9-.28 2.81-.95 2.81-2.16"/></svg>