<svg xmlns="http://www.w3.org/2000/svg" viewBox="0 0 192 192"><path d="M128 176H96V92h32zm-24-8h16v-68h-16zm72 8h-32V48h32zm-24-8h16V56h-16zm-72 8H48v-40h32zm-24-8h16v-24H56zM66.075 45.579l-1.368-2.095c-6.024-9.286-9.773-15.666-9.81-15.729L48 16l-6.896 11.755c-.038.063-3.787 6.443-9.811 15.728l-1.368 2.096C23.72 55.053 16 66.846 16 79.927 16 97.612 30.355 112 48 112s32-14.388 32-32.073c0-13.081-7.72-24.874-13.925-34.348M48 104c-13.233 0-24-10.791-24-24.055 0-9.81 5.79-18.655 10.444-25.76l1.026-1.573c4.518-6.964 7.33-11.749 7.358-11.796L48 32l5.172 8.816c.028.047 2.84 4.832 7.358 11.797l1.026 1.571C66.21 61.29 72 70.134 72 79.945 72 93.21 61.233 104 48 104"/></svg>