<svg xmlns="http://www.w3.org/2000/svg" viewBox="0 0 192 192"><path d="M141.491 64C123.024 64 108 79.815 108 99.254v42.213c0 14.369-12.606 26.509-27.527 26.509-14.181 0-24.473-11.148-24.473-26.509v-45.68C72.675 94.054 84 81.475 84 64V44H72V23.975h-8V44H39.964V23.975h-8V44H20v20c0 17.476 11.325 30.055 28 31.787v45.68c0 19.673 13.96 34.509 32.473 34.509 19.257 0 35.527-15.803 35.527-34.509V99.254C116 84.226 127.435 72 141.491 72 155.86 72 168 84.481 168 99.254v41.31h8v-41.31C176 80.144 160.197 64 141.491 64M28 64V52h48v12c0 14.355-9.645 24-24 24s-24-9.645-24-24"/></svg>