<svg xmlns="http://www.w3.org/2000/svg" viewBox="0 0 192 192"><path d="M144.215 81.533a54 54 0 0 1-2.428-1.11c-9.083-4.542-9.789-7.595-9.789-8.422 0-8.904-5.072-17.188-14.281-23.328-8.267-5.511-19.099-8.672-29.719-8.672H59.999v-8h-24v8h-.001v20h.003v4.001h7.997v8h8v-8h24c17.645 0 32 14.355 32 32s-14.355 32-32 32h-24v-8h-8v8h-7.997v4.907h-.003v19.092h.001v8h24v-8h27.999c10.62 0 21.452-3.161 29.719-8.672 9.209-6.14 14.281-14.424 14.281-23.328 0-.828.706-3.881 9.789-8.422.743-.371 1.561-.73 2.428-1.11 4.692-2.059 11.783-5.169 11.783-14.467s-7.091-12.409-11.783-14.467Zm-7.75 23.795c-8.384 4.519-12.467 9.33-12.467 14.672 0 12.785-16.822 24-36 24h-44v-7.999h32c22.056 0 40-17.944 40-40s-17.944-40-40-40h-32V48h44c19.178 0 36 11.215 36 24 0 5.342 4.083 10.153 12.467 14.672-2.721 2.202-4.467 5.563-4.467 9.328s1.746 7.126 4.467 9.328m7.534-5.328c-2.206 0-4-1.794-4-4s1.794-4 4-4 4 1.794 4 4-1.794 4-4 4"/></svg>