<svg xmlns="http://www.w3.org/2000/svg" viewBox="0 0 192 192"><path d="M28 137.657V104H16V32h116v72H61.657zM24 96h12v22.343L58.343 96H124V40H24zm116-36v8h28v52h-12v22.343L133.657 120H88v-8h-8v16h50.343L164 161.657V128h12V60zm-86.565-8.317v5.593h-14.44v8.198h11.144v5.42H38.995v11.797h-6.94V51.683zM74.7 76.793H62.122l-2.039 5.898h-6.505L64.94 51.683h7.98l11.147 31.008h-7.373l-1.995-5.897zm-10.93-4.945h9.282l-4.597-13.616-4.684 13.616zm43.645 9.976c-1.995.91-4.163 1.343-6.593 1.343-8.803 0-14.918-6.548-14.918-15.915 0-9.324 6.332-16.046 15.093-16.046 8.803 0 15.004 6.549 15.004 15.873 0 4.683-1.56 8.846-4.336 11.708l3.338 3.6-3.988 3.383zm-3.08-10.93 2.907 3.124c1.04-1.866 1.516-4.034 1.516-6.766 0-6.506-2.948-10.452-7.805-10.452-4.902 0-7.806 3.904-7.806 10.366 0 6.504 2.948 10.408 7.85 10.408.78 0 1.43-.088 2.21-.304l-2.731-2.95 3.86-3.425z"/></svg>