<svg xmlns="http://www.w3.org/2000/svg" viewBox="0 0 192 192"><path d="M164 121.657 146.343 104h-7.108v-8h10.422l6.343 6.343V96h12V60h-60v36h-8V52h76v52h-12zM120 156h12v-52H56v52h46.343L120 173.657zm-56-44h60v36h-12v6.343L105.657 148H64zm-18.342 3.999 2.345-.002-.006-8-5.655.004L36 114.343V108H24V72h60v24h8V64H16v52h12v17.657zM148 74.5v-5h-9.5V64h-5v5.5H128v5h8.765c-.702 2.223-1.587 3.958-2.812 5.487-.693-.856-1.25-1.784-1.581-2.778l-4.744 1.582c.561 1.682 1.513 3.225 2.694 4.605-1.062.8-2.265 1.611-3.657 2.49l2.67 4.228c1.804-1.14 3.382-2.219 4.773-3.328 3.361 2.35 7.218 3.714 9.892 3.714v-5c-1.531 0-3.975-.83-6.258-2.25 1.887-2.31 3.236-5.042 4.224-8.75zM68 24h60v21.2h8V16H60v40h8zm-8.328 76h4.916l-7.431-20.674h-5.321L44.26 100h4.338l1.359-3.933h8.385zm-5.494-16.308 3.065 9.079h-6.188z"/></svg>