<svg xmlns="http://www.w3.org/2000/svg" viewBox="0 0 192 192"><path d="M116.77 173.26A80.1 80.1 0 0 1 96 176c-44.11 0-80-35.89-80-80s35.89-80 80-80 80 35.89 80 80c0 7.05-.92 14.03-2.73 20.77a40.7 40.7 0 0 0-6.82-5.87c1.03-4.88 1.56-9.87 1.56-14.91 0-39.7-32.3-72-72-72S24 56.3 24 96s32.3 72 72 72c5.04 0 10.03-.52 14.91-1.55 1.7 2.49 3.66 4.77 5.86 6.81M176 144c0-17.64-14.35-32-32-32s-32 14.36-32 32 14.35 32 32 32 32-14.36 32-32m-8 0c0 13.23-10.77 24-24 24s-24-10.77-24-24 10.77-24 24-24 24 10.77 24 24m-20-4h-8v20h8zm-4-12c-2.18 0-4 1.82-4 4s1.82 4 4 4 4-1.82 4-4-1.82-4-4-4m-60-13.66L62.83 93.17l-5.66 5.66L84 125.66l50.83-50.83-5.66-5.66z"/></svg>