<svg xmlns="http://www.w3.org/2000/svg" viewBox="0 0 192 192"><path d="M48.008 48.008v-12h11.984v12h12.016v-12h11.998v12h11.988v-12h12.012v12h11.988v-12H132V47.97l8-.009V16H16v124h32v-8H36.008v-11.992h12v-12.016h-12V96.008h12V83.992h-12V72.008h12V59.992h-12V48.008zM36.008 24H48v11.992H36.008zm-.016 12.008v11.984H24V36.008zM60.016 24H72v11.992H60.016zm24 0H95.97v11.992H84.016zm24.013 0h11.942v11.992h-11.942zM24 60.008h11.993v11.984H24zm0 24h11.993v11.984H24zm0 24h11.993v11.984H24zm108.03-24h-12.058V71.992h12.058zm-48 48H71.97v-12.016h11.98v-11.984H71.97V95.992h12.035V84.008H71.971V71.95H84.03v12.041h11.965v12h11.873V84.008h-11.87V71.992h12.016v12h11.87v12.016H108.03v11.984h11.942v-12h12.058v12.016h-12.035v11.984h12.035v12.016h-12.058v-12H108.03v12H95.971v-12.016h12.035v-11.984H95.971v-12H84.029v11.997h11.91v11.987h-11.91v12.016zM55.999 56v120h120V56zm112 112H64V64h104v104z"/></svg>