<svg xmlns="http://www.w3.org/2000/svg" viewBox="0 0 192 192"><path d="M160 64h-12.005L148 54c0-11.514-10.487-22-22-22s-22 10.486-22 22v20.816c-5.608-1.078-15.251-1.898-27.768 1.007L37.013 54.09l-1.982 3.34c-3.73 6.288-3.556 14.752.238 21.46-2.763 4.945-3.677 9.888-2.719 14.725 1.06 5.336 4.215 9.235 6.547 11.486-1.341 3.851-1.31 8.146.138 12.4 1.717 5.04 5.333 9.493 9.95 12.232l5.093 2.964c2.273 4.526 9.622 13.205 25.722 17.196v16.79a15.9 15.9 0 0 0-7.118 4.118l5.656 5.657a7.984 7.984 0 0 1 11.314 0l5.656-5.657A15.9 15.9 0 0 0 88 166.585v-15.226c3.26.407 6.793.637 10.63.637l.282.001c4.468 0 8.863-.69 13.088-1.968v16.66a15.9 15.9 0 0 0-7.09 4.111l5.657 5.657a7.984 7.984 0 0 1 11.314 0l5.657-5.657a15.9 15.9 0 0 0-7.538-4.222v-19.8c7.367-3.815 13.877-9.588 18.796-16.966 9.152-13.729 9.186-32.054 9.183-32.815L147.991 72H160zm-20.008 6.679-.013 26.337c.001.165-.025 16.637-7.84 28.358-7.896 11.846-19.99 18.623-33.24 18.623h-.244c-29.612 0-36.998-14.41-37.371-15.205l-.387-1.5-7.659-4.457c-2.975-1.765-5.318-4.65-6.43-7.914-.623-1.83-.802-3.641-.573-5.331l11.976 5.988 3.578-7.155-15.721-7.86c-.64-.477-3.061-2.408-4.588-5.416-1.685-3.32-1.74-6.781-.147-10.5.494.312.955.594 1.319.81l23.29 13.973 4.115-6.86-23.24-13.942-2.832-1.813-1.1-.82c-2.146-3.124-2.961-7.223-2.315-10.79l34.876 19.33 1.772-.723c17.902-4.365 29.208-.132 29.302-.096l5.48 2.182V54c0-7.196 6.803-14 14-14s14 6.804 14 14zM76 104h40v8H84.398c1.5 7.233 7.103 12.004 14.643 12.004l8.957-.004.004 8-8.96.004C85.906 132.004 76 121.684 76 108z"/></svg>