<svg xmlns="http://www.w3.org/2000/svg" viewBox="0 0 192 192"><path d="M76.004 48h4.038c-2.523 3.347-4.038 7.495-4.038 12 0 7.52 4.175 14.076 10.326 17.492a32 32 0 0 0-1.452.496l1.76 4.748L97.475 71.9c-.483.06-.972.1-1.47.1-6.617 0-12-5.383-12-12s5.383-12 12-12 12 5.383 12 12c0 .498-.04.987-.1 1.47l7.229-7.229A20.1 20.1 0 0 0 111.966 48h4.038a4 4 0 0 0 0-8h-4V16h-32v24h-4a4 4 0 0 0 0 8m12-24h16v16h-16zm35.323 67.302a31.94 31.94 0 0 1 4.657 15.574l-7.995.277a24 24 0 0 0-2.534-9.98zm-40.224-5.03-38.33-25.598-4.444 6.652 8.769 5.856-14.004 20.304-8.868-5.923-4.444 6.652 32.004 21.374zM55.75 77.625l17.637 11.78-14.004 20.303-17.637-11.78zm48.718 32.536 17.5 11.688-14.003 20.303-17.638-11.779 13.5-19.571-8.722 8.721L80.92 133.71l62.315 41.616 4.444-6.652-8.77-5.856 14.005-20.304 8.868 5.923 4.444-6.652-55.99-37.392zm41.791 27.91-14.004 20.303-17.637-11.779 14.004-20.303zM72.004 148h8v28h-8v-20h-8v-5.373l8-8zm-42.345 25.659-11.314-11.314 144-144.004 11.314 11.314z"/></svg>