<svg xmlns="http://www.w3.org/2000/svg" viewBox="0 0 192 192"><path d="m73.012 136.669-16.97-16.97 85.946-86.681 16.97 16.97-85.946 86.68zm-5.68-16.995 5.656 5.657 74.68-75.319-5.656-5.657zm-11.635 33.507-16.97-16.971-5.657 5.657 16.97 16.97zm11.227-11.227-16.97-16.97-5.657 5.656 16.97 16.97zM51 93.402c0-7.594-2.887-12.406-5.435-16.652-2.304-3.84-4.294-7.157-4.294-12.535 0-7.863 5.276-13.347 5.314-13.386l-5.657-5.658c-.312.313-7.657 7.787-7.657 19.044 0 7.594 2.887 12.406 5.435 16.652C41.01 84.707 43 88.024 43 93.402c0 7.618-6.554 13.05-6.62 13.103l2.513 3.113-2.5-3.124 4.999 6.247c.392-.314 9.608-7.82 9.608-19.339"/></svg>