<svg xmlns="http://www.w3.org/2000/svg" viewBox="0 0 192 192"><path d="M111.778 32.379 96 48.157 80.223 32.379l5.656-5.657L92 32.843V16h8v16.843l6.122-6.122zM176 144v32H16v-32h49.898l6.226-19.924c0-.026-.004-.05-.004-.076 0-13.167 10.712-23.879 23.879-23.879s23.879 10.712 23.879 23.879c0 .026-.004.05-.004.076L126.1 144h49.898Zm-8 8H24v16h144zm-1.997-96-6 8h8v47.95h-20l-.01-31.98h-104v31.98h-20l.01-47.95h114.23l2.67-8H16.013l-.02 63.95h36V87.97h88l.02 31.98h35.99V56zm-16.671 0-2.66 8-2.67 8 6-8 6-8 12-16h-16l8-24-24 32h16z"/></svg>