<svg xmlns="http://www.w3.org/2000/svg" viewBox="0 0 192 192"><path d="M100 16c-33.08 0-60 26.92-60 60s26.92 60 60 60 60-26.92 60-60-26.92-60-60-60m0 112c-28.67 0-52-23.33-52-52s23.33-52 52-52 52 23.33 52 52-23.33 52-52 52m35.97-51.97c0 19.85-16.15 36-36 36s-36-16.15-36-36 16.15-36 36-36 36 16.15 36 36M70.667 140c7.588 0 12.15 3.818 12.15 10.165 0 2.53-.645 4.612-1.935 6.149-1.19 1.388-2.33 2.083-4.76 2.826 3.372.992 4.81 2.827 5.703 7.092 1.289 5.504 2.033 7.933 2.875 9.024v.199h-8.132c-.992-1.785-1.685-4.017-2.677-8.53-.794-3.62-2.331-5.008-5.554-5.008h-5.405v13.538h-7.835V140zm-1.19 16.017c3.62 0 5.604-1.736 5.604-4.96 0-3.173-1.736-4.859-5.058-4.859h-7.091v9.819zM113.267 170c-2.082 3.967-5.256 6-11.405 6-7.983 0-13.438-5.405-13.438-13.29 0-8.132 5.405-13.834 13.09-13.834 7.588 0 12.15 5.058 12.15 13.488v2.033H96.06c.247 3.967 2.628 6 6.148 6 2.132 0 4.265-.893 5.108-2.678zm-6.992-10.215c-.397-3.719-1.785-5.305-4.81-5.305-2.975 0-4.562 1.636-5.256 5.305zm35.607 9.818c-1.934 4.166-5.355 6.397-10.81 6.397-8.281 0-13.339-5.256-13.339-13.339 0-8.181 5.157-13.785 12.793-13.785 4.959 0 8.38 1.785 10.711 5.306l-6.247 3.67c-.844-1.984-2.084-3.075-4.216-3.075-3.421 0-5.305 2.727-5.305 7.686 0 5.008 1.884 7.636 5.554 7.636 2.479 0 3.718-.991 4.66-3.421z"/></svg>