<svg xmlns="http://www.w3.org/2000/svg" viewBox="0 0 192 192"><path d="M176 96c0 44.112-35.888 80-80 80-21.002 0-40.845-8.077-55.873-22.744C25.582 139.06 17.117 120.209 16.122 100h8.007c.987 18.035 8.59 34.847 21.586 47.53C59.24 160.73 77.098 168 96 168c39.701 0 72-32.299 72-72 0-38.45-29.778-69.788-68-71.872v-8.014c20.38 1.004 39.388 9.627 53.598 24.366C168.044 55.464 176 75.181 176 96M55.695 55.695A56.79 56.79 0 0 1 92 39.153V15.107c-20.104.981-39.009 9.35-53.275 23.618C24.457 52.99 16.088 71.895 15.107 92h24.046a56.79 56.79 0 0 1 16.542-36.305"/></svg>