<svg xmlns="http://www.w3.org/2000/svg" viewBox="0 0 192 192"><path fill-rule="evenodd" d="M96.019 87.999c-15.45 0-28.02 12.569-28.02 28.02s12.57 28.019 28.02 28.019 28.019-12.57 28.019-28.02-12.57-28.02-28.02-28.02zm19.876 25.72L87.472 97.941a19.9 19.9 0 0 1 8.547-1.943c10.26 0 18.73 7.761 19.876 17.72zm-39.896 2.3c0-6.555 3.18-12.366 8.064-16.02l-.25 31.85c-4.742-3.664-7.814-9.389-7.814-15.83m20.02 20.019c-2.88 0-5.612-.623-8.088-1.722l27.954-15.931c-1.177 9.925-9.63 17.653-19.866 17.653M124.017 44H67.982C59.17 44.001 52 51.171 52 59.984v84.033C52 152.83 59.17 160 67.982 160H84v8l-48 .002V32h32v3.999h55.999V32h8v-8h-8v-4H68v4H28v152.002L92 176v-16h8v16h8v.002h8v-8h-8V160h16.017c8.813 0 15.983-7.17 15.983-15.983V59.984c0-8.813-7.17-15.983-15.983-15.983zM132 144.017c0 4.402-3.581 7.983-7.983 7.983H67.982c-4.401 0-7.982-3.581-7.982-7.983V59.984c0-4.401 3.581-7.983 7.982-7.983h56.035c4.402 0 7.983 3.582 7.983 7.983zM164 24v8h-8v-8zm-16 8h-8v-8h8zm8 8h8v8h-8zm0 16h8v8h-8zm0 16h8v8h-8zm0 16h8v8h-8zm0 15.998h8v8h-8zM156 120h8v8h-8zm0 15.998h8v8h-8zm0 16h8v8h-8zm0 16.004h8v8h-8zm-15.999 0h8v8h-8zm-16.001 0h8v8h-8z" clip-rule="evenodd"/></svg>