<svg xmlns="http://www.w3.org/2000/svg" viewBox="0 0 192 192"><path d="M160 96c0-17.575-7.124-33.516-18.633-45.093l11.309-11.309C167.081 54.073 176 74.013 176 96c0 22.056-8.972 42.056-23.458 56.542l-11.308-11.308C152.822 129.644 160 113.644 160 96M50.766 141.234C39.178 129.644 32 113.644 32 96c0-17.575 7.124-33.516 18.633-45.093L39.324 39.598C24.919 54.073 16 74.013 16 96c0 22.056 8.972 42.056 23.458 56.542zM152 96c0-30.878-25.122-56-56-56S40 65.122 40 96s25.122 56 56 56 56-25.122 56-56m-8 0c0 26.467-21.533 48-48 48s-48-21.533-48-48 21.533-48 48-48 48 21.533 48 48M76.995 66.447V126.2h13.371v-21.896h12.62c13.12 0 20.892-6.853 20.892-18.47 0-12.2-7.939-19.388-21.478-19.388H76.995zM90.366 94.36v-17.3h11.282c6.101 0 9.193 2.842 9.193 8.525s-3.259 8.775-9.276 8.775z"/></svg>