<svg xmlns="http://www.w3.org/2000/svg" viewBox="0 0 192 192"><path d="M34.25 112.84c-2.67.8-5.11 2.15-7.19 3.92A71.6 71.6 0 0 1 24 96c0-7.21 1.07-14.18 3.06-20.76 2.08 1.77 4.52 3.12 7.19 3.92A63.7 63.7 0 0 0 32 96c0 5.83.78 11.47 2.25 16.84m20.81 32.3a20.1 20.1 0 0 1-6.52 4.95c7.85 6.89 17.2 12.11 27.5 15.09-.03-.39-.04-.78-.04-1.18 0-2.4.42-4.7 1.2-6.83a63.5 63.5 0 0 1-22.14-12.03m81.89-.01a63.9 63.9 0 0 1-22.14 12.05c.77 2.13 1.19 4.42 1.19 6.82 0 .4-.01.79-.04 1.18 10.3-2.98 19.66-8.21 27.51-15.12a20 20 0 0 1-6.52-4.93M55.06 46.86A63.5 63.5 0 0 1 77.2 34.83C76.42 32.7 76 30.4 76 28c0-.4.01-.79.04-1.18-10.3 2.98-19.65 8.2-27.5 15.09 2.5 1.19 4.73 2.89 6.52 4.95m81.89.01a20 20 0 0 1 6.52-4.93c-7.85-6.91-17.21-12.14-27.51-15.12.03.39.04.78.04 1.18 0 2.4-.42 4.69-1.19 6.82a63.9 63.9 0 0 1 22.14 12.05m27.983 28.359a20 20 0 0 1-7.2 3.924 63.76 63.76 0 0 1 .001 33.694 20 20 0 0 1 7.199 3.924C166.92 110.191 168 103.221 168 96s-1.08-14.19-3.067-20.771M164 132c0 6.62-5.38 12-12 12s-12-5.38-12-12c0-.95.11-1.87.32-2.76l-30-19.29A20.04 20.04 0 0 1 100 115.6v37.09a12.03 12.03 0 0 1 6.94 6.37 12 12 0 0 1 .66 8c-1.35 5.14-6.04 8.94-11.6 8.94s-10.25-3.8-11.6-8.94a12 12 0 0 1 .66-8 12.03 12.03 0 0 1 6.94-6.37V115.6c-4-.82-7.57-2.83-10.32-5.65l-23.04 14.81-6.96 4.48c.21.89.32 1.81.32 2.76 0 2.91-1.03 5.57-2.75 7.65-1.77 2.12-4.24 3.63-7.05 4.15-.72.13-1.45.2-2.2.2-6.62 0-12-5.38-12-12 0-2.55.8-4.92 2.17-6.86 1.58-2.28 3.94-3.98 6.68-4.72Q38.365 120 40 120c2.77 0 5.32.94 7.35 2.53l6.97-4.48 23.04-14.81C76.48 100.99 76 98.55 76 96s.48-4.99 1.36-7.24L54.32 73.95l-6.97-4.48A11.87 11.87 0 0 1 40 72q-1.635 0-3.15-.42c-2.74-.74-5.1-2.44-6.68-4.72A11.86 11.86 0 0 1 28 60c0-6.62 5.38-12 12-12 .75 0 1.48.07 2.2.2 2.81.52 5.28 2.03 7.05 4.15A11.95 11.95 0 0 1 52 60c0 .95-.11 1.87-.32 2.76l6.96 4.48 23.04 14.81C84.43 79.23 88 77.22 92 76.4V39.31a12.03 12.03 0 0 1-6.94-6.37 12 12 0 0 1-.66-8C85.75 19.8 90.44 16 96 16s10.25 3.8 11.6 8.94a12 12 0 0 1-.66 8 12.03 12.03 0 0 1-6.94 6.37V76.4c4 .82 7.57 2.83 10.32 5.65l30-19.29c-.21-.89-.32-1.81-.32-2.76 0-6.62 5.38-12 12-12s12 5.38 12 12-5.38 12-12 12c-2.77 0-5.32-.94-7.35-2.53l-30.01 19.29c.88 2.25 1.36 4.69 1.36 7.24s-.48 4.99-1.36 7.24l30.01 19.29A11.87 11.87 0 0 1 152 120c6.62 0 12 5.38 12 12m-14.28-75.28A3.98 3.98 0 0 0 148 60a4 4 0 0 0 5.9 3.52c.09-.05.18-.1.26-.16A3.98 3.98 0 0 0 156 60c0-2.21-1.79-4-4-4-.79 0-1.53.23-2.16.64-.04.02-.08.05-.12.08M44 60c0-.36-.05-.72-.15-1.05-.24-.92-.81-1.71-1.57-2.23a1 1 0 0 0-.12-.08A3.94 3.94 0 0 0 40 56c-2.21 0-4 1.79-4 4 0 1.41.73 2.65 1.84 3.36.08.06.17.11.26.16.56.3 1.21.48 1.9.48a3.994 3.994 0 0 0 4-4m-4 76c.79 0 1.53-.23 2.16-.64.04-.02.08-.05.12-.08.76-.52 1.33-1.31 1.57-2.23.1-.33.15-.69.15-1.05a3.994 3.994 0 0 0-4-4c-.69 0-1.34.18-1.9.48-.09.05-.18.1-.26.16A3.98 3.98 0 0 0 36 132c0 2.21 1.79 4 4 4M96 32c2.21 0 4-1.79 4-4s-1.79-4-4-4-4 1.79-4 4 1.79 4 4 4m0 128c-2.21 0-4 1.79-4 4s1.79 4 4 4 4-1.79 4-4-1.79-4-4-4m7.35-54.52c2.13-1.65 3.69-4.01 4.33-6.72.21-.89.32-1.81.32-2.76s-.11-1.87-.32-2.76c-.64-2.71-2.2-5.07-4.33-6.72-1-.78-2.13-1.4-3.35-1.83-1.25-.45-2.6-.69-4-.69s-2.75.24-4 .69c-1.22.43-2.35 1.05-3.35 1.83a12 12 0 0 0-4.33 6.72c-.21.89-.32 1.81-.32 2.76s.11 1.87.32 2.76c.64 2.71 2.2 5.07 4.33 6.72 1 .78 2.13 1.4 3.35 1.83 1.25.45 2.6.69 4 .69s2.75-.24 4-.69c1.22-.43 2.35-1.05 3.35-1.83m48.24 30.5c.14.01.27.02.41.02 2.21 0 4-1.79 4-4 0-1.41-.73-2.65-1.84-3.36-.08-.06-.17-.11-.26-.16-.56-.3-1.21-.48-1.9-.48-.11 0-.22 0-.33.02A3.983 3.983 0 0 0 148 132c0 .36.05.7.15 1.03.06.21.13.42.22.62.13.29.31.57.5.82.09.13.19.25.32.36.12.11.23.22.36.32.06.05.11.1.17.13q.045.045.09.06c.01.01.02.02.03.02.26.18.55.31.85.41.09.04.19.07.29.09.01.01.03.02.05.02.09.02.18.04.27.05.09.03.19.04.29.05"/></svg>