<svg xmlns="http://www.w3.org/2000/svg" viewBox="0 0 192 192"><path d="M140 108v24h-8v-8.954c-5.194 6.547-12.162 11.478-20 14.29v-8.608c6.123-2.748 11.449-7.123 15.268-12.728H116v-8zm-60 20.03C68.138 122.053 60 109.944 60 96h-8c0 18.442 11.602 34.26 28 40.792zm0-64.758v-8.608c-7.838 2.812-14.806 7.743-20 14.29V60h-8v24h24v-8H64.732c3.82-5.605 9.145-9.98 15.268-12.728m32-8.064v8.762c11.862 5.977 20 18.086 20 32.03h8c0-18.442-11.602-34.26-28-40.792M112 96c0-8.822-7.178-16-16-16s-16 7.178-16 16 7.178 16 16 16 16-7.178 16-16m-8 0c0 4.411-3.589 8-8 8s-8-3.589-8-8 3.589-8 8-8 8 3.589 8 8M88.136 66h4.456V54.903L98.796 66h5.068V48h-4.456v10.573L93.553 48h-5.417zM176 96c0-44.112-35.888-80-80-80S16 51.888 16 96s35.888 80 80 80 80-35.888 80-80m-8 0c0 39.701-32.299 72-72 72s-72-32.299-72-72 32.299-72 72-72 72 32.299 72 72m-80 43.273q1.077 2.288 2.869 3.434Q92.916 144 96.215 144q3.503 0 5.495-1.4 2.29-1.604 2.29-4.782 0-3.003-2.29-4.512-1.494-.93-5.185-1.683-1.926-.377-2.673-.882c-.747-.505-.748-.815-.748-1.435q0-2.128 3.085-2.128 1.185 0 2.067.485c.882.485 1.142.84 1.663 1.55l3.583-1.98q-2.654-3.53-7.34-3.53-3.219 0-5.118 1.415-2.155 1.602-2.155 4.62 0 2.801 2.236 4.228.7.445 1.71.775t3.286.842q2.007.471 2.748.942.834.512.835 1.576 0 1.05-.822 1.697-.942.727-2.707.727-1.67 0-2.714-.687t-1.65-2.181z"/></svg>