<svg xmlns="http://www.w3.org/2000/svg" viewBox="0 0 192 192"><path d="M96 160c-35.29 0-64-28.71-64-64s28.71-64 64-64 64 28.71 64 64-28.71 64-64 64m0-120c-30.878 0-56 25.122-56 56s25.122 56 56 56 56-25.122 56-56-25.122-56-56-56m-24.861 65.745H58.043l-2.153 6.306h-6.482l11.755-32.168h7.866l11.58 32.168h-7.317zm-1.648-4.988-4.856-14.326-4.9 14.326zm14.917 11.294V79.883h14.26q4.878 0 7.602 1.956 2.923 2.087 2.923 6.46 0 3.185-1.67 5.031-.967 1.077-2.879 1.956 2.484.879 3.78 2.131 2.043 2.022 2.043 5.713 0 5.12-3.801 7.273-2.856 1.648-7.449 1.648zm6.701-19.072h7.12q2.394 0 3.383-1.143.835-.988.835-2.878 0-1.978-1.032-2.967-1.077-.988-3.912-.988H91.11v7.976zm0 13.952h7.669q2.482 0 3.757-1.252 1.187-1.186 1.187-3.274 0-4.438-5.208-4.438H91.11v8.964zm22.299-2.197 5.976-2.46q.989 2.218 2.44 3.295 2.174 1.626 5.624 1.626 2.594 0 4.197-.967 1.802-1.054 1.802-3.186 0-1.67-1.143-2.57a5.9 5.9 0 0 0-1.758-.923 40 40 0 0 0-3.186-.88q-3.603-.834-5.097-1.34-6.526-2.109-6.526-8.13 0-5.273 3.933-7.844 2.922-1.911 7.383-1.911 8.723 0 12.326 6.723l-5.58 2.549q-.968-1.779-2.022-2.593-1.692-1.318-4.592-1.318-1.978 0-3.187.747-1.516.945-1.516 2.856 0 1.517 1.099 2.352a5.9 5.9 0 0 0 1.89 1.01q1.12.33 2.724.66 6 1.23 8.306 2.768 3.69 2.439 3.691 7.339 0 3.823-2.087 6.306-1.691 2.043-4.988 2.988-2.482.725-5.537.725-6.153 0-9.976-2.68a11.9 11.9 0 0 1-3.34-3.516 24 24 0 0 1-.856-1.626m-76.123 32.93C28.594 125.444 24 111.032 24 95.982c0-15.034 4.585-29.436 13.26-41.648l-6.52-4.633C21.096 63.274 16 79.278 16 95.982c0 16.721 5.106 32.738 14.765 46.319zM176 96.018c0-16.721-5.106-32.738-14.765-46.319l-6.52 4.637C163.406 66.556 168 80.968 168 96.018c0 15.034-4.585 29.436-13.26 41.648l6.52 4.633c9.643-13.573 14.74-29.577 14.74-46.281"/></svg>