<svg xmlns="http://www.w3.org/2000/svg" viewBox="0 0 192 192"><path d="M48.86 126.17A55.64 55.64 0 0 1 40 96c0-30.878 25.122-56 56-56a55.65 55.65 0 0 1 30.17 8.86l-5.807 5.807A47.7 47.7 0 0 0 96 48c-26.467 0-48 21.533-48 48a47.7 47.7 0 0 0 6.667 24.363zm88.474-54.533A47.7 47.7 0 0 1 144 96c0 26.467-21.533 48-48 48a47.7 47.7 0 0 1-24.363-6.667l-5.807 5.808C74.545 148.738 84.896 152 96 152c30.878 0 56-25.122 56-56a55.65 55.65 0 0 0-8.86-30.17zm38.495-49.808-5.658-5.658-154 154 5.658 5.658zM91.409 83.62V73.236h10.384l11.69-11.689c-2.416-.527-5.048-.81-7.902-.81h-29.92v38.631l15.747-15.747zm-13.545 47.486h13.544v-13.544zm25.785-25.786h2.62c15.453 0 24.606-8.07 24.606-21.75a29 29 0 0 0-.426-5.05zm45.292-45.291C156.125 70.557 160 82.98 160 96c0 17.053-6.63 33.097-18.666 45.176l11.333 11.294C167.713 137.372 176 117.316 176 96c0-17.31-5.465-33.787-15.575-47.454L148.94 60.03zM43.06 131.97C35.875 121.443 32 109.02 32 96c0-17.053 6.63-33.097 18.666-45.176L39.334 39.53C24.287 54.628 16 74.684 16 96c0 17.31 5.465 33.787 15.575 47.454z"/></svg>