<svg xmlns="http://www.w3.org/2000/svg" viewBox="0 0 192 192"><path d="M44 108a4 4 0 0 1-4 4h-4a4 4 0 0 1 0-8h4a4 4 0 0 1 4 4m132 0c0 9.652-8.73 14.773-10.023 15.479L145.107 136H140v4c.024 6.435-5.454 11.937-11.961 12H64c-6.546-.063-12.024-5.565-12-12.015V136h-5.108l-20.87-12.521C24.73 122.773 16 117.652 16 108c0-9.673 8.73-14.776 10.029-15.481l20.866-12.48H52V76c-.024-6.435 5.454-11.937 11.961-12h8.04V48c0-2.604 0-4.658 1.672-6.33C75.344 40 77.4 40 80 40h32c6.206 0 8 1.794 8 8v16h8.039c6.507.063 11.985 5.565 11.961 12.015v4.024h5.105l20.866 12.48C167.27 93.224 176 98.327 176 108M52 128V88.04h-2.895l-19.28 11.52C29.786 99.58 24 102.7 24 108c0 5.293 5.773 8.414 5.831 8.443l.227.127L49.108 128zm80-52c.008-2.112-1.87-3.97-4.023-4H112V48H79.998c.003.759.003 4.08.002 20v4H64c-2.12.02-4.008 1.883-4 3.985V140c-.008 2.117 1.88 3.98 4.039 4H128c2.12-.02 4.008-1.883 4-3.985zm36 32c0-5.3-5.787-8.42-5.846-8.451l-.207-.116-19.052-11.394H140V128h2.892l19.277-11.557c.037-.02 5.831-3.155 5.831-8.443m-12-4h-4a4 4 0 0 0 0 8h4a4 4 0 0 0 0-8"/></svg>