<svg xmlns="http://www.w3.org/2000/svg" viewBox="0 0 192 192"><path d="M124.005 48V16h-56v32h-40v36h20v92h35.12l8.88-35.51v-12.83c1.3.23 2.64.34 4 .34s2.7-.11 4-.34v12.83l8.87 35.51h35.13V84h20V48zm-28 72c-1.38 0-2.72-.18-4-.51a15.9 15.9 0 0 1-8-4.93c-2.5-2.82-4-6.52-4-10.56s1.5-7.74 4-10.56a15.9 15.9 0 0 1 8-4.93c1.28-.33 2.62-.51 4-.51s2.72.18 4 .51c3.15.81 5.92 2.56 8 4.93 2.5 2.82 4 6.52 4 10.56s-1.5 7.74-4 10.56a15.93 15.93 0 0 1-8 4.93c-1.28.33-2.62.51-4 .51m4-39.66c-1.3-.23-2.64-.34-4-.34s-2.7.11-4 .34V72h8zm56-4.34h-20v92h-20.88l-7.12-28.49v-14.74c7.17-4.15 12-11.91 12-20.77s-4.83-16.62-12-20.77V64h-24v19.23c-7.17 4.15-12 11.91-12 20.77s4.83 16.62 12 20.77v14.74L76.875 168h-20.87V76h-20V56h40V24h40v32h40zm-52.01 28c0 2.96-1.6 5.54-3.99 6.92a7.9 7.9 0 0 1-4.01 1.08c-1.45 0-2.81-.39-3.99-1.07a7.99 7.99 0 0 1-4.01-6.93c0-2.96 1.61-5.55 4.01-6.93a7.96 7.96 0 0 1 3.99-1.07c1.46 0 2.83.39 4.01 1.08a7.97 7.97 0 0 1 3.99 6.92"/></svg>