<svg xmlns="http://www.w3.org/2000/svg" viewBox="0 0 192 192"><path d="m168.413 31.424-26.137-11.656-45.511 12.256-6.322 15.028a15.5 15.5 0 0 0-8.614-.16L76.972 48.2a13.6 13.6 0 0 0-6.064-7.26c-3.17-1.825-6.86-2.307-10.473-1.331l-32.477 9.513C20.994 51.098 15.965 57.784 16 65v23.019c.023 4.666 2.203 8.996 5.984 11.878 3.87 2.951 8.756 3.925 13.405 2.674l1.716-.462 1.72-.65c1.156 10.329 3.668 32.15 5.308 41.887l-2.421.652a4.96 4.96 0 0 0-3.032 2.332 4.97 4.97 0 0 0-.496 3.796l4.21 15.637c1.442 5.348 6.3 8.88 11.591 8.88 1.03 0 2.077-.133 3.118-.414l28.002-7.54a11.92 11.92 0 0 0 7.28-5.6 11.92 11.92 0 0 0 1.186-9.108l-4.21-15.637a5.005 5.005 0 0 0-6.128-3.528l-2.793.752-6.3-42.201 5.796-1.56 2.99 11.107 7.726-2.08-2.992-11.108 4.817-1.297a15.5 15.5 0 0 0 6.073-3.221l12.825 9.09 48.64-13.098 15.342-21.99zM85.847 154.06c.278 1.032.137 2.11-.396 3.036s-1.394 1.589-2.427 1.867l-28.002 7.54a4.01 4.01 0 0 1-4.903-2.822l-3.43-12.74 35.727-9.62zm4.55-75.356-25.221 6.791 7.488 50.167-20.778 5.595c-1.681-10.397-4.558-35.55-5.685-45.873l-.568-5.208-10.825 4.266-1.5.404c-2.236.6-4.593.123-6.474-1.311C25.044 92.17 24.011 90.146 24 88V64.981c-.018-3.655 2.623-7.164 6.174-8.171l32.425-9.5a5.66 5.66 0 0 1 4.318.563 5.65 5.65 0 0 1 2.655 3.452l1.796 6.67 12.541-3.378c4.067-1.093 8.256 1.322 9.35 5.382l2.52 9.357c1.093 4.061-1.321 8.255-5.383 9.349Zm64.723-6.472-42.19 11.361-9.828-6.965a15.53 15.53 0 0 0 .4-9.354l-2.519-9.356a15.5 15.5 0 0 0-3.662-6.584l5.301-12.603 38.99-10.5 20.067 8.948 1.432 5.32-7.711 2.077c-3.1-4.924-9.16-7.49-15.064-5.9a13.53 13.53 0 0 0-8.259 6.354 13.54 13.54 0 0 0-1.811 6.315l-5.988 1.612a8.1 8.1 0 0 0-7.881-2.138 8.114 8.114 0 1 0 4.22 15.67 8.1 8.1 0 0 0 5.74-5.807l5.989-1.613a13.55 13.55 0 0 0 4.737 4.551 13.53 13.53 0 0 0 10.332 1.347 13.52 13.52 0 0 0 8.259-6.353 13.54 13.54 0 0 0 1.811-6.315l7.706-2.075 1.472 5.466zm-16.11-23.211a5.58 5.58 0 0 1 3.406-2.62 5.6 5.6 0 0 1 1.458-.194 5.624 5.624 0 0 1 5.422 4.155 5.58 5.58 0 0 1-.556 4.26 5.58 5.58 0 0 1-3.405 2.62 5.58 5.58 0 0 1-4.26-.555 5.58 5.58 0 0 1-2.62-3.405 5.58 5.58 0 0 1 .556-4.261Z"/></svg>