<svg xmlns="http://www.w3.org/2000/svg" viewBox="0 0 192 192"><path d="M145.497 36H176v8h-30.503a13.06 13.06 0 0 0-11.138 6.173l-15.85 25.36A26.8 26.8 0 0 1 114.997 80H176v8H96.263c-.088 0-.175.008-.263.008s-.175-.007-.263-.008H16v-8h61.003a26.8 26.8 0 0 1-3.512-4.467l-15.85-25.36A13.06 13.06 0 0 0 46.504 44H16v-8h30.503c7.335 0 14.035 3.714 17.923 9.934l15.848 25.358c3.365 5.383 9.131 8.62 15.463 8.708h.526c6.332-.088 12.098-3.325 15.463-8.708l15.85-25.358c3.886-6.22 10.586-9.934 17.921-9.934M96 103.992c-.088 0-.175.007-.263.008H16v8h61.003a26.8 26.8 0 0 0-3.512 4.467l-15.85 25.36A13.06 13.06 0 0 1 46.503 148H16v8h30.503c7.335 0 14.035-3.714 17.922-9.934l15.85-25.358c3.364-5.383 9.13-8.62 15.462-8.708h.526c6.332.088 12.098 3.325 15.463 8.708l15.848 25.358c3.888 6.22 10.588 9.934 17.923 9.934H176v-8h-30.503a13.06 13.06 0 0 1-11.139-6.174l-15.85-25.359a26.8 26.8 0 0 0-3.51-4.467H176v-8H96.263c-.088 0-.175-.008-.263-.008m-4-67.967v16.662l-8.99-8.99-5.656 5.657 18.641 18.642 18.642-18.642-5.657-5.657-8.98 8.98V36.026h-8zm7.99 119.873v-16.662l8.99 8.99 5.657-5.657-18.642-18.642-18.641 18.642 5.656 5.658 8.98-8.981v16.652z"/></svg>