<svg xmlns="http://www.w3.org/2000/svg" viewBox="0 0 192 192"><path d="M136 84c0 52.217-39.396 76-76 76v-8c25.256 0 68-14.322 68-68 0-39.712-25.176-44-36-44-13.574 0-28 9.813-28 28 0 9.72 6.28 16 16 16 3.57 0 6.115-.849 7.927-2.18-4.549-.955-7.965-4.988-7.965-9.82 0-5.544 4.494-10.038 10.038-10.038S100.037 66.456 100.037 72v.003C100.036 81.671 94.772 92 80 92c-14.13 0-24-9.87-24-24 0-22.534 18.304-36 36-36 10.322 0 44 3.75 44 52m18-.022a6.022 6.022 0 1 0 0 12.045 6.022 6.022 0 0 0 0-12.045m0-28a6.022 6.022 0 1 0 0 12.044 6.022 6.022 0 0 0 0-12.045z"/></svg>