<svg xmlns="http://www.w3.org/2000/svg" viewBox="0 0 192 192"><path d="M84 176c-10.168 0-16-5.832-16-16s5.832-16 16-16v8c-5.757 0-8 2.243-8 8s2.243 8 8 8c5.682 0 8-3.477 8-12v-20.162C76.434 134.572 60 125.742 60 104c0-21.208 15.197-32.99 28.605-43.385A601 601 0 0 0 92 57.97V15.944l4.056.056c6.898.096 19.944 4.4 19.944 20 0 10.917-7.147 18.546-16 25.809V80c13.914 0 28 9.618 28 28 0 12.557-11.089 25.939-28 27.785V156c0 17.402-10.024 20-16 20m8-107.894C79.95 77.476 68 87.405 68 104c0 18.81 15.291 22.967 24 23.804v-38.06C86.976 92.25 84 97.31 84 104h-8c0-11.274 6.283-19.836 16-22.837zM100 88v39.712c11.968-1.752 20-11.172 20-19.712 0-13.741-10.368-20-20-20m0-63.325v26.478c4.796-4.647 8-9.435 8-15.153 0-7.397-4.477-10.236-8-11.325"/></svg>