<svg xmlns="http://www.w3.org/2000/svg" viewBox="0 0 192 192"><path d="m61.531 104.161 5.466 1.66q-.608 2.146-1.275 3.462a8.8 8.8 0 0 1-1.761 2.368q-2.713 2.793-7.207 2.794-5.427 0-8.442-3.887-3.017-3.888-3.017-10.892 0-7.125 3.098-11.094t8.685-3.968q4.9 0 7.45 3.32a10.4 10.4 0 0 1 1.195 1.983q.505 1.094 1.073 2.875l-5.506 1.66q-.85-2.834-1.862-3.907t-2.753-1.073q-1.215 0-2.187.547-.971.546-1.498 1.6-1.376 2.633-1.376 7.773 0 5.264 1.255 7.733 1.254 2.47 3.887 2.47 1.903 0 2.996-1.235 1.093-1.234 1.781-4.19Zm8.26 9.839V85.051h6.114v24.091h9.879V114zm18.948 0V85.051h6.114V114zm26.034-9.839 5.466 1.66q-.608 2.146-1.275 3.462a8.8 8.8 0 0 1-1.761 2.368q-2.713 2.793-7.207 2.794-5.427 0-8.442-3.887-3.017-3.888-3.017-10.892 0-7.125 3.098-11.094t8.685-3.968q4.9 0 7.45 3.32a10.4 10.4 0 0 1 1.195 1.983q.505 1.094 1.073 2.875l-5.506 1.66q-.85-2.834-1.862-3.907t-2.753-1.073q-1.215 0-2.187.547-.971.546-1.498 1.6-1.376 2.633-1.376 7.773 0 5.264 1.255 7.733 1.254 2.47 3.887 2.47 1.903 0 2.996-1.235 1.093-1.234 1.781-4.19Zm8.3 9.839V85.051h6.114V96.55l7.652-11.499h6.438l-8.017 11.741L144.046 114h-6.761l-6.235-12.39-1.862 2.673V114zm51.16 12.035-20.085-11.426-3.956 6.953 20.085 11.426zm0-51.473-3.956-6.953-20.085 11.426 3.956 6.953zM176 96h-24.002v8H176zM39.982 96H15.98v8h24.002zm3.438 24.704-3.955-6.953-20.085 11.425 3.955 6.953zm0-41.076L23.335 68.202l-3.956 6.953 20.085 11.426z"/></svg>