<svg xmlns="http://www.w3.org/2000/svg" viewBox="0 0 192 192"><path d="M134.8 62.8 116 81.7l-10.8-10.8 5.7-5.7 5.2 5.2 13.2-13.2zm-24 30.4-5.7 5.7 10.8 10.8 18.8-18.8-5.7-5.7-13 13.1zM176 144c0 17.6-14.4 32-32 32s-32-14.4-32-32 14.4-32 32-32 32 14.4 32 32m-8 0c0-13.2-10.8-24-24-24s-24 10.8-24 24 10.8 24 24 24 24-10.8 24-24m-48 32H40V24h28v-8h56v8h28v80.8c-2.6-.5-5.3-.8-8-.8V32h-20v8H68v-8H48v136h64c2.3 3 5 5.7 8 8M76 32h40v-8H76zm20 64H56v8h40zm0-28H56v8h40zm52 60h-8v12h-12v8h12v12h8v-12h12v-8h-12zm-92 4h40v-8H56z"/></svg>