<svg xmlns="http://www.w3.org/2000/svg" viewBox="0 0 192 192"><path d="M136 80H88v-8h48zm16-24H88v8h64zm24-32v152H64V40.37l8-8.185V168h96V32h-20v8H92v-8H72.181L80 24h12v-8h56v8zm-36 0h-40v8h40zM44.142 54.82a4 4 0 1 0-5.657-5.657 4 4 0 0 0 5.657 5.657m16.97-22.627 5.658-5.657c-14.037-14.037-36.875-14.037-50.912 0l5.657 5.657c10.917-10.918 28.68-10.918 39.598 0zM49.8 43.506l5.657-5.656c-3.778-3.778-8.8-5.858-14.142-5.858s-10.365 2.08-14.142 5.858l5.657 5.656c2.266-2.266 5.28-3.514 8.485-3.514s6.218 1.248 8.485 3.514M126.693 157.2c.46-.44 11.34-10.882 17.48-18.584 5.792-7.266 11.972-15.98 11.972-27.469 0-10.637-8.18-19.291-18.232-19.291-5.549 0-10.61 2.964-13.952 7.522-3.407-4.558-8.566-7.522-14.22-7.522-8.474 0-15.959 6.343-17.797 15.083l8.113 1.708c1.051-5.005 5.034-8.501 9.683-8.501 5.294 0 10.115 5.65 10.115 11.855h8.29c0-6.315 4.565-11.855 9.768-11.855 5.482 0 9.942 4.935 9.942 11.001 0 7.953-3.89 14.43-10.165 22.301-3.96 4.968-10.276 11.4-13.91 15.004a173 173 0 0 1-8.677-9.07l-6.207 5.497c6.14 6.932 11.902 12.178 12.145 12.397l2.861 2.598zm-19.611-23.736 5.067-6.126 4.898 5.361a4.002 4.002 0 0 0 6.281-.48l2.813-4.218H132v-8h-8a4 4 0 0 0-3.328 1.781l-1.165 1.748-4.554-4.985c-.781-.854-1.87-1.352-3.052-1.3a4 4 0 0 0-2.983 1.448l-5.604 6.774-.96-.7A4 4 0 0 0 100 124H80v8h18.698l2.948 2.146a3.995 3.995 0 0 0 5.437-.684z"/></svg>