<svg xmlns="http://www.w3.org/2000/svg" viewBox="0 0 192 192"><path d="M66.754 57.155c-11.553-11.58-31.058-8.072-31.882-7.917l-2.69.506-.503 2.69c-.155.826-3.652 20.365 7.894 31.94 3.825 3.834 8.232 5.191 12.445 5.191 4.175 0 8.154-1.334 11.195-2.91l4.702 4.701 5.657-5.657-4.655-4.655c3.216-6.098 5.533-16.174-2.163-23.889m-3.25 15.793a18 18 0 0 1-.65 2.033l-4.974-4.974-5.657 5.658 4.912 4.912c-.567.209-1.17.403-1.8.564-4.125 1.05-7.428.26-10.098-2.417-6.366-6.381-6.425-16.93-6.029-21.968 5.02-.41 15.49-.358 21.882 6.05 2.674 2.68 3.464 5.998 2.414 10.142M128 106c0 5.57-3.278 10.377-8 12.63V93.37c4.722 2.253 8 7.06 8 12.63m-8 62H24V32h20v8h56v-8h20v36.478a37.7 37.7 0 0 1 8 2.206V24h-28v-8H44v8H16v152h112v-34.684a37.7 37.7 0 0 1-8 2.206zM52 24h40v8H52zm120.58 124.061-30.787-30.786q.532-1.305.942-2.668l.005-.014q.2-.67.371-1.352l.02-.088q.16-.645.292-1.301.02-.113.04-.227c.076-.395.148-.791.207-1.192.02-.137.034-.276.053-.414.046-.344.093-.687.128-1.034.023-.235.036-.473.054-.71.02-.255.044-.509.057-.766q.038-.75.038-1.509c0-12.204-7.33-22.722-17.813-27.403l-.142-.064a30 30 0 0 0-1.905-.765l-.04-.014a30 30 0 0 0-1.795-.575 30 30 0 0 0-2.305-.575 30 30 0 0 0-6-.604c-16.542 0-30 13.458-30 30 0 4.277.906 8.345 2.526 12.03l.036.08a30 30 0 0 0 2.002 3.77l.055.084a30 30 0 0 0 2.5 3.408l.077.088q.677.796 1.407 1.54l.004.005q.742.754 1.535 1.454l.096.084q.782.688 1.611 1.322l.002.001a29.84 29.84 0 0 0 19.656 6.096c.258-.013.513-.038.77-.057.236-.018.473-.03.707-.054.345-.034.687-.081 1.029-.127.139-.019.28-.033.418-.054q.599-.09 1.19-.206l.227-.04q.075-.017.152-.035v.007c.124-.025.243-.062.366-.088.258-.057.517-.11.772-.173l.1-.023c.16-.04.317-.088.476-.13q.327-.087.65-.18.11-.029.218-.06l.02-.005q.704-.211 1.394-.458c.17-.06.335-.127.502-.19.257-.097.515-.19.768-.292l30.795 30.782c2.207 2.206 5.14 3.421 8.26 3.421s6.052-1.215 8.258-3.42c2.206-2.207 3.421-5.14 3.421-8.26s-1.215-6.052-3.42-8.259M128 122.958q-.863.712-1.796 1.336l-.045.029a22 22 0 0 1-1.899 1.13l-.043.021q-.989.522-2.033.941l-.017.007A21.9 21.9 0 0 1 114 128c-12.13 0-22-9.87-22-22s9.87-22 22-22a21.9 21.9 0 0 1 8.167 1.578l.016.007a22 22 0 0 1 2.034.94l.043.023q.98.518 1.9 1.13l.044.028q.933.622 1.796 1.336c4.883 4.038 8 10.141 8 16.958s-3.117 12.92-8 16.958m38.922 35.964c-1.39 1.39-3.814 1.39-5.204 0l-29.288-29.277a30.3 30.3 0 0 0 5.21-5.208l29.282 29.281A3.66 3.66 0 0 1 168 156.32c0 .983-.383 1.907-1.078 2.602m-113.75-6.074 4.7-4.7c-3.168-6.11-5.35-16.027 2.282-23.642 5.006-4.994 11.5-7.171 17.328-8.024a37.8 37.8 0 0 0 3.152 7.687c-4.96.441-10.747 1.927-14.83 6-2.676 2.67-3.467 5.974-2.417 10.099.16.63.355 1.233.564 1.8l4.912-4.912 5.658 5.657-4.974 4.974a18 18 0 0 0 2.033.65c4.145 1.05 7.462.26 10.142-2.414 3.562-3.553 5.156-8.365 5.802-12.802a38.2 38.2 0 0 0 7.033 5.412c-1.199 4.58-3.37 9.248-7.184 13.054-3.83 3.82-8.244 5.174-12.463 5.174-4.279 0-8.355-1.392-11.426-3.011l-4.655 4.655z"/></svg>