<svg xmlns="http://www.w3.org/2000/svg" viewBox="0 0 192 192"><path d="M160 144H32V48h128zm-120-8h112V56H40zm51-31.28c-1.566 3.834-3.078 5.995-5.724 7.938-2.862 2.16-6.426 3.241-10.584 3.241-11.285 0-18.522-7.723-18.522-19.764 0-11.826 7.506-20.034 18.36-20.034 4.752 0 8.748 1.404 11.664 4.104 1.836 1.782 2.916 3.348 4.373 6.696L82.9 90.033c-1.837-4.968-4.267-6.965-8.425-6.965-5.939 0-9.288 4.644-9.288 12.906 0 8.316 3.403 12.96 9.504 12.96 4.267 0 6.804-2.214 8.586-7.344L91 104.722Zm45 .043c-1.574 3.853-3.093 6.024-5.752 7.977-2.876 2.171-6.457 3.256-10.636 3.256-11.34 0-18.612-7.76-18.612-19.861 0-11.884 7.543-20.131 18.45-20.131 4.776 0 8.79 1.411 11.721 4.124 1.845 1.791 2.93 3.365 4.395 6.728l-7.705 3.147c-1.845-4.992-4.287-6.999-8.466-6.999-5.968 0-9.333 4.666-9.333 12.969 0 8.357 3.419 13.023 9.55 13.023 4.287 0 6.837-2.225 8.628-7.38z"/></svg>