<svg xmlns="http://www.w3.org/2000/svg" viewBox="0 0 192 192"><path d="m40 135.02-8 8V48h95.02l-8 8H40zm112 .98H72.98l-8 8H160V48.98l-8 8zM74.48 83.07c4.15 0 6.58 1.99 8.42 6.96l3.53-1.44 3.37-3.37c-1.11-2.25-2.11-3.56-3.61-5.02-2.91-2.69-6.91-4.1-11.66-4.1-10.85 0-18.36 8.21-18.36 20.03 0 7.02 2.46 12.58 6.75 15.97l5.56-5.56c-2.15-2.16-3.29-5.75-3.29-10.57 0-8.26 3.35-12.9 9.29-12.9m35.72 15.71-7.22 7.22c2.89 6.29 8.79 10 16.63 10 4.18 0 7.76-1.09 10.64-3.26 2.66-1.95 4.18-4.12 5.75-7.98l-7.76-3.14c-1.79 5.15-4.34 7.38-8.63 7.38-5.4 0-8.7-3.63-9.41-10.22m25.37-11.92c-1.47-3.37-2.55-4.94-4.4-6.73-.4-.37-.83-.72-1.27-1.05l-5.49 5.49c1.41 1.11 2.51 2.88 3.45 5.43zm-46.5 21.73 11.94-11.94 20.55-20.55 20.1-20.1 8-8 25.17-25.17-5.66-5.66L138.34 48l-8 8-46.01 46.01-2.12 2.12-4.21 4.21-7.22 7.22L50.34 136l-8 8-25.17 25.17 5.66 5.66L53.66 144l8-8 22.72-22.72z"/></svg>