<svg xmlns="http://www.w3.org/2000/svg" viewBox="0 0 192 192"><path d="M124 104c0 5.974-2.165 11.595-6.118 16H124v8h-20v-20h8v6.564c2.568-2.897 4-6.61 4-10.564 0-8.822-7.178-16-16-16v-8c13.234 0 24 10.766 24 24m-44 0c0-3.954 1.432-7.667 4-10.564V100h8V80H72v8h6.118C74.165 92.405 72 98.026 72 104c0 13.234 10.766 24 24 24v-8c-8.822 0-16-7.178-16-16m96 12c0 17.645-14.355 32-32 32H48c-17.645 0-32-14.355-32-32 0-15.634 11.39-28.883 26.483-31.517C45.117 69.39 58.366 58 74 58c3.376 0 6.675.52 9.846 1.55C91.729 48.5 104.263 42 118 42c23.159 0 42 18.841 42 42 0 1.377-.07 2.771-.212 4.169C169.727 93.814 176 104.433 176 116m-8 0c0-9.438-5.57-18.036-14.193-21.904l-2.828-1.268.522-3.056c.332-1.934.499-3.876.499-5.772 0-18.748-15.252-34-34-34-12.037 0-22.936 6.167-29.152 16.499l-1.827 3.035-3.234-1.447A23.8 23.8 0 0 0 74 66c-12.57 0-23.083 9.815-23.936 22.345l-.237 3.482-3.482.237C33.815 92.917 24 103.431 24 116c0 13.234 10.766 24 24 24h96c13.234 0 24-10.766 24-24"/></svg>