<svg xmlns="http://www.w3.org/2000/svg" viewBox="0 0 192 192"><path d="M84 124H43c-12.486 0-27-14.228-27-32.571 0-15.908 11.384-29.391 26.472-32.077C45.077 43.953 58.342 32.327 74 32.327c3.373 0 6.668.528 9.835 1.573C91.671 22.78 104.47 16 118 16c23.159 0 42 19.189 42 42.775 0 1.428-.074 2.872-.22 4.321C169.724 68.841 176 79.655 176 91.43c0 14.298-6.918 25.618-18.507 30.282l-2.986-7.422c8.449-3.4 13.493-11.946 13.493-22.86 0-9.677-5.582-18.484-14.22-22.438l-2.787-1.276.507-3.022c.332-1.983.5-3.974.5-5.918C152 39.6 136.748 24 118 24c-12.022 0-22.914 6.297-29.134 16.844l-1.83 3.103-3.277-1.496A23.34 23.34 0 0 0 74 40.327c-12.566 0-23.08 10.046-23.936 22.871l-.232 3.483-3.482.241C33.817 67.793 24 78.557 24 91.43 24 105.682 35.35 116 43 116h41zm47.829-34.824-5.658-5.657-9.823 9.824-3.498-3.498-5.657 5.657 9.155 9.155 15.48-15.48zM144 128h-8v31.678l-16-12.8-16 12.8V128h-8v48.322l24-19.2 24 19.2zm-14.33-3.73c2.973-.966 4.452-3.627 5.532-5.57.369-.663.925-1.665 1.188-1.892.33-.208 1.475-.435 2.233-.584 2.167-.429 5.135-1.015 6.955-3.515 1.808-2.485 1.455-5.477 1.197-7.66-.092-.782-.232-1.964-.142-2.31.148-.342.908-1.157 1.41-1.697 1.525-1.638 3.613-3.88 3.613-7.042s-2.088-5.404-3.613-7.041c-.502-.54-1.262-1.355-1.397-1.66-.103-.384.037-1.565.13-2.347.257-2.184.61-5.175-1.197-7.66-1.82-2.5-4.788-3.087-6.955-3.515-.758-.15-1.904-.376-2.205-.563-.291-.249-.848-1.25-1.216-1.913-1.08-1.944-2.56-4.605-5.532-5.57-2.89-.94-5.493.26-7.584 1.225-.69.318-1.846.85-2.247.864-.407-.014-1.563-.546-2.254-.864-2.09-.964-4.692-2.164-7.584-1.226-2.972.966-4.451 3.627-5.531 5.57-.369.663-.926 1.665-1.188 1.892-.33.208-1.475.435-2.233.584-2.167.429-5.135 1.015-6.955 3.516-1.808 2.484-1.455 5.475-1.198 7.66.093.781.232 1.963.143 2.309-.148.342-.908 1.157-1.41 1.698-1.525 1.637-3.613 3.879-3.613 7.041s2.088 5.404 3.612 7.041c.503.54 1.263 1.355 1.397 1.66.103.384-.036 1.565-.129 2.347-.257 2.184-.61 5.175 1.197 7.66 1.82 2.5 4.788 3.087 6.955 3.515.758.15 1.904.376 2.205.563.29.248.848 1.25 1.216 1.913 1.08 1.944 2.56 4.606 5.532 5.57 2.889.937 5.492-.261 7.584-1.225.69-.318 1.846-.85 2.247-.864.407.014 1.563.546 2.253.864 1.557.718 3.397 1.566 5.428 1.566.697 0 1.418-.1 2.157-.34zm-15.432-8.492c-.528.243-1.262.582-1.748.74-.314-.422-.73-1.17-1.028-1.706-.85-1.531-1.816-3.267-3.484-4.481-1.685-1.227-3.647-1.614-5.378-1.956-.595-.118-1.427-.282-1.921-.449-.005-.517.093-1.346.163-1.94.208-1.759.443-3.753-.204-5.747-.63-1.94-1.971-3.38-3.154-4.65-.418-.45-1.067-1.146-1.364-1.589.297-.443.946-1.14 1.364-1.59 1.183-1.27 2.524-2.709 3.154-4.65.647-1.993.412-3.987.204-5.746-.07-.594-.168-1.423-.163-1.94.494-.167 1.326-.332 1.922-.449 1.731-.342 3.693-.73 5.378-1.956 1.668-1.214 2.633-2.95 3.484-4.481.297-.536.713-1.284 1.028-1.707.485.159 1.22.497 1.747.74 1.626.75 3.47 1.599 5.598 1.599s3.973-.85 5.599-1.598c.527-.243 1.262-.582 1.748-.74.314.422.73 1.17 1.027 1.706.852 1.531 1.816 3.267 3.485 4.481 1.684 1.227 3.647 1.614 5.378 1.956.595.118 1.427.282 1.921.449.005.517-.093 1.346-.163 1.94-.208 1.759-.443 3.753.204 5.747.63 1.94 1.97 3.38 3.154 4.65.418.45 1.067 1.146 1.364 1.589-.297.443-.946 1.14-1.364 1.59-1.183 1.27-2.524 2.709-3.154 4.65-.647 1.993-.412 3.987-.204 5.746.07.594.168 1.423.163 1.94-.494.167-1.327.332-1.922.449-1.73.342-3.693.73-5.378 1.956-1.668 1.214-2.633 2.95-3.484 4.482-.297.535-.713 1.283-1.028 1.706-.485-.159-1.22-.497-1.747-.74-1.626-.75-3.47-1.599-5.599-1.599s-3.972.85-5.598 1.598m-1.51-44.563"/></svg>