<svg xmlns="http://www.w3.org/2000/svg" viewBox="0 0 192 192"><path d="M64 144H39.3c-1.653-4.653-6.087-8-11.3-8-6.617 0-12 5.383-12 12s5.383 12 12 12c5.213 0 9.647-3.347 11.3-8H72v-20h-8zm-36 8a4 4 0 1 1 0-8 4 4 0 0 1 0 8m72 .7V132h-8v20.7c-4.653 1.653-8 6.087-8 11.3 0 6.617 5.383 12 12 12s12-5.383 12-12c0-5.213-3.347-9.647-8-11.3M96 168a4 4 0 1 1 0-8 4 4 0 0 1 0 8m68-32c-5.213 0-9.647 3.347-11.3 8H128v-12h-8v20h32.7c1.653 4.653 6.087 8 11.3 8 6.617 0 12-5.383 12-12s-5.383-12-12-12m0 16a4 4 0 1 1 0-8 4 4 0 0 1 0 8M48 124h96c17.645 0 32-14.355 32-32 0-11.567-6.273-22.186-16.212-27.831.141-1.398.212-2.792.212-4.169 0-23.159-18.841-42-42-42-13.737 0-26.271 6.5-34.154 17.55A31.8 31.8 0 0 0 74 34c-15.634 0-28.883 11.39-31.517 26.483C27.39 63.117 16 76.366 16 92c0 17.645 14.355 32 32 32m-1.655-55.936 3.482-.237.237-3.482C50.917 51.815 61.431 42 74 42c3.399 0 6.691.702 9.787 2.087l3.234 1.447 1.827-3.035C95.064 32.167 105.963 26 118 26c18.748 0 34 15.252 34 34 0 1.896-.167 3.838-.499 5.772l-.522 3.056 2.828 1.268C162.43 73.964 168 82.562 168 92c0 13.234-10.766 24-24 24H48c-13.234 0-24-10.766-24-24 0-12.57 9.815-23.083 22.345-23.936"/></svg>