<svg xmlns="http://www.w3.org/2000/svg" viewBox="0 0 192 192"><path d="M64.59 48H40v-8h25.29a30.4 30.4 0 0 0-.7 8m58.31-7.72c2.7 2.17 4.99 4.79 6.79 7.72h14.653l-9.171 9.171 5.656 5.657 18.829-18.829-18.829-18.829-5.656 5.657 9.171 9.171H122.83c.03.09.05.19.07.28ZM55.657 88l9.171-9.171-5.656-5.657-18.829 18.829 18.829 18.829 5.656-5.657-9.171-9.171H72.29c.11-.5.25-.99.4-1.47-1.56-2.01-2.85-4.2-3.86-6.53H55.657Zm71.463 2.45c0 1.89-.2 3.75-.58 5.55H160v-8h-33c.08.82.12 1.63.12 2.45M168 24v88h8V24zM24 16h-8v104h8v-8h8V72h-8v-8h8V24h-8zm95.23 32c4.17 3.97 6.77 9.67 6.77 15.99 0 7.45-3.62 14.02-9.14 17.98.95 1.84 1.6 3.88 1.87 6.03.12.8.17 1.62.17 2.45 0 1.93-.29 3.8-.84 5.55-1.71 5.51-5.9 9.88-11.22 11.73-2.29 4.89-7.14 8.27-12.78 8.27-7.84 0-14.19-6.54-14.19-14.6 0-1.91.36-3.73 1.02-5.4.42-1.1.97-2.13 1.63-3.07-1.7-1.4-3.18-3.07-4.38-4.93-2.27-3.47-3.59-7.65-3.59-12.15 0-5.13 1.72-9.85 4.59-13.58-3.64-3.68-6-8.69-6.33-14.27-.03-.45-.04-.9-.04-1.35 0-2.32.35-4.56 1.01-6.65 2.73-8.84 10.78-15.25 20.28-15.25s17.55 6.41 20.29 15.25c.49 1.59.81 3.26.94 4.99 1.42.84 2.75 1.85 3.94 3.01m-1.45 15.99c0-4.93-2.55-9.5-6.67-11.93l-3.7-2.18-.14-1.88-.18-2.41c-.15-2.02-.72-3.91-1.62-5.59-2.25-4.2-6.56-7.03-11.41-7.03-4.9 0-9.18 2.84-11.41 7.03a14 14 0 0 0-1.59 8c.29 3.23 1.66 6.21 3.92 8.49l5.05 5.1-4.38 5.69c-1.89 2.46-2.89 5.42-2.89 8.57 0 4.21 1.82 8.13 4.99 10.75l1.7 1.4 4.13 3.41L90.39 96l-1.12 1.62a6.57 6.57 0 0 0-1.18 3.78c0 3.52 2.68 6.38 5.97 6.38 2.27 0 4.32-1.36 5.34-3.54l1.47-3.14 3.27-1.13c2.08-.72 3.8-2.14 4.95-3.97 1.02-1.6 1.6-3.52 1.6-5.55 0-.84-.1-1.66-.29-2.45s-.48-1.55-.85-2.29l-3.23-6.3 5.76-4.12c3.57-2.56 5.7-6.79 5.7-11.3m-9.4 79.82c2.37 4.74 4.82 9.65 4.82 14.99 0 7.95-7.51 17.2-17.2 17.2-11.45 0-17.2-11.03-17.2-17.2 0-8.07 2.62-13.2 4.94-17.72 2.07-4.05 3.86-7.54 3.86-13.08v-4h4c.52 0 1.03.07 1.51.2 5.37 1.37 8.35 10.02 9.95 17.48l2.84-2.83zm-3.18 14.99c0-2-.64-4.13-1.58-6.36l-6.17 6.17-1.02-8.11c-.6-4.81-1.57-9.07-2.59-12.32-.88 2.43-1.96 4.55-2.98 6.55-2.18 4.25-4.06 7.92-4.06 14.07 0 2.22 2.77 9.2 9.2 9.2 5.25 0 9.2-5.58 9.2-9.2"/></svg>