<svg xmlns="http://www.w3.org/2000/svg" xml:space="preserve" viewBox="0 0 192 192"><path d="m95.831 136.658 7.93 3.217c-1.607 3.936-3.16 6.153-5.878 8.148-2.937 2.22-6.598 3.327-10.866 3.327C75.43 151.35 68 143.423 68 131.058c0-12.141 7.706-20.567 18.85-20.567 4.88 0 8.981 1.44 11.976 4.212 1.885 1.83 2.993 3.437 4.49 6.875l-7.87 3.217c-1.888-5.102-4.382-7.153-8.65-7.153-6.1 0-9.537 4.769-9.537 13.252 0 8.536 3.494 13.306 9.758 13.306 4.381 0 6.986-2.273 8.814-7.542m50.864-5.875c0 12.141-7.928 20.567-19.349 20.567-11.31 0-19.127-8.315-19.127-20.346 0-11.977 8.094-20.513 19.461-20.513 11.087 0 19.015 8.482 19.015 20.292m-9.257.165c0-8.205-3.772-13.306-9.87-13.306-6.375 0-10.09 4.88-10.09 13.306 0 8.261 3.77 13.252 10.035 13.252 6.264 0 9.925-4.88 9.925-13.252m25.416 23.174c6.097-2.772 9.092-6.374 9.092-10.81 0-5.046-3.826-8.26-9.814-8.26-5.488 0-8.871 2.44-10.147 7.374l6.876 1.607c.499-2.052 1.275-2.94 2.772-2.94 1.386 0 2.162.944 2.162 2.608 0 3.381-3.381 6.485-11.642 10.699v5.6H172v-5.878zM46.526 124.005c-12.42 0-22.526-9.268-22.526-21.689C24 90.52 33.212 80.65 44.973 79.85l3.482-.237.237-3.482c.8-11.76 10.669-20.973 22.466-20.973 3.19 0 6.281.66 9.187 1.96l3.234 1.446 1.826-3.036C91.256 45.805 101.514 40 112.843 40c17.645 0 32 14.355 32 32 0 1.784-.158 3.612-.47 5.434l-.522 3.055 2.828 1.269c8.093 3.63 13.322 11.7 13.322 20.558 0 6.557-2.79 12.626-7.6 16.866 1.078 2.61 1.789 5.45 2.077 8.472C162.96 121.964 168 112.58 168 102.316c0-10.988-5.934-21.08-15.346-26.481.125-1.286.188-2.568.188-3.835 0-22.056-17.944-40-40-40-13.031 0-24.926 6.143-32.439 16.589a30.3 30.3 0 0 0-9.246-1.43c-14.863 0-27.468 10.791-30.04 25.118C26.793 74.848 16 87.452 16 102.317c0 16.832 13.694 29.688 30.526 29.688h14.486L61 123.997z"/></svg>