<svg xmlns="http://www.w3.org/2000/svg" viewBox="0 0 192 192"><path d="M176 116c0 16.29-12.237 29.765-28 31.741v-8.08c11.336-1.911 20-11.79 20-23.661 0-9.438-5.57-18.036-14.193-21.904l-2.828-1.268.522-3.056c.332-1.934.499-3.876.499-5.772 0-18.748-15.252-34-34-34-12.037 0-22.936 6.167-29.152 16.499l-1.827 3.035-3.234-1.447A23.8 23.8 0 0 0 74 66c-12.57 0-23.083 9.815-23.936 22.345l-.237 3.482-3.482.237C33.815 92.917 24 103.431 24 116c0 11.87 8.664 21.75 20 23.66v8.081C28.237 145.765 16 132.29 16 116c0-15.634 11.39-28.883 26.483-31.517C45.117 69.39 58.366 58 74 58c3.376 0 6.675.52 9.846 1.55C91.729 48.5 104.263 42 118 42c23.159 0 42 18.841 42 42 0 1.377-.07 2.771-.212 4.169C169.727 93.814 176 104.433 176 116m-92 40h8v-24h-8zm16 0h8v-24h-8zm40 4h-16v12H52v-56h72v12h16zm-24 0v-36H60v40h56zm16-24h-8v16h8zm-64 20h8v-24h-8z"/></svg>