<svg xmlns="http://www.w3.org/2000/svg" viewBox="0 0 192 192"><path d="M175.79 106.73C173.12 98.7 165.82 80 156 80H24.22C19.69 80 16 83.59 16 88v36c0 4.41 3.69 8 8.22 8h8.47c1.65 4.66 6.09 8 11.31 8s9.66-3.34 11.31-8h9.38c1.65 4.66 6.09 8 11.31 8s9.66-3.34 11.31-8h49.38c1.65 4.66 6.09 8 11.31 8s9.66-3.34 11.31-8H168c4.49 0 8-3.51 8-8v-16.65zM128 88c2.33 0 8.17 7.2 13.29 16h-30.84c-2.38-4.55-6.08-10.95-10.3-16zm-40 0c2.33 0 8.17 7.2 13.29 16H70.45c-2.38-4.55-6.08-10.95-10.3-16zm-63.78 0H48c2.33 0 8.17 7.2 13.29 16h-37.3l-.01-15.91c0-.01.07-.09.24-.09M44 132c-2.21 0-4-1.79-4-4s1.79-4 4-4 4 1.79 4 4-1.79 4-4 4m32 0c-2.21 0-4-1.79-4-4s1.79-4 4-4 4 1.79 4 4-1.79 4-4 4m60.69-8H87.31c-1.65-4.66-6.09-8-11.31-8s-9.66 3.34-11.31 8h-9.38c-1.65-4.66-6.09-8-11.31-8s-9.66 3.34-11.31 8h-8.47c-.13 0-.2-.05-.22-.04L23.99 112H144v4.69c-3.41 1.2-6.11 3.9-7.31 7.31m11.31 8c-2.21 0-4-1.79-4-4s1.79-4 4-4 4 1.79 4 4-1.79 4-4 4m19.99-8h-8.68c-1.2-3.41-3.9-6.11-7.31-7.31v-9.63l-.42-.85c-2.23-4.46-6.46-12.27-11.43-18.21H156c2 0 7.75 8.21 12 20.66z"/></svg>