<svg xmlns="http://www.w3.org/2000/svg" viewBox="0 0 192 192"><path d="m170.505 133.92 5.305 22.55-22.551 5.304-1.832-7.787 8.863-2.084c-8.147-4.522-14.27-10.302-18.243-17.244l6.944-3.974c3.357 5.867 8.726 10.779 15.982 14.653l-2.255-9.587zM27.027 145.337l2.255-9.587-7.787-1.832-5.305 22.552 22.551 5.303 1.832-7.787-8.863-2.084c8.147-4.522 14.27-10.302 18.243-17.244l-6.944-3.974c-3.357 5.867-8.726 10.779-15.982 14.653M100 161.051V136h-8v25.051l-6.79-6.79-5.657 5.657L96 176.365l16.447-16.447-5.657-5.657zM29.801 56.921l-2.255-9.587c7.256 3.874 12.625 8.786 15.982 14.653l6.944-3.974c-3.973-6.942-10.096-12.722-18.243-17.243l8.863-2.085-1.832-7.788-22.55 5.305 5.304 22.55 7.787-1.832zm135.653-9.587-2.255 9.586 7.787 1.832 5.305-22.55-22.551-5.305-1.832 7.788 8.863 2.085c-8.147 4.521-14.27 10.301-18.243 17.243l6.944 3.974c3.357-5.867 8.726-10.779 15.982-14.653M92 31.62V57h8V31.62l6.79 6.791 5.657-5.657L96 16.307 79.553 32.754l5.657 5.657 6.79-6.79zM92 76v-8H32v44c0 6.617 5.383 12 12 12h104c6.617 0 12-5.383 12-12V68h-60v8h52v36c0 2.206-1.794 4-4 4H44c-2.206 0-4-1.794-4-4V76z"/></svg>