<svg xmlns="http://www.w3.org/2000/svg" viewBox="0 0 192 192"><path d="M111.168 120.26c-2.58-12.302-9.746-24.821-20.176-35.252S68.042 67.412 55.74 64.832c-12.915-2.71-24.126-.103-31.569 7.34s-10.053 18.649-7.351 31.555c2.575 12.296 9.736 24.812 20.165 35.242 10.432 10.432 22.955 17.601 35.263 20.188 3.338.702 6.563 1.049 9.638 1.049 8.827 0 16.423-2.858 21.943-8.377 7.442-7.443 10.048-18.654 7.34-31.569zm-68.525 13.052C26.26 116.93 19.787 95.965 26.126 83.043c2.354 6.109 6.993 15.733 15.045 23.786 6.943 6.942 15.082 8.105 22.263 9.131 6.804.972 12.68 1.811 17.737 6.869 9.525 9.524 13.717 21.98 14.708 25.295-12.483 9.058-35.53 2.895-53.236-14.812m59.22 7.614c-2.358-6.11-6.995-15.715-15.034-23.755-6.943-6.942-15.082-8.105-22.263-9.131-6.804-.972-12.68-1.811-17.737-6.869-9.493-9.492-13.69-21.897-14.698-25.265 3.743-2.703 8.523-4.113 14.035-4.113 2.506 0 5.162.287 7.931.868 10.8 2.265 21.893 8.66 31.237 18.005 9.346 9.344 15.74 20.438 18.005 31.237 1.544 7.36 1.002 13.896-1.477 19.023zM136 32c-19.919 0-36.48 20.49-39.503 47.205q.076.073.151.147a92 92 0 0 1 7.357 8.312c.106-22.995 11.043-42.2 25.527-46.678C127.092 47.43 124 57.636 124 68c0 9.21 4.607 16.122 8.672 22.219C136.44 95.872 140 101.21 140 108c0 11.38-4.417 22.99-6.506 27.847-4.695-.557-9.217-2.689-13.32-6.236a45.4 45.4 0 0 1-.929 9.281C124.441 142.236 130.11 144 136 144c22.056 0 40-25.122 40-56s-17.944-56-40-56m6.468 103.014C144.908 128.57 148 118.364 148 108c0-9.21-4.607-16.122-8.672-22.219C135.56 80.128 132 74.79 132 68c0-11.373 4.412-22.977 6.503-27.84C154.98 42.085 168 62.798 168 88c0 23.144-10.977 42.514-25.532 47.014"/></svg>