<svg xmlns="http://www.w3.org/2000/svg" viewBox="0 0 192 192"><path d="m163.353 68.018.586-3.323a4 4 0 1 0-7.878-1.39L155.232 68h-7.876l.583-3.305a4 4 0 1 0-7.878-1.39L139.232 68h-7.876l.583-3.305a4 4 0 1 0-7.878-1.39L123.232 68h-7.876l.583-3.305a4 4 0 1 0-7.878-1.39L107.232 68h-7.876l.583-3.305a4 4 0 1 0-7.878-1.39L91.232 68h-7.876l.583-3.305a4 4 0 1 0-7.878-1.39L75.232 68h-7.876l.583-3.305a4 4 0 1 0-7.878-1.39L59.232 68H40v-4a4 4 0 0 0-8 0v4h-3c-7.168 0-13 5.832-13 13v34c0 7.168 5.832 13 13 13h3v20a4 4 0 0 0 8 0v-20h8.644l-.583 3.305a4 4 0 1 0 7.878 1.39l.829-4.695h7.876l-.583 3.305a4 4 0 1 0 7.878 1.39l.829-4.695h7.876l-.583 3.305a4 4 0 1 0 7.878 1.39l.829-4.695h7.876l-.583 3.305a4 4 0 1 0 7.878 1.39l.829-4.695h7.876l-.583 3.305a4 4 0 1 0 7.878 1.39l.829-4.695h7.876l-.583 3.305a4 4 0 1 0 7.878 1.39l.829-4.695h7.876l-.583 3.305a4 4 0 1 0 7.878 1.39l.829-4.695H156v20a4 4 0 0 0 8 0v-20.05c6.701-.514 12-6.12 12-12.95V81c0-7.05-5.643-12.793-12.647-12.982M29 120c-2.757 0-5-2.243-5-5V81c0-2.757 2.243-5 5-5h3v44zm11 0V76h17.82l-7.764 44zm18.18 0 7.764-44h7.877l-7.765 44h-7.877zm16 0 7.764-44h7.877l-7.765 44h-7.877zm16 0 7.764-44h7.877l-7.765 44h-7.877zm16 0 7.764-44h7.877l-7.765 44h-7.877zm16 0 7.764-44h7.877l-7.765 44zm16 0 7.764-44h7.877l-7.765 44zm29.82-5c0 2.757-2.243 5-5 5h-8.82l7.764-44H163c2.757 0 5 2.243 5 5z"/></svg>