<svg xmlns="http://www.w3.org/2000/svg" viewBox="0 0 192 192"><path d="M160 36v36h-54.44a47.8 47.8 0 0 0-5.81-8H152V44H24v20h4.25c-2.2 2.45-4.15 5.13-5.81 8H16V36zm-54.46 88c1.51 2.15 2.46 4.77 2.46 8h44v20h-44.54c-1 3.49-3.28 6.07-6 8H160v-36zm3.72-44a47 47 0 0 1 2.07 8H168v20h-57.51c-.72 2.77-1.68 5.45-2.85 8H176V80zM84 92H68V72h-8v28h24zm19.2-4c-.57-2.78-1.42-5.46-2.54-8a39.7 39.7 0 0 0-4.68-8c-.32-.42-.64-.84-.98-1.25C87.66 61.75 76.49 56 64 56c-10.4 0-19.88 3.98-27 10.51A40 40 0 0 0 32.02 72C26.98 78.69 24 87 24 96c0 6.72 1.66 13.05 4.6 18.61.02 0 .04-.01.06-.01 2.56-.54 5.38-1 8.38-1.38A31.77 31.77 0 0 1 32 96c0-17.65 14.35-32 32-32s32 14.35 32 32c0 7.16-2.36 13.77-6.35 19.11 2.21.53 5.08 1.34 7.9 2.65A39.73 39.73 0 0 0 104 96c0-2.74-.28-5.42-.8-8m-4.16 40.78c.61.94.96 2 .96 3.22v16c0 1.56-.58 2.88-1.54 4-2.66 3.08-8.26 4.62-12.77 5.57-2.34.5-4.93.92-7.69 1.27-6 .76-12.86 1.16-20 1.16-10.42 0-20.25-.86-27.69-2.43C24.16 156.28 16 153.88 16 148v-16c0-4.23 4.23-6.66 8.9-8.17 1.81-.59 3.69-1.04 5.41-1.4 1.01-.22 2.07-.42 3.17-.6 3.07-.53 6.46-.94 10.06-1.24 4.55-.39 9.43-.59 14.46-.59 9.13 0 17.8.66 24.81 1.87 1 .18 1.96.36 2.88.56 1.88.4 3.95.9 5.92 1.57.23.08.47.16.69.24 2.86 1.05 5.42 2.49 6.74 4.54m-68.34 1.77c-2.09.48-3.73.98-4.93 1.45 1.94.76 5.08 1.6 9.34 2.32C40.8 135.27 48.49 136 58 136c1.35 0 2.67-.01 3.94-.05q.015.015.03 0c2.72-.05 5.28-.17 7.65-.34 10.23-.71 17.24-2.28 20.61-3.61-.82-.32-1.86-.66-3.1-.99-.8-.22-1.69-.44-2.67-.65C78.6 129.09 69.67 128 58 128c-6.45 0-12.07.34-16.79.85-4.24.46-7.76 1.06-10.51 1.7m36.2 21.23c11.7-.61 19.64-2.35 23.31-3.78.8-.31 1.4-.61 1.79-.88v-7.26c-1.81.64-3.73 1.14-5.52 1.54h-.01c-.27.06-.52.12-.78.17-4.37.92-9.55 1.6-15.21 1.99a48 48 0 0 1-8.45.4h-.15a190 190 0 0 1-8.68-.02q-1.335-.03-2.64-.09c-7.6-.3-14.61-1.09-20.25-2.28-.26-.05-.51-.11-.78-.17h-.01c-1.79-.4-3.71-.9-5.52-1.54v7.26c.39.27.99.57 1.79.88 3.67 1.43 11.61 3.17 23.31 3.78.38.02.76.04 1.14.05.39.02.79.03 1.2.05.42.01.84.03 1.27.04 1.05.03 2.13.06 3.24.07.67.01 1.36.01 2.05.01s1.38 0 2.05-.01c1.09-.01 2.17-.03 3.24-.07.43-.01.85-.03 1.27-.04.41-.02.81-.03 1.2-.05.38-.01.76-.03 1.14-.05"/></svg>