<svg xmlns="http://www.w3.org/2000/svg" viewBox="0 0 192 192"><path d="M96 16c-44.112 0-80 35.888-80 80s35.888 80 80 80 80-35.888 80-80-35.888-80-80-80m0 152c-39.701 0-72-32.299-72-72s32.299-72 72-72 72 32.299 72 72-32.299 72-72 72m33.171-110.829-13.565 13.566C110.186 66.52 103.384 64 96 64s-14.185 2.52-19.606 6.737L62.829 57.17l-5.659 5.66 13.566 13.565C66.52 81.814 64 88.616 64 96s2.52 14.185 6.737 19.606L57.17 129.171l5.658 5.658 13.565-13.566C81.814 125.48 88.616 128 96 128s14.185-2.52 19.606-6.737l13.565 13.566 5.658-5.658-13.566-13.565C125.48 110.186 128 103.384 128 96s-2.52-14.185-6.737-19.606l13.566-13.565zM96 120c-13.234 0-24-10.766-24-24s10.766-24 24-24 24 10.766 24 24-10.766 24-24 24"/></svg>