<svg xmlns="http://www.w3.org/2000/svg" xml:space="preserve" viewBox="0 0 192 192"><path d="M96 176c-44.112 0-80-35.888-80-80s35.888-80 80-80 80 35.888 80 80-35.888 80-80 80m0-152c-39.701 0-72 32.299-72 72s32.299 72 72 72 72-32.299 72-72-32.299-72-72-72m-1.941 101.367c-10.549-.76-18.228-6.666-20.928-16.118l8.017-2.448c2.109 7.005 6.075 10.465 12.91 11.309V97.097c-5.99-1.435-9.029-2.616-11.898-4.473-4.304-2.784-6.498-7.088-6.498-12.489 0-5.232 1.941-9.283 5.823-12.32 3.46-2.701 6.582-3.798 12.574-4.39V56h5.485v7.51c8.608.929 14.262 5.232 17.722 13.334l-7.511 2.869c-2.447-5.57-5.4-8.186-10.211-9.03v19.24c6.498 1.52 9.536 2.617 12.574 4.558 4.557 2.87 6.751 7.258 6.751 13.418 0 4.472-1.435 8.186-4.135 11.14-3.544 3.712-7.68 5.4-15.19 6.244V136h-5.485zm0-54.937c-6.92.76-10.127 3.544-10.127 8.86 0 5.233 2.279 7.343 10.127 9.453zm5.485 47.68c7.257-.929 10.886-4.22 10.886-9.705 0-5.57-2.616-8.017-10.886-10.211z"/></svg>