<svg xmlns="http://www.w3.org/2000/svg" xml:space="preserve" viewBox="0 0 192 192"><path d="M66 106c-7.72 0-14 6.28-14 14s6.28 14 14 14 14-6.28 14-14-6.28-14-14-14m0 20c-3.309 0-6-2.691-6-6s2.691-6 6-6 6 2.691 6 6-2.691 6-6 6m-6-34c0-7.72-6.28-14-14-14s-14 6.28-14 14 6.28 14 14 14 14-6.28 14-14m-14 6c-3.309 0-6-2.691-6-6s2.691-6 6-6 6 2.691 6 6-2.691 6-6 6m54 0c-7.72 0-14 6.28-14 14s6.28 14 14 14 14-6.28 14-14-6.28-14-14-14m0 20c-3.309 0-6-2.691-6-6s2.691-6 6-6 6 2.691 6 6-2.691 6-6 6m10.414-34.81c-.698.53-1.533.81-2.414.81-2.206 0-4-1.794-4-4 0-1.227.544-2.356 1.498-3.121l.154-.117C109.686 73.707 112 69.055 112 64a16.05 16.05 0 0 0-9.325-14.544l-.29-.125A68.5 68.5 0 0 0 76 44c-33.084 0-60 23.327-60 52s26.916 52 60 52 60-23.327 60-52c0-8.822-7.178-16-16-16-3.469 0-6.77 1.092-9.546 3.159zM76 140c-28.673 0-52-19.738-52-44s23.327-44 52-44a60.5 60.5 0 0 1 23.278 4.703l.109.046A8.03 8.03 0 0 1 104 64a7.95 7.95 0 0 1-3.102 6.326l-.053.04A12.06 12.06 0 0 0 96 80c0 6.617 5.383 12 12 12 2.643 0 5.15-.843 7.251-2.438A7.92 7.92 0 0 1 120 88c4.411 0 8 3.589 8 8 0 24.262-23.327 44-52 44m100-78c0-3.245-.815-6.42-2.24-8.729-1.514-2.598-8.301-14.28-8.302-14.28L162 33.038l-3.458 5.953s-6.79 11.684-8.303 14.28C148.815 55.58 148 58.756 148 62c0 4.87 2.503 9.163 6.287 11.672L150 87.39V148c0 6.617 5.383 12 12 12s12-5.383 12-12V87.39l-4.287-13.718C173.497 71.163 176 66.87 176 62m-18.941-4.546.063-.105c.75-1.286 2.934-5.042 4.878-8.388 1.944 3.346 4.127 7.101 4.878 8.388l.063.105c.489.781 1.059 2.44 1.059 4.546 0 3.309-2.691 6-6 6s-6-2.691-6-6c0-2.104.547-3.728 1.059-4.546M162 152c-2.206 0-4-1.794-4-4V92.025l8-.017V148c0 2.206-1.794 4-4 4m2.563-67.989-5.129.01 2.508-8.024q.029.001.058.003c.029.002.039-.003.058-.003z"/></svg>