<svg xmlns="http://www.w3.org/2000/svg" viewBox="0 0 192 192"><path d="M72 100a4 4 0 1 1-8.001 0 4 4 0 0 1 8 0zm52-4a4 4 0 1 0 0 8 4 4 0 0 0 0-8m-28 52a4 4 0 1 0 0 8 4 4 0 0 0 0-8m21.883-30c0 12.13-9.87 22-22 22s-22-9.87-22-22 9.869-22 22-22 22 9.87 22 22m-8 0c0-7.72-6.28-14-14-14s-14 6.28-14 14 6.28 14 14 14 14-6.28 14-14M116 68V48h-6.403l-2.205-3.998h-23.22l-2.203 4L76 48v20zm-8-49.932L104.333 16H87.636L84 18.068V36h24zm-84.854 121.24 3.667 6.353-3.1 4.335 11.609 20.109 5.305-.518 3.641 6.307 17.264-9.968-21.123-36.585-17.263 9.968zm101.538 23.608-6.745-3.957L110.292 172H81.709l-7.82-13.327-6.638 3.91-21.44-36.399 6.7-3.946-11.695-19.931L53.69 80H76v-8h40v8h22.409l12.255 23.155-11.354 19.362 6.753 3.962zm16.822-59.96L133.59 88H58.31l-8.238 14.273L86.29 164l19.418.001zm27.056 36.54-17.263-9.968-21.123 36.585 17.264 9.968 3.667-6.352 5.306.517 11.61-20.108-3.102-4.336 3.641-6.307z"/></svg>