<svg xmlns="http://www.w3.org/2000/svg" viewBox="0 0 192 192"><path d="m168.492 40.48 5.657-5.657-5.656-5.657-5.658 5.656-12.728-12.728-16.97 16.97-5.022-5.021-67.882 67.882a8 8 0 0 0 0 11.314l.779.78-22.627 22.627a7.98 7.98 0 0 0-2.291 6.533L24.95 154.323l3.535 3.536-11.423 11.423.011.01a3.99 3.99 0 0 0 .098 5.537 3.99 3.99 0 0 0 5.537.099l.011.011 11.423-11.423 3.535 3.535 11.145-11.144q.437.05.876.052a7.98 7.98 0 0 0 5.657-2.343l22.628-22.627.78.78a7.98 7.98 0 0 0 5.656 2.343 7.98 7.98 0 0 0 5.657-2.344l32.527-32.527 16.19 16.192 11.314-11.314-16.19-16.191 24.041-24.042-5.022-5.022 16.97-16.97-1.414-1.415zm-21.848 23.406-15.556 15.556-18.53-18.53 15.557-15.555 9.265 9.264zm-96.946 84.073-5.657-5.656 22.628-22.628 5.657 5.657zm34.72-21.848-.779-.779-8.485-8.485-9.265-9.265 41.012-41.012 18.53 18.53-41.012 41.011zm62.861-72.904-4.243-4.243-4.242-4.242 11.313-11.314 8.486 8.485zm9.9-24.041-5.658-5.658 5.657-5.656 5.657 5.657zM89.296 108.36a4 4 0 1 1-5.657-5.657 4 4 0 0 1 5.657 5.657"/></svg>