<svg xmlns="http://www.w3.org/2000/svg" viewBox="0 0 192 192"><path d="m112.28 44.444 4.076-6.883a39.9 39.9 0 0 1 11.348 10.102l-5.729 5.71a32 32 0 0 0-9.695-8.929m26.876-8.195 5.695-5.676c-4.42-5.185-9.72-9.713-15.786-13.38l-4.138 6.847a56.5 56.5 0 0 1 14.229 12.209m-13.218 47.046a32 32 0 0 1-12.163 15.318l4.45 6.649a39.95 39.95 0 0 0 17.735-31.955zm31.023-30.921-6.5 6.479A56.7 56.7 0 0 1 152 72c0 19.782-10.12 37.71-27.07 47.959l4.14 6.845C148.436 115.094 160 94.607 160 72a64.5 64.5 0 0 0-3.039-19.626M92 176h8v-66.852l-8 7.974zM40 72c0-19.501 9.902-37.296 26.49-47.603l-4.223-6.795C43.315 29.378 32 49.714 32 72c0 19.072 8.23 36.636 22.433 48.694l5.695-5.676C47.398 104.456 40 88.908 40 72m56-12c-6.627 0-12 5.373-12 12 0 5.208 3.325 9.628 7.962 11.288l15.34-15.29C105.652 63.342 101.222 60 96 60M79.114 44.812l-4.228-6.791C63.06 45.383 56 58.085 56 72a39.94 39.94 0 0 0 15.54 31.644l5.73-5.713C68.946 91.911 64 82.311 64 72c0-11.132 5.65-21.296 15.114-27.188M175.3 22.8l-5.6-5.7-152.5 152 5.6 5.7z"/></svg>