<svg xmlns="http://www.w3.org/2000/svg" viewBox="0 0 192 192"><path d="m167.664 65.593 8.485-8.485-14.142-14.143-2.828-2.828 5.657-5.657-11.314-11.313-5.657 5.656-2.828-2.828-11.314 11.314-2.829-2.829-2.828 2.829-25.456 25.456 5.657 5.656-5.657 5.657-2.828-2.828-48.084 48.083 2.829 2.828-22.682 22.679 2.83 2.83-13.504 13.503a4 4 0 1 0 5.657 5.657l13.504-13.503 2.827 2.826 22.682-22.678 2.828 2.829 48.083-48.084-2.828-2.828 5.657-5.657 8.264 8.264L152 88v-8h12v-8h-12v-4.686l-4.583-4.102.448-.448 5.657-5.656-2.829-2.829 2.829-2.828zM68.669 124.99l-5.657-5.657 36.77-36.77 5.657 5.657zM144 80l-12.841-.001-17.235-17.234 14.142-14.143 11.314 11.314-3.599 3.599L144 70.89z"/></svg>