<svg xmlns="http://www.w3.org/2000/svg" viewBox="0 0 192 192"><path d="m146.176 55.723 6.174-6.174-11.314-11.314-8.485 8.486-5.657-5.657 8.486-8.486-5.657-5.656-8.486 8.485-5.656 5.657-11.649 11.648 9.193 9.192-73.3 73.205 2.876 2.876-16.923 16.923 2.828 2.828-11.435 11.435a4 4 0 0 0 5.657 5.657l11.435-11.435 2.829 2.829 16.922-16.923 2.78 2.78 26.967-26.87 5.657-5.657 40.677-40.677c1.562 1.562 3.61 2.343 5.657 2.343s4.095-.78 5.657-2.343l9.469-9.469 19.659 5.268 3.105-11.591zM56.89 140.766l-5.657-5.657 21.213-21.213 5.657 5.657zm26.87-26.87-5.657-5.657 40.585-40.585 5.657 5.657-40.585 40.584zm51.99-40.678-20.505-20.506 5.991-5.991 20.005 20.004-.025.093.16.043.367.366-5.992 5.991z"/></svg>