<svg xmlns="http://www.w3.org/2000/svg" viewBox="0 0 192 192"><path d="M140 160c-11.028 0-20-8.972-20-20v-12H72v12c0 11.028-8.972 20-20 20s-20-8.972-20-20 8.972-20 20-20h12V72H52c-11.028 0-20-8.972-20-20s8.972-20 20-20 20 8.972 20 20v12h48V52c0-11.028 8.972-20 20-20s20 8.972 20 20-8.972 20-20 20h-12v48h12c11.028 0 20 8.972 20 20s-8.972 20-20 20m-12-32v12c0 6.617 5.383 12 12 12s12-5.383 12-12-5.383-12-12-12zm-76 0c-6.617 0-12 5.383-12 12s5.383 12 12 12 12-5.383 12-12v-12zm20-8h48V72H72zm56-56h12c6.617 0 12-5.383 12-12s-5.383-12-12-12-12 5.383-12 12zM52 40c-6.617 0-12 5.383-12 12s5.383 12 12 12h12V52c0-6.617-5.383-12-12-12"/></svg>