<svg xmlns="http://www.w3.org/2000/svg" viewBox="0 0 192 192"><path d="M72 100a4 4 0 1 1-8 0 4 4 0 0 1 8 0m51.999-3.999a4 4 0 1 0 0 8 4 4 0 0 0 0-8m-27.999 52a4 4 0 1 0 0 8 4 4 0 0 0 0-8M117.883 118c0 12.131-9.869 22-22 22s-22-9.869-22-22 9.869-22 22-22 22 9.869 22 22m-8 0c0-7.72-6.28-14-14-14s-14 6.28-14 14 6.28 14 14 14 14-6.28 14-14m6.118-50V47.999h-6.403l-2.204-3.998H84.175l-2.204 4-5.969-.002v19.999l40 .002ZM108 18.068 104.334 16H87.636L84 18.068v17.933h24zM23.147 139.309l3.667 6.352-3.101 4.336 11.61 20.109 5.305-.518 3.641 6.307 17.264-9.967-21.122-36.585-17.264 9.967Zm101.538 23.607-6.745-3.957-7.648 13.042H81.709l-7.82-13.328-6.638 3.91-21.441-36.399 6.7-3.947-11.695-19.931L53.69 79.999h22.309v-8H116v8h22.408l12.255 23.155-11.354 19.362 6.753 3.962-21.377 36.437Zm16.822-59.96L133.591 88H58.31l-8.238 14.273L86.291 164h19.418zm27.056 36.539-17.264-9.967-21.122 36.585 17.264 9.967 3.667-6.352 5.305.518 11.61-20.109-3.101-4.336 3.641-6.307ZM40.427 75.301h-8.648V36.699h16.427q7.014 0 10.679 3.744 3.19 3.27 3.19 8.78 0 6.012-4.034 9.176-3.534 2.769-9.466 2.769h-8.147zm0-20.567h7.225q3.137 0 4.667-1.661 1.345-1.45 1.345-4.008 0-5.511-5.959-5.511h-7.277z"/></svg>