<svg xmlns="http://www.w3.org/2000/svg" viewBox="0 0 192 192"><path d="M81.457 168H40v8l-15.998.001V168H16V16h96v60.668l-8 2.4V24H24v136h35.943zM32 92h8v-8h-8zm64-15.999H32V32h64zM88 60H40v8.001h48zm0-20H40v12h48zm86.332 77.775L160 123.508v32.4l-44 16.36-44-16.36v-32.4l-14.332-5.733L73.59 96.547 116 83.824l42.41 12.723zm-71.693 9.372 7.03-9.372-32.308-12.923-7.03 9.373zM112 128l-6.64 8.853L80 126.708v23.639l32 11.898zm4-16.308 27.88-11.152L116 92.176l-27.88 8.364zm36 15.016-25.36 10.145L120 128v34.245l32-11.898zm9.668-12.483-7.029-9.373-32.307 12.923 7.029 9.372zM60.001 88A4 4 0 1 0 68 88a4 4 0 0 0-8 0z"/></svg>