<svg xmlns="http://www.w3.org/2000/svg" viewBox="0 0 192 192"><path d="M144.5 113q-.792 0-1.578.04l-.017.001c-.568.028-1.131.075-1.692.133l-.26.03h-.004a31 31 0 0 0-1.574.217h-.001q-.54.088-1.078.193l-.177.038q-.645.133-1.285.292-.319.081-.636.17-.387.104-.77.219a31 31 0 0 0-2.319.801l-.049.017q-.09.034-.183.069l-3.22-3.22L101 83.343l-12-12-12.22-12.22c.025-.06.045-.123.069-.183l.017-.048q.291-.747.542-1.505.135-.406.26-.814.114-.384.218-.77v-.001q.089-.317.17-.636.16-.64.292-1.285l.038-.176q.105-.537.192-1.079v-.001l.045-.266a31 31 0 0 0 .173-1.311l.03-.26a32 32 0 0 0 .133-1.693l.001-.017q.04-.786.04-1.578C79 30.13 64.87 16 47.5 16q-.769 0-1.529.039c-.182.008-.363.025-.545.036q-.48.03-.96.073-.34.035-.68.077-.398.045-.792.101-.389.057-.774.123a32 32 0 0 0-1.526.296q-.26.06-.518.12-.486.116-.969.246-.181.05-.363.103a31 31 0 0 0-1.086.33l-.18.06q-.613.202-1.218.43l-.018.006a31.4 31.4 0 0 0-5.336 2.623l18.165 18.166c2.852 2.851 2.852 7.49 0 10.342s-7.49 2.852-10.342 0L20.663 31.006a31.4 31.4 0 0 0-2.627 5.348l-.002.005c-.151.4-.29.801-.425 1.204l-.068.2q-.171.533-.324 1.07-.055.19-.108.38a31 31 0 0 0-.365 1.487 31 31 0 0 0-.52 3.09c-.026.225-.054.45-.075.676q-.044.479-.074.962c-.011.181-.028.361-.036.543A32 32 0 0 0 16 47.5C16 64.87 30.13 79 47.5 79q.792 0 1.578-.04l.017-.001a32 32 0 0 0 1.692-.133l.26-.03h.004a31 31 0 0 0 1.574-.217h.001q.54-.088 1.078-.193l.177-.038q.645-.133 1.285-.292.319-.081.636-.17.387-.103.77-.219a31 31 0 0 0 2.319-.801l.049-.017q.09-.034.183-.069L93.343 111l9.657 9.657 9.067 9.067 3.153 3.153c-.025.06-.045.123-.069.183l-.017.048q-.291.747-.542 1.505-.135.405-.26.814-.114.384-.218.77v.001q-.089.317-.17.636a31 31 0 0 0-.292 1.285l-.038.176q-.105.537-.192 1.079v.001l-.045.266a31 31 0 0 0-.173 1.311l-.03.26a32 32 0 0 0-.133 1.693l-.001.018q-.04.785-.04 1.577c0 17.37 14.13 31.5 31.5 31.5q.769 0 1.529-.039c.182-.008.363-.025.545-.036q.48-.03.96-.073.34-.035.68-.077.398-.045.792-.101.388-.057.774-.123a32 32 0 0 0 1.526-.296q.26-.06.518-.12.486-.115.969-.246.182-.05.363-.103a31 31 0 0 0 1.086-.33l.18-.06q.613-.202 1.218-.43l.018-.006a31.4 31.4 0 0 0 5.336-2.623l-18.165-18.166c-2.852-2.851-2.852-7.49 0-10.342s7.49-2.852 10.342 0l18.166 18.165a31.4 31.4 0 0 0 2.627-5.348l.002-.005c.151-.4.29-.801.425-1.204l.068-.2q.171-.533.324-1.07.055-.19.107-.38a31 31 0 0 0 .366-1.487 31 31 0 0 0 .52-3.09c.026-.225.054-.45.075-.676.031-.319.053-.64.074-.962.011-.181.028-.361.036-.543q.038-.76.039-1.529c0-17.37-14.13-31.5-31.5-31.5m23.434 33.277-9.105-9.106c-2.893-2.892-6.739-4.485-10.829-4.485s-7.936 1.593-10.829 4.485c-2.892 2.893-4.485 6.739-4.485 10.829s1.593 7.936 4.485 10.829l9.106 9.105a24 24 0 0 1-1.777.066c-12.958 0-23.5-10.542-23.5-23.5 0-3.75.864-7.342 2.567-10.675l1.324-2.591-12.06-12.06L60.767 67.11l-2.591 1.324A23.24 23.24 0 0 1 47.5 71C34.542 71 24 60.458 24 47.5q0-.893.066-1.777l9.105 9.106C36.064 57.72 39.91 59.314 44 59.314s7.936-1.593 10.829-4.485C57.72 51.936 59.314 48.09 59.314 44s-1.593-7.936-4.485-10.829l-9.106-9.105A24 24 0 0 1 47.5 24C60.458 24 71 34.542 71 47.5c0 3.75-.864 7.342-2.567 10.675l-1.324 2.591L101 94.657l.372.372 17.772 17.772 12.09 12.09 2.591-1.324A23.24 23.24 0 0 1 144.5 121c12.958 0 23.5 10.542 23.5 23.5q0 .893-.066 1.777"/></svg>