<svg xmlns="http://www.w3.org/2000/svg" viewBox="0 0 192 192"><path d="M116 112H76v-8h40zm60.563 2.235-4.782 19.162-.197.395c-.209.416-5.232 10.208-15.577 10.208H36c-10.354 0-15.37-9.794-15.578-10.211l-.196-.393-4.79-19.16 39.353-26.237H84V48h24v40h29.219zM92 56v16h8V56zm0 32h8v-8h-8zm75.437 29.766L134.796 96H57.21l-32.647 21.765 3.188 12.751C28.468 131.71 31.363 136 36 136h120.007c4.617 0 7.513-4.263 8.25-5.489zM64 128h64v-8H64zM39.172 49.173a4 4 0 1 0 5.657 5.657 4 4 0 0 0-5.657-5.657M61.8 32.203l5.658-5.658c-14.037-14.034-36.875-14.036-50.913 0l5.657 5.658c10.918-10.918 28.682-10.918 39.598 0m-5.656 5.656c-3.778-3.777-8.8-5.858-14.143-5.858s-10.364 2.081-14.142 5.859l5.658 5.656A11.92 11.92 0 0 1 42 40.001a11.92 11.92 0 0 1 8.486 3.516z"/></svg>