<svg xmlns="http://www.w3.org/2000/svg" viewBox="0 0 192 192"><path d="m162.829 34.829-5.658-5.658-15.27 15.271C135.164 38.975 126.826 36 118.03 36c-10.143 0-19.678 3.95-26.855 11.127l-7.181 7.21-5.166-5.166-5.658 5.658L88.343 70 75.17 83.171l5.658 5.658L94 75.657 116.343 98l-13.172 13.171 5.658 5.658L122 103.657l15.171 15.172 5.658-5.658-5.166-5.166 7.216-7.187C152.05 93.647 156 84.112 156 73.97c0-8.796-2.975-17.134-8.442-23.87l15.27-15.271zm-23.601 60.327-7.222 7.193L89.65 59.994l7.188-7.216c5.66-5.66 13.186-8.778 21.191-8.778s15.532 3.118 21.192 8.778S148 65.964 148 73.97s-3.118 15.531-8.772 21.186M49.17 78.829l5.166 5.166-7.216 7.187C39.95 98.353 36 107.888 36 118.03c0 8.796 2.975 17.134 8.442 23.87l-15.27 15.271 5.657 5.658 15.27-15.271C56.836 153.025 65.174 156 73.97 156c10.143 0 19.678-3.95 26.855-11.127l7.181-7.21 5.166 5.166 5.658-5.658-64-64-5.658 5.658zm45.99 60.393C89.501 144.882 81.975 148 73.97 148s-15.532-3.118-21.192-8.778S44 126.036 44 118.03s3.118-15.531 8.772-21.186l7.222-7.193 42.355 42.355z"/></svg>