<svg xmlns="http://www.w3.org/2000/svg" viewBox="0 0 192 192"><path d="M55.768 153.235c1.07 7.684-2.382 15.629-9.435 19.885a19.9 19.9 0 0 1-10.301 2.873c-.967 0-1.928-.078-2.88-.216zm55.196-88.887-10.347 10.313 2.596-12.329c-11.279-4.43-17.64-16.792-14.34-28.725 3.527-12.753 16.773-20.259 29.525-16.734 10.417 2.881 17.33 12.246 17.594 22.53l-24.66 24.578zm-3.225-8.927c8.504 2.354 17.331-2.653 19.682-11.155s-2.653-17.33-11.155-19.682c-8.5-2.351-17.331 2.654-19.682 11.155-2.351 8.502 2.653 17.331 11.155 19.682m67.787 80.45c-1.812 7.266-8.355 12.13-15.526 12.13-1.279 0-2.576-.154-3.871-.477-7.226-1.802-12.058-8.286-12.11-15.411l-22.143-5.556c-4.404 10.693-14.826 17.319-25.905 17.32-3.14 0-6.33-.531-9.45-1.651a27.86 27.86 0 0 1-11.198-7.438l-.501-.544 5.71-5.691a19.85 19.85 0 0 0 8.692 6.143c10.378 3.723 21.86-1.661 25.596-12.008a19.75 19.75 0 0 0-.714-15.213 19.85 19.85 0 0 0-5.451-6.953l5.7-5.682a27.8 27.8 0 0 1 6.99 9.227c2.198 4.67 3.042 9.737 2.516 14.74l22.099 5.545a15.9 15.9 0 0 1 5.801-6.07 15.9 15.9 0 0 1 12.113-1.808 15.9 15.9 0 0 1 9.844 7.285 15.9 15.9 0 0 1 1.808 12.113zm-8.666-7.993a7.95 7.95 0 0 0-4.923-3.643c-2.072-.516-4.224-.195-6.056.905s-3.126 2.849-3.643 4.923v-.001c-1.068 4.28 1.546 8.632 5.827 9.7 4.282 1.065 8.632-1.546 9.7-5.827a7.95 7.95 0 0 0-.905-6.057M21.718 78.001c-3.74-3.814-5.77-8.857-5.717-14.2s2.183-10.343 5.998-14.083c3.814-3.74 8.848-5.738 14.2-5.717 5.341.053 10.343 2.183 14.083 5.998s5.77 8.857 5.717 14.2a19.85 19.85 0 0 1-2.943 10.215l23.265 21.66a28.1 28.1 0 0 1 8.596-5.765L70.31 104.87c.354-.817.732-1.618 1.155-2.386L47.603 80.268A19.83 19.83 0 0 1 36.005 84l-.203-.001a19.87 19.87 0 0 1-14.084-5.998M24 63.881a11.92 11.92 0 0 0 3.431 8.52A11.92 11.92 0 0 0 36.003 76a11.92 11.92 0 0 0 8.398-3.431 11.92 11.92 0 0 0 3.598-8.45 11.92 11.92 0 0 0-3.43-8.52A11.92 11.92 0 0 0 36.119 52h-.122a11.92 11.92 0 0 0-8.398 3.431A11.92 11.92 0 0 0 24 63.881M169.7 17.1l-152.5 152 5.6 5.7 152.5-152zM25.664 138.877c-7.062 4.263-10.542 12.229-9.464 19.924l22.641-22.567c-4.414-.646-9.066.161-13.177 2.643"/></svg>