<svg xmlns="http://www.w3.org/2000/svg" viewBox="0 0 192 192"><path d="M159.206 100.325c-7.192-1.473-14.25 2.16-17.443 8.399l-22.064-4.955a23.8 23.8 0 0 0-1.989-13.988 23.8 23.8 0 0 0-10.292-10.857l3.544-14.956c.345.015.69.035 1.033.035 10.52 0 20.2-6.983 23.137-17.605 3.527-12.753-3.98-25.998-16.734-29.525-12.752-3.525-25.998 3.98-29.525 16.734-3.292 11.906 3.033 24.237 14.263 28.693l-3.32 14.01a23.83 23.83 0 0 0-14.035 1.98 24 24 0 0 0-7.401 5.417L57.612 69.55A19.9 19.9 0 0 0 60 60.26c.052-5.342-1.978-10.385-5.718-14.2s-8.741-5.944-14.083-5.997c-5.351-.045-10.385 1.978-14.2 5.717s-5.944 8.742-5.998 14.084c-.052 5.342 1.978 10.385 5.718 14.2s8.741 5.944 14.083 5.997l.204.001a19.84 19.84 0 0 0 12.443-4.35l21.579 14.71c-.209.48-.426.956-.605 1.453a23.84 23.84 0 0 0-1.195 11.315l-20.19 8.862a19.84 19.84 0 0 0-11.24-7.468 19.86 19.86 0 0 0-15.133 2.293c-9.44 5.7-12.485 18.016-6.787 27.457a19.87 19.87 0 0 0 12.323 9.08 19.87 19.87 0 0 0 15.134-2.293 19.87 19.87 0 0 0 9.08-12.324 19.9 19.9 0 0 0 .023-9.5l19.192-8.425c2.673 5.26 7.268 9.554 13.245 11.705 2.675.963 5.41 1.42 8.102 1.42 8.687-.001 16.91-4.764 21.136-12.61l22.906 5.144c.241 7.226 5.382 13.634 12.768 15.146a16 16 0 0 0 3.213.327c7.44 0 14.124-5.229 15.673-12.794 1.769-8.644-3.824-17.116-12.467-18.885M42.2 134.27c-5.664 3.418-13.054 1.591-16.473-4.071-1.656-2.744-2.145-5.969-1.376-9.08s2.704-5.737 5.448-7.394a11.93 11.93 0 0 1 9.08-1.376 11.92 11.92 0 0 1 7.393 5.447c3.419 5.665 1.593 13.055-4.072 16.474m54.384-98.532c2.35-8.501 11.183-13.506 19.682-11.155 8.502 2.351 13.506 11.18 11.155 19.682s-11.178 13.509-19.682 11.155c-8.502-2.35-13.506-11.18-11.155-19.682M39.881 72.062a11.92 11.92 0 0 1-8.45-3.6 11.92 11.92 0 0 1-3.43-8.519 11.92 11.92 0 0 1 3.6-8.45 11.92 11.92 0 0 1 8.519-3.43 11.92 11.92 0 0 1 8.45 3.598 11.92 11.92 0 0 1 3.43 8.52 11.92 11.92 0 0 1-3.599 8.45c-2.288 2.244-5.281 3.5-8.52 3.43zm71.168 33.355a15.89 15.89 0 0 1-8.237 9.055 15.9 15.9 0 0 1-12.229.578 15.9 15.9 0 0 1-9.055-8.238c-1.819-3.866-2.024-8.208-.577-12.228s4.372-7.236 8.237-9.056a15.94 15.94 0 0 1 6.802-1.53c1.825 0 3.657.316 5.426.953a15.89 15.89 0 0 1 9.056 8.237 15.9 15.9 0 0 1 .577 12.228zm52.786 12.188c-.885 4.322-5.12 7.118-9.443 6.234s-7.12-5.12-6.234-9.443c.885-4.322 5.12-7.12 9.443-6.233a7.95 7.95 0 0 1 5.073 3.43 7.95 7.95 0 0 1 1.161 6.012m-74.479 26.22V176h-7.2v-32.174h7.2zm4.86 5.805v-5.804h25.379v5.804h-9.09V176h-7.2v-26.37z"/></svg>