<svg xmlns="http://www.w3.org/2000/svg" viewBox="0 0 192 192"><path d="M25.664 138.877a19.8 19.8 0 0 1 7.488-2.656l-16.937 16.937c.828-5.73 4.116-11.062 9.449-14.28zm148.054-15.118a15.9 15.9 0 0 1 1.808 12.113c-1.812 7.265-8.355 12.13-15.526 12.13-1.279 0-2.576-.155-3.871-.478-7.226-1.802-12.058-8.286-12.11-15.411l-22.143-5.556c-4.404 10.693-14.826 17.319-25.905 17.32-3.14 0-6.33-.531-9.45-1.651a28 28 0 0 1-8.914-5.205l5.695-5.696a20 20 0 0 0 5.922 3.371c10.378 3.723 21.861-1.661 25.596-12.008a19.75 19.75 0 0 0-.714-15.213 20 20 0 0 0-2.715-4.24l5.689-5.688a28 28 0 0 1 4.265 6.52c2.198 4.67 3.042 9.737 2.516 14.74l22.099 5.545a15.9 15.9 0 0 1 5.801-6.07 15.9 15.9 0 0 1 12.113-1.808 15.9 15.9 0 0 1 9.844 7.285m-6.858 4.12a7.95 7.95 0 0 0-4.923-3.644c-2.072-.516-4.224-.195-6.056.905s-3.126 2.849-3.643 4.923v-.001c-1.068 4.28 1.546 8.632 5.827 9.7 4.282 1.065 8.632-1.546 9.7-5.827a7.95 7.95 0 0 0-.905-6.057zm-63.647-65.547-1.02 4.848 11.263-11.263a15.9 15.9 0 0 1-5.717-.496c-8.502-2.35-13.506-11.18-11.155-19.682 2.35-8.501 11.183-13.506 19.682-11.155 7.565 2.092 12.345 9.313 11.655 16.868l7.334-7.335c-2.059-8.077-8.263-14.867-16.857-17.244-12.751-3.525-25.998 3.98-29.525 16.734-3.3 11.933 3.061 24.295 14.34 28.725M38.837 175.79a19.9 19.9 0 0 0 7.496-2.67c5.328-3.215 8.608-8.536 9.433-14.259l-16.929 16.93zM21.718 78.001c-3.74-3.814-5.77-8.857-5.717-14.2s2.183-10.343 5.998-14.083c3.814-3.74 8.848-5.738 14.2-5.717 5.341.053 10.343 2.183 14.083 5.998s5.77 8.857 5.717 14.2a19.85 19.85 0 0 1-2.943 10.215l21.7 20.203-5.661 5.66-21.492-20.01A19.83 19.83 0 0 1 36.005 84l-.203-.001a19.87 19.87 0 0 1-14.084-5.998M24 63.881a11.92 11.92 0 0 0 3.431 8.52A11.92 11.92 0 0 0 36.003 76a11.92 11.92 0 0 0 8.398-3.431A11.92 11.92 0 0 0 48 64.119a11.92 11.92 0 0 0-3.431-8.52A11.92 11.92 0 0 0 36.119 52h-.122a11.92 11.92 0 0 0-8.398 3.431A11.92 11.92 0 0 0 24 63.881m149.657-34.224-11.314-11.314-144 144 11.314 11.314z"/></svg>