<svg xmlns="http://www.w3.org/2000/svg" viewBox="0 0 192 192"><path d="M136 152c-8.822 0-16-7.178-16-16s7.178-16 16-16 16 7.178 16 16-7.178 16-16 16m0-24c-4.411 0-8 3.589-8 8s3.589 8 8 8 8-3.589 8-8-3.589-8-8-8m0 48a40.4 40.4 0 0 1-6.311-.5l-2.581-.41-2.262-8.643a32 32 0 0 1-2.487-1.032l-7.706 4.509-2.114-1.535a40.1 40.1 0 0 1-8.928-8.927l-1.535-2.115 4.51-7.703a32 32 0 0 1-1.04-2.506l-8.636-2.24-.41-2.587A40.5 40.5 0 0 1 96 136c0-2.097.168-4.22.5-6.311l.41-2.582 8.642-2.26q.465-1.265 1.034-2.49l-4.51-7.704 1.535-2.114a40.1 40.1 0 0 1 8.928-8.928l2.114-1.534 7.703 4.51q1.232-.574 2.507-1.04l2.238-8.636 2.588-.411a40.3 40.3 0 0 1 12.622 0l2.582.41 2.262 8.643q1.264.465 2.487 1.033l7.705-4.51 2.115 1.535a40.1 40.1 0 0 1 8.927 8.928l1.535 2.115-4.51 7.702q.573 1.232 1.04 2.507l8.635 2.238.411 2.588c.332 2.09.5 4.214.5 6.311 0 2.094-.168 4.217-.5 6.31l-.41 2.583-8.642 2.26q-.465 1.266-1.034 2.49l4.51 7.704-1.535 2.114a40.1 40.1 0 0 1-8.928 8.928l-2.114 1.534-7.703-4.51q-1.233.574-2.506 1.04l-2.24 8.637-2.587.41c-2.094.332-4.217.5-6.311.5m-2.504-8.099c1.67.13 3.328.132 5.002 0l2.018-7.787 2.2-.629a24.3 24.3 0 0 0 5.119-2.123l1.995-1.11 6.953 4.07a32 32 0 0 0 3.54-3.54l-4.07-6.952 1.11-1.995a24.3 24.3 0 0 0 2.117-5.101l.628-2.192 7.793-2.038a32 32 0 0 0 0-5.002l-7.787-2.018-.628-2.199a24.3 24.3 0 0 0-2.124-5.12l-1.11-1.996 4.071-6.951a32 32 0 0 0-3.541-3.541l-6.954 4.07-1.995-1.11a24.3 24.3 0 0 0-5.098-2.117l-2.19-.628-2.04-7.793a32 32 0 0 0-5.003 0l-2.018 7.786-2.199.63a24.3 24.3 0 0 0-5.12 2.123l-1.995 1.11-6.952-4.07a32 32 0 0 0-3.541 3.54l4.07 6.953-1.11 1.995a24.3 24.3 0 0 0-2.117 5.1l-.628 2.192-7.793 2.038a32 32 0 0 0 0 5.002l7.788 2.019.628 2.2a24.3 24.3 0 0 0 2.123 5.118l1.11 1.996-4.07 6.952a32 32 0 0 0 3.54 3.54l6.954-4.068 1.994 1.108a24.3 24.3 0 0 0 5.1 2.117l2.19.628zM88.6 143.562A48.5 48.5 0 0 1 88 136l.002-.076c-.674.045-1.35.076-2.032.076-8.006 0-15.532-3.118-21.192-8.778S56 114.036 56 106.03s3.118-15.531 8.772-21.186l7.222-7.193 27.362 27.362a48 48 0 0 1 5.657-5.657L77.651 71.994l7.188-7.216C90.499 59.118 98.025 56 106.03 56s15.532 3.118 21.192 8.778S136 77.964 136 85.97c0 .682-.031 1.36-.076 2.034a48.4 48.4 0 0 1 7.638.595l.334.053c.062-.89.104-1.782.104-2.682 0-8.796-2.975-17.134-8.442-23.87l27.27-27.271-5.657-5.658-27.27 27.271C123.164 50.975 114.826 48 106.03 48c-10.143 0-19.678 3.95-26.855 11.127l-7.181 7.21-5.166-5.166-5.658 5.658 5.166 5.166-7.216 7.187C51.95 86.353 48 95.888 48 106.03c0 8.796 2.975 17.134 8.442 23.87l-27.27 27.271 5.657 5.658 27.27-27.271C68.836 141.025 77.174 144 85.97 144c.9 0 1.793-.042 2.682-.104z"/></svg>