<svg xmlns="http://www.w3.org/2000/svg" viewBox="0 0 192 192"><path d="M154 160H38c-5.514 0-10-4.486-10-10 0-1.103-.897-2-2-2-5.514 0-10-4.486-10-10V54c0-5.514 4.486-10 10-10 1.103 0 2-.897 2-2 0-5.514 4.486-10 10-10h116c5.514 0 10 4.486 10 10 0 1.103.897 2 2 2 5.514 0 10 4.486 10 10v84c0 5.514-4.486 10-10 10-1.103 0-2 .897-2 2 0 5.514-4.486 10-10 10M38 40c-1.103 0-2 .897-2 2 0 5.514-4.486 10-10 10-1.103 0-2 .897-2 2v84c0 1.103.897 2 2 2 5.514 0 10 4.486 10 10 0 1.103.897 2 2 2h116c1.103 0 2-.897 2-2 0-5.514 4.486-10 10-10 1.103 0 2-.897 2-2V54c0-1.103-.897-2-2-2-5.514 0-10-4.486-10-10 0-1.103-.897-2-2-2zm100 104h-4c-5.514 0-10-4.486-10-10V96h-12v38c0 5.514-4.486 10-10 10H90c-5.514 0-10-4.486-10-10V96H68v38c0 5.514-4.486 10-10 10h-4c-5.514 0-10-4.486-10-10 0-1.103-.897-2-2-2-5.514 0-10-4.486-10-10V70c0-5.514 4.486-10 10-10 1.103 0 2-.897 2-2 0-5.514 4.486-10 10-10h24c5.514 0 10 4.486 10 10v38h16V58c0-5.514 4.486-10 10-10h24c5.514 0 10 4.486 10 10 0 1.103.897 2 2 2 5.514 0 10 4.486 10 10v52c0 5.514-4.486 10-10 10-1.103 0-2 .897-2 2 0 5.514-4.486 10-10 10m-26-56h20v46c0 1.103.897 2 2 2h4c1.103 0 2-.897 2-2 0-5.514 4.486-10 10-10 1.103 0 2-.897 2-2V70c0-1.103-.897-2-2-2-5.514 0-10-4.486-10-10 0-1.103-.897-2-2-2h-24c-1.103 0-2 .897-2 2zm-24 16v30c0 1.103.897 2 2 2h12c1.103 0 2-.897 2-2v-30zM54 56c-1.103 0-2 .897-2 2 0 5.514-4.486 10-10 10-1.103 0-2 .897-2 2v52c0 1.103.897 2 2 2 5.514 0 10 4.486 10 10 0 1.103.897 2 2 2h4c1.103 0 2-.897 2-2V88h20V58c0-1.103-.897-2-2-2zm84 88h-4c-5.514 0-10-4.486-10-10V96h-12v38c0 5.514-4.486 10-10 10H90c-5.514 0-10-4.486-10-10V96H68v38c0 5.514-4.486 10-10 10h-4c-5.514 0-10-4.486-10-10 0-1.103-.897-2-2-2-5.514 0-10-4.486-10-10V70c0-5.514 4.486-10 10-10 1.103 0 2-.897 2-2 0-5.514 4.486-10 10-10h24c5.514 0 10 4.486 10 10v38h16V58c0-5.514 4.486-10 10-10h24c5.514 0 10 4.486 10 10 0 1.103.897 2 2 2 5.514 0 10 4.486 10 10v52c0 5.514-4.486 10-10 10-1.103 0-2 .897-2 2 0 5.514-4.486 10-10 10m-26-56h20v46c0 1.103.897 2 2 2h4c1.103 0 2-.897 2-2 0-5.514 4.486-10 10-10 1.103 0 2-.897 2-2V70c0-1.103-.897-2-2-2-5.514 0-10-4.486-10-10 0-1.103-.897-2-2-2h-24c-1.103 0-2 .897-2 2zm-24 16v30c0 1.103.897 2 2 2h12c1.103 0 2-.897 2-2v-30zM54 56c-1.103 0-2 .897-2 2 0 5.514-4.486 10-10 10-1.103 0-2 .897-2 2v52c0 1.103.897 2 2 2 5.514 0 10 4.486 10 10 0 1.103.897 2 2 2h4c1.103 0 2-.897 2-2V88h20V58c0-1.103-.897-2-2-2z"/></svg>