<svg xmlns="http://www.w3.org/2000/svg" xml:space="preserve" viewBox="0 0 192 192"><path d="M166.674 88.3c-.873-.199-1.772-.3-2.674-.3-5.372 0-10.127 3.612-11.56 8.776l-.904 3.224H88c-6.617 0-12 5.383-12 12 0 1.29.205 2.561.61 3.785l7.975 23.923A11.97 11.97 0 0 0 96 148h42.088l-1.243 4.435A12.03 12.03 0 0 0 128.7 160h-21.4c-1.653-4.653-6.087-8-11.3-8-6.617 0-12 5.383-12 12s5.383 12 12 12c5.213 0 9.647-3.347 11.3-8h21.4c1.653 4.653 6.087 8 11.3 8 6.617 0 12-5.383 12-12 0-4.843-2.89-9.015-7.03-10.91l15.175-54.165a4.01 4.01 0 0 1 4.783-2.818l8.216 1.8 1.712-7.814zM96 140a4 4 0 0 1-3.815-2.792l-7.983-23.947A4.005 4.005 0 0 1 88 108h61.295l-8.966 31.999zm0 28c-2.206 0-4-1.794-4-4s1.794-4 4-4 4 1.794 4 4-1.794 4-4 4m44 0c-2.206 0-4-1.794-4-4s1.794-4 4-4 4 1.794 4 4-1.794 4-4 4M99.777 92a47.86 47.86 0 0 0-23.585-14.42C87.806 72.777 96 61.33 96 48c0-17.645-14.355-32-32-32S32 30.355 32 48c0 13.325 8.19 24.77 19.797 29.577C31.222 82.99 16 101.748 16 124h8c0-22.056 17.944-40 40-40a39.86 39.86 0 0 1 23.99 8zM40 48c0-13.234 10.766-24 24-24s24 10.766 24 24-10.766 24-24 24-24-10.766-24-24"/></svg>