<svg xmlns="http://www.w3.org/2000/svg" viewBox="0 0 192 192"><path d="M96 132c1.94 0 5.5-.03 9.91-.2.92-2.88 2.16-5.61 3.68-8.16-4.16.23-8.7.36-13.59.36-29.02 0-45.41-4.67-48-7.26V97.728C61.755 103.61 89.082 104 96 104s34.245-.391 48-6.272V104c2.74 0 5.42.28 8 .8V31.63h-.01c-.27-5.3-6.27-9.23-18.32-12.01C123.56 17.28 110.18 16 96 16s-27.56 1.28-37.67 3.62c-12.05 2.78-18.05 6.71-18.32 12.01H40v113.63C40 159.29 86.65 160 96 160c2.13 0 6.2-.04 11.21-.26-1.08-2.51-1.9-5.15-2.45-7.89q-4.17.15-8.76.15c-29.05 0-45.44-4.68-48-7.27v-19c13.75 5.88 41.08 6.27 48 6.27m0-108c27.72 0 44.91 4.93 47.78 8-2.87 3.07-20.06 8-47.78 8s-44.91-4.93-47.78-8c2.87-3.07 20.06-8 47.78-8M48 41.08c2.73 1.25 6.17 2.34 10.33 3.3C68.44 46.72 81.82 48 96 48s27.56-1.28 37.67-3.62c4.16-.96 7.6-2.05 10.33-3.3v19.651C141.456 63.313 125.068 68 96 68s-45.456-4.687-48-7.269zm0 28.648C61.755 75.61 89.082 76 96 76s34.245-.391 48-6.272v19.003C141.456 91.313 125.068 96 96 96s-45.456-4.687-48-7.269zm104 43.282c-2.56-.66-5.24-1.01-8-1.01-9.5 0-18.05 4.17-23.91 10.77a32 32 0 0 0-5.45 8.52c-1.7 3.91-2.64 8.22-2.64 12.75 0 2.54.3 5.01.86 7.38.65 2.75 1.65 5.36 2.96 7.78 5.4 10.04 16.01 16.88 28.18 16.88 17.65 0 32-14.37 32-32.04 0-14.91-10.21-27.46-24-31.03m-8 55.07c-7.92 0-14.95-3.86-19.32-9.8a23.5 23.5 0 0 1-3.74-7.61c-.62-2.11-.94-4.33-.94-6.63 0-5.09 1.59-9.82 4.3-13.71 4.34-6.24 11.55-10.33 19.7-10.33 2.35 0 4.62.34 6.76.98.42.12.83.25 1.24.4 9.31 3.3 16 12.22 16 22.66 0 13.26-10.77 24.04-24 24.04M159.48 140h.52v8h-12v12h-2.37c-.53.05-1.08.08-1.63.08s-1.1-.03-1.63-.08H140v-12h-12v-8h12v-12h8v12z"/></svg>