<svg xmlns="http://www.w3.org/2000/svg" viewBox="0 0 192 192"><path d="M169.124 68.908c-4.701-7.23-6.241-8.914-7.871-10.697l-.185-.202c-5.257-5.76-13.917-7.438-21.395-4.43-.287-2.641-.242-6.569 1.266-8.419.44-.54 1.186-1.16 3.06-1.16 1.275 0 2.55.008 3.814.017 10.95.076 20.389.133 25.26-4.706C174.986 37.408 176 34.88 176 32h-8c0 .943-.272 1.343-.566 1.635-2.51 2.494-11.966 2.434-19.569 2.382A597 597 0 0 0 144 36c-4.904 0-7.753 2.245-9.28 4.128-2.728 3.364-3.264 8.005-3.185 11.559-1.875-.819-4.048-1.39-6.485-1.39-6.312 0-12.005 3.792-14.476 5.703H39.13C26.377 56 16 65.613 16 77.43v23.001c0 3.767 1.321 6.098 2.382 7.971.838 1.478 1.342 2.37 1.342 4.03 0 2.475-1.192 4.864-2.15 6.783-.845 1.69-1.573 3.15-1.573 4.785v.726L29.227 160h24.076l-8.457-29.599c4.098-1.74 10.63-4.985 14.158-9.219q.483-.58.968-1.182H104c1.361 0 3.677 3.419 4.129 6.097.659 3.902 3.942 30.135 3.975 30.4l.438 3.503H136v-36c0-4.084.178-5.263 2.065-8.472 3.647-6.198 9.302-12.812 11.712-15.528H160c8.523 0 16-7.477 16-16 0-5.19-3.52-10.245-5.849-13.59a59 59 0 0 1-1.027-1.502M160 92h-13.741l-1.186 1.274c-.354.38-8.74 9.421-13.902 18.198C128.312 116.33 128 119.147 128 124v28h-8.398c-.93-7.385-3.043-24.02-3.585-27.235-.87-5.148-5.29-12.765-12.017-12.765H65.195c1.596-3.337 2.708-7.22 2.804-11.918L60 99.918c-.133 6.491-2.72 10.834-7.144 16.143-3.11 3.732-11.282 7.156-14.167 8.16l-3.576 1.239L42.697 152h-7.925l-10.558-28.156c.156-.334.353-.728.516-1.055 1.192-2.388 2.993-5.996 2.993-10.358 0-3.767-1.32-6.098-2.38-7.971-.545-.961-.946-1.677-1.162-2.515A15.8 15.8 0 0 0 31.968 104c8.822 0 16-7.178 16-16 0-4.411 3.588-8 8-8v-8c-8.823 0-16 7.178-16 16 0 4.411-3.59 8-8 8-4.375 0-7.935-3.589-7.935-8H24V77.43C24 70.943 30.079 64 39.129 64h70.54c1.621 2.646 4.713 6.97 8.908 9.55 5.783 3.56 11.474 2.53 12.103 2.4l-1.56-7.846c-.13.023-3.235.55-6.35-1.367-2.153-1.324-4.106-3.693-5.47-5.681 2.14-1.35 5.067-2.76 7.75-2.76 4.515 0 7.739 4.09 7.754 4.11l2.096 2.785 6.32-3.52c5.367-3.007 11.075-1.405 13.94 1.732l.19.208c1.402 1.532 2.725 2.98 7.067 9.657a66 66 0 0 0 1.169 1.713C165.236 77.353 168 81.321 168 84c0 4.187-3.814 8-8 8"/></svg>