<svg xmlns="http://www.w3.org/2000/svg" viewBox="0 0 192 192"><path d="M148.83 80h-10.19l1.75-20.03L35.63 60l8.7 100h87.33l2.1-24h15.08c6.16 0 11.17-5.01 11.17-11.17V91.17c0-6.16-5.01-11.17-11.18-11.17m-17.17-12.02L130.61 80l-.26 2.98-.34 3.95c-3.85 3.09-12.54 9.08-22.02 9.08-8.33 0-12.6-3.32-17.55-7.15-5.34-4.14-11.39-8.83-22.45-8.83-9.19 0-16.89 4.14-21.91 7.8L44.36 68zm-80 84.02-4.74-54.5c2.92-2.76 11.08-9.49 21.07-9.49 8.33 0 12.6 3.32 17.55 7.15 5.34 4.14 11.39 8.83 22.45 8.83 8.24 0 15.71-3.34 21.11-6.66L124.33 152zm100.35-27.17c0 1.75-1.42 3.17-3.17 3.17h-14.37l3.48-40h10.89c1.75 0 3.17 1.42 3.17 3.17z"/></svg>