<svg xmlns="http://www.w3.org/2000/svg" viewBox="0 0 192 192"><path d="M112 72h-8v-.002L32 72v44c0 8.822 7.178 16 16 16h44c8.822 0 16-7.178 16-16v-4h4c8.822 0 16-7.183 16-16.012v-8C128 79.172 120.822 72 112 72m-12 44c0 4.411-3.589 8-8 8H48c-4.411 0-8-3.589-8-8V80l60-.002zm20-20.012c0 4.418-3.589 8.012-8 8.012h-4V80h4c4.411 0 8 3.583 8 7.988zm32.129-7.975c0 21.748-17.578 39.535-39.346 39.966a23.8 23.8 0 0 0 2.917-8.2c15.98-1.848 28.429-15.414 28.429-31.768 0-17.607-14.424-31.96-32.152-31.96-7.922 0-15.43 2.949-21.232 7.949h-10.88a40.28 40.28 0 0 1 32.112-15.975c22.14 0 40.152 17.97 40.152 39.988M176.053 88c0 26.53-16.393 49.95-40.31 59.499a24 24 0 0 0 .196-1.889c.037-.532.061-1.068.061-1.61v-5.34c19.165-9.096 32.053-28.653 32.053-50.66 0-30.907-25.146-56.052-56.053-56.052-21.742 0-41.467 12.683-50.658 32.051L52.6 64c9.724-24.054 33.294-40.052 59.399-40.052H112c35.318 0 64.053 28.734 64.053 64.052M112 163.958H32c-8.822 0-16-7.178-16-16v-8h112v8c0 8.822-7.178 16-16 16m-88-16c0 4.411 3.589 8 8 8h80c4.411 0 8-3.589 8-8z"/></svg>