<svg xmlns="http://www.w3.org/2000/svg" viewBox="0 0 192 192"><path d="M108 140v-4h4c8.822 0 16-7.183 16-16.012v-8C128 103.172 120.822 96 112 96H32v44c0 8.822 7.178 16 16 16h44c8.822 0 16-7.178 16-16m0-36h4c4.411 0 8 3.583 8 7.988v8c0 4.418-3.589 8.012-8 8.012h-4zm-68 36v-36h60v36c0 4.411-3.589 8-8 8H48c-4.411 0-8-3.589-8-8m135.963-28.05c0 35.263-28.688 63.951-63.95 63.951A63.7 63.7 0 0 1 74.87 164h16.583a55.9 55.9 0 0 0 20.56 3.901c30.851 0 55.95-25.1 55.95-55.951 0-30.852-25.099-55.952-55.95-55.952-21.832 0-41.45 12.773-50.576 32.002H52.71c9.65-23.874 33.078-40.002 59.305-40.002 35.261 0 63.949 28.689 63.949 63.952zm-31.977 0c0-17.62-14.334-31.954-31.952-31.954-7.996 0-15.443 2.925-21.17 8.004H80.062c7.458-10.007 19.155-16.004 31.972-16.004 22.03 0 39.952 17.923 39.952 39.954 0 21.76-17.49 39.502-39.148 39.933a23.8 23.8 0 0 0 2.879-8.198c15.888-1.833 28.27-15.362 28.27-31.735zM47.988 63.98c8.73 0 15.874-7.144 15.874-15.874 0-6.449-3.869-12.302-6.945-16.965l-.594-.993c-2.978-4.563-4.862-7.738-4.862-7.738l-3.473-5.854-3.372 5.854s-1.887 3.175-4.862 7.738l-.694.993c-3.076 4.663-6.946 10.516-6.946 16.965 0 8.73 7.144 15.874 15.874 15.874m-2.282-28.474.695-1.092c.596-.893 1.091-1.785 1.587-2.579.496.794 1.091 1.686 1.687 2.58l.695 1.09c2.578 3.97 5.654 8.534 5.654 12.6-.1 4.466-3.67 8.038-8.036 8.038s-7.936-3.572-7.936-7.938c0-4.067 2.976-8.631 5.654-12.7z"/></svg>