<svg xmlns="http://www.w3.org/2000/svg" viewBox="0 0 192 192"><path d="M144 176h-8V96h-23.999V32c0-8.822 8.254-16 18.4-16H144zm-23.999-88H136V24h-5.6c-5.734 0-10.399 3.589-10.399 8zm-48-72h-8L64 52.008h8zM96 16.007v32.437c0 5.404-2.72 11.367-7.464 16.36C83.813 69.774 78.836 72 76 72s-7.813-2.226-12.536-7.197C58.72 59.81 56 53.848 56 48.444V16h-8v32.444c0 14.229 12.752 28.168 24 31.018l-.002 96.527h8L80 79.439c4.74-1.24 9.943-4.5 14.337-9.126C100.477 63.85 104 55.878 104 48.444V16.007zM88.001 16h-8l-.002 36.008h8z"/></svg>