<svg xmlns="http://www.w3.org/2000/svg" xml:space="preserve" viewBox="0 0 192 192"><path d="M44 146.97C57.195 160.53 75.662 168 96 168v8c-45.585 0-79.978-34.376-80-79.961-.012-23.795 10.5-44.855 29.767-60.015l-13.796.007-.004-8 28-.013.013 28-8 .003-.006-14.676C33.882 55.04 23.99 74.28 24 96.035c.01 19.6 7.112 37.689 20 50.934m102.233 9.025c19.267-15.16 29.779-36.22 29.767-60.015-.022-45.585-34.415-79.96-80-79.96v8c20.338 0 38.805 7.468 52 21.03 12.888 13.246 19.99 31.334 20 50.934.01 21.755-9.882 40.995-27.974 54.69l-.006-14.676-8 .004.013 28 28-.014-.004-8zM96 32v64h64c0-35.346-28.654-64-64-64"/></svg>