<svg xmlns="http://www.w3.org/2000/svg" viewBox="0 0 192 192"><path d="M45.235 136h101.53L96 43.7zm13.53-8L96 60.3l37.235 67.7zM176 96c0 44.112-35.888 80-80 80s-80-35.888-80-80 35.888-80 80-80c23.794 0 44.85 10.522 60 29.797V16h8v44h-44v-8h30.677C136.989 33.902 117.754 24 96 24c-39.701 0-72 32.299-72 72s32.299 72 72 72 72-32.299 72-72zM92.894 82H99v11.631l-1.422 14.316h-3.262L92.894 93.63zm6.79 34.158c0 2.104-1.738 3.842-3.842 3.842-2.106 0-3.842-1.738-3.842-3.842 0-2.158 1.736-3.842 3.893-3.842 2.053 0 3.791 1.736 3.791 3.842"/></svg>