<svg xmlns="http://www.w3.org/2000/svg" viewBox="0 0 192 192"><path d="M130 56.643V46.554A59.93 59.93 0 0 1 155.864 92h-8.035A51.94 51.94 0 0 0 130 56.643M106 32H86v8h20zm0 16H86v8h20zm16 40h-8v4H78v-4h-8V16h52zm-8-64H78v56h36zm-8 40H86v8h20zM68 172h-8v4H24v-4h-8v-72h52zm-8-64H24v56h36zm-8 8H32v8h20zm0 16H32v8h20zm0 16H32v8h20zm108-32h-20v8h20zm16 56h-8v4h-36v-4h-8v-72h52zm-8-64h-36v56h36zm-8 24h-20v8h20zm0 16h-20v8h20zM62 46.553A59.93 59.93 0 0 0 36.14 92h8.015A51.95 51.95 0 0 1 62 56.635zM96 148a51.8 51.8 0 0 1-20-3.99v8.578A59.9 59.9 0 0 0 96 156a59.9 59.9 0 0 0 20-3.412v-8.579A51.8 51.8 0 0 1 96 148"/></svg>