<svg xmlns="http://www.w3.org/2000/svg" viewBox="0 0 192 192"><path d="M108 48H84V16h24zm-16-8h8V24h-8zm12 32H40v8h64zm0 20H40v8h64zm-24 20H40v8h40zm88-.001a40.2 40.2 0 0 1 8 8V40h-60v8h52zM24.24 136l-.23-88H76v-8H15.99l.27 104H104c0-2.74.277-5.415.802-8zM144 176c-17.645 0-32-14.355-32-32s14.355-32 32-32 32 14.355 32 32-14.355 32-32 32m0-56c-13.234 0-24 10.766-24 24s10.766 24 24 24 24-10.766 24-24-10.766-24-24-24m14.143 15.515-5.657-5.658-8.486 8.486-8.486-8.486-5.657 5.658 8.486 8.485-8.485 8.485 5.657 5.657 8.485-8.485 8.485 8.485 5.657-5.657-8.485-8.485z"/></svg>