<svg xmlns="http://www.w3.org/2000/svg" viewBox="0 0 192 192"><path d="M156.855 52.092c-9.477-2.07-25.583-5.786-28.464-6.938a11 11 0 0 0-1.83-.539 178 178 0 0 1-4.168-1.25l-4.157-20.818-7.846 1.566 3.248 16.267c-5.514-2.052-10.487-4.295-12.397-6.127-.342-.578-1.638-3.682-1.264-17.204.014-.504.023-.865.023-1.049h-8c0 .145-.009.43-.02.827-.372 13.464.648 20.129 3.524 23.004.132.131.278.262.423.393l-10.491 5.574 3.754 7.065 14.736-7.828c3.606 1.668 7.687 3.193 11.385 4.448a9.2 9.2 0 0 0-1.01 2.517H95.743l.104 4.102c.162 6.378 5.76 15.895 12.924 18.93-1.494 8.279-4.03 15.806-5.871 17.034-6.091 4.061-13.673 3.989-21 3.914q-1.43-.017-2.815-.018c-8.222 0-17.3.076-17.356.076H52c-1.64 0-9.037 1-14.12 4.178-5.885 3.678-9.23 11.678-9.59 12.578l-2.218 5.516 13.32-.053c-.334 4.448-.396 9.768-.396 9.847v9.677c0 1.772-3.104 6.268-5.888 9.192l-1.048 1.098-.057 1.516c-.066 1.757-.408 6.95-1.187 9.834-1.027 3.795-2.586 8.383-2.602 8.429l-.214.627V176l26.128-.01-.125-4.122c-.003-.09-.224-9.214 4.338-16.63 6.009-9.764 15.059-14.185 27.665-13.523 5.599.293 8.701.214 12.841-.538.305 3.693.727 8.894.994 12.591.362 5.007-.005 17.987-.009 18.117L99.713 176h24.3l-.013-4.013c0-.14-.037-13.999.684-20.488.63-5.672 3.466-22.088 4.266-26.68 13.88-14.618 17.363-31.908 10.215-50.351 1.794-.17 3.85-.372 5.895-.591 3.362-.36 6.055-.696 8.002-.998 3.09-.48 6.938-1.077 6.938-4.879V52.78zM152 64.954c-3.461.536-10.003 1.24-16.234 1.796l-.001-.01c-.219.025-.464.048-.696.072q-.903.08-1.79.154c-1.255.085-2.554.119-3.722.001-.63-.063-1.635-.405-2.135-.623l-3.244 7.312c.395.176 2.473 1.061 4.583 1.271a24 24 0 0 0 1.975.106c7.394 16.792 4.592 31.948-8.362 45.077l-.876.887-.215 1.228c-.155.877-3.79 21.55-4.55 28.39-.523 4.709-.674 12.609-.717 17.385h-8.092c.083-4.413.154-11.25-.104-14.81-.46-6.357-1.368-17.09-1.377-17.197l-.366-4.318-4.274.709-.468.086c-6.04 1.417-8.268 1.604-14.909 1.255-15.586-.819-27.321 5.007-34.897 17.32-3.73 6.06-4.955 12.762-5.349 16.955h-9.59c.569-1.763 1.336-4.226 1.948-6.492.863-3.19 1.239-7.778 1.382-10.125 2.495-2.803 7.076-8.63 7.076-13.602v-9.677c0-2.697.343-10.936.724-12.583l1.95-5.305-10.828.043c.962-1.303 2.08-2.51 3.278-3.26 3.283-2.05 8.803-2.923 9.88-2.96h9.763c.09-.002 9.135-.077 17.322-.077.897 0 1.81.009 2.736.018 8.142.08 17.374.17 25.516-5.258 6.457-4.304 9.234-21.123 9.93-26.175l.628-4.547h-4.59c-2.65 0-6.469-3.996-8.342-8h15.778l.744-3.052c.166-.68.313-1.511.444-2.244.07-.389.126-.732.17-.917.103-.417.515-.862 1.046-1.134.352-.179.86-.336 1.482-.27q.61.174 1.04.292c4.047 1.51 19.432 5.004 26.333 6.539z"/></svg>