<svg xmlns="http://www.w3.org/2000/svg" viewBox="0 0 192 192"><path d="M120 160V96H24v64h36v8h-8v8h40v-8h-8v-8zm-44 8h-8v-8h8zm-44-16v-48h80v48z"/><path d="M72 143.6c-6.6 0-12-5.5-12-12.2v-12.6l12-5.3 12 5.3v12.6c0 6.7-5.4 12.2-12 12.2M68 124v7.4c0 2.3 1.8 4.2 4 4.2s4-1.9 4-4.2V124l-4-1.8zm64.3-45.3C139.4 73.6 144 65.3 144 56c0-15.4-12.6-28-28-28S88 40.6 88 56s4.6 17.6 11.7 22.7c-6 2-11.7 5.2-16.6 9.3H98c5.7-2.6 11.8-4 18.1-4 23.8 0 44 20.1 44 44h8c0-22.5-15.2-42.2-35.7-49.3ZM96 56c0-11 9-20 20-20s20 9 20 20-9 20-20 20-20-9-20-20"/></svg>