<svg xmlns="http://www.w3.org/2000/svg" viewBox="0 0 192 192"><path d="M124 120h-8V98.627l8-8zm-24-5.373L94.627 120H100zm40-40V160c0 4.411-3.589 8-8 8H60c-3.615 0-6.675-2.412-7.662-5.711l-5.994 5.994C49.15 172.901 54.212 176 60 176h72c8.822 0 16-7.178 16-16V66.627zM150.627 64H160v-9.373zM40 64h-8V32h32c0-8.822 7.177-16 16-16h32c8.822 0 16 7.178 16 16h9.373l-8 8H40v16h73.373l-8 8H100v5.373l-8 8V64H76v29.373l-8 8V64H52v53.373l-8 8V64zm32-32h48c0-4.411-3.589-8-8-8H80c-4.411 0-8 3.589-8 8m105.657-6.343-11.314-11.313-152 151.999 11.313 11.313z"/></svg>