<svg xmlns="http://www.w3.org/2000/svg" viewBox="0 0 192 192"><path d="m36.053 115.342 7.892 1.315-4.211 25.264-16.906 16.907-5.658-5.657 15.094-15.093 3.79-22.736zm16.516-1.284 11.243 18.736-3.759 22.548 7.892 1.315 4.242-25.452-12.758-21.264zm84.487-20.111-6.471-14.633L110.942 88l6.471 14.633 19.643-8.687zM119.66 109.79l30.91-13.67 9.77 22.09-30.91 13.67zm10.55 4.08 3.3 7.46 16.28-7.21-3.3-7.45zm5.72 32.96c.64 6.36-3.87 12.15-10.26 13.05q-.84.12-1.68.12c-5.88 0-11.03-4.34-11.87-10.33-.08-.57-.12-1.13-.12-1.69 0-3.3 1.37-6.36 3.62-8.57l-16.08-38.03c-.99-2.35-3.6-3.62-5.94-2.88a17.6 17.6 0 0 0-4.253 2.046l-1.025 3.27-28.32-8.875-.006-17.134c0-7.742-6.07-13.806-13.817-13.806-7.819 0-14.18 6.232-14.18 13.891V108h-8V77.892c0-10.633 7.723-19.515 17.922-21.481l-.001-.001A15.96 15.96 0 0 1 36 44c0-8.82 7.18-16 16-16s16 7.18 16 16c0 6.91-4.4 12.81-10.55 15.04h-.01l-.027.009c6.377 3.764 10.583 10.67 10.583 18.757L68 89.064l16.42 5.146c2.12-1.46 4.39-2.59 6.77-3.33 6.33-2.01 13.09 1.17 15.72 7.38l15.98 37.8c2.98-.29 5.92.53 8.33 2.35.48.36.92.75 1.33 1.17l33.81-15.23 3.28 7.3zM44 44c0 4.41 3.59 8 8 8s8-3.59 8-8-3.59-8-8-8-8 3.59-8 8m80.56 107.96c.78-.11 1.48-.44 2.04-.93 1-.86 1.56-2.19 1.36-3.59-.15-1.06-.7-1.99-1.55-2.64-.86-.64-1.91-.92-2.97-.76-2.18.3-3.71 2.33-3.4 4.52.31 2.17 2.33 3.7 4.5 3.4z"/></svg>