<svg xmlns="http://www.w3.org/2000/svg" viewBox="0 0 192 192"><path d="m129.03 44.89-48-12.74c-.05-.01-.09-.01-.14-.02-.22-.05-.46-.09-.69-.1-.05 0-.09-.01-.14-.01q-.36 0-.72.06c-.07.02-.14.03-.22.04-.24.06-.47.13-.7.23-.07.03-.12.06-.18.09-.2.1-.39.21-.57.34-.03.02-.07.04-.11.07l-.03.03c-.01 0-.02.01-.02.01l-16 12.77c-.95.76-1.51 1.91-1.51 3.12l.01 51.22c0 2.21 1.79 4 3.99 4h40v-8H84V41.22l40 10.61V84h8V48.76c0-1.82-1.22-3.4-2.97-3.87M76 96h-8V50.71l8-6.39zm24-8h-8V56h8zm16-32v28h-8V56zm60-40v73.341a19.7 19.7 0 0 0-8-3.452V24H24v88h80v8H88v16h16v8H64.376v-8H80v-16H16V16zm-64 76v84h32V92zm24 76h-16v-12.152h7.667v-7.696H120v-12.304h8v-7.696h-8v-12.304h8v-7.696h-8V100h16zm28-74.485c-6.953 0-12 5.084-12 12.089v49.604l12 20.795 12-20.795v-49.604c0-7.005-5.047-12.09-12-12.09zm0 8c2.468 0 4 1.567 4 4.089V108h-8v-2.396c0-2.522 1.532-4.09 4-4.09zm0 58.482-4-6.932V116h8v37.065z"/></svg>