<svg xmlns="http://www.w3.org/2000/svg" viewBox="0 0 192 192"><path d="M84.11 136c.33 2.93 1.36 5.66 2.94 8H56v-8h12v-16H16V32h132v25.03c-1.88-.67-3.9-1.03-6-1.03h-2V40H24v72h60v8h-8v16zm22.42 0H102c-1.1 0-2-.9-2-2V74c0-1.1.9-2 2-2h40c1.1 0 2 .9 2 2v6.51c1.28-.33 2.62-.51 4-.51h4v-6c0-3.26-1.57-6.17-4-7.99a9.93 9.93 0 0 0-6-2.01h-40c-5.51 0-10 4.49-10 10v60c0 .69.07 1.36.2 2 .93 4.56 4.98 8 9.8 8h32.16a15.86 15.86 0 0 1-2.16-8zM176 96v40c0 4.41-3.59 8-8 8h-20a7.8 7.8 0 0 1-2.82-.52A7.99 7.99 0 0 1 140 136V96c0-2.95 1.61-5.54 4-6.92a7.9 7.9 0 0 1 4-1.08h20c4.41 0 8 3.59 8 8m-8 0h-20v40h20zm-48 28a4 4 0 1 0 8 0 4 4 0 0 0-8 0"/></svg>