<svg xmlns="http://www.w3.org/2000/svg" viewBox="0 0 192 192"><path d="M176 120V16H16v104h64v16H64v8h64v-8h-16v-16zM24 24h144v88H24zm80 112H88v-16h16zM68 92H32V56h36zm-28-8h20V64H40zm76 8H76V56h40zm-32-8h24V64H84zm76 8h-36V56h36zm-28-8h20V64h-20zM96 40H32v-8h64zm64 0h-8v-8h8zm-16 0h-8v-8h8zM64 152.085h10.506q4.118 0 6.29 2.059 1.912 1.813 1.912 4.804 0 2.582-1.307 4.134a5 5 0 0 1-1.299 1.127q-.694.409-1.903.784 1.7.507 2.541 1.56.842 1.054 1.299 3.227 1.209 5.13 1.944 6.094v.131h-5.49q-.898-1.617-1.797-5.751-.408-1.83-1.266-2.606t-2.492-.776h-3.644v9.133H64zm9.705 10.8q1.96 0 2.941-.98.85-.85.85-2.353 0-3.284-3.415-3.284h-4.787v6.617zm14.591-10.8h10.179q4.346 0 6.617 2.32 1.977 2.026 1.977 5.441 0 3.725-2.5 5.686-2.19 1.716-5.866 1.716h-5.049v8.758h-5.359v-23.921zm9.836 11.176q1.944 0 2.892-1.029.834-.899.833-2.483 0-3.415-3.693-3.415h-4.509v6.928h4.477zm15.946 5.424q.735 1.813 2.001 2.647t3.292.833q2.14 0 3.284-.882.996-.784.997-2.059 0-1.291-1.013-1.912-.898-.571-3.333-1.144-2.761-.62-3.987-1.021t-2.075-.939q-2.712-1.732-2.712-5.13 0-3.66 2.614-5.604 2.303-1.716 6.209-1.716 5.686 0 8.905 4.281l-4.346 2.402q-.948-1.291-2.018-1.879t-2.508-.588q-3.741 0-3.742 2.582 0 1.128.907 1.74t3.243 1.07q4.477.915 6.29 2.042 2.778 1.83 2.778 5.473 0 3.856-2.778 5.8-2.418 1.7-6.666 1.699-4.003 0-6.486-1.569-2.173-1.39-3.48-4.166z"/></svg>