<svg xmlns="http://www.w3.org/2000/svg" viewBox="0 0 192 192"><path d="M176 136V32H16v104h64v16H64v8h64v-8h-16v-16zM24 40h144v88H24zm80 112H88v-16h16zM56.005 93.292h15.747v6.445H47.998V63.995h8.007zm29.102 0H103.1v6.445H77.197V63.995h25.097v6.445H85.107v8.057h13.086v5.957H85.107zm38.086-29.297h-13.257v35.742h13.013q8.031 0 12.72-4.101 5.37-4.736 5.37-13.892 0-7.861-4.101-12.475-4.688-5.274-13.745-5.274m7.422 26.026q-2.392 3.369-7.276 3.369h-5.395V70.343h5.347q4.272 0 6.665 2.588 2.733 2.93 2.734 8.91 0 5.25-2.075 8.18"/></svg>