<svg xmlns="http://www.w3.org/2000/svg" viewBox="0 0 192 192"><path d="M57.146 142.879h4.032l2.836 12.07 3.328-12.07h3.199l3.363 12.164 2.965-12.164h3.703l-4.441 17.156H72.17l-3.258-11.59-3.34 11.59h-4.008zm27.88 11.906q.527 1.3 1.435 1.899c.908.599 1.393.597 2.361.597q1.536 0 2.356-.633a1.79 1.79 0 0 0 .715-1.476q0-.925-.727-1.371-.645-.41-2.39-.82-1.98-.446-2.86-.733c-.88-.287-1.082-.416-1.488-.674q-1.946-1.242-1.946-3.68 0-2.625 1.875-4.019 1.653-1.23 4.454-1.23 4.077 0 6.386 3.07l-3.117 1.723q-.68-.927-1.447-1.348c-.767-.421-1.112-.422-1.799-.422q-2.685 0-2.684 1.852 0 .808.65 1.248c.65.44 1.21.548 2.327.767q3.21.657 4.512 1.465 1.992 1.313 1.992 3.926 0 2.766-1.992 4.16-1.735 1.219-4.782 1.219-2.87 0-4.652-1.125-1.559-.996-2.496-2.989l3.316-1.406zm19.43-11.906 3.89 11.754 3.89-11.754h5.496v17.156h-3.773v-12.914l-4.371 12.914h-2.824l-4.395-12.937v12.937h-3.433V142.88h5.52zm19.312 11.906q.527 1.3 1.435 1.899c.908.599 1.393.597 2.361.597q1.537 0 2.356-.633a1.79 1.79 0 0 0 .715-1.476q0-.925-.727-1.371-.645-.41-2.39-.82-1.98-.446-2.86-.733c-.88-.287-1.082-.416-1.488-.674q-1.945-1.242-1.945-3.68 0-2.625 1.875-4.019 1.652-1.23 4.453-1.23 4.077 0 6.386 3.07l-3.117 1.723q-.68-.927-1.447-1.348c-.767-.421-1.111-.422-1.799-.422q-2.683 0-2.683 1.852 0 .808.65 1.248c.65.44 1.209.548 2.326.767q3.21.657 4.512 1.465 1.992 1.313 1.992 3.926 0 2.766-1.992 4.16-1.734 1.219-4.781 1.219-2.871 0-4.653-1.125-1.558-.996-2.496-2.989zM159.79 73.17q.21-2.1.21-4.17c0-22.99-18.45-41-42-41-14.03 0-26.54 6.13-34.14 16.56A31.5 31.5 0 0 0 74 43c-15.63 0-28.88 11.39-31.52 26.48C27.39 72.12 16 85.37 16 101c0 17.38 14.06 31 32 31h96c17.94 0 32-13.62 32-31 0-11.57-6.27-22.19-16.21-27.83M144 124H48c-13.46 0-24-10.1-24-23 0-12.57 9.81-23.08 22.34-23.94l3.49-.23.23-3.49C50.92 60.81 61.43 51 74 51c3.4 0 6.69.7 9.79 2.09l3.23 1.44 1.83-3.03C94.69 41.79 105.59 36 118 36c19.07 0 34 14.5 34 33 0 1.9-.17 3.84-.5 5.77l-.52 3.06 2.83 1.27A24.03 24.03 0 0 1 168 101c0 12.9-10.54 23-24 23M68 95c0-.67.81-2.27 1.65-3.27l.1-.1.21-.27 5.69-7.2.69-.88.42-1.02c.55-1.31 2.41-5.27 4.48-7.79l.14-.18.07-.09c1.07-.94 5.71-2.21 11.83-2.21.28 0 .45.01.49.01h.46c.04 0 .22-.01.49-.01 2.87 0 5.42.28 7.42.67.32-2.73 1.2-5.32 2.55-7.64-4.09-.93-8.32-1.03-9.97-1.03-.46 0-.72.01-.72.01s-.26-.01-.72-.01c-3.01 0-14.53.34-18.23 5.41-3.31 4.05-5.68 9.81-5.68 9.81l-.68.86c-.23-.04-.45-.07-.69-.07h-8c-2.21 0-4 1.79-4 4s1.79 4 4 4h2.48C61.4 89.6 60 92.22 60 95v13c0 4.5.84 8 2.74 8h8.05s.04.01.1.01c.51 0 2.74-.43 2.74-8.01H108v-8H68zm64.04-26.56c-.01-.02-.03-.04-.04-.06a12.45 12.45 0 0 0-5.88-4.38v9.58c0 2.28-1.84 4.12-4.12 4.12s-4.12-1.84-4.12-4.12V64c-2.37.84-4.4 2.38-5.86 4.36-.02.03-.04.05-.06.08a12.25 12.25 0 0 0-2.32 7.2c0 4.65 2.57 8.69 6.36 10.8V116h1c.04.01.08.01.11.01.06 0 .1-.01.1-.01H128V86.44c3.79-2.11 6.36-6.15 6.36-10.8 0-2.69-.86-5.18-2.32-7.2"/></svg>