<svg xmlns="http://www.w3.org/2000/svg" viewBox="0 0 192 192"><path d="M176 136V32H16v104h64v16H64v8h64v-8h-16v-16zM24 40h144v88H24zm80 112H88v-16h16zm40.021-32H48V52h96.022v68zM56 112h80.02V60H56zm31.075-22.329C90.054 87.485 92 83.97 92 80c0-6.617-5.383-12-12-12s-12 5.383-12 12c0 3.97 1.946 7.485 4.925 9.671C67.646 92.288 64 97.72 64 104h8c0-4.411 3.589-8 8-8s8 3.589 8 8h8c0-6.28-3.646-11.712-8.925-14.329M80 76c2.206 0 4 1.794 4 4s-1.794 4-4 4-4-1.794-4-4 1.794-4 4-4m48 4h-24v-8h24zm0 16h-24v-8h24z"/></svg>