<svg xmlns="http://www.w3.org/2000/svg" viewBox="0 0 192 192"><path d="m105.858 83.66 13.802 28.63a40 40 0 0 1 6.834-4.247l-13.596-28.2c1.921-2.13 3.102-4.938 3.102-8.024 0-6.616-5.383-12-12-12s-12 5.384-12 12 5.383 12 12 12c.633 0 1.25-.064 1.858-.159M100 71.82c0-2.206 1.794-4 4-4s4 1.794 4 4-1.794 4-4 4-4-1.795-4-4M148 104V83.335c4.653-1.653 8-6.087 8-11.3 0-6.617-5.383-12-12-12s-12 5.383-12 12c0 5.213 3.347 9.647 8 11.3V104zm-4-35.965c2.206 0 4 1.795 4 4s-1.794 4-4 4-4-1.794-4-4 1.794-4 4-4M144 112c-17.645 0-32 14.355-32 32s14.355 32 32 32 32-14.355 32-32-14.355-32-32-32m0 56c-13.234 0-24-10.766-24-24s10.766-24 24-24 24 10.766 24 24-10.766 24-24 24m32-136v80h-8V40H24v88h80v8H88v16h16v8H64v-8h16v-16H16V32zM32 120h8c0-13.458 10.542-24 24-24s24 10.542 24 24h8c0-14.276-9.399-26.396-22.333-30.504C79.821 86.082 84 79.522 84 72c0-11.028-8.972-20-20-20s-20 8.972-20 20c0 7.522 4.179 14.082 10.333 17.496C41.399 93.604 32 105.724 32 120m20-48c0-6.617 5.383-12 12-12s12 5.383 12 12-5.383 12-12 12-12-5.383-12-12m96 68h12v8h-20v-20h8z"/></svg>