<svg xmlns="http://www.w3.org/2000/svg" viewBox="0 0 192 192"><path d="M80 152v-16H16V32h160v88.028a40.3 40.3 0 0 0-8-8.006V40H24v88h83.35a39.7 39.7 0 0 0-2.545 8H88v16h16.805a39.7 39.7 0 0 0 2.545 8H64v-8zm96-8c0-17.645-14.355-32-32-32s-32 14.355-32 32 14.355 32 32 32 32-14.355 32-32m-8 0c0 13.234-10.766 24-24 24s-24-10.766-24-24 10.766-24 24-24 24 10.766 24 24m-23.944 8c-2.249 0-4.055 1.79-4.055 4 0 2.247 1.77 4 4.018 4a3.98 3.98 0 0 0 3.982-4c0-2.172-1.807-4-3.945-4m-2.784-4h5.458l1.27-11.957V128h-8v7.956L141.27 148z"/></svg>