<svg xmlns="http://www.w3.org/2000/svg" viewBox="0 0 192 192"><path d="M160 152V72H32.02L32 152h48v16H64.06v8h64v-8h-16.05v-16zm-120-8 .02-64H152v64zm64.01 24H88v-16h16.01zm32.56-148.4c-4.63-4.72-12.24-4.8-16.97-.17-4.45 4.36-4.78 11.38-.92 16.12l-5.85 8.33c-.08-.09-.17-.19-.26-.28-4.56-4.66-12.01-4.8-16.75-.37l-7.97-5.08c.1-.65.14-1.32.15-1.99.04-4.27-1.58-8.31-4.57-11.36s-7-4.75-11.27-4.8c-4.24-.02-8.31 1.58-11.36 4.58A15.92 15.92 0 0 0 56 35.84c-.02 1.63.21 3.22.66 4.73l-7.51 3.67c-2.29-2.7-5.75-4.37-9.55-4.24-6.61.23-11.81 5.79-11.59 12.4C28.23 58.88 33.56 64 40 64c.13 0 .27-.01.4-.01 6.56-.22 11.73-5.68 11.6-12.23l8.83-4.32A15.93 15.93 0 0 0 72 51.99c4.05 0 8.09-1.51 11.2-4.56.57-.55 1.09-1.14 1.57-1.76l7.35 4.68c-.08.5-.11 1.01-.12 1.53a11.985 11.985 0 0 0 12 12.11c3.04 0 6.07-1.14 8.4-3.42 1.98-1.95 3.21-4.46 3.52-7.18l9.59-13.65c.82.17 1.65.26 2.49.26 3.03 0 6.07-1.14 8.4-3.43 2.29-2.24 3.57-5.24 3.6-8.45.03-3.2-1.19-6.23-3.43-8.52M44 51.99c0 2.15-1.7 3.93-3.86 4-2.2.09-4.06-1.66-4.14-3.86A4.007 4.007 0 0 1 39.87 48H40c2.15 0 3.93 1.7 4 3.86zm33.6-10.28c-3.15 3.09-8.22 3.04-11.31-.11A7.92 7.92 0 0 1 64 35.92a7.98 7.98 0 0 1 2.4-5.63A7.94 7.94 0 0 1 72 28h.08c2.14.02 4.14.88 5.63 2.4A7.94 7.94 0 0 1 80 36.08a7.9 7.9 0 0 1-2.4 5.63m29.2 13.15c-.76.74-1.77 1.16-2.84 1.14a3.95 3.95 0 0 1-2.81-1.2 4.01 4.01 0 0 1 .05-5.66A4 4 0 0 1 104 48c1.04 0 2.08.4 2.86 1.2.75.76 1.15 1.77 1.14 2.84s-.44 2.07-1.2 2.82m24-24a4.01 4.01 0 0 1-5.66-.06c-1.54-1.57-1.51-4.11.06-5.66A4 4 0 0 1 128 24c1.04 0 2.08.4 2.86 1.2.74.76 1.15 1.77 1.14 2.84s-.44 2.07-1.2 2.82m-6.8 73.51-8.98 10.8-16.92-3.93-2.55 10.95c.29.55.45 1.16.45 1.81 0 2.21-1.84 4-4.03 4-.75 0-1.46-.21-2.06-.58H72v.61c0 2.3-1.7 3.97-4 3.97v-16c1.15 0 2.15.42 2.86 1.13.72.71 1.14 1.71 1.14 2.87v.53h17.99c.06-.03.13-.07.2-.1l2.43-10.47-23.61-5.49 2.84-12.22z"/></svg>