<svg xmlns="http://www.w3.org/2000/svg" viewBox="0 0 192 192"><path d="M176.322 164 156 138.597v-29.123C156 92.67 144.121 80 128.369 80 112.196 80 100 92.467 100 109v29.597L79.678 164h32.848c1.78 6.89 8.02 12 15.448 12s13.667-5.11 15.448-12zM108 141.403V109c0-11.972 8.757-21 20.369-21C139.744 88 148 97.03 148 109.474v31.93L159.678 156H96.322zM127.974 168c-2.944 0-5.514-1.613-6.895-4h13.79c-1.382 2.387-3.952 4-6.895 4M92 120v8H60v-8h12v-12H16V16h140v69.276a34.6 34.6 0 0 0-8-7.428V24H24v76h68v8H80v12z"/></svg>