<svg xmlns="http://www.w3.org/2000/svg" viewBox="0 0 192 192"><path d="M48 32c0-8.822-7.178-16-16-16s-16 7.178-16 16 7.178 16 16 16 16-7.178 16-16m-16 8c-4.411 0-8-3.589-8-8s3.589-8 8-8 8 3.589 8 8-3.589 8-8 8m12 24a4 4 0 1 1 0-8 4 4 0 0 1 0 8m76-10.737V32h-8v-8.763c0-3.99-3.247-7.237-7.237-7.237H87.237C83.247 16 80 19.247 80 23.237V32h-8v21.613C62.42 62.608 44 83.593 44 112c0 35.39 8.862 52.504 12.672 58.219C59.409 174.325 62.692 176 68 176h56.101l.1-.005c.772-.039 7.632-.532 11.127-5.776C138.462 165.518 148 151.21 148 112c0-29.466-16.69-48.931-28-58.737M88 24h16v8H88zm-8 16h32v8H80zm48.672 125.781c-1.058 1.588-3.836 2.139-4.805 2.219H68c-2.945 0-3.554-.542-4.672-2.219C52.817 150.014 52 120.631 52 112c0-30.013 24.148-51.648 29.404-56h29.276c9.595 7.244 29.32 25.817 29.32 56 0 36.79-8.526 49.579-11.328 53.781M148 32c-6.617 0-12 5.383-12 12s5.383 12 12 12 12-5.383 12-12-5.383-12-12-12m0 16c-2.206 0-4-1.794-4-4s1.794-4 4-4 4 1.794 4 4-1.794 4-4 4m-44.342 28.108c-3.117.84-5.662 2.961-7.36 6.133-3.011 5.621-3.045 14.232-.09 23.032 3.958 11.787 13.437 22.927 22.244 22.927a10 10 0 0 0 2.58-.335c3.556-.95 6.343-3.174 8.06-6.434 4.46-8.47.575-21.7-1.302-26.993-4.883-13.773-14.357-20.97-24.132-18.33M120.25 97.11c3.082 8.692 3.773 16.775 1.763 20.594-.686 1.302-1.625 2.052-3.044 2.431-3.007.801-11.292-5.836-15.177-17.408-2.668-7.947-1.978-13.842-.442-16.709.64-1.195 1.444-1.93 2.391-2.186a6.7 6.7 0 0 1 1.76-.234c4.83 0 9.784 5.149 12.749 13.512"/></svg>