<svg xmlns="http://www.w3.org/2000/svg" viewBox="0 0 192 192"><path d="M176 116h-25.86l-6.812-10.22a3.98 3.98 0 0 0-3.577-1.773 4 4 0 0 0-3.33 2.204l-8.015 16.033-12.692-31.73a4 4 0 0 0-7.56.386L96 133.44l-4.154-14.539a4 4 0 0 0-3.846-2.9H72v-58.65c0-4.691-2.33-9.046-6.234-11.649L45.21 32H16v128h44c8.804 0 12-7.176 12-12v-24h12.982l7.172 25.1a4 4 0 0 0 7.692 0l12.786-44.75 11.654 29.135a4 4 0 0 0 3.548 2.512 3.98 3.98 0 0 0 3.744-2.208l8.917-17.835 4.176 6.265A4 4 0 0 0 148 124h28zM64 147.953c-.046 1.846-.778 4.047-4 4.047H24V40h18.79l18.538 12.36A5.99 5.99 0 0 1 64 57.351V100H40v36h24zM64 108v20H48v-20z"/></svg>