<svg xmlns="http://www.w3.org/2000/svg" viewBox="0 0 192 192"><path d="M72 120h20v8H72zm-8-8h28v-8H64zm-.46 22.42c-.22-.28-.44-.56-.68-.85L58.79 128H64v-8H52.94l-5.84-8H56v-8H41.25l-5.83-7.97H48v-8H29.58L24 80.4V64h16.57c.62-2.87 1.73-5.57 3.24-8H16v27.01l40.48 55.38.16.2c.21.26.42.52.61.78 1.46 1.84 3.65 4.63 8.43 4.63H92v-8H65.68c-.81 0-.89 0-2.14-1.58m74.37-2.42c-3.34 0-6.05 2.71-6.05 6.05s2.71 6.05 6.05 6.05 6.05-2.71 6.05-6.05-2.71-6.05-6.05-6.05m9.91-76c0-2.21-1.79-4-4-4H132c-1.15 0-2.19.49-2.92 1.27.81.86 1.56 1.77 2.23 2.73.9 1.26 1.68 2.59 2.32 4h10.19c2.21 0 4-1.79 4-4m15.79-20h-41.25c.96 1.26 1.81 2.6 2.55 4 .69 1.28 1.28 2.62 1.77 4h36.93c2.42 0 4.39 1.97 4.39 4.39v99.22c0 2.42-1.97 4.39-4.39 4.39h-51.22c-2.42 0-4.39-1.97-4.39-4.39V96h-8v51.61c0 6.83 5.56 12.39 12.39 12.39h51.22c6.83 0 12.39-5.56 12.39-12.39V48.39c0-6.83-5.56-12.39-12.39-12.39M100 88H65.26C56.07 88 48 79.28 48 69.33c0-1.86.29-3.65.84-5.33a17.47 17.47 0 0 1 5.42-8c1.9-1.59 4.15-2.78 6.62-3.43 1.95-7.47 8.75-12.95 16.7-12.95 1.31 0 2.6.15 3.86.44 2.76-3.36 6.45-5.82 10.56-7.07a21.3 21.3 0 0 1 8-.93c4.11.29 7.92 1.73 11.1 4 1.59 1.12 3.01 2.44 4.25 3.94 1.01 1.23 1.9 2.57 2.63 4a22 22 0 0 1 2.44 10.1c0 .36-.02 1.08-.05 1.9 0 .09-.01.18-.01.28 2.83 1.91 5.01 4.61 6.3 7.72.87 2.08 1.34 4.34 1.34 6.67 0 9.56-7.75 17.33-17.26 17.33zm0-8h10.74c5.1 0 9.26-4.19 9.26-9.33 0-2.55-1.04-4.94-2.79-6.67a9.3 9.3 0 0 0-2.7-1.85l-2.81-1.27.51-3.05c.06-.32.11-1.06.16-1.83.03-.68.05-1.4.05-1.9 0-3.34-1.16-6.42-3.1-8.84a14 14 0 0 0-2.92-2.74c-1.13-.79-2.37-1.42-3.7-1.85-.87-.28-1.77-.48-2.7-.58-.52-.06-1.05-.09-1.58-.09-2.29 0-4.48.55-6.42 1.56-2.26 1.17-4.2 2.97-5.58 5.27l-1.83 3.06-3.24-1.46a9.1 9.1 0 0 0-3.77-.81c-4.75 0-8.73 3.65-9.21 8.38l-.03.31-.23 3.48-3.49.24c-2.88.2-5.39 1.73-6.95 3.97A9.3 9.3 0 0 0 56 69.33C56 74.82 60.5 80 65.26 80z"/></svg>