<svg xmlns="http://www.w3.org/2000/svg" viewBox="0 0 192 192"><path d="M156 36v120H36V36zm8-8H28v136h136zM52 45h-8v20h8zm16 0h-8v20h8zm16 0h-8v20h8zm16 0h-8v20h8zm16 0h-8v20h8zm16 0h-8v20h8zm16 0h-8v20h8zM52 73h-8v20h8zm16 0h-8v20h8zm64 0h-8v20h8zm16 0h-8v20h8zm-96 28h-8v20h8zm16 0h-8v20h8zm16 0h-8v20h8zm16 0h-8v20h8zm16 0h-8v20h8zm16 0h-8v20h8zm16 0h-8v20h8zm-96 28h-8v20h8zm16 0h-8v20h8zm16 0h-8v20h8zm16 0h-8v20h8zm16 0h-8v20h8zm16 0h-8v20h8zm16 0h-8v20h8zM82 78a6 6 0 1 0 0 12 6 6 0 0 0 0-12m34 2H92v8h24z"/></svg>