<svg xmlns="http://www.w3.org/2000/svg" viewBox="0 0 192 192"><path d="M96.086 40c-24.261 0-44 19.738-44 44s19.739 44 44 44 44-19.738 44-44-19.738-44-44-44m36 44c0 1.352-.081 2.686-.227 4H100v-8h31.859c.146 1.314.227 2.648.227 4M100 112h18.679A35.83 35.83 0 0 1 100 119.783zm0-8v-8h30.022a36 36 0 0 1-4.019 8zm0-32v-8h26.003a36 36 0 0 1 4.02 8zm0-16v-7.783A35.83 35.83 0 0 1 118.679 56zM60.086 84c0-18.468 13.981-33.725 31.914-35.761v71.522C74.067 117.725 60.086 102.468 60.086 84M176 168h-8v8h-8v-8h-8v-8h8v-8h8v8h8zm-160-8h24v8H16zm84-128h-8V16h8zm-8 104h8v16h-8zM62.699 44.282l-9.405-12.944 6.473-4.702 9.404 12.944zm67.602 79.436 9.405 12.944-6.473 4.702-9.404-12.944zM33.064 59.183l15.217 4.944-2.472 7.608-15.217-4.944zm126.872 49.634-15.217-4.944 2.472-7.608 15.217 4.944zM45.809 96.265l2.472 7.608-15.217 4.944-2.472-7.608zm101.382-24.53-2.472-7.608 15.217-4.944 2.472 7.608zM62.7 123.718l6.472 4.702-9.404 12.944-6.473-4.702zm67.6-79.436-6.472-4.702 9.404-12.944 6.473 4.702z"/></svg>