<svg xmlns="http://www.w3.org/2000/svg" viewBox="0 0 192 192"><path d="M152 36a4 4 0 1 1-8 0 4 4 0 0 1 8 0m24-4v120c0 8.822-7.178 16-16 16v8h-8v-8H40v8h-8v-8c-8.822 0-16-7.178-16-16V32c0-8.822 7.178-16 16-16h128c8.822 0 16 7.178 16 16m-9.013 88h-23.792c-1.988 9.753-7.536 18.227-15.223 24H136c14.884 0 27.426-10.214 30.987-24m-32 0h-23.792c-1.988 9.753-7.536 18.227-15.223 24H104c14.884 0 27.426-10.214 30.987-24m-46.928-8c0-8.822-7.178-16-16-16s-16 7.178-16 16zm-29.835 8c2.771 4.774 7.928 8 13.835 8s11.063-3.226 13.835-8zm37.835-8H104c0-17.645-14.355-32-32-32s-32 14.355-32 32h8.059c0-13.234 10.766-24 24-24s24 10.766 24 24m-55.046 8c3.56 13.786 16.103 24 30.987 24s27.426-10.214 30.987-24h-8.304c-3.303 9.311-12.195 16-22.624 16s-19.322-6.689-22.624-16zm-8.208 0H24v24h24.028c-7.687-5.773-13.235-14.247-15.223-24M168 152H24c0 4.411 3.589 8 8 8h128c4.411 0 8-3.589 8-8m0-8v-8.028a40.4 40.4 0 0 1-8.028 8.028zm0-88H24v56h8c0-22.056 17.944-40 40-40s40 17.944 40 40h24c0-17.645-14.355-32-32-32v-8c22.056 0 40 17.944 40 40h24c0-17.645-14.355-32-32-32v-8c13.07 0 24.696 6.303 32 16.028zm0-8V32c0-4.411-3.589-8-8-8H32c-4.411 0-8 3.589-8 8v16zM40 40h8v-8h-8zm16 0h8v-8h-8zm16 0h8v-8h-8zm16 0h8v-8h-8z"/></svg>