<svg xmlns="http://www.w3.org/2000/svg" viewBox="0 0 192 192"><path d="M40 24h-8v-8h8zm80 136h8v-8h16v-8h-24zm40 0h8v8h8v8H16V16h8v24h8v24h8v16h16v-8h8v8h8v8h8v-8h8v-8h8v16h-8v24h16v-8h8v-8h8v8h8v-8h16v8h-8v8h8v8h-8v16h-16v8h-8v8h-8v16h24v-8h8v8h24zM48 96h16v-8H48zm-24 0h8v-8h-8zm8 72v-8h-8v8zm56 0v-8h8v-8h-8v-8h8v-8h-8v-8h40v-8H88v8h-8v-8h-8v-8h-8v8H40v-8h-8v-8h-8v24h8v-8h8v8h16v8h-8v8h-8v-8H24v8h8v8h8v16h16v-8h-8v-16h16v24h8v-16h8v16zm88-24v-8h-8v8zm0 16v-8h-8v8zm-24-8v8h8v-8h8v-8h-16zm-80-8h16v-8H72zm0-128h-8v8h8zm-8 16v8h16v-8h16v16h8v-8h8v-8h-8V16h-8v8h-8v-8h-8v8h-8v8zm-8 24V40h-8v24h16v-8zm96 24v-8h-16v8zm0 0v8h16v-8h8v-8h-16v8zm0 24h8v8h16v-8h-8v-8h-16zm-40-24h-8v8h16V72h-8zm40 48h-8v8h24v-8h8v-8h-16v-8h-8zM40 32v8h8v-8zm64 24h8v-8h-8zm48 16h8v-8h-8zm24 24v-8h-8v8zm-56-56h-8v8h8v16h8v8h8v-8h8v-8h8v-8h-16V16h-8v8h-8v-8h-8v16h8zm-56-8v-8h-8v-8h-8v16zm16 40V56h8V40h-8v8h-8v16h-8v8zm88-40h8v-8h-8v-8h-8v8h-8v-8h-8v16h8v16h8v16h16v-8h-8v-8h8v-8h-16v-8z"/></svg>