<svg xmlns="http://www.w3.org/2000/svg" viewBox="0 0 192 192"><path d="M53.909 102.126c0 6.897-4.504 11.685-10.992 11.685-6.425 0-10.865-4.724-10.865-11.559 0-6.802 4.598-11.652 11.054-11.652 6.3 0 10.803 4.818 10.803 11.526m-16.597.095c0 4.693 2.141 7.527 5.7 7.527s5.637-2.771 5.637-7.527c0-4.661-2.141-7.559-5.606-7.559-3.622 0-5.731 2.772-5.731 7.559m19.77-11.275h5.731l8.346 15.275V90.946h4.599v22.518h-5.512l-8.566-15.62v15.62h-4.598zm22.91 0h15.81v4.063H84.968v5.07h8.251v3.748h-8.251v5.574h11.338v4.063H79.992zM141.815 16H60v56H16v60h44v44h112V50.497zM144 30.646 159.185 48H144zM24 80h80v44H24zm44 88v-36h44V72H68V24h68v32h28v112z"/></svg>