<svg xmlns="http://www.w3.org/2000/svg" viewBox="0 0 192 192"><path d="M141.815 16H60v56H16v60h44v44h112V50.497zM144 30.646 159.185 48H144zM24 80h120v44H24zm44 88v-36h84V72H68V24h68v32h28v112zm-12.871-62.575q0 8.875-8.24 8.875-4.25 0-6.465-2.394-1.938-2.067-1.938-5.618v-1.27h5.162v.928q0 4.055 3.045 4.055 1.742 0 2.459-1.237.635-1.075.635-3.371V90.085h5.341v15.34Zm8.192 1.205q.732 1.807 1.995 2.638c1.263.831 1.936.83 3.282.83q2.133 0 3.273-.879.993-.781.994-2.052 0-1.286-1.01-1.905-.896-.57-3.322-1.14-2.752-.62-3.973-1.018-1.221-.399-2.068-.936-2.703-1.726-2.703-5.114 0-3.648 2.605-5.585 2.296-1.71 6.188-1.71 5.667 0 8.875 4.267l-4.332 2.394q-.944-1.287-2.011-1.873-1.066-.586-2.5-.586-3.729 0-3.729 2.573 0 1.123.904 1.734c.904.611 1.68.763 3.232 1.066q4.462.912 6.27 2.036 2.769 1.824 2.769 5.456 0 3.843-2.769 5.781-2.41 1.693-6.644 1.693-3.99 0-6.465-1.563-2.166-1.384-3.468-4.152zm29.752-16.92q3.29 0 5.927 1.58 2.573 1.564 4.022 4.315 1.482 2.801 1.482 6.318 0 5.863-3.664 9.348-3.176 3.029-7.979 3.029-5.456 0-8.696-3.843-2.802-3.354-2.801-8.403 0-3.55 1.515-6.4 1.482-2.785 4.12-4.348 2.687-1.595 6.074-1.596m-.244 4.3q-2.931 0-4.511 2.426-1.384 2.1-1.384 5.553 0 4.005 1.824 6.155Q90.338 110 92.976 110q3.012 0 4.592-2.377 1.368-2.068 1.368-5.569 0-4.055-1.824-6.188-1.596-1.856-4.283-1.856m16.545-3.925h6.074l8.826 16.171V90.085h4.869v23.841h-5.83l-9.071-16.545v16.545h-4.869z"/></svg>