<svg xmlns="http://www.w3.org/2000/svg" xml:space="preserve" viewBox="0 0 192 192"><path d="m63.378 89.702-9.004 24.57h5.155l1.615-4.673h9.965l1.58 4.673h5.843L69.7 89.702zm-.927 15.978 3.71-10.789 3.643 10.79zM76.62 89.702H96v4.432h-6.94v20.138H83.56V94.134H76.62zm-35.514 0H32v24.57h8.934c7.904 0 12.44-4.502 12.44-12.37 0-7.733-4.502-12.2-12.268-12.2m.104 20.206h-3.712V94.066h3.677c4.192 0 6.46 2.784 6.46 7.904 0 5.154-2.233 7.938-6.425 7.938M176 131.446V176h-44.558l8-8H168v-28.554zM72 132h40V72H72l-.003-48.025H140V56h27.998L168 93.941a22 22 0 0 1 8 4.686l-.003-48.155-30.184-34.497H63.997L64 72H16v60h48v44h29.648l2-8H72zm76-101.376L163.204 48H148zM24 124V80h80v44zm147.082-19.065c-5.55-5.55-14.584-5.55-20.134 0l-41.724 41.749-6.704 26.814 26.814-6.704 38.962-38.962.013.012 2.773-2.773c5.552-5.552 5.552-14.584 0-20.136m-45.838 54.635-11.728 2.932 2.933-11.729 32.542-32.542 8.796 8.797zm40.504-40.504-2.304 2.305-8.797-8.796 2.308-2.308a6.2 6.2 0 0 1 4.06-1.502c1.666 0 3.232.65 4.411 1.827a6.2 6.2 0 0 1 1.826 4.41 6.2 6.2 0 0 1-1.504 4.064"/></svg>