<svg xmlns="http://www.w3.org/2000/svg" viewBox="0 0 192 192"><path d="M120 100H56v-8h64zm-64 20h40v-8H56zm84 26.343-5.171-5.172-5.658 5.658L140 157.657l18.829-18.828-5.658-5.658zM176 144c0 17.645-14.355 32-32 32s-32-14.355-32-32 14.355-32 32-32 32 14.355 32 32m-8 0c0-13.234-10.766-24-24-24s-24 10.766-24 24 10.766 24 24 24 24-10.766 24-24m-48-72H56v8h64zm0 103.978V176H40V16h81.815L152 50.497v54.308a40 40 0 0 0-8-.805V56h-28V24H48v144h64.022a40.3 40.3 0 0 0 7.978 7.978M124 48h15.185L124 30.646z"/></svg>