<svg xmlns="http://www.w3.org/2000/svg" viewBox="0 0 192 192"><path d="M141.815 16H60v56H16v60h44v44h112V50.497zM144 30.646 159.185 48H144zM24 80h80v44H24zm44 88v-36h44V72H68V24h68v32h28v112zM38.168 91.584h-7.687v20.74h7.542c6.672 0 10.5-3.8 10.5-10.443 0-6.527-3.8-10.297-10.355-10.297m.087 17.056h-3.132V95.268h3.103c3.54 0 5.454 2.35 5.454 6.671 0 4.351-1.886 6.7-5.425 6.7zm34.948-17.056h4.467l-5.366 20.74h-4.786l-3.945-14.01-4.032 14.01h-4.844l-5.338-20.74h4.873l3.423 14.59 4.033-14.59h3.857l4.061 14.706zm15.657 9.398h8.905v11.342h-2.581l-.812-3.046c-1.625 2.35-3.568 3.365-6.411 3.365-5.714 0-9.601-4.264-9.601-10.588 0-6.352 4.119-10.79 10.355-10.79 2.466 0 4.612.725 6.207 2.146.813.725 1.306 1.422 1.886 2.553l-4.206 1.682c-.9-1.856-2.146-2.64-4.264-2.64-3.249 0-5.134 2.582-5.134 7.02 0 4.38 1.914 6.875 5.308 6.875 2.785 0 4.728-1.77 4.728-4.293v-.174h-4.38z"/></svg>