<svg xmlns="http://www.w3.org/2000/svg" xml:space="preserve" viewBox="0 0 192 192"><path d="M118.737 128H73.263C63.744 128 56 120.256 56 110.737c0-7.942 5.448-14.742 12.883-16.696 1.953-7.435 8.754-12.883 16.696-12.883 1.314 0 2.606.146 3.865.435 4.146-5.007 10.397-8.014 16.977-8.014 12.13 0 22 9.87 22 22q0 .427-.017.858a17.3 17.3 0 0 1 7.596 14.3c0 9.519-7.744 17.263-17.263 17.263M85.579 89.158c-4.851 0-8.909 3.787-9.238 8.622l-.237 3.482-3.482.237c-4.834.33-8.622 4.387-8.622 9.238 0 5.108 4.155 9.263 9.263 9.263h45.474c5.108 0 9.263-4.155 9.263-9.263 0-3.643-2.15-6.961-5.48-8.455l-2.828-1.268.523-3.056c.137-.798.206-1.599.206-2.379 0-7.72-6.28-14-14-14-4.957 0-9.444 2.54-12.005 6.796l-1.827 3.036-3.235-1.448a9.2 9.2 0 0 0-3.775-.805M121.815 16H40v160h112V50.497zM124 30.646 139.185 48H124zM48 168V24h68v32h28v112z"/></svg>