<svg xmlns="http://www.w3.org/2000/svg" xml:space="preserve" viewBox="0 0 192 192"><path d="M121.815 16H40v160h112V50.497zM124 30.646 139.185 48H124zM48 168V24h68v32h28v112zm31.678-84-10.515 29.14h7.418l1.63-4.931h11.126l1.59 4.932h8.518L89.134 84zm.367 18.544 3.79-11.371 3.709 11.37zm40.923-2.649c0-2.69-.407-4.32-1.508-5.706-1.467-1.956-4.116-2.935-7.907-2.935-4.238 0-7.254.897-10.31 3.017l3.056 5.013c1.834-1.305 4.034-1.997 6.154-1.997 2.079 0 2.935.815 2.935 2.69v.203c-8.804.204-12.431 2.364-12.431 7.336 0 3.79 2.527 6.114 6.684 6.114 2.69 0 4.728-1.06 6.113-3.138.122 1.06.367 2.078.57 2.649h7.256v-.245c-.408-1.06-.612-2.242-.612-3.75zm-7.54 5.747c0 1.589-1.263 2.73-3.016 2.73-1.263 0-1.997-.652-1.997-1.712s.652-1.711 1.997-1.996c.775-.205 1.264-.245 3.016-.286z"/></svg>