<svg xmlns="http://www.w3.org/2000/svg" viewBox="0 0 192 192"><path d="M112.43 168H68v-52h44V56H68V24h68v32h28v52.83c2.92 1.69 5.61 3.74 8 6.1V50.5L141.81 16H60v40H16v60h44v60h60.76a40.3 40.3 0 0 1-8.33-8M144 30.64 159.19 48H144zM24 64h80v44H24zm148 63.993v-.003c-.026-.048-.056-.093-.082-.14a32 32 0 0 0-.682-1.163q-.087-.137-.176-.274c-.214-.338-.43-.674-.656-1.003-.1-.146-.205-.288-.307-.432-.19-.266-.378-.532-.575-.792q-.236-.308-.479-.609c-.15-.189-.298-.38-.453-.565-.216-.26-.44-.513-.663-.766q-.159-.181-.321-.363a32 32 0 0 0-.841-.882q-.096-.1-.194-.199-.488-.486-.997-.95l-.093-.087q-.546-.495-1.114-.965l-.033-.028c-.112-.093-.22-.19-.334-.282v.02c-5.483-4.404-12.437-7.047-20-7.047-17.645 0-32 14.355-32 32 0 9.845 4.472 18.662 11.488 24.537h-.008q.05.04.1.08.204.166.41.328.35.285.71.558.272.206.55.405.299.219.604.43a32 32 0 0 0 1.188.78 32 32 0 0 0 1.98 1.148q.226.119.453.233c.283.145.566.29.854.426q.136.063.274.125a32 32 0 0 0 3.317 1.314c.114.038.227.08.342.116.31.1.624.19.938.28q.24.07.483.137.449.119.903.226a32 32 0 0 0 2.906.553c.2.029.4.052.601.077.299.036.597.073.897.101.2.019.401.03.602.046.307.023.613.048.922.062.158.007.318.007.477.012.336.01.67.026 1.009.026.699 0 1.39-.03 2.078-.075q.2-.014.4-.03a32 32 0 0 0 1.732-.18c.112-.016.226-.028.338-.044a32 32 0 0 0 2.026-.353l.064-.015a32 32 0 0 0 2.263-.572q.84-.244 1.665-.532.11-.036.221-.075.945-.34 1.862-.736c.075-.032.148-.068.223-.1q.791-.35 1.56-.74l.354-.183a32 32 0 0 0 3.364-2.03q.119-.083.235-.168.705-.496 1.38-1.029.122-.095.243-.19a32 32 0 0 0 2.933-2.672q.087-.09.172-.18a32 32 0 0 0 1.246-1.378q.045-.05.088-.102a32 32 0 0 0 2.422-3.27l.097-.15A31.8 31.8 0 0 0 176 143.463a31.8 31.8 0 0 0-4-15.47m-4.06 17.088a24 24 0 0 1-.197 1.883c-.007.04-.01.082-.017.123a24 24 0 0 1-.384 1.938q-.157.666-.351 1.316-.029.1-.057.2a25 25 0 0 1-1.194 3.073l-.065.146q-.343.715-.732 1.404-.058.104-.118.206-.389.68-.82 1.333c-4.303 6.479-11.662 10.76-20.005 10.76-13.234 0-24-10.766-24-24s10.766-24 24-24c8.402 0 15.804 4.342 20.093 10.898q.355.542.68 1.105.102.175.202.35.36.641.68 1.305.07.156.14.311a24 24 0 0 1 .653 1.55c.17.452.333.908.477 1.372.033.105.06.214.091.32a24 24 0 0 1 .427 1.663c.107.49.205.984.281 1.484.01.062.015.124.024.186a24 24 0 0 1 .192 1.844c.035.53.06 1.063.06 1.603v.007c0 .545-.025 1.084-.06 1.62M38.22 93.458h9.325v4.994H31.994v-22.6h6.227v17.606zm22.255-17.954c-3.224 0-5.69.885-7.776 2.781-2.307 2.118-3.572 5.28-3.572 8.915 0 6.922 4.552 11.632 11.221 11.632s11.19-4.71 11.19-11.664c0-6.89-4.52-11.664-11.063-11.664m-.158 18.334c-3.066 0-4.742-2.34-4.742-6.638 0-4.426 1.644-6.702 4.837-6.702 3.003 0 4.678 2.371 4.678 6.67 0 4.362-1.644 6.67-4.773 6.67m25.51-8.061h10.115v12.675h-3.256l-1.138-2.97c-1.675 2.338-3.793 3.35-6.828 3.35-6.353 0-10.652-4.679-10.652-11.601s4.615-11.727 11.316-11.727c2.876 0 5.373.853 7.207 2.434 1.075.948 1.644 1.77 2.434 3.445l-5.69 2.308c-.821-2.245-2.054-3.193-4.11-3.193-3.034 0-4.709 2.402-4.709 6.796s1.739 6.733 5.026 6.733c2.623 0 4.362-1.517 4.362-3.762v-.094h-4.077zM152 152h-16v-16h16z"/></svg>