<svg xmlns="http://www.w3.org/2000/svg" viewBox="0 0 192 192"><path d="M121.81 16H40v160h80.12a40.2 40.2 0 0 1-8.05-8H48V24h68v32h28v47.93c2.74 0 5.42.28 8 .8V50.5zM124 48V30.65L139.18 48zm20 63.93c-17.65 0-32 14.36-32 32s14.35 32 32 32 32-14.35 32-32-14.35-32-32-32m0 56c-13.23 0-24-10.76-24-24s10.77-24 24-24 24 10.77 24 24-10.77 24-24 24m0-56c-17.65 0-32 14.36-32 32s14.35 32 32 32 32-14.35 32-32-14.35-32-32-32m0 56c-13.23 0-24-10.76-24-24s10.77-24 24-24 24 10.77 24 24-10.77 24-24 24m0-56c-17.65 0-32 14.36-32 32s14.35 32 32 32 32-14.35 32-32-14.35-32-32-32m0 56c-13.23 0-24-10.76-24-24s10.77-24 24-24 24 10.77 24 24-10.77 24-24 24m-7.992-36.757 20 12.857-20 12.857z"/></svg>