<svg xmlns="http://www.w3.org/2000/svg" viewBox="0 0 192 192"><path d="M141.815 16H60v56H16v60h44v44h112V50.497zM144 30.646 159.185 48H144zM24 124V80h80v44zm140 44H68v-36h44V72H68V24h68v32h28zM38.221 108.458h9.325v4.994H31.994v-22.6h6.227zm22.255-17.954c-3.224 0-5.69.885-7.776 2.781-2.307 2.118-3.572 5.28-3.572 8.915 0 6.922 4.552 11.632 11.221 11.632s11.19-4.71 11.19-11.664c0-6.89-4.52-11.664-11.063-11.664m-.158 18.334c-3.066 0-4.742-2.34-4.742-6.638 0-4.426 1.644-6.702 4.837-6.702 3.003 0 4.678 2.371 4.678 6.67 0 4.362-1.644 6.67-4.773 6.67m25.51-8.061h10.115v12.675h-3.256l-1.138-2.97c-1.675 2.338-3.793 3.35-6.828 3.35-6.353 0-10.652-4.679-10.652-11.601s4.615-11.727 11.316-11.727c2.876 0 5.373.853 7.207 2.434 1.075.948 1.644 1.77 2.434 3.445l-5.69 2.308c-.821-2.245-2.054-3.193-4.11-3.193-3.034 0-4.709 2.402-4.709 6.796s1.739 6.733 5.026 6.733c2.623 0 4.362-1.517 4.362-3.762v-.094h-4.077z"/></svg>