<svg xmlns="http://www.w3.org/2000/svg" viewBox="0 0 192 192"><path d="M141.815 16H60v56H16v60h44v44h112V50.497zM144 30.646 159.185 48H144zM24 80h80v44H24zm44 88v-36h44V72H68V24h68v32h28v112zM42.518 91.627h-7.95v21.45h7.8c6.9 0 10.86-3.93 10.86-10.8 0-6.75-3.93-10.65-10.71-10.65m.09 17.64h-3.24v-13.83h3.21c3.66 0 5.64 2.43 5.64 6.9 0 4.5-1.95 6.93-5.61 6.93m24.57-7.38 7.26 11.19h-5.73l-4.59-7.71-4.62 7.71h-5.16l7.23-11.04-6.69-10.41h5.7l3.99 6.84 3.96-6.84h5.13zm10.35-10.26h14.79v3.87h-9.99v5.67h7.71v3.75h-7.71v8.16h-4.8z"/></svg>