<svg xmlns="http://www.w3.org/2000/svg" viewBox="0 0 192 192"><path d="M141.815 16H60v56H16v60h44v44h112V50.497zM144 30.646 159.185 48H144zM24 80h80v44H24zm44 88v-36h44V72H68V24h68v32h28v112zM31.795 91h14.184v3.866h-9.578v5.668h7.387v3.749h-7.387v8.157h-4.606zm16.726 0h4.831l3.399 15.084L60.739 91h3.834l4.03 15.201L72.158 91h4.437l-5.322 21.44h-4.747l-3.904-14.484-4.003 14.484h-4.803zm31.304 0h9.03q3.538 0 5.406 1.845 1.644 1.626 1.644 4.306 0 2.313-1.124 3.705-.519.645-1.116 1.01c-.597.365-.944.479-1.636.703q1.46.455 2.183 1.399.724.945 1.117 2.892 1.04 4.599 1.671 5.463v.117h-4.719q-.773-1.45-1.545-5.155-.35-1.64-1.088-2.336c-.738-.696-1.205-.695-2.142-.695h-3.131v8.186h-4.55zm8.341 9.68q1.686 0 2.528-.878.73-.762.73-2.11 0-2.943-2.935-2.943h-4.114v5.931z"/></svg>