<svg xmlns="http://www.w3.org/2000/svg" viewBox="0 0 192 192"><path d="M141.815 16H60v56H16v60h44v44h112V50.497zM144 30.646 159.185 48H144zM24 80h80v44H24zm44 88v-36h44V72H68V24h68v32h28v112zm-27.782-61.404q.704 1.736 1.916 2.533 1.211.798 3.15.798 2.049 0 3.144-.845.953-.75.954-1.97 0-1.234-.97-1.83-.86-.548-3.19-1.095-2.643-.594-3.815-.977-1.174-.383-1.987-.899-2.595-1.658-2.595-4.91 0-3.502 2.502-5.364 2.205-1.642 5.942-1.642 5.442 0 8.522 4.097l-4.16 2.299q-.906-1.235-1.93-1.798c-1.024-.563-1.483-.563-2.4-.563q-3.582 0-3.582 2.47 0 1.08.868 1.666c.868.586 1.613.732 3.104 1.024q4.286.876 6.02 1.955 2.66 1.751 2.66 5.239 0 3.69-2.66 5.55-2.313 1.627-6.38 1.627-3.831 0-6.207-1.501-2.08-1.329-3.332-3.988zm23.05-11.76h-6.474v-4.128h18.061v4.128h-6.458v18.766h-5.129zm14.965-4.128h9.743q4.16 0 6.333 2.22 1.892 1.94 1.892 5.208 0 3.565-2.392 5.442-2.096 1.641-5.615 1.642h-4.832v8.382h-5.129zm9.414 10.696q1.86 0 2.768-.985.797-.86.797-2.377 0-3.268-3.534-3.268h-4.316v6.63z"/></svg>