<svg xmlns="http://www.w3.org/2000/svg" xml:space="preserve" viewBox="0 0 192 192"><path d="M170.83 82.17c-5.972-5.97-15.688-5.97-21.66 0l.001.001-44.667 44.668-10.829 32.486 32.486-10.829 44.668-44.667c5.972-5.971 5.972-15.687 0-21.659m-61.082 54.235 6.847 6.847-10.27 3.423zm55.423-38.234-41.17 41.172L113.656 129l41.172-41.171-.001-.001c2.851-2.853 7.493-2.853 10.344 0 2.853 2.852 2.853 7.492 0 10.344M120 80H56v-8h64zm0 20H56v-8h64zm-64 12h40v8H56zm88 29.97V168H48V24h68v32h28v20.05a23.2 23.2 0 0 1 8-4.955V50.497L121.815 16H40v160h112v-42.03zM124 30.647 139.185 48H124z"/></svg>