<svg xmlns="http://www.w3.org/2000/svg" viewBox="0 0 192 192"><path d="M136 176H36V32h12v8h-4v128h84v-4h8zm20-160H56v140h100zm-92 8h84v124H64zm76 48H72v8h68zm0 20H72v8h68zm-24 20H72v8h44zM87.807 49.667c-.925 2.537-2.119 3.552-4.119 3.552-2.895 0-4.417-2.179-4.417-6.298s1.493-6.297 4.298-6.297c1.94 0 3.074.925 4.03 3.342l5.193-2.178c-.836-1.762-1.433-2.627-2.478-3.582-1.67-1.492-3.97-2.298-6.655-2.298-6.179 0-10.476 4.566-10.476 11.103 0 6.685 4.088 10.924 10.535 10.924q3.627 0 6.178-1.88c1.433-1.075 2.299-2.24 3.164-4.21zm24.857 7.91h3.073v-11.97h-9.55v4.15h3.85v.09c0 2.118-1.641 3.55-4.119 3.55-3.104 0-4.745-2.208-4.745-6.356 0-4.15 1.581-6.417 4.447-6.417 1.94 0 3.104.895 3.88 3.014l5.372-2.179c-.746-1.582-1.283-2.357-2.298-3.253-1.731-1.492-4.09-2.298-6.805-2.298-6.328 0-10.685 4.536-10.685 11.073 0 6.536 4.06 10.954 10.058 10.954 2.865 0 4.865-.956 6.447-3.164l1.075 2.805zm7.216 0h5.88v-7.253h4c4.835 0 7.73-2.597 7.73-6.895 0-4.536-2.985-7.193-8.03-7.193h-9.58zm5.88-11.521v-5.403h3.223c1.88 0 2.866.926 2.866 2.686 0 1.762-1.015 2.717-2.895 2.717z"/></svg>