<svg xmlns="http://www.w3.org/2000/svg" viewBox="0 0 192 192"><path d="M136 176H36V32h12v8h-4v128h84v-4h8zm20-160H56v140h100zm-92 8h84v124H64zm76 48H72v8h68zm0 20H72v8h68zm-24 20H72v8h44zM87.807 49.667c-.925 2.537-2.119 3.552-4.119 3.552-2.895 0-4.417-2.179-4.417-6.298s1.493-6.297 4.298-6.297c1.94 0 3.074.925 4.03 3.342l5.193-2.178c-.836-1.762-1.433-2.627-2.478-3.582-1.67-1.492-3.97-2.298-6.655-2.298-6.179 0-10.476 4.566-10.476 11.103 0 6.685 4.088 10.924 10.535 10.924q3.627 0 6.178-1.88c1.433-1.075 2.299-2.24 3.164-4.21zm8.292 7.91h8.237c6.865 0 11.043-4.09 11.043-10.775 0-6.567-4.118-10.566-10.894-10.566H96.1v21.34zm5.88-4.597V40.833h2.537c3.133 0 4.775 2.089 4.775 6.058 0 3.97-1.642 6.089-4.716 6.089zm32.497 6.984 3.283-2.627-2-2.298c2.149-2.238 3.164-4.865 3.164-8.237 0-6.477-4.298-10.894-10.566-10.894-6.178 0-10.595 4.596-10.595 11.073 0 6.566 4.178 10.954 10.416 10.954a12.1 12.1 0 0 0 4-.657zm-3.85-10.954-3.224 2.686 1.641 1.94c-.179.03-.298.03-.566.03-3.134 0-4.626-2.148-4.626-6.685 0-4.179 1.522-6.357 4.476-6.357 2.925 0 4.507 2.238 4.507 6.327 0 1.582-.18 2.805-.567 3.97l-1.642-1.91z"/></svg>