<svg xmlns="http://www.w3.org/2000/svg" viewBox="0 0 192 192"><path d="M32.194 90.172h10.07c5.367 0 8.514 2.849 8.514 7.685 0 4.605-3.08 7.322-8.281 7.322h-5.003v8.679h-5.3zm9.74 11.065c2.384 0 3.676-1.226 3.676-3.479s-1.225-3.379-3.644-3.379h-4.472v6.858zm30.575 3.147c0 6.393-3.38 9.838-9.673 9.838-6.327 0-9.74-3.412-9.74-9.706V90.172h5.301v14.079c0 3.976 1.325 5.665 4.472 5.665 3.214 0 4.605-1.789 4.605-5.864v-13.88h5.035zm4.272-14.212h10.7c5.035 0 7.751 2.186 7.751 6.261 0 2.55-.927 3.975-3.345 5.102 3.014 1.027 4.24 2.683 4.24 5.664 0 4.34-2.882 6.659-8.282 6.659H76.781zm10.402 9.574c1.987 0 2.915-.894 2.915-2.783s-.994-2.75-3.147-2.75h-4.97v5.533zm.265 10.07c2.219 0 3.445-1.126 3.445-3.18 0-2.02-1.259-3.114-3.644-3.114h-5.267v6.294zM141.815 16H60v56H16v60h44v44h112V50.497zM144 30.646 159.185 48H144zM24 80h80v44H24zm44 88v-36h44V72H68V24h68v32h28v112z"/></svg>