<svg xmlns="http://www.w3.org/2000/svg" viewBox="0 0 192 192"><path d="m39.45 109.353 11.23-14.907h-10.7v-4.274h16.795v4.638l-11.13 14.774h11.429v4.274H39.45zm21.963-19.18h5.3v23.685h-5.3V90.172zm10.751 0h10.07c5.367 0 8.515 2.848 8.515 7.684 0 4.605-3.082 7.322-8.282 7.322h-5.003v8.679h-5.3V90.172zm9.74 11.064c2.385 0 3.677-1.226 3.677-3.479s-1.226-3.379-3.644-3.379h-4.473v6.858zM141.813 16H60v56H16v60h44v44h112V50.497L141.815 16zM144 30.646 159.185 48H144zM24 80h80v44H24zm44 88v-36h44V72H68V24h68v32h28v112z"/></svg>