<svg xmlns="http://www.w3.org/2000/svg" xml:space="preserve" viewBox="0 0 192 192"><path d="M33.194 90.172h10.07c5.367 0 8.514 2.849 8.514 7.685 0 4.605-3.08 7.322-8.281 7.322h-5.003v8.679h-5.3zm9.74 11.065c2.384 0 3.676-1.226 3.676-3.479s-1.225-3.379-3.644-3.379h-4.472v6.858zm12.345-11.065h10.07c5.367 0 8.514 2.849 8.514 7.685 0 4.605-3.08 7.322-8.281 7.322h-5.003v8.679h-5.3zm9.74 11.065c2.384 0 3.676-1.226 3.676-3.479s-1.225-3.379-3.644-3.379H60.58v6.858zm17.615-6.791h-6.692v-4.274h18.684v4.274h-6.691v19.412h-5.3zM141.814 16H60v56H16v60h44v44h112V50.497zM144 30.646 159.185 48H144zM24 80h80v44H24zm44 88v-36h44V72H68V24h68v32h28v112z"/></svg>