<svg xmlns="http://www.w3.org/2000/svg" viewBox="0 0 192 192"><path d="M175.705 60.465c-.872 4.113-8.248 25.84-9.087 28.303l-.674 1.983-39.731 11.342c1.845 6.142 5.373 18.308 7.461 28.203l.026.13c1.899 10.77 1.91 24.871 1.91 25.467l-8-.006c0-.138-.013-13.942-1.777-24.005-2.785-13.171-8.396-31.142-8.453-31.322l-1.226-3.915 43.563-12.436c3.212-9.487 7.616-22.826 8.162-25.403.287-1.352.156-4.064-1.38-5.99-1.39-1.745-3.784-2.657-7.114-2.712-11.782-.19-26.165-.144-26.308-.144l-2.066.007-1.201-1.68c-.054-.075-5.619-7.763-12.42-11.867-1.519-.715-8.211-3.353-20.49-1.198-18.282 4.013-34.907 18.51-35.073 18.656-.12.104-9.55 8.452-11.894 21.943-2.662 15.321-2.231 27.674-1.606 31.257l.118.694c1.214 7.195 3.36 14.035 10.782 15.353 10.207 1.818 18.428-3.883 21.008-8.508 2.807-5.035 5.916-16.909 4.035-27.546-1.917-10.838-4.47-19.505-4.496-19.592l7.67-2.274c.11.37 2.703 9.164 4.703 20.473 2.094 11.838-.975 25.753-4.926 32.835-4.357 7.813-16.14 14.842-29.394 12.49-5.312-.945-8.948-3.564-11.468-6.739l-23.187 30.217-6.346-4.87 25.45-33.167c-.97-2.913-1.426-5.6-1.72-7.341l-.11-.65c-.834-4.775-1.134-18.229 1.605-34 2.85-16.406 14.05-26.2 14.524-26.61.708-.623 18.382-16.029 38.698-20.455l.155-.03c14.4-2.546 22.721.516 25.63 1.95l.275.15c6.25 3.714 11.402 9.619 13.701 12.498 4.384-.008 15.222 0 24.48.15 7.269.118 11.213 3.177 13.242 5.724 3.28 4.116 3.639 9.379 2.95 12.635z"/></svg>