<svg xmlns="http://www.w3.org/2000/svg" viewBox="0 0 192 192"><path d="M64 28v20h8v-9.158l44 8.462v97.392l-44 8.462V80h-8v84h96V28zm88 128H99.581L124 151.304V40.696L99.581 36H152zm-44-64v8H92v-8zM42.829 81.171 57.657 96l-14.828 14.829-5.658-5.658L42.343 100H20v-8h22.343l-5.172-5.171zM23.457 66.242h3.32q2.416 0 3.856-1.128 1.643-1.29 1.643-3.738 0-2.245-1.3-3.577-1.492-1.526-4.35-1.526h-6.692V72h3.523zm0-7.176h2.965q2.428 0 2.428 2.246 0 1.042-.548 1.632-.624.677-1.902.677h-2.943zm12.438 11.301q-1.45-1.644-1.45-4.565v-9.529h3.523v9.346q0 2.116.805 2.997.698.774 2.16.774 1.707 0 2.427-1.064.634-.934.634-2.836v-9.217h3.34v9.432q0 3.405-1.868 5.081-1.634 1.461-4.555 1.461-3.363 0-5.016-1.88m25.883-3.05q-.001 2.534-1.826 3.813-1.59 1.117-4.383 1.117-2.632 0-4.265-1.031-1.428-.913-2.288-2.74l3.04-1.288q.482 1.192 1.316 1.74.832.548 2.165.548 1.406 0 2.159-.58a1.64 1.64 0 0 0 .655-1.354q0-.847-.666-1.257-.59-.375-2.191-.752-1.815-.408-2.621-.671a6 6 0 0 1-1.365-.618q-1.783-1.138-1.783-3.373 0-2.406 1.719-3.684 1.514-1.128 4.082-1.128 3.738 0 5.854 2.814l-2.857 1.58q-.624-.849-1.327-1.236c-.703-.387-1.019-.387-1.649-.387q-2.46 0-2.46 1.697 0 .742.597 1.144c.597.402 1.107.504 2.132.704q2.943.602 4.136 1.343 1.826 1.203 1.826 3.598zm5.783-11.044v6.381h5.972v-6.38h3.524V72h-3.524v-6.51h-5.972V72h-3.524V56.273z"/></svg>