<svg xmlns="http://www.w3.org/2000/svg" viewBox="0 0 192 192"><path d="M32.512 69.003h6.38L39.914 72h3.738l-5.66-15.727h-4.04L28.183 72h3.297zm3.212-9.41 2.341 6.907H33.35zm10.518 10.774q-1.45-1.644-1.45-4.565v-9.529h3.523v9.346q0 2.116.806 2.997.697.774 2.16.774 1.707 0 2.427-1.064.633-.934.634-2.836v-9.217h3.34v9.432q0 3.405-1.869 5.081-1.632 1.461-4.554 1.461-3.363 0-5.017-1.88m14.116-14.094h12.408v2.836h-4.437V72h-3.523V59.11h-4.448zm25.266.795q-1.74-1.042-3.91-1.042-2.234 0-4.007 1.053-1.74 1.032-2.718 2.868-.999 1.88-.999 4.222 0 3.33 1.848 5.543 2.137 2.535 5.736 2.535 3.169 0 5.264-1.998 2.417-2.298 2.417-6.166 0-2.32-.978-4.168-.956-1.816-2.653-2.847m-.945 10.775q-1.042 1.569-3.03 1.568-1.74 0-2.782-1.224-1.203-1.42-1.203-4.061 0-2.278.913-3.663 1.042-1.6 2.976-1.6 1.772 0 2.825 1.224 1.203 1.407 1.203 4.082 0 2.31-.902 3.674m15.877-.795 3.567-10.775h5.038V72h-3.46V60.162L101.696 72h-2.589l-4.028-11.86V72H91.93V56.273h5.06zm15.15 1.955h6.38l1.02 2.997h3.739l-5.661-15.727h-4.04L111.377 72h3.298zm3.211-9.41 2.342 6.907h-4.716zm11.14-.484h-4.447v-2.836h12.408v2.836h-4.437V72h-3.523V59.11zM143.938 72h-3.524V56.273h3.524zm5.005-2.224q-1.794-2.159-1.794-5.586 0-3.867 2.353-6.166 2.04-1.998 5.124-1.998 3.04 0 4.845 1.676a7.4 7.4 0 0 1 1.557 2.224l-3.093 1.278q-.549-1.246-1.327-1.794-.78-.548-2.003-.548-1.935 0-2.922 1.558-.86 1.353-.86 3.706 0 2.718 1.139 4.093.999 1.192 2.728 1.192 1.29 0 2.095-.58c.805-.58.992-1.017 1.364-1.89l3.126 1.278q-.784 1.719-2.116 2.707-1.75 1.32-4.469 1.321-3.684 0-5.747-2.47zM16 28v136h160V28zm152 128h-68V80h-8v76H24V36h68v12h8V36h68zM45.657 92H68v8H45.657l5.172 5.171-5.658 5.658L30.343 96l14.828-14.829 5.658 5.658zm95.514-5.171 5.658-5.658L161.657 96l-14.828 14.829-5.658-5.658 5.172-5.171H124v-8h22.343z"/></svg>