<svg xmlns="http://www.w3.org/2000/svg" viewBox="0 0 192 192"><path d="M114.89 116c-.98 0-1.95-.08-2.89-.22V160H88V48h8v-8h-8v-8.88l-48 9.6v126.56l48 9.6V168h32v-52zM80 167.12l-32-6.4V47.28l32-6.4zM72 108a4 4 0 1 1-8 0 4 4 0 0 1 8 0m73.11-92h-30.22C108.88 16 104 20.88 104 26.88v70.24c0 5 3.39 9.22 8 10.49.92.25 1.89.39 2.89.39h30.22c6.01 0 10.89-4.88 10.89-10.88V26.88c0-6-4.88-10.88-10.89-10.88M148 97.12c0 1.59-1.29 2.88-2.89 2.88h-30.22c-1.6 0-2.89-1.29-2.89-2.88V26.88c0-1.59 1.29-2.88 2.89-2.88h30.22c1.6 0 2.89 1.29 2.89 2.88zm-13.943-9.118a4 4 0 1 1-8 0 4 4 0 0 1 8 0M140 36c0 2.21-1.79 4-4 4h-12c-2.21 0-4-1.79-4-4s1.79-4 4-4h12c2.21 0 4 1.79 4 4"/></svg>