<svg xmlns="http://www.w3.org/2000/svg" viewBox="0 0 192 192"><path d="M76.683 152H51.474a16.03 16.03 0 0 0-11.473-11.473V51.473A16.03 16.03 0 0 0 51.474 40h89.053c1.783 6.889 8.034 12 15.473 12 8.822 0 16-7.178 16-16s-7.178-16-16-16c-7.439 0-13.69 5.111-15.473 12H51.473C49.69 25.111 43.439 20 36 20c-8.822 0-16 7.178-16 16 0 7.439 5.111 13.69 12 15.473v89.053c-6.889 1.783-12 8.034-12 15.473 0 8.822 7.178 16 16 16 7.439 0 13.69-5.111 15.473-12h22.544zM156 28c4.411 0 8 3.589 8 8s-3.589 8-8 8-8-3.589-8-8 3.589-8 8-8M28 36c0-4.411 3.589-8 8-8s8 3.589 8 8-3.589 8-8 8-8-3.589-8-8m8 128c-4.411 0-8-3.589-8-8s3.589-8 8-8 8 3.589 8 8-3.589 8-8 8m134.74-57.334-.004-.004-54.956 54.965-38.104 12.697 12.697-38.104 54.962-54.952-.005-.005c6.999-6.998 18.395-7 25.404-.003 7.002 7 7.003 18.397.005 25.407Zm-64.525 49.716-10.596-10.596-5.295 15.891zm58.866-69.463c-3.886-3.878-10.205-3.882-14.088-.005l.004.004-51.471 51.462 14.093 14.093 51.462-51.471.004.004c3.876-3.891 3.876-10.208-.004-14.087"/></svg>