<svg xmlns="http://www.w3.org/2000/svg" viewBox="0 0 192 192"><path d="m170.224 76.447-.186-.01s-6.583-.217-10.705-.345a6.2 6.2 0 0 0-1.574-2.118c-2.09-1.863-4.967-1.98-5.76-1.974l-68.93-.019c-2.625 0-5.254.62-7.603 1.795q-.158.08-.308.172l-10.262 6.32a25 25 0 0 1-13.11 3.713H48a4 4 0 0 0-4 4v1.965h-8v.02c-1.483 0-2.763.816-3.453 2.015H24v-8h-8v24h8v-8h8.562A3.99 3.99 0 0 0 36 101.966c.07 0 .134-.017.203-.02H44v2.035a4 4 0 0 0 4 4h19.689c1.939 0 3.854.311 5.691.924l5.997 1.998q.168.056.34.097c3.685.876 7.26 1.001 9.722 1.001.559 0 1.06-.007 1.493-.013l57.068.01a4 4 0 0 0 2.715-1.064l.495-.456c17.853-1.232 18.76-1.513 19.252-1.666 3.17-.986 4.124-3.87 4.437-4.816.339-1.023.704-3.66 1.084-7.834q.016-.18.017-.363v-4.887c-.028-4.193-.09-14.012-5.776-14.465M168 95.617c-.193 2.073-.473 4.545-.653 5.595-2.971.294-10.896.889-18.09 1.38a4 4 0 0 0-2.444 1.054l-.379.351-54.745-.016q-.364.001-.86.008c-1.958.025-5.59.072-9.098-.734l-5.82-1.94a26 26 0 0 0-8.222-1.334h-15.69v-8a33 33 0 0 0 17.092-4.902l10.097-6.218a9.05 9.05 0 0 1 3.88-.88l68.92.019q.085.001.187.012c.808 2.317 2.977 3.96 5.48 4.033 2.517.075 7.092.223 9.844.313.225 1.116.478 3.128.5 6.58v4.678z"/></svg>