<svg xmlns="http://www.w3.org/2000/svg" viewBox="0 0 192 192"><path d="m145.108 56-20-12h-1.635C121.69 37.11 115.44 32 108 32H48c-8.275 0-14.499 5.941-15.92 15.162C29.234 57.313 16 104.872 16 112c0 8.972 7.028 16 16 16v16c0 8.822 7.178 16 16 16h32v-8H48c-4.411 0-8-3.589-8-8v-16h4c6.43 0 14.142-4.772 15.93-15.248L65.234 88H72v12h8V88h28c7.439 0 13.69-5.11 15.473-12h1.635l20-12H176v-8zM116 72c0 4.411-3.589 8-8 8H58.766l-6.677 31.162-.035.18C51.337 115.645 48.34 120 44 120H32c-4.636 0-8-3.364-8-8 0-4.698 9.723-41.086 15.851-62.919l.109-.515C40.247 46.556 41.675 40 48 40h60c4.411 0 8 3.589 8 8zm8-4.665v-14.67L136.226 60zm-43.991 52.608c1.785-5.534 5.758-8.346 11.783-8.346 6.516 0 10.89 3.571 10.89 8.882 0 3.124-1.651 5.311-5.088 6.74 3.972 1.338 5.891 3.838 5.891 7.632 0 5.89-4.641 9.64-12.05 9.64-3.883 0-7.097-1.027-9.417-2.99-1.786-1.518-2.723-3.17-3.348-5.892l6.204-1.562c.982 3.437 2.9 4.954 6.248 4.954 3.258 0 5.178-1.696 5.178-4.508 0-2.722-1.875-4.284-5.178-4.284h-2.9v-5.043h2.722c2.99 0 4.775-1.518 4.775-4.062 0-2.5-1.606-4.017-4.195-4.017-2.767 0-4.552 1.384-5.802 4.463zm33.782 5.356c1.428-1.607 3.57-2.41 6.249-2.41 6.114 0 9.997 4.106 9.997 10.444 0 6.873-4.553 11.158-11.828 11.158-3.927 0-7.14-1.16-9.372-3.347-1.295-1.295-1.785-2.098-2.455-4.062l-.178-.446 6.471-1.785c.848 2.811 2.5 4.15 5.222 4.15 3.214 0 5.133-2.098 5.133-5.579 0-3.392-1.92-5.49-4.954-5.49-2.098 0-3.57.848-4.553 2.678h-5.891l2.008-18.522h18.523v5.49h-13.48zm37.754-4.33c0 5.67-3.482 9.418-8.703 9.418-5.177 0-8.57-3.704-8.57-9.328 0-5.534 3.526-9.328 8.704-9.328 5.087 0 8.569 3.794 8.569 9.239zm-11.693.046c0 3.124 1.026 4.73 2.99 4.73 2.053 0 3.124-1.606 3.124-4.73s-1.071-4.731-3.169-4.731c-1.92 0-2.945 1.651-2.945 4.73zm26.555-8.927L148.555 144h-5.088l17.852-31.912zm9.239 22.896c0 5.669-3.526 9.462-8.748 9.462-5.177 0-8.569-3.704-8.569-9.328 0-5.579 3.526-9.328 8.703-9.328 5.088 0 8.614 3.75 8.614 9.194m-11.738.045c0 3.169 1.027 4.776 2.99 4.776 2.054 0 3.124-1.607 3.124-4.731 0-3.125-1.07-4.731-3.124-4.731-1.963 0-2.99 1.651-2.99 4.686"/></svg>