<svg xmlns="http://www.w3.org/2000/svg" viewBox="0 0 192 192"><path d="m145.108 56-20-12h-1.635C121.69 37.11 115.44 32 108 32H48c-8.275 0-14.499 5.941-15.92 15.162C29.234 57.313 16 104.872 16 112c0 8.972 7.028 16 16 16v16c0 8.822 7.178 16 16 16h32v-8H48c-4.411 0-8-3.589-8-8v-16h4c9.16 0 14.666-7.884 15.93-15.247L65.233 88H72v12h8V88h28c7.439 0 13.69-5.11 15.473-12h1.635l20-12H176v-8zM108 80H58.766l-6.677 31.162-.035.18C51.337 115.645 48.34 120 44 120H32c-4.636 0-8-3.364-8-8 0-4.698 9.723-41.086 15.851-62.919l.109-.515C40.247 46.556 41.675 40 48 40h60c4.411 0 8 3.589 8 8v24c0 4.411-3.589 8-8 8m16-12.665v-14.67L136.226 60zm29.171 65.836 5.658 5.658L140 157.657l-10.829-10.828 5.658-5.658 5.171 5.172zM144 112c-17.645 0-32 14.355-32 32s14.355 32 32 32 32-14.355 32-32-14.355-32-32-32m0 56c-13.234 0-24-10.766-24-24s10.766-24 24-24 24 10.766 24 24-10.766 24-24 24"/></svg>