<svg xmlns="http://www.w3.org/2000/svg" viewBox="0 0 192 192"><path d="M144 112.444c-17.645 0-32 14.355-32 32s14.355 32 32 32 32-14.355 32-32-14.355-32-32-32m0 56c-13.234 0-24-10.766-24-24s10.766-24 24-24 24 10.766 24 24-10.766 24-24 24m-34.036-2.357a40.8 40.8 0 0 0 5.43 6.68 56.4 56.4 0 0 1-20.085 3.677c-31.27 0-56.711-25.441-56.711-56.711 0-49.811 51.76-98.163 53.964-100.196L95.309 17l2.748 2.537c.455.42 11.284 10.47 23.235 26.1 15.642 20.46 25.409 40.098 29.088 58.414a40.6 40.6 0 0 0-6.461-.522c-.643 0-1.281.019-1.916.049-7.82-34.292-37.471-66.155-46.694-75.407C84.656 38.865 46.7 79.776 46.7 119.733c0 26.803 21.807 48.61 48.61 48.61a48.4 48.4 0 0 0 14.655-2.256zm30.77-7.212-12.243-12.242 4.804-4.804 7.439 7.438 15.86-15.87 4.804 4.805z"/></svg>