<svg xmlns="http://www.w3.org/2000/svg" viewBox="0 0 192 192"><path d="M130 160c-12.13 0-22-11.251-22-25.081 0-20.787 18.285-40.794 19.063-41.635L130 90.109l2.937 3.175c.778.841 19.063 20.848 19.063 41.635 0 13.83-9.87 25.081-22 25.081m0-57.75c-4.85 6.207-14 19.645-14 32.669 0 9.418 6.28 17.081 14 17.081s14-7.663 14-17.081c0-13.023-9.15-26.46-14-32.669M83.493 91.536l5.702-5.702C84.91 82.91 82 77.324 82 70.919c0-13.024 9.15-26.462 14-32.669 4.182 5.352 11.545 16.079 13.5 27.28l6.643-6.644c-4.666-15.88-16.581-28.926-17.206-29.602L96 26.109l-2.937 3.175C92.285 30.125 74 50.132 74 70.919c0 8.536 3.763 16.085 9.493 20.617M174.83 22.83l-5.658-5.658-152 152 5.658 5.658zM49.389 125.64c2.74-9.74 8.917-18.664 12.611-23.391a91 91 0 0 1 4.489 6.29l5.788-5.788c-3.746-5.539-7.02-9.123-7.34-9.468L62 90.109l-2.937 3.175C58.285 94.125 40 114.132 40 134.919l.002.108 9.386-9.386zm26.532 7.41c.04.622.079 1.246.079 1.868C76 144.337 69.72 152 62 152c-1.474 0-2.894-.283-4.229-.8l-5.946 5.946C54.87 158.965 58.33 160 62 160c12.13 0 22-11.251 22-25.081 0-3.003-.39-5.987-1.046-8.902z"/></svg>