<svg xmlns="http://www.w3.org/2000/svg" viewBox="0 0 192 192"><path d="M96 168c2.72 0 5.4-.23 8-.67v8.1c-2.61.37-5.28.57-8 .57-30.88 0-56-25.12-56-56 0-49.19 51.11-96.93 53.29-98.94l2.71-2.5 2.71 2.5c1.95 1.8 43.13 40.26 51.72 83.6-2.55.31-5.2.78-7.88 1.42C135.56 71.42 105.28 38.9 96 29.59 85.48 40.15 48 80.54 48 120c0 26.47 21.53 48 48 48m67.05-3.62c-2.79 2.8-5.81 4.69-8.89 5.88-3.09 1.2-6.24 1.69-9.33 1.69-6.88 0-13.4-2.45-18.01-5.11l-8.99 8.99-3.07-3.07-2.59-2.59 3.17-3.17 5.81-5.81c-.04-.08-.09-.16-.13-.24-4.99-8.8-9.13-24.29 2.6-36.01 5.84-5.85 13.05-9.16 20.09-10.97 2.69-.69 5.35-1.16 7.9-1.47 10.77-1.3 19.63.25 20.3.37l2.72.49.5 2.72c.22 1.26 5.38 30.84-12.08 48.3m4.92-36.9c0-2.89-.17-5.36-.35-7.11-3.31-.34-9.15-.66-15.63.19-2.62.34-5.34.87-8.04 1.68-5.28 1.56-10.49 4.16-14.68 8.36-4.88 4.88-6.38 11.12-4.44 18.53.61 2.33 1.47 4.42 2.28 6.1l6.04-6.04 3.17-3.16 11.47-11.47 1.78 1.78 3.88 3.88-20.69 20.69q.465.225.96.45c5.91 2.69 15.82 5.21 23.68-2.64 8.84-8.84 10.57-22.15 10.57-31.24"/></svg>