<svg xmlns="http://www.w3.org/2000/svg" viewBox="0 0 192 192"><path d="M144.066 16H47.934C39.148 16 32 23.148 32 31.934v128.132C32 168.852 39.148 176 47.934 176h96.132c8.786 0 15.934-7.148 15.934-15.934V31.934C160 23.148 152.852 16 144.066 16M152 160.066c0 4.375-3.56 7.934-7.934 7.934H47.934C43.56 168 40 164.44 40 160.066V56h112zM152 48H40V31.934C40 27.56 43.56 24 47.934 24h96.132c4.375 0 7.934 3.56 7.934 7.934z"/><path d="M128 32h12v8h-12zm-16 0h12v8h-12zm-16 0h12v8H96zm-44 0h32v8H52zm44 120c22.056 0 40-17.944 40-40s-17.944-40-40-40-40 17.944-40 40 17.944 40 40 40m0-72c17.645 0 32 14.355 32 32s-14.355 32-32 32-32-14.355-32-32 14.355-32 32-32"/><path d="M88.42 134.053c4.477 0 7.339-1.717 9.638-3.096 1.893-1.136 3.26-1.957 5.521-1.957 3.248 0 5.591 2.197 5.592 2.197l5.658-5.657c-.465-.464-4.729-4.54-11.25-4.54-4.476 0-7.338 1.717-9.637 3.096-1.893 1.136-3.26 1.957-5.521 1.957-3.008 0-5.298-2.71-5.32-2.738l-6.225 5.026c.468.585 4.766 5.712 11.545 5.712zm0-16.121c4.477 0 7.339-1.717 9.638-3.096 1.893-1.136 3.26-1.957 5.521-1.957 3.248 0 5.591 2.198 5.592 2.198l5.658-5.658c-.465-.464-4.729-4.54-11.25-4.54-4.476 0-7.338 1.717-9.637 3.097-1.893 1.135-3.26 1.956-5.521 1.956-3.008 0-5.298-2.71-5.32-2.738l-6.225 5.027c.468.584 4.766 5.711 11.545 5.711zm0-15.879c4.477 0 7.339-1.717 9.638-3.096C99.951 97.82 101.318 97 103.58 97c3.248 0 5.591 2.197 5.592 2.197l5.658-5.657c-.465-.464-4.729-4.54-11.25-4.54-4.476 0-7.338 1.717-9.637 3.096-1.893 1.136-3.26 1.957-5.521 1.957-3.008 0-5.298-2.71-5.32-2.738l-6.225 5.026c.468.585 4.766 5.712 11.545 5.712z"/></svg>