<svg xmlns="http://www.w3.org/2000/svg" viewBox="0 0 192 192"><path d="M176.001 44.003V16h-58.667v.001H74.668V16H16v36.001h.001V80h109.333v-.001h17.334V80h33.334V44.003zm-8-20.002v20.002h-17.333V24h17.333zm-25.333 20h-17.334V24h17.334zm-42.667-20h17.333v20.002h-17.333V24zm-8 0V44H74.667V24H92zM49.334 24h17.332v20.001H49.335zM24 24h17.334v20.001H24zm17.334 47.999H24.001V52h17.333v20zm8.001 0V52h17.332v20H49.335zM74.67 72V52.003H92V72zM100 52.003h17.333V72H100zm25.333 19.996V52h17.334v20h-17.334zm42.668.001h-17.334V52.003h17.334zM38.905 108.082l6.205 26.448 7.309-26.448h6.993l7.361 26.659 6.52-26.66h8.099l-9.728 37.597h-8.676l-7.151-25.397-7.31 25.397h-8.78l-9.675-37.596zm62.514 0c11.883 0 18.771 6.835 18.771 18.666 0 12.042-6.94 18.93-19.034 18.93H87.484v-37.596zm.158 30.918c6.415 0 9.832-4.26 9.832-12.146 0-7.835-3.47-12.094-9.885-12.094h-5.627V139zm42.532-30.918c8.046 0 12.883 4.048 12.883 10.779 0 2.681-.683 4.89-2.05 6.52-1.262 1.473-2.472 2.209-5.048 2.997 3.575 1.052 5.1 2.997 6.046 7.52 1.368 5.836 2.156 8.413 3.05 9.57v.21h-8.623c-1.052-1.893-1.788-4.26-2.84-9.044-.841-3.839-2.47-5.311-5.889-5.311h-5.731v14.355h-8.308v-37.596zm-1.261 16.983c3.838 0 5.942-1.84 5.942-5.257 0-3.366-1.84-5.154-5.364-5.154h-7.52v10.411z"/></svg>