<svg xmlns="http://www.w3.org/2000/svg" viewBox="0 0 192 192"><path d="M48.554 108.082v15.249h14.301v-15.25h8.414v37.597h-8.414v-15.565H48.554v15.565H40.14v-37.596h8.413zm45.846 0c11.883 0 18.771 6.835 18.771 18.666 0 12.042-6.94 18.93-19.034 18.93H80.466v-37.596zM94.558 139c6.415 0 9.832-4.26 9.832-12.146 0-7.835-3.47-12.094-9.885-12.094h-5.626V139zm42.533-30.918c8.045 0 12.883 4.048 12.883 10.779 0 2.681-.684 4.89-2.051 6.52-1.262 1.473-2.471 2.209-5.048 2.997 3.576 1.052 5.1 2.997 6.047 7.52 1.367 5.836 2.156 8.413 3.05 9.57v.21h-8.624c-1.052-1.893-1.787-4.26-2.84-9.044-.84-3.839-2.47-5.311-5.888-5.311h-5.732v14.355h-8.308v-37.596zm-1.262 16.983c3.838 0 5.942-1.84 5.942-5.257 0-3.366-1.84-5.154-5.364-5.154h-7.519v10.411zm40.172-81.062V16h-58.667v.001H74.668V16H16v36.001h.001V80h109.333v-.001h17.334V80h33.334V44.003zm-8-20.002v20.002h-17.333V24h17.333zm-25.333 20h-17.334V24h17.334zm-42.667-20h17.333v20.002h-17.333V24zm-8 0v20.002H74.668V24H92zM49.334 24h17.332v20.001H49.335zM24 24h17.334v20.001H24zm17.334 47.999H24.001V52h17.333v20zm8.001 0V52h17.332v20H49.335zM92 72H74.67V52.003H92zm8.001-19.997h17.333V72h-17.333zm25.333 19.996V52h17.334v20h-17.334zm42.668.001h-17.334V52.003h17.334z"/></svg>