<svg xmlns="http://www.w3.org/2000/svg" viewBox="0 0 192 192"><path d="m60.17 114.844-17.048 17.048-5.657-5.657 17.048-17.048zm14.104-2.79-42.127 42.127 5.657 5.657 42.127-42.127zm-14.181 36.808 5.657 5.657 17.048-17.048-5.657-5.657zm54.009-70.987 11.641 49.092-25.238 25.238-11.641-49.091-49.085-11.633 25.238-25.238 49.084 11.633Zm2.827 46.593-9.472-39.946-39.939-9.465-11.946 11.945 39.938 9.465 9.473 39.947zM159.99 92.72l-25.238 25.238-11.641-49.091-49.085-11.633 25.238-25.238 49.084 11.633 11.641 49.092Zm-20.761 9.447 11.946-11.946-9.472-39.946-39.939-9.465-11.946 11.945 39.938 9.465z"/></svg>