<svg xmlns="http://www.w3.org/2000/svg" viewBox="0 0 192 192"><path d="M79.74 96.998 88 73H72l27.87-28-8.646 19.998h16.774l-28.257 32zM60 144V36c0-6.62 5.38-12 12-12h32c6.73 0 12 5.27 12 12v60.36c2.55-1.17 5.23-2.13 8-2.85V36c0-11.03-8.97-20-20-20H72c-11.03 0-20 8.97-20 20v96H40c-3.03 0-4-.97-4-4V71.48c5.02-1.38 8-5.52 8-11.48h-8v-4h-8v4h-8c0 5.97 2.98 10.1 8 11.48V128c0 7.4 4.6 12 12 12h12v12h37.51c-.66-2.59-1.12-5.26-1.34-8zm115.8-8h-7.14l3.25-4.92-6.67-4.41-6.18 9.33h-15.75l8.7-13.58 11.51-.86-.59-7.98-5.52.41 3.42-5.33.05-.08-.92-.59-.04-.03a38 38 0 0 0-4.92-3.15l-.07-.04-.79-.51-.04.07-3.76 5.86-2.41-5.34-7.29 3.29 4.55 10.09-9.19 14.35-8.74-13.64 4.18-10.54-7.43-2.96-.01.03-2.06 5.18-3.88-6.06-2.06 1.32-4.68 3 3.89 6.07-5.79-.3-.42 7.98 7 .37 4.52.23 3.48 5.44 4.68 7.3H112.3l-6.88-9.11-6.38 4.82 3.24 4.29H96v8h6.1l-2.91 3.7 5.48 4.3.81.64.5-.64 6.29-8h16.41l-4.68 7.31-.44.69-3.52 5.48-11.37 1 .7 7.97 5.22-.46-3.36 5.25 6.74 4.32 3.43-5.34 1.71 4.63 7.5-2.78-3.81-10.3 9.2-14.35 9.42 14.69-4.07 10.41 7.45 2.91 1.95-4.99 3.35 5.23.14.21 6.74-4.32-.14-.22-3.09-4.81 4.66.49.85-7.96-11.04-1.17-8.9-13.89h15.9l6.92 9.2 6.4-4.8-3.31-4.4H176v-8z"/></svg>