<svg xmlns="http://www.w3.org/2000/svg" viewBox="0 0 192 192"><path d="M44 60h96v68H88.5l9.59-8H132V68H52v6.84c-2.97.84-5.68 2.29-8 4.21zm132-4v80c0 8.82-7.18 16-16 16H32c-8.82 0-16-7.18-16-16V56c0-8.82 7.18-16 16-16h128c8.82 0 16 7.18 16 16m-8 0c0-4.41-3.59-8-8-8H32c-4.41 0-8 3.59-8 8v80c0 4.41 3.59 8 8 8h128c4.41 0 8-3.59 8-8zm-12 36a4 4 0 1 0 0 8 4 4 0 0 0 0-8m-49.602-6.662-7.31-3.249-9.83 22.115 7.311 3.249zM93.02 113.81 78.27 126.1l-5.5 4.59-1.02-7.1c-.44-3.07-1.96-5.79-4.16-7.79a13.53 13.53 0 0 0-9.08-3.51c-3.63 0-6.92 1.48-9.32 3.86-2.39 2.39-3.88 5.7-3.88 9.34v2.45h-8v-2.45c0-5.31 1.96-10.16 5.2-13.88 1.77-2.05 3.93-3.76 6.37-5A13.97 13.97 0 0 1 44 96c0-7.72 6.28-14 14-14s14 6.28 14 14c0 4.06-1.73 7.72-4.5 10.27 1.96.91 3.76 2.1 5.35 3.52.42.39.83.78 1.23 1.2 1.45 1.52 2.68 3.26 3.63 5.17l10.19-8.49zM52 96c0 3.31 2.69 6 6 6s6-2.69 6-6-2.69-6-6-6-6 2.69-6 6"/></svg>