<svg xmlns="http://www.w3.org/2000/svg" viewBox="0 0 192 192"><path d="M143.225 119.999h16.774l-28.257 32L140 128h-16l27.871-28zM104 176v-12H92c-7.402 0-12-4.598-12-11.999V95.485c-5.024-1.387-8-5.518-8-11.483h8V76h8v8.002h8c0 5.964-2.976 10.095-8 11.483V152c0 3.027.972 3.999 4 3.999h12V60c0-11.028 8.972-20 20-20h32c11.028 0 20 8.972 20 20l.001 116zm8-8h56.001L168 60c0-6.729-5.271-12-12-12h-32c-6.617 0-12 5.383-12 12zM40.197 88.001v4c0 7.486-1.34 10.76-2.08 11.999H28.44c-.616-1.366-1.507-4.933-1.507-10.665v-20.53c0-4.817 3.606-10.42 4.99-12.166l5.198-6.499H25.866C24.02 54.14 24 52.293 24 52.274c0-.993.53-1.623 1.513-1.865H40.48l.912-2.736c.034-.103 3.503-10.417 8.16-16.406l.132-.18c3.89-5.618 17.959-7.323 25.914-7.077l.128.004.128-.004c5.333-.178 21.538.759 25.912 7.078l.131.179c1.606 2.064 3.073 4.652 4.307 7.159a28.1 28.1 0 0 1 6.851-4.179c-1.363-2.695-2.976-5.475-4.778-7.809-7.56-10.73-29.464-10.51-32.551-10.428-3.085-.086-24.984-.315-32.553 10.428-3.878 5.022-6.898 12.117-8.377 15.97h-9.664l-.566.04C21.604 42.873 16 45.47 16 52.275c0 3.744 2.2 7.587 6.043 9.145-1.594 3.13-3.11 7.206-3.11 11.386v20.53c0 6.971 1.091 18.665 8.4 18.665H40.69l.809-.38c1.423-.669 5.767-3.685 6.57-15.619h20.828c-1.708-2.45-2.928-5.23-3.722-8H40.197z"/></svg>