<svg xmlns="http://www.w3.org/2000/svg" viewBox="0 0 192 192"><path d="M100 40a4 4 0 1 1-8 0 4 4 0 0 1 8 0m76 24v4c0 9.77-7.04 17.93-16.32 19.65-1.5 8.11-7.91 14.52-16.02 16.01-1.72 9.29-9.88 16.34-19.66 16.34h-8v14.34l11.87 11.87A15.95 15.95 0 0 1 136 144v8c-2.14 0-4.15.83-5.67 2.34A7.98 7.98 0 0 0 128 160h-8c0-2.9.77-5.69 2.21-8.13l-7.88-7.88a20.08 20.08 0 0 1-11.09 10.65L120.32 176H71.68l17.08-21.36a20.08 20.08 0 0 1-11.09-10.65l-7.88 7.88A15.95 15.95 0 0 1 72 160h-8c0-2.14-.83-4.15-2.34-5.67A7.98 7.98 0 0 0 56 152v-8c2.9 0 5.69.77 8.13 2.21L76 134.34V120h-8c-9.78 0-17.94-7.05-19.66-16.34-8.1-1.5-14.5-7.9-16-16C23.05 85.94 16 77.78 16 68v-4h60V52H48v-4c0-11.03 8.97-20 20-20h9.67C80.76 20.94 87.81 16 96 16c11.03 0 20 8.97 20 20v28zM76 72H24.69c1.65 4.66 6.1 8 11.31 8h24v8H40.69c1.65 4.66 6.1 8 11.31 8h16v8H56.69c1.65 4.66 6.1 8 11.31 8h8zm0-36h-8c-5.21 0-9.66 3.34-11.31 8H76zm20 122.4-7.68 9.6h15.36zm12-88.74-4-4-8 8-8-8-4 4V136c0 6.62 5.38 12 12 12s12-5.38 12-12zM108 36c0-6.62-5.38-12-12-12s-12 5.38-12 12v22.34l4-4 8 8 8-8 4 4zm59.31 36H116v40h8c5.21 0 9.66-3.34 11.31-8H124v-8h16.02c5.21 0 9.66-3.34 11.31-8H132v-8h24c5.21 0 9.66-3.34 11.31-8"/></svg>