<svg xmlns="http://www.w3.org/2000/svg" viewBox="0 0 192 192"><path d="M132.818 70.414c1.05-7.245-1.178-14.879-6.74-20.441-6.595-6.594-16.097-8.52-24.412-5.82l-2.722-7.542c11.142-3.713 23.935-1.15 32.79 7.704 7.147 7.147 10.192 16.86 9.151 26.201zM95.68 27.576c14.686-6.513 32.516-3.768 44.538 8.255 9.463 9.462 13.173 22.524 11.153 34.819l8.078.102c1.994-14.397-2.527-29.532-13.574-40.579-14.283-14.282-35.395-17.652-52.916-10.135zM78.7 138.02c.572-1.147 1.073-2.364 1.603-3.65 1.99-4.83 4.049-9.822 10.195-12.916 10.87-5.471 17.622-16.337 17.622-28.358 0-14.617-12.56-26.508-28-26.508-15.954 0-27.986 10.87-27.986 25.286h8c0-9.854 8.592-17.286 19.986-17.286 11.027 0 20 8.303 20 18.508 0 8.98-5.065 17.108-13.219 21.212-8.81 4.435-11.806 11.704-13.994 17.012-.475 1.153-.923 2.24-1.368 3.133-3.476 6.98-5.243 9.421-11.405 9.421v8c11.664 0 15.33-7.36 18.566-13.854m11.864 16.766c.23-1.48 1.144-5.388 1.367-6.108l.09-.295c2.874-9.543 9.067-14.547 13.756-17.064 13.786-7.4 22.35-22.047 22.35-38.223 0-24.935-21.54-45.222-48.014-45.222-31.17 0-47.986 28.392-47.986 40h8c0-6.563 12.399-32 39.986-32 22.064 0 40.014 16.698 40.014 37.222 0 13.225-6.949 25.17-18.134 31.175-8.635 4.635-14.732 12.176-17.632 21.806l-.069.226c-.343 1.103-1.347 5.414-1.633 7.256-1.286 8.295-9.087 14.315-18.547 14.315-10.646 0-19.985-9.346-19.985-20h-8c0 15.178 12.815 28 27.985 28 13.432 0 24.557-8.87 26.452-21.088"/></svg>