<svg xmlns="http://www.w3.org/2000/svg" xml:space="preserve" viewBox="0 0 192 192"><path d="M115.95 77.2q0-7.65-5.85-13.05-5.85-5.45-14.15-5.45-8.55 0-14.25 4.95T76 76h-8q0-10.85 8-18.05 8-7.25 19.95-7.25 11.6 0 19.8 7.8 8.2 7.75 8.2 18.7 0 9-4.75 16.65-4.7 7.6-12.85 11.7-4.1 2.05-6.65 5.8-1.5 2.2-3.55 7.1l-1.6 3.65q-3.35 6.75-6.1 9.4Q83.7 136 76 136v-8q4.35 0 6.7-2.1 1.9-1.7 4.7-7.35.55-1.1 1.35-3.15 2.4-5.8 4.55-8.8 3.65-5.25 9.45-8.2 6.1-3.05 9.65-8.75t3.55-12.45m20.05 0q0 9.9-4.85 18.3-4.9 8.35-13.3 12.85-6.5 3.5-11 9.05-4.45 5.55-6.65 12.8l-.05.2q-.25.85-.85 3.35-.6 2.55-.8 3.9-.95 6.25-6.2 10.3T79.95 152q-8 0-13.95-6-6-6-6-14h-8q0 11.35 8.3 19.7 8.3 8.3 19.65 8.3 10.1 0 17.55-5.95 7.5-6 8.9-15.15.2-1.1.7-3.35.5-2.2.7-2.75l.05-.3q3.5-11.45 13.75-17.1 10.35-5.55 16.4-15.8 6-10.3 6-22.4 0-18.7-14.1-31.95Q115.85 32 95.95 32 75.1 32 60.3 47.65q-5.8 6.05-9.2 13.2Q48 67.3 48 72h8q0-2.85 2.35-7.8 2.75-5.75 7.3-10.65Q77.95 40 95.95 40q16.55 0 28.3 10.9C136 61.8 136 66.933 136 77.2m-90.85 43.95 5.65 5.65L73.65 104 50.8 81.15l-5.65 5.65L58.3 100H16v8h42.3z"/></svg>