<svg xmlns="http://www.w3.org/2000/svg" viewBox="0 0 192 192"><path d="M96 176c-44.112 0-80-35.888-80-80s35.888-80 80-80 80 35.888 80 80-35.888 80-80 80m0-152c-39.701 0-72 32.299-72 72s32.299 72 72 72 72-32.299 72-72-32.299-72-72-72M56.876 48.139h20.72v5.325H63.397v6.644h10.814v4.913H63.397v7.305h14.859v5.324h-21.38zm51.96 21.422c-1.196 2.93-2.353 4.582-4.375 6.067-2.188 1.651-4.911 2.476-8.09 2.476-8.626 0-14.157-5.902-14.157-15.106 0-9.039 5.737-15.313 14.033-15.313 3.633 0 6.687 1.073 8.916 3.137 1.403 1.362 2.229 2.559 3.343 5.118l-5.86 2.394c-1.405-3.797-3.261-5.324-6.44-5.324-4.54 0-7.1 3.55-7.1 9.864 0 6.356 2.601 9.906 7.265 9.906 3.26 0 5.201-1.692 6.563-5.613zm4.907-21.422h20.72v5.325h-14.198v6.644h10.814v4.913h-10.814v7.305h14.859v5.324h-21.38V48.14zm-9.87 56.538c-.529.048-.792.072-1.105.072-1.296 0-2.232-.288-3.504-1.057-1.44.817-2.736 1.153-4.488 1.153-4.417 0-7.009-1.945-7.009-5.233 0-2.448 1.176-3.864 4.225-5.136a8 8 0 0 1-.313-2.232c0-3.072 2.065-5.089 5.233-5.089 2.592 0 4.296 1.513 4.296 3.841 0 2.111-1.08 3.192-4.416 4.44.671 1.128 1.68 2.352 2.736 3.36.432-.863.72-1.848.84-2.976h3.409c-.24 1.872-.769 3.504-1.656 4.968.504.265.935.36 1.511.36.145 0 .288 0 .6-.023l-.36 3.552zm-11.57-5.473c0 1.56 1.008 2.568 2.593 2.568.552 0 1.031-.095 1.607-.288-1.368-1.271-2.568-2.76-3.408-4.272-.552.624-.792 1.225-.792 1.992m5.425-8.112c0-.696-.336-1.105-.889-1.105-.767 0-1.223.721-1.223 1.921 0 .432.048.816.168 1.344 1.44-.552 1.944-1.128 1.944-2.16m-18.625 44.42c-1.197 2.93-2.353 4.582-4.375 6.067-2.188 1.651-4.912 2.477-8.09 2.477-8.626 0-14.158-5.903-14.158-15.107 0-9.039 5.738-15.313 14.034-15.313 3.632 0 6.686 1.073 8.916 3.137 1.403 1.362 2.228 2.559 3.342 5.119l-5.86 2.393c-1.404-3.797-3.26-5.324-6.44-5.324-4.54 0-7.099 3.55-7.099 9.864 0 6.357 2.6 9.906 7.265 9.906 3.26 0 5.2-1.692 6.562-5.613zm30.209 0c-1.198 2.93-2.353 4.582-4.375 6.067-2.188 1.651-4.913 2.477-8.09 2.477-8.627 0-14.158-5.903-14.158-15.107 0-9.039 5.737-15.313 14.034-15.313 3.631 0 6.686 1.073 8.915 3.137 1.403 1.362 2.23 2.559 3.343 5.119l-5.86 2.393c-1.404-3.797-3.262-5.324-6.44-5.324-4.54 0-7.099 3.55-7.099 9.864 0 6.357 2.6 9.906 7.265 9.906 3.26 0 5.2-1.692 6.562-5.613zm30.208 0c-1.198 2.93-2.353 4.582-4.375 6.067-2.188 1.651-4.913 2.477-8.09 2.477-8.627 0-14.158-5.903-14.158-15.107 0-9.039 5.737-15.313 14.034-15.313 3.632 0 6.686 1.073 8.915 3.137 1.403 1.362 2.23 2.559 3.343 5.119l-5.86 2.393c-1.404-3.797-3.262-5.324-6.44-5.324-4.54 0-7.099 3.55-7.099 9.864 0 6.357 2.6 9.906 7.265 9.906 3.26 0 5.2-1.692 6.562-5.613z"/></svg>