<svg xmlns="http://www.w3.org/2000/svg" viewBox="0 0 192 192"><path d="M112 23.907c-15.439 0-28 12.561-28 28v72c0 11.028-8.972 20-20 20s-20-8.972-20-20V99.38c6.889-1.783 12-8.034 12-15.473 0-8.822-7.178-16-16-16s-16 7.178-16 16c0 7.439 5.111 13.69 12 15.473v24.527c0 15.439 12.561 28 28 28s28-12.561 28-28v-72c0-11.028 8.972-20 20-20s20 8.972 20 20v36h8v-36c0-15.439-12.561-28-28-28m-80 60c0-4.411 3.589-8 8-8s8 3.589 8 8-3.589 8-8 8-8-3.589-8-8M49.138 60l-2.316-6.847H32.221L29.855 60h-7.554l13.193-36h9.263l12.941 36zm-9.566-28.397-5.436 15.809H44.91zm131.942 87.226-44.645 44.645-34.732 12.17 13.123-33.875 44.597-44.597c5.972-5.972 15.688-5.972 21.659 0s5.971 15.688 0 21.659m-65.653 43.525 11.494-4.027-7.16-7.16zm59.995-49.183c2.852-2.853 2.852-7.493 0-10.345s-7.493-2.852-10.345 0L114.342 144l10.343 10.343 41.171-41.172h.001Z"/></svg>