<svg xmlns="http://www.w3.org/2000/svg" viewBox="0 0 192 192"><path d="M157.333 60H124V48.764C124 41.726 118.274 36 111.236 36H80.764C73.726 36 68 41.726 68 48.764V60H48v12H32v24H20a4 4 0 0 0 0 8h12v24h16v12h10.343L56 142.343V156h32v-13.657L85.657 140h36.686L120 142.343V156h32v-13.657L149.657 140h7.677L176 126V74zM76 48.764A4.77 4.77 0 0 1 80.764 44h30.472A4.77 4.77 0 0 1 116 48.764V60H76zM40 120V80h8v40zm40 25.657V148H64v-2.343L69.657 140h4.686zM77.657 132H56V68h80v64zM144 145.657V148h-16v-2.343l5.657-5.657h4.686zM168 122l-13.334 10H144V68h10.666L168 78zM92 52a4 4 0 1 1-8 0 4 4 0 0 1 8 0m16 0a4 4 0 1 1-8 0 4 4 0 0 1 8 0M96 95.333h16L88 124l8-21.667H80L104 76z"/></svg>