<svg xmlns="http://www.w3.org/2000/svg" viewBox="0 0 192 192"><path d="M42 44H24l9-14 9-14 9 14 9 14zm44 0 9-14 9-14H68l9 14zm57.422 116c-1.78 6.89-8.021 12-15.448 12s-13.668-5.11-15.448-12H79.678L100 134.597V108c0-16.224 11.93-28 28.369-28C144.638 80 156 91.514 156 108v26.597L176.322 160zm-47.1-8h63.356L148 137.403V108c0-11.962-7.89-20-19.631-20C116.376 88 108 96.224 108 108v29.403zm38.546 8h-13.79c1.382 2.387 3.952 4 6.896 4s5.513-1.613 6.894-4M112 173.877V176H16V52h96v23.598a35 35 0 0 0-8 5.238V60H68v108h39.225a24.2 24.2 0 0 0 4.775 5.877M24 168h36V60H24z"/></svg>