<svg xmlns="http://www.w3.org/2000/svg" viewBox="0 0 192 192"><path d="M64 56h32v57.346a30.1 30.1 0 0 1 8-2.884V48H16v115.985h49.582c-.888-2.6-1.46-5.265-1.582-7.985zm-40 99.985V56h32v99.997zM40 40H24l8-12 8-12 8 12 8 12zm32-12-8-12h32l-8 12-8 12zm93.84 108.95q.055-.848.055-1.684c0-15.034-12.561-27.265-28-27.265-8.782 0-16.832 3.883-22.112 10.53a22 22 0 0 0-5.678-.735c-10.208 0-18.92 6.992-21.135 16.427C79.231 136.337 72 144.858 72 154.857 72 166.516 81.728 176 93.684 176h60.632c11.956 0 21.684-9.484 21.684-21.143 0-7.33-3.905-14.077-10.16-17.908zM154.315 168H93.684C86.14 168 80 162.104 80 154.857c0-6.878 5.592-12.635 12.73-13.106l3.483-.23.245-3.481c.481-6.866 6.477-12.244 13.647-12.244 1.953 0 3.845.391 5.622 1.162l3.168 1.374 1.822-2.934c3.653-5.884 10.075-9.397 17.178-9.397 11.027 0 20 8.642 20 19.265 0 1.066-.098 2.16-.29 3.253l-.547 3.105 2.89 1.257c4.892 2.127 8.052 6.827 8.052 11.976 0 7.247-6.139 13.143-13.684 13.143z"/></svg>