<svg xmlns="http://www.w3.org/2000/svg" viewBox="0 0 192 192"><path d="m42 16 9 14 9 14H24l9-14zm53 14 9-14H68l9 14 9 14zm53.5 98c0-11.304-9.196-20.5-20.5-20.5s-20.5 9.196-20.5 20.5 9.196 20.5 20.5 20.5 20.5-9.197 20.5-20.5m-8 0c0 6.892-5.608 12.5-12.5 12.5s-12.5-5.608-12.5-12.5 5.607-12.5 12.5-12.5 12.5 5.607 12.5 12.5m-4.926 47.399 2.588-.411 2.707-10.445a39 39 0 0 0 3.85-1.597l9.32 5.455 2.114-1.534a48.2 48.2 0 0 0 10.714-10.714l1.534-2.114-5.455-9.32a39 39 0 0 0 1.59-3.83l10.454-2.733.41-2.582c.397-2.512.6-5.06.6-7.574s-.203-5.062-.6-7.574l-.411-2.588-10.446-2.708a39 39 0 0 0-1.597-3.85l5.455-9.318-1.534-2.115a48.2 48.2 0 0 0-10.713-10.714l-2.115-1.534-9.321 5.454a39 39 0 0 0-3.826-1.589l-2.737-10.455-2.581-.409a48.4 48.4 0 0 0-15.148 0l-2.588.41-2.708 10.446a39 39 0 0 0-3.85 1.598l-9.32-5.456-2.114 1.535a48.2 48.2 0 0 0-10.713 10.713l-1.534 2.115 5.455 9.32a39 39 0 0 0-1.59 3.829l-10.454 2.734-.41 2.582c-.398 2.511-.6 5.06-.6 7.574s.202 5.063.6 7.574l.412 2.588 10.445 2.708q.694 1.966 1.597 3.85l-5.455 9.318 1.534 2.115a48.1 48.1 0 0 0 10.714 10.714l2.114 1.534 9.322-5.454a39 39 0 0 0 3.825 1.588l2.737 10.455 2.581.41c2.512.397 5.06.6 7.574.6s5.063-.203 7.574-.601m-13.86-17.219-2.19-.628a30.6 30.6 0 0 1-6.419-2.665l-1.994-1.108-8.603 5.034a40 40 0 0 1-5.32-5.32l5.035-8.6-1.109-1.995a30.6 30.6 0 0 1-2.673-6.446l-.629-2.2-9.634-2.497a40 40 0 0 1 0-7.517l9.64-2.521.629-2.192a30.6 30.6 0 0 1 2.666-6.422l1.11-1.995-5.035-8.601a40 40 0 0 1 5.319-5.32l8.6 5.036 1.995-1.11a30.6 30.6 0 0 1 6.446-2.673l2.2-.628 2.497-9.634a40 40 0 0 1 7.517 0l2.524 9.642 2.19.628a30.6 30.6 0 0 1 6.42 2.665l1.994 1.108 8.603-5.033a40 40 0 0 1 5.319 5.32l-5.036 8.599 1.11 1.995a30.6 30.6 0 0 1 2.673 6.446l.629 2.2 9.634 2.497a39.922 39.922 0 0 1-.001 7.516l-9.64 2.522-.628 2.191a30.5 30.5 0 0 1-2.667 6.422l-1.11 1.995 5.036 8.601a40 40 0 0 1-5.32 5.32l-8.6-5.035-1.995 1.109a30.6 30.6 0 0 1-6.446 2.673l-2.199.629-2.497 9.634a40 40 0 0 1-7.517 0zM112 52v19.694l-2.814 10.855L104 79.513V60H68v108h20.744c2.966 2.9 6.312 5.543 10.116 8H16V52zm-52 8H24v108h36z"/></svg>