<svg xmlns="http://www.w3.org/2000/svg" viewBox="0 0 192 192"><path d="M24.117 168.002H60.07v7.996H16.123V48.002h95.882V88h-7.994V55.998H24.117zM60.146 40.01l-8.003-12.017-8.004-12.017-8.003 12.017-8.004 12.017zm23.926 0 7.962-11.997 7.96-11.998H68.152l7.96 11.998zm63.899 135.981h-7.994v-47.997h7.99V107.99c0-8.076-3.92-12.002-11.983-12.002-9.903 0-11.982 6.527-11.982 12.002v20.003h7.99v48.005h-7.995v-40.01h-7.99V107.99c0-7.594 3.242-15.594 11.77-18.678-3.496-2.547-5.783-6.663-5.783-11.313 0-7.718 6.274-13.998 13.985-13.998s13.984 6.28 13.984 13.998c0 4.642-2.279 8.752-5.766 11.3 7.49 2.648 11.764 9.224 11.764 18.691v27.998h-7.99v40.002zM129.988 78c0 3.31 2.688 6.002 5.99 6.002s5.99-2.692 5.99-6.002-2.687-6.002-5.99-6.002-5.99 2.692-5.99 6.002M92.03 176h-7.994v-43.998h10.08l-6.085-15.233V104c0-5.759-2.239-8.002-7.987-8.002-2.87 0-4.948.629-6.18 1.87-1.221 1.23-1.829 3.282-1.808 6.102v12.799l-6.085 15.233h10.08V176h-7.994v-36.002H54.168l9.894-24.767V104c-.039-4.999 1.35-8.967 4.126-11.764 1.127-1.135 2.46-2.032 3.97-2.712C68.5 86.997 66.094 82.776 66.094 78c0-7.718 6.273-13.998 13.984-13.998S94.062 70.282 94.062 78c0 4.79-2.418 9.022-6.095 11.547 5.196 2.355 8.058 7.337 8.058 14.453v11.231l9.894 24.767H92.03zM74.088 78c0 3.31 2.687 6.002 5.99 6.002s5.99-2.692 5.99-6.002-2.687-6.002-5.99-6.002-5.99 2.692-5.99 6.002"/></svg>