<svg xmlns="http://www.w3.org/2000/svg" xml:space="preserve" viewBox="0 0 192 192"><path d="M96 16c-44.112 0-80 35.888-80 80s35.888 80 80 80 80-35.888 80-80-35.888-80-80-80m0 152c-39.701 0-72-32.299-72-72s32.299-72 72-72 72 32.299 72 72-32.299 72-72 72m37.171-54.829 5.658 5.658C138.127 119.529 121.365 136 96 136s-42.127-16.47-42.829-17.171l5.651-5.663C58.972 113.314 74.038 128 96 128c22.087 0 37.023-14.68 37.171-14.829m-51.39-21.843L72 84.808l-9.781 6.52-4.438-6.656L72 75.192l14.219 9.48zm48 0L120 84.808l-9.781 6.52-4.438-6.656L120 75.192l14.219 9.48z"/></svg>