<svg xmlns="http://www.w3.org/2000/svg" viewBox="0 0 192 192"><path d="m153.657 76-20-20H112V44h16v-8H88v8h16v12H87.666L67.11 76H36v24H24V84h-8v40h8v-16h12v24h31.11l20.556 20H176V76zM168 144H90.916L70.36 124H44V84h26.36l20.556-20h39.427l20 20H168zm-35.396-44H144v8h-14.4a4 4 0 0 1-3.841-2.885l-.022-.076-3.142 9.426a4 4 0 0 1-7.59 0L108 93.449l-10.605 31.816A4 4 0 0 1 93.648 128H93.6a4 4 0 0 1-3.764-2.645L83.588 108H76v-8h10.4a4 4 0 0 1 3.764 2.645l3.29 9.142 10.751-32.252a4 4 0 0 1 7.59 0l7.005 21.016 3.405-10.216a3.98 3.98 0 0 1 3.874-2.734 4 4 0 0 1 3.762 2.884z"/></svg>