<svg xmlns="http://www.w3.org/2000/svg" viewBox="0 0 192 192"><path d="M36 120V96H24v16h-8V72h8v16h12V64h26.078l16-20H92V32H80v-8h32v8h-12v12h4v8H81.922l-16 20H44v40h21.922l16 20H104v8H78.078l-16-20zm140-84v112h-28v.66c0 8.458-6.302 15.34-14.048 15.34H83.476c-1.78 6.897-8.023 12-15.476 12h-8v-4H48v-8h12v-8H48v-8h12v-4h8c7.453 0 13.697 5.103 15.476 12h50.476c3.335 0 6.048-3.293 6.048-7.34V148h-28V36h12V16h40v20zm-44 0h24V24h-24zm36 8h-48v96h48z"/><path d="m150.821 68.125-20.464 27.286H144l-6.821 20.464 20.464-27.286H144z"/></svg>