<svg xmlns="http://www.w3.org/2000/svg" viewBox="0 0 192 192"><path fill="#1a1a18" d="M164 28H28c-6.62 0-12 5.38-12 12v112c0 6.62 5.38 12 12 12h136c6.62 0 12-5.38 12-12V40c0-6.62-5.38-12-12-12M49.23 132c-.68 0-1.23-.55-1.23-1.23V116h16.24c.88 3.59 4.08 6.24 7.76 7.38V132zM44 76h4v32h-4c-2.21 0-4-1.79-4-4V80c0-2.21 1.79-4 4-4m28-24h60v86c0 .77-.9 1.61-2.21 1.9-.3.06-.62.1-.95.1H82.32c-1.52 0-2.32-.69-2.32-2v-22h-4c-2.3 0-4-1.53-4-2zm70.77 8c.68 0 1.23.55 1.23 1.23V84h-4V60zM64 68H48v-6.77c0-.68.55-1.23 1.23-1.23H64zm0 40h-8V76h8zm76 8h4v14.77c0 .68-.55 1.23-1.23 1.23H140zm0-8V92h8c1.79 0 4 2.21 4 4v12zm2.127-56H140v-8H64v8H49.873L36.54 36h118.92zM24 152V40c0-1.64.99-3.05 2.41-3.66l15.778 18.933A9.18 9.18 0 0 0 40 61.23v7.46c-4.66 1.65-8 6.09-8 11.31v24c0 5.22 3.34 9.66 8 11.31v15.46c0 5.09 4.14 9.23 9.23 9.23h3.296l-10.667 16H28c-2.21 0-4-1.79-4-4m27.474 4 10.667-16H72.18c.88 4.74 4.87 8 10.14 8h46.52c1.99 0 3.86-.47 5.48-1.3l6.2 9.3zM168 152c0 2.21-1.79 4-4 4h-13.86l-10.45-15.68c.04-.1.06-.21.08-.32h3c5.09 0 9.23-4.14 9.23-9.23V116h8V96c0-4.8-3.53-9.39-8-11.19V61.23a9.17 9.17 0 0 0-2.188-5.957L165.59 36.34A3.98 3.98 0 0 1 168 40zm-44-80H80v-8h44zm0 16H80v-8h44zm-16 28a4 4 0 1 1-8 0 4 4 0 0 1 8 0m-4-20c-11.03 0-20 8.97-20 20 0 4.5 1.49 8.66 4 12 1.14 1.51 2.49 2.86 4 4 3.34 2.51 7.5 4 12 4s8.66-1.49 12-4c1.51-1.14 2.86-2.49 4-4 2.51-3.34 4-7.5 4-12 0-11.03-8.97-20-20-20m-12 20c0-6.62 5.38-12 12-12s12 5.38 12 12-5.38 12-12 12-12-5.38-12-12"/></svg>