<svg xmlns="http://www.w3.org/2000/svg" viewBox="0 0 192 192"><path d="m175.125 96.198-14.862 18.225 14.86 18.99-16.884 20.621-6.19-5.068 12.827-15.666-14.851-18.98 14.85-18.211-15.002-19.063 14.955-18.316-12.916-15.688 6.176-5.085 17.084 20.751-15.046 18.43zm-148-.307 14.85-18.212-14.852-18.98 12.828-15.665-6.19-5.068-16.885 20.62 14.86 18.99-14.861 18.226 14.999 19.06-15.046 18.43 17.084 20.75 6.176-5.085-12.916-15.687 14.954-18.316zM129.657 76H144v52H90.343l-12-12H64v-15.999h-8V108h-8V84h8v8l8 .001V76h14.343l12-12H100v-8h-8v-8l24.02.001v8H108V64h9.657zM136 84h-9.657l-12-12H93.657l-12 12H72v24h9.657l12 12H136z"/></svg>