<svg xmlns="http://www.w3.org/2000/svg" viewBox="0 0 192 192"><path d="M156 52c0-11.028-8.972-20-20-20s-20 8.972-20 20v60.41a28.04 28.04 0 0 0-8 19.59c0 15.439 12.561 28 28 28s28-12.561 28-28a28.04 28.04 0 0 0-8-19.59zm-20 100c-11.028 0-20-8.972-20-20a20.03 20.03 0 0 1 6.668-14.904l1.332-1.192V52c0-6.617 5.383-12 12-12s12 5.383 12 12v63.904l1.332 1.192A20.03 20.03 0 0 1 156 132c0 11.028-8.972 20-20 20m4-31.3V76h-8v44.7c-4.653 1.653-8 6.087-8 11.3 0 6.617 5.383 12 12 12s12-5.383 12-12c0-5.213-3.347-9.647-8-11.3m-4 15.3c-2.206 0-4-1.794-4-4s1.794-4 4-4 4 1.794 4 4-1.794 4-4 4m40-80v8h-12v-8zm-12 20h12v8h-12zm0 20h12v8h-12zm-62.5 48 4.5 8H78.078l-16-20H36v-24H24v16h-8V84h8v16h12V76h26.078l16-20H92V44H80v-8h32v8h-12v12h8v8H81.922l-16 20H44v40h21.922l16 20z"/></svg>