<svg xmlns="http://www.w3.org/2000/svg" viewBox="0 0 192 192"><path d="M31.96 84V68h-8.003v8.028h-8V52.001h8V60h8.003V44h18.35l12.11-12h13.536v-8h-8v-8h24v8h-8v8H97.61l12 12h18.35v14.12c-.047-.016-1.774-.62-4.01-.62-1.617 0-3.031.305-3.99.61V52H106.3l-12-12H65.71L53.6 52H39.96v24h14l12 16h13.53l-9.16 8h-8.37l-12-16zm117.82 5.68c.06.22.1.44.14.66.01.03.02.06.02.09.03.2.06.39.09.58l.06.63c.21 3.3-1.05 6.67-3.72 9l-37.67 32.91c-2.08 1.81-4.65 2.7-7.22 2.7-3.47 0-6.343-1.607-8.08-3.51L75.82 148.1c-1.32 1.22-2.51 3.21-.42 5.6l5.3 6.07-18.08 15.8-7.06-8.15c-4.25-4.76-6.47-11.36-6.05-18.05.3-4.88 2.16-12 9.26-18.22l18.94-16.56c-1.524-2.394-1.853-5.013-1.67-6.78.115-1.602.702-4.421 3.26-6.98.14-.14 38.12-33.33 38.12-33.33 1.636-1.384 3.984-2.7 7.21-2.7h.02c.999 0 4.732.192 7.58 3.04l3.85-3.35v-.01l13.3-11.62 26.85 13.72zm-12.24-15.85 7.89 9.04 16.64-14.54-11.51-5.88zm-49.41 52.89-5.26-6.02-18.84 16.47c-5.02 4.4-6.33 9.33-6.54 12.69-.28 4.51 1.25 9.11 4.08 12.28l1.83 2.12 6.02-5.25-.05-.05c-3.16-3.61-3.95-7.88-2.24-12.02 1.574-3.786 3.023-4.504 13.74-13.87zm13.35 1.53c.51 0 1.27-.13 1.95-.72l4.66-4.07c-.12-.09-.23-.2-.33-.31a3.065 3.065 0 0 1 .15-4.33 3.065 3.065 0 0 1 4.33.16c.15.16.28.33.38.51l8.96-7.82c-.31-.16-.6-.37-.86-.64a3.074 3.074 0 0 1 .15-4.33 3.056 3.056 0 0 1 4.33.15c.3.32.52.69.65 1.08l8.45-7.38c-.2-.13-.38-.28-.54-.46-1.15-1.24-1.09-3.18.15-4.33s3.18-1.09 4.33.15c.21.23.39.48.51.75l2.35-2.05c1.22-1.06 1.35-2.99.29-4.21l-7.78-8.91c-.15.28-.35.53-.59.75a3.044 3.044 0 0 1-4.32-.15 3.05 3.05 0 0 1-.74-2.81c.13-.57.43-1.1.89-1.52.29-.27.62-.47.97-.61l-2.92-3.34c-.77-.88-1.75-1.01-2.26-1.01-.52 0-1.27.13-1.96.73l-2.72 2.38v1.11c.22.64.22 1.34 0 1.97-.15.46-.43.9-.81 1.25a3.045 3.045 0 0 1-4.16.01l-6.49 5.67c.65.1 1.26.41 1.74.93a3.065 3.065 0 0 1-.15 4.33c-.59.55-1.34.82-2.09.82-.82 0-1.64-.33-2.24-.98a3.05 3.05 0 0 1-.83-1.99l-10.58 9.25c.35.17.68.39.96.69a3.074 3.074 0 0 1-.16 4.33 3.056 3.056 0 0 1-4.33-.15c-.33-.35-.55-.75-.69-1.18l-5.12 4.47c-.76.66-1.1 1.67-.99 2.63.07.57.31 1.13.7 1.58l2.89 3.31q.135-.18.3-.33c.99-.92 2.44-1.06 3.56-.45.28.16.54.36.77.6a3.056 3.056 0 0 1-.66 4.71l7.64 8.75c.831.95 1.9 1.01 2.26 1.01m24.78-34.01c1.24-1.15 1.3-3.09.15-4.33a3.056 3.056 0 0 0-4.33-.15c-1.24 1.15-1.3 3.09-.15 4.33s3.09 1.3 4.33.15m-22.17 20c1.24-1.15 1.3-3.09.15-4.33s-3.09-1.3-4.33-.15a3.056 3.056 0 0 0-.15 4.33 3.056 3.056 0 0 0 4.33.15m10-12c.65-.6.98-1.42.97-2.24 0-.75-.27-1.5-.82-2.09-1.15-1.24-3.09-1.3-4.33-.15-.65.6-.98 1.42-.98 2.24 0 .75.28 1.5.83 2.09a3.056 3.056 0 0 0 4.33.15"/></svg>