<svg xmlns="http://www.w3.org/2000/svg" viewBox="0 0 192 192"><path d="M164 32v28h-28v-8h14.677C136.989 33.902 117.754 24 96 24c-39.701 0-72 32.299-72 72h-8c0-44.112 35.888-80 80-80 23.794 0 44.85 10.522 60 29.797V32zm4 64c0 39.701-32.299 72-72 72-21.754 0-40.99-9.902-54.677-28H56v-8H28v28h8v-13.797C51.15 165.478 72.206 176 96 176c44.112 0 80-35.888 80-80zm-89.823 31.184C83.4 133.06 90.259 136 98.64 136c7.183 0 13.387-2.395 18.067-6.857 3.701-3.701 5.66-7.184 8.055-14.368l-7.946-2.72c-3.81 11.863-8.816 16.435-18.176 16.435-11.103 0-17.307-6.422-20.245-20.898h24.054v-6.857H77.633c-.109-1.089-.109-2.286-.109-4.572 0-1.959 0-3.048.109-4.354h24.816v-6.856H78.286c1.088-5.77 2.068-8.708 3.918-11.973 3.592-6.313 9.034-9.47 16.218-9.47 8.816 0 13.17 4.028 17.197 15.565l7.945-2.177c-2.394-6.966-4.136-10.34-7.183-13.714C112.136 58.504 106.149 56 98.748 56c-7.728 0-14.258 2.612-19.483 7.837-5.224 5.442-7.836 10.884-10.013 21.116H60v6.857h8.381l-.11 4.57c0 1.851.11 3.266.219 4.355H60v6.857h9.252c2.068 9.578 4.245 14.367 8.925 19.592"/></svg>