<svg xmlns="http://www.w3.org/2000/svg" viewBox="0 0 192 192"><path d="M120 136H28c-6.617 0-12 5.383-12 12s5.383 12 12 12h92c6.617 0 12-5.383 12-12s-5.383-12-12-12m0 16H28c-2.206 0-4-1.794-4-4s1.794-4 4-4h92c2.206 0 4 1.794 4 4s-1.794 4-4 4m52.11-49.637 3.218-51.49a14.05 14.05 0 0 0-3.769-10.459A14.05 14.05 0 0 0 161.355 36h-4.416c-.157 0-.307.03-.462.045a4 4 0 0 0-1.345.05l-48.739 10.829C102.398 45.071 97.637 44 92 44H70.343L64 50.343V68H38.79L24 77.86V128h100V80c0-4.172-.49-8.41-1.55-12.447l28.212-6.27-2.42 38.717h-3.125l-10.667 32H156c8.207 0 16.24-5.92 19.102-14.076 2.034-5.799.902-11.465-2.992-15.561M116 120H32V82.14L41.21 76H72V53.657L73.657 52H84v36h32zM92 80V52c21.662 0 24 19.581 24 28zm27.613-20.012c-1.247-2.46-2.78-4.746-4.633-6.777l36.696-8.153-.495 7.915zM159.758 44h1.597c1.674 0 3.228.672 4.374 1.892a5.94 5.94 0 0 1 1.615 4.483L164.242 100h-7.984zm7.795 71.275C166.048 119.564 161.316 124 156 124h-10.45l5.333-16h15.555c2.158 2.384 1.837 5.215 1.115 7.275"/></svg>