<svg xmlns="http://www.w3.org/2000/svg" viewBox="0 0 192 192"><path d="M160.262 117.93a4 4 0 0 0-1.521-2.417l-14.393-10.796a4 4 0 0 0-3.885-.513l-17.76 7.104a4 4 0 0 0-2.395 2.744l-3.374 13.498a4 4 0 0 0 .68 3.37l10.712 14.279a4 4 0 0 0 3.2 1.6h14.479c.62 0 1.233-.145 1.789-.422l13.775-6.888a4 4 0 0 0 2.133-4.362l-3.44-17.198zm-15.202 20.869h-11.534l-8.368-11.156 2.416-9.667 13.772-5.51 11.371 8.53 2.541 12.704zm-11.966-53.365a4 4 0 0 0-1.12-3.47l-8.007-8.004a4 4 0 0 0-2.043-1.094l-17.95-3.587a4.01 4.01 0 0 0-4.112 1.704L93.383 80.7a4 4 0 0 0-.671 2.219v4.786c0 1.514.855 2.9 2.21 3.577l13.307 6.654a3.99 3.99 0 0 0 3.578.001l19.128-9.564a4 4 0 0 0 2.16-2.938zm-23.076 4.451-9.306-4.653V84.13l4.32-6.48 14.136 2.825 3.225 3.224zm-4.116 18.754-17.733-8.866a8.4 8.4 0 0 0-9.745 1.576l-8.86 8.862a8.36 8.36 0 0 0-2.487 5.971c0 2.258.883 4.38 2.477 5.963l8.852 8.853a8.45 8.45 0 0 0 5.976 2.49c.946 0 1.863-.152 2.674-.436l13.305-4.43a8.54 8.54 0 0 0 3.304-2.04l4.43-4.44a8.49 8.49 0 0 0 2.366-7.307 8.47 8.47 0 0 0-4.559-6.196m-3.467 7.848-4.402 4.414a.6.6 0 0 1-.204.132l-13.3 4.43-.146.025a.42.42 0 0 1-.302-.129l-8.88-8.879a.42.42 0 0 1 .009-.604l8.881-8.88a.4.4 0 0 1 .292-.12q.103 0 .2.05l17.74 8.87c.13.064.219.182.238.304a.45.45 0 0 1-.126.387M82.66 152.632l-5.738 2.039-29.06-37.626a11.96 11.96 0 0 0 4.122-8.731c0-.013.005-.024.006-.037l3.62-52.002 104.094 7.714a4 4 0 0 0 .592-7.979L58.77 48.487A17.9 17.9 0 0 0 60 42a17.88 17.88 0 0 0-3.405-10.493l103.392-3.51a4 4 0 0 0 3.862-4.133c-.074-2.21-1.932-3.907-4.133-3.862l-117.852 4c-.02 0-.038.007-.058.007C31.97 24.115 24 32.14 24 42c0 .753.061 1.49.151 2.218v.023l3.856 64c0 .017.006.032.007.05.121 5.028 3.346 9.29 7.831 10.953-3.464 7.886-7.814 23.003 1.856 35.898 5.401 7.201 13.437 10.972 23.325 10.972q.926 0 1.873-.044c5.422-.253 10.04-1.546 12.424-2.34l.017-.005.074-.026c.545-.183.975-.34 1.252-.445l8.674-3.082a4 4 0 0 0 2.43-5.11 4 4 0 0 0-5.11-2.43m-47.32-55.69-2.374-39.398A17.87 17.87 0 0 0 42 60c1.877 0 3.687-.291 5.39-.827l-2.633 37.815A11.9 11.9 0 0 0 40 96c-1.652 0-3.226.335-4.659.941zM40 104c2.206 0 4 1.794 4 4s-1.794 4-4 4-4-1.794-4-4 1.794-4 4-4m2-72c5.513 0 10 4.486 10 10s-4.487 10-10 10-10-4.487-10-10 4.486-10 10-10m20.313 126.087c-8.023.324-14.117-2.287-18.212-7.746-4.184-5.58-5.3-12.579-3.318-20.803a42.4 42.4 0 0 1 1.96-6.031l26.048 33.724a37.7 37.7 0 0 1-6.478.856"/></svg>