<svg xmlns="http://www.w3.org/2000/svg" viewBox="0 0 192 192"><path d="M176.815 124 136 77.354v17.523l-12-3-12.096 3.024C111.37 84.67 107.807 72 84 72v.05c-.166-.018-.329-.05-.5-.05H66.343L60 78.343V96h-8V82.343l-9.171-9.172-5.658 5.658L44 85.657V96H30.79L16 105.86V140h16.34c1.91 11.336 11.79 20 23.66 20s21.75-8.664 23.66-20H88c0 11.028 8.972 20 20 20s20-8.972 20-20c0-9.658-6.882-17.738-16-19.597v-1.28l12-3 12 3V124zM144 98.646 159.185 116H144zM103.962 96H88V80.14c13.872.995 15.72 7.406 15.962 15.86M56 152c-8.822 0-16-7.178-16-16s7.178-16 16-16 16 7.178 16 16-7.178 16-16 16m33.682-20H79.66c-1.91-11.336-11.79-20-23.66-20s-21.75 8.664-23.66 20H24v-21.86l9.21-6.14H68V81.657L69.657 80H80v24h24v16.403c-6.432 1.311-11.743 5.723-14.318 11.597M120 140c0 6.617-5.383 12-12 12s-12-5.383-12-12 5.383-12 12-12 12 5.383 12 12m4-32.123-12 3v-7.754l12-3 12 3v7.754z"/></svg>