<svg xmlns="http://www.w3.org/2000/svg" viewBox="0 0 192 192"><path fill-rule="evenodd" d="m141.657 75.999-16-15.999H50.343l-16 15.999H16v8h21.657l16-15.999H108v56H53.657l-16-15.999H16v8h18.343l16 15.999h75.314l16-16.001 26.63.001 7.916-40.001zM161.714 108l-23.37-.001L124 122.343V69.657L138.343 84h28.121zM60 83.999a4 4 0 1 1-8 0 4 4 0 0 1 8 0m-12 20a4 4 0 1 1 0-8 4 4 0 0 1 0 8m20-4a4 4 0 1 1 0-8 4 4 0 0 1 0 8m12 4a4 4 0 1 1 0 8 4 4 0 0 1 0-8M88 100a4 4 0 1 1 0-8 4 4 0 0 1 0 8m-8-20a4 4 0 1 1-8 0 4 4 0 0 1 8 0m20-.001a4 4 0 1 1-8 0 4 4 0 0 1 8 0m-4 28a4 4 0 1 1 0 8 4 4 0 0 1 0-8m-36 0a4 4 0 1 1 0 8 4 4 0 0 1 0-8" clip-rule="evenodd"/></svg>