<svg xmlns="http://www.w3.org/2000/svg" viewBox="0 0 192 192"><path d="M160 32v28h-8V45.657L130.829 66.83l-5.658-5.658L146.343 40H132v-8zm-98.829 93.171L40 146.343V132h-8v28h28v-8H45.657l21.172-21.171zM152 146.343l-21.171-21.172-5.658 5.658L146.343 152H132v8h28v-28h-8zM40 45.657 61.171 66.83l5.658-5.658L45.657 40H60v-8H32v28h8zm41.171 7.514 5.658 5.658L92 53.657V76h8V53.657l5.171 5.172 5.658-5.658L96 38.343zM100 138.343V116h-8v22.343l-5.171-5.172-5.658 5.658L96 153.657l14.829-14.828-5.658-5.658zm33.182-33.182 5.636 5.678 15.19-15.077-15.236-14.646-5.544 5.768L138.551 92H116v8h22.382zm-74.41-18.277-5.544-5.768-15.237 14.646 15.191 15.077 5.636-5.678-5.2-5.161H76v-8H53.45z"/></svg>