<svg xmlns="http://www.w3.org/2000/svg" viewBox="0 0 192 192"><path d="M160 94.427V140H16V52h101.573l-8 8H24v72h128v-29.573zM144 36v8h18.343l-26.671 26.671 5.657 5.657L168 49.657V68h8V36zM32.131 108.299h6.69v-8.268h4.549q3.851 0 6.159-1.826 2.656-2.092 2.656-6.026 0-3.602-2.108-5.744-2.424-2.44-7.039-2.44H32.131zm6.691-13.132v-6.143h3.669q3.271 0 3.271 3.055 0 3.088-3.304 3.088zm16.817 13.132h5.811V91.515l5.512 16.784h4.731l5.578-16.718v16.718h6.558V83.994h-9.446L69.652 98.72l-4.665-14.726H55.64zm33.934-25.184q-1.13.963-1.129 2.507 0 1.329.896 2.274 1.013 1.096 2.606 1.096 1.361 0 2.341-.847 1.13-.996 1.129-2.523 0-1.311-.863-2.241-1.013-1.096-2.573-1.096-1.41 0-2.407.83m-.797 25.184h6.292v-17.78h-6.292zm11.256 0h6.01V93.308l8.384 14.991h6.823V83.994h-6.01v14.244l-7.936-14.244h-7.271zm30.796 0h6.69V89.373h6.541v-5.379h-19.756v5.379h6.524v18.926Z"/></svg>