<svg xmlns="http://www.w3.org/2000/svg" viewBox="0 0 192 192"><path d="m35.05 134.323-5.776 5.776a79.4 79.4 0 0 1-8.539-16.947l-.952-2.64 2.16-1.794c15.433-12.816 33.96-21.324 53.558-24.846l-10.799 10.799c-12.789 3.869-24.837 10.081-35.429 18.408a71.4 71.4 0 0 0 5.777 11.244M91.38 76.56A108.2 108.2 0 0 1 85 40c0-5.415.734-10.69 1.578-15.37a71 71 0 0 1 19.056.03C106.564 30.321 107 35.253 107 40c0 8.639-1.104 17.223-3.199 25.572l10.126-10.126A112 112 0 0 0 115 40c0-6.006-.63-12.228-1.984-19.58l-.505-2.74-2.745-.476A81 81 0 0 0 96 16c-4.448 0-8.99.39-13.498 1.156l-2.725.464-.53 2.713C78.136 26.022 77 32.808 77 40c0 13.687 2.443 27.22 7.113 39.954a19.98 19.98 0 0 0-7.875 13.181l16.91-16.91c-.597.09-1.189.197-1.77.336zm78.678 42.157 2.16 1.793-.952 2.641c-3.221 8.928-7.985 17.157-14.159 24.459l-1.813 2.144-2.632-.977c-18.999-7.048-35.776-19.009-48.681-34.45a20 20 0 0 1-5.121 1.44l21.206-21.206c18.275 3.876 35.491 12.115 49.992 24.156m-7.33 4.36c-13.897-10.926-30.284-18.226-47.573-21.349a20 20 0 0 1-4.627 7.976c11.353 13.413 25.862 23.961 42.255 30.545a71.6 71.6 0 0 0 9.945-17.171zm10.93-93.421-11.314-11.314-144 144 11.314 11.314z"/></svg>