<svg xmlns="http://www.w3.org/2000/svg" viewBox="0 0 192 192"><path d="M148 140h12v8h-12v12h-8v-12h-12v-8h12v-12h8zm28 4c0 17.645-14.355 32-32 32s-32-14.355-32-32 14.355-32 32-32 32 14.355 32 32m-8 0c0-13.234-10.766-24-24-24s-24 10.766-24 24 10.766 24 24 24 24-10.766 24-24m-52.119-28.416a40.3 40.3 0 0 0-5.127 6.201 118 118 0 0 1-6.79-7.45A19.9 19.9 0 0 1 96 116c-2.998 0-5.833-.682-8.388-1.869-13.005 15.383-29.752 27.258-48.49 34.357l-2.66 1.007-1.825-2.18a79.7 79.7 0 0 1-13.902-24.163l-.952-2.64 2.16-1.794c15.59-12.946 34.318-21.578 54.199-25.01.644-5.613 3.625-10.513 7.94-13.73C79.385 67.19 77 53.744 77 40c0-7.192 1.136-13.978 2.247-19.667l.53-2.713 2.725-.464a79.7 79.7 0 0 1 27.264.048l2.745.477.505 2.74C114.37 27.772 115 33.994 115 40c0 13.672-2.437 27.08-7.234 39.863 4.396 3.214 7.439 8.163 8.092 13.84a115.1 115.1 0 0 1 31.903 10.48A40 40 0 0 0 144 104c-4.355 0-8.546.71-12.474 2.002a107.7 107.7 0 0 0-16.367-4.292 20 20 0 0 1-4.632 7.995 111 111 0 0 0 5.354 5.879m-34.718-6.22a20 20 0 0 1-4.322-7.653 107.74 107.74 0 0 0-47.569 21.368 71.6 71.6 0 0 0 9.704 16.868c16.224-6.643 30.735-17.167 42.187-30.583M85 40a107.6 107.6 0 0 0 6.369 36.563A20 20 0 0 1 96 76c1.534 0 3.023.19 4.46.519 4.327-11.723 6.54-24 6.54-36.519 0-4.746-.437-9.678-1.366-15.34a71 71 0 0 0-19.056-.03C85.734 29.31 85 34.584 85 40m23 56c0-6.617-5.383-12-12-12s-12 5.383-12 12 5.383 12 12 12 12-5.383 12-12"/></svg>