<svg xmlns="http://www.w3.org/2000/svg" viewBox="0 0 192 192"><path d="M150.574 111.842c-11.188-9.4-24.577-15.748-38.804-18.436a16 16 0 0 0-5.86-9.943 85.1 85.1 0 0 0 4.999-28.746c0-4.483-.464-9.12-1.46-14.59l-.499-2.742-2.744-.482a58.4 58.4 0 0 0-20.213-.035l-2.725.469-.525 2.715c-.817 4.235-1.652 9.288-1.652 14.665a87 87 0 0 0 4.893 28.825 16 16 0 0 0-5.754 9.866C66 96.096 52.615 102.44 41.426 111.842l-2.128 1.788.933 2.618a59.8 59.8 0 0 0 10.291 18.095l1.832 2.213 2.682-1.028c13.442-5.152 25.488-13.682 34.954-24.71A15.9 15.9 0 0 0 96 112c1.999 0 3.906-.385 5.672-1.058 9.457 11.146 21.567 19.708 35.141 24.803l2.656.997 1.82-2.177a59.8 59.8 0 0 0 10.48-18.317l.933-2.618zM89.091 54.717c0-3.615.45-7.16.997-10.363a49.8 49.8 0 0 1 11.964.018c.582 3.787.857 7.128.857 10.345a77.1 77.1 0 0 1-4.338 25.51A16 16 0 0 0 96 80c-.92 0-1.815.095-2.692.245a79 79 0 0 1-4.217-25.528m-34.195 72.237a51.7 51.7 0 0 1-6.115-10.775c9.466-7.38 20.498-12.445 32.179-14.774a16 16 0 0 0 2.598 4.633c-7.896 9.07-17.723 16.241-28.662 20.916M88 96c0-4.411 3.589-8 8-8s8 3.589 8 8-3.589 8-8 8-8-3.589-8-8m48.929 31.184c-10.995-4.611-20.837-11.769-28.709-20.879a16 16 0 0 0 2.82-4.901c11.68 2.33 22.713 7.396 32.18 14.775a51.8 51.8 0 0 1-6.291 11.005M96 176c-44.112 0-80-35.888-80-80s35.888-79.999 80-79.999 80.001 35.888 80.001 80S140.113 176 96.001 176zm0-151.999c-39.7 0-72 32.299-72 72S56.3 168 96 168s72.001-32.299 72.001-72-32.3-71.999-72-71.999z"/></svg>