<svg xmlns="http://www.w3.org/2000/svg" viewBox="0 0 192 192"><path d="M97.775 122.357a16.78 16.78 0 0 0-6.229-10.674 91.2 91.2 0 0 0 5.64-31.594c0-4.852-.508-9.874-1.6-15.804l-.505-2.74-2.745-.477a64.5 64.5 0 0 0-22.078-.039l-2.725.464-.53 2.713c-.896 4.59-1.812 10.065-1.812 15.883a93.3 93.3 0 0 0 5.521 31.683 16.78 16.78 0 0 0-6.11 10.59 93.4 93.4 0 0 0-43.157 20.072l-2.16 1.793.952 2.641a64.5 64.5 0 0 0 11.26 19.568l1.824 2.18 2.659-1.007c14.923-5.653 28.277-15.065 38.708-27.243a16.68 16.68 0 0 0 12.635.134c10.419 12.308 23.84 21.754 38.906 27.343l2.632.977 1.813-2.145a64.5 64.5 0 0 0 11.466-19.807l.953-2.64-2.16-1.794a93.4 93.4 0 0 0-43.158-20.077M73.191 80.09c0-4.048.523-8.012 1.147-11.573a55.9 55.9 0 0 1 13.86.02c.672 4.242.988 7.968.988 11.553a83.3 83.3 0 0 1-4.95 28.284 17 17 0 0 0-3.047-.291c-1.09 0-2.152.113-3.184.312a85.3 85.3 0 0 1-4.814-28.305m-37.348 78.965a56.4 56.4 0 0 1-7.052-12.26 85.36 85.36 0 0 1 36.537-16.436 16.8 16.8 0 0 0 2.926 5.224c-8.87 10.224-19.996 18.285-32.411 23.472m36.549-34.175c0-4.85 3.946-8.797 8.797-8.797 4.85 0 8.797 3.946 8.797 8.797s-3.946 8.797-8.797 8.797-8.797-3.946-8.797-8.797m53.95 34.422c-12.483-5.117-23.627-13.167-32.47-23.444a16.8 16.8 0 0 0 3.179-5.5 85.4 85.4 0 0 1 36.535 16.437 56.4 56.4 0 0 1-7.244 12.507m45.712-75.292c0 13.76-11.028 22.74-11.497 23.115L158.058 104l-2.51-3.114c.085-.07 8.506-7.022 8.506-16.877 0-6.888-2.515-11.08-5.428-15.933-3.078-5.13-6.567-10.945-6.567-20.05 0-13.495 8.794-22.444 9.168-22.818l5.657 5.657c-.057.057-6.825 7.062-6.825 17.161 0 6.889 2.515 11.08 5.427 15.934 3.079 5.13 6.568 10.945 6.568 20.05m-28.272-20.05c3.079 5.13 6.568 10.945 6.568 20.05 0 13.758-11.028 22.738-11.497 23.114L136.354 104l-2.51-3.114c.085-.07 8.506-7.022 8.506-16.877 0-6.888-2.516-11.08-5.428-15.933-3.078-5.13-6.567-10.945-6.567-20.05 0-13.496 8.794-22.444 9.168-22.818l5.657 5.657c-.056.057-6.825 7.062-6.825 17.161 0 6.889 2.515 11.08 5.427 15.934m-28.563 4.116c-3.079-5.13-6.568-10.945-6.568-20.05 0-13.495 8.794-22.444 9.168-22.818l5.657 5.657c-.057.057-6.825 7.062-6.825 17.161 0 6.889 2.516 11.08 5.428 15.934 3.078 5.13 6.567 10.945 6.567 20.05 0 13.758-11.027 22.738-11.497 23.114l-4.997-6.248L114.65 104l-2.51-3.114c.086-.07 8.506-7.022 8.506-16.877 0-6.888-2.516-11.08-5.427-15.933"/></svg>