<svg xmlns="http://www.w3.org/2000/svg" viewBox="0 0 192 192"><path d="M96 84c6.617 0 12 5.383 12 12s-5.383 12-12 12-12-5.383-12-12 5.383-12 12-12m0-8c-11.028 0-20 8.972-20 20s8.972 20 20 20 20-8.972 20-20-8.972-20-20-20m34.662 29.709a108.7 108.7 0 0 1 32.065 17.37 71.6 71.6 0 0 1-9.944 17.17c-11.272-4.533-21.83-11.048-31.028-19.117a36.1 36.1 0 0 0 8.907-15.423m-6.677-10.292c.004.195.015.387.015.583 0 10.54-5.855 19.733-14.48 24.51 12.08 12.519 26.831 22.218 43.14 28.269l2.633.976 1.813-2.144c6.174-7.302 10.938-15.531 14.159-24.459l.952-2.64-2.16-1.794a115.9 115.9 0 0 0-46.072-23.3zM61.347 105.71a36.25 36.25 0 0 0 8.558 15.051c-9.196 8.052-19.723 14.59-30.93 19.186a71.6 71.6 0 0 1-9.702-16.866 108.6 108.6 0 0 1 32.074-17.371m6.668-10.288a115.9 115.9 0 0 0-46.072 23.297l-2.16 1.793.952 2.641a79.7 79.7 0 0 0 13.902 24.162l1.825 2.181 2.66-1.007c16.166-6.124 30.846-15.81 42.925-28.228C73.661 115.418 68 106.36 68 96c0-.194.01-.386.015-.58zm27.98-71.415c3.187 0 6.419.22 9.64.654C106.563 30.322 107 35.255 107 40c0 7.108-.716 14.178-2.132 21.11a35.95 35.95 0 0 0-17.799.015A108.5 108.5 0 0 1 85 40c0-5.416.734-10.691 1.578-15.37a72 72 0 0 1 9.416-.624m0-8c-4.494 0-8.986.383-13.492 1.15l-2.725.464-.53 2.713C78.136 26.022 77 32.808 77 40c0 10.936 1.514 21.682 4.495 32.058A27.83 27.83 0 0 1 96 68a27.8 27.8 0 0 1 14.396 3.995A113 113 0 0 0 115 40c0-6.006-.63-12.228-1.984-19.58l-.505-2.74-2.745-.476a80.3 80.3 0 0 0-13.772-1.198"/></svg>