<svg xmlns="http://www.w3.org/2000/svg" viewBox="0 0 192 192"><path d="M144.354 117.71c-3.013-4.632-4.887-7.814-4.906-7.846L136 104l-3.448 5.864c-.019.032-1.893 3.214-4.906 7.846l-.684 1.046c-3.102 4.726-6.962 10.61-6.962 17.135 0 8.822 7.178 16 16 16s16-7.178 16-16c0-6.526-3.86-12.409-6.962-17.135l-.684-1.045zM136 143.892c-4.411 0-8-3.589-8-8 0-4.136 3.002-8.71 5.657-12.755l.696-1.064A272 272 0 0 0 136 119.51c.507.799 1.062 1.664 1.66 2.584l.69 1.052c2.648 4.036 5.65 8.61 5.65 12.746 0 4.411-3.589 8-8 8M132 56H72V40h48v-8H32v128h40V88h88v-4c0-15.44-12.56-28-28-28M40 40h24v16H40zm24 40v72H40V64h92c9.658 0 17.74 6.882 19.598 16z"/></svg>