<svg xmlns="http://www.w3.org/2000/svg" viewBox="0 0 192 192"><path d="m29.657 173.657-11.314-11.314 144-144 11.314 11.314zM64 80v25.373l8-8V88h9.373l8-8zm87.087-16.46-5.667 5.667c3.09 2.806 5.314 6.551 6.178 10.793h-16.971l-8 8H160v-4c0-8.068-3.435-15.346-8.913-20.46M54.627 160H72v-17.373zM32 137.373V32h88v8H72v16h41.373l-8 8H40v65.373zM40 56h24V40H40zm105.038 62.756c3.102 4.726 6.962 10.61 6.962 17.135 0 8.822-7.178 16-16 16s-16-7.178-16-16c0-6.526 3.86-12.409 6.962-17.135l.684-1.046c3.013-4.632 4.887-7.814 4.906-7.846L136 104l3.448 5.864c.019.032 1.893 3.214 4.906 7.847zM144 135.89c0-4.136-3.002-8.71-5.65-12.746l-.69-1.052c-.598-.92-1.153-1.785-1.66-2.584a287 287 0 0 1-1.647 2.563l-.696 1.064c-2.655 4.045-5.657 8.62-5.657 12.755 0 4.411 3.589 8 8 8s8-3.589 8-8"/></svg>