<svg xmlns="http://www.w3.org/2000/svg" viewBox="0 0 192 192"><path d="M132 56H72V40h48v-8H32v128h40V88h88v-4c0-15.44-12.56-28-28-28M40 40h24v16H40zm24 40v72H40V64h92c9.658 0 17.74 6.882 19.598 16zm90 87.078c2.823-.89 5.363-2.404 7.494-4.36l7.19 4.152a28 28 0 0 0 6.005-10.39l-7.176-4.143c.31-1.398.487-2.846.487-4.337s-.177-2.939-.487-4.337l7.176-4.143a28 28 0 0 0-6.005-10.39l-7.19 4.151c-2.131-1.955-4.671-3.469-7.494-4.359v-8.27c-1.934-.423-3.94-.652-6-.652s-4.066.229-6 .651v8.271c-2.823.89-5.363 2.404-7.494 4.36l-7.19-4.152a28 28 0 0 0-6.005 10.39l7.176 4.143c-.31 1.398-.487 2.846-.487 4.337s.177 2.939.487 4.337l-7.176 4.143a28 28 0 0 0 6.005 10.39l7.19-4.151c2.131 1.955 4.671 3.469 7.494 4.359v8.27c1.934.423 3.94.652 6 .652s4.066-.229 6-.651zM136 148c0-6.617 5.383-12 12-12s12 5.383 12 12-5.383 12-12 12-12-5.383-12-12"/></svg>