<svg xmlns="http://www.w3.org/2000/svg" viewBox="0 0 192 192"><path d="M136 119.51c.507.798 1.062 1.663 1.66 2.583l.69 1.052c2.648 4.036 5.65 8.61 5.65 12.746 0 4.411-3.589 8-8 8s-8-3.589-8-8c0-4.136 3.002-8.71 5.657-12.755l.696-1.064a272 272 0 0 0 1.647-2.563m33.172-102.338-152 152 5.657 5.658 152-152zM120 32H32v111.028l8-8V64h71.028l8-8H72V40h48zM40 56V40h24v16zm107.956 5.013-5.77 5.77A20.07 20.07 0 0 1 151.595 80h-22.627l-8 8H160v-4c0-9.308-4.644-17.838-12.044-22.987M95.028 80H64v31.028l8-8V88h15.028zM136 104l-3.448 5.864c-.019.032-1.893 3.214-4.906 7.846l-.684 1.046c-3.102 4.726-6.962 10.61-6.962 17.135 0 8.822 7.178 16 16 16s16-7.178 16-16c0-6.526-3.86-12.409-6.962-17.135l-.684-1.045c-3.013-4.633-4.887-7.815-4.906-7.847zm-64 32.97-8 8V152h-7.03l-8 8H72z"/></svg>