<svg xmlns="http://www.w3.org/2000/svg" viewBox="0 0 192 192"><path d="M103.222 136.889c0 3.89-3.222 7.111-7.11 7.111-4.001 0-7.112-3.11-7.112-7.111s3.11-7.111 7.111-7.111c3.889 0 7.111 3.222 7.111 7.11zM91 88.889V64h10.222v24.889l-2.666 30.667h-4.89zM104 152H29.783L96 32.265 137.884 108h9.142L96 15.735 16.217 160H104zm36.325 7.989a4 4 0 0 0 3.04-2.71l3.423-10.734 1.64 3.255A4 4 0 0 0 152 152h8v-8h-5.537l-4.938-9.8a4 4 0 0 0-7.383.584l-4.19 13.138-2.086-2.49A4 4 0 0 0 132.8 144H128v8h2.932l5.555 6.632a4 4 0 0 0 3.838 1.357M176 176h-64v-60h64zm-56-8h48v-44h-48z"/></svg>