<svg xmlns="http://www.w3.org/2000/svg" xml:space="preserve" viewBox="0 0 192 192"><path d="M159.998 71.999c0-10.847-6.652-19.372-16.727-22.6C148.49 46.246 152 40.533 152 34c0-9.925-8.075-18-18-18s-18 8.075-18 18c0 6.532 3.509 12.245 8.73 15.4C114.652 52.627 108 61.153 108 72v44h12v60h8v-68h-12V72c0-9.42 7.402-16 18-16s17.998 6.579 17.998 15.999L152 108h-12v68h8v-60h12zM134 24c5.514 0 10 4.486 10 10s-4.486 10-10 10-10-4.486-10-10 4.486-10 10-10M84 68c0-8.808-5.005-15.626-12.887-18.505C76.421 46.361 80 40.598 80 34c0-9.925-8.075-18-18-18s-18 8.075-18 18c0 6.673 3.659 12.497 9.067 15.605C45.152 52.57 40 59.407 40 68v23.18L25.934 124H48v52.023h8V116H38.066L48 92.82V68c0-5.973 4.405-12 14.248-12C68.592 56 76 59.143 76 68v24.82L85.934 116H68v60.023h8V124h22.066L84 91.18zM62 24c5.514 0 10 4.486 10 10s-4.486 10-10 10-10-4.486-10-10 4.486-10 10-10"/></svg>