<svg xmlns="http://www.w3.org/2000/svg" viewBox="0 0 192 192"><path d="M175.8 176H15.12l13.6-68H40v8h-4.72l-10.4 52H166.2l-9.533-52H156v-8h7.333zM48 100h-8.02V64c0-8.89 5.258-16.143 13.13-19.264-3.856-2.924-6.361-7.537-6.361-12.735 0-8.822 7.184-16 16.013-16s16.013 7.178 16.013 16c0 5.454-2.75 10.273-6.932 13.163 2.05.93 3.914 2.133 5.517 3.596-2.59.98-4.75 2.84-6.13 5.21-2.39-1.84-5.57-2.89-9.24-2.89-8.25 0-14.01 5.31-14.01 12.92v28H56v60h-8zm6.749-67.999c0 4.411 3.595 8 8.013 8s8.013-3.589 8.013-8-3.594-8-8.013-8-8.013 3.59-8.013 8m34.365 20.735c-3.852-2.924-6.356-7.538-6.356-12.736 0-8.823 7.178-16 16-16s16 7.177 16 16c0 5.451-2.745 10.27-6.922 13.16 7.33 3.318 12.171 10.32 12.171 18.839L120.01 108h-8.001v52h-8v-60h8l-.002-28c0-7.609-5.76-12.922-14.008-12.922-8.249 0-14.01 5.314-14.01 12.923v28.001l8.02-.001v60h-8v-51.999l-8.02.001V72c0-8.888 5.257-16.14 13.125-19.264M90.758 40c0 4.41 3.59 8 8 8s8-3.59 8-8-3.589-8-8-8-8 3.588-8 8m27.622 8.98c1.906-1.795 4.185-3.23 6.732-4.241-3.857-2.924-6.363-7.538-6.363-12.738 0-8.822 7.184-16 16.013-16s16.013 7.178 16.013 16c0 5.456-2.751 10.276-6.935 13.166C151.165 48.485 156 55.483 156 64v36h-8v52h-8V92h8V64c0-7.61-5.76-12.92-14.01-12.92-3.95 0-7.32 1.22-9.77 3.32a12.02 12.02 0 0 0-5.84-5.42m8.369-16.979c0 4.411 3.595 8 8.013 8s8.013-3.589 8.013-8-3.594-8-8.013-8-8.013 3.59-8.013 8"/></svg>