<svg xmlns="http://www.w3.org/2000/svg" viewBox="0 0 192 192"><path d="M175.8 176H15.12L23 136.62l1.37 1.7 1.17-.94 4.67-3.77 1.17-.94.54.11L24.88 168H166.2l-9.53-52h-.51v-2.76l-.09-.52.09-.02V108h7.17zm-61.42-35.136 1.599-28.444-7.988-.448-1.399 24.903-15.108 12.22 5.032 6.22zm9.677-27.602 7.964 47.021 7.888-1.336-7.965-47.021zM104 112.205h-8v-26.5c0-9.501 6.242-17.588 14.895-20.502a15.9 15.9 0 0 1-2.911-9.172c0-8.822 7.181-16 16.008-16S140 47.209 140 56.031c0 5.666-2.97 10.641-7.427 13.485 4.534 3.971 7.397 9.756 7.397 16.19v6.186l8.358 12.997-6.73 4.327-9.628-14.975v-8.535c0-7.536-6.274-13.666-13.985-13.666S104 78.17 104 85.706zm11.984-56.174c0 4.412 3.592 8 8.008 8s8.008-3.588 8.008-8c0-4.41-3.592-8-8.008-8s-8.008 3.59-8.008 8M32.02 87.84l-1.4 24.91-15.11 12.22 5.03 6.22 16.03-12.97 1.17-.94.21-.18.46-.37 1.6-28.44zm16.066 1.292 7.964 47.022 7.888-1.336-7.964-47.022zM28.03 88.075h-8V61.577c0-9.502 6.242-17.59 14.895-20.504a15.9 15.9 0 0 1-2.911-9.171c0-8.822 7.18-16 16.008-16s16.008 7.178 16.008 16c0 5.666-2.97 10.64-7.427 13.484C61.137 49.358 64 55.143 64 61.576v6.187l8.357 12.996-6.729 4.327L56 70.112v-8.535c0-7.536-6.273-13.666-13.985-13.666S28.03 54.04 28.03 61.577zm11.984-56.173c0 4.411 3.592 8 8.008 8s8.008-3.589 8.008-8-3.593-8-8.008-8c-4.416 0-8.008 3.589-8.008 8M96 40H72v8h24zM72 56v8h24v-8z"/></svg>