<svg xmlns="http://www.w3.org/2000/svg" viewBox="0 0 192 192"><path d="M38.829 17.171 53.657 32 38.829 46.829 33.17 41.17 38.343 36H16v-8h22.343l-5.172-5.171zm68 0-5.658 5.658L106.343 28H84v8h22.343l-5.172 5.171 5.658 5.658L121.657 32zm-68 80-5.658 5.658L38.343 108H16v8h22.343l-5.172 5.171 5.658 5.658L53.657 112zm68 0-5.658 5.658 5.172 5.171H84v8h22.343l-5.172 5.171 5.658 5.658L121.657 112zM163.33 108H132v8h24.67l9.53 52H24.88l6.48-32.4-6.8-6.8-9.44 47.2H175.8zM84 68H61.66l5.17-5.17-5.66-5.66L46.34 72l14.83 14.83 5.66-5.66L61.66 76H84z"/></svg>