<svg xmlns="http://www.w3.org/2000/svg" viewBox="0 0 192 192"><path d="M175.8 176H15.12l13.6-68h35.93l3.35 7.18v.82H35.28l-10.4 52H166.2l-9.53-52H140v-8h23.33zm-87.31-73.703 23.207 56.176-7.394 3.054-20.08-48.609-6.924 3.228L65.466 90.77a23.84 23.84 0 0 1-.801-18.352 23.9 23.9 0 0 1 5.386-8.547 16 16 0 0 1-3.52-.836c-4.016-1.461-7.223-4.4-9.03-8.273s-1.995-8.219-.533-12.234 4.4-7.223 8.273-9.029 8.218-1.996 12.234-.534a15.9 15.9 0 0 1 9.029 8.273c2.412 5.174 1.795 10.986-1.097 15.46a24 24 0 0 1 17.245 5.544l25.623 1.767-.55 7.982-28.418-1.96-1.54-1.44a16.01 16.01 0 0 0-17.312-2.465 15.9 15.9 0 0 0-8.273 9.029 15.9 15.9 0 0 0 .534 12.234l8.42 18.056-.039-.093 7.394-3.055zm-19.223-46.78a7.95 7.95 0 0 0 6.116-.267c3.998-1.864 5.734-6.633 3.87-10.63a7.95 7.95 0 0 0-4.514-4.138 7.95 7.95 0 0 0-6.116.268 7.95 7.95 0 0 0-4.138 4.514 7.95 7.95 0 0 0 .267 6.117 7.95 7.95 0 0 0 4.515 4.137zm39.765 35.031-4.973 6.267 19.266 15.29-3.296 27.417 7.942.956 3.83-31.86z"/></svg>