<svg xmlns="http://www.w3.org/2000/svg" viewBox="0 0 192 192"><path d="M175.8 176H15.12l13.6-68H76v8H35.28l-10.4 52H166.2l-9.53-52h-32.83l-2.36-8h41.85zM84 134.126l-22.56 18.801 5.12 6.146 25.44-21.2V104h-8zm34.6-7.596-5.88-20.6-.87-3.03-7.7 2.2 16 56 7.7-2.2zm-7.958-64.422C106.765 58.227 101.428 56 96 56c-11.028 0-20 8.972-20 20v25h-8V76c0-12.945 8.831-23.861 20.785-27.053C85.808 45.455 84 40.937 84 36c0-11.028 8.972-20 20-20s20 8.972 20 20c0 7.72-4.404 14.42-10.825 17.752a28.6 28.6 0 0 1 3.127 2.703c4.891 4.897 7.692 11.33 7.684 17.649v9.043l7.586 15.053-7.144 3.6-8.442-16.75V74.099c.005-4.217-1.943-8.585-5.344-11.991M92 36c0 6.617 5.383 12 12 12s12-5.383 12-12-5.383-12-12-12-12 5.383-12 12m66.83 5.17-5.66 5.66 5.17 5.17H136v8h22.34l-5.17 5.17 5.66 5.66L173.66 56z"/></svg>