<svg xmlns="http://www.w3.org/2000/svg" viewBox="0 0 192 192"><path d="M89.657 72 74.829 86.829 69.17 81.17 74.343 76H52v-8h22.343l-5.172-5.171 5.658-5.658zM33.17 22.829 38.343 28H16v8h22.343l-5.172 5.171 5.658 5.658L53.657 32 38.829 17.171zm73.658-5.658-5.658 5.658L106.343 28H84v8h22.343l-5.172 5.171 5.658 5.658L121.657 32zm-68 80-5.658 5.658L38.343 108H16v8h22.343l-5.172 5.171 5.658 5.658L53.657 112zm68 0-5.658 5.658 5.172 5.171H84v8h22.343l-5.172 5.171 5.658 5.658L121.657 112zM163.33 108H132v8h24.67l9.53 52H24.88l6.48-32.4-6.8-6.8-9.44 47.2H175.8z"/></svg>