<svg xmlns="http://www.w3.org/2000/svg" viewBox="0 0 192 192"><path d="M152 176H40V16h112zm-104-8h96V24H48zm88-112H92v8h44zm0-20H92v8h44zm0 48H56v8h80zm0 20H56v8h80zm0 20H56v8h80zm0 20H56v8h80zM70.074 47.753c2.947.622 4.69 1.162 6.1 1.992 2.534 1.454 3.738 3.653 3.738 6.933 0 3.196-1.287 5.645-3.82 7.306-1.536.955-3.238 1.494-6.018 1.785V71h-3.115v-5.189c-5.314-.415-9.3-3.03-10.959-7.14l5.271-2.409c1.246 2.782 2.907 4.151 5.688 4.567v-7.805c-2.988-.622-4.525-1.161-6.019-2.116-2.366-1.454-3.612-3.82-3.612-6.81 0-3.361 1.62-6.06 4.525-7.554 1.411-.705 2.824-1.08 5.106-1.246v-3.652h3.115v3.652c3.985.208 7.264 1.702 9.672 4.815l-5.106 2.742c-1.453-1.91-2.907-2.617-4.566-2.742zm-3.115-7.64c-2.698.374-3.901 1.454-3.901 3.489 0 1.867.995 2.822 3.9 3.527zm3.115 20.758c2.656-.416 3.943-1.619 3.943-3.612 0-1.91-.996-2.822-3.943-3.611z"/></svg>