<svg xmlns="http://www.w3.org/2000/svg" viewBox="0 0 192 192"><path d="M96 16c-44.18 0-80 35.82-80 80 0 16.13 4.79 31.14 13 43.7v.3h.19c12.36 18.72 32.38 31.95 55.61 35.2L96 163l11.2 12.2c23.22-3.26 43.24-16.48 55.61-35.2h.19v-.3c8.21-12.56 13-27.57 13-43.7 0-44.18-35.82-80-80-80m4 36V24.12c11.61.64 22.49 4.05 32 9.57V52zm-40 0V33.69a71.44 71.44 0 0 1 32-9.57V52zm80 0V39.07c4.84 3.75 9.18 8.09 12.93 12.93zM39.07 52c3.75-4.84 8.09-9.18 12.93-12.93V52zM140 92V60h18.31a71.44 71.44 0 0 1 9.57 32zm-40 0V60h32v32zm-40 0V60h32v32zm-35.88 0a71.44 71.44 0 0 1 9.57-32H52v32zM140 132v-32h27.88a71.96 71.96 0 0 1-9.54 32zm-40 0v-32h32v32zm-40 0v-32h32v32zm-26.34 0a71.96 71.96 0 0 1-9.54-32H52v32zM140 152.96V140h12.97a70 70 0 0 1-2.8 3.42c-3.09 3.53-6.5 6.71-10.17 9.54m-29.84 13.63-8.26-9-1.89-2.06V140h32v18.35a71.6 71.6 0 0 1-21.84 8.24Zm-28.32 0A71.8 71.8 0 0 1 60 158.35V140h32v15.53l-1.89 2.06-8.26 9ZM52 152.96a72.7 72.7 0 0 1-10.17-9.54 70 70 0 0 1-2.8-3.42H52z"/></svg>