<svg xmlns="http://www.w3.org/2000/svg" viewBox="0 0 192 192"><path d="M97 168H40.35V23.7h92.4V88h7.7V16H32.65v159.7H97z"/><path d="M157.99 174.93c-.63 0-1.26-.15-1.83-.44l-19.79-10.2h-.03l-19.76 10.2c-1.34.69-2.96.57-4.19-.32s-1.84-2.39-1.6-3.88l3.59-21.97-15.82-15.67a4.002 4.002 0 0 1 2.21-6.8l22-3.38 10.01-19.88a3.996 3.996 0 0 1 7.14 0l10.01 19.88 22 3.38a4.002 4.002 0 0 1 2.21 6.8l-15.82 15.67 3.59 21.97a3.996 3.996 0 0 1-3.95 4.64Zm-21.62-18.65c1.26 0 2.53.29 3.67.88l12.72 6.56-2.31-14.13c-.42-2.55.43-5.16 2.27-6.98l10.17-10.07-14.15-2.17c-2.55-.39-4.77-2-5.94-4.31l-6.44-12.78-6.44 12.78a8 8 0 0 1-5.94 4.31l-14.15 2.17L120 142.61a8.04 8.04 0 0 1 2.27 6.98l-2.31 14.13 12.72-6.56s.04-.02.05-.03l.11-.05.06-.03c1.08-.52 2.27-.78 3.45-.78ZM56 76h64v8H56zM56 56h64v8H56zM56 96h40v8H56z"/></svg>