<svg xmlns="http://www.w3.org/2000/svg" viewBox="0 0 192 192"><path d="M144.001 176C126.356 176 112 161.644 112 143.999S126.356 112 144.001 112 176 126.355 176 143.999C176 161.644 161.645 176 144.001 176m0-56C130.767 120 120 130.766 120 143.999 120 157.233 130.767 168 144.001 168 157.234 168 168 157.233 168 143.999 168 130.766 157.234 120 144.001 120M148 156c0-2.17-1.806-4-3.945-4-2.247 0-4.056 1.792-4.056 4 0 2.248 1.77 4.002 4.02 4.002A3.98 3.98 0 0 0 148 156m-1.27-8 1.27-11.957V128h-8v7.957L141.27 148zM120 76H56v8h64zm0-20H56v8h64zM96 96H56v8h40zm16.022 72H48V24h96v80c2.74 0 5.414.278 8 .805V16H40v160h80.028a40.3 40.3 0 0 1-8.006-8"/></svg>