<svg xmlns="http://www.w3.org/2000/svg" viewBox="0 0 192 192"><path d="M152.308 61.992C137.199 55.548 117.202 52 96 52c-21.203 0-41.2 3.548-56.307 9.992-14.527 6.195-23.052 14.56-23.636 23.076H16v28.728C16.315 132.336 52.95 148 96 148c43.797 0 79.685-15.344 80-34.271V86c0-8.836-8.636-17.587-23.692-24.008M96 60c43.952 0 72 15.399 72 26s-28.048 26-72 26-72-15.399-72-26 28.048-26 72-26m0 80c-43.68 0-71.818-15.6-72-26.271v-13.1c3.907 3.438 9.158 6.625 15.6 9.378C54.674 116.45 74.705 120 96 120s41.325-3.549 56.4-9.993c6.442-2.753 11.694-5.94 15.6-9.378l.001 13.033C167.821 124.4 139.684 140 96 140m-1.212-40C112.807 100 124 94.636 124 86c0-8.505-11.467-14-29.212-14C76.383 72 68 79.257 68 86s8.383 14 26.788 14m0-20C109.69 80 116 84.292 116 86c0 2.027-6.405 6-21.212 6C80.904 92 76 87.221 76 86s4.904-6 18.788-6M136 86c0-2.842 3.325-6 9.495-6S156 82.478 156 86c0 3.631-4.302 6-10.505 6S136 88.842 136 86M36 86c0-2.842 3.325-6 9.495-6S56 82.478 56 86c0 3.631-4.302 6-10.505 6S36 88.842 36 86"/></svg>