<svg xmlns="http://www.w3.org/2000/svg" viewBox="0 0 192 192"><path d="M80 174.472v-45.007L31.375 72h129.25L112 129.465v29.007zM48.625 80 88 126.535v34.993l16-8v-26.993L143.375 80zm6.177-41.69V60h-4.65V44.49c-1.5.78-3.9 1.23-6.06 1.23l-.48-2.7c3.39-.57 5.88-1.68 7.29-4.709zm34.164-1.375c0 3.09-.72 5.82-2.04 7.89-1.29 2.04-3.48 3.18-6 3.18-5.01 0-8.1-4.26-8.1-11.19 0-2.91.75-5.79 2.04-7.74 1.32-2.04 3.48-3.18 6.03-3.18 4.95 0 8.07 4.29 8.07 11.04m-11.31.12c0 4.56 1.2 7.26 3.24 7.26 2.07 0 3.24-2.67 3.24-7.35 0-4.71-1.17-7.38-3.21-7.38-2.1 0-3.27 2.64-3.27 7.47m35.995 1.243v21.689h-4.65v-15.51c-1.5.78-3.9 1.23-6.06 1.23l-.48-2.7c3.39-.57 5.88-1.68 7.29-4.71h3.9zm35.124-1.385c0 3.09-.72 5.82-2.04 7.89-1.29 2.04-3.48 3.18-6 3.18-5.01 0-8.1-4.26-8.1-11.19 0-2.91.75-5.79 2.04-7.74 1.32-2.04 3.48-3.18 6.03-3.18 4.95 0 8.07 4.29 8.07 11.04m-11.31.12c0 4.56 1.2 7.26 3.24 7.26 2.07 0 3.24-2.67 3.24-7.35 0-4.71-1.17-7.38-3.21-7.38-2.1 0-3.27 2.64-3.27 7.47"/></svg>