<svg xmlns="http://www.w3.org/2000/svg" viewBox="0 0 192 192"><path d="M135.996 52.007h-20.017v-8h20.017zm0 8h-20.017v8h20.017zm0 16h-20.017v8h20.017zm24.005-60v126.044c0 18.746-15.25 33.997-33.996 33.997H65.998c-18.746 0-33.997-15.251-33.997-33.997V16.007zm-9.527 134.818c-3.573-1.232-6.47-3.232-8.56-5.085-3.316 2.947-8.57 6.267-15.405 6.267-6.807 0-12.046-3.294-15.363-6.232-3.125 2.778-8.44 6.225-15.58 6.225-7.148 0-12.482-3.454-15.616-6.231-3.318 2.94-8.559 6.238-15.37 6.238-6.869 0-12.14-3.354-15.453-6.31-2.278 1.947-5.02 3.74-7.67 4.915 3.547 10.14 13.205 17.436 24.541 17.436h60.007c11.256 0 20.862-7.193 24.469-17.223m1.527-126.818h-112v94.404c2.108-1.206 4.516-2.982 6.14-4.95a4 4 0 0 1 6.17 0c1.267 1.536 5.9 6.546 12.315 6.546 3.139 0 5.847-1.201 7.947-2.607a23.9 23.9 0 0 0 3.131 7.495c-2.985 1.751-6.706 3.112-11.078 3.112-6.868 0-12.14-3.354-15.453-6.31-2.712 2.318-6.084 4.424-9.172 5.518v14.836c0 .11.007.219.009.328 2.094-1.205 4.475-2.967 6.084-4.918a4 4 0 0 1 6.17 0c1.268 1.536 5.9 6.546 12.315 6.546 6.416 0 11.048-5.01 12.315-6.546a3.95 3.95 0 0 1 3.21-1.452 4 4 0 0 1 3.114 1.65c.033.045 4.8 6.341 12.347 6.341 7.538 0 12.265-6.285 12.311-6.349a4.02 4.02 0 0 1 3.118-1.633 4.02 4.02 0 0 1 3.2 1.443c1.267 1.536 5.9 6.546 12.315 6.546s11.048-5.01 12.315-6.546a4 4 0 0 1 6.17 0c1.073 1.3 3.523 3.892 6.987 5.395.008-.268.02-.535.02-.805v-14.764c-4.285-1.134-7.706-3.437-10.088-5.547-3.315 2.947-8.569 6.267-15.404 6.267-4.08 0-7.593-1.187-10.47-2.768a23.9 23.9 0 0 0 3.244-7.377c1.986 1.197 4.437 2.145 7.226 2.145 6.416 0 11.048-5.01 12.315-6.546a4 4 0 0 1 6.17 0c1.076 1.303 3.532 3.902 7.007 5.404zm-40.017 87.987c0-3.909-1.44-7.672-4-10.578V44.019c0-6.616-5.382-11.999-11.998-11.999s-11.999 5.384-11.999 12v57.397c-2.56 2.906-4 6.669-4 10.578 0 8.821 7.178 15.998 15.999 15.998s15.998-7.177 15.998-15.998zm-12-67.975v60.823l1.332 1.192a8 8 0 0 1 2.668 5.96c0 4.41-3.588 7.998-7.998 7.998s-7.998-3.588-7.998-7.998a8 8 0 0 1 2.667-5.96l1.332-1.192V44.019c0-2.205 1.794-3.999 3.999-3.999s3.998 1.794 3.998 3.999"/></svg>