<svg xmlns="http://www.w3.org/2000/svg" viewBox="0 0 192 192"><path d="m169.171 38.827-5.172-5.172v22.343h-8V33.655l-5.172 5.172-5.656-5.657 14.828-14.828 14.828 14.828zM148 71.343V49h-8v22.343l-5.172-5.172-5.656 5.657L144 86.656l14.828-14.828-5.656-5.657zM68.001 66c7.18 0 13-1.791 13-4s-5.82-4-13-4-13 1.791-13 4 5.82 4 13 4m52.001-4-.002.029v100.498c0 6.392-9.237 9.035-17.285 10.623-9.313 1.838-21.643 2.851-34.716 2.851s-25.403-1.012-34.716-2.851c-8.047-1.588-17.285-4.231-17.285-10.623V61h.07C17.485 49.33 43.642 44 68 44s50.516 5.33 51.932 17h.067v.971l.002.029ZM112 72.2c-9.856 5.305-27.345 7.8-43.999 7.8s-34.148-2.495-44.003-7.802v8.409C26.18 83.34 42.242 88 68 88s41.808-4.656 44-7.39zm0 17.575c-2.344 1.034-5.07 1.898-8 2.618v55.373c4.789-1.46 7.428-2.976 8-3.971zM23.998 81H24l-.002-.015zm0 62.794c.572.996 3.212 2.512 8.002 3.972V92.392c-2.931-.72-5.658-1.584-8.002-2.619zM40 149.693c2.393.453 5.063.865 8 1.212V94.98a148 148 0 0 1-8-1.014v55.726Zm16 1.935q3.773.243 8 .329V95.948c-2.125-.05-4.881-.147-8-.333zm16 .329q4.227-.086 8-.329V95.615c-3.119.186-5.875.283-8 .333zm16-1.052c2.938-.347 5.607-.759 8-1.212V93.967c-2.673.418-5.377.75-8 1.014zM24 62c0 .555 1.989 3.379 11.179 6.06C43.891 70.601 55.548 72 68.001 72s24.109-1.399 32.822-3.94c9.144-2.667 11.157-5.474 11.177-6.049v-.021c-.02-.575-2.033-3.382-11.177-6.049-8.713-2.541-20.369-3.94-32.822-3.94s-24.109 1.399-32.822 3.94C25.989 58.622 24 61.445 24 62.001Zm88 99.789v-8.483c-2.455 1.14-5.48 2.158-9.089 3.06C93.536 158.71 81.138 160 67.999 160s-25.538-1.291-34.912-3.634c-3.609-.902-6.634-1.92-9.089-3.06v8.483C26.81 164.044 41.989 168 67.999 168s41.188-3.956 44.001-6.211"/></svg>