<svg xmlns="http://www.w3.org/2000/svg" viewBox="0 0 192 192"><path d="m120.044 83.238-1.965-2.953-7.71 3.891c-1.442-3.582-2.67-7.552-3.869-11.426C102.735 60.582 98.842 48 87.714 48h-4v4c0 10.786-4.609 19.128-9.488 27.961C68.707 89.952 63 100.283 63 114.947 63 134.1 76.878 148 96 148s33-13.9 33-33.053c0-11.428-3.348-23.282-8.956-31.709m-32.473 44.16c0-4.865 2.223-10.368 6.765-16.703 1.766 4.447 3.953 7.733 5.836 10.56 2.471 3.711 4.257 6.393 4.257 10.294 0 4.66-3.782 8.451-8.429 8.451-5.041 0-8.429-5.064-8.429-12.602m24.548 7.302c.199-1.021.31-2.073.31-3.151 0-6.32-2.846-10.594-5.598-14.728-2.697-4.05-5.485-8.237-6.907-15.417l-1.59-8.022-5.356 6.18c-9.147 10.55-13.407 19.396-13.407 27.836 0 2.862.388 5.51 1.09 7.901C74.629 130.904 71 123.711 71 114.947c0-12.601 4.968-21.595 10.229-31.117 4.36-7.893 8.846-16.015 10.126-26.106 3.091 3.133 5.251 10.112 7.503 17.39 1.722 5.567 3.503 11.322 5.992 16.308l1.794 3.596 8.543-4.312C118.817 97.54 121 106.5 121 114.947c0 8.378-3.319 15.317-8.881 19.753M68.535 29.434 65.48 22.04a79.6 79.6 0 0 1 22.111-5.595l.833 7.957a71.6 71.6 0 0 0-19.89 5.032zM44.85 45.344l-5.684-5.63A80.2 80.2 0 0 1 58.11 25.537l3.795 7.043A72.1 72.1 0 0 0 44.85 45.344M29.434 68.535 22.04 65.48a79.9 79.9 0 0 1 11.941-20l6.2 5.056a71.9 71.9 0 0 0-10.747 18zm-5.426 27.473h-8a80 80 0 0 1 3.404-23.156l7.658 2.312a72 72 0 0 0-3.062 20.844m152 0c0 44.112-35.888 80-80 80-23.507 0-44-9.985-59.267-28.874-2.008-2.52-7.4-9.465-10.499-15.098l-2.151 9.82-7.815-1.712 5.136-23.444 23.444 5.136-1.712 7.814-10.357-2.268c1.85 3.548 6.244 9.787 10.193 14.745 13.679 16.924 32.021 25.88 53.028 25.88 39.701 0 72-32.298 72-72s-32.299-72-72-72v-8c44.112 0 80 35.889 80 80z"/></svg>