<svg xmlns="http://www.w3.org/2000/svg" viewBox="0 0 192 192"><path d="M64.1 132H88v8H64.1c-3.86 0-7.5-1.88-9.74-5.02L16 81.28V56h15.85v.11c0 2.73.4 5.38 1.13 7.89H24v14.72L33.49 92H52v8H39.2l8.57 12H60v8h-6.52l7.39 10.34A3.97 3.97 0 0 0 64.1 132m-6.11-86.31 3.48-.23.24-3.48c.38-5.45 5.09-9.73 10.71-9.73 1.53 0 3.01.31 4.41.92l3.19 1.4 1.82-2.97c2.92-4.76 8.06-7.6 13.74-7.6 8.82 0 16 7 16 15.6 0 1.18-.12 3.41-.23 4.08l-.55 3.09 2.88 1.27c1.96.86 3.56 2.25 4.66 3.96h8.78c-1.29-4.04-3.98-7.55-7.62-9.89.06-1.06.08-2.05.08-2.51 0-13.01-10.77-23.6-24-23.6-7.38 0-14.16 3.23-18.69 8.78-1.45-.35-2.95-.53-4.47-.53-8.68 0-16.11 5.92-18.17 13.95C46.09 40.19 40.05 47.47 40 56v.11c0 2.77.6 5.45 1.66 7.89 3 6.93 9.71 12 17.08 12H88v-8H58.74C52.69 68 48 61.61 48 56.11c0-5.47 4.39-10.04 9.99-10.42M68 120h20v-8H68zm-8-20h28v-8H60zm72 0h-20v8h20zm44-32v108H96V68h16v-8h48v8zm-56 4v4h32v-8h-32zm48 4h-8v8h-47.91c-.03.01-.06.01-.09.01V76h-8v92h64zm-19.79 26.63-4.42-2.21-3.58 7.16 11.58 5.79 7.79-15.58-7.16-3.58zm-5.41 36.31c-1.44-.9-3.95-1.71-7.52-2.44-1.86-.36-3.15-.79-3.87-1.28-.73-.49-1.09-1.18-1.09-2.08q0-3.09 4.47-3.09c1.15 0 2.15.24 3 .71.86.47 1.66 1.22 2.42 2.24l5.19-2.87c-2.57-3.41-6.11-5.11-10.64-5.11-3.12 0-5.59.68-7.43 2.05-2.08 1.55-3.12 3.78-3.12 6.7 0 2.7 1.08 4.75 3.24 6.13.68.43 1.51.8 2.48 1.12.98.32 2.57.73 4.77 1.22 1.94.46 3.26.91 3.98 1.37.81.49 1.21 1.26 1.21 2.28s-.39 1.84-1.19 2.47c-.91.7-2.22 1.05-3.92 1.05-1.62 0-2.93-.33-3.94-1-1.01-.66-1.81-1.71-2.39-3.16l-5.53 2.34c1.04 2.22 2.43 3.88 4.16 4.98 1.98 1.25 4.56 1.88 7.75 1.88 3.39 0 6.05-.68 7.97-2.03 2.22-1.55 3.32-3.86 3.32-6.94 0-2.9-1.1-5.08-3.32-6.54"/></svg>