<svg xmlns="http://www.w3.org/2000/svg" viewBox="0 0 192 192"><path d="m159.499 96.006-.369-3.136-3.136-.369c-.453-.052-11.252-1.288-25 .312-18.493 2.152-33.473 8.497-43.319 18.35-20.15 20.16-9.434 44.076-4.74 52.287l-7.764 7.768 5.658 5.655 7.761-7.765c4.561 2.61 13.961 7.075 24.874 7.075 8.732 0 18.43-2.86 27.386-11.821 9.846-9.852 16.187-24.84 18.337-43.342 1.599-13.756.365-24.56.312-25.014m-24.308 62.7c-15.192 15.2-32.908 8.707-40.758 4.555L101.69 156H128v-8h-18.315l31.165-31.182-5.659-5.655L116 130.365V116h-8v22.37l-19.202 19.212c-1.397-2.68-3.068-6.507-4.083-11.004-2.582-11.442.318-21.454 8.618-29.76 17.38-17.39 48.405-17.193 58.476-16.623.583 10.072.802 41.082-16.618 58.512zm-63.286-69.39c-10 12.315-11.405 24.05-11.405 33.187 0 8.85 2.814 16.015 7.454 19.972.283 3.8.982 7.457 1.947 10.878C47.348 150.271 32 132.59 32 108.836c0-20.316 8.37-34.722 16.466-48.652 7.346-12.642 14.284-24.582 14.284-40.18v-4h4c14.338 0 18.87 15.994 23.251 31.461 1.711 6.04 3.47 12.244 5.78 17.85l9.662-6.442 2.219 3.328c4.344 6.517 8.299 15.465 10.924 24.579a97 97 0 0 0-7.743 2.047c-1.96-6.77-4.685-13.398-7.743-18.777l-10.568 7.045-2.026-4.053c-3.63-7.26-5.954-15.463-8.202-23.396-3.701-13.067-6.587-21.93-11.758-24.71-1.274 15.364-8.324 27.497-15.163 39.267C47.473 77.816 40 90.675 40 108.836c0 13.704 6.202 24.95 16.295 31.317-2.436-4.916-3.795-10.923-3.795-17.65 0-17.686 5.63-31.204 18.255-43.828l5.285-5.285 1.466 7.33c1.335 6.677 5.738 12.957 10.524 19.552a60 60 0 0 0-6.013 5.235l-.04.043c-3.762-5.177-7.58-10.485-10.072-16.234"/></svg>