<svg xmlns="http://www.w3.org/2000/svg" viewBox="0 0 192 192"><path d="M128 92H64v-8h64zm-56 20h48v-8H72zm32 32H75.1c-1.38 0-1.69-.28-3.22-2.22-.27-.34-.54-.68-.82-1.03l-6.4-8.75H72v-8H58.81l-8.77-12H64v-8H44.19l-8.77-12H56v-8H29.58L24 76.37V52h144v24.37L162.4 84H136v8h20.52l-8.93 12.17c2.98.27 5.87.86 8.64 1.75L176 78.99V44H16v34.98l48.67 66.59.16.2c.27.32.52.64.76.95 1.75 2.23 4.15 5.27 9.51 5.27h29.7c-.52-2.58-.8-5.25-.8-7.99m5.38-20H80v8h25.84c.89-2.81 2.08-5.49 3.54-8M144 112c-17.65 0-32 14.35-32 32s14.35 32 32 32 32-14.35 32-32-14.35-32-32-32m0 56c-13.23 0-24-10.77-24-24s10.77-24 24-24 24 10.77 24 24-10.77 24-24 24m4-40h-8v12h-12v8h12v12h8v-12h12v-8h-12z"/></svg>