<svg xmlns="http://www.w3.org/2000/svg" viewBox="0 0 192 192"><path d="M64.1 132H88v8H64.1c-3.86 0-7.5-1.88-9.74-5.02L16 81.28V56h15.85v.11c0 2.73.4 5.38 1.13 7.89H24v14.72L33.49 92H52v8H39.2l8.57 12H60v8h-6.52l7.39 10.34A3.97 3.97 0 0 0 64.1 132m-6.11-86.31 3.48-.23.24-3.48c.38-5.45 5.09-9.73 10.71-9.73 1.53 0 3.01.31 4.41.92l3.19 1.4 1.82-2.97c2.92-4.76 8.06-7.6 13.74-7.6 8.82 0 16 7 16 15.6 0 1.18-.12 3.41-.23 4.08l-.55 3.09 2.88 1.27c1.96.86 3.56 2.25 4.66 3.96h8.78c-1.29-4.04-3.98-7.55-7.62-9.89.06-1.06.08-2.05.08-2.51 0-13.01-10.77-23.6-24-23.6-7.38 0-14.16 3.23-18.69 8.78-1.45-.35-2.95-.53-4.47-.53-8.68 0-16.11 5.92-18.17 13.95C46.09 40.19 40.05 47.47 40 56v.11c0 2.77.6 5.45 1.66 7.89 3 6.93 9.71 12 17.08 12H88v-8H58.74C52.69 68 48 61.61 48 56.11c0-5.47 4.39-10.04 9.99-10.42M68 120h20v-8H68zm-8-20h28v-8H60zm72 0h-20v8h20zm44-32v108H96V68h16v-8h48v8zm-56 4v4h32v-8h-32zm48 4h-8v8h-47.91c-.03.01-.06.01-.09.01V76h-8v92h64zm-19.79 26.63-4.42-2.21-3.58 7.16 11.58 5.79 7.79-15.58-7.16-3.58zm-18.665 22.776 6.484 19.59 6.484-19.59h9.16V154h-6.289v-21.523L138.099 154h-4.707l-7.324-21.562V154h-5.723v-28.594z"/></svg>