<svg xmlns="http://www.w3.org/2000/svg" viewBox="0 0 192 192"><path d="M136.265 78.362C142.538 90.812 148 108.046 148 124c0 30.13-21.87 52-52 52-16.528 0-30.558-6.59-39.868-17.505l5.62-5.62a39.8 39.8 0 0 0 11.806 9.723c-2.678-4.544-4.48-10.075-5.201-16.328l7.668-7.668c-.008.466-.025.926-.025 1.398 0 16.486 8.224 28 20 28 11.028 0 20-8.972 20-20 0-9.503-6.464-18.399-13.309-27.817a422 422 0 0 1-3.45-4.797l5.743-5.743a345 345 0 0 0 4.18 5.837C116.457 125.518 124 135.897 124 148c0 4.824-1.226 9.367-3.384 13.334C132.647 153.83 140 140.506 140 124c0-13.191-4.341-28.163-9.724-39.649zm-83.918 38.664c1.721-17.994 9.85-32.02 17.755-45.623 8.114-13.964 16.482-28.367 17.737-46.679 6.879 2.8 10.433 13.576 15.028 29.793.872 3.079 1.76 6.19 2.704 9.285l6.431-6.431a852 852 0 0 1-1.438-5.035C105.27 33.65 100.27 16 84 16h-4v4c0 18.446-8.168 32.502-16.815 47.383C53.753 83.614 44 100.398 44 124c0 .451.02.895.03 1.343zm121.31-87.37-11.314-11.313-144 144 11.314 11.314z"/></svg>