<svg xmlns="http://www.w3.org/2000/svg" viewBox="0 0 192 192"><path d="M55.9 89.3C47.7 99.2 44 109.6 44 122.4c0 8.8 3 16.2 8 20.2.3 3.8 1 7.4 1.9 10.8-22.6-3.1-37.9-20.8-37.9-44.6 0-20.3 8.4-34.7 16.5-48.7C39.8 47.5 46.8 35.6 46.8 20v-4h4C65.1 16 69.6 32 74 47.5c1.7 6 3.5 12.2 5.8 17.8l9.7-6.4 2.2 3.3c4.4 6.5 8.3 15.5 10.9 24.6-2.7.6-5.2 1.3-7.7 2-2-6.8-4.7-13.4-7.7-18.8l-10.6 7-2-4.1c-3.6-7.3-6-15.5-8.2-23.4-3.7-13.1-6.6-21.9-11.8-24.7-1.3 15.4-8.3 27.5-15.2 39.3C31.5 77.8 24 90.7 24 108.8c0 13.5 6 24.7 15.9 31.1C37.4 135 36 129 36 122.4c0-17 6-30.9 18.8-43.7l5.3-5.3 1.5 7.3c1.3 6.5 5.6 13.4 10.1 19.8-2 1.5-3.9 3.2-5.6 5l-.4.4c-3.7-5.2-7.4-10.8-9.8-16.6M136 56h-8v12h8zM86.7 35.1l2.5 7.6 12.1-4-2.5-7.6zm62.2 18.2 7.4 10 6.4-4.7-7.4-10zm-33.8.4-5.8-5.5-8.7 9.1 5.8 5.5zM156 24c-.9 13.4-11.3 24-23.9 24s-23-10.6-23.9-24H92v-8h80v8zm-8 0h-31.8c.9 9 7.7 16 15.9 16s15-7 15.9-16m16.1 7.1-2.5 7.6 11.9 3.9L176 35zM143.5 96c0 .4 1.3 11.2-.3 25-2.2 18.5-8.5 33.5-18.3 43.3-9 9-18.6 11.8-27.4 11.8-10.9 0-20.3-4.5-24.9-7.1l-5.9 5.9-1.9 1.9-5.7-5.7 1.9-1.9 5.8-5.9c-4.7-8.2-15.4-32.1 4.8-52.3 9.8-9.8 24.8-16.2 43.3-18.3 13.8-1.6 24.5-.4 25-.3l3.1.4zm-7.7 4.2c-10.1-.6-41.1-.8-58.5 16.6-8.3 8.3-11.2 18.3-8.6 29.8 1 4.5 2.7 8.3 4.1 11l6-6L92 138.4V116h8v14.4l19.2-19.2 5.7 5.7L93.7 148H112v8H85.7l-1.3 1.3-5.9 6c7.8 4.1 25.6 10.6 40.8-4.6 17.3-17.4 17.1-48.4 16.5-58.5"/></svg>