<svg xmlns="http://www.w3.org/2000/svg" viewBox="0 0 192 192"><path d="M147.83 92C145.78 65.191 123.327 44 96 44c-28.673 0-52 23.327-52 52s23.327 52 52 52c27.326 0 49.78-21.191 51.83-48H176v-8zM96 140c-24.262 0-44-19.738-44-44s19.738-44 44-44 44 19.738 44 44-19.738 44-44 44m50.917 6.858 5.654 5.654C138.083 167.015 118.07 176 96 176c-44.112 0-80-35.888-80-80s35.888-80 80-80c22.071 0 42.083 8.985 56.57 23.488l-5.653 5.654C133.877 32.088 115.866 24 96 24c-39.701 0-72 32.299-72 72s32.299 72 72 72c19.866 0 37.877-8.088 50.917-21.142"/></svg>