<svg xmlns="http://www.w3.org/2000/svg" viewBox="0 0 192 192"><path d="M44.38 130.649A60 60 0 0 1 44 124c0-23.602 9.753-40.386 19.185-56.617C71.832 52.502 80 38.446 80 20v-4h4c16.27 0 21.27 17.65 26.564 36.336.884 3.12 1.782 6.273 2.737 9.392L106.93 68.1c-1.484-4.492-2.786-9.074-4.063-13.583-4.595-16.217-8.15-26.993-15.028-29.793-1.255 18.312-9.623 32.715-17.737 46.679-8.76 15.073-17.792 30.664-18.075 51.6zM128.4 80.57C134.614 92.402 140 109.305 140 124c0 16.506-7.353 29.83-19.384 37.334A27.8 27.8 0 0 0 124 148c0-12.103-7.542-22.482-14.837-32.52-2.267-3.12-4.483-6.172-6.454-9.218l-5.768 5.768c1.845 2.765 3.804 5.475 5.75 8.153C109.536 129.6 116 138.497 116 148c0 11.028-8.972 20-20 20-11.776 0-20-11.514-20-28 0-2.546.127-5 .357-7.386l-8.33 8.33c.14 8.456 2.116 15.86 5.53 21.654-5.79-3.135-10.619-7.54-14.23-12.954l-5.684 5.683C62.835 168.127 77.928 176 96 176c30.13 0 52-21.87 52-52 0-17.599-6.645-36.76-13.696-49.334l-5.904 5.905zm46.429-57.742-5.658-5.658-152 152 5.658 5.658z"/></svg>