<svg xmlns="http://www.w3.org/2000/svg" viewBox="0 0 192 192"><path d="M165.73 26.216a6 6 0 1 1 8.54-8.432 6 6 0 0 1-8.54 8.432m-15.269-10.218h-8c0 18.494 15.047 33.54 33.541 33.54v-8c-14.083 0-25.54-11.457-25.54-25.54zm-18.461 0h-8C124 44.672 147.328 68 176.002 68v-8C151.739 60 132 40.26 132 15.998m-4.7 56.375c8.043 11.746 16.7 33.308 16.7 52.89 0 29.4-21.87 50.737-52 50.737s-52.001-21.338-52.001-50.736c0-23.035 9.765-39.396 19.209-55.22C67.843 55.574 76 41.908 76 24v-4h4c16.247 0 21.488 18.011 26.556 35.43 2.085 7.167 4.23 14.535 7.105 21.144l11.435-7.423 2.204 3.22zM92 168c11.028 0 20-8.688 20-19.368 0-9.19-6.45-17.833-13.278-26.982-4.714-6.316-9.55-12.795-12.487-19.852C73.731 116.285 72 130.12 72 140.842 72 156.832 80.224 168 92 168m44-42.736c0-15.513-6.344-33.576-13.203-45.082l-12.333 8.005-2.022-3.938c-4.229-8.233-6.943-17.562-9.568-26.584-4.59-15.774-8.143-26.252-15.042-28.966-1.276 17.834-9.643 31.853-17.755 45.445C57.19 89.036 48 104.436 48 125.264c0 16.915 8.185 30.39 21.415 37.413C65.96 156.841 64 149.374 64 140.842c0-20.022 6.541-35.32 21.209-49.602l5.238-5.1 1.47 7.161c1.66 8.082 7.535 15.952 13.216 23.564 7.309 9.793 14.867 19.92 14.867 31.767 0 4.634-1.189 9-3.277 12.83 11.968-7.3 19.277-20.214 19.277-36.198"/></svg>