<svg xmlns="http://www.w3.org/2000/svg" viewBox="0 0 192 192"><path d="M133.95 68c-.16-2.78-.76-5.48-1.74-8H152v25.28l-3.18 4.46c-2.81-.78-5.73-1.31-8.72-1.56l3.9-5.46V68zM80 136H64.1c-1.28 0-2.49-.62-3.23-1.66L53.48 124H60v-8H47.77l-8.57-12H52v-8H33.49L24 82.72V68h8c.01-2.78.46-5.47 1.28-8H16v25.28l38.36 53.71c2.24 3.14 5.89 5.01 9.74 5.01h24.57c-.44-2.6-.67-5.27-.67-8zm-12-12h21.51c.72-2.77 1.68-5.45 2.85-8H68zm28-20v-8H60v8zm40-8h-4v8.25c1.32-.17 2.66-.25 4-.25 17.65 0 32 14.35 32 32s-14.35 32-32 32-32-14.35-32-32c0-9.86 4.53-19.01 12-24.98V116h8V96h-20v8h7.99A40.03 40.03 0 0 0 96 136c0 2.74.28 5.42.8 8 3.72 18.24 19.88 32 39.2 32 22.06 0 40-17.94 40-40s-17.94-40-40-40m-17.219 47.328 15.328 10.219 18.219-27.328-6.656-4.438-13.781 20.672-8.672-5.781zM40 68.11V68c.02-2.86.69-5.58 1.88-8 2.36-4.79 6.72-8.44 12.01-9.78 2.01-8.05 9.3-13.97 17.82-13.97 1.47 0 2.91.17 4.31.52C80.44 31.29 87.19 28 94.29 28c12.96 0 23.5 10.59 23.5 23.6 0 .47-.02 1.47-.08 2.54 2.3 1.52 4.22 3.54 5.61 5.86 1.46 2.4 2.37 5.13 2.6 8 .06.52.08 1.04.08 1.56C126 79.73 117.76 88 107.63 88H58.37C48.58 88 40 78.71 40 68.11m8 0C48 74.22 53.04 80 58.37 80h49.26c5.72 0 10.37-4.69 10.37-10.44 0-4.11-2.41-7.86-6.14-9.54l-2.82-1.27.52-3.05c.12-.69.23-2.89.23-4.1 0-8.6-6.96-15.6-15.5-15.6-5.48 0-10.45 2.83-13.29 7.56l-1.83 3.06-3.24-1.46c-1.34-.6-2.75-.91-4.22-.91-5.43 0-9.97 4.27-10.34 9.72l-.24 3.49-3.48.23c-5.41.37-9.65 4.95-9.65 10.42"/></svg>