<svg xmlns="http://www.w3.org/2000/svg" viewBox="0 0 192 192"><path d="M93.85 143.99c.89 2.82 2.1 5.51 3.57 8.02H47.99V31.99h96.02v62.2c-2.57-.84-5.25-1.42-8.02-1.71V40.01H56.01v103.98H72V124h8v19.99zM128 84H64V48h64zm-8-28H72v20h48zm-56 48h39.56c3.27-3.29 7.11-6.01 11.36-8H64zm103.34 45.68-3-3-2.58-2.58c1.44-3.73 2.24-8 2.24-12.1 0-13.01-8.37-24.51-19.99-29.44A31.9 31.9 0 0 0 131.5 100c-1.16 0-2.33.07-3.5.23-2.45.3-4.94.93-7.52 1.91l-4.95 1.86-.85.32.56.57h.01l17.92 17.94c2.85 2.85 2.85 7.49 0 10.34a7.3 7.3 0 0 1-5.16 2.15H128a7.28 7.28 0 0 1-5.17-2.15l-2.83-2.83-15.16-15.17-.5-.5-2.19 5.79c-.05.14-.1.28-.14.41-.03.07-.06.13-.07.19-.09.23-.17.45-.24.67-.13.38-.25.75-.36 1.13-.09.28-.17.57-.25.86-.07.28-.15.57-.22.86s-.13.58-.2.87a26 26 0 0 0-.61 4.5c-.02.41-.04.82-.05 1.23-.01.11-.01.21-.01.32v.25c0 .19.01.38.01.57.03 4.12.87 8.06 2.35 11.67a31.4 31.4 0 0 0 4.76 8.02c2.94 3.61 6.65 6.56 10.88 8.6.04.02.08.03.11.05 4.23 2.13 8.95 3.34 13.89 3.34 4.07 0 8.34-.81 12.08-2.26l2.7 2.7 2.99 2.99 7.4 7.4 5.66-5.66-6.2-6.2-2.83-2.83-2.87-2.87-5.19-5.19-2.59 1.33c-3.22 1.65-7.28 2.59-11.15 2.59-4.6 0-9-1.48-12.74-3.99a25.9 25.9 0 0 1-7.26-7.37c-.15-.22-.29-.43-.42-.65-2.26-3.71-3.58-8.01-3.58-12.49 0-.59.03-1.18.08-1.77l3.92 3.92 5.17 5.18c.87.87 1.81 1.61 2.83 2.23 2.39 1.47 5.13 2.26 8 2.26h.01c.79 0 1.57-.06 2.33-.19h.01c2.01-.3 3.92-1 5.64-2.06 1.02-.62 1.97-1.37 2.84-2.24 5.97-5.97 5.97-15.69 0-21.66l-2.84-2.84-6.25-6.25c.59-.05 1.18-.08 1.76-.08 1.52 0 3.02.15 4.49.45 2.85.56 5.57 1.65 8.02 3.14C151.08 115.91 156 123.61 156 132c0 3.91-.94 7.98-2.57 11.17l-1.33 2.59 5.13 5.13 2.87 2.87 2.84 2.84 6.23 6.23 5.66-5.66z"/></svg>