<svg xmlns="http://www.w3.org/2000/svg" viewBox="0 0 192 192"><path d="m176 99.604-3.29-16.452C169.562 67.419 155.633 56 139.59 56H128v4.289l-6.051 2.86-6.839-14.465 8.392-3.967-3.418-7.233L16.01 86.687l3.419 7.232 8.392-3.968 6.839 14.465L27.08 108H16v36h20.118c.999 8.987 8.633 16 17.882 16s16.883-7.013 17.882-16h56.236c.999 8.987 8.633 16 17.882 16s16.883-7.013 17.882-16H176zM139.59 64c12.244 0 22.874 8.714 25.275 20.72L168 100.397V108h-32V64zM128 108H45.797L128 69.138zM89.926 78.289l-6.838-14.466 8.779-4.15 6.838 14.465zm-7.232 3.419-8.779 4.15-6.838-14.465 8.779-4.15zm-16.01 7.57-8.78 4.15-6.839-14.465 8.78-4.15 6.838 14.464zm48.032-22.71-8.779 4.151L99.1 56.254l8.779-4.15 6.838 14.465zM35.054 86.533l8.78-4.15 6.838 14.465-8.78 4.15zM54 152c-5.514 0-10-4.486-10-10s4.486-10 10-10 10 4.486 10 10-4.486 10-10 10m0-28c-7.82 0-14.47 5.02-16.95 12H24v-20h104v20H70.95c-2.48-6.98-9.13-12-16.95-12m92 28c-5.514 0-10-4.486-10-10s4.486-10 10-10 10 4.486 10 10-4.486 10-10 10m16.95-16c-2.479-6.98-9.13-12-16.95-12a17.9 17.9 0 0 0-10 3.044V116h32v20z"/></svg>