<svg xmlns="http://www.w3.org/2000/svg" viewBox="0 0 192 192"><path d="M154.9 74.769c-8.048-3.975-24.626-10.602-45.738-10.755-1.877-2.543-5.612-7.627-8.587-11.817-3.553-5.004-6.677-7.494-10.13-8.073-3.645-.611-6.694 1.112-9.445 3.065-1.993 1.416-3.987 2.995-5.748 4.388-1.457 1.155-2.834 2.245-3.95 3.037-.191.136-.4.278-.615.427-2.043 1.402-5.463 3.748-6.178 7.764-.442 2.49.243 5.035 2.038 7.563.586.825 1.523 2.269 2.424 3.683a517 517 0 0 0-9.084 3.963c-6.084 2.706-13.587 6.043-15.93 5.956-20.159-14.576-23.592-12.287-25.438-11.055-4.228 2.819-2.258 8.044-.173 13.576 1.336 3.544 2.85 7.56 2.85 10.613 0 3.33-1.534 6.465-2.886 9.23-1.735 3.547-4.357 8.908.398 12.474 1.593 1.194 6.402 4.798 25.624-10.673 1.842.669 5.846 3.559 8.585 5.536q.832.601 1.682 1.21c-.73 1.45-1.449 3.106-2.281 5.069-2.67 6.293-2.029 12.353 1.716 16.209 3.037 3.127 7.722 3.845 11.117 3.896l.39.003c3.724 0 7.56-.794 10.096-2.1 6.384-3.287 9.804-10.11 11.298-13.966h9.652c-2.549 4.146-5.032 8.894-5.16 10.813-.096 1.436.44 2.769 1.469 3.656 1.278 1.103 4.46 1.655 8.183 1.655 5.298 0 11.688-1.12 15.232-3.365 5.644-3.576 8.966-9.51 10.484-12.84 12.258-.54 24.194-4.058 33.927-10.06C170.146 108.04 176 100.917 176 95.262c0-9.346-16.15-18.048-21.1-20.493M89.123 52.014c.516.087 2.029.729 4.93 4.815a728 728 0 0 0 5.658 7.832 84 84 0 0 0-7.988 1.545l-8.256-10.882c.72-.55 1.443-1.098 2.167-1.612 1.209-.86 2.695-1.826 3.49-1.698zM73.07 65.736c-.604-.85-.714-1.361-.684-1.53.128-.716 1.95-1.967 2.826-2.569q.383-.26.722-.5c.39-.277.8-.582 1.22-.898l6.315 8.324a153 153 0 0 0-6.952 2.45c-1.15-1.823-2.588-4.068-3.447-5.277M43.757 99.935c-1.444 0-2.772.482-3.981 1.597-5.482 4.438-11.6 8.413-15.034 9.888.246-.532.517-1.086.754-1.571 1.562-3.191 3.7-7.563 3.7-12.745 0-4.51-1.788-9.251-3.364-13.434-.264-.7-.561-1.49-.838-2.26 3.837 1.97 9.713 5.735 14.542 9.237 4.367 3.231 11.199.194 23.602-5.323C75.78 79.7 93.095 72 108.425 72a97 97 0 0 1 19.94 2.091c-6.124 13.406-6.263 30.76 1.617 41.586a69 69 0 0 1-6.488.315H74c-4.198 0-10.964-4.884-16.4-8.808-5.43-3.92-10.044-7.25-13.843-7.25zm28.218 30.911c-3.073 1.582-10.28 1.719-12.202-.26-1.682-1.732-1.15-5.016-.09-7.512.598-1.41 1.121-2.621 1.615-3.674 4.281 2.618 8.637 4.592 12.702 4.592h4.176c-1.315 2.52-3.335 5.378-6.201 6.854m40.054-.853c-2.417 1.532-7.33 2.087-10.942 2.116 1.554-2.783 3.754-6.309 5.009-8.117h11.587c-1.336 2.124-3.21 4.453-5.654 6.001m27.379-15.9c-8.747-7.116-10.127-24.403-3.14-38.003 6.44 1.907 11.577 4.12 15.012 5.813 12.544 6.18 16.7 12.037 16.72 13.359 0 3.395-10.467 14.383-28.592 18.83z"/></svg>