<svg xmlns="http://www.w3.org/2000/svg" viewBox="0 0 192 192"><path d="M133.36 80H90.704l29.43-63.765L35 104h43.387l-31.32 73.08zM53.905 96 93.21 55.481 78.201 88h37.344L73.84 134.92 90.519 96zm78.264 39.592c-1.49-2.33-3.214-2.888-6.102-2.888-2.701 0-4.145.884-4.145 2.562 0 1.63 1.164 2.375 4.75 3.074 5.125.978 7.36 1.63 9.317 2.841 2.795 1.724 4.052 4.193 4.052 7.919 0 7.034-4.75 10.9-13.415 10.9-7.173 0-11.878-1.864-14.626-6.801l7.686-3.726c1.257 2.7 3.307 3.447 6.66 3.447 3.075 0 4.892-1.072 4.892-2.888 0-1.631-1.258-2.469-4.705-3.122-4.844-.931-6.707-1.49-8.664-2.56-3.027-1.678-4.471-4.287-4.471-8.152 0-6.568 4.75-10.574 12.576-10.574 6.149 0 10.62 1.863 13.368 6.288zm37.356 19.47c-2.468 3.447-5.59 4.938-10.061 4.938-9.362 0-15.697-6.894-15.697-17.095s6.8-17.281 17.094-17.281c4.38 0 7.966 1.257 10.667 3.633 1.35 1.164 2.19 2.236 3.168 4.006l-8.431 3.446c-1.305-2.748-3.028-3.725-5.636-3.725-4.891 0-7.36 3.54-7.36 10.014 0 6.475 2.562 9.922 7.406 9.922 3.866 0 6.428-2.237 6.428-5.544v-.14h-6.009v-6.474H176v18.679h-4.798z"/></svg>