<svg xmlns="http://www.w3.org/2000/svg" viewBox="0 0 192 192"><path d="M25.809 167.249 51.871 108H16.923l76.47-83.637-29 59.637H98.83zM35.077 100H64.13l-10.085 22.924L81.171 92H51.608l10.469-21.53zM175.94 81.33c.42-1.4.05-2.93-.98-3.98-.88-.88-1.78-1.19-2.77-1.18-2.75-.4-22.15-4.66-39.94-8.63l40.95-11.63a3.993 3.993 0 0 0-.12-7.72L144 40.88l.02-8.88h-8L136 43.99c0 1.84 1.25 3.44 3.03 3.89l17.6 4.42-41.72 11.85a4 4 0 0 0 .21 7.75s14 3.16 28.02 6.26c4.37.96 8.27 1.82 11.66 2.56-3.76 1.06-7.86 2.23-11.96 3.4-14 4-27.95 8.04-27.95 8.04a4.01 4.01 0 0 0-2.89 3.98 4.01 4.01 0 0 0 3.16 3.77l40.46 8.67-40.99 11.88a4.004 4.004 0 0 0-2.88 4 3.995 3.995 0 0 0 3.18 3.76l42.73 8.88-19.07 7.15A4 4 0 0 0 136 148l.01 12h8l-.01-9.23 29.4-11.02a4.02 4.02 0 0 0 2.59-4.06 4.02 4.02 0 0 0-3.18-3.61l-40.49-8.42 40.79-11.82a4.01 4.01 0 0 0 2.89-3.98 4.01 4.01 0 0 0-3.16-3.77l-40.42-8.66c18.24-5.25 37.65-10.76 40.14-11.3-.32.05-.77.05-1.27-.05 1.99.16 3.88-.24 4.65-2.75m-4.78-5.05c.28-.07.56-.11.83-.11.04 0 .07 0 .1.01-.29.01-.6.04-.93.1"/></svg>