<svg xmlns="http://www.w3.org/2000/svg" viewBox="0 0 192 192"><path d="M135.287 176H56.713c-3.96 0-7.536-2.192-9.333-5.721a10.43 10.43 0 0 1 .687-10.664L72 103V56h48v47l23.933 56.615a10.43 10.43 0 0 1 .687 10.664 10.43 10.43 0 0 1-9.333 5.721M80 64v41.01l-25.288 59.06c-.804 1.108-.41 2.172-.203 2.578.207.407.836 1.352 2.204 1.352h78.574c1.368 0 1.997-.945 2.204-1.352.207-.406.601-1.47-.203-2.577l-.29-.462-24.998-58.6V64zm-6-16c-3.309 0-6-2.691-6-6s2.691-6 6-6 6 2.691 6 6-2.691 6-6 6m40-8c-3.309 0-6-2.691-6-6s2.691-6 6-6 6 2.691 6 6-2.691 6-6 6M90 28c-3.309 0-6-2.691-6-6s2.691-6 6-6 6 2.691 6 6-2.691 6-6 6"/></svg>