<svg xmlns="http://www.w3.org/2000/svg" viewBox="0 0 192 192"><path d="m54.957 131.339 5.657 5.657-14.142 14.142-5.657-5.657zm77.127-105.554-6.983-3.902-14.238 25.482 6.983 3.902zm12.5 55.31 25.517-14.203-3.891-6.99-25.517 14.203zm-10.431-17.637 19.799-19.799-5.657-5.657-19.799 19.799zM97.384 43.659l50.912 50.911-16.97 16.971c-6.054 6.054-13.245 9.852-20.796 10.983-10.144 1.52-17.219 4.404-21.63 8.815L46.414 173.83l-28.218-28.355 42.419-42.42c4.452-4.451 7.314-11.597 8.751-21.845 1.032-7.357 4.749-14.282 11.048-20.581l16.971-16.97Zm39.598 50.911L97.384 54.972 86.071 66.286c-5.042 5.042-7.998 10.438-8.782 16.035-1.688 12.033-5.291 20.665-11.017 26.391l-36.777 36.776 16.932 17.014 36.815-36.819c5.666-5.666 14.204-9.287 26.102-11.071 5.845-.875 11.49-3.894 16.324-8.729z"/></svg>