<svg xmlns="http://www.w3.org/2000/svg" viewBox="0 0 192 192"><path d="M54 56h5.25c-1.53 2.18-2.82 4.53-4.05 6.94-.18.36-.36.71-.54 1.06H54v-.001L44 64c0 4.411-3.589 8-8 8h-7.996a7.95 7.95 0 0 1-5.66-2.346 7.95 7.95 0 0 1-2.34-5.661l.017-15.02c-.034-1.535.262-2.93 1.63-4.973H20a4 4 0 1 1 0-8h7.51c.242-.517.547-1.14.993-1.942a110 110 0 0 0 1.829-3.48C34.152 23.08 37.762 16 54 16c16.24 0 19.85 7.08 23.67 14.58.57 1.13 1.17 2.3 1.83 3.48.44.79.75 1.43.99 1.94H88c2.21 0 4 1.79 4 4s-1.79 4-4 4h-2c-3.52 0-6.6.29-9.32.83-.92-1.07-1.53-1.87-2-2.6-.07-.1-.14-.21-.2-.33-.44-.71-.7-1.3-.95-1.87-.24-.56-.5-1.14-1.03-2.09-.72-1.3-1.35-2.54-1.96-3.73C67.08 27.41 65.34 24 54 24c-11.336 0-13.076 3.412-16.541 10.21a115 115 0 0 1-1.962 3.732 22 22 0 0 0-1.03 2.089c-.28.634-.57 1.29-1.089 2.11q-.028.045-.06.09l-.005.01c-.626.97-1.504 2.06-3.001 3.725-1.645 1.827-2.148 2.655-2.292 2.933l-.016 15.102L36 64v-8zm26.74 36c1.23 1.75 2.31 3.61 3.32 5.53a39 39 0 0 1 .17-5.53zm7.24-39.96c-.64-.03-1.3-.04-1.98-.04-2.23 0-4.23.13-6.02.39-4.32.6-7.45 1.89-9.84 3.61-2.99 2.15-4.84 4.97-6.47 8-.46.85-.9 1.71-1.34 2.58-.58 1.13-1.17 2.29-1.83 3.48-.44.79-.75 1.43-.99 1.94H52c-2.21 0-4 1.79-4 4s1.79 4 4 4h2c3.52 0 6.6.29 9.32.83.91-1.07 1.53-1.87 2-2.6.07-.1.14-.21.2-.33.44-.71.7-1.3.95-1.87.24-.56.5-1.14 1.03-2.09.49-.89.94-1.75 1.37-2.58.2-.39.4-.77.59-1.15 1.29-2.54 2.35-4.61 3.76-6.21 1.55-1.77 3.55-2.95 6.78-3.54 1.64-.31 3.61-.46 6-.46.7 0 1.36.01 1.99.04 1.14.05 2.18.14 3.11.27 4.12.58 6.38 2 8.14 4.25 2.1-1.66 4.37-3.12 6.77-4.34-2.84-3.94-6.93-7.05-14.91-7.95-.98-.11-2.02-.19-3.12-.23M73.27 144c1.8-2.84 3.82-5.51 6.06-8H72v-8H36v8h-8l.02-15.1c.14-.28.65-1.1 2.29-2.93 1.491-1.66 2.369-2.747 2.998-3.722l.018-.028c.068-.097.136-.204.194-.32.44-.71.7-1.29.95-1.87.24-.56.5-1.14 1.03-2.09.72-1.3 1.35-2.54 1.96-3.73 2.6-5.12 4.23-8.31 9.71-9.58 1.35-.32 2.94-.51 4.84-.59.63-.03 1.29-.04 1.99-.04 2.39 0 4.36.15 6 .46 3.23.59 5.23 1.77 6.78 3.54 1.41 1.6 2.47 3.67 3.76 6.21.19.38.39.76.59 1.15.43.83.88 1.69 1.37 2.58.53.95.79 1.53 1.03 2.09.25.58.51 1.16.95 1.87.06.12.13.23.2.33.63.98 1.52 2.07 3.01 3.74 1.64 1.83 2.15 2.65 2.29 2.93v.08l.02 14.28c2.44-2.64 5.11-5.05 7.99-7.21l-.01-6.99c.03-1.59-.26-3.01-1.63-5.06H88c.46 0 .9-.08 1.31-.23-1.4-2.44-2.55-5.04-3.42-7.77h-5.4c-.24-.52-.55-1.15-.99-1.94-.66-1.18-1.26-2.35-1.83-3.48-.44-.87-.88-1.73-1.34-2.58-1.63-3.03-3.48-5.85-6.47-8-2.39-1.72-5.52-3.01-9.84-3.61-1.79-.26-3.79-.39-6.02-.39-.68 0-1.34.01-1.98.04a38 38 0 0 0-4.85.47c-10.56 1.75-13.63 7.76-16.84 14.07-.57 1.13-1.17 2.3-1.83 3.48-.44.79-.75 1.42-.99 1.94v.001H20a4 4 0 0 0 0 8h1.65c-1.37 2.04-1.66 3.44-1.63 4.969L20 135.99a7.99 7.99 0 0 0 8 8.01h8c4.41 0 8-3.59 8-8h20c0 4.41 3.59 8 8 8zM176 176h-8c0-19.85-13.21-36.67-31.3-42.13-1.26-.38-2.55-.71-3.86-.97l.04.31-.71 1.89-2.03 5.42v.01l-.03.06 5.43 21.44-11.42 13.82-11.61-13.8 5.43-21.44-.03-.09-2.03-5.42-.71-1.89.04-.32a42 42 0 0 0-3.88.97C93.22 139.31 80 156.14 80 176h-8c0-12.51 4.43-23.99 11.82-32.97a52 52 0 0 1 3.54-3.89 52 52 0 0 1 14.28-10.08c3.19-1.53 6.56-2.74 10.07-3.59a32.1 32.1 0 0 1-8.9-5.6c-5.65-5.02-9.52-12-10.52-19.87a32 32 0 0 1-.02-8c1-8.13 5.06-15.32 10.99-20.39a31.82 31.82 0 0 1 20.77-7.68c17.64 0 32 14.36 32 32 0 9.52-4.18 18.09-10.81 23.95a31.7 31.7 0 0 1-8.91 5.59c3.52.86 6.89 2.07 10.09 3.61 17.49 8.38 29.6 26.26 29.6 46.92m-40.64-58.92c7.53-4.05 12.67-12.01 12.67-21.15 0-13.23-10.77-24-24-24-1.03 0-2.05.07-3.04.2a23.6 23.6 0 0 0-7.32 2.15 24 24 0 0 0-6.48 4.57c-.02.01-.03.03-.05.04-3.5 3.48-5.95 8.03-6.78 13.11a23 23 0 0 0-.33 3.93c0 4.38 1.18 8.5 3.25 12.04 2.23 3.84 5.5 7 9.41 9.1 3.38 1.83 7.24 2.86 11.34 2.86 4.09 0 7.95-1.03 11.33-2.85"/></svg>