<svg xmlns="http://www.w3.org/2000/svg" viewBox="0 0 192 192"><path d="m88.03 28.013-7.971-11.998h31.883l-7.97 11.998L96 40.01zm-10.214 99.044q-.954 0-1.488-.545-.469-.48-.469-1.23 0-1.154 1.026-1.682.902-.464 2.648-.48v-.17q0-.522-.237-.754c-.237-.232-.415-.231-.77-.231q-.88 0-1.776.615l-.78-1.178q1.166-.914 2.82-.914 1.452 0 2.108.78.258.316.37.709c.112.393.11.597.11 1.007v2.848q.001.569.17 1.02v.07h-1.775a4 4 0 0 1-.17-.744q-.661.879-1.787.879m-.158-1.946q0 .3.196.47c.196.17.314.169.548.169q.552 0 .868-.305a.9.9 0 0 0 .275-.674v-.55q-1.055.016-1.5.258-.387.21-.387.632m-6.82 1.81v-3.778q0-.528.24-.856.281-.369.78-.369.843 0 .843 1.113v3.89h1.834v-4.054q0-1.049-.451-1.67-.516-.709-1.518-.709-.597 0-1.06.25c-.463.25-.604.432-.885.8q-.527-1.05-1.664-1.05-1.172 0-1.816 1.096v-.938h-1.834v6.276h1.834v-3.803q0-.522.234-.838.276-.363.773-.363.856 0 .856 1.09v3.914h1.834zm3.413 10.036q1.488-1.418 1.488-3.059 0-1.16-.685-1.869-.792-.82-2.244-.82-1.137 0-1.864.51-.825.575-1.183 1.857l1.681.404q.188-.68.493-.987c.305-.307.466-.307.79-.307q.475 0 .756.275.323.316.323.914 0 1.389-1.594 2.818-.528.463-.976.786-.449.321-1.485.978v1.465h6.082v-1.477H72.2q1.43-.885 2.051-1.488M16 148h28.721l16-80h21.444A15.9 15.9 0 0 1 80 60c0-8.822 7.178-16 16-16s16 7.178 16 16a15.9 15.9 0 0 1-2.165 8h21.444l16 80H176v8h-12.343L176 168.343V176h-3.657l-20-20h-12.686l20 20h-11.314l-20-20h-12.686l20 20h-11.314l-20-20H91.657l20 20h-11.314l-20-20H67.657l20 20H76.343l-20-20H43.657l20 20H52.343l-20-20H19.657l20 20H28.343L16 163.657zm72-88c0 4.411 3.589 8 8 8s8-3.589 8-8-3.589-8-8-8-8 3.589-8 8m-35.121 88h86.242l-14.4-72H67.279zm11.61-15.502q-.674.434-1.851.633l.187 1.078q.68 0 1.336-.132c.656-.132.8-.208 1.09-.36v6.205h1.857v-8.678H65.55q-.376.81-1.06 1.254zm19.907-5.576 1.295-2.016 1.26 2.016h2.145l-2.256-3.346 2.045-2.93h-1.899l-1.119 1.788-1.113-1.788h-2.11l2.04 3.07-2.186 3.206zm-1.801 5.64q.761 1.178.761 3.065 0 1.875-.814 3.158a2.7 2.7 0 0 1-1.102.985 2.94 2.94 0 0 1-1.3.287q-1.605 0-2.479-1.36-.762-1.184-.762-3.117 0-.879.217-1.7c.217-.821.344-1.013.598-1.4q.422-.65 1.107-.984a2.96 2.96 0 0 1 1.307-.287q1.587 0 2.467 1.353m-1.172 3.077q0-1.506-.381-2.28-.334-.673-.902-.673-.675 0-1.008.873-.3.767-.299 2.115 0 1.464.387 2.232.34.674.908.674.662 0 1.002-.873.293-.756.293-2.068m8.45-3.077q.76 1.178.76 3.065.001 1.875-.814 3.158a2.7 2.7 0 0 1-1.101.985 2.94 2.94 0 0 1-1.301.287q-1.605 0-2.479-1.36-.76-1.184-.761-3.117 0-.879.217-1.7c.217-.821.343-1.013.597-1.4q.421-.65 1.108-.984.591-.287 1.306-.287 1.588 0 2.467 1.353zM88.7 135.64q0-1.506-.38-2.28-.334-.673-.903-.673-.674 0-1.008.873-.299.767-.299 2.115 0 1.464.387 2.232.34.674.908.674.663 0 1.002-.873.294-.756.293-2.068m12.897-1.993h-1.993l-1.968 2.45v-5.21h-1.834v9.036h1.834v-1.776l.633-.744 1.5 2.52h2.044l-2.32-3.815zm7.935 8.051h1.67l3.504-11.086h-1.658zm12.874-8.209q-.597 0-1.06.25c-.463.25-.604.432-.885.8q-.528-1.05-1.664-1.05-1.172 0-1.817 1.096v-.938h-1.834v6.276h1.834v-3.803q0-.522.235-.838.275-.363.773-.363.855 0 .856 1.09v3.914h1.834v-3.78q0-.527.24-.855.28-.369.78-.369.843 0 .843 1.113v3.89h1.834v-4.054q0-1.05-.451-1.67-.516-.709-1.518-.709m4.837 1.403q.759-.448 1.138-.762.875-.735.875-1.694 0-.69-.435-1.107-.498-.482-1.42-.482-1.578 0-1.914 1.407l1.197.294q.095-.345.249-.491a.58.58 0 0 1 .42-.147q.263 0 .408.152t.145.428q0 .506-.526 1.073-.608.645-1.838 1.308v1.056h3.799v-1.035zm-18.999 3.982q.51.445.51 1.23 0 1.137-1.008 1.717-.878.504-2.385.504c-1.507 0-1.767-.16-2.29-.48q-.686-.417-.686-1.125 0-.762 1.02-1.201-.71-.428-.71-1.143 0-.809.885-1.271-.756-.598-.756-1.489 0-.996.826-1.6.72-.526 1.77-.527.832 0 1.617.422l1.693-.38v1.376h-.802q.14.417.14.744 0 .955-.814 1.512-.703.48-1.799.48-.603 0-1.143-.17-.25.183-.251.434 0 .258.19.358c.19.1.349.1.665.1h1.582q1.166 0 1.746.51zm-3.762-3.258q0 .458.261.72c.261.262.41.265.706.265q.451 0 .706-.261c.255-.261.255-.415.255-.724s-.086-.548-.258-.718-.414-.254-.726-.254q-.44 0-.692.26c-.252.26-.252.411-.252.712m2.614 4.729q0-.504-.862-.504h-1.453q-.31 0-.416-.024-.386.264-.386.61 0 .37.342.539c.342.169.591.17 1.087.17q1.688 0 1.688-.791"/></svg>