<svg xmlns="http://www.w3.org/2000/svg" viewBox="0 0 192 192"><path d="M93.707 52.945C105.104 42.648 116.89 32 140 32v8c-20.032 0-30.183 9.171-40.93 18.881C87.544 69.295 75.626 80.063 52 80.063v-8c20.547 0 30.826-9.286 41.707-19.118m5.62 60.482C87.779 100.927 75.837 88 52 88v8c20.336 0 30.592 11.102 41.451 22.856C104.87 131.218 116.679 144 140 144v-8c-19.821 0-29.95-10.964-40.673-22.573M52 160h88v-8H52zM16 60h28v48H16zm8 40h12V68H24zm124 24h28v48h-28zm8 40h12v-32h-12zM16 140h28v32H16zm8 24h12v-16H24zM176 20v32h-28V20zm-8 8h-12v16h12z"/></svg>