<svg xmlns="http://www.w3.org/2000/svg" viewBox="0 0 192 192"><path d="m150.276 64.351 1.994-.321c1.29 7.95-4.57 15.47-14.91 19.16-2.459.877-5.11 1.444-7.736 1.813zm-20.635-24.619a30 30 0 0 0-3.751-3.272l-4.74 6.45a22 22 0 0 1 2.837 2.476zM50.14 103.89c3.54-2.35 7.47-4.49 11.74-6.43-2.44 3.69-4.78 7.41-6.99 11.17-2.886 4.9-5.065 8.971-6.629 12.482l22.545-22.545a248 248 0 0 1 4.534-6.407q.195.727.442 1.431l6.869-6.869c.059-4.32 2.344-8.131 5.809-10.372a13.27 13.27 0 0 1 6.7-2.138l7.027-7.026a21.2 21.2 0 0 0-6.417-.996c-2.32 0-4.55.37-6.64 1.05a9.8 9.8 0 0 1-3.03-7.09c0-5.42 4.42-9.84 9.85-9.84 5.42 0 9.84 4.42 9.84 9.84a9.8 9.8 0 0 1-1.14 4.573l8.646-8.646a18 18 0 0 0-3.966-7.697l2.85-4.4-6.85-4.13-2.5 3.85c-2.12-.89-4.45-1.39-6.88-1.39-2.1 0-4.109.36-5.978 1.03l-3.112-4.288-6.475 4.7 2.84 3.913c-3.177 3.23-5.125 7.637-5.125 12.485 0 2.98.73 5.78 2.03 8.25-3.6-1.19-9.95-3.94-12.79-9.18-2.91-5.38-.94-11.65 5.16-16.37l-4.9-6.32c-9.27 7.17-12.13 17.58-7.3 26.5 4.17 7.69 12.6 11.43 17.48 13.02-.3.47-.58.96-.83 1.46h-.01c-1.18.11-2.74.21-4.53.21-3.77 0-8.59-.43-13.19-2.07-6.53-2.33-10.34-6.39-9.7-10.35l-7.9-1.27c-1.28 7.95 4.57 15.47 14.91 19.16 4.73 1.68 9.57 2.31 13.66 2.47-.01.01-.01.01-.01.02-9.29 3.06-17.53 6.94-24.47 11.55-8.28 5.51-14.45 11.85-18.32 18.83l7 3.88c3.24-5.86 8.54-11.26 15.75-16.05m95.68-7.66c-5.327-3.537-11.41-6.64-18.143-9.28l-8.038 8.038c4.124 5.784 7.996 11.692 11.541 17.702 8.53 14.48 9.45 19.51 8.16 23.29-1.03 3.02-3.69 6.52-7.29 7.55-5.99 1.7-13.23-4.41-17.81-9.7-1.07-1.22-1.99-2.4-2.72-3.43-.32-.46-.64-.92-.93-1.39-.01 0-.01-.01-.01-.02a31 31 0 0 1-1.84-3.28 37 37 0 0 1-2.19-5.64c0-.01-.01-.03-.01-.04v-.02c-.98-3.34-1.45-6.66-1.6-9.77-.009-.184-.007-.357-.014-.54l-42.112 42.113c.072 0 .144.007.216.007 5.04 0 10.43-2.33 15.83-6.89 3.1-2.62 5.63-5.49 7.25-7.49 2.29 5.06 5.95 8.33 10.08 8.33 4.25 0 8.01-3.48 10.27-8.8 1.6 2.01 4.29 5.13 7.64 7.96 5.4 4.56 10.79 6.89 15.83 6.89 1.47 0 2.91-.2 4.31-.6 5.62-1.6 10.59-6.57 12.67-12.66 2.44-7.15.29-14.43-8.84-29.93-2.3-3.91-4.73-7.77-7.28-11.6-.02-.02-.03-.05-.05-.07 3.85 1.8 7.41 3.78 10.65 5.93 7.21 4.8 12.51 10.19 15.75 16.05l7-3.88c-3.87-6.98-10.03-13.32-18.32-18.83m16.523-77.887-144 144 11.314 11.314 144-144z"/></svg>