<svg xmlns="http://www.w3.org/2000/svg" viewBox="0 0 192 192"><path d="M124 136h-24v-12h45.196q.544 0 1.086-.039c6.28-.446 11.543-4.984 13.114-11.298L177.314 48H160V24H73.514l-9.053-8H16v92h.081a14.86 14.86 0 0 0 2.748 10.086c2.462 3.406 6.236 5.544 10.355 5.867q.592.046 1.197.047H92v12H68v12H16v8h52v12h56v-12h52v-8h-52zM61.433 24l9.053 8H152v16H32.682L24 78.874V24zm-31.622 91.978c-1.802-.142-3.4-1.058-4.5-2.58a6.89 6.89 0 0 1-1.127-5.624L38.742 56h128.053l-15.124 54.58-.03.12c-.712 2.912-3.15 5.084-5.922 5.281a7 7 0 0 1-.523.019H30.38q-.287 0-.57-.022zM116 160H76v-16h40z"/></svg>