<svg xmlns="http://www.w3.org/2000/svg" viewBox="0 0 192 192"><path d="M144 112c-17.645 0-32 14.355-32 32s14.355 32 32 32 32-14.355 32-32-14.355-32-32-32m0 56c-13.234 0-24-10.766-24-24s10.766-24 24-24 24 10.766 24 24-10.766 24-24 24m32-124v76.028a40.3 40.3 0 0 0-8-8.006V52H78.343l-12-12H24v104c0 4.411 3.589 8 8 8l72.805-.002a39.6 39.6 0 0 0 2.544 8L32 160c-8.822 0-16-7.178-16-16V32h53.657l12 12zm-20 92c0-6.617-5.383-12-12-12s-12 5.383-12 12v4h-4v20h32v-20h-4zm-16 0c0-2.206 1.794-4 4-4s4 1.794 4 4v4h-8z"/></svg>