<svg xmlns="http://www.w3.org/2000/svg" viewBox="0 0 192 192"><path d="m84.71 76.055-5.495-5.815c.268-.255 6.67-6.24 16.409-6.24 11.386 0 16.829 5.836 17.412 6.501l-6.017 5.273c-.104-.11-3.623-3.774-11.395-3.774-6.455 0-10.87 4.014-10.914 4.055M95.812 88c2.92 0 4.232 1.253 4.287 1.307a1 1 0 0 1-.094-.102l6.017-5.272c-.353-.403-3.636-3.933-10.21-3.933-5.564 0-9.188 3.295-9.583 3.67l5.472 5.837c.016-.015 1.715-1.507 4.111-1.507M176 48.082V16h-76v8h68v23.587c-.525.217-1.49.404-2.23.413H27.477c-2.163 0-3.124-.396-3.476-.6V24h68v-8H16v32.082c0 .323.13 7.918 11.476 7.918H165.77c4.927 0 10.23-2.478 10.23-7.918M92 128h-8v8h8zm16 0h-8v8h8zm-16 12h-8v8h8zm16 0h-8v8h8zm-16 12h-8v8h8zm16 0h-8v8h8zm-8-36a4 4 0 1 0 8 0 4 4 0 0 0-8 0m24 51v-62c0-4.962-4.038-9-9-9H77c-4.962 0-9 4.038-9 9v62c0 4.962 4.038 9 9 9h38c4.962 0 9-4.038 9-9m-9-63c.551 0 1 .449 1 1v62c0 .551-.449 1-1 1H77c-.551 0-1-.449-1-1v-62c0-.551.449-1 1-1z"/></svg>