<svg xmlns="http://www.w3.org/2000/svg" xml:space="preserve" viewBox="0 0 192 192"><path d="M50.93 151.999a8 8 0 1 1-13.857-8 8 8 0 0 1 13.857 8M120 48v16h40v49.714A22.36 22.36 0 0 1 154.87 128H176v48H16V16h160v32zm48 88H72c-11.028 0-20-8.972-20-20V40h116V24H24v144h144zm-48-64v12c-.112 0-12 .365-12 5.474 0 2.198 1.152 2.95 6.85 4.476 5.192 1.389 13.04 3.488 13.04 12.576 0 10.636-13.83 13.474-22 13.474l-.006-8c4.884-.013 14.005-1.632 14.005-5.474 0-2.45-1.196-3.267-7.107-4.848-5.09-1.363-12.782-3.42-12.782-12.204 0-3.328 1.412-9.327 10.865-12.125q.57-.168 1.135-.307V72H80v41.714C80 121.591 86.28 128 94 128h44c7.72 0 14-6.409 14-14.286V72zm-8-24H60v68c0 6.617 5.383 12 12 12h5.13A22.36 22.36 0 0 1 72 113.714V64h40z"/></svg>