<svg xmlns="http://www.w3.org/2000/svg" viewBox="0 0 192 192"><path d="M128 104V76h-8v15.997h-8V28h-8v84h-4.122L85.084 52 40 52.004V100h-8.209c-8.697 0-15.773 7.075-15.773 15.772l-.001 29.9c-.002.11-.017.217-.017.328 0 9.925 8.075 18 18 18 6.227 0 11.723-3.18 14.956-8h38.081c3.235 4.81 8.726 7.983 14.946 7.983 9.926 0 18-8.074 18-18 0-6.22-3.172-11.711-7.983-14.946v-31.04h8V112h56v-8zM48 60.003 78.817 60l12.821 52H81c-4.944 0-7.972-.798-10.801-2.848l-6.904-5.001c-2.402-1.752-5.692-4.151-9.302-4.151H48zM34 156c-5.514 0-10-4.486-10-10 0-.088.011-.174.013-.262h.004v-.066C24.192 140.31 28.597 136 34 136c5.514 0 10 4.486 10 10s-4.486 10-10 10m67.983-.017c-5.514 0-10-4.485-10-10s4.486-10 10-10 10 4.486 10 10-4.485 10-10 10m0-28c-9.925 0-18 8.075-18 18 0 .683.046 1.354.12 2.017h-32.22c.072-.658.117-1.323.117-2 0-9.925-8.075-18-18-18-3.691 0-7.124 1.12-9.983 3.033v-15.26c.001-4.286 3.488-7.773 7.774-7.773h22.202c1.003 0 3.515 1.833 4.589 2.615l6.924 5.016C70.82 119.481 76.32 120 81 120h23v8.104a18 18 0 0 0-2.017-.12z"/></svg>