<svg xmlns="http://www.w3.org/2000/svg" viewBox="0 0 192 192"><path d="M148.256 16c-4.924 0-9.652 2.154-13.674 6.229-6.853 6.944-10.686 18.451-10.513 31.519v1.642c0 12.153 8.632 22.27 19.934 24.252V176h8V79.66c11.352-1.938 20.035-12.075 20.035-24.209l.023-1.527c0-21.62-10.234-37.924-23.805-37.924m15.782 39.39c0 9.159-7.17 16.61-15.985 16.61s-15.984-7.451-15.984-16.61v-1.695c-.142-10.833 2.925-20.496 8.206-25.847 2.485-2.517 5.245-3.848 7.98-3.848 7.77 0 15.806 11.193 15.806 29.863zM44 52.009l-8-.001L36.002 16h8zm32-36.002v32.437c0 7.434-3.522 15.405-9.663 21.87C61.943 74.938 56.74 78.198 52 79.44l-.002 96.549h-8L44 79.462c-11.248-2.85-24-16.789-24-31.018V16h8v32.444c0 5.404 2.72 11.366 7.464 16.36C40.187 69.773 45.164 72 48 72s7.813-2.225 12.536-7.196C65.28 59.81 68 53.848 68 48.444V16.007zM59.999 52.008h-8L52.001 16h8zM116 176h-8V96H84.001V32c0-8.822 8.254-16 18.4-16H116zM92.001 88H108V24h-5.6c-5.734 0-10.399 3.589-10.399 8z"/></svg>