<svg xmlns="http://www.w3.org/2000/svg" viewBox="0 0 192 192"><path d="M144 82.597V44h-36c-9.112 0-16.595 6.354-18.621 15.81L80 103.575V116h-8V32h-8v112H32v8h40v-28h8v20c0 8.822 7.178 16 16 16 5.907 0 11.063-3.226 13.835-8H136.7c1.653 4.653 6.087 8 11.3 8 6.617 0 12-5.383 12-12v-45.403zM97.201 61.485C98.455 55.635 102.593 52 108 52h28v33.403L147.677 100h-38.955l3.224-19.342-7.892-1.316L100.611 100H88.948zM96 152c-4.411 0-8-3.589-8-8s3.589-8 8-8 8 3.589 8 8-3.589 8-8 8m0-24a15.9 15.9 0 0 0-8 2.165V108h64v28.7a11.9 11.9 0 0 0-4-.7c-5.213 0-9.647 3.347-11.3 8H112c0-8.822-7.178-16-16-16m52 24c-2.206 0-4-1.794-4-4s1.794-4 4-4 4 1.794 4 4-1.794 4-4 4"/></svg>