<svg xmlns="http://www.w3.org/2000/svg" viewBox="0 0 192 192"><path d="M100 104h-8V88h-8v8h-8V64h-8v45.355L59.621 76 28 76.002v29.736h-.934c-6.101 0-11.065 4.988-11.065 11.12V136c0 6.617 5.383 12 12 12 3.541 0 6.72-1.552 8.919-4h22.16c2.199 2.448 5.377 4 8.92 4 6.616 0 12-5.383 12-12 0-3.543-1.553-6.722-4.002-8.92V104h8v8h28v-8H112v-8h-4V84h4v-8h-12zM36 84.001h17.382l7.415 29.52h-3.802a10 10 0 0 1-5.93-1.938l-4.137-3.02c-1.53-1.126-3.842-2.825-6.539-2.825H36V84zm-8.934 29.737h13.153c.484.178 1.479.909 1.97 1.27l4.16 3.036a17.95 17.95 0 0 0 10.646 3.477h11.004V124c-6.616 0-11.998 5.384-11.999 12H40c0-6.617-5.383-12-12-12-1.404 0-2.746.255-4 .7l.001-7.843c0-1.72 1.375-3.12 3.065-3.12zM28 140c-2.205 0-4-1.794-4-4s1.795-4 4-4 4 1.794 4 4-1.794 4-4 4m40 0c-2.205 0-4-1.794-4-4s1.795-4 4-4 4 1.794 4 4-1.794 4-4 4m90.001-28.008c-5.652 0-10.697 2.624-14 6.71V52H176v-8h-56v88h20.119c1.002 8.984 8.635 15.995 17.882 15.995 9.925 0 18-8.076 18-18 0-9.927-8.075-18.002-18-18.002zm-30-59.993h8v72h-8zm30 87.995c-5.515 0-10.001-4.487-10.001-10 0-5.516 4.486-10.002 10.001-10.002s10 4.486 10 10.001-4.486 10-10 10z"/></svg>