<svg xmlns="http://www.w3.org/2000/svg" viewBox="0 0 192 192"><path d="M176 52H56v-8h120zm0 40H56v8h120zm0 48H56v8h120zM34.5 32c-2.08 4.47-5.753 6.108-10.755 6.949l.708 3.983c3.187 0 6.728-.664 8.941-1.814V64h6.86V32zm-13.674 80h22.348v-5.422H29.818c3.79-2.335 5.73-3.702 7.537-5.465 3.703-3.526 5.466-7.14 5.466-11.24 0-6.082-4.1-9.873-10.755-9.873-5.994 0-9.565 2.821-11.196 8.683l6.171 1.499c.926-3.35 2.336-4.76 4.716-4.76 2.513 0 3.967 1.63 3.967 4.363 0 3.394-1.983 6.876-5.862 10.358-2.556 2.248-3.967 3.262-9.036 6.48zm5.964 25.682c1.215-2.995 2.952-4.342 5.644-4.342 2.518 0 4.082 1.477 4.082 3.908 0 2.475-1.737 3.951-4.646 3.951h-2.65v4.907h2.822c3.213 0 5.037 1.52 5.037 4.168 0 2.736-1.867 4.386-5.037 4.386-3.256 0-5.123-1.477-6.078-4.82l-6.036 1.52c.608 2.648 1.52 4.255 3.257 5.731 2.258 1.91 5.384 2.909 9.161 2.909 7.208 0 11.724-3.647 11.724-9.379 0-3.69-1.867-6.122-5.732-7.424 3.344-1.39 4.95-3.517 4.95-6.557 0-5.167-4.255-8.64-10.594-8.64-5.862 0-9.726 2.735-11.463 8.12z"/></svg>