<svg xmlns="http://www.w3.org/2000/svg" viewBox="0 0 192 192"><path d="M116 112.001H16v-80h100zm-92-8h84v-64H24zM124 56v8h16v64H56v-8h-8v16h100V56zm32 24v8h12v64H84v-8h-8v16h100V80zM58.338 64.82q-1.096-1.912-2.116-2.632t-2.59-.72q-5.715 0-6.38 9.862 2.449-3.825 7.262-3.825 4.64 0 7.369 3.18 2.363 2.772 2.363 6.982 0 5.2-3.523 8.208-3.052 2.62-7.778 2.62-5.67 0-9.066-4.146-3.309-3.931-3.309-11.344 0-8.271 4.04-12.912 3.501-4.038 9.066-4.039 6.337 0 9.517 5.65zm-5.586 7.648q-2.364 0-3.695 1.698-1.182 1.46-1.182 3.76 0 2.513 1.525 3.995 1.332 1.29 3.352 1.29 2.341-.001 3.717-1.676 1.18-1.461 1.181-3.696 0-2.577-1.525-4.082-1.332-1.29-3.373-1.289m26.19-16.414q5.821 0 9.044 4.963 2.793 4.319 2.793 11.236 0 6.876-2.986 11.58a9.8 9.8 0 0 1-4.04 3.61q-2.17 1.053-4.769 1.053-5.886 0-9.088-4.985-2.792-4.34-2.792-11.43 0-3.222.794-6.23.795-3.008 2.192-5.135a9.97 9.97 0 0 1 4.06-3.61q2.17-1.051 4.791-1.052zm.042 5.414q-2.47 0-3.695 3.201-1.096 2.815-1.096 7.756 0 5.372 1.418 8.186 1.245 2.47 3.33 2.47 2.428 0 3.674-3.2 1.074-2.772 1.074-7.585 0-5.52-1.396-8.357-1.225-2.47-3.309-2.47z"/></svg>