<svg xmlns="http://www.w3.org/2000/svg" viewBox="0 0 192 192"><path d="M136 152.066c0 4.375-3.56 7.934-7.934 7.934H63.934C59.56 160 56 156.44 56 152.066V60h80v8h8V31.934C144 23.148 136.852 16 128.066 16H63.934C55.148 16 48 23.148 48 31.934v120.132C48 160.852 55.148 168 63.934 168H64v8h8v-8h48v8h8v-8h.066c8.786 0 15.934-7.148 15.934-15.934V148h-8zM63.934 24h64.132c4.375 0 7.934 3.56 7.934 7.934V52H56V31.934C56 27.56 59.56 24 63.934 24M72 44h-8V32h8zm-8 52V68h8v28zm87.72 9.137 3.744 2.958-4.96 6.277-7.93-6.264-12.06 3.919 7.589 10.303 9.953-.401.322 7.993-4.548.183 3.657 4.965-6.442 4.744-3.705-5.03-1.527 4.45-7.567-2.596 3.324-9.688-7.52-10.208-7.458 10.434 3.681 9.318-7.44 2.94-1.78-4.508-3.482 4.87-6.508-4.652 3.56-4.98-4.71-.181.308-7.994 9.97.385 7.398-10.35-12.094-3.954-7.65 6.264-5.068-6.19 3.694-3.025-5.714-1.868 2.486-7.604 5.49 1.795-1.275-4.535 7.703-2.164 2.722 9.69 12.12 3.963L120 91.663l-8.146-5.568 4.515-6.604 3.63 2.481V76h8v6.218l4.325-2.787 4.334 6.724-8.658 5.58.001 12.696 12.1-3.931 2.734-9.73 7.702 2.164-1.29 4.594 5.812-1.888 2.472 7.608-5.812 1.889z"/></svg>