<svg xmlns="http://www.w3.org/2000/svg" viewBox="0 0 192 192"><path d="M36 68c0-2.21 4.477-4 10-4s10 1.79 10 4-4.477 4-10 4-10-1.79-10-4m52 24c2.21 0 4-2.686 4-6s-1.79-6-4-6-4 2.686-4 6 1.79 6 4 6m58-28c-5.523 0-10 1.79-10 4s4.477 4 10 4 10-1.79 10-4-4.477-4-10-4M36 108h120v-8H36zm36 16h48v-8H72zm32-32c2.21 0 4-2.686 4-6s-1.79-6-4-6-4 2.686-4 6 1.79 6 4 6m72 12c0 31.496-59.44 48-80 48s-80-16.504-80-48c0-7.943 4.629-11.292 8.349-13.984 2.897-2.097 5.462-3.963 6.95-8.008C29.217 78.09 28 73.271 28 68c0-13.458 7.907-24 18-24 14.955 0 23.276 4.967 30.618 9.35C82.596 56.918 87.758 60 96 60s13.404-3.082 19.382-6.65C122.724 48.967 131.045 44 146 44c10.093 0 18 10.542 18 24 0 5.27-1.217 10.09-3.299 14.008 1.488 4.045 4.053 5.911 6.95 8.008C171.371 92.708 176 96.057 176 104m-30-52c-5.42 0-10 7.327-10 16s4.58 16 10 16 10-7.327 10-16-4.58-16-10-16M36 68c0 8.673 4.58 16 10 16s10-7.327 10-16-4.58-16-10-16-10 7.327-10 16m132 36c0-3.709-1.455-4.91-5.039-7.503-2.448-1.772-5.473-3.973-7.815-7.731C152.48 90.824 149.363 92 146 92c-10.093 0-18-10.542-18-24 0-5.108 1.14-9.793 3.106-13.644-4.368 1.543-7.947 3.669-11.624 5.863C113.074 64.044 106.448 68 96 68s-17.074-3.956-23.482-7.78c-3.677-2.195-7.256-4.321-11.624-5.864C62.86 58.207 64 62.892 64 68c0 13.458-7.907 24-18 24-3.363 0-6.48-1.176-9.146-3.234-2.342 3.758-5.367 5.959-7.815 7.73C25.455 99.09 24 100.292 24 104c0 13.974 17.64 24.08 28.155 28.858C68.075 140.095 86.627 144 96 144s27.924-3.905 43.845-11.142C150.36 128.08 168 117.974 168 104"/></svg>