<svg xmlns="http://www.w3.org/2000/svg" viewBox="0 0 192 192"><path d="M124 136h8c0-15.517-9.297-28.832-22.45-34.36 6.79-4.438 11.289-12.102 11.289-20.801C120.839 67.143 109.696 56 96 56S71.161 67.143 71.161 80.839c0 8.7 4.5 16.363 11.29 20.801C69.296 107.168 60 120.483 60 136h8c0-16.044 12.56-29.097 28-29.097s28 13.053 28 29.097M96 64c9.285 0 16.839 7.554 16.839 16.839S105.285 97.677 96 97.677 79.161 90.124 79.161 80.84 86.715 64 96 64m-56 88h44v8H32v-52h8zm112-44h8v52h-52v-8h44zm8-76v52h-8V40h-44v-8zM40 84h-8V32h52v8H40z"/></svg>