<svg xmlns="http://www.w3.org/2000/svg" viewBox="0 0 192 192"><path d="M117.959 145.924c2.116 3.527 4.515 7.524 4.515 13.891 0 9.7-7.746 16.009-8.076 16.272l-2.499-3.123-2.516-3.11c.051-.041 5.09-4.236 5.09-10.039 0-4.15-1.489-6.633-3.374-9.775-2.116-3.527-4.515-7.524-4.515-13.892 0-9.437 6.17-15.714 6.432-15.977l5.656 5.658c-.022.023-4.088 4.272-4.088 10.32 0 4.15 1.49 6.633 3.375 9.775m-22.23-9.776c0-6.047 4.065-10.296 4.088-10.32l-5.657-5.657c-.263.263-6.431 6.54-6.431 15.977 0 6.368 2.398 10.365 4.514 13.892 1.885 3.142 3.375 5.624 3.375 9.775 0 5.803-5.04 9.998-5.09 10.04l2.516 3.109 2.499 3.123c.33-.263 8.075-6.571 8.075-16.272 0-6.367-2.399-10.364-4.514-13.891-1.886-3.142-3.375-5.624-3.375-9.776m-19.203 0c0-6.047 4.066-10.296 4.088-10.32l-5.657-5.657c-.262.263-6.43 6.54-6.43 15.977 0 6.368 2.398 10.365 4.514 13.892 1.885 3.142 3.375 5.624 3.375 9.775 0 5.803-5.04 9.998-5.09 10.04l2.515 3.109 2.499 3.123c.33-.263 8.076-6.571 8.076-16.272 0-6.367-2.399-10.364-4.515-13.891-1.885-3.142-3.375-5.624-3.375-9.776M176 84v28H16V84h10.91L76 48V16h40v32l49.09 36zM84 48h24V24H84zM40.437 84h111.126L113.38 56H78.619zM168 92H24v12h144z"/></svg>