<svg xmlns="http://www.w3.org/2000/svg" viewBox="0 0 192 192"><path d="M82.829 42.829 77.17 37.17 96 18.343l18.829 18.828-5.658 5.658L100 33.657V84h-8V33.657zM140 18.343l-18.829 18.828 5.658 5.658L136 33.657V112h8V33.657l9.171 9.172 5.658-5.658zm-88 0L33.171 37.171l5.658 5.658L48 33.657V112h8V33.657l9.171 9.172 5.658-5.658zm46.863 129.754h16.559v.832c0 10.994-7.733 19.123-18.285 19.123-12.374 0-20.014-9.98-20.014-25.868 0-16.17 7.733-26.24 20.195-26.24 8.367 0 13.008 3.788 16.556 13.489l8.733-3.42c-2.456-5.728-4.185-8.406-7.278-11.363-4.548-4.434-10.733-6.65-18.103-6.65-17.648 0-30.018 14.136-30.018 34.184 0 19.955 12.007 33.816 29.2 33.816 9.188 0 15.466-3.698 20.74-12.289l1.73 11.364h5.914v-34.741h-25.93v7.763z"/></svg>