<svg xmlns="http://www.w3.org/2000/svg" viewBox="0 0 192 192"><path fill="#020202" d="m56.671 68-4.794 5.785L48 78.46V68zm47.339-51.47L32 52.38v45.38l8-9.65V57.34l43.43-21.63.22-.25-.08.18 20.44-10.17 64.02 31.87V148H160V68H70.9l-3.14 8H152v8H64.63l-3.14 8H152v8H88.68l12 7.99.06.01H152v8h-14c3.1 1.95 5.71 4.75 7.48 8H152v8h-4.07c.05.51.07 1.02.07 1.53V140h4v8h-4v8h28.03V52.38zm35.96 116.23c.02.26.03.52.03.77V156h-15.05c-.9 3.25-2.89 6.06-5.54 8a14.83 14.83 0 0 1-8.79 2.88c-6.81 0-12.57-4.61-14.32-10.88H56.07c-1.75 6.27-7.51 10.88-14.32 10.88-7.17 0-13.18-5.11-14.57-11.89L16 151.26v-24.63c0-1.72 0-1.82 11.71-16.95l6.07 4.7.26.2c-.67.87-1.36 1.76-2.04 2.64-3.42 4.44-6.72 8.8-8 10.58v17.7l3.83 1.27c2.12-5.63 7.56-9.64 13.92-9.64 2.23 0 4.35.5 6.25 1.38 3.83 1.78 6.78 5.15 8 9.25.03.08.05.16.07.24H96.3c.91-3.25 2.89-6.05 5.55-8 2.46-1.8 5.49-2.87 8.77-2.87 3.27 0 6.31 1.07 8.77 2.87 2.66 1.94 4.65 4.75 5.56 8H132v-14.47c0-.23-.03-.49-.1-.74-.02-.07-.03-.13-.05-.19a.8.8 0 0 0-.06-.19c-.04-.14-.1-.27-.16-.41 0-.01-.01-.01-.01-.02-.07-.16-.15-.33-.25-.49 0-.01-.01-.03-.02-.04-.09-.15-.18-.3-.29-.45-.2-.3-.44-.58-.7-.83-.09-.09-.18-.18-.28-.26-.14-.11-.27-.21-.41-.3-.08-.06-.17-.11-.26-.16-.08-.05-.16-.1-.25-.13-.09-.05-.19-.09-.28-.12s-.17-.06-.26-.08c-.09-.03-.17-.04-.26-.06L99.32 124l-4.71-.82L83.84 116l-6.1-4.07c-1.84-1.34-4.23-2.89-6.48-3-.84-.04-1.73-.05-2.63-.05h-1.09l.68-.88 1.72-2.24.64-.82.01-.02 2.89-3.76h.02c.21.04.43.08.64.13.16.03.32.07.47.12.12.03.24.06.35.1l.12.03c.14.04.29.09.43.14.18.05.36.12.53.18.22.08.44.17.66.25.16.07.31.13.46.2a21 21 0 0 1 1.63.8c.69.37 1.34.77 1.96 1.17.25.16.49.32.72.49.31.21.62.43.91.64l3.89 2.59 11.37 7.58 2.41.42 29.66 5.17c.22.04.44.08.65.13.09.02.18.05.27.07a8 8 0 0 1 .63.19q.36.12.72.27c.09.03.17.07.26.11.16.07.32.14.48.22.01.01.03.01.04.02.22.11.43.22.64.35.03.01.06.03.1.06.21.12.42.25.62.39.01.01.02.01.02.02.22.14.42.29.63.45.23.17.45.36.67.55.26.23.51.47.76.72.1.09.19.2.29.3.16.17.31.35.46.53q.18.21.33.42a10 10 0 0 1 .64.9 13 13 0 0 1 .81 1.43c.07.12.12.25.18.37.08.18.16.36.23.54.07.19.14.37.21.56.03.09.06.17.08.26.07.18.12.37.17.56.06.22.12.45.16.68.05.24.1.49.13.73.03.25.06.5.08.76M47.33 156a6.84 6.84 0 0 0 1.29-4c0-1.5-.48-2.88-1.29-4a6.85 6.85 0 0 0-5.58-2.87c-.6 0-1.19.08-1.75.24-.25.05-.49.13-.72.23-2.35.9-4.08 3.06-4.35 5.65-.04.24-.05.5-.05.75 0 1.49.48 2.87 1.29 4a6.847 6.847 0 0 0 11.16 0m62.54 2.83c.24.04.5.05.75.05 2.31 0 4.35-1.14 5.58-2.88.82-1.13 1.3-2.51 1.3-4 0-1.5-.48-2.88-1.3-4a6.84 6.84 0 0 0-5.58-2.87c-.25 0-.51.01-.75.05a6.81 6.81 0 0 0-4.83 2.82 6.8 6.8 0 0 0-1.29 4c0 1.49.48 2.87 1.29 4a6.8 6.8 0 0 0 4.83 2.83m-68.406-29.19 22.786-29.604h-14.5l8.286-21.146-22.786 27.49h14.5z"/></svg>