<svg xmlns="http://www.w3.org/2000/svg" viewBox="0 0 192 192"><path d="m140 84.01-8-.74V76c0-5.22-3.34-9.66-8-11.31V52h8V26.53c0-5.8-4.86-10.53-10.84-10.53H70.84C64.86 16 60 20.73 60 26.53V52h8v12.69c-4.66 1.65-8 6.09-8 11.31v7.28l-8 .73v24.64l8 .61V116c0 5.22 3.34 9.66 8 11.31V140h-8v25.47c0 5.8 4.86 10.53 10.84 10.53h50.32c5.98 0 10.84-4.73 10.84-10.53V140h-8v-12.69c4.66-1.65 8-6.09 8-11.31v-6.74l8-.62zm-16-57.48V44h-24V24h21.16c1.57 0 2.84 1.14 2.84 2.53m-56 0c0-1.39 1.27-2.53 2.84-2.53H92v20H68zM116 52v12H76V52zM68 76c0-2.21 1.79-4 4-4h48c2.21 0 4 1.79 4 4v6.53l-27.26-2.51-.36-.04L68 82.56zm0 89.47V148h24v20H70.84c-1.57 0-2.84-1.14-2.84-2.53m56 0c0 1.39-1.27 2.53-2.84 2.53H100v-20h24zM76 140v-12h40v12zm48-24c0 2.21-1.79 4-4 4H72c-2.21 0-4-1.79-4-4v-6.14l28.38 2.15 27.62-2.13zm8-14.76-8 .62-27.63 2.13L68 101.84l-4-.31-4-.3v-9.92l4-.36 4-.36 28.37-2.57L124 90.57l8 .74zM100 96c0 2.21-1.79 4-4 4s-4-1.79-4-4 1.79-4 4-4 4 1.79 4 4"/></svg>