<svg xmlns="http://www.w3.org/2000/svg" viewBox="0 0 192 192"><path d="m28.17 47.096-.2-3.82c3.848-.342 5.93-1.653 6.927-4.161h4.389v20.608h-5.273V45.842c-1.54.798-3.677 1.254-5.843 1.254m66.443 8.808c-1.91 0-2.936-.799-3.534-2.708l-4.732 1.397c.855 3.505 3.962 5.472 8.608 5.472 5.045 0 8.21-2.451 8.21-6.356 0-2.309-1.17-3.877-3.535-4.703 2.052-.827 3.078-2.224 3.078-4.22 0-3.476-2.964-5.756-7.553-5.756-4.02 0-6.727 1.738-7.953 5.13l4.105 1.682c.798-1.825 1.91-2.65 3.562-2.65 1.54 0 2.51.825 2.51 2.137 0 1.34-1.056 2.194-2.766 2.194h-1.624v3.791h1.424c2.167 0 3.164.684 3.164 2.195 0 1.454-1.168 2.395-2.964 2.395m61.057 0c-1.653 0-2.594-.656-3.078-2.138l-4.932 1.34c.485 1.31.941 1.994 1.796 2.793 1.54 1.425 3.763 2.166 6.385 2.166 4.988 0 8.066-2.765 8.066-7.297 0-3.99-2.508-6.499-6.47-6.499-1.738 0-2.964.485-4.047 1.568l.484-4.161h8.722v-4.333h-12.57l-1.453 12.256h4.617c.513-1.026 1.397-1.539 2.594-1.539 1.71 0 2.765 1.055 2.765 2.765 0 1.91-1.112 3.079-2.879 3.079M37.855 145.135c2.451-2.052 3.563-4.218 3.563-6.898 0-4.019-2.879-6.47-7.553-6.47-4.276 0-6.898 1.91-7.81 5.73l4.874 1.196c.513-1.852 1.282-2.593 2.736-2.593 1.425 0 2.252.855 2.252 2.365 0 2.936-3.364 6.328-9.634 9.691v4.304H41.76v-4.218h-8.551c2.223-1.311 3.506-2.166 4.646-3.107m62.88-.4h2.651v4.049h-2.65v3.676h-5.131v-3.676h-9.72v-4.56l9.378-12.314h5.472zm-4.902-7.467-5.672 7.468h5.672zm79.412 22.509V160h-11.301c-.895-1.567-1.79-4.252-2.574-7.888-1.119-5.203-2.07-6.322-5.258-6.322h-5.09V160H140v-40h18.629c9.063 0 14.433 4.363 14.433 11.692 0 5.483-2.125 8.503-7.048 10.183 4.028 1.286 5.09 2.853 6.6 9.846 1.176 4.922 1.848 7.048 2.63 8.056zm-12.756-26.686c0-1.622-.503-2.853-1.454-3.692-.952-.783-1.958-1.008-4.308-1.008h-5.706v9.511h6.21c3.412 0 5.258-1.678 5.258-4.81zM32 68v56h8v-24h52v24h8v-24h52v12h8V68h-8v24h-52V68h-8v24H40V68z"/></svg>