<svg xmlns="http://www.w3.org/2000/svg" viewBox="0 0 192 192"><path d="M113.982 174.83q-.378 0-.756-.009l-2.752-.054-2.852-7.92a30 30 0 0 1-.672-.158l-6.064 5.84-2.491-1.167a36.9 36.9 0 0 1-10.98-7.872l-1.906-1.984 3.585-7.622a29 29 0 0 1-.362-.582l-8.42-.158-.935-2.588a37 37 0 0 1-1.72-6.562 37 37 0 0 1-.478-6.768l.055-2.75 7.923-2.854q.075-.335.156-.667l-5.843-6.068 1.168-2.491a36.8 36.8 0 0 1 7.872-10.98l1.984-1.906 7.622 3.586q.289-.185.582-.363l.159-8.419 2.587-.936a37 37 0 0 1 6.562-1.72 37 37 0 0 1 6.768-.478l2.75.055 2.854 7.923q.335.075.668.156l6.067-5.842 2.49 1.167a36.9 36.9 0 0 1 10.982 7.872l1.905 1.984-3.585 7.622q.183.29.362.582l8.42.159.935 2.587a37 37 0 0 1 1.72 6.563c.363 2.206.524 4.483.478 6.768l-.055 2.75-7.923 2.854q-.075.334-.156.667l5.843 6.068-1.168 2.49a36.9 36.9 0 0 1-7.872 10.98l-1.984 1.906-7.622-3.585q-.29.184-.582.362l-.159 8.42-2.587.935a37 37 0 0 1-6.563 1.72 37 37 0 0 1-6.01.486zm-9.16-17.198 2.304.78c1.337.451 2.645.758 3.998.936l2.415.318 2.553 7.088a28.4 28.4 0 0 0 5.158-.85l.142-7.528 2.178-1.078a21.4 21.4 0 0 0 3.492-2.174l1.933-1.478 6.816 3.207a29 29 0 0 0 3.046-4.249l-5.225-5.425.778-2.304a21.4 21.4 0 0 0 .938-4.006l.322-2.41 7.083-2.55a28.4 28.4 0 0 0-.85-5.159l-7.527-.142-1.079-2.177a21.4 21.4 0 0 0-2.174-3.493l-1.477-1.933 3.206-6.816a29 29 0 0 0-4.249-3.045l-5.426 5.224-2.303-.778a21.4 21.4 0 0 0-4.006-.938l-2.41-.322-2.55-7.083a28.3 28.3 0 0 0-5.158.851l-.144 7.526-2.176 1.079a21.5 21.5 0 0 0-3.494 2.174l-1.932 1.477-6.816-3.206a29 29 0 0 0-3.046 4.25l5.225 5.425-.778 2.303a21.4 21.4 0 0 0-.938 4.006l-.322 2.41-7.083 2.55a28.3 28.3 0 0 0 .85 5.159l7.527.142 1.079 2.178a21.4 21.4 0 0 0 2.174 3.493l1.478 1.932-3.207 6.816a29 29 0 0 0 4.249 3.046zm9.205-5.627c-.984 0-1.975-.105-2.96-.316a13.9 13.9 0 0 1-8.82-6.083c-4.194-6.48-2.333-15.164 4.147-19.358a13.9 13.9 0 0 1 10.538-1.936 13.9 13.9 0 0 1 8.82 6.083c4.194 6.48 2.333 15.165-4.147 19.358a13.9 13.9 0 0 1-7.578 2.252m-.04-20.005a5.96 5.96 0 0 0-3.247.964 6.006 6.006 0 0 0-1.777 8.296 5.96 5.96 0 0 0 3.78 2.607 5.96 5.96 0 0 0 4.516-.83 6.006 6.006 0 0 0 1.777-8.296 5.96 5.96 0 0 0-3.78-2.607 6 6 0 0 0-1.268-.134zm50.518-24H172v-8h-20v20.068h8v-4.873c7.05 9.576 8.16 19.403 7.696 26.366-.694 10.437-5.325 20.479-12.707 27.55l5.534 5.777c8.807-8.437 14.33-20.39 15.156-32.796.827-12.427-3.132-24.393-11.174-34.092M93.512 85.057a38 38 0 0 1-5.059-6.914l-.505.78a31.2 31.2 0 0 1-5.672 6.548l-1.6 1.395.954 7.807a38 38 0 0 1-2.805 1.553 38 38 0 0 1-2.926 1.31l-5.669-5.452-2.076.442c-2.818.6-5.726.804-8.643.602l-2.117-.145-4.855 6.207a38.7 38.7 0 0 1-6.076-2.027l-.154-7.88-1.78-1.155a31.2 31.2 0 0 1-6.55-5.671l-1.394-1.601-7.807.955a38 38 0 0 1-2.862-5.73l5.451-5.67-.442-2.077a31.2 31.2 0 0 1-.602-8.642l.146-2.118-6.208-4.855a38.7 38.7 0 0 1 2.028-6.075l7.878-.154 1.156-1.781a31.2 31.2 0 0 1 5.672-6.549l1.6-1.394-.954-7.807c.92-.561 1.858-1.08 2.804-1.553a38 38 0 0 1 2.926-1.31l5.67 5.451 2.076-.442c2.816-.6 5.724-.802 8.643-.602l2.117.146 4.855-6.207a38.6 38.6 0 0 1 6.075 2.027l.153 7.88 1.782 1.154a31.2 31.2 0 0 1 6.549 5.672l.694.796a38.3 38.3 0 0 1 4.022-7.66l-.151.018a39 39 0 0 0-4.979-4.311l-.168-8.61-2.153-1.083a46.7 46.7 0 0 0-12.73-4.248l-2.373-.427-5.306 6.782a40 40 0 0 0-6.568.457l-6.198-5.958-2.29.756a47 47 0 0 0-6.22 2.562 47 47 0 0 0-5.786 3.436l-1.98 1.377 1.043 8.533a39 39 0 0 0-4.311 4.978l-8.609.169-1.084 2.153a46.7 46.7 0 0 0-4.248 12.73L15.469 56l6.782 5.304a39 39 0 0 0 .458 6.57L16.75 74.07l.757 2.29a47 47 0 0 0 2.561 6.221 47 47 0 0 0 3.436 5.785l1.377 1.98 8.534-1.043a39 39 0 0 0 4.978 4.31l.168 8.61 2.154 1.084a46.7 46.7 0 0 0 12.73 4.248l2.373.427 5.305-6.782a39 39 0 0 0 6.569-.458l6.197 5.96 2.29-.758a47 47 0 0 0 6.221-2.561 47 47 0 0 0 5.785-3.436l1.981-1.376-1.043-8.535a39 39 0 0 0 4.31-4.978zm36.502 5.772q-.92 0-1.84-.045l-2.749-.134-2.625-7.997a27 27 0 0 1-.666-.177l-6.23 5.665-2.456-1.238a36.9 36.9 0 0 1-10.751-8.182l-1.848-2.038 3.801-7.517a28 28 0 0 1-.345-.591l-8.412-.4-.861-2.613a37 37 0 0 1-1.531-6.609 37 37 0 0 1-.286-6.778l.134-2.748 8.001-2.626q.084-.332.175-.663l-5.667-6.231 1.238-2.457a36.9 36.9 0 0 1 8.182-10.751l2.038-1.848 7.517 3.801q.293-.176.591-.345l.4-8.411 2.612-.862a37 37 0 0 1 6.61-1.532c2.216-.3 4.498-.394 6.778-.285l2.748.134 2.626 8.001q.332.084.663.175l6.231-5.667 2.457 1.238A36.9 36.9 0 0 1 157.3 29.28l1.848 2.038-3.801 7.516q.176.295.345.592l8.413.4.86 2.612a37 37 0 0 1 1.532 6.61c.3 2.215.396 4.495.285 6.778l-.134 2.748-8.001 2.626q-.084.332-.175.663l5.667 6.231-1.238 2.456a36.8 36.8 0 0 1-8.182 10.752l-2.038 1.848-7.516-3.801q-.294.176-.592.345l-.4 8.412-2.612.861a37 37 0 0 1-6.61 1.532c-1.617.22-3.271.33-4.937.33m-9.75-17.467 2.281.845a20.8 20.8 0 0 0 3.97 1.05l2.404.388 2.35 7.157a28.4 28.4 0 0 0 5.18-.703l.358-7.52 2.208-1.016a21.4 21.4 0 0 0 3.553-2.074l1.974-1.42 6.72 3.399a29 29 0 0 0 3.167-4.16l-5.069-5.574.845-2.28c.478-1.291.832-2.63 1.052-3.978l.391-2.398 7.152-2.348a28.3 28.3 0 0 0-.703-5.18l-7.52-.357-1.015-2.208a21.4 21.4 0 0 0-2.075-3.554l-1.42-1.973 3.399-6.722a29 29 0 0 0-4.16-3.166l-5.574 5.069-2.28-.845a21.4 21.4 0 0 0-3.977-1.051l-2.4-.391-2.347-7.153a28.3 28.3 0 0 0-5.18.703l-.357 7.52-2.208 1.015a21.5 21.5 0 0 0-3.554 2.075l-1.973 1.42-6.722-3.399a29 29 0 0 0-3.166 4.16l5.069 5.574-.845 2.28a21.5 21.5 0 0 0-1.052 3.978l-.391 2.398-7.152 2.348a28.3 28.3 0 0 0 .703 5.18l7.519.358 1.017 2.207a21.5 21.5 0 0 0 2.074 3.554l1.42 1.973-3.399 6.722a29 29 0 0 0 4.16 3.166zm9.767-5.341c-4.733 0-9.357-2.396-11.988-6.729-4.007-6.598-1.9-15.226 4.698-19.232 6.597-4.006 15.225-1.9 19.233 4.697 4.006 6.598 1.899 15.226-4.698 19.233a13.9 13.9 0 0 1-7.245 2.031M130 48.027c-1.062 0-2.134.28-3.105.87a5.96 5.96 0 0 0-2.714 3.704 5.96 5.96 0 0 0 .7 4.539 5.96 5.96 0 0 0 3.704 2.713c1.559.38 3.17.132 4.539-.7a6.007 6.007 0 0 0 2.013-8.243A6 6 0 0 0 130 48.027M62.01 83.986c-8.34 0-16.333-4.757-20.043-12.817-5.08-11.034-.235-24.143 10.8-29.222 11.032-5.08 24.142-.235 29.221 10.8a21.89 21.89 0 0 1 .653 16.847A21.89 21.89 0 0 1 71.188 81.97a21.9 21.9 0 0 1-9.178 2.017zm-.054-36.057c-1.96 0-3.95.412-5.845 1.284-7.027 3.235-10.112 11.584-6.878 18.611a13.94 13.94 0 0 0 7.881 7.293 13.95 13.95 0 0 0 10.73-.415 13.94 13.94 0 0 0 7.293-7.881 13.94 13.94 0 0 0-.415-10.73c-2.363-5.132-7.454-8.162-12.766-8.162"/></svg>