<svg xmlns="http://www.w3.org/2000/svg" viewBox="0 0 192 192"><path d="M102.2 151.66c.49 2.69 1.23 5.29 2.2 7.79-2.77.36-5.57.56-8.34.56-3.35 0-6.75-.27-10.09-.8l-2.58-.41-3.69-14.09c-2.21-.75-4.38-1.65-6.48-2.69l-12.55 7.35-2.12-1.54a64 64 0 0 1-14.27-14.29l-1.53-2.11 7.35-12.56a49.6 49.6 0 0 1-2.7-6.53l-14.07-3.65-.41-2.59c-.53-3.35-.8-6.75-.8-10.1s.27-6.75.8-10.1l.41-2.58 14.08-3.69c.75-2.22 1.65-4.39 2.69-6.5l-7.35-12.56 1.53-2.11c3.98-5.49 8.79-10.3 14.27-14.29l2.12-1.54L73.21 50c2.11-1.05 4.29-1.96 6.52-2.7l3.65-14.08 2.59-.41c6.69-1.06 13.5-1.06 20.19 0l2.58.41 3.69 14.09c2.22.75 4.38 1.65 6.48 2.69l12.55-7.35 2.12 1.54a64 64 0 0 1 14.27 14.29l1.53 2.11-7.35 12.56c1.05 2.11 1.96 4.29 2.7 6.53l14.07 3.65.41 2.59c.53 3.35.8 6.75.8 10.1 0 2.79-.2 5.61-.57 8.42a42.3 42.3 0 0 0-7.78-2.21c.23-2.07.35-4.15.35-6.2 0-2.08-.12-4.18-.35-6.28l-13.3-3.45-.63-2.2a43.3 43.3 0 0 0-3.77-9.1l-1.11-1.99 6.95-11.88a56 56 0 0 0-8.87-8.88l-11.87 6.95-2-1.11c-2.87-1.6-5.91-2.86-9.05-3.76l-2.19-.63-3.48-13.32a56 56 0 0 0-12.54 0l-3.45 13.31-2.2.63c-3.15.9-6.21 2.17-9.09 3.77l-2 1.11-11.87-6.96c-3.28 2.62-6.25 5.6-8.87 8.88L59.27 73l-1.11 1.99c-1.6 2.87-2.86 5.92-3.76 9.06l-.63 2.19-13.31 3.48c-.24 2.1-.35 4.2-.35 6.28s.12 4.18.35 6.28l13.3 3.45.63 2.2c.9 3.16 2.17 6.22 3.77 9.1l1.11 1.99-6.95 11.88c2.62 3.29 5.59 6.26 8.87 8.88l11.87-6.95 2 1.11c2.87 1.6 5.91 2.86 9.05 3.76l2.19.63 3.48 13.32c4.14.46 8.28.46 12.42.01M120 96c0-13.23-10.77-24-24-24S72 82.77 72 96s10.77 24 24 24 24-10.77 24-24m-8 0c0 8.82-7.18 16-16 16s-16-7.18-16-16 7.18-16 16-16 16 7.18 16 16m46.66 43-5.59-5.73-12.79 12.48-4.87-4.51-5.43 5.87 10.45 9.66zm17.34 5.04c0-17.67-14.35-32.04-32-32.04s-32 14.37-32 32.04 14.35 32.04 32 32.04 32-14.37 32-32.04m-8 0c0 13.26-10.77 24.04-24 24.04s-24-10.79-24-24.04S130.77 120 144 120s24 10.79 24 24.04"/></svg>