<svg xmlns="http://www.w3.org/2000/svg" viewBox="0 0 192 192"><path d="M114.815 101.827c-12.226 5.065-18.052 19.132-12.988 31.358 3.824 9.232 12.781 14.815 22.204 14.815 3.055 0 6.16-.587 9.154-1.827 12.226-5.065 18.052-19.131 12.988-31.358-5.064-12.225-19.13-18.05-31.358-12.988m15.308 36.955c-8.151 3.377-17.528-.508-20.905-8.659-3.376-8.15.508-17.529 8.659-20.905a15.9 15.9 0 0 1 6.102-1.218c6.281 0 12.253 3.722 14.803 9.877 3.376 8.15-.508 17.529-8.659 20.905m37.7-10.85c.24-2.63.242-5.263.009-7.871l7.173-6.476-.595-2.338a52.5 52.5 0 0 0-2.368-7.146 52.5 52.5 0 0 0-3.38-6.729l-1.232-2.074-9.651.493a43.7 43.7 0 0 0-5.571-5.559l.494-9.665-2.072-1.233a52.2 52.2 0 0 0-13.877-5.748l-2.337-.593-6.485 7.184a44 44 0 0 0-7.87-.01l-6.476-7.172-2.338.595a52.5 52.5 0 0 0-7.146 2.368 52.5 52.5 0 0 0-6.729 3.38l-2.074 1.232.493 9.651a43.7 43.7 0 0 0-5.559 5.571l-9.665-.494-1.233 2.072a52.2 52.2 0 0 0-5.748 13.877l-.593 2.337 7.184 6.485a44 44 0 0 0-.009 7.87l-7.173 6.476.595 2.338a52.5 52.5 0 0 0 2.368 7.146 52.5 52.5 0 0 0 3.38 6.729l1.232 2.074 9.651-.494a43.7 43.7 0 0 0 5.571 5.56l-.494 9.665 2.072 1.233a52.2 52.2 0 0 0 13.877 5.748l2.337.593 6.485-7.184c2.628.239 5.261.242 7.87.009l6.476 7.173 2.338-.595a52.5 52.5 0 0 0 7.146-2.368 52.5 52.5 0 0 0 6.729-3.38l2.074-1.232-.494-9.651a43.7 43.7 0 0 0 5.56-5.571l9.665.494 1.233-2.072a52.2 52.2 0 0 0 5.748-13.877l.593-2.337-7.184-6.485zm-4.87 16.53-8.954-.457-1.278 1.696a35.8 35.8 0 0 1-7.02 7.033l-1.695 1.278.456 8.937a44 44 0 0 1-3.625 1.702c-1.218.505-2.478.96-3.765 1.36l-5.996-6.642-2.102.294a35.8 35.8 0 0 1-9.939-.01l-2.102-.295-6.008 6.655a44 44 0 0 1-7.387-3.06l.457-8.954-1.696-1.278a35.8 35.8 0 0 1-7.033-7.02l-1.278-1.695-8.937.456a44 44 0 0 1-1.702-3.625 44 44 0 0 1-1.36-3.765l6.642-5.996-.294-2.102a35.8 35.8 0 0 1 .01-9.939l.295-2.102-6.655-6.008a44 44 0 0 1 3.06-7.387l8.954.457 1.278-1.696a35.8 35.8 0 0 1 7.02-7.033l1.695-1.278-.456-8.937a44 44 0 0 1 3.625-1.702 44 44 0 0 1 3.765-1.36l5.996 6.642 2.102-.294a35.7 35.7 0 0 1 9.939.01l2.102.295 6.008-6.655a44 44 0 0 1 7.387 3.06l-.457 8.954 1.696 1.278a35.8 35.8 0 0 1 7.033 7.02l1.278 1.695 8.937-.456a44 44 0 0 1 1.702 3.625c.505 1.218.96 2.478 1.36 3.765l-6.642 5.996.294 2.102a35.8 35.8 0 0 1-.01 9.939l-.295 2.102 6.655 6.008a44 44 0 0 1-3.06 7.387M56 40c-8.822 0-16 7.178-16 16s7.178 16 16 16 16-7.178 16-16-7.178-16-16-16m0 24c-4.411 0-8-3.589-8-8s3.589-8 8-8 8 3.589 8 8-3.589 8-8 8m22.615 24.99A40 40 0 0 0 88.99 78.616l1.557-2.268-5.21-7.563a31 31 0 0 0 .448-1.078l9.029-1.665.502-2.704C95.77 60.897 96 58.428 96 56s-.23-4.897-.683-7.337l-.502-2.704-9.029-1.665a32 32 0 0 0-.448-1.078l5.21-7.563-1.557-2.268A40 40 0 0 0 78.615 23.01l-2.268-1.557-7.563 5.21a32 32 0 0 0-1.078-.448l-1.665-9.029-2.704-.502a39.9 39.9 0 0 0-14.674 0l-2.705.502-1.664 9.029a31 31 0 0 0-1.078.448l-7.563-5.21-2.268 1.557A40 40 0 0 0 23.01 33.385l-1.557 2.268 5.21 7.563a31 31 0 0 0-.448 1.078l-9.029 1.664-.502 2.705C16.23 51.103 16 53.572 16 56s.23 4.897.683 7.337l.502 2.704 9.029 1.665q.214.543.448 1.078l-5.21 7.563 1.557 2.268A40 40 0 0 0 33.385 88.99l2.268 1.557 7.56-5.208q.54.236 1.082.45l1.663 9.025 2.705.502c2.44.453 4.909.683 7.337.683s4.897-.23 7.337-.683l2.704-.502 1.665-9.03q.541-.212 1.078-.447l7.563 5.21zm-9.209-12.937-2.146 1.143a24 24 0 0 1-4.236 1.758l-2.324.71-1.507 8.172a31.3 31.3 0 0 1-6.386 0L51.3 79.658l-2.331-.707a23.3 23.3 0 0 1-4.228-1.755l-2.146-1.143-6.848 4.717a32 32 0 0 1-4.516-4.516l4.717-6.848-1.143-2.147a24 24 0 0 1-1.758-4.235l-.71-2.324-8.172-1.507a31 31 0 0 1-.001-6.386l8.172-1.507.71-2.324a24 24 0 0 1 1.758-4.235l1.143-2.147-4.717-6.848a32 32 0 0 1 4.516-4.516l6.848 4.717 2.147-1.143a24 24 0 0 1 4.235-1.758l2.324-.71 1.507-8.172a31.3 31.3 0 0 1 6.386 0l1.507 8.172 2.324.71a24 24 0 0 1 4.235 1.758l2.147 1.143 6.848-4.717a32 32 0 0 1 4.516 4.516l-4.717 6.848 1.143 2.147a24 24 0 0 1 1.758 4.235l.71 2.324 8.172 1.507a31.2 31.2 0 0 1 0 6.386L79.664 60.7l-.71 2.324a24 24 0 0 1-1.758 4.235l-1.143 2.147 4.717 6.848a32 32 0 0 1-4.516 4.516zM124 48h-8V24h24v8h-10.343l21.173 21.171-5.658 5.658L124 37.657zm-76 84h8v24H32v-8h10.343L21.17 126.828l5.658-5.657L48 142.342z"/></svg>