<svg xmlns="http://www.w3.org/2000/svg" viewBox="0 0 192 192"><path d="M125.987 52.09c-7.719 0-13.998-6.28-13.998-13.999s6.28-13.998 13.998-13.998 13.998 6.28 13.998 13.998-6.28 13.999-13.998 13.999m0-19.997a6.005 6.005 0 0 0-5.998 5.998c0 3.308 2.69 5.999 5.998 5.999s5.998-2.691 5.998-5.999a6.005 6.005 0 0 0-5.998-5.998m0 55.996c-7.719 0-13.998-6.279-13.998-13.998s6.28-13.998 13.998-13.998 13.998 6.28 13.998 13.998-6.28 13.998-13.998 13.998m0-19.996c-3.307 0-5.998 2.691-5.998 5.998s2.69 5.998 5.998 5.998 5.998-2.69 5.998-5.998-2.691-5.998-5.998-5.998m35.992 3.92c-7.718 0-13.998-6.28-13.998-13.999s6.28-13.998 13.998-13.998 13.999 6.28 13.999 13.998-6.28 13.999-13.999 13.999m0-19.997a6.005 6.005 0 0 0-5.998 5.998c0 3.308 2.691 5.999 5.998 5.999s5.999-2.691 5.999-5.999a6.005 6.005 0 0 0-5.999-5.998m-35.992 80.032c-7.719 0-13.998-6.28-13.998-13.999s6.28-13.998 13.998-13.998 13.998 6.28 13.998 13.998-6.28 13.999-13.998 13.999m0-19.997a6.005 6.005 0 0 0-5.998 5.998c0 3.308 2.69 5.999 5.998 5.999s5.998-2.691 5.998-5.999a6.005 6.005 0 0 0-5.998-5.998m0 55.996c-7.719 0-13.998-6.279-13.998-13.998s6.28-13.998 13.998-13.998 13.998 6.28 13.998 13.998-6.28 13.998-13.998 13.998m0-19.996c-3.307 0-5.998 2.691-5.998 5.998s2.69 5.998 5.998 5.998 5.998-2.69 5.998-5.998-2.691-5.998-5.998-5.998m35.992 3.92c-7.718 0-13.998-6.28-13.998-13.999s6.28-13.998 13.998-13.998 13.999 6.28 13.999 13.998-6.28 13.999-13.999 13.999m0-19.997a6.005 6.005 0 0 0-5.998 5.998c0 3.308 2.691 5.999 5.998 5.999s5.999-2.691 5.999-5.999a6.005 6.005 0 0 0-5.999-5.998m0-19.994c-7.718 0-13.998-6.28-13.998-13.999s6.28-13.998 13.998-13.998 13.999 6.28 13.999 13.998-6.28 13.999-13.999 13.999m0-19.997a6.005 6.005 0 0 0-5.998 5.998c0 3.308 2.691 5.999 5.998 5.999s5.999-2.69 5.999-5.999a6.005 6.005 0 0 0-5.999-5.998m-63.301 84.045q-.729-.002-1.449-.014a75 75 0 0 0-1.23-.013A81 81 0 0 1 83.374 175l-2.581-.41-4.642-17.732a64 64 0 0 1-9.142-3.796l-15.814 9.253-2.114-1.534a80.3 80.3 0 0 1-17.86-17.86l-1.534-2.114 9.256-15.808a64 64 0 0 1-3.813-9.19l-17.718-4.593-.41-2.588A81 81 0 0 1 16 96c0-4.19.336-8.439 1-12.626l.41-2.582 17.732-4.638a64 64 0 0 1 3.798-9.15l-9.254-15.81 1.534-2.114a80.3 80.3 0 0 1 17.86-17.86l2.114-1.534 15.81 9.255a64 64 0 0 1 9.189-3.812l4.593-17.717 2.588-.411A81 81 0 0 1 96 16c1.472 0 2.943.07 4.207.136l3.792.198v56.577l-4.568-.655a24 24 0 0 0-3.42-.249c-13.236 0-24.004 10.769-24.004 24.005s10.768 24.004 24.004 24.004c1.165 0 2.523-.169 3.443-.296l4.546-.627v56.712l-3.801.19c-.499.024-1.01.032-1.521.032zm-11.483-8.568c2.933.36 5.884.541 8.805.541v-39.984c-17.643-.006-31.993-14.36-31.993-32.004s14.35-31.998 31.992-32.005V24.001a73 73 0 0 0-8.797.54l-4.4 16.977-2.2.628a55.7 55.7 0 0 0-11.748 4.873l-1.994 1.11-15.154-8.873a72.3 72.3 0 0 0-12.451 12.452l8.871 15.154-1.109 1.995a55.7 55.7 0 0 0-4.86 11.706l-.628 2.19-16.988 4.444A73 73 0 0 0 24 96.001c0 2.917.181 5.866.54 8.799l16.977 4.4.629 2.2a55.7 55.7 0 0 0 4.873 11.748l1.109 1.995-8.872 15.152a72.2 72.2 0 0 0 12.45 12.451l15.158-8.869 1.994 1.109a55.7 55.7 0 0 0 11.7 4.857l2.19.628z"/></svg>