<svg xmlns="http://www.w3.org/2000/svg" viewBox="0 0 192 192"><path d="M96 176c-44.112 0-80-35.888-80-80s35.888-80 80-80 80 35.888 80 80-35.888 80-80 80m0-152c-39.701 0-72 32.299-72 72s32.299 72 72 72 72-32.299 72-72-32.299-72-72-72m0 20c-28.719 0-52 23.281-52 52 0 23.317 15.348 43.05 36.492 49.647 1.907-.077 2.697-1.414 2.697-2.604v-8.995C68.576 137.223 65.4 127.16 65.4 127.16c-2.33-6.03-5.82-7.62-5.82-7.62-4.766-3.28.419-3.176.419-3.176 5.192.321 7.942 5.297 7.942 5.297 4.661 8.046 12.387 5.603 15.353 4.34.53-3.391 1.905-5.827 3.391-7.097-11.647-1.374-24.034-5.61-24.034-25.73 0-5.715 2.01-10.377 5.29-13.971-.523-1.382-2.22-6.567.635-13.77 0 0 4.236-1.374 14.292 5.298 4.131-1.166 8.793-1.905 13.238-1.905 4.341 0 9.003.74 13.232 1.905 9.951-6.672 14.187-5.297 14.187-5.297 2.862 7.202 1.166 12.387.643 13.769 3.28 3.594 5.29 8.256 5.29 13.97 0 10.057-3.101 16.153-7.651 19.896s-10.557 5.148-16.384 5.835c1.905 1.592 3.496 4.767 3.496 9.638v14.501c0 1.238.73 2.534 2.496 2.633C132.607 139.106 148 119.35 148 96c0-28.719-23.281-52-52-52"/></svg>