<svg xmlns="http://www.w3.org/2000/svg" viewBox="0 0 192 192"><path fill-rule="evenodd" d="M176 96c0 35.925-23.681 66.318-56.284 76.424-2.717-.152-3.84-2.146-3.84-4.05v-22.31c0-7.494-2.448-12.378-5.38-14.827 8.966-1.057 18.207-3.218 25.207-8.976s11.77-15.138 11.77-30.609c0-8.793-3.092-15.965-8.138-21.494.805-2.126 3.414-10.103-.988-21.183 0 0-6.518-2.115-21.827 8.15-6.506-1.794-13.678-2.932-20.356-2.932-6.84 0-14.011 1.138-20.368 2.931-15.47-10.264-21.987-8.149-21.987-8.149-4.391 11.08-1.782 19.057-.977 21.183-5.046 5.53-8.138 12.701-8.138 21.494 0 30.953 19.057 37.47 36.976 39.585-2.287 1.954-4.402 5.701-5.218 10.92-4.563 1.942-16.448 5.7-23.62-6.678 0 0-4.23-7.655-12.218-8.15 0 0-7.977-.16-.644 4.885 0 0 5.368 2.448 8.954 11.724 0 0 4.885 15.482 27.367 10.598v13.838c0 1.831-1.215 3.887-4.15 4.006C39.613 162.23 16 131.873 16 96c0-44.183 35.817-80 80-80s80 35.817 80 80" clip-rule="evenodd"/></svg>