<svg xmlns="http://www.w3.org/2000/svg" viewBox="0 0 192 192"><path d="M95.974 176c-44.113 0-80-35.888-80-80s35.887-80 80-80 80 35.888 80 80-35.888 80-80 80m0-152c-39.702 0-72 32.299-72 72s32.298 72 72 72 72-32.299 72-72-32.3-72-72-72M136 96c.2 21.1-17 40.1-40.1 40-22.5-.1-40-18.4-39.9-40.2.1-22 18.1-40.1 40.4-39.8 22.3.2 39.8 18.6 39.6 40m-57.7 17.6v.2c0 .3 0 .7.1 1 .6 3.4 3.5 5.9 7 5.9h21.3c1.1 0 2.1-.2 3.1-.7 2.6-1.4 4-3.6 4-6.6V84.6c0-.3-.1-.4-.4-.4h-6.1c-.6 0-.7 0-.7.7v28.6c-9.5.1-18.9.1-28.3.1m35.4-35.2v-.3c0-.7-.1-1.4-.4-2.1-.9-2.7-3.5-4.8-6.8-4.8h-21c-.3 0-.7 0-1 .1-1.8.2-3.2.9-4.4 2.2-1.3 1.4-1.9 3.1-1.9 5.1v28.7c0 .3.1.4.4.4h6.1c.7 0 .7 0 .7-.7V78.4z"/></svg>