<svg xmlns="http://www.w3.org/2000/svg" viewBox="0 0 192 192"><path d="M173.484 75.54 155.26 53.767a9.23 9.23 0 0 0-6.47-3.272 9.2 9.2 0 0 0-6.852 2.366l-6.54 5.886 5.352 5.946 6.54-5.885c.355-.32.753-.345.958-.331s.596.092.891.441L163.436 76H28.564l14.283-17.066a1.3 1.3 0 0 1 1.864-.127l6.539 5.885 5.351-5.946-6.539-5.886a9.22 9.22 0 0 0-6.853-2.366 9.24 9.24 0 0 0-6.483 3.288l-18.21 21.759a9.06 9.06 0 0 0-1.881 7.74l9.425 42.147c1.84 7.51 7.325 13.426 14.675 15.826l29.133 6.042c1.517.47 3.059.694 4.58.694 6.509 0 12.636-4.1 14.86-10.55l.097-.282 4.465-24.088c.192-.445.645-1.057 2.13-1.057s1.937.612 2.13 1.056l4.408 23.796.151.575c2.744 7.956 11.427 12.338 19.44 9.856l28.7-5.927.433-.115c7.35-2.4 12.836-8.316 14.694-15.904l9.41-42.07a9.06 9.06 0 0 0-1.882-7.74m-15.317 47.985a14.12 14.12 0 0 1-9.188 10.058l-28.67 5.92-.434.116c-3.867 1.26-8.083-.767-9.531-4.536l-4.41-23.812-.152-.575c-1.444-4.185-5.1-6.683-9.782-6.683s-8.338 2.498-9.782 6.683l-.097.282-4.468 24.105c-1.448 3.769-5.669 5.795-9.53 4.536l-29.104-6.036c-4.602-1.577-8.028-5.321-9.17-9.98L24.994 84h142.013z"/></svg>