<svg xmlns="http://www.w3.org/2000/svg" viewBox="0 0 192 192"><path d="M162.635 124c.189-1.32.289-2.656.289-4 0-7.823-3.229-14.903-8.419-19.989a22 22 0 0 0 1.833-.643c10.225-4.153 15.122-15.11 15.326-15.575l1.648-3.763-3.805-1.547c-.469-.192-11.618-4.629-21.846-.478-8.088 3.285-12.84 10.822-14.574 14.062-14.586.95-26.163 13.111-26.163 27.933 0 1.344.097 2.68.286 4H56v4c0 17.645 14.355 32 32 32h56c17.645 0 32-14.355 32-32v-4zM150.67 85.417c3.849-1.562 8.099-1.319 11.226-.754-1.852 2.589-4.735 5.735-8.57 7.293-3.847 1.564-8.098 1.32-11.225.755 1.852-2.59 4.735-5.736 8.57-7.294zM114.924 120c0-11.028 8.972-20 20-20s20 8.972 20 20c0 1.352-.145 2.69-.411 4h-39.18a20 20 0 0 1-.41-4zM144 152H88c-11.871 0-21.757-8.664-23.666-20h103.332c-1.91 11.336-11.795 20-23.666 20m-81.306 6.951c-.97.674-2.084 1.049-3.264 1.049H32.57c-3.39 0-6.078-2.94-6.535-7.151L15.543 56h60.91l-6.44 60h-8.045l5.58-52H24.457l9.531 87.986.002.014h22.032a40.4 40.4 0 0 0 6.672 6.951"/></svg>