<svg xmlns="http://www.w3.org/2000/svg" viewBox="0 0 192 192"><path d="m172.58 156.061-39.747-39.746A33.8 33.8 0 0 0 136 102.01c0-18.748-15.252-34-34-34s-34 15.252-34 34 15.252 34 34 34c5.11 0 9.957-1.14 14.31-3.169l39.751 39.74c2.207 2.205 5.14 3.42 8.26 3.42s6.052-1.215 8.258-3.42c2.206-2.207 3.421-5.14 3.421-8.26s-1.215-6.052-3.42-8.259zM76 102.009c0-14.337 11.664-26 26-26s26 11.663 26 26-11.664 26-26 26-26-11.664-26-26m90.922 64.913c-1.39 1.39-3.814 1.39-5.204 0l-38.437-38.425a34.3 34.3 0 0 0 5.21-5.21l38.43 38.431A3.66 3.66 0 0 1 168 164.32c0 .983-.383 1.907-1.078 2.602m-35.899-8.06a71.7 71.7 0 0 1-11.603 5.206c2.523-2.834 4.866-6.125 7.002-9.806l-5.977-5.975c-5.539 10.386-12.657 17.42-20.445 19.233v-23.562a41 41 0 0 1-8-1.173v24.735C74.286 163.394 60 132.328 60 96s14.286-67.394 32-71.52v36.75a41 41 0 0 1 8-1.171V24.48c13.332 3.105 24.718 21.472 29.536 45.856a42.25 42.25 0 0 1 9.9 12.668c-2.028-23.46-9.47-43.222-20.016-55.072 27.03 9.327 46.817 34.312 48.457 64.068h-25.092a42 42 0 0 1 1.164 8h23.928a71.5 71.5 0 0 1-9.01 31.035l5.857 5.857A79.5 79.5 0 0 0 176 96c0-44.112-35.888-80-80-80S16 51.888 16 96s35.888 80 80 80a79.5 79.5 0 0 0 40.89-11.274l-5.867-5.865zM72.58 27.931C60.71 41.269 52.766 64.625 52.057 92H24.123c1.64-29.756 21.426-54.741 48.457-64.068zM24.123 100h27.934c.71 27.375 8.653 50.731 20.523 64.068-27.03-9.327-46.817-34.312-48.457-64.068m92.828-8a17.9 17.9 0 0 1 2.93 8H100v19.89a17.9 17.9 0 0 1-8-2.925V100h-7.88a17.9 17.9 0 0 1 2.929-8H92v-4.948a17.9 17.9 0 0 1 8-2.925V92z"/></svg>