<svg xmlns="http://www.w3.org/2000/svg" viewBox="0 0 192 192"><path d="M108.836 163.053c-2.806 2.218-5.768 3.753-8.836 4.467V100h31.938c-.058 2.01-.164 3.999-.308 5.967a39.7 39.7 0 0 1 8.143-1.742q.116-2.096.173-4.225h27.937a72 72 0 0 1-1.442 10.906 40.3 40.3 0 0 1 6.812 5.852A79.8 79.8 0 0 0 176 96c0-44.112-35.888-80-80-80S16 51.888 16 96s35.888 80 80 80a79.8 79.8 0 0 0 20.758-2.747 40.3 40.3 0 0 1-7.922-10.2M167.883 92h-27.937c-.708-27.377-8.655-50.73-20.526-64.068 27.031 9.327 46.825 34.31 48.463 64.068M100 24.48c17.06 3.974 30.936 32.935 31.938 67.52H100zm-27.42 3.452C60.71 41.269 52.762 64.622 52.054 92H24.117c1.638-29.758 21.432-54.741 48.463-64.068M24.117 100h27.937c.708 27.377 8.655 50.73 20.526 64.068-27.031-9.327-46.825-34.31-48.463-64.068M92 167.52c-17.06-3.974-30.936-32.935-31.938-67.52H92zM92 92H60.062C61.064 57.415 74.94 28.454 92 24.48zm66.142 43.515L149.657 144l8.485 8.485-5.657 5.657-8.485-8.485-8.485 8.485-5.658-5.657 8.486-8.485-8.485-8.485 5.657-5.657 8.485 8.485 8.485-8.486zM144 112c-17.645 0-32 14.355-32 32s14.355 32 32 32 32-14.355 32-32-14.355-32-32-32m0 56c-13.234 0-24-10.766-24-24s10.766-24 24-24 24 10.766 24 24-10.766 24-24 24"/></svg>