<svg xmlns="http://www.w3.org/2000/svg" viewBox="0 0 192 192"><path d="M116 124v-8h-16v-4.18c24.6-2.041 44-22.701 44-47.82 0-26.467-21.533-48-48-48S48 37.533 48 64c0 25.119 19.4 45.779 44 47.82V116H75.999v8H16v8h59.999v8H116v-8h60v-8zm-.02-53.28a10.3 10.3 0 0 0 1.32 2.22c.9 1.08 2.46 1.92 3.9 1.38a4.94 4.94 0 0 0 2.28-2.28c.18-.24.3-.48.48-.72a6.6 6.6 0 0 1 5.76-2.7.9.9 0 0 0 .42-.12.55.55 0 0 0 .18-.42q.09-4.59-2.52-5.4a4.8 4.8 0 0 0-2.76.18c-.78.18-1.5.42-2.1.24-1.14-.3-1.68-1.68-2.04-2.94.66-.06 1.32.3 2.1.6a7.3 7.3 0 0 0 1.92.66 7.8 7.8 0 0 0 3.12-.3c1.02-.24 2.04-.48 2.94-.18 1.8.54 2.64 2.76 3.3 4.74l.06.12c.42 1.2 1.62 3.9 3.84 4.5l.563-.06c-2.616 17.997-16.362 32.436-34.013 36.072l.15-.672q.698-.461 1.32-1.02a20.6 20.6 0 0 0 1.98-1.98l7.92-8.28a.4.4 0 0 0 .12-.42.6.6 0 0 0-.24-.42c-.78-.48-.9-1.62-.66-2.46a7.8 7.8 0 0 1 1.56-2.58l.12-.18a51.7 51.7 0 0 0 5.28-8.22c.9-1.74 1.68-3.6 1.56-5.52a.6.6 0 0 0-.24-.42c-.12-.06-.18-.12-.3-.12h-.12a8.2 8.2 0 0 0-2.22 1.02c-.9.54-1.8 1.08-2.7.9a3.56 3.56 0 0 1-1.98-1.44 51.5 51.5 0 0 1-5.94-8.04c-.66-1.08-.9-1.92-.78-2.52 2.16 1.56 4.5 3.3 5.82 5.7q.266.559.6 1.08M52.8 64c0-10.39 3.688-19.932 9.822-27.392l.258.632a7.1 7.1 0 0 0-.18 3.18.41.41 0 0 0 .24.36.64.64 0 0 0 .48.06 8.4 8.4 0 0 0 4.08-2.76c.403-.595.726-1.24.96-1.92a9 9 0 0 1 .6-1.32 16 16 0 0 1 1.26-1.74c.36-.42.72-.9 1.08-1.38.607-.964 1.11-1.99 1.5-3.06l.3-.66-.313-.469a43 43 0 0 1 10.509-4.85l.124.52c-.06.06-.06.12-.12.18a2.2 2.2 0 0 1-.48.54 4 4 0 0 1-.72.36h-.06a19.3 19.3 0 0 0-3 1.38c-.748.37-1.42.88-1.98 1.5a3.05 3.05 0 0 0-.72 2.58.6.6 0 0 0 .54.42 27.8 27.8 0 0 0 8.52-1.56 19.2 19.2 0 0 0 4.32-1.98q.405-.25.78-.54c.191.454.502.848.9 1.14.181.108.401.13.6.06a.6.6 0 0 0 .3-.48c0-.48.6-.9 1.2-1.02a5.5 5.5 0 0 1 1.02-.06 4.3 4.3 0 0 0 1.5-.18c.42-.12.72-.3 1.08-.42q.435-.22.9-.36a5.2 5.2 0 0 1 1.38-.12h.24a20.7 20.7 0 0 0 5.76-.96 2.1 2.1 0 0 0 .72-.36c.17-.131.313-.294.42-.48l.163-.678a43 43 0 0 1 8.149 3.016l-.512.481c-1.98.24-3.3 1.8-4.68 3.36a15 15 0 0 1-2.4 2.4.6.6 0 0 0-.24-.3c-4.14-2.52-10.14-1.56-13.32 2.1a3.5 3.5 0 0 0-.96 1.8 4.7 4.7 0 0 0 .36 1.86c.06.12.12.3.18.42.4 1.191.38 2.483-.06 3.66l-7.5 2.4a.54.54 0 0 0-.36.36.47.47 0 0 0 .12.48c.351.42.422 1.009.18 1.5a1.72 1.72 0 0 1-1.14 1.08q-.39.045-.78 0h-.78a3.276 3.276 0 0 0-1.08 6.24c2.1.96 4.32-.54 6-1.98 1.92-1.62 3.42-2.22 4.56-1.86.06.96.84 1.68 1.5 2.28q.128.148.3.24a1.8 1.8 0 0 1 .6 1.44.64.64 0 0 1-.18.3.456.456 0 0 0-.3.54.51.51 0 0 0 .42.48 5.85 5.85 0 0 0 2.7.06 2.7 2.7 0 0 0 1.5-1.08 6.4 6.4 0 0 0 1.32 1.98c.78.72 2.1 1.26 3.24.66.47-.239.835-.646 1.02-1.14.438.203.903.344 1.38.42.18 0 .36.06.54.06a3.36 3.36 0 0 1 1.98.54c.304.258.497.623.54 1.02.12 1.32-1.32 2.4-2.7 2.64-.898.09-1.802.09-2.7 0-.737-.08-1.48-.1-2.22-.06a9 9 0 0 0-1.26.12c-1.14.12-2.28.3-3.18-.18a5.5 5.5 0 0 1-1.38-1.26 5.36 5.36 0 0 0-1.8-1.5l.66-1.2a.45.45 0 0 0 0-.54.47.47 0 0 0-.48-.3l-12.06-.6-.06-.24a.9.9 0 0 0-.12-.42.6.6 0 0 0-.66-.3.534.534 0 0 0-.36.6l.06.18c0 .12-.18.24-.3.3a2.2 2.2 0 0 1-.66.12 3.2 3.2 0 0 0-.72.18c-1.08.36-1.68 1.26-2.22 2.1-.3.42-.54.84-.84 1.2a5.9 5.9 0 0 1-1.38 1.02 7.3 7.3 0 0 0-1.86 1.5 7.3 7.3 0 0 0-1.02 2.34l-.06.18c-.18.72-.42 1.38-.66 2.1a28.4 28.4 0 0 0-1.5 6.3c-.24 2.7.54 6.24 3.24 8.1 1.98 1.32 4.44 1.38 6.78 1.44 2.22.06 4.26.06 5.94 1.08l.24 1.32a.51.51 0 0 0 .42.42l1.32.3A6.67 6.67 0 0 0 88.68 91l.24.24c.255.213.46.48.6.78.11.37.15.756.12 1.14a35.6 35.6 0 0 0 1.92 13.02q.068.136.18.24l.584.612C70.22 105.16 52.8 86.582 52.8 64m55.2 68H83.999v-8H108zM84.06 30.88a1.59 1.59 0 0 1 .24-1.32c.366-.4.901-.6 1.44-.54.866-.01 1.73.071 2.58.24.145.066.27.17.36.3a.66.66 0 0 1 0 .48l-.06.12c.112.37.132.761.06 1.14-.06.06-.06.24-.24.42a.8.8 0 0 1-.54.18h-2.82a1.15 1.15 0 0 1-.96-.36.67.67 0 0 1-.06-.66m3.54 7.5-.12 1.08a.6.6 0 0 1-.54.48h-1.26a.8.8 0 0 1-.48-.12.55.55 0 0 1-.3-.42 1.75 1.75 0 0 1 .24-1.44 2.1 2.1 0 0 1 1.2-.84.47.47 0 0 1 .48.12.69.69 0 0 1 .66.36c.09.25.13.515.12.78m.78-2.82a8 8 0 0 1 1.74.36q.268.104.48.3c.262.296.392.686.36 1.08l-.12 3.12a.79.79 0 0 1-.3.66.73.73 0 0 1-.54.18h-1.44a.913.913 0 0 1-1.02-.9 1.94 1.94 0 0 1 .3-1.56l.06-.06a.06.06 0 0 0 .06-.06v-.12a5.8 5.8 0 0 0-.244-2.286.48.48 0 0 1 .184-.654.45.45 0 0 1 .48-.06M63.263 167.235c1.135 2.763 2.952 3.937 5.98 3.937s4.845-1.25 4.845-3.331c0-1.817-.984-2.536-4.92-3.445-4.278-.984-5.602-1.438-6.851-2.233-2.082-1.325-3.066-3.18-3.066-5.791 0-5.148 3.633-8.29 9.992-8.29 4.202 0 7.57 1.515 10.069 4.846l-4.92 2.725c-1.59-2.196-3.218-2.801-5.111-2.801-2.838 0-4.239 1.06-4.239 2.914 0 1.703 1.173 2.498 4.693 3.18 3.672.757 5.64 1.4 7.117 2.309 2.119 1.4 3.141 3.368 3.141 6.207 0 5.45-3.823 8.479-10.674 8.479-5.678 0-9.16-2.007-11.28-6.473zm44.781 1.779c-.984 2.158-2.006 3.444-3.634 4.656-2.006 1.514-4.504 2.27-7.683 2.27-7.911 0-12.983-5.412-12.983-13.852 0-8.29 5.261-14.043 12.869-14.043 3.482 0 6.283.984 8.327 2.876 1.136 1.098 1.855 2.044 2.688 3.823l-5.337 2.196c-1.25-2.839-2.915-4.012-5.716-4.012-4.163 0-6.51 3.255-6.51 9.046 0 5.829 2.384 9.084 6.662 9.084 2.99 0 4.693-1.287 5.942-4.24zm8.52-1.779c1.135 2.763 2.952 3.937 5.98 3.937s4.845-1.25 4.845-3.331c0-1.817-.984-2.536-4.92-3.445-4.278-.984-5.602-1.438-6.851-2.233-2.082-1.325-3.066-3.18-3.066-5.791 0-5.148 3.633-8.29 9.992-8.29 4.202 0 7.57 1.515 10.069 4.846l-4.92 2.725c-1.59-2.196-3.219-2.801-5.111-2.801-2.839 0-4.24 1.06-4.24 2.914 0 1.703 1.174 2.498 4.694 3.18 3.672.757 5.64 1.4 7.116 2.309 2.12 1.4 3.142 3.368 3.142 6.207 0 5.45-3.823 8.479-10.674 8.479-5.678 0-9.16-2.007-11.28-6.473zm28.202-18.774v27.063h-6.056v-27.063zm-94.242-1.607q1.373 0 2.32.946.908.89.909 2.152 0 1.299-.91 2.208-.965.928-2.337.928-1.392 0-2.338-.946a2.98 2.98 0 0 1-.91-2.19q0-1.243.91-2.152.946-.946 2.356-.946m-2.801 28.76V155.74h5.584v19.872h-5.584z"/></svg>