<svg xmlns="http://www.w3.org/2000/svg" viewBox="0 0 192 192"><path d="M156.958 79.129a17.53 17.53 0 0 0-19.184-6.791l-.77.22a17.5 17.5 0 0 0-9.976 7.474l-3.019 4.03V57.839c0-12.86-6.135-25.154-16.41-32.885-17.259-12.985-41.62-12.13-57.924 2.035l-.74.643C37.328 37.718 31.008 52.503 32.01 67.21v96.954c0 6.565 5.341 11.907 11.906 11.907h80.188c6.565 0 11.906-5.342 11.906-11.907v-15.272l23.072-53.765.11-.285a17.58 17.58 0 0 0-2.233-15.714zm-32.855 88.943H43.915a3.91 3.91 0 0 1-3.906-3.907V152h88v12.165a3.91 3.91 0 0 1-3.906 3.907m27.56-75.946L129.403 144H40.01V67.072l-.01-.286c-.876-12.258 4.426-24.638 14.183-33.115l.74-.642c7.096-6.165 16.036-9.28 24.995-9.28 8.052 0 16.12 2.518 22.872 7.597 8.278 6.229 13.22 16.133 13.22 26.493v42.036L124 100l9.733-15.601a9.5 9.5 0 0 1 5.476-4.15l.77-.221a9.53 9.53 0 0 1 10.427 3.69 9.56 9.56 0 0 1 1.257 8.408"/></svg>