<svg xmlns="http://www.w3.org/2000/svg" viewBox="0 0 192 192"><path d="M164 38a12 12 0 0 0-4 .677v-2.195c0-7.624-5.047-13.157-12-13.157-1.723 0-3.328.342-4.769.969C141.576 19.295 137.36 16 132 16c-6.499 0-11.33 4.835-11.934 11.691a12 12 0 0 0-4.066-.703c-6.953 0-12 5.533-12 13.157v55.017l-10.296-9.417a14.96 14.96 0 0 0-9.993-3.817c-8.265 0-14.988 6.723-14.988 14.988 0 2.394.812 5.043 1.357 6.238.338.743 1.132 2.484 28.687 30.185a61 61 0 0 0 5.233 4.657V176h72V51.132C176 43.523 170.953 38 164 38m4 130h-56v-8h56zm0-27.132V152h-56v-16l-.005-2.098-1.721-1.193c-.026-.018-2.687-1.874-5.848-5.024-11.88-11.943-25.181-25.591-27.165-28.097-.226-.629-.538-1.867-.538-2.672a6.996 6.996 0 0 1 6.988-6.988 6.95 6.95 0 0 1 4.625 1.75L112 113.32V40.145c0-.862.193-5.157 4-5.157s4 4.295 4 5.157V84h8V29.157c0-.862.193-5.157 4-5.157s4 4.295 4 5.157V84h8V36.482c0-.861.193-5.157 4-5.157s4 4.296 4 5.157V84h8V51.132c0-1.204.289-5.132 4-5.132s4 3.928 4 5.132zM96.815 34.094C96.244 36.29 96 38.372 96 40v10.909L87.833 33.86c-.694-1.476-1.665-2.555-2.748-3.064-.967-.456-1.97-.425-3.068.091s-1.763 1.27-2.03 2.303c-.299 1.159-.09 2.594.592 4.043l13.972 29.75-7.24 3.4-20.202-43.01c-.682-1.452-1.657-2.536-2.746-3.05-.968-.457-1.972-.43-3.067.084s-1.756 1.269-2.023 2.307c-.299 1.166-.087 2.608.595 4.06l20.201 43.01-7.24 3.402-23.317-49.64c-.366-.78-2.363-4.587-5.813-2.967-3.445 1.618-1.794 5.588-1.428 6.367l4.671 9.944v.002l18.645 39.694-7.24 3.402-18.648-39.7c-.37-.787-2.368-4.581-5.81-2.962-1.095.514-1.756 1.27-2.023 2.307-.299 1.166-.087 2.608.595 4.06l31.11 66.234-30.62-9.53a6.95 6.95 0 0 0-4.931.384 6.94 6.94 0 0 0-3.603 3.953 6.94 6.94 0 0 0 .249 5.343c.342.729 1.151 1.716 1.623 2.19 2.86 1.424 20.703 8.123 36.533 13.883 4.2 1.507 7.397 2.056 7.428 2.06l2.065.35.897 1.896 6.339 13.496.41.857L96 141.011v8.896l-12.644 6.148 3.448 7.341L96 159.001v8.867l-13.012 6.22-16.169-34.423a62 62 0 0 1-6.716-1.99c-36.717-13.36-38.176-14.598-38.798-15.127-1.003-.85-2.863-2.902-3.88-5.069a14.9 14.9 0 0 1-.532-11.459 14.89 14.89 0 0 1 7.726-8.479 14.96 14.96 0 0 1 10.668-.793l13.322 4.146-23.39-49.798c-3.24-6.9-1.025-14.054 5.269-17.01a12 12 0 0 1 3.985-1.092c-.996-2.728-1.197-5.555-.545-8.094.859-3.35 3.12-6.035 6.37-7.562 4.853-2.279 10.07-1.087 13.695 2.735a12 12 0 0 1 3.903-2.906c3.249-1.527 6.76-1.553 9.886-.076 2.765 1.307 5.097 3.751 6.568 6.882l.929 1.978a12.2 12.2 0 0 1 3.337-2.304c3.248-1.525 6.755-1.558 9.875-.089 2.766 1.301 5.099 3.743 6.57 6.875l1.754 3.66z"/></svg>