<svg xmlns="http://www.w3.org/2000/svg" viewBox="0 0 192 192"><path d="m58.829 113.171 20 20-5.658 5.658-20-20zm6.342-6.342 20 20 5.658-5.658-20-20zm12-12 20 20 5.658-5.658-20-20zM42.83 121.17l28 28-5.658 5.658-3.174-3.175-10.047 9.977a8.05 8.05 0 0 1-5.71 2.358 8.07 8.07 0 0 1-5.727-2.367l-2.239-2.239-11.445 11.446-5.658-5.658 11.446-11.445-2.239-2.238c-3.155-3.157-3.155-8.292 0-11.448l9.968-10.037-3.175-3.174zm13.511 24.826L46.003 135.66l-9.958 10.027c-.057.057-.057.096-.009.144l5.067 5.066 5.066 5.067c.047.048.086.05.135 0zM161.657 56l-24 24 8 8L120 113.657 78.343 72 104 46.343l8 8 24-24 12 12L164 26l6 6-16.343 16zM132 85.657 106.343 60 104 57.657 89.657 72 120 102.343 134.343 88zM150.343 56 136 41.657 117.657 60 132 74.343z"/></svg>