<svg xmlns="http://www.w3.org/2000/svg" viewBox="0 0 192 192"><path d="M96.442 84.542h75.52q1.25 6.978 1.25 13.333 0 22.604-9.478 40.365-9.48 17.76-27.032 27.76-17.55 10-40.26 10-16.355 0-31.146-6.302t-25.52-17.031q-10.73-10.73-17.032-25.521c-6.302-14.791-6.302-20.243-6.302-31.146s2.1-21.285 6.302-31.146 9.879-18.368 17.031-25.52 15.66-12.83 25.521-17.032S85.54 16 96.442 16q31.25 0 53.646 20.938l-21.77 20.937q-12.814-12.396-31.876-12.396-13.437 0-24.844 6.771-11.406 6.77-18.073 18.385C46.858 82.25 46.86 86.833 46.86 96s2.222 17.622 6.666 25.365q6.668 11.614 18.073 18.385 11.406 6.77 24.844 6.77 9.063 0 16.667-2.5t12.5-6.25c4.895-3.75 6.11-5.346 8.541-8.54s4.22-6.216 5.365-9.063q1.719-4.272 2.344-8.125H96.442z"/></svg>