<svg xmlns="http://www.w3.org/2000/svg" viewBox="0 0 192 192"><path d="M96 176c-44.112 0-80-35.888-80-80s35.888-80 80-80 80 35.888 80 80-35.888 80-80 80m0-152c-39.701 0-72 32.299-72 72s32.299 72 72 72 72-32.299 72-72-32.299-72-72-72m41.003 66.24V78.573h-8.485V90.24H116.85v8.484h11.667v11.667h8.485V98.724h11.666V90.24zm-59.51 12.373h19.201q-.264 1.629-.99 3.435-.727 1.806-2.269 3.832c-1.542 2.026-2.231 2.554-3.611 3.611s-3.142 1.938-5.285 2.643q-3.215 1.056-7.047 1.057-5.68 0-10.503-2.863t-7.641-7.773q-2.82-4.911-2.819-10.724t2.819-10.724c2.819-4.911 4.426-5.865 7.64-7.773q4.824-2.863 10.504-2.863 8.06 0 13.477 5.24l9.204-8.851q-9.468-8.852-22.68-8.852-6.915 0-13.169 2.664c-6.254 2.664-7.766 4.177-10.79 7.2q-4.536 4.537-7.2 10.79-2.665 6.255-2.665 13.169t2.665 13.168q2.664 6.255 7.2 10.79 4.536 4.536 10.79 7.2 6.255 2.665 13.168 2.665 9.602 0 17.022-4.228t11.429-11.737c4.009-7.51 4.007-10.694 4.007-17.065q0-2.686-.528-5.638h-31.93v11.627z"/></svg>