<svg xmlns="http://www.w3.org/2000/svg" viewBox="0 0 192 192"><path d="M116.202 86.404c3.232 25.05-7.273 61.414-49.293 61.414C38.626 147.818 16 125.192 16 96.91S38.626 46 66.91 46c12.928 0 25.05 4.849 33.938 12.93-10.505 9.696-10.505 10.504-14.545 14.545-5.657-4.04-11.313-7.273-20.202-7.273-16.97 0-29.899 13.737-29.899 30.707s12.93 30.707 29.899 30.707c16.162 0 23.434-7.273 27.475-20.202H66.1V87.212s38.788 0 50.101-.808zm42.02-16.162h-12.93V88.02h-17.777v12.93h17.778v17.777h12.93V100.95H176V88.02h-17.778z"/></svg>