<svg xmlns="http://www.w3.org/2000/svg" viewBox="0 0 192 192"><path d="M172 144V76h-16v-4c0-6.617-5.383-12-12-12s-12 5.383-12 12v4h-8c0-14.081-10.45-25.763-24-27.71V40h29.657l-12-12 12-12H92v32.29C78.45 50.238 68 61.92 68 76h-8v-4c0-6.617-5.383-12-12-12s-12 5.383-12 12v4H20v68h-4v24h160v-24zm-32-72c0-2.206 1.794-4 4-4s4 1.794 4 4v4h-8zm-29.657-48-4 4 4 4H100v-8zM96 56c11.028 0 20 8.972 20 20H76c0-11.028 8.972-20 20-20M44 72c0-2.206 1.794-4 4-4s4 1.794 4 4v4h-8zM28 84h136v60H28zm140 76H24v-8h144zm-56-67.96c-6.617 0-12 5.384-12 12V136h24v-31.96c0-6.616-5.383-12-12-12m4 35.96h-8v-23.96c0-2.205 1.794-4 4-4s4 1.795 4 4zM48 92c-6.617 0-12 5.383-12 12v31.96h24V104c0-6.617-5.383-12-12-12m4 35.96h-8V104c0-2.206 1.794-4 4-4s4 1.794 4 4zm92-35.92c-6.617 0-12 5.384-12 12V136h24v-31.96c0-6.616-5.383-12-12-12m4 35.96h-8v-23.96c0-2.205 1.794-4 4-4s4 1.795 4 4zM80 92c-6.617 0-12 5.383-12 12v31.96h24V104c0-6.617-5.383-12-12-12m4 35.96h-8V104c0-2.206 1.794-4 4-4s4 1.794 4 4z"/></svg>