<svg xmlns="http://www.w3.org/2000/svg" viewBox="0 0 192 192"><path d="M128 136.4v-16.8c9.12-1.86 16-9.94 16-19.6 0-10.07-7.48-18.43-17.18-19.8A37.76 37.76 0 0 0 134 58c0-4.4-.75-8.62-2.13-12.55C134.45 42.34 136 38.34 136 34c0-9.93-8.07-18-18-18-4.91 0-9.36 1.98-12.61 5.18-3-.77-6.15-1.18-9.39-1.18s-6.39.41-9.39 1.18C83.36 17.98 78.91 16 74 16c-9.93 0-18 8.07-18 18 0 4.34 1.55 8.34 4.13 11.45A37.8 37.8 0 0 0 58 58c0 8.28 2.66 15.95 7.18 22.2C55.48 81.57 48 89.93 48 100c0 9.66 6.88 17.74 16 19.6v16.8c-9.12 1.86-16 9.94-16 19.6 0 10.69 8.44 19.42 19 19.95v.05h57c11.03 0 20-8.97 20-20 0-9.66-6.88-17.74-16-19.6m8-36.4c0 6.62-5.38 12-12 12s-12-5.38-12-12 5.38-12 12-12 12 5.38 12 12M64 34c0-5.52 4.48-10 10-10 4.716 0 8.244 3.168 9.46 6.76C89.32 28.025 94.699 28 96 28s6.68.025 12.54 2.76c.823-2.432 3.778-6.76 9.46-6.76 5.52 0 10 4.48 10 10 0 5.152-3.594 8.109-5.95 9.14A29.8 29.8 0 0 1 126 58c0 16.54-13.46 30-30 30S66 74.54 66 58c0-3.089.469-8.794 3.95-14.86C67.906 42.246 64 39.413 64 34m-8 66c0-6.62 5.38-12 12-12s12 5.38 12 12-5.38 12-12 12-12-5.38-12-12m12 68c-6.62 0-12-5.38-12-12s5.38-12 12-12 12 5.38 12 12-5.38 12-12 12m40.04 0H83.96c2.52-3.35 4.04-7.5 4.04-12 0-9.66-6.88-17.74-16-19.6v-16.8c9.12-1.86 16-9.94 16-19.6 0-1.72-.22-3.39-.63-4.98 2.77.64 5.66.98 8.63.98s5.86-.34 8.63-.98A20 20 0 0 0 104 100c0 9.66 6.88 17.74 16 19.6v16.8c-9.12 1.86-16 9.94-16 19.6 0 4.5 1.52 8.65 4.04 12m15.96 0c-6.62 0-12-5.38-12-12s5.38-12 12-12 12 5.38 12 12-5.38 12-12 12M80 52c0-2.403 1.998-4 4-4 1.957 0 4 1.559 4 4 0 2.21-1.79 4-4 4s-4-1.79-4-4m24 0c0-2.412 2.024-4 4-4 2.039 0 4 1.626 4 4 0 2.21-1.79 4-4 4s-4-1.79-4-4M90 64h12c2.21 0 4 1.79 4 4s-1.79 4-4 4h-2.05v4c0 2.21-1.79 4-4 4s-4-1.79-4-4v-4H90c-2.21 0-4-1.79-4-4s1.79-4 4-4"/></svg>