<svg xmlns="http://www.w3.org/2000/svg" viewBox="0 0 192 192"><path d="M76 91.969q-.33-.001-.648-.054a20.9 20.9 0 0 1 3.468-8.02l.025.074h34.336a20.9 20.9 0 0 1 3.421 8zm34.455-44.864A50.9 50.9 0 0 0 95.973 45a50.8 50.8 0 0 0-17.14 2.969H72a4 4 0 0 1-4-4v-12H24v24h8a4 4 0 0 1 4 4h23.894a51.4 51.4 0 0 0-6.52 8H32a4 4 0 0 1-4-4h-8a4 4 0 0 1-4-4v-32a4 4 0 0 1 4-4h4V20h8v3.969h125.058a4 4 0 0 1 3.53 2.118l4.92 9.23 4.275-4.274 5.656 5.657-5.996 5.997 5.397 10.124q.148.277.25.573c.557 1.607 1.749 7.128-6.294 10.669l-13.752 6.219c-.779.41-1.182 1.257-1.002 2.097l16.307 51.105q.05.16.088.323a9.85 9.85 0 0 1-1.912 8.38 9.95 9.95 0 0 1-4.45 3.181l-7.404-7.405 4.01-.01c.861 0 1.364-.471 1.588-.752.203-.255.512-.776.394-1.487l-16.287-51.04a4 4 0 0 1-.062-.217c-1.164-4.51 1.034-9.291 5.226-11.368l.127-.06 13.87-6.271c.972-.428 1.508-.791 1.79-1.025l-12.67-23.764H112v12a3.98 3.98 0 0 1-1.545 3.136M104 31.969H76v8h28zm68.578 140.663c-2.278 2.277-5.306 3.402-8.415 3.402-3.46 0-7.023-1.392-9.77-4.139l-40.265-40.264A39.8 39.8 0 0 1 95.973 136c-22.071 0-40.027-17.944-40.027-40s17.956-40 40.027-40c13.682 0 25.779 6.9 33 17.397A3.98 3.98 0 0 1 132 71.993c2.21 0 4 1.782 4 3.98 0 1.993-1.478 3.63-3.4 3.92A39.7 39.7 0 0 1 136 96a39.7 39.7 0 0 1-4.403 18.203l40.244 40.244c5.217 5.217 5.547 13.375.737 18.185M128 96c0-17.645-14.367-32-32.027-32S63.946 78.355 63.946 96s14.367 32 32.027 32S128 113.645 128 96m38.184 64.104-39.045-39.044a40.4 40.4 0 0 1-6.141 6.126l39.052 39.052c1.83 1.83 4.977 2.632 6.87.737 1.895-1.894 1.093-5.042-.736-6.871"/></svg>