<svg xmlns="http://www.w3.org/2000/svg" viewBox="0 0 192 192"><path d="m140.3 103.4 8.2-6.7c5.6-4.6 8.9-11.5 9-18.7 0-7.2-3-14.1-8.4-18.8l-31.6-33.3c-5.6-5.9-13.3-9.2-21.5-9.2S80.2 20 74.5 25.9L42.9 59.2c-5.4 4.7-8.5 11.6-8.4 18.8 0 7.3 3.4 14.1 9 18.7l8.2 6.7c-14.6 8.4-23.7 24-23.7 41.2V168h24v8h88v-8h24v-23.4c0-17.2-9.1-32.8-23.7-41.2M42.6 76.2c.4-4.3 2.4-8.3 5.7-11.1l32.1-33.8c4.1-4.3 9.7-6.7 15.6-6.7s11.5 2.4 15.6 6.7l31.8 33.5.3.3c3.3 2.8 5.3 6.8 5.7 11.1-15-11.8-33.7-18.1-53.4-18.1s-38.4 6.4-53.4 18.2ZM72.8 74c.5-1.8 1.1-3.5 2-5.2C81.6 66.9 88.7 66 96 66s14.4 1 21.2 2.8c.9 1.6 1.5 3.4 2 5.2H72.7Zm1.3 11c.6 5 5.5 9 11.4 9s8.7-2.4 10.5-5.9c1.8 3.5 5.8 5.9 10.5 5.9s10.9-4 11.4-9h1.5c-2.3 10.8-12 19-23.5 19s-21.2-8.2-23.5-19h1.5Zm57.9 83H60v-40h72zm24-8h-16v-40H52v40H36v-15.4c0-16.1 9.7-30.5 24.6-36.6l6.2-2.5-18.2-14.9c-1.8-1.5-3.2-3.3-4.3-5.3 6.2-5.4 13.2-9.8 20.7-12.9-.6 2.5-1 5.2-1 7.8 0 17.6 14.4 32 32 32s32-14.4 32-32-.3-5.3-1-7.8c7.5 3.2 14.5 7.5 20.7 12.9-1 2-2.5 3.9-4.3 5.4l-18.2 14.9 6.2 2.5c14.9 6.1 24.6 20.5 24.6 36.6v15.4Z"/><path d="m90.8 158.8 5.2-5.1 5.2 5.1 5.6-5.6-5.1-5.2 5.1-5.2-5.6-5.6-5.2 5.1-5.2-5.1-5.6 5.6 5.1 5.2-5.1 5.2z"/></svg>