<svg xmlns="http://www.w3.org/2000/svg" viewBox="0 0 192 192"><path d="m150.8 82.5 5.1-4.2c4.5-3.7 7.1-9.1 7.2-14.9 0-5.7-2.4-11.2-6.7-14.9l-23.9-25.2c-2.2-2.3-4.8-4.2-7.7-5.4s-6-1.9-9.2-1.9c-6.5 0-12.5 2.6-16.9 7.3L74.8 48.5c-4.3 3.8-6.7 9.2-6.7 14.9 0 5.8 2.7 11.2 7.2 14.9l5.1 4.2c-2.5 1.6-4.8 3.4-6.8 5.5h13.2c.8-.4 1.5-.8 2.3-1.1l6.2-2.5-15-12.3c-1-.9-1.9-1.9-2.6-3 4.2-3.6 8.9-6.5 14-8.8-.1.9-.2 1.8-.2 2.7 0 13.4 10.9 24.4 24.4 24.4s24.4-10.9 24.4-24.4 0-1.6-.1-2.4c4.8 2.2 9.2 5 13.2 8.3-.7 1.1-1.6 2.2-2.6 3.1l-15 12.3 6.2 2.5c10.9 4.5 18 15 18 26.8v14.7h8v-14.7c0-12.9-6.6-24.6-17.2-31.2ZM80.2 54.4l24.3-25.6c2.9-3.1 6.9-4.8 11.1-4.8s8.2 1.7 11.1 4.8l24 25.3.3.3c1.7 1.4 2.9 3.3 3.5 5.3-5.3-3.8-11.1-6.8-17.4-8.9l-1.7-.6c-6.4-2-13.1-3-19.9-3s-12.8.9-18.8 2.6l-1.7.5c-6.6 2.2-12.9 5.4-18.4 9.4.6-2.1 1.9-4 3.6-5.4Zm35.9 25c-9 0-16.4-7.3-16.4-16.4s.4-4 1.1-5.9c10-2.5 20.8-2.5 30.7.3.7 1.8 1 3.7 1 5.6 0 9-7.3 16.4-16.4 16.4M64.8 138.8l7.2-7.1 7.2 7.1 5.6-5.6-7.1-7.2 7.1-7.2-5.6-5.6-7.2 7.1-7.2-7.1-5.6 5.6 7.1 7.2-7.1 7.2z"/><path d="M67.8 96H24v64h36v8h-8v8h40v-8h-8v-8h36V96zm8.2 72h-8v-8h8zm36-64v48H32v-48z"/></svg>