<svg xmlns="http://www.w3.org/2000/svg" viewBox="0 0 192 192"><path d="M164 144.6c0-17.2-9.1-32.8-23.7-41.2l8.2-6.7c5.6-4.6 8.9-11.5 9-18.7 0-7.2-3-14.1-8.4-18.8l-31.6-33.3c-5.6-5.9-13.3-9.2-21.5-9.2S80.2 20 74.5 25.9L42.9 59.2c-5.4 4.7-8.5 11.6-8.4 18.8 0 7.3 3.4 14.1 9 18.7l8.2 6.7c-14.6 8.4-23.7 24-23.7 41.2V168h24v8h88v-8h24zM48.3 65.1l32.1-33.8c4.1-4.3 9.7-6.7 15.6-6.7s11.5 2.4 15.6 6.7l31.8 33.5.3.3c3.3 2.8 5.3 6.8 5.7 11.1-15-11.8-33.7-18.1-53.4-18.1s-38.4 6.4-53.4 18.2C43 72 45 68 48.3 65.2ZM120 80c0 13.2-10.8 24-24 24S72 93.2 72 80s1-7.7 2.8-11.2C81.6 66.9 88.7 66 96 66s14.4 1 21.2 2.8c1.8 3.4 2.8 7.3 2.8 11.2m12 88H60v-40h72zm24-8h-16v-40H52v40H36v-15.4c0-16.1 9.7-30.5 24.6-36.6l6.2-2.5-18.2-14.9c-1.8-1.5-3.2-3.3-4.3-5.3 6.2-5.4 13.2-9.8 20.7-12.9-.6 2.5-1 5.2-1 7.8 0 17.6 14.4 32 32 32s32-14.4 32-32-.3-5.3-1-7.8c7.5 3.2 14.5 7.5 20.7 12.9-1 2-2.5 3.9-4.3 5.4l-18.2 14.9 6.2 2.5c14.9 6.1 24.6 20.5 24.6 36.6v15.4Z"/><path d="m90.8 158.8 5.2-5.1 5.2 5.1 5.6-5.6-5.1-5.2 5.1-5.2-5.6-5.6-5.2 5.1-5.2-5.1-5.6 5.6 5.1 5.2-5.1 5.2z"/></svg>