<svg xmlns="http://www.w3.org/2000/svg" viewBox="0 0 192 192"><path d="M85.65 37.64 88.18 32H20v48.19l6.03-.28L16.08 160h20.5L48 145.38v-70.7c16.57-7.08 30.06-20.14 37.65-37.04M75.48 40c-8.61 15.07-22.83 25.96-39.59 30.38l7.99-7.45-5.46-5.85L28 66.8V40zM40 142.62 32.68 152h-7.54l9.06-72.95 5.8-1.02zM166.05 79.9l5.95.29V32h-68.18l2.53 5.64c7.59 16.9 21.08 29.96 37.65 37.04v70.71L155.51 160H176zM116.52 40H164v28.21l-10.23-10.94-5.85 5.46 6.79 7.27c-16.16-4.65-29.83-15.35-38.19-30M152 142.61v-64.1l5.9.71 9.04 72.78h-7.55zm-68.83 1.55c2.3-2.33 3.72-5.52 3.72-9.04 0-7.11-5.78-12.89-12.89-12.89S61.11 128 61.11 135.11c0 3.48 1.39 6.64 3.64 8.96C59.52 147.3 56 153.22 56 160h8c0-5.9 4.29-10.52 9.78-10.52C79.32 149.48 84 154.3 84 160h8c0-6.72-3.55-12.6-8.83-15.84M74 130.22a4.89 4.89 0 1 1-.002 9.782A4.89 4.89 0 0 1 74 130.22m53.17 13.94c2.3-2.33 3.72-5.52 3.72-9.04 0-7.11-5.78-12.89-12.89-12.89s-12.89 5.78-12.89 12.89c0 3.48 1.39 6.64 3.64 8.96-5.23 3.23-8.75 9.15-8.75 15.93h8c0-5.9 4.29-10.52 9.78-10.52 5.54 0 10.22 4.82 10.22 10.52h8c0-6.73-3.55-12.61-8.83-15.85M118 130.22a4.89 4.89 0 1 1-.002 9.782 4.89 4.89 0 0 1 .002-9.782m-34.83-30.06c2.3-2.33 3.72-5.52 3.72-9.04 0-7.11-5.78-12.89-12.89-12.89S61.11 84 61.11 91.11c0 3.48 1.39 6.64 3.64 8.96C59.52 103.3 56 109.22 56 116h8c0-5.9 4.29-10.52 9.78-10.52C79.32 105.48 84 110.3 84 116h8c0-6.72-3.55-12.6-8.83-15.84M74 86.22a4.89 4.89 0 1 1-.002 9.782A4.89 4.89 0 0 1 74 86.22m53.17 13.94c2.3-2.33 3.72-5.52 3.72-9.04 0-7.11-5.78-12.89-12.89-12.89S105.11 84 105.11 91.11c0 3.48 1.39 6.64 3.64 8.96-5.23 3.23-8.75 9.15-8.75 15.93h8c0-5.9 4.29-10.52 9.78-10.52 5.54 0 10.22 4.82 10.22 10.52h8c0-6.72-3.55-12.6-8.83-15.84M118 86.22a4.89 4.89 0 1 1-.002 9.782A4.89 4.89 0 0 1 118 86.22"/></svg>