<svg xmlns="http://www.w3.org/2000/svg" viewBox="0 0 192 192"><path fill="#1a1a18" d="M71.985 122.058q.015-.174.015-.35V71.38c0-6.635-4.415-8.044-6.786-8.802-.485-.155-.944-.301-1.358-.473-1.904-.79-2.478-1.028-3.661-4.233-.358-.967-.608-1.876-.85-2.754-.733-2.662-1.961-7.116-7.345-7.116s-6.611 4.455-7.345 7.116c-.242.878-.492 1.787-.851 2.756-1.183 3.204-1.757 3.442-3.661 4.231-.414.172-.872.318-1.357.473C36.414 63.336 32 64.745 32 71.38v50.328q0 .176.015.35l.874 9.942H16v8h12v16h4v20h8v-20h24v20h8v-20h4v-16h12v-8H71.111zM40 121.532V72h24v49.532L63.08 132H56v-20a4 4 0 0 0 0-8h-8a4 4 0 0 0 0 8v20h-7.08zM68 148H36v-8h32zm72-84v16h-8V64zM64 40H40l12-24zm72.162 0-12-24h24zm26.755 104.045-5.241-16.046h14.159v-8H156V47.998h-40v72.001h-15.838v8h14.414l-5.455 16.044c-7.309.458-13.12 6.533-13.12 13.955v18h79.998v-18c0-7.41-5.79-13.477-13.082-13.953M124 55.999h24v64h-24zM149.26 128l5.226 15.999h-36.9l5.44-15.999zm18.739 39.999h-63.998v-10c0-3.309 2.691-6 6-6h51.998c3.309 0 6 2.691 6 6z"/></svg>