<svg xmlns="http://www.w3.org/2000/svg" viewBox="0 0 192 192"><path fill="#1a1a18" d="M88 132H71.111l.874-9.942q.015-.174.015-.35V71.38c0-6.635-4.415-8.044-6.786-8.802-.485-.155-.944-.301-1.358-.473-1.904-.79-2.478-1.028-3.661-4.233-.358-.967-.608-1.876-.85-2.754-.733-2.662-1.961-7.116-7.345-7.116s-6.611 4.455-7.345 7.116c-.242.878-.492 1.787-.851 2.756-1.183 3.204-1.757 3.442-3.661 4.231-.414.172-.872.318-1.357.473C36.414 63.336 32 64.745 32 71.38v50.328q0 .176.015.35l.874 9.942H16v8h12v16h4v20h8v-20h24v20h8v-20h4v-16h12zm-48-10.468V72h24v49.532L63.08 132H56v-20a4 4 0 0 0 0-8h-8a4 4 0 0 0 0 8v20h-7.08zM68 148H36v-8h32zm92-16V48h-40v84h-16v8h12v16h4v20h8v-20h24v20h8v-20h4v-16h12v-8zm-16.001-40.053h-8v-24h8zM52 16l12 24H40zm88 24-12-24h24z"/></svg>