<svg xmlns="http://www.w3.org/2000/svg" viewBox="0 0 192 192"><path fill="#1d1d1b" d="M176.118 64h-30.326l-8-8h-32l-4-4H42.558c-5.7 0-10.648 4.057-11.766 9.647l-6.643 33.208L16 115.23V128c0 6.618 5.383 12 12 12h31.05l3.865-12h2.233l4.135 12h13.852c7.168 0 13-5.831 13-13v-2.443a14.9 14.9 0 0 0-3.776-9.952l3.21-23.897 8.566-3.969V126c0 5.513 4.487 10 10 10h4c5.514 0 10-4.487 10-10V80h9.658l8-8h30.326zm-41.64 8h-14.344v54c0 1.084-.916 2-2 2h-4c-1.084 0-2-.916-2-2V86.738a7.97 7.97 0 0 0-3.693-6.742 7.96 7.96 0 0 0-7.67-.517l-12.548 5.814-4.316 32.135 2.177 2.178a6.96 6.96 0 0 1 2.05 4.95V127c0 2.757-2.243 5-5 5h-8.147l-4.135-12H57.086l-3.866 12H28c-2.206 0-4-1.794-4-4v-11.23l7.85-19.626 6.785-33.928A4.01 4.01 0 0 1 42.558 60h55.92l4 4h32l4 4zm-67.45-4H55.732a5.98 5.98 0 0 0-5.713 4.166l-8.988 27.998a6.02 6.02 0 0 0 .863 5.37A6.02 6.02 0 0 0 46.743 108h11.774a5.965 5.965 0 0 0 5.741-4.255l8.51-28a6.03 6.03 0 0 0-.92-5.319A6.03 6.03 0 0 0 67.028 68m-9.992 32h-7.551l7.705-24h7.14z"/></svg>