<svg xmlns="http://www.w3.org/2000/svg" viewBox="0 0 192 192"><path d="M148 64a11.9 11.9 0 0 0-4 .7V56c0-6.617-5.383-12-12-12a11.9 11.9 0 0 0-4 .7V44c0-6.617-5.383-12-12-12s-12 5.383-12 12v4.7a11.9 11.9 0 0 0-4.001-.7c-6.617 0-12 5.383-12 12v48.126c-3.593-4.823-7.504-10.013-8.953-11.717-4.409-5.187-10.776-6.956-16.225-4.513-5.524 2.479-7.445 8.275-7.646 8.928l-.439 1.427 21.425 48.451C83.387 166.07 99.024 176 116 176c24.261 0 44-19.738 44-44l.001-22V76c0-6.617-5.383-12-12-12zm4 46-.001 22c0 19.85-16.15 36-36 36-13.89 0-26.686-8.126-32.56-20.618L63.367 101.99c.519-.946 1.415-2.205 2.73-2.795 2.57-1.153 5.226.482 6.854 2.397 2.155 2.535 11.168 14.699 15.633 20.777l1.195 1.626 6.22.016V60c0-2.206 1.794-4 4-4s4 1.794 4 4v40h8V84H112V44c0-2.206 1.794-4 4-4s4 1.794 4 4v56h8V56c0-2.206 1.794-4 4-4s4 1.794 4 4v44h8V76c0-2.206 1.794-4 4-4s4 1.794 4 4zM53.913 88.415a24.1 24.1 0 0 0-4.808 6.394C38.232 86.404 32 73.759 32 60c0-24.262 19.738-44 44-44a43.8 43.8 0 0 1 29.262 11.155 20.1 20.1 0 0 0-5.766 5.57C92.962 27.084 84.686 24 76 24c-19.851 0-36 16.15-36 36 0 11.221 5.068 21.537 13.913 28.415m41.921-48.18-.28.28a19.9 19.9 0 0 0-7.545 3.517A19.83 19.83 0 0 0 75.999 40c-11.027 0-20 8.972-20 20s8.973 20 20 20c1.35 0 2.69-.14 4.001-.406v7.043c-5.64-3.77-12.446-4.904-18.633-2.776C53.354 78.929 48 70.079 48 60c0-15.44 12.56-28 28-28 7.497 0 14.541 2.925 19.834 8.236z"/></svg>