<svg xmlns="http://www.w3.org/2000/svg" viewBox="0 0 192 192"><path d="M80 176H44v-22.918l-28-48V32h12.012c6.616 0 12 5.383 12 12v43.813l3.87 5.945c1.225-1.92 2.89-3.647 4.883-5.038l10.29-7.408 2.29 3.496c.19.29 18.992 28.983 21.757 32.877 3.83 5.393 4 11.8 2.469 15.758-.778 2.01-3.701 12.322-5.571 19.098zm-28-8h20v-16.54l.144-.522c.484-1.76 4.768-17.283 5.965-20.38.633-1.637.576-5.275-1.53-8.242-2.283-3.215-14.467-21.755-19.633-29.629l-3.555 2.56c-2.347 1.638-5 5.037-3.294 8.06l17.256 26.51-6.706 4.365-16.867-25.914-.002.001q-.262-.376-.495-.765L32.012 90.187V44c0-2.206-1.795-4-4-4H24v62.918l28 48zm96 8h-36v-23.459c-1.87-6.776-4.793-17.088-5.57-19.099-1.531-3.957-1.361-10.364 2.469-15.758 2.764-3.893 21.565-32.587 21.755-32.876l2.306-3.52 10.61 7.748c1.923 1.341 3.47 2.922 4.614 4.638L152 87.812V44c0-6.617 5.383-12 12-12h12v73.082l-28 48zm-28-8h20v-17.082l28-48V40h-4c-2.206 0-4 1.794-4 4v46.188l-11.1 17.046q-.286.498-.625.983l-.01-.008-16.913 25.974-6.704-4.366 17.392-26.709c1.633-3.087-1.123-6.17-3.118-7.562l-3.883-2.835c-5.175 7.886-17.337 26.393-19.617 29.604-2.107 2.968-2.164 6.606-1.53 8.242 1.196 3.098 5.48 18.622 5.964 20.381l.144.521zM88.795 31.856a.76.76 0 0 0 .63.237h1.85a.52.52 0 0 0 .354-.119c.118-.118.118-.236.158-.275a1.6 1.6 0 0 0-.04-.748l.04-.079a.43.43 0 0 0 0-.315.6.6 0 0 0-.236-.197 8.2 8.2 0 0 0-1.693-.157 1.11 1.11 0 0 0-.945.354 1.04 1.04 0 0 0-.157.866.44.44 0 0 0 .039.433M91 35.833a.45.45 0 0 0-.433-.237.31.31 0 0 0-.315-.078c-.32.083-.6.279-.788.55a1.15 1.15 0 0 0-.157.945c.015.12.089.223.197.276a.53.53 0 0 0 .315.079h.826a.394.394 0 0 0 .355-.315l.078-.709a1.4 1.4 0 0 0-.078-.511m.275-1.3a.315.315 0 0 0-.118.433c.151.484.205.992.158 1.496v.08a.04.04 0 0 1-.04.038l-.04.04c-.208.297-.28.67-.196 1.023a.6.6 0 0 0 .67.59h.944a.47.47 0 0 0 .354-.117.52.52 0 0 0 .197-.433l.079-2.047a.95.95 0 0 0-.236-.709 1 1 0 0 0-.315-.197q-.558-.181-1.142-.236a.3.3 0 0 0-.315.04zM96 15.916c-21 0-38.085 17.085-38.085 38.085S75 92.086 96 92.086 134.085 75 134.085 54 117 15.916 96 15.916m0 68.17C79.411 84.086 65.915 70.59 65.915 54c0-8.46 3.515-16.109 9.154-21.58l-.919 1.443.709 1.732a4.66 4.66 0 0 0-.118 2.087.27.27 0 0 0 .157.236.42.42 0 0 0 .315.04 5.5 5.5 0 0 0 2.677-1.812c.264-.39.476-.814.63-1.26a6 6 0 0 1 .394-.865q.375-.6.827-1.142c.236-.276.472-.59.708-.905.399-.633.728-1.306.984-2.008l.197-.433-.787-1.181-1.03.309a30 30 0 0 1 8.253-3.676l.335 1.398c-.04.04-.04.08-.078.118a1.4 1.4 0 0 1-.315.355q-.225.141-.473.236h-.04q-1.022.369-1.967.905a4.4 4.4 0 0 0-1.3.985 2 2 0 0 0-.472 1.692c.049.157.19.267.354.276a18.2 18.2 0 0 0 5.59-1.024 12.6 12.6 0 0 0 2.835-1.299q.266-.164.512-.354c.125.298.33.557.59.748a.47.47 0 0 0 .394.04.4.4 0 0 0 .197-.316c0-.315.393-.59.787-.669q.332-.05.67-.04c.332.02.665-.02.983-.117.276-.079.473-.197.709-.276q.285-.143.59-.236a3.4 3.4 0 0 1 .906-.079h.157a13.6 13.6 0 0 0 3.78-.63 1.3 1.3 0 0 0 .472-.236q.17-.13.276-.315l.286-1.188a30 30 0 0 1 5.722 2.202l-.89.836c-1.3.158-2.166 1.181-3.071 2.205a10 10 0 0 1-1.575 1.575.4.4 0 0 0-.157-.197c-2.717-1.654-6.653-1.024-8.74 1.378a2.3 2.3 0 0 0-.63 1.18c-.005.42.075.835.236 1.221.04.079.08.197.119.276a3.6 3.6 0 0 1-.04 2.401l-4.92 1.575a.35.35 0 0 0-.237.236.31.31 0 0 0 .079.315.91.91 0 0 1 .118.984c-.12.343-.399.607-.748.709q-.256.03-.512 0h-.512a2.15 2.15 0 0 0-.708 4.094c1.378.63 2.834-.354 3.937-1.3 1.26-1.062 2.243-1.456 2.991-1.22.04.63.552 1.103.985 1.496a.7.7 0 0 0 .196.158c.268.239.413.586.394.945a.4.4 0 0 1-.118.197.3.3 0 0 0-.197.354.335.335 0 0 0 .276.315 3.84 3.84 0 0 0 1.771.04 1.78 1.78 0 0 0 .984-.71c.205.484.499.925.867 1.3.511.472 1.377.826 2.125.433.31-.157.548-.424.67-.748.287.133.592.225.905.275.118 0 .236.04.354.04.46-.02.914.103 1.3.354.2.17.326.409.354.67.078.865-.866 1.574-1.772 1.731-.589.06-1.182.06-1.771 0a9 9 0 0 0-1.457-.04 6 6 0 0 0-.827.08c-.748.078-1.496.197-2.086-.118a3.6 3.6 0 0 1-.905-.827 3.5 3.5 0 0 0-1.182-.984l.434-.788a.295.295 0 0 0 0-.354.31.31 0 0 0-.315-.197l-7.913-.393-.04-.158a.6.6 0 0 0-.078-.275.394.394 0 0 0-.433-.197.35.35 0 0 0-.237.393l.04.118c0 .08-.118.158-.197.197q-.211.074-.433.079-.243.03-.472.118c-.71.236-1.103.827-1.457 1.378-.197.276-.354.551-.551.787a3.9 3.9 0 0 1-.906.67c-.458.258-.87.59-1.22.984a4.8 4.8 0 0 0-.67 1.535l-.039.118c-.118.473-.275.906-.433 1.378a18.6 18.6 0 0 0-.984 4.134c-.157 1.771.354 4.094 2.126 5.314 1.299.866 2.913.906 4.448.945 1.457.04 2.796.04 3.898.709l.157.866a.335.335 0 0 0 .276.275l.866.197a4.37 4.37 0 0 0 .748 4.645l.157.158c.167.14.302.314.394.512.072.242.098.496.079.748a23.3 23.3 0 0 0 1.26 8.542q.044.09.118.158l1.614 1.693h3.936l2.756-.788.315-1.417q.459-.302.866-.67a13.5 13.5 0 0 0 1.3-1.298l5.196-5.433a.26.26 0 0 0 .078-.276.4.4 0 0 0-.157-.275c-.512-.315-.59-1.063-.433-1.614.228-.626.576-1.2 1.024-1.693l.078-.118a34 34 0 0 0 3.465-5.393c.59-1.142 1.102-2.362 1.023-3.622a.4.4 0 0 0-.157-.276c-.08-.04-.118-.079-.197-.079h-.079a5.4 5.4 0 0 0-1.456.67c-.591.354-1.182.708-1.772.59a2.34 2.34 0 0 1-1.3-.945 34 34 0 0 1-3.897-5.275c-.433-.708-.59-1.26-.511-1.653 1.417 1.023 2.952 2.165 3.818 3.74q.174.366.394.708c.227.52.518 1.01.866 1.457.59.708 1.614 1.26 2.559.905a3.24 3.24 0 0 0 1.496-1.496c.118-.157.197-.315.315-.472a4.33 4.33 0 0 1 3.78-1.772.6.6 0 0 0 .275-.078.36.36 0 0 0 .118-.276q.06-3.012-1.654-3.543a3.15 3.15 0 0 0-1.81.118c-.512.118-.985.276-1.378.158-.748-.197-1.103-1.103-1.339-1.93.433-.039.866.197 1.378.394.398.203.822.349 1.26.433a5.1 5.1 0 0 0 2.047-.196c.67-.158 1.338-.315 1.929-.119 1.18.355 1.732 1.811 2.165 3.11l.04.08c.275.786 1.062 2.558 2.519 2.952l1.66-.177C124.362 72.244 111.538 84.086 96 84.086"/></svg>