<svg xmlns="http://www.w3.org/2000/svg" viewBox="0 0 192 192"><path d="M142 40c-2.149 0-4.178.501-6 1.37V38c0-7.72-6.28-14-14-14-2.418 0-4.695.617-6.682 1.7-1.82-5.62-7.098-9.7-13.318-9.7-7.512 0-13.644 5.952-13.969 13.385A13.9 13.9 0 0 0 82 28c-7.72 0-14 6.28-14 14v59.938l-9.092-9.628-.24-.235A15.97 15.97 0 0 0 48 88c-8.822 0-16 7.178-16 16 0 2.553.866 5.38 1.449 6.66.891 1.956 15.854 22.614 28.27 39.63C69.727 162.277 82.686 176 112 176c24.262 0 44-19.738 44-44V54c0-7.72-6.28-14-14-14m6 92c0 19.85-16.15 36-36 36-25.43 0-36.347-11.232-43.672-22.219l-.097-.139c-9.905-13.574-26.009-35.819-27.544-38.397-.263-.64-.687-2.22-.687-3.245 0-4.411 3.589-8 8-8 1.921 0 3.769.687 5.219 1.937L76 122.063V42c0-3.309 2.691-6 6-6s6 2.691 6 6v50h8V30c0-3.309 2.691-6 6-6s6 2.691 6 6v62h8V38c0-3.309 2.691-6 6-6s6 2.691 6 6v54h8V54c0-3.309 2.691-6 6-6s6 2.691 6 6z"/></svg>