<svg xmlns="http://www.w3.org/2000/svg" viewBox="0 0 192 192"><path d="m162.551 107.674-55.154 55.155c-8.31 8.31-19.36 12.887-31.113 12.887s-22.802-4.577-31.113-12.887c-20.73-20.73-20.188-39.597-17.374-53.734 3.252-20.812 7.28-46 8.033-48.014.49-1.313 1.878-3.925 3.685-5.733a15.9 15.9 0 0 1 11.314-4.686c4.273 0 8.291 1.664 11.313 4.687a15.97 15.97 0 0 1 4.662 10.424l.01.167-.385 13.406L76.69 69.084a23.4 23.4 0 0 0 8.565 2.75l-27.4 27.4.952-33.17a7.98 7.98 0 0 0-2.322-5.059 7.95 7.95 0 0 0-5.656-2.343 7.95 7.95 0 0 0-5.657 2.343c-.727.726-1.543 2.142-1.81 2.78-.736 2.903-5.08 30.024-7.674 46.628l-.03.167c-2.589 12.948-2.811 28.61 15.17 46.591 6.8 6.8 15.84 10.545 25.456 10.545s18.656-3.745 25.456-10.545l55.154-55.154a6.006 6.006 0 0 0 0-8.485 5.96 5.96 0 0 0-4.242-1.758 5.96 5.96 0 0 0-4.243 1.758l-26.87 26.87-5.657-5.657 38.184-38.184a6.006 6.006 0 0 0 0-8.485 6.005 6.005 0 0 0-8.485 0l-35.756 35.757c-1.005-2.752-2.275-5.335-3.636-7.68l39.392-39.39a6.006 6.006 0 0 0 0-8.486 6.005 6.005 0 0 0-8.485 0L99.08 86.293a51 51 0 0 0-2.712-2.894l-2.789-2.714-.104-.101 29.478-29.479a6.006 6.006 0 0 0 0-8.484 6.005 6.005 0 0 0-8.485 0l-2.56 2.56c-.239-3.193-.98-6.28-2.026-9.184 5.493-4.47 13.613-4.148 18.728.966a13.9 13.9 0 0 1 3.292 5.238c5.486-5.019 14.025-4.89 19.336.42 4.398 4.397 5.246 11.015 2.557 16.276a13.9 13.9 0 0 1 5.928 3.522c5.459 5.459 5.459 14.34 0 19.8l-2.377 2.376a13.9 13.9 0 0 1 5.205 3.28c5.459 5.459 5.459 14.34 0 19.8zM72 47.352c0-13.213 12.671-25.694 13.21-26.219L88 18.42l2.79 2.714c.539.525 13.21 13.006 13.21 26.219C104 56.532 96.822 64 88 64s-16-7.468-16-16.648m8 0C80 52.12 83.589 56 88 56s8-3.88 8-8.648c0-6.235-4.51-13.153-7.99-17.39C84.815 33.835 80 40.76 80 47.352m8 39.067 2.79 2.714c.539.525 13.21 13.006 13.21 26.219 0 9.18-7.178 16.648-16 16.648s-16-7.468-16-16.648c0-13.213 12.671-25.694 13.21-26.219L88 86.42zm.01 11.543c-3.196 3.873-8.01 10.799-8.01 17.39 0 4.768 3.589 8.648 8 8.648s8-3.88 8-8.648c0-6.235-4.51-13.153-7.99-17.39"/></svg>