<svg xmlns="http://www.w3.org/2000/svg" viewBox="0 0 192 192"><path d="M29.171 38.83 24.001 36l5.17-2.828L32.001 28l2.828 5.17L40 36.002l-5.17 2.828L32 44zM23.924 52l1.415-2.585L27.924 48l-2.585-1.415L23.924 44l-1.415 2.585L19.924 48l2.585 1.415zm152.075 2v78c0 24.262-19.738 44-44 44-29.315 0-42.274-13.724-50.28-25.71-12.417-17.016-27.38-37.674-28.271-39.63-.583-1.28-1.449-4.107-1.449-6.66 0-1.383.195-2.719.527-4H48V81.673c-12.138 4.38-17.652 9.483-17.714 9.541l-5.487-5.822c.324-.305 7.636-7.073 23.201-12.177V28.008L51.992 28c.364 0 35.512-.113 57.174-3.578 2.16-4.95 7.096-8.422 12.833-8.422 6.22 0 11.499 4.08 13.318 9.7a13.9 13.9 0 0 1 6.682-1.7c7.72 0 14 6.28 14 14v3.37a13.9 13.9 0 0 1 6-1.37c7.72 0 14 6.28 14 14M56 92h1.452c2.819-2.481 6.505-4 10.547-4 3.943 0 7.732 1.447 10.668 4.075l.24.235L88 101.938V42c0-2.74.803-5.29 2.168-7.45C76.364 35.582 62.606 35.88 56 35.966zm111.999-38c0-3.309-2.691-6-6-6s-6 2.691-6 6v38h-8V38c0-3.309-2.691-6-6-6s-6 2.691-6 6v54h-8V30c0-3.309-2.691-6-6-6s-6 2.691-6 6v62H108V42c0-3.309-2.691-6-6-6s-6 2.691-6 6v80.063L73.218 97.936A7.98 7.98 0 0 0 67.999 96c-4.411 0-8 3.589-8 8 0 1.026.424 2.604.687 3.245 1.535 2.578 17.64 24.823 27.544 38.397l.097.14C95.652 156.767 106.568 168 132 168c19.85 0 36-16.15 36-36V54zm-128.97 5.237c-13.698 3.43-22.173 11.695-22.527 12.045l5.625 5.689c.071-.07 7.248-7.07 18.845-9.973l-1.943-7.76z"/></svg>