<svg xmlns="http://www.w3.org/2000/svg" viewBox="0 0 192 192"><path d="m175.609 88.81-.505-2.69-2.69-.504c-.827-.155-20.366-3.653-31.94 7.895-7.663 7.644-5.434 17.61-2.246 23.714L128 127.66V59h-8v63.945c-3.634-1.043-8.947-2.925-14.194-6.083-11.83-7.12-17.822-17.196-17.807-29.945.022-18.81 10.334-35.02 18.981-45.307 6.773-8.059 13.627-13.864 17.085-16.59 3.453 2.735 10.292 8.557 17.046 16.63 11.366 13.59 16.187 25.916 17.967 35.624a57 57 0 0 1 8.081-.22c-2.238-13.705-9.051-27.6-20.05-40.702-10.202-12.151-20.31-19.324-20.735-19.623l-2.297-1.617-2.3 1.612c-.426.298-10.55 7.446-20.781 19.573C87.28 52.555 80.02 70.056 79.999 86.907c-.037 31.356 29.894 41.702 40.001 44.3V152h-18.965l-2.79-1.546a15.1 15.1 0 0 0 2.929-3.119l6.317-8.53-4.027-2.201c-.851-.465-20.876-11.412-24.6-13.404l-.158-.085c-3.361-1.8-5.79-3.099-10.73-3.099-4.104 0-13.555 2.98-16.623 3.984H39.3c-1.653-4.653-6.087-8-11.3-8-6.617 0-12 5.383-12 12v24c0 6.617 5.383 12 12 12 5.213 0 9.647-3.347 11.3-8h11.663l36 20H144v-13.838c0-5.603-4.486-10.162-10-10.162h-6v-12.912l15.876-16.197c3.062 1.603 7.107 2.974 11.353 2.974 4.22 0 8.633-1.353 12.463-5.174 11.58-11.552 8.072-31.057 7.917-31.882zM32 152c0 2.206-1.794 4-4 4s-4-1.794-4-4v-24c0-2.206 1.794-4 4-4s4 1.794 4 4zm102 8c1.14 0 2 .93 2 2.162V168H89.037l-36-20H40v-16h12.644l.615-.205c4.714-1.569 12.397-3.779 14.717-3.779 2.934 0 3.947.543 6.954 2.152l.16.085c2.678 1.433 14.261 7.756 20.508 11.169l-.96 1.298c-.693 1-3.247 4.094-6.958 1.865l-.006.01-17.77-9.85-3.878 6.996L98.966 160zm28.042-44.973c-2.68 2.675-5.999 3.465-10.143 2.414a18 18 0 0 1-2.041-.653l9.549-9.743-5.713-5.6-9.427 9.618a18 18 0 0 1-.56-1.791c-1.05-4.125-.26-7.428 2.417-10.097 6.38-6.365 16.931-6.427 21.967-6.029.409 5.02.358 15.49-6.05 21.881z"/></svg>