<svg xmlns="http://www.w3.org/2000/svg" viewBox="0 0 192 192"><path d="M134 32c-7.72 0-14 6.28-14 14v15.37a13.9 13.9 0 0 0-6-1.37c-3.916 0-7.457 1.62-10 4.22A13.95 13.95 0 0 0 94 60c-2.146 0-4.18.485-6 1.352V34c0-7.72-6.28-14-14-14s-14 6.28-14 14v52.235c-2.717 1.064-5.381 2.137-7.625 3.11-4.47 1.987-7.643 5.426-9.174 9.947-2.368 6.993-.275 14.888 2.252 19.558 1.06 2.118 4.19 8.341 10.347 16.55 4.563 6.084 18.45 24.6 48.2 24.6 24.262 0 44-19.738 44-44V46c0-7.72-6.28-14-14-14m-20 36c3.309 0 6 2.691 6 6v11c0 3.309-2.691 6-6 6s-6-2.691-6-6V74c0-3.309 2.691-6 6-6m-20 0c3.309 0 6 2.691 6 6v11c0 2.85-1.998 5.236-4.665 5.845a13.9 13.9 0 0 0-1.965-5A14.6 14.6 0 0 0 88 80.83V74c0-3.309 2.691-6 6-6M68 34c0-3.309 2.691-6 6-6s6 2.691 6 6v45.19a15 15 0 0 0-4.55 1.123c-.963.404-3.263 1.273-5.925 2.278L68 83.167zm72 82c0 19.85-16.15 36-36 36-6.369 0-25.75 0-41.8-21.4-5.783-7.711-8.673-13.49-9.622-15.39l-.066-.126c-1.908-3.497-3.184-8.943-1.734-13.225.819-2.416 2.404-4.118 4.813-5.19 4.767-2.065 11.699-4.683 16.76-6.594 2.85-1.075 5.101-1.926 6.2-2.388 2.55-1.071 6.037-.726 8.08 2.468a6.01 6.01 0 0 1-1.562 8.111L65.482 106.3l3.036 7.402 20.297-8.325.304-.194a13.9 13.9 0 0 0 5.285-6.202 13.95 13.95 0 0 0 9.596-4.2 13.95 13.95 0 0 0 10 4.22c7.72 0 14-6.28 14-14V46c0-3.309 2.691-6 6-6s6 2.691 6 6z"/></svg>