<svg xmlns="http://www.w3.org/2000/svg" viewBox="0 0 192 192"><path d="M162.128 36.233c-18.171-18.17-47.49-18.538-66.128-1.129-18.638-17.409-47.957-17.041-66.128 1.129-15.261 15.261-18.238 38.925-7.604 57.387-4.694 5.845-4.335 14.435 1.086 19.855a14.86 14.86 0 0 0 10.536 4.356c.183 0 .365-.019.548-.026-.146 3.996 1.287 8.04 4.331 11.084a14.85 14.85 0 0 0 10.536 4.357c.181 0 .361-.019.542-.026-.007.183-.027.364-.027.548a14.8 14.8 0 0 0 4.364 10.535 14.8 14.8 0 0 0 10.536 4.364c.184 0 .365-.02.548-.027-.144 3.994 1.289 8.036 4.332 11.078a14.86 14.86 0 0 0 10.536 4.356c2.77 0 5.536-.776 7.958-2.307l3.575 3.575c2.814 2.814 6.556 4.364 10.536 4.364s7.722-1.55 10.535-4.364a14.8 14.8 0 0 0 4.365-10.536c0-.184-.02-.365-.027-.548.181.007.361.026.541.026 3.815 0 7.631-1.453 10.536-4.357 3.044-3.044 4.477-7.088 4.331-11.084.183.007.365.026.548.026 3.815 0 7.631-1.453 10.536-4.356 3.042-3.042 4.475-7.083 4.331-11.077.183.007.363.027.547.027a14.8 14.8 0 0 0 10.535-4.364 14.8 14.8 0 0 0 4.365-10.536c0-1.832-.329-3.613-.958-5.277 18.298-18.58 18.211-48.582-.26-67.054ZM29.01 107.818a6.91 6.91 0 0 1 0-9.758l12.332-12.332c1.345-1.345 3.112-2.018 4.879-2.018s3.534.673 4.879 2.018a6.907 6.907 0 0 1 0 9.757l-12.332 12.332c-2.689 2.691-7.068 2.69-9.757 0Zm15.414 15.415a6.91 6.91 0 0 1 0-9.758l12.332-12.332c1.345-1.345 3.112-2.018 4.878-2.018s3.534.672 4.879 2.018c1.304 1.303 2.021 3.036 2.021 4.879s-.717 3.575-2.021 4.878l-12.332 12.332c-2.69 2.691-7.068 2.69-9.758 0Zm20.294 17.435c-1.843 0-3.575-.717-4.879-2.021s-2.021-3.036-2.021-4.878.717-3.576 2.021-4.879l6.166-6.166 6.166-6.166.002-.002c1.345-1.344 3.111-2.015 4.877-2.015s3.534.672 4.878 2.018a6.91 6.91 0 0 1 0 9.758l-12.332 12.332a6.85 6.85 0 0 1-4.879 2.021Zm10.536 13.394a6.91 6.91 0 0 1 0-9.758l12.332-12.332c1.345-1.345 3.112-2.018 4.879-2.018s3.534.673 4.879 2.018a6.907 6.907 0 0 1 0 9.757l-12.332 12.332c-2.689 2.691-7.068 2.69-9.757 0Zm33.848.746c0 1.843-.718 3.575-2.021 4.879s-3.036 2.021-4.878 2.021-3.576-.717-4.879-2.021l-3.311-3.31 8.988-8.988c.26-.26.494-.535.73-.808l3.35 3.35a6.85 6.85 0 0 1 2.021 4.879Zm44.223-41.365c-1.303 1.303-3.036 2.021-4.878 2.021s-3.576-.718-4.879-2.021L123.41 93.285l-5.657 5.657 20.158 20.158c1.304 1.303 2.021 3.036 2.021 4.879s-.717 3.576-2.021 4.879c-2.691 2.69-7.068 2.691-9.758 0L107.995 108.7l-5.657 5.657 20.158 20.158a6.907 6.907 0 0 1 0 9.757c-1.303 1.304-3.036 2.021-4.879 2.021s-3.576-.717-4.879-2.021l-5.517-5.517c.565-4.422-.831-9.05-4.22-12.439-3.044-3.044-7.088-4.477-11.084-4.331.146-3.996-1.287-8.04-4.331-11.084-3.043-3.042-7.084-4.475-11.077-4.331.007-.183.027-.363.027-.547 0-3.98-1.55-7.722-4.364-10.536-3.044-3.043-7.087-4.476-11.083-4.33.146-3.996-1.287-8.04-4.331-11.084-5.81-5.81-15.263-5.81-21.072 0l-7.563 7.563c-7.539-15.033-4.746-33.591 7.408-45.744 15.071-15.071 39.362-15.422 54.874-1.073L75.68 55.544c-5.809 5.81-5.809 15.262 0 21.071s15.263 5.81 21.072 0l14.691-14.692 41.883 41.763c1.304 1.303 2.021 3.036 2.021 4.879s-.718 3.575-2.021 4.879Zm4.307-16.761-46.198-46.065-20.341 20.34c-1.303 1.304-3.036 2.021-4.879 2.021s-3.576-.717-4.879-2.021a6.907 6.907 0 0 1 0-9.757l17.517-17.517 1.688-1.863c15.445-15.37 40.515-15.345 55.931.071 15.043 15.043 15.431 39.276 1.161 54.792Z"/></svg>