<svg xmlns="http://www.w3.org/2000/svg" viewBox="0 0 192 192"><path d="M150.001 152h-32.965l-2.79-1.546a15 15 0 0 0 2.928-3.12l6.32-8.528-4.029-2.202c-.85-.465-20.875-11.412-24.6-13.404l-.16-.086c-3.36-1.799-5.788-3.098-10.728-3.098-4.104 0-13.555 2.98-16.623 3.984H55.3c-1.653-4.653-6.088-8-11.3-8-6.617 0-12 5.383-12 12v24c0 6.617 5.383 12 12 12 5.212 0 9.647-3.347 11.3-8h11.664l36 20H160v-13.838c0-5.603-4.486-10.162-10-10.162zm-106 4c-2.206 0-4-1.794-4-4v-24c0-2.206 1.794-4 4-4s4 1.794 4 4v24c0 2.206-1.795 4-4 4m108 12h-46.964l-36-20H56.001v-16h12.644l.615-.205c4.714-1.569 12.397-3.779 14.717-3.779 2.934 0 3.946.542 6.953 2.151l.161.087c2.678 1.432 14.26 7.755 20.508 11.168l-.96 1.298c-.694 1-3.245 4.094-6.959 1.865l-.005.01-17.77-9.85-3.878 6.996L114.967 160h35.034c1.14 0 2 .93 2 2.162zm-83.58-89.687-4.837 29.028a4 4 0 0 0 5.6 4.3L96 99.452l26.816 12.189a4.002 4.002 0 0 0 5.6-4.3l-4.837-29.028 21.837-21.838a4.001 4.001 0 0 0-2.17-6.775l-29.137-4.856-14.595-26.76a4 4 0 0 0-7.023 0l-14.6 26.76L48.754 49.7a4 4 0 0 0-2.171 6.775L68.42 78.313zm12.706-25.897a4 4 0 0 0 2.855-2.03l12.02-22.034 12.016 22.033a4 4 0 0 0 2.854 2.03l23.392 3.899-17.798 17.798a4 4 0 0 0-1.117 3.486l3.942 23.653-21.635-9.835a4 4 0 0 0-3.31 0l-21.637 9.835 3.942-23.653a4 4 0 0 0-1.117-3.486L57.736 56.314z"/></svg>