<svg xmlns="http://www.w3.org/2000/svg" viewBox="0 0 192 192"><path d="M134 80h-32.965l-2.79-1.546a15.1 15.1 0 0 0 2.929-3.119l6.317-8.53-4.027-2.201c-.851-.465-20.876-11.412-24.6-13.404l-.158-.085c-3.361-1.8-5.79-3.099-10.73-3.099-4.104 0-13.555 2.98-16.623 3.984H39.3c-1.653-4.653-6.087-8-11.3-8-6.617 0-12 5.383-12 12v24c0 6.617 5.383 12 12 12 5.213 0 9.647-3.347 11.3-8h11.663l36 20H144V90.162C144 84.559 139.514 80 134 80M28 84c-2.206 0-4-1.794-4-4V56c0-2.206 1.794-4 4-4s4 1.794 4 4v24c0 2.206-1.794 4-4 4m108 12H89.037l-36-20H40V60h12.644l.615-.205c4.714-1.569 12.397-3.779 14.717-3.779 2.934 0 3.947.543 6.954 2.152l.16.085c2.678 1.433 14.261 7.756 20.508 11.169l-.96 1.298c-.693 1.001-3.247 4.095-6.958 1.865l-.006.01-17.77-9.85-3.878 6.996L98.966 88H134c1.14 0 2 .93 2 2.162zm8 16c-17.645 0-32 14.355-32 32s14.355 32 32 32 32-14.355 32-32-14.355-32-32-32m0 56c-13.234 0-24-10.766-24-24s10.766-24 24-24 24 10.766 24 24-10.766 24-24 24m4-28h12v8h-12v12h-8v-12h-12v-8h12v-12h8z"/></svg>