<svg xmlns="http://www.w3.org/2000/svg" viewBox="0 0 192 192"><path d="M170.902 16 136 60.21v-9.72l-.04-.53C135.46 46.17 132.31 39 124 39c-2.26 0-4.14.53-5.68 1.38-.34-.59-.76-1.18-1.25-1.73-1.49-1.66-4.28-3.65-9.07-3.65-3.07 0-5.32.82-6.93 1.85-1.91-2.23-4.85-3.87-9.07-3.87-5.07 0-8.272 2.362-10.083 5.279-1.603-.783-3.552-1.269-5.917-1.269-8.8 0-12 6.59-12 11.02v10.08L16 28.757v9.374L63.52 67.17C58.81 70.34 56.2 75.79 56.2 83c0 9.83.7 22.35 6.19 31.98 1.45 2.55 3.23 5.34 5.46 8.03V176h8.3v-47.85h39.7V176h8.3v-53.91c7.417-8.231 11.579-18.476 11.826-29.09H136V73.12l40-50.663V16zM104 47.91v-1.35c.06-.82.29-1.91.92-2.59.58-.64 1.62-.97 3.08-.97s2.5.33 3.08.97c.93 1.01.99 2.91.94 3.52l-.01 21.95c-1-2.16-2.18-3.54-2.41-3.79l-1.17-1.32-1.76-.02c-.19-.01-1.17-.02-2.67-.03zm-16 .1v-3.08c.05-1.81.78-3.95 4-3.95 3.21 0 3.95 2.13 4 3.93v1.12c-.06.93-.03 1.66 0 2.05v16.11c-2.56-.03-5.32-.07-8-.09zm-16 .08c.08-2.06 1.43-3.1 4-3.1s3.92 1.04 4 3.02v16.01c-2.04-.01-3.72-.02-4.77-.02-1.12 0-2.2.06-3.23.19zM128 92c0 9.71-5.06 20.62-12.89 27.85H75.72c-2.6-2.68-4.63-5.77-6.38-8.83-4.56-8-5.14-19.17-5.14-28.02 0-.88.05-1.7.15-2.47.6-4.78 3.08-7.47 7.65-8.27.98-.17 2.06-.26 3.23-.26 1.04 0 2.72.01 4.77.02 2.31.02 5.11.05 8 .09 2.67.03 5.44.06 8 .09 3.2.03 6.06.06 8 .08.17.01.33.01.49.01.49.91 1.01 2.22.97 3.65-.03 1.19-.39 2.16-.93 2.94-.72 1.04-1.76 1.73-2.79 2.09-.09.04-.19.07-.28.1-.98.3-2.53.74-4.35 1.23-2.66.72-5.89 1.56-8.72 2.26-1.72.42-3.29.8-4.5 1.06-1.03.22-1.81.36-2.19.39h-.01l.05.83.17 3.16.2 3.99c3.34-.17 19.21-4.51 21.69-5.26.76-.23 1.48-.52 2.17-.87.66.09 1.34.14 2.03.14 4.22 0 7.87-1.72 10-4.38 1.77.88 3.82 1.38 6 1.38 1.404 0 2.747-.218 4-.598zm0-32v10.34l-.14.18.14.11v4.11c0 .92-1.56 2.26-4 2.26s-4-1.34-4-2.26V50.88c.22-1.15 1.06-3.88 4-3.88s3.78 2.69 4 3.83z"/></svg>