<svg xmlns="http://www.w3.org/2000/svg" viewBox="0 0 192 192"><path d="m145.107 89.237 5.786 5.526-25.75 26.957-12.036-12.6 5.786-5.526 6.25 6.544 19.964-20.9zM92.363 132H54c-3.309 0-6-2.691-6-6s2.691-6 6-6h30v-8H38c-3.309 0-6-2.691-6-6s2.691-6 6-6h46v-8H30c-3.309 0-6-2.691-6-6s2.691-6 6-6h58v-8H42c-3.309 0-6-2.691-6-6s2.691-6 6-6h80.063L97.936 37.219A7.98 7.98 0 0 1 96 32c0-4.411 3.589-8 8-8 1.026 0 2.606.424 3.245.686 2.576 1.534 24.822 17.64 38.397 27.545l.14.097c4.943 3.296 9.934 7.326 13.931 13.072l9.74.638c-5.091-9.711-12.403-15.803-19.162-20.318-17.017-12.417-37.675-27.38-39.633-28.272C109.381 16.866 106.553 16 104 16c-8.822 0-16 7.178-16 16 0 3.943 1.447 7.732 4.075 10.668L101.937 52H42c-7.72 0-14 6.28-14 14 0 2.161.507 4.202 1.385 6.031C21.952 72.356 16 78.488 16 86c0 6.22 4.08 11.499 9.7 13.318A13.9 13.9 0 0 0 24 106c0 7.72 6.28 14 14 14h3.37a13.9 13.9 0 0 0-1.37 6c0 7.72 6.28 14 14 14h39.125zm69.878 3.241-1.534.23 9.343 28.029h-15.34l-11.599 7.733-8.516-25.547-3.095 2.288-3.095-2.288-8.516 25.547-11.6-7.733H92.95l9.343-28.029-1.534-.23-1.39-9.272-8.034-4.832 2.264-9.098-5.573-7.539 5.573-7.54-2.264-9.097 8.034-4.832 1.39-9.272 9.272-1.39 4.832-8.034 9.098 2.264 7.539-5.573 7.54 5.573 9.097-2.264 4.832 8.034 9.272 1.39 1.39 9.272 8.034 4.832-2.264 9.098 5.573 7.539-5.573 7.539 2.264 9.098-8.034 4.832zm-41.436 7.945-5.942 1.479-4.634-7.704-6.18 18.539h6.662l4.9 3.267zM158.95 155.5l-6.18-18.539-4.633 7.704-5.942-1.479 5.194 15.58 4.9-3.266zm3.524-38.17-1.746-7.017 4.298-5.813-4.298-5.813 1.746-7.017-6.196-3.726-1.072-7.15-7.15-1.072-3.726-6.196-7.017 1.746-5.813-4.298-5.813 4.298-7.017-1.746-3.726 6.196-7.15 1.072-1.072 7.15-6.196 3.726 1.746 7.017-4.298 5.813 4.298 5.813-1.746 7.017 6.196 3.726 1.072 7.15 7.15 1.072 3.726 6.196 7.017-1.746 5.813 4.298 5.813-4.298 7.017 1.746 3.726-6.196 7.15-1.072 1.072-7.15z"/></svg>