<svg xmlns="http://www.w3.org/2000/svg" viewBox="0 0 192 192"><path d="M164 56h-20v10l-15.726 11.794-4.103 28.723-4.171 3.352V92H72v17.018l-3.408-3.066-4.924-28.201L48 66V56H28c-6.618 0-12 5.383-12 12v7c0 2.757 2.243 5 5 5h27v-4l8.332 6.249 2.625 15.032-1.814-1.633-38.012 8.447 1.737 7.81 33.988-7.553L72 119.782V120h.243l4.444 4h38.5l24.455-19.652 31.424 7.542 1.867-7.78-35.242-8.458-4.39 3.529 2.424-16.975L144 76v4h27c2.756 0 5-2.243 5-5v-7c0-6.617-5.383-12-12-12M40 72H24v-4c0-2.206 1.794-4 4-4h12zm40 28h32v12H80zm88-28h-16v-8h12c2.206 0 4 1.794 4 4z"/></svg>