<svg xmlns="http://www.w3.org/2000/svg" viewBox="0 0 192 192"><path d="M80 176H44v-22.918l-28-48V32h12.012c6.616 0 12 5.383 12 12v43.813l3.87 5.945c1.225-1.92 2.89-3.647 4.883-5.038l10.29-7.408 2.29 3.496c.19.29 18.992 28.983 21.757 32.877 3.83 5.393 4 11.8 2.469 15.758-.778 2.01-3.701 12.322-5.571 19.098zm-28-8h20v-16.54l.144-.522c.484-1.76 4.768-17.283 5.965-20.38.633-1.637.576-5.275-1.53-8.242-2.283-3.215-14.467-21.755-19.633-29.629l-3.555 2.56c-2.347 1.638-5 5.037-3.294 8.06l17.256 26.51-6.706 4.365-16.867-25.914-.002.001q-.262-.376-.495-.765L32.012 90.187V44c0-2.206-1.795-4-4-4H24v62.918l28 48zm96 8h-36v-23.459c-1.87-6.776-4.793-17.088-5.57-19.099-1.531-3.957-1.361-10.364 2.469-15.758 2.764-3.893 21.565-32.587 21.755-32.876l2.306-3.52 10.61 7.748c1.923 1.341 3.47 2.922 4.614 4.638L152 87.812V44c0-6.617 5.383-12 12-12h12v73.082l-28 48zm-28-8h20v-17.082l28-48V40h-4c-2.206 0-4 1.794-4 4v46.188l-11.1 17.046q-.286.498-.625.983l-.01-.008-16.913 25.974-6.704-4.366 17.392-26.709c1.633-3.087-1.123-6.17-3.118-7.562l-3.883-2.835c-5.175 7.886-17.337 26.393-19.617 29.604-2.107 2.968-2.164 6.606-1.53 8.242 1.196 3.098 5.48 18.622 5.964 20.381l.144.521zM108.969 51.197c4.295-3.671 7.031-9.116 7.031-15.196 0-11.028-8.972-20-20-20s-20 8.972-20 20c0 6.08 2.736 11.525 7.031 15.196C74.106 55.883 68 65.24 68 76.001h8c0-11.028 8.972-20 20-20s20 8.972 20 20h8c0-10.761-6.106-20.118-15.031-24.804M84 36.001c0-6.617 5.383-12 12-12s12 5.383 12 12-5.383 12-12 12-12-5.383-12-12"/></svg>