<svg xmlns="http://www.w3.org/2000/svg" viewBox="0 0 192 192"><path d="M48 52h11.017l4.571-16H116v16h-12v24h32V52h-12V36h24v-8H65.874l3.429-12H16v36h8v88h-8v8h40v28h8v-36H48zm80 16h-16v-8h16zM24 24h34.697l-5.714 20H24zm8 28h8v88h-8zm131.44 105.96c-1.433-2.419-3.923-4.244-6.844-5.204l4.044-24.265-12.64-1.405V108h16v-8h-16V88H92v12H76v8h16v19.086l-12.64 1.405 4.044 24.265c-2.92.96-5.411 2.785-6.845 5.204-.486.82-2.101 2.04-4.559 2.04v8c4.804 0 9.294-2.34 11.44-5.96.487-.82 2.102-2.04 4.56-2.04s4.073 1.22 4.56 2.04c2.146 3.62 6.636 5.96 11.44 5.96s9.294-2.34 11.44-5.96c.487-.82 2.102-2.04 4.56-2.04s4.073 1.22 4.56 2.04c2.146 3.62 6.636 5.96 11.44 5.96s9.294-2.34 11.44-5.96c.487-.82 2.102-2.04 4.56-2.04s4.073 1.22 4.56 2.04c2.146 3.62 6.636 5.96 11.44 5.96v-8c-2.458 0-4.073-1.22-4.56-2.04M100 96h40v30.198l-20-2.222-20 2.222zm40.56 61.96c-.487.82-2.102 2.04-4.56 2.04s-4.073-1.22-4.56-2.04c-2.146-3.62-6.636-5.96-11.44-5.96s-9.294 2.34-11.44 5.96c-.487.82-2.102 2.04-4.56 2.04s-4.073-1.22-4.56-2.04c-1.617-2.73-4.57-4.728-7.983-5.548L88.64 135.51l31.36-3.485 31.36 3.485-2.817 16.903c-3.413.82-6.366 2.818-7.984 5.548z"/></svg>