<svg xmlns="http://www.w3.org/2000/svg" viewBox="0 0 192 192"><path d="M136.006 160v-8c19.85 0 36-16.15 36-36s-16.15-36-36-36v-8c24.262 0 44 19.738 44 44s-19.738 44-44 44m-4-44c0-6.617-5.383-12-12-12v8c2.205 0 4 1.794 4 4s-1.795 4-4 4v8c6.617 0 12-5.383 12-12m24 0c0-15.44-12.56-28-28-28v8c10.841 0 20 9.159 20 20s-9.159 20-20 20v8c15.44 0 28-12.56 28-28M56 148.02v-18.16l-19.966-13.405L56 106.472 55.995 88h8.437c3.917 0 7.536-1.957 9.68-5.235a11.53 11.53 0 0 0 .916-10.967L51.665 18.397l-7.33 3.206L67.7 75.005a3.51 3.51 0 0 1-.283 3.381A3.51 3.51 0 0 1 64.432 80h-8.437C51.586 80 48 83.586 48 87.995v13.533L32.456 109.3a7.97 7.97 0 0 0-4.436 6.7 7.97 7.97 0 0 0 3.57 7.2L48 134.141v13.879a3.984 3.984 0 0 1-3.98 3.98H20v8h24.02c6.606 0 11.98-5.374 11.98-11.98m44 8v-18.16l-19.967-13.405L100 114.472 99.995 96h8.437c3.917 0 7.536-1.957 9.68-5.235a11.53 11.53 0 0 0 .916-10.967L95.665 26.397l-7.33 3.206L111.7 83.005a3.51 3.51 0 0 1-.283 3.381A3.51 3.51 0 0 1 108.432 88h-8.437C95.586 88 92 91.586 92 95.995v13.533L76.455 117.3c-2.596 1.299-4.254 3.804-4.434 6.701s1.154 5.59 3.57 7.2L92 142.141v13.879a3.984 3.984 0 0 1-3.98 3.98H64v8h24.02c6.606 0 11.98-5.374 11.98-11.98"/></svg>