<svg xmlns="http://www.w3.org/2000/svg" viewBox="0 0 192 192"><path d="M60 160.019v-8c13.233 0 24-10.766 24-24s-10.767-24-24-24v-8c17.644 0 32 14.355 32 32s-14.356 32-32 32m-3-47.944v8.062c3.975.68 7 3.944 7 7.863s-3.025 7.182-7 7.863v8.062c8.4-.754 15-7.605 15-15.925s-6.6-15.171-15-15.925m75.02 39.944c-13.233 0-24-10.766-24-24s10.767-24 24-24v-8c-17.644 0-32 14.355-32 32s14.356 32 32 32zm3-16.156c-3.975-.68-7-3.944-7-7.863s3.025-7.182 7-7.863v-8.062c-8.4.754-15 7.605-15 15.925s6.6 15.171 15 15.925zM175.998 140h-14.945c-.332-.001-1.064-.554-1.064-1.14l.002-10.735 10.095-7.292.266-.198c1.14-.835 2.446-2.137 2.44-4.814-.01-3.057-2.066-4.734-3.294-5.736l-9.508-6.595.01-8.92a6.576 6.576 0 0 0-6.572-6.568l-7.667.006c-.368-.028-1.049-.686-1.132-1.079.323-2.873 6.998-14.734 11.427-22.604 3.078-5.47 6.262-11.125 8.636-15.813l-7.137-3.615c-2.295 4.532-5.434 10.11-8.47 15.505-8.645 15.36-12.436 22.508-12.46 26.551.025 4.739 4.377 9.055 9.132 9.055l6.24-.005-.011 11.687 11.584 7.981-11.58 8.363-.001 14.825c0 4.847 4.219 9.119 9.046 9.141h14.963zM30.98 148c4.893-.023 9.027-4.209 9.027-9.141l-.002-14.825-11.579-8.363 11.584-7.981L40 96.003l6.243.005c4.752 0 9.104-4.316 9.13-9.102-.025-3.996-3.816-11.145-12.46-26.504-3.036-5.395-6.176-10.973-8.471-15.505l-7.137 3.615c2.375 4.688 5.558 10.344 8.636 15.813 4.43 7.87 11.104 19.731 11.426 22.604-.083.393-.763 1.05-1.121 1.079l-7.68-.006a6.576 6.576 0 0 0-6.568 6.572l.009 8.916-9.022 6.216-.485.38c-1.229 1.001-3.286 2.678-3.294 5.736-.008 2.676 1.3 3.978 2.44 4.813l10.36 7.49.002 10.734c0 .587-.732 1.14-1.046 1.141H16v8h14.981z"/></svg>