<svg xmlns="http://www.w3.org/2000/svg" viewBox="0 0 192 192"><path d="M164 131.558c7.226-1.599 12-7.541 12-15.558V80c0-8.346-5.17-14.452-12.898-15.738C154.4 35.705 127.219 16 96 16S37.6 35.705 28.898 64.262C21.17 65.548 16 71.654 16 80v36c0 9.42 6.58 16 16 16s16-6.58 16-16V80c0-7.58-4.265-13.314-10.837-15.267C45.44 40.54 69.003 24 96 24s50.56 16.541 58.837 40.733C148.265 66.686 144 72.42 144 80v36c0 8.017 4.774 13.96 12 15.557M40 80v36c0 5.898-4.132 8-8 8s-8-2.102-8-8V80c0-5.898 4.132-8 8-8s8 2.102 8 8m128 36c0 5.898-4.132 8-8 8s-8-2.102-8-8V80c0-5.898 4.132-8 8-8s8 2.102 8 8zm-4 15.556c-4 1-8 0-8 0"/></svg>