<svg xmlns="http://www.w3.org/2000/svg" viewBox="0 0 192 192"><path d="M127.9 176c-6.32-.03-11.863-5.652-11.863-12.032l.002-22.013 19.616-14.167a28 28 0 0 0-.993-.835l-18.628-12.865V95.986l-11.998.008c-6.143 0-11.982-5.788-12.015-11.956.038-6.047 7.643-20.278 20.164-42.997 4.395-7.973 8.939-16.218 12.305-22.864l7.136 3.615c-3.43 6.77-8.007 15.077-12.434 23.11-7.623 13.832-19.144 34.734-19.171 39.139.01 1.736 2.26 3.953 4.012 3.953l11.998-.009c4.418 0 8.011 3.595 8.011 8.014l-.006 13.888 15.07 10.384.61.48c1.82 1.483 4.31 3.514 4.322 7.23.01 3.297-1.488 4.67-2.893 5.7l-17.106 12.364-.002 17.923c0 2.161 2.145 4.024 3.882 4.032h28v8h-28.018z"/></svg>