<svg xmlns="http://www.w3.org/2000/svg" viewBox="0 0 192 192"><path d="m125.499 137.124-4.998-6.248L123 134l-2.506-3.118C120.629 130.773 134 119.788 134 104c0-10.892-4.095-17.717-8.43-24.942C120.865 71.216 116 63.108 116 50c0-19.434 12.634-32.29 13.171-32.829l5.658 5.658C134.728 22.93 124 33.967 124 50c0 10.892 4.095 17.717 8.43 24.942C137.135 82.784 142 90.892 142 104c0 19.696-15.828 32.584-16.501 33.124M109 104c0-13.108-4.865-21.216-9.57-29.058C95.095 67.717 91 60.892 91 50c0-16.033 10.728-27.07 10.829-27.171L96.17 17.17C95.634 17.71 83 30.566 83 50c0 13.108 4.865 21.216 9.57 29.058C96.905 86.283 101 93.108 101 104c0 15.788-13.371 26.773-13.506 26.882L90 134l-2.499-3.124 4.998 6.248C93.172 136.584 109 123.696 109 104m-33 0c0-13.108-4.865-21.216-9.57-29.058C62.095 67.717 58 60.892 58 50c0-16.033 10.728-27.07 10.829-27.171L63.17 17.17C62.634 17.71 50 30.566 50 50c0 13.108 4.865 21.216 9.57 29.058C63.905 86.283 68 93.108 68 104c0 15.788-13.371 26.773-13.506 26.882L57 134l-2.499-3.124 4.998 6.248C60.172 136.584 76 123.696 76 104m84 56H32v8h128z"/></svg>