<svg xmlns="http://www.w3.org/2000/svg" viewBox="0 0 192 192"><path d="M67.981 32.023v19.928h-8V32.023zM108 112H90.06l5.31 20h3.46c2.83 0 5.46.93 7.61 2.52a60.6 60.6 0 0 0-14.07 4.91c-.37.18-.74.37-1.1.57H28.94c-2.72 0-4.94 2.53-4.94 5.64V168h57.19c.19.38.37.77.55 1.15 1.19 2.48 2.56 4.79 3.86 6.85H16v-30.36c0-7.52 5.81-13.64 12.94-13.64h3.61l5.98-20H20v-8h23.96V16h40.07v88H108zm-56.04-8h24.07V24H51.96zm35.13 28-5.31-20h-34.9l-5.98 20zm88.56 22.18-.8 2.6c-.9 3-2.1 5.8-3.4 8.5-1.3 2.8-2.9 5.5-4.6 8.1l-1.5 2.3-2.7-.6c-4.1-.9-7.6-2.1-10.6-3.6-6.5-3.1-12.2-7.5-17-13.1-1.5.6-3.2.9-4.9.9-1.6 0-3.2-.3-4.7-.8-3.91 4.47-8.41 8.29-13.45 11.28-1.15.68-2.34 1.32-3.55 1.92-3.7 1.9-7.7 2.9-10.7 3.6l-2.7.6-1.5-2.3c-1.21-1.85-2.37-3.7-3.4-5.58-.42-.77-.82-1.54-1.2-2.32-1.3-2.7-2.5-5.6-3.5-8.6l-.9-2.6 2.1-1.7c3.2-2.7 6.3-4.7 9.3-6.2 2.49-1.22 5.05-2.24 7.67-3.06 2.55-.79 5.16-1.39 7.82-1.8q2.625-.39 5.31-.54c.7-2.3 2-4.4 3.7-6-2.8-6.8-4.3-13.9-4.3-21.1 0-4.2.9-8.2 1.6-11.2l.6-2.7 2.7-.4c6.2-.9 12.3-.9 18.4 0l2.7.4.5 2.8c.9 4.1 1.4 7.7 1.4 11.1 0 7.2-1.5 14.2-4.4 21 1.7 1.6 3 3.6 3.7 5.8 7.4.4 14.4 2.1 20.9 5.3 3.7 1.8 6.9 4.2 9.4 6.3zm-56.7-.6c-1-1.3-1.8-2.9-2.3-4.5-1.57.1-3.12.29-4.65.54-2.75.47-5.42 1.18-8 2.12a49 49 0 0 0-4.55 1.94c-1.8.9-3.7 2.1-5.6 3.5.7 1.7 1.4 3.3 2.2 4.9.8 1.5 1.7 3.1 2.6 4.6 1.72-.52 3.59-1.11 5.35-1.9.29-.13.57-.26.85-.4 2.54-1.22 4.93-2.69 7.15-4.37 2.52-1.89 4.83-4.05 6.95-6.43m5.2-39.6c0 6 1.2 11.8 3.3 17.4.9-.1 1.7-.2 2.6-.2s1.7.1 2.5.2c2.3-5.6 3.5-11.5 3.5-17.4 0-2.1-.2-4.2-.6-6.6-3.5-.3-7-.3-10.6 0-.4 2.1-.7 4.3-.7 6.6m12 31.2c0-3.3-2.7-6-6-6s-6 2.7-6 6 2.7 6 6 6 6-2.7 6-6m30.3 11.7c-1.7-1.2-3.6-2.5-5.6-3.5-5.4-2.6-11.2-4.1-17.2-4.5-.5 1.6-1.2 3.1-2.2 4.5 4 4.6 8.8 8.2 14.1 10.8 1.9.9 3.9 1.6 6.2 2.3 1-1.5 1.8-3.1 2.6-4.7.7-1.6 1.4-3.2 2.1-4.9"/></svg>