<svg xmlns="http://www.w3.org/2000/svg" viewBox="0 0 192 192"><path d="M158.1 32H33.9C24.1 32 16 40.1 16 49.9V142c0 9.9 8.1 17.9 17.9 17.9H158c9.9 0 17.9-8.1 17.9-17.9V49.9c.1-9.8-8-17.9-17.8-17.9m9.9 110.1c0 5.5-4.5 9.9-9.9 9.9H33.9c-5.5 0-9.9-4.5-9.9-9.9V49.9c0-5.5 4.5-9.9 9.9-9.9H158c5.5 0 9.9 4.5 9.9 9.9v92.2zM80 48c-26.5 0-48 21.5-48 48s21.5 48 48 48 48-21.5 48-48-21.5-48-48-48m0 88c-22.1 0-40-17.9-40-40s17.9-40 40-40 40 17.9 40 40-17.9 40-40 40m26-29.3.1.1-.1.1c-.6 1.5-1.4 2.9-2.2 4.2s-1.8 2.6-2.9 3.8l-.1.1-.2-.1c-2.4-1-4.4-2-6.2-3.1-3.8-2.4-7.1-5.5-9.9-9-1.3.9-2.9 1.4-4.6 1.4s-3.3-.5-4.6-1.4c-2.8 3.5-6.1 6.6-9.9 9-1.8 1.1-3.7 2.1-6.2 3.1l-.2.1-.1-.1c-1.1-1.2-2.1-2.5-2.9-3.8s-1.6-2.7-2.2-4.2l-.1-.1.1-.1c1.5-1.4 3.3-3 5.4-4.4 3.9-2.5 8-4.2 12.4-5.3 0-.3-.1-.7-.1-1 0-3.4 2-6.3 4.9-7.5-1.5-4.3-2.3-8.7-2.3-13.2 0-2.1.2-4.3.7-6.9v-.2h.2c3.2-.6 6.3-.6 9.5 0h.2v.2c.4 2 .8 4.4.8 6.9 0 4.6-.8 9.1-2.2 13.3 2.8 1.3 4.7 4.2 4.7 7.4 0 .3 0 .7-.1 1 4.4 1.1 8.6 2.8 12.4 5.3 2.4 1.3 4.2 2.9 5.7 4.4"/></svg>