<svg xmlns="http://www.w3.org/2000/svg" viewBox="0 0 192 192"><path d="M160 81.365v-5.343h-.086c-.226-2.604-1.094-6.224-3.834-9.569-5.342-6.521-13.246-6.518-15.146-6.412h-82.84c-1.645-.071-15.016-.271-22.395 10.673-4.26 6.318-4.227 13.002-3.802 16.527l-5.068-5.068-5.657 5.657 10.847 10.847v61.456c0 8.751 7.169 15.871 15.981 15.871s15.967-7.107 15.98-15.847l.02-48.134c0-4.411 3.589-8 8-8s8 3.589 8 8v48c0 8.822 7.178 16 16 16s16-7.178 16-16v-48c0-4.411 3.589-8 8-8s8 3.589 8 8v48c0 8.822 7.178 16 16 16s16-7.178 16-16V92.68l5.171 5.172 5.657-5.657-10.829-10.828Zm-8 0-10.829 10.828 5.657 5.657 5.171-5.172v67.343c0 4.411-3.589 8-8 8s-8-3.589-8-8v-48c0-8.822-7.178-16-16-16s-16 7.178-16 16v48c0 4.411-3.589 8-8 8s-8-3.589-8-8v-48c0-8.822-7.178-16-16-16s-16 7.178-16 16l.017 48.134c-.013 4.349-3.604 7.884-8.017 7.884s-8.019-3.548-8.019-7.908V98.675l10.847-10.847-5.657-5.657-5.203 5.204-.047-.266c-.354-2.005-.831-7.182 2.38-11.944 5.157-7.648 15.356-7.176 15.459-7.169l83.293.007.27-.009c.219-.015 5.459-.324 8.596 3.504 1.612 1.968 2.003 4.185 2.08 5.531v4.335ZM70.49 36.829c-5.796-5.796-4.387-13.27 0-17.657l2.829-2.828 5.657 5.657-2.828 2.829c-.954.954-2.863 3.48 0 6.343 5.796 5.796 4.387 13.27 0 17.657l-2.829 2.828-5.657-5.657 2.828-2.829c.954-.954 2.863-3.48 0-6.343m46 0c-5.796-5.796-4.387-13.27 0-17.657l2.829-2.828 5.657 5.657-2.828 2.829c-.954.954-2.863 3.48 0 6.343 5.796 5.796 4.387 13.27 0 17.657l-2.829 2.828-5.657-5.657 2.828-2.829c.954-.954 2.863-3.48 0-6.343m-23 0c-5.796-5.796-4.387-13.27 0-17.657l2.829-2.828 5.657 5.657-2.828 2.829c-.954.954-2.863 3.48 0 6.343 5.796 5.796 4.387 13.27 0 17.657l-2.829 2.828-5.657-5.657 2.828-2.829c.954-.954 2.863-3.48 0-6.343"/></svg>