<svg xmlns="http://www.w3.org/2000/svg" viewBox="0 0 192 192"><path d="m129.214 85.413 5.901-5.901C138.82 86.074 142 93.402 142 104c0 19.696-15.828 32.584-16.501 33.124L123 134l-2.499-3.124L123 134l-2.506-3.118C120.629 130.773 134 119.788 134 104c0-7.705-2.052-13.372-4.786-18.587m5.615-62.584-5.658-5.658C128.634 17.71 116 30.566 116 50c0 1.126.048 2.202.117 3.257l8.233-8.234c1.836-13.294 10.389-22.104 10.479-22.194M87.494 130.882 90 134l-2.499-3.124L90 134l2.499 3.124c.654-.524 15.606-12.703 16.46-31.456l-10.673 10.673c-3.916 8.887-10.696 14.464-10.792 14.541M91 50c0-16.033 10.728-27.07 10.829-27.171L96.17 17.17C95.634 17.71 83 30.566 83 50c0 12.324 4.3 20.229 8.725 27.648l5.845-5.845C93.993 65.647 91 59.31 91 50M66.43 74.942C62.095 67.717 58 60.892 58 50c0-16.033 10.728-27.07 10.829-27.171L63.17 17.17C62.634 17.71 50 30.566 50 50c0 13.108 4.865 21.216 9.57 29.058 3.987 6.645 7.761 12.96 8.344 22.401l7.104-7.104c-1.654-7.831-5.159-13.698-8.588-19.413m107.227-45.285-11.314-11.314-144 144 11.314 11.314zM46.627 168H160v-8H54.627z"/></svg>