<svg xmlns="http://www.w3.org/2000/svg" viewBox="0 0 192 192"><path d="M126.387 55.716C125.324 53.477 124 50.691 124 46c0-7.049 4.548-12.16 5.066-12.719l5.867 5.438c-.012.013-2.934 3.299-2.934 7.281 0 2.888.677 4.312 1.613 6.284 1.063 2.239 2.387 5.025 2.387 9.716 0 7.049-4.548 12.16-5.066 12.719L127.999 72l-2.952-2.7c.03-.033 2.952-3.318 2.952-7.3 0-2.888-.677-4.312-1.613-6.284ZM60 62c0 3.982-2.922 7.268-2.952 7.3L60 72l2.934 2.719C63.453 74.159 68 69.049 68 62c0-4.691-1.323-7.478-2.387-9.716C64.676 50.313 64 48.888 64 46c0-3.982 2.922-7.268 2.934-7.281l-5.867-5.438c-.519.56-5.066 5.67-5.066 12.719 0 4.691 1.323 7.478 2.387 9.716.937 1.971 1.613 3.396 1.613 6.284Zm100 74v8H32v-8h24V88h80v48zm-32 0V96H64v40zm-96 24h128v-8H32z"/></svg>