<svg xmlns="http://www.w3.org/2000/svg" viewBox="0 0 192 192"><path d="M71.56 86.32c0 9.33-3.85 15.24-7.92 21.5-1.9 2.92-3.91 6-5.56 9.54l19.81-19.81c1.03-3.3 1.67-6.99 1.67-11.23 0-17.61-15.26-29.06-15.91-29.54l-4.75 6.44c.13.09 12.66 9.49 12.66 23.1M64.6 144.8l-6.08 6.08c3.6 7.36 8.3 11.77 8.62 12.06l5.43-5.87c-.07-.07-5.01-4.75-7.97-12.27m29.11 18.14 5.43-5.87c-.1-.1-10.15-9.63-10.15-23.39 0-8.89 3.5-14.68 7.35-20.62L81.4 128c-.26 1.78-.41 3.67-.41 5.68 0 17.35 12.2 28.78 12.72 29.26m3.09-84.3 6.13-6.13c-4.51-9.58-12.25-15.39-12.71-15.73l-4.74 6.44c.1.07 8.1 6.07 11.32 15.42m19.98 29.18c-4.32 6.63-9.22 14.15-9.22 25.86 0 17.35 12.2 28.78 12.72 29.26l5.43-5.87c-.1-.1-10.15-9.63-10.15-23.39 0-9.33 3.85-15.24 7.93-21.5 4.32-6.63 9.22-14.15 9.22-25.86 0-3-.44-5.83-1.18-8.45l-6.88 6.88c.04.51.06 1.04.06 1.57 0 9.33-3.85 15.24-7.93 21.5M33.46 88H63.5c.04-.55.06-1.1.06-1.68 0-2.26-.55-4.38-1.37-6.32H39.38L27.22 40h108.22l8-8H16.43zm107.25-1.68c0 .57-.03 1.12-.05 1.68h18.72l16.61-54.59-12.02 12.02L153.46 80h-13.28c.33 2.02.53 4.12.53 6.32m28.881-69.149 5.658 5.658-152 152-5.658-5.658z"/></svg>