<svg xmlns="http://www.w3.org/2000/svg" viewBox="0 0 192 192"><path d="M16.002 28.058H175.99l-17.034 56h-18.722c.019-.558.043-1.11.043-1.684 0-2.194-.192-4.297-.523-6.316h13.273l12.168-40h-138.4l12.162 40H61.76c.825 1.938 1.375 4.063 1.375 6.316 0 .58-.027 1.137-.064 1.684H33.028zm95.618 31.22c.127.093 12.658 9.485 12.658 23.096 0 9.338-3.848 15.246-7.923 21.5-4.321 6.634-9.22 14.153-9.22 25.868 0 17.344 12.2 28.78 12.72 29.258l5.428-5.876c-.1-.095-10.147-9.624-10.147-23.382 0-9.339 3.848-15.246 7.923-21.501 4.321-6.634 9.22-14.153 9.22-25.867 0-17.609-15.264-29.058-15.913-29.537l-4.746 6.44zm-26.572 0c.127.093 12.659 9.485 12.659 23.096 0 9.338-3.849 15.246-7.923 21.5-4.322 6.634-9.22 14.153-9.22 25.868 0 17.344 12.2 28.78 12.719 29.258l5.428-5.876c-.1-.095-10.147-9.624-10.147-23.382 0-9.339 3.849-15.246 7.923-21.5 4.322-6.635 9.22-14.154 9.22-25.868 0-17.609-15.263-29.058-15.913-29.537l-4.746 6.44zm-26.571 0c.127.093 12.659 9.485 12.659 23.096 0 9.337-3.849 15.245-7.923 21.5-4.322 6.634-9.22 14.153-9.22 25.868 0 17.344 12.2 28.78 12.718 29.258l5.43-5.876c-.102-.095-10.148-9.624-10.148-23.382 0-9.339 3.848-15.246 7.923-21.501 4.321-6.635 9.22-14.154 9.22-25.867 0-17.609-15.263-29.058-15.913-29.537l-4.746 6.44z"/></svg>