<svg xmlns="http://www.w3.org/2000/svg" viewBox="0 0 192 192"><path d="M110.059 72H81.941C76.46 72 72 76.459 72 81.94v68.118c0 5.481 4.46 9.941 9.941 9.941h28.118c5.481 0 9.94-4.46 9.94-9.941V81.94c0-5.481-4.459-9.94-9.94-9.94M112 150.059c0 1.07-.87 1.941-1.94 1.941H81.942a1.944 1.944 0 0 1-1.941-1.941V81.941c0-1.07.871-1.94 1.941-1.94h28.118c1.07 0 1.94.87 1.94 1.94zM124 16H68c-6.729 0-12 5.15-12 11.726v136.275c0 6.617 5.383 12 12 12h56c6.617 0 12-5.383 12-12V28c0-6.617-5.383-12-12-12m-56 8h56c2.206 0 4 1.794 4 4v28H64V27.725c0-2.124 1.72-3.726 4-3.726Zm56 144H68c-2.206 0-4-1.794-4-4V64h64v100c0 2.206-1.794 4-4 4"/></svg>