<svg xmlns="http://www.w3.org/2000/svg" viewBox="0 0 192 192"><path d="M176 56v104H16V56h40v8H24v88h144V64h-32v-8zm-51.684 11.631c0-8.055-3.072-13.173-5.78-17.69-2.491-4.149-4.641-7.733-4.641-13.572 0-8.547 5.731-14.495 5.775-14.54l-5.656-5.658c-.332.332-8.12 8.257-8.12 20.198 0 8.055 3.072 13.173 5.78 17.69 2.491 4.149 4.642 7.733 4.642 13.572 0 8.302-7.124 14.198-7.196 14.256L111.632 85l-2.5-3.124 4.999 6.248c.416-.333 10.185-8.289 10.185-20.493m-19.106 0c0-8.055-3.071-13.173-5.78-17.69-2.49-4.149-4.64-7.733-4.64-13.572 0-8.547 5.73-14.495 5.775-14.54l-5.657-5.658c-.332.332-8.119 8.257-8.119 20.198 0 8.055 3.071 13.173 5.78 17.69 2.49 4.149 4.641 7.733 4.641 13.572 0 8.302-7.124 14.198-7.195 14.256L92.526 85l-2.499-3.124 4.998 6.248c.416-.333 10.185-8.289 10.185-20.493m-19.104 0c0-8.055-3.072-13.173-5.78-17.69-2.49-4.149-4.641-7.733-4.641-13.572 0-8.547 5.731-14.495 5.775-14.54l-5.656-5.658c-.332.332-8.12 8.257-8.12 20.198 0 8.055 3.072 13.173 5.78 17.69 2.491 4.149 4.642 7.733 4.642 13.572 0 8.302-7.124 14.198-7.197 14.256L73.421 85l-2.499-3.124 4.998 6.248c.416-.333 10.186-8.289 10.186-20.493"/></svg>