<svg xmlns="http://www.w3.org/2000/svg" viewBox="0 0 192 192"><path d="M64 96v8h-4.88l-3.97 15.87-10.99 11L52.88 96zm75.12 0H124v8h8.88l6 24H80.97l-8 8h72.94l2.41-3.2zM176 96c0 44.112-35.888 80-80 80s-80-35.888-80-80 35.888-80 80-80 80 35.888 80 80M42.37 143.974 143.973 42.369C131.229 30.957 114.414 24 96 24c-39.701 0-72 32.299-72 72 0 18.414 6.957 35.229 18.37 47.974M168 96c0-18.414-6.957-35.229-18.37-47.974L48.027 149.631C60.771 161.043 77.586 168 96 168c39.701 0 72-32.299 72-72M94.45 77.796c-1.21 1.95-2.483 4.014-3.568 6.351l16.194-16.194a30 30 0 0 0 .363-4.682c0-12.592-8.289-21.086-8.641-21.44l-5.591 5.549c.064.064 6.354 6.51 6.354 15.891 0 6.288-2.368 10.105-5.11 14.525zm-.353 37.077c1.511 2.29 2.753 3.656 2.886 3.8l5.784-5.348c-.031-.034-1.44-1.59-2.96-4.162zm29.448-63.389c-2.2-5.986-5.33-9.782-5.532-10.022l-6.026 5.074c.047.056 3.766 4.555 5.233 11.273zM114.2 96.473c0-.617.029-1.204.073-1.776l-7.297 7.297c2.262 9.484 9.685 15.392 10.665 16.137l4.768-6.271c-.082-.063-8.21-6.346-8.21-15.387zm-44.14 0c0 2.638.458 5.083 1.182 7.313l6.728-6.728c-.007-.196-.032-.387-.032-.585 0-6.36 2.22-10.23 4.79-14.712 2.735-4.768 5.835-10.173 5.835-18.632 0-12.662-8.673-21.032-9.042-21.382l-5.434 5.704c.066.064 6.598 6.478 6.598 15.678 0 6.36-2.22 10.23-4.79 14.712-2.735 4.768-5.835 10.173-5.835 18.632"/></svg>