<svg xmlns="http://www.w3.org/2000/svg" viewBox="0 0 192 192"><path d="M175.99 160H16.003l17.034-56h18.722c-.02.557-.044 1.11-.044 1.684 0 2.193.192 4.297.523 6.316H38.964l-12.167 40h138.4l-12.162-40h-22.804c-.824-1.938-1.374-4.064-1.374-6.316 0-.581.026-1.138.064-1.684h30.044l17.026 56zm-95.617-31.22c-.127-.093-12.659-9.485-12.659-23.096 0-9.338 3.849-15.246 7.923-21.5 4.322-6.635 9.22-14.154 9.22-25.868 0-17.344-12.2-28.78-12.719-29.258l-5.429 5.876c.102.094 10.148 9.624 10.148 23.382 0 9.338-3.849 15.246-7.923 21.5-4.322 6.635-9.22 14.154-9.22 25.868 0 17.608 15.264 29.058 15.913 29.536zm26.571 0c-.127-.093-12.658-9.485-12.658-23.096 0-9.338 3.848-15.246 7.923-21.5 4.321-6.635 9.22-14.154 9.22-25.868 0-17.344-12.2-28.78-12.719-29.258l-5.429 5.876c.101.094 10.148 9.624 10.148 23.382 0 9.338-3.849 15.246-7.924 21.5-4.32 6.635-9.22 14.154-9.22 25.868 0 17.608 15.264 29.058 15.914 29.536zm26.572 0c-.127-.093-12.66-9.485-12.66-23.096 0-9.338 3.85-15.246 7.924-21.5 4.322-6.635 9.22-14.154 9.22-25.868 0-17.344-12.2-28.78-12.719-29.258l-5.428 5.876c.1.094 10.147 9.624 10.147 23.382 0 9.338-3.849 15.246-7.923 21.5-4.322 6.635-9.22 14.154-9.22 25.868 0 17.608 15.263 29.058 15.913 29.536z"/></svg>