<svg xmlns="http://www.w3.org/2000/svg" viewBox="0 0 192 192"><path d="m174.634 70.573-5.656 5.657L160 67.252V137h-.051c-.52 8.356-7.465 15-15.949 15s-15.429-6.644-15.949-15H128v-29c0-4.411-3.589-8-8-8s-8 3.589-8 8v29h-.051c-.52 8.356-7.465 15-15.949 15s-15.429-6.644-15.949-15H80v-29c0-4.411-3.589-8-8-8s-8 3.589-8 8v29h-.051c-.52 8.356-7.465 15-15.949 15s-15.429-6.644-15.949-15H32V52h8v84c0 4.411 3.589 8 8 8s8-3.589 8-8v-28c0-8.822 7.178-16 16-16s16 7.178 16 16v28c0 4.411 3.589 8 8 8s8-3.589 8-8v-28c0-8.822 7.178-16 16-16s16 7.178 16 16v28c0 4.411 3.589 8 8 8s8-3.589 8-8V67.236l-8.994 8.994-5.656-5.657 18.643-18.642zm-58.319-5.783c0 6.211-6.818 10.827-6.888 10.873l2.204 3.338 2.19 3.347c.429-.28 10.493-6.99 10.493-17.557 0-6.994-3.18-11.33-5.984-15.155-2.479-3.38-4.437-6.049-4.437-10.424 0-6.456 5.441-11.082 5.48-11.115l-5.066-6.191c-.344.281-8.414 7.003-8.414 17.306 0 6.994 3.18 11.33 5.984 15.155 2.479 3.38 4.437 6.049 4.437 10.424Zm-19.104 0c0 6.211-6.819 10.827-6.889 10.873l2.204 3.338 2.19 3.347c.429-.28 10.494-6.99 10.494-17.557 0-6.994-3.18-11.33-5.985-15.155-2.479-3.379-4.437-6.049-4.437-10.424 0-6.455 5.442-11.082 5.481-11.114l-5.066-6.192c-.343.281-8.415 7.003-8.415 17.307 0 6.994 3.18 11.33 5.985 15.155 2.479 3.379 4.437 6.049 4.437 10.424Zm-19.106 0c0 6.211-6.819 10.827-6.889 10.873l2.204 3.338 2.19 3.347c.429-.28 10.494-6.99 10.494-17.557 0-6.994-3.18-11.33-5.984-15.155-2.479-3.38-4.437-6.049-4.437-10.424 0-6.456 5.441-11.082 5.48-11.115l-5.066-6.191c-.344.281-8.414 7.003-8.414 17.306 0 6.994 3.18 11.33 5.984 15.155 2.479 3.38 4.437 6.049 4.437 10.424Z"/></svg>