<svg xmlns="http://www.w3.org/2000/svg" viewBox="0 0 192 192"><path d="M173.521 149.308c-2.547-2.095-5.65-4.478-9.358-6.279-6.514-3.163-13.523-4.947-20.853-5.346a14 14 0 0 0-3.699-5.834c2.902-6.764 4.389-13.826 4.389-21.029 0-3.372-.45-6.998-1.378-11.085l-.61-2.691-2.733-.385a66 66 0 0 0-18.377-.027l-2.704.373-.638 2.654c-.727 3.017-1.56 7.012-1.56 11.161 0 7.244 1.46 14.332 4.306 21.104a14 14 0 0 0-3.69 5.98c-7.342.41-14.322 2.218-20.769 5.418-3.023 1.5-6.07 3.516-9.318 6.163l-2.138 1.743.87 2.618a67 67 0 0 0 3.535 8.605 67 67 0 0 0 4.612 7.868l1.536 2.256 2.66-.608c3.026-.69 6.976-1.72 10.691-3.565 6.485-3.218 12.18-7.672 16.979-13.227 1.479.533 3.066.84 4.726.84 1.742 0 3.404-.335 4.944-.92 4.814 5.559 10.513 9.977 16.986 13.12 3.035 1.474 6.493 2.654 10.574 3.604l2.687.627 1.54-2.29a67 67 0 0 0 4.646-8.058 67 67 0 0 0 3.407-8.462l.845-2.595zM124 110.82c0-2.26.32-4.503.734-6.577a57.3 57.3 0 0 1 10.644.011c.422 2.383.622 4.516.622 6.566 0 5.944-1.193 11.79-3.534 17.411A14 14 0 0 0 130 128c-.878 0-1.735.091-2.569.247-2.273-5.611-3.431-11.462-3.431-17.427m-19.261 50.416c-2.025 1.005-4.176 1.717-6.218 2.267a58 58 0 0 1-2.56-4.609 58 58 0 0 1-2.163-4.93c1.947-1.437 3.767-2.564 5.606-3.476 5.323-2.642 11.088-4.173 17.16-4.576a14 14 0 0 0 2.263 4.5c-4.016 4.532-8.743 8.172-14.088 10.824M124 142.006c0-3.311 2.691-6.006 6-6.006s6 2.695 6 6.007-2.691 6.007-6 6.007-6-2.695-6-6.007zm40.181 16.597a58 58 0 0 1-2.578 4.726c-2.327-.662-4.332-1.413-6.178-2.31-5.347-2.596-10.084-6.224-14.118-10.786a14 14 0 0 0 2.184-4.535c6.04.406 11.81 1.92 17.177 4.528 2.032.986 3.91 2.253 5.596 3.533a58 58 0 0 1-2.083 4.844m4.863-102.473c-.428-.99-10.83-24.37-39.388-35.053-28.024-10.482-55.721-3.176-72.297 7.158-17.487 10.902-27.672 32.202-32.186 43.929-3.588 9.318-7.853 22.649-8.994 43.185-.88 15.815 1.523 24.103 7.14 24.633l.377.018 61.757-.007a50 50 0 0 1 6.012-3.545 64 64 0 0 1 11.769-4.457L25.318 132c-.603-1.436-1.74-5.636-1.152-16.207.237-4.26.623-8.182 1.102-11.793h59.678l.845-.423c.556-.279 13.613-6.957 14.205-19.387.576-12.116-5.28-20.677-7.824-23.795-12.715-15.582-29.732-17.608-41.75-15.797 3.29-3.663 7.003-6.976 11.17-9.574 14.958-9.326 39.958-15.919 65.262-6.454 25.257 9.448 34.76 30.536 34.836 30.709.059.138 5.844 14.012 6.31 32.721 0 15.038-8.538 28.659-21.519 35.456a22 22 0 0 1 4.124 6.858C165.94 126.081 176 109.864 176 91.901c-.504-20.313-6.679-35.12-6.955-35.771zm-83.07 9.322c1.961 2.404 6.476 9.006 6.03 18.358-.304 6.42-6.811 10.852-9.048 12.19H26.572c2.012-10.394 4.654-17.293 6.067-20.962 2.024-5.257 5.27-12.592 9.854-19.85 6.71-3.641 28.79-7.741 43.48 10.264z"/></svg>