<svg xmlns="http://www.w3.org/2000/svg" viewBox="0 0 192 192"><path d="M169.044 72.13c-.428-.99-10.83-24.37-39.388-35.053-28.024-10.482-55.721-3.176-72.297 7.158-17.487 10.902-27.672 32.202-32.186 43.929-3.588 9.318-7.853 22.649-8.994 43.185-.88 15.815 1.523 24.103 7.14 24.633l122.487.018.743-.312c17.065-7.167 29.451-27.223 29.45-47.787-.504-20.313-6.679-35.12-6.955-35.771m-126.551-.942c6.71-3.641 28.79-7.741 43.48 10.264 1.962 2.404 6.477 9.006 6.031 18.358-.305 6.421-6.811 10.852-9.048 12.19H26.572c2.012-10.394 4.654-17.293 6.067-20.962 2.024-5.257 5.27-12.592 9.854-19.85M144.167 148 104 147.991 25.318 148c-.603-1.436-1.74-5.636-1.152-16.207.237-4.26.623-8.182 1.102-11.793h59.678l.845-.423c.556-.279 13.613-6.957 14.205-19.387.576-12.116-5.28-20.677-7.824-23.795-12.715-15.582-29.732-17.608-41.75-15.797 3.29-3.663 7.003-6.976 11.17-9.574 9.817-6.12 23.956-11.064 39.672-11.064 8.23 0 16.893 1.357 25.59 4.61 25.257 9.448 34.76 30.536 34.836 30.709.059.138 5.844 14.012 6.31 32.721 0 16.81-10.195 33.84-23.833 40"/></svg>