<svg xmlns="http://www.w3.org/2000/svg" xml:space="preserve" viewBox="0 0 192 192"><path d="m172.58 156.061-30.787-30.785A29.8 29.8 0 0 0 144 114c0-16.542-13.458-30-30-30s-30 13.458-30 30 13.458 30 30 30c3.984 0 7.785-.787 11.267-2.204l30.795 30.784c2.276 2.276 5.268 3.415 8.258 3.415s5.982-1.14 8.26-3.416c2.205-2.206 3.42-5.14 3.42-8.259s-1.215-6.053-3.42-8.259M92 114c0-12.131 9.87-22 22-22s22 9.869 22 22-9.87 22-22 22-22-9.87-22-22m74.922 52.922a3.684 3.684 0 0 1-5.204 0l-29.288-29.277a30.3 30.3 0 0 0 5.21-5.208l29.282 29.282A3.66 3.66 0 0 1 168 164.32c0 .983-.383 1.907-1.078 2.602M123.779 124h-19.558a13.96 13.96 0 0 1-4.061-8h27.68a13.96 13.96 0 0 1-4.06 8m24.389 52H104v-25.345a37.8 37.8 0 0 0 8 1.292V168h28.164zm-61.843-36H56v-16h21.345a37.8 37.8 0 0 1-1.292-8H48v24H16v36h72v-34.325A38 38 0 0 1 86.325 140M80 168H24v-20h56zm.543-72H68V76h56v1.345a37.8 37.8 0 0 1 8 3.198V68h-32V52h32V16H60v36h32v16H60v36h17.345a37.8 37.8 0 0 1 3.198-8M68 44V24h56v20z"/></svg>