<svg xmlns="http://www.w3.org/2000/svg" viewBox="0 0 192 192"><path d="M160.5 56H124V46c0-7.72-6.28-14-14-14H82c-7.72 0-14 6.28-14 14v10H31.5C22.95 56 16 62.95 16 71.5v73c0 8.55 6.95 15.5 15.5 15.5h75.84a39.5 39.5 0 0 1-2.54-8H48V64h96v40c2.74 0 5.42.28 8 .8V64h8.5c4.14 0 7.5 3.36 7.5 7.5v40.52a40.2 40.2 0 0 1 8 8.01V71.5c0-8.55-6.95-15.5-15.5-15.5M40 152h-8.5c-4.14 0-7.5-3.36-7.5-7.5v-73c0-4.14 3.36-7.5 7.5-7.5H40zm76-96H76V46c0-3.31 2.69-6 6-6h28c3.31 0 6 2.69 6 6zm37.17 77.17 5.66 5.66-6.83 6.83-12 12-5.66-5.66-5.17-5.17 5.66-5.66 5.17 5.17 4-4 8-8zM152 113.01c-2.56-.66-5.24-1.01-8-1.01-17.65 0-32 14.35-32 32 0 2.76.35 5.44 1.01 8 .74 2.84 1.85 5.53 3.29 8 5.54 9.56 15.88 16 27.7 16 17.15 0 31.18-13.55 31.97-30.51.01-.22.01-.44.02-.67.01-.11.01-.21.01-.32v-.5c0-8.1-3.03-15.5-8-21.15a32.03 32.03 0 0 0-16-9.84M144 168c-7.09 0-13.47-3.09-17.87-8-2.07-2.31-3.7-5.02-4.75-8-.9-2.5-1.38-5.2-1.38-8 0-13.23 10.77-24 24-24 2.8 0 5.5.48 8 1.38 9.31 3.29 16 12.19 16 22.62 0 .32-.01.63-.02.94-.22 5.75-2.47 10.97-6.05 14.99-4.4 4.95-10.81 8.07-17.93 8.07m14.83-29.17L140 157.66l-10.83-10.83 5.66-5.66 5.17 5.17 13.17-13.17z"/></svg>