<svg xmlns="http://www.w3.org/2000/svg" viewBox="0 0 192 192"><path fill="#1d1d1b" d="M176.084 136h-84V74.327l42.279-41.698 41.721 41.714zm-76-8h68V77.657l-33.76-33.753-34.24 33.769zm-71.019.226c-7.06 0-12.076-3.81-12.625-4.245l4.942-6.29c.033.025 3.354 2.535 7.683 2.535 3.194 0 4.898-.635 7.056-1.439 2.444-.91 5.213-1.942 9.85-1.942 7.059 0 12.075 3.81 12.624 4.245l-4.965 6.272c-.01-.007-3.33-2.517-7.66-2.517-3.194 0-4.898.635-7.057 1.44-2.443.91-5.212 1.941-9.848 1.941m0-14.846c-7.06 0-12.076-3.81-12.625-4.244l4.942-6.29c.033.025 3.354 2.535 7.683 2.535 3.194 0 4.898-.635 7.056-1.44 2.444-.91 5.213-1.941 9.85-1.941 7.059 0 12.075 3.81 12.624 4.245l-4.965 6.272c-.01-.007-3.33-2.517-7.66-2.517-3.194 0-4.898.635-7.057 1.439-2.443.91-5.212 1.942-9.848 1.942z"/><path fill="#1d1d1b" d="M76.294 160h-28.42c-4.295 0-7.79-3.4-7.79-7.58v-4.431h8V152h28V92h-28v4h-8v-4.42c0-4.18 3.495-7.58 7.79-7.58h28.42c4.296 0 7.79 3.4 7.79 7.58v60.84c0 4.18-3.494 7.58-7.79 7.58"/><path fill="#1d1d1b" d="M29.065 143.071c-7.06 0-12.076-3.81-12.625-4.244l4.942-6.29c.033.025 3.354 2.534 7.683 2.534 3.194 0 4.898-.634 7.056-1.439 2.444-.91 5.213-1.942 9.85-1.942 7.059 0 12.075 3.81 12.624 4.245l-4.965 6.273c-.01-.008-3.33-2.518-7.66-2.518-3.194 0-4.898.635-7.057 1.44-2.443.91-5.212 1.941-9.848 1.941"/></svg>