<svg xmlns="http://www.w3.org/2000/svg" viewBox="0 0 192 192"><path d="m40.097 129.373-8 8V81.17l64-64.865L124.44 45.03l-5.658 5.657-22.685-22.992-56 56.757zm101.161-55.906 10.84 10.985V168H46.724l-8 8h121.372V81.17l-13.182-13.36-5.657 5.657zM108 160v-8H84v8zm4-24H80v8h32zm52.59-119.903L16.096 164.59l11.314 11.314L175.903 27.41l-11.314-11.314zM96 64c2.803 0 5.538.427 8.135 1.238l6.196-6.195A35 35 0 0 0 96 56c-9.286 0-18.019 3.572-24.589 10.059-6.584 6.5-10.21 15.145-10.211 24.344a33.95 33.95 0 0 0 3.24 14.53l6.142-6.142a26.1 26.1 0 0 1-1.382-8.387c0-7.043 2.781-13.667 7.831-18.652C82.095 66.752 88.831 64 96 64m18 56.916c0-.359.708-1.116 2.103-2.249q.356-.288.64-.529c.324-.28.641-.546.954-.809.927-.78 1.884-1.585 2.892-2.58 6.585-6.5 10.211-15.146 10.211-24.346 0-2.046-.19-4.062-.54-6.035l-7.503 7.502c-.359 6.492-3.09 12.549-7.788 17.186-.781.771-1.542 1.41-2.422 2.151q-.5.418-1.019.864c-.136.117-.296.245-.468.386-1.643 1.334-5.06 4.109-5.06 8.46V128h8z"/></svg>