<svg xmlns="http://www.w3.org/2000/svg" viewBox="0 0 192 192"><path fill="#020202" d="m108.868 60.359-5.369-5.965L134 22.29l42 44.21v61.597h-32v-36h-6.569l-7.2-8H152v36h16V69.693l-34-35.79zM48 128.096V92h6.655l7.2-8H40v36.096H24V69.693l34-35.79L83.132 60.36l5.369-5.965L58 22.29 16 66.5v61.597h32zM136 164H56v-61.54l4-4.44 8-8.89 20.66-22.95.001-.001-.002-.002 5.368-5.965.003-.002L96 58.02l1.97 2.19.002.003 5.369 5.964-.002.002.001.001L124 89.13l8 8.89 4 4.44zm-48-8h16v-27.9H88zm-24-27.904V156h16v-36h32v36h16v-50.46l-3.473-3.863-.527-.586v-.001L97.814 71.994l-1.024-1.137-.79-.877-.79.877-1.024 1.138L68 101.09l-.527.587L64 105.54z"/></svg>