<svg xmlns="http://www.w3.org/2000/svg" viewBox="0 0 192 192"><path d="M143.273 80c7.036 0 13.013 2.392 17.179 4.719l5.518-5.518L168.798 99l-19.799-2.828 5.509-5.509C151.466 89.236 147.596 88 143.272 88c-7.174 0-11.12 1.702-15.688 3.673C122.882 93.701 117.553 96 108.727 96c-13.401 0-23.027-8.682-23.43-9.051l5.395-5.907c.077.07 7.815 6.958 18.034 6.958 7.174 0 11.12-1.702 15.688-3.673C129.116 82.299 134.445 80 143.271 80Zm17.179 28.719c-4.166-2.327-10.143-4.719-17.179-4.719-8.826 0-14.155 2.299-18.857 4.327-4.569 1.971-8.515 3.673-15.688 3.673-10.219 0-17.958-6.888-18.034-6.958l-5.395 5.907c.403.37 10.028 9.051 23.43 9.051 8.826 0 14.155-2.299 18.857-4.327 4.569-1.971 8.515-3.673 15.688-3.673 4.323 0 8.193 1.236 11.236 2.663l-5.509 5.509L168.8 123l-2.828-19.799-5.518 5.518Zm-.128 23.928c-4.16-2.304-10.087-4.647-17.051-4.647-8.826 0-14.155 2.299-18.857 4.327-4.569 1.971-8.515 3.673-15.688 3.673-10.219 0-17.958-6.888-18.034-6.958l-5.395 5.907c.403.37 10.028 9.051 23.43 9.051 8.826 0 14.155-2.299 18.857-4.327 4.569-1.971 8.515-3.673 15.688-3.673 4.259 0 8.076 1.2 11.097 2.6l-5.37 5.37 19.799 2.828-2.828-19.799-5.647 5.647ZM106 152H24V81.547L71.838 33.65l45.254 45.012c1.329-.465 2.651-1.033 4.155-1.682 1.21-.522 2.493-1.073 3.878-1.612L71.82 22.348 16 78.236v81.763h112v-8z"/></svg>