<svg xmlns="http://www.w3.org/2000/svg" viewBox="0 0 192 192"><path d="M96 18.904 16 82.062V176h160V82.062zM168 168H24V85.938l72-56.842 72 56.842zM58.902 101.247C59.6 101.983 76 119.48 76 137.73 76 150.01 67.028 160 56 160s-20-9.99-20-22.27c0-18.251 16.4-35.747 17.098-36.483L56 98.188l2.902 3.06zM116 137.73c0-18.25 16.4-35.746 17.098-36.482l2.902-3.06 2.902 3.06c.698.735 17.098 18.231 17.098 36.481 0 12.28-8.972 22.271-20 22.271s-20-9.99-20-22.27M93.098 49.247C92.4 49.983 76 67.48 76 85.73 76 98.01 84.972 108 96 108s20-9.99 20-22.27c0-18.251-16.4-35.747-17.098-36.483L96 46.188l-2.902 3.06zM108 85.73c0 7.87-5.383 14.27-12 14.27s-12-6.402-12-14.27c0-10.842 7.669-22.07 12.004-27.551C100.34 63.649 108 74.854 108 85.729z"/></svg>