<svg xmlns="http://www.w3.org/2000/svg" viewBox="0 0 192 192"><path d="M136.113 75.887c11.028 0 20-8.972 20-20s-8.972-20-20-20-20 8.972-20 20 8.972 20 20 20m0-32c6.616 0 12 5.384 12 12s-5.384 12-12 12-12-5.383-12-12 5.383-12 12-12m4-16h-8V16h8zm35.887 24v8h-11.887v-8zm-17.26-12.97-5.657-5.657 11.314-11.314 5.657 5.657zm-45.255 0L102.17 27.602l5.658-5.657 11.313 11.314-5.657 5.657zm39.598 39.598 5.657-5.657 11.314 11.313-5.657 5.658zM172 128h-8v8h-8v-8h-8v8h-4v12c0 7.439 5.11 13.69 12 15.473V168h-36v-66.333l-12.108-11.902 5.658-5.657 10.972 10.825 5.619-5.695-48.828-48.172-5.619 5.695 32.16 31.728-5.667 5.667L67.81 50.363 16 102.347V176h148v-12.527c6.89-1.783 12-8.034 12-15.473v-12h-4zm-96 40H60v-36h16zm36 0H84v-44H52v44H24v-62.347l43.867-44.016L112 105.021zm56-20c0 4.411-3.589 8-8 8s-8-3.589-8-8v-4h16z"/></svg>