<svg xmlns="http://www.w3.org/2000/svg" viewBox="0 0 192 192"><path fill="#1d1d1b" d="m96 18.343-64 64V176h128V82.343zM152 168H40V85.657l56-56 56 56zm-78.18-39.62c-6.912 0-11.815-3.845-12.35-4.284l5.04-6.211c.031.025 3.2 2.496 7.31 2.496 3.046 0 4.677-.628 6.744-1.423 2.384-.918 5.086-1.958 9.619-1.958 6.912 0 11.814 3.846 12.35 4.285l-5.064 6.192c-.008-.006-3.177-2.477-7.286-2.477-3.047 0-4.679.628-6.745 1.424-2.384.917-5.086 1.957-9.618 1.957zm0-15c-6.912 0-11.815-3.845-12.35-4.284l5.04-6.211c.031.025 3.2 2.496 7.31 2.496 3.046 0 4.677-.628 6.744-1.423 2.384-.918 5.086-1.958 9.619-1.958 6.912 0 11.814 3.846 12.35 4.285l-5.064 6.192c-.008-.006-3.177-2.477-7.286-2.477-3.047 0-4.679.628-6.745 1.424-2.384.917-5.086 1.957-9.618 1.957zM95.789 84h28.421c4.296 0 7.79 3.4 7.79 7.58v60.84c0 4.18-3.494 7.58-7.79 7.58H95.79c-4.296 0-7.79-3.4-7.79-7.58v-4.431h8V152h28V92H96v3.915h-8v-4.336C88 87.4 91.494 84 95.79 84zm-5.607 56c-3.047 0-4.679.628-6.745 1.424-2.384.917-5.086 1.957-9.618 1.957-6.912 0-11.815-3.846-12.35-4.285l5.04-6.211c.031.025 3.2 2.496 7.31 2.496 3.046 0 4.677-.628 6.744-1.423 2.384-.918 5.086-1.958 9.619-1.958 6.912 0 11.814 3.846 12.35 4.285l-5.064 6.192c-.008-.006-3.177-2.477-7.286-2.477"/></svg>