<svg xmlns="http://www.w3.org/2000/svg" viewBox="0 0 192 192"><path d="M120 176H16v-75.61l52.068-54.166L120 100.393zm-96-8h88v-64.392L68.06 57.777 24 103.61zm113.995-96c-9.925 0-18-8.075-18-18s8.075-18 18-18 18 8.075 18 18-8.075 18-18 18m0-28c-5.514 0-10 4.487-10 10s4.486 10 10 10 10-4.486 10-10-4.486-10-10-10m4-28h-8v12h8zm0 64h-8v12h8zm34.025-30H164v8h12.02zm-64.01 0H99.99v8h12.02zM76 89.212 46 128.97h20l-10 29.818 30-39.758H66zm46.456-13.992-5.656-5.656-8.486 8.485 5.657 5.656zm45.255-45.255-5.656-5.656-8.486 8.485 5.656 5.656zm-45.259 2.825-8.5-8.499-5.656 5.657 8.5 8.499zm45.262 45.263-8.5-8.5-5.656 5.656 8.5 8.5z"/></svg>