<svg xmlns="http://www.w3.org/2000/svg" viewBox="0 0 192 192"><path d="M104.805 152a39.7 39.7 0 0 0 2.545 8H32V78.237l55.82-55.888L144 78.23V104c-2.74 0-5.414.278-8 .805v-23.25L87.838 33.651 40 81.547V152zM108 92v24h-8v28h-8v-36h8V92c0-5.817-4.206-12-12-12s-12 6.183-12 12v16h8v36h-8v-28h-8V92c0-7.534 4.398-15.261 12.086-18.463C76.415 71.01 74 66.784 74 62c0-7.72 6.28-14 14-14s14 6.28 14 14c0 4.784-2.415 9.01-6.086 11.537C103.602 76.739 108 84.466 108 92M82 62c0 3.309 2.691 6 6 6s6-2.691 6-6-2.691-6-6-6-6 2.691-6 6m94 81.999C176 161.644 161.645 176 144.001 176 126.356 176 112 161.644 112 143.999S126.356 112 144.001 112 176 126.355 176 143.999m-8 0C168 130.766 157.234 120 144.001 120 130.767 120 120 130.766 120 143.999 120 157.233 130.767 168 144.001 168 157.234 168 168 157.233 168 143.999M144.055 152c-2.247 0-4.056 1.792-4.056 4 0 2.248 1.77 4.002 4.02 4.002A3.98 3.98 0 0 0 148 156c0-2.17-1.806-4-3.945-4M140 135.957 141.27 148h5.46l1.27-11.957V128h-8z"/></svg>