<svg xmlns="http://www.w3.org/2000/svg" viewBox="0 0 192 192"><path d="M84 160v-8h24v8zm28-24H80v8h32zm26.351-65.38L152 84.451V168H40.97l-8 8H160V81.17l-15.992-16.208-5.657 5.657zM40 84.451l56-56.757 25.495 25.84 5.657-5.657L96 16.305 32 81.17v61.86l8-8zm130.246-68.355-154.15 154.15 5.658 5.656 154.15-154.15zM96 64c4.3 0 8.44.997 12.161 2.868l5.889-5.888C108.663 57.737 102.467 56 96 56c-9.286 0-18.019 3.572-24.589 10.059-6.584 6.5-10.21 15.145-10.211 24.344a33.9 33.9 0 0 0 5.249 18.177l5.843-5.842A25.96 25.96 0 0 1 69.2 90.404c0-7.043 2.781-13.667 7.831-18.652C82.095 66.752 88.831 64 96 64m-15.03 64H86v-5.03zm33.03-7.084c0-.359.708-1.116 2.103-2.249q.356-.288.64-.529c.324-.28.641-.546.954-.809.927-.78 1.884-1.585 2.892-2.58 6.585-6.5 10.211-15.146 10.211-24.346 0-3.64-.577-7.192-1.672-10.56l-6.623 6.623q.294 1.94.295 3.938c0 7.043-2.781 13.667-7.831 18.652-.781.771-1.542 1.41-2.422 2.151q-.5.418-1.019.864c-.136.117-.296.245-.468.386-1.643 1.334-5.06 4.109-5.06 8.46V128h8z"/></svg>