<svg xmlns="http://www.w3.org/2000/svg" viewBox="0 0 192 192"><path d="M56.017 155.462c-6.18 0-12.315-1.448-17.99-4.314-9.538-4.816-16.63-13.058-19.967-23.208s-2.525-20.991 2.291-30.528 13.058-16.629 23.208-19.967l.003-.001 123.99-40.69 7.498 22.798-123.995 40.693C42.677 103 38.1 112.06 40.858 120.44c2.756 8.381 11.816 12.958 20.198 10.2l60.796-19.996 7.5 22.797-60.797 19.997a40.1 40.1 0 0 1-12.538 2.023zm-9.958-70.418c-16.762 5.514-25.913 23.635-20.4 40.396 2.671 8.12 8.343 14.714 15.973 18.567s16.304 4.504 24.423 1.833l53.196-17.497-2.499-7.6-53.196 17.498c-12.573 4.137-26.162-2.728-30.298-15.3-4.134-12.57 2.729-26.162 15.3-30.297L164.95 54.448l-2.5-7.6L46.056 85.045h.003z"/></svg>