<svg xmlns="http://www.w3.org/2000/svg" viewBox="0 0 192 192"><path d="M115.594 92H84V37.99C84 30.276 90.276 24 97.99 24s13.99 6.276 13.99 14.003l.02 6.01 8-.026-.02-5.997c0-12.125-9.865-21.99-21.99-21.99S76 25.865 76 37.99v115.008C76 165.68 86.319 176 99.002 176c6.487 0 12.703-2.758 17.056-7.568s6.478-11.269 5.83-17.752zm-5.468 71.064c-2.88 3.183-6.831 4.936-11.124 4.936C90.73 168 84 161.27 84 152.998V100h24.406l5.525 51.505c.426 4.271-.925 8.376-3.805 11.559M53.073 53.439 65.207 68 53.073 82.56l-6.146-5.12L51.46 72H28v-8h23.46l-4.533-5.44 6.146-5.12zM132 64v8h-23.46l4.533 5.44-6.146 5.12L94.793 68l12.134-14.56 6.146 5.12L108.54 64zm-28 92a4 4 0 1 1-8 0 4 4 0 0 1 8 0"/></svg>