<svg xmlns="http://www.w3.org/2000/svg" viewBox="0 0 192 192"><path d="M99.376 75.967 86.843 88.5l-35.788 11.745C42.677 103 38.1 112.06 40.858 120.44a15.9 15.9 0 0 0 5.988 8.055l-5.72 5.721a23.86 23.86 0 0 1-7.868-11.276c-4.134-12.57 2.729-26.162 15.3-30.297zM29.75 145.593l5.68-5.68c-4.504-3.783-7.887-8.745-9.77-14.473-5.514-16.76 3.637-34.882 20.398-40.395l65.85-21.61 12.533-12.533-80.88 26.542h-.002c-10.15 3.34-18.392 10.43-23.208 19.968s-5.63 20.379-2.291 30.528c2.281 6.938 6.319 12.982 11.69 17.653m132.49-98.676.21-.069 2.5 7.6-15.243 5.002-12.532 12.532 37.875-12.43-6.298-19.147zm-75.166 75.166-12.55 12.55 42.228-13.89 2.5 7.6-53.197 17.497a32 32 0 0 1-3.711.973l-8.583 8.583q1.126.065 2.256.066a40.1 40.1 0 0 0 12.538-2.023l60.796-19.997-7.5-22.797-34.777 11.439zm87.755-99.254-5.658-5.658-152 152 5.658 5.658z"/></svg>