<svg xmlns="http://www.w3.org/2000/svg" viewBox="0 0 192 192"><path d="m96 140.343 17.829 17.828-5.658 5.658-8.17-8.172V176h-8v-20.344l-8.172 8.173-5.658-5.658zM113.829 33.83l-5.658-5.658-8.17 8.172V16h-8v20.344l-8.172-8.173-5.658 5.658L96 51.657l17.829-17.828zm-85.658 50L36.344 92H16v8h20.343l-8.172 8.171 5.658 5.658L51.657 96 33.829 78.171zM132 57.158v61.514l-7.095-8.666a59 59 0 0 0-2.66-2.996c-3.883 12.401-15.626 20.794-30.328 20.794-17.556 0-31.838-14.282-31.838-31.837s14.282-31.838 31.838-31.838c7.4 0 11.51.954 18.535 4.51 7.536-3.152 15.416-7.829 15.5-7.88zm-8 13.848c-3.467 1.839-7.976 4.075-12.306 5.757l-1.702.662-1.615-.853c-6.92-3.654-9.844-4.443-16.46-4.443-13.145 0-23.838 10.694-23.838 23.838s10.693 23.837 23.837 23.837c12.748 0 22.21-7.806 23.542-19.173-3.151-2.63-6.742-5.183-10.46-7.076.144.784.23 1.587.23 2.412 0 7.34-5.972 13.312-13.311 13.312-7.34 0-13.313-5.972-13.313-13.312 0-5.9 3.862-10.908 9.187-12.65l-.001-.003.035-.009c.725-.235 1.479-.4 2.251-.507 12.947-2.238 26.109 7.436 33.924 14.716zm-37.396 24.96a5.32 5.32 0 0 0 5.312 5.313 5.32 5.32 0 0 0 5.312-5.312 5.32 5.32 0 0 0-5.311-5.312c-.223 0-.435.04-.651.066a14 14 0 0 0-.997.222c-2.12.698-3.665 2.674-3.665 5.024zM176 92h-20.344l8.173-8.171-5.658-5.658L140.343 96l17.828 17.829 5.658-5.658-8.172-8.17H176v-8z"/></svg>