<svg xmlns="http://www.w3.org/2000/svg" viewBox="0 0 192 192"><path d="m82.202 176.106.13-.106h-.215zm3.167-76.459 2.503-11.403c-4.555-8.042-8.23-16.511-8.23-28.718 0-22.284 14.899-37.568 15.044-37.714l-5.625-5.625c-.71.71-17.374 17.67-17.374 43.34 0 17.311 6.467 28.093 12.723 38.52zm58.195-14.007 22.582 20.792 5.417-5.886-19.217-17.694L177 75.022l-2.422-7.625-24.654 7.83 5.487-25.541-7.822-1.681-6.448 30.01-37.717 11.979 8.805-39.043 28.74-8.986-2.386-7.636-24.32 7.604 5.45-24.172-7.804-1.76L76.23 174.217l7.804 1.76 5.515-24.452 19.447 17.589 5.366-5.934-22.793-20.614 8.748-38.789 29.3 26.738-6.715 29.953 7.807 1.75 5.715-25.492 19.11 17.438 5.392-5.91-19.11-17.437 24.864-8.018-2.455-7.614-29.215 9.42-29.467-26.89zM23.955 59.526c0-22.284 14.9-37.568 15.044-37.714l-5.625-5.625c-.71.71-17.374 17.67-17.374 43.34 0 17.311 6.468 28.093 12.724 38.52 5.96 9.934 11.59 19.318 11.59 34.427 0 22.04-18.586 37.273-18.774 37.424L24.03 173l2.486 3.106c.887-.71 21.753-17.703 21.753-43.632 0-17.312-6.468-28.094-12.724-38.52-5.96-9.935-11.59-19.319-11.59-34.428"/><path d="M51.799 59.526c0-22.284 14.9-37.568 15.044-37.714l-5.625-5.625c-.71.71-17.374 17.67-17.374 43.34 0 17.311 6.468 28.093 12.723 38.52 5.96 9.934 11.59 19.318 11.59 34.427 0 22.04-18.587 37.273-18.774 37.424l2.49 3.102 2.485 3.106c.888-.71 21.754-17.703 21.754-43.632 0-17.312-6.467-28.094-12.723-38.52-5.96-9.935-11.59-19.319-11.59-34.428"/></svg>