<svg xmlns="http://www.w3.org/2000/svg" viewBox="0 0 192 192"><path d="m175.933 71.269-7.869 1.445c.075.426 1.61 9.66-4.813 14.476-4.619-3.136-9.86-4.922-15.103-5.05-5.982-.155-11.467 1.961-15.404 5.934l-.247.273c-.485.589-49.225 58.925-108.69 61.802-3.963.192-7.05 3.16-7.678 7.383-.675 4.529 1.67 8.833 5.578 10.234 16.454 5.898 31.96 8.204 46.153 8.204 23.642 0 43.637-6.402 58.278-13.269 24.374-11.431 39.017-26.144 40.631-27.81 5.258-4.676 8.42-11.74 8.908-19.915.511-8.585-2.033-17.577-6.335-22.435 7.034-6.299 7.531-16.212 6.59-21.272zm-53.464 84.317c-32.016 14.933-65.008 16.497-98.063 4.649-.101-.037-.254-.285-.334-.637-.152-.678.026-1.258.154-1.46 33.045-1.609 62.421-19.142 81.25-33.571a236 236 0 0 0 22.882-20.03l8.494 2.667 3.986 11.958 11.162 3.72v14.397c-6.65 5.298-16.73 12.335-29.531 18.307M167.69 114.5c-.256 4.309-1.563 10.32-6.325 14.49l-.262.251c-.022.024-.396.412-1.103 1.092v-13.216l-12.838-4.28-4.014-12.041-8.592-2.698c2.194-2.385 3.557-3.994 3.986-4.509 3.02-2.964 6.766-3.512 9.412-3.451 5.426.132 11.168 2.995 15.362 7.66 2.503 2.784 4.809 9.414 4.374 16.702"/></svg>