<svg xmlns="http://www.w3.org/2000/svg" viewBox="0 0 192 192"><path fill="#020204" d="m20.66 127.95-1.32-7.9c5.02-.83 12.12-3.32 17.46-10.45a3.997 3.997 0 0 1 6.4 0C48.3 116.4 56.88 120 68 120s19.7-3.6 24.8-10.4a3.997 3.997 0 0 1 6.4 0c3.07 4.1 7.41 7.03 12.8 8.71v8.28c-6.33-1.59-11.78-4.49-16-8.57-6.7 6.47-16.46 9.98-28 9.98s-21.25-3.49-27.95-9.93c-6.39 6.47-13.88 8.96-19.39 9.88M155.2 109.6a3.997 3.997 0 0 0-6.4 0c-3.07 4.1-7.41 7.03-12.8 8.71v8.28c6.32-1.58 11.75-4.48 15.97-8.54 5.89 5.87 12.84 8.28 19.06 9.83l1.94-7.76c-6.32-1.58-12.84-3.95-17.77-10.52m0 36a4 4 0 0 0-6.4 0c-5.103 6.804-13.678 10.4-24.8 10.4s-19.697-3.596-24.8-10.4a4 4 0 0 0-6.4 0C87.697 152.404 79.122 156 68 156s-19.697-3.596-24.8-10.4a4 4 0 0 0-6.4 0c-5.345 7.126-12.443 9.619-17.458 10.454l1.315 7.892c5.516-.919 13-3.407 19.388-9.879 6.7 6.439 16.437 9.933 27.954 9.933s21.298-3.509 28-9.977c6.702 6.468 16.457 9.977 28 9.977s21.268-3.499 27.968-9.947c5.891 5.866 12.844 8.273 19.062 9.827l1.94-7.761c-6.316-1.579-12.84-3.946-17.77-10.52ZM32 40V20c0-2.21 1.79-4 4-4h60c2.21 0 4 1.79 4 4v36h32c2.21 0 4 1.79 4 4h12c4.82 0 12 3.2 12 12v20c0 4.82-3.2 12-12 12h-16c-1.8.05-4 .78-4 4v24a4 4 0 0 1 4 4v8a4 4 0 0 1-4 4h-8a4 4 0 0 1-4-4v-8a4 4 0 0 1 4-4v-24c0-8.8 7.18-12 12-12h16c3.22 0 3.95-2.2 4-4.05V72c0-3.22-2.2-3.95-4.05-4H136c0 2.21-1.79 4-4 4h-32v16c0 2.21-1.79 4-4 4H60c-2.21 0-4-1.79-4-4v-8H44c-2.21 0-4-1.79-4-4V52c0-2.21 1.79-4 4-4h12v-4H36c-2.21 0-4-1.79-4-4m24 32V56h-8v16zm36-4V44H64v40h28zM40 36h52V24H40zm32 24h12v-8H72zm0 16h12v-8H72z"/></svg>