<svg xmlns="http://www.w3.org/2000/svg" viewBox="0 0 192 192"><path d="M96 76c-11.028 0-20 8.972-20 20s8.972 20 20 20 20-8.972 20-20-8.972-20-20-20m0 32c-6.617 0-12-5.383-12-12s5.383-12 12-12 12 5.383 12 12-5.383 12-12 12m60-16h-8V76h-16V64h12v-8h-12.228C129.922 39.34 116.66 26.078 100 24.228V16h-8v8.228C75.34 26.078 62.078 39.34 60.228 56H48v8h12v12H44v16h-8v8h8v16h16v36H48v24h96v-24h-12v-36h16v-16h8zM96 32c14.082 0 25.768 10.449 27.715 24h-55.43C70.232 42.449 81.918 32 96 32m-44 76V84h8v24zm84 52v8H56v-8h12V64h56v96zm4-52h-8V84h8z"/></svg>