<svg xmlns="http://www.w3.org/2000/svg" viewBox="0 0 192 192"><path d="m103.791 109.766 5.657-5.657L87.71 82.373l-1.851 1.851-.032-.031-22.73 22.66-3.792-3.72-42.46 42.546 5.662 5.65 36.857-36.93 3.776 3.705 2.96-2.95 14.603 6.35-7.126 7.126 3.78 3.78-36.938 36.867 5.652 5.662 42.606-42.523-3.786-3.786 18.88-18.882.019.018zm-31.597-.686 3.86-3.847 14.58 6.34-3.85 3.85zm24.52-3.588-14.567-6.334 5.527-5.509 10.442 10.442zm69.698-20.528a4 4 0 0 0-.037-.383 4 4 0 0 0-.08-.375 4 4 0 0 0-.11-.37 4 4 0 0 0-.157-.363 4 4 0 0 0-.18-.34 4 4 0 0 0-.236-.34c-.05-.067-.087-.14-.142-.204l-11.35-13.242a4 4 0 0 0-.208-.225l-.955-.954 21.872-21.872-5.658-5.657L147.3 62.51l-18.025-18.025 21.871-21.871-5.657-5.657-21.872 21.87-2.337-2.337-.025-.024-.003-.003-.004-.004q-.041-.04-.084-.08l-12.296-11.35c-.08-.073-.171-.125-.255-.191-.109-.086-.214-.175-.329-.248-.114-.071-.233-.126-.352-.185-.115-.057-.227-.12-.346-.164-.128-.05-.26-.081-.391-.117-.117-.03-.231-.067-.35-.088-.136-.024-.273-.03-.41-.04-.119-.008-.235-.021-.353-.02-.137.003-.272.023-.408.04-.119.014-.237.023-.354.048-.133.029-.261.074-.391.116-.116.037-.232.07-.345.117-.126.054-.244.125-.364.192-.11.06-.22.116-.325.188-.112.077-.214.17-.32.26-.081.07-.17.126-.248.204l-22.701 22.7c-.05.05-.085.11-.132.162a4 4 0 0 0-.803 1.35 4 4 0 0 0-.11 2.262 3.9 3.9 0 0 0 .67 1.423c.04.055.068.117.113.17L91.242 66.45q.114.14.241.268l32.158 32.633.014.013.007.008.016.013q.1.101.21.195l13.241 11.35c.074.063.156.108.233.165.088.066.174.132.266.19.13.08.264.145.4.21.09.042.176.09.267.125.158.06.318.102.48.142.077.019.15.046.228.06q.361.069.727.07h.002q.406-.002.804-.084c.083-.017.162-.05.244-.073.179-.048.356-.099.528-.173.1-.042.191-.1.287-.15.146-.078.291-.156.43-.253.097-.069.187-.15.28-.229.084-.071.176-.13.256-.209l22.7-22.7c.06-.06.102-.13.158-.192q.14-.156.262-.321a4 4 0 0 0 .204-.325c.067-.116.13-.23.185-.351.053-.119.096-.239.138-.36a4 4 0 0 0 .109-.368c.03-.126.049-.252.066-.38a4 4 0 0 0 .036-.378q.005-.191-.007-.382m-26.889 17.481-7.15-6.128 18.484-18.484 6.129 7.15zm-39.581-38.54 18.537-18.902 26.946 26.947-18.914 18.915-26.57-26.96zM88.848 50.932l17.418-17.418 6.442 5.946-18.112 18.47zm30.922 61.739c2.187 3.733 5.279 8.596 5.279 13.423 0 5.581-4.035 10.067-9.05 10.067-5.014 0-9.049-4.486-9.049-10.03 0-4.864 3.092-9.689 5.28-13.422 2.337-3.997 3.77-6.711 3.77-6.711s1.433 2.714 3.77 6.673m0 40c2.187 3.733 5.279 8.596 5.279 13.423 0 5.581-4.035 10.067-9.05 10.067-5.014 0-9.049-4.486-9.049-10.03 0-4.864 3.092-9.689 5.28-13.422 2.337-3.997 3.77-6.711 3.77-6.711s1.433 2.714 3.77 6.673"/></svg>