<svg xmlns="http://www.w3.org/2000/svg" viewBox="0 0 192 192"><path d="m29.657 173.657-11.314-11.314 144-144 11.314 11.314zM39.769 58.574l29.928-.133L84.79 84.583l5.856-5.856-14.021-24.286L91.704 28.59l-6.91-4.031L72.017 46.46 59.464 24.718l-6.928 4L65.09 50.46l-25.356.113zm123.704 11.41-6.946-3.968L141.679 92h-19.052l-8 8h27.052l14.848 25.984 6.946-3.968L150.893 100H176v-8h-25.107zm-25.637-38.447 1.628-2.82-6.928-4-12.554 21.744-12.775-21.902-6.91 4.03 14.915 25.572zm-109.31 90.479 6.947 3.968L50.321 100h19.052l8-8H50.321L35.473 66.016l-6.946 3.968L41.107 92H16v8h25.107l-12.58 22.016zm25.638 38.447-1.628 2.82 6.928 4 12.554-21.744 12.775 21.902 6.91-4.03-14.915-25.572zm98.067-27.037-29.928.133-15.093-26.142-5.856 5.856 14.021 24.286-15.079 25.851 6.91 4.031 12.776-21.902 12.554 21.743 6.928-4-12.554-21.743 25.356-.113z"/></svg>