<svg xmlns="http://www.w3.org/2000/svg" viewBox="0 0 192 192"><path fill="#1a1a18" d="M176 100h-25.107l12.58 22.016-6.946 3.968L141.679 100h-38.751l19.375 33.559 29.928-.133.035 8-25.356.113 12.554 21.743-6.928 4-12.554-21.743-12.775 21.902-6.91-4.03 15.078-25.852L96 103.999l-19.375 33.56 15.079 25.851-6.91 4.031-12.776-21.902-12.554 21.743-6.928-4L65.09 141.54l-25.356-.113.035-8 29.928.133L89.072 100h-38.75l-14.849 25.984-6.946-3.968L41.107 100H16v-8h25.107l-12.58-22.016 6.946-3.968L50.321 92h38.751L69.697 58.441l-29.928.133-.035-8 25.356-.113-12.554-21.743 6.928-4L72.018 46.46l12.775-21.9 6.91 4.03-15.078 25.852L96 88.001l19.375-33.56-15.079-25.851 6.91-4.031 12.776 21.902 12.554-21.743 6.928 4L126.91 50.46l25.356.113-.035 8-29.928-.133L102.928 92h38.75l14.849-25.984 6.946 3.968L150.893 92H176z"/></svg>