<svg xmlns="http://www.w3.org/2000/svg" viewBox="0 0 192 192"><path d="m152.121 58.464-38.585-38.585A13.16 13.16 0 0 0 104.171 16H65.244C49.119 16 36 29.119 36 45.244v101.512C36 162.881 49.119 176 65.244 176h61.512C142.881 176 156 162.881 156 146.756V67.829c0-3.537-1.377-6.864-3.879-9.365M108 25.657 146.343 64H120c-6.617 0-12-5.383-12-12zM126.756 168H65.244C53.53 168 44 158.47 44 146.756V45.244C44 33.53 53.53 24 65.244 24H100v28c0 11.028 8.972 20 20 20h28v74.756C148 158.47 138.47 168 126.756 168M88 84h-8v-8h8zm8-8h-8v-8h6.243A28 28 0 0 0 96 71.43zm24 32v-8h-8V84H96v8h8v16h-8v16H80v8h8v8H64v-8h8v-8h8v-8H64V92h8v16h8v8h8v-16h8v-8H80v-8H64V68h-8v80h80v-8h-16v-8h8v-8h8v-24h-8v8zm-8 32H96v-8h8v-8h8zM80 68v8h-8v-8zm40 24h8v8h-8zm8-8h8v8h-8z"/></svg>