<svg xmlns="http://www.w3.org/2000/svg" viewBox="0 0 192 192"><path d="M139.795 84c-6.617 0-12 5.383-12 12s5.383 12 12 12 12-5.383 12-12-5.383-12-12-12m0 16c-2.206 0-4-1.794-4-4s1.794-4 4-4 4 1.794 4 4-1.794 4-4 4m35.387-10.602-.501-2.706-8.086-1.49q-.105-.259-.214-.516l4.664-6.773-1.557-2.268a36 36 0 0 0-9.337-9.337l-2.268-1.557-6.772 4.665a26 26 0 0 0-.516-.214l-1.49-8.085-2.705-.502a35.9 35.9 0 0 0-13.205 0l-2.705.502-1.49 8.085q-.258.105-.516.214l-6.772-4.665-2.268 1.557a36 36 0 0 0-9.338 9.337l-1.558 2.268 4.665 6.773q-.11.257-.214.516l-8.085 1.49-.502 2.705c-.408 2.197-.615 4.418-.615 6.603s.207 4.405.615 6.603l.502 2.705 8.085 1.49q.105.259.214.516l-4.665 6.771 1.557 2.268a36 36 0 0 0 9.338 9.338l2.268 1.558 6.77-4.663q.258.111.52.216l1.489 8.082 2.705.502c2.197.408 4.418.615 6.603.615s4.405-.207 6.603-.615l2.705-.502 1.49-8.085q.259-.105.516-.214l6.773 4.665 2.268-1.558a36 36 0 0 0 9.337-9.338l1.557-2.268-4.664-6.772q.11-.257.214-.516l8.086-1.49.501-2.706c.407-2.198.614-4.419.614-6.602s-.207-4.404-.614-6.602Zm-7.498 9.064-7.2 1.327-.71 2.325a21 21 0 0 1-1.529 3.687l-1.143 2.146 4.155 6.033a28 28 0 0 1-3.482 3.482l-6.034-4.156-2.146 1.144a20.7 20.7 0 0 1-3.686 1.529l-2.325.71-1.327 7.2a27.4 27.4 0 0 1-4.924 0l-1.328-7.206-2.331-.707a20 20 0 0 1-3.678-1.527l-2.146-1.144-6.033 4.156a28 28 0 0 1-3.482-3.481l4.156-6.034-1.144-2.146a20.7 20.7 0 0 1-1.529-3.686l-.71-2.325-7.2-1.327a27.6 27.6 0 0 1 0-4.924l7.2-1.327.71-2.325a20.7 20.7 0 0 1 1.529-3.686l1.144-2.146-4.156-6.034a28 28 0 0 1 3.482-3.482l6.034 4.156 2.146-1.144a21 21 0 0 1 3.685-1.53l2.324-.71 1.327-7.2a27.4 27.4 0 0 1 4.924 0l1.327 7.2 2.325.71c1.266.386 2.506.901 3.686 1.529l2.146 1.144 6.034-4.156a28 28 0 0 1 3.482 3.481l-4.155 6.033 1.143 2.146a21 21 0 0 1 1.529 3.687l.71 2.325 7.2 1.327a27.6 27.6 0 0 1 0 4.924ZM42.499 110.107C38.429 106.133 36 100.74 36 95.681 36 84.829 44.972 76 56 76s20 8.829 20 19.681c0 5.174-2.256 10.344-6.189 14.186-.578.563-1.543 1.506-1.644 1.794-.167.478-.167 2.103-.167 3.824V120h-8v-4.515c0-6.129.312-7.525 4.221-11.342 2.366-2.311 3.778-5.474 3.778-8.462 0-6.441-5.383-11.681-12-11.681s-12 5.24-12 11.681c0 2.861 1.604 6.277 4.088 8.703 3.76 3.672 3.932 5.354 3.909 10.115L51.992 120h-8l.004-5.54c.006-1.184.012-2.526-.095-2.821-.061-.132-.354-.507-1.403-1.532ZM96 100H84v-8h12zM52 68.002V56h8v12.002zM16.074 92H28v8H16.074zM64 46.273H38.266V19.999h8v13.218c14.04-11.152 31.381-17.218 49.739-17.218 21.465 0 41.555 8.269 56.569 23.282l-5.657 5.657c-13.503-13.503-31.584-20.939-50.912-20.939-15.86 0-30.876 5.016-43.216 14.273h11.21v8ZM128 146h25.733v26h-8v-13.139c-14.073 11.103-31.43 17.138-49.791 17.138-21.462 0-41.533-8.223-56.515-23.152l5.647-5.667c13.471 13.426 31.536 20.819 50.867 20.819 15.755 0 30.692-4.914 43.007-14h-10.949v-8Zm-79.864-17.999h16v8h-16zM36.64 74.588l-5.657 5.657-8.487-8.487 5.657-5.657zm53.162-2.83-8.487 8.487-5.657-5.657 8.487-8.487z"/></svg>