<svg xmlns="http://www.w3.org/2000/svg" viewBox="0 0 192 192"><path d="M153 97.894V80h-3V61.395C150 36.365 129.364 16 104 16S58 36.364 58 61.395V64h-5.5L49 76H32v100h60v-16h32V96H92V76H75l-3.5-12H66v-2.605C66 40.775 83.047 24 104 24s38 16.775 38 37.395V80h-3v17.894c-4.177 2.425-7 6.938-7 12.106 0 7.72 6.28 14 14 14s14-6.28 14-14c0-5.168-2.823-9.68-7-12.106M40 104h44v48H40zm44 64H40v-8h44zm32-64v48H92v-48zM84 84v12H40V84h15l3.5-12h7L69 84zm62 32c-3.309 0-6-2.691-6-6s2.691-6 6-6 6 2.691 6 6-2.691 6-6 6m-38 24a4 4 0 1 1-8 0 4 4 0 0 1 8 0m-8-24a4 4 0 1 1 8 0 4 4 0 0 1-8 0"/></svg>