<svg xmlns="http://www.w3.org/2000/svg" viewBox="0 0 192 192"><path d="M151.805 144c-.544-10.825-2.084-41.148-2.62-47.92-.486-6.169-2.013-13.54-9.185-17.604V44h-24v26.28c-3.653-1.748-7.999-4.83-7.999-9.604V24h-24v36.676c0 4.776-4.348 7.858-8.001 9.604V44H52v34.477c-7.168 4.064-8.697 11.434-9.184 17.6-.537 6.774-2.077 37.098-2.621 47.923H32v24h128v-24zM50.791 96.707c.637-8.064 3.02-10.562 6.66-11.98L60 83.736V52h8v29.063l4.925-1.171c.78-.186 19.076-4.704 19.076-19.216V32h8v28.676c0 14.512 18.295 19.03 19.073 19.216L124 81.063V52h8v31.736l2.55.992c3.64 1.417 6.025 3.915 6.659 11.98.515 6.499 2.027 36.193 2.585 47.292H48.206c.558-11.099 2.07-40.793 2.585-47.293M152 160H40v-8h112z"/></svg>