<svg xmlns="http://www.w3.org/2000/svg" viewBox="0 0 192 192"><path d="M144 134.634V57.369c0-5.166-3.995-9.369-8.905-9.369H88.896C83.991 48 80 52.203 80 57.37v77.264c0 5.164 3.99 9.366 8.896 9.366h46.2c4.91 0 8.904-4.202 8.904-9.366M88.896 136c-.423 0-.896-.584-.896-1.366V57.369c0-.784.473-1.369.896-1.369h46.2c.426 0 .904.585.904 1.37v77.264c0 .782-.478 1.366-.905 1.366zM108 36a4 4 0 1 1 8 0 4 4 0 0 1-8 0m8 120a4 4 0 1 1-8 0 4 4 0 0 1 8 0m44-55V51c0-7.946 0-12.411-5.612-18.349-1.414-1.812-6.008-4.84-21.88-14.581a14 14 0 0 0-7.324-2.07H99.508c-3.167 0-6.273 1.09-8.746 3.068L54.597 48H36.143L28 56.143v79.714L36.143 144h18.454l36.165 28.932A14.05 14.05 0 0 0 99.508 176h25.676c2.587 0 5.12-.716 7.324-2.07 15.872-9.742 20.466-12.77 21.88-14.581C160 153.41 160 148.946 160 141zM39.457 136 36 132.543V59.457L39.457 56H64v80zm108.783 18.2-.421.429c-1.676 1.296-8.095 5.486-19.496 12.484a6 6 0 0 1-3.14.887H99.509a6.02 6.02 0 0 1-3.748-1.315L67.403 144H72V48h-4.597L95.76 25.315A6.03 6.03 0 0 1 99.508 24h25.676a6 6 0 0 1 3.14.888c11.4 6.997 17.82 11.187 19.495 12.483l.421.43C152 41.634 152 43.248 152 51v90c0 7.752 0 9.366-3.76 13.2"/></svg>