<svg xmlns="http://www.w3.org/2000/svg" viewBox="0 0 192 192"><path d="M155.43 98.057c0 3.565-2.318 5.98-5.737 5.98s-5.753-2.415-5.753-5.964c0-1.864.648-3.484 1.831-4.57 1.07-.972 2.333-1.426 3.986-1.426 3.355 0 5.672 2.447 5.672 5.98zm-8.184 0c0 2.236.842 3.42 2.43 3.42s2.448-1.184 2.448-3.404c0-2.269-.843-3.435-2.48-3.435-1.556 0-2.398 1.215-2.398 3.419m18.484-5.802v2.512h-5.136v2.496h3.889v2.398h-3.89v4.18h-3.192V92.256h8.33zm10.27 0v2.512h-5.137v2.496h3.89v2.398h-3.89v4.18h-3.192V92.256H176zm-29.45-58.264C132.333 22.389 114.381 16 96 16c-44.112 0-80 35.888-80 80s35.888 80 80 80c24.139 0 45.183-9.878 59.988-27.979l.012 19.981 8-.004-.021-35.981L128 132l-.003 8 24.08.01C138.728 158.083 118.923 168 96 168c-39.701 0-72-32.299-72-72s32.299-72 72-72c33.08 0 62.217 23.031 69.965 55h8.17l.052-.011c-3.808-17.58-13.624-33.561-27.638-44.998zM96 36a4 4 0 1 0 0 8 4 4 0 0 0 0-8M40 92a4 4 0 1 0 0 8 4 4 0 0 0 0-8m56-36c-22.091 0-40 17.909-40 40s17.909 40 40 40 40-17.909 40-40-17.909-40-40-40m4 68a4 4 0 0 1-8 0V68a4 4 0 0 1 8 0z"/></svg>