<svg xmlns="http://www.w3.org/2000/svg" viewBox="0 0 192 192"><path d="M152 88h24v16h-24v-4.167c-14.569-1.366-25.239-1.132-33.023-.209l-.8-.8-6.194-6.194c8.892-1.717 21.687-2.506 40.017-.839zm24-56V16h-24v4c-33.574 0-53.168 18.213-58.489 54.158l12.337 12.337a23 23 0 0 1 2.4-1.884C116.66 78.897 131.38 76 152 76v4h24V64h-24v4c-24.077 0-40.962 3.944-50.56 11.753 3.806-17.596 16.344-27.195 50.56-27.72V56h24V40h-24v4.026c-22.188.353-36.524 4.65-45.595 12.025a55 55 0 0 1 3.064-6.264C117.887 35.127 131.799 28 152 28v4zM40 100.206c7.07.643 13.323.924 18.842.924 8.79 0 15.712-.708 21.171-1.763l-6.19-6.19-.8-.8C65.24 93.3 54.57 93.534 40 92.167V88H16v16h24zm46.152 5.299a23 23 0 0 1-2.4 1.884C75.34 113.103 60.62 116 40 116v-4H16v16h24v-4c24.077 0 40.962-3.944 50.56-11.753-3.806 17.596-16.344 27.195-50.56 27.72V136H16v16h24v-4.026c22.188-.353 36.524-4.65 45.595-12.025a55 55 0 0 1-3.064 6.264C74.113 156.873 60.201 164 40 164v-4H16v16h24v-4c33.574 0 53.168-18.213 58.489-54.158zm.884-25.54-7.072 7.07 25 25 7.072-7.07z"/></svg>