<svg xmlns="http://www.w3.org/2000/svg" viewBox="0 0 192 192"><path d="M158.633 93.947 157.47 92H132V68h4v-8h-4.002l-.003-8.523-3.494-.446a21 21 0 0 1-.456-.07V32.153h-12v15.24C111.752 45.368 108 42.357 108 38V16H84v22c0 3.812-3.646 6.795-8 8.958V32H64v18.934c-.231.045-.454.086-.658.12L60 51.611V60h-4v8h4v24H34.283l-1.09 2.269c-.212.442-5.193 10.95-5.193 22.244 0 11.384 5.057 20.97 5.272 21.373l1.13 2.114H60v36h72v-36h25.308l1.191-1.738c.225-.327 5.501-8.179 5.501-21.75 0-13.437-5.148-22.199-5.367-22.565M68 58.257C75.479 56.478 92 51.068 92 38V24h8v14c0 13.733 16.563 18.78 24 20.354V60H68zM68 68h56v24H68zm56 32v32H68v-32zm-84.642 32C38.08 128.96 36 123.008 36 116.513c0-6.632 2.157-13.179 3.453-16.513H60v32zM124 168H68v-28h56zm28.828-36H132v-32h20.71c1.25 2.883 3.29 8.77 3.29 16.513 0 7.579-1.958 12.91-3.172 15.487M52 116a4 4 0 1 1-8 0 4 4 0 0 1 8 0m96 0a4 4 0 1 1-8 0 4 4 0 0 1 8 0"/></svg>