<svg xmlns="http://www.w3.org/2000/svg" viewBox="0 0 192 192"><path d="M150.017 80H40c-6.28 0-8-1.72-8-8V59h8V32h-8v8h-8v-8h-8v27h8v13c0 10.766 5.234 16 16 16h13.039c-1.806 2.526-3.156 5.587-3.944 9.132-1.171 5.272-5.006 28.043-5.872 33.202L40 132.184V144h16v8H40v8h40v-8H64v-8h11.993l46.124-24.398c3.319-1.74 5.005-.287 5.805 1.187l.161.322.217.289c5.587 7.45 12.894 11.227 21.717 11.227 14.327 0 25.983-11.74 25.983-26.17 0-14.311-11.621-26.18-25.983-26.457M56.905 98.868C58.462 91.859 62.758 88 69 88h47.993L75.46 111.835l1.27-7.838c.634-3.905-1.58-7.486-4.933-8.03-3.363-.545-6.597 2.152-7.23 6.057l-1.814 11.185c-.32 1.974.093 3.872 1.014 5.336l-11.56 6.633c1.487-8.755 3.86-22.538 4.698-26.31m93.112 25.759c-6.26 0-11.084-2.485-15.158-7.816-.667-1.151-2.765-4.24-6.65-5.493-2.126-.686-5.551-1.033-9.82 1.206L74.007 136H49.422l83.644-48 16.873-.001c9.959.193 18.061 8.474 18.061 18.459 0 10.018-8.067 18.169-17.983 18.169M160 106c0 5.523-4.477 10-10 10s-10-4.477-10-10 4.477-10 10-10 10 4.477 10 10"/></svg>