<svg xmlns="http://www.w3.org/2000/svg" viewBox="0 0 192 192"><path d="M116 88c-8.822 0-16-7.178-16-16s7.178-16 16-16 16 7.178 16 16-7.178 16-16 16m0-24c-4.411 0-8 3.589-8 8s3.589 8 8 8 8-3.589 8-8-3.589-8-8-8m28 112c-17.645 0-32-14.355-32-32s14.355-32 32-32 32 14.355 32 32-14.355 32-32 32m0-56c-13.234 0-24 10.766-24 24s10.766 24 24 24 24-10.766 24-24-10.766-24-24-24m14.829 18.829-5.658-5.658L140 146.343l-5.171-5.172-5.658 5.658L140 157.657zM104 144H24v-21.904L71.862 88.96l35.797 27.842 28.179-16.102 5.14 3.426A40 40 0 0 1 144 104a39.75 39.75 0 0 1 16.734 3.682L136.162 91.3l-27.82 15.898L72.137 79.04 24 112.366V48h144v64.022a40.3 40.3 0 0 1 8 8.006V40H16v112h88.805a40 40 0 0 1-.805-8"/></svg>