<svg xmlns="http://www.w3.org/2000/svg" viewBox="0 0 192 192"><path d="m82.26 144-1.999 8H35.999v-8zM104 56.065c6.617 0 12 5.369 12 11.967S110.617 80 104 80s-12-5.369-12-11.968 5.383-11.967 12-11.967m0 8c-2.206 0-4 1.78-4 3.967S101.794 72 104 72s4-1.78 4-3.968-1.794-3.967-4-3.967M168 58v18.361a25.5 25.5 0 0 1 8 5.153V58zm.17 68.51-.17.17V144h-17.32l-8 8H176v-33.282l-2.32 2.312zM94.335 128H24v-17.859l43.671-29.114 32 28 24.399-16.266 3.376 2.11 5.804-5.807-9.32-5.825-23.601 15.734-32-28L24 100.526V48h128v27.316a25.8 25.8 0 0 1 6.41-.806c.533 0 1.062.022 1.59.054V40H16v96h70.339zm73.142-14.049-52.355 52.355-33.143 8.286 8.286-33.143 55.167-55.201c6.862-6.862 18.028-6.861 24.89 0 6.862 6.863 6.862 18.028 0 24.891l-2.829 2.828-.017-.017Zm-62.224 46.576-9.209-9.209-3.069 12.278 12.278-3.07Zm59.412-68.621c-3.578-3.579-9.307-3.735-13.075-.467l-52.056 52.055 13.543 13.543 52.049-52.049c3.275-3.767 3.122-9.5-.461-13.083Z"/></svg>