<svg xmlns="http://www.w3.org/2000/svg" viewBox="0 0 192 192"><path d="M100 72c0 8.822 7.178 16 16 16s16-7.178 16-16-7.178-16-16-16-16 7.178-16 16m24 0c0 4.411-3.589 8-8 8s-8-3.589-8-8 3.589-8 8-8 8 3.589 8 8m24 68h12v8h-12v12h-8v-12h-12v-8h12v-12h8zm-4-28c-17.645 0-32 14.355-32 32s14.355 32 32 32 32-14.355 32-32-14.355-32-32-32m0 56c-13.234 0-24-10.766-24-24s10.766-24 24-24 24 10.766 24 24-10.766 24-24 24m32-128v80.028a40.3 40.3 0 0 0-8-8.006V48H24v64.366L72.138 79.04l36.203 28.158 27.82-15.898 24.573 16.382A39.75 39.75 0 0 0 144 104c-1.018 0-2.024.05-3.023.126l-5.14-3.426-28.178 16.102L71.862 88.96 24 122.096V144h80c0 2.74.278 5.414.805 8H16V40z"/></svg>