<svg xmlns="http://www.w3.org/2000/svg" viewBox="0 0 192 192"><path d="M108 96c0 6.627-5.373 12-12 12s-12-5.373-12-12 5.373-12 12-12 12 5.373 12 12m16.284-28.284-5.656 5.656C124.672 79.416 128 87.452 128 96s-3.328 16.583-9.372 22.627l5.656 5.657C131.84 116.729 136 106.684 136 96s-4.16-20.73-11.716-28.284m-56.568 0C60.161 75.27 56 85.314 56 96s4.16 20.73 11.716 28.285l5.657-5.659C67.329 112.583 64 104.548 64 96s3.329-16.584 9.373-22.627zm85.127-28.009-5.683 5.63C160.598 58.907 168 76.9 168 96c0 19.233-7.49 37.313-21.088 50.912l5.656 5.657C167.678 137.459 176 117.369 176 96c0-21.223-8.224-41.215-23.157-56.293M45.088 45.09l-5.658-5.66C24.321 54.541 16 74.631 16 96.001c0 21.367 8.321 41.457 23.431 56.568l5.657-5.657C31.488 133.312 24 115.232 24 96s7.489-37.312 21.088-50.911zM59.23 59.23l-5.656-5.655C42.24 64.908 36 79.974 36 96c0 16.027 6.24 31.094 17.574 42.426l5.656-5.656C49.41 122.948 44 109.89 44 96c0-13.888 5.409-26.947 15.23-36.77m79.196-5.655-5.656 5.656C142.59 69.052 148 82.11 148 96s-5.41 26.949-15.23 36.77l5.656 5.656C149.758 127.094 156 112.026 156 96s-6.242-31.093-17.574-42.426z"/></svg>