<svg xmlns="http://www.w3.org/2000/svg" viewBox="0 0 192 192"><path d="m153.308 124-16.872 16.871-5.657-5.656 7.215-7.215H128v-8h9.994l-7.215-7.215 5.657-5.656zM68 57.657V68h8V57.657l7.215 7.214 5.656-5.656L72 42.343 55.13 59.215l5.656 5.656zM38.02 160.2l-5.506-5.805L24 162.178v-7.732h-8V176h21.554v-8h-8.065zM78.726 16v24h7.246v-3.091h-3.194V19.091h3.194V16zm16.65 1.377c-1.22 2.623-3.377 3.584-6.312 4.077l.415 2.338c1.87 0 3.948-.39 5.247-1.065v13.429h4.026v-18.78h-3.376zm15.22-.079c-2.209 0-4.079.988-5.221 2.754-1.117 1.688-1.767 4.182-1.767 6.701 0 6 2.676 9.689 7.013 9.689 2.183 0 4.078-.988 5.195-2.754 1.144-1.792 1.766-4.156 1.766-6.831 0-5.844-2.7-9.559-6.987-9.559zm.025 3.195c1.767 0 2.78 2.312 2.78 6.39 0 4.052-1.013 6.364-2.806 6.364-1.766 0-2.805-2.338-2.805-6.286 0-4.182 1.013-6.468 2.831-6.468m16.156-3.116c-1.22 2.623-3.377 3.584-6.312 4.077l.415 2.338c1.87 0 3.948-.39 5.247-1.065v13.429h4.026v-18.78h-3.376zm14.83-.079c-2.208 0-4.078.988-5.22 2.754-1.117 1.688-1.767 4.182-1.767 6.701 0 6 2.676 9.689 7.013 9.689 2.182 0 4.078-.988 5.195-2.754 1.142-1.792 1.767-4.156 1.767-6.831 0-5.844-2.703-9.559-6.988-9.559m.026 3.195c1.766 0 2.78 2.312 2.78 6.39 0 4.052-1.014 6.364-2.806 6.364-1.766 0-2.805-2.338-2.805-6.286 0-4.182 1.013-6.468 2.831-6.468m17.272-3.195c-2.207 0-4.077.988-5.22 2.754-1.117 1.688-1.767 4.182-1.767 6.701 0 6 2.676 9.689 7.014 9.689 2.181 0 4.077-.988 5.194-2.754 1.143-1.792 1.767-4.156 1.767-6.831 0-5.844-2.702-9.559-6.988-9.559m.027 3.195c1.765 0 2.779 2.312 2.779 6.39 0 4.052-1.014 6.364-2.806 6.364-1.765 0-2.804-2.338-2.804-6.286 0-4.182 1.012-6.468 2.83-6.468zM175.892 40V16h-7.247v3.091h3.195v17.818h-3.195V40zM72 76c-12.086 0-21.554 6.15-21.554 14 0 4.943 3.757 9.208 9.554 11.691V92.49c-1.005-.85-1.554-1.732-1.554-2.49 0-2.389 5.407-6 13.554-6s13.554 3.611 13.554 6c0 .758-.55 1.64-1.554 2.49v9.201c5.797-2.483 9.554-6.748 9.554-11.691 0-7.85-9.468-14-21.554-14m34 25.812c-5.164 0-9.497 3.98-11.932 10.188h9.104c.95-1.347 1.968-2.095 2.828-2.095 2.37 0 5.953 5.622 5.953 14.095s-3.583 14.095-5.953 14.095c-.86 0-1.878-.748-2.828-2.095h-9.104c2.435 6.209 6.768 10.188 11.932 10.188 8.008 0 14.047-9.539 14.047-22.188s-6.04-22.188-14.047-22.188M100.334 120H76V92h-8v30.227l-18.826 16.941 5.351 5.947 4.115-3.703.004.005 1.33-1.205L73.543 128H104v-8zm-31.669 23.132-6.73 6.1c.154 1.443-.066 2.586-.646 3.135-.784.744-2.614.779-4.774.091-3.044-.969-6.412-3.235-9.244-6.22-2.83-2.985-4.917-6.47-5.723-9.56-.572-2.195-.44-4.019.344-4.763.409-.389 1.102-.583 1.98-.583.536 0 1.146.08 1.798.226l6.79-6.088a24 24 0 0 0-3.34-1.359c-5.195-1.655-9.741-.968-12.799 1.931-3.056 2.9-3.981 7.402-2.605 12.68 1.157 4.435 3.886 9.083 7.682 13.086s8.294 6.973 12.663 8.363c1.854.59 3.626.883 5.277.883 2.975 0 5.556-.95 7.521-2.814 3.056-2.898 3.982-7.401 2.605-12.678a24 24 0 0 0-.799-2.43"/></svg>