<svg xmlns="http://www.w3.org/2000/svg" viewBox="0 0 192 192"><path d="M29.657 168H40v8H16v-24h8v10.343l12.785-12.785a57 57 0 0 0 2.72 2.937 57 57 0 0 0 2.928 2.729zM122 88c-5.395 0-9.89 4.718-12.24 12h8.582c1.209-2.576 2.638-4 3.658-4 2.115 0 6 6.074 6 16s-3.885 16-6 16c-1.02 0-2.45-1.424-3.658-4h-8.581c2.348 7.282 6.844 12 12.239 12 7.981 0 14-10.317 14-24s-6.019-24-14-24m34.829 5.171-5.658 5.658 9.172 9.171H143.82a44.6 44.6 0 0 1 0 8h16.523l-9.172 9.171 5.658 5.658L175.657 112zM80 56c-13.682 0-24 6.019-24 14 0 5.395 4.719 9.89 12 12.24v-8.582C65.424 72.45 64 71.02 64 70c0-2.115 6.075-6 16-6s16 3.885 16 6c0 1.02-1.424 2.45-4 3.658v8.581c7.282-2.349 12-6.844 12-12.239 0-7.981-10.317-14-24-14m-4-24.343V48.18a44.6 44.6 0 0 1 8 0V31.657l9.171 9.172 5.658-5.658L80 16.343 61.171 35.171l5.658 5.658zM70.22 138.75l-5.957 5.957c.97 2.258 1.166 3.876.901 4.456-1.258.573-7.324-.96-14.346-7.981-7.022-7.023-8.555-13.093-7.982-14.347.579-.268 2.198-.072 4.458.9l5.943-5.944c-6.145-3.42-12.304-4.383-16.066-.622-1.626 1.626-3.922 5.434-1.036 12.663 1.706 4.273 4.911 8.892 9.026 13.006 5.945 5.944 13.475 10.407 19.418 10.407 2.417 0 4.572-.738 6.25-2.416 1.626-1.626 3.922-5.433 1.036-12.663a30 30 0 0 0-1.645-3.416M119.772 108H84V72.228c-1.254-.142-2.583-.228-4-.228s-2.746.086-4 .228v38.115l-22.19 22.19a33 33 0 0 0 2.665 2.992 33 33 0 0 0 2.992 2.664l5.096-5.096 7.487-7.487L81.657 116h38.115c.142-1.254.228-2.583.228-4s-.086-2.746-.228-4"/></svg>