<svg xmlns="http://www.w3.org/2000/svg" viewBox="0 0 192 192"><path d="M176 88v31.9h-.02c-2.27-3-4.96-5.67-7.98-7.94V96h-7.58l-8-72h-12.84l-8 72H112V79.22l-32 20v-20l-32 20v-20l-24 15V152h80.79a39.4 39.4 0 0 0 2.52 8H16V89.78l40-25v20l32-20v20l32-20V88h4.42l8-72h27.16l8 72zm.1 56.05c0 17.68-14.37 32.05-32.05 32.05S112 161.73 112 144.05 126.38 112 144.05 112s32.05 14.38 32.05 32.05m-8 0c0-13.26-10.79-24.05-24.05-24.05S120 130.79 120 144.05s10.79 24.05 24.05 24.05 24.05-10.79 24.05-24.05m8 0c0 17.68-14.37 32.05-32.05 32.05S112 161.73 112 144.05 126.38 112 144.05 112s32.05 14.38 32.05 32.05m-8 0c0-13.26-10.79-24.05-24.05-24.05S120 130.79 120 144.05s10.79 24.05 24.05 24.05 24.05-10.79 24.05-24.05M68 112H36v8h32zm36 0H80v8h24zm54.665 26.997-5.586-5.728-12.791 12.475-4.87-4.505-5.433 5.873 10.448 9.665 18.231-17.78Z"/></svg>