<svg xmlns="http://www.w3.org/2000/svg" viewBox="0 0 192 192"><path d="M32.001 96.001h24v8h-24zM64 104h23.02a33 33 0 0 1 3.51-6.01V96H64zm112 60.32c0 3.12-1.21 6.05-3.42 8.26-2.28 2.28-5.27 3.41-8.26 3.41s-5.98-1.13-8.26-3.41l-23.75-23.74-6.16-6.16c-2.56.86-5.3 1.32-8.15 1.32-5.08 0-9.82-1.47-13.83-4-3.24-2.03-6-4.77-8.06-8-2.6-4.04-4.11-8.85-4.11-14 0-14.34 11.66-26 26-26 5.25 0 10.14 1.57 14.23 4.26.17.1.34.22.51.34 6.8 4.68 11.26 12.53 11.26 21.4 0 2.85-.46 5.59-1.32 8.16l5.84 5.84H152V84h-7.51l-7.87-60h-9.13L120 84h-20V70.695L72 86.44V70.89l-28 16V70.9L24 82.34V132h63.02c1.31 2.91 3.03 5.6 5.07 8H16V77.7l36-20.6v16.01l28-16v15.7l28-15.56V76h4l8.51-60h23.13l7.87 60H160v64h-3.48l16.06 16.06c2.21 2.21 3.42 5.14 3.42 8.26M136 118c0-6.33-3.29-11.91-8.25-15.11-2.81-1.83-6.16-2.89-9.75-2.89s-6.94 1.06-9.75 2.89c-4.96 3.2-8.25 8.78-8.25 15.11 0 5.65 2.62 10.7 6.71 14 3.09 2.5 7.02 4 11.29 4s8.2-1.5 11.29-4c4.09-3.3 6.71-8.35 6.71-14m32 46.32c0-.98-.38-1.91-1.08-2.6l-20.89-20.88-.83-.84-.71-.7v-.01l-5.7-5.7a26 26 0 0 1-5.2 5.21l1.2 1.2 4.5 4.49 22.43 22.43a3.67 3.67 0 0 0 5.2 0 3.63 3.63 0 0 0 1.08-2.6"/></svg>