<svg xmlns="http://www.w3.org/2000/svg" viewBox="0 0 192 192"><path d="M115.954 139.964H16.036v-47.89l31.93-19.058v11.982l20-12v15.037h8.447l4-40H103.5l4.082 40h8.372v51.93zm-91.989-7.93h84.059v-36.07h-7.605l-4.08-40h-8.75l-4 40H60.035v-8.963l-20 12V86.983l-16.07 9.594v35.458zm134.94-77.004-5.655 5.656L160.563 68h-25.78v8h25.78l-7.313 7.314 5.656 5.656L175.877 72l-16.971-16.97zm8.838 59.615-23.683-4.15-9.327-6.783c-2.66-1.934-7.163-2.966-10.733-3.42v8.084c2.508.407 5.046 1.093 6.028 1.807l10.825 7.873 25.538 4.475c.746.125 1.61 1.33 1.61 2.021V132h-4.7c-1.653-4.654-6.087-8-11.3-8s-9.648 3.346-11.3 8H124v8h16.7c1.652 4.653 6.086 8 11.3 8s9.647-3.347 11.3-8H176v-15.448c0-4.7-3.718-9.146-8.258-9.907zM152 140c-2.206 0-4-1.794-4-4s1.794-4 4-4 4 1.793 4 4-1.793 4-4 4"/></svg>