<svg xmlns="http://www.w3.org/2000/svg" viewBox="0 0 192 192"><path d="M157.418 149.635c6.292-3.374 10.583-10.01 10.583-17.635 0-11.028-8.972-20-20-20s-20 8.972-20 20c0 7.624 4.291 14.26 10.582 17.634C127.763 153.511 120 163.864 120 176h8c0-11.027 8.973-20 20-20s20 8.973 20 20h8c0-12.136-7.762-22.489-18.582-26.365M148.001 144c-6.617 0-12-5.383-12-12s5.383-12 12-12 12 5.383 12 12-5.383 12-12 12m-39.914-6.594c3.571-2.54 5.913-6.701 5.913-11.407 0-7.72-6.28-14-14-14s-14 6.28-14 14c0 4.706 2.34 8.867 5.912 11.407C82.646 140.733 76 149.603 76 160h8c0-8.822 7.177-16 16-16s16 7.178 16 16h8c0-10.397-6.647-19.267-15.913-22.594M100 131.999c-3.31 0-6-2.691-6-6s2.69-6 6-6 6 2.691 6 6-2.692 6-6 6M58.828 49.172a4 4 0 1 1-5.657 5.656 4 4 0 0 1 5.657-5.656m-22.627-16.97-5.657-5.658c14.037-14.036 36.875-14.036 50.912 0L75.8 32.2c-10.917-10.918-28.68-10.918-39.598 0zm28.284 11.313C62.219 41.249 59.205 40 56 40s-6.219 1.249-8.485 3.515l-5.657-5.657C45.635 34.081 50.658 32 56 32s10.365 2.08 14.142 5.858zM24 152l44-.002v8L16 160V89.783l40-25v20l32-20v20l32-20V88h4.42l8-72h27.16l8 71.999L176 88v32h-2.706a28.1 28.1 0 0 0-5.294-7.57V95.999l-7.58-.002-8-71.997h-12.84l-8 72H112V79.217l-32 20v-20l-32 20v-20l-24 15z"/></svg>