<svg xmlns="http://www.w3.org/2000/svg" viewBox="0 0 192 192"><path d="m84 95.98-68-.04V60.05l32-19.1v11.99l20-12V56h8.38l4-40h23.15l4.08 40h8.38l.01 20h-8l-.01-12h-7.6l-4.08-40h-8.69l-4 40H60v-8.94l-20 12V55.05L24 64.6v23.35l60 .04zm91.25 39.82-41.6 13.66-7.74 2.54-17.66 5.8-1.91-5.8-.59-1.8 23.54-7.73-4.41-13.52-21.41 6.98-1.16-3.56L84 138.34 52.82 148.5c1.19 3.83.85 7.89-.97 11.47-1.85 3.63-5 6.33-8.87 7.59l-6.25 2.04c-.5.16-1.02.24-1.53.24-.77 0-1.53-.18-2.24-.53a4.92 4.92 0 0 1-2.45-2.88L17.13 125.4c-.84-2.59.58-5.39 3.16-6.23l16.06-5.24c2.59-.84 5.38.58 6.23 3.17l.78 2.38L84 106.23l8.85-2.88-1.07-3.28a7.6 7.6 0 0 1-.19-4.08 7.7 7.7 0 0 1 5.16-5.69l7.07-2.3 4.18-1.37 3.02-.98c1.69-.55 3.42-.49 4.98.07 2.19.77 4.02 2.51 4.8 4.89l2.23 6.85L136 93.23l3.96-1.29c7.56-2.46 12.36-.46 15.05 1.66 2.93 2.3 3.97 5.15 4.15 5.69l5.44 16.72-17.84 5.81 4.39 13.47 21.6-7.09zm-130.1 15-9.23-28.31-10.24 3.34 11.48 35.21 3.34-1.08c1.84-.6 3.34-1.89 4.22-3.62.88-1.72 1.03-3.69.43-5.54m54.68-26.04-3.34-10.24-1.17-3.57L84 114.64l-38.16 12.45 4.5 13.8L84 129.92zm15.59-24.82L114.14 96l-.87-2.67-8.17 2.66-5.64 1.84.99 3.04 1.17 3.57zM136 116.92l18.52-6.04-2.97-9.11c-.39-1.03-2.27-4.46-9.11-2.23l-6.44 2.1-10.49 3.42-21.42 6.98 4.5 13.81zm7.551 20.87-4.396-13.488L136 125.33l-3.51 1.14 3.51 10.79.88 2.72 6.67-2.19z"/></svg>