<svg xmlns="http://www.w3.org/2000/svg" viewBox="0 0 192 192"><path d="M58.828 49.172a4 4 0 1 1-5.657 5.656 4 4 0 0 1 5.657-5.656m16.97-16.97 5.658-5.658c-14.037-14.036-36.875-14.036-50.912 0L36.2 32.2c10.917-10.918 28.68-10.918 39.598 0zm-5.656 5.656C66.365 34.081 61.342 32 56 32s-10.365 2.08-14.142 5.858l5.657 5.657C49.781 41.249 52.795 40 56 40s6.219 1.249 8.485 3.515zM176 88v72H16V89.783l40-25v20l32-20v20l32-20V88h4.42l8-72h27.16l8 72zm-8 8h-7.58l-8-72h-12.84l-8 72H112V79.217l-32 20v-20l-32 20v-20l-24 15V152h144zM36 120h32v-8H36zm44 0h32v-8H80zm44 0h32v-8h-32z"/></svg>