<svg xmlns="http://www.w3.org/2000/svg" xml:space="preserve" viewBox="0 0 192 192"><path d="M116.758 173.253A79.8 79.8 0 0 1 96 176c-44.112 0-80-35.888-80-80s35.888-80 80-80 80 35.888 80 80a79.8 79.8 0 0 1-2.747 20.758 40.3 40.3 0 0 0-6.814-5.853A72 72 0 0 0 168 96c0-39.701-32.299-72-72-72S24 56.299 24 96s32.299 72 72 72a72 72 0 0 0 14.905-1.56 40.3 40.3 0 0 0 5.853 6.813M148 128h-8v12h-12v8h12v12h8v-12h12v-8h-12zM96 56c-3.9 0-7.1 3.2-7.1 7.1s3.2 7.1 7.1 7.1c4 0 7.1-3.1 7.1-7.1S100 56 96 56m-5.25 80h10.5V80.4h-10.5zm85.25 8c0 17.645-14.355 32-32 32s-32-14.355-32-32 14.355-32 32-32 32 14.355 32 32m-8 0c0-13.234-10.766-24-24-24s-24 10.766-24 24 10.766 24 24 24 24-10.766 24-24"/></svg>