<svg xmlns="http://www.w3.org/2000/svg" viewBox="0 0 192 192"><path d="M114.868 160.005V160H32V32h36v8H40v32.005h25.924a43.7 43.7 0 0 0-5.27 8H40v32h17.494a44 44 0 0 0 3.16 8H40V152h76v.005h7.754l8 8zm-2.864-102.33a44 44 0 0 1 8 3.16v-20.83h32v83.75l8 8v-99.75h-76v8h28zm64 106.32c0 3.21-1.25 6.22-3.52 8.49a11.92 11.92 0 0 1-8.48 3.52 11.93 11.93 0 0 1-8.49-3.52l-12.48-12.48-8-8-13.61-13.61-5.93-5.93c-1.29.63-2.62 1.17-3.99 1.63-1.45.5-2.93.9-4.46 1.2-2.3.47-4.69.71-7.13.71-12.48 0-23.5-6.36-29.98-16a36.2 36.2 0 0 1-4.04-8 35.8 35.8 0 0 1-2.06-12c0-10.55 4.57-20.05 11.83-26.64.59-.53 1.19-1.05 1.82-1.54 1.86-1.48 3.88-2.78 6.02-3.88a36 36 0 0 1 6.8-2.65c.34-.1.69-.19 1.03-.27 2.75-.66 5.63-1.02 8.58-1.02 4.24 0 8.31.73 12.09 2.08v-.01a36 36 0 0 1 6.2 2.9c.62.36 1.22.73 1.8 1.13v.01c.74.49 1.45 1.01 2.14 1.55.7.54 1.38 1.11 2.03 1.7 7.26 6.59 11.83 16.09 11.83 26.64 0 2.42-.24 4.78-.69 7.06a35 35 0 0 1-1.21 4.45 37 37 0 0 1-1.62 4l5.92 5.92 13.6 13.6 8 8 12.48 12.48a12 12 0 0 1 3.14 5.48c.25.97.38 1.97.38 3m-54.21-46.44a30 30 0 0 0 2.31-3.31c.18-.3.35-.59.5-.89.33-.59.63-1.2.91-1.82a27.3 27.3 0 0 0 2.17-7.27c.14-.91.23-1.84.28-2.78.03-.48.04-.96.04-1.44 0-.64-.02-1.28-.07-1.91-.01-.33-.04-.66-.08-.99l-.06-.5a25 25 0 0 0-.67-3.58c-.01-.01-.01-.03-.01-.05a27.9 27.9 0 0 0-7.57-13.01h-.05c-5.05-4.9-11.94-7.92-19.53-7.92a27.9 27.9 0 0 0-15.96 4.98v-.12c-7.35 5.05-12.17 13.5-12.17 23.06 0 4.29.97 8.36 2.71 12h.07c.62 1.29 1.33 2.53 2.13 3.7v.1c3.21 4.66 7.78 8.31 13.16 10.35a28.4 28.4 0 0 0 5.62 1.51c.52.08 1.04.15 1.57.2.95.09 1.9.14 2.87.14 1.44 0 2.85-.11 4.22-.32.47-.07.93-.16 1.39-.25 1.03-.21 2.03-.47 3.02-.79.98-.32 1.94-.69 2.87-1.11.76-.34 1.5-.71 2.22-1.12.27-.15.54-.31.8-.47a27.5 27.5 0 0 0 3.03-2.12 30 30 0 0 0 2.07-1.84c.79-.76 1.52-1.57 2.21-2.42zm46.21 46.44c0-1.06-.42-2.07-1.18-2.82l-14.82-14.82-18.22-18.22-5.68-5.68a36 36 0 0 1-5.65 5.65l5.68 5.68 18.22 18.22 14.82 14.82c.75.76 1.76 1.18 2.83 1.18.93 0 1.82-.32 2.53-.91.1-.09.2-.17.29-.27.1-.09.18-.19.27-.29.59-.71.91-1.6.91-2.54M52 56a4 4 0 1 0 8 0 4 4 0 0 0-8 0m0 80a4 4 0 1 0 8 0 4 4 0 0 0-8 0m80-80a4 4 0 1 0 8 0 4 4 0 0 0-8 0"/></svg>