<svg xmlns="http://www.w3.org/2000/svg" viewBox="0 0 192 192"><path d="M96 29.98c20.97 0 23.301 0 31.845.777 7.767 0 11.65 1.554 14.757 2.33 3.883 1.554 6.214 3.107 9.32 6.214s4.66 5.437 6.214 9.32c.777 3.107 2.33 6.99 2.33 14.758 0 8.543.777 10.873.777 31.844s0 23.301-.777 31.845c0 7.767-1.553 11.65-2.33 14.757-1.553 3.884-3.107 6.214-6.214 9.32-3.106 3.107-5.437 4.66-9.32 6.214-3.107.777-6.99 2.33-14.757 2.33-8.544 0-10.874.777-31.845.777s-23.301 0-31.845-.777c-7.767 0-11.65-1.553-14.757-2.33-3.883-1.553-6.214-3.107-9.32-6.213-3.107-3.107-4.66-5.437-6.214-9.32-.777-3.108-2.33-6.991-2.33-14.758 0-8.544-.777-10.874-.777-31.845s0-23.3.777-31.844c0-7.767 1.553-11.65 2.33-14.758 1.553-3.883 3.107-6.213 6.214-9.32 3.106-3.107 5.437-4.66 9.32-6.214 3.107-.776 6.99-2.33 14.757-2.33 8.544-.776 10.874-.776 31.845-.776M96 16c-20.97 0-24.078 0-32.621.777-8.544 0-13.981 1.553-19.418 3.883s-9.32 4.66-13.98 9.32-6.99 8.544-9.32 13.981c-2.33 4.66-3.108 10.874-3.884 19.418C16.777 71.922 16 74.252 16 96c0 20.97 0 24.078.777 32.621 0 8.544 1.553 13.981 3.883 19.418s4.66 9.32 9.32 13.98 8.544 6.99 13.981 9.32c4.66 2.33 10.874 3.108 19.418 3.884 8.543 0 10.873.777 32.621.777s24.078 0 32.621-.777c8.544 0 13.981-1.553 19.418-3.883s9.32-4.66 13.98-9.32 6.99-8.544 9.32-13.981c2.33-4.66 3.108-10.874 3.884-19.418 0-8.543.777-10.873.777-32.621s0-24.078-.777-32.621c0-8.544-1.553-13.98-3.883-19.418s-4.66-9.32-9.32-13.98-8.544-6.99-13.981-9.32c-4.66-2.33-10.874-3.108-19.418-3.884C120.078 16 116.971 16 96 16m0 38.058c-22.524 0-40.388 17.864-40.388 40.389S73.476 134.835 96 134.835s40.388-17.864 40.388-40.388S118.524 54.058 96 54.058m0 66.796c-14.757 0-26.408-11.65-26.408-26.407S81.242 68.039 96 68.039s26.408 11.65 26.408 26.408c0 13.98-11.65 26.407-26.408 26.407m32.621-68.35a9.32 9.32 0 1 0 18.641 0 9.32 9.32 0 0 0-18.64 0z"/></svg>