<svg xmlns="http://www.w3.org/2000/svg" viewBox="0 0 192 192"><path d="M96 176c-44.112 0-80-35.888-80-80s35.888-80 80-80 80 35.888 80 80-35.888 80-80 80m0-152c-39.701 0-72 32.299-72 72s32.299 72 72 72 72-32.299 72-72-32.299-72-72-72m-.5 35.015c11.272 0 12.524 0 17.116.417 4.175 0 6.263.835 7.933 1.252 2.087.835 3.34 1.67 5.01 3.34s2.504 2.923 3.34 5.01c.417 1.67 1.251 3.757 1.251 7.932 0 4.592.418 5.845.418 17.117s0 12.524-.418 17.116c0 4.175-.834 6.262-1.252 7.932-.835 2.087-1.67 3.34-3.34 5.01s-2.922 2.505-5.01 3.34c-1.67.417-3.757 1.252-7.931 1.252-4.593 0-5.845.418-17.117.418s-12.524 0-17.117-.418c-4.174 0-6.262-.835-7.932-1.252-2.087-.835-3.34-1.67-5.01-3.34s-2.504-2.923-3.34-5.01c-.417-1.67-1.252-3.757-1.252-7.932 0-4.592-.417-5.845-.417-17.116s0-12.525.417-17.117c0-4.175.835-6.262 1.253-7.932.835-2.087 1.67-3.34 3.34-5.01s2.922-2.505 5.01-3.34c1.67-.417 3.757-1.252 7.931-1.252 4.593-.417 5.845-.417 17.117-.417m0-7.515c-11.272 0-12.942 0-17.534.417-4.592 0-7.515.835-10.437 2.088-2.922 1.252-5.01 2.505-7.514 5.01s-3.758 4.592-5.01 7.514c-1.253 2.505-1.67 5.845-2.088 10.437 0 4.592-.417 5.845-.417 17.534 0 11.272 0 12.942.417 17.534 0 4.592.835 7.515 2.088 10.437 1.252 2.922 2.505 5.01 5.01 7.514s4.592 3.758 7.514 5.01c2.505 1.253 5.845 1.67 10.437 2.088 4.592 0 5.845.417 17.534.417s12.942 0 17.534-.417c4.592 0 7.515-.835 10.437-2.088s5.01-2.505 7.514-5.01 3.758-4.592 5.01-7.514c1.253-2.505 1.67-5.845 2.088-10.437 0-4.592.417-5.845.417-17.534s0-12.942-.417-17.534c0-4.592-.835-7.515-2.088-10.437-1.252-2.922-2.505-5.01-5.01-7.514s-4.592-3.758-7.514-5.01c-2.505-1.253-5.845-1.67-10.437-2.088-4.592-.417-6.262-.417-17.534-.417m0 20.456c-12.107 0-21.709 9.602-21.709 21.71s9.602 21.708 21.709 21.708 21.709-9.602 21.709-21.709-9.602-21.709-21.709-21.709m0 35.903c-7.932 0-14.194-6.262-14.194-14.194S87.568 79.471 95.5 79.471s14.194 6.262 14.194 14.194c0 7.515-6.262 14.194-14.194 14.194m17.534-36.738a5.01 5.01 0 1 0 10.02 0 5.01 5.01 0 0 0-10.02 0"/></svg>