<svg xmlns="http://www.w3.org/2000/svg" xml:space="preserve" viewBox="0 0 192 192"><path d="M176.013 92H119.66C117.75 80.664 107.87 72 96 72c-13.234 0-24 10.766-24 24s10.766 24 24 24c11.87 0 21.75-8.664 23.66-20h56.353zM96 112c-8.822 0-16-7.178-16-16s7.178-16 16-16 16 7.178 16 16-7.178 16-16 16m15.998 11.72 4.006 6.925A40 40 0 0 1 96 136c-20.706 0-37.786-15.815-39.8-36H16v-8h40.2C58.215 71.815 75.295 56 96 56c6.989 0 13.87 1.83 19.898 5.293l-3.984 6.937A32 32 0 0 0 96 64c-17.645 0-32 14.355-32 32s14.355 32 32 32c5.627 0 11.159-1.48 15.998-4.28"/></svg>