<svg xmlns="http://www.w3.org/2000/svg" viewBox="0 0 192 192"><path fill="#1a1a18" d="M40 160h80v16h-8v-8H96v8H64v-8H32V24h40v-8h16v8h24v-8h8v16H40zm111.315-32.532q-1.863 1.199-5.121 1.75l.519 2.982q1.88 0 3.695-.365 1.815-.364 3.014-.997v17.161h5.137v-24h-4.311q-1.037 2.237-2.933 3.468Zm-36.993-1.79 6.322 6.322H100v8h20.642l-6.321 6.321 5.657 5.657 15.978-15.979-15.978-15.979-5.657 5.657Zm7.356-80-5.657-5.657L100.043 56l15.978 15.979 5.657-5.657-6.321-6.321h20.642v-8h-20.644l6.322-6.322Zm29.068 18.255q3.938-2.437 5.649-4.1 4.1-3.906 4.099-8.425 0-3.196-1.888-5.149-2.179-2.26-6.182-2.26-3.13 0-5.132 1.404-2.276 1.582-3.26 5.116l4.632 1.114q.516-1.872 1.356-2.72.84-.847 2.179-.847 1.308 0 2.082.759.888.871.888 2.518 0 3.825-4.39 7.763a36 36 0 0 1-2.687 2.163q-1.235.888-4.091 2.695v4.035h16.753v-4.067h-10.007Z"/></svg>