<svg xmlns="http://www.w3.org/2000/svg" viewBox="0 0 192 192"><path d="M40 96a4 4 0 1 1-8 0 4 4 0 0 1 8 0m4 26a4 4 0 1 0 0 8 4 4 0 0 0 0-8m22 22a4 4 0 1 0 0 8 4 4 0 0 0 0-8M96 16v8c39.701 0 72 32.299 72 72s-32.299 72-72 72-72-32.299-72-72c0-22.923 9.917-42.728 27.988-56.077L52 72h8l-.016-43.979L16.002 28l-.004 8 27.98.013C25.877 50.818 16 71.862 16 96c0 44.112 35.888 80 80 80s80-35.888 80-80-35.888-80-80-80M51.794 89.487c1.008-2.483 2.448-3.599 4.68-3.599 2.087 0 3.383 1.224 3.383 3.24 0 2.051-1.44 3.276-3.852 3.276H53.81v4.067h2.34c2.663 0 4.175 1.26 4.175 3.455 0 2.268-1.548 3.636-4.176 3.636-2.7 0-4.247-1.224-5.039-3.995l-5.003 1.26c.504 2.195 1.26 3.527 2.7 4.75 1.871 1.584 4.463 2.412 7.594 2.412 5.976 0 9.72-3.023 9.72-7.774 0-3.06-1.549-5.076-4.752-6.156 2.772-1.152 4.103-2.915 4.103-5.435 0-4.283-3.527-7.163-8.783-7.163-4.859 0-8.063 2.267-9.502 6.731zm26.46-8.026c-3.06 0-5.652 1.367-7.236 3.815-1.548 2.34-2.448 5.795-2.448 9.287 0 8.315 3.708 13.426 9.72 13.426 3.023 0 5.65-1.367 7.198-3.815 1.584-2.484 2.448-5.76 2.448-9.467 0-8.099-3.744-13.246-9.683-13.246zm.035 4.427c2.448 0 3.852 3.204 3.852 8.855 0 5.616-1.404 8.819-3.888 8.819-2.447 0-3.887-3.24-3.887-8.71 0-5.796 1.404-8.964 3.923-8.964M160 96c0 35.346-28.654 64-64 64V32c35.346 0 64 28.654 64 64m-40.347 5.762c0-2.051-.792-3.564-2.447-4.535-1.044-.648-2.196-1.008-4.356-1.368-3.06-.576-3.707-.9-3.707-2.016 0-1.008.756-1.476 2.447-1.476 1.836 0 3.528.54 5.292 1.404l2.16-3.6c-2.196-1.295-4.356-1.871-7.38-1.871-4.823 0-7.667 2.231-7.667 5.939 0 3.276 1.944 5.076 6.336 5.903 2.627.504 2.807.576 3.311.828.468.252.684.612.684 1.152 0 1.188-1.08 1.8-3.095 1.8-2.232 0-3.816-.612-5.544-2.196l-2.556 3.564c2.268 1.944 4.608 2.7 8.244 2.7 5.255 0 8.278-2.268 8.278-6.228"/></svg>