<svg xmlns="http://www.w3.org/2000/svg" xml:space="preserve" viewBox="0 0 192 192"><path d="M96 16c-44.112 0-80 35.888-80 80s35.888 80 80 80 80-35.888 80-80-35.888-80-80-80m0 152c-39.701 0-72-32.299-72-72s32.299-72 72-72 72 32.299 72 72-32.299 72-72 72M40 96a4 4 0 1 1-8 0 4 4 0 0 1 8 0m60 60a4 4 0 1 1-8 0 4 4 0 0 1 8 0m-52-30a4 4 0 1 1-8 0 4 4 0 0 1 8 0m112-30H96V32c35.346 0 64 28.654 64 64m-90 52a4 4 0 1 1-8 0 4 4 0 0 1 8 0M48 66a4 4 0 1 1-8 0 4 4 0 0 1 8 0m22-22a4 4 0 1 1-8 0 4 4 0 0 1 8 0m60 104a4 4 0 1 1-8 0 4 4 0 0 1 8 0m22-22a4 4 0 1 1-8 0 4 4 0 0 1 8 0"/></svg>