<svg xmlns="http://www.w3.org/2000/svg" viewBox="0 0 192 192"><path d="M44 120c-15.44 0-28 12.56-28 28s12.56 28 28 28 28-12.56 28-28-12.56-28-28-28m0 48c-11.03 0-20-8.97-20-20s8.97-20 20-20 20 8.97 20 20-8.97 20-20 20m4.001-23.999h8v8h-8v8h-8v-8h-8v-8h8v-8h8zm43.998-112a4 4 0 1 1 0 8 4 4 0 0 1 0-8m-38.998 74.331a4 4 0 1 1 0 8 4 4 0 0 1 0-8m27 17.67a4 4 0 1 1-8 0 4 4 0 0 1 8 0M55.001 96a4 4 0 1 1 8 0 4 4 0 0 1-8 0m19 18.331a4 4 0 1 1 0-8 4 4 0 0 1 0 8m52-73.765a4 4 0 1 1-8 0 4 4 0 0 1 8 0m30-.569a4 4 0 1 1 0-8 4 4 0 0 1 0 8m-22 16.569a4 4 0 1 1-8 0 4 4 0 0 1 8 0M141.53 32a66.05 66.05 0 0 0 16.26 35.89l-.12.11h-10.08a74 74 0 0 1-14.11-36zM102 60a4 4 0 1 1 0 7.999 4 4 0 0 1 0-8zm-7.048-13.983a4 4 0 1 1 0 8 4 4 0 0 1 0-8M110.6 32a65.9 65.9 0 0 0 16.36 36h-10.31a73.9 73.9 0 0 1-14.1-36zm-33.07 0a65.9 65.9 0 0 0 16.36 36H83.58a73.9 73.9 0 0 1-14.1-36zM100 96.001a4 4 0 1 1-8 0 4 4 0 0 1 8 0M176.07 16v56c0 6.62-5.38 12-12 12H27.93c-6.61 0-12-5.38-12-12V16H92v8H23.93v48c0 2.21 1.8 4 4 4h136.14c2.2 0 4-1.79 4-4V24H100v-8zM51.95 68a74 74 0 0 1-14.11-36h8.05c1.63 13.27 7.3 25.86 16.27 35.89l-.12.11zM135 110.332a4 4 0 1 1 8 0 4 4 0 0 1-8 0M36 60a4 4 0 1 1 0 7.999 4 4 0 0 1 0-8zm25.165-4a4 4 0 1 1 8 0 4 4 0 0 1-8 0m75.836 40a4 4 0 1 1-8 0 4 4 0 0 1 8 0M60 43.999a4 4 0 1 1 0-8 4 4 0 0 1 0 8m76 100.002h24v8h-24zm-36-33.669a4 4 0 1 1-8 0 4 4 0 0 1 8 0m0 13.67a4 4 0 1 1-8 0 4 4 0 0 1 8 0M148 120c-15.44 0-28 12.56-28 28s12.56 28 28 28 28-12.56 28-28-12.56-28-28-28m0 48c-11.03 0-20-8.97-20-20s8.97-20 20-20 20 8.97 20 20-8.97 20-20 20m-29-71.999a4 4 0 1 1-8 0 4 4 0 0 1 8 0m-38 0a4 4 0 1 1-8 0 4 4 0 0 1 8 0m37 10.331a4 4 0 1 1 0 8 4 4 0 0 1 0-8M120 124a4 4 0 1 1-8 0 4 4 0 0 1 8 0"/></svg>