<svg xmlns="http://www.w3.org/2000/svg" viewBox="0 0 192 192"><path d="M100 124c0 2.21-1.79 4-4 4s-4-1.79-4-4 1.79-4 4-4 4 1.79 4 4m-24-4c-2.21 0-4 1.79-4 4s1.79 4 4 4 4-1.79 4-4-1.79-4-4-4m40 8c2.21 0 4-1.79 4-4s-1.79-4-4-4-4 1.79-4 4 1.79 4 4 4m-20-21.67c-2.21 0-4 1.79-4 4s1.79 4 4 4 4-1.79 4-4-1.79-4-4-4m-39 4c0-2.21-1.79-4-4-4s-4 1.79-4 4 1.79 4 4 4 4-1.79 4-4m17-4c-2.21 0-4 1.79-4 4s1.79 4 4 4 4-1.79 4-4-1.79-4-4-4m61 4c0 2.21 1.79 4 4 4s4-1.79 4-4-1.79-4-4-4-4 1.79-4 4m-13 0c0-2.21-1.79-4-4-4s-4 1.79-4 4 1.79 4 4 4 4-1.79 4-4M96 92c-2.21 0-4 1.79-4 4s1.79 4 4 4 4-1.79 4-4-1.79-4-4-4m37 0c-2.21 0-4 1.79-4 4s1.79 4 4 4 4-1.79 4-4-1.79-4-4-4m-18 8c2.21 0 4-1.79 4-4s-1.79-4-4-4-4 1.79-4 4 1.79 4 4 4m-60-4c0 2.21 1.79 4 4 4s4-1.79 4-4-1.79-4-4-4-4 1.79-4 4m22-4c-2.21 0-4 1.79-4 4s1.79 4 4 4 4-1.79 4-4-1.79-4-4-4m11-56c0 2.21 1.79 4 4 4s4-1.79 4-4-1.79-4-4-4-4 1.79-4 4m72 0c0-2.21-1.79-4-4-4s-4 1.79-4 4 1.79 4 4 4 4-1.79 4-4m-38 .57c-2.21 0-4 1.79-4 4s1.79 4 4 4 4-1.79 4-4-1.79-4-4-4m8 24c2.21 0 4-1.79 4-4s-1.79-4-4-4-4 1.79-4 4 1.79 4 4 4M176.07 72V16H100v8h68.07v48c0 2.21-1.79 4-4 4H27.93c-2.21 0-4-1.79-4-4V24H92v-8H15.93v56c0 6.62 5.38 12 12 12h136.14c6.62 0 12-5.38 12-12M36 60c-2.21 0-4 1.79-4 4s1.79 4 4 4 4-1.79 4-4-1.79-4-4-4m29.16-8c-2.21 0-4 1.79-4 4s1.79 4 4 4 4-1.79 4-4-1.79-4-4-4M60 36c-2.21 0-4 1.79-4 4s1.79 4 4 4 4-1.79 4-4-1.79-4-4-4m42 24c-2.21 0-4 1.79-4 4s1.79 4 4 4 4-1.79 4-4-1.79-4-4-4m-7.05-13.98c-2.21 0-4 1.79-4 4s1.79 4 4 4 4-1.79 4-4-1.79-4-4-4M62.04 68l.12-.11C53.19 57.86 47.53 45.28 45.9 32h-8.05a74.1 74.1 0 0 0 14.1 36zm31.85 0a65.9 65.9 0 0 1-16.36-36h-8.05a74 74 0 0 0 14.1 36zm33.07 0a65.9 65.9 0 0 1-16.36-36h-8.05a74 74 0 0 0 14.1 36zm30.71 0 .13-.11c-8.96-10.02-14.63-22.62-16.25-35.89h-8.05a74.1 74.1 0 0 0 14.1 36zM72 148c0-15.44-12.56-28-28-28s-28 12.56-28 28 12.56 28 28 28 28-12.56 28-28m-8 0c0 11.03-8.97 20-20 20s-20-8.97-20-20 8.97-20 20-20 20 8.97 20 20m-8-4H32v8h24zm120 4c0-15.44-12.56-28-28-28s-28 12.56-28 28 12.56 28 28 28 28-12.56 28-28m-8 0c0 11.03-8.97 20-20 20s-20-8.97-20-20 8.97-20 20-20 20 8.97 20 20m-8-4h-24v8h24z"/></svg>