<svg xmlns="http://www.w3.org/2000/svg" viewBox="0 0 192 192"><path d="M96 96c-8.822 0-16-7.178-16-16s7.178-16 16-16 16 7.178 16 16-7.178 16-16 16m-22.162 80h8.711v-38.927h-8.71V176zm47.912-10.126c1.417 6.043 2.233 8.71 3.159 9.908V176h-8.929c-1.089-1.96-1.852-4.41-2.94-9.364-.872-3.975-2.559-5.5-6.098-5.5h-5.934V176h-8.602v-38.927H109.5c8.33 0 13.338 4.192 13.338 11.16 0 2.778-.707 5.064-2.123 6.752-1.306 1.524-2.558 2.286-5.226 3.103 3.702 1.089 5.281 3.103 6.26 7.786zm-7.404-16.66c0-3.485-1.905-5.336-5.553-5.336h-7.785v10.78h7.186c3.974 0 6.152-1.905 6.152-5.444m1.49-106.768-3.672 7.108C125.512 56.45 132 67.064 132 82c0 12.836-8.345 26.483-19.842 32.45l3.684 7.1C130.066 114.17 140 97.906 140 82c0-17.961-8.13-31.269-24.164-39.554m26.458-23.723-4.588 6.554C157.808 39.348 168 58.433 168 82s-10.192 42.652-30.294 56.723l4.588 6.554C164.344 129.84 176 107.96 176 82s-11.655-47.841-33.706-63.277M79.842 114.45C68.345 108.483 60 94.836 60 82c0-14.937 6.488-25.55 19.836-32.446l-3.672-7.108C60.13 50.731 52 64.04 52 82c0 15.906 9.934 32.17 24.158 39.55zM24 82c0-23.567 10.192-42.652 30.294-56.723l-4.588-6.554C27.656 34.16 16 56.04 16 82s11.655 47.841 33.706 63.277l4.588-6.554C34.192 124.652 24 105.567 24 82"/></svg>