<svg xmlns="http://www.w3.org/2000/svg" viewBox="0 0 192 192"><path d="M55.96 62.48c9.065 9.066 14.058 21.12 14.058 33.941s-4.993 24.875-14.059 33.941l-5.657-5.657c7.555-7.555 11.716-17.6 11.716-28.284s-4.16-20.73-11.716-28.284zm22.627-22.627L72.93 45.51c13.599 13.598 21.089 31.68 21.089 50.91 0 19.232-7.49 37.313-21.09 50.912l5.658 5.657c15.11-15.11 23.432-35.2 23.432-56.569s-8.322-41.459-23.432-56.568zm22.627-22.628-5.657 5.657c19.643 19.643 30.461 45.76 30.461 73.54s-10.818 53.895-30.46 73.538l5.656 5.657c21.154-21.154 32.804-49.28 32.804-79.196s-11.65-58.042-32.804-79.196m-77.2 68.046V32.296h-8v128h8v-52.725c5.718-.504 10.204-5.3 10.204-11.15s-4.486-10.645-10.205-11.15z"/></svg>