<svg xmlns="http://www.w3.org/2000/svg" viewBox="0 0 192 192"><path d="m125.416 100 14.407-46.824q.004-.017.007-.034c.05-.168.075-.34.103-.511.014-.09.041-.18.05-.27.012-.138 0-.278-.002-.417-.001-.12.01-.24-.002-.358-.015-.136-.054-.27-.082-.404-.024-.115-.036-.235-.07-.347-.037-.12-.097-.233-.145-.35-.05-.123-.091-.25-.153-.366-.044-.082-.105-.156-.155-.235-.091-.146-.18-.292-.29-.426q-.01-.015-.02-.029c-.058-.07-.13-.122-.192-.187-.112-.117-.221-.236-.348-.34-.104-.085-.218-.151-.329-.224-.106-.07-.207-.147-.321-.207-.147-.078-.301-.134-.455-.192-.083-.032-.157-.076-.243-.102q-.017-.004-.034-.007c-.162-.048-.328-.072-.493-.1-.097-.015-.193-.044-.289-.052-.122-.011-.245 0-.368 0-.136.001-.273-.01-.406.004-.132.014-.26.052-.39.078-.12.025-.243.038-.36.074-.135.04-.264.107-.396.163-.106.045-.217.08-.319.134-.092.049-.177.118-.266.175-.134.086-.27.166-.393.267q-.017.012-.033.023c-5.711 4.79-17.597 12.469-25.908 10.847-5.727-1.116-7.523-3.212-7.521-3.706l-.001-.012.001-.022-.002-.018.002-.019.039-24.383a4 4 0 0 0-.088-.83c-.515-8.384-7.673-14.95-16.291-14.79-4.258.09-8.23 1.802-11.184 4.82-2.976 3.042-4.564 7.042-4.472 11.264A4 4 0 0 0 72 36l.09-.001a4 4 0 0 0 3.911-4.086c-.045-2.053.733-4.004 2.192-5.495 1.48-1.513 3.481-2.371 5.633-2.416 4.415-.1 8.078 3.309 8.172 7.582l.001.104c.001.118.027.23.038.345L92 55.993q0 .014.003.026l-.003.024.001.022-.001.012c.002.494-1.794 2.59-7.521 3.706-8.313 1.619-20.197-6.057-25.908-10.847-.01-.008-.02-.012-.029-.02-.138-.113-.289-.205-.44-.3-.074-.045-.143-.103-.22-.144-.137-.073-.285-.124-.43-.18-.096-.038-.188-.088-.285-.118a4 4 0 0 0-.629-.128c-.04-.005-.08-.02-.121-.024-.15-.016-.304-.006-.458-.004-.106.001-.212-.01-.318 0-.1.008-.199.038-.298.054-.163.028-.326.05-.484.098q-.018.003-.035.007c-.088.027-.164.072-.249.104-.151.058-.303.113-.448.19-.117.062-.22.14-.33.212-.108.071-.218.136-.32.219-.128.104-.239.224-.352.343-.061.064-.131.115-.19.184q-.01.015-.02.03c-.109.133-.198.28-.29.425-.049.08-.11.153-.154.235-.062.117-.102.243-.153.366-.048.117-.108.23-.145.35-.034.112-.046.232-.07.347-.028.135-.068.268-.082.404-.012.118 0 .238-.002.358-.002.14-.014.279-.002.417.009.09.036.18.05.27.028.172.053.343.103.51q.003.018.007.035L66.584 100H32v50.676L51.153 176h89.694L160 150.676V100zM63.234 61.908c5.4 3.133 12.254 6.09 18.901 6.09 1.303 0 2.6-.115 3.874-.363 4.215-.821 7.6-2.251 9.99-4.124 2.392 1.873 5.777 3.303 9.993 4.124a20.3 20.3 0 0 0 3.873.362c6.647 0 13.501-2.956 18.901-6.09L117.046 100H74.954zM152 147.991 136.867 168H55.133L40 147.991V108h112zm-42.142-20.572c0 4.364-1.675 6.994-6.756 10.402-3.468 2.331-4.185 3.408-4.185 6.217v1.076h-8.549v-1.673c0-4.305 1.375-6.636 5.56-9.506 3.408-2.331 4.364-3.647 4.364-5.978 0-2.69-1.853-4.484-4.663-4.484-3.228 0-5.38 1.793-6.456 5.56l-8.19-2.212c1.075-3.707 2.45-5.8 4.901-7.712 2.63-2.032 6.098-3.109 10.223-3.109 8.37 0 13.75 4.484 13.75 11.419zm-9.865 27.021c0 3.11-2.51 5.56-5.62 5.56s-5.559-2.51-5.559-5.56a5.613 5.613 0 0 1 5.62-5.619c3.048 0 5.559 2.51 5.559 5.62z"/></svg>