<svg xmlns="http://www.w3.org/2000/svg" viewBox="0 0 192 192"><path d="M96 22.176c-44.183 0-80 28.24-80 63.077 0 22.522 14.974 42.284 37.498 53.443-1.225 4.227-7.874 27.188-8.139 28.992 0 0-.159 1.355.719 1.872.877.517 1.91.116 1.91.116 2.517-.352 29.187-19.086 33.803-22.339 4.611.653 9.36.993 14.209.993 44.183 0 80-28.24 80-63.077s-35.817-63.077-80-63.077m-44.23 85.096c-2.546 0-4.616-1.977-4.616-4.408v-27.42h-7.202c-2.497 0-4.529-2.027-4.529-4.518s2.032-4.52 4.53-4.52h23.633c2.498 0 4.53 2.028 4.53 4.52s-2.033 4.519-4.53 4.519h-7.201v27.42c0 2.43-2.07 4.407-4.616 4.407zm40.47-.06c-1.925 0-3.397-.782-3.84-2.039l-2.286-5.983H72.04l-2.287 5.986c-.442 1.255-1.914 2.036-3.838 2.036a7 7 0 0 1-2.934-.637c-1.273-.587-2.496-2.2-1.094-6.554l11.04-29.058c.778-2.21 3.14-4.487 6.146-4.556 3.015.068 5.377 2.346 6.156 4.56l11.036 29.046c1.404 4.363.181 5.977-1.091 6.563a7.1 7.1 0 0 1-2.934.636m-8.553-16.197-4.61-13.096-4.61 13.096zm20.005 15.584c-2.439 0-4.423-1.899-4.423-4.231V71.022c0-2.546 2.114-4.616 4.712-4.616s4.711 2.07 4.711 4.616v27.115h9.808c2.44 0 4.423 1.899 4.423 4.231s-1.984 4.23-4.423 4.23h-14.808zm25.642.613a4.62 4.62 0 0 1-4.616-4.616V71.022a4.62 4.62 0 0 1 4.616-4.616 4.62 4.62 0 0 1 4.615 4.616v9.92l12.877-12.877c.662-.662 1.572-1.027 2.56-1.027 1.152 0 2.31.497 3.176 1.363.809.808 1.291 1.847 1.357 2.926.067 1.089-.295 2.086-1.018 2.81l-10.518 10.516 11.36 15.051a4.57 4.57 0 0 1 .887 3.42 4.58 4.58 0 0 1-1.79 3.043 4.57 4.57 0 0 1-2.777.932 4.58 4.58 0 0 1-3.687-1.835l-10.824-14.341-1.601 1.601v10.07a4.623 4.623 0 0 1-4.617 4.618"/></svg>