<svg xmlns="http://www.w3.org/2000/svg" viewBox="0 0 192 192"><path d="M160 160h-25.7l-6.3-6.3V140h-13.7l-6.3-6.3V120H94.3l-10-10c-4 1.3-8.1 2-12.4 2-22.1 0-40-17.9-40-40s17.9-40 40-40 40 17.9 40 40c0 4.2-.7 8.4-2 12.4l50 50V160zm-22.3-8H152v-14.3l-51.3-51.3 1-2.5c1.5-3.8 2.3-7.8 2.3-11.9 0-17.6-14.4-32-32-32S40 54.4 40 72s14.4 32 32 32c4.1 0 8.1-.8 11.9-2.3l2.5-1L97.7 112H116v18.3l1.7 1.7H136v18.3zM66 80c-7.7 0-14-6.3-14-14s6.3-14 14-14 14 6.3 14 14-6.3 14-14 14m0-20c-3.3 0-6 2.7-6 6s2.7 6 6 6 6-2.7 6-6-2.7-6-6-6"/></svg>