<svg xmlns="http://www.w3.org/2000/svg" viewBox="0 0 192 192"><path d="m173.493 166.2 2.498 7.601a44.2 44.2 0 0 1-13.762 2.192 44.2 44.2 0 0 1-14.95-2.599l-49.408-19.11-.699-1.32c-.319-.604-3.06-6.06-.906-11.719 2.123-5.579 7.884-8.833 14.663-8.281 2.23.181 8.665 1.084 14.616 1.955l-34.03-34.03c-4.679-4.68-4.679-12.292 0-16.971s12.291-4.677 16.971 0l18.48 18.481a15.9 15.9 0 0 1 4.147-7.167 16 16 0 0 1 4.067-2.955l22.899-11.449c5.445-2.609 11.76-1.996 16.54 1.577l-4.789 6.408a7.97 7.97 0 0 0-8.234-.8l-22.815 11.408a8 8 0 0 0-2.011 1.467c-1.512 1.512-2.344 3.521-2.344 5.658s.832 4.146 2.343 5.656l-5.656 5.657-28.284-28.284a4.005 4.005 0 0 0-5.658 0 4.004 4.004 0 0 0 0 5.657l45.255 45.254-4.396 4.395-2.002-.306c-7.454-1.141-22.43-3.369-25.746-3.638-2.504-.204-5.539.519-6.541 3.152-.491 1.291-.274 2.806.042 3.904l46.295 17.907c7.449 2.683 15.797 2.803 23.414.299ZM159.547 32H32.453C23.381 32 16 39.381 16 48.453v79.094C16 136.619 23.381 144 32.453 144h55.745a19.7 19.7 0 0 1 1.208-5.366A19.4 19.4 0 0 1 90.647 136H32.453c-4.661 0-8.453-3.792-8.453-8.453V48.453C24 43.792 27.792 40 32.453 40h127.094c4.661 0 8.453 3.792 8.453 8.453v23.622a23.2 23.2 0 0 1 8 2.546V48.453C176 39.381 168.619 32 159.547 32M144 79.663V52H48v72h56.249l-8-8H56V60h80v23.662zM40 68h-8v8h8zm0 16h-8v8h8zm-8 24h8v-8h-8z"/></svg>