<svg xmlns="http://www.w3.org/2000/svg" xml:space="preserve" viewBox="0 0 192 192"><path d="M139.884 102.227a34.2 34.2 0 0 0 3.256-8.626c2.03-8.852.492-17.964-4.331-25.66h-.001a33.8 33.8 0 0 0-14.964-12.982c.1-.964.156-1.95.156-2.959 0-17.645-14.355-32-32-32S60 34.355 60 52c0 3.14.31 5.45.876 7.363-6.05 4.778-10.268 11.415-12.016 19.036-1.886 8.227-.687 16.676 3.364 24.006L32 130.718v14.81l-17.366 8.683 11.223 22.448 20.614-5.154L80.808 120c.163.003.325.016.489.016 4.771 0 9.616-1.072 14.23-3.266a34.3 34.3 0 0 0 14.528 3.242c1.196 0 2.395-.083 3.592-.21l19.417 31.07L144 158.14V176h27.123l5.195-20.78zM92 28c13.233 0 24 10.766 24 24 0 .185-.01.365-.015.548a33.9 33.9 0 0 0-20.497 2.713c-8.962-4.17-18.616-4.267-27.357-.314A28 28 0 0 1 68 52c0-13.234 10.767-24 24-24M41.53 164.495l-11.387 2.846-4.777-9.552L40 150.472v-17.19l17.157-24.02c4.185 4.558 9.353 7.729 14.933 9.393zM59.97 99.81c-3.689-5.885-4.865-12.853-3.312-19.623s5.649-12.528 11.533-16.216c5.984-3.753 12.553-4.82 19.026-3.207-5.16 4.64-8.773 10.732-10.357 17.635-2.03 8.852-.492 17.964 4.332 25.66a33.9 33.9 0 0 0 6.06 7.197c-10.307 2.532-21.198-1.741-27.281-11.446m28 0c-3.689-5.885-4.865-12.853-3.312-19.623s5.649-12.528 11.533-16.216a25.84 25.84 0 0 1 13.767-3.964c1.436 0 2.866.13 4.277.364-1.621 3.694-4.113 6.583-6.428 8.591A8 8 0 1 0 112 76q-.002-.046-.005-.093c3.733-2.98 7.548-7.418 9.848-13.033a25.8 25.8 0 0 1 10.186 9.316c3.69 5.885 4.866 12.853 3.313 19.622s-5.649 12.529-11.533 16.217c-12.145 7.616-28.224 3.927-35.838-8.22M164.878 168H152v-14.14l-13.064-8.71-17.062-27.299a34 34 0 0 0 6.184-3.043 34.2 34.2 0 0 0 6.866-5.675l32.758 47.647z"/></svg>