<svg xmlns="http://www.w3.org/2000/svg" viewBox="0 0 192 192"><path d="M130.604 132.985 78.716 70.006 39.331 21.061a12.98 12.98 0 0 0-8.831-5.009 12.97 12.97 0 0 0-9.741 2.808l-.08.064c-5.45 4.406-6.465 12.28-2.265 17.986l37.069 48.419-6.012 5.156 2.234 2.995c.55.738 13.605 18.2 25.066 30.35 11.972 12.691 23.649 16.085 32.714 16.085 10.323 0 17.258-4.4 17.387-4.485zM24.812 32.107a5.067 5.067 0 0 1 .884-6.951l.08-.064a5.05 5.05 0 0 1 3.787-1.094c1.37.16 2.588.852 3.483 2.011l37.403 46.483-8.885 7.62zM82.59 118.34c-8.39-8.894-17.95-21.106-22.214-26.669l15.13-12.979 42.789 51.934c-6.689 2.242-20.51 3.822-35.705-12.286M160 144h-20c-8.822 0-16 7.178-16 16s7.178 16 16 16h20c8.822 0 16-7.178 16-16s-7.178-16-16-16m-28 16c0-4.411 3.589-8 8-8h6.165c-1.368 2.357-2.165 5.084-2.165 8s.797 5.643 2.165 8H140c-4.411 0-8-3.589-8-8m28 8c-4.411 0-8-3.589-8-8s3.589-8 8-8 8 3.589 8 8-3.589 8-8 8m-68-24H48c-8.822 0-16 7.178-16 16s7.178 16 16 16h44c8.822 0 16-7.178 16-16s-7.178-16-16-16m-52 16c0-4.411 3.589-8 8-8h30.165c-1.368 2.357-2.165 5.084-2.165 8s.797 5.643 2.165 8H48c-4.411 0-8-3.589-8-8m52 8c-4.411 0-8-3.589-8-8s3.589-8 8-8 8 3.589 8 8-3.589 8-8 8"/></svg>