<svg xmlns="http://www.w3.org/2000/svg" viewBox="0 0 192 192"><path d="m60.626 144.62 5.656-5.659 14.852 14.847-5.656 5.658zm-10.568 17.636 8.485-8.485 7.779 7.778-8.485 8.485zM158.432 46.171l-5.657 5.658 2.18 2.18-8.786 8.784 2.829 2.829-28.49 28.49-2.214-2.213-7.815 7.816-4.049-4.048-30.368 30.368-4.25-4.25-5.657 5.656 26.497 26.498 5.658-5.657-4.429-4.429 30.368-30.367-3.871-3.871 7.816-7.816-2.03-2.03 28.491-28.49 2.828 2.828 8.786-8.785 2.18 2.18 5.656-5.657zm-70.178 91.996-6.505-6.505 24.681-24.682 6.506 6.506zM119.998 29.66 120 40h8l-.004-24-24 .003.001 8 10.344-.001L24 114.342V104h-8v24h24v-8H29.657z"/><path d="M21.03 44.58c1.099-1.86 2.594-2.775 4.607-2.775 1.982 0 3.324.854 4.24 2.654 1.433-1.861 2.928-2.654 4.94-2.654 3.173 0 5.003 2.226 5.003 6.04v10.309h-4.667V48.27c0-1.891-.732-2.836-2.135-2.836-1.586 0-2.593 1.189-2.593 3.11v9.609H25.76V48.21c0-1.83-.733-2.775-2.166-2.775-1.586 0-2.562 1.158-2.562 3.05v9.669h-4.667V42.2h4.667v2.38zm27.877 0c1.098-1.86 2.593-2.775 4.606-2.775 1.983 0 3.325.854 4.24 2.654 1.434-1.861 2.928-2.654 4.941-2.654 3.172 0 5.003 2.226 5.003 6.04v10.309H63.03V48.27c0-1.891-.732-2.836-2.135-2.836-1.586 0-2.593 1.189-2.593 3.11v9.609h-4.667V48.21c0-1.83-.732-2.775-2.166-2.775-1.586 0-2.562 1.158-2.562 3.05v9.669H44.24V42.2h4.667z"/></svg>