<svg xmlns="http://www.w3.org/2000/svg" viewBox="0 0 192 192"><path fill="#020204" d="M167.208 133.065 158.09 112H168v-8h-12V16h-32.001v88H112v8h9.934l-9.006 21.014c-5.116 2.071-8.927 7.085-8.927 12.628V176h71.998v-30.357c0-5.495-3.742-10.474-8.79-12.578ZM148 24v80h-16.001V48H140V36h-8.001V24zm-17.362 88h18.735l8.658 20.002h-35.965zm37.36 56h-55.999v-22.358c0-3.125 3.283-5.641 6.001-5.641h43.999c2.774 0 5.999 2.465 5.999 5.639zM92 176h-8v-16h8zm0-24h-8v-16h8zm0-24h-8v-16h8zm0-24h-8V88h8zm0-24h-8V64h8zm0-24h-8V40h8zm0-24h-8V16h8zM32.55 42.64l-5.66 5.66C30.03 51.21 32 55.38 32 60c0 4.55-1.91 8.67-4.98 11.58l5.65 5.65A23.85 23.85 0 0 0 40 60c0-6.82-2.86-12.98-7.45-17.36m11.31-11.31-5.65 5.65C44.24 42.8 48 50.97 48 60c0 8.97-3.71 17.08-9.66 22.9l5.65 5.65C51.4 81.28 56 71.17 56 60c0-11.23-4.65-21.4-12.14-28.67m11.31-11.31-5.65 5.65C58.45 34.39 64 46.56 64 60s-5.5 25.49-14.35 34.21l5.65 5.65C65.6 89.7 72 75.58 72 60s-6.45-29.81-16.83-39.98M24 60a4 4 0 1 1-8 0 4 4 0 0 1 8 0"/></svg>