<svg xmlns="http://www.w3.org/2000/svg" viewBox="0 0 192 192"><path fill="#1a1a18" d="M100 68v16h-8V68zm36 88v20H56.001v-20c0-5.944 6.056-12 12-12h1.115l5.333-16h-14.45v-8h16V52h40v68h16v8h-14.438l5.333 16h1.104c6.056 0 12 5.944 12 12Zm-52-36h24V60H84zm-6.45 24h36.913l-5.333-16H82.884l-5.333 16ZM128 156c0-1.727-2.516-4-4-4H68.001c-1.448 0-4 2.312-4 4v12H128zM100 16h-8v16.001h8zM74.041 36.251l-7.512-14.128-7.063 3.756 7.512 14.128zM38.183 46.96l12.779 9.629 4.814-6.39-12.779-9.629zm6.475 23.557L29.007 67.19l-1.663 7.825 15.651 3.327zM27.306 97.105l1.8 7.795 15.591-3.6-1.8-7.795zm104.571-71.226-7.063-3.756-7.512 14.128 7.063 3.756zm16.468 14.692L135.566 50.2l4.814 6.389 12.779-9.629zm.003 37.771 15.651-3.327-1.663-7.825-15.651 3.327zm.098 15.163-1.8 7.795 15.591 3.6 1.8-7.795z"/></svg>