<svg xmlns="http://www.w3.org/2000/svg" viewBox="0 0 192 192"><path d="M164 118.666V48c0-6.617-5.383-12-12-12H40c-6.617 0-12 5.383-12 12v70.666l-12 16V144c0 6.617 5.383 12 12 12h136c6.617 0 12-5.383 12-12v-9.334zM40 44h112c2.206 0 4 1.794 4 4v68H36V48c0-2.206 1.794-4 4-4m-6 80h124l6 8H28zm130 24H28c-2.206 0-4-1.794-4-4v-4h144v4c0 2.206-1.794 4-4 4M92.083 85.967c0-4.851 1.377-7.214 6.228-10.623 3.738-2.621 4.984-4.458 4.984-7.408 0-3.804-2.755-6.295-6.818-6.295-4.592 0-7.347 2.424-8.393 7.408l-6.231-1.18c.851-3.935 2.098-6.295 4.656-8.46C89.13 57.18 92.673 56 96.803 56c8.198 0 13.639 4.656 13.639 11.672 0 4.853-1.77 7.541-7.804 11.54-3.54 2.363-4.327 3.738-4.327 7.411v2.36h-6.228zm7.736 13.246c0 2.622-2.162 4.787-4.786 4.787-2.622 0-4.787-2.165-4.787-4.787 0-2.624 2.165-4.786 4.853-4.786 2.558 0 4.72 2.162 4.72 4.786"/></svg>