<svg xmlns="http://www.w3.org/2000/svg" viewBox="0 0 192 192"><path d="m119.87 109.79-13.04 13.04-5.66-5.66 13.04-13.04c1.38 2.33 3.33 4.28 5.66 5.66m4.13 1.71V144h8v-32.5c-1.28.33-2.62.5-4 .5s-2.72-.17-4-.5m8-31V64h-8v16.5c1.28-.33 2.62-.5 4-.5s2.72.17 4 .5m-12.13 1.71L98.83 61.17l-5.66 5.66 21.04 21.04c1.38-2.33 3.33-4.28 5.66-5.66M144 92v8h20v-8zm-2.21-4.13 21.04-21.04-5.66-5.66-21.04 21.04c2.33 1.38 4.28 3.33 5.66 5.66m-5.66 21.92 21.04 21.04 5.66-5.66-21.04-21.04a16.15 16.15 0 0 1-5.66 5.66M128 88c-2.97 0-5.55 1.61-6.93 4.01h-8.57L24 91.99v8l88.5.02h8.58A7.97 7.97 0 0 0 128 104c4.42 0 8-3.58 8-8s-3.58-8-8-8"/></svg>