<svg xmlns="http://www.w3.org/2000/svg" viewBox="0 0 192 192"><path d="M148.997 37.474C134.78 28.785 115.958 24 96 24s-38.78 4.785-52.997 13.474C28.169 46.539 20 58.8 20 72c0 17.404 14.816 33.453 38.667 41.885l.37.13c.351 3.16 1.924 6.343 4.588 9.134.903.947 1.918 1.83 3.019 2.652a18.3 18.3 0 0 0-2.592 6.597c-1.745 9.672 4.154 21.263 17.535 34.45l2.849 2.808 5.615-5.697-2.849-2.808c-11.224-11.063-16.508-20.514-15.277-27.332.282-1.566.92-2.945 1.774-4.16 1.291.5 2.633.928 4.014 1.274 2.73.682 5.412 1.006 7.96 1.006 9.114 0 16.507-4.156 18.208-10.958.104-.415.176-.834.233-1.256 16.904-1.115 32.61-5.699 44.883-13.199C163.831 97.461 172 85.2 172 72s-8.169-25.46-23.003-34.526M78.365 116.35c-2.32 1.039-4.372 2.24-6.162 3.576-1.052-.704-2.001-1.472-2.79-2.299-1.918-2.01-2.773-4.142-2.347-5.849.689-2.753 4.791-4.902 10.413-4.902 1.873 0 3.915.238 6.054.773 3.534.883 6.77 2.493 9.12 4.499-3.53.333-7.92 1.35-14.288 4.202m3.39 7.249c7.201-3.212 11.005-3.577 13.955-3.597-1.633 2.85-7.123 4.734-13.955 3.597m20.814-11.79c-.756-1.436-1.76-2.83-3.008-4.138-3.443-3.609-8.447-6.373-14.088-7.783-10.594-2.65-20.451.105-24.537 6.308C40.611 98.9 28 85.825 28 72c0-22.056 30.505-40 68-40s68 17.944 68 40c0 20.752-27.007 37.86-61.43 39.81z"/></svg>