<svg xmlns="http://www.w3.org/2000/svg" viewBox="0 0 192 192"><path d="M168.734 62.204c-11.663-24.562-36.221-42.479-62.566-45.645-27.807-3.347-56.623 8.508-73.415 30.189-17.708 22.865-21.813 54.578-10.458 80.792 10.621 24.52 34.527 43.141 60.904 47.44a79 79 0 0 0 12.676 1.021h.161l3.992-.008v-52.715c9.814-2.552 24.013-10.359 24.013-26.655 0-24.034-24.746-40.804-25.8-41.506L96 53.624l-2.241 1.493c-1.054.702-25.8 17.472-25.8 41.506 0 16.326 14.252 24.132 24.068 26.669v44.606a71 71 0 0 1-7.542-.812c-23.754-3.872-45.284-20.642-54.85-42.724-10.056-23.216-6.261-52.437 9.443-72.714 15.104-19.502 41.061-30.155 66.136-27.145 23.684 2.847 45.78 18.993 56.293 41.134 10.161 21.401 8.299 47.771-4.506 68.585-6.515-2.458-14.14-.447-18.495 5.412l-7.156 9.632 3.21 2.385-4.771 6.422 6.422 4.771 4.771-6.422 6.422 4.771-4.771 6.421 6.421 4.771 4.772-6.422 3.211 2.386 7.157-9.632c4.516-6.078 4.052-14.327-.643-19.873 14.436-23.154 16.565-52.672 5.184-76.641ZM76.041 96.622c0-15.889 14.329-28.698 19.964-33.121 5.642 4.411 19.955 17.177 19.955 33.121 0 11.263-9.855 16.219-15.932 18.206V79.929h-8v34.916c-6.076-1.976-15.987-6.93-15.987-18.224Zm81.73 57.324-2.386 3.211-12.843-9.542 2.385-3.211c2.632-3.541 7.654-4.281 11.193-1.65 3.541 2.631 4.281 7.652 1.651 11.192"/></svg>