<svg xmlns="http://www.w3.org/2000/svg" viewBox="0 0 192 192"><path d="M160 160H32V32h128zm-120-8h112V40H40zm56-68c1.405 0 2.747.254 4 .697V56h-8v28.697A12 12 0 0 1 96 84m12 12c0 .372-.023.738-.056 1.1l28.141-7.928-2.17-7.7-27.933 7.87A11.94 11.94 0 0 1 108 96m-2.3 7.045a12 12 0 0 1-6.593 4.534l17.636 24.743 6.514-4.644-17.558-24.633zm-19.4 0-17.557 24.633 6.514 4.644 17.636-24.743a12 12 0 0 1-6.592-4.534zM84 96c0-2.484.755-4.791 2.047-6.706l-27.763-7.822-2.17 7.7 27.939 7.872A12 12 0 0 1 84 96"/></svg>