<svg xmlns="http://www.w3.org/2000/svg" viewBox="0 0 192 192"><path d="M92 84.697V56h8v28.697c-1.253-.443-2.595-.697-4-.697s-2.747.254-4 .697m57.997 58.72 5.667 5.666c12.565-14.135 20.22-32.727 20.22-53.083 0-20.657-7.872-39.51-20.771-53.719l-5.667 5.667c11.454 12.755 18.437 29.601 18.437 48.053 0 18.149-6.764 34.738-17.886 47.415zM37.68 41.17C24.17 55.49 15.88 74.8 15.88 96c0 20.95 8.09 40.04 21.32 54.31l5.66-5.65C31.08 131.84 23.88 114.74 23.88 96c0-19 7.4-36.3 19.46-49.18zm11.54 17.32C40.95 68.77 36 81.82 36 96c0 13.93 4.77 26.77 12.77 36.96l5.7-5.7A51.7 51.7 0 0 1 44 96c0-11.98 4.07-23.02 10.91-31.82zm89.235 67.48 5.733 5.733C151.605 121.719 156 109.363 156 96c0-13.668-4.602-26.276-12.327-36.375l-5.711 5.711C144.266 73.94 148 84.54 148 96c0 11.155-3.542 21.492-9.545 29.97M108 96c0 .372-.023.738-.056 1.1l28.141-7.928-2.17-7.7-27.933 7.87A11.94 11.94 0 0 1 108 96m-24 0c0-2.484.755-4.791 2.047-6.706l-27.763-7.822-2.17 7.7 27.939 7.872A12 12 0 0 1 84 96m2.3 7.045-17.557 24.633 6.514 4.644 17.636-24.743a12 12 0 0 1-6.592-4.534zm19.4 0a12 12 0 0 1-6.593 4.534l17.636 24.743 6.514-4.644-17.558-24.633z"/></svg>