<svg xmlns="http://www.w3.org/2000/svg" viewBox="0 0 192 192"><path d="M120 95.995C119.982 81.675 112.575 44 96 44c-25.304 0-45.524 11.744-55.325 18.745C25.685 73.452 16 86.505 16 96s9.686 22.548 24.675 33.255C50.476 136.255 70.696 148 96 148c16.575 0 23.982-37.675 24-51.995M96 140c-16.853 0-35.323-6.29-50.675-17.255C31.325 112.745 24 101.721 24 96s7.325-16.745 21.325-26.745C60.677 58.289 79.147 52 96 52c6.295 0 15.972 23.6 16 44-.028 20.4-9.705 44-16 44m74.633-28.24-9.493-3.453c1.998 5.279 2.94 10.907 2.837 16.52l9.39 3.414-2.734 7.518-7.559-2.748c-1.283 6.244-3.914 12.232-7.901 17.425l-6.346-4.872c3.487-4.54 5.689-9.83 6.641-15.319l-28.835-10.486 2.734-7.518 26.573 9.663c-.355-6.205-2.288-12.316-5.802-17.597l-23.505-8.548 2.734-7.518 14.182 5.157c-2.276-5.314-3.45-11.034-3.53-16.771l-13.386-4.868 2.734-7.518 11.304 4.11c1.167-6.733 3.88-13.218 8.156-18.787l6.346 4.872c-3.778 4.92-6.044 10.718-6.847 16.699l25.041 9.106-2.734 7.518-22.457-8.166c.633 6.429 2.952 12.703 6.997 17.971l.06.083 18.134 6.594z"/></svg>