<svg xmlns="http://www.w3.org/2000/svg" viewBox="0 0 192 192"><path fill="#1a1a18" d="m71.111 128 .874-9.942q.015-.174.015-.35V55.38c0-6.635-4.415-8.044-6.786-8.802-.485-.155-.944-.301-1.358-.473-1.904-.79-2.478-1.028-3.661-4.233-.358-.967-.608-1.876-.85-2.754-.733-2.662-1.961-7.116-7.345-7.116s-6.611 4.455-7.345 7.116c-.242.878-.492 1.787-.851 2.756-1.183 3.204-1.757 3.442-3.661 4.231-.414.172-.872.318-1.357.473C36.414 47.336 32 48.745 32 55.38v62.328q0 .176.015.35l.874 9.942H16v8h12v16h4v24h8v-24h24v24h8v-24h4v-16h12v-8zM40 56h24v61.532L63.08 128H56v-20a4 4 0 0 0 0-8h-8a4 4 0 0 0 0 8v20h-7.08L40 117.532zm28 88H36v-8h32zm44-64H80v8h32zm0 16H80v8h32zm52 32h-4V36h-40v92h-16v8h12v16h4v24h8v-24h24v24h8v-24h4v-16h12v-8zm-20.001-48h-8V56h8z"/></svg>