<svg xmlns="http://www.w3.org/2000/svg" viewBox="0 0 192 192"><path d="M120 160H72v-8h48zm-4 8H76v8h40zm4-34c0-1.535 2.266-3.354 3.62-4.44.324-.26.62-.499.876-.716.465-.395.92-.773 1.368-1.145 1.302-1.082 2.647-2.2 4.042-3.561C138.995 115.27 144 103.476 144 90.923c0-12.552-5.005-24.348-14.094-33.215C120.844 48.868 108.803 44 96 44s-24.844 4.869-33.906 13.709C53.005 66.575 48 78.37 48 90.922c0 12.553 5.005 24.348 14.094 33.215 1.395 1.36 2.74 2.479 4.042 3.56.448.373.903.751 1.367 1.146.257.217.553.456.877.716 1.354 1.086 3.62 2.905 3.62 4.44v10h8v-10c0-5.373-4.302-8.825-6.613-10.68-.26-.209-.5-.4-.706-.575-.487-.413-.963-.809-1.431-1.199-1.236-1.026-2.402-1.996-3.57-3.135C60.148 111.063 56 101.301 56 90.923s4.148-20.14 11.68-27.488C75.24 56.061 85.298 52 96 52c10.704 0 20.76 4.061 28.32 11.435 7.532 7.348 11.68 17.11 11.68 27.488s-4.148 20.14-11.68 27.488c-1.168 1.139-2.334 2.109-3.57 3.135-.468.39-.944.786-1.431 1.2-.206.174-.445.365-.706.574-2.31 1.855-6.613 5.307-6.613 10.68v10h8zm51.91-46H152v8h19.91zM40 88H20.09v8H40zm60-72h-8v20h8zM59.536 132.683l-5.63-5.684-14.293 14.16 5.631 5.683 14.292-14.16zm92.85-91.983-5.63-5.684-14.414 14.28 5.63 5.683 14.414-14.28zm0 100.458L138.096 127l-5.631 5.684 14.292 14.159 5.63-5.684zM59.659 49.295 45.244 35.016l-5.63 5.684 14.414 14.279zm51.454 46.963 7.327 4.29-4.04 6.904-7.323-4.286a15.8 15.8 0 0 1-7.076 4.073V116h-8v-8.72a15.8 15.8 0 0 1-7.238-4.114l-7.323 4.286-4.04-6.904 7.327-4.29c-.38-1.357-.6-2.78-.6-4.258s.22-2.901.6-4.258l-7.328-4.29 4.041-6.904 7.323 4.286A15.8 15.8 0 0 1 92 76.72V68h8v8.761a15.8 15.8 0 0 1 7.076 4.073l7.322-4.286 4.041 6.904-7.327 4.29c.38 1.357.6 2.781.6 4.258s-.22 2.901-.6 4.258zM104.126 92c0-4.525-3.682-8.208-8.207-8.208S87.71 87.475 87.71 92s3.683 8.208 8.208 8.208 8.207-3.683 8.207-8.208z"/></svg>