<svg xmlns="http://www.w3.org/2000/svg" viewBox="0 0 192 192"><path fill="#1d1d1c" d="M108 144H60v-8h48zm-48-16h8v-6.402c0-5.801-3.482-9.354-4.978-10.613-.445-.374-.88-.733-1.31-1.086-1.115-.918-2.169-1.786-3.217-2.799C51.727 100.561 48 91.877 48 82.648c0-9.228 3.727-17.912 10.495-24.452C65.3 51.621 74.358 48 84 48s18.7 3.621 25.505 10.196C116.273 64.736 120 73.42 120 82.648c0 9.23-3.727 17.913-10.495 24.452-1.048 1.013-2.102 1.881-3.217 2.8-.43.352-.865.71-1.31 1.085-1.496 1.259-4.978 4.812-4.978 10.613V128h8v-6.402c0-2.438 1.487-3.952 2.127-4.49.424-.356.838-.697 1.246-1.033 1.187-.977 2.414-1.988 3.691-3.222C123.406 104.793 128 94.066 128 82.649s-4.594-22.146-12.936-30.206C106.76 44.42 95.728 40 84 40s-22.76 4.419-31.064 12.443C44.594 60.503 40 71.231 40 82.65c0 11.417 4.594 22.144 12.936 30.204 1.277 1.234 2.504 2.245 3.691 3.222.408.336.822.677 1.246 1.033.64.538 2.127 2.052 2.127 4.49zM88 16h-8v16h8zM50.423 44.251 39.109 32.938l-5.656 5.657 11.313 11.313zM16 88h16v-8H16zm17.453 40.375 5.656 5.658 11.314-11.314-5.657-5.657zm84.124-5.656 11.314 11.314 5.656-5.658-11.313-11.313zM152 80h-16v8h16zm-17.453-41.405-5.656-5.658-11.314 11.314 5.657 5.657zM176 136v12c0 7.439-5.11 13.69-12 15.473V176H80v-16H64v-8h40v8H88v8h68v-4.527c-6.89-1.783-12-8.034-12-15.473v-12h4v-8h8v8h8v-8h8v8zm-8 8h-16v4c0 4.411 3.589 8 8 8s8-3.589 8-8zM62.153 99.464l4.578-4.637c-3.182-6.105-5.4-16.06 2.255-23.696 11.575-11.548 31.114-8.05 31.94-7.895l2.69.503.506 2.69c.154.825 3.663 20.33-7.917 31.883-3.83 3.82-8.244 5.173-12.463 5.173-4.254 0-8.307-1.376-11.372-2.983l-4.523 4.582zm10.631-10.77 10.37-10.504 5.693 5.62L78.38 94.412c.635.242 1.313.468 2.031.65 4.145 1.05 7.462.26 10.142-2.415 6.408-6.391 6.459-16.86 6.05-21.88-5.037-.398-15.587-.338-21.968 6.028-2.676 2.67-3.467 5.972-2.417 10.097.16.631.355 1.235.565 1.803z"/></svg>