<svg xmlns="http://www.w3.org/2000/svg" viewBox="0 0 192 192"><path d="m149.961 122.536 17.321 10-4 6.928-17.32-10 4-6.928zM24.718 59.464l17.32 10 4-6.928-17.32-10zM69.464 42.04l-10-17.321-6.928 4 10 17.32zM156 92v8h20v-8zM36 92H16v8h20zm131.282-32.536-4-6.928-17.32 10 4 6.928zM24.718 132.536l4 6.928 17.32-10-4-6.928zm97.818-90.497 6.928 4 10-17.321-6.928-4-10 17.32zM115.11 128H132v8h-12v16h-4v24h-8v-24H84v24h-8v-24h-4v-16H60v-8h16.89l-.875-9.942a4 4 0 0 1-.015-.35V55.379c0-6.634 4.415-8.044 6.786-8.802.485-.155.944-.301 1.358-.473 1.904-.79 2.478-1.028 3.66-4.231.36-.97.61-1.878.851-2.757C89.39 36.455 90.616 32 96 32s6.611 4.455 7.345 7.116c.242.879.492 1.787.85 2.755 1.183 3.205 1.757 3.443 3.661 4.233.414.172.873.318 1.358.473 2.371.758 6.786 2.168 6.786 8.802v62.329q0 .174-.015.35zm-30.19 0H92v-20a4 4 0 0 1 0-8h8a4 4 0 0 1 0 8v20h7.08l.92-10.468V56H84v61.532zm27.08 8H80v8h32z"/></svg>