<svg xmlns="http://www.w3.org/2000/svg" viewBox="0 0 192 192"><path d="M130.86 97.93c2.71 6.31 6.8 15.83 3.82 26.12l-.05.16L117.31 176H76.53l-9.42-27.068 6.282-6.282L82.21 168h29.34l15.47-46.25c2.13-7.52-1.13-15.11-3.51-20.66-.56-1.31-1.05-2.45-1.44-3.51l-1.2-2.409 5.95-5.949 2.7 5.438c.31.89.79 1.99 1.34 3.27M76.89 48H56v-8h16V24h4v-8h8v8h24v-8h8v8h4v16h7.958l-8 8h-4.848l.39 4.458-7.5 7.5V58.47L107.08 48H100v15.722c1.165 0 2.204.506 2.935 1.3l-6.699 6.7H92a4 4 0 0 1 0-8V48h-7.08L84 58.47v21.35c.759.63 1.424 1.355 1.99 2.147l-5.987 5.988c-.186-1.64-1.912-2.975-3.953-2.975H76c-2.14.02-3.94 1.5-3.94 3.26v7.658l-8 8V88.24c0-6.19 5.35-11.23 11.94-11.26V58.29c0-.11.01-.23.02-.35zM80 40h32v-8H80zm93.657-10.343-11.314-11.314-144 144 11.314 11.314z"/></svg>