<svg xmlns="http://www.w3.org/2000/svg" viewBox="0 0 192 192"><path d="M79.666 120C61.974 120 44 106.037 44 96s17.973-24 35.666-24C88.942 72 91.993 89.845 92 95.995 91.992 102.155 88.94 120 79.666 120m-.299-39.999C64.591 80.164 52 92.221 52 96s12.59 15.836 27.367 15.999c1.724-1.327 4.625-9.547 4.633-16.004-.008-6.447-2.909-14.667-4.633-15.994M112.333 120c-9.274 0-12.325-17.845-12.333-23.995.008-6.16 3.06-24.005 12.334-24.005C130.026 72 148 85.963 148 96s-17.973 24-35.666 24zm.3-39.999c-1.724 1.327-4.625 9.547-4.633 16.004.008 6.447 2.909 14.667 4.633 15.994C127.409 111.836 140 99.779 140 96s-12.59-15.836-27.367-15.999m56.073-6.84-5.541-5.771-12.326 11.835 5.54 5.77 12.327-11.835zm0 45.679-12.326-11.835-5.541 5.77 12.326 11.835zm7.296-26.837-17.985-.006-.003 8 17.985.006zM41.162 79.225 28.835 67.39l-5.54 5.77L35.62 84.995zm0 33.55-5.54-5.77-12.328 11.835 5.541 5.77zm-7.175-12.778-.003-8L16 92.003l.003 8z"/></svg>