<svg xmlns="http://www.w3.org/2000/svg" viewBox="0 0 192 192"><path d="m153.857 79.613 19.563-4.158 1.664 7.825-19.563 4.158zm-.294 33.782 19.487 4.499 1.8-7.795-19.488-4.5-1.8 7.796zm-12.745 22.696 15.76 12.314 4.926-6.304-15.76-12.313zm21.48-85.042-4.815-6.388-15.972 12.036 4.814 6.388zm-41.661-9.904 7.063 3.756 9.39-17.659-7.064-3.756-9.39 17.659zM38.143 79.613 18.58 75.455l-1.663 7.825 19.562 4.158zM36.638 105.6l-19.488 4.499 1.8 7.795 19.488-4.5zm-6.142 36.5 4.926 6.304 15.76-12.314-4.926-6.303zM50.49 56.697 34.517 44.66l-4.815 6.388 15.973 12.036 4.814-6.388zm20.874-15.552-9.389-17.659-7.063 3.756L64.3 44.901l7.063-3.756zM115.111 128H132v8h-12v16h-4v24h-8v-24H84v24h-8v-24h-4v-16H60v-8h16.89l-.875-9.942a4 4 0 0 1-.015-.35V55.379c0-6.634 4.415-8.044 6.786-8.802.485-.155.944-.301 1.358-.473 1.904-.79 2.478-1.028 3.66-4.231.36-.97.61-1.878.851-2.757C89.39 36.455 90.616 32 96 32s6.611 4.455 7.345 7.116c.242.879.492 1.787.85 2.755 1.183 3.205 1.757 3.443 3.661 4.233.414.172.873.318 1.358.473 2.371.758 6.786 2.168 6.786 8.802v62.329q0 .174-.015.35L115.11 128zm-30.19 0H92v-20a4 4 0 0 1 0-8h8a4 4 0 0 1 0 8v20h7.08l.92-10.468V56H84v61.532L84.92 128zM112 136H80v8h32z"/></svg>