<svg xmlns="http://www.w3.org/2000/svg" viewBox="0 0 192 192"><path d="M130.86 97.93c2.71 6.31 6.8 15.83 3.82 26.12l-.05.16L117.31 176H76.53l-11.246-32.313 6.776-6.776v.219c0 1.14.19 2.26.57 3.33L82.21 168h29.34l15.47-46.25c2.13-7.52-1.13-15.11-3.51-20.66-.56-1.31-1.05-2.45-1.44-3.51l-3.55-7.13 5.954-5.953 5.046 10.163c.31.89.79 1.99 1.34 3.27M76.89 48H56v-8h16V24h4v-8h8v8h24v-8h8v8h4v16h15.03l-8 8h-11.92l.87 9.94c.01.12.02.24.02.35v.74l-8 8v-8.56L107.08 48H100v15.722a4 4 0 0 1 0 8h-8a4 4 0 0 1 0-8V48h-7.08L84 58.47v21.35c2.182 1.813 3.646 4.369 3.966 7.243l-7.3 7.3-.626-6.123c0-1.77-1.83-3.26-3.99-3.26H76c-2.14.02-3.94 1.5-3.94 3.26v14.73l-8 8V88.24c0-6.19 5.35-11.23 11.94-11.26V58.29c0-.11.01-.23.02-.35zM80 40h32v-8H80zm94.829-17.171-5.658-5.658-152 152 5.658 5.658z"/></svg>