<svg xmlns="http://www.w3.org/2000/svg" viewBox="0 0 192 192"><path d="M112.669 96.664c-5.546 1.129-19.748 4.506-31.813 11.454-10.524 6.062-19.578 13.058-25.494 19.699-4.091 4.591-4.068 11.534.053 16.15 5.972 6.688 15.083 13.76 25.655 19.915 12.12 7.055 26.347 10.563 31.9 11.743a12.11 12.11 0 0 0 13.786-7.354c3.484-8.695 5.372-20.086 5.315-32.074-.056-11.985-2.049-23.389-5.613-32.112-2.235-5.472-8.035-8.592-13.79-7.421zm6.662 68.632a4.126 4.126 0 0 1-4.697 2.504c-4.04-.858-18.106-4.176-29.539-10.832-9.722-5.66-18.365-12.34-23.713-18.33-1.411-1.581-1.432-3.946-.047-5.5 5.284-5.931 13.854-12.524 23.514-18.087 11.36-6.542 25.388-9.728 29.417-10.549 1.989-.404 4.004.692 4.786 2.609 3.185 7.796 4.968 18.139 5.02 29.123.051 10.98-1.633 21.302-4.741 29.062M176 112v8h-36v-8zm-36 20h36v8h-36zm0 20h36v8h-36zm-95.617-16.416c-.059 3.471.607 6.971 2.015 9.689a45.8 45.8 0 0 1-17.288-11.162C20.656 125.436 16 113.974 16 101.838c0-16.996 7.319-35.787 21.753-55.85C48.365 31.238 58.84 21.475 59.28 21.066l2.72-2.52 2.719 2.52c.44.409 10.916 10.172 21.528 24.922 11.042 15.348 17.904 29.948 20.527 43.572a131 131 0 0 0-7.745 2.194C93.961 64.144 70.131 37.898 62 29.617c-9.118 9.287-38 41.163-38 72.22 0 14.518 8.304 27.31 20.383 33.747"/></svg>