<svg xmlns="http://www.w3.org/2000/svg" viewBox="0 0 192 192"><path d="M115.111 128H132v8h-12v16h-4v24h-8v-24H84v24h-8v-24h-4v-16H60v-8h16.889l-.874-9.942a4 4 0 0 1-.015-.35V55.38c0-6.635 4.415-8.044 6.786-8.802.485-.155.944-.301 1.357-.473 1.904-.79 2.479-1.028 3.661-4.231.358-.969.608-1.878.851-2.756.733-2.662 1.961-7.116 7.345-7.116s6.611 4.455 7.345 7.116c.242.878.492 1.787.85 2.754 1.183 3.206 1.757 3.444 3.661 4.233.414.172.873.318 1.358.473 2.372.758 6.786 2.167 6.786 8.802v62.328q0 .176-.015.35zm-30.191 0H92v-20a4 4 0 0 1 0-8h8a4 4 0 0 1 0 8v20h7.08l.92-10.468V56H84v61.532zm27.08 8H80v8h32z"/></svg>