<svg xmlns="http://www.w3.org/2000/svg" viewBox="0 0 192 192"><path d="M148.224 76c.623 5.667 2.573 11.187 5.853 16H176v8h-16.772c2.558 5.008 4.085 10.46 4.58 16H176v8h-12.192c-.717 8.023-3.591 15.866-8.635 22.436l-6.346-4.872c3.96-5.157 6.258-11.278 6.95-17.564H132v-8h23.776c-.623-5.667-2.573-11.187-5.853-16H132v-8h12.772c-2.559-5.008-4.085-10.46-4.58-16H132v-8h8.192c.717-8.023 3.591-15.866 8.635-22.436l6.346 4.872c-3.96 5.157-6.258 11.278-6.95 17.564H176v8zM120 96.005c-.018 14.32-7.425 51.995-24 51.995-25.304 0-45.524-11.744-55.325-18.745C25.685 118.548 16 105.495 16 96s9.686-22.548 24.675-33.255C50.476 55.745 70.696 44 96 44c16.575 0 23.982 37.675 24 51.995M112 96c-.028-20.4-9.705-44-16-44-16.853 0-35.323 6.29-50.675 17.255C31.325 79.255 24 90.279 24 96s7.325 16.745 21.325 26.745C60.677 133.711 79.147 140 96 140c6.295 0 15.972-23.6 16-44"/></svg>