<svg xmlns="http://www.w3.org/2000/svg" viewBox="0 0 192 192"><path d="M107.984 121.502c1.076 0 2.142-.054 3.201-.143a29.5 29.5 0 0 1-4.294 5.47l-24.031 24.03C77.288 156.433 69.88 159.5 62 159.5s-15.288-3.068-20.86-8.64c-11.502-11.503-11.502-30.217 0-41.72l24.031-24.03c11.502-11.502 30.218-11.502 41.72 0a29.4 29.4 0 0 1 6.963 11.05 13.5 13.5 0 0 1-5.87 1.346c-.77 0-1.527-.077-2.271-.201a21.5 21.5 0 0 0-4.48-6.538c-8.382-8.383-22.022-8.383-30.404 0l-24.032 24.031c-8.383 8.383-8.383 22.023 0 30.406s22.023 8.382 30.406 0l24.03-24.032c.079-.077.147-.163.223-.242 2.135.372 4.316.573 6.528.573zm44.891-82.377c-11.501-11.502-30.217-11.502-41.72 0l-24.03 24.03a29.5 29.5 0 0 0-4.316 5.472 38 38 0 0 1 3.222-.145c2.214 0 4.395.201 6.53.573.077-.078.143-.164.22-.242l24.032-24.031c8.383-8.383 22.022-8.383 30.405 0s8.383 22.022 0 30.405l-24.031 24.031c-8.383 8.383-22.022 8.383-30.405 0a21.4 21.4 0 0 1-4.47-6.536 13.7 13.7 0 0 0-2.28-.203c-2.068 0-4.055.473-5.86 1.342a29.3 29.3 0 0 0 6.953 11.054c5.75 5.751 13.305 8.627 20.86 8.627s15.108-2.876 20.86-8.627l24.03-24.03c11.502-11.503 11.502-30.218 0-41.72M53.172 49.172a4 4 0 1 0 5.657 5.656 4 4 0 0 0-5.657-5.656m22.627-16.97 5.657-5.658c-14.037-14.036-36.875-14.036-50.912 0L36.2 32.2c10.917-10.918 28.68-10.918 39.598 0zm-5.657 5.656C66.365 34.081 61.342 32 56 32s-10.365 2.08-14.142 5.858l5.657 5.657C49.781 41.249 52.795 40 56 40s6.219 1.249 8.485 3.515z"/></svg>