<svg xmlns="http://www.w3.org/2000/svg" viewBox="0 0 192 192"><path d="M140.284 107.916H160v8h-19.716zM108 160h8v-19.799h-8zm20.97-25.456 14.142 14.143 5.658-5.658-14.143-14.142zm-77.254-58.46H32v8h19.716zM84 32h-8v19.799h8zM63.03 57.456 48.888 43.313l-5.658 5.658 14.143 14.142zm14.173 87.747c-8.383 8.382-22.023 8.382-30.406 0s-8.382-22.023 0-30.406l24.032-24.03-5.658-5.658-24.03 24.031c-11.503 11.503-11.503 30.217 0 41.72 5.75 5.75 13.305 8.626 20.859 8.626s15.108-2.875 20.86-8.626l24.031-24.031-5.657-5.658zm75.672-106.078c-11.501-11.503-30.217-11.501-41.723.003L85.168 65.175l5.664 5.65 25.981-26.043c8.383-8.383 22.022-8.383 30.405 0s8.383 22.022.004 30.402l-26.047 25.984 5.65 5.664 26.05-25.988c11.502-11.502 11.502-30.217 0-41.72z"/></svg>