<svg xmlns="http://www.w3.org/2000/svg" viewBox="0 0 192 192"><path d="M104.2 140c-.13 1.32-.2 2.65-.2 4s.07 2.68.2 4H56v-8zM48 48c0 8.822-7.178 16-16 16s-16-7.178-16-16 7.178-16 16-16 16 7.178 16 16m-8 0c0-4.411-3.589-8-8-8s-8 3.589-8 8 3.589 8 8 8 8-3.589 8-8m8 48c0 8.822-7.178 16-16 16s-16-7.178-16-16 7.178-16 16-16 16 7.178 16 16m-8 0c0-4.411-3.589-8-8-8s-8 3.589-8 8 3.589 8 8 8 8-3.589 8-8m8 48c0 8.822-7.178 16-16 16s-16-7.178-16-16 7.178-16 16-16 16 7.178 16 16m-8 0c0-4.411-3.589-8-8-8s-8 3.589-8 8 3.589 8 8 8 8-3.589 8-8M56 44v8h120v-8zm0 56h120v-8H56zm92 28h-8v12h-12v8h12v12h8v-12h12v-8h-12zm28 16c0 17.645-14.355 32-32 32s-32-14.355-32-32 14.355-32 32-32 32 14.355 32 32m-8 0c0-13.234-10.766-24-24-24s-24 10.766-24 24 10.766 24 24 24 24-10.766 24-24"/></svg>