<svg xmlns="http://www.w3.org/2000/svg" viewBox="0 0 192 192"><path d="m152 174-27.6-11.5c-9 3.6-18.6 5.5-28.4 5.5-41.9 0-76-34.1-76-76s34.1-76 76-76 76 34.1 76 76c0 19.1-7.1 37.3-20 51.4zm-27.6-20.2L144 162v-21.8l1.1-1.2c12.2-12.7 18.9-29.4 18.9-47 0-37.5-30.5-68-68-68S28 54.5 28 92s30.5 68 68 68c9.3 0 18.3-1.8 26.8-5.5zm-33.8-47.9c0-8.1 2.3-12.1 10.5-17.9 6.4-4.4 8.4-7.7 8.4-13.1 0-6.8-5-11.4-12.6-11.4-8.3 0-13.4 4.4-15 13.3l-8.4-1.1c1.1-6.5 3-10.3 7-13.9C84.8 58 90.6 56 97.3 56c12.9 0 21.7 7.6 21.7 18.8 0 5.2-1.6 9.4-4.8 12.9-2 2.1-3.5 3.3-8.4 6.6-5.8 3.8-7.1 6.3-7.1 12.8v4.7h-8v-5.9zm10.8 23.1c0 3.8-3.2 7-7 7-4 0-7-3.1-7-7 0-4 3.1-7 7-7s7 3.1 7 7"/></svg>