<svg xmlns="http://www.w3.org/2000/svg" viewBox="0 0 192 192"><path d="M22.438 64.06h11.731v42.92h23.07v9.443H22.438zm42.777 0h13.34l19.386 35.517V64.06h10.695v52.363H95.83L75.91 80.084v36.339H65.215zm78.508 53.186q-11.624 0-18.384-8.334-5.866-7.297-5.866-18.42 0-12.948 8.119-20.566 7.082-6.688 18.026-6.688 9.585 0 15.666 5.436 2.684 2.397 4.757 6.438l-10.622 4.257q-1.718-3.541-4.238-5.115-2.523-1.574-6.528-1.574-6.546 0-9.98 5.294-2.968 4.613-2.968 12.446 0 8.871 3.97 13.413 3.435 3.97 9.443 3.97 5.614 0 9.013-3.433 2.897-2.97 2.897-7.44v-.429h-11.051v-8.728h22.497v28.65h-6.51l-2.074-7.69q-3.255 4.757-7.476 6.76-3.684 1.753-8.691 1.753"/></svg>