<svg xmlns="http://www.w3.org/2000/svg" viewBox="0 0 192 192"><path d="M96.026 176.026c-.646 0-1.288-.008-1.937-.023-21.363-.51-41.248-9.312-55.993-24.784-14.744-15.471-22.583-35.76-22.073-57.13 1.054-44.113 37.809-79.103 81.888-78.092 21.363.51 41.248 9.312 55.993 24.784 14.744 15.471 22.583 35.76 22.073 57.13-1.039 43.465-36.72 78.116-79.952 78.116Zm-.049-152.052c-38.911 0-71.021 31.185-71.956 70.308-.459 19.233 6.596 37.495 19.867 51.419s31.167 21.846 50.393 22.305c39.668.958 72.751-30.582 73.699-70.287.459-19.233-6.596-37.495-19.867-51.419S116.946 24.454 97.72 23.995a73 73 0 0 0-1.743-.021"/></svg>