<svg xmlns="http://www.w3.org/2000/svg" viewBox="0 0 192 192"><path d="M96 104c-13.234 0-24-10.766-24-24s10.766-24 24-24 24 10.766 24 24-10.766 24-24 24m0-40c-8.822 0-16 7.178-16 16s7.178 16 16 16 16-7.178 16-16-7.178-16-16-16m54.842 12h8.023C157.5 42.68 129.831 15.988 96 15.988v8.024c29.406 0 53.482 23.093 54.842 51.988m-15.113 8c-.7 8.123-3.003 15.78-6.463 21.167l-.066.106c-5.043 8.41-25.067 41.492-33.2 54.923-8.132-13.431-28.157-46.513-33.198-54.923l-.067-.106c-4.19-6.523-6.693-16.376-6.693-26.356 0-21.377 17.925-38.769 39.958-38.769 21.057 0 38.35 15.89 39.841 35.958h8.107C142.452 51.47 121.522 31.958 96 31.958c-26.49 0-48.042 21.018-48.042 46.853 0 11.61 2.894 22.785 7.94 30.67 6.414 10.7 36.342 60.114 36.644 60.613L96 175.803l3.458-5.709c.302-.499 30.229-49.913 36.644-60.612 4.29-6.702 7.015-15.781 7.74-25.482z"/></svg>