<svg xmlns="http://www.w3.org/2000/svg" viewBox="0 0 192 192"><path d="M140.51 96.166c4.9-8.222 7.49-17.672 7.49-27.332C148 39.701 124.673 16 96 16S44 39.701 44 68.834c0 9.693 2.61 19.173 7.546 27.42L96 175.147zM140 68.834c0 8.233-2.208 16.281-6.385 23.274L96 158.853 58.49 92.28l-.056-.095C54.225 85.171 52 77.096 52 68.834 52 44.112 71.738 24 96 24s44 20.112 44 44.834M91.6 94.866q-1.835 1.814-1.835 4.442 0 2.376 1.627 4.128 1.876 2.085 4.629 2.085 2.376 0 4.129-1.626 2.085-1.877 2.085-4.587 0-2.586-1.814-4.421c-1.814-1.835-2.649-1.835-4.317-1.835q-2.669 0-4.504 1.814m1.919-8.904h5.338l2.293-23.229v-18.85h-9.925v18.85l2.294 23.23z"/></svg>