<svg xmlns="http://www.w3.org/2000/svg" viewBox="0 0 192 192"><path d="M160 152h-44v-16H98.254l1.167-1.928c.22-.363 21.963-36.263 26.645-44.072C129.838 84.099 132 75.77 132 67.135 132 47.762 115.85 32 96 32S60 47.762 60 67.135C60 75.77 62.162 84.1 65.934 90c4.682 7.81 26.425 43.71 26.645 44.072L93.746 136H76v16H32v8h44v16h40v-16h44zM72.765 85.835l-.066-.105C69.757 81.15 68 74.199 68 67.135 68 52.173 80.56 40 96 40s28 12.173 28 27.135c0 7.063-1.757 14.015-4.7 18.595l-.064.105c-3.49 5.822-16.86 27.91-23.236 38.442-6.377-10.532-19.745-32.62-23.235-38.442M108 168H84v-24h24zM80 57h7.439v27H80zm20.77 17.824h5.061c6.118 0 9.78-3.285 9.78-8.723 0-5.74-3.776-9.101-10.158-9.101H93.332v27h7.439zm0-12.235h4.08c2.378 0 3.624 1.17 3.624 3.398s-1.283 3.437-3.663 3.437h-4.04z"/></svg>