<svg xmlns="http://www.w3.org/2000/svg" viewBox="0 0 192 192"><path d="M65.201 82.303A18.7 18.7 0 0 1 55.5 85.02c-10.362 0-18.792-8.394-18.792-18.712s8.43-18.712 18.792-18.712c4.08 0 7.85 1.316 10.934 3.524a59.5 59.5 0 0 0-1.937 9.287 10.8 10.8 0 0 0-8.997-4.81c-5.95 0-10.792 4.804-10.792 10.711S49.55 77.02 55.5 77.02c3.533 0 6.665-1.702 8.635-4.314a86 86 0 0 0 1.066 9.597M148 68c0-13.234-10.766-24-24-24s-24 10.766-24 24 10.766 24 24 24 24-10.766 24-24m-8 0c0 8.822-7.178 16-16 16s-16-7.178-16-16 7.178-16 16-16 16 7.178 16 16m-12.554 102.03c.33-.558 32.99-55.982 39.979-67.963C172.875 93.317 176 80.905 176 68c0-28.673-23.327-52-52-52S72 39.327 72 68c0 12.906 3.125 25.318 8.576 34.067 6.989 11.981 39.648 67.405 39.978 67.964l3.446 5.848 3.446-5.848zM168 68c0 11.304-2.763 22.474-7.392 29.88l-.063.104c-5.57 9.549-27.895 47.454-36.545 62.136-8.65-14.683-30.975-52.587-36.544-62.135l-.063-.105C82.763 90.475 80 79.305 80 68c0-24.262 19.738-44 44-44s44 19.738 44 44m-94.28 38.192c-.5-.81-.978-1.654-1.445-2.514a53827 53827 0 0 1-16.775 28.34c-6.92-11.685-22.194-37.479-26.132-44.195l-.064-.105C25.983 82.434 24 74.43 24 66.308 24 49.045 38.13 35 55.5 35c5.774 0 11.185 1.56 15.844 4.266a60 60 0 0 1 4.31-6.746A39.4 39.4 0 0 0 55.5 27C33.72 27 16 44.634 16 66.308c0 9.682 2.367 19.013 6.497 25.613 5.186 8.842 29.318 49.574 29.562 49.985l3.441 5.808 3.441-5.808c.152-.257 9.599-16.201 17.944-30.308a2974 2974 0 0 1-3.164-5.406z"/></svg>