<svg xmlns="http://www.w3.org/2000/svg" viewBox="0 0 192 192"><path d="M140 72V60c0-24.262-19.738-44-44-44-13.97 0-26.8 6.414-35.201 17.597l6.396 4.805C74.07 29.25 84.57 24 96 24c19.85 0 36 16.15 36 36v12H32v104h128V72zm12 96H40V80h112zm-68-20h24v-21.437c2.561-2.908 4-6.666 4-10.563a16.02 16.02 0 0 0-5.325-11.918 16.06 16.06 0 0 0-12.47-3.983c-7.398.812-13.335 6.778-14.115 14.187-.479 4.547.935 8.929 3.91 12.282zm4.046-32.876c.383-3.634 3.406-6.675 7.033-7.073 2.317-.258 4.542.451 6.257 1.989A8.02 8.02 0 0 1 104 116a8 8 0 0 1-2.67 5.948l-1.33 1.193V140h-8v-16.86l-1.33-1.192a7.95 7.95 0 0 1-2.624-6.824"/></svg>