<svg xmlns="http://www.w3.org/2000/svg" viewBox="0 0 192 192"><path d="M24 80h96V60c0-24.262-19.738-44-44-44S32 35.738 32 60v12H16v104h104v-8H24zm16-20c0-19.851 16.149-36 36-36s36 16.149 36 36v12H40zm48 88v-21.437c2.561-2.908 4-6.666 4-10.563 0-4.542-1.941-8.885-5.325-11.918a16.06 16.06 0 0 0-12.47-3.983c-7.399.812-13.335 6.779-14.115 14.188-.479 4.547.935 8.929 3.91 12.282v21.432zm-19.954-32.876c.383-3.634 3.406-6.675 7.032-7.073 2.317-.257 4.542.451 6.258 1.989A8 8 0 0 1 84 116a8 8 0 0 1-2.67 5.948L80 123.14v16.859h-8V123.14l-1.33-1.192a7.95 7.95 0 0 1-2.624-6.824m83.953 21.555v-48.68h-8v48.721c-4.625 1.668-7.945 6.088-7.945 11.28 0 6.617 5.383 12 12 12s12-5.383 12-12c0-5.233-3.373-9.683-8.055-11.32ZM148.054 152c-2.206 0-4-1.794-4-4s1.794-4 4-4 4 1.794 4 4-1.794 4-4 4M168 128.41V72c0-11.028-8.972-20-20-20s-20 8.972-20 20v56.41a28.04 28.04 0 0 0-8 19.59c0 15.439 12.561 28 28 28s28-12.561 28-28a28.04 28.04 0 0 0-8-19.59M148 168c-11.028 0-20-8.972-20-20a20.03 20.03 0 0 1 6.668-14.904l1.332-1.192V72c0-6.617 5.383-12 12-12s12 5.383 12 12v59.904l1.332 1.192A20.03 20.03 0 0 1 168 148c0 11.028-8.972 20-20 20"/></svg>