<svg xmlns="http://www.w3.org/2000/svg" xml:space="preserve" viewBox="0 0 192 192"><path d="m140 157.657-10.829-10.828 5.658-5.658 5.171 5.172 13.171-13.172 5.658 5.658zM176 144c0-17.645-14.355-32-32-32s-32 14.355-32 32 14.355 32 32 32 32-14.355 32-32m-8 0c0 13.234-10.766 24-24 24s-24-10.766-24-24 10.766-24 24-24 24 10.766 24 24m-84 4v-21.432c-2.975-3.353-4.389-7.734-3.91-12.282.78-7.409 6.717-13.375 14.116-14.187 4.544-.5 9.088.952 12.47 3.983A16.02 16.02 0 0 1 112 116a15.9 15.9 0 0 1-.936 5.337 40 40 0 0 0-3.044 5.201l-.02.025v.014c-2.56 5.27-4 11.181-4 17.423 0 1.35.07 2.684.2 4zm6.67-26.052 1.33 1.193V140h8v-16.86l1.33-1.192A8 8 0 0 0 104 116c0-2.27-.97-4.443-2.664-5.96-1.715-1.538-3.94-2.247-6.257-1.99-3.627.399-6.65 3.44-7.033 7.074a7.95 7.95 0 0 0 2.624 6.824M160 72v35.35a39.7 39.7 0 0 0-8-2.545V80H40v88h72.022a40.3 40.3 0 0 0 8.006 8H32V72h20V60c0-24.262 19.738-44 44-44s44 19.738 44 44v12zM60 72h72V60c0-19.85-16.15-36-36-36S60 40.15 60 60z"/></svg>