<svg xmlns="http://www.w3.org/2000/svg" viewBox="0 0 192 192"><path d="M144 176H48c-6.617 0-12-5.383-12-12V44c0-15.584 31.597-28 44-28h32c12.403 0 44 12.416 44 28v120c0 6.617-5.383 12-12 12M80 24c-5.412 0-14.929 2.958-22.628 7.035C49.249 35.335 44 40.425 44 44v120c0 2.206 1.794 4 4 4h96c2.206 0 4-1.794 4-4V44c0-3.576-5.249-8.665-13.372-12.965C126.928 26.96 117.412 24 112 24zm34 32H78c-3.364 0-6-2.928-6-6.667V38.668C72 34.928 74.636 32 78 32h36c3.364 0 6 2.928 6 6.667v10.666c0 3.739-2.636 6.667-6 6.667m-34-8h32v-8H80z"/></svg>