<svg xmlns="http://www.w3.org/2000/svg" viewBox="0 0 192 192"><path d="m175.576 128.982-10.641-54.638C162.865 63.714 153.503 56 142.676 56 130.172 56 120 66.175 120 78.681v7.662l-7.975-7.975V40h-8v38.317L96 86.343V78.68C96 66.175 85.828 56 73.324 56c-10.827 0-20.188 7.715-22.259 18.344L49.964 80h8.15l.804-4.126C60.258 68.994 66.316 64 73.324 64 81.416 64 88 70.586 88 78.681v54.638C88 141.414 81.416 148 73.324 148H62.683a14.63 14.63 0 0 1-14.414-12h-8.103a22.6 22.6 0 0 0 5.018 11.745A22.6 22.6 0 0 0 62.683 156h10.64C85.829 156 96 145.825 96 133.319V97.657l12-12 12 12v35.662C120 145.825 130.172 156 142.676 156h10.641a22.6 22.6 0 0 0 17.5-8.255 22.61 22.61 0 0 0 4.759-18.763m-10.933 13.675A14.63 14.63 0 0 1 153.317 148h-10.64c-8.093 0-14.677-6.586-14.677-14.681V78.68c0-8.094 6.584-14.68 14.676-14.68 7.008 0 13.066 4.994 14.406 11.874l10.641 54.638a14.64 14.64 0 0 1-3.08 12.145"/><path d="M69.071 96.422a4.001 4.001 0 0 0-7.188 1.184l-1.999 7.43L55.846 90.9a4 4 0 0 0-3.685-2.898 3.97 3.97 0 0 0-3.906 2.593l-8.78 23.41-3.897-7.795A4 4 0 0 0 32 104H16v8h13.528l6.894 13.79a4 4 0 0 0 7.323-.386l7.741-20.642 4.668 16.337c.494 1.729 2.117 2.892 3.877 2.901a4 4 0 0 0 3.832-2.96l3.456-12.845 1.356 2.028 6.65-4.446z"/></svg>