<svg xmlns="http://www.w3.org/2000/svg" viewBox="0 0 192 192"><path d="M144 176c-17.645 0-32-14.355-32-32s14.355-32 32-32 32 14.355 32 32-14.355 32-32 32m0-56c-13.234 0-24 10.766-24 24s10.766 24 24 24 24-10.766 24-24-10.766-24-24-24m4 36c0 2.21-1.769 4-3.98 4-2.25 0-4.02-1.753-4.02-4 0-2.21 1.807-4 4.056-4 2.138 0 3.945 1.828 3.945 4zm-8-20.044V128h8l.001 8.043L146.73 148h-5.458zM104.805 152H24V40h40v88h43.35a40 40 0 0 1 4.672-8H72V40h32v36h12v20h8V76h12V40h32v72.022a40.3 40.3 0 0 1 8 8.006V32H16v128h16v16h8v-16h67.35a39.7 39.7 0 0 1-2.545-8M112 40h16v28h-16zm-56 8H32v8h24zm0 20H32v8h24z"/></svg>