<svg xmlns="http://www.w3.org/2000/svg" viewBox="0 0 192 192"><path d="M94.458 60H16v-8h84.261a48.3 48.3 0 0 0-5.803 8M176 84c0 22.056-17.944 40-40 40a39.74 39.74 0 0 1-18.03-4.312l-35.141 35.14c-2.018 2.018-5.479 3.466-9.095 3.466-2.99 0-6.087-.99-8.563-3.465-5.47-5.47-3.686-13.971 0-17.658l35.14-35.14A39.74 39.74 0 0 1 96 84c0-22.056 17.944-40 40-40s40 17.944 40 40m-64.916 31.258a40.3 40.3 0 0 1-6.342-6.342l-33.913 33.913c-.651.65-2.189 4.154 0 6.342 2.188 2.19 5.692.651 6.342 0zM168 84c0-17.645-14.355-32-32-32s-32 14.355-32 32 14.355 32 32 32 32-14.355 32-32M89.519 72H24v8h64.18c.227-2.736.67-5.412 1.339-8m-.84 20H32v8h58.752a47.6 47.6 0 0 1-2.073-8"/></svg>