<svg xmlns="http://www.w3.org/2000/svg" viewBox="0 0 192 192"><path d="m51.8 36.356 14.637 26.79v-26.79H74.5v39.495h-9.666L49.811 48.453v27.398h-8.066V36.356zm73.163 27.398c1.657 4.032 4.309 5.745 8.728 5.745s7.07-1.824 7.07-4.861c0-2.652-1.435-3.701-7.18-5.027-6.243-1.436-8.175-2.099-9.999-3.259-3.038-1.934-4.473-4.64-4.473-8.451 0-7.512 5.302-12.097 14.582-12.097 6.132 0 11.048 2.21 14.693 7.07l-7.18 3.977c-2.32-3.204-4.696-4.087-7.458-4.087-4.143 0-6.186 1.547-6.186 4.253 0 2.485 1.712 3.646 6.849 4.64 5.358 1.105 8.23 2.044 10.384 3.37 3.094 2.043 4.585 4.915 4.585 9.058 0 7.954-5.579 12.373-15.577 12.373-8.285 0-13.367-2.927-16.46-9.445zM175.997 88V16H16v159.942h160V88zM100 24h67.997v64H100zm-76 0h68v64H24zm144 104h-24.504c-1.768-6.912-8.03-12.045-15.485-12.045-8.823 0-16 7.178-16 16s7.177 16 16 16c7.422 0 13.663-5.088 15.461-11.955H168v31.942H24V136h24.525c1.784 6.888 8.036 12 15.473 12 4.81 0 9.13-2.13 12.05-5.5l34.16 17.08 3.58-7.16-34.15-17.07c.24-1.08.36-2.2.36-3.35 0-8.82-7.18-16-16-16-7.437 0-13.69 5.112-15.473 12H24V96h144zm-31.99 3.955c0 4.411-3.588 8-8 8-4.41 0-8-3.589-8-8s3.59-8 8-8c4.412 0 8 3.589 8 8M55.999 132c0-4.41 3.59-8 8-8 4.25 0 7.74 3.33 7.98 7.52.02.16.02.32.02.48 0 2.79-1.43 5.25-3.6 6.68a7.97 7.97 0 0 1-4.4 1.32c-4.41 0-8-3.59-8-8"/></svg>