<svg xmlns="http://www.w3.org/2000/svg" xml:space="preserve" viewBox="0 0 192 192"><path d="M104.405 36.444h8.064v39.494h-9.666L87.78 48.541v27.397h-8.066V36.444h10.054l14.638 26.79zm-8.858 113.142c-4.418 0-7.07-1.712-8.727-5.744l-7.622 3.259c3.093 6.518 8.175 9.445 16.46 9.445 9.998 0 15.577-4.42 15.577-12.373 0-4.143-1.491-7.015-4.585-9.059-2.154-1.325-5.026-2.264-10.385-3.37-5.136-.994-6.848-2.154-6.848-4.64 0-2.706 2.043-4.253 6.186-4.253 2.762 0 5.137.884 7.457 4.088l7.18-3.977c-3.645-4.861-8.56-7.07-14.693-7.07-9.279 0-14.582 4.584-14.582 12.097 0 3.81 1.436 6.517 4.474 8.45 1.823 1.161 3.756 1.824 9.998 3.26 5.745 1.325 7.18 2.375 7.18 5.027 0 3.037-2.65 4.86-7.07 4.86M140 15.97v160.06H52V15.97zM132 100H60v68.03h72zm0-8V23.97H60V92z"/></svg>