<svg xmlns="http://www.w3.org/2000/svg" viewBox="0 0 192 192"><path d="M163.729 52c-1.608-11.522-10.285-19.057-23.446-19.991-4.37-.314-8.5.305-12.154 1.77-3.08-1.095-6.466-1.704-10.045-1.78-4.17-.095-8.069.58-11.54 1.932-3.19-1.192-6.72-1.853-10.46-1.931-3.98-.09-7.718.52-11.071 1.753-3.394-1.228-7.166-1.84-11.1-1.753-3.698.08-7.133.752-10.22 1.98-3.246-1.315-6.881-1.962-10.71-1.981C39.48 32.057 29.982 39.938 28.275 52H16v8h20v-4c0-11.744 8.79-15.966 17.017-16.001.638.001 1.235.018 1.819.06-3.855 4.226-5.92 9.658-5.836 15.412.124 8.404 5.464 20.277 13.882 20.525 4.34.156 8.24-2.957 11.004-7.328 2.697 4.417 6.635 7.467 11.231 7.328 4.598-.135 8.196-3.298 10.708-7.429 2.641 4.378 6.48 7.434 10.998 7.433q.146 0 .294-.004c3.79-.111 7.897-2.816 10.836-7.251 2.697 4.375 6.601 7.393 11.164 7.25 6.76-.198 14.534-8.652 14.882-20.465.168-5.73-1.952-11.21-5.967-15.434l-.158-.164q.909-.01 1.843.056C145.797 40.42 156 43.074 156 56v4h20v-8zM63.149 68h-.031c-1.955-.058-6.02-5.948-6.118-12.646-.083-5.63 2.711-9.786 6.73-12.345a15 15 0 0 1 2.277 1.92c2.415 2.492 3.805 5.675 3.985 9.072q-.02.7.005 1.409C69.701 62.124 65.211 68 63.15 68zm10.817-25.977a23 23 0 0 0-1.532-1.926q.826-.08 1.653-.1.757-.016 1.5.012a22 22 0 0 0-1.621 2.014m18.028 13.288c-.57 6.123-4.183 12.602-7.111 12.689h-.054c-2.746 0-6.5-6.048-6.826-12.615q.02-.71-.004-1.413c.154-3.404 1.51-6.557 3.888-8.985a15 15 0 0 1 3.17-2.453 15 15 0 0 1 3.557 2.76c2.071 2.197 3.234 4.87 3.42 7.815a23 23 0 0 0-.04 2.202m4.118-13.49a21 21 0 0 0-1.493-1.819 27 27 0 0 1 2.905.077q-.755.84-1.412 1.741zM106.882 68h-.053c-2.735 0-6.47-5.997-6.822-12.534q.075-1.104.04-2.194a13.6 13.6 0 0 1 3.84-8.285 14.8 14.8 0 0 1 2.75-2.2 16.2 16.2 0 0 1 3.597 2.822c2.29 2.408 3.574 5.327 3.752 8.502q-.013.656.011 1.316c-.236 6.163-4.311 12.49-7.114 12.573zm10.86-25.878a22 22 0 0 0-1.71-2.026l-.064-.066a27 27 0 0 1 3.334.032 22 22 0 0 0-1.56 2.06M128.883 68h-.053c-2.732 0-6.486-6.057-6.827-12.632q.015-.662-.011-1.319c.133-3.683 1.65-7.171 4.257-9.712q.977-.95 2.122-1.702a16.2 16.2 0 0 1 3.864 2.974c2.572 2.704 3.874 6.054 3.768 9.686-.182 6.204-4.296 12.621-7.12 12.705m-62.445 36.356H74.5v39.495h-9.666L49.81 116.453v27.398h-8.066v-39.495H51.8l14.638 26.79zm74.324 28.282c0-2.652-1.435-3.701-7.18-5.027-6.243-1.436-8.175-2.099-9.999-3.259-3.038-1.934-4.473-4.64-4.473-8.451 0-7.512 5.303-12.097 14.582-12.097 6.132 0 11.048 2.21 14.693 7.07l-7.18 3.977c-2.32-3.204-4.696-4.087-7.458-4.087-4.143 0-6.186 1.547-6.186 4.253 0 2.485 1.712 3.646 6.849 4.64 5.358 1.105 8.23 2.044 10.384 3.37 3.094 2.043 4.585 4.915 4.585 9.058 0 7.954-5.579 12.373-15.577 12.373-8.285 0-13.367-2.927-16.46-9.445l7.622-3.26c1.658 4.033 4.309 5.746 8.728 5.746s7.07-1.824 7.07-4.861M92 84H16v80h159.997V84zm-68 72V92h68v64zm143.997-64v64H100V92z"/></svg>