<svg xmlns="http://www.w3.org/2000/svg" viewBox="0 0 192 192"><path d="M69.171 121.171c-4.442 4.443-11.348 2.996-14.342 0-2.995-2.994-4.444-9.9 0-14.342L105.657 56 80 30.343 29.171 81.171c-8.683 8.684-13.376 20.509-13.213 33.297.156 12.324 4.972 24.119 13.213 32.36 8.242 8.242 20.037 13.058 32.36 13.214q.322.004.641.004c12.542 0 24.119-4.68 32.657-13.217L145.657 96 120 70.343zM94.343 56 86 64.343 71.657 50 80 41.657zm-5.172 85.171c-14.474 14.475-39.868 14.475-54.342 0s-14.475-39.868 0-54.342l31.17-31.172L80.344 70l-31.172 31.171c-7.56 7.56-6.067 19.59 0 25.658 6.068 6.067 18.098 7.56 25.658 0L106 95.657 120.344 110zm36.83-36.828L111.656 90 120 81.657 134.343 96 126 104.343zM152 52l12 8h-44l20-8-8.05-7.95h44.1z"/></svg>