<svg xmlns="http://www.w3.org/2000/svg" viewBox="0 0 192 192"><path d="M83.27 49.4C88.492 46.245 92 40.532 92 34c0-9.925-8.075-18-18-18s-18 8.075-18 18c0 6.532 3.509 12.245 8.73 15.4C54.652 52.627 48 61.153 48 72v44h12v60h8v-68H56V72c0-9.42 7.402-16 18-16s17.998 6.579 17.998 15.999L92 108H80v68h8v-60h12l-.002-44.001c0-10.847-6.652-19.372-16.727-22.6zM74 44c-5.514 0-10-4.486-10-10s4.486-10 10-10 10 4.486 10 10-4.486 10-10 10m48.121-18.707h6.241V60h-7.441V35.182c-2.4 1.248-6.24 1.968-9.696 1.968l-.769-4.32c5.425-.913 9.41-2.688 11.665-7.537m41.138 28.803V60h-24.34v-5.856c5.521-3.505 7.058-4.609 9.842-7.057 4.224-3.793 6.385-7.585 6.385-11.281 0-2.976-1.584-4.752-4.32-4.752-2.593 0-4.129 1.536-5.138 5.184l-6.72-1.632c1.776-6.385 5.665-9.457 12.193-9.457 7.25 0 11.713 4.128 11.713 10.753 0 4.464-1.92 8.4-5.952 12.241-1.968 1.92-4.08 3.408-8.21 5.953z"/></svg>