<svg xmlns="http://www.w3.org/2000/svg" viewBox="0 0 192 192"><path d="M175.25 64.304c-2.63-9.81-11.54-16.3-21.25-16.3-1.87 0-3.78.24-5.67.75-12.86-19.71-35.1-32.75-60.33-32.75-10.79 0-21.04 2.38-30.23 6.66-.07-.08-.14-.15-.21-.22-4.16-4.16-9.68-6.44-15.56-6.44s-11.4 2.28-15.56 6.44c-8.21 8.22-8.55 21.37-1.03 30-5.99 10.5-9.41 22.64-9.41 35.56 0 25.23 13.04 47.47 32.74 60.33-3.12 11.71 3.86 23.77 15.57 26.91 1.9.51 3.8.75 5.68.75 9.64 0 18.48-6.38 21.19-16.06 37.18-1.62 67.13-31.57 68.75-68.75 5.58-1.55 10.23-5.16 13.13-10.18a21.82 21.82 0 0 0 2.19-16.7M88 24.004c22.05 0 41.53 11.21 53.04 28.23-6.27 4.57-9.8 12.28-8.9 20.22s-10.36 3.041-10.36 3.041v-.001a35.9 35.9 0 0 0-8.32-12.95c-13.08-13.07-33.81-13.97-47.93-2.67l-7.17-7.17c5.83-6.48 7.13-15.62 3.89-23.29 7.88-3.48 16.59-5.41 25.75-5.41m-19.8 83.79c-5.29-5.28-8.2-12.32-8.2-19.79s2.91-14.51 8.2-19.8c5.46-5.46 12.63-8.19 19.8-8.19s14.34 2.73 19.8 8.19c5.29 5.29 8.2 12.32 8.2 19.8s-2.91 14.51-8.2 19.79c-10.92 10.92-28.68 10.92-39.6 0m-36.1-79.69c2.64-2.65 6.16-4.1 9.9-4.1 3.02 0 5.89.94 8.27 2.7.57.42 1.12.89 1.63 1.4 1.47 1.47 2.54 3.19 3.22 5.02 1.84 4.97.77 10.79-3.22 14.78-2.65 2.64-6.16 4.1-9.9 4.1-2.1 0-4.12-.46-5.96-1.32a14 14 0 0 1-3.94-2.78c-.8-.8-1.48-1.67-2.04-2.59-3.3-5.39-2.62-12.56 2.04-17.21m-8.1 59.9c0-11.05 2.81-21.45 7.76-30.52 3.12 1.65 6.61 2.52 10.24 2.52 3.519 0 6.918-.82 9.968-2.379l7.911 7.911c-5.119 6.36-7.878 14.199-7.878 22.468 0 9.61 3.74 18.65 10.54 25.45 3.12 3.12 6.68 5.55 10.49 7.29l-3.084 11.25c-3.809 0-7.568 1-10.946 2.96-2.71 1.56-5.01 3.63-6.78 6.09-17.01-11.51-28.22-30.99-28.22-53.04Zm42.38 79.51c-6.74-1.8-11.02-8.25-10.29-14.98q.105-1.08.39-2.16c.52-1.95 1.44-3.73 2.69-5.24 1.04-1.29 2.34-2.39 3.83-3.25 2.16-1.25 4.55-1.89 6.98-1.89 1.21 0 2.44.16 3.64.49 5.52 1.47 9.39 6.06 10.21 11.38.29 1.86.21 3.82-.31 5.76-.21.76-.47 1.49-.79 2.19-2.78 6.1-9.65 9.5-16.35 7.7m25.51-15.63c-.79-8.15-6.13-15.419-14.049-18.43l2.804-10.23c2.419.509 4.887.759 7.355.759 9.22 0 18.44-3.51 25.46-10.53 6.79-6.8 10.54-15.84 10.54-25.45 0-1.6-.1-3.17-.31-4.73v-.002l10.769-3.161.001.003c3.45 6.66 10.08 11.07 17.42 11.78-1.94 32.2-27.79 58.05-59.99 59.99Zm74.24-74.88c-1.48 2.55-3.67 4.54-6.32 5.73a13.8 13.8 0 0 1-7.95 1.1c-5.31-.83-9.9-4.69-11.38-10.21-1.47-5.48.53-11.07 4.65-14.45 1.49-1.23 3.27-2.17 5.25-2.7.71-.19 1.43-.32 2.14-.39 6.74-.73 13.2 3.55 15.01 10.29.97 3.61.47 7.39-1.4 10.63"/></svg>