<svg xmlns="http://www.w3.org/2000/svg" viewBox="0 0 192 192"><path d="M176 16v40h-8.783V25.902L157.035 56h-6.602l-10.236-30.154V56h-8.001V16h12.867l9.064 27.413L163.189 16h12.812zm0 127.999c0 17.645-14.355 32-32 32s-32-14.355-32-32 14.355-32 32-32 32 14.355 32 32m-8 0c0-13.234-10.767-24-24-24s-24 10.766-24 24 10.767 24 24 24 24-10.767 24-24m-20-16h-8v12h-12v8h12v12h8v-12h12v-8h-12zm-44 16c0 2.067.158 4.098.462 6.082A36.19 36.19 0 0 1 84 132.461C78.013 144.052 65.921 152 52 152c-19.85 0-36-16.15-36-36s16.15-36 36-36c.715 0 1.423.027 2.127.068A35.8 35.8 0 0 1 48 60c0-19.85 16.15-36 36-36s36 16.15 36 36c0 7.424-2.26 14.33-6.127 20.068A36 36 0 0 1 116 80c15.815 0 29.271 10.255 34.092 24.462a40 40 0 0 0-6.092-.463c-.896 0-1.782.04-2.663.098C136.855 94.594 127.185 88 116 88c-15.44 0-28 12.56-28 28 0 11.185 6.595 20.855 16.098 25.337a40 40 0 0 0-.098 2.662M80 116c0-15.44-12.56-28-28-28s-28 12.56-28 28 12.56 28 28 28 28-12.56 28-28m4-28c15.44 0 28-12.56 28-28S99.44 32 84 32 56 44.56 56 60s12.56 28 28 28"/></svg>