<svg xmlns="http://www.w3.org/2000/svg" viewBox="0 0 192 192"><path d="M132 88a40 40 0 0 0-4.196.221C132.94 81.493 136 73.1 136 64c0-22.056-17.944-40-40-40S56 41.944 56 64c0 9.099 3.06 17.493 8.196 24.221A40 40 0 0 0 60 88c-22.056 0-40 17.944-40 40s17.944 40 40 40c15.814 0 29.512-9.226 36-22.577 6.488 13.35 20.186 22.577 36 22.577 22.056 0 40-17.944 40-40s-17.944-40-40-40M96 32c17.645 0 32 14.355 32 32s-14.355 32-32 32-32-14.356-32-32 14.355-32 32-32M60 160c-17.645 0-32-14.356-32-32s14.355-32 32-32 32 14.355 32 32-14.355 32-32 32m72 0c-17.645 0-32-14.356-32-32s14.355-32 32-32 32 14.355 32 32-14.355 32-32 32"/></svg>