<svg xmlns="http://www.w3.org/2000/svg" viewBox="0 0 192 192"><path d="M156 144h-24v-8h24zm16-28v60h-56v-60h16v-4h24v4zm-8 8h-8v4h-24v-4h-8v44h40zm-8 28h-24v8h24zm3.694-48c-5.541-9.555-15.876-16-27.694-16-17.645 0-32 14.356-32 32 0 8.094 3.026 15.49 8 21.132v10.836a40.26 40.26 0 0 1-12-14.545C89.512 150.774 75.814 160 60 160c-22.056 0-40-17.944-40-40s17.944-40 40-40c1.417 0 2.817.077 4.196.221C59.06 73.493 56 65.1 56 56.001c0-22.056 17.944-40 40-40s40 17.944 40 40c0 9.098-3.06 17.492-8.196 24.22a40 40 0 0 1 4.196-.22c16.368 0 30.464 9.887 36.65 24h-8.956zM92 120c0-17.644-14.355-32-32-32s-32 14.356-32 32 14.355 32 32 32 32-14.355 32-32m36-64c0-17.644-14.356-32-32-32S64 38.356 64 56s14.355 32 32 32 32-14.355 32-32"/></svg>