<svg xmlns="http://www.w3.org/2000/svg" viewBox="0 0 192 192"><path d="M144 175.999c-17.645 0-32-14.355-32-32s14.355-32 32-32 32 14.355 32 32-14.355 32-32 32m0-56c-13.233 0-24 10.766-24 24s10.767 24 24 24 24-10.767 24-24-10.767-24-24-24m16 20h-32v8h32zM145.063 16l9.064 27.413L163.189 16h12.812v40h-8.784V25.902L157.035 56h-6.602l-10.236-30.154V56h-8.001V16zM104 143.999c0-.896.04-1.78.098-2.662C94.595 136.855 88 127.185 88 116c0-15.44 12.56-28 28-28 11.185 0 20.855 6.594 25.337 16.097A40 40 0 0 1 144 104c2.07 0 4.105.158 6.092.463C145.272 90.255 131.815 80 116 80c-.715 0-1.423.027-2.127.068A35.8 35.8 0 0 0 120 60c0-19.85-16.15-36-36-36S48 40.15 48 60c0 7.424 2.26 14.33 6.127 20.068A36 36 0 0 0 52 80c-19.85 0-36 16.15-36 36s16.15 36 36 36c13.921 0 26.013-7.948 32-19.54a36.19 36.19 0 0 0 20.462 17.621A40 40 0 0 1 104 144zM52 144c-15.44 0-28-12.56-28-28s12.56-28 28-28 28 12.56 28 28-12.56 28-28 28m4-84c0-15.44 12.56-28 28-28s28 12.56 28 28-12.56 28-28 28-28-12.56-28-28"/></svg>