<svg xmlns="http://www.w3.org/2000/svg" viewBox="0 0 192 192"><path d="M132 88c13.46 0 24.996 8.357 29.716 20.15a40.2 40.2 0 0 1 9.984 7.034C169.313 95.392 152.425 80 132 80a40 40 0 0 0-4.196.221C132.941 73.493 136 65.1 136 56c0-22.056-17.944-40-40-40S56 33.944 56 56c0 9.099 3.06 17.493 8.196 24.221A40 40 0 0 0 60 80c-22.056 0-40 17.944-40 40s17.944 40 40 40c15.819 0 29.52-9.231 36.006-22.589a40.3 40.3 0 0 0 8.294 11.405A40 40 0 0 1 104 144c0-2.51.243-4.962.688-7.344A31.8 31.8 0 0 1 100 120c0-17.645 14.355-32 32-32M96 24c17.645 0 32 14.355 32 32s-14.355 32-32 32-32-14.355-32-32 14.355-32 32-32M60 152c-17.645 0-32-14.355-32-32s14.355-32 32-32 32 14.355 32 32-14.355 32-32 32m88-12h12v8h-12v12h-8v-12h-12v-8h12v-12h8zm-4-28c-17.645 0-32 14.355-32 32s14.355 32 32 32 32-14.355 32-32-14.355-32-32-32m0 56c-13.234 0-24-10.766-24-24s10.766-24 24-24 24 10.766 24 24-10.766 24-24 24"/></svg>