<svg xmlns="http://www.w3.org/2000/svg" xml:space="preserve" viewBox="0 0 192 192"><path d="M167.803 111.795c-6.482 6.481-15.775 9.35-24.73 7.759l-10.36 10.36a66 66 0 0 0-4.218-7.096l12.102-12.101 2.228.595c6.888 1.836 14.29-.144 19.321-5.173 4.521-4.522 6.522-10.852 5.655-16.97l-11.312 11.313c-2.267 2.267-5.28 3.515-8.486 3.515s-6.218-1.248-8.485-3.516c-2.267-2.266-3.515-5.279-3.515-8.484s1.248-6.22 3.516-8.486L150.83 72.2c-6.117-.866-12.448 1.134-16.97 5.656-5.029 5.029-7.01 12.432-5.173 19.32l.595 2.228-11.376 11.376a66 66 0 0 0-6.325-4.989l8.864-8.863c-1.59-8.954 1.277-18.248 7.758-24.73 8.375-8.375 21.181-10.571 31.868-5.467l5.104 2.437-20 20.001c-.757.756-1.173 1.76-1.173 2.829s.416 2.072 1.172 2.828c1.512 1.511 4.146 1.51 5.657 0l20-20 2.439 5.103c5.104 10.686 2.906 23.493-5.468 31.867m-77.541-7.458C103.1 98.232 112 85.137 112 70c0-20.953-17.047-38-38-38S36 49.047 36 70c0 15.137 8.9 28.232 21.738 34.337C33.65 111.387 16 133.664 16 160h8c0-27.57 22.43-50 50-50s50 22.43 50 50h8c0-26.336-17.65-48.614-41.738-55.663M44 70c0-16.542 13.458-30 30-30s30 13.458 30 30-13.458 30-30 30-30-13.458-30-30"/></svg>