<svg xmlns="http://www.w3.org/2000/svg" viewBox="0 0 192 192"><path d="M108 124H84c-15.439 0-28-12.561-28-28s12.561-28 28-28h24c15.439 0 28 12.561 28 28s-12.561 28-28 28M84 76c-11.028 0-20 8.972-20 20s8.972 20 20 20h24c11.028 0 20-8.972 20-20s-8.972-20-20-20zm79 8c-6.6 0-12 5.4-12 12s5.4 12 12 12 12-5.4 12-12-5.4-12-12-12M29 84c-6.6 0-12 5.4-12 12s5.4 12 12 12 12-5.4 12-12-5.4-12-12-12m67 64c-6.6 0-12 5.4-12 12s5.4 12 12 12 12-5.4 12-12-5.4-12-12-12m0-128c-6.6 0-12 5.4-12 12s5.4 12 12 12 12-5.4 12-12-5.4-12-12-12m48 17c-6.6 0-12 5.4-12 12s5.4 12 12 12 12-5.4 12-12-5.4-12-12-12m-96 0c-6.6 0-12 5.4-12 12s5.4 12 12 12 12-5.4 12-12-5.4-12-12-12m96 94c-6.6 0-12 5.4-12 12s5.4 12 12 12 12-5.4 12-12-5.4-12-12-12m-96 0c-6.6 0-12 5.4-12 12s5.4 12 12 12 12-5.4 12-12-5.4-12-12-12"/></svg>