<svg xmlns="http://www.w3.org/2000/svg" viewBox="0 0 192 192"><path d="M96 88c19.85 0 36-16.15 36-36s-16.15-36-36-36-36 16.15-36 36 16.15 36 36 36m0-64c15.44 0 28 12.56 28 28s-12.56 28-28 28-28-12.56-28-28 12.56-28 28-28M60 168h72v8H60zm92-120v61.922l-20.447 16.358-8.43 33.72H68.877l-8.43-33.72L40 109.922V48h12v8h-4v50.078l19.553 15.642 7.57 30.28h41.754l7.57-30.28L144 106.078V56h-4v-8zm-86.472 56-9.106-18.21 7.156-3.58L70.472 96h51.056l6.894-13.79 7.156 3.58-9.106 18.21zM84 52c0-4.418 4-8 4-8h16s4 3.582 4 8-4 8-4 8H88s-4-3.582-4-8"/></svg>