<svg xmlns="http://www.w3.org/2000/svg" viewBox="0 0 192 192"><path d="m150.46 43.136-1.415-1.415a22.85 22.85 0 0 0-16.263-6.736 22.85 22.85 0 0 0-16.264 6.736l-14.143 14.143c-4.033 4.034-6.363 9.326-6.674 14.988l-53.163 61.343L48.343 138l-15.172 15.17 5.658 5.658L54 143.657l5.805 5.805 61.106-52.958c5.82-.215 11.273-2.566 15.406-6.699l14.142-14.142c4.344-4.344 6.737-10.12 6.737-16.264s-2.393-11.919-6.737-16.263zm-96.998 88.67 46.614-53.786 13.904 13.904-53.785 46.614-6.733-6.733zm68.348-43.367-18.07-18.068a14.9 14.9 0 0 1 4.292-8.85l5.303-5.304 22.627 22.628-5.303 5.303a14.9 14.9 0 0 1-8.85 4.291zm22.992-18.433-3.181 3.181-22.628-22.627 3.182-3.182a14.9 14.9 0 0 1 10.607-4.393 14.9 14.9 0 0 1 10.606 4.393l1.414 1.415c2.834 2.833 4.394 6.6 4.394 10.606s-1.56 7.774-4.394 10.607"/></svg>