<svg xmlns="http://www.w3.org/2000/svg" viewBox="0 0 192 192"><path d="M144.44 19.56c-4.74-4.74-12.45-4.74-17.19 0l-7.69 7.69a12.12 12.12 0 0 0-3.56 8.59c0 1.81.4 3.62 1.21 5.29l-60.74 60.74-14.19 46.11-6.24-.01-.01 4.03H28v24h85.12l-6-24H56l.01-4-5.36-.01 12.88-41.86 59.35-59.35c1.66.81 3.47 1.21 5.28 1.21 3.11 0 6.22-1.18 8.59-3.55l7.69-7.69c4.74-4.74 4.74-12.45 0-17.19M100.88 160l2 8H36v-8zm37.9-128.91-7.69 7.69a4.153 4.153 0 0 1-5.87 0 4.15 4.15 0 0 1 0-5.87l7.69-7.69a4.135 4.135 0 0 1 5.87 0 4.135 4.135 0 0 1 0 5.87"/></svg>