<svg xmlns="http://www.w3.org/2000/svg" viewBox="0 0 192 192"><path d="M64.034 105.341A32 32 0 0 1 64 104V48c0-17.645 14.355-32 32-32 15.578 0 28.584 11.19 31.42 25.954l-7.42 7.42V48c0-13.234-10.766-24-24-24S72 34.766 72 48v49.375zM120 94.629V104c0 13.234-10.766 24-24 24a23.9 23.9 0 0 1-7.995-1.375l-6.096 6.096A31.8 31.8 0 0 0 96 136c17.645 0 32-14.355 32-32V86.629zm53.659-64.974L162.345 18.34l-144 144.004L29.66 173.66l144-144.004zM138.629 76 136 78.629V104c0 22.056-17.944 40-40 40a39.74 39.74 0 0 1-19.993-5.377l-5.816 5.816A47.7 47.7 0 0 0 92 151.828V168H68v8h56v-8h-24v-16.18c24.601-2.04 44-22.7 44-47.82V76zm-81.72 36.465A40 40 0 0 1 56 104V76h-8v28a47.8 47.8 0 0 0 2.404 14.972z"/></svg>