<svg xmlns="http://www.w3.org/2000/svg" viewBox="0 0 192 192"><path d="M64.642 110.388A32 32 0 0 1 64 104V48c0-17.645 14.355-32 32-32 17.328 0 31.472 13.846 31.976 31.053L120 55.03V48c0-13.234-10.766-24-24-24S72 34.766 72 48v55.03zM120 88.97V104c0 13.234-10.766 24-24 24-4.318 0-8.37-1.152-11.873-3.156l-5.81 5.81A31.8 31.8 0 0 0 96 136c17.645 0 32-14.355 32-32V80.97zm54.829-66.142-5.658-5.658-152 152 5.658 5.658zM56 76h-8v28c0 6.774 1.418 13.22 3.96 19.069l6.182-6.182A39.8 39.8 0 0 1 56 104zm80 0v28c0 22.056-17.944 40-40 40-8.743 0-16.834-2.828-23.424-7.606l-5.714 5.714c7.092 5.435 15.733 8.944 25.138 9.725V168H68v8h56v-8h-24v-16.18c24.601-2.04 44-22.7 44-47.82V76z"/></svg>