<svg xmlns="http://www.w3.org/2000/svg" viewBox="0 0 192 192"><path d="M96 46c-27.614 0-50 22.386-50 50s22.386 50 50 50 50-22.386 50-50-22.386-50-50-50m22.484 48.277c-2.22 2.797-5.214 4.25-8.754 4.599-1.285.126-2.318-.431-2.849-1.537-.534-1.114-.376-2.434.582-3.263.951-.823 2.038-1.49 3.06-2.233.934-.677 1.99-1.241 2.766-2.067 2.527-2.69 1.773-6.975-1.532-9.125-1.587-1.033-3.322-1.432-5.206-1.07-.837.161-1.709.213-2.509.48-2.733.916-4.381 3.354-4.363 6.45.03 5.24.128 10.48.147 15.72.01 2.451-.04 4.903-.824 7.278-2.715 8.232-12.01 12.313-19.945 8.823-3.194-1.406-5.782-3.384-7.37-6.547-3.182-6.342-.598-14.157 5.773-17.292 1.375-.677 2.82-1.285 4.299-1.662 2.057-.524 4.345 1.767 4.023 3.878-.153 1.001-.913 1.528-1.688 2.025-1.526.98-3.195 1.793-4.555 2.966-3.214 2.769-2.737 7.617.955 9.516 2.951 1.519 6.01 1.511 8.88-.378 2.439-1.606 3.163-4.056 3.175-6.807.014-3.062.004-6.124.004-9.186h-.06c0-2.897.111-5.8-.024-8.69-.22-4.674 2.878-10.373 8.457-12.61 7.312-2.932 16.31-.053 19.682 8.017 1.909 4.567.91 8.891-2.124 12.715M96 16c-44.183 0-80 35.817-80 80s35.817 80 80 80 80-35.817 80-80-35.817-80-80-80m0 152c-39.764 0-72-32.236-72-72s32.236-72 72-72 72 32.235 72 72-32.235 72-72 72"/></svg>