<svg xmlns="http://www.w3.org/2000/svg" viewBox="0 0 192 192"><path d="M96 16c-44.183 0-80 35.817-80 80s35.817 80 80 80 80-35.817 80-80-35.817-80-80-80m35.975 77.243c-3.552 4.475-8.343 6.799-14.008 7.358-2.055.203-3.708-.69-4.557-2.46-.855-1.781-.602-3.893.93-5.219 1.523-1.318 3.261-2.386 4.898-3.573 1.493-1.084 3.183-1.986 4.424-3.307 4.043-4.304 2.838-11.16-2.45-14.601-2.54-1.652-5.316-2.291-8.33-1.711-1.34.257-2.734.34-4.014.769-4.374 1.464-7.01 5.365-6.982 10.319.048 8.384.206 16.768.236 25.152.014 3.922-.065 7.844-1.319 11.644-4.344 13.172-19.217 19.702-31.911 14.117-5.111-2.25-9.253-5.414-11.792-10.475-5.092-10.147-.958-22.65 9.236-27.668 2.2-1.083 4.511-2.055 6.878-2.658 3.291-.839 6.952 2.827 6.437 6.205-.245 1.602-1.46 2.444-2.7 3.239-2.443 1.567-5.112 2.87-7.289 4.745-5.141 4.431-4.378 12.188 1.528 15.227 4.722 2.43 9.618 2.417 14.21-.606 3.9-2.568 5.059-6.489 5.079-10.89.022-4.9.005-9.799.005-14.698h-.094c0-4.635.177-9.28-.04-13.905-.351-7.477 4.605-16.596 13.532-20.176 11.7-4.69 26.096-.083 31.491 12.828 3.053 7.307 1.456 14.226-3.398 20.344"/></svg>