<svg xmlns="http://www.w3.org/2000/svg" viewBox="0 0 192 192"><path d="M96 175.962c-20.487 0-40.973-7.797-56.57-23.393-31.19-31.193-31.19-81.945 0-113.138 31.193-31.19 81.945-31.192 113.138 0 31.192 31.193 31.192 81.945 0 113.138-15.596 15.596-36.083 23.393-56.568 23.393M95.999 24c-19.231 0-37.312 7.49-50.911 21.088-28.073 28.073-28.073 73.75 0 101.824C58.687 160.51 76.768 168 95.999 168s37.313-7.49 50.912-21.088c28.073-28.073 28.073-73.75 0-101.824C133.312 31.49 115.23 24 95.999 24M40 82.912h10.054l5.009 15.83 5.081-15.83h10.164v26.14h-7.056V91.065l-5.996 17.987h-5.082l-5.922-18.06v18.06H40zM100.39 96c0 8.043-5.229 13.49-12.943 13.49s-12.979-5.447-12.979-13.453c0-4.205 1.463-7.86 4.132-10.31 2.413-2.194 5.264-3.217 8.993-3.217 7.568 0 12.796 5.52 12.796 13.49zm-18.463.037c0 4.972 1.937 7.677 5.484 7.677 3.62 0 5.52-2.669 5.52-7.714 0-4.972-1.938-7.714-5.41-7.714-3.693 0-5.594 2.632-5.594 7.75zm22.624-13.125h10.273c8.3 0 13.345 4.899 13.345 12.942 0 8.189-5.119 13.198-13.528 13.198h-10.09zm10.383 20.51c3.766 0 5.776-2.596 5.776-7.459s-2.01-7.421-5.85-7.421h-3.107v14.88zm17.397-20.51h19.12v5.667h-12.064v4.46h8.774v5.41h-8.774v4.936H152v5.667h-19.669z"/></svg>