<svg xmlns="http://www.w3.org/2000/svg" viewBox="0 0 192 192"><path d="M176.069 16v45.705c0 5.744-5.383 10.417-12 10.417H27.932c-6.617 0-12-4.673-12-10.417V16H92v8H23.932v37.705c0 1.14 1.71 2.417 4 2.417H164.07c2.29 0 4-1.276 4-2.417V24H100v-8h76.07zm-76.1 145.037V83.999h-8v77.007l-8.171-8.172-5.657 5.658 17.843 17.843 17.845-17.843-5.658-5.658zm36.444-39.985C124.139 145.912 124 174.783 124 176l8 .002c0-.28.159-28.263 11.586-51.408 11.293-22.874 31.572-35.026 31.77-35.143l-4.047-6.9c-.913.535-22.508 13.408-34.896 38.5zM20.69 82.552l-4.05 6.898c.204.12 20.482 12.272 31.775 35.146C59.842 147.742 60 175.724 60 176.004l4-.002h4c0-1.217-.139-30.088-12.412-54.948C43.199 95.96 21.604 83.088 20.69 82.552"/></svg>