<svg xmlns="http://www.w3.org/2000/svg" viewBox="0 0 192 192"><path d="M106.224 141.443c6.964-3.698 11.72-11.024 11.72-19.443 0-12.13-9.869-22-22-22s-22 9.87-22 22c0 8.42 4.756 15.745 11.72 19.443-15.023 4.324-25.72 17.957-25.72 34.557h8c0-15.7 12.3-28 28-28s28 12.3 28 28h8c0-16.6-10.696-30.233-25.72-34.557M95.944 108c7.72 0 14 6.28 14 14s-6.28 14-14 14-14-6.28-14-14 6.28-14 14-14m-63.478 28.193 7.553 5.592-4.76 6.43-18.854-13.96 13.96-18.853 6.429 4.761-6.031 8.145c34.53-2.865 35.112-34.893 35.119-36.318l8 .01c0 .423-.503 40.22-41.416 44.193m128.052-20.79 13.959 18.852-18.853 13.96-4.76-6.43 7.552-5.592C117.503 132.22 117 92.423 117 92h4l4-.01c.007 1.425.588 33.453 35.12 36.318l-6.032-8.145zM176.068 16v56.001c0 6.617-5.382 12-12 12H27.933c-6.617 0-12-5.383-12-12V16H92v8H23.932v48.001c0 2.206 1.795 4 4 4H164.07c2.205 0 4-1.794 4-4V24H100v-8h76.07z"/></svg>