<svg xmlns="http://www.w3.org/2000/svg" viewBox="0 0 192 192"><path d="M16 176h40v-40H16zm8-32h24v24H24zm112-8v40h40v-40zm32 32h-24v-24h24zm-92 8h40v-40H76zm8-32h24v24H84zm-45.854 18.004h3.475V165H30.517v-2.996h3.878v-9.769c-.856.353-2.267.53-3.752.53v-2.72c2.619-.252 3.902-1.234 4.38-3.273h3.123zm57.397-1h6.722V164H90.633v-2.97c2.317-1.688 3.525-2.72 4.734-3.979 1.863-1.964 2.794-3.852 2.794-5.765 0-1.637-.68-2.594-1.838-2.594-1.133 0-1.838.856-2.265 2.795l-3.4-.806c.806-3.323 2.72-4.96 5.842-4.96 3.424 0 5.564 2.166 5.564 5.615 0 2.316-.881 4.406-2.72 6.445-.93 1.008-1.913 1.838-3.801 3.223m63.266-2.266c0-1.612-.856-2.543-2.391-2.543h-1.662V153.4h1.536c1.36 0 2.19-.881 2.19-2.34 0-1.486-.73-2.342-1.964-2.342-1.284 0-2.039.73-2.618 2.542l-3.147-1.133c.907-2.895 2.946-4.405 5.942-4.405 3.348 0 5.564 1.988 5.564 5.01 0 1.762-.73 2.996-2.266 3.802 1.813.755 2.719 2.215 2.719 4.305 0 3.348-2.366 5.438-6.143 5.438-1.964 0-3.626-.58-4.809-1.662-.932-.881-1.41-1.787-1.712-3.323l3.348-.831c.479 1.99 1.41 2.87 2.996 2.87 1.511 0 2.417-.956 2.417-2.593M164.07 84H27.932c-6.617 0-12-5.383-12-12V16H92v8H23.932v48.001c0 2.206 1.795 4 4 4H164.07c2.205 0 4-1.794 4-4V24H100v-8h76.07v56.001c0 6.617-5.383 12-12 12zm-79.943 21.574 5.967 5.329-16.741 18.744-18.744-16.742 5.329-5.967 7.857 7.018c-.797-3.477-2.34-6.325-4.625-8.505-6.228-5.944-16.051-5.498-16.624-5.467a4 4 0 0 1-.345.015c-21.818 0-22.195 23.03-22.2 24.01l-8-.01c0-11.066 6.311-31.992 30.188-32 1.026-.09 2.472-.068 4.58.134 3.74.357 7.226 1.228 10.361 2.587 6.147 2.663 13.236 8.26 14.915 19.903l8.082-9.05zm90.782 5.415-16.742 18.744-18.744-16.741 5.329-5.967 6.807 6.08c-.845-3.086-2.297-5.658-4.389-7.654-6.228-5.944-16.05-5.498-16.624-5.467q-.172.015-.345.015c-21.818 0-22.195 23.03-22.2 24.01l-8-.01c0-11.066 6.311-31.992 30.188-32 1.026-.09 2.472-.068 4.58.134 3.74.357 7.226 1.228 10.361 2.587 6.299 2.729 13.598 8.522 15.04 20.76l8.772-9.82 5.967 5.33z"/></svg>