<svg xmlns="http://www.w3.org/2000/svg" viewBox="0 0 192 192"><path d="M118.153 75.999c-18.748 0-34 15.252-34 34s15.252 34 34 34 34-15.252 34-34-15.253-34-34-34m0 60c-14.337 0-26-11.664-26-26s11.663-26 26-26 26 11.664 26 26-11.664 26-26 26m0-40c-7.72 0-14 6.28-14 14s6.28 14 14 14 14-6.28 14-14-6.28-14-14-14m0 20c-3.309 0-6-2.691-6-6s2.691-6 6-6 6 2.691 6 6-2.692 6-6 6m14-50a6 6 0 1 1 12 0 6 6 0 0 1-12 0m-40 0a6 6 0 1 1 12 0 6 6 0 0 1-12 0M152 40v-8l-20 .002V40h-16v-8H88v8H60.014v8h-6.623l-5.197-11.43C47.085 33.79 44.56 32 41.716 32H27.053c-3.885 0-7.046 3.385-7.046 7.545V144.75c0 3.998 3.161 7.25 7.046 7.25h32.961v8H176V40zM60.014 144H28.007l.003-104h12.956l7.275 16h11.774v87.999zm107.985 8H68.014V48H168v103.999zm-116-16H36V63.999h16z"/></svg>