<svg xmlns="http://www.w3.org/2000/svg" viewBox="0 0 192 192"><path d="M92 80a4 4 0 1 1-8 0 4 4 0 0 1 8 0m8 40a4 4 0 1 0-8 0 4 4 0 0 0 8 0m-16-12a4 4 0 1 0-8 0 4 4 0 0 0 8 0m-4-71a4 4 0 1 0-8 0 4 4 0 0 0 8 0m-3 117a6.96 6.96 0 0 0-3.033.699c-.347-6.316-5.564-11.335-11.967-11.335-6.627 0-12 5.373-12 12 0 6.628 5.373 12 12 12 3.358 0 6.39-1.382 8.567-3.604A7 7 0 1 0 77 154m-13-26a4 4 0 1 0-8 0 4 4 0 0 0 8 0m36 44a4 4 0 1 0-8 0 4 4 0 0 0 8 0m16-16a4 4 0 1 0-8 0 4 4 0 0 0 8 0m-8-135a4 4 0 1 0-8 0 4 4 0 0 0 8 0m60 106.5c0 8.008-6.492 14.5-14.5 14.5-2.47 0-4.792-.62-6.827-1.71-1.98 5.65-7.346 9.71-13.673 9.71-7.435 0-13.554-5.6-14.393-12.81-5.239-4.119-8.607-10.51-8.607-17.69 0-.601.03-1.195.077-1.784-2.5-2.285-4.077-5.563-4.077-9.216 0-6.903 5.597-12.5 12.5-12.5 2.582 0 4.981.784 6.973 2.125a22.47 22.47 0 0 1 12.025-.56A12.5 12.5 0 0 1 148.5 91c6.903 0 12.5 5.597 12.5 12.5 0 3.96-1.847 7.483-4.72 9.773 6.677 1.298 11.72 7.17 11.72 14.227m-40-4.5a4 4 0 1 0-8 0 4 4 0 0 0 8 0m10-13a4 4 0 1 0-8 0 4 4 0 0 0 8 0m9 16a4 4 0 1 0-8 0 4 4 0 0 0 8 0m-80.79-24.704a11.2 11.2 0 0 1 .548 3.462c0 6.209-5.033 11.242-11.242 11.242s-11.242-5.033-11.242-11.242c0-2.742.984-5.253 2.615-7.204a16.2 16.2 0 0 1-2.927-4.671 21 21 0 0 1-2.204.117c-11.598 0-21-9.402-21-21 0-10.885 8.282-19.834 18.888-20.893a12.5 12.5 0 0 1-.888-4.607c0-6.903 5.597-12.5 12.5-12.5s12.5 5.597 12.5 12.5c0 4.828-2.742 9.01-6.75 11.091a20.9 20.9 0 0 1 5.697 13.366c7.183 1.678 12.537 8.108 12.537 15.8 0 6.378-3.684 11.882-9.033 14.54zM36.757 73a4 4 0 1 0-8 0 4 4 0 0 0 8 0m11-11a4 4 0 1 0-8 0 4 4 0 0 0 8 0m4 19a4 4 0 1 0 0-8 4 4 0 0 0 0 8m10 14a4 4 0 1 0-8 0 4 4 0 0 0 8 0M160 55.5c0 11.874-9.626 21.5-21.5 21.5a21.4 21.4 0 0 1-13.523-4.795A6.47 6.47 0 0 1 120.5 74a6.5 6.5 0 0 1-6.5-6.5c0-.545.075-1.072.201-1.578C108.462 65.276 104 60.412 104 54.5c0-6.351 5.149-11.5 11.5-11.5 1.722 0 3.349.389 4.815 1.067C124.12 38.027 130.833 34 138.5 34c11.874 0 21.5 9.626 21.5 21.5M128 60a4 4 0 1 0-8 0 4 4 0 0 0 8 0m16-15a4 4 0 1 0-8 0 4 4 0 0 0 8 0M26 109a4 4 0 1 0-8 0 4 4 0 0 0 8 0m148-29a4 4 0 1 0-8 0 4 4 0 0 0 8 0M42 145a4 4 0 1 0-8 0 4 4 0 0 0 8 0"/></svg>