<svg xmlns="http://www.w3.org/2000/svg" viewBox="0 0 192 192"><path d="M176 136H16V56h160zm-152-8h144V64H24zm70.9-14.556c-6.753-.45-11.955-3.351-14.356-8.003l7.653-3.901c1.6 2.851 3.601 4.201 6.702 4.651V98.94c-4.151-.75-6.152-1.45-8.203-2.801-2.95-1.9-4.401-4.702-4.401-8.453 0-6.553 4.301-10.354 12.604-11.054V72.23h3.902v4.502c5.252.6 9.003 2.851 11.654 6.852l-7.002 4.152c-1.551-2.1-2.751-3.051-4.652-3.652v6.953c4.351.8 6.452 1.5 8.453 2.751 2.9 1.8 4.202 4.401 4.202 8.253 0 3.201-1.05 5.952-3.052 7.853-2.05 2-4.902 3.001-9.603 3.501v6.252h-3.902zm0-29.71c-3.002.3-4.352 1.3-4.352 3.2 0 1.801 1.15 2.752 4.351 3.502v-6.703zm3.9 22.508c2.802-.4 4.153-1.4 4.153-3.201 0-1.751-1.051-2.651-4.152-3.452v6.653z"/></svg>