<svg xmlns="http://www.w3.org/2000/svg" viewBox="0 0 192 192"><path d="M116.001 60c0-4.07-1.229-7.857-3.325-11.02l6.152-6.151-5.656-5.658-6.153 6.153C103.856 41.227 100.071 40 96 40s-7.856 1.228-11.019 3.325l-6.153-6.153-5.656 5.658 6.152 6.152A19.88 19.88 0 0 0 76 60c0 4.07 1.229 7.856 3.326 11.019l-6.153 6.153 5.656 5.656 6.153-6.153c3.163 2.097 6.949 3.326 11.019 3.326s7.856-1.229 11.019-3.326l6.153 6.153 5.656-5.656-6.153-6.153A19.88 19.88 0 0 0 116.001 60m-32.002 0c0-6.617 5.384-12.001 12.001-12.001S108.001 53.383 108.001 60 102.617 72.001 96 72.001 83.999 66.617 83.999 60M176 20v80H90.787a41.7 41.7 0 0 0-2.848-8H168V28H24v49.052a42.3 42.3 0 0 0-8 8.333V20zm-81.957 88.944c-8.816 2.122-16.286 7.562-21.031 15.316s-6.19 16.88-4.068 25.697c3.746 15.564 17.707 26.047 33.056 26.047 2.625 0 5.294-.308 7.957-.948 8.816-2.122 16.286-7.562 21.031-15.316s6.19-16.88 4.068-25.697c-4.387-18.226-22.777-29.482-41.013-25.099m30.122 46.62c-3.63 5.932-9.34 10.092-16.081 11.714-13.932 3.357-28.007-5.254-31.362-19.194-1.622-6.74-.517-13.717 3.113-19.648s9.34-10.092 16.081-11.714a26 26 0 0 1 6.084-.725c11.736 0 22.413 8.017 25.278 19.919 1.622 6.74.517 13.717-3.113 19.648m-8.554-16.84a13.9 13.9 0 0 0-2.862-5.667l3.411-5.574-7.676-4.697-3.41 5.574a13.9 13.9 0 0 0-6.35.029 13.9 13.9 0 0 0-5.69 2.88l-5.542-3.392-4.699 7.676 5.56 3.403a13.9 13.9 0 0 0 .036 6.32 13.9 13.9 0 0 0 2.86 5.67l-3.41 5.57 7.677 4.698 3.407-5.569c1 .228 2.03.357 3.078.357 1.081 0 2.179-.127 3.274-.39h.001a13.9 13.9 0 0 0 5.646-2.846l5.558 3.402 4.698-7.676-5.543-3.392a13.9 13.9 0 0 0-.024-6.376m-12.208 9.11c-3.21.769-6.462-1.215-7.237-4.43a6.01 6.01 0 0 1 5.833-7.405 6.01 6.01 0 0 1 5.835 4.597 6.01 6.01 0 0 1-4.43 7.238zM64 110c0-2.22-.533-4.313-1.457-6.18l4.621-4.62-6.363-6.363-4.62 4.62A13.9 13.9 0 0 0 50 96c-2.23 0-4.332.538-6.206 1.47L39.2 92.873l-6.363 6.363 4.608 4.609A13.9 13.9 0 0 0 36 110c0 2.22.533 4.312 1.456 6.178l-4.621 4.622 6.365 6.363 4.62-4.62A13.9 13.9 0 0 0 50 124c2.21 0 4.294-.529 6.155-1.445l4.608 4.608 3.427-3.427a43 43 0 0 1 1.998-3.652q.045-.068.087-.135l-3.744-3.744A13.9 13.9 0 0 0 64 110m-20 0c0-3.309 2.691-6 6-6s6 2.691 6 6-2.691 6-6 6-6-2.691-6-6m16.003 32.496A33.9 33.9 0 0 1 50 144c-18.748 0-34-15.252-34-34s15.252-34 34-34c16.801 0 30.786 12.252 33.51 28.289a41.5 41.5 0 0 0-7.535 4.737C75.461 95.139 64.01 84 50 84c-14.337 0-26 11.663-26 26s11.663 26 26 26c3.865 0 7.532-.854 10.833-2.373a41.5 41.5 0 0 0-.83 8.87z"/></svg>