<svg xmlns="http://www.w3.org/2000/svg" viewBox="0 0 192 192"><path d="m117.171 93.171-7.277 7.278C105.969 97.652 101.176 96 96 96s-9.97 1.652-13.894 4.449l-7.277-7.278-5.658 5.658 7.278 7.277C73.652 110.031 72 114.824 72 120s1.652 9.97 4.449 13.894l-7.278 7.277 5.658 5.658 7.277-7.278C86.031 142.348 90.824 144 96 144s9.97-1.652 13.894-4.449l7.277 7.278 5.658-5.658-7.278-7.277C118.348 129.969 120 125.176 120 120s-1.652-9.97-4.449-13.894l7.278-7.277zM96 136c-8.822 0-16-7.178-16-16s7.178-16 16-16 16 7.178 16 16-7.178 16-16 16m41.146-63.471c-7.533-9.587-15.092-15.185-19.533-17.962l20.11-32.177-3.934-1.968C133.428 20.242 124.843 16 116 16c-4.649 0-8.164 1.171-11.265 2.205C101.846 19.168 99.35 20 96 20s-5.846-.832-8.735-1.795C84.165 17.171 80.65 16 76 16c-8.843 0-17.428 4.242-17.79 4.422l-3.934 1.968 20.111 32.177c-4.44 2.777-12 8.375-19.533 17.962C44.43 85.799 32 109.664 32 148c0 15.44 12.56 28 28 28h72c15.44 0 28-12.56 28-28 0-38.336-12.429-62.202-22.854-75.471M76 24c3.351 0 5.846.832 8.735 1.795C87.835 26.829 91.35 28 96 28s8.164-1.171 11.265-2.205C110.154 24.832 112.65 24 116 24c3.64 0 7.364.98 10.086 1.915L109.783 52H82.217L65.913 25.913C68.76 24.945 72.498 24 76 24m56 144H60c-11.028 0-20-8.972-20-20 0-35.776 11.336-57.892 20.845-70.145C69.588 66.59 78.443 61.344 80.955 60h30.094C116.53 62.925 152 84.35 152 148c0 11.028-8.972 20-20 20"/></svg>