<svg xmlns="http://www.w3.org/2000/svg" viewBox="0 0 192 192"><path d="M94.625 139.995c-7.333-.573-12.833-4.182-15.125-9.854l7.276-3.323c1.719 3.838 4.01 5.729 7.85 6.302v-10.771c-4.126-.86-6.246-1.604-8.308-2.922-3.266-2.005-4.985-5.27-4.985-9.396 0-4.64 2.235-8.365 6.245-10.427 1.948-.974 3.896-1.49 7.047-1.719v-5.041h4.297V98c5.958.802 9.682 3.265 12.49 8.307l-6.76 3.61c-1.662-2.98-3.21-4.355-5.73-5.042v10.198c4.068.86 6.474 1.604 8.422 2.75 3.494 2.005 5.156 5.041 5.156 9.568 0 4.41-1.776 7.791-5.27 10.083-2.12 1.318-4.47 2.062-8.308 2.463v7.22h-4.297zm0-35.464c-3.724.516-5.386 2.005-5.386 4.813 0 2.578 1.376 3.896 5.386 4.87zm4.297 28.646c3.667-.573 5.443-2.234 5.443-4.984 0-2.636-1.375-3.896-5.443-4.985v9.97zm38.224-60.648c-7.533-9.587-15.092-15.185-19.533-17.962l20.11-32.177-3.934-1.968C133.428 20.242 124.843 16 116 16c-4.649 0-8.164 1.171-11.265 2.205C101.846 19.168 99.35 20 96 20s-5.846-.832-8.735-1.795C84.165 17.171 80.65 16 76 16c-8.843 0-17.428 4.242-17.79 4.422l-3.934 1.968 20.111 32.177c-4.44 2.777-12 8.375-19.533 17.962C44.43 85.799 32 109.664 32 148c0 15.44 12.56 28 28 28h72c15.44 0 28-12.56 28-28 0-38.336-12.429-62.202-22.854-75.471M76 24c3.351 0 5.846.832 8.735 1.795C87.835 26.829 91.35 28 96 28s8.164-1.171 11.265-2.205C110.154 24.832 112.65 24 116 24c3.64 0 7.364.98 10.086 1.915L109.783 52H82.217L65.913 25.913C68.76 24.945 72.498 24 76 24m56 144H60c-11.028 0-20-8.972-20-20 0-35.776 11.336-57.892 20.845-70.145C69.588 66.59 78.443 61.344 80.955 60h30.094C116.53 62.925 152 84.35 152 148c0 11.028-8.972 20-20 20"/></svg>