<svg xmlns="http://www.w3.org/2000/svg" viewBox="0 0 192 192"><path d="M156 52c-11.03 0-20 8.97-20 20v26.12c-7.43-12.88-19.5-22.76-33.91-27.33C107.9 68.39 112 62.66 112 56c0-8.82-7.18-16-16-16-.68 0-1.35.04-2 .13C87.55 30.41 76.51 24 64 24s-23.55 6.41-30 16.13c-.65-.09-1.32-.13-2-.13-8.82 0-16 7.18-16 16 0 7.49 5.18 13.79 12.14 15.52 2.22 15.07 10.99 21.16 15.61 23.36.42 3.86 1.74 7.66 4.25 10.69v13.22c0 2.13-.83 4.14-2.34 5.65l.02.02-24.99 24.23c-6.24 6.23-6.24 16.39 0 22.62A15.86 15.86 0 0 0 32 176c4.27 0 8.29-1.66 11.31-4.69l3.03-3.02C49.15 172.9 54.21 176 60 176l52.01.01c16.427 0 29.988-12.43 31.79-28.382 9.217-1.78 16.2-9.898 16.2-19.627V95.3c1.25.44 2.6.7 4 .7 6.62 0 12-5.38 12-12V72c0-11.03-8.97-20-20-20M28.1 57.35q-.405 2.505-.48 5.34A7.99 7.99 0 0 1 24 56c0-3.71 2.54-6.84 5.97-7.74.48-.13.98-.21 1.49-.24-1.64 2.54-2.77 5.66-3.36 9.33M96 48c.7 0 1.38.09 2.03.26 3.43.9 5.97 4.03 5.97 7.74 0 3.01-1.67 5.63-4.13 7-.09.05-.18.1-.28.15-.1-6.28-1.4-11.35-3.87-15.14.09-.01.19-.01.28-.01M64 32c7.81 0 14.88 3.21 19.96 8.39-6.69-1.21-13.83.75-18.19 2.36-1.4.52-2.94.52-4.34 0-4.16-1.53-10.83-3.38-17.24-2.52C49.26 35.15 56.27 32 64 32M39.84 80.99c0-.01-.01-.01-.01-.02l-.03-.03c-1.51-2.37-2.83-5.47-3.56-9.52q-.36-1.875-.51-4.02c-.09-1.08-.13-2.21-.13-3.4 0-.29 0-.58.01-.87.03-1.8.18-3.44.46-4.93.48-2.74 1.36-4.93 2.63-6.55.55-.71 1.18-1.3 1.88-1.79.4-.28.83-.52 1.27-.72 1.24-.6 2.62-.93 4.05-1.06.55-.06 1.11-.08 1.67-.08 4.32 0 8.78 1.41 11.09 2.26a14.23 14.23 0 0 0 9.88 0c2.74-1.01 8.54-2.81 13.51-2.09 1.39.2 2.72.6 3.9 1.28.23.12.45.26.66.41.9.62 1.68 1.43 2.32 2.41 1.62 2.41 2.51 5.88 2.65 10.39.01.44.02.88.02 1.34 0 .25 0 .5-.01.75-.01.82-.05 1.61-.09 2.37-.04.46-.08.9-.12 1.34-.1.96-.22 1.87-.38 2.74-.33 1.9-.8 3.6-1.36 5.11-1.71 4.68-4.28 7.58-6.5 9.33-.02.01-.03.02-.05.04-.16.12-.32.24-.47.34-.27.21-.53.38-.77.55-.04.02-.08.05-.11.07-1.7 1.07-2.96 1.44-3.11 1.48l-3.03.76V92c0 .75-.04 1.46-.11 2.12-.87 8.1-6.83 9.88-11.89 9.88-2.57 0-5.36-.46-7.6-1.94-1.84-1.22-3.31-3.13-3.99-6.06-.16-.67-.27-1.4-.34-2.18a19 19 0 0 1-.07-1.72V89l-2.34-.6h-.02a32.3 32.3 0 0 1-9.4-7.41m96.17 63.02c0 13.23-10.76 24-24 24L60 168c-4.41 0-8-3.59-8-8s3.59-8 8-8h36v-16c0-6.62 5.38-12 12-12h8v-8h-8c-11.03 0-20 8.97-20 20v8H70.63l8.68-8.69A15.86 15.86 0 0 0 84 124v-8h-8v8c0 2.14-.83 4.15-2.34 5.66l-14.38 14.38c-8.25.37-14.87 6.99-15.24 15.24l-6.38 6.38A7.95 7.95 0 0 1 32 168c-2.14 0-4.15-.83-5.66-2.34-3.12-3.12-3.12-8.2-.04-11.27l25.34-24.57-.04-.04c2.83-2.98 4.4-6.86 4.4-10.99v-7.89c2.19.71 4.71 1.1 7.6 1.1 9.03 0 18.64-4.59 19.87-17.22 3.92-1.85 10.78-6.47 14.15-16.96C119.71 83.81 136 104.04 136 128h8c0-1.35-.06-2.68-.15-4h.15V72c0-6.62 5.38-12 12-12s12 5.38 12 12v12c0 2.2-1.79 4-4 4s-4-1.8-4-4V72h-8v56c0 6.616-5.373 11.993-11.988 12H136v4M52 72a4 4 0 1 1 0-8 4 4 0 0 1 0 8m20-4a4 4 0 1 1 8 0 4 4 0 0 1-8 0M59.996 88.024c0-2.195 1.791-3.975 4.002-3.975S68 85.829 68 88.024 66.208 92 63.998 92s-4.002-1.78-4.002-3.976"/></svg>