<svg xmlns="http://www.w3.org/2000/svg" viewBox="0 0 192 192"><path d="M96 172c-41.906 0-75.999-34.093-75.999-76S54.094 20 96 20s75.999 34.093 75.999 76S137.906 172 96 172m0-144c-37.495 0-67.999 30.505-67.999 68S58.505 164 96 164s67.999-30.505 67.999-68S133.495 28 96 28m21.412 24-3.53 6.471-7.059 1.177 5.295 5.294L110.94 72l6.47-2.942L123.881 72l-1.176-7.06L128 59.649l-7.059-1.177-3.529-6.47zm24 32-3.53 6.471-7.06 1.177 5.295 5.294L134.94 104l6.47-2.942 6.471 2.942-1.176-7.06 5.294-5.293-7.059-1.177zm-24 32-3.53 6.471-7.059 1.177 5.295 5.294L110.94 136l6.47-2.942 6.471 2.942-1.176-7.06 5.294-5.293-7.059-1.177-3.529-6.47zM75.996 95.969a57.57 57.57 0 0 1 7.502-29.188c5.048-8.89 13.853-16.556 22.702-21.678a52.28 52.28 0 0 0-56.91 20.652 52.29 52.29 0 0 0 .733 60.536 52.3 52.3 0 0 0 25.625 18.785c10.283 3.451 19.904 3.9 30.287.76-8.977-4.894-15.004-12.375-20.267-21.142-5.264-8.765-9.572-18.498-9.673-28.723z"/></svg>