<svg xmlns="http://www.w3.org/2000/svg" viewBox="0 0 192 192"><path d="m114.037 30.459 7.053 1.175-5.29 5.29 1.175 7.053-6.465-2.939-6.465 2.939 1.175-7.053-5.29-5.29 7.054-1.175 3.527-6.466zm-11.109 48.137-7.053-1.176-3.526-6.465-3.527 6.465-7.053 1.176 5.29 5.29-1.175 7.052L92.349 88l6.465 2.94-1.175-7.054 5.29-5.29zM46.093 99.402l-3.526-6.465-3.527 6.465-7.053 1.175 5.29 5.29-1.176 7.053 6.465-2.939 6.465 2.939-1.175-7.053 5.29-5.29zm121.96 61.681 7.54-8.907-11.419 2.408c-6.48 1.369-13.106.61-19.158-2.19-13.951-6.454-21.047-22.924-16.155-37.497 2.143-6.383 6.195-11.751 11.717-15.524l9.636-6.583-11.648-.712c-17.616-1.073-34.167 9.021-41.182 25.129-4.696 10.78-4.725 22.654-.083 33.436s13.288 18.921 24.346 22.919a41.5 41.5 0 0 0 14.115 2.465c12.177 0 24.128-5.3 32.291-14.944m-46.776-48.731c-6.274 18.689 2.487 39.025 20.38 47.303a38.7 38.7 0 0 0 11.982 3.362c-8.677 5.28-19.469 6.565-29.272 3.021-8.957-3.238-15.96-9.829-19.718-18.559-3.759-8.73-3.734-18.346.07-27.078 4.196-9.636 12.614-16.615 22.484-19.248a38.7 38.7 0 0 0-5.926 11.199M64.368 73.444a4 4 0 0 0 1.617-3.84l-2.36-15.713 11.282-11.934a4 4 0 0 0-2.17-6.68l-16.144-3.024-7.329-14.098A4 4 0 0 0 45.714 16h-.016a4 4 0 0 0-3.547 2.184L34.614 32.98 19.01 35.322a4 4 0 0 0-2.357 6.656l10.73 11.73-1.782 15.798a3.999 3.999 0 0 0 5.82 3.998l13.999-7.278 14.794 7.537a4 4 0 0 0 4.154-.319M43.556 58.18l-9.164 4.764L35.537 52.8a4 4 0 0 0-1.023-3.148l-6.89-7.533 10.214-1.534a4 4 0 0 0 2.97-2.14l4.942-9.702 4.643 8.93a4 4 0 0 0 2.813 2.086l10.85 2.033-7.582 8.02a4 4 0 0 0-1.05 3.342l1.495 9.953-9.702-4.942a4 4 0 0 0-3.66.015z"/></svg>