<svg xmlns="http://www.w3.org/2000/svg" viewBox="0 0 192 192"><path d="M51.468 96.027 51 96c-6.065 0-11 4.935-11 11v2c0 6.065 4.935 11 11 11h17c6.065 0 11-4.935 11-11 0-6.009-4.037-10.213-10.536-10.973-4.677-.547-16.995-2-16.996-2M71 109c0 1.654-1.346 3-3 3H51c-1.654 0-3-1.346-3-3v-2a3.003 3.003 0 0 1 2.813-2.994c1.864.22 12.462 1.47 16.723 1.967C71 106.378 71 107.956 71 109m9-89h-8v-4h-8v4H32v-4h-8v4h-8v48h64zm-8 8v8H24v-8zM24 60V44h48v16zm129.171 73.171 5.658 5.658L140 157.657l-10.829-10.828 5.658-5.658 5.171 5.172zM144 112c-17.645 0-32 14.355-32 32s14.355 32 32 32 32-14.355 32-32-14.355-32-32-32m0 56c-13.234 0-24-10.766-24-24s10.766-24 24-24 24 10.766 24 24-10.766 24-24 24m-22.999-59c0 .691.244 1.32.639 1.829a40 40 0 0 0-6.152 5.126A10.95 10.95 0 0 1 113 109c0-6.009 4.037-10.213 10.536-10.973 4.677-.547 16.995-2 16.996-2L141 96c5.298 0 9.732 3.766 10.77 8.76A40 40 0 0 0 144 104c-.797 0-1.587.03-2.373.076a3 3 0 0 0-.44-.07c-1.863.22-12.46 1.47-16.722 1.967-3.464.405-3.464 1.983-3.464 3.027M49 132h56.834a39.8 39.8 0 0 0-1.635 8H56.904c-.855 17.145-7.204 19.605-9.246 19.946l-.327.054H30c-9.025 0-10-16.784-10-24v-28c0-6.135 2.522-12.122 4.879-16.378C19.262 90.205 16 85.03 16 80c0-1.498.229-2.823.616-4h10.741c-1.13.242-3.357 1.097-3.357 4 0 1.608 1.065 4 4 4h12.322l-5.198 6.499C35.056 90.584 28 99.559 28 108v28c0 8.988 1.612 14.537 2.644 16h15.272c.792-.921 3.084-4.58 3.084-16zm39-91.813v-8.04c3.948-.23 6.924-.18 8.001-.149 3.95-.108 33.333-.464 43.223 13.63 5.524 7.142 9.764 17.484 11.593 22.372l14.75.04C169.176 68.556 176 71.719 176 80c0 5.029-3.262 10.205-8.879 11.622C169.478 95.878 172 101.865 172 108v7.447a40.1 40.1 0 0 0-8-6.081V108c0-8.44-7.056-17.416-7.127-17.506l-5.157-6.49L164 84c2.935 0 4-2.392 4-4 0-2.879-2.19-3.744-3.37-4h-19.51l-.913-2.734c-.048-.143-4.876-14.47-11.363-22.81l-.132-.18c-6.365-9.194-28.566-10.544-36.582-10.278l-.127.004-.128-.004c-1.938-.06-4.707-.025-7.875.19z"/></svg>