<svg xmlns="http://www.w3.org/2000/svg" viewBox="0 0 192 192"><path d="m127.267 92.09 25.428-23.314-5.406-5.896-53.57 49.115L152 112l.001-8-20.007-.002c-.045-4.948-1.602-8.888-4.727-11.908m-5.913 5.421c2.068 1.786 2.614 3.898 2.642 6.486l-9.716-.001zm-92.067 65.938 6.422 4.771c-3.29 4.429-7.401 7.053-7.574 7.162L25.999 172l-2.147-3.375c.029-.019 3.065-1.985 5.435-5.176m7.242-20.044c1.615 2.895 3.469 6.966 3.469 12.806 0 1.123-.11 2.257-.326 3.371l-7.854-1.525c.119-.613.18-1.234.18-1.846 0-3.961-1.18-6.622-2.456-8.907zM25.5 140.652c-1.63-2.91-3.501-7.002-3.501-12.862 0-1.097.105-2.206.312-3.297l7.86 1.49a9.7 9.7 0 0 0-.172 1.807c0 3.976 1.192 6.652 2.481 8.953zm7.209-20.101-6.422-4.771c3.29-4.429 7.401-7.053 7.575-7.162l4.271 6.764c-.018.012-3.053 1.978-5.424 5.169m32.16-7.025c-3.421 3.88-11.346 14.505-11.046 29.309.271 13.461 7.037 23.095 11.045 27.639l-5.729 5.053c-4.7-5.328-12.633-16.641-12.955-32.538-.354-17.488 8.941-29.963 12.954-34.515zm29.888-22.625-8.03 3.488-5.174 6.179-6.134-5.137 6.388-7.627 8.377-3.64 13.8-13.729-.901-10.372 4.505-10.744-10.817-9.064-9.769 6.331-10.394.918-11.095 15.99-2.115 8.886-6.371 7.609-6.134-5.136 5.159-6.162 2.027-8.518 14.092-20.309 5.491-.485-2.245-2.63-4.93-1.954 2.946-7.438 6.778 2.685 6.271 7.346 10.897-7.061 19.867 16.646-5.038 12.014 8.376 4.932 3.821 6.208-6.812 4.193-2.78-4.516-3.007-1.771.472 5.432zM73.932 78.513a4 4 0 0 1 .493 5.635L61.568 99.469a4 4 0 0 1-3.066 1.429 4 4 0 0 1-3.062-6.571l12.856-15.321a4 4 0 0 1 5.636-.493"/></svg>