<svg xmlns="http://www.w3.org/2000/svg" viewBox="0 0 192 192"><path d="M108 148v-22c0-11.1-6.14-18-16.03-18H44.03C34.14 108 28 114.9 28 126v32.343l-10.829 10.828 5.658 5.658L28 169.657v6.373h8v-6.19c.73 1.7 1.65 3.74 2.79 6.19h9.08l.02-.08c-.21-.05-.33-.09-.5-.43-2.28-4.8-4.93-10.78-5.98-13.62.33-.19.69-.38 1.01-.51l.33-.16c.1-.05 10.1-5.23 25.25-5.23s25.15 5.18 25.24 5.23l.33.15c.32.14.69.33 1.02.52-1.05 2.84-3.7 8.82-5.98 13.62-.13.27-.21.44-.83.48v.03h9.43c1.14-2.45 2.06-4.49 2.79-6.19v6.19h8v-6.373l5.171 5.172 5.658-5.658L108 158.343zm-11.17 6.08C95.26 153.27 84.3 148 68 148s-27.26 5.27-28.83 6.08c-.94.4-2.11 1-3.17 1.79V126c0-6.63 2.69-9.99 8-10v8h8a8 8 0 0 0 8-8h16a8 8 0 0 0 8 8h8v-8c5.31.01 8 3.37 8 10v29.87c-1.06-.79-2.23-1.39-3.17-1.79M67.953 56h8c0 11.028 8.972 20 20 20v8c-15.44 0-28-12.56-28-28m-17 0h8c0 19.85 16.598 36 37 36v8c-24.813 0-45-19.738-45-44m45 12c-6.617 0-12-5.383-12-12h8c0 2.206 1.795 4 4 4zm66.258-24.422 3.578-7.156L148.944 28h-5.908c-2.408-3.75-6.362-6.525-11.036-7.552V16h-8v4.448c-4.674 1.027-8.628 3.801-11.036 7.552h-5.908L90.21 36.422l3.578 7.156L108.944 36h1.518c0 .016-.004.031-.004.047l-4.708 25.93 8.497 15.6-5.676 7.814c-5.136 7.07-6.019 15.929-2.362 23.693 3.21 6.815 6.457 11.678 9.65 14.454 2.357 2.05 5.18 3.372 8.141 4.003V132h8v-4.46c2.962-.63 5.785-1.953 8.142-4.002 3.193-2.777 6.44-7.64 9.649-14.454 3.657-7.764 2.774-16.622-2.362-23.693l-5.676-7.815 8.498-15.6-4.709-25.929q-.001-.023-.004-.047h1.518zm-29.901 34.61 8.646 11.904c3.395 4.674 3.992 10.5 1.597 15.584-3.404 7.227-6.045 10.42-7.66 11.824-3.801 3.305-9.985 3.305-13.786 0-1.615-1.404-4.255-4.596-7.66-11.825-2.395-5.084-1.798-10.91 1.597-15.583l8.646-11.905-9.565-17.558 4.328-23.835v-.36c0-4.65 4.283-8.434 9.547-8.434s9.547 3.784 9.547 8.434v.36l4.328 23.835zM132 40a4 4 0 1 1-8 0 4 4 0 0 1 8 0"/></svg>