<svg xmlns="http://www.w3.org/2000/svg" viewBox="0 0 192 192"><path d="M40 100.002c12.887 0 23.43-10.211 23.974-22.966l5.477-.685L67.12 88h64.108c4.156 7.167 11.907 12 20.77 12 13.235 0 24-10.766 24-24 0-9.383-5.415-17.52-13.283-21.465l10.108-4.211-.978-3.422c-8.727-30.547-43.495-30.9-43.845-30.9h-5.55l4.658 13.973-2.319 1.16-11.416-11.418-22.611 3.77a12.04 12.04 0 0 0-8.013 5.18l-4.89 7.335H57.657l-8-8H28v8h18.343l6.37 6.369 4 8 1.63 1.63-4.432 4.432c-4.002-2.86-8.816-4.431-13.911-4.431-13.234 0-24 10.766-24 24s10.766 24 24 24m128-24c0 8.822-7.178 16-16 16s-16-7.178-16-16c0-6.059 3.385-11.34 8.363-14.056l2.078 8.31A7.97 7.97 0 0 0 144 76.002a8 8 0 0 0 16 0c0-3.654-2.452-6.73-5.799-7.686l-2.077-8.308C160.89 60.076 168 67.22 168 76.002m-85.86-32 7.266-10.898a4.02 4.02 0 0 1 2.67-1.726l18.55-3.092 12.584 12.583 13.681-6.841-3.147-9.443c8.261 1.367 23.17 5.932 29.266 21.163l-16.61 6.92c-10.54 2.53-18.4 12.028-18.4 23.334 0 1.363.12 2.698.34 4H76.88l3.462-17.315-17.055-17.055-.815-1.63zM71.658 65.316l-.554 2.767-20.033 2.504L64 57.658zM40 60.002c2.923 0 5.696.794 8.118 2.225l-6.054 6.053A8 8 0 0 0 40 68.002a8 8 0 1 0 7.373 11.109l8.48-1.06C54.843 85.906 48.126 92 40 92c-8.822 0-16-7.177-16-16s7.178-16 16-16zm56.004 44H85.66l10.172 10.171-5.657 5.657-10.171-10.172v10.344h-8v-24h24zm24 16v-10.344l-10.172 10.172-5.657-5.657 10.172-10.171h-10.343v-8h24v24zM164.5 126a11.43 11.43 0 0 0-8.13 3.372 11.42 11.42 0 0 0-3.273 6.628h-58.83c-4.009-1.937-20.898-10.078-24.754-11.586A64.4 64.4 0 0 0 46.03 120H16v56h24.24v-4c0-9.374 7.765-17 17.31-17 4.124 0 8.11 1.442 11.226 4.061l1.116.939h90.878c8.398 0 15.23-6.832 15.23-15.23v-7.27c0-6.341-5.159-11.5-11.5-11.5M24 168v-23.344l12.91 12.911c-2.19 3.048-3.718 6.591-4.346 10.433zm144-23.23c0 3.986-3.243 7.23-7.23 7.23H72.737a25.5 25.5 0 0 0-15.187-5 25.37 25.37 0 0 0-15.002 4.89L24 133.344V128h22.03a56.4 56.4 0 0 1 20.572 3.865c3.318 1.299 19.174 8.911 25.004 11.734l.826.4H161v-6.5c0-.93.366-1.807 1.028-2.47a3.47 3.47 0 0 1 2.472-1.03c1.93 0 3.5 1.57 3.5 3.5z"/></svg>