<svg xmlns="http://www.w3.org/2000/svg" viewBox="0 0 192 192"><path d="M146 88c-2.56 0-5.046.324-7.42.93L135.39 80H140v-8h-7.467l-5.714-16H108v8h13.18l2.858 8h-6.179l-9.391 14.087L97.362 112h-2.93L86.48 96H76v8h5.521l3.977 8H70.83C67.38 100.447 56.66 92 44 92c-15.44 0-28 12.56-28 28s12.56 28 28 28 28-12.56 28-28h17.527l8.001 16H108v-8h-5.528l-4-8h3.611l25.89-36.984 3.188 8.927C122.115 97.116 116 106.854 116 118c0 16.542 13.458 30 30 30s30-13.458 30-30-13.458-30-30-30M44 140c-11.028 0-20-8.972-20-20s8.972-20 20-20c8.183 0 15.225 4.945 18.318 12H48v8h16c0 11.028-8.972 20-20 20m102 0c-12.13 0-22-9.87-22-22 0-7.667 3.944-14.426 9.908-18.366l6.325 17.711 7.534-2.69-6.48-18.142A22 22 0 0 1 146 96c12.13 0 22 9.87 22 22s-9.87 22-22 22M26.969 90.682l-5.938-5.363c5.302-5.868 13.665-9.265 22.946-9.319h29.68L60.79 88.868l-2.58-1.29c-3.478-1.74-7.073-3.537-13.733-3.578h-.464c-6.932.043-13.304 2.54-17.044 6.682"/></svg>