<svg xmlns="http://www.w3.org/2000/svg" viewBox="0 0 192 192"><path d="M57.5 96H76l-29.071 37L57.5 103.929H39L68.071 69.57zm22.353 72.625L82 172l2.136 3.382c.174-.11 4.285-2.733 7.575-7.162l-6.422-4.77c-2.37 3.19-5.406 5.156-5.436 5.175m5.691-21.322C86.82 149.59 88 152.25 88 156.21c0 .612-.06 1.233-.18 1.846l7.854 1.526A17.8 17.8 0 0 0 96 156.21c0-5.838-1.854-9.91-3.47-12.805zM78 127.79c0 5.86 1.871 9.952 3.501 12.862l6.98-3.91c-1.289-2.3-2.481-4.977-2.481-8.952 0-.599.058-1.206.172-1.806l-7.86-1.494a17.7 17.7 0 0 0-.312 3.3m16.136-12.408-4.272-6.764c-.174.11-4.285 2.733-7.575 7.162l6.422 4.77c2.37-3.19 5.406-5.156 5.425-5.168m36.618-78.657 2.523-7.592-6.918-2.3-9.587 1.607-3.862-12.442-25.92.018-3.808 12.414-9.525-1.597-6.918 2.3 2.522 7.592 5.033-1.673 3.41.571-3.893 3.901L76.07 64.14l3.922 7.828.008 8.036 8-.008-.01-9.925-4.092-8.165-1.779-19.382 7.372-7.384 3.415-11.128 14.112-.01 3.455 11.126 7.357 7.366-1.746 19.388-4.078 8.174.01 9.948 8-.008-.008-8.06 3.908-7.833 2.217-24.617-3.854-3.857 3.442-.577zM104 72a4 4 0 0 0-8 0v20a4 4 0 0 0 8 0zm0 104h8v-68h-8z"/></svg>