<svg xmlns="http://www.w3.org/2000/svg" viewBox="0 0 192 192"><path d="m58.71 130.53 10.11-4.21C58.224 88.962 21.546 92 18.45 92l4.66 13.97-2.32 1.16-4.79-4.79v11.32l3.21 3.21 13.68-6.84-3.15-9.45c8.26 1.37 23.17 5.94 29.27 21.17l-16.61 6.92h-.01c-13.05 3.133-20.082 15.845-18.05 27.33H16v8h11.23c4.15 7.17 11.91 12 20.77 12 13.23 0 24-10.77 24-24 0-9.38-5.42-17.53-13.29-21.47M48 168c-8.82 0-16-7.18-16-16 0-6.06 3.38-11.34 8.36-14.05l.004-.002 2.077 8.307a7.97 7.97 0 0 0-2.44 5.745 8 8 0 0 0 16 0c0-3.654-2.452-6.729-5.798-7.686L48.125 136c8.768.072 15.877 7.221 15.877 16s-7.18 16-16 16Zm53.545-36.308-7.473-2.854c5.974-15.642-2.394-30.658-14.718-35.365l2.854-7.474c17.98 6.867 26.295 27.476 19.337 45.693m-14.904-4.887-7.473-2.854c2.34-6.126-.443-12.9-6.204-15.101l2.854-7.474c9.882 3.774 14.737 15.182 10.823 25.429m78.691-76.494 8.154-3.849C169.355 32.01 160.39 17.16 130.108 17.16l3.905 11.716-5.202 2.278-9.329-9.33c-13.281 1.374-18.114.597-21.79 6.109l-3.834 5.751H77.827l-6.61-6.61H53.035v8h14.867l4.98 4.98 3.305 6.61.527.527-7.557 5.757a19.87 19.87 0 0 0-13.158-4.958c-11.02 0-19.98 8.96-19.98 19.98s8.96 19.98 19.98 19.98c10.43 0 19.01-8.03 19.9-18.23v-.003l9.164-1.064-2.26 7.313 54.944.118.003.006c3.11 6.98 10.12 11.86 18.25 11.86 11.02 0 19.98-8.96 19.98-19.98 0-7.649-4.319-14.308-10.648-17.659M56 79.95c-6.61 0-11.98-5.37-11.98-11.98S49.39 55.99 56 55.99c2.42 0 4.689.72 6.579 1.969l-9.003 6.858.009.012A3.98 3.98 0 0 0 52 67.999a4 4 0 0 0 4 4c.157 0 .306-.029.459-.046l.002.019 11.208-1.301c-1.221 5.309-5.99 9.278-11.669 9.278Zm18.99-18.181c-.27-.84-.6-1.669-.98-2.459l8.413-6.409 5.738 5.738-.514 1.663-12.656 1.469Zm61.03 6.201v.11l-42.376-.091 3.585-11.598-14.467-14.466-.12-.24H98.14l6.209-9.313a2.62 2.62 0 0 1 1.648-1.109l10.521-1.088 10.501 10.5 16.894-7.4-2.479-7.439c17.315 3.331 21.608 14.695 22.314 16.378l-16.297 7.693.002.003h-.002c-6.76 3.22-11.43 10.1-11.43 18.06ZM156 79.95c-6.61 0-11.98-5.37-11.98-11.98 0-3.2 1.25-6.1 3.3-8.25l.002-.002 5.003 10.063.014-.007A3.99 3.99 0 0 0 155.907 72a4 4 0 0 0 4-4c0-.64-.164-1.237-.432-1.774l.014-.007-5.036-10.129h.007c.5-.07 1.02-.1 1.54-.1 6.61 0 11.98 5.37 11.98 11.98S162.61 79.95 156 79.95m20 30.76V108h-7.8l-3.34 5h-20.2l-8-8H115v8h18.34l6.37 6.37 4 8 1.632 1.632-4.692 4.692c-3.932-2.794-8.653-4.329-13.65-4.329-13.033 0-23.637 10.603-23.637 23.636s10.604 23.636 23.637 23.636c12.671 0 23.042-10.023 23.609-22.556l5.841-.73-2.33 11.65H176v-8h-12.12l3.46-17.31-17.05-17.06-.81-1.63h19.66l6.86-10.29Zm-49 58.654c-9.022 0-16.363-7.341-16.363-16.364s7.341-16.364 16.363-16.364c3.022 0 5.889.829 8.384 2.323l-6.319 6.319a8 8 0 0 0-2.064-.279 8 8 0 1 0 7.373 11.11l8.855-1.107c-.992 8.08-7.885 14.361-16.228 14.361Zm31.11-24.284-20.038 2.505 12.926-12.926.002.002 7.66 7.65-.55 2.77Z"/></svg>