<svg xmlns="http://www.w3.org/2000/svg" viewBox="0 0 192 192"><path d="m58.72 114.53 10.1-4.21-.97-3.42C59.12 76.35 24.35 76 24 76h-5.55l4.66 13.97-2.32 1.16L16 86.34v11.32l3.21 3.21 13.68-6.84-3.15-9.45c8.26 1.37 23.17 5.94 29.27 21.17l-16.61 6.92C31.86 115.2 24 124.69 24 136c0 1.36.12 2.7.34 4H16v8h11.23c4.16 7.17 11.91 12 20.77 12 13.23 0 24-10.77 24-24 0-9.38-5.42-17.52-13.28-21.47M48 152c-8.82 0-16-7.18-16-16 0-6.06 3.39-11.34 8.36-14.06l2.08 8.31A7.998 7.998 0 0 0 48 144a7.998 7.998 0 0 0 2.2-15.69l-2.08-8.3C56.89 120.07 64 127.22 64 136s-7.18 16-16 16m128-88v-8h-36v88h20.12c.93 8.33 7.55 14.96 15.88 15.89v-8.09c-4.56-.93-8-4.98-8-9.8s3.44-8.87 8-9.8v-8.09c-6.94.77-12.68 5.51-14.95 11.89H148V64zM92 148h8v8h-8zM108 148h8v8h-8zM76 160h8v-16h-8zM124 144v16h8v-16zM94.299 130.704l-5.895-5.408c5.041-5.494 7.736-12.522 7.59-19.79-.145-7.199-3.068-13.772-8.232-18.511L93.17 81.1c6.79 6.229 10.634 14.84 10.823 24.244.188 9.335-3.255 18.341-9.694 25.359Zm-11.676-10.023-5.895-5.409c2.171-2.366 3.332-5.385 3.27-8.502-.062-3.048-1.294-5.826-3.469-7.822l5.408-5.895c3.802 3.488 5.953 8.302 6.059 13.556.104 5.185-1.804 10.182-5.373 14.072"/></svg>