<svg xmlns="http://www.w3.org/2000/svg" viewBox="0 0 192 192"><path d="m103.438 56.191-11.324 2.265 8.074 8.075-4.26 38.332L92 116.649V132h-8v-16.649l4.071-12.214 3.741-33.668-11.221-11.22L73.292 40H54.708l-7.299 18.248-11.221 11.221 3.74 33.668L44 115.351V132h-8v-15.351l-3.929-11.786-4.259-38.332 8.074-8.075-11.324-2.265-6.773 3.387-3.578-7.156 9.227-4.613 18.084 3.616L49.292 32h29.416l7.77 19.425 18.084-3.616 9.227 4.613-3.578 7.156zM48 72v4l4 8 12 8 12-8 4-8v-4l-16 4zm28 48v28c0 6.617-5.383 12-12 12s-12-5.383-12-12v-28c0-6.617 5.383-12 12-12s12 5.383 12 12m-8 0c0-2.206-1.794-4-4-4s-4 1.794-4 4v28c0 2.206 1.794 4 4 4s4-1.794 4-4zm96 4c-4.4 0-8 3.6-8 8v20c0 4.4 3.6 8 8 8s8-3.6 8-8v-20c0-4.4-3.6-8-8-8m12-44v36h-12c-8.822 0-16 7.178-16 16v12h-4c-19.85 0-36-16.15-36-36V80zm-8 8h-52v20c0 14.082 10.449 25.768 24 27.715V132c0-13.233 10.767-24 24-24h4z"/></svg>