<svg xmlns="http://www.w3.org/2000/svg" viewBox="0 0 192 192"><path d="M112 160h-8v-52c0-4.411-3.589-8-8-8s-8 3.589-8 8v52h-8v-52c0-8.822 7.178-16 16-16s16 7.178 16 16zm61.485-67.714-60-24a4 4 0 0 0-3.274.136L96 75.528l-14.21-7.106a4 4 0 0 0-3.275-.136l-60 24a4 4 0 0 0 .22 7.509c2.27.757 4.397 2.88 7.09 5.568 7.009 7 17.505 17.473 46.175 21.222v-8.075c-23.227-3.219-32.545-10.971-38.967-17.266 12.436.954 27.016 1.622 39.43 2.071a23.9 23.9 0 0 1 3.11-7.895c-11.84-.408-26.096-1.022-38.59-1.905l42.835-17.134 14.393 7.197a4 4 0 0 0 1.787.422h.004c.612 0 1.224-.14 1.787-.422l14.393-7.197 42.833 17.133c-12.561.887-26.869 1.502-38.587 1.906a23.9 23.9 0 0 1 3.11 7.895c12.308-.445 26.937-1.114 39.43-2.072-6.429 6.302-15.737 14.052-38.968 17.269v8.072c28.669-3.75 39.156-14.211 46.176-21.221 2.692-2.688 4.818-4.811 7.089-5.568a4 4 0 0 0 .22-7.509"/></svg>