<svg xmlns="http://www.w3.org/2000/svg" viewBox="0 0 192 192"><path d="M175 88.15v29.1c0 16.6-13.07 30.07-29.18 30.07-.52 0-1.05-.01-1.56-.05a46.1 46.1 0 0 0 4.58-20.08V88.25c0-2.27-.53-4.42-1.47-6.34h21.57c3.35 0 6.06 2.79 6.06 6.24m-74.97-62.6c-13.06 0-23.65 10.59-23.65 23.65 0 .85.04 1.69.13 2.52h14.71c6.24 0 11.32 5.08 11.32 11.32v9.68c11.88-1.25 21.14-11.31 21.14-23.52 0-13.06-10.59-23.65-23.65-23.65m39.85 56.36a8.34 8.34 0 0 0-5.44-2.01h-31.9v53.08c0 6.24-5.08 11.32-11.32 11.32H66.1c6.43 13.68 20.33 23.15 36.44 23.15 15.35 0 28.69-8.59 35.48-21.22a40.1 40.1 0 0 0 4.78-19.04V88.25a8.31 8.31 0 0 0-2.92-6.34m26.063-25.663c0-9.17-7.434-16.605-16.604-16.605s-16.605 7.434-16.605 16.605 7.434 16.604 16.605 16.604 16.604-7.434 16.604-16.604M96.51 63.04v69.94c0 2.92-2.37 5.28-5.29 5.28H21.29c-2.92 0-5.29-2.36-5.29-5.28V63.04c0-2.92 2.37-5.28 5.29-5.28h69.93c2.92 0 5.29 2.36 5.29 5.28M74.37 74.86H38.14v8.05h13.58v38.25h9.06V82.91h13.59z"/></svg>