<svg xmlns="http://www.w3.org/2000/svg" viewBox="0 0 192 192"><path d="M96 176c44.112 0 80-35.888 80-80s-35.888-80-80-80-80 35.888-80 80 35.888 80 80 80m0-152c39.701 0 72 32.299 72 72s-32.299 72-72 72-72-32.299-72-72 32.299-72 72-72m21.78 48.954c0-5.364 4.349-9.713 9.713-9.713s9.713 4.349 9.713 9.713-4.349 9.713-9.713 9.713-9.713-4.349-9.713-9.713m11.225 15.01h9.956c1.957 0 3.543 1.635 3.543 3.65v17.021c0 9.078-6.675 16.546-15.242 17.488a29.4 29.4 0 0 0 2.408-11.673V91.67a10.8 10.8 0 0 0-.665-3.705zM84.85 67.84c-.011-.225-.034-.446-.034-.673 0-7.64 6.193-13.834 13.833-13.834s13.833 6.194 13.833 13.834c0 6.27-4.174 11.557-9.892 13.255V79.09c0-6.21-5.05-11.25-11.25-11.25zm38.817 23.833v22.781c0 13.004-10.542 23.546-23.546 23.546-8.421 0-15.805-4.423-19.967-11.07H91.34c6.2 0 11.25-5.05 11.25-11.25V86.787h16.19a4.886 4.886 0 0 1 4.887 4.886M54.748 120.93h36.589c2.9 0 5.252-2.351 5.252-5.252V79.09c0-2.9-2.352-5.252-5.252-5.252H54.748a5.25 5.25 0 0 0-5.252 5.252v36.588c0 2.9 2.352 5.252 5.252 5.252m7.699-37.085h21.191v4.71h-7.947v22.368h-5.297v-22.37h-7.947v-4.71z"/></svg>