<svg xmlns="http://www.w3.org/2000/svg" viewBox="0 0 192 192"><path d="M92 32H32v32h60zm-8 24H40V40h44zm-24 84c15.439 0 28-12.561 28-28 0-7.05-2.625-13.495-6.941-18.423l5.978-6.974-6.074-5.206-5.975 6.97A27.8 27.8 0 0 0 64 84.29V76h-8v8.29a27.8 27.8 0 0 0-11.096 4.146l-5.831-6.997-6.146 5.121 5.929 7.115C34.591 98.59 32 104.996 32 112c0 15.439 12.561 28 28 28m0-48c3.522 0 6.83.923 9.707 2.528l-12.745 14.869 6.074 5.206 12.735-14.857C78.411 103.135 80 107.381 80 112c0 11.028-8.972 20-20 20s-20-8.972-20-20 8.972-20 20-20m112-36h-8V36h-8v20h-8v8h4v72h4v16h-24v-16h4V64h4v-8h-8V36h-8v20h-8v8h4v72h4v16h-16V36c0-11.028-8.972-20-20-20H36c-11.028 0-20 8.972-20 20v120c0 11.028 8.972 20 20 20h52c9.658 0 17.738-6.882 19.597-16H162a4 4 0 0 0 4-4c0-1.477-.809-2.752-2-3.445V136h4V64h4zM88 168H36c-6.617 0-12-5.383-12-12V36c0-6.617 5.383-12 12-12h52c6.617 0 12 5.383 12 12v116H88v-4a4 4 0 0 0-8 0v4H44v-4a4 4 0 0 0-8 0v8a4 4 0 0 0 4 4h59.3c-1.653 4.653-6.087 8-11.3 8"/></svg>