<svg xmlns="http://www.w3.org/2000/svg" viewBox="0 0 192 192"><path fill="#1d1d1b" d="M47.824 95.683c0 15.711 7.77 30.378 20.776 39.243 1.609 1.095 2.02 3.303.924 4.912a3.56 3.56 0 0 1-2.926 1.54 3.56 3.56 0 0 1-1.985-.616 54.54 54.54 0 0 1-23.857-45.096 54.54 54.54 0 0 1 23.857-45.095c1.608-1.113 3.816-.685 4.911.924 1.096 1.625.685 3.816-.924 4.911v.018a47.5 47.5 0 0 0-20.776 39.26zm75.678 39.175a3.54 3.54 0 0 0-.924 4.911 3.52 3.52 0 0 0 2.927 1.54c.684 0 1.386-.205 1.985-.615 14.89-10.183 23.789-27.024 23.789-45.045s-8.9-34.861-23.789-45.044a3.54 3.54 0 0 0-4.912.924 3.543 3.543 0 0 0 .924 4.912c12.973 8.865 20.709 23.514 20.709 39.208s-7.736 30.344-20.709 39.209m-43.52 32.294v-.034c-15.9-3.577-30.327-12.545-40.647-25.278-10.474-12.921-16.241-29.197-16.241-45.866S28.86 63.03 39.335 50.108c10.32-12.732 24.764-21.7 40.646-25.277 4.125-.924 8.318-1.506 12.494-1.694V51.1l-7.668-8.112c-1.335-1.42-3.577-1.472-4.997-.137s-1.489 3.577-.137 4.997l13.76 14.564A3.55 3.55 0 0 0 96 63.526c.975 0 1.9-.394 2.567-1.113l13.76-14.564c1.335-1.42 1.283-3.662-.137-4.997s-3.645-1.266-4.997.137l-7.65 8.095V19.525A3.52 3.52 0 0 0 96.017 16c-5.87 0-11.774.667-17.576 1.968-17.44 3.92-33.27 13.76-44.6 27.725-11.483 14.153-17.815 32.02-17.815 50.298s6.332 36.145 17.816 50.316c11.312 13.965 27.16 23.806 44.599 27.725.257.068.513.085.77.085 1.609 0 3.08-1.112 3.44-2.755a3.525 3.525 0 0 0-2.67-4.21zm78.177-121.476h.034C146.88 31.71 131.033 21.87 113.61 17.95c-1.9-.428-3.799.77-4.227 2.67s.77 3.782 2.67 4.21c15.9 3.577 30.326 12.545 40.646 25.277 10.474 12.922 16.241 29.197 16.241 45.866 0 16.67-5.767 32.945-16.24 45.866-10.32 12.733-24.765 21.7-40.647 25.278a74 74 0 0 1-12.527 1.711v-27.331l7.65 8.095a3.53 3.53 0 0 0 2.567 1.112c.872 0 1.745-.325 2.43-.958a3.523 3.523 0 0 0 .137-4.997l-13.76-14.565c-1.335-1.42-3.8-1.42-5.134 0l-13.76 14.565a3.555 3.555 0 0 0 .137 4.997 3.54 3.54 0 0 0 4.997-.137l7.667-8.112v30.976A3.52 3.52 0 0 0 95.983 176c5.87 0 11.791-.667 17.593-1.968 17.44-3.92 33.27-13.76 44.583-27.725 11.483-14.17 17.815-32.038 17.815-50.316s-6.332-36.145-17.815-50.315m-47.218 24.25h.017c-1.592-1.129-3.8-.735-4.93.856s-.735 3.8.857 4.93c8.009 5.647 12.407 12.869 12.407 20.33 0 6.692-3.542 13.196-10.063 18.535l-19.715-19.63a3.553 3.553 0 0 0-4.998 0 3.553 3.553 0 0 0 0 4.998l21.89 21.803a3.52 3.52 0 0 0 2.498 1.027 3.47 3.47 0 0 0 2.037-.65c9.926-7.017 15.402-16.276 15.402-26.1 0-9.823-5.476-19.082-15.402-26.098zm-24.936 51.36a3.525 3.525 0 0 0-.855-4.929c-8.01-5.647-12.408-12.87-12.408-20.331 0-6.692 3.543-13.195 10.063-18.535l19.715 19.63a3.54 3.54 0 0 0 4.998 0 3.553 3.553 0 0 0 0-4.997L85.628 70.32a3.53 3.53 0 0 0-4.534-.376C71.167 76.96 65.69 86.219 65.69 96.043c0 9.823 5.476 19.082 15.403 26.099l-.018-.017a3.47 3.47 0 0 0 2.037.65 3.52 3.52 0 0 0 2.892-1.489z"/></svg>