<svg xmlns="http://www.w3.org/2000/svg" viewBox="0 0 192 192"><path fill="#1d1d1b" d="M34.996 88.981a3.28 3.28 0 0 1-2.676 1.386 3.2 3.2 0 0 1-1.89-.598c-9.226-6.519-14.31-15.13-14.31-24.247s5.085-17.728 14.311-24.246a3.29 3.29 0 0 1 4.204.362l20.357 20.263c1.276 1.276 1.276 3.354 0 4.645a3.297 3.297 0 0 1-4.644 0L32.02 48.314c-6.045 4.96-9.352 11.005-9.352 17.224 0 6.928 4.11 13.635 11.54 18.878a3.28 3.28 0 0 1 .788 4.565m140.675 49.69-.063-.048-.141-.268c-7.243-13.98-19.728-37.817-21.932-40.368l-.536-.614c-2.503-2.96-5.337-6.313-9.824-6.644-2.692-.189-9.856-.315-13.556-.362l-8.738-41.376c-1.07-5.038-6.061-8.266-11.1-7.195l-42.1 8.943c-2.361-3.464-5.542-6.66-9.525-9.463a3.277 3.277 0 0 0-4.566.787 3.28 3.28 0 0 0 .787 4.566c2.913 2.047 5.29 4.33 7.132 6.755-2.345 2.172-3.542 5.479-2.833 8.832l3.196 14.926c-1.417 1.968-3.196 3.857-5.322 5.605L38.24 64.499a3.297 3.297 0 0 0-4.645 0c-1.275 1.291-1.275 3.37 0 4.645l20.342 20.262c.63.63 1.464.96 2.314.96a3.2 3.2 0 0 0 1.89-.597 41.4 41.4 0 0 0 5.447-4.582l12.973 60.6c.929 4.392 4.833 7.4 9.147 7.4.646 0 1.291-.063 1.953-.205l41.533-8.785c1.386-.284 2.378-1.528 2.378-2.945 0-1.857-1.748-3.337-3.622-2.944l-41.502 8.77c-1.779.378-3.558-.756-3.936-2.55L64.658 61.02c-.378-1.78.772-3.559 2.55-3.937l43.833-9.289c1.779-.378 3.558.772 3.936 2.551l11.131 52.491-12.422-5.73c-6.518-3.008-10.124-.426-11.666 1.353a9.46 9.46 0 0 0-2.52 6.22c.095 2.692 1.37 5.18 3.464 6.754 1.07.96 4.251 3.212 11.273 8.092l4.188 2.897a13182 13182 0 0 1-32.181 6.613 2.99 2.99 0 0 0-2.362 3.464l.032.126a3.02 3.02 0 0 0 3.558 2.345c1.653-.346 16.642-3.416 37.833-7.809 2.142 1.48 4.85 3.37 5.652 3.968 1.04.787 2.063 3.054 2.945 5.022a28.8 28.8 0 0 0 2.85 5.306c2.597 3.48 5.164 6.203 9.257 8.203 2.74 1.29 5.668 1.984 8.738 2.094.425 0 .85-.095 1.244-.284h.063a.3.3 0 0 0 .094-.063h.032a3 3 0 0 0 1.574-2.629c0-1.653-1.338-3.007-2.96-3.023a16 16 0 0 1-6.171-1.48c-2.992-1.448-4.913-3.51-7.022-6.329a23.5 23.5 0 0 1-2.189-4.188c-1.18-2.645-2.519-5.652-4.786-7.384-.882-.677-3.495-2.488-6.786-4.755l-10.108-7.006c-6.25-4.345-9.871-6.927-10.832-7.746a3.2 3.2 0 0 1-1.307-2.204c.08-.819.441-1.59 1.04-2.22.299-.347 1.228-1.401 4.613.157l27.426 12.611c.11.063.236.11.41.174l.188.063c.284.078.536.11.803.11 1.622 0 2.929-1.307 2.992-2.96.063-1.48-1.07-2.44-1.78-2.771-.125-.063-6.502-2.992-8.28-3.81l-2.016-9.573c3.983.063 9.651.19 11.777.362 1.968.158 3.747 2.252 5.636 4.472l.583.692c1.527 1.811 13.382 24.184 21.302 39.503a3.007 3.007 0 0 0 3.983 1.322l.11-.063c.709-.378 1.244-.992 1.48-1.763a3.07 3.07 0 0 0-.189-2.299zm-71.825-1.906a3.393 3.393 0 0 0 3.4 3.385 3.38 3.38 0 0 0 3.386-3.385 3.39 3.39 0 0 0-3.385-3.385c-1.858 0-3.401 1.512-3.401 3.385"/></svg>