<svg xmlns="http://www.w3.org/2000/svg" viewBox="0 0 192 192"><path fill="#1d1d1b" d="M32.486 81.999a24.63 24.63 0 0 0 10.777 20.364 1.84 1.84 0 0 1 .489 2.549 1.82 1.82 0 0 1-1.511.794c-.351 0-.703-.107-1.023-.321a28.26 28.26 0 0 1-12.38-23.386 28.29 28.29 0 0 1 12.38-23.402 1.84 1.84 0 0 1 2.55.489 1.84 1.84 0 0 1-.49 2.55h-.015a24.63 24.63 0 0 0-10.777 20.363m16.67 37.094.015-.015c-8.243-1.847-15.738-6.503-21.096-13.113a37.9 37.9 0 0 1-8.427-23.798c0-8.64 2.992-17.097 8.427-23.799 5.358-6.61 12.838-11.265 21.096-13.112a37.5 37.5 0 0 1 6.488-.886v14.502l-3.984-4.213c-.687-.733-1.848-.763-2.596-.076a1.85 1.85 0 0 0-.076 2.595l7.129 7.556c.351.366.824.58 1.328.58s.992-.214 1.328-.58l7.129-7.556c.702-.733.656-1.893-.076-2.595a1.85 1.85 0 0 0-2.596.076l-3.968 4.198V42.508a1.837 1.837 0 0 0-1.832-1.832c-3.038 0-6.106.336-9.114 1.023-9.052 2.03-17.264 7.144-23.126 14.38C19.282 63.42 16 72.702 16 82.182s3.282 18.746 9.235 26.103c5.877 7.236 14.09 12.35 23.127 14.38a1.826 1.826 0 0 0 2.183-1.39 1.824 1.824 0 0 0-1.39-2.182zm15.036-23.02c.366 0 .733-.107 1.053-.336 5.16-3.633 7.984-8.441 7.984-13.54s-2.84-9.907-7.984-13.54a1.833 1.833 0 0 0-2.549.443c-.58.824-.382 1.97.443 2.55 4.152 2.93 6.441 6.67 6.441 10.547 0 3.465-1.847 6.839-5.22 9.617L54.132 81.632a1.834 1.834 0 1 0-2.595 2.596l11.357 11.311a1.84 1.84 0 0 0 1.298.534m-14.44-.336c.32.23.686.336 1.052.336a1.833 1.833 0 0 0 1.053-3.328c-4.151-2.93-6.441-6.67-6.441-10.548 0-3.465 1.847-6.838 5.22-9.617l10.228 10.182c.718.718 1.878.718 2.595 0s.718-1.878 0-2.595L52.102 68.856a1.83 1.83 0 0 0-2.35-.199c-5.16 3.633-7.985 8.442-7.985 13.54 0 5.099 2.84 9.907 7.984 13.54zM175.794 141.9l-.015.03c-1.725-3.327-16.899-32.651-19.082-35.17l-.442-.52c-2.076-2.457-4.427-5.25-7.969-5.495-2.457-.183-9.403-.29-12.425-.32l-7.74-36.621v-.03a7.274 7.274 0 0 0-8.64-5.603l-24.958 5.297a40.8 40.8 0 0 0-4.763-7.404c-5.877-7.235-14.09-12.349-23.142-14.38a1.824 1.824 0 0 0-2.183 1.39 1.81 1.81 0 0 0 1.39 2.183c8.242 1.847 15.738 6.503 21.096 13.112 1.496 1.832 2.778 3.817 3.892 5.878l-9.434 2a28.2 28.2 0 0 0-7.54-7.633c-.84-.58-1.97-.351-2.55.473s-.35 1.97.473 2.55a24.5 24.5 0 0 1 6.29 6.243 7.29 7.29 0 0 0-2.351 7.022l3.969 18.531a24.7 24.7 0 0 1-7.908 8.9 1.82 1.82 0 0 0-.473 2.55c.351.518.931.793 1.511.793.351 0 .718-.107 1.038-.32a28.1 28.1 0 0 0 6.93-6.763l2.413 11.296c-4.885 4.503-10.869 7.724-17.357 9.175-2.137.488-4.32.778-6.503.885v-14.181l3.97 4.198c.366.381.839.58 1.327.58.458 0 .901-.168 1.252-.504a1.85 1.85 0 0 0 .076-2.595L58.82 99.89c-.687-.733-1.97-.733-2.657 0l-7.128 7.556a1.85 1.85 0 0 0 .076 2.595c.733.702 1.893.656 2.595-.076l3.969-4.214v16.06c0 1.007.824 1.831 1.832 1.831 3.053 0 6.121-.336 9.128-1.023 6.412-1.435 12.396-4.442 17.433-8.64l7.19 33.568v.03c.84 3.924 4.702 6.443 8.64 5.603l36.117-7.633a1.755 1.755 0 0 0 1.39-1.724c0-.977-.794-1.756-1.756-1.756-.122 0-.244 0-.366.03l-36.087 7.633c-2.015.428-4-.855-4.442-2.87L79.198 74.198c-.428-2.015.854-4 2.87-4.442l38.116-8.075c2.015-.427 4 .855 4.443 2.87l10.044 47.322-12.35-5.694c-5.174-2.397-7.953-.412-9.159.977a7.38 7.38 0 0 0-1.969 4.793 6.9 6.9 0 0 0 2.733 5.266c.9.825 3.846 2.886 9.708 6.961l5.282 3.649a8771 8771 0 0 1-29.95 6.152c-.931.183-1.542 1.083-1.39 2.03l.031.091c.199.947 1.13 1.573 2.076 1.374 1.45-.29 14.64-3.007 33.263-6.87 2.534 1.756 4.595 3.191 5.236 3.68 1.068.809 1.97 2.809 2.84 4.732a23.3 23.3 0 0 0 2.365 4.427c2.183 2.93 4.336 5.22 7.74 6.87a18.3 18.3 0 0 0 7.235 1.74c.26 0 .52-.062.764-.169.61-.29.992-.9.992-1.572 0-.977-.779-1.77-1.756-1.77a15.1 15.1 0 0 1-5.709-1.374c-2.763-1.344-4.518-3.221-6.457-5.801a22 22 0 0 1-1.97-3.755c-1.037-2.336-2.121-4.733-3.907-6.091-.992-.763-4.564-3.206-8.716-6.091l-5.938-4.122c-2.03-1.42-8.228-5.709-9.42-6.747a3.59 3.59 0 0 1-1.495-2.61 4.02 4.02 0 0 1 1.114-2.488c.367-.428 1.481-1.71 5.007-.077l23.89 10.991s.138.061.214.092l.137.061q.23.046.458.046a1.756 1.756 0 0 0 .992-3.206l-.29-.153c-.015 0-.03 0-.045-.015l-7.557-3.48v-.061l-2.06-9.724c3.266.03 9.266.152 11.372.32 2.091.168 3.786 2.183 5.557 4.26l.458.534c1.45 1.71 12.196 22.058 18.638 34.499a1.775 1.775 0 0 0 2.336.778l.076-.046a1.75 1.75 0 0 0 .748-2.38zm-61.854-1.939c0 1.771 1.435 3.206 3.206 3.206s3.19-1.435 3.19-3.206-1.435-3.205-3.19-3.205-3.206 1.435-3.206 3.205"/></svg>