<svg xmlns="http://www.w3.org/2000/svg" viewBox="0 0 192 192"><path d="M112 50.01V32h-12v-8h8v-8H84v8h8v8H80v18.01C66.041 54.9 56 68.197 56 83.805V176h80V83.806c0-15.608-10.041-28.906-24-33.797zM88 40h16v8.204a36 36 0 0 0-3.806-.204h-8.388c-1.286 0-2.555.071-3.806.204zm40 128H64V83.806C64 68.474 76.474 56 91.806 56h8.388C115.526 56 128 68.474 128 83.806zM92.244 90.395h6.22v30.453h-7.447L79.431 99.713v21.135h-6.22V90.395h7.759l11.274 20.655zm23.638 37.08q-2.205 2.143-7.28 5.283h12.896V138H99.906v-5.2q3.683-2.33 5.273-3.474a46 46 0 0 0 3.464-2.787q5.658-5.077 5.658-10.006 0-2.121-1.144-3.245-.998-.978-2.684-.977-1.726 0-2.808 1.091c-1.082 1.091-1.304 1.897-1.747 3.505l-5.97-1.435q1.268-4.555 4.202-6.594 2.58-1.81 6.615-1.81 5.158 0 7.966 2.912 2.434 2.518 2.434 6.636 0 5.825-5.283 10.859"/></svg>