<svg xmlns="http://www.w3.org/2000/svg" viewBox="0 0 192 192"><path d="M37.547 71.95c.067-.252.297-.478.63-.714.24-.17.976.176 1.3-.017.306-.182.186-.923.547-1.099.372-.182.784-.317 1.253-.317 2.07 0 2.929-1.522 3.964-.488s5.349 1.523 6.383 1.523 4.139 1.034 5.174 0 2.069-2.07 4.138-2.07h5.174c2.07 0 1.034-2.07 3.104-1.034s3.104 1.034 6.208 2.069 6.208 1.035 7.243 2.07 2.07 2.069 4.138 2.069h11.382c3.104 0 2.07 1.034 5.173 0s4.14-2.07 6.208-2.07 3.105-1.034 4.14 0 3.103 3.104 4.138 2.07 3.104-4.14 4.139-2.07 3.104 3.104 1.034 4.139-8.277 3.104-10.346 5.173-3.105 3.105-3.105 5.174 5.174 2.07 7.243 4.139 3.104 4.138 4.139 4.138 2.07-1.034 3.104-2.069 2.07-4.139 2.07-5.173-1.035-3.105 1.034-4.14 2.07-1.034 4.139 0 2.07 1.035 3.104 2.07-1.035 2.07 0 3.104 3.104 0 4.139 0 3.104 0 4.138 2.07 1.035 3.104 2.07 3.104 5.173 1.034 4.138 3.104-1.034 4.138-4.138 4.138-8.278 0-7.243 1.035 6.208 1.035 7.243 2.07c.517.517-1.035 1.293-1.035 2.069s1.552 1.552 1.035 2.07c-1.035 1.034-5.174 2.069-6.208 2.069s-2.07-1.035-3.104 0-6.209 5.173-6.209 6.208 1.035 2.07 0 3.104l-4.138 4.138c-1.034 1.034-3.104 2.07-2.07 3.105s2.07 4.138 2.07 5.173-1.035 2.07-2.07 1.035 1.035-4.14-3.104-5.174c-4.138-1.034-3.104 0-5.173 0s-1.035 0-2.07 1.035-3.104-1.035-5.173 0-3.104 1.035-4.139 4.139 0 6.208 1.035 8.277 1.035 1.035 3.104 1.035 2.714.27 3.47-.982.252-3.051 2.321-3.051 3.156.13 2.895 1.225c-.108.454-.407.37-.547.6-.199.327-.29.995-.896 2.208q-1.552 3.105 0 3.104c1.552-.001 1.982-1.678 4.051-.643s2.157.643 2.157 1.678-1.374 2.99-.774 4.086c.6 1.095 1.391 1.783 1.956 2.4s2.957-.278 1.922.756-3.687 1.626-5.756-.443-1.487-4.73-3.556-4.73-3.104 1.035-5.174 0-1.72-3.46-3.79-3.46-1.407 1.27-4.512.235-8.252-4.018-9.287-5.053.446-1.928.446-3.998-3.26-4.251-4.825-7.485-2.226-5.4-3.26-5.4 1.43 7.571 2.465 9.64 1.035 4.14 0 4.14-6.208-11.382-6.208-14.486 1.035-3.104 0-4.139c-.33-.331-.958-1.153-1.291-2.3-.389-1.337-.494-3.092-1.044-4.67-.453-1.299-2.342-2.254-2.66-3.207-1.035-3.104-2.747-6.373-3.782-7.408-.384-.383-1.07-1.017-.574-1.252.496-.234 1.2-.182 1.409-.965.208-.782-7.494-1.99-8.53-3.025-.582-.583-1.29-3.017-2.842-4.59-1.202-1.22-3.218-1.722-4.121-1.722-1.144 0-2.521-.86-4.132-1.384-1.304-.423-2.76-.626-4.37.028-1.31.53-1.983 1.017-3.078 1.382-1.096.365-.188-1.468-.496-1.539-.367-.084-1.252 1.383-1.59 2.035s-2.13 2.486-4.2 3.52-5.651 1.61-4.617.575 6.6-2.38 5.566-3.414-3.104 0-4.139-2.07-2.07-4.138 0-5.173c.847-.424 1.833-.105 2.538-.324 1.017-.316 1.6-1.134 1.6-1.746 0-1.034-2.365.616-3.4-.419s-.607-2.187.297-2.685c.398-.219 1.01-.469 1.581-.236.722.295 1.017 1.33 1.539.887s-.627-1.303-.652-2.295c-.015-.565-.286-1.75-.86-2.713-.483-.807-1.296-1.417-1.2-1.773m64.777-14.563c1.034 1.034 2.07 1.034 4.138 1.034s1.035 1.035 3.105 2.07 6.208 1.034 7.242 0-2.07-2.07 0-3.104 1.035-1.035 3.104-1.035 2.07-1.035 2.07-2.07 1.034-1.034 3.104 0 5.173-1.034 8.277-3.103 1.035-2.07 1.035-4.14-2.07 0-5.174 0-6.208 0-10.346-1.034-5.174-2.07-6.208-1.034-1.035 3.104-4.14 4.138-3.103 2.07-5.173 4.139c-1.034 1.035-2.069 3.104-1.034 4.139m20.354 80.028c1.267.532 2.384.89 2.947 1.356.406.337.367.81.626 1.07 1.035 1.034 4.043 1.034 4.043 0 0-.574-1.608-.835-3.104-1.487-1.202-.524-2.216-1.442-3.138-1.903-2.07-1.034-5-.514-5 .52 0 .417 2.157-.172 3.626.444m8.346 3.756c-1.017-.261-1.772 1.121.365 1.173 1.205.03 2.2-.214 2.973-.208 1.285.01 1.957.176 1.957-.47 0-.275-.66-.449-1.122-.678-1.272-.63-3.374-1.1-3.902-.827-.24.125.746 1.27-.271 1.01m-16.197-75.728c-.514 0-1.272-1.37-1.644-1.221q-.341.137-.61.338c-1.184.88-1.315 2.565-.883 3.52 1.15 2.537 5.165 3.61 7.228 2.5.864-.41 1.137-1.137 2.091-1.091s1.396 1.03 2.455 1.727 5.046 1.011 5.046 2.046.807 2.83-.228 3.864c-.396.397-1.92.713-2.2 1.11-.45.638-.598 1.276.04 1.914 1.034 1.034 3.103-2.07 6.208-1.035s6.208 3.104 7.242 2.07c.39-.39-.279-1.328.075-1.74.585-.684 2.038-.884 1.5-1.82-.864-1.5-8.217-2.34-7.182-4.409.57-1.14 3.47.638 4.636.682.948.036.383-1.617-.545-2.545-1.033-1.033-5.566-1.275-7.137-2.137-1.578-.865-1.782-2.864-2.818-2.864-.587 0-1.645-.255-2.91-.363-1.333-.114-2.806-.776-4.318-1.046-.528-.094-1.858 1.435-2.319 1.364-.318-.05-.253-1.068-.454-1.637-.214-.605-.688-.76-.91-.772-2.408-.137-2.062 1.545-2.363 1.545m-11.364 5.319c-.054-1.128-3.858-.453-4.893-2.522s-1.88-3.433-3.153-2.842 1.16 2.454-.91 2.454c-.887 0-1.772-1.197-2.818-1.681-1.394-.646-2.994-.572-4.5 0-1.318.5-.487 1.831-.546 3-.058 1.168-.625 1.127-.318 1.773.308.645 3.715 3.125 6.819 2.09 1.545-.514 2.896-.964 3.864-1 .976-.035 1 .773 2.136.682.568-.045 2.046-.181 2.5-.909s1.846-.481 1.819-1.045m0-8.955c-3.702-1.851-6.99.056-5.955 1.09s4.136.33 4.136 1.364c0 .286.814 1.06.819 1.5.004.441-1.218.477-1.091.955.204.773.938 1.037 1.863 1.5.518.259.845.922 1.228 1.137.772.5 1.818.373 1.818-1.955 0-1.155-1.293-1.508-1.727-2.318-.734-1.368.208-2.624-1.091-3.273m-18.91-2.819c-3.105 1.035-6.092 1.91-6.774 2.864s2.816 1.743 4.886.708 4.877-1.719 3.842-2.753-1.955-.819-1.955-.819zm-3.455 5.364c-.597.142-1.24.996-1.91 1.728-.402.438-1.045.496-1.045 1.272 0 2.07.864 3 2.136 2.728 2.263-.485 1.351-2.346 2.386-2.346s3.331-1.165 2.296-2.2-2.909-1.409-3.863-1.182m5.705 1.312s1.713-1.782 3.113-2.54 2.955.137 2.955.137 2.2.44 2.5-.272-1.136-.955-2.136-1.273-1.455.318-2.637.045-2.147-.989-3.182.046-1.636 1.863-1.647 2.822 1.034 1.035 1.034 1.035m24.34-1.857c.481-.916-2.333.233-2.795.868s-.607.908.434 1.397 1.88-1.35 2.36-2.265zm15.369 78.25c.626.079 1.434-.052 1.539-.365s-1.122-.417-1.122-.417-1.686-.5-1.826.13c-.104.47.783.574 1.409.653zM176 96c0-44.112-35.888-80-80-80S16 51.888 16 96s35.888 80 80 80 80-35.888 80-80m-8 0c0 39.701-32.299 72-72 72s-72-32.299-72-72 32.299-72 72-72 72 32.299 72 72"/></svg>