<svg xmlns="http://www.w3.org/2000/svg" viewBox="0 0 192 192"><path d="M96 16c-44.112 0-80 35.888-80 80s35.888 80 80 80 80-35.888 80-80-35.888-80-80-80m0 152c-39.701 0-72-32.299-72-72s32.299-72 72-72 72 32.299 72 72-32.299 72-72 72m45.399-54.255c1.525 1.715 2.001 2.764 1.811 4.956-.095 2.097-2.573 5.718-2.573 5.718s-1.239 2.097-2.954 3.05-1.715 1.43-2.859 1.906c-1.144.381-2.287.858-2.859 1.906-.667 1.048-6.576 7.624-7.148 8.672s-2.859 1.43-3.907 1.906c-1.048.477-2.764 2.001-3.526 4.098s-.858 4.289.095 5.432c0 0 1.048.095.953 1.715-.095 1.525-3.812 1.239-5.909 0s-2.097-1.811-2.859-5.623c-.381-1.811-.381-6.29.286-10.769.762-4.956 2.192-8.482 2.478-11.722.286-3.145-2.954-3.431-2.954-3.431s-2.001-1.239-2.383-4.003c-.381-2.764-1.525-2.287-2.478-3.431-1.048-1.144-2.478-4.003-1.239-5.528.477-.572.572-1.62 1.239-2.097 1.144-.953 2.192-.953 2.287-2.001s-.286-2.764.858-3.717c.185-.185.447-.604.688-.983-.779.493-2.15.638-3.307-.436-1.334-1.334-.953-2.954-2.287-2.954s-1.906.667-3.24 0-1.144-2.192-2.383-2.192-.858.858-2.859.191-5.242-2.478-5.909-3.145.286-1.239.286-2.573-2.097-2.668-3.145-4.67-1.43-3.431-2.097-3.336.953 4.765 1.62 6.099.667 2.573 0 2.573-4.003-7.148-4.003-9.054.667-2.001 0-2.573c-.191-.191-.572-.762-.858-1.43-.286-.858-.381-1.906-.667-2.954-.286-.858-1.525-1.43-1.715-2.001-.667-1.906-1.811-4.003-2.478-4.67-.286-.286-.667-.667-.381-.762.286-.191.762-.095.858-.667.095-.477-4.765-1.239-5.432-1.811-.381-.381-.858-1.906-1.811-2.859-.762-.762-2.001-1.048-2.573-1.048s-1.62-.477-2.668-.858c-.858-.286-1.715-.381-2.764 0-.858.381-1.239.667-1.906.858-.667.286-.095-.953-.286-.953s-.762.858-.953 1.334-1.334 1.62-2.668 2.287-3.526 1.048-2.954.381 4.193-1.525 3.526-2.192-2.001 0-2.668-1.239-1.334-2.573 0-3.24c.572-.286 1.144 0 1.62-.191.667-.191.953-.762.953-1.144 0-.667-1.525.381-2.192-.191s-.381-1.334.191-1.715c.286-.095.667-.286.953-.191.477.191.667.858.953.572s-.381-.858-.477-1.43c0-.381-.191-1.144-.572-1.715-.286-.477-.858-.858-.762-1.144l.667-.286c0-.191.191-.286.381-.477.191-.095.572.095.858 0 .191-.095.095-.572.381-.667.191-.095.477-.191.762-.191 1.334 0 1.811-.953 2.478-.381s3.431.953 4.003.953 2.668.572 3.24 0 1.334-1.334 2.573-1.334h3.24c1.334 0 .667-1.334 1.906-.762s2.001.667 3.907 1.239 3.907.572 4.574 1.239 1.334 1.334 2.668 1.239h7.148c2.001-.095 1.334.572 3.24-.191s2.573-1.334 3.907-1.334 1.906-.667 2.573 0 2.001 1.906 2.668 1.239 1.906-2.668 2.573-1.334 2.001 1.906.667 2.573-5.242 2.001-6.481 3.336-1.906 2.001-1.906 3.336 3.24 1.239 4.574 2.573 2.001 2.573 2.668 2.573 1.334-.667 1.906-1.334 1.239-2.668 1.239-3.24-.667-1.906.572-2.668q1.334-.667 2.573 0 1.239.668 2.001 1.239c.667.667-.667 1.334 0 2.001s2.001 0 2.573 0 2.001 0 2.668 1.239.667 1.906 1.334 1.906 3.24.572 2.668 1.906-.572 2.668-2.573 2.668-5.242 0-4.575.762 3.907.572 4.575 1.239c.286.286-.667.858-.667 1.334s.953.953.667 1.334c-.667.667-3.24 1.334-3.907 1.334s-1.334-.667-2.001 0-3.907 3.336-3.907 4.003.667 1.334 0 2.001l-2.573 2.668c-.667.667-1.906 1.334-1.239 2.001s1.334 2.573 1.334 3.24-.667 1.334-1.334.667.572-2.668-2.001-3.24c-2.668-.572-2.001 0-3.24 0s-.667 0-1.334.667-2.001-.667-3.24 0c-1.334.667-1.906.667-2.573 2.668s0 3.907.762 5.242.667.667 2.001.667 1.715.191 2.192-.667c.477-.762.095-1.906 1.43-1.906s2.001 0 1.811.762c0 .286-.286.191-.381.381s-.191.667-.572 1.43q-1 2.001 0 2.001c1 0 1.239-1.048 2.573-.477s1.334.381 1.334 1.048-.858 1.906-.477 2.573.858 1.144 1.239 1.525c.327.327 1.485-.042 1.391.265.662-.752 1.228-.942 1.228-.942s1.239-1.525 3.907-1.334c2.764.191 3.717 1.334 3.717 1.334l2.668.191c1.144 0 2.668 1.239 3.145 1.811s-.095.572.953 1.144 2.764-.381 4.765 1.43 1.43 2.287 1.906 3.431 2.001 1.811 2.001 1.811 6.671 3.812 8.196 5.528Z"/></svg>