<svg xmlns="http://www.w3.org/2000/svg" viewBox="0 0 192 192"><path d="m113.448 176.107-5.012-6.234c.061-.05 6.14-5.095 6.14-12.144 0-4.994-1.856-8.088-4.006-11.67-2.412-4.021-5.147-8.578-5.147-15.788 0-10.687 6.977-17.786 7.274-18.084l5.657 5.658c-.034.034-4.93 5.132-4.93 12.426 0 4.994 1.856 8.088 4.006 11.67 2.412 4.021 5.147 8.578 5.147 15.788 0 10.95-8.756 18.08-9.129 18.378m-8.872-18.378c0-7.21-2.734-11.767-5.146-15.787-2.15-3.583-4.006-6.677-4.006-11.671 0-7.294 4.897-12.392 4.93-12.427l-5.657-5.656c-.297.297-7.273 7.396-7.273 18.083 0 7.21 2.734 11.767 5.146 15.787 2.15 3.583 4.006 6.677 4.006 11.671 0 7.049-6.08 12.093-6.14 12.144l5.012 6.234c.373-.298 9.128-7.429 9.128-18.378m-18 0c0-7.21-2.734-11.767-5.146-15.787-2.15-3.583-4.007-6.677-4.007-11.671 0-7.294 4.897-12.392 4.931-12.426l-5.657-5.658c-.297.298-7.274 7.397-7.274 18.084 0 7.21 2.735 11.767 5.147 15.787 2.15 3.583 4.007 6.677 4.007 11.671 0 7.049-6.08 12.093-6.141 12.144l5.012 6.234c.373-.298 9.129-7.429 9.129-18.378zM120 71.596v8c4.412 0 8 3.675 8 8.192 0 2.908-.53 4.752-1.72 5.979-2.653 2.732-5.582 3.48-12.71-.789-9.819-5.88-20.639-5.692-32.158.556-6.583 3.57-10.605 3.27-14.838-1.109-1.68-1.738-2.473-4.199-2.571-7.98-.08-3.118 1.586-6.257 5.406-10.176l.23-.237c8.381-8.6 19.652-20.173 45.313-58.034h-9.681C82.17 49.701 71.744 60.41 63.91 68.448l-.232.238c-3.667 3.763-7.854 8.979-7.673 15.967.095 3.683.698 9.073 4.817 13.333 3.892 4.025 8.077 6.026 12.768 6.026 3.557 0 7.406-1.152 11.635-3.446 8.983-4.872 16.91-5.109 24.233-.725 3.82 2.287 13.962 8.361 22.562-.504 2.678-2.76 3.98-6.538 3.98-11.549 0-8.929-7.178-16.192-16.001-16.192z"/></svg>