<svg xmlns="http://www.w3.org/2000/svg" viewBox="0 0 192 192"><path d="M159.999 117.5c0 5.805-1.518 10.16-4.64 13.316-10 10.108-21.932 3.103-26.423.466-9.262-5.438-19.258-5.16-30.559.85-4.994 2.656-9.533 3.99-13.727 3.99-5.507 0-10.419-2.3-14.978-6.924-4.843-4.91-5.553-11.183-5.666-15.474-.214-8.1 4.78-14.19 9.154-18.593l.28-.282c10.762-10.829 25.5-25.66 61.648-78.959l6.621 4.49C105.142 74.3 90.1 89.436 79.115 100.488l-.28.283c-4.83 4.859-6.937 8.789-6.832 12.742.124 4.73 1.163 7.834 3.365 10.068 6.317 6.406 12.05 5.318 19.253 1.487 13.764-7.32 26.671-7.551 38.365-.685 9.209 5.408 13.213 4.318 16.686.806 1.61-1.627 2.327-3.998 2.327-7.689 0-5.651-5.831-10.995-11.999-10.995v-8c10.654 0 19.999 8.876 19.999 18.995M112 136a4 4 0 1 0 0 8 4 4 0 0 0 0-8m-76 32a4 4 0 1 0 0 8 4 4 0 0 0 0-8m61.265-19.944a5 5 0 1 0 1.47 9.891 5 5 0 0 0-1.47-9.891M82 144a4 4 0 1 0 0 8 4 4 0 0 0 0-8m8 20a4 4 0 1 0 0 8 4 4 0 0 0 0-8m-20-7a6 6 0 1 0 0 12 6 6 0 0 0 0-12m-20 3a4 4 0 1 0 0 8 4 4 0 0 0 0-8m76.219-80.375a4 4 0 1 0-6.438 4.75 4 4 0 0 0 6.438-4.75m-8.747 16.832a5 5 0 1 0 7.056 7.086 5 5 0 0 0-7.056-7.086m-15.847 6.324a4 4 0 1 0 4.75 6.438 4 4 0 0 0-4.75-6.438M130 70a4 4 0 1 0 8 0 4 4 0 0 0-8 0"/></svg>