<svg xmlns="http://www.w3.org/2000/svg" viewBox="0 0 192 192"><path d="m109.603 160.43 6.794 4.221C111.982 171.758 104.357 176 96 176c-11.87 0-21.75-8.664-23.66-20H20l28-37.334V64c0-26.467 21.532-48 48-48s48 21.533 48 48v40c-2.739 0-5.414.278-8 .805V64c0-22.056-17.944-40-40-40S56 41.944 56 64v57.334L36 148h68.2a39.7 39.7 0 0 0 1.641 8H80.527c1.783 6.89 8.034 12 15.473 12 5.572 0 10.657-2.83 13.603-7.57M176 144c0 17.65-14.36 32-32 32s-32-14.35-32-32 14.36-32 32-32 32 14.35 32 32m-8 0c0-13.23-10.77-24-24-24s-24 10.77-24 24 10.77 24 24 24 24-10.77 24-24m-11.29-2.73v.01a12.9 12.9 0 0 1 0 5.44v.01l3.15 1.81-4 6.92-3.15-1.82a12.7 12.7 0 0 1-4.71 2.72V160h-8v-3.64c-1.77-.56-3.37-1.5-4.71-2.72l-3.15 1.82-4-6.92 3.15-1.81v-.01a12.9 12.9 0 0 1 0-5.44v-.01l-3.15-1.81 4-6.92 3.15 1.82c1.34-1.22 2.94-2.16 4.71-2.72V128h8v3.64c1.77.56 3.37 1.5 4.71 2.72l3.15-1.82 4 6.92zM149 144c0-2.76-2.24-5-5-5s-5 2.24-5 5 2.24 5 5 5 5-2.24 5-5"/></svg>