<svg xmlns="http://www.w3.org/2000/svg" viewBox="0 0 192 192"><path d="M132 96h-8v29.33L144 152H32.92L52 125.28V69.94c0-18.75 16.15-34 36-34 6.16 0 11.96 1.47 17.04 4.06h13.78C110.88 32.54 99.99 27.94 88 27.94c-24.26 0-44 18.84-44 42v52.78L17.37 160h55.353c2.335 9.213 10.09 16 19.278 16s16.943-6.787 19.278-16h48.722l-28-37.33V96Zm-40 72c-4.815 0-8.966-3.284-10.876-8h21.752c-1.91 4.716-6.061 8-10.876 8m84.47-124.777v7.715h-27.276v-8.103l15.892-19.11h-15.2v-7.726h26.091v8.166l-15.493 19.057zM115.48 48h22.73v9.34l-6.48 7.97-7.73 9.51-3.53 4.34h18.29V88h-31.21v-9.28l15.06-18.13 3.12-3.75h-17.4V48z"/></svg>