<svg xmlns="http://www.w3.org/2000/svg" viewBox="0 0 192 192"><path d="M99.709 75.05c-16.787 0-29.649 6.976-38.587 20.71.872-19.402 2.834-29.43 7.63-40.548 6.758-16.132 16.786-23.98 30.52-23.98 13.517 0 21.146 6.322 27.905 23.108l17.004-4.797c-8.066-22.454-22.454-33.354-44.036-33.354-35.97 0-57.335 32.047-57.335 85.893 0 23.108 3.488 38.369 11.118 50.14 10.246 15.479 25.942 23.763 44.69 23.763 30.739 0 51.231-20.274 51.231-51.23 0-28.995-20.71-49.705-50.14-49.705m-1.745 85.893c-20.274 0-34.88-15.042-34.88-36.189 0-20.71 13.734-34.662 34.663-34.662 20.056 0 32.918 13.734 32.918 35.098 0 21.582-12.862 35.753-32.7 35.753z"/></svg>