<svg xmlns="http://www.w3.org/2000/svg" viewBox="0 0 192 192"><path d="M107.019 72.342q-23.653 0-35.641 18.793c2.16-31.969 12.744-48.385 31.32-48.385 10.153 0 15.769 3.888 23.113 16.416l23.76-15.336c-10.584-18.792-25.488-27.648-46.656-27.648-39.097 0-64.37 32.616-64.37 83.16 0 24.625 5.184 42.553 16.2 55.73 11.017 13.392 26.353 20.304 44.497 20.304 33.265 0 55.513-21.384 55.513-53.137 0-29.593-19.44-49.897-47.736-49.897m-8.64 77.114c-14.257 0-23.977-10.584-23.977-25.92 0-16.201 9.504-26.785 23.976-26.785 14.257 0 23.976 10.584 23.976 26.352s-9.72 26.353-23.976 26.353z"/></svg>