<svg xmlns="http://www.w3.org/2000/svg" viewBox="0 0 192 192"><path d="M153.999 128.72c0 28.512-22.465 46.656-58.321 46.656-18.793 0-34.345-4.968-45.577-14.472-8.64-7.344-13.176-15.337-16.2-28.512l30.024-7.56c4.752 16.631 14.04 23.976 30.24 23.976 15.77 0 25.057-8.208 25.057-21.817 0-13.176-9.072-20.736-25.056-20.736h-14.04V81.847h13.176c14.472 0 23.112-7.345 23.112-19.657 0-12.096-7.776-19.44-20.304-19.44-13.393 0-22.033 6.696-28.08 21.6l-27.65-7.776c8.641-26.784 27.865-40.392 57.026-40.392 31.536 0 52.704 17.28 52.704 42.984 0 15.12-7.992 25.705-24.624 32.617C144.71 98.263 154 110.359 154 128.719z"/></svg>