<svg xmlns="http://www.w3.org/2000/svg" viewBox="0 0 192 192"><path d="M148.649 130.64c0 27.687-20.928 45.345-53.41 45.345-16.133 0-30.303-4.796-40.55-13.734-8.937-7.63-13.297-15.479-15.913-28.995l17.004-3.706c5.232 21.147 18.312 31.393 39.894 31.393 21.8 0 33.79-10.464 33.79-29.866 0-19.839-12.861-30.957-35.534-30.957H78.234V84.642h14.824c20.275 0 31.829-9.81 31.829-26.814 0-16.35-10.9-26.597-28.34-26.597-17.441 0-27.905 8.066-34.445 27.033l-15.26-3.924c3.488-12.645 8.284-20.492 17.222-27.468S84.338 16.189 97.2 16.189c27.032 0 46.435 17.223 46.435 41.42 0 15.697-7.63 26.379-24.852 33.79 10.682 3.27 16.568 6.977 21.8 13.735s8.066 15.697 8.066 25.507z"/></svg>