<svg xmlns="http://www.w3.org/2000/svg" viewBox="0 0 192 192"><path d="M93.301 16.182c-32.832 0-55.297 21.6-55.297 53.568 0 27.433 18.793 46.225 46.441 46.225 15.12 0 27-6.48 34.56-18.792-1.08 36.288-10.367 51.625-30.888 51.625-12.096 0-18.576-4.752-24.192-17.065l-26.569 13.609c4.537 8.424 7.777 12.96 13.177 17.28 9.936 8.424 23.112 12.744 38.448 12.744 40.393 0 63.29-29.809 63.29-82.73 0-49.248-20.953-76.464-58.97-76.464m.217 75.385c-13.393 0-23.113-10.368-23.113-24.409 0-14.688 9.504-25.056 23.113-25.056 13.175 0 22.896 10.368 22.896 24.625 0 14.472-9.504 24.84-22.896 24.84"/></svg>