<svg xmlns="http://www.w3.org/2000/svg" viewBox="0 0 192 192"><path d="M129.374 91.135c13.608-7.777 19.873-17.713 19.873-31.969 0-25.056-22.033-42.984-53.137-42.984-31.32 0-53.353 17.928-53.353 42.984 0 14.256 6.264 24.192 20.088 31.969-18.36 7.992-27 20.304-27 38.016 0 28.08 23.76 46.225 60.265 46.225 36.288 0 60.049-18.144 60.049-46.225 0-17.712-8.64-30.024-26.785-38.016M96.11 40.59c12.528 0 21.384 8.424 21.384 20.304s-8.856 20.305-21.384 20.305c-12.745 0-21.6-8.425-21.6-20.089 0-12.312 8.64-20.52 21.6-20.52m0 109.298c-15.552 0-25.92-9.288-25.92-23.329 0-14.904 9.935-24.192 25.92-24.192 15.552 0 25.704 9.504 25.704 23.76 0 14.473-10.152 23.76-25.704 23.76z"/></svg>