<svg xmlns="http://www.w3.org/2000/svg" viewBox="0 0 192 192"><path d="M36 80a4 4 0 1 1 8 0 4 4 0 0 1-8 0m20 4a4 4 0 1 0 0-8 4 4 0 0 0 0 8m16 0a4 4 0 1 0 0-8 4 4 0 0 0 0 8m16 0a4 4 0 1 0 0-8 4 4 0 0 0 0 8m16 0a4 4 0 1 0 0-8 4 4 0 0 0 0 8m16 0a4 4 0 1 0 0-8 4 4 0 0 0 0 8m16 0a4 4 0 1 0 0-8 4 4 0 0 0 0 8m16-8a4 4 0 1 0 0 8 4 4 0 0 0 0-8M40 108a4 4 0 1 0 0 8 4 4 0 0 0 0-8m16 0a4 4 0 1 0 0 8 4 4 0 0 0 0-8m16 0a4 4 0 1 0 0 8 4 4 0 0 0 0-8m16 0a4 4 0 1 0 0 8 4 4 0 0 0 0-8m16 0a4 4 0 1 0 0 8 4 4 0 0 0 0-8m16 0a4 4 0 1 0 0 8 4 4 0 0 0 0-8m16 0a4 4 0 1 0 0 8 4 4 0 0 0 0-8m16-16H40a4 4 0 1 0 0 8h112a4 4 0 1 0 0-8m0 16a4 4 0 1 0 0 8 4 4 0 0 0 0-8m23.675-24.424-4.742 35.154c-1.406 7.567-7.973 13.059-15.616 13.059l-31.333.056c.002.052.016.102.016.155a4 4 0 0 1-4 4H72a4 4 0 0 1-4-4c0-.019.005-.036.006-.055L37.007 132c-7.65 0-14.217-5.492-15.622-13.059l-.028-.164-5.03-35.184a20.04 20.04 0 0 1 4.312-16.437C24.419 62.608 29.965 60 35.854 60h120.292c5.89 0 11.435 2.608 15.215 7.156a20.04 20.04 0 0 1 4.314 16.42M165.21 72.271A11.76 11.76 0 0 0 156.146 68H35.854a11.76 11.76 0 0 0-9.064 4.27 12.07 12.07 0 0 0-2.581 9.948l.027.165 5.028 35.172C29.994 121.294 33.235 124 37 124l118.31-.211c3.767 0 7.005-2.7 7.74-6.432l4.741-35.139c.66-3.554-.28-7.18-2.581-9.947"/></svg>