<svg xmlns="http://www.w3.org/2000/svg" viewBox="0 0 192 192"><path d="M80.07 29.64 52 41.33v34.76l8-3.63V50.212l80 36.364v46.374l-16-7.11v8.76l22.02 9.79L172 132.58V71.42zm-.14 8.72 78.05 35.48h.002l-13.913 5.798L66.02 44.16h.001zM148 134.69V86.667L164 80v47.42zM68 77.61l-8 3.64-8 3.63-32 14.54v41.16l48 21.81 48-21.81V99.42zM52 93.67l8-3.64 8-3.64L102.33 102l-6 2.73-3.66 1.67h-.01l-6.14 2.79-9.74 4.43-6.66 3.03-2.12.96-24.66-11.21h-.01l-9.66-4.4zm-24 14.54 8 3.64 28 12.72v27.22l-36-16.37zm80 27.21-36 16.37v-27.22l6.12-2.78 8.43-3.83 9.75-4.43 3.34-1.52.36-.16 8-3.64z"/></svg>