<svg xmlns="http://www.w3.org/2000/svg" viewBox="0 0 192 192"><path d="M168 68V44h-25.21l-34.28 22.853L101.657 60H72v-8h8v-8H56v8h8v8H48V48H16v24h24v32h69.428l44-36zM24 64v-8h16v8zm82.572 32H48V68h50.343l9.147 9.147L145.21 52H160v8h-9.428zm37.002 72v8C126.164 176 112 161.645 112 144c0-9.338 3.98-18.006 10.703-24h-10.358v-8H136v23.655h-8v-9.664c-5.025 4.497-8 11-8 18.009 0 13.233 10.575 24 23.574 24m21.385 0H175v8h-23v-23h8v8.7a23.94 23.94 0 0 0 8-17.888c0-13.13-10.54-23.812-23.493-23.812v-8C161.872 112 176 126.27 176 143.812c0 9.418-4.115 18.212-11.041 24.188"/></svg>