<svg xmlns="http://www.w3.org/2000/svg" viewBox="0 0 192 192"><path d="M168 124v-24h-25.21l-34.28 22.853-6.853-6.853H72v-8h8v-8H56v8h8v8H48v-12H16v24h24v32h69.428l44-36zm-144-4v-8h16v8zm82.572 32H48v-28h50.343l9.147 9.147L145.21 108H160v8h-9.428zm58.117-18.961L162 130.597l-2.689 2.442C158.153 134.09 148 143.615 148 154.162c0 7.63 6.28 13.838 14 13.838s14-6.208 14-13.838c0-10.547-10.153-20.072-11.311-21.123M162 160c-3.309 0-6-2.619-6-5.838 0-4.3 3.272-9.166 6-12.369 2.729 3.205 6 8.07 6 12.37 0 3.218-2.691 5.837-6 5.837M72 32v56h104V32zm40 8h8v40h-8zm-8 40h-8V40h8zm24-40h8v40h-8zm16 0h8v40h-8zm-64 0h8v40h-8zm88 40h-8V40h8z"/></svg>