<svg xmlns="http://www.w3.org/2000/svg" viewBox="0 0 192 192"><path d="M112 60v-8H16.004v8h7.994v24H16v8h7.998v44h-8.102v8h8.102v24h-7.994v8H112v-8h-8v-24h8v-8h-8V92h8v-8h-8V60zm-80.002 0H96v24H31.998zM96 168H31.998v-24H96zm-64.002-32V92H96v44zm41.256-17.127c0 5.041-4.086 9.127-9.127 9.127S55 123.914 55 118.873c0-4.397 3.129-8.793 5.324-12.17 2.362-3.633 3.803-6.085 3.803-6.085s1.441 2.452 3.803 6.085c2.195 3.376 5.324 7.773 5.324 12.17m95.917-80.046L164 33.655v22.343h-8V33.655l-5.171 5.172-5.657-5.657 14.829-14.828L174.83 33.17l-5.657 5.657Zm-23.998 18.345 5.657 5.657-14.829 14.828-14.829-14.828 5.657-5.657L132 62.344V40.001h8v22.343l5.171-5.172Z"/></svg>