<svg xmlns="http://www.w3.org/2000/svg" viewBox="0 0 192 192"><path d="M152 120c-2.8 0-5.3 1-7.4 2.6l-30.1-19.1c.9-2.3 1.4-4.8 1.4-7.4s-.5-5.1-1.4-7.4l30.1-19.1c2 1.6 4.6 2.6 7.4 2.6 6.6 0 12-5.4 12-12s-5.4-12-12-12-12 5.4-12 12q0 1.35.3 2.7l-30.2 19.2c-2.7-2.7-6.2-4.7-10.2-5.5V39.3c4.7-1.7 8-6.1 8-11.3 0-6.6-5.4-12-12-12s-12 5.4-12 12c0 5.2 3.3 9.6 8 11.3v37.1c-3.9.8-7.4 2.8-10.2 5.5l-30-19.2q.3-1.35.3-2.7c0-6.6-5.4-12-12-12s-12 5.4-12 12 5.4 12 12 12c2.8 0 5.3-1 7.4-2.6l30.1 19.1Q76 92.1 76 96c0 3.9.5 5.1 1.4 7.4l-30.1 19.1c-2-1.6-4.6-2.6-7.4-2.6-6.6 0-12 5.4-12 12s5.4 12 12 12 12-5.4 12-12q0-1.35-.3-2.7L81.8 110c2.7 2.7 6.2 4.7 10.2 5.5v37.1c-4.7 1.7-8 6.1-8 11.3 0 6.6 5.4 12 12 12s12-5.4 12-12c0-5.2-3.3-9.6-8-11.3v-37.1c3.9-.8 7.4-2.8 10.2-5.5l30.2 19.2q-.3 1.35-.3 2.7c0 6.6 5.4 12 12 12s12-5.4 12-12S158.6 120 152 120m0-64c2.2 0 4 1.8 4 4s-1.8 4-4 4-4-1.8-4-4 1.8-4 4-4M40 64c-2.2 0-4-1.8-4-4s1.8-4 4-4 4 1.8 4 4-1.8 4-4 4m0 72c-2.2 0-4-1.8-4-4s1.8-4 4-4 4 1.8 4 4-1.8 4-4 4M96 24c2.2 0 4 1.8 4 4s-1.8 4-4 4-4-1.8-4-4 1.8-4 4-4m0 144c-2.2 0-4-1.8-4-4s1.8-4 4-4 4 1.8 4 4-1.8 4-4 4m0-60c-6.6 0-12-5.4-12-12s5.4-12 12-12 12 5.4 12 12-5.4 12-12 12m56 28c-2.2 0-4-1.8-4-4s1.8-4 4-4 4 1.8 4 4-1.8 4-4 4"/></svg>