<svg xmlns="http://www.w3.org/2000/svg" viewBox="0 0 192 192"><path fill="#020204" d="m104.217 147.077 1.568 7.845c-.22.044-5.439 1.078-9.785 1.078s-9.564-1.034-9.785-1.078l1.568-7.845c.046.01 4.673.923 8.217.923s8.17-.914 8.217-.923M136 66.343l10.829 10.828-5.658 5.658L136 77.657V155c0 13.15-7.737 21-20.696 21H76.696C63.736 176 56 168.15 56 155V77.657l-5.171 5.172-5.658-5.658L56 66.343V34c0-11.103 6.142-18 16.029-18h47.942C129.858 16 136 22.897 136 34zM64 77.842v30.155l7.91-5.814c-.593-6.767-4.224-15.887-7.47-23.336l-.165-.38zm58.592-7.944c-.33-.189-.699-.376-1.027-.516l-.316-.15C121.149 69.178 111.152 64 96 64s-25.15 5.18-25.249 5.231l-.327.156c-.322.137-.687.323-1.016.51 1.053 2.847 3.7 8.821 5.985 13.62.37.78 1.69.43 1.951.351l.352-.118.312-.033c.486-.068 11.97-1.667 17.992-1.667s17.506 1.599 17.992 1.667l.368.052.352.118c.205.06 1.525.41 1.895-.37a294 294 0 0 0 2.932-6.366c.38-.88.758-1.748 1.13-2.59l.238-.53c.708-1.652 1.302-3.1 1.685-4.133M64 135.218c2.527-6.533 5.437-14.944 6.955-22.405L64 117.926zm10.416-5.216c1.267-.165 2.414-.108 3.274.057C78.83 130.23 90.73 132 96 132c9.41 0 18.048-1.886 18.134-1.905.92-.195 2.186-.27 3.585-.073C114.676 121.142 112 111.271 112 104c0-3.658.815-7.809 2.05-12.064a11.5 11.5 0 0 1-1.494-.341c-1.903-.26-11.616-1.545-16.556-1.545s-14.653 1.286-16.556 1.545c-.514.154-1.013.256-1.504.334 1.254 4.275 2.062 8.403 2.062 12.071 0 7.494-2.647 17.355-5.585 26.002zM128 134.856v-16.69l-6.874-5.203c1.512 7.114 4.306 15.23 6.874 21.893m0-26.723v-30.3a203 203 0 0 1-1.51 3.41c-2.831 6.658-5.852 14.752-6.395 20.908zM64 56v3.044c.39.775 1.024 2.047 1.818 3.683.475-.253.935-.47 1.35-.65C68.741 61.276 79.695 56 96 56s27.259 5.275 28.832 6.078c.414.178.873.395 1.347.647A311 311 0 0 1 128 59.044V34c0-6.623-2.692-9.986-8-9.999V32h-8a8 8 0 0 1-8-8H88a8 8 0 0 1-8 8h-8v-7.999c-5.308.013-8 3.376-8 9.999zm63.988 99.364c-.72-2.176-5.605-11.295-9.148-16.068-1.13-1.522-2.673-1.42-3.065-1.37l.093-.021-.099.021-.033.005-.045.012C114.317 138.237 105.666 140 96 140c-6.115 0-19.055-1.962-19.603-2.046l-.224-.04c-.224-.032-1.841-.198-3.013 1.382-3.543 4.773-8.427 13.892-9.148 16.068.122 8.38 4.382 12.636 12.684 12.636h38.608c8.302 0 12.562-4.257 12.684-12.636M32 52h8V16h-8zm120 0h8V16h-8zm16-36v12h8V16zm0 44h8V36h-8zm0 32h8V68h-8zm0 32h8v-24h-8zm0 32h8v-24h-8zm0 20h8v-12h-8zM16 28h8V16h-8zm0 32h8V36h-8zm0 32h8V68h-8zm0 32h8v-24h-8zm0 32h8v-24h-8zm0 20h8v-12h-8z"/></svg>