<svg xmlns="http://www.w3.org/2000/svg" viewBox="0 0 192 192"><path fill="#020204" d="M32 16h8v36h-8zm120 36h8V16h-8zm-16 14.343 10.829 10.828-5.658 5.658L136 77.657V155c0 13.15-7.737 21-20.696 21H76.696C63.736 176 56 168.15 56 155V77.657l-5.171 5.172-5.658-5.658L56 66.343V34c0-11.103 6.142-18 16.029-18h47.942C129.858 16 136 22.897 136 34zm-72 78.114c1.265-1.184 2.475-2.235 3.498-3.028 1.438-1.115 3.023-1.736 4.502-2.072v-48.39c-1.745-.95-3.07-2.415-3.83-4.011-1.808-3.798-3.159-6.777-4.17-9.123zm49.992-60.74.368.052.352.118c.205.06 1.525.41 1.895-.37 2.284-4.799 4.932-10.773 5.985-13.619-.33-.189-.699-.376-1.027-.516l-.316-.15C121.149 69.178 111.152 64 96 64s-25.15 5.18-25.249 5.231l-.327.156c-.322.137-.687.323-1.016.51 1.053 2.847 3.7 8.821 5.985 13.62.37.78 1.69.43 1.951.351l.352-.118.312-.033c.486-.068 11.97-1.667 17.992-1.667s17.506 1.599 17.992 1.667M96 90.05c-4.576 0-13.233 1.102-16 1.47v47.784c4.226.258 11.976.696 16 .696s11.774-.438 16-.696V91.52c-2.767-.368-11.424-1.47-16-1.47m31.968 65.954c-1.376-1.75-5.479-6.013-8.367-8.253-1.121-.87-3.139-.79-3.757-.696l-.387.046c-.55.036-13.51.899-19.457.899s-18.908-.863-19.457-.9l-.424-.05c-.583-.093-2.598-.168-3.72.701-2.888 2.24-6.99 6.502-8.367 8.253C64.36 163.958 68.609 168 76.696 168h38.608c8.087 0 12.336-4.042 12.664-11.996m.032-78.17c-1.011 2.345-2.362 5.324-4.17 9.122-.758 1.594-2.089 3.048-3.83 4v48.401c1.48.336 3.064.957 4.502 2.072 1.023.793 2.233 1.844 3.498 3.028V77.833zM128 34c0-6.623-2.692-9.986-8-9.999V32h-8a8 8 0 0 1-8-8H88a8 8 0 0 1-8 8h-8v-7.999c-5.308.013-8 3.376-8 9.999v29.873c1.063-.794 2.226-1.39 3.168-1.795C68.741 61.275 79.695 56 96 56s27.259 5.275 28.832 6.078c.942.405 2.105 1 3.168 1.795zm40-18v12h8V16zm0 44h8V36h-8zm0 32h8V68h-8zm0 32h8v-24h-8zm0 32h8v-24h-8zm0 20h8v-12h-8zM16 28h8V16h-8zm0 32h8V36h-8zm0 32h8V68h-8zm0 32h8v-24h-8zm0 32h8v-24h-8zm0 20h8v-12h-8z"/></svg>