<svg xmlns="http://www.w3.org/2000/svg" viewBox="0 0 192 192"><path fill="#020204" d="M64 120h64v8H64zm0 24h64v-8H64zm0 16h64v-8H64zm0 16h64v-8H64zm84-100v4h-12v24h8v72h-8v-64H56v64h-8v-72h8V80H44v-4a8 8 0 0 1 8-8h4v-5.07C56 54.697 62.697 48 70.93 48h50.14c8.233 0 14.93 6.697 14.93 14.93V68h4a8 8 0 0 1 8 8M64.063 62.047 77.333 72h37.334l13.27-9.953c-.435-3.405-3.345-6.047-6.867-6.047H120v4h-11a5 5 0 0 1-4.9-4H87.9a5 5 0 0 1-4.9 4H72v-4h-1.07c-3.522 0-6.432 2.642-6.867 6.047M80 80v8h32v-8zM64 96l8-6V78l-8-6zm61.064 8-11.334-8H77.333l-10.666 8zM128 72l-8 6v12.633l8 5.647zM32 52h8V16h-8zm120 0h8V16h-8zm16-36v12h8V16zm0 44h8V36h-8zm0 32h8V68h-8zm0 32h8v-24h-8zm0 32h8v-24h-8zm0 20h8v-12h-8zM16 28h8V16h-8zm0 32h8V36h-8zm0 32h8V68h-8zm0 32h8v-24h-8zm0 32h8v-24h-8zm0 20h8v-12h-8z"/></svg>