<svg xmlns="http://www.w3.org/2000/svg" viewBox="0 0 192 192"><path d="M176 160.001h-55.998V152H100v-28h-8v28H72v8.001H15.996v8H72V176h48.002v-7.999H176zM112.002 168H80v-8h32.002zM152 88h-.022l-21.216-56-69.523.001L40.002 88H40v35.999h112zM66.761 40.001 125.238 40l15.155 40.001H51.592l15.17-40zM144 116H48V96h96v19.999zM76.613 50.5c-5.564 0-9.526 4.18-9.526 10.04 0 5.89 3.827 9.96 9.363 9.96 5.59 0 9.47-4.125 9.47-10.068 0-5.78-3.88-9.932-9.307-9.932M76.53 67c-3.066 0-4.912-2.443-4.912-6.514 0-4.016 1.819-6.485 4.804-6.485 3.12 0 4.966 2.415 4.966 6.54 0 4.07-1.791 6.458-4.858 6.458zm21.601-16.201h-8.249V70.2h4.342v-7.11h4.098c4.26 0 6.784-2.224 6.784-5.997 0-3.961-2.578-6.295-6.975-6.295zm-.27 9.063h-3.637v-5.617h3.664c1.98 0 2.985.923 2.985 2.768s-1.059 2.85-3.013 2.85zm23.418 4.098 3.854 1.574c-.706 1.547-1.438 2.47-2.605 3.338-1.438 1.085-3.23 1.628-5.51 1.628-5.67 0-9.307-3.88-9.307-9.932 0-5.943 3.772-10.068 9.227-10.068 2.496 0 4.504.706 5.97 2.063.814.786 1.33 1.465 1.926 2.74l-3.826 1.574c-.896-2.035-2.09-2.876-4.097-2.876-2.986 0-4.668 2.333-4.668 6.485 0 4.18 1.71 6.513 4.776 6.513 2.144 0 3.365-.922 4.26-3.04z"/></svg>