<svg xmlns="http://www.w3.org/2000/svg" viewBox="0 0 192 192"><path d="M66.287 144.879c0 9.2-6.007 15.584-14.661 15.584-8.57 0-14.492-6.3-14.492-15.416 0-9.074 6.133-15.543 14.744-15.543 8.402 0 14.409 6.427 14.409 15.375m-22.138.084c0 6.301 2.856 10.081 7.603 10.081s7.52-3.696 7.52-9.997c0-6.385-2.857-10.124-7.688-10.124-4.62 0-7.435 3.823-7.435 10.04m31.331 5.839c1.26 3.066 3.277 4.368 6.637 4.368 3.361 0 5.377-1.386 5.377-3.696 0-2.016-1.092-2.814-5.46-3.823-4.748-1.092-6.218-1.596-7.604-2.478-2.31-1.47-3.403-3.529-3.403-6.427 0-5.713 4.033-9.2 11.09-9.2 4.663 0 8.402 1.68 11.174 5.377l-5.46 3.025c-1.765-2.437-3.571-3.11-5.672-3.11-3.15 0-4.704 1.177-4.704 3.236 0 1.89 1.302 2.772 5.208 3.528 4.075.84 6.26 1.554 7.898 2.563 2.352 1.554 3.486 3.738 3.486 6.889 0 6.049-4.242 9.41-11.846 9.41-6.301 0-10.165-2.227-12.518-7.184zm35.49-20.836c9.494 0 14.997 5.461 14.997 14.913 0 9.62-5.545 15.122-15.206 15.122H99.839v-30.035h11.132zm.127 24.7c5.125 0 7.855-3.402 7.855-9.703 0-6.26-2.772-9.662-7.897-9.662h-4.495v19.366zm33.557-24.7c6.805 0 10.796 3.613 10.796 9.746 0 5.839-3.907 9.284-10.502 9.284h-6.343V160h-6.72v-30.035h12.77zm-.42 14.03c3.025 0 4.663-1.554 4.663-4.41s-1.554-4.285-4.62-4.285h-5.672v8.696h5.63zM176 100h-24v-8h-16V64h12.001V32h-32.002v32H128v28h-16.001v8H80v-8.001H64V63.475c6.89-1.783 12-8.034 12-15.473 0-8.822-7.178-16-16-16s-16 7.178-16 16c0 7.439 5.11 13.69 12 15.473V92H40v8.022H16v8h24V116h40v-8h32v8h40v-8h24zm-52.001-60.001h16.002V56h-16.002zM52 48.002c0-4.411 3.589-8 8-8s8 3.589 8 8-3.589 8-8 8-8-3.589-8-8m20 59.997H48v-8h24zm72 .001h-24.001v-8H144z"/></svg>