<svg xmlns="http://www.w3.org/2000/svg" viewBox="0 0 192 192"><path d="M136 40a8 8 0 1 1 16 0 8 8 0 0 1-16 0m-24 8a8 8 0 1 0 0-16 8 8 0 0 0 0 16m-32 0a8 8 0 1 0 0-16 8 8 0 0 0 0 16m-32 0a8 8 0 1 0 0-16 8 8 0 0 0 0 16m128-16.083v120.166c0 8.776-7.178 15.917-16 15.917v8h-8v-8H40v8h-8v-8c-8.822 0-16-7.14-16-15.917V31.917C16 23.141 23.178 16 32 16h128c8.822 0 16 7.14 16 15.917m-152 0V56h144V31.917c0-4.365-3.589-7.917-8-7.917H32c-4.411 0-8 3.552-8 7.917m144 120.166V64H24v88.083c0 4.365 3.589 7.917 8 7.917h128c4.411 0 8-3.552 8-7.917M36 76h120v72H36zm8 64h104V84H44z"/></svg>