<svg xmlns="http://www.w3.org/2000/svg" viewBox="0 0 192 192"><path d="M176 132h-11.12l11.042-55.215-7.844-1.57L156.72 132H35.279L23.922 75.215l-7.844 1.57L27.12 132H16v8h23.081c-1.908 2.126-3.081 4.925-3.081 8 0 6.617 5.383 12 12 12s12-5.383 12-12c0-3.075-1.173-5.874-3.081-8h78.162c-1.908 2.126-3.081 4.925-3.081 8 0 6.617 5.383 12 12 12s12-5.383 12-12c0-3.075-1.173-5.874-3.081-8H176zM48 152c-2.206 0-4-1.794-4-4s1.794-4 4-4 4 1.794 4 4-1.794 4-4 4m96 0c-2.206 0-4-1.794-4-4s1.794-4 4-4 4 1.794 4 4-1.794 4-4 4m4-28H44v-8h104z"/></svg>