<svg xmlns="http://www.w3.org/2000/svg" viewBox="0 0 192 192"><path d="M58.828 49.172a4 4 0 1 1-5.657 5.656 4 4 0 0 1 5.657-5.656m16.97-16.97 5.658-5.658c-14.037-14.036-36.875-14.036-50.912 0L36.2 32.2c10.917-10.918 28.68-10.918 39.598 0zm-5.656 5.656C66.365 34.081 61.342 32 56 32s-10.365 2.08-14.142 5.858l5.657 5.657C49.781 41.249 52.795 40 56 40s6.219 1.249 8.485 3.515zM176 140h-23.081c1.908 2.126 3.081 4.925 3.081 8 0 6.617-5.383 12-12 12s-12-5.383-12-12c0-3.075 1.173-5.874 3.081-8H56.92c1.908 2.126 3.081 4.925 3.081 8 0 6.617-5.383 12-12 12s-12-5.383-12-12c0-3.075 1.173-5.874 3.081-8H16v-8h11.12L16.079 76.785l7.844-1.57L35.28 132h121.442l11.357-56.785 7.844 1.57L164.88 132H176zm-124 8c0-2.206-1.794-4-4-4s-4 1.794-4 4 1.794 4 4 4 4-1.794 4-4m96 0c0-2.206-1.794-4-4-4s-4 1.794-4 4 1.794 4 4 4 4-1.794 4-4m0-32H44v8h104z"/></svg>