<svg xmlns="http://www.w3.org/2000/svg" viewBox="0 0 192 192"><path d="M163.992 40h-3.963c-5.059 0-9.387 3.32-11.153 8H43.144c-1.767-4.68-6.099-8-11.16-8h-3.967C21.39 40 16 45.682 16 52.666v86.667c0 5.498 3.346 10.176 8 11.924V176h8v-24.313c4.589-1.048 8.25-4.72 9.136-9.507L43.41 128h105.183l2.272 14.089.016.09A12.01 12.01 0 0 0 162.689 152h1.303c6.621 0 12.008-5.682 12.008-12.667V52.667C176 45.681 170.613 40 163.992 40M36 123.682l-2.738 17.082A4.01 4.01 0 0 1 29.32 144h-1.303c-2.215 0-4.017-2.093-4.017-4.667V52.667C24 50.093 25.802 48 28.017 48h3.966C34.198 48 36 50.093 36 52.666zM44.01 56H148v64H44.01zM168 139.333c0 2.574-1.798 4.667-4.008 4.667h-1.303a4.006 4.006 0 0 1-3.934-3.238L156 123.684l.02-10.35V52.666c0-2.573 1.799-4.666 4.009-4.666h3.963c2.21 0 4.008 2.093 4.008 4.666zM124 72H52v-8h72zm-20 28h36v8h-36zm0-16h36v8h-36zm-52 28h44V80H52zm8-24h28v16H60zm72-24h8v8h-8z"/></svg>