<svg xmlns="http://www.w3.org/2000/svg" viewBox="0 0 192 192"><path d="M115.17 159.62c-1.58-1.5-3.33-2.8-5.23-3.89-.46-.27-.94-.53-1.42-.76 3.1-2.97 5.14-7.03 5.48-11.57.04-.46.06-.93.06-1.4 0-.2 0-.39-.01-.58-.04-1.4-.25-2.75-.6-4.04-.28-1.1-.68-2.16-1.16-3.16-.09-.19-.18-.37-.28-.54-.7-1.35-1.57-2.6-2.58-3.72-.93-1.04-1.98-1.96-3.13-2.76-1.87-1.3-4-2.25-6.3-2.76a17.7 17.7 0 0 0-3.94-.44c-1.4 0-2.76.16-4.06.47-2.3.52-4.42 1.5-6.29 2.82-.96.67-1.85 1.44-2.65 2.29a10 10 0 0 0-.56.61 17.4 17.4 0 0 0-2.39 3.49c-.13.23-.25.46-.36.71v.01c-.46.98-.84 2.02-1.12 3.09-.32 1.26-.52 2.57-.56 3.93-.01.19-.01.38-.01.58 0 .53.02 1.06.07 1.58a17.9 17.9 0 0 0 5.43 11.35c-.51.24-1.01.51-1.5.8a27.4 27.4 0 0 0-5.17 3.83c-4.55 4.25-7.68 9.99-8.6 16.44h8.11c.93-4.54 3.4-8.53 6.84-11.39 1.1-.92 2.3-1.71 3.59-2.37a19 19 0 0 1 3.85-1.52c.82-.23 1.67-.4 2.53-.52.01-.01.02-.01.03-.01.04-.01.08-.01.12-.01.39-.06.79-.1 1.19-.12q.285-.03.57-.03c.29-.02.59-.03.88-.03h.06c.27 0 .55.01.82.03.18 0 .35.01.53.03.45.02.91.07 1.35.13.87.12 1.73.3 2.56.53h.01c.46.12.9.27 1.34.42.86.31 1.7.67 2.5 1.1 1.3.66 2.52 1.47 3.64 2.41A19.98 19.98 0 0 1 115.6 176h8.11a27.87 27.87 0 0 0-8.54-16.38M96 152c-.51 0-1.02-.05-1.51-.13a9.8 9.8 0 0 1-4.6-2.01c-.14-.1-.28-.22-.41-.34-.04-.03-.07-.06-.11-.1l-.01-.01a9.98 9.98 0 0 1-3.22-6.18c-.05-.4-.08-.81-.08-1.23q0-.765.12-1.5v-.01l-.01-.01h.01l.03-.21v-.01c.05-.27.1-.53.18-.79.38-1.5 1.11-2.86 2.09-3.99.04-.04.07-.08.11-.12.94-1.05 2.1-1.91 3.41-2.49 1.24-.56 2.62-.87 4.06-.87 1.4 0 2.73.29 3.94.82a10 10 0 0 1 3.42 2.42c.08.08.15.16.22.24 1.1 1.28 1.88 2.84 2.23 4.56.12.63.19 1.29.19 1.96 0 .42-.03.83-.08 1.23-.31 2.58-1.62 4.85-3.51 6.45h-.01a10.05 10.05 0 0 1-4.99 2.22c-.46.07-.93.1-1.41.1zm.06-136c-35.29 0-64 28.71-64 64 0 .47.01.94.02 1.41q-.015.015 0 .03c-.05.51-.08 1.03-.08 1.55v.05q0 .48.03.96c.04.7.15 1.4.32 2.08v.01c.4 1.66 1.14 3.25 2.2 4.69l34.59 47.28 1.04 1.42c.03-.3.06-.6.11-.9.19-1.51.52-2.97.97-4.39.36-1.15.8-2.27 1.32-3.35q.225-.48.48-.96L41 86.06c-.33-.45-.58-.92-.75-1.39v-.01c-.02-.22-.03-.44-.05-.66-.05-.76-.09-1.53-.11-2.31v-.01C40.76 76.23 45.4 72 51.02 72 57.07 72 62 76.93 62 83h.06c.02.33.06.67.11 1 .16 1.24.46 2.45.88 3.63l13.35 37.38c.96-1.12 2.01-2.15 3.15-3.08l.15-.12a25.4 25.4 0 0 1 3.25-2.25L70.58 84.94c-.11-.31-.2-.62-.28-.94-.08-.33-.15-.66-.19-1-.04-.26-.07-.52-.08-.79C70.43 76.51 75.2 72 81 72c6.07 0 11 4.93 11 11v33.32a26 26 0 0 1 8-.02V83h.03c0-6.07 4.94-11 11-11 5.79 0 10.55 4.49 10.97 10.17v.03c-.01.27-.04.53-.1.8-.04.33-.11.67-.2 1-.07.27-.15.54-.25.81l-12.4 34.68c1.16.66 2.25 1.41 3.28 2.24 1.19.96 2.29 2.01 3.29 3.16l13.36-37.39c.41-1.14.7-2.31.86-3.5.06-.33.09-.66.12-1h.07c0-.17 0-.33-.01-.5v-.15c.33-5.77 5.13-10.35 10.97-10.35 5.88 0 10.7 4.65 11 10.55v.22c-.02.41-.04.82-.07 1.23v.06a5 5 0 0 1-.92 2l-31.99 43.72c.19.35.36.7.53 1.06.5 1.04.93 2.13 1.28 3.24a25 25 0 0 1 1.01 4.5c.04.26.07.51.1.76l.87-1.2h.01l16.9-23.11.08-.1 2.96-4.04.11-.16 14.6-19.95c1.27-1.74 2.08-3.68 2.4-5.71v-.04c.05-.34.09-.68.11-1.03.02-.32.03-.63.03-.95v-.2q.06-1.425.06-2.85c0-35.29-28.71-64-64-64m44.93 48c-6.08 0-11.5 2.87-14.97 7.34-3.48-4.47-8.9-7.34-14.99-7.34-6.1 0-11.54 2.89-15.01 7.38C92.54 66.89 87.1 64 81 64c-6.08 0-11.51 2.88-15 7.35C62.53 66.88 57.1 64 51.02 64c-3.37 0-6.54.88-9.29 2.43C47.8 42.09 69.86 24 96.06 24c26.23 0 48.31 18.13 54.35 42.52-2.78-1.6-5.99-2.52-9.42-2.52"/></svg>