<svg xmlns="http://www.w3.org/2000/svg" viewBox="0 0 192 192"><path d="M49.828 51.831C63.091 38.031 81.89 31.114 100 32v20.186c-10.91-1.005-21.997 2.09-30.881 8.92zm110.29 92.013c26.38-35.355 19.08-85.58-16.274-111.961-35.355-26.38-85.58-19.08-111.961 16.273-26.381 35.355-19.08 85.58 16.273 111.961C62.49 170.812 79.26 175.97 95.901 175.97c24.408 0 48.53-11.105 64.216-32.126zM139.06 38.294c31.818 23.744 38.388 68.946 14.645 100.766-23.742 31.818-68.944 38.39-100.765 14.645C21.122 129.962 14.552 84.76 38.295 52.94c14.119-18.92 35.824-28.913 57.794-28.913 14.974 0 30.073 4.644 42.97 14.268zm-31.745 49.95L44.59 58.2l46.705 50.446 16.02-20.404zm-37.71 43.02c-16.01-11.946-21.546-32.696-14.941-50.523l-14.74-16.15c-16.079 27.641-8.515 62.997 17.834 82.658l11.873-15.966z"/></svg>