<svg xmlns="http://www.w3.org/2000/svg" viewBox="0 0 192 192"><path d="M160.385 48.586C170.19 61.865 176 78.265 176 96c0 44.112-35.887 80-80 80-17.736 0-34.136-5.81-47.415-15.615l5.733-5.733C66.09 163.044 80.473 168 96 168c39.702 0 72-32.299 72-72 0-15.527-4.956-29.91-13.348-41.683zM37.348 137.682C28.957 125.909 24 111.527 24 96c0-39.701 32.3-72 72-72 15.527 0 29.908 4.956 41.681 13.347l5.733-5.733C130.136 21.811 113.736 16.001 96 16.001c-44.112 0-80 35.888-80 80 0 17.736 5.81 34.135 15.615 47.414zm137.48-114.853-5.657-5.658-152 152 5.658 5.658zM45.617 129.413h-1.511V65.107h25.092c13.656 0 21.456 6.916 21.574 19.151l-19.087 19.087a37 37 0 0 1-2.307.076h-15.83v18.06zm7.932-33.547h15.829c7.825 0 12.052-4.137 12.052-11.782 0-7.555-4.048-11.422-12.052-11.422h-15.83v23.204zm59.273-33.658v-.518h-9.444v9.962zm35.076 43.551c0 14.93-7.825 24.553-19.876 24.553-6.746 0-11.962-2.878-15.2-8.364v7.465h-9.444v-23.82l24.102-24.102c.181-.004.359-.015.542-.015 11.961 0 19.876 9.623 19.876 24.283m-9.623.36c0-10.793-4.587-17.088-12.412-17.088-8.364 0-13.31 6.295-13.31 16.908 0 10.703 4.766 16.819 13.13 16.819s12.592-5.577 12.592-16.64z"/></svg>