<svg xmlns="http://www.w3.org/2000/svg" viewBox="0 0 192 192"><path d="M28.735 139.223C20.69 126.748 16 111.916 16 96.001c0-44.112 35.888-80 80-80 15.916 0 30.748 4.69 43.223 12.734l-5.787 5.787A71.56 71.56 0 0 0 96 24.001c-39.7 0-72 32.299-72 72 0 13.702 3.85 26.52 10.522 37.435zm134.53-86.446-5.787 5.787A71.56 71.56 0 0 1 168 96c0 39.701-32.298 72-72 72a71.56 71.56 0 0 1-37.437-10.522l-5.786 5.786C65.252 171.31 80.084 176.001 96 176.001c44.113 0 80-35.888 80-80 0-15.916-4.69-30.749-12.735-43.224m-.922-34.434-144 144 11.314 11.314 144-144zM106.268 61.69h-2.89v2.89zm-2.89 50.975v16.748h9.443v-7.465c3.238 5.486 8.454 8.364 15.2 8.364 12.051 0 19.876-9.623 19.876-24.553 0-12.17-5.466-20.848-14.162-23.452l-6.78 6.78c7.153.57 11.319 6.755 11.319 17.032 0 11.062-4.227 16.639-12.592 16.639s-13.13-6.116-13.13-16.819c0-.89.047-1.737.115-2.564l-9.29 9.29zm-13.444-34.64C87.57 69.7 80.328 65.106 69.197 65.106H44.105v58.746l9.443-9.443v-10.99h10.99l7.78-7.78a18.6 18.6 0 0 1-2.941.226h-15.83V72.662h15.83c8.004 0 12.052 3.867 12.052 11.422q-.001 1.396-.19 2.635l8.695-8.695z"/></svg>