<svg xmlns="http://www.w3.org/2000/svg" viewBox="0 0 192 192"><path d="M76 140h40v-24H76zm8-16h24v8H84zm51.996-96H56.004C49.385 28 44 33.385 44 40.004v103.991c0 6.618 5.383 12.002 12 12.004v8h8v-8h64v8h8v-8c6.617-.002 12-5.386 12-12.004V40.004C148 33.385 142.615 28 135.996 28M52 52h8v48h-8zm88 91.996a4.01 4.01 0 0 1-4.004 4.004H56.004A4.01 4.01 0 0 1 52 143.996V108h88zM68 68h20v8h8v-8h28v32H68zm56-8H68v-8h56zm8 40V52h8v48zm0-56H52v-3.996A4.01 4.01 0 0 1 56.004 36h79.991a4.01 4.01 0 0 1 4.004 4.004V44h-8Zm-24 40h8v8H76v-8h24v-8h8z"/></svg>