<svg xmlns="http://www.w3.org/2000/svg" xml:space="preserve" viewBox="0 0 192 192"><path d="M134.262 104.337C147.1 98.232 156 85.137 156 70c0-20.953-17.047-38-38-38S80 49.047 80 70c0 15.137 8.9 28.232 21.738 34.337C77.65 111.387 60 133.664 60 160h8c0-27.57 22.43-50 50-50s50 22.43 50 50h8c0-26.336-17.65-48.614-41.738-55.663M88 70c0-16.542 13.458-30 30-30s30 13.458 30 30-13.458 30-30 30-30-13.458-30-30m-22.175 49.65a67 67 0 0 1 5.34-6.1c-2.714-1.71-5.61-3.06-8.642-3.985C70.496 105.658 76 97.46 76 88c0-13.234-10.766-24-24-24S28 74.766 28 88c0 9.465 5.509 17.665 13.487 21.57C26.75 114.079 16 127.806 16 144h8c0-15.44 12.56-28 28-28 4.89 0 9.625 1.26 13.825 3.65M36 88c0-8.822 7.178-16 16-16s16 7.178 16 16-7.178 16-16 16-16-7.178-16-16"/></svg>