<svg xmlns="http://www.w3.org/2000/svg" viewBox="0 0 192 192"><path d="M127.9 52h12c2.2 0 4-1.8 4-4s-1.8-4-4-4h-12c-2.2 0-4 1.8-4 4s1.8 4 4 4m-80 67.5c-3.1 0-5.6 2.5-5.6 5.6v1.6c0 3.1 2.5 5.6 5.6 5.6h13.6c3.1 0 5.6-2.5 5.6-5.6s-1.9-5.1-5.6-5.6c-3.7-.4-13.6-1.6-13.6-1.6"/><path d="M50 66.4C44.9 73 42.1 82.9 40.8 88H26.6c-.4 0-4.2 0-7.2 3.1-1.5 1.5-3.3 4.3-3.3 9 0 9.3 5 11.4 8.7 11.8-2.3 4.2-4.7 9.8-4.7 15.4v26.3c0 9.2 0 16.4 3.7 20.2s3.4 2.2 5.5 2.2h15.6c.7 0 3.5-.2 6.1-2.8q4.2-4.2 4.8-13.2h28.1v-8h-36v4c0 9-2.4 11.7-3.3 12H29.2c-1.3-1.6-1.3-9.6-1.3-14.4v-26.3c0-6.4 5.2-14.3 7.1-16.8l5.2-6.6H27.3c-2.7 0-3.4 0-3.4-4s.9-3.9 2.5-4h20.8l.6-3.3c0-.1 2.7-14 8.4-21.5v-.2c3.5-4.9 11.9-6.4 18.5-6.8 3.4-.2 6.6-.1 9.2 0V56c-9.7-.5-27 0-34 10.2ZM164.9 28h-61.7c-6 0-10.8 4.7-11.1 10.6v126.9c.3 5.9 5.2 10.6 11.1 10.6h61.7c6.1 0 11.1-5 11.1-11.1V39.2c0-6.1-5-11.1-11.1-11.1Zm3.1 136.9c0 1.7-1.4 3.1-3.1 3.1h-61.7c-1.7 0-3.1-1.4-3.1-3.1V39.2c0-1.7 1.4-3.1 3.1-3.1h61.7c1.7 0 3.1 1.4 3.1 3.1z"/><ellipse cx="134" cy="154" rx="6" ry="5.9"/><path d="M146 72c0-6.6-5.4-12-12-12s-12 5.4-12 12v4h-4v20h32V76h-4zm-16 0c0-2.2 1.8-4 4-4s4 1.8 4 4v4h-8zm15.9 44c0-6.6-5.4-12-12-12s-8.4 2.4-10.5 6.3l7 3.8c.7-1.3 2.1-2.1 3.5-2.1 2.2 0 4 1.8 4 4v4h-20v20h32v-20h-4z"/></svg>