<svg xmlns="http://www.w3.org/2000/svg" viewBox="0 0 192 192"><path d="M72.1 24c19.6 0 37.4 8.1 50.4 21.1l5.6-5.7C113.8 24.9 94 16 72.2 16s-41.5 8.9-55.8 23.3L22 45c12.9-13 30.7-21 50.3-21ZM27.2 141.2C38.7 152.8 54.5 160 72.1 160s33.2-7.2 44.7-18.7l-5.6-5.7c-10 10.1-23.9 16.3-39.1 16.3s-29.2-6.3-39.3-16.5l-5.6 5.6Z"/><path d="M72.1 32c-17.4 0-33.2 7.1-44.6 18.6l5.6 5.6c10-10.1 23.8-16.3 39.1-16.3s29.1 6.3 39.2 16.4l5.6-5.7C105.5 39 89.7 31.9 72.3 31.9Zm0 136c-19.7 0-37.5-8.1-50.5-21.2l-5.6 5.6c14.3 14.5 34.2 23.5 56.1 23.5s41.6-8.9 55.9-23.4l-5.6-5.7c-12.9 13-30.7 21-50.3 21Z"/><path d="M85.6 136c5.7 0 10.4-4.6 10.4-10.4V68c0-6.6-5.4-12-12-12H60c-6.6 0-12 5.4-12 12v57.6c0 5.7 4.6 10.4 10.4 10.4h27.3ZM82 110.5c-2.2.3-7.5.9-9.9.9s-7.7-.6-9.9-.9c-1.6-.4-4.1-.3-6.2 1.4V95c1.9 2 4.7 2.5 7.1 1.9 1.9-.3 6.6-.8 8.9-.8s6.9.6 8.9.8c.6.2 1.3.3 2 .3 1.9 0 3.8-.7 5.1-2.2v16.8c-2.1-1.5-4.5-1.6-6-1.2Zm-25.8 15.3v.6c0-.2-.1-.4-.1-.6h.2ZM59.4 84c1.7-.7 6.3-2.3 12.5-2.3 6.3 0 10.8 1.7 12.6 2.4-.6 1.4-1.4 3.2-2.2 4.9-.3 0-6.8-.9-10.3-1-3.5 0-10 .9-10.3.9-.8-1.8-1.6-3.6-2.2-4.9Zm.6-20h24c2.2 0 4 1.8 4 4v8.8c-2.2-1-8-3.1-16-3.1-7.9 0-13.7 2.1-16 3.1V68c0-2.2 1.8-4 4-4m-3.8 62.4c.5-1.3 2.9-5.7 4.7-8.1h.2c.3 0 7.7 1 11.1 1 3.5 0 10.8-.9 11.1-1h.2c1.7 2.3 4 6.7 4.4 7.9v-.7h.2c0 1.4-1.1 2.5-2.4 2.5H58.4c-1 0-1.9-.6-2.2-1.5ZM176 116c0-10.8-6.7-19.4-16.7-22.6 5.2-3.2 8.7-8.9 8.7-15.4 0-9.9-8.1-18-18-18s-18 8.1-18 18 3.5 12.2 8.7 15.4C130.6 96.6 124 105.2 124 116v12h8v-12c0-9.4 7.4-16 18-16s18 6.6 18 16v12h8zm-26-48c5.5 0 10 4.5 10 10s-4.5 10-10 10-10-4.5-10-10 4.5-10 10-10"/></svg>