<svg xmlns="http://www.w3.org/2000/svg" viewBox="0 0 192 192"><path d="M171.543 142.144C170.898 140.914 155.393 112 124 112s-46.898 28.913-47.543 30.144L75.484 144l.973 1.856C77.102 147.086 92.607 176 124 176s46.898-28.913 47.543-30.144l.973-1.856zM124 168c-22.252 0-35.576-18.072-39.346-24 3.775-5.935 17.099-24 39.346-24s35.57 18.065 39.346 24c-3.775 5.935-17.099 24-39.346 24m0-40c-8.822 0-16 7.178-16 16s7.178 16 16 16 16-7.178 16-16-7.178-16-16-16m0 24c-4.411 0-8-3.589-8-8s3.589-8 8-8 8 3.589 8 8-3.589 8-8 8M52.08 96H92v17.44a52.4 52.4 0 0 1 8-4.367V96h39.92l2.286 11.427a50 50 0 0 1 8.95 3.957L135.28 32H56.721l-21.6 108H66.78a77 77 0 0 1 6.477-8H44.88zM100 40h28.72l3.2 16H100zm0 24h33.52l4.8 24H100zM63.28 40H92v16H60.08zm-4.8 24H92v24H53.68z"/></svg>