<svg xmlns="http://www.w3.org/2000/svg" viewBox="0 0 192 192"><path d="M92 72h52V36H92zm8-28h36v20h-36zm39.917-28H96c-11.028 0-20 8.972-20 20v116H48c-4.038 0-8-3.962-8-8V90.63A13.9 13.9 0 0 0 46 92c7.72 0 14-6.28 14-14 0-5.27-2.93-9.867-7.245-12.255L62.94 54.713l-5.878-5.426L32 76.436V144c0 8.374 7.626 16 16 16h28v16h84V36.084C160 25.009 150.99 16 139.917 16M52 78c0 3.309-2.691 6-6 6-2.832 0-5.206-1.974-5.833-4.617l6.744-7.306C49.788 72.517 52 75.002 52 78m100 90H84V36c0-6.617 5.383-12 12-12h43.916C146.58 24 152 29.42 152 36.084z"/></svg>