<svg xmlns="http://www.w3.org/2000/svg" viewBox="0 0 192 192"><path d="M72 72h48V36H72zm8-28h32v20H80zm92 20V52h-8v12h-8V52h-8v12h-4v8c0 7.453 5.103 13.697 12 15.476v57.327c0 3.968-3.117 7.197-6.95 7.197H136V36.084C136 25.009 126.99 16 115.916 16H76c-11.028 0-20 8.972-20 20v116H32c-4.038 0-8-3.962-8-8V90.63A13.9 13.9 0 0 0 30 92c7.72 0 14-6.28 14-14 0-5.27-2.93-9.867-7.245-12.255L46.94 54.713l-5.878-5.426L16 76.436V144c0 8.374 7.626 16 16 16h24v16h80v-16h13.05c8.244 0 14.95-6.817 14.95-15.197V87.476c6.897-1.78 12-8.023 12-15.476v-8zM36 78c0 3.309-2.691 6-6 6-2.832 0-5.206-1.974-5.833-4.617l6.744-7.306C33.788 72.517 36 75.002 36 78m92 90H64V36c0-6.617 5.383-12 12-12h39.916C122.58 24 128 29.42 128 36.084z"/></svg>