<svg xmlns="http://www.w3.org/2000/svg" viewBox="0 0 192 192"><path d="M96 44a4 4 0 1 1 8 0 4 4 0 0 1-8 0m80 12v4c0 9.705-7.044 17.811-16.35 19.618C157.907 88.922 149.603 96 139.632 96h-23.689c-.08 1.51-.314 2.98-.693 4.398 2.812 6.618 15.324 36.439 16.593 46.08.667 5.069-.843 10.001-4.253 13.888-4.192 4.78-10.873 7.634-17.87 7.634h-.95c-2.923 4.847-7.552 8-12.77 8s-9.847-3.153-12.77-8H83c-6.53 0-13.914-3.341-18.371-8.314-3.463-3.865-5.02-8.402-4.503-13.122 1.052-9.587 13.598-38.87 16.678-45.95A21.5 21.5 0 0 1 76.057 96h-23.69c-9.971 0-18.275-7.078-20.016-16.382C23.044 77.81 16 69.705 16 60v-4h57.376a24 24 0 0 1-.517-1.65l-5.241-1.47c-5.564-1.562-8.808-7.338-7.246-12.901l11.356 3.187L49.417 27.1l2.337-3.246a18.77 18.77 0 0 1 12.297-7.608 18.77 18.77 0 0 1 14.074 3.317l8.7 6.264A23.9 23.9 0 0 1 96 24c13.234 0 24 10.766 24 24a23.9 23.9 0 0 1-1.376 8zm-80 52c6.393 0 12-6.142 12-13.144V68.771C104.467 70.821 100.37 72 96 72s-8.467-1.18-12-3.229v26.085C84 101.858 89.607 108 96 108m0-76c-4.946 0-9.374 2.258-12.311 5.795l-1.176 1.633A15.9 15.9 0 0 0 80 48c0 8.822 7.178 16 16 16s16-7.178 16-16-7.178-16-16-16m-34.804-6.276L75.24 35.837l.591-.821a24 24 0 0 1 1.434-1.991l2.003-2.78-5.818-4.19a10.82 10.82 0 0 0-8.115-1.912c-1.498.243-2.9.784-4.14 1.58zM52.366 88H76V64H24.7c1.688 4.656 6.236 8 11.567 8H60v8H40.707c1.7 4.656 6.285 8 11.66 8zm57.979 21.402C106.677 113.437 101.566 116 96 116c-5.535 0-10.623-2.533-14.286-6.53-5.17 12.245-12.944 31.661-13.635 37.966-.267 2.431.577 4.756 2.507 6.91 2.272 2.535 5.912 4.532 9.414 5.306V144h8v12c0 6.505 3.664 12 8 12s8-5.495 8-12v-12h8v15.85c3.82-.5 7.357-2.229 9.576-4.759 1.922-2.192 2.708-4.738 2.335-7.569-.836-6.356-8.502-25.856-13.566-38.12M167.299 64H116v24h23.633c5.375 0 9.96-3.344 11.66-8H132v-8h23.733c5.331 0 9.879-3.344 11.566-8m-40.012-22.756 12.417 4.253 2.592-7.568-6.11-2.093 1.45-9.684-9.262-3.173.957-6.386-7.913-1.186-1.944 12.98 9.263 3.174z"/></svg>