<svg xmlns="http://www.w3.org/2000/svg" viewBox="0 0 192 192"><path d="M176 68v25.24l-.71 1.03c-8.18 11.82-28.1 13.53-36.08 13.73l-5.73 25.7a21.7 21.7 0 0 0-7.81-1.68l7.15-32.14 3.33.12c6.66.24 24.89-1.03 31.85-9.35V76h-16.9v-4c0-5.46-2.34-15.93-17.97-24.77l-2.53-1.43 3.76-18.76c-9-.5-21.76 3.99-23.41 10.01l-.8 2.95H88.88l-2.35 7.06 17.02 19.02-10.77 31.23-7.54.06-7.64-21.02-22.56-19.49L54.67 40c-9.44.15-17.84 5.08-24.3 14.3-8.68 12.37-9.95 25.34-4 40.81l.04.13L41.94 140h14.03l4-16h46.25l3.54 14.16a21.8 21.8 0 0 0-5.85 9.59L99.97 132H66.22l-4 16H36.25L18.88 97.92c-6.87-17.91-5.26-33.68 4.94-48.22C31.83 38.29 42.93 32 55.1 32h3.4l3.86-.09c.01.03.01.06.01.09.11 2.31.2 4.73.28 6.71 0 .14.01.28.01.42l.02.87.28 13.14L84.4 71.65l4.5 12.37 5.55-16.1-16.98-18.98 2.7-8.12s0-.01.01-.02q0-.03.03-.09l.24-.71.39-1.2.63-1.89.2-.59.24-.71.33-.97c0-.01 0-.02.01-.03l.21-.63c.08-.21.15-.42.22-.64.16-.44.31-.88.47-1.34h21.29c5.76-10.4 25.15-14.99 35.71-12.11l3.6.98-4.18 20.89c11 6.92 17.8 16.24 19.24 26.24zm-48-5c0-3.31-2.69-6-6-6s-6 2.69-6 6 2.69 6 6 6 6-2.69 6-6m48 99c0 7.72-6.28 14-14 14s-14-6.28-14-14 6.28-14 14-14 14 6.28 14 14m-8 0c0-3.31-2.69-6-6-6s-6 2.69-6 6 2.69 6 6 6 6-2.69 6-6m8-36c0 7.72-6.28 14-14 14s-14-6.28-14-14 6.28-14 14-14 14 6.28 14 14m-8 0c0-3.31-2.69-6-6-6s-6 2.69-6 6 2.69 6 6 6 6-2.69 6-6m-29 28c0 7.72-6.28 14-14 14s-14-6.28-14-14c0-2.14.48-4.18 1.35-6 2.25-4.72 7.07-8 12.65-8 2.42 0 4.71.62 6.7 1.71 4.35 2.38 7.3 6.99 7.3 12.29m-8 0c0-3.31-2.69-6-6-6s-6 2.69-6 6 2.69 6 6 6 6-2.69 6-6"/></svg>