<svg xmlns="http://www.w3.org/2000/svg" viewBox="0 0 192 192"><path d="M163.602 103.599v-.001l-.036-.037-.019-.02v.001L88.459 28.454c-8.014-8.014-18.67-12.428-30.003-12.428S36.467 20.44 28.453 28.454s-12.428 18.67-12.428 30.003c0 11.318 4.403 21.959 12.395 29.97l.013.013.02.02 75.089 75.087-.001.001q.03.029.059.057l.048.048h.002c8.258 8.2 19.075 12.303 29.894 12.303 10.866 0 21.73-4.136 30.003-12.408 16.525-16.525 16.542-43.4.055-59.95zM34.11 34.11c6.503-6.503 15.15-10.085 24.346-10.085S76.3 27.608 82.802 34.111L117.16 68.47l-48.691 48.69L34.09 82.784c-13.405-13.427-13.399-35.255.02-48.673zm123.78 123.78c-13.405 13.406-35.204 13.423-48.633.056l-35.131-35.13 48.69-48.69 35.093 35.091c13.405 13.426 13.399 35.255-.02 48.673zm-34.334-64.417 26.46 26.46-5.658 5.657-26.46-26.46z"/></svg>