<svg xmlns="http://www.w3.org/2000/svg" viewBox="0 0 192 192"><path d="M128 84h48v-8h-56v11.056l-8-16V16h-8v56.943l8 16.001v37.827L97.595 148h-3.19L80 126.77V88.945l8-16V16h-8v55.056l-8 16V76H16v8h48v48H16v8h56v-10.771l17.534 25.84 2.466 4.93h8l2.466-4.93L120 129.229v10.77h56v-8h-48v-4z"/><path d="M96 131.508c-5.543 0-11.508-7.356-11.508-23.508S90.457 84.492 96 84.492s11.508 7.356 11.508 23.508-5.965 23.508-11.508 23.508m-.046-40.005c-1.158.34-4.446 5.927-4.446 16.497s3.288 16.157 4.538 16.496c1.158-.34 4.446-5.926 4.446-16.496s-3.288-16.157-4.538-16.497"/></svg>