<svg xmlns="http://www.w3.org/2000/svg" viewBox="0 0 192 192"><path d="M84.13 121.6c-.8 5.6-2.4 10.4-3.2 15.2-2.4 10.4-5.6 20-11.2 28.8-2.4 4-5.6 7.2-9.6 10.4 0-4.8-.8-8-.8-12-.8-16 2.4-31.2 6.4-46.4 2.4-8 4-16 6.4-24v-4c-4-11.2-3.2-21.6 3.2-31.2 3.2-4.8 8-8 14.4-7.2 8 1.6 12 6.4 10.4 13.6-.8 6.4-3.2 12.8-4 18.4-1.6 5.6-3.2 10.4-4 16-1.6 11.2 4.8 16.8 16 16 8.8-.8 14.4-5.6 18.4-12 9.6-16 12-33.6 6.4-52-4-11.2-12.8-16.8-23.2-20-24.8-6.4-52.8 11.2-56.8 36.8-1.6 8-.8 15.2 4 22.4 3.2 4.8 4 9.6 1.6 15.2q-1.2 3.6-4.8 2.4c-10.4-3.2-16-10.4-18.4-20.8-3.2-17.6 0-34.4 11.2-48C59.33 24 76.13 16.8 96.13 16c13.6 0 27.2 2.4 39.2 10.4 13.6 8.8 21.6 21.6 22.4 38.4.8 18.4-2.4 35.2-13.6 49.6-9.6 12-22.4 18.4-37.6 17.6-5.6 0-9.6-2.4-14.4-5.6-3.2-1.6-4.8-2.4-8-4.8"/></svg>