<svg xmlns="http://www.w3.org/2000/svg" viewBox="0 0 192 192"><path d="m175.677 53.898-37.745-37.745-20.526 34.509-32.097 20.205-.031-.006-.005.03-.012.006.008.014-1.358 8.007c4.5.764 8.692 2.6 12.266 5.311l-5.112 5.007c-3.26-1.898-7.117-2.833-11.146-2.41a18.26 18.26 0 0 0-12.354 6.718 18.25 18.25 0 0 0-3.984 13.486c.997 9.42 8.986 16.44 18.257 16.44q.965 0 1.947-.102c10.074-1.066 17.403-10.13 16.338-20.204-.22-2.083-.8-4.039-1.642-5.837l4.984-4.882c6.544 11.217 4.565 25.895-5.205 34.88-.268.247-1.09 1.073-3.984 3.998-2.556 2.582-6.797 6.869-7.56 7.572-2.548 1.98-5.52 3.489-8.745 4.484a15.04 15.04 0 0 0-3.373-6.336c-5.579-6.197-15.208-6.656-21.464-1.022a15.3 15.3 0 0 0-2.824 3.422 26.6 26.6 0 0 1-4.602-3.908c2.62-2.811 4.28-6.304 4.719-9.99.525-4.42-.744-8.585-3.574-11.728-3.502-3.89-8.879-5.553-14.386-4.45l-5.902-3.413c-9.177 15.864-.417 46.156 12.821 57.187 9.17 7.641 22.294 12.008 36.058 12.008h.367c13.564-.077 25.759-4.5 32.62-11.829 6.336-6.767 18.934-19.402 19.06-19.528l.326-.37a19.1 19.1 0 0 0 3.558-7.381l11.892-60.805zm-36.094-24.536 23.225 23.225-22.687 14.936-14.57-14.57zm-47.587 74.661c.591 5.594-3.477 10.626-9.07 11.218-5.594.596-10.626-3.477-11.218-9.07-.287-2.71.499-5.37 2.212-7.488a10.14 10.14 0 0 1 6.858-3.73 10.1 10.1 0 0 1 4.048.394l-2.052 2.01c-2.407 2.222-2.693 5.83-.637 8.056 2.055 2.227 5.673 2.23 8.081.007l1.732-1.696c.013.1.035.198.046.3zm-33.394 38.07c2.907-2.616 7.358-2.43 9.922.417a6.8 6.8 0 0 1 1.329 2.237 33.7 33.7 0 0 1-12.131-1.694c.264-.34.553-.664.88-.96M40.78 119.286c1.231 1.368 1.775 3.248 1.532 5.296-.166 1.395-.677 2.752-1.479 3.977-2.004-3.521-4-7.701-5.365-11.332 2.113-.078 4.036.642 5.312 2.06zm82.628 14.933a11 11 0 0 1-1.89 3.991c-1.607 1.612-13.058 13.123-19.052 19.526-12.822 13.695-43.46 11.12-57.848-.873-6.422-5.35-11.761-17.405-13.252-28.667 2.165 4.315 4.567 8.282 6.531 10.787 5.89 7.512 15.265 12.505 25.72 13.698 1.612.184 3.22.275 4.816.275 8.711 0 17.044-2.704 23.403-7.69.484-.38 1.625-1.5 8.248-8.194 1.7-1.716 3.456-3.49 3.708-3.73 13.834-12.723 15.577-34.287 3.966-49.093A36.2 36.2 0 0 0 95.402 74.17l24.43-15.379 15.327 15.327z"/></svg>