<svg xmlns="http://www.w3.org/2000/svg" viewBox="0 0 192 192"><path d="M168.35 107.82c-3.01-4.63-4.88-7.81-4.9-7.85L160 94.11l-3.45 5.86c-.02.04-1.89 3.22-4.9 7.85l-.69 1.05c-3.1 4.72-6.96 10.61-6.96 17.13 0 8.82 7.18 16 16 16s16-7.18 16-16c0-6.52-3.86-12.41-6.96-17.13zM160 134c-4.41 0-8-3.59-8-8 0-4.13 3-8.71 5.66-12.75l.69-1.07c.6-.91 1.15-1.77 1.65-2.56.51.8 1.06 1.66 1.66 2.58l.69 1.06C165 117.29 168 121.87 168 126c0 4.41-3.59 8-8 8m9.87-94H155.2c-2.88 0-5.36 1.64-6.51 4h-29.42c-10.47.01-20.32 4.03-27.73 11.32-7.43 7.3-11.53 17.01-11.54 27.35v1.97c-2.36 1.08-4 3.4-4 6.09v14.54c0 2.63 1.57 4.92 3.86 6.02-.62 4.43-3.25 8.41-7.14 10.65-4.4 2.53-9.04 2.53-13.44 0s-7.19-7.3-7.28-12.35V63.31c2.36-1.15 4-3.63 4-6.5V43.2c0-3.97-3.12-7.2-6.95-7.2H21.96C18.68 36 16 38.75 16 42.13v14.68c0 2.87 1.64 5.35 4 6.5v46.26c0 16.53 8.81 31.93 22.98 40.2 7.1 4.14 15.06 6.21 23.02 6.21s15.92-2.07 23.01-6.21c13.67-7.97 22.35-22.57 22.95-38.4 2.38-1.07 4.03-3.4 4.03-6.09l.01-14.55c0-1.83-.78-3.6-2.15-4.86a6.7 6.7 0 0 0-1.85-1.23v-1.97c0-1.47.34-3.56 1.95-5.14 1.04-1.02 2.86-1.52 5.56-1.52l29.18-.02c1.14 2.37 3.63 4.01 6.51 4.01h13.6c3.97 0 7.2-3.12 7.2-6.95V45.97c0-3.29-2.75-5.97-6.13-5.97m-61.88 64H84V92h24zM24 44h24v12H24zm60.98 98.86c-11.71 6.83-26.26 6.83-37.97 0C35.29 136.02 28 123.27 28 109.57V64h16v45.64c.13 7.93 4.46 15.3 11.29 19.24 6.91 3.97 14.51 3.97 21.42 0 6.13-3.54 10.25-9.84 11.12-16.88h16.09c-.8 12.76-7.9 24.43-18.94 30.86m34.3-74.85c-4.79.04-8.37 1.29-10.94 3.81-2.8 2.75-4.34 6.6-4.34 10.85V84H88v-1.32c.01-8.18 3.26-15.87 9.15-21.66 5.91-5.8 13.77-9.01 22.13-9.02H148v16zM168 72h-12V48h12z"/></svg>