<svg xmlns="http://www.w3.org/2000/svg" viewBox="0 0 192 192"><path d="M157.747 48.142C150.36 28.906 132.534 16 112.257 16 91.982 16 74.156 28.907 66.77 48.142c-5.79.85-10.253 5.836-10.253 11.858v20c0 6.617 5.383 12 12 12s12-5.383 12-12V60c0-4.338-2.322-8.135-5.781-10.243C81.225 34.284 95.785 24 112.258 24s31.033 10.284 37.523 25.757C146.32 51.865 144 55.662 144 60v20c0 5.213 3.347 9.647 8 11.3V112c0 2.206-1.794 4-4 4h-4.7c-1.653-4.653-6.087-8-11.3-8h-8c-6.617 0-12 5.383-12 12s5.383 12 12 12h8c5.213 0 9.647-3.347 11.3-8h4.7c6.617 0 12-5.383 12-12V91.3c4.653-1.653 8-6.087 8-11.3V60c0-6.022-4.464-11.008-10.253-11.858M72.516 80c0 2.206-1.795 4-4 4s-4-1.794-4-4V60c0-2.206 1.794-4 4-4l1.722.405A3.99 3.99 0 0 1 72.516 60zM132 124h-8c-2.206 0-4-1.794-4-4s1.794-4 4-4h8c2.206 0 4 1.794 4 4s-1.794 4-4 4m28-44c0 2.206-1.794 4-4 4s-4-1.794-4-4V60c0-1.586.935-2.947 2.276-3.594l1.725-.406A4.004 4.004 0 0 1 160 60zm-51.235 7.686c-6.224-6.225-13.559-3.41-16.97 0l-16.287 16.287c-.658-.046-1.623-.219-2.1-.304a38 38 0 0 0-.755-.13l-33.987-5.664c-4.57-.707-7-.496-8.665.751l-6.089 6.03c-2.657 2.657-2.913 5.228-2.661 6.916.38 2.548 2.116 4.306 3.612 5.101l27.085 10.86-9.683 9.683c-2.659-.328-7.636-.936-12.325-1.477-3.43-.392-6.626 1.36-8.13 4.472s-.896 6.701 1.547 9.145l23.737 23.737c1.553 1.553 3.568 2.364 5.63 2.364a8.1 8.1 0 0 0 3.516-.815c3.113-1.505 4.868-4.696 4.472-8.132-.542-4.689-1.15-9.665-1.477-12.323l9.683-9.684 10.678 26.692.18.39c.796 1.498 2.553 3.233 5.101 3.615 1.688.251 4.26-.004 6.918-2.661l5.657-5.657.373-.431c1.247-1.666 1.458-4.096.744-8.712l-5.65-33.896a35 35 0 0 0-.137-.802c-.085-.476-.258-1.44-.304-2.098l16.288-16.287c.347-.347 2.13-2.227 3.087-5.099 1.416-4.248.32-8.464-3.088-11.871m-5.657 11.313-16.97 16.97c-2.331 2.332-1.67 6.032-1.231 8.48.041.233.08.443.114.664l5.649 33.895c.24 1.55.299 2.503.305 3.036l-4.588 4.589-10.678-26.693-.182-.393c-1.096-2.06-2.938-3.422-5.055-3.738-1.654-.245-4.208.035-6.962 2.788l-12.697 12.698.243 1.94c.009.075.928 7.436 1.695 14.201l-23.728-23.75c6.757.78 14.119 1.7 14.192 1.709l1.942.243 12.697-12.697c2.752-2.753 3.036-5.305 2.789-6.961-.316-2.117-1.68-3.96-3.739-5.056l-27.086-10.86 4.59-4.589c.529.006 1.469.063 2.989.298l33.987 5.665c.175.027.384.065.616.106 2.448.437 6.15 1.1 8.481-1.23l16.97-16.971c.85-.851 3.103-2.555 5.657 0 2.278 2.278 1.24 4.351 0 5.656"/></svg>