<svg xmlns="http://www.w3.org/2000/svg" viewBox="0 0 192 192"><path d="M39.987 128.485q.433 0 .887-.02l21.548-.73 3.413-.106 37.423-9.28h-.028l41.987-10.468 11.247-2.804c13.11-3.269 20.842-12.792 18.387-22.644-2.457-9.851-13.754-14.632-26.866-11.36L110.976 80.3l-21-18.671c-3.276-3.1-6.67-6.283-12.226-4.901l-9.601 2.394 14.399 28.266-9.816 2.447-23.718 9.645-12.337-7.412c-5.304-3.187-7.305-3.367-11.441-2.337l-8.105 2.02 10.66 28.754c1.084 3.026 4.102 7.98 12.196 7.98m-7.43-29.56 15.765 9.472L75.22 97.46l11.056-2.757 5.334 10.473 7.967-1.985-19.734-38.739c.838-.193 1.372-.1 4.68 3.03l34.662 30.82 9.403-2.345-10.368-9.218 31.702-7.905c8.749-2.18 15.81.094 17.167 5.534 1.356 5.441-3.808 10.765-12.56 12.946l-89.197 22.24a11 11 0 0 0-.335.09l-24.43.827c-3.885.175-4.728-1.224-5.259-2.706l-7.566-20.41c1.554-.364 1.88-.194 4.816 1.57zM176 160H16v-8h160z"/></svg>