<svg xmlns="http://www.w3.org/2000/svg" xml:space="preserve" viewBox="0 0 192 192"><path d="M73.686 160q-.62 0-1.24-.11a7 7 0 0 1-5.205-4.099l-9.675-19.397-2.003-2.003-19.241-9.603a7.2 7.2 0 0 1-4.007-4.496 6.95 6.95 0 0 1 .834-5.904c1.418-2.143 3.911-3.405 6.466-3.315l19.537.752a2.64 2.64 0 0 0 2.12-.926l.185-.202 18.502-18.814-36.501-17.687a6.27 6.27 0 0 1-3.323-5.07 6.27 6.27 0 0 1 2.498-5.524l6.726-5.045a9.48 9.48 0 0 1 7.078-1.769l50.243 7.797c.48.071.972-.087 1.316-.43l30.117-30.118.465-.266c3.202-1.829 10.861-3.653 17.068 2.422l.001-.001.113.113.018.018h-.001c6.076 6.209 4.25 13.867 2.42 17.069l-.265.464-30.118 30.118a1.53 1.53 0 0 0-.43 1.315l7.797 50.24a9.46 9.46 0 0 1-1.769 7.08l-5.043 6.726a6.25 6.25 0 0 1-5.522 2.499 6.27 6.27 0 0 1-5.073-3.318l-.068-.136-17.62-36.369L81.07 130.7a2.64 2.64 0 0 0-.925 2.117l.742 19.314c.083 2.103-.613 4.072-1.96 5.538-1.382 1.504-3.278 2.332-5.241 2.332m-30.621-40.788 17.234 8.601 3.845 3.845 8.61 17.263-.604-15.796a10.6 10.6 0 0 1 3.6-8.402l19.585-19.246a7.48 7.48 0 0 1 6.285-1.68 7.48 7.48 0 0 1 5.24 3.854l.069.135 16.718 34.51 3.365-4.486c.225-.3.321-.685.263-1.056l-7.796-50.238a9.56 9.56 0 0 1 2.678-8.2l29.279-29.277c.507-1.17 1.422-4.262-1.38-7.124-2.847-2.787-5.918-1.9-7.133-1.375l-29.27 29.271a9.57 9.57 0 0 1-8.198 2.68l-50.243-7.797a1.4 1.4 0 0 0-1.055.264l-4.483 3.363 34.645 16.788a7.48 7.48 0 0 1 3.854 5.241 7.48 7.48 0 0 1-1.68 6.284l-.184.201-19.063 19.385a10.58 10.58 0 0 1-8.402 3.6z"/></svg>