<svg xmlns="http://www.w3.org/2000/svg" viewBox="0 0 192 192"><path d="M99.318 112.18q.286 0 .495.244l1.384 1.57a7.74 7.74 0 0 1-2.825 2.397q-1.677.832-4.026.832-2.1 0-3.777-.79a8.36 8.36 0 0 1-2.864-2.195q-1.187-1.405-1.82-3.357-.633-1.951-.633-4.262 0-2.339.704-4.283.705-1.944 1.984-3.35A8.95 8.95 0 0 1 91 96.797q1.78-.782 3.933-.782 2.1 0 3.674.74a8.6 8.6 0 0 1 2.694 1.958l-1.174 1.713q-.105.173-.268.302t-.45.129q-.3 0-.613-.258a8 8 0 0 0-.796-.56 6.2 6.2 0 0 0-1.22-.56q-.738-.258-1.873-.258c-.887 0-1.585.126-2.329.466-.743.339-1.512.949-2.047 1.58q-.802.947-1.253 2.303t-.45 3.05q0 1.75.45 3.113c.3.909.662 1.729 1.176 2.35a5.5 5.5 0 0 0 1.858 1.454c.696.33 1.456.495 2.256.495a9 9 0 0 0 1.298-.086q.58-.087 1.07-.273c.49-.186.635-.285.927-.48a6 6 0 0 0 .868-.725 1.2 1.2 0 0 1 .273-.209.64.64 0 0 1 .314-.079m8.062 4.814v-10.647c.605-.505 1.289-.856 1.812-1.134a3.54 3.54 0 0 1 1.682-.416q1.22 0 1.829.739.61.74.61 2.088v9.37h3.461v-9.37q0-1.234-.315-2.26a5.1 5.1 0 0 0-.925-1.765 4.1 4.1 0 0 0-1.52-1.148q-.912-.41-2.089-.41-1.36 0-2.368.503c-.673.335-1.132.494-2.177 1.32v-7.646h-3.461v20.776zm22.113-10.85q-.589-.747-1.283-1.041a3.8 3.8 0 0 0-1.506-.294q-.785 0-1.416.301t-1.072.919c-.442.618-.52.93-.68 1.557a8 8 0 0 0-.204 1.201h-.004c-.012.235-.03.458-.03.717q0 1.276.238 2.217.24.94.68 1.556a2.8 2.8 0 0 0 1.072.919q.63.3 1.416.301a3.8 3.8 0 0 0 1.506-.294q.694-.294 1.283-1.04v-7.02zm1.177 10.836q-.35 0-.554-.158-.202-.157-.287-.531l-.154-.99a7 7 0 0 1-.736.782 4.2 4.2 0 0 1-.834.595q-.448.245-.995.38a5 5 0 0 1-1.205.137q-1.416 0-2.558-.581a5.8 5.8 0 0 1-1.948-1.615q-.805-1.032-1.24-2.439-.435-1.406-.435-3.056c0-.254.043-.717.043-.717a10 10 0 0 1 .391-2.04q.436-1.407 1.24-2.44a5.8 5.8 0 0 1 1.949-1.614q1.142-.582 2.558-.582.658 0 1.205.137.546.135.995.38.45.243.834.595c.384.352.502.495.736.782l.154-.99q.084-.373.287-.53.203-.159.554-.159h2.284v14.654zm9.561.014v-9.17q.533-1.177 1.303-1.786.77-.61 1.85-.61.603 0 .967.1.365.101.575.101a.6.6 0 0 0 .379-.108q.14-.106.182-.366l.448-2.654q-.7-.502-1.766-.502-1.29 0-2.326.789-1.038.79-1.808 2.152l-.21-1.779q-.07-.488-.28-.689t-.743-.2h-2.033v14.722zm16.382-10.976q-.589-.732-1.282-1.033t-1.492-.301q-.786 0-1.423.301a2.8 2.8 0 0 0-1.079.911q-.441.61-.68 1.55-.238.94-.238 2.217 0 1.29.203 2.188.203.897.582 1.464t.925.818q.546.25 1.219.25 1.08 0 1.836-.458.757-.46 1.43-1.306v-6.6zm3.017 13.135c-.34.942-.84 1.678-1.424 2.33-.584.65-1.297 1.052-2.082 1.391q-1.177.51-2.509.51a10.4 10.4 0 0 1-1.527-.115 7 7 0 0 1-1.493-.395c-.481-.186-1.252-.634-1.7-.945a6.3 6.3 0 0 1-1.248-1.155l.995-1.291q.21-.33.63-.33.324 0 .582.208c.173.139.861.743 1.778 1.117q.511.208 1.338.208c.552 0 2.801.052 3.462-2.66.162-.606.177-1.45.179-2.226l.002-.67q-.434.474-.917.854a5.66 5.66 0 0 1-3.525 1.212 4.7 4.7 0 0 1-2.159-.502 4.8 4.8 0 0 1-1.688-1.456q-.708-.954-1.094-2.36-.385-1.407-.385-3.215 0-1.635.434-3.042.435-1.405 1.248-2.44a5.85 5.85 0 0 1 1.948-1.614q1.136-.58 2.55-.58.674 0 1.227.121a4.55 4.55 0 0 1 1.885.897q.392.316.757.717l.182-.818a.74.74 0 0 1 .308-.487q.239-.158.575-.158h2.116V115.8c-.002 1.197-.106 2.417-.445 3.353m13.076-12.512a3 3 0 0 0-.56-1.07 2.7 2.7 0 0 0-.953-.724q-.575-.265-1.346-.265-1.513 0-2.368.875-.856.876-1.093 2.482h6.503a4.5 4.5 0 0 0-.183-1.298m3.259 2.74a1.1 1.1 0 0 1-.126.417.5.5 0 0 1-.245.215 1 1 0 0 1-.393.064h-8.886q.154 2.268 1.192 3.33 1.037 1.06 2.747 1.061.84 0 1.45-.2a6.7 6.7 0 0 0 1.065-.446q.455-.243.8-.445.342-.2.665-.2.21 0 .365.086a.8.8 0 0 1 .266.244l1.009 1.291q-.575.69-1.29 1.155a7.2 7.2 0 0 1-1.492.746 8 8 0 0 1-1.584.395 11 11 0 0 1-1.563.115q-1.5 0-2.788-.51a6.2 6.2 0 0 1-2.243-1.506q-.953-.998-1.5-2.468-.546-1.47-.546-3.408 0-1.508.476-2.834a6.8 6.8 0 0 1 1.367-2.31 6.4 6.4 0 0 1 2.172-1.557q1.283-.574 2.894-.574 1.359 0 2.502.445t1.97 1.298q.826.855 1.288 2.095.463 1.242.463 2.834 0 .401-.035.668zM90.668 75.744h3.402q1.037 0 1.808-.266.771-.265 1.275-.76.505-.495.757-1.206a4.7 4.7 0 0 0 .252-1.585 4.3 4.3 0 0 0-.252-1.507 3 3 0 0 0-.757-1.148q-.504-.474-1.275-.724-.771-.252-1.808-.251h-3.402zm0 3.013v7.304h-3.497V65.31h6.736q2.031 0 3.518.489 1.486.488 2.452 1.363a5.35 5.35 0 0 1 1.43 2.095q.462 1.22.462 2.669 0 1.506-.49 2.762a5.7 5.7 0 0 1-1.472 2.16q-.98.903-2.452 1.406t-3.448.502h-3.239zm14.017 7.304h3.462V65.284h-3.462V86.06zm7.333-14.723v9.356q0 1.234.315 2.26t.933 1.772q.615.747 1.52 1.155.905.41 2.081.41a5.6 5.6 0 0 0 2.502-.567q.54-.267 1.016-.646.477-.38.925-.84l.238 1.177q.21.645.883.645h2.117V71.337h-3.462v10.648a5.9 5.9 0 0 1-1.486 1.126 3.6 3.6 0 0 1-1.682.409q-1.218 0-1.829-.74-.61-.738-.61-2.087v-9.356h-3.46zm25.5 3.747q-.588-.732-1.282-1.033a3.7 3.7 0 0 0-1.493-.301q-.785 0-1.422.301a2.8 2.8 0 0 0-1.08.911q-.44.61-.679 1.55t-.238 2.217q0 1.29.203 2.188.203.897.582 1.464t.925.818q.546.25 1.219.25 1.08 0 1.836-.458.755-.46 1.43-1.306v-6.6zm3.017 13.135c-.34.942-.84 1.679-1.425 2.33-.583.65-1.297 1.052-2.081 1.391q-1.177.51-2.509.51a10.4 10.4 0 0 1-1.528-.115 7 7 0 0 1-1.492-.395c-.481-.186-1.253-.634-1.701-.945a6.3 6.3 0 0 1-1.247-1.155l.995-1.291q.21-.33.63-.33.324 0 .582.208c.173.139.861.743 1.778 1.117q.511.208 1.338.208c.552 0 2.8.052 3.462-2.66.162-.606.177-1.45.179-2.226l.002-.67q-.434.474-.918.854a5.66 5.66 0 0 1-3.525 1.212 4.7 4.7 0 0 1-2.158-.502 4.8 4.8 0 0 1-1.689-1.456q-.707-.954-1.093-2.36-.385-1.407-.385-3.215 0-1.635.434-3.042.435-1.405 1.248-2.44a5.85 5.85 0 0 1 1.948-1.614q1.136-.58 2.55-.58.674 0 1.227.121a4.54 4.54 0 0 1 1.885.897q.392.316.757.717l.182-.818a.74.74 0 0 1 .308-.487 1 1 0 0 1 .575-.158h2.116v13.541c-.002 1.197-.106 2.417-.445 3.353m11.683-11.845q-1.12.746-1.633 1.679a4.1 4.1 0 0 0-.511 2.009q0 .79.266 1.42a3.12 3.12 0 0 0 1.801 1.744 3.6 3.6 0 0 0 1.296.236q1.234.001 2.25-.394a6.6 6.6 0 0 0 1.857-1.098zm9.264 5.18 4.247 4.506h-3.392a3.4 3.4 0 0 1-.47-.03 1.5 1.5 0 0 1-.385-.107 1.7 1.7 0 0 1-.35-.208 2.7 2.7 0 0 1-.35-.33l-1.402-1.478a10.6 10.6 0 0 1-2.992 1.75q-1.647.632-3.567.632a6.7 6.7 0 0 1-2.299-.409 6.3 6.3 0 0 1-2.004-1.184 6 6 0 0 1-1.422-1.872q-.54-1.098-.54-2.475 0-.96.309-1.83.308-.868.854-1.614a7.2 7.2 0 0 1 1.297-1.349 8.5 8.5 0 0 1 1.647-1.033q-.744-1.077-1.087-2.102a6.4 6.4 0 0 1-.343-2.045q0-1.077.386-2.045a4.8 4.8 0 0 1 1.12-1.686q.736-.717 1.802-1.14c1.066-.423 1.513-.424 2.41-.424q1.233 0 2.208.388a5.3 5.3 0 0 1 1.667 1.033 4.9 4.9 0 0 1 1.563 3.2l-2.2.473a.3.3 0 0 1-.091.014h-.091a.7.7 0 0 1-.428-.136.9.9 0 0 1-.301-.423 4 4 0 0 0-.323-.71 2.4 2.4 0 0 0-.476-.589 2.2 2.2 0 0 0-1.528-.552q-.589 0-1.051.208a2.4 2.4 0 0 0-.785.56 2.4 2.4 0 0 0-.49.818 2.9 2.9 0 0 0-.168.982q0 .43.09.833.092.401.288.803t.512.825.777.912l5.382 5.725q.462-.905.743-1.909t.364-2.037a.88.88 0 0 1 .21-.531q.183-.201.505-.201h2.172a12.8 12.8 0 0 1-.532 3.616 11.8 11.8 0 0 1-1.486 3.171m-92.419 5.192a.53.53 0 0 0-.528-.457H42.667a4.268 4.268 0 0 0 0 8.535h25.868c.265 0 .49-.194.528-.457a27 27 0 0 0 0-7.62zm-26.396 21.9c-9.99 0-18.09-8.099-18.09-18.09s8.1-18.089 18.09-18.089c5.49 0 10.409 2.446 13.726 6.308a.533.533 0 0 0 .74.067l5.84-4.729a.533.533 0 0 0 .07-.759c-4.89-5.788-12.204-9.464-20.376-9.464C27.939 63.89 16 75.829 16 90.556v39.467c0 .295.239.534.533.534h7.51a.533.533 0 0 0 .534-.534v-19.276c0-.385.154-.455.443-.2a26.56 26.56 0 0 0 17.647 6.676c8.172 0 15.485-3.676 20.377-9.464a.533.533 0 0 0-.072-.76l-5.839-4.728a.533.533 0 0 0-.74.068 18.05 18.05 0 0 1-13.726 6.307z"/></svg>