<svg xmlns="http://www.w3.org/2000/svg" viewBox="0 0 192 192"><path d="M144 40V16H48v24h16v48.403C54.882 90.262 48 98.342 48 108s6.882 17.738 16 19.597V136c0 16.29 12.237 29.765 28 31.741V176h8v-8.259c15.763-1.976 28-15.451 28-31.741v-8.403c9.118-1.859 16-9.939 16-19.597s-6.882-17.738-16-19.597V40zm-88 68c0-5.213 3.347-9.647 8-11.3v22.6c-4.653-1.653-8-6.087-8-11.3m64 28c0 13.233-10.767 24-24 24s-24-10.767-24-24V32H56v-8h80v8h-16zm16-28c0 5.213-3.347 9.647-8 11.3V96.7c4.653 1.653 8 6.087 8 11.3"/></svg>