<svg xmlns="http://www.w3.org/2000/svg" viewBox="0 0 192 192"><path d="M96.122 176c-44.113 0-80-35.888-80-80s35.887-80 80-80 80 35.888 80 80-35.888 80-80 80m0-152c-39.702 0-72 32.299-72 72s32.298 72 72 72 72-32.299 72-72-32.3-72-72-72m37.649 57.057a.76.76 0 0 0-.753-.652H96.122a6.087 6.087 0 0 0 0 12.173h36.896a.76.76 0 0 0 .753-.652c.254-1.775.385-3.59.385-5.435s-.131-3.66-.385-5.434m-37.65 31.235c-14.249 0-25.8-11.551-25.8-25.8s11.551-25.801 25.8-25.801c7.831 0 14.847 3.488 19.579 8.996a.76.76 0 0 0 1.055.096l8.328-6.744a.76.76 0 0 0 .102-1.083c-6.976-8.256-17.408-13.499-29.063-13.499-21.006 0-38.035 17.029-38.035 38.034v56.291c0 .42.341.76.761.76H69.56a.76.76 0 0 0 .761-.76V115.29c0-.55.22-.649.632-.284a37.9 37.9 0 0 0 25.169 9.52c11.655 0 22.087-5.242 29.063-13.499a.76.76 0 0 0-.102-1.082l-8.328-6.744a.76.76 0 0 0-1.055.096c-4.732 5.508-11.748 8.996-19.578 8.996z"/></svg>