<svg xmlns="http://www.w3.org/2000/svg" viewBox="0 0 192 192"><path d="M96 176c-44.112 0-80-35.888-80-80s35.888-80 80-80 80 35.888 80 80-35.888 80-80 80m0-152c-39.701 0-72 32.299-72 72s32.299 72 72 72 72-32.299 72-72-32.299-72-72-72m2.206 83.042a1 1 0 0 0-.2.153 4.4 4.4 0 0 1-.638.532q-.32.216-.68.353-.36.138-.786.2a6.6 6.6 0 0 1-.954.064 3.8 3.8 0 0 1-1.656-.364 4 4 0 0 1-1.365-1.067c-.377-.457-.643-1.059-.863-1.726q-.33-1.001-.33-2.287 0-1.243.33-2.24.33-.995.92-1.69c.393-.464.957-.912 1.503-1.161.546-.25 1.059-.342 1.71-.342q.834 0 1.376.19t.896.41q.354.222.584.412t.45.19q.21 0 .331-.095a.8.8 0 0 0 .197-.222l.862-1.258a6.3 6.3 0 0 0-1.979-1.438q-1.155-.543-2.697-.543-1.58 0-2.89.574a6.6 6.6 0 0 0-2.246 1.607 7.3 7.3 0 0 0-1.457 2.46q-.517 1.429-.517 3.146 0 1.697.464 3.13.465 1.432 1.337 2.466a6.1 6.1 0 0 0 2.104 1.612q1.23.58 2.774.58 1.725 0 2.956-.612a5.7 5.7 0 0 0 2.074-1.76l-1.016-1.153a.466.466 0 0 0-.594-.12zm6.152 3.477v-7.82c.443-.37.946-.628 1.33-.831a2.6 2.6 0 0 1 1.235-.306q.896 0 1.343.543.448.542.448 1.533v6.88h2.542v-6.88a5.7 5.7 0 0 0-.231-1.66 3.7 3.7 0 0 0-.68-1.296 3.04 3.04 0 0 0-1.116-.843q-.67-.3-1.534-.3-.998 0-1.74.369c-.494.246-.83.362-1.597.969v-5.615h-2.543v15.257zm16.238-2.813q-.432.548-.942.764t-1.106.216a2.4 2.4 0 0 1-1.04-.222 2.05 2.05 0 0 1-.787-.674q-.324-.453-.499-1.143t-.175-1.629c0-.19.013-.353.022-.526h.003c.028-.318.083-.618.15-.882q.175-.69.499-1.143t.788-.675a2.4 2.4 0 0 1 1.039-.221 2.8 2.8 0 0 1 1.106.216q.51.216.942.764zm2.542 2.803V99.748h-1.677a.65.65 0 0 0-.407.116q-.15.115-.21.39l-.114.727a5 5 0 0 0-.54-.575 3 3 0 0 0-.613-.437 3 3 0 0 0-.73-.28 3.7 3.7 0 0 0-.886-.1q-1.04 0-1.878.428a4.2 4.2 0 0 0-1.43 1.185 5.5 5.5 0 0 0-.912 1.791 7.3 7.3 0 0 0-.287 1.5s-.032.34-.032.526q0 1.211.32 2.244.319 1.034.91 1.791.593.76 1.43 1.186.84.427 1.88.427.483 0 .884-.1a3.06 3.06 0 0 0 1.344-.717q.283-.258.54-.574l.113.727q.062.275.211.39a.65.65 0 0 0 .407.116zm5.344.01v-6.734q.39-.864.957-1.311.566-.449 1.359-.448.442 0 .71.073.268.075.422.074.176 0 .278-.079t.134-.269l.329-1.949q-.514-.369-1.297-.369-.946 0-1.708.58t-1.328 1.58l-.154-1.306q-.052-.36-.206-.506t-.546-.148h-1.492v10.812zm12.031-3.213q-.495.622-1.05.96-.555.336-1.348.336-.495 0-.895-.184a1.64 1.64 0 0 1-.68-.6q-.277-.417-.427-1.076-.15-.658-.15-1.607.001-.937.176-1.628.174-.69.5-1.138a2.06 2.06 0 0 1 .791-.669q.469-.22 1.045-.221.587 0 1.096.221t.942.759zm2.542 2.336v-9.944h-1.554a.75.75 0 0 0-.422.116.54.54 0 0 0-.226.358l-.134.6a5 5 0 0 0-.556-.526 3.34 3.34 0 0 0-1.384-.659 4.2 4.2 0 0 0-.9-.09q-1.04 0-1.874.428a4.3 4.3 0 0 0-1.43 1.185 5.5 5.5 0 0 0-.917 1.792 7.5 7.5 0 0 0-.319 2.233q0 1.329.283 2.361.284 1.032.803 1.733t1.24 1.07 1.585.369a4.1 4.1 0 0 0 2.589-.89 5.7 5.7 0 0 0 .674-.628l-.002.492c-.001.57-.012 1.19-.131 1.635-.486 1.992-2.137 1.953-2.542 1.953q-.608 0-.983-.152c-.673-.275-1.179-.719-1.306-.82a.67.67 0 0 0-.427-.154.51.51 0 0 0-.463.243l-.73.948q.42.506.915.848c.33.229.896.557 1.25.694a5 5 0 0 0 1.095.29 8 8 0 0 0 1.122.085q.978 0 1.842-.375c.577-.249 1.1-.544 1.53-1.022a5.1 5.1 0 0 0 1.045-1.71c.25-.688.326-1.584.327-2.463m9.41-5.772h-4.776q.176-1.18.803-1.823.629-.643 1.74-.643.565 0 .988.195.421.195.7.532.278.338.411.785.135.448.134.954m2.285.569q0-1.17-.34-2.081a4.4 4.4 0 0 0-.947-1.54 4 4 0 0 0-1.446-.953 5 5 0 0 0-1.837-.326q-1.183 0-2.125.421a4.7 4.7 0 0 0-1.595 1.144 5 5 0 0 0-1.004 1.696 6.1 6.1 0 0 0-.35 2.081q0 1.423.401 2.503.402 1.08 1.102 1.812a4.6 4.6 0 0 0 1.647 1.107q.945.374 2.048.374.555 0 1.147-.084a6 6 0 0 0 1.163-.29 5.3 5.3 0 0 0 1.097-.548q.525-.342.946-.848l-.74-.949a.54.54 0 0 0-.463-.242.97.97 0 0 0-.49.147q-.252.148-.586.327-.335.18-.783.327a3.4 3.4 0 0 1-1.065.147q-1.256 0-2.017-.78-.762-.78-.875-2.444h6.525a.8.8 0 0 0 .289-.048.38.38 0 0 0 .18-.158.8.8 0 0 0 .092-.305q.026-.195.026-.49M92.085 74.756h2.498q.761 0 1.327.185.567.184.937.532.37.347.556.843.185.495.185 1.106 0 .643-.185 1.165a2.3 2.3 0 0 1-.556.885q-.371.363-.937.558t-1.327.195h-2.498zm2.378 7.682q1.45 0 2.532-.369 1.08-.369 1.8-1.032a4.2 4.2 0 0 0 1.082-1.586q.36-.922.36-2.029a5.5 5.5 0 0 0-.34-1.96 3.9 3.9 0 0 0-1.05-1.538q-.71-.643-1.8-1.001-1.092-.36-2.584-.359h-4.947v15.238h2.569v-5.364zm7.915 5.364h2.543V72.544h-2.543zm5.385-10.812v6.87q0 .907.232 1.66.231.755.684 1.302.454.548 1.117.848.664.3 1.528.3a4.1 4.1 0 0 0 1.837-.416q.397-.195.747-.474.35-.28.68-.617l.174.865q.155.474.649.474h1.554V76.99h-2.542v7.82a4.3 4.3 0 0 1-1.091.826q-.577.3-1.236.3-.894 0-1.343-.542-.447-.543-.447-1.533v-6.87zm18.727 7.599a4 4 0 0 1-1.05.959q-.555.337-1.348.337a2.1 2.1 0 0 1-.895-.184 1.64 1.64 0 0 1-.68-.6q-.278-.417-.427-1.076-.15-.658-.15-1.607 0-.938.176-1.628.174-.69.5-1.138a2.06 2.06 0 0 1 .791-.669q.468-.22 1.045-.221.587 0 1.096.221t.942.759zm2.542 2.336v-9.944h-1.554a.75.75 0 0 0-.422.116.54.54 0 0 0-.226.358l-.134.6a5 5 0 0 0-.556-.526 3.36 3.36 0 0 0-1.384-.659 4.2 4.2 0 0 0-.9-.09q-1.04 0-1.874.428a4.3 4.3 0 0 0-1.43 1.185 5.5 5.5 0 0 0-.917 1.791 7.5 7.5 0 0 0-.319 2.234q0 1.328.283 2.36.284 1.034.803 1.734t1.24 1.07q.721.369 1.585.369a4.1 4.1 0 0 0 2.589-.89 5.7 5.7 0 0 0 .674-.628l-.002.492c-.001.57-.012 1.19-.131 1.635-.486 1.992-2.137 1.953-2.542 1.953q-.608 0-.983-.152c-.673-.275-1.179-.719-1.306-.82a.67.67 0 0 0-.427-.154.51.51 0 0 0-.463.243l-.73.948q.42.506.915.848c.33.229.896.557 1.25.694a5 5 0 0 0 1.095.29q.567.084 1.122.084.978 0 1.842-.374c.577-.25 1.1-.544 1.53-1.022a5.1 5.1 0 0 0 1.045-1.71c.25-.688.326-1.584.327-2.463m12.164-2.126a4.9 4.9 0 0 1-1.363.806 4.5 4.5 0 0 1-1.652.29 2.6 2.6 0 0 1-.952-.174 2.4 2.4 0 0 1-.788-.496 2.3 2.3 0 0 1-.535-.785 2.7 2.7 0 0 1-.195-1.043q0-.79.375-1.475.375-.686 1.2-1.233zm3.984-2.635a9.4 9.4 0 0 0 .39-2.655h-1.595a.48.48 0 0 0-.37.147.64.64 0 0 0-.155.39 8 8 0 0 1-.267 1.496 7.5 7.5 0 0 1-.546 1.402l-3.952-4.205a8 8 0 0 1-.571-.669 4 4 0 0 1-.376-.606 2.7 2.7 0 0 1-.278-1.2q0-.38.124-.723c.124-.343.202-.428.36-.6q.237-.259.576-.411.34-.153.772-.153a1.61 1.61 0 0 1 1.122.406q.206.184.35.432t.237.521a.67.67 0 0 0 .221.311q.139.1.314.1h.067a.2.2 0 0 0 .067-.01l1.616-.348a3.6 3.6 0 0 0-1.148-2.35 3.9 3.9 0 0 0-1.225-.759q-.715-.284-1.62-.284-.99 0-1.771.31a4 4 0 0 0-1.323.838q-.54.528-.823 1.238a4 4 0 0 0-.283 1.502q0 .749.252 1.502t.798 1.543q-.659.316-1.21.76a5.3 5.3 0 0 0-.952.99q-.401.547-.627 1.185a4 4 0 0 0-.227 1.344q0 1.011.397 1.818.396.805 1.044 1.375a4.6 4.6 0 0 0 1.472.87q.824.3 1.688.3 1.41 0 2.62-.464a7.8 7.8 0 0 0 2.197-1.286l1.029 1.086q.134.147.257.242.124.095.258.153.133.058.283.079t.344.02h2.491l-3.118-3.308a8.7 8.7 0 0 0 1.09-2.329zm-68.962 6.142a.39.39 0 0 0-.387-.336H56.833a3.134 3.134 0 0 0 0 6.268h18.998a.39.39 0 0 0 .387-.335 19.8 19.8 0 0 0 0-5.597M56.833 104.39c-7.336 0-13.284-5.948-13.284-13.285S49.497 77.82 56.833 77.82a13.25 13.25 0 0 1 10.08 4.632c.139.16.38.182.544.049l4.288-3.472a.39.39 0 0 0 .053-.558c-3.592-4.25-8.963-6.95-14.965-6.95-10.815 0-19.583 8.768-19.583 19.583v28.984c0 .216.175.391.392.391h5.515a.39.39 0 0 0 .392-.391v-14.156c0-.283.113-.334.325-.147a19.5 19.5 0 0 0 12.96 4.903c6 0 11.372-2.7 14.964-6.951a.39.39 0 0 0-.053-.557l-4.288-3.473a.39.39 0 0 0-.543.05 13.25 13.25 0 0 1-10.08 4.632z"/></svg>