<svg xmlns="http://www.w3.org/2000/svg" viewBox="0 0 192 192"><path d="M64 92V65.657l5.937-5.937c.66.177 1.349.28 2.063.28 4.411 0 8-3.589 8-8s-3.589-8-8-8-8 3.589-8 8c0 .714.103 1.404.28 2.063L56 62.343V92h-8v36.331L56 176h8l-7.278-44h50.556L100 176h8l8-47.669V92zm44 8v24H56v-24zm13.667-46.504C127.821 50.082 132 43.522 132 36c0-11.028-8.972-20-20-20s-20 8.972-20 20c0 7.522 4.179 14.082 10.333 17.496C89.399 57.604 80 69.724 80 84h8c0-13.233 10.767-24 24-24s24 10.767 24 24v40h-8v52h8v-44h8V84c0-14.276-9.399-26.396-22.333-30.504M112 24c6.617 0 12 5.383 12 12s-5.383 12-12 12-12-5.383-12-12 5.383-12 12-12"/></svg>