<svg xmlns="http://www.w3.org/2000/svg" viewBox="0 0 192 192"><path d="M96 176a4.12 4.12 0 0 1-4.01-3.265c-.683-3.332-8.966-13.134-18.133-12.803-11.408.395-22.043-3.593-29.967-11.206-7.6-7.3-11.821-17.224-11.888-27.943-.142-22.918 5.876-36.457 10.71-47.336C45.668 66.801 48 61.551 48 56c0-9.54-2.24-12.224-9.942-16.503l-4.636-2.576L56.08 14.263l2.826 2.988c4.085 4.32 10.365 6.805 17.281 6.749 6.787-.03 12.94-2.48 16.883-6.723L96 14.124l2.93 3.153c3.943 4.243 10.096 6.693 16.883 6.723 6.902-.02 13.195-2.43 17.28-6.749l2.827-2.988 22.658 22.658-4.636 2.576C146.24 43.776 144 46.46 144 56c0 5.551 2.333 10.8 5.287 17.447 4.835 10.88 10.853 24.418 10.71 47.336-.066 10.719-4.288 20.642-11.887 27.943-7.924 7.612-18.569 11.595-29.967 11.206-9.175-.3-17.45 9.47-18.13 12.79l-.003.013A4.12 4.12 0 0 1 96 176m-21.705-24.076c9.113 0 17.146 5.933 21.705 11.822 4.677-6.04 13.017-12.128 22.414-11.81 9.232.312 17.801-2.876 24.154-8.98 6.028-5.79 9.377-13.683 9.43-22.223.13-21.194-5.498-33.86-10.021-44.037C138.77 69.48 136 63.25 136 56c0-11.045 3.108-16.281 9.584-20.76l-9.729-9.728C130.495 29.675 123.449 32 115.938 32h-.16c-7.5-.033-14.503-2.392-19.778-6.573-5.275 4.18-12.278 6.54-19.778 6.573h-.16c-7.512 0-14.556-2.325-19.917-6.488l-9.729 9.729C52.892 39.719 56 44.955 56 56c0 7.249-2.77 13.48-5.977 20.696-4.523 10.178-10.152 22.843-10.02 44.037.052 8.54 3.4 16.433 9.43 22.224 6.352 6.104 14.92 9.287 24.153 8.98q.356-.013.71-.013zm45.574-20.674L96 118.935 72.131 131.25l4.561-26.097-19.404-18.561 26.807-3.823L96 59.097l11.905 23.672 26.807 3.823-19.404 18.561 4.56 26.097zM96 109.933l13.213 6.817-2.52-14.426 10.595-10.136-14.652-2.089L96 76.903l-6.636 13.196-14.652 2.09 10.596 10.135-2.521 14.426z"/></svg>