<svg xmlns="http://www.w3.org/2000/svg" viewBox="0 0 192 192"><path d="M147.847 99.713c-.798 11.247-5.126 21.709-12.516 30.256l6.052 5.232c8.529-9.864 13.523-21.94 14.444-34.922zM96 16c-44.112 0-80 35.888-80 80 0 21.369 8.321 41.458 23.431 56.569l5.657-5.657C31.489 133.313 24 115.232 24 96c0-39.701 32.299-72 72-72s72 32.299 72 72c0 19.232-7.489 37.313-21.088 50.912l5.657 5.657C167.679 137.459 176 117.369 176 96c0-44.112-35.888-80-80-80m59.829 75.696c-.918-13.007-5.923-25.103-14.475-34.979l-6.048 5.237c7.41 8.557 11.747 19.037 12.542 30.305l7.98-.563ZM99.717 44.131c11.268.795 21.747 5.132 30.305 12.542l5.236-6.048c-9.876-8.552-21.971-13.557-34.978-14.475l-.563 7.98Zm-8.02-7.979c-12.983.92-25.059 5.916-34.923 14.444l5.232 6.052c8.547-7.391 19.01-11.719 30.257-12.517zM36.21 91.696l7.98.563c.795-11.268 5.132-21.748 12.542-30.305l-6.048-5.237c-8.551 9.876-13.557 21.971-14.475 34.979Zm.002 8.583c.92 12.982 5.915 25.058 14.444 34.922l6.052-5.232c-7.39-8.547-11.718-19.01-12.516-30.256l-7.979.566Zm46.435 35.432L90.45 104.5H73.984l35.369-44.211L101.55 91.5h16.466z"/></svg>