<svg xmlns="http://www.w3.org/2000/svg" viewBox="0 0 192 192"><path d="M96 16c-44.112 0-80 35.888-80 80 0 21.369 8.321 41.458 23.431 56.569l5.657-5.657C31.489 133.313 24 115.232 24 96c0-39.701 32.299-72 72-72s72 32.299 72 72c0 19.232-7.489 37.313-21.088 50.912l5.657 5.657C167.679 137.459 176 117.369 176 96c0-44.112-35.888-80-80-80m-59.788 84.279c.92 12.982 5.915 25.058 14.444 34.922l6.052-5.232c-7.39-8.547-11.718-19.01-12.516-30.256l-7.979.566Zm81.804-8.779H101.55l7.803-31.211L73.984 104.5H90.45l-7.803 31.211z"/></svg>