<svg xmlns="http://www.w3.org/2000/svg" xml:space="preserve" viewBox="0 0 192 192"><path d="M176 39.999v104H96.07v-8H168v-88H36v23.948h-8V39.999zm-16 16H84v8h76zm-76 24h24.096v-8H84zm23.656 33.625 16-36-7.31-3.25-16 36zm-5.095 9.448L73.056 147.66l-1.015-7.095C70.364 128.841 60.029 120 48.001 120c-13.234 0-24 10.766-24 24V148l-8 .002V144c0-14.277 9.398-26.397 22.332-30.505C32.179 110.081 28 103.521 28 96c0-11.028 8.973-20 20-20s20 8.972 20 20c0 7.518-4.174 14.075-10.323 17.49 9.439 2.967 17.138 10.14 20.61 19.398l19.153-15.96zm-66.56-27.073c0 6.617 5.383 12 12 12s12-5.383 12-12-5.384-12-12-12-12 5.383-12 12"/></svg>