<svg xmlns="http://www.w3.org/2000/svg" viewBox="0 0 192 192"><path d="M110.791 166.244c-7.276 1.047-16.264 1.756-26.77 1.756-28.567 0-45.962-5.236-48.021-8.273V41.07c2.736 1.247 6.165 2.35 10.338 3.313C56.449 46.715 69.832 48 84.02 48s27.572-1.285 37.684-3.617c4.172-.963 7.602-2.066 10.337-3.313v64.888a39.7 39.7 0 0 1 8-1.652V33h-.07q.07-.492.07-1c0-5.486-5.998-9.537-18.337-12.383C111.593 17.285 98.21 16 84.021 16s-27.572 1.285-37.683 3.617C33.998 22.463 28 26.514 28 32q0 .508.07 1H28v127c0 15.551 50.287 16 56.021 16 3.062 0 18.824-.129 32.852-2.615a40.3 40.3 0 0 1-6.082-7.14zM84.021 24c27.726 0 44.927 4.933 47.8 8-2.873 3.067-20.074 8-47.8 8s-44.927-4.933-47.8-8c2.873-3.067 20.075-8 47.8-8m60.062 152.103c-17.645 0-32-14.355-32-32s14.355-32 32-32 32 14.355 32 32-14.355 32-32 32m0-56c-13.233 0-24 10.766-24 24s10.767 24 24 24 24-10.767 24-24-10.766-24-24-24m-4 37.656-10.828-10.828 5.657-5.657 5.171 5.172 13.172-13.172 5.657 5.657z"/></svg>