<svg xmlns="http://www.w3.org/2000/svg" viewBox="0 0 192 192"><path d="M152.1 32c0-5.487-6.008-9.538-18.366-12.383C123.606 17.285 110.201 16 95.99 16s-27.618 1.285-37.746 3.617C45.885 22.462 39.877 26.513 39.877 32c0 .427.05.843.123 1.253V160c0 15.551 50.268 16 56 16s56-.449 56-16V33.147c.06-.376.1-.757.1-1.147m-56.111-8c27.767 0 45 4.932 47.886 8-2.886 3.068-20.119 8-47.886 8s-45.001-4.932-47.887-8c2.886-3.068 20.119-8 47.887-8M96 168c-28.555 0-45.941-5.236-48-8.273V41.122c2.722 1.226 6.12 2.312 10.243 3.261C68.37 46.715 81.776 48 95.989 48q3.146-.002 6.226-.086L98.141 70.13l6.778 4.863-3.547 18.672-15.679 11.067.006.008-1.607 1.092 16.6 24.417 6.616-4.498-12.166-17.896 13.486-9.52 3.458-18.2 11.552 8.287 4.663-6.5-21.377-15.336 3.494-19.046c8.707-.564 16.711-1.636 23.316-3.157 4.134-.952 7.54-2.042 10.266-3.272v118.616c-2.059 3.037-19.445 8.273-48 8.273"/></svg>