<svg xmlns="http://www.w3.org/2000/svg" viewBox="0 0 192 192"><path d="M117.876 92C125.283 85.758 130 76.422 130 66c0-18.748-15.252-34-34-34h-4v42.124C85.758 66.717 76.422 62 66 62c-18.748 0-34 15.252-34 34v4h42.124C66.717 106.242 62 115.578 62 126c0 18.748 15.252 34 34 34h4v-42.124c6.242 7.407 15.578 12.124 26 12.124 18.748 0 34-15.252 34-34v-4zM100 40.307c12.444 1.93 22 12.716 22 25.693s-9.556 23.763-22 25.693zM66 70c12.977 0 23.763 9.556 25.693 22H40.307C42.237 79.556 53.023 70 66 70m26 81.693c-12.444-1.93-22-12.716-22-25.693s9.556-23.763 22-25.693zM126 122c-12.977 0-23.763-9.556-25.693-22h51.386c-1.93 12.444-12.716 22-25.693 22"/></svg>