<svg xmlns="http://www.w3.org/2000/svg" viewBox="0 0 192 192"><path fill="#231f20" d="M78 126c1.962-3.676 12.905-24 12.905-24s3.34-5.532 9.095-4.74c2.641.364 3.635-.903 5.314-1.558 2.074-.797 4.483-1.138 7.18 1.153 1.205.862 1.742 1.004 2.896 3.145 0 0-.594 1.582-1.876 3.597-.436.928-1.05 1.851-1.827 2.745 0 0-12.375 16.758-13.023 17.414-.648.655-2.993 4.595-6.436 4.682-3.225.56-5.518 1.529-6.835 2.873-1.419 1.45-7.225 6.942-12.399 5.28-4.362-.914-3.907-2.849-3.907-2.849l4.9-2.977s2.217-1.4 4.013-4.765m34.822-19.56-.038.045.038-.046zm-35.868-2.752 17.58-15.2a4 4 0 0 0-5.233-6.052l-17.58 15.2a4 4 0 0 0 5.233 6.052m83.694-49.364c0 4.802-1.53 9.252-4.12 12.897l.01.007-47.635 70.855.009.005-.277.41-.076.113-1.987 2.94-.003-.002c-5.822 8.577-21.185 17.824-35.883 17.824-20.696 0-38.851-19.311-38.851-41.326 0-15.818 8.856-23.312 19.555-30.81l2.114-1.447 70.56-48.627A22.22 22.22 0 0 1 138.324 32c12.31 0 22.324 10.014 22.324 22.324m-20.137 22.215a22.2 22.2 0 0 1-13.056-2.726c-1.641 1.144-4.547 3.394-4.547 3.394l-9.613-10.49c-2.419.525-5.035 1.139-7.4 1.792-9.203 2.75-12.135 3.963-21.822 8.837L58.165 92.284l-2.22 1.53c-9.717 6.81-16.11 12.19-16.11 24.233 0 10.754 5.294 20.7 13.118 26.878a5.77 5.77 0 0 1 3.482-1.168c3.207 0 5.808 2.6 5.808 5.808 0 .139-.011.274-.021.41 2.713.902 5.556 1.398 8.464 1.398 11.708 0 24.589-7.411 29.275-14.333l.488-.72 39.627-58.942zM176 52c0 9.91-3.306 19.438-10.404 29.983l-.068.098-1.477 2.06-49.449 73.228-3.127 3.754C102.041 170.995 88.087 176 70 176c-14.212 0-27.575-5.812-37.624-16.366-9.67-10.154-15.495-23.757-16.4-38.304-1.179-18.893 5.665-32.23 22.19-43.247l2.8-1.867 75.718-51.484C122.801 20.414 130.355 16 140 16c19.85 0 36 16.15 36 36m-8 0c0-15.44-12.561-28-28-28-7.37 0-13.327 3.477-18.665 7.242l-.318.231-75.583 51.38-2.83 1.886c-14.061 9.375-19.638 20.169-18.644 36.093.79 12.671 5.835 24.492 14.209 33.285C46.694 163.07 57.999 168 69.999 168c15.754 0 27.73-4.14 35.598-12.306l2.597-3.129 49.324-73.042 1.475-2.056C165.22 68.2 168 60.343 168 52m-96.44 65.83c0-6.616-5.383-12-12-12s-12 5.384-12 12 5.383 12 12 12 12-5.383 12-12m-8 0c0 2.206-1.794 4-4 4s-4-1.794-4-4 1.794-4 4-4 4 1.795 4 4"/></svg>