<svg xmlns="http://www.w3.org/2000/svg" viewBox="0 0 192 192"><path d="M139.936 42c-3.475 0-6.83 1.155-9.667 3.312a4 4 0 0 1-2.396.79c-2.171 0-3.872-1.802-3.872-4.103v-26H40v160h84v-22.081l-.041-1.919c0-6.602-5.197-11.774-11.832-11.774a11.97 11.97 0 0 0-7.202 2.394c-1.204.916-2.84 1.38-4.862 1.38-4.446 0-8.064-3.589-8.064-8s3.618-8 8.064-8c2.162 0 3.837.929 4.899 1.735a11.93 11.93 0 0 0 7.165 2.367c6.606 0 11.787-5.27 11.831-12.014l.029-20.088h.012V77.053l.041-3.054c0-2.222 1.576-3.774 3.832-3.774.872 0 1.7.273 2.359.762 2.628 1.999 5.894 3.012 9.705 3.012 8.858 0 16.064-7.178 16.064-16s-7.206-16-16.064-16ZM116 100l-.041 20c0 2.3-1.683 4.103-3.832 4.103-.872 0-1.7-.273-2.36-.763-2.874-2.185-6.229-3.339-9.704-3.339-8.858 0-16.064 7.178-16.064 16s7.206 16 16.064 16c3.811 0 7.076-1.013 9.667-2.983a4 4 0 0 1 2.397-.791c2.256 0 3.832 1.552 3.833 3.855l.04 15.919H48v-68h20c6.64 0 12.042-5.383 12.042-12 0-2.594-.818-5.064-2.394-7.181a7.9 7.9 0 0 1-1.627-4.819c0-4.411 3.618-8 8.064-8s8.064 3.589 8.064 8a7.92 7.92 0 0 1-1.655 4.855 11.88 11.88 0 0 0-2.367 7.145c0 6.559 5.311 11.899 11.872 11.991V100zm23.936-34c-2.022 0-3.658-.464-4.899-1.408a11.94 11.94 0 0 0-7.165-2.366c-6.634 0-11.832 5.172-11.831 11.72L116 92h-15.834c-2.227-.003-4.038-1.796-4.038-4 0-.86.271-1.679.755-2.33a15.82 15.82 0 0 0 3.266-9.67c0-8.822-7.206-16-16.064-16s-16.064 7.178-16.064 16c0 3.524 1.129 6.868 3.238 9.633.512.688.783 1.507.783 2.367 0 2.206-1.813 4-4.042 4H48V24h68v18c0 6.673 5.326 12.103 11.872 12.103 2.602 0 5.08-.818 7.202-2.394 1.025-.779 2.701-1.708 4.862-1.708 4.446 0 8.064 3.589 8.064 8s-3.618 8-8.064 8Z"/></svg>