<svg xmlns="http://www.w3.org/2000/svg" viewBox="0 0 192 192"><path d="M16 27.96v136h160v-136zm8 128v-120h44v43.86c0 2.264-1.794 4.104-4 4.104a3.87 3.87 0 0 1-2.318-.758A15.76 15.76 0 0 0 52 79.87c-8.822 0-16 7.248-16 16.156s7.178 16.156 16 16.156a15.73 15.73 0 0 0 9.645-3.265A3.9 3.9 0 0 1 64 108.13c2.206 0 4 1.841 4 4.105v43.725zm144 0H76v-43.725c0-6.675-5.383-12.105-12-12.105-2.6 0-5.074.826-7.192 2.415A7.83 7.83 0 0 1 52 104.183c-4.411 0-8-3.659-8-8.156s3.589-8.156 8-8.156c1.751 0 3.413.566 4.844 1.666A11.84 11.84 0 0 0 64 91.923c6.56 0 11.898-5.337 11.99-11.932H76V35.96h92zm-64-40h56v-40h-56v10.092l-20-8v35.817l20-8zm8-32h40v24h-40zm-20 18.092V89.87l12 4.8v2.583z"/></svg>