<svg xmlns="http://www.w3.org/2000/svg" viewBox="0 0 192 192"><path d="M155.995 175.995H36.005V136.45c0-7.804 6.36-14.153 14.177-14.153 3.059 0 5.972.957 8.426 2.77a11.23 11.23 0 0 0 6.847 2.309c6.218 0 11.277-5.043 11.277-11.242s-5.06-11.24-11.277-11.24c-2.483 0-4.838.788-6.81 2.28a14.1 14.1 0 0 1-8.463 2.798c-7.818 0-14.177-6.349-14.177-14.153V56.005H76c3.374 0 5.823-2.48 5.823-5.896a6.1 6.1 0 0 0-1.206-3.656c-2.533-3.33-3.885-7.348-3.885-11.58 0-10.605 8.643-19.232 19.268-19.232s19.268 8.627 19.268 19.232c0 4.232-1.352 8.25-3.912 11.616a6.06 6.06 0 0 0-1.18 3.62c0 3.416 2.45 5.896 5.824 5.896h39.995zm-112-7.99h104.01V63.995H116c-7.746 0-13.813-6.099-13.813-13.886 0-3.057.961-5.968 2.78-8.42 1.521-2 2.31-4.345 2.31-6.816 0-6.199-5.058-11.242-11.277-11.242s-11.278 5.043-11.278 11.242c0 2.471.79 4.816 2.283 6.78a14.06 14.06 0 0 1 2.808 8.456c0 7.787-6.067 13.886-13.813 13.886H43.995v31.823c0 3.398 2.776 6.162 6.187 6.162 1.338 0 2.61-.417 3.679-1.207 3.333-2.523 7.355-3.871 11.594-3.871 10.624 0 19.267 8.627 19.267 19.231s-8.643 19.232-19.267 19.232c-4.239 0-8.26-1.349-11.632-3.9a6.1 6.1 0 0 0-3.641-1.179c-3.411 0-6.187 2.765-6.187 6.163z"/></svg>