<svg xmlns="http://www.w3.org/2000/svg" viewBox="0 0 192 192"><path d="M126 133.975c0 5.032-1.172 9.477-3.322 12.847-2.1 3.322-5.666 5.178-9.77 5.178-8.156 0-13.188-6.936-13.188-18.22 0-4.738 1.221-9.427 3.322-12.602 2.149-3.322 5.666-5.178 9.818-5.178 8.06 0 13.14 6.985 13.14 17.975m-18.415-.146c0 7.864 1.905 12.163 5.324 12.163 3.322 0 5.226-4.348 5.226-12.017 0-7.62-1.904-11.967-5.275-11.967-3.321 0-5.275 4.348-5.275 11.82zm25.776 11.723h7.424v-18.317c-1.66.634-4.347 1.026-7.23.976v-5.52c5.081-.488 7.523-2.344 8.451-6.35h6.35v29.211H155v6.106h-21.64zM156 85.975c0 5.032-1.172 9.477-3.322 12.847-2.1 3.322-5.666 5.178-9.77 5.178-8.156 0-13.188-6.936-13.188-18.22 0-4.738 1.221-9.427 3.322-12.602 2.149-3.322 5.666-5.178 9.818-5.178 8.06 0 13.14 6.985 13.14 17.975m-18.415-.146c0 7.864 1.905 12.163 5.324 12.163 3.322 0 5.226-4.348 5.226-12.017 0-7.62-1.904-11.967-5.275-11.967-3.321 0-5.275 4.348-5.275 11.82zM53.14 90.008c-3.322 0-5.275 4.348-5.275 11.82 0 7.865 1.904 12.164 5.323 12.164 3.323 0 5.227-4.348 5.227-12.017 0-7.62-1.904-11.967-5.275-11.967M159 16.04v.014c-6.454.159-11.47 5.286-11.47 11.817 0 2.602.819 5.08 2.394 7.201a7.98 7.98 0 0 1 1.637 4.863c0 4.446-3.631 8.064-8.093 8.064s-8.093-3.618-8.093-8.064c0-1.772.566-3.454 1.666-4.9a11.94 11.94 0 0 0 2.365-7.164c0-6.51-4.984-11.624-11.41-11.814v-.099L86.364 16H16v160h20c6.64 0 12.043-5.411 12.043-12.062 0-2.6-.815-5.08-2.386-7.206a8.04 8.04 0 0 1-1.636-4.887c0-4.462 3.618-8.093 8.064-8.093s8.064 3.63 8.064 8.093a8.08 8.08 0 0 1-1.665 4.925 11.98 11.98 0 0 0-2.356 7.168c0 3.22 1.25 6.248 3.523 8.525a11.94 11.94 0 0 0 8.51 3.535h.005L88 176h88V16.04zM42.28 65.894h7.425V47.576c-1.662.635-4.348 1.026-7.23.977v-5.52c5.08-.488 7.522-2.344 8.45-6.35h6.35v29.211h6.644V72H42.28zm20.678 48.928c-2.1 3.322-5.666 5.178-9.77 5.178C45.031 120 40 113.064 40 101.78c0-4.738 1.221-9.427 3.322-12.603C45.47 85.856 48.988 84 53.14 84c8.06 0 13.14 6.985 13.14 17.975 0 5.032-1.173 9.477-3.322 12.847M168 168H88v-64c0-2.222 1.592-3.774 3.872-3.774.871 0 1.7.273 2.36.762 2.628 1.999 5.893 3.012 9.704 3.012C112.794 104 120 96.822 120 88s-7.206-16-16.064-16c-3.474 0-6.83 1.155-9.668 3.313a4 4 0 0 1-2.396.79C89.702 76.103 88 74.3 88 72V23.998l39.632-.038v.08c2.222 0 3.774 1.576 3.774 3.832 0 .871-.273 1.7-.761 2.36a15.9 15.9 0 0 0-3.27 9.704c0 8.858 7.219 16.064 16.093 16.064s16.093-7.206 16.093-16.064c0-3.535-1.13-6.89-3.24-9.667a4 4 0 0 1-.79-2.397c0-2.256 1.551-3.831 3.773-3.831H168z"/></svg>