<svg xmlns="http://www.w3.org/2000/svg" viewBox="0 0 192 192"><path d="M150 96c-14.336 0-26 11.664-26 26s11.664 26 26 26 26-11.664 26-26-11.664-26-26-26m0 44c-9.925 0-18-8.075-18-18s8.075-18 18-18 18 8.075 18 18-8.075 18-18 18m16.596-48.255 7.85 2.944-11.227-33.681-27.71-11.546-3.222 2.254-11.357-15.143-15.149 10.099 4.438 6.656 8.851-5.9 6.66 8.879L114.74 64H79.124C77.071 57.877 71.485 50 60 50H42L27.451 69.398l3.855 9.638-10.135 10.135 5.658 5.658L37.657 84H48c14.533 0 30.221 13.386 36.422 25.79l1.106 2.21H112l2.559-.01 1.074-2.317c.598-1.288 15.049-31.396 50.963-17.928m-44.024-2.549c-6.875 5.252-11.06 11.488-12.973 14.804H90.394c-2.36-4.137-5.525-8.249-9.24-12H100v-8H71.492c-7.226-4.837-15.41-8-23.492-8h-9.292l-2.16-5.398L46 58h14c10.105 0 11.875 9.505 12.04 10.566L72.53 72h44.73l19.232-13.462 20.289 8.454 4.96 14.88c-18.282-4.472-31.224 1.254-39.17 7.324zM50 96c-14.336 0-26 11.664-26 26s11.664 26 26 26 26-11.664 26-26-11.664-26-26-26m0 44c-9.925 0-18-8.075-18-18s8.075-18 18-18 18 8.075 18 18-8.075 18-18 18"/></svg>