<svg xmlns="http://www.w3.org/2000/svg" viewBox="0 0 192 192"><path d="M164 144.51V87.49c6.89-1.78 12-8.05 12-15.49 0-8.82-7.18-16-16-16-7.44 0-13.71 5.11-15.49 12H120V16H72v52H47.49C45.71 61.11 39.44 56 32 56c-8.82 0-16 7.18-16 16 0 7.44 5.11 13.71 12 15.49v57.02c-6.89 1.78-12 8.05-12 15.49 0 8.82 7.18 16 16 16 7.44 0 13.71-5.11 15.49-12h97.02c1.78 6.89 8.05 12 15.49 12 8.82 0 16-7.18 16-16 0-7.44-5.11-13.71-12-15.49M160 64c4.41 0 8 3.59 8 8s-3.59 8-8 8-8-3.59-8-8 3.59-8 8-8M80 24h32v20H80zm0 28h32v16H80zm0 24h32v16H80zm-56-4c0-4.41 3.59-8 8-8s8 3.59 8 8-3.59 8-8 8-8-3.59-8-8m8 96c-4.41 0-8-3.59-8-8s3.59-8 8-8 8 3.59 8 8-3.59 8-8 8m119.96-21.82c-.13.08-.27.16-.4.24-.14.08-.28.18-.42.27-.03.02-.05.03-.08.05-.14.09-.26.18-.39.28-.13.09-.26.18-.39.28a16.2 16.2 0 0 0-2.98 2.98c-.1.13-.19.26-.28.39-.1.13-.19.25-.28.39-.02.03-.03.05-.05.08-.09.14-.19.28-.27.42-.08.13-.16.27-.24.4-.01.01-.01.02-.02.03-.03.04-.05.09-.07.13-.17.28-.32.57-.46.86-.08.16-.15.32-.23.49-.07.16-.14.33-.21.49-.13.33-.26.66-.37 1-.1.3-.19.6-.27.91-.02.04-.03.09-.04.13H47.49c-.01-.04-.02-.09-.04-.13-.08-.31-.17-.61-.27-.91-.11-.34-.24-.67-.37-1-.07-.16-.14-.33-.21-.49-.08-.17-.15-.33-.23-.49-.14-.29-.29-.58-.46-.86-.02-.04-.04-.09-.07-.13-.01-.01-.01-.02-.02-.03-.08-.13-.16-.27-.24-.4-.08-.14-.18-.28-.27-.42-.02-.03-.03-.05-.05-.08-.09-.14-.18-.26-.28-.39-.09-.13-.18-.26-.28-.39a16.2 16.2 0 0 0-2.98-2.98c-.13-.1-.26-.19-.39-.28-.13-.1-.25-.19-.39-.28-.03-.02-.05-.03-.08-.05-.14-.09-.28-.19-.42-.27-.13-.08-.27-.16-.4-.24-.01-.01-.02-.01-.03-.02-.04-.03-.09-.05-.13-.07-.28-.17-.57-.32-.86-.46-.16-.08-.32-.15-.49-.23-.16-.07-.33-.14-.49-.21-.33-.13-.66-.26-1-.37-.3-.1-.6-.19-.91-.27-.04-.02-.09-.03-.13-.04V87.49c.04-.01.09-.02.13-.04.31-.08.61-.17.91-.27.34-.11.67-.24 1-.37.16-.07.33-.14.49-.21.17-.08.33-.15.49-.23.29-.14.58-.29.86-.46.04-.02.09-.04.13-.07.01-.01.02-.01.03-.02.13-.08.27-.16.4-.24.14-.08.28-.18.42-.27.03-.02.05-.03.08-.05.14-.09.26-.18.39-.28.13-.09.26-.18.39-.28a16.2 16.2 0 0 0 2.98-2.98c.1-.13.19-.26.28-.39.1-.13.19-.25.28-.39.02-.03.03-.05.05-.08.09-.14.19-.28.27-.42.08-.13.16-.27.24-.4.01-.01.01-.02.02-.03.03-.04.05-.09.07-.13.17-.28.32-.57.46-.86.08-.16.15-.32.23-.49.07-.16.14-.33.21-.49.13-.33.26-.66.37-1 .1-.3.19-.6.27-.91.02-.04.03-.09.04-.13H72v24h48V76h24.51c.01.04.02.09.04.13.08.31.17.61.27.91.11.34.24.67.37 1 .07.16.14.33.21.49.08.17.15.33.23.49.14.29.29.58.46.86.02.04.04.09.07.13.01.01.01.02.02.03.08.13.16.27.24.4.08.14.18.28.27.42.02.03.03.05.05.08.09.14.18.26.28.39.09.13.18.26.28.39a16.2 16.2 0 0 0 2.98 2.98c.13.1.26.19.39.28.13.1.25.19.39.28.03.02.05.03.08.05.14.09.28.19.42.27.13.08.27.16.4.24.01.01.02.01.03.02.04.03.09.05.13.07.28.17.57.32.86.46.16.08.32.15.49.23.16.07.33.14.49.21.33.13.66.26 1 .37.3.1.6.19.91.27.04.02.09.03.13.04v57.02c-.04.01-.09.02-.13.04-.31.08-.61.17-.91.27-.34.11-.67.24-1 .37-.16.07-.33.14-.49.21-.17.08-.33.15-.49.23-.29.14-.58.29-.86.46-.04.02-.09.04-.13.07-.01.01-.02.01-.03.02M160 168c-4.41 0-8-3.59-8-8s3.59-8 8-8 8 3.59 8 8-3.59 8-8 8"/></svg>