<svg xmlns="http://www.w3.org/2000/svg" viewBox="0 0 192 192"><path d="M159.119 107.999c10.566-.227 16.88-9.238 16.88-17.819 0-5.668-3.232-12.223-8.646-17.533-5.332-5.228-11.83-8.345-18.032-8.627.418-2.914.221-5.701-.549-9.2-2.14-9.722-8.619-18.307-16.906-22.405l-2.876-1.422-2.013 2.498c-3.316 4.117-5.416 9.943-6.38 15.153-2.801-.596-5.753-.815-8.828-.637l-3.202.184-.516 3.166c-1.6 9.84.83 18.633 7.03 25.43 3.023 3.312 7.573 5.924 10.985 7.58-.459 1.088-.77 2.25-.83 3.425-.114 2.175.308 4.286.547 5.483.048.24.07.426.078.561-2.286.63-10.081-1.441-15.877-4.753-2.061-1.177-4.195-2.895-6.454-4.712C96.682 78.859 88.16 72 72.833 72c-10.784 0-21.385 3.171-29.083 8.702C33.446 88.103 28 99.618 28 114l1.13 10.005c-7.272.198-13.13 6.604-13.13 14.451C16 146.208 22.91 152 29.09 152H32v8h48c6.453 0 10.878-3.08 11.81-8h35.117l7.309 8H160v-9.53l-9.765-10.905-4.005-4.825q.501-.423 1.008-.94c4.77-4.873 7.88-14.406 7.796-20.254-.059-3.96.278-5.465 4.085-5.547m-27.787-66.563c4.66 3.452 8.296 9.058 9.628 15.105.73 3.323.754 5.399.178 7.78-1.28-2.12-2.978-4.628-4.903-6.706-2.38-2.57-5.06-4.642-7.99-6.2.487-3.528 1.6-7.13 3.087-9.979m15.702 72.228c.058 3.975-2.388 11.347-5.514 14.541-.79.808-1.4 1.098-1.705 1.1l-8.44.058 12.752 15.37L150.63 152h-12.868l-12.686-13.886.018-.018c-4.945-4.945-4.945-12.992 0-17.937l-5.656-5.658c-7.866 7.866-8.038 20.53-.56 28.632l-.029.027.768.84H92v-8H80.303c2.735-3.507 4.381-7.903 4.381-12.684 0-11.405-9.279-20.684-20.684-20.684v8c6.994 0 12.684 5.69 12.684 12.684S70.994 136 64 136H52v8h32v6c0 .495 0 2-4 2H40v-8H29.09c-2.002 0-5.09-2.38-5.09-5.544 0-3.118 2.2-6.456 5.476-6.456h8.631l-2.106-18.226C36.142 81.63 66.696 80 72.833 80c12.508 0 19.205 5.39 25.681 10.603 2.514 2.022 4.888 3.934 7.501 5.427.171.097 17.297 9.607 24.81 4.192 1.47-1.06 3.79-3.574 2.79-8.579-.169-.846-.452-2.262-.392-3.435.032-.587.703-1.885 1.619-2.81l4.354-4.4-5.802-2.163c-2.366-.882-9.207-3.939-12.402-7.44-3.857-4.228-5.665-9.394-5.398-15.393 5.83.387 10.789 2.75 14.772 7.05 3.309 3.571 5.993 9.177 6.018 9.23l2.216 4.863 3.987-3.524c.078-.064 1.958-1.553 5.49-1.622l.245-.002c4.416 0 9.296 2.308 13.43 6.362C165.548 82.082 168 86.722 168 90.18c0 6.253-4.664 9.727-9.053 9.821-10.01.215-12.003 7.549-11.913 13.663"/></svg>