<svg xmlns="http://www.w3.org/2000/svg" viewBox="0 0 192 192"><path d="M176 96c0 44.112-35.888 80-80 80-21.368 0-41.458-8.321-56.568-23.432l5.656-5.656C58.688 160.511 76.768 168 96 168c39.701 0 72-32.299 72-72s-32.299-72-72-72c-17.892 0-34.783 6.49-48 18.343l11.34 11.341C69.52 44.841 82.384 40 96 40c30.878 0 56 25.121 56 56s-25.122 56-56 56c-14.958 0-29.021-5.825-39.598-16.402l5.657-5.657C71.125 139.007 83.18 144 96 144c26.467 0 48-21.532 48-48s-21.533-48-48-48c-11.478 0-22.334 4.012-30.988 11.355l14.219 14.22C84.046 69.957 89.872 68 96 68c15.44 0 28 12.56 28 28s-12.56 28-28 28c-7.48 0-14.513-2.914-19.802-8.204l5.658-5.656A19.87 19.87 0 0 0 96 116c11.028 0 20-8.972 20-20s-8.972-20-20-20a19.86 19.86 0 0 0-11.03 3.313l8.966 8.966A8 8 0 0 1 96 88a8 8 0 1 1-8 8c0-.715.103-1.405.279-2.064L39.487 45.143l-2.953-2.659a82 82 0 0 1 2.897-3.052C54.542 24.322 74.63 16 96 16c44.112 0 80 35.888 80 80"/></svg>