<svg xmlns="http://www.w3.org/2000/svg" viewBox="0 0 192 192"><path d="M96 143.98a32.03 32.03 0 0 1-15.998-4.265l7.988-13.863c4.943 2.847 11.078 2.848 16.01 0l8 13.857a32 32 0 0 1-16 4.271m-50.862-19.745L96 32.265l14.638 26.47 5.887-5.887L96 15.735 24.685 144.689zm81.615-36.361L162.217 152h-99.59l-8 8h121.156L132.64 81.987zm46.904-58.217-11.314-11.314-144 144 11.314 11.314zM81.86 87.513l-1.867-3.227c-7.635 4.417-13.016 11.78-15.066 20.16zm28.256 16.997a16 16 0 0 1 1.883 7.498l16-.014c-.006-6.954-2.301-13.612-6.323-19.044zm-15.38 15.38c.412.066.832.11 1.263.11a8 8 0 0 0 8-8c0-.431-.044-.851-.11-1.264l-9.154 9.155z"/></svg>