<svg xmlns="http://www.w3.org/2000/svg" viewBox="0 0 192 192"><path d="M139.521 129.405c-2.546-2.093-5.648-4.477-9.358-6.279-6.501-3.157-13.497-4.94-20.814-5.344a14 14 0 0 0-3.738-5.94C108.513 105.08 110 98.016 110 90.813c0-3.372-.45-6.999-1.378-11.085l-.61-2.691-2.733-.386a66 66 0 0 0-18.377-.026L84.198 77l-.638 2.653c-.727 3.016-1.56 7.011-1.56 11.16 0 7.245 1.46 14.332 4.306 21.104a14 14 0 0 0-3.668 5.903c-7.35.408-14.339 2.216-20.79 5.418-3.024 1.5-6.072 3.516-9.319 6.163l-2.138 1.744.87 2.618a67 67 0 0 0 3.535 8.605 67 67 0 0 0 4.612 7.868l1.536 2.256 2.661-.608c3.214-.734 6.998-1.732 10.69-3.565 6.462-3.207 12.14-7.641 16.93-13.17 1.492.545 3.096.858 4.775.858 1.717 0 3.355-.326 4.876-.894 4.829 5.595 10.55 10.04 17.054 13.2 3.035 1.474 6.493 2.653 10.574 3.604l2.687.626 1.54-2.29a67 67 0 0 0 4.646-8.058 67 67 0 0 0 3.407-8.462l.845-2.594zM90 90.813c0-2.26.32-4.503.734-6.577a57.3 57.3 0 0 1 10.644.011c.422 2.383.622 4.515.622 6.566 0 5.945-1.193 11.79-3.534 17.411a14 14 0 0 0-2.466-.23c-.878 0-1.735.09-2.569.246C91.158 102.63 90 96.778 90 90.813m-19.261 50.34c-2.024 1.004-4.176 1.716-6.218 2.267a58 58 0 0 1-2.56-4.609 58 58 0 0 1-2.163-4.931c1.947-1.436 3.767-2.564 5.606-3.476 5.317-2.639 11.074-4.169 17.141-4.574a14 14 0 0 0 2.251 4.534c-4.01 4.517-8.726 8.143-14.057 10.789M90 122c0-3.312 2.691-6.007 6-6.007s6 2.695 6 6.007-2.691 6.007-6 6.007-6-2.695-6-6.007m40.181 16.7a58 58 0 0 1-2.578 4.726c-2.327-.661-4.332-1.413-6.178-2.31-5.366-2.606-10.117-6.25-14.16-10.835a14 14 0 0 0 2.2-4.487c6.05.403 11.829 1.918 17.203 4.529 2.032.987 3.91 2.254 5.596 3.533a58 58 0 0 1-2.083 4.844M96 24l12 12-12 12-12-12zm64.975 35.042a36 36 0 0 1-1.937 6.458l-7.417-3a28 28 0 0 0 1.51-5.03zM118.242 16.77l1.655 7.827a28.2 28.2 0 0 0-10.108 4.335l-4.529-6.595a36.2 36.2 0 0 1 12.982-5.567m34.878 29.716a28.2 28.2 0 0 0-4.241-10.148l6.636-4.467a36.2 36.2 0 0 1 5.447 13.031zm-13.955-27.859a36 36 0 0 1 6.303 3.302l-4.393 6.686a28 28 0 0 0-4.91-2.571 28 28 0 0 0-5.286-1.56l1.5-7.858a36 36 0 0 1 6.786 2.001M38.869 57.47a28 28 0 0 0 1.51 5.031l-7.417 3a36 36 0 0 1-1.937-6.458zm-2.384-25.598 6.636 4.467a28.2 28.2 0 0 0-4.241 10.148l-7.842-1.584a36.2 36.2 0 0 1 5.447-13.031M59.62 16.625l1.5 7.859a28 28 0 0 0-5.286 1.56 28 28 0 0 0-4.91 2.57l-4.393-6.685a36 36 0 0 1 6.303-3.302 36 36 0 0 1 6.786-2.002m27.119 5.712-4.529 6.595a28.2 28.2 0 0 0-10.108-4.335l1.655-7.827a36.2 36.2 0 0 1 12.982 5.567M92 56h8v12h-8zm84 16v104H16V72h61.217a118 118 0 0 0-1.934 8H24v16h50.228c.265 3.061.621 5.587 1.143 8H24v16h27.591c-3.848 2.745-7.714 5.992-9.858 8H24v16h22.714q.455.993.932 1.953A75 75 0 0 0 51.035 152H24v16h144v-16h-26.761a75 75 0 0 0 3.43-6.336q.392-.82.767-1.664H168v-16h-17.768c-2.01-1.862-5.948-5.164-9.924-8H168v-16h-51.464c.533-2.43.904-4.969 1.179-8H168V80h-51.151a110 110 0 0 0-1.852-8zm-77.994 72c3.245 3.177 6.118 5.483 10.15 8H84.063c4.038-2.568 6.824-4.833 9.978-8h3.964z"/></svg>