<svg xmlns="http://www.w3.org/2000/svg" viewBox="0 0 192 192"><path d="M103.844 89.068C106.385 86.868 108 83.625 108 80c0-6.627-5.373-12-12-12s-12 5.373-12 12c0 3.625 1.615 6.868 4.156 9.068L54.14 176h15.07L96 158.14 122.79 176h15.07zM66.789 168h-.929l9.296-23.755 13.633 9.088zm11.43-31.328-.241.36 17.63-45.052c.13.004.26.02.392.02s.261-.016.393-.02l17.629 45.053-.24-.361L96 148.526zm24.992 16.661 13.633-9.088L126.14 168h-.93l-22-14.667zM56 80c0-22.056 17.944-40 40-40s40 17.944 40 40c0 12.57-5.834 23.799-14.93 31.137l-3.095-7.908C124.142 97.392 128 89.14 128 80c0-17.645-14.355-32-32-32S64 62.355 64 80c0 9.14 3.858 17.392 10.025 23.229l-3.095 7.908C61.834 103.799 56 92.57 56 80m-5.255 45.255C38.657 113.167 32 97.095 32 80s6.657-33.167 18.745-45.255S78.905 16 96 16s33.167 6.657 45.255 18.745S160 62.905 160 80s-6.657 33.167-18.745 45.255a64.5 64.5 0 0 1-11.17 8.919l-2.972-7.594a56.6 56.6 0 0 0 8.485-6.982C146.175 109.02 152 94.958 152 80s-5.825-29.021-16.402-39.598S110.958 24 96 24s-29.021 5.825-39.598 16.402S40 65.042 40 80s5.825 29.021 16.402 39.598a56.6 56.6 0 0 0 8.485 6.982l-2.971 7.594a64.5 64.5 0 0 1-11.17-8.92z"/></svg>