<svg xmlns="http://www.w3.org/2000/svg" viewBox="0 0 192 192"><path d="M81.215 124.028 46 124c-3.354 0-6.084-2.691-6.084-6s2.73-6 6.084-6h113.103l-.411-4.375c-1.167-12.408-6.671-24.282-15.21-32.96.36-1.629.54-3.296.54-4.982 0-12.715-10.377-23.06-23.134-23.06-9.605 0-17.86 5.867-21.353 14.192-22.9 2.918-41.167 20.54-45.014 43.185H46c-7.766 0-14.084 6.28-14.084 14S38.234 132 46 132h34.437c1.832 0 3.563 1.944 3.563 4s-1.731 4-3.563 4H60.084v8h20.857v-.012C86.986 147.704 92 142.33 92 136c0-6.234-4.863-11.54-10.785-11.972M97.765 69.2c-.003.161-.012.32-.012.483 0 7.22 3.298 13.888 9.048 18.292l4.866-6.35c-3.758-2.879-5.914-7.231-5.914-11.942 0-8.304 6.79-15.06 15.135-15.06s15.135 6.756 15.135 15.06a15 15 0 0 1-.816 4.893l-.854 2.476 1.927 1.773c6.949 6.394 11.937 15.57 13.814 25.175H62.652c3.554-17.621 17.47-31.404 35.114-34.8zM134 90.5a5.5 5.5 0 1 1-11 0 5.5 5.5 0 0 1 11 0"/></svg>