<svg xmlns="http://www.w3.org/2000/svg" viewBox="0 0 192 192"><path d="M176 154.443v12.248c0 5.1-4.112 9.25-9.167 9.25s-9.167-4.15-9.167-9.25v-12.248a9.27 9.27 0 0 1 4.137-7.724C158.864 138.89 152.267 134 144.25 134c-8.052 0-15.1 5.063-18.135 12.669a9.26 9.26 0 0 1 4.22 7.774v12.248c0 5.1-4.113 9.25-9.168 9.25s-9.167-4.15-9.167-9.25v-12.248a9.25 9.25 0 0 1 5.943-8.648c3.7-11.776 14.18-19.795 26.307-19.795 11.96 0 21.984 7.83 25.667 19.743a9.25 9.25 0 0 1 6.083 8.7M104.066 168a17.2 17.2 0 0 0 2.67 8H56V61.648c-1.675-1.956-4-5.787-4-12.017 0-5.698 2.336-9.386 4-11.292V16h72v22.339c1.664 1.906 4 5.594 4 11.292 0 6.23-2.325 10.061-4 12.017v60.34a35.4 35.4 0 0 0-8 5.744V78.839l-56 31.5v48.906C69.566 155.75 78.534 152 91.43 152c4.675 0 8.876.522 12.625 1.35-.023.364-.055.724-.055 1.093v7.111c-3.608-.934-7.788-1.554-12.57-1.554-14.02 0-22.313 5.014-26.01 8zM120 64H64v37.16l56-31.5zm4.13-3.823L124 60v.177zM64 36h56V24H64zm-4.007 3.743h-.188l.188.247zM61.728 56h60.544c.726-1.025 1.728-3.038 1.728-6.369 0-2.819-.98-4.651-1.71-5.631H61.71c-.73.98-1.71 2.812-1.71 5.631 0 3.33 1.002 5.344 1.728 6.369"/></svg>