<svg xmlns="http://www.w3.org/2000/svg" viewBox="0 0 192 192"><path d="M90.729 170.041c0 3.672-2.387 6.16-5.91 6.16-3.521 0-5.925-2.488-5.925-6.143 0-1.92.668-3.59 1.886-4.708 1.102-1.001 2.404-1.47 4.107-1.47 3.455 0 5.842 2.521 5.842 6.161m-8.43 0c0 2.303.868 3.522 2.504 3.522s2.52-1.22 2.52-3.505c0-2.338-.868-3.54-2.553-3.54-1.603 0-2.471 1.253-2.471 3.523m9.21-3.339v-2.638h9.699v2.638h-3.205V176h-3.29v-9.298H91.51zm14.486-2.638v4.575h3.822v-4.575h3.29V176h-3.29v-4.725h-3.822V176h-3.289v-11.936h3.29zM92.36 104c.241-4.73 2.244-9.33 5.368-12.388h-7.57v-3.344h11.685v2.926c-2.97 3.19-4.797 8.01-4.819 12.806zm.121-38.82 13.83 3.72 15.99 4.31 5.5 1.48.01-.03 1.45-5.41 8-29.88-7.72-2.07-5.95 22.22L99.4 17.99A4 4 0 0 0 95.94 16c-1.42 0-2.74.76-3.45 1.99L62.45 69.57l5.5-1.47 1.45 5.42 26.54-45.57 20.63 35.43-22.01-5.93-2.08 7.73zM37.67 128l20.37-34.98 5.97 22.29 7.73-2.07-8.03-29.96-1.43-5.35-5.57 1.49-29.75 7.97 2.08 7.72L51 89.23l-23.74 40.76a3.97 3.97 0 0 0-.01 4 4 4 0 0 0 3.47 2.01h59.71l-3.98-3.98 4.02-4.02zm126.96 1.99-29.68-50.96-1.46 5.44L128 83l26.21 45h-40.92l16.18-16.17-5.66-5.66L101.98 128l-4.02 4.02 3.98 3.98 21.87 21.87 5.66-5.66L113.25 136h47.92c1.43 0 2.76-.77 3.47-2.01s.71-2.77-.01-4"/></svg>