<svg xmlns="http://www.w3.org/2000/svg" viewBox="0 0 192 192"><path d="M74.33 164.064V176h8.213v-2.638H77.62v-9.298zm9.996 0V176h4.607c3.84 0 6.177-2.287 6.177-6.026 0-3.672-2.304-5.91-6.093-5.91zm3.289 9.366v-6.795h1.419c1.753 0 2.67 1.169 2.67 3.388 0 2.221-.917 3.407-2.637 3.407zm9.526-9.366V176h3.29v-4.057h2.236c2.705 0 4.324-1.452 4.324-3.855 0-2.538-1.67-4.024-4.49-4.024zm3.29 5.493v-3.022h1.802c1.052 0 1.602.518 1.602 1.502 0 .985-.567 1.52-1.619 1.52zm8.258-5.493V176h8.981v-2.588h-5.76v-2.253h4.007v-2.47h-4.006v-2.038h5.508v-2.587zm-11.94-62.902V104h3.96v-2.838h2.046v-3.125h-2.046v-9.901h-4.225l-7.239 9.505v3.52h7.503zm-4.204-3.125 4.379-5.765v5.765zM94.56 57.45l22.01 5.93-20.63-35.43L69.4 73.52l-1.45-5.42-5.5 1.47 30.04-51.58A3.99 3.99 0 0 1 95.94 16c1.43 0 2.74.76 3.46 1.99l24.19 41.53 5.95-22.22 7.72 2.07-8 29.88-1.45 5.41-.01.03-5.5-1.48-15.99-4.31-13.83-3.72zM90.47 128l-4.02 4.02 3.98 3.98H30.72c-1.44 0-2.76-.77-3.47-2.01-.72-1.24-.71-2.77.01-4L51 89.23l-21.96 5.88-2.08-7.72 29.75-7.97 5.57-1.49 1.43 5.35 8.03 29.96-7.73 2.07-5.97-22.29L37.67 128zm74.17 5.99a4.01 4.01 0 0 1-3.47 2.01h-47.92l16.22 16.21-5.66 5.66L101.94 136l-3.98-3.98 4.02-4.02 21.83-21.83 5.66 5.66L113.29 128h40.92L128 83l5.49 1.47 1.46-5.44 29.68 50.96c.72 1.23.72 2.76.01 4"/></svg>