<svg xmlns="http://www.w3.org/2000/svg" viewBox="0 0 192 192"><path d="M83.979 163.244h-5.697V176h3.496v-4.335h2.378c2.875 0 4.597-1.552 4.597-4.122 0-2.711-1.775-4.299-4.774-4.299m-.302 5.87h-1.899v-3.23h1.917c1.118 0 1.704.554 1.704 1.606s-.604 1.624-1.722 1.624m9.495-5.87L88.594 176h3.23l.71-2.159h4.844l.693 2.159h3.709l-4.49-12.756zm.16 8.117 1.65-4.977 1.615 4.977zm15.635-8.117h-5.696V176h3.495v-4.335h2.379c2.874 0 4.596-1.552 4.596-4.122 0-2.711-1.775-4.299-4.774-4.299m-.302 5.87h-1.899v-3.23h1.917c1.118 0 1.704.554 1.704 1.606s-.603 1.624-1.722 1.624m-25.544-68.442c4.849-2.6 7.45-5.223 7.45-7.493 0-1.168-.64-1.83-1.742-1.83-1.124 0-1.719.573-2.116 2.006l-3.768-.925c.705-2.954 2.733-4.43 6.038-4.43 3.615 0 5.84 1.895 5.84 5.002 0 2.073-.859 3.747-2.754 5.334-.881.727-1.874 1.388-3.592 2.402h6.61V104H83.122v-3.328zm13.99 0c4.85-2.6 7.45-5.223 7.45-7.493 0-1.168-.639-1.83-1.741-1.83-1.124 0-1.719.573-2.116 2.006l-3.769-.925c.706-2.954 2.733-4.43 6.04-4.43 3.614 0 5.84 1.895 5.84 5.002 0 2.073-.86 3.747-2.755 5.334-.882.727-1.874 1.388-3.593 2.402h6.612V104H97.112zM94.56 57.45l22.01 5.93-20.63-35.43L69.4 73.52l-1.45-5.42-5.5 1.47 30.04-51.58A3.99 3.99 0 0 1 95.94 16c1.43 0 2.74.76 3.46 1.99l24.19 41.53 5.95-22.22 7.72 2.07-8 29.88-1.45 5.41-.01.03-5.5-1.48-15.99-4.31-13.83-3.72zM90.47 128l-4.02 4.02 3.98 3.98H30.72c-1.44 0-2.76-.77-3.47-2.01-.72-1.24-.71-2.77.01-4L51 89.23l-21.96 5.88-2.08-7.72 29.75-7.97 5.57-1.49 1.43 5.35 8.03 29.96-7.73 2.07-5.97-22.29L37.67 128zm74.17 5.99a4.01 4.01 0 0 1-3.47 2.01h-47.92l16.22 16.21-5.66 5.66L101.94 136l-3.98-3.98 4.02-4.02 21.83-21.83 5.66 5.66L113.29 128h40.92L128 83l5.49 1.47 1.46-5.44 29.68 50.96c.72 1.23.72 2.76.01 4"/></svg>