<svg xmlns="http://www.w3.org/2000/svg" viewBox="0 0 192 192"><path d="M84.65 164.06h-5.36V176h3.29v-4.06h2.24c2.7 0 4.32-1.45 4.32-3.85 0-2.54-1.67-4.03-4.49-4.03m-.28 5.5h-1.79v-3.02h1.81c1.05 0 1.6.51 1.6 1.5 0 .98-.57 1.52-1.62 1.52m13.72-5.5-2.49 8.13-2.5-8.13h-3.56L93.6 176h3.65l4.02-11.94zm11.71 7.9c-.5 1.14-1.15 1.6-2.32 1.6-1.62 0-2.47-1.22-2.47-3.52s.84-3.52 2.4-3.52c1.11 0 1.76.45 2.27 1.58l2.89-1.21c-.4-.81-.73-1.24-1.25-1.72-.93-.84-2.22-1.29-3.86-1.29-3.45 0-5.86 2.55-5.86 6.21 0 3.74 2.29 6.11 5.9 6.11 1.52 0 2.67-.35 3.62-1.05.7-.54 1.17-1.1 1.59-1.99zM99.76 95.73c1.59-.64 2.38-1.72 2.38-3.26 0-2.68-2.29-4.44-5.83-4.44-3.1 0-5.19 1.34-6.14 3.96l3.17 1.29c.61-1.4 1.47-2.04 2.75-2.04 1.19 0 1.93.64 1.93 1.65 0 1.03-.81 1.69-2.13 1.69h-1.25v2.93h1.1c1.67 0 2.44.53 2.44 1.69 0 1.13-.9 1.85-2.29 1.85-1.47 0-2.27-.61-2.73-2.09l-3.65 1.08c.66 2.71 3.06 4.22 6.64 4.22 3.9 0 6.34-1.89 6.34-4.9 0-1.78-.9-3-2.73-3.63m-5.2-38.28 22.01 5.93-20.63-35.43L69.4 73.52l-1.45-5.42-5.5 1.47 30.04-51.58A3.99 3.99 0 0 1 95.94 16c1.43 0 2.74.76 3.46 1.99l24.19 41.53 5.95-22.22 7.72 2.07-8 29.88-1.45 5.41-.01.03-5.5-1.48-15.99-4.31-13.83-3.72zM90.47 128l-4.02 4.02 3.98 3.98H30.72c-1.44 0-2.76-.77-3.47-2.01-.72-1.24-.71-2.77.01-4L51 89.23l-21.96 5.88-2.08-7.72 29.75-7.97 5.57-1.49 1.43 5.35 8.03 29.96-7.73 2.07-5.97-22.29L37.67 128zm74.17 5.99a4.01 4.01 0 0 1-3.47 2.01h-47.92l16.22 16.21-5.66 5.66L101.94 136l-3.98-3.98 4.02-4.02 21.83-21.83 5.66 5.66L113.29 128h40.92L128 83l5.49 1.47 1.46-5.44 29.68 50.96c.72 1.23.72 2.76.01 4m-36.83-59.33-.01.03-5.5-1.48-15.99-4.31 15.97 4.28z"/></svg>