<svg xmlns="http://www.w3.org/2000/svg" viewBox="0 0 192 192"><path d="M76.1 164.064v4.575h3.823v-4.575h3.289V176h-3.29v-4.725h-3.821V176h-3.29v-11.936zm14.435 0c3.79 0 6.093 2.238 6.093 5.91 0 3.739-2.337 6.026-6.177 6.026h-4.607v-11.936zm.05 9.366c1.72 0 2.638-1.186 2.638-3.407s-.918-3.388-2.671-3.388h-1.42v6.795zm13.434-9.366c2.82 0 4.49 1.486 4.49 4.024 0 2.403-1.62 3.855-4.324 3.855h-2.237V176H98.66v-11.936zm-.285 5.493c1.052 0 1.62-.535 1.62-1.52 0-.984-.551-1.502-1.603-1.502h-1.803v3.022zm15.204-5.493v2.587h-5.51v2.037h4.008v2.471h-4.007v2.253h5.76V176h-8.982v-11.936h8.73zM90.11 100.68V104h11.95v-3.26h-6.6c1.72-1.01 2.71-1.67 3.59-2.39 1.89-1.59 2.75-3.26 2.75-5.33 0-3.1-2.22-4.99-5.83-4.99-3.3 0-5.33 1.47-6.03 4.42l3.76.92c.4-1.43.99-2 2.11-2 1.1 0 1.74.66 1.74 1.83 0 2.26-2.59 4.88-7.44 7.48m2.37-35.5 13.83 3.72 15.99 4.31 5.5 1.48.01-.03 1.45-5.41 8-29.88-7.72-2.07-5.95 22.22L99.4 17.99A4 4 0 0 0 95.94 16c-1.42 0-2.74.76-3.45 1.99L62.45 69.57l5.5-1.47 1.45 5.42 26.54-45.57 20.63 35.43-22.01-5.93zM37.67 128l20.37-34.98 5.97 22.29 7.73-2.07-8.03-29.96-1.43-5.35-5.57 1.49-29.75 7.97 2.08 7.72L51 89.23l-23.74 40.76a3.97 3.97 0 0 0-.01 4 4 4 0 0 0 3.47 2.01h59.71l-3.98-3.98 4.02-4.02zm126.96 1.99-29.68-50.96-1.46 5.44L128 83l26.21 45h-40.92l16.18-16.17-5.66-5.66L101.98 128l-4.02 4.02 3.98 3.98 21.87 21.87 5.66-5.66L113.25 136h47.92c1.43 0 2.76-.77 3.47-2.01s.71-2.77-.01-4"/></svg>