<svg xmlns="http://www.w3.org/2000/svg" viewBox="0 0 192 192"><path d="M96 56c-13.234 0-24 9.485-24 21.143V80h-8.02v56H128V80h-8v-2.857C120 65.485 109.234 56 96 56M80 77.143C80 69.896 87.178 64 96 64s16 5.896 16 13.143V80H80zM120 128H71.98V88H120zm-32-24a8 8 0 0 1 16 0 7.99 7.99 0 0 1-4 6.921V120h-8v-9.079A7.99 7.99 0 0 1 88 104m-64-8h-8c0-44.112 35.888-80 80-80 23.794 0 44.85 10.522 60 29.797V32h8v28h-28v-8h14.677C136.989 33.902 117.754 24 96 24c-39.701 0-72 32.299-72 72m152 0c0 44.112-35.888 80-80 80-23.794 0-44.85-10.522-60-29.797V160h-8v-28h28v8H41.323C55.011 158.098 74.246 168 96 168c39.701 0 72-32.299 72-72z"/></svg>