<svg xmlns="http://www.w3.org/2000/svg" viewBox="0 0 192 192"><path d="m76.2 32.197-5.658-5.657c6.8-6.8 15.84-10.544 25.457-10.544 9.616 0 18.656 3.744 25.456 10.544l-5.658 5.657c-5.288-5.29-12.32-8.201-19.798-8.201s-14.51 2.912-19.8 8.2zm5.656 5.657 5.658 5.656a11.92 11.92 0 0 1 8.485-3.515c3.205 0 6.218 1.249 8.485 3.515l5.657-5.657c-3.778-3.777-8.8-5.858-14.142-5.858s-10.365 2.08-14.143 5.859M132 64v96c0 8.822-7.351 16-16.387 16H76.387C67.351 176 60 168.822 60 160V64c0-8.822 7.351-16 16.387-16h39.226C124.649 48 132 55.178 132 64m-8 0c0-4.411-3.763-8-8.387-8H76.387C71.763 56 68 59.589 68 64v96c0 4.411 3.763 8 8.387 8h39.226c4.624 0 8.387-3.589 8.387-8zM84 80h-8v8h8zm16 0h-8v8h8zm8 8h8v-8h-8zm-24 8h-8v8h8zm16 0h-8v8h8zm8 8h8v-8h-8zm-24 8h-8v8h8zm16 0h-8v8h8zm8 8h8v-8h-8zm4 24c0 8.822-7.178 16-16 16s-16-7.178-16-16 7.178-16 16-16 16 7.178 16 16m-8 0c0-4.411-3.589-8-8-8s-8 3.589-8 8 3.589 8 8 8 8-3.589 8-8m8-80a4 4 0 1 0 0 8 4 4 0 0 0 0-8"/></svg>