<svg xmlns="http://www.w3.org/2000/svg" viewBox="0 0 192 192"><path d="M128 64h32v8h-32zm32-8h-24.05L120 40.07V32h40zm-8-16h-24v8h24zm-48.01-24.01v8.09l4.53 4.53 3.49 3.48v-8.08h55.98v71.98H160V80h-8v15.99h-8V80h-8v15.99h-8v8.02h48.01V15.99zm-2.84 26.84 9.18 9.17h-2.36c-17.64 0-32 14.35-32 32 0 8.68 3.34 17 9.17 22.83l.01-.01.01.01 5.66-5.66C86.49 96.83 84 90.57 84 84c0-13.23 10.77-24 24-24h2.33l-9.18 9.17 5.65 5.66L125.66 56 106.8 37.17zM92.52 80H120v64H80v12h8v8H48v-8h8v-12H16V80h52.21c-.13 1.32-.21 2.65-.21 4 0 1.34.07 2.68.19 4H24v48h88V88H92.47c-.3-1.29-.47-2.63-.47-4 0-1.38.19-2.72.52-4M72 144h-8v12h8z"/></svg>