<svg xmlns="http://www.w3.org/2000/svg" viewBox="0 0 192 192"><path d="M128 64h32v8h-32zm32-32v24h-24.1L120 40.1V32zm-8 8h-24v8h24zm-48-24v8.1l4.5 4.5 3.5 3.5V24h56v72h-8V80h-8v16h-8V80h-8v16h-8v8h48V16zm40 96c-17.6 0-32 14.4-32 32s14.4 32 32 32 32-14.4 32-32-14.4-32-32-32m0 56c-13.2 0-24-10.8-24-24s10.8-24 24-24 24 10.8 24 24-10.8 24-24 24m16-20h-12v12h-8v-12h-12v-8h12v-12h8v12h12zm-56-4c0-2.7.3-5.4.8-8H24V88h44.2c-.1-1.3-.2-2.7-.2-4 0-1.4.1-2.7.2-4H16v64h40v12h-8v8h40v-8h-8v-12zm-32 12h-8v-12h8zm34.8-118.8-5.7 5.7 9.2 9.2h-2.4c-17.6 0-32 14.4-32 32 0 8.7 3.3 17 9.2 22.8l5.7-5.7C86.5 96.8 84 90.6 84 84c0-13.2 10.8-24 24-24h2.3l-9.2 9.2 5.7 5.7L125.7 56zM120 112V80H92.5c-.3 1.3-.5 2.6-.5 4s.2 2.7.5 4H112v32c2.3-3 5-5.7 8-8"/></svg>