<svg xmlns="http://www.w3.org/2000/svg" viewBox="0 0 192 192"><path d="M79.997 124.025a4 4 0 0 1-3.795-2.736l-12.54-37.667-11.934 29.86A4 4 0 0 1 48 116H36.2a4 4 0 0 1-.2.005c-11.032 0-20.007-8.975-20.007-20.007S24.968 75.991 36 75.991v8c-6.62 0-12.007 5.386-12.007 12.007 0 6.563 5.294 11.913 11.835 12.006Q35.913 108 36 108h9.304L60.29 70.503c.623-1.56 2.164-2.586 3.832-2.514a4 4 0 0 1 3.677 2.735L80 107.368 92.21 70.73a4 4 0 0 1 7.59 0l12.201 36.62 12.206-36.63a4 4 0 0 1 3.677-2.734c1.658-.066 3.208.954 3.832 2.514l14.992 37.5H156q.087 0 .173.003c6.54-.092 11.834-5.442 11.834-12.005 0-6.62-5.386-12.007-12.007-12.007v-8c11.032 0 20.007 8.975 20.007 20.007s-8.975 20.007-20.007 20.007a5 5 0 0 1-.2-.005H144a4 4 0 0 1-3.714-2.515l-11.943-29.872-12.548 37.655a4 4 0 0 1-7.59 0l-12.2-36.621-12.213 36.643a4 4 0 0 1-3.795 2.735"/></svg>