<svg xmlns="http://www.w3.org/2000/svg" viewBox="0 0 192 192"><path d="M158 16h-28c-9.9 0-18 8.1-18 18v28c0 9.9 8.1 18 18 18h28.8c9.5-.4 17.2-8.3 17.2-18V34c0-9.9-8.1-18-18-18m10 46c0 5.5-4.5 10-10 10h-28c-5.5 0-10-4.5-10-10v-6h16v-8h-16v-8h16v-8h-15.8c.9-4.6 5-8 9.8-8h28c5.5 0 10 4.5 10 10zM94.7 50.8c0 .2 0 .4.2.7 0 .4.2.8.4 1.2 0 .2.1.4.2.6.4 1.1 1 2.2 1.7 3.1.2.3.4.5.7.8.2.3.5.5.7.8s5.5-5.5 5.5-5.5h.1c0-.2-.1-.2-.1-.3-2.2-2.3-2.2-5.9 0-8.2l.1-.1h-.1c0-.1-5.5-5.7-5.5-5.7-.2.2-.5.5-.7.8s-.4.5-.7.8c-.7 1-1.3 2-1.7 3.1 0 .2-.2.4-.2.6-.1.4-.3.8-.4 1.2 0 .2-.1.4-.2.7-.3 1.8-.3 3.6 0 5.3Zm-1.9 12.8c-8.6-8.6-8.6-22.5 0-31.1l-5.7-5.7c-1.8 1.8-3.3 3.8-4.6 5.9-1.6 2.7-2.7 5.6-3.4 8.5-2.3 9.8.4 20.4 8 28zM104 32.3v.2h.1v-.2Zm.1 31.3h-.1ZM51.5 96H51c-6.1 0-11 4.9-11 11v2c0 6.1 4.9 11 11 11h17c6.1 0 11-4.9 11-11s-4-10.2-10.5-11c-4.7-.5-17-2-17-2M71 109c0 1.7-1.3 3-3 3H51c-1.7 0-3-1.3-3-3v-2c0-1.6 1.2-2.9 2.8-3 1.9.2 12.5 1.5 16.7 2 3.5.4 3.5 2 3.5 3m70 11c6.1 0 11-4.9 11-11v-2c0-6.1-4.9-11-11-11h-.5s-12.3 1.5-17 2c-6.5.8-10.5 5-10.5 11s4.9 11 11 11zm-20-11c0-1 0-2.6 3.5-3 4.3-.5 14.9-1.7 16.7-2 1.6 0 2.8 1.4 2.8 3v2c0 1.7-1.3 3-3 3h-17c-1.7 0-3-1.3-3-3"/><path d="M158 88h-3.1l2 2.5c2 2.5 7.1 10.5 7.1 17.5v28c0 9-1.6 14.5-2.6 16h-15.3c-.8-.9-3.1-4.6-3.1-16v-4H49v4c0 11.4-2.3 15.1-3.1 16H30.6c-1-1.5-2.6-7-2.6-16v-28c0-8.4 7.1-17.4 7.1-17.5l5.2-6.5H28c-2.9 0-4-2.4-4-4 0-2.9 2.2-3.8 3.4-4h19.5l.9-2.7c0-.1 4.9-14.5 11.4-22.8v-.2c2.2-2.9 6.1-5.3 11.5-7.1.4-3 1.1-6 2.2-8.9-9.7 2.2-16.5 6-20.2 11.4-5.5 7.1-9.8 17.5-11.6 22.4H26.3c-3.6.6-10.4 3.7-10.4 12s3.3 10.2 8.9 11.6c-2.4 4.3-4.9 10.2-4.9 16.4v28c0 7.2 1 24 10 24h17.7c.8-.2 3.6-.9 5.8-4.9 2-3.4 3.1-8.5 3.4-15.1H135c.3 6.6 1.5 11.7 3.4 15.1 2.3 4 5 4.7 5.8 4.8h17.6c9 0 10-16.8 10-24v-28c0-8.8-5.2-17.3-7.6-20.8-2 .5-4.2.8-6.4.8Z"/></svg>