<svg xmlns="http://www.w3.org/2000/svg" viewBox="0 0 192 192"><path d="M95.996 168.042c-35.312 0-64.04-28.729-64.04-64.041S60.684 39.96 95.996 39.96s64.041 28.728 64.041 64.041-28.728 64.041-64.04 64.041zm0-120.082c-30.9 0-56.04 25.14-56.04 56.041s25.14 56.041 56.04 56.041c30.901 0 56.041-25.14 56.041-56.041s-25.14-56.041-56.04-56.041zm0-23.96C51.886 24 16 59.886 16 103.996h8C24 64.297 56.297 32 95.996 32c39.7 0 71.997 32.297 71.997 71.996h8c0-44.11-35.887-79.996-79.997-79.996m-.08 112c-17.645 0-32-14.355-32-32s14.355-32 32-32 32 14.355 32 32-14.354 32-32 32m0-56c-13.233 0-24 10.766-24 24s10.767 24 24 24 24-10.766 24-24-10.766-24-24-24m.265 64.005a4 4 0 1 0-.406 7.99 4 4 0 0 0 .406-7.99m.022-88a4 4 0 1 0-.406 7.99 4 4 0 0 0 .406-7.99m15.538 84.768a4 4 0 1 0 2.737 7.518 4 4 0 0 0-2.737-7.518m-34.24-81.065a4 4 0 1 0 2.736 7.518 4 4 0 0 0-2.737-7.518zm47.114 72.238a4 4 0 1 0 5.405 5.898 4 4 0 0 0-5.405-5.898m-62.657-61.79a4 4 0 1 0 5.405 5.897 4 4 0 0 0-5.405-5.898zm18.279 70.617a4 4 0 1 0-2.736 7.518 4 4 0 0 0 2.736-7.518m34.24-81.065a4 4 0 1 0-2.735 7.518 4 4 0 0 0 2.736-7.518zm-52.765 72.485a4 4 0 1 0 5.898 5.405 4 4 0 0 0-5.898-5.405m62.656-61.79a4 4 0 1 0 5.898 5.404 4 4 0 0 0-5.898-5.405zm15.824 29.613a4 4 0 1 0-.407 7.99 4 4 0 0 0 .407-7.99m-84.208 4.176a4 4 0 1 0-7.99-.406 4 4 0 0 0 7.99.406m81.905-13.554a4 4 0 1 0-2.736-7.518 4 4 0 0 0 2.736 7.518m-83.8 26.724a4 4 0 1 0 2.735 7.517 4 4 0 0 0-2.736-7.517zm83.8 0a4 4 0 1 0-2.736 7.517 4 4 0 0 0 2.736-7.517M56.824 83.12a4 4 0 1 0-2.736 7.517 4 4 0 0 0 2.736-7.517"/></svg>