<svg xmlns="http://www.w3.org/2000/svg" viewBox="0 0 192 192"><path d="M84 38a6 6 0 1 1 12 0 6 6 0 0 1-12 0m76.156 118.933-12.345 8.519a8.95 8.95 0 0 1-5.099 1.59 9 9 0 0 1-7.42-3.886l-25.558-37.037a8.94 8.94 0 0 1-1.445-6.735c.078-.426.195-.838.33-1.241L96.001 99.846v13.841c2.414 1.69 4 4.487 4 7.652v45.322c0 5.15-4.189 9.339-9.339 9.339H73.341c-5.15 0-9.339-4.189-9.339-9.339v-45.322c0-3.164 1.586-5.962 4-7.652V92h-12v-8h12V72h-12v-8h12V51.97h-16V44H40.001v-8h12.001v-8.02h16V15.973l32.836.216c6.144 0 11.164 4.849 11.164 10.81v28c0 3.703-1.483 7.279-4.175 10.069l-.095.096-2.962 2.869 24.367 35.465a9 9 0 0 1 1.976.137 8.94 8.94 0 0 1 5.784 3.741l25.558 37.037c2.819 4.085 1.789 9.701-2.296 12.52ZM76 24.026v87.973h12V78.512c0-3.307 1.277-6.45 3.595-8.852l.095-.095 10.42-10.095c1.219-1.284 1.89-2.869 1.89-4.47V27c0-1.549-1.431-2.81-3.19-2.81zM68 43.97v-7.99h-8v7.99zm24 77.368a1.34 1.34 0 0 0-1.339-1.339H73.34a1.34 1.34 0 0 0-1.339 1.339v45.322a1.34 1.34 0 0 0 1.339 1.339h17.321A1.34 1.34 0 0 0 92 166.66zm4-35.584 18.18 26.361 7.576-5.228-22.817-33.208-1.629 1.578a4.73 4.73 0 0 0-1.311 3.254v7.242Zm59.868 63.203L130.31 111.92a.98.98 0 0 0-.83-.433 1 1 0 0 0-.562.178l-12.345 8.519c-.282.195-.382.457-.416.643s-.034.466.161.748l25.558 37.038a.98.98 0 0 0 .643.416.98.98 0 0 0 .749-.161l12.346-8.52a.98.98 0 0 0 .415-.642.98.98 0 0 0-.161-.749"/></svg>