<svg xmlns="http://www.w3.org/2000/svg" xml:space="preserve" viewBox="0 0 192 192"><path d="M140 64H52v-4c0-24.262 19.738-44 44-44s44 19.738 44 44zm-79.78-8h71.56C129.782 38.025 114.497 24 96 24S62.217 38.025 60.22 56m35.653 120c-25.112 0-35.5-18.746-36.383-27.297L51.565 72h88.884l-8.193 76.8c-.965 8.88-11.127 27.2-36.383 27.2M60.435 80l7.012 67.88c.555 5.373 8.323 20.12 28.426 20.12 19.64 0 27.746-13.773 28.429-20.057L131.55 80zm35.644-48.946C89.193 31.054 84 36.62 84 44v4h24v-4c0-7.501-5.014-12.946-11.92-12.946M96 44a4 4 0 1 1 0-8 4 4 0 0 1 0 8m79.778 55.438-20.65-25.93-6.257 4.984 17.573 22.066-7.798 16.841a12 12 0 0 0-3.625-.562h-.001a11.9 11.9 0 0 0-8.49 3.527l-2.172 2.179 5.666 5.647 2.172-2.179a3.96 3.96 0 0 1 2.824-1.174c1.066 0 2.069.417 2.824 1.176a4.05 4.05 0 0 1-.001 5.707l-2.172 2.18 5.666 5.647 2.172-2.18c4.041-4.054 4.58-10.304 1.631-14.953zM45.065 120.364a11.9 11.9 0 0 0-8.489-3.527h-.002a12 12 0 0 0-3.27.46l-7.748-16.739 17.573-22.066-6.258-4.984-20.65 25.929 10.472 22.62c-3.21 4.682-2.752 11.151 1.394 15.31l2.172 2.18 5.666-5.648-2.172-2.179a4.05 4.05 0 0 1-.001-5.708 3.96 3.96 0 0 1 2.823-1.175h.001c1.066 0 2.069.417 2.823 1.174l2.172 2.18 5.666-5.648z"/></svg>