<svg xmlns="http://www.w3.org/2000/svg" viewBox="0 0 192 192"><path d="M176 156c0-19.542-27.082-31.128-43.084-34.894C115.217 116.941 89.074 116 85 116c-2.987 0-6.49-2.285-10.199-4.705C69.561 107.875 63.621 104 56 104H36c-6.917 0-20 4.18-20 20v4c0 4.97 2.275 9.804 5.783 13.477A28 28 0 0 0 21 148c0 15.44 12.56 28 28 28 7.41 0 14.383-2.883 19.593-8H135.7c1.653 4.653 6.087 8 11.3 8s9.647-3.347 11.3-8H176zm-147-8c0-.488.026-.973.061-1.457C31.27 147.473 33.618 148 36 148h6a7 7 0 0 0 7 7 6.99 6.99 0 0 0 6.01-3.425c5.05 4.216 5.86 10.848 5.981 12.428A19.9 19.9 0 0 1 49 168c-11.028 0-20-8.972-20-20m139 12H68.492C66.73 151.538 60.21 140 44 140h-8c-5.832 0-12-6.168-12-12v-4c0-11.291 10.015-11.977 12-12h20c5.241 0 9.913 3.048 14.43 5.995C74.955 120.947 79.634 124 85 124c5.576 0 30.268 1.172 46.084 4.894 9.252 2.177 18.39 5.98 25.072 10.434C161.56 142.93 168 148.747 168 156z"/></svg>