<svg xmlns="http://www.w3.org/2000/svg" xml:space="preserve" viewBox="0 0 192 192"><path d="M132 151c-10.477 0-19-8.524-19-19s8.523-19.001 19-19.001 19 8.523 19 19-8.524 19-19 19m0-30.001c-6.065 0-11 4.935-11 11s4.935 11 11 11 11-4.935 11-11-4.935-11-11-11m0 55a44.5 44.5 0 0 1-6.942-.549l-2.582-.409-2.5-9.549a35 35 0 0 1-3.156-1.311l-8.513 4.981-2.116-1.534a44.1 44.1 0 0 1-9.819-9.821l-1.535-2.116 4.982-8.508q-.736-1.56-1.32-3.18l-9.537-2.473-.411-2.587A44.4 44.4 0 0 1 88 132c0-2.31.185-4.645.55-6.943l.41-2.581 9.547-2.496a35 35 0 0 1 1.312-3.16l-4.981-8.512 1.534-2.115a44 44 0 0 1 9.82-9.82l2.115-1.534 8.51 4.981q1.559-.736 3.179-1.319l2.473-9.541 2.589-.41c4.61-.729 9.277-.73 13.883 0l2.582.41 2.5 9.549q1.608.58 3.157 1.31l8.514-4.98 2.115 1.534a44.2 44.2 0 0 1 9.819 9.82l1.535 2.115-4.983 8.51q.736 1.558 1.319 3.18l9.54 2.472.41 2.589c.365 2.303.551 4.638.551 6.941s-.186 4.639-.55 6.942l-.41 2.582-9.548 2.498a35 35 0 0 1-1.312 3.16l4.981 8.51-1.533 2.116a44.1 44.1 0 0 1-9.821 9.82l-2.116 1.535-8.508-4.982q-1.558.736-3.18 1.32l-2.473 9.537-2.587.411A44.4 44.4 0 0 1 132 176m-3.134-8.137c2.092.182 4.172.182 6.26 0l2.259-8.712 2.198-.628a27.4 27.4 0 0 0 5.781-2.398l1.996-1.11 7.779 4.553a36 36 0 0 0 4.428-4.428l-4.551-7.778 1.108-1.994a27.5 27.5 0 0 0 2.392-5.763l.627-2.192 8.72-2.28a36 36 0 0 0 0-6.259l-8.713-2.258-.628-2.199a27.4 27.4 0 0 0-2.398-5.781l-1.11-1.996 4.554-7.778a36 36 0 0 0-4.43-4.43l-7.78 4.551-1.994-1.108a27.4 27.4 0 0 0-5.76-2.392l-2.19-.627-2.281-8.718a36 36 0 0 0-6.26-.001l-2.258 8.713-2.199.628a27.5 27.5 0 0 0-5.783 2.398l-1.995 1.108-7.777-4.551a36 36 0 0 0-4.43 4.43l4.552 7.778-1.108 1.994a27.4 27.4 0 0 0-2.392 5.762l-.628 2.191-8.718 2.28a36 36 0 0 0 0 6.259l8.712 2.259.627 2.199a27.5 27.5 0 0 0 2.4 5.783l1.108 1.995-4.552 7.777a36 36 0 0 0 4.43 4.43l7.78-4.552 1.994 1.108a27.5 27.5 0 0 0 5.758 2.392l2.19.627zM132 151c-10.477 0-19-8.523-19-19s8.523-19 19-19 19 8.523 19 19-8.524 19-19 19m0-30c-6.065 0-11 4.935-11 11s4.935 11 11 11 11-4.935 11-11-4.935-11-11-11M44 160h43.978l-6.127-8H52v-16h28.157a52 52 0 0 1-.157-4q.001-1.997.157-4.001H69.655L57.93 116.274a28.2 28.2 0 0 0 10.343-10.344l10.849 10.848 8.968-2.344-16.686-16.686c.298-1.423.489-2.884.561-4.376L104.303 74.7l4.549 7.873 22.676-13.093-1.51-2.615 10-2.02L159.04 42.6l-6.08-5.2-17.229 20.15-9.936 2.007-13.127-22.724 6.834-7.428 25.346-5.496-1.696-7.818-27.822 6.033-6.854 7.451-1.755-3.038-22.677 13.091 4.888 8.463-32.56 18.799A27.8 27.8 0 0 0 44 64c-15.44 0-28 12.56-28 28s12.56 28 28 28c1.97 0 3.891-.207 5.747-.596L58.342 128H44zm59.795-122.537 16.804 29.09-8.822 5.094-.546-.946h.001L95.867 44.086l-.007.004-.886-1.535zM92.934 55.018l7.368 12.756-29.28 16.905a28 28 0 0 0-7.471-12.697zM44 112c-11.028 0-20-8.972-20-20s8.972-20 20-20 20 8.972 20 20-8.972 20-20 20"/></svg>