<svg xmlns="http://www.w3.org/2000/svg" xml:space="preserve" viewBox="0 0 192 192"><path d="M72 120h48c6.617 0 12-5.383 12-12V96H60v12c0 6.617 5.383 12 12 12m12-8v-8h8v8zm16-8h8v8h-8zm24 4c0 2.206-1.794 4-4 4h-4v-8h8zm-56-4h8v8h-4c-2.206 0-4-1.794-4-4zm6-20c7.72 0 14-6.28 14-14s-6.28-14-14-14-14 6.28-14 14 6.28 14 14 14m0-20c3.309 0 6 2.691 6 6s-2.691 6-6 6-6-2.691-6-6 2.691-6 6-6m102 24c0-11.87-8.664-21.75-20-23.66V40h-56v-9.079A7.99 7.99 0 0 0 104 24a8 8 0 0 0-16 0 7.99 7.99 0 0 0 4 6.921V40H36v24.34C24.664 66.25 16 76.13 16 88s8.664 21.75 20 23.66V136h32v16H36v24h120v-24h-36v-16h36v-24.34c11.336-1.91 20-11.79 20-23.66M24 88c0-7.439 5.11-13.69 12-15.473v30.946C29.11 101.69 24 95.44 24 88m124 72v8H44v-8h104m-36-8H76v-16h36zm36-24H44V48h104zm8-24.527V72.527c6.89 1.783 12 8.034 12 15.473s-5.11 13.69-12 15.473M118 84c7.72 0 14-6.28 14-14s-6.28-14-14-14-14 6.28-14 14 6.28 14 14 14m0-20c3.309 0 6 2.691 6 6s-2.691 6-6 6-6-2.691-6-6 2.691-6 6-6"/></svg>