<svg xmlns="http://www.w3.org/2000/svg" viewBox="0 0 192 192"><path fill="#20201e" d="M156 64.16a56 56 0 0 0-4-.16c-2.706 0-5.37.193-8.002.564v8.098A49 49 0 0 1 152 72c1.341 0 2.673.076 4 .186zm8 1.15v8.228a48 48 0 0 1 12 4.91V69.42a55.8 55.8 0 0 0-12-4.11M124 71.294v9.26c3.973-2.507 7.96-4.454 11.998-5.851v-8.405c-4.052 1.192-8.041 2.86-11.998 4.996"/><g fill="#20201e"><path d="M28 84.312v45.48c1.996 1.87 4.632 3.701 8 4.885V81.03A32 32 0 0 1 44 80c2.648 0 5.321.395 8 1.105v54.08a43.3 43.3 0 0 0 8-2.469V84.117c5.444 2.616 10.83 6.286 16 10.449v28.248c2.701-2.173 5.358-4.528 8-7v-14.316a239 239 0 0 1 7.372 7.142l5.664-5.655C82.282 88.125 63.316 72 44 72c-10.894 0-20.78 4.382-28 11.47v13.06a32.24 32.24 0 0 1 12-12.218"/><path d="M152 80c-19.76 0-34.317 13.655-49.387 28.722l-5.663 5.654.007.007C81.803 129.475 65.801 144 44 144c-12.036 0-22.537-6.682-28-16.53v13.06a40.1 40.1 0 0 0 16 9.623V160h8v-8.2q1.974.199 4 .2c4.19 0 8.184-.461 12.003-1.302l-.003 9.3 8 .003.004-11.697c5.703-2.148 11.006-5.11 15.996-8.567V160h8v-26.378c5.664-4.726 10.943-9.908 16-14.966V160h8v-49.318c5.292-5.188 10.555-10.033 16-13.9V160h8V92h-.084C141 89.49 146.31 88 152 88v72h8V89.02a31.9 31.9 0 0 1 16 9.83V88.008A39.85 39.85 0 0 0 152 80"/></g></svg>