<svg xmlns="http://www.w3.org/2000/svg" viewBox="0 0 192 192"><path d="m68.527 29.426-3.055-7.394a79.6 79.6 0 0 1 22.112-5.595l.832 7.958a71.6 71.6 0 0 0-19.89 5.03zm-6.63 3.146-3.795-7.043a80.2 80.2 0 0 0-18.944 14.178l5.684 5.63a72.2 72.2 0 0 1 17.055-12.765M40.173 50.528l-6.2-5.056a79.9 79.9 0 0 0-11.94 20l7.393 3.055a71.9 71.9 0 0 1 10.747-18zM16 96h8c0-7.101 1.03-14.114 3.062-20.844l-7.658-2.312A80 80 0 0 0 16 96m80-80v8c39.701 0 72 32.299 72 72s-32.299 72-72 72c-21.754 0-40.99-9.902-54.677-28H72v-8H28v44h8v-29.797C51.15 165.478 72.206 176 96 176c44.112 0 80-35.888 80-80s-35.888-80-80-80"/></svg>