<svg xmlns="http://www.w3.org/2000/svg" viewBox="0 0 192 192"><path d="M128.53 119.782a231 231 0 0 1-16.285 1.564l-.49-7.984c5.411-.332 10.699-.84 15.716-1.51l1.058 7.93zm6.764-9.143 1.403 7.877c6.079-1.083 11.63-2.405 16.498-3.93l-2.39-7.635c-4.546 1.424-9.765 2.665-15.511 3.688m35.294-24.7c-11.289-9.58-40.528-15.77-74.49-15.77-39.708 0-79.904 8.873-79.904 25.832 0 15.391 33.107 24.122 68.909 25.605l-18.623 15.06 5.03 6.22 30.21-24.429-24.428-30.21-6.22 5.029 16.517 20.427c-41.662-1.287-63.395-11.863-63.395-17.702 0-6.223 24.695-17.832 71.903-17.832 31.189 0 59.692 5.703 69.315 13.87.88.746 1.551 1.484 1.993 2.19.4.64.595 1.219.595 1.772 0 1.848-2.53 4.956-9.634 8.135l3.268 7.303C171.167 107.17 176 101.978 176 96c0-2.07-.61-4.094-1.814-6.017-.879-1.404-2.09-2.765-3.598-4.045z"/></svg>