<svg xmlns="http://www.w3.org/2000/svg" viewBox="0 0 192 192"><path d="m113.36 111.658 7.985.49c-.344 5.6-.87 11.078-1.565 16.284l-7.93-1.058a222 222 0 0 0 1.51-15.716m-6.409 39.05 7.635 2.39c1.524-4.872 2.846-10.422 3.929-16.498l-7.877-1.402c-1.023 5.743-2.263 10.96-3.687 15.51m-10.949 17.195c-.745 0-1.498-.223-2.303-.68-.806-.46-1.64-1.148-2.48-2.049-8.96-9.602-15.217-38.048-15.217-69.174 0-44.548 11.648-71.903 20-71.903 7.717 0 18.24 23.367 19.797 62.06L98.833 69.186l-5.658 5.656L120 101.673l26.832-26.83-5.656-5.657-17.368 17.365c-1.454-35.692-11.094-70.454-27.806-70.454-18.187 0-28 41.168-28 79.903 0 34.03 6.817 63.324 17.367 74.631 1.392 1.493 2.863 2.685 4.373 3.544 2.014 1.147 4.12 1.728 6.26 1.728 4.354 0 10.758-2.47 16.545-14.235l-7.178-3.53c-3.054 6.205-6.468 9.765-9.367 9.765"/></svg>