<svg xmlns="http://www.w3.org/2000/svg" viewBox="0 0 192 192"><path d="M68 112V68h-8v44H32v48h144v-48zm100 40H40v-32h128zM56 140h-8v-8h8zm16 0h-8v-8h8zm16 0h-8v-8h8zm72 0h-8v-8h8zM88 68.113c0-6.41-2.497-12.438-7.03-16.97l5.657-5.658C92.671 51.529 96 59.565 96 68.113s-3.329 16.583-9.373 22.627l-5.656-5.657A23.84 23.84 0 0 0 88 68.113m-56 0c0-8.548 3.329-16.584 9.373-22.628l5.657 5.657C42.497 55.675 40 61.702 40 68.112s2.497 12.438 7.03 16.971l-5.657 5.657C35.33 84.696 32 76.66 32 68.113m72 0c0-10.685-4.16-20.73-11.716-28.284l5.657-5.658C107.007 43.238 112 55.291 112 68.113s-4.993 24.875-14.059 33.941l-5.657-5.657C99.84 88.842 104 78.797 104 68.113M35.716 96.397l-5.657 5.657C20.993 92.988 16 80.934 16 68.113s4.993-24.875 14.059-33.942l5.657 5.658C28.16 47.383 24 57.429 24 68.113s4.16 20.73 11.716 28.284"/></svg>