<svg xmlns="http://www.w3.org/2000/svg" viewBox="0 0 192 192"><path d="m125.857 38.31-6.406-4.454c6.006-8.637 12.004-12.271 19.735-15.335l2.875 7.254c-7.727 3.062-11.816 6.225-16.204 12.535M107.6 122.633l3.884-1.428-1.654-3.794c-5.513-12.64-4.956-23.02 1.751-32.665 6.861-9.868 18.099-15.681 30.179-15.502l3.548.012.412-3.763-.004-.242a21.76 21.76 0 0 0-9.309-17.515 21.7 21.7 0 0 0-10.726-3.821l-.38-.036a13.87 13.87 0 0 1-7.074-2.463 13.86 13.86 0 0 1-4.735-5.692l-.165-.341a21.66 21.66 0 0 0-7.355-8.809 21.77 21.77 0 0 0-19.176-2.79l-4.457.742 1.777 4.49c4.467 11.285 3.003 23.963-3.915 33.912-6.28 9.033-14.89 13.071-27.89 13.071h-.261l-3.674-.016-.235 3.666c-.488 7.594 3.043 14.976 9.212 19.265a21.7 21.7 0 0 0 10.726 3.822l.38.036a13.86 13.86 0 0 1 7.074 2.462 13.86 13.86 0 0 1 4.735 5.693l.166.342a21.66 21.66 0 0 0 7.354 8.806 21.68 21.68 0 0 0 12.374 3.88 21.6 21.6 0 0 0 7.438-1.322M79.987 98.828a21.66 21.66 0 0 0-10.97-3.84l-.308-.029a13.9 13.9 0 0 1-6.902-2.451 13.7 13.7 0 0 1-5.674-8.817c13.59-.807 23.342-6.05 30.474-16.31a43.8 43.8 0 0 0 6.237-36.861c3.064-.154 6.12.685 8.674 2.46a13.86 13.86 0 0 1 4.724 5.67l.161.333a21.66 21.66 0 0 0 7.37 8.84 21.66 21.66 0 0 0 10.97 3.839l.309.03a13.87 13.87 0 0 1 6.901 2.45 13.92 13.92 0 0 1 5.389 7.471 43.9 43.9 0 0 0-32.167 18.679c-7.477 10.752-8.874 22.514-4.227 35.838a13.85 13.85 0 0 1-8.706-2.46 13.85 13.85 0 0 1-4.724-5.671l-.162-.334a21.7 21.7 0 0 0-7.369-8.837m-5.603 13.943-6.229-4.698-4.83 6.405 6.229 4.698zM164.134 152V32h-8.269v120c0 8.896-8.037 15.866-18.298 15.866H54.262c-9.995 0-18.127-7.445-18.127-16.595V32h-8.27v119.271c0 13.71 11.842 24.863 26.397 24.863h83.305c14.898 0 26.568-10.6 26.568-24.134z"/></svg>