<svg xmlns="http://www.w3.org/2000/svg" viewBox="0 0 192 192"><path d="M58.507 114.399c1.172.36 2.58.528 4.141.528 8.5 0 21.5-5.01 25.268-11.536 3.292-5.702-.873-12.773-11.713-20.085a68 68 0 0 1 4.518-6.474c3.906 3.612 8.556 6.044 12.942 7.918l3.145-7.356c-4.277-1.828-7.952-3.88-10.814-6.575a78 78 0 0 1 6.143-5.655c5.229 5.803 12.555 9.232 19.924 11.801l2.634-7.553c-6.738-2.35-12.246-5.072-16.075-9.054a76 76 0 0 1 8.558-4.92c3.473 4.025 7.921 6.53 12.205 8.62l3.508-7.191c-3.057-1.49-5.621-2.996-7.7-4.783a74 74 0 0 1 11.148-2.965c1.76 5.985 6.518 13.299 10.871 15.815 1.317.762 2.668 1.143 3.959 1.143 1.27 0 2.482-.368 3.553-1.104 4.526-3.11 2.52-8.975 1.191-12.856-.47-1.371-1.179-3.444-1.143-4.196.046-.941.705-2.796 1.286-4.432 1.513-4.263 3.587-10.1-.453-13.72-2.043-1.829-4.895-2.204-7.823-1.033-4.534 1.813-9.428 7.32-11.333 12.24a82 82 0 0 0-16.068 4.405c-.83-2.113-1.351-4.573-1.531-7.543l-7.985.484c.245 4.046 1.021 7.43 2.178 10.3a86 86 0 0 0-8.729 5.01c-1.683-4.31-2.165-9.69-1.207-16.603l-7.923-1.099c-1.327 9.57-.201 16.86 2.486 22.535a84 84 0 0 0-6.369 5.662c-1.22-2.917-1.862-6.394-1.81-10.63l-8-.099c-.087 7.14 1.5 12.676 4.06 17.046a77 77 0 0 0-6.178 8.708C58.456 73.14 51.7 72.39 49.509 72.945c-1.455.369-2.638 1.233-3.331 2.434-3.89 6.738-1.8 17.95 1.172 25.502 1.686 4.288 5.379 11.745 11.157 13.518m81.326-77.787c-.286 1.3-.919 3.082-1.315 4.2-.841 2.367-1.635 4.603-1.738 6.722-.11 2.282.74 4.768 1.564 7.173l.264.777c-2.477-3.235-5.155-8.504-4.985-10.625.185-2.308 3.836-6.697 6.21-8.247M52.519 80.837c2.85.548 9.398 2.99 16.657 7.45 9.604 5.901 12.026 10.191 11.822 11.084l-.01.02c-2.47 4.28-15.84 8.677-20.135 7.36-1.188-.365-3.78-3.008-6.059-8.798-2.463-6.261-3.34-13.277-2.275-17.116m5.844 9.536a2.811 2.811 0 1 1 4.865 2.81 2.811 2.811 0 0 1-4.865-2.81M164.135 32v120c0 13.533-11.67 24.134-26.568 24.134H54.262c-14.555 0-26.397-11.153-26.397-24.863V32h8.27v119.271c0 9.15 8.132 16.595 18.127 16.595h83.305c10.261 0 18.298-6.97 18.298-15.866V32z"/></svg>