<svg xmlns="http://www.w3.org/2000/svg" viewBox="0 0 192 192"><path d="M164 32v120c0 13.458-11.61 24-26.433 24H54.262C39.782 176 28 164.907 28 151.271V32h8v119.271c0 5.742 3.176 10.814 8 13.828V160h8v-8h8v16h8v-8h8v8h16v-16h8v-8h8v24h8v-16h16v16h5.567c.829 0 1.636-.06 2.433-.148V160h13.59c1.53-2.342 2.41-5.063 2.41-8V32zm-64 16h-8v8h8zm-8 48h-8v8h8zm-16 48h8v-8h-8zm32-48v-8h-8v8zm-32 8H60v16h16zm36 24h16v-16h-16zm-12-8h-8v16h8zM84 80H68v8h16zm13.812 2.775L63.87 48.835l25.456-25.457c3.12-3.117 8.195-3.118 11.314 0l8.485 8.486 14.031-14.031 5.657 5.657-14.031 14.03 8.485 8.486a7.95 7.95 0 0 1 2.343 5.657 7.95 7.95 0 0 1-2.343 5.657zm-22.627-33.94 22.627 22.627 19.798-19.799-22.627-22.627z"/></svg>