<svg xmlns="http://www.w3.org/2000/svg" viewBox="0 0 192 192"><path d="M78.241 116.273 74.17 132h-3.63l-2.987-10.624L64.49 132h-3.674l-4.05-15.727h3.696l2.6 11.065 3.05-11.065h2.933l3.083 11.15 2.718-11.15h3.394zm8.577 0L92.48 132h-3.738l-1.021-2.997H81.34L80.309 132h-3.297l5.767-15.727h4.04zm.077 10.227-2.342-6.907-2.375 6.907zm17.455-2.782q-1.193-.741-4.135-1.343-1.538-.3-2.133-.704c-.595-.404-.596-.65-.596-1.144q0-1.697 2.46-1.697.945 0 1.649.387.702.387 1.327 1.235l2.857-1.579q-2.118-2.814-5.855-2.814-2.567 0-4.082 1.128-1.719 1.278-1.719 3.684 0 2.235 1.783 3.373.56.355 1.365.618.805.264 2.622.671 1.599.377 2.191.752.665.41.666 1.257a1.64 1.64 0 0 1-.656 1.354q-.752.58-2.158.58-1.334 0-2.166-.548t-1.315-1.74l-3.041 1.289q.86 1.825 2.29 2.739 1.631 1.03 4.263 1.031 2.793 0 4.383-1.117 1.826-1.278 1.826-3.814 0-2.394-1.826-3.598m3.492-4.609h4.447V132h3.524v-12.89h4.435v-2.837h-12.406zm25.77 0v-2.836h-11.044V132h11.399v-2.836h-7.918v-3.889h5.758v-2.62h-5.758v-3.546h7.562zM128 168c0 4.411 3.589 8 8 8s8-3.589 8-8-3.589-8-8-8-8 3.589-8 8m-80 0c0 4.411 3.589 8 8 8s8-3.589 8-8-3.589-8-8-8-8 3.589-8 8M155.885 45.708l-7.887 106.465c-.092 4.332-3.644 7.827-7.998 7.827H52c-4.354 0-7.906-3.495-7.998-7.827L36.115 45.708l-2.43-2.204C49.607 25.953 72.32 15.886 96 15.886s46.394 10.067 62.314 27.618l-2.43 2.204zM96 24.114c-16.883 0-33.208 5.691-46.408 15.886h66.764v21.987L93.172 85.17a4.005 4.005 0 0 0 0 5.658c1.51 1.51 4.146 1.51 5.656 0L124.356 65.3V40h18.052C129.208 29.805 112.883 24.114 96 24.114M147.692 48h-15.336v20.614l-27.87 27.87C102.22 98.752 99.205 100 96 100s-6.22-1.248-8.485-3.515c-4.678-4.678-4.678-12.292 0-16.97l20.841-20.842V48H44.308L52 151.852V152h88l.01-.295L147.693 48z"/></svg>