<svg xmlns="http://www.w3.org/2000/svg" viewBox="0 0 192 192"><path d="M137.567 176H54.262C39.782 176 28 164.907 28 151.271V32h8v119.271C36 160.496 44.192 168 54.262 168h83.305c10.336 0 18.433-7.028 18.433-16V32h8v120c0 13.458-11.61 24-26.433 24M60.817 72h3.674l3.062-10.624L70.539 72h3.63l4.072-15.727h-3.394l-2.718 11.15-3.083-11.15h-2.933l-3.05 11.065-2.6-11.065h-3.695zm31.663 0-5.662-15.727H82.78L77.012 72h3.297l1.03-2.997h6.382L88.742 72zm-5.585-5.5h-4.717l2.375-6.907zm6.52 1.977q.858 1.825 2.288 2.739 1.632 1.03 4.264 1.031 2.793 0 4.383-1.117 1.826-1.278 1.826-3.814 0-2.395-1.826-3.598-1.193-.741-4.135-1.343-1.538-.3-2.133-.704c-.595-.404-.596-.65-.596-1.144q0-1.697 2.46-1.697.945 0 1.649.387.702.387 1.327 1.235l2.857-1.579q-2.118-2.814-5.855-2.814-2.567 0-4.082 1.128-1.719 1.278-1.719 3.684 0 2.235 1.783 3.373.56.355 1.365.618.805.264 2.622.671 1.599.377 2.191.752.665.41.666 1.257a1.64 1.64 0 0 1-.656 1.354q-.752.58-2.158.58-1.334 0-2.166-.548t-1.315-1.74zM112.288 72h3.524V59.11h4.435v-2.837h-12.406v2.836h4.447zm10.28 0h11.398v-2.836h-7.918v-3.889h5.758v-2.62h-5.758v-3.546h7.562v-2.836h-11.043z"/></svg>