<svg xmlns="http://www.w3.org/2000/svg" viewBox="0 0 192 192"><path d="M157.082 53.674 143.821 42.03C142.857 36.35 137.819 32 131.75 32h-71.5c-6.069 0-11.107 4.35-12.07 10.031L34.918 53.674C30.974 57.137 28 63.778 28 69.122v53.756c0 5.344 2.974 11.985 6.918 15.448L48.18 149.97c.963 5.68 6 10.03 12.07 10.03h71.5c6.069 0 11.107-4.35 12.07-10.031l13.262-11.643c3.944-3.463 6.918-10.104 6.918-15.448V69.122c0-5.344-2.974-11.985-6.918-15.448M36 122.878V69.122c0-3.01 2-7.508 4.196-9.436L48 52.835v86.33l-7.804-6.85C38 130.384 36 125.888 36 122.877zM136 148c0 2.206-1.907 4-4.25 4h-71.5c-2.343 0-4.25-1.794-4.25-4V44c0-2.206 1.907-4 4.25-4h71.5c2.343 0 4.25 1.794 4.25 4zm20-25.122c0 3.01-2 7.508-4.196 9.436L144 139.165v-86.33l7.804 6.85C154 61.616 156 66.112 156 69.123v53.756zM112 80H80c-6.841 0-12-5.337-12-12.413v-3.174C68 57.337 73.159 52 80 52h32c6.841 0 12 5.337 12 12.413v3.174C124 74.663 118.841 80 112 80M80 60c-2.763 0-4 2.217-4 4.413v3.174C76 69.783 77.237 72 80 72h32c2.763 0 4-2.217 4-4.413v-3.174c0-2.196-1.237-4.413-4-4.413zm32 80H80c-6.953 0-12-5.047-12-12v-28c0-6.953 5.047-12 12-12h32c6.953 0 12 5.047 12 12v28c0 6.953-5.047 12-12 12M80 96c-2.505 0-4 1.495-4 4v28c0 2.505 1.495 4 4 4h32c2.505 0 4-1.495 4-4v-28c0-2.505-1.495-4-4-4z"/></svg>