<svg xmlns="http://www.w3.org/2000/svg" viewBox="0 0 192 192"><path d="M136 112c-9.348 0-17.459 5.375-21.42 13.194l-7.123-12.841 15.49-9.466 17.52-30.034c7.384-12.66 5.304-28.739-5.059-39.102l-4.316-4.316-53.65 95.803C73.49 117.395 65.365 112 56 112c-13.234 0-24 10.766-24 24s10.766 24 24 24c12.867 0 23.398-10.178 23.972-22.906l6.763-12.078 13.89-8.488 11.403 20.557C112.598 149.817 123.13 160 136 160c13.234 0 24-10.766 24-24s-10.766-24-24-24m-80 40c-8.822 0-16-7.178-16-16s7.178-16 16-16 16 7.178 16 16-7.178 16-16 16m38.717-41.237 37.97-67.803c5.16 7.62 5.638 17.688.87 25.862l-16.504 28.29-22.336 13.65zM136 152c-8.822 0-16-7.178-16-16s7.178-16 16-16 16 7.178 16 16-7.178 16-16 16M51.533 72.853c-7.384-12.66-5.304-28.739 5.059-39.102l4.316-4.316L91.48 84.027l-4.585 8.187L59.313 42.96c-5.16 7.62-5.638 17.688-.87 25.862l16.504 28.29 6.858 4.192-3.912 6.985-8.84-5.402z"/></svg>