<svg xmlns="http://www.w3.org/2000/svg" viewBox="0 0 192 192"><path fill="#060607" d="M55.93 80.4c-21.67 1.79-36.37 8.29-36.58 8.38l-1.65-3.65v-.01l-1.64-3.63c.15-.07.71-.32 1.64-.69 4.32-1.74 16.69-6.21 33.76-8.07 2.83-.3 5.79-.54 8.87-.68 4.64-.21 9.54-.2 14.65.11 3.13.2 6.33.5 9.6.94 1.98.27 3.98.58 6.01.95 1.92.35 3.82.72 5.73 1.12l-2.05 3.65-2.06 3.68q-1.425-.285-2.85-.54l1.55 2.87-4.63 8.26-6.77-12.53c-5.05-.5-9.93-.67-14.57-.6l10.01 17.15 6.76 4.14.37.23-4.17 6.82-.11-.07-8.75-5.34zM160 136c0 13.23-10.77 24-24 24-12.86 0-23.4-10.18-23.97-22.91l-7.58-13.53-3.91-6.98-13.8 8.44-6.77 12.07c-.01.37-.04.73-.07 1.09C78.8 150.39 68.49 160 56 160c-13.23 0-24-10.77-24-24s10.77-24 24-24c6.23 0 11.9 2.38 16.17 6.28 2.16 1.97 3.95 4.33 5.27 6.96l22.95-40.98 2.03-3.62 2.02-3.62 5.79-10.33 2.01-3.59 2.02-3.6 16.83-30.06 4.32 4.31c8.65 8.65 11.53 21.29 7.94 32.59a31.6 31.6 0 0 1-2.88 6.51l-.63 1.08-6.29 10.79h-.01l-4.21 7.22v.01l-6.38 10.94-15.58 9.52 3.91 6.98 3.28 5.85C118.5 117.4 126.64 112 136 112c13.23 0 24 10.77 24 24m-65.28-25.24 22.33-13.65 4.22-7.23 4.18-7.16 6.06-10.39 2.05-3.51a24 24 0 0 0 1.81-3.84c2.7-7.33 1.7-15.56-2.68-22.02l-11.76 21-.76 1.36-.92 1.64-1.09 1.95zM72 136q0-1.2-.18-2.34c-.45-3.07-1.78-5.86-3.72-8.11-2.93-3.4-7.27-5.55-12.1-5.55-8.82 0-16 7.18-16 16s7.18 16 16 16 16-7.18 16-16m80 0c0-8.82-7.18-16-16-16s-16 7.18-16 16 7.18 16 16 16 16-7.18 16-16M17.7 65.03l-1.64-3.65c.81-.36 12.86-5.7 31.27-8.24.76-7.15 3.9-14.03 9.26-19.39l4.38-4.38 12.19 22.59c5.58.26 11.41.89 17.43 1.98 5.77 1.04 10.95 2.22 15.69 3.43l-2.02 3.61-2.03 3.63c-4-.99-8.3-1.93-13.07-2.8-3.92-.71-7.76-1.21-11.5-1.52-3.19-.28-6.31-.42-9.33-.45-4.52-.05-8.83.13-12.9.49-2.78.24-5.43.55-7.95.92-16.96 2.48-27.95 7.34-28.13 7.42l-1.64-3.64zm37.84-12.79c2.72-.21 5.54-.36 8.46-.41l-4.74-8.79a24.1 24.1 0 0 0-3.72 9.2m120.39 22.01-.86-7.95c-9.36 1.01-17.03 1.17-23.6.8a39.8 39.8 0 0 1-3.03 7.82c2.96.24 6.14.37 9.59.37 5.28 0 11.18-.31 17.9-1.04M141.9 86.27l-4.31 7.39c6.21 1.08 12.84 1.74 20.55 1.74 5.34 0 11.2-.31 17.79-1.03l-.86-7.95c-13.8 1.5-24.01 1.2-33.17-.15m-21.38-20.85v.01l.01-.01z"/></svg>