<svg xmlns="http://www.w3.org/2000/svg" viewBox="0 0 192 192"><path d="M160 128c-8.82 0-16 7.18-16 16s7.18 16 16 16 16-7.18 16-16-7.18-16-16-16m0 24c-4.41 0-8-3.59-8-8s3.59-8 8-8 8 3.59 8 8-3.59 8-8 8m0-28v-.087c5.504.035 7.708.868 9.6 2.287l4.8-6.4c-3.529-2.647-7.331-3.568-11.753-3.814L154.654 100H160v-8h-9.346l-4-8h-14.836v8h6.653l-2.943 8.093c-5.28 14.523-16.932 22.534-25.644 23.907H108v-24H80v8h-4c-13.458 0-24 11.58-24 26.364V140h2.053a16.4 16.4 0 0 0-.417 3.636C53.636 152.66 60.977 160 70 160c6.035 0 11.18-3.188 13.908-8h44.82c5.184 0 9.122-4.964 9.935-9.763C140.54 131.16 148.915 124 160 124m-90 28c-4.612 0-8.364-3.752-8.364-8.364 0-1.267.303-2.508.85-3.636H76v9.449c-1.431 1.59-3.532 2.551-6 2.551m60.775-11.099c-.267 1.578-1.527 3.027-2.048 3.099H84v-12H60.13c.897-8.135 6.395-16 15.87-16h24v16h10l.748-.04c15.815-2.26 27.617-16.26 32.298-29.133l1.717-4.72 9.23 18.461c-12.021 2.302-21.044 11.5-23.218 24.333M25.24 108H16v-8h12.15zm20.79 0 6.29-8H60v8zM16 132h28v8H16zm26.5-48.07H24l29.07-34.36L42.5 76H61l-18.86 24-6.28 8-3.93 5 1.82-5 2.91-8zM39.74 116H48v8H16v-8z"/></svg>