<svg xmlns="http://www.w3.org/2000/svg" viewBox="0 0 192 192"><path d="m24.32 145.587 47.136-47.135.2-.2 31.398-23.585 26.013-26.176V35.61l30.724-16.544L176 35.276 159.456 66h-12.862l-26.16 26.044-23.416 31.174-47.52 47.576a17.97 17.97 0 0 1-12.67 5.199c-4.558 0-9.103-1.719-12.555-5.157-3.351-3.339-5.2-7.794-5.206-12.544a17.83 17.83 0 0 1 5.254-12.705zm5.6 19.582c3.813 3.801 10.072 3.774 13.935-.047l46.936-46.935L114.21 87.01 143.29 58h11.388l11.456-21.276-7.791-7.79-21.276 11.455v11.4L108.32 80.717 76.913 104.31 29.98 151.242a9.88 9.88 0 0 0-2.913 7.04 9.67 9.67 0 0 0 2.853 6.887"/></svg>