<svg xmlns="http://www.w3.org/2000/svg" viewBox="0 0 192 192"><path d="M37.755 175.991c-4.557 0-9.1-1.718-12.548-5.155-3.352-3.339-5.201-7.794-5.207-12.545a17.83 17.83 0 0 1 5.252-12.702l47.563-47.507 31.171-23.415L130 48.491V35.61l30.724-16.544 16.21 16.209L160.388 66h-12.862l-26.16 26.044-23.586 31.4-.2.2-47.136 47.135a18 18 0 0 1-12.69 5.212zm40.091-71.682-46.935 46.935A9.88 9.88 0 0 0 28 158.282a9.67 9.67 0 0 0 2.853 6.887c3.814 3.8 10.073 3.772 13.951-.062l46.92-46.92 23.591-31.406L144.223 58h11.388l11.456-21.276-7.791-7.79L138 40.388v11.4L109.022 80.89l-31.176 23.42zm80.983 34.52-5.658-5.658L140 146.343l-5.171-5.172-5.658 5.658L140 157.657zM144 176c-17.645 0-32-14.355-32-32s14.355-32 32-32 32 14.355 32 32-14.355 32-32 32m0-56c-13.234 0-24 10.766-24 24s10.766 24 24 24 24-10.766 24-24-10.766-24-24-24"/></svg>