<svg xmlns="http://www.w3.org/2000/svg" viewBox="0 0 192 192"><path d="M95.941 143.785h-.011c-2.975-.005-5.565-1.7-6.76-4.422l-5.603-12.757a7.73 7.73 0 0 0-7.933-4.595l-13.855 1.485c-2.963.315-5.716-1.088-7.198-3.666s-1.31-5.667.45-8.063l8.246-11.23a7.73 7.73 0 0 0 .014-9.17l-8.214-11.255c-1.753-2.401-1.916-5.492-.426-8.065s4.248-3.972 7.21-3.644L75.71 69.93a7.74 7.74 0 0 0 7.947-4.574l5.64-12.74c1.202-2.716 3.793-4.401 6.762-4.401h.01c2.974.004 5.565 1.698 6.76 4.42l5.603 12.759a7.74 7.74 0 0 0 7.934 4.595l13.854-1.486c2.954-.315 5.715 1.087 7.198 3.665 1.483 2.577 1.312 5.667-.448 8.064l-8.248 11.23a7.73 7.73 0 0 0-.014 9.17l8.215 11.255c1.753 2.403 1.915 5.494.424 8.067-1.49 2.573-4.253 3.961-7.21 3.642l-13.848-1.527a7.75 7.75 0 0 0-7.947 4.574l-5.64 12.74c-1.202 2.717-3.792 4.402-6.76 4.402zm-19.45-29.821a15.7 15.7 0 0 1 14.4 9.426l5.051 11.5 5.085-11.486c2.793-6.31 9.275-10.053 16.139-9.286l12.484 1.376-7.404-10.145a15.7 15.7 0 0 1 .028-18.62l7.435-10.124-12.49 1.34a15.7 15.7 0 0 1-16.112-9.335l-5.05-11.5-5.084 11.485a15.7 15.7 0 0 1-16.14 9.286L62.35 76.505l7.404 10.145a15.705 15.705 0 0 1-.028 18.62l-7.434 10.125 12.488-1.34a16 16 0 0 1 1.71-.091zM96 176c-44.112 0-80-35.888-80-80s35.888-80 80-80 80 35.888 80 80-35.888 80-80 80m0-152c-39.701 0-72 32.299-72 72s32.299 72 72 72 72-32.299 72-72-32.299-72-72-72"/></svg>