<svg xmlns="http://www.w3.org/2000/svg" viewBox="0 0 192 192"><path d="M104 60V32H32v28h16v95.123l20 5 20-5V60zm-8-20v12h-8V40zm-16 0v12H56V40zM40 52V40h8v12zm16 65.123 24 6v7.754l-24-6zm0-8.246v-7.754l24 6v7.754zm24-10-24-6v-7.754l24 6zm-12 53-12-3v-15.754l24 6v9.754zm12-69-24-6V60h24zM152.02 104v-2.857c0-11.658-10.767-21.143-24-21.143s-24 9.485-24 21.143V104H96v56h64.02v-56zm-40-2.857c0-7.247 7.177-13.143 16-13.143s16 5.896 16 13.143V104h-32zm40 50.857H104v-40h48.02zm-32-24a8 8 0 0 1 16 0 7.99 7.99 0 0 1-4 6.921V144h-8v-9.079a7.99 7.99 0 0 1-4-6.921"/></svg>