<svg xmlns="http://www.w3.org/2000/svg" viewBox="0 0 192 192"><path d="m137.296 32-47.34 60.864 4.072 4.071-5.49 5.533c-2.525 2.53-2.383 6.783.317 9.48l.864.863-12.304 12.304 5.657 5.658 12.308-12.309.712.711c1.227 1.226 2.82 1.975 4.483 2.108q.267.021.53.021c1.69 0 3.293-.65 4.458-1.817l5.522-5.494 4.051 4.05L176 70.704zm-36.31 80.756-2.86-2.855-2.86-2.856 4.42-4.453 5.743 5.744zm-.378-20.555h-.001l37.44-48.136 25.889 25.888-48.138 37.441zM88 32H16v28h16v95.123l20 5 20-5V60h16zm-24 8v12H40V40zM24 52V40h8v12zm16 65.123 24 6v7.754l-24-6zm0-8.246v-7.754l24 6v7.754zm24-10-24-6v-7.754l24 6zm-12 53-12-3v-15.754l24 6v9.754zm12-69-24-6V60h24zM80 52h-8V40h8z"/></svg>