<svg xmlns="http://www.w3.org/2000/svg" viewBox="0 0 192 192"><path d="M136 176H56c-6.617 0-12-5.383-12-12V80h8v-8h-8V28c0-6.617 5.383-12 12-12h59.657L148 48.343V164c0 6.617-5.383 12-12 12M52 88v76c0 2.206 1.794 4 4 4h80c2.206 0 4-1.794 4-4V51.656L112.343 24H56c-2.206 0-4 1.794-4 4v36h8v24zm16-52h-8v16h8zm16 0h-8v16h8zm16 0h-8v16h8zm16 0h-8v16h8zm16 16h-8v16h8zm-58.193 86.211c1.262 3.072 3.281 4.376 6.648 4.376s5.386-1.389 5.386-3.703c0-2.02-1.094-2.819-5.47-3.829-4.755-1.094-6.228-1.599-7.616-2.482-2.314-1.473-3.409-3.534-3.409-6.438 0-5.722 4.04-9.215 10.688-9.215 5.512 0 9.341 2.062 11.613 6.227l-5.428 2.567c-1.472-2.567-3.113-3.492-6.143-3.492-2.735 0-4.292 1.178-4.292 3.24 0 1.893 1.304 2.777 5.218 3.534 4.081.842 6.27 1.557 7.91 2.567 2.357 1.557 3.493 3.745 3.493 6.9 0 6.06-4.25 9.426-11.866 9.426-6.312 0-10.182-2.23-12.539-7.195zm24.021-20.87h11.15c9.51 0 15.022 5.47 15.022 14.937 0 9.636-5.554 15.148-15.232 15.148h-10.94zm11.277 24.741c5.133 0 7.868-3.408 7.868-9.72 0-6.27-2.777-9.677-7.91-9.677h-4.502v19.397z"/></svg>