<svg xmlns="http://www.w3.org/2000/svg" viewBox="0 0 192 192"><path d="M52 52h-8V36h8zm16-16h-8v16h8zm16 0h-8v16h8zm16 0h-8v16h8zm16 16h-8v16h8zm28.056 99.999c-2.249 0-4.055 1.791-4.055 4 0 2.248 1.769 4 4.018 4a3.98 3.98 0 0 0 3.982-4c0-2.171-1.806-4-3.945-4M140.001 128v7.956L141.272 148h5.458l1.271-11.957V128zM176 144c0 17.645-14.355 32-32 32s-32-14.355-32-32 14.355-32 32-32 32 14.355 32 32m-8 0c0-13.234-10.766-24-24-24s-24 10.766-24 24 10.766 24 24 24 24-10.766 24-24m-103.545-1.413c-3.366 0-5.386-1.305-6.648-4.376L52 140.693c2.357 4.965 6.227 7.195 12.539 7.195 7.616 0 11.866-3.366 11.866-9.425 0-3.156-1.136-5.344-3.493-6.901-1.641-1.01-3.829-1.725-7.91-2.567-3.914-.758-5.218-1.641-5.218-3.535 0-2.062 1.557-3.24 4.292-3.24 3.029 0 4.671.926 6.143 3.493l5.428-2.567c-2.272-4.165-6.101-6.227-11.613-6.227-6.648 0-10.688 3.492-10.688 9.215 0 2.903 1.094 4.965 3.408 6.437 1.389.884 2.862 1.389 7.616 2.483 4.376 1.01 5.47 1.81 5.47 3.829 0 2.314-2.019 3.703-5.386 3.703Zm28.523-25.246c9.509 0 15.022 5.471 15.022 14.938 0 9.636-5.554 15.148-15.232 15.148h-10.94v-30.085zm.084 5.344H88.56v19.398h4.544c5.133 0 7.868-3.409 7.868-9.72 0-6.269-2.777-9.677-7.911-9.677ZM112.022 168H40c-2.206 0-4-1.794-4-4V88h8V64h-8V28c0-2.206 1.794-4 4-4h56.343L124 51.656v57.725a39.8 39.8 0 0 1 8-3.54V48.342L99.657 15.999H40c-6.617 0-12 5.383-12 12v44h8v8h-8v84c0 6.617 5.383 12 12 12h80l.026-.001a40.3 40.3 0 0 1-8.004-7.999Z"/></svg>