<svg xmlns="http://www.w3.org/2000/svg" viewBox="0 0 192 192"><path d="m170.829 149.171-56.874-56.873A51.67 51.67 0 0 0 120 68c0-28.673-23.327-52-52-52S16 39.327 16 68s23.327 52 52 52c8.773 0 17.04-2.192 24.298-6.045l56.873 56.874c3.45 3.45 7.92 5.2 12.248 5.2 3.854 0 7.597-1.388 10.41-4.2 5.97-5.972 5.522-16.135-1-22.658M24 68c0-24.262 19.738-44 44-44s44 19.738 44 44-19.738 44-44 44-44-19.738-44-44m142.171 98.171c-1.75 1.753-3.874 1.979-5.347 1.857-2.171-.176-4.357-1.217-5.995-2.857L99.216 109.56a52.4 52.4 0 0 0 10.343-10.343l55.612 55.613c1.64 1.638 2.68 3.824 2.857 5.995.12 1.473-.105 3.596-1.857 5.347zM44.077 65.16h6.84v5.13h-6.84v7.236H38.75V70.29h-6.76v-5.13h6.76v-7.317h5.328v7.317zm49.545 9.384c6.084 0 10.378-4.414 10.378-10.657 0-6.044-4.215-10.299-10.22-10.299-6.202 0-10.457 4.255-10.457 10.458s4.215 10.498 10.299 10.498m.04-16.422c2.783 0 4.214 1.948 4.214 5.726 0 3.737-1.47 5.805-4.214 5.805-2.665 0-4.176-2.107-4.176-5.845 0-3.659 1.472-5.686 4.176-5.686m-19.764-5.329h5.886v28.432h-7.039L62.01 61.66v19.564h-5.885V52.793h7.316L73.898 71.88zm29.307 28.432H83.92v-4.693h19.286v4.693z"/></svg>