<svg xmlns="http://www.w3.org/2000/svg" viewBox="0 0 192 192"><path d="m170.829 149.172-56.874-56.874A51.67 51.67 0 0 0 120 68c0-28.673-23.327-52-52-52S16 39.327 16 68s23.327 52 52 52a51.7 51.7 0 0 0 24.298-6.045l56.874 56.873c3.003 3.004 6.911 4.84 11.004 5.174q.662.054 1.314.054c3.955 0 7.587-1.476 10.339-4.228 5.97-5.97 5.521-16.134-1-22.656M24 68c0-24.262 19.738-44 44-44s44 19.738 44 44-19.738 44-44 44-44-19.738-44-44m142.172 98.172c-1.751 1.75-3.875 1.975-5.348 1.856-2.172-.176-4.357-1.217-5.995-2.856l-55.613-55.613a52.4 52.4 0 0 0 10.343-10.343l55.613 55.612c2.967 2.969 4.194 8.15 1 11.344M73.068 85.917c0 3.392-2.783 6.065-6.228 6.065s-6.16-2.74-6.16-6.065c0-3.39 2.78-6.129 6.228-6.129 3.377 0 6.16 2.74 6.16 6.129M84 56.45c0 4.758-1.856 7.628-7.488 11.343-3.843 2.543-4.636 3.716-4.636 6.78v1.175H62.4v-1.826c0-4.695 1.524-7.238 6.163-10.367 3.776-2.543 4.836-3.976 4.836-6.519 0-2.933-2.055-4.889-5.168-4.889-3.58 0-5.964 1.956-7.156 6.062L52 55.798c1.192-4.04 2.716-6.323 5.432-8.409C60.348 45.173 64.19 44 68.761 44 78.036 44 84 48.889 84 56.45"/></svg>