<svg xmlns="http://www.w3.org/2000/svg" viewBox="0 0 192 192"><path d="m170.829 149.171-56.874-56.873A51.67 51.67 0 0 0 120 68c0-28.673-23.327-52-52-52S16 39.327 16 68s23.327 52 52 52c8.773 0 17.04-2.192 24.298-6.045l56.873 56.874c3.45 3.45 7.92 5.2 12.248 5.2 3.854 0 7.597-1.388 10.41-4.2 5.97-5.972 5.522-16.135-1-22.658M24 68c0-24.262 19.738-44 44-44s44 19.738 44 44-19.738 44-44 44-44-19.738-44-44m142.171 98.171c-1.75 1.753-3.874 1.979-5.347 1.857-2.171-.176-4.357-1.217-5.995-2.857L99.216 109.56a52.4 52.4 0 0 0 10.343-10.343l55.612 55.613c1.64 1.638 2.68 3.824 2.857 5.995.12 1.473-.105 3.596-1.857 5.347zM62.276 48h7.375v35.63h-8.82L47.376 59.114V83.63H40V48h9.17l13.106 23.92zm12.558 29.75h24.169v5.88h-24.17v-5.88zm12.16-2.491c7.624 0 13.006-5.532 13.006-13.355 0-7.575-5.283-12.907-12.807-12.907-7.774 0-13.107 5.332-13.107 13.106s5.283 13.156 12.907 13.156zm.05-20.581c3.487 0 5.282 2.441 5.282 7.176 0 4.684-1.845 7.275-5.283 7.275-3.339 0-5.232-2.641-5.232-7.325 0-4.585 1.843-7.126 5.232-7.126z"/></svg>