<svg xmlns="http://www.w3.org/2000/svg" viewBox="0 0 192 192"><path d="m173.916 96.488-3.832 7.024-18.69-10.195-8.002 12.803-6.784-4.24 20-32 6.784 4.24-7.75 12.4zM44.71 64.244l-23.414-8.028-2.594 7.568 25.22 8.646c-.148-2.9.14-5.64.788-8.186m40.376 37.015-64 68 5.826 5.482 64-68zm-21.46-50.447C56.842 48.232 52 41.678 52 34c0-9.925 8.075-18 18-18s18 8.075 18 18c0 5.916-2.881 11.158-7.3 14.44 8.323 1.894 14.761 8.528 17.731 18.845 1.46 5.07 3.405 12.157 4.533 16.295l28.536-3.57.998 7.978-35.468 4.433-.911-3.373c-.033-.12-3.262-12.062-5.414-19.542-2.938-10.205-9.791-15.018-18.806-13.2-8.301 1.672-12.893 8.81-11.697 18.184a157 157 0 0 0 1.758 10.806l.041.23.2 1.344 3.344 23.478-7.055 7.496-4.426-31.029A165 165 0 0 1 52.23 75.51c-1.406-11.015 3.047-20.213 11.398-24.697zM70 44c5.514 0 10-4.486 10-10s-4.486-10-10-10-10 4.486-10 10 4.486 10 10 10m17.733 77.794-8.314 8.833 26.133-2.39 26.985 45.805 6.926-4.082-29.57-50.193zm-19.419 20.632-8.141 8.65 40.134-3.087-.614-7.976zm-39.178-49.39 11.677 43.592 6.447-6.85-10.396-38.812z"/></svg>