<svg xmlns="http://www.w3.org/2000/svg" viewBox="0 0 192 192"><path d="m87.255 112-2.311-6.833H70.372L68.01 112h-7.537l13.165-35.927h9.245L95.797 112zm-9.547-28.34-5.427 15.778h10.753l-5.326-15.777zm52.36 18.491c-1.458 3.568-2.865 5.578-5.327 7.387-2.663 2.01-5.98 3.015-9.848 3.015-10.502 0-17.235-7.186-17.235-18.39 0-11.005 6.984-18.642 17.084-18.642 4.422 0 8.14 1.306 10.853 3.818 1.709 1.659 2.714 3.116 4.07 6.23l-7.135 2.915c-1.708-4.622-3.97-6.482-7.838-6.482-5.527 0-8.643 4.322-8.643 12.01 0 7.738 3.166 12.059 8.844 12.059 3.97 0 6.33-2.06 7.989-6.834l7.185 2.914zM156 116V40L96 16 36 40v76c0 33.645 26.355 60 60 60s60-26.355 60-60M96 25l52 20v71c0 29.159-22.841 52-52 52s-52-22.841-52.077-51.212v-72z"/></svg>