<svg xmlns="http://www.w3.org/2000/svg" viewBox="0 0 192 192"><path d="M96 15.648 36 41.362V116c0 33.645 26.355 60 60 60s60-26.355 60-60V41.362zM148 116c0 29.159-22.841 52-52 52s-52-22.841-52-52V46.638l52-22.286 52 22.286zM76.744 58.097l6.512 4.648C86.314 58.458 90.96 56 96 56c8.823 0 16 7.65 16 17.053V76H60v60h72V76h-12v-2.947C120 59.239 109.234 48 96.001 48c-7.546 0-14.745 3.775-19.257 10.097M124 128H68V84h56zm-32.21-20.776a6.3 6.3 0 0 1-2.07-5.38c.306-2.909 2.657-5.275 5.565-5.594a6.318 6.318 0 0 1 7.03 6.276 6.3 6.3 0 0 1-2.104 4.698v10.04h-8.422v-10.04z"/></svg>