<svg xmlns="http://www.w3.org/2000/svg" viewBox="0 0 192 192"><path d="M140 100.001h-8.525l3.853 5.78-6.656 4.438L121.86 100h-18.879l9.84 16.792 12.302 1.023-.663 7.973-6.694-.557 4.066 6.939-6.902 4.045-4.295-7.329-3.297 6.367-7.103-3.679 5.618-10.849-9.866-16.838-9.867 16.838 5.618 10.85-7.104 3.678-3.296-6.366-4.295 7.328-6.902-4.045 4.066-6.939-6.694.557-.663-7.973 12.302-1.023L88.992 100H70.14l-6.812 10.218-6.657-4.437L60.525 100H52v-8h8.527l-3.855-5.782 6.656-4.438L70.141 92h18.88l-9.373-15.995-12.298-1.023.663-7.973 6.69.557-4.233-7.224 6.902-4.045 4.462 7.614 3.296-6.366 7.104 3.68-5.617 10.848 9.37 15.99 9.37-15.99-5.618-10.849 7.103-3.679 3.297 6.367 4.462-7.615 6.902 4.045-4.233 7.224 6.69-.557.663 7.973-12.298 1.023L102.952 92h18.907l6.813-10.22 6.656 4.438L131.473 92H140v8zM156 116V41.362L96 15.648 36 41.362V116c0 33.645 26.355 60 60 60s60-26.355 60-60M96 24.352l52 22.286V116c0 29.159-22.841 52-52 52s-52-22.841-52-52V46.638z"/></svg>