<svg xmlns="http://www.w3.org/2000/svg" viewBox="0 0 192 192"><path d="M96 176c-33.645 0-60-26.355-60-60V41.362l60-25.714 60 25.714V116c0 33.645-26.355 60-60 60M44 46.638V116c0 29.159 22.841 52 52 52s52-22.841 52-52V46.638L96 24.352zm21.485 33.076a4 4 0 0 0 2.229-5.2l-8-20a4 4 0 0 0-7.428 2.971l8 20a4 4 0 0 0 5.2 2.229zm16-8 20-8a4 4 0 0 0-2.97-7.428l-20 8a4 4 0 0 0 2.97 7.428M58.4 107.2l16-12a4 4 0 0 0-4.8-6.4l-16 12a4 4 0 0 0 4.8 6.4m53.178-57.41a4 4 0 0 0-1.789-5.368l-16-8a4 4 0 0 0-3.578 7.156l16 8a4 4 0 0 0 5.367-1.789zM131.2 118.4a4 4 0 0 0-.8-5.6l-16-12a4 4 0 0 0-4.8 6.4l16 12c.72.54 1.562.8 2.397.8a4 4 0 0 0 3.203-1.6m-4.487-23.46 13-12a4 4 0 0 0-5.426-5.88l-13 12a4 4 0 0 0 5.426 5.88m-39.884 59.889a4 4 0 0 0 0-5.658l-12-12a4.001 4.001 0 0 0-5.658 5.658l12 12c.782.78 1.805 1.171 2.829 1.171s2.047-.39 2.829-1.171m8.749-21.04 8-16a4 4 0 0 0-7.156-3.578l-8 16a4 4 0 0 0 7.156 3.578m35.622 8.61a4 4 0 0 0-.8-5.6l-16-12a4 4 0 0 0-4.8 6.401l16 12c.72.54 1.562.8 2.397.8a4 4 0 0 0 3.203-1.6zm-33.41 17.179 16-8a4 4 0 0 0-3.58-7.156l-16 8a4 4 0 0 0 3.58 7.156m25.788-85.789 8-16a4 4 0 0 0-7.156-3.578l-8 16a4 4 0 0 0 7.156 3.578m-4 12a4 4 0 0 0-1.789-5.367l-16-8a4 4 0 0 0-3.578 7.156l16 8a4 4 0 0 0 5.367-1.789m-26.093 21.925a4 4 0 0 0 2.229-5.2l-8-20a4 4 0 1 0-7.428 2.971l8 20a4 4 0 0 0 5.2 2.229zm-32.7 20.208 20-4a4 4 0 0 0-1.57-7.844l-20 4a4 4 0 0 0 1.57 7.844"/></svg>