<svg xmlns="http://www.w3.org/2000/svg" viewBox="0 0 192 192"><path d="M96 176c-30.878 0-56-24.635-56-54.916V39.157l56-23.495 56 23.495v81.927C152 151.364 126.878 176 96 176M48 44.476v76.608C48 146.954 69.533 168 96 168s48-21.046 48-46.916V44.476L96 24.338zm71.32 45.294-1.962-2.921-7.419 3.71c-1.364-3.383-2.532-7.123-3.672-10.773C102.614 68.092 98.837 56 88 56h-4v4c0 10.263-4.438 18.222-9.136 26.648C69.523 96.226 64 106.13 64 120.21 64 138.63 77.458 152 96 152s32-13.37 32-31.79c0-10.97-3.245-22.35-8.68-30.44M88 132.12c0-4.563 2.09-9.73 6.361-15.675 1.694 4.155 3.77 7.244 5.561 9.91 2.456 3.653 4.078 6.066 4.078 9.735 0 4.362-3.589 7.91-8 7.91-4.785 0-8-4.774-8-11.88m23.76 6.618c.146-.863.24-1.744.24-2.648 0-6.107-2.764-10.22-5.438-14.198-2.593-3.858-5.274-7.848-6.64-14.677l-1.59-7.954-5.342 6.105C84.127 115.494 80 123.996 80 132.12c0 2.448.339 4.904 1.006 7.213C75.378 135.143 72 128.4 72 120.21c0-12 4.785-20.581 9.851-29.666 4.176-7.49 8.471-15.193 9.76-24.743 2.86 3.053 4.897 9.574 7.02 16.37 1.665 5.332 3.387 10.845 5.797 15.629l1.794 3.561 8.252-4.126c3.452 6.494 5.526 14.976 5.526 22.975 0 7.813-3.073 14.308-8.24 18.528"/></svg>