<svg xmlns="http://www.w3.org/2000/svg" viewBox="0 0 192 192"><path d="M96 15.648 36 41.362V116c0 33.645 26.355 60 60 60s60-26.355 60-60V41.362zM148 116c0 29.159-22.841 52-52 52s-52-22.841-52-52V46.638l52-22.286 52 22.286zm-58.347-14.306c.31-2.941 2.685-5.332 5.624-5.654a6.384 6.384 0 0 1 7.105 6.343c0 1.888-1.08 3.579-2.383 4.748V116h-8v-8.869c-1.46-1.309-2.574-3.274-2.347-5.437ZM72 72v4H60v60h72V76h-12v-4c0-13.234-10.766-24-24-24S72 58.766 72 72m52 56H68V84h56zm-12-56v4H80v-4c0-8.822 7.178-16 16-16s16 7.178 16 16"/></svg>