<svg xmlns="http://www.w3.org/2000/svg" viewBox="0 0 192 192"><path d="M96 15.63 36 42.04v72.45C36 148.41 62.92 176 96 176s60-27.59 60-61.51V42.04zm-52 98.86V47.26l52-22.89v42.19l13.6 11.61 1.03 15.76-3.32 6.67 5.69 3.75-.53 8.29L96 129.34V168c-28.67 0-52-24.01-52-53.51m37.93-28.93-.6-.96c-2.64-4.26-4.29-7.18-4.3-7.21L74 72l-3.03 5.39c-.01.03-1.66 2.95-4.3 7.21l-.6.96c-2.73 4.34-6.11 9.75-6.11 15.74 0 8.11 6.3 14.7 14.04 14.7s14.05-6.59 14.05-14.7c0-5.99-3.39-11.4-6.12-15.74M74 108c-3.33 0-6.04-3-6.04-6.7s2.59-7.84 4.89-11.5l.61-.98q.285-.45.54-.87c.18.29.36.59.55.89l.61.97c2.29 3.65 4.89 7.8 4.89 11.49S77.33 108 74 108"/></svg>