<svg xmlns="http://www.w3.org/2000/svg" viewBox="0 0 192 192"><path d="M92 32.001a4 4 0 1 1 0 8 4 4 0 0 1 0-8m68 3.997a4 4 0 1 0-8 0 4 4 0 0 0 8 0m-38 .569a4 4 0 1 0 0 8 4 4 0 0 0 0-8m8 16a4 4 0 1 0 0 8 4 4 0 0 0 0-8M100 16v8h68.07v48c0 2.21-1.8 4-4 4H27.93c-2.2 0-4-1.79-4-4V24H92v-8H15.93v56c0 6.62 5.39 12 12 12h136.14c6.62 0 12-5.38 12-12V16zm76.001 103.999v8c-9.906 0-20 10.093-20 20h-8c0-10.28-9.72-20-20-20v-8c10.655 0 20-9.346 20-20h8c0 10.467 9.533 20 20 20m-13.765 4.129a29.85 29.85 0 0 1-10.17-10.042 29 29 0 0 1-10.086 10.042 30.7 30.7 0 0 1 10.086 10.21 31.6 31.6 0 0 1 10.17-10.21M120 147.999v8c-9.906 0-20 10.093-20 20h-8c0-10.28-9.72-20-20-20v-8c10.655 0 20-9.346 20-20h8c0 10.467 9.533 20 20 20m-13.765 4.129a29.85 29.85 0 0 1-10.17-10.042 29 29 0 0 1-10.086 10.042 30.7 30.7 0 0 1 10.086 10.21 31.6 31.6 0 0 1 10.17-10.21M64 119.999v8c-9.906 0-20 10.093-20 20h-8c0-10.28-9.72-20-20-20v-8c10.655 0 20-9.346 20-20h8c0 10.467 9.533 20 20 20m-13.765 4.129a29.85 29.85 0 0 1-10.17-10.042 29 29 0 0 1-10.086 10.042 30.7 30.7 0 0 1 10.086 10.21 31.6 31.6 0 0 1 10.17-10.21M32 63.999a4 4 0 1 0 8 0 4 4 0 0 0-8 0m33.165-3.998a4 4 0 1 0 0-8 4 4 0 0 0 0 8M64 39.999a4 4 0 1 0-8 0 4 4 0 0 0 8 0m34 24a4 4 0 1 0 8 0 4 4 0 0 0-8 0m-7.048-13.982a4 4 0 1 0 8 0 4 4 0 0 0-8 0M62.04 68l.12-.11C53.19 57.86 47.52 45.27 45.89 32h-8.05a74 74 0 0 0 14.11 36zm40.51-36a73.9 73.9 0 0 0 14.1 36h10.31a65.9 65.9 0 0 1-16.36-36zm-33.07 0a73.9 73.9 0 0 0 14.1 36h10.31a65.9 65.9 0 0 1-16.36-36zm64 0a74 74 0 0 0 14.11 36h10.08l.12-.11A66.05 66.05 0 0 1 141.53 32z"/></svg>