<svg xmlns="http://www.w3.org/2000/svg" viewBox="0 0 192 192"><path d="M167 80h-7V49c0-6.322-3.476-11.838-8.61-14.767a9 9 0 0 0 .55-2.233h12.481A3.58 3.58 0 0 0 168 28.422v-.844A3.58 3.58 0 0 0 164.422 24h-12.481c-.5-4.493-4.317-8-8.941-8H73c-4.962 0-9 4.038-9 9v6q.002.507.059 1H49c-9.374 0-17 7.626-17 17v31h-7c-4.962 0-9 4.038-9 9v14c0 4.962 4.038 9 9 9h7v23c0 9.374 7.626 17 17 17h16.045c9.18 5.094 19.734 8 30.955 8s21.776-2.906 30.955-8H143c7.634 0 14.107-5.059 16.247-12h5.175a3.58 3.58 0 0 0 3.578-3.578v-.844a3.58 3.58 0 0 0-3.578-3.578H160v-20h7c4.962 0 9-4.038 9-9V89c0-4.962-4.038-9-9-9M32 104h-7c-.551 0-1-.449-1-1V89c0-.551.449-1 1-1h7zm40-73v-6c0-.551.449-1 1-1h70c.551 0 1 .449 1 1v6c0 .551-.449 1-1 1H73c-.551 0-1-.449-1-1m52.284 59.343-8.485-8.485 8.485-8.485 8.485 8.485zm14.142-2.828L146.911 96l-8.485 8.485L129.941 96zm-79.195-5.657 8.485-8.485 8.485 8.485-8.485 8.485zM62.059 96l-8.485 8.485L45.089 96l8.485-8.485zm19.799-8.485L90.343 96l-8.485 8.485L73.373 96zm5.657-5.657L96 73.373l8.485 8.485L96 90.343zm22.627 5.657L118.627 96l-8.485 8.485L101.657 96zm0-11.314-8.485-8.485 8.485-8.485 8.485 8.485zm0-28.284-7.51-7.51c4.216.5 8.292 1.463 12.17 2.85zm-5.657 5.657L96 62.059l-8.485-8.485L96 45.089zm-22.627-5.657-4.66-4.66a55.6 55.6 0 0 1 12.17-2.85zm0 11.314 8.485 8.485-8.485 8.485-8.485-8.485zm-14.142 2.828-8.355-8.355a56.2 56.2 0 0 1 10.012-6.958l6.828 6.828zm-5.657 5.657L53.574 76.2l-6.828-6.828a56.2 56.2 0 0 1 6.958-10.012zM47.917 81.858l-7.51 7.51a55.6 55.6 0 0 1 2.85-12.17zm0 28.284-4.66 4.66a55.6 55.6 0 0 1-2.85-12.17zm5.657 5.657 8.485 8.485-8.355 8.355a56.2 56.2 0 0 1-6.958-10.012zm5.657-5.657 8.485-8.485 8.485 8.485-8.485 8.485zm22.627 5.657 8.485 8.485-8.485 8.485-8.485-8.485zm5.657-5.657L96 101.657l8.485 8.485L96 118.627zm22.627 5.657 8.485 8.485-8.485 8.485-8.485-8.485zm5.657-5.657 8.485-8.485 8.485 8.485-8.485 8.485zm22.627 5.657 6.828 6.828a56.2 56.2 0 0 1-6.958 10.012l-8.355-8.355zm5.657-5.657 7.51-7.51a55.6 55.6 0 0 1-2.85 12.17zm0-28.284 4.66-4.66a55.6 55.6 0 0 1 2.85 12.17zm-5.657-5.657-8.485-8.485 8.355-8.355a56.2 56.2 0 0 1 6.958 10.012zm-14.142-14.142-8.485-8.485 6.828-6.828a56.2 56.2 0 0 1 10.012 6.958zM40 49c0-4.962 4.038-9 9-9h16.045A64.46 64.46 0 0 0 40 65.051zm9 95c-4.962 0-9-4.038-9-9v-8.051A64.4 64.4 0 0 0 53.731 144zm20.373 1.254a56.2 56.2 0 0 1-10.012-6.958l8.355-8.355 8.485 8.485zm7.825 3.49 4.66-4.66 7.51 7.51a55.6 55.6 0 0 1-12.17-2.85m10.317-10.318L96 129.941l8.485 8.485L96 146.911zm15.117 13.168 7.51-7.51 4.66 4.66a55.6 55.6 0 0 1-12.17 2.85m19.995-6.34-6.828-6.828 8.485-8.485 8.355 8.355a56.2 56.2 0 0 1-10.012 6.958M152 135c0 4.962-4.038 9-9 9h-4.731A64.4 64.4 0 0 0 152 126.949zm0-69.949A64.46 64.46 0 0 0 126.955 40H143c4.962 0 9 4.038 9 9zM168 103c0 .551-.449 1-1 1h-7V88h7c.551 0 1 .449 1 1z"/></svg>