<svg xmlns="http://www.w3.org/2000/svg" viewBox="0 0 192 192"><path d="M72 80V45.5C72 38.056 65.806 32 58.193 32H32v128h26.193C65.806 160 72 153.944 72 146.5V112c8.822 0 16-7.178 16-16s-7.178-16-16-16m-8 66.5c0 3.033-2.605 5.5-5.807 5.5H40V40h18.193C61.395 40 64 42.467 64 45.5zm8-42.5V88c4.411 0 8 3.589 8 8s-3.589 8-8 8m60.673-46.976-2.673-2.4-2.673 2.4C126.211 58.026 100 81.854 100 106.703 100 122.857 113.458 136 130 136s30-13.143 30-29.297c0-24.85-26.211-48.677-27.327-49.68zM130 128c-12.13 0-22-9.554-22-21.297 0-17.003 15.612-34.626 22-41.123 6.388 6.498 22 24.12 22 41.123 0 11.743-9.87 21.297-22 21.297"/></svg>