<svg xmlns="http://www.w3.org/2000/svg" viewBox="0 0 192 192"><path d="M118.85 48h-45.7C68.103 48 64 52.003 64 56.923V96h64V56.923c0-4.92-4.104-8.923-9.15-8.923M120 88H72V56.923c0-.5.526-.923 1.15-.923h45.7c.624 0 1.15.423 1.15.923zm56.115-26.227c-.292-8.04-5.036-14.925-12.382-17.968-10.895-4.514-23.804-9.531-26.968-10.757A11.8 11.8 0 0 0 131.908 32H60.092c-1.494 0-2.919.291-4.24.8l-.01-.025c-.149.058-15 5.873-27.446 11.03-7.346 3.043-12.09 9.928-12.382 17.969-.29 7.975 3.955 15.159 11.083 18.768 8.39 4.59 16.895 8.882 20.903 10.878V112h20v24h56v-24h20V91.484c3.953-1.968 12.55-6.303 21.032-10.942 7.127-3.61 11.372-10.793 11.083-18.769M30.878 73.491l-.126-.066c-4.4-2.209-6.921-6.456-6.744-11.361.139-3.82 2.168-8.68 7.449-10.869A1443 1443 0 0 1 48 44.485v37.984c-4.438-2.244-10.818-5.528-17.122-8.978M116 128H76v-16h40zm20-24H56V44.353c0-2.4 1.835-4.353 4.092-4.353h71.816c.44 0 .857.094 1.254.231v.001l.443.172c1.41.688 2.395 2.194 2.395 3.949zm25.376-30.575-.126.066c-6.364 3.483-12.807 6.798-17.25 9.043V44.47c5.033 1.99 11.117 4.423 16.672 6.724 5.28 2.188 7.31 7.049 7.448 10.868.178 4.906-2.343 9.153-6.744 11.362zM160 62.5a4 4 0 1 1-8 0 4 4 0 0 1 8 0m-119.871 0a4 4 0 1 1-8 0 4 4 0 0 1 8 0"/></svg>