<svg xmlns="http://www.w3.org/2000/svg" viewBox="0 0 192 192"><path d="M136 72c0-22.056-17.944-40-40-40S56 49.944 56 72c0 13.058 6.291 24.673 16 31.978V160h16v16h16v-16h16v-56.022c9.709-7.305 16-18.92 16-31.978m-72 0c0-17.645 14.355-32 32-32s32 14.355 32 32-14.355 32-32 32-32-14.355-32-32m48 80H80v-43.35c4.903 2.15 10.313 3.35 16 3.35s11.097-1.201 16-3.35zM96 88c8.822 0 16-7.178 16-16s-7.178-16-16-16-16 7.178-16 16 7.178 16 16 16m0-24c4.411 0 8 3.589 8 8s-3.589 8-8 8-8-3.589-8-8 3.589-8 8-8"/></svg>