<svg xmlns="http://www.w3.org/2000/svg" viewBox="0 0 192 192"><path d="M72 80V45.5C72 38.056 65.806 32 58.193 32H32v128h26.193C65.806 160 72 153.944 72 146.5V112c8.822 0 16-7.178 16-16s-7.178-16-16-16m-8 66.5c0 3.033-2.605 5.5-5.807 5.5H40V40h18.193C61.395 40 64 42.467 64 45.5zm8-42.5V88c4.411 0 8 3.589 8 8s-3.589 8-8 8m72-24c-7.439 0-13.69 5.11-15.473 12H108v8h20.527c1.783 6.89 8.034 12 15.473 12 8.822 0 16-7.178 16-16s-7.178-16-16-16m0 24c-4.411 0-8-3.589-8-8s3.589-8 8-8 8 3.589 8 8-3.589 8-8 8m-37.171-25.171 17.058-17.06A16 16 0 0 0 132 63.993c4.097 0 8.195-1.56 11.314-4.679 6.238-6.238 6.238-16.388 0-22.627-6.239-6.237-16.39-6.237-22.627 0h-.001c-5.26 5.26-6.066 13.294-2.456 19.427L101.171 73.17zm19.514-36.486c3.12-3.118 8.195-3.119 11.314 0s3.119 8.195 0 11.314-8.195 3.119-11.314 0-3.119-8.194 0-11.314m-2.456 87.887-17.058-17.059-5.658 5.658 17.06 17.058c-3.611 6.133-2.805 14.166 2.455 19.426v.001c3.12 3.119 7.217 4.678 11.314 4.678s8.195-1.56 11.314-4.679c6.238-6.238 6.238-16.388 0-22.627-5.26-5.26-13.294-6.066-19.427-2.456m13.77 19.427c-3.12 3.119-8.194 3.119-11.314 0s-3.119-8.195 0-11.314 8.195-3.119 11.314 0 3.119 8.195 0 11.314"/></svg>