<svg xmlns="http://www.w3.org/2000/svg" viewBox="0 0 192 192"><path d="m66.056 118.025-4.112 6.863C51.593 118.686 45.413 107.887 45.413 96s6.18-22.686 16.53-28.888l4.112 6.863C58.14 78.718 53.413 86.952 53.413 96s4.726 17.282 12.643 22.025M36 96c0-15.027 7.84-28.698 20.974-36.569L52.86 52.57C37.294 61.899 28 78.135 28 96s9.294 34.101 24.862 43.431l4.112-6.862C43.841 124.699 36 111.027 36 96m140-4h-9.117l-7.088-21.265a4 4 0 0 0-7.59 0l-16.335 49.007-16.103-45.087A4 4 0 0 0 116.075 72c-1.63-.038-3.17.97-3.789 2.515L100 105.229l-4.286-10.714A4 4 0 0 0 92 92H78.921A7.99 7.99 0 0 0 72 88a8 8 0 0 0 0 16 7.99 7.99 0 0 0 6.921-4h10.371l6.994 17.485a4 4 0 0 0 7.428 0L115.788 87.3l16.445 46.045A4 4 0 0 0 136 136h.042a4 4 0 0 0 3.753-2.735L156 84.65l4.205 12.616A4 4 0 0 0 164 100h12z"/></svg>