<svg xmlns="http://www.w3.org/2000/svg" xml:space="preserve" viewBox="0 0 192 192"><path d="M124 83.923c-5.256 0-9.726 3.38-11.382 8.077h-45.91l-6.994-17.485a4 4 0 0 0-7.428 0L40 105.229l-4.286-10.714A4 4 0 0 0 32 92H16v8h13.292l6.994 17.485a4 4 0 0 0 7.428 0L56 86.771l4.286 10.714A4 4 0 0 0 64 100h48.618c1.656 4.696 6.126 8.077 11.382 8.077 6.66 0 12.077-5.418 12.077-12.077S130.66 83.923 124 83.923m0 16.154c-2.248 0-4.077-1.829-4.077-4.077s1.829-4.077 4.077-4.077 4.077 1.829 4.077 4.077-1.829 4.077-4.077 4.077M124 64c-13.034 0-24.817 8.091-29.655 20h8.882c4.228-7.263 12.134-12 20.773-12 13.234 0 24 10.766 24 24s-10.766 24-24 24c-8.639 0-16.545-4.737-20.773-12h-8.882c4.838 11.909 16.62 20 29.655 20 17.645 0 32-14.355 32-32s-14.355-32-32-32m0-20c-24.355 0-45.11 16.63-50.597 40h8.257C86.93 65.202 104.036 52 124 52c24.262 0 44 19.738 44 44s-19.738 44-44 44c-19.964 0-37.069-13.202-42.34-32h-8.257c5.488 23.37 26.242 40 50.597 40 28.673 0 52-23.327 52-52s-23.327-52-52-52"/></svg>