<svg xmlns="http://www.w3.org/2000/svg" viewBox="0 0 192 192"><path d="M72 80V45.5C72 38.056 65.806 32 58.193 32H32v128h26.193C65.806 160 72 153.944 72 146.5V112c8.822 0 16-7.178 16-16s-7.178-16-16-16m-8 66.5c0 3.033-2.605 5.5-5.807 5.5H40V40h18.193C61.395 40 64 42.467 64 45.5zm8-42.5V88c4.411 0 8 3.589 8 8s-3.589 8-8 8m73.263-18.158c-7.003 0-11.422-2.652-15.321-4.99-3.444-2.067-6.419-3.852-11.205-3.852-6.988 0-11.877 4.692-11.925 4.74l-5.64-5.674c.288-.289 7.185-7.066 17.565-7.066 7.003 0 11.422 2.652 15.321 4.991 3.444 2.067 6.419 3.851 11.205 3.851 6.988 0 11.877-4.693 11.925-4.74l5.64 5.673c-.288.289-7.185 7.067-17.565 7.067m0 18.579c-7.002 0-11.422-2.651-15.321-4.99-3.444-2.067-6.418-3.852-11.205-3.852-6.988 0-11.877 4.692-11.925 4.74l-5.64-5.674c.288-.289 7.185-7.066 17.565-7.066 7.002 0 11.422 2.651 15.321 4.99 3.444 2.067 6.418 3.852 11.205 3.852 6.988 0 11.877-4.692 11.925-4.74l5.64 5.674c-.288.289-7.185 7.066-17.565 7.066m0 18.579c-7.003 0-11.422-2.652-15.321-4.991-3.444-2.067-6.419-3.851-11.205-3.851-6.988 0-11.877 4.693-11.925 4.74l-5.64-5.673c.288-.289 7.185-7.067 17.565-7.067 7.003 0 11.422 2.652 15.321 4.99 3.444 2.067 6.419 3.852 11.205 3.852 6.988 0 11.877-4.692 11.925-4.74l5.64 5.674c-.288.289-7.185 7.066-17.565 7.066"/></svg>