<svg xmlns="http://www.w3.org/2000/svg" viewBox="0 0 192 192"><path d="M155.996 96c0-33.08-26.91-60-60-60-33.08 0-60 26.92-60 60s26.92 60 60 60c33.09 0 60-26.92 60-60m-60 52c-28.67 0-52-23.33-52-52s23.33-52 52-52c28.68 0 52 23.33 52 52s-23.32 52-52 52m78.48-36.39-7.85-1.56a71.6 71.6 0 0 0-.01-28.1l7.85-1.56a79.8 79.8 0 0 1 .01 31.22m-118.48 44.26-4.44 6.65a79.85 79.85 0 0 1-22.08-22.07l6.65-4.45a71.9 71.9 0 0 0 19.87 19.87m-30.61-45.82-7.85 1.56c-2.06-10.38-2.07-20.89-.01-31.22l7.85 1.56a71.6 71.6 0 0 0 .01 28.1M155.866 136l6.65 4.45a79.6 79.6 0 0 1-22.06 22.07l-4.45-6.65a71.6 71.6 0 0 0 19.86-19.87m6.66-84.45-6.65 4.45a71.8 71.8 0 0 0-19.88-19.87l4.45-6.65a79.7 79.7 0 0 1 22.08 22.07M36.136 56l-6.65-4.45c5.87-8.78 13.29-16.21 22.06-22.07l4.45 6.65A71.6 71.6 0 0 0 36.136 56"/></svg>