<svg xmlns="http://www.w3.org/2000/svg" viewBox="0 0 192 192"><path d="m40.166 129.73-5.67 5.67c-11.39-10.94-18.5-26.31-18.5-43.31 0-20.61 10.45-38.82 26.32-49.63l4.51 6.61c-13.77 9.36-22.83 25.15-22.83 43.02 0 14.8 6.21 28.17 16.17 37.64m-.17-37.64c0-12.38 6.29-23.33 15.84-29.8l-4.51-6.62c-11.66 7.93-19.33 21.3-19.33 36.42 0 12.59 5.31 23.96 13.82 31.99l5.66-5.66c-7.06-6.58-11.48-15.95-11.48-26.33m16 0c0-6.9 3.51-12.99 8.84-16.59l-4.5-6.6c-7.44 5.03-12.34 13.55-12.34 23.19 0 8.18 3.52 15.55 9.13 20.68l5.67-5.67c-4.17-3.67-6.8-9.04-6.8-15.01m103.09 53.21c4.44-2.75 7.62-5.06 9.55-6.93 3.82-3.64 6.06-7.52 6.72-11.63q.21-1.29.21-2.61c0-3.6-1.07-6.5-3.19-8.7-2.46-2.54-5.94-3.82-10.45-3.82-2.31 0-4.35.34-6.11 1.03l.07-48.59h-15.39l-4 23.95h-7.63l-.88 3.09-3.77 13.17.64-29.97.22-10.29h-8.58l-1.34 8.04-2.67 16-.72.01-6.91.08-.88 3.08-4.72 16.44-1.35 4.72-.6-2.15-2.88-10.36-3.27-11.75-9.32-.05-1.55-.01-5.8-.03c-.6-.67-1.34-1.21-2.18-1.56a6.005 6.005 0 0 0-8.31 5.54 6.005 6.005 0 0 0 8.4 5.5c.79-.34 1.49-.85 2.05-1.48l10.63.06 3.26 11.74 2.27 8.15 2.2 7.94.04.13 10.06-.06 3.73-13.01 4.27-14.91.87-.01 4.62-.06-.3 14.22-.3 13.77h11.1l.08-.28 7.92-27.7h8.38l4-23.95h.6l-.08 50.41c-.02.05-.03.11-.05.17l.05.01v1.38l8 .01v-.04l.19.03c.58-2.11.93-3.15 1.88-4.1.94-.96 2.17-1.43 3.68-1.43 1.47 0 2.64.42 3.52 1.28 1 .98 1.5 2.4 1.5 4.25 0 4.31-2.48 8.69-7.42 13.12-1.64 1.44-3.15 2.66-4.54 3.66s-3.7 2.51-6.92 4.55v6.82h28.31v-6.87z"/></svg>