<svg xmlns="http://www.w3.org/2000/svg" viewBox="0 0 192 192"><path d="M56 156h-8v-8h8zm16-8h-8v8h8zM56 92h-8v8h8zm16 0h-8v8h8zm88-76H32v48h128zM40 24h112v32H40zm16 12h-8v8h8zm16 0h-8v8h8zm104 122.7c0 9.6-7.8 17.3-17.3 17.3s-17.3-7.8-17.3-17.3c0-1.4.2-2.7.5-4l-23.2-11.6c-3.2 3.8-8 6.2-13.3 6.2-9.6 0-17.3-7.8-17.3-17.3s7.8-17.3 17.3-17.3c5.3 0 10.1 2.4 13.3 6.2l23.2-11.6c-.3-1.3-.5-2.6-.5-4 0-9.6 7.8-17.3 17.3-17.3s17.3 7.8 17.3 17.3-7.8 17.3-17.3 17.3c-5.3 0-10.1-2.4-13.3-6.2L122.2 128c.3 1.3.5 2.6.5 4s-.2 2.7-.5 4l23.2 11.6c3.2-3.8 8-6.2 13.3-6.2 9.5-.1 17.3 7.7 17.3 17.3m-26.7-53.4c0 5.1 4.2 9.3 9.3 9.3s9.3-4.2 9.3-9.3-4.2-9.3-9.3-9.3-9.3 4.2-9.3 9.3M114.7 132c0-5.1-4.2-9.3-9.3-9.3s-9.3 4.2-9.3 9.3 4.2 9.3 9.3 9.3 9.3-4.2 9.3-9.3m53.3 26.7c0-5.1-4.2-9.3-9.3-9.3s-9.3 4.2-9.3 9.3 4.2 9.3 9.3 9.3 9.3-4.2 9.3-9.3M89.8 112H40V80h120v-8H32v48h51c1.7-3.1 4-5.8 6.8-8m45.3 56H40v-32h40.3c-.2-1.3-.3-2.6-.3-4s.1-2.7.3-4H32v48h108.2c-2.2-2.3-3.9-5-5.1-8"/></svg>