<svg xmlns="http://www.w3.org/2000/svg" viewBox="0 0 192 192"><path d="M73.026 102.281c0 10.044-6.784 15.565-19.155 15.565-10.243 0-16.96-2.66-20.885-9.711l10.974-5.322c1.796 3.858 4.723 4.922 9.512 4.922 4.39 0 6.984-1.53 6.984-4.123 0-2.328-1.796-3.526-6.718-4.457-6.918-1.33-9.578-2.128-12.372-3.658-4.323-2.394-6.385-6.12-6.385-11.64 0-9.378 6.785-15.098 17.958-15.098 8.78 0 15.166 2.66 19.09 8.98l-10.243 5.254c-2.129-3.326-4.59-4.124-8.713-4.124-3.858 0-5.92 1.264-5.92 3.658 0 2.328 1.663 3.392 6.785 4.39 7.316 1.396 10.508 2.328 13.302 4.057 3.99 2.461 5.786 5.986 5.786 11.307M92.45 97.76h15.964v-9.844H92.45V79.8h21.95V69.49H79.613v47.557h35.784v-10.31H92.45zm28.603-28.268V80h12.77v37.047h13.104V80h12.77V69.49h-38.644z"/></svg>