<svg xmlns="http://www.w3.org/2000/svg" viewBox="0 0 192 192"><path d="m174.999 83.374-.411-2.588-17.718-4.593a64 64 0 0 0-3.812-9.19l9.256-15.808-1.534-2.115a80.3 80.3 0 0 0-17.86-17.86l-2.114-1.533-15.813 9.252a64 64 0 0 0-9.143-3.796l-4.642-17.733-2.582-.41a80.5 80.5 0 0 0-25.252 0l-2.588.411-4.593 17.718a64 64 0 0 0-9.19 3.812l-15.809-9.255-2.115 1.534a80.3 80.3 0 0 0-17.86 17.86l-1.533 2.114 9.254 15.81a64 64 0 0 0-3.798 9.15L17.41 80.791 17 83.373c-.664 4.187-1 8.435-1 12.626s.336 8.438 1 12.626l.411 2.588 17.718 4.593a64 64 0 0 0 3.813 9.19l-9.256 15.808 1.534 2.115a80.3 80.3 0 0 0 17.86 17.86l2.114 1.533 15.814-9.252a64 64 0 0 0 9.142 3.795l4.642 17.733 2.582.41c4.187.664 8.435 1 12.626 1s8.438-.336 12.626-1l2.589-.411 4.592-17.718a64 64 0 0 0 9.19-3.812l15.808 9.255 2.115-1.534a80.3 80.3 0 0 0 17.86-17.86l1.533-2.114-9.254-15.81a64 64 0 0 0 3.798-9.15l17.732-4.636.41-2.583c.664-4.188 1-8.436 1-12.626s-.336-8.439-1-12.626zm-7.541 21.43-16.988 4.443-.628 2.191a55.7 55.7 0 0 1-4.86 11.707l-1.109 1.995 8.871 15.153a72.2 72.2 0 0 1-12.45 12.451l-15.154-8.871-1.995 1.108a55.7 55.7 0 0 1-11.748 4.873l-2.2.628-4.4 16.977a72 72 0 0 1-17.602-.001l-4.447-16.989-2.19-.628a55.7 55.7 0 0 1-11.7-4.857l-1.994-1.108-15.157 8.869a72.2 72.2 0 0 1-12.451-12.451l8.872-15.152-1.11-1.996a55.7 55.7 0 0 1-4.873-11.749l-.628-2.199-16.977-4.4A73 73 0 0 1 24 96c0-2.919.181-5.87.541-8.804l16.988-4.444.628-2.191a55.7 55.7 0 0 1 4.86-11.706l1.109-1.994-8.871-15.155a72.2 72.2 0 0 1 12.451-12.45l15.154 8.871 1.994-1.11a55.7 55.7 0 0 1 11.749-4.872l2.199-.628 4.4-16.977a72 72 0 0 1 17.603.001l4.447 16.99 2.19.627a55.7 55.7 0 0 1 11.7 4.858l1.994 1.109 15.157-8.87a72.2 72.2 0 0 1 12.451 12.451l-8.871 15.152 1.108 1.995a55.7 55.7 0 0 1 4.873 11.75l.628 2.199 16.977 4.4a73 73 0 0 1 .54 8.798c0 2.918-.181 5.87-.541 8.804m-73.372-.093-1.782-17.95V72.176h7.655v14.585l-1.781 17.95zm6.731 10.296c0 2.64-2.177 4.817-4.817 4.817s-4.817-2.178-4.817-4.817c0-2.706 2.177-4.818 4.883-4.818 2.574 0 4.751 2.177 4.751 4.818"/></svg>