<svg xmlns="http://www.w3.org/2000/svg" viewBox="0 0 192 192"><path d="M90.5 40.28c-.95-2.68-2.12-5.24-3.42-7.65 6.33-.89 12.75-.83 19.07.17l2.58.41 3.68 14.09c2.22.75 4.38 1.65 6.48 2.69l12.56-7.35 2.11 1.54a64.1 64.1 0 0 1 14.28 14.29l1.53 2.11-7.35 12.56c1.05 2.11 1.96 4.29 2.71 6.52l14.06 3.65.41 2.59c.53 3.35.8 6.75.8 10.1 0 2.79-.19 5.6-.55 8.4-2.49-.97-5.09-1.72-7.79-2.2.22-2.06.34-4.15.34-6.2 0-2.08-.12-4.18-.35-6.27l-13.3-3.46-.63-2.19c-.9-3.16-2.17-6.22-3.77-9.1l-1.11-2 6.95-11.88a56.4 56.4 0 0 0-8.87-8.88l-11.87 6.95-2-1.11A43.4 43.4 0 0 0 108 54.3l-2.19-.63-3.48-13.32a57 57 0 0 0-11.83-.07m-.72 111.37-3.48-13.32-2.19-.63c-3.14-.9-6.19-2.17-9.05-3.76l-2-1.11-11.87 6.95a55.7 55.7 0 0 1-8.88-8.88l6.95-11.88-1.1-2a43.2 43.2 0 0 1-3.77-9.09l-.63-2.2-13.3-3.45c-.24-2.1-.36-4.2-.36-6.28s.12-4.19.36-6.28l13.31-3.49.63-2.19c.3-1.05.64-2.1 1.03-3.13a28.7 28.7 0 0 1-7.26-3.41c-.28.7-.54 1.42-.78 2.13l-14.08 3.69-.41 2.58c-.53 3.35-.8 6.75-.8 10.1s.27 6.75.8 10.1l.41 2.59 14.07 3.65a50 50 0 0 0 2.71 6.52l-7.35 12.56 1.53 2.12c3.98 5.49 8.79 10.3 14.27 14.28l2.12 1.54 12.55-7.35c2.1 1.04 4.27 1.94 6.48 2.69l3.69 14.09 2.58.41c3.34.53 6.74.8 10.09.8 2.77 0 5.57-.18 8.34-.55-.97-2.49-1.72-5.1-2.2-7.79-4.14.46-8.27.46-12.41-.01M43.83 59.07c-.54-1.84-.83-3.79-.83-5.81 0-17.18 17.47-33.51 18.22-34.2l2.71-2.5 2.71 2.5c.55.5 9.97 9.31 15.04 20.7 1.89 4.24 3.18 8.84 3.18 13.5 0 .28-.01.55-.02.83-.43 11.16-9.65 20.1-20.91 20.1-1.72 0-3.4-.21-5-.61-7.26-1.78-13.04-7.37-15.1-14.51m7.38-8.68c-.13.96-.21 1.92-.21 2.87 0 2.56.75 4.95 2.03 6.96 2.31 3.59 6.33 5.97 10.9 5.97 5.65 0 10.47-3.64 12.22-8.71.46-1.32.71-2.74.71-4.22 0-1.56-.2-3.12-.56-4.68-1.95-8.53-8.58-16.72-12.37-20.86-4.06 4.43-11.37 13.5-12.72 22.67M120 96c0 13.23-10.77 24-24 24s-24-10.77-24-24 10.77-24 24-24 24 10.77 24 24m-8 0c0-8.82-7.18-16-16-16s-16 7.18-16 16 7.18 16 16 16 16-7.18 16-16m40.67 37.67-12.38 12.07-1.93-1.78-2.94-2.72-4.72 5.1-.71.77 1.16 1.07v.01l.84.77 8.44 7.82 16.62-16.21 1.61-1.57-5.58-5.73zM176 144.04c0 17.67-14.35 32.04-32 32.04-17.01 0-30.95-13.34-31.94-30.12a31.7 31.7 0 0 1 .99-10.06c2.92-11.15 11.71-19.94 22.85-22.86a31.8 31.8 0 0 1 10.01-.98c16.77.99 30.09 14.95 30.09 31.98m-8 0c0-13.25-10.77-24.04-24-24.04-.43 0-.87.01-1.29.03-2.89.16-5.63.82-8.16 1.91a24.16 24.16 0 0 0-12.59 12.59 23.8 23.8 0 0 0-1.92 8.15c-.03.45-.04.9-.04 1.36 0 13.26 10.77 24.04 24 24.04s24-10.78 24-24.04"/></svg>