<svg xmlns="http://www.w3.org/2000/svg" viewBox="0 0 192 192"><path d="M54 92c-20.953 0-38-17.047-38-38s17.047-38 38-38 38 17.047 38 38-17.047 38-38 38m0-68c-16.542 0-30 13.458-30 30s13.458 30 30 30 30-13.458 30-30-13.458-30-30-30m84 152c-20.953 0-38-17.047-38-38s17.047-38 38-38 38 17.047 38 38-17.047 38-38 38m0-68c-16.542 0-30 13.458-30 30s13.458 30 30 30 30-13.458 30-30-13.458-30-30-30m26-16h-52c-6.617 0-12-5.383-12-12V28c0-6.617 5.383-12 12-12h52c6.617 0 12 5.383 12 12v52c0 6.617-5.383 12-12 12m-52-68c-2.206 0-4 1.794-4 4v52c0 2.206 1.794 4 4 4h52c2.206 0 4-1.794 4-4V28c0-2.206-1.794-4-4-4zM80 176H28c-6.617 0-12-5.383-12-12v-52c0-6.617 5.383-12 12-12h52c6.617 0 12 5.383 12 12v52c0 6.617-5.383 12-12 12m-52-68c-2.206 0-4 1.794-4 4v52c0 2.206 1.794 4 4 4h52c2.206 0 4-1.794 4-4v-52c0-2.206-1.794-4-4-4z"/></svg>