<svg xmlns="http://www.w3.org/2000/svg" viewBox="0 0 192 192"><path d="M175.629 90.107c-.107-.774-.21-1.509-.28-2.157-2.14-19.503-11.357-37.604-25.953-50.967C134.62 23.452 115.583 16 95.794 16 53.457 16 18.39 49.454 15.962 92.158c-.005.071-.057 7.873.923 9.94 5.053 10.668 19.72 22.31 32.561 30.988-5.812-1.47-11.075-.596-14.878 2.596-3.922 3.295-5.554 8.493-4.262 13.567 1.51 5.933 6.695 10.343 13.869 11.797 12.613 2.558 42.777 2.902 50.186 2.947l.014.007h1.578c.448.01 2.943.063 6.72.063 1.721 0 3.72-.013 5.89-.043l4.767.007-.202-.1c10.157-.26 22.783-.988 32.096-2.88 7.595-1.545 12.83-5.878 14.358-11.89 1.262-4.963-.389-10.09-4.308-13.38-3.522-2.958-8.234-3.994-13.456-3.094 15.154-9.88 32.31-23.274 34.22-34.286.41-2.365-.025-5.513-.41-8.29zm-20.152-33.843-43.788 73.558a26.2 26.2 0 0 0-4.332-2.74l15.947-97.483a72.3 72.3 0 0 1 20.69 13.284 74 74 0 0 1 11.483 13.381M96 132.311c9.155 0 15.091 6.703 17.319 13.755l-17.413 9.436-19.496-9.54c2.52-7.045 9.621-13.651 19.59-13.651m19.646-105.455-15.989 97.745a24 24 0 0 0-3.657-.29 30 30 0 0 0-3.3.187L77.024 26.533A71 71 0 0 1 95.794 24c6.773 0 13.447.98 19.852 2.856m-46.312 2.252 15.582 97.385a28.4 28.4 0 0 0-6.629 3.89l-43.21-72.618c8.114-12.88 20.1-22.98 34.257-28.657M24.29 99.037c-.19-1.332-.4-5.433-.343-6.423a73.2 73.2 0 0 1 6.675-26.688l41.923 70.455a30 30 0 0 0-.778 1.141c-4.102-2.341-11.522-6.728-19.357-12.1-14.883-10.204-24.59-19.315-28.12-26.385m13.767 48.239c-.528-2.071.107-4.167 1.656-5.468 1.138-.955 2.669-1.432 4.48-1.432 1.928 0 4.173.541 6.592 1.62l16.46 8.341v.01l10.606 5.337c-11.294-.338-24.976-1.036-32.087-2.477-4.153-.842-6.962-3.004-7.707-5.931m112.072-5.373a5.18 5.18 0 0 1 1.7 5.282c-.743 2.919-3.731 5.113-8.2 6.022-8.934 1.815-21.517 2.496-31.495 2.732l7.68-4.294 18.803-9.653c4.828-2.15 9.019-2.181 11.512-.09zm18.025-44.872c-1.864 10.75-30.23 29.668-49.852 40.417a27 27 0 0 0-.94-1.517l42.726-71.774a72.6 72.6 0 0 1 7.307 24.665c.08.716.19 1.526.308 2.38.259 1.868.648 4.691.451 5.829"/></svg>