<svg xmlns="http://www.w3.org/2000/svg" viewBox="0 0 192 192"><path d="M52.599 88.797c-1.519-2.433-3.228-3.357-6.17-3.357-2.753 0-4.224.924-4.224 2.676 0 1.704 1.186 2.482 4.841 3.212 5.22 1.022 7.499 1.703 9.492 2.969 2.848 1.8 4.13 4.38 4.13 8.273 0 7.349-4.842 11.388-13.67 11.388-7.309 0-12.198-2.482-14.998-7.64l7.831-3.894c1.282 2.823 3.465 4.137 6.882 4.137 3.133 0 4.984-1.12 4.984-3.018 0-1.703-1.281-2.579-4.794-3.26-4.936-.974-6.834-1.558-8.828-2.677-3.085-1.752-4.556-4.477-4.556-8.517 0-6.862 4.841-11.047 12.815-11.047 6.265 0 10.774 2.288 13.574 6.911zm19.837-2.53h-9.113v-7.69h27.576v7.69h-9.113v27.107h-9.35zM126.589 96c0 10.707-6.787 17.958-16.801 17.958-10.015 0-16.85-7.251-16.85-17.91 0-5.596 1.899-10.462 5.364-13.723 3.132-2.92 6.834-4.283 11.675-4.283 9.825 0 16.612 7.349 16.612 17.958m-23.968.049c0 6.618 2.515 10.22 7.12 10.22 4.698 0 7.166-3.553 7.166-10.269 0-6.618-2.516-10.269-7.025-10.269-4.794 0-7.261 3.504-7.261 10.318m29.376-17.472h15.236c8.02 0 12.767 4.332 12.767 11.73 0 7.007-4.604 11.24-12.293 11.24h-6.36v11.827h-9.35zm14.428 16.011c2.99 0 4.604-1.557 4.604-4.428s-1.566-4.38-4.556-4.38h-5.126v8.808zM129.657 176H62.343L16 129.657V62.343L62.343 16h67.314L176 62.343v67.314zm-64-8h60.686L168 126.343V65.657L126.343 24H65.657L24 65.657v60.686z"/></svg>