<svg xmlns="http://www.w3.org/2000/svg" viewBox="0 0 192 192"><path d="M166.107 148.341c-1.89-3.19-5.632-5.594-10.232-6.773L174.125 100H148V60h-12V44h-24v16h-12v36H40v16H15.53l4.4 39.589A18.7 18.7 0 0 1 16 152v8c7.46 0 14.045-2.975 16.774-7.58 1.052-1.773 4.876-3.658 9.893-3.658s8.84 1.885 9.892 3.659c2.73 4.604 9.314 7.579 16.775 7.579s14.044-2.975 16.773-7.58c1.052-1.773 4.876-3.658 9.893-3.658s8.84 1.885 9.893 3.658c2.729 4.605 9.313 7.58 16.773 7.58 7.461 0 14.045-2.975 16.774-7.58 1.053-1.773 4.877-3.658 9.893-3.658s8.841 1.885 9.893 3.659C161.956 157.025 168.54 160 176 160v-8c-5.017 0-8.841-1.885-9.893-3.659M120 52h8v8h-8zm-12 16h32v32h-6.14l-8 12H108zm-60 36h52v8H48zm84.56 44.34c-1.052 1.775-4.877 3.66-9.894 3.66s-8.84-1.885-9.892-3.66c-2.73-4.603-9.314-7.578-16.774-7.578s-14.044 2.975-16.774 7.58C78.174 150.114 74.35 152 69.334 152s-8.842-1.885-9.894-3.66c-2.73-4.603-9.314-7.578-16.773-7.578-6.33 0-12.019 2.146-15.268 5.607L24.469 120h105.672l8-12h23.734l-14.414 32.833c-6.672.452-12.403 3.294-14.902 7.508z"/></svg>