<svg xmlns="http://www.w3.org/2000/svg" viewBox="0 0 192 192"><path d="M15.958 101.975v2M76 158.611l-50.847-62.6L76 33.419V16h-8v14.578L14.847 96.012 68 161.452v14.552h8zm16.03-8.205L49.09 95.982 92.041 41.17 92 15.993l-8 .014.038 22.407L38.913 96l45.114 57.178L84 175.995l8 .01.03-25.6zm16-7.952-35.026-46.46L108.03 49.29 108 15.997l-8 .006.027 30.624-37.031 49.38 37.031 49.122-.027 30.868 8 .006zM124 134.74 96.883 96 124 57.26V16h-8v38.74L87.117 96 116 137.26V176h8zm16-12.023L120.915 96.06 140 69.28V16h-8v50.72l-20.916 29.35L132 125.284V176h8z"/></svg>