<svg xmlns="http://www.w3.org/2000/svg" viewBox="0 0 192 192"><path d="M176 144c0 17.645-14.355 32-32 32s-32-14.355-32-32 14.355-32 32-32 32 14.355 32 32m-8 0c0-13.234-10.766-24-24-24s-24 10.766-24 24 10.766 24 24 24 24-10.766 24-24M44 128h63.35a40 40 0 0 1 4.672-8H44c-3.549 0-6.711-2.378-7.703-5.828L24.251 74A8 8 0 0 1 24 72c0-4.411 3.589-8 8-8h104.515l-12.623 45.443a39.8 39.8 0 0 1 9.408-3.978l14.564-52.43c.458-1.709 1.847-3.295 3.812-4.353 2.294-1.235 4.999-1.575 7.059-.888l12 4 2.53-7.59-12-4c-4.144-1.38-9.146-.846-13.38 1.433-3.956 2.128-6.708 5.441-7.739 9.292L138.737 56H32c-8.822 0-16 7.178-16 16 0 1.39.179 2.771.532 4.104l12.089 40.322C30.579 123.24 36.903 128 44 128m61.825 28H63.473c-1.783 6.889-8.034 12-15.473 12-8.822 0-16-7.178-16-16s7.178-16 16-16c7.439 0 13.69 5.111 15.473 12H104.2c.278 3.052 1.015 6.13 1.625 8M56 152c0-4.411-3.589-8-8-8s-8 3.589-8 8 3.589 8 8 8 8-3.589 8-8m102.829-14.171-5.657-5.657-13.171 13.172-5.171-5.172-5.657 5.657 10.829 10.828 18.829-18.828Z"/></svg>