<svg xmlns="http://www.w3.org/2000/svg" viewBox="0 0 192 192"><path d="M161.265 40.205c-4.143-1.38-9.145-.846-13.38 1.433-3.955 2.128-6.707 5.44-7.744 9.31L121.313 120H44c-3.55 0-6.711-2.378-7.703-5.828L24.25 73.999A8 8 0 0 1 24 72c0-4.411 3.589-8 8-8h28v-8H32c-8.822 0-16 7.178-16 16 0 1.39.18 2.77.532 4.104l12.09 40.322C30.58 123.24 36.902 128 44 128h75.132l-2.266 8.312c-6.019 1.201-10.813 5.792-12.34 11.688H63.474C61.69 141.11 55.44 136 48 136c-8.822 0-16 7.178-16 16s7.178 16 16 16c7.439 0 13.69-5.11 15.473-12h41.054c1.783 6.89 8.034 12 15.473 12 8.822 0 16-7.178 16-16 0-7.068-4.612-13.07-10.98-15.182l22.844-83.783c.458-1.709 1.847-3.295 3.812-4.352 2.294-1.235 4.998-1.576 7.059-.888l12 4 2.53-7.59zM48 160c-4.411 0-8-3.589-8-8s3.589-8 8-8 8 3.589 8 8-3.589 8-8 8m80-8c0 4.411-3.589 8-8 8s-8-3.589-8-8 3.589-8 8-8 8 3.589 8 8M94.829 46.829 89.17 41.17 108 22.343l18.829 18.828-5.658 5.658L112 37.657V68h-8V37.657zM80 101.657 61.171 82.829l5.658-5.658L76 86.343V56h8v30.343l9.171-9.172 5.658 5.658z"/></svg>