<svg xmlns="http://www.w3.org/2000/svg" viewBox="0 0 192 192"><path d="M161.265 40.205c-4.144-1.38-9.146-.846-13.38 1.433-3.956 2.128-6.708 5.441-7.744 9.31L138.763 56h-9.234l-1.53 6.4V64h8.582l-15.269 56H44c-3.55 0-6.71-2.38-7.7-5.83L24.25 74c-.17-.65-.25-1.32-.25-2 0-4.35 3.5-7.91 7.83-8-.07-2.62.07-5.3.47-8H32c-8.82 0-16 7.18-16 16 0 1.39.18 2.77.53 4.1l12.09 40.33C30.58 123.24 36.9 128 44 128h75.132l-2.266 8.311c-6.018 1.201-10.836 5.79-12.356 11.689H63.49c-1.78-6.89-8.05-12-15.49-12-8.82 0-16 7.18-16 16s7.18 16 16 16c7.44 0 13.71-5.11 15.49-12h41.02c1.78 6.89 8.05 12 15.49 12 8.82 0 16-7.18 16-16 0-7.07-4.61-13.07-10.97-15.19h-.008l22.842-83.775c.458-1.709 1.847-3.295 3.812-4.353 2.294-1.235 4.999-1.575 7.059-.888l12 4 2.53-7.59-12-4ZM48 160c-4.41 0-8-3.59-8-8s3.59-8 8-8 8 3.59 8 8-3.59 8-8 8m80-8c0 4.41-3.59 8-8 8s-8-3.59-8-8 3.59-8 8-8 8 3.59 8 8M39.17 95.22l5.66 5.65 1.9-1.9 5.86-5.86c4.56 2.61 13.96 7.07 24.87 7.07 8.74 0 18.43-2.86 27.39-11.82 9.85-9.85 16.19-24.84 18.34-43.34 1.6-13.76.36-24.56.31-25.01l-.37-3.14-3.14-.37c-.45-.05-11.25-1.29-25 .31-18.49 2.15-33.47 8.5-43.31 18.35-20.15 20.16-9.44 44.07-4.75 52.29l-5.85 5.86zm18.16-54.4c17.38-17.39 48.4-17.2 58.47-16.63.58 10.09.77 41.13-16.61 58.52-15.18 15.19-32.9 8.71-40.76 4.55l5.94-5.94L65.69 80H92v-8H73.69l31.16-31.18-5.66-5.66L80 54.36V40h-8v22.37L58.73 75.64l-5.95 5.96c-4.16-7.86-10.63-25.59 4.55-40.78"/></svg>