<svg xmlns="http://www.w3.org/2000/svg" viewBox="0 0 192 192"><path fill="#1d1d1b" d="M74.29 43.905c.017 1.227-1.073 2.317-2.302 2.3-1.208 0-2.298-1.073-2.298-2.3.017-1.226 1.074-2.282 2.298-2.282 1.245-.017 2.302 1.056 2.302 2.282m-2.302 6.857c-1.224 0-2.28 1.055-2.298 2.282 0 1.227 1.09 2.3 2.298 2.3 1.229.016 2.319-1.073 2.302-2.3 0-1.227-1.057-2.3-2.302-2.282m0 9.138c-1.224 0-2.28 1.056-2.298 2.283 0 1.227 1.09 2.3 2.298 2.3 1.229.016 2.319-1.073 2.302-2.3 0-1.227-1.057-2.3-2.302-2.283m0 9.14c-1.224 0-2.28 1.055-2.298 2.282 0 1.226 1.09 2.3 2.298 2.3 1.229.016 2.319-1.074 2.302-2.301 0-1.226-1.057-2.299-2.302-2.282zm0 9.138c-1.224 0-2.28 1.055-2.298 2.282 0 1.227 1.09 2.3 2.298 2.3 1.229.016 2.319-1.073 2.302-2.3 0-1.227-1.057-2.3-2.302-2.282m0 9.138c-1.224 0-2.28 1.056-2.298 2.283 0 1.227 1.09 2.3 2.298 2.3 1.229.016 2.319-1.073 2.302-2.3 0-1.227-1.057-2.3-2.302-2.283m0 9.14c-1.224 0-2.28 1.055-2.298 2.282 0 1.226 1.09 2.3 2.298 2.3 1.229.016 2.319-1.074 2.302-2.301 0-1.226-1.057-2.299-2.302-2.282zm0 9.138c-1.224 0-2.28 1.055-2.298 2.282 0 1.227 1.09 2.3 2.298 2.3 1.229.016 2.319-1.073 2.302-2.3 0-1.227-1.057-2.3-2.302-2.282m0 9.422c-1.224 0-2.28 1.056-2.298 2.283 0 1.226 1.09 2.3 2.298 2.3 1.229.016 2.319-1.074 2.302-2.301 0-1.226-1.057-2.299-2.302-2.282m0 9.422c-1.224 0-2.28 1.056-2.298 2.283 0 1.227 1.09 2.3 2.298 2.3 1.229.016 2.319-1.073 2.302-2.3 0-1.227-1.057-2.3-2.302-2.283m0 9.423c-1.224 0-2.28 1.056-2.298 2.283 0 1.226 1.09 2.299 2.298 2.299 1.229.016 2.319-1.073 2.302-2.3 0-1.226-1.057-2.3-2.302-2.282m0 9.422c-1.224 0-2.28 1.056-2.298 2.283 0 1.226 1.09 2.3 2.298 2.3 1.229.016 2.319-1.074 2.302-2.301 0-1.226-1.057-2.299-2.302-2.282m0 9.423c-1.224 0-2.28 1.055-2.298 2.282 0 1.227 1.09 2.3 2.298 2.3 1.229.016 2.319-1.073 2.302-2.3 0-1.227-1.057-2.3-2.302-2.282m0 9.422c-1.224 0-2.28 1.056-2.298 2.283 0 1.226 1.09 2.299 2.298 2.299 1.229.017 2.319-1.073 2.302-2.3 0-1.226-1.057-2.3-2.302-2.282m0 9.422c-1.224 0-2.28 1.056-2.298 2.283 0 1.227 1.09 2.3 2.298 2.3 1.229.016 2.319-1.073 2.302-2.301 0-1.226-1.057-2.299-2.302-2.282m9.628-125.355c1.227-.07 2.238-1.232 2.136-2.456-.086-1.223-1.215-2.22-2.455-2.116-1.222.086-2.202 1.213-2.134 2.438.085 1.224 1.248 2.218 2.453 2.134m.638 9.116c1.227-.069 2.237-1.232 2.135-2.456-.085-1.222-1.214-2.219-2.455-2.115-1.222.086-2.201 1.213-2.134 2.438.086 1.223 1.249 2.218 2.454 2.133m.637 9.116c1.227-.069 2.238-1.231 2.135-2.455-.084-1.223-1.213-2.22-2.455-2.116-1.221.086-2.2 1.213-2.133 2.438.086 1.224 1.248 2.218 2.453 2.133m.637 9.117c1.227-.069 2.239-1.232 2.136-2.456-.086-1.223-1.214-2.219-2.455-2.115-1.222.086-2.202 1.212-2.134 2.438.086 1.223 1.248 2.217 2.453 2.133m.638 9.116c1.227-.069 2.237-1.231 2.136-2.455-.086-1.223-1.215-2.22-2.455-2.116-1.222.086-2.202 1.213-2.134 2.438.085 1.224 1.248 2.218 2.453 2.133m.638 9.117c1.226-.069 2.237-1.232 2.135-2.456-.085-1.223-1.214-2.219-2.456-2.115-1.22.085-2.2 1.212-2.132 2.438.085 1.223 1.248 2.217 2.453 2.133m.638 9.116c1.226-.069 2.237-1.232 2.134-2.456-.085-1.222-1.214-2.219-2.455-2.115-1.221.086-2.201 1.213-2.134 2.438.086 1.223 1.25 2.217 2.455 2.133m.636 9.116c1.228-.069 2.238-1.231 2.136-2.455-.086-1.223-1.214-2.22-2.455-2.116-1.222.086-2.202 1.213-2.134 2.438.086 1.224 1.248 2.218 2.453 2.133m.657 9.4c1.228-.07 2.239-1.232 2.136-2.455-.085-1.224-1.214-2.22-2.455-2.116-1.222.085-2.202 1.212-2.134 2.438.086 1.224 1.248 2.217 2.453 2.133m.658 9.4c1.227-.07 2.238-1.232 2.135-2.456-.085-1.223-1.213-2.22-2.455-2.116-1.221.086-2.2 1.213-2.133 2.438.085 1.224 1.248 2.218 2.453 2.133zm.657 9.398c1.227-.068 2.238-1.23 2.136-2.455-.085-1.223-1.214-2.22-2.455-2.115-1.222.085-2.202 1.212-2.134 2.438.086 1.223 1.248 2.217 2.453 2.132m.658 9.4c1.227-.069 2.237-1.232 2.135-2.455-.085-1.223-1.214-2.22-2.455-2.116-1.222.086-2.201 1.212-2.134 2.438.086 1.224 1.249 2.217 2.454 2.133m.657 9.4c1.227-.07 2.238-1.232 2.135-2.456-.085-1.223-1.214-2.22-2.455-2.116-1.222.086-2.201 1.213-2.134 2.438.086 1.224 1.25 2.218 2.454 2.133zm.658 9.399c1.226-.07 2.237-1.232 2.134-2.455-.085-1.224-1.214-2.22-2.455-2.116-1.221.085-2.2 1.212-2.134 2.438.086 1.224 1.25 2.217 2.455 2.133m.336 4.828c-1.221.086-2.2 1.213-2.133 2.438.086 1.224 1.249 2.218 2.454 2.133 1.226-.069 2.237-1.231 2.135-2.455-.085-1.223-1.214-2.22-2.456-2.116m.751-125.071c1.22-.155 2.146-1.386 1.96-2.599-.171-1.214-1.367-2.13-2.597-1.939-1.213.17-2.113 1.363-1.96 2.58.172 1.215 1.401 2.126 2.597 1.958m1.272 9.049c1.219-.154 2.146-1.385 1.959-2.598-.171-1.214-1.366-2.13-2.597-1.94-1.213.171-2.111 1.364-1.959 2.581.171 1.215 1.4 2.125 2.597 1.957m1.271 9.05c1.22-.155 2.147-1.385 1.96-2.598-.17-1.215-1.367-2.13-2.597-1.94-1.213.17-2.112 1.363-1.958 2.58.17 1.215 1.4 2.126 2.595 1.958m1.272 9.05c1.219-.154 2.146-1.386 1.96-2.599-.171-1.214-1.366-2.129-2.597-1.94-1.213.172-2.113 1.364-1.959 2.582.171 1.214 1.4 2.125 2.596 1.956zm1.272 9.05c1.22-.156 2.147-1.385 1.96-2.599-.172-1.214-1.367-2.13-2.597-1.94-1.213.171-2.112 1.364-1.958 2.582.17 1.214 1.4 2.124 2.595 1.956zm1.273 9.05c1.219-.155 2.145-1.386 1.958-2.599-.17-1.214-1.365-2.13-2.597-1.94-1.212.17-2.111 1.363-1.958 2.581.171 1.215 1.4 2.126 2.597 1.957zm1.271 9.048c1.219-.154 2.147-1.384 1.96-2.598-.172-1.214-1.367-2.13-2.598-1.939-1.212.17-2.11 1.364-1.958 2.58.17 1.215 1.4 2.126 2.596 1.957m1.272 9.05c1.22-.154 2.146-1.384 1.959-2.597-.171-1.215-1.366-2.13-2.597-1.94-1.212.17-2.112 1.363-1.958 2.58.171 1.216 1.4 2.126 2.596 1.957m1.311 9.331c1.22-.155 2.147-1.385 1.96-2.598-.17-1.214-1.366-2.13-2.597-1.94-1.213.171-2.113 1.364-1.96 2.581.173 1.215 1.401 2.125 2.597 1.957m1.31 9.33c1.22-.154 2.148-1.384 1.96-2.597-.17-1.215-1.365-2.13-2.597-1.94-1.212.17-2.11 1.363-1.957 2.58.17 1.216 1.399 2.126 2.595 1.958zm1.312 9.331c1.22-.154 2.147-1.384 1.96-2.598-.17-1.214-1.367-2.13-2.596-1.939-1.213.17-2.113 1.363-1.96 2.58.172 1.215 1.4 2.125 2.596 1.957m1.313 9.331c1.219-.154 2.146-1.385 1.958-2.598-.17-1.214-1.365-2.13-2.597-1.94-1.213.17-2.111 1.364-1.959 2.581.172 1.215 1.402 2.125 2.598 1.957m1.311 9.33c1.218-.154 2.146-1.384 1.958-2.598-.17-1.214-1.366-2.13-2.596-1.939-1.213.17-2.112 1.363-1.958 2.581.17 1.214 1.4 2.125 2.596 1.957zm1.312 9.331c1.219-.154 2.145-1.384 1.958-2.598-.17-1.214-1.365-2.13-2.597-1.939-1.213.17-2.111 1.363-1.959 2.581.172 1.214 1.402 2.125 2.598 1.956m.672 4.794c-1.212.17-2.11 1.362-1.958 2.58.17 1.216 1.4 2.125 2.596 1.957 1.22-.154 2.147-1.385 1.96-2.598-.171-1.214-1.367-2.13-2.598-1.94zM62.704 41.623c-1.241-.104-2.37.893-2.456 2.116-.101 1.224.91 2.386 2.136 2.456 1.205.084 2.368-.91 2.453-2.134.068-1.225-.912-2.352-2.134-2.438zm-.638 9.117c-1.24-.104-2.37.893-2.455 2.115-.102 1.224.909 2.387 2.135 2.456 1.205.085 2.368-.91 2.454-2.133.068-1.225-.912-2.352-2.134-2.438m-.637 9.116c-1.241-.104-2.37.893-2.455 2.116-.103 1.224.908 2.386 2.135 2.455 1.206.085 2.368-.909 2.454-2.133.067-1.225-.913-2.352-2.134-2.438m-.638 9.117c-1.241-.104-2.369.892-2.455 2.115-.103 1.224.91 2.387 2.136 2.456 1.205.084 2.367-.91 2.453-2.133.068-1.226-.912-2.352-2.134-2.438m-.638 9.116c-1.24-.104-2.369.893-2.455 2.116-.101 1.224.91 2.386 2.136 2.455 1.205.085 2.368-.909 2.453-2.133.069-1.225-.912-2.352-2.134-2.438m-.636 9.117c-1.242-.104-2.37.892-2.455 2.115-.103 1.224.908 2.387 2.134 2.456 1.205.084 2.369-.91 2.454-2.133.068-1.226-.913-2.353-2.133-2.438m-.638 9.116c-1.241-.104-2.37.893-2.455 2.116-.103 1.223.908 2.386 2.135 2.455 1.205.084 2.368-.91 2.454-2.133.067-1.225-.912-2.352-2.134-2.438m-.638 9.116c-1.24-.104-2.369.893-2.455 2.116-.102 1.224.908 2.386 2.136 2.455 1.205.085 2.367-.909 2.453-2.133.068-1.225-.912-2.352-2.134-2.438m-.657 9.4c-1.241-.104-2.37.892-2.455 2.116-.103 1.223.908 2.386 2.136 2.455 1.205.084 2.367-.91 2.453-2.133.068-1.226-.912-2.353-2.134-2.438m-.657 9.4c-1.241-.105-2.37.892-2.455 2.115-.103 1.224.908 2.386 2.136 2.455 1.205.085 2.367-.91 2.453-2.133.067-1.225-.912-2.352-2.134-2.438zm-.657 9.399c-1.242-.104-2.37.892-2.455 2.115-.103 1.224.908 2.387 2.135 2.455 1.205.085 2.367-.909 2.453-2.132.068-1.226-.912-2.353-2.133-2.438m-.658 9.4c-1.24-.105-2.37.892-2.455 2.115-.102 1.223.909 2.386 2.135 2.455 1.205.084 2.368-.91 2.454-2.133.068-1.226-.912-2.352-2.134-2.438zm-.657 9.398c-1.241-.104-2.37.893-2.455 2.116-.102 1.224.908 2.387 2.135 2.455 1.205.085 2.368-.909 2.454-2.133.067-1.225-.912-2.352-2.134-2.438m-.657 9.4c-1.241-.104-2.37.892-2.455 2.116-.103 1.223.908 2.386 2.135 2.455 1.205.084 2.368-.91 2.454-2.133.067-1.226-.912-2.353-2.134-2.438m-.657 9.4c-1.241-.105-2.37.892-2.455 2.115-.103 1.224.908 2.386 2.134 2.455 1.205.085 2.369-.909 2.455-2.133.067-1.225-.913-2.352-2.134-2.438zm1.845-127.03c.154-1.217-.746-2.41-1.959-2.58-1.23-.19-2.425.725-2.596 1.939-.187 1.213.74 2.444 1.959 2.599 1.196.168 2.426-.743 2.596-1.957zm-1.271 9.05c.152-1.217-.746-2.41-1.959-2.58-1.23-.19-2.426.725-2.597 1.939-.187 1.213.74 2.444 1.96 2.598 1.196.168 2.425-.742 2.596-1.957m-5.827 8.409c-.188 1.213.74 2.443 1.959 2.598 1.196.168 2.425-.743 2.595-1.957.154-1.218-.745-2.41-1.958-2.58-1.23-.191-2.426.724-2.596 1.939m1.324 7.11c-1.23-.19-2.426.725-2.597 1.94-.186 1.212.742 2.444 1.96 2.597 1.197.169 2.425-.742 2.596-1.957.154-1.217-.746-2.41-1.959-2.58m-1.271 9.05c-1.231-.19-2.426.725-2.597 1.94-.188 1.213.74 2.442 1.959 2.597 1.196.168 2.426-.742 2.596-1.956.153-1.218-.746-2.41-1.958-2.581m-1.272 9.049c-1.231-.19-2.427.726-2.597 1.94-.187 1.213.74 2.444 1.958 2.598 1.197.169 2.426-.742 2.597-1.957.153-1.218-.746-2.41-1.958-2.581m-1.271 9.05c-1.232-.19-2.427.725-2.598 1.94-.188 1.213.74 2.443 1.959 2.597 1.196.169 2.426-.742 2.597-1.956.152-1.217-.747-2.41-1.958-2.58zm-1.273 9.05c-1.23-.19-2.426.725-2.597 1.94-.187 1.213.74 2.443 1.96 2.597 1.196.169 2.424-.741 2.595-1.956.154-1.218-.746-2.41-1.958-2.581m-1.311 9.33c-1.232-.19-2.427.726-2.597 1.94-.188 1.213.74 2.443 1.959 2.598 1.196.168 2.425-.742 2.597-1.957.153-1.218-.747-2.41-1.96-2.58zm-1.311 9.33c-1.231-.19-2.427.726-2.598 1.94-.187 1.214.74 2.444 1.96 2.599 1.197.168 2.425-.742 2.595-1.957.153-1.218-.745-2.41-1.957-2.581zm-1.312 9.332c-1.23-.19-2.427.725-2.596 1.94-.188 1.213.74 2.443 1.959 2.597 1.196.168 2.425-.742 2.595-1.957.154-1.217-.746-2.41-1.958-2.58m-1.311 9.33c-1.231-.19-2.427.726-2.597 1.94-.188 1.213.74 2.444 1.958 2.598 1.197.168 2.426-.742 2.598-1.957.152-1.217-.746-2.41-1.959-2.58zm-1.312 9.331c-1.23-.19-2.425.725-2.596 1.94-.188 1.213.74 2.443 1.958 2.598 1.196.168 2.427-.743 2.596-1.957.154-1.218-.745-2.41-1.958-2.58zm-1.311 9.331c-1.232-.19-2.427.725-2.597 1.939-.187 1.214.74 2.444 1.958 2.598 1.197.169 2.426-.742 2.598-1.956.152-1.218-.746-2.411-1.96-2.581zm-1.31 9.33c-1.232-.19-2.427.726-2.598 1.94-.188 1.213.74 2.444 1.959 2.598 1.196.168 2.425-.742 2.596-1.956.153-1.219-.746-2.41-1.958-2.581zM96 28H76V16h-8v12H48v8h48zm58.158 123.111c-2.586-4.246-4.164-7.111-4.164-7.111s-1.578 2.865-4.164 7.11c-2.404 3.947-5.83 9.085-5.83 14.223 0 5.891 4.474 10.667 9.994 10.667s9.994-4.776 9.994-10.667c0-5.138-3.426-10.276-5.83-14.222"/></svg>