<svg xmlns="http://www.w3.org/2000/svg" viewBox="0 0 192 192"><path d="M156 28v8h-48v-8h20V16h8v12zm-21.769 15.905c0-1.226-1.056-2.299-2.301-2.282-1.225 0-2.282 1.056-2.3 2.283 0 1.226 1.092 2.3 2.3 2.3 1.228.016 2.318-1.074 2.301-2.301m0 9.139c0-1.227-1.056-2.3-2.301-2.282-1.225 0-2.282 1.055-2.3 2.282 0 1.227 1.092 2.3 2.3 2.3 1.228.016 2.318-1.073 2.301-2.3m0 9.138c0-1.226-1.056-2.299-2.301-2.282-1.225 0-2.282 1.056-2.3 2.283 0 1.227 1.092 2.3 2.3 2.3 1.228.016 2.318-1.073 2.301-2.3m0 9.138c0-1.226-1.056-2.299-2.301-2.282-1.225 0-2.282 1.056-2.3 2.283 0 1.226 1.092 2.3 2.3 2.3 1.228.016 2.318-1.074 2.301-2.301m0 9.139c0-1.227-1.056-2.3-2.301-2.282-1.225 0-2.282 1.055-2.3 2.282 0 1.227 1.092 2.3 2.3 2.3 1.228.016 2.318-1.073 2.301-2.3m0 9.138c0-1.226-1.056-2.299-2.301-2.282-1.225 0-2.282 1.056-2.3 2.283 0 1.227 1.092 2.3 2.3 2.3 1.228.016 2.318-1.073 2.301-2.3m0 9.138c0-1.226-1.056-2.299-2.301-2.282-1.225 0-2.282 1.056-2.3 2.283 0 1.226 1.092 2.3 2.3 2.3 1.228.016 2.318-1.074 2.301-2.301m0 9.139c0-1.227-1.056-2.3-2.301-2.282-1.225 0-2.282 1.055-2.3 2.283 0 1.226 1.092 2.299 2.3 2.299 1.228.016 2.318-1.073 2.301-2.3m0 9.422c0-1.226-1.056-2.299-2.301-2.282-1.225 0-2.282 1.056-2.3 2.283 0 1.226 1.092 2.3 2.3 2.3 1.228.016 2.318-1.074 2.301-2.301m0 9.422c0-1.226-1.056-2.299-2.301-2.281-1.225 0-2.282 1.055-2.3 2.282 0 1.227 1.092 2.3 2.3 2.3 1.228.016 2.318-1.073 2.301-2.3m0 9.422c0-1.226-1.056-2.3-2.301-2.282-1.225 0-2.282 1.056-2.3 2.283 0 1.226 1.092 2.299 2.3 2.299 1.228.016 2.318-1.073 2.301-2.3m0 9.422c0-1.226-1.056-2.299-2.301-2.282-1.225 0-2.282 1.056-2.3 2.283 0 1.226 1.092 2.3 2.3 2.3 1.228.016 2.318-1.074 2.301-2.301m0 9.422c0-1.226-1.056-2.298-2.301-2.281-1.225 0-2.282 1.055-2.3 2.282 0 1.227 1.092 2.3 2.3 2.3 1.228.016 2.318-1.073 2.301-2.3m0 9.422c0-1.226-1.056-2.3-2.301-2.282-1.225 0-2.282 1.056-2.3 2.283 0 1.226 1.092 2.299 2.3 2.299 1.228.017 2.318-1.073 2.301-2.3m0 9.422c0-1.226-1.056-2.299-2.301-2.282-1.225 0-2.282 1.056-2.3 2.283 0 1.227 1.092 2.3 2.3 2.3 1.228.016 2.318-1.073 2.301-2.301m9.462-130.093c-.086-1.223-1.214-2.22-2.455-2.115-1.221.085-2.202 1.212-2.133 2.438.085 1.223 1.248 2.217 2.453 2.133 1.226-.07 2.237-1.232 2.135-2.456m.637 9.117c-.085-1.223-1.214-2.22-2.455-2.116-1.222.086-2.201 1.213-2.134 2.438.086 1.223 1.25 2.218 2.454 2.133 1.227-.069 2.238-1.232 2.135-2.456m.638 9.117c-.085-1.223-1.214-2.22-2.455-2.116-1.222.086-2.202 1.213-2.134 2.438.086 1.224 1.248 2.218 2.453 2.133 1.228-.069 2.238-1.231 2.136-2.455m.638 9.116c-.086-1.223-1.214-2.219-2.456-2.115-1.221.086-2.202 1.212-2.133 2.438.085 1.223 1.248 2.217 2.453 2.133 1.226-.069 2.238-1.232 2.136-2.456m.637 9.117c-.086-1.223-1.215-2.22-2.455-2.116-1.222.086-2.202 1.213-2.134 2.438.085 1.224 1.248 2.218 2.453 2.133 1.227-.069 2.238-1.231 2.136-2.455m.637 9.116c-.085-1.223-1.214-2.219-2.455-2.115-1.22.085-2.201 1.212-2.133 2.438.085 1.223 1.248 2.217 2.453 2.133 1.227-.069 2.237-1.232 2.135-2.456m.638 9.117c-.085-1.223-1.214-2.22-2.455-2.116-1.222.086-2.202 1.213-2.134 2.438.086 1.223 1.249 2.217 2.454 2.133 1.226-.069 2.237-1.232 2.135-2.456m.637 9.117c-.086-1.223-1.214-2.22-2.455-2.116-1.221.086-2.202 1.213-2.134 2.438.086 1.224 1.248 2.218 2.453 2.133 1.228-.069 2.239-1.231 2.136-2.455m.657 9.4c-.085-1.223-1.213-2.22-2.455-2.116-1.221.085-2.202 1.212-2.133 2.438.086 1.223 1.248 2.217 2.453 2.133 1.227-.07 2.238-1.232 2.136-2.455m.657 9.399c-.085-1.223-1.214-2.22-2.455-2.116-1.222.086-2.201 1.213-2.134 2.438.086 1.224 1.248 2.218 2.453 2.133 1.227-.069 2.238-1.231 2.136-2.455m.657 9.4c-.085-1.224-1.214-2.22-2.455-2.116-1.222.085-2.201 1.212-2.134 2.438.086 1.223 1.248 2.217 2.453 2.133 1.228-.07 2.239-1.232 2.136-2.456m.657 9.4c-.085-1.223-1.214-2.22-2.455-2.116-1.222.086-2.201 1.213-2.134 2.438.086 1.224 1.25 2.217 2.454 2.133 1.227-.069 2.238-1.232 2.135-2.455m.657 9.4c-.085-1.224-1.214-2.22-2.455-2.116-1.221.085-2.2 1.212-2.133 2.437.086 1.224 1.249 2.218 2.454 2.133 1.226-.069 2.237-1.231 2.134-2.455m.658 9.4c-.085-1.224-1.214-2.22-2.455-2.116-1.222.085-2.202 1.212-2.134 2.438.086 1.224 1.249 2.217 2.454 2.133 1.226-.07 2.237-1.232 2.135-2.455m.657 9.4c-.085-1.224-1.214-2.22-2.455-2.117-1.222.086-2.201 1.213-2.134 2.438.086 1.224 1.249 2.218 2.454 2.133 1.227-.069 2.237-1.231 2.135-2.455m.255-129.786c-.171-1.214-1.366-2.13-2.597-1.939-1.213.17-2.112 1.363-1.959 2.58.171 1.215 1.4 2.126 2.597 1.958 1.218-.155 2.145-1.386 1.959-2.599m1.271 9.05c-.17-1.214-1.366-2.13-2.596-1.94-1.213.171-2.112 1.364-1.96 2.581.172 1.215 1.401 2.125 2.597 1.957 1.219-.154 2.147-1.385 1.96-2.598m1.27 9.05c-.17-1.215-1.366-2.13-2.596-1.94-1.213.17-2.111 1.363-1.958 2.58.17 1.216 1.4 2.126 2.596 1.958 1.22-.155 2.146-1.385 1.959-2.598m1.272 9.05c-.17-1.215-1.366-2.13-2.596-1.94-1.213.17-2.114 1.363-1.96 2.58.171 1.215 1.4 2.126 2.596 1.958 1.219-.154 2.147-1.386 1.96-2.599m1.272 9.05c-.171-1.214-1.367-2.13-2.597-1.94-1.213.171-2.111 1.364-1.958 2.582.17 1.214 1.4 2.124 2.596 1.956 1.218-.154 2.146-1.384 1.959-2.598m1.271 9.05c-.17-1.214-1.365-2.13-2.596-1.94-1.213.17-2.112 1.363-1.959 2.581.171 1.215 1.4 2.126 2.597 1.957 1.219-.154 2.146-1.385 1.958-2.598m1.273 9.05c-.171-1.215-1.367-2.13-2.598-1.94-1.212.17-2.11 1.364-1.958 2.58.17 1.215 1.4 2.126 2.597 1.957 1.218-.154 2.146-1.384 1.959-2.598m1.271 9.05c-.17-1.214-1.366-2.13-2.597-1.94-1.211.172-2.112 1.364-1.958 2.582.171 1.215 1.4 2.125 2.596 1.956 1.22-.154 2.147-1.384 1.96-2.597m1.31 9.33c-.17-1.214-1.365-2.13-2.596-1.94-1.213.171-2.112 1.364-1.96 2.581.173 1.215 1.401 2.125 2.598 1.957 1.22-.154 2.146-1.384 1.959-2.598m1.311 9.33c-.17-1.214-1.366-2.13-2.597-1.94-1.212.172-2.11 1.364-1.958 2.582.17 1.215 1.399 2.125 2.595 1.957 1.22-.155 2.148-1.385 1.96-2.598m1.31 9.33c-.168-1.214-1.366-2.13-2.595-1.939-1.213.17-2.112 1.363-1.959 2.58.17 1.215 1.4 2.125 2.596 1.957 1.22-.154 2.146-1.384 1.959-2.598m1.311 9.33c-.17-1.214-1.365-2.129-2.597-1.938-1.212.17-2.11 1.363-1.959 2.58.172 1.215 1.402 2.125 2.598 1.957 1.219-.154 2.147-1.385 1.958-2.598m1.312 9.33c-.171-1.214-1.367-2.13-2.597-1.938-1.213.17-2.111 1.362-1.958 2.58.17 1.214 1.4 2.125 2.597 1.957 1.218-.155 2.145-1.385 1.958-2.599m1.311 9.331c-.17-1.214-1.365-2.13-2.596-1.939-1.213.17-2.112 1.363-1.96 2.581.173 1.214 1.402 2.125 2.598 1.956 1.219-.154 2.146-1.384 1.958-2.598m1.312 9.33c-.171-1.213-1.366-2.128-2.598-1.938-1.212.17-2.11 1.362-1.958 2.58.171 1.215 1.4 2.125 2.597 1.957 1.218-.154 2.146-1.385 1.959-2.598M120.19 43.739c-.102 1.224.909 2.387 2.135 2.456 1.205.084 2.368-.91 2.453-2.133.069-1.226-.912-2.353-2.134-2.438-1.24-.105-2.369.892-2.455 2.115m-.636 9.117c-.103 1.223.908 2.386 2.135 2.455 1.205.085 2.368-.91 2.454-2.133.067-1.225-.912-2.352-2.134-2.438-1.241-.104-2.37.893-2.455 2.115m-.638 9.117c-.102 1.224.908 2.386 2.136 2.455 1.205.085 2.367-.909 2.453-2.133.067-1.225-.912-2.352-2.134-2.438-1.241-.104-2.37.893-2.455 2.116m-.638 9.116c-.102 1.224.91 2.387 2.136 2.456 1.205.084 2.367-.91 2.453-2.133.069-1.226-.912-2.352-2.134-2.438-1.24-.104-2.369.892-2.455 2.115m-.637 9.117c-.102 1.224.909 2.386 2.135 2.455 1.205.085 2.369-.909 2.453-2.133.069-1.225-.912-2.352-2.133-2.438-1.24-.104-2.37.893-2.455 2.116m-.637 9.116c-.103 1.224.908 2.387 2.135 2.456 1.205.084 2.368-.91 2.453-2.133.068-1.226-.912-2.353-2.133-2.438-1.241-.104-2.37.892-2.455 2.115m-.638 9.117c-.102 1.223.908 2.386 2.135 2.455 1.205.085 2.368-.91 2.454-2.133.068-1.225-.912-2.352-2.134-2.438-1.24-.104-2.37.893-2.455 2.115m-.637 9.117c-.103 1.224.908 2.386 2.135 2.455 1.205.085 2.368-.909 2.453-2.133.069-1.225-.912-2.352-2.133-2.438-1.242-.103-2.37.893-2.456 2.116m-.657 9.4c-.102 1.223.909 2.386 2.136 2.455 1.205.084 2.367-.91 2.453-2.133.069-1.226-.912-2.353-2.134-2.438-1.24-.104-2.37.893-2.455 2.116m-.657 9.399c-.102 1.224.908 2.386 2.136 2.455 1.205.085 2.367-.91 2.453-2.133.067-1.225-.912-2.352-2.134-2.438-1.241-.104-2.37.893-2.455 2.116m-.657 9.4c-.103 1.223.908 2.386 2.136 2.455 1.205.084 2.367-.91 2.453-2.133.067-1.226-.912-2.353-2.134-2.438-1.241-.104-2.37.892-2.455 2.115m-.657 9.4c-.103 1.224.908 2.386 2.134 2.455 1.205.084 2.369-.91 2.454-2.133.068-1.225-.912-2.352-2.133-2.438-1.242-.104-2.37.893-2.455 2.116m-.658 9.4c-.102 1.223.909 2.386 2.135 2.454 1.205.085 2.368-.909 2.454-2.132.068-1.226-.912-2.353-2.134-2.438-1.24-.105-2.37.892-2.455 2.115m-.657 9.4c-.102 1.223.908 2.386 2.135 2.455 1.205.084 2.368-.91 2.454-2.133.067-1.226-.912-2.353-2.134-2.438-1.241-.104-2.37.892-2.455 2.116m-.657 9.4c-.103 1.223.908 2.385 2.135 2.454 1.205.085 2.368-.909 2.454-2.133.067-1.225-.912-2.352-2.134-2.438-1.241-.104-2.37.893-2.455 2.116m-.255-129.786c-.186 1.213.74 2.444 1.96 2.599 1.195.168 2.425-.743 2.596-1.957.153-1.218-.746-2.411-1.96-2.581-1.23-.19-2.425.725-2.596 1.939m-1.271 9.05c-.188 1.213.74 2.444 1.959 2.598 1.196.168 2.425-.742 2.596-1.957.153-1.217-.746-2.41-1.959-2.58-1.23-.19-2.425.725-2.596 1.939m-1.272 9.05c-.187 1.213.74 2.443 1.96 2.598 1.195.168 2.424-.742 2.595-1.957.153-1.218-.745-2.41-1.958-2.58-1.23-.191-2.427.724-2.597 1.939m-1.272 9.05c-.187 1.212.74 2.444 1.96 2.597 1.196.169 2.424-.742 2.595-1.957.155-1.217-.746-2.41-1.959-2.58-1.23-.19-2.425.725-2.596 1.94m-1.272 9.05c-.187 1.213.74 2.443 1.96 2.597 1.195.168 2.425-.742 2.595-1.956.153-1.218-.745-2.41-1.958-2.581-1.23-.19-2.426.725-2.597 1.94m-1.271 9.049c-.188 1.213.739 2.444 1.958 2.598 1.196.169 2.426-.742 2.596-1.957.154-1.218-.746-2.41-1.958-2.581-1.231-.19-2.426.726-2.596 1.94m-1.273 9.05c-.187 1.213.74 2.443 1.96 2.597 1.196.169 2.425-.742 2.596-1.956.152-1.217-.746-2.41-1.958-2.58-1.232-.191-2.427.724-2.598 1.938m-1.271 9.05c-.188 1.214.739 2.444 1.959 2.598 1.196.169 2.425-.741 2.595-1.956.155-1.218-.746-2.41-1.958-2.581-1.23-.19-2.425.725-2.596 1.94m-1.312 9.33c-.187 1.213.74 2.444 1.96 2.598 1.196.168 2.424-.742 2.596-1.957.153-1.217-.746-2.41-1.96-2.58-1.23-.19-2.426.725-2.596 1.94m-1.311 9.33c-.188 1.213.74 2.443 1.96 2.598 1.196.168 2.424-.742 2.594-1.957.154-1.218-.745-2.41-1.957-2.581-1.231-.19-2.426.725-2.597 1.94m-1.31 9.33c-.188 1.214.738 2.444 1.958 2.598 1.196.168 2.425-.742 2.596-1.957.153-1.217-.746-2.41-1.96-2.58-1.229-.19-2.426.725-2.595 1.94m-1.311 9.33c-.189 1.213.739 2.444 1.958 2.598 1.196.168 2.425-.742 2.597-1.957.153-1.217-.746-2.41-1.959-2.58-1.231-.191-2.427.724-2.596 1.939m-1.312 9.33c-.187 1.214.74 2.444 1.958 2.599 1.196.168 2.427-.743 2.597-1.956.153-1.219-.745-2.412-1.958-2.581-1.23-.192-2.426.724-2.597 1.938m-1.311 9.331c-.188 1.214.739 2.444 1.958 2.598 1.196.169 2.425-.742 2.597-1.956.153-1.218-.746-2.411-1.959-2.581-1.231-.19-2.426.725-2.596 1.939m-1.312 9.33c-.188 1.214.74 2.445 1.959 2.599 1.196.168 2.426-.742 2.597-1.956.152-1.219-.746-2.41-1.958-2.581-1.232-.19-2.427.725-2.598 1.939M90.066 124H68v52.023h-8V116h17.934L68 92.82V68c0-8.857-7.408-12-13.752-12C44.405 56 40 62.027 40 68v24.82L30.066 116H48v60.023h-8V124H17.934L32 91.18V68c0-8.593 5.152-15.43 13.067-18.395C39.66 46.497 36 40.673 36 34c0-9.925 8.075-18 18-18s18 8.075 18 18c0 6.598-3.579 12.361-8.886 15.495C70.994 52.375 76 59.192 76 68v23.18zM44 34c0 5.514 4.486 10 10 10s10-4.486 10-10-4.486-10-10-10-10 4.486-10 10"/></svg>