<svg xmlns="http://www.w3.org/2000/svg" viewBox="0 0 192 192"><path d="M73.373 73.373C67.329 79.416 64 87.453 64 96s3.329 16.584 9.373 22.627S87.453 128 96 128s16.584-3.329 22.627-9.373S128 104.547 128 96s-3.329-16.584-9.373-22.627S104.547 64 96 64s-16.584 3.329-22.627 9.373m39.598 5.657C117.503 83.562 120 89.59 120 96s-2.497 12.438-7.03 16.97C108.438 117.504 102.41 120 96 120s-12.438-2.497-16.97-7.03C74.496 108.438 72 102.41 72 96s2.497-12.438 7.03-16.97C83.562 74.496 89.59 72 96 72s12.438 2.497 16.97 7.03zM137.657 132l17.74 17.74-5.657 5.657-17.736-17.736-.004 10.34-8-.002.01-23.999H148v8zm-83.21-72-17.72-17.996 5.7-5.613L60 54.237V44h8v24H44v-8zM60 137.657l-17.74 17.74-5.657-5.657L54.343 132h-10.34v-8H68v24h-8zm89.74-101.054 5.657 5.657L137.657 60H148v8h-23.985L124 44.002l8-.004.006 10.338zm-92.79-1.088-4.348-6.719c26.31-16.993 60.48-16.994 86.792.003l-4.346 6.716C123.21 27.87 109.608 24.034 96 24.034S68.79 27.87 56.951 35.515zM35.515 56.951c-15.291 23.677-15.291 54.424-.002 78.1l-6.717 4.346c-16.993-26.31-16.994-60.48.003-86.792zm127.689 82.446-6.717-4.347c15.29-23.675 15.29-54.422-.002-78.099l6.716-4.346c16.997 26.312 16.996 60.482.003 86.792m-28.154 17.09 4.345 6.714c-13.156 8.498-28.272 12.761-43.395 12.761s-30.24-4.263-43.395-12.761l4.346-6.716c23.677 15.291 54.424 15.291 78.1.002z"/></svg>