<svg xmlns="http://www.w3.org/2000/svg" viewBox="0 0 192 192"><path d="M80.3 84.3c.6-1.9 1.8-3.3 1.8-3.3l3.5-3.3c.4-.4.7-.9.8-1.4.3-1.2 1.1-3.4 2.4-5.1 2.2-2.9 9-3.1 10.8-3.1h.8c1.8 0 8.6.2 10.8 3.1 1.3 1.5 2 3.5 2.4 4.8.2.8.6 1.4 1.2 2l3.2 3s2.1 2.8 2 5.7c.1 1.6.1 2.4.1 3.1 0 4.5.1 5.2-1.5 5.2h-3.1c-.1 0-1.4-.1-1.4-2.9h-6.5c-.2-.3-.4-.6-.6-.8-3.8-5-10.9-6.6-16.1-7.1H110l-.6-.6c-1.6-1.5-2.7-3.4-3.3-5.5-.2-.8-.5-1.3-.6-1.6-.9-.3-2.8-.6-4.9-.6h-.8c-2.2 0-4.1.3-5 .6-.2.3-.5 1-.7 1.8-.5 1.9-1.5 3.7-3 5l-.8.8C88.4 84 87 84 86 84c-1.2 0-3.3 0-5.7.3m9.8-.1h.7c-.2-.1-.4-.1-.7 0M68 116c0-.1 0-.2.1-.3l.3-.6c.1-.1.1-.3.2-.4 0-.1.1-.1.1-.2l4-4c1.5-1.5 2.6-3.4 3.2-5.5.4-1.6 1.1-3 1.6-3.8.1-.1.3-.1.5-.2.1 0 .2-.1.3-.1s.2-.1.3-.1.3-.1.4-.1c.3-.1.6-.1.9-.2.2 0 .3-.1.5-.1.5-.1 1.1-.2 1.7-.2.2 0 .5 0 .7-.1.7-.1 1.5-.1 2.3-.1h1.6c.8 0 1.5 0 2.2.1.3 0 .5 0 .8.1h.3c.2 0 .4.1.5.1q1.05.15 1.8.3c.2 0 .3.1.4.1s.3.1.4.1.2.1.3.1.2.1.3.1.2.1.2.1c.1 0 .2.1.2.1.4.5 1 1.6 1.5 3.3 0 .1 0 .1.1.2v-.2c2.2-1.6 4.8-2.7 7.3-3.3-.5-1.6-1.4-3.5-2.6-5-2.2-3-8.1-3.9-11.7-4.1-.8-.1-1.7-.1-2.2-.1h-1c-1 0-3 0-5.4.4-3.3.5-7 1.5-8.7 3.8-1.8 2.2-2.8 5.2-3.2 6.8-.2.7-.5 1.3-1.1 1.9l-4.5 4.4s-2.7 3.3-2.7 6.8v6c0 3.5.5 6 2 6h3.5s2.5 0 2.5-4h14c1-2 2.1-3.4 2.4-3.8l.6-.7 3.6-3.5H68zm107.8 44H16.2L96 15.7zm-146-8h132.4L96 32.3l-40.5 73.3-.1.1-1.7 3.1zm108.2-8h-4s-2 0-2-4H96c0 4-2.5 4-2.5 4H90c-1.5 0-2-2.5-2-6v-6c0-3.5 2.7-6.8 2.7-6.8l1.2-1.2 3.2-3.2c.5-.5.9-1.2 1.1-1.9s.5-1.8 1-2.9c.1-.2.1-.3.2-.5l.3-.6c.3-.7.7-1.3 1.1-2 .2-.3.4-.5.6-.8.2-.2.4-.5.6-.7l.1-.1.3-.3c.2-.2.4-.3.7-.5.2-.1.4-.3.7-.4l.6-.3s.1 0 .1-.1c.3-.1.5-.2.8-.3.2-.1.5-.2.7-.2.1 0 .2-.1.3-.1.2-.1.5-.1.7-.2.7-.2 1.3-.3 2-.4.4-.1.7-.1 1.1-.2h.2c.8-.1 1.6-.2 2.3-.2h.7c.9 0 1.6-.1 2.1-.1h3.2c.3 0 .6 0 .9.1h.1c.3 0 .6 0 .8.1h.1c.3 0 .6.1 1 .1s.7.1 1.1.2.7.1 1.1.2h.1c.4.1.8.2 1.1.3.2 0 .4.1.5.2.2.1.4.1.5.2.3.1.5.2.8.3 0 0 .1 0 .1.1.1 0 .2.1.4.1.3.2.6.3.9.5.1.1.2.1.3.2s.2.1.3.2c.2.1.3.2.5.4.1.1.3.2.4.3s.2.2.4.3c.1.1.2.2.3.4 1.7 2 2.6 4.7 3.1 6.4.3 1 .8 1.9 1.5 2.6l4.1 4.1s2.7 3.8 2.6 7.6c.1 2.2.1 3.2.1 4.2.3 5.9.4 6.9-1.7 6.9m-6.2-12c-.1-.4-.3-.9-.5-1.3-.1-.1-.2-.3-.2-.4l-3.5-3.4c-1.7-1.7-3-3.8-3.6-6.2-.5-1.8-1.1-2.9-1.6-3.5-.1-.1-.3-.2-.5-.2-.2-.1-.4-.1-.6-.2-.4-.1-.8-.2-1.3-.3-.1 0-.3-.1-.4-.1-.2 0-.3-.1-.5-.1-.4-.1-.8-.1-1.1-.2-.4 0-.8-.1-1.2-.1-.6 0-1.3-.1-2-.1h-2.6c-.4 0-.8 0-1.1.1-.2 0-.4 0-.6.1-.8.1-1.5.2-2.2.3-.2 0-.3.1-.5.1s-.3.1-.4.1c-.4.1-.7.2-1 .3-.1 0-.2.1-.2.1-.1 0-.2.1-.2.1-.6.7-1.2 2.2-1.6 3.8-.1.3-.1.5-.2.8-.3.8-.6 1.5-1 2.2v.1c-.3.4-.5.9-.9 1.3-.3.4-.7.8-1.1 1.2l-4 4c-.1.2-.2.4-.4.6l-.3.6c0 .1-.1.2-.1.3z"/></svg>