<svg xmlns="http://www.w3.org/2000/svg" viewBox="0 0 192 192"><path d="M144 176c-17.645 0-32-14.355-32-32s14.355-32 32-32 32 14.355 32 32-14.355 32-32 32m0-56c-13.234 0-24 10.766-24 24s10.766 24 24 24 24-10.766 24-24-10.766-24-24-24m4.126 35.894a4.07 4.07 0 0 1-4.104 4.106c-2.34 0-4.149-1.81-4.149-4.106 0-2.338 1.853-4.15 4.192-4.15 2.252 0 4.061 1.855 4.061 4.15m-7.9-18.492V128h7.546v9.402l-1.588 11.608h-4.413l-1.546-11.608zM64 112h-8v48h8zm-36 20h-8v28h8zm72-40h-8v68h8zm36 12.805V72h-8v35.35a39.7 39.7 0 0 1 8-2.545m36 10.666V52h-8v57.381a40.2 40.2 0 0 1 8 6.09"/></svg>