<svg xmlns="http://www.w3.org/2000/svg" viewBox="0 0 192 192"><path d="M164 61.68V160h-64v-16h8v8h48V66.32l-22-12.57-1.4-.8-.6-.34-5.82 3.32-3.62 2.07L108 66.32V72h-8V61.68l6.44-3.68 3.5-2 13.99-8 1.75-1 2.22-1.27c.07-.23.1-.48.1-.73v-2c0-1.65-1.35-3-3-3H67c-1.65 0-3 1.35-3 3v2c0 .25.03.5.1.73L66.32 47l1.75 1 13.99 8 3.5 2L92 61.68V72h-8v-5.68L69.44 58l-3.62-2.07L60 52.61l-.6.34L56 54.9 36 66.32V152h48v-8h8v16H28V61.68l28.02-16.01c-.01-.22-.02-.45-.02-.67v-2c0-6.07 4.93-11 11-11h58c6.07 0 11 4.93 11 11v2c0 .22-.01.45-.02.67zm-98.95 71.488 7.655-7.636c-4.712-8.23-8.67-22.736 2.28-33.66 16.207-16.166 43.79-11.229 44.955-11.01l2.69.502.506 2.69c.219 1.164 5.172 28.693-11.04 44.867-5.185 5.172-11.178 7.008-16.924 7.008-6.389 0-12.469-2.269-16.807-4.743l-7.664 7.646zm13.601-13.569 22.827-22.771 5.65 5.664-22.809 22.754c5.343 2.566 14.779 5.342 22.126-1.99 10.52-10.494 9.907-28.078 9.201-34.903-6.834-.702-24.482-1.32-35.01 9.183-7.346 7.328-4.557 16.738-1.985 22.063"/></svg>