<svg xmlns="http://www.w3.org/2000/svg" viewBox="0 0 192 192"><path d="M135.98 45.67c.01-.22.02-.45.02-.67v-2c0-6.07-4.93-11-11-11H67c-6.07 0-11 4.93-11 11v2c0 .22.01.45.02.67L28 61.68V160h64V61.68L85.56 58l-3.5-2-13.99-8-1.75-1-2.22-1.27c-.07-.23-.1-.48-.1-.73v-2c0-1.65 1.35-3 3-3h58c1.65 0 3 1.35 3 3v2c0 .25-.03.5-.1.73L125.68 47l-1.75 1-13.99 8-3.5 2-6.44 3.68V160h64V61.68zM65.82 55.93 69.44 58 84 66.32V152H36V66.32L56 54.9l3.4-1.95.6-.34zM156 152h-48V66.32L122.56 58l3.62-2.07 5.82-3.32.6.34 1.4.8 22 12.57z"/></svg>