<svg xmlns="http://www.w3.org/2000/svg" viewBox="0 0 192 192"><path d="M96 176c-44.112 0-80-35.888-80-80s35.888-80 80-80 80 35.888 80 80-35.888 80-80 80m0-152c-39.701 0-72 32.299-72 72s32.299 72 72 72 72-32.299 72-72-32.299-72-72-72m40.966 77.753c.505-3.844.46-7.73-.132-11.568-1.67-10.8-7.444-20.301-16.26-26.757-8.492-6.218-18.824-8.895-29.224-7.59-9.495-7.373-22.755-7.107-31.98.792-10.295 8.817-11.767 24.165-3.542 34.76a40.8 40.8 0 0 0 .167 11.307c1.67 10.799 7.444 20.3 16.26 26.756 8.516 6.235 18.884 8.904 29.314 7.577a25.37 25.37 0 0 0 14.566 4.47 25.46 25.46 0 0 0 15.35-5.177c5.382-4.1 8.847-10.049 9.755-16.754.856-6.324-.66-12.606-4.274-17.816m-32.049 27.284-1.055-.913-1.227.229a32.5 32.5 0 0 1-12.16 0c-17.647-3.358-29.231-20.386-25.873-38.033l.256-1.399-1.055-1.084c-6.458-6.59-6.458-17.135 0-23.724 6.551-6.686 17.281-6.794 23.967-.243l1.055 1.056 1.455-.285a32.5 32.5 0 0 1 12.02.027c17.647 3.359 29.23 20.387 25.871 38.034l-.257 1.37.913 1.056c5.544 6.376 5.544 15.862 0 22.239-6.141 7.064-16.846 7.812-23.91 1.67m10.472-24.451a12.5 12.5 0 0 0-4.195-10.015 29.9 29.9 0 0 0-11.783-5.393 56 56 0 0 1-6.163-1.797 5.9 5.9 0 0 1-2.34-1.37 2.45 2.45 0 0 1-.485-1.683c-.008-.719.36-1.39.97-1.77a6.16 6.16 0 0 1 3.595-.855 20.46 20.46 0 0 1 11.413 4.337l1.17.827 6.905-9.986-1.028-.827a28.36 28.36 0 0 0-18.232-6.02 20.8 20.8 0 0 0-9.044 1.91 15.5 15.5 0 0 0-6.363 5.422 14.6 14.6 0 0 0-2.34 8.274 14 14 0 0 0 2.083 7.96 13.6 13.6 0 0 0 5.707 4.68 54 54 0 0 0 8.788 2.853c1.937.47 3.843 1.06 5.706 1.77.816.26 1.56.709 2.169 1.312.323.467.474 1.031.428 1.597.03.837-.41 1.62-1.142 2.026a7.7 7.7 0 0 1-4.165.942 16.6 16.6 0 0 1-6.62-1.341 27 27 0 0 1-6.391-3.938l-1.084-.884-7.847 9.415 1.028.913a30.6 30.6 0 0 0 9.7 5.707 31.7 31.7 0 0 0 11.014 1.997 20.5 20.5 0 0 0 13.41-4.137 14.47 14.47 0 0 0 5.136-11.926"/></svg>