<svg xmlns="http://www.w3.org/2000/svg" viewBox="0 0 192 192"><path d="M130.086 111.074a25.43 25.43 0 0 1-9.028 20.964 36.06 36.06 0 0 1-23.572 7.273 55.7 55.7 0 0 1-19.36-3.51 53.8 53.8 0 0 1-17.053-10.032l-1.806-1.605 13.793-16.551 1.906 1.555a47.5 47.5 0 0 0 11.235 6.921 29.2 29.2 0 0 0 11.636 2.357 13.5 13.5 0 0 0 7.322-1.655 3.91 3.91 0 0 0 2.007-3.56 4.3 4.3 0 0 0-.753-2.81 9.5 9.5 0 0 0-3.812-2.307 84 84 0 0 0-10.03-3.11 95.3 95.3 0 0 1-15.448-5.015 23.93 23.93 0 0 1-10.031-8.225 24.58 24.58 0 0 1-3.662-13.993 25.63 25.63 0 0 1 4.113-14.545 27.23 27.23 0 0 1 11.185-9.53 36.6 36.6 0 0 1 15.899-3.36 49.85 49.85 0 0 1 32.049 10.582l1.805 1.455-12.137 17.554-2.056-1.454a35.96 35.96 0 0 0-20.062-7.624 10.83 10.83 0 0 0-6.32 1.505 3.61 3.61 0 0 0-1.705 3.11 4.3 4.3 0 0 0 .852 2.959 10.3 10.3 0 0 0 4.113 2.407A98 98 0 0 0 102 83.99a52.5 52.5 0 0 1 20.714 9.48 21.97 21.97 0 0 1 7.372 17.604m45.443 26.339c-1.597 11.786-7.686 22.244-17.149 29.45-7.716 5.876-17.286 9.1-26.982 9.1h-.407c-8.962 0-17.828-2.776-25.197-7.857-18.334 2.333-36.56-2.359-51.53-13.32-15.498-11.347-25.649-28.05-28.584-47.033a71.8 71.8 0 0 1-.293-19.875c-14.458-18.624-11.87-45.605 6.227-61.103 16.215-13.886 39.525-14.354 56.217-1.392 18.281-2.294 36.444 2.41 51.371 13.342 15.498 11.348 25.648 28.051 28.582 47.034a71.8 71.8 0 0 1 .233 20.336c6.354 9.159 9.016 20.201 7.512 31.318m-21.82 13.707c9.746-11.21 9.746-27.884 0-39.093l-1.605-1.856.452-2.408c5.904-31.02-14.457-60.955-45.478-66.859a57.2 57.2 0 0 0-21.128-.048l-2.558.502-1.856-1.856c-11.751-11.516-30.614-11.325-42.13.426-11.352 11.584-11.352 30.12 0 41.704l1.856 1.906-.452 2.458c-5.902 31.021 14.46 60.954 45.482 66.857a57.2 57.2 0 0 0 21.375 0l2.157-.401 1.856 1.605c12.417 10.795 31.234 9.48 42.03-2.937z"/></svg>