<svg xmlns="http://www.w3.org/2000/svg" viewBox="0 0 192 192"><path d="M120 96h-8V80h8zm16-16h-8v16h8zm8 24c2.74 0 5.414.278 8 .805V64h-48v8h40zM96 32H40v128h56zm-48 8h40v112H48zm32 12h-8v16h8zm-16 0h-8v16h8zm16 24h-8v16h8zm-16 0h-8v16h8zm16 24h-8v16h8zm-16 0h-8v16h8zm112 44c0-17.645-14.355-32-32-32s-32 14.355-32 32 14.355 32 32 32 32-14.355 32-32m-8 0c0 13.234-10.766 24-24 24s-24-10.766-24-24 10.766-24 24-24 24 10.766 24 24m-8-4v20h-32v-20h4v-4c0-6.617 5.383-12 12-12s12 5.383 12 12v4zm-20 0h8v-4c0-2.206-1.794-4-4-4s-4 1.794-4 4zm-4-35.195V104h-8v3.35a39.7 39.7 0 0 1 8-2.545m-16 7.217V104h-8v16h.022a40.3 40.3 0 0 1 7.978-7.978"/></svg>