<svg xmlns="http://www.w3.org/2000/svg" viewBox="0 0 192 192"><path d="M128 88h-8V72h8zm-16-16h-8v16h8zm16 24h-8v16h8zm-16 0h-8v16h8zm16 24h-8v16h8zm-16 0h-8v16h8zM16 88h8v-8h-8zm157.71-28.95A11.9 11.9 0 0 1 168 63.3V88h-24v8h16v8h-16v72H88v-32H64v-40H48.01v28.69c1.07.38 2.1.92 3.04 1.6 2.59 1.88 4.3 4.66 4.8 7.83s-.26 6.34-2.14 8.93c-2.34 3.23-6.01 4.94-9.72 4.94-2.45 0-4.91-.74-7.04-2.29-5.35-3.89-6.54-11.41-2.66-16.76a11.9 11.9 0 0 1 5.72-4.26V96H64v-8H32v-8h32V16h56v36h24v28h16V63.31c-1.06-.38-2.09-.9-3.05-1.6-5.35-3.89-6.54-11.41-2.66-16.76 1.88-2.59 4.66-4.3 7.83-4.8s6.34.26 8.93 2.14 4.3 4.66 4.8 7.83-.26 6.34-2.14 8.93M47.95 143.37a4 4 0 0 0-1.6-2.61c-.87-.63-1.92-.88-2.98-.71s-1.98.74-2.61 1.6c-1.3 1.79-.9 4.29.88 5.59a4 4 0 0 0 5.59-.89c.64-.86.89-1.92.72-2.98M96 52h8V36h-8zm-8 32h-8v16h8zm0-24h-8v16h8zm0-24h-8v16h8zm48 24H96v108h40zm31.95-8.63a3.995 3.995 0 0 0-3.94-3.37 4.02 4.02 0 0 0-3.24 1.65c-1.3 1.79-.9 4.29.88 5.59a4 4 0 0 0 5.59-.89c.63-.86.88-1.92.71-2.98M168 96v8h8v-8z"/></svg>