<svg xmlns="http://www.w3.org/2000/svg" viewBox="0 0 192 192"><path d="M120 96h-8V80h8zm16-16h-8v16h8zm8 24c2.74 0 5.414.278 8 .805V64h-48v8h40zM40 32h56v128H40zm8 120h40V40H48zm24-84h8V52h-8zm-16 0h8V52h-8zm16 24h8V76h-8zm-16 0h8V76h-8zm16 24h8v-16h-8zm-16 0h8v-16h-8zm120 28c0 17.645-14.355 32-32 32s-32-14.355-32-32 14.355-32 32-32 32 14.355 32 32m-8 0c0-13.234-10.766-24-24-24s-24 10.766-24 24 10.766 24 24 24 24-10.766 24-24m-8.144-4.536-3.147 1.817c.188.878.291 1.786.291 2.719s-.103 1.841-.291 2.719l3.147 1.817-4 6.928-3.162-1.826a13 13 0 0 1-4.694 2.726V160h-8v-3.636a13 13 0 0 1-4.694-2.726l-3.162 1.826-4-6.928 3.147-1.817c-.188-.878-.291-1.786-.291-2.719s.103-1.841.291-2.719l-3.147-1.817 4-6.928 3.162 1.826a13 13 0 0 1 4.694-2.726V128h8v3.636c1.76.571 3.35 1.513 4.693 2.726l3.163-1.826zM149 144c0-2.757-2.243-5-5-5s-5 2.243-5 5 2.243 5 5 5 5-2.243 5-5m-21-36.65a39.7 39.7 0 0 1 8-2.545V104h-8zM112 120h.022a40.3 40.3 0 0 1 7.978-7.978V104h-8z"/></svg>