<svg xmlns="http://www.w3.org/2000/svg" viewBox="0 0 192 192"><path d="M120 96h-8V80h8zm16-16h-8v16h8zm8 24c2.74 0 5.41.28 8 .8V64h-48v8h40zM96 32H40v128h56zm-48 8h40v112H48zm32 12h-8v16h8zm-16 0h-8v16h8zm16 24h-8v16h8zm-16 0h-8v16h8zm16 24h-8v16h8zm-16 0h-8v16h8zm112 44c0-17.65-14.35-32-32-32s-32 14.35-32 32 14.35 32 32 32 32-14.35 32-32m-8 0c0 13.23-10.77 24-24 24s-24-10.77-24-24 10.77-24 24-24 24 10.77 24 24m-32-39.2v-.8h-8v3.35c2.54-1.11 5.22-1.98 8-2.55m-16 7.22V104h-8v16h.02c2.27-3.02 4.96-5.71 7.98-7.98m11.25 19.74-1.66 7.15 13.79 3.21-1.42 6.12h.01c-.04.02-.08.04-.13.07v-.01h-10.51v-.31c0-1.35-.99-2.34-2.33-2.34V155c1.34 0 2.34-.97 2.34-2.32v-.35h10.46v-.01c.35.22.76.35 1.2.35 1.28 0 2.35-1.05 2.35-2.34 0-.38-.1-.73-.26-1.04l1.49-6.42 9.88 2.3 5.24-6.31z"/></svg>