<svg xmlns="http://www.w3.org/2000/svg" viewBox="0 0 192 192"><path d="M152 160h-48v-8h40V72h-40v-8h48zM80 52h-8v16h8zm-16 0h-8v16h8zm16 24h-8v16h8zm-16 0h-8v16h8zm16 24h-8v16h8zm-16 0h-8v16h8zm56-20h-8v16h8zm0 24h-8v16h8zm16-24h-8v16h8zm0 24h-8v16h8zM75.63 32l-8.041 8H88v112H48V63.302a12.03 12.03 0 0 1-8 0V160h56V32zm-6.174-5.456c-14.037-14.036-36.875-14.036-50.912 0L24.2 32.2c10.917-10.918 28.68-10.918 39.598 0l5.657-5.657zM58.142 37.858C54.365 34.081 49.342 32 44 32s-10.365 2.08-14.142 5.858l5.657 5.657C37.781 41.249 40.795 40 44 40s6.219 1.249 8.485 3.515zm-16.97 11.314a4 4 0 1 0 5.656 5.656 4 4 0 0 0-5.656-5.656"/></svg>