<svg xmlns="http://www.w3.org/2000/svg" viewBox="0 0 192 192"><path d="M90.09 72H80v-8h3.79c1.68 2.91 3.79 5.61 6.3 8M120 152H80v8h48V91.21l-8-7.53zM96 80h-8v16h8zm-8 40h8v-16h-8zm24-38.32V80h-8v16h8zM104 120h8v-16h-8zM16 32h56v128H16zm8 120h40V40H24zm24-84h8V52h-8zm-16 0h8V52h-8zm16 24h8V76h-8zm-16 0h8V76h-8zm16 24h8v-16h-8zm-16 0h8v-16h-8zm101.7-63.38L176 92.45v-11l-33.53-31.56c1.35-8.97-1.76-18.13-8.38-24.37-8.57-8.07-21.39-9.83-31.9-4.38l-5.01 2.6 20.46 19.25c.76.72 1.19 1.69 1.22 2.75s-.36 2.08-1.1 2.86c-.74.79-1.73 1.24-2.79 1.27-1.06.04-2.06-.33-2.82-1.05L91.7 29.57l-2.29 5.15c-4.37 9.84-2.67 21.24 4.13 29.28.66.8 1.39 1.56 2.16 2.29 2.68 2.53 5.81 4.45 9.17 5.71A27.9 27.9 0 0 0 120 73.29c.18-.03.36-.06.54-.1l7.46 7.02 48 45.2v-10.98l-48-45.2-5.27-4.96-2.21.68a19.9 19.9 0 0 1-14.06-.95c-1.92-.87-3.7-2.05-5.27-3.53-4.62-4.34-6.76-10.57-6.06-16.69l11.54 10.86c2.32 2.19 5.36 3.33 8.57 3.23 3.19-.11 6.15-1.45 8.34-3.78 2.2-2.33 3.36-5.37 3.28-8.56-.09-3.2-1.41-6.17-3.74-8.36l-11.54-10.86c6.07-1.08 12.41.69 17.02 5.03 5.13 4.83 7.29 12.12 5.64 19.03z"/></svg>