<svg xmlns="http://www.w3.org/2000/svg" xml:space="preserve" viewBox="0 0 192 192"><path d="m47.1 78.7 129.6-23.5-3.6-19.7c-1.6-8.7-9.9-14.5-18.6-12.9l.7 3.9-.7-3.9L40.3 43.4C32 44.9 26.9 52 27.4 61.5l.4 7.1C21 70.4 16 76.6 16 84s5.1 13.7 12 15.5V156c0 8.8 7.2 16 16 16h116c8.8 0 16-7.2 16-16V84H48c0-1.8-.3-3.6-.9-5.3m-8.3 19.8 6.8 13.5H36V99.5c1-.3 1.9-.6 2.8-1m54.5-36.3-19.6 3.6L79 44.5l19.6-3.6zm14-22.8 19.5-3.5-6.1 21.4-18.7 3.3zM65 67.3l-19.4 3.5 6.1-21.4L70.3 46zm102.4-18.5-9.6 1.7 5.1-17.9c1.2 1.1 2.1 2.6 2.4 4.4zm-12.3-18.1L149 52.1l-19.6 3.5 6.1-21.4zM41.8 51.2 43 51l-5.2 18.1c-.6-.3-1.3-.5-2-.6l-.4-7.5c-.2-2.5.2-8.6 6.4-9.8M24 84c0-4.4 3.6-8 8-8s8 3.6 8 8-3.6 8-8 8-8-3.6-8-8m136 80H44c-4.4 0-8-3.6-8-8v-36h132v36c0 4.4-3.6 8-8 8m-21.4-52L130 92h19.3l8.6 20zm-8.7 0h-19.3L102 92h19.3zm-28 0H82.6L74 92h19.3zm66.1 0h-1.4L158 92h9.9v20zM65.4 92l8.6 20H54.5l-9.4-18.8c.3-.4.5-.8.8-1.2z"/></svg>