<svg xmlns="http://www.w3.org/2000/svg" viewBox="0 0 192 192"><path d="M120.03 176H60c-6.62 0-12-5.38-12-12V28c0-6.62 5.38-12 12-12h72c6.62 0 12 5.38 12 12v76c-2.74 0-5.42.28-8 .8V28c0-2.21-1.79-4-4-4H60c-2.21 0-4 1.79-4 4v136c0 2.21 1.79 4 4 4h52.02a40.2 40.2 0 0 0 8.01 8M99.369 80V55.999h-6.613V80zm23.423 0V55.999h-6.613l.048 10.785-6.379-10.725v-.06h-.035l-.005-.008-.014.008h-6.558V80h6.613V69.079l6.439 10.92V80zM79.98 56c5.68 0 9.03 2.99 9.03 8.09 0 4.83-3.25 7.75-8.69 7.75h-4.5V80h-6.61V56zm-.53 4.97h-3.63v6.07h3.59c2.12 0 3.26-1.07 3.26-3.05s-1.11-3.02-3.22-3.02M96 160a8 8 0 1 0 0-16 8 8 0 0 0 0 16m12-124a4 4 0 0 0-4-4H88a4 4 0 0 0 0 8h16a4 4 0 0 0 4-4m68 108c0 17.65-14.35 32-32 32s-32-14.35-32-32 14.35-32 32-32 32 14.35 32 32m-8 0c0-13.23-10.77-24-24-24s-24 10.77-24 24 10.77 24 24 24 24-10.77 24-24m-9.86-8.49-2.83-2.82-2.83-2.83-.36.36-8.12 8.12-8.12-8.12-.36-.36-2.83 2.83-2.83 2.83.36.36 8.12 8.12-8.12 8.12-.36.36 2.83 2.83 2.82 2.83.37-.37 8.12-8.11 8.12 8.12.36.36 2.83-2.83 2.83-2.83-.36-.36-8.12-8.12 8.11-8.12z"/></svg>