<svg xmlns="http://www.w3.org/2000/svg" xml:space="preserve" viewBox="0 0 192 192"><path d="M136 152a8 8 0 1 1-16 0 8 8 0 0 1 16 0m4-116a4 4 0 0 0-4-4h-16a4 4 0 0 0 0 8h16a4 4 0 0 0 4-4m-21.388 26.857c0-7.317-3.848-14.057-10.014-17.891q.055-.855.055-1.7C108.653 28.23 96.248 16 81 16c-8.668 0-16.612 3.878-21.827 10.517a21.6 21.6 0 0 0-5.56-.721c-10.094 0-18.704 6.996-20.889 16.436C23.124 44.364 16 52.874 16 62.857 16 74.515 25.613 84 37.429 84h59.755c11.816 0 21.428-9.485 21.428-21.143M59.11 34.948l3.2 1.409 1.824-2.982C67.725 27.505 74.03 24 81 24c10.836 0 19.653 8.642 19.653 19.265 0 1.07-.096 2.168-.287 3.262l-.535 3.082 2.861 1.263c4.811 2.123 7.92 6.827 7.92 11.985 0 7.247-6.024 13.143-13.428 13.143H37.429C30.024 76 24 70.104 24 62.857c0-6.88 5.49-12.638 12.497-13.107l3.482-.232.24-3.483c.476-6.863 6.358-12.24 13.393-12.24 1.91 0 3.76.389 5.497 1.153M164 16h-60.675a35.2 35.2 0 0 1 7.41 8H164c2.206 0 4 1.794 4 4v136c0 2.206-1.794 4-4 4H92c-2.206 0-4-1.794-4-4V92h-8v72c0 6.617 5.383 12 12 12h72c6.617 0 12-5.383 12-12V28c0-6.617-5.383-12-12-12"/></svg>