<svg xmlns="http://www.w3.org/2000/svg" viewBox="0 0 192 192"><path d="M120 152a8 8 0 1 1-16 0 8 8 0 0 1 16 0m4-116a4 4 0 0 0-4-4h-16a4 4 0 0 0 0 8h16a4 4 0 0 0 4-4M58.828 49.172a4 4 0 1 0-5.656 5.656 4 4 0 0 0 5.656-5.656m22.628-22.628c-14.037-14.036-36.875-14.036-50.912 0L36.2 32.2c10.917-10.918 28.68-10.918 39.598 0l5.657-5.657zM70.142 37.858C66.365 34.081 61.342 32 56 32s-10.365 2.08-14.142 5.858l5.657 5.657C49.781 41.249 52.795 40 56 40s6.219 1.249 8.485 3.515zM148 16H79.453a43 43 0 0 1 9.093 8H148c2.206 0 4 1.794 4 4v136c0 2.206-1.794 4-4 4H76c-2.206 0-4-1.794-4-4V55h-4.395A12 12 0 0 1 64 60.919V164c0 6.617 5.383 12 12 12h72c6.617 0 12-5.383 12-12V28c0-6.617-5.383-12-12-12"/></svg>