<svg xmlns="http://www.w3.org/2000/svg" viewBox="0 0 192 192"><path d="M72 135.999h48c6.616 0 12-5.383 12-12v-96c0-6.617-5.384-12-12-12H72c-6.617 0-12 5.383-12 12v96c0 6.617 5.383 12 12 12m-4-108c0-2.206 1.794-4 4-4h48c2.205 0 4 1.794 4 4v96c0 2.206-1.795 4-4 4H72c-2.206 0-4-1.794-4-4zm20.041 8a4 4 0 0 1 4-4h8a4 4 0 0 1 0 8h-8a4 4 0 0 1-4-4M100 116a4 4 0 1 1-8 0 4 4 0 0 1 8 0m-38.547 28.1-11.679 31.838h6.677l2.088-6.067h12.918l2.065 6.067h7.568l-11.46-31.837h-8.177zm-1.218 20.704 4.806-13.984 4.74 13.984zm38.71-20.703H85.396v31.837h7.133v-11.656h6.72q4.893 0 7.808-2.283 3.327-2.61 3.327-7.568 0-4.545-2.632-7.242-3.022-3.088-8.807-3.088m3.392 13.504q-1.26 1.37-3.849 1.37H92.53v-9.22h6.003q4.915 0 4.915 4.545 0 2.11-1.11 3.305zm35.818-10.416q-3.022-3.088-8.808-3.088H115.8v31.837h7.133v-11.656h6.72q4.893 0 7.807-2.283 3.327-2.61 3.327-7.568 0-4.545-2.631-7.242zm-5.415 10.416q-1.261 1.37-3.85 1.37h-5.958v-9.22h6.002q4.915 0 4.915 4.545 0 2.11-1.11 3.305z"/></svg>