<svg xmlns="http://www.w3.org/2000/svg" viewBox="0 0 192 192"><path d="M132 176H60c-6.617 0-12-5.383-12-12V28c0-6.617 5.383-12 12-12h72c6.617 0 12 5.383 12 12v136c0 6.617-5.383 12-12 12M60 24c-2.206 0-4 1.794-4 4v136c0 2.206 1.794 4 4 4h72c2.206 0 4-1.794 4-4V28c0-2.206-1.794-4-4-4zm36 120a8 8 0 1 0 0 16 8 8 0 0 0 0-16m12-108a4 4 0 0 0-4-4H88a4 4 0 0 0 0 8h16a4 4 0 0 0 4-4m-12 76.001h18.105c0 7.599 2.527 7.999 2.527 7.999h7.157c1.685 0 2.527-4 2.527-7.999v-11.198c0-4-3.369-7.999-3.369-7.999h1.685c2.105 0 3.368-1.6 3.368-3.2 0-2.8-2.947-3.199-2.947-3.199h-7.158s-2.105-6-5.053-9.599C109.052 71.607 96 72.007 96 72.007s-13.053-.4-16.842 4.8c-2.948 3.599-5.053 9.598-5.053 9.598h-7.158s-2.947.4-2.947 3.2c0 1.6 1.263 3.199 3.368 3.199h1.685s-3.369 4-3.369 7.999V112c0 4 .842 7.999 2.527 7.999h7.157s2.527-.4 2.527-7.999H96z"/></svg>