<svg xmlns="http://www.w3.org/2000/svg" viewBox="0 0 192 192"><path d="M132 16H60c-6.617 0-12 5.383-12 12v136c0 6.617 5.383 12 12 12h72c6.617 0 12-5.383 12-12V28c0-6.617-5.383-12-12-12m4 148c0 2.206-1.794 4-4 4H60c-2.206 0-4-1.794-4-4V28c0-2.206 1.794-4 4-4h72c2.206 0 4 1.794 4 4zm-32-12a8 8 0 1 1-16 0 8 8 0 0 1 16 0m4-116a4 4 0 0 1-4 4H88a4 4 0 0 1 0-8h16a4 4 0 0 1 4 4m-8 56h8v8H92V80h8zm-4-27c-17.645 0-32 14.355-32 32s14.355 32 32 32 32-14.355 32-32-14.355-32-32-32m0 56c-13.234 0-24-10.766-24-24s10.766-24 24-24 24 10.766 24 24-10.766 24-24 24"/></svg>