<svg xmlns="http://www.w3.org/2000/svg" viewBox="0 0 192 192"><path d="M132 16H60c-6.617 0-12 5.383-12 12v136c0 6.617 5.383 12 12 12h72c6.617 0 12-5.383 12-12V28c0-6.617-5.383-12-12-12m4 148c0 2.206-1.794 4-4 4H60c-2.206 0-4-1.794-4-4V28c0-2.206 1.794-4 4-4h72c2.206 0 4 1.794 4 4zm-32-12a8 8 0 1 1-16 0 8 8 0 0 1 16 0m4-116a4 4 0 0 1-4 4H88a4 4 0 0 1 0-8h16a4 4 0 0 1 4 4m-8 32v8a4 4 0 0 1-8 0v-8a4 4 0 0 1 8 0m0 48v8a4 4 0 0 1-8 0v-8a4 4 0 0 1 8 0m28-20a4 4 0 0 1-4 4h-8a4 4 0 0 1 0-8h8a4 4 0 0 1 4 4m-52 4h-8a4 4 0 0 1 0-8h8a4 4 0 0 1 0 8m31.515-15.112a4 4 0 0 1 0-5.657l5.656-5.657a4 4 0 0 1 5.658 5.656l-5.657 5.657c-.781.781-1.805 1.172-2.829 1.172s-2.047-.39-2.828-1.171m-22.627 22.627a4 4 0 0 1 0 5.657l-5.658 5.657A4 4 0 0 1 76.402 120a4 4 0 0 1-2.828-6.829l5.657-5.656a4 4 0 0 1 5.657 0m33.94 5.656a4 4 0 0 1-5.657 5.658l-5.656-5.657a4 4 0 0 1 5.657-5.657zm-33.94-33.94a4 4 0 0 1-5.658 5.657l-5.657-5.658a4 4 0 0 1 5.657-5.657z"/></svg>