<svg xmlns="http://www.w3.org/2000/svg" viewBox="0 0 192 192"><path d="M66.933 52.504C77.94 64.374 84 79.821 84 96s-6.061 31.625-17.067 43.495a64.3 64.3 0 0 1-13.558 11.118l-4.178-6.822a56.3 56.3 0 0 0 11.87-9.735C70.697 123.67 76 110.155 76 96s-5.303-27.67-14.933-38.056a56.3 56.3 0 0 0-11.87-9.735l4.178-6.822a64.2 64.2 0 0 1 13.558 11.117M52 96c0-11.23-5.726-21.439-15.315-27.309l-4.177 6.823C39.704 79.92 44 87.577 44 96s-4.296 16.08-11.493 20.486l4.177 6.823c9.59-5.87 15.316-16.08 15.316-27.31zm16 0c0-16.842-8.587-32.155-22.97-40.96l-4.177 6.822C52.843 69.202 60 81.965 60 96s-7.158 26.797-19.148 34.138l4.178 6.823C59.413 128.155 68 112.842 68 96m80-80H76c-6.617 0-12 5.383-12 12v10.443a79 79 0 0 1 6.803 6.184c.408.418.8.848 1.197 1.274V28c0-2.206 1.794-4 4-4h72c2.206 0 4 1.794 4 4v136c0 2.206-1.794 4-4 4H76c-2.206 0-4-1.794-4-4v-17.914c-.4.428-.787.865-1.197 1.286A79 79 0 0 1 64 153.556V164c0 6.617 5.383 12 12 12h72c6.617 0 12-5.383 12-12V28c0-6.617-5.383-12-12-12m-36 128a8 8 0 1 0 0 16 8 8 0 0 0 0-16m-8-104h16a4 4 0 0 0 0-8h-16a4 4 0 0 0 0 8"/></svg>