<svg xmlns="http://www.w3.org/2000/svg" viewBox="0 0 192 192"><path d="M132 16H60c-6.617 0-12 5.383-12 12v136c0 6.617 5.383 12 12 12h72c6.617 0 12-5.383 12-12V28c0-6.617-5.383-12-12-12m4 148c0 2.206-1.794 4-4 4H60c-2.206 0-4-1.794-4-4V28c0-2.206 1.794-4 4-4h72c2.206 0 4 1.794 4 4zm-32-12a8 8 0 1 1-16 0 8 8 0 0 1 16 0m4-116a4 4 0 0 1-4 4H88a4 4 0 0 1 0-8h16a4 4 0 0 1 4 4m-17.213 72H64v-7.969l15.602-18.77h-14.93v-7.584h25.635v8.017l-15.218 18.722h15.698zM112 120a4 4 0 1 1-8 0 4 4 0 0 1 8 0m16 0a4 4 0 1 1-8 0 4 4 0 0 1 8 0m-32 0a4 4 0 1 1-8 0 4 4 0 0 1 8 0"/></svg>