<svg xmlns="http://www.w3.org/2000/svg" viewBox="0 0 192 192"><path d="M132 176H60c-6.617 0-12-5.383-12-12V28c0-6.617 5.383-12 12-12h72c6.617 0 12 5.383 12 12v136c0 6.617-5.383 12-12 12M60 24c-2.206 0-4 1.794-4 4v136c0 2.206 1.794 4 4 4h72c2.206 0 4-1.794 4-4V28c0-2.206-1.794-4-4-4zm36 120a8 8 0 1 0 0 16 8 8 0 0 0 0-16m12-108a4 4 0 0 0-4-4H88a4 4 0 0 0 0 8h16a4 4 0 0 0 4-4m-24.206 77.517 9.558-28.672 5.84 18.132a4 4 0 0 0 3.788 2.773h.02a4 4 0 0 0 3.795-2.735l3.572-10.718.861 1.6A4 4 0 0 0 114.75 96h13v-8h-10.61l-4.118-7.646a4.002 4.002 0 0 0-7.317.63l-2.64 7.922-5.841-18.132a4 4 0 0 0-3.787-2.773c-1.736-.055-3.269 1.094-3.815 2.735l-9.476 28.426-2.574-8.342A4 4 0 0 0 73.75 88H64v8h6.798l5.38 17.431a4 4 0 0 0 3.777 2.82H80a4 4 0 0 0 3.794-2.734"/></svg>