<svg xmlns="http://www.w3.org/2000/svg" viewBox="0 0 192 192"><path d="m163.714 114.514-7.428 2.97 4.093 10.232L136.944 116 164 102.471V65.528l-36-18-28 14V33.657l9.171 9.172 5.658-5.658L96 18.343 77.171 37.171l5.658 5.658L92 33.657v27.87l-28-14-36 18v36.944L55.056 116l-23.435 11.717 4.093-10.231-7.428-2.97-9.486 23.713 23.715 9.485 2.97-7.427-11.729-4.692L60 122.47v28l36 18 36-18v-28l26.244 13.123-11.73 4.692 2.971 7.427 23.715-9.485-9.486-23.714zM96 127.528 72.943 116l18.65-9.326C92.859 107.51 94.372 108 96 108s3.142-.49 4.406-1.326l18.65 9.326zm28-18-20.024-10.012A7.99 7.99 0 0 0 100 93.079V74.471l24 12zM92 93.079a7.99 7.99 0 0 0-3.976 6.437L68 109.528V86.47l24-12v18.61zm40 16.449V86.47l24-11.999v23.056l-24 12zM151.055 68 128 79.528 104.944 68 128 56.472zm-63.999 0L64 79.528 40.945 68 64 56.472zM36 74.472l24 12v23.056l-24-12zm32 48 24 12v23.056l-24-12V122.47zm32 35.056V134.47l24-12v23.057l-24 12z"/></svg>