<svg xmlns="http://www.w3.org/2000/svg" viewBox="0 0 192 192"><path d="M96 176c-44.112 0-80-35.888-80-80s35.888-80 80-80 80 35.888 80 80-35.888 80-80 80m0-152c-39.701 0-72 32.299-72 72s32.299 72 72 72 72-32.299 72-72-32.299-72-72-72m42.495 92.408c-4.595-.741-11.163-3.717-16.358-13.678-.161-.308-.272-.523-.38-.694-.447-.938-.463-1.55-.3-2.158.966-1.417 2.824-2.23 3.802-2.465.605 0 1.084-.207 1.488-.404l.431-.128c3.547-1.33 5.346-3.053 5.346-5.118 0-1.89-1.129-3.44-3.04-4.205-.942-.639-2.081-.639-2.61-.639-.533 0-1.643 0-2.333.743-1.07.716-2.593.956-3.318.84v-1.583c0-1.316.04-2.691.079-4.077.146-5.202.297-10.58-1.468-14.105-5.912-13.095-17.933-14.508-23.228-14.508H94.99c-4.893 0-16.912 1.413-22.79 14.435-2.154 4.307-1.9 11.155-1.425 18.255v1.078c-.812.294-2.292.046-3.787-.605-.4-.477-1.088-.877-2.267-.877-1.97 0-4.432 1.271-5.14 3.398l-.105.638c0 2.79 2.796 4.393 5.234 5.479l.547.173c.229.114.564.276.986.355l.63.244c1.382.524 3.274 1.244 3.603 2.055.234.708.268 1.372-.294 2.5l-.213.425v.118c-.674 1.49-5.82 11.985-16.143 13.674-1.506 0-2.826 1.32-2.826 3.228l.104.638c.81 2.434 4.34 4.058 11.647 5.236.087.26.207.655.356 1.242.006.729.05 1.41.475 2.369.186.839.842 2.22 3.157 2.22.57 0 1.011-.183 1.616-.404.601 0 1.293-.08 2.07-.179 1.194-.15 2.72-.307 4.258-.05.715.121 1.429.237 1.815.202 1.967.329 4.075 1.328 6.123 2.948l.936.593c3.054 1.947 6.516 4.154 11.837 4.154h1.212c3.79 0 6.688-1.306 9.246-2.46 1.033-.464 2.046-.925 3.36-1.385.78-.39 1.52-.82 2.245-1.24 1.464-.85 2.729-1.583 4.347-1.879 2.185-.725 5.358-.457 6.926-.079.927.585 2.016.585 2.529.585 2.098 0 3.23-1.454 3.328-3.196.122-.364.306-.914.266-1.251l.17-.887.08-.45c7.317-1.162 10.965-2.8 11.793-5.28l.104-1.043c0-1.531-1.39-2.785-2.505-2.798"/></svg>