<svg xmlns="http://www.w3.org/2000/svg" viewBox="0 0 192 192"><path d="M72 84H32v-8h40zm0 8H32v8h40zm0 16H32v8h40zm0 16H32v8h40zm8.043-42.195v-5.803h25.371v5.803h-9.087v26.36H89.13v-26.36zm45.09 6.007v5.803h-15.475v7.242h11.785v5.353h-11.785v7.962h16.194v5.803h-23.301V87.812zm-1.126-11.81h8.547l5.983 10.256 5.937-10.256h7.693l-9.717 15.384 10.886 16.779h-8.592l-6.882-11.56-6.927 11.56h-7.738l10.841-16.554zM160 40h-36v-8h36zm16 0v81.657L145.657 152H16V40h108v16h36V40zm-13.657 84H148v14.343zM168 64H24v80h116v-28h28z"/></svg>