<svg xmlns="http://www.w3.org/2000/svg" viewBox="0 0 192 192"><path d="M174.829 133.171c-16.08-16.079-14.849-44.68-14.834-44.963L160 48h-36v8h28v28H40V56h28v-8H32v40l.005.208c.016.286 1.302 28.829-14.834 44.963L16 134.343V176h160v-41.657zM168 168H24v-30.387q.734-.794 1.424-1.613h141.152c.461.545.933 1.084 1.424 1.613zM96.981 62.673l-6.272-4.965c.007-.01 2.517-3.332 2.517-7.66 0-3.194-.635-4.899-1.439-7.056-.91-2.444-1.942-5.213-1.942-9.849 0-7.06 3.81-12.077 4.245-12.626l6.272 4.966L97.226 23l3.154 2.46c-.025.033-2.535 3.354-2.535 7.683 0 3.194.635 4.899 1.44 7.056.91 2.444 1.941 5.213 1.941 9.849 0 7.06-3.81 12.077-4.245 12.625m14.846 0-6.273-4.964c.008-.01 2.517-3.333 2.517-7.661 0-3.194-.634-4.899-1.439-7.056-.91-2.444-1.942-5.213-1.942-9.849 0-7.06 3.81-12.077 4.245-12.626l6.273 4.966L112.07 23l3.155 2.46c-.026.033-2.536 3.354-2.536 7.683 0 3.194.635 4.899 1.44 7.056.91 2.444 1.941 5.213 1.941 9.849 0 7.06-3.81 12.077-4.244 12.625zm-29.69 0-6.273-4.964c.007-.01 2.517-3.333 2.517-7.661 0-3.194-.635-4.899-1.44-7.056-.91-2.444-1.941-5.213-1.941-9.849 0-7.06 3.81-12.077 4.245-12.626l6.272 4.966L82.381 23l3.154 2.46C85.51 25.493 83 28.814 83 33.143c0 3.194.635 4.899 1.439 7.056.91 2.444 1.942 5.213 1.942 9.849 0 7.06-3.81 12.077-4.245 12.625z"/></svg>