<svg xmlns="http://www.w3.org/2000/svg" viewBox="0 0 192 192"><path d="M39.443 175v-28.998h-10.2v-6.03h28.04v6.03H47.08V175zm22.452 0v-35.027h7.638v14.355h14.008v-14.355h7.639V175h-7.64v-14.643H69.533V175zm37.192 0v-35.027h15.595q6.465 0 9.664 3.35 2.464 2.559 2.465 6.627 0 3.78-1.978 6.077a8.3 8.3 0 0 1-2.879 2.153q-.66.288-1.977.67 2.587.814 3.807 2.273a7.9 7.9 0 0 1 1.318 2.345q.244.718.708 2.632 1.635 6.938 2.88 8.709V175h-7.835q-.854-1.507-1.512-3.66-.392-1.317-1.172-4.714-.635-2.847-2.001-4.067-1.293-1.125-3.857-1.125h-5.587V175h-7.64zm7.639-19.165h6.76q2.952 0 4.416-1.387 1.416-1.34 1.416-3.685 0-4.953-5.222-4.952h-7.37zm24.696 11.198 6.639-2.68q1.096 2.417 2.709 3.589 2.415 1.77 6.247 1.77 2.88 0 4.66-1.052 2.002-1.149 2.002-3.47 0-1.817-1.269-2.799a6.6 6.6 0 0 0-1.952-1.005 46 46 0 0 0-3.539-.957q-4.002-.909-5.662-1.46-7.248-2.295-7.248-8.852 0-5.742 4.369-8.541 3.244-2.082 8.2-2.082 9.687 0 13.69 7.321l-6.199 2.776q-1.073-1.938-2.245-2.823-1.88-1.436-5.1-1.436-2.197 0-3.538.814-1.685 1.029-1.685 3.11 0 1.65 1.22 2.56a6.6 6.6 0 0 0 2.1 1.1q1.244.36 3.026.718 6.662 1.341 9.224 3.015 4.1 2.656 4.1 7.991 0 4.164-2.318 6.867-1.88 2.225-5.54 3.254-2.758.79-6.15.79-6.834 0-11.079-2.92-2.295-1.578-3.71-3.828-.39-.645-.952-1.77M132 52v40h24v8h-39.2c-4.852 0-8.8 3.948-8.8 8.8V132H84v-23.2c0-4.852-3.948-8.8-8.8-8.8H36v-8h24V52H36v-8h39.2c4.852 0 8.8-3.948 8.8-8.8V16h8v108h8V16h8v19.2c0 4.852 3.948 8.8 8.8 8.8H156v8z"/></svg>