<svg xmlns="http://www.w3.org/2000/svg" viewBox="0 0 192 192"><path d="M174.004 107.337c-1.47-5.485-4.972-10.062-9.862-12.885l-37.265-21.514c-.115-.067-.237-.117-.353-.182-.178-.098-.363-.186-.544-.28a21 21 0 0 0-1.325-.638c-.162-.07-.33-.13-.495-.196-.485-.195-.972-.38-1.467-.538-.14-.045-.285-.08-.427-.122a21 21 0 0 0-1.602-.413c-.136-.028-.274-.048-.41-.074a21 21 0 0 0-1.66-.254c-.162-.018-.326-.025-.49-.04a21 21 0 0 0-1.587-.08c-.078 0-.153-.012-.232-.012-.164 0-.323.021-.486.025-.435.011-.87.028-1.305.066-.353.03-.7.075-1.048.122-.148.02-.296.046-.444.068a21 21 0 0 0 1.311-3.57c1.45-5.412.715-11.049-2.072-15.875l-.286-.496c-2.785-4.824-7.3-8.28-12.71-9.73-5.412-1.449-11.049-.713-15.873 2.072L46.108 64.305c-10.266 5.927-13.796 19.101-7.87 29.368a21 21 0 0 0 1.657 2.45H38.55c-11.695 0-21.211 9.515-21.211 21.21v1.456c0 11.695 9.515 21.211 21.211 21.211h46.303c11.695 0 21.211-9.516 21.211-21.211v-1.456c0-3.056-.663-5.956-1.831-8.583.27.186.548.36.827.535.205.128.396.27.607.393l37.264 21.513a21 21 0 0 0 10.536 2.836c1.85 0 3.716-.244 5.555-.736 5.485-1.47 10.062-4.973 12.884-9.863 2.824-4.89 3.57-10.605 2.1-16.09zM93.716 48.105c7.284 0 13.211 5.927 13.211 13.212S101 74.529 93.716 74.529s-13.212-5.927-13.212-13.212 5.927-13.212 13.212-13.212M50.108 71.233l22.659-13.082a21 21 0 0 0-.263 3.166c0 8.96 5.592 16.621 13.461 19.725L62.822 94.404c-2.974 1.716-6.457 2.169-9.802 1.27-3.348-.896-6.136-3.028-7.853-6.001-3.722-6.446-1.505-14.718 4.94-18.44zm46.177 13.088c-.082.234-.183.464-.256.699v.001q-.31.997-.519 2.01-.009.052-.018.106-.196.972-.299 1.951c-.01.097-.013.195-.021.292a21 21 0 0 0-.09 1.787c-.001.052-.009.102-.009.154 0 .137.018.27.02.406.011.495.03.988.076 1.48.025.285.065.567.101.85.05.381.104.76.175 1.139.064.346.142.686.223 1.027.076.316.153.631.243.944q.156.532.337 1.053.156.457.333.907c.105.264.22.523.335.782a21.08 21.08 0 0 0-12.064-3.787h-9.007zM39.277 132c-7.686 0-13.94-6.253-13.94-13.939s6.254-13.939 13.94-13.939 13.939 6.253 13.939 13.939S46.963 132 39.276 132zm58.786-13.211c0 7.284-5.927 13.211-13.211 13.211H56.206a21.84 21.84 0 0 0 5.01-13.939 21.83 21.83 0 0 0-5.008-13.936c.062 0 .124.006.187.006.091 0 .184-.008.275-.009h28.182c7.284 0 13.211 5.927 13.211 13.211zm11.271-16.254a13 13 0 0 1-.596-.386 13 13 0 0 1-.6-.45 11 11 0 0 1-.376-.3 13 13 0 0 1-.661-.601q-.125-.12-.247-.242a13 13 0 0 1-.641-.706q-.103-.12-.203-.242a13.3 13.3 0 0 1-1.77-2.887 13 13 0 0 1-.211-.492 13.5 13.5 0 0 1-.61-1.948 13 13 0 0 1-.106-.49 13 13 0 0 1-.136-.89q-.023-.173-.041-.345a13 13 0 0 1-.058-1.147q-.001-.06-.003-.122c.013-4.944 2.757-9.254 6.799-11.508q.104-.06.212-.118c.249-.133.506-.252.765-.369.175-.078.35-.157.53-.228.174-.07.353-.132.531-.195q.384-.136.78-.25.294-.083.594-.153c.158-.037.316-.077.475-.108q.505-.099 1.023-.157.162-.018.322-.032c.39-.034.781-.06 1.18-.06.155 0 .306.018.46.024.347.01.692.029 1.036.067.246.028.488.07.73.112a13 13 0 0 1 1.496.34c.272.08.54.176.806.274.246.09.493.178.732.283q.575.25 1.13.557c4.062 2.256 6.82 6.588 6.82 11.555 0 7.284-5.926 13.211-13.21 13.211-2.553 0-4.93-.739-6.952-1.997m55.643 16.893c-1.755 3.04-4.605 5.218-8.027 6.135s-6.98.456-10.02-1.3l-22.895-13.218c7.87-3.103 13.462-10.765 13.462-19.724 0-1.079-.107-2.13-.263-3.167l22.908 13.226c3.04 1.756 5.218 4.606 6.135 8.028s.455 6.98-1.3 10.02"/></svg>