<svg xmlns="http://www.w3.org/2000/svg" viewBox="0 0 192 192"><path d="m122.226 129.262-4.45-6.649A31.98 31.98 0 0 0 132 96c0-11.254-6.024-21.813-15.72-27.556l4.076-6.883C132.473 68.736 140 81.933 140 96a39.96 39.96 0 0 1-17.774 33.262m-48.001-6.649A31.98 31.98 0 0 1 60 96c0-11.132 5.65-21.296 15.114-27.188l-4.228-6.791C59.06 69.383 52 82.085 52 96a39.96 39.96 0 0 0 17.774 33.262zM164 96c0-22.609-11.564-43.098-30.935-54.807l-4.138 6.847C145.879 58.287 156 76.216 156 96c0 19.782-10.12 37.71-27.07 47.959l4.14 6.845C152.436 139.094 164 118.607 164 96M63.07 143.958C46.12 133.71 36 115.782 36 96c0-19.501 9.902-37.296 26.49-47.603l-4.223-6.795C39.315 53.378 28 73.714 28 96c0 22.607 11.563 43.095 30.93 54.804zM96 76.032c-11.028 0-19.968 8.94-19.968 19.968s8.94 19.968 19.968 19.968 19.968-8.94 19.968-19.968S107.028 76.032 96 76.032"/></svg>