<svg xmlns="http://www.w3.org/2000/svg" viewBox="0 0 192 192"><path d="M115.45 53.923c-5.098-11.862-12.479-22.969-22.15-32.64l5.657-5.658c9.62 9.62 17.137 20.559 22.552 32.24zm8.416 36.838c1.26 28.403-8.926 57.224-30.566 78.864l5.657 5.658c25.094-25.095 35.874-59.16 32.356-91.969zm38.477-72.418-144 144 11.314 11.314 144-144zm-62.301 50.988C95.916 56.177 88.664 44.12 78.637 34.093l-5.658 5.657c10.127 10.126 17.145 22.529 20.592 36.052l6.47-6.47zm-9.382 54.636c-3.901 10.011-9.854 19.205-17.68 27.03l5.657 5.658c12.318-12.319 20.468-27.693 23.748-44.413zm-23.055-22.199 8.362-8.362c-.543-14.68-6.505-28.405-16.949-38.85l-5.657 5.658c11.325 11.324 16.064 26.77 14.244 41.554"/></svg>