<svg xmlns="http://www.w3.org/2000/svg" viewBox="0 0 192 192"><path fill="#1a1a18" d="M149.85 108.454C129.02 97.585 108 73.44 108 44v-4H84V24h-8v16H47.937L48 44.062c.761 48.902 31.278 98.049 74.21 119.516l3.58 1.789 27.546-55.095zm-38.769-26.065-37.3 23.736A137 137 0 0 1 62.84 82.081l41.826-12.87a80.4 80.4 0 0 0 6.415 13.178M76 48v12h8V48h16.115a70.6 70.6 0 0 0 2.136 13.584L60.477 74.437C58.086 65.771 56.59 56.897 56.135 48zm1.984 64.933 37.54-23.889a92 92 0 0 0 10.348 11.785l-30.294 33.66c-6.553-6.502-12.464-13.753-17.594-21.556m44.26 41.634c-7.398-4.048-14.365-8.987-20.812-14.624l30.443-33.825c3.524 2.848 7.165 5.372 10.833 7.522z"/></svg>