<svg xmlns="http://www.w3.org/2000/svg" viewBox="0 0 192 192"><path d="m53.36 60.214 5.658-5.657C69.982 65.52 76.021 80.098 76.02 95.604c0 1.18-.047 2.353-.116 3.522l-9.681 9.68c4.557-16.765.279-35.452-12.862-48.592zm69.872-8.417c-5.497-13.158-13.584-25.48-24.275-36.172L93.3 21.283c10.758 10.758 18.682 23.292 23.78 36.666zM101.3 73.73c-3.806-14.867-11.528-28.502-22.663-39.637l-5.658 5.657C84.25 51.02 91.67 65.112 94.6 80.43zm67.87-56.56-152 152 5.658 5.658 152-152zm-75.773 98.402c-3.503 13.278-10.45 25.456-20.419 35.425l5.658 5.657c13.94-13.941 22.523-31.8 24.77-51.09zM123.5 85.469c2.851 30.082-7.215 61.17-30.201 84.155l5.657 5.658c26.374-26.374 36.938-62.658 31.707-96.976L123.5 85.47z"/></svg>