<svg xmlns="http://www.w3.org/2000/svg" viewBox="0 0 192 192"><path fill="#010101" d="M176 176h-8c0-58.705-33.456-109.739-82.3-135.05L38.236 163.001A7.96 7.96 0 0 1 40 168c0 4.411-3.589 8-8 8s-8-3.589-8-8c0-3.995 2.947-7.306 6.78-7.897l47.7-122.661C59.412 28.809 38.257 24 16 24v-8c23.279 0 45.41 5.002 65.383 13.98l2.889-7.43 7.456 2.9-3.111 8C140.44 59.957 176 113.903 176 176m-95.294-20.852c0 13.339-5.77 20.852-15.952 20.852-3.865 0-7.187-1.09-9.69-3.212-1.362-1.09-2.178-2.233-3.322-4.356l6.696-3.43c1.416 3.104 3.05 4.301 6.098 4.301 5.172 0 7.514-3.865 7.786-13.011-1.906 3.103-4.9 4.736-8.711 4.736-6.969 0-11.706-4.736-11.706-11.65 0-8.058 5.662-13.502 13.938-13.502 9.582 0 14.863 6.859 14.863 19.272m-9.038-6.533c0-3.593-2.45-6.206-5.77-6.206-3.43 0-5.826 2.613-5.826 6.315 0 3.538 2.45 6.152 5.825 6.152s5.771-2.614 5.771-6.261m42.524 7.296c0 5.607-1.306 10.561-3.702 14.318-2.34 3.702-6.315 5.77-10.888 5.77-9.092 0-14.7-7.73-14.7-20.306 0-5.281 1.36-10.508 3.702-14.047 2.396-3.702 6.315-5.77 10.943-5.77 8.983 0 14.645 7.785 14.645 20.035m-8.765.054c0-8.547-2.123-13.393-5.825-13.393-3.811 0-5.935 4.791-5.935 13.557 0 8.275 2.178 13.174 5.88 13.174 3.757 0 5.88-4.845 5.88-13.338M130.213 20.31l4.482 13.2h2.89l4.457-13.176V33.51h3.845V16h-5.608l-3.967 12-3.968-12h-5.633v17.51h3.502zm26.272 5.436v-.343c0-1.42-.612-2.008-2.057-2.008-1.224 0-2.326.368-3.624 1.249l-1.592-2.4c1.665-1.298 3.404-1.861 5.755-1.861 2.008 0 3.404.514 4.31 1.592.71.857.98 1.837.98 3.502v5.804c0 .833.122 1.494.343 2.082v.147h-3.625c-.122-.319-.245-.882-.343-1.519-.906 1.2-2.081 1.788-3.649 1.788-2.424 0-3.992-1.42-3.992-3.624 0-2.94 2.4-4.36 7.494-4.409m-3.82 4.066c0 .808.563 1.298 1.518 1.298 1.396 0 2.327-.808 2.327-1.984V28c-2.694.05-3.845.588-3.845 1.813zM166.4 33.51l2.645-4.115 2.571 4.115H176l-4.604-6.833 4.163-5.976h-3.87l-2.277 3.65-2.278-3.65h-4.31l4.163 6.27-4.457 6.539zm-19.783 16.254c1.763 0 3.012.71 3.87 2.204V44.45h3.747v18.442h-3.747v-2.033c-.833 1.518-2.131 2.302-3.87 2.302-3.208 0-5.24-2.596-5.24-6.686s2.057-6.71 5.24-6.71zm-1.42 6.735c0 2.473.882 3.747 2.645 3.747s2.767-1.347 2.767-3.747c0-2.45-1.028-3.82-2.816-3.82-1.666 0-2.596 1.37-2.596 3.82m24.217-2.719c2.228.76 3.134 1.984 3.134 4.188 0 3.208-2.13 4.923-6.122 4.923h-8.18V45.38h7.91c3.723 0 5.731 1.617 5.731 4.629 0 1.886-.686 2.939-2.473 3.771m-7.323-1.322h3.845c1.47 0 2.155-.662 2.155-2.058s-.735-2.032-2.326-2.032h-3.674zm6.588 5.094c0-1.494-.931-2.303-2.694-2.303h-3.894v4.654h4.04c1.642 0 2.548-.833 2.548-2.351"/></svg>