<svg xmlns="http://www.w3.org/2000/svg" viewBox="0 0 192 192"><path d="M44 146.96c13.2 13.56 31.66 21.03 52 21.03v8c-45.59 0-79.98-34.38-80-79.96-.01-23.79 10.5-44.85 29.77-60.01l-13.8.01v-8l28-.01.01 28h-8l-.01-14.68C33.88 55.03 23.99 74.27 24 96.02c.01 19.6 7.11 37.69 20 50.94m102.23 9.03c19.27-15.16 29.78-36.22 29.77-60.01-.02-45.59-34.41-79.96-80-79.96v8c20.34 0 38.81 7.47 52 21.03 12.89 13.25 19.99 31.33 20 50.93.01 21.75-9.88 40.99-27.97 54.69l-.01-14.68h-8l.01 28 28-.01v-8zm-3.18-101.87-6.58-6.57-5.65 5.65 6.57 6.58a2.97 2.97 0 0 1 0 4.2l-2.1 2.11-18.3-18.3-23.47 23.47-3.92-3.92-16.11 16.11 3.92 3.92-13.73 13.73 3.76 3.75-20.58 20.59 5.39 5.39-5.34 5.34 5.65 5.66 5.35-5.34 5.39 5.39 20.58-20.59 3.76 3.76 13.73-13.72 3.92 3.92 16.11-16.12-3.92-3.92 20.64-20.64 4.93-4.93c4.28-4.28 4.28-11.24 0-15.52M63.3 130.57l-5.13-5.13 14.93-14.93 5.13 5.13zm24.34-16.83L75 101.1l8.07-8.07 12.64 12.64zm17.65-9.81-1.1-1.09-18.3-18.3-1.09-1.09 4.8-4.8 1.09 1.09 19.4 19.39zm6.53-14.37L99.18 76.91l17.81-17.81 12.65 12.64z"/></svg>