<svg xmlns="http://www.w3.org/2000/svg" viewBox="0 0 192 192"><path d="M16 60h16v95.123l20 5 20-5V60h16V32H16zm24-8V40h24v12zm0 65.123 24 6v7.754l-24-6zm0-8.246v-7.754l24 6v7.754zm24-10-24-6v-7.754l24 6zm-12 53-12-3v-15.754l24 6v9.754zm12-69-24-6V60h24zM80 52h-8V40h8zM24 40h8v12h-8zm116 13.283-36 22.5v40.434l36 22.5 36-22.5V75.783zm28 58.5-28 17.5-28-17.5V80.217l28-17.5 28 17.5zM120 96c0 11.028 8.972 20 20 20s20-8.972 20-20-8.972-20-20-20-20 8.972-20 20m32 0c0 6.617-5.383 12-12 12s-12-5.383-12-12 5.383-12 12-12 12 5.383 12 12"/></svg>