<svg xmlns="http://www.w3.org/2000/svg" viewBox="0 0 192 192"><path d="M72 128h8v8h-8zm44-4h-8v8h8zm0 32h8v-8h-8zm4-116h-8v8h8zM84 52H72v12h12zm-4 64h12v-12H80zm36-36h-12v12h12zm60 0v24h-8v24h-4v32h-10v8h-8v-8h-10v-32h-4v-24h-8V80h8V40h28v-4c0-2.206-1.794-4-4-4h-12v-8h12c6.617 0 12 5.383 12 12v44zm-36 0h20V48h-20zm16 48h-12v24h12zm4-24h-20v16h20zm8-16h-36v8h36zM60 80h8v24h-8v24h-4v32H46v8h-8v-8H28v-32h-4v-24h-8V80h8V40h28v-4c0-2.206-1.794-4-4-4H36v-8h12c6.617 0 12 5.383 12 12zm-28 0h20V48H32zm16 48H36v24h12zm4-24H32v16h20zm8-16H24v8h36z"/></svg>