<svg xmlns="http://www.w3.org/2000/svg" viewBox="0 0 192 192"><path d="M176 132v4h-24v-2c0-31.31-24.943-56.89-56-57.95v-8.002c33.46 1.003 60.731 27.018 63.715 59.952h8.175C165.807 90.153 134.358 60 96 60s-69.807 30.153-71.89 68H40v8H16v-4c0-44.112 35.888-80 80-80s80 35.888 80 80m-38.216-17.81 2.432 7.62-32.22 10.281a11.9 11.9 0 0 1-1.335 5.373c-2.13 4.109-6.335 6.47-10.683 6.47-1.85 0-3.724-.427-5.477-1.328a11.9 11.9 0 0 1-5.936-7.008 11.86 11.86 0 0 1 .774-9.125c3.036-5.857 10.286-8.163 16.16-5.142a11.95 11.95 0 0 1 3.891 3.194l32.394-10.336zm-37.97 16.58a3.95 3.95 0 0 0-1.974-2.325c-1.963-1.01-4.386-.244-5.397 1.708a3.91 3.91 0 0 0-.256 3.013 3.95 3.95 0 0 0 1.973 2.325c1.962 1.01 4.384.244 5.398-1.708a3.92 3.92 0 0 0 .255-3.012z"/></svg>