<svg xmlns="http://www.w3.org/2000/svg" viewBox="0 0 192 192"><path d="m106.327 97.15 7.488 2.814-14.07 37.443-.012-.004A3.99 3.99 0 0 1 96 140a4 4 0 0 1-4-4c0-.496.102-.965.267-1.403l-.011-.004zm28.98 4.806A51.97 51.97 0 0 1 148 136h8a59.98 59.98 0 0 0-14.647-39.284l-6.045 5.24zm-35.59-17.825c11.268.795 21.747 5.132 30.305 12.542l5.236-6.048c-9.876-8.552-21.97-13.557-34.977-14.475zm-8.02-7.979c-12.983.92-25.059 5.916-34.923 14.445l5.233 6.051c8.547-7.39 19.01-11.718 30.257-12.516zM36 136h8a51.97 51.97 0 0 1 12.72-34.076l-6.041-5.245A59.98 59.98 0 0 0 36 136m60-80c-44.112 0-80 35.888-80 80h8c0-39.701 32.299-72 72-72s72 32.299 72 72h8c0-44.112-35.888-80-80-80"/></svg>