<svg xmlns="http://www.w3.org/2000/svg" viewBox="0 0 192 192"><path d="M96.034 16C51.94 16 16.067 51.888 16.067 96s35.873 80 79.967 80S176 140.112 176 96s-35.873-80-79.966-80m61.541 42.71-98.844 98.843c-2.3-1.4-4.504-2.94-6.626-4.581L152.999 52.077a72 72 0 0 1 4.576 6.632zm-9.822-12.7L46.043 147.72a73 73 0 0 1-5.499-5.92L141.836 40.506a73 73 0 0 1 5.917 5.503zM35.76 135.27a72 72 0 0 1-4.127-7.188l96.498-96.497a72 72 0 0 1 7.182 4.131zM96.034 24a71.6 71.6 0 0 1 24.176 4.192l-91.964 91.964A71.7 71.7 0 0 1 24.066 96c0-39.701 32.285-72 71.968-72m0 144a71.5 71.5 0 0 1-29.901-6.535l95.35-95.35A71.6 71.6 0 0 1 168 96c0 39.701-32.284 72-71.966 72"/></svg>