<svg xmlns="http://www.w3.org/2000/svg" viewBox="0 0 192 192"><path d="M176 168h-8c0-39.701-32.299-72-72-72s-72 32.299-72 72h-8c0-44.112 35.888-80 80-80s80 35.888 80 80m-80-8H56v8h40a4 4 0 0 0 0-8m45.353-31.284-6.045 5.24A51.97 51.97 0 0 1 148 168h8a59.98 59.98 0 0 0-14.647-39.284m-6.095-6.091c-9.876-8.552-21.971-13.557-34.978-14.475l-.563 7.98c11.268.795 21.747 5.132 30.305 12.542zm-42.994-6.493-.566-7.979c-12.983.92-25.059 5.916-34.923 14.444l5.232 6.052c8.547-7.391 19.01-11.719 30.257-12.517M56.72 133.924l-6.041-5.245A59.98 59.98 0 0 0 36 168h8a51.97 51.97 0 0 1 12.72-34.076m14.655-78.871-6.857 14.704L51.37 33.632l-7.518 2.736L57 72.492l-14.703-6.856-3.381 7.25 27.08 12.628 12.628-27.081-7.25-3.381Z"/></svg>