<svg xmlns="http://www.w3.org/2000/svg" viewBox="0 0 192 192"><path d="M70.7 86.9c-6.6 0-11.8 2.8-15.5 8.4 1-16.4 5.9-24.7 14.9-24.7 2.6 0 4.7.6 6.2 1.9 1.6 1.3 3.1 3.5 4.5 6.8l8-3.3c-3.6-8.7-9.7-13-18.5-13-7.1 0-12.8 2.8-17.2 8.3q-7.5 9.45-7.5 27c0 9.3 1.8 16.5 5.3 21.4 4.5 6.3 10.6 9.4 18.3 9.4 6.1 0 11.1-1.7 15-5.2 4.5-4 6.8-9.4 6.8-16.3 0-5.6-1.7-10.3-5-14.1q-5.7-6.6-15.3-6.6m7.7 30.3c-2.2 2.8-5.3 4.1-9.2 4.1-3.5 0-6.5-1.1-8.8-3.3-2.7-2.6-4-6-4-10.2 0-3.6 1-6.6 3.1-9 2.3-2.7 5.5-4.1 9.4-4.1 3.6 0 6.5 1 8.7 3.1 2.5 2.4 3.8 5.8 3.8 10.1-.1 3.8-1.1 6.8-3 9.3M123.2 63c-6.4 0-11.7 2.6-15.9 7.9-4.8 6-7.2 14.3-7.2 24.8 0 9.6 1.8 17.3 5.4 23.2 4.2 6.8 10.2 10.2 17.8 10.2 6.5 0 11.8-2.6 15.9-7.9 4.7-6.1 7.1-14.5 7.1-25.2 0-9.3-1.8-17-5.5-22.9-4.2-6.8-10.1-10.1-17.6-10.1m10.2 50.7c-2.4 5.1-5.8 7.6-10.2 7.6-3.8 0-6.9-2-9.2-5.9-2.7-4.5-4.1-10.9-4.1-19.1 0-7.5 1-13.5 3.1-18 2.4-5.1 5.8-7.6 10.4-7.6 3.8 0 6.8 2 9.1 6 2.7 4.5 4 11 4 19.4 0 7.3-1 13.1-3.1 17.6M96 16c-44.2 0-80 35.8-80 80s35.8 80 80 80 80-35.8 80-80-35.8-80-80-80m0 152c-39.7 0-72-32.3-72-72s32.3-72 72-72 72 32.3 72 72-32.3 72-72 72"/></svg>