<svg xmlns="http://www.w3.org/2000/svg" viewBox="0 0 192 192"><path d="M169.235 57.852c-17.951-17.006-42.456-25.667-72.833-25.769v-.01h-.27q-.067.002-.132.003l-.132-.002h-.27v.01c-30.375.1-54.883 8.763-72.833 25.768-7.623 7.22-8.2 9.083-5.621 18.118.79 2.77 1.5 5.42 2.185 7.981 1.128 4.218 2.295 8.58 3.875 13.672l.39 1.27c2.35 7.684 4.569 14.943 17.834 17.995l.531.099 2.041.359V136h24v-16.608c1.608-.344 3.333-.845 5.505-1.503 4.049-1.227 7.12-3.149 10.09-5.007 3.848-2.409 7.21-4.483 12.405-4.85 5.196.367 8.557 2.441 12.406 4.85 2.97 1.858 6.04 3.78 10.09 5.007 2.172.658 3.896 1.159 5.504 1.503V136h24v-18.654l2.04-.36.532-.098c13.265-3.052 15.485-10.31 17.834-17.995l.39-1.27c1.58-5.093 2.746-9.454 3.875-13.672.685-2.561 1.394-5.21 2.185-7.98 2.58-9.036 2.002-10.9-5.62-18.12zM96 99.97c-23.635-2.76-45.05-6.858-48.116-9.219-2.329-2.715-7.023-19.367-10.415-34.542C48.571 48.514 61.86 43.556 77.2 41.375 81.423 45.515 88.286 48 95.946 48c7.564 0 14.519-2.534 18.746-6.64 15.386 2.175 28.712 7.137 39.838 14.85-3.391 15.174-8.085 31.827-10.414 34.541-3.065 2.36-24.48 6.459-48.116 9.22zM60 128h-8v-8h8zm11.186-17.767c-7.88 2.386-7.877 2.386-27.84-1.125l-.223-.04c-8.669-2.017-9.678-5.317-11.879-12.515l-.4-1.3c-1.532-4.942-2.678-9.227-3.787-13.37-.694-2.593-1.411-5.275-2.22-8.109-.683-2.39-1.272-4.453-1.052-5.169.303-.988 2.62-3.182 4.482-4.946.727-.69 1.483-1.345 2.235-2.004 2.662 11.488 7.47 30.132 11.543 34.568 1.361 1.482 3.895 4.242 29.783 8.439 2.69.436 5.359.842 7.888 1.21l-.366.229c-2.641 1.653-5.137 3.214-8.164 4.132M140 128h-8v-8h8zm27.164-54.225c-.81 2.833-1.527 5.515-2.221 8.108-1.109 4.143-2.255 8.428-3.788 13.37l-.4 1.3c-2.2 7.198-3.21 10.498-11.878 12.516l-.223.039c-19.963 3.512-19.963 3.512-27.84 1.125-3.027-.918-5.523-2.48-8.164-4.132l-.366-.229a501 501 0 0 0 7.888-1.21c25.888-4.197 28.422-6.957 29.783-8.439 4.073-4.436 8.881-23.08 11.543-34.568.752.66 1.508 1.315 2.235 2.004 1.862 1.764 4.179 3.958 4.482 4.946.22.716-.37 2.78-1.051 5.17M128 88.055h-8C120 74.791 109.233 64 96 64S72 74.791 72 88.055h-8C64 70.38 78.355 56 96 56s32 14.38 32 32.055m-22-9.128-6.767 7.449A3.97 3.97 0 0 1 96 88.056c-2.209 0-4-1.81-4-4.04a4.04 4.04 0 0 1 1.212-2.89l-.01-.008 6.877-7.57z"/></svg>