<svg xmlns="http://www.w3.org/2000/svg" viewBox="0 0 192 192"><path d="M166.11 120.34c-1.98-3.34-6.01-5.83-10.92-6.93l17.34-21.67-18.57.56-28.59-28.58-29.97 4.99 4.2 25.24-72.45 2.2 3.89 19.41c-2.24 1.25-4.02 2.88-5.15 4.78-1.05 1.78-4.87 3.66-9.89 3.66v8c7.46 0 14.05-2.98 16.77-7.58 1.06-1.77 4.88-3.66 9.9-3.66 5.01 0 8.84 1.89 9.89 3.66 2.73 4.6 9.31 7.58 16.77 7.58s14.05-2.98 16.78-7.58c1.05-1.77 4.87-3.66 9.89-3.66s8.84 1.89 9.89 3.66c2.73 4.6 9.32 7.58 16.78 7.58s14.04-2.98 16.77-7.58c1.05-1.77 4.88-3.66 9.89-3.66 5.02 0 8.85 1.89 9.9 3.66 2.73 4.6 9.31 7.58 16.77 7.58v-8c-5.02 0-8.84-1.89-9.89-3.66M104.6 75.29l18.03-3.01 20.35 20.36-35.3 1.07zm27.96 45.05c-1.05 1.77-4.88 3.66-9.89 3.66-5.02 0-8.84-1.89-9.89-3.66-2.73-4.6-9.32-7.58-16.78-7.58s-14.04 2.98-16.77 7.58c-1.05 1.77-4.88 3.66-9.9 3.66-5.01 0-8.84-1.88-9.89-3.66-2.73-4.6-9.31-7.58-16.77-7.58-1.36 0-2.7.1-3.98.29l-1.84-9.2 118.62-3.59-10.24 12.8c-5.7.88-10.45 3.55-12.67 7.28"/></svg>