<svg xmlns="http://www.w3.org/2000/svg" viewBox="0 0 192 192"><path d="M140.216 108.352c-.033 3.576-2.819 6.374-6.344 6.374-1.5 0-2.586-.59-3.543-1.109l-.396-.213c-19.869-11.762-47.93-15.219-71.511-8.816-.377.103-.708.204-1.016.299-.873.27-1.628.502-2.7.502a6.35 6.35 0 0 1-6.344-6.344c0-3.467 1.74-5.79 5.033-6.718 7.618-2.138 16.477-4.115 29.597-4.115 19.62 0 38.647 4.893 53.575 13.777 2.522 1.494 3.648 3.457 3.648 6.363Zm6.348-31.339c-15.765-9.194-38.408-14.467-62.126-14.467-13.152 0-25.108 1.547-35.534 4.598-2.709.783-5.604 3.211-5.604 7.681 0 4.267 3.303 7.609 7.52 7.609 1.276 0 2.488-.355 3.462-.641l.559-.161c26.046-7.27 63.831-3.28 84.233 8.897 1.426.824 2.456 1.242 4.136 1.242 4.13 0 7.489-3.373 7.489-7.519 0-3.356-1.275-5.59-4.135-7.24Zm-18.882 46.936c-19.289-11.537-43.431-14.211-71.755-7.953-2.896.619-4.492 2.59-4.492 5.55 0 2.586 1.968 5.26 5.26 5.26.754 0 1.859-.3 2.928-.59.271-.074.534-.146.758-.203 24.984-5.123 45.234-2.728 61.911 7.321 1.182.696 2.062 1.153 3.478 1.153 2.848 0 5.078-2.257 5.078-5.139 0-3.123-1.428-4.289-3.165-5.399ZM176 96c0 44.183-35.817 80-80 80s-80-35.817-80-80 35.817-80 80-80 80 35.817 80 80m-8 0c0-39.701-32.299-72-72-72S24 56.299 24 96s32.299 72 72 72 72-32.299 72-72"/></svg>