<svg xmlns="http://www.w3.org/2000/svg" viewBox="0 0 192 192"><path d="M168.42 107.16c4.44-1.77 7.58-6.1 7.58-11.16 0-6.62-5.38-12-12-12H92.66l75.36-28.7.1-.03.49-.19C172.95 53.27 176 48.99 176 44c0-6.62-5.38-12-12-12H16v24h82.84L24.59 84.5l-.004.002a12 12 0 0 0-1.573.597l-.213.081-.01.01-.22.08.01.02.006.015C18.685 87.288 16 91.332 16 96c0 6.617 5.383 12 12 12h70.82l-74.23 28.5-.004.002a12 12 0 0 0-1.573.597l-.213.081-.01.01-.22.08.01.02.006.015C18.685 139.288 16 143.332 16 148c0 6.617 5.383 12 12 12h148v-24H92.67l75.45-28.73c.1-.03.2-.07.3-.11M24 48v-8h140c2.21 0 4 1.79 4 4 0 1.66-1.01 3.08-2.45 3.68-.12.06-.25.11-.38.15-.01 0-.03.01-.04.01-.36.1-.73.16-1.13.16zm97.14 8h22.56L70.17 84H48.18zm-70.5 44H28c-2.206 0-4-1.794-4-4 0-1.575.923-2.927 2.25-3.58l.576-.224A4 4 0 0 1 28 92h136c2.21 0 4 1.79 4 4s-1.79 4-4 4zM168 144v8H28c-2.206 0-4-1.794-4-4 0-1.575.923-2.927 2.25-3.58l.576-.224A4 4 0 0 1 28 144zm-97.83-8H48.18l72.96-28h22.58z"/></svg>