<svg xmlns="http://www.w3.org/2000/svg" viewBox="0 0 192 192"><path d="M100 48h-8V16h8zm0 96h-8v32h8zm76-52h-32v8h32zM48 92H16v8h32zm107.397-49.74-5.657-5.657-22.628 22.627 5.658 5.658zm-90.51 90.51-5.657-5.658-22.627 22.628 5.657 5.657zm0-73.54L42.26 36.603l-5.657 5.657L59.23 64.888zm93.942 79.599-5.658-5.658L140 146.343l-5.171-5.172-5.658 5.658L140 157.657zM176 144c0-17.645-14.355-32-32-32s-32 14.355-32 32 14.355 32 32 32 32-14.355 32-32m-8 0c0 13.234-10.766 24-24 24s-24-10.766-24-24 10.766-24 24-24 24 10.766 24 24m-59.44-18.543A31.8 31.8 0 0 1 96 128.021c-17.545 0-31.857-14.274-31.904-31.818v-.214c-.023-8.538 3.285-16.57 9.314-22.614C79.44 67.329 87.462 64 96 64c17.545 0 31.857 14.274 31.904 31.818v.214a31.8 31.8 0 0 1-2.533 12.572 39.7 39.7 0 0 1 9.524-3.55 40.2 40.2 0 0 0 1.01-9.042l-.001-.214C135.846 73.854 117.944 56 96 56c-10.68 0-20.713 4.164-28.254 11.725S56.067 85.332 56.096 96.01v.214c.058 21.944 17.96 39.798 39.904 39.798 3.08 0 6.103-.357 9.032-1.031a39.7 39.7 0 0 1 3.528-9.533z"/></svg>