<svg xmlns="http://www.w3.org/2000/svg" viewBox="0 0 192 192"><path d="m39.978 152 112.024.003.02-112.003H39.978zm8-104h96.043l-.017 96.003L47.978 144zm128.021 96.002-.002 8-16.003-.005.002-8 4.004.001V48.001h-4.004l-.001-8L175.997 40v8H172v96zM144 159.997h8V176h-8v-4H48v3.997h-8v-15.993h8V164h96zM89.552 89.018l-4.494-7.552-4.537 7.552h-5.053l7.092-10.825L76 68h5.585l3.905 6.705L89.379 68h5.025L88.06 78.05l7.106 10.968zm21.262 0-5.585-8.643-2.024 2.47v6.173h-4.71V68h4.71v9.06l7.15-9.06h5.225l-7.236 8.9 7.739 12.118zm-33.853 7.036h4.523v12.768q0 4.609-2.53 6.878-2.212 1.977-6.166 1.977-4.552 0-6.79-2.545-1.963-2.225-1.963-6.18V96.055h4.77v12.651q-.001 2.865 1.09 4.057.945 1.047 2.922 1.047 2.313 0 3.287-1.44.858-1.264.857-3.838zm22.423 0h4.77v21.289h-4.77v-8.812h-8.085v8.812h-4.77V96.054h4.77v8.638h8.085zm17.9 0h-7.896v21.289h7.75q4.785 0 7.577-2.443 3.2-2.822 3.2-8.274 0-4.683-2.444-7.43-2.791-3.141-8.187-3.142m4.421 15.501q-1.425 2.007-4.333 2.007h-3.214V99.835h3.184q2.545 0 3.97 1.541 1.629 1.746 1.629 5.308 0 3.127-1.236 4.871"/></svg>