<svg xmlns="http://www.w3.org/2000/svg" viewBox="0 0 192 192"><path d="M116.702 159.67v-4.2h2.67v-3.57h-2.67v-13.919h-5.04l-9.69 13.74v3.75h10.35v4.199zm-10.53-7.77 6.36-9.27v9.27zm25.68.66c0-2.28-1.29-3.69-3.33-3.69-1.41 0-2.4.57-3.06 1.8h-3.96l1.35-12.45h12.45v3.69h-9.06l-.6 5.19c.96-1.08 2.4-1.62 4.2-1.62 4.11 0 6.72 2.76 6.72 7.02 0 4.62-3.06 7.5-7.95 7.5-2.64 0-4.8-.78-6.3-2.25-.87-.87-1.2-1.41-1.65-2.73l-.12-.3 4.35-1.2c.57 1.89 1.68 2.79 3.51 2.79 2.16 0 3.45-1.41 3.45-3.75m7.83-9.21c0 3.06 2.31 5.34 5.43 5.34s5.46-2.31 5.46-5.46c0-3.03-2.31-5.34-5.37-5.34-3.21 0-5.52 2.31-5.52 5.46m7.65-.03c0 1.71-.84 2.76-2.19 2.76-1.38 0-2.22-1.08-2.22-2.85 0-1.68.84-2.73 2.19-2.73s2.22 1.11 2.22 2.82M176 168v8H15.848v-8zm-34.344-79.875L80 26.47 18.344 88.125 80 149.782zM80 37.783l50.343 50.342L80 138.468 29.658 88.125zm58.121 64.1 19.506-7.699 2.937 7.441-7.109 2.806c10.385 5.614 17.474 13.46 20.631 22.921 3.263 9.774 2.34 21.043-2.671 32.587l-7.34-3.185c4.03-9.284 10.235-31.296-13.337-44.693l2.522 6.391-7.441 2.937z"/></svg>