<svg xmlns="http://www.w3.org/2000/svg" viewBox="0 0 192 192"><path d="M120.005 119.99v-7.07c2.46-2.19 4-5.38 4-8.93V91.34l-.21-.61c-.2-.6-5.17-14.74-27.79-14.74s-27.6 14.14-27.8 14.74l-.2.61v12.65c0 3.55 1.54 6.74 4 8.93v7.07h-56v56h160v-56zm-96 8h48v16h-48zm144 40h-144v-16h56v-44c-2.21 0-4-1.79-4-4V92.81c.95-1.85 5.49-8.82 20-8.82 14.59 0 19.06 6.94 20 8.81v11.19c0 2.21-1.8 4-4 4v44h56zm-48-24v-16h48v16zm11.433-59.993c-1.578 0-3.062-.835-3.912-2.283-3.009-5.125-11.105-13.72-31.523-13.72-21.363 0-29.034 9.541-31.341 13.643a4.616 4.616 0 0 1-5.205 2.204 4.63 4.63 0 0 1-3.454-4.493V15.994h8v54.099c5.782-5.042 15.656-10.099 32-10.099 16.123 0 26.021 4.832 32 10.014V15.994h8v63.372c0 2.093-1.384 3.932-3.365 4.471a4.6 4.6 0 0 1-1.199.161ZM64.003 79.34v.02zm95-39.346h16l-24 32 8-24h-16l24-32z"/></svg>