<svg xmlns="http://www.w3.org/2000/svg" viewBox="0 0 192 192"><path d="M56 16h8v54.099c15.533-13.546 48.426-13.584 64-.084V16h8c0 64.43 1.867 68.003-4.563 68.003C124.87 84.003 126.055 68 96 68c-32.249 0-28.324 18.012-36.549 15.845C54.589 82.563 56 82.506 56 15.999Zm120 104v56H16v-56h56v-7.081c-2.448-2.198-4-5.377-4-8.919 0-13.243-.089-12.382.205-13.265 6.577-19.666 49.013-19.666 55.59 0 .292.879.205.011.205 13.265 0 3.542-1.552 6.72-4 8.919V120zM24 144h48v-16H24zm144 8h-56v-44c5.259 0 4-6.048 4-15.19-5.916-11.784-33.922-11.871-40 .008C76 100.053 74.408 108 80 108v44H24v16h144zm0-24h-48v16h48z"/></svg>