<svg xmlns="http://www.w3.org/2000/svg" viewBox="0 0 192 192"><path d="M168.117 112h-16.234c-4.347 0-7.883 3.536-7.883 7.883V136h-36v-16h-8V79.71c13.55-1.947 24-13.629 24-27.71 0-15.44-12.56-28-28-28S68 36.56 68 52c0 14.081 10.45 25.763 24 27.71V120h-8v16H48v-16.117c0-4.347-3.536-7.883-7.883-7.883H23.883c-4.347 0-7.883 3.536-7.883 7.883v40.234c0 4.347 3.536 7.883 7.883 7.883h16.234c4.347 0 7.883-3.536 7.883-7.883V144h96v16.117c0 4.347 3.536 7.883 7.883 7.883h16.234c4.347 0 7.883-3.536 7.883-7.883v-40.234c0-4.347-3.536-7.883-7.883-7.883M100 71.597V52.092c5.969.266 11.474 1.123 15.818 2.462-1.09 8.5-7.519 15.351-15.818 17.043M96 32c8.967 0 16.573 5.932 19.104 14.077C109.546 44.738 102.904 44 96 44c-6.887 0-13.54.74-19.105 2.08C79.425 37.933 87.032 32 96 32M76.182 54.553c4.348-1.337 9.865-2.194 15.818-2.46v19.504c-8.3-1.692-14.728-8.544-15.818-17.044M40 160H24v-40h16zm52-24v-8h8v8zm76 24h-16v-40h16z"/></svg>