<svg xmlns="http://www.w3.org/2000/svg" viewBox="0 0 192 192"><path d="M175.938 116.76c-7.9-5.73-7.954-7.61-7.99-8.63-.105-2.987.559-30.581-2.1-38.25-2.298-6.627-3.98-10.8-9.23-13.34h-.01a70 70 0 0 0-8.56-10.47c15.21 2.08 20.614 7.496 25.36 21.19 1.808 5.218 2.439 15.92 2.53 27.26zM95.886 64c-4.81 0-9.48.18-14.02.54 1.67 2.26 2.84 4.91 3.44 7.78 3.44-.21 6.97-.32 10.58-.32 3.78 0 7.37.09 10.81.29.6-2.87 1.77-5.51 3.46-7.77-4.53-.35-9.27-.52-14.27-.52m12.11 32c0 6.62-5.38 12-12 12s-12-5.38-12-12 5.39-12 12-12 12 5.38 12 12m-8 0c0-2.21-1.79-4-4-4s-4 1.79-4 4 1.8 4 4 4 4-1.79 4-4m8 0c0 6.62-5.38 12-12 12s-12-5.38-12-12 5.39-12 12-12 12 5.38 12 12m-8 0c0-2.21-1.79-4-4-4s-4 1.79-4 4 1.8 4 4 4 4-1.79 4-4m76-1.48L18.566 67.18c-1.917 5.502-2.485 16.96-2.57 28.87v20.71c7.91-5.73 7.964-7.61 8-8.63.093-2.636-.598-30.506 2.12-38.33 2.288-6.587 3.97-10.75 9.23-13.28 2.47-3.7 5.33-7.2 8.55-10.45-15.21 2.07-20.583 7.484-25.33 21.11Zm0 39.57v8.4c-11.033-3.401-19.878-9.246-24.96-13.87-11.16 18.78-31.66 31.38-55.04 31.38s-43.86-12.6-55.03-31.36c-.225.201-9.784 9.18-24.97 13.85v-8.39c5.57-1.884 10.766-4.846 14.77-7.63 3.674-2.554 4.175-3.178 13.87-12.06 5.067-5.376 5.559-5.284 15.07-15.97 2.236-2.512 8.324-15.952 9.99-19.88l.06-.12c.779-1.662.337-4.248-1.93-5.32-.967-.457-2.048-.486-3.06-.12s-1.81 1.1-2.26 2.06c-7.939 17.002-8.72 19.299-12.85 21.69-.547.317-2.857 1.59-5.97 1.59-5.322 0-8.915-3.321-10.52-6.265-1.998-3.719-1.694-7.73-.43-10.585.01-.04.03-.08.04-.12 7.791-22.942 18.777-31.831 24.16-35.86 8.608-6.442 18.91-10.9 29.81-12.86h.02c3.01-.43 6.08-.65 9.18-.65h.06c3.48 0 6.88.29 10.21.83h.01c22.362 4.328 35.664 17.897 38.66 21.94 0 0 .01.01.01.02 9.879 11.699 14.237 26.272 14.37 26.7 2.663 7.685-.713 13.323-5.9 15.73-5.115 2.373-9.555.379-11.02-.47-4.186-2.424-5.083-5.028-12.85-21.69-.93-2-3.322-2.875-5.32-1.94s-2.858 3.34-1.93 5.32l.05.12c2.23 5.231 7.728 17.353 9.99 19.88 23.075 25.774 32.788 31.982 43.71 35.65m-31-11.01-3.36-3.08c-.84-.9-3.552-3.659-4.03-4.14-4.004-4.029-4.747-4.82-11.28-12.09-3.631-4.04-9.993-18.94-11.36-22.02-1.247-2.809-1.431-5.917-.45-8.83l.09-.27c1.053-3.033 3.3-5.43 6.19-6.78.1-.04.17-.09.27-.13h.02c4.78-2.08 10.24-.78 13.62 2.89l.01.01c.81.88 1.5 1.89 2.03 3.03l5.43 11.66c.02.02.03.05.05.08l2.44 4.63c.9 1.9 3.085 2.738 5.04 2.04.089-.032.19-.069.28-.11a3.9 3.9 0 0 0 1.53-1.27c.219-.301.399-.63.53-.99.618-1.699-.052-2.766-.42-3.85a67 67 0 0 0-1.13-3.06c-.088-.221-.174-.449-.27-.69-3.46-8.661-16.847-40.092-54.23-40.11h-.05c-14.93 0-28.97 5.82-39.54 16.39a56 56 0 0 0-8.91 11.57l-.01-.01c-.02.04-.05.08-.07.12-2.06 3.38-3.819 7.626-4.39 8.97-1.693 3.989-2.492 6.466-2.95 7.61-1.294 2.793.886 4.842 1.94 5.32 2.59 1.174 4.673-.569 5.31-1.93l2.44-4.63c.02-.03.03-.06.05-.08l5.44-11.65a11.9 11.9 0 0 1 2.06-3.07 12 12 0 0 1 4.71-3.13 11.85 11.85 0 0 1 8.99.32h.02c.06.02.11.041.17.07 2.871 1.389 5.131 3.745 6.19 6.78.042.119.09.24.12.36.96 2.89.75 5.962-.48 8.74-1.364 3.081-7.729 17.979-11.36 22.02-2.732 3.041-10.682 11.974-18.67 19.32 6.88 12.42 18.36 21.96 32.12 26.31-2.389-18.711-3.664-26.535-13.24-34.28 1.69-1.87 3.47-3.91 5.23-6.07 11.24 9.205 13.852 19.349 16.31 42.29a55.9 55.9 0 0 0 17.14 0c2.727-21.814 4.164-32.334 16.31-42.29 1.76 2.16 3.54 4.2 5.23 6.07-9.683 7.819-10.877 15.851-13.23 34.28 13.76-4.36 25.23-13.9 32.12-26.32m-129-27.03"/></svg>