<svg xmlns="http://www.w3.org/2000/svg" viewBox="0 0 192 192"><path d="M80 96c0-8.837 7.163-16 16-16 4.567 0 8.677 1.924 11.593 4.993a11.9 11.9 0 0 0-5.18.697c-6.135 2.279-9.29 9.043-7.145 15.195a12 12 0 0 0-4.02.741 11.94 11.94 0 0 0-6.477 5.765A15.95 15.95 0 0 1 80 96m96 0a79.5 79.5 0 0 1-9.324 37.427 29 29 0 0 0-1.226-4.4l-2.475-6.654a71.7 71.7 0 0 0 4.562-18.377c-3.194.013-7.077.088-11.238.421l-2.89-7.772c5.507-.555 10.595-.642 14.59-.65 0-4.701-.467-9.294-1.332-13.746C148.506 75.714 123.072 72 96 72c-26.988 0-52.502 3.726-70.669 10.257a72 72 0 0 0-1.33 13.737c10.961.02 30.236.647 43.269 9.831 7.023 4.95 11.09 11.655 13.455 19.985a19 19 0 0 0-6.334 8.198c-1.646-9.676-4.977-16.885-11.73-21.644-10.875-7.664-28.036-8.334-38.207-8.37 3.243 29.207 24.022 53.184 51.543 61.158-.006-5.119-.036-9.915-.172-14.372 1.33 2.05 2.788 3.417 3.345 3.893.29.249.702.6 4.794 3.52.028 2.833.033 5.78.034 8.788A72 72 0 0 0 96 168c.596 0 1.185-.03 1.778-.045.78.55 1.583 1.113 2.432 1.71l.81.523c2.201 1.296 5.256 3.088 9.186 4.523A80 80 0 0 1 96 176c-44.112 0-80-35.888-80-80s35.888-80 80-80 80 35.888 80 80m-11.787-22.993C154.595 44.551 127.661 24 96 24c-31.659 0-58.59 20.547-68.21 49C46.3 67.243 70.58 64 96 64c25.504 0 49.708 3.244 68.213 9.007m-51.795 51.465a4 4 0 0 0 5.143 2.357 4 4 0 0 0 2.357-5.142l-9.748-26.252a4 4 0 0 0-7.5 2.785zm14.996-5.58a4 4 0 0 0 5.142 2.357 4 4 0 0 0 2.358-5.143l-8.354-22.499a4 4 0 1 0-7.5 2.786zM174.14 176h-9.24l-11.86-20.54-22.58 13.04 4.33 7.5h-9.23l-3.99-6.91c-6.77-.41-11.98-2.98-16.53-5.62l-.28-.17c-7.2-5-19.43-13.49-20.34-14.27-.7-.59-2.06-2.06-2.72-3.84-2.04-5.56.91-11.79 6.6-13.89 3.12-1.15 6.11-.32 7.89.17l.56.2 1.53.69-6.44-17.31a4.01 4.01 0 0 1 2.36-5.15c2.07-.76 4.37.29 5.14 2.36l13.08 35.18-18.66-8.34c-.89-.24-2.06-.53-2.69-.29-2.05.75-2.23 2.61-1.86 3.61.05.09.25.37.38.51 1.37 1.03 12.6 8.85 19.6 13.7 5.18 2.99 10.6 5.47 18.69 4.12l19.91-11.49c3.21-4.52 4.35-9.72 2.63-14.4l-12.19-32.79c-.77-2.07.28-4.37 2.35-5.14 2.08-.77 4.38.28 5.15 2.35l12.2 32.81c1.84 5 1.61 10.35-.27 15.38z"/></svg>