<svg xmlns="http://www.w3.org/2000/svg" viewBox="0 0 192 192"><path d="M104 72a8 8 0 1 1-16 0 8 8 0 0 1 16 0m-51.999 60.005A4 4 0 0 0 56 128.003L55.99 100a4 4 0 0 0-4-3.999h-.002a4 4 0 0 0-3.999 4.002L48 128.006a4 4 0 0 0 4 3.999zm-16-.005A4 4 0 0 0 40 127.999l-.01-24a4 4 0 0 0-4-3.999h-.001a4 4 0 0 0-3.999 4.001l.01 24A4 4 0 0 0 36 132zm11.08 44.044c16.5-.042 23.842-7.278 29.429-14.057l.195-.257c5.013-7.193 13.511-19.417 14.098-20.459.45-.8 1.21-2.658 1.205-4.553C91.99 130.802 87.064 126 81.019 126h-.029c-3.334.008-5.84 1.822-7.336 2.906L72 130.467V112a4 4 0 0 0-8 0v37.532l14.586-14.32c.748-.536 1.747-1.21 2.424-1.212h.011c2.17 0 2.984 1.68 2.988 2.7a2.8 2.8 0 0 1-.184.653c-.92 1.442-8.723 12.684-13.59 19.669-4.8 5.805-10.226 10.99-23.175 11.022h-.08c-12.65 0-22.953-7.64-22.98-17.044v-35a4 4 0 0 0-8 0v35.012c.04 13.82 13.93 25.032 30.982 25.032h.098zm96.924-48.038.01-28.003A4 4 0 0 0 140.018 96h-.001a4 4 0 0 0-4 3.999l-.011 28.003a4 4 0 0 0 3.998 4.002h.002a4 4 0 0 0 4-3.999zm16-.005.01-24a4 4 0 0 0-8-.003l-.01 24a4 4 0 0 0 3.998 4.002h.002a4 4 0 0 0 4-3.999m16 22.999v-35a4 4 0 0 0-8 0v34.988c-.028 9.417-10.33 17.056-22.981 17.056h-.08c-12.949-.033-18.375-5.217-23.174-11.022-4.869-6.986-12.674-18.232-13.591-19.67a3.2 3.2 0 0 1-.182-.61c.003-1.062.816-2.742 2.987-2.742h.011c.677.001 1.676.676 2.423 1.212l14.587 14.32V112a4 4 0 0 0-8 0v18.467l-1.198-1.175-.456-.386c-1.497-1.084-4.002-2.898-7.336-2.906h-.029c-6.044 0-10.972 4.802-10.99 10.718-.004 1.9.756 3.758 1.205 4.552.588 1.043 9.086 13.267 14.099 20.46l.195.257c5.587 6.78 12.929 14.015 29.43 14.057h.097c17.051 0 30.942-11.213 30.983-25.044M152 72c0 5.547-.823 10.903-2.332 15.966-.355-.009-.708-.028-1.064-.028-2.709 0-5.276.327-7.681.953a47.6 47.6 0 0 0 2.42-9.011c-6.88-.207-17.285-.246-23.804 4.349-7.608 5.361-7.643 16.233-7.56 32.64-1.682.75-6.474 2.198-7.989 2.453-.003-.61-.005-1.222-.009-1.82-.095-18.566-.164-31.981 10.95-39.812 8.795-6.198 21.19-6.043 29.066-5.793-.006-2.989-.3-5.91-.832-8.748-11.446-4.762-26.888-7.086-47.165-7.086-19.303 0-35.558 2.46-47.169 7.108a48 48 0 0 0-.828 8.726c7.879-.25 20.272-.406 29.067 5.793 11.113 7.831 11.044 21.246 10.949 39.812-.004.598-.006 1.21-.009 1.82-2.383-.376-6.843-1.864-7.99-2.452.085-16.606.104-27.241-7.559-32.641-6.52-4.595-16.925-4.557-23.803-4.35a47.6 47.6 0 0 0 2.545 9.332c-2.722-.832-5.666-1.273-8.8-1.273l-.079.002A55.8 55.8 0 0 1 40 72c0-30.878 25.122-56 56-56s56 25.122 56 56m-11.68-18.408C133.085 36.235 115.948 24 96 24c-19.982 0-37.142 12.277-44.355 29.681C63.522 49.953 78.39 48.063 96 48.063c18.115 0 32.71 1.817 44.32 5.53z"/></svg>