<svg xmlns="http://www.w3.org/2000/svg" viewBox="0 0 192 192"><path d="M96 48c-26.467 0-48 21.533-48 48s21.533 48 48 48 48-21.533 48-48-21.533-48-48-48m0 8c16.42 0 30.553 9.947 36.708 24.129-10.38-2.789-23.245-4.34-36.708-4.34-13.427 0-26.321 1.556-36.71 4.345C65.443 65.949 79.578 56 96 56m-39.493 46.336c5.756.118 13.96.807 19.222 4.515 6.059 4.27 6.889 12.376 6.992 26.874-13.621-4.81-23.88-16.79-26.214-31.39zm34.228 33.307c-.028-16.437-.558-28.397-10.398-35.331-7.308-5.15-17.601-5.892-24.295-5.986.071-1.703.251-3.377.529-5.02C66.843 85.79 81.009 83.79 96 83.79c15.044 0 29.165 1.997 39.43 5.52.277 1.64.457 3.314.528 5.016-6.691.093-16.988.836-24.295 5.986-9.84 6.934-10.37 18.894-10.398 35.33-1.724.228-3.48.358-5.265.358s-3.54-.13-5.265-.357m18.544-1.918c.104-14.498.933-22.604 6.992-26.874 5.261-3.707 13.469-4.39 19.222-4.512-2.335 14.597-12.594 26.577-26.214 31.386M96 103.333a7.333 7.333 0 1 1 0-14.666 7.333 7.333 0 0 1 0 14.666M36 61.106c-17.684 23.559-15.755 57.236 5.73 78.564l-5.636 5.678C11.649 121.082 9.544 82.714 29.837 56H22v-8h21.999l.002 20-8 .001zm120.258 85.283-5.678-5.636c21.223-21.38 22.997-54.85 5.42-78.262l-.002 6.518-8-.003.006-21.006h21.01v8h-7.934c21.313 26.593 19.748 65.637-4.822 90.389"/></svg>