<svg xmlns="http://www.w3.org/2000/svg" xml:space="preserve" viewBox="0 0 192 192"><path d="M96 44c-28.673 0-52 23.327-52 52s23.327 52 52 52 52-23.327 52-52-23.327-52-52-52m0 8c18.328 0 34.068 11.268 40.674 27.237-11.414-3.159-25.7-4.921-40.674-4.921-14.928 0-29.252 1.763-40.673 4.92C61.933 63.266 77.672 52 96 52m-43.511 50.54c6.337.103 15.648.802 21.606 5 7.085 4.992 7.732 15.09 7.792 30.125-15.362-5.219-26.94-18.696-29.398-35.126m37.404 37.027c-.025-17.986-.54-31.062-11.19-38.567-8.018-5.65-19.419-6.391-26.666-6.47a44 44 0 0 1 .63-6.108C63.926 84.528 79.512 82.316 96 82.316c16.548 0 32.08 2.213 43.334 6.11q.524 2.993.629 6.107c-7.247.082-18.648.817-26.667 6.467-10.648 7.505-11.164 20.581-11.189 38.567-1.997.278-4.034.433-6.107.433s-4.11-.155-6.107-.433m20.22-1.902c.06-15.035.707-25.133 7.792-30.125 5.958-4.199 15.272-4.899 21.607-5.001-2.459 16.43-14.037 29.907-29.399 35.126M96 104a8 8 0 1 1 0-16 8 8 0 0 1 0 16m-72-8h-8c0-44.112 35.888-80 80-80 25.316 0 48.906 11.881 64 31.998V32h8v28h-28v-8h12.989C139.382 34.38 118.445 24 96 24c-39.701 0-72 32.299-72 72m152 0c0 44.112-35.888 80-80 80-25.316 0-48.906-11.881-64-31.998V160h-8v-28h28v8H39.011C52.618 157.62 73.555 168 96 168c39.701 0 72-32.299 72-72z"/></svg>