<svg xmlns="http://www.w3.org/2000/svg" viewBox="0 0 192 192"><path d="M168.117 112h-16.234c-4.347 0-7.883 3.536-7.883 7.883V136h-36v-16h-8c0-6.617 5.383-12 12-12h8c6.617 0 12-5.383 12-12s-5.383-12-12-12h-8c-6.617 0-12-5.383-12-12v-4.527c6.889-1.783 12-8.034 12-15.473V40h-4v-8h-8v8h-8v-8h-8v8h-4v12c0 7.439 5.111 13.69 12 15.473V72c0 11.028 8.972 20 20 20h8c2.206 0 4 1.794 4 4s-1.794 4-4 4h-8c-11.028 0-20 8.972-20 20h-8v16H48v-16.117c0-4.347-3.536-7.883-7.883-7.883H23.883c-4.347 0-7.883 3.536-7.883 7.883v40.234c0 4.347 3.536 7.883 7.883 7.883h16.234c4.347 0 7.883-3.536 7.883-7.883V144h96v16.117c0 4.347 3.536 7.883 7.883 7.883h16.234c4.347 0 7.883-3.536 7.883-7.883v-40.234c0-4.347-3.536-7.883-7.883-7.883M88 52v-4h16v4c0 4.411-3.589 8-8 8s-8-3.589-8-8M40 160H24v-40h16zm52-24v-8h8v8zm76 24h-16v-40h16z"/></svg>