<svg xmlns="http://www.w3.org/2000/svg" viewBox="0 0 192 192"><path d="M120 84h-8c-3.896 0-7.353-1.874-9.547-4.759C114.79 76.318 124 65.218 124 52c0-15.439-12.561-28-28-28S68 36.561 68 52c0 14.64 11.296 26.684 25.63 27.892C96.698 87.005 103.774 92 112 92h8c2.206 0 4 1.794 4 4s-1.794 4-4 4h-8c-11.028 0-20 8.972-20 20v4.527c-6.889 1.783-12 8.034-12 15.473v12h4v8h8v-8h8v8h8v-8h4v-12c0-7.439-5.111-13.69-12-15.473V120c0-6.617 5.383-12 12-12h8c6.617 0 12-5.383 12-12s-5.383-12-12-12m-20-12.403V52.092c5.969.266 11.474 1.123 15.818 2.462-1.091 8.499-7.519 15.351-15.818 17.043M96 32c8.967 0 16.573 5.932 19.104 14.077C109.546 44.738 102.905 44 96 44s-13.54.741-19.105 2.08C79.425 37.933 87.032 32 96 32M76.182 54.553c4.348-1.337 9.865-2.194 15.818-2.461v19.504c-8.3-1.692-14.728-8.544-15.818-17.044ZM104 140v4H88v-4c0-4.411 3.589-8 8-8s8 3.589 8 8"/></svg>