<svg xmlns="http://www.w3.org/2000/svg" viewBox="0 0 192 192"><path d="M58.828 49.172a4 4 0 1 1-5.657 5.656 4 4 0 0 1 5.657-5.656m16.97-16.97 5.658-5.658c-14.037-14.036-36.875-14.036-50.912 0L36.2 32.2c10.917-10.918 28.68-10.918 39.598 0zm-5.656 5.656C66.365 34.081 61.342 32 56 32s-10.365 2.08-14.142 5.858l5.657 5.657C49.781 41.249 52.795 40 56 40s6.219 1.249 8.485 3.515zM176 104c0 39.701-32.299 72-72 72s-72-32.299-72-72c0-16.592 5.656-31.878 15.12-44.067.15.167.286.344.444.503a11.83 11.83 0 0 0 6.694 3.354 64 64 0 0 0-11.286 20.938C59.577 79.145 81.282 76 104 76c22.79 0 44.432 3.145 61.031 8.734C156.836 58.831 132.578 40 104 40a63.6 63.6 0 0 0-26.991 5.99l12.53-12.53A72 72 0 0 1 104 32c39.701 0 72 32.299 72 72m-91.981 60.789.022-3.23c.156-21.235.26-35.264-10.113-42.573-9.394-6.62-24.583-7.046-33.414-7.014 3.096 24.786 20.41 45.206 43.505 52.817M104 168c4.099 0 8.103-.403 11.99-1.143-.009-1.894-.021-3.759-.036-5.558-.183-22.76-.315-39.207 13.423-48.887 11.628-8.195 28.515-8.51 38.622-8.441a64 64 0 0 0-.781-9.947C151.03 87.632 128.255 84 104 84c-24.178 0-47.016 3.647-63.209 10.035a64 64 0 0 0-.79 9.937c10.098-.06 26.91.282 38.536 8.475 13.794 9.72 13.672 26.268 13.504 49.17a1699 1699 0 0 0-.032 5.24A64 64 0 0 0 104 168m63.486-56.03c-8.835-.037-24.107.36-33.5 6.98-9.855 6.945-10.217 19.275-10.032 42.285.01 1.16.018 2.354.026 3.554 23.097-7.61 40.41-28.031 43.506-52.819M116 104c0 6.617-5.383 12-12 12s-12-5.383-12-12 5.383-12 12-12 12 5.383 12 12m-8 0c0-2.206-1.794-4-4-4s-4 1.794-4 4 1.794 4 4 4 4-1.794 4-4"/></svg>