<svg xmlns="http://www.w3.org/2000/svg" viewBox="0 0 192 192"><path d="M132.88 100h38.24l.76-3.025c1.88-7.485 4.12-17.99 4.12-25.53C176 44.395 165.682 24 152 24s-24 20.396-24 47.444c0 7.542 2.24 18.046 4.12 25.53zM152 32c7.568 0 16 16.2 16 39.444 0 4.706-1.109 11.93-3.143 20.556h-25.714C137.109 83.374 136 76.15 136 71.444 136 48.2 144.432 32 152 32m-20 83.8c0 11.138 9.017 20.2 20.1 20.2 11.159 0 19.9-8.873 19.9-20.2V108h-40zm31.999.2c-.101 6.746-5.291 12-11.899 12-6.605 0-11.992-5.365-12.099-12H164zM48 40a8 8 0 1 1-16 0 8 8 0 0 1 16 0m-8-24c-13.233 0-24 11.106-24 24.757 0 5.957 1.412 11.728 3.875 15.847 2.947 5.243 16.51 29.13 16.646 29.371L40 92.101l3.479-6.126c.137-.242 13.7-24.13 16.646-29.37C62.588 52.484 64 46.713 64 40.756 64 27.106 53.233 16 40 16m13.24 36.531-.06.104c-1.96 3.485-8.9 15.72-13.18 23.262a11341 11341 0 0 1-13.179-23.262l-.06-.104C25.03 49.66 24 45.26 24 40.757 24 31.517 31.178 24 40 24s16 7.517 16 16.757c0 4.503-1.032 8.905-2.76 11.774M88 64c-13.682 0-24 20.396-24 47.444 0 7.542 2.24 18.046 4.12 25.53l.76 3.026h38.24l.76-3.025c1.88-7.485 4.12-17.99 4.12-25.53C112 84.395 101.682 64 88 64m12.857 68H75.143C73.109 123.374 72 116.15 72 111.444 72 88.2 80.432 72 88 72s16 16.2 16 39.444c0 4.706-1.109 11.93-3.143 20.556M68 155.8c0 11.138 9.017 20.2 20.1 20.2 11.159 0 19.9-8.873 19.9-20.2V148H68zm31.999.2c-.101 6.746-5.291 12-11.899 12-6.605 0-11.992-5.365-12.099-12H100z"/></svg>