<svg xmlns="http://www.w3.org/2000/svg" viewBox="0 0 192 192"><path d="M126 16c-14.6 0-26 22-26 50 0 8.8 2.6 21.1 4.1 27l.8 3h42.2l.8-3c1.5-5.9 4.1-18.2 4.1-27 0-28-11.4-50-26-50m14.9 72h-29.7c-1.6-6.9-3.1-15.9-3.1-22 0-24.8 9.5-42 18-42s18 17.2 18 42c-.1 6.1-1.6 15.1-3.2 22M104 104v6c0 9.8 6.4 18.1 15.3 21 4.5-4.3 10.6-6.6 17.1-6.6 2 0 3.8.2 5.6.6 3.7-3.9 5.9-9.2 5.9-15v-6zm22 20c-7 0-12.9-5.2-13.9-12h27.7c-.9 6.8-6.8 12-13.8 12M54.5 52c-14.6 0-26 22-26 50 0 8.8 2.6 21.1 4.1 27l.8 3h42.2l.8-3c1.5-5.9 4.1-18.2 4.1-27 0-28-11.4-50-26-50m14.9 72H39.6c-1.6-6.9-3.1-15.9-3.1-22 0-24.8 9.5-42 18-42s18 17.2 18 42c0 6.1-1.5 15.1-3.1 22m-36.9 16v6c0 12.1 9.9 22 22 22s22-9.9 22-22v-6zm22 20c-7 0-12.9-5.2-13.9-12h27.7c-.9 6.8-6.8 12-13.8 12m82-27.6c-10 0-17.2 7.5-17.2 18.1s6.9 17.9 16.9 17.9c10.1 0 17-7.4 17-18.1 0-10.5-7-17.9-16.7-17.9m-.2 29.7c-5.5 0-8.8-4.4-8.8-11.7 0-7.4 3.3-11.7 8.9-11.7 5.4 0 8.7 4.5 8.7 11.7-.1 7.4-3.3 11.7-8.8 11.7m.2-29.7c-10 0-17.2 7.5-17.2 18.1s6.9 17.9 16.9 17.9c10.1 0 17-7.4 17-18.1 0-10.5-7-17.9-16.7-17.9m-.2 29.7c-5.5 0-8.8-4.4-8.8-11.7 0-7.4 3.3-11.7 8.9-11.7 5.4 0 8.7 4.5 8.7 11.7-.1 7.4-3.3 11.7-8.8 11.7m31.1 8.7c5.4-2.4 8-5.6 8-9.5 0-4.5-3.4-7.3-8.7-7.3-2.5 0-4.6.6-6.1 1.8-1.4 1.1-2.3 2.6-2.8 4.7l1.4.3 4.6 1.1c.4-1.8 1.1-2.6 2.4-2.6 1.2 0 1.9.8 1.9 2.3 0 3-3 5.7-10.3 9.4v4.9h17.5v-5.2h-7.9zM112 156.9l-3.6-1.5c-1.6 4.6-3.9 6.6-7.8 6.6-5.5 0-8.6-4.2-8.6-11.7s3-11.7 8.4-11.7c3.8 0 6 1.8 7.6 6.3l4.1-1.7 2.8-1.1c-.5-1.2-1-2.1-1.4-2.9-.7-1.3-1.5-2.2-2.5-3.2-2.6-2.4-6.2-3.7-10.6-3.7-9.8 0-16.6 7.4-16.6 18.1 0 10.9 6.5 17.9 16.8 17.9 3.8 0 7-1 9.6-2.9 1.4-1 2.5-2.1 3.4-3.6q.9-1.5 1.8-3.6z"/></svg>