<svg xmlns="http://www.w3.org/2000/svg" viewBox="0 0 192 192"><path d="M58 60c-14.58 0-26 21.962-26 50 0 8.827 2.596 21.131 4.13 27.01l.78 2.99h42.18l.78-2.99C81.405 131.13 84 118.827 84 110c0-28.038-11.42-50-26-50m14.867 72H43.133C41.514 125.058 40 116.061 40 110c0-24.751 9.486-42 18-42s18 17.249 18 42c0 6.061-1.514 15.058-3.133 22M36 154c0 12.13 9.87 22 22 22s22-9.87 22-22v-6H36zm35.857 2c-.973 6.775-6.816 12-13.857 12s-12.884-5.225-13.857-12zm41.053-60h42.18l.78-2.99C157.405 87.13 160 74.827 160 66c0-28.038-11.42-50-26-50s-26 21.962-26 50c0 8.827 2.596 21.131 4.13 27.01zM134 24c8.514 0 18 17.249 18 42 0 6.061-1.514 15.058-3.133 22h-29.734C117.514 81.058 116 72.061 116 66c0-24.751 9.486-42 18-42m-22 86c0 12.13 9.87 22 22 22s22-9.87 22-22v-6h-44zm35.857 2c-.973 6.775-6.816 12-13.857 12s-12.884-5.225-13.857-12z"/></svg>