<svg xmlns="http://www.w3.org/2000/svg" viewBox="0 0 192 192"><path d="M92 52h8v52h-8zm-60 52c0-35.29 28.71-64 64-64s64 28.71 64 64c0 4.107-.404 8.12-1.147 12.014l4.657 13.006A71.7 71.7 0 0 0 168 104c0-20.445-8.58-38.913-22.311-52.031L154 43.658l11.171 11.171 5.657-5.657-28-28-5.657 5.657L148.342 38l-8.749 8.749c-11.117-8.485-24.761-13.816-39.594-14.632V24h16v-8h-40v8h16v8.117c-14.833.816-28.477 6.147-39.594 14.632L43.656 38l11.171-11.171-5.657-5.657-28 28 5.657 5.657 11.171-11.171 8.311 8.311C32.578 65.088 23.998 83.555 23.998 104c0 39.701 32.299 72 72 72 2.737 0 5.435-.168 8.093-.467l3.09-8.531a64 64 0 0 1-11.183.998c-35.29 0-64-28.71-64-64Zm139.833 72h-8.486l-6.19-17.77h-30.549l-6.09 17.77h-8.086l25.857-71.38h7.986L171.832 176Zm-17.071-24.659-12.879-37.137-12.878 37.137z"/></svg>