<svg xmlns="http://www.w3.org/2000/svg" viewBox="0 0 192 192"><path d="M152 155.993V152h-15.999v-32H152v-3.993l.001-.007-.001-.007V112h-15.999V22.79c-3.98-1.21-23.23-6.79-40-6.79-20.26 0-36.44 5.53-40 6.84V176h80v-16H152v-3.993l.001-.007zM128.001 152h-24.75l13.9-4.17a3.99 3.99 0 0 0 2.84-4.02 3.99 3.99 0 0 0-3.21-3.73L96.401 136l20.38-4.08c1.8-.36 3.13-1.9 3.21-3.73a3.99 3.99 0 0 0-2.84-4.02l-13.9-4.17h24.75zm0-123.14v7.775C120.376 34.665 107.87 32 96 32c-13.656 0-25.015 2.375-31.999 4.306V28.66c6.66-1.94 18.44-4.66 32-4.66 11.39 0 24.45 2.9 32 4.86m0 139.14h-64V44.648C70.075 42.825 81.78 40 96 40c12.012 0 25.149 3.067 32.001 4.923V112h-52c-1.99 0-3.67 1.46-3.96 3.42a4 4 0 0 0 2.81 4.41l24.64 7.39-24.28 4.86a3.986 3.986 0 0 0-3.21 3.92c0 1.91 1.34 3.55 3.21 3.92l24.28 4.86-24.64 7.39a4 4 0 0 0-2.81 4.41 4.004 4.004 0 0 0 3.96 3.42h52z"/></svg>