<svg xmlns="http://www.w3.org/2000/svg" viewBox="0 0 192 192"><path d="M144 60h8v-3.979l.002-.021-.002-.021V52h-15.998V22.79c-3.97-1.2-23.23-6.79-40-6.79-20.27 0-36.45 5.53-40 6.84V176h80v-16H152v-8h-15.998v-32H152v-8h-15.998v-12H152v-8h-15.998V60zm-15.998-31.14v7.776C120.377 34.666 107.871 32 96 32c-13.655 0-25.013 2.375-31.998 4.306V28.66c6.66-1.94 18.44-4.66 32-4.66 11.39 0 24.46 2.9 32 4.86m0 123.14h-24.61l13.79-4.15a3.995 3.995 0 0 0 2.84-4.02 4 4 0 0 0-3.21-3.73l-20.43-4.1 20.4-4.08c1.8-.36 3.13-1.9 3.21-3.73a3.99 3.99 0 0 0-2.84-4.02l-13.9-4.17h24.75zm0-40h-52c-1.99 0-3.67 1.46-3.96 3.42a4 4 0 0 0 2.81 4.41l24.64 7.39-24.28 4.86a3.986 3.986 0 0 0-3.21 3.92c0 1.91 1.34 3.55 3.21 3.92l24.35 4.88-24.49 7.37c-1.9.57-3.09 2.45-2.8 4.41a3.995 3.995 0 0 0 3.96 3.42h51.77v8h-64V44.647C70.077 42.824 81.781 40 96 40c12.013 0 25.151 3.067 32.002 4.923V52h-52c-1.99 0-3.67 1.45-3.96 3.42a4 4 0 0 0 2.8 4.41l24.65 7.45-24.27 4.8a3.995 3.995 0 0 0-3.22 3.92c0 1.9 1.34 3.55 3.21 3.92l24.28 4.86-24.64 7.39a4 4 0 0 0-2.81 4.41 4.004 4.004 0 0 0 3.96 3.42h52zm0-20h-24.75l13.9-4.17a3.99 3.99 0 0 0 2.84-4.02 3.99 3.99 0 0 0-3.21-3.73l-20.27-4.06 20.26-4c1.81-.36 3.13-1.9 3.22-3.73a4.02 4.02 0 0 0-2.83-4.03L103.052 60h24.95z"/></svg>