<svg xmlns="http://www.w3.org/2000/svg" viewBox="0 0 192 192"><path d="M92 156a4 4 0 1 1 8 0 4 4 0 0 1-8 0m24 4a4 4 0 1 0 0-8 4 4 0 0 0 0 8m20 0a4 4 0 1 0 0-8 4 4 0 0 0 0 8m20 0a4 4 0 1 0 0-8 4 4 0 0 0 0 8m20-128v128c0 8.822-7.178 16-16 16H32c-8.822 0-16-7.178-16-16V32c0-8.822 7.178-16 16-16h128c8.822 0 16 7.178 16 16m-8 112H24v16c0 4.411 3.589 8 8 8h128c4.411 0 8-3.589 8-8zm0-8V32c0-4.411-3.589-8-8-8H32c-4.411 0-8 3.589-8 8v104zM40 152h-8v8h8zm44-96c0 13.234-10.766 24-24 24S36 69.234 36 56s10.766-24 24-24 24 10.766 24 24m-8 0c0-8.822-7.178-16-16-16s-16 7.178-16 16 7.178 16 16 16 16-7.178 16-16m2 50c0 9.925-8.075 18-18 18s-18-8.075-18-18 8.075-18 18-18 18 8.075 18 18m-8 0c0-5.514-4.486-10-10-10s-10 4.486-10 10 4.486 10 10 10 10-4.486 10-10m42-58c0-8.822 7.178-16 16-16s16 7.178 16 16-7.178 16-16 16-16-7.178-16-16m8 0c0 4.411 3.589 8 8 8s8-3.589 8-8-3.589-8-8-8-8 3.589-8 8m36 52c0 15.44-12.56 28-28 28s-28-12.56-28-28 12.56-28 28-28 28 12.56 28 28m-8 0c0-11.028-8.972-20-20-20s-20 8.972-20 20 8.972 20 20 20 20-8.972 20-20"/></svg>