<svg xmlns="http://www.w3.org/2000/svg" viewBox="0 0 192 192"><path fill="#1a1a18" d="M100 32h-8V16h8zm0 8.004h-8v16h8zm0 23.972h-8v16h8zM100 88h-8v16h8zm0 24h-8v16h8zm0 24h-8v16h8zm0 24h-8v16h8zm-63.076 16L70.412 16h-8.173L28.751 176zm111.256-72-18.419-88h-8.173l18.419 88zm10.648 34.828-5.656-5.656L140 146.343l-5.172-5.171-5.656 5.656L140 157.657zM176 144c0-17.645-14.355-32-32-32s-32 14.355-32 32 14.355 32 32 32 32-14.355 32-32m-8 0c0 13.233-10.767 24-24 24s-24-10.767-24-24 10.767-24 24-24 24 10.767 24 24"/></svg>