<svg xmlns="http://www.w3.org/2000/svg" viewBox="0 0 192 192"><path d="M176 32h-40v40h16v40h-8v8h16V72h16zm-8 32h-24V40h24zM56 32H16v40h40zm-8 32H24V40h24zm44 40h8V72h16V32H76v40h16zm-8-64h24v24H84zm52 80h-8v-8h8zM32 96h8v8h-8zm24 24h-8v-8h8zM32 80h8v8h-8zm0 32h8v8h-8zm80 0h8v8h-8zm-32 8v-8h8v8zm-16-8h8v8h-8zm32 0h8v8h-8zm-40.773 39.896c1.11 2.702 2.886 3.849 5.847 3.849 2.96 0 4.736-1.222 4.736-3.257 0-1.776-.962-2.479-4.81-3.367-4.182-.962-5.477-1.406-6.698-2.183-2.035-1.295-2.997-3.108-2.997-5.661 0-5.033 3.552-8.104 9.769-8.104 4.107 0 7.4 1.48 9.842 4.737l-4.81 2.664c-1.554-2.146-3.146-2.739-4.996-2.739-2.775 0-4.144 1.037-4.144 2.85 0 1.665 1.147 2.442 4.589 3.108 3.589.74 5.513 1.37 6.956 2.257 2.072 1.369 3.071 3.293 3.071 6.069 0 5.328-3.737 8.288-10.435 8.288-5.55 0-8.954-1.961-11.026-6.327zm33.596-18.353c5.625 0 8.659 2.442 8.659 6.994 0 2.849-1.036 4.44-3.737 5.698 3.367 1.147 4.736 2.997 4.736 6.327 0 4.848-3.22 7.438-9.25 7.438H76.87v-26.457zm-.333 10.694c2.22 0 3.257-1 3.257-3.108 0-2.11-1.11-3.071-3.516-3.071h-5.55v6.179h5.81zm.296 11.249c2.48 0 3.849-1.258 3.849-3.552 0-2.258-1.406-3.479-4.07-3.479H82.68v7.03h6.105zm25.79 1.554c-1.26 2.331-3.072 3.367-5.773 3.367-3.811 0-5.995-2.664-5.995-7.326v-12.434h5.662v11.768c0 2.441.814 3.552 2.627 3.552 2.183 0 3.478-1.48 3.478-3.96v-11.36h5.661V160h-5.66zm23.753-11.249c-1.813-.888-3.552-1.443-5.44-1.443-1.738 0-2.515.481-2.515 1.517 0 1.147.666 1.48 3.811 2.072 2.22.37 3.404.74 4.477 1.406 1.702 1 2.516 2.553 2.516 4.662 0 4.07-3.108 6.402-8.51 6.402-3.737 0-6.143-.777-8.474-2.775l2.627-3.663c1.777 1.628 3.405 2.257 5.699 2.257 2.072 0 3.182-.63 3.182-1.85 0-.555-.222-.925-.703-1.185-.518-.258-.703-.333-3.404-.85-4.514-.852-6.512-2.702-6.512-6.069 0-3.811 2.922-6.105 7.88-6.105 3.11 0 5.33.592 7.586 1.924z"/></svg>