<svg xmlns="http://www.w3.org/2000/svg" viewBox="0 0 192 192"><path d="M136 32v40h16v40h-8v8h16V72h16V32zm32 32h-24V40h24zM56 32H16v40h40zm-8 32H24V40h24zm44 40h8V72h16V32H76v40h16zm-8-64h24v24H84zm-44 64h-8v-8h8zm8 16v-8h8v8zm24 0h-8v-8h8zm-40-8h8v8h-8zm104 8h-8v-8h8zm-24-8h8v8h-8zm-24 8h-8v-8h8zM40 88h-8v-8h8zm56 24h8v8h-8zm-55.22 21.543c5.624 0 8.658 2.442 8.658 6.994 0 2.849-1.036 4.44-3.737 5.698 3.367 1.147 4.736 2.997 4.736 6.327 0 4.848-3.22 7.438-9.25 7.438h-12.36v-26.457zm-.334 10.694c2.22 0 3.257-1 3.257-3.108 0-2.11-1.11-3.071-3.516-3.071h-5.55v6.179h5.81zm.296 11.249c2.48 0 3.849-1.258 3.849-3.552 0-2.258-1.406-3.479-4.07-3.479h-5.884v7.03h6.105zm29.785-.518h-10.73L58.056 160h-5.55l9.695-26.457h6.808L78.52 160h-6.291zm-9.324-4.218h7.918L65.2 139.13zm42.81 2.886c-.963 2.109-1.962 3.367-3.553 4.551-1.961 1.48-4.403 2.22-7.512 2.22-7.733 0-12.692-5.291-12.692-13.543 0-8.103 5.144-13.728 12.581-13.728 3.405 0 6.143.962 8.141 2.812 1.11 1.073 1.813 1.998 2.627 3.738l-5.217 2.146c-1.222-2.775-2.85-3.922-5.588-3.922-4.07 0-6.364 3.182-6.364 8.843 0 5.699 2.331 8.88 6.512 8.88 2.924 0 4.589-1.258 5.81-4.144zm10.21-12.989v3.035c1.295-2.369 3.256-3.516 5.994-3.516 3.886 0 6.106 2.665 6.106 7.327V160h-5.662v-11.767c0-2.516-.925-3.663-2.923-3.663-2.22 0-3.515 1.48-3.515 4.033V160h-5.661v-19.353h5.66zm35.003 15.283c-1.555 2.96-3.923 4.477-8.511 4.477-5.957 0-10.027-4.033-10.027-9.917 0-6.068 4.033-10.323 9.768-10.323 5.661 0 9.065 3.774 9.065 10.064v1.518h-13.135c.185 2.96 1.96 4.477 4.588 4.477 1.591 0 3.182-.666 3.811-1.998zm-5.218-7.623c-.296-2.775-1.332-3.959-3.59-3.959-2.22 0-3.403 1.22-3.921 3.96h7.511zm10.766-7.66v-3.885l5.662-1.96v5.845h4.07v4.404h-4.07v8.548c0 1.443.518 2.109 1.628 2.109.666 0 1.258-.186 1.96-.592l1.37 3.774c-1.332 1.036-2.775 1.517-4.625 1.517-3.811 0-5.995-2.22-5.995-6.105v-9.251h-2.664v-4.404z"/></svg>