<svg xmlns="http://www.w3.org/2000/svg" viewBox="0 0 192 192"><path d="M52 76h76v20h8V68H96V56h16V16H72v40h16v12H44v20H28v40h40V88H52zm28-52h24v24H80zm-20 96H36V96h24zm72 8c-6.617 0-12 5.383-12 12s5.383 12 12 12 12-5.383 12-12-5.383-12-12-12m0 16c-2.206 0-4-1.794-4-4s1.794-4 4-4 4 1.794 4 4-1.794 4-4 4m35.385-10.603-.502-2.705-8.085-1.49a29 29 0 0 0-.214-.516l4.665-6.772-1.558-2.268a36 36 0 0 0-9.337-9.337l-2.269-1.558-6.771 4.665a30 30 0 0 0-.516-.214l-1.49-8.085-2.705-.502a35.9 35.9 0 0 0-13.206 0l-2.705.502-1.49 8.085q-.259.104-.516.214l-6.771-4.665-2.269 1.558a36 36 0 0 0-9.337 9.337l-1.558 2.268 4.665 6.772q-.11.257-.214.516l-8.085 1.49-.502 2.705C96.207 135.595 96 137.816 96 140s.207 4.405.615 6.603l.502 2.705 8.085 1.49q.104.259.214.516l-4.665 6.771 1.558 2.269a36 36 0 0 0 9.337 9.337l2.267 1.558 6.77-4.663q.26.111.52.216l1.49 8.081 2.704.502c2.198.408 4.419.615 6.603.615s4.405-.207 6.603-.615l2.705-.502 1.49-8.085q.259-.104.516-.214l6.773 4.665 2.267-1.558a36 36 0 0 0 9.337-9.337l1.558-2.269-4.665-6.771q.11-.257.214-.516l8.085-1.49.502-2.705c.408-2.198.615-4.419.615-6.603s-.207-4.405-.615-6.603m-7.496 9.065-7.2 1.327-.711 2.325a20.7 20.7 0 0 1-1.53 3.685l-1.143 2.147 4.156 6.033a28 28 0 0 1-3.482 3.482l-6.033-4.156-2.147 1.144a20.7 20.7 0 0 1-3.685 1.529l-2.325.71-1.327 7.2c-1.65.15-3.274.15-4.924 0l-1.328-7.205-2.331-.707a20.3 20.3 0 0 1-3.678-1.527l-2.147-1.144-6.033 4.156a28 28 0 0 1-3.482-3.482l4.156-6.033-1.144-2.147a20.7 20.7 0 0 1-1.529-3.685l-.71-2.325-7.2-1.327a27.5 27.5 0 0 1 0-4.924l7.2-1.327.71-2.325c.386-1.265.9-2.506 1.53-3.685l1.143-2.147-4.156-6.033a28 28 0 0 1 3.482-3.482l6.033 4.156 2.147-1.144a20.7 20.7 0 0 1 3.685-1.529l2.325-.71 1.327-7.2a27.3 27.3 0 0 1 4.924 0l1.327 7.2 2.325.71c1.265.386 2.506.9 3.685 1.53l2.147 1.143 6.034-4.156a28 28 0 0 1 3.481 3.482l-4.156 6.033 1.144 2.147a20.7 20.7 0 0 1 1.53 3.685l.71 2.325 7.2 1.327a27.5 27.5 0 0 1 0 4.924"/></svg>