<svg xmlns="http://www.w3.org/2000/svg" viewBox="0 0 192 192"><path d="M158.828 134.828 149.656 144l9.172 9.172-5.656 5.656-9.172-9.172-9.172 9.172-5.656-5.656 9.172-9.172-9.172-9.172 5.656-5.656 9.172 9.172 9.172-9.172zM176 144c0 17.645-14.355 32-32 32s-32-14.355-32-32 14.355-32 32-32 32 14.355 32 32m-8 0c0-13.233-10.767-24-24-24s-24 10.767-24 24 10.767 24 24 24 24-10.767 24-24m-56-23.972a40 40 0 0 0-4.65 7.972H16V43c0-3.86 3.14-7 7-7h37.008V23c0-3.86 3.14-7 7-7h42.014c3.86 0 7 3.14 7 7v13H153c3.86 0 7 3.14 7 7v60.792h-8V72h-40v8H64v-8H24v48h88zM104 64H72v8h32zM68.008 36h40.014V24H68.008zM24 64h40v-8h48v8h40V44H24z"/></svg>