<svg xmlns="http://www.w3.org/2000/svg" viewBox="0 0 192 192"><path d="M100 48h-8V16h8zm0 96h-8v32h8zM48 92H16v8h32zm16.829 40.201-5.658-5.657-22.627 22.627 5.657 5.658L64.83 132.2zm0-73.54L42.2 36.035l-5.657 5.657L59.17 64.32l5.658-5.657zM172 96c0 20.953-17.047 38-38 38a37.76 37.76 0 0 1-20.485-6.02A35.8 35.8 0 0 1 97 132c-19.882 0-36-16.118-36-36s16.118-36 36-36a35.8 35.8 0 0 1 16.515 4.02A37.76 37.76 0 0 1 134 58c20.953 0 38 17.047 38 38m-8 0c0-16.542-13.458-30-30-30a29.8 29.8 0 0 0-13.151 3.043q-.864.426-1.696.905-.126.071-.25.144a30 30 0 0 0-3.206 2.163l-.233.183q-.712.56-1.39 1.16-.041.038-.084.074-.723.649-1.402 1.344-.09.094-.18.19-.587.608-1.14 1.25-.1.114-.2.23c-.41.488-.809.987-1.189 1.5l-.088.125q-.51.697-.98 1.425l-.22.342a30 30 0 0 0-1.8 3.305q-.093.203-.183.407-.332.74-.625 1.5c-.034.091-.073.18-.106.27q-.326.879-.598 1.782-.062.208-.119.418-.212.739-.386 1.494-.053.22-.102.443a30 30 0 0 0-.342 1.867c-.016.11-.027.222-.042.332a30 30 0 0 0-.217 2.143c-.042.65-.071 1.302-.071 1.961a30 30 0 0 0 .111 2.486q.067.815.177 1.618c.015.11.026.222.042.332q.142.944.342 1.867.05.223.102.443.174.754.386 1.494.058.21.119.418.272.902.598 1.781c.033.091.072.18.106.27q.293.762.625 1.501a30 30 0 0 0 1.984 3.712 30 30 0 0 0 1.199 1.767l.088.125q.571.769 1.19 1.5.098.116.2.23.552.642 1.138 1.25.09.096.181.19.68.695 1.402 1.344.043.037.084.073.678.6 1.39 1.161l.233.183q1.531 1.182 3.206 2.163.124.073.25.144a30 30 0 0 0 1.696.905A29.8 29.8 0 0 0 134 126c16.542 0 30-13.458 30-30m-52 0c0 9.486 6.034 17.588 14.466 20.67C130.578 110.82 133 103.695 133 96s-2.422-14.82-6.534-20.67C118.034 78.412 112 86.514 112 96"/></svg>