<svg xmlns="http://www.w3.org/2000/svg" viewBox="0 0 192 192"><path d="M158.963 104H33.033L16 160h159.989zm-66.965 22H66.98l2.325-14h22.693zm8-14h22.693l2.325 14H99.998zm-8 22v18H62.662l2.99-18zm8 0h26.347l2.99 18H99.997v-18zm34.456 0h25.269l5.473 18h-27.752zm22.836-8h-24.165l-2.325-14h22.234zm-96.094-14-2.325 14H34.704l4.258-14zM32.27 134h25.272l-2.99 18H26.795zm41.652-80.793-7.77-18.428 7.37-3.109 7.771 18.43zM50.068 81.312l-18.399-7.808 3.125-7.363 18.399 7.808zm67.998-28.105-7.37-3.107 7.77-18.43 7.37 3.109zm23.854 28.105-3.125-7.363 18.399-7.808 3.125 7.363zM64.12 96h-8c0-21.987 17.888-39.875 39.875-39.875S135.87 74.013 135.87 96h-8c0-17.576-14.3-31.875-31.876-31.875S64.12 78.424 64.12 96"/></svg>