<svg xmlns="http://www.w3.org/2000/svg" viewBox="0 0 192 192"><path d="m29.657 173.657-11.314-11.314 144-144 11.314 11.314zM58.772 110.6l6.32-6.32A32 32 0 0 1 64 96c0-17.645 14.355-32 32-32 2.863 0 5.638.384 8.28 1.092l6.321-6.32A39.8 39.8 0 0 0 96 56c-22.056 0-40 17.944-40 40 0 5.152.99 10.074 2.772 14.601zM100 16h-8v32h8zM48 92H16v8h32zm16.888-32.77L42.26 36.603l-5.657 5.657L59.23 64.888zM144 100h32v-8h-32zm-16.888 32.77 22.628 22.627 5.657-5.657-22.627-22.628zm6.116-51.371-6.32 6.32A32 32 0 0 1 128 96c0 17.645-14.355 32-32 32-2.863 0-5.638-.384-8.28-1.092l-6.321 6.32A39.8 39.8 0 0 0 96 136c22.056 0 40-17.944 40-40a39.8 39.8 0 0 0-2.772-14.601M92 176h8v-32h-8z"/></svg>