<svg xmlns="http://www.w3.org/2000/svg" viewBox="0 0 192 192"><path d="M96 136c-22.056 0-40-17.944-40-40s17.944-40 40-40 40 17.944 40 40-17.944 40-40 40m0-72c-17.645 0-32 14.355-32 32s14.355 32 32 32 32-14.355 32-32-14.355-32-32-32m4-48h-8v32h8zm0 128h-8v32h8zm76-52h-32v8h32zM48 92H16v8h32zm107.397-49.74-5.657-5.657-22.628 22.627 5.658 5.658zm-90.51 90.51-5.657-5.658-22.627 22.628 5.657 5.657zm90.51 16.97-22.627-22.628-5.658 5.658 22.628 22.627zm-90.51-90.51L42.26 36.603l-5.657 5.657L59.23 64.888z"/></svg>