<svg xmlns="http://www.w3.org/2000/svg" viewBox="0 0 192 192"><path d="m146.629 58.829-5.657-5.657-8.989 8.989a29.84 29.84 0 0 0-18.183-6.16c-16.542 0-30 13.458-30 30 0 6.832 2.3 13.134 6.16 18.183l-8.989 8.989 5.657 5.657 8.989-8.989a29.84 29.84 0 0 0 18.183 6.16c16.542 0 30-13.458 30-30 0-6.832-2.3-13.134-6.16-18.183zM91.8 86c0-12.131 9.869-22 22-22 4.623 0 8.915 1.437 12.46 3.882L95.682 98.46A21.87 21.87 0 0 1 91.8 86m44 0c0 12.131-9.869 22-22 22a21.9 21.9 0 0 1-12.46-3.882l30.578-30.578A21.87 21.87 0 0 1 135.8 86M112 124h8v20l-88 32V48l88-32v32h-8V27.422L40 53.604v110.975l72-26.182z"/></svg>