<svg xmlns="http://www.w3.org/2000/svg" viewBox="0 0 192 192"><path d="M172.212 57.193c-1.48-1.055-2.702-1.702-3.779-2.273-1.634-.865-2.923-1.549-5.083-3.709-2.133-2.132-2.849-3.475-3.756-5.174-1.102-2.063-2.351-4.402-5.789-7.842-3.426-3.426-5.765-4.677-7.828-5.781-1.704-.912-3.051-1.632-5.182-3.764-2.165-2.165-2.837-3.436-3.687-5.044-.572-1.082-1.221-2.309-2.295-3.817a8.99 8.99 0 0 0-7.309-3.79h-.062c-2.652.021-5.094 1.225-6.699 3.303-7.415 9.605-8.86 22.322-8.738 31.451A47.8 47.8 0 0 0 96 47.999c-26.467 0-48 21.533-48 48 0 5.614.978 11.002 2.757 16.013-9.147-.115-21.885 1.333-31.455 8.723-2.15 1.661-3.353 4.188-3.3 6.932.054 2.819 1.469 5.488 3.786 7.139 1.481 1.055 2.702 1.702 3.78 2.273 1.633.865 2.923 1.549 5.083 3.709 2.132 2.132 2.848 3.475 3.755 5.174 1.102 2.063 2.35 4.402 5.789 7.842 3.425 3.426 5.765 4.677 7.828 5.781 1.705.912 3.051 1.632 5.182 3.763 2.165 2.166 2.837 3.437 3.687 5.046.572 1.082 1.22 2.308 2.294 3.816a8.99 8.99 0 0 0 7.308 3.789h.062c2.655-.021 5.097-1.226 6.7-3.303 7.416-9.607 8.86-22.323 8.738-31.451a47.8 47.8 0 0 0 16.005 2.754c26.468 0 48-21.533 48-48 0-5.615-.978-11.005-2.758-16.018.321.004.635.011.965.011 9.062 0 21.254-1.597 30.491-8.73 2.15-1.661 3.354-4.188 3.3-6.932-.054-2.819-1.469-5.488-3.786-7.139ZM68 67.471V100a4 4 0 0 0 8 0V62c0-.2-.031-.392-.059-.585A39.8 39.8 0 0 1 84 57.841v76.317a39.8 39.8 0 0 1-8.059-3.574c.028-.192.059-.384.059-.585v-15a4 4 0 0 0-8 0v9.529c-7.399-7.263-12-17.367-12-28.529s4.601-21.266 12-28.529Zm-3.077 100.338c-.04.051-.146.189-.427.191-.114.012-.516-.038-.793-.429-2.191-3.08-2.329-5.366-6.841-9.879-2.969-2.97-5.146-4.134-7.066-5.161-1.801-.963-3.357-1.795-5.944-4.383-2.598-2.599-3.428-4.153-4.388-5.953-1.023-1.917-2.184-4.09-5.156-7.063-4.501-4.5-6.844-4.681-9.878-6.841a.98.98 0 0 1-.43-.777c-.005-.294.138-.405.192-.446 9.151-7.066 22.517-7.43 30.364-6.898a48 48 0 0 0 2.846 4.324c-7.623 1.156-11.406 3.986-11.901 4.382-1.725 1.38-2.03 3.917-.65 5.642 1.14 1.425 3.525 2.234 5.597.645.034-.026 2.882-2.099 8.968-2.875-1.106 6.541-2.841 9.645-2.846 9.653-1.097 1.918-.522 4.352 1.372 5.488 1.811 1.085 4.302.605 5.488-1.372.287-.479 2.396-4.185 3.75-11.7a48 48 0 0 0 4.652 3.088c.454 6.716.386 20.912-6.91 30.363ZM92 135.799V56.201a40 40 0 0 1 8 0V135.8c-2.609.26-5.252.274-8 0Zm32-11.27V92a4 4 0 0 0-8 0v38.619a39.8 39.8 0 0 1-8 3.54V57.841a39.8 39.8 0 0 1 8 3.54V76a4 4 0 0 0 8 0v-8.529c7.399 7.263 12 17.367 12 28.529s-4.601 21.266-12 28.529m43.809-59.597c-9.151 7.066-22.518 7.431-30.364 6.898a48 48 0 0 0-2.846-4.325c7.623-1.156 11.405-3.986 11.901-4.382 1.725-1.38 2.03-3.917.65-5.642-1.381-1.726-3.849-1.994-5.598-.645-.034.026-2.882 2.099-8.968 2.875 1.106-6.541 2.845-9.653 2.845-9.653a4 4 0 1 0-6.859-4.116c-.287.479-2.396 4.185-3.751 11.7a48 48 0 0 0-4.653-3.088c-.453-6.718-.384-20.914 6.909-30.36.04-.052.149-.191.43-.193.15 0 .516.043.792.43 2.186 3.068 2.324 5.36 6.841 9.878 2.97 2.97 5.146 4.134 7.065 5.161 1.802.963 3.357 1.795 5.943 4.383 2.599 2.599 3.429 4.153 4.39 5.953 1.023 1.917 2.184 4.09 5.156 7.063 4.508 4.508 6.831 4.672 9.878 6.841.38.271.427.634.43.777.006.294-.138.405-.191.446Z"/></svg>