<svg xmlns="http://www.w3.org/2000/svg" viewBox="0 0 192 192"><path d="M176 112v24h-24v-8h9.876c-4.508-5.019-11.003-8-17.876-8-13.233 0-24 10.766-24 24h-8c0-17.645 14.355-32 32-32 9.245 0 17.984 4.04 24 10.84V112zm-32 56c-6.873 0-13.368-2.981-17.877-8H136v-8h-24v24h8v-10.84c6.016 6.8 14.755 10.84 24 10.84 17.644 0 32-14.355 32-32h-8c0 13.234-10.767 24-24 24m-40-24h-4.002v32h-8v-32H80c-6.617 0-12-5.383-12-12V55.999H55.997v-8H84V24H67.998v-8H124v8h-16v23.999h28v8h-12v53.382a40.2 40.2 0 0 0-8 6.09V55.999H76v12h16v8H76v16h16v8H76v16h16v8H76V132c0 2.206 1.794 4 4 4h24.805a40 40 0 0 0-.805 8M92 47.999h8V24h-8z"/></svg>