<svg xmlns="http://www.w3.org/2000/svg" viewBox="0 0 192 192"><path d="M144 36.001H85.678l-8 8H144c4.411 0 8 3.589 8 8v80c0 4.411-3.589 8-8 8h-28V140H76v.001H48c-4.411 0-8-3.589-8-8v-80c0-1.778.59-3.417 1.576-4.747l-5.683-5.683C33.474 44.375 32 48.016 32 52.001v80c0 8.822 7.178 16 16 16h28v27.984h40v-27.984h28c8.822 0 16-7.178 16-16v-80c0-8.822-7.178-16-16-16m-36 131.984H84v-19.984h24zM77.8 32.203C72.51 26.913 65.48 24 58 24s-14.51 2.913-19.798 8.202l-5.658-5.657C39.344 19.746 48.384 16 58 16s18.657 3.745 25.457 10.544l-5.658 5.658zM49.514 43.516l-5.657-5.657c7.798-7.797 20.486-7.797 28.285 0l-5.658 5.657c-4.677-4.68-12.29-4.68-16.97 0m94.512 20.471v56.001c0 6.633-5.396 12.029-12.028 12.029H60c-6.632 0-12.028-5.396-12.028-12.029v-56c0-1.521.295-2.97.812-4.31.23.276.47.548.73.807a11.9 11.9 0 0 0 6.53 3.346c-.002.053-.016.103-.016.156v56.001A3.976 3.976 0 0 0 60 123.96h71.999a3.976 3.976 0 0 0 3.972-3.972v-56a3.976 3.976 0 0 0-3.972-3.972H66.912A11.9 11.9 0 0 0 70 52l-.002-.042H132c6.632 0 12.028 5.396 12.028 12.028zM60.83 54.83a4 4 0 1 1-5.657-5.657 4 4 0 0 1 5.657 5.657"/></svg>