<svg xmlns="http://www.w3.org/2000/svg" viewBox="0 0 192 192"><path d="m134.793 62.897 8.379 8.378-1.414 1.414 25.034 25.031 4.242-4.243 2.828-2.829 1.414-1.415-25.034-25.031-1.414 1.415-22.415-22.411 1.414-1.414-25.034-25.031-4.242 4.243-2.828 2.829-1.414 1.415 25.034 25.031 1.414-1.415 8.378 8.377-60.806 60.817-5.657-5.656-45.251 45.258 16.972 16.969 45.251-45.258-5.657-5.656 60.807-60.816ZM34.392 163.315l-5.657-5.657 33.938-33.944 5.657 5.657zM159.907 116H128.27l-15.723 28 15.723 28h31.637l15.723-28zm-4.683 48h-22.27l-11.23-20 11.23-20h22.27l11.23 20z"/></svg>