<svg xmlns="http://www.w3.org/2000/svg" viewBox="0 0 192 192"><path d="M64.085 48.452c-13.078 0-23.719 13.483-23.719 30.055s10.64 30.055 23.719 30.055 23.719-13.483 23.719-30.055-10.64-30.055-23.719-30.055m0 52.11c-8.667 0-15.719-9.894-15.719-22.055S55.418 56.45 64.085 56.45s15.719 9.895 15.719 22.056-7.052 22.055-15.719 22.055zm98.703 59.551-1.768-5.271-8.928-24.849-.208-.477a24.7 24.7 0 0 0-8.654-9.5c8.164-11.384 12.793-26.43 12.793-42.016 0-34.2-21.728-62.023-48.437-62.023-7.653 0-15.19 2.313-21.95 6.7-6.507-4.263-13.855-6.682-21.636-6.682-26.47 0-48.005 27.816-48.005 62.005S37.53 140.005 64 140.005c7.785 0 15.137-2.422 21.646-6.689 6.678 4.376 14.13 6.684 21.687 6.684 2.74 0 5.466-.306 8.147-.897l8.317 21.01zm-55.202-136.09c22.271 0 40.39 24.214 40.39 53.977 0 14.62-4.492 28.627-12.368 38.79a25 25 0 0 0-5.725-.677h-4.318c5.58-9.49 10.091-20.941 10.388-37.213.389-21.246-7.475-37.548-21.576-44.726-2.196-1.118-6.632-1.92-8.585-1.96l-9.663-.239a53 53 0 0 0-3.75-3.945c4.81-2.622 9.988-4.006 15.207-4.006zm-5.763 92.09c6.37-10.523 10.182-23.75 10.182-38.113 0-14.286-3.77-27.448-10.079-37.944l3.687.09c1.216.025 4.354.693 5.164 1.1 11.288 5.746 17.574 19.418 17.243 37.51-.308 16.839-5.699 28.002-11.798 37.357zM24.005 78c0-29.773 17.941-53.995 39.995-53.995S103.995 48.227 103.995 78c0 29.774-17.941 53.995-39.995 53.995S24.005 107.774 24.005 78m68.338 50.003a53 53 0 0 0 3.284-3.416l2.51-.03a16.69 16.69 0 0 1 13.693 7.093c-1.49.228-2.991.35-4.497.35-5.14 0-10.247-1.384-14.99-3.997m27.796 1.956a24.9 24.9 0 0 0-4.182-5.846h13.926a16.7 16.7 0 0 1 14.777 8.854l6.91 19.146h-22.336l-7.655-19.337z"/></svg>