<svg xmlns="http://www.w3.org/2000/svg" viewBox="0 0 192 192"><path d="m158.829 81.171-5.658 5.658L96 29.657 38.829 86.829 33.17 81.17 96 18.343zM43 120.22h18.857v54.907h9.165V120.22h18.853v-7.506H43zm81.034 48.272c-11.958 0-19.116-9.166-19.116-24.529s7.158-24.702 18.942-24.702c8.206 0 13.007 3.927 16.238 13.444l8.202-3.145c-2.267-5.846-3.927-8.554-6.895-11.433-4.364-4.19-10.298-6.372-17.634-6.372-16.76 0-28.366 13.181-28.366 32.297 0 19.29 11.347 31.949 28.455 31.949 6.372 0 11.696-1.66 15.975-4.89 4.1-3.142 6.546-6.72 9.165-13.53l-8.295-3.23c-3.052 9.866-8.117 14.14-16.67 14.14z"/></svg>