<svg xmlns="http://www.w3.org/2000/svg" viewBox="0 0 192 192"><path fill="#1d1d1b" d="M104 92h8c0-11.028 8.972-20 20-20s20 8.972 20 20h8c0-10.761-6.106-20.118-15.031-24.804C149.264 63.525 152 58.08 152 52c0-11.028-8.972-20-20-20s-20 8.972-20 20c0 6.08 2.736 11.525 7.031 15.196-8.925 4.686-15.03 14.043-15.03 24.804zm16-40c0-6.617 5.383-12 12-12s12 5.383 12 12-5.383 12-12 12-12-5.383-12-12M72.97 67.196C77.264 63.525 80 58.08 80 52c0-11.028-8.972-20-20-20s-20 8.972-20 20c0 6.08 2.736 11.525 7.031 15.196C38.106 71.882 32.001 81.24 32.001 92h8c0-11.028 8.97-20 20-20 11.027 0 20 8.972 20 20h8c0-10.761-6.107-20.118-15.032-24.804zM48 52c0-6.617 5.383-12 12-12s12 5.383 12 12-5.383 12-12 12-12-5.383-12-12m96.969 83.196C149.264 131.525 152 126.08 152 120c0-11.028-8.972-20-20-20s-20 8.972-20 20c0 6.08 2.736 11.525 7.031 15.196-8.925 4.686-15.03 14.043-15.03 24.804h8c0-11.028 8.97-20 20-20 11.027 0 20 8.972 20 20h8c0-10.761-6.107-20.118-15.032-24.804M120 120c0-6.617 5.383-12 12-12s12 5.383 12 12-5.383 12-12 12-12-5.383-12-12m-47.03 15.196C77.264 131.525 80 126.08 80 120c0-11.028-8.972-20-20-20s-20 8.972-20 20c0 6.08 2.736 11.525 7.031 15.196-8.925 4.686-15.03 14.043-15.03 24.804h8c0-11.028 8.97-20 20-20 11.027 0 20 8.972 20 20h8c0-10.761-6.107-20.118-15.032-24.804zM48 120c0-6.617 5.383-12 12-12s12 5.383 12 12-5.383 12-12 12-12-5.383-12-12"/></svg>