<svg xmlns="http://www.w3.org/2000/svg" viewBox="0 0 192 192"><path d="M108.969 151.196C113.264 147.525 116 142.08 116 136c0-11.028-8.972-20-20-20s-20 8.972-20 20c0 6.08 2.736 11.525 7.031 15.196C74.106 155.882 68 165.24 68 176h8c0-11.028 8.972-20 20-20s20 8.972 20 20h8c0-10.761-6.106-20.118-15.031-24.804M84 136c0-6.617 5.383-12 12-12s12 5.383 12 12-5.383 12-12 12-12-5.383-12-12M59.437 64l-14 12 14 12H84v20h8V88h8v20h8V88h28V64h-28v-8h24.48l14-12-14-12H108V16H84v16H56v24h28v8zM128 80H62.396l-4.667-4 4.667-4H128zM92 24h8v8h-8zM64 48v-8h65.52l4.667 4-4.666 4zm28 8h8v8h-8zm-35.029 95.194C61.265 147.523 64 142.08 64 136c0-11.028-8.972-20-20-20s-20 8.972-20 20c0 6.08 2.736 11.525 7.031 15.196C22.106 155.882 16 165.24 16 176h8c0-11.028 8.972-20 20-20a20.02 20.02 0 0 1 17.389 10.124 35.8 35.8 0 0 1 3.693-8.54 28.1 28.1 0 0 0-8.111-6.39M32 136c0-6.617 5.383-12 12-12s12 5.383 12 12-5.383 12-12 12-12-5.383-12-12m128.969 15.196C165.264 147.525 168 142.08 168 136c0-11.028-8.972-20-20-20s-20 8.972-20 20c0 6.079 2.735 11.523 7.029 15.194a28.1 28.1 0 0 0-8.111 6.39 35.8 35.8 0 0 1 3.693 8.54A20.02 20.02 0 0 1 148 156c11.028 0 20 8.972 20 20h8c0-10.761-6.106-20.118-15.031-24.804M136 136c0-6.617 5.383-12 12-12s12 5.383 12 12-5.383 12-12 12-12-5.383-12-12"/></svg>