<svg xmlns="http://www.w3.org/2000/svg" viewBox="0 0 192 192"><path d="M58 71.999c0-8.822-7.177-16-16-16s-16 7.178-16 16c0 5.655 2.958 10.622 7.399 13.469C23.279 89.028 16 98.677 16 109.999v2h8v-2c0-9.925 8.075-18 18-18 4.72 0 9.247 1.886 12.587 5.144a44 44 0 0 1 3.543-7.51 26.3 26.3 0 0 0-7.541-4.157C55.038 82.63 58 77.659 58 71.999m-16 8c-4.41 0-8-3.589-8-8s3.59-8 8-8 8 3.589 8 8-3.588 8-8 8m95.414 17.144C140.754 93.885 145.279 92 150 92c9.925 0 18 8.075 18 18v2h8v-2c0-11.322-7.277-20.972-17.398-24.531C163.042 82.622 166 77.655 166 72c0-8.822-7.178-16-16-16s-16 7.178-16 16c0 5.66 2.963 10.632 7.41 13.477a26.3 26.3 0 0 0-7.54 4.156 44 44 0 0 1 3.543 7.511zM150 64c4.41 0 8 3.589 8 8s-3.59 8-8 8-8-3.589-8-8 3.589-8 8-8m-26.121 45.452a39.8 39.8 0 0 1 7.622-3.44c-2.273-13.518-12.107-24.501-24.988-28.442C114.492 73.664 120 65.464 120 55.999c0-13.234-10.766-24-24-24s-24 10.766-24 24c0 9.465 5.508 17.665 13.487 21.57C70.75 82.078 60 95.805 60 111.999h8c0-15.44 12.56-28 28-28 14.58 0 26.586 11.203 27.879 25.452zM80 55.999c0-8.822 7.179-16 16-16s16 7.178 16 16-7.177 16-16 16-16-7.178-16-16M144 176c-17.644 0-32-14.355-32-32s14.356-32 32-32 32 14.355 32 32-14.354 32-32 32m0-56c-13.233 0-24 10.766-24 24s10.767 24 24 24 24-10.766 24-24-10.765-24-24-24m4 36c0 2.21-1.769 4-3.98 4-2.25 0-4.02-1.753-4.02-4 0-2.21 1.807-4 4.056-4 2.138 0 3.945 1.828 3.945 4zm-8-20.044V128h8l.001 8.043L146.73 148h-5.458z"/></svg>