<svg xmlns="http://www.w3.org/2000/svg" viewBox="0 0 192 192"><path d="M158.602 109.469C163.042 106.623 166 101.655 166 96c0-8.822-7.178-16-16-16s-16 7.178-16 16c0 5.66 2.963 10.632 7.41 13.477a26.3 26.3 0 0 0-7.54 4.156 44 44 0 0 1 3.543 7.512c3.34-3.259 7.865-5.145 12.587-5.145 9.925 0 18 8.075 18 18v2h8v-2c0-11.322-7.277-20.972-17.398-24.531M150 104c-4.411 0-8-3.589-8-8s3.589-8 8-8 8 3.589 8 8-3.589 8-8 8m-92-8c0-8.822-7.178-16-16-16s-16 7.178-16 16c0 5.655 2.957 10.623 7.398 13.469C23.278 113.029 16 122.678 16 134v2h8v-2c0-9.925 8.075-18 18-18 4.721 0 9.247 1.886 12.587 5.144a44 44 0 0 1 3.544-7.51 26.3 26.3 0 0 0-7.542-4.157C55.037 106.632 58 101.66 58 96m-16 8c-4.411 0-8-3.589-8-8s3.589-8 8-8 8 3.589 8 8-3.589 8-8 8m90 32h-8c0-13.876-10.148-25.421-23.412-27.618l6.594-6.593C121.572 106.505 132 120.053 132 136M78.567 96.462C74.503 92.162 72 86.371 72 80c0-13.234 10.766-24 24-24 6.37 0 12.165 2.5 16.466 6.563L106.8 68.23C103.95 65.613 100.164 64 96 64c-8.822 0-16 7.178-16 16 0 4.164 1.613 7.95 4.23 10.8zm96.262-73.633-152 152-5.658-5.658 152-152z"/></svg>