<svg xmlns="http://www.w3.org/2000/svg" viewBox="0 0 192 192"><path d="M174.271 148.181a16.24 16.24 0 0 0-6.39-11.27c-4.489-3.367-10.516-4.165-15.73-2.08a18.25 18.25 0 0 1-19.709-4.046l-1.035-1.036c.382-1.866.593-3.786.593-5.749 0-.242-.024-2.366-.71-5.88l16.691 5.136a15.6 15.6 0 0 0 4.596.698c3.25 0 6.432-1.037 9.144-3.04 3.99-2.947 6.279-7.482 6.279-12.443 0-6.833-4.388-12.775-10.92-14.785l-29.061-8.942a15.7 15.7 0 0 0-3.574-.656C131.584 76.86 136 66.938 136 56c0-2.005-.152-3.974-.438-5.9A16 16 0 0 0 144 36c0-8.822-7.178-16-16-16a16 16 0 0 0-9.37 3.04C112.188 18.605 104.393 16 96 16s-16.189 2.605-22.63 7.04A16 16 0 0 0 64 20c-8.822 0-16 7.178-16 16 0 6 3.333 11.364 8.438 14.1A40 40 0 0 0 56 56c0 10.938 4.416 20.86 11.555 28.089-1.193.08-2.39.29-3.574.655L34.92 93.686C28.388 95.696 24 101.638 24 108.47c0 4.961 2.289 9.496 6.28 12.444 2.712 2.003 5.893 3.039 9.143 3.039 1.53 0 3.077-.23 4.596-.698l16.292-5.013c-.49 3.121-.39 5.167-.31 5.986a28.6 28.6 0 0 0 .592 5.52l-1.035 1.036a18.25 18.25 0 0 1-19.71 4.046c-5.214-2.085-11.24-1.287-15.73 2.08a16.24 16.24 0 0 0-6.389 11.27 16.24 16.24 0 0 0 3.918 12.347l6.733 7.695a22.84 22.84 0 0 0 15.869 7.81q.74.046 1.474.046c5.632 0 10.999-2.036 15.246-5.81l19.553-17.381C85.213 154.882 90.462 156 96 156s10.786-1.12 15.477-3.113l19.554 17.381c4.248 3.776 9.614 5.81 15.246 5.81q.735 0 1.474-.046a22.84 22.84 0 0 0 15.87-7.81l6.732-7.694a16.24 16.24 0 0 0 3.918-12.347m-19.543-46.849a7.43 7.43 0 0 1 5.272 7.14 7.4 7.4 0 0 1-3.032 6.007 7.4 7.4 0 0 1-6.634 1.13l-21.656-6.662c-1.72-4.675-4.33-10.194-8.296-16.218a7.4 7.4 0 0 1 5.284-.339zM136 36a8 8 0 0 1-2.579 5.887 40.1 40.1 0 0 0-8.35-13.32A8 8 0 0 1 128 28c4.411 0 8 3.589 8 8m-80 0c0-4.411 3.589-8 8-8 1.015 0 2.004.203 2.929.568a40.1 40.1 0 0 0-8.35 13.32A8 8 0 0 1 56 36m40-12c17.645 0 32 14.355 32 32s-14.355 32-32 32-32-14.355-32-32 14.355-32 32-32m-54.334 91.61a7.4 7.4 0 0 1-6.634-1.13A7.4 7.4 0 0 1 32 108.47c0-3.3 2.12-6.169 5.272-7.139l29.062-8.942a7.4 7.4 0 0 1 5.212.302c-3.849 5.649-6.77 11.137-8.746 16.415zm13.989 48.679a14.88 14.88 0 0 1-10.905 3.759 14.9 14.9 0 0 1-10.35-5.093l-6.732-7.694a8.1 8.1 0 0 1-1.982-6.248 8.1 8.1 0 0 1 3.232-5.701 8.24 8.24 0 0 1 7.958-1.053 26.24 26.24 0 0 0 26.717-4.334c2.286 4.187 5.57 7.868 9.574 10.797zM68 124l.008-.238-.044-.295c-.014-.116-1.14-11.41 13.137-30.356A39.8 39.8 0 0 0 96 96c5.26 0 10.281-1.03 14.886-2.884C123.69 110.373 123.999 123.879 124 124c0 13.233-12.56 24-28 24s-28-10.767-28-24m96.332 31.26-6.732 7.695a14.9 14.9 0 0 1-10.35 5.093 14.88 14.88 0 0 1-10.905-3.76l-17.513-15.567c4.006-2.928 7.29-6.608 9.576-10.796a26.24 26.24 0 0 0 26.716 4.334 8.24 8.24 0 0 1 7.958 1.053 8.1 8.1 0 0 1 3.232 5.701 8.1 8.1 0 0 1-1.982 6.248zM76 50a6 6 0 1 1 12 0 6 6 0 0 1-12 0m28 0a6 6 0 1 1 12 0 6 6 0 0 1-12 0M88.912 69.713C86.964 67.605 88.343 64 91.098 64h9.804c2.755 0 4.134 3.605 2.186 5.713l-4.902 5.307c-1.207 1.307-3.165 1.307-4.372 0z"/></svg>