<svg xmlns="http://www.w3.org/2000/svg" viewBox="0 0 192 192"><path d="M64 136.7V56h-8v80.7c-4.653 1.653-8 6.087-8 11.3 0 6.617 5.383 12 12 12s12-5.383 12-12c0-5.213-3.347-9.647-8-11.3M60 152c-2.206 0-4-1.794-4-4s1.794-4 4-4 4 1.794 4 4-1.794 4-4 4m20-23.59V36c0-11.028-8.972-20-20-20s-20 8.972-20 20v92.41A28.04 28.04 0 0 0 32 148c0 15.44 12.56 28 28 28s28-12.56 28-28a28.04 28.04 0 0 0-8-19.59M60 168c-11.028 0-20-8.972-20-20a20.03 20.03 0 0 1 6.668-14.904L48 131.904V36c0-6.617 5.383-12 12-12s12 5.383 12 12v95.904l1.332 1.192A20.03 20.03 0 0 1 80 148c0 11.028-8.972 20-20 20M160.01 40v-1.857c0-11.658-10.766-21.143-24-21.143s-24 9.485-24 21.143V40H104v56h64V40zm-40-1.857c0-7.247 7.177-13.143 16-13.143s16 5.896 16 13.143V40h-32zM160 88h-48V48h48zm-19.99-17.079V80h-8v-9.079a7.99 7.99 0 0 1-4-6.921 8 8 0 0 1 16 0 7.99 7.99 0 0 1-4 6.921"/></svg>