<svg xmlns="http://www.w3.org/2000/svg" viewBox="0 0 192 192"><path d="M144.002 112C126.356 112 112 126.354 112 143.999S126.356 176 144.002 176 176 161.644 176 143.999 161.646 112 144.002 112m0 56C130.768 168 120 157.233 120 143.999S130.767 120 144.002 120 168 130.766 168 143.999 157.234 168 144.002 168M148 156a3.983 3.983 0 0 1-3.981 4.002c-2.249 0-4.019-1.754-4.019-4.002 0-2.208 1.808-4 4.055-4 2.139 0 3.945 1.831 3.945 4m-6.73-8L140 135.957V128h8v8.043L146.73 148zm-34.931-17.471C100.837 127.996 97 122.444 97 116c0-8.822 7.178-16 16-16h45c5.514 0 10-4.486 10-10s-4.486-10-10-10h-6v4h-48l-8 4h-4v-8H24l-8-4 8-4h68v-8h4l8 4h48v4h6c9.925 0 18 8.075 18 18 0 8.943-6.562 16.362-15.119 17.747A39.8 39.8 0 0 0 144 104a39.76 39.76 0 0 0-17.426 4H113c-4.411 0-8 3.589-8 8 0 3.263 1.966 6.071 4.774 7.315a40 40 0 0 0-3.435 7.214"/></svg>