<svg xmlns="http://www.w3.org/2000/svg" viewBox="0 0 192 192"><path d="M64 136.7V104h-8v32.7c-4.653 1.653-8 6.087-8 11.3 0 6.617 5.383 12 12 12s12-5.383 12-12c0-5.213-3.347-9.647-8-11.3M60 152c-2.206 0-4-1.794-4-4s1.794-4 4-4 4 1.794 4 4-1.794 4-4 4m4-56h-8v-8h8zm0-16h-8v-8h8zm0-16h-8v-8h8zm-4 112c-15.44 0-28-12.56-28-28a28.04 28.04 0 0 1 8-19.59V36c0-11.028 8.972-20 20-20s20 8.972 20 20v92.41A28.04 28.04 0 0 1 88 148c0 15.44-12.56 28-28 28m0-152c-6.617 0-12 5.383-12 12v95.904l-1.332 1.192A20.03 20.03 0 0 0 40 148c0 11.028 8.972 20 20 20s20-8.972 20-20a20.03 20.03 0 0 0-6.668-14.904L72 131.904V36c0-6.617-5.383-12-12-12m100.322 32L136 25.597 111.678 56H132v77h8V56zM136 38.403 143.678 48h-15.356z"/></svg>