<svg xmlns="http://www.w3.org/2000/svg" viewBox="0 0 192 192"><path d="M128 52h-12v12h-8V52H96v-8h12V32h8v12h12zm0 88H96v8h32zm-41.702-16c.185-14.607 4.376-27.612 12.08-37.35v-6.718H72.615v7.396h17.011C82.045 96.696 78.04 108.714 77.3 124zm19.103 0h26.38v-7.396h-15.963c4.56-3.575 6.41-5.239 8.69-7.766 4.746-5.177 7.088-10.601 7.088-16.21 0-8.197-4.93-13.313-12.882-13.313-7.827 0-11.895 4.007-13.806 13.56l7.766 1.726c1.048-6.102 2.527-8.198 5.67-8.198 2.836 0 4.377 2.22 4.377 6.287 0 7.211-4.993 14.114-17.32 23.852zm41.107-44.993c-5.547 0-9.492 3.945-9.492 9.368 0 5.794 3.822 9.677 9.492 9.677 5.547 0 9.492-3.945 9.492-9.553 0-5.547-3.883-9.492-9.492-9.492m0 4.438c2.465 0 3.76 1.725 3.76 5.054 0 3.39-1.295 5.115-3.76 5.115s-3.76-1.725-3.76-5.177c0-3.205 1.295-4.992 3.76-4.992M53.172 49.172a4 4 0 1 0 5.657 5.656 4 4 0 0 0-5.657-5.656M30.544 26.544 36.2 32.2c10.917-10.918 28.68-10.918 39.598 0l5.657-5.657c-14.037-14.036-36.875-14.036-50.912 0zm11.314 11.314 5.657 5.657C49.781 41.249 52.795 40 56 40s6.219 1.249 8.485 3.515l5.657-5.657C66.365 34.081 61.342 32 56 32s-10.365 2.08-14.142 5.858M148 16H81.326a43.7 43.7 0 0 1 8.627 8H148c10.404 0 20 9.596 20 20v104c0 10.404-9.596 20-20 20H76c-10.404 0-20-9.596-20-20V63.95c-.33.027-.662.05-1 .05a11.92 11.92 0 0 1-7-2.273V148c0 14.815 13.185 28 28 28h72c14.815 0 28-13.185 28-28V44c0-14.815-13.185-28-28-28"/></svg>