<svg xmlns="http://www.w3.org/2000/svg" viewBox="0 0 192 192"><path d="M98.755 124H72.491v-7.425c12.273-9.696 17.244-16.57 17.244-23.75 0-4.05-1.534-6.258-4.357-6.258-3.13 0-4.603 2.086-5.646 8.161L72 93.01c1.902-9.511 5.952-13.5 13.746-13.5 7.916 0 12.825 5.093 12.825 13.254 0 5.585-2.332 10.985-7.056 16.14-2.271 2.516-4.112 4.173-8.653 7.732h15.893zm25.954-43.939h-7.18c-.92 4.051-3.866 6.26-9.512 7.058v6.996c3.497-.062 6.75-.675 8.345-1.534v24.178h-7.977V124h24.056v-7.241h-7.733V80.06zM156 88.653c0 5.584-3.927 9.512-9.45 9.512-5.646 0-9.45-3.866-9.45-9.634 0-5.4 3.927-9.328 9.45-9.328 5.584 0 9.45 3.927 9.45 9.45m-5.707 0c0-3.314-1.289-5.032-3.744-5.032s-3.742 1.78-3.742 4.97c0 3.437 1.288 5.155 3.742 5.155 2.455 0 3.744-1.718 3.744-5.093M108 64h8V52h12v-8h-12V32h-8v12H96v8h12zm-12 84h32v-8H96zM53.172 49.172a4 4 0 1 0 5.657 5.656 4 4 0 0 0-5.657-5.656M30.544 26.544 36.2 32.2c10.917-10.918 28.68-10.918 39.598 0l5.657-5.657c-14.037-14.036-36.875-14.036-50.912 0zm11.314 11.314 5.657 5.657C49.781 41.249 52.795 40 56 40s6.219 1.249 8.485 3.515l5.657-5.657C66.365 34.081 61.342 32 56 32s-10.365 2.08-14.142 5.858M148 16H81.326a43.7 43.7 0 0 1 8.627 8H148c10.404 0 20 9.596 20 20v104c0 10.404-9.596 20-20 20H76c-10.404 0-20-9.596-20-20V63.95c-.33.027-.662.05-1 .05a11.92 11.92 0 0 1-7-2.273V148c0 14.815 13.185 28 28 28h72c14.815 0 28-13.185 28-28V44c0-14.815-13.185-28-28-28"/></svg>