<svg xmlns="http://www.w3.org/2000/svg" viewBox="0 0 192 192"><path d="M134 86.2c5.5 0 10 4.4 10 9.8 0 3.5-1.9 6.5-4.7 8.3-1.5 1-3.4 1.5-5.3 1.5-.5 0-1 0-1.5-.1-4.8-.7-8.5-4.8-8.5-9.7 0-5.4 4.5-9.8 10-9.8M86 96c0 5.4 4.5 9.8 10 9.8s10-4.4 10-9.8-4.5-9.8-10-9.8-10 4.4-10 9.8m24.9 70.4c-4.8 1-9.8 1.6-14.9 1.6-39.7 0-72-32.3-72-72s32.3-72 72-72 72 32.3 72 72c0 5.1-.5 10.1-1.6 14.9 2.5 1.7 4.8 3.7 6.8 5.9 1.8-6.6 2.7-13.6 2.7-20.8 0-44.1-35.9-80-80-80S16 51.9 16 96s35.9 80 80 80c7.2 0 14.1-1 20.8-2.7-2.2-2.1-4.2-4.4-5.9-6.9m37.1-37.9v-.5h-8v12h-12v8h12v12h8v-12h12v-8h-12zm22.3-2.8c3.6 5.2 5.7 11.5 5.7 18.3 0 17.6-14.3 32-32 32-6.8 0-13.1-2.1-18.3-5.7-2.5-1.7-4.7-3.8-6.6-6.1-4.5-5.5-7.2-12.5-7.2-20.2 0-17.7 14.3-32 32-32 7.6 0 14.7 2.7 20.2 7.2 2.4 1.9 4.4 4.1 6.2 6.5M168 144c0-3.4-.7-6.5-1.9-9.4-1.2-2.8-3-5.4-5.1-7.5-4.3-4.3-10.3-7-17-7-13.2 0-24 10.8-24 24 0 6.6 2.7 12.6 7 17q3.3 3.3 7.5 5.1c2.9 1.2 6.1 1.9 9.4 1.9 13.3-.1 24.1-10.9 24.1-24.1M48 96c0 5.4 4.5 9.8 10 9.8s10-4.4 10-9.8-4.5-9.8-10-9.8-10 4.4-10 9.8"/></svg>