<svg xmlns="http://www.w3.org/2000/svg" viewBox="0 0 192 192"><path d="M148 68v8h-26.93c-.32-4.25-.75-8.42-1.29-12.43l-7.93 1.06c.49 3.67.89 7.47 1.2 11.37H76.87c2.02-22.74 7.36-41.68 14.35-49.17.84-.9 1.67-1.59 2.48-2.05.8-.46 1.56-.68 2.3-.68 2.9 0 6.32 3.56 9.37 9.76l7.18-3.53C106.76 18.57 100.35 16.1 96 16.1c-2.14 0-4.25.58-6.26 1.73-1.51.86-2.98 2.05-4.37 3.54C76.96 30.39 70.92 50.83 68.82 76H48V48H16v8h24v80H16v8h32v-28h20.86c2.77 31.69 12.09 59.9 27.14 59.9 10.31 0 18.98-13.62 23.9-36.97l12.48 19.98 6.78-4.24-20.11-32.18-32.17 20.11 4.24 6.78 21.18-13.24c-4.23 20.89-11.09 31.76-16.3 31.76-7.02 0-16.36-19.31-19.16-51.9H148v8h28V68zM48 108V84h20.29c-.19 3.92-.29 7.92-.29 12 0 3.99.1 8 .31 12zm100 0H76.29c-.19-3.84-.29-7.85-.29-12 0-4.06.11-8.07.32-12H148zm20 8h-12V76h12z"/><path d="M110.638 56.803c-1.023-5.745-2.264-10.964-3.687-15.51l7.634-2.391c1.525 4.87 2.847 10.42 3.93 16.498z"/></svg>