<svg xmlns="http://www.w3.org/2000/svg" viewBox="0 0 192 192"><path d="m114.585 153.098-7.634-2.39c1.424-4.547 2.664-9.766 3.687-15.51l7.876 1.402c-1.082 6.078-2.404 11.629-3.929 16.498"/><path d="M148 68v8H76.84C79.64 43.41 88.98 24.1 96 24.1c5.21 0 12.07 10.87 16.3 31.76L91.12 42.62l-4.24 6.78 32.17 20.11 20.11-32.18-6.78-4.24-12.48 19.98C114.98 29.72 106.31 16.1 96 16.1c-15.05 0-24.37 28.21-27.14 59.9H48V48H16v8h24v80H16v8h32v-28h20.82c2.1 25.17 8.14 45.61 16.55 54.63 1.39 1.49 2.86 2.68 4.37 3.55 2.01 1.14 4.12 1.72 6.26 1.72 4.35 0 10.76-2.47 16.55-14.23l-7.18-3.53c-3.05 6.2-6.47 9.76-9.37 9.76-.74 0-1.5-.22-2.3-.68-.81-.46-1.64-1.15-2.48-2.05-6.99-7.49-12.33-26.43-14.35-49.17h36.18c-.31 3.9-.71 7.7-1.2 11.37l7.93 1.06c.54-4.01.97-8.18 1.29-12.43H148v8h28V68zm-79.71 40H48V84h20.31c-.21 4-.31 8.01-.31 12 0 4.08.1 8.08.29 12m79.71 0H76.32c-.21-3.93-.32-7.94-.32-12 0-4.15.1-8.16.29-12H148zm20 8h-12V76h12z"/></svg>