<svg xmlns="http://www.w3.org/2000/svg" viewBox="0 0 192 192"><path d="M113.704 52.476C111.244 49.63 107.706 48 104 48H84V29c0-7.29-5.71-13-13-13h-9.86l-7.215 31.754a5.16 5.16 0 0 1-2.764 3.364l-8.94 3.56C39.824 50.697 35.247 48 30 48c-7.72 0-14 5.832-14 13.001v42.006c0 7.169 6.28 13 14 13 5.698 0 10.603-3.182 12.785-7.73 4.046 1.664 9.616 3.932 11.149 4.448.301.101.649.234 1.046.385 2.656 1.01 7.6 2.89 15.437 2.89h27.002c6.47 0 12.053-4.855 12.98-11.251l6.461-41.442a13.56 13.56 0 0 0-3.156-10.831M36 103.006c0 2.758-2.691 5.002-6 5.002s-6-2.244-6-5.001V61c0-2.756 2.691-5 6-5s5.999 2.244 5.999 5.001v42.006zm72.95-40.89-6.46 41.442c-.367 2.532-2.547 4.442-5.07 4.442H70.417c-6.368 0-10.265-1.482-12.594-2.367a38 38 0 0 0-1.34-.491c-1.343-.452-7.506-2.962-12.484-5.016V62.58l10.229-4.073.187-.08a13.12 13.12 0 0 0 7.275-8.747L67.526 24H71c2.85 0 5 2.15 5 5v27h28c1.402 0 2.7.607 3.655 1.71a5.54 5.54 0 0 1 1.295 4.406M162 76c-4.98 0-9.35 2.435-11.832 6.082-4.147-1.693-10.408-4.229-12.06-4.78-.308-.102-.663-.238-1.069-.39-2.473-.933-6.905-2.597-13.755-2.87l-1.242 7.968c6.095.101 9.882 1.523 12.174 2.387.517.195.97.364 1.362.495 1.343.448 7.406 2.895 12.422 4.947v39.198l-10.227 4.117-.188.082c-3.627 1.681-6.272 4.892-7.279 8.908L124.496 168h-3.382c-2.82 0-5.114-2.374-5.114-5.291V136H88.205c-1.472 0-2.824-.625-3.806-1.758a5.4 5.4 0 0 1-1.25-4.32l.833-5.922h-8.079l-.675 4.795a13.4 13.4 0 0 0 3.126 10.686A13.04 13.04 0 0 0 88.205 144H108v18.709c0 7.329 5.883 13.291 13.114 13.291h9.783l7.191-32.005c.386-1.536 1.397-2.793 2.782-3.463l8.731-3.516C151.944 141.162 156.618 144 162 144c7.72 0 14-5.832 14-13V89c0-7.168-6.28-13-14-13m6 55c0 2.757-2.691 5-6 5s-6-2.243-6-5V89c0-2.757 2.691-5 6-5s6 2.243 6 5z"/></svg>