<svg xmlns="http://www.w3.org/2000/svg" viewBox="0 0 192 192"><path d="M96 16c-44.112 0-80 35.888-80 80s35.888 80 80 80 80-35.888 80-80-35.887-80-80-80m0 148c-37.495 0-68-30.505-68-68s30.505-68 68-68 68 30.505 68 68-30.504 68-68 68m-.062-112.463c-24.552 0-44.526 19.972-44.526 44.52s19.974 44.521 44.526 44.521 44.526-19.972 44.526-44.52-19.974-44.521-44.526-44.521m35.526 44.52c0 4.095-.705 8.026-1.985 11.689-7.442-3.685-13.361-8.238-13.23-10.529.14-2.415 6.407-6.382 14.251-9.35.624 2.632.964 5.371.964 8.19m-9.234-13.354c-9.099 4.243-13.667 8.84-13.967 14.055-.455 7.921 10.067 14.498 17.724 18.214a35.8 35.8 0 0 1-5.258 6.493 80 80 0 0 0-3.976-4.628c-6.85-7.343-12.64-10.264-17.684-8.94-7.707 2.023-10.702 14.158-11.86 22.593a35.3 35.3 0 0 1-7.839-3.025 80 80 0 0 0 3.225-5.29c4.867-8.782 5.862-15.187 3.04-19.582-4.306-6.701-16.766-5.803-25.146-4.298a36 36 0 0 1-.077-2.237c0-2.096.193-4.147.542-6.144 1.8.498 3.857 1.009 6.01 1.427 3.189.62 6.016.93 8.493.93 5.18 0 8.832-1.358 11.068-4.092 5.024-6.14.378-17.644-3.632-25.15a35.2 35.2 0 0 1 8.07-2.137 80 80 0 0 0 .495 6.053c1.225 9.965 4.186 15.73 9.053 17.627a9.1 9.1 0 0 0 3.33.607c6.723 0 14.38-6.553 19.425-11.79a35.6 35.6 0 0 1 4.537 6.984 80 80 0 0 0-5.573 2.33M98.926 60.672a35.33 35.33 0 0 1 18.547 7.16c-5.79 5.916-11.92 10.115-14.058 9.286-2.254-.879-4.091-8.067-4.489-16.446M75.81 66.81c3.856 7.364 5.973 14.532 4.523 16.303-1.539 1.88-9.001 1.396-17.136-.84A35.73 35.73 0 0 1 75.81 66.81m-13.916 39.387c8.237-1.411 15.767-1.214 17.009.72 1.314 2.047-1.459 9.005-6.108 16.056-5.092-4.383-8.931-10.178-10.9-16.776zm33.268 25.361c1.2-8.255 3.711-15.339 5.938-15.924 2.36-.608 8.093 4.153 13.35 10.728a35.3 35.3 0 0 1-18.512 5.216c-.26 0-.517-.014-.776-.02"/></svg>