<svg xmlns="http://www.w3.org/2000/svg" viewBox="0 0 192 192"><path d="m164 54.3-18 18-7.2-7.2-5.7 5.7 7.2 7.2L82 136.3 55.7 110 114 51.7l7.2 7.2 5.7-5.7-7.2-7.2 6.5-6.5L137.7 28l-10.8-10.8-5.7 5.7 5.2 5.2-82.6 82.6c-6.4 6.4-8.8 15.3-7.4 23.6l-17.6 26.4 12.6 12.6 26.4-17.6c1.6.3 3.2.4 4.7.4 6.8 0 13.6-2.6 18.8-7.8L158 71.6l5.8-5.8L169 71l5.7-5.7zM32.5 162.9l-3.4-3.4 10.8-16.2c1.1 1.7 2.4 3.4 3.9 4.9s3.2 2.8 4.9 3.9zm17-20.3c-7.3-7.3-7.3-19.1 0-26.3l.6-.6L76.3 142l-.6.6c-7.2 7.2-19 7.2-26.2 0"/></svg>