<svg xmlns="http://www.w3.org/2000/svg" viewBox="0 0 192 192"><path d="M147.999 108c0-6.777-4.293-12.842-10.746-15.116l-24.29-8.098A16 16 0 0 0 108 84a15.9 15.9 0 0 0-8 2.147V60c0-6.617-5.384-12-12-12s-12 5.383-12 12v48.126c-3.593-4.823-7.504-10.013-8.953-11.717-4.408-5.185-10.776-6.957-16.225-4.513-5.524 2.479-7.445 8.275-7.646 8.928l-.439 1.427 21.425 48.451C71.387 166.07 87.024 176 103.999 176c24.261 0 44-19.738 44-44l.001-22.003zm-8 24c0 19.85-16.15 36-36 36-13.89 0-26.686-8.126-32.56-20.618l-20.074-45.397c.553-1 1.47-2.225 2.73-2.79 2.574-1.154 5.228.481 6.856 2.396 2.155 2.535 11.168 14.699 15.633 20.777l1.195 1.626 6.22.016V60c0-2.206 1.794-4 4-4s4 1.794 4 4v40h8c0-4.411 3.588-8 8-8 .85 0 1.686.132 2.46.384l24.2 8.067a8.015 8.015 0 0 1 5.34 7.551L140 110zM68 72H44V28h100v44h-36v-8h28V36H52v28h16z"/></svg>