<svg xmlns="http://www.w3.org/2000/svg" viewBox="0 0 192 192"><path d="m69.865 82.485 5.632 5.681-15.516 15.38-15.37-15.441 5.67-5.644L56 88.206V64.003l-24.3-.002 5.93 5.907-5.646 5.668-15.656-15.597 15.679-15.372 5.6 5.713-5.794 5.681L56 56.003V31.808l-5.72 5.743-5.668-5.646 15.369-15.43 15.558 15.411-5.63 5.684L64 31.717v24.287l17 .002 7.291-.003-5.746-5.7 5.634-5.679 15.479 15.355-15.456 15.58-5.68-5.634 5.875-5.922-7.396.003L64 64.004v24.294zM176 114.112l-.001 20.544c0 22.799-18.492 41.347-41.22 41.347-15.905 0-30.555-9.334-37.324-23.778l-19.976-45.33.436-1.423c.19-.621 2.012-6.138 7.263-8.502 5.186-2.337 11.244-.654 15.432 4.288 1.28 1.51 4.375 5.85 7.39 10.164V67.43c0-6.196 5.495-11.43 12-11.43 6.617 0 12 4.911 12 10.948v24c1.924-.889 4.12-1.376 6.5-1.376 1.606 0 3.191.252 4.71.749l22.603 7.561c6.118 2.163 10.186 7.927 10.186 14.364zm-8 .002-.001-1.866c0-3.056-1.924-5.789-4.788-6.801l-22.514-7.531a7.1 7.1 0 0 0-2.197-.344c-4.01 0-6.5 2.463-6.5 6.428h-8V66.948c0-1.763-2.068-2.948-4-2.948-2.056 0-4 1.667-4 3.43v60.582l-6.295-.018-1.187-1.74c-3.206-4.698-11.973-17.418-14.012-19.825-1.448-1.71-3.797-3.178-6.044-2.164-1.11.5-1.884 1.549-2.352 2.379l18.627 42.271c5.42 11.563 17.226 19.088 30.041 19.088 18.318 0 33.22-14.96 33.22-33.348z"/></svg>