<svg xmlns="http://www.w3.org/2000/svg" viewBox="0 0 192 192"><path d="m158.7 100.9-12-20.8c0-.1-.1-.1-.1-.2-7.4-.3-14.2-2.8-19.8-6.9l-22 4.5c-1.7.3-3.2 1-4.7 1.8-2.5 1.4-4.5 3.4-5.9 5.8L81.1 62.6c-1.6-2.8-4.2-4.8-7.3-5.6s-6.3-.4-9.1 1.2C59 61.5 57 68.8 60.3 74.6l24.1 41.7c-5.5-2.4-11.5-4.9-13.6-5.7-6.4-2.3-12.8-.6-16.3 4.2-3.5 4.9-2.3 10.9-2.2 11.6l.3 1.5L95.4 159c7.5 5.2 16.3 7.9 25.2 7.9 7.6 0 15.2-1.9 22-5.9 21-12.1 28.2-39.1 16.1-60.1m-20.2 53.2c-12 7-27.2 6.3-38.5-1.6l-40-29.3c0-1.1.2-2.7 1-3.8 1.7-2.3 4.8-2.2 7.1-1.3 3.1 1.1 17 7.1 23.9 10.2l1.9.8 5.4-3.1-32-55.4c-1.1-1.9-.4-4.4 1.5-5.5.9-.5 2-.7 3-.4s1.9.9 2.4 1.9l20 34.6 6.9-4c-1.1-1.8-1.3-4-.8-6.1.6-2.1 1.9-3.8 3.7-4.9.7-.4 1.5-.7 2.3-.9l25-5.1c3.3-.6 6.7.9 8.4 3.9l12 20.8c10 17.2 4 39.3-13.2 49.2M148 16c-15.4 0-28 12.6-28 28s12.6 28 28 28 28-12.6 28-28-12.6-28-28-28m0 48c-11 0-20-9-20-20s9-20 20-20 20 9 20 20-9 20-20 20m0-20h8v8h-16V32h8zM46.4 82.6c-3.7-6.5-4.7-14-2.8-21.2s6.6-13.3 13-17c13.4-7.7 30.5-3.1 38.2 10.2l-6.9 4c-2.7-4.6-7-7.9-12.1-9.3-5.2-1.4-10.5-.7-15.2 2-4.6 2.7-7.9 7-9.3 12.1-1.4 5.2-.7 10.5 2 15.2z"/></svg>