<svg xmlns="http://www.w3.org/2000/svg" viewBox="0 0 192 192"><path d="m174.933 60-20.386 18.612-5.394-5.908L158.686 64H116v-8h42.686l-9.533-8.705 5.394-5.908zm-98.995-4h-7.787v8h7.787zm-16.044 0h-7.787v8h7.787zM40 64h4v-8h-4zm111.999 48.246v22.41c0 22.799-18.492 41.347-41.22 41.347-15.905 0-30.555-9.334-37.324-23.778l-19.976-45.33.436-1.423c.19-.621 2.012-6.138 7.263-8.502 5.186-2.337 11.245-.654 15.432 4.288 1.28 1.51 4.375 5.85 7.39 10.164V67.43C84 61.234 89.495 56 96 56c6.617 0 12 4.911 12 10.948v24c1.924-.889 4.12-1.376 6.5-1.376 1.606 0 3.191.252 4.71.749l22.603 7.561c6.118 2.163 10.186 7.927 10.186 14.364m-8 1.868v-1.866c0-3.056-1.924-5.789-4.788-6.801l-22.514-7.531a7.1 7.1 0 0 0-2.197-.344c-4.01 0-6.5 2.463-6.5 6.428h-8V66.948C100 65.185 97.932 64 96 64c-2.056 0-4 1.667-4 3.43v60.582l-6.295-.018-1.187-1.74c-3.206-4.698-11.973-17.418-14.012-19.825-1.448-1.71-3.798-3.178-6.044-2.164-1.11.5-1.884 1.549-2.352 2.379l18.627 42.271c5.42 11.563 17.226 19.088 30.041 19.088 18.318 0 33.22-14.96 33.22-33.348l.002-20.541z"/></svg>