<svg xmlns="http://www.w3.org/2000/svg" viewBox="0 0 192 192"><path d="m159.112 100.887-16.97-16.971c-4.793-4.791-12.117-6.045-18.287-3.09l-22.9 11.449c-1.5.762-2.87 1.756-4.068 2.955a15.9 15.9 0 0 0-4.147 7.166l-18.48-18.48c-4.68-4.678-12.293-4.677-16.971 0-4.679 4.68-4.679 12.292 0 16.971l34.03 34.03c-5.95-.87-12.386-1.774-14.615-1.955-6.783-.554-12.54 2.701-14.664 8.282-2.154 5.659.587 11.116.906 11.72l.7 1.32 49.408 19.11a43.8 43.8 0 0 0 14.848 2.586c11.51 0 22.838-4.496 31.21-12.868C167.422 154.802 172 143.752 172 132c0-11.753-4.577-22.803-12.888-31.113m-5.657 56.568c-9.821 9.822-24.614 13.124-37.602 8.445l-46.294-17.907c-.317-1.098-.534-2.614-.043-3.905 1.002-2.633 4.034-3.357 6.542-3.152 3.316.269 18.29 2.497 25.746 3.638l1.997.305 4.405-4.39-45.26-45.259a4.005 4.005 0 0 1 0-5.657 4.006 4.006 0 0 1 5.657 0L96.87 117.84l.017.017 5.657-5.657a7.95 7.95 0 0 1-2.344-5.657c0-2.136.833-4.145 2.344-5.656a8 8 0 0 1 2.01-1.468l22.817-11.407a8.01 8.01 0 0 1 9.115 1.563l16.97 16.969C160.254 113.344 164 122.384 164 132s-3.745 18.656-10.545 25.455m-104.752-8.26 5.908 5.393L36 174.974l-18.613-20.386 5.908-5.394L32 158.727v-42.686h8v42.686zM40 107.937h-8v-7.787h8zm0-16.044h-8v-7.787h8zM40 76h-8v-4h8z"/></svg>