<svg xmlns="http://www.w3.org/2000/svg" viewBox="0 0 192 192"><path d="m23.297 42.346-5.908-5.393L36 16.567l18.612 20.385-5.908 5.395L40 32.813V76h-8V32.813zM40 159.186V116h-8v43.186l-8.703-9.534-5.908 5.394L36 175.432l18.612-20.386-5.908-5.394zM172 132c0 11.752-4.577 22.802-12.888 31.112-8.372 8.372-19.7 12.868-31.21 12.868a43.8 43.8 0 0 1-14.848-2.586l-49.408-19.11-.7-1.32c-.319-.604-3.06-6.061-.906-11.72 2.123-5.58 7.88-8.836 14.664-8.282 2.23.181 8.664 1.085 14.615 1.955l-34.03-34.03c-4.679-4.679-4.679-12.292 0-16.97 4.678-4.678 12.292-4.679 16.97-.001l18.481 18.48a15.9 15.9 0 0 1 4.147-7.166 16 16 0 0 1 4.068-2.955l22.9-11.449c6.17-2.955 13.494-1.701 18.287 3.09l16.97 16.971C167.422 109.197 172 120.247 172 132m-8 0c0-9.616-3.745-18.657-10.545-25.456l-16.969-16.969a8.01 8.01 0 0 0-9.115-1.563l-22.816 11.407a8 8 0 0 0-2.011 1.468 7.95 7.95 0 0 0-2.344 5.656 7.95 7.95 0 0 0 2.343 5.657h.001l-5.657 5.657-.017-.017-28.267-28.267a4.006 4.006 0 0 0-5.658 0 4.005 4.005 0 0 0 0 5.657l45.261 45.26-4.405 4.39-1.997-.306c-7.455-1.14-22.43-3.37-25.746-3.638-2.508-.205-5.54.519-6.542 3.152-.491 1.291-.274 2.807.043 3.905l46.294 17.907c12.988 4.68 27.78 1.377 37.602-8.445 6.8-6.8 10.545-15.84 10.545-25.455"/></svg>