<svg xmlns="http://www.w3.org/2000/svg" viewBox="0 0 192 192"><path d="m173.657 29.657-144 144-11.313-11.313L162.343 18.343l11.313 11.313ZM99.999 69.374V60c0-6.617-5.383-12-12-12s-12 5.383-12 12v33.374l8-8V60c0-2.206 1.794-4 4-4s4 1.794 4 4v17.374zm8-9.374h1.374l5.977-5.977C112.604 41.447 101.387 32 87.999 32c-15.439 0-28 12.561-28 28h8c0-11.028 8.972-20 20-20s20 8.972 20 20M55.866 82.813c1.615 0 3.221.195 4.793.57-5.392-6.296-8.661-14.462-8.661-23.382 0-19.851 16.149-36 36-36 15.489 0 28.723 9.832 33.791 23.583l6.106-6.106c-7.006-15.03-22.25-25.477-39.897-25.477-24.262 0-44 19.738-44 44a43.7 43.7 0 0 0 6.815 23.478 20.2 20.2 0 0 1 5.053-.665Zm81.387 10.071-11.632-3.878-6.324 6.324 15.361 5.121a8.015 8.015 0 0 1 5.34 7.551V132c0 19.851-16.149 36-36 36-13.889 0-26.685-8.126-32.56-20.618l-1.286-2.908-6.064 6.064.072.163c7.226 15.368 22.863 25.298 39.838 25.298 24.262 0 44-19.738 44-44v-24.001c0-6.776-4.292-12.842-10.746-15.115Zm-80.975 20.211-4.913-11.11c.553-1 1.471-2.225 2.73-2.791 2.573-1.153 5.228.482 6.855 2.396.578.68 1.658 2.065 3.003 3.828l5.705-5.705c-1.13-1.471-2.056-2.648-2.614-3.304-4.408-5.186-10.776-6.958-16.225-4.514-5.524 2.479-7.445 8.276-7.646 8.928l-.439 1.428 7.477 16.908 6.065-6.065Z"/></svg>