<svg xmlns="http://www.w3.org/2000/svg" viewBox="0 0 192 192"><path d="M40.723 49.02c1.897 4.755 4.931 6.774 9.989 6.774s8.091-2.15 8.091-5.731c0-3.127-1.644-4.364-8.218-5.927-7.143-1.694-9.356-2.475-11.442-3.843-3.476-2.28-5.12-5.47-5.12-9.965 0-8.857 6.068-14.263 16.057-14.263 8.28 0 14.033 3.191 17.446 9.64l-8.154 3.972c-2.213-3.973-4.678-5.406-9.23-5.406-4.108 0-6.447 1.824-6.447 5.015 0 2.931 1.96 4.299 7.838 5.471 6.132 1.303 9.42 2.41 11.885 3.973 3.54 2.41 5.246 5.797 5.246 10.681C68.664 58.79 62.28 64 50.838 64 41.356 64 35.54 60.548 32 52.863zm91.336 0c1.897 4.755 4.93 6.774 9.988 6.774s8.092-2.15 8.092-5.731c0-3.127-1.644-4.364-8.218-5.927-7.143-1.694-9.356-2.475-11.442-3.843-3.477-2.28-5.12-5.47-5.12-9.965 0-8.857 6.068-14.263 16.056-14.263 8.28 0 14.033 3.191 17.447 9.64l-8.154 3.972c-2.213-3.973-4.678-5.406-9.23-5.406-4.109 0-6.447 1.824-6.447 5.015 0 2.931 1.959 4.299 7.838 5.471 6.132 1.303 9.419 2.41 11.884 3.973 3.54 2.41 5.247 5.797 5.247 10.681C160 58.79 153.615 64 142.173 64c-9.481 0-15.297-3.452-18.837-11.137zM104 176c-16.975 0-32.612-9.93-39.838-25.298l-21.425-48.45.44-1.428c.2-.653 2.12-6.449 7.645-8.928 5.449-2.443 11.816-.673 16.225 4.513 1.45 1.704 5.36 6.894 8.953 11.717V60c0-6.617 5.383-12 12-12s12 5.383 12 12v26.147A15.9 15.9 0 0 1 108 84c1.694 0 3.365.265 4.965.787l24.29 8.097C143.708 95.158 148 101.224 148 108l.001 1.997L148 132c0 24.262-19.739 44-44 44m-52.634-74.015 20.074 45.397C77.313 159.874 90.109 168 103.999 168c19.85 0 36-16.15 36-36l.001-22-.001-1.998a8.015 8.015 0 0 0-5.34-7.55l-24.2-8.068a8 8 0 0 0-2.46-.384c-4.412 0-8 3.589-8 8h-8V60c0-2.206-1.795-4-4-4s-4 1.794-4 4v64.01l-6.22-.016-1.195-1.626c-4.465-6.078-13.478-18.242-15.633-20.777-1.628-1.915-4.284-3.55-6.854-2.397-1.26.566-2.179 1.79-2.732 2.79zm33.988-61.79c0-.055-.005-.106-.005-.162 0-9.9 4.236-15.632 11.505-15.632 6.954 0 11.253 5.993 11.253 15.632 0 4.427-.853 8.014-2.434 10.63A19.86 19.86 0 0 1 107.999 60v.963c6.599-3.972 10.664-11.566 10.664-21.126 0-13.872-9.04-23.837-21.683-23.837-12.959 0-22.188 10.03-22.188 24.098 0 1.597.12 3.135.34 4.613a19.9 19.9 0 0 1 10.22-4.515z"/></svg>