<svg xmlns="http://www.w3.org/2000/svg" viewBox="0 0 192 192"><path d="M70.034 171.4c-.677 1.435-1.435 2.356-2.573 3.223-1.544 1.137-3.413 1.706-5.877 1.706-5.85 0-9.561-3.846-9.561-9.913 0-5.932 3.9-10.075 9.507-10.075 2.654 0 4.74.73 6.256 2.085.84.785 1.381 1.49 2.031 2.79l-4.685 1.977c-.84-1.842-1.896-2.573-3.684-2.573-2.546 0-3.9 1.977-3.9 5.715s1.382 5.715 4.009 5.715c1.896 0 2.952-.759 3.764-2.6zm10.43-14.761c6.149 0 9.887 3.63 9.887 9.588 0 6.066-3.792 9.777-10.022 9.777h-7.475v-19.365zm.082 15.194c2.79 0 4.28-1.923 4.28-5.525s-1.49-5.498-4.334-5.498h-2.303v11.023zm20.56-15.194 3.71 11.727 3.765-11.727h7.53v19.365h-5.228v-13.326l-4.442 13.326h-3.764l-4.388-13.38v13.38h-4.631v-19.365zm22.213 19.365h-4.93l6.988-19.365h6.284l6.852 19.365h-5.66l-1.057-3.277h-7.394zm2.302-7.042h4.983l-2.464-7.557zM136 48c0-5.838-1.227-11.461-3.647-16.714l-7.266 3.348C127.02 38.829 128 43.326 128 48s-.98 9.17-2.913 13.366l7.266 3.348C134.773 59.46 136 53.838 136 48m0 0c0-5.838-1.227-11.461-3.647-16.714l-7.266 3.348C127.02 38.829 128 43.326 128 48s-.98 9.17-2.913 13.366l7.266 3.348C134.773 59.46 136 53.838 136 48m24.03 0c0-9.342-1.967-18.344-5.848-26.756l-7.265 3.352c3.393 7.353 5.113 15.227 5.113 23.404 0 8.17-1.717 16.046-5.104 23.409l7.268 3.342c3.873-8.418 5.836-17.418 5.836-26.751m-12.366 105.372L113.1 58.319A19.85 19.85 0 0 0 116 48c0-11.028-8.972-20-20-20s-20 8.972-20 20c0 3.778 1.072 7.302 2.9 10.32l-34.564 95.052L96 121.799zm-43.993-36.26 18.241-11.148 10.424 28.665zM96 68a19.87 19.87 0 0 0 10.92-3.266l12.203 33.558L96 112.423l-23.123-14.13L85.08 64.734A19.87 19.87 0 0 0 96 68m0-32c6.617 0 12 5.383 12 12s-5.383 12-12 12-12-5.383-12-12 5.383-12 12-12m-36.336 98.628 10.424-28.664 18.24 11.147zm7.25-73.262C64.98 57.171 64 52.674 64 48s.98-9.17 2.913-13.366l-7.266-3.348C57.227 36.54 56 42.162 56 48s1.227 11.461 3.647 16.714l7.266-3.348zM39.97 48c0-8.177 1.72-16.051 5.113-23.404l-7.265-3.352C33.938 29.656 31.97 38.658 31.97 48c0 9.333 1.963 18.333 5.836 26.751l7.268-3.342C41.687 64.046 39.97 56.169 39.97 48"/></svg>