<svg xmlns="http://www.w3.org/2000/svg" viewBox="0 0 192 192"><path d="m57.188 168.854-8-.004.008-18.499H71.32c8.184 0 14.124-5.484 14.124-13.042l.002-2.086q0-.199-.005-.396c-3.863 3.353-8.809 5.399-14.121 5.399H35.07c-5.356 0-12.837-2.1-18.052-12.105l-.962-1.845.958-1.847c1.9-3.663 4.107-6.267 6.404-8.098-2.314-1.826-4.533-4.43-6.435-8.099l-.953-1.84.953-1.84c1.942-3.75 4.198-6.399 6.543-8.246-2.485-1.983-4.667-4.68-6.494-8.056l-1.019-1.881 1-1.891c1.779-3.368 3.933-6.06 6.408-8.041-2.318-1.819-4.54-4.416-6.438-8.08l-.953-1.84.953-1.84c5.223-10.086 12.719-12.204 18.088-12.204H71.32c5.365 0 10.29 1.966 14.124 5.231v-2.32c0-7.554-5.94-13.037-14.124-13.037l-22.125.003V23.849h8v10.5l14.125-.002c12.613 0 22.125 9.044 22.125 21.037v2.514c0 3.032-.598 5.926-1.681 8.568a23 23 0 0 1 1.681 8.663l-.022 2.343c0 3.122-.643 6.123-1.797 8.866a22.9 22.9 0 0 1 1.819 8.92v2.514c0 3.051-.591 5.961-1.662 8.616a23 23 0 0 1 1.662 8.615v2.442c0 3.079-.63 6.038-1.761 8.747a23.8 23.8 0 0 1 1.763 9.033l-.002 2.086c0 11.992-9.511 21.038-22.124 21.038H57.194l-.004 10.502Zm-32.01-42.586c2.583 4.005 5.835 5.959 9.892 5.959h36.25c4.538 0 8.658-2.377 11.262-5.982-2.544-3.581-6.53-5.937-10.917-5.937H35.071c-2.68 0-6.5.661-9.892 5.958Zm58.789-9.945q.762.551 1.477 1.167v-2.312q-.715.604-1.477 1.146Zm-58.821-9.934c2.563 3.979 5.825 5.92 9.924 5.92l36.59-.047c4.511 0 8.521-2.289 11.037-5.818-2.596-3.664-6.772-6.093-11.377-6.093H35.07c-4.069 0-7.331 1.979-9.924 6.037Zm58.591-10.124q.885.618 1.707 1.316v-2.32q0-.175-.004-.349-.82.718-1.703 1.353M35.07 92.352h36.25c4.516 0 8.618-2.384 11.219-6.002-2.606-3.594-6.706-5.961-11.219-5.961H35.07c-4.019 0-7.266 1.948-9.876 5.941 2.678 4.048 5.924 6.022 9.876 6.022m48.661-15.895q.874.626 1.687 1.333l.004-.353.021-2.291a23 23 0 0 1-1.712 1.311m-48.662-4.068H71.15c4.629 0 8.829-2.368 11.46-5.949-2.602-3.588-6.736-5.963-11.29-5.963H35.071c-4.071 0-7.334 1.979-9.927 6.041 2.559 3.995 5.753 5.871 9.926 5.871Zm99.723 96.465-.005-10.503H120.66c-12.613 0-22.124-9.045-22.124-21.042v-2.079a23.8 23.8 0 0 1 1.762-9.035 22.7 22.7 0 0 1-1.762-8.748v-2.442c0-3.048.591-5.958 1.662-8.615a23 23 0 0 1-1.662-8.616V95.26c0-3.146.652-6.169 1.822-8.928a22.9 22.9 0 0 1-1.8-8.896l-.022-2.267c0-3.079.6-6.016 1.685-8.693a22.6 22.6 0 0 1-1.685-8.576v-2.514c0-11.993 9.511-21.037 22.124-21.037l14.125.002v-10.5h8v18.501l-22.125-.003c-8.184 0-14.124 5.483-14.124 13.037v2.323c3.834-3.268 8.76-5.233 14.125-5.233h36.249c5.369 0 12.865 2.116 18.088 12.203l.953 1.84-.953 1.84c-1.898 3.664-4.12 6.261-6.438 8.08 2.476 1.981 4.629 4.673 6.408 8.041l1 1.891-1.019 1.881c-1.827 3.375-4.01 6.072-6.495 8.056 2.345 1.847 4.601 4.496 6.543 8.246l.953 1.84-.953 1.84c-1.902 3.669-4.121 6.273-6.435 8.099 2.297 1.831 4.503 4.435 6.404 8.098l.958 1.847-.962 1.845c-5.215 10.005-12.696 12.105-18.052 12.105h-36.25c-5.311 0-10.258-2.046-14.121-5.399q-.006.2-.005.4v2.079c.001 7.56 5.941 13.045 14.125 13.045h22.123l.009 18.499-8 .004Zm-25.393-42.608c2.604 3.604 6.724 5.981 11.262 5.981h36.25c4.057 0 7.309-1.954 9.892-5.96-3.391-5.296-7.211-5.958-9.891-5.958h-36.596c-4.386 0-8.372 2.354-10.916 5.936Zm-2.862-11.068v2.312q.714-.617 1.477-1.167a22 22 0 0 1-1.477-1.146Zm2.746-8.733c2.516 3.529 6.525 5.817 11.033 5.817l36.601.047c4.094 0 7.355-1.941 9.918-5.92-2.593-4.058-5.855-6.038-9.924-6.038h-36.25c-4.606 0-8.782 2.429-11.378 6.093Zm-2.742-11.536q-.003.175-.004.352v2.321a22 22 0 0 1 1.708-1.318 23 23 0 0 1-1.705-1.355Zm2.903-8.563c2.601 3.624 6.702 6.006 11.217 6.006h36.25c3.952 0 7.198-1.975 9.876-6.023-2.61-3.993-5.857-5.94-9.876-5.94h-36.25c-4.511 0-8.61 2.365-11.216 5.957Zm-2.907-11.2.022 2.253q0 .195.005.391a23 23 0 0 1 1.686-1.333 23 23 0 0 1-1.713-1.312Zm2.837-8.702c2.632 3.579 6.83 5.945 11.457 5.945h36.081c4.109 0 7.372-1.926 9.923-5.875-2.593-4.059-5.855-6.038-9.925-6.038h-36.249c-4.552 0-8.685 2.374-11.288 5.968Z"/></svg>