<svg xmlns="http://www.w3.org/2000/svg" viewBox="0 0 192 192"><path d="M95.998 67.999c9.925 0 18-8.074 18-17.999s-8.075-17.999-18-17.999S78 40.075 78 50s8.074 17.999 18 17.999zm0-27.998c5.514 0 10 4.485 10 9.999s-4.486 9.999-10 9.999S86 55.514 86 50s4.485-9.999 10-9.999zM96 78.073c-9.885 0-17.927 8.042-17.927 17.927S86.115 113.927 96 113.927s17.927-8.042 17.927-17.927S105.885 78.073 96 78.073m0 27.854c-5.474 0-9.927-4.453-9.927-9.927s4.453-9.927 9.927-9.927 9.927 4.453 9.927 9.927-4.453 9.927-9.927 9.927M95.998 124c-9.925 0-18 8.075-18 18s8.075 18 18 18 18-8.075 18-18-8.075-18-18-18m0 28c-5.514 0-10-4.486-10-10s4.486-10 10-10 10 4.486 10 10-4.486 10-10 10m53.684-56.341a4.97 4.97 0 0 0 2.35-4.242V80.973c0-2.757-2.242-5-5-5H136V60.216l13.648-8.529a4.97 4.97 0 0 0 2.351-4.24V37c0-2.757-2.243-5-5-5H136v-8c0-4.411-3.588-8-8-8H64c-4.411 0-8 3.589-8 8v8.001H45c-2.756 0-5 2.243-5 5v10.445a4.97 4.97 0 0 0 2.351 4.24L56 60.217v15.757H45c-2.756 0-5 2.243-5 5v10.445a4.97 4.97 0 0 0 2.351 4.24L56 104.189V124H45c-2.756 0-5 2.243-5 5v10.445a4.97 4.97 0 0 0 2.351 4.24L56 152.215V168c0 4.411 3.589 8 8 8h64c4.412 0 8-3.589 8-8v-15.786l13.648-8.528a4.97 4.97 0 0 0 2.352-4.24V129c0-2.757-2.244-5-5-5h-11v-19.791zm-13.65-11.687h8v5.783l-8 4.999V83.973zM144 40.001v5.782l-8 5V40zm-96 5.782v-5.782h8v10.781zm0 43.972v-5.782h8v10.782zm0 48.027V132h8v10.78zM144 132v5.782l-8 4.999V132zm-16 25.213V168H64V24l64-.005v133.219z"/></svg>