<svg xmlns="http://www.w3.org/2000/svg" viewBox="0 0 192 192"><path d="M68.875 100h54.25c4.894 0 8.875-3.981 8.875-8.875v-26.25c0-4.894-3.981-8.875-8.875-8.875h-54.25C63.981 56 60 59.981 60 64.875v26.25c0 4.894 3.981 8.875 8.875 8.875M68 64.875c0-.482.393-.875.875-.875h54.25c.482 0 .875.393.875.875v26.25a.876.876 0 0 1-.875.875h-54.25a.876.876 0 0 1-.875-.875zM132 118a6 6 0 1 1-12 0 6 6 0 0 1 12 0m-72 0a6 6 0 1 1 12 0 6 6 0 0 1-12 0m84.745 22.545a17.5 17.5 0 0 0 3.255-10.17v-72.75C148 47.907 140.093 40 130.375 40H90.442l26.666-16H128c2.696 0 4.112 4.941 4.12 4.97l7.76-1.94c-.988-3.955-4.438-10.533-11.153-10.986V16H63.273v.057c-7.062.59-10.625 9.49-11.018 10.538l7.49 2.81C60.658 26.972 62.8 24 64 24h37.558L74.892 40H61.625C51.907 40 44 47.907 44 57.625V132c0 3.424 1.09 6.592 2.93 9.197l-14.508 29.014 7.156 3.578L44.472 164h103.056l4.894 9.79 7.156-3.58zM52 57.625C52 52.318 56.318 48 61.625 48h68.75c5.307 0 9.625 4.318 9.625 9.625v72.75c0 5.307-4.318 9.625-9.625 9.625H60c-4.411 0-8-3.589-8-8zM48.472 156l4.761-9.522A15.9 15.9 0 0 0 60 148h70.375a17.5 17.5 0 0 0 8.147-2.011L143.528 156z"/></svg>