<svg xmlns="http://www.w3.org/2000/svg" viewBox="0 0 192 192"><path d="m140 157.657-10.829-10.828 5.658-5.658 5.171 5.172 13.171-13.172 5.658 5.658zM176 144c0 17.645-14.355 32-32 32s-32-14.355-32-32 14.355-32 32-32 32 14.355 32 32m-8 0c0-13.234-10.766-24-24-24s-24 10.766-24 24 10.766 24 24 24 24-10.766 24-24m-48-72H56v8h64zm0 20H56v8h64zm-44.436 55.985v-28.013h9.656v-7.947H56v7.947h9.656v28.013zM120.028 176H40V16h81.815L152 50.497v54.308a40 40 0 0 0-8-.805V56h-28V24H48v144h64.022a40.3 40.3 0 0 0 8.006 8M124 48h15.185L124 30.646z"/></svg>