<svg xmlns="http://www.w3.org/2000/svg" viewBox="0 0 192 192"><path d="M164 68h-7.943l-2.997-17.99a11.96 11.96 0 0 0-11.839-10.027l-90.446.016A11.96 11.96 0 0 0 38.94 50.026L35.945 68H28c-6.617 0-12 5.383-12 12v8c0 6.617 5.383 12 12 12h4v52c-.001 18.237 3.212 21.386 4.268 22.42 1.067 1.047 2.426 1.609 3.814 1.58 1.398-.028 7.717-.015 11.898-.006L56 176c7.096-.001 7.898-9.598 7.989-20h64.022c.091 10.402.893 19.999 7.989 20l4.02-.006c4.182-.009 10.5-.021 11.898.006l.1.001c1.357 0 2.672-.559 3.714-1.58 1.056-1.035 4.27-4.184 4.268-22.421v-52h4c6.617 0 12-5.383 12-12v-8c0-6.617-5.383-12-12-12M46.832 51.34A3.99 3.99 0 0 1 50.776 48l90.446-.016a3.99 3.99 0 0 1 3.946 3.343l6.71 40.273c-1.283.675-4.602 1.85-11.023 2.547C123.985 95.979 96.278 96 96 96s-27.985-.021-44.855-1.854c-6.42-.697-9.74-1.872-11.024-2.547zM24 88v-8c0-2.206 1.794-4 4-4h6.611L32 91.669V92h-4c-2.206 0-4-1.794-4-4m126.394 79.987c-2.531-.01-6.951 0-10.391.007l-2.854.004c-.523-1.504-1.15-5.499-1.149-15.998v-4H56v4c0 10.499-.626 14.494-1.149 15.998l-2.854-.004c-3.44-.007-7.86-.016-10.39-.007C41.031 166.37 40 162.06 40 152v-51.87c2.723.861 6.134 1.519 10.28 1.97C67.585 103.978 94.849 104 96 104s28.416-.021 45.72-1.9c4.146-.451 7.557-1.109 10.28-1.97V152c0 10.06-1.032 14.369-1.606 15.987M168 88c0 2.206-1.794 4-4 4h-4v-.331L157.39 76H164c2.206 0 4 1.794 4 4zm-36 24c-6.617 0-12 5.383-12 12v4c0 6.617 5.383 12 12 12s12-5.383 12-12v-4c0-6.617-5.383-12-12-12m4 16c0 2.206-1.794 4-4 4s-4-1.794-4-4v-4c0-2.206 1.794-4 4-4s4 1.794 4 4zm-76-16c-6.617 0-12 5.383-12 12v4c0 6.617 5.383 12 12 12s12-5.383 12-12v-4c0-6.617-5.383-12-12-12m4 16c0 2.206-1.794 4-4 4s-4-1.794-4-4v-4c0-2.206 1.794-4 4-4s4 1.794 4 4z"/></svg>