<svg xmlns="http://www.w3.org/2000/svg" viewBox="0 0 192 192"><path d="M96.36 104h-.716C87.019 104 80 111.017 80 119.642v40.716C80 168.983 87.018 176 95.643 176h.716c8.625 0 15.641-7.017 15.641-15.642v-40.716c0-8.625-7.016-15.642-15.641-15.642zm7.64 56.358c0 4.214-3.428 7.642-7.641 7.642h-.716C91.43 168 88 164.572 88 160.358v-40.716c0-4.214 3.429-7.642 7.643-7.642h.716c4.213 0 7.641 3.428 7.641 7.642zm39.677-116.25-15.353 2.56 11.828 11.828-4.238 46.618-7.915 15.83V140h8v8h-16v-28.944l8.085-16.17 3.762-41.383-15.343-15.342L109.117 24H82.883l-7.387 22.16-15.343 15.343 3.762 41.383L72 119.056V148H56v-8h8v-19.056l-7.915-15.83-4.238-46.618 11.828-11.828-15.353-2.56-11.057 3.687-2.53-7.59 12.943-4.314 21.608 3.601L77.117 16h37.766l7.83 23.492 21.61-3.6 12.942 4.313-2.53 7.59-11.057-3.686zM120 59.122l-24 4.8-24-4.8v9.528l4.729 14.188L96 92.472l19.271-9.635L120 68.649V59.12zm-11.271 18.042L96 83.528l-12.729-6.365-2.725-8.175L96 72.08l15.454-3.09zM36 124c-6.617 0-12 5.383-12 12v28c0 6.617 5.383 12 12 12s12-5.383 12-12v-28c0-6.617-5.383-12-12-12m4 40c0 2.206-1.794 4-4 4s-4-1.794-4-4v-28c0-2.206 1.794-4 4-4s4 1.794 4 4zm116-40c-6.617 0-12 5.383-12 12v28c0 6.617 5.383 12 12 12s12-5.383 12-12v-28c0-6.617-5.383-12-12-12m4 40c0 2.206-1.794 4-4 4s-4-1.794-4-4v-28c0-2.206 1.794-4 4-4s4 1.794 4 4z"/></svg>