<svg xmlns="http://www.w3.org/2000/svg" viewBox="0 0 192 192"><path d="M62.011 95.999a6.01 6.01 0 0 1-5.318-3.201 5.96 5.96 0 0 1-.424-4.573 5.97 5.97 0 0 1 2.933-3.533 5.97 5.97 0 0 1 4.573-.424 5.96 5.96 0 0 1 3.533 2.933 6.01 6.01 0 0 1-2.51 8.105 6 6 0 0 1-2.788.691Zm108.411-22.21 7.155-3.578-10-20-7.155 3.578 2.211 4.422-8.845 4.422-2.211-4.422-7.155 3.578 2.211 4.422-8.845 4.422-2.211-4.422-7.155 3.578 2.211 4.422-8.845 4.422-2.211-4.422-7.155 3.578 2.211 4.422-8.845 4.422-2.211-4.422-7.155 3.578 2.211 4.422-7.244 3.622L79.36 69.775a12.05 12.05 0 0 0-7.256-6.119 12.05 12.05 0 0 0-9.431 1.066l-5.277 3.016-10.567-10.567-5.657 5.657 9.024 9.024-9.829 5.617-4.134 24.803-21.042 25.25 9.085 16.76.313.49c2.332 3.117 5.95 4.804 9.633 4.804 1.999 0 4.018-.497 5.859-1.533l51.238-28.822a11.99 11.99 0 0 0 4.85-15.826l-1.204-2.407 7.244-3.622 4.211 8.422 7.155-3.578-4.211-8.422 8.845-4.422 4.211 8.422 7.155-3.578-4.211-8.422 8.845-4.422 4.211 8.422 7.155-3.578-4.211-8.422 8.845-4.422 4.211 8.422 7.155-3.578-4.211-8.422 8.845-4.422 4.211 8.422ZM36.16 141.071a4.014 4.014 0 0 1-5.014-.901l-6.338-11.692 13.861-16.633 8.614 22.97-11.123 6.257Zm51.238-28.822-33.06 18.596L44.121 103.6l3.512-21.069 19.008-10.862a3.97 3.97 0 0 1 3.144-.356 3.96 3.96 0 0 1 2.419 2.04l16.81 33.621a3.995 3.995 0 0 1-1.616 5.275"/></svg>