<svg xmlns="http://www.w3.org/2000/svg" xml:space="preserve" viewBox="0 0 192 192"><path d="m176 107.604-3.29-16.452C169.562 75.419 155.633 64 139.59 64H120V48H16v104h12.7c1.653 4.653 6.087 8 11.3 8s9.647-3.347 11.3-8h9.4c1.653 4.653 6.087 8 11.3 8s9.647-3.347 11.3-8h17.4c1.653 4.653 6.087 8 11.3 8s9.647-3.347 11.3-8h9.4c1.653 4.653 6.087 8 11.3 8s9.647-3.347 11.3-8H176zm-11.135-14.883L167.12 104H140V72.018c12.07.194 22.49 8.832 24.865 20.703M24 56h88v64H24zm16 96c-2.206 0-4-1.794-4-4s1.794-4 4-4 4 1.794 4 4-1.794 4-4 4m32 0c-2.206 0-4-1.794-4-4s1.794-4 4-4 4 1.794 4 4-1.794 4-4 4m0-16c-5.213 0-9.647 3.347-11.3 8h-9.4c-1.653-4.653-6.087-8-11.3-8s-9.647 3.347-11.3 8H24v-16h64v16h-4.7c-1.653-4.653-6.087-8-11.3-8m40 16c-2.206 0-4-1.794-4-4s1.794-4 4-4 4 1.794 4 4-1.794 4-4 4m32 0c-2.206 0-4-1.794-4-4s1.794-4 4-4 4 1.794 4 4-1.794 4-4 4m11.3-8c-1.653-4.653-6.087-8-11.3-8s-9.647 3.347-11.3 8h-9.4c-1.653-4.653-6.087-8-11.3-8s-9.647 3.347-11.3 8H96v-16h24V72h12v40h36v32z"/></svg>