<svg xmlns="http://www.w3.org/2000/svg" viewBox="0 0 192 192"><path d="M165.771 67.75 140 63.903V60H16v55.998h4.7A11.9 11.9 0 0 0 20 120c0 6.617 5.383 12 12 12 5.212 0 9.647-3.347 11.3-8h1.4c1.653 4.653 6.087 8 11.3 8 6.617 0 12-5.384 12-12a11.9 11.9 0 0 0-.7-4.001H100V124h4.7c1.652 4.653 6.087 8 11.3 8s9.647-3.346 11.3-8h17.4c1.653 4.653 6.088 8 11.3 8s9.647-3.347 11.3-8h.7a7.95 7.95 0 0 0 5.657-2.343A7.95 7.95 0 0 0 176 116V79.618c0-5.896-4.397-10.998-10.229-11.868M24 68h108v39.998H24V68.001zm8 56c-2.206 0-4-1.795-4-4s1.794-4 4-4 4 1.794 4 4-1.795 4-4 4m24 0c-2.206 0-4-1.795-4-4s1.794-4 4-4 4 1.794 4 4-1.794 4-4 4m60 0c-2.206 0-4-1.794-4-4s1.794-4 4-4 4 1.795 4 4-1.794 4-4 4m40 0c-2.206 0-4-1.795-4-4s1.794-4 4-4 4 1.794 4 4-1.794 4-4 4m12-8h-.7c-1.652-4.653-6.087-8-11.3-8s-9.648 3.347-11.3 8H140V71.991l24.59 3.67a4.024 4.024 0 0 1 3.41 3.957z"/></svg>