<svg xmlns="http://www.w3.org/2000/svg" viewBox="0 0 192 192"><path d="M175.976 95c-.515-19.806-19.958-39-39.778-39H104v84H87.473C85.69 133.11 79.44 128 72 128s-13.69 5.11-15.473 12h-9.054C45.69 133.11 39.44 128 32 128c-8.822 0-16 7.178-16 16s7.178 16 16 16c7.439 0 13.69-5.11 15.473-12h9.054c1.783 6.89 8.034 12 15.473 12s13.69-5.11 15.473-12h33.054c1.783 6.89 8.034 12 15.473 12s13.69-5.11 15.473-12H176V95zM32 152c-4.411 0-8-3.589-8-8s3.589-8 8-8 8 3.589 8 8-3.589 8-8 8m40 0c-4.411 0-8-3.589-8-8s3.589-8 8-8 8 3.589 8 8-3.589 8-8 8m64 0c-4.411 0-8-3.589-8-8s3.589-8 8-8 8 3.589 8 8-3.589 8-8 8m15.473-12c-1.783-6.89-8.034-12-15.473-12s-13.69 5.11-15.473 12H112V64h16v48h40v28zM168 96.33V104h-32V64h.198C151.951 64 168 80.05 168 95.802v.529zM72 20h-8v-4H52v4H36v-4H24v4h-8v48h56zm-8 40H24V28h40zM48 76v30.343l9.171-9.172 5.658 5.658L44 121.657l-18.829-18.828 5.658-5.658L40 106.343V76z"/></svg>