<svg xmlns="http://www.w3.org/2000/svg" viewBox="0 0 192 192"><path d="M133 140h-2c-6.065 0-11-4.226-11-9.42l.045-.602s1.453-9.535 2-13.156c.821-5.442 5.02-8.822 10.955-8.822 6.065 0 11 4.226 11 9.42v13.16c0 5.194-4.935 9.42-11 9.42m-4.973-9.292c.18.474 1.273 1.292 2.973 1.292h2c1.867 0 3-.986 3-1.42v-13.16c0-.434-1.133-1.42-3-1.42-2.74 0-2.917 1.166-3.045 2.017-.474 3.139-1.628 10.72-1.928 12.691m39.777-83.885c.116.374.197.764.197 1.176L168 72h-8V54.626l-8 8v24.906c-1.182.66-4.497 1.892-11.145 2.614-5.21.566-11.455.959-17.606 1.232l-8.317 8.317c8.686-.257 18.797-.728 26.787-1.596 4.147-.45 7.557-1.108 10.28-1.97v57.872c0 8.966-.858 12.63-1.346 13.987a1531 1531 0 0 0-9.697.006l-3.085.006c-.564-1.106-1.871-4.868-1.871-16v-4H66.627L55.8 158.827c-.388 5.957-1.243 8.333-1.671 9.173l-3.085-.006-4.403-.008-7.87 7.869a5.4 5.4 0 0 0 1.311.145c1.379-.028 6.907-.016 10.944-.006l3.974.007c7.04-.001 8.673-9.556 8.951-20.001h64.098c.278 10.445 1.912 20 8.95 20.001l3.975-.007c4.036-.01 9.564-.023 10.944.006l.11.001c1.462 0 2.873-.595 3.983-1.683C157.87 172.498 160 168.544 160 154V88.59l.002-.015V88H160v-8h16l.001-32.001a11.92 11.92 0 0 0-2.316-7.057l-5.88 5.88zM32.001 80v8H32v49.372l8-8V96.13c2.724.861 6.134 1.519 10.28 1.97 5.874.637 12.893 1.06 19.65 1.342l7.741-7.74c-8.643-.25-18.738-.71-26.526-1.556-6.648-.722-9.963-1.954-11.144-2.614V65.413H40V28c0-2.206 1.794-4 4-4h101.373l7.12-7.12A11.9 11.9 0 0 0 148 16H44c-6.617 0-12 5.383-12 12v8h-4c-6.617 0-12 5.383-12 12l.001 32.001h16zM28 44h4v28.001h-7.999L24 48c0-2.206 1.794-4 4-4m145.657-14.343-11.314-11.314-144 144 11.314 11.314zM61.205 108.168A14 14 0 0 0 59 108c-6.065 0-11 4.226-11 9.42v3.953z"/></svg>