<svg xmlns="http://www.w3.org/2000/svg" viewBox="0 0 192 192"><path d="m158.045 114.41 17.612 17.612-17.612 17.613-5.657-5.657 7.956-7.956H31.656l7.956 7.956-5.657 5.657-17.612-17.613 17.612-17.612 5.657 5.657-7.956 7.955h128.688l-7.956-7.955zm7.726-74.66L140 35.903V32H16v56h4.7a11.9 11.9 0 0 0-.7 4.002c0 6.616 5.383 12 12 12 5.212 0 9.647-3.348 11.3-8L44.7 96c1.653 4.653 6.087 8 11.3 8 6.617 0 12-5.384 12-12a11.9 11.9 0 0 0-.7-4H100v8h4.7c1.652 4.653 6.087 8 11.3 8s9.647-3.346 11.3-8h17.4c1.653 4.653 6.088 8 11.3 8s9.647-3.347 11.3-8h.7a7.95 7.95 0 0 0 5.657-2.343A7.95 7.95 0 0 0 176 88V51.618c0-5.896-4.397-10.998-10.229-11.868M24 40h108v40H24zm8 56c-2.206 0-4-1.795-4-4s1.794-4 4-4 4 1.794 4 4-1.795 4-4 4m24 0c-2.206 0-4-1.795-4-4s1.794-4 4-4 4 1.794 4 4-1.794 4-4 4m60 0c-2.206 0-4-1.794-4-4s1.794-4 4-4 4 1.795 4 4-1.794 4-4 4m40 0c-2.206 0-4-1.795-4-4s1.794-4 4-4 4 1.794 4 4-1.794 4-4 4m12-8h-.7c-1.652-4.653-6.087-8-11.3-8s-9.648 3.347-11.3 8H140V43.99l24.59 3.67a4.024 4.024 0 0 1 3.41 3.957z"/></svg>