<svg xmlns="http://www.w3.org/2000/svg" viewBox="0 0 192 192"><path d="m99.997 47.712.006 16.258-8 .003-.006-16.262a28 28 0 0 0 4.003.288c1.357 0 2.69-.1 3.997-.287M72 130.58l-.045-.603s-1.453-9.535-2-13.156C69.134 111.38 64.935 108 59 108c-6.065 0-11 4.226-11 9.42v13.16c0 5.194 4.935 9.42 11 9.42h2c6.065 0 11-4.226 11-9.42m-9.955-12.564c.474 3.139 1.628 10.72 1.928 12.691C63.793 131.182 62.7 132 61 132h-2c-1.867 0-3-.986-3-1.42v-13.16c0-.434 1.133-1.42 3-1.42 2.74 0 2.916 1.166 3.045 2.017zM144 130.58v-13.162c0-5.193-4.935-9.419-11-9.419-5.936 0-10.134 3.38-10.955 8.822-.547 3.62-2 13.156-2 13.156l-.045.603c0 5.193 4.935 9.419 11 9.419h2c6.065 0 11-4.226 11-9.42zm-14.045-12.564c.128-.851.305-2.017 3.045-2.017 1.867 0 3 .986 3 1.42v13.16c0 .434-1.133 1.42-3 1.42h-2c-1.7 0-2.792-.818-2.973-1.292.3-1.97 1.454-9.552 1.928-12.691M67.39 51.137l5.77 5.54L84.064 45.32a28 28 0 0 1-6.762-4.507zm40.546-5.816 10.904 11.356 5.77-5.54-9.912-10.324a28 28 0 0 1-6.762 4.508M159.999 80v8H160v.589L159.998 154c.001 14.544-2.13 18.498-3.988 20.318-1.11 1.088-2.52 1.683-3.984 1.683l-.109-.001c-1.38-.029-6.908-.016-10.944-.006l-3.974.007c-7.04-.001-8.673-9.556-8.951-20.001H63.95c-.278 10.445-1.912 20-8.95 20.001l-3.975-.007c-4.037-.01-9.565-.022-10.944.006l-.11.001c-1.462 0-2.873-.595-3.983-1.683C34.13 172.498 32 168.544 32 154V80l-15.999.001L16 48c0-6.617 5.383-12 12-12h4v-8c0-6.617 5.383-12 12-12h104c6.617 0 12 5.383 12 12v7.999h4.001c6.617 0 12 5.383 12 12L176 80h-16zm.001-8h8l.001-24.001c0-2.206-1.794-4-4-4h-4v19.019zM32 63.018V44h-4c-2.206 0-4 1.794-4 4l.001 24.001H32zM84.715 24c1.687 4.653 6.214 8 11.535 8 5.322 0 9.848-3.347 11.535-8zM152 96.13c-2.723.861-6.133 1.519-10.28 1.97C124.416 99.978 97.152 100 96 100s-28.416-.021-45.72-1.9c-4.146-.451-7.556-1.109-10.28-1.97l.002 57.87c0 8.966.858 12.63 1.346 13.987 2.283-.01 6.316-.001 9.697.006l3.085.006c.564-1.106 1.871-4.868 1.871-16v-4h80v4c0 11.132 1.307 14.894 1.871 16l3.085-.006c3.382-.009 7.413-.018 9.697-.006.488-1.357 1.347-5.021 1.346-13.987zm0-36.194V28c0-2.206-1.794-4-4-4h-31.908c-1.882 9.118-10.063 16-19.842 16s-17.96-6.882-19.841-16H44c-2.206 0-4 1.794-4 4v59.532c1.182.66 4.497 1.892 11.145 2.614C68.015 91.979 95.722 92 96 92s27.985-.021 44.855-1.854c6.648-.722 9.963-1.954 11.144-2.614V65.413H152z"/></svg>