<svg xmlns="http://www.w3.org/2000/svg" viewBox="0 0 192 192"><path d="m20.798 94.62 152 55.324-2.736 7.518-152-55.324zm69.095 75.63q0 2.841-2.347 4.44-2.04 1.4-5.24 1.4-3.72 0-5.8-1.8-1.828-1.572-1.828-4.04 0-3.333 3.414-4.814-2.534-1.426-2.534-4.04 0-2.56 2.134-4.094 1.854-1.347 4.614-1.347 3.146 0 5.054 1.734 1.653 1.494 1.653 3.707 0 2.6-2.507 4.04 3.387 1.493 3.387 4.814m-10.32-8.614q0 1.187.853 1.92.76.627 1.88.627 1.266 0 2.027-.813.666-.707.666-1.76 0-1.215-.853-1.934-.747-.64-1.84-.64-1.32 0-2.08.813-.654.693-.654 1.787m5.973 8.228q0-1.455-1-2.28-.88-.72-2.24-.72-1.627 0-2.507.933-.773.8-.773 2.12 0 1.427 1.013 2.24.894.707 2.267.707 1.573 0 2.467-.92.773-.8.773-2.08m22.976-13.602L97.6 175.784h3.107l10.934-19.522zm-7.628 9.814q-1.44 1.387-3.68 1.387-2.534 0-3.987-1.773-1.254-1.534-1.254-3.934 0-2.72 1.667-4.32 1.455-1.387 3.667-1.387 2.495 0 3.96 1.787 1.28 1.533 1.28 3.867 0 2.787-1.653 4.373m-1.76-4.347q0-2.907-1.947-2.907-1.8 0-1.8 2.907 0 2.894 1.827 2.894 1.92 0 1.92-2.894m16.855 4.68q1.294 1.534 1.294 3.855 0 2.773-1.667 4.387-1.454 1.4-3.68 1.4-2.547 0-3.988-1.774-1.253-1.533-1.253-3.933 0-2.734 1.667-4.334 1.44-1.374 3.654-1.374 2.506 0 3.973 1.774m-2.147 3.908q0-2.894-1.906-2.894-1.827 0-1.827 2.867 0 2.92 1.827 2.92 1.906 0 1.906-2.893m60.817-72.372-10.415 28.615a7.3 7.3 0 0 1-3.8 4.146 7.3 7.3 0 0 1-3.1.692 7.4 7.4 0 0 1-2.52-.448l-.117-.043a10.75 10.75 0 0 1-7.961 3.546 10.7 10.7 0 0 1-3.648-.646c-4.212-1.533-6.871-5.454-7.023-9.68l-12.828-4.67a10.75 10.75 0 0 1-7.96 3.546c-1.213 0-2.445-.207-3.648-.645-3.85-1.402-6.405-4.8-6.932-8.601l-3.538-1.287 2.628-7.218-25.048-9.117a10.63 10.63 0 0 1-6.12 8.69 10.65 10.65 0 0 1-4.514 1.008c-1.234 0-2.471-.217-3.664-.651a10.63 10.63 0 0 1-6.036-5.531 10.7 10.7 0 0 1-.997-4.154l-.23-.084a10.7 10.7 0 0 1-3.436 2.542 10.65 10.65 0 0 1-4.513 1.008c-1.234 0-2.471-.216-3.664-.65-5.542-2.018-8.41-8.167-6.393-13.709a10.6 10.6 0 0 1 1.259-2.412l-3.483-1.268 16.477-45.267 98.75 35.942-1.148 3.153 18.673 10.135c4.619 2.506 6.746 8.12 4.95 13.058M47.212 76.143l24.553 8.936.002.001.002.001 59.157 21.531L141.93 76.38 58.216 45.911zm4.463 10.98a2.67 2.67 0 0 0-1.52-1.394 2.7 2.7 0 0 0-3.455 1.61 2.7 2.7 0 0 0 1.611 3.456 2.68 2.68 0 0 0 2.06-.09 2.68 2.68 0 0 0 1.394-1.52v-.002a2.67 2.67 0 0 0-.09-2.06m17.356 5.475h-.001a2.7 2.7 0 0 0-3.454 1.611 2.68 2.68 0 0 0 .09 2.062 2.68 2.68 0 0 0 1.521 1.393 2.68 2.68 0 0 0 2.06-.09 2.68 2.68 0 0 0 1.394-1.52v-.002a2.67 2.67 0 0 0-.09-2.06 2.67 2.67 0 0 0-1.52-1.394m48.709 18.57a2.67 2.67 0 0 0-1.52-1.394 2.7 2.7 0 0 0-3.455 1.61 2.7 2.7 0 0 0 1.61 3.456 2.7 2.7 0 0 0 3.455-1.611 2.67 2.67 0 0 0-.09-2.062m31.46 11.45a2.68 2.68 0 0 0-1.522-1.394 2.69 2.69 0 0 0-2.06.09 2.698 2.698 0 0 0 .217 4.976 2.7 2.7 0 0 0 3.455-1.611 2.68 2.68 0 0 0-.09-2.062m16.694-30.7-17.624-9.565-12.117 33.288 2.65.964a10.7 10.7 0 0 1 3.434-2.542 10.62 10.62 0 0 1 8.177-.357 10.63 10.63 0 0 1 6.037 5.53c.438.94.73 1.923.882 2.921l9.808-26.948a2.71 2.71 0 0 0-1.247-3.29"/></svg>