<svg xmlns="http://www.w3.org/2000/svg" viewBox="0 0 192 192"><path d="M100 116v8h4.68a12 12 0 0 0 2.401 4.028 11.92 11.92 0 0 0 8.928 3.974c5.162 0 9.644-3.311 11.305-8h17.388c1.653 4.653 6.087 7.999 11.299 7.999s9.647-3.347 11.3-8h.701a7.94 7.94 0 0 0 5.656-2.343 7.95 7.95 0 0 0 2.343-5.657V79.619c0-5.896-4.397-10.998-10.244-11.871l-25.756-3.743v-.004h-8v43.998h-13.277c4.501-4.68 7.276-11.03 7.276-18.02 0-14.347-11.672-26.019-26.02-26.019H92v-3.988H56v3.988H45.781c-14.347 0-26.02 11.672-26.02 26.02 0 6.99 2.776 13.34 7.276 18.019H16v8h4.7a12 12 0 0 0-.701 4.001c0 6.617 5.383 12 12 12 5.213 0 9.648-3.347 11.3-8.001H44.7c1.653 4.653 6.087 8 11.3 8 7.388 0 14.349-7.415 11.3-16H100Zm-68 8c-2.206 0-4-1.794-4-4s1.794-4 4-4 4 1.794 4 4-1.794 4-4 4m24 0c-2.206 0-4-1.794-4-4s1.794-4 4-4 4 1.794 4 4-1.794 4-4 4m43.98-16.001H45.781c-9.936 0-18.02-8.083-18.02-18.02s8.083-18.019 18.02-18.019H99.98c9.936 0 18.02 8.083 18.02 18.02s-8.083 18.019-18.02 18.019m15.809 15.996a3.997 3.997 0 0 1-3.784-4.205c.154-2.919 2.79-3.79 3.99-3.79 2.245 0 4.122 1.87 3.999 4.21-.116 2.203-2.012 3.904-4.205 3.784ZM156 124c-2.206 0-4-1.794-4-4s1.794-4 4-4 4 1.794 4 4-1.794 4-4 4m-16-8.001v-43.91l24.59 3.573a4.025 4.025 0 0 1 3.41 3.956V116h-.7c-1.653-4.653-6.087-8-11.3-8s-9.648 3.347-11.3 8.001h-4.683l-.016-.001Z"/></svg>