<svg xmlns="http://www.w3.org/2000/svg" viewBox="0 0 192 192"><path d="M165.771 67.749 140 63.902V60H16v55.998h4.7a12 12 0 0 0-.701 4.001c0 6.617 5.383 12 12 12 5.213 0 9.648-3.347 11.3-8.001H44.7c1.653 4.653 6.087 8 11.3 8 6.617 0 12-5.383 12-12 0-1.404-.255-2.747-.7-4H100v8h4.699c1.652 4.653 6.087 8 11.3 8s9.647-3.347 11.3-8H144.7c1.653 4.653 6.087 7.999 11.299 7.999s9.647-3.347 11.3-8H168a7.94 7.94 0 0 0 5.656-2.343 7.95 7.95 0 0 0 2.343-5.657V79.615c0-5.896-4.397-10.998-10.229-11.868ZM24 68.001h108v39.998H24zM32 124c-2.206 0-4-1.794-4-4s1.794-4 4-4 4 1.794 4 4-1.794 4-4 4m24 0c-2.206 0-4-1.794-4-4s1.794-4 4-4 4 1.794 4 4-1.794 4-4 4m60 0c-2.206 0-4-1.794-4-4s1.794-4 4-4 4 1.794 4 4-1.794 4-4 4m40 0c-2.206 0-4-1.794-4-4s1.794-4 4-4 4 1.794 4 4-1.794 4-4 4m12-8h-.7c-1.653-4.653-6.087-8-11.3-8s-9.648 3.347-11.3 8.001H140V71.992l24.59 3.671a4.025 4.025 0 0 1 3.41 3.956v36.382Zm-16.005 56v-16.665l-6.329 6.33-5.665-5.665 16-16 16 15.999-5.664 5.665-6.331-6.331v16.666z"/></svg>