<svg xmlns="http://www.w3.org/2000/svg" viewBox="0 0 192 192"><path fill="#231f20" d="m170.15 77.1-32.73-2.99-17.06-11.94a11.95 11.95 0 0 0-6.88-2.17H94c-3.31 0-6 2.69-6 6v10H22c-1.62 0-3.13.63-4.27 1.78A5.94 5.94 0 0 0 16 82.03v24.02c.04 3.27 2.73 5.92 6 5.92h18v.03c0 8.82 7.18 16 16 16s16-7.18 16-16v-.02l56 .01v.01c0 8.82 7.18 16 16 16s16-7.18 16-16h10c3.31 0 6-2.69 6-6V84c0-3.44-2.46-6.34-5.85-6.9M64 112c0 4.41-3.59 8-8 8s-8-3.59-8-8v-.02c.01-4.4 3.6-7.98 8-7.98s7.99 3.58 8 7.98zm80 8c-4.41 0-8-3.59-8-8v-.01c.01-4.41 3.59-7.99 8-7.99s8 3.59 8 8-3.59 8-8 8m24-16h-10.16c-2.76-4.78-7.93-8-13.84-8s-11.07 3.22-13.84 7.99l-60.33-.01C67.06 99.21 61.9 96 56 96s-11.06 3.21-13.83 7.97H24V84h72V68h17.48c.82 0 1.62.25 2.29.72l18.81 13.17L168 84.92z"/></svg>