<svg xmlns="http://www.w3.org/2000/svg" viewBox="0 0 192 192"><path d="M176 113.766c0-5.173-3.297-9.748-8.205-11.384l-7.795-1.64V88h-30.14l-8 12h-10.45l13.903-19.999L160 80V56H98.416L81.378 72H16v44.206l32.697 7.31C43.45 127.127 40 133.167 40 140c0 11.028 8.972 20 20 20 8.183 0 15.226-4.946 18.319-12.001h27.362C108.774 155.054 115.817 160 124 160c8.379 0 15.56-5.185 18.531-12.51L176 139.123zM24 80h60.546l17.038-16h50.415v8l-30.867.001-35.807 51.508L24 109.797zm36 72c-6.617 0-12-5.383-12-12s5.383-12 12-12 12 5.383 12 12-5.383 12-12 12m64 0c-6.617 0-12-5.383-12-12s5.383-12 12-12 12 5.383 12 12-5.383 12-12 12m44-19.123-24.056 6.014C143.364 128.381 134.654 120 124 120c-11.028 0-20 8.972-20 19.999H80c0-3.687-1.021-7.133-2.769-10.102l11.594 2.592L105.85 108h20.292l8-12H152v11.258l13.45 2.78a3.99 3.99 0 0 1 2.55 3.728v19.11zM44.607 87.166l6.568 4.566-11.309 16.269-6.568-4.567zm20.761 0 6.569 4.566-11.31 16.269-6.568-4.567 11.31-16.268zm27.33 4.566L81.387 108l-6.568-4.566 11.309-16.268 6.568 4.566z"/></svg>