<svg xmlns="http://www.w3.org/2000/svg" viewBox="0 0 192 192"><path d="M71.95 113.98s-1.45-9.54-1.99-13.16C69.13 95.38 64.94 92 59 92c-6.07 0-11 4.23-11 9.42v13.16c0 5.19 4.93 9.42 11 9.42h2c6.07 0 11-4.23 11-9.42zM61 116h-2c-1.87 0-3-.99-3-1.42v-13.16c0-.43 1.13-1.42 3-1.42 2.74 0 2.92 1.17 3.04 2.02.48 3.14 1.63 10.72 1.93 12.69-.18.47-1.27 1.29-2.97 1.29m111.58 16.06-23.75-23.75-6.15-6.15A25.7 25.7 0 0 0 144 94c0-6.18-2.17-11.86-5.77-16.32a26 26 0 0 0-5.9-5.36c.08-.14.16-.23.21-.27-.06.05-.16.12-.31.2A25.9 25.9 0 0 0 118 68c-7.25 0-13.82 2.98-18.54 7.79a25.9 25.9 0 0 0-5.42 8.13C92.73 87.02 92 90.43 92 94c0 14.34 11.66 26 26 26 2.85 0 5.59-.46 8.15-1.32l5.85 5.85v19.84c0 6.99-.57 10.23-.96 11.62-1.94-.01-4.89 0-7.4 0l-2.33.01c-.44-1.03-1.31-4.06-1.31-12v-4H52v4c0 7.94-.867 10.97-1.309 11.998l-2.332-.004c-2.514-.006-5.464-.015-7.398-.007-.387-1.387-.961-4.622-.96-11.618V80.891c2.16.62 4.76 1.11 7.81 1.45 13.46 1.53 34.12 1.65 37.69 1.66.88-2.85 2.12-5.54 3.67-8.02-1.94.02-3.12.02-3.17.02-.23 0-23.27-.02-37.29-1.6-4.94-.56-7.61-1.48-8.71-2.03V26.948c0-1.625 1.196-2.947 2.667-2.947h86.666c1.471 0 2.667 1.322 2.667 2.947v36.073a34.15 34.15 0 0 1 11.91 8.98h12.09v-28.89c0-6.13-5.38-11.11-12-11.11h-4v-5.053c0-6.036-4.785-10.947-10.667-10.947H42.667C36.785 16.001 32 20.912 32 26.948v5.053h-4c-6.62 0-12 4.98-12 11.11v28.89h16v72.367c0 12.868 1.788 16.353 3.538 18.065 1.035 1.013 2.355 1.567 3.727 1.567l.11-.001c1.123-.024 5.656-.013 8.965-.005l3.285.006c6.89-.001 8.112-9.143 8.328-16h52.096c.21 6.86 1.43 16 8.32 16l3.29-.01c3.31 0 7.84-.01 8.96.01h.11c1.38 0 2.7-.55 3.73-1.57 1.75-1.71 3.54-5.19 3.54-18.06v-11.85l16.06 16.06c2.21 2.21 5.14 3.42 8.26 3.42s6.05-1.21 8.26-3.42 3.42-5.14 3.42-8.26-1.21-6.05-3.42-8.26ZM144 40c2.17 0 4 1.42 4 3.11V64h-8V40zM24 43.11c0-1.69 1.83-3.11 4-3.11h4v24h-8zM118 112c-9.92 0-18-8.08-18-18 0-3.84 1.21-7.4 3.27-10.32C106.52 79.04 111.92 76 118 76c4.94 0 9.42 2 12.68 5.24C133.97 84.5 136 89.02 136 94c0 9.92-8.07 18-18 18m48.92 30.92c-1.39 1.39-3.81 1.39-5.2 0L140 121.21v-.02l-.7-.7h-.01l-.48-.49h-.02l-5.2-5.2c1.97-1.48 3.73-3.24 5.2-5.21l5.7 5.7 22.43 22.43c.7.69 1.08 1.62 1.08 2.6s-.38 1.91-1.08 2.6"/></svg>