<svg xmlns="http://www.w3.org/2000/svg" viewBox="0 0 192 192"><path d="M52.963 150.941h6.84v9.52h7.975v-9.52h6.84v24.845h-6.84v-9.826h-7.975v9.826h-6.84V150.94zm27.153 0h11.15q4.716 0 7.195 2.495 2.155 2.19 2.155 5.872 0 4.02-2.715 6.16-2.36 1.866-6.297 1.866h-4.649v8.452h-6.84V150.94zm10.555 11.421q3.377 0 3.377-3.156 0-3.123-3.343-3.123h-3.75v6.28h3.716zm26.847-5.923h-6.67v-5.498h20.195v5.498h-6.686v19.347h-6.839zm16.937-5.498h6.838v24.845h-6.838V150.94zm12.642 0h9.554l4.77 15.053 4.836-15.053h9.656v24.845h-6.704v-17.09l-5.702 17.09h-4.836l-5.634-17.157v17.157h-5.94V150.94zm3.488-83.278L98.922 16 34.576 98.731l5.834 5.834-8.822 8.891c-2.914 2.919-2.716 7.86.442 11.014l2.347 2.343L16 145.19l5.656 5.658 18.38-18.381 2.134 2.13c1.661 1.658 3.814 2.497 5.905 2.497 1.887 0 3.722-.682 5.1-2.062l8.873-8.828 5.806 5.805zM99.674 28.064l38.847 38.848-70.003 54.447-23.291-23.291zm-56.921 95.808-5.07-5.063a1 1 0 0 1-.065-.072l8.449-8.515 10.324 10.325L47.895 129a1 1 0 0 1-.072-.064z"/></svg>