<svg xmlns="http://www.w3.org/2000/svg" viewBox="0 0 192 192"><path d="M149.431 67.644 97.768 15.98 33.422 98.713l6.054 6.053-8.821 8.89c-2.793 2.798-2.595 7.541.441 10.574l2.24 2.237-17.563 17.563 5.656 5.657 17.567-17.568 2.24 2.238c1.398 1.396 3.203 2.248 5.082 2.398a7 7 0 0 0 .588.024c1.86 0 3.62-.71 4.895-1.988l8.873-8.827 6.027 6.026zM98.52 28.045l38.847 38.847-70.004 54.448-23.29-23.291zM46.79 129.371a1 1 0 0 1-.341-.233l-5.07-5.064-5.07-5.063a1 1 0 0 1-.235-.343l8.618-8.686 10.766 10.766zm39.374 16.75v-6.45h28.203v6.45h-10.101v29.302h-8.001V146.12h-10.1zm41.601-6.45v35.752h-8V139.67h8zm28.651 24.502 8.1-24.502h11.451v35.752h-7.85v-26.901l-9.101 26.9h-5.9l-9.15-26.95v26.95h-7.151v-35.751h11.5z"/></svg>