<svg xmlns="http://www.w3.org/2000/svg" viewBox="0 0 192 192"><path d="M149.432 67.644 97.768 15.98 33.422 98.712l6.054 6.054-8.822 8.89c-2.793 2.798-2.595 7.541.442 10.574l2.24 2.237-17.564 17.563 5.657 5.657 17.567-17.567 2.24 2.236c1.398 1.397 3.202 2.249 5.081 2.399q.295.025.588.024c1.86 0 3.621-.71 4.896-1.988l8.872-8.827 6.026 6.026zM98.52 28.045l38.847 38.847-70.004 54.448-23.29-23.29zM46.79 129.371a1 1 0 0 1-.34-.233l-5.071-5.064-5.07-5.063a1 1 0 0 1-.236-.343l8.619-8.686 10.765 10.766zm90.677 40.802c-2.8 4.05-6.15 5.8-11.051 5.8-9.85 0-16.55-7.35-16.55-18.251 0-10.95 7.1-18.6 17.85-18.6 4.25 0 7.95 1.25 10.7 3.7 1.4 1.25 2.25 2.45 3.25 4.4l-7.25 2.9c-1.55-3.201-3.7-4.55-7.35-4.55-5.6 0-8.85 4.45-8.85 12.1 0 7.55 3.3 11.85 9.15 11.85 4.8 0 8.15-3.05 8.15-7.4v-.3h-7.55v-5.95h15.351v19.55h-4.45l-1.4-5.25zm38.499-30.502v6.45h-16.652v9.451h12.852v6.25h-12.852v13.6h-8v-35.751z"/></svg>