<svg xmlns="http://www.w3.org/2000/svg" viewBox="0 0 192 192"><path d="M171.757 71.644 120.093 19.98l-64.345 82.73 5.833 5.835-8.821 8.891c-2.915 2.919-2.716 7.86.442 11.014l2.347 2.343-18.377 18.377 5.656 5.658 18.38-18.381 2.134 2.13c1.66 1.658 3.814 2.497 5.905 2.497 1.887 0 3.722-.682 5.1-2.062l8.873-8.828 5.805 5.805 82.732-64.346zm-50.912-39.599 38.847 38.848L89.69 125.34 66.4 102.049l54.446-70.004zm-56.92 95.808-5.07-5.063a1 1 0 0 1-.065-.072l8.448-8.515 10.325 10.325-8.497 8.454a1 1 0 0 1-.071-.065l-5.07-5.063"/></svg>