<svg xmlns="http://www.w3.org/2000/svg" viewBox="0 0 192 192"><path d="M149.432 67.644 97.769 15.981 33.422 98.712l6.054 6.054-8.821 8.89c-2.793 2.798-2.595 7.541.441 10.573l2.24 2.237-17.563 17.564 5.656 5.656 17.567-17.567 2.24 2.237c1.397 1.396 3.202 2.248 5.081 2.398q.295.025.588.024c1.86 0 3.621-.711 4.896-1.988l8.872-8.827 6.026 6.026 82.732-64.347ZM98.521 28.045l38.847 38.846-70.004 54.448-23.291-23.29zM46.79 129.371a1 1 0 0 1-.341-.233l-5.07-5.063-5.07-5.063a1 1 0 0 1-.235-.343l8.618-8.686 10.766 10.766-8.667 8.623Zm49.437 9.654h15.21q6.493 0 9.888 3.467 2.954 3.029 2.954 8.13 0 5.567-3.735 8.496-3.273 2.563-8.765 2.563h-7.544v13.086h-8.008zm14.697 16.7q2.905 0 4.321-1.538 1.245-1.343 1.245-3.711 0-5.102-5.518-5.103h-6.738v10.352h6.689Zm30.469-7.764q6.152 0 9.937 4.346 3.271 3.76 3.271 9.253 0 6.519-4.248 10.4-3.662 3.369-9.155 3.369-6.349 0-10.107-4.272-3.247-3.685-3.247-9.229 0-6.567 4.272-10.474 3.71-3.394 9.277-3.394Zm-.244 5.957q-2.808 0-4.248 2.295-1.27 1.977-1.27 5.42 0 4.005 1.611 5.981 1.44 1.758 3.955 1.758 2.905 0 4.346-2.271 1.27-1.977 1.27-5.469 0-7.715-5.664-7.715Zm16.699-5.298h3.589v-5.249l7.642-2.661v7.91h5.518v5.957h-5.518v11.548q0 2.856 2.197 2.856 1.293 0 2.661-.806l1.855 5.103q-2.638 2.05-6.25 2.051-4.126 0-6.25-2.441-1.855-2.148-1.855-5.811v-12.5h-3.589z"/></svg>