<svg xmlns="http://www.w3.org/2000/svg" viewBox="0 0 192 192"><path d="M149.432 67.644 97.769 15.98 33.422 98.712l6.054 6.054-8.822 8.89c-2.793 2.798-2.594 7.541.442 10.574l2.24 2.237-17.563 17.563 5.656 5.657 17.567-17.568 2.24 2.237c1.398 1.397 3.203 2.249 5.082 2.399q.294.025.587.024c1.86 0 3.621-.71 4.896-1.988l8.872-8.827 6.026 6.026zM98.52 28.045l38.846 38.847-70.004 54.448-23.29-23.29zM46.79 129.371a1 1 0 0 1-.342-.233l-5.07-5.064-5.07-5.063a1 1 0 0 1-.236-.343l8.619-8.686 10.765 10.766zm93.286 31.751c0 9.65-5.1 14.85-14.6 14.85-9.551 0-14.701-5.149-14.701-14.65v-21.651h8v21.25c0 6.002 2 8.552 6.75 8.552 4.851 0 6.952-2.7 6.952-8.85V139.67h7.6v21.451zm33.15-21.451v6.45h-16.652v9.451h12.852v6.25h-12.852v13.6h-8v-35.751z"/></svg>