<svg xmlns="http://www.w3.org/2000/svg" viewBox="0 0 192 192"><path d="M99.328 20.056 51.988 80.92l4.072 4.071-5.49 5.533c-2.525 2.53-2.383 6.783.317 9.48l.864.863-12.304 12.304 5.657 5.658 12.308-12.309.712.711c1.227 1.226 2.82 1.975 4.483 2.108q.266.021.53.021c1.69 0 3.293-.65 4.458-1.817l5.522-5.494 4.051 4.05 60.864-47.339zm-36.31 80.756-2.86-2.855-2.86-2.856 4.42-4.453 5.743 5.744zm-.379-20.555 37.44-48.136 25.889 25.888L77.83 95.45zM52 146.002c0 5.523-4.477 10-10 10s-10-4.477-10-10c0-4.817 3.428-9.634 5.833-13.334 2.588-3.98 4.167-6.666 4.167-6.666s1.579 2.686 4.167 6.666c2.405 3.7 5.833 8.517 5.833 13.334M157.035 116a9.83 9.83 0 0 0-7.96-3.999H136v-10c0-5.514-4.485-10-10-10h-12.246l-3.463 17.315a6.38 6.38 0 0 1-4.159 4.768l-5.512 1.57A11.96 11.96 0 0 0 92.016 112c-6.616 0-11.999 5.383-11.999 12v24c0 6.617 5.383 12 12 12 4.165 0 7.838-2.136 9.99-5.368l1.355 1.355a13.61 13.61 0 0 0 9.689 4.013h28.018a9.27 9.27 0 0 0 8.935-6.648l8.574-28.58a9.83 9.83 0 0 0-1.543-8.773zm-61.02 32c0 2.206-1.793 4-3.999 4a4.004 4.004 0 0 1-3.999-4v-24c0-2.206 1.794-4 4-4a4.004 4.004 0 0 1 3.999 4v24zm54.9-25.527-8.574 28.58c-.167.558-.69.947-1.272.947H113.05a5.66 5.66 0 0 1-4.031-1.67l-5.004-5.004V124a12 12 0 0 0-.05-.981l4.454-1.27.169-.051a14.4 14.4 0 0 0 9.546-10.814L120.312 100H126c1.104 0 2 .897 2 2v18h21.075c.84 0 1.326.485 1.542.774s.54.894.298 1.699"/></svg>