<svg xmlns="http://www.w3.org/2000/svg" viewBox="0 0 192 192"><path d="M158 124c-9.925 0-18 8.075-18 18s8.075 18 18 18 18-8.075 18-18-8.075-18-18-18m0 28c-5.514 0-10-4.486-10-10s4.486-10 10-10 10 4.486 10 10-4.486 10-10 10m15.598-30.804 4.804-6.396A33.8 33.8 0 0 0 168 109.51V104h-4.172c.11-1.328.172-2.661.172-4v-.424l-9.379-43.766C152.66 46.649 144.434 40 135.065 40H48.51C16.37 40 16 59.184 16 60v88h21.05c2.48 6.98 9.13 12 16.95 12s14.47-5.02 16.95-12h43.505c8.708 0 16.363-5.598 19.048-13.93C137.042 123.093 146.657 116 158 116c5.679 0 11.072 1.797 15.598 5.196M100 48v92H76v-16.239c0-10.997-5.534-16.662-10.176-19.478C59.988 100.743 52.91 100 48 100c-1.907 0-4-2.093-4-4V48.153A65 65 0 0 1 48.51 48zM54 152c-5.514 0-10-4.486-10-10s4.486-10 10-10 10 4.486 10 10-4.486 10-10 10m0-28c-9.249 0-16.883 7.013-17.882 16H24V60c0-.094.18-7.444 12-10.592V96c0 6.28 5.72 12 12 12 13.271 0 20 5.303 20 15.761v6.95C64.698 126.624 59.652 124 54 124m71.89 7.616c-1.617 5.015-6.212 8.384-11.435 8.384H108v-32h16v-8h-16V48h27.065c5.622 0 10.556 3.99 11.734 9.485L152.48 84H140v8h14.195l1.803 8.414a40.2 40.2 0 0 1-.828 7.702c-13.634 1.095-24.953 10.073-29.28 23.5"/></svg>