<svg xmlns="http://www.w3.org/2000/svg" viewBox="0 0 192 192"><path d="M176 24h-40v4H85.271c-18.207 0-35.498 7.094-48.685 19.975C23.31 60.94 16 78.042 16 96.128 16 133.553 46.505 164 84 164s68-30.447 68-67.872c0-4.014-.364-8.18-1.03-12.128H176zm-32 72.128C144 129.142 117.084 156 84 156s-60-26.858-60-59.872c0-15.914 6.455-30.982 18.176-42.43C53.86 42.284 69.165 36 85.27 36H136v36h-30.868C99.491 67.027 92.094 64 84 64c-17.645 0-32 14.355-32 32s14.355 32 32 32 32-14.355 32-32a31.8 31.8 0 0 0-4.305-16H136v4h6.843A65.3 65.3 0 0 1 144 96.128M92 96l14.492-8.367C107.465 90.239 108 93.058 108 96s-.535 5.76-1.508 8.367zm10.484 15.29A24 24 0 0 1 88 119.66v-16.732zM88 89.073V72.34a24 24 0 0 1 14.484 8.37L88 89.071zm-8 13.856v16.732a24 24 0 0 1-14.484-8.37zm-18.492 1.44C60.535 101.76 60 98.941 60 96s.535-5.76 1.508-8.367L76 96l-14.492 8.367zm4.008-23.659A24 24 0 0 1 80 72.34v16.733zM168 76h-24V32h24z"/></svg>