<svg xmlns="http://www.w3.org/2000/svg" viewBox="0 0 192 192"><path d="M152 128a7.95 7.95 0 0 0-4.936 1.717C133.78 124.404 136 126.665 136 120H56c0 6.664 2.212 4.407-11.064 9.717C39.707 125.599 32 129.343 32 136c0 9.865 14.5 10.909 15.908 1.145L56 133.908V144h80v-10.092l8.092 3.237c.558 3.87 3.887 6.855 7.908 6.855 10.582 0 10.582-16 0-16m-24 8H64v-8h64zm24-44c-2.953 0-5.532 1.613-6.918 4H136v-8H56v8h-9.082C42.812 88.927 32 91.87 32 100s10.815 11.066 14.918 4H56v8h80v-8h9.082c1.386 2.387 3.964 4 6.918 4 10.582 0 10.582-16 0-16m-24 12H64v-8h64zm17.082-40H136v-8h-36v-5.082c2.387-1.386 4-3.964 4-6.918 0-10.582-16-10.582-16 0 0 2.953 1.613 5.532 4 6.918V56H56v8h-9.082c-1.386-2.387-3.964-4-6.918-4-10.582 0-10.582 16 0 16 2.953 0 5.532-1.613 6.918-4H56v8h80v-8h9.082C149.188 79.073 160 76.13 160 68s-10.815-11.066-14.918-4M128 72H64v-8h64zm48-18.531V176h-8V58.531L96 24.426 24 58.531V176h-8V53.469l80-37.895zM72.008 152.366h4.943c0 14.518.723 18.345-2.766 21.473-3.335 2.983-10.936 3.047-14.162-.62-2.789-3.161-2.146-6.674-2.146-20.853h5.213c0 14.955-1.134 19.407 4.387 19.407 5.689 0 4.53-4.802 4.53-19.407Zm31.105 10.537v12.731h-2.893c-1.635-6.059.12-2.484-4.244-.413-11.614 5.522-19.863-11.964-11.03-20.249 4.497-4.246 13.627-4.43 17.086 2.305l-4.721 1.891c-1.031-2.127-2.456-2.972-4.784-2.972-7.657 0-7.979 15.608.207 15.608 3.038 0 5.293-1.886 5.293-4.832 0-.297.007-.191-4.911-.191 0-5.171-1.504-3.878 9.997-3.878m23.539-10.537h7.454v23.269h-5.118V158.12l-5.928 17.515h-3.83c-7.525-22.153-5.96-23.396-5.96 0h-4.657v-23.269h7.486l5.277 15.942 5.277-15.942Z"/></svg>