<svg xmlns="http://www.w3.org/2000/svg" viewBox="0 0 192 192"><path d="m70 99.99 8 .01c0 .459-.55 43.94-45.567 47.731l8.93 6.612-4.76 6.43-20.198-14.955L31.36 125.62l6.43 4.76-6.996 9.448C69.359 137.102 69.992 101.562 70 99.991zm84.21 30.39 6.996 9.448c-38.565-2.726-39.198-38.266-39.206-39.837l-4 .009h-4c0 .459.55 43.94 45.567 47.731l-8.93 6.612 4.76 6.43 20.198-14.955-14.955-20.198zm-54.24 30.657V100h-8v61.006l-8.172-8.172-5.657 5.658 17.843 17.843 17.845-17.843-5.658-5.658-8.202 8.203zM100 16v8h68.069v48.001c0 2.206-1.795 4-4 4H27.932c-2.205 0-4-1.794-4-4V24H92v-8H15.932v56.001c0 6.617 5.383 12 12 12H164.07c6.617 0 12-5.383 12-12V16z"/></svg>