<svg xmlns="http://www.w3.org/2000/svg" viewBox="0 0 192 192"><path d="M95.986 15.854c-44.12 0-80.013 35.95-80.013 80.14s35.894 80.142 80.013 80.142S176 140.185 176 95.995s-35.894-80.141-80.014-80.141m0 152.282c-39.708 0-72.013-32.363-72.013-72.141s32.305-72.141 72.013-72.141S168 56.216 168 95.994s-32.305 72.142-72.014 72.142m42.729-117.844L136 47.788l-2.712 2.504C132.338 51.169 124 59.121 124 68c0 6.617 5.384 12 12 12s12-5.383 12-12c0-8.88-8.336-16.83-9.286-17.708zM136 72c-2.205 0-4-1.794-4-4 0-2.98 2.053-6.354 4-8.827 1.949 2.474 4 5.848 4 8.827 0 2.206-1.794 4-4 4m-40 .35V64h-8v8.349c-19.558 1.997-44 18.184-44 43.517v7.437l6.205-4.1c2.34-1.547 5.129-2.364 8.062-2.364s5.72.817 8.061 2.364l2.065 1.364 2.142-1.238c2.856-1.65 6.22-2.523 9.732-2.523 2.724 0 5.357.531 7.735 1.537v31.623c0 1.121-.897 2.034-2 2.034s-2-.913-2-2.034V148h-8v1.966c0 5.533 4.486 10.034 10 10.034s10-4.501 10-10.034v-31.625c2.377-1.005 5.009-1.535 7.731-1.535 3.511 0 6.876.872 9.732 2.523l2.142 1.238 2.065-1.364c2.373-1.568 5.161-2.397 8.061-2.397s5.688.829 8.062 2.397l6.205 4.1v-7.437c0-25.332-24.438-41.518-43.998-43.517zm29.732 36.456c-3.652 0-7.198.858-10.383 2.5-3.562-1.641-7.532-2.5-11.617-2.5-4.13 0-8.142.878-11.733 2.554-3.591-1.676-7.604-2.554-11.733-2.554-4.086 0-8.058.859-11.62 2.501-3.164-1.62-6.708-2.468-10.38-2.468-1.905 0-3.775.228-5.576.673C56.705 91.39 77.336 80.136 92 80.136c14.658 0 35.278 11.244 39.304 29.354a22.9 22.9 0 0 0-5.57-.684zM108.001 64c6.617 0 12-5.383 12-12 0-8.88-8.336-16.83-9.287-17.708l-2.713-2.504-2.713 2.504c-.95.877-9.287 8.829-9.287 17.708 0 6.617 5.383 12 12 12m0-20.827c1.948 2.474 4 5.848 4 8.827 0 2.206-1.794 4-4 4s-4-1.794-4-4c0-2.98 2.052-6.355 4-8.827"/></svg>