<svg xmlns="http://www.w3.org/2000/svg" viewBox="0 0 192 192"><path d="M162.712 21.06 160 18.557l-2.713 2.505c-1.139 1.05-11.125 10.573-11.125 21.101C146.162 49.792 152.369 56 160 56s13.837-6.208 13.837-13.838c0-10.528-9.986-20.05-11.125-21.101zM160 48a5.844 5.844 0 0 1-5.838-5.838c0-4.276 3.167-9.103 5.838-12.309 2.671 3.208 5.837 8.034 5.837 12.31A5.844 5.844 0 0 1 160 48m-36 16.001c7.63 0 13.839-6.208 13.839-13.838 0-10.529-9.986-20.051-11.126-21.102L124 26.556l-2.712 2.505c-1.14 1.05-11.126 10.573-11.126 21.102 0 7.63 6.208 13.838 13.838 13.838m0-26.148c2.672 3.208 5.839 8.035 5.839 12.31 0 3.22-2.62 5.838-5.839 5.838s-5.838-2.619-5.838-5.838c0-4.276 3.168-9.103 5.838-12.31m-24 26.316V56h-8v8.169C65.71 66.15 32 87.208 32 120.5v7.311l6.157-3.942c3.442-2.204 7.537-3.369 11.843-3.369s8.401 1.165 11.843 3.369l2.02 1.293 2.092-1.172c4.126-2.312 8.983-3.533 14.045-3.533 4.25 0 8.35.871 12 2.516V164c0 2.206-1.794 4-4 4s-4-1.794-4-4v-4h-8v4c0 6.617 5.383 12 12 12s12-5.383 12-12v-41.027c3.65-1.645 7.75-2.516 12-2.516 5.063 0 9.919 1.221 14.045 3.533l2.092 1.172 2.02-1.293c3.486-2.233 7.581-3.412 11.843-3.412s8.357 1.18 11.843 3.412L160 127.81v-7.31c0-33.292-33.71-54.349-60-56.331m42 48.288c-4.988 0-9.823 1.198-14.12 3.483-4.829-2.284-10.27-3.483-15.88-3.483-5.656 0-11.142 1.218-16 3.54-4.858-2.322-10.344-3.54-16-3.54-5.61 0-11.053 1.199-15.883 3.484C59.853 113.684 55.02 112.5 50 112.5a30.7 30.7 0 0 0-9.483 1.482c2.22-13.741 11.192-23.201 18.88-28.956C70.13 76.99 84.156 72 96 72s25.87 4.991 36.603 13.026c7.684 5.752 16.65 15.206 18.877 28.936a30.3 30.3 0 0 0-9.48-1.505"/></svg>