<svg xmlns="http://www.w3.org/2000/svg" viewBox="0 0 192 192"><path d="M124 16h-8c-4.187 0-8 3.813-8 8v32.446L94.52 68H88v-6.403l4.49-1.41-1.499-4.77-6.087 1.91.392-4.631 7.193-2.259-1.498-4.77-5.24 1.645.393-4.633 6.345-1.992-1.498-4.77-4.39 1.378.391-4.632 5.497-1.726-1.498-4.77-3.543 1.112.392-4.632 4.65-1.46-1.499-4.77-5.01 1.573-.003-1.995-8 .01.006 4.496-6.733 2.114 1.498 4.77 3.374-1.06.408 4.382-5.28 1.658 1.498 4.77 4.256-1.336.407 4.381-6.161 1.935 1.498 4.77 5.137-1.613.407 4.381-7.042 2.212 1.498 4.77 6.018-1.89.408 4.382-7.924 2.488 1.498 4.77L76 65.365V68h-8v53.657l4 4V160h7.99v12a4 4 0 0 0 8 0v-12H96v-34.343l4-4V92h32V24c0-4.187-3.813-8-8-8m-8 8.17a.8.8 0 0 1 .17-.17h7.66a.8.8 0 0 1 .17.17V52h-8zm-24 94.173-4 4V152h-8v-29.657l-4-4V104h16zM124 84H92v12H76V76h21.48l14-12H124z"/></svg>