<svg xmlns="http://www.w3.org/2000/svg" viewBox="0 0 192 192"><path d="M108 164c0 6.627-5.373 12-12 12s-12-5.373-12-12c0-5.223 3.342-9.654 8-11.303v-14.474c-5.71-3.547-22.767-14.136-27.855-17.196-3.716-2.235-8.145-7.128-8.145-17.745v-7.98c-4.658-1.649-8-6.08-8-11.303 0-6.627 5.373-12 12-12s12 5.373 12 12c0 5.223-3.342 9.654-8 11.303v7.98c0 5.522 1.436 9.186 4.269 10.89 4.175 2.512 16.283 10.012 23.731 14.635V40H80l8-12 8-12 8 12 8 12h-12v68.807c7.449-4.623 19.557-12.124 23.732-14.635 2.832-1.704 4.268-5.367 4.268-10.89V72h-8V48h24v24h-8v11.282c0 10.617-4.429 15.51-8.145 17.745-5.088 3.06-22.146 13.649-27.855 17.196v34.474c4.658 1.649 8 6.08 8 11.303m36.056-12.001c-2.249 0-4.055 1.791-4.055 4 0 2.248 1.769 4 4.018 4a3.98 3.98 0 0 0 3.982-4c0-2.171-1.806-4-3.945-4M140.001 128v7.956L141.272 148h5.458l1.271-11.957V128zM176 144c0 17.645-14.355 32-32 32s-32-14.355-32-32 14.355-32 32-32 32 14.355 32 32m-8 0c0-13.233-10.766-24-24-24s-24 10.767-24 24 10.766 24 24 24 24-10.767 24-24"/></svg>