<svg xmlns="http://www.w3.org/2000/svg" viewBox="0 0 192 192"><path d="M144 48v24h-8v11.282c0 10.617-4.43 15.51-8.145 17.745-5.087 3.06-22.145 13.65-27.855 17.196v34.474c4.658 1.65 8 6.08 8 11.303 0 6.627-5.373 12-12 12s-12-5.373-12-12c0-5.223 3.342-9.653 8-11.303v-14.474c-5.71-3.547-22.767-14.135-27.855-17.196C60.429 118.792 56 113.9 56 103.282v-7.98c-4.658-1.649-8-6.08-8-11.302 0-6.627 5.373-12 12-12s12 5.373 12 12c0 5.223-3.342 9.653-8 11.303v7.98c0 5.522 1.436 9.185 4.269 10.889 4.175 2.511 16.282 10.012 23.731 14.635V40H80l8-12 8-12 8 12 8 12h-12v68.807c7.449-4.623 19.557-12.124 23.732-14.635 2.832-1.704 4.268-5.367 4.268-10.89V72h-8V48z"/></svg>