<svg xmlns="http://www.w3.org/2000/svg" viewBox="0 0 192 192"><path d="M106 72c-7.72 0-14 6.28-14 14s6.28 14 14 14 14-6.28 14-14-6.28-14-14-14m0 20a6 6 0 1 1 0-12 6 6 0 0 1 0 12m70.019 9.677c0 17.904-9.105 27.235-17.138 35.467l-.363.372c-6.51 6.672-6.474 15.98-6.452 21.54l.002.894-.05 16.063-8.037-.026.05-16.05-.002-.85c-.025-6.323-.065-18.072 8.65-27.087H140v-8h20.025c1.955-2.43 3.682-5.039 5.03-8H140v-8h27.464c.324-1.957.517-4.043.517-6.323 0-.562-.02-1.119-.036-1.677H140v-8h27.152c-1.683-9.674-5.896-18.422-12.277-25.258-8.992-9.633-21.43-14.723-35.969-14.723-34.213 0-41.507 16.824-43.903 22.353-4 9.226-3.701 27.047-3.698 27.226l.023 1.17-14.97 24.557c-.628 1.032-.235 1.964-.038 2.316.22.392.739 1.05 1.73 1.05h13.256v20.536c0 3.327.843 5.9 2.375 7.249 1.18 1.038 2.894 1.428 5.092 1.162l25.246-4.421V176H95.98v-11.217l-16.1 2.816c-5.767.74-9.443-1.272-11.51-3.09-3.337-2.937-5.102-7.53-5.102-13.282v-12.498h-5.22c-3.658 0-6.924-1.927-8.736-5.153-.142-.253-.252-.517-.37-.778l-.558.03c-8 .988-12.261-4.14-12.261-12.095v-16.126h-9.375c-4.814 0-7.75-5.225-5.198-9.254l14.573-23s-.381-18.304 4.088-28.222c4.468-9.918 14.851-24.19 48.295-24.19 22.042 0 38.43 10.913 47.045 26.256 24.198 6.685 40.467 27.973 40.467 55.48z"/></svg>