<svg xmlns="http://www.w3.org/2000/svg" xml:space="preserve" viewBox="0 0 192 192"><path d="M91.851 118.92C101.534 112.922 108 102.204 108 90c0-18.748-15.252-34-34-34S40 71.252 40 90c0 12.204 6.466 22.922 16.149 28.92C32.877 126.728 16 149.358 16 176h8c0-28.673 22.43-52 50-52s50 23.327 50 52h8c0-26.642-16.877-49.272-40.149-57.08M48 90c0-14.336 11.664-26 26-26s26 11.664 26 26-11.664 26-26 26-26-11.664-26-26m111-53.364c0 5.671-1.81 10.378-5.31 14.24-2.172 2.292-3.861 3.62-9.292 7.24-6.396 4.224-7.844 6.879-7.844 14.12v5.189h-8.81v-6.517c0-8.93 2.535-13.275 11.586-19.67 7-4.827 9.292-8.448 9.292-14.36 0-7.483-5.551-12.551-13.878-12.551-9.172 0-14.723 4.827-16.533 14.602l-9.292-1.207c1.207-7.12 3.258-11.344 7.723-15.326C121.35 18.172 127.745 16 135.106 16 149.346 16 159 24.327 159 36.636m-19.032 59.35c0 4.376-3.625 8-8 8-4.5 0-8-3.499-8-8 0-4.499 3.5-8 8-8 4.375 0 8 3.626 8 8"/></svg>