<svg xmlns="http://www.w3.org/2000/svg" viewBox="0 0 192 192"><path d="m173.27 79.928-2.437-5.104-20.001 20.001c-1.511 1.51-4.145 1.511-5.657 0-.756-.756-1.172-1.76-1.172-2.828s.416-2.073 1.172-2.829l20-20-5.103-2.439c-10.687-5.103-23.493-2.907-31.868 5.469-6.48 6.481-9.349 15.775-7.758 24.729l-8.864 8.863a66 66 0 0 1 6.325 4.99l11.376-11.377-.595-2.228c-1.838-6.888.144-14.291 5.173-19.32 4.522-4.522 10.853-6.522 16.97-5.656l-11.312 11.312c-2.268 2.267-3.516 5.28-3.516 8.486s1.248 6.218 3.515 8.484c2.267 2.268 5.28 3.516 8.485 3.516s6.22-1.248 8.486-3.515L167.8 89.169c.867 6.118-1.134 12.448-5.655 16.97-5.03 5.029-12.433 7.009-19.32 5.173l-2.23-.595-12.1 12.101a66 66 0 0 1 4.218 7.096l10.36-10.36c8.954 1.591 18.247-1.278 24.729-7.759 8.374-8.374 10.572-21.18 5.468-31.867"/><path d="M90.262 104.337C103.1 98.232 112 85.137 112 70c0-20.953-17.047-38-38-38S36 49.047 36 70c0 15.137 8.9 28.232 21.738 34.337C33.65 111.387 16 133.664 16 160h8c0-18.054 9.62-33.9 24-42.692V160h8v-8h36v8h8v-42.692c14.38 8.791 24 24.638 24 42.692h8c0-26.336-17.65-48.614-41.738-55.663M44 70c0-16.542 13.458-30 30-30s30 13.458 30 30-13.458 30-30 30-30-13.458-30-30m48 74H56v-30.635C61.59 111.2 67.655 110 74 110s12.41 1.2 18 3.365z"/></svg>