<svg xmlns="http://www.w3.org/2000/svg" viewBox="0 0 192 192"><path d="M72 16v16.228C54.026 34.225 40 49.502 40 68c0 15.15 9.41 28.14 22.69 33.44C35.66 107.34 16 130.95 16 160h8c0-27.81 20.78-49.857 48-51.839V176h104V16zM48 68c0-14.082 10.449-25.763 24-27.71v55.42C58.449 93.763 48 82.082 48 68m32 100v-18.342L98.343 168zm29.657 0L80 138.343v-16.686L126.345 168zm28.002 0L80 110.344V93.657L154.343 168zM168 168h-2.343L80 82.343V65.658l88 88zm0-25.657-88-88V37.657l88 88zm0-28-88-88V24h14.342L168 97.658zm0-28L105.657 24h16.684L168 69.659zm0-27.999L133.656 24h16.687L168 41.657zm0-28.001L161.658 24H168z"/></svg>