<svg xmlns="http://www.w3.org/2000/svg" xml:space="preserve" viewBox="0 0 192 192"><path d="M144.928 131.092c8.979-5.661 14.96-15.66 14.96-27.036 0-17.615-14.33-31.945-31.944-31.945S96 86.441 96 104.056c0 11.394 6 21.407 15.003 27.063C92.903 137.997 80 155.516 80 176h8c0-22.056 17.944-40 40-40s40 17.944 40 40h8c0-20.51-12.935-38.049-31.072-44.908M104 104.056c0-13.203 10.741-23.945 23.944-23.945s23.945 10.742 23.945 23.945S141.147 128 127.944 128 104 117.259 104 104.056M84 76h16V16H16v60h38.343L84 105.657zm-8 10.343L57.657 68H24V24h68v44H76z"/></svg>