<svg xmlns="http://www.w3.org/2000/svg" viewBox="0 0 192 192"><path d="m22.829 174.829-5.658-5.658 152-152 5.658 5.658zm67.84-90.468 13.979-13.98A23.9 23.9 0 0 1 96 72c-13.234 0-24-10.766-24-24s10.766-24 24-24 24 10.766 24 24c0 3.048-.577 5.963-1.618 8.648l9.594-9.595C127.472 29.846 113.328 16 96 16c-17.645 0-32 14.355-32 32 0 13.325 8.19 24.77 19.798 29.577a47.94 47.94 0 0 0-33.317 31.151l7.585 2.544A39.95 39.95 0 0 1 90.67 84.361zm33.29.651-5.743 5.743C128.93 97.94 136 110.158 136 124h8c0-16.043-7.914-30.269-20.041-38.988M40.029 135v-11H48v3.03l8.03-8.03v-3h-24v27zm109.827 17c-.065 0-6.663.042-34.723.044a15.6 15.6 0 0 0 2.116-2.466l5.316-7.94-3.363-2.217c-.222-.146-22.149-14.603-25.112-16.72a14.8 14.8 0 0 0-5.413-2.407l-9.086 9.085c1.985-.48 3.653-.925 4.448-1.234 1.02-.397 3.442-.333 5.4 1.066 2.38 1.7 15.644 10.476 21.997 14.67l-.797 1.19c-.92 1.326-2.22 2.28-3.395 2.488-.535.096-1.005.026-1.453-.218l-.174-.104-.082-.055-.004.005L84.64 134.71l-4.101 6.868 20.874 12.466q.201.127.407.244l9.639 5.756h1.104c30.28 0 37.28-.044 37.32-.044 1.168 0 2.118.967 2.118 2.156V168H105.02l-36.698-20h-7.35l-16 16H56.03v-8h10.254l36.698 20H160v-13.844c0-5.6-4.539-10.156-10.144-10.156"/></svg>