<svg xmlns="http://www.w3.org/2000/svg" viewBox="0 0 192 192"><path d="M120 72h-8v-8h8zm-16 104h8v-8h-8zm8-160h-8v8h8zm8 64h-8v8h8zm-68 0h8v-8h-8zm-5.427 75.168c-2.07-1.829-3.208-5.153-3.208-9.361v-24.13h-15.7c-1.976 0-2.912-1.313-3.222-1.877-.297-.54-.881-1.965.111-3.53l18.834-29.728-.024-1.205c-.005-.22-.387-22.099 4.75-33.5 2.8-6.219 10.78-23.906 44.78-27.275l5.493-8.422c-29.48 1.308-48.347 11.944-57.568 32.41-5.18 11.5-5.481 30.665-5.466 35.727l-17.557 27.71c-2.273 3.588-2.409 7.95-.362 11.67 2.043 3.713 5.963 6.02 10.23 6.02h7.7v16.13c0 6.627 2.044 11.937 5.91 15.355 3.52 3.114 8.321 4.397 13.885 3.711L76 160.85V176h8v-24.849l-29.95 5.798c-3.208.37-5.72-.227-7.477-1.78zM60 56h-8v8h8zm88.786 66.83c-11.394 11.239-11.394 25.964-11.394 33.041V176h8v-20.129c0-6.45 0-18.456 9.012-27.346 5.415-5.342 10.921-10.78 15.02-17.717l-7.849-2.616c-3.509 5.459-8.08 9.992-12.79 14.638zM168 80h8v-8h-8zm0-24v8h8v-8zm-64 24h-8v8h8zm32 24h-8v72h-8v-72h-8v60h-8v-60h-8v20l-8 6v14h-8v-18l8-6v-16h-8v-8H68v-8h12v-8H64v-8h16v-8H64v-8h16v-8h8v-8h8v8h8V28h8v20h8V28h3.991l24-.053.018 8-20.009.044V48h8v8h28v8h-28v8h28v8h-28v8h20v8h-20zm-8-48H88v40h40zm-24 8h-8v8h8z"/></svg>