<svg xmlns="http://www.w3.org/2000/svg" viewBox="0 0 192 192"><path d="M27.148 84.543a4 4 0 0 1 5.387-1.726l28.452 14.646a4 4 0 0 1-3.661 7.114L28.874 89.93a4 4 0 0 1-1.726-5.388zm31.698-15.17c.043-1.682.198-3.446.509-5.332 2.12-12.833 8.62-23.903 18.305-31.169 10.332-7.753 23.334-10.606 37.597-8.25 33.548 5.54 38.033 22.777 39.507 28.442 2.452 9.425-.646 26.368-.678 26.538l-.217 1.171 10.812 25.938c.41.982-.058 1.734-.278 2.012s-.846.902-1.894.731l-12.999-2.146-1.173 7.106 7.486 3.768.277-1.678 5.106.843c3.636.604 7.178-.765 9.468-3.657s2.81-6.651 1.391-10.057l-9.906-23.763c.716-4.326 2.858-19.17.347-28.821-4.89-18.796-19.92-30.023-45.945-34.32-32.432-5.353-59.81 13.994-65.099 46.008-.154.932-.273 1.84-.369 2.733zm110.283 92.944c-3.143 6.11-8.617 10.543-15.416 12.48a27 27 0 0 1-7.416 1.035c-4.393 0-8.793-1.062-12.855-3.151l-49.664-24.903c-4.34 2.686-8.784 3.912-12.944 4.815l-.317.056c-8.69 1.165-23.448 3.126-24.644 3.171q-.105.005-.228.005c-.99 0-2.816-.21-4.372-1.018-5.26-2.726-7.272-9.322-4.486-14.701 1.533-2.961 4.293-4.358 5.942-5.192l.55-.23 1.595-.526-19.977-10.283a4 4 0 0 1 3.662-7.114l36.926 19.009-19.407 6.416c-.82.419-1.876.998-2.187 1.6-1.002 1.934.121 3.43 1.064 3.92.094.036.429.103.627.117 1.702-.158 15.27-1.95 23.71-3.081 7.357-1.61 14.45-4.062 20.406-15.56 5.835-11.267 3.767-23.967-4.61-28.31l-6.921-3.562-.97-.485-.012-.02-30.319-15.608a4 4 0 0 1-1.726-5.387c.924-1.795 3.015-2.577 4.867-1.93l10.07 5.068q.01.03.017.06l19.848 10.217 67.02 33.51.01-.052 7.486 3.768-.005.03 3.533 1.767c12.94 6.654 17.714 21.292 11.143 34.07zm-14.76-26.935L99.89 108.163c2.067 7.48 1.19 16.436-3.09 24.698-1.983 3.829-4.117 6.87-6.341 9.318l46.604 23.369c4.593 2.362 9.713 2.906 14.457 1.556 4.647-1.325 8.374-4.324 10.494-8.445 4.558-8.865 1.342-18.654-7.647-23.277zM51.83 119.247a4 4 0 0 0 1.834-7.558L21.656 95.213a4 4 0 0 0-3.661 7.113l32.008 16.477c.585.301 1.21.444 1.827.444"/></svg>