<svg xmlns="http://www.w3.org/2000/svg" viewBox="0 0 192 192"><path d="M84.093 92v23.921h-12v60h-8v-68h12V92zm27.915-43.998v19.071l6.417-2.75 3.15 7.354-9.567 4.1v99.855h-8V79.206l-13.411 5.748-1.868-2.65c-.093-.134-9.468-13.442-12.964-18.273-5.26-7.27-12.605-8.11-17.671-8.11-10.598 0-18 6.58-18 16v36h12v68h-8v-60h-12v-44c0-10.847 6.653-19.373 16.729-22.6-5.22-3.155-8.73-8.868-8.73-15.4 0-9.925 8.076-18 18-18s18 8.075 18 18c0 6.382-3.347 11.985-8.37 15.182 4.714 1.335 10.139 4.18 14.523 10.239 2.558 3.534 8.21 11.53 11.156 15.705l10.606-4.545v-22.5h-.001v-32h57.65l-16 16 16 16zm-63.914-14.08c0 5.514 4.486 10 10 10s10-4.486 10-10-4.487-10-10-10-10 4.485-10 10m63.913-9.92v16h30.336l-8-8 8-8z"/></svg>