<svg xmlns="http://www.w3.org/2000/svg" xml:space="preserve" viewBox="0 0 192 192"><path d="M116.983 114.533c-5.224-14.62-16.783-26.038-31.07-31.323C96.71 76.993 104 65.35 104 52.028c0-19.836-16.15-35.973-36-35.973S32 32.192 32 52.028c0 13.308 7.276 24.943 18.056 31.165C30.2 90.517 16 109.631 16 132h8c0-24.262 19.738-44 44-44 20.317 0 38.096 14.111 42.786 33.736a40.3 40.3 0 0 1 6.197-7.203M40 52.028c0-15.424 12.56-27.973 28-27.973s28 12.549 28 27.973S83.439 80 68 80 40 67.452 40 52.028M144 112c-17.645 0-32 14.355-32 32s14.355 32 32 32 32-14.355 32-32-14.355-32-32-32m0 56c-13.234 0-24-10.766-24-24s10.766-24 24-24 24 10.766 24 24-10.766 24-24 24m11.856-35.464-3.163 1.826a13 13 0 0 0-4.693-2.726V128h-8v3.636a13 13 0 0 0-4.694 2.726l-3.162-1.826-4 6.928 3.147 1.817c-.188.878-.291 1.786-.291 2.719s.103 1.841.291 2.719l-3.147 1.817 4 6.928 3.162-1.826a13 13 0 0 0 4.694 2.726V160h8v-3.636a13 13 0 0 0 4.694-2.726l3.162 1.826 4-6.928-3.147-1.817c.188-.878.291-1.786.291-2.719s-.103-1.841-.29-2.719l3.146-1.817zM144 149c-2.757 0-5-2.243-5-5s2.243-5 5-5 5 2.243 5 5-2.243 5-5 5"/></svg>