<svg xmlns="http://www.w3.org/2000/svg" viewBox="0 0 192 192"><path d="M109.2 101.5c10.4-4.1 18.4-12.9 21.4-23.7l3.6 1.8 3.6-7.2-5.8-2.9V68c0-19.9-16.1-36-36-36-8.6 0-16.6 3.1-22.8 8.1l-7.4-3.7-3.6 7.2 5.2 2.6C62.8 52.2 60 59.8 60 68c0 15.2 9.5 28.2 22.8 33.5-26.8 6-46.8 30-46.8 58.5h8c0-28.7 23.3-52 52-52s52 23.3 52 52h8c0-28.5-20-52.5-46.8-58.5M96 40c14.6 0 26.6 11.2 27.9 25.5l-7.9-4c-.3-5.4-5.4-9.5-12-9.5-1.9 0-3.6.3-5.2.9l-17.5-8.8C85.6 41.5 90.6 40 96 40M68 68c0-6.9 2.5-13.3 6.7-18.2l17.9 9c-.4 1-.6 2.1-.6 3.2 0 5.6 5.3 10 12 10 3.5 0 6.6-1.2 8.8-3.1l10.5 5.3C120.5 86.6 109.3 96 96 96c-15.4 0-28-12.6-28-28"/></svg>