<svg xmlns="http://www.w3.org/2000/svg" viewBox="0 0 192 192"><path d="M107.622 150.337a3.974 3.974 0 1 1-7.044 3.68 3.974 3.974 0 0 1 7.044-3.68M174.828 22.83l-5.656-5.657-152 152 5.657 5.657zm-72.474 113.78c-1.941 1.023-2.692 3.438-1.678 5.395a3.95 3.95 0 0 0 5.35 1.692c1.941-1.023 2.692-3.438 1.678-5.394a3.95 3.95 0 0 0-5.35-1.692zm15.604 15.067a3.996 3.996 0 0 0 1.681-5.383 3.967 3.967 0 0 0-5.362-1.688 3.996 3.996 0 0 0-1.682 5.383 3.967 3.967 0 0 0 5.363 1.688m-79.74-43.52 5.91.01.098 12.01c-.006 3.51.576 6.482 1.71 8.917l6.44-6.44a19.5 19.5 0 0 1-.15-2.504l-.162-19.972-13.833-.02a2 2 0 0 1-1.788-1.05c-.21-.383-.482-1.151.017-1.945l15.777-23.964-.073-1.318c-.01-.172-.901-17.28 3.059-26.104 2.4-5.35 9.666-21.612 43.937-21.578 14.555.023 26.992 4.982 35.969 14.341.222.232.431.476.649.713l5.66-5.662c-.18-.194-.352-.396-.536-.588-10.518-10.967-24.947-16.777-41.73-16.804h-.195c-26.408 0-43.111 8.606-51.053 26.303-4.078 9.087-3.951 23.926-3.804 28.478L29.736 92.83c-1.966 3.118-2.08 6.908-.301 10.136a10.04 10.04 0 0 0 8.783 5.191m91.343-10.438a4 4 0 0 0-6.935-3.988l-15.953 27.74a4 4 0 0 0 6.935 3.988zm17.544-35.852a52.7 52.7 0 0 1 1.028 10.444c-.01 6.668-1.523 11.71-3.932 16.006l6.997 3.792c2.93-5.258 4.922-11.596 4.935-19.785.01-5.913-.826-11.648-2.425-17.06zm3.032 82.294c-2.896-1.656-5.97-1.332-7.808-1.138l-2.212.529 11.201-19.477a4 4 0 0 0-6.935-3.988l-20.706 36.003 19.785-5.142c.915-.092 2.116-.18 2.704.158 1.89 1.08 1.76 2.947 1.254 3.835a3 3 0 0 1-.484.473c-1.514.79-13.885 6.648-21.589 10.277-7.053 2.64-14.34 4.43-25.584-2-11.014-6.298-16.167-18.087-11.492-26.271l21.438-37.275c.247-.43.392-.888.468-1.35L89.18 119.79l-7.85 13.65c-6.867 12.023-.38 28.708 14.463 37.194 7.123 4.073 13.169 5.474 18.46 5.474 5.348 0 9.925-1.433 14.06-2.987l.296-.126c7.932-3.736 21.392-10.095 22.42-10.705.79-.468 2.375-1.7 3.316-3.348 2.939-5.144 1.051-11.776-4.208-14.783zm-28.122-9.253a4 4 0 0 0 5.462-1.473l17.948-31.207a4 4 0 0 0-6.935-3.988l-17.948 31.207a4 4 0 0 0 1.473 5.461"/></svg>