<svg xmlns="http://www.w3.org/2000/svg" viewBox="0 0 192 192"><path d="m80.323 114.424 7.354 3.152-12.708 29.65-25.704 8.569-2.53-7.59 22.296-7.432zm24.422 3.9 18.692 26.17-11.114 25.93 7.354 3.152 12.886-30.07-21.308-29.83-6.51 4.649zm41.754-13.448-4.998 6.248-21.678-17.343 1.077-11.946c.87-9.641-2.287-22.014-14.046-25.152-10.35-2.761-20.682 3.315-24.57 14.452-1.78 5.1-4.333 12.18-5.656 15.836l18.2 18.2-5.657 5.658-21.8-21.802.87-2.394c.04-.11 4.02-11.058 6.49-18.134 4.626-13.25 16.693-21.35 29.312-20.372a20 20 0 0 1-1.424-2.106 19.87 19.87 0 0 1-2.013-15.175c2.844-10.654 13.825-17.01 24.48-14.166a19.87 19.87 0 0 1 12.155 9.307 19.87 19.87 0 0 1 2.012 15.175c-2.3 8.62-9.932 14.41-18.404 14.806 5.991 6.235 9.007 15.636 8.02 26.586l-.692 7.665zm-29.664-57.278c6.394 1.705 12.983-2.107 14.689-8.5.827-3.097.398-6.33-1.208-9.104s-4.195-4.758-7.292-5.584a12 12 0 0 0-3.091-.408c-5.303 0-10.166 3.547-11.597 8.907-1.707 6.394 2.106 12.983 8.5 14.69z"/></svg>