<svg xmlns="http://www.w3.org/2000/svg" viewBox="0 0 192 192"><path d="M48 136c5.71 0 10.716-3.016 13.549-7.529C64.98 137.536 73.747 144 84 144h28v-8h48v-8h-56v8H84c-8.822 0-16-7.178-16-16a16.01 16.01 0 0 1 9.55-14.648l23.944-9.642-2.988-7.42-24 9.664-.108.045a24 24 0 0 0-12.85 13.528C58.714 107.015 53.707 104 48 104c-8.822 0-16 7.178-16 16s7.178 16 16 16m0-24c4.411 0 8 3.589 8 8s-3.589 8-8 8-8-3.589-8-8 3.589-8 8-8m57.79-.422-3.58-7.156 25.829-12.914 24.811 12.946-3.7 7.092-21.189-11.054z"/></svg>