<svg xmlns="http://www.w3.org/2000/svg" viewBox="0 0 192 192"><path d="M109.202 101.482C122.538 96.204 132 83.19 132 68c0-19.85-16.15-36-36-36S60 48.15 60 68c0 15.19 9.462 28.204 22.798 33.482C56.047 107.514 36 131.452 36 160h8c0-23.013 15.032-42.57 35.789-49.399l6.984 9.814-7.203 28.812L96 165.657l16.43-16.43-7.203-28.812 6.984-9.814C132.968 117.431 148 136.987 148 160h8c0-28.547-20.047-52.486-46.798-58.518M68 68c0-15.44 12.56-28 28-28s28 12.56 28 28-12.56 28-28 28-28-12.56-28-28m28 86.343-7.57-7.57L94.123 124h3.754l5.693 22.773zM98.55 116h-5.1l-5.274-7.41a52.2 52.2 0 0 1 15.648 0z"/></svg>