<svg xmlns="http://www.w3.org/2000/svg" viewBox="0 0 192 192"><path d="M172.035 131.999a9.83 9.83 0 0 0-7.96-3.999h-12.042v-10c0-5.514-4.486-10-10-10h-13.28l-3.462 17.315a6.38 6.38 0 0 1-4.159 4.768l-4.718 1.344a11.96 11.96 0 0 0-8.38-3.427c-6.618 0-12 5.383-12 12v24c0 6.617 5.382 12 12 12 3.904 0 7.369-1.883 9.561-4.78l.767.767a13.61 13.61 0 0 0 9.689 4.013h28.018a9.27 9.27 0 0 0 8.935-6.648l8.574-28.58a9.83 9.83 0 0 0-1.543-8.773M112.033 164c0 2.206-1.794 4-4 4s-4-1.794-4-4v-24c0-2.206 1.795-4 4-4s4 1.794 4 4zm53.882-25.527-8.574 28.58c-.167.558-.69.947-1.272.947H128.05a5.66 5.66 0 0 1-4.031-1.67l-3.987-3.987V140q-.002-.642-.069-1.266l3.456-.984.169-.052a14.4 14.4 0 0 0 9.546-10.814L135.313 116h6.72c1.103 0 2 .897 2 2v18h20.042c.84 0 1.326.485 1.542.774s.54.894.298 1.699M110.319 120h7.876l.181-.905c-4.257-16.61-16.536-30.032-32.442-35.897C96.72 76.978 104 65.34 104 52.028c0-19.836-16.15-35.973-36-35.973S32 32.192 32 52.028c0 13.308 7.276 24.943 18.056 31.165C30.2 90.517 16 109.631 16 132h8c0-24.262 19.738-44 44-44 20.1 0 37.081 13.555 42.32 32zM40 52.028c0-15.424 12.561-27.973 28-27.973s28 12.549 28 27.973S83.439 80 68 80 40 67.452 40 52.028"/></svg>