<svg xmlns="http://www.w3.org/2000/svg" viewBox="0 0 192 192"><path d="M92 68a4 4 0 1 1 0 8 4 4 0 0 1 0-8m16 4a4 4 0 1 0 8 0 4 4 0 0 0-8 0m23.94 40.002a59.8 59.8 0 0 0-22.738-10.52C122.538 96.204 132 83.19 132 68h-8c0 15.44-12.56 28-28 28S68 83.44 68 68h-8c0 15.19 9.462 28.204 22.798 33.482C56.047 107.514 36 131.452 36 160h8c0-28.673 23.327-52 52-52 8.63 0 16.769 2.126 23.94 5.862a39.9 39.9 0 0 1 12-1.86M68 60h-7.1C64.26 45.26 76.7 33.93 92 32.23V28h8v4.23c12.39 1.37 22.9 9.06 28.24 19.77H144v8zm5.04-8h45.92c-5.07-7.25-13.47-12-22.96-12s-17.89 4.75-22.96 12M164 152a32 32 0 0 1-1.013 8h-8.375a23.9 23.9 0 0 0 1.388-8c0-3.488-.754-6.801-2.098-9.794L136 154.14V160h-8v-5.86l-17.902-11.934A23.85 23.85 0 0 0 108 152c0 2.807.499 5.495 1.388 8h-8.375a32 32 0 0 1-1.013-8c0-17.645 14.355-32 32-32s32 14.355 32 32m-14.544-16.445C145.077 130.91 138.874 128 132 128s-13.077 2.909-17.456 7.555L132 147.193z"/></svg>