<svg xmlns="http://www.w3.org/2000/svg" viewBox="0 0 192 192"><path d="M112 176h8m-37.896-29.98-20.637 16.884 5.066 6.192 23.363-19.116 2.098-37.758-7.988-.444zm21.967-32.271 12 63 7.858-1.498-12-63zM124 84.843V76c0-9.027-4.298-17.065-10.95-22.188C119.538 50.502 124 43.769 124 36c0-11.028-8.972-20-20-20s-20 8.972-20 20c0 4.938 1.808 9.455 4.785 12.947C76.83 52.14 68 63.055 68 76v36h8V76c0-11.028 8.972-20 20-20s20 8.972 20 20v11.157l12.618 19.979 6.764-4.272zM104 24c6.617 0 12 5.383 12 12s-5.383 12-12 12-12-5.383-12-12 5.383-12 12-12"/></svg>