<svg xmlns="http://www.w3.org/2000/svg" viewBox="0 0 192 192"><path d="M124.024 64.062c-8.816 0-15.99 7.172-15.99 15.99s7.174 15.989 15.99 15.989 15.99-7.173 15.99-15.99-7.173-15.99-15.99-15.99zm0 23.979c-4.405 0-7.99-3.584-7.99-7.99s3.585-7.99 7.99-7.99 7.99 3.584 7.99 7.99-3.584 7.99-7.99 7.99M115.982 56h-7.975v-8h7.975zm20.023 0h-7.975v-8h7.975zm-64.04 31.997a8 8 0 1 1 0-16 8 8 0 0 1 0 16m104.018 12.11c0-11.886-8.674-21.78-20.023-23.697v-3.476h.052V30.74a7.99 7.99 0 0 0 4-6.921 8 8 0 0 0-16 0 7.99 7.99 0 0 0 4 6.92v8.436C142.062 32.337 133.297 28 123.532 28H95.987C65.88 28 40.576 48.877 33.766 76.902c-10.225 2.764-17.773 12.118-17.773 23.206 0 13.255 10.784 24.04 24.04 24.04.202 0 .404-.019.606-.024 7.112 12.192 18.133 21.829 31.342 27.188v24.414h8V153.97c3.877 1 7.899 1.634 12.021 1.888L92 176h48v-24.5c9.497-5.613 15.893-15.917 15.956-27.694 11.351-1.916 20.027-11.81 20.027-23.698zM92 36.158v5.71c-12.69 10.876-25.963 13.52-38.852 14.087C62.631 44.716 76.448 37.257 92 36.158m-68.007 63.95c0-6.013 3.33-11.257 8.24-14.002a64 64 0 0 0-.283 5.893 63.6 63.6 0 0 0 4.593 23.756c-7.17-1.599-12.55-8.001-12.55-15.646zm15.957-8.109a55.6 55.6 0 0 1 7.482-27.9c11.43-.02 28.267-.742 44.568-12.125V112h-.04v8H92v7.996c-8.785-.04-15.92-7.194-15.92-15.988h-8c0 13.192 10.703 23.928 23.88 23.989V136H92v11.838c-29.043-2.053-52.05-26.304-52.05-55.84zM124 120v4c0 2.205-1.794 4-4 4h-4v-8zm-16 8h-8v-8h8zm24 40h-32l.002-12h23.53c2.93 0 5.767-.397 8.468-1.127zm15.96-44.366c0 13.435-10.959 24.366-24.429 24.366H100v-12h20c6.617 0 12-5.384 12-12v-12h-32V36h23.531c13.47 0 24.429 10.93 24.429 24.365zm8-8.016v-31.02c6.903 1.79 12.023 8.054 12.023 15.51s-5.12 13.72-12.023 15.51"/></svg>