<svg xmlns="http://www.w3.org/2000/svg" viewBox="0 0 192 192"><path d="M173.035 131.999a9.83 9.83 0 0 0-7.96-3.999H152v-10c0-5.514-4.485-10-10-10h-12.246l-3.463 17.315a6.38 6.38 0 0 1-4.159 4.768l-5.512 1.57a11.96 11.96 0 0 0-8.604-3.653c-6.616 0-11.999 5.383-11.999 12v24c0 6.617 5.383 12 12 12 4.165 0 7.838-2.136 9.99-5.368l1.355 1.355a13.61 13.61 0 0 0 9.689 4.013h28.018a9.27 9.27 0 0 0 8.935-6.648l8.574-28.58a9.83 9.83 0 0 0-1.543-8.773M112.015 164c0 2.206-1.793 4-3.999 4a4.004 4.004 0 0 1-3.999-4v-24c0-2.206 1.794-4 4-4a4.004 4.004 0 0 1 3.999 4v24zm54.9-25.527-8.574 28.58c-.167.558-.69.947-1.272.947H129.05a5.66 5.66 0 0 1-4.031-1.67l-5.004-5.004V140a12 12 0 0 0-.05-.981l4.454-1.27.169-.051a14.4 14.4 0 0 0 9.546-10.814L136.313 116H142c1.104 0 2 .897 2 2v18h21.075c.84 0 1.326.485 1.542.774s.54.894.298 1.699m-45.29-85.796C115.28 33.61 97.295 20 78 20c-19.488 0-37.213 13.362-43.626 32.676C30.651 54.119 28 57.729 28 61.955v16.09C28 83.535 32.466 88 37.955 88h4.09c4.67 0 8.589-3.237 9.657-7.583A30.2 30.2 0 0 0 61.63 91.12C44.414 97.999 32.143 115.517 32.143 136h8c0-22.056 16.893-40 37.657-40v-.005c.067 0 .134.005.201.005.119 0 .236-.008.354-.009V96c5.546 0 10.887 1.25 15.873 3.717l3.547-7.171a45 45 0 0 0-3.339-1.467 30.2 30.2 0 0 0 9.863-10.658c.916 3.72 3.92 6.627 7.7 7.384v17.85c0 1.293-.894 2.345-1.992 2.345h-3.087a7.99 7.99 0 0 0-6.92-4h-8a8 8 0 0 0 0 16h8a7.99 7.99 0 0 0 6.92-3.999h3.087c5.511 0 9.994-4.64 9.994-10.346v-17.85c4.555-.912 7.999-4.94 7.999-9.76v-16.09c0-4.226-2.652-7.836-6.375-9.278M44 78.045A1.957 1.957 0 0 1 42.045 80h-4.09A1.957 1.957 0 0 1 36 78.045v-16.09c0-1.078.877-1.955 1.955-1.955h4.09c1.078 0 1.955.877 1.955 1.955zM78.001 88c-12.13 0-22-9.87-22-22s9.87-21.999 22-21.999 22 9.87 22 22S90.131 88 78.001 88m28.191-32.261C101.992 44.235 90.941 36 78.002 36S54.01 44.236 49.81 55.74a9.95 9.95 0 0 0-6.651-3.675C49.263 37.888 63.264 28.001 78 28.001c14.838 0 28.76 9.86 34.845 24.065a9.95 9.95 0 0 0-6.653 3.673M120 78.045A1.957 1.957 0 0 1 118.045 80h-4.09A1.957 1.957 0 0 1 112 78.045v-16.09c0-1.078.877-1.955 1.955-1.955h4.09c1.078 0 1.955.877 1.955 1.955z"/></svg>