<svg xmlns="http://www.w3.org/2000/svg" xml:space="preserve" viewBox="0 0 192 192"><path d="m104.186 159.162 1.628 7.833A48.4 48.4 0 0 1 96 168c-26.468 0-48-21.533-48-48 0-5.43.9-10.76 2.676-15.84l7.553 2.639A39.9 39.9 0 0 0 56 120c0 22.056 17.944 40 40 40 2.758 0 5.513-.282 8.186-.838m-61.01-68.839 8.116-28.406L17.494 48 96 15.674 174.506 48 168 50.679V80h-8V53.973l-19.292 7.944 8.116 28.406L96 112.333zm90.088-25.341L96 80.326 58.736 64.982l-5.912 20.695L96 103.667l43.176-17.99zM38.506 48 96 71.674 153.494 48 96 24.326zm131.606 114.285c-6.239 9.104-16.356 14.002-26.64 14.003a32.05 32.05 0 0 1-18.174-5.634c-6.434-4.409-10.988-10.892-12.953-18.385l-12.152-8.326 12.078-7.83a32 32 0 0 1 4.657-10.274c10.048-14.662 30.15-18.416 44.814-8.37 7.104 4.868 11.886 12.21 13.467 20.675s-.23 17.038-5.097 24.14m-2.767-22.673a24.08 24.08 0 0 0-10.124-15.543c-11.024-7.554-26.14-4.732-33.694 6.293a24.05 24.05 0 0 0-3.79 8.995l-.328 1.662-4.794 3.108 4.854 3.325.328 1.573a24.13 24.13 0 0 0 10.022 15.03c11.025 7.554 26.14 4.732 33.694-6.293a24.08 24.08 0 0 0 3.832-18.15M132 140a4 4 0 1 0 0 8 4 4 0 0 0 0-8m12 0a4 4 0 1 0 0 8 4 4 0 0 0 0-8m12 0a4 4 0 1 0 0 8 4 4 0 0 0 0-8"/></svg>