<svg xmlns="http://www.w3.org/2000/svg" xml:space="preserve" viewBox="0 0 192 192"><path d="M91.851 118.92C101.534 112.922 108 102.204 108 90c0-18.748-15.252-34-34-34S40 71.252 40 90c0 12.204 6.466 22.922 16.149 28.92C32.877 126.728 16 149.358 16 176h8c0-28.673 22.43-52 50-52s50 23.327 50 52h8c0-26.642-16.877-49.272-40.149-57.08M48 90c0-14.336 11.664-26 26-26s26 11.664 26 26-11.664 26-26 26-26-11.664-26-26m76.01 6h16v8h-16zm32-36c0 8.542-4.596 16.506-11.998 20.787L144.01 88h-8v-7.213a8 8 0 0 1 4.114-6.993A16.07 16.07 0 0 0 148.01 60c0-8.822-7.177-16-16-16-8.832 0-16.01 7.178-16.01 16 0 5.65 3.018 10.922 7.887 13.794A8 8 0 0 1 128 80.787V88h-8v-7.212c-7.402-4.28-12-12.245-12-20.788 0-13.234 10.766-24 24-24 13.244 0 24.01 10.766 24.01 24M136 28h-8V16h8zm40 28v8h-12v-8zm-69.456-15.799-8.485-8.485 5.657-5.657 8.485 8.485zm50.912 0-5.657-5.657 8.485-8.485 5.657 5.657zm0 39.598 8.485 8.485-5.657 5.657-8.485-8.485z"/></svg>