<svg xmlns="http://www.w3.org/2000/svg" xml:space="preserve" viewBox="0 0 192 192"><path d="M91.851 118.92C101.534 112.922 108 102.204 108 90c0-18.748-15.252-34-34-34S40 71.252 40 90c0 12.204 6.466 22.922 16.149 28.92C32.877 126.728 16 149.358 16 176h8c0-28.673 22.43-52 50-52s50 23.327 50 52h8c0-26.642-16.877-49.272-40.149-57.08M48 90c0-14.336 11.664-26 26-26s26 11.664 26 26-11.664 26-26 26-26-11.664-26-26m112-66v-8h-44v8h-16v25.304c0 9.604 6.357 16.504 16.448 18.282 1.799 8.19 8.832 14.613 17.677 16.088V96H124v8h28v-8h-9.875V83.632c8.727-1.553 15.645-7.933 17.427-16.046C169.643 65.808 176 58.908 176 49.304V24zm-52 25.304V32h8v27.295c-3.787-1.077-8-3.687-8-9.991m44 14.144C152 70.37 145.72 76 138 76s-14-5.63-14-12.552V24h28zm16-14.144c0 6.304-4.213 8.914-8 9.991V32h8z"/></svg>