<svg xmlns="http://www.w3.org/2000/svg" viewBox="0 0 192 192"><path d="m109.172 153.171 5.656 5.658L96 177.657l-18.828-18.828 5.656-5.658L92 162.343V140h8v22.343zM92 29.657V52h8V29.657l9.172 9.172 5.656-5.658L96 14.343 77.172 33.171l5.656 5.658zm-38.927 26.35-2.07-7.727-25.72 6.891 6.892 25.72 7.726-2.07-3.356-12.529 19.35 11.172 4-6.928-19.35-11.171zm83.032 21.457 19.35-11.172-3.356 12.53 7.726 2.07 6.893-25.72-25.72-6.892-2.071 7.727 12.528 3.358-19.35 11.171zm-80.21 37.072-19.35 11.172 3.356-12.53-7.726-2.07-6.893 25.72 25.72 6.892 2.071-7.727-12.528-3.358 19.35-11.171zM76 124h-8c0-10.761 6.106-20.118 15.031-24.804C78.736 95.525 76 90.08 76 84c0-11.028 8.972-20 20-20s20 8.972 20 20c0 6.076-2.732 11.517-7.022 15.188a28 28 0 0 1 8.65 7.027l-6.178 5.084A19.95 19.95 0 0 0 96 104c-11.028 0-20 8.972-20 20m20-28c6.617 0 12-5.383 12-12s-5.383-12-12-12-12 5.383-12 12 5.383 12 12 12m80 34c0 10.747-6.175 18.85-11.963 25.603-6.105 7.123-16.919 16.775-17.376 17.183l-2.661 2.37-2.661-2.37c-.457-.408-11.27-10.06-17.376-17.183C118.175 148.851 112 140.747 112 130c0-9.925 8.075-18 18-18 5.648 0 10.697 2.615 14 6.698 3.303-4.083 8.352-6.698 14-6.698 9.925 0 18 8.075 18 18m-8 0c0-5.514-4.486-10-10-10s-10 4.486-10 10h-8c0-5.514-4.486-10-10-10s-10 4.486-10 10c0 7.234 3.84 13.167 10.037 20.397 3.985 4.65 10.377 10.69 13.963 13.995 3.586-3.305 9.978-9.345 13.963-13.995C164.159 143.167 168 137.234 168 130"/></svg>