<svg xmlns="http://www.w3.org/2000/svg" viewBox="0 0 192 192"><path d="m132.034 123.068 7.987.443-1.72 30.988-19.227 15.73-5.065-6.191 16.5-13.5zm16.303 1.782 9.744 51.15 7.858-1.497-9.743-51.151-7.859 1.497zm26.817-9.35-6.802 4.211-10.15-16.394V94.06c0-6.811-4.315-12.598-10.286-14.665a17 17 0 0 1-1.1-.328c-1.19-.31-2.43-.493-3.714-.493-8.327 0-15.101 6.947-15.101 15.486v29.23h-8V94.06c0-10.97 7.437-20.205 17.453-22.774a16.9 16.9 0 0 1-2.178-8.296c0-9.37 7.622-16.991 16.99-16.991s16.991 7.622 16.991 16.99c0 6.575-3.76 12.278-9.237 15.101a23.6 23.6 0 0 1 6.183 15.97v6.982l8.95 14.458zm-31.878-52.51c0 3.783 2.351 7.02 5.667 8.346.497.132.985.285 1.468.45a9 9 0 0 0 1.856.194c4.957 0 8.99-4.033 8.99-8.99 0-4.958-4.033-8.991-8.99-8.991s-8.991 4.033-8.991 8.99zm-58.26 39.523C85.016 109.95 79.177 116 72 116s-13.015-6.05-13.015-13.486c0-10.154 9.181-19.365 10.228-20.382L72 79.424l2.788 2.707c1.046 1.017 10.228 10.228 10.228 20.382m-8 0c0-3.972-2.646-8.388-5.01-11.452-2.365 3.075-5.02 7.503-5.02 11.452 0 3.025 2.25 5.486 5.014 5.486s5.016-2.46 5.016-5.486m32.81-57.475q.054-.838.054-1.668c0-14.998-12.574-27.2-28.03-27.2-8.79 0-16.848 3.874-22.134 10.503a22.2 22.2 0 0 0-5.69-.735c-10.217 0-18.935 6.97-21.155 16.379-9.753 2.107-16.994 10.61-16.994 20.589C15.877 74.537 25.614 84 37.583 84H56v-8H37.584c-7.558 0-13.707-5.874-13.707-13.094 0-6.853 5.6-12.589 12.75-13.058l3.483-.229.245-3.481c.482-6.841 6.487-12.2 13.67-12.2 1.96 0 3.855.39 5.637 1.16l3.16 1.365 1.82-2.922c3.658-5.867 10.09-9.37 17.208-9.37 11.045 0 20.03 8.612 20.03 19.199 0 1.063-.097 2.151-.29 3.237l-.552 3.113 2.901 1.256c4.896 2.12 8.06 6.803 8.06 11.93 0 7.22-6.15 13.094-13.707 13.094H88v8h10.292c11.97 0 21.707-9.463 21.707-21.094 0-7.315-3.91-14.046-10.173-17.868"/></svg>