<svg xmlns="http://www.w3.org/2000/svg" viewBox="0 0 192 192"><path d="M176 172H67.351l-48.616-16.205 2.53-7.59L68.65 164H176zm-78.5-72 1.386 8H176v-8zm-41.827-4.325-34.408-11.47-2.53 7.59 36.38 12.126zm48.709-14.06-6.764 4.27L88 70.658V62c0-7.72-6.28-14-14-14s-14 6.28-14 14v21.914h-8V62c0-9.652 6.25-17.866 14.914-20.823A15.9 15.9 0 0 1 64 32c0-8.822 7.178-16 16-16s16 7.178 16 16c0 5.682-2.986 10.668-7.462 13.508C93.108 49.542 96 55.438 96 62v6.343zM72 32c0 4.411 3.589 8 8 8s8-3.589 8-8-3.589-8-8-8-8 3.589-8 8m86.829 85.171-5.658 5.658 9.172 9.171H95.32l-8.388-44.737-7.864 1.474L87.18 132H68.65l-10.934-3.645L70.4 117.978l1.594-29.764-7.988-.428-1.406 26.236-13.86 11.341-27.475-9.158-2.53 7.59L67.35 140h94.992l-9.172 9.171 5.658 5.658L177.657 136z"/></svg>