<svg xmlns="http://www.w3.org/2000/svg" viewBox="0 0 192 192"><path d="M93.848 113.527C109.099 107.881 120 93.191 120 76.001c0-22.056-17.944-40-40-40s-40 17.944-40 40c0 17.19 10.901 31.88 26.152 37.526C37.5 119.874 16 145.466 16 176h8c0-20.682 11.279-38.767 28-48.465v48.467h7.999v-12.001h40.002V176h8v-48.465C124.722 137.233 136 155.318 136 176h8c0-30.534-21.5-56.126-50.152-62.473M48 76c0-17.645 14.355-32 32-32s32 14.355 32 32-14.355 32-32 32-32-14.355-32-32m11.999 80.001v-32.294c6.217-2.385 12.956-3.706 20.001-3.706s13.785 1.321 20.001 3.706v32.294zM166.449 51.59l-12.735 31.838H176l-35.021 44.573 12.735-35.021h-22.286z"/></svg>