<svg xmlns="http://www.w3.org/2000/svg" xml:space="preserve" viewBox="0 0 192 192"><path d="M176 85.42c0 21.801-10.979 32.631-21.596 43.105-9.012 8.89-9.012 20.896-9.012 27.346V176h-8v-20.129c0-7.077 0-21.802 11.394-33.041C158.667 113.082 168 103.875 168 85.42c0-16.62-5.981-31.94-16.842-43.135C139.552 30.323 123.504 24 104.748 24c-44.093 0-53.533 20.952-56.635 27.836-5.136 11.402-4.754 33.282-4.75 33.5l.025 1.206-18.834 29.727c-.992 1.566-.408 2.991-.111 3.53.31.565 1.246 1.878 3.221 1.878h15.7v24.13c0 4.208 1.14 7.532 3.209 9.361 1.755 1.553 4.266 2.152 7.47 1.782l30.133-5.945V176h-8v-15.263l-21.017 4.136c-5.564.686-10.364-.597-13.886-3.711-3.865-3.418-5.908-8.728-5.908-15.355v-16.13h-7.7c-4.268 0-8.188-2.307-10.231-6.02-2.047-3.72-1.911-8.082.362-11.67l17.557-27.71c-.015-5.062.286-24.228 5.466-35.727C50.687 26.647 71.6 16 104.75 16 151.525 16 176 50.922 176 85.42m-36.056 32.65c0 4.918-4.012 8.93-8.944 8.93a8.9 8.9 0 0 1-6.244-2.54c-1.009-.983-1.762-2.253-2.238-3.772l-5.574-17.817a1.3 1.3 0 0 0-.34-.328l-7.523-5.015a.84.84 0 0 0-1.056.104l-.442.443c-.148.147-.305.28-.458.419-.407.51-.921.894-1.49 1.149-4.018 2.625-9.333 2.699-13.448-.044l-4.727-3.151a.12.12 0 0 0-.11-.015l-.302.1-5.47.9c-5.5 1.672-11.51-.463-14.714-5.268l-2.568-3.853c-.234-.352-.598-.524-1.05-.556l-2.354.02h-.079c-4.326.001-8.054-3.18-8.689-7.429a11.24 11.24 0 0 1 1.584-7.618l.87-1.392c-2.822-7.9.084-16.822 7.128-21.518l1.066-.711q.391-.261.655-.655l1.451-2.177c4.344-6.515 13.564-9.676 20.991-7.203.651.219 1.35.05 1.833-.432l2.853-2.853c5.178-5.177 13.358-5.987 19.45-1.926l3.075 2.05a.5.5 0 0 0 .29.088h6.744a19.195 19.195 0 0 1 18.65 14.56 3.63 3.63 0 0 0 1.338 2.016l8.383 6.288c6.312 4.734 7.828 13.585 3.452 20.15l-.502.754c-.45.673-.56 1.5-.305 2.267 2.324 6.968-.322 14.68-6.434 18.755l-.359.238L140 102.73zm.633-24.16a8.35 8.35 0 0 0 2.964-9.345 10.54 10.54 0 0 1 1.236-9.234l.503-.754a6.877 6.877 0 0 0-1.595-9.313l-7.074-5.306c-3.194.6-5.423 1.854-6.117 3.456-.294.678-.192 1.188-.122 1.365a4 4 0 0 1-4.59 6.55c-2.708-1.806-4.025-5.442-3.278-9.05.431-2.085 2.139-6.64 8.7-9.098-.071-.225-.144-.45-.202-.68A11.21 11.21 0 0 0 120.114 44h-6.745c-.06 0-.117-.012-.177-.013-4.576 3.117-5.123 6.756-5.135 8.235-.015 1.935.753 3.572 2.054 4.38a4 4 0 1 1-4.222 6.795c-3.688-2.291-5.868-6.492-5.831-11.237.033-4.294 1.895-8.46 5.148-11.838-2.887-1.698-6.602-1.269-8.994 1.123l-2.853 2.853a9.74 9.74 0 0 1-10.02 2.365c-3.968-1.32-9.484.57-11.804 4.05l-1.452 2.178a10.3 10.3 0 0 1-2.875 2.875l-1.065.71a10.44 10.44 0 0 0-3.837 12.672 6.2 6.2 0 0 1-.464 5.662l-1.35 2.16a3.24 3.24 0 0 0-.456 2.194c.052.348.38.61.784.613l2.354-.021c3.1-.006 6.04 1.512 7.778 4.117l2.568 3.854a5.11 5.11 0 0 0 5.86 2.01l.302-.1.376-.062c.292-6.528 1.752-12.29 4.045-16.684l-.008-.023c-1.033-4.65-2.324-5.636-2.694-5.827-.675-.349-2.04-.12-3.844.644a4 4 0 1 1-3.113-7.37c4.205-1.777 7.681-1.903 10.624-.384 2.476 1.277 4.068 3.484 5.134 5.833C91.984 64.624 93.934 64 96 64a4 4 0 0 1 0 8c-2.934 0-7.05 6.316-7.851 16.467a8.1 8.1 0 0 1 3.75 1.325l4.726 3.15c1.39.927 3.173.911 4.546.057 8.55-13.162 18.74-13.08 25.538-13.007q.661.007 1.291.008a4 4 0 0 1 0 8q-.666 0-1.367-.009c-4.264-.041-8.63-.078-12.945 2.994l7.353 4.902a9.34 9.34 0 0 1 3.17 3.591l.143.287 5.799 18.533c.103.329.196.443.197.444a.946.946 0 0 0 1.594-.686l.056-15.673c0-3.1 1.873-5.845 4.772-6.982z"/></svg>