<svg xmlns="http://www.w3.org/2000/svg" viewBox="0 0 192 192"><path d="m95.43 106.058-36 60-6.86-4.116 36-60zm13.178-11.938 17.56 28.095-31.792 14.13 3.249 7.311 40.208-17.87-22.44-35.905zM75.984 81.135 51.43 122.058l-6.86-4.116 23.469-39.115c.489-8.965 5.247-17.403 12.117-23.179a20 20 0 0 1-6.182-2.327 19.87 19.87 0 0 1-9.309-12.155 19.87 19.87 0 0 1 2.013-15.178 19.87 19.87 0 0 1 12.156-9.308 19.88 19.88 0 0 1 15.177 2.013 19.87 19.87 0 0 1 9.308 12.155 19.87 19.87 0 0 1-2.013 15.177c-.4.692-.848 1.343-1.319 1.974H100c14.692 0 22.065 5.126 29.125 14.66l36.817-22.09 4.116 6.86-43.247 25.948-2.123-3.135C117.884 60.198 112.95 55.999 100 55.999c-13.318 0-23.837 12.933-24 24.059l-.016 1.076Zm1.996-34.738a11.93 11.93 0 0 0 9.107 1.208 11.93 11.93 0 0 0 7.294-5.586 11.92 11.92 0 0 0 1.208-9.107 11.93 11.93 0 0 0-5.585-7.294 11.93 11.93 0 0 0-9.108-1.208 11.93 11.93 0 0 0-7.294 5.585 11.93 11.93 0 0 0-1.208 9.108 11.93 11.93 0 0 0 5.586 7.294"/></svg>