<svg xmlns="http://www.w3.org/2000/svg" viewBox="0 0 192 192"><path d="M160 24h-29v-8h29zm0 8v14.873C160 54.11 154.111 60 146.873 60h-1.745c-6.683 0-12.205-5.024-13.014-11.491l-44.606 81.413-7.016-3.844 4.6-8.396-21.091-7.909v-2.772c0-8.271-6.729-15-15-15h-2.062c-8.27 0-15 6.729-15 15v20.998h8.124V176h-8v-40.002h-8.124V107c0-9.982 6.394-18.495 15.299-21.67-4.32-2.868-7.175-7.77-7.175-13.332 0-8.823 7.178-16 16-16s16 7.177 16 16c0 5.596-2.894 10.524-7.26 13.384 7.995 2.895 13.95 10.086 15.024 18.78l17.149 6.431L132 32.067V32h.037l.003-.005.01.005H140v14.873C140 49.7 142.3 52 145.128 52h1.745C149.7 52 152 49.7 152 46.873V43.05h.001V32h8zM56.063 71.999c0-4.412-3.589-8-8-8s-8 3.588-8 8 3.589 8 8 8 8-3.59 8-8m0 104.001h8v-48h-8z"/></svg>