<svg xmlns="http://www.w3.org/2000/svg" xml:space="preserve" viewBox="0 0 192 192"><path d="M156 136c-6.942 0-13.065 3.56-16.652 8.945l-28.866-13.322c.974-2.351 1.518-4.924 1.518-7.623s-.544-5.272-1.518-7.623l28.866-13.322C142.935 108.44 149.058 112 156 112c11.028 0 20-8.972 20-20s-8.972-20-20-20-20 8.972-20 20c0 1.24.129 2.45.346 3.629l-30.424 14.042C102.318 106.168 97.411 104 92 104c-11.028 0-20 8.972-20 20s8.972 20 20 20c5.41 0 10.318-2.168 13.922-5.67l30.424 14.041A20 20 0 0 0 136 156c0 11.028 8.972 20 20 20s20-8.972 20-20-8.972-20-20-20m0-56c6.617 0 12 5.383 12 12s-5.383 12-12 12-12-5.383-12-12 5.383-12 12-12m-64 56c-6.617 0-12-5.383-12-12s5.383-12 12-12 12 5.383 12 12-5.383 12-12 12m64 32c-6.617 0-12-5.383-12-12s5.383-12 12-12 12 5.383 12 12-5.383 12-12 12M80.954 75.121C89.982 69.457 96 59.421 96 48c0-17.645-14.355-32-32-32S32 30.355 32 48c0 11.418 6.015 21.451 15.038 27.116C28.919 81.98 16 99.506 16 120h8c0-22.047 17.937-39.984 39.984-39.984 12.891 0 24.37 6.138 31.686 15.639a28.4 28.4 0 0 1 11.946 4.416c-5.242-11.43-14.842-20.462-26.662-24.95M40 48c0-13.234 10.766-24 24-24s24 10.766 24 24-10.766 24-24 24-24-10.766-24-24"/></svg>