<svg xmlns="http://www.w3.org/2000/svg" viewBox="0 0 192 192"><path d="m32.056 119.341 7.891 1.316-4.203 25.218-14.047 14.649-5.775-5.537 12.337-12.864zm16.515-1.284 11.243 18.737-3.758 22.547 7.891 1.316 4.242-25.453-12.757-21.263zm115.164 24.02-3.789-22.736-7.891 1.316 4.21 25.264 14.066 14.066 5.657-5.657zm-27.165-28.136-12.757 21.263 4.242 25.453 7.891-1.316-3.758-22.547 11.243-18.737zM42.182 68c-7.82 0-14.18 6.231-14.18 13.89V112h-8V81.892c0-10.633 7.721-19.515 17.92-21.482-3.609-2.936-5.92-7.406-5.92-12.41 0-8.822 7.177-16 16-16s16 7.178 16 16c0 6.924-4.43 12.818-10.598 15.041 6.383 3.763 10.594 10.674 10.594 18.764v13.082l21.289 5.23-1.909 7.769-27.38-6.726V81.805c0-7.74-6.07-13.804-13.816-13.804zm-2.18-20c0 4.411 3.588 8 8 8s8-3.589 8-8-3.59-8-8-8-8 3.589-8 8M149.82 68.001c-7.747 0-13.816 6.063-13.816 13.804v19.344l-27.038 6.732-1.932-7.762 20.97-5.222V81.805c0-8.09 4.21-15 10.594-18.764C132.43 60.818 128 54.924 128 48c0-8.822 7.178-16 16-16s16 7.178 16 16c0 5.004-2.312 9.474-5.92 12.41C164.28 62.377 172 71.26 172 81.892V112h-8V81.892C164 74.232 157.64 68 149.82 68zM144 56c4.412 0 8-3.589 8-8s-3.588-8-8-8-8 3.589-8 8 3.59 8 8 8M71.998 88.614l8.196 2.014v-6.433h31.61v6.492l8.2-2.042v-6.84c0-1.153.069-2.287.19-3.402v-2.598h-48.39v2.566c.124 1.126.194 2.27.194 3.434zm39.806 31.19h-31.61v-4.463l-8.39-2.061v14.915h48.39V113.33l-8.39 2.09v4.385z"/></svg>