<svg xmlns="http://www.w3.org/2000/svg" viewBox="0 0 192 192"><path d="m44.205 122.735 7.59 2.53-8.597 25.792-21.763 8.361-2.87-7.468 18.238-7.007zm20.467 3.484 14.914 22.372-7.38 22.144 7.589 2.53 8.619-25.856-17.086-25.628zm20.28-23.505L98.4 112.8l-4.8 6.4-18.552-13.914 4.44-9.966c1.672-3.75.73-7.244-.355-9.516-2.041-4.277-6.214-7.708-10.89-8.956-8.06-2.151-16.117 2.61-19.158 11.32-1.346 3.857-3.171 8.24-4.328 10.933l14.072 14.07-5.658 5.658-17.947-17.949 1.125-2.514c.032-.072 3.22-7.207 5.183-12.834C45.447 74.32 55.72 67.5 66.427 68.44c-.09-.144-.19-.278-.275-.425a15.9 15.9 0 0 1-1.611-12.139c2.275-8.523 11.06-13.607 19.585-11.332a15.9 15.9 0 0 1 9.722 7.445 15.9 15.9 0 0 1 1.611 12.138c-1.743 6.528-7.307 11.026-13.645 11.758a24.3 24.3 0 0 1 4.539 6.472c2.558 5.36 2.716 11.12.443 16.22zM73.076 64.007a7.95 7.95 0 0 0 4.861 3.722c4.266 1.138 8.656-1.403 9.792-5.665a7.94 7.94 0 0 0-.805-6.068 7.95 7.95 0 0 0-4.861-3.722 8 8 0 0 0-2.062-.272c-3.535 0-6.777 2.364-7.73 5.937a7.94 7.94 0 0 0 .805 6.068m102.888-35.936L176 16l-12.071.036c0 6.647 5.388 12.035 12.035 12.035M152 16h-8c0 17.645 14.355 32 32 32v-8c-13.233 0-24-10.767-24-24m-20 0h-8c0 28.673 23.327 52 52 52v-8c-24.262 0-44-19.738-44-44m-20 0h-8c0 39.7 32.3 72 72 72v-8c-35.29 0-64-28.71-64-64"/></svg>