<svg xmlns="http://www.w3.org/2000/svg" viewBox="0 0 192 192"><path d="M148 160h8c0-28.5-20-52.5-46.8-58.5C122.5 96.2 132 83.2 132 68c0-19.9-16.1-36-36-36S60 48.1 60 68c0 15.2 9.4 28.2 22.7 33.5l-.1.1C56 107.6 36 131.5 36 160h8c0-14.9 6.3-28.3 16.3-37.8l19.6 21.4c-4.8 3.8-7.9 9.8-7.9 16.4h8c0-4.2 2.1-8.1 5.4-10.4L95 160h10.9l-12.1-13.2-6.3-6.9-20.8-22.7c4.2-2.9 8.9-5.3 14-6.8l24.6 26.4 6.5 7 15.2 16.3h11l-17-18 22.2-3.9c3.1 6.6 4.8 14 4.8 21.8M68 68c0-15.4 12.6-28 28-28s28 12.6 28 28-12.6 28-28 28-28-12.6-28-28m46.5 67.1-24.9-26.7c2.1-.3 4.2-.4 6.4-.4 17.9 0 33.6 9 43 22.8z"/></svg>