<svg xmlns="http://www.w3.org/2000/svg" viewBox="0 0 192 192"><path d="M146.494 43.608c4.193-10.2-.695-21.909-10.894-26.102s-21.91.694-26.102 10.894c-2.442 5.942-1.786 12.385 1.188 17.567a26.6 26.6 0 0 0-10.2-.196l-3.698-1.85c-14.666-7.345-36.83-18.444-52.308-3.78l-.038.037c-5.827 5.67-8.962 12.641-8.826 19.631.116 5.978 2.577 11.428 6.93 15.347 3.54 3.186 8.097 4.85 13.122 4.85 1.373 0 2.781-.124 4.213-.376 6.234-1.094 12.23-4.513 16.91-9.636l.227-.198a14.8 14.8 0 0 0 .836 5.437c2.85 7.996 11.56 12.001 12.543 12.432l3.643 1.594 15.69-35.302q1.328.332 2.634.869c11.001 4.522 13.312 16.627 10.722 26.618-1.752 6.756-2.655 8.745-2.664 8.767l-1.292 2.585 20.638 20.54 5.644-5.67-16.76-16.68c.534-1.594 1.26-3.996 2.178-7.534 2.697-10.402.865-20.377-4.463-27.525.535.044 1.07.077 1.603.077 7.87 0 15.35-4.676 18.524-12.396M71.364 64.11l-.35.343c-3.514 3.905-7.96 6.497-12.517 7.297-4.194.737-7.959-.165-10.599-2.542-2.69-2.42-4.211-5.814-4.283-9.555-.093-4.745 2.176-9.617 6.386-13.722 10.218-9.656 26.022-3.283 38.851 2.98zm18.804 14.162c-1.918-1.411-3.959-3.4-4.787-5.75-.71-2.015-.468-4.141.741-6.5 3.344-6.522 8.855-10.81 14.899-12.168zm26.729-46.832c2.516-6.12 9.541-9.053 15.661-6.536 6.12 2.516 9.052 9.542 6.537 15.661-2.517 6.12-9.541 9.053-15.661 6.537s-9.053-9.541-6.537-15.662m-32.642 71.155 7.49 2.808-12.507 33.352-29.254 16.717-3.968-6.946 26.746-15.283zm27.242 3.462 20.952 37.714-12.772 29.804-7.354-3.152 11.228-26.196-19.048-34.286z"/></svg>