<svg xmlns="http://www.w3.org/2000/svg" viewBox="0 0 192 192"><path d="m122.412 136.1 1.065-23.875-19.418-15.41 4.973-6.267 22.618 17.95-1.246 27.959zM32 168v8h128v-8zM57.502 54.762a15.9 15.9 0 0 1-.534-12.234c1.462-4.016 4.4-7.223 8.273-9.029s8.218-1.996 12.234-.534a15.9 15.9 0 0 1 9.029 8.273c2.412 5.174 1.795 10.986-1.097 15.46a24 24 0 0 1 17.245 5.544l25.623 1.767-.55 7.982-28.418-1.96-1.54-1.44a16.01 16.01 0 0 0-17.312-2.465 15.9 15.9 0 0 0-8.273 9.029 15.9 15.9 0 0 0 .534 12.234l8.41 18.035 7.18-3.382 23.78 50.846-7.25 3.38-20.325-43.484-7.212 3.362L65.466 90.77a23.84 23.84 0 0 1-.801-18.352 23.9 23.9 0 0 1 5.387-8.547 16 16 0 0 1-3.521-.836 15.9 15.9 0 0 1-9.03-8.273zm7.25-3.381a7.95 7.95 0 0 0 4.515 4.137 7.95 7.95 0 0 0 6.116-.268c3.998-1.864 5.734-6.633 3.87-10.63a7.95 7.95 0 0 0-4.514-4.138 7.95 7.95 0 0 0-6.116.268 7.95 7.95 0 0 0-4.138 4.514 7.95 7.95 0 0 0 .267 6.117"/></svg>