<svg xmlns="http://www.w3.org/2000/svg" viewBox="0 0 192 192"><path d="m108.748 105.6 2.569-2.331c-6.12-9.17-15.061-16.213-25.429-20.044C96.7 77.01 104 65.359 104 52.028c0-19.836-16.15-35.973-36-35.973S32 32.192 32 52.028c0 13.308 7.276 24.943 18.056 31.165C30.2 90.517 16 109.631 16 132h8c0-24.262 19.738-44 44-44 15.542 0 29.603 8.257 37.454 20.923a45 45 0 0 1 3.294-3.324zM40 52.027c0-15.424 12.56-27.973 28-27.973s28 12.549 28 27.973S83.439 80 68 80 40 67.452 40 52.028zm135.688 81.993a37.3 37.3 0 0 0-1.539-6.644l-.865-2.626-8.456-.401q-.171-.3-.348-.596l3.822-7.555-1.858-2.049a37 37 0 0 0-10.807-8.225l-2.47-1.244-6.264 5.697q-.33-.093-.666-.176l-2.64-8.043-2.762-.135a37.3 37.3 0 0 0-6.814.288 37.3 37.3 0 0 0-6.644 1.539l-2.626.865-.401 8.456q-.3.171-.596.348l-7.555-3.822-2.049 1.858a37 37 0 0 0-8.225 10.807l-1.244 2.47 5.697 6.264q-.093.33-.176.666l-8.043 2.64-.135 2.762c-.111 2.294-.015 4.586.288 6.814s.82 4.462 1.539 6.644l.865 2.626 8.456.401q.171.3.348.596l-3.822 7.555 1.858 2.049a37 37 0 0 0 10.807 8.224l2.469 1.245 6.262-5.694q.335.092.67.177l2.639 8.04 2.762.134a37 37 0 0 0 6.813-.287 37.3 37.3 0 0 0 6.645-1.54l2.626-.865.401-8.456q.3-.171.596-.348l7.555 3.822 2.049-1.858a37 37 0 0 0 8.225-10.807l1.244-2.47-5.697-6.264q.093-.33.176-.666l8.043-2.64.135-2.762a37.3 37.3 0 0 0-.288-6.814m-14.926 6.062-.393 2.412a21.5 21.5 0 0 1-1.057 3.997l-.85 2.293 5.096 5.602a29 29 0 0 1-3.183 4.182l-6.757-3.418-1.983 1.43a21.6 21.6 0 0 1-3.573 2.084l-2.218 1.022-.36 7.558a28.4 28.4 0 0 1-5.207.707l-2.361-7.196-2.419-.388a21 21 0 0 1-3.99-1.056l-2.292-.85-5.602 5.096a29 29 0 0 1-4.182-3.183l3.418-6.757-1.43-1.983a21.6 21.6 0 0 1-2.084-3.573l-1.022-2.218-7.558-.36a28.4 28.4 0 0 1-.707-5.207l7.19-2.36.393-2.412c.22-1.354.577-2.698 1.057-3.997l.85-2.293-5.096-5.602a29 29 0 0 1 3.183-4.182l6.757 3.418 1.983-1.43a21.6 21.6 0 0 1 3.573-2.084l2.218-1.022.36-7.558a28.4 28.4 0 0 1 5.207-.707l2.36 7.19 2.412.393c1.354.22 2.698.577 3.997 1.057l2.293.85 5.602-5.096a29 29 0 0 1 4.182 3.183l-3.418 6.757 1.43 1.983a21.6 21.6 0 0 1 2.084 3.573l1.022 2.218 7.558.36a28.4 28.4 0 0 1 .707 5.207zm-29.057-13.086c-6.632 4.027-8.75 12.7-4.723 19.333 2.645 4.355 7.292 6.764 12.05 6.764a14 14 0 0 0 7.283-2.042c6.632-4.028 8.75-12.7 4.722-19.333s-12.7-8.751-19.332-4.722m10.436 17.182a6.037 6.037 0 0 1-8.286-2.024 6.04 6.04 0 0 1 2.024-8.285 6.034 6.034 0 0 1 8.285 2.024 6.037 6.037 0 0 1-2.023 8.285"/></svg>