<svg xmlns="http://www.w3.org/2000/svg" viewBox="0 0 192 192"><path d="m145.8 126.6 4.9-14c1.9-5.5 1.6-11.3-.9-16.5s-6.9-9.1-12.3-11c-3.1-1.1-6.3-1.4-9.4-1.1 2.5-4.9 3.8-10.3 3.8-16.1 0-19.9-16.2-36-36-36S60 48.1 60 68c0 15.2 9.5 28.2 22.8 33.5-26.8 6-46.8 30-46.8 58.5h8c0-28.7 23.3-52 52-52 3.5 0 7 .3 10.3 1l-5.1 14.3c-1.6 4.6-1.7 9.5-.1 14l-10.6 1.9-.4.1C79.8 140.6 72 149.5 72 160h8c0-6.5 4.8-12 11.2-12.8l14.2-2.5 10.7-1.9 9.8-1.7 15.7-2.8 1.5-.3c3.1 6.7 4.8 14.1 4.8 21.9h8c.1-12.3-3.7-23.7-10.1-33.3M96 96c-15.4 0-28-12.6-28-28s12.6-28 28-28 28 12.6 28 28-12.6 28-28 28m20.8 7.7-.1-.2.8-2.4c2-5.6 7.3-9.1 12.9-9.1 1.5 0 3 .2 4.4.8 3.4 1.2 6.2 3.6 7.7 6.9 1.6 3.3 1.8 6.9.6 10.4l-.9 2.4-6.2 3-7.9 3.8-3.2 1.6-2.7-5.6zm-7.6 32.3c-1.4-3.2-1.5-6.7-.4-10l4.2-11.8 9.4 19.5zm21.3-3.8-2-4.2 6-2.9 4.1-2-1.7 4.8-1.2 3.4z"/></svg>