<svg xmlns="http://www.w3.org/2000/svg" viewBox="0 0 192 192"><path d="M109.202 101.482C122.538 96.204 132 83.19 132 68c0-19.85-16.15-36-36-36S60 48.15 60 68c0 15.19 9.462 28.204 22.798 33.482C56.047 107.514 36 131.452 36 160h8c0-28.673 23.327-52 52-52s52 23.327 52 52h8c0-28.547-20.047-52.486-46.798-58.518M68 68c0-15.44 12.56-28 28-28s28 12.56 28 28-12.56 28-28 28-28-12.56-28-28M26.554 87.079l-5.108-6.158C25.672 77.416 28 72.827 28 68s-2.328-9.416-6.554-12.921l5.108-6.158C32.646 53.975 36 60.75 36 68s-3.354 14.025-9.446 19.079M36.916 99.05l-5.174-6.102C39.655 86.24 44.008 77.362 44 67.954c-.008-9.387-4.36-18.229-12.253-24.899l5.163-6.11C46.63 45.158 51.99 56.168 52 67.946c.01 11.801-5.347 22.847-15.084 31.105zm128.53-11.972C159.354 82.025 156 75.25 156 68s3.354-14.025 9.446-19.079l5.108 6.158C166.328 58.584 164 63.173 164 68s2.328 9.416 6.554 12.921zM155.084 99.05C145.347 90.793 139.99 79.747 140 67.946c.01-11.778 5.37-22.788 15.09-31.001l5.163 6.11c-7.893 6.67-12.245 15.512-12.253 24.899-.008 9.408 4.345 18.285 12.258 24.995l-5.174 6.102z"/></svg>