<svg xmlns="http://www.w3.org/2000/svg" viewBox="0 0 192 192"><path d="M37.989 88c-11.029 0-20-8.972-20-20s8.971-20 20-20 20 8.972 20 20-8.972 20-20 20m0-32c-6.617 0-12 5.383-12 12s5.383 12 12 12 12-5.383 12-12-5.383-12-12-12m127.35 32h-22.678l-11.25-20 11.25-20h22.678l11.25 20zm-18-8h13.322l6.75-12-6.75-12h-13.322l-6.75 12zm-51.35 8.064L73.099 48h45.78zM86.884 56l9.105 15.937L105.094 56zm31.095 99.999-.002-39.632c0-11.611-9.453-20.367-21.988-20.367s-21.99 8.757-21.99 20.369v39.63h8v-39.63c0-7.283 5.753-12.369 13.99-12.369s13.988 5.085 13.988 12.367l.002 39.632zm58.01 0v-39.632c0-11.611-9.454-20.367-21.99-20.367s-21.99 8.757-21.99 20.369v39.63h8v-39.63c0-7.283 5.754-12.369 13.99-12.369s13.99 5.085 13.99 12.367V156h8zm-115.998 0-.002-39.632C59.99 104.756 50.536 96 38.001 96c-12.537 0-21.99 8.757-21.99 20.369v39.63h8v-39.63C24.01 109.086 29.764 104 38 104s13.988 5.085 13.988 12.367L51.991 156h8z"/></svg>