<svg xmlns="http://www.w3.org/2000/svg" viewBox="0 0 192 192"><path d="M148 80v47.997h-48v-12.675l8 2.978v1.697h32V88h-32v4.61l-8-2.951V80zm-34.616 23.122-1.955 5.299-.072.195-.742 2.012-26.618-9.818V81.804C83.997 74.063 77.927 68 70.18 68 62.361 68 56 74.23 56 81.89V112h-8V81.89c0-10.632 7.722-19.514 17.92-21.481-3.608-2.936-5.92-7.407-5.92-12.41 0-8.823 7.178-16 16-16s16 7.177 16 16c0 6.924-4.43 12.818-10.598 15.04 6.384 3.764 10.595 10.674 10.595 18.765v13.43zM84 48c0-4.412-3.589-8-8-8s-8 3.588-8 8 3.589 8 8 8 8-3.59 8-8m-27.735 94.077L41.171 157.17l5.658 5.657 16.906-16.907 4.21-25.264-7.89-1.315zm20.305-24.02 11.243 18.736-3.759 22.548 7.892 1.315 4.241-25.452L83.43 113.94z"/></svg>