<svg xmlns="http://www.w3.org/2000/svg" viewBox="0 0 192 192"><path d="M116.98 114.537c-5.225-14.62-16.78-26.041-31.07-31.325C96.708 76.996 104 65.35 104 52.028c0-19.836-16.15-35.973-36-35.973S32 32.192 32 52.028c0 13.308 7.276 24.943 18.056 31.165C30.2 90.517 16 109.631 16 132h8c0-24.262 19.738-44 44-44 20.317 0 38.096 14.111 42.786 33.736a40.3 40.3 0 0 1 6.194-7.2zM40 52.027c0-15.423 12.56-27.972 28-27.972s28 12.549 28 27.973S83.439 80 68 80 40 67.452 40 52.028zm100 105.63-10.829-10.828 5.658-5.658 5.171 5.172 13.171-13.172 5.658 5.658zM144 176c-17.645 0-32-14.355-32-32s14.355-32 32-32 32 14.355 32 32-14.355 32-32 32m0-56c-13.234 0-24 10.766-24 24s10.766 24 24 24 24-10.766 24-24-10.766-24-24-24"/></svg>