<svg xmlns="http://www.w3.org/2000/svg" viewBox="0 0 192 192"><path d="m84.006 111.778 7.988.444-2.098 37.758-23.363 19.116-5.066-6.192 20.637-16.884zm20.065 1.97 12 63 7.858-1.497-12-63zM96 56c-11.028 0-20 8.972-20 20v36h-8V76c0-12.945 8.831-23.861 20.785-27.053C85.808 45.455 84 40.937 84 36c0-11.028 8.972-20 20-20s20 8.972 20 20c0 7.769-4.462 14.502-10.95 17.812C119.702 58.935 124 66.973 124 76v8.843l11.382 18.021-6.764 4.272L116 87.157V76c0-11.028-8.972-20-20-20m-4-20c0 6.617 5.383 12 12 12s12-5.383 12-12-5.383-12-12-12-12 5.383-12 12M17.343 142.99l36 32 5.314-5.98-36-32zm113.314-5.98-5.314 5.98 36 32 5.314-5.98z"/></svg>