<svg xmlns="http://www.w3.org/2000/svg" viewBox="0 0 192 192"><path d="M140 112v8h-7.996v56.006h-8V112zm-56 4h-8v60h15.894v-8H84zm12.035.529 8 60 7.93-1.058-8-60zM112 87.157V76c0-11.028-8.972-20-20-20s-20 8.972-20 20v36h-8V76c0-12.945 8.831-23.861 20.785-27.053C81.808 45.455 80 40.937 80 36c0-11.028 8.972-20 20-20s20 8.972 20 20c0 7.769-4.462 14.502-10.95 17.812C115.702 58.935 120 66.973 120 76v8.843l11.382 18.021-6.764 4.272zM88 36c0 6.617 5.383 12 12 12s12-5.383 12-12-5.383-12-12-12-12 5.383-12 12"/></svg>