<svg xmlns="http://www.w3.org/2000/svg" viewBox="0 0 192 192"><path d="M91.851 118.92C101.534 112.922 108 102.204 108 90c0-18.748-15.252-34-34-34S40 71.252 40 90c0 12.204 6.466 22.922 16.149 28.92C32.877 126.728 16 149.358 16 176h8c0-28.673 22.43-52 50-52s50 23.327 50 52h8c0-26.642-16.877-49.272-40.149-57.08M48 90c0-14.336 11.664-26 26-26s26 11.664 26 26-11.664 26-26 26-26-11.664-26-26m80-61.28v36.85c-2.342-.997-5.063-1.57-8-1.57-4.214 0-7.987 1.173-10.817 3.104a42 42 0 0 1 3.757 7.185C114.21 73.083 116.698 72 120 72c4.883 0 8 2.37 8 4s-3.117 4-8 4c-2.279 0-4.166-.519-5.538-1.235a41.8 41.8 0 0 1 1.465 8.843A21.8 21.8 0 0 0 120 88c8.972 0 16-5.271 16-12V35.28l32-6.4v32.69c-2.342-.997-5.063-1.57-8-1.57-8.972 0-16 5.271-16 12s7.028 12 16 12 16-5.271 16-12V19.12zM160 76c-4.883 0-8-2.37-8-4s3.117-4 8-4 8 2.37 8 4-3.117 4-8 4"/></svg>