<svg xmlns="http://www.w3.org/2000/svg" viewBox="0 0 192 192"><path fill="#1a171b" d="m34.828 162.826-5.658-5.657 15.094-15.093 3.79-22.736 7.89 1.315-4.21 25.264zm49.359-27.623-12.758-21.264-6.86 4.117 11.243 18.736-3.759 22.548 7.892 1.315zm69.413-2.713-26.45 7.09c.55 1.37.85 2.86.85 4.42 0 6.62-5.38 12-12 12s-12-5.38-12-12c0-5.3 3.45-9.81 8.23-11.39l-7.62-28.41.05-.01-1.496-5.621-31.162 1.65-.006-18.414c0-7.742-6.07-13.805-13.817-13.805C50.36 68 44 74.23 44 81.89V112h-8V81.89c0-10.632 7.722-19.514 17.92-21.481-3.608-2.936-5.92-7.407-5.92-12.41 0-8.823 7.178-16 16-16s16 7.177 16 16c0 6.924-4.43 12.818-10.598 15.04 6.384 3.764 10.595 10.674 10.595 18.765l.003 9.98 21.061-1.116L95.3 69.03l7.73-2.06 9.36 35.15 30.86-8.27 8.26 30.84 6.42-1.74 2.08 7.72-6.43 1.74zM55.999 47.999c0 4.41 3.589 8 8 8s8-3.59 8-8-3.589-8-8-8-8 3.588-8 8M120 144c0-.86-.27-1.65-.74-2.31A3.98 3.98 0 0 0 116 140c-.6 0-1.18.14-1.69.39A3.95 3.95 0 0 0 112 144c0 2.21 1.79 4 4 4s4-1.79 4-4m23.79-17.23-6.2-23.12-23.14 6.2 6.14 23.06c.06.03.13.05.19.08z"/></svg>