<svg xmlns="http://www.w3.org/2000/svg" viewBox="0 0 192 192"><path d="M128 140h32v8h-32zm48 4c0 17.645-14.355 32-32 32s-32-14.355-32-32 14.355-32 32-32 32 14.355 32 32m-8 0c0-13.234-10.766-24-24-24s-24 10.766-24 24 10.766 24 24 24 24-10.766 24-24m-57.214-22.264C106.096 102.11 88.316 88 68 88c-24.262 0-44 19.738-44 44h-8c0-22.37 14.199-41.483 34.056-48.807C39.276 76.972 32 65.336 32 52.028c0-19.836 16.149-35.973 36-35.973s36 16.137 36 35.973c0 13.322-7.291 24.968-18.09 31.184 14.29 5.284 25.845 16.705 31.07 31.324a40.3 40.3 0 0 0-6.194 7.2M68 80c15.439 0 28-12.548 28-27.972S83.439 24.055 68 24.055 40 36.604 40 52.028 52.56 80 68 80"/></svg>