<svg xmlns="http://www.w3.org/2000/svg" viewBox="0 0 192 192"><path d="m18.775 159.2-2.87-7.469 23.402-8.99 9.468-28.406 7.59 2.53-10.663 31.989-26.927 10.345zm75.195-26.46-18.23-12.92 17.71 26.57L84 174.73l7.59 2.53 10.69-32.05zm21.39-30.41-4.8 6.41-22.68-17.02 5.25-11.78c2.26-5.08 1-9.79-.46-12.84-2.69-5.65-8.2-10.18-14.36-11.82-10.68-2.86-21.34 3.41-25.35 14.9-.17.49-.35.98-.53 1.48l-6.77-4.78c5.21-14.04 18.68-22.22 32.27-19.86-.6-.75-1.14-1.54-1.63-2.38a18.97 18.97 0 0 1-1.92-14.49c2.28-8.53 10.03-14.17 18.46-14.17 1.63 0 3.28.21 4.92.65 4.93 1.31 9.05 4.47 11.6 8.88 2.56 4.42 3.24 9.56 1.92 14.49-2.27 8.53-10.01 14.18-18.45 14.18h-.2c3.05 2.66 5.57 5.9 7.26 9.47 3.09 6.47 3.28 13.41.55 19.54l-2.66 5.96zM83.23 40.64c1.48 2.56 3.88 4.4 6.74 5.16 5.91 1.58 12.01-1.95 13.58-7.86.77-2.86.37-5.85-1.11-8.42-1.49-2.56-3.88-4.4-6.75-5.16-5.91-1.58-12 1.95-13.58 7.86-.77 2.86-.37 5.85 1.12 8.42m87.62 97.158c-.593.174-3.738 1.237-7.541 5.069-1.745 1.757-2.874 3.634-3.781 5.142-1.734 2.882-2.187 3.491-4.654 3.491-1.71 0-3.187.134-4.507.373L49.04 80.32l-6.71-4.74-.58-.41-4.52 6.4-.1.14 2 1.41 22.94 16.2 47.97 33.87 32.155 22.704c-.913.781-1.813 1.637-2.773 2.555l-1.097 1.046c-1.272 1.203-1.99 1.38-3.721 1.81-2.922.725-6.924 1.718-13.917 7.702l-8.222 7.038 63.512.007.002-39.763-5.13 1.509z"/></svg>