<svg xmlns="http://www.w3.org/2000/svg" viewBox="0 0 192 192"><path d="m29.657 173.657-11.314-11.314 144-144 11.314 11.314zm97.473-86.16-5.673 5.673C130.334 100.513 136 111.607 136 124h8c0-14.599-6.552-27.694-16.87-36.503m-43.816-1.438 14.105-14.104c-.47.027-.942.045-1.419.045-13.234 0-24-10.766-24-24s10.766-24 24-24 24 10.766 24 24c0 .476-.018.949-.045 1.419l7.464-7.465C124.584 27.19 111.578 16 96 16c-17.645 0-32 14.355-32 32 0 13.325 8.19 24.77 19.798 29.577a47.94 47.94 0 0 0-33.317 31.151l7.585 2.544a39.95 39.95 0 0 1 25.248-25.213m-43.285 43.285V124h5.344l8-8H32.029v21.344zM50.627 164h5.402v-5.402zm99.229-12c-.065 0-6.663.042-34.723.044a15.6 15.6 0 0 0 2.116-2.466l5.316-7.94-3.363-2.217c-.222-.146-22.149-14.603-25.112-16.72-.434-.31-.879-.583-1.327-.837l-6.18 6.18c.928.16 1.941.513 2.856 1.167 2.38 1.7 15.644 10.476 21.997 14.67l-.797 1.19c-.92 1.326-2.22 2.28-3.395 2.488-.535.096-1.005.026-1.453-.218l-.174-.104-.082-.055-.004.005L84.64 134.71l-4.101 6.868 20.874 12.466q.201.127.407.244l9.639 5.756h1.104c30.28 0 37.28-.044 37.32-.044 1.168 0 2.118.967 2.118 2.156V168H105.02l-36.698-20h-1.694l-8 8h7.656l36.698 20H160v-13.844c0-5.6-4.539-10.156-10.144-10.156"/></svg>