<svg xmlns="http://www.w3.org/2000/svg" viewBox="0 0 192 192"><path d="M65 76c6.91 0 13.36 1.58 19.02 4.41a28.5 28.5 0 0 1 8-4.67c-3.28-2.1-6.84-3.81-10.63-5.08 7.87-5.41 13.03-14.47 13.03-24.72 0-16.55-13.46-30-30-30s-30 13.45-30 30c0 10.41 5.34 19.61 13.42 24.98C29.07 77.59 16 95.02 16 116h8c0-22.43 18.01-40 41-40M42.42 45.94c0-12.14 9.87-22 22-22s22 9.86 22 22c0 12.13-9.87 22-22 22s-22-9.87-22-22m129.816 66.47-22.214 10.91-6.426-13.028.004-.002 16.77-8.27-7.75-15.72c-.26-.52-1.69-3.18-4.9-5.03-2.97-1.71-7.99-3.01-15.1.5l-8.43 4.15-7.47 3.69-3.17-6.42a7.75 7.75 0 0 0-4.46-3.91 7.73 7.73 0 0 0-5.91.39l-3.77 1.86-7.77 3.83-1.88.93c-3.82 1.89-5.4 6.54-3.52 10.36l1.51 3.07-15.74 7.76-30.75 15.17-1.1-2.23c-1.21-2.43-4.17-3.44-6.61-2.24l-15.1 7.45a4.92 4.92 0 0 0-2.49 2.84c-.42 1.25-.33 2.58.25 3.77l19.03 38.58c.85 1.74 2.61 2.75 4.43 2.75.73 0 1.48-.17 2.18-.51l5.87-2.9c7.46-3.68 10.58-12.71 6.99-20.2l30.83-15.21 15.68-7.73 1.66 3.36 20.12-9.93 2.68 5.43v.01l3.73 7.55.001.002-23.264 11.426 3.528 7.18 66.089-32.458zM93.53 93.35l4-1.97 7.34-3.62 1.62-.8 3.05 6.19-1 .49-7.2 3.55-4.76 2.34-1.65-3.35zm-49.35 69.64-3.12 1.54-16.32-33.08 9.6-4.74 13.12 26.61c1.76 3.57.29 7.91-3.28 9.67m35.23-34.13-28.23 13.92-6.38-12.95 28.29-13.95 18.2-8.98 1.66 3.35 4.73 9.6zM113.93 116l-7.42 3.66-6.38-12.95 4.25-2.1 7.27-3.59 8.6-4.24 7.92-3.9 7.99-3.94c6.42-3.17 8.76-.06 9.28.9l4.22 8.55-18.67 9.21-16.99 8.37zm16.25.91 6.24-3.07.004-.002 6.416 13.009-6.251 3.07z"/></svg>