<svg xmlns="http://www.w3.org/2000/svg" viewBox="0 0 192 192"><path d="M112 68c0-19.851-16.149-36-36-36S40 48.149 40 68c0 15.15 9.412 28.135 22.691 33.439C35.661 107.343 16 130.945 16 160h8c0-29.159 22.841-52 52-52 10.389 0 19.965 2.913 28 7.969v-9.247a59.8 59.8 0 0 0-14.679-5.287C102.594 96.128 112 83.146 112 68.001Zm-64 0c0-15.439 12.561-28 28-28s28 12.561 28 28-12.561 28-28 28-28-12.561-28-28m128 48v8h-24v-8zm-40 8h-24v-8h24zm-24 16h12v8h-12zm28 0h36v8h-36zm-28 24h36v8h-36zm52 0h12v8h-12zm-12-4h8v16h-8zm-4-32h-8v-16h8zm-20 24v-16h8v16z"/></svg>