<svg xmlns="http://www.w3.org/2000/svg" viewBox="0 0 192 192"><path d="M31.615 143.414C21.81 130.135 16 113.735 16 96c0-44.112 35.888-80 80-80 17.736 0 34.136 5.81 47.415 15.615l-5.733 5.733C125.91 28.956 111.527 23.999 96 23.999c-39.701 0-72 32.299-72 72 0 15.527 4.957 29.91 13.348 41.682zm123.038-89.096C163.043 66.09 168 80.473 168 95.999c0 39.701-32.299 72-72 72-15.526 0-29.908-4.956-41.681-13.347l-5.733 5.733c13.279 9.804 29.678 15.614 47.414 15.614 44.112 0 80-35.888 80-80 0-17.736-5.81-34.135-15.614-47.414zm20.176-31.49-5.658-5.657-152 152 5.658 5.658zM49.714 125.316l6.178-6.178c-3.512-2.852-5.096-7.98-5.096-15.869v-41.27h-9.512v42.113c0 9.742 2.92 16.906 8.43 21.203zM90.291 84.74V62h-9.15v31.889l9.15-9.15zm17.813-17.814L106.51 62H96.365l4.22 12.446zm30.588 3.354-14.79 45.463-7.5-23.174-7.224 7.224 9.924 29.268h8.696L150.716 62h-3.745l-8.279 8.279z"/></svg>