<svg xmlns="http://www.w3.org/2000/svg" viewBox="0 0 192 192"><path d="M115.525 83.97h13.759v8h-16.642c-1.3 0-2.489-.627-3.228-1.637l-2.962 8.887a4 4 0 0 1-7.59 0l-6.19-18.57-9.519 28.556a4 4 0 0 1-7.59 0L69.82 91.97h-7.103v-8h9.986a4 4 0 0 1 3.795 2.735l2.861 8.586 9.519-28.556a4 4 0 0 1 7.59 0l6.19 18.57 2.862-8.585a4 4 0 0 1 7.59 0zM112 120H72v8h35.338a40 40 0 0 1 4.662-8m46.701 18.744-5.657-5.658-13.171 13.172-5.172-5.172-5.657 5.658 10.829 10.828zm17.172 5.171c0-17.645-14.355-32-32-32s-32 14.355-32 32 14.355 32 32 32 32-14.355 32-32m-8 0c0 13.234-10.767 24-24 24s-24-10.766-24-24 10.766-24 24-24 24 10.766 24 24M104 144H59.436c.168 1.126.334 2.252.513 3.365l.745 4.635H26.572c-3.433 0-6.41-2.555-6.924-5.943-7.1-46.792-1.92-87.808-.163-99.265A7.96 7.96 0 0 1 27.393 40h33.423l-.884 4.735c-.003.018-.216 1.164-.538 3.265h73.21a115 115 0 0 0-.536-3.265l-.884-4.734L164.607 40a7.96 7.96 0 0 1 7.908 6.792c1.408 9.18 5.008 37.347 2.732 72.25a40.2 40.2 0 0 0-7.602-7.3c1.39-30.908-1.756-55.383-3.037-63.737L140.697 48c.4 2.715.907 6.536 1.404 11.3l12.125.942.307 3.363c.96 10.52 1.786 25.207 1.329 42.183a40 40 0 0 0-7.958-1.597 355 355 0 0 0-1.048-36.497l-12.073-.938-.315-3.353A302 302 0 0 0 133.68 56H58.32c-.286 2.407-.55 4.88-.788 7.404l-.315 3.353-12.073.938c-1.131 13.973-1.875 34.07.018 56.667l12.053.858.327 3.364c.24 2.483.519 4.955.817 7.416h46.443a40 40 0 0 0-.802 8m-52.657 0a315 315 0 0 1-1.42-11.279l-12.107-.862-.318-3.373c-2.504-26.48-1.399-49.897-.031-64.88l.307-3.363 12.126-.942c.28-2.682.588-5.303.92-7.824q.26-1.962.485-3.477H27.393c-1.704 11.108-6.704 50.684.036 96z"/></svg>