<svg xmlns="http://www.w3.org/2000/svg" viewBox="0 0 192 192"><path d="M32 112c-8.822 0-16 7.178-16 16s7.178 16 16 16 16-7.178 16-16-7.178-16-16-16m0 24c-4.411 0-8-3.589-8-8s3.589-8 8-8 8 3.589 8 8-3.59 8-8 8m127.995-24c-8.822 0-16 7.178-16 16s7.178 16 16 16 16-7.178 16-16-7.178-16-16-16m0 24c-4.411 0-8-3.589-8-8s3.589-8 8-8 8 3.589 8 8-3.589 8-8 8m-3.1-55.1-22.422-32.354-29.763-8.503-54.868-4.22L25.735 76H16v28.577l4.536-.613c4.768-.646 18.717-1.073 25.88 4.613 10.515 8.348 9.613 22.87 9.595 23.114L55.666 136H132l4.272-.013-.282-4.264c-.01-.157-.901-15.757 10.936-22.983 10.103-6.168 23.477-1.07 23.601-1.02l5.473 2.165V84.721zm-27.369-25.446 16.07 23.186-15.995-3.199-12.056 28.134-18.23-2.804-7.175-28.702 6.98-24.433 4.17.321zM54.158 44.178 90.98 47.01l-7.12 24.921 6.88 27.52-20.276-3.119L58.264 76h-23.2zM168 98.698c-6.115-1.33-16.315-2.236-25.242 3.214-11.69 7.136-14.207 19.547-14.689 26.088H63.958c-.411-6.216-2.592-17.769-12.567-25.688C43.264 95.86 30.693 95.39 24 95.672V84h29.735l11.8 19.668 56.92 8.757 11.943-27.866L168 91.279z"/></svg>