<svg xmlns="http://www.w3.org/2000/svg" viewBox="0 0 192 192"><path d="M147.459 102.27s1.25 1.303 1.25 3.772v7.54s.285 6.316-2.562 7.771-4.525 2.3-4.525 2.3-2.063 1.044-2.37-4.16l-20.042 10.243s-.387 5.583-2.448 6.636l-4.44 2.27s-2.563 1.826-2.563-5.153v-7.539s-.081-2.15 1.25-5.05c0 0-2.2.543-2.275-1.966s2.294-4.24 2.673-4.587c.38-.347 3.78-1.943 3.78-1.943s.461-2.898 2.97-7.542c2.076-3.84 6.66-6.758 6.66-6.758s6.116-3.785 8.845-4.518c2.728-.734 4.915-1.484 6.648-.046 1.732 1.439 2.97 4.506 2.97 4.506l3.78-1.921s2.705-.955 2.674 1.853c-.032 2.81-2.275 4.293-2.275 4.293zM168 49.43v88.98l-71.9 38.06L24 142.54V49.43l72.24-32.89zm-12.88 2.91-24.65-11.31-58.02 30.99 23.551 13.028 59.122-32.708zm-118.24 0zl27.235 15.068L121.34 36.84 96.23 25.33 36.89 52.34zM68 144.54v9.86l24 11.29-.008-73.717L68 78.7v9.68l-8-4.43v-9.676l-28-15.49v78.676l28 13.18v-10.53zm92-10.95V58.784L99.992 91.983 100 165.36z"/></svg>