<svg xmlns="http://www.w3.org/2000/svg" viewBox="0 0 192 192"><path d="M172.515 46.792A7.96 7.96 0 0 0 164.607 40l-33.423.001.884 4.734c.005.028.217 1.178.536 3.265h-73.21c.322-2.1.535-3.247.538-3.265L60.816 40H27.393a7.96 7.96 0 0 0-7.908 6.792c-1.757 11.457-6.938 52.473.163 99.265.514 3.388 3.491 5.943 6.924 5.943h34.122l-.745-4.635c-.179-1.113-.345-2.24-.513-3.365h73.128c-.168 1.126-.334 2.252-.513 3.365l-.745 4.635h34.122c3.433 0 6.41-2.555 6.924-5.944 7.1-46.791 1.92-87.807.163-99.264M27.43 144c-6.74-45.316-1.74-84.892-.036-96h23.912q-.225 1.515-.484 3.477c-.333 2.522-.64 5.143-.921 7.824l-12.126.942-.307 3.363c-1.368 14.983-2.473 38.4.03 64.88l.32 3.373 12.106.862A315 315 0 0 0 51.343 144zm30.93-8a309 309 0 0 1-.817-7.416l-.327-3.364-12.053-.858c-1.893-22.598-1.15-42.694-.018-56.667l12.073-.938.315-3.353c.237-2.523.502-4.997.788-7.404h75.361c.261 2.196.53 4.668.787 7.404l.315 3.353 12.073.938c1.131 13.973 1.875 34.07-.018 56.667l-12.053.858-.326 3.364c-.241 2.483-.52 4.955-.818 7.416zm106.212 8h-23.914a315 315 0 0 0 1.42-11.279l12.107-.862.318-3.373c2.504-26.48 1.399-49.897.031-64.88l-.307-3.363-12.125-.942a273 273 0 0 0-1.404-11.3l23.91.004c1.704 11.104 6.704 50.679-.036 95.995M72 116h48v8H72z"/></svg>