<svg xmlns="http://www.w3.org/2000/svg" viewBox="0 0 192 192"><path d="M132.3 78.7C139.4 73.6 144 65.3 144 56c0-15.4-12.6-28-28-28S88 40.6 88 56s4.6 17.6 11.7 22.7c-6 2-11.7 5.2-16.6 9.3H98c5.7-2.6 11.8-4 18.1-4 23.8 0 44 20.1 44 44h8c0-22.5-15.2-42.2-35.7-49.3ZM96 56c0-11 9-20 20-20s20 9 20 20-9 20-20 20-20-9-20-20"/><path d="M24 160h36v8h-8v8h40v-8h-8v-8h36V96H24zm52 8h-8v-8h8zm-44-64h80v48H32z"/><path d="M72 124c-11 0-20 9-20 20h8c0-6.6 5.4-12 12-12s12 5.4 12 12h8c0-11-9-20-20-20"/><circle cx="56" cy="116" r="4"/><circle cx="88" cy="116" r="4"/></svg>