<svg xmlns="http://www.w3.org/2000/svg" viewBox="0 0 192 192"><path d="M176.002 115.999H176v-8h.001v-24H176v-24h.001V36h-24v.002H16V52h-.001v40H16v8h-.001v24h.002v32h160.001v-40zM24 44h7.999v8H24zm-.001 16h8v8h-8zm8 32v8H24v-8zm-8-16h8v8h-8zm0 32h8v8h-8zM32 148h-8v-8h8zm0-16h-7.999v-8h8v8zm128.003-8.001h8v8h-8zm7.997-8h-7.999v-8H168zm-7.999-24h8v8h-8zm7.999-8h-7.999v-8H168zm0-16h-7.999v-8H168zm.001-24v8h-8v-8zM39.999 116V44h112.002v80h.002v24H40zm128.003 32h-8v-8h8zM60.854 100.067l5.31-16.06h7.506v23.434h-5.146V89.808l-5.965 17.633H58.69l-5.998-17.666v17.666h-4.687V84.007h7.539zm28.51-16.06c5.31 0 8.423 2.818 8.423 7.604 0 4.555-3.048 7.243-8.194 7.243h-4.949v8.587H79.4V84.007zm-.328 10.947c2.36 0 3.638-1.213 3.638-3.442s-1.213-3.343-3.605-3.343h-4.425v6.785zm29.2-10.947v4.228H106.96v5.277h8.588v3.9h-8.588v5.801h11.8v4.228h-16.978V84.007h16.453zM140.19 104c-1.835 2.655-4.031 3.802-7.243 3.802-6.457 0-10.849-4.818-10.849-11.963 0-7.178 4.654-12.193 11.7-12.193 2.787 0 5.212.82 7.015 2.425.917.82 1.475 1.607 2.13 2.885l-4.752 1.9c-1.016-2.097-2.425-2.982-4.818-2.982-3.67 0-5.802 2.917-5.802 7.932 0 4.949 2.164 7.768 5.998 7.768 3.147 0 5.343-2 5.343-4.85v-.198h-4.95v-3.9h10.063v12.815h-2.917z"/></svg>