<svg xmlns="http://www.w3.org/2000/svg" viewBox="0 0 192 192"><path d="M144 76.518V60h-44v8h36v60H56v-24h-8v32h96v-16.792l32.005 12.404V64.114zm24.005 43.413L144 110.628v-25.53l24.005-9.304zM18.158 75.3A37.8 37.8 0 0 1 16 62.66c0-4.334.727-8.587 2.158-12.639l7.543 2.666C24.572 55.881 24 59.237 24 62.661s.572 6.78 1.701 9.973zm71.519 0-7.543-2.666c1.129-3.193 1.701-6.549 1.701-9.973s-.572-6.78-1.701-9.973l7.543-2.666a37.8 37.8 0 0 1 2.158 12.64c0 4.334-.727 8.587-2.158 12.638M86.645 88 73.918 71.03V52c0-11.028-8.972-20-20-20s-20 8.972-20 20v19.03L21.19 88h21.975c1.392 4.622 5.683 8 10.753 8s9.36-3.378 10.753-8zM41.918 73.697V52c0-6.617 5.383-12 12-12s12 5.383 12 12v21.697L70.645 80H37.19z"/></svg>