<svg xmlns="http://www.w3.org/2000/svg" viewBox="0 0 192 192"><path d="M96 176c-44.112 0-80-35.888-80-80s35.888-80 80-80 80 35.888 80 80-35.888 80-80 80m0-152c-39.701 0-72 32.299-72 72s32.299 72 72 72 72-32.299 72-72-32.299-72-72-72m35.727 67.68a325 325 0 0 0 3.126-4.088q8.325-11.067 7.217-14.145l-.286-.48q-.288-.432-1.49-.792-1.203-.364-3.08-.121l-13.857.095q-.334-.119-.96.026l-.628.144-.24.122-.19.143q-.241.142-.53.505-.287.36-.479.842c-1.51 3.88-3.223 7.488-5.15 10.823a104 104 0 0 1-3.272 5.173q-1.492 2.19-2.5 3.223-1.01 1.035-1.828 1.658-.82.627-1.25.531-.435-.099-.82-.193a3.16 3.16 0 0 1-1.08-1.18q-.413-.743-.554-1.876a21 21 0 0 1-.17-1.947 43 43 0 0 1 .025-2.31q.049-1.492.05-2.02 0-1.83.069-3.97.073-2.142.12-3.391.05-1.25.05-2.647-.001-1.393-.17-2.189a7.4 7.4 0 0 0-.505-1.54 2.6 2.6 0 0 0-.986-1.152q-.649-.41-1.61-.652-2.55-.575-6.495-.626-8.947-.094-11.499 1.157a6.5 6.5 0 0 0-1.827 1.441q-.866 1.061-.242 1.156c1.925.289 3.286.978 4.091 2.068l.288.579q.338.625.672 2.211a22 22 0 0 1 .432 3.512q.243 3.512 0 6.015c-.158 1.666-.31 2.967-.455 3.895q-.215 1.396-.65 2.263-.43.865-.579 1.059-.143.19-.239.239-.625.242-1.3.242-.67 0-1.635-.675-.96-.674-1.995-1.854-1.034-1.176-2.336-3.295-1.296-2.114-2.692-5.003l-.77-1.395a113 113 0 0 1-1.972-3.921 75 75 0 0 1-2.212-4.98q-.386-1.006-1.156-1.54l-.24-.143q-.241-.19-.77-.41a5 5 0 0 0-1.107-.311l-13.181.095q-2.02 0-2.743.914l-.193.288q-.143.243-.144.77-.001.532.289 1.3a159 159 0 0 0 6.279 13.084q3.39 6.306 5.89 10.152a120 120 0 0 0 5.101 7.263q2.6 3.416 3.44 4.38a32 32 0 0 0 1.323 1.442l1.202 1.156q1.154 1.155 3.394 2.765a58 58 0 0 0 4.954 3.177q2.718 1.561 6.328 2.549 3.607.987 7.024.793h5.533q1.682-.145 2.549-1.058l.19-.24q.195-.29.36-.89.17-.6.17-1.324-.048-2.067.312-3.728.36-1.656.819-2.5a6 6 0 0 1 1.035-1.418q.575-.578.818-.698a3 3 0 0 1 .384-.17q1.154-.384 2.719.747 1.56 1.131 2.935 2.79a86 86 0 0 0 3.293 3.728q1.928 2.068 3.367 3.08l.963.576q.964.58 2.503 1.059 1.538.484 2.693.242l12.317-.193q1.827 0 2.837-.603c.675-.4 1.073-.842 1.202-1.32.13-.482.136-1.027.026-1.638q-.172-.913-.337-1.275a6 6 0 0 0-.314-.602q-2.406-4.33-9.19-10.63l-.094-.099-.05-.046-.048-.049h-.046q-3.08-2.936-3.898-3.944-1.492-1.926-.675-3.898.578-1.491 4.33-6.303"/></svg>