<svg xmlns="http://www.w3.org/2000/svg" viewBox="0 0 192 192"><path d="M149.512 99.046q-1.406 3.395 1.16 6.707 1.409 1.734 6.707 6.787h.08l.084.083.085.08.163.17c7.779 7.227 13.053 13.324 15.811 18.29.168.278.347.62.54 1.036.19.413.382 1.147.58 2.193.19 1.052.18 1.989-.044 2.818-.222.823-.908 1.583-2.069 2.272-1.156.69-2.788 1.037-4.88 1.037l-21.194.332q-1.986.417-4.633-.416-2.648-.825-4.306-1.821l-1.658-.992q-2.475-1.742-5.793-5.299-3.305-3.557-5.666-6.414c-1.577-1.905-3.258-3.502-5.05-4.802-1.796-1.294-3.353-1.726-4.678-1.285-.169.06-.387.153-.66.293-.277.138-.75.536-1.409 1.2-.665.66-1.254 1.473-1.78 2.441q-.791 1.452-1.41 4.302-.617 2.857-.536 6.414-.001 1.243-.292 2.276-.284 1.035-.62 1.534l-.327.412c-.992 1.046-2.456 1.656-4.385 1.82h-9.52q-5.88.333-12.085-1.364c-4.143-1.132-7.769-2.595-10.89-4.386-3.114-1.795-5.958-3.617-8.522-5.467q-3.854-2.77-5.84-4.757l-2.068-1.99c-.55-.55-1.31-1.373-2.277-2.48q-1.445-1.658-5.918-7.535a206 206 0 0 1-8.776-12.497q-4.302-6.62-10.136-17.467a273 273 0 0 1-10.803-22.512c-.333-.884-.497-1.627-.497-2.238q.001-.908.248-1.324L16.58 56q1.243-1.57 4.718-1.572l22.681-.164c.665.11 1.295.288 1.905.536q.908.378 1.324.705l.412.247q1.327.916 1.99 2.65a129 129 0 0 0 3.805 8.567q2.15 4.433 3.393 6.747l1.325 2.4c1.603 3.315 3.144 6.181 4.633 8.608q2.24 3.646 4.018 5.67 1.78 2.03 3.433 3.19 1.66 1.161 2.813 1.16a6.1 6.1 0 0 0 2.237-.416q.166-.083.412-.411c.169-.224.502-.828.997-1.822.496-.996.869-2.29 1.116-3.893.25-1.598.512-3.836.784-6.702.278-2.873.278-6.32 0-10.35q-.163-3.309-.743-6.042-.575-2.731-1.157-3.805l-.495-.996c-1.385-1.875-3.727-3.061-7.04-3.558q-1.072-.164.417-1.989 1.404-1.57 3.144-2.48c2.927-1.434 9.521-2.1 19.785-1.99q6.787.089 11.176 1.077 1.652.415 2.769 1.122c.744.466 1.309 1.13 1.696 1.983q.584 1.288.869 2.65.29 1.369.292 3.765-.002 2.404-.084 4.554a1522 1522 0 0 0-.208 5.834q-.12 3.682-.12 6.832-.001.907-.085 3.477c-.054 1.707-.068 3.036-.044 3.973q.047 1.407.293 3.35.246 1.949.953 3.23.699 1.284 1.86 2.027.662.163 1.409.333c.496.11 1.21-.193 2.152-.913q1.406-1.072 3.146-2.853c1.156-1.184 2.59-3.036 4.302-5.546q2.564-3.765 5.63-8.9c3.314-5.739 6.26-11.945 8.86-18.623a5.7 5.7 0 0 1 .823-1.449q.498-.623.913-.867l.328-.248.411-.21 1.081-.247c.715-.169 1.27-.178 1.652-.044l23.843-.164q3.23-.416 5.298.208 2.068.62 2.564 1.364l.492.824q1.906 5.297-12.418 24.338a559 559 0 0 1-5.377 7.035c-4.307 5.522-6.787 9.132-7.451 10.844"/></svg>