<svg xmlns="http://www.w3.org/2000/svg" viewBox="0 0 192 192"><path d="M95.946 15.99c-44.09 0-79.958 35.869-79.958 79.958s35.869 79.958 79.958 79.958 79.958-35.87 79.958-79.958-35.87-79.958-79.958-79.958m67.756 55.75a113 113 0 0 0-14.37-10.656C130.122 49.072 108.76 43.048 87.243 43.5c1.873-7.96 5.398-14.725 10.247-19.47 30.517.648 56.415 20.37 66.213 47.71zm-67.748 24.2.003.01-.011-.002zm-32.321 30.316C52.75 108.892 47.407 88.419 48.17 66.81c.353-9.928 2.08-19.592 5.104-28.76A71.57 71.57 0 0 1 86.7 24.605c-5.403 8.058-8.59 18.613-8.96 30.267-.521 16.339 4.575 31.871 13.709 42.125-3.712 11.05-13.182 21.473-25.75 28.205q-1.032.55-2.066 1.055zm-21.246-78.3a113 113 0 0 0-2.211 18.57c-.804 22.732 4.704 44.326 15.944 62.79-8.265 2.71-16.352 3.178-23.233 1.254a71.5 71.5 0 0 1-8.9-34.622c0-18.426 6.97-35.25 18.4-47.993zm-3.565 91.68c.98.064 1.968.102 2.968.102 8.867 0 18.462-2.544 27.686-7.485 14.425-7.727 25.335-19.924 29.639-32.976 11.422-2.306 25.18.685 37.289 8.2a63 63 0 0 1 2.622 1.73c-9.603 18.106-24.653 32.962-43.727 43.087-8.75 4.646-17.95 7.977-27.357 9.938-11.563-4.903-21.576-12.756-29.12-22.597zm57.124 28.27a72 72 0 0 1-13.657-1.317 113 113 0 0 0 16.762-7.229c20.03-10.632 35.949-26.155 46.326-45.077 6.152 5.684 10.378 12.25 12.09 18.957-12.636 20.767-35.486 34.666-61.521 34.666m66.423-44.303c-4.274-8.72-11.829-16.768-21.747-22.923-13.9-8.626-29.913-11.978-43.365-9.183-7.695-8.74-11.976-22.139-11.522-36.371.039-1.214.123-2.407.229-3.59 20.44-.73 40.815 4.882 59.127 16.331 8.387 5.246 15.832 11.505 22.168 18.597.411 3.106.645 6.267.645 9.484a71.6 71.6 0 0 1-5.535 27.655"/></svg>