<svg xmlns="http://www.w3.org/2000/svg" viewBox="0 0 192 192"><path d="M140.267 68.703C145.298 76.828 148 86.204 148 96c0 13.89-5.41 26.948-15.23 36.77l-5.658-5.658C135.423 118.802 140 107.752 140 96c0-7.636-1.943-14.97-5.576-21.453zM174.83 22.83l-5.658-5.658-152 152 5.658 5.658zM50.686 124.343l5.657-5.657L49.657 112H24V80h25.657L84 45.657v45.372l8-8V26.343L46.343 72H16v48h30.343zM84 124.97v21.372l-10.686-10.686-5.657 5.657L92 165.657V116.97zm70.676-70.677c19.993 28.1 17.416 67.437-7.764 92.618l5.657 5.657c28.308-28.309 30.921-72.727 7.847-104.014l-5.74 5.74z"/></svg>