<svg xmlns="http://www.w3.org/2000/svg" viewBox="0 0 192 192"><path d="M64 109.658 34.343 80H16V48.002l18.343-.01L64 18.345v91.312zM24 72h13.657L56 90.343V37.654L37.657 55.99 24 55.998zm64.942-9.664c-.719-12.687-9.894-20.98-10.284-21.327l-5.315 5.98c.071.063 7.079 6.394 7.612 15.8.35 6.196-2.247 12.434-7.724 18.54l5.957 5.341c6.948-7.748 10.23-15.935 9.754-24.334M140 89.486h-8v14.438h8zM105.223 123.4l-13.731-4.462-2.473 7.608 13.731 4.462zm62.277-22.37-6.472-4.702-8.486 11.68 6.471 4.702zM162.046 152H160v-14.386C160 123.49 149.233 112 136 112s-24 11.49-24 25.613V152h-2.046c-5.768 0-9.954 5.403-9.954 12.848v11.239h72v-11.24c0-7.444-4.186-12.847-9.954-12.847M120 137.613c0-9.712 7.177-17.613 16-17.613s16 7.901 16 17.613V152h-32v-14.386zm44 30.473h-56v-3.24c0-3.182 1.272-4.847 1.954-4.847h52.092c.682 0 1.954 1.665 1.954 4.848zm-58.05-65.065 7.038 9.688 6.473-4.702-7.784-10.713-5.728 5.727zm68.879-80.192-5.658-5.658-152 152 5.658 5.658zM176 120.402l-9.222 2.997 2.473 7.608 6.75-2.193v-8.412z"/></svg>