<svg xmlns="http://www.w3.org/2000/svg" viewBox="0 0 192 192"><path d="M128 44v48h48V44zm40 40h-32V52h32zm-96 8h48V44H72zm8-40h32v32H80zM16 92h48V44H16zm8-40h32v32H24zm63.98 12H104v8H87.98zm-43.97-.01h4.01v8h-4.01V76h-8v-4.01H32v-8h4.01v-4.01h8zm99.16 7.18 3.17-3.17-3.17-3.17 5.66-5.66 3.17 3.17 3.17-3.17 5.66 5.66-3.17 3.17 3.17 3.17-5.66 5.66-3.17-3.17-3.17 3.17zM128 152h48v-48h-48zm8-40h32v32h-32zm-64 40h48v-48H72zm8-40h32v32H80zm-64 40h48v-48H16zm8-40h32v32H24zm80 20H87.98v-8H104zm-55.98-8.01v8h-4.01V136h-8v-4.01H32v-8h4.01v-4.01h8v4.01zM157.66 128l3.17 3.17-5.66 5.66-3.17-3.17-3.17 3.17-5.66-5.66 3.17-3.17-3.17-3.17 5.66-5.66 3.17 3.17 3.17-3.17 5.66 5.66z"/></svg>