<svg xmlns="http://www.w3.org/2000/svg" xml:space="preserve" viewBox="0 0 192 192"><path d="m158.532 71.483-9.321-12.867 4.53-15.785a4 4 0 0 0-4.999-4.934l-15.726 4.739-12.992-9.15a4.002 4.002 0 0 0-6.303 3.298l.111 16.602-12.778 9.257a4 4 0 0 0 .967 6.994l10.74 3.945-75.59 75.59 5.658 5.657 75.663-75.664 4.133 10.803a4 4 0 0 0 7.007.874l9.085-12.901 16.603-.11a4 4 0 0 0 3.212-6.348m-21.927-1.528c-1.292.008-2.5.64-3.244 1.696l-5.947 8.446-3.648-9.534a4 4 0 0 0-2.356-2.325l-9.582-3.521 8.364-6.06a4 4 0 0 0 1.654-3.266l-.073-10.888 8.228 5.795a4.01 4.01 0 0 0 3.458.56l10.57-3.186-3.045 10.61a4 4 0 0 0 .605 3.45l5.905 8.15zM70.84 58.84C76.413 54.442 80 47.635 80 40c0-13.233-10.766-24-24-24s-24 10.767-24 24c0 7.643 3.596 14.459 9.181 18.857C26.442 64.759 16 79.178 16 96h8c0-17.645 14.355-32 32-32 9.984 0 19.218 4.537 25.333 12.446l6.33-4.893c-4.47-5.78-10.279-10.106-16.823-12.712M40 40c0-8.822 7.178-16 16-16s16 7.178 16 16S64.822 56 56 56s-16-7.177-16-16"/></svg>