<svg xmlns="http://www.w3.org/2000/svg" viewBox="0 0 192 192"><path d="m174.31 52.67-4.62 6.66c-10.635-7.378-23.668-11.277-37.688-11.277-14.046 0-27.082 3.878-37.698 11.216l-4.608-6.666c10.939-7.56 24.093-11.854 38.251-12.543v-8.11H132c2.268 0 4.256-1.91 4.256-4.09 0-2.11-1.924-3.827-4.29-3.827-2.138 0-3.964 1.424-4.248 3.312a3.4 3.4 0 0 0-.038.515h-8.104c0-.574.043-1.152.128-1.718.876-5.824 6.149-10.213 12.263-10.213 6.833 0 12.392 5.352 12.392 11.93 0 5.326-3.476 9.864-8.307 11.522v.68c14.143.692 27.3 5.009 38.259 12.61zM98.066 124H76v52.023h-8V116h17.934L76 92.82V68c0-8.857-7.408-12-13.752-12C52.405 56 48 62.027 48 68v24.82L38.066 116H56v60.023h-8V124H25.934L40 91.18V68c0-8.593 5.152-15.43 13.067-18.395C47.66 46.497 44 40.673 44 34c0-9.925 8.075-18 18-18s18 8.075 18 18c0 6.598-3.579 12.361-8.886 15.495C78.994 52.375 84 59.192 84 68v23.18zM52 34c0 5.514 4.486 10 10 10s10-4.486 10-10-4.486-10-10-10-10 4.486-10 10"/></svg>