<svg xmlns="http://www.w3.org/2000/svg" viewBox="0 0 192 192"><path d="m102.527 113.22 5.4 30.062-7.875 1.414-5.399-30.062zM84 95.825v17.618l7.871.442-1.103 19.669-12.203 9.577-4.939-6.293 9.356-7.344.89-15.838H76V95.91c-.087-4.082 1.481-8.029 4.417-11.028a15.9 15.9 0 0 1 4.797-3.347 11.95 11.95 0 0 1-1.337-5.488c0-6.637 5.398-12.036 12.032-12.036s12.032 5.4 12.032 12.036c0 3.68-1.662 6.974-4.271 9.184 2.634 2.813 4.28 6.549 4.329 10.658v3.814l5.314 8.37-6.754 4.287-6.56-10.332v-6.091c-.051-4.306-3.688-7.848-8.107-7.848-2.205 0-4.25.849-5.758 2.39-1.42 1.45-2.177 3.348-2.135 5.346zm7.878-19.778c0 2.226 1.809 4.037 4.032 4.037s4.032-1.811 4.032-4.037-1.809-4.036-4.032-4.036-4.032 1.81-4.032 4.036M96 15.735 16.217 160h159.566zm0 16.53L162.217 152H29.783z"/></svg>