<svg xmlns="http://www.w3.org/2000/svg" viewBox="0 0 192 192"><path d="M35.57 164.83c-2.02-2.02-4.34-3.73-6.59-5.39-4.67-3.44-9.07-6.69-9.47-12.02-.29-3.86 1.66-7.74 6.13-12.21.94-.94 1.82-1.81 2.63-2.61 2.71-2.68 5.79-5.71 5.93-6.69-.12-1.13-3.85-4.86-7.45-8.47l-.14-.14c-6.74-6.74-9.34-12.16-8.44-17.58.82-4.93 4.46-8.57 8.31-12.43l.12-.12c6.83-6.83 9.83-11.37 9.72-14.7-.11-3.23-3.05-6.79-7.5-12.19-.76-.92-1.55-1.87-2.37-2.88-3.6-3.66-5.3-7.53-5.06-11.52.43-7.15 6.87-12.2 11.57-15.89 1.34-1.05 2.6-2.04 3.27-2.74l5.79 5.52c-1.07 1.12-2.48 2.23-4.12 3.51-3.51 2.75-8.31 6.52-8.52 10.07-.1 1.66.87 3.53 2.88 5.54l.28.31c.85 1.05 1.67 2.04 2.45 2.99 10.66 12.92 15 19.92-2.73 37.64l-.12.12c-3.05 3.05-5.68 5.68-6.08 8.08-.42 2.51 1.67 6.08 6.2 10.61l.14.14c6.53 6.53 9.81 9.81 9.8 14.16-.01 4.16-2.96 7.07-8.31 12.34-.8.79-1.66 1.64-2.59 2.57-3.57 3.57-3.85 5.35-3.81 5.96.13 1.67 3.24 3.97 6.24 6.18 2.37 1.75 5.05 3.72 7.5 6.17zm127.61-5.39c4.67-3.44 9.07-6.69 9.47-12.02.29-3.86-1.66-7.74-6.13-12.21-.94-.94-1.82-1.81-2.63-2.61-2.71-2.68-5.79-5.71-5.93-6.66.12-1.16 3.85-4.89 7.45-8.49l.14-.14c6.74-6.74 9.34-12.16 8.44-17.58-.82-4.93-4.46-8.57-8.31-12.43l-.12-.12c-6.83-6.83-9.83-11.37-9.72-14.7.11-3.23 3.05-6.79 7.5-12.19.76-.92 1.55-1.87 2.37-2.89 3.6-3.66 5.3-7.53 5.06-11.52-.43-7.15-6.87-12.2-11.57-15.89-1.34-1.05-2.6-2.04-3.27-2.74l-5.79 5.52c1.07 1.12 2.48 2.23 4.12 3.51 3.51 2.75 8.31 6.52 8.52 10.07.1 1.66-.87 3.53-2.89 5.54l-.28.31c-.85 1.05-1.67 2.04-2.45 2.99-10.66 12.92-15 19.91 2.73 37.64l.12.12c3.05 3.05 5.68 5.68 6.08 8.08.42 2.51-1.67 6.08-6.2 10.61l-.14.14c-6.53 6.53-9.81 9.81-9.8 14.17.01 4.16 2.96 7.06 8.31 12.34.8.79 1.66 1.64 2.59 2.57 3.57 3.57 3.85 5.35 3.81 5.96-.13 1.67-3.24 3.97-6.24 6.18-2.37 1.75-5.05 3.72-7.5 6.17l5.66 5.66c2.03-2.02 4.36-3.74 6.6-5.39m-70.67-47.61h7.5l3.22-32.65v-26.5H89.29v26.5zm-2.69 12.54q-2.58 2.52-2.58 6.21c0 2.23.76 4.16 2.29 5.8 1.76 1.95 3.93 2.93 6.51 2.93 2.23 0 4.16-.76 5.8-2.29 1.95-1.76 2.93-3.91 2.93-6.45q0-3.63-2.58-6.21c-1.68-1.72-3.69-2.58-6.04-2.58-2.5.01-4.62.87-6.33 2.59"/></svg>