<svg xmlns="http://www.w3.org/2000/svg" viewBox="0 0 192 192"><path d="m141.065 110.112 11.268-6.778-3.175-12.76L156.974 80l-7.816-10.574 3.175-12.76-11.268-6.778-1.949-13.004-13.004-1.949-6.778-11.268-12.76 3.175L96 19.026l-10.574 7.816-12.76-3.175-6.778 11.268-13.004 1.949-1.949 13.004-11.268 6.778 3.175 12.76L35.026 80l7.816 10.574-3.175 12.76 11.268 6.778 1.949 13.004 3.042.456L42.45 164h20.339l15.35 10.233 12.426-37.277L96 140.974l5.435-4.018 12.426 37.277L129.211 164h20.339l-13.476-40.428 3.042-.456zm-67.204 51.655L65.211 156H53.55l10.408-31.224 1.93.289 6.778 11.268 10.547-2.625-9.353 28.058Zm13.291-37.282-10.679 2.657-5.672-9.429-10.882-1.632-1.632-10.882-9.429-5.672 2.657-10.679L44.974 80l6.541-8.848-2.657-10.679 9.429-5.672 1.632-10.882 10.882-1.632 5.672-9.429 10.679 2.657L96 28.974l8.848 6.541 10.679-2.657 5.672 9.429 10.882 1.632 1.632 10.882 9.429 5.672-2.657 10.679L147.026 80l-6.541 8.848 2.657 10.679-9.429 5.672-1.632 10.882-10.882 1.632-5.672 9.429-10.679-2.657L96 131.026zM138.45 156h-11.661l-8.65 5.767-9.353-28.058 10.547 2.625 6.778-11.268 1.93-.289 10.408 31.224Zm-25.096-69.669 15.536-16.538-22.317-4.108L96.074 45.64 85.565 66.429l-21.996 3.374 15.156 16.466-2.441 22.245 19.712-10.325 20.788 10.508zm-6.833 8.213-10.589-5.353-10.057 5.268 1.2-10.934-7.449-8.093 11.222-1.721 5.353-10.589 5.094 9.724 11.724 2.158-8.161 8.688z"/></svg>