<svg xmlns="http://www.w3.org/2000/svg" viewBox="0 0 192 192"><path d="M156.15 160H35.85a13.226 13.226 0 0 1-13.086-11.086L15.278 104h161.444l-7.486 44.914A13.226 13.226 0 0 1 156.15 160M24.721 112l5.933 35.599A5.25 5.25 0 0 0 35.851 152h120.298a5.25 5.25 0 0 0 5.196-4.401L167.278 112H24.722zm12.36-16A7.94 7.94 0 0 1 36 92c0-4.411 3.589-8 8-8s8 3.589 8 8a7.94 7.94 0 0 1-1.082 4h8.555c.332-1.281.527-2.617.527-4 0-8.822-7.178-16-16-16s-16 7.178-16 16c0 1.383.195 2.719.527 4zM154.03 34.542A13.92 13.92 0 0 0 146 32c-5.452 0-10.165 3.124-12.477 7.674l25.023 12.511a13.9 13.9 0 0 0 1.427-5.727L168 50.472V96h8V45.528z"/></svg>