<svg xmlns="http://www.w3.org/2000/svg" viewBox="0 0 192 192"><path d="M50 92.186a4 4 0 1 1-8 0 4 4 0 0 1 8 0m21-4a4 4 0 1 0 0 8 4 4 0 0 0 0-8m79 4a4 4 0 1 0-8 0 4 4 0 0 0 8 0m-110 12a4 4 0 1 0 0 8 4 4 0 0 0 0-8m112 0a4 4 0 1 0 0 8 4 4 0 0 0 0-8m-23 4a4 4 0 1 0-8 0 4 4 0 0 0 8 0m-35.828 13.172a4 4 0 1 0 5.657 5.656 4 4 0 0 0-5.657-5.656m-62 0a4 4 0 1 0 5.657 5.656 4 4 0 0 0-5.657-5.656m130.656 0a4 4 0 1 0-5.656 5.657 4 4 0 0 0 5.656-5.657m-31 5.656a4 4 0 1 0-5.657-5.656 4 4 0 0 0 5.657 5.656M96 136.186a4 4 0 1 0 0 8 4 4 0 0 0 0-8m69 0a4 4 0 1 0 0 8 4 4 0 0 0 0-8m-30 4a4 4 0 1 0-8 0 4 4 0 0 0 8 0m-39 12a4 4 0 1 0 0 8 4 4 0 0 0 0-8m76 0a4 4 0 1 0 0 8 4 4 0 0 0 0-8m-37 0a4 4 0 1 0 0 8 4 4 0 0 0 0-8m-82-80a4 4 0 1 0 0 8 4 4 0 0 0 0-8m21 0a4 4 0 1 0 0 8 4 4 0 0 0 0-8m22-16a4 4 0 1 0 0 8 4 4 0 0 0 0-8m-37 8a4 4 0 1 0 0-8 4 4 0 0 0 0 8m18-8a4 4 0 1 0 0 8 4 4 0 0 0 0-8M129.327 40H100V16h-8v24H52v8h69.327zm44.33-10.343-11.314-11.314-144 144 11.314 11.314z"/></svg>