<svg xmlns="http://www.w3.org/2000/svg" viewBox="0 0 192 192"><path d="M71.03 104H68V48c0-8.822 7.178-16 16-16s16 7.178 16 16h-8c0-4.411-3.589-8-8-8s-8 3.589-8 8v12h39.03l-8 8H76v16h15.03l-8 8H76v7.03zM124 48c0-4.411 3.589-8 8-8 .907 0 1.777.16 2.59.439l5.947-5.947A15.9 15.9 0 0 0 132 32c-8.822 0-16 7.178-16 16v11.03l8-8zm0 57V84.97l-8 8V105zm45.171-87.829-152 152 5.658 5.658 152-152zM40.046 118.067c2.891 2.779 6.351 5.006 10.273 6.644l6.228-6.228c-5.646-1.656-10.17-4.647-13.347-8.883a4 4 0 0 0-6.4 0c-5.345 7.127-12.444 9.619-17.458 10.454l1.316 7.892c5.516-.92 13-3.407 19.388-9.88zM155.2 109.6a4 4 0 0 0-6.4 0c-5.103 6.804-13.678 10.4-24.8 10.4-11.069 0-19.613-3.565-24.724-10.306l-15.881 15.882c4.894-1.686 9.156-4.225 12.605-7.553 6.702 6.468 16.457 9.977 28 9.977 11.525 0 21.268-3.499 27.968-9.947 5.891 5.866 12.844 8.273 19.062 9.827l1.94-7.76c-6.316-1.58-12.84-3.947-17.77-10.52M24.23 150.8a29.5 29.5 0 0 1-4.888 1.254l.52 3.114 4.368-4.369zm130.97-9.2a4 4 0 0 0-6.4 0c-5.103 6.804-13.678 10.4-24.8 10.4s-19.697-3.596-24.8-10.4a4 4 0 0 0-6.4 0C87.697 148.404 79.122 152 68 152c-3.582 0-6.895-.378-9.918-1.111l-6.367 6.367C56.551 159.055 62.034 160 68 160c11.543 0 21.298-3.51 28-9.977 6.702 6.468 16.457 9.977 28 9.977 11.525 0 21.268-3.499 27.968-9.947 5.891 5.866 12.844 8.273 19.062 9.827l1.94-7.76c-6.316-1.58-12.84-3.947-17.77-10.52"/></svg>