<svg xmlns="http://www.w3.org/2000/svg" viewBox="0 0 192 192"><path d="M124 128c-11.543 0-21.298-3.51-28-9.977C89.298 124.491 79.543 128 68 128c-11.517 0-21.254-3.494-27.954-9.933-6.388 6.472-13.872 8.96-19.388 9.879l-1.316-7.892c5.014-.835 12.113-3.327 17.458-10.454a4 4 0 0 1 6.4 0C48.303 116.404 56.878 120 68 120s19.697-3.596 24.8-10.4a4 4 0 0 1 6.4 0c5.103 6.804 13.678 10.4 24.8 10.4s19.697-3.596 24.8-10.4a4 4 0 0 1 6.4 0c4.93 6.573 11.454 8.94 17.77 10.52l-1.94 7.76c-6.218-1.554-13.17-3.961-19.062-9.827-6.7 6.448-16.443 9.947-27.968 9.947m27.968 22.053c5.891 5.866 12.844 8.273 19.062 9.827l1.94-7.76c-6.316-1.58-12.84-3.947-17.77-10.52a4 4 0 0 0-6.4 0c-5.103 6.804-13.678 10.4-24.8 10.4s-19.697-3.596-24.8-10.4a4 4 0 0 0-6.4 0C87.697 148.404 79.122 152 68 152s-19.697-3.596-24.8-10.4a4 4 0 0 0-6.4 0c-5.345 7.127-12.444 9.619-17.458 10.454l1.316 7.892c5.516-.92 13-3.407 19.388-9.88C46.746 156.507 56.483 160 68 160c11.543 0 21.298-3.51 28-9.977 6.702 6.468 16.457 9.977 28 9.977 11.525 0 21.268-3.499 27.968-9.947M76 107.5c-2.757.667-5.555.887-8 .887V48c0-8.822 7.178-16 16-16s16 7.178 16 16h-8c0-4.411-3.589-8-8-8s-8 3.589-8 8v12h40V48c0-8.822 7.178-16 16-16s16 7.178 16 16h-8c0-4.411-3.589-8-8-8s-8 3.589-8 8v60.387c-2.445 0-5.243-.22-8-.887V92H76zM76 84h40V68H76z"/></svg>