<svg xmlns="http://www.w3.org/2000/svg" viewBox="0 0 192 192"><path d="M76 156h-8v-8h8zm0-40h-8v8h8zm0 16h-8v8h8zM44.354 85.82c-3.013-4.633-4.887-7.816-4.906-7.847L36 72.11l-3.448 5.864c-.019.031-1.893 3.214-4.906 7.846l-.684 1.046C23.86 91.59 20 97.475 20 104c0 8.822 7.178 16 16 16s16-7.178 16-16c0-6.526-3.86-12.409-6.962-17.135zM116 168H76v-4h-8v12h56v-12h-8zm-40-68h-8v8h8zm8 16v44h24v-44zm-8-48h-8v8h8zm0 16h-8v8h8zm0-48h-8v8h8zm0 16h-8v8h8zm40-8h8v-8h-8zm0 16h8v-8h-8zM68 28h8v-4h40v4h8V16H68zm48 48h8v-8h-8zm56 28c0 8.822-7.178 16-16 16s-16-7.178-16-16c0-6.526 3.86-12.409 6.962-17.135l.684-1.046c3.013-4.632 4.887-7.815 4.906-7.846L156 72.11l3.448 5.864c.019.031 1.893 3.214 4.906 7.847l.684 1.045C168.14 91.59 172 97.475 172 104m-8 0c0-4.136-3.002-8.71-5.65-12.746l-.69-1.052c-.598-.92-1.153-1.785-1.66-2.584a287 287 0 0 1-1.647 2.562l-.696 1.065C151.002 95.29 148 99.864 148 104c0 4.411 3.589 8 8 8s8-3.589 8-8m-48 52h8v-8h-8zm0-64h8v-8h-8zm0 48h8v-8h-8zm0-16h8v-8h-8zm0-16h8v-8h-8z"/></svg>