<svg xmlns="http://www.w3.org/2000/svg" viewBox="0 0 192 192"><path d="M176 168v8c-6.795 0-17.146-6.683-23.935-13.781C140.945 174.569 128.943 176 124 176c-4.934 0-16.898-1.425-28-13.709C84.898 174.575 72.934 176 68 176c-4.943 0-16.945-1.43-28.065-13.781C33.146 169.317 22.795 176 16 176v-8c3.949 0 14.838-6.451 20.8-14.4a4 4 0 0 1 6.4 0C53.221 166.961 64.716 168 68 168s14.779-1.039 24.8-14.4a4 4 0 0 1 6.4 0c10.021 13.361 21.516 14.4 24.8 14.4s14.779-1.039 24.8-14.4a4 4 0 0 1 6.4 0c5.962 7.949 16.851 14.4 20.8 14.4M44.527 95.085l6.946 3.969 10.848-18.985h26.751l-13.375 23.167-21.866-.097-.035 8 17.294.076-8.554 14.816 6.928 4 8.554-14.816 8.713 14.94 6.91-4.032-11.016-18.887L96 84.069l13.375 23.167-11.017 18.887 6.91 4.031 8.714-14.939 8.554 14.816 6.928-4-8.554-14.816 17.294-.076-.035-8-21.866.097-13.375-23.167h26.75l10.849 18.985 6.946-3.969-8.58-15.016H156v-8h-17.107l8.58-15.015-6.946-3.969-10.848 18.984h-26.751l13.375-23.167 21.865.098.037-8-17.295-.077 8.554-14.815-6.928-4-8.554 14.815-8.713-14.939-6.91 4.032 11.016 18.887L96 68.07 82.625 44.903l11.017-18.887-6.91-4.032-8.714 14.94-8.554-14.816-6.928 4 8.554 14.815L53.795 41l.037 8 21.865-.098L89.072 72.07h-26.75l-10.85-18.985-6.946 3.969 8.58 15.015H36v8h17.107z"/></svg>