<svg xmlns="http://www.w3.org/2000/svg" viewBox="0 0 192 192"><path d="M176 168v8c-6.795 0-17.146-6.683-23.935-13.781C140.945 174.569 128.943 176 124 176c-4.934 0-16.898-1.425-28-13.709C84.898 174.575 72.934 176 68 176c-4.943 0-16.945-1.43-28.065-13.781C33.146 169.317 22.795 176 16 176v-8c3.949 0 14.838-6.451 20.8-14.4a4 4 0 0 1 6.4 0C53.221 166.961 64.716 168 68 168s14.779-1.039 24.8-14.4a4 4 0 0 1 6.4 0c10.021 13.361 21.516 14.4 24.8 14.4s14.779-1.039 24.8-14.4a4 4 0 0 1 6.4 0c5.962 7.949 16.851 14.4 20.8 14.4M146.114 62.667c-1.543 21.088-8.557 38.433-20.285 50.162-8.84 8.84-18.781 11.771-28.077 11.771-13.597 0-25.814-6.27-31.198-9.497L50.83 130.829l-5.658-5.658 15.727-15.726c-5.431-9.062-19.5-37.5 2.273-59.274C74.9 38.443 92.245 31.43 113.333 29.886c15.71-1.15 27.893 1.087 28.404 1.182l2.69.505.505 2.69c.095.51 2.332 12.691 1.182 28.404m-8.63-24.152c-4.33-.565-13.286-1.42-23.765-.636-13.287.996-31.86 4.92-44.89 17.95-8.823 8.821-11.52 20.067-8.02 33.426 1.556 5.942 4.048 11.042 5.921 14.358l44.441-44.442 5.658 5.658-44.442 44.441c3.315 1.872 8.415 4.365 14.358 5.922 13.357 3.498 24.604.801 33.426-8.02 7.193-7.192 16.145-20.819 17.95-44.89.786-10.478-.07-19.435-.636-23.767z"/></svg>