<svg xmlns="http://www.w3.org/2000/svg" viewBox="0 0 192 192"><path d="M68 101.373V48c0-8.822 7.178-16 16-16s16 7.178 16 16h-8c0-4.411-3.589-8-8-8s-8 3.589-8 8v12h33.373l-8 8H76v16h9.373l-8 8H76v1.373zm56.766-56.765a8.04 8.04 0 0 1 3.842-3.842l8.065-8.066A16 16 0 0 0 132 32c-8.822 0-16 7.178-16 16v5.373zM116 98.627V105h8V90.627zm57.657-68.97-11.314-11.314-144 144 11.314 11.314zm-133.611 88.41c1.917 1.843 4.091 3.436 6.477 4.783l5.912-5.912c-3.758-1.736-6.873-4.189-9.235-7.338a4 4 0 0 0-6.4 0c-5.345 7.127-12.444 9.619-17.458 10.454l1.316 7.892c5.516-.92 13-3.407 19.388-9.88zM155.2 109.6a4 4 0 0 0-6.4 0c-5.103 6.804-13.678 10.4-24.8 10.4-9.312 0-16.83-2.53-22.028-7.345l-5.656 5.656c6.69 6.28 16.317 9.689 27.684 9.689 11.525 0 21.268-3.499 27.968-9.947 5.891 5.866 12.844 8.273 19.062 9.827l1.94-7.76c-6.316-1.58-12.84-3.947-17.77-10.52m0 32a4 4 0 0 0-6.4 0c-5.103 6.804-13.678 10.4-24.8 10.4s-19.697-3.596-24.8-10.4a4 4 0 0 0-6.4 0C87.697 148.404 79.122 152 68 152c-1.766 0-3.459-.1-5.092-.28l-6.876 6.875C59.737 159.52 63.746 160 68 160c11.543 0 21.298-3.51 28-9.977 6.702 6.468 16.457 9.977 28 9.977 11.525 0 21.268-3.499 27.968-9.947 5.891 5.866 12.844 8.273 19.062 9.827l1.94-7.76c-6.316-1.58-12.84-3.947-17.77-10.52"/></svg>