<svg xmlns="http://www.w3.org/2000/svg" viewBox="0 0 192 192"><path d="M96.008 119.992c-10.456 0-23.314-10.97-10.124-31.1 3.455-5.303 4.011-6.387 10.125-16.805 5.341 9.106 6.589 11.401 10.125 16.808 13.231 20.203.213 31.097-10.126 31.097m0-32.133c-3.997 6.554-8 11.281-8 16.105 0 10.618 16 10.618 16 0 0-4.816-3.854-9.319-8-16.105M176 48h-13.353c-8.118-16.073-29.193-15.868-37.289 0H72V16H44v32H16v96h28v32h28v-32h53.346c8.01 15.829 29.227 16.111 37.312 0h13.343V48Zm-18.89 88c-5.599 16.911-21.13 15.484-26.214 0H64v32H52v-32H24V56h28V24h12v32h66.879c5.667-16.926 21.518-14.078 25.329-2.727C157.427 56.907 155.599 56 168 56v80z"/></svg>