<svg xmlns="http://www.w3.org/2000/svg" viewBox="0 0 192 192"><path d="M148 136h12v8h-12v12h-8v-12h-12v-8h12v-12h8zm28 4c0 17.645-14.355 32-32 32s-32-14.355-32-32 14.355-32 32-32 32 14.355 32 32m-8 0c0-13.234-10.766-24-24-24s-24 10.766-24 24 10.766 24 24 24 24-10.766 24-24M140 40h-39.978V16h-8v24H52v8h88zM96 88a4 4 0 1 0 0 8 4 4 0 0 0 0-8m-50 0a4 4 0 1 0 0 8 4 4 0 0 0 0-8m25 0a4 4 0 1 0 0 8 4 4 0 0 0 0-8m75 8a4 4 0 1 0 0-8 4 4 0 0 0 0 8m-25 0a4 4 0 1 0 0-8 4 4 0 0 0 0 8m-25 8a4 4 0 1 0 0 8 4 4 0 0 0 0-8m-56 0a4 4 0 1 0 0 8 4 4 0 0 0 0-8m27 0a4 4 0 1 0 0 8 4 4 0 0 0 0-8m26.172 17.172a4 4 0 1 0 5.657 5.656 4 4 0 0 0-5.657-5.656m-62 0a4 4 0 1 0 5.657 5.656 4 4 0 0 0-5.657-5.656m30 0a4 4 0 1 0 5.657 5.656 4 4 0 0 0-5.657-5.656M96 136a4 4 0 1 0 0 8 4 4 0 0 0 0-8m-68 0a4 4 0 1 0 0 8 4 4 0 0 0 0-8m33 0a4 4 0 1 0 0 8 4 4 0 0 0 0-8m35 16a4 4 0 1 0 0 8 4 4 0 0 0 0-8m-76 0a4 4 0 1 0 0 8 4 4 0 0 0 0-8m38 0a4 4 0 1 0 0 8 4 4 0 0 0 0-8m38-80a4 4 0 1 0 0 8 4 4 0 0 0 0-8m-39 4a4 4 0 1 0-8 0 4 4 0 0 0 8 0m17-4a4 4 0 1 0 0 8 4 4 0 0 0 0-8m61 4a4 4 0 1 0 8 0 4 4 0 0 0-8 0m-13 0a4 4 0 1 0-8 0 4 4 0 0 0 8 0M96 56a4 4 0 1 0 0 8 4 4 0 0 0 0-8m37 0a4 4 0 1 0 0 8 4 4 0 0 0 0-8m-18 8a4 4 0 1 0 0-8 4 4 0 0 0 0 8m-60-4a4 4 0 1 0 8 0 4 4 0 0 0-8 0m22-4a4 4 0 1 0 0 8 4 4 0 0 0 0-8"/></svg>