<svg xmlns="http://www.w3.org/2000/svg" viewBox="0 0 192 192"><path d="M176 176c-6.795 0-17.146-6.683-23.935-13.781C140.945 174.569 128.943 176 124 176c-4.934 0-16.898-1.425-28-13.709C84.898 174.575 72.934 176 68 176c-4.943 0-16.945-1.43-28.065-13.781C33.146 169.317 22.795 176 16 176v-8c3.949 0 14.838-6.451 20.8-14.4a4 4 0 0 1 6.4 0C53.221 166.961 64.716 168 68 168s14.779-1.039 24.8-14.4a4 4 0 0 1 6.4 0c10.021 13.361 21.516 14.4 24.8 14.4s14.779-1.039 24.8-14.4a4 4 0 0 1 6.4 0c5.962 7.949 16.851 14.4 20.8 14.4zm-34-72c0-13.108-4.865-21.216-9.57-29.058C128.095 67.717 124 60.892 124 50c0-16.033 10.728-27.07 10.829-27.171l-5.658-5.658C128.634 17.71 116 30.566 116 50c0 13.108 4.865 21.216 9.57 29.058C129.905 86.283 134 93.108 134 104c0 15.788-13.371 26.773-13.506 26.882L123 134l-2.499-3.124 4.998 6.248C126.172 136.584 142 123.696 142 104m-33 0c0-13.108-4.865-21.216-9.57-29.058C95.095 67.717 91 60.892 91 50c0-16.033 10.728-27.07 10.829-27.171L96.17 17.17C95.634 17.71 83 30.566 83 50c0 13.108 4.865 21.216 9.57 29.058C96.905 86.283 101 93.108 101 104c0 15.788-13.371 26.773-13.506 26.882L90 134l-2.499-3.124 4.998 6.248C93.172 136.584 109 123.696 109 104m-33 0c0-13.108-4.865-21.216-9.57-29.058C62.095 67.717 58 60.892 58 50c0-16.033 10.728-27.07 10.829-27.171L63.17 17.17C62.634 17.71 50 30.566 50 50c0 13.108 4.865 21.216 9.57 29.058C63.905 86.283 68 93.108 68 104c0 15.788-13.371 26.773-13.506 26.882L57 134l-2.499-3.124 4.998 6.248C60.172 136.584 76 123.696 76 104"/></svg>