<svg xmlns="http://www.w3.org/2000/svg" viewBox="0 0 192 192"><path d="M50 92a4 4 0 1 1-8 0 4 4 0 0 1 8 0m21-4a4 4 0 1 0 0 8 4 4 0 0 0 0-8m79 4a4 4 0 1 0-8 0 4 4 0 0 0 8 0m-25 0a4 4 0 1 0-8 0 4 4 0 0 0 8 0m-85 12a4 4 0 1 0 0 8 4 4 0 0 0 0-8m112 0a4 4 0 1 0 0 8 4 4 0 0 0 0-8m-23 4a4 4 0 1 0-8 0 4 4 0 0 0 8 0m-35.828 13.172a4 4 0 1 0 5.657 5.656 4 4 0 0 0-5.657-5.656m-62 0a4 4 0 1 0 5.657 5.656 4 4 0 0 0-5.657-5.656m130.656 0a4 4 0 1 0-5.656 5.657 4 4 0 0 0 5.656-5.657m-31 5.656a4 4 0 1 0-5.657-5.656 4 4 0 0 0 5.657 5.656M96 136a4 4 0 1 0 0 8 4 4 0 0 0 0-8m69 0a4 4 0 1 0 0 8 4 4 0 0 0 0-8m-30 4a4 4 0 1 0-8 0 4 4 0 0 0 8 0m-39 12a4 4 0 1 0 0 8 4 4 0 0 0 0-8m-38 0a4 4 0 1 0 0 8 4 4 0 0 0 0-8m114 0a4 4 0 1 0 0 8 4 4 0 0 0 0-8m-37 0a4 4 0 1 0 0 8 4 4 0 0 0 0-8M57 76a4 4 0 1 0-8 0 4 4 0 0 0 8 0m17-4a4 4 0 1 0 0 8 4 4 0 0 0 0-8m65 0a4 4 0 1 0 0 8 4 4 0 0 0 0-8M96 56a4 4 0 1 0 0 8 4 4 0 0 0 0-8m-37 0a4 4 0 1 0 0 8 4 4 0 0 0 0-8m18 0a4 4 0 1 0 0 8 4 4 0 0 0 0-8m60.891-16h-37.869V16.03h-8V40H52.007v8h77.348zm36.858-13.095-5.498-5.81-152 143.85 5.499 5.81zm-61.827 36.498 5.604-5.253c-.67-1.273-1.988-2.15-3.526-2.15a4 4 0 0 0-4 4c0 1.445.773 2.7 1.922 3.403M95.29 79.928l4.665-4.373C99.731 73.558 98.057 72 96 72a3.995 3.995 0 1 0-.71 7.928m-68.23 63.95 4.87-4.566A3.993 3.993 0 0 0 24 140a3.99 3.99 0 0 0 3.06 3.877z"/></svg>