<svg xmlns="http://www.w3.org/2000/svg" viewBox="0 0 192 192"><path d="M112 72h-8v-.001L32 72v44c0 8.822 7.178 16 16 16h44c8.822 0 16-7.178 16-16v-4h4c8.822 0 16-7.183 16-16.012v-8C128 79.172 120.822 72 112 72m-12 44c0 4.411-3.589 8-8 8H48c-4.411 0-8-3.589-8-8V80l60-.001zm20-20.012c0 4.418-3.589 8.012-8 8.012h-4V80h4c4.411 0 8 3.583 8 7.988zm40 67.97H32c-8.822 0-16-7.178-16-16v-8h160v8c0 8.822-7.178 16-16 16m-136-16c0 4.411 3.589 8 8 8h128c4.411 0 8-3.589 8-8zM160.194 28l-4.233 89.284c-.671 8.252-7.676 14.716-15.946 14.716h-30.171a24 24 0 0 0 4.78-8h25.39c4.115 0 7.603-3.204 7.968-7.304L151.806 36H88.209l1.332 27.999h-8.009L79.82 28z"/></svg>