<svg xmlns="http://www.w3.org/2000/svg" viewBox="0 0 192 192"><path d="M156 87.618c.507.799 1.062 1.664 1.66 2.584l.69 1.052C160.997 95.29 164 99.864 164 104c0 4.411-3.589 8-8 8s-8-3.589-8-8c0-4.136 3.002-8.71 5.657-12.755l.696-1.065c.593-.911 1.144-1.77 1.647-2.562m0-15.51-3.448 5.865c-.019.031-1.893 3.214-4.906 7.846l-.684 1.046C143.86 91.59 140 97.475 140 104c0 8.822 7.178 16 16 16s16-7.178 16-16c0-6.526-3.86-12.409-6.962-17.135l-.684-1.045c-3.013-4.633-4.887-7.816-4.906-7.847L156 72.11zM36 120c-8.822 0-16-7.178-16-16 0-6.526 3.86-12.409 6.962-17.135l.684-1.046c3.013-4.632 4.887-7.815 4.906-7.846L36 72.11l3.448 5.864c.019.031 1.893 3.214 4.906 7.847l.684 1.045C48.14 91.59 52 97.475 52 104c0 8.822-7.178 16-16 16m88-104H68v12h8v-4h40v4h8zM76 36h-8v8h8zm0 32h-8v8h8zm0 16h-8v8h8zm0 16h-8v8h8zm0 16h-8v8h8zm0 16h-8v8h8zm0 16h-8v8h8zm48-112h-8v8h8zm0 32h-8v8h8zm0 16h-8v8h8zm0 16h-8v8h8zm0 16h-8v8h8zm0 16h-8v8h8zm0 16h-8v8h8zM76 52h-8v8h8zm48 0h-8v8h8zm0 112h-8v4H76v-4h-8v12h56zM84 76v84h24V76z"/></svg>