<svg xmlns="http://www.w3.org/2000/svg" viewBox="0 0 192 192"><path d="M167.547 41.383q.032-.614.032-1.22c0-13.324-10.766-24.163-24-24.163-7.276 0-14.183 3.393-18.703 9.028a18.5 18.5 0 0 0-4.455-.538c-8.719 0-16.17 6.088-18.192 14.352C94.034 40.889 88 48.38 88 57.143 88 67.541 96.405 76 106.737 76h50.526C167.595 76 176 67.541 176 57.143c0-6.4-3.24-12.31-8.453-15.76M157.263 68h-50.526C100.817 68 96 63.13 96 57.143c0-5.687 4.391-10.443 9.997-10.828l3.482-.238.234-3.483c.383-5.666 5.086-10.104 10.708-10.104 1.516 0 2.985.316 4.365.939l3.252 1.467 1.828-3.063C132.794 26.928 137.92 24 143.58 24c8.822 0 16 7.251 16 16.163 0 .901-.08 1.828-.236 2.753l-.515 3.042 2.81 1.27c3.865 1.749 6.362 5.64 6.362 9.915C168 63.13 163.184 68 157.263 68M52 72h8v8h8V56h-8v8h-8v-8h-8v8h-8v-8h-8v24h8v-8h8v20H16v84h88.07V92H52zm0 96v-28h16v28zm44.07 0H76v-36H44v36H24v-68h72.07z"/></svg>