<svg xmlns="http://www.w3.org/2000/svg" viewBox="0 0 192 192"><path d="M83.674 176.81 90.877 148h-15.2l32.649-40.81-7.203 28.81h15.2zm76.107-89.749c.146-1.446.219-2.89.219-4.315C160 59.176 141.159 40 118 40c-13.53 0-26.329 6.776-34.165 17.887A31.3 31.3 0 0 0 74 56.314c-15.657 0-28.92 11.618-31.528 27.004C27.385 86.003 16 99.478 16 115.375c0 17.948 14.355 32.55 32 32.55h17.434l6.4-8H48c-13.234 0-24-11.014-24-24.55 0-12.86 9.817-23.615 22.35-24.485l3.482-.242.232-3.482C50.92 74.352 61.434 64.314 74 64.314c3.388 0 6.672.714 9.76 2.124l3.275 1.494 1.83-3.1C95.085 54.292 105.977 48 118 48c18.748 0 34 15.587 34 34.746 0 1.942-.168 3.931-.5 5.912l-.507 3.024 2.788 1.276c8.637 3.95 14.219 12.75 14.219 22.417 0 13.536-10.766 24.55-24 24.55h-20.513l-6.4 8H144c17.645 0 32-14.602 32-32.55 0-11.766-6.277-22.573-16.22-28.314z"/></svg>