<svg xmlns="http://www.w3.org/2000/svg" viewBox="0 0 192 192"><path d="M144 148h-4v-8h4c13.234 0 24-11.022 24-24.571 0-9.677-5.582-18.484-14.22-22.438l-2.787-1.276.507-3.022c.332-1.983.5-3.974.5-5.918C152 63.6 136.748 48 118 48c-12.022 0-22.914 6.297-29.134 16.844l-1.83 3.103-3.277-1.496A23.34 23.34 0 0 0 74 64.327c-12.566 0-23.08 10.046-23.936 22.871l-.232 3.483-3.482.241C33.817 91.793 24 102.557 24 115.43 24 128.978 34.766 140 48 140h4v8h-4c-17.645 0-32-14.611-32-32.571 0-15.908 11.384-29.391 26.472-32.077C45.077 67.953 58.342 56.327 74 56.327c3.373 0 6.668.528 9.835 1.573C91.671 46.78 104.47 40 118 40c23.159 0 42 19.189 42 42.775 0 1.428-.074 2.872-.22 4.321 9.943 5.745 16.22 16.559 16.22 28.333 0 17.96-14.355 32.571-32 32.571m-12 4c0-12.683-12.745-24.592-13.287-25.093L116 124.403l-2.713 2.504c-.542.5-13.287 12.41-13.287 25.093 0 8.822 7.178 16 16 16s16-7.178 16-16m-8 0c0 4.411-3.589 8-8 8s-8-3.589-8-8c0-5.83 4.542-12.385 8.005-16.374C119.467 139.604 124 146.143 124 152m-32 8c0-12.683-12.745-24.592-13.287-25.093L76 132.403l-2.713 2.504C72.745 135.407 60 147.317 60 160c0 8.822 7.178 16 16 16s16-7.178 16-16m-8 0c0 4.411-3.589 8-8 8s-8-3.589-8-8c0-5.83 4.542-12.385 8.005-16.374C79.467 147.604 84 154.143 84 160m-23.915-44h6.288V87.938h-6.288zm13.38 0h6.286v-10.274h5.923q4.313 0 6.881-2.013 2.933-2.3 2.933-6.67 0-4.005-2.32-6.383-2.663-2.721-7.762-2.722H73.464V116zm6.286-14.951v-8.127h5.29q4.332 0 4.333 4.006 0 1.86-.978 2.913-1.112 1.208-3.393 1.208zm39.063-8.51q-2.836-5.042-8.49-5.042-4.965 0-8.09 3.604-3.603 4.14-3.603 11.52 0 6.612 2.952 10.12 3.028 3.7 8.089 3.7 4.216 0 6.938-2.339 3.144-2.684 3.144-7.322 0-3.757-2.109-6.23-2.434-2.836-6.574-2.837-4.294 0-6.479 3.413.594-8.798 5.693-8.798 1.4 0 2.31.642c.91.642 1.236 1.21 1.888 2.348l4.331-2.78zm-6.306 10.752q1.362 1.343 1.362 3.642 0 1.994-1.055 3.297-1.227 1.495-3.316 1.495-1.802 0-2.99-1.15-1.36-1.323-1.361-3.565 0-2.05 1.054-3.354 1.189-1.515 3.297-1.515 1.82 0 3.01 1.15zm30.113-10.752q-2.837-5.042-8.491-5.042-4.965 0-8.088 3.604-3.604 4.14-3.604 11.52 0 6.612 2.952 10.12 3.028 3.7 8.089 3.7 4.216 0 6.938-2.339 3.144-2.684 3.144-7.322 0-3.757-2.109-6.23-2.434-2.836-6.575-2.837-4.293 0-6.478 3.413.594-8.798 5.693-8.798 1.398 0 2.31.642c.912.642 1.236 1.21 1.888 2.348l4.331-2.78zm-6.306 10.752q1.36 1.343 1.361 3.642 0 1.994-1.054 3.297-1.227 1.495-3.316 1.495-1.803 0-2.99-1.15-1.361-1.323-1.361-3.565 0-2.05 1.054-3.354 1.187-1.515 3.297-1.515 1.821 0 3.009 1.15"/></svg>