<svg xmlns="http://www.w3.org/2000/svg" viewBox="0 0 192 192"><path d="M176 115.424c0 17.959-14.355 32.57-32 32.57h-4v-8h4c13.234 0 24-11.022 24-24.57 0-9.675-5.582-18.482-14.22-22.436l-2.787-1.275.507-3.023c.332-1.983.5-3.974.5-5.917C152 63.599 136.748 48 118 48c-12.022 0-22.914 6.296-29.134 16.843l-1.83 3.103-3.277-1.496A23.35 23.35 0 0 0 74 64.326c-12.566 0-23.08 10.045-23.936 22.87l-.232 3.482-3.482.241C33.817 91.79 24 102.553 24 115.424c0 13.548 10.766 24.57 24 24.57h4v8h-4c-17.645 0-32-14.611-32-32.57 0-15.907 11.385-29.39 26.472-32.075C45.077 67.95 58.342 56.326 74 56.326c3.373 0 6.668.528 9.835 1.573C91.671 46.78 104.47 40 118 40c23.159 0 42 19.188 42 42.773a43 43 0 0 1-.22 4.32c9.943 5.744 16.22 16.557 16.22 28.33zm-88.672 34.795-6.656-4.438L76 152.79l-4.672-7.008-6.656 4.438 3.854 5.78H60v8h8.526l-3.854 5.781 6.656 4.438L76 167.21l4.672 7.008 6.656-4.438-3.854-5.78H92v-8h-8.526zm40-20-6.656-4.438L116 132.79l-4.672-7.008-6.656 4.438 3.854 5.781H100v8h8.526l-3.854 5.781 6.656 4.438 4.672-7.01 4.672 7.008 6.656-4.438-3.854-5.781H132v-8h-8.526z"/></svg>