<svg xmlns="http://www.w3.org/2000/svg" viewBox="0 0 192 192"><path d="M116 168c-8.822 0-16-7.178-16-16 0-12.683 12.745-24.592 13.287-25.093l2.713-2.504 2.713 2.504c.542.5 13.287 12.41 13.287 25.093 0 8.822-7.178 16-16 16m.005-32.374C112.542 139.615 108 146.171 108 152c0 4.411 3.589 8 8 8s8-3.589 8-8c0-5.857-4.533-12.396-7.995-16.374M96.322 136H81.123l7.203-28.81L55.678 148h15.199l-7.203 28.81zm63.459-48.904c.145-1.449.219-2.893.219-4.32C160 59.188 141.159 40 118 40c-13.53 0-26.33 6.78-34.165 17.9A31.3 31.3 0 0 0 74 56.327c-15.658 0-28.923 11.626-31.528 27.025C27.384 86.038 16 99.52 16 115.429c0 17.103 13.02 31.159 29.5 32.462L51.815 140H48c-13.234 0-24-11.022-24-24.571 0-12.872 9.817-23.636 22.35-24.507l3.482-.241.232-3.483C50.92 74.373 61.434 64.327 74 64.327c3.388 0 6.671.715 9.76 2.124l3.276 1.496 1.83-3.103C95.086 54.297 105.978 48 118 48c18.748 0 34 15.6 34 34.775 0 1.944-.168 3.935-.5 5.918l-.507 3.022 2.786 1.276C162.418 96.945 168 105.752 168 115.43c0 13.548-10.766 24.57-24 24.57h-6.467c1.09 2.667 1.822 5.337 2.188 8H144c17.645 0 32-14.611 32-32.571 0-11.774-6.277-22.588-16.22-28.333z"/></svg>