<svg xmlns="http://www.w3.org/2000/svg" viewBox="0 0 192 192"><path d="M67.72 74.55c.19-.83.28-1.68.28-2.55 0-6.62-5.38-12-12-12s-12 5.38-12 12c0 6.57 5.29 11.91 11.84 11.99a36.3 36.3 0 0 0-4.79 7.39C42.41 89.18 36 81.32 36 72c0-11.03 8.97-20 20-20 10.89 0 19.77 8.74 19.99 19.58-2.9.66-5.67 1.67-8.27 2.97M60 32h-8v12h8zM28 68H16v8h12zm58.829-21.171L81.17 41.17l-8 8 5.658 5.658zm-48 48L33.17 89.17l-8 8 5.658 5.658zm0-45.658-8-8-5.658 5.658 8 8zM148 145.08V128h-8v17.079a7.99 7.99 0 0 0-4 6.921 8 8 0 0 0 16 0 7.99 7.99 0 0 0-4-6.92M104.805 152H61.052C49.444 152 40 142.556 40 130.947c0-11.026 8.61-20.248 19.6-20.996l3.482-.237.238-3.482c.747-10.99 9.97-19.6 20.996-19.6 2.98 0 5.869.616 8.585 1.83l3.234 1.448 1.827-3.036c5.486-9.116 15.1-14.558 25.722-14.558 16.542 0 30 13.458 30 30 0 .938-.058 1.888-.15 2.841a39.7 39.7 0 0 1 7.721 2.761c.28-1.871.429-3.751.429-5.602 0-20.953-17.047-38-38-38-12.324 0-23.58 5.784-30.722 15.63a28.8 28.8 0 0 0-8.646-1.315c-14.093 0-26.052 10.196-28.562 23.755C42.196 104.896 32 116.855 32 130.947 32 146.967 45.033 160 61.052 160h46.298a39.6 39.6 0 0 1-2.545-8M176 144c0-17.645-14.355-32-32-32s-32 14.355-32 32 14.356 32 32 32 32-14.355 32-32m-8 0c0 13.234-10.766 24-24 24s-24-10.766-24-24 10.767-24 24-24 24 10.766 24 24"/></svg>