<svg xmlns="http://www.w3.org/2000/svg" viewBox="0 0 192 192"><path d="M148.42 152H67.58C52.371 152 40 139.44 40 124c0-13.522 9.593-25.007 22.38-27.494 2.422-13.017 13.75-22.792 27.094-22.792 2.752 0 5.443.407 8.038 1.213C104.25 65.645 115.084 60 126.526 60c19.851 0 36 16.406 36 36.571 0 1.085-.05 2.182-.148 3.282C170.739 104.842 176 114.02 176 124c0 15.44-12.372 28-27.58 28M89.475 81.714c-10.252 0-18.828 8.177-19.526 18.616l-.233 3.482-3.482.241C56.009 104.761 48 113.523 48 124c0 11.028 8.783 20 19.58 20h80.84c10.797 0 19.58-8.972 19.58-20 0-7.876-4.555-15.045-11.604-18.264l-2.792-1.275.51-3.027a29.4 29.4 0 0 0 .412-4.863c0-15.754-12.56-28.571-28-28.571-9.9 0-18.869 5.173-23.992 13.838l-1.83 3.095-3.27-1.49a19.1 19.1 0 0 0-7.96-1.729zm7.895-29.21c-2.55 0-5.047.36-7.456 1.075C83.513 45.02 73.54 40 62.63 40c-18.747 0-34 15.116-34 33.697q0 1.377.119 2.772C20.918 81.1 16 89.532 16 98.705c0 10.649 6.443 19.96 16.089 23.904.136-2.73.583-5.497 1.317-8.212C27.7 111.33 24 105.399 24 98.705c0-7.026 4.198-13.43 10.694-16.314l2.849-1.266-.531-3.072a25.7 25.7 0 0 1-.38-4.356c0-14.17 11.663-25.697 26-25.697 9.212 0 17.55 4.667 22.302 12.486l1.825 3.002 3.213-1.423a18.2 18.2 0 0 1 7.397-1.561c1.018 0 2.023.082 3.006.243a44.3 44.3 0 0 1 9.13-5.273 26 26 0 0 0-12.136-2.97z"/></svg>