<svg xmlns="http://www.w3.org/2000/svg" viewBox="0 0 192 192"><path d="M176 112h-8c0-9.96-6.2-24.318-14.193-27.904l-2.828-1.268.522-3.056c.332-1.934.499-3.876.499-5.772 0-18.748-15.252-34-34-34-12.037 0-22.936 6.167-29.152 16.499l-1.827 3.035-3.234-1.447A23.8 23.8 0 0 0 74 56c-12.57 0-23.083 9.815-23.936 22.345l-.237 3.482-3.482.237C36.225 82.753 24 96.26 24 112h-8c0-15.48 11.326-34.077 26.47-37.436C45.07 59.43 58.337 48 74 48c3.376 0 6.675.52 9.846 1.55C91.729 38.5 104.263 32 118 32c23.159 0 42 18.841 42 42 0 1.412-.075 2.842-.223 4.275C169.59 84.658 176 100.15 176 112m-160 8h160m-44 32H16v8h116zm44 0h-36v8h36zm-8-16H60v8h108zm8-16h-76v8h76zm-84 0H16v8h76zm-40 16H24v8h28z"/></svg>