<svg xmlns="http://www.w3.org/2000/svg" viewBox="0 0 192 192"><path fill="#1a1a18" d="M144 148h-4v-8h4c13.234 0 24-11.022 24-24.571 0-9.676-5.582-18.483-14.221-22.438l-2.787-1.276.507-3.022c.332-1.983.5-3.974.5-5.917 0-19.175-15.252-34.775-34-34.775-12.022 0-22.914 6.297-29.134 16.844l-1.83 3.103-3.277-1.496a23.3 23.3 0 0 0-9.759-2.125c-12.566 0-23.08 10.046-23.936 22.872l-.232 3.482-3.482.242c-12.533.871-22.35 11.635-22.35 24.506 0 13.549 10.766 24.571 24 24.571h4v8h-4c-17.645 0-32-14.611-32-32.571 0-15.908 11.384-29.391 26.472-32.077 2.605-15.398 15.87-27.025 31.528-27.025 3.373 0 6.668.528 9.835 1.573C91.67 46.781 104.469 40 117.999 40c23.159 0 42 19.189 42 42.775 0 1.427-.074 2.872-.219 4.321 9.942 5.745 16.219 16.559 16.219 28.333 0 17.96-14.355 32.571-32 32.571Zm-12 4c0-12.683-12.745-24.592-13.287-25.093L116 124.403l-2.713 2.504C112.745 127.408 100 139.318 100 152c0 8.822 7.178 16 16 16s16-7.178 16-16m-8 0c0 4.411-3.589 8-8 8s-8-3.589-8-8c0-5.829 4.542-12.385 8.005-16.374C119.467 139.604 124 146.143 124 152m-32 8c0-12.683-12.745-24.592-13.287-25.093L76 132.403l-2.713 2.504C72.745 135.408 60 147.318 60 160c0 8.822 7.178 16 16 16s16-7.178 16-16m-8 0c0 4.411-3.589 8-8 8s-8-3.589-8-8c0-5.829 4.542-12.385 8.005-16.374C79.467 147.604 84 154.143 84 160m-23.915-44h6.287V87.938h-6.287zm13.379 0h6.287v-10.274h5.923q4.312 0 6.881-2.013 2.933-2.3 2.933-6.67 0-4.006-2.319-6.383-2.664-2.721-7.763-2.722H73.465zm6.287-14.951v-8.127h5.29q4.332 0 4.332 4.006 0 1.86-.978 2.914-1.112 1.208-3.393 1.208H79.75ZM134.858 116h5.731v-5.501h3.488v-4.677h-3.488V87.613h-6.594l-12.689 17.979v4.907h13.552zm.268-22.292v12.114h-8.319zm-29.154-1.323h11.865v-4.831h-16.292l-1.763 16.292h5.175q1.265-2.358 3.987-2.357 1.879 0 3.028 1.131 1.342 1.303 1.342 3.699 0 2.147-1.054 3.431-1.207 1.476-3.469 1.476-3.489 0-4.581-3.661l-5.693 1.572.153.402q.44 1.284.872 1.994c.432.71.719.997 1.294 1.572q3.009 2.952 8.242 2.952 4.466 0 7.226-2.319 3.182-2.646 3.182-7.495 0-3.89-2.089-6.344-2.397-2.837-6.709-2.837-3.623 0-5.501 2.108z"/></svg>