<svg xmlns="http://www.w3.org/2000/svg" viewBox="0 0 192 192"><path d="M175.69 115.708c0-22.665-22.443-41.04-50.13-41.04s-50.13 18.375-50.13 41.04c0 22.666 22.444 41.04 50.13 41.04 6.9 0 13.473-1.143 19.455-3.208L161.95 162l-3.715-15.209c10.673-7.526 17.457-18.647 17.457-31.083zm-64.943-6.083a8.426 8.426 0 0 1-8.426-8.426 8.426 8.426 0 1 1 16.852 0 8.426 8.426 0 0 1-8.426 8.426m32.5 0a8.425 8.425 0 0 1-8.426-8.426 8.426 8.426 0 1 1 16.851 0 8.426 8.426 0 0 1-8.426 8.426zM74.068 32c-31.9 0-57.76 21.194-57.76 47.337 0 15.463 9.088 29.151 23.08 37.79l-4.295 16.134 20.48-9.111c4.482 1.242 9.253 1.909 14.145 2.222-.908-3.436-1.428-6.996-1.428-10.664 0-26.838 25.64-48.595 57.27-48.595 1.455 0 2.883.095 4.31.185C123.364 46.997 100.884 32 74.07 32zM54.807 72.914a8.72 8.72 0 1 1 0-17.441 8.72 8.72 0 1 1 0 17.44zm37.7 0a8.72 8.72 0 1 1 0-17.441 8.72 8.72 0 0 1 0 17.44z"/></svg>