<svg xmlns="http://www.w3.org/2000/svg" viewBox="0 0 192 192"><path d="M96 176c-44.112 0-80-35.888-80-80s35.888-80 80-80 80 35.888 80 80-35.888 80-80 80m0-152c-39.701 0-72 32.299-72 72s32.299 72 72 72 72-32.299 72-72-32.299-72-72-72m29.387 73.052q-2.443-1.54-5.475-2.498a21 21 0 0 1-.904-.32q-.269-.105-.637-.398-.376-.292-.243-.665c.092-.249.17-.603.243-1.065q2.39-6.113 0-9.465-2.447-3.24-8.14-3.24-5.688 0-13.078 3.135l-.32.105a6 6 0 0 1-.716.189c-.268.053-.522.06-.771.025a.66.66 0 0 1-.532-.373c-.105-.21-.09-.564.054-1.061q2.39-7.71-1.064-11.116-3.935-3.935-13.108-.37-9.172 3.563-18.158 12.55C58 87.02 54.5 91.596 52.038 96.204c-2.467 4.609-3.697 8.949-3.697 13.028q-.001 5.742 3.454 10.609c2.307 3.24 5.344 5.918 9.12 8.027q5.664 3.164 12.79 4.946a60.2 60.2 0 0 0 14.62 1.782q7.501 0 14.386-1.648 6.884-1.65 12.017-4.414 5.13-2.763 8.958-6.25 3.83-3.48 5.797-7.284 1.969-3.8 1.97-7.415 0-3.405-1.811-6.196-1.807-2.795-4.255-4.337m-17.358 24.385q-7.79 6.3-19.65 7.525c-5.175.493-10.038.124-14.595-1.119q-6.832-1.859-11.086-5.797-4.251-3.935-4.733-9.041-.742-7.763 7.046-14.063 7.79-6.3 19.65-7.524 7.762-.745 14.592 1.115 6.835 1.864 11.09 5.797c2.837 2.623 4.41 5.637 4.73 9.04q.743 7.763-7.044 14.067M89.922 99.395q-5.634-1.434-11.192 1.01-5.556 2.446-8.056 7.39-2.5 5.052-.344 9.971 2.15 4.918 7.842 6.727 5.905 1.913 11.91-.64 6.007-2.552 8.403-7.976 2.39-5.316-.134-10.128c-1.686-3.21-4.493-5.326-8.429-6.354m-5.689 17.227c-.78 1.204-1.886 2.049-3.323 2.527q-2.156.718-3.962-.134-1.806-.851-2.287-2.686c-.32-1.22-.087-2.435.69-3.64q1.12-1.756 3.191-2.447 2.075-.69 3.881.054 1.864.798 2.394 2.658.535 1.86-.584 3.668m4.997-6.434q-.37.693-1.169.985-.798.292-1.542.025-1.595-.745-.689-2.393.37-.69 1.141-.981a2.13 2.13 0 0 1 1.517-.03q.688.268.93.985.239.719-.188 1.409m35.097-23.318q.582 1.147 1.806 1.571a3.07 3.07 0 0 0 2.368-.213 3.1 3.1 0 0 0 1.568-1.807q1.01-2.979.345-6.25a12.15 12.15 0 0 0-2.897-5.767q-2.233-2.502-5.37-3.484a12.16 12.16 0 0 0-6.33-.293q-1.276.268-1.965 1.355-.692 1.09-.428 2.367.216 1.278 1.33 1.966a3.17 3.17 0 0 0 2.393.428q3.35-.693 5.691 1.86t1.275 5.903a3.04 3.04 0 0 0 .214 2.364m18.795-9.305q-1.356-6.725-5.981-11.83-4.628-5.158-11.062-7.15-6.435-2-12.973-.613-1.49.316-2.314 1.568-.825 1.25-.503 2.737.316 1.492 1.593 2.314c.851.552 1.772.717 2.763.507q4.629-.956 9.2.452 4.574 1.407 7.872 5.077 3.298 3.615 4.254 8.4.957 4.786-.532 9.147a3.57 3.57 0 0 0 .268 2.766c.458.886 1.169 1.488 2.125 1.807q1.436.479 2.766-.214c.886-.459 1.488-1.17 1.807-2.125q2.075-6.113.717-12.843"/></svg>