<svg xmlns="http://www.w3.org/2000/svg" viewBox="0 0 192 192"><path d="m29.657 173.657-11.314-11.314 144-144 11.314 11.314zM97.444 70.662c-.834.186-2.371.564-3.302 1.009-.838.401-2.095 1.295-3.004 1.976l-22.54 16.907A11.93 11.93 0 0 0 64 100c0 1.589.319 3.101.885 4.488l34.154-34.154zM16 108V72c0-6.617 5.383-12 12-12 4.846 0 9.02 2.893 10.913 7.038l34.65-9.64c.753-.26 3.804-1.264 6.225-1.392l.211-.006H112c.438 0 .867.035 1.292.08L105.373 64H80.125c-1.074.08-2.988.62-4.036.99l-.26.08L40 75.04V104h9.287l9.364 6.722-5.733 5.733L46.713 112H39.3c-1.653 4.653-6.087 8-11.3 8-6.617 0-12-5.383-12-12m8 0c0 2.206 1.794 4 4 4s4-1.794 4-4V72c0-2.206-1.794-4-4-4s-4 1.794-4 4zm152-36v36c0 6.617-5.383 12-12 12-5.213 0-9.647-3.347-11.3-8h-7.756l-22.142 11.071c-1.438 2.025-3.517 3.567-6.052 4.362l-1.234.339-28.125 7.74A12.2 12.2 0 0 1 84 136c-1.558 0-3.079-.301-4.497-.876l7.93-7.93 26.984-7.414c1.62-.534 2.583-1.942 2.583-3.78 0-.942-.212-1.519-.307-1.73l.183.229-.184-.23-7.26-9.075 5.69-5.69 8.122 10.156c.209.29 1.003 1.51 1.448 3.522L143.056 104H152V76h-13.373l8-8h6.073c1.653-4.653 6.087-8 11.3-8 6.617 0 12 5.383 12 12m-8 0c0-2.206-1.794-4-4-4s-4 1.794-4 4v36c0 2.206 1.794 4 4 4s4-1.794 4-4z"/></svg>