<svg xmlns="http://www.w3.org/2000/svg" viewBox="0 0 192 192"><path d="m22.829 174.829-5.658-5.658 152-152 5.658 5.658zM120 88.97 112.97 96H120zM72 100c0-1.237.56-2.386 1.47-3.102l18.645-13.983 14.044-14.044-8.715 1.791c-.834.186-2.371.564-3.302 1.009-.838.401-2.095 1.295-3.004 1.976l-22.54 16.907A11.93 11.93 0 0 0 64 100c0 3.062 1.162 5.85 3.057 7.973l5.677-5.678A3.97 3.97 0 0 1 72 100m104-28v36c0 6.617-5.383 12-12 12-5.213 0-9.647-3.347-11.3-8h-7.756l-22.142 11.071c-1.438 2.025-3.517 3.567-6.052 4.362l-1.234.339-28.125 7.74A12.2 12.2 0 0 1 84 136c-2.427 0-4.767-.722-6.765-2.088l-1.267-.91 5.732-5.731.125.09c.86.585 2.155.807 3.278.486l.372-.115 28.942-7.952c1.62-.534 2.583-1.942 2.583-3.78 0-.942-.212-1.519-.307-1.73l.183.229-.184-.23-9.773-12.217 5.69-5.69 10.635 13.298c.209.29 1.003 1.51 1.448 3.522L143.056 104H152V76h-19.03l8-8h11.73c1.653-4.653 6.087-8 11.3-8 6.617 0 12 5.383 12 12m-8 0c0-2.206-1.794-4-4-4s-4 1.794-4 4v36c0 2.206 1.794 4 4 4s4-1.794 4-4zM16 108V72c0-6.617 5.383-12 12-12 4.846 0 9.02 2.893 10.913 7.038l34.65-9.64c.753-.26 3.804-1.264 6.225-1.392l.211-.006H112c2.031 0 3.944.511 5.623 1.406L111.03 64H80.125c-1.074.08-2.988.62-4.036.99l-.26.08L40 75.04V104h9.287l12.656 9.086-5.732 5.733L46.713 112H39.3c-1.653 4.653-6.087 8-11.3 8-6.617 0-12-5.383-12-12m8 0c0 2.206 1.794 4 4 4s4-1.794 4-4V72c0-2.206-1.794-4-4-4s-4 1.794-4 4z"/></svg>