<svg xmlns="http://www.w3.org/2000/svg" viewBox="0 0 192 192"><path d="M143.913 31.988c-7.268 0-14.061-3.363-19.127-9.472l6.156-5.107c3.52 4.242 8.126 6.579 12.97 6.579s9.452-2.337 12.972-6.58l6.156 5.108c-5.066 6.109-11.859 9.472-19.127 9.472m.053 16.05c11.812-.011 22.853-5.385 31.09-15.133l-6.111-5.164c-6.693 7.922-15.567 12.288-24.986 12.297h-.026c-9.432 0-18.329-4.368-25.057-12.302l-6.101 5.174c8.273 9.757 19.336 15.128 31.158 15.128zM176 92v28H83.17l13.143 56h-8.217L76.83 128h-9.66l-11.266 48h-8.218l13.144-56H36v-20H16V72h44.83L47.689 16h8.218L67.17 64h9.66l11.264-48h8.217l-13.14 56H156v20zM36 92h112V80H24v12zm132 8H44v12h124z"/></svg>