<svg xmlns="http://www.w3.org/2000/svg" viewBox="0 0 192 192"><path d="M159.787 68.491h.147l.146-.01c2.25-.162 4.076-1.825 4.546-4.14.484-2.392-.625-4.801-2.75-5.884l-14.795-7.27 4.435-11.119c.152.006.305.021.457.021 4.768 0 9.289-2.861 11.16-7.554a11.93 11.93 0 0 0-.12-9.183 11.92 11.92 0 0 0-6.58-6.409 11.91 11.91 0 0 0-9.183.121 11.92 11.92 0 0 0-6.41 6.58 11.94 11.94 0 0 0-.255 8.159l-24.343 2.37-.486.077c-2.092.469-3.625 2.214-3.907 4.448-.287 2.268.824 4.456 2.817 5.472l22.24 10.93-2.131 5.346-24.25-.045h-.146l-.146.01c-2.28.164-4.113 1.855-4.56 4.209-.46 2.426.701 4.83 2.814 5.84l18.704 8.998-3.236 8.113-18.366 1.263c-2.302.21-4.108 1.96-4.492 4.353-.396 2.452.841 4.822 3.007 5.765l13.44 4.695-5.096 12.774c-1.766-.07-3.539.24-5.21.958a11.92 11.92 0 0 0-6.409 6.579l-.011.033H92V99.992H76v-8.599c0-6.292-5.12-11.412-11.412-11.412H39.412C33.12 79.981 28 85.101 28 91.393v73.2c0 6.293 5.12 11.412 11.412 11.412h25.176c6.293 0 11.412-5.119 11.412-11.411v-8.648h16v-23.955h8.533a11.98 11.98 0 0 0 6.996 7.559c1.44.574 2.945.86 4.449.86a12 12 0 0 0 4.735-.98 11.92 11.92 0 0 0 6.41-6.58c.112-.284.202-.572.292-.859H164v-8h-38.043l23.606-7.497.555-.223c1.79-.88 2.91-2.752 2.923-4.886.013-2.06-1.027-3.87-2.714-4.724l-.238-.121-22.02-7.686 1.455-3.649 23.035-1.585c2.257-.206 4.056-1.916 4.476-4.254.432-2.405-.732-4.786-2.824-5.787l-16.822-8.093 2.804-7.03zM68 164.594a3.415 3.415 0 0 1-3.412 3.411H39.412A3.415 3.415 0 0 1 36 164.594v-8.491l10.868-10.868-5.656-5.657L36 144.79v-8.594l10.868-10.868-5.656-5.657L36 124.883v-8.594l10.868-10.868-5.656-5.657L36 104.976V91.393a3.416 3.416 0 0 1 3.412-3.412h25.176A3.416 3.416 0 0 1 68 91.393v8.873l-10.813 10.812 5.657 5.657L68 111.579v8.593l-10.813 10.813 5.657 5.657L68 131.485v8.594l-10.813 10.813 5.657 5.657L68 151.393zm16-16.648h-8v-39.954h8zm64.272-121.339a3.97 3.97 0 0 1 2.136-2.193 4 4 0 0 1 1.578-.327c.501 0 1.003.096 1.484.287.992.396 1.77 1.154 2.192 2.136s.437 2.069.04 3.061a4 4 0 0 1-5.196 2.234 4.004 4.004 0 0 1-2.234-5.198M126.736 41.19l16.355-1.592-3.212 8.05zm-11.046 88.697a3.97 3.97 0 0 1-2.135 2.193 3.98 3.98 0 0 1-3.062.04 4.004 4.004 0 0 1-2.232-5.197 4.004 4.004 0 0 1 5.197-2.234 4.004 4.004 0 0 1 2.232 5.198m23.778-18.58-18.74 5.952 4.376-10.97z"/></svg>