<svg xmlns="http://www.w3.org/2000/svg" viewBox="0 0 192 192"><path d="M78 108c6.617 0 12-5.383 12-12s-5.383-12-12-12-12 5.383-12 12 5.383 12 12 12m0-16c2.206 0 4 1.794 4 4s-1.794 4-4 4-4-1.794-4-4 1.794-4 4-4m-41.344 38.687-5.508 5.508 5.657 5.657 5.437-5.437c8.595 7.614 19.624 12.527 31.758 13.421v7.422h8v-7.422c12.134-.894 23.163-5.807 31.758-13.42l5.437 5.436 5.657-5.657-5.508-5.508c7.086-8.432 11.635-19.052 12.492-30.687H156V51.473c6.89-1.783 12-8.034 12-15.473V24h-4v-8h-8v8h-8v-8h-8v8h-4v12c0 7.439 5.11 13.69 12 15.473V92h-16.164c-.894-12.134-5.807-23.163-13.42-31.758l6.436-6.437-5.657-5.657-6.508 6.508C104.255 47.57 93.635 43.021 82 42.164v-9.422h-8v9.422c-11.635.857-22.255 5.406-30.687 12.492l-6.508-6.508-5.657 5.657 6.437 6.437C29.97 68.837 25.058 79.866 24.164 92h-8.422v8h8.422c.857 11.635 5.406 22.255 12.492 30.687M144 36v-4h16v4c0 4.411-3.589 8-8 8s-8-3.589-8-8M32.185 100h12.058a33.8 33.8 0 0 0 6.63 16.47l-8.54 8.54A45.78 45.78 0 0 1 32.185 100M78 70c14.336 0 26 11.664 26 26s-11.664 26-26 26-26-11.664-26-26 11.664-26 26-26m-30.09 60.748 8.5-8.502a33.85 33.85 0 0 0 17.59 7.51v12.06c-9.931-.861-18.965-4.888-26.09-11.068M82 141.815v-12.058a33.85 33.85 0 0 0 17.59-7.51l8.5 8.501c-7.125 6.18-16.159 10.207-26.09 11.067m31.667-16.806-8.54-8.54a33.8 33.8 0 0 0 6.63-16.469h12.058a45.78 45.78 0 0 1-10.148 25.01zM123.815 92h-12.058a33.85 33.85 0 0 0-7.51-17.59l8.501-8.5c6.18 7.125 10.207 16.159 11.067 26.09M107.01 60.333l-8.54 8.54A33.8 33.8 0 0 0 82 62.243V50.185a45.78 45.78 0 0 1 25.01 10.148M74 50.185v12.058a33.8 33.8 0 0 0-16.47 6.63l-8.54-8.54A45.78 45.78 0 0 1 74 50.185M43.252 65.909l8.502 8.502A33.85 33.85 0 0 0 44.244 92h-12.06c.861-9.931 4.888-18.965 11.068-26.09zM156 112a4 4 0 1 1 0 8 4 4 0 0 1 0-8m-16 24a4 4 0 1 1 0 8 4 4 0 0 1 0-8m28 12a4 4 0 1 1 8 0 4 4 0 0 1-8 0m3 20h5v8h-5c-3.858 0-9.258-2.938-13.236-6.326-3.329 2.96-8.636 6.326-15.555 6.326-6.881 0-12.17-3.331-15.502-6.28-3.332 2.949-8.62 6.28-15.503 6.28-6.814 0-12.067-3.266-15.404-6.192-3.957 3.294-9.633 6.192-16.004 6.192-6.882 0-12.17-3.331-15.503-6.28-3.332 2.949-8.62 6.28-15.502 6.28-6.919 0-12.226-3.366-15.555-6.326C29.258 173.062 23.858 176 20 176h-4v-8h4c1.61 0 7.231-2.968 10.21-6.556a4 4 0 0 1 6.155 0c1.278 1.538 5.947 6.556 12.426 6.556 6.477 0 11.148-5.018 12.425-6.556a4 4 0 0 1 6.155 0c1.277 1.538 5.947 6.556 12.425 6.556 4.727 0 9.412-2.726 12.223-5.563l.061-.137a4 4 0 0 1 3.621-2.3H96a4 4 0 0 1 3.694 2.466c1.971 2.052 6.114 5.534 11.51 5.534 6.478 0 11.148-5.018 12.425-6.556a4 4 0 0 1 6.155 0c1.277 1.538 5.948 6.556 12.425 6.556 6.479 0 11.148-5.018 12.426-6.556a4 4 0 0 1 6.154 0c2.98 3.588 8.6 6.556 10.211 6.556"/></svg>