<svg xmlns="http://www.w3.org/2000/svg" viewBox="0 0 192 192"><path d="M80 72c-10.63 0-20.39 3.787-28.004 10.08q.002-.04.004-.08c0-9.925-8.075-18-18-18s-18 8.075-18 18 8.075 18 18 18c1.857 0 3.649-.283 5.335-.808A43.7 43.7 0 0 0 36 115.965C36 140.246 55.754 160 80.035 160c22.896 0 41.76-17.605 43.785-40H176V72zM24 82c0-5.514 4.486-10 10-10s10 4.486 10 10-4.486 10-10 10-10-4.486-10-10m144 30h-52v4c0 19.85-16.134 36-35.965 36C60.165 152 44 135.835 44 115.965 44 96.134 60.15 80 80 80h88zM80 56h-8V32h8zm15.43 6.058-6.86-4.116 12-20 6.86 4.116zm-38.86 0-12-20 6.86-4.116 12 20z"/></svg>