<svg xmlns="http://www.w3.org/2000/svg" viewBox="0 0 192 192"><path d="m102.935 72.35-7.727 7.702c-18.172.198-36.284 7.2-50.12 21.036l-5.656-5.657c17.357-17.358 40.772-25.042 63.503-23.08zm20.745 13.196a71.6 71.6 0 0 1 23.232 15.542l5.656-5.657a79.6 79.6 0 0 0-22.797-15.956zm-.08-33.792 6.453-6.433c-38.637-12.263-82.66-3.105-113.248 27.483l5.656 5.657C49.809 51.114 88.72 42.214 123.6 51.754m24.003 9.947a103.8 103.8 0 0 1 21.936 16.76l5.656-5.657a111.8 111.8 0 0 0-21.73-16.946zm-50.491 50.326c10.267.279 19.88 4.397 27.172 11.689l5.656-5.657c-7.048-7.049-15.906-11.621-25.523-13.314zM96 139.8c-6.186 0-11.2 5.014-11.2 11.2s5.014 11.2 11.2 11.2 11.2-5.014 11.2-11.2-5.014-11.2-11.2-11.2m79.3-117-5.6-5.7-152.5 152 5.6 5.7z"/></svg>