<svg xmlns="http://www.w3.org/2000/svg" viewBox="0 0 192 192"><path d="M144 112c-17.645 0-32 14.355-32 32s14.355 32 32 32 32-14.355 32-32-14.355-32-32-32m0 56c-13.233 0-24-10.766-24-24s10.767-24 24-24 24 10.766 24 24-10.767 24-24 24m9.172-34.829 5.656 5.657L140 157.656l-10.828-10.828 5.656-5.657 5.172 5.172zM45.088 101.088l-5.656-5.657c31.191-31.191 81.945-31.191 113.137 0l-5.656 5.657c-28.074-28.073-73.75-28.073-101.824 0ZM22.461 78.461l-5.656-5.657c43.668-43.668 114.723-43.668 158.391 0l-5.656 5.657c-40.551-40.549-106.527-40.549-147.078 0ZM104 144c0 4.256.675 8.356 1.912 12.207-1.875 3.562-5.607 5.993-9.912 5.993-6.186 0-11.2-5.014-11.2-11.2s5.014-11.2 11.2-11.2c3.147 0 5.986 1.302 8.021 3.391-.005.27-.021.537-.021.809m-8-32c-10.685 0-20.729 4.161-28.284 11.716l-5.656-5.657C71.125 108.993 83.179 104 96 104c9.05 0 17.712 2.498 25.216 7.15a40.3 40.3 0 0 0-6.397 5.532c-5.723-3.059-12.147-4.682-18.82-4.682Z"/></svg>