<svg xmlns="http://www.w3.org/2000/svg" viewBox="0 0 192 192"><path d="M144.002 112C126.356 112 112 126.354 112 143.999S126.356 176 144.002 176 176 161.645 176 143.999 161.646 112 144.002 112m0 56C130.768 168 120 157.233 120 143.999S130.768 120 144.002 120 168 130.766 168 143.999 157.234 168 144.002 168M148 156a3.98 3.98 0 0 1-3.981 4.001c-2.249 0-4.019-1.753-4.019-4.001 0-2.208 1.808-4 4.055-4 2.139 0 3.945 1.831 3.945 4m-8-28h8v8.043L146.73 148h-5.46l-1.271-12.043V128ZM22.461 78.461l-5.656-5.657c43.668-43.668 114.723-43.668 158.391 0l-5.656 5.657c-40.551-40.549-106.527-40.549-147.078 0Zm22.627 22.627-5.656-5.657c31.191-31.191 81.945-31.191 113.137 0l-5.656 5.657c-28.074-28.073-73.75-28.073-101.824 0ZM96 112c-10.685 0-20.729 4.161-28.284 11.716l-5.656-5.657C71.125 108.993 83.179 104 96 104c9.049 0 17.711 2.498 25.215 7.149a40.2 40.2 0 0 0-6.397 5.533C109.095 113.623 102.672 112 96 112m8 32c0 4.257.674 8.357 1.911 12.208-1.875 3.561-5.607 5.992-9.911 5.992-6.186 0-11.2-5.014-11.2-11.2s5.014-11.2 11.2-11.2c3.147 0 5.986 1.302 8.021 3.391-.005.27-.021.537-.021.809"/></svg>