<svg xmlns="http://www.w3.org/2000/svg" viewBox="0 0 192 192"><path d="M97.304 72.069 89 80.374c-16.04 1.553-31.653 8.457-43.911 20.714l-5.656-5.657c15.926-15.927 36.953-23.7 57.872-23.362zm4.85 40.404c8.347 1.281 16.047 5.159 22.13 11.243l5.656-5.657c-5.944-5.945-13.177-10.124-21.065-12.307l-6.72 6.72zm48.788-48.788a104 104 0 0 1 18.597 14.776l5.656-5.657a112 112 0 0 0-18.46-14.912zm-23.54 23.54a71.7 71.7 0 0 1 19.51 13.863l5.656-5.657a79.7 79.7 0 0 0-19.2-14.172zm-8.594-36.66 6.609-6.609c-37.483-10.138-79.242-.523-108.612 28.848l5.656 5.657c26.102-26.1 62.737-35.396 96.347-27.896M96 139.8c-6.186 0-11.2 5.014-11.2 11.2s5.014 11.2 11.2 11.2 11.2-5.014 11.2-11.2-5.014-11.2-11.2-11.2m77.657-110.143-11.314-11.314-144 144 11.314 11.314z"/></svg>