<svg xmlns="http://www.w3.org/2000/svg" viewBox="0 0 192 192"><path d="M40 152h36.683l-2.666 8H32V72h32v8H40zm63.283-40H80.001V40h72v28.724a26.2 26.2 0 0 1 8-.626V32h-88v88h23.281zM120 96V80h16v-8h-16V56h-8v16H96v8h16v16zm50.74 10.666-.004-.004-54.956 54.965-38.104 12.697 12.697-38.104 54.962-54.952-.005-.005c6.999-6.998 18.395-7 25.404-.003 7.002 7 7.003 18.397.005 25.407Zm-64.525 49.716-10.596-10.596-5.295 15.891zm58.866-69.463c-3.886-3.878-10.205-3.882-14.088-.005l.004.004-51.471 51.462 14.093 14.093 51.462-51.471.004.004c3.876-3.891 3.876-10.208-.004-14.087"/></svg>