<svg xmlns="http://www.w3.org/2000/svg" viewBox="0 0 192 192"><path d="M132 80c-11.028 0-20-8.972-20-20s8.972-20 20-20 20 8.972 20 20-8.972 20-20 20m0-32c-6.617 0-12 5.383-12 12s5.383 12 12 12 12-5.383 12-12-5.383-12-12-12m4-32h-8v16h8zm40 40h-16v8h16zm-83.45 0 .35 7.72.01.28H104v-8zm73.391-24.284-5.657-5.657-11.314 11.314 5.657 5.657zM162.83 85.17l-8.202-8.2-5.657 5.656 8.201 8.202zm-47.8-47.798-11.313-11.314-5.657 5.657 11.314 11.314 5.657-5.657zM89.33 72h-6.01c-.4-1.13-.96-2.19-1.66-3.14l3.24-4.79-2.11-47.01-18.5 3.52-5.31 40.79 3.91 6.81c-.96 1.12-1.72 2.41-2.21 3.82h-6.02L18.03 99.54l13.3 13.3 35.78-17.89.87-1.77L68 168H36v-4.53c6.89-1.78 12-8.03 12-15.47v-12h-4v-8h-8v8h-8v-8h-8v8h-4v12c0 7.44 5.11 13.69 12 15.47V176h48l-.02-83.34 1.17 2.3 35.76 17.88 13.31-13.31zM24 148v-4h16v4c0 4.41-3.59 8-8 8s-8-3.59-8-8m48-68a3.99 3.99 0 0 1-3.58-2.23c-.27-.53-.42-1.14-.42-1.78 0-1.49.8-2.79 2-3.47.46-.28.98-.46 1.53-.52h.95c.65.08 1.25.31 1.77.68A3.97 3.97 0 0 1 76 75.99c0 .64-.15 1.25-.42 1.78-.07.15-.16.3-.25.44-.02.02-.04.05-.05.08A4.01 4.01 0 0 1 72 80m3.21-53.35 1.58 35.13-1.75 2.58c-.97-.25-1.99-.39-3.04-.39-.74 0-1.47.07-2.18.2l-2.56-4.45 4.22-32.36zM61.13 88.99 32.91 103.1l-2.7-2.7L57.34 80h3.35c.58 1.65 1.52 3.14 2.72 4.37zm50.2 14.11L83.09 88.98l-2.4-4.72c1.15-1.21 2.05-2.65 2.61-4.26h3.37l27.35 20.41zM156 112a4 4 0 1 0 0 8 4 4 0 0 0 0-8m-16 24a4 4 0 1 0 0 8 4 4 0 0 0 0-8m32 8a4 4 0 1 0 0 8 4 4 0 0 0 0-8m-1 24c-1.61 0-7.231-2.968-10.21-6.556a4 4 0 0 0-6.155 0c-1.278 1.538-5.948 6.556-12.426 6.556s-11.148-5.018-12.425-6.556a4 4 0 0 0-6.155 0c-1.277 1.538-5.947 6.556-12.425 6.556-5.396 0-9.539-3.482-11.51-5.534A4 4 0 0 0 96 160h-.299a4 4 0 0 0-3.683 2.439c-1.86 1.883-4.699 3.874-8.018 4.885v8.24c4.673-.923 8.755-3.217 11.801-5.755 3.338 2.925 8.59 6.191 15.403 6.191 6.882 0 12.17-3.331 15.503-6.28 3.332 2.949 8.62 6.28 15.502 6.28 6.919 0 12.226-3.366 15.555-6.326C161.742 173.062 167.142 176 171 176h5v-8z"/></svg>