<svg xmlns="http://www.w3.org/2000/svg" viewBox="0 0 192 192"><path d="M160 56h-8v-8h8zm-16-8h-8v8h8zm7 84c0-10.477-8.524-19-19-19s-19 8.523-19 19 8.523 19 19 19 19-8.524 19-19m-8 0c0 6.065-4.935 11-11 11s-11-4.935-11-11 4.934-11 11-11 11 4.934 11 11m-4.058 43.45 2.588-.412 2.473-9.54a35 35 0 0 0 3.179-1.318l8.51 4.982 2.115-1.534a44.1 44.1 0 0 0 9.82-9.82l1.535-2.116-4.982-8.51a35 35 0 0 0 1.312-3.161l9.547-2.497.41-2.582c.365-2.3.55-4.636.55-6.942s-.185-4.643-.55-6.943l-.41-2.588-9.54-2.472a36 36 0 0 0-1.32-3.18l4.983-8.51-1.534-2.115a44.2 44.2 0 0 0-9.82-9.82l-2.115-1.534-8.513 4.98a36 36 0 0 0-3.157-1.31l-2.5-9.549-2.58-.41a44.3 44.3 0 0 0-13.886 0l-2.588.412-2.472 9.54q-1.62.581-3.18 1.318l-8.51-4.982-2.115 1.534a44.2 44.2 0 0 0-9.82 9.82l-1.535 2.116 4.982 8.51a36 36 0 0 0-1.312 3.162l-9.547 2.497-.41 2.581c-.365 2.3-.55 4.636-.55 6.943s.185 4.642.55 6.942l.41 2.588 9.54 2.473a35 35 0 0 0 1.32 3.18l-4.983 8.51 1.535 2.115a44.2 44.2 0 0 0 9.82 9.82l2.114 1.534 8.513-4.981a35 35 0 0 0 3.158 1.31l2.5 9.549 2.58.41c2.3.364 4.636.55 6.943.55s4.642-.186 6.942-.55m-12.358-16.306-2.19-.628a27.4 27.4 0 0 1-5.759-2.391l-1.994-1.108-7.78 4.551a36 36 0 0 1-4.43-4.43l4.554-7.776-1.109-1.995a27.4 27.4 0 0 1-2.399-5.784l-.628-2.2-8.713-2.258a36 36 0 0 1 0-6.257l8.72-2.281.627-2.192a27.4 27.4 0 0 1 2.392-5.762l1.109-1.994-4.553-7.778a36 36 0 0 1 4.43-4.43l7.777 4.553 1.995-1.109a27.4 27.4 0 0 1 5.783-2.398l2.2-.628 2.258-8.713a36 36 0 0 1 6.259.001l2.282 8.718 2.19.628a27.4 27.4 0 0 1 5.759 2.391l1.994 1.11 7.78-4.553a36 36 0 0 1 4.43 4.43l-4.553 7.777 1.109 1.995a27.4 27.4 0 0 1 2.398 5.783l.628 2.2 8.713 2.258a36 36 0 0 1 0 6.258l-8.718 2.28-.628 2.191a27.4 27.4 0 0 1-2.393 5.762l-1.11 1.995 4.554 7.778a36 36 0 0 1-4.43 4.43l-7.778-4.553-1.994 1.109a27.4 27.4 0 0 1-5.783 2.398l-2.2.628-2.258 8.713a36 36 0 0 1-6.258 0l-2.283-8.72zM88.05 160H16V32h160v72.109l-1.897-2.615A52 52 0 0 0 168 94.503V72H24v80h59.951l4.098 8zM24 64h144V40H24zm151.92 96h.08v-.11z"/></svg>