<svg xmlns="http://www.w3.org/2000/svg" viewBox="0 0 192 192"><path d="M139.8 64.2c-10.92-10.92-28.68-10.92-39.6 0a27.5 27.5 0 0 0-3.02 3.58c3.17.5 6.19 1.08 9.06 1.72 3.73-3.55 8.6-5.5 13.76-5.5 5.34 0 10.36 2.08 14.14 5.86S140 78.66 140 84c0 4.08-1.21 7.97-3.47 11.27l-3.55 13.54a27.7 27.7 0 0 0 6.82-5.01c10.92-10.92 10.92-28.68 0-39.6M124 48h-8V28h8zm52 40h-20v-8h20zM91.171 60.829l-14-14 5.658-5.658 14 14zm66 66-14-14 5.658-5.658 14 14zm-8.342-66-5.658-5.658 14-14 5.658 5.658zM55.273 74.97c6.702-.725 12.921-.97 18.217-.97 11.28 0 33.3 1.37 54.13 10.56l3.12 1.38-4.12 15.6-2.08 7.87-1.74 6.6-2.07 7.83-1.83 6.94-2.06 7.78-.16.608-6.48-6.774 3.05-11.554a116 116 0 0 0-18.953-5.072l-4.396-4.596.519-4.122c8.6 1.16 16.93 3.2 24.89 6.02l1.83-6.94c-3.9-1.58-7.91-2.94-12.01-4.09l1.47-7.89c4.3 1.18 8.5 2.58 12.6 4.19l2.05-7.78C102.71 83.15 83.57 82 73.49 82c-3.362 0-7.12.105-11.133.376l-7.084-7.405zm36.99 73.391c-5.718-1.374-11.723-2.142-18.773-2.142-14.92 0-23.67 3.44-33.8 7.41l-4.31 1.69-4.87-16.78-2.24-7.72-2-6.87-2.25-7.75-1.89-6.51-2.26-7.79-4.69-16.15 3.2-1.41c3.05-1.346 6.149-2.507 9.26-3.538l6.168 6.448a101 101 0 0 0-8.968 3.06l2.42 8.34a124 124 0 0 1 13.202-4.443l6.348 6.636a116 116 0 0 0-17.31 5.537l1.99 6.86c5.79-2.08 11.77-3.74 17.92-4.95l1.67 7.82a116 116 0 0 0-17.35 4.83l2.09 7.21c9.12-2.91 18.69-4.79 28.58-5.52l.42 7.99c-9.26.69-18.23 2.47-26.77 5.21l2.57 8.86c9.12-3.5 18.47-6.47 32.87-6.47 3.359 0 6.514.166 9.526.475zM77.52 97.8c-.139-.004-.278-.003-.417-.008l-7.638-7.985a126 126 0 0 1 4.175-.077c1.3 0 2.59.03 3.88.07zm39.59 64.965-88-92 5.78-5.53 88 92z"/></svg>