<svg xmlns="http://www.w3.org/2000/svg" viewBox="0 0 192 192"><path d="M160 56h-8v-8h8zm-16-8h-8v8h8zm32 116a11.92 11.92 0 0 1-3.515 8.485c-2.266 2.267-5.28 3.515-8.485 3.515s-6.219-1.248-8.485-3.515l-40.004-40.003A35.8 35.8 0 0 1 100 136c-19.85 0-36-16.15-36-36s16.15-36 36-36 36 16.15 36 36c0 5.55-1.265 10.811-3.518 15.511l40.003 40.004A11.92 11.92 0 0 1 176 164m-76-36c15.44 0 28-12.56 28-28s-12.56-28-28-28-28 12.56-28 28 12.56 28 28 28m68 36a3.97 3.97 0 0 0-1.171-2.828l-38.72-38.719a36.3 36.3 0 0 1-5.656 5.656l38.719 38.72c1.51 1.51 4.145 1.51 5.656 0A3.97 3.97 0 0 0 168 164m-44.284-12H24V72h42.084a44.4 44.4 0 0 1 8.664-8H24V40h144v24h-42.748a44.4 44.4 0 0 1 8.664 8H168v67.716l8 8V32H16v128h115.716z"/></svg>