<svg xmlns="http://www.w3.org/2000/svg" viewBox="0 0 192 192"><path d="M132 40c-1.4 0-2.75.24-4 .69V24h8v16.69c-1.25-.45-2.6-.69-4-.69m-1.93 15.39c.57.32 1.23.5 1.93.5.69 0 1.34-.17 1.9-.48A3.93 3.93 0 0 0 136 52v-.05c0-1.36-.7-2.56-1.77-3.27-.08-.06-.16-.11-.25-.15-.59-.34-1.26-.53-1.98-.53-.71 0-1.37.18-1.95.51a3.93 3.93 0 0 0-2.05 3.44V52a3.92 3.92 0 0 0 2.07 3.39m-5.94 5.57c-2.04-1.77-3.47-4.2-3.95-6.96l-14.67 8.17 3.89 6.99zm33.81 1.23-14.14-8.06a11.9 11.9 0 0 1-4.03 6.91l14.2 8.1zM136 96.93V63.2c-1.25.45-2.6.69-4 .69s-2.75-.24-4-.69v27.74l2.98 2.23zm10.07 18.563c.57.324 1.23.507 1.93.507.69 0 1.34-.172 1.9-.487a3.99 3.99 0 0 0 2.1-3.457v-.05c0-1.38-.7-2.597-1.77-3.317-.08-.06-.16-.111-.25-.152A3.9 3.9 0 0 0 148 108c-.71 0-1.37.182-1.95.517a3.99 3.99 0 0 0-2.05 3.488v.05a3.98 3.98 0 0 0 2.07 3.438M144.008 84v16.968c1.25-.45 2.6-.69 4-.69s2.75.24 4 .69V84zm-3.87 37.238c-2.04-1.77-3.47-4.2-3.95-6.96l-14.67 8.17 3.89 6.99zm29.84 8.18 3.97-6.95-14.14-8.06a11.9 11.9 0 0 1-4.03 6.91zM176 168v8H28v-12.53c-6.89-1.78-12-8.03-12-15.47v-12h4v-8h8v8h8v-8h8v8h4v12c0 7.44-5.11 13.69-12 15.47V168h31.95V93.22l-.88 1.76-35.77 17.89L18 99.57 54.76 72H64.9l-2.04-3.65-3.91-6.98 5.31-40.76 18.49-3.52 2.13 47.02-3.19 4.69-2.18 3.2h9.91l36.76 27.57-13.3 13.3-35.77-17.89-1.16-2.32V168H128v-30.75l8-4.57V168h8v-42h.008v-2.522c1.25.45 2.6.69 4 .69s2.75-.24 4-.69v33.73l-.008-.006V168zM80.72 84.32l2.35 4.7 28.23 14.11 2.7-2.7L86.76 80h-3.37zm-15.3-3.93c-.08-.13-.18-.25-.26-.39h-7.74l-27.24 20.43 2.7 2.7 28.23-14.11 2.34-4.7zM32 156c4.41 0 8-3.59 8-8v-4H24v4c0 4.41 3.59 8 8 8m37.72-91.77 2.11 3.78c.09 0 .17-.01.26-.01.15 0 .3.01.45.02l2.48-3.66 1.74-2.55-1.58-35.13-3.73.71-4.22 32.39zM75.55 78c.34-.59.54-1.27.54-2 0-2.21-1.79-4-4-4s-4 1.79-4 4c0 .73.2 1.41.54 2 .69 1.2 1.98 2 3.46 2s2.77-.8 3.46-2"/></svg>