<svg xmlns="http://www.w3.org/2000/svg" viewBox="0 0 192 192"><path d="M173.964 60.516C150.154 47.094 123.194 40 96 40c-27.178 0-54.13 7.094-77.94 20.516l-3.106 1.75 35.158 83.5 3.94-2.319A82.8 82.8 0 0 1 96 132a82.8 82.8 0 0 1 41.971 11.447l3.941 2.32 35.158-83.5zm-35.921 73.824A90.8 90.8 0 0 0 96 124a90.76 90.76 0 0 0-42.019 10.34l-28.87-68.567A151.5 151.5 0 0 1 74.19 49.618l-1.267 7.728 6.709 4.756-3.512 18.877-17.386 11.822 10.109 14.879 6.617-4.496-5.614-8.264 13.529-9.2L86.82 67.2l11.811 8.373 4.627-6.526L81.625 53.71l.834-5.087A149 149 0 0 1 96 48c24.638 0 49.08 6.136 70.914 17.773z"/></svg>