<svg xmlns="http://www.w3.org/2000/svg" viewBox="0 0 192 192"><path d="m71.817 123.29 2.372 7.644a82.6 82.6 0 0 0-20.158 8.512l-3.942 2.324L14.93 58.268l3.105-1.752a159 159 0 0 1 29.102-12.752l2.37 7.64a151 151 0 0 0-24.421 10.368l28.87 68.566a90.7 90.7 0 0 1 17.861-7.048m102.147-66.774a159 159 0 0 0-9.495-4.932 12 12 0 0 1-1.84 2.422l-3.743 3.794a151 151 0 0 1 8.028 3.973l-28.871 68.567A90.75 90.75 0 0 0 96.023 120l-.114.002 2.494 8.038a82.8 82.8 0 0 1 39.568 11.407l3.941 2.32 35.158-83.5zM96.024 44c2.7 0 5.397.087 8.09.234.09-.667.23-1.332.434-1.988a11.97 11.97 0 0 1 3.925-5.73c-4.138-.33-8.29-.516-12.45-.516-8.568 0-17.11.705-25.536 2.086l2.395 7.718A150 150 0 0 1 96.024 44m17.166 4.68a4 4 0 0 1 2.126-6.789l10.763-1.868 5.35-9.964a4 4 0 0 1 3.497-2.108c1.425-.02 2.816.78 3.526 2.062l5.48 9.89 10.787 1.725a4 4 0 0 1 2.216 6.76l-8.013 8.12 1.849 10.653a4 4 0 0 1-5.572 4.336l-10.013-4.471-9.952 4.604a4 4 0 0 1-4.094-.44 4 4 0 0 1-1.536-3.821l1.707-10.678zm11.152-.236 4.053 3.999a4 4 0 0 1 1.14 3.478l-.846 5.296 4.788-2.215a4 4 0 0 1 3.31-.022l4.818 2.15-.917-5.283a4 4 0 0 1 1.094-3.493l3.999-4.053-5.035-.805a4 4 0 0 1-2.868-2.011l-2.87-5.18-2.802 5.218a4 4 0 0 1-2.84 2.05zM108 156c0 6.617-5.383 12-12 12s-12-5.383-12-12c0-3.363 1.395-6.402 3.63-8.583l-11.685-37.655 4.212-1.949 4.132 1.846 10.674 34.394c.343-.03.687-.053 1.037-.053 6.617 0 12 5.383 12 12m-8 0c0-2.206-1.794-4-4-4s-4 1.794-4 4 1.794 4 4 4 4-1.794 4-4M65.786 64.807l2.904-5.41-8.87-28.583-7.64 2.372 10.007 32.246zm36.061 15.58-8.013 8.12 1.85 10.654a4 4 0 0 1-5.573 4.336L80.1 99.026l-9.953 4.604a4 4 0 0 1-4.094-.44 4 4 0 0 1-1.535-3.821l1.706-10.678-8.12-8.012a4 4 0 0 1 2.126-6.788l10.762-1.868 5.35-9.964a4 4 0 0 1 3.498-2.108 4.04 4.04 0 0 1 3.525 2.062l5.48 9.89 10.787 1.725a4 4 0 0 1 2.216 6.76zm-11.154-.086-5.034-.805a4 4 0 0 1-2.868-2.011l-2.87-5.18-2.802 5.218a4 4 0 0 1-2.84 2.05l-5.024.871 4.053 3.999a4 4 0 0 1 1.14 3.478l-.846 5.296 4.788-2.215a4 4 0 0 1 3.31-.022l4.818 2.15-.917-5.283a4 4 0 0 1 1.093-3.493z"/></svg>