<svg xmlns="http://www.w3.org/2000/svg" viewBox="0 0 192 192"><path d="M176 52v72c0 8.822-7.178 16-16 16h-12.057l-1.342-8H160c4.411 0 8-3.589 8-8V52c0-4.411-3.589-8-8-8H32c-4.411 0-8 3.589-8 8v72c0 4.411 3.589 8 8 8h13.133l-1.342 8H32c-8.822 0-16-7.178-16-16V52c0-8.822 7.178-16 16-16h128c8.822 0 16 7.178 16 16m-53.781 80H69.516l-1.342 8h55.386zM79.997 60.011h8v55.99l-7.997.01L79.997 92h-11.92l-9.7 57.893c2.85 1.827 4.917 4.838 5.406 8.447.884 6.528-3.706 12.557-10.233 13.442q-.813.11-1.612.11c-5.88 0-11.019-4.358-11.83-10.343-.884-6.527 3.705-12.556 10.232-13.442.077-.01.152-.01.229-.02L61.305 84h18.692zm-24.142 99.405a3.95 3.95 0 0 0-4.44-3.38 3.95 3.95 0 0 0-3.38 4.44 3.92 3.92 0 0 0 1.52 2.609 3.92 3.92 0 0 0 2.92.77 3.95 3.95 0 0 0 3.38-4.44zm96.042 2.087c-.814 6.012-5.976 10.39-11.883 10.39a12 12 0 0 1-1.62-.11c-6.557-.89-11.167-6.947-10.28-13.503a11.92 11.92 0 0 1 4.624-7.937c.2-.152.41-.285.616-.423L123.651 92h-11.654v24h-8V60.01h8V84h18.425l10.715 63.957c.16.016.32.02.481.042a11.92 11.92 0 0 1 7.936 4.623 11.92 11.92 0 0 1 2.343 8.88zm-8.708-4.035a3.97 3.97 0 0 0-2.646-1.54 3.97 3.97 0 0 0-2.96.78 3.98 3.98 0 0 0-1.54 2.646 4.005 4.005 0 0 0 3.426 4.501 4 4 0 0 0 4.5-3.426 3.97 3.97 0 0 0-.78-2.96z"/></svg>