<svg xmlns="http://www.w3.org/2000/svg" viewBox="0 0 192 192"><path d="M96 144c-.35 0-.694.023-1.037.053L59.82 30.814l-7.64 2.372 35.45 114.23A11.96 11.96 0 0 0 84 156c0 6.617 5.383 12 12 12s12-5.383 12-12-5.383-12-12-12m0 16c-2.206 0-4-1.794-4-4s1.794-4 4-4 4 1.794 4 4-1.794 4-4 4m-24.183-36.71 2.372 7.644a82.6 82.6 0 0 0-20.158 8.512l-3.942 2.324L14.93 58.268l3.105-1.752a159 159 0 0 1 29.102-12.752l2.37 7.64a151 151 0 0 0-24.421 10.368l28.87 68.566a90.7 90.7 0 0 1 17.861-7.048M177.07 58.266l-35.158 83.5-3.94-2.319a82.8 82.8 0 0 0-39.569-11.407l-2.494-8.038.115-.002a90.75 90.75 0 0 1 42.019 10.34l28.87-68.567C145.08 50.136 120.648 44 96.024 44c-7.76 0-15.499.61-23.141 1.804l-2.395-7.718A158 158 0 0 1 96.024 36c27.178 0 54.13 7.094 77.94 20.516z"/></svg>