<svg xmlns="http://www.w3.org/2000/svg" viewBox="0 0 192 192"><path d="M82.211 28.932a28 28 0 0 0-10.108-4.335l1.656-7.826a36 36 0 0 1 12.98 5.566zM96 48l12-12-12-12-12 12zm23.897-23.403-1.656-7.826a36 36 0 0 0-12.98 5.566l4.528 6.595a28 28 0 0 1 10.108-4.335M151.622 62.5l7.416 3a36.3 36.3 0 0 0 1.937-6.458l-7.844-1.573a28.3 28.3 0 0 1-1.51 5.031zm9.34-17.598a36 36 0 0 0-5.446-13.03l-6.637 4.466a28 28 0 0 1 4.241 10.148zM55.834 26.043a28.3 28.3 0 0 1 5.286-1.56l-1.498-7.858a36.2 36.2 0 0 0-6.787 2.002 36.3 36.3 0 0 0-6.304 3.302l4.395 6.686a28.2 28.2 0 0 1 4.908-2.572m85.24 2.572 4.395-6.686a36.2 36.2 0 0 0-6.304-3.302 36.2 36.2 0 0 0-6.787-2.002l-1.498 7.859c1.793.342 3.572.867 5.285 1.56a28.2 28.2 0 0 1 4.91 2.57zM92 132.02l.063 12 8-.042-.063-12zM43.121 36.338l-6.637-4.467a36 36 0 0 0-5.446 13.03l7.842 1.585a28 28 0 0 1 4.241-10.148M92.062 124h8v-15.89h-8zm85.008-33.734-35.158 83.5-3.94-2.319A82.8 82.8 0 0 0 96 160a82.8 82.8 0 0 0-41.947 11.447l-3.941 2.32-35.158-83.5 3.106-1.751a165 165 0 0 1 4.355-2.364c.22-.115.444-.225.666-.34q1.98-1.027 3.98-1.997l.195-.092C45.676 74.828 65.3 69.649 85.743 68.33v.008c2.1-.138 4.204-.22 6.31-.273L92 68V56h8v12l-.052.065c2.105.054 4.21.135 6.309.272v-.007c20.453 1.319 40.083 6.496 58.5 15.388l.211.1a167 167 0 0 1 3.951 1.982c.232.12.466.235.697.356q2.144 1.123 4.264 2.314.043.023.084.046zm-10.157 3.507C145.08 82.136 120.638 76 96 76c-24.623 0-49.056 6.136-70.89 17.773l28.871 68.567A90.76 90.76 0 0 1 96 152a90.8 90.8 0 0 1 42.043 10.34zM92.063 100h8V84.002h-8zM40.377 62.5a28.3 28.3 0 0 1-1.51-5.03l-7.843 1.572a36.3 36.3 0 0 0 1.937 6.458z"/></svg>