<svg xmlns="http://www.w3.org/2000/svg" viewBox="0 0 192 192"><path d="m140 157.657-10.829-10.828 5.658-5.658 5.171 5.172 13.171-13.172 5.658 5.658zM176 144c0-17.645-14.355-32-32-32s-32 14.355-32 32 14.355 32 32 32 32-14.355 32-32m-8 0c0 13.234-10.766 24-24 24s-24-10.766-24-24 10.766-24 24-24 24 10.766 24 24m-18-44h26v-8h-25.107l12.58-22.016-6.946-3.968L141.679 92h-38.751l19.375-33.559 29.928.133.035-8-25.356-.113 12.554-21.743-6.928-4-12.554 21.743-12.775-21.902-6.91 4.03 15.078 25.852L96 88.001 76.625 54.44l15.079-25.85-6.91-4.031L72.017 46.46 59.464 24.718l-6.928 4L65.09 50.46l-25.356.113.035 8 29.928-.133L89.072 92h-38.75l-14.85-25.984-6.946 3.968L41.107 92H16v8h25.107l-12.58 22.016 6.946 3.968L50.321 100h38.751l-19.375 33.559-29.928-.133-.035 8 25.356.113-12.554 21.743 6.928 4 12.554-21.743 12.775 21.902 6.91-4.03-15.078-25.852L96 103.999l12.48 21.615a40 40 0 0 1 4.958-7.41L102.928 100z"/></svg>