<svg xmlns="http://www.w3.org/2000/svg" viewBox="0 0 192 192"><path d="M75.264 163.04h11.039V168H69.088v-22.878h16.735v4.96h-10.56v3.903h7.68v4.736h-7.68v4.32zm22.303.897c-1.856 0-2.815-1.473-2.815-4.384 0-2.848.928-4.288 2.72-4.288 1.152 0 1.632.416 2.207 2.016l4.96-1.984c-1.536-3.008-3.936-4.48-7.36-4.48-5.119 0-8.575 3.616-8.575 8.96 0 5.28 3.296 8.607 8.608 8.607 3.584 0 6.047-1.28 7.55-4.512l-4.767-2.016c-.544 1.472-1.312 2.08-2.528 2.08zm26.687-4.384c0 5.215-3.647 8.83-8.895 8.83s-8.831-3.487-8.831-8.67c0-5.28 3.68-8.896 8.991-8.896 5.12 0 8.735 3.616 8.735 8.736m-6.047-.032c0-2.944-.864-4.256-2.816-4.256-1.888 0-2.815 1.408-2.815 4.256 0 2.912.96 4.416 2.815 4.416 1.888 0 2.816-1.473 2.816-4.416M112 88H80v8h32zm64 36v8H16v-8h8v-8h13.607l6.807-13.772A4 4 0 0 1 48 100h96a4 4 0 0 1 3.578 2.21l6.894 13.79H168v8zm-44 0v-8h13.528l-4-8H50.485l-3.954 8H60v8z"/></svg>