<svg xmlns="http://www.w3.org/2000/svg" viewBox="0 0 192 192"><path d="M36.24 145.122 27.984 168h5.824l1.28-3.872h8.735L45.071 168h6.688l-8.096-22.878zm.288 14.559 2.975-8.928 2.913 8.928zm25.056-8.864c-5.184 0-8.8 3.648-8.8 8.895 0 5.184 3.649 8.672 9.024 8.672 4.096 0 6.624-1.28 7.903-3.967l-4.64-1.856c-.607.991-1.503 1.471-2.88 1.471-2.143 0-3.23-.864-3.423-2.911h11.007v-1.473c0-5.535-3.04-8.83-8.191-8.83zm-2.751 7.008c.383-1.984 1.151-2.784 2.72-2.784 1.599 0 2.335.832 2.527 2.784zm24.254-6.912c.929 0 1.6.192 2.272.672l-1.248 5.408c-.736-.448-1.247-.608-2.08-.608-1.92 0-3.167 1.408-3.167 3.584V168h-5.92v-16.735h5.92v2.88c1.056-2.24 2.368-3.232 4.223-3.232m12.256-.096c-5.311 0-8.991 3.616-8.991 8.895 0 5.184 3.584 8.672 8.832 8.672s8.895-3.616 8.895-8.831c0-5.12-3.616-8.736-8.736-8.736m-.128 13.12c-1.856 0-2.815-1.504-2.815-4.417 0-2.847.928-4.255 2.815-4.255 1.952 0 2.816 1.312 2.816 4.256s-.927 4.416-2.816 4.416m18.753-.896h11.039V168h-17.215v-22.878h16.735v4.96h-10.56v3.903h7.68v4.736h-7.68v4.32zm24.831-1.185 4.768 2.016c-1.504 3.232-3.967 4.512-7.551 4.512-5.312 0-8.608-3.328-8.608-8.608 0-5.343 3.456-8.959 8.575-8.959 3.424 0 5.824 1.472 7.36 4.48l-4.96 1.984c-.575-1.6-1.055-2.016-2.207-2.016-1.792 0-2.72 1.44-2.72 4.288 0 2.911.96 4.384 2.815 4.384 1.216 0 1.984-.609 2.528-2.08zm15.424-11.039c-5.311 0-8.991 3.616-8.991 8.895 0 5.184 3.584 8.672 8.831 8.672s8.895-3.616 8.895-8.831c0-5.12-3.615-8.736-8.735-8.736m-.128 13.12c-1.856 0-2.815-1.504-2.815-4.417 0-2.847.928-4.255 2.815-4.255 1.952 0 2.816 1.312 2.816 4.256s-.928 4.416-2.816 4.416m20.306-39.146-4.618 6.533c-.328-.232-33.549-23.324-73.69-23.324s-73.363 23.092-73.694 23.325l-4.616-6.533C19.215 123.779 53.34 100 96.093 100s76.877 23.78 78.308 24.791M84.617 95.898l-1.234-7.904A82 82 0 0 1 95.97 87a82 82 0 0 1 12.651 1.003l-1.24 7.903A74 74 0 0 0 95.969 95c-3.719 0-7.538.302-11.352.897z"/></svg>