<svg xmlns="http://www.w3.org/2000/svg" viewBox="0 0 192 192"><path d="M107.216 94.417a10.21 10.21 0 0 1-9.136 3.698c-5.28-.624-9.326-5.442-9.021-10.741a10.17 10.17 0 0 1 3.59-7.232 10.15 10.15 0 0 1 7.7-2.385 10.14 10.14 0 0 1 5.884 2.682l1.633 1.514 28.437-7.81-4.92-51.247-2.373-.863a103.3 103.3 0 0 0-49.67-5.18l-2.438.346-16.847 49.79-8.284 98.87 2.687 1.123c.674.281 16.701 6.917 33.47 8.538 3.41.33 6.765.461 9.953.461 12.495 0 22.416-2.028 22.934-2.136l2.833-.59 8.822-77.71-23.866-2.824zM82.89 24.461a95.34 95.34 0 0 1 41.016 4.264l1.224 12.753-46.404-4.71zm40.733 78.094-7.26 63.951c-5.046.795-16.16 2.161-27.665 1.05-11.694-1.13-23.346-5.03-28.462-6.917l7.71-92.01 8.15-24.087 49.814 5.056 1.787 18.611-17.819 4.895a18.03 18.03 0 0 0-8.7-3.304c-5.008-.522-9.875.986-13.711 4.248-3.834 3.26-6.105 7.83-6.395 12.866-.553 9.606 6.506 18.016 16.07 19.146a18.15 18.15 0 0 0 14.71-4.899z"/></svg>