<svg xmlns="http://www.w3.org/2000/svg" viewBox="0 0 192 192"><path d="M93.63 156.993V168h-5.92v-10.4c0-1.471-.671-2.303-1.823-2.303-1.344 0-2.112.96-2.112 2.592V168h-5.92v-10.4c0-1.471-.672-2.303-1.855-2.303-1.312 0-2.08.96-2.08 2.592V168H68v-16.735h5.92v2.464c1.215-1.952 2.847-2.912 4.991-2.912 1.984 0 3.36.832 4.32 2.624 1.536-1.824 3.103-2.624 5.184-2.624 3.295 0 5.215 2.304 5.215 6.176m25.155-6.176c-2.08 0-3.648.8-5.184 2.624-.96-1.792-2.336-2.624-4.32-2.624-2.144 0-3.776.96-4.991 2.912v-2.464h-5.92V168h5.92v-10.111c0-1.632.768-2.592 2.08-2.592 1.183 0 1.856.832 1.856 2.304V168h5.919v-10.111c0-1.632.768-2.592 2.112-2.592 1.152 0 1.824.832 1.824 2.304V168H124v-11.007c0-3.872-1.92-6.176-5.215-6.176M96.092 100c-42.753 0-76.877 23.78-78.309 24.791l4.616 6.534C22.73 131.092 55.95 108 96.092 108s73.363 23.092 73.691 23.324l4.618-6.533C172.97 123.78 138.846 100 96.092 100m-.123-5c3.739 0 7.578.305 11.41.906l1.241-7.903A82 82 0 0 0 95.97 87c-4.13 0-8.365.334-12.586.993l1.234 7.904A74 74 0 0 1 95.969 95"/></svg>