<svg xmlns="http://www.w3.org/2000/svg" viewBox="0 0 192 192"><path d="M56.783 160.896c0 4.832-3.263 7.488-9.215 7.488-4.928 0-8.16-1.28-10.047-4.672l5.28-2.56c.863 1.856 2.271 2.368 4.575 2.368 2.112 0 3.36-.736 3.36-1.983 0-1.12-.864-1.696-3.232-2.144-3.328-.64-4.608-1.024-5.952-1.76-2.08-1.152-3.072-2.944-3.072-5.6 0-4.512 3.264-7.263 8.64-7.263 4.224 0 7.296 1.28 9.183 4.32l-4.927 2.527c-1.024-1.6-2.208-1.984-4.192-1.984-1.856 0-2.848.608-2.848 1.76 0 1.12.8 1.632 3.264 2.112 3.52.672 5.056 1.12 6.4 1.952 1.92 1.184 2.783 2.88 2.783 5.44zm20.736-1.28c0 5.344-2.624 8.768-6.72 8.768-2.207 0-3.84-.96-4.831-2.784v8.224h-5.92v-22.559h5.92v2.432c1.184-1.952 2.752-2.88 4.831-2.88 4.064 0 6.72 3.488 6.72 8.8zm-6.047 0c0-2.88-.96-4.35-2.848-4.35-1.824 0-2.848 1.567-2.848 4.35s1.024 4.32 2.848 4.32c1.888 0 2.848-1.472 2.848-4.32m26.079-.063c0 5.215-3.648 8.83-8.895 8.83s-8.832-3.487-8.832-8.67c0-5.28 3.68-8.896 8.991-8.896 5.12 0 8.736 3.616 8.736 8.736m-6.048-.032c0-2.944-.863-4.256-2.815-4.256-1.888 0-2.816 1.408-2.816 4.256 0 2.912.96 4.416 2.815 4.416 1.889 0 2.816-1.473 2.816-4.416m12.385-15.999c-1.92 0-3.328 1.344-3.328 3.136 0 1.791 1.44 3.167 3.296 3.167 1.824 0 3.264-1.376 3.264-3.167 0-1.76-1.408-3.136-3.232-3.136M100.88 168h5.92v-16.735h-5.92zm16.063-6.912v-17.182h-5.92v17.79c0 2.56.161 3.68.737 4.608.832 1.344 2.368 2.048 4.608 2.048.927 0 2.56-.032 3.68-.48v-4.704c-.769.416-1.249.448-1.6.448-1.184 0-1.505-.32-1.505-2.528m22.304-1.44v1.473h-11.008c.193 2.047 1.28 2.911 3.424 2.911 1.376 0 2.272-.48 2.88-1.471l4.64 1.856c-1.28 2.687-3.808 3.967-7.904 3.967-5.375 0-9.023-3.488-9.023-8.672 0-5.247 3.616-8.895 8.8-8.895 5.151 0 8.19 3.296 8.19 8.831zm-5.696-1.823c-.192-1.952-.928-2.784-2.528-2.784-1.567 0-2.336.8-2.72 2.784zm14.784-3.68v-2.88h-5.92V168h5.92v-8.031c0-2.176 1.248-3.584 3.168-3.584.832 0 1.344.16 2.08.608l1.248-5.408c-.672-.48-1.344-.672-2.272-.672-1.856 0-3.168.992-4.224 3.232M112 88H80v8h32zm64 36v8H16v-8h8v-8h13.607l6.807-13.772A4 4 0 0 1 48 100h96a4 4 0 0 1 3.578 2.21l6.894 13.79H168v8zm-30.472-8-4-8H50.485l-3.954 8H60v8h72v-8z"/></svg>