<svg xmlns="http://www.w3.org/2000/svg" viewBox="0 0 192 192"><path d="M33.657 156.001 56 156v8l-22.344.001 4.486 4.486-5.657 5.657L18.343 160l14.04-14.04 5.657 5.658L33.657 156zm140.744-31.21C172.97 123.78 138.846 100 96.092 100s-76.877 23.78-78.309 24.791l4.616 6.534C22.73 131.092 55.95 108 96.092 108s73.363 23.092 73.691 23.324zM95.97 95c3.739 0 7.578.305 11.41.906l1.241-7.903A82 82 0 0 0 95.97 87c-4.13 0-8.365.334-12.586.993l1.234 7.904A74 74 0 0 1 95.969 95zm-7.554 55.817c-2.08 0-3.648.8-5.184 2.624-.96-1.792-2.336-2.624-4.32-2.624-2.144 0-3.776.96-4.992 2.912v-2.464H68V168h5.92v-10.111c0-1.632.768-2.592 2.08-2.592 1.183 0 1.855.832 1.855 2.304V168h5.92v-10.111c0-1.632.768-2.592 2.112-2.592 1.152 0 1.823.832 1.823 2.304V168h5.92v-11.007c0-3.872-1.92-6.176-5.215-6.176zm30.37 0c-2.08 0-3.648.8-5.184 2.624-.96-1.792-2.336-2.624-4.32-2.624-2.144 0-3.776.96-4.991 2.912v-2.464h-5.92V168h5.92v-10.111c0-1.632.768-2.592 2.08-2.592 1.183 0 1.856.832 1.856 2.304V168h5.919v-10.111c0-1.632.768-2.592 2.112-2.592 1.152 0 1.824.832 1.824 2.304V168H124v-11.007c0-3.872-1.92-6.176-5.215-6.176zm35.175.802 4.383 4.382L136 156v8l22.344.001-4.486 4.486 5.658 5.657L173.657 160l-14.04-14.04-5.657 5.658z"/></svg>