<svg xmlns="http://www.w3.org/2000/svg" viewBox="0 0 192 192"><path d="M160 52V31.172C160 22.806 153.194 16 144.828 16H47.172C38.806 16 32 22.806 32 31.172V52h28v12H32v8.828C32 81.194 38.806 88 47.172 88H76v8H60v28h15.783L84 137.147V176h24v-38.853L116.217 124H132V96h-16v-8h28.828C153.194 88 160 81.194 160 72.828V64h-28V52zm-8 20v.828A7.18 7.18 0 0 1 144.828 80H108v24h16v12h-16v6.053l-8 12.8V168h-8v-33.147l-8-12.8V116H68v-12h16V80H47.172A7.18 7.18 0 0 1 40 72.828V72h28V44H40V31.172A7.18 7.18 0 0 1 47.172 24h97.656A7.18 7.18 0 0 1 152 31.172V44h-28v28z"/></svg>