<svg xmlns="http://www.w3.org/2000/svg" viewBox="0 0 192 192"><path d="M77.807 150.177h-6.143V168H65.36v-17.823h-6.144v-5.055h18.591zm16.64 10.528-2.208-9.44h-4.8l-2.527 9.44-2.112-9.44h-6.175l4.8 16.735h5.759l2.336-8.927L91.823 168h5.664l5.055-16.735H96.88zM105.041 168h5.919v-16.735h-5.92V168zm3.007-24.478c-1.92 0-3.328 1.344-3.328 3.136 0 1.791 1.44 3.167 3.296 3.167 1.824 0 3.264-1.376 3.264-3.167 0-1.76-1.408-3.136-3.232-3.136m18.175 7.295c-2.368 0-4.063 1.024-5.247 3.104v-2.656h-5.92V168h5.92v-9.695c0-1.92.864-2.944 2.432-2.944 1.407 0 2.048.832 2.048 2.592V168h5.919v-11.007c0-3.936-1.888-6.176-5.152-6.176M112 88H80v8h32zm64 36v8H16v-8h8v-8h13.607l6.807-13.772A4 4 0 0 1 48 100h96a4 4 0 0 1 3.578 2.21l6.894 13.79H168v8zm-44 0v-8h13.528l-4-8H50.485l-3.954 8H60v8z"/></svg>