<svg xmlns="http://www.w3.org/2000/svg" viewBox="0 0 192 192"><path d="m174.401 124.791-4.618 6.533c-.328-.232-33.549-23.324-73.69-23.324s-73.363 23.092-73.694 23.325l-4.616-6.533C19.215 123.779 53.34 100 96.093 100s76.877 23.78 78.308 24.791M95.97 95c3.739 0 7.578.305 11.41.906l1.241-7.903A82 82 0 0 0 95.97 87c-4.13 0-8.365.334-12.586.993l1.234 7.904A74 74 0 0 1 95.969 95zm-58.18 50.122L45.887 168h-6.688l-1.248-3.872h-8.735L27.936 168h-5.824l8.256-22.878h7.423zm-1.248 14.559-2.912-8.928-2.975 8.928zm27.36-.033v1.473H52.896c.192 2.047 1.28 2.911 3.424 2.911 1.376 0 2.272-.48 2.88-1.471l4.64 1.856c-1.28 2.687-3.808 3.967-7.904 3.967-5.375 0-9.023-3.488-9.023-8.672 0-5.247 3.615-8.895 8.799-8.895 5.152 0 8.191 3.296 8.191 8.831zm-5.695-1.823c-.192-1.952-.928-2.784-2.528-2.784-1.568 0-2.336.8-2.72 2.784zm14.784-3.68v-2.88h-5.92V168h5.92v-8.031c0-2.176 1.248-3.584 3.168-3.584.832 0 1.343.16 2.08.608l1.247-5.408c-.672-.48-1.343-.672-2.272-.672-1.855 0-3.167.992-4.223 3.232m25.215 5.408c0 5.215-3.648 8.83-8.895 8.83s-8.832-3.487-8.832-8.67c0-5.28 3.68-8.896 8.991-8.896 5.12 0 8.736 3.616 8.736 8.736m-6.048-.032c0-2.944-.864-4.256-2.816-4.256-1.887 0-2.815 1.408-2.815 4.256 0 2.912.96 4.416 2.815 4.416 1.888 0 2.816-1.473 2.816-4.416m17.089 4c-.8 0-1.152-.48-1.152-1.665v-6.143h3.2v-4.448h-3.2v-5.056l-5.92 2.112v2.944H100v4.448h2.176v6.784c0 3.807 1.952 5.887 5.536 5.887 1.663 0 3.072-.448 4.255-1.344l-1.247-4c-.64.352-1.024.48-1.472.48zm21.95-2.816-2.207-9.44h-4.8l-2.527 9.44-2.112-9.44h-6.176l4.8 16.735h5.76l2.335-8.927 2.304 8.927h5.663l5.056-16.735h-5.664l-2.431 9.44zm13.602-17.183c-1.92 0-3.328 1.344-3.328 3.136 0 1.791 1.44 3.167 3.296 3.167 1.823 0 3.263-1.376 3.263-3.167 0-1.76-1.407-3.136-3.231-3.136M141.792 168h5.92v-16.735h-5.92zm21.183-17.183c-2.368 0-4.064 1.024-5.248 3.104v-2.656h-5.92V168h5.92v-9.695c0-1.92.864-2.944 2.432-2.944 1.408 0 2.048.832 2.048 2.592V168h5.92v-11.007c0-3.936-1.888-6.176-5.152-6.176"/></svg>