<svg xmlns="http://www.w3.org/2000/svg" viewBox="0 0 192 192"><path d="M144 112c-17.645 0-32 14.355-32 32s14.355 32 32 32 32-14.355 32-32-14.355-32-32-32m0 56c-13.234 0-24-10.766-24-24s10.766-24 24-24 24 10.766 24 24-10.766 24-24 24m-39.999-23.969L96 140.394l-42.345 19.248a4.001 4.001 0 0 1-5.601-4.3l7.662-45.969-34.544-34.544a4 4 0 0 1 2.171-6.774l46.079-7.68 23.071-42.29a4 4 0 0 1 7.022.001l23.064 42.29 46.079 7.68a4 4 0 0 1 2.171 6.774l-29.252 29.252a39.7 39.7 0 0 0-13.515 3.242 4 4 0 0 1 1.109-2.15l30.504-30.503-40.333-6.722a4 4 0 0 1-2.854-2.031L96.003 28.356 75.511 65.918a4 4 0 0 1-2.854 2.03L32.324 74.67l30.504 30.503a4 4 0 0 1 1.117 3.486l-6.766 40.594 37.165-16.893a4 4 0 0 1 3.31 0l7.229 3.286a40 40 0 0 0-.885 8.356v.031ZM140 156.657l-10.829-10.828 5.657-5.657 5.171 5.172 13.171-13.172 5.657 5.657-18.829 18.828Z"/></svg>