<svg xmlns="http://www.w3.org/2000/svg" viewBox="0 0 192 192"><path d="M96 38.81 16 84.92v22.11l80 46.16 19.19-11.06v-12.92l11.19 6.43 19.22-11.05v-12.91l11.23 6.4L176 107.03V84.92zm56.81 67.78-3.18-1.81 3.18-1.84zm-13.21-5.26-30.42 17.5L96 126.49l-11.01-6.36 67.57-39.49 11.45 6.6zm-17.23 22.79-3.17-1.82 3.17-1.82zM46.99 98.19l67.89-39.26L126 65.34l-67.89 39.28zM134 69.95l10.57 6.09-67.56 39.49-10.9-6.29zm-27.12-15.63L38.99 93.58 28 87.24l68-39.19zM24 94.16l68 39.26v8.23l-68-39.24zm76 47.49v-8.24l7.19-4.17v8.26zm30.37-17.53v-8.25l7.22-4.15v8.25zm30.44-17.57v-8.24l7.19-4.15v8.25z"/></svg>