<svg xmlns="http://www.w3.org/2000/svg" viewBox="0 0 192 192"><path d="M96 16c-44.112 0-80 35.886-80 79.997C16 140.11 51.888 176 96 176c44.11 0 80-35.89 80-80.003C176 51.887 140.11 16 96 16M24.073 95.997a71.65 71.65 0 0 1 6.228-29.272l34.31 94.004c-23.995-11.657-40.538-36.262-40.538-64.732m71.925 71.931a71.9 71.9 0 0 1-20.32-2.93l21.583-62.709 22.108 60.57c.145.356.324.684.515.992a71.8 71.8 0 0 1-23.886 4.077m9.913-105.654c4.33-.227 8.232-.683 8.232-.683 3.875-.459 3.418-6.155-.459-5.928 0 0-11.65.915-19.17.915-7.068 0-18.944-.915-18.944-.915-3.878-.227-4.333 5.699-.456 5.928 0 0 3.669.456 7.544.683l11.205 30.704-15.742 47.207-26.191-77.91a146 146 0 0 0 8.231-.684c3.873-.459 3.416-6.155-.46-5.928 0 0-11.648.915-19.17.915-1.35 0-2.94-.034-4.629-.088C48.765 36.966 70.87 24.072 96 24.072c18.725 0 35.775 7.16 48.57 18.884-.31-.02-.612-.058-.931-.058-7.065 0-12.078 6.155-12.078 12.765 0 5.928 3.42 10.943 7.065 16.87 2.735 4.79 5.93 10.944 5.93 19.837 0 6.155-2.368 13.299-5.473 23.252l-7.176 23.97-25.994-77.318zm53.203-.783c5.614 10.245 8.81 22 8.81 34.506 0 26.536-14.381 49.702-35.764 62.17l21.968-63.518c4.103-10.26 5.47-18.466 5.47-25.762a55 55 0 0 0-.484-7.396"/></svg>