<svg xmlns="http://www.w3.org/2000/svg" viewBox="0 0 192 192"><path d="m56 56.51-32 10.4V176h-8V61.09l40-13zm120 4.58V176h-8V66.91l-32-10.33v-8.4zm-47.1 8.37c0 1.57-.28 3.12-.83 4.58l-.82 2.2-7.52-7.6c-1.2-1.21-3.28-1.21-4.48 0a3.25 3.25 0 0 0 .01 4.56l7.48 7.57-2.14.82c-1.46.56-2.99.84-4.55.84-7.09 0-12.85-5.82-12.85-12.97 0-1.7.32-3.34.94-4.89l-6.437-6.497L76.691 79.26c-1.868 1.885-4.302 2.965-6.678 2.965h-.01c-1.856-.003-3.545-.68-4.757-1.909-2.849-2.885-2.367-8.053 1.072-11.52L87.34 47.6l-.96-.97-5.54-5.6c-1.53.63-3.15.95-4.83.95-.36 0-.71-.01-1.06-.05-6.59-.54-11.79-6.13-11.79-12.92 0-1.57.28-3.11.83-4.58l.82-2.2 7.52 7.6c.6.61 1.39.94 2.24.94.84 0 1.64-.33 2.23-.94a3.24 3.24 0 0 0 0-4.56l-7.49-7.57 2.15-.82c1.46-.56 2.99-.84 4.55-.84 7.09 0 12.85 5.82 12.85 12.97 0 1.7-.32 3.34-.95 4.89l2.86 2.89 5.22 5.27 5.12-5.14 8.28-8.32v-5.27l12.7-7.02 6.54 6.6-6.94 12.81h-5.23l-4.63 4.66-6.33 6.36-2.44 2.46 8.16 8.24c1.53-.63 3.15-.95 4.83-.95 7.08 0 12.85 5.82 12.85 12.97m18.865 72.378c-.04-.277-.804-5.153-3.868-10.437 2.471-.953 4.103-2.96 4.103-5.401 0-3.42-3.194-6-7.43-6h-6.073c-.79-1.662-1.472-3.283-2.13-4.867C127.44 103.272 123.056 96 96.21 96h-2.877c-26.034 0-29.752 6.906-33.653 18.167-.656 1.894-1.33 3.83-2.223 5.833h-6.028c-4.235 0-7.428 2.58-7.428 6 0 2.438 1.627 4.444 4.093 5.397-3.054 5.263-3.811 10.114-3.86 10.44l-.022.182c-.019.186-.453 4.7-.018 17.783.265 7.954 1.666 12.689 4.409 14.9 1.428 1.152 2.818 1.32 3.687 1.287h12.018l.809-.38c1.322-.623 5.265-3.171 6.269-11.609h49.229c1.004 8.438 4.947 10.986 6.269 11.608l.81.382h12.017q.103.005.213.005c.87 0 2.159-.231 3.474-1.292 2.743-2.212 4.144-6.947 4.408-14.9.436-13.085.001-17.598-.017-17.784l-.023-.181zm-7.955 17.698c-.17 5.105-.846 7.475-1.249 8.454h-8.574c-.831-1.31-1.581-4.9-1.607-8.012l-.02-3.978H63.64l-.021 3.98c-.016 3.061-.786 6.726-1.588 8.01h-8.593c-.404-.98-1.08-3.35-1.25-8.454-.378-11.382-.077-15.945-.025-16.624.171-.982 1.871-9.666 9.203-14.216l.86-.533.502-.877c2.21-3.859 3.432-7.387 4.51-10.5 2.951-8.518 4.46-12.818 26.141-12.786h2.836c22.86 0 24.837 4.749 28.764 14.202 1.128 2.716 2.407 5.794 4.292 9.084l.502.877.86.533a17.6 17.6 0 0 1 3.19 2.546c4.614 4.643 5.868 10.88 6.012 11.675.057.737.351 5.315-.025 16.619M80.541 139.2c-2.962-.346-10.763-1.266-10.763-1.266a4.43 4.43 0 0 0-4.432 4.432v1.266a4.43 4.43 0 0 0 4.432 4.432H80.54c2.448 0 4.432-1.984 4.432-4.432s-1.47-4.086-4.432-4.432zm43-1.266s-7.8.92-10.763 1.266-4.432 1.984-4.432 4.432 1.984 4.432 4.432 4.432h10.763a4.43 4.43 0 0 0 4.432-4.432v-1.266a4.43 4.43 0 0 0-4.432-4.432"/></svg>