<svg xmlns="http://www.w3.org/2000/svg" viewBox="0 0 192 192"><path d="m111.945 111.945 27.883 61.344 9.267-18.536 16.076 16.076 5.658-5.658-16.076-16.075 18.535-9.268zm28.227 42.766-12.117-26.656 26.657 12.117-9.694 4.847zm-14.449 6.879A72.2 72.2 0 0 1 100 167.882V100h31.937a138 138 0 0 1-.858 11.854l7.649 3.477A145 145 0 0 0 139.94 100h27.943a72.2 72.2 0 0 1-6.31 25.716l7.297 3.316A80.25 80.25 0 0 0 176 96c0-44.112-35.888-80-80-80S16 51.888 16 96s35.888 80 80 80a80.2 80.2 0 0 0 33.031-7.132zM167.883 92h-27.937c-.708-27.377-8.655-50.73-20.526-64.068 27.031 9.327 46.825 34.31 48.463 64.068M100 24.48c17.06 3.974 30.936 32.935 31.938 67.52H100zm-27.42 3.452C60.71 41.269 52.762 64.622 52.054 92H24.117c1.638-29.758 21.432-54.741 48.463-64.068M24.117 100h27.937c.708 27.377 8.655 50.73 20.526 64.068-27.031-9.327-46.825-34.31-48.463-64.068M92 167.52c-17.06-3.974-30.936-32.935-31.938-67.52H92zM92 92H60.062C61.064 57.415 74.94 28.454 92 24.48z"/></svg>