<svg xmlns="http://www.w3.org/2000/svg" xml:space="preserve" viewBox="0 0 192 192"><path d="M56 40a8 8 0 1 1 16 0 8 8 0 0 1-16 0M43.903 55.57C41.422 51.55 40 45.92 40 40.109 40 26.815 50.767 16 64 16s24 10.815 24 24.108c0 5.811-1.422 11.442-3.902 15.463-2.95 5.08-16.51 28.218-16.647 28.451L64 89.911l-3.45-5.889c-.138-.233-13.699-23.37-16.647-28.451M48 40.109c0 4.322 1.021 8.543 2.731 11.293l.063.105C52.756 54.89 59.722 66.786 64 74.088c4.278-7.302 11.244-19.199 13.207-22.582l.063-.104c1.709-2.75 2.73-6.973 2.73-11.294C80 31.226 72.822 24 64 24s-16 7.226-16 16.108m128 55.924c0 44.113-35.888 80-80 80s-80-35.887-80-80c0-18.299 6.19-35.17 16.566-48.664a38.3 38.3 0 0 0 2.336 8.156l.004-.007a30 30 0 0 0 2.1 4.171c.853 1.47 2.487 4.268 4.409 7.555-.991 3.4-.7 6.33-1.036 7.487-.775 2.667-2.445 4.734-4.797 6.274-1.34.877-2.551 1.947-3.854 2.884-1.072.77-1.548 1.809-1.663 3.089-.354 3.969 1.287 7.269 3.489 10.362 1.24 1.742 1.64 1.905 3.582 1.087 2.108-.887 4.066-.651 6.003.355.805.418 1.66.831 2.308 1.443 2.548 2.411 5.495 4.192 8.582 5.802.906.473 1.716 1.18 2.465 1.891.522.495 1.092 1.127 1.241 1.788.412 1.827 1.676 2.63 3.257 3.192.857.305 1.7.65 2.55.974 2.795 1.06 5.64 2.008 8.37 3.212 2.407 1.06 3.337 3.276 2.624 5.819-.313 1.115-.832 2.186-1.359 3.226-.808 1.598-1.202 3.234-.885 5.025.152.853.225 1.721.315 2.584.283 2.707-.28 3.714-2.656 5.046a15.3 15.3 0 0 0-2.457 1.688c-1.213 1.036-1.952 2.415-1.778 4.015.27 2.492-.184 4.792-1.107 7.102-.83 2.073-.02 4.055.71 6.042.586 1.593 1.842 2.163 3.201 2.77l2.422 3.127A71.6 71.6 0 0 0 96 168.032c39.701 0 72-32.299 72-72 0-4.329-.397-8.565-1.135-12.685-.543 1.28-2.27 3.756-2.585 4.771-.592 1.911-1.752 3.315-3.646 4.095-1.52.626-1.677 1.06-1.077 2.574.178.45.364.9.592 1.326 1.53 2.863 1.089 5.415-.885 7.968-1.88 2.432-3.658 4.982-5.135 7.67-.807 1.469-1.391 3.387-1.21 5.007.414 3.713-.344 6.98-2.349 10.051-.528.81-.963 1.681-1.427 2.532-2.857 5.235-5.852 10.398-10.314 14.454-1.83 1.663-3.908 3.166-6.109 4.277-2.252 1.136-4.211.131-5.034-2.247-1.323-3.826-2.41-7.734-3.78-11.541-1.03-2.863-1.016-5.525.339-8.28 1.148-2.335 1.112-4.743-.145-7.116-.781-1.475-1.732-2.977-2.021-4.572-.597-3.297-2.055-6.078-3.97-8.752-1.165-1.63-1.545-1.948-3.45-1.283-2.12.74-4.218 1.537-6.342 2.26-2.56.873-4.988.633-7.358-.771-3.443-2.041-6.28-4.655-8.337-8.108-1.54-2.583-2.315-5.282-1.75-8.326.313-1.684.452-3.41.534-5.123.219-4.576 2.255-8.263 5.766-11 2.619-2.04 3.994-4.95 6.275-7.53-1.858-.537-3.098-1.564-3.739-3.24-1.408-3.68.103-8.46 3.337-10.718 2.005-1.4 4.244-1.631 6.563-1.5 1.78.1 3.313-.286 4.466-1.75.24-.306.558-.58.895-.777.904-.529.95-1.142.543-2.086-1.556-3.602-.647-6.053 3.096-7.242 3.003-.954 7.34-3.446 10.09-5.152a11 11 0 0 1-.8-.457c-6.516-4.648-13.848-5.554-20.965-6.552-.787-.11-1.877 1.352-2.08 2.094-.15.556-.55 1.088-.956 1.523-.866.93-1.843 1.758-2.71 2.687-1.57 1.683-3.391 2.903-5.436 3.688-.937-7.654-4.563-14.481-9.902-19.502A80 80 0 0 1 96 16.032c44.112 0 80 35.888 80 80m-49.962-33.12c-2.458-1.251-4.82-2.692-7.287-3.924-.666-.333-1.764-.543-2.32-.22-1.986 1.153-3.189 3.102-4.707 5.085 5.267-.963 10.295-2.879 14.91 1.502-.322-.938.658-1.806-.596-2.444m18.389 5.429c-.759-.483-1.661-.861-2.544-1-1.819-.286-3.666-.41-5.505-.544-1.712-.124-3.378-.286-4.304-2.182-1.238 1.535-2.613 2.45-4.832 1.914.392.89.687 1.52.948 2.164.84 2.066 2.26 3.135 4.591 2.94 2.733-.227 5.42.075 8.098.751.99.25 2.214.096 3.193-.256 1.673-.603 1.853-2.834.355-3.787m-98.22 78.856c-.548-2.783-1.66-8.067-2.025-10.71-.354-2.565-1.408-4.608-3.267-6.425-5.822-5.687-8.633-12.752-8.516-20.81.054-3.7-5.584-7.876-7.158-10.538-1.261 17.313 8.34 39.368 20.966 48.483"/></svg>