<svg xmlns="http://www.w3.org/2000/svg" viewBox="0 0 192 192"><path d="M76.1 40.8a2.65 2.65 0 0 1 .4-2.2 2.82 2.82 0 0 1 2.4-.9 21 21 0 0 1 4.3.4c.241.11.449.282.6.5.1.257.1.543 0 .8l-.1.2a4 4 0 0 1 .1 1.9c-.1.1-.1.4-.4.7a1.33 1.33 0 0 1-.9.3h-4.7a1.92 1.92 0 0 1-1.6-.6 1.11 1.11 0 0 1-.1-1.1M81.8 52a1.15 1.15 0 0 0-1.1-.6.78.78 0 0 0-.8-.2 3.52 3.52 0 0 0-2 1.4 2.92 2.92 0 0 0-.4 2.4.91.91 0 0 0 .5.7c.239.15.519.22.8.2h2.1a1 1 0 0 0 .9-.8l.2-1.8a3.4 3.4 0 0 0-.2-1.3m.7-3.3a.8.8 0 0 0-.306 1.09l.006.01a9.7 9.7 0 0 1 .4 3.8v.2a.1.1 0 0 1-.1.1l-.1.1a3.24 3.24 0 0 0-.5 2.6 1.52 1.52 0 0 0 1.7 1.5H86a1.2 1.2 0 0 0 .9-.3 1.31 1.31 0 0 0 .5-1.1l.2-5.2a2.42 2.42 0 0 0-.6-1.8 2.5 2.5 0 0 0-.8-.5 13.6 13.6 0 0 0-2.9-.6.75.75 0 0 0-.8.1M176 96c0 44.112-35.888 80-80 80s-80-35.888-80-80 35.888-80 80-80 80 35.888 80 80m-86.126 71.721L88.9 166.7a1.4 1.4 0 0 1-.3-.4 59.3 59.3 0 0 1-3.2-21.7 5.3 5.3 0 0 0-.2-1.9 3.8 3.8 0 0 0-1-1.3l-.4-.4a11.11 11.11 0 0 1-1.9-11.8l-2.2-.5a.85.85 0 0 1-.7-.7l-.4-2.2c-2.8-1.7-6.2-1.7-9.9-1.8-3.9-.1-8-.2-11.3-2.4-4.5-3.1-5.8-9-5.4-13.5a47.3 47.3 0 0 1 2.5-10.5c.4-1.2.8-2.3 1.1-3.5l.1-.3a12.2 12.2 0 0 1 1.7-3.9 12.2 12.2 0 0 1 3.1-2.5 9.8 9.8 0 0 0 2.3-1.7c.5-.6.9-1.3 1.4-2 .9-1.4 1.9-2.9 3.7-3.5.387-.147.79-.247 1.2-.3a3.6 3.6 0 0 0 1.1-.2c.2-.1.5-.3.5-.5l-.1-.3a.89.89 0 0 1 .6-1 1 1 0 0 1 1.1.5c.125.212.194.453.2.7l.1.4 20.1 1a.79.79 0 0 1 .8.5c.2.267.2.633 0 .9l-1.1 2a8.9 8.9 0 0 1 3 2.5 9.1 9.1 0 0 0 2.3 2.1c1.5.8 3.4.5 5.3.3a15 15 0 0 1 2.1-.2 23 23 0 0 1 3.7.1c1.496.15 3.004.15 4.5 0 2.3-.4 4.7-2.2 4.5-4.4a2.6 2.6 0 0 0-.9-1.7 5.6 5.6 0 0 0-3.3-.9c-.3 0-.6-.1-.9-.1a8.8 8.8 0 0 1-2.3-.7 3.5 3.5 0 0 1-1.7 1.9c-1.9 1-4.1.1-5.4-1.1a10.6 10.6 0 0 1-2.2-3.3 4.52 4.52 0 0 1-2.5 1.8 9.75 9.75 0 0 1-4.5-.1.85.85 0 0 1-.7-.8.76.76 0 0 1 .5-.9 1.07 1.07 0 0 0 .3-.5 3 3 0 0 0-1-2.4 1.8 1.8 0 0 1-.5-.4c-1.1-1-2.4-2.2-2.5-3.8-1.9-.6-4.4.4-7.6 3.1-2.8 2.4-6.5 4.9-10 3.3a5.46 5.46 0 0 1 1.8-10.4h1.3q.65.075 1.3 0a2.86 2.86 0 0 0 1.9-1.8 2.31 2.31 0 0 0-.3-2.5.78.78 0 0 1-.2-.8.9.9 0 0 1 .6-.6l12.5-4a9.13 9.13 0 0 0 .1-6.1c-.1-.2-.2-.5-.3-.7a7.8 7.8 0 0 1-.6-3.1 5.8 5.8 0 0 1 1.6-3c5.3-6.1 15.3-7.7 22.2-3.5a1 1 0 0 1 .4.5 25.2 25.2 0 0 0 4-4c2.3-2.6 4.5-5.2 7.8-5.6l.853-.802a71.5 71.5 0 0 0-13.581-5.027L113.7 27.4a2.7 2.7 0 0 1-.7.8 3.4 3.4 0 0 1-1.2.6 34.5 34.5 0 0 1-9.6 1.6h-.4a8.6 8.6 0 0 0-2.3.2 9.4 9.4 0 0 0-1.5.6c-.6.2-1.1.5-1.8.7a7.2 7.2 0 0 1-2.5.3 9 9 0 0 0-1.7.1c-1 .2-2 .9-2 1.7a1 1 0 0 1-.5.8 1.18 1.18 0 0 1-1-.1 4.54 4.54 0 0 1-1.5-1.9q-.625.485-1.3.9a32 32 0 0 1-7.2 3.3 46.2 46.2 0 0 1-14.2 2.6 1 1 0 0 1-.9-.7 5.08 5.08 0 0 1 1.2-4.3 11.1 11.1 0 0 1 3.3-2.5 32 32 0 0 1 5-2.3h.1q.63-.24 1.2-.6c.315-.253.585-.558.8-.9.1-.1.1-.2.2-.3l-.208-.866a71.7 71.7 0 0 0-17.513 8.084L58 36l-.5 1.1a26.7 26.7 0 0 1-2.5 5.1c-.6.8-1.2 1.6-1.8 2.3a26 26 0 0 0-2.1 2.9q-.59 1.059-1 2.2a13.7 13.7 0 0 1-1.6 3.2 14 14 0 0 1-6.8 4.6 1.06 1.06 0 0 1-.8-.1.68.68 0 0 1-.4-.6 11.8 11.8 0 0 1 .3-5.3l-.431-1.054C30.146 62.78 24 78.685 24 96c0 37.636 29.031 68.6 65.874 71.721m77.365-61.32-.939.099c-3.7-1-5.7-5.5-6.4-7.5l-.1-.2c-1.1-3.3-2.5-7-5.5-7.9-1.5-.5-3.2-.1-4.9.3a13 13 0 0 1-5.2.5 12.1 12.1 0 0 1-3.2-1.1c-1.3-.5-2.4-1.1-3.5-1 .6 2.1 1.5 4.4 3.4 4.9 1 .3 2.2-.1 3.5-.4a8 8 0 0 1 4.6-.3q4.35 1.35 4.2 9a.91.91 0 0 1-.3.7 1.45 1.45 0 0 1-.7.2 11 11 0 0 0-9.6 4.5c-.3.4-.5.8-.8 1.2a8.23 8.23 0 0 1-3.8 3.8c-2.4.9-5-.5-6.5-2.3a17.2 17.2 0 0 1-2.2-3.7 16 16 0 0 1-1-1.8c-2.2-4-6.1-6.9-9.7-9.5-.2 1 .2 2.4 1.3 4.2a86 86 0 0 0 9.9 13.4 5.94 5.94 0 0 0 3.3 2.4c1.5.3 3-.6 4.5-1.5a13.7 13.7 0 0 1 3.7-1.7h.2c.2 0 .3.1.5.2a1 1 0 0 1 .4.7c.2 3.2-1.1 6.3-2.6 9.2a86 86 0 0 1-8.8 13.7l-.2.3a13 13 0 0 0-2.6 4.3c-.4 1.4-.2 3.3 1.1 4.1a1 1 0 0 1 .4.7.66.66 0 0 1-.2.7l-13.2 13.8a34 34 0 0 1-3.3 3.3 18.4 18.4 0 0 1-2.2 1.7l-.25 1.121c29.418-6.061 52.33-30.125 56.689-60.12"/></svg>