<svg xmlns="http://www.w3.org/2000/svg" viewBox="0 0 192 192"><path d="M34 176.142a18.03 18.03 0 0 1-12.829-5.313c-3.426-3.427-5.313-7.983-5.313-12.829s1.887-9.402 5.313-12.829l48-48 5.658 5.658-48 48c-1.916 1.915-2.971 4.462-2.971 7.171s1.055 5.256 2.97 7.171 4.463 2.971 7.172 2.971 5.256-1.055 7.171-2.97l48-48 5.658 5.657-48 48A18.03 18.03 0 0 1 34 176.142M145.657 64h12.714l17.077-31.209-16.239-16.239L128 33.63v12.714l-26.829 26.828 5.658 5.658L136 49.657V38.37l21.791-11.923 7.761 7.761L153.63 56h-11.286l-29.172 29.171 5.658 5.658zM176 148h-8.338c-1.691 10.034-9.628 17.97-19.662 19.662V176h-8v-8.338c-10.034-1.691-17.97-9.628-19.662-19.662H112v-8h8.338c1.691-10.034 9.628-17.97 19.662-19.662v-8.337h8v8.337c10.034 1.691 17.97 9.628 19.662 19.662H176zm-15.999-4H144v-16.001c-8.823 0-16.001 7.178-16.001 16.001H144v16.001c8.823 0 16.001-7.178 16.001-16.001M67.11 60.766l57.665 57.665a32 32 0 0 1 7.22-4.094L76.78 59.123c.025-.06.045-.123.069-.183l.017-.048q.291-.747.542-1.505.135-.406.26-.814.114-.384.218-.77v-.001q.089-.317.17-.636.16-.64.292-1.285l.038-.176q.105-.537.192-1.079v-.001l.045-.266a31 31 0 0 0 .173-1.311l.03-.26a32 32 0 0 0 .133-1.693l.001-.017q.04-.786.04-1.578C79 30.13 64.87 16 47.5 16q-.769 0-1.529.039c-.182.008-.363.025-.545.036q-.48.03-.96.073-.34.035-.68.077-.398.045-.792.101-.389.057-.774.123a32 32 0 0 0-1.526.296q-.26.06-.518.12-.486.116-.969.246-.181.05-.363.103a31 31 0 0 0-1.086.33l-.18.06q-.613.202-1.218.43l-.018.006a31.4 31.4 0 0 0-5.336 2.623l18.165 18.166c2.852 2.851 2.852 7.49 0 10.342s-7.49 2.852-10.342 0L20.663 31.006a31.4 31.4 0 0 0-2.627 5.348l-.002.005c-.151.4-.29.801-.425 1.204l-.068.2q-.171.533-.324 1.07-.055.19-.108.38a31 31 0 0 0-.365 1.487 31 31 0 0 0-.52 3.09c-.026.225-.054.45-.075.676q-.044.479-.074.962c-.011.181-.028.361-.036.543A32 32 0 0 0 16 47.5C16 64.87 30.13 79 47.5 79q.792 0 1.578-.04l.017-.001a32 32 0 0 0 1.692-.133l.26-.03h.004a31 31 0 0 0 1.574-.217h.001q.54-.088 1.078-.193l.177-.038q.645-.133 1.285-.292.319-.081.636-.17.387-.103.77-.219a31 31 0 0 0 2.319-.801l.049-.017q.09-.034.183-.069l55.214 55.215a32 32 0 0 1 4.094-7.222L60.766 67.11l-2.591 1.324A23.24 23.24 0 0 1 47.5 71C34.542 71 24 60.458 24 47.5q0-.893.066-1.777l9.105 9.106C36.064 57.72 39.91 59.314 44 59.314s7.936-1.593 10.829-4.485C57.72 51.936 59.314 48.09 59.314 44s-1.593-7.936-4.485-10.829l-9.106-9.105A24 24 0 0 1 47.5 24C60.458 24 71 34.542 71 47.5c0 3.75-.864 7.342-2.567 10.675l-1.324 2.591z"/></svg>