<svg xmlns="http://www.w3.org/2000/svg" viewBox="0 0 192 192"><path d="M103.037 120.694 59.123 76.78A31.2 31.2 0 0 1 47.5 79C30.13 79 16 64.87 16 47.5c0-3.825.684-7.574 2.034-11.14l2.19-5.792L38.83 49.17c2.851 2.852 7.49 2.852 10.342 0s2.852-7.49 0-10.342L30.568 20.225l5.792-2.191A31.4 31.4 0 0 1 47.5 16C64.87 16 79 30.13 79 47.5a31.2 31.2 0 0 1-2.22 11.623l44.804 44.804-5.657 5.657-48.818-48.818 1.324-2.591A23.24 23.24 0 0 0 71 47.5C71 34.542 60.458 24 47.5 24q-.893 0-1.777.066l9.106 9.105c5.97 5.972 5.97 15.686 0 21.658C51.936 57.72 48.09 59.314 44 59.314s-7.936-1.593-10.829-4.485l-9.105-9.106A24 24 0 0 0 24 47.5C24 60.458 34.542 71 47.5 71c3.75 0 7.342-.864 10.675-2.567l2.591-1.324 50.957 50.957a19.8 19.8 0 0 0-8.686 2.628m-56.208 50.135 48-48-5.658-5.658-48 48c-1.915 1.916-4.462 2.971-7.171 2.971s-5.256-1.055-7.171-2.97-2.971-4.463-2.971-7.172 1.055-5.256 2.97-7.171l48-48-5.657-5.658-48 48c-3.426 3.427-5.313 7.983-5.313 12.829s1.887 9.402 5.313 12.829c3.427 3.426 7.983 5.313 12.829 5.313s9.402-1.887 12.829-5.313M145.657 64h12.714l17.077-31.209-16.239-16.239L128 33.63v12.714l-26.829 26.828 5.658 5.658L136 49.657V38.37l21.791-11.923 7.761 7.761L153.63 56h-11.286l-29.172 29.171 5.658 5.658zm28.921 76.771-8.574 28.581a9.27 9.27 0 0 1-8.935 6.648H129.05c-3.66 0-7.1-1.425-9.689-4.013l-1.354-1.355c-2.153 3.232-5.826 5.368-9.992 5.368-6.616 0-11.999-5.383-11.999-12v-24c0-6.617 5.383-12 12-12 3.373 0 6.42 1.405 8.603 3.654l5.512-1.571a6.38 6.38 0 0 0 4.159-4.768L129.754 108H142c5.515 0 10 4.486 10 10v10h13.075a9.83 9.83 0 0 1 7.96 3.999 9.83 9.83 0 0 1 1.543 8.772M112.016 140c0-2.206-1.794-4-4-4a4.004 4.004 0 0 0-3.999 4v24c0 2.206 1.794 4 4 4a4.004 4.004 0 0 0 3.999-4zm54.6-3.226a1.89 1.89 0 0 0-1.54-.774H144v-18c0-1.103-.896-2-2-2h-5.688l-2.177 10.884a14.4 14.4 0 0 1-9.546 10.814l-.17.052-4.453 1.269c.026.324.05.65.05.98v21.327l5.004 5.005a5.66 5.66 0 0 0 4.03 1.669h28.019c.582 0 1.105-.39 1.272-.946l8.574-28.581a1.88 1.88 0 0 0-.298-1.699z"/></svg>