<svg xmlns="http://www.w3.org/2000/svg" xml:space="preserve" viewBox="0 0 192 192"><path d="M34 176.142a18.03 18.03 0 0 1-12.829-5.313c-3.426-3.427-5.313-7.983-5.313-12.829s1.887-9.402 5.313-12.829l48-48 5.658 5.658-48 48c-1.916 1.915-2.971 4.462-2.971 7.171s1.055 5.256 2.97 7.171 4.463 2.971 7.172 2.971 5.256-1.055 7.171-2.97l48-48 5.658 5.657-48 48A18.03 18.03 0 0 1 34 176.142M145.657 64h12.714l17.077-31.209-16.239-16.239L128 33.63v12.714l-26.829 26.828 5.658 5.658L136 49.657V38.37l21.791-11.923 7.761 7.761L153.63 56h-11.286l-29.172 29.171 5.658 5.658zM176 144.5q0 .769-.039 1.53c-.008.18-.025.36-.036.542q-.03.483-.074.962c-.021.226-.05.451-.076.676a32 32 0 0 1-.101.799 31 31 0 0 1-.122.766 32 32 0 0 1-.296 1.525 31 31 0 0 1-.365 1.487q-.053.19-.108.38-.153.537-.324 1.07l-.068.2q-.2.605-.425 1.204l-.002.005a31.4 31.4 0 0 1-2.627 5.348l-18.166-18.165c-2.851-2.852-7.49-2.852-10.342 0s-2.852 7.49 0 10.342l18.165 18.166a31.4 31.4 0 0 1-5.336 2.623l-.018.006q-.605.228-1.218.43l-.18.06q-.54.175-1.086.33-.182.052-.363.103a31 31 0 0 1-1.487.366 31 31 0 0 1-3.092.52q-.34.042-.68.077-.48.043-.96.073c-.182.011-.363.028-.545.036q-.76.038-1.529.039c-17.37 0-31.5-14.13-31.5-31.5q0-.792.04-1.578l.001-.017c.028-.568.075-1.131.133-1.692l.03-.26v-.004a31 31 0 0 1 .217-1.574v-.001q.088-.54.193-1.078l.038-.177q.132-.646.292-1.285.081-.319.17-.636.103-.387.219-.77.124-.41.259-.814.25-.759.542-1.506l.017-.048q.034-.09.069-.183l-3.153-3.153-9.067-9.067L93.343 111l-34.22-34.22c-.06.025-.123.045-.183.069l-.048.017q-.747.291-1.505.542-.406.135-.814.26-.384.114-.77.218h-.001q-.317.089-.636.17a31 31 0 0 1-1.285.292l-.176.038q-.537.105-1.079.192h-.001l-.266.045a31 31 0 0 1-1.311.173l-.26.03c-.562.058-1.125.105-1.693.133l-.017.001q-.786.04-1.578.04C30.13 79 16 64.87 16 47.5q0-.769.039-1.53c.008-.18.025-.36.036-.542q.03-.483.073-.962.035-.339.077-.676.045-.401.101-.799.057-.384.122-.766a32 32 0 0 1 .296-1.525 31 31 0 0 1 .365-1.487q.053-.19.108-.38.153-.537.324-1.07l.068-.2q.2-.605.425-1.204l.002-.005a31.4 31.4 0 0 1 2.627-5.348l18.166 18.165c2.851 2.852 7.49 2.852 10.342 0s2.852-7.49 0-10.342L31.006 20.663a31.4 31.4 0 0 1 5.336-2.623l.018-.006q.605-.228 1.218-.43l.18-.06q.54-.175 1.086-.33.181-.052.363-.103a31 31 0 0 1 1.487-.366 31 31 0 0 1 3.092-.52q.34-.042.68-.077.48-.043.96-.073c.182-.011.363-.028.545-.036A32 32 0 0 1 47.5 16C64.87 16 79 30.13 79 47.5q0 .792-.04 1.578l-.001.017q-.044.851-.133 1.692l-.03.26v.004a31 31 0 0 1-.217 1.574v.001q-.088.54-.193 1.078l-.038.177q-.132.645-.292 1.285-.081.319-.17.636-.103.387-.219.77-.124.41-.259.814a31 31 0 0 1-.542 1.506l-.017.048q-.034.09-.069.183L89 71.343l12 12L129.657 112l3.22 3.22c.06-.025.123-.045.183-.069l.048-.017q.747-.291 1.505-.542.405-.135.814-.26.384-.114.77-.218h.001q.317-.089.636-.17a31 31 0 0 1 1.285-.292l.176-.038q.537-.105 1.079-.192h.001l.266-.045a31 31 0 0 1 1.311-.173l.26-.03a32 32 0 0 1 1.693-.133l.018-.001q.785-.04 1.577-.04c17.37 0 31.5 14.13 31.5 31.5m-8 0c0-12.958-10.542-23.5-23.5-23.5-3.75 0-7.342.864-10.675 2.567l-2.591 1.324-12.09-12.09-17.772-17.772-.372-.372-33.89-33.89 1.323-2.592A23.24 23.24 0 0 0 71 47.5C71 34.542 60.458 24 47.5 24q-.892 0-1.777.066l9.106 9.105C57.72 36.064 59.314 39.91 59.314 44s-1.593 7.936-4.485 10.829C51.936 57.72 48.09 59.314 44 59.314s-7.936-1.593-10.829-4.485l-9.105-9.106Q24 46.608 24 47.5C24 60.458 34.542 71 47.5 71c3.75 0 7.342-.864 10.675-2.567l2.591-1.324 52.066 52.065 12.059 12.06-1.324 2.591A23.24 23.24 0 0 0 121 144.5c0 12.958 10.542 23.5 23.5 23.5q.893 0 1.777-.066l-9.106-9.105c-2.892-2.893-4.485-6.739-4.485-10.829s1.593-7.936 4.485-10.829c2.893-2.892 6.739-4.485 10.829-4.485s7.936 1.593 10.829 4.485l9.105 9.106q.066-.885.066-1.777"/></svg>