<svg xmlns="http://www.w3.org/2000/svg" viewBox="0 0 192 192"><path d="M166.11 120.34c-1.62-2.73-4.61-4.89-8.33-6.2l13.41-22.35-44.43 1.31-17.31-17.31-6.8.85L89.91 55.4l-34.88 8.72-2.46.62-13.54 3.38 1.94 7.76 9.87-2.47-1.99 9.95-5.42.68C35.46 85.18 32.04 88.72 32 95.88l-8.85.26 4.41 22.05c-.65.67-1.21 1.39-1.67 2.15-1.05 1.77-4.87 3.66-9.89 3.66v8c7.46 0 14.04-2.97 16.77-7.58 1.06-1.77 4.88-3.66 9.9-3.66 5.01 0 8.84 1.89 9.89 3.66 2.73 4.6 9.31 7.58 16.77 7.58s14.05-2.97 16.78-7.58c1.05-1.77 4.87-3.66 9.89-3.66s8.84 1.89 9.89 3.66c2.73 4.61 9.32 7.58 16.78 7.58s14.04-2.97 16.77-7.58c1.05-1.77 4.88-3.66 9.89-3.66 5.02 0 8.85 1.89 9.9 3.66 2.73 4.61 9.31 7.58 16.77 7.58v-8c-5.02 0-8.84-1.89-9.89-3.66M59.43 71.27l26.66-6.67 7.88 13.12-36.75 4.6zM44.5 91.97l62.05-7.76 9.21 9.21L40 95.64c.01-2.49.2-3.06 4.5-3.67m88.06 28.37c-1.05 1.77-4.88 3.66-9.89 3.66-5.02 0-8.84-1.89-9.9-3.66-2.72-4.6-9.31-7.58-16.77-7.58s-14.04 2.98-16.77 7.58c-1.05 1.77-4.88 3.66-9.9 3.66-5.01 0-8.84-1.88-9.89-3.66-2.73-4.6-9.31-7.58-16.77-7.58-2.77 0-5.43.41-7.81 1.16l-2.01-10.06 123.96-3.65-7.53 12.55c-7.44.01-14 2.99-16.72 7.58"/></svg>