<svg xmlns="http://www.w3.org/2000/svg" viewBox="0 0 192 192"><path d="M96 176c-44.112 0-80-35.888-80-80s35.888-80 80-80 80 35.888 80 80-35.888 80-80 80m0-152c-39.701 0-72 32.299-72 72s32.299 72 72 72 72-32.299 72-72-32.299-72-72-72m0 32c-22.091 0-40 17.909-40 40s17.909 40 40 40 40-17.909 40-40-17.909-40-40-40m0 67.456c-15.163 0-27.456-12.293-27.456-27.456S80.837 68.544 96 68.544 123.456 80.837 123.456 96 111.163 123.456 96 123.456m-3.475-8.94 19.364-13.264a6.274 6.274 0 0 0-.02-10.366L92.446 77.692a6.274 6.274 0 1 0-7.05 10.379l11.814 8.027-11.776 8.066a6.273 6.273 0 0 0 3.551 11.45 6.25 6.25 0 0 0 3.54-1.098"/></svg>