<svg xmlns="http://www.w3.org/2000/svg" viewBox="0 0 192 192"><path d="M72 64h20v8H72v20h-8V72H44v-8h20V44h8zm99.829 107.829c-2.813 2.812-6.556 4.2-10.41 4.2-4.329 0-8.797-1.75-12.248-5.2l-56.873-56.874A51.67 51.67 0 0 1 68 120c-28.673 0-52-23.327-52-52s23.327-52 52-52 52 23.327 52 52c0 8.773-2.192 17.04-6.045 24.298l56.874 56.873c6.522 6.523 6.97 16.686 1 22.658M112 68c0-24.262-19.738-44-44-44S24 43.738 24 68s19.738 44 44 44 44-19.738 44-44m56.028 92.824c-.176-2.171-1.217-4.357-2.857-5.995L109.56 99.216a52.4 52.4 0 0 1-10.343 10.343l55.613 55.612c1.638 1.64 3.824 2.68 5.995 2.857 1.473.122 3.596-.104 5.347-1.857 1.752-1.75 1.976-3.874 1.857-5.347z"/></svg>