<svg xmlns="http://www.w3.org/2000/svg" viewBox="0 0 1600 900"><path fill="#c1c7cc" d="m1205.48 849.81-62.99-17.27V480.2l62.99-5.3z" data-name="Purple Beam 2"/><path fill="#d0d4d8" d="m1205.48 849.81 74.28-13.07V480.2l-74.28-5.3z" data-name="Purple Beam 1"/><path fill="#9e2896" d="m616.73 553.13-12.52 7.15v31.16l565.96 2.38v-12.11H616.73z" data-name="Purple Barrier 2"/><path fill="#c535bc" d="M616.12 553.13h554.05v28.58H616.12z" data-name="Purple Barrier 1"/><path fill="#d0d4d8" d="M634.38 553.13h57.16v14.29h-57.16z" data-name="Purple Strip 5"/><path fill="#d0d4d8" d="M735.99 553.13h57.16v14.29h-57.16z" data-name="Purple Strip 4"/><path fill="#d0d4d8" d="M841.94 553.13h57.16v14.29h-57.16z" data-name="Purple Strip 3"/><path fill="#d0d4d8" d="M943.55 553.13h57.16v14.29h-57.16z" data-name="Purple Strip 2"/><path fill="#d0d4d8" d="M1047.17 553.13h57.16v14.29h-57.16z" data-name="Purple Strip 1"/><path fill="#c1c7cc" d="m376.85 357.66 10.2-11.43V113.08l-10.2-7.08z" data-name="Purple Camera 8"/><path fill="#d0d4d8" d="m376.85 357.66-12.02-8.65V113.08l12.02-7.08z" data-name="Purple Camera 7"/><path fill="#c1c7cc" d="m380.14 849.81 50.79-24.7V321.04l-50.79-15.3z" data-name="Purple Beam 4"/><path fill="#d0d4d8" d="m380.14 849.81-59.9-18.7V321.04l59.9-15.3z" data-name="Purple Beam 3"/><path fill="#979ea4" d="m469.813 97.515-36.856 68.334-73.598-39.694c-16.37-8.83-22.493-29.288-13.663-45.659 11.511-21.343 38.188-29.326 59.532-17.815z"/><path fill="#e0e2e5" d="M445.41 142.71 469.8 97.5l-76.58-41.31c-24.28-12.78-44.91-3.98-53.93 15.28-2.11 4.5-3.67 8.48-4.37 11.64z"/><path fill="#e0e2e5" d="m379.67 107.1 24.39-45.21L474.71 100c22.14 12.26 25.16 33.82 14.11 51.99-2.58 4.24-5.02 7.76-7.21 10.1l-101.93-54.98Z"/><g transform="rotate(-61.66 448.887 130.352)"><ellipse cx="448.92" cy="130.35" fill="#9e2896" rx="38.53" ry="24.69"/><ellipse cx="448.92" cy="130.35" fill="#c535bc" rx="23.52" ry="15.07"/><ellipse cx="448.92" cy="130.35" fill="#2e3033" rx="7.42" ry="4.75"/></g></svg>