<svg xmlns="http://www.w3.org/2000/svg" viewBox="0 0 1600 900"><path fill="#c1c7cc" d="m1210.44 849.81-62.99-17.27V480.2l62.99-5.3z" data-name="Grey Beam 2"/><path fill="#d0d4d8" d="m1210.44 849.81 74.28-13.07V480.2l-74.28-5.3z" data-name="Grey Beam 1"/><path fill="#c1c7cc" d="m621.7 553.13-12.52 7.15v31.16l565.96 2.38v-12.11H621.7z" data-name="Grey Barrier 2"/><path fill="#d0d4d8" d="M621.08 553.13h554.05v28.58H621.08z" data-name="Grey Barrier 1"/><path fill="#43464a" d="M639.34 553.13h57.16v14.29h-57.16z" data-name="Grey Strip 5"/><path fill="#43464a" d="M740.95 553.13h57.16v14.29h-57.16z" data-name="Grey Strip 4"/><path fill="#43464a" d="M846.9 553.13h57.16v14.29H846.9z" data-name="Grey Strip 3"/><path fill="#43464a" d="M948.51 553.13h57.16v14.29h-57.16z" data-name="Grey Strip 2"/><path fill="#43464a" d="M1052.13 553.13h57.16v14.29h-57.16z" data-name="Grey Strip 1"/><path fill="#c1c7cc" d="m372.18 355.07 10.25-11.49V109.2l-10.25-7.11z" data-name="Purple Camera 8"/><path fill="#d0d4d8" d="m372.18 355.07-12.08-8.7V109.2l12.08-7.11z" data-name="Purple Camera 7"/><path fill="#c1c7cc" d="m375.49 849.81 51.06-24.83V318.25l-51.06-15.37z" data-name="Purple Beam 4"/><path fill="#d0d4d8" d="m375.49 849.81-60.21-18.8V318.25l60.21-15.37z" data-name="Purple Beam 3"/><path fill="#979ea4" d="m469.597 97.521-36.856 68.335-73.597-39.695c-16.371-8.83-22.493-29.288-13.664-45.658 11.512-21.344 38.189-29.327 59.532-17.816z"/><path fill="#e0e2e5" d="m445.19 142.71 24.39-45.21L393 56.19c-24.28-12.78-44.91-3.98-53.93 15.28-2.11 4.5-3.67 8.48-4.37 11.64z"/><path fill="#e0e2e5" d="m379.45 107.1 24.39-45.21L474.49 100c22.14 12.26 25.16 33.82 14.11 51.99-2.58 4.24-5.02 7.76-7.21 10.1l-101.93-54.98Z"/><g transform="rotate(-61.66 448.668 130.358)"><ellipse cx="448.7" cy="130.35" fill="#5a5b5b" rx="38.53" ry="24.69"/><ellipse cx="448.7" cy="130.35" fill="#434444" rx="23.52" ry="15.07"/><ellipse cx="448.7" cy="130.35" fill="#2e3033" rx="7.42" ry="4.75"/></g></svg>