<svg xmlns="http://www.w3.org/2000/svg" viewBox="0 0 1600 900"><g data-name="Barrier"><path fill="#c1c7cc" d="m1217.26 849.81-62.99-17.27V480.2l62.99-5.3z" data-name="Blue Beam 2"/><path fill="#d0d4d8" d="m1217.26 849.81 74.28-13.07V480.2l-74.28-5.3z" data-name="Blue Beam 1"/><path fill="#00629a" d="M628.52 553.13 616 560.28v31.16l565.96 2.38v-12.11H628.52z" data-name="Blue Barrier 2"/><path fill="#0096e8" d="M627.9 553.13h554.05v28.58H627.9z" data-name="Blue Barrier 1"/><path fill="#d0d4d8" d="M646.16 553.13h57.16v14.29h-57.16z" data-name="Blue Strip 5"/><path fill="#d0d4d8" d="M747.77 553.13h57.16v14.29h-57.16z" data-name="Blue Strip 4"/><path fill="#d0d4d8" d="M853.72 553.13h57.16v14.29h-57.16z" data-name="Blue Strip 3"/><path fill="#d0d4d8" d="M955.33 553.13h57.16v14.29h-57.16z" data-name="Blue Strip 2"/><path fill="#d0d4d8" d="M1058.95 553.13h57.16v14.29h-57.16z" data-name="Blue Strip 1"/><path fill="#c1c7cc" d="m396.36 355.62 10.24-11.47V110.02l-10.24-7.1z" data-name="Purple Camera 8"/><path fill="#d0d4d8" d="m396.36 355.62-12.08-8.69V110.02l12.08-7.1z" data-name="Purple Camera 7"/><path fill="#c1c7cc" d="m399.66 849.81 51-24.81V318.84l-51-15.35z" data-name="Purple Beam 4"/><path fill="#d0d4d8" d="m399.66 849.81-60.14-18.78V318.84l60.14-15.35z" data-name="Purple Beam 3"/><path fill="#979ea4" d="m443.364 97.516-36.856 68.335-73.598-39.695c-16.371-8.83-22.493-29.288-13.664-45.658 11.512-21.344 38.189-29.327 59.532-17.816z"/><path fill="#e0e2e5" d="m418.95 142.71 24.39-45.21-76.58-41.31c-24.28-12.78-44.91-3.98-53.93 15.28-2.11 4.5-3.67 8.48-4.37 11.64z"/><path fill="#e0e2e5" d="m353.21 107.1 24.39-45.21L448.25 100c22.14 12.26 25.16 33.82 14.11 51.99-2.58 4.24-5.02 7.76-7.21 10.1l-101.93-54.98Z"/><g transform="rotate(-61.66 422.434 130.357)"><ellipse cx="422.46" cy="130.35" fill="#00629a" rx="38.53" ry="24.69"/><ellipse cx="422.46" cy="130.35" fill="#0096e8" rx="23.52" ry="15.07"/><ellipse cx="422.46" cy="130.35" fill="#2e3033" rx="7.42" ry="4.75"/></g></g></svg>