<svg xmlns="http://www.w3.org/2000/svg" viewBox="0 0 585 427"><g fill="none" fill-rule="evenodd"><path fill="#E0E2E5" fill-rule="nonzero" d="M.87.81H420.3v424.38H.87z"/><path fill="#D0D4D8" fill-rule="nonzero" d="M.87.81H420.3v251.21H.87z"/><path fill="#232628" fill-rule="nonzero" d="M468.42 219.94h114.71v121.4H468.42z"/><path fill="#232628" d="m583.13 373.01-31.68-31.67h31.68z"/><path fill="#E48CDD" d="M516.14 305.01v8.6a8.42 8.42 0 0 0 16.82 0v-8.6z"/><path fill="#E552DA" d="M559.63 298.7a24.55 24.55 0 0 1-10-19.79v-11.57c-.383-13.576-11.499-24.382-25.08-24.382s-24.697 10.806-25.08 24.382v11.57a24.6 24.6 0 0 1-10 19.79v12.58h70.16z"/><path fill="#9E2896" fill-rule="nonzero" d="M489.47 298.7h70.17v12.63h-70.17z"/><path fill="#FFF" d="M544.73 242.27c7.18 0 13 5.82 13 13s-5.82 13-13 13-13-5.82-13-13 5.82-13 13-13"/><path fill="#340731" fill-rule="nonzero" d="M.87.81H420.3v52.92H.87z"/><path fill="#551151" d="M113.33 121c.006 6.528-5.282 11.824-11.81 11.83s-11.824-5.282-11.83-11.81 5.282-11.824 11.81-11.83h.08c6.499.033 11.75 5.31 11.75 11.81"/><path fill="#791D73" d="M162.87 121c.006 6.528-5.282 11.824-11.81 11.83s-11.824-5.282-11.83-11.81 5.282-11.824 11.81-11.83c6.526 0 11.819 5.284 11.83 11.81"/><path fill="#E552DA" d="M210.09 121c.006 6.528-5.282 11.824-11.81 11.83s-11.824-5.282-11.83-11.81 5.282-11.824 11.81-11.83c6.524 0 11.814 5.286 11.82 11.81z"/><path fill="#E48CDD" d="M259.59 121c0 6.522-5.288 11.81-11.81 11.81s-11.81-5.288-11.81-11.81 5.288-11.81 11.81-11.81 11.81 5.288 11.81 11.81"/><path fill="#B2B9C0" fill-rule="nonzero" d="M335.43 295.67v-47.86l13.72-3.17v-17.62h-16.17l-6.25-37.83h-99.86l-6.24 37.83h-15.95v17.72l13.73 3.17v47.76h20v-17.05h77v17.05zm-102-68.65 4.16-25.14h78.38l4.15 25.14z"/><path fill="#FFF" fill-rule="nonzero" d="M226.85 249.86v14.39h23.58v-8.96zm99.86 0v14.39h-23.57v-8.96z"/><path fill="#B2B9C0" fill-rule="nonzero" d="M262.35 255.36h29.14v8.89h-29.14z"/><path fill="#E0E2E5" fill-rule="nonzero" d="m237.6 201.88-4.16 25.14h86.68l-4.15-25.14z"/><path fill="#71767C" fill-rule="nonzero" d="M277.69 320.81v-47.85l13.73-3.15v-17.68h-16.18l-6.25-37.82H169.1l-6.23 37.82h-15.93v17.73l13.73 3.16v47.79h20v-17.08h77v17.08zm-102-68.65 4.18-25.17h78.37l4.15 25.14z"/><path fill="#FFF" fill-rule="nonzero" d="M169.12 274.97v14.39h23.57v-8.95zm99.86 0v14.39H245.4v-8.95z"/><path fill="#B2B9C0" fill-rule="nonzero" d="M204.61 280.47h29.14v8.89h-29.14z"/><path fill="#D0D4D8" fill-rule="nonzero" d="m179.86 226.99-4.15 25.14h86.67l-4.15-25.14z"/><path fill="#595E62" fill-rule="nonzero" d="M220.24 345.89v-47.81l13.72-3.17v-17.67h-16.17l-6.25-37.82h-99.9l-6.24 37.82H89.49v17.73l13.73 3.17v47.75h20v-17.08h77v17zm-102-68.65 4.16-25.14h78.37l4.15 25.14z"/><path fill="#FFF" fill-rule="nonzero" d="M111.66 300.08v14.39h23.58v-8.95zm99.86 0v14.39h-23.57v-8.95z"/><path fill="#71767C" fill-rule="nonzero" d="M147.16 305.58h29.14v8.89h-29.14z"/><path fill="#C1C7CC" fill-rule="nonzero" d="m122.41 252.1-4.16 25.14h86.68l-4.15-25.14z"/><path fill="#C535BC" d="M333.04 121a25.32 25.32 0 1 1-25.32-25.31c13.98 0 25.314 11.33 25.32 25.31"/><path fill="#FFF" fill-rule="nonzero" d="M305.16 104h4.79v21.23h-4.79z"/><path fill="#FFF" d="M304.13 134.13a3.43 3.43 0 1 1 3.43 3.42 3.42 3.42 0 0 1-3.42-3.42z"/></g></svg>