<svg xmlns="http://www.w3.org/2000/svg" viewBox="0 0 1920 1080"><path fill="#232628" d="M780.056 805.156a121.1 121.1 0 0 1 21.612-70.54v-34.81H864.1c46.415 0 84.045 47.157 84.045 105.35s-37.63 105.35-84.045 105.35h-62.432v-34.81a121.04 121.04 0 0 1-21.612-70.54"/><ellipse cx="803.416" cy="805.156" fill="#383b3e" rx="84.044" ry="105.35"/><ellipse cx="800.16" cy="808.696" fill="#595e62" rx="62.039" ry="77.773"/><path fill="#656a6f" d="M800.16 730.924a50 50 0 0 1 8.894.808c-30.047 5.42-53.145 37.805-53.145 76.964s23.098 71.545 53.189 76.964a52 52 0 0 1-8.894.787c-34.243 0-62.04-34.81-62.04-77.75s27.753-77.773 61.996-77.773"/><path fill="#232628" d="M1526.196 805.156a121.1 121.1 0 0 1 21.612-70.54v-34.81h62.432c46.414 0 84.044 47.157 84.044 105.35s-37.63 105.35-84.044 105.35h-62.432v-34.81a121.04 121.04 0 0 1-21.612-70.54"/><ellipse cx="1549.556" cy="805.156" fill="#383b3e" rx="84.044" ry="105.35"/><ellipse cx="1546.3" cy="808.696" fill="#595e62" rx="62.039" ry="77.773"/><path fill="#656a6f" d="M1546.3 730.924a50 50 0 0 1 8.894.808c-30.047 5.42-53.145 37.805-53.145 76.964s23.098 71.545 53.188 76.964c-2.936.517-5.912.78-8.893.787-34.243 0-62.04-34.81-62.04-77.75s27.753-77.773 61.996-77.773"/><path fill="#101112" d="M147.056 709.538h1305.503v117.275H147.056z"/><path fill="#232628" d="M425.841 817.728a121.1 121.1 0 0 1 21.634-70.54v-34.81h62.432c46.415 0 84.045 47.157 84.045 105.35s-37.63 105.35-84.045 105.35h-62.432v-34.81a121.06 121.06 0 0 1-21.634-70.54"/><ellipse cx="449.223" cy="817.728" fill="#383b3e" rx="84.044" ry="105.35"/><ellipse cx="445.967" cy="821.268" fill="#595e62" rx="62.039" ry="77.773"/><path fill="#656a6f" d="M445.967 743.496c2.983.004 5.96.274 8.894.808-30.047 5.42-53.145 37.805-53.145 76.964s23.098 71.545 53.145 76.965a52 52 0 0 1-8.894.786c-34.264 0-62.039-34.81-62.039-77.75s27.775-77.773 62.04-77.773z"/><path fill="#232628" d="M1175.604 817.728a121.1 121.1 0 0 1 21.634-70.54v-34.81h62.432c46.415 0 84.044 47.157 84.044 105.35s-37.63 105.35-84.044 105.35h-62.432v-34.81a121.06 121.06 0 0 1-21.634-70.54"/><ellipse cx="1198.986" cy="817.728" fill="#383b3e" rx="84.044" ry="105.35"/><ellipse cx="1195.73" cy="821.268" fill="#595e62" rx="62.039" ry="77.773"/><path fill="#656a6f" d="M1195.73 743.496a50 50 0 0 1 8.894.808c-30.047 5.42-53.145 37.805-53.145 76.964s23.098 71.545 53.145 76.965a52 52 0 0 1-8.894.786c-34.264 0-62.039-34.81-62.039-77.75s27.775-77.773 62.04-77.773z"/><path fill="#7d8389" d="M930.192 219.575h453.135v489.963H930.192z"/><path fill="#d0d4d8" d="M1158.666 279.781h367.042l129.932 277.636 163.96 50.76v101.361h-655.037z"/><path fill="#a4abb3" d="M147.056 219.575h783.137v489.963H147.056z"/><path fill="#c1c7cc" d="M974.342 279.781h184.324l129.932 277.636 163.96 50.76v101.361H974.343z"/><path fill="#71767c" d="M147.056 826.813h191.492c0-64.77 52.506-117.275 117.275-117.275H147.056zm308.767-117.275c64.77 0 117.276 52.506 117.276 117.275h357.093V709.538z"/><path fill="#7d8389" d="M974.342 826.813h120.138c0-64.77 52.506-117.275 117.275-117.275H974.342zm237.413-117.275c64.77 0 117.275 52.506 117.275 117.275h123.529V709.538z"/><path fill="#56b0ff" d="M1069.72 219.575c-14.793 0-27.469 10.581-30.112 25.136l-6.37 35.07h72.964l-6.37-35.07c-2.644-14.555-15.32-25.136-30.112-25.136m365.079 0c-14.793 0-27.469 10.581-30.112 25.136l-6.37 35.07h72.964l-6.37-35.07c-2.644-14.555-15.32-25.136-30.112-25.136"/><path fill="#4e5256" d="M1197.041 361.78h367.042l91.557 195.637h-367.042z"/><path fill="#979ea4" d="M1452.559 709.538h367.042v117.275h-367.042z"/><path fill="#2e3033" d="M1736.676 622.478h-192.76v11.167h192.76zm0 43.159h-192.76v11.166h192.76zm0 43.158h-192.76v11.167h192.76zm-37.739 48.214h-117.26v11.167h117.26z"/><path fill="#b8d6ff" d="M147.056 709.538h93.796v58.638h-93.796zm1271.558 0h93.796v58.638h-93.796zm345.259 0h55.728v58.638h-55.728z"/><path fill="#56b0ff" d="M148.601 361.781h781.591v195.636H148.601z"/><path fill="#7ebdff" d="M1290.143 557.417H975.888V361.78h66.186z"/><path fill="#383b3e" d="m1288.598 557.417-207.623-26.146c-23.112-2.91-40.447-22.565-40.447-45.86v-123.63h156.513z"/><ellipse cx="454.861" cy="459.599" fill="#fff" rx="165.207" ry="189.263"/><path fill="#0088d4" d="M493.31 592.669H412v-86.496h-75.502v-93.149H412V326.53h81.31v86.495h75.501v93.15H493.31z"/></svg>