<svg xmlns="http://www.w3.org/2000/svg" viewBox="0 0 1600 900"><path fill="none" d="M989.768 285.7v-6.07h-.356v-41.22C985.623 248.227 977 261.616 977 261.616l2.42 13.345 8.427 9.566zM957.4 601.988h10.85c-1.894-8.3-3.919-16.961-6.015-25.592-1.856 8.379-3.535 16.913-4.835 25.592"/><path fill="#0096e8" d="M478.961 227.885h196.928v50.045H478.961zm603.558 1.7v50.045h196.928v-50.045z"/><path fill="#595e62" d="m982.37 235.652.006.005c4.289 4.693-3.32 16.757-7.1 22.215l1.724 3.744s8.627-13.389 12.416-23.206a31 31 0 0 0 1.465-4.724c-.5.14-.977.261-1.465.391q-3.668.974-7.046 1.575m-13.012 1.086a11 11 0 0 1 1.43 1.8 6.9 6.9 0 0 1 .928 3.27 23.5 23.5 0 0 1 3.763-5.253c-2.125.169-4.157.22-6.121.183m21.603-3.45c.059-.324.109-.638.142-.937v-.066a25 25 0 0 1-.142 1.003"/><path fill="#b2b9c0" d="M1014.162 530.867c.255 14.54-.278 31.487-.925 54.686h55.974v-54.686zm-74.831-305.856a32.4 32.4 0 0 0-6.8-1.863 14.4 14.4 0 0 0-3.543-.113l-.114.07-24.583 15.151c8.4-.434 16.571 1.085 22.222 3.939a13.6 13.6 0 0 0 4.306 1.2c6.169.811 14.847-.941 20.931-4.283l9.371-3.128h-.006c-8.06-4.473-15.515-8.611-21.784-10.973"/><g fill="#00629a"><path d="m1005.565 469.238.02 37.388-.017-37.375z"/><path d="M1048.054 777.856c-.406-122.565-29-160.393-34.305-175.868a12.6 12.6 0 0 1-.842-4.3c.111-4.233.222-8.271.33-12.139.647-23.2 1.18-40.146.925-54.686-.151-8.662-.583-16.473-1.436-24.24h-30.783l-3.337-35.945-.162-1.745H935.1c.519 9.532 2.195 26.8 7.6 39.981 5.933 14.464 13.066 40.823 19.538 67.479 2.1 8.631 4.121 17.292 6.015 25.592 7.121 31.218 12.366 57.306 12.366 57.306l9.154 46.2 11.582 58.462 25.17 2.259-.069 5.275z"/></g><path fill="#007bc0" d="M385.855 227.885h93.107v50.045h-93.107zm605.497 1.7c.882-16.537-10.046-31.329-25.907-34.043-17.161-2.936-33.587 9.379-36.688 27.506l.117.057.114-.07a14.4 14.4 0 0 1 3.543.113 32.4 32.4 0 0 1 6.8 1.863c6.267 2.362 13.724 6.5 21.784 10.974a57 57 0 0 0 8.243.753c1.964.037 4-.014 6.121-.183l.143-.014q3.125-.256 6.512-.849l.236-.04q3.376-.6 7.042-1.575c.488-.13.97-.251 1.465-.391a31 31 0 0 1-1.465 4.724v41.22h93.107v-50.045zm-.249 2.766q-.051.45-.142.937.078-.503.147-1c-.003.018-.003.041-.008.063zm-1.335 54.456-11.387 37.271h-46.16l.033-4.452.168-22.241.052-7-4.3 2.5-.03 3.242-.28 29.635-.784 83.638-8.388 57.224-.187 1.278-.152 1.037h60.091l-.215-2.315-.535-5.758c-3.881.509-8.878.363-12.435-2.626-6.654-5.585-6.415-9.924-6.415-9.924l16.511-12.644-2.284-24.6a561 561 0 0 1 16.7-111.878c1.931-7.407 3.223-11.494 3.232-11.521l8.746 5.087-11.7-6.848zm-66.704 9.048 4.937-2.87zl-3.033 1.763h-.001.001z"/><g fill="#eff1f2"><path d="m917.824 753.724 3.027.272L913.426 648l-1.2-46.013H675.89V277.93H478.961v520.986h428.527a30 30 0 0 0 2.037-1.512l-.061-.026 1.485-1.246.05.021a51 51 0 0 0 3.08-2.981l1.041-1.123c1-1.112 1.954-2.26 2.819-3.408l-.115-.043 1.232-1.571.028.01a29 29 0 0 0 1.633-2.682l.684-1.4 1.268-3.014-.515-7.341zm-267.984 16.74H505.011V306.383H649.84zm349.113-6.721 2.4.215-11.585-58.458-9.154-46.2s-5.245-26.088-12.366-57.306H957.4c-2.924 19.44-3.985 39.617-.985 60.465 9.9 68.8 8.614 43.645 10.645 105.423l1.955.576 4.963 22.989c.438 1.154.606 4.12.557 7.475h24.341l.194-.256-.115-.043 1.232-1.572.027.01a29 29 0 0 0 1.634-2.681l.683-1.4 1.951-4.636-.345-2zm280.494-485.813v1.7h-196.573v322.358h-69.125c5.3 15.475 33.9 53.3 34.305 175.868l2.087.615 4.414 20.445H1279.8V277.93zm-25.694 492.534h-144.829V306.383h144.829zM989.768 286.807l.275-.9.009-.03-.284-.173-1.925-1.177-.055.06c-.366.4-2.675 2.918-5.525 6.067-3.358 3.71-7.455 8.283-9.992 11.277l-.6.711s-.343-.26-.921-.711c-2.8-2.189-11.276-9-14.529-13.831l-9.174 11.3-2.637 3.246s-2.727-8.18-2.727-13.631c0-.1.02-.2.026-.3a10.4 10.4 0 0 1 2.488-5.6l-11.723 7.282-.052 7-.168 22.241-.033 4.452h46.16z"/><path d="M954.068 286.514a17 17 0 0 0 2.151 1.583z"/></g><g fill="#e0e2e5"><path d="M505.011 770.464H649.84V306.383H505.011zm603.913-464.081v464.081h144.829V306.383zM979.407 274.95s-.3 1.85-4.845 5.4a49 49 0 0 1-3.016 2.171c-.594.4-1.208.754-1.827 1.094-6.416 3.529-13.716 4.158-13.5 4.486 3.253 4.832 11.725 11.642 14.529 13.831.578.451.921.711.921.711.186-.224.389-.464.6-.711 2.537-2.994 6.634-7.567 9.992-11.277 2.85-3.149 5.159-5.669 5.525-6.067l.055-.06-8.427-9.566z"/><path d="m954.068 286.514-.051-.045a14.2 14.2 0 0 1-3.88-5.028 9 9 0 0 1-.385-1.092 8 8 0 0 1-.28-1.888c0-.112-.02-.219-.019-.332a28 28 0 0 0-5.253 4.971 10.4 10.4 0 0 0-2.488 5.6c-.006.1-.026.2-.026.3 0 5.451 2.727 13.631 2.727 13.631l2.637-3.246 9.175-11.295a17 17 0 0 1-2.157-1.576"/></g><path fill="#001d33" d="m842.886 316.53-57.461-20.652-1.531 3.009-7.609 14.959-1.671 3.286L838.5 350.6c13.126-.959 39.638-3.506 62.634-9.972l-.019-6.4a40.4 40.4 0 0 1-.036-6.185c.91-12.976 7.6-23.578 18.955-30.425l3.033-1.763a50.6 50.6 0 0 0-12.592 2.881zm162.628 33.529.034 75.115 13.224-14.38c.27-14.093.545-28.3.8-41.559-4.752-6.235-9.772-13.004-14.058-19.176m7.213 112.323s-3.412-.186-7.162-.436v7.3l.017 37.375h11.484c.042-5.569.359-23.94.792-47.5l-.844-1.249z"/><path fill="#7d8389" d="M949.894 274.559a754 754 0 0 0-.422 3.9 8 8 0 0 0 .28 1.888h2.048a52 52 0 0 0 8.054-6.68 32 32 0 0 1-9.96.892m-175.28 18.284-.162-.033-8.752-7.11q-.669 2.533-1.422 5.025l-8.13-1.666a121 121 0 0 0 2.567-8.182l-20.721-3.515c-1.553 4.4-.5 12.489 3.477 14.93l9.56 9.479q1.818-4.043 3.4-8.071l7.607 3.885q-1.543 4.389-3.3 8.661l6.36 2.246c2.576.911 4.764 1.658 6.529 2.247 1.105.787 2.705 1.848 4.66 3.1l7.609-14.959-3.4-1.173zM983.6 459.424v-.016l-5.651-25.786-2.586 2.047-16.511 12.644s-.239 4.339 6.415 9.924c3.557 2.989 8.554 3.135 12.435 2.626a30.4 30.4 0 0 0 5.852-1.363l.062-.022z"/><path fill="#003253" d="M920.031 297.618c-11.356 6.847-18.045 17.449-18.955 30.425a40.4 40.4 0 0 0 .036 6.185l.019 6.4.219 71.975-.05 1.397-.951 28.073-2.105 62.227h14.9v.011l.015.035 5.19-35.406.152-1.037.187-1.278 8.392-57.225.788-83.638.28-29.635.03-3.242-5.114 2.973zm160.753 88.563-39.945 4.532-4.021.457-18.046 19.624-13.224 14.38-.007.008-6.126 6.662 3.69 5.459 2.445 3.615.005.008 11.462 16.954.844 1.249.997 1.474 33.741-40.18 28.531-33.975.284-.338z"/><path fill="#8a9097" d="M939.423 272.683a44 44 0 0 0 10.471 1.876 32 32 0 0 0 9.955-.89 52 52 0 0 1-8.054 6.68h-2.043a9 9 0 0 0 .385 1.092 14.2 14.2 0 0 0 3.88 5.028l.051.045 2.151 1.583c-.22-.328 7.08-.957 13.5-4.486.619-.34 1.233-.7 1.827-1.094a47 47 0 0 0 3.016-2.171c4.542-3.549 4.845-5.4 4.845-5.4l.009.011L977 261.616l-1.723-3.744c3.783-5.458 11.392-17.522 7.1-22.215l-.006-.005-.236.04q-3.386.592-6.512.849l-.143.014a23.5 23.5 0 0 0-3.763 5.253 6.9 6.9 0 0 0-.928-3.27 11 11 0 0 0-1.43-1.8 57 57 0 0 1-8.243-.753h.006l-9.371 3.128c-6.084 3.342-14.762 5.094-20.931 4.283a94 94 0 0 0 2.007 9.491c3.604 13.382 6.596 19.796 6.596 19.796"/><path fill="#002742" d="M1001.746 292.755 993 287.668c-.009.027-1.3 4.114-3.232 11.521a561 561 0 0 0-16.7 111.878l2.284 24.6 2.586-2.046 7.74 2.2 4.087 1.162 11.347 3.228q.986-1.44 1.99-2.911l-3.69-5.459 6.126-6.662.007-.008-.034-75.115-.013-.019a136 136 0 0 1-9.1-14.53 20 20 0 0 1-1.013-2.452c-3.128-9.125-3.19-26.806 9.769-32.283a23.6 23.6 0 0 1 5.825-.988 17.5 17.5 0 0 1 3.118.156zm3.822 176.496v-7.3c-4.608-.307-10.847-.791-15.793-1.428a53 53 0 0 1-5.889-1.021c-.094-.025-.194-.048-.283-.073l.012.054-.062.022a30.4 30.4 0 0 1-5.852 1.363l.535 5.758.215 2.315.162 1.745 3.337 35.945h23.642l-.02-37.388z"/><path fill="#c1c7cc" d="M1019.575 369.235c-.258 13.255-.533 27.466-.8 41.559l18.046-19.624s-8.129-9.982-17.246-21.935"/><path fill="#c1c7cc" d="M1082.519 279.63h-92.751v6.07l.284.173-.009.03 11.7 6.848 12.356 7.188c5.794.834 10.727 4.686 15.595 11.815 6.486 9.5 51.717 74.352 51.717 74.352l-.284.338-28.527 33.979-33.741 40.18-1-1.474c-.433 23.558-.75 41.929-.792 47.5h-4.343c.853 7.767 1.285 15.578 1.436 24.24h55.049v54.686h-55.974c-.108 3.868-.219 7.906-.33 12.139a12.6 12.6 0 0 0 .842 4.3h69.125V279.63zm-696.664-1.7h93.107v520.986h-93.107z"/><path fill="#8a9097" d="m977.941 433.623 5.667 25.855a1.3 1.3 0 0 1 .271.019 53 53 0 0 0 5.889 1.021c4.946.637 11.185 1.121 15.793 1.428 3.75.25 7.162.436 7.162.436l4.29-4.5-11.462-16.954v-.008l-2.445-3.615q-1 1.467-1.99 2.911l-11.347-3.228-4.087-1.162-7.74-2.2zm76.614 365.293-4.414-20.445-2.087-.615-21.6-6.364.069-5.275-25.17-2.259-2.4-.215 5.182 22.59 1.089.236 20.973 4.55 1.2.26-1.221 1.541-.2.249-21.374-4.8-.122-.028-1.951 4.636 14.385 2.962 5.909 1.217-1.4 1.764-.01.013-.056-.013-2.108-.474-17.475-3.927.069-.141a29 29 0 0 1-1.634 2.681l5.1 1.861 12.5 4.559-1.332 1.683-16.73-6.242-.687-.256-.194.256a52 52 0 0 1-2.626 3.152l.178-.192 17.213 6.876-1.324 1.674-17.277-7.051.173-.187a51 51 0 0 1-3.084 2.984l17.65 7.46-1.135 1.432-17.988-7.641a26 26 0 0 1-3.306 2.313c-4.827 2.75-10.414 3.913-14.909 7.247a15 15 0 0 0-4.2 4.931c2.345-2.032 10.8 1.156 11.173 8.16a61.9 61.9 0 0 0 23.478 3c7.122-.592 16.419-9.238 25.121-9.187 13.128.078 24.634-2.975 27.413-9.771.381-5.076.335-10.921-.324-12.657zM974.3 804.1c.128-1.7.209-3.489.234-5.182.049-3.355-.119-6.321-.557-7.475l-4.963-22.989-1.955-.576-21.735-6.4.068-5.275-24.54-2.2-3.027-.272 4.33 18.875.853 3.715 1.088.236 18.115 3.93 2.858.62 1.2.26-1.22 1.541-.2.249-11.882-2.67-9.493-2.133-.122-.028-.682 1.622-1.268 3.014 14.384 2.962 5.909 1.217-1.407 1.777-2.164-.486-17.475-3.932.068-.141a29 29 0 0 1-1.633 2.682l17.6 6.42-1.332 1.682-17.417-6.5a50 50 0 0 1-2.819 3.408l.177-.192 17.214 6.877-.145.182-1.18 1.49-3.652-1.49-13.625-5.56.17-.184a51 51 0 0 1-3.08 2.981l6.538 2.763 11.111 4.7-1.134 1.432-14.429-6.129-3.56-1.512q-1.05.845-2.037 1.512a20 20 0 0 1-1.269.8c-4.826 2.75-10.414 3.913-14.909 7.247a15 15 0 0 0-4.2 4.931c2.346-2.032 10.8 1.156 11.174 8.16a61.9 61.9 0 0 0 23.478 3c7.122-.592 16.419-9.238 25.12-9.187 13.136.075 24.642-2.978 27.422-9.772"/><path fill="#43464a" d="M751.029 301.774c-11.543 25.666-29.864 52.119-44.667 89.981-17.164 43.9-19.527 98.8 21.047 154.649l-1.092-24.534c-16.662-31.5-32.228-59.319-13.63-122.152 8.983-30.348 32.039-59.285 46.049-93.469q1.752-4.274 3.3-8.661l-7.606-3.888q-1.575 4.038-3.401 8.074M1358.606.029a2042.8 2042.8 0 0 1-620.53 142.1 11.9 11.9 0 0 0-13.26-5.491 15.074 15.074 0 0 0-18.75 7.489C484.109 156.277 249.458 134.358 0 74.876V86.2c250.558 61.65 484.712 83.416 705.8 70.765a15.056 15.056 0 0 0 21.818 6.653c34.59 53.365 39.432 86.758 31.093 117.262a121 121 0 0 1-2.567 8.182l8.13 1.666q.753-2.491 1.422-5.025c9.225-34.943 6.026-75.89-29.931-128.7a12 12 0 0 0 1.84-2.1C966.5 138.294 1181.4 84.665 1386.073.154zm-303.158 814.048q-.01.02-.02.04c-2.779 6.8-14.285 9.849-27.413 9.771-8.7-.051-18 8.595-25.121 9.187a61.9 61.9 0 0 1-23.478-3c-.368-7-8.828-10.192-11.173-8.16-2.344 2.034-2.343 8.975.834 12.5 1.156 1.282 5.189 2.738 10.67 3.863l3.519.644q.664.106 1.346.206l3.259.418q.917.102 1.855.19l3.265.25q.652.04 1.308.07l3.632.095h1.305l3.624-.107q.864-.043 1.722-.108l.08-.007 3.683-.494a26 26 0 0 0 1.682-.391l3.205-1.089a26 26 0 0 0 1.506-.7l2.531-1.466c4.35-2.826 7.153-6.016 13.373-6.017a35 35 0 0 1 5.4.418l3.308.425a15 15 0 0 0 2.039.012l3.386-.508c.65-.139 1.317-.3 1.984-.483l3.342-1.127a9.4 9.4 0 0 0 3.709-2.4c1.672-2.143 4.304-10.442 1.638-12.032m-82.765 2.007c1.671-2.137 4.3-10.436 1.636-12.026 0 .014-.014.026-.02.04-2.779 6.8-14.285 9.849-27.413 9.771-8.7-.051-18 8.6-25.12 9.187a61.9 61.9 0 0 1-23.478-3c-.369-7-8.828-10.192-11.174-8.16-2.344 2.034-2.343 8.975.835 12.5 1.155 1.282 5.189 2.738 10.669 3.863l3.519.644q.664.107 1.347.206l3.258.418q.918.1 1.855.19l3.266.25q.651.039 1.307.07l3.633.095h1.3l3.623-.106a75 75 0 0 0 1.723-.109l.08-.007 3.682-.494a26 26 0 0 0 1.682-.391l3.206-1.089q.789-.335 1.506-.7l2.53-1.467c4.351-2.826 7.154-6.016 13.373-6.017a35 35 0 0 1 5.4.418l3.307.425a15.5 15.5 0 0 0 2.039.013l3.386-.509c.65-.139 1.317-.3 1.984-.483l3.342-1.127a9.4 9.4 0 0 0 3.717-2.405"/><path fill="#004975" d="M957.4 601.988c1.306-8.679 2.981-17.213 4.835-25.592-6.472-26.656-13.6-53.015-19.538-67.479-5.405-13.178-7.081-30.449-7.6-39.981h-16.744l-5.19 35.406-.015-.035v-.011h-3.468l2.547 97.692 1.2 46.013 7.425 106 24.54 2.2-.068 5.275 21.735 6.4c-2.031-61.778-.745-36.62-10.645-105.423-3.001-20.848-1.94-41.025.986-60.465m72.3-290.23c-4.868-7.129-9.8-10.981-15.595-11.815a17.5 17.5 0 0 0-3.118-.156 23.6 23.6 0 0 0-5.825.988c-12.959 5.477-12.9 23.158-9.769 32.283a20 20 0 0 0 1.013 2.452 136 136 0 0 0 9.1 14.53l.013.019c4.283 6.172 9.306 12.941 14.061 19.176a989 989 0 0 0 17.243 21.935l4.021-.457 39.945-4.532.63-.071s-45.236-64.855-51.719-74.352m-24.476 474.81-1.089-.236v.001l.345 2.004.122.028 21.374 4.803.197-.249 1.221-1.541-1.197-.26zm-2.695 6.405-.683 1.401-.069.141 17.475 3.927 2.108.474.056.013.01-.013 1.397-1.764-5.909-1.217zm-2.317 4.082-.027-.01-1.232 1.572.115.043.687.256 16.73 6.242 1.332-1.683-12.502-4.559zm-3.964 5.013q-.512.569-1.037 1.12l-.173.187 17.277 7.051 1.324-1.674-17.213-6.876zm-4.17 4.083-1.485 1.246.061.026 17.988 7.641 1.135-1.432-17.65-7.46zm-49.868-25.672-18.115-3.93-1.088-.236v.001l-.853-3.715.515 7.341.682-1.622.122.028 9.493 2.133 11.882 2.67.197-.249 1.22-1.541-1.197-.26zm-20.809 2.475-.684 1.401-.068.141 17.474 3.928 2.164.486 1.407-1.777-5.909-1.217zm-2.345 4.073-1.232 1.571.115.043 17.417 6.498 1.332-1.682-17.604-6.42zm-3.936 5.022-1.041 1.123-.17.184 13.625 5.56 3.652 1.49 1.18-1.49.145-.182-17.214-6.877zm-4.121 4.104-.05-.021-1.485 1.246.061.026 3.56 1.512 14.429 6.129 1.134-1.432-11.111-4.697z"/></svg>