<svg xmlns="http://www.w3.org/2000/svg" data-name="Ebene 2" viewBox="0 0 912.689 760.03"><path fill="none" d="m246.725 276.438 2.338-1.137 1.976-.968z"/><path fill="#55bcbd" d="m286.962 133.013.12.081-.048-.081-.089-.024z"/><path fill="#408777" d="m195.3 322.937 2.564 2.177 1.911-.395-4.748-4.862z"/><path fill="none" d="m246.725 276.438 2.338-1.137 1.976-.968z"/><path fill="#55bcbd" d="m286.962 133.013.12.081-.048-.081-.089-.024z"/><path fill="#dee0e3" d="m75.046 239.136-.952 3.152-7.303 4.951-3.572-.411-.548.83h-1.927l-.137-.96-.419 1.79-1.789.411-2.064-2.62-4.95 2.62-.541 2.468-2.064.137v-4.95l4.805-4.538.274-5.909-2.201 5.354-3.853 3.305-2.749 4.409-.412-1.652.54-1.362-1.08-3.87 2.95-18.049 4.128-2.604-1.653-1.652-3.24-7.957-.411-7.15-1.773-.831-1.112-1.927 1.112-.677-2.628-2.064-1.371-5.241-2.072-2.764-1.37-2.886v-3.152l-4.402-2.758 1.508 3.024.831 6.336-6.74-1.927-3.168-3.845-.273-2.064-3.435-3.046-.419-1.903 3.297.259 1.258 2.756 2.74 1.378 1.097-1.249-1.097-.54-2.619-2.475 2.756-1.653 2.056 2.064 2.209-.823-.145-3.031-3.579-5.231-5.635-1.113-1.508-2.323-3.176-.564-.822-2.322-.411 2.322-3.305.443-.274-1.524 2.758-3.176-3.442.289-2.886-2.353v1.66l1.797 3.16-8.061-7.215-1.435-4.789-1.789-3.845-.081.096-.266-1.217.572-3.434 3.531-4.33 1.443.935 1.976-4.458v-6.296l.782-3.402 1.693.773 1.974-1.047 2.104-6.022-.918-3.685.653-4.45-.653-4.845 3.797.516.387-6.538.129-4.723-2.225-8.917 3.805.257 3.144 1.049 4.853-.105 2.894-6.836 1.694-7.732 3.926-9.568-4.33-2.104-.25-2.753 5.111-8.259 2.492-7.203-1.839-2.353.904-4.329 6.046-9.449 4.063-1.427 4.329-5.386 1.83-4.317 5.901-1.846 5.095-3.664 3.023 2.503 3.539 1.565-.91-3.015V8.398l3.539-3.293-.395-2.745-.831-.867L75.936.001l4.2 1.839L82.884.26l4.2.128 2.354 4.858 3.539 2.616 1.048 5.64 3.152-.129 3.265 3.676v5.498l3.023 6.159.404 5.506-1.064 7.731v3.672l-.79 2.225-3.395 1.58-.395 3.411-1.709.516-.928 2.494 1.588 3.548-1.451 2.096-2.362-.927-2.483 2.621-1.443 3.143 1.573 2.363-1.685 2.725v3.03l3.071 1.314 1.314 2.37 2.547 2.362-.532 4.321 1.71 4.2 4.329-3.152 8.255-1.71.773 2.894-1.176 2.225 2.241 1.838 4.715-1.185.912 3.152-1.177 3.136 2.104 2.893 4.707 1.04-.918 1.717 1.451 2.338.644-1.435 5.119-.645 3.675 2.346v2.756l-1.571 3.161.12 2.603-4.192 5.917-3.402 3.394.662 2.499 2.74-1.322 5.765.661.927 1.048 2.74-2.484 2.499 3.265-1.055 4.853 1.185 3.403 4.192 2.096 2.491-2.362h4.063l8.263-3.539 3.539 1.177-.395 3.426-5.111 4.459-5.111 1.031-.13 3.426-2.096 2.871 1.693 2.362-3.659 3.015h-1.976l-2.072 4.652-.146.339-5.344.274-4.079 1.451-.064 2.04 1.984 2.692-1.379 1.966-4.611-.66-2.29 2.119-.129 4.53-1.177 1.903-4.006-.064-4.208 3.417-6.812-2.773-2.886 3.942.918 6.296-2.627 2.492v5.369l1.322 2.999-3.418 2.499-4.716 1.967.387 2.886 2.765.798 3.007 5.232 2.627 2.483 1.04 2.765 4.725 3.265 4.329 9.448 2.87 1.04 2.103 4.716.661 3.942 3.798 1.822.402 3.684-3.411 1.839-1.451 2.612 2.104 9.311-.532 2.758-3.806 2.225 2.62 6.289.137 3.265 4.716 5.901 5.515 4.322 4.974 4.869 2.354 7.722-1.306 3.024.798 3.531-.395 3.934 2.096 2.217.774 5.385 1.581 3.273-.267 5.249 2.363 4.071-.258 6.023-2.105 1.298-4.32 11.544-3.934 2.894-.524 4.571-1.701 2.894-.959 2.716.08-.605-1.668 3.709-.411 5.368-1.773-5.642-.137-5.225-1.242-2.209-.145-1.789 1.387.556 1.362-1.208 2.201-3.637v-2.95l-1.105-1.032.604-4.804 1.194-.54.903-2.161-1.669-4.95 2.492-1.935-2.685-2.925-1.782-2.605-.137-4.692 1.226-1.789-1.089-3.297-1.789-1.371-1.233-11.141-2.491-2.201-.823-3.854-2.612-4.409-.693 5.795-1.096.814.137-3.168-1.652-3.313.281-7.965-2.62-3.184-.266-3.701 1.363-1.378-4.53-2.604-.145-6.337-1.234-.137-1.524-13.495-2.192-1.491-.685-3.45 1.37-.556v-2.185l-2.201-4.273.96-1.644.145-2.064-1.234 2.185-2.482.975h-3.16l-.968-4.402-1.509-1.927-3.587-7.022-.685-1.934-1.79-.121v-2.08l-3.297-1.919 2.056 2.346-.678 1.233-.274 2.064 2.064 1.524-.419 3.708-1.646 1.789.686 2.201-4.692 3.862-3.015-.556-2.064-2.627h-1.242l1.379 2.886-.283 1.249 2.895.822-3.991 2.346h-2.612l-1.79-1.234zm-51.313-45.572 1.048 2.628 3.676 2.088.919-3.152-2.902-2.878zm0 0 1.048 2.628 3.676 2.088.919-3.152-2.902-2.878z"/><g fill="#bfc5ca"><path d="m154.04 424.538-.852.524 1.377 2.886 1.306-.508-.515-2.25zm-12.285-17.301.662 3.749.524-1.975-.249-1.572zm-12.93-9.206-.79 2.362.79 1.516-.192 3.74 2.361-3.079v-4.401s-1.838-.203-2.168-.137zm66.475-75.094 2.563 2.177 1.911-.395-4.747-4.862zm-39.396 43.008 2.361.719.937-1.952z"/><path d="m253.401 256.501 1.194-4.064-.8-2.466-4.578-3.023 1.176-1.967-3.144-1.306-3.41-.266-3.796-4.192-3.282-2.354.913-2.765.265-5.12-1.958-4.304 1.304-2.233.654-3.152-1.83-3.934-4.457-3.266-7.87-5.691-2.618-5.24-8.151-2.096-6.03 1.297-3.944 8.152-7.601.79-3.153-3.951-3.677.266-6.037-3.16-5.779 2.619-.534 3.685-4.449 1.048-4.998 2.628-.314-9.521v-6.296l-1.564-4.457 2.096-2.766.129-2.862-2.089-3.555 2.089-4.192-.129-3.136-6.684-.137-3.135 2.621-2.887-1.057-2.62-4.587 2.887-2.096-.927-6.296-3.531-4.2-4.862 1.201-2.072-4.273-.145.339-5.344.274-4.08 1.451-.065 2.04 1.984 2.693-1.379 1.966-4.609-.66-2.291 2.119-.129 4.531-1.179 1.902-4.005-.063-4.209 3.417-6.811-2.773-2.885 3.942.917 6.296-2.626 2.491v5.37l1.322 2.999-3.42 2.499-4.716 1.967.387 2.886 2.766.798 3.007 5.231 2.628 2.483 1.039 2.765 4.725 3.265 4.329 9.449 2.87 1.04 2.103 4.716.662 3.941 3.797 1.823.403 3.683-3.41 1.839-1.452 2.612 2.106 9.311-.532 2.757-3.807 2.225 2.62 6.289.138 3.265 4.716 5.9 5.515 4.322 4.973 4.869 2.355 7.722-1.306 3.024.797 3.531-.395 3.934 2.096 2.217.774 5.385 1.581 3.273-.267 5.248 2.363 4.071-.257 6.022-2.106 1.299-4.321 11.544-3.934 2.894-.525 4.571-1.7 2.894-.959 2.716-.75 5.998 2.064.274-2.337 3.435.829 1.516-2.619 3.7 2.063.419-1.371 2.757-1.927-.404.139 7.014-2.339 1.104.54 5.217-.821 1.653.959 6.199 1.661 2.466 2.32.282-.12-3.434 3.435-1.653-.131 1.783 2.058 1.507v2.757l3.304.564 2.064 6.587h2.618l4.121 5.498v2.483l3.573.555 1.241 3.024 1.927.274-.13 1.934-1.524 1.783.267 1.467 7.827 5.635 1.499 2.459 1.186-4.177 2.363-2.998 3.402 2.998 4.989 1.452.919 2.096h3.789l2.362 2.362-.532 5.24-2.08 2.627-.129 2.62 4.845 1.178 4.064-3.539 3.264-.396 2.498 2.097 2.493-1.839v-3.288l.862-.903-.412-1.75-3.322-2.128-1.974-2.604-2.362-5.248-3.377-1.282-3.684-.411-1.501 1.064-2.168-1.677-5.184-5.126-2.419-2.008-.354-3.225-1.08-.758-.629 2.701-5.271-1.999.475-2.62 2.877-1.911.896 1.242.621-1.314.675-1.025-1.426-7.464-1.716-.975-.073-3.007-2.056-3.024-.902-2.821-.267 1.515.065 1.983-1.992.065-1.846-4.039-1.927-.677.346-3.926-1.652-2.193-.403-3.764-1.579-1.524-2.742-.532-.893-.621-1.782 1.983-.485 1.499-1.992.573-1.096-1.378 1.79-3.499-3.579-5.216v-2.395l-.888-3.789-.265-1.644 1.709-2.177-.556-.895-1.846-.338 1.717-3.644v-3.829l4.328-5.571.953-13.809 2.612-3.846.554-3.716 2.614-3.305.548-5.088-1.378-1.104.685-2.2-.137-3.991 1.926-3.152-.54-3.306-3.038-1.515.829-2.483v-.822l1.105.548 2.039-.016 1.169-1.459 1.306 1.112 2.184-.225 2.815-1.282 1.314.951 1.168-.339.613.484 3.152.604.951 2.41-1.015 1.098-.275 4.804 1.644 2.869-1.169 1.242-.959 2.879 2.742-.267 2.54.888 3.651-.888 3.893.944 1.573 1.112.354-.685-.418-.814 2.072-1.741 2.602.982 4.789 4.653 2.266 1.177-.065 1.652 1.436.056 3.781 3.161.548.886.676-.281.21-2.516 1.597.161.499-2.781.386-6.683-1.7-3.547-3.137-1.709-1.579-7.199.404-7.087 3.005-4.046 1.177-5.393 3.806-5.361h3.54l8.512-2.757 5.24.137 1.589 1.58 5.095-1.855h3.934l3.934 1.057 5.111-.662 3.152 2.5 4.314-2.104 2.361-2.621.267-6.562-1.314-2.862 1.314-3.426z"/><path d="m160.314 374.886.781-3.669-1.049-2.627-2.626 1.692.258 2.371z"/></g><path fill="#a2a9b1" d="m291.41 253.76-2.748-.396-1.436-2.095.525-4.853 2.622-2.628-1.186-2.74-3.532 1.442-1.838-.54-2.216-2.999-4.071-.258-1.452-1.83.662-3.031-2.75-1.177-1.579.54-2.355-2.499-.524-3.152-1.966-3.265h-4.459l-2.353-1.193-1.573-4.329-5.643-6.296.257-2.733-3.659-5.248-5.248-2.363-4.588-6.287-3.675-.395-5.37-2.886-5.643-.387-2.62-4.733h-2.877l-.782-2.345 2.62-2.887-3.796-4.329-.533-3.007 2.764-.145 5.224-1.83 3.506-.581 1.968-1.982 2.104-7.095 2.62-.927v-2.491l-5.175-1.257.104-3.241-.668-3.66-4.708-.911-2.62-3.289h-5.119l-4.063 2.499-4.459-1.306-7.601-.129-3.807-6.191-6.287-5.877 1.452-3.007-.67-3.927-3.264-2.757-3.007-4.603-6.297-2.62-1.322-2.628-6.804.266v2.629l-2.5 1.708.267 6.143 1.306 3.813.257 4.321 1.057 4.587-3.144-.773-4.724 1.443-1.571-3.023-2.324-1.685-3.571 3.136-5.11 1.032-.13 3.425-2.096 2.871 1.693 2.362-3.659 3.015h-1.976l-2.072 4.651 2.072 4.273 4.862-1.201 3.531 4.2.927 6.296-2.887 2.096 2.62 4.587 2.887 1.057 3.135-2.621 6.684.137.129 3.136-2.089 4.192 2.089 3.555-.129 2.862-2.096 2.766 1.564 4.457v6.296l.314 9.521 4.998-2.628 4.449-1.048.534-3.685 5.779-2.619 6.037 3.16 3.677-.266 3.153 3.951 7.601-.79 3.944-8.152 6.03-1.297 8.151 2.096 2.618 5.24 7.87 5.691 4.457 3.266 1.83 3.934-.654 3.152-1.304 2.233 1.958 4.304-.265 5.12-.913 2.765 3.282 2.354 3.796 4.192 3.41.266 3.144 1.306-1.176 1.967 4.578 3.023.8 2.466-1.194 4.064.267 2.362-1.314 3.426 1.314 2.862-.267 6.562-2.361 2.621-1.976.967 4.217 3.103 1.571 2.492 5.232.128 3.282 5.361 5.643 2.104.258-2.475-1.185-3.426.668-3.401-3.934-3.918 3.266-3.031 6.166-1.298 1.7 2.878 2.636.782 3.661 2.361 2.693-.105.572-.015 3.425-2.113-.53-5.376-1.314-2.484-.782-4.716 5.101-4.063z"/><path fill="#ced2d6" d="m326.326 302.984-.813-2.603-1.662-.678-.128-1.725-1.308-4.612.839-1.273-1.184-3.095.62-2.064-.129-3.217-1.169-1.169-1.444-5.836-1.376-1.096-.831-6.628-3.168-3.869.821-1.5-.967-1.523v-1.935l-4.118-4.248.135-2.491h-1.096l-.556-2.879-2.596-4.676-8.134-6.054-1.926-3.441-8.811-6.467-9.764-5.368-.403-1.242-3.999-2.33-7.149-5.772-.693-2.192-1.517-4.144.694-1.241v-2.072l-2.337-4.104-1.792.129-4.812-4.699-5.368-3.153-3.16-.943 3.013-.839.428-1.926-3.861-3.298 2.072-3.031 1.789-6.054-1.379-1.79-1.378-.281.145-3.29 1.516-1.249 1.008-3.161 1.659-1.249.13-1.5.888 1.226 2.345-.073 2.677-4.24 1.361-.411.968-1.653-1.039-2.128.499-.677-.145-2.886.467-2.741-.95-1.097 1.379-1.918.265-2.531 1.233.394 1.169 1.717 1.233-.475 1.725-1.636 2.734-.629 1.724 1.023.686-1.218 1.773-1.24-.748-2.605.959-1.66 3.297-.613 3.145.201 3.166-1.974 1.508.056 1.927-.822 1.226-2.064-.678-1.419-.015-.024.088.024.208.057-.151-.089-3.082-1.653-2.231.661-1.581-1.257-3.732 1.12-3.659-1.83-3.539-1.572-1.049-2.62-7.344-2.612-1.047-3.813-2.098-.782 1.839-6.674 2.62-.396.662-3.547-3.153-2.491-4.845 1.967-1.451-1.821-8.256.12-1.571-2.362-4.064-.79v-2.354l-3.926-3.144-2.483 2.491h-4.458l-3.942 2.233.259 5.627-6.087 2.016-3.549-2.048-4.464 1.322-.654 2.693-4.07 1.974-.856-2.636-2.102-.129-1.903 2.564-3.677-3.604-2.724 2-.638 3.491-2.491.04-1.636-1.298.234-2.781-2.369-.291-3.848 1.516-1.991 1.742-.935 1.821-1.489.258-1.267 1.073 1.177 2.329 6.297 2.62 3.007 4.603 3.264 2.757.67 3.927-1.452 3.007 6.287 5.877 3.807 6.191 7.601.129 4.459 1.306 4.063-2.499h5.119l2.62 3.289 4.708.911.668 3.66-.104 3.241 5.175 1.257v2.491l-2.62.927-2.104 7.095-1.968 1.982-3.506.581-5.224 1.83-2.764.145.533 3.007 3.796 4.329-2.62 2.887.782 2.345h2.877l2.62 4.733 5.643.387 5.37 2.886 3.675.395 4.588 6.287 5.248 2.363 3.659 5.248-.257 2.733 5.643 6.296 1.573 4.329 2.353 1.193h4.459l1.966 3.265.524 3.152 2.355 2.499 1.579-.54 2.75 1.177-.662 3.031 1.452 1.83 4.071.258 2.216 2.999 1.838.54 3.532-1.442 1.186 2.74-2.622 2.628-.525 4.853 1.436 2.095 2.748.396v4.329l-5.101 4.063.782 4.716 1.314 2.484.53 5.376-3.425 2.113-.572.015 2.153 5.611 3.282 1.693 3.15 7.352-.789 5.628 1.306 3.555-1.179 4.829.662 4.208-2.62 5.369-2.885 1.169-.792 2.37-4.981 1.443-5.24 3.418-1.838 3.532-6.682-.267-3.669 2.628.782 6.417 4.063 1.177 3.28 3.41-.652 2.499 1.701 3.797-5.772.396-.919-2.492-3.532-2.095-8.528 2.095-1.958-1.322-3.669.13-2.096 5.247-3.942.661-3.37 4.144.854.629.138 3.031-.548.879 3.498.967 1.716-.677 1.719 1.088 2.732-.895 3.846.557 2.604-1.161-1.573 1.845-5.07 3.984-2.684 4.385.347 5.772-.687 2.386 1.088.283-.475.54-.403 5.546 2.539 1.379 1.847-.742-1.782 2.039-3.29 1.459-2.747 1.702 4.311.629 8.039-3.644-.21-.815.893.057 2.267-2.064.475-3.821.823-1.999 2.402.347 1.517-1.089 3.49-3.096 1.862-.144.958-1.379 1.436-1.016-.75-1.016.137-.903-.96-2.668 2.058-.346 1.434 2.128 1.571.547 1.517-1.999.337-1.789-3.321-3.588 3.942 2.919 2.669-1.372-1.363-2.885 1.096-1.645-4.957-2.288 2.983.475.943-.662.073-1.298-2.065-1.66 3.088.83.556-.886.823-2.145.13 2.201-.476 2.257.686.701 3.433-.894 2.056 1.04 4.724-.501 7.9-4.571 2.121-2.425h3.296l.41-3.088 3.638-2.523 2.675-1.452 4.113-4.175 1.919-.766.548-4.459 1.991-.75 2.4-2.256-1.166-1.507 1.378-3.226-2.533-3.845 2.871-2.201.138-2.047 1.852-1.452.348-1.628-1.717-1.79-.21-2.829 1.514-.887 1.171 1.378.055 1.379.831.064.41-2.741z"/><g fill="#dee0e3"><path d="m232.055 352.813-3.347 2.104 2.038 2.443-.789 1.903 1.516 3.023 2.033-1 .79-5.514-1.177-.459z"/><path d="m294.04 300.695-1.306-3.555.789-5.628-3.15-7.352-3.282-1.693-2.153-5.611-2.693.105-3.661-2.361-2.636-.782-1.7-2.878-6.166 1.298-3.266 3.031 3.934 3.918-.668 3.401 1.185 3.426-.258 2.475-5.643-2.104-3.282-5.361-5.232-.128-1.571-2.492-4.217-3.103-2.338 1.137-3.152-2.5-5.111.662-3.934-1.057h-3.934l-5.095 1.855-1.589-1.58-5.24-.137-8.512 2.757h-3.54l-3.806 5.361-1.177 5.393-3.005 4.046-.404 7.087 1.579 7.199 3.137 1.709 1.7 3.547-.386 6.683-.499 2.781.047.024 2.475 2.879.121 3.434 2.41 2.136.146 3.491 2.531 3.636 1.452-.549 1.371 2.677-.275 2.878 1.225 2.064.491 2.74 2.805.347 2.259-.347.073-3.087 2.201-1.918 1.499-1.025v2.185l1.241 2.813-.265 2.339-2.266 2.604 1.16 1.716.476 1.363 1.991.145 2.95-2.741.283-1.031 1.966 1.507 3.661 1.161 1.089-.677 3.329 2.45 3.37-4.144 3.942-.661 2.096-5.247 3.669-.13 1.958 1.322 8.528-2.095 3.532 2.095.919 2.492 5.772-.396-1.701-3.797.652-2.499-3.28-3.41-4.063-1.177-.782-6.417 3.669-2.628 6.682.267 1.838-3.532 5.24-3.418 4.981-1.443.792-2.37 2.885-1.169 2.62-5.369-.662-4.208z"/></g><g fill="#dee0e3"><path d="m379.661 505.742-1.176-4.209-2.434.614-.21.048-1.072.258v1.797l2.636 2.596zm90.137-91.829.106-1.283-4.668 2.717 2.298-.088zm6.378 1.958.112-2.685-1.652-.466-3.29 3.119.864 1.185zm-102.23 89.203.171-2.879.039-.21-1.257 2.363.426 1.056zm.524 2.998 2.007-.87-2.04-1.597-.676.895z"/><path d="M511.952 451.495h-2.885l-4.202-.798-3.134-2.87-3.161.275-4.435-4.329h-2.488l-2.887 2.749-1.717-1.581 3.942-3.401-1.968-2.37-1.589.54-2.475 3.393-1.571-1.967-1.442-.653.12-5.369 3.16-1.185-.137-2.345-4.321-2.887-1.587 1.041-3.394-3.145-.138-4.981-3.667-2.363-1.693 1.056 1.024 3.274-3.919 3.796-1.563-.242 1.184-3.297-.668-2.999-2.355-.137-2.498 8.126-2.62.661-3.806 8.763-.645 4.724-6.554 6.95h-3.144l-5.239 1.967-1.838 2.354 1.958-.122-1.306 1.96 1.693.661 4.207-1.177-1.709 2.62-2.885 1.435-.509.693.348 1.427 2.233 6.328-1.573 3.088-2.434-1.379-.33-4.546-.758-3.265-.644.137.047-.758-1.595.21-1.968 2.95 1.242 8.094-1.904.927-3.545-2.765-3.162-5.337-1.893-.193-2.733-1.21-2.443 3.112-.137 4.289-4.724 4.063-1.693 3.659-5.111 4.862-1.178 3.273-4.457 5.506-4.861 4.184-14.794 3.539-1.636.782 1 4.724 1.74 1.943-2.264-.855-2.556 1.346-4.289.525-2.008 2.443-1.202 3.78-.063 5.241-3.152 4.329.138 1.442-7.207-.918-7.475-2.766-5.246.137-1.968-2.869-3.137-3.556-1.361.428 3.692 6.635 5.844 4.151.589 1.516 4.144 3.877 1.507 3.031 2.692.331 5.249-1.459.597-2.096 4.529.339 2.547-1.323 9.99.524 10.117-4.078 2.693-2.371 8.826-.266 4.587 2.225 1.443 2.225 4.331-.137 7.466-4.055 8.655-1.314-.522-2.749 7.198-10.883 2.901-7.723 5.5-8.255 3.926-14.028v-2.749l1.837-3.159-.273-2.355 3.812-4.579 3.025 1.298 5.747-.524 8.013.129 1.958 1.452 5.103-.122 3.942 1.169.324-1.612 4.319 2.87 3.025.798 3.797-1.975 4.716-.927v-2.096l-4.844-4.063v-4.716l2.223-1.572 7.336.661 6.048-1.451 3.789-2.87zM238.446 513.86l-1.096-.548.072-1.097-.742-1.378-1.247-1.024-.688-5.497.486-1.363-.823-1.581-2.888-.064-4.175-3.781-2.345-4.74v-9.045l-1.362-2.386v-3.185l.886-1.563-.467-8.965 1.508-1.935-1.791-7.401-3.999-6.344-13.195-13.479-2.75-4.95-1.524.411-1.644 1.79-2.612.129-.008-.04-.862.903v3.288l-2.493 1.839-2.498-2.097-3.264.396-4.064 3.539-4.845-1.178.129-2.62 2.08-2.627.532-5.24-2.362-2.362h-3.789l-.919-2.096-4.989-1.452-3.402-2.998-2.363 2.998-1.186 4.177 3.749 6.119 1.927 14.994 2.072 4.966 2.208 4.531-.692 5.917-1.105.967.412 3.982 2.756 2.612-.967 1.645 2.208 3.177 4.952 2.886 3.166 4.949 3.29 1.935 2.168 3.338-2.742 2.603-.418 2.491 2.266 2.04 6.513 2.539 5.555 4.394-.338 3.37 4.392 4.659 2.596.137 2.605-.621 1.927 1.589 2.739 3.007 5.492 2.886 5.973 1.153 2.322 2.765 3.572 1.717 1.169-1.241 1.304 1.91 3.628-2.257v-.831l-1.699-.274 1.151-.394.29-2-1.103-1.37 1.989 1.443-.135 2.047.677 1.379 2.74.484-.057-4.531zm-73.835-67.492-1.508-.394.654 3.756 1.966 2.692 1.441-.991-.644-2.491z"/><path d="m372.899 506.427-2.08 3.023 2.966-1.241z"/></g><path fill="#ced2d6" d="m423.154 465.233-2.732-1.21.846-1.096 6.675-2.008 4.329-3.273 3.531-1.29.258 3.668-.081 1.322-1.596.21-1.967 2.95 1.241 8.094-1.903.927-3.547-2.765-3.16-5.337-1.895-.193zm14.511 4.546 2.434 1.379 1.573-3.089-2.233-6.328-.347-1.427-.935 1.274-1.58.379.758 3.265.331 4.546z"/><g fill="#a2a9b1"><path d="m279.568 486.669-2.217-1.04.259 3.151zm9.86 122.044-.516 3.112 2.16-1.91zM278.07 490.417l-1.114 2.176 2.428.331zm-9.385 104.044 1.766 1.789.137 3.612 2.033 1.306 1.112 4.86 4.077 2.637 3.605-.452 1.184 3.612 1.703 1.443 1.836-2.693-1.241-3.691 1.911-4.475-5.989-1.363-3.863-4.28-1.444-8.223-1.449-1.314-.475-3.096-2.613-1.249h-2.29l.324 3.225 1.312 2.377-3.49-1.193-2.353-2.49-1.176.653-.067 2.958-3.418 2.619 2.241 2.959zm31.481 14.01 2.394-1.209-.104 5.152 2.766 2.821 3.095-4.781 1.893 2.863 2.791.555 1.089-2.554 2.789-1.323-1.67-3.62-6.079-3.918-6.11-1.152-1.839.564 1.314 3.152-.2 1.79-3.7.886-1.226 1.83 2.893.138zm-95.837 43.267-2.241.927 4.604 3.353-.065-2.562zm67.477-157.29-2.96-1.161-2.176.564-.387 3.16 1.974 1.218zm-25.129 64.308 1.839 2.224 2.95-.975 4.209 2.249 1.449-1.201-5.513-5.136-2.96-.725zm268.308 160.708 2.427-.452.393-2.168-1.571-1zm22.282-51.659-2.887-5.78-.789 1.838-.258 2.885-1.251 2.298 1.573 2.556.79 2.693 1.379-3.798zm.902 19.453-2.498-1.306-1.411 1.306 2 1.676zm-54.528-212.126-.75 1.016 1.805.822zm-170.052 2.54-.782 2.829h2.693l1.506-5.135-4.136-5.587-3.086 1.83-1.838 2.58 3.604 3.483zm174.106-1.903-.063-1.217-3.845-1.444-.146.742 1.055 1.79zm22.428 241.268 1.896 2.629 1.119-4.322 1.387-1.459-3.088-.984zm48.789-68.403-.192 2.289-1.057 1.113 1.314 3.95 1.571.653 2.718-1.846-.872-3.668-2.168-3.16s-1.249.67-1.314.67zm-416.431-95.546.395-2.354-4.264-1.516-1.976 2.685 4.264.073zm-2.064 19.179-3.804 3.023v2.885l3.926 1.428 4.724 7.094 4.578 1.435v-6.812l-5.368-7.739zm-3.386-9.255-2.82-1.242-1.847 3.958 2.176 2.499 2.556-2.563zm-23.903-50.369-2.691.92 4.264 1.385zm41.437 81.253 2.097 2.765 4.062 1.29-4.329-6.159zm17.694 15.874-3.802-2.903-2.363 3.273 6.692 6.167-.792-3.547zm-9.172-6.434.524 3.926 2.756-2.483zm78.02-71.741-.734-2.571-4.917 4.87 3.878 1.257zm-30.795 7.232 6.23.725 4.274 2.088 1.371-1.185-1.179-5.24-4.004-3.417-4.669-.935-2.685 4.546zm-91.991-12.633-2.363-.861-1.781 1.926-3.548.121 4.184 4.215.903 4.04 2.556.669 3.466 6.368 1.605-.741.748-4.756 1.13-2.549-4.217-3.296zm129.413 13.56 2.369-.855 1.121-5.538-1.781-1.894 1.441-2.846-1.973.467-1.701 1.58-2.829-.201-1.646 3.684 3.885 1.064zm-3.806 25.773 2.952 2.822 3.15-1.839-1.184-3.425h-3.08zm-35.592-31.965 2.298-3.949-1.958-2.758-4.734-1.717-1.909.137 4.529 6.7zM85.687 497.576l-1.451 1.515-1.047 2.233 3.482 2.176 4.264-.58-2.5-3.353zm109.065 23.749 3.272-3.749-3.223-3.684-2.233 1.919-3.08.588 1.966 5.451zm82.858-21.968 1.958-1.048-1.885-1.902zm425.919 57.738-.532-1.838-6.892-3.475 2.482 2.62zm9.933 34.608 5.004-1.532-1.441-.773-.275-2.758-1.58-1.58-6.707 1.644-2.371 1.573 1.581 1.499zm15.648-24.386-2.952.475 1.573 1.718zm-47.542-52.651 2.693.21 2.63-2.564-1.049-2.83-2.37-1.507-2.304 1.717-2.768.976 1.122 5.789zm37.747 54.642 2.836 1.507 4.337-.854-3.756-1.371zm-61.365-.202 3.755 1.113-1.314-2.693-1.119-.838zm6.456-.597 3.096-.063 1.95 1.838 1.669-1.694-.935-1.515-2.571-1.113.201-2.7-2.039-1.451-2.49.467-1.122 1.057.267 2.16z"/><path d="m667.397 539.569-1.443 2.362-.652 3.66 3.539 2.902-.532 2.225.652 2.096-1.434 3.797 2.353 4.063 3.805 2.37 2.887 5.885 3.142 1.306.792 2.886.257-2.225 1.444-.532-1.039-1.692-4.734-4.201-1.428-5.103-3.03-5.901v-6.811l2.628-.928 4.193 1.322 4.716.128 2.498 1.968 3.532-.258-1.701-1.459-.662-2.612-4.578-3.289-2.361-.25-1.444-2.483 2.371-2.765 6.536-2.218 2.766-6.432-.267-2.612-2.096-2.242-5.773 2.096-5.505 2.758-.395 2.498 1.831.13-1.556 1.837-3.152 1.435-1.186 2.887-2.088.387-1.587-3.007 2.628-2.629 2.885-.137 1.444-4.571v-5.521l-3.153-1.298-.638-1.96 2.742-3.16.402-2.869-1.852.515-5.499 5.385-1.177 5.224.387 4.588-2.233 1.708-1.169 4.588 1.839 2.378zm153.348 43.895-3.677 1.839-6.682-2.354c0-.129 1.177 1.451 1.177 1.451l5.78 2.37 8.383 1.169 7.587-1.169 2.104-1.201-6.159-1.298-3.007.775-5.505-1.581zm-7.336-14.938-.137-2.088 1.838.13 3.137 4.191-.509 2.362 2.742.525h1.047l1.565.797 4.2-.797-1.566-1.565-2.634-1.322-2.347-3.806-3.007-1.95h-2.901l-5.112-.91.662 1.434zm-153.09-6.393-.065-1.887-2.039-.08-1.119 3.563 2.241.839zm147.318 19.639h-4.724l2.62.926zm-76.296-10.699-2.82-1.064-3.742 2.717.075 4.926 3.861.838 1.717-1.242zm-4.07 122.013 1.911-.467.533-.855-4.742.33zm-4.264-133.774 3.353 1.531 3.015-.467-.065-1.492-2.95-1.209-.467-.79 1.241-.726 5.272 2.967 2.298.863 3.022-1.064-.66-2.499-4.393-2.685h-6.126l-2.758 2.104-3.62.072-1.121.638 1.186 1.265-2.493.717zm78.867 13.285-2.243-2.362-2.215.661 2.103 2.225zM597.261 712.588l-1.654 1.692 2.501-.056 1.781 1.693 2.822-3.798-.314-1.588-1.791 1.653zm-12.568-121.497s.782-1.967.782-2.104l-2.748 1.177zm4.063-9.319 1.047 1.305 3.282-.782.645-2.749-2.621-1.959-1.306 2.225-2.755.661 1.184-2.096-.387-1.587-4.991-.396-4.087 2.426.161 3.354 2.75 1.959 2.363-2.087 3.007 2.224zm-9.262 75.98 2.046-3.499 2.161-.701 1.259-1.516-.597-1.628-2.887-.669-.798-2.749 1.057-1.379 2.168-1.709.605-1.58.902 1.443.129-1.709-1.113-2.426-.063-2.354-2.563-.395-1.509 1.37-.338 5.708-1.638 5.65-3.085 5.313-.46 2.694 2.418 1.321zm10.262 57.705 1.709-2.023 3.749-3.483-1.378-.911-2.501 1.435-2.571-.403-1.563.596.789 1.653-3.627 2.564 1.652 1.362zm-27.105-155.348s-2.94.734-3.005.799l2.885 1.168zm31.998 25.459-.644-2.491-2.114 1.589zm-6.941 2.629 2.612.394-1.047-1.822zm64.589-107.268-1.12-3.411-1.976-.532c0 .065 1.717 3.943 1.717 3.943zm-22 10.149 1.589-1.838-1.186-3.797-3.675-4.184-.654 2.353.654 4.588zm20.622-15.156 1.838-.79 1.444-3.192-.847-3.427-2.435-1.587-1.717 1.193 1.322 4.401z"/><path d="m505.262 603.804-1.298 4.707.662 1.444-1.589 2.088 2.096 6.303 1.968 2.879 1.306-.774h2.755L513.13 619l1.831.911 1.184 4.588 3.153 8.399-1.33 2.104-1.033 4.708-2.62 3.797-.395 7.86.517 6.167h1.973l2.491 1.572 3.791-.137 1.716-1.974 3.402.805 3.015-.54 2.241 1.709.636-2.877-.392-3.676-2.485-1.702-.532-4.723 1.976-3.274.797-6.022-.668-5.635-1.443-1.58 3.537-5.24 1.179-4.725-1.049-5.626-2.353-2.096v-1.702l3.926-2.499 1.563-2.49 3.685-.791 3.667 1.331-.395 1.83 1.709 3.007v3.675l-2.885 3.265-.782 3.266 1.958 3.692 2.493.379 2.233 2.748 4.191 2.499.652 3.411-1.435-.242-.927 6.668 1.316 3.667 2.618.911 1.968-.637 4.056 1.694 3.013-.525-.256-1.306-1.033-2.62 3.143-2.894 3.136-.773 4.323-2.5 5.376.396 1.966-2.081 1.444.766h2.62l1.563-2.628-.522-1.572-4.708-.395-1.444.66-1.573-.523-3.41.403-.257-2.636-1.709-.25.13-1.709-1.573-.403-1.579.926-.122-1.966-3.153-.928-1.047-2.232 2.094-2.08.792-1.701 1.314.515-1.055-2.232 1.571-.251.79-1.837-1.693-1.702-2.499-.797 1.047-1.685-.402-1.976-3.143-2.095-2.09-.137-.919-3.402-4.973-5.643-3.015-2.08-1.83-3.281.386-1.444 1.444.13.782 1.837 3.28.138 2.879-2.226.798-2.232 7.328-2.628 5.24-4.064 2.49-4.199 3.29-1.694.12-2.499 3.934-.919 3.54 1.838 2.225.258 3.152-4.45v-2.886l-3.812-1.427-8.12.766-3.545 2.507h-5.362l-2.628.782-3.152 3.265-3.41-.258-2.604.653-3.41-2.087-3.282-.936-3.53 4.595-2.492 6.03-3.539 1.831-3.813-.509-.903-1.725-4.724-5.232-4.716-4.054-2.49-6.418.516-7.086 2.886-6.812 3.28-3.281 4.193-1.443 4.989 2.362 5.886.137 6.553-3.289 4.321.532 1.589 2.096h3.796l2.226-1.065 7.73.791 4.064-.258.79-1.04 4.321.129 2.887 1.572.909 1.838 3.669 1.169 13.769-3.136 5.764-3.934 1.572-3.015 2.355-.274 1.966-2.354 2.5-1.693 1.176-3.145 1.572-2.627 1.709-1.299-1.709-1.837-.395-2.096-5.111-1.186-3.529 1.186-.67 3.539-2.742 2.088-.273 1.838-3.798 2.757-2.878.37-1.838 2.765-4.311 1.057-8.66-1.717-7.336-.653-1.314 1.974-1.701.267-3.547-3.161-2.75-.265-3.143.145-3.417-.782-4.718-.798-2.49 1.58-2.75-1.58-3.539-3.402-5.368-1.057-3.282.137v3.927l-2.756 1.83-1.573 3.426-2.353 2.088-4.708-1.564-4.329 1.048-1.711 1.959.397 1.298-4.58 4.329v5.256l.911 3.007-.265 6.038-.919 2.104 1.83 4.313.532 3.402-1.443-1.83-1.049-2.766-2.355.67-2.353 2.878-2.895 1.58-.652 3.532.516 4.199-1.298 2.758.911 7.594-.911 1.7-.524 3.023-2.361 1.04.127 4.587zm116.193-14.802 2.82.339-.057-3.088-2.36-.863-2.314 1.694-2.298-1.234-3.612-.918-2.233.918-1.782-.46-2.368 2.364-.26 1.789 1.306 1.959 3.443.725 3.917-2.362 2.573.637zm-15.64 123.521 3.207.766 6.185-2.161 2.039-2.362-1.839-1.234-5.006.509-1.571-.855-3.62 1.58 1.451 1.064-1.186 1.298z"/><path d="m557.066 561.811 1.581 2.056 2.571-.605-2.499-1.524zm9.94 90.951 1.444 1.177 3.16-.387.452-1.451 1.393-.395.387-3.024 2.306-2.362.057-1.903-1.644-3.079-3.08 1.58-2.435 2.491 1.049 2.169-3.225 3.667c.137-.049.137 1.516.137 1.516zm11.787 100.44.659.661-5.635 2.749-2.747 2.499 2.612.919 8.263-3.418 1.176-2.878-.919-2.097zm106.26-44.565 1.838.919 3.023-.266-1.516-.919zm14.921-30.925-1.846 1.387 2.506.129zm5.796 25.29-.725-2.902-2.37-1.371-2.104 1.032.138 1.926 2.288 1.895zm33.94-15.188-2.104-.508-1.718 1.306-.071 1.386-4.934 4.386-.202 1.701.66 1.266-1.966 1.636-.065 2.7 2.644 2.226 2.29-.67 4.136-5.174 1.385-4.467-.725-2.563.984-1.895zm-477.795-32.182 3.272 5.111 2.096.919 2.484-2.491-.381-8.126 1.831-9.956-1.966-6.691 3.015-7.208-1.566-2.749.252-5.78 3.272-1.427 1.451-2.636-.524-3.393-2.758-1.315-3.272-2.628-1.451-4.184-2.218-1.185-1.047-2.878-3.417-1.459-5.492.668-3.545-.531-.526-5.369-2.628-3.523-2.345 1.427 1.693-3.531-1.452-3.934-.516-8.908-4.32 1.693-1.84-1.693-7.077-.137-6.159-4.192.13-3.023 3.667-1.71 4.224-2.353-2.765-1.46-3.934.605-2.169-.855-3.942 1.443 2.831-2.563 4.321-3.225 5.385-.854-1.041-3.749-5.586-6.191-3.209-.396-4.215 2.839-3.742 2.297-4.594.266 2.636-.524 1.693-1.58 1.717-.459 1.781-2.5-.862-2.297-4.144-1.983-6.36.209-4.539-3.756v-2.435l-.589-4.732-7.611-7.498-2.506-.531-2.353.733-2.952-2.314-.855-6.724-5.232-5.231-6.827-3.797-4.321-.267-.92 1.702-2.087-1.435-1.065-4.853-2.475 2.491-1.846-2.62-.257-5.385-3.282-4.201-3.917-.773-1.451-2.491-10.489-6.95-3.539-.41-4.313-4.83-4.329-.661-1.184-2.756-.92-5.765-3.669-1.967-2.095-4.458-1.572-.524-2.62-4.708-4.201-1.58h-3.797l-2.49.927-1.968-1.306-4.578-.137-5.37 1.443-2.626-1.701-8.403-5.764-7.463-1.056-2.62 1.298-.759 1.959.92 5.328 4.554 9.885 2.878 1.322 7.868 8.641h2.363l4.853 6.039 2.75 1.039 2.353-.902 5.9 4.958 6.417 10.221 6.426 6.176h1.847v4.716l1.693 1.427.668 4.675 2.29 2.096 3.812-.072 4.855 6.143 2.499 1.435 2.168-.33.652 1.918-1.451 2.556 2.305 2.547 1.776 4.619-.179 1.169 3.677 9.698 1.699 5.24 4.726 1.443 5.368 3.676v3.145l4.466 7.86 4.178 3.135.797 8.908 6.804 12.585-.387 5.127 1.709 4.571 6.546 4.99 6.684 8.255 1.836 4.45 5.113 1.056 1.846 2.104 4.449 2.878.654 5.249 3.924 2.483 4.726 5.247 8.125 5.104 1.831 3.942 5.238 1.435 10.756 9.448.919 3.789 2.361 1.048 2.5 4.192 1.298-1.564v-3.547l-1.056-1.83v-1.968l3.28.654 7.078 6.562 1.444-1.185.13-4.724 1.441-2.491zm462.791 51.377-.522 1.418 2.628-.516 2.37-1.838.855-1.112-2.041-.194zm1.283-84.591-1.709-6.82-9.053-5.119-7.473-1.443-3.661-3.024-3.932-.37-3.274 2.869-3.805-.378-2.612-1.057-5.386.396-7.473-.137-1.564 2.096-.275 2.103-2.997 1.033-1.178 3.16.903 2.362h2.104l3.282-5.256 2.748 3.023 1.573 2.362 3.272-.274 3.41-3.402h2.225l1.968 3.402 7.868.919 1.693-2.354h3.683l7.208 4.329 3.273.645 3.934 4.2h3.796zm-20.944 84.655 1.58-1.991-3.748 1.991zm-35.326-93.249.065-2.233-2.096 1.903zm.605-27.377h5.256l1.064-2.121-4.49-4.514-4.401-.209-5.071 3.813 2.054 2.177 3.145 1.321zm-3.612 119.965.517 1.499 3.555 1.718 4.271-1.524v-1.894l-2.965.588zm15.583-85.565h-1.846l.387 1.652h1.789zm-1.386 66.524.597 1.37 1.966.073.919-1.443-1.837-1.323zm4.998-67.105-2.041.313.8 1.452 1.369-.395zm-10.537 1.112-4.249 1.322 2.42 2.096 2.709-1.652.636 1.709 2.184-3.878-1.911-.903zm-4.135-11.762 1.854-.113.588-1.652-3.168.185zm120.595 62.575c0-.088-1.065.749-1.065.749l.185 1.75 1.467 1.145 1.854-.362-.629-1.815-1.813-1.467zm-1.953-16.47-1.581 2.748-1.636.468 1.903.524.258 1.443 1.716-.338-2.49 1.789.516 2.161 1.314-.137 2.508-1.774 2.096.073.862-1.71-.137-3.16-1.444-.192-2.176-1.63zm5.466 1.12-1.508-2.184-1.597.136 1.727 1.983zm-.815 22.105.92.798.846-.927-.387-1.435zm74.167 25.104 1.379-1.847v-1.894l.847-.935.727-3.023.66-1.331-2.693-2.104-1.177-1.105-6.505-.258-4.007 1.887-1.903 5.208-1.901 3.684-7.418 7.368c-.136.129 6.232-.411 6.232-.411l2.498-.524 4.661.726 2.95-1.436 2.822-3.289 2.828-.717z"/><path d="m910.399 670.586 2.29-68.281h-.065l-3.017.854-2.303-.799-.13-1.958.524-1.589-2.692-1.894-3.281.13-4.523-1.122-2.5-.394-2.683.523-10.522-4.804-4.594-1.315-3.677-.33-3.417-2.903-6.498-1.451-5.515-2.417-2.95-2.766-4.272-.395-9.054 5.337-.66 1.765 1.701 3.225-.717 2.637-5.258.668-3.353 1.226-2.225.21-1.644-.799-1.314 1.919-.387 3.354-3.483 2.023-3.557.331-2.288 3.748v4.547l-2.048.734-1.958 1.571-.92 3.281-3.539 1.573h-3.023l-2.088-2.226-4.063-3.265-1.177-3.288-1.176.79-1.187-3.539.122-3.652-2.105-1.331-1.692 1.839.387 4.586-1.428-.128-2.103-2.621-2.363-4.071-.265-8.383-1.306-4.846 1.958-3.426 2.235-3.248-1.186-3.289-3.145-2.612v-4.459l1.185-1.967-1.434-1.588-6.046-.5-5.884.242-5.767-3.942-9.317-3.523-5.765 1.185-1.436 1.306-4.722 3.668-2.863.79-2.507 2.362-4.975.129-2.755 2.346 1.312 2.362-.401 2.628-4.321 2.749-.662 2.233 4.192.646 2.895-1.565 1.039-1.443 1.968 2.096 5.118 2.878 1.96 3.419-.789 1.04 1.062 4.192 3.789 3.16 3.41.523 3.272-.797 2.243 1.305 2.086-1.031 2.235.774 5.635-1.169 1.837.523 2.227-.523-1.306-1.847 9.164 1.065 1.057 2.345-.54 3.935-1.823-.645-1.966 2.628-1.573 3.523-2.231-3.282-5.635-2.612-2.75.912-1.187 4.321-3.529 2.104-2.765-1.443-3.789-.387-1.444-1.451-4.329.387-2.217 2.764 1.306 1.83 4.183.653 3.275 1.71 1.836 4.45 1.316 1.305 2.233-.773.523 2.49-.403 2.492-1.563.645-.138 2.224 2.758 6.176 3.282 1.048 3.659-.791 3.677-4.586-.387-3.015 2.74-4.983 1.579-.79.516-2.74 1.444-3.935 1.838-3.554v4.337l-2.225 2.886 1.611 3.796 1.113 4.475 2.041 2.225.927-1.491 1.379-.661 1.442.975.669 3.612 1.572-1.838 1.048.33 1.185 1.508 2.425.927 3.106-1.258 2.685.46.192.862-1.442-.395-2.635.395-.187 2.62 3.869.854.468 1.444.854 1.58 4.337 2.039 5.45.347 11.133 3.402 10.746 3.418 3.144-.532 4.983 1.701 1.312 3.395 4.855 1.982 3.288-.128 2.605-1.589-3.007 3.556 1.428 1.039 1.973-.774 1.185 1.435 4.201-.798-2.636 2.104 1.442 1.701-.772 1.322 2.086 1.436 3.411-.267-3.661 3.023v1.564l4.056 4.193-.919 3.812 1.016 2.306 3.152 2.153 4.731 3.426 1.509 1.838-2.823-.315-1.708.185-.92 2.371 3.023 2.298 3.217 1.516 4.007-.605 2.62.725-2.29.274-3.62 1.46-1.628-.541-1.974.483 2.039 2.612 2.298.92-.67 4.66-.846 1.192v2.104l-1.12 2.831-1.638 1.04 2.225 2.579 4.264-2.306 1.582 1.581 2.571.064 3.087-1.645 5.435.387 2.361-1.499.872-4.014.127 4.078-1.644 2.629.645 2.813 1.718 1.056 3.675 3.289-.128 1.193 1.185 2.62 5.069 5.49 4.459 1.58 1.08.017 1.475-44.21-.79-1.524.057-2.926zm-42.291 34.439-1.911 1.186-1.499 2.829 1.499.322 3.417 1.194 1.041-1.064-1.306-4.145zm-82.567-45.016-.46 1.258 1.459-.033v-1.257zm-26.968.032.13 2.886 1.322 1.387.129-4.2-2.563-3.539zm-14.721 24.573 2.952-1.524-.984-.589zm50.71-20.413-.953-.185-3.087 1.145-2.571 2.257.628.991 3.806 2.073 1.483 1.088 1.878-2.258.363-2.023-.758-.443.322-.992zm-32.369-1.717-1.314 2.169 2.436-.919 2.425-7.497 1.644-3.274-3.61 1.903zm-21.442 23.637 4.537 2.354-1.241-1.83zm47.828-12.431-3.296-2.79-1.412-1.097.403 1.524.09 3.758 1.418 1.338.847 2.032-1.273-1.242-1.21-.105-.299 3.353 1.694 1.678 1.812-.267 3.355-3.023.66-1.636-1.636-1.048zm-4.16-5.708 2.742 3.088 2.208 1.161 1.033-.702-3.015-2.877-.556-1.968-2.106-.507zm-76.093 4.209 2.506-1.5-1.845-.919zm-258.843 18.485.266-1.04-.853.201-2.669-.121.66.887zm2.426 21.25-.852 4.854-3.153-.137-1.581 1.064 1.185 1.636 5.853 1.774 3.49-1.371 2.492.91-.33-3.022 1.644-2.346.79-4.289-5.716-1.838zm-15.976-7.328-4.983 1.701-4.064-1.064-4.061 1.185v2.741l1.699 2.37 4.982 1.057 4.459 3.402.927 2.095 1.563-2.241 2.888-1.435 1.184-1.314 3.274-.645.918-2.103-3.933-4.717zm4.571-20.597 1.74.298h1.192l-.66-1-2.306-.999-3.376-.428-1.452 1.314.065 1.04 2.465 2.379zm17.299-59.254-.194-6.328-.896-1.426-1.675 1.064-1.878 5.248-.558 5.248 1.452 1.79 2.797-1.952zm24.662-133.918 1.176.362.047-3.216-1.748-1.008zm-22.364 128.275-.944-.886-.66 1.435.184 4.579.992-.29z"/><path d="m462.293 595.896-2.095.192-1.185-.79 2.112-1.507.514-3.225-.717-.701-4.401.25 1.443-2.096-.661-1.636 2.71.394 3.013-1.257.597-3.225 3.088-3.547.259-3.853-.984-2.435 1.836.911 1.524 3.419 3.155-3.274 2.223-3.281-1.83-4.708 4.855-3.797 1.304-6.296 1.571-2.483.654-6.965 1.709-1.959v-2.62l3.797-3.797 1.701 2.233 1.049-1.839-1.179-4.852 5.902 5.756 4.184.531 2.757-1.966 2.371.927 2.233-.927.904-3.265-2.88-.661-1.046-2.233-3.015-3.395h-2.622l-7.739-7.23-2.758-1.557-.779-3.152-1.574-1.314.66-2.225 4.718-1.039 1.821-3.427-2.732-2.491-6.03-6.28-1.184-3.805-3.007-2.612 1.304-2.749 1.565-.427-.418-2-1.542-.862-2.878-3.402 1.701-1.047 4.056.652 4.07-1.048-3.545-4.192-3.799-1.451 1.179-1.838-.268-1.693 1.847-.395.192-.992-3.942-1.169-5.103.122-1.958-1.452-8.013-.129-5.747.524-3.025-1.298-3.812 4.579.273 2.355-1.837 3.159v2.749l-3.926 14.028-5.5 8.255-2.901 7.723-7.198 10.883.522 2.749-8.655 1.314-7.466 4.055-4.331.137-1.443-2.225-4.587-2.225-8.826.266-2.693 2.371-10.117 4.078-9.99-.524-2.547 1.323-4.529-.339-.597 2.096-5.249 1.459-2.692-.331-1.507-3.031-4.144-3.877-.589-1.516-5.844-4.151-3.692-6.635-2.838.903-1.831 2.725-4.329 5.788-2.869 4.974-.203 2.523.927 2.443-.394 2.16-2.499 1.507.525 6.902 5.401 6.755 1.636 2.749-2.105-1.04-1.12 1.104 2.298 4.217 3.693 1.129 2.368-.541 5.651-.855 4.863-3.014 3.296.984-3.48-.259-4.29 3.354-6.37 1.508-2.838 2.483-3.288.387.138 1.467 4.303.999 4.451 2.612 5.191 5.168 1.774 3.216.459 3.225-2.49 3.611-1.984 2.427.854 2.225 3.161 2.055.984 8.142.064 4.322 2.096 5.063h2.055l2.83-2.435 1.114 2.362 3.812.258 2.765.999 4.594-.394 3.106-2.226 2.225 1.556 2.304-1.498 1.644-3.483-.322-1.967 1.113 2.426-.726 3.152 1.524 4.466.516 6.11-.387 2.959h2.621l4.209-5.183 2.111-.604 1.903 1.7 2.691-.394.743-1.766 4.458-.67 2.756-3.006 1.968-.275 3.272 1.983 2.096-1.321 1.96 1.709v2.877l1.451 1.871 3.384.959-1.257-2.426 1.283-2.887 1.571 2.887 2.888.782 1.7-.912 1.959 2.621 1.716-.799.637 1.323 1.838 2.749-.644 2.749 1.049 4.974 3.529-.516 7.481-3.547 5.241-.911 6.175-4.184 3.781-6.965v-2.484l1.049-4.57.789 1.427 1.919-.009 2.748-5.844-1.112-1.04-1.636-1.572.185-1.451.532.725 2.885.855 1.124-2.838zm-133.153-9.425-1.5-1.604-2.693.065.267 1.862 2.732 1.225zm334.871 122.69.12-1.975-2.498.725zm-404.137-33.012h-1.838l.404 1.822 1.305-.129zm138.949 13.865 2.298-1.378 6.24.338 3.282-1.466 4.005-.516 1.573-2.162-1.838-.861-4.853.733-2.764-.936-9.797-.33-1.893-1.314-2.62 3.749 3.676 3.765zm41.317 27.62 1.057 1.177 1.901-.976-1.176-1.991z"/><path d="m338.492 580.949 2.28-.67 3.516-3.66-2.628-1.886-4.498-.185c.024.032.354 2.136.354 2.136l-.524 2.33zm1.587-9.4-2.016-1.935-4.658-.822-.387 1.427 2.563 2.983 1.766-.089 4.271.194-.088-1.323zm78.625 140.296 1.854-2.305 1.114-7.957-2.033-2.225-3.151-.524-.856-1.201-2.95.072-2.369 1.524-2.952.129-2.828-1.725-3.944 1.459-4.062-1.918-2.498-2.815-.259-2.692-3.491-4.619-.186-4.861-4.861-.065-2.361 1.185-2.573-2.821-3.143.193-3.797-3.346-2.516-1.523-3.274.596-2.877.073-4.474-4.74-3.426.193-1.039 7.167-2.233 2.959-8.281 1.378-9.722-1.588-10.956.21-6.248-2.83-1.433-1.516.644-3.546-2.088-3.821-7.957-.839-6.489-1.588-3.547-2.822-5.596-.33-1.628 1.821-1.507 1.331-2.765-2.234-5.838-.918-4.279.064-1.629-1.645-3.684 4.281.257 3.798-1.699 3.756-3.814.516-.322 3.692-2.758.992-1.436-1.516-1.249.194.122 2.112 2.371 1.37 7.351.137 3.942-1.564 1.644 3.153 2.426 1.499 2.16-1.177 2.566.128-1.574 1.509-2.506 4.538 1.644 1.587 4.804.792 4.266 1.507 3.345-1.959 2.491 1.29 5.515.395 5.658 4.289 8.071 2.305 3.28-3.813 2.506-.218 2.742 2.894 3.42.645 2.231-2.612 2.604-.137 4.337 3.007 5.773-.129 8.771 5.522 9.562 3.661 3.812-2.097 6.287.396 4.596 3.273 4.186-3.548 5.118 1.048 4.586 2.628 5.435-.201 5.199-2.709 2.742.073 3.482 3.692 3.756.975 4.66 3.878 4.078-.452 2.685 2.774 2.168-.67-1.047-5.465zm83.414 7.03h4.724l.387-3.926-1.306 1.563-1.057-3.289.397-2.733-3.799-1.064.524 2.894-1.836.774-.387-3.144-3.669-2.225-3.677 1.314-3.402-2.104-3.007-1.306-4.464 2.757.136 1.959 7.336 2.748 2.872 2.895-4.845.653-2.879 1.313-4.321-2.773-.917-3.129-2.492-.524-3.005.79-3.29-.79-5.232 1.959s-2.628 2.894-2.371 2.894l-.515 2.225 1.296 1.299-1.039 1.572 1.563 1.975 3.29 1.435 4.714-1.048 2.63 1.048 3.918-1.306 1.571-2.104 3.272 1.185 3.934-1.693 3.685.653 3.926-3.402 1.177 2.482 3.42-.523 5.103.662-2.363-1.968zm122.1-9.778.662.798 1.371-1.064-.984-1.258zm14.527-120.095 4.274-1.056-3.677-.653-6.77-.91-2.557 1.176-2.772-1.039-1.976.902 1.46.936.119 1.37 3.96 1.112zm6.78 105.785-2.828 2.096-6.118.524-1.896-1.572-2.838 1.371-1.314 3.821.782 1.572 3.957-2.29 5.716 1.241 1.976 1.573.856-1.637 2.626-2.039 2.758-1.444-.725-1.966zm11.384-.863.187 2.161 3.425-2.426-2.184-1.04zm.275-71.772 2.997.112.26-2.749-3.137-3.659-.257-2.096-5.129-2.096-6.923-.396-2.903 2.492-3.394-1.452-3.023 2.089-.524 4.603 2.887 3.917 5.384 1.065 1.573 1.427 4.311-.387 4.191.387zm-3.83 84.59 1.901 1.5 2.241-1.169-1.836-1.524zm-19.341-114.185.67 3.008 1.573 4.28 1.442.653.145-1.708-2.514-4.064v-2.894zm-58.632 120.667 2.371-1.04 1.701-3.023-.395-3.265-3.797-1.572-3.152 2.096 1.444.782-2.096 3.144-3.29 1.047-2.088 2.491-4.064.395-2.353-1.83-5.258-.266-3.787 1.58-4.983-3.144-4.724-1.193-2.483.661-4.459-2.225-8.917 1.967-5.498 3.023s-1.039 2.991-.896 3.265l1.057 3.088 3.023.725 2.443-.265 2.758.725 2.563-.46 2.83.395 2.104 1.765 3.288-1.378 2.041 1.113 2.628.065.797-.968 3.999-1.717 5.837 1.096 5.111-2.346 5.5.129 2.618.927 1.581-1.717 3.926-.516 2.618-3.556zm-20.219 37.64-1.441 1.112-1.782 2.959 3.288.177 2.379-1.169-.468-1.79zm-21.33-11.552-3.007-4.579h-3.537l-1.187-3.273-4.313-2.113-3.272 1.839h-3.282l-4.853-3.798-7.869 4.072-.265 2.603 2.886 2.629 4.99 1.055 4.056-.661 2.886 3.539 3.014.646 3.007 4.337 4.202 1.829 5.11-.523 4.587-2.346-.13-2.363zm42.509-21.807 2.031-2.161 2.968-1.459-3.757.733zm46.328 6.13-2.628-1.544-2.239 1.544-.446-3.82-1.738 1.535-4.329 2.112-1.566.783-3.077.902-2.291.661-3.551.39-.648 2.855 1.426 1.881-1.687 1.882-.735-1.947-2.508.649-1.141-1.355.057-.033-3.531 2.096-1.314 3.804-3.408 5.643-.55 1.54 1.483 1.37.597 1.508H586.9l-1.49-1.007-1.112 3.749 1.846 1.426 5.918-.322 5.199-3.41 3.209-.985 2.966.259 3.418-2.483 2.241-3.419 6.829-5.118 1.644-2.193 1.872-.79.571-.242 1.352-1.323-1.88-3.776 1.53-.486zm-41.781-13.104 1.839 1.065 1.111-1.572-.587-1.532zm-.999 37.826 1.911.733 1.386-3.684-1.386-.065z"/></g><path fill="#b0b7be" d="m599.502 726.34-2.895 2.814-1.039.976-.057.034 1.141 1.354 2.508-.649.735 1.946 1.687-1.881-1.426-1.882.648-2.855z"/><g fill="#bfc5ca"><path d="m605.935 332.321.726-3.467-4.264.589-1.927 1.45 2.644 1.758zm-15.841-18.236h1.573l-3.032-3.821-2.491-.838 1.057 1.837zm-10.793-11.552-3.684-3.757-1.379.331-.065 2.088 4.724 5.143.862-1.717zm3.82 15.22 2.691-.241 3.887 4.973 4.467 1.83 2.885-.331v-2.224l-2.168-2.822-5.586-3.62-2.434-.443-3.162-2.959-1.314.138.34-1.193-2.565-.791.129 3.942.727 2.951-1.589 1.386-.057 2.105.79 2.096zm-10.527 31.981.192-2.298-1.306-.855-3.03.992-1.122 3.612 2.104 1.829zm48.602 11.431-1.782-3.289-.662 3.152 2.508 2.886zM546.424 183.47s-1.444-1.829-1.314-1.829l-2.233 2.757 2.104 1.701 1.444-2.629zm-9.174-10.882-2.758 1.974 2.235 1.96zm50.192 174.848.138-3.015-2.75-2.104-1.709 1.057-2.362-1.186-2.886 1.967v3.418l-2.088 3.265.637 4.854-1.958 4.199-5.757 1.427-1.581 2.233 1.041 5.627 2.506.404 4.193 2.62 3.659.274.138 4.184 2.758 1.434 3.272-1.959.137-3.272-2.378-4.588-.507-7.085 2.223-10.352zm13.431 0 1.257 1.83.13-3.547zm-1.379-57.262 1.306-3.796-1.701-3.693-2.635-2.757-1.784 1.387.67 4.071-1.047 2.814-1.267 1.006 1.644 1.953zm39.051 74.336-1.306-3.482-1.709-3.361-.725 3.958-.589 1.434 1.773 2.363zm-10.972-.201 1.379.275.854-4.152-2.443-3.024-.065-3.394 1.324-.863-.921-2.023-1.764.766-.67 4.015 2.031 4.458-.507 2.249zm3.16-21.282-1.056-1.169-1.379.201.774 1.426zm4.007 24.241-1.766-1.516-.475 2.048 1.587 1.693zm-5.136-20.355-2.241-1.379.137 2.039 1.258.862zm-96.029-159.911 2.893-1.572h-4.586zm66.766 180.927 5.474-2.507 1.371-2.419-.332-3.877-1.974-1.854-2.096.088-6.256 3.732-2.162 2.959 1.776 2.427-.33 1.717z"/><path d="m596.23 349.911-.525-3.265 1.307-2.225-.13-6.965-1.958.797-1.194 6.564-3.41 5.489-.387 4.2-1.571 5.241-2.75 3.409-.138 3.797.792 3.007 2.748-3.135 1.306-7.732 4.991-5.635zm-9.029 26.749 2.288 1.7 2.895-1.184.346-2.096-1.12-.904-3.362.379zm27.474-22.46 1.982 2.693 3.152-.855.33-2.829-3.223-5.443-2.436-1.716-.587-5.507-2.033-4.53-.669-1.515-3.675 1.249-3.29-1.435-2.434.064 1.385 3.466.059 3.677 2.239 2.233 1.776-1.838 2.103 1.967-.259 4.74 1.703 3.273.603 5.337 2.95 2.032zm-14.721-41.759 2.83 5.788 4.594 3.668 4.144 4.853 1.847 1.193-.525 1.629-1.716 2.249-.517.83 1.701-.653.67.992 1.306.983 2.958 1.838 1.049 2.491 5.409.33 1.047.533.854-.927 1.895.854-1.708-2.225-1.122-3.281-1.966-1.765.265-5.208-.66-6.482.395-1.991-1.508-1.104-3.031-4.144-1.903-3.337-2.169-.186-1.176.556-1.726-.83-1.902.395-1.241 1.314-3.628-.153-2.887.081-1.514-.726zm8.546 61.784.724 2.242 2.636 1.7.509-3.152-3.209-2.628zm-141.224 24.378-.137 2.475 2.07 3.378h1.734l.146-4.611.581-1.508-1.202-.951zm59.849 51.715-6.03 4.958.992 1.145 3.918-.846 4.241-3.015-.299-2.765zm8.312-19.299 2.168.725.984-1.765-.854-1.71zm10.722-115.701v-2.885l1.701-1.17v-3.151l-1.831-2.749 1.306-2.492v-3.272l-3.669-1.452-7.593-6.683-4.337 1.048-4.183-1.563-3.29 1.709.79 1.693 2.5-.137.909 4.336 2.493.919 2.355 3.137v5.634l2.885 1.685.143 3.306 3.532 4.321 3.007.515zm-27.433 12.021 1.385-.911-1.185-2.709-3.676-1.024-.403 2.144 1.049 4.161h1.644zm-4.692 134.008 1.571 3.297v-2.902l-.846-2.636zm7.962-110.904-1.449-1.177-1.065-1.653-.581 1.484-1.361 1.048-.904 2.265 2.565.226 2.725-.129z"/><path d="m648.259 414.404-.654-5.885-2.094-3.418-1.968-3.015v-4.055l-.524-4.2-1.314 2.104-.13-4.337.26-2.226-1.444-.128-2.096-2.629.523-1.966 2.492.403v-4.595l-2.612-3.926.12-2.757-2.353 2.096-3.54-3.531-4.988-4.064-.776-3.022-1.177.266-2.895-.645-.128 4.055 1.58 7.078-.128 2.757-2.75-3.023-1.322.266v4.707l-.919 1.717-2.233-1.717-3.926-1.564-1.831 7.07 1.444 1.057-.393 2.87-2.235 1.064-1.829-4.063-3.798 1.571-1.982 6.192-4.137 2.16-3.482.855-3.225 3.225 3.773-5.74-.257-6.039-4.846-4.063-2.885.251-2.106 3.159-4.183 1.839-1.709 3.273 1.571 3.006-5.11 1.064-3.402-1.064-2.62 2.629-3.555.927-3.265 3.926 1.185 2.612-1.057 5.248-2.49 5.103 3.798 4.063 1.507-2.41 2.708-7.611 2.096-1.837 1.976-4.459 1.966-.918 2.435 2.289-.791 3.748 1.113 1.04 1.654-.911 1.764 1.112.275-3.279 1.387-1.105 1.846.636-.937 2.241 1.903-.257 2.895 2.161 1.452.192-1.896-2.829 1.179-1.564-.799-1.644 1.451-1.565 1.701.057 3.433 3.031 3.096.646 3.409 2.821.727 3.079 2.903 2.83-3.17-1.178-1.45.718.201 1.911-1.644 2.096 1.716 2.031.387 2.822-.789 2.306 2.563 3.409.605 3.024 3.417 3.942h4.08l3.152 2.886 3.74 1.571 2.976-1.692.443-1.983 1.845-1.371 1.178 1.499-1.306 2.121 1.184 3.394 1.114 1.459 2.563-1.911 5.007-6.441.2-3.74-1.66-2.29-1.968-4.788-3.152-2.362.719-2.959 4.482-7.764 2.428-1.434 2.563 3.619.854 3.595 1.717 2.758-.146 3.281 1.67 5.522 1.233 2.491.136-2.563.397-3.991-1.324-5.329.662-2.169 2.04-.33 1.25 2.362-.065-2.233 1.491.121zm-84.219 9.594-1.838 1.644-3.225.266.137 1.766 2.168 3.28 2.104.661 4.596-4.143.338-1.314-2.039-.726zm-4.466-72.813 1.644-.661 1.176-1.524 4.015-2.556 2.363.137.467-1.176h1.909l1.446-2.451 4.344-3.596 1.774-3.877 1.966-1.508.597-3.08-1.644-2.619-2.17 1.354-2.369 2.966-2.168-3.361-2.565-.71-3.813.267-1.983-.202.669-1.443-2.636-1.104-3.482-3.491-3.749.999-.727 2.218 3.749 1.378 1.774.46-.073 3.482-.781 3.411.129 6.231-1.306 4.345zm-2.169-55.505 1.507-1.83-1.846-3.079-3.345-1.242-1.904 2.621.517 2.693 4.28 2.893zm-10.457 140.99-4.344.855-1.379 1.572 1.057 1.249 3.15.064 1.516-1.047 1.644.983 2.558-1.321-.065-1.573zm7.038-158.169 2.628 1.499-.652-2.812-2.571-1.709zm12.36 34.263.46 2.111 3.415-.265.267-1.782-2.506-1.234zm-6.837-4.193L558 312.118l-2.241 3.072 1.904 4.74 2.241-.734 1.378-4.522-1.241-3.217.837-4.152zm-29.998-130.993-.911 3.006 3.404-.644zm25.031 81.656-4.312 2.491 1.837 4.837-.54 1.572.67 2.492 2.482-2.363.395-5.498 1.83-1.838z"/><path d="m512.476 244.143.654 1.313-1.306 2.492 1.306 5.256 2.758 4.966.12 6.554 1.573 1.185 1.32-1.056 1.444.532.129 3.668 3.54 4.587 2.353.146 2.095-2.766-1.966-2.096.138-2.225 3.926.387 3.142 2.362-3.926 5.104-1.966 2.369.387 2.088-.387 4.321 2.363 4.063 1.039-3.659 2.098-.775 1.449 3.137-1.693 3.022 2.862-.661 2.5-2.233 4.199 4.2 3.402-2.096-.797-2.499 1.579-2.362 4.201-.403 7.464 3.032 1.451 2.757 4.056 2.869 3.539 6.038 1.434-.258-1.168-6.038-3.805-6.666.525-1.839 1.958.371 2.103 2.104 2.355 1.185 2.369 4.193 5.232 1.974 1.452 3.402v3.926l2.75.927 4.061 4.724 3.145-.927-.13-1.314 3.023.654-.273 1.83-2.869 1.724 3.007 3.653 3.144 1.048 1.32-5.24-.393-2.226 1.564-1.571-1.444-1.959-3.015.12-2.62-1.306h-3.667l.128-2.491-2.483-6.336-.717-3.152 1.758-1.185 1.852 1.055 2.612-.402-.772-1.233-3.557-2.371-4.336-.185-2.041-3.483-1.587 1.299.275 3.554-2.435 1.58-1.717-1.854.467-3.788-2.176-4.281-5.385-3.419-3.556.073-4.869 3.877-.791 2.887-2.885.975-4.143-1.443-1.708-3.539-2.841-2.232.008-3.919 1.444-2.104-2.353-2.62-1.846-4.716-1.959-1.564.66-4.459 1.823-2.764-.387-4.063 1.314-3.265 5.635-5.377 2.226-1.314-1.171 2.627.243 1.839 3.031-4.861-1.057-4.33 2.234-5.231 1.693-8.521-1.831-2.233-1.176-4.588-2.104-.789-3.264-5.628.781-7.086 2.088-2.491.273-2.612-2.361-3.152-1.701.661-.267 1.701-2.49 2.104h-5.111l-.919 1.814-2.612-1.685-3.025-3.41-6.939-1.314-5.248 1.83-.646 4.063-3.691 7.344 1.063 4.467.129 7.456-2.095 9.054-1.703 4.321 2.879 6.03v2.362l-2.628 1.426-3.137-.523-2.49-3.007-.525 4.457.92 3.943zm.792 101.713-2.622-3.273.251-3.402-.387-5.248-1.563.661-.8 5.627.525 5.248-2.75-1.717 2.225 3.555-.127 2.604-3.007 3.547-2.363-.258-3.272 3.798-.267 2.749-3.685 2.103-3.667 7.732-5.231 5.111-2.887.395-2.628 4.974-2.088.652-5.248 6.829-.919 1.829.403 1.299 3.514-2.83 2.402-.403 2.37-2.491 3.895-1.484 4.062-6.142 4.201-1.451 2.885-2.484.26-1.846 2.49-2.99v-5.523l2.096-2.49 5.505-.388 1.306-3.684 2.621-2.612 2.885-.516 1.581-3.031zm-39.72 48.224.241-1.49-1.846 1.772zm.903.34 1.935 1.039-.823-2.306zm49.337-106.148-3.345-3.539h-2.451l.41 2.555 4.482 1.918zm-9.208 28.175 1.259 2.693 1.644 1.895 3.879.265 2.361 1.057 1.579-1.839-.782-1.91-3.682-.782-2.179-2.427-2.893-.451z"/></g></svg>