<svg xmlns="http://www.w3.org/2000/svg" data-name="Ebene 1" viewBox="0 0 329.627 725.004"><defs><clipPath id="a"><path fill="none" d="M0 0h329.627v725.004H0z"/></clipPath></defs><g clip-path="url(#a)"><path fill="#383b3e" d="M122.361 391.257h135.062c18.778 0 33.999-15.222 33.999-33.999V179.034c0-13.684-11.093-24.777-24.776-24.777H122.361z"/><path fill="#006fae" d="m259.299 422.451-14.316 33.906s12.295 6.18 16.641-11.787l2.219 17.696 27.579 2.911 4.138-20.637-3.557-17.38z"/><path fill="#083e63" d="m261.99 481.027 10.357 3.423 19.075-19.272-27.58-2.911z"/><path fill="#006fae" d="m57.686 408.084 6.136 37.432s-13.558 2.351-12.511-16.105l-7.252 16.294-27.24-5.207 2.021-20.95 10.4-18.894z"/><path fill="#083e63" d="m40.397 464.198-10.905.274-12.672-23.973 27.24 5.207z"/><path fill="#a4abb3" d="m83.154 320.966 4.588 2.684-3.786 9.175-24.053 67.467 1.467 2.56c.848 1.479.262 3.385-1.258 4.096l-2.426 1.136-28.446-7.43-2.368-3.22c-.772-1.051-.606-2.541.379-3.384l3.858-3.304 13.249-70.231.782-3.425 2.705-11.847z"/><path fill="#006fae" d="m45.14 317.09 38.816 15.734 4.553-11.858-40.735-17.497z"/><path fill="#a4abb3" d="M85.451 315.863c-.463 1.063-.875 1.981-1.209 2.728-.697 1.539-1.088 2.375-1.088 2.375l-35.309-15.723c-.015-.294-.03-.579-.037-.863-.014-.304-.02-.607-.034-.91-2.206-58.744 12.295-87.727 25.164-101.79a57 57 0 0 1 4.771-4.657c7.285-6.312 13.147-7.923 13.607-8.05l.019-.009c.748.262 1.469.549 2.161.882 37.037 16.732 1.658 103.911-8.045 126.017"/><path fill="#4f5356" d="M107.058 391.257h135.649c18.777 0 33.999-15.222 33.999-33.999V179.034c0-13.684-11.093-24.777-24.777-24.777H107.058z"/><path fill="#a4abb3" d="m37.276 658.947-2.721 2.375v13.761s9.732 17.973 58.107 7.649l58.056-14.951s2.425-12.018-.797-18.724l-101.386 6.889zm139.62 22.29-1.984 2.312v11.32s27.702 20.976 59.581 2.591c2.526-1.456 4.793-3.351 6.727-5.566l16.86-19.312s3.751-19.589-2.845-20.217l-40.719 31.36z"/><path fill="#083e63" d="M190.678 609.894v36.323l64.557 6.147-3.626-48.058z"/><path fill="#083e63" d="M255.237 652.365s-2.722 2.264-11.422 16.205c-2.017 3.218-4.015 5.857-5.907 8.011-2.49 2.814-4.783 4.794-6.612 6.151-.188.137-.366.266-.545.394-1.829 1.292-3.854 2.255-5.978 2.924-30.732 9.597-47.874-4.812-47.874-4.812-1.814-2.551-1.777-5.11-1.006-10.571 1.205-8.545 12.139-10.846 12.139-10.846l2.645-13.606zm-105.315-3.308-64.65 10.765v-58.365h60.54v24.016c7.59 10.015 4.11 23.584 4.11 23.584"/><path fill="#083e63" d="M149.922 649.057c-18.37 10.816-43.12 15.131-68.37 20.441-25.26 5.321-44.28-10.549-44.28-10.549.47-19.959 23.23-18.592 23.23-18.592l5.2-3.893 9.52-7.129 7.67-5.742 2.38-1.787 15.72 7.714h.01l20.39 10.015z"/><path fill="#a4abb3" d="M175.018 361.357H85.275s-3.63 15.936 0 23.815c0 0-7.807 18.895-3.022 33.25l-2.827 23.726-2.027 49.028s-1.046 46.556 2.092 54.435c0 0-2.115 29.724 2.952 35.096 0 0-6.814 12.364 2.832 20.745h60.54s8.778-1.232 5.778-20.371c0 0 3.343-19.571-.195-41.264 0 0 .757-16.998-3.901-25.161 0 0 3.836-10.695.822-20.828"/><path fill="#d0d4d8" d="M180.323 557.405s-2.497 23.083 4.994 30.778c0 0-9.634 13.63 5.361 21.712l60.931-5.589s6.721-6.36 3.627-17.44c0 0-4.754-61.795-14.089-73.089 0 0 2.892-10.791 1.013-17.409 0 0 .537-4.963-.805-12.96 0 0 4.832-64.8-4.832-87.135 0 0 6.174-18.544-3.222-34.916h-97.507s22.889 119.103 29.131 129.362l3.657 9.405"/><path fill="#8a9097" d="M238.44 384.855s-56.261 9.84-88.296 47.401l-1.605-7.639s18.074-39.586 87.725-56.67c0 0 4.379 8.181 2.176 16.908"/><path fill="#8a9097" d="M150.145 432.256s-51.822-16.338-64.87-47.084c0 0-5.917-9.872-.772-19.609 0 0 53.274 60.648 64.037 59.054z"/><path fill="#006fae" d="M168.888 517.214s25.741 23.3 72.259-3.437c0 0 3.866-5.051 1.013-17.409 0 0-53.502 12.661-73.578 3.756 0 0-3.748 11.125.306 17.09m-91.634-2.051s19.696 20.714 70.244-.507c0 0 4.705-6.234.822-20.828 0 0-28.131 16.474-71.025 3.961 0 0-3.243 11.24-.04 17.374"/><path fill="#083e63" d="M85.275 341.476h148.026v19.881H85.275z"/><path fill="#d0d4d8" d="M85.275 341.476s-33.046-132.312 5.128-152.512h161.39l5.955 8.433-24.447 144.079zm216.545-24.368-.178 8.57-7.269 68.702-.735 6.949-.456 4.304-.958 9.062 2.833 6.596c.886 1.211.66 2.93-.509 3.854l-2.545 2.015-32.704-4.709-1.876-1.58c-.966-.815-1.107-2.279-.316-3.273l1.709-4.17-4.431-78.158-.74-11.412 14.375-4.693z"/><path fill="#d0d4d8" d="m301.82 317.108-34.335 4.052-13.84 2.698s-1.044-1.721-2.695-4.814a203 203 0 0 1-5.461-11.085 219 219 0 0 1-4.471-10.578c-2.24-5.717-4.462-12.139-6.362-19.04-3.992-14.493-6.288-29.702-5.187-44.813.586-8.037 2.156-16.003 4.901-23.536a76.4 76.4 0 0 1 5.059-11.069c1.333-2.386 2.418-5.019 4.177-7.109 2.032-2.415 4.903-2.66 7.861-2.756 22.594-.729 35.819 18.163 41.072 36.645 6.578 23.143 4.569 48.342 7.827 72.21.18 1.324.572 7.135.644 8.498.08 1.486.739 9.163.81 10.696"/><path fill="#006fae" d="M253.749 325.451s25.317-8.987 48.073-8.331l-1.455-19.206-54.877 10.045 3.105 8.011a33.4 33.4 0 0 0 2.601 5.279z"/><path fill="#d0d4d8" d="M229.993 112.408c0 19.026-.194 36.856-8.916 49.725-13.551 19.963-36.054 31.498-62.759 31.498-22.306 0-42.621-3.864-55.709-18.009a47 47 0 0 1-6.314-8.631l-.011-.011c-8.172-14.258-12.626-32.007-12.626-51.496 0-11.411 1.528-22.223 4.432-32.086 0 0 0-.012.011-.023 9.459-32.108 33.536-54.196 67.148-54.196 43.929 0 74.744 34.671 74.744 83.229"/><path fill="#083e63" d="M198.145 150.337s-34.393 43.565-101.849 16.653l-.011-.011c-8.172-14.258-12.627-32.007-12.627-51.496 0-11.411 1.529-22.223 4.433-32.086 0 0 0-.011.011-.023.854-1.1 42.583-53.974 106.767 1.112 2.136 1.832 3.569 4.392 4.044 7.209 2.138 12.681 7.477 49.474-.768 58.642"/><path fill="#8a9097" d="M223.69 94.334c-8.606 0-17.271 7.953-17.271 21.688s6.976 24.871 15.582 24.871h8.504l1.689-46.559z"/><path fill="#d0d4d8" d="M214.923 116.023c0 13.736 6.976 24.871 15.582 24.871s15.582-11.135 15.582-24.871-5.287-21.688-13.893-21.688-17.271 7.952-17.271 21.688"/><path fill="#87b8e4" d="M113.057 100.104c4.89-8.889-7.844-17.04-13.254-8.474-1.368 2.167-2.487 5.153-3.169 9.224-3.638 21.711-3.329 44.29 7.719 44.29s-3.763-26.535 5.122-39.32c1.475-2.123 2.649-4.024 3.582-5.72"/><path fill="#006fae" d="M90.403 188.964v-15.183l7.916-3.545s13.125 23.188 77.822 15.662c0 0 17.922-1.818 41.71-19.386l9.106 4.897-.161 17.635s-44.096 26.4-78.375 24.923c-26.322-1.134-50.178-8.811-58.018-25.003"/><path fill="#8a9097" d="M171.079 224.42h-48.613c-5.545 0-10.04 4.495-10.04 10.041v53.79c0 5.545 4.495 10.041 10.04 10.041h48.613c5.545 0 10.041-4.496 10.041-10.041v-53.79c0-5.546-4.496-10.041-10.041-10.041"/><path fill="#eff1f2" d="M159.686 224.42h-48.613c-5.545 0-10.04 4.495-10.04 10.041v53.79c0 5.545 4.495 10.041 10.04 10.041h48.613c5.545 0 10.041-4.496 10.041-10.041v-53.79c0-5.546-4.496-10.041-10.041-10.041"/><path fill="#4f5356" d="M112.784 240.411h45.192v15.245h-45.192z"/><path fill="#083e63" d="M112.784 267.055h23.573V282.3h-23.573z"/><path fill="#006fae" d="M143.134 267.055h14.842V282.3h-14.842z"/><path fill="#4f5356" d="M90.403 188.964S68.58 269.079 79.139 312.188c0 0-34.699-106.599 11.264-123.224"/><path fill="#a4abb3" d="M220.481 341.476h12.82l5.549-32.707-19.619-70.862z"/><path fill="#4f5356" d="M259.678 185.326s-34.76 46.063-17.067 116.008l-3.761 7.435s-40.169-79.898-5.553-123.443zM158.219 298.292s11.828 24.335 87.27 28.41l-2.441 9.807s-86.087-5.675-94.484-38.217z"/></g></svg>