<svg xmlns="http://www.w3.org/2000/svg" data-name="Barrier with Fence" viewBox="0 0 1600 900"><path fill="#d0d4d8" d="M782.95 555.89H728.9V261.97h42.13v-16.21H728.9v-19.27h-16.21v19.27h-37.08v-19.27H659.4v19.27h-39.21v-19.27h-16.21v19.27H566.9v-19.27h-16.21v19.27h-34.58v-19.27H499.9v19.27h-37.08v-19.27h-16.21v19.27H407.4v-19.27h-16.21v19.27h-37.08v-19.27H337.9v19.27h-37.78v16.21h37.78v293.92h-40.76v16.21h40.76v22.93h16.21V572.1h37.08v22.93h16.21V572.1h39.21v22.93h16.21V572.1h37.08v22.93h16.21V572.1h34.58v22.93h16.21V572.1h37.08v22.93h16.21V572.1h39.21v22.93h16.21V572.1h37.08v22.93h16.21V572.1h54.05zm-428.87 0V261.97h37.08v293.92zm53.3 0V261.97h39.21v293.92zm55.42 0V261.97h37.08v293.92zm53.3 0V261.97h34.58v293.92zm50.79 0V261.97h37.08v293.92zm53.3 0V261.97h39.21v293.92zm55.42 0V261.97h37.08v293.92z"/><path fill="#c1c7cc" d="m1217.07 673.52-72.78-19.96v-407.1l72.78-6.12z" data-name="Purple Beam 2"/><path fill="#d0d4d8" d="m1217.07 673.52 85.82-15.11V246.46l-85.82-6.12z" data-name="Purple Beam 1"/><path fill="#9e2896" d="m536.92 330.73-14.56 8.26v36l658.32 2.75v-13.99H536.92z" data-name="Purple Barrier 2"/><path fill="#c535bc" d="M536.12 330.73h644.56v33.02H536.12z" data-name="Purple Barrier 1"/><g fill="#d0d4d8"><path d="M734.22 330.73h66.04v16.51h-66.04z" data-name="Grey Strip 4"/><path d="M852.35 330.73h66.04v16.51h-66.04z" data-name="Grey Strip 3"/><path d="M970.47 330.73h66.04v16.51h-66.04z" data-name="Grey Strip 2"/><path d="M1088.59 330.73h66.04v16.51h-66.04z" data-name="Grey Strip 1"/><path d="M616.1 330.73h66.04v16.51H616.1z" data-name="Grey Strip 4"/></g></svg>