<svg xmlns="http://www.w3.org/2000/svg" data-name="Ebene 2" viewBox="0 0 1600 900"><path fill="#c5c7c9" d="M1555.32 450.94c.12-.12.24-.24.36-.35h-4.62c.12.11.23.23.35.34-8.58 8.47-17.16 16.93-25.74 25.4-8.67-8.44-17.34-16.88-26.02-25.32.12-.12.24-.24.36-.35h-4.62l.35.35c-8.58 8.43-17.15 16.86-25.73 25.28-8.66-8.47-17.32-16.94-25.99-25.4.12-.11.23-.23.35-.34h-4.58c.11.11.23.22.34.33-8.58 8.41-17.16 16.83-25.74 25.24-8.67-8.45-17.32-16.93-25.98-25.39.12-.11.23-.23.35-.34-1.53 0-3.05-.02-4.58-.03.11.11.23.22.34.34l-25.72 25.06c-8.66-8.45-17.32-16.89-25.98-25.34.11-.11.23-.22.34-.33-1.52 0-3.04-.02-4.56-.03.11.11.22.22.34.32-8.57 8.33-17.13 16.67-25.73 24.96-8.67-8.49-17.33-17-25.93-25.56.11-.11.23-.22.34-.33-1.52-.03-3.04-.06-4.56-.1l.34.34c-8.57 8.23-17.14 16.46-25.69 24.71-8.65-8.56-17.3-17.12-25.89-25.75.11-.11.23-.22.34-.33-1.51-.03-3.03-.07-4.54-.1l.33.33c-8.57 8.25-17.16 16.48-25.71 24.76-8.28-8.26-16.55-16.53-24.83-24.79-.29-.39-.59-.77-.88-1.16l.2-.2c-1.51-.03-3.02-.05-4.53-.07l.33.33c-8.61 8.36-17.18 16.76-25.75 25.16-8.6-8.56-17.23-17.09-25.85-25.63.11-.11.22-.22.34-.33-1.54 0-3.09-.02-4.63-.02l.35.41c-8.61 8.57-17.2 17.17-25.75 25.81-8.59-8.44-17.26-16.79-25.9-25.18.11-.11.22-.23.33-.34l-4.53.12c.11.1.22.21.32.31-8.69 8.89-17.37 17.8-26.04 26.71-8.66-8.24-17.38-16.42-26.09-24.6.11-.11.22-.23.33-.34l-4.56.18c.11.1.22.21.33.31-8.67 8.86-17.35 17.7-26.05 26.52-8.72-8.21-17.44-16.42-26.15-24.65l.33-.33c-1.51.05-3.03.09-4.54.14.1.1.22.19.31.31-.26.27-.8.81-1.02 1.03-8.03 8.11-15.95 16.05-24.01 24.13-.2.2-.7.7-.94.95-8.74-8.25-17.47-16.51-26.18-24.8l.33-.33-4.53.09c.11.1.21.2.32.3-8.64 8.61-17.28 17.22-25.94 25.81-8.74-8.3-17.47-16.62-26.2-24.94.11-.1.21-.21.32-.31-1.5.02-3 .04-4.5.05.1.1.21.2.31.3-8.61 8.48-17.21 16.97-25.86 25.42-8.72-8.36-17.45-16.72-26.18-25.07.11-.1.21-.21.32-.31h-4.5c.11.1.21.2.32.3-8.59 8.38-17.17 16.77-25.79 25.12-8.7-8.39-17.5-16.67-26.24-25.02.1-.1.21-.2.31-.3h-4.48c.1.1.21.2.31.3-8.55 8.25-17.12 16.49-25.7 24.71-8.72-8.4-17.44-16.81-26.19-25.19.1-.1.21-.2.31-.3-1.49-.02-2.98-.03-4.47-.05.1.1.21.2.31.29-8.54 8.16-17.08 16.3-25.65 24.43l-26.26-25.06c.1-.1.2-.2.31-.29l-4.46-.06c.1.1.2.19.3.29-8.5 8.03-17.04 16.02-25.58 24.01-8.73-8.4-17.52-16.73-26.27-25.11.1-.09.2-.19.3-.28l-4.43-.12c.1.1.2.19.3.29-8.53 7.91-17.04 15.83-25.57 23.73-.25-.24-.74-.7-.95-.9-8.5-8.07-16.92-16.06-25.39-24.11.1-.09.2-.18.3-.28l-4.43-.12c.1.1.2.19.3.29-8.53 7.87-17.05 15.74-25.58 23.61-8.73-8.29-17.65-16.38-26.51-24.54l.3-.27c-1.48-.02-2.95-.05-4.43-.08l.3.27c-8.54 7.85-17.06 15.73-25.61 23.58-.25-.23-.75-.69-.95-.87-8.17-7.51-16.24-14.82-24.58-22.14-.23-.2-.79-.7-1.07-.94.09-.11.2-.19.29-.29-1.49.03-2.98.05-4.46.07.1.09.2.17.3.26-8.58 8.08-17.16 16.17-25.75 24.25-8.89-7.78-17.79-15.54-26.7-23.29.1-.09.19-.18.29-.27-1.48.03-2.96.06-4.44.08.1.08.19.17.29.25-8.64 8.12-17.19 16.34-25.78 24.51-8.85-7.73-17.76-15.4-26.66-23.07.1-.09.19-.19.29-.28l-4.43.15c.1.08.19.17.29.25-8.62 8.24-17.21 16.5-25.79 24.78-.25-.21-.75-.64-.95-.82-8.25-7.08-16.32-14.09-24.55-21.21-.23-.2-.8-.69-1.08-.93.08-.1.19-.18.28-.28-1.47.05-2.94.11-4.4.16.09.08.19.16.28.25-8.61 8.31-17.19 16.64-25.8 24.95-.25-.22-.74-.64-.95-.82-8.56-7.39-17.04-14.71-25.57-22.08.1-.09.19-.18.29-.27-1.46.06-2.93.11-4.39.17.09.08.19.16.28.24-8.61 8.33-17.22 16.66-25.79 25.03-8.83-7.64-17.66-15.28-26.49-22.91.09-.09.19-.18.28-.28-1.46.07-2.93.13-4.39.19.09.08.19.16.28.24-8.61 8.31-17.21 16.62-25.82 24.93l-26.48-22.97c.09-.09.18-.18.28-.27-1.46.06-2.92.11-4.37.17l.27.24c-8.62 8.3-17.22 16.61-25.83 24.92l-10.08-8.73c.02 1.16.03 2.32.05 3.48 2.72 2.35 5.43 4.71 8.15 7.06l-7.95 7.68c.02 1.17.03 2.34.05 3.5 3.28-3.17 6.56-6.33 9.85-9.5 8.87 7.7 17.67 15.48 26.5 23.23-8.63 8.35-17.23 16.74-25.81 25.14l-10.1-8.9c.02 1.18.03 2.36.05 3.54 2.72 2.4 5.45 4.8 8.17 7.2-2.65 2.59-5.3 5.18-7.95 7.78.02 1.19.03 2.38.05 3.56 3.28-3.21 6.56-6.42 9.84-9.62 8.85 7.81 17.65 15.67 26.48 23.51-8.67 8.48-17.24 17.05-25.84 25.59-3.36-3.02-6.72-6.04-10.07-9.06.01 1.2.03 2.4.04 3.59 2.72 2.44 5.43 4.89 8.15 7.33-2.65 2.63-5.3 5.25-7.95 7.88.02 1.21.03 2.42.05 3.62 3.28-3.25 6.57-6.5 9.85-9.75 8.82 7.95 17.62 15.91 26.42 23.88-8.7 8.62-17.29 17.34-25.92 26.03-3.35-3.07-6.69-6.16-10.03-9.25l.03 3.65c2.7 2.5 5.4 4.99 8.11 7.48-2.66 2.67-5.32 5.35-7.98 8.02l.03 3.69c3.3-3.31 6.59-6.62 9.89-9.93 8.8 8.09 17.52 16.25 26.24 24.43-8.68 8.72-17.36 17.44-26.01 26.19-3.32-3.12-6.64-6.25-9.96-9.37v3.69c2.69 2.53 5.37 5.06 8.06 7.59-2.68 2.7-5.36 5.41-8.03 8.11v3.75c3.32-3.35 6.64-6.69 9.96-10.04 8.71 8.22 17.42 16.44 26.07 24.72-8.73 8.8-17.46 17.6-26.2 26.4-3.29-3.15-6.59-6.3-9.88-9.45 0 1.24-.02 2.48-.03 3.71 2.67 2.55 5.33 5.1 8 7.65-2.7 2.72-5.41 5.44-8.11 8.15 0 1.26-.02 2.52-.03 3.78 3.35-3.36 6.7-6.73 10.05-10.09 8.64 8.29 17.28 16.59 25.93 24.87-8.82 8.77-17.62 17.55-26.45 26.31l-9.81-9.39c-.01 1.23-.04 2.46-.06 3.69 2.65 2.54 5.3 5.07 7.95 7.61l-8.22 8.1-.06 3.76 10.18-10.03c8.57 8.22 16.99 16.63 25.8 24.59-8.93 8.68-17.85 17.37-26.78 26.06-3.26-3.07-6.52-6.14-9.78-9.2-.02 1.21-.05 2.42-.07 3.62 2.64 2.48 5.28 4.97 7.92 7.45-2.75 2.67-5.5 5.35-8.24 8.03l-.09 3.7c3.42-3.31 6.82-6.63 10.23-9.94 8.61 8.1 17.47 15.97 26.26 23.88l-8 7.73c1.29-.04 2.59-.09 3.88-.13 2.03-1.95 4.05-3.9 6.07-5.86 2.02 1.8 4.01 3.64 6 5.47l3.79-.12c-2.62-2.4-5.24-4.81-7.89-7.18 8.92-8.56 17.91-17.06 26.82-25.64 8.76 8.2 17.7 16.21 26.48 24.39-2.64 2.54-5.27 5.08-7.91 7.63 1.28-.02 2.57-.04 3.85-.07 2-1.92 3.99-3.84 5.99-5.77l5.99 5.54c1.25-.02 2.51-.05 3.76-.07-2.62-2.43-5.25-4.85-7.86-7.29l1.08-1.04c8.44-8.09 17.04-15.81 25.45-23.87 8.8 8.39 17.57 16.82 26.39 25.19-2.63 2.5-5.23 5.03-7.83 7.56 1.27 0 2.55-.02 3.82-.03 1.97-1.91 3.94-3.82 5.93-5.71l5.98 5.65 3.73-.03c-2.61-2.47-5.24-4.92-7.83-7.4.28-.26.83-.8 1.06-1.02 7.96-7.68 16.09-14.87 24.13-22.45.2-.19.7-.66.94-.9 8.81 8.61 17.31 17.55 26.14 26.14-2.61 2.48-5.18 4.99-7.77 7.49 1.27 0 2.54.02 3.81.02 1.95-1.89 3.9-3.8 5.87-5.67 1.99 1.91 3.97 3.83 5.95 5.74 1.24 0 2.49.02 3.73.03-2.61-2.52-5.23-5.02-7.82-7.55.27-.26.83-.78 1.05-1 7.84-7.63 15.87-14.76 23.75-22.35.2-.19.69-.68.93-.91 8.6 8.84 17.01 17.87 25.75 26.56-2.57 2.5-5.14 5.01-7.7 7.52 1.26 0 2.53.01 3.79.02 1.94-1.9 3.88-3.79 5.83-5.69 1.99 1.91 3.95 3.85 5.94 5.76 1.23 0 2.47 0 3.7.01-2.62-2.51-5.19-5.05-7.8-7.57 8.61-8.62 17.12-17.34 25.68-26.01 8.31 8.49 17.37 16.27 25.98 24.45-2.59 2.53-5.18 5.07-7.77 7.6 1.27-.01 2.55-.03 3.82-.04 1.96-1.92 3.92-3.84 5.87-5.76 2 1.87 3.98 3.77 5.97 5.66 1.24 0 2.49-.02 3.73-.03-2.61-2.49-5.22-4.97-7.84-7.45.28-.28.81-.8 1.05-1.04 8.45-8.5 16.76-16.98 25.11-25.52 8.68 8.17 17.67 16 26.39 24.12-2.59 2.51-5.18 5.02-7.78 7.53 1.28 0 2.56-.02 3.84-.03 1.96-1.9 3.93-3.8 5.89-5.7 2.02 1.86 4.02 3.75 6.02 5.62 1.25 0 2.51-.02 3.76-.02-2.64-2.47-5.27-4.95-7.93-7.4 8.7-8.49 17.44-16.95 26.11-25.49 8.7 8.4 17.68 16.5 26.5 24.77-2.6 2.49-5.19 4.98-7.78 7.47h3.86c1.96-1.88 3.92-3.77 5.88-5.65 2.02 1.87 4.04 3.75 6.06 5.62h3.77c-2.66-2.46-5.31-4.93-7.97-7.39 8.58-8.28 17.41-16.3 25.96-24.61 8.73 8.58 17.56 17.06 26.47 25.46-2.6 2.48-5.19 4.97-7.79 7.45 1.29 0 2.58.01 3.87.01 1.96-1.87 3.93-3.74 5.89-5.62 2.02 1.89 4.05 3.75 6.08 5.62h3.78c-2.67-2.47-5.36-4.92-8.01-7.41.27-.26.8-.77 1.04-.99 8.22-7.83 16.61-15.28 24.73-23.14l.93.93c8.13 8.1 16.11 16.08 24.31 24.1.23.22.77.73 1.04.99-2.59 2.55-5.2 5.07-7.78 7.62 1.29 0 2.58-.03 3.87-.02 1.97-1.91 3.93-3.82 5.89-5.74 2.02 1.9 4.05 3.78 6.08 5.68 1.26 0 2.53-.01 3.79-.02-2.67-2.49-5.35-4.97-8-7.47 8.65-8.51 17.13-17.21 25.81-25.7 8.31 8.03 16.87 15.7 25.28 23.69.23.22.76.72 1.03.98-2.59 2.53-5.2 5.03-7.79 7.55 1.29 0 2.59 0 3.88-.01 1.97-1.9 3.93-3.81 5.9-5.71 2.03 1.89 4.05 3.78 6.08 5.67 1.27 0 2.53 0 3.8-.01l-8.01-7.47c8.63-8.39 17.23-16.82 25.79-25.27 8.77 8.28 17.6 16.51 26.36 24.81-2.61 2.53-5.22 5.05-7.83 7.57 1.3 0 2.59 0 3.89.01l5.91-5.73c2.03 1.92 4.05 3.84 6.08 5.77 1.27 0 2.53 0 3.8.01-2.67-2.53-5.33-5.07-8-7.59 8.62-8.36 17.24-16.72 25.82-25.11 8.77 8.43 17.59 16.82 26.34 25.27-2.62 2.54-5.24 5.07-7.86 7.61 1.3.01 2.6.03 3.89.04 1.98-1.91 3.95-3.83 5.93-5.74 2.02 1.95 4.04 3.91 6.06 5.86 1.27.01 2.54.03 3.81.04-2.66-2.58-5.32-5.15-7.99-7.73 8.6-8.34 17.24-16.64 25.84-24.98 8.8 8.54 17.54 17.15 26.31 25.72-2.62 2.54-5.25 5.09-7.88 7.63 1.3.02 2.6.05 3.9.07l5.94-5.76 6.06 5.97c1.27.02 2.54.05 3.81.07l-7.98-7.86c8.61-8.34 17.3-16.6 25.86-24.99 8.8 8.69 17.54 17.45 26.28 26.21-2.61 2.58-5.25 5.13-7.88 7.69 1.3.03 2.6.05 3.9.08 1.98-1.93 3.98-3.86 5.95-5.8 2.01 2.02 4.03 4.03 6.04 6.04 1.27.03 2.54.05 3.81.07-2.65-2.66-5.31-5.32-7.96-7.98 8.64-8.57 17.11-17.32 25.72-25.91 8.63 8.52 17.45 16.84 26.07 25.38-2.63 2.57-5.25 5.14-7.88 7.71 1.3.02 2.6.03 3.9.05 1.98-1.94 3.96-3.88 5.95-5.82 2.02 2 4.02 4.01 6.03 6.02l3.82.06c-2.65-2.65-5.29-5.3-7.96-7.93 8.68-8.52 17.12-17.3 25.7-25.93 8.65 8.42 17.47 16.66 26.03 25.17-2.61 2.57-5.25 5.12-7.88 7.67 1.3.02 2.6.05 3.9.07 1.99-1.93 3.98-3.84 5.95-5.78l6.03 6 3.82.06c-2.65-2.65-5.31-5.28-7.95-7.93.27-.26.79-.78 1.02-1 8.05-7.9 15.77-15.85 23.71-23.86l.94-.94c8.65 8.44 17.41 16.76 26 25.26l-7.88 7.64c1.3.02 2.6.05 3.9.07 1.98-1.93 3.96-3.85 5.94-5.77 2.02 2 4.02 4.02 6.03 6.03 1.27.03 2.55.05 3.82.08-2.65-2.65-5.29-5.31-7.95-7.95 8.67-8.44 17.11-17.11 25.66-25.66 8.66 8.51 17.37 16.97 25.95 25.57-2.6 2.54-5.25 5.04-7.88 7.56 1.3.03 2.61.07 3.91.11l5.94-5.7c2.02 2 4.02 4.03 6.03 6.04 1.27.04 2.55.08 3.82.11-2.65-2.67-5.29-5.35-7.95-8.01 8.7-8.52 17.18-17.25 25.77-25.88 8.64 8.48 17.47 16.76 26.07 25.28-2.62 2.56-5.26 5.09-7.89 7.63 1.3.03 2.61.05 3.91.08 1.99-1.92 3.97-3.84 5.95-5.76 2.01 2 4.03 3.98 6.03 5.99 1.28.03 2.55.06 3.83.1-2.64-2.66-5.3-5.31-7.96-7.95 8.7-8.52 17.19-17.26 25.8-25.88 8.66 8.42 17.5 16.65 26.11 25.12-2.63 2.54-5.26 5.09-7.9 7.63l3.92.06c1.98-1.92 3.97-3.84 5.96-5.76 2.02 1.97 4.02 3.97 6.03 5.95l3.84.06c-2.65-2.62-5.3-5.26-7.97-7.86 8.69-8.46 17.21-17.1 25.8-25.66 8.67 8.4 17.51 16.62 26.13 25.07-2.62 2.55-5.26 5.08-7.89 7.62l3.92.06c1.98-1.91 3.97-3.82 5.94-5.74 2.01 1.98 4.03 3.95 6.04 5.92 1.28.02 2.56.04 3.84.05-2.66-2.61-5.32-5.22-7.97-7.83 8.65-8.42 17.18-16.96 25.77-25.44 8.7 8.4 17.48 16.71 26.12 25.16-2.62 2.54-5.26 5.06-7.89 7.59l3.92.06c1.98-1.91 3.97-3.81 5.95-5.72 2.01 1.97 4.03 3.93 6.04 5.9l3.85.06-7.98-7.8c8.61-8.34 17.16-16.73 25.72-25.12 8.68 8.52 17.37 17.03 26.08 25.52-2.63 2.52-5.26 5.04-7.88 7.57 1.31.02 2.62.05 3.93.07l5.94-5.7c2.01 1.97 4.02 3.94 6.04 5.91 1.28.02 2.56.05 3.85.07-2.66-2.6-5.32-5.21-7.98-7.81 8.61-8.28 17.15-16.63 25.67-24.99 8.65 8.56 17.36 17.05 26.05 25.56-2.63 2.54-5.26 5.08-7.89 7.61l3.93.06 5.94-5.73c2.01 1.98 4.03 3.95 6.05 5.92l3.85.06c-2.66-2.61-5.33-5.22-7.98-7.84.26-.25.78-.75.99-.96 7.98-7.74 15.81-15.37 23.74-23.17.2-.2.7-.69.95-.94 8.62 8.56 17.39 16.97 26.06 25.48-2.63 2.55-5.26 5.09-7.9 7.63l3.94.06c1.98-1.92 3.96-3.83 5.94-5.75l6.05 5.93c1.28.02 2.57.04 3.85.07-2.66-2.62-5.32-5.24-7.99-7.85 8.58-8.34 17.14-16.71 25.69-25.08 8.65 8.57 17.36 17.06 26.05 25.58-2.63 2.55-5.26 5.1-7.9 7.65l3.94.06c1.98-1.92 3.97-3.84 5.95-5.76 2.02 1.98 4.03 3.96 6.04 5.94l3.86.06c-2.66-2.62-5.32-5.24-7.99-7.86 8.59-8.33 17.13-16.7 25.69-25.06 8.66 8.57 17.35 17.12 26.04 25.67-2.63 2.56-5.27 5.11-7.9 7.66l3.94.06 5.95-5.77c2.01 1.99 4.03 3.97 6.04 5.96l3.86.06c-2.66-2.63-5.33-5.25-7.99-7.88 8.57-8.33 17.12-16.68 25.68-25.03 3.21 3.19 6.43 6.36 9.65 9.54 0-1.27-.02-2.53-.03-3.8-2.57-2.54-5.14-5.07-7.7-7.61 2.53-2.47 5.06-4.94 7.58-7.41 0-1.3-.02-2.59-.03-3.89-3.18 3.11-6.36 6.21-9.54 9.32-8.67-8.6-17.34-17.2-26.02-25.79 8.2-8.15 16.4-16.2 24.75-24.27.21-.21.72-.68.98-.92 3.22 3.17 6.41 6.37 9.62 9.55 0-1.28-.02-2.55-.02-3.83-2.56-2.55-5.13-5.1-7.69-7.64 2.53-2.49 5.06-4.98 7.6-7.47 0-1.3-.02-2.6-.02-3.9-3.18 3.14-6.37 6.27-9.55 9.41-8.69-8.62-17.33-17.28-25.99-25.93 8.59-8.47 17.17-16.94 25.74-25.42l9.63 9.63c0-1.29-.01-2.57-.02-3.86l-7.68-7.68c2.54-2.51 5.07-5.02 7.61-7.53 0-1.31-.01-2.61-.02-3.92l-9.57 9.48c-8.66-8.65-17.31-17.31-25.96-25.97 8.59-8.52 17.18-17.03 25.78-25.54 3.21 3.21 6.41 6.42 9.62 9.62 0-1.29 0-2.58-.01-3.87-2.56-2.56-5.12-5.11-7.67-7.67 2.54-2.52 5.08-5.05 7.62-7.57 0-1.31 0-2.62-.01-3.93l-9.58 9.52c-8.65-8.64-17.3-17.29-25.95-25.93 8.59-8.53 17.19-17.06 25.79-25.59 3.21 3.19 6.41 6.39 9.63 9.58-.03-1.31.04-2.53-.05-3.9-1.68-1.69-5.14-5.1-6.41-6.39-1.26-1.29-.33-.46-1.17-1.35 2.59-2.41 5.03-4.97 7.56-7.43 0-1.31 0-2.61-.02-3.91-3.19 3.17-6.39 6.34-9.58 9.51-8.66-8.61-17.29-17.24-25.95-25.85 8.6-8.52 17.2-17.04 25.79-25.57 3.21 3.19 6.42 6.37 9.62 9.56 0-1.29 0-2.58-.01-3.87-2.56-2.54-5.11-5.08-7.67-7.62 2.54-2.52 5.08-5.05 7.62-7.57 0-1.3 0-2.6-.01-3.91l-9.58 9.52c-8.65-8.58-17.27-17.18-25.95-25.73 8.59-8.52 17.19-17.04 25.78-25.55 3.21 3.16 6.42 6.32 9.64 9.48 0-1.28-.01-2.57-.02-3.85l-7.68-7.56c2.54-2.52 5.08-5.03 7.62-7.55 0-1.29-.01-2.59-.02-3.88-3.19 3.16-6.38 6.33-9.58 9.48-.25-.24-.75-.73-.95-.94-8.05-7.92-15.97-15.69-24.05-23.59-.21-.21-.73-.71-.98-.96 8.58-8.52 17.16-17.04 25.76-25.53 3.22 3.14 6.43 6.28 9.65 9.41 0-1.28-.01-2.55-.02-3.83-2.56-2.5-5.13-5-7.69-7.5l7.6-7.51c0-1.28-.01-2.57-.02-3.85-3.18 3.15-6.37 6.29-9.55 9.44-8.67-8.45-17.34-16.9-26.01-25.36Zm-29.62 29.22c8.66 8.5 17.32 16.99 25.98 25.49-8.6 8.47-17.19 16.96-25.77 25.45-8.65-8.52-17.3-17.05-25.97-25.56 8.59-8.46 17.17-16.92 25.76-25.38M158.23 667.66c-8.7 8.93-17.37 17.89-26.12 26.76-8.74-8.28-17.4-16.66-26.24-24.83 8.66-8.77 17.34-17.54 26.01-26.31 8.79 8.12 17.61 16.2 26.35 24.37Zm-24.46-26.3c.28-.28.84-.85 1.07-1.08 8.05-8.14 15.92-16.15 23.97-24.27.2-.2.69-.69.93-.94 8.88 7.98 17.55 16.19 26.39 24.21-8.67 8.82-17.32 17.65-26.01 26.45-8.78-8.13-17.58-16.24-26.35-24.37m26.39 28.13c8.76 8.31 17.48 16.67 26.23 25-8.64 8.95-17.38 17.82-26.1 26.69-8.71-8.35-17.5-16.62-26.25-24.93 8.75-8.88 17.42-17.83 26.12-26.76m1.9-1.95c8.65-8.85 17.34-17.66 26.01-26.49 8.87 8.06 17.6 16.26 26.35 24.44-8.67 9.05-17.44 18-26.13 27.02-8.75-8.32-17.5-16.64-26.24-24.98Zm27.91-28.42c8.7-8.87 17.39-17.76 26.07-26.66 8.84 7.99 17.68 15.99 26.43 24.08-8.74 8.96-17.49 17.91-26.14 26.96-8.74-8.18-17.5-16.32-26.36-24.38m26.4 28.2c8.8 8.25 17.63 16.45 26.27 24.85-8.74 9.15-17.44 18.34-26.22 27.46-8.62-8.54-17.41-16.9-26.19-25.27 8.7-9.03 17.46-17.99 26.13-27.04Zm1.91-2c8.65-9.06 17.4-18.02 26.14-26.99 8.79 8.13 17.75 16.09 26.39 24.37-8.79 9.12-17.52 18.29-26.25 27.46-8.64-8.4-17.48-16.6-26.28-24.85Zm28.04-28.94c8.72-8.97 17.27-18.11 26.2-26.88 9.02 7.73 17.8 15.74 26.54 23.79-8.83 9.09-17.55 18.3-26.34 27.43-8.64-8.29-17.61-16.21-26.4-24.35Zm26.43 28.19c8.76 8.42 17.63 16.73 26.2 25.35-8.8 9.31-17.61 18.61-26.39 27.94-8.65-8.64-17.31-17.27-26.07-25.8 8.74-9.17 17.46-18.36 26.26-27.48Zm1.91-1.98c8.8-9.15 17.51-18.39 26.35-27.49 8.9 8.21 17.65 16.54 26.32 25-8.79 9.29-17.68 18.48-26.46 27.78-8.56-8.61-17.46-16.88-26.21-25.29m28.27-29.47c8.69-8.95 17.37-17.88 26.26-26.63.25.21.75.63.96.81 8.54 7.19 16.56 14.48 24.55 22.3.22.22.78.78 1.05 1.04-8.87 9.09-17.76 18.16-26.47 27.4-8.66-8.45-17.45-16.72-26.34-24.92ZM329.27 662c.24.24.73.71.93.91 8.2 8.02 16.06 16.09 24.02 24.36.22.23.77.8 1.03 1.08-8.86 9.3-17.73 18.61-26.54 27.96-8.56-8.91-17.21-17.71-25.92-26.48 8.79-9.31 17.67-18.53 26.48-27.82Zm1.94-2.06c8.71-9.23 17.6-18.29 26.48-27.36 8.76 8.74 17.43 17.57 25.99 26.52-8.84 9.06-17.74 18.07-26.48 27.23-8.56-8.89-17.17-17.75-25.99-26.39m28.41-29.34c8.4-8.59 16.96-16.86 25.93-24.85 8.84 8.52 17.78 16.93 26.19 25.88-8.69 8.53-17.41 17.01-26.13 25.5-8.46-9.05-17.22-17.79-25.99-26.54Zm25.98 30.49c8.55 9.27 17.13 18.5 25.63 27.81-8.84 8.95-17.67 17.91-26.45 26.92-8.48-9.24-17.08-18.37-25.66-27.51 8.74-9.15 17.64-18.16 26.48-27.22m1.91-1.87c8.73-8.5 17.44-17.02 26.14-25.55 8.55 9.25 17.09 18.51 25.66 27.74-8.81 8.44-17.47 17.03-26.16 25.6-8.52-9.29-17.15-18.47-25.64-27.79m28.04-27.37c8.39-8.04 17.04-15.79 25.64-23.6 8.83 8.73 17.34 17.76 25.92 26.73-8.7 8.13-17.31 16.37-25.9 24.61-8.57-9.23-17.11-18.49-25.66-27.74m25.66 31.61c8.56 9.27 17.06 18.6 25.57 27.91-.28.27-.82.79-1.05 1.02-8.18 7.9-16.11 15.77-24.19 23.77-.2.2-.71.71-.95.96-8.6-9.26-17.01-18.7-25.54-28.03 8.7-8.57 17.36-17.17 26.17-25.63Zm1.91-1.82c8.6-8.26 17.22-16.5 25.91-24.66 8.6 9.15 17.06 18.44 25.63 27.62-8.67 8.3-17.38 16.54-25.97 24.92-8.55-9.27-17-18.63-25.58-27.88Zm27.8-26.42c8.53-8.01 17.11-15.96 25.68-23.93 8.58 8.96 17.21 17.86 25.85 26.76-8.7 8.16-17.27 16.47-25.9 24.72-.24-.25-.72-.77-.92-.98-7.96-8.53-15.72-16.96-23.69-25.49-.22-.24-.76-.8-1.03-1.08Zm25.65 31.42c8.51 9.13 17.11 18.18 25.7 27.24-8.74 8.44-17.42 16.93-26.08 25.45-8.6-9.18-17.05-18.51-25.59-27.76 8.59-8.39 17.3-16.64 25.97-24.93m1.9-1.82c8.62-8.27 17.19-16.6 25.9-24.78 8.62 8.95 17.16 17.98 25.75 26.96-8.65 8.34-17.31 16.68-25.95 25.04-8.59-9.05-17.19-18.09-25.7-27.22m27.79-26.55c8.56-8.06 17.16-16.08 25.69-24.17 8.62 8.8 17.25 17.6 25.88 26.39-8.62 8.21-17.24 16.42-25.81 24.68-8.58-8.97-17.15-17.96-25.76-26.9m25.78 30.74c8.57 8.97 17.11 17.96 25.75 26.86-8.67 8.45-17.36 16.88-25.99 25.37-8.51-9.12-17.13-18.12-25.7-27.18q12.96-12.54 25.95-25.05Zm1.9-1.84c8.58-8.26 17.19-16.51 25.82-24.72.24.24.73.74.93.94 8.05 8.13 15.88 16.19 23.87 24.39.22.23.76.78 1.02 1.05-8.66 8.36-17.28 16.78-25.9 25.19-8.63-8.91-17.18-17.88-25.75-26.85Zm27.71-26.53c8.58-8.2 17.16-16.4 25.75-24.6 8.58 8.76 17.25 17.42 25.89 26.12-8.64 8.25-17.21 16.56-25.8 24.85-8.59-8.82-17.22-17.58-25.83-26.37Zm1 54.34c8.32-8.11 16.52-16.15 24.86-24.17 8.57 8.83 17.2 17.59 25.83 26.35-.27.27-.82.8-1.04 1.03-8.02 7.92-15.89 15.7-23.96 23.56-.2.2-.7.68-.94.92-8.61-8.88-17.21-17.77-25.79-26.67.27-.27.81-.79 1.04-1.02m26.75-26c8.6-8.3 17.17-16.63 25.81-24.88 8.61 8.72 17.25 17.4 25.9 26.07-8.63 8.36-17.25 16.73-25.87 25.1-8.66-8.73-17.28-17.48-25.85-26.29Zm27.71-26.69c8.63-8.26 17.22-16.57 25.82-24.87 8.65 8.64 17.3 17.27 25.94 25.93-.27.26-.8.77-1.03 1-8.32 8.03-16.55 15.97-24.81 23.99-8.65-8.67-17.29-17.34-25.91-26.04Zm25.94 29.83c8.64 8.67 17.25 17.38 25.93 26.01-8.65 8.44-17.34 16.84-25.93 25.34-8.62-8.75-17.24-17.5-25.87-26.24 8.62-8.38 17.24-16.75 25.87-25.11m1.9-1.84c8.6-8.35 17.22-16.67 25.84-24.99 8.6 8.62 17.38 17.06 26.01 25.66-8.64 8.44-17.28 16.89-25.92 25.33-8.67-8.64-17.29-17.33-25.93-26m27.75-26.84c.27-.26.81-.78 1.03-.99 8.03-7.75 15.88-15.38 23.88-23.15.2-.2.69-.68.94-.91 8.69 8.5 17.36 17.01 26.04 25.51-8.62 8.4-17.26 16.78-25.88 25.18-8.66-8.55-17.43-17-26.01-25.63Zm26.04 29.43c8.62 8.61 17.34 17.13 26.03 25.67-.27.26-.81.79-1.03 1.01-8.03 7.88-15.9 15.62-23.95 23.48-.2.2-.7.68-.94.92-8.69-8.57-17.39-17.13-26.03-25.74 8.64-8.45 17.28-16.89 25.92-25.34m1.91-1.87c8.61-8.43 17.26-16.8 25.89-25.21 8.68 8.52 17.36 17.03 26.05 25.53-8.65 8.42-17.29 16.86-25.9 25.33-8.7-8.53-17.41-17.05-26.04-25.65m27.8-27.07c8.61-8.41 17.24-16.79 25.87-25.18 8.66 8.49 17.36 16.95 26.06 25.41-8.62 8.44-17.24 16.88-25.88 25.3-8.7-8.5-17.37-17.02-26.05-25.53m26.1 29.3c8.68 8.5 17.38 17 26.08 25.47-8.65 8.47-17.28 16.96-25.9 25.45-8.72-8.51-17.39-17.06-26.08-25.59 8.61-8.47 17.25-16.91 25.9-25.33m1.91-1.86c8.64-8.43 17.25-16.87 25.88-25.31 8.7 8.47 17.4 16.93 26.09 25.39-8.63 8.45-17.26 16.91-25.88 25.38-8.71-8.48-17.41-16.96-26.09-25.46m27.79-27.18c8.62-8.45 17.25-16.9 25.88-25.33 8.66 8.43 17.38 16.81 26.07 25.21-8.62 8.51-17.22 17.04-25.86 25.53l-26.09-25.4Zm26.13 29.18c8.67 8.46 17.38 16.89 26.08 25.32-8.62 8.52-17.21 17.06-25.84 25.58-8.7-8.51-17.41-17.02-26.12-25.51 8.62-8.46 17.25-16.92 25.88-25.38Zm1.91-1.88c.28-.28.78-.77 1.03-1.01 8.34-8.18 16.55-16.34 24.83-24.53l26.07 25.26c-8.63 8.52-17.24 17.05-25.86 25.58-8.7-8.43-17.41-16.84-26.08-25.31Zm27.77-27.42c8.62-8.53 17.24-17.06 25.87-25.57 8.68 8.36 17.36 16.72 26.04 25.07-8.61 8.59-17.2 17.2-25.85 25.75-8.69-8.42-17.38-16.84-26.07-25.25Zm26.11 29.04c8.66 8.41 17.37 16.77 26.04 25.17-8.61 8.59-17.18 17.23-25.8 25.8-8.69-8.47-17.38-16.94-26.09-25.39 8.61-8.53 17.23-17.07 25.86-25.58Zm2.93-.9c-.22-.21-.75-.73-1.02-.99 8.64-8.57 17.23-17.18 25.84-25.77.26.25.72.7.94.91 8.4 8.09 16.75 16.08 25.08 24.18l-1.02 1.02c-8 8.01-15.87 15.86-23.87 23.87-.2.2-.69.7-.95.94-.25-.23-.74-.71-.94-.91-8.05-7.81-16.01-15.44-24.07-23.24Zm26.74-28.67c8.62-8.63 17.26-17.25 25.89-25.87 8.68 8.31 17.34 16.65 26.01 24.98-8.62 8.66-17.24 17.32-25.87 25.97-8.65-8.38-17.35-16.72-26.03-25.08m26.07 28.89c8.65 8.39 17.33 16.75 26 25.12-8.6 8.67-17.2 17.34-25.81 26-8.67-8.43-17.35-16.86-26.03-25.28zm1.91-1.91c8.63-8.65 17.24-17.32 25.86-25.98 8.65 8.35 17.32 16.69 25.99 25.02-8.61 8.7-17.24 17.37-25.85 26.06-8.67-8.36-17.35-16.71-26-25.1m27.78-27.91c8.64-8.7 17.25-17.42 25.9-26.12 8.66 8.3 17.32 16.6 25.96 24.92-8.62 8.74-17.25 17.47-25.87 26.21-8.67-8.33-17.33-16.66-25.98-25.01Zm26.02 28.83c8.67 8.35 17.31 16.73 25.94 25.12-8.61 8.73-17.2 17.48-25.82 26.21-8.65-8.43-17.29-16.86-25.98-25.26 8.61-8.7 17.24-17.38 25.85-26.08Zm1.92-1.94c8.63-8.73 17.24-17.47 25.86-26.21 8.65 8.35 17.31 16.68 25.94 25.05l-25.86 26.28c-8.63-8.39-17.27-16.77-25.94-25.12m27.79-28.15q12.945-13.14 25.92-26.25c8.65 8.33 17.3 16.66 25.9 25.04-.66.67-1.91 1.93-2.47 2.5-7.6 7.7-14.91 15.13-22.47 22.78-.2.21-.7.71-.95.96-8.64-8.35-17.29-16.7-25.94-25.04Zm1.12 54.14c8.01-8.14 15.88-16.13 23.89-24.28.2-.21.7-.71.95-.96 8.66 8.43 17.32 16.86 25.93 25.34-.26.27-.79.81-1.01 1.03-8.01 8.16-15.87 16.17-23.88 24.32-.2.21-.7.71-.95.96-.25-.23-.74-.72-.94-.92-8.03-7.88-15.94-15.61-23.99-23.47-.22-.21-.75-.72-1-.98.25-.28.79-.81 1.01-1.03Zm26.77-27.2c8.63-8.76 17.25-17.52 25.9-26.26 8.66 8.41 17.3 16.84 25.92 25.28-8.64 8.76-17.27 17.54-25.89 26.32-8.62-8.47-17.28-16.9-25.93-25.34m27.82-28.22c8.62-8.73 17.24-17.46 25.92-26.13.24.24.73.71.94.91 8.05 7.82 15.94 15.52 23.97 23.37.21.21.74.72 1 .97-8.65 8.7-17.3 17.41-25.9 26.16-8.63-8.44-17.26-16.87-25.92-25.28Zm25.96 29.16c.24.24.74.72.94.92 8.06 7.93 15.98 15.72 24 23.69.21.21.74.73 1 .99-8.63 8.76-17.26 17.52-25.87 26.29-8.64-8.54-17.3-17.06-25.96-25.58 8.62-8.78 17.24-17.56 25.89-26.31m1.92-1.96c8.61-8.75 17.23-17.48 25.91-26.17 8.67 8.53 17.3 17.1 25.95 25.65-8.64 8.7-17.29 17.4-25.9 26.13a8944 8944 0 0 0-25.95-25.61Zm27.83-28.09c8.62-8.62 17.23-17.25 25.9-25.81 8.66 8.58 17.31 17.18 25.95 25.79-8.71 8.48-17.31 17.07-25.9 25.66-8.63-8.56-17.28-17.11-25.95-25.64m25.98 29.52c8.65 8.69 17.3 17.38 25.96 26.06-8.65 8.63-17.29 17.27-25.89 25.96-8.65-8.65-17.31-17.27-25.98-25.89 8.61-8.73 17.22-17.46 25.9-26.12Zm1.92-1.93c8.6-8.59 17.19-17.2 25.9-25.68 8.69 8.62 17.31 17.31 25.95 25.97-8.69 8.53-17.28 17.17-25.89 25.77-8.66-8.68-17.31-17.37-25.96-26.07Zm27.83-27.55c8.61-8.42 17.23-16.81 25.85-25.22 8.65 8.58 17.33 17.14 25.96 25.76-8.62 8.47-17.23 16.95-25.86 25.41l-.94-.94c-8.04-8.06-15.92-15.99-24-24.01-.22-.21-.73-.73-.99-.99Zm25.98 29.81c8.66 8.69 17.31 17.38 25.95 26.09-8.65 8.56-17.26 17.14-25.86 25.75-8.66-8.68-17.32-17.37-25.98-26.06 8.62-8.6 17.2-17.25 25.89-25.78m1.93-1.89c8.62-8.47 17.24-16.94 25.86-25.42 8.65 8.67 17.3 17.34 25.93 26.03-.26.26-.78.77-1 .98a8834 8834 0 0 0-24.83 24.48c-8.65-8.69-17.3-17.39-25.96-26.07m27.78-27.31c8.58-8.38 17.2-16.72 25.8-25.07 8.65 8.62 17.29 17.24 25.94 25.85-8.62 8.4-17.23 16.81-25.81 25.25l-25.93-26.02Zm25.97 29.88c8.64 8.69 17.3 17.37 25.95 26.05-8.63 8.47-17.23 16.99-25.82 25.5-8.65-8.69-17.34-17.35-25.97-26.07 8.59-8.52 17.21-17.01 25.84-25.48m1.92-1.89c8.58-8.44 17.19-16.87 25.81-25.27 8.66 8.64 17.3 17.29 25.94 25.95-8.63 8.43-17.21 16.9-25.8 25.37-8.65-8.68-17.31-17.36-25.95-26.05m27.73-27.14c8.6-8.39 17.19-16.78 25.79-25.17 8.64 8.62 17.3 17.23 25.93 25.86l-25.79 25.25c-8.64-8.66-17.28-17.31-25.94-25.94Zm25.98 29.79c8.64 8.68 17.29 17.35 25.94 26.01-8.62 8.45-17.19 16.96-25.79 25.43-8.65-8.69-17.3-17.38-25.95-26.08 8.59-8.47 17.17-16.94 25.8-25.37Zm1.92-1.88 25.79-25.25c8.63 8.67 17.29 17.31 25.94 25.95-8.6 8.43-17.2 16.86-25.79 25.3-8.65-8.66-17.3-17.33-25.94-26.01Zm27.71-27.13c8.58-8.42 17.19-16.81 25.78-25.21 8.66 8.62 17.28 17.28 25.94 25.9-8.58 8.43-17.2 16.83-25.78 25.26-8.65-8.65-17.31-17.29-25.94-25.95m25.98 29.81c8.65 8.66 17.29 17.33 25.94 25.99-8.59 8.45-17.18 16.91-25.77 25.36l-25.95-26.04c8.59-8.44 17.19-16.87 25.78-25.31m1.92-1.89c8.58-8.43 17.2-16.84 25.78-25.27 8.65 8.63 17.3 17.26 25.94 25.9-8.6 8.45-17.2 16.89-25.78 25.36-8.65-8.66-17.3-17.32-25.94-25.99m27.71-27.16c8.59-8.46 17.18-16.91 25.78-25.35 8.64 8.62 17.3 17.22 25.94 25.84-8.6 8.47-17.19 16.94-25.78 25.4-8.64-8.63-17.29-17.26-25.94-25.89m25.98 29.76c8.65 8.66 17.29 17.32 25.94 25.96-8.59 8.47-17.18 16.93-25.77 25.4l-25.95-26.01c8.58-8.46 17.18-16.91 25.77-25.36Zm1.93-1.91c.26-.25.77-.76.99-.97 8-7.87 15.85-15.61 23.83-23.49.21-.2.7-.7.95-.94 8.66 8.62 17.3 17.27 25.95 25.9-8.59 8.49-17.19 16.97-25.78 25.46-8.65-8.65-17.31-17.3-25.94-25.97Zm25.74-29.27c-8.65-8.61-17.3-17.22-25.94-25.83 8.59-8.45 17.19-16.9 25.78-25.35l25.95 25.77c-8.59 8.47-17.19 16.94-25.78 25.41Zm-27.91-27.8c-8.64-8.6-17.3-17.16-25.94-25.76 8.6-8.42 17.17-16.87 25.77-25.3 8.66 8.56 17.32 17.12 25.95 25.71-8.59 8.45-17.19 16.9-25.78 25.34Zm-1.93 1.9c-8.6 8.44-17.19 16.89-25.78 25.35-8.66-8.62-17.28-17.27-25.94-25.89l25.77-25.23c8.64 8.6 17.3 17.17 25.94 25.77Zm-53.68-2.49c-8.65-8.59-17.3-17.19-25.94-25.8 8.58-8.39 17.17-16.76 25.76-25.14 8.67 8.55 17.31 17.13 25.95 25.71-8.59 8.4-17.19 16.81-25.77 25.22Zm-1.93 1.89c-8.59 8.4-17.19 16.8-25.78 25.2-8.64-8.62-17.29-17.24-25.93-25.86 8.58-8.39 17.18-16.76 25.77-25.14 8.64 8.61 17.29 17.21 25.94 25.8m-53.67-2.61c-8.64-8.6-17.29-17.2-25.94-25.8 8.57-8.36 17.17-16.68 25.76-25.02 8.66 8.55 17.32 17.1 25.95 25.68-8.59 8.38-17.19 16.75-25.77 25.14m-1.92 1.88c-8.6 8.39-17.19 16.78-25.79 25.17-8.65-8.61-17.3-17.23-25.94-25.85 8.6-8.37 17.21-16.74 25.8-25.12 8.65 8.6 17.29 17.2 25.94 25.81Zm-53.69-2.64c-8.64-8.61-17.27-17.23-25.94-25.8 8.6-8.33 17.19-16.66 25.79-24.98 8.65 8.56 17.31 17.1 25.94 25.68-8.59 8.38-17.2 16.74-25.8 25.11Zm-2.95.86c.28.39.58.77.86 1.17-.26.25-.78.76-.99.97-7.94 7.73-15.75 15.31-23.69 23.02-.2.2-.7.68-.95.92-8.66-8.57-17.31-17.17-25.96-25.75 8.59-8.39 17.18-16.79 25.83-25.12.24.24.74.73.94.93 8.05 7.97 15.98 15.89 23.97 23.86Zm-52.7-1.61c-.24-.24-.74-.73-.94-.94-8.02-8-15.92-15.84-23.98-23.79-.21-.21-.74-.73-.99-.98 8.62-8.36 17.2-16.76 25.83-25.11 8.63 8.57 17.26 17.15 25.91 25.7-8.64 8.34-17.23 16.74-25.83 25.12m-1.92 1.89c-8.62 8.41-17.23 16.81-25.85 25.21-8.64-8.61-17.28-17.23-25.95-25.82 8.55-8.45 17.22-16.79 25.87-25.14 8.67 8.55 17.28 17.17 25.93 25.74Zm-53.75-2.54c-8.59-8.48-17.27-16.87-25.91-25.3 8.58-8.51 17.24-16.95 25.87-25.4 8.61 8.55 17.26 17.06 25.9 25.58-8.65 8.35-17.32 16.67-25.87 25.12Zm-1.93 1.91c-8.65 8.59-17.28 17.2-25.9 25.82-8.63-8.43-17.26-16.86-25.91-25.27 8.6-8.65 17.25-17.25 25.91-25.85 8.64 8.43 17.3 16.84 25.91 25.29Zm-53.76-1.33c-8.63-8.36-17.25-16.73-25.89-25.07 8.62-8.68 17.28-17.33 25.93-25.99 8.63 8.39 17.24 16.8 25.86 25.2-8.65 8.6-17.3 17.21-25.9 25.86m-1.92 1.94c-8.66 8.69-17.3 17.4-25.91 26.14-8.63-8.36-17.25-16.71-25.91-25.03 8.63-8.74 17.29-17.45 25.93-26.17 8.64 8.34 17.27 16.7 25.89 25.06m-53.79-.77c-.24-.23-.74-.71-.94-.9-8.03-7.71-15.93-15.28-23.97-22.98l-1-.96c8.64-8.76 17.3-17.51 25.96-26.25 8.64 8.3 17.27 16.61 25.9 24.93-8.65 8.72-17.3 17.44-25.95 26.17Zm-1.92 1.95c-8.65 8.74-17.29 17.48-25.92 26.24-8.64-8.32-17.29-16.61-25.96-24.9 8.66-8.72 17.29-17.46 25.95-26.19 8.65 8.28 17.29 16.57 25.93 24.86Zm-53.82-.53c-8.66-8.28-17.33-16.55-25.99-24.83 8.65-8.71 17.32-17.4 25.96-26.12 8.67 8.25 17.33 16.5 25.98 24.76-8.65 8.73-17.29 17.46-25.95 26.19m-1.92 1.93c-8.64 8.69-17.26 17.41-25.9 26.1-8.66-8.34-17.32-16.66-26-24.98.27-.26.8-.8 1.02-1.02 8.04-8.03 15.93-15.92 23.94-23.98l.95-.95c8.67 8.27 17.33 16.55 26 24.83Zm-53.85-.73c-8.69-8.29-17.35-16.62-26.04-24.92 8.65-8.62 17.29-17.25 25.93-25.9 8.67 8.29 17.35 16.57 26.03 24.85-8.63 8.67-17.27 17.31-25.92 25.96Zm-2.94.95 1.01.97c-8.62 8.63-17.27 17.23-25.9 25.85-.24-.23-.74-.71-.94-.9-8.07-7.77-16.01-15.39-24.08-23.16-.22-.21-.75-.73-1.02-.98 8.64-8.56 17.27-17.15 25.9-25.72.24.23.74.7.94.9 8.08 7.71 16.01 15.31 24.07 23.05Zm-28-24.79a8247 8247 0 0 1-24.88 24.68c-8.69-8.36-17.38-16.71-26.06-25.07 8.63-8.53 17.27-17.06 25.9-25.58 8.68 8.33 17.36 16.65 26.06 24.96l-1.02 1.02Zm-26.79 26.57c-8.63 8.52-17.25 17.04-25.87 25.57-8.69-8.4-17.42-16.75-26.07-25.2.27-.26.8-.78 1.02-1 8.04-7.86 15.9-15.61 23.9-23.5.2-.2.7-.69.94-.93 8.7 8.34 17.38 16.71 26.07 25.06Zm-53.89-1.52c-8.68-8.44-17.37-16.87-26.08-25.28 8.62-8.42 17.25-16.85 25.86-25.28 8.69 8.39 17.38 16.77 26.09 25.14-8.61 8.49-17.24 16.96-25.88 25.42Zm-1.91 1.87c-8.63 8.44-17.26 16.88-25.88 25.33-8.7-8.45-17.4-16.9-26.06-25.4 8.63-8.4 17.24-16.82 25.86-25.23 8.71 8.41 17.39 16.85 26.08 25.29Zm-54.04-2.12c-6.06-5.96-19.57-19.08-23.9-23.33s.51.39-2.07-2.17c8.93-8 17.23-16.61 25.92-24.85 8.67 8.44 17.35 16.89 26.08 25.3-8.72 8.31-17.05 16.98-26.02 25.05Zm-1.75 2c-8.63 8.39-17.26 16.77-25.87 25.17l-26.04-25.5c8.59-8.39 17.23-16.73 25.86-25.09 8.69 8.46 17.38 16.93 26.05 25.42m-53.86-2.24c-8.7-8.52-17.33-17.12-26-25.67 8.62-8.27 17.22-16.56 25.81-24.86 8.66 8.5 17.34 16.99 26.05 25.45-8.62 8.35-17.26 16.69-25.85 25.08Zm-1.91 1.86c-8.61 8.36-17.23 16.7-25.85 25.04-8.64-8.65-17.29-17.29-25.94-25.93q12.87-12.435 25.8-24.81c8.67 8.56 17.29 17.17 25.99 25.7m-53.73-2.83c-8.64-8.62-17.33-17.18-25.97-25.79.27-.26.81-.77 1.03-.98 7.98-7.63 15.82-15.13 23.79-22.76.2-.19.69-.66.93-.89 8.65 8.57 17.34 17.1 26.02 25.64-8.62 8.24-17.22 16.5-25.8 24.79Zm-1.9 1.84c-8.59 8.3-17.18 16.6-25.81 24.86-8.64-8.7-17.31-17.36-25.89-26.12 8.56-8.2 17.16-16.37 25.73-24.55 8.66 8.61 17.33 17.2 25.97 25.81m-53.63-3.23c-8.6-8.76-17.23-17.49-25.92-26.17 8.56-8.08 17.11-16.16 25.67-24.24 8.65 8.64 17.3 17.28 25.97 25.9-8.57 8.18-17.17 16.32-25.72 24.51m-1.89 1.81c-8.58 8.2-17.17 16.4-25.75 24.6-8.63-8.79-17.26-17.58-25.89-26.38 8.56-8.15 17.11-16.31 25.72-24.42 8.69 8.68 17.31 17.43 25.92 26.2m-53.56-3.74c-8.59-8.85-17.24-17.63-25.95-26.37 8.55-7.96 17.09-15.93 25.63-23.9 8.63 8.68 17.36 17.26 26.03 25.89-8.6 8.1-17.16 16.23-25.71 24.38m-2.92.72c.22.23.73.82.98 1.11-8.53 8.05-17.09 16.08-25.63 24.12-8.63-8.9-17.28-17.78-25.86-26.74 8.53-7.95 17.06-15.9 25.61-23.83l.93.93c8.12 8.11 16.15 15.99 23.97 24.4Zm-52.43-3.51c-8.52-8.88-17.25-17.58-26.03-26.2.27-.25.81-.75 1.03-.95 7.93-7.32 15.71-14.51 23.64-21.84.2-.18.68-.63.92-.85 8.75 8.62 17.36 17.38 26.03 26.07-8.53 7.93-17.08 15.83-25.59 23.77m-1.88 1.75c-8.57 7.97-17.14 15.93-25.68 23.92-8.58-8.96-17.12-17.94-25.94-26.66 8.56-7.79 17.08-15.62 25.59-23.47 8.8 8.61 17.51 17.32 26.03 26.21m-53.57-4.66c-8.73-8.61-17.46-17.22-26.18-25.83 8.53-7.77 17.05-15.55 25.56-23.33 8.72 8.59 17.45 17.16 26.2 25.71-8.51 7.84-17.03 15.66-25.58 23.45m-1.87 1.7c-8.56 7.78-17.25 15.45-25.6 23.46-8.31-8.98-17.43-17.22-26.24-25.7 8.67-7.73 17.13-15.69 25.65-23.58 8.79 8.54 17.46 17.21 26.19 25.82m-53.79-4.12a794 794 0 0 0-26.54-24.38c8.47-8.14 17.07-16.12 25.74-24.05 8.88 8.22 17.67 16.53 26.44 24.87-8.52 7.89-16.98 15.83-25.64 23.56m-1.86 1.66c-8.97 7.98-17.53 16.21-25.92 24.8-8.5-8.46-17.43-16.35-26.59-24.07 8.53-8.43 17.28-16.65 25.93-24.95 9.03 7.94 17.9 15.87 26.57 24.22Zm-54.5-.94c-8.96-7.54-17.9-15.11-26.8-22.74 8.67-8.54 17.34-17.09 26-25.63.25.22.75.62.96.81 8.66 7.51 17.19 15.02 25.77 22.56-8.67 8.31-17.4 16.56-25.94 25Zm-1.91 1.89c-.28.27-.83.82-1.06 1.05-8.22 8.12-16.17 16.18-24.21 24.48-.2.21-.7.72-.94.97-8.74-8.02-17.55-15.96-26.57-23.67l26-25.58c8.89 7.62 17.83 15.19 26.79 22.75Zm-54.76 1.14c-8.98-7.67-17.79-15.53-26.64-23.36 8.67-8.55 17.34-17.09 26-25.64 8.85 7.83 17.64 15.74 26.63 23.42-8.67 8.53-17.33 17.05-25.99 25.58m-1.89 1.86c-8.91 8.74-17.46 17.83-26.18 26.76-.24-.22-.74-.68-.94-.87-8.13-7.51-16.2-14.8-24.41-22.22-.23-.21-.79-.72-1.07-.97 8.54-8.8 17.29-17.39 25.96-26.05 8.85 7.82 17.66 15.68 26.64 23.35m-54.56.93c-8.77-7.92-17.7-15.66-26.53-23.5.28-.28.83-.82 1.06-1.06 8.33-8.31 16.58-16.54 24.87-24.82 8.83 7.82 17.69 15.6 26.56 23.38-8.67 8.65-17.42 17.23-25.96 26m-1.9 1.95c-8.68 8.9-17.36 17.78-26.06 26.66-8.83-8.02-17.52-16.21-26.39-24.19 8.62-8.7 17.23-17.4 25.92-26.03 8.84 7.86 17.74 15.64 26.52 23.56Zm-54.4.71c-8.83-7.93-17.66-15.85-26.45-23.82 8.59-8.61 17.24-17.15 25.88-25.72 8.86 7.81 17.67 15.68 26.49 23.52-8.69 8.63-17.31 17.31-25.92 26.01Zm-1.89 1.91c-8.67 8.74-17.33 17.49-25.97 26.26-8.75-8.09-17.59-16.07-26.38-24.12 8.62-8.67 17.26-17.32 25.91-25.97 8.78 7.98 17.61 15.91 26.44 23.83m-54.3.36c-.24-.22-.73-.67-.94-.86-8.16-7.39-16.21-14.6-24.4-21.96-.23-.21-.8-.72-1.08-.97 8.57-8.62 17.2-17.16 25.86-25.69 8.84 7.83 17.69 15.64 26.47 23.54-8.65 8.64-17.28 17.29-25.91 25.94m.06 3.67c8.79 8.05 17.62 16.05 26.37 24.14-8.67 8.77-17.35 17.54-26.01 26.31-8.78-8.1-17.56-16.2-26.33-24.3 8.63-8.74 17.3-17.45 25.98-26.15Zm.41 54.16c8.84 8.17 17.5 16.56 26.24 24.84-8.72 8.83-17.43 17.66-26.16 26.49-.24-.23-.73-.69-.93-.88l-24.17-23.01c-.23-.22-.79-.75-1.07-1.01 8.68-8.82 17.39-17.62 26.09-26.42Zm.12 55.08c8.74 8.34 17.5 16.68 26.19 25.07-8.72 8.83-17.55 17.55-26.35 26.31-8.7-8.33-17.42-16.65-26.12-24.98l1.09-1.09c8.46-8.46 16.81-16.83 25.19-25.31m1.89-1.91 26.16-26.49c8.75 8.31 17.56 16.56 26.25 24.94-8.74 8.87-17.47 17.74-26.21 26.61-8.7-8.39-17.45-16.71-26.2-25.05Zm54.34.32c8.72 8.52 17.49 16.99 26.13 25.6-8.68 8.91-17.45 17.73-26.18 26.58-8.7-8.55-17.38-17.11-26.15-25.59 8.73-8.87 17.46-17.74 26.21-26.6Zm1.9-1.93c8.74-8.87 17.45-17.77 26.1-26.73 8.78 8.37 17.57 16.73 26.19 25.27-8.71 9.02-17.43 18.04-26.17 27.04-8.63-8.61-17.41-17.06-26.12-25.58m29.13 26.39c8.11-8.36 16.06-16.58 24.14-24.95.2-.21.7-.72.94-.98 8.72 8.64 17.37 17.37 26 26.09-8.67 9.1-17.42 18.13-26.16 27.16-8.61-8.8-17.3-17.51-26-26.22l1.07-1.11Zm26.99-27.91c8.79-9.12 17.48-18.33 26.22-27.49 8.76 8.54 17.41 17.19 26.06 25.83-8.74 9.26-17.51 18.49-26.28 27.72-8.63-8.73-17.29-17.42-26-26.07Zm29 26.88c8.47-8.89 16.81-17.72 25.21-26.6.24.24.73.73.92.93 7.99 8.26 15.9 16.32 23.86 24.61.22.23.76.8 1.03 1.08-8.75 9.3-17.54 18.57-26.31 27.85-8.52-8.99-17.11-17.92-25.79-26.75.28-.3.83-.88 1.07-1.13Zm27.12-28.64c8.78-9.32 17.59-18.62 26.39-27.93 8.7 8.77 17.35 17.59 25.91 26.5-8.83 9.34-17.65 18.69-26.47 28.06-8.55-8.93-17.18-17.79-25.83-26.62Zm54.21.56c8.62 9 17.13 18.11 25.67 27.18-8.83 9.31-17.67 18.63-26.5 27.95-8.55-9.02-17.09-18.05-25.65-27.06 8.81-9.37 17.64-18.72 26.47-28.07Zm1.94-2.05c8.82-9.35 17.67-18.66 26.55-27.95 8.6 9.11 17.2 18.22 25.67 27.46-8.92 9.16-17.74 18.43-26.55 27.69-8.52-9.1-17.05-18.19-25.67-27.19Zm54.12 1.57q12.75 13.92 25.56 27.78c-8.85 9.06-17.71 18.09-26.49 27.22-8.57-9.08-17.1-18.22-25.62-27.35 8.81-9.25 17.62-18.51 26.55-27.65m2.96-.86c-.22-.24-.76-.83-1.02-1.12 8.76-9.02 17.58-17.99 26.44-26.9 8.5 9.37 16.93 18.79 25.52 28.08-8.81 8.86-17.68 17.66-26.41 26.59-.24-.26-.71-.77-.91-.99-7.93-8.59-15.72-17.04-23.62-25.66m52.85 2.11c8.54 9.26 17.02 18.58 25.58 27.83-.28.27-.83.83-1.06 1.05-8.19 8.12-16.19 16.13-24.33 24.3-.2.21-.71.71-.95.96-8.57-9.16-17.14-18.32-25.65-27.53 8.72-8.95 17.61-17.74 26.41-26.61m1.93-1.93c8.7-8.62 17.4-17.24 26.21-25.75 8.54 9.25 16.98 18.59 25.59 27.78-8.75 8.6-17.51 17.17-26.21 25.82-8.58-9.23-17.11-18.51-25.58-27.85Zm53.7 4.07c8.55 9.15 17.03 18.36 25.69 27.41-8.72 8.64-17.47 17.24-26.19 25.88-8.64-9.09-17.18-18.26-25.71-27.45 8.7-8.64 17.46-17.23 26.21-25.83Zm1.92-1.89c8.66-8.53 17.34-17.03 26.08-25.48 8.58 9.06 17.18 18.1 25.7 27.22-8.69 8.56-17.39 17.12-26.1 25.67-8.65-9.05-17.13-18.27-25.68-27.42Zm53.69 3.8c8.49 9.04 17.18 17.88 25.8 26.8-8.68 8.63-17.35 17.28-26.08 25.86l-25.8-27.03c8.7-8.54 17.4-17.08 26.09-25.63Zm1.91-1.89c8.63-8.51 17.31-16.97 26-25.42 8.6 8.89 17.2 17.78 25.79 26.67-8.71 8.47-17.39 16.96-26 25.54-8.61-8.91-17.34-17.72-25.8-26.78Zm53.72 3.23c8.54 8.84 17.16 17.6 25.87 26.27-8.69 8.54-17.33 17.13-25.98 25.71-8.71-8.74-17.32-17.56-25.89-26.44 8.61-8.58 17.29-17.07 26-25.54m1.9-1.85c8.69-8.47 17.31-17.02 25.95-25.54 8.62 8.75 17.24 17.5 25.87 26.25-8.65 8.52-17.3 17.03-25.95 25.55-8.71-8.67-17.34-17.41-25.87-26.25Zm28.86 27.16c8.34-8.21 16.59-16.34 24.91-24.51l.93.93c8.05 8.02 15.98 15.88 24.04 23.9.22.22.76.75 1.02 1.02-.26.28-.81.81-1.03 1.03-8.04 7.93-15.94 15.72-23.99 23.63-.2.2-.7.68-.94.93-8.66-8.62-17.32-17.25-25.97-25.89.28-.27.81-.8 1.04-1.03Zm26.81-26.4c8.6-8.49 17.28-16.91 25.93-25.34 8.64 8.62 17.35 17.17 26.03 25.75a6226 6226 0 0 0-25.95 25.44c-8.67-8.61-17.35-17.22-26-25.85Zm53.9 2.34c8.66 8.58 17.38 17.09 26.1 25.62-.27.26-.81.79-1.03 1.01-8.04 7.89-15.93 15.63-23.95 23.52-.2.2-.7.69-.94.93-8.76-8.49-17.47-17.02-26.12-25.62 8.62-8.51 17.27-16.99 25.95-25.45Zm1.91-1.86c8.66-8.46 17.3-16.95 25.94-25.43 8.69 8.53 17.37 17.08 26.08 25.59l-25.92 25.45c-8.72-8.51-17.44-17.03-26.1-25.61m53.98 2.07c8.72 8.52 17.43 17.05 26.15 25.57-8.63 8.5-17.26 16.99-25.9 25.48-8.72-8.54-17.45-17.07-26.17-25.6 8.64-8.48 17.28-16.97 25.92-25.45m1.91-1.88c8.63-8.49 17.25-16.99 25.9-25.46 8.72 8.5 17.42 17.01 26.12 25.52-8.63 8.5-17.26 17-25.88 25.51-8.72-8.52-17.43-17.04-26.14-25.57m53.98 1.98c8.69 8.51 17.39 17 26.11 25.49-8.6 8.56-17.19 17.13-25.81 25.67-8.54-8.07-16.91-16.2-25.14-24.65-.22-.23-.7-.79-.96-1.07 8.59-8.5 17.2-16.96 25.8-25.44m1.91-1.88c8.63-8.51 17.22-17.07 25.84-25.59 8.71 8.45 17.39 16.93 26.09 25.4-8.62 8.55-17.22 17.11-25.82 25.67-8.71-8.48-17.42-16.96-26.11-25.47Zm53.89 1.72c8.68 8.47 17.38 16.9 26.05 25.37-8.59 8.62-17.17 17.26-25.75 25.89-8.72-8.51-17.42-17.06-26.12-25.59 8.59-8.57 17.2-17.12 25.82-25.67m1.91-1.9c8.62-8.59 17.19-17.22 25.8-25.82l26.04 25.29c-8.59 8.63-17.21 17.24-25.79 25.88-8.67-8.46-17.37-16.9-26.05-25.35m53.8 1.38c8.67 8.44 17.34 16.88 26 25.34-8.58 8.67-17.17 17.33-25.75 25.99-8.68-8.48-17.36-16.95-26.04-25.43 8.59-8.64 17.2-17.26 25.79-25.9m1.9-1.92c8.6-8.67 17.2-17.35 25.81-26.02 8.68 8.39 17.32 16.83 25.98 25.26-8.6 8.69-17.19 17.39-25.78 26.09-8.66-8.45-17.33-16.89-26-25.33Zm53.74 1.14c8.67 8.46 17.32 16.94 25.96 25.43-8.59 8.71-17.17 17.42-25.76 26.12-8.65-8.49-17.31-16.98-25.98-25.45 8.59-8.7 17.18-17.41 25.78-26.1m1.91-1.93c8.62-8.73 17.21-17.47 25.82-26.21 8.65 8.46 17.31 16.91 25.95 25.38-8.6 8.75-17.2 17.51-25.81 26.25-8.64-8.48-17.29-16.96-25.96-25.42m53.72 1.1c.24.24.74.72.94.92 7.55 7.41 14.83 14.59 22.41 22.07.59.58 1.9 1.88 2.6 2.57a9108 9108 0 0 1-25.79 26.25c-.24-.24-.74-.73-.94-.92-8.04-7.94-15.96-15.73-24.02-23.65-.22-.21-.74-.73-1-.98 8.6-8.75 17.2-17.5 25.81-26.25Zm1.91-1.95c8.61-8.78 17.23-17.55 25.85-26.32 8.66 8.52 17.32 17.04 25.96 25.58-8.63 8.76-17.24 17.54-25.84 26.32-8.65-8.53-17.3-17.06-25.96-25.57Zm28.93 26.47c8.01-8.15 15.87-16.16 23.87-24.31.2-.21.7-.71.95-.96 8.69 8.58 17.34 17.19 25.99 25.8-8.62 8.73-17.22 17.49-25.84 26.22-.24-.24-.74-.73-.94-.93-8.06-7.97-15.98-15.82-24.04-23.8-.22-.21-.75-.73-1-.99.25-.28.79-.81 1-1.03Zm26.75-27.23c8.62-8.77 17.24-17.54 25.88-26.28 8.67 8.62 17.34 17.24 25.98 25.88a9125 9125 0 0 0-25.87 26.21c-8.65-8.61-17.31-17.22-25.99-25.81m53.82 1.56c8.66 8.68 17.33 17.34 26.01 26.01-8.64 8.66-17.23 17.37-25.85 26.06-8.68-8.62-17.37-17.22-26.03-25.86 8.61-8.74 17.23-17.49 25.87-26.21m1.92-1.94c8.59-8.68 17.23-17.32 25.89-25.95 8.66 8.69 17.32 17.39 25.98 26.07-8.63 8.62-17.25 17.25-25.86 25.9-8.68-8.66-17.34-17.34-26-26.02Zm53.83 2.09c8.65 8.69 17.33 17.35 26 26.03-8.61 8.61-17.24 17.21-25.83 25.84-8.69-8.64-17.36-17.3-26.02-25.97 8.61-8.64 17.22-17.28 25.86-25.9Zm1.93-1.93c.27-.26.78-.78 1.01-1.01 8.3-8.3 16.54-16.5 24.85-24.73 8.63 8.72 17.31 17.37 25.96 26.06a5691 5691 0 0 0-25.83 25.7c-8.66-8.68-17.35-17.33-25.99-26.03Zm53.78 2.3c8.65 8.7 17.3 17.4 25.98 26.08-8.61 8.52-17.2 17.05-25.79 25.58-8.67-8.65-17.36-17.28-26.01-25.96 8.58-8.6 17.19-17.17 25.83-25.7Zm1.92-1.9c8.6-8.51 17.19-17.03 25.83-25.51 8.65 8.7 17.3 17.39 25.95 26.08a7754 7754 0 0 0-25.8 25.5c-8.67-8.68-17.32-17.38-25.98-26.07m53.74 2.55c8.64 8.69 17.3 17.36 25.96 26.02l-25.77 25.44c-8.66-8.66-17.35-17.31-26-25.98 8.59-8.51 17.19-17.01 25.8-25.48Zm1.92-1.9c8.6-8.48 17.17-16.98 25.79-25.43l25.95 26.04c-8.61 8.45-17.2 16.93-25.78 25.41-8.66-8.66-17.32-17.33-25.96-26.02m52.73 3.54c.38-.27.75-.54 1.12-.81 8.6 8.62 17.21 17.24 25.81 25.87-8.6 8.46-17.18 16.93-25.75 25.42-8.66-8.67-17.32-17.35-25.98-26.02 8.26-8.16 16.52-16.32 24.8-24.46m2.9-2.85 25.78-25.36 25.95 26.01c-8.59 8.45-17.19 16.9-25.77 25.37-8.65-8.67-17.3-17.34-25.96-26.01Zm53.7 2.62c8.64 8.67 17.3 17.33 25.96 25.98-8.58 8.46-17.17 16.91-25.75 25.37q-13.02-12.96-25.98-25.98c8.58-8.47 17.18-16.92 25.77-25.37m1.92-1.9 25.77-25.41c8.65 8.65 17.31 17.29 25.96 25.94-8.59 8.48-17.18 16.96-25.77 25.45-8.66-8.65-17.32-17.3-25.96-25.97Zm53.71 2.5c8.65 8.66 17.3 17.31 25.96 25.96-8.58 8.47-17.16 16.93-25.75 25.39-8.68-8.62-17.34-17.26-25.99-25.91l25.77-25.44Zm-.04-3.88c-8.65-8.65-17.32-17.29-25.97-25.93 8.59-8.49 17.19-16.97 25.78-25.46 8.64 8.65 17.3 17.28 25.95 25.92l-25.77 25.47Zm-.22-55.27c-8.65-8.63-17.3-17.27-25.95-25.9 8.59-8.48 17.19-16.95 25.79-25.42 8.65 8.61 17.3 17.23 25.95 25.84-8.59 8.5-17.19 16.99-25.79 25.48m-.19-55.19-25.95-25.77c8.58-8.48 17.18-16.94 25.78-25.4 8.67 8.55 17.31 17.13 25.96 25.71zm-.2-55.02c-8.66-8.53-17.32-17.05-25.97-25.58 8.59-8.47 17.17-16.96 25.78-25.43 8.67 8.51 17.32 17.05 25.97 25.57-8.59 8.48-17.18 16.96-25.78 25.44m-1.94 1.9c-8.6 8.46-17.19 16.93-25.78 25.39l-.95-.95c-8.03-7.99-15.95-15.81-24.01-23.77-.21-.21-.73-.72-.99-.97 8.57-8.44 17.17-16.86 25.76-25.29 8.64 8.55 17.31 17.06 25.97 25.59m-53.69-2.24c-8.65-8.54-17.31-17.06-25.96-25.6 8.59-8.42 17.17-16.85 25.76-25.27 8.66 8.52 17.31 17.05 25.96 25.59-8.59 8.43-17.18 16.86-25.76 25.29Zm-1.93 1.89c-8.6 8.42-17.17 16.86-25.77 25.29-8.64-8.58-17.28-17.15-25.95-25.7 8.59-8.4 17.17-16.79 25.76-25.18 8.65 8.54 17.31 17.06 25.96 25.6Zm-53.68-2.35c-8.65-8.54-17.3-17.09-25.95-25.63 8.58-8.38 17.16-16.74 25.75-25.11 8.67 8.51 17.31 17.04 25.96 25.57-8.59 8.39-17.17 16.79-25.76 25.18Zm-1.93 1.88c-8.59 8.38-17.18 16.74-25.76 25.13-8.63-8.58-17.29-17.12-25.95-25.67 8.59-8.36 17.18-16.72 25.76-25.09 8.65 8.54 17.3 17.09 25.95 25.63m-53.67-2.48c-8.65-8.53-17.29-17.08-25.95-25.6 8.59-8.31 17.18-16.62 25.75-24.95 8.65 8.49 17.32 16.97 25.96 25.46-8.58 8.37-17.17 16.73-25.76 25.09m-1.92 1.87c-8.59 8.34-17.18 16.67-25.76 25.01-8.66-8.54-17.3-17.11-25.94-25.67 8.58-8.32 17.16-16.64 25.75-24.95 8.67 8.52 17.3 17.07 25.95 25.6Zm-53.66-2.59c-8.65-8.54-17.3-17.08-25.93-25.63 8.58-8.3 17.16-16.6 25.75-24.89 8.62 8.56 17.26 17.08 25.93 25.59-8.59 8.3-17.18 16.61-25.75 24.94Zm-1.94 1.87c-.26.25-.78.76-.99.96-7.99 7.75-15.85 15.35-23.84 23.1-.2.2-.7.68-.95.92-8.67-8.54-17.28-17.12-25.92-25.68 8.59-8.32 17.18-16.63 25.78-24.93 8.63 8.55 17.29 17.09 25.92 25.64Zm-28.88-26.6c-7.99 7.72-15.84 15.31-23.83 23.04-.2.2-.7.68-.94.91-8.64-8.54-17.3-17.07-25.9-25.66.26-.25.78-.77 1-.98 7.97-7.77 15.83-15.37 23.83-23.11.2-.2.7-.68.94-.92 8.61 8.6 17.24 17.19 25.89 25.75l-1 .96Zm-26.7 25.82c-8.64 8.35-17.21 16.76-25.84 25.11-8.65-8.51-17.29-17.03-25.91-25.58 8.62-8.38 17.25-16.76 25.85-25.16 8.61 8.57 17.27 17.09 25.9 25.64Zm-53.69-2.4c-8.62-8.5-17.25-16.98-25.84-25.5 8.6-8.49 17.21-16.96 25.84-25.42 8.61 8.59 17.22 17.18 25.85 25.75-8.6 8.4-17.22 16.79-25.85 25.17m-1.93 1.89c-8.63 8.46-17.29 16.9-25.88 25.42-8.63-8.4-17.23-16.83-25.86-25.22a3918 3918 0 0 1 25.9-25.67c8.59 8.51 17.21 17 25.84 25.48Zm-53.69-1.69c-.25-.24-.73-.71-.94-.91-8.34-8.12-16.59-16.18-24.91-24.26 8.62-8.69 17.27-17.35 25.92-26 8.59 8.51 17.23 16.97 25.83 25.47-8.67 8.54-17.3 17.11-25.9 25.71Zm-1.92 1.94c-8.65 8.66-17.31 17.32-25.94 26-8.63-8.32-17.26-16.63-25.89-24.94 8.65-8.75 17.3-17.49 25.97-26.23 8.64 8.37 17.23 16.79 25.86 25.16Zm-53.78-.81c-8.62-8.3-17.28-16.56-25.93-24.83.27-.27.8-.81 1.02-1.03l24.03-24.42c.2-.21.7-.71.95-.96 8.68 8.29 17.28 16.66 25.91 25.01-8.66 8.75-17.32 17.48-25.97 26.23Zm-2.94.98 1 .96c-8.64 8.76-17.31 17.51-25.96 26.27-8.65-8.26-17.31-16.51-25.98-24.76 8.68-8.76 17.34-17.55 26.02-26.31.24.23.74.7.94.89 8.06 7.67 15.95 15.24 23.98 22.95m-52.89.62c-8.67-8.24-17.34-16.49-26.02-24.72 8.68-8.78 17.35-17.56 26.03-26.35 8.67 8.25 17.36 16.48 26.01 24.75-8.67 8.78-17.34 17.55-26.01 26.32Zm-1.93 1.94c-8.64 8.72-17.3 17.41-25.96 26.11-8.68-8.27-17.35-16.56-26.02-24.84 8.65-8.68 17.3-17.34 25.97-26 8.67 8.25 17.34 16.5 26.02 24.74Zm-53.93-.6c-8.68-8.28-17.37-16.53-26.06-24.79 8.66-8.65 17.31-17.31 25.96-25.97 8.69 8.25 17.38 16.51 26.06 24.76-8.66 8.66-17.32 17.32-25.97 25.99Zm-1.93 1.94c-.26.27-.8.8-1.02 1.02-8.02 8.04-15.91 15.92-23.95 23.93-.2.2-.7.69-.94.94-8.72-8.28-17.39-16.61-26.06-24.94.27-.26.8-.79 1.02-1.01 8.05-7.96 15.95-15.79 23.95-23.79l.95-.95c8.7 8.25 17.4 16.51 26.07 24.8Zm-53.94-.92c-8.7-8.32-17.41-16.64-26.1-24.97l25.92-25.65c8.68 8.31 17.38 16.61 26.11 24.88-8.62 8.6-17.27 17.17-25.93 25.73Zm-1.92 1.9c-8.63 8.53-17.27 17.06-25.9 25.59-8.71-8.36-17.41-16.73-26.1-25.12 8.64-8.47 17.28-16.93 25.89-25.43l26.11 24.97Zm-53.94-1.41c-8.59-7.82-16.95-15.77-25.07-24.13-.22-.23-.68-.8-.93-1.08 8.57-8.43 17.18-16.83 25.75-25.26 8.71 8.36 17.4 16.72 26.13 25.06-8.6 8.5-17.25 16.95-25.88 25.42Zm-1.91 1.87c-8.62 8.43-17.24 16.85-25.87 25.28-8.72-8.4-17.4-16.83-26.07-25.28 8.61-8.37 17.24-16.72 25.83-25.12 8.72 8.36 17.41 16.74 26.11 25.12m-53.89-1.9c-.26-.25-.72-.7-.95-.92-8.39-8.16-16.76-16.21-25.16-24.31 8.6-8.34 17.2-16.68 25.8-25.03 8.71 8.39 17.42 16.77 26.14 25.16-8.6 8.37-17.21 16.74-25.83 25.1m-1.91 1.86c-8.62 8.36-17.23 16.72-25.85 25.08-.24-.24-.74-.71-.94-.91a7615 7615 0 0 1-25.1-24.53c8.56-8.32 17.2-16.57 25.78-24.88 8.71 8.4 17.43 16.8 26.11 25.23ZM743 536.5c-7.98 7.7-15.84 15.23-23.81 22.94-.2.19-.69.67-.94.9-8.68-8.48-17.38-16.93-26.09-25.37 8.58-8.25 17.17-16.49 25.74-24.75 8.7 8.43 17.42 16.85 26.11 25.29-.27.26-.8.77-1.02.99Zm-26.65 25.7c-8.59 8.3-17.18 16.59-25.8 24.86-8.68-8.54-17.37-17.06-26.01-25.65 8.57-8.21 17.16-16.4 25.74-24.61 8.71 8.45 17.4 16.91 26.07 25.4m-53.75-2.72c-8.64-8.58-17.34-17.1-26.06-25.6 8.55-8.13 17.11-16.25 25.67-24.36 8.7 8.47 17.4 16.94 26.13 25.39-8.57 8.2-17.17 16.37-25.73 24.57Zm-1.9 1.82c-8.59 8.22-17.18 16.43-25.76 24.65-8.67-8.61-17.33-17.23-25.98-25.87 8.58-8.12 17.12-16.28 25.69-24.4a3933 3933 0 0 1 26.05 25.62m-53.68-3.14c-8.65-8.62-17.36-17.17-26.06-25.73 8.54-8.04 17.09-16.07 25.63-24.11 8.66 8.53 17.39 16.99 26.1 25.47-8.56 8.12-17.11 16.26-25.68 24.37Zm-1.89 1.79c-8.56 8.08-17.12 16.16-25.67 24.24-8.67-8.63-17.4-17.2-26.03-25.87 8.57-8.01 17.09-16.07 25.65-24.1 8.7 8.56 17.4 17.12 26.05 25.74Zm-53.63-3.58c-8.63-8.66-17.36-17.22-26.11-25.77 8.54-7.91 17.07-15.84 25.59-23.78 8.7 8.51 17.48 16.95 26.16 25.48-8.55 8.02-17.08 16.06-25.64 24.07m-2.93.72 1.04 1.04c-8.53 7.98-17.08 15.94-25.63 23.91-8.67-8.69-17.25-17.48-26.03-26.06 8.52-7.87 17.03-15.76 25.56-23.63.24.24.73.72.94.92 8.13 7.94 16.09 15.77 24.12 23.82m-52.56-3.01c-8.74-8.53-17.48-17.05-26.22-25.58 8.52-7.85 17.04-15.71 25.57-23.54 8.83 8.39 17.48 16.98 26.2 25.49-8.52 7.88-17.03 15.76-25.56 23.63Zm-1.88 1.74c-8.55 7.87-17.07 15.77-25.6 23.65-8.75-8.55-17.49-17.11-26.21-25.7 8.55-7.83 17.06-15.68 25.59-23.53 8.74 8.53 17.48 17.05 26.22 25.58m-53.75-3.96c-8.63-8.49-17.56-16.65-26.41-24.9.27-.25.8-.73 1.04-.95 8.26-7.54 16.39-15.05 24.59-22.6.24.23.74.69.94.88 8.21 7.68 16.28 15.22 24.38 23.02.23.22.78.76 1.05 1.02a9496 9496 0 0 1-25.58 23.52Zm-1.88 1.72c-.27.25-.8.74-1.03.95-8.21 7.51-16.4 14.87-24.54 22.41-8.77-8.33-17.57-16.62-26.44-24.84 8.53-7.81 17.06-15.62 25.6-23.42 8.86 8.24 17.8 16.4 26.41 24.9m-53.97-3.3c-8.72-8.07-17.73-15.81-26.7-23.6 8.59-8.05 17.17-16.11 25.76-24.17 9.01 7.93 17.74 16.18 26.54 24.35-8.54 7.8-17.07 15.61-25.6 23.42m-1.88 1.72c-8.69 7.94-17.27 15.97-25.76 24.12l-26.73-23.43c8.51-8.17 17.17-16.18 25.78-24.24 8.96 7.78 17.99 15.49 26.71 23.55m-29.73-24.29c-7.99 7.5-15.9 14.79-23.8 22.37-.2.19-.69.7-.94.92-.26-.2-.76-.63-.96-.81-8.24-7.2-16.39-14.21-24.67-21.37-.23-.2-.8-.69-1.08-.93 8.5-8.24 17.18-16.3 25.78-24.45 8.95 7.71 17.85 15.48 26.72 23.28-.27.25-.82.77-1.04.98Zm-26.65 25.18-25.99 25.63c-8.98-7.68-17.77-15.58-26.62-23.41 8.6-8.49 17.27-16.91 25.9-25.36 8.91 7.71 17.76 15.5 26.71 23.15Zm-54.58.49c-8.91-7.69-17.82-15.38-26.69-23.11 8.62-8.43 17.21-16.89 25.88-25.26 8.92 7.67 17.81 15.35 26.71 23.03-8.63 8.45-17.27 16.89-25.9 25.34m-1.9 1.86c-8.67 8.55-17.34 17.09-26.01 25.64-8.85-7.8-17.72-15.57-26.56-23.38 8.54-8.54 17.23-16.94 25.88-25.38 8.87 7.73 17.83 15.37 26.69 23.12m-54.52.52c-8.81-7.77-17.74-15.41-26.59-23.14 8.62-8.45 17.23-16.9 25.85-25.35 8.87 7.71 17.74 15.42 26.61 23.14-8.64 8.43-17.33 16.82-25.87 25.36Zm-1.89 1.89c-8.65 8.63-17.29 17.27-25.94 25.89-8.83-7.84-17.63-15.71-26.49-23.52 8.59-8.55 17.19-17.08 25.86-25.56 8.85 7.73 17.76 15.41 26.58 23.19Zm-54.39.65c-.24-.22-.74-.65-.94-.83-8.2-7.22-16.26-14.32-24.48-21.54-.23-.2-.8-.7-1.08-.95 8.55-8.53 17.19-16.96 25.82-25.4 8.84 7.73 17.68 15.46 26.54 23.18-8.66 8.47-17.26 17.01-25.86 25.54m-1.88 1.88c-8.63 8.56-17.29 17.09-25.87 25.69-8.78-7.89-17.64-15.68-26.47-23.51 8.61-8.5 17.24-16.98 25.83-25.51 8.84 7.78 17.68 15.55 26.51 23.33m-54.29.46c-8.84-7.81-17.67-15.63-26.48-23.47 8.59-8.48 17.18-16.96 25.82-25.4 8.86 7.75 17.64 15.59 26.49 23.36-8.59 8.52-17.22 17-25.83 25.5Zm-1.88 1.85c-8.65 8.52-17.29 17.06-25.86 25.66-8.82-7.91-17.59-15.87-26.44-23.75 8.62-8.45 17.22-16.91 25.82-25.38 8.82 7.84 17.64 15.66 26.48 23.47m-25.8 29.29c8.81 7.93 17.68 15.8 26.43 23.8-8.68 8.7-17.33 17.41-25.98 26.14-.24-.22-.73-.67-.93-.86-8.1-7.55-16.09-14.94-24.29-22.39-.23-.21-.8-.72-1.07-.98.27-.29.82-.83 1.06-1.07 8.31-8.25 16.55-16.39 24.79-24.65Zm.5 53.65 26.34 24.3c-8.7 8.79-17.4 17.57-26.08 26.38-8.68-8.23-17.53-16.28-26.25-24.47 8.67-8.73 17.34-17.46 25.99-26.2Zm.29 54.43c.24.23.73.69.93.88 8.11 7.71 16.07 15.29 24.18 23.01.23.22.79.75 1.06 1.01-8.72 8.84-17.5 17.62-26.27 26.4-8.7-8.29-17.41-16.58-26.09-24.9 8.73-8.81 17.47-17.6 26.2-26.4Zm-.08 55.06.92.88c8.09 7.73 16.04 15.31 24.12 23.06l1.06 1.02c-8.8 8.77-17.63 17.51-26.44 26.27-8.67-8.3-17.37-16.57-26.03-24.87 8.8-8.77 17.56-17.59 26.36-26.36Zm28.05 26.82c8.77 8.41 17.45 16.91 26.2 25.33-8.76 8.63-17.63 17.14-26.45 25.71-8.77-8.23-17.49-16.5-26.2-24.79 8.86-8.7 17.63-17.5 26.45-26.25m1.92-1.91c8.79-8.75 17.63-17.47 26.35-26.3 8.77 8.48 17.45 17.04 26.15 25.59-8.71 8.74-17.51 17.4-26.3 26.07-8.75-8.43-17.43-16.94-26.2-25.36m29.23 26.16c8.21-7.97 16.14-15.95 24.25-24.01l.94-.94c8.72 8.65 17.47 17.28 26.08 26.04-8.67 8.62-17.41 17.17-26.2 25.68-8.77-8.52-17.43-17.14-26.16-25.7.28-.28.85-.83 1.08-1.06Zm27.1-26.88c8.75-8.84 17.51-17.67 26.18-26.58 8.71 8.7 17.39 17.42 26 26.22-8.63 8.89-17.34 17.69-26.12 26.43-8.62-8.77-17.39-17.37-26.07-26.07Zm54.1 1.6c8.66 8.86 17.28 17.76 25.85 26.7-8.63 8.78-17.25 17.56-25.99 26.22-8.66-8.83-17.31-17.67-25.97-26.5 8.77-8.74 17.49-17.54 26.11-26.43Zm1.9-1.96c8.75-9.03 17.49-18.08 26.16-27.18 8.7 8.82 17.27 17.77 25.8 26.76-8.64 9.12-17.33 18.19-26.12 27.16-8.58-8.95-17.18-17.88-25.84-26.74m53.86 1.58c8.54 9.01 17.06 18.04 25.62 27.03-8.65 9.05-17.31 18.1-26.07 27.05-8.56-8.96-17.11-17.94-25.66-26.92 8.79-8.97 17.47-18.05 26.11-27.16m1.92-2.02c.28-.29.84-.89 1.07-1.13 8.15-8.61 16.15-17.07 24.27-25.69.2-.22.71-.75.95-1.01 8.57 9 17.11 18.03 25.65 27.06-.28.3-.84.9-1.07 1.14-8.14 8.63-16.16 17.07-24.31 25.67-.21.22-.7.74-.95 1-8.55-9-17.09-18.01-25.61-27.04m53.86 1.23c8.5 9 17.07 17.94 25.65 26.86-8.76 9.16-17.56 18.28-26.32 27.43-8.75-8.63-17.23-17.55-25.68-26.47 8.78-9.28 17.57-18.54 26.35-27.82m1.93-2.03c8.83-9.31 17.64-18.64 26.5-27.93 8.52 9.13 17.05 18.24 25.62 27.32-8.83 9.16-17.69 18.29-26.47 27.49-8.59-8.92-17.15-17.87-25.65-26.88m54.03 1.41c8.49 9.01 17.2 17.82 25.78 26.75-8.8 8.93-17.63 17.81-26.39 26.79-8.68-8.65-17.22-17.43-25.86-26.12 8.82-9.14 17.65-18.27 26.46-27.41Zm1.94-2.01 1.08-1.12c8.45-8.79 16.91-17.38 25.4-26.06 8.51 9.2 17.1 18.33 25.65 27.49-8.77 8.85-17.61 17.62-26.36 26.49-8.59-8.94-17.29-17.76-25.77-26.8m54.05 2.34c.24.25.72.76.92.97 7.97 8.42 15.76 16.74 23.86 25.03.22.23.77.78 1.04 1.06-8.73 8.6-17.42 17.24-26.2 25.8-8.78-8.69-17.42-17.49-25.98-26.4 8.75-8.85 17.54-17.67 26.36-26.45Zm1.92-1.92c8.76-8.79 17.53-17.58 26.35-26.32 8.53 9.19 17.08 18.36 25.72 27.45-8.75 8.66-17.48 17.34-26.25 25.97-8.72-8.93-17.26-18.03-25.82-27.1m53.99 3.16c8.58 9.04 17.21 18.03 25.86 27-8.66 8.51-17.31 17.03-26.04 25.47-8.78-8.76-17.4-17.66-26.05-26.54 8.76-8.62 17.49-17.28 26.23-25.93m1.92-1.9c8.74-8.62 17.46-17.26 26.19-25.88.24.25.72.76.92.96 8 8.37 15.85 16.59 23.85 24.98.22.23.76.79 1.02 1.07-8.7 8.65-17.42 17.27-26.13 25.9-8.63-9-17.31-17.94-25.85-27.03m53.92 3.15c8.5 8.92 17.26 17.6 25.96 26.32-8.69 8.64-17.31 17.35-26.03 25.96-8.69-8.79-17.49-17.49-26.06-26.4 8.72-8.62 17.42-17.26 26.13-25.89Zm1.91-1.88c8.74-8.58 17.4-17.25 26.08-25.88 8.57 8.87 17.18 17.69 25.89 26.42-8.68 8.59-17.38 17.15-26.03 25.77-8.7-8.73-17.45-17.39-25.95-26.31Zm53.92 2.49c8.62 8.66 17.26 17.29 26 25.83-8.63 8.61-17.3 17.2-25.95 25.79-8.84-8.47-17.44-17.17-26.07-25.85 8.65-8.62 17.35-17.18 26.02-25.77m1.91-1.89c8.64-8.59 17.29-17.19 25.98-25.73 8.66 8.63 17.33 17.25 25.96 25.91-8.63 8.56-17.35 17.04-25.95 25.64-8.74-8.53-17.38-17.16-26-25.81Zm53.88 2.12c8.66 8.56 17.38 17.07 26.14 25.53-8.65 8.49-17.27 17.02-25.92 25.5-8.78-8.41-17.46-16.92-26.15-25.43 8.59-8.59 17.29-17.07 25.93-25.6m1.91-1.89c8.66-8.53 17.32-17.07 25.99-25.6 8.64 8.6 17.37 17.12 26.11 25.62-8.65 8.51-17.31 17.01-25.96 25.52-8.76-8.46-17.53-16.92-26.13-25.54Zm29.13 26.42c8.05-7.89 15.95-15.65 23.97-23.55.2-.2.7-.69.94-.93 8.76 8.51 17.45 17.09 26.19 25.6-8.62 8.45-17.28 16.85-25.9 25.29-8.77-8.44-17.53-16.9-26.25-25.4.27-.26.81-.8 1.04-1.02Zm26.83-26.36c8.64-8.49 17.29-16.98 25.94-25.46l26.17 25.6-25.92 25.47c-8.74-8.52-17.46-17.08-26.18-25.61Zm54.07 2.07c8.76 8.56 17.49 17.15 26.23 25.73-8.59 8.5-17.22 16.95-25.88 25.37-8.74-8.56-17.52-17.08-26.27-25.63zm1.91-1.88c8.63-8.49 17.26-16.99 25.89-25.49 8.73 8.55 17.45 17.1 26.18 25.66-8.62 8.51-17.24 17.02-25.85 25.55-8.74-8.57-17.47-17.16-26.22-25.72m54.03 2.1c8.71 8.56 17.43 17.1 26.14 25.64-8.6 8.55-17.17 17.14-25.78 25.68-8.73-8.6-17.47-17.19-26.21-25.78 8.6-8.53 17.22-17.04 25.84-25.55Zm1.91-1.89c.26-.25.8-.79 1.02-1.01 8.02-7.93 15.85-15.76 23.83-23.72l.95-.95c8.62 8.62 17.59 16.89 25.97 25.75-6.01 6.05-19.43 19.39-23.73 23.68-4.3 4.28.5-.51-2.07 2.04-8.37-8.88-17.38-17.13-25.97-25.79m53.88 1.84c8.68 8.49 17.37 16.99 26.05 25.47-8.58 8.62-17.16 17.25-25.72 25.89-8.72-8.52-17.42-17.08-26.12-25.62 8.6-8.57 17.21-17.13 25.78-25.74Zm1.9-1.91c8.58-8.63 17.16-17.27 25.75-25.89 8.67 8.49 17.36 16.96 26.04 25.44-8.58 8.64-17.15 17.28-25.74 25.92-8.69-8.49-17.37-16.98-26.06-25.47Zm53.76 1.47c8.67 8.48 17.34 16.97 26 25.45a62504 62504 0 0 1-25.7 25.89c-8.68-8.47-17.37-16.94-26.04-25.42 8.58-8.63 17.16-17.28 25.74-25.92m1.9-1.92c8.58-8.67 17.17-17.33 25.75-26 8.67 8.48 17.33 16.96 25.98 25.45-8.58 8.66-17.14 17.34-25.73 26a18986 18986 0 0 0-26-25.45m53.68 1.37q13.005 12.75 25.98 25.53c-8.56 8.64-17.14 17.26-25.71 25.88-8.66-8.47-17.35-16.93-26-25.42 8.58-8.66 17.15-17.33 25.72-26Zm1.9-1.92 25.76-26.12c8.66 8.52 17.32 17.04 25.97 25.56-8.58 8.7-17.17 17.4-25.75 26.09-8.65-8.52-17.32-17.02-25.98-25.53m28.95 26.44c7.99-8.07 15.82-16.01 23.79-24.1.2-.21.7-.71.95-.96 8.67 8.54 17.33 17.1 26 25.65-8.59 8.68-17.16 17.37-25.77 26.02-.24-.24-.74-.72-.94-.92-8.06-7.93-15.97-15.73-24.03-23.68-.22-.21-.75-.73-1-.99.25-.28.79-.81 1.01-1.03Zm26.65-27c8.6-8.74 17.2-17.49 25.79-26.24 8.67 8.57 17.32 17.15 26 25.72-8.6 8.73-17.2 17.46-25.8 26.18-8.66-8.56-17.33-17.1-25.99-25.66m53.75 1.42c8.67 8.59 17.34 17.18 26.03 25.75-8.6 8.7-17.21 17.39-25.81 26.08-8.68-8.54-17.36-17.1-26.03-25.66 8.6-8.72 17.2-17.45 25.8-26.18Zm1.91-1.94c8.61-8.74 17.21-17.49 25.84-26.21 8.66 8.63 17.36 17.23 26.03 25.84-8.63 8.69-17.24 17.4-25.83 26.12-8.69-8.57-17.37-17.16-26.04-25.75m53.84 1.59c8.67 8.63 17.34 17.25 26.05 25.84-8.59 8.65-17.21 17.28-25.82 25.91a4852 4852 0 0 1-26.07-25.64c8.61-8.7 17.2-17.43 25.83-26.11Zm1.91-1.93c8.62-8.68 17.21-17.39 25.85-26.05 8.66 8.67 17.33 17.33 26.02 25.97-8.61 8.63-17.24 17.25-25.82 25.92-8.71-8.59-17.38-17.21-26.05-25.83Zm53.84 1.88c8.66 8.62 17.38 17.17 26.06 25.77-8.6 8.58-17.18 17.18-25.8 25.74-8.71-8.52-17.41-17.05-26.08-25.61 8.58-8.66 17.2-17.27 25.81-25.9Zm1.92-1.93c8.59-8.63 17.22-17.22 25.83-25.83 8.64 8.68 17.35 17.29 26.01 25.95l-1 1c-7.98 7.97-15.83 15.78-23.83 23.73-.2.2-.7.7-.95.94-8.69-8.59-17.4-17.17-26.06-25.79m53.82 2.08c8.66 8.65 17.34 17.28 26.02 25.91-8.59 8.49-17.17 16.99-25.75 25.48-8.72-8.54-17.4-17.12-26.06-25.72 8.6-8.55 17.19-17.11 25.79-25.67m1.92-1.91c8.59-8.53 17.18-17.07 25.79-25.58 8.65 8.67 17.34 17.31 26 25.97-8.61 8.49-17.19 17.03-25.78 25.54-8.69-8.63-17.36-17.27-26.02-25.93Zm53.76 2.36c8.66 8.68 17.3 17.38 25.99 26.03-8.57 8.42-17.15 16.84-25.72 25.26-8.69-8.58-17.39-17.14-26.04-25.76 8.59-8.51 17.16-17.04 25.78-25.53Zm1.92-1.89 25.77-25.44c8.66 8.67 17.32 17.35 25.98 26.02-8.58 8.48-17.17 16.97-25.76 25.45-8.66-8.68-17.32-17.35-25.99-26.03m53.71 2.55c8.63 8.66 17.33 17.24 26.01 25.85-8.59 8.43-17.14 16.88-25.72 25.32l-26.04-25.74c8.6-8.46 17.17-16.95 25.75-25.43m1.92-1.9c8.57-8.49 17.16-16.95 25.76-25.42q12.96 13.02 25.98 25.98c-8.58 8.44-17.14 16.89-25.74 25.31-.25-.25-.74-.73-.95-.94-8.39-8.33-16.73-16.57-25.05-24.92Zm53.71 2.53c8.66 8.63 17.31 17.28 26 25.9-8.57 8.43-17.16 16.84-25.72 25.27-8.71-8.58-17.34-17.24-26-25.86 8.58-8.43 17.16-16.86 25.73-25.3Zm1.93-1.9c.26-.25.77-.77.99-.98l23.8-23.44c.21-.2.7-.7.95-.94 8.66 8.64 17.32 17.28 25.99 25.9-8.59 8.45-17.16 16.91-25.74 25.37-8.68-8.62-17.34-17.26-25.99-25.91m53.71 2.51c8.66 8.63 17.33 17.26 26 25.89-8.56 8.42-17.15 16.83-25.72 25.24-8.7-8.56-17.37-17.16-26.02-25.77 8.58-8.46 17.15-16.92 25.74-25.36m1.92-1.89c8.58-8.46 17.17-16.92 25.75-25.38 8.64 8.65 17.32 17.28 25.98 25.9-8.58 8.46-17.16 16.91-25.73 25.37-8.67-8.63-17.33-17.26-26-25.89m25.7-29.27c-8.66-8.65-17.32-17.3-25.96-25.96l25.77-25.47c8.65 8.65 17.3 17.3 25.96 25.94-8.59 8.5-17.18 16.99-25.76 25.49Zm-.24-55.32c-8.64-8.63-17.3-17.27-25.95-25.92 8.7-8.39 17.01-17.18 25.95-25.34 6.06 6.05 19.53 19.46 23.85 23.79 4.31 4.32-.52-.45 2.06 2.14-8.92 8.16-17.22 16.94-25.9 25.33Zm-.19-55.29-25.95-25.83 25.79-25.46c8.64 8.59 17.3 17.16 25.95 25.74-8.6 8.51-17.19 17.03-25.79 25.55m-.19-55.17c-8.64-8.58-17.29-17.15-25.96-25.7 8.6-8.48 17.19-16.96 25.78-25.44 8.65 8.54 17.3 17.08 25.97 25.6-8.6 8.51-17.19 17.03-25.79 25.54m-28.41-133.18 26.01 25.32c-8.59 8.45-17.17 16.91-25.75 25.37-8.66-8.47-17.35-16.92-26-25.4 8.58-8.43 17.16-16.86 25.74-25.3Zm-27.67 27.2c8.65 8.48 17.33 16.93 25.99 25.4-8.6 8.46-17.17 16.96-25.77 25.42-8.65-8.54-17.28-17.08-25.96-25.59zm-27.95-27.32c8.67 8.46 17.33 16.93 25.99 25.4-8.58 8.41-17.16 16.82-25.74 25.24-8.66-8.47-17.32-16.93-25.99-25.39 8.58-8.41 17.16-16.83 25.74-25.24Zm-27.67 27.14c8.67 8.46 17.33 16.92 25.99 25.39-8.6 8.41-17.17 16.85-25.76 25.26-8.65-8.52-17.29-17.05-25.96-25.56 8.57-8.37 17.17-16.71 25.73-25.09m-27.94-27.32c8.66 8.46 17.31 16.94 25.98 25.4-8.57 8.36-17.16 16.71-25.72 25.08-8.65-8.48-17.31-16.96-25.97-25.42l25.72-25.06Zm-27.65 26.94c8.67 8.47 17.32 16.95 25.97 25.43-8.59 8.36-17.16 16.74-25.76 25.1-.25-.24-.74-.73-.95-.93-8.05-7.89-15.96-15.65-24.02-23.55-.21-.21-.73-.72-.99-.97q12.855-12.555 25.74-25.08Zm-27.94-27.25c8.66 8.45 17.32 16.89 25.98 25.33-8.59 8.35-17.17 16.71-25.74 25.07-8.66-8.48-17.32-16.95-25.97-25.44 8.6-8.3 17.16-16.64 25.73-24.97Zm-27.65 26.82c8.65 8.49 17.3 16.98 25.96 25.46-8.57 8.33-17.16 16.64-25.75 24.95-8.67-8.5-17.32-17.03-25.94-25.58 8.56-8.29 17.14-16.56 25.72-24.83Zm-27.88-27.49c8.6 8.57 17.25 17.08 25.93 25.57-8.58 8.26-17.16 16.52-25.71 24.81-8.64-8.56-17.28-17.11-25.91-25.68 8.55-8.25 17.12-16.47 25.7-24.7Zm-27.62 26.55c8.63 8.56 17.26 17.13 25.9 25.69-8.59 8.3-17.17 16.6-25.75 24.91-8.66-8.55-17.29-17.14-25.89-25.75 8.56-8.3 17.14-16.57 25.73-24.84Zm-27.84-27.68c8.59 8.63 17.24 17.18 25.89 25.75-8.59 8.26-17.17 16.53-25.73 24.82-8.62-8.61-17.27-17.18-25.87-25.82zm-27.63 26.61c8.62 8.61 17.24 17.21 25.86 25.82-8.61 8.33-17.22 16.65-25.78 25.02-8.63-8.58-17.24-17.16-25.85-25.76 8.55-8.4 17.15-16.76 25.77-25.09Zm-27.79-27.75c8.61 8.61 17.23 17.21 25.85 25.81-8.62 8.33-17.22 16.7-25.77 25.1-8.61-8.58-17.23-17.16-25.83-25.75 8.56-8.41 17.14-16.8 25.75-25.15Zm-27.68 27.05c8.26 8.25 16.54 16.48 24.81 24.72.31.38.61.75.92 1.12-8.6 8.42-17.17 16.87-25.74 25.33-8.6-8.51-17.24-16.98-25.83-25.5 8.58-8.59 17.2-17.15 25.84-25.68Zm-27.78-27.57c.24.24.74.73.94.93 8.03 7.94 15.91 15.73 23.9 23.7l.99.99c-8.64 8.54-17.26 17.1-25.84 25.7-8.59-8.5-17.22-16.97-25.84-25.45 8.58-8.66 17.16-17.32 25.84-25.88Zm-27.77 27.83c8.61 8.48 17.25 16.93 25.84 25.43-8.66 8.66-17.3 17.34-25.93 26.04-8.62-8.35-17.23-16.72-25.89-25.03 8.67-8.8 17.28-17.67 25.98-26.44m-27.84-27.06c8.63 8.38 17.26 16.78 25.9 25.15-8.66 8.83-17.31 17.67-25.99 26.48-8.67-8.3-17.26-16.67-25.95-24.95 8.67-8.9 17.34-17.8 26.04-26.68m-27.97 28.66c8.68 8.28 17.29 16.63 25.96 24.93-8.68 8.8-17.34 17.61-26.01 26.43-8.65-8.27-17.34-16.49-26.01-24.75 8.71-8.84 17.39-17.73 26.06-26.61m-53.07-.96c8.4-8.52 16.69-16.98 25.03-25.5 8.7 8.2 17.43 16.37 26.09 24.6-8.67 8.89-17.34 17.77-26.06 26.62-8.68-8.25-17.39-16.46-26.08-24.69.27-.27.79-.8 1.02-1.04Zm-2.97 3.01c8.72 8.21 17.42 16.43 26.09 24.68-.27.27-.79.8-1.02 1.03-8.37 8.48-16.65 16.88-25 25.31-8.68-8.26-17.38-16.5-26.06-24.77.27-.26.8-.8 1.02-1.02 8.09-8.11 15.99-16.13 24.03-24.28.2-.21.7-.71.95-.96Zm-28.1-26.5c8.71 8.23 17.43 16.44 26.15 24.66-8.66 8.76-17.31 17.53-26 26.26-8.71-8.27-17.42-16.53-26.13-24.8 8.67-8.7 17.34-17.4 25.99-26.12Zm-27.92 28.05a59643 59643 0 0 0 26.13 24.8c-8.66 8.65-17.31 17.31-25.97 25.96-8.72-8.27-17.43-16.55-26.11-24.86 8.68-8.6 17.31-17.25 25.95-25.9m-30.04-24.77c4.33-4.3-.49.52 2.09-2.04 8.36 8.63 17.37 16.6 25.99 24.96-8.62 8.64-17.26 17.27-25.94 25.88-8.62-8.4-17.63-16.42-26.01-25.06 6.09-6.02 19.55-19.45 23.87-23.75Zm-25.95 25.8c8.72 8.3 17.45 16.6 26.17 24.91-8.64 8.55-17.28 17.09-25.92 25.64-8.73-8.33-17.43-16.69-26.14-25.04 8.64-8.5 17.28-16.99 25.89-25.51m-28.14-26.79c8.74 8.3 17.45 16.63 26.19 24.94-8.61 8.52-17.25 17-25.89 25.49l-.95-.91c-8.42-8.08-16.82-16.04-25.21-24.09 8.65-8.44 17.24-16.95 25.86-25.42Zm-27.77 27.29c8.71 8.36 17.45 16.68 26.16 25.02-8.61 8.46-17.24 16.9-25.87 25.35-8.72-8.38-17.43-16.77-26.14-25.16 8.61-8.41 17.22-16.81 25.84-25.21Zm-28.13-26.94c8.73 8.35 17.45 16.72 26.17 25.07-8.62 8.4-17.23 16.81-25.84 25.21-8.72-8.37-17.44-16.74-26.13-25.15 8.62-8.35 17.2-16.75 25.79-25.13Zm-27.7 26.98c8.69 8.41 17.41 16.78 26.12 25.17-8.6 8.34-17.2 16.68-25.8 25.03-8.71-8.42-17.41-16.85-26.11-25.28 8.6-8.3 17.19-16.61 25.79-24.91Zm-28.18-26.9c8.74 8.34 17.55 16.62 26.23 25.02-.26.26-.8.77-1.02.99-7.98 7.72-15.84 15.3-23.82 23.02-.2.19-.69.67-.93.9l-26.16-25.2c8.59-8.22 17.15-16.47 25.71-24.73Zm-27.6 26.54c8.72 8.41 17.43 16.82 26.14 25.24-8.57 8.26-17.15 16.51-25.74 24.74-8.72-8.44-17.43-16.89-26.13-25.36 8.61-8.17 17.14-16.43 25.72-24.63Zm-28.14-27.07c8.75 8.38 17.47 16.79 26.19 25.19-8.59 8.19-17.11 16.45-25.73 24.61-.24-.24-.74-.72-.94-.91-8.09-7.86-16.02-15.59-24.12-23.45-.22-.22-.77-.73-1.04-.99 8.55-8.14 17.11-16.28 25.64-24.44Zm-27.54 26.23c8.76 8.4 17.41 16.91 26.12 25.38-8.56 8.11-17.11 16.24-25.67 24.35-.24-.24-.74-.72-.94-.91-8.09-7.88-16.06-15.59-24.12-23.5-.22-.22-.77-.75-1.04-1.02 8.56-8.09 17.11-16.19 25.65-24.29Zm-28.21-26.93c8.75 8.35 17.5 16.71 26.26 25.06-8.14 7.91-16.3 15.7-24.71 23.38-.21.19-.71.61-.97.83-8.72-8.42-17.43-16.84-26.16-25.24 8.54-8 17.09-15.99 25.59-24.03Zm-27.47 25.79c8.74 8.42 17.48 16.86 26.19 25.3-8.55 8.03-17.09 16.06-25.63 24.09-8.68-8.53-17.46-16.96-26.16-25.46 8.54-7.97 17.06-15.96 25.6-23.93m-28.21-27c8.75 8.39 17.53 16.73 26.27 25.13l-25.59 23.91c-8.7-8.49-17.43-16.94-26.23-25.31l25.56-23.73Zm-27.44 25.48c.25.24.73.7.95.9 8.5 8.13 16.9 16.22 25.27 24.42-.27.25-.81.75-1.03.95-7.92 7.37-15.69 14.62-23.63 21.96-.2.18-.68.63-.92.85-8.73-8.5-17.38-17.08-26.21-25.47 8.54-7.85 17.05-15.74 25.57-23.62Zm-28.28-26.87c.67.64 1.94 1.84 2.51 2.39 7.69 7.32 15.1 14.35 22.76 21.62.23.21.78.74 1.05.99-8.5 7.9-17.03 15.77-25.56 23.63-8.79-8.34-17.57-16.68-26.35-25.03 8.54-7.86 17.04-15.76 25.59-23.6m-27.47 25.34c8.78 8.35 17.56 16.69 26.35 25.03-8.53 7.83-17.06 15.65-25.56 23.5-8.67-8.44-17.54-16.68-26.38-24.95 8.52-7.88 17.06-15.72 25.6-23.58Zm-28.46-26.39c8.86 8.16 17.78 16.25 26.51 24.54-8.54 7.87-17.08 15.72-25.6 23.61-8.81-8.21-17.64-16.4-26.5-24.56 8.53-7.87 17.06-15.73 25.6-23.59Zm-27.48 25.32c8.86 8.16 17.69 16.35 26.5 24.57-8.53 7.87-17.05 15.74-25.63 23.56-.25-.23-.74-.69-.95-.88-8.11-7.52-15.99-14.98-24.25-22.36-.29-.26-.97-.85-1.32-1.16 8.46-7.99 17.08-15.83 25.64-23.72Zm-28.59-25.73c8.97 7.87 17.84 15.84 26.63 23.92-8.58 7.9-17.17 15.79-25.66 23.79l-26.72-23.45c8.59-8.08 17.17-16.17 25.75-24.26m-27.64 26.03c8.91 7.82 17.81 15.64 26.72 23.45-8.59 8.06-17.17 16.12-25.76 24.18-8.88-7.8-17.77-15.59-26.73-23.3 8.57-8.13 17.15-16.25 25.77-24.34Zm-28.68-25.02c8.91 7.76 17.82 15.51 26.7 23.29-8.62 8.09-17.19 16.23-25.77 24.37-8.94-7.68-17.85-15.38-26.72-23.14 8.59-8.17 17.17-16.37 25.78-24.52Zm-27.68 26.31c8.87 7.76 17.78 15.47 26.72 23.14-8.6 8.14-17.25 16.22-25.78 24.43-8.9-7.68-17.81-15.34-26.72-23.01 8.55-8.24 17.17-16.39 25.78-24.57Zm-28.63-24.78c8.9 7.67 17.81 15.33 26.67 23.06-8.61 8.18-17.24 16.34-25.78 24.6-8.89-7.63-17.78-15.25-26.67-22.88 8.57-8.29 17.17-16.54 25.78-24.78m-27.67 26.61c8.89 7.63 17.78 15.25 26.67 22.88-8.67 8.37-17.26 16.82-25.87 25.24-8.87-7.72-17.74-15.43-26.61-23.15 8.55-8.38 17.2-16.66 25.82-24.97Zm-28.56-24.65c8.86 7.66 17.7 15.35 26.59 22.97-8.61 8.31-17.27 16.58-25.82 24.95-.25-.21-.74-.65-.95-.83-8.2-7.14-16.3-14.11-24.54-21.22-.23-.2-.8-.69-1.08-.93 8.58-8.33 17.18-16.64 25.79-24.95Zm-27.68 26.77c8.87 7.66 17.74 15.31 26.57 23.01-8.62 8.44-17.22 16.9-25.85 25.34-.25-.21-.74-.65-.95-.83-8.22-7.17-16.29-14.22-24.5-21.4-.23-.2-.8-.7-1.08-.94 8.57-8.42 17.16-16.83 25.8-25.18Zm-28.48-24.59c8.84 7.64 17.67 15.27 26.52 22.9-8.64 8.35-17.22 16.76-25.82 25.16-.25-.22-.73-.64-.94-.83a8434 8434 0 0 0-25.56-22.2c8.57-8.37 17.18-16.71 25.79-25.04Zm-27.67 26.87c8.85 7.67 17.69 15.34 26.51 23.03-8.64 8.44-17.27 16.87-25.83 25.39-8.84-7.76-17.63-15.58-26.49-23.32 8.58-8.39 17.22-16.72 25.81-25.1m-28.44-24.6c8.83 7.64 17.66 15.27 26.49 22.91-8.17 8.2-16.4 16.24-24.89 24.17-.21.2-.72.64-.97.86-8.82-7.67-17.63-15.35-26.45-23.01 8.61-8.31 17.22-16.62 25.82-24.94Zm-27.7 26.75c8.84 7.69 17.67 15.38 26.5 23.08-8.63 8.43-17.23 16.89-25.82 25.36-8.79-7.8-17.63-15.55-26.49-23.28 8.6-8.4 17.16-16.83 25.81-25.17Zm-54.25.26c8.61-8.31 17.21-16.62 25.83-24.93 8.82 7.66 17.66 15.31 26.47 22.98-.28.27-.83.8-1.06 1.03-8.01 7.77-15.83 15.45-23.82 23.23-.2.19-.68.67-.92.9-8.86-7.7-17.63-15.51-26.5-23.21m.75 51.91c8.59-8.41 17.2-16.78 25.82-25.16.25.21.74.64.94.82 8.23 7.18 16.29 14.25 24.46 21.51.23.21.8.71 1.08.96-8.59 8.48-17.2 16.93-25.81 25.38-8.82-7.84-17.63-15.7-26.48-23.51Zm.7 52.68c.28-.28.84-.83 1.07-1.06 8-7.94 15.83-15.74 23.85-23.64.2-.2.68-.67.92-.9 8.87 7.88 17.61 15.88 26.44 23.8-8.59 8.6-17.24 17.13-25.86 25.7-8.79-7.98-17.61-15.92-26.42-23.89Zm.55 53.56c8.64-8.69 17.23-17.42 25.93-26.05 8.84 8.03 17.55 16.18 26.31 24.29-8.65 8.74-17.32 17.45-25.99 26.18-8.72-8.18-17.45-16.34-26.25-24.43Zm2.32 56.23c-4.33-4.14.54.28-2.02-2.23.56-.02.98-.73 1.22-.96 8-8.04 15.83-15.94 23.83-23.97.2-.2.69-.69.93-.94 8.73 8.18 17.56 16.25 26.25 24.49-8.82 8.72-17.27 17.78-26.34 26.27-6.03-5.82-19.55-18.52-23.88-22.66Zm-2.15 52.94c8.74-8.79 17.47-17.6 26.2-26.4 8.68 8.31 17.38 16.6 26.08 24.89-8.79 8.78-17.57 17.58-26.34 26.38-8.65-8.29-17.3-16.59-25.94-24.88Zm-.52 54.92c8.83-8.75 17.63-17.54 26.45-26.31 8.66 8.3 17.3 16.61 26.03 24.84-8.88 8.7-17.71 17.46-26.66 26.09-8.79-8-17.24-16.39-25.82-24.62m25.25 78.26c-8.73-7.99-17.59-15.85-26.25-23.92 8.93-8.7 17.84-17.43 26.83-26.07 8.75 8.1 17.5 16.19 26.24 24.3-8.92 8.58-17.84 17.17-26.81 25.69Zm28.74-27.54c-8.74-8.11-17.48-16.22-26.23-24.32 8.95-8.62 17.74-17.39 26.65-26.04 8.71 8.29 17.43 16.56 26.2 24.79-8.83 8.57-17.73 17.06-26.62 25.57m28.38 26.22c-8.76-8.19-17.7-16.19-26.44-24.4 8.92-8.47 17.8-16.98 26.63-25.55 8.79 8.32 17.52 16.71 26.33 25-8.77 8.39-17.78 16.52-26.52 24.95m28.43-26.79c-8.81-8.3-17.59-16.63-26.32-25.02 8.87-8.51 17.69-17.06 26.45-25.68 8.79 8.48 17.41 17.14 26.17 25.65-8.71 8.41-17.56 16.68-26.3 25.06Zm28.3 27.07c-8.79-8.4-17.64-16.73-26.35-25.21 8.8-8.3 17.59-16.62 26.29-25.02 8.78 8.54 17.43 17.22 26.19 25.78-8.64 8.23-17.54 16.17-26.13 24.45m28.02-26.25c-8.76-8.57-17.39-17.27-26.18-25.82 8.77-8.49 17.53-17 26.18-25.61 8.66 8.83 17.33 17.64 25.98 26.47-8.54 8.45-17.3 16.66-25.99 24.96Zm28.04 28.06c-8.76-8.66-17.42-17.42-26.09-26.17.28-.27.83-.79 1.07-1.02 8.41-7.92 16.7-15.77 24.89-23.86 8.59 8.92 17.27 17.75 25.88 26.64-8.44 8.28-17.28 16.14-25.75 24.39Zm27.62-26.24c-8.61-8.9-17.28-17.74-25.88-26.66 8.75-8.65 17.36-17.43 25.99-26.21 8.55 8.97 17.1 17.95 25.66 26.92-8.53 8.7-17.11 17.38-25.78 25.95Zm27.64 28.54c-8.63-8.8-17.09-17.78-25.73-26.57 8.59-8.64 17.18-17.29 25.76-25.93 8.61 8.76 17.12 17.6 25.64 26.44-8.59 8.65-17.1 17.39-25.68 26.06Zm27.56-27.97c-.24-.24-.72-.73-.91-.93-7.92-8.2-15.69-16.28-23.69-24.43-.22-.23-.76-.8-1.03-1.08 8.74-8.97 17.41-18 26.06-27.05 8.46 8.91 16.94 17.83 25.68 26.46-8.67 9.04-17.34 18.08-26.11 27.03m27.87 26.48c-8.54-8.29-17.58-16.07-25.95-24.53 8.77-8.97 17.43-18.04 26.11-27.09 8.57 8.47 17.17 16.87 25.98 25.08-8.68 8.88-17.37 17.75-26.14 26.54m28.05-28.49c-8.82-8.22-17.41-16.64-25.99-25.11 8.76-9.15 17.56-18.26 26.33-27.39 8.65 8.66 17.18 17.44 25.86 26.08-8.69 8.85-17.54 17.55-26.2 26.42m28.3 26.07c-8.66-8.22-17.74-15.97-26.35-24.25 8.73-8.78 17.46-17.57 26.19-26.35 8.72 8.39 17.43 16.79 26.25 25.08-8.64 8.57-17.42 17-26.09 25.52m28-27.39c-8.72-8.41-17.59-16.65-26.24-25.14 8.81-8.89 17.59-17.8 26.38-26.72 8.54 8.9 17.24 17.61 26 26.29-.29.28-.81.79-1.06 1.03-8.41 8.19-16.66 16.39-25.07 24.53Zm53.31 3.05c-7.95 7.72-15.99 15.04-23.95 22.74-.2.19-.69.67-.93.9-8.8-8.29-17.76-16.41-26.47-24.8 8.75-8.47 17.4-17.04 26.13-25.52 8.69 8.62 17.48 17.14 26.27 25.66-.27.26-.83.81-1.06 1.03Zm2.97-2.88c-8.8-8.51-17.58-17.04-26.28-25.65 8.77-8.54 17.46-17.16 26.19-25.73 8.65 8.87 17.3 17.74 26.07 26.49-8.63 8.33-17.36 16.56-25.98 24.89m28.39 27.42c-8.87-8.43-17.78-16.83-26.43-25.49 8.67-8.27 17.34-16.55 25.97-24.87 8.73 8.72 17.49 17.41 26.23 26.12-8.48 8.2-17.28 16.05-25.77 24.24m28.6-26.99c-.2.2-.69.68-.94.91-.25-.23-.74-.73-.94-.93-8.12-8.1-16.11-16.04-24.24-24.13l-1.04-1.04a5196 5196 0 0 0 26.01-25.42c8.56 8.91 17.32 17.64 26.06 26.38-.27.26-.82.8-1.04 1.02-8 7.79-15.87 15.43-23.87 23.22Zm27.3 28.89c-8.83-8.6-17.56-17.3-26.29-26.02 8.62-8.39 17.24-16.77 25.86-25.16 8.67 8.56 17.5 16.97 26.24 25.46-8.69 8.49-17.21 17.15-25.82 25.71Zm27.7-27.57c-.24-.24-.74-.71-.94-.91-7.65-7.43-15.07-14.63-22.77-22.1-.57-.55-1.84-1.78-2.51-2.43 8.67-8.66 17.33-17.33 26.01-25.97 8.63 8.68 17.24 17.37 26.07 25.83-8.62 8.53-17.19 17.11-25.86 25.58m28.27 26.6c-8.74-8.26-17.63-16.36-26.31-24.69 8.62-8.54 17.24-17.08 25.86-25.61 8.72 8.37 17.45 16.73 26.24 25.02-8.57 8.46-17.18 16.87-25.79 25.28m27.69-27.16a2693 2693 0 0 1-26.24-25.03c8.66-8.57 17.32-17.15 25.95-25.76 8.69 8.5 17.39 16.98 26.16 25.38-8.64 8.45-17.27 16.91-25.86 25.4Zm28.31 26.72c-8.74-8.33-17.59-16.54-26.34-24.86 8.59-8.49 17.23-16.93 25.86-25.37 8.75 8.39 17.52 16.76 26.3 25.12-8.58 8.4-17.22 16.75-25.82 25.12Zm27.72-26.98c-8.78-8.35-17.55-16.72-26.3-25.11 8.65-8.48 17.27-17 25.92-25.49 8.73 8.48 17.48 16.95 26.25 25.38-8.61 8.42-17.24 16.82-25.87 25.22m28.3 27.18c-8.74-8.47-17.56-16.85-26.33-25.29 8.63-8.39 17.26-16.8 25.87-25.22 8.79 8.48 17.53 17.01 26.3 25.51-8.6 8.35-17.24 16.65-25.84 25m27.74-26.85c-8.77-8.5-17.53-17-26.29-25.51 8.64-8.41 17.29-16.83 25.9-25.27 8.75 8.54 17.53 17.06 26.28 25.61-8.64 8.38-17.26 16.78-25.88 25.18Zm28.26 27.66c-8.78-8.57-17.49-17.2-26.29-25.75 8.62-8.39 17.25-16.77 25.88-25.15 8.76 8.64 17.51 17.27 26.28 25.9-8.57 8.39-17.25 16.65-25.87 24.99Zm27.77-26.86c-8.76-8.63-17.52-17.25-26.28-25.88 8.66-8.42 17.28-16.89 25.87-25.38 8.74 8.59 17.48 17.18 26.21 25.77-8.6 8.51-17.18 17.02-25.8 25.5Zm28.24 28.15c-8.73-8.76-17.5-17.48-26.26-26.2 8.66-8.44 17.2-17 25.79-25.5 8.73 8.61 17.45 17.22 26.19 25.83-8.62 8.58-17.08 17.32-25.72 25.88Zm27.62-27.77c-8.73-8.6-17.46-17.2-26.18-25.82.3-.3.77-.76 1.04-1.03 8.3-8.22 16.48-16.44 24.74-24.66 8.7 8.55 17.4 17.11 26.12 25.64-8.57 8.63-17.12 17.27-25.72 25.87m52.72 2.49c-7.51 7.56-14.69 15-22.31 22.52-.54.53-1.73 1.7-2.36 2.33-8.64-8.52-17.41-16.91-26.08-25.4 8.59-8.61 17.13-17.27 25.72-25.88.25.24.73.71.94.92 8.39 8.22 16.73 16.32 25.11 24.49-.27.26-.8.8-1.02 1.02m2.91-2.93c-8.7-8.46-17.4-16.91-26.05-25.42.27-.27.8-.81 1.02-1.03 7.96-8.02 15.78-15.9 23.75-23.9.2-.2.69-.71.94-.94.25.23.74.71.94.91 8.08 7.88 16.01 15.63 24.09 23.51.22.21.75.73 1.01.98-8.56 8.63-17.14 17.25-25.7 25.88Zm28 27.12c-8.58-8.5-17.38-16.79-26.03-25.22 8.56-8.63 17.12-17.26 25.7-25.87 8.67 8.44 17.34 16.88 26.02 25.31-8.55 8.61-17.02 17.29-25.68 25.78Zm27.58-27.68c-8.66-8.45-17.34-16.88-26.01-25.32 8.56-8.63 17.14-17.25 25.7-25.88 8.65 8.49 17.34 16.93 25.99 25.41-.27.27-.79.79-1.01 1.02-8.25 8.3-16.43 16.51-24.67 24.78Zm27.95 27.24c-8.57-8.53-17.34-16.87-25.99-25.32l25.68-25.8c8.66 8.49 17.32 16.99 25.98 25.48-8.55 8.56-17.02 17.19-25.67 25.64m27.57-27.54c-8.66-8.5-17.33-16.99-25.98-25.49 8.58-8.61 17.15-17.23 25.7-25.87q12.975 12.81 25.98 25.59c-8.55 8.61-17.12 17.19-25.71 25.77Zm52.67 2.71c-7.97 8.03-15.73 15.98-23.81 23.88-.21.2-.69.69-.95.92-.25-.23-.74-.74-.94-.94-7.97-8.01-15.93-15.75-24-23.66-.22-.21-.75-.72-1-.99.26-.28.78-.79 1.01-1.02 8.28-8.28 16.47-16.48 24.69-24.75 8.65 8.53 17.34 17.02 26.01 25.53-.26.26-.79.8-1.01 1.01Zm2.92-2.93c-8.68-8.5-17.36-17-26.01-25.53 8.6-8.67 17.18-17.34 25.76-26.02 8.67 8.56 17.33 17.12 26.02 25.65-8.6 8.63-17.19 17.26-25.78 25.9Zm28.03 27.26c-8.59-8.54-17.41-16.85-26.07-25.33 8.59-8.64 17.18-17.27 25.78-25.9 8.67 8.49 17.36 16.96 26.08 25.4-8.6 8.61-17.11 17.31-25.79 25.84Zm27.7-27.75c-8.71-8.45-17.41-16.91-26.08-25.41 8.6-8.7 17.21-17.38 25.81-26.08 8.67 8.56 17.35 17.11 26.07 25.62-8.61 8.62-17.19 17.26-25.8 25.86Zm28.08 27.09c-8.61-8.49-17.44-16.75-26.11-25.17 8.61-8.61 17.2-17.24 25.8-25.86 8.68 8.48 17.37 16.96 26.1 25.4-8.58 8.56-17.12 17.17-25.8 25.64Zm27.7-27.55c-8.73-8.44-17.43-16.91-26.1-25.4 8.62-8.62 17.23-17.25 25.81-25.89 8.66 8.56 17.38 17.06 26.08 25.58-.28.27-.76.76-1 1-8.31 8.26-16.53 16.46-24.79 24.72Zm28.1 27.03c-8.63-8.46-17.45-16.71-26.12-25.12 8.58-8.58 17.17-17.15 25.79-25.69 8.68 8.5 17.35 16.99 26.1 25.41-8.59 8.47-17.13 16.99-25.77 25.41Zm27.69-27.3c-8.75-8.43-17.42-16.92-26.1-25.42 8.62-8.55 17.17-17.17 25.8-25.71.25.24.74.74.94.94 8.06 8 16 15.84 24.11 23.79.21.21.74.72.99.97-8.57 8.49-17.17 16.95-25.75 25.43Zm28.1 27.11c-8.64-8.45-17.42-16.78-26.12-25.2 8.68-8.38 16.99-17.12 25.91-25.25 6.1 5.95 19.63 19.15 23.96 23.41 4.34 4.26-.51-.44 2.08 2.11-8.87 8.05-17.15 16.69-25.84 24.93Zm27.63-26.99c-8.68-8.51-17.38-17.02-26.08-25.51 8.58-8.49 17.17-16.97 25.75-25.45 8.65 8.61 17.36 17.16 26.05 25.74-8.57 8.4-17.14 16.81-25.71 25.22Zm28.05 27.5c-8.71-8.5-17.39-17.03-26.07-25.56 8.57-8.41 17.14-16.8 25.71-25.21 8.68 8.58 17.36 17.17 26.04 25.75-8.53 8.36-17.07 16.73-25.67 25.02Zm27.59-26.89c-8.68-8.58-17.36-17.16-26.04-25.75 8.57-8.42 17.15-16.84 25.72-25.27l26.04 25.74c-8.57 8.43-17.15 16.85-25.72 25.27Zm28.02 27.56c-8.7-8.52-17.4-17.02-26.04-25.6.26-.26.77-.76.99-.98 8.28-8.13 16.47-16.19 24.72-24.29l26.01 25.77c-8.54 8.39-17.09 16.78-25.69 25.1Zm27.6-26.99c-8.67-8.59-17.34-17.18-26.02-25.77 8.57-8.44 17.13-16.89 25.72-25.31 8.66 8.63 17.3 17.29 26.01 25.86-8.56 8.41-17.14 16.81-25.71 25.22m28.03 27.47c-8.67-8.52-17.45-16.92-26.05-25.5 8.58-8.41 17.14-16.82 25.71-25.24 8.67 8.56 17.36 17.1 26.04 25.65a7599 7599 0 0 1-25.69 25.09Zm27.61-26.96c-8.67-8.57-17.36-17.1-26.04-25.66 8.56-8.43 17.15-16.83 25.72-25.25 8.65 8.61 17.33 17.19 26.02 25.75-8.56 8.39-17.13 16.78-25.7 25.16m28.03 27.56c-8.7-8.52-17.4-17.03-26.05-25.59l25.71-25.17c8.68 8.56 17.36 17.12 26.03 25.68-8.55 8.37-17.1 16.75-25.69 25.08m27.61-26.95c-8.68-8.57-17.36-17.13-26.04-25.69 8.57-8.41 17.16-16.8 25.72-25.22 8.64 8.62 17.34 17.18 26.02 25.77-8.57 8.38-17.13 16.76-25.7 25.15Zm53.71 2.6c-8.56 8.35-17.11 16.71-25.68 25.05q-13.035-12.825-26.04-25.68c8.57-8.38 17.13-16.76 25.7-25.14 8.68 8.59 17.35 17.18 26.02 25.78Zm-.38-54.85c-8.56 8.42-17.14 16.82-25.71 25.22-8.68-8.58-17.37-17.16-26.02-25.78 8.58-8.45 17.16-16.91 25.74-25.37 8.66 8.65 17.3 17.31 25.99 25.92Zm-.3-55.22c-8.58 8.48-17.16 16.95-25.75 25.42-8.67-8.63-17.34-17.26-25.99-25.91 8.59-8.5 17.18-16.99 25.77-25.49 8.65 8.66 17.3 17.32 25.97 25.97Zm-.23-55.4-25.78 25.54c-8.66-8.65-17.31-17.29-25.96-25.95 8.6-8.51 17.19-17.02 25.79-25.53 8.65 8.65 17.3 17.29 25.95 25.94m-.2-55.41c-8.6 8.53-17.2 17.05-25.8 25.58-8.64-8.63-17.3-17.25-25.95-25.88l25.8-25.56c8.65 8.62 17.29 17.25 25.95 25.86m-.19-55.3c-8.6 8.53-17.2 17.05-25.8 25.57-8.65-8.58-17.31-17.16-25.96-25.74 8.6-8.52 17.19-17.05 25.8-25.56 8.68 8.55 17.31 17.16 25.96 25.74Zm-.2-55.14c-8.6 8.51-17.19 17.03-25.79 25.55-8.67-8.52-17.32-17.06-25.98-25.59 8.58-8.49 17.17-16.99 25.77-25.46 8.66 8.5 17.33 17 25.99 25.51Zm-26.02-29.35c-8.66-8.49-17.32-17-25.99-25.48 8.58-8.47 17.16-16.93 25.74-25.4 8.67 8.46 17.34 16.91 26.01 25.36-8.61 8.49-17.18 17.02-25.77 25.52Z"/><path fill="#aaaeb2" d="M0 446.62h21.83V900H0zM1576.41 446.62H1600V900h-23.59z"/><path fill="#aaaeb2" d="M1600 434.83v23.59H0v-23.59z"/></svg>