<svg xmlns="http://www.w3.org/2000/svg" data-name="Barrier with Fence" viewBox="0 0 1600 900"><path fill="#d0d4d8" d="M778.3 555.89h-54.05V261.97h42.13v-16.21h-42.13v-19.27h-16.21v19.27h-37.08v-19.27h-16.21v19.27h-39.21v-19.27h-16.21v19.27h-37.08v-19.27h-16.21v19.27h-34.58v-19.27h-16.21v19.27h-37.08v-19.27h-16.21v19.27h-39.21v-19.27h-16.21v19.27h-37.08v-19.27h-16.21v19.27h-37.78v16.21h37.78v293.92h-40.76v16.21h40.76v22.93h16.21V572.1h37.08v22.93h16.21V572.1h39.21v22.93h16.21V572.1h37.08v22.93h16.21V572.1h34.58v22.93h16.21V572.1h37.08v22.93h16.21V572.1h39.21v22.93h16.21V572.1h37.08v22.93h16.21V572.1h54.05zm-428.87 0V261.97h37.08v293.92zm53.3 0V261.97h39.21v293.92zm55.42 0V261.97h37.08v293.92zm53.3 0V261.97h34.58v293.92zm50.79 0V261.97h37.08v293.92zm53.3 0V261.97h39.21v293.92zm55.42 0V261.97h37.08v293.92z"/><path fill="#c1c7cc" d="m1221.71 673.52-72.77-19.96v-407.1l72.77-6.12z" data-name="Grey Beam 2"/><path fill="#d0d4d8" d="m1221.71 673.52 85.83-15.11V246.46l-85.83-6.12z" data-name="Grey Beam 1"/><path fill="#c1c7cc" d="M541.57 330.73 527 338.99v36l658.33 2.75v-13.99H541.57z" data-name="Grey Barrier 2"/><path fill="#d0d4d8" d="M540.76 330.73h644.56v33.02H540.76z" data-name="Grey Barrier 1"/><g fill="#43464a"><path d="M684.43 330.73h66.04v16.51h-66.04z" data-name="Grey Strip 4"/><path d="M802.55 330.73h66.04v16.51h-66.04z" data-name="Grey Strip 3"/><path d="M920.68 330.73h66.04v16.51h-66.04z" data-name="Grey Strip 2"/><path d="M1038.8 330.73h66.04v16.51h-66.04z" data-name="Grey Strip 1"/><path d="M566.31 330.73h66.04v16.51h-66.04z" data-name="Grey Strip 4"/></g></svg>