<svg xmlns="http://www.w3.org/2000/svg" viewBox="0 0 1852 994"><g fill="none" fill-rule="evenodd"><path fill="#4E5256" fill-rule="nonzero" d="M0 0h1852.2v994.32H0z"/><path fill="#43464A" d="m283.83 467.74 6.1-48.72h8.19v-16.26h-43.84V362l11.35-11.34c10.5 1.72 35.2 4.94 44-1 11.115-7.792 13.924-23.06 6.312-34.298-7.613-11.238-22.833-14.293-34.192-6.862-9.95 6.75-18.57 33.38-20.55 39.85l-7 6.95v-8h-.35c0-.6 0-1.21.06-1.85.3.76.48 1.17.48 1.17s21.14-51 21.14-62.68c-.001-10.484-7.686-19.382-18.057-20.911-10.371-1.53-20.297 4.774-23.323 14.811a20.85 20.85 0 0 0-9 1.14c-10.982 3.93-16.702 16.015-12.78 27 3.13 8.77 27.45 36.6 37.07 47.5v24.59l-11.33-11.37c-3.69-10.55-12.28-32.47-21.43-37.25a24.84 24.84 0 1 0-23.78 43.62l.8.42c10.17 5.32 35.93.93 43.9-.61l11.91 12v17.92h-46.76v16.27H211l6.1 48.72h-38.82V351.31H159v116.43h-8.14V351.31h-19.35v22l-17-6.3-35.92 98.2 6.92 2.56H49v18.79h292v-18.82zm-152.32 0H98.2l33.31-91.07z"/><path fill="#43464A" fill-rule="nonzero" d="m72.48 899.88-16.11 94.44h20.97l28.2-94.44zm152.84 0 16.11 94.44h-20.96l-28.2-94.44z"/><path fill="#43464A" fill-rule="nonzero" d="M49.01 769.89h199.78v129.99H49.01z"/><path fill="#383B3E" fill-rule="nonzero" d="M148.9 612.23c40.228 0 72.84 32.612 72.84 72.84v6H76.06v-6c0-40.228 32.612-72.84 72.84-72.84"/><path fill="#43464A" fill-rule="nonzero" d="M142.93 691.08h12.05v78.82h-12.05z"/><path fill="#4E5256" fill-rule="nonzero" d="M188.37 781.94v12.05h-78.82v-12.05zm-25.64-119.51a13.83 13.83 0 1 0-27.65 0 13.6 13.6 0 0 0 1.31 5.84l6.61 22.81h11.85l6.61-22.81a13.7 13.7 0 0 0 1.27-5.84"/><path fill="#43464A" fill-rule="nonzero" d="m1138.45 899.88-16.12 94.44h20.97l28.2-94.44zm152.83 0 16.12 94.44h-20.97l-28.2-94.44z"/><path fill="#43464A" fill-rule="nonzero" d="M1114.97 769.89h199.78v129.99h-199.78z"/><path fill="#383B3E" fill-rule="nonzero" d="M1214.86 612.23c40.228 0 72.84 32.612 72.84 72.84v6H1142v-6a72.84 72.84 0 0 1 72.86-72.84"/><path fill="#43464A" fill-rule="nonzero" d="M1208.9 691.08h12.05v78.82h-12.05z"/><path fill="#4E5256" fill-rule="nonzero" d="M1254.33 781.94v12.05h-78.82v-12.05zm-25.64-119.51a13.83 13.83 0 1 0-26.34 5.84l6.63 22.81h11.85l6.61-22.81a13.7 13.7 0 0 0 1.25-5.84"/><path fill="#43464A" fill-rule="nonzero" d="M1363.77 180.55h439.42v813.77h-439.42z"/><path fill="#4E5256" fill-rule="nonzero" d="M1587.16 180.54v813.77h-7.36V180.54z"/><path fill="#4E5256" fill-rule="nonzero" d="M1803.19 907.07H1579.8v-7.36h223.39zm0-87.27H1579.8v-7.36h223.39zm-70.01 99.32v12.05h-78.82v-12.05zm0-87.27v12.05h-78.82v-12.05zM1611.25 535.9h-12.05v-78.82h12.05zm-43.5 0h-12.05v-78.82h12.05z"/><path fill="#43464A" fill-rule="nonzero" d="M336.01 769.89h691.76v81.66H336.01z"/><path fill="#383B3E" fill-rule="nonzero" d="M297.81 858.92h768.16v40.97H297.81z"/><path fill="#383B3E" fill-rule="nonzero" d="M359.48 885.16 336 994.32h35.69l35.56-109.16zm652.17 0 23.47 109.16h-35.69l-35.55-109.16z"/><path fill="#43464A" d="M936.77 702.85H427c-30.92 0-56 10.35-56 41.27 0 10.17 8.25 18.41 18.42 18.41h584.93c10.168 0 18.41-8.242 18.41-18.41 0-30.92-25.06-41.27-55.99-41.27"/><path fill="#383B3E" fill-rule="nonzero" d="M702.32 598.39a294 294 0 0 0-3.58 46.61 283 283 0 0 0 5.69 57.9h200.14a283 283 0 0 0 5.69-57.9 294 294 0 0 0-3.6-46.66 19.3 19.3 0 0 0 6.53-4.17c8.86-8.86 5.9-26.18 5.9-26.18s-17.32-3-26.18 5.9a18.85 18.85 0 0 0-4.06 6.27c-25.16-2-53.86-3.18-84.35-3.18s-59.37 1.16-84.58 3.19a19 19 0 0 0-4.08-6.28c-8.86-8.86-26.18-5.9-26.18-5.9s-3 17.32 5.9 26.18a19.4 19.4 0 0 0 6.76 4.22m-244.99 0a295.5 295.5 0 0 0-3.57 46.61 283 283 0 0 0 5.68 57.9h200.14a283 283 0 0 0 5.69-57.9 294 294 0 0 0-3.6-46.66 19.2 19.2 0 0 0 6.54-4.17c8.85-8.86 5.9-26.18 5.9-26.18s-17.32-3-26.18 5.9a19 19 0 0 0-4.07 6.27c-25.16-2-53.86-3.18-84.35-3.18s-59.37 1.16-84.58 3.19a19 19 0 0 0-4.08-6.28c-8.85-8.86-26.18-5.9-26.18-5.9s-2.95 17.32 5.91 26.18a19.4 19.4 0 0 0 6.75 4.22"/><path fill="#43464A" d="M793.18 171.89a132.94 132.94 0 0 0-96.72-59.4v-13.1h-9.09V0h-11v99.39h-9.09v13.1a132.89 132.89 0 0 0-96.73 59.4h84.29c3.096 12.39 14.228 21.084 27 21.084s23.904-8.693 27-21.084z"/></g></svg>