<svg xmlns="http://www.w3.org/2000/svg" viewBox="0 0 521 280"><g fill="none"><path fill="#C1C7CC" d="M131.45 187.5h-97V150h97zm356.222 0H150.363V150h337.31z"/><path fill="#D0D4D8" d="m369.128 96.32 2.242 18.47H35.632L33.37 96.32z"/><path fill="#C1C7CC" d="m88.73 96.32-7.35-59.11h15.55l7.35 59.11zm34.8 0-7.34-59.11h15.55l7.34 59.11zm-69.61 0-7.34-59.11h15.55l7.34 59.11zm104.42 0-7.35-59.11h15.55l7.35 59.11zm139.22 0-7.35-59.11h15.55l7.35 59.11zm-104.42 0-7.34-59.11h15.55l7.34 59.11zm139.22 0-7.35-59.11h15.55l7.35 59.11zm-69.61 0-7.35-59.11h15.55l7.35 59.11zm-34.8 0-7.35-59.11h15.55l7.35 59.11z"/><path fill="#D0D4D8" d="M150.92 278.83h-22.48v-129h22.48z"/><path fill="#C1C7CC" d="M40.51 278.83H18.03v-129h22.48z"/><path fill="#D0D4D8" d="M509.4 278.83h-22.48v-129h22.48z"/><path fill="#C1C7CC" d="M398.99 278.83h-22.48v-127.1h22.48zm-279.24-127.1h-112v-18.47h112z"/><path fill="#D0D4D8" d="M519.69 151.73H118.16v-18.47h401.53zM.31.27h22.45l16.4 132.99H16.71z"/><path fill="#D0D4D8" d="M355.25.27h22.45l16.4 132.99h-22.45z"/><path fill="#D0D4D8" d="M22.32 18.74h337.684l2.316 18.47H24.636z"/></g></svg>