<svg xmlns="http://www.w3.org/2000/svg" viewBox="0 0 521 280"><g fill="none"><path fill="#2E3033" d="M131.51 187.5h-92.5v-36h92.5z"/><path fill="#383B3E" d="m372.582 96.32 2.288 18.47H32.179L29.87 96.32z"/><path fill="#2E3033" d="m88.73 96.32-7.35-59.11h15.55l7.35 59.11zm34.8 0-7.34-59.11h15.55l7.34 59.11zm-69.61 0-7.34-59.11h15.55l7.34 59.11zm104.42 0-7.35-59.11h15.55l7.35 59.11zm139.22 0-7.35-59.11h15.55l7.35 59.11zm-104.42 0-7.34-59.11h15.55l7.34 59.11zm139.22 0-7.35-59.11h15.55l7.35 59.11zm-69.61 0-7.35-59.11h15.55l7.35 59.11zm-34.8 0-7.35-59.11h15.55l7.35 59.11zM40.51 278.83H18.03v-127.5h22.48zm358.48 0h-22.48v-127.1h22.48z"/><path fill="#383B3E" d="M120.25 151.73H7.75v-18.47h112.5z"/><path fill="#383B3E" d="M519.69 151.73H118.16v-18.47h401.53z"/><path fill="#2E3033" d="M490.43 187.5h-341v-36h341z"/><path fill="#383B3E" d="M.31.27h22.45l16.4 132.99H16.71zm354.94 0h22.45l16.4 132.99h-22.45z"/><path fill="#383B3E" d="M22.04 18.74h340.167l2.333 18.47H24.373zM509.4 278.83h-22.48v-128.5h22.48zm-358.48 0h-22.48v-129h22.48z"/></g></svg>