<svg xmlns="http://www.w3.org/2000/svg" viewBox="0 0 717 463"><g fill="none" transform="translate(.16 .71)"><path fill="#43464A" d="M239.92 0h39.49v11h-39.49z"/><path fill="#D0D4D8" d="m478.5 107.64 11.9-41.61-14.92-4.09-11.17 41.64z"/><ellipse cx="130.45" cy="316.42" fill="#D0D4D8" rx="15.73" ry="17.53"/><ellipse cx="585.22" cy="316.42" fill="#D0D4D8" rx="15.73" ry="17.53"/><path fill="#8A9097" d="M446.55 321.94a5.52 5.52 0 0 1-5.52-5.52c0-42 14.94-81.5 42.06-111.24s63.52-46.33 102.13-46.33c48.2 0 93 26.14 119.86 69.94a5.51 5.51 0 1 1-9.39 5.76c-24.84-40.5-66.14-64.68-110.47-64.68-73.42 0-133.16 65.74-133.16 146.55a5.52 5.52 0 0 1-5.51 5.52"/><path fill="#D0D4D8" d="m349.762 302.97 4.075-6.117 56.543 37.667-4.075 6.117z"/><path fill="#43464A" d="M585.22 460.61c-35.06 0-68-15.15-92.63-42.64-24.39-27.18-37.82-63.25-37.82-101.55s13.43-74.36 37.82-101.54c24.68-27.5 57.57-42.64 92.63-42.64s68 15.14 92.64 42.64c24.39 27.18 37.82 63.24 37.82 101.54S702.25 390.79 677.86 418c-24.68 27.46-57.57 42.61-92.64 42.61m0-267.41c-60.37 0-109.49 55.28-109.49 123.22s49.12 123.23 109.49 123.23 109.5-55.28 109.5-123.23S645.6 193.2 585.22 193.2M130.45 460.61c-35.06 0-68-15.15-92.63-42.64C13.43 390.79 0 354.72 0 316.42s13.43-74.36 37.82-101.54c24.67-27.5 57.57-42.64 92.63-42.64s68 15.14 92.64 42.64c24.38 27.18 37.81 63.24 37.81 101.54S247.47 390.79 223.09 418c-24.68 27.46-57.58 42.61-92.64 42.61m0-267.41C70.08 193.2 21 248.48 21 316.42s49.44 129.84 109.45 123.23c81.41-9 114.7-57.5 109.49-123.23-5.36-67.73-49.11-123.22-109.49-123.22"/><path fill="#43464A" d="M521.29 313.57c0-10.068-8.162-18.23-18.23-18.23H407c-18.22.89-32.77 19.43-32.77 42.19 0 23.33 15.28 42.23 34.13 42.23s34.14-18.9 34.14-42.23a49.3 49.3 0 0 0-6.05-24zm-103.11 42.31c-1.67 2.08-5.18 5.55-9.85 5.55s-8.17-3.47-9.85-5.55c-3.76-4.65-5.91-11.32-5.91-18.31s2.15-13.66 5.91-18.31c1.68-2.07 5.18-5.55 9.85-5.55s8.18 3.48 9.85 5.55c3.76 4.65 5.92 11.32 5.92 18.31s-2.16 13.66-5.92 18.31"/><path fill="#D0D4D8" d="M418.18 319.26c-1.67-2.07-5.18-5.55-9.85-5.55s-8.17 3.48-9.85 5.55c-3.76 4.65-5.91 11.32-5.91 18.31s2.15 13.66 5.91 18.31c1.68 2.08 5.18 5.55 9.85 5.55s8.18-3.47 9.85-5.55c3.76-4.65 5.92-11.32 5.92-18.31s-2.16-13.66-5.92-18.31"/><path fill="#595E62" d="m331.997 298.67 38.402-6.207 2.008 12.425-38.402 6.207z"/><path fill="#D0D4D8" d="m406.3 340.634 4.076-6.117 56.542 37.666-4.074 6.117z"/><path fill="#8A9097" d="M591.49 311.56 467.85 144.75l11.62-40.63-14.18-3.88-39.47 147c-21.67-1-43.22-7.5-64.17-19.46-19.36-11.02-38.33-26.78-56.35-46.68-35-38.68-54.86-79.87-60.5-92.48l1.79-6.31-14.2-4.06L207.94 165l14.15 4 .28-1L401.6 320.6a13.33 13.33 0 0 0 8.63 3.17h175a7.73 7.73 0 0 0 6.26-12.21m-182-3.54-182.72-155.6 12-42.42c12.25 23.81 31.5 54.27 55.63 81 19.08 21.1 39.25 37.79 60 49.62 22 12.53 44.64 19.65 67.55 21.2zm13.35 1.05 40-146 108.87 146z"/><path fill="#8A9097" d="M126.06 319.58a7.36 7.36 0 0 1 1.13-10.14c46.94-38.9 65.16-90.4 78.63-137.12.72-2.49 1.4-4.87 2.12-7.35l14.15 4c-.72 2.47-1.43 4.95-2.15 7.44-7.15 24.81-14.55 50.46-27 75.31-13.08 26-34.45 50.9-56.31 69a7.37 7.37 0 0 1-10.57-1.14"/><path fill="#43464A" d="m503.74 73-80.25-4.57c-3.93-.23-7-4-7-8.51 0-4.52 3.06-8.25 7-8.51l89.32-5.92c4.09 0 7.41 3.84 7.41 8.56-.06 10.49-7.41 18.95-16.48 18.95"/><path fill="#8A9097" d="M657.78 141.41H509.26l-32.81 32a5.51 5.51 0 0 0 7.69 7.89l29.61-28.86h102.89l-41.17 162.63a5.52 5.52 0 0 0 10.7 2.71L628 152.43h29.77a5.51 5.51 0 1 0 0-11zM269.13 321.94a5.52 5.52 0 0 1-5.51-5.52c0-80.81-59.74-146.55-133.17-146.55a122 122 0 0 0-37.16 5.79 5.52 5.52 0 0 1-3.36-10.51 133.2 133.2 0 0 1 40.52-6.3c38.61 0 74.88 16.45 102.13 46.33s42.06 69.25 42.06 111.24a5.52 5.52 0 0 1-5.51 5.52"/><path fill="#71767C" d="m442.838 372.768 38.275-6.302 2.039 12.384-38.275 6.302z"/><path fill="#D0D4D8" d="M289.81 0C275 0 269 11.19 264.58 19.36c-3 5.51-4.93 8.86-7.35 8.86h-35.81c-1.61 0-5.7-4.81-5.7-10.83a6.78 6.78 0 0 1 1.42-4.54c1.11-1.21 3.06-1.83 5.79-1.83h17V0h-17C215.54 0 211.3 2.92 209 5.37a17.33 17.33 0 0 0-4.34 12c0 10.31 7.15 21.85 16.72 21.85h35.81c9.19 0 13.56-8.13 17.06-14.67 4.57-8.41 7.87-13.55 15.56-13.55h.87V0z"/><path fill="#8A9097" d="M332.19 0h-41.51v11h41.51c.92 0 1.66-2.46 1.66-5.5s-.74-5.5-1.66-5.5"/><path fill="#D0D4D8" d="M233.71 39.24a7.41 7.41 0 0 1 6.72 9.33l-.61 2.23-7.44 27.45 14.2 4.06 9.82-34.11a10.61 10.61 0 0 0-1.47-9z"/></g></svg>