<svg xmlns="http://www.w3.org/2000/svg" viewBox="0 0 175 442"><g fill="none"><path fill="#383B3E" d="m21.516 47.835 10.481-3.405 20.479 63.027-10.481 3.405zm94.104 59.615 20.478-63.026 10.481 3.406-20.479 63.026zm-40.955 16.17h18.77v317.21h-18.77z"/><path fill="#2E3033" d="m7.145 72.14-6.48-8.92L86.965.37l86.37 62.85-6.48 8.92L86.965 14z"/><path fill="#383B3E" d="m86.965 14-25.09 18.22h50.17z"/><path fill="#2E3033" d="m104.315 72.24 22.64-11.87-2-3.84-22.93 12.01c-6.92-.06-27.59.06-36.14.06-8.28 0-14.81 2.71-14.81 11.63a10.64 10.64 0 0 0 2.37 6.26l-2.45 6.79 6.92-2.42a36.66 36.66 0 0 0 17.88 6.69l-7.69 9.35 2.08.88 8.28-10.06h1a47 47 0 0 0 5.59-.3l-5.27 9.71 2.21.46 5.73-10.62c7.94-1.73 16.04-7.31 16.59-24.73"/><path fill="#2E3033" d="M31.295 106.9h105.5v16.72h-105.5z"/></g></svg>