<svg xmlns="http://www.w3.org/2000/svg" viewBox="0 0 1600 900"><path fill="none" d="M1272.824 764.705h-2.842c.519 4.531.946 9.065 1.294 13.661l4.392-5.371s.027-4.117.077-11.119l-2.92-.263a244 244 0 0 1-.001 3.092m-127.7-326.429 17.691-10.991a42.4 42.4 0 0 1 7.939-7.51c0 .083.005.164.005.247.342-3.446.707-6.86 1.067-10.11a64.2 64.2 0 0 1-15.3-2.74s-4.371-9.37-9.637-28.915a154.4 154.4 0 0 1-4.63-28.473 26 26 0 0 1-1.718-2.23v93.383l4.58-2.661zm125.091 185.296c-1.065-3.679-2.3-7.99-3.648-12.791a12920 12920 0 0 1 3.066 62.961c.174-17.756.372-35.471.582-50.17"/><path fill="#b2b9c0" d="M1097.778 504.458a61 61 0 0 1-.054-9.335c1.339-19.085 10.977-34.75 27.324-45.1v-230.75H576.567v295.278l15.487 9.734c16.369-3.239 34.143-6.725 51-10.018l-35.239-169.148 54.578-11.371-15.407-21.688 6.551 3-.631-6.682 6.1 2.795-.631-6.683 6.1 2.8-.63-6.682 6.1 2.8-.677-7.174L691.6 327.67l66.864-13.931 12.272 58.9 5.087 24.415v-76.829h70.906l6.39-37.357 2.5 6.759 4.288-5.164 2.328 6.295 4.289-5.163 2.328 6.295 4.288-5.164 2.328 6.3 4.6-5.543-5.6 32.746h55.247v66.016l14.4-84.18 64.871 11.1 17.7-41.805.884 7.151 5.357-4.044.824 6.661 5.357-4.044.824 6.661 5.357-4.044.825 6.662 5.75-4.342-15.182 35.879 59.131 10.115-16.535 96.654-20.731 121.185-128.824-22.043v17.418H775.831v-5.366l-122.939 25.614-.073-.351c-28.125 9.375-54.541 15.07-76.252 12.46v23.5h515.585l5.7-66.987zM653.913 278.946l-18.622 18.623h-26.337l-18.622-18.623V252.61l18.622-18.623h26.337l18.622 18.623zm97.761 266.278"/><path fill="#007bc0" d="m634.885 418.176 58.087-12.103 1.888 9.063-58.087 12.102zm2.958 14.202 70.07-14.599 1.889 9.063-70.07 14.599zm2.922 14.024 50.954-10.616 1.888 9.062-50.954 10.616zm9.162 43.973 80.279-16.726 1.269 6.091-80.28 16.726zm2.733 13.115 67.653-14.095 1.27 6.091-67.655 14.096z"/><path fill="#003253" d="m933.411 425.639 1.561-9.124 58.485 10.005-1.56 9.124zm-2.447 14.298 1.56-9.125 70.55 12.07-1.56 9.124zm48.883 22.891 1.561-9.124-51.303-8.777-.382 2.23v7.096z"/><path fill="#006ead" d="M787.309 383.277 818.9 417.2c0-3.483 13.947-6.307 31.151-6.307s31.151 2.824 31.151 6.307l31.419-33.956c-9.753 5.083-34.132 8.687-62.686 8.687-28.495.004-52.835-3.587-62.626-8.654"/><path fill="#383b3e" d="M813.549 470.239v-4.629h-29.904v4.629zm-29.904 2.908v4.629h36.656v-4.629zm0 7.537v4.628h32.354v-4.628zm110.979-59.808h24.469v4.628h-24.469zm-5.525 7.537h29.994v4.628h-29.994zm3.52 7.537h26.474v4.628h-26.474z"/><g fill="#fff"><path d="M929.723 399.08v48.077l.382-2.23 51.3 8.777-1.561 9.124-50.124-8.575v69.558l128.824 22.038 20.731-121.185zm5.243 17.431 58.486 10-1.561 9.124-58.486-10zM1001.509 452l-70.55-12.069 1.561-9.124 70.55 12.069zm27.888-57.041 2.504-14.636-5.87-1.004-6.03-1.031-70.394-12.043v.001l-5.87-1.005-2.504 14.636 5.87 1.004zm13.449-44.616 5.871 1.004 2.504-14.635-5.871-1.005-87.945-15.044-5.87-1.004-2.504 14.635 5.87 1.005zm-91.868 7.891 85.415 14.612 27.753 4.748 2.504-14.636-5.871-1.004-113.168-19.36-2.504 14.636zm60.204-41.116.824 6.662 5.357-4.045.824 6.662 5.357-4.045.824 6.662 5.357-4.044.85 6.872.171.072 5.936-14.019 15.192-35.881-5.75 4.342-.825-6.662-5.357 4.044-.824-6.661-5.357 4.044-.824-6.661-5.357 4.044-.884-7.151-17.701 41.805-3.427 8.095.088.038zm-341.906-20.893.677 7.174-6.102-2.795.63 6.682-6.103-2.795.631 6.683-6.103-2.795.631 6.682-6.551-3.001 15.407 21.688 15.976 22.488.077-.055-.65-6.894 6.103 2.796-.631-6.683 6.103 2.795-.631-6.682 6.103 2.795-.631-6.683 6.296 2.884.151-.108-9.051-12.74zm-19.363-41.959-16.279-16.279h-23.023l-16.279 16.279v23.023l16.279 16.28h23.023l16.279-16.28zm-46.653 18.388c-2.7 0-4.357-.955-5.365-3.079l2.484-1.063a2.73 2.73 0 0 0 2.846 1.872c1.44 0 2.3-.594 2.3-1.584 0-.864-.468-1.206-2.341-1.639a9.9 9.9 0 0 1-3.258-1.062 3 3 0 0 1-1.459-2.755c0-2.448 1.729-3.942 4.754-3.942a5.62 5.62 0 0 1 4.789 2.3l-2.341 1.3a2.76 2.76 0 0 0-2.43-1.332c-1.351 0-2.017.5-2.017 1.386 0 .811.558 1.188 2.232 1.513a10.4 10.4 0 0 1 3.386 1.1 3.25 3.25 0 0 1 1.494 2.953c.004 2.591-1.814 4.032-5.074 4.032m16.561-10.75h-3.636v10.551H613.3V261.9h-3.637v-2.323h10.154zm7.217 10.75c-3.673 0-6.212-2.7-6.212-6.609 0-3.888 2.629-6.662 6.32-6.662 3.6 0 6.176 2.755 6.176 6.59 0 3.943-2.574 6.681-6.284 6.681m14.508-4.916h-2.719v4.717h-2.881v-12.874h5.474c2.917 0 4.627 1.549 4.627 4.177 0 2.503-1.674 3.98-4.501 3.98"/><path d="M627.02 261.706c-1.98 0-3.187 1.638-3.187 4.3 0 2.7 1.225 4.321 3.259 4.321s3.223-1.584 3.223-4.285c0-2.733-1.224-4.336-3.295-4.336m14.238.162h-2.431v3.732h2.413a1.75 1.75 0 0 0 2-1.891c-.002-1.229-.668-1.841-1.982-1.841"/></g><path fill="#1a1c1d" d="M1220.762 321.5s0-7.767-12.206-17.756-25.523-3.328-36.618-4.435c-10.643-1.065-22.6-4.151-31.394-.485-.374.155-.751.3-1.113.485-8.386 4.19-.933 16.3-1.015 24.181-2.009 5.461-4 15.153 2.128 24.061a26 26 0 0 0 1.718 2.23c-.422-5.908-.379-9.685-.379-9.685.018-.114.042-.22.061-.333 2.268-2.693 6.809-7.781 10.02-9.385 4.439-2.221 6.657 1.107 18.867 4.439s24.408-5.55 24.408-5.55c-6.656 18.863 3.782 22.474 7.111 28.021a10.05 10.05 0 0 1 1.355 4.776c3.868-6.534 10.131-14.513 15.284-8.877 6.266 6.855-4.561 24.371-10.088 32.345l2.518 5.469s21.2-37.611 22.656-50.638c1.136-10.163-13.313-18.863-13.313-18.863"/><path fill="#00629a" d="m1251.173 855.07 12.991-38.153 1.849-7.059-17.944 11.22-4.918-8.322 28.125-34.39c-.348-4.6-.775-9.13-1.294-13.661H1219.8l-5.038-54.262-.245-2.634h-68.5c.944 15.563 3.744 41.884 12.058 62.154 9.5 23.151 20.914 65.34 31.273 108a2848 2848 0 0 1 5.264 22.085l76.167-.052c.414-15.1.811-28.588 1.125-40.855-7.237 1.299-15.451.183-20.731-4.071M463.936 663.2l-29.154-.026-.255 46.157H374.24c4.3 28.339 6.592 52.817 6.592 52.817l-5.817 1.587 1.211 3.143 35.208 30.215-2.75 8.5-21.567-10.462 2.683 6.969 17.626 30.515c-36.462 18.5-54.171-25.055-54.171-25.055l-2.147-29.45-1.934-7.323-.991.27-9.5 2.593c1 29.5 5.01 64.826 6.267 112.647.125 4.762.145 9.336.033 13.709l60.522.01c5.321-22.475 11.232-46.63 17.253-69.729 9.781-37.53 19.85-72.273 28.143-92.494C461.71 711.435 463.6 675.3 463.936 663.2"/><path fill="#232628" d="m751.674 545.224.003-.004z"/><path fill="#2e3033" d="M431.973 411.676a78.7 78.7 0 0 0 15.992 13.086 592 592 0 0 0-.639-6.221c-.2-1.868-.4-3.712-.6-5.511a46.6 46.6 0 0 1-14.753-1.354"/><path fill="#a4abb3" d="m476.426 338.336-.165-.1c-3.687-.4-8.107.45-13.1 2.176a124 124 0 0 0-15.356 6.809c-5.668 2.892-11.723 6.253-18.033 9.755h-.009l13.561 4.526c9.029 4.96 22.023 7.515 30.981 6.113a18.8 18.8 0 0 0 5.538-1.658c8.177-4.129 20.007-6.328 32.155-5.7z"/><g fill="#007bc0"><path d="M849.939 364.708c-37.138 0-67.244 6.095-67.244 13.614 0 1.748 1.647 3.419 4.614 4.955 9.791 5.067 34.131 8.658 62.63 8.658 28.554 0 52.933-3.6 62.686-8.687 2.933-1.528 4.559-3.188 4.559-4.926 0-7.522-30.107-13.614-67.245-13.614m.116 46.192c-17.2 0-31.151 2.824-31.151 6.307l.085.442c1.094 3.192 13.915 5.73 29.806 5.858.418 0 .837.006 1.26.006s.842 0 1.261-.006c15.891-.128 28.712-2.666 29.8-5.858l.085-.442c.005-3.486-13.942-6.307-31.146-6.307M608.954 233.987l-18.622 18.623v26.336l18.622 18.623h26.337l18.622-18.623V252.61l-18.622-18.623zm40.959 43.3-16.279 16.28h-23.023l-16.279-16.28v-23.021l16.279-16.279h23.023l16.279 16.279z"/><path d="M606.844 265.667a10.4 10.4 0 0 0-3.386-1.1c-1.674-.325-2.232-.7-2.232-1.513 0-.882.666-1.386 2.017-1.386a2.76 2.76 0 0 1 2.43 1.332l2.341-1.3a5.62 5.62 0 0 0-4.789-2.3c-3.025 0-4.754 1.494-4.754 3.942a3 3 0 0 0 1.459 2.755 9.9 9.9 0 0 0 3.258 1.062c1.873.433 2.341.775 2.341 1.639 0 .99-.864 1.584-2.3 1.584a2.73 2.73 0 0 1-2.846-1.872l-2.484 1.063c1.008 2.124 2.665 3.079 5.365 3.079 3.26 0 5.078-1.441 5.078-4.034a3.25 3.25 0 0 0-1.498-2.951m2.823-3.763h3.637v10.551h2.881v-10.551h3.636v-2.323h-10.154zm17.479-2.521c-3.691 0-6.32 2.774-6.32 6.662 0 3.907 2.539 6.609 6.212 6.609 3.71 0 6.284-2.738 6.284-6.681 0-3.835-2.574-6.59-6.176-6.59m-.054 10.947c-2.034 0-3.259-1.62-3.259-4.321 0-2.665 1.207-4.3 3.187-4.3 2.071 0 3.3 1.6 3.3 4.339-.005 2.698-1.193 4.282-3.228 4.282m11.735-2.592h2.719c2.827 0 4.5-1.477 4.5-3.98 0-2.628-1.71-4.177-4.627-4.177h-5.474v12.874h2.881zm0-5.87h2.431c1.314 0 1.98.612 1.98 1.836a1.75 1.75 0 0 1-2 1.891h-2.413zm-222.878 96.216a82.6 82.6 0 0 0 13.823-1.11c6.31-3.5 12.365-6.863 18.033-9.755a124 124 0 0 1 15.356-6.809c4.993-1.726 9.413-2.58 13.1-2.176l.165.1.17-.083c-4.488-26.23-28.256-44.049-53.089-39.8s-41.327 28.955-36.84 55.185c.116.033.226.059.341.091 4.3 1.2 8.378 2.125 12.274 2.809a103 103 0 0 0 11.018 1.344 91 91 0 0 0 5.649.204m62.73 94.943-1.185-.486-10.976-4.5.721 1.649 19.373 44.279h-86.06c14.124 49.375 34.519 116.78 34.519 116.78L434.8 659.8l-.019 3.367 29.154.026 30.76.028h3.422s8.721-41.32 17.427-79.939c1.269-5.629 2.538-11.2 3.779-16.579a116 116 0 0 0 2.68-16.3c1.454-17.277-2.949-28.093-10.939-38.542-23.278-35.634-32.385-58.834-32.385-58.834M432.821 440.6c.656.2 1.191.348 1.635.462zm803.714-6.53-5.585-3.266 1.09.667-17.617 57.667h-69.682l.383-50.862-4.58 2.661-1.906 1.108-1.628 172.673-.03 3.213-.235 1.6-7.449 50.818-4.677 31.912-.583 3.978-.23 1.566h90.711l-.515-5.544-7.6-81.81c5.018-107.057 30.037-186.13 30.084-186.277zm-110.195 15.124 12.298-7.149z"/></g><path fill="#7ebdff" d="M1171.826 409.912c-.36 3.25-.725 6.664-1.067 10.11q0 .339.022.671l.744-.295a78.3 78.3 0 0 0 14.844-11.786 46.7 46.7 0 0 1-14.543 1.3m-700.143-28.575c-5.273 19.564-9.651 28.95-9.651 28.95a64.3 64.3 0 0 1-15.308 2.742c.2 1.8.4 3.643.6 5.511 16.4.231 34.569-3.8 34.569-3.8-2.757-4.136-7.431-22.255-10.17-33.561zm-61.478 5.997c-2.561-3.1-17.9-22.359-10.923-30.8-3.9-.684-7.975-1.6-12.274-2.809l-2.193 8.939A193 193 0 0 0 383.5 385.1c0 19.453-2.98 31.129-2.98 31.129s5.961 1.492 20.365 0c.736-.076 1.481-.15 2.227-.222 8.017-.77 16.166-1.267 16.166-1.267a56.1 56.1 0 0 1-8.952-25.279 51 51 0 0 1-.121-2.127m5.744-29.25c-1.834 0-3.721-.078-5.65-.2a37.8 37.8 0 0 1 4.521 6.388c.48-2.105.849-4.183 1.129-6.188m638.081 381.154-1.746 4.481-40.583 37.1 2.854 8.875 20.413-9.235-23.268 36.911 10.261 3.182a23.84 23.84 0 0 0 20.159-2.858c6.987-4.592 15.509-10.595 17.323-13.664 13.142-22.223 15.859-49.827 15.859-49.827l2.494-3.873-2.241-1.021a1634 1634 0 0 1-21.525-10.071m218.534 79.033-8.4-1.354-12.991 38.153c5.28 4.254 13.494 5.37 20.73 4.075 4.667-.836 8.93-2.666 11.723-5.336 6.286-6.008 22.177-30.184 22.177-30.184z"/><path fill="#9dc9ff" d="M1218.989 353.19c-5.153-5.636-11.416 2.343-15.284 8.877a10.05 10.05 0 0 0-1.355-4.776c-3.329-5.547-13.767-9.158-7.111-28.021 0 0-12.206 8.878-24.408 5.55s-14.428-6.66-18.867-4.439c-3.211 1.6-7.752 6.692-10.02 9.385-.019.113-.043.219-.061.333 0 0-.043 3.777.379 9.685a154.4 154.4 0 0 0 4.63 28.473c5.266 19.545 9.637 28.915 9.637 28.915a64.2 64.2 0 0 0 15.3 2.74 46.7 46.7 0 0 0 14.543-1.3 78.3 78.3 0 0 1-14.844 11.786l-.744.295a12 12 0 0 0 .419 2.432c1.119 4.036 4.131 7.271 6.519 9.306l3.249 2.391c-.363-.543 12.923-1.615 23.132-8.423a75 75 0 0 0 4.566-3.278c5.341-4.172 6.79-6.784 7.17-7.739l-4.42-24.382-2.518-5.469c5.527-7.97 16.354-25.486 10.088-32.341m83.734 421.478a1122 1122 0 0 1 2.8-10.186l-.4-.026c-2.18-.145-19.506-1.694-29.378-2.58-.05 7-.077 11.119-.077 11.119l-4.392 5.371-28.125 34.39 4.918 8.322 17.944-11.22-1.849 7.059 8.4 1.354 33.239 5.354c3.736-12.625-3.755-46.431-3.08-48.957"/><path fill="#979ea4" d="m1030.746 331.914-.171-.072-.85-6.872-5.357 4.044-.824-6.662-5.357 4.045-.824-6.662-5.357 4.045-.824-6.662-5.526 4.173-.088-.038 3.427-8.095-64.871-11.1-14.4 84.18v12.842l149.555 25.584 16.535-96.654-59.132-10.11zm-1.349 63.045L947.1 380.881l-5.87-1 2.5-14.636 5.87 1 82.294 14.078zm37.253-32-2.5 14.636-27.753-4.748-91.29-15.617 2.5-14.636 113.168 19.36zm-15.429-26.246-2.5 14.635L954.9 335.3l-5.87-1 2.5-14.635 93.815 16.048zm185.314 97.357-.044.1c-1.27 4.072-25.151 81.874-30.039 186.173l7.6 81.81.515 5.544.244 2.634 5.038 54.262h35.688l-1.659-56.9-.161-5.542-4.668-159.975a808 808 0 0 1-3.366-15.549c-.043-.1-.084-.195-.125-.294q-.916-4.464-1.749-8.824c-.012-.17-.025-.335-.036-.512V517a573 573 0 0 1-.807-4.343 69 69 0 0 1-.944-9.271c-.725-17.629 3.289-44.692 21.1-53.382.174.019.344.046.516.067q.061.01.122.018z"/><path fill="#7d8389" d="m691.608 327.661 9.051 12.74-.151.108-6.296-2.884.631 6.683-6.103-2.795.631 6.682-6.103-2.795.631 6.683-6.103-2.796.65 6.894-.077.055-15.976-22.488-54.578 11.371 12.272 58.904 150.657-31.389-12.272-58.904zm406.452 269.422-.2-66.987-5.7 66.987-.614 7.2c-1.01 2.8-2.264 6.342-3.7 10.434-13.055 37.272-41.255 120.955-41.255 120.955s1.975.954 5.159 2.475c.7.337 1.469.7 2.285 1.09a1629 1629 0 0 0 21.526 10.071l2.241 1.021c5.976 2.716 11.65 5.216 15.788 6.876l1.122-33.137 1.924-56.809 1.387-40.95.049-1.429.071-2.114-.024-8.049zm174.765 164.53-3.249-.292-.659-.059.032-4.7c.086-12.445.34-47.709.684-82.816a12920 12920 0 0 0-3.066-62.961q-.4-1.436-.821-2.929l-.007-.027c-4.833-17.307-10.934-40.192-16.15-62.946q-.3-1.295-.59-2.589l4.667 159.975.162 5.541 1.66 56.9h17.336q.01-1.409.001-3.097"/><path fill="#8a9097" d="M1295.722 485.912c-4.172-21.371-14.733-33.547-31.748-35.8q-.109-.015-.217-.031c-.041 0-.081-.012-.122-.018-.172-.021-.342-.048-.516-.067-17.815 8.69-21.873 35.857-21.148 53.486a69 69 0 0 0 .943 9.271c.26 1.434.531 2.885.808 4.343q.9 4.749 1.91 9.641a816 816 0 0 0 3.367 15.549q.292 1.295.59 2.589c5.216 22.754 11.317 45.639 16.15 62.946l.007.027q.417 1.492.821 2.929a1710 1710 0 0 0 3.648 12.791c-.21 14.7-.408 32.414-.582 50.17-.344 35.107-.6 70.371-.684 82.816l-.032 4.7.659.059 3.249.292 2.92.263c9.872.886 27.2 2.435 29.378 2.58l.4.026c9.265.612 16.68.819 16.792-.074 5.748-45.994 10.851-150.354 10.851-150.354zm-170.674-35.892c-16.347 10.353-25.985 26.018-27.324 45.1a61 61 0 0 0 .054 9.335l.078 25.638.2 66.987.054 17.635.024 8.049-.071 2.114-.049 1.429-1.387 40.95-1.924 56.809-1.122 33.137-.135 3.981h22.493l.006.016.023.054 7.834-53.448.23-1.566.583-3.978 4.677-31.912 7.449-50.818.235-1.6.03-3.213 1.628-172.673-12.3 7.149c-.434.265-.853.551-1.286.825"/><g fill="#eff1f2"><path d="M723.73 533.238c-23.68 10.062-47.867 20.206-70.911 27.888l.073.351 122.939-25.614v-15.458c-9.851 5.985-41.734 10.23-52.384 11.51zM620.087 404.023l-12.272-58.9 35.241 169.148c39.257-7.667 73.546-14.284 73.546-14.284l.686 3.2.5 2.352c10.559-2.225 29.762-13.049 35.572-11.221l22.467-1.488v-95.78l-5.087-24.415zm14.8 14.154 58.088-12.1 1.888 9.062-58.087 12.1zm2.959 14.2 70.071-14.6 1.888 9.062-70.071 14.6zm4.81 23.084-1.888-9.062 50.954-10.616 1.888 9.062zm11.275 54.119-1.269-6.091 67.652-14.089 1.269 6.091zm-2.731-13.114-1.269-6.091 80.279-16.726 1.269 6.091zm221.947-209.74-4.288 5.164-2.328-6.295-4.289 5.163-2.328-6.295-4.288 5.164-2.499-6.759-6.39 37.357-2.747 16.056.094.016 4.424-5.327 2.328 6.295 4.288-5.163 2.328 6.295 4.288-5.164 2.328 6.296 4.289-5.164 2.401 6.495.183.031 3.535-20.666 5.602-32.746-4.603 5.543zM1230.95 430.8l-2.244-1.372s-.579.63-1.557 1.7c-1.551 1.7-4.117 4.509-7.046 7.746-3.15 3.482-6.711 7.445-9.865 11.02-2.307 2.616-4.4 5.024-5.943 6.878 0 0-3.83-2.895-8.508-6.878-5.177-4.408-11.386-10.144-14.6-14.764a12 12 0 0 1-.217-.309l-.287.353-11.958 14.72-5.587 6.878s-3.836-11.512-4.1-19.713a28 28 0 0 1-.015-.865c0-3.126 1.693-6.246 3.791-8.914l-17.691 10.991-.383 50.862h69.682l17.617-57.667z"/><path d="M1177.719 432.431a26 26 0 0 0 3.249 2.391zm-741.413 9.156h-.002v.001zm30.212 6.453-6.65-4.393-1.427 5.061-.024.086-4.19 14.855-6.221-7.657-2.389-2.941-9.317-11.463a127 127 0 0 0-6.642 11.463c-3.534 6.757-6.3 12.9-6.3 12.9l-19.661-12.9-6.525-4.28-7.448-4.886-.362-.238-1.932.68c.012.089.032.2.047.3.861 5.726 6.227 25.405 13.074 49.34h86.06l-19.373-44.279z"/></g><g fill="#e0e2e5"><path d="m556.867 502.17 19.7 12.381V219.273h548.481V450.02c.433-.274.85-.56 1.292-.826l14.2-8.257v-93.383c-6.128-8.908-4.137-18.6-2.128-24.061.082-7.879-7.371-19.991 1.015-24.181.362-.181.739-.33 1.113-.485v-97.756H556.867zm19.7 71.416a64.5 64.5 0 0 1-19.7-5.383v46.515h154.414V900h22.224V614.718h227.9V900h22.225V614.718h104.209c1.433-4.092 2.687-7.633 3.7-10.434l.614-7.2H576.567z"/><path d="M797.29 500.045c-3.878 1.142-8.69 2.374-8.71 3.316 0 0-.943 9.649-12.567 16.936-.058.036-.122.072-.182.108v20.824h153.892V320.225h-55.247l-3.535 20.666-.183-.031-2.4-6.5-4.289 5.164-2.328-6.3-4.288 5.164-2.328-6.3-4.288 5.163-2.328-6.295-4.424 5.327-.094-.016 2.747-16.056h-70.907v172.6l19.684-1.3 6.428-.425s.136 2.946.161 6.871c.002.586-2.193 1.316-4.814 2.088m23.01-22.269h-36.655v-4.629H820.3zm98.792-44.735H889.1v-4.628h29.994zm-26.474 2.909h26.474v4.628h-26.473zm26.475-10.45h-24.469v-4.628h24.469zm-69.154-60.8c37.138 0 67.245 6.095 67.245 13.614 0 1.738-1.626 3.4-4.559 4.926l-31.419 33.96a1.4 1.4 0 0 1-.085.442L866.6 493.418A15.5 15.5 0 0 1 851.375 506h-2.64a15.5 15.5 0 0 1-15.225-12.585l-14.521-75.772a1.4 1.4 0 0 1-.085-.442l-31.6-33.927c-2.967-1.536-4.614-3.207-4.614-4.955.01-7.519 30.11-13.611 67.249-13.611zm-36.39 100.9v4.629h-29.9v-4.619h29.9zm-19.329 19.7h-10.575v-4.628H816v4.628zm421.751-70.325a2 2 0 0 1-.13.411c-.38.955-1.829 3.567-7.17 7.739-1.285 1-2.793 2.1-4.566 3.278-10.209 6.808-23.5 7.88-23.132 8.423.068.1.145.206.217.309 3.211 4.62 9.42 10.356 14.6 14.764 4.678 3.983 8.508 6.878 8.508 6.878 1.546-1.854 3.636-4.262 5.943-6.878 3.154-3.575 6.715-7.538 9.865-11.02a2036 2036 0 0 1 7.046-7.746c.978-1.071 1.557-1.7 1.557-1.7zm-38.252 17.456c-2.388-2.035-5.4-5.27-6.519-9.306a12 12 0 0 1-.419-2.432 12 12 0 0 1-.022-.671c0-.083-.006-.164-.005-.247a42.4 42.4 0 0 0-7.939 7.51c-2.1 2.668-3.791 5.788-3.791 8.914q0 .426.015.865c.265 8.2 4.1 19.713 4.1 19.713l5.587-6.878 11.958-14.72.287-.353a26 26 0 0 1-3.252-2.395m-728.901-7.669a12.3 12.3 0 0 1-.555 2.552c-2.5 7.695-11.915 14.243-11.957 14.273.118-.175-.2-.1-1.848-.522a38 38 0 0 1-1.635-.462c-4.215-1.289-13.181-4.679-31.618-14.051a669 669 0 0 1-3.5-1.79 49.7 49.7 0 0 0-8.343 18.885l.362.238 7.448 4.886 6.525 4.28 19.661 12.9s2.768-6.142 6.3-12.9a127 127 0 0 1 6.642-11.463l9.314 11.463 2.389 2.941 6.221 7.657 4.19-14.855.024-.086 1.427-5.061a46 46 0 0 0-11.047-18.885"/></g><path fill="#2e3033" d="M407.428 832.61 389.8 802.1l-36.545 5.46s17.711 43.55 54.173 25.05"/><path fill="#43464a" d="m801.943 491.1-6.428.425-19.684 1.3-22.467 1.488c-5.81-1.828-25.013 9-35.572 11.221l4.75 22.157.9 4.22c10.65-1.28 42.533-5.525 52.384-11.51.06-.036.124-.072.182-.108 11.624-7.287 12.567-16.936 12.567-16.936.02-.942 4.832-2.174 8.71-3.316 2.621-.772 4.816-1.5 4.814-2.074-.02-3.921-.156-6.867-.156-6.867M443.324 361.505l-13.561-4.526h.009a82.6 82.6 0 0 1-13.823 1.11c-.28 2-.647 4.083-1.129 6.184a37.8 37.8 0 0 0-4.521-6.388 103 103 0 0 1-11.017-1.343c-6.976 8.438 8.362 27.7 10.923 30.8q.038 1.073.125 2.124a56.1 56.1 0 0 0 8.952 25.279s-8.149.5-16.166 1.267l-1.916 10.54c18.437 9.372 27.4 12.762 31.618 14.051l1.635.462c1.648.421 1.966.347 1.848.522.042-.03 9.452-6.578 11.957-14.273q-.148-1.269-.3-2.552a78.7 78.7 0 0 1-15.992-13.086 46.6 46.6 0 0 0 14.751 1.353 64.3 64.3 0 0 0 15.308-2.742s4.378-9.386 9.651-28.95l.042-.161c.721-2.691 1.712-8.194 2.58-13.558-8.951 1.402-21.945-1.153-30.974-6.113m-68.309 402.227-.54.147-25.3 6.9 1.934 7.323 2.147 29.45L389.8 802.1l-2.685-6.966 21.567 10.462 2.75-8.5-35.208-30.215z"/><path fill="#002742" d="M400.552 493.968c-6.847-23.935-12.213-43.614-13.074-49.34-.015-.1-.035-.212-.047-.3l-22.531 7.116c.26-.034.516-.073.778-.1.115.13.218.265.332.4 14.057 16.259 20.223 35.688 20.223 61.536 0 9.768-1.956 21.539-4.922 33.779q-.368 1.517-.755 3.042l-4.783 92.476-.891 17.232-2.086 40.337c.506 3.09.989 6.16 1.449 9.187h60.287l.255-46.157.019-3.367.27-49.056s-20.4-67.41-34.524-116.785"/><path fill="#001d33" d="M478.679 453.027s-.422-.19-1.185-.486zm244.768 78.888-.9-4.22-4.75-22.157-.5-2.352-.686-3.2s-34.289 6.617-73.546 14.284a21518 21518 0 0 0-51 10.018l-15.487-9.734-19.7-12.381-78.188-49.143s9.107 23.2 32.386 58.841c7.99 10.449 12.393 21.265 10.939 38.542a505 505 0 0 0 27.124 13.323 51.7 51.7 0 0 0 7.739 4.47 64.5 64.5 0 0 0 19.7 5.383c21.711 2.61 48.127-3.085 76.252-12.46 23.044-7.682 47.231-17.826 70.911-27.888zm-370.792 96.757c.034.045.072.086.106.132a38.3 38.3 0 0 1 3.519 6.023 130 130 0 0 1 7.673 22.2c.915 3.436 1.8 7.035 2.641 10.751 2.341 10.288 4.41 21.445 6.2 32.368l2.086-40.337.891-17.232 4.783-92.476a477 477 0 0 1-16.531 50.8c-5.761 15.064-10.583 26.004-11.368 27.771"/><path fill="#004975" d="M1158.074 769.963c-8.314-20.27-11.114-46.591-12.058-62.154h-22.21l-7.834 53.448-.023-.054-.006-.016H1105.2L1108.815 900h76a699 699 0 0 1 4.529-22.033c-10.356-42.667-21.774-84.853-31.27-108.004M494.7 663.229l-30.76-.028c-.332 12.1-2.226 48.238-13.035 74.591-8.293 20.221-18.362 54.964-28.143 92.494 6.026 23.757 12.557 47.5 17.681 69.718l65.341.013 5.637-162.542c.035-2.525-1.187-16.2-2.475-29.489zm-185.838-46.886h.003v-.012zm56.811-165.001c-.262.029-.518.068-.778.1-17.241 2.246-28.084 14.724-32.305 36.35l-23.717 128.494c0-.013.006-.031.012-.033q.1-.017.2-.035c15.07-2.8 26.793-.967 35.365 4.688a32.6 32.6 0 0 1 8.207 7.766c.785-1.767 5.607-12.707 11.365-27.779a477 477 0 0 0 16.531-50.8q.389-1.526.755-3.042c2.966-12.24 4.922-24.011 4.922-33.779 0-25.848-6.166-45.277-20.223-61.536-.116-.129-.219-.264-.334-.394"/><path fill="#0096e8" d="M851.316 423.5c-.419 0-.838.006-1.261.006s-.842 0-1.26-.006c-15.891-.128-28.712-2.666-29.806-5.858l14.521 75.772A15.5 15.5 0 0 0 848.735 506h2.64a15.5 15.5 0 0 0 15.225-12.582l14.52-75.772c-1.092 3.192-13.913 5.73-29.804 5.854M308.7 617.23l.028.017-.014-.094z"/><path fill="#003253" d="M515.547 583.281v.009c-8.706 38.619-17.427 79.939-17.427 79.939h-3.422l14.246 44.753.428 1.346h21.409zm-142.756 116.86c-1.787-10.923-3.856-22.08-6.2-32.368a303 303 0 0 0-2.641-10.751 130 130 0 0 0-7.673-22.2 38.3 38.3 0 0 0-3.519-6.023c-.034-.046-.072-.087-.106-.132a32.6 32.6 0 0 0-8.207-7.766c-8.572-5.655-20.295-7.486-35.365-4.688q-.098.018-.2.035c-.006 0-.008.02-.012.033l-.008.045v.012a5 5 0 0 0 .069.685l.014.094c2.008 13.25 28.919 156.746 28.919 156.746l.816-.223 9.5-2.593.991-.27 25.3-6.9.54-.147 5.817-1.587s-2.288-24.478-6.592-52.817a649 649 0 0 0-1.443-9.185"/></svg>