<svg xmlns="http://www.w3.org/2000/svg" viewBox="0 0 374.2 218"><g data-name="Ebene_1"><path fill="#c1c7cc" d="m21.1 164.6 10.3 4.3 23-50-14.5 4.1z"/><path fill="#c1c7cc" d="M100.2 4.2 89.8 0 75.7 32.2l-2.6-.9-6.8 15.3L30.8 31l-8.1 16.3-2.3-.9L4.7 83.9l2.9 1-7.3 20.3s18 5.1 37 11.1l-1.5 3.9s-3.6 9.2-5.3 13.2l3.4 1.1 10.9 3.8 10.3 3.6 7.2-17.5c6 1.9 13.4 4.5 19.3 6.4l4.4-6.5 13.8-1.9 83.5 35.6 3.3-7.8c8.2 3 47.2 18.9 51.5 20.6.6-1.7 3.2-7.2 3.2-7.2l129.6 54.3 3.4-7.3-129.4-55 3-6.8-52-20.4 3.6-8.3-84.8-34.2-8.9-11.5 1-6.9-16.2-10.9L97 41.5l-10.8-4.7s14.1-32.5 14.2-32.7z"/><path fill="#595e62" d="m186.5 150.3 9.3-21.8 52 20.4-9.8 22z"/><path fill="#005587" d="m0 105.8 4.9-13.4 36.6 12.7 24.7 9.3-11.4 27.9-24.5-8.5 6.6-16.6zm30.8-74.9-7 14.2L60.5 59l24.7 9.7L97 41.5 73.1 31.3l-6.8 15.3L30.8 31z"/><path fill="#595e62" d="m6.5 87.3-2.9-1.1 16.8-39.9 2.3.9 4.9-9.7 15.7 6.7-2.5 6.9L60.5 59l-19 46.1-20.2-6.9-2.9 7.5-16.442-5.274z"/><path fill="#eff1f2" d="M99.6 122.4 114.5 86l85 34.1-16.2 37.9z"/><circle cx="57.4" cy="100" r="4" fill="#005587"/><path fill="#ed0007" d="m57.8 91.5 8.9-22.7 5.3 2.1-8.9 22.7z"/></g></svg>