<svg xmlns="http://www.w3.org/2000/svg" viewBox="0 0 3840 2160"><g fill="none" fill-rule="evenodd"><path fill="#FFF" fill-rule="nonzero" d="M0 0h3840v2160H0z"/><path fill="#EFF1F2" fill-rule="nonzero" d="M3314.2 1507.06V836.25h-669.09v139.1h-482.13V629.7h-639.69v561.81h-321.73V975.35H532.47v531.71H152.24v511.91h380.23v-.31h990.82v.31h639.69v-.31H3314.2v-.17l.15.48h373.42v-511.91z"/><path fill="#EFF1F2" fill-rule="nonzero" d="M2343.27 669.59h217.78a70.83 70.83 0 1 0 0-141.65 72 72 0 0 0-12.09 1l-34.88 5.93c-9.12-42.346-46.593-72.56-89.91-72.49-50.74 0-91.88 40.94-91.88 91.44a91.5 91.5 0 0 0 .77 11.89c-26.551 5.152-44.822 29.661-42.176 56.578s25.34 47.4 52.386 47.282zM1033.93 551.11H1231c24.72.14 45.4-18.732 47.516-43.361 2.116-24.63-15.044-46.752-39.426-50.829l-28.26-4.81c.13-1.9.22-3.81.22-5.74 0-45.7-37.23-82.74-83.15-82.74-37.317-.05-70.09 24.782-80.14 60.72l-2.9-.5a65.5 65.5 0 0 0-10.93-.94 64.1 64.1 0 1 0 0 128.19z"/><path fill="#F7F8F9" fill-rule="nonzero" d="M1523.29 887.39h116.18v155.42h-116.18zm130.88 0h116.18v155.42h-116.18zm130.88 0h116.18v155.42h-116.18zm130.88 0h116.18v155.42h-116.18zm130.87 0h116.18v155.42H2046.8zm-523.51 206.55h116.18v155.42h-116.18zm130.88 0h116.18v155.42h-116.18zm130.88 0h116.18v155.42h-116.18zm130.88 0h116.18v155.42h-116.18zm130.87 0h116.18v155.42H2046.8zm-523.51-413.11h116.18v155.42h-116.18zm130.88 0h116.18v155.42h-116.18zm130.88 0h116.18v155.42h-116.18zm130.88 0h116.18v155.42h-116.18zm130.87 0h116.18v155.42H2046.8zm-523.51 619.67h116.18v155.42h-116.18zm130.88 0h116.18v155.42h-116.18zm130.88 0h116.18v155.42h-116.18zm130.88 0h116.18v155.42h-116.18zm130.87 0h116.18v155.42H2046.8zm-523.51 206.55h116.18v155.42h-116.18zm130.88 0h116.18v155.42h-116.18zm130.88 0h116.18v155.42h-116.18zm130.88 0h116.18v155.42h-116.18zm130.87 0h116.18v155.42H2046.8zm-523.51 206.56h116.18v155.42h-116.18zm130.88 0h116.18v155.42h-116.18zm130.88 0h116.18v155.42h-116.18zm130.88 0h116.18v155.42h-116.18zm130.87 0h116.18v155.42H2046.8zM532.47 1062.54h669.09v102.52H532.47zm0 175.99h669.09v102.52H532.47zm0 176h669.09v102.52H532.47zm0 175.99h669.09v102.52H532.47zm0 175.99h669.09v102.52H532.47zm2402.42-852.67h89.53v102.52h-89.53zm126.43 0h89.53v102.52h-89.53zm-252.87 0h89.53v102.52h-89.53zm-126.44 0h89.53v102.52h-89.53zm505.75 0h89.53v102.52h-89.53zm-252.87 170.54h89.53v102.52h-89.53zm126.43 0h89.53v102.52h-89.53zm-252.87 0h89.53v102.52h-89.53zm-126.44 0h89.53v102.52h-89.53zm505.75 0h89.53v102.52h-89.53zm-252.87 170.53h89.53v102.52h-89.53zm126.43 0h89.53v102.52h-89.53zm-252.87 0h89.53v102.52h-89.53zm-126.44 0h89.53v102.52h-89.53zm505.75 0h89.53v102.52h-89.53zm-252.87 170.53h89.53v102.52h-89.53zm126.43 0h89.53v102.52h-89.53zm-252.87 0h89.53v102.52h-89.53zm-126.44 0h89.53v102.52h-89.53zm505.75 0h89.53v102.52h-89.53zm-252.87 170.54h89.53v102.52h-89.53zm126.43 0h89.53v102.52h-89.53zm-252.87 0h89.53v102.52h-89.53zm-126.44 0h89.53v102.52h-89.53zm505.75 0h89.53v102.52h-89.53zm-252.87 170.53h89.53v102.52h-89.53zm126.43 0h89.53v102.52h-89.53zm-252.87 0h89.53v102.52h-89.53zm-126.44 0h89.53v102.52h-89.53zm505.75 0h89.53v102.52h-89.53z"/><path d="M152.23 2047.83h3535.53v29.49H152.23z"/><path d="M152.23 2018.66h3535.53v29.49H152.23z"/></g></svg>