<svg xmlns="http://www.w3.org/2000/svg" viewBox="0 0 3840 2160"><g fill="none" fill-rule="evenodd"><path fill="#FFF" fill-rule="nonzero" d="M0 0h3840v2160H0z"/><path fill="#EFF1F2" fill-rule="nonzero" d="M1760.15 705.5h217.78a70.83 70.83 0 1 0 0-141.65 73 73 0 0 0-12.09 1L1931 570.8c-9.12-42.346-46.593-72.56-89.91-72.49-50.75 0-91.88 40.94-91.88 91.44a91.5 91.5 0 0 0 .77 11.89c-26.551 5.152-44.822 29.661-42.176 56.578s25.34 47.4 52.386 47.282zM814 436.11h197.08c24.696.109 45.341-18.755 47.455-43.361s-15.012-46.714-39.365-50.819L991 337.1c.13-1.89.22-3.8.22-5.73 0-45.7-37.23-82.74-83.15-82.74-37.316-.052-70.092 24.774-80.15 60.71l-2.89-.49A64.12 64.12 0 1 0 814 436.11M2719.38 696h345.83c46.2 0 83.66-37.28 83.66-83.25-.098-40.6-29.429-75.226-69.46-82l-49.56-8.43q.34-5 .35-10.08c0-80.24-65.33-145.24-145.91-145.24-65.48-.103-123.004 43.447-140.67 106.5l-5-.86a114.5 114.5 0 0 0-19.19-1.62c-62.42 0-113 50.35-113 112.47S2657 696 2719.38 696m969.82 1322.66c-127.14-197.69-229.32-249.44-324.84-259.82v-48.06a67.46 67.46 0 0 0 52.11-103.28c1.32-6.44 2.88-14.76 2.89-17.73 0-33.11-60-134.34-60-134.34s-60 101.23-60 134.34c0 2.89 1.74 10.86 3.21 17.23a67.44 67.44 0 0 0 51.79 103.78v47.13c-105.6-8.48-203.77 29.58-319.56-29-215-108.92-403.66-72.52-550.52 5.8V836.25h-639.7v355.26h-321.64V975.35H853.85v793.24q-7-.09-14-.1a1084.4 1084.4 0 0 0-314.28 46.2v-103.53a110.26 110.26 0 0 0 85.15-168.8c2.15-10.53 4.7-24.1 4.71-28.94 0-54.11-98-219.51-98-219.51s-98 165.4-98 219.51c0 4.71 2.84 17.71 5.24 28.1a110.27 110.27 0 0 0 84.62 169.64v108.55a1063.1 1063.1 0 0 0-360.75 199h1696.13v.31h639.7v-.31z"/><path fill="#F7F8F9" fill-rule="nonzero" d="M1844.67 887.39h116.18v155.42h-116.18zm130.88 0h116.18v155.42h-116.18zm130.88 0h116.18v155.42h-116.18zm130.88 0h116.18v155.42h-116.18zm130.88 0h116.18v155.42h-116.18zm-523.52 206.55h116.18v155.42h-116.18zm130.88 0h116.18v155.42h-116.18zm130.88 0h116.18v155.42h-116.18zm130.88 0h116.18v155.42h-116.18zm130.88 0h116.18v155.42h-116.18zm-523.52 206.56h116.18v155.42h-116.18zm130.88 0h116.18v155.42h-116.18zm130.88 0h116.18v155.42h-116.18zm130.88 0h116.18v155.42h-116.18zm130.88 0h116.18v155.42h-116.18zm-523.52 206.55h116.18v155.42h-116.18zm130.88 0h116.18v155.42h-116.18zm130.88 0h116.18v155.42h-116.18zm130.88 0h116.18v155.42h-116.18zm130.88 0h116.18v155.42h-116.18zm-523.52 206.56h116.18v155.42h-116.18zm130.88 0h116.18v155.42h-116.18zm130.88 0h116.18v155.42h-116.18zm130.88 0h116.18v155.42h-116.18zm130.88 0h116.18v155.42h-116.18zM853.85 1062.54h669.09v102.52H853.85zm0 175.99h669.09v102.52H853.85zm0 176h669.09v102.52H853.85zm0 175.99h669.09v102.52H853.85zm0 175.99h669.09v102.52H853.85z"/><path d="M150.8 2047.83h3540.6v29.49H150.8z"/><path d="M150.8 2018.66h3540.6v29.49H150.8z"/></g></svg>