<svg xmlns="http://www.w3.org/2000/svg" viewBox="0 0 569 207"><g fill="none" transform="translate(.108 .843)"><path fill="#C1C7CC" d="M207.737 204.987c20.33-45.544 7.02-99.081-32.273-129.8s-94.46-30.72-133.753 0-52.604 84.256-32.274 129.8zm352.61 0c16.01-35.835 5.543-77.968-25.375-102.145s-74.331-24.176-105.249 0c-30.918 24.177-41.385 66.31-25.376 102.145z"/><circle cx="176.917" cy="62.197" r="40.25" fill="#C1C7CC"/><circle cx="427.697" cy="73.417" r="40.25" fill="#C1C7CC"/><path fill="#D0D4D8" d="M232.437 204.987c15.996-35.83 5.525-77.949-25.387-102.117-30.912-24.167-74.313-24.167-105.225 0s-41.383 66.287-25.388 102.117zm270.66 0c9.343-20.919 3.231-45.512-14.816-59.623-18.048-14.112-43.389-14.112-61.437 0s-24.159 38.704-14.817 59.623z"/><path fill="#D0D4D8" d="M437.077 204.987c27.259-61.088 9.398-132.89-43.303-174.088-52.702-41.199-126.691-41.199-179.393 0s-70.562 113-43.304 174.088z"/></g></svg>