<svg xmlns="http://www.w3.org/2000/svg" viewBox="0 0 1641 967"><g fill="none" transform="translate(.67 .7)"><path fill="#383B3E" d="M0 169.72h1277.7v56H0z"/><path fill="#595E62" d="M650.129 33.36h605v141.87h-605zm-624.889 0h602.64v141.87H22.78z"/><path fill="#383B3E" d="M52.44 276.2h1172.83v637.75H52.44z"/><path fill="#595E62" d="M77.68 301.44h357.28v587.27H77.68zm382.53 0h357.28v587.27H460.21zm382.53 0h357.28v587.27H842.74z"/><path fill="#383B3E" d="M1200.02 888.71h25.24v75.73h-25.24zm-1147.58 0h25.24v75.73H52.44zm1147.58-673.26h25.24v86h-25.24zm-1147.58 0h25.24v86H52.44zM626.23 33.36h25.24v141.87h-25.24zm-580.76 0H17.39C12 46 7.83 61.51 5 80c-5.1 32.92-5 67.73-4.87 88.52v6.71h25v-6.81c-.09-20.06-.23-53.64 4.54-84.57 3.39-22 8.76-39.04 15.8-50.49m1186.87 0h28.08C1265.86 46 1270 61.51 1272.84 80c5.07 32.89 4.92 67.7 4.83 88.49v6.71h-25v-6.81c.08-20.06.23-53.64-4.55-84.57-3.37-21.97-8.74-39.01-15.78-50.46"/><path fill="#2E3033" d="M511.67 773.14h636.9v36.89h-636.9z"/><path fill="#2E3033" d="M548.41 776.25h25.24v188.19h-25.24zm538.16 0h25.24v188.19h-25.24zM155.06 378.82h202.53v242.83H155.06z"/><path fill="#383B3E" d="M1520.84 215.45h33.5v749h-33.5z"/><rect width="202.15" height="225.72" x="1436.51" fill="#43464A" rx="17.72"/><path fill="#2E3033" d="M1493.83 64.67h87.52v85.51h-87.52z"/><path fill="#43464A" d="M1570.47 110.04h-65.78V75.53h65.78z"/><circle cx="1510.13" cy="124.03" r="5.43" fill="#43464A"/><circle cx="1565.05" cy="124.03" r="5.43" fill="#43464A"/><path fill="#2E3033" d="M1504.7 150.18h10.87v10.87h-10.87zm54.91 0h10.87v10.87h-10.87z"/><path fill="#43464A" d="M1537.59 416.17c46.944 0 85 38.056 85 85v162.27h-169.9V501.12c.028-46.886 38.014-84.895 84.9-84.95"/><rect width="92.72" height="38.67" x="1491.23" y="460.2" fill="#2E3033" rx="19.335"/><path fill="#43464A" d="M1443.69 498.88h187.79v29.61h-187.79z"/></g></svg>