<svg xmlns="http://www.w3.org/2000/svg" viewBox="0 0 1567 558"><path fill="#c1c7cc" d="M0 0h283.88v557.32H0z"/><path fill="#232628" d="M1331.406 430.55c0-32.66 9.14-62.41 24.18-84.89v-41.91h69.61c51.75 0 93.7 56.76 93.7 126.8s-42 126.77-93.7 126.77h-69.68v-41.91c-15-22.45-24.17-52.23-24.17-84.86"/><path fill="#8a9097" d="M1422.996 434.79c0 51.68-31 93.59-69.15 93.59s-69.16-41.91-69.16-93.59 31-93.57 69.16-93.57 69.15 41.88 69.15 93.57"/><path fill="#c1c7cc" d="M1353.896 341.22a50.7 50.7 0 0 1 9.91 1c-33.51 6.59-59.33 45.48-59.33 92.6s25.75 86.12 59.33 92.62a53 53 0 0 1-9.91 1c-38.19 0-69.16-41.91-69.16-93.59s31-93.57 69.16-93.57"/><path fill="#c1c7cc" d="m1275.566 446.19 58.15-26.65a17.8 17.8 0 0 0 9.67-10.11l29.93-85.37 43.64 11-30.43 86.8a17.13 17.13 0 0 0 1.89 15.15l28.56 44.58-20.54 46.81-42.63-64.76a11.13 11.13 0 0 0-13.74-3.43l-59.88 27.47z"/><path fill="#383b3e" d="M1357.476 303.75c-51.76 0-93.71 56.76-93.71 126.8s42 126.77 93.71 126.77 93.7-56.76 93.7-126.77-42-126.8-93.7-126.8m-3.58 224.63c-38.19 0-69.16-41.91-69.16-93.59s31-93.57 69.16-93.57 69.15 41.88 69.15 93.57-31 93.59-69.15 93.59"/><path fill="#232628" d="M761.816 430.55c0-32.66 9.12-62.41 24.18-84.89v-41.91h69.59c51.75 0 93.72 56.76 93.72 126.8s-42 126.77-93.72 126.77h-69.69v-41.91c-15-22.45-24.17-52.23-24.17-84.86"/><path fill="#8a9097" d="M853.406 434.79c0 51.68-31 93.59-69.15 93.59s-69.18-41.91-69.18-93.59 31-93.57 69.18-93.57 69.15 41.88 69.15 93.57"/><path fill="#c1c7cc" d="M784.256 341.22c3.328.007 6.648.342 9.91 1-33.51 6.59-59.33 45.48-59.33 92.6s25.75 86.12 59.33 92.62a53 53 0 0 1-9.91 1c-38.19 0-69.18-41.91-69.18-93.59s31-93.57 69.18-93.57"/><path fill="#c1c7cc" d="m705.956 446.19 58.15-26.65a17.92 17.92 0 0 0 9.67-10.11l29.93-85.37 43.64 11-30.45 86.78a17.19 17.19 0 0 0 1.9 15.16l28.68 44.36-20.57 47-42.63-64.76a11.1 11.1 0 0 0-13.73-3.43l-59.88 27.47z"/><path fill="#383b3e" d="M787.896 303.75c-51.76 0-93.71 56.76-93.71 126.8s42 126.77 93.71 126.77 93.7-56.76 93.7-126.77-42-126.8-93.7-126.8m-3.63 224.63c-38.19 0-69.18-41.91-69.18-93.59s31-93.57 69.18-93.57 69.15 41.88 69.15 93.57-31 93.59-69.15 93.59"/><path fill="#d0d4d8" d="m375.896 312.48 132.46 55.06 4.95 138.84h647.73c132.09 0 350.3-.86 350.3-.86 27.21-.54 22.79-19.6 29.71-38.56 40.94-42.46 17.23-148.4 17.23-148.4l-19.78-28c-16.39-41.95-39.84-52-75.42-88.36-146.72-149.8-303.31-194.56-510.54-194.56h-47.64c-102.34 3.45-303.58-2.35-480.26 164.53z"/><path fill="#d0d4d8" d="m513.176 496.74-174.4-62.68c-4.79-53.33 13.63-96.91 43.6-128.48l130.8 2.52z"/><path fill="#383b3e" d="M1434.006 172.82c-84.8-82.31-178-119.38-256.71-143a380 380 0 0 0-63.13-13.19c-108.54-13.36-218.08-9.8-271.83-6.99 71.88 20.81 133.32 73.24 179.73 137.21 51.47 71 121.68 126.16 203.64 157.21 21.3 8.09 142.16 52.94 216.87 5.89 84.72-52.74 28.13-101.64-8.46-137.15"/><path fill="#2e3033" d="M1290.426 404a837.5 837.5 0 0 0 180.74 0l9.21-6.11s-.48-6.88-3-6.88c-66.43 5.91-131.19 6.44-193.68 0-1.59 0-2.91 2.75-3 6.22zm25.23 50.19a664 664 0 0 0 130.13 0l6.59-6.07s-.35-6.9-2.19-6.9a723.3 723.3 0 0 1-139.43 0c-1.17 0-2.2 2.77-2.2 6.24z"/><path fill="#595e62" d="M1460.596 365.87c29.93-1.18 62.68-7.44 100-19.11l-4.85-28.9c-38.17 18.08-69.25 27.49-97.64 29.6z"/><path fill="#c1c7cc" d="m1555.136 319.09 4.55 27.1c-36.7 11.4-68.89 17.57-98.36 18.83l-2.2-16.79c28-2.2 58.63-11.52 96-29.14m1.28-2.44c-33.21 15.8-66.32 27.78-99.2 30l2.68 20c33.76-1.25 67.66-8.79 101.66-19.4l-5.14-30.77m-829.31 151.69V42c83.4-20.57 149-8.62 206 44.61l37.35 201.57c-53.33 32.82-86.62 91.56-68.95 178.87z"/><path fill="#8a9097" d="M1053.356 506.78c15.25-17.19 25-43 25-72 0-51.69-31-93.57-69.16-93.57s-69.15 41.88-69.15 93.57c0 28.94 9.71 54.8 25 72h-27.15a157.3 157.3 0 0 1-18.83-76.23c0-70 41.95-126.8 93.7-126.8s93.7 56.76 93.7 126.8a157.4 157.4 0 0 1-18.83 76.23z"/><path fill="#232628" d="M998.896 430.55c0-32.66 9.12-62.41 24.17-84.89v-41.91h69.6c51.75 0 93.7 56.76 93.7 126.8s-42 126.77-93.7 126.77h-69.66v-41.91c-14.96-22.41-24.11-52.23-24.11-84.86"/><path fill="#8a9097" d="M1090.516 434.79c0 51.68-31 93.59-69.17 93.59s-69.16-41.91-69.16-93.59 31-93.57 69.16-93.57 69.17 41.88 69.17 93.57"/><path fill="#c1c7cc" d="M1021.346 341.22c3.328.008 6.647.343 9.91 1-33.49 6.59-59.33 45.48-59.33 92.6s25.75 86.12 59.33 92.62a53.3 53.3 0 0 1-9.91 1c-38.2 0-69.16-41.91-69.16-93.59s31-93.57 69.16-93.57"/><path fill="#c1c7cc" d="m943.066 446.19 58.15-26.65a17.92 17.92 0 0 0 9.67-10.11l29.93-85.37 43.62 11-30.44 86.8a17.23 17.23 0 0 0 1.9 15.14l28.57 44.58-20.57 47-42.63-64.76a11.09 11.09 0 0 0-13.71-3.43l-59.88 27.47z"/><path fill="#383b3e" d="M1025.056 303.75c-51.75 0-93.7 56.76-93.7 126.8s41.95 126.77 93.7 126.77 93.7-56.76 93.7-126.77-41.95-126.8-93.7-126.8m-3.71 224.63c-38.2 0-69.16-41.91-69.16-93.59s31-93.57 69.16-93.57 69.17 41.88 69.17 93.57-31 93.59-69.17 93.59"/><path fill="#d0d4d8" d="M1228.566 506.1h-98.1c13.54-103-15.38-200.94-116.9-206.19l141.12-10.55z"/><path fill="#8a9097" d="M483.766 506.78c15.26-17.19 24.88-43 24.88-72 0-51.69-31-93.57-69.15-93.57s-69.16 41.88-69.16 93.57c0 3.62.15 7.18.44 10.7l-21.21-7.48c-.11-2.44-.15-4.92-.15-7.4 0-70 42-126.8 93.7-126.8s93.7 56.76 93.7 126.8a157.3 157.3 0 0 1-18.83 76.23z"/><path fill="#232628" d="M429.336 430.55c0-32.66 9.12-62.41 24.18-84.89v-41.91h69.59c51.75 0 93.7 56.76 93.7 126.8s-41.91 126.77-93.7 126.77h-69.66v-41.91c-15-22.45-24.17-52.23-24.17-84.86"/><path fill="#8a9097" d="M520.896 434.79c0 51.68-31 93.59-69.17 93.59s-69.16-41.91-69.16-93.59 31-93.57 69.16-93.57 69.17 41.88 69.17 93.57"/><path fill="#c1c7cc" d="M451.756 341.22c3.328.008 6.647.343 9.91 1-33.51 6.59-59.33 45.48-59.33 92.6s25.73 86.12 59.33 92.62a53.3 53.3 0 0 1-9.91 1c-38.2 0-69.16-41.91-69.16-93.59s31-93.57 69.16-93.57"/><path fill="#c1c7cc" d="m373.476 446.19 58.13-26.65a18 18 0 0 0 9.69-10.11l30-85.48 43.65 11-30.46 86.72a17.24 17.24 0 0 0 1.89 15.14l28.52 44.56-20.57 47-42.63-64.76a11.11 11.11 0 0 0-13.72-3.43l-59.9 27.47z"/><path fill="#383b3e" d="M455.376 303.75c-51.75 0-93.7 56.76-93.7 126.8s42 126.77 93.7 126.77 93.7-56.76 93.7-126.77-41.95-126.8-93.7-126.8m-3.62 224.63c-38.2 0-69.16-41.91-69.16-93.59s31-93.57 69.16-93.57 69.14 41.88 69.14 93.57-31 93.59-69.17 93.59"/><path fill="#d0d4d8" d="M658.976 506.1h-98.08c13.56-103-15.38-200.94-116.88-206.19l141.08-10.55z"/><path fill="#8a9097" d="M1175.016 501h335.09l17.08-4.4s-.9-5.07-5.52-5.07h-359.09a5.2 5.2 0 0 0-5.49 4.57z"/><path fill="#595e62" d="M1259.836 353.33c-48.89-7.23-91.17-19.78-129.19-38.33l-4.39 33.51c36.91 12 81 20.11 131.08 24.18z"/><path fill="#c1c7cc" d="M1131.306 316.26c37.59 18.21 79.42 30.58 127.59 37.74l-2.38 17.73c-49.4-4-93-12-129.47-23.82l4.24-31.68m-6.07 32.83c39.1 12.76 83.73 20.54 132.73 24.45l2.79-20.92c-46.72-6.83-90.67-19.16-130.79-38.85zm-601.52-229.59c73.71-38.43 137-65.31 192.64-78.16v427l-137.74 1.2c3.2-96-21.14-155.39-103.51-180.2z"/><path fill="#383b3e" d="m1034.636 219.26-158.86 81.55-372.32-23.6-100.29-43 15.38-43.95c40.35-42.26 215.09-151.61 363.6-159s242.93 153.08 252.75 188.06"/><circle cx="420.026" cy="269.79" r="17.1" fill="#383b3e"/><path fill="#71767c" d="M404.226 257.56h18.2V282h-18.2c-6.749 0-12.22-5.471-12.22-12.22 0-6.751 5.469-12.224 12.22-12.23z"/><ellipse cx="425.646" cy="269.79" fill="#c1c7cc" rx="11.48" ry="17.1"/><path fill="#71767c" d="m407.26 273.04-13.56.19c-10.49.19-18.9 8.73-18.92 19.22v47.11c-.09 67.89-36.56 127.4-90.9 160.07-.07.05-.14.1-.21.13-14.45 8.12-27.51 13.74-39.14 16.97 11.66-3.27 24.71-8.98 39.24-17.16l-3.17-5.64c52.37-31.53 87.51-88.92 87.6-154.38v-47.09c.02-14.09 11.32-25.57 25.41-25.81l13.56-.2zM86.29 299.564l-10.716.106c-4.472 0-10.817-3.792-10.817-8.264l-6.108-70.154V75.213c0-11.129 9.019-20.143 20.143-20.143h3.671v21.865H66.741v144.316l19.549 78.312Z"/><path fill="#d0d4d8" d="M232.924 221.293H66.743l5.601 69.121a10.07 10.07 0 0 0 10.102 9.258l101.716-.636a20.14 20.14 0 0 0 18.29-11.704z"/><path fill="#a2aab1" d="M166.434 260.164c0 10.999-8.971 19.926-20.024 19.926s-20.024-8.927-20.024-19.926 8.971-19.926 20.024-19.926a20.03 20.03 0 0 1 14.147 5.829 19.87 19.87 0 0 1 5.857 14.078z"/><path fill="#71767c" d="M165.915 311.242a4.793 4.793 0 0 1-6.134-2.88L147.75 275.05q-.658.06-1.34.06c-8.254 0-14.946-6.693-14.946-14.946s6.693-14.946 14.946-14.946a14.917 14.917 0 0 1 14.906 14.13l7.695 46.606a4.79 4.79 0 0 1-3.097 5.288Z"/><path fill="#e0e2e5" d="M86.886 55.068h125.895c11.117 0 20.143 9.026 20.143 20.143v146.038H66.743V75.212c0-11.117 9.026-20.143 20.143-20.143Z"/><path fill="#d0d4d8" d="M82.464 70.789h134.74v134.74H82.464z"/><path fill="#71767c" d="M149.834 179.396c0 1.889-1.534 3.423-3.423 3.423s-3.423-1.534-3.423-3.423a3.425 3.425 0 0 1 5.841-2.422 3.42 3.42 0 0 1 1.001 2.418l.003.003ZM283.88 499.63v.01l-.21.12c-14.45 8.12-27.51 13.74-39.14 16.97h-.01c-.9.25-1.79.49-2.67.71-1.76.45-3.49.83-5.19 1.16q-7.245 1.41-13.71 1.41c-9.06 0-16.99-2.07-23.87-6.19-32.42-19.43-31.1-80.73-30.13-125.48.17-7.94.33-15.44.29-22.05-.16-27.62-8.29-61.38-8.37-61.72l6.31-1.54c.34 1.41 8.39 34.83 8.56 63.22.04 6.7-.12 14.24-.29 22.23-.93 43.16-2.21 102.28 26.97 119.77 16.92 10.14 43.22 5.32 78.17-14.34l.01.02z"/><path fill="#a2aab1" d="M128.606 85.103h34.7v9.45h-34.7z"/></svg>