<svg xmlns="http://www.w3.org/2000/svg" viewBox="0 0 1251 702"><g fill="none" transform="translate(.29 .01)"><path fill="#232628" d="M221.003 573.52c0 32.65-9.11 62.4-24.17 84.89v41.9h-69.63c-51.75 0-93.73-56.76-93.73-126.79s42-126.78 93.73-126.78h69.66v41.91c15 22.46 24.17 52.23 24.17 84.87"/><path fill="#8A9097" d="M129.373 569.27c0-51.68 31-93.59 69.16-93.59s69.18 41.91 69.18 93.59-31 93.57-69.18 93.57-69.16-41.84-69.16-93.57"/><path fill="#C1C7CC" d="M198.533 662.84a51.5 51.5 0 0 1-9.91-1c33.51-6.6 59.33-45.49 59.33-92.61s-25.75-86.11-59.33-92.62a54 54 0 0 1 9.91-1c38.19 0 69.18 41.91 69.18 93.59s-31 93.57-69.18 93.57"/><path fill="#C1C7CC" d="m276.833 557.87-58.15 26.66a17.9 17.9 0 0 0-9.67 10.1L179.083 680l-43.64-11 30.43-86.8a17.11 17.11 0 0 0-1.87-15.12l-28.67-44.37 20.57-47 42.63 64.76a11.11 11.11 0 0 0 13.73 3.42l59.88-27.46z"/><path fill="#383B3E" d="M194.903 700.31c51.75 0 93.7-56.76 93.7-126.79s-42-126.78-93.7-126.78-93.7 56.76-93.7 126.78 42 126.79 93.7 126.79m3.63-224.63c38.19 0 69.18 41.91 69.18 93.6s-31 93.56-69.18 93.56-69.16-41.84-69.16-93.56 31-93.6 69.16-93.6"/><path fill="#595E62" d="M130.863 585.78c80.76 80.76 113.28 63.31 251 63.31v-63.31z"/><path fill="#232628" d="M551.793 573.52c0 32.65-9.12 62.4-24.17 84.89v41.9h-69.62c-51.75 0-93.7-56.76-93.7-126.79s41.97-126.78 93.7-126.78h69.66v41.91c15 22.46 24.18 52.23 24.18 84.87"/><path fill="#D0D4D8" d="M1230.203 605.06a59 59 0 0 1-4.85 5.73c-6.27 17.17-3.24 34.41-22.8 37.93a46 46 0 0 1-6.91.64h-23.13l-49.87-199.55-2.37-9.52-38.42-153.72a665 665 0 0 1 27.59 23.26q19.1 17 37.94 36.21c19.78 20.21 35.82 32.3 49 46.26a123.1 123.1 0 0 1 25.77 40.39c.23.56.45 1.14.68 1.72l8.91 12.59 10.87 15.38s2.79 12.48 4.8 30.61c3.59 32.42 4.68 82.87-17.21 112.07"/><path fill="#232628" d="M1122.113 573.52c0 32.65-9.12 62.4-24.17 84.89v41.9h-69.6c-51.75 0-93.7-56.76-93.7-126.79s42-126.78 93.7-126.78h69.66v41.91c15 22.46 24.18 52.23 24.18 84.87"/><path fill="#D0D4D8" d="m584.243 639.73-174.39-62.68c-4.79-53.33 13.62-96.91 43.59-128.48l130.8 2.52z"/><path fill="#D0D4D8" d="M1230.203 605.06a59 59 0 0 1-4.85 5.73c-6.27 17.17-3.24 34.41-22.8 37.93a46 46 0 0 1-6.91.64h-610.33l-4.95-138.83-132.46-55.06 48.76-140.31c110.51-104.39 228.06-141.08 326.27-154.79 82.18-11.47 165.16 15.6 224 74.1a454 454 0 0 1 47.15 55.37 464 464 0 0 0 15.35 20 456.5 456.5 0 0 0 86.91 82.47 123.1 123.1 0 0 1 25.77 40.39c.23.56.45 1.14.68 1.72l8.91 12.59 10.87 15.38s1 4.47 2.23 12c0 .31.11.63.16 1s.1.62.15.95c.75 4.68 1.56 10.36 2.26 16.74.36 3.25.7 6.67 1 10.24 0 .28 0 .55.07.83s0 .6.07.91c2.42 31.8 1.04 74.2-18.31 100"/><path fill="#C1C7CC" d="M799.123 611.16V185c83.4-20.57 149-8.62 206 44.61l37.35 201.57c-53.33 32.86-86.62 91.57-69 178.88z"/><path fill="#8A9097" d="M1031.623 569.27c0-51.68 31-93.59 69.18-93.59s69.2 41.91 69.2 93.59-31 93.57-69.15 93.57-69.18-41.88-69.18-93.57"/><path fill="#C1C7CC" d="M1100.803 662.84a51.5 51.5 0 0 1-9.91-1c33.49-6.6 59.33-45.49 59.33-92.61s-25.76-86.11-59.33-92.62a53 53 0 0 1 9.91-1c38.19 0 69.15 41.91 69.15 93.59s-31 93.57-69.15 93.57"/><path fill="#C1C7CC" d="m1179.073 597.62-58.14-26.62a17.92 17.92 0 0 1-9.67-10.11l-29.93-85.37-43.62 11 30.43 86.8a17.23 17.23 0 0 1-1.91 15.15l-28.57 44.53 20.57 47 42.63-64.76a11.09 11.09 0 0 1 13.71-3.43l59.89 27.47z"/><path fill="#383B3E" d="M1097.083 700.31c51.75 0 93.7-56.76 93.7-126.79s-42-126.78-93.7-126.78-93.7 56.76-93.7 126.78 41.95 126.79 93.7 126.79m3.72-224.63c38.19 0 69.15 41.91 69.15 93.6s-31 93.56-69.15 93.56-69.18-41.88-69.18-93.56 31-93.6 69.18-93.6"/><path fill="#D0D4D8" d="M1230.203 605.06a59 59 0 0 1-4.85 5.73c-6.27 17.17-3.24 34.41-22.8 37.93 11.61-89.05-8.53-174.21-79.91-198.9a133.7 133.7 0 0 0-37.05-6.92l34.68-2.6 101.85-7.6c.23.56.45 1.14.68 1.72l8.91 12.59 15.67 46c3.62 32.4 4.71 82.85-17.18 112.05"/><path fill="#8A9097" d="M577.163 649.37c15.25-17.18 24.87-43 24.87-72 0-51.68-31-93.57-69.15-93.57s-69.16 41.89-69.16 93.57c0 3.63.16 7.19.44 10.7l-21.16-7.53c-.11-2.43-.16-4.92-.16-7.4 0-70 33.13-126.8 84.88-126.8s102.48 56.76 102.48 126.8a157.3 157.3 0 0 1-18.83 76.23z"/><path fill="#8A9097" d="M461.853 577.78c0 51.68 31 93.59 69.18 93.59s69.16-41.91 69.16-93.59-31-93.57-69.16-93.57-69.18 41.88-69.18 93.57"/><path fill="#C1C7CC" d="M531.003 484.21a50.7 50.7 0 0 0-9.91 1c33.51 6.59 59.33 45.49 59.33 92.6s-25.73 86.12-59.33 92.62a52.3 52.3 0 0 0 9.91 1c38.19 0 69.16-41.91 69.16-93.59s-31-93.57-69.16-93.57"/><path fill="#C1C7CC" d="m609.313 589.18-58.13-26.65a18 18 0 0 1-9.69-10.11l-30-85.48-43.65 11 30.46 86.71a17.24 17.24 0 0 1-1.89 15.14l-28.57 44.59 20.57 47 42.63-64.76a11.11 11.11 0 0 1 13.72-3.43l59.9 27.47z"/><path fill="#383B3E" d="M527.403 446.74c-51.75 0-93.7 56.79-93.7 126.8s41.95 126.77 93.7 126.77 93.71-56.74 93.71-126.77-42-126.8-93.71-126.8m3.6 224.63c-38.19 0-69.18-41.91-69.18-93.59s31-93.57 69.18-93.57 69.16 41.88 69.16 93.57-31 93.59-69.16 93.59"/><path fill="#D0D4D8" d="M731.003 649.09h-98.12c13.56-103.02-15.38-200.94-116.88-206.19l141.12-10.55z"/><path fill="#C1C7CC" d="M595.723 262.46c73.71-38.43 137-65.31 192.64-78.16v427l-137.74 1.2c3.21-96-21.14-155.38-103.5-180.19z"/><path fill="#383B3E" d="m1106.663 362.25-158.85 81.55-372.32-23.6-100.3-43 15.39-43.95c40.3-42.32 215.09-151.62 363.59-159s242.93 153.08 252.71 188.07"/><ellipse cx="497.543" cy="413.23" fill="#C1C7CC" rx="11.49" ry="17.12"/><path fill="#595E62" d="M1248.443 504.07c-13.68-3.06-26.8-6.7-40.2-11.05l-4.92-35a379 379 0 0 0 41.68 17.29c0 .31.1.62.15.95.75 4.68 1.56 10.36 2.26 16.74.36 3.25.7 6.67 1 10.24-.02.28 0 .55.03.83"/><path fill="#C1C7CC" d="M1248.443 504.07c0-.28 0-.55-.07-.83-13.36-3-26.19-6.55-39.33-10.79l-5.07-33.2a382 382 0 0 0 41.15 17c0-.33-.1-.64-.15-.95s-.11-.65-.16-1a381 381 0 0 1-42.17-17.58l4.58 36.82c14 4.57 27.47 8.3 41.29 11.39-.02-.26-.05-.56-.07-.86"/><path fill="#D0D4D8" d="M86.603 315.16h410.06l-48.76 140.4H38.083zm395.6-157.371a576.2 576.2 0 0 0-171.2 25.651c-73.13 22.75-150.89 62.28-224.4 131.72h410.06c110.51-104.39 228.06-141.08 326.27-154.79a272 272 0 0 1 25.69-2.33v-.251z"/><ellipse cx="114.752" cy="426.025" fill="#595E62" rx="35.43" ry="24.67" transform="rotate(-39.84 114.752 426.025)"/><ellipse cx="387.501" cy="426.036" fill="#595E62" rx="35.43" ry="24.67" transform="rotate(-39.84 387.501 426.036)"/><path fill="#8A9097" d="M1172.143 649.37h12.26a157.4 157.4 0 0 0 18.6-75.83c0-70-42-126.8-93.7-126.8-2.06 0-4.11.1-6.13.28 48.89 4.27 87.57 59.27 87.57 126.5.03 28.48-6.91 54.69-18.6 75.85"/><path fill="#D0D4D8" d="M409.853 577.05c-4.45-49.5 11.1-90.59 37.32-121.49h-409.1c-25.5 30.05-40.9 73.6-37.64 121.49z"/><path fill="#8A9097" d="m409.853 577.05 24.29 8.73H24.723l-24.29-8.73zm-100.85-74.16-5.6 16.11a11 11 0 0 1-10.4 7.43h-147.88a8 8 0 0 1-.88 0 7.36 7.36 0 0 1-6.07-9.7l5.57-16.13a11 11 0 0 1 10.42-7.42h147.9a7.35 7.35 0 0 1 6.94 9.76z"/><path fill="#E0E2E5" d="m309.003 502.89-5.6 16.11a11 11 0 0 1-10.4 7.43h-147.88a8 8 0 0 1-.88 0 7.18 7.18 0 0 1-.08-5l5.57-16.12a11 11 0 0 1 10.42-7.43h147.9a6.4 6.4 0 0 1 .88.05 7.26 7.26 0 0 1 .07 4.96"/><path fill="#595E62" d="M704.833 172.56h-258.19c-111 3.82-249.73 73.16-323.24 142.6l-23 66.59h25.09c12.3 0 23 5.2 29.36 14.28a33.1 33.1 0 0 1 5.36 12.82 41.4 41.4 0 0 1-1.77 21.23l-8.83 25.49h182.5l11.59-33.46c.13-.37.26-.76.4-1.13a55.6 55.6 0 0 1 6.25-12.13 64.3 64.3 0 0 1 15.14-15.6c10.11-7.41 21.74-11.5 32.74-11.5h34.23l23.13-66.59c73.51-69.44 151.27-109 224.39-131.72a546 546 0 0 1 27.56-7.79z"/><path fill="#B2B9C0" d="M165.233 401.21a32.3 32.3 0 0 0-12.37-10.5l-9.66-4.84a33.3 33.3 0 0 1 5.21 3.35l.5.4c.43.35.85.71 1.27 1.09a31.7 31.7 0 0 1 4.7 5.3 33.1 33.1 0 0 1 5.36 12.82 41.4 41.4 0 0 1-1.77 21.23l-8.83 25.49h12.15l7-20.31a41.63 41.63 0 0 0 1.81-21.24 33 33 0 0 0-5.37-12.79m515.07-223.47a671 671 0 0 0-7.09-5.18h-226.57c-111 3.82-249.73 73.16-323.24 142.6l-23 66.59h12.14l21.23-61.41c73.5-69.44 212.23-138.78 323.23-142.6z"/><path fill="#B2B9C0" d="M691.193 181.71c-57.3-68.74-143.56-162.8-271-162.8l-71.69 34.54v-.06l-18.79-18.74-20.71 10.01c51 21.61 88.44 65.72 106.78 137.21z"/><path fill="#383B3E" d="M657.363 177.13c-47.58-73.3-174.31-147.001-269.75-147.001-41.31 0-67.87-.619-31.71 25.751 38.19 27.86 65.53 79.55 74.58 119.71z"/><path fill="#C1C7CC" d="m118.933 18.93-35.05 17-18.28 8.83a8.6 8.6 0 0 0 1.4-2.9c1.16-4.7-4.57-7.4-15.72-7.4h-22.47l19 18.93h22.49c11.15 0 16.89 2.7 15.72 7.39a10.2 10.2 0 0 1-2.29 4h-50.35l18.91 18.93h165.71l-.11-.11 19.38-9.31 1.22-.59c4.59-2.18 9.61-4.29 14.92-6.29a259 259 0 0 1 25.59-8.07c14.82-3.83 28.48-6 38.44-6h31l71.71-34.46z"/><path fill="#C1C7CC" d="m401.233 0-71.71 34.46h-31c-10 0-23.63 2.12-38.44 6a257 257 0 0 0-25.59 8.06c-5.31 2-10.33 4.11-14.92 6.29l-1.22.59-19.66 9.4H33.303l11.06-5.32c7.8-3.78 13.87-7.55 17.78-11 2.74-2.4 4.41-4.65 4.9-6.62 1.16-4.7-4.57-7.4-15.72-7.4h-22.75L64.903 17l35.27-17z"/><path fill="#E0E2E5" d="m401.233 0-71.71 34.46h-31c-10 0-23.63 2.12-38.44 6a257 257 0 0 0-25.59 8.06c-5.31 2-10.33 4.11-14.92 6.29l-1.22.59-19.66 9.4H33.303l11.06-5.32c7.8-3.78 13.87-7.55 17.78-11 2.74-2.4 4.41-4.65 4.9-6.62 1.16-4.7-4.57-7.4-15.72-7.4h-22.51L64.903 17l35.1-17z"/><path fill="#D0D4D8" d="m401.233 0-71.66 34.51 18.93 18.88v.06l71.72-34.54c152.19 19 240.21 130.3 265.44 162.8h32C711.413 176 596.353 6.82 401.233 0"/><path fill="#8A9097" d="M98.673 55.87h38a15.43 15.43 0 0 0 10-4.11c2.52-2.43 1.59-5-1.82-5h-38a15.4 15.4 0 0 0-10 4.11c-2.51 2.47-1.59 5 1.82 5"/></g></svg>