<svg xmlns="http://www.w3.org/2000/svg" viewBox="0 0 1567 558"><g fill="none" transform="translate(.896)"><path fill="#232628" d="M1330.51 430.55c0-32.66 9.14-62.41 24.18-84.89v-41.91h69.61c51.75 0 93.7 56.76 93.7 126.8s-42 126.77-93.7 126.77h-69.68v-41.91c-15-22.45-24.17-52.23-24.17-84.86"/><path fill="#8A9097" d="M1422.1 434.79c0 51.68-31 93.59-69.15 93.59s-69.16-41.91-69.16-93.59 31-93.57 69.16-93.57 69.15 41.88 69.15 93.57"/><path fill="#C1C7CC" d="M1353 341.22a50.7 50.7 0 0 1 9.91 1c-33.51 6.59-59.33 45.48-59.33 92.6s25.75 86.12 59.33 92.62a53 53 0 0 1-9.91 1c-38.19 0-69.16-41.91-69.16-93.59s31-93.57 69.16-93.57"/><path fill="#C1C7CC" d="m1274.67 446.19 58.15-26.65a17.8 17.8 0 0 0 9.67-10.11l29.93-85.37 43.64 11-30.43 86.8a17.13 17.13 0 0 0 1.89 15.15l28.56 44.58-20.54 46.81-42.63-64.76a11.13 11.13 0 0 0-13.74-3.43l-59.88 27.47z"/><path fill="#383B3E" d="M1356.58 303.75c-51.76 0-93.71 56.76-93.71 126.8s42 126.77 93.71 126.77 93.7-56.76 93.7-126.77-42-126.8-93.7-126.8M1353 528.38c-38.19 0-69.16-41.91-69.16-93.59s31-93.57 69.16-93.57 69.15 41.88 69.15 93.57-31 93.59-69.15 93.59"/><path fill="#232628" d="M760.92 430.55c0-32.66 9.12-62.41 24.18-84.89v-41.91h69.59c51.75 0 93.72 56.76 93.72 126.8s-42 126.77-93.72 126.77H785v-41.91c-15-22.45-24.17-52.23-24.17-84.86"/><path fill="#8A9097" d="M852.51 434.79c0 51.68-31 93.59-69.15 93.59s-69.18-41.91-69.18-93.59 31-93.57 69.18-93.57 69.15 41.88 69.15 93.57"/><path fill="#C1C7CC" d="M783.36 341.22a50.7 50.7 0 0 1 9.91 1c-33.51 6.59-59.33 45.48-59.33 92.6s25.75 86.12 59.33 92.62a53 53 0 0 1-9.91 1c-38.19 0-69.18-41.91-69.18-93.59s31-93.57 69.18-93.57"/><path fill="#C1C7CC" d="m705.06 446.19 58.15-26.65a17.92 17.92 0 0 0 9.67-10.11l29.93-85.37 43.64 11L816 421.84a17.19 17.19 0 0 0 1.9 15.16l28.68 44.36-20.57 47-42.63-64.76a11.1 11.1 0 0 0-13.73-3.43l-59.88 27.47z"/><path fill="#383B3E" d="M787 303.75c-51.76 0-93.71 56.76-93.71 126.8s42 126.77 93.71 126.77 93.7-56.76 93.7-126.77-42-126.8-93.7-126.8m-3.63 224.63c-38.19 0-69.18-41.91-69.18-93.59s31-93.57 69.18-93.57 69.15 41.88 69.15 93.57-31 93.59-69.15 93.59"/><path fill="#D0D4D8" d="m375 312.48 132.46 55.06 4.95 138.84h647.73c132.09 0 350.3-.86 350.3-.86 27.21-.54 22.79-19.6 29.71-38.56 40.94-42.46 17.23-148.4 17.23-148.4l-19.78-28c-16.39-41.95-39.84-52-75.42-88.36C1315.46 52.4 1158.87 7.64 951.64 7.64H904c-102.34 3.45-303.58-2.35-480.26 164.53z"/><path fill="#D0D4D8" d="m512.28 496.74-174.4-62.68c-4.79-53.33 13.63-96.91 43.6-128.48l130.8 2.52z"/><path fill="#383B3E" d="M1433.11 172.82c-84.8-82.31-178-119.38-256.71-143a380 380 0 0 0-63.13-13.19c-108.54-13.36-218.08-9.8-271.83-6.99 71.88 20.81 133.32 73.24 179.73 137.21 51.47 71 121.68 126.16 203.64 157.21 21.3 8.09 142.16 52.94 216.87 5.89 84.72-52.74 28.13-101.64-8.46-137.15"/><path fill="#2E3033" d="M1289.53 404a837.5 837.5 0 0 0 180.74 0l9.21-6.11s-.48-6.88-3-6.88c-66.43 5.91-131.19 6.44-193.68 0-1.59 0-2.91 2.75-3 6.22zm25.23 50.19a664 664 0 0 0 130.13 0l6.59-6.07s-.35-6.9-2.19-6.9a723.3 723.3 0 0 1-139.43 0c-1.17 0-2.2 2.77-2.2 6.24z"/><path fill="#595E62" d="M1459.7 365.87c29.93-1.18 62.68-7.44 100-19.11l-4.85-28.9c-38.17 18.08-69.25 27.49-97.64 29.6z"/><path fill="#C1C7CC" d="m1554.24 319.09 4.55 27.1c-36.7 11.4-68.89 17.57-98.36 18.83l-2.2-16.79c28-2.2 58.63-11.52 96-29.14m1.28-2.44c-33.21 15.8-66.32 27.78-99.2 30l2.68 20c33.76-1.25 67.66-8.79 101.66-19.4l-5.14-30.77M726.2 468.17V42c83.4-20.57 149-8.62 206 44.61l37.35 201.57c-53.33 32.82-86.62 91.56-68.95 178.87z"/><path fill="#8A9097" d="M1052.46 506.78c15.25-17.19 25-43 25-72 0-51.69-31-93.57-69.16-93.57s-69.15 41.88-69.15 93.57c0 28.94 9.71 54.8 25 72H937a157.3 157.3 0 0 1-18.83-76.23c0-70 41.95-126.8 93.7-126.8s93.7 56.76 93.7 126.8a157.4 157.4 0 0 1-18.83 76.23z"/><path fill="#232628" d="M998 430.55c0-32.66 9.12-62.41 24.17-84.89v-41.91h69.6c51.75 0 93.7 56.76 93.7 126.8s-42 126.77-93.7 126.77h-69.66v-41.91C1007.15 493 998 463.18 998 430.55"/><path fill="#8A9097" d="M1089.62 434.79c0 51.68-31 93.59-69.17 93.59s-69.16-41.91-69.16-93.59 31-93.57 69.16-93.57 69.17 41.88 69.17 93.57"/><path fill="#C1C7CC" d="M1020.45 341.22a51 51 0 0 1 9.91 1c-33.49 6.59-59.33 45.48-59.33 92.6s25.75 86.12 59.33 92.62a53.3 53.3 0 0 1-9.91 1c-38.2 0-69.16-41.91-69.16-93.59s31-93.57 69.16-93.57"/><path fill="#C1C7CC" d="m942.17 446.19 58.15-26.65a17.92 17.92 0 0 0 9.67-10.11l29.93-85.37 43.62 11-30.44 86.8A17.23 17.23 0 0 0 1055 437l28.57 44.58-20.57 47-42.63-64.76a11.09 11.09 0 0 0-13.71-3.43l-59.88 27.47z"/><path fill="#383B3E" d="M1024.16 303.75c-51.75 0-93.7 56.76-93.7 126.8s41.95 126.77 93.7 126.77 93.7-56.76 93.7-126.77-41.95-126.8-93.7-126.8m-3.71 224.63c-38.2 0-69.16-41.91-69.16-93.59s31-93.57 69.16-93.57 69.17 41.88 69.17 93.57-31 93.59-69.17 93.59"/><path fill="#D0D4D8" d="M1227.67 506.1h-98.1c13.54-103-15.38-200.94-116.9-206.19l141.12-10.55z"/><path fill="#8A9097" d="M482.87 506.78c15.26-17.19 24.88-43 24.88-72 0-51.69-31-93.57-69.15-93.57s-69.16 41.88-69.16 93.57c0 3.62.15 7.18.44 10.7L348.67 438c-.11-2.44-.15-4.92-.15-7.4 0-70 42-126.8 93.7-126.8s93.7 56.76 93.7 126.8a157.3 157.3 0 0 1-18.83 76.23z"/><path fill="#232628" d="M428.44 430.55c0-32.66 9.12-62.41 24.18-84.89v-41.91h69.59c51.75 0 93.7 56.76 93.7 126.8S574 557.32 522.21 557.32h-69.66v-41.91c-15-22.45-24.17-52.23-24.17-84.86"/><path fill="#8A9097" d="M520 434.79c0 51.68-31 93.59-69.17 93.59s-69.16-41.91-69.16-93.59 31-93.57 69.16-93.57S520 383.1 520 434.79"/><path fill="#C1C7CC" d="M450.86 341.22a51 51 0 0 1 9.91 1c-33.51 6.59-59.33 45.48-59.33 92.6s25.73 86.12 59.33 92.62a53.3 53.3 0 0 1-9.91 1c-38.2 0-69.16-41.91-69.16-93.59s31-93.57 69.16-93.57"/><path fill="#C1C7CC" d="m372.58 446.19 58.13-26.65a18 18 0 0 0 9.69-10.11l30-85.48 43.65 11-30.46 86.72a17.24 17.24 0 0 0 1.89 15.14L514 481.37l-20.57 47-42.63-64.76a11.11 11.11 0 0 0-13.72-3.43l-59.9 27.47z"/><path fill="#383B3E" d="M454.48 303.75c-51.75 0-93.7 56.76-93.7 126.8s42 126.77 93.7 126.77 93.7-56.76 93.7-126.77-41.95-126.8-93.7-126.8m-3.62 224.63c-38.2 0-69.16-41.91-69.16-93.59s31-93.57 69.16-93.57S520 383.1 520 434.79s-31 93.59-69.17 93.59"/><path fill="#D0D4D8" d="M658.08 506.1H560c13.56-103-15.38-200.94-116.88-206.19l141.08-10.55z"/><path fill="#8A9097" d="M1174.12 501h335.09l17.08-4.4s-.9-5.07-5.52-5.07h-359.09a5.2 5.2 0 0 0-5.49 4.57z"/><path fill="#595E62" d="M1258.94 353.33c-48.89-7.23-91.17-19.78-129.19-38.33l-4.39 33.51c36.91 12 81 20.11 131.08 24.18z"/><path fill="#C1C7CC" d="M1130.41 316.26C1168 334.47 1209.83 346.84 1258 354l-2.38 17.73c-49.4-4-93-12-129.47-23.82l4.24-31.68m-6.07 32.83c39.1 12.76 83.73 20.54 132.73 24.45l2.79-20.92c-46.72-6.83-90.67-19.16-130.79-38.85zM522.8 119.47c73.71-38.43 137-65.31 192.64-78.16v427l-137.74 1.2c3.2-96-21.14-155.39-103.51-180.2z"/><path fill="#383B3E" d="m1033.74 219.26-158.86 81.55-372.32-23.6-100.29-43 15.38-43.95C458 148 632.74 38.65 781.25 31.26S1024.18 184.34 1034 219.32"/><path fill="#E0E2E5" d="M33.45 0h111.92l2.32 557.32H35.76z"/><path fill="#C1C7CC" d="M82.65 0h111.93l2.31 557.32H85z"/><circle cx="419.13" cy="269.79" r="17.1" fill="#383B3E"/><path fill="#71767C" d="M403.33 257.56h18.2V282h-18.2c-6.749 0-12.22-5.471-12.22-12.22s5.47-12.224 12.22-12.23zM38.12 187.2h18.19v24.45H38.12c-6.616-.19-11.88-5.607-11.88-12.225s5.264-12.036 11.88-12.225"/><ellipse cx="424.75" cy="269.79" fill="#C1C7CC" rx="11.48" ry="17.1"/><path fill="#383B3E" d="M83 85.59h111.94l.6 145.9H83.61z"/><path fill="#71767C" d="M186.92 526.28h-.25C83.534 526.126.005 442.476 0 339.34V221.9c.028-14.227 11.563-25.749 25.79-25.76H31v6.58h-5.2c-10.597.005-19.192 8.583-19.22 19.18v117.44c.005 99.505 80.595 180.207 180.1 180.35h.24c99.35 0 180.25-80.76 180.38-180.14v-47.09c.02-14.09 11.321-25.57 25.41-25.81l13.56-.2.09 6.59-13.56.19c-10.488.185-18.9 8.73-18.92 19.22v47.11c-.14 103-83.99 186.72-186.96 186.72"/></g></svg>