<svg xmlns="http://www.w3.org/2000/svg" viewBox="0 0 512 1080"><path fill="#595e62" d="M134.218 550.385c30.694 19.786 50.436-17.278 50.436-17.278l-31.959-8.202z"/><path fill="#43464a" d="m173.943 483.217-21.248 41.688 31.96 8.202 9.284-34.17s7.91-30.221-3.521-32.703c-11.432-2.481-16.475 16.983-16.475 16.983"/><path fill="#43464a" d="m133.934 518.47 1.658 7.788 23.997-8.705 9.62-23.538zm111.413-164.465-20.003 24.559c-7.58 9.306-22.488 6.307-25.88-5.207l-20.546-69.746 56.815-14.02z"/><path fill="#003253" d="m235.733 289.591-13.11-57.836c-4.5-21.626-11.817-32.477-34.746-28.461s-18.195 28.546-17.8 54.269c.162 13.02 8.842 46.048 8.842 46.048z"/><path fill="#43464a" d="M245.347 353.956c-5.626 47.221-29.302 106.092-51.341 144.865-.02.039-.048.077-.067.116-.164.288-.318 1.067-.481 2.23-1.807 5.507-6.988 9.486-13.1 9.486-7.613 0-13.784-6.17-13.784-13.783 0-1.98.413-3.854 1.163-5.555l.433-.77.057-.23.01-.01c.442-1.672 6.478-25.084 10.921-41.659 8.608-32.167 8.96-38.16 19.362-76.147 0 0 6.064-18.973 21.628-21.334 15.564-2.36 25.2 2.791 25.2 2.791z"/><path fill="#383b3e" d="M255.337 550.36c-6.06 39.67-7.37 77.6-5.07 109.2.37 5.05.83 9.93 1.38 14.63-1.78 21-19.41 37.5-40.87 37.5-19.02 0-35.02-12.95-39.66-30.52l-.71-17.8-3.42-85.57 4.56-115.18c-.06-4.62 4.32-48.65 5-53.23l9.9-20.92s89.77-.59 89.77 0c0 0-9.19 107.83-20.88 161.89"/><path fill="#383b3e" d="m262.984 908.12 3.91 11.39s-2.832 21.2-2.507 24.58 3.708 13.759 1.483 22.127c-2.224 8.37-41.147 9.329-41.147 9.329l-32.111-11.806-.198-41.5v-17.63l5.72-17.27-4.04-15.62-4.73-79.21-18-100.53-.43-10.81-.71-17.8c3.44-19.17 20.2-33.72 40.37-33.72 18.81 0 34.66 12.67 39.49 29.94.37 5.02.82 9.88 1.37 14.56 1.45 12.53 3.53 23.79 6.14 33.43 14.03 51.61 0 93.41 4.87 131.52.72 5.17.72 15.62.72 26.99-.02 5.49 4.16 26.02 4.16 31.45z"/><path fill="#43464a" d="m220.586 949.429-43.244-3.135 9.393 33.007 33.235 8.753z"/><path fill="#43464a" d="M189.676 1031.88c-11.955 4.058-56.72 3.425-61.082-3.73-4.909-8.028 0-19.11 7.308-24.498s16.23-7.243 23.996-11.671c8.312-4.734 20.506-17.78 24.455-26.985 10.724 3.252 12.314 4.787 26.202 6.084 2.705.252 6.08-12.362 13.347-2.67s39.736-4.599 41.82-6.236c4.353-3.422-.348 7.162 2.727 15.67 3.075 8.51 1.55 30.105-1.243 34.054-3.6 5.148-14.638 5.541-20.113 6.784-7.505 1.702-18.041-3.38-27.16-1.309-11.3 2.575-21.182 11.432-30.257 14.507"/><path fill="#232628" d="M129.205 1011.614c3.774-3.294 17.452 1.855 17.997 13.09a99.7 99.7 0 0 0 37.827 4.799c11.475-.96 26.44-14.878 40.467-14.813 21.182.131 39.747-4.799 44.175-15.794 4.363 2.553 0 15.925-2.64 19.372a14.8 14.8 0 0 1-5.977 3.861l-5.454 1.92a75 75 0 0 1-3.206.764l-5.454.828a27 27 0 0 1-3.272 0l-5.345-.698a59 59 0 0 0-8.726-.654c-10.013 0-14.529 5.126-21.531 9.686l-4.08 2.356c-.763.392-1.57.785-2.421 1.134l-5.17 1.745c-.851.24-1.746.458-2.705.633l-5.716.785h-.13c-.917 0-1.833.131-2.771.175l-5.847.174h-2.16l-5.846-.152-2.181-.11-5.236-.305c-1.003 0-2.007-.196-2.989-.327l-5.235-.655-2.182-.349-5.672-1.025c-8.726-1.81-15.27-4.167-17.168-6.217-5.126-5.781-5.126-16.95-1.352-20.223"/><path fill="#d0d4d8" d="m176.689 976.788 29.157 11.607 2.69-2.466-30.092-11.343a79 79 0 0 1-1.755 2.202m-5.456 6.014 25.195 14.256 2.536-2.336-25.533-14.206a88 88 0 0 1-2.198 2.286m-7.493 6.607 24.72 14.975 2.532-2.314-24.671-14.72a58 58 0 0 1-2.582 2.059zm-8.613 4.964 26.32 16.472 2.172-1.996-25.517-15.902a63 63 0 0 1-2.975 1.426"/><path fill="#4e5256" d="m431.834 926.41 1.559 32.786-8.868 15.39-22.835 4.562-21.282-6.207-19.475-26.647 5.541-45.265-6.74-10.42 1.83-15.27-32.33-61.8-10.49-41.89-25.59-36.26-8.05-31.63s-2.21-2.53-5.19-8.89c0-.02-.01-.03-.02-.04-1.89-4.06-4.1-9.67-6.23-17.17a47.4 47.4 0 0 1-.52-6.99c0-25.73 20.87-46.59 46.6-46.59 16.16 0 30.4 8.23 38.75 20.72 2.13 6.51 4.35 11.85 6.48 14.96l.92 4.51 4.47 21.84 18.6 29.26 9.34 47.1c1.33 6.72 23.76 107.06 23.76 107.06l3.57 24-3.53 18.54z"/><path fill="#4e5256" d="M366.568 670.67c0 25.73-20.86 46.59-46.59 46.59-16.84 0-31.59-8.93-39.78-22.31-1.92-4.07-4.14-9.72-6.3-17.3-.55-1.96-1.11-4.05-1.65-6.28-2.11-8.69-10.77-18.72-13.54-29.13l-67.78-244.06 59.57-5.54 26.18-2.4c54.06 58.4 63.74 88.09 71.07 200.19.92 14.34 5.64 38.04 10.98 54.37 2.13 6.51 4.35 11.85 6.48 14.96l.93 4.54c.28 2.08.43 4.21.43 6.37"/><path fill="#383b3e" d="m291.791 638.4 60.168.718c17.509-33.781 2.654-81.673-5.086-100.659l-61.204 2.39s-4.278 56.247 6.122 97.55z"/><path fill="#595e62" d="m295.466 567.076 62.488-3.847-11.438-25.366-60.853 3.007z"/><path fill="#43464a" d="m388.907 944.58-43.244-3.135 9.392 33.007 33.236 8.753z"/><path fill="#43464a" d="M357.997 1027.032c-11.955 4.057-56.72 3.425-61.082-3.73-4.909-8.028 0-19.11 7.308-24.499s16.23-7.242 23.996-11.67c8.312-4.735 20.506-17.78 24.455-26.986 10.724 3.252 12.314 4.787 26.202 6.084 2.705.253 6.08-12.362 13.347-2.67s39.736-4.598 41.82-6.236c4.353-3.421-.348 7.163 2.727 15.671 3.075 8.509 1.55 30.105-1.243 34.053-3.6 5.149-14.638 5.541-20.114 6.785-7.504 1.701-18.04-3.381-27.16-1.31-11.3 2.575-21.181 11.432-30.256 14.508"/><path fill="#232628" d="M297.525 1006.766c3.774-3.294 17.452 1.854 17.998 13.089a99.7 99.7 0 0 0 37.827 4.8c11.475-.96 26.44-14.879 40.467-14.813 21.182.13 39.746-4.8 44.175-15.794 4.363 2.552 0 15.925-2.64 19.371a14.8 14.8 0 0 1-5.977 3.862l-5.454 1.92c-1.09.283-2.181.545-3.207.763l-5.453.829q-1.636.099-3.273 0l-5.344-.698a59 59 0 0 0-8.726-.655c-10.013 0-14.529 5.127-21.532 9.686l-4.079 2.356c-.763.393-1.57.785-2.421 1.134l-5.17 1.746a29 29 0 0 1-2.706.632l-5.715.786h-.131c-.916 0-1.832.13-2.77.174l-5.847.175h-2.16l-5.846-.153-2.181-.109-5.236-.305c-1.004 0-2.007-.197-2.989-.328l-5.235-.654-2.182-.35-5.672-1.024c-8.726-1.811-15.27-4.167-17.168-6.218-5.126-5.78-5.126-16.95-1.353-20.222"/><path fill="#d0d4d8" d="m345.01 971.94 29.157 11.606 2.69-2.466-30.092-11.342a79 79 0 0 1-1.755 2.202m-5.456 6.013 25.195 14.257 2.536-2.336-25.533-14.207a87 87 0 0 1-2.198 2.286m-7.494 6.607 24.72 14.975 2.533-2.314-24.671-14.719a58 58 0 0 1-2.582 2.058m-8.612 4.964 26.32 16.473 2.172-1.996-25.517-15.902a64 64 0 0 1-2.975 1.425"/><path fill="#bfc0c3" d="M219.039 139.453a12.8 12.8 0 0 0 4.515 2.181 30.5 30.5 0 0 1-4.515-2.181"/><path fill="#c1c7cc" d="M290.504 122c8.508-20.09 4.843-35.492 4.734-36.321a89 89 0 0 0-2.465-12.544l-.393-1.352c-6.239-21.291-21.4-33.9-53.38-32.679a33.03 33.03 0 0 0-23.495 9.948 12.7 12.7 0 0 0-2.902 2.618 36.7 36.7 0 0 0-4.69 7.7 8 8 0 0 1-.83 1.854c-11.321 13.744-13.503 63.526 11.956 78.185-3.753-2.618-8.726-8.355-10.908-20.724a164.3 164.3 0 0 1-1.854-33.486l10.515 1.004.501-12.195 10.079 13.264 11.453 1.09 2.378-21.618 10.034 22.774 8.29.786 7.264 18.87c4.603-6.065 11.933-14.005 17.038-10.908a6 6 0 0 1 1.789 1.658c4.363 5.781-.96 15.27-6.348 22.23-9.337 3.23-14.287 13.417-11.057 22.753s13.416 14.287 22.753 11.057 14.287-13.417 11.057-22.753A17.89 17.89 0 0 0 290.504 122"/><path fill="#595e62" d="m222.093 195.103 57.002 5.432-3.054-36.279-1.483-17.888-1.506-17.19c5.41-5.76 18.543-21.16 12.391-29.32a6 6 0 0 0-1.789-1.657c-5.104-3.032-12.434 4.908-17.037 10.907l-7.264-18.87-8.116-.72L241.203 66.7l-2.378 21.619-11.453-1.091-10.079-13.22-.48 12.238-10.514-1.003a164.3 164.3 0 0 0 1.854 33.486 206 206 0 0 0 7.112 30.977 67.5 67.5 0 0 0 15.619 4.363c4.785.775 9.657.848 14.463.218a89.4 89.4 0 0 1-16.666 10.558c-3.316 15.402-6.588 30.258-6.588 30.258"/><path fill="#43464a" d="M245.347 154.265c-4.806.63-9.678.557-14.463-.218-.393 1.876-.807 3.818-1.2 5.803-.327 1.636-.676 3.294-1.003 4.974a89.4 89.4 0 0 0 16.666-10.559"/><path fill="#c1c7cc" d="m286.163 93.75-10.886 5.65-8.595 9.774-9.075-23.277 28.207-7.09z"/><path fill="#595e62" d="m221.438 106.207-12.696 10.907a3.69 3.69 0 0 0-1.593 2.705 4.363 4.363 0 0 0 3.207 5.04c3.185 1.178 26.745-.11 26.745-.11l-9.075-7.504z"/><path fill="#003e64" d="M211.098 408.322c30.54-118.084 4.8-221.007 4.8-221.007l-23.56 8.857c-16.176 4.863-26.868 20.228-25.808 37.085l7.395 150.829 1.287-.546c18.456-7.373 35.951 7.526 35.886 24.782"/><path fill="#005587" d="m315.46 196.455-29.842-10.34-5.345-13.612-55.017-.72-5.127 13.481-22.687 8.944s-9.468 22.95-33.006 58.115c-10.384 13.198-14.878 27.073-8.944 54.538 9.14 42.19 21.051 102.53 21.051 102.53l114.485-4.821-25.764-.35z"/><path fill="#003e64" d="M338.868 242.31c0-.48 0-.96.153-1.44v-14.332l-.131-.872c0-.35 0-.699-.153-1.026l-.24-.85c0-.35-.13-.677-.218-1.026-.087-.349 0-.545-.153-.807-.152-.262-.174-.676-.24-1.003a6 6 0 0 0-.218-.808c-.087-.261-.174-.654-.283-1.003s-.131-.48-.219-.742c-.087-.262-.218-.676-.349-1.003-.13-.328-.152-.458-.218-.698-.065-.24-.283-.72-.436-1.07-.153-.348-.153-.392-.24-.588-.087-.197-.37-.873-.589-1.31l-.13-.283c-.263-.523-.524-1.047-.808-1.57l-.262-.437c-.218-.349-.414-.72-.632-1.09l-.371-.546-.59-.894-.436-.59c-.196-.261-.392-.545-.61-.806l-.48-.59-.633-.741-.545-.59a10 10 0 0 0-.677-.697c-.24-.218-.37-.371-.567-.567a11 11 0 0 0-.72-.677l-.589-.523-.763-.633-.655-.523-.807-.59-.698-.48-.85-.567-.72-.458-.917-.523-.763-.415-.96-.501-.786-.393-1.047-.458-.807-.35-1.134-.457-.786-.306h-.174l-50.174 207.766 25.763.349h.262l47.23-159.337c0-.741.195-1.483.283-2.181a9 9 0 0 1 .087-.764"/><path fill="#d0d4d8" d="M240.348 253.029h41.235v9.311h-41.235z"/><path fill="#43464a" d="M257.678 555.327c34.205 21.4 55.453-19.852 55.453-19.852l-35.427-8.595z"/><path fill="#595e62" d="M317.967 465.144c-14.055-5.105-17.445 15.357-17.445 15.357l-22.818 46.38 35.427 8.594 4.712-28.774s14.179-36.453.124-41.557"/><path fill="#595e62" d="m256.87 520.052 1.964 8.595 26.352-9.991 10.297-26.156z"/><path fill="#43464a" d="m371.18 355.07-20.003 24.56c-7.58 9.305-22.487 6.306-25.88-5.207l-20.545-69.747 56.815-14.02z"/><path fill="#003e64" d="m361.567 290.657-13.11-57.836c-4.5-21.626-15.617-33.838-33.12-35.651-13.896 16.394-19.821 35.736-19.426 61.458.161 13.021 8.841 46.048 8.841 46.048l56.815-14.02z"/><path fill="#595e62" d="M371.18 355.022c-5.625 47.22-29.301 106.092-51.34 144.865-.02.039-.049.077-.068.115-.163.289-.317 1.067-.48 2.23-1.807 5.508-6.988 9.487-13.101 9.487-7.613 0-13.783-6.17-13.783-13.783 0-1.98.413-3.854 1.163-5.556l.432-.769.058-.23.01-.01c.442-1.672 6.478-25.085 10.92-41.66 8.608-32.166 8.96-38.159 19.362-76.146 0 0 6.065-18.973 21.628-21.334 15.564-2.361 25.2 2.79 25.2 2.79z"/></svg>