<svg xmlns="http://www.w3.org/2000/svg" viewBox="0 0 603 509"><g fill="none"><path fill="#43464A" d="M.45 65.37h601.1v442H.45z"/><path fill="#383B3E" d="M.45 161h601.1v7.08H.45z"/><path fill="#43464A" d="M.45 118.53h601.1V161H.45z"/><path fill="#383B3E" d="M.45 111.84h601.1v7.08H.45zm0 98.71h601.1v7.08H.45z"/><path fill="#43464A" d="M.45 168.08h601.1v42.47H.45z"/><path fill="#383B3E" d="M.45 260.09h601.1v7.08H.45z"/><path fill="#43464A" d="M.45 217.63h601.1v42.47H.45z"/><path fill="#383B3E" d="M.45 309.64h601.1v7.08H.45z"/><path fill="#43464A" d="M.45 267.17h601.1v42.47H.45z"/><path fill="#383B3E" d="M.45 359.19h601.1v7.08H.45z"/><path fill="#43464A" d="M.45 316.72h601.1v42.47H.45z"/><path fill="#383B3E" d="M.45 408.74h601.1v7.08H.45z"/><path fill="#43464A" d="M.45 366.27h601.1v42.47H.45z"/><path fill="#383B3E" d="M.45 458.28h601.1v7.08H.45z"/><path fill="#43464A" d="M.45 415.81h601.1v42.47H.45zm0 49.55h601.1v42.47H.45z"/><path fill="#2E3033" d="M165.69 507.83h-35.91c-6.24 0-11.31-4.47-11.31-10v-40l58.53 18.2v21.77c0 5.56-5.06 10.03-11.31 10.03m305.92 0H435.7c-6.24 0-11.31-4.47-11.31-10v-21.75l58.53-18.2v40c0 5.48-5.06 9.95-11.31 9.95"/><path fill="#595E62" d="M492.45 406.42c-.09-138.85-106.64-135.4-201.72-135.4s-181.09-3.45-181.18 135.4v15.7c0 7 3.15 15.11 8.92 19v16.75c0 10.05 8.81 18.2 19.67 18.2h325.11c10.86 0 19.67-8.15 19.67-18.2v-16.74c5.77-3.9 9.53-12 9.53-19z"/><path fill="#595E62" d="M469.45 384.15h-336.9c-2.52 2.47 13.66-142.62 23.62-201.17 1.93-11.3 8.85-20.79 19.76-20.79h250.13c10.91 0 18.35 9.4 19.75 20.79 6.21 50.52 23.64 201.17 23.64 201.17"/><path fill="#2E3033" d="M433.75 264.22c-1.65-25.68 2.52-102-26.49-102H195.5c-29 0-25 76.35-26.63 102-3.25 50.59 41 91.8 121.86 91.8s146.27-41.21 143.02-91.8"/><path fill="#43464A" d="m145.86 473.96 311.74-.76 12.16-2.76a4 4 0 0 0-3.93-3.19l-328.83.76a3.61 3.61 0 0 0-3.91 2.87z"/><path fill="#2E3033" d="M401.29 407.26c-.06-2.19-1.25-3.91-2.67-3.91-56.36 4-134.69 3.71-194.6 0-2.26 0-2.69 4.32-2.69 4.32l8.3 3.84c54.17 4.1 128.75 4.1 182.92 0zm-25.09 31.55c0-2.19-.93-3.92-2-3.92-41.75 2.82-103.83 2.82-145.65 0-1.66 0-2 4.33-2 4.33l5.95 3.81c39 2.68 98.26 2.68 137.28 0z"/><path fill="#43464A" d="m219.27 376.02-1.75 11.57a355.2 355.2 0 0 1-76.74-12q1-9 2.57-17.07c26.52 10.66 56.38 16.19 75.92 17.5m164.31 0 1.75 11.57a355.2 355.2 0 0 0 76.74-12q-1-9-2.57-17.07c-26.52 10.66-56.38 16.19-75.92 17.5"/><path fill="#2E3033" d="M34.47 66.32h30.75v441.5H34.47zm502.32 0h30.75v441.5h-30.75z"/><path fill="#2E3033" d="M.45.71h601.1v69.05H.45z"/><path fill="#232628" d="M.45.71h601.1v14.62H.45z"/></g></svg>