<svg xmlns="http://www.w3.org/2000/svg" viewBox="0 0 417.68 356.12"><g data-name="Ebene 2"><g data-name="Ebene 1"><path fill="#43464a" d="m190.93 298.2-8.55 26.15 6.44 28.78h14.42zm-10.65-47.55h-14.42l10.66 47.56 8.55-26.14zm6.76-136.2H78.12L49.4 202.19l14.43-.05L88 128.29h95.83zM0 353.13h14.41l33.65-102.8-14.43.05z"/><path fill="#d0d4d8" d="M10.84 202.33a6 6 0 0 0-5.95 5.95v36.23a6 6 0 0 0 6 6l22.79-.08h14.38l101.15-.36a5.93 5.93 0 0 1-3.21-5.27v-38a5.93 5.93 0 0 1 2.58-4.9l-84.75.3-14.43.05z"/><path fill="#a4abb3" d="M230.06 0a20.75 20.75 0 0 0-20.21 16.06L187 114.45l-3.21 13.8-7.6 32.8a15.57 15.57 0 0 0 11.66 18.68 16 16 0 0 0 3.5.4h164.82L398.67 0a21 21 0 0 1 2.26.13V0z"/><path fill="none" d="m169.58 249.86 24.22-108.1h14.42l-24.23 108.1"/><path fill="#eff1f2" d="M176.96 150.86h.02z"/><path fill="none" d="m185.07 272.07 7.01-21.42h-11.8z"/><path fill="#595e62" d="m192.08 250.65 16.33-49.86H152a6 6 0 0 0-6 6v38a6 6 0 0 0 6 6h40.12zm160.11-20.51a35.5 35.5 0 0 0 3.39-15.2v-2.25a11.9 11.9 0 0 0-11.9-11.9H222.82l-9.61 29.35z"/><path fill="none" d="m222.82 200.79-9.61 29.35h139a35.5 35.5 0 0 0 3.39-15.2v-2.25a11.9 11.9 0 0 0-4.44-9.27l5.21-23.25h-.18l3.48-14.73 5.3-23.68h.28l3.18-13.47H246.55z"/><path fill="#595e62" d="M400.92.13a21 21 0 0 0-2.26-.13l-27 114.45-3.26 13.8-3.18 13.47-5.56 23.72-3.48 14.73h14.57a14 14 0 0 0 12.55-10.79l33.85-146A19 19 0 0 0 403.06.51a20 20 0 0 0-2.14-.38"/><path fill="#d0d4d8" d="M205.69 67.93v-.04l-.01.05z"/><path fill="#eff1f2" d="m356.35 180.17-5.21 23.25a11.9 11.9 0 0 1 4.44 9.27v2.25a35.5 35.5 0 0 1-3.39 15.2h-139l9.61-29.35 23.73-72.5h121.86l3.28-13.84h-135l-28.26 86.34-16.33 49.86-7 21.42-8.56 26.18-18 54.92h14.41l9.43-28.78 8.57-26.14 15.21-46.44H331.2l23.38 104.31H369l-23.33-104.36h1.56a20.67 20.67 0 0 0 20.65-20.65v-1h-8.27l11.21-50h-1.09z"/></g></g></svg>