<svg xmlns="http://www.w3.org/2000/svg" data-name="Ebene 2" viewBox="0 0 1600 900"><path fill="#e0e2e5" d="M162.35 441.93h36.89V626.4h-36.89z"/><path fill="#c1c7cc" d="M178.57 441.93h36.89V626.4h-36.89z"/><circle cx="289.48" cy="530.86" r="5.64" fill="#232628"/><path fill="#71767c" d="M284.27 526.83h6v8.06h-6c-2.23 0-4.03-1.8-4.03-4.03s1.8-4.03 4.03-4.03m-120.38-23.19h6v8.06h-6a4.03 4.03 0 0 1 0-8.06"/><path fill="#383b3e" d="M178.57 470.15h36.89v48.09h-36.89z"/><path fill="none" stroke="#71767c" stroke-miterlimit="10" stroke-width="2.17" d="M159.82 507.67c-4.09 0-7.41 3.32-7.42 7.41v38.71c0 33.4 27.05 60.49 60.45 60.54 33.44.04 60.58-27.03 60.62-60.46v-15.52c0-4.06 3.25-7.37 7.31-7.42l4.47-.07"/><path fill="#fff" d="m193.09 506.02 3.66-10.31h-6.43l10.08-12.16-3.65 9.35h6.42z"/><path fill="#232628" d="M857.79 578.56c0-12.41-3.75-23.73-9.89-32.28v-15.94h-28.57c-21.24 0-38.46 21.59-38.46 48.21s17.22 48.21 38.46 48.21h28.57v-15.94c6.15-8.55 9.89-19.86 9.89-32.28Z"/><ellipse cx="847.1" cy="578.56" fill="#3c3f42" rx="38.46" ry="48.21"/><ellipse cx="848.58" cy="580.18" fill="#595e62" rx="28.39" ry="35.59"/><path fill="#656a6f" d="M848.58 544.59c-1.38 0-2.74.13-4.07.37 13.75 2.47 24.32 17.29 24.32 35.22s-10.57 32.74-24.32 35.22c1.33.24 2.69.37 4.07.37 15.68 0 28.39-15.93 28.39-35.59s-12.71-35.59-28.39-35.59"/><path fill="#232628" d="M986.63 578.56c0-12.41-3.75-23.73-9.89-32.28v-15.94h-28.57c-21.24 0-38.46 21.59-38.46 48.21s17.22 48.21 38.46 48.21h28.57v-15.94c6.15-8.55 9.89-19.86 9.89-32.28Z"/><ellipse cx="975.94" cy="578.56" fill="#3c3f42" rx="38.46" ry="48.21"/><ellipse cx="977.43" cy="580.18" fill="#595e62" rx="28.39" ry="35.59"/><path fill="#656a6f" d="M977.43 544.59c-1.38 0-2.74.13-4.07.37 13.75 2.47 24.32 17.29 24.32 35.22s-10.57 32.74-24.32 35.22c1.33.24 2.69.37 4.07.37 15.68 0 28.39-15.93 28.39-35.59s-12.71-35.59-28.39-35.59"/><path fill="#232628" d="M1115.56 578.56c0-12.41-3.75-23.73-9.89-32.28v-15.94h-28.57c-21.24 0-38.46 21.59-38.46 48.21s17.22 48.21 38.46 48.21h28.57v-15.94c6.15-8.55 9.89-19.86 9.89-32.28Z"/><ellipse cx="1104.87" cy="578.56" fill="#3c3f42" rx="38.46" ry="48.21"/><ellipse cx="1106.36" cy="580.18" fill="#595e62" rx="28.39" ry="35.59"/><path fill="#656a6f" d="M1106.36 544.59c-1.38 0-2.74.13-4.07.37 13.75 2.47 24.32 17.29 24.32 35.22s-10.57 32.74-24.32 35.22c1.33.24 2.69.37 4.07.37 15.68 0 28.39-15.93 28.39-35.59s-12.71-35.59-28.39-35.59"/><path fill="#1a1c1d" d="M518.64 521.87h435.67v55.34H518.64z"/><path fill="#1a1c1d" d="M939.99 521.87h435.67v55.34H939.99z"/><path fill="#232628" d="M423.59 578.56c0-12.41-3.75-23.73-9.89-32.28v-15.94h-28.57c-21.24 0-38.46 21.59-38.46 48.21s17.22 48.21 38.46 48.21h28.57v-15.94c6.15-8.55 9.89-19.86 9.89-32.28Z"/><ellipse cx="412.9" cy="578.56" fill="#383b3e" rx="38.46" ry="48.21"/><ellipse cx="414.38" cy="580.18" fill="#595e62" rx="28.39" ry="35.59"/><path fill="#656a6f" d="M414.38 544.59c-1.38 0-2.74.13-4.07.37 13.75 2.47 24.32 17.29 24.32 35.22s-10.57 32.74-24.32 35.22c1.33.24 2.69.37 4.07.37 15.68 0 28.39-15.93 28.39-35.59s-12.71-35.59-28.39-35.59"/><path fill="#2e3033" d="M976.36 530.65h418.54v17.56H976.36z"/><path fill="#b2b9c0" d="M441.93 250.7h214.45v262.4H441.93z"/><path fill="#2e3033" d="M1281.15 605.93h47.04l-11.96-20.91h-47.04z"/><path fill="#43464a" d="M1208.33 503.98v-.42h.67l.45-.28.09.28h42.89l.09-.28.45.28h.67v.42c36.37 7.14 62.59 39.02 62.59 76.08v4.95h-37.28l-.06-8.73c0-29.43-19.84-53.35-44.5-53.97v-.03h-6.81v.03c-24.67.62-19.25-18.34-19.25-18.34Z"/><path fill="#232628" d="M1271.06 572.96c0-12.41-3.75-23.73-9.89-32.28v-15.94h-28.57c-21.24 0-38.46 21.59-38.46 48.21s17.22 48.21 38.46 48.21h28.57v-15.94c6.15-8.55 9.89-19.86 9.89-32.28Z"/><ellipse cx="1260.37" cy="572.96" fill="#383b3e" rx="38.46" ry="48.21"/><ellipse cx="1261.85" cy="574.58" fill="#595e62" rx="28.39" ry="35.59"/><path fill="#656a6f" d="M1261.85 538.99c-1.38 0-2.74.13-4.07.37 13.75 2.47 24.32 17.29 24.32 35.22s-10.57 32.74-24.32 35.22c1.33.24 2.69.37 4.07.37 15.68 0 28.39-15.93 28.39-35.59s-12.71-35.59-28.39-35.59"/><path fill="#383a3d" d="M1283.7 503.98v-.42h-.67l-.45-.28-.09.28h-42.89l-.09-.28-.45.28h-.67v.42c-36.37 7.14-62.59 39.02-62.59 76.08l.73 7.77h37.32l-.71-11.54c0-29.43 19.84-53.35 44.5-53.97v-.03h6.82v.03c24.67.62 19.25-18.34 19.25-18.34Z"/><path fill="#d0d4d8" d="M477.39 320.49h46.92v29.87h-46.92z"/><path fill="#2e3033" d="M1164.97 608.76h47.05l-11.96-20.91h-47.05z"/><path fill="#43464a" d="M1092.16 506.81v-.42h.67l.45-.28.09.28h42.89l.09-.28.45.28h.67v.42c36.37 7.14 62.59 39.02 62.59 76.08v4.95h-37.28l-.06-8.73c0-29.43-19.84-53.35-44.5-53.97v-.03h-6.81v.03c-24.67.62-19.25-18.34-19.25-18.34Z"/><path fill="#232628" d="M1154.88 575.79c0-12.41-3.75-23.73-9.89-32.28v-15.94h-28.57c-21.24 0-38.46 21.59-38.46 48.21s17.22 48.21 38.46 48.21h28.57v-15.94c6.15-8.55 9.89-19.86 9.89-32.28Z"/><ellipse cx="1144.19" cy="575.79" fill="#383b3e" rx="38.46" ry="48.21"/><ellipse cx="1145.68" cy="577.41" fill="#595e62" rx="28.39" ry="35.59"/><path fill="#656a6f" d="M1145.68 541.82c-1.38 0-2.74.13-4.07.37 13.75 2.47 24.32 17.29 24.32 35.22s-10.57 32.74-24.32 35.22c1.33.24 2.69.37 4.07.37 15.68 0 28.39-15.93 28.39-35.59s-12.71-35.59-28.39-35.59"/><path fill="#383a3d" d="M1167.52 506.81v-.42h-.67l-.45-.28-.09.28h-42.89l-.09-.28-.45.28h-.67v.42c-36.37 7.14-62.59 39.02-62.59 76.08l.73 7.77h37.32l-.71-11.54c0-29.43 19.84-53.35 44.5-53.97v-.03h6.82v.03c24.67.62 19.25-18.34 19.25-18.34Z"/><path fill="#d0d4d8" d="M495.07 536.07H287.28V349.49c-.41-18.62 13.76-29 30.73-29h177.06z"/><path fill="#d0d4d8" d="M494.67 447H280.15l6.73-10.72h207.79z"/><path fill="#b2b9c0" d="M494.67 446.97H280.15l6.73 3.03h207.79z"/><path fill="#c1c7cc" d="M524.67 320.49h85.49c.29 0 .53.24.53.53v176.33c0 .29-.24.53-.53.53H495.2c-.29 0-.53-.24-.53-.53V350.49c0-16.56 13.44-30 30-30"/><path fill="#c1c7cc" d="m554.38 516.59-59.71 19.48v-70.14h61.48z"/><path fill="#383b3e" d="M280.15 536.07h214.51v54.55H301.33c-11.69 0-21.18-9.49-21.18-21.18z"/><path fill="#656a6f" d="M323.28 571.01h-27.94l-5.44-16.02h55.14c-2.5 9.42-11.47 16.02-21.76 16.02m128.26 0h27.94l5.44-16.02h-55.14c2.5 9.42 11.47 16.02 21.76 16.02"/><path fill="#e0e2e5" d="M293.21 450h195.93v12.91c0 39.33-31.93 71.26-71.26 71.26h-53.41c-39.33 0-71.26-31.93-71.26-71.26z"/><path fill="#c1c7cc" d="M293.21 450h195.93v7.74c0 39.33-31.93 71.26-71.26 71.26h-53.41c-39.33 0-71.26-31.93-71.26-71.26z"/><path fill="#2e3033" d="M347.14 450h88.21v5.11h-88.21zM347.14 469.75h88.21v5.11h-88.21zM347.14 489.5h88.21v5.11h-88.21zM347.14 509.25h88.21v5.11h-88.21zM364.42 529h53.66v5.11h-53.66z"/><path fill="#383b3e" d="M494.67 436.28v-92.97h79.36v62.2z"/><path fill="#43464a" d="M286.88 343.31h207.79v92.74H286.88z"/><path fill="#232628" d="M587.3 578.56c0-12.41-3.75-23.73-9.89-32.28v-15.94h-28.57c-21.24 0-38.46 21.59-38.46 48.21s17.22 48.21 38.46 48.21h28.57v-15.94c6.15-8.55 9.89-19.86 9.89-32.28Z"/><ellipse cx="576.61" cy="578.56" fill="#383b3e" rx="38.46" ry="48.21"/><ellipse cx="578.09" cy="580.18" fill="#595e62" rx="28.39" ry="35.59"/><path fill="#656a6f" d="M578.09 544.59c-1.38 0-2.74.13-4.07.37 13.75 2.47 24.32 17.29 24.32 35.22s-10.57 32.74-24.32 35.22c1.33.24 2.69.37 4.07.37 15.68 0 28.39-15.93 28.39-35.59s-12.71-35.59-28.39-35.59"/><path fill="#2e3033" d="m520.42 590.62.08-9.94c0-33.51 26.82-60.74 60.16-61.44v-.03h35.23v-21.32h-59.61l-.12-.32-61.49 38.51v54.55h25.75ZM1049.11 611.53h47.05l-11.96-20.91h-47.05z"/><path fill="#43464a" d="M976.3 509.58v-.42h.67l.45-.28.09.28h42.89l.09-.28.45.28h.67v.42c36.37 7.14 62.59 39.02 62.59 76.08v4.95h-37.28l-.06-8.73c0-29.43-19.84-53.35-44.5-53.97v-.03h-6.81v.03c-24.67.62-19.25-18.34-19.25-18.34Z"/><path fill="#232628" d="M1039.02 578.56c0-12.41-3.75-23.73-9.89-32.28v-15.94h-28.57c-21.24 0-38.46 21.59-38.46 48.21s17.22 48.21 38.46 48.21h28.57v-15.94c6.15-8.55 9.89-19.86 9.89-32.28Z"/><ellipse cx="1028.33" cy="578.56" fill="#383b3e" rx="38.46" ry="48.21"/><ellipse cx="1029.82" cy="580.18" fill="#595e62" rx="28.39" ry="35.59"/><path fill="#656a6f" d="M1029.82 544.59c-1.38 0-2.74.13-4.07.37 13.75 2.47 24.32 17.29 24.32 35.22s-10.57 32.74-24.32 35.22c1.33.24 2.69.37 4.07.37 15.68 0 28.39-15.93 28.39-35.59s-12.71-35.59-28.39-35.59"/><path fill="#43464a" d="M1051.67 509.58v-.42h-.67l-.45-.28-.09.28h-42.89l-.09-.28-.45.28h-.67v.42c-36.37 7.14-62.59 39.02-62.59 76.08l.73 7.77h37.32l-.71-11.54c0-29.43 19.84-53.35 44.5-53.97v-.03h6.82v.03c24.67.62 19.25-18.34 19.25-18.34Z"/><path fill="#979ea4" d="M656.38 250.7h776.81v262.4H656.38z"/><path fill="#2e3033" d="M543.64 513.09h877.4v17.56h-877.4zM965.88 561.37v-12.22H620.75v12.22h12.55v19.84h-11.96v12.22h343.94v-12.22h-10.64v-19.84zm-326.47 0h150.85v19.84H639.41zm309.12 19.84H796.37v-19.84h152.16z"/></svg>