<svg xmlns="http://www.w3.org/2000/svg" viewBox="0 0 1600 900"><path fill="none" d="M985.8 217.563a11 11 0 0 0-.493-1.042 11 11 0 0 1 .493 1.042m-52.119-13.084-17.172-30.86v.001zl11.705-.024h-.001zm24.747 25.628.001-.002zm22.551-17.881a6.85 6.85 0 0 0-4.309-.484 6.85 6.85 0 0 1 4.309.484 8.9 8.9 0 0 1 2.758 2.09 11 11 0 0 1 .755.929 11 11 0 0 0-.755-.929 8.8 8.8 0 0 0-2.758-2.09m-88.023-15.057 6.849 7.38 16.321-.034-16.321.034zm-8.219 7.411-14.997.031 14.997-.03-1.028-17.376h-.001zm98.01 33.098q.194-.412.382-.825c-.129.276-.253.547-.382.825m-4.903 8.936-.011.017zm4.08-7.241q.176-.352.347-.7c-.115.227-.229.466-.347.7m4.687-13.819q.063-.508.1-1.009-.037.501-.1 1.009m-5.351 15.109q.148-.277.29-.555-.144.278-.29.555m4.8-12.098q.128-.537.234-1.067-.106.531-.234 1.067m.294-1.359q.124-.654.212-1.3-.088.647-.212 1.3m.429-4.266"/><path fill="#b8d6ff" d="M993.932 244.764c9.25-29.583 1.922-50.834 1.658-51.986a127 127 0 0 0-5.229-17.388 99 99 0 0 0-.745-1.852c-11.93-29.082-35.037-44.793-80.067-38.488-14.943 2.093-25.031 8.595-31.815 17.178a18.6 18.6 0 0 0-3.745 4.1 52.7 52.7 0 0 0-5.566 11.549 11.6 11.6 0 0 1-.906 2.727c-12.347 18.393-10.952 74.842 15.1 100.137A448 448 0 0 1 877 251.672a233 233 0 0 1-7.256-47.062l15-.031-1.029-17.375 9.247 9.965 6.849 7.38 16.321-.034.383-30.895 17.172 30.86 11.7-.024 13.042 25.652 7.851-10.924c3.308-3.777 6.911-6.76 10.39-7.439a6.85 6.85 0 0 1 4.309.484 8.8 8.8 0 0 1 2.758 2.09 11 11 0 0 1 .755.929 11 11 0 0 1 .696 1.075c.038.067.08.133.117.2a11 11 0 0 1 .493 1.042c.035.083.064.169.1.253q.168.434.3.883.045.15.087.3c.1.376.193.757.262 1.147q.009.06.018.121a15 15 0 0 1 .169 1.424q.038.518.045 1.047v.206q0 .622-.042 1.259-.012.172-.027.346-.041.5-.1 1.009-.021.178-.045.355-.089.644-.212 1.3c-.018.1-.041.2-.06.292q-.106.531-.234 1.067a30 30 0 0 1-.407 1.549q-.036.132-.073.262-.193.653-.412 1.31-.084.247-.17.5-.16.461-.329.924-.09.245-.181.49-.241.633-.5 1.266-.112.273-.229.544a58 58 0 0 1-1.013 2.271q-.234.5-.476.992-.171.352-.347.7c-.176.348-.248.49-.374.735-.1.186-.193.37-.29.555q-.714 1.359-1.47 2.681l-.2.35q-.859 1.493-1.746 2.92l-.01.017c-2.739 4.415-5.555 8.269-7.558 10.869l4.435 24.16 1.907 10.393a25.432 25.432 0 1 0 17.315-47.289z"/><path fill="#00629a" d="M1015.337 696.529h-83.7l-.343-62.1-40.01.036c.25 12.9 2.185 63.782 17.169 100.315 10.887 26.547 24.107 72.158 36.948 121.428A3715 3715 0 0 1 956.533 900h92.037c4.371-95.9 15.351-150.227-1.931-203.47h-31.3z"/><path fill="#007bc0" d="M425.714 342.657c-4.03-2.859-9.49-4.809-20.021-7.54-11.18-2.99-13.78-4.679-13.78-9.23s3.379-7.02 9.49-7.02a19.49 19.49 0 0 1 16.12 8.191l11.961-10.531c-7.28-8.581-16.38-12.611-28.6-12.611-17.161 0-27.821 9.1-27.821 23.661a19.74 19.74 0 0 0 7.15 15.991c-8.71 3.51-12.481 8.581-12.481 17.031 0 12.221 6.631 18.07 26.521 23.921 14.431 4.29 15.991 5.2 15.991 9.62 0 4.68-3.77 7.28-10.92 7.28-7.281 0-12.22-2.47-17.421-8.841l-11.83 10.532c7.28 8.969 17.031 13.259 30.421 13.259 17.55 0 28.6-9.1 28.6-23.66 0-6.89-2.21-11.7-7.41-16.251 8.84-3.77 12.48-8.841 12.48-17.291 0-7.149-2.73-12.48-8.45-16.511m-17.551 27.3c-16.511-3.64-21.841-6.631-21.841-12.48 0-3.641 2.08-6.111 6.37-7.281a69 69 0 0 1 14.431 3.64c6.24 2.21 8.45 4.421 8.45 8.32 0 4.033-2.34 6.503-7.41 7.803zm453.4 36.826 27.037-61.791-16.364 6.708-.032.081c-.619 1.555-11.332 28.088-37.1 69.031l.138-.023 20.122-3.274L888.142 441l9.832 4.02c3.289-4.859 5.595-8.189 5.595-8.189l57.416 26.23c5.6-19.03 11.283-38.521 16.363-56.28zm14.008 75.79c-.671-.358.747-3.4 3.25-7.762q-2.549-1.393-5.119-2.765c-1.522-.812-12.944-2.632-23.523-4.162l7.033 16.794-1.826.765 2.426 5.792-10.249 4.292-2.426-5.793-1.825.765-10.412-24.863c-2.863-.073-12.463-.639-18.184-4.81-2.086 11.547-1.407 25.443 2.834 43.826a4445 4445 0 0 1 5.086 22.312q.375 1.659.749 3.325.659 2.933 1.316 5.871c5.719 25.558 11.275 51.147 15.29 69.816l1.329 6.19a7828 7828 0 0 1 4.761 22.341h4.604l40.6-.038 40.01-.036-.011-2.027-.378-68.5s5.171-17.092 12.578-41.868c-20.657-12.611-43.205-26.278-67.913-39.465"/><path fill="#e0e2e5" d="M764.222 572.056c8.614 5.437 17.1 10.449 25.419 14.883-7.949-4.635-16.219-9.636-24.83-14.883zm-137.338-75.58 19.755 4.455-4.398-16.561zm354.294-182.803-.541.278c-46.861 24.138-51.879 21.632-51.39 22.358-.063-.044-15.315-10.66-16.784-22.282l-.012-.083c-.011-.091-.028-.181-.038-.271a61.9 61.9 0 0 0-14.867 25.408l.566 2.01 7.023 24.9 6.7-8.245 14.651-18.032 2.765-3.4a102 102 0 0 1 2.725 4.292c3.286 5.432 6.6 11.764 9.247 17.083 3.211 6.45 5.443 11.4 5.443 11.4l17.451-11.449 21.9-14.37 5.9-3.868.487-.32a66.9 66.9 0 0 0-11.226-25.409"/><path fill="#002742" d="m1010.692 606.715-2.456-47.488c-6.709-3.247-13.676-6.962-20.918-11.04-13.6-7.659-28.173-16.6-43.834-26.156a14752 14752 0 0 1-12.578 41.868l.378 68.5.011 2.027.343 62.1h83.7l-3.279-63.4zm38.89-245.625a49.06 49.06 0 0 1 11.946 18.452 40.27 40.27 0 0 0-11.946-18.452M995 340c-.017.127-.038.267-.059.407-1.17 7.735-8.392 34.211-17.594 66.38-5.08 17.759-10.763 37.25-16.363 56.28l41.4 18.913 1.9.868-.188-3.638 1.912-10.346c-.117-.422-.232-.858-.348-1.288a202.8 202.8 0 0 1-6.486-39.689c-1.331-20.679-.025-57.46 17.734-80.208.08-.1.155-.21.235-.311.868.137 1.722.284 2.57.436z"/><path fill="#004975" d="m891.285 634.465-40.6.038-17.971 56.455c-1.847 18.781-3.758 39.789-3.707 43.4L834.728 900h99.231c3.7-14.243 7.769-29.31 11.443-43.792-12.841-49.27-26.061-94.881-36.948-121.428-14.984-36.533-16.919-87.417-17.169-100.315m170.243-254.923a49.06 49.06 0 0 0-11.946-18.452c-7.79-7.332-17.828-11.125-29.868-13.29-.848-.152-1.7-.3-2.57-.436-.08.1-.155.209-.235.311-17.759 22.748-19.065 59.529-17.734 80.208a202.8 202.8 0 0 0 6.486 39.689c.116.43.231.866.348 1.288a171 171 0 0 0 5.823 17.433l29.061 13.276 12.305 5.621 59.651 27.251-48.22-142.958a81 81 0 0 0-3.101-9.941"/><path fill="#0096e8" d="m845.137 489.734 10.249-4.292 2.425 5.793-10.248 4.292zm-42.787-121.95-3.84 1.608 2.987 7.133.404 12.005 11.707-4.903-8.271-8.71z"/><path fill="#001d33" d="m803.715 527.07 11.574 44.986h-50.478c8.611 5.247 16.881 10.248 24.83 14.883 8.394 4.895 16.43 9.379 24.134 13.31l.229-1.9 7.674-63.5.611-5.06-20.256-9.254zm248.385 46.062c-9.3-.739-19.2-3.447-29.785-7.659-4.565-1.816-9.256-3.91-14.081-6.246l2.456 47.488 1.366 26.417 3.279 63.4h57.05zm-46.091-104.272-1.912 10.346.188 3.638 7.547 3.449a171 171 0 0 1-5.823-17.433m-192.401-85.233-11.707 4.903-1.097.459 14.664 35.018 15.296-2.489-16.059-38.35zm20.125 82.021s-.3 0-.832-.012l10.411 24.864 1.825-.765 10.249-4.291 1.826-.765-7.033-16.794c-6.762-.978-13.179-1.837-16.446-2.237"/><g fill="#eff1f2"><path d="M877 251.673a448 448 0 0 0 5.617 19.069c5.118 15.994 8.753 23.744 8.753 23.744a95.2 95.2 0 0 0 22.673 4.013 70.1 70.1 0 0 0 20.494-1.7 127 127 0 0 1-22.072 17.223c1.469 11.622 16.721 22.238 16.784 22.282-.489-.726 4.529 1.78 51.39-22.358l-1.326-7.225-2.694-14.673-1.909-10.388-4.435-24.16c2-2.6 4.819-6.454 7.558-10.869l.011-.017a106 106 0 0 0 1.946-3.27c.5-.88.994-1.776 1.47-2.681l.29-.555q.189-.368.374-.735.176-.352.347-.7.242-.495.476-.992a68 68 0 0 0 .659-1.447q.182-.412.354-.824.117-.271.229-.544.26-.633.5-1.266.091-.245.181-.49.17-.463.329-.924.087-.249.17-.5.219-.657.412-1.31.037-.13.073-.262a41 41 0 0 0 .407-1.549q.128-.537.234-1.067c.019-.1.042-.195.06-.292q.124-.654.212-1.3.024-.177.045-.355.063-.508.1-1.009.015-.174.027-.346.042-.637.042-1.259v-.206a19 19 0 0 0-.073-1.388 15 15 0 0 0-.141-1.083q-.009-.06-.018-.121c-.069-.39-.16-.771-.262-1.147q-.042-.15-.087-.3-.135-.45-.3-.883c-.033-.084-.062-.17-.1-.253a11 11 0 0 0-.493-1.042c-.037-.068-.079-.134-.117-.2a11 11 0 0 0-.51-.812q-.09-.132-.186-.263a11 11 0 0 0-.755-.929 8.9 8.9 0 0 0-2.758-2.09 6.85 6.85 0 0 0-4.309-.484 10 10 0 0 0-1.7.526c-2.939 1.162-5.917 3.749-8.688 6.913l-7.851 10.924-13.042-25.652-11.7.024-17.182-30.851-.383 30.895-16.321.034-6.849-7.38-9.247-9.965 1.028 17.376-15 .03A233 233 0 0 0 877 251.673M671.652 439.6l-41.677-1.421-13.164-.449 10.072 58.743 15.357-12.106 13.86-10.926a25.1 25.1 0 0 0 7.528-6.484c6.178-7.727 9.174-19.009 8.025-27.35zm-130.27-83.447-.87-76.191H329.435v218.007h211.077l.87-90.555h52.043l-51.86-51.859zm-171.31 46.958 11.83-10.532c5.2 6.371 10.14 8.841 17.421 8.841 7.15 0 10.92-2.6 10.92-7.28 0-4.42-1.56-5.33-15.991-9.62-19.89-5.851-26.521-11.7-26.521-23.921 0-8.45 3.771-13.521 12.481-17.031a19.74 19.74 0 0 1-7.15-15.991c0-14.56 10.66-23.661 27.821-23.661 12.221 0 21.321 4.03 28.6 12.611l-11.961 10.531a19.49 19.49 0 0 0-16.12-8.191c-6.111 0-9.49 2.47-9.49 7.02s2.6 6.24 13.78 9.23c10.531 2.731 15.991 4.681 20.021 7.54 5.72 4.031 8.45 9.362 8.45 16.511 0 8.45-3.64 13.521-12.48 17.291 5.2 4.55 7.41 9.361 7.41 16.251 0 14.561-11.051 23.66-28.6 23.66-13.393 0-23.141-4.29-30.421-13.259m96.143 70.9L421.669 440.6l11.4-14.588 26.374 20.6 35.092-68.6 16.48 8.431z"/><path d="M407.123 353.838a69 69 0 0 0-14.431-3.64c-4.29 1.17-6.37 3.64-6.37 7.281 0 5.849 5.33 8.84 21.841 12.48 5.07-1.3 7.41-3.77 7.41-7.8 0-3.9-2.21-6.111-8.45-8.321M992.4 339.081l-.487.32-5.9 3.868-21.9 14.37-17.451 11.449s-2.232-4.952-5.443-11.4c-2.648-5.319-5.961-11.651-9.247-17.083a106 106 0 0 0-2.725-4.292l-2.765 3.4-14.651 18.032-6.7 8.245-7.023-24.9-.566-2.01-8.946 5.911-27.035 61.791h115.787c9.2-32.169 16.424-58.645 17.594-66.38.021-.14.042-.28.059-.407zm-137.033 78.434-13.605 30.269-8.029 17.864c3.265.4 9.684 1.259 16.446 2.236 10.579 1.53 22 3.35 23.523 4.162q2.571 1.371 5.119 2.765c4.759-8.293 13.441-21.35 19.153-29.789L888.142 441z"/></g><path fill="#c1c7cc" d="M914.039 298.5c-.295 2.719-.593 5.519-.885 8.364-.24 2.336-.476 4.7-.705 7.081l.012.083a127 127 0 0 0 22.072-17.228 70.1 70.1 0 0 1-20.494 1.7M802.033 520.534l-33.942-131.922h-151.28l13.164 49.57 41.677 1.421c1.149 8.341-1.847 19.623-8.025 27.35a25.1 25.1 0 0 1-7.528 6.484l-13.858 10.933 4.4 16.561 18.888 71.125h149.76l-11.574-44.986zm33.074-99.722-4.278.695-.065.011-15.3 2.489-24.2 3.938s.839 3.786 2.162 8.762c.477 1.805 12.676 5.343 13.263 7.333a97 97 0 0 0 4.509 12.689 10.8 10.8 0 0 0 3.519 4.1c5.721 4.171 15.321 4.737 18.184 4.81.53.014.832.012.832.012l8.029-17.864 13.605-30.269-20.122 3.274z"/><path fill="#003253" d="m833.568 392.317-2.739 29.19 4.278-.695c25.765-40.943 36.478-67.476 37.1-69.031-19.807 4.57-35.666 20.419-38.639 40.536m-374.13 54.291-26.374-20.599-11.395 14.588 44.546 33.41 44.795-87.565-16.48-8.431zm388.779 187.897h-2.135s-1.828-8.662-4.761-22.341l-1.329-6.19c-4.015-18.669-9.571-44.258-15.29-69.816q-.657-2.937-1.316-5.871l-.749-3.325v-.019l-.344 2.843-.611 5.06L814 598.353l-.229 1.9-11.635 96.28h28.8l1.772-5.567 17.971-56.455zm192.676-134.936-29.061-13.276-7.547-3.449-1.9-.868-41.4-18.913-57.416-26.23s-2.306 3.33-5.595 8.189c-5.712 8.439-14.394 21.5-19.153 29.789-2.5 4.361-3.921 7.4-3.25 7.762 24.708 13.187 47.256 26.854 67.913 39.458 15.661 9.555 30.233 18.5 43.834 26.156 7.242 4.078 14.209 7.793 20.918 11.04 4.825 2.336 9.516 4.43 14.081 6.246 10.585 4.212 20.486 6.92 29.785 7.659 23.725 1.885 43.526-9.063 60.747-40.691L1053.2 505.19z"/></svg>