<svg xmlns="http://www.w3.org/2000/svg" viewBox="0 0 1852 994"><g fill="none"><path fill="#EFF1F2" d="M0 0h1852.2v994.32H0z"/><path fill="#E0E2E5" d="M121 804.36v43.86h14.56c0-18.15 11.08-32.88 29.26-32.88s29.26 14.73 29.26 32.88h14.57v-43.86z"/><path fill="#D0D4D8" d="M182.34 928.61h65.67v65.67h-65.67zm-83.19-73.03h65.67v65.67H99.15z"/><path fill="#E0E2E5" d="M81.74 928.61h65.67v65.67H81.74z"/><path fill="#D0D4D8" d="M223.76 804.37H106.08l58.85-51.81z"/><path fill="#E0E2E5" d="M164.83 855.58h65.67v65.67h-65.67zm206-176.07h404.22v41.08H370.83z"/><path fill="#D0D4D8" d="M370.84 834.79h404.22v42.84H370.84z"/><path fill="#E0E2E5" d="M816.14 610.28v384h-41v-60.23H370.86v60.24h-41V610.72l41.09-.44v267.33H775V610.74l41.08-.46z"/><path fill="#E0E2E5" d="M507.88 720.59h41.09v157.04h-41.09zm89.06 0h41.09v157.04h-41.09zm-178.12 0h41.09v157.04h-41.09zm267.18 0h41.08v157.04H686z"/><circle cx="795.81" cy="589.95" r="20.33" fill="#E0E2E5"/><circle cx="350.08" cy="589.95" r="20.33" fill="#E0E2E5"/><path fill="#E0E2E5" d="M607.64 429.09a20.6 20.6 0 0 1 7.65-16 2 2 0 0 0-.48-3.33 20.64 20.64 0 1 0-7.17 40c2.445 0 4.87-.436 7.16-1.29a2 2 0 0 0 .49-3.34 20.58 20.58 0 0 1-7.65-16zm38.07-20.66a2.76 2.76 0 0 1 5 0l5 10.21 11.29 1.64a2.76 2.76 0 0 1 1.53 4.72l-8.17 8 1.92 11.23a2.76 2.76 0 0 1-4 2.92l-10.09-5.3-10.08 5.3a2.76 2.76 0 0 1-4-2.92L636 433l-8.14-8a2.76 2.76 0 0 1 1.53-4.72l11.27-1.64zm-70.22 20.66a20.65 20.65 0 1 1-20.64-20.64c11.4 0 20.64 9.24 20.64 20.64m-78.84-20.29-19.46 33.72a4.81 4.81 0 0 0 4.16 7.21h38.93a4.81 4.81 0 0 0 4.17-7.21L505 408.8a4.81 4.81 0 0 0-8.35 0m170.74-32.17h-20.74l-73.58-74.04-.13-.14-.13.14-73.57 74.04h-20.75l87.09-87.65V0h14.72v288.98z"/><path fill="#E0E2E5" d="M573.07 302.59h-.26l.13-.14z"/><path fill="#D0D4D8" d="M467.2 376.63h211.48v26.57H467.2z"/><path fill="#E0E2E5" d="M1760.88 592v-44.7h-30.96V592h-335.65v-44.7h-30.95V592h-10.07v363.53h417.69V592z"/><path fill="#D0D4D8" d="M1551.44 677.55h-176.86v-64.22h176.86zm198.17 85.54h-375v-64.22h375zm0 85.55h-375v-64.22h375zm0 85.55h-375V870h375zm0-256.64h-176.83v-64.22h176.83z"/><path fill="#E0E2E5" d="M1729.93 592v-44.69c-32.47-1.74-53-8.23-72.58-14.53-26.22-8.44-53.32-17.16-95.35-17.16s-69.14 8.72-95.35 17.16c-19.63 6.3-40.11 12.79-72.58 14.53V592zm-350.89 363.53-4.46 38.76h21.62l16.99-38.76zm331.96 0 16.99 38.76h21.62l-4.46-38.76z"/><path fill="#D0D4D8" d="M1486 437.28a18.5 18.5 0 0 0-2.07-3.72c-5.2-7.33-16.27-8.4-24.76-2.39s-11.17 16.83-5.94 24.14a15.64 15.64 0 0 0 10.38 6.85c4.2.63 9.06-.61 14.37-4.45 8.92-6.47 10.71-13.89 8.02-20.43m64.21-5.93c-8.48-6-19.57-4.93-24.75 2.4a18.5 18.5 0 0 0-2 3.63c-2.75 6.56-1 14 8 20.51 5.26 3.82 10.09 5.07 14.26 4.47a15.63 15.63 0 0 0 10.5-6.86c5.12-7.32 2.47-18.13-6.01-24.15m-23.21 71.5a46.5 46.5 0 0 0-7.91-3.47c-1.09-.36-2.2-.69-3.33-1a45.6 45.6 0 0 0-9.47-1.33h-2.97a46 46 0 0 0-9.67 1.31 46.3 46.3 0 0 0-11.38 4.45c-15.46 8.53-26 25.63-26 45.35 0 1 0 2.07.09 3.1a53.3 53.3 0 0 0 4.14 17.87 50.5 50.5 0 0 0 19.83 23.24h48.48l.33-.21a50.4 50.4 0 0 0 19.57-23.13 53 53 0 0 0 3.37-11.4 51 51 0 0 0 .76-6.7c.06-.93.08-1.86.08-2.8.08-19.65-10.5-36.74-25.92-45.28"/><path fill="#D0D4D8" d="M1579.87 538c-5-21.82-33.75-34.58-38.75-36.65a44.59 44.59 0 0 0 4.54-39 43 43 0 0 0-3-6.69 44.1 44.1 0 0 0-19.24-18.29 43.22 43.22 0 0 0-37.42-.1 43.5 43.5 0 0 0-6.71 4 44.1 44.1 0 0 0-12.64 14.21 43.4 43.4 0 0 0-3 6.68 44.66 44.66 0 0 0 4.6 39.42c-6.29 2.65-33.68 15.28-38.55 36.42 0 0-2.94 11.87 7.71 17.72 0 0 9.43 4.29 19-4.45a35 35 0 0 0 6.55-8.42c10.6-18.36 19.16-26.47 20-27.28a42.88 42.88 0 0 0 43.68-.22c1.15 1.11 9.62 9.49 20 27.5a35.6 35.6 0 0 0 6.24 8.12c9.65 9.14 19.29 4.75 19.29 4.75 10.64-5.85 7.7-17.72 7.7-17.72M1557 559.45a21.7 21.7 0 0 0-4.88-1.78c-11.19-2.56-23.93 4-30.28 16.47a32.24 32.24 0 0 0-3.49 18.27h49.15c4.69-13.23.5-27.35-10.5-32.96m-69.62 14.69c-6.35-12.45-19.1-19-30.29-16.47a21.5 21.5 0 0 0-4.87 1.78c-11 5.61-15.21 19.73-10.5 33h49.15a32.4 32.4 0 0 0-3.5-18.31z"/><path fill="#E0E2E5" d="M1479.29 441.27a9.1 9.1 0 0 0-2-3.51c-3.73-4.11-10.41-4.12-14.9 0s-5.11 10.72-1.38 14.83a9.46 9.46 0 0 0 5.62 2.93h.1a44.1 44.1 0 0 1 12.57-14.14.13.13 0 0 0-.01-.11m72.38 128.82a12 12 0 0 0-2.93-1c-6.71-1.48-14.28 2.56-18 10a19 19 0 0 0-1.57 13.08l.06.21h27.82l.09-.19c4.27-8.57 1.86-18.48-5.47-22.1m-73 8.88c-3.82-7.48-11.49-11.43-18.21-9.83-.98.217-1.93.553-2.83 1-7.25 3.71-9.58 13.64-5.22 22.2h27.85a18.88 18.88 0 0 0-1.57-13.34zM1547 437.9c-4.49-4.08-11.16-4.07-14.89 0a9.1 9.1 0 0 0-2 3.47v.12a44.05 44.05 0 0 1 12.58 14.15 9.36 9.36 0 0 0 5.7-2.94c3.69-4.07 3.08-10.7-1.39-14.8m-42.2 36.86c17.21 0 24.5 9.14 24.39 20.08s-11.23 19.71-24.81 19.56-24.51-9.13-24.39-20.08 7.59-19.56 24.81-19.56m23.35-8.48a5.73 5.73 0 1 1-5.73-5.58 5.65 5.65 0 0 1 5.73 5.58m-40.66-5.58a5.58 5.58 0 1 0 5.73 5.58 5.66 5.66 0 0 0-5.73-5.58"/><path fill="#D0D4D8" d="M1518.93 497.51c-.61-.61-1.41-.5-2.24.16a28 28 0 0 1-3.27 2.38 17.2 17.2 0 0 1-7.06 2c0-.33-.07-.62-.07-.91v-8.51c.33-.09.6-.18.75-.23 2.53-.76 4-2.79 5.46-4.77a7.3 7.3 0 0 0 .91-1.84c.75-2.07-.46-3.76-2.56-4.28a17.5 17.5 0 0 0-3.6-.44h-4.8a17.5 17.5 0 0 0-3.6.44c-2.1.52-3.31 2.21-2.56 4.28a7.3 7.3 0 0 0 .91 1.84c1.47 2 2.93 4 5.46 4.77l.68.21v8.64a6 6 0 0 1-.09.81c-3.89-.43-7.42-1.49-10.24-4.27-.81-.8-1.65-.89-2.28-.29s-.59 1.59.23 2.41a17.78 17.78 0 0 0 10.07 4.82 23.4 23.4 0 0 0 9.46-.39 17.47 17.47 0 0 0 8.29-4.51 1.57 1.57 0 0 0 .18-2.3z"/><path fill="#E0E2E5" d="M998.81 852.46q6.44-4.31 13.22-8.32a256 256 0 0 1 22.18-11.63c30.068 19.666 45.162 55.636 38.13 90.87-17.77-29.75-43.17-51.39-70.41-62.72a12 12 0 0 0-3.12-8.2m-12.74-5.73a542 542 0 0 0-9.87-28.07 88 88 0 0 0-69.2 48.49c1.56-1.08 3.18-2.1 4.82-3.07 18.73-11 40.14-14.48 61.64-11.35a11.86 11.86 0 0 1 4.11-3.89 16.17 16.17 0 0 1 8.47-2.11zm-8.74 21.93c-30.62 25.78-52.44 57-63.19 88.5 19.402 27.342 52.645 41.298 85.75 36 8.29-31.29 5.83-73.91-6.68-121.85a17.82 17.82 0 0 1-15.88-2.68z"/><path fill="#D0D4D8" d="M998.81 852.46a17.53 17.53 0 0 0-12.72-5.7 542 542 0 0 0-9.87-28.07 88.14 88.14 0 0 1 58 13.85 251 251 0 0 0-22.22 11.6 270 270 0 0 0-13.22 8.32zm-5.6 18.88c12.51 47.94 15 90.56 6.68 121.85 36.366-5.842 65.263-33.685 72.45-69.81-17.77-29.75-43.16-51.39-70.41-62.72a11.08 11.08 0 0 1-5.8 9.37c-.92.546-1.9.985-2.92 1.31m-83.13 79.56c1.28 2.16 2.63 4.26 4.06 6.26 10.75-31.52 32.57-62.72 63.2-88.5a14.7 14.7 0 0 1-2.39-2.2c-3.76-4.28-4.12-9.65-1.46-13.73-21.5-3.13-42.91.33-61.64 11.35a75 75 0 0 0-4.82 3.07 88 88 0 0 0 3.05 83.75"/><path fill="#D0D4D8" d="M986.07 846.73a17.53 17.53 0 0 1 12.72 5.7 12 12 0 0 1 3.12 8.2 11.11 11.11 0 0 1-5.8 9.38 14.7 14.7 0 0 1-2.92 1.3 17.82 17.82 0 0 1-15.88-2.68 15 15 0 0 1-2.38-2.2c-3.76-4.28-4.12-9.65-1.46-13.73a11.86 11.86 0 0 1 4.11-3.89 16.17 16.17 0 0 1 8.47-2.11z"/><path fill="#E0E2E5" d="M1142.99 394.3v100.96h-129.67V394.3zm-57.27-284.66h185.8v259.63h-185.8zm-187.83 96.84h162.79v162.79H897.89z"/></g></svg>