<svg xmlns="http://www.w3.org/2000/svg" data-name="Ebene 1" viewBox="0 0 1920 1080"><defs><clipPath id="a"><path fill="none" stroke-width="0" d="M-.321-.106h1920v1080h-1920z"/></clipPath><clipPath id="b"><path fill="none" stroke-width="0" d="M1259.29-.106h660.388v1080H1259.29z"/></clipPath></defs><path fill="#eff1f2" d="M-.321-.106h1920v1080h-1920z"/><path fill="none" d="M420.65 321.05q.105-.206.25-.385c-.085.129-.175.251-.25.385m-.068.124c-.025.046-.042.096-.066.143l.023-.064c.01-.027.034-.052.043-.079"/><path fill="#e0e2e5" d="M372.342 863.555H1919.31v216.233H372.342z"/><path fill="none" d="M0 0h1920v1080H0z"/><path fill="#fff" d="M1451.892 178.248h-132.18c-16.58.094-30.451-12.564-31.87-29.083-1.419-16.52 10.09-31.358 26.444-34.093l18.955-3.226a56 56 0 0 1-.148-3.85c0-30.652 24.971-55.495 55.77-55.495 25.03-.034 47.012 16.622 53.752 40.726l1.946-.335a44 44 0 0 1 7.33-.63 42.993 42.993 0 1 1 0 85.98z"/><path fill="#fff" d="M1166.542 213.42h-86.379a28.094 28.094 0 1 1 0-56.184 29 29 0 0 1 4.795.397l13.82 2.36c3.616-16.796 18.48-28.78 35.66-28.752 20.13 0 36.443 16.238 36.443 36.268 0 1.577-.101 3.152-.305 4.716 10.53 2.043 17.777 11.764 16.728 22.44-1.05 10.677-10.05 18.8-20.778 18.754z" data-name="Path"/><g stroke-width="0"><path fill="#c1c7cc" d="M1217.569 426.286h19.61v437.269h-19.61z"/><rect width="118.332" height="132.129" x="1168.332" y="298.998" fill="#d0d4d8" data-name="Rectangle" rx="10.373" ry="10.373"/><path fill="#eff1f2" d="M1202.428 330.318h29.545c15.744 0 24.98 8.357 24.98 22.546 0 13.508-9.042 21.481-24.3 21.481h-14.675v25.462h-15.55zm28.576 32.462c6.996 0 10.786-3.597 10.786-10.205 0-6.612-3.597-9.916-10.691-9.916h-13.12v20.12z"/><path fill="#e0e2e5" d="M1227.374 542.61c27.48 0 49.756 22.277 49.756 49.756v94.988h-99.454v-95.017c0-27.48 22.277-49.756 49.756-49.756z" data-name="Path"/><path fill="#c1c7cc" d="M1211.554 568.384h31.64c6.25 0 11.317 5.067 11.317 11.318s-5.067 11.318-11.318 11.318h-31.639c-6.25 0-11.318-5.067-11.318-11.318s5.067-11.318 11.318-11.318" data-name="Rectangle"/><path fill="#d0d4d8" d="M1172.408 591.026h109.926v17.333h-109.926z" data-name="Rectangle"/></g><path fill="none" d="M-.321-.106h1920v1080h-1920z"/><g stroke-width="0" clip-path="url(#a)" data-name="Ebene 2"><g data-name="Ebene 2-2"><path fill="#232628" d="M436.037 1095.252c0-62.322-17.41-119.12-46.005-162.013v-79.984H257.203c-98.766 0-178.861 108.355-178.861 241.997s80.095 241.996 178.861 241.996h132.83v-80.011c28.595-42.894 46.004-99.664 46.004-161.985"/><ellipse cx="393.228" cy="1103.382" fill="#8a9097" rx="131.988" ry="178.61"/><path fill="#c1c7cc" d="M393.228 924.772a98.4 98.4 0 0 0-18.895 1.85c63.92 12.42 113.092 86.908 113.092 176.76s-49.173 164.424-113.092 176.76a100.7 100.7 0 0 0 18.895 1.85c72.89 0 132.016-79.984 132.016-178.61s-59.097-178.61-132.016-178.61"/><path fill="#c1c7cc" d="m542.654 1124.828-110.962-50.91a34.12 34.12 0 0 1-18.475-19.26L356.11 891.802l-83.291 20.802 58.088 165.686a32.83 32.83 0 0 1-3.617 28.903l-54.724 85.058 39.25 89.711 81.3-123.605c5.102-7.906 16.821-10.85 26.213-6.532l114.298 52.425z"/><path fill="#383b3e" d="M386.332 853.255c-98.795 0-178.862 108.355-178.862 241.997s80.067 241.996 178.862 241.996 178.918-108.354 178.918-241.996-80.152-241.997-178.918-241.997m6.896 428.736c-72.89 0-131.987-79.983-131.987-178.61s59.097-178.609 131.987-178.609 132.016 79.955 132.016 178.61-59.097 178.61-132.016 178.61"/><path fill="#7d8389" d="m96.704 692-876.2 7.961 184.498-148.444c135.52-112.14 297.169-172.414 463.079-172.414l611.158 1.177z"/><path fill="#8a9097" d="M1018.376 521.828c-140.51-75.918-335.38-128.175-503.841-140.37-175.274-12.7-358.593 79.086-482.9 215.167l-94.533 103.532H1123.34l-100.477-127.614z"/><path fill="#8a9097" d="M1171.082 747.284a164.03 164.03 0 0 0-60.275-84.105 90.9 90.9 0 0 0-55.425-17.577l-1834.877 28.034c-177.404-5.102-429.129 30.839-429.129 129.24l-.729 257.472c-.504 180.993 254.444 180.993 340.51 180.993H755.579a93 93 0 0 0 20.073-2.215l106-23.773a91.2 91.2 0 0 1 20.072-2.243h130.194c12.756 0 52.004-11.803 87.328-26.661 33.99-14.318 56.085-47.615 56.07-84.497V1018.1l-.364-244.94a88 88 0 0 0-3.87-25.876"/><path fill="#7d8389" d="M31.636 675.318h460.5v565.406h-460.5z"/><path fill="#e0e2e5" d="M31.73 675.318h460.413V422.17h-.06C333.174 419.365 174.16 508.206 70.58 629.765z"/><path fill="#c1c7cc" d="m-33.237 677.113-746.258-.28c108.41-98.459 248.416-194.001 407.738-255.09l662.49-4.008c-135.436 63.246-255.06 157.92-323.97 259.378"/><path fill="#595e62" d="M386.612 732.594h73.199c7.88 0 14.27 6.388 14.27 14.27 0 7.88-6.39 14.269-14.27 14.269h-73.199c-7.88 0-14.27-6.389-14.27-14.27s6.39-14.27 14.27-14.27"/><path fill="#7d8389" d="M511.283 675.318h413.121v565.406H511.283z"/><path fill="#595e62" d="M819.638 732.594h73.198c7.881 0 14.27 6.388 14.27 14.27 0 7.88-6.389 14.269-14.27 14.269h-73.198c-7.881 0-14.27-6.389-14.27-14.27s6.389-14.27 14.27-14.27"/><path fill="#8a9097" d="M-249.778 1240.752c-29.1-32.772-47.659-82.142-47.659-137.37 0-98.655 59.097-178.61 132.016-178.61s131.988 79.955 131.988 178.61c0 55.228-18.531 104.598-47.66 137.37h51.613c22.568-40.51 35.94-90.889 35.94-145.5 0-133.642-80.067-241.997-178.834-241.997s-178.834 108.355-178.834 241.997c0 54.612 13.373 104.99 35.941 145.5zm1124.532 1.823c-29.1-32.745-47.66-82.114-47.66-137.371 0-98.626 59.098-178.582 131.989-178.582s131.988 79.956 131.988 178.582a224.5 224.5 0 0 1-22.428 99.636l49.846-18.643a317.5 317.5 0 0 0 12.531-89.095c0-133.642-80.067-241.996-178.862-241.996S773.324 963.46 773.324 1097.102c0 54.612 13.401 104.99 35.941 145.473z"/><path fill="#232628" d="M971.446 1095.252c0-62.322-17.41-119.12-46.005-162.013v-79.984H792.612c-98.767 0-178.834 108.355-178.834 241.997s80.067 241.996 178.834 241.996h132.829v-80.011c28.595-42.894 46.005-99.664 46.005-161.985"/><ellipse cx="928.637" cy="1103.382" fill="#8a9097" rx="131.988" ry="178.61"/><path fill="#c1c7cc" d="M928.637 924.772a98.4 98.4 0 0 0-18.896 1.85c63.92 12.42 113.093 86.908 113.093 176.76S973.66 1267.722 909.74 1280a100.7 100.7 0 0 0 18.896 1.85c72.89 0 132.016-79.983 132.016-178.61s-59.098-178.469-132.016-178.469"/><path fill="#c1c7cc" d="m1078.062 1124.828-110.961-50.91a34.12 34.12 0 0 1-18.476-19.26L891.52 891.69l-83.264 20.802 58.06 165.685a32.83 32.83 0 0 1-3.616 28.904l-54.724 85.058 39.249 89.711 81.3-123.605c5.075-7.906 16.821-10.85 26.185-6.532l114.298 52.425z"/><path fill="#383b3e" d="M921.74 853.255c-98.794 0-178.862 108.355-178.862 241.997s80.068 241.996 178.862 241.996 178.974-108.354 178.974-241.996-80.207-241.997-178.974-241.997m6.897 428.736c-72.89 0-131.988-79.983-131.988-178.61s59.097-178.609 131.988-178.609 132.016 79.955 132.016 178.61-59.098 178.61-132.016 178.61"/><path fill="#7d8389" d="m535.953 1240.023 187.245.14c-25.848-196.608 29.408-383.487 223.1-393.552l-269.33-20.1z"/><path fill="#e0e2e5" d="m511.29 422.964-.007 252.355h413.12l.009-140.828c-95.603-60.577-224.734-102.5-413.121-111.527"/></g><path fill="#d0d4d8" d="M160.29 558.417v116.906H31.73l38.85-45.553c23.446-27.508 49.729-53.346 78.21-76.814 4.583-3.776 11.5-.477 11.5 5.46m763.983-14.284h-153.41c-8.28 0-14.994 6.713-14.994 14.994v116.192h168.396z"/><path fill="#d0d4d8" d="M602.872 544.132h138.414c8.281 0 14.994 6.713 14.994 14.994v116.192H587.884l-.007-116.19c0-8.282 6.713-14.996 14.995-14.996m-379.606 0H471.6c11.593 0 20.992 9.398 20.992 20.992v110.194H202.286l-.012-110.192c0-11.594 9.398-20.994 20.992-20.994m349.344 0h-61.327v131.186H587.6l.003-116.191c0-8.282-6.713-14.995-14.994-14.995"/><path fill="#232628" d="m734.225 673.989-1.184 1.334h-26.03l12.61-14.244c3.404-3.854 4.183-8.967 2.07-13.645-2.115-4.693-6.448-7.497-11.591-7.497h-78.405c-5.383 0-9.747-4.364-9.747-9.747s4.364-9.746 9.747-9.746H710.1c12.835 0 24.095 7.273 29.358 18.983 5.278 11.695 3.27 24.95-5.233 34.562"/><path fill="#43464a" d="M677.014 675.319H511.291v-84.466h91.913c60.808 0 73.81 84.465 73.81 84.465"/><path fill="#007bc0" d="m666.013 594.998 8.165-9.584h-7.735v-3.891h13.747v3.667l-8.006 9.521h8.293v3.891h-14.464zm33.635-31.253 13.608-15.974h-12.89v-6.486h22.91v6.114l-13.342 15.867h13.82v6.485h-24.106zm43.278-42.64 19.051-22.364H743.93v-9.08h32.076v8.559l-18.68 22.215h19.35v9.08h-33.75z"/><path fill="#232628" d="M146.9 675.323h-19.702c-11.17-22.386-31.518-39.435-56.078-46.182a571 571 0 0 1 13.015-14.725c28.579 10.436 51.505 32.733 62.766 60.907"/><path fill="#595e62" d="m155.24 690.99-96.355 23.914-.196-25.12 89.852-23.941z"/><path fill="#595e62" d="M247.588 693.878H130.542l34.848-54.5c32.324-11.55 64.816-9.588 97.392 0z"/><path fill="#43464a" d="M241.055 684.234H135.617l16.176-10.43 9.56-13.512h87.02z"/><path fill="#43464a" d="M165.978 681.514 63.82 708.4l.308-10.71 100.084-27.25z"/><path fill="#d0d4d8" d="M412.449 464.879v36.076c0 8.277-6.718 14.994-14.995 14.994H297.413c-8.277 0-14.994-6.717-14.994-14.994v-32.193c15.279-7.002 30.813-13.315 46.572-18.877h68.463c8.277 0 14.995 6.717 14.995 14.994m132.009 30.393v19.597c0 6.628-5.383 11.996-11.995 11.996H511.29v-43.588h21.172c6.612 0 11.995 5.368 11.995 11.995"/><rect width="86.336" height="43.584" x="628.911" y="483.28" fill="#d0d4d8" rx="8" ry="8"/><path fill="#d0d4d8" d="M883.238 510.731v5.218c0 6.628-5.368 11.996-11.995 11.996h-62.346c-6.628 0-11.996-5.368-11.996-11.996v-19.598c0-6.627 5.368-11.995 11.996-11.995h17.123c20.242 8.142 39.27 16.959 57.218 26.375"/></g><g stroke-width="0"><path fill="#fff" d="M462.812 266.848c0 74.101-41.119 138.6-101.793 171.901a190 190 0 0 1-13.667 6.839c-.21.09-.409.18-.609.27-24.417 10.92-51.46 16.99-79.931 16.99-21.742 0-42.656-3.534-62.192-10.073a194 194 0 0 1-26.375-11.03 194 194 0 0 1-15.543-8.796c-.09-.06-.17-.11-.259-.17a196.8 196.8 0 0 1-44.952-38.972c-29.12-34.19-46.679-78.523-46.679-126.96 0-108.241 87.748-196 196-196 108.242 0 196 87.759 196 196"/><path fill="#b2b9c0" d="M263.677 234.528c5.886 1.471 11.895 1.962 17.903 1.471.49 4.415 1.067 9.285 1.558 13.945-7.113-4.17-13.698-9.53-19.461-15.416"/><path fill="#56b0ff" d="M180.343 226.523c0-.736-.123-1.595-.123-2.33 0-20.601 15.328-38.014 35.806-40.59-2.697-9.932-3.556-22.562.491-37.645 11.159-42.674 48.682-50.521 72.104-42.674 11.772 3.924 35.56 16.555 32.863 41.08 11.895 16.677 9.442 39.73-5.763 53.464a26 26 0 0 1-4.17 3.066c.369-1.471.859-2.943 1.227-4.537 3.679-14.102 5.64-28.449 6.131-42.919-5.028 9.442-21.214 22.073-76.395 22.073-.246 0-.49 0-.614.123-3.923-6.99-12.14-18.64-19.497-10.546-7.97 8.706 4.66 27.59 10.791 35.684.245.245.49.613.613.858l-7.112 39.363-8.216 45.37h21.214c-5.763 27.224-32.495 44.636-59.718 38.873s-44.636-32.496-38.872-59.718c4.292-19.62 19.62-34.948 39.24-38.995"/><path fill="#d0d4d8" d="m226.73 240.992 7.112-39.362c-.245-.246-.368-.49-.613-.859-6.131-8.093-18.762-26.977-10.791-35.684 7.358-7.97 15.573 3.556 19.497 10.546.246 0 .368-.123.614-.123 55.18 0 71.367-12.63 76.395-22.072a202.4 202.4 0 0 1-6.131 42.919c-.368 1.594-.858 3.065-1.226 4.537-6.01 21.46-10.791 31.76-10.791 31.76-6.254 1.962-12.63 3.065-19.13 3.433a62.8 62.8 0 0 1-17.903-1.471 98 98 0 0 0 19.375 15.328c2.207 18.639 4.292 36.297 4.292 36.297h-68.793z"/><path fill="#005587" d="m349.548 363.23-3.323-35.268c-2.696-18.02-16.312-32.614-34.092-36.657l-18.997-5.31-.748-.21c4.292 8.336 11.04 19.376 21.832 33.841 4.172 5.4 8.825 11.4 14.225 17.909l1.837 2.206c7.726 9.194 14.345 16.92 19.377 24.647zm-2.805 82.627c1.707-4.662 3.414-9.314 5.122-13.906 1.347-3.923 2.695-7.597 3.683-11.28l.28.928 5.19 17.15a190 190 0 0 1-13.666 6.839z"/><path fill="#007bc0" d="m162.443 432.78-6.838-87.798c-.61-9.164-1.218-17.72-.899-25.336.02-.579.05-1.158.08-1.727.13-1.986.32-3.893.61-5.73v-.01c.388-2.565.948-4.991 1.716-7.257.26-.749.54-1.488.849-2.206.18-.41.36-.81.559-1.208.15-.31.3-.61.469-.909.31-.579.639-1.138.988-1.687 3.864-6.08 10.302-10.402 20.764-12.428a31 31 0 0 0 2.356-.55c8.735-2.325 24.637-9.403 29.649-14.534 7.117-7.477 7.237-9.683 7.237-9.683l2.925.15.09.01 61.923 3.224 1.038.05s-.25 6.01 6.988 20.474c.06.12.12.25.19.37 4.182 8.305 10.88 19.336 21.642 33.481 4.163 5.51 8.825 11.52 14.225 17.9l1.837 2.206c7.387 8.794 13.766 16.361 18.708 23.649.23.339.449.668.668.998 10.053 15.453 13.487 30.537 5.88 56.412-.09.32-.18.629-.27.958-.948 3.275-2.186 6.759-3.533 10.442-1.637 4.482-3.295 9.005-4.942 13.547-.21.09-.409.18-.609.27-24.417 10.92-51.46 16.99-79.931 16.99-21.742 0-42.656-3.534-62.192-10.073a194 194 0 0 1-26.374-11.03 194 194 0 0 1-15.543-8.795z"/><path fill="#003e64" fill-rule="evenodd" d="M204.62 452.775a194 194 0 0 1-26.375-11.03 194 194 0 0 1-15.543-8.796l-6.848-87.847c-.728-9.214-1.417-17.81-1.147-25.456.02-.579.05-1.158.079-1.727.12-1.996.3-3.913.58-5.76.389-2.565.948-4.981 1.746-7.237.25-.76.53-1.488.849-2.207.18-.409.359-.808.559-1.207.15-.31.299-.61.47-.909.309-.579.638-1.138.987-1.687 3.873-5.98 10.282-10.242 20.645-12.298l5.71 39.55 9.952 68.921z"/><path fill="#006ead" d="M162.703 432.95a194 194 0 0 0 15.543 8.794c6.788-14.185 13.346-30.177 18.038-46.659 3.135-10.98 5.42-22.171 6.41-33.182.828-8.895.408-22.69-2.157-36.597-2.745-15.034-7.996-30.197-16.85-39.431l-.59.06c-14.814 1.417-25.665 7.217-33.352 19.775-3.015 4.932-5.54 10.901-7.627 18.059l-24.627 70.038a196.8 196.8 0 0 0 44.952 38.973z"/><ellipse cx="225.542" cy="178.944" fill="#4e5256" rx="12.876" ry="22.073"/><path fill="#4e5256" d="M217.571 159.324c-1.088-35.808 26.414-60.74 53.955-61.313 19.651-.409 40.466 12.263 47.824 30.657-6.131-14.715-26.947-28.613-46.598-28.204-27.541.573-51.364 23.052-50.276 58.86zM233.118 186.84l28.598 23.986 15.941 6.132v3.678h-1.226l-13.489-4.905-30.511-26.482z"/><ellipse cx="221.863" cy="178.944" fill="#595e62" rx="12.16" ry="20.846"/></g><g fill="#007bc0" stroke-width="0"><path d="M1636.026 268.776h-7.952v-3h7.952zm-15.903 0h-7.952v-3h7.952zm-15.903 0h-7.951v-3h7.95zm-15.903 0h-7.951v-3h7.951zm-15.903 0h-7.951v-3h7.951zm-15.903 0h-7.951v-3h7.951zm-15.902 0h-7.952v-3h7.952zm-15.903 0h-7.952v-3h7.952zm-15.903 0h-7.951v-3h7.95zm-31.806 0h-7.951v-3h7.951zm-15.903 0h-7.951v-3h7.951zm-31.805 0h-7.952v-3h7.952zm-15.903 0h-7.951v-3h7.95zm-15.903 0h-7.951v-3h7.951zm-15.903 0h-7.951v-3h7.951zm-15.903 0h-7.951v-3h7.951zm-15.902 0h-7.952v-3h7.952zm-15.903 0h-7.952v-3h7.952zm-15.903 0h-7.951v-3h7.95zm-15.903 0h-7.951v-3h7.951zm-15.903 0h-7.951v-3h7.951zm-15.903 0h-7.951v-3h7.951zm-15.902 0h-7.952v-3h7.952zm-15.903 0h-7.952v-3h7.952zm-15.903 0h-7.951v-3h7.951zm-15.903 0h-7.951v-3h7.951zm-15.903 0h-7.951v-3h7.951zm-15.903 0h-7.951v-3h7.951zm-15.902 0h-7.952v-3h7.952zm-15.903 0h-7.952v-3h7.952zm-15.903 0h-7.951v-3h7.951zm-15.903 0h-7.951v-3h7.951zm-15.903 0h-7.951v-3h7.951zm-15.903 0h-7.95v-3h7.95zm-15.902 0h-7.952v-3h7.952zm-15.903 0h-7.952v-3h7.952zm-15.903 0h-7.951v-3h7.951zm-15.903 0h-7.951v-3h7.951zm-15.903 0h-7.951v-3h7.951zm-15.903 0h-7.95v-3h7.95zm-15.902 0h-7.952v-3h7.952zm-15.903 0h-7.952v-3h7.952zm-15.903 0h-7.951v-3h7.951zm-15.903 0h-7.951v-3h7.951zm-15.903 0h-7.951v-3h7.951zm-15.903 0h-7.95v-3h7.95zm-15.902 0h-7.952v-3h7.952zm-15.903 0h-7.951v-3h7.951zm-15.903 0h-7.951v-3h7.951zm-15.903 0h-7.951v-3h7.951zm-15.902 0h-7.952v-3h7.952zm-15.903 0h-7.951v-3h7.951zm-15.903 0h-7.951v-3h7.951zm-15.903 0h-7.951v-3h7.951zm-15.902 0h-7.952v-3h7.952zm-15.903 0h-7.952v-3h7.952zm-31.806 0h-7.951v-3h7.951zm-15.903 0h-7.95v-3h7.95zm-15.902 0h-7.952v-3h7.952zm-15.903 0H642.1v-3h7.951zm-15.903 0h-7.951v-3h7.951zm-15.902 0h-7.952v-3h7.952zm-15.903 0h-7.952v-3h7.952zm-15.903 0h-7.952v-3h7.952zm-15.903 0h-7.951v-3h7.951zm-15.903 0h-7.95v-3h7.95zm-15.902 0h-7.952v-3h7.952zm-15.903 0h-7.952v-3h7.952zm-15.903 0h-7.951v-3h7.951zm-15.903 0h-7.951v-3h7.951zm-15.902 0h-7.952v-3h7.952zm-15.903 0h-7.952v-3h7.952zm-15.903 0h-7.952v-3h7.952zm-15.903 0h-7.951v-3h7.951zm-15.903 0h-7.95v-3h7.95zm-15.902 0h-7.952v-3h7.952zM1649.475 271.276h-3v-2.5h-2.5v-3h5.5zM1649.475 369.935h-3v-8.221h3zm0-16.443h-3v-8.221h3zm0-16.443h-3v-8.221h3zm0-16.443h-3v-8.222h3zm0-16.443h-3v-8.222h3zm0-16.443h-3v-8.222h3zM1646.475 378.157h3v4h-3z"/></g><g clip-path="url(#b)"><path fill="#56b0ff" d="m1574.581 535.727 32.08 7.743 4.623 22.408-5.672 1.872-6.202-12.044-8.374-1.477z"/><g data-name="Ebene 2"><g stroke-width="0" data-name="Ebene 1-2"><path fill="none" d="M1674.863 926.722h83.996l-38.438-85.636h-72.455a49 49 0 0 1-11.368-1.33l38.898 86.656zM1591.214 572.51l15.517 34.775h83.18900000000001l-15.517-34.774z"/><path fill="#a4abb3" d="M1705.5 979.064c.278 10.453-7.97 19.152-18.423 19.43-10.453.28-19.153-7.969-19.431-18.422l-.001-.04v-21.38c-11.28 10.45-11.953 28.065-1.503 39.345s28.066 11.952 39.345 1.502 11.953-28.064 1.504-39.344l-.162-.174-1.33 2.373zm179.572 0c.278 10.453-7.97 19.152-18.423 19.43-10.453.28-19.153-7.969-19.431-18.422l-.001-.04v-21.381c-11.264 10.457-11.918 28.065-1.462 39.33 10.457 11.263 28.066 11.918 39.33 1.46 11.262-10.454 11.918-28.06 1.465-39.324a1.4 1.4 0 0 1-.136-.136l-1.342 2.373z"/><path fill="#c1c7cc" d="m1606.731 607.285-15.517-34.774h-8.162l15.927 35.68v-.906zM1689.92 607.285h8.163l-15.517-34.774h-8.163zM1758.86 926.722h-83.997l.683-.31-38.948-86.655a47.7 47.7 0 0 1-9.69-3.404l40.7 90.693v52.017c-.28 10.454 7.969 19.153 18.422 19.432s19.153-7.97 19.431-18.423l.001-.04v-17.678l1.33-2.373 14.51-25.804h125.952v44.886c-.279 10.454 7.97 19.153 18.423 19.432s19.152-7.97 19.431-18.423l.001-.04v-17.679l1.342-2.372 18.635-33.259h-138.86l.647-.298-38.34-85.338h-8.162z"/><path fill="#43464a" d="M1791.198 841.086h-1.242a46.73 46.73 0 0 0 40.613-23.605l5.809-9.824 2.266-14.949 47.67-185.448H1598.98V792.1a48.99 48.99 0 0 0 27.966 44.253 47.7 47.7 0 0 0 9.69 3.404 49 49 0 0 0 11.33 1.329z"/><path fill="#71767c" d="M1674.403 572.51h8.163v-13.367h-105.602v13.368h97.44"/><path fill="#2e3033" d="m1838.607 792.708-3.404 13.231c-5.345 20.65-23.966 35.083-45.297 35.11h80.083c19.324.035 36.207-13.047 40.999-31.768l51.955-202.021h-76.629z"/></g></g><g stroke-width="0" data-name="Bosch/Office/People/male-with-suitcase-purple"><path fill="#7ebdff" d="m1567.222 527.118 37.724 24.974s-26.095 27.033-26.04 27.105c-9.82-4.666-27.624-36.442-27.624-36.442"/><path fill="#b8d6ff" d="m1604.947 552.092 10.885 32.646s-.218.485-5.927 1.59c-12.138 2.295-29.845-6.881-31.065-7.15l26.106-27.084"/><path fill="#7ebdff" d="M1472.63 297.57a65 65 0 0 1-11.908-9.428c3.7.567 7.82.957 11.669 1.087.315 2.795.641 5.753.88 8.7l-.641-.315zm72.87 155.57 65.442-20.302 29.894-12.147 13.909 21.869s-13.354 4.545-25.262 7.83c-11.907 3.283-21.65 5.991-21.65 5.991s-57.298 37.724-77.122 47.946l-1.197-34.364 15.986-16.78z" data-name="Path"/><path fill="#2e3033" d="m1609.746 436.198 20.662-58.342a5.5 5.5 0 0 1 5.198-3.675h21.368l-18.704.076a5.6 5.6 0 0 0-5.187 3.676l-20.662 58.265a5.61 5.61 0 0 0 3.437 7.112c.585.227 1.21.335 1.837.315h-2.718a5.57 5.57 0 0 1-5.6-5.59 4.9 4.9 0 0 1 .37-1.837m26.61 6.786-12.625.641z"/><path fill="#43464a" d="m1612.465 436.198 20.661-58.265a5.44 5.44 0 0 1 5.187-3.676h21.14a5.525 5.525 0 0 1 5.514 5.513 5 5 0 0 1-.316 1.893l-20.465 57.786a5.5 5.5 0 0 1-5.111 3.676h-2.719l-12.701.63h-6.003a5.6 5.6 0 0 1-5.59-5.589c.076-.649.21-1.29.403-1.914z" data-name="Path"/><path fill="#b8d6ff" fill-rule="evenodd" d="m1656.833 404.564-35.484 1.196c-1.087 7.275 3.197 19.422 10.07 21.902l23.337 14.898 2.077-37.952z" data-name="Path"/><path fill="#2e3033" d="m1510.582 454.728 10.026 58.592 71-31.678-1.316-45.922-45.662 10.82-14.779-83.408z" data-name="Path"/><path fill="#43464a" d="m1276.629 926.832 20.454 13.985 36.212 56.025-.239.076a28.46 28.46 0 0 1-23.815-4.958l-51.86-39.148 19.258-25.969zm375.984 36.365-.076.239a28.4 28.4 0 0 1-18.138 16.214l-62.257 18.595-2.718-30.764 20.933-8.069 62.256 3.839z" data-name="Path"/><path fill="#005587" d="M1267.342 920.514c49.065-148.567 57.7-143.543 112.844-205.473 6.71-7.612 10.146-20.215 13.05-35.483 4.947-25.892 8.7-51.621 13.049-75.034 12.31 16.942 31.536 33.004 55.231 68.009-13.05 31.481-24.783 54.655-24.783 54.655l-137.91 214.901-2.631-1.837-20.466-13.985zm235.595-399.343c-.163 6.318-3.904 22.532-8.939 47.946-13.897-27.306-16.192-42.704-16.54-48.827h22.62z" data-name="Path"/><path fill="#007bc0" d="M1406.154 605.002c12.3 16.943 31.482 33.015 55.22 68.01 6.395 9.438 13.05 20.139 20.053 32.688 7.613 13.582 12.952 25.5 12.55 35.647-2.958 82.874 2.794 71.369 64.811 230.234l10.788-4.154 20.944-8.069 5.198-2-47.793-238.587s-3.371-11.962-8.83-29.6c-6.626-21.402-13.251-52.546-23.803-79.754-5.19-13.382-20.598-38.81-21.315-40.322-13.05-27.339-15.899-42.922-16.54-48.837h-84.234c-5.992 46.63-.794 66.203 12.951 84.744" data-name="Path"/><g fill="#005587"><path d="M1496.576 232.932a.28.28 0 0 0-.087-.239c.717.805 1.087 1.36 1.087 1.36s2.643-7.112 1.762-13.344a4.2 4.2 0 0 1-.087-1.033c1.761 4.709 3.523 13.506-3.11 21.097.28-2.6.415-5.214.402-7.83z" data-name="Path"/><path d="M1422.716 233.704c-.88-8.145 10.712-15.104 10.712-15.104s0-6.231 9.787-14.224 20.454-2.632 29.36-3.589c8.907-.957 18.944-3.599 26.1 0 6.709 3.35.717 13.104.793 19.411q-.027.55.087 1.088c.87 6.23-1.761 13.343-1.761 13.343s-.403-.555-1.088-1.36c-1.838-2.174-5.437-6.23-7.993-7.503-3.6-1.762-5.35.87-15.104 3.589-9.755 2.718-19.574-4.47-19.574-4.47 5.35 15.105-3.045 18.063-5.677 22.456a8.2 8.2 0 0 0-1.087 3.839c-3.121-5.285-8.156-11.669-12.223-7.123-5.035 5.524 3.675 19.574 8.069 25.98l-2.001 4.349c-.24 0-17.258-30.21-18.378-40.682z" data-name="Path"/></g><path fill="#b8d6ff" d="M1473.576 297.93a2323 2323 0 0 0 2.795 23.412h-44.118l8.547-47.228 2.001-4.35c-4.35-6.394-13.103-20.466-8.08-25.979 4.166-4.556 9.2 1.838 12.234 7.112a7.35 7.35 0 0 1 1.088-3.828c2.631-4.48 11.027-7.351 5.676-22.456 0 0 9.787 7.112 19.574 4.47s11.593-5.35 15.105-3.6c3.36 1.262 8.014 7.493 8.09 7.612.077.12.066 3.198-.337 7.928a123 123 0 0 1-3.675 22.836c-4.241 15.66-7.754 23.174-7.754 23.174a54 54 0 0 1-12.233 2.197 38 38 0 0 1-11.669-1.088 64.6 64.6 0 0 0 11.908 9.44z" data-name="Path"/><path fill="none" d="m1484.092 309.152-8.395-3.61z" data-name="Path"/><path fill="#979ea4" d="M1523.088 340.34a49.54 49.54 0 0 1 6.96 29.654c.87-10.254-1.762-20.4-6.96-29.654m-43.553 65.246 20.303 128.21h-57.309l9.298-221.208-24.37-7.754 2.317-1.359h43.291l5.829 3.6-14.463 3.36z" data-name="Shape"/><path fill="#43464a" d="M1479.535 405.695s12.734 94.5 12.626 126.894c0 8.95 1.816 36.539 1.816 36.539.717 1.511 1.522 3.11 2.316 4.708 16.16 32.776 32.917 83.44 42.802 115.367l-4.622-78.361-9.787-168.228 5.274-71.445.076-1.088a52.25 52.25 0 0 0-6.948-29.644 70.4 70.4 0 0 0-17.748-20.465l-18.225-14.779-8.221 1.914-14.474 3.36zm-101.88-48.922c2.393-13.343-.094-22.513 15.786-36.108l29.754-17.299 4.35 1.36 24.37 7.612-5.84 386.044-56.417-2.078-39.8-1.837 6.959-98.382c2.686-.108 18.404-225.968 20.838-239.312" data-name="Path"/><path fill="#71767c" fill-rule="evenodd" d="M1433.101 330.085s14.137-10.7 19.02-17.812c.326-.49-14.779-21.26-14.779-21.26l-15.67 10.874c-.076.087 5.84 21.575 11.43 28.209zm51.47 0s-15.345-12.582-20.14-19.737c-.316-.479 8.95-17.4 8.95-17.4l15.104 8.798c0 .163 1.675 21.651-3.915 28.274z" data-name="Shape"/><path fill="#595e62" d="M1549.233 556.108c-31.653-25.465-99.711-89.139-99.711-89.139l-57.72-100.978c-10.473-16.106-17.078-32.3 1.348-44.938l.291-.388c19.886-6.458 43.543 16.031 51.05 27.228 19.308 28.908 40.43 67.744 50.504 86.581 31.469 31.591 83.686 91.922 83.686 91.922z" data-name="Path"/></g></g><g data-name="Ebene 2"><g fill="#007bc0" stroke-width="0" data-name="Ebene 1-2"><path d="M703.485 124.531h233.274v246.873H703.485z"/><path fill-rule="evenodd" d="m703.485 435.814 64.41-64.41-24.304-29.358-40.106 29.358z"/></g></g><path fill="#fff" d="m805.358 193.784 1.206 4.399 9.63 2.861-2.476-9.075c4.602-2.552 7.73-7.463 7.73-13.09 0-8.242-6.705-14.947-14.948-14.947s-14.947 6.705-14.947 14.947c0 7.858 6.096 14.318 13.805 14.905m1.142-21.311c3.534 0 6.406 2.872 6.406 6.406s-2.872 6.406-6.406 6.406-6.406-2.872-6.406-6.406 2.872-6.406 6.406-6.406m18.418 69.015-6.876-1.217-3.545-12.994 9.63 2.872.727 2.648 4.452.79zm47.128 7.805-20.404-3.139 4.42-7.954 17.286 2.658zm-97.726-60.698-3.854-10.357 8.007-2.989 6.108 16.4zm33.355 65.086 10.474-.01-4.752 8.552-11.659.01-16.218-43.572 10.25 3.054zm79.425 8.787-3.171 7.923-20.596-8.232-20.595.021 4.75-8.541 17.49-.022zm-59.171-8.808 5.883-10.591 4.388-7.901 5.135-9.247 7.474 4.143-3.715 6.684-4.378 7.89h-.01l-4.997 9.011-4.751 8.542-2.467 4.441-7.463-4.142.15-.278h.01zm-47.982-54.324 8.413 2.477 20.863 6.14 9.63 2.84 12.343 3.63-1.207 4.1-1.206 4.089h-.01l-7.282-2.146-9.62-2.83-19.785-5.819-10.239-3.01-4.313-1.271 1.697-5.766zm-6.657 82.24-11.66-101.051-8.485.979 12.783 110.786.01.078-.01-.068c.032 4.761 1.58 8.787 4.27 11.701v26.49h81.145v-23.639c5.104-2.936 8.542-8.435 8.542-14.702 0-4.153-1.26-8.766-3.887-12.695-2.637-3.918-6.64-7.153-12.16-8.53-1.538-.385-3.375-.673-5.467-.887-4.56-.459-10.293-.512-16.517-.17-17.35.971-38.47 4.996-48.559 11.712m-7.335 10.965v-.002m76.842 29.406H778.74v-12.812h64.062zm0-21.353h-59.79c-3.14 0-8.36-1.057-8.532-8.083.289-1.121 1.506-2.456 3.46-3.769 9.993-6.726 34.956-10.602 51.654-10.602 5.008 0 9.268.342 12.172 1.068 6.577 1.644 9.577 7.858 9.577 12.94 0 4.655-3.833 8.445-8.541 8.445"/></svg>