<svg xmlns="http://www.w3.org/2000/svg" viewBox="0 0 457 617"><g fill="none"><path fill="#C1C7CC" d="m222.527 615.83-83.29-83.28V258.71l58.74-58.74a8.874 8.874 0 0 0-12.55-12.55l-46.19 46.19V121.1l58.74-58.75a8.874 8.874 0 1 0-12.55-12.55L139.237 96V13.31C139.043 6.4 133.385.897 126.472.897S113.9 6.399 113.707 13.31v128.83l-47.27-47.27a8.881 8.881 0 1 0-12.57 12.55l59.82 59.82v365.31l-83.27 83.28h25.1l61.86-61.87.22.22v61.65h17.75v-61.65l.22-.22 61.86 61.87z"/><path fill="#C1C7CC" d="m232.527 476.63-68.83-13.16-7.46-252.85a23.76 23.76 0 0 1 5.52-16.15l19.83-22.77c6.09-7 15.43-8 22.49-2.47 0 0 27.74 17.84 31 49.38 3.02 29.23 7.95 152.25-2.55 258.02"/><path fill="#D0D4D8" d="M246.077 231.35c-3.13-21-16.36-42.83-34.23-39.9-16.26 2.66-28.39 18.81-28.42 41.06-.07 50.69 15.38 183.09 15.38 183.09l50.06 10.26s4.75-143.8-2.79-194.51M18.707 387.11l68.83-13.15 7.46-252.85a23.8 23.8 0 0 0-5.52-16.15l-19.83-22.77c-6.09-7-15.43-8-22.49-2.47 0 0-27.74 17.83-31 49.38-3.02 29.23-7.95 152.25 2.55 258.01"/><path fill="#C1C7CC" d="M5.147 141.84c3.13-21 16.36-42.83 34.24-39.9 16.26 2.66 28.39 18.81 28.42 41.06.06 50.69-15.39 183.09-15.39 183.09l-50.1 10.26s-4.71-143.8 2.83-194.51m428.4 473.99h-124.27l-22.51-179.88h168.37z"/></g></svg>