<svg xmlns="http://www.w3.org/2000/svg" data-name="Ebene 1" viewBox="0 0 1920 1080"><defs><clipPath id="a"><path fill="none" stroke-width="0" d="M0 0h1920v1080H0z"/></clipPath></defs><g stroke-width="0" clip-path="url(#a)"><path fill="#eff1f2" d="M-162.09-46.064h2797.752v1581.798H-162.09z"/><path fill="#d0d4d8" d="M638.314 390.103v-37.828a53.134 53.134 0 0 1-41.033-81.344c-1.04-5.074-2.27-11.614-2.27-13.946 0-26.075 47.202-105.78 47.202-105.78s47.226 79.705 47.226 105.78c0 2.27-1.37 8.534-2.526 13.541a53.14 53.14 0 0 1-40.778 81.749v37.105c83.142-6.679 160.433 23.295 251.597-22.86 208.39-105.535 385.25-37.79 508.095 51.514a834 834 0 0 1 154.944-14.457c101.15.091 183.249 23.839 263.312 49.622V420.43a53.134 53.134 0 0 1-41.033-81.343c-1.036-5.075-2.27-11.614-2.27-13.946 0-26.076 47.226-105.78 47.226-105.78s47.201 79.704 47.201 105.78c0 2.27-1.368 8.534-2.525 13.54a53.138 53.138 0 0 1-40.778 81.75v36.435c76.992 17.367 595.386-94.996 811.055 72.788l11.285 949.549-2851.401-433.579V526.043c100.099-155.652 760.262-127.767 835.471-135.94"/><path fill="#383b3e" d="m281.98 585.24-54.68-4.434-28.835-50.85a60.05 60.05 0 0 0-52.237-30.43H-.312a60.05 60.05 0 0 0-54.362 34.536l-15.072 32.11a60.05 60.05 0 0 0-2.432 45.03c8.333 24.254 31.148 40.539 56.793 40.539H172.62l99.014 20.689z"/><path fill="#c1c7cc" d="m185.991 561.774-15.368-22.944c-6.534-9.755-18.757-15.784-32.003-15.784H2.346c-14.265 0-27.244 6.981-33.305 17.914l-18.043 32.544c-4.062 7.326-4.596 15.703-1.49 23.357l4.621 11.387c5.106 12.58 19.083 21.027 34.795 21.027H134.88c11.41 0 22.173-4.482 29.139-12.133l19.108-20.987c9.04-9.928 10.168-23.476 2.864-34.38"/><path fill="#fff" d="M130.708 523.047 92.062 629.274H69.165l38.668-106.227zM81.923 523.198 43.32 629.274h-9.84l38.646-106.227h6.322c1.173 0 2.324.043 3.476.151M949.272 576.347h-37.86L1115.27 16.25h37.86zM1131.136 538.389h-20.538l184.389-506.606h20.538zM862.056 538.389h-20.538l184.39-506.606h20.537z"/><path fill="#383b3e" d="m2194.574 1109.37-668.45 430.377-582.72 1.058-684.69-409.763 6.393-549.281 866.047-73.38a1230 1230 0 0 1 208.975.106l854.445 73.274z"/><path fill="#7d8389" d="m2192.155 1136.352-668.449 430.377-582.721 1.059-684.69-409.764 6.394-549.28 866.047-73.381a1230 1230 0 0 1 208.974.106l854.445 73.274z"/><path fill="#7d8389" d="M2194.44 825.97s10.934 58.102-45.365 107.153c-21.86 19.045-50.639 28.19-79.567 26.257-95.502-6.382-362.03-21.093-501.01 2.514-80.291 13.642-131.45 73.425-163.166 133.079-31.282 58.892-46.88 124.844-46.88 191.536v117.915l-26.893 151.63-206.917.39-26.937-151.977V1286.51c0-66.692-15.598-132.644-46.88-191.536-31.716-59.654-82.897-119.437-163.165-133.08-171.268-29.087-536.137 0-536.137 0a425.3 425.3 0 0 1-84.96 189.886l-7.994-4.78 3.736-321.138 14.012-10.405s38.298-4.78 71.188-12.513c32.889-7.755 75.033-36.191 75.033-36.191s276.692 9.688 390.85 17.422c35.626 2.411 89.305 11.99 146.35 24.026a1300.8 1300.8 0 0 0 537.115 0c57.046-12.035 110.725-21.615 146.33-24.026 114.157-7.734 390.85-17.422 390.85-17.422s42.143 28.436 75.032 36.19c32.911 7.735 71.21 12.514 71.21 12.514z"/><path fill="#43464a" d="M378.966 110.11s-72.34 65.158-79.397 80.813c-5.348 11.863-5.615 29.12-5.18 35.218 3.364 47.148 192.74 336.73 192.74 336.73a301.37 301.37 0 0 1-107.684 157.227l-117.157 103.88-4.558-235.658S170.17 352.583 72.508 258.288s-158.28-124.604-158.28-124.604l-33.677-23.573z"/><g fill="#383b3e"><path d="m259.76 667.152-447.075 244.927 3.408 644.936 517.576-297.192 18.255-311.7-67.402-57.112z"/><path d="m284.522 891.011-481.68 443.971v242.632l421.89-315.06 148.263-299.287z"/></g><path fill="#2e3033" d="m276.17 815.56-13.86 10.296-464.731 345.296V1030.86l465.73-289.183 3.998-2.477s.152.022.435.087z"/><path fill="#71767c" d="M2659.024 1030.86v140.292l-464.58-345.188-14.163-10.513s-38.299-4.78-71.21-12.513c-32.89-7.756-75.033-36.191-75.033-36.191s-276.692 9.688-390.85 17.422c-35.605 2.41-89.284 11.99-146.33 24.026a1300.85 1300.85 0 0 1-537.114 0c-57.046-12.035-110.725-21.615-146.351-24.026-114.157-7.734-390.85-17.422-390.85-17.422s-9.015 6.06-21.941 13.381c-15.033 8.494-35.409 18.639-53.092 22.81-32.889 7.733-71.188 12.513-71.188 12.513l-.152.108-8.428-76.271c3.822.652 32.454 4.562 77.4-17.031a635 635 0 0 0 10.819-5.301c42.143-20.985 68.71-38.755 68.71-38.755s330.677-8.19 408.078-12.056c52.94-2.65 218.517-45.794 317.88-53.57a991.4 991.4 0 0 1 155.323 0c99.364 7.776 264.94 50.92 317.88 53.57 77.402 3.867 408.099 12.056 408.099 12.056s31.13 20.833 79.508 44.056 77.835 16.944 77.835 16.944l5.17 3.215z"/><path fill="#43464a" d="M2104.771 945.933s-364.877-29.082-536.139 0c-80.279 13.633-131.447 73.416-163.157 133.088-31.29 58.884-46.88 124.84-46.88 191.522v123.189l1038.626-39.593-144.494-151.044c-8.869-9.272-18.005-18.28-27.155-27.275a425.44 425.44 0 0 1-120.8-229.886m-1006.937 407.201v40.6l-1038.623-39.6 115.569-120.826 28.913-30.218c8.886-9.275 18.01-18.27 27.155-27.263 63.15-62.085 105.468-142.42 120.805-229.9 0 0 364.89-29.066 536.136 0 31.304 5.322 58.176 17.64 81.181 34.237 6.017 9.254 46.076 73.555 53.896 157.147 4.084 43.513 2.933 75.012.63 96.019l3.454-.022c25.09 0 46.554 17.987 50.942 42.686l12.491 70.45 6.93 7.582z"/><path fill="#2e3033" d="M1358.594 1270.373v82.592l.522.891s50.547 90.98 83.556 105.48c25.162 11.053 32.722-53.427 43.575-53.427l1.211-72.895c-2.303-21.007-60.467-118.652-53.896-195.872 7.118-83.655 47.879-147.893 53.896-157.148-36.04 26.003-62.629 62.455-81.984 98.864-31.282 58.87-46.88 124.845-46.88 191.515m-260.759 0v82.592l-.521.891s-27.822 98.906-58.103 112.512c-27.51 12.36-57.085-60.459-69.029-60.459l-1.211-72.895c2.303-21.007 60.467-118.652 53.896-195.872-7.118-83.655-47.879-147.893-53.896-157.148 36.04 26.003 62.63 62.455 81.985 98.864 31.282 58.87 46.88 124.845 46.88 191.515M2651.372-51.248v187.213L1314.31 78.528a1827 1827 0 0 0-157.344 0l-1337.04 57.437V-51.248z"/><path fill="#4e5256" d="M2084.778 873.126c-41.324-13.148-69.679-48.244-69.679-48.244s-470.753 27.818-557.513 59.952-207.26 36.953-207.26 36.953l-43.403.124s-120.5-4.82-207.26-36.953-557.514-59.952-557.514-59.952-28.354 35.096-69.678 48.244c-35.323 11.24-87.786 17.885-87.786 17.885s34.878 55.199 59.064 63.26c24.186 8.063 602.2 18.055 649.266 35.05 103.395 37.338 106.262 56.18 217.122 56.18 7.19 0 30.074-.125 36.975-.125 110.86 0 113.727-18.841 217.123-56.178 47.064-16.996 625.08-26.988 649.265-35.05 24.187-8.062 59.064-63.26 59.064-63.26s-52.463-6.647-87.786-17.886"/><circle cx="1226.932" cy="981.733" r="40.664" fill="#b2b9c0"/><circle cx="1147.506" cy="981.733" r="26.406" fill="#b2b9c0"/><circle cx="1306.358" cy="981.733" r="26.406" fill="#b2b9c0"/><path fill="#eff1f2" d="M1451.063 653.456v144.592a1116.4 1116.4 0 0 1-423.072 3.73V649.614c47.259-9.325 96.96-18.426 135.211-21.428a851 851 0 0 1 133.347 0c43.51 3.412 101.81 14.714 154.514 25.27"/><path fill="#b2b9c0" d="M1519.985 665.88v119.306a2285 2285 0 0 0-23.708 4.867 1050 1050 0 0 1-35.39 6.816V654.077c20.428 3.98 40.566 8.096 59.098 11.803m-560.916 0v119.306a2285 2285 0 0 1 23.707 4.867 1050 1050 0 0 0 35.39 6.816V654.077c-20.427 3.98-40.565 8.096-59.098 11.803"/><g fill="#eff1f2"><rect width="43.372" height="12.555" x="1468.75" y="678.013" rx="2.89" ry="2.89"/><rect width="43.372" height="12.555" x="1468.75" y="697.685" rx="2.89" ry="2.89"/><rect width="43.372" height="12.555" x="1468.75" y="717.358" rx="2.89" ry="2.89"/><rect width="43.372" height="12.555" x="1468.75" y="737.031" rx="2.89" ry="2.89"/><rect width="43.372" height="12.555" x="1468.75" y="756.704" rx="2.89" ry="2.89"/><rect width="43.372" height="12.555" x="966.799" y="679.903" rx="2.89" ry="2.89"/><rect width="43.372" height="12.555" x="966.799" y="699.575" rx="2.89" ry="2.89"/><rect width="43.372" height="12.555" x="966.799" y="719.248" rx="2.89" ry="2.89"/><rect width="43.372" height="12.555" x="966.799" y="738.921" rx="2.89" ry="2.89"/><rect width="43.372" height="12.555" x="966.799" y="758.594" rx="2.89" ry="2.89"/></g><circle cx="1226.932" cy="981.733" r="30.427" fill="#eff1f2"/><circle cx="1147.506" cy="981.733" r="19.983" fill="#eff1f2"/><circle cx="1306.358" cy="981.733" r="19.983" fill="#eff1f2"/><path fill="#2e3033" d="M213.08 906.128s24.141 31.99-4.375 57.128c-59.824 52.736-107.137 35.178-107.137 35.178z"/></g><g data-name="Ebene 2"><g fill="#007bc0" stroke-width="0" data-name="Ebene 1-2"><path d="M1006.442 347.885h233.515v247.128h-233.515z"/><path fill-rule="evenodd" d="m1239.957 659.49-64.477-64.477h64.477z"/></g></g><path fill="#fff" d="M1184.137 440.98h-19.043c2.38-3.141 3.808-7.14 3.808-11.425 0-10.474-8.569-19.043-19.043-19.043-8.283 0-16.09 3.904-21.994 10.854-1.81 2.19-3.428 4.666-4.666 7.237-1.237-2.571-2.856-5.047-4.665-7.237-5.903-6.95-13.71-10.854-21.995-10.854-10.473 0-19.042 8.57-19.042 19.043 0 4.285 1.428 8.284 3.808 11.426h-19.043v30.468h3.809v60.937h114.257V471.45h3.809zm-7.618 22.852h-38.085v-15.234h38.085zm-26.66-45.703c6.285 0 11.426 5.142 11.426 11.426s-5.141 11.426-11.426 11.426h-22.565c1.618-11.426 10.473-22.852 22.565-22.852m-64.745 11.426c0-6.284 5.141-11.426 11.425-11.426 12.093 0 20.948 11.426 22.566 22.852h-22.566c-6.284 0-11.425-5.142-11.425-11.426m-15.235 19.043h38.086v15.234h-38.086zm38.086 76.171h-34.277v-53.32h34.277zm22.852 0h-15.235v-76.171h15.235zm41.894 0h-34.277v-53.32h34.277z"/><path fill="#c1c7cc" d="M497.268 775.736 427.91 862.57l-16.181 54.003-16.038 31.76 51.411 42.22 23.482-52.807s47.118-29.725 60.649-65.479c5.203-13.748 7.309-35.36 6.563-46.221-.052-.767-.035-1.534-.076-2.295-.927-17.427-11.473-32.907-26.948-40.975z"/><g stroke-width="0"><path fill="#b2b9c0" d="m1055.994 805.522 26.028-33.145 31.937 5.813z"/><path fill="#c1c7cc" d="M1141.763 797.539c-.469 1.675-.65 2.993-.33 3.684 3.927 7.49 8.205 16.763 11.167 24.63 6.017 17.393-16.85 38.333-17.775 39.176l-.045.04-70.667-34.464-5.132-12.746-2.987-12.337 26.235-15.8 76.923-47.764s3.03 5.683 7.717 14.273c1.336 2.576-23.191 34.472-25.106 41.308"/><path fill="#e0e2e5" d="M1135.297 864.835c-10.084 8.212-46.774 34.854-48.852 38.817a1793 1793 0 0 0-8.649 16.954l-59.697-29.224 16.305-24.503 21.464-60.978.065-.235.06-.144.116.078 71.918 53.833z"/><path fill="#0096e8" d="M1086.292 917.457c-28.2 55.78-54.21 112.11-75.44 162.54h-125.2l.8-1.2 10.61-15.94 35.11-52.78.07-.1 84.28-126.67 5.24 2.57 59 28.88h.01z"/></g><path fill="#232628" stroke="#232628" stroke-miterlimit="10" stroke-width="9" d="M635.37 497.883c-117.03 0-212.239 95.21-212.239 212.24s95.21 212.238 212.24 212.238 212.239-95.21 212.239-212.239-95.21-212.239-212.24-212.239Zm0 21.224c83.998 0 155.453 54.522 180.97 130.016-49.096-15.29-113.307-23.896-180.97-23.896-67.44 0-131.85 8.603-180.962 23.876 25.523-75.484 96.972-129.996 180.962-129.996ZM445.56 731.33c26.984.096 72.512 1.873 101.363 22.205 33.612 23.686 35.299 70.24 35.382 140.045-73.015-21.154-128.142-84.764-136.744-162.25Zm242.876 162.25c.083-69.806 1.77-116.359 35.382-140.045 28.85-20.329 74.388-22.096 101.362-22.2-8.604 77.483-63.73 141.09-136.744 162.245ZM635.37 678.286c-17.554 0-31.835 14.282-31.835 31.836s14.281 31.836 31.835 31.836 31.836-14.282 31.836-31.836-14.282-31.836-31.836-31.836Z"/><path fill="#232628" stroke="#232628" stroke-miterlimit="10" stroke-width="9" d="M635.37 497.883c-117.03 0-212.239 95.21-212.239 212.24s95.21 212.238 212.24 212.238 212.239-95.21 212.239-212.239-95.21-212.239-212.24-212.239Zm0 21.224c83.998 0 155.453 54.522 180.97 130.016-49.096-15.29-113.307-23.896-180.97-23.896-67.44 0-131.85 8.603-180.962 23.876 25.523-75.484 96.972-129.996 180.962-129.996ZM445.56 731.33c26.984.096 72.512 1.873 101.363 22.205 33.612 23.686 35.299 70.24 35.382 140.045-73.015-21.154-128.142-84.764-136.744-162.25Zm242.876 162.25c.083-69.806 1.77-116.359 35.382-140.045 28.85-20.329 74.388-22.096 101.362-22.2-8.604 77.483-63.73 141.09-136.744 162.245ZM635.37 678.286c-17.554 0-31.835 14.282-31.835 31.836s14.281 31.836 31.835 31.836 31.836-14.282 31.836-31.836-14.282-31.836-31.836-31.836Z"/><path fill="#e0e2e5" d="m504.913 815.504-4.873-17.742-62.406 25.02-16.018 60.678z"/><path fill="#003e64" d="M611.132 1079.997h-159.13c26.04-28.37 54.65-53.09 79.39-59.46 1.02-.25 2.05-.52 3.07-.73 46.78-10.28 77.67 11.2 76.67 60.19"/><path fill="#56b0ff" d="m472.502 951.737-52.02 128.26h-120.4l97.22-145.02z"/><path fill="#003e64" d="M807.212 1079.997h-154.43c23.16-33.19 53.33-62.01 88.52-62.83 23.01-.54 42.62 6.99 53.41 21.79 6.89 9.44 10.66 24.33 12.5 41.04"/><g stroke-width="0"><path fill="#fff" d="M463.452 265.847c0 63.55-30.243 120.026-77.121 155.838a195.7 195.7 0 0 1-29.285 18.53c-.09.049-.18.089-.27.139-26.781 13.74-57.144 21.493-89.324 21.493-33.786 0-65.566-8.552-93.305-23.599a193 193 0 0 1-19.338-11.993.2.2 0 0 1-.08-.05 196.9 196.9 0 0 1-42.786-41.03 197 197 0 0 1-15.655-23.768c-15.826-28.268-24.836-60.866-24.836-95.56 0-108.243 87.747-196 196-196 108.243 0 196 87.757 196 196"/><path fill="#004975" d="M212.901 273.22h4.613v3.625z"/><path fill="#d0d4d8" d="M254.815 254.448c8.785 2.62 17.885 3.1 25.994 2.616.933 8.848 1.683 16.44 2.224 22.289a135.7 135.7 0 0 1-28.218-24.905"/><path fill="#d0d4d8" d="M283.15 277.776c2.7 22.14 7.378 50.094 7.378 50.094l-77.59-9.203 8.509-95.279s-.622-4.984-.6-5.565c-4.572-5.54-20.482-17.714-18.208-31.924.959-5.992-.957-9.894 2.726-13.742 8.288-8.665 20.093-18.775 27.101-8.262-8.48-23.08-.188.9 0 0a147 147 0 0 0 2.588-25.106s27.174.057 57.402-1.706c30.015-1.75 26.78 25.286 36.545 22.036a244 244 0 0 1-4.422 37.037 195 195 0 0 1-3.465 14.467c-8.456 29.983-15.475 44.368-15.475 44.368a107.3 107.3 0 0 1-24.551 4.203 77.7 77.7 0 0 1-24.073-2.18 122.6 122.6 0 0 0 26.135 20.762"/><path fill="#757f89" d="M334.126 141.18a16 16 0 0 0-.01-2.065c-.02-.37-.06-.749-.1-1.138l-.09-.628c-.03-.22-.07-.43-.11-.649q-.06-.375-.15-.748a25 25 0 0 0-.389-1.547c-.04-.13-.07-.25-.11-.38a26 26 0 0 0-.368-1.167c-.07-.18-.13-.359-.2-.538-.16-.45-.34-.898-.529-1.347-.13-.3-.26-.6-.399-.908a33 33 0 0 0-1.287-2.515q-.24-.435-.509-.868a35 35 0 0 0-1.876-2.824 35 35 0 0 0-1.447-1.866 37 37 0 0 0-.838-.978c-.24-.279-.489-.548-.748-.828-.23-.26-.47-.509-.719-.758-.24-.25-.489-.499-.738-.738a37 37 0 0 0-1.587-1.477 20 20 0 0 0-.838-.729c-.289-.24-.578-.489-.868-.718s-.588-.469-.898-.699a50.5 50.5 0 0 0-6.975-4.48 61 61 0 0 0-1.446-.738c-.44-.23-.899-.44-1.347-.649-.43-.2-.858-.389-1.307-.588-.44-.19-.889-.38-1.337-.57-.5-.199-.998-.398-1.517-.588h-.01a40 40 0 0 0-1.756-.628 74 74 0 0 0-1.567-.52 63 63 0 0 0-2.634-.768c-.479-.13-.958-.26-1.447-.379a71 71 0 0 0-2.315-.539 34 34 0 0 0-1.088-.22 45 45 0 0 0-1.746-.328l-1.047-.18c-.699-.12-1.417-.23-2.146-.32-.01-.01-.03-.01-.05-.01-.04-.01-.09-.01-.13-.02a66 66 0 0 1-3.572-.568c-1.396-.25-2.813-.529-4.24-.828l-.06-.01c-4.54-.928-9.24-2.006-14.06-2.634-.009-.01-.009 0-.009 0-9.719-1.268-19.896-.699-30.084 6.465-18.22 12.822-19.038 23.788-19.038 23.788s-18.49 10.916-20.715 25.225c-1.537 9.908 1.597 23.419 4.6 30.134.12.27.24.529.36.768 0 .01.01.01.01.02 1.396-2.485 2.853-4.18 4.34-5.219 7.862-5.517 16.623 7.195 22.61 18.14a210 210 0 0 1 3.782 7.295c.459.928.878 1.786 1.257 2.554.32.649.609 1.237.868 1.736l-.459 2.345-2.874 14.798c-2.105 8.68-4.62 19.377.18 26.9 7.214 11.276 29.715 10.198 33.666 14.768 5.907 6.855 1.197 9.998 6.776 10.128a64 64 0 0 0 9.508-.479h.01c.22-.02.44-.05.67-.08.099-.01.189-.02.289-.04 12.392-1.696 26.082-7.204 33.715-19.766 11.285-18.61 2.994-39.853 2.226-41.729v-.01c-.04-.08-.06-.13-.06-.13s.658-5.208-25.754-3.99c-23.459 1.077-39.004 7.144-43.245 8.6-.529.19-.888.3-1.058.32a19 19 0 0 1-3.222.12h-.01c-5.339-.28-7.284-2.974-7.284-2.974l-.66-3.941-.748-4.44-2.265-13.511v-.05l-3.212-19.058-.839-5c2.475-1.645 5.957-3.79 6.805-4.978 5.26-7.484 23.26 2.494 15.855-24.826 0 0 13.172 11.196 28.598 10.926.868-.02 1.736-.07 2.604-.16.439-.04.868-.1 1.298-.159.428-.06.857-.14 1.286-.22 17.542-3.422 21.014-7.892 27.031-4.29 4.35 2.604 10.218 10.257 13.121 14.289a3.94 3.94 0 0 1 .3 3.512s.36-.659.898-1.796c.36-.749.788-1.706 1.267-2.824q.165-.42.36-.868.18-.45.358-.928c.11-.27.22-.559.33-.848.1-.27.2-.539.299-.818.09-.25.18-.5.26-.749.08-.21.15-.419.219-.638.11-.34.22-.679.33-1.028.15-.46.289-.938.428-1.417.13-.479.26-.958.39-1.447l.179-.748c.12-.5.23-.998.34-1.507.19-.948.359-1.916.488-2.884.01-.06.02-.12.02-.18.06-.518.11-1.037.16-1.546.02-.26.03-.519.05-.778l.03-.768c.02-.54.02-1.068 0-1.607 0-.28-.02-.549-.04-.828-.04-.629-.04-1.267.01-1.896m-66.255 87.668q0-1.158 2.195-4.201s37.368 5.199 47.397-3.313v1.627c-9.53 18.629-25.146 20.395-36.301 16.883-2.774-.868-5.239-2.056-7.304-3.403l-.04-.02c-3.662-2.385-5.947-5.238-5.947-7.563z"/><path fill="#007bc0" d="M357.045 440.214a195.7 195.7 0 0 0 29.286-18.53l-22.97-56.046-.808-1.976c3.602 16.624.23 36.39-3.093 56.636l-2.684 20.056z"/><path fill="#0096e8" d="M154.81 426.255a193 193 0 0 0 19.337 11.993c27.739 15.047 59.52 23.599 93.305 23.599 32.18 0 62.543-7.753 89.324-21.493.09-.05.18-.09.27-.14l2.674-19.966c3.073-19.437 6.685-38.346 3.642-54.61q-.15-.827-.33-1.637a44.37 44.37 0 0 0-18.609-28.058l-26.252-18.62-26.223-18.608-3.791-2.685-1.896 4.51-10.577 25.095-60.707-29.774-8.631-4.23-81.391 37.487c-.27.12-.55.24-.819.379l-.27.12v.01l3.513 15.356 3.922 11.645 23.428 69.577z"/><path fill="#002c50" d="M154.73 426.205a196.9 196.9 0 0 1-42.787-41.03c4.85-29.146 9.878-44.602 9.878-44.602l1.587-6.795 3.961 11.205 3.932 11.644 23.508 69.628z"/><path fill="#0088d4" d="M154.81 426.255a193 193 0 0 0 19.337 11.993c2.275-11.884 4.45-23.767 6.396-35.202 3.602-20.974 3.602-69.129-32.47-77.22-9.04-.6-16.493.328-23.118 3.292-.27.12-.55.24-.819.379-.09.04-.18.08-.27.13-10.157 4.949-18.409 14.897-27.579 31.78a197 197 0 0 0 15.656 23.768 196.9 196.9 0 0 0 42.786 41.03z"/><path fill="#56b0ff" d="M311.721 384.01c-4.53 21.01-19.03 55.432-19.03 55.432s-30.208-63.102-51.556-90.852c-23.224-30.048-48.027-45.057-52.765-47.826l17.974-9.134 6.534-18.41 61.156 45.861 9.703-37.61 1.942-.744 6.267 17.99 26.224 18.603s-.266 37.965-6.449 66.693z"/><ellipse cx="219.847" cy="194.423" fill="#004975" rx="15.148" ry="26.03"/><path fill="#004975" d="M210.47 171.286c-1.28-42.228 31.075-71.63 63.477-72.305 23.119-.483 47.608 14.457 56.264 36.152-7.213-17.353-31.702-33.742-54.821-33.26-32.403.676-60.43 27.185-59.15 69.413zM228.761 203.736l33.645 28.286 18.755 7.23v4.339h-1.443l-15.87-5.785-35.896-31.23z"/><ellipse cx="215.519" cy="194.423" fill="#0096e8" rx="14.306" ry="24.583"/><path fill="#757f89" d="M285.877 102.975c1.206.217 2.396.413 3.576.57 33.692 4.524 45.38 26.507 44.672 37.636a15 15 0 0 0-.01 1.9c.753 11.074-6.36 24.205-6.36 24.205a3.95 3.95 0 0 0-.3-3.511c-2.911-4.038-8.773-11.694-13.127-14.292-6.018-3.6-9.488.865-27.027 4.289-1.712.332-3.45.513-5.194.54z"/></g><g fill="#007bc0" stroke-width="0"><path d="M1110.661 266.898h-8.037v-3h8.037zm-16.074 0h-8.037v-3h8.037zm-16.075 0h-8.037v-3h8.037zm-16.074 0h-8.037v-3h8.037zm-16.075 0h-8.037v-3h8.037zm-16.074 0h-8.037v-3h8.037zm-16.075 0h-8.037v-3h8.037zm-16.074 0h-8.037v-3h8.037zm-16.075 0h-8.037v-3h8.037zm-16.074 0h-8.037v-3h8.037zm-16.075 0h-8.037v-3h8.037zm-16.074 0h-8.037v-3h8.037zm-16.074 0h-8.038v-3h8.038zm-16.075 0h-8.037v-3h8.037zm-16.074 0h-8.038v-3h8.038zm-16.075 0h-8.037v-3h8.037zm-16.074 0h-8.038v-3h8.038zm-16.075 0h-8.037v-3h8.037zm-16.074 0h-8.038v-3h8.038zm-16.075 0h-8.037v-3h8.037zm-16.074 0h-8.038v-3h8.038zm-16.075 0h-8.037v-3h8.037zm-16.075 0h-8.037v-3h8.037zm-16.074 0h-8.037v-3h8.037zm-16.075 0h-8.037v-3h8.037zm-16.074 0h-8.037v-3h8.037zm-16.075 0h-8.037v-3h8.037zm-16.074 0h-8.037v-3h8.037zm-16.075 0h-8.037v-3h8.037zm-16.074 0h-8.037v-3h8.037zm-16.075 0h-8.037v-3h8.037zm-16.074 0h-8.037v-3h8.037zm-16.075 0h-8.037v-3h8.037zm-16.074 0h-8.038v-3h8.038zm-16.075 0h-8.037v-3h8.037zm-16.074 0h-8.037v-3h8.037zm-16.075 0h-8.037v-3h8.037zm-16.074 0h-8.037v-3h8.037zm-16.075 0h-8.037v-3h8.037zm-16.074 0h-8.037v-3h8.037zm-16.075 0h-8.037v-3h8.037zm-16.074 0h-8.037v-3h8.037zm-16.075 0h-8.037v-3h8.037zm-16.074 0h-8.037v-3h8.037zm-16.074 0h-8.038v-3h8.038zM1124.198 269.398h-3v-2.5h-2.5v-3h5.5zM1124.198 339.804h-3v-8.8h3zm0-17.601h-3v-8.801h3zm0-17.602h-3v-8.8h3zm0-17.601h-3v-8.8h3z"/></g></svg>