<svg xmlns="http://www.w3.org/2000/svg" data-name="Ebene 1" viewBox="0 0 1090.587 1064.789"><path fill="none" d="m509.645 787.708 1.076 1.37-.733-.949-.343-.42zm42.372-54.329-.937-2.446 1.274 3.32zm-36.704 78.072.258-.252.908-.916zm10.747 15.05.047-.156.35-1.307zm74.183-95.045-3.137.55 8.493-1.485zM490.004 298.522l-2.224-2.666.012.018zM388.699 747.698l.164-1.917-.194 2.25zm-43.902-36.016 1.954-.493-.058.016zm20.123 31.17-4.397 1.37 4.324-1.347zm150.363-28.477-.745-3.48.775 3.618zM387.196 744.65l-1.359-.918 3.026 2.049zm91.184 20.905-.072-.623-.523-4.46zm-38.952.39 3.113-4.486.006-.01zm-82.794 6.461 3.131 1.178-2.918-1.097zm270.686 5.68-2.158-3.786-.186-.325zm174.001 212.942-12.026-1.479-.697-.083zm50.438-77.546-.307.08-3.005.878zm17.46-29.932.024.028-6.07-9.196zM739.29 1007.971l.973-10.941-.45 5.042zm107-138.668v-.005l-.517-.83zM740.558 985.982l1.07.1-.715-.076zm3.612-2.74 1.37.099-1.226-.09zM399.694 756.948l2.74-3.326-.071.08-2.67 3.246zm-240.225 303.997-.075 3.844.075-3.787zm391.514-435.251 2.345 3.808-.638-1.031zm-2.578 89.038 2.578.168-2.938-.192zm47.535-154.904-2.704-.4-4.051-.583zm-51.496 165.816.577-.38-3.612 2.345zm-39 47.995 1.761.976-.288-.171zm99.379-190.503-1.088.255-2.241.529 3.33-.784z"/><path fill="#006a99" d="m533.734 838.393.613 1.216.228.449z"/><path fill="#8bc4ff" d="m520.277 767.781-2.061-.691-3.228 2.726-.817 1.277-2.26-.324-3.12 1.59-1.874 2.085.288.171 1.659 4.003.781 3.52 1.37 1.171 2.53.59v1.075h-1.261l-2.639.976.343 2.18.733.949 1.178-.88 1.647.093-.379 3.518-2.74 4.105.102 1.864 3.906 3.122 2.044.099 1.574 1.662-.985 1.556-2.338-1.265-1.274.878v2.93l3.023 3.522-.908.916 2.867 2.798v2.146l1.268 1.463h3.03l2.157 2.059 3.408.577.204 3.038-2.049 1.758-.35 1.307 1.023.718 1.815 3.044 1.226.286 2.782 1.815.83 2.01-.048 4.175.841 1.665 1.076-1.121-.15-2.167 3.173-1.767 2.831-.784 2.248-1.656 5.278-1.275 2.536.4 3.81-.886h2.158l.871-2.443-1.76-2.738-.29-2.242 4.797-4.402.878-2.735-1.87-3.519-3.9-4.009-1.365-5.467 2.146-2.154-.74-2.578-.823-2.897-.396-2.047 2.254-2.539-4.695-.983-2.248 3.033-2.151-1.954-2.83 1.169-1.275-2.248-4.478-1.478-.54-1.418 1.568-3.387-3.576-2.702-3.522-1.857-.89-2.404-4.345-5.148-.83-1.713-2.494-.86-1.917-.666z"/><path fill="none" d="m509.645 787.708 1.076 1.37-.733-.949-.343-.42zm42.372-54.329-.937-2.446 1.274 3.32zm-36.704 78.072.258-.252.908-.916zm10.747 15.05.047-.156.35-1.307zm74.183-95.045-3.137.55 8.493-1.485zM490.004 298.522l-2.224-2.666.012.018zM388.699 747.698l.164-1.917-.194 2.25zm-43.902-36.016 1.954-.493-.058.016zm20.123 31.17-4.397 1.37 4.324-1.347zm150.363-28.477-.745-3.48.775 3.618zM387.196 744.65l-1.359-.918 3.026 2.049zm91.184 20.905-.072-.623-.523-4.46zm-38.952.39 3.113-4.486.006-.01zm-82.794 6.461 3.131 1.178-2.918-1.097zm270.686 5.68-2.158-3.786-.186-.325zm174.001 212.942-12.026-1.479-.697-.083zm50.438-77.546-.307.08-3.005.878zm17.46-29.932.024.028-6.07-9.196zM739.29 1007.971l.973-10.941-.45 5.042zm107-138.668v-.005l-.517-.83zM740.558 985.982l1.07.1-.715-.076zm3.612-2.74 1.37.099-1.226-.09zM399.694 756.948l2.74-3.326-.071.08-2.67 3.246zm-240.225 303.997-.075 3.844.075-3.787zm391.514-435.251 2.345 3.808-.638-1.031zm-2.578 89.038 2.578.168-2.938-.192zm47.535-154.904-2.704-.4-4.051-.583zm-51.496 165.816.577-.38-3.612 2.345zm-39 47.995 1.761.976-.288-.171zm99.379-190.503-1.088.255-2.241.529 3.33-.784z"/><path fill="#006a99" d="m533.734 838.393.613 1.216.228.449z"/><path fill="#e0e2e5" d="m520.277 767.781-2.061-.691-3.228 2.726-.817 1.277-2.26-.324-3.12 1.59-1.874 2.085.288.171 1.659 4.003.781 3.52 1.37 1.171 2.53.59v1.075h-1.261l-2.639.976.343 2.18.733.949 1.178-.88 1.647.093-.379 3.518-2.74 4.105.102 1.864 3.906 3.122 2.044.099 1.574 1.662-.985 1.556-2.338-1.265-1.274.878v2.93l3.023 3.522-.908.916 2.867 2.798v2.146l1.268 1.463h3.03l2.157 2.059 3.408.577.204 3.038-2.049 1.758-.35 1.307 1.023.718 1.815 3.044 1.226.286 2.782 1.815.83 2.01-.048 4.175.841 1.665 1.076-1.121-.15-2.167 3.173-1.767 2.831-.784 2.248-1.656 5.278-1.275 2.536.4 3.81-.886h2.158l.871-2.443-1.76-2.738-.29-2.242 4.797-4.402.878-2.735-1.87-3.519-3.9-4.009-1.365-5.467 2.146-2.154-.74-2.578-.823-2.897-.396-2.047 2.254-2.539-4.695-.983-2.248 3.033-2.151-1.954-2.83 1.169-1.275-2.248-4.478-1.478-.54-1.418 1.568-3.387-3.576-2.702-3.522-1.857-.89-2.404-4.345-5.148-.83-1.713-2.494-.86-1.917-.666z"/><path fill="#a4abb3" d="m191.636 840.718-.388-3.326-6.461-.785-2.545 2.543-7.438-1.566-4.502 2.35-1.172-1.965.391-2.928-2.284-.63-6.02.953.25 2.83 2.05 4.61-.93 8.52.518 1.331-1.028 3.8 1.95 2.255-1.44 1.942-1.64 3.491-.2 4.41-3.076 4.408v2.566l-3.594 5.133-1.848 7.894.105 1.948h2.765l1.344-1.948 2.767-1.74-.415 1.74.716 1.437-3.997 1.952-.2 2.87 1.225 1.329 2.052-1.942 3.486.102-1.436 1.84.925 3.597-1.334 3.18.208 7.17-1.335 5.139-1.024 1.532 1.024.82 4-2.767 5.641 2.26 2.56 1.538 4.006-2.26 3.585-.306.622-1.13.096.024-.114-3.17-1.963-3.138 3.138-5.869 3.327-2.74.393-2.549-2.935-.201-1.96-3.907 4.306-4.306-.192-5.481-3.132-1.954-3.527-6.659 3.326-.785 2.35.4 3.522-4.895-2.347-2.357 2.939-2.926.388-8.616-.592-3.528 5.094-4.89h1.959l.784-2.737zM49.9 982.87l.78 1.478 2.495 1.019c-.048.102 1.767-.779 1.767-.779l-1.422-2.206-3.62.487z"/><path fill="#e0e2e5" d="m465.447 267.428-3.523.98-.192 3.128c.192 0 3.414-2.248 3.414-2.248l.3-1.86zm-19.042 36.368 2.35-1.034-1.466-2.251zm-22.682 5.649-1.466 2.449 3.81-.499zm40.449-32.639-1.562 2.155-3.216.1-.109 2.05-3.618.191 2.74 3.52 2.543-.978 3.222-.095-.102-1.954 1.863-2.344zm-11.36 16.787 2.898-.631-.596-2.206.5-1.52-.74-3.093-1.857-.586-.457-2.157-4.093-.448.637 2.897-2.061-1.572-1.665 2.945 3.18 1.614-3.474.25-1.172 3.143 2.686.288-2.2 2.891 2.254.298.09 2.503 1.232-.051.68-3.339 3.131.298zm-2.085-153.21-.733 1.62.679 2.11 1.725 1.373.337 1.714.967.589 1.04-1.614.336-3.682-1.856-1.962zm15.206 124.01.69 1.865 1.66-2.638zm-44.842 83.391 1.08-2.227-1.513-.297-.883 1.325zm12.981-32.659 1.07-2.116 3.083-1.767 4.653-5.094-3.474-3.332-1.809-1.383.095 1.954 1.665 2.347-4.303.189-1.851 3.426-.691-2.549 1.665-7.124-3.222 4.985v2.542l-1.857 2.242.391 2.449-1.364.779-.487 3.32h1.46l3.21-4.21-.294 2.647zm37.427-42.325-.777 3.62 1.961-1.077-1.184-2.542zm5.066-3.572-.745-1.617-2.536-2.01-.59-3.73-1.514 1.028.979 3.579.139 2.452 3.04 1.275zm-5.745 1.722-2.35.384-.974-1.56-4.195 3.52 3.414 3.512h1.856l.782-1.168-.295-2.345 2.158-1.568-.397-.775zm43.279-28.3 1.724 2.7 1.173-.392.787-1.328-1.322-1.569-2.362.59zm-32.106 21.382-1.81 1.764.295 4.507 2.007.734 1.514 2.256 1.185-2.352-1.574-2.104 1.177-2.699zm30.747-9.217 3.66-1.373.938-2.353-3.131-2.311s-3.576 1.325-3.726 1.373l2.06 2.064zm-4.85 5.981.391-2.312 2.151-2.59-.787-3.047-4.784 4.222 3.03 3.727zm19.48-19.958 2.987.49 2.884 2.257 2.736-.637 1.177-3.044-3.276-.049 1.762-2.209-2.152-.534-1.569-1.274-.288 2.16-1.274 1.17-1.66-.779-1.17 1.13zm-3.763-1.418.98-1.966-1.918.049-.926 1.872zm-22.869 19.51-1.96 1.475 2.94 1.466 2.644 1.133.535-2.506-1.262-1.37zm1.767-9.02-1.37 2.693-1.57-1.808-2.295 1.76-2.404-.538 1.082 2.846 4.261 1.274 1.803-.387 7.044-7.065-.535-1.761-4.303 3.963zm-76.822 68.334.09-5.38-6.155 3.707-.396 2.644 3.617-2.341zM322.484 464.806l1.274 3.33 1.275-1.665zm.103 23.647-2.243 1.761 1.365.881 1.367-1.37zm1.367 4.697L322 494.807l2.056 1.365c-.102-.385-.102-3.02-.102-3.02zm11.434-33.323-.877-1.568-1.957-.578.096 3.81zm-10.355 38.505-1.957-.106.98 1.274zm-.298-27.362-3.125-1.47.582 1.95zm5.373-11.633-1.752 2.251 2.54-.097zm-1.752 49.449.387-2.353-2.443 1.956zm1.069 5.274-1.466-1.563s-1.659.388-1.56.485l2.047 3.026z"/><path fill="#e0e2e5" d="m594.81 254.737-.511-1.082-1.893-.61-2.356.412-3.317-2.765h-1.798l-2.152 2.4h-1.375l-.404-.912 2.14-1.385.36-1.843-2.602-1.019-.516-.72-1.893.101-1.738 3.02h-.98l.211-2.148-1.172.204-1.07 1.587-1.172-.102-.469-1.38 1.738-1.229v-1.587l-2.561-1.577-2.548-.063-1.593.976-.409 3.733-1.785.763-.217 1.284 1.54 3.83-.205 1.696-1.382 1.274-1.124-2.35-1.64-.153-.404.868-2.193-.414-3.276 1.487 2.549-3.576 2.002-.514 1.273-2.56-.355-1.272-.973.151-2.657 1.989-1.539-.456.367-1.179 1.737-1.43.145-1.124-2.344-.559-.463-1.031 1.94-.613.819.776h2.86l1.635-4.202-.451-1.734-2.662.665-1.22-.82.51-1.943-.715-1.79-1.742 1.535-1.431-.156-1.539-1.328-1.941 1.842.096 1.277 1.593 1.996-1.082 1.484h-1.171l-1.9-2.716-1.376 1.28-.71 2.305.613.97 2.043.051.974.92-.21 1.127-1.635.718v1.893l-1.586.815v1.788l.463.82-1.48.974.86 2.656-.763.868-1.742-1.228-1.576 1.228-.354 1.026-1.743 1.229-.162-2.555 2.206-4.766-2.152-.757.21-1.232 1.538-1.535.043-4.09-.812-1.332-1.287.048-3.37 5.583-.103 3.12-3.432 4.703-.817 3.32.721 1.434-.355 2.714-3.485 3.834-1.785.82v-2.356l-.824-1.689 2.254-3.581-.463-2.347.926-1.797-1.076-2.35 3.937-4.349.66-2.611.626-.458-.264-1.484-2.104-.201-2.146-2.197-1.075.358.366 2.4-1.539 1.743-.102-2.355-1.79-1.74-2.195-.457-1.634.871.354 3.27-.817 1.584-1.124-1.38-1.49-.865-1.119 1.118.361 1.025 3.059 2.046.728 2.302-.728.818-1.329-1.38-1.64 1.481-.138 1.43.751 1.029-.804.865-2.405-1.584-1.286.109-1.383 2.807-1.785.766v1.018l1.076.773-2.512 1.635-.553 1.995 2.037 2.149-1.532 1.535 2.043.974.92.974-1.124 1.168-3.323-.3-.866-3.534-1.586-.46 1.484-1.632-2.104-1.126-2.303.252-2.962-.202-4.147-3.278-1.22-.048-1.383 1.683-.918-1.785-2.105 1.896-2.45.56-.103 1.126 2.914 3.474 2.104-.048 1.171 1.37 3.072.216-1.334 2.51.103 2.35 2.09 2.81-.3 1.841-1.79-1.328-1.792-3.02-2.35-.976-1.37-1.677-.734 2.29-1.989 1.692-.457-3.222-2.002 1.689-.048 1.377-2.343 2.05.15 2.148 2.812 1.276 1.179 2.51-2.146-.363-1.178-1.17-1.851 2.71-.608 2.096-2.968 2.353-.049-1.43 1.997-1.434-.662-1.896 1.887-3.787-1.485-7.618-1.947 1.229-3.065 4.907-.054 3.282.463 1.325-2.091 2.65-.265-2.548 1.286-2.816-.973-3.677-1.383-.31-2.608 1.688-1.786 3.372 1.178 2.615-.162 2.353 3.69 2.65 1.023 1.848-1.485 2.865-1.178-3.637-2.717-1.226-1.791-4.754-.817-.517-3.48 1.181-.457 1.69 3.486 2.71 1.635.207.871 1.015-2.308-.35-2.302.759 1.54 2.561-2.61-1.843-.312-3.113-1.021-.625-.56-2.097-1.539 1.184-.607 3.374 1.227 1.533-.457 3.02-2.152-1.127-1.893.613-2.56 3.065.613.313 1.737-.255 1.689 2.04-2.194.204-1.593 1.079 1.485 1.02-1.016 1.231-1.941.1-.06 1.382.727.619-1.593.351-1.124-1.382-1.941.514-1.69 2.247.662 1.28-.81.818-2.67.21-1.328 2.506 2.2.713 5.877-1.689 1.383.923 2.452-1.232 1.485-.1.06 1.74-1.689 1.945-.517 3.633-.607.77-1.076-1.29-.307-1.833-2.193.61-.98-1.175-2.717-.048.878.97-.811 1.53-2.008-1.175-1.479.16 1.996 1.48.818 2.093-1.226.053-.824 1.534.414 1.947-.516 1.379-1.125-1.893.055-2.404-1.845-2.405-1.839 2.002-1.917.469-.926-1.533.727-1.133-1.539-.204-2.157 2.365 1.845 1.947 2.867-.102 2.368 1.433-1.334 2.05-4.929.721-1.016-.926-1.952.1-1.034 2.467 1.652 1.533-1.652 2.26 1.958-.412 2.46-2.873 2.163.108 1.226 1.737-3.589.415-.522 2.672 1.334 1.937 2.867 1.756-.09 2.046-1.953-1.545-1.636.207-2.049-2.662-1.244.198-1.635 1.756 1.845 1.433-2.458.201-2.367 1.746v1.638l2.571 1.13 2.153-1.44 1.435 1.44 2.255-.709.727 2.142 1.629.93v1.532l-3.474-2.258h-2.777l-1.334.824-3.793.616v2.05l-2.157 1.13-.92-.82-3.287 1.733-1.845.111-.332 1.277 2.045.878 1.538 1.884-1.821.676-1.016-.514-.721.623 1.646 1.538-.619 1.016-2.464-.403-.306-.715-.823.818 1.743 1.433-1.125.925.306 1.539h1.437l-1.437.929-1.64.3-.92-.92v1.533l-.823 1.446 1.437.61 3.588 1.232.516 1.64 1.437.412 2.038-.925-1.635 1.535v1.238h-2.26l-1.022-1.025-3.69.097-2.56 2.362.817.82 2.668.096.204 1.75 1.33 1.228-.097 2.053-1.545-1.641h-1.226l-1.226 1.541.102 1.74-.721.409 1.232 1.44.306 1.746h-1.129l-1.437-1.34-.925.724.103 2.151 2.259.62.403 1.12-.193 1.44-2.975-1.948-1.244.716-.096 2.158.823.207-.096 2.356 1.016 2.256 1.538-.105 1.136-2.05h1.22l-1.13 3.075-1.634.315-2.26 2.459h-1.947l-1.641.712-.102 1.235-2.158.923-1.743 1.535 1.857.926-.62 1.133-3.389.3-1.533 2.161.2 1.022 2.667.823-2.043 1.022-1.034 2.254-2.05.105-.408-2.053-1.334-.82-.814 1.232h-1.753l.616 1.536-1.23 1.139-.311 1.535.723 1.331h-3.082l-1.334.719.213 2.764-2.363 1.545.314.916-.412 2.777-1.752 1.434-2.354 2.254.72 1.024 2.667-1.743 1.43.105-.203 1.536-1.744.715-.204 2.669 1.538 2.055 2.868-1.646 3.078-.41 4.104-3.99v-1.854l-2.152.625 1.851-2.47.506-2.87.931-.21 1.226-1.121 2.357.411 1.435-.102-3.792 2.455-.108 1.743 3.69 1.127-1.225 1.65-1.949.201-3.798 3.997 2.362 1.232-1.334 1.746.102 2.462-2.356-.211-1.953-1.938-2.765.096-1.635 1.335-.11 2.26-2.15 1.225-2.058 1.127 1.541-1.743 1.125-.823-1.64-2.152v-2.461l-1.844-2.663h-1.848l-1.027 1.845-2.567.307v1.232h3.285l-3.384 3.071-2.259-1.015-1.942.297-2.564 2.362 1.434.304 1.33-.617.723.725-2.771 1.743-1.236 1.535-1.228-1.226h-1.848l-.304 1.226 2.975 1.746h3.489l-.719 1.845 1.542.62-.105 1.637-3.077-.925-.51-1.842h-2.366l-2.353-2.053-.52-1.64-.922.11-.412 2.05 2.36 3.17 2.463 1.852 2.155.306 1.13 1.232-2.26.102-3.69-1.436-3.492-3.898-1.638 1.031-2.157-1.647h-2.667l-1.334-1.12-1.025 1.222.412 2.053-1.437 1.331 2.05 2.155 4.418-1.331.712.92-1.948 1.34 1.028.606 3.384-1.634h1.536l-.818 1.44-3.894 1.64-1.542 2.257-2.665-.728-2.26-2.975h-1.118l-1.34 1.13-1.947-1.736-1.648 1.024-1.129-.721-2.05 1.226.622 1.027 4.205.617 2.66 1.746 3.286 1.746-.922 2.148 1.124 1.75-1.948 1.024-.822-1.024-.09-3.49-2.27-.826-2.455.418.92 1.74-.412 1.334-2.972-1.845-2.57 2.669 2.57 1.742-2.05.202-1.437.613-.72-2.557-3.894-.11 1.228 2.57-1.644 1.13-.715-2.467-2.256-2.053-1.227.412.31 1.434 2.557 2.368-1.13 1.526 1.13 1.136 2.975-.926 3.997.821 2.572 1.644h3.892l1.235-.925h1.948l-2.57 2.572-3.483-.523-1.335.724-4.204-2.16-2.668.72-1.232-.51-2.046 1.75-2.876.405-.205 1.12 4.412 1.957-1.645 1.842 2.156.415 1.436-.93h3.588l-2.665 1.855h-3.793l-1.025.508-1.13-.31-.105.827 1.95.82h1.437l-2.256 1.326-1.113.3.313 1.233 1.226.873.92 1.537 3.07-.154 1.633-1.184 4.09-.562 2.768.719 1.017.711 1.845-1.226.049-1.74 1.843-.507.664 1.484h2.001l2.906-2.149 1.328.358-.559 1.127-1.43 1.075 2.607.662 1.225-1.23-.511-1.484 1.94-2.857-.507 2.193 2.095 2.456-1.587 2.043-3.573.868-1.74 1.334.964.824-1.217 2.04-3.071.103-.095-1.223 1.529-1.233-.364-2.448-2.507-.36-2.758 2.703-.406 1.437-1.896-2.452-2.308-.523-2.908.523-1.687-.523-3.33 1.643h-1.631l-1.948-1.28-.712.262 1.076 2.503-.67 1.325 1.236 1.073 1.94-.457 1.07-1.277 1.541.054-1.745 1.893.204 2.197-1.07.92-1.899-1.073.878 2.966 1.53 1.325 3.783-4.189 2.668 1.112-1.13 1.13.31 2.151-3.18 1.75.51.925 1.954.304-1.025 1.64 1.43 2.158-.919 2.563.821.106 2.05-3.183 1.844-1.028.412-2.665 4.929-2.05 2.46.205 2.047-.616-1.437.916-2.562 1.954v3.185l.818 1.941-1.949-1.644-.411-2.87-1.43-.093-1.747 3.174-1.436.517 2.464.916-2.158 2.876h-1.74l-.82 1.845 1.331.613h3.694l.922 1.536-2.668.21-.917 1.542-.207 1.842-2.876-1.944-1.334.61-.514 2.26-.61-2.663-1.75 1.124-2.358 3.18.928 2.457 3.589 3.802.715-2.154.925.82 1.95-.932-.51-1.12 1.124-2.567 2.873 2.151-1.335.824 1.64 1.743-.612 2.257-1.746 1.232 1.536 3.796 1.235-1.44 3.281-.917 1.331 1.84-2.77.213-1.325 1.022 1.43 2.25-.306.926-4.82-3.489-1.645.62-1.535-1.233-2.05.105v2.05l-1.439 1.535 3.387 5.75 2.767.513 3.694 3.176 5.13 1.954.612 1.64-1.228.614 1.965 1.85 1.782-.867-.817-2.612 1.635-.046 1.688 1.377-.306.77 2.71 3.374 1.235-1.53 1.067.563 2.31-1.083 2.808-2.703 1.223-.259 1.13-1.272.607.147.67 1.942 1.635.157 4.655-4.704-.201-1.64-2.047-2.555 3.582 2.248 2.86-2.864-.765-.973 1.688-1.173-.312-1.845 2.094-1.373 2.255-.412.558-1.637-2.143-2.714.767-1.791-1.89-2.552-2.312-1.691.112-2.25 1.325.82 2.558 2.863 1.025 3.73.923 1.027 1.63.256-.354 1.481 1.223 1.587 2.608-1.178-.66-1.433-1.175-.92.922-1.686 2.193 1.942.103.97 3.372-3.168.871-2.918-.823-2.602-1.785-.772-.914-1.484 1.22-.82.205-1.17 1.328-.157 1.028-1.174-1.383-1.635.11-2.506 2.042-1.533 1.893 1.884-1.539 2.458.511 3.222-.558 2.197 1.538 2.455.403 1.794 2.819 2.911 3.221-.306 1.328 1.127-.805 1.046 1.665 1.145 1.556 2.737 1.468-2.737-.585-8.405-2.049-3.615 1.07-2.341 1.864-.978-1.365-2.737.871-1.569 4.208-.39 1.172-2.047-.199-2.836 1.954-4.201-1.954-2.742-.973-6.154-2.549-4.979.205-2.251 6.154-2.05.09-4.402 1.28-3.023-4.693-5.184-3.913-1.954-.192-5.078.883-4.988-.69-5.467-1.461-3.714 1.172-4.204-.782-7.131-1.28-6.94.985-6.06 3.024-5.37 2.94-1.762 3.61.776 4.593.297 2.344-3.224-.385-5.085-1.274-2.043.192-3.33 4.592-11.239.198-6.45 1.371-6.157 1.37-3.416-.096-3.907-1.96-1.953.103-2.74 4.297-2.544 4.598-.976 2.145-1.857.193-2.738 3.714-6.545 3.804-5.28 1.28-3.12-1.46-4.008-1.568-1.765-.097-6.244 1.756-.88 1.658-2.254.782-3.318 1.862-.976 2.05-4.499 2.831-2.152 3.03 1.368 1.274 1.472 1.755-.3 2.049-1.851-1.66-2.834 1.57-1.467v-1.473l.685-1.457-2.152-3.425 1.37-.878 3.907.096 2.927-1.56 4.49 1.175 2.746 1.855 3.12.29 1.761 1.47 1.375-.492 1.263.781v-3.324l-1.466-2.148.397-4.204 2.145-1.17-.679-2.834-2.152-1.174-.192-2.728 3.119.97 3.036-.586 1.009-.496-.012-.018.552-.809 1.149.556.907-.606-.774-2.047.486-2.347 1.857-1.56 2.542.385 2.056 3.032 5.757 4.694 1.082 2.831 2.145 2.936 3.805 1.556 6.36.205 3.323-3.23 1.857-1.954 2.832.096 4.501 3.129 3.023.49 1.569-2.934 1.755-.976 2.158-2.053 2.337.198 2.35-1.568.974-1.761-.974-2.34-1.274-4.103.691-6.942.872-2.145-1.268-2.05 1.562-.98 2.145-2.933-.192-1.562 2.83-1.274 3.53.682 2.05-.487-.205-1.172 2.247-2.44 5.763-.097 2.55 1.753 3.287 4.168 1.917 1.965 2.934 1.079 4.507.486.776 2.21 2.697 2.845-.45 2.798-2.392 3.774.486 5.524 1.612-.277.107-4.76 3.625-3.477 3.228-.447 2.103-2.84-.288-3.874 2.253-.195 2.783 1.12 1.672-2.106-.127-2.777v-.011l-.782-.088-1.989-1.541h-1.02l-.927.565-.108 1.589-1.07-1.066-.667-1.545-1.48-.048.308 1.481-.355 2.861-.973-.607-1.173-1.896-1.995 1.283-.667 1.482-.667-2.146-.667-2.918-1.017-.156-1.08-2.966-1.07-.613-2.254.306-1.942-.815-3.167-.36-1.594-2.1.566-.505 3.985 1.073 3.281-.412 2.8.514 5.32.718 3.697-1.277 2.398-4.814 5.12-1.328 2.189-1.843v-.766z"/><path fill="#e0e2e5" d="m332.543 528.103-.35 2.506 2.107-.733zm24.914-91.728-.781-2.016-2.843.243 2.597 2.9s.977-1.082 1.027-1.127m70.954-133.093-.878-3.606-1.76.288.493 1.268-2.356 2.738-2.531-.583-.98 2.734 1.076 1.756 3.426-2.73 1.845.094-3.312 2.347 1.467 1.27 3.613-1.08zm-97.326 204.425-1.17 2.44 1.073-.288zm-6.738-3.517.779-2.932-2.54.782 1.76 2.15zm4.883 1.753.878-2.536s-1.947-2.548-2.05-2.639zm80.813-182.133 1.167-2.249-1.167-.684-1.075 1.367 1.075 1.565zm-7.061 47.303.878 3.335 2.157-3.431-.536-2.548-2.5 2.644zm2.253 6.427 3.234-2.652-2.506-.34-1.22 1.325.492 1.668zm37.643-77.961-2.74-1.421-1.954.832.83.833 3.864 1.616zm-8.51-5.376 2.836-2.05-.68-2.545-3.527 1.37-.085 2.441-3.624 2.93-.192 3.907 1.37.976 3.613-4.288zm-30.803 38.517-1.028 1.866 1.43.88.728-1.37zm9.111-9.01 4.887-3.71.3-2.252-4.4 1.175zM366.07 428.625l-1.812-1.623-4.207 3.684 3.23-.15 2.79-1.911zm-7.684 13.679 1.368-1.226-.683-2.945s-2.449 2.705-2.395 2.705zm5.92-7.405 3.035.196 1.96-2.401-1.37-1.518-2.107.097-.782 1.42-2.689.052-1.67 3.083 1.816.099zm27.412-34.808-2.049 2.25 2.44-.188.932 1.664 1.37-1.186 3.084-3.82-2.002.832zm9.064-18.343-1.082-.728-1.376 2.104 1.184 1.518 1.365-1.271-.09-1.623zm-.445 12.952-3.425.63-1.028 2.015 1.659.739zm7.063-72.649-2.44 4.205v2.632l3.125-3.032z"/><path fill="#b2b9c0" d="m42.065 430.987-.73 1.914.83 1.815 1.712-1.223-.433-2.846zm75.672-48.151-5.39-.448-1.715 1.325 1.425-2.452-.342-1.956-3.041-.244-.779.68-.986-2.5 1.908-2.353 2.015-.643-.44-3.526-1.323-.784-1.814 1.415-2.203-.925-1.076-2.494 2.446-1.088.292-2.053 1.226-1.034 2.548-.64-2.74-1.226-2.107.59-4.306 4.074-.787 2.254-1.563.25-1.762-2.648 1.029-1.62-1.278-1.322-.438-2.413-2.546-.733-2.1 1.373-1.62-.784-1.223 2.31 1.076 2.6-1.025 1.857-2.644.253-2.643 1.222-.05-2.256-1.418-1.031-1.572 2.305-1.518 3.435-2.61-.118-2.54-4.393-1.954.487-.878-.68-2.058.193-.874 4.499 2.44 4.79-2.93 6.837 1.073-5.86-2.638-4.01v-2.157l-1.074-1.07.292-2.735-2.738-1.66-5.274 3.416-.78 2.932.976 2.251-2.249 3.618h-2.15l-.29-4.014-1.86-.782-.39-5.568-1.854-1.46-3.324 2.83.484 6.158 1.37 1.851-.198 4.306-1.656 2.143-2.341.098-.102-3.218-2.735 1.359-1.076 3.236-1.662 1.073-.096 4.292-1.854-4.199-1.959-.189.396-2.056 1.95-2.539v-2.055h-3.032l1.275-1.758-1.565-3.126 1.958 1.269 2.143-2.245-.586-1.563-2.539-1.178 2.247-1.659-2.055-2.247-1.46 1.174-1.266-2.052-3.353-1.872-.048-2.308-1.323-2.545-2.493.64-2.843-.893-3.968.303-.393 1.122 1.127 1.616 1.622-.09.292-1.181 1.953.1 1.566 1.03 2.155.73-1.073 1.277-2.402-.736-2.403.05.349.885 3.72 2.455 2.446 2.942-.682 1.953-1.18.201v-1.622l-2.787-1.953-1.866 1.661-1.563-.493.785-1.613-2.197-2.8-2.602-1.125-1.912 1.175L14 367.288l-.537 1.423-1.565-2.358-2.204-.676-.637 1.61 1.518 1.963 1.562.935.935 1.367-2.497-1.025-2.393 1.025 1.461 2.112 3.575 1.028-1.715.34-.733.637.634 1.518-.83.204-3.816-3.534-1.175-.24-1.274 1.37 1.665 3.089 1.024 1.863-1.024.436-2.3-3.09-2.253-.633L0 379.305l2.836 1.124 2.257 2.503 3.327.637 1.668-2.653 2.933-.833 1.274-2.35.836 1.376.047 1.32h1.473l1.755-1.079.487 2.554h1.126l2.158-1.674.637-1.418.244 2.693.832-.049 2.744-2.25-.148 1.271-.883 2.104 1.18.94 1.805-1.517 2.89 1.66-1.572.638-1.563.052-1.857 1.373-2.208.192-3.567 1.569-.252.976 4.51 1.28 2.446-.393 1.03-1.623 1.518-.63-.15 2.157-1.51 2.103-4.66.544-1.562-.441-2.158 2.055-1.075-1.319-.833-.845-.024-1.102-1.394-.418-.415.637.487 1.106-2.103 1.52-1.588-.859-2.278.15-2.331 1.197-2.714-1.08-1.836.724-1.278-.14 1.819 2.878 1.078 2.407 3.472.243v-.877l4.36 1.166 5.136-.333 2.884.24-.189 1.23-1.766 1.174-.094 1.416 2.45 1.727.583 1.758 1.616-.288 3.378-2.356-.59 1.719-2.4 1.758-1.319 1.965 2.058 1.518 3.67-2.94 2.884.882.69 1.568-1.763-1.073-2.64.928-1.912 1.662-2.5.054-.145 1.867-1.272 1.566-1.469-.34-1.712.977-.833-1.71-2.253-1.527-.097 1.178h-.976l.588 3.186 1.268.588-.976.734-.346 4.414 3.183-.05.883-1.029 2.058 1.223 4.451.541 3.186-2.446 2.69 1.47 2.058-1.28.483 1.52 1.68.496 2.834-.977-.29 2.83 3.022 3.03 2.155 1.076 2.145-1.86 2.543.201 4.297 4.105 5.668-.102 2.251.881 3.617-1.076-.49-3.032.878-1.266.685 1.659 3.027.785 2.936-2.837.192-3.318 3.519-.394-1.269 1.659.971 1.278 1.08-1.278 2.052-.385 2.44-3.22 1.301.717.884-.294 2.302.15-.057.74 1.126-.74 5.683-4.95 2.155-2.944 6.755-1.326 1.325-1.617-.643-1.229.346-1.808 1.27.144.584 2.014 3.38 1.168 1.956-2.158.35-1.661-.837-.932.296-1.71 1.566-.448-1.175-3.335 1.082-1.268 2.295 1.421.493 2.152 2.203-.343 1.463-2.843-.779-2.4-2.403-2.546-.093-2.702 1.47-1.232-.205-2.446 2.352-1.229 2.113-.048 1.271-1.86z"/><g fill="#d0d4d8"><path d="m192.97 466.477 2.26.096-2.6-2.01-3.378-5.64-.883 1.084 1.034 2.888 3.566 3.582zm-4.105-2.154-2.45-3.048.343 2.41zm5.719-1.771-.241-2.305-2.593-1.766s-1.47-.147-1.422-.097l2.204 3.435zm1.081-4.119-1.081-.1 1.571 1.866zm-2.196 21.964-.298-2.741.298-1.368-2.113-1.039zm.285-10.149-.875-1.316-1.231.83 1.964 2.301zm5.937 102.745h-1.28l.1 1.256zm-1.688-14.478-1.338.622.31 3.03-2.873-1.973.154 2.347-.928-.621-1.023.994 2.461 1.81.103-.993.976.737-.363.829 1.797 3.225 3.131-.329.207 2.607 1.077-.16.772-2.346 1.845-1.055-.977-.725-1.541.322-2.717-1.452.31-4.528zm4.973 22.538-1.697-.256-2.151-2.436-2.463 1.73 3.49 1.707-1.95 1.052.513.832-2.308 1.674 4.977-1.115.201.775 2.365-1.775zm27.29-43.977-.868-1.352-1.181.264 1.488 2.341zm-28.419 55.495 2.053-4.537-4.614 4.294.92 2.447 1.64-2.204zm-8.821-12.991 1.74-.78.565-2.042zm5.025 8.58-.82 2.56 1.18-1.204zm1.488 8.333-1.128-4.373-3.85 1.582.052 3.431 2.464-1.565-.31 2.603zm57.818 93.237-3.587 1.887 1.742.357 1.845 1.353 1.798-.319v-.94l.87-1.512-1.334.154zM229.86 533.323l.154 1.932 2.515-.327 1.383.88.054-2.034-2.927.273.973-1.145-1.59-1.559-2 .162v2.446l.87.985.569-1.613zm24.063-36.741-1.81.442-.496 1.671s1.915 1.118 2.008 1.118zm6.361-6.076-1.764 1.76.739 1.276zm-27.864 39.785-1.276.21 1.076 1.145zm21.796-26.404 1.074 2.161 1.47.539-.587-2.161 1.226-1.32-.348-1.472 1.13-1.184-1.857-.637-1.524-.776-.778.776.634.937-.295 1.269-2.744-.29-1.662.692 1.025 1.37zm1.906 4.352-.782-.757-1.175 2.209zm1.37-11.215-.048-3.041-.977-.736-.203 1.718-1.067 1.566 1.415 1.473zm-61.545 73.691 1.08 2.13.919-.837-.715-1.509z"/><path d="m291.985 653.716-.622-3.341-4.522-3.531-6.282-.295-3.906.117-.306 2.933-1.035 1.674-2.055-2.29-2.467-.612 3.913-3.886v-2.404l-3.092-5.004-1.23-.21-2.713-1.575-1.124-1.92-1.388.267-.974.31-1.64-.565h-.98l1.848-.468 1.177.306 2.007-.427 1.23.565 1.078 1.094 1.382-.258 1.338.297-3.642-4.523-1.695-2.175 1.077-1.725.973-.367-1.791-.983-.776-1.355-.766-.099-2.136-3.916-3.19-1.667-4.53-1.023-.202-1.772-1.034-.626-1.439-4.904-1.644-2.704-1.133-6.272-1.337-2.086-1.232.012-3.814-5.634-2.257-.51-1.749-1.456-2.884-1.138-1.127 1.045-2.27 1.476-3.184-1.028-1.521.201-2.567-.82-.763-1.407 1.539.782 3.08.247 2.557-.846.776-2.03 2.614.09 2.353-1.786-2.404-1.132-.156-1.404-.974-.778-3.335 1.785-.563-.676 2.56-1.888 3.084.2 1.788-1.58.313-1.405 1.235-.784 1.791-3.498 1.136-1.62-.16-1.139 1.283-2.353-.462-.833 1.124-3.245 2.157-1.827v-2.08l-3.179-2.903-.667.517-5.439.184-3.336-.616-.973.685h-1.639l-2.052-.718-1.439.06-.205.733-2.05.63-2.205 1.209-.874-.055-1.491 1.209-.46-.463 1.999-2.305 2.103-3.398-1.536.844-1.899-.724 1.13-.734.412-1.568 5.28-3.982 1.542-2.602 1.797-.64.868-2.348-.92-1.04 1.022-1.664-.102-1.046-2.665.006-1.077 1.16-1.694-.517-2.56 1.154-2.36-.252-2.004.844-1.13.01-1.175 1.093.253-1.199-1.082-.472-2.203 1.94.667-1.715-3.026-1.4-.514 1.884-1.025.781.303 1.723-.61.05.097 2.14-2.206.475 1.082 1.818-.934 1.833-1.07.054 2.616 2.332.927 1.666-2.67-1.344-.976.835-1.947-1.292-.102.937.513 1.25-.616.938-1.027-2.025-.922 2.134 1.025 1.148-.825 1.096 1.593 1.822 1.542.041-1.8.683-1.845-1.034.411 2.972-.054.992 3.387-.538-2.209 1.105-.24.614.715.441 2.143-.793-.508.547.865 1.088-1.583-.646-.631.427-.46 1.449.869.62-1.278.205-.82 1.256 1.479.506.337 1.138-2.427-.922-.46 1.61.971.67-.564 1.062-1.145.832-2.374.057-1.019 1.075.892.563 2.017-.133 1.352.403-.307.601h-1.553l2.095 1.978.663-.264 1.083 1.141 5.483-5.55-.874 1.67.83.517-1.65.583-1.334 3.189.156.778-1.692 3.237.718.414-1.439 3.862.357 2.494-1.018 1.473.763 1.24.976-.471-1.74 2.77-.312 3.86-1.28 1.252.1.935 2.875-.009-.405-1.983 1.229-2.867-.106-1.773 1.488-1.827-1.127-4.79 1.076-.006 3.386-4.076-2.565 3.862-.307 2.82.977.723.201-1.662 1.694-1.419.77 2.6 1.386-3.131-.31-2.188 1.13-.577-.457 2.816 2.87 2.176-2.465-.664-.877 3.6.565 2.662 1.491.349.87 2.344-2.202 2.248-2.229 5.842.517 2.611-1.963-1.241.108 2.819 2.675 3.75-.82-3.447 1.85-.532 4.73 3.432.1-2.714-1.953-1.562 1.234-.319 3.812 2.387 2.674-.43v-1.142l2.47.093.728-2.299 6.68.282-4.427 1.17-2.674 7.635 3.29 5.942 1.65-.947v3.137l2.16-2.62 2.675.408-.923 3.24.824.523-2.665 2.083.82 3.647-1.436 2.768 1.64 2.128 1.948 1.713 1.596.15-1.082.788-1.794.114-1.54-2.182-1.49.573 1.232 2.132 1.331.826-2.097-.456-1.694-1.716-4.31 1.375-1.953-.3-4.464 2.2-2.304 3.237-3.234 2.052-1.385 1.983 2.05-.372 1.027.36.306-1.202 4.568-1.214-.405 2.399 1.586 1.664-1.692 1.253.974 1.818 1.076.256-2.975 5.694-2.155.734-2.155 1.628-1.075.06-2.77 1.725-2 .01-3.24 2.097 2.565.351.156 1.882-1.845.89 3.287.555-.826.785 1.286.727 1.852-.53 2.145-1.312 3.495-1.157.306 1.614 2.771.67-2.254.625-.258 1.303 3.799.097v-.736l1.89-.529 1.953 2.238 1.743 2.071 4.363-.063 1.025-1.725 2.05-.892 2.828-1.055 1.072-1.572 2.36-1.102-3.231 3.765-3.23 3.089-.157 3.651-2.203-.099-1.75.63-2-1.087-5.644-.604-3.996 1.061.048 2.032-1.696 1.622-2.202.015-.357 4.637-2.362 2.14-.614 1.205-2.617.48-.67 2.654-1.13.015-.614 1.406-3.18 2.306-1.433-.52-2.208 1.578v2.028l2.41.144.103-1.818 2.923.77 1.202 2.138 1.437-1.367-.617-1.034 1.341-1.787.64.832 1.64-1.568 1.073-.013.824-1.974 2.518.661 1.95-.893 1.59.256 1.13-.628 1.127 1.506 1.338-.109 1.845 1.554 2.152-.111-.412-1.403 1.691-.79.47-1.302-.47-2.347 1.491-1.467 1.23-.162.516-.94 4.817-1.11 2.519.199 2.921 2.02 1.081-.421 3.174.144 1.7.616.818-2.034 2.927-1.47 2.002.559 2.821-1.88 1.999.459 1.027-.162 1.385-1.043.413 1.036 1.69.977 1.945-1.304 4.418-.072 2.768-.586 2.668.874 1.332.256 2-1.62 2.21-.43 1.944-1.836 1.34-.102 1.385.312-.309-1.514 3.129-2.149 1.95-.43.155-1.977-.561-1.4.613-1.626-3.54.12-2.518.947-1.458.261-2.347-.844-.865-.229.811-.76.722-.102.225-.466-2.14-.54-1.836.684 2.575-1.8 1.714.171 2.085-1.003-.607-1.768h-2.059l1.536-1.358 1.13-1.102 1.235 1.04 1.896-1.365.773-1.193-.927-.21.617-.938-2.2-.253.869-1.463 1.382.36.412 1.046 1.59-2.094 1.541-.634.253-3.918 1.436-3.667z"/><path d="m282.507 675.66-.943.529 1.604.817 1.4-.366-.787-.956zm-95.333-111.574-1.384-.261.102 1.56-.72 1.68.514 1.76 1.595.36-.517-2.241.667-1.253zM185.686 562v.83l1.694.676.715-1.884-2.41.379zm19.081 59.736-1.998-.411.77-2.086-.77-1.556 1.484-.217 1.546 4.634-.82-5.935-3.646-.193 2.001-1.47-3.949-5.607-.257-2.503-2.002-1.085-4.1-.409-2.572 1.678-1.536.174-.823.94-2.548.5-1.313 1.372-1.795.977-.787 2.353-2.74.391-2.933 6.067 5.673 5.28 1.963-.387.78-3.718 1.567-1.175 3.913 1.95 2.544 5.094 1.96.397 2.915 1.941.541.079-.201-1.987 1.228.309 2.062-1.682.207-1.882 3.189.409zm-19.797-51.651-1.076 1.357-.105 1.41 1.794-1.106zm3.747-9.659.153-1.505-3.335-.358-1.028.574 1.843 1.872zm4.818-11.167-2.82-1.29-1.487 1.882 1.434 1.503-1.181.937 1.234 1.046 2.311-.382 2.357.613 1.694-2.398-.817-.62.766-1.985 2.308-2.145-.411-3.49-6.05 4.297zm-3.845 33.047 2.36-1.779-2.155-.15-.204 1.929zm2.207-28.35-1.13.577-.514 1.1-.925.52 1.694 1.298 2.978-2.624zm19.136 40.094-1.13-1.148-.208 1.828 1.488 1.24zm8.361 50.09 3.176-2.52-2.305.277-1.079-2.241-2.822.372s-.718 2.146-.666 2.25zm-12.67-46.481.66 3.9 2.568 1.041.768-2.666-1.845-3.798zm7.438 26.755-1.031 3.498 2.266-.38 3.228-3.238-.515-1.41.463-2.293z"/></g><path fill="#a4abb3" d="m198.659 648.034-1.025-6.065-1.65-1.03 1.959-1.259v-2.726l-1.749-2.702.51-2.722-2.054-1.452 1.025-1.577 1.62.231-2.916-1.941-1.96-.397-2.544-5.093-3.913-1.95-1.566 1.174-.781 3.718-1.963.387-5.673-5.28 2.933-6.067 2.74-.391.787-2.353 1.795-.977 1.313-1.373-1.244.246 2.717-2.145 2.41-1.365-2.87-1.556-2.005-1.758.928 1.869-2.768.012.458 3.071-1.947 2.822.255-1.88 1.082-1.3-1.337-2.337-1.797.366 1.075 1.506-2.103.108-1.124-1.138-3.699.952-.048 1.776-1.181.051-.871 2.194 1.845.778-.508 1.045-1.903.052.202 1.046-2.666.694.718 2.133 2.924-.015-.456.788 2.356-.797 1.593.048-3.081 3.234-3.85 1.478 1.338 1.245-3.799.7-2.001-.884-1.689 1.939-.823-2.504-6.209-.904v1.084l-3.438-.919-.613 3.754 1.686-1.722.364 2.287.772.411.82 2.242-1.536.057-.26-1.307-3.333.123 3.846 2.747 2.669-.689.868 2.131-3.381.688-.465 1.512.973 1.355-3.795.067.868 2.29-1.328.528 1.999 1.244 1.643-.586-.976 1.262 3.08-.646.82 3.336 7.336-.088-2.359 2.414-1.695-1.037-2.768 4.595 1.229-.16-2.257 3.138-4.724 3.243h1.9l2.566-1.675 1.593.926 3.182.094 2.152-2.15.207.996 2.672.243-6.007 1.638-4.464.183-1.075 1.716-2.924.946 1.022 1.407-.667 1.307 1.286.36-2.164.424-1.839-1.553-.718 1.046-.616-.734-3.592 1.894.358.989 8.313-.508-2.768 2.355-3.49.806-1.184 2.87 2.21-.016.513 1.617 6.308-2.064-4.768 3.098-2.003 1.67 3.39-.011 4.358-2.41-.205 1.716-3.744 1.74 2.05-.012-.62 1.3 3.34-.843 1.73 1.216 4.522-.54 4.322-1.265 3.399-2.317-1.14-2.603 2.58.192-.725 1.566 2.678-.006 2.47-2.62 1.848.096.621-2.51 7.61-.865.618-1.677 1.134 1.978 1.643-1.566 1.55.616 3.908-.015-2.675-3.441 1.95-.842 2.066-2.518-.415-2.197 2.163-2.41z"/><g fill="#c1c7cc"><path d="m483.314 525.9.048-3.335 2.64-2.348.06-2.206h-3.234l-2.596 3.82 2.007 3.185zm-16.793 42.78.391 1.167-.877 4.012-1.473.976-.974 7.33.391 2.54v1.856l.872.884.98-2.35 1.466-4.304.493-4.492 1.364-4.592.487-4.006-1.466-1.562-1.654 2.542zm-64.417-19.595-.174 1.935 1.394-.066.536-2.29zm89.672 6.779 1.13-1.037-1.556-.83-1.425.83-2.89-.05-1.815 2.301-1.269 2.413-1.808 1.906.835 3.092-.985.63 2.692 3.925 1.082-.388-.643 2.255-1.562 1.962.251 1.187 3.126-.884.637-1.625-.932-.69.493-1.663 3.125-2.455.397-1.768 1.953-2.35-.288-1.228-1.917-1.714 1.08-2.302z"/><path d="m532.316 371.125-2.344-4.98-2.543-.88-1.37-3.91.884-1.953v-5.277l-.59-2.052.685-2.248-.883-4.856-1.52-2.206-.445-3.726 1.274-2.011-.83-3.14-3.581-.247-.29-2.695 1.22-3.09-.732-3.927 1.004-2.44-1.274-1.95-1.851-.205-2.35-3.228-.974.298-1.178-.192-.974-2.543-2.638-3.026-1.858-.493-2.06-1.271-5.272-.388-3.51-2.638-4.802-5.572-3.51-1.757-2.212-2.648-1.009.496-3.036.586-3.119-.97.192 2.728 2.152 1.174.679 2.835-2.145 1.169-.397 4.204 1.466 2.148v3.324l-1.263-.781-1.375.493-1.761-1.47-3.12-.291-2.746-1.855-4.49-1.175-2.927 1.56-3.907-.096-1.37.878 2.152 3.425-.685 1.457v1.473l-1.57 1.467 1.66 2.834-2.05 1.85-1.754.3-1.274-1.471-3.03-1.368-2.83 2.152-2.05 4.499-1.863.976-.782 3.318-1.658 2.254-1.756.88.097 6.244 1.568 1.765 1.46 4.009-1.28 3.12-3.804 5.279-3.714 6.545-.193 2.738-2.145 1.857-4.598.976-4.297 2.543-.102 2.74 1.96 1.954.094 3.907-1.369 3.416-1.371 6.158-.198 6.449-4.592 11.24-.192 3.329 1.274 2.043.385 5.085-2.344 3.224-4.593-.297-3.61-.776-2.94 1.761-3.024 5.37-.985 6.062 1.28 6.939.782 7.13-1.172 4.205 1.46 3.714.691 5.467-.883 4.988.192 5.078 3.913 1.954 4.694 5.184-1.28 3.023-.09 4.402-6.155 2.05-.205 2.251 2.549 4.979.973 6.154 1.954 2.742-1.954 4.2.2 2.837-1.173 2.047-4.208.39-.871 1.569 1.365 2.737-1.864.978-1.07 2.34 2.05 3.616.584 8.405-1.468 2.737-1.556-2.737-1.665-1.145-.223.288-2.097 1.227.51 5.83 1.083 1.582.252 4.397 1.941 1.025.721 1.022-.42 2.861 2.975-1.278-1.846-1.94.356-2.101 1.286.054-.613 1.334 2.248 1.325.72 1.434-2.71 2.25-.468 2.147.823 2.09-.355 2.967-1.238 1.286 1.539 2.2 2.247.562 1.346 3.504 1.233 1.028 2.457 5.024.308 3.798 2.77 1.121.716 2.57 2.566 2.563 2.873-1.64.817 3.284-1.946 3.69-3.39.412-.506 1.433 1.851 1.13.403 2.465 2.77.82 1.239 6.356-1.545 2.464 1.437 1.334h2.668l6.876-1.845 3.377 1.226 2.663-2.455-.204-2.164-1.539-1.328 1.851-4.408 4.207-.52.92-4.307.721 1.957 4.917.817 2.968-1.647 2.471 1.13 1.442 1.845 2.97-3.588.925-5.34 2.152-2.25.516-6.669 1.227-2.146-2.357-2.059.307-2.767 2.26-2.567-2.157-2.764 2.356-2.152-2.97-1.854 1.334-2.359-1.64-2.563 2.974 1.13 3.168-.616-2.866-2.666 1.436-3.07-.199-1.657-4.003-1.427 5.025-.205-2.668-2.764-2.26-.32 1.55-1.844h1.425l.415.619 1.538-1.436-.102-1.743 2.247 1.743.314-2.771 1.845-2.053 1.85-.207-.408-1.74 1.021-1.43.92 1.229-.505 2.464 1.533.096 2.368-3.588h1.84l1.845-1.539-.307-2.563-1.64-1.437-3.288-.922-2.351 1.328-1.334-.616-2.157 1.23-1.738-2.35-2.878-.518-1.743-1.126-3.595.102-.3 1.33-1.034-.82-4.093-.402-.108-1.03 1.954-.821 2.247 1.126 1.954-2.566 1.13 1.133 2.055-.619.92-1.737 2.362.508 1.13 1.23 1.64-.103.097-1.635 1.334 1.332 3.083 1.123-.307 1.746 2.249 1.23 3.696-.917.92-2.777 3.383-3.687 1.749-4.105-2.674-2.564v-2.05l-3.985-2.364.71-1.536-4.822-3.7-.613-2.355-1.857-1.536-2.35 2.867-1.442-2.458-1.328.82v-2.56l-1.845-.415-1.341-2.052-1.533-1.641 1.846-2.356-1.443-2.972 1.244-.724v-1.641l-2.06-.82 2.06-2.56-.823-3.997.619-.824 1.737 1.533.307-2.662-2.044-2.152.71-4-.506-3.086.71-1.016-.374-3.375-3.118-3.943 2.145.77 3.943-.664 2.2-3.27-1.106-2.347.722-1.433 2.36.616 3.686-3.174.21-1.544-1.84-.409.812-2.26 1.85-1.848 1.13 1.442 1.228-.312.72-2.873h1.125l1.13 1.743 1.844-1.638v-3.074l1.233-2.768h2.049l.3 1.945 1.648.105 1.34-2.774 3.28-1.848-1.026-2.458.414-2.362 1.437 1.848 2.764-2.669 1.737.109 2.675-4.517-.415-4.406 1.953-2.368 1.737-.1 2.669-3.383H506.2l-1.533-2.157 1.636-.616-.824-1.74-2.146-.406-2.668-2.056 3.282-.613-.614-1.947 1.642-4.718.817-1.542-1.305-1.65-1.634-.05-1.179-1.939.865-.973 1.642.823.56.916 1.032-.312.145-1.574-2.5-1.13 2.044-1.133 2.301.161 2.248-2.049-1.791-1.226-1.683-3.275 1.797.616 1.22 1.488 1.995-.463.926-2.149.295-2.597 1.436-1.123 1.635 2.978 2.151-2.675 1.034 2.26 2.26.92 1.118-2.257 2.163 1.231 3.168-2.048 1.544 1.841 2.561.207 1.749-1.231.108.123.132-2.954-1.514-1.641zm-37.643 169.927-1.424-1.181-1.123.688 1.123 2.254zm-.101 10.395-1.418 1.665.925 1.277 1.472-1.422 2.393-.685-.59-.937z"/></g><g fill="#d0d4d8"><path d="m508.281 431.273-1.616-1.377-.29 1.767.83.736zm-7.543 72.32-1.418-2.305.937-1.03 1.906.297-.391-2.064-4.015-2.741-1.424.144-.042 2.061 2.055 1.32-.787 1.226-3.132-1.076-1.033 1.37 1.67 1.181 1.515 1.816 2.693.88 2.199 2.11 1.869-1.037-.589-2.347zm17.814-7.011 1.136 1.274 1.672-1.081-2.808-2.399zm-14.19-61.04 1.515 1.855 2.404-1.377.24-2.248-1.719.83-1.61-1.32zm9.105 60.941 1.52-.64-2.541-.336c-.06-.064 1.021.976 1.021.976"/><path d="m622.901 438.454-5.864-6.734-3.505-1.178-6.269-8.796 1.081-4.006 2.542-3.516-.3-4.005-4.092-2.834-1.473-3.137-.198-4.977 1.076-1.269-1.166-2.545-3.33-.583-1.761-2.25v-4.496l1.87-2.443-2.645-.68-.102-2.344.583-8.801 2.452-.586-6.064-14.064-5.572-10.263-1.172-3.816-3.233-3.513 2.26-6.452 2.734-4.4 1.28-4.006-1.665-1.56-6.166-3.909-1.07-2.542-2.062-3.129-3.708-2.052-1.85-.288-2.345-6.161-1.857-2.242.98-4.598.589-3.618-2.181-.736 2.206-1.517 3.575-1.422-.007-.108-.486-5.524 2.392-3.774.45-2.798-2.697-2.846-.776-2.209-4.507-.486-2.934-1.079-1.917-1.965-3.288-4.168-2.549-1.753-5.763.097-2.247 2.44.204 1.172-2.05.487-3.528-.682-2.83 1.274.191 1.562-2.145 2.933-1.562.98 1.268 2.05-.872 2.145-.69 6.942 1.273 4.102.974 2.341-.974 1.761-2.35 1.568-2.337-.198-2.158 2.053-1.755.976-1.57 2.934-3.022-.49-4.501-3.129-2.832-.096-1.857 1.953-3.324 3.23-6.359-.204-3.805-1.556-2.145-2.936-1.082-2.83-5.757-4.695-2.056-3.032-2.542-.385-1.857 1.56-.486 2.347.774 2.047-.907.606-1.149-.556-.552.81 2.224 2.665 3.51 1.757 4.802 5.572 3.51 2.638 5.271.388 2.06 1.27 1.859.494 2.638 3.026.974 2.543 1.178.192.973-.298 2.35 3.228 1.852.204 1.274 1.95-1.004 2.44.733 3.928-1.22 3.09.289 2.695 3.582.247.83 3.14-1.275 2.01.445 3.727 1.52 2.206.883 4.856-.684 2.248.59 2.052v5.277l-.885 1.953 1.37 3.91 2.543.88 2.344 4.98 1.514 1.64-.132 2.955.92 1.013 2.56.095 2.458 2.57h5.139l3.48 3.378-1.948.926 1.335 1.845.21 4.098-.931.824 4.098 3.795-2.968-.613-1.13.412 3.492 2.867.102 1.64-4.1-2.256-3.395.111-3.588 2.35.114 2.158-2.47 2.572v1.842l-1.136.82-4.195 4.406-.62 4.408-1.015.313-.727-1.338-1.232.211.926 2.666-.614 2.154-2.77.304-1.641 2.26.715 3.393 1.845 1.325-3.275-1.025-.932-1.23-1.839.707-1.028 2.888.409 1.322-1.845-.82-.721 1.028 1.839 1.833.047 1.277-1.634 1.737-.77 1.539-2.398 1.535-1.28-.923-.312-.97-1.785-.565-1.845.66.667 2.46-1.527 1.28 1.064 2.554-1.021 2.503-1.274.31-1.33 2.25 1.016 2.711.722.562-.824 2.666.517 1.778 1.738-.808 1.436 1.53-.469 2.918-.715 1.427.92 2.557-.566 1.175 2.662 4.376 1.34 1.12-.936 1.635 2.055 3.186-1.947.82.402 4.202-.914 1.646-.108 5.535 1.54 1.954-1.432 2.966v2.05l1.016 1.442 3.595-1.638 1.328 1.022.612-1.641 3.084 3.288 1.845-.313 1.851 1.638 3.895-.409 1.13.517-1.028 1.941h1.442l3.277-2.254v1.843l-1.641 2.269 3.39 4.814.715 1.638-.92 2.773.92.514 1.436-3.997 1.635-.82.318 1.74 2.362-1.031 1.941-.096 4.406-3.186h2.47l5.332-3.482.311-1.434 3.481 1.028 2.356-.412 2.158-3.281.517 1.12-1.13 2.254 1.436.616 1.424-3.281 1.245.316-1.13-2.774 1.13-1.133 1.328 2.671 1.539.307.618-1.947 1.328 2.971 1.75-.612.204-1.846 1.539.41.62 1.436 1.742-1.641 3.49-.718 1.942 1.743 4.208-.614.307-1.436-1.125-1.13 1.227-.715 1.845.616.415 1.638 2.668.718s.528-1.355 1.058-2.275l-.505-3.894 6.25-5.957 3.227-1.565 3.613-6.452 3.81-5.665 2.838-6.743 5.469-9.286 3.907-9.67z"/><path d="m545.924 390.334-4.112-.64-2.549 1.814 1.87 2.645 2.35.199 1.028-1.266-1.233-1.475 2.405-.103zm-16.547 113.361 1.082-.253s-.788-1.856-.788-1.91zm-5.727-3.195 1.917 1.086L528 499.62l.301-1.569-4.159.832zm8.713 5.398-1.267.727.973 1.182 1.76-1.182-.54-2.05z"/></g><path fill="#e0e2e5" d="m541.325 528.893-.643-1.37-2.344.192.487 1.57zm-11.75 2.696 2.302-.195 1.659 2.752.836-1.577 2.3-1.52 1.612.54-1.07-2.648-2.398-.153-1.328-1.317-1.467-.249-.246.977-1.268 1.677-4.261 2.004 1.027.737zm8.763 3.035.144 1.574 3.132 2.402 1.37-.88-1.172-2.994zm58.659 14.644-6.244-11.333.974-10.16 1.586-1.097.938-3.87 2.122-2.699.36-.856-.162-.45-1.285-2.188-.368 1.252-10.86-.312-4.82-3.078-5.031.11-2.662-1.341-2.26.615-2.77-2.46-.205 1.845-1.743-.304v1.12l1.532 1.344-2.451 1.638-1.233-.82-4.82-.205-.925-1.228-.722 2.665-2.457-.313-2.67.817-.408 2.264-1.738-.41-4.314 1.843-1.534 2.56.097 8.625 1.743.303.926-.715 2.458.205-1.233 1.946-1.946.208.21 3.492 2.254 3.483 3.792 3.486 1.328-.31.216-2.253 2.664-2.152 1.027 1.947-1.437 7.068v1.533l1.43-.514 4.195-2.473 3.228-.784 3.42 2.545 1.767-.195.578-2.35 1.965 1.472.96 1.953 1.769.096 4.206 2.642 1.365 3.122 2.548 1.274 2.043 2.934 4.785-1.96 4.05.583 2.02-3.023-.397-2.54 2.14-1.863zm-58.07-10.768-2.062-1.568-4.165-.34-1.118-.636-1.322 1.61-.829.298-1.323 1.622-.691-1.328-1.418-.439.048 1.08-1.316.537 1.81.589v1.319l-1.371.986v1.566l2.055.538 2.104 2.01-.734 2.064-1.117-.143-1.034 3.374 1.123.298 2.056-1.768-.048-1.373 1.864-3.678 3.714-.74 1.665-1.953 1.574-2.305 1.81.343.636-.343-.595-.826-1.316-.793z"/><path fill="#a4abb3" d="m603.26 579.56-1.857-2.537-1.46-3.904-.883-1.274-1.762-3.323.39-1.765-.78-2.241-1.172-1.07.583-1.28-.379-2.338-6.755-.983-4.785 1.96-2.043-2.934-2.548-1.274-1.365-3.122-4.206-2.642-1.769-.096-.96-1.953-1.965-1.472-.578 2.35-1.767.195-3.42-2.545-3.228.784-4.194 2.473-1.43.514v3.399l1.231 5.953-1.544 4.709-4.298 4.622h-3.19l-3.18-3.075-.415-2.364-6.353-6.765-.204-4.006-1.124.105-2.362 2.356-3.792.93-1.335 1.228-2.77.204-2.056 3.078.307 2.773-1.13-.411.108 4.715-3.588 4.21-.307 2.662.205 2.564-1.948 1.85 1.538 6.458 1.539 1.536.03.472 2.38-.697 1.034-2.75 3.823-3.486 6.112-1.466 4.736.46 3.215-.202 1.768 1.473 2.638-2.059 2.747-.39.583 1.665 2.338.096 2.254 2.543 4.207-.094 1.263.58 4.392-2.837 4.79 2.257 4.202.676 3.521 4.012 2.933.484 3.132 4.204 3.9.195 1.329 1.157.005-.006 4.304-1.954 5.668-.786.595-3.52 2.344-1.177.992-2.744 2.241-.53z"/><path fill="#c1c7cc" d="m826.228 57.373.738-1.373 3.667-2.51.493-1.857-.878-.095-2.945 2.112-1.713.532L824.124 56l1.082 1.662zm27.569 229.522.138 1.328.883 1.07 1.918-2.542-.103-1.963-1.767.349zm-38.82.688-.15 1.473h.931l.678-.833 3.036-.589 1.425-.98-3.433-.351zm43.807-16.231-1.272-.496-1.858 1.088.385.782 1.616.051zm12.094 2.506.391-1.379-2.007-1.03-1.276.883 1.179 1.47zm-9.105-3.435-2.009 1.32 1.81.538 1.179 1.23 2.5.59-1.083-2.653zm-13.079 18.383 1.965.25 1.226-1.566-.938-1.38-1.316.544zm-183.722 93.639-1.771-.385-1.714 1.836.085 1.867 2.025 1.857.607 1.184 1.107-.048.317-1.28-1.28-2.278.938-1.136zM601.217 498.86l-2.596-2.449c-.09 0-.968 2.4-.968 2.4l2.68 1.426zm136.006-156.217-.187-1.42-1.472-1.718-1.37.25-.055 1.415 1.768 1.68zM541.896 606.729l-1.664-.391-.488-2.635-1.856-.984-4.99 1.179-3.515-1.758-3.709-5.088-2.025.435v4.283l-2.29 2.961-7.643 1.583-1.272 2.287 2.544.961-5.27 6.071 17.225.964 15.193-1.493-.438-4.766 1.562-2.143z"/><path fill="#e0e2e5" d="m587.586 594.107-1.329-1.157-3.9-.195-3.132-4.204-2.933-.484-3.52-4.012-4.203-.676-4.79-2.257-4.392 2.837-1.263-.58-4.207.093-2.254-2.542-2.338-.096-.583-1.665-2.747.39-2.638 2.06-1.768-1.474-3.215.202-4.736-.46-6.112 1.466-3.823 3.486-1.034 2.75-2.38.697.277 4.045.92 3.384-1.125 1.953.685.379 4.628-.995 3.709 5.088 3.516 1.758 4.989-1.179 1.856.984.488 2.635 1.664.39 1.364 1.467-1.562 2.143.438 4.766 2.687-.262 3.035 2.444 1.845.195 1.473 4.982-.193 3.23 1.707 2.778 2.993-2.077 4.905-1.563 3.516 1.758 3.528-1.758 2.344-.2-1.37-3.914 3.913-.192 1.37-3.528 2.35-.775.974 1.56h2.938v-2.937l-3.528-1.76.794-4.102 1.952-.403 2.543-4.499 4.694-2.152v-2.743l-2.152-.977z"/><path fill="#d0d4d8" d="m600.501 586.664-2.343 1.177-.595 3.52-5.668.786-4.303 1.954-.006.006-3.132 4.102 2.152.977v2.743l-4.694 2.152-2.543 4.499-1.952.403-.794 4.101 3.528 1.761v2.937h-2.938l-.974-1.56-2.35.775-1.37 3.528-3.914.192 1.371 3.913-2.344.202-3.528 1.757-3.516-1.757-4.904 1.562-2.994 2.077.638 1.03 2.05 6.245 1.868 2.834.583 3.33 1.557 1.364.102 8.504-2.74.977-2.056 3.32 1.082 4.006 2.735 4.406-.109 1.334 2.152-.267 4.405 2.25 2.35-1.27 9.472-1.362 4.292-.199 2.842-2.346 1.66.096 3.323 1.854 7.826 1.175 3.317 1.662.583 1.569 4.694-1.857 2.241 2.046 1.858-.094 1.172-1.18 4.105.586 1.857.883 4.231-2.593 3.72.493.541 2.596 2.249.736 2.5-3.089 2.836-.144 2.297 1.511 3.906-1.175 2.344 2.059 2.94-.394.287-4.595 1.96-5.171 4.009-.398 5.757-1.466.36.084v-3.438l-3.13-3.524.384-3.714-2.728-4.307-.199-3.33 1.172-2.154 2.94 2.746 7.043-.988 2.741-4.496 1.55-1.37-3.503-2.353-.404-2.537-5.083-4.501-4.503-1.178-1.171-4.502-2.747-1.953-3.522-4.896-1.557-3.723-3.131-3.327v-4.107l-2.35-2.741.974-3.525-.782-3.134-5.877-2.152h-1.948l-1.568-1.953-3.913 1.177-3.528 2.732-2.543-4.502-2.938-.387-3.33 1.565-2.735-4.306-2.939 1.761-2.338-1.568-3.33.784z"/><path fill="#a4abb3" d="m564.14 685.75-.385-2.111 1.173-1.521-3.282-2.053-1.568-3.976-1.714-1.763-.156-6.221.192-2.284.109-1.334-2.735-4.406-1.082-4.006 2.056-3.32 2.74-.977-.101-8.504-1.558-1.364-.583-3.33-1.869-2.834-2.05-6.244-2.344-3.808.193-3.23-1.473-4.983-1.845-.195-3.035-2.444-2.687.262-15.193 1.493-17.225-.964-1.57.594-4.609 4.109-3.907.919-1.01-.92 3.895-2.154 3.588-3.693-1.238.096-2.867 2.872-5.03 2.366-5.848-1.64-1.232-3.187.925-2.25 3.083.405 1.437.929.096-.929-3.792-1.845-6.87-1.743-5.337 2.771-3.9-.31-3.998 1.539-2.463 3.387-3.895.096-2.459 2.777v2.154l-4.201.097-6.365 3.485-4.314.313-1.533 3.282-1.028 3.278-.92.52.198 1.334-1.334.07 1.443 6.081-.396 4.503-3.805 1.953v1.854l4.2 4.499-.486 2.738 1.96 2.545v2.052l1.165 2.83-1.082 2.342 2.446 5.572 1.797.988 1.623 2.106.187 7.213-.74 1.181.986 2.155 1.172-1.368 2.356.43 1.328-.685 5.523.838-.185 1.569 2.344 2.404 2.193-.3 2.008 1.715-1.31 2.996 1.075 1.617.98.541-.138 2.597 1.863.775 1.28-1.37h1.749l-3.125-4.1 1.267-.877 6.36 3.516 4.014-.493-.697 2.353 2.94 2.338 5.072-1.166 4.009 1.265 8.21 5.966 2.542 4.39 2.332.1 1.184-1.365 3.618.099 2.056 2.143.745 3.48.733.399 2.543-.1 1.616-2.45 2.159-.737 2.103.253h3.227l1.91 1.321 1.72-1.766 2.2-.29 2.103.977 1.714-.784 5.09.196 5.644 3.314 2.938.192.193-4.099-.583-3.714 8.3-9.286 1.178-4.099 2.044-2.154 2.259-.093.745-4.04-.98-1.664zm43.021 50.838 5.488 4.893.589 2.74 7.236 5.68.974 3.72 2.35 3.91-.583 12.724 1.76 3.72.187.325 1.947-1.445 2.241.687.103-2.45 2.536-4.693 1.365.196-.09-3.315.39-4.89 2.639-.099 3.516-1.166 2.145 1.753 4.01-.097.491-1.464-1.658-2.346.583-2.248-.487-2.443-3.9-2.347-3.336-3.03-.481-1.46-3.029-1.566.288-3.227-.883-4.787-3.414-1.755-4.207-4.202h-1.274l-.68 1.56-4.393-.487-4.207-3.816h-3.51l-1.959-3.126-1.077 1.073H605.9l-.878 1.377-2.638-1.569-.583.88-2.158-.88.59 3.621-.488 1.56.499 3.357 5.356-.935z"/><path fill="#d0d4d8" d="m542.4 711.394-5.09-.196-1.713.784-2.103-.976-2.2.289-1.72 1.766-1.91-1.321h-3.227l-2.104-.253-2.158.736-1.616 2.452-2.543.099-.733-.4.03.14-6.257-.588-2.927 2.64-3.413.294-3.81 3.804-4.99.689-5.186 1.856-1.263-1.072-3.137.096-3.222 2.157-.678-.156-.295 4.328.817 5.727 9.052 5.241 4.79.881 4.591-1.563 7.237-.688.379-2.54 3.817-1.27 4.392-3.712 3.818 4.01.294-2.54 2.44-1.953 2.343-3.616 4.502-.393 3.12.88 5.481-.394 4.201.977 3.612-2.344.59-4.6 2.794-5.933-.36-.024-5.644-3.314z"/><path fill="#e0e2e5" d="m446.718 725.752 1.268-1.464 3.715-.198.186-2.053 1.376-1.27 1.07-2.537 2.747 1.076 4.977.193 3.323 2.347 3.81.191 3.613-.78 2.344 1.757 5.283 1.22.678.156 3.222-2.157 3.137-.096 1.263 1.072 5.186-1.856 4.99-.689 3.81-3.804 3.413-.295 2.927-2.639 6.257.587-.775-3.618-2.056-2.143-3.618-.1-1.184 1.365-2.332-.099-2.542-4.39-8.21-5.965-4.01-1.266-5.072 1.166-2.939-2.338.697-2.353-4.015.493-6.359-3.516-1.267.878 3.125 4.099h-1.749l-1.28 1.37-1.863-.775.137-2.597-.978-.541-1.077-1.617 1.31-2.996-2.006-1.716-2.195.301-2.343-2.404.185-1.569-5.522-.838-1.329.685-2.356-.43-1.172 1.368-.985-2.155-.523.82-1.942-.976-1.766 1.178-4.208-.977v2.437l-2.242 1.37-1.953-.486-4.502.096-1.46 2.242-2.933.101-2.639 3.027-2.344.199-4.79 4.402-2.248-1.082-1.298-1.076-1.178.88.151 2.014 3.57 2.152 2.842 4.411-.198 3.288.74 2.01 2.644 1.476 4.658 3.185 2.632 1.764 5.44 6.278-.025.093 1.917.208z"/><path fill="#d0d4d8" d="m428.34 623.224 1.754-2.404 1.623.495.192-1.231-1.173-2.053.59-2.25-2.001-.398-.938.487-.878-.538-2.06.538.143 1.67 2.11.196-.583.683-1.67.98-.632 1.965.775.925 2.747.935zm23.745 51.194-1.623-2.106-1.797-.988-2.446-5.572 1.082-2.341-1.166-2.83v-2.053l-1.96-2.545.488-2.738-4.201-4.5v-1.853l3.805-1.953.396-4.503-1.443-6.082-2.458.136-1.64-1.443-2.255.313-2.463-1.954.516-2.568-1.544-2.354-2.771.514-3.39-3.381-2.35-.411-.925-1.437-1.227.613-2.975.306-2.77 1.954-1.028-1.025 1.406-1.42.458.36 1.021-1.089 2.819-1.12-3.528-.36-1.184.615-.313 1.386-2.71 1.376-.139 1.23-4.97.771-1.893 2.606-.458 1.941-2.818.259-.872-1.49-2.452-.245-1.22.559-3.425-1.024 2.404-1.641 1.634.258 1.791-2.145-.054-2.302-1.076-.61-2.151 1.69-.715.963-3.42-2.455-1.029-1.43-1.28.77-.715 1.426-2.09 1.54-.821-2.267-2.15-.619-.718-1.536 1.332-1.334 1.446-3.08-2.678-.3-2.617-2.823-2.39.415-1.469-.679-4.982-1.37-3.568.174.16.592-.21 2.25 1.847 1.23 1.44.102-.204 1.953 2.968 2.765-2.458.926h-2.254l.091 2.359 2.36-1.025v3.173l2.469 1.542-2.15 1.644v1.95l1.844 1.121 3.28.207 4.256 4.451 5.59 2.326-5.878-1.148-4.282-4.697-2.868 1.124-2.156-1.124-2.15.406-1.647 2.665.517 2.257.108 3.895 1.23 2.566-2.979-3.386.208-3.075-1.953-1.743-1.23.514v1.947l1.23 2.356-1.326 1.44-2.263-2.672v-3.07l-2.977-2.153-1.738.818-6.052 1.64-.517 2.67 1.235 2.358 2.967.514.621 2.56-.259-.087-.072.577-.78.99-.184 1.517-1.081 2.359-.049 2.653-1.757 1.467-2.83-1.272-1.176 2.64.393 1.754 3.318-.1 1.376 1.271-.787 1.666-.387 2.933-1.762 1.274 1.467 2.536-1.954 1.082-3.429-.787-3.612.88-1.655 2.738-1.758 2.145.8 3.943-.887 4.511-1.137 2.972.34.102-.88 1.954 2.046 4.21-.093 1.664 1.665 2.53-1.572 3.712h.883l3.225 4.012.585 2.93 1.468 1.274-.247 4.31.058-.016 2.536 1.953v1.665l2.346 1.957 2.249-.779h2.347l1.757.677 2.443-.782 3.218 1.47h2.552l2.635 1.758-3.034 3.125-1.464 4.111v2.05l-1.854 1.76-1.37 4.692.195 3.909 2.34 1.455 1.272 2.642-.072.023 2.223.664 2.446-1.376 3.321 1.184.977-1.662-.294-1.665 2.74-.976.978 2.641 1.658.478 1.364-1.262 1.86.096 3.718 2.734 1.358.92.7-.015 1.569-.784 2.428-.901 1.858 2.052 3.419.88.877-1.079-.288-1.853 3.612-.493 3.72.582 1.954 1.287 2.344-.596 2.152.688 2.33-.492 4.31-2.837 2.146-.288 3.132.883 3.035-.883 3.023 1.761 1.364-.977-.385-2.542-3.324-1.668v-1.756l3.619-4.588 3.126-1.544 1.562-2.7h2.157l-.143-2.695.468-2.455.025-.093-5.44-6.278-2.633-1.764-4.657-3.185-2.645-1.475-.739-2.011.198-3.288-2.843-4.411-3.569-2.152-.15-2.013 1.177-.88 1.299 1.075 2.247 1.082 4.79-4.402 2.344-.2 2.64-3.026 2.932-.101 1.46-2.242 4.502-.096 1.954.487 2.241-1.37v-2.438l4.207.977 1.767-1.178 1.942.977.523-.82.74-1.182z"/><g fill="#a4abb3"><path d="M381.477 608.435h-1.027l.1-1.848 1.54-1.334.214-2.05-1.332-.615.093-1.846 5.232-2.665-1.13-.926L387.12 595l1.125.715 2.776-1.025-.108-3.693-1.232-2.455 1.641-1.644 2.368-.313 1.635 1.845.925-.715 1.028.409.914-1.331.829-2.257-2.368-2.57-1.328 1.028-3.186-.099-1.533-1.637-1.441-2.161-1.331-.304 1.138-1.44v-2.767l-2.57-1.746-4.005.307-1.947.922-2.15-.3-1.027.922 2.256 3.074-.615 1.028 2.15 2.666-.203.823-2.053-.823-2.253.507-.412-1.226 1.44-1.539-1.44-2.566h-.718l-2.149 2.975 1.226 1.743-2.56 1.849-1.548-1.743h-2.247l-1.542-.827-1.845 1.956 2.87 2.152v2.566l-1.74-1.337-1.13.31.51 3.39 1.849 1.015v3.077l1.535 1.542-3.69 1.75-1.542 3.894 1.542 1.232 2.26-1.232 3.071 2.773.616 4.1-1.127.714.562 2.083 3.568-.174 4.982 1.37 1.47.68 2.39-.416-.15-.156.726-1.64zm12.009 4.688.974-.877-2.982-1.13z"/><path d="m392.855 596.656 2.104-.448.24-1.866-.98-3.475-.054 3.679zm3.017 7.494-1.761-3.81-1.845.294-2.94-1.568-4.105.784-.588 3.323 1.37 2.93 2.536 2.636 2.248.301 1.479.977 2.632-.493 1.653-3.225-.68-2.15zm-27.654-27.356 2.834 3.22-.585-3.523.586-1.848 4.49-2.843.588.496 2.248-.39 2.93.58 1.953-.686h2.636l2.256.98 1.467-.673 2.645-4.601-.595-2.83.498-1.17-.594-2.744 1.953-3.512-.39-.98-3.612 3.618-3.43 1.56-2.434.297-1.671 2.533-1.364 3.135-2.636 1.857h-2.93l-3.42 2.738-.976-.688-1.96.096-.874 2.93-2.055 2.05 1.27 1.075z"/><path d="m371.654 575.87.246 2.797 1.368-.65 2.151-2.454.393-1.758-2.152.144zm28.629-11.676h-2.933l-1.274 1.666 2.008-.052zm12.983 36.536v-.98l2.83-1.367.883-3.224-.294-2.93-.787-2.245-3.126.147-3.576.878-1.268 2.404.926 1.178 2.104 1.425-.193 1.424-1.412-.352-.595.686-2.44-1.662-.096-1.278-1.28-1.616-1.269.89-1.081 2.049-1.618.499.35 1.953 1.063 1.677-.139 2.791 1.563 1.909h1.719l3.132.835.486 1.229-1.178 1.422 1.034 1.42 2.056-.101 1.034-1.44-.097-1.857 2.837-1.172 1.364-1.274-.493-1.652-2.44-1.665zm3.516-1.463 1.856.583-.883-3.426zm29.96 4.743-2.446-1.47-.685 3.576.685 2.503 4.31 1.47.498-2.308zm-35.092 6.811-.494.395-2.206-.1-.878 2.058h-1.37l-1.718.544-2.495-3.534-1.31.346-1.082 1.716.931 1.178-1.52.583 1.075 1.52 3.865 1.326 3.823-.343 1.322-1.668.685 2.059.643.346-.06-2.158 1.226-2.353-.438-1.915zm-14.035-4.044-.661 3.723-1.082 2.146.487 1.277 1.472-2.05 1.557-3.134s-1.654-1.568-1.773-1.962m16.143 2.079-1.13 1.713.433 1.034 1.232-1.77 1.81-.34-.392-1.466z"/></g><g fill="#e0e2e5"><path d="m315.419 673.589 1.325-.348-1.024-1.44-2.35 1.028 1.583.096zm1.226-2.915.406.824 1.382.303.514-.667-2.506-1.022-1.9-.05.463 1.174z"/><path d="m354.605 643.926-2.049-1.845-3.8-1.96-3.995.62-2.36 2.058-2.262-.926-1.431.926-3.287.1-3.075 3.389-4.919 2.662-1.027-.721-2.876 1.133-.103 3.279-2.668 2.052.823 3.182-.62 2.873-1.126 2.353-.92 1.65-2.052 1.527.106 2.058 3.077 2.768 2.764.82h-3.074l-1.436 1.23-.923.817 1.226 1.545 1.545.207.096 1.331-2.461.105-2.254-2.365-2.359-1.127-2.257.929.82 1.23 2.155.203 1.95 1.849.716-.31 2.563 1.74-2.455-.917-1.542.096-3.693-1.228h-2.362l-.093.077 1.524.725 1.274 1.96h2.05l1.37 1.465 1.46-1.466 2.545-.486.58-.884 1.956-.192.788-1.957 4.595.096 1.56 1.566h2.346l1.27 1.857 3.617-.196 1.222 2.246-.15 1.719 2.3.718 1.136-2.972.886-4.51-.8-3.944 1.759-2.145 1.655-2.737 3.612-.881 3.43.787 1.953-1.082-1.467-2.536 1.762-1.274.387-2.933.787-1.666-1.376-1.27-3.318.099-.393-1.755 1.175-2.639 2.83 1.272 1.758-1.467.049-2.653 1.081-2.36.184-1.517.78-.989.072-.577-2.61-.832z"/></g><path fill="#a4abb3" d="m306.488 688.72 3.125 1.172.484 2.241 3.813 3.132 1.665-.102 1.66 1.373 1.856.875.199 3.718 2.833 1.466 1.467-.98h1.662l1.166 1.37 1.76.385 3.13 3.91 2.74.198 2.437 1.758 1.171-.775h1.957v-1.47l-1.076-.977v-1.857l-.88-1.172 1.47-1.953.78-2.353h.872l1.572-3.711-1.665-2.531.093-1.665-2.046-4.21.88-1.953-.34-.102-2.299-.718.15-1.72-1.222-2.244-3.618.195-1.269-1.857h-2.346l-1.56-1.566-4.595-.096-.788 1.957-1.956.192-.58.884-2.545.486-1.46 1.466-1.37-1.466h-2.05l-1.274-1.959-1.524-.725-2.777 2.18-1.85 3.359 1.562 1.154z"/><path fill="#e0e2e5" d="m346.94 706.895-1.467-1.274-.586-2.93-3.225-4.012h-1.755l-.78 2.353-1.47 1.953.88 1.172v1.857l1.076.977v1.47h.195l1.56 2.54 3.43.681 1.895-.477.246-4.31zM57.917 1049.367l-3.032 1.171-2.438-.195-2.15 1.66 1.462 2.256 2.153 1.367 4.297-3.128 2.833.093.685-3.615-2.737-.592zm-21.333 9.693.54 1.329.73.342.977-.684v-1.714l-.83-.294zm32.476-5.985h-2.55l-1.164 3.912 2.536 2.056 2.346-1.56 1.564-.589-.49-3.131zm17.874-4.49-.192 1.854-2.93 3.619 1.758.49 2.84-.785 2.924-4.105-.196-3.228zm-40.512 4.408-.147 1.113.932.84c-.1-.05.634-.594.634-.594l-.34-1.169zm-7.362-8.909.875 1.568.099 3.026c.098 0 1.562-1.07 1.562-1.07l.198-4.006s-1.367-.976-1.86-1.078c-.48-.093-.874 1.56-.874 1.56m268.668-169.167-2.632 1.754-.59 2.345 2.74.88 2.15 1.953 1.167-3.519 3.034-2.73-2.737-.2zm13.981-4.787-3.91.778-.589 1.857 4.4.39 2.148 1.172.688-1.366zM93.29 1039.401l-1.271 3.52 2.933-1.662 2.735-.394-2.248-1.566-2.148.102zM291.318 886.54l-.39 2.447 1.952 1.854 1.563-2.155 1.467-1.458-1.07-1.76zm17.498-45.097.352-3.351-.721-4.306 2.157-1.437-.167-1.469-1.701-.568-4.5-2.738-6.346.59-3.91-2.15-3.714.394-2.347-1.274-6.154.198-2.347 2.434-1.857-.97-3.714.099-3.027-3.128-2.738 1.271-2.541-2.741-5.38-2.142-4 .486.391-2.151-.49-2.837-1.662-.294-.291-.682-2.335-1.29-1.179.7-1.944.207-1.334 1.948-7.186-4.213h-2.359l-2.46 2.473-4.817-.929-.927-2.157-4.925-.408-6.563 2.773-4.408-1.028-9.646-1.536-3.484-1.947-.919-1.23-4.315 1.23-3.484 1.436-3.182-1.34h-2.768l-2.46 2.05-2.874-3.58-3.38-.723-2.059 1.433-.715-.92-4.925 2.765.31 1.854 1.637 1.125-2.046 1.543-4.306.506-1.75-.818-5.13 1.842-1.433 2.979 1.235 2.87 1.74-.61-.102 1.538 1.13.508-.722 3.801 1.028.408 2.152-2.051-.616 2.872 1.028 1.022-1.54 1.644 2.26.408-3.182 2.774.064.758 6.019-.953 2.284.63-.39 2.928 1.17 1.965 4.503-2.35 7.438 1.566 2.545-2.543 6.461.785.388 3.326 2.743 3.913-.784 2.738h-1.959l-5.094 4.89.592 3.527-.388 8.616-2.939 2.926 2.347 2.357-3.521 4.895-2.351-.4-3.326.785 3.527 6.66 3.132 1.953.192 5.48-4.306 4.307 1.96 3.907 2.935.201-.393 2.548-3.327 2.741-3.138 5.87 1.963 3.136.114 3.171 2.215.6 3.987.47 5.527 5.316-.559.865 2.605 6.242 4.5 4.45 4.398.725 3.988-2.158.103-2.196 1.887-1.69 5.018-.616 4.246-4.243 4.86-.616 2.244-1.23 5.554 1.546 3.69.411.92-1.127 2.365.1 2.26 1.748 2.148-1.848 1.331-2.365 2.564 2.269 2.873 1.329 3.179-5.133v-2.763l8.207-3.906 4.616-.21 1.126-1.731-1.126-1.127.514-3.997 4.303-6.064-.1-3.176 4.514-1.133 2.976-2.87-3.384-4.613-2.05-1.127-.622-2.666-2.257-3.903 1.542-1.945 5.232-8.723 2.767-1.335 3.901-6.662 1.431.511-.475.424.304.309 1.899-1.178.658-3.17-1.428-1.229 3.063-1.632 3.38-2.408 5.22.26 4.292-1.747c.258-.102 2.302-2.914 2.302-2.914l5.112-3.063z"/><g fill="#d0d4d8"><path d="m408.47 830.673 1.556.739-.535-1.233-1.022.494zm-7.146-9.803-.644.88-2.987 1.172-1.172 1.226 1.46.596 2.801-.977 2.152.092-.342-1.468zm-26.513 31.773.227-1.23 1.15-1.27-1.082-.935-.435 1.325-.83.47.096 1.763zm15.693 10.893 2.975-1.956.41-2.05-.717-3.182-1.742-1.95-1.954-3.591-1.027 1.03-2.354-1.848-2.051.205-4.926 5.854-2.151.093-3.078-1.845v2.975l-.51 1.947 2.146 2.158.52 2.05 1.739 1.54v3.174l-1.948 2.056.818 1.634 2.666.217v1.124l-1.64 1.944-1.23 4.724 1.133 1.74 1.33 5.542 2.06 2.151 1.012-.619 1.346.62 1.941-.82.203-3.079.822-1.847 2.567.207 1.64 1.64h1.545l1.017-1.944v-5.03l.51-1.433-.613-5.44 1.027-4.917zm66.064 72.871-.101 1.948 2.758 2.304 1.485-1.589-.054-2.047z"/><path d="m507.018 864.143-1.033-1.82-2.242-1.563-4.417-1.133-2.698-2.831-4.16-3.11-10.68-5.752-5.126-1.223h-2.772l-1.328-2.158.108-1.232 3.384-2.362.511-1.845-2.368-1.23-3.281.515-2.159-.617-5.12.028-1.743-1.058-2.518-.487-1.911-1.977-3.98-3.072-1.947-3.026-2.464-2.51-1.85-2.665-.097-2.773-1.13-.614-.21-2.361-8.811-8.922-1.647-2.257-3.276-1.743-5.956-3.18-1.437-2.05-.42-3.9-1.527-3.39 1.227-1.021 2.05-3.075-1.846-2.356-1.43-2.876 1.027-2.055 2.97-.408 2.765-2.459h2.974l1.954-1.947 1.85-.928 3.053.763-.66-4.622 1.76-2.737-.98-2.159 3.12-4.495-1.947-1.764-4.502.39-8.21-1.565-6.665-3.915.39-2.736-4.694.382-2.933-.778-7.049 4.108-4.503-1.95-2.74 3.326 1.371 4.307-5.283 1.171-.595 5.085-2.338-1.956-2.356.198-5.872-1.571v3.728l-2.741 4.884-1.368-2.735-4.3-2.149.385-3.136-3.131-1.96-4.89 8.424-3.527-1.566-5.283 3.912-3.132-1.178-1.175 1.371.394 3.326 2.545 2.347-.787 4.508-3.135.385-1.953 2.154 3.33 3.529.586 7.043 4.303 2.942h4.111l-1.764 4.103.928 2.911 6.489-1.145 2.358-2.972.097-2.26 6.978-3.894 9.033 2.361 2.662 1.743 3.98 1.167 1.13 2.164.769 1.45 1.093 2.087 2.464 4.005.11 2.357 2.144 1.33-.102 3.802 3.18 1.536 2.055 2.563 3.69 3.494.41 2.45 3.894.108 2.464 3.282.511 2.157 1.743.614 5.541 7.077 5.343 4 2.56.408 2.254 1.54.512 2.256h2.463l1.744-1.644 2.77 1.133 2.669.207 2.867 5.331 1.743 1.13 1.533-.619 2.265.83-.204 1.838 2.356-.104 2.464.207 1.737 2.26-.306 2.662-.614 1.13 1.335 1.331 2.776.213 1.118 2.254 3.492.82 1.538-.922 1.948 1.23 1.227 4.311.618 4.097 1.437 1.848 1.135 4.823 1.534 2.254-.103 2.458-1.43 1.75-1.083.047-.77.457.344 2.68-.343 2.555-1.61 1.848-1.635.913-.655 1.037.102 2.053 2.969 2.98 3.906-.324 1.942-2.656.523-2.873 3.69-2.978.313-6.257 2.254-2.362 2.35-.613.92-1.941-.71-1.235.438-3.486-.745-1.539-3.798-3.594-2.157-.303-.908-1.374-.012-2.016 1.953-1.329.463-2.05-.156-1.742 1.539-1.646.924-3.282 1.233-.776 1.845-.249 2.764 1.331.824 1.23 4.183.062 1.479.88-.337 2.032 1.136 2.489 1.874 2.362 2.406 1.003.113-.784.734-.589-.33-2.197 1.153-1.662z"/><path d="m465.176 901.987-1.443-.205-2.975-1.637-2.867 3.074-6.154-.406-5.03 1.536-3.588-.718-2.556-1.74-2.98.306-1.635 1.334-.926-1.228-3.293 1.53-.402 4.413 2.872 2.663 2.872-.508 5.121 3.486 2.777.722 2.566 2.767 6.053 2.254 1.226-.809 2.669 1.945.516 2.155 6.251 2.46 2.567-.409-.205-3.38 1.334-1.65-.307-2.978-2.463-3.375 2.463-6.571 2.46-2.257.51-3.592-2.044-2.46-3.39 3.278z"/></g><path fill="#e0e2e5" d="M401.275 751.452h-2.158l-2.338 2.154-2.824-2.74-1.665.679-2.14-.114-1.389-.078-.876-1.563.784-1.758.195-2.251-3.027-2.05-3.717-2.734-1.86-.096-1.364 1.262-1.659-.478-.977-2.641-2.74.976.294 1.665-.977 1.662-3.32-1.184-2.446 1.377-2.224-.665-4.324 1.346-2.44-.294-.785-1.764-3.128.204-1.749 2.15 2.83 1.457.484 2.548-2.442 1.07-2.637 3.426-2.052.784-3.519 5.571-.588 4.099.048 2.641-1.612-.095-1.565.778.294 2.152 2.93.288 3.33-1.361-1.27-3.33 1.853-1.656 4.012.19 1.365 2.548.976 3.32 1.565 1.266.424 2.274 2.918 1.097 5.284-3.912 3.527 1.566 4.89-8.424 3.131 1.96-.384 3.136 4.3 2.149 1.367 2.735 2.74-4.884v-3.728l5.873 1.57 2.355-.197 2.339 1.956.595-5.085 5.283-1.171-1.371-4.307 2.669-3.246z"/><path fill="#a4abb3" d="m477.1 753.702-1.461-2.539.295-2.548 1.166-3.122-2.44-2.831.59-1.172 5.858.096.5-2.738-.397-2.734-.259-1.825-.817-5.727.295-4.328-5.283-1.22-2.344-1.757-3.613.78-3.81-.191-3.323-2.347-4.977-.193-2.747-1.076-1.07 2.537-1.376 1.27-.186 2.053-3.715.198-1.268 1.464-6.84-3.906-1.917-.208-.468 2.455.143 2.696h-2.157l-1.562 2.699-3.126 1.544-3.618 4.589v1.755l3.324 1.668.384 2.542-1.364.977-3.023-1.761-3.035.883-3.132-.883-2.145.288-4.31 2.837-2.331.492-2.152-.687-2.344.595-1.953-1.287-3.72-.583-3.613.494.288 1.853-.877 1.08-3.42-.881-1.857-2.052-2.428.9-1.569.785-.7.015 1.667 1.13-.164 1.917 1.541 1.203-.09 2.53 2.14.114 1.665-.68 2.824 2.741 2.338-2.154h2.158l1.088 2.25.072-.08 4.502 1.95 7.05-4.108 2.933.778 4.693-.382-.39 2.736 6.666 3.915 8.209 1.566 4.502-.391 1.947 1.764-.006.009 2.146.237 6.07-.045 1.76 2.11 3.235-1.277h2.933l3.089-1.42 1.953-.245 1.419.144 5.932-3.327 3.305-1.079.608-.2 2.11-2.655z"/><path fill="#c1c7cc" d="m387.885 749.79.876 1.563 1.389.078.09-2.53-1.541-1.203-.03.334z"/><path fill="#e0e2e5" d="m448.04 778.864 2.735-.778 5.09 2.347 2.741-.198.788-4.691 4.297-2.164.589-3.516 8.228-4.31h5.872l-.595-5.081-3.402-3.916-3.305 1.08-5.932 3.326-1.42-.144-1.952.246-3.09 1.419h-2.932l-3.234 1.277-1.76-2.11-6.07.045-2.147-.237-3.113 4.486.98 2.158-1.761 2.738.66 4.622.223.062 2.662 1.224-.09 1.85-2.26.617-.095 2.464 4.771-.264 3.523-2.552z"/><g fill="#d0d4d8"><path d="m454.406 797.037 2.343 2.836-.293-1.953zm3.419 4.492 3.414 4.595-.679-2.344zm-.589-8.204-.09 1.854 2.537.685zm-7.621-3.618 1.755 2.83-.589.788 2.35 2.54 1.075-.196-1.171-3.516zm4.207 1.175 1.948-.785-3.906-5.857c-.205 0-1.371.974-1.371.974l.288 3.81 1.959.494zm27.935 29.411 2.35 1.265 4.106.303-1.768-1.665s-4.488 0-4.688.097M460.95 797.33l-1.556-.393 2.338 3.42.98-.685zm24.33 17.689-1.172-.782h-5.373l1.268 1.66 2.632.393z"/><path d="m511.016 783.31-1.37-1.173-.782-3.519-1.658-4.003-1.762-.976-2.146 2.731-4.982-1.755-7.044-1.175-2.145-1.662-2.837-1.07-5.566-5.283-2.416-.493.072.623h-5.871l-8.23 4.31-.588 3.515-4.297 2.164-.787 4.691-2.742.198-5.09-2.347-2.734.778-3.522 2.552-4.773.264-.011.301.828 5.34 3.073 2.867-.308 1.027 1.226 1.028 3.283-5.334.517-2.876 2.054-2.353 3.276-.11.727 2.67 2.668 2.152.812 4.006 1.953 3.787 4.1 3.798 1.033.208 2.356 2.565-2.055-.723-2.362.315-1.022 2.253 1.226 2.357h2.975l2.976 2.878 2.98 1.022 1.022 2.36 1.442 1.64 3.066-.613 5.968.484 3.28 1.644 6.577 6.78-1.845.21-3.09-1.644 1.647 2.055 2.82.64-.008-.012.986-2.35-9.477-10.65-10.952-9.574-.39-1.572.878-.973-1.761-2.248-.487-2.248-2.735-3.125-1.755.095-.096-1.95 1.076-1.076v-3.518l1.07-1.269 3.227 2.44 1.076 1.858 1.755-.387.102-1.858 2.434-.394 1.665.097 1.376-1.463 2.146 1.264 1.166-1.07 2.158.49 1.166 2.245 1.761-1.268 3.028 1.076 2.152-.884.68.884 3.323-.394 2.843 1.072 1.756-.29 2.74 2.253 3.804.093.343.421-.343-2.179 2.639-.976h1.262v-1.076z"/><path d="m482.743 818.826 2.825-1.37-6.93-.093z"/></g><path fill="#c1c7cc" d="m537.208 726.632-5.482.395-3.119-.881-4.502.393-2.343 3.616-2.44 1.953-.294 2.54-3.818-4.01-4.392 3.712-3.817 1.27-.38 2.54-7.236.688-4.59 1.563-4.791-.88-9.052-5.242.259 1.825.396 2.734-.499 2.738-5.859-.096-.59 1.172 2.441 2.83-1.166 3.123-.295 2.548 1.461 2.54-2.11 2.653-.607.201 3.402 3.916.523 4.46 2.416.493 5.565 5.282 2.838 1.07 2.145 1.662 7.044 1.175 4.982 1.755 2.146-2.731 1.473.805 1.875-2.086 3.12-1.59 2.259.325.817-1.277 3.228-2.726 2.061.691 2.837.635 1.917.667 2.687-2.777 2.35-.68 1.274-2.346 3.612.289 2.44-2.339-.09-2.64 4.784-7.138 2.831-8.306 2.831-5.274 3.233-.592 1.371-3.027-1.274-3.32-3.42-2.251-3.216-3.038-3.035 1.965-4.2-.977z"/><path fill="#b2b9c0" d="m506.917 823.177.084-3.618 1.081-2.725 1.96-.199 2.043-1.081-.883-1.954-2.44-1.565-.09-2.047 1.652-1.175 2.843 1.95 2.146.688 1.166-1.168-3.023-3.522v-2.93l1.274-.878 2.338 1.265.985-1.556L516.48 801l-2.044-.099-3.906-3.122-.102-1.864 2.74-4.105.379-3.518-1.647-.094-1.178.88-1.076-1.37-3.804-.093-2.74-2.253-1.756.29-2.843-1.072-3.323.394-.68-.884-2.151.884-3.03-1.076-1.76 1.268-1.166-2.244-2.158-.49-1.166 1.07-2.146-1.266-1.376 1.464-1.665-.097-2.434.394-.102 1.858-1.756.387-1.075-1.857-3.227-2.44-1.07 1.268v3.518l-1.076 1.076.096 1.95 1.755-.095 2.735 3.125.487 2.248 1.76 2.248-.877.973.39 1.572 10.951 9.574 9.478 10.65-.985 2.35.006.012 1.706.388 5.098.83 1.43-.728 2.879 3.901 1.298-.688 1.569-2.94z"/><path fill="#a4abb3" d="m518.24 830.216 2.843-3.42.968.195 1.665 2.44 2.343-2.93.397-1.463 2.05-1.758-.205-3.038-3.408-.577-2.157-2.059h-3.03l-1.268-1.463v-2.146l-2.867-2.798-.258.252-2.146-.687-2.843-1.951-1.653 1.175.09 2.047 2.441 1.565.883 1.954-2.043 1.081-1.96.199-1.081 2.725-.084 3.618-1.57 2.94-1.297.688.925 1.235 2.663 1.127 5.084 6.364.41 2.06 3.01 1.508.247-4.977 1.85-3.906z"/><path fill="#d0d4d8" d="m638.246 777.353-2.212 1.613-4.988-.102-3.726-.778-2.344-4.11-1.761-3.721.582-12.724-2.35-3.91-.973-3.72-7.236-5.68-.59-2.74-5.487-4.893-1.562-6.067-8.493 1.484-3.125 1.96-9.094 1.553-2.241 2.642-2.838.202-4.297 1.367-2.837-1.367-1.268-2.155-3.624-1.656-3.81-.102-4.881-2.837h-2.632l-1.767 1.665-2.675.102.337.874-1.37 3.027-3.234.592-2.83 5.274-2.832 8.306-4.783 7.137.09 2.641-2.441 2.339-3.612-.29-1.274 2.348-2.35.679-2.687 2.777 2.495.859.83 1.713 4.344 5.148.89 2.404 3.522 1.857 3.576 2.702-1.569 3.387.541 1.418 4.478 1.478 1.274 2.248 2.83-1.169 2.152 1.954 2.248-3.033 4.695.983-2.254 2.54.396 2.046.824 2.897 3.666.33 1.76 1.467-.197 2.056-.98 1.463 1.479 2.443 3.31-2.155 3.625.201 1.46 1.56 1.37-.39 4.689 1.76 3.907-1.856 2.638.78 2.248-.982 2.74.983h2.35l5.074.586 1.664-1.166 3.414-1.076 1.178-1.96 8.011-3.713 3.529-.59 4.194.397 4.43 1.833 1.425 1.524 2.578-.98 3.534 1.665.583 1.373 3.227.157-.95-3.264 1.437-2.458.21-4.006-1.13-1.953 1.744-1.842.715-2.873 4.724-.313 2.86-.607 1.954-3.492v-2.05l-1.43-1.12 1.394-1.407-2.284-1.89z"/><path fill="#a4abb3" d="m629.399 802.695-3.534-1.665-2.578.98-1.425-1.524-4.43-1.833-4.194-.397-3.529.59-8.01 3.714-1.18 1.96-3.413 1.075-1.664 1.166-5.074-.586h-2.35l-2.74-.983-2.248.983-2.638-.781-3.907 1.857-4.688-1.762-1.37.391-1.461-1.56-3.624-.2-3.311 2.154-1.48-2.443.98-1.463.198-2.056-1.76-1.466-3.666-.331.739 2.578-2.146 2.154 1.365 5.467 3.9 4.01 1.87 3.518-.878 2.735-4.796 4.402.289 2.242 1.76 2.738-.871 2.443h-.198l5.475 4.297 3.605 6.355.488 3.22.499 2.722.09-.081 1.37.688 4.49.1 3.425-.884 2.344-2.245 3.324.58 3.516-.096.39 2.248 2.543.2 1.857-1.472h2.632l2.35 1.368 2.64-1.269 5.769.397 1.755-1.472-1.076-2.344.198-3.126 3.228-2.446h1.629l.018-.15 2.164-2.35 2.151-.195 1.563-1.761h3.912l3.72 2.93 1.954-1.569 3.017.763-.012-.196-2.05-3.281-2.668-3.9-2.253-.304-.523-1.437 3.798-2.872.926-2.666-.62-5.953 3.697-3.28 2.458.305 1.743-1.643.517-5.125-.18-.633-3.228-.157z"/><path fill="#c1c7cc" d="m551.567 831.688-2.536-.4-5.278 1.275-2.248 1.656-2.83.784-3.174 1.767.15 2.167-1.076 1.12-.228-.448-.655 4.664 1.022 5.05 2.151 3.783 1.42 3.182 2.884 2.059.036-.283 5.373-3.32 3.816-1.368.2-1.172 2.836-1.569 6.73.298 3.132-1.953 2.44-.097 1.672-1.487-.5-2.722-.487-3.22-3.605-6.355-5.475-4.297h-1.96z"/><path fill="#d0d4d8" d="m532.899 870.674.204-3.129 5.367-1.755 2.152-3.906.547-3.537-2.885-2.059-1.419-3.182-2.15-3.783-1.023-5.05.655-4.664-.613-1.216.048-4.174-.83-2.01-2.782-1.816-1.226-.286-1.815-3.044-1.022-.718-.048.156-2.343 2.93-1.665-2.44-.968-.195-2.843 3.42-1.851 3.906-.247 4.977 3.979 1.983-.415 2.05-1.238.625-1.226 5.955 1.635 4.307-1.233 2.882v3.279l1.443 2.473-1.021 3.08 1.436 1.647 4.928.202 2.459 6.37 2.392 1.647 1.767-.926 1.85-4z"/><g fill="#e0e2e5"><path d="M586.907 913.304v2.248c.107 0 1.178-.685 1.178-.685l.053-1.23zm1.713 3.865-1.221.89 1.221.877zm-1.659-5.341-.98-1.328-.83 1.034.44.883zm9.682-41.63 1.67-1.814-1.369-.734-1.37 1.271-.926-.78-2.158.047-.685 1.031.637 2.056 1.214 1.03 1.094-.192 1.563.682zm-20.26 15.642-.439-1.71-1.418-.493-.83.238 2.248 2.897zm12.585 40.206.397-1.425-1.761-.048-1.287 1.87 1.18.144zm4.94-15.79 1.124.052.06-1.47-2.313-2.064-1.07-1.668-1.226.102-.686 1.181 1.226 1.028 2.885 2.84zm-3.618-19.659-.246-2.26-1.376-.483-1.124-1.226-.931.34 1.375 2.256.68.192.74 1.53zm-6.564 13.091 2.009 1.325 1.124-.637 1.28.679.979-2.74-2.403-.244-.783.583-1.815-1.764.248-2.004-.385-1.377-.06-1.127-1.124-2.06-3.228-3.235-.295.445-1.76-.102-.3-.54-2.297-1.225-2.344-.883-2.055-2.253-3.433.543-1.904 1.666 1.165.236 2.352-.093 1.28 1.08.54.88 1.22.54 1.07 1.473 1.67.391 1.07 1.662 2.452 1.331 1.761-.144.691 1.12 1.708 2.597 1.081 1.033-.252 1.47zm21.884-4.652 1.474 1.12 1.856-.888.487-2.197-.583-3.33-.643-.65-1.658-.679-1.564.833v.88l1.75 1.326.065 2.007-1.232.49.049 1.088zm6.113-19.326-2.837.441-1.466.932-3.03 1.076-1.225 2.067 2.006 1.663.836.096 1.263-.29.294-1.619.637-1.569 1.965-.053-.205 1.676-1.117.926-.74 1.076 1.857.877 2.706-.192.041-2.843-.444-1.956-.63-.094.54-1.526zm13.956 57.172v-1.325l-.74 1.22.403.592zm-15.128-25.844.445-1.37-2.838.543-.396 1.474.884 1.126zm-8.168-49.416-.048-1.226-1.665-.442-1.82.247-.488.931 2.554 1.028zm-30.165 21.574-1.016.727.926 1.184.678-1.325zm24.425 36.226 1.179 1.034 1.28-1.815-.59-1.373h-1.322zm2.254-8.186-1.167-1.13-1.273.445 1.13 1.277 1.515.688zm-11.498-51.864 1.719-.842-.252-1.473-1.852-.928-1.082.393-.78 2.453 1.508-.048zm31.868 47.802-.44.528-1.61-1.313-1.576-.153-2.253 1.815-.583.983 1.424-.394 1.466-.105 1.13 1.286 1.316.05.638-.792 1.52-.733-.294-1.031zm-6.217 18.232-.636.982 1.225.935c-.052-.051 1.708-.785 1.708-.785l.896-1.42-1.082-.497zm11.89 12.654-1.46 1.81.834 1.676.44 2.746.822-.396.992-2.548-1.28-1.671-.349-1.617zm-10.759 5.247-.74 1.078-.1 1.368-1.66 1.382-1.178-1.036-1.418.54-1.413-.195.295-1.277-.697-1.76-1.311.044-3.684-.493-2.879-1.274-3.823.15-3.179 2.011-2.446.64-2.056-1.078-.985-1.082-1.617.24 1.13-1.02-.98-1.625-2.11.15.396 1.029.686.2-.78.68-2.014.096-.487-2.004-.637-.202-.241 1.133.343 1.364-1.004.352-.877-1.67-.133 1.934-.847 1.716.241 2.04 1.959.873 4.526-.578 1.856.487 1.821-.63 2.687.775 2.933 1.72.355 1.756 3.371-.14 2.795-1.762 3.119.298 4.996-.151 3.437.1 1.953-1.232.836-1.909-.439-1.86zm-8.913-77.91.397-1.473-1.274-.838-1.42 1.087-1.964.046-.535 1.076 2.103.835z"/><path d="m573.546 911.42-1.082-.3-2.253-1.437.203-1.328-2.674-2.056 2.567-1.124 2.362.105 1.436-1.226 3.684 2.555.421 1.13 2.56.312.722-1.539-2.254-3.293.612-3.074-.925-1.743-6.256-3.904-1.948-.505-.925-1.544-1.744.11-1.129-1.433-2.663-.315-2.668-2.359 2.867-.412 1.64-1.941-.102-1.44-2.668-.724 1.442-1.842-.108-1.538 2.067.774 1.683 1.38-.667 1.488.216 1.427 1.48-.354.919-3.168-1.792-2.149-4.11-5.036-1.737-1.337-.409-1.849-3.179-2.662 1.124-1.434-.511-5.343 1.748-2.762 3.276-.723.41 2.671h-1.533l.306 1.434 4.207 1.947.408 3.281 2.67 2.158 2.968-.102-2.151-1.434-1.13-2.058.409-1.845 2.77.926 2.152 2.977 1.845.716 1.034-1.747-2.056-1.532-1.845-.724.102-1.539 5.03.207 1.834 1.845.83-.922-2.88-2.668-2.975-.409-2.452-2.867 1.442-1.644 2.657.817 2.152-1.223 1.04-3.596 1.929-.716 2.981 2.254 2.26.207 2.457-2.566.11-1.331h1.13l1.838 2.152h5.547l4.147 1.084 2.952-.733 1.557-3.128-.583-2.936 3.522-2.156.197-3.326-2.747-1.178.566-3.561h-1.63l-3.227 2.446-.198 3.126 1.076 2.344-1.756 1.472-5.77-.397-2.637 1.269-2.35-1.368h-2.633l-1.857 1.473-2.542-.201-.39-2.248-3.517.096-3.324-.58-2.344 2.245-3.425.883-4.49-.099-1.37-.688-.09.081-1.671 1.487-2.441.097-3.132 1.953-6.73-.298-2.837 1.569-.199 1.172-3.816 1.367-5.373 3.321-.036.283-.548 3.537-2.15 3.906-5.367 1.755-.205 3.129-1.851 4-1.768.925.289.198.199 3.907 4.94 3.696 2.777 4.027 1.334.31-.306 1.229 3.798 5.336.92 3.688 1.742.718 2.26-2.767 2.056 2.563 3.167.409 1.34-2.05 2.26.208 3.589 2.15 2.151-1.02.403 1.847 1.755-.11 1.436 1.132 2.873.514-2.056 1.23-1.845 1.838-1.839-1.529-2.464-.614-5.343-3.485-2.356.811-2.254 1.334-2.362-1.12-1.954 2.46-1.43.41-.92 2.361 2.867 3.279 2.982 1.433 2.86 2.671.307 1.946-1.117 1.33.197 2.57 2.47 3.18 1.636 1.847.72-1.748-.613-1.332 1.022-2.362.92 2.976 3.588 1.538.824 1.947-.511 2.26 1.539 1.849v-3.803l1.328-3.073h2.265l1.016 2.46 4.01 2.672-1.642-2.768.409-1.847-1.437-2.675-1.857-4.402-1.628-2.565.102-1.036 1.64-.195 2.97 1.541-.92 1.125.92 1.027 1.545-1.643 3.077 1.024.102-1.024-1.233-.929zm59.188 14.481-.293-.985-1.13-.048-.933.985 1.179.385zm1.659 3.532-2.945 2.449-.18 1.424.434.529-.681 1.478.836.88 1.124-.194 1.214-1.47 1.466-1.425 1.281-.05-.048-.878.726-1.184.494-1.463.931-.74.15-1.37-1.718.733-3.084 1.28zm88.363 8.831-1.557.103-4.201 2.635-6.058 2.347-3.529.187-2.728-1.362h-2.639l-.096 1.758-.775 1.761-1.857.592-2.644-1.085-1.66 1.96-1.568.39v3.026l1.76 2.54 3.131 1.86 3.71-.195 1.562.973 1.558-1.268 3.13-.682 2.843-2.642 2.05-.976 3.61.39.2-2.536-1.07-2.45 3.023-3.518 3.131-1.944 1.467-1.085zM526.75 878.676l-1.52-1.71.096-2.654-1.226-.778-2.344.884.198 1.373 1.424.586.181.782 2.398 2.551 2.212 1.03.637-.492-.301-.928zm75.633 41.29 1.22-1.568-.294-1.425-1.214-.252-1.918 1.677.926 1.518zm-2.007-6.034 1.22-.73-1.172-.34zm-62.663-11.227 1.617.886.829-1.325-.54-.733-.337-1.283-1.178-1.214.342-1.136-.835-1.911-1.52-1.272-.037 3.285-1.178-.198-1.622.448v2.845l1.225 1.268.686-.733.047-1.382.644.697v1.517zm31.77 25.618-.463.569-.715 1.635.787 1.28-.072 1.436 1.317.667.95-1.956-1.359-1.822z"/><path d="m537.394 893.654.824-1.025-.379-2.301-.938.167-1.201 2.182.15.908.71.27zm31.47 32.71-.24 1.121.98.025zm-29.047-20.371-1.66-.785-1.08.538-.392 1.479 1.851 1.854 1.52.397.344-.887 1.67.25-1.027-1.185z"/></g><path fill="#e0e2e5" d="m765.765 717.061-3.906-2.74.883-5.86 2.83-.592 2.25-3.023-.092-3.618-1.87-1.076-1.165-3.126-2.056 2.053-4.093-.782-3.527-2.154-2.927.49-2.542-1.56-3.613-.105-4.892-1.073-1.857 1.857-1.262-2.635-4.207-2.636-3.03-6.647-2.146.294-4.591 3.513-2.939-.583-3.126.877-3.81-2.058-2.446 2.74-6.154-5.961-1.46-4.394v-3.717l-2.544-.391-.39-2.83-2.74-2.341-7.526 1.072-3.715-4.883 1.57-3.038-2.832-2.341-2.06-6.257-3.126-.192-3.414 1.857h-6.948l-6.737-2.245-2.056 1.855.288 2.827-3.119.682-2.181-.499-.36-.084-5.758 1.466-4.01.398-1.959 5.171-.288 4.595-2.94.394-2.344-2.059-3.906 1.175-2.296-1.511-2.837.144-2.5 3.089-2.249-.736-.54-2.596-3.72-.493-4.231 2.593-1.857-.883-4.106-.587-1.171 1.181-1.858.094-2.24-2.046-4.695 1.857-.583-1.57-3.318-1.66-7.825-1.176-3.323-1.854-1.66-.096-2.843 2.346-4.291.2-9.472 1.36-2.35 1.271-4.406-2.25-2.151.267-.192 2.284.156 6.221 1.714 1.763 1.568 3.976 3.282 2.053-1.173 1.52.385 2.113.98 1.665-.746 4.039-2.26.093-2.043 2.154-1.178 4.1-8.3 9.285.583 3.714-.193 4.1-2.577-.169-2.795 5.933-.59 4.6-.576.38 3.215 3.037 3.42 2.25.937 2.447 2.675-.102 1.767-1.665h2.632l4.88 2.837 3.81.102 3.625 1.656 1.268 2.155 2.838 1.367 4.297-1.367 2.837-.202 2.242-2.642 9.093-1.553 3.125-1.96 3.137-.549-.499-3.357.487-1.56-.589-3.62 2.158.88.583-.88 2.638 1.568.878-1.377h2.933l1.076-1.072 1.96 3.125h3.51l4.206 3.816 4.393.487.68-1.56h1.274l4.207 4.202 3.415 1.755.883 4.787-.289 3.227 3.028 1.566.482 1.46 3.336 3.03 3.9 2.347.487 2.443-.583 2.248 1.66 2.346-.494 1.464-4.008.097-2.145-1.753-3.518 1.166-2.638.1-.39 4.889.09 3.315-1.365-.196-2.537 4.694-.102 2.45-2.24-.688-1.948 1.445 2.158 3.786 3.726.778 4.989.102 2.21-1.613 4.208-.403 2.284 1.89.037-.036.51-2.36-1.322-1.637.3-1.638.109-1.956 1.129 1.74h1.738l5.12-6.149-.81-1.74h1.435l2.771-3.594v-3.386l1.948-1.536 3.179-.2 2.668-3.391 1.533 1.436-.096.716h2.458l1.13-1.536 1.13-1.845.92 1.539 1.64 1.226 2.067.72 4.098-1.018-2.873 1.735-1.729.925-2.459-.775-4.706.616h-3.01l1.171 1.689h4.911l3.985 1.325-.566 1.024-1.479.93 1.996 1.73 1.886.156 2.465 1.431 2.861-1.485 3.27-.562 3.072 1.331 2.145 1.236 1.022-1.95 1.268.585.612 3.387 1.534 1.848-1.123.715-4.01.716-4.82 2.873-2.765 4.207 2.356 1.022 1.857-1.533 2.964 1.433 1.537-.204 4.321 3.381.2 1.953-1.64 4.922-.722 1.025 2.362 1.845 4.921.202 4.712-2.152 6.263-4.721 4.31.11 2.356-3.28 3.173-1.749 5.337.923 4.622-.407 1.635-1.95-1.225-2.458 1.334-1.133 1.014-1.746-3.575-.196-4.316.506-1.028 2.77-2.56-1.638-1.538.097-2.267 2.361-1.532-.613-6.563-7.184-1.022-3.588-2.056-2.865-1.117.713 1.322 3.483 4.718 5.742 4.515 4.312-1.336.722-3.084-.926-1.531-1.641-.614-3.08-1.436-.925-1.629 1.538.397-2.151h-1.225l-1.233.823-.109-1.233 1.342-1.64-.926-1.334-1.533.817-1.653-1.228-1.634-1.942-4.304.3-1.748-1.124.408-1.13 2.974.512 1.642-1.539 1.953 1.436h2.867l.409-1.638 2.464-.412 4.11-4.311.512-1.537 1.43.926.409 1.127-2.662 3.18-1.028.615.619 1.233 1.634-.926 2.873-4.102.62-1.74-1.54-1.953-.824-1.64 1.233-.1 1.743 2.972 1.742.306 2.772-1.745 3.588.82 2.26-1.74 2.771-.307 1.027.307 2.867-3.08 1.436-2.052 2.982-.202 1.124-2.353 1.743-1.34 3.378.31 3.39-1.44 1.436.201.299 1.443 2.55-.9.024-.24.78-6.112 1.75-.787 2.934-4.69 6.544-.386 2.44-1.857-.487-3.426 1.665-4.979z"/><path fill="#a4abb3" d="m287.92 825.134 1.793-1.096 1.744-.435 2.174 1.14.35 1.271-3.715.394z"/><path fill="none" d="m1080.43 1023.012.036-.046 10.121-13.826z"/><path fill="none" d="m1080.43 1023.012.036-.046 10.121-13.826z"/><path fill="#c1c7cc" d="m882.382 272.92-1.37 2.21 1.124.345 1.471-1.133 3.818-1.223.984-1.319-2.451-.689zm-75.688-147.199-1.22-.24-1.574 1.96-.824 2.151.433.983-.781 1.078-2.248.593-.097.88 2.933 2.942 2.453 1.278 1.13-.737.678-1.565 1.864-1.034 3.468-2.75 2.741-.983 2.794.298 1.275 1.178-.098 1.322-1.177.096-1.665-1.367h-1.52l-.92 1.563-3.624 2.16-1.473 2.212-.534 2.35.733 2.254-.59 1.082s-.143 1.373-.21 1.307l4.01.099 3.9-1.957 3.227-1.466 2.542.595 1.27 1.554 3.034.685 2.044-1.17-1.166-1.468.192-1.954 1.172.394 1.27 2.638 2.245 1.17h3.913l.687-1.468 2.054-.486 1.36-3.324-.187-2.926 1.76-2.934.38-2.445-1.846-1.66-1.467-3.323-2.542-.59h-1.857l-.987-1.264 1.57-.782 2.151.59 1.756-.59 1.466 2.143v1.665l1.376.784 1.262-1.76-1.076-4.004-2.83-3.81-2.632-3.718.78-1.47 1.852 2.153.39 1.956 2.543 1.172 2.35.682.68-1.56-.295-1.76-1.076-1.07.197-1.668 1.558-2.738-.295-2.536-2.049-2.54-2.825-3.522 1.947-.288 2.158 1.953 1.85-.492 1.071-2.93-.68-.782-1.76-.102.198-3.411 1.652-.493 2.356 1.663 3.512 1.363 1.08-1.562-1.959-1.265-.288-1.467 2.145.097 1.564.784 1.959-1.761.192-2.735-.883-.976.492-1.083 3.521-1.658.674-1.953-2.24-1.464-1.083-1.959 1.383-2.341 1.266 2.341 1.66-1.364 3.804-4.887.98-3.03 1.57-1.468.384-3.321 3.911-2.44 2.153-3.808 1.562-4.89 2.153-.2 4.976-3.715 5.48-6.247 4.394-3.522 1.558-.29 3.622-3.124 4.298-1.278 2.542-2.049 3.812-4.688 2.145-1.37 1.473.294 2.049-.88.205-1.758-.788-1.275 1.262-2.536-.385-2.247v-3.718l-.877-.68-1.76-.293-.283-3.424 1.357-3.326-.78-1.169-2.741-.387L909 5.97l-2.548-.394-1.466-1.953-.139-2.2L903.82 0l-3.082 1.965-.536 1.376-1.665-.591-2.103-.983-2.247.637-3.33 2.155-.74 2.359-1.616 1.27-1.954.4-1.581 1.662-.287 1.917-2.008 2.206-.235 1.365 1.604 2.698.157 1.815h-2.308l-1.173 1.374v1.962l-1.32.931-1.563 2.01-4.7 3.09-1.665 1.374-1.075-.496-2.255-.04-2.062 1.512-2.2 3.387-2.007 1.33-1.076-.738-.889-1.965h-1.064l-.403 1.767.403 2.99-.883.928-.837-2.347-1.268-2.26-4.11.439-5.097 1.377-1.027.988-1.978.364-.78 1.397 1.537 3.46 1.13 1.096-.294 1.178-1.285.487-1.654 2.35-1.082-.382.145-1.52.986-1.085v-1.906h-1.72l-2.205 3.036-1.953 1.418.09 1.911 1.718.886-1.37 1.08-1.07 2.16-3 .048-1.657 1.374-.385 1.617-2.459.829-1.52 1.572-.536 3.78.74.877 1.61.295-1.959 1.911-4.008.048-1.473 1.178-.542 3.531.405 2.056 1.262.057 1.965-.352.823 1.136-.432 1.367.294 2.26-1.81 1.467-1.67-.586-3.234-.733-2.884 1.517-.734 1.86.048 1.914-1.173 2.306-2.445 2.06-1.918-1.033-1.418-1.815-.685-1.854-1.022.538-.74 3.429.542 2.942 2.397 1.965 1.714-.544.878.346.144 1.767-1.263 2.837.38 1.28 1.67.88 1.371-1.623 1.172-.038 1.082.83 2.687.047 1.717-1.175.782.688-.927 1.857-2.102.493-3.24-.051-1.225 1.565-1.562-.633-.974 1.716.883 2.842 2.102 1.181 1.756.391 1.809-.734.842.833-.643 1.028-2.987 1.28-3.18-.099-1.568 1.124-.241 1.473 1.275.927 2.343-.339 2.693.24v.939l-1.66.628-2.692.45.15 1.422.878.544 3.324.432 3.773 2.407 2.147.833v.79l.246 1.713-1.803-2.067-2.698-1.173-2.393-.144-2.205-1.376-2.35-.048-1.563 1.52-.445 1.764-1.075.974.095 1.479.98 1.178-.343 1.222-1.274.49zm84.119 125.918.397-2.053-1.37-.785-.09 3.325zm3.234.294-.59 1.37 2.742 2.642 4.399 3.119-.492-3.026-4.298-2.257zm8.895 11.137c-.096-.099 1.653-2.05 1.653-2.05l-2.145.388zm4.592-17.102 1.37-2.638-.69-4.295-4.983-3.128-3.125-3.519-2.73-.298-2.931-3.026-2.844-1.562-.877-1.857-3.427-2.537-1.85-.1-1.46 1.17.192 1.467-1.865 1.562 1.576 2.248 2.242.39-.488 1.275-1.37.49-1.96-1.665-1.069.189.98 2.254 4.687 5.274 2.64 1.47 1.755 2.442 1.272.2.2-3.039 1.959.878 2.338-.29.782 1.077.883 3.32-.493 1.175 1.562 1.57 3.517.576 1.364-1.857z"/><path fill="#c1c7cc" d="M865.637 223.201h1.514l1.768-2.254.68-1.67-.091-1.455-2.933-2.154-1.564.784-2.157-.592-1.954-3.525h-2.74l-4.502-3.52-1.574-2.734h-2.927l-3.324-5.874-4.7-5.68-1.767-5.873-2.548-4.303-.193-6.66-1.953-3.912-1.172-7.431-.594-1.767 1.243-2.26-.3-1.662-2.35-.58-2.043.977-1.665-1.265.588-.89 3.708.298 3.024-1.858.498-5.18-.583-2.347-2.343.48-2.445.691.978-1.171 3.606-1.368.697-1.56-1.082-1.177h-4.981l-6.552-.977-2.542-1.66h-2.146l-4.79 3.123h-4.592l-1.653 1.38-3.522 2.53-.294 3.026-.878 1.758.68 2.642 2.35.294.972.977-.588 1.47-2.434-.1-2.844.884-2.246 3.903-.193 3.027 1.275 1.472 2.145-.688 3.42-1.854.582 1.174-2.44 2.146-.487 2.248h1.467l1.755-2.145 1.761-.494.589 1.176-2.151 1.953-.494 1.953 1.954 2.149h2.741l-1.57.884-1.85.095-1.76 1.665.094 1.858 1.468 2.73-1.166.984-1.37-.688-2.447.688-1.96-1.088-1.755.21-2.343 2.927.096 2.738.78 3.41-.588 3.033.691 2.443 3.613 3.032.102 1.66 3.611 2.83 2.441.98 1.37-.775 2.152-.593 2.248-3.42-.877-3.618.582-2.632 1.665-2.447-1.268 3.129-.102 1.95 1.165 1.857.992 3.522 1.653.487 1.761-1.27v-1.855l1.46-2.74.697 1.373-.408 1.172.102 2.443 2.645 4.102 3.119 1.854 2.158-.09 1.863-1.274 1.262.682-.68 1.07h-1.472l-.883 1.664-1.84 1.173-.497 1.568 2.44 2.146.198 1.956-1.564.1-1.568-.488.097 1.662 1.471 1.458 4.01.4 2.728 1.267 2.74-.687 3.414 1.373-.186-2.446 1.557.492.883 1.65 1.053 3.735 2.116 1.72 1.808-.148 1.858-2.206-.59-2.797-3.522-1.57-1.227-.783 1.179-.686 1.96.442 2.644 1.62 1.165 1.962 1.233 2.693.974-.093.637-2.305 1.076-.448 1.561 2.161 2.988 1.469 1.924-.192v-1.623l-2.26-1.863v-1.127l1.13-.49 2.735 1.476 1.027 1.271.782.048.882 2.548 1.618 1.13 1.22-.682.492-2.16-1.08-2.065-1.66-.09-1.37-1.088.487-.928z"/><path fill="#c1c7cc" d="m821.24 211.181-3.024-.98-.59-1.758-1.76-.977-3.125.295-1.857 1.86.397 1.46 1.85.977 1.371-.484 1.953.773.198 2.452 2.248.484 1.953 2.83 1.077.494.197-1.56-1.274-1.66 1.274-2.156zm-18.073 62.737v-3.125l-2.544-2.938-9.765-4.1-4.501-.784-2.832 1.76-1.66 5.572-.1 6.74 1.657 3.033.788 3.42.877-.688 2.056 1.175-.786 1.857h2.054l2.056-1.857 2.825-.199 3.624-3.03 2.447-3.022v-4.691l1.657-1.764.975 2.35-.787 3.705zM628.262 834.25l.173.8.003.18.062.043.08.105.053.13-.02.114-.114.072-.126-.024-.232-.1-.204.01-.162.09-.105.225-.038.413.074.444.184.303.225.257.203.302.236.746.144.222.227.21.104.123.06.173.032.03.032.047.015.101-.031.062-.069-.005-.06.01-.01.103.092.26.172.301.2.25.355.21.183.24.264.435.684.649 1.884 1.182 2.691 1.155 3.825 1.83 1.232.278.066.026.028.038.034.034.08.015.096-.035.078-.155.086-.034.292.044.314.12.19.184-.116.41-.163.305-.217.282-.213.125-.142.046.031.11.102.128.074.137.078.116.024.025.062.045-.024.094-.053.08-.027.005-.045.324-.089.293-.116.253-.132.205-.102.083-.221.071-.102.076-.097.145-.019.087.006.067.013.076.037.056-.002.09-.073.09-.056.016-.268-.021-.107-.092-.07-.015-.071.044-.11.148-.04.033-.136.036-.227.153-.493.103-.12.044-.07.055-.053.07-.078.062-.145.037-.304-.015-.145-.05-.061-.103-.135-.122-.31-.014-1.492.193-.373-.157.103-.517-.146-.154-.087-.052-.115-.027.087-.372-.126-.33-.254-.232-.3-.076.063.24.269.278.099.277.004.166-.031.236-.084.229-.152.144-.36-.051-.642-.66-.316-.164-.412-.073-.863-.316-.431-.071h-.424l-.101-.038-.135-.16-.104-.037-.462.11-.222.013-.086-.051-.117-.072-.595.23-.092.056-.121-.001-.689.286-.183.047-.213.112-.195.143-.134.137-.276.45-.082.212.018.132-.223.069-1.002-.12-.186-.126-.176-.148-.203-.123-.486-.137-.477-.028-2.655.385-.386.228-.267.549-.312 1.312-.27.499-1.17 1.15-.532.938-1.115.823-.07.079-.129.195-.056.061-.134.046-.3.04-.343.223-.58-.011-.262.035-.21.174-.363.51-.145.106-.326.045-.17.024-.475.144-.721.45-.187.176-.218.15-.767.113-.232.142-.403.354-.17.07-.14.097-.112.484-.131.197-.402.22-.082.123-.025.272-.077.264-.188.217-.682.627-.087.062-.364.09-.164.134-.263.269-.003.06-.062.062-.326.392-.225.185-.284.176-.296.131-.258.052-.17.136.041.298.156.305.18.147-.595.563-.186.14-.495.283-.376.353-.153.095-.659.23-.132.013-.118-.088.031-.192.1-.194.072-.088.204-.156.14-.34.096-.342.068-.157.56-.784.152-.583-.063-.444-.236-.346-.37-.288.13-.107.04-.109-.055-.084-.158-.034-.058-.073.113-.155.163-.14.082-.024.141-.13.638-.246.245-.008.186-.328.617-.398.585-.488.732-.272.55-.472.354-.227.387-.178.34-.08.583.073.174-.073.167-.181.262-.408.18-.2.29.145.4-.132.353-.294.153-.343-.38-.809-.1-.147-.122.02-.825.131-.29.143-.166.05h-.85l-.337.106-.95.562-.355-.237-.197-.074-.206-.023-.17.063-.195.113-.193.067-.332-.168-.21.023-.666.194-2.303-.014-.323-.056-.18-.104-.104-.25-.078-.298-.106-.248.09-.249-.035-.357-.125-.358-.185-.253.095-.025.039-.03.468.047.381-.186.276-.33.106-.436.19-.3.668-.578-.086-.18.009-.107.036-.056.123-.059-.044-.014-.032-.004-.016-.027.009-.077.111-.03.055-.038.012-.086v-.171l.06.156.016.067h.085l.089-.094.073-.15.101-.326h.076l.044.093.064.074.087.05.106.018.165-.047-.008-.106-.075-.114-.036-.07.15-.152.355-.169.175-.136.124-.166-.036-.057-.12-.058-.13-.167-.036-.145.035-.105.107-.065.187-.022.105-.087.086-.193-.01-.192-.33-.16-.107-.175-.173-.37-.033-.237.211-.427-.088-.075-.186-.053v-.134l.232-.364-.148-.285-.038-.291.055-.32.13-.36-.192-.285.14-.13.786-.08.213-.11.327-.296.347-.224.07-.078.03-.074.054-.053.131-.02.633-.675.129.165.236.135.268.07.232-.023.16-.16.113-.282.06-.346-.002-.349-.053-.332-.202-.806-.062-.616-.212.081-.437.146-.4-.291-.582-.182-.218-.4.028-1.718.109-.208.037-.242-.196-.051-.219-.094-.478-.123-.335-.312-.221-.07-.326.03-.126-.176-.087-.333.047-.36.176-.4.514-.45 1.278.055.594-.182.167-.229.102-.304.053-.302.011-.12.008-.1.014-.088.054-.146.01-.093-.038-.057-.15-.095-.022-.065.051-.109.078-.077.091-.069.358-.384.202-.144.222-.027 1.17.195.238-.027.126-.093.269-.27.149-.045.117.058.23.2.136.038.103-.052.127-.107.15-.128.134-.084.136-.004.118.044.114.002.134-.135.128-.055.234.038.107-.029.14-.165.1-.201.112-.171.173-.073.24-.166.276-.518.298-.152.017.001.219.004.226.071.21.122.192.155.139-.013.278.013.301.08.054-.023.01-.058.032-.067.277-.371.156-.125.272-.038.436.102.397.237.338.336 2.837 2.329-.033-.023-.039-.021-.034-.025-.017-.04.267-.094.126-.083.102-.134.093.071h.066l.044-.081.03-.167.967-.251.459.017.978.125.028-.163v-.226l.038-.168.05-.02.049-.007.05.007.05.02.237-.038.114.006.307.078.33.161.169.053.607-.07.188.06z"/><path fill="#a4abb3" d="m901.914 743.9 1.48.147 1.556-2.16h1.28l.925.832.74-.439.631-1.959 1.91-1.911 3.535-.048 1.262.871h1.719l1.021-.871.637.682-.143 2.055 1.268 1.572.883-.88 1.617-.097.198 1.13 1.75.672L952 698.679l-44.387-42.13-1.029.115-.384 1.656-1.762 1.86-.102-2.34-1.857 1.169-.679 2.052-2.542 1.47-1.37-1.368 1.863-2.25.385-1.762-3.228-1.37-4.009-2.344-.68 1.764.68 2.437-.384 2.443-2.843-.784-2.044 1.572-1.28 3.618-1.845.09-4.009 2.549-.884 3.122 1.96 2.443v3.224h-4.4l-4.201.488 3.125 10.848-1.652 1.366.48 4.109-4.207.39-4.092-2.545-.884-2.44-7.23-6.545-1.966 2.542v3.417l-3.606 4.496-2.639 1.27.68 6.645 2.061 2.053-1.183 8.408-2.05 4.688 5.577 2.149 2.35 3.807-.89 2.05 4.395 3.713 1.08-2.049 8.794 2.444 6.257 5.865 5.468 9.184h-5.174l-.294 2.248 4.982 3.324 3.522-1.179 3.323 2.14.127.081.89-.083.69 1.373 1.87.048.878-1.421 1.172.102.931 1.03 1.033-1.03.44-1.576 1.261.208 2.302-1.917z"/><path fill="#c1c7cc" d="m902.48 659.009 1.856-1.17.103 2.342 1.761-1.86.384-1.657 1.029-.114-3.786-3.594 68.108-2.95 37.473 20.593 13.046-9.31-22.469-19.392 3.225-38.077 35.472-14.923-4.013-27.72-58.303-40.98 31.297-25.302-5.684-14.826-22.198-1.707s16.606-25.445 16.222-29.029-38.257-95.828-38.257-95.828l15.966-39.95s3.74-23.15 2.416-21.723c-1.323 1.427-1.725-32.635-1.725-32.635s-1.018-2.329-2.486-5.456l-1.378-.188-.51-2.566-2.057-.205-2.253-2.053-3.901 1.437-2.56 2.254-1.335-2.978.92-1.434-.715-1.848-8.625-3.176-3.894-2.666-13.019-.715-10.259 1.433-2.56-.817-2.675.408-2.253-1.538-1.125.61-2.265-.508-1.628 1.533 1.32 2.876v2.26l-2.871 1.028v1.12l1.947 3.08 1.845 1.025 1.437 4.926 1.34 2.253.517-2.355 1.634.198 2.26 4.411.307 2.47 3.076.815 3.698 4.006-3.595-.62-1.233-1.126-2.055.204-1.124 4.517-2.566 1.746-3.696-1.652-1.918 1.508-.21 1.53 2.874 3.428 1.014.977-.054 1.64-1.43 1.579-6.852-.304-1.58-1.999.565-2.103-1.293-2.705 2.213-2.043-.048-1.482-2.723-2.66-2.098-.82 2.05-2.356-.505-.92-2.044 1.076-1.437.109-3.576 3.522-2.11.457-2.5 2.208-.251 1.485-3.378.298-1.431 1.589v1.74l-2.098 1.532h-5.884l-1.994-.769-1.227.67-1.791-.108-1.592-1.23-3.566 2.258-.774 1.431-2.765.46-2.302 2.509.06 1.222 1.984 1.428-.656 1.692.56 1.586-.871 1.124-2.188-1.64-1.185-1.837-1.334.21-2.813 3.267-1.328 3.327v-3.216l-2.813-1.08-1.893 1.225-1.791-.045-1.785.508-2.26-.463-.559-2.197 2.77-2.656 2.7-.106 1.124-1.94-1.833-2.868.62-1.072 1.724-.968-3.113-2.921-1.527.82-1.853-.405-.918-1.284 5.018-2.352 2.037-.15 2.71-1.383-.503-1.08-4.863.716-7.158 3.068-2.146 1.74.97 1.23.816 2.508.997 1.623-1.496 1.984-1.653.48-2.512-2.752.913-1.265.932-.535-.427-1.707-.835.03-5.008 4.935.17 1.222 2.02 2.068 1.58.718-.307 1.942-3.119 3.077-1.484-1.031.967-1.581-.505-2.097-.968-.106-.306-2.043-5.277 1.634-.662 1.738-3.683 1.74-2.97-.562-1.616.853v1.536l-5.542 6.776-1.54.412-5.03 6.148-2.253 1.23-2.056-1.944h-1.322l1.125 2.668 3.587 2.665.614 2.05-4.41-1.641-1.131 1.538-7.285.923-1.425 1.025 2.038 2.57.114 2.457-1.744 3.078 1.232 4.099-.925 2.875-4.82 2.152-.716 1.442h-2.878l-1.232 1.638-1.64-2.971-3.583 2.56h-2.47l-5.427-7.077-5.65-4.718-1.953-1.025.21-4.006.716-1.533 1.436.82 1.13-1.953-.41-1.538 1.33-1.434 4.207-.102 1.232-1.842 4.826.096.505-2.052-3.792-4.817-.517-2.152-3.078-.412-2.873-3.383.102-2.462-3.378-2.16-7.28-.719-5.029.418-2.163 1.127-3.281.102-5.535-3.696h-3.084l.108 1.442 6.672 5.434 3.895 2.767 2.054 5.747v3.073l1.43 1.849-1.122.925-.103 2.56.614 1.954-1.028.814v6.158l-1.017 3.491 1.124 3.381 3.997-.207 2.976 1.75 1.952 2.153-.516 1.332.516 1.842-.516 1.334.101 1.539 1.233.928-.925 1.948.107 6.26-1.135 1.535 1.856 3.594.403 4.92-1.742-1.539-1.028-3.38-3.384-2.57-3.282 3.074.409-2.867-1.437-1.848-4.207-.51-3.89.51-2.661-2.149-3.396-.517-1.845 1.437-3.077 6.563-4.411 3.594-3.18.61-2.26 2.155-.823 3.492-2.969 3.996-3.697 2.972-.306 2.363 1.437 4.002 5.955 6.152 3.583 5.343-2.05 2.354-2.05.098.097 2.876-2.35 1.948-1.437 2.256-3.593-3.486-8.614-4.108-2.98-.303-.926-1.746-4.713-.202-2.457-2.052-1.858-2.87-3.785-.724-3.084-2.053-3.072.109-.618 1.74.817 1.749-.613 1.529.92 1.446-1.743 1.736-2.663-.2 1.952 3.69.71 2.977 3.69 1.74 2.368 3.18 3.282 1.64 2.561-1.12 1.545.093 2.145-1.53.314 2.146 2.993 1.145.149 1.025-.926 1.328 2.049 1.785-.203 4.24-1.635.728-2.255.2-2.92 3.177-1.479-.108-2.398-2.25-3.888-.103-1.738-1.484-4.248-.048-1.226-.977-.307-3.32-2.356-1.482-1.845-2.506-1.07-.157-2.5 2.047-5.421-1.99-1.226-2.203-1.281-1.328 1.125-2.149-.523-3.155v-2.566l-2.675-1.95.102-2.251-3.684-3.595-.211-3.076-2.151-.62.51-2.356 2.057-.718.408-4.31-.21-2.662-.92-.313.205-1.848.925-1.638-1.442-.309-2.975-4.105-6.15-2.56-1.64 1.229-1.34-1.43h-2.146l-1.124.814-3.185-.514 1.13-1.539 2.668-.406.715-2.05-2.974-.308v-.82l1.952-.827-1.851-1.331-1.851 1.228-4.405 1.13-.625-.717 1.232-1.641 2.675-1.34-.825-.914-4.001-.923-.717-2.059-3.179-2.049-.612-3.895-2.88-1.95.62-.82 2.458-.1.722.821 3.49.31.512 2.56 5.843 4.826 1.85.205.511-.929 2.771 1.95h4.418l.504-1.124 1.75 1.948-1.648 1.12 1.028.827v1.536l2.668.102 1.239-1.335 4.303.106-1.136.612 2.368.307 2.656-.409-.102 1.644 3.391 3.282 2.043-1.437 2.26.722.516 1.331 3.733.04 2.247.666 1.996-1.436 3.228 2.305 4.44 1.274 7.85.436 6.155-.721.818-1.128h4.003l1.946-1.538 4.406-.818 3.696-1.953 5.133-6.968.516-1.858 2.97-3.79v-1.845l.92-2.052.618-4-.102-3.189-.102-3.377-1.028-1.025-1.022.307-2.163-3.39-1.634-1.025-.921-3.38-2.879-2.976-2.355-.513-.613 1.229-3.084-1.44.306-1.73-5.432-3.802.209-2.57-2.872-2.87h-1.442l.62 1.335 2.15 3.18-1.953.816-3.384-3.074-2.145-.207-3.895-3.588h-1.334v1.13l.504 1.538-2.055-.513-3.173-4.722-2.561-.814-1.948-2.26-9.34-6.157-13.853-7.38-3.173-1.335-.414 1.124-2.868-1.743-3.287-.718.306 1.337-2.048 1.124-2.664-1.022-3.907-.207-1.737-2.36-2.56-1.13-.108.722 1.441 1.948-.413 1.238-1.845-1.341-2.77.31-1.024 1.03.507 1.732-1.744 3.29-2.867.307 1.635-2.56 1.648-1.037-.927-1.125h-2.054l.51-1.538.727-1.022-1.13-.615-1.232 1.228-2.26 2.87v-1.74l.307-1.027-.71-.821-1.207 1.638-.715.196-.259-1.993-2.242-.767-2.158 1.837-.66-2.399-1.077-.772-1.838 1.8-.77-2.413.06-2.963 1.425-1.893.15 1.689 2.05 2.095 3.172-.413 2.037.93 2.364-1.849-.211-1.433-1.634-1.019-.668-.919-2.05-.869-1.063 1.022-1.437-1.23-1.436-1.989-2.699-1.277-2.567-.261-.565.874.926 1.533.817.252v1.028l-1.634.354-1.539-.306-.048 1.022 2.296 1.59-1.172.603-1.785-.195-1.083 1.788-.359 3.378-1.172-1.695.047-2.66-1.13-1.024-2.914-.349-.054.084.126 2.777-1.671 2.107-2.783-1.121-2.254.195.289 3.873-2.104 2.84-3.227.448-3.625 3.477-.107 4.76-1.612.277.007.108-3.576 1.422-2.206 1.517 2.182.736-.59 3.618-.979 4.598 1.857 2.242 2.344 6.16 1.851.289 3.708 2.052 2.062 3.128 1.07 2.543 6.166 3.91 1.665 1.56-1.28 4.005-2.735 4.4-2.26 6.452 3.234 3.513 1.172 3.816 5.572 10.263 6.064 14.064-2.452.586-.583 8.801.102 2.344 2.645.68-1.87 2.443v4.496l1.76 2.25 3.331.583 1.166 2.545-1.076 1.269.198 4.976 1.473 3.138 4.092 2.834.3 4.005-2.542 3.516-1.081 4.006 6.27 8.796 3.503 1.178 5.865 6.734.879 4.105-3.907 9.67-5.47 9.286-2.837 6.744-3.81 5.665-3.613 6.452-3.227 1.565-6.25 5.957.486 3.729.042.009c.235-.373.452-.661.626-.722.62-.207 3.804-2.052 3.804-2.052l2.963-.517-1.947 1.644.926 1.746v2.362l-2.97-2.465-.517 1.74 3.187 3.493 3.179.204 1.737 2.563h3.076l1.233-.51h2.158l2.355 3.38-1.64 2.059-4.003-1.34-1.64.618-.717 2.36-3.281 2.467-2.668-1.641-1.539 1.226.21 2.669-2.464.817-1.13-2.254-1.232.41v1.538l1.233 2.058-.847 2.951.053.255 1.232 2.107.162.45-.36.858-2.122 2.698-.938 3.87-1.586 1.097-.974 10.16 6.244 11.333v2.734l-2.139 1.863.397 2.54-2.02 3.023 2.705.4.379 2.338-.583 1.28 1.171 1.07.781 2.241-.39 1.765 1.762 3.323.883 1.274 1.46 3.904 1.857 2.536.475 3.832 1.088-.256 2.338 1.57 2.939-1.762 2.734 4.306 3.331-1.565 2.94.387 2.541 4.502 3.528-2.732 3.912-1.178 1.569 1.953h1.947l5.878 2.152.782 3.135-.974 3.524 2.35 2.742v4.107l3.13 3.327 1.557 3.723 3.522 4.896 2.747 1.953 1.172 4.501 4.502 1.179 5.084 4.501.403 2.536 3.504 2.354-1.55 1.37-2.742 4.495-7.043.99-2.939-2.747-1.173 2.154.2 3.33 2.727 4.307-.383 3.713 3.13 3.526v3.437l2.182.5 3.12-.683-.29-2.827 2.057-1.855 6.737 2.245h6.948l3.413-1.857 3.127.192 2.06 6.257 2.832 2.34-1.57 3.04 3.715 4.882 7.525-1.072 2.74 2.34.391 2.83 2.544.392v3.717l1.46 4.394 6.154 5.961 2.445-2.74 3.81 2.058 3.127-.877 2.939.582 4.59-3.512 2.147-.294 3.03 6.647 4.207 2.636 1.262 2.635 1.857-1.857 4.892 1.072 3.612.106 2.542 1.56 2.928-.49 3.527 2.154 4.093.782 2.056-2.053 1.165 3.125 1.87 1.077.091 3.618-2.25 3.023-2.83.592-.883 5.86 3.907 2.74.595 3.904-1.665 4.98.486 3.425-2.44 1.857-6.544.385-2.934 4.69-1.749.788-.78 6.112.053.145.547-.195 2.765.513 2.981-2.05 3.588-.516.829 1.44-.727 2.046-7.08 3.804-2.97 2.05 1.335 1.322h1.738l-1.738 1.957-3.293-.614-4.61.614 1.845 4.002 1.953 1.948 1.431-1.23.726 1.434 2.765.82v1.128l-1.748.415-1.125 1.637-1.845-.304-1.13 1.025v1.025l-2.872 2.866v2.78l1.334.92-.62 3.895-2.667-.403-.614.403-2.157-1.641-2.968-.715-.11 1.229 1.028 1.956-2.044.914-1.85 1.545 3.18.408 1.544-.102 3.69 3.077.204 2.055 2.975 3.075 5.03-.412 5.237 3.18 3.576.919 8.714 6.362 1.754 3.29 2.464.815.813 1.64 2.163 1.843 2.146.105 1.94-3.111 4.143.922 2.42-.387 7.924 2.69 5.853 2.086 10.407.447 3.482 1.935 5.515 1.161 5.61 3.192.387 4.838 2.384 1.934 4.194-2.321 3.607-1.777 3.745.81 4.644-.678 1.915 2.322-.85 1.934 2.108.968 2.573 1.567 2.09 1.045 1.742.387.87.87 2.902 1.796h2.224l1.936 2.135 1.838-.931.968 1.036h1.354l1.213.827 3.912.393 6.263 5.088 1.766 3.326 6.251.592 1.179-2.35 3.917-2.16 4.575-5.536.114-.243-1.214-.877-7.23-5.86-5.08-6.26-.884-3.904-2.048-2.344-.294-3.91-.788-1.857-.39-1.466h-1.858l.288-2.347 1.377.591.685-2.547 1.07-2.242-1.562.096-1.365 1.271-3.132-1.953v-4.49l-2.529-.784-1.763-2.152-1.663.487-2.248-.289-1.274-4.694.883-2.446 1.46-1.076v-4.979l1.082-2.155.885-2.83 1.46-.983.582-3.023 1.214-2.137.097-1.722 1.37.49 1.316 1.088 1.082-.592.59-1.572 1.123 1.127 1.322-1.028h1.803l1.87-1.373-.397-1.127-1.954-.736 1.274-.102s.878.54 1.226.54c.343 0 2.098-.54 2.098-.54l1.274 1.274.986-.878-.54-1.518-3.913-2.253 1.756-.4 2.5.688.985-.336 2.145.534v-1.62l-1.268-.831 1.466-.1-.047-1.517-1.173-1.03 2.05-.395.15-1.421.138-1.073.115-.012v-.033l-3.324-2.14-3.522 1.179-4.983-3.324.294-2.248h5.175l-5.47-9.184-6.255-5.866-8.794-2.443-1.081 2.049-4.393-3.714.889-2.05-2.35-3.806-5.578-2.149 2.05-4.688 1.183-8.409-2.06-2.052-.68-6.644 2.64-1.271 3.604-4.496v-3.417l1.967-2.542 7.23 6.545.884 2.44 4.092 2.546 4.207-.392-.48-4.108 1.652-1.366-3.125-10.848 4.201-.488h4.4v-3.224l-1.96-2.443.884-3.122 4.008-2.55 1.845-.09 1.281-3.617 2.043-1.572 2.844.784.383-2.443-.68-2.437.68-1.764 4.01 2.344 3.227 1.37-.385 1.761-1.863 2.251 1.37 1.368 2.543-1.47zM363.647 717.35l-3.218-1.47-2.443.782-1.757-.677h-2.347l-2.25.779-2.345-1.957v-1.665l-2.536-1.953-1.954.493-3.429-.682-1.56-2.54h-2.151l-1.173.776-2.436-1.758-2.74-.198-3.13-3.91-1.76-.385-1.166-1.37h-1.662l-1.467.98-2.833-1.466-.199-3.718-1.856-.874-1.66-1.374-1.665.102-3.813-3.131-.484-2.242-3.125-1.172-.586-4.69-1.562-1.155-.407.745-4.816 1.641-1.13-.923-3.902 2.257-.925 2.666.622 3.18-.826 5.024-3.895 3.798v1.641l-4.312 1.23-2.25.101-2.465-.82-5.13 2.768-1.226 2.362.92 1.64 2.361.82-3.182 2.255-3.898.82-5.33-.712-2.36-1.235-1.95 1.127-.823-1.845-1.744-1.335.818-2.152-2.149-1.024-2.256.82-3.18-.108-1.434-.616.92 3.08-.507 1.335 4.51 4.21-.82 1.328.612 2.056-.51 2.046 1.433 1.851.307 2.35-4.718-.613-2.047.724-1.95-.517-2.36.614-.925-.918-2.969 2.459-3.798-5.028-2.155-.715-3.185.715-2.56 2.36-1.332-.713-1.539 1.43-1.334-.919-2.773.307-1.74 1.745-4.106.307-1.845 2.155 1.028 1.74 2.356-.818 2.362.719.619.925-2.57-.517-1.538.204.922 2.57.821-1.953 1.644.613.41 1.749-1.54.612-2.458.926.1.719h2.358l1.025 2.867-.303 1.64 2.768-1.845 1.943.514 1.647-.31 4.307 1.75.922 1.532h1.743l2.978 1.953 2.148-1.953 1.335.313-.51 1.538.72.923 2.254-1.334 1.331 1.334-1.025 2.663 1.236 1.947 1.644.105 2.56-1.641 2.764.312 1.75 2.354-2.161-1.232-2.462.102-1.531 2.157 1.432.611.511 2.671-1.229 2.254.514 1.743 2.25.312 3.39 4.205 3.282.513 3.183 1.843-.105 2.364 1.229 1.942-1.025 2.668-.619.313-.61 2.362 2.254.505 4.101 3.185 3.187 7.69-3.493-3.386-.92-3.282-2.77-1.436-1.334.927-1.332 6.77.1 4.92 2.157 1.44-1.75 1.334-.714 9.229-2.458 8-3.134 1.863 2.335 1.29.291.682 1.662.294.49 2.837-.391 2.151 4-.487 5.38 2.143 2.541 2.741 2.738-1.271 3.027 3.128 3.713-.1 1.858.971 2.347-2.434 6.154-.198 1.794-1.096 1.745-.435 2.173 1.14.349 1.271 3.91 2.15 6.346-.59 4.5 2.738 1.7.568-.144-1.304-1.022-3.895 1.022-4.618.312-2.255 3.07-2.773 4.723-5.027 1.541-.1 1.536 1.121 3.074.418 3.285 1.947h2.254l2.055-1.64 1.948-.203 8.206 5.13 2.254 1.948 6.06.307 2.559-2.153-.517-1.34 2.359-2.972 8.52-6.358.486-.088-.928-2.911 1.764-4.103h-4.11l-4.304-2.942-.586-7.043-3.33-3.529 1.953-2.154 3.135-.385.787-4.508-2.545-2.347-.394-3.326 1.175-1.37.213.08-.424-2.274-1.565-1.266-.976-3.32-1.365-2.548-4.012-.19-1.854 1.656 1.271 3.33-3.329 1.361-2.93-.289-.295-2.151 1.565-.778 1.612.095-.049-2.641.59-4.099 3.519-5.571 2.051-.784 2.637-3.426 2.443-1.07-.485-2.548-2.83-1.458 1.749-2.149 3.128-.204.785 1.764 2.44.294 4.396-1.37-1.272-2.641-2.34-1.455-.196-3.91 1.37-4.69 1.855-1.762v-2.049l1.464-4.11 3.034-3.126-2.635-1.758zm26.709 117.493-2.317-2.043.037-1.316.416-1.107-.07-1.524-.183-.95-.924 1.089-.831.415v1.039l.277 1.107-3.116.624-.07 1.454-1.8 2.562-.276 4.293 2.63 4.154-.069 1.246 2.929 2.397 2.337-1.085v-3.343l.34-.952-.408-3.615z"/></svg>