<svg xmlns="http://www.w3.org/2000/svg" viewBox="0 0 350 690"><path fill="#c1c7cc" d="M0 118.226h350v27.639H0z"/><path fill="#dfe2e4" d="M0 145.866h350v522.967H0z"/><path fill="#71767c" d="M20.069 28.23H329.93c11.077 0 20.069 8.993 20.069 20.069v69.927H0V48.299C0 37.223 8.993 28.23 20.069 28.23"/><path fill="#71767c" d="m125.539 15.37-11.72 12.35v28.74h-58.2v-.08h-4.97V27.64l-11.72-12.35C33.459 9.5 37.559 0 45.539 0h63.31v.08h10.08c7.98 0 12.08 9.5 6.61 15.29m178.308 653.463h44.025v3.82c0 10.006-8.123 18.129-18.129 18.129h-7.767c-10.006 0-18.129-8.123-18.129-18.129zM0 668.833h44.025v3.82c0 10.006-8.123 18.129-18.129 18.129h-7.767C8.123 690.782 0 682.659 0 672.653z"/><path fill="#a2aab1" d="M132.867 187.489h84.267v22.882h-84.267z"/><rect width="313.248" height="27.814" x="20.214" y="73.228" fill="#a2aab1" rx="7.422" ry="7.422"/><ellipse cx="175" cy="52.505" fill="#383b3e" rx="32.564" ry="5.535"/><ellipse cx="114.499" cy="52.505" fill="#383b3e" rx="11.401" ry="1.938"/><ellipse cx="82.234" cy="52.505" fill="#383b3e" rx="11.401" ry="1.938"/><ellipse cx="267.766" cy="52.505" fill="#383b3e" rx="11.401" ry="1.938"/><ellipse cx="235.501" cy="52.505" fill="#383b3e" rx="11.401" ry="1.938"/></svg>