<svg xmlns="http://www.w3.org/2000/svg" viewBox="0 0 395 739"><g fill="none" fill-rule="evenodd"><path fill="#E48CDD" fill-rule="nonzero" d="M70.52 253.92c-.36.14-.73.22-1.1.36L23.64 371.87.34 408.83l7.64 2.35a17.62 17.62 0 0 0 15.07-2.13c5.22-3.45 11.61-7.93 12.93-10.21 9.85-16.61 11.91-37.33 11.91-37.33l46.74-72.53.81-1.18a22.1 22.1 0 0 0 3.82-10.82c1.08-14.54-12.72-28.14-28.74-23.06"/><path fill="#E48CDD" fill-rule="nonzero" d="m.38 381.27 2.13 6.61 22.93-10.36 6.47-25.06z"/><path fill="#A4ABB3" fill-rule="nonzero" d="m68.11 152.96 1.31 101.32 38.24 32.11"/><path fill="#9E2896" d="m203.96 231.7 4.81-56.15 12.7-30.31 33.5-1.93-26.32 96.6-14.45 3.88"/><path fill="#C535BC" fill-rule="nonzero" d="M99.34 29.82a.27.27 0 0 1 .07-.22 15 15 0 0 0-1 1.25s-1.61-6.26-1.647-11.999c0-.107.024-.187.037-.281a4.4 4.4 0 0 0 .07-.95c-1.66 4.36-3.27 12.42 2.83 19.36a64 64 0 0 1-.37-7.2zm22 61.83c3.992-2.451 7.7-5.468 11.016-8.777-3.7.753-7.222 1.03-10.746 1.107-.3 2.57-.59 5.29-.81 8l.59-.29z"/><path fill="#C535BC" fill-rule="nonzero" d="M167.25 32.92c.81-7.49-9.85-13.89-9.85-13.89s0-5.73-9-13.08-18.81-2.42-27-3.3-17.42-3.31-24 0c-6.17 3.08-.66 12.05-.74 17.85a4.4 4.4 0 0 1-.07 1c-.81 5.73 1.62 12.27 1.62 12.27q.465-.652 1-1.25c1.69-2 5-5.73 7.34-6.9 3.31-1.62 4.93.8 13.89 3.3s18-4.11 18-4.11c-4.92 13.89 2.79 16.61 5.22 20.65.615 1.078 1.094 2.637 1.135 3.878 3.103-4.682 7.355-11.078 11.105-6.898 4.63 5.08-3.38 18-7.42 23.89l1.83 4c.23 0 15.88-27.78 16.91-37.41z"/><path fill="#E48CDD" fill-rule="nonzero" d="M117.94 113.54h37.88l-5.25-43.43-1.84-4c4-5.88 12.05-18.82 7.42-23.89-3.82-4.19-8.45 1.69-11.24 6.54a6.76 6.76 0 0 0-1-3.52c-2.43-4.12-10.14-6.76-5.22-20.65 0 0-9 6.54-18 4.11s-10.65-4.92-13.88-3.31c-3.1 1.16-7.37 6.89-7.45 7s-.06 2.94.32 7.29a112.3 112.3 0 0 0 3.38 21c3.89 14.4 7.13 21.31 7.13 21.31a49.5 49.5 0 0 0 11.27 1.99 35 35 0 0 0 10.73-1 63 63 0 0 1-11.43 9z"/><path fill="#C1C7CC" fill-rule="nonzero" d="m91.49 707.98-53.79 19.7.14.22a26 26 0 0 0 20 9.4h76.2l-6-29.24c-12.64-.15-28.22.36-34.25 0h-2.3zm140.11 18.24-25.58-19.33h-29l-2.35 30.43h51.07a7.08 7.08 0 0 0 5.81-11.1z"/><path fill="#340731" fill-rule="nonzero" d="m107.65 307.78 48.87.37c0-.15-.07-.22-.07-.37-.07-.44-76.65 0-76.65 0l-1.41 12.53 5.45 194.56 7.35 193.36h54.82c-1.76-121-2.64-96-14.4-177.26-4.85-33.51-.22-65.55 6.47-95.76-7.2-29.62-14.005-58.246-20.625-74.306-8.74-21.39-8.924-53.124-8.924-53.124z"/><path fill="#551151" fill-rule="nonzero" d="M219.56 707.05c0-153.45-25.48-234.06-25.12-248.17 2.06-78.93 2.52-98-11.81-150.51h-75s-.08 31.16 8.66 52.47c6.62 16.09 14.48 45.34 21.68 74.89 11.1 45.63 33.05 271.32 33.05 271.32z"/><path fill="#C1C7CC" fill-rule="nonzero" d="m197.09 122.32-.15 2.2zm-25.75 23.51 9-37.09-26.5-10.67h-33.7l-31.16 17.49a43.15 43.15 0 0 0-20.87 37.42c0 1 .08 2.06.15 3.16l7.79 53.65 1.29 30.19.51 23.51v44.88h104.78z"/><path fill="#A4ABB3" fill-rule="nonzero" d="M156.34 308.37h26.26l14.15-184.39.15-2.28v-.07l-.07.07-25.72 23.59z"/><path fill="#71767C" fill-rule="nonzero" d="m192.47 225.58-16.92-33.11-20.66 26 18.09 12.4c9.34 6.21 17.11 11.29 17.11 11.29s.1-.51 16.39 17.09a11.38 11.38 0 0 0 8.36 3.73c13.68.28 17.68-18.75 5.27-24.51z"/><path fill="#C535BC" fill-rule="nonzero" d="M90.95 267.27c.36 1 7 2.06 7.49 3.09a43.5 43.5 0 0 0 3.16 6.47c2.79 4.55 28.88 5.66 28.88 5.66l-7.71-29.11-33.43 9.41c0-.07.65 1.91 1.61 4.48"/><path fill="#E48CDD" fill-rule="nonzero" d="m206.34 178.72-18.1 26.18s-36.17 37.9-52.19 53l-13.3-4.48 7.72 29.1s11-4.19 15-5.81l85.25-65.4c-1.25-1.77-11.84-16-24.4-32.56z"/><path fill="#E0E2E5" d="M180.34 108.74c13.3 2.14 22.48 7.35 26.53 23.52l23.81 78.93-42.47-6.29s-16.37-27.22-17.87-51.25c-.74-11.47 0-32.19 10.07-44.91z"/><path fill="#340731" fill-rule="nonzero" d="m226.21 521.58 17 184.46c1.69.44 14.59 2.94 15.32-.08 11.91-44.68 28.37-98.11 6.54-178.73-2-7.27-2.5-15.8-2-25.28-13.89-.88-26.53-2.27-37.7-4l.8 23.59z"/><path fill="#71767C" fill-rule="nonzero" d="M245.4 706.04v-.06l-.22-.07.22.15z"/><path fill="#551151" fill-rule="nonzero" d="m306.47 527.53 45.56 178.51s13.23 1.54 13.16-.15c-4.63-149 8.23-150.88-20.88-205.26-15 1.32-29.47 2.06-43.28 2.21 3.38 14.99 5.44 24.69 5.44 24.69"/><path fill="#F0DCEE" fill-rule="nonzero" d="M320.4 300.25h-88.6l-7.46 15.04c-.51 3.23-6.32 34.76-6.24 38.07 0 0-13.3 140.66-12.94 140.8 6 1.4 12.86 2.65 20.36 3.83 11.17 1.69 23.88 3.08 37.7 4 11.83.74 24.55 1.11 37.92 1 13.82-.15 28.3-.81 43.29-2.21 12.42-1.1 25.2-2.71 38.21-4.77.62-.3-15.21-161.51-62.24-195.76"/><path fill="#C535BC" d="m258.88 705.81 7 31.51h-59.79a27.8 27.8 0 0 1-20.75-10.13l-.15-.22 58.06-21.16zm93.11.17-2.35 31.3h36.82a7.21 7.21 0 0 0 7.2-7.2 6.86 6.86 0 0 0-1.32-4.1l-26.68-20.14z"/><path fill="#71767C" fill-rule="nonzero" d="M283.09 88.98a37.4 37.4 0 0 1-11.39 1c-.29 2.79-.62 5.79-.84 8.73a65 65 0 0 0 12.23-9.73"/><path fill="#A4ABB3" fill-rule="nonzero" d="M268.24 121.32h42.85l-7.28-40-2.28-12.71c2.8-3.68 8.68-12 8.68-18.15a6.27 6.27 0 0 0-1.62-4.63c-4.78-5.22-11.46 4.92-14.48 10.28-12.56-.73-38.31-4.36-44.19-20.6l-1.45 2.23a130.6 130.6 0 0 0 2.14 20.06c.44 2.5 1 5 1.69 7.57 4.11 15.29 7.49 22.57 7.49 22.57a51 51 0 0 0 11.91 2.04 38.2 38.2 0 0 0 11.17-1 64 64 0 0 1-12.13 9.63c-1.17 11.68-2.5 22.63-2.5 22.63z"/><path fill="#340731" fill-rule="nonzero" d="m333.13 135.86-17-95.53a45 45 0 0 0-1.32-6.1c-4.93-21.68-16.76-34.47-45.27-30.5-11.69 1.62-17.79 8.38-20.88 16.31l-.14.15c-8.09 5.51-15.66 18.89-3.9 32.26l-1.39 83.41zm-24.62-90a6.6 6.6 0 0 1 1.61 4.63c-.07 6.17-5.88 14.48-8.67 18.15l2.28 12.71 7.27 40.06h-42.84l2.72-22.56c.29-2.94.59-6 .88-8.83a50.7 50.7 0 0 1-12-2.09s-3.32-7.24-7.43-22.45c-.66-2.57-1.25-5.14-1.69-7.57a122 122 0 0 1-2.13-20.06l1.39-2.13c5.88 16.24 31.68 19.69 44.25 20.5 2.79-5.36 9.55-15.58 14.33-10.36z"/><path fill="#9E2896" fill-rule="nonzero" d="M248.6 124.42c-11.1 2.5-26.61 13.59-28.3 24.84l4.71 18.15c16.98-26.09 23.59-42.99 23.59-42.99m56.82 175.8h15l33-138.46c.07-.59.15-1.11.22-1.69l.07-.59c0-.37.08-.74.08-1.1a2.2 2.2 0 0 1 .07-.67c0-.29.07-.66.07-.95v-5.29a2.9 2.9 0 0 0-.07-.81l-.07-.66c0-.3-.08-.59-.08-.81s-.07-.44-.07-.66-.07-.52-.07-.81a2 2 0 0 1-.08-.66 2.8 2.8 0 0 0-.14-.74c-.08-.22-.08-.44-.15-.66s-.07-.51-.15-.73-.07-.44-.14-.59-.15-.52-.23-.74-.07-.36-.14-.58-.15-.52-.22-.74a1.6 1.6 0 0 1-.15-.59 1.6 1.6 0 0 0-.29-.73l-.22-.52c-.08-.29-.22-.58-.3-.8a1.1 1.1 0 0 1-.15-.45c-.14-.29-.29-.66-.44-1l-.07-.22a6.2 6.2 0 0 1-.59-1.18l-.22-.29a2.8 2.8 0 0 0-.51-.81c-.08-.15-.22-.29-.3-.44a8 8 0 0 0-.44-.66l-.29-.44a5 5 0 0 0-.44-.59 2.1 2.1 0 0 0-.37-.44c-.15-.15-.29-.37-.51-.59s-.3-.29-.37-.44l-.52-.52-.44-.44-.58-.51-.45-.37c-.22-.15-.36-.29-.58-.44l-.52-.37-.59-.44-.51-.37-.66-.44-.59-.29a3.1 3.1 0 0 0-.66-.37l-.59-.29-.73-.37-.59-.29c-.22-.15-.52-.22-.81-.37l-.59-.22-.88-.3-.22-.07-29.81 155.81z"/><path fill="#C535BC" fill-rule="nonzero" d="M231.8 300.22h73.62l31.23-174.79v-.45c-.95-.3-22.41-7.42-22.41-7.42l-4.12-10.15h-41.15l-3.63 10.16-14.18 5.8-2.72 1.1s-6.61 16.91-23.59 43l-.51.8c-7.65 10-10.88 20.36-6.18 40.86"/><path fill="#E48CDD" fill-rule="nonzero" d="m377.22 247.28-17.64-95.62c-3.16-16.31-11.46-25.64-24.62-27.11-10.65 12.12-15.28 26.67-15.28 46.08 0 30.2 25.06 86 25.06 86 6.76-8.25 17.05-12.22 32.48-9.35"/><path fill="#71767C" fill-rule="nonzero" d="M305.42 405.35c27.12 13.75 40.27-18.66 40.27-18.66l-27.19-4z"/><path fill="#A4ABB3" fill-rule="nonzero" d="M377.15 247.98c.07-.37.07-.59 0-.59H377c-15.43-2.86-26.16.74-32.48 9.34-13.31 18-12 89.73-12 89.73l-14 36.38 27.19 4 1.63-21.86s28.26-107 29.81-116.9z"/><path fill="#A4ABB3" fill-rule="nonzero" d="m302.41 378.98 2.05 6.32 19.11-9.26 6-20.36z"/><path fill="#B2B9C0" d="m175.55 192.47 26.15 21.28a27.9 27.9 0 0 1-21.94 9.62l-24.87-4.94 20.66-26z"/></g></svg>