<svg xmlns="http://www.w3.org/2000/svg" data-name="Ebene 1" viewBox="0 0 1920 1080"><defs><clipPath id="a"><path fill="none" stroke-width="0" d="M0 0h1920v1080H0z"/></clipPath></defs><path fill="#eff1f2" d="M0 0h1920v1080H0z"/><g fill="#e0e2e5" stroke-width="0"><path d="M1095.771 164.325h36.767v652.84h-36.767z"/><path d="M1110.845 201.655v-37.329H1920v37.329zM1110.846 314.885V296.22h809.155v18.665zM1110.846 277.142v-18.665h809.155v18.665zM1112.9 239.398v-18.665h807.101v18.665zM1110.846 352.629v-18.665h809.155v18.665zM1110.845 390.373v-18.665H1920v18.665zM1110.846 428.116v-18.665h809.155v18.665zM1110.845 465.86v-18.665H1920v18.665zM1110.846 503.603v-18.665h809.155v18.665zM1110.846 541.347v-18.665h809.155v18.665zM1110.846 579.09v-18.665h809.155v18.665zM1110.846 616.834v-18.665h809.155v18.665zM1110.845 654.578v-18.665H1920v18.665zM1110.846 692.321v-18.665h809.155v18.665zM1110.845 730.065V711.4H1920v18.665zM1110.846 767.808v-18.665h809.155v18.665zM1110.846 805.552v-18.665h809.155v18.665z"/></g><g stroke-width="0"><path fill="#e0e2e5" d="M387.91 300.241h19.197v491.66H387.91z"/><path fill="#e0e2e5" d="M693.792 300.241h19.197v491.66h-19.197z" data-name="Rectangle"/><path fill="#e0e2e5" d="M391.192 317.199h306.726v21.774H391.192zM391.192 448.615h306.726v21.774H391.192zM391.192 620.849h306.726v21.774H391.192z" data-name="Rectangle"/><path fill="#e0e2e5" d="M566.51 362.387V464.53h102.134V362.387zm66.724 34.16h-31.315a4.602 4.602 0 0 1 0-9.142h31.338a4.602 4.602 0 0 1 0 9.142z"/><path fill="#e0e2e5" d="M432.232 464.53h102.134V362.387H432.232zm35.387-77.14h31.345a4.602 4.602 0 0 1 0 9.142h-31.345a4.602 4.602 0 0 1 0-9.142" data-name="Shape"/><path fill="#e0e2e5" d="M615.908 679.03v-13.506a2.38 2.38 0 0 1 2.539-2.186h18.154a2.385 2.385 0 0 1 2.538 2.186v13.506z"/><path fill="#e0e2e5" d="M530.884 515.547a7.938 7.938 0 1 0 0 15.876h74.67a7.938 7.938 0 1 0 0-15.876z" data-name="Path"/><path fill="#d0d4d8" d="M525.86 679.03h-72.3a14.917 14.917 0 0 0-14.924 14.917v84.05c0 8.244 6.68 14.928 14.925 14.932h72.285c8.247 0 14.932-6.685 14.932-14.932v-84.05c0-8.239-6.679-14.917-14.917-14.917m-49.306 25.877-12.578 14.334a5.844 5.844 0 0 1-10.239-3.835v-14.334a5.85 5.85 0 0 1 5.844-5.852h12.578a5.844 5.844 0 0 1 4.395 9.687m170.484-25.877H574.73c-8.239 0-14.917 6.678-14.917 14.917v84.058c.004 8.24 6.684 14.92 14.925 14.924h72.292c8.243 0 14.925-6.682 14.925-14.924v-84.058c0-8.239-6.679-14.917-14.917-14.917m-72.093 36.369v-14.327a5.837 5.837 0 0 1 5.828-5.837h12.586a5.837 5.837 0 0 1 4.395 9.687l-12.586 14.35a5.837 5.837 0 0 1-10.223-3.835z" data-name="Shape"/><path fill="#e0e2e5" d="M463.17 569.387h210.09v51.217H463.17z" data-name="Rectangle"/><path fill="#e0e2e5" d="M500.85 679.038v-13.514a2.38 2.38 0 0 1 2.532-2.186h18.169a2.385 2.385 0 0 1 2.538 2.186v13.514z" data-name="Path"/><path fill="#d0d4d8" d="M463.17 537.075h210.09v26.674H463.17z" data-name="Rectangle"/><path fill="#e0e2e5" d="M693.869 300.241v148.022H407.337V300.24h-19.128v516.924h324.78V300.241zm-286.532 170.7h286.532v149.67H407.337zM693.953 792.93H407.39V643.252h286.563z" data-name="Shape"/></g><g stroke-width="0"><rect width="177.717" height="61.901" x="21.957" y="755.264" fill="#d0d4d8" data-name="Rectangle" rx="18.385" ry="18.385"/><rect width="177.717" height="61.901" x="21.957" y="686.652" fill="#d0d4d8" data-name="Rectangle" rx="18.385" ry="18.385"/><circle cx="298.5" cy="727.668" r="88.849" fill="#d0d4d8"/><circle cx="298.5" cy="727.668" r="59.975" fill="#eff1f2" data-name="Oval"/><path fill="#e0e2e5" d="m315.47 718.74 34.918 20.192c5.725-26.412-9.308-52.91-34.918-61.545zm-16.97 29.385-34.47 19.9c19.848 16.968 49.092 16.968 68.94 0zm-16.96-29.385v-41.38c-25.622 8.636-40.659 35.15-34.918 61.572z" data-name="Path"/></g><path fill="#979ea4" d="M0 816.974h1920v263.121H0z"/><circle cx="266.814" cy="266.649" r="196" fill="#fff"/><g fill-rule="evenodd" data-name="iMac-gray frame"><g stroke-width="0"><path fill="#d0d4d8" d="M322.804 413.664H208.763v-4.853c0-3.162 2.583-5.745 5.744-5.745h102.597c3.161 0 5.744 2.583 5.744 5.745v4.853z"/><path fill="#c1c7cc" d="M310.914 403.066h-89.727l5.299-31.037h79.13z"/><path fill="#d0d4d8" d="M408.79 162.65a5.777 5.777 0 0 0-5.788-5.789H129.144a5.777 5.777 0 0 0-5.79 5.79V366.24a5.777 5.777 0 0 0 5.79 5.789h273.858a5.777 5.777 0 0 0 5.789-5.789z"/></g><path fill="#fff" d="M132.493 325.996h267.134V166H132.493z" data-name="&amp;gt;-place-img-here"/></g><path fill="#fff" fill-rule="evenodd" d="M132.452 326.017H399.63v-160.04H132.452z" data-name="BG-or-Mask"/><g stroke-width="0"><path fill="#a4abb3" d="M132.483 165.999h267.179v11.177H132.483z" data-name="Rectangle"/><g fill="#e0e2e5"><path d="M141.256 201.979h45.866v8.95h-45.866z" data-name="Rectangle"/><path d="M141.256 233.238h45.866v8.95h-45.866zM141.256 248.868h45.866v8.95h-45.866zM141.256 186.349h45.866v8.95h-45.866zM141.256 217.609h45.866v8.95h-45.866z"/></g><path fill="#e0e2e5" d="M197.141 261.104h166.433v32.428H197.141z" data-name="Rectangle-Copy"/><path fill="#b2b9c0" d="M204.818 268.49h54.237v11.177h-54.237z" data-name="Rectangle-Copy"/><path fill="#b8d6ff" d="M197.141 186.349h166.433v67.667H197.141z" data-name="Rectangle-Copy"/><path fill="#00629a" d="M205.267 194.186h120.921v11.177H205.267zM205.267 214.231h120.921v11.177H205.267zM205.267 234.275h120.921v11.177H205.267z" data-name="Rectangle-Copy"/><path fill="#e0e2e5" d="M197.141 299.143h166.433v26.807H197.141z" data-name="Rectangle-Copy"/><path fill="#b2b9c0" d="M204.818 306.935h54.237v11.177h-54.237z" data-name="Rectangle-Copy"/><path fill="#00629a" d="m350.46 236.939-2.513-2.513-5.85 5.85-2.297-2.297-2.513 2.513 4.81 4.81zM350.46 216.894l-2.513-2.513-5.85 5.85-2.297-2.296-2.513 2.512 4.81 4.81zM350.46 196.85l-2.513-2.513-5.85 5.85-2.297-2.297-2.513 2.513 4.81 4.81z"/></g><g data-name="Ebene 2"><g fill="#007bc0" stroke-width="0" data-name="Ebene 1-2"><path d="M944.136 134.552h233.384v246.989H944.136z"/><path fill-rule="evenodd" d="m944.136 445.982 64.44-64.441-32.22-15.53-32.22 15.53z"/></g></g><path fill="#fff" d="M1037.06 280.293h-14.431c-5.15 0-9.338-4.19-9.338-9.338v-1.698c0-5.148 4.189-9.337 9.338-9.337l.397.023s10.457 1.234 14.428 1.697c5.516.646 8.943 4.215 8.943 9.315 0 5.149-4.189 9.338-9.338 9.338m-14.59-13.577a2.55 2.55 0 0 0-2.388 2.541v1.698a2.55 2.55 0 0 0 2.547 2.547h14.43a2.55 2.55 0 0 0 2.547-2.547c0-.886 0-2.225-2.941-2.57-3.617-.422-12.613-1.483-14.195-1.67m91.691 29.56-4.802-4.802-11.18 11.18-4.39-4.39-4.803 4.803 9.192 9.191zm-12.587 31.554c-14.979 0-27.164-12.186-27.164-27.164s12.185-27.164 27.164-27.164 27.163 12.185 27.163 27.164-12.185 27.164-27.163 27.164m0-47.537c-11.234 0-20.373 9.139-20.373 20.373s9.139 20.373 20.373 20.373 20.373-9.14 20.373-20.373-9.14-20.373-20.373-20.373m-54.328-44.14a3.396 3.396 0 0 0-3.396-3.395h-33.955a3.396 3.396 0 0 0 0 6.79h33.955a3.396 3.396 0 0 0 3.396-3.395m0-13.582a3.396 3.396 0 0 0-3.395-3.395h-33.956a3.396 3.396 0 0 0 0 6.79h33.956a3.396 3.396 0 0 0 3.396-3.395m0-13.582a3.396 3.396 0 0 0-3.396-3.395h-33.955a3.396 3.396 0 0 0 0 6.79h33.955a3.396 3.396 0 0 0 3.396-3.395m-50.27 30.49q.33-.061.637-.187c.203-.085.399-.195.585-.314a4 4 0 0 0 .518-.424 3.45 3.45 0 0 0 .993-2.402q-.002-.331-.068-.663a3.5 3.5 0 0 0-.195-.636 4 4 0 0 0-.306-.586 4 4 0 0 0-.424-.518 3.5 3.5 0 0 0-.518-.416 3.2 3.2 0 0 0-.585-.313 3.3 3.3 0 0 0-.637-.196 3.43 3.43 0 0 0-3.064.925 3.5 3.5 0 0 0-.417.518q-.189.28-.313.586a3.5 3.5 0 0 0-.264 1.299c0 .891.365 1.765.994 2.402.636.636 1.51.993 2.402.993.22 0 .441-.017.662-.068m1.74-14.507a3.5 3.5 0 0 0 .424-.518q.18-.28.306-.586a3.5 3.5 0 0 0 .263-1.299q-.002-.33-.068-.661a3.3 3.3 0 0 0-.195-.637 4 4 0 0 0-.306-.586 4 4 0 0 0-.424-.517 3.45 3.45 0 0 0-2.402-.994 3.45 3.45 0 0 0-2.402.994 4 4 0 0 0-.425.517q-.178.28-.305.586a3.3 3.3 0 0 0-.196.637c-.042.22-.068.441-.068.662a3.5 3.5 0 0 0 .264 1.298q.126.306.305.586c.127.187.272.365.425.518a3.45 3.45 0 0 0 2.402.993 3.45 3.45 0 0 0 2.402-.993m0-13.582a3.45 3.45 0 0 0 .993-2.402q-.002-.331-.068-.662a3.5 3.5 0 0 0-.195-.637 4 4 0 0 0-.306-.586 4 4 0 0 0-.424-.517 3.43 3.43 0 0 0-3.064-.926q-.33.066-.637.196a3.2 3.2 0 0 0-.586.313 3.5 3.5 0 0 0-.517.417 4 4 0 0 0-.425.517q-.178.28-.305.586a3.5 3.5 0 0 0-.264 1.299c0 .9.365 1.774.994 2.402q.238.232.517.424.28.18.586.306c.204.085.416.153.637.195q.33.066.662.068a3.45 3.45 0 0 0 2.402-.993m-1.74-12.656q.33-.066.637-.196c.203-.076.399-.187.585-.306a4 4 0 0 0 .518-.424 3.45 3.45 0 0 0 .993-2.402 3.45 3.45 0 0 0-.993-2.402 3.5 3.5 0 0 0-.518-.417 3.2 3.2 0 0 0-.585-.313 3.3 3.3 0 0 0-.637-.196 3.5 3.5 0 0 0-1.324 0q-.33.066-.637.196a3.3 3.3 0 0 0-.586.313 3.5 3.5 0 0 0-.517.417 3.45 3.45 0 0 0-.994 2.402c0 .891.365 1.765.994 2.402q.238.232.517.424c.187.12.382.23.586.306q.306.13.637.196c.22.042.441.067.662.067q.33-.002.662-.067m50.27-3.328a3.396 3.396 0 0 0-3.396-3.395h-33.955a3.396 3.396 0 0 0 0 6.79h33.955a3.396 3.396 0 0 0 3.395-3.395m35.347 77.102a2.52 2.52 0 0 1-.543-1.553c0-.886 0-2.225 2.941-2.57 3.617-.422 12.613-1.483 14.195-1.67.128.009.25.034.373.06a35 35 0 0 1 2.016-.064c2.257 0 4.46.225 6.595.645-.881-4.24-4.645-7.436-9.142-7.436l-.398.023s-10.456 1.234-14.428 1.698c-5.516.645-8.943 4.214-8.943 9.314 0 2.238.794 4.294 2.112 5.904a34 34 0 0 1 5.222-4.351m46.145-26.17c0-7.03-5.793-9.715-8.857-10.153l-12.52-.034c-1.553-4.149-5.152-12.928-9.841-18.99-8.396-11.965-33.339-11.662-36.691-11.57a81 81 0 0 0-6.792.126v6.825c2.69-.182 5.04-.212 6.684-.16l.11.003.107-.004c6.806-.225 25.65.92 31.054 8.726l.111.151c5.507 7.08 9.605 19.242 9.646 19.364l.775 2.32h16.563c1.002.218 2.86.952 2.86 3.396 0 1.365-.904 3.395-3.395 3.395l-10.428.005 4.378 5.508c.06.076 6.05 7.695 6.05 14.86v1.158a34 34 0 0 1 6.79 5.16v-6.318c0-5.207-2.14-10.29-4.14-13.902 4.767-1.203 7.536-5.597 7.536-9.866m-107.807 47.537c0 9.693-1.946 12.8-2.618 13.582h-12.964c-.876-1.243-2.244-5.953-2.244-13.582v-23.769c0-7.165 5.99-14.784 6.047-14.856l4.413-5.517h-10.46c-2.491 0-3.396-2.03-3.396-3.395h-6.79c0 4.269 2.768 8.663 7.536 9.866-2 3.612-4.141 8.695-4.141 13.902v23.769c0 6.125.827 20.373 8.488 20.373h14.712l.277-.046c1.734-.29 7.123-2.378 7.85-16.932h40.148a33.8 33.8 0 0 1 1.387-6.79h-48.245z"/><path fill="#007bc0" d="M938.345 269.537h-8.119v-3h8.119zm-16.237 0h-8.118v-3h8.118zm-16.236 0h-8.119v-3h8.119zm-16.237 0h-8.118v-3h8.118zm-16.236 0h-8.119v-3h8.119zm-16.237 0h-8.118v-3h8.118zm-16.237 0h-8.118v-3h8.118zm-16.236 0h-8.118v-3h8.118zm-16.237 0h-8.118v-3h8.118zm-16.236 0h-8.119v-3h8.119zm-16.237 0h-8.118v-3h8.118zm-16.237 0h-8.118v-3h8.118zm-16.236 0h-8.119v-3h8.119zm-16.237 0h-8.118v-3h8.118zm-16.236 0h-8.119v-3h8.119zm-16.237 0h-8.118v-3h8.118zm-16.236 0h-8.119v-3h8.119zm-16.237 0h-8.118v-3h8.118zm-16.236 0h-8.119v-3h8.119zm-16.237 0h-8.118v-3h8.118zm-16.237 0h-8.118v-3h8.118zm-16.236 0h-8.119v-3h8.119zm-16.237 0h-8.118v-3h8.118zm-16.236 0h-8.12v-3h8.12zm-16.237 0h-8.118v-3h8.118zm-16.237 0h-8.118v-3h8.118zm-16.236 0h-8.119v-3h8.119zm-16.237 0h-8.118v-3h8.118zm-16.237 0h-8.118v-3h8.118zm-16.236 0h-8.119v-3h8.119zm-16.237 0h-8.118v-3h8.118zm-16.237 0h-8.118v-3h8.118z"/><g clip-path="url(#a)"><g stroke-width="0"><path fill="#d0d4d8" d="M811.264 417.271a52.4 52.4 0 0 0 17.88 1.792 1280 1280 0 0 1 1.524 15.284 93.3 93.3 0 0 1-19.404-17.076"/><path fill="#d0d4d8" d="M830.75 433.276c1.854 15.181 5.067 34.379 5.067 34.379l-62.021-5.047 12.833-67.418s.494-1.174 1.256-3.069c-3.13-3.79-14.089-12.153-12.524-21.896.66-4.12-.659-6.797 1.875-9.434 5.706-5.953 13.821-12.874 18.538-5.664-5.829-15.84-.123.617 0 0a100 100 0 0 0 1.792-17.241s18.683 0 39.487-1.154 18.518 17.344 25.233 15.037a168 168 0 0 1-3.048 25.418 128 128 0 0 1-2.37 9.929 204 204 0 0 1-10.649 30.567 74.4 74.4 0 0 1-16.89 2.884 53.7 53.7 0 0 1-16.479-1.504 84 84 0 0 0 17.9 14.213"/><path fill="#4e5256" d="M771.963 349.009c1.524-9.826 14.233-17.323 14.233-17.323s.598-7.519 13.1-16.314c12.504-8.796 25.048-3.09 35.78-1.669 23.173 3.049 31.227 18.21 30.732 25.83q-.045.66 0 1.319c.515 7.6-4.387 16.602-4.387 16.602a2.66 2.66 0 0 0-.206-2.41c-2.06-2.78-6.035-8.033-9.022-9.805-4.12-2.471-6.53.598-18.538 2.946-12.01 2.348-23.297-7.127-23.297-7.127 5.088 18.744-7.292 11.906-10.897 17.035a28 28 0 0 1-4.675 3.419l5.293 31.556s1.875 2.575 7.313 1.957a101 101 0 0 1 30.485-6.18c18.168-.844 17.715 2.74 17.715 2.74s6.653 15.367-1.483 28.714c-6.818 11.185-20.599 14.234-30.403 13.987-3.832 0-.598-2.246-4.656-6.942-2.719-3.152-18.209-2.41-23.173-10.134-3.295-5.17-1.565-12.504-.103-18.539l2.287-11.782c-3.255-6.344-14.419-31.412-22.658-16.808a43 43 0 0 1-3.44-21.072m48.282 50.692c0 6.18 23.029 17.57 34.11-4.12v-1.112c-6.9 5.912-32.544 2.348-32.544 2.348q-1.566 2.08-1.566 2.884"/><path fill="#007bc0" d="m861.118 664.22-9.249-10.85-9.124-147.426c.07-20.116 8.393-32.008 23.838-35.425 24.166-3.435 35.361 26.222 38.044 39.995 5.1 26.292-3.424 105.386-5.195 126.503z"/><path fill="#4e5256" d="M806.56 888.89c1.576 4.672 6.81 25.929 12.29 49.855.522 2.298 1.054 4.625 1.576 6.962 5.338 16.527 20.849 28.475 39.142 28.475 21.143 0 38.553-15.947 40.861-36.463-.047-3.362-.095-6.715-.095-10.078 0-6.021.114-12.034.503-18.055.865-12.927-14.807-195.614-17.448-197.2-24.533-14.732-40.927 2.403-58.071 38.41-4.445 9.394-5.822 19.918-7.162 30.223l-11.967 92.322c-.665 5.252-1.32 10.58.37 15.548"/><path fill="#4e5256" d="M818.886 933.065c0 1.928.133 3.828.4 5.68.522 2.298 1.053 4.625 1.576 6.962 6.26 27.706 12.414 57.15 13.468 67.721 2.84 28.485-.17 32.873 1.463 61.444.617 11.264-2.251 30.508-2.251 30.508l7.813 42.73s39.49 51.483 79.38 2.832c-4.36-6.943-8.653-28.713-8.653-28.713l.17-29.045s-8.899-15.72-8.899-18.17l-.722-40.025-1.007-55.611-.684-37.49c-.028-1.386-.047-2.782-.076-4.17-.047-3.361-.095-6.714-.095-10.077-2.64-20.155-19.88-35.703-40.766-35.703-22.71 0-41.117 18.407-41.117 41.127"/><path fill="#383b3e" d="M681.557 1137.16s2.36 36.605 2.758 41.506c50.115 47.885 73.91 8.844 78.542-9.686-2.308-9.888 9.682-55.1 9.682-55.1l5.29-16.004a69.1 69.1 0 0 1 4.95-25.293c12.727-28.837 6.439-25.085 10.628-56.277 2.45-18.141 3.4-36.5 7.104-54.433.865-4.189 1.89-8.368 3.02-12.538a335 335 0 0 1 1.653-5.813 48.8 48.8 0 0 0 1.13-10.467c0-27.022-21.912-48.934-48.943-48.934-24.059 0-44.071 17.372-48.165 40.253v.019a2440 2440 0 0 0-.703 11.18v.028c-2.033 33.386-2.83 58.546-3.305 62.83-.922 8.14-8.995 43.767-10.97 69.687-1.549 20.136-1.406 35.2-1.406 35.2z"/><path fill="#383b3e" d="M708.624 935.62c1.33 25.844 22.71 46.38 48.877 46.38 21.314 0 39.456-13.64 46.152-32.665a332 332 0 0 1 1.652-5.813c3.448-11.701 7.59-23.337 11.37-34.943 17.41-53.76 42.105-207.259 39.597-212.549-4.264-8.985-27.354 15.738-36.814 12.642a554 554 0 0 0-43.872-12.357c-8.957-2.061-21.466 7.969-28.836 14.418-7.38 6.45-24.078 81.465-30.898 139.366-2.916 25.303-4.996 51.233-6.506 74.218-.256 3.856-.494 7.627-.722 11.303"/><path fill="#4e5256" d="m776.602 926.822-66.656-1.566c-18.065-38.127.288-90.632 9.62-111.23l67.685 5.067s2.493 62.392-10.65 107.729"/><path fill="#43464a" d="m775.778 846.983-69.21-5.047 12.997-27.952 69.21 5.026z"/><path fill="#8a9097" d="M864.507 608.636c8.333-3.61 34.453-12.193 42.856-15.821h72.711c-38.554 28.687-69.707 48.047-109.98 65.499-6.05-13.668-10.41-23.662-6.669-40.56 1.02-4.501.072-4.671 1.082-9.118"/><path fill="#56b0ff" d="m726.193 474.123 20.599 238.26h33.822l-14.419-189.237-40.022-49.065 55.76-32.545h50.918l38.993 23.523a58.17 58.17 0 0 1 27.93 54.647l-3.624 25.007-12.71 87.954.165 36.954v42.761H746.69l-.144-1.606-20.372-236.653z"/><path fill="#007bc0" d="M780.696 712.382h-33.904l-20.599-238.26-.02-.164.103.123 40.022 49.065z"/><path fill="#d0d4d8" fill-rule="evenodd" d="m831.533 439.312-52.546-3.914-1.73 8.96 24.017 8.713 18.333 6.921 13.244-18.456z"/><path fill="#d0d4d8" d="M778.876 513.837h39.166v8.844h-39.166z"/><path fill="#0096e8" d="m720.443 670.772-1.596-13.249-14.02-147.041c-.597-20.108 7.326-32.27 22.65-36.198 24.038-4.236 36.212 25.032 39.35 38.709 5.971 26.108 13.654 116.648 12.585 137.812z"/><path fill="#b2b9c0" d="M720.443 670.772c17.782 38.1 91.131 40.978 175.857 63.35.04.007.087.007.127.015.316.041 1.002.374 1.988.922 5.27 1.805 11.32.137 14.86-4.55 4.41-5.836 3.252-14.14-2.585-18.55a13.2 13.2 0 0 0-4.933-2.325l-.84-.114-.21-.09-.013.003a17529 17529 0 0 0-24.76-10.046c-26.683-10.827-46.809-22.793-100.522-48.582z"/><path fill="#232628" d="m854.318 589.918 9.993-20.409 26.531-54.186a9.33 9.33 0 0 1 8.21-5.473h7.494a9.33 9.33 0 0 0-8.209 5.473l-34.868 71.212-1.656 3.383a11.85 11.85 0 0 0-.555 8.915c1.31 3.912 4.575 6.909 8.764 6.909h-7.495a8.4 8.4 0 0 1-2.726-.46c-5.482-1.872-8.468-9.193-5.483-15.364"/><path fill="#43464a" d="m861.813 589.918 1.656-3.383 34.868-71.213a9.33 9.33 0 0 1 8.21-5.473h119.567c7.138 0 11.659 8.685 8.209 15.824l-3.553 7.257-19.263 39.34-9.567 19.54-4.142 8.46a9.33 9.33 0 0 1-8.209 5.472H870.022c-4.189 0-7.46-2.997-8.764-6.909-.985-2.93-.786-6.13.555-8.915"/><path fill="#8a9097" d="m1026.997 581.385-22.487 5.106 8.066-16.473z"/><path fill="#b2b9c0" d="m1028.815 536.847 5.904-.201-7.723 44.736-14.421-11.368-7.848-6.178a19.2 19.2 0 0 1-5.683-4.923c-4.715-5.898-7.048-14.512-6.152-20.855z"/><path fill="#8a9097" d="m910.135 709.93 16.56-28.556 7.083 6.438-12.905 29.195z"/><path fill="#b2b9c0" d="m894.708 709.64 8.38-51.467a10.33 10.33 0 0 1 10.357-8.669l4.323.068 3.137 77.226-15.042 12.347-16.298-7.052z"/></g><g data-name="Ebene 2"><g stroke-width="0" data-name="Ebene 2-2"><path fill="#232628" d="M1853.939 828.317c0-20.908-5.84-39.963-15.434-54.353v-26.833h-44.562c-33.134 0-60.005 36.351-60.005 81.186s26.87 81.185 60.005 81.185h44.562V882.66c9.593-14.39 15.434-33.436 15.434-54.343"/><ellipse cx="1839.577" cy="831.044" fill="#8a9097" rx="44.28" ry="59.92"/><path fill="#c1c7cc" d="M1839.577 771.124a33 33 0 0 0-6.339.62c21.444 4.167 37.94 29.157 37.94 59.3s-16.496 55.162-37.94 59.3c2.089.406 4.211.614 6.34.62 24.453 0 44.288-26.832 44.288-59.92s-19.826-59.92-44.289-59.92"/><path fill="#c1c7cc" d="m1889.707 838.24-37.226-17.08a11.45 11.45 0 0 1-6.198-6.462l-19.158-54.635-27.943 6.979 19.488 55.584a11.01 11.01 0 0 1-1.214 9.697l-18.359 28.536 13.168 30.096 27.275-41.467c1.711-2.653 5.643-3.64 8.793-2.192l38.345 17.588z"/><path fill="#383b3e" d="M1837.264 747.131c-33.144 0-60.005 36.351-60.005 81.186s26.86 81.185 60.005 81.185 60.023-36.35 60.023-81.185-26.889-81.186-60.023-81.186m2.313 143.834c-24.453 0-44.28-26.833-44.28-59.92s19.827-59.921 44.28-59.921 44.29 26.823 44.29 59.92-19.827 59.92-44.29 59.92"/><path fill="#232628" d="M1478.155 828.317c0-20.908-5.84-39.963-15.434-54.353v-26.833h-44.562c-33.134 0-59.995 36.351-59.995 81.186s26.86 81.185 59.995 81.185h44.61V882.66c9.545-14.39 15.386-33.436 15.386-54.343"/><ellipse cx="1463.803" cy="831.044" fill="#8a9097" rx="44.28" ry="59.92"/><path fill="#c1c7cc" d="M1463.803 771.124c-2.132.002-4.258.21-6.349.62 21.453 4.167 37.94 29.157 37.94 59.3s-16.487 55.133-37.94 59.253a34 34 0 0 0 6.349.62c24.453 0 44.28-26.832 44.28-59.92s-19.827-59.873-44.28-59.873"/><path fill="#c1c7cc" d="m1513.923 838.24-37.226-17.08a11.43 11.43 0 0 1-6.188-6.462l-19.168-54.672-27.934 6.978 19.479 55.585a10.99 10.99 0 0 1-1.204 9.697l-18.369 28.535 13.168 30.096 27.275-41.467c1.711-2.652 5.643-3.64 8.793-2.191l38.336 17.587z"/><path fill="#383b3e" d="M1461.48 747.131c-33.135 0-59.996 36.351-59.996 81.186s26.861 81.185 59.996 81.185 59.995-36.35 59.995-81.185-26.86-81.186-59.995-81.186m2.323 143.834c-24.454 0-44.29-26.833-44.29-59.92s19.827-59.921 44.29-59.921 44.28 26.823 44.28 59.92-19.827 59.92-44.28 59.92"/><path fill="#c1c7cc" d="m1740.099 693.032-293.95 2.672 61.896-49.8c45.464-37.622 99.695-57.843 155.354-57.843l205.033.395z"/><path fill="#c1c7cc" d="M2049.303 635.943c-47.138-25.47-112.514-43-169.03-47.092-58.8-4.26-120.301 26.532-162.004 72.185l-31.714 34.733h397.961l-33.708-42.812z"/><path fill="#c1c7cc" d="M2100.533 711.58a55.03 55.03 0 0 0-20.22-28.216 30.5 30.5 0 0 0-18.595-5.897l-615.569 9.405c-59.516-1.712-143.965 10.346-143.965 43.358l-.244 86.377c-.17 60.72 85.36 60.72 114.235 60.72h544.964a31.2 31.2 0 0 0 6.734-.743l35.561-7.976a30.6 30.6 0 0 1 6.734-.752h43.678c4.28 0 17.447-3.96 29.297-8.944a30.745 30.745 0 0 0 18.81-28.348v-28.13l-.122-82.174a29.5 29.5 0 0 0-1.298-8.68"/><path fill="#b2b9c0" d="M1718.269 687.436h154.489V877.12h-154.489zM1879.182 687.436h138.595V877.12l-138.66.207z"/><path fill="#383b3e" d="M1872.74 602.508c-53.309-.94-106.655 28.864-141.407 69.645l-13.543 15.885h298.99l44.92-9.687c-35.326-40.677-86.97-72.241-188.96-75.843m-176.234 85.53-250.357-.094c36.37-33.03 83.34-65.084 136.79-85.577l222.253-1.345c-45.437 21.218-85.568 52.979-108.686 87.016"/><path fill="#e0e2e5" d="m1759.737 692.694-32.326 8.023-.066-8.428 30.144-8.032z"/><path fill="#e0e2e5" d="M1790.717 693.663h-39.266l11.69-18.284c10.845-3.875 21.745-3.217 32.674 0z"/><path fill="#595e62" d="M1788.526 690.427h-35.373l5.427-3.498 3.207-4.534h29.194z"/><path fill="#595e62" d="m1763.339 689.515-34.273 9.02.104-3.593 33.576-9.142z"/><path fill="#979ea4" d="M1837.358 706.651h24.557a4.787 4.787 0 1 1 0 9.574h-24.557a4.787 4.787 0 1 1 0-9.574"/><path fill="#4e5256" d="m1323.355 745.796-21.209-2.088c-.084-11.691-.808-18.331 2.54-22.893l18.67 8.164z"/><path fill="#d0d4d8" d="m1513.001 717.853 2.23 11.784 181.275-41.599-34.687-.01zM1323.355 728.98l6.8-9.914-17.428-7.195a27.6 27.6 0 0 0-8.004 8.944z"/><path fill="#d0d4d8" d="M1311.063 716.978s13.74 8.258 12.292 12.001h196.785v-12z"/><path fill="#383b3e" d="M1351.063 736.315h129.048a6.487 6.487 0 0 1 6.49 6.485 6.487 6.487 0 0 1-6.49 6.485h-129.048a6.487 6.487 0 0 1-6.49-6.485 6.487 6.487 0 0 1 6.49-6.485m0 57.09h129.048a6.487 6.487 0 0 1 6.49 6.484 6.487 6.487 0 0 1-6.49 6.485h-129.048a6.487 6.487 0 0 1-6.49-6.485 6.487 6.487 0 0 1 6.49-6.484"/><path fill="#8a9097" d="M1623.86 877.13c-9.763-10.995-15.989-27.558-15.989-46.086 0-33.097 19.826-59.92 44.29-59.92s44.279 26.823 44.279 59.92c0 18.528-6.217 35.09-15.989 46.086h17.315c7.571-13.591 12.057-30.492 12.057-48.813 0-44.835-26.86-81.186-59.995-81.186s-59.996 36.351-59.996 81.186c0 18.32 4.486 35.222 12.058 48.813z"/><path fill="#232628" d="M1658.725 828.317c0-20.908-5.85-39.963-15.443-54.353v-26.833h-44.562c-33.134 0-59.996 36.351-59.996 81.186s26.862 81.185 59.996 81.185h44.562V882.66c9.593-14.39 15.443-33.436 15.443-54.343"/><ellipse cx="1644.363" cy="831.044" fill="#8a9097" rx="44.28" ry="59.92"/><path fill="#c1c7cc" d="M1644.363 771.124c-2.13.002-4.257.21-6.348.62 21.453 4.167 37.94 29.157 37.94 59.3s-16.487 55.133-37.94 59.253a34 34 0 0 0 6.348.62c24.454 0 44.28-26.832 44.28-59.92s-19.826-59.873-44.28-59.873"/><path fill="#c1c7cc" d="m1694.484 838.24-37.226-17.08a11.43 11.43 0 0 1-6.189-6.462l-19.168-54.672-27.933 6.978 19.478 55.585a10.99 10.99 0 0 1-1.204 9.697l-18.396 28.573 13.167 30.096 27.275-41.467c1.712-2.653 5.643-3.64 8.794-2.192l38.335 17.588z"/><path fill="#383b3e" d="M1642.04 747.131c-33.134 0-59.995 36.351-59.995 81.186s26.86 81.185 59.995 81.185 59.996-36.35 59.996-81.185-26.861-81.186-59.996-81.186m2.323 143.834c-24.453 0-44.289-26.833-44.289-59.92s19.826-59.921 44.29-59.921 44.279 26.823 44.279 59.92-19.826 59.92-44.28 59.92"/><path fill="#c1c7cc" d="m1511.675 876.697 62.817.047c-8.671-65.968 9.876-128.663 74.856-132.03l-90.355-6.753z"/><path fill="#8a9097" d="m1379.9 872.756 176.478-.085-22.13-32.739-220.74-.085c4.956 12.5 32.777 26.768 66.391 32.91"/><path fill="#4e5256" d="m1515.531 747.16 64.492-6.631-.32-25.686-64.388 15.434z"/><path fill="#232628" d="M2033.56 828.317c0-20.908-5.841-39.963-15.435-54.353v-26.833h-44.562c-33.134 0-59.995 36.351-59.995 81.186s26.861 81.185 59.995 81.185h44.562V882.66c9.594-14.39 15.434-33.436 15.434-54.343"/><path fill="#b2b9c0" d="m1887.137 877.516 62.798-.105c-8.672-65.958 10.207-129.132 75.188-132.509l-90.356-6.743z"/><path fill="#43464a" d="m1943.932 877.44-238.985.32 13.769-19.027h211.983z"/></g></g><g stroke-width="0"><path fill="#b2b9c0" d="m1265.275 606.301-129.83 62.628-50.776 13.528 5.024 7.48c3.055 5.148 5.165 9.976 11.26 10.902 7.054 1.154 16.815.629 19.662-.22 21.263-6.34 43.405-21.877 43.405-21.877l104.58-29.517c43.037-14.267 16.039-42.137-3.325-42.924"/><path fill="#0096e8" d="m1069.08 710.424 80.226-38.706h-57.5l-80.225 38.706z"/><path fill="#b2b9c0" d="m1166.372 662.028-23.414 14.602-19.843-1.747-19.173 7.816-8.171-2.76 23.937-14.823a29.45 29.45 0 0 1 15.502-4.335z"/><path fill="#00629a" d="m1180.79 645.11 1.805 31.216 24.366-3.91v-40.309z"/><path fill="#0096e8" d="m1207.125 542.812.66-1.038c0-.095.095-.095.095-.189 15.196-23.502 23.785-40.963 27.371-48.89 8.59 5.096 26.616 20.575 28.599 21.707 36.432-15.1 58.895-24.067 72.298-29.353-5.475 9.627-7.929 22.652-7.646 35.772v1.132a91.6 91.6 0 0 0 3.398 22.464c3.02 10.665 6.04 20.386 9.061 29.259 3.964 11.703 10.194 26.993 15.857 39.546l-6.418 101.086s-35.111 10.948-80.132 14.346c-45.116 3.398-66.73-4.342-66.73-4.342s-.66-115.337-1.887-120.717c-.756-3.303-3.965-48.324 5.474-60.783"/><path fill="#007bc0" d="M1328.502 520.82v1.133a91.6 91.6 0 0 0 3.398 22.464c3.02 10.665 6.04 20.386 9.061 29.259 3.964 11.703 10.194 26.993 15.857 39.546l-6.418 101.086s-7.362 2.265-19.538 5.096c.094 0-2.548-211.986-2.36-198.583"/><g fill="#43464a"><path d="m1333.788 815.015.378.095zM1361.348 768.295l-7.834-2.36zM1270.362 728.654c24.54-1.888 46.06-5.946 60.594-9.25.284-.094.567-.094.85-.188.283-.095.66-.19.944-.19.472-.094.944-.188 1.321-.282.283-.095.566-.095.85-.19.471-.094.943-.188 1.415-.377.283-.094.472-.094.755-.188.472-.095.944-.284 1.51-.378.19 0 .378-.094.472-.094.661-.19 1.227-.284 1.794-.472.189 0 .377-.095.472-.095l1.132-.283c.189-.094.378-.094.567-.189.283-.094.66-.188.943-.283.19-.094.378-.094.567-.189.283-.094.566-.188.755-.188.189-.095.377-.095.566-.19.283-.093.472-.093.66-.188.19 0 .284-.094.473-.094q.094 0 .188-.095c1.51 3.493 3.21 7.551 4.908 11.798l-5.096 36.904 4.908 1.51v1.794l-5.003 13.025-34.45 29.542 2.737 8.306 21.331-10.194-2.643 6.796h-.094l-17.084 29.825c23.502 11.893 38.981-2.642 46.815-13.78.472-.66.944-1.321 1.321-1.982.095 16.517-.188 35.111-.755 56.63-.472 18.877-2.643 34.828 3.681 45.4 19.915 73.619 14.913 88.626 24.446 228.691h-52.95l-29.542-177.63s-16.612-77.867-34.261-145.634c0-.095 0-.19-.095-.19-7.078-26.899-20.103-65.785-26.333-106.37 6.418-.189 13.497-.377 21.331-1.038"/></g><path fill="#00629a" d="M1336.242 485.05c6.607-2.644 11.043-4.248 13.78-5.286 1.982-.755 3.115-1.133 3.492-1.322h.095q.094 0 .094-.094c7.74 4.813 12.081 10.948 16.706 26.333 0 0 41.529 131.477 41.812 133.459 1.038 4.436-32.28 136.007-32.28 136.007l-32.75-10.193L1365.5 630.4c-6.984-11.986-18.31-38.697-24.54-56.724-3.02-8.873-6.04-18.594-9.06-29.26a91.6 91.6 0 0 1-3.399-22.463v-1.132c-.188-13.12 2.266-26.145 7.74-35.772"/><path fill="#2f3134" d="M1249.126 729.598c6.135 40.49 19.254 79.377 26.333 106.37 0 .095 0 .19.094.19 1.133 4.53 2.36 9.06 3.492 13.59-10.76 51.157-8.022 96.083-6.323 131.76 15.479 89.665 13.78 103.35 8.589 173.573h-51.062l-24.446-187.636-2.36-214.251c-.094-2.36 1.133-15.762 2.36-28.22 4.72 1.415 19.066 4.624 43.323 4.624"/><path fill="#8a9097" d="m1364.274 819.546-30.486-4.53.094-.284h-.094l-17.084 29.825c23.502 11.893 38.981-2.642 46.815-13.78 2.265-3.303 4.247-6.795 5.852-10.382 0-.094-5.097-.85-5.097-.85"/><path fill="#b2b9c0" d="m1312.74 809.918 34.45-29.542 5.003-13.025v-1.793l24.257 7.55a3289 3289 0 0 0-4.908 18.594l-2.077 28.693h-.094l-5.097-.755-30.486-4.53.094-.284 2.643-6.795-21.142 10.288z"/><path fill="#00629a" d="M1311.797 460.698s.188-.094 0 0m-61.539.849c.189-.094.378-.094.567-.188 0 0 .566 0 1.51-.095l11.043-.377v-.095a1211 1211 0 0 0-1.794 14.536h45.682l-.377-13.875 2.831.189 19.538.189c2.831 9.25-30.864 30.297-49.646 40.207-5.852 3.02-10.194 4.908-11.42 5.286-.19 0-.378.094-.473.094-8.022-.944-40.585-35.96-17.46-45.87"/><path fill="none" d="m1279.234 452.675-.189.19c.095-.095.095-.19.19-.19"/><path fill="#007bc0" d="M1245.539 458.15c2.737-.85 10.665-.378 18.31-.567-.094 1.039-.283 2.077-.377 3.21.094 0 .189-.095.189-.095-.095 0-.189.094-.189.094v.095l-12.742.472c-23.973 9.627 8.872 45.21 17.084 46.06 3.492.377 65.313-33.224 61.538-45.588l-22.37-.19-.188-5.001c9.722-.284 26.71-.095 26.71-.095 18.217 1.133 20.482 13.12 20.293 21.803 0 0-17.177 6.04-89.853 36.054-2.548-1.415-30.109-25.294-32.94-23.218-4.625-16.423-.566-27.843 14.535-33.034"/><path fill="#00629a" d="M1231.004 491.184c.566-.377 2.17.189 4.342 1.51-3.587 7.928-12.176 25.39-27.372 48.891l2.36-25.2c1.699-11.798 9.816-21.426 20.576-26.145-.095.283 0 .66.094.944"/><path fill="#43464a" d="M1249.692 446.54s-4.342-9.25-9.533-28.41c-2.737 11.138-7.173 28.694-9.91 32.752 0 0 17.838 3.964 33.978 3.775.189-1.793.378-3.68.566-5.38h-.094a62 62 0 0 1-15.007-2.737"/><path fill="#e0e2e5" d="M1235.817 391.515c6.041-3.776 13.025-5.758 20.199-5.758 15.29 0 26.805-12.647 26.805-12.647 5.757 5.757 11.609 4.813 11.609 4.813-.095 1.982-.189 3.964-.189 5.947 0 5.946.66 11.798 1.888 17.555 3.209-5.569 9.438-14.063 15.007-7.928 1.416 1.51 1.982 3.398 1.982 5.568.094 9.25-10.477 22.464-12.553 25.012 0 .66-.095 1.416-.095 2.077-.094 1.132-.283 2.17-.377 3.303-1.227 7.645-4.059 15.007-8.4 21.52s5.757 1.226 14.912 1.982l.661 22.369h-45.682c.378-3.304 1.416-10.949 1.794-14.536 5.663-3.586 10.948-7.833 15.573-12.647l.189-.189c-4.72 1.227-9.627 1.7-14.441 1.322h-.094c-5.097-.284-10.1-1.227-15.007-2.738 0 0-4.342-9.25-9.533-28.41v-.282c-1.416-5.286-2.454-10.571-3.21-15.951v-.094c-.471-3.776-.849-7.268-1.038-10.288"/><path fill="#7ebdff" d="M1237.8 362.822a68.4 68.4 0 0 1 25.011-4.72c8.212-.094 16.423 1.416 23.974 4.437 23.69 9.721 38.886 37.281 38.886 37.281l2.17-30.202-4.718-11.893s0-12.364-3.87-20.01c-3.776-7.644-15.29-15.29-15.29-15.29s-12.27-1.32-21.237 2.927c-3.492 1.604-17.083 12.364-17.083 12.364l-11.42 3.775-16.518 21.33z"/><path fill="#c1c7cc" d="M1264.793 449.278c-.188 1.698-.377 3.586-.566 5.38-.283 2.076-.566 4.058-.755 6.134 5.663-3.586 10.949-7.833 15.573-12.647l.19-.189c-4.72 1.227-9.628 1.7-14.442 1.322"/><path fill="#43464a" d="M1326.992 421.906c0-7.362-.472-14.724-1.321-22.086 0 0-15.196-27.56-38.886-37.281-7.645-3.02-15.762-4.625-23.974-4.436-8.589 0-16.989 1.604-25.011 4.719a40 40 0 0 0-2.643 1.604c-23.03 15.29-4.153 31.336-3.964 31.62l5.757 5.85v-.094c-.566-3.775-.944-7.267-1.133-10.287 6.041-3.776 13.025-5.758 20.199-5.758 15.29 0 26.805-12.647 26.805-12.647 5.757 5.757 11.609 4.813 11.609 4.813-.566 7.834.094 15.762 1.699 23.502 3.209-5.569 9.438-14.063 15.007-7.928 7.456 8.117-7.928 27.465-10.571 30.58 0 .66-.095 1.416-.095 2.077-.094 1.132-.283 2.17-.377 3.303-1.227 7.645-4.059 15.007-8.4 21.52 0 0 32.468 4.719 38.225 1.51 0 0-2.926-11.42-2.926-30.58"/></g></g></svg>