<svg xmlns="http://www.w3.org/2000/svg" xmlns:xlink="http://www.w3.org/1999/xlink" viewBox="0 0 1920 1080"><defs><linearGradient id="a" x1="157.999" x2="306.001" y1="927.432" y2="927.432" data-name="Unbenannter Verlauf 25" gradientTransform="matrix(1 0 0 -1 0 1082)" gradientUnits="userSpaceOnUse"><stop offset="0" stop-color="#942331"/><stop offset=".04" stop-color="#931813"/><stop offset=".08" stop-color="#b12638"/><stop offset=".12" stop-color="#af1917"/><stop offset=".13" stop-color="#b11917"/><stop offset=".15" stop-color="#cb1517"/><stop offset=".17" stop-color="#d51317"/><stop offset=".18" stop-color="#c41b2e"/><stop offset=".21" stop-color="#88357f"/><stop offset=".24" stop-color="#853580"/><stop offset=".26" stop-color="#6e368c"/><stop offset=".29" stop-color="#3a4190"/><stop offset=".32" stop-color="#14387f"/><stop offset=".42" stop-color="#312a6f"/><stop offset=".49" stop-color="#283587"/><stop offset=".56" stop-color="#1d61a1"/><stop offset=".59" stop-color="#347eac"/><stop offset=".63" stop-color="#50a2bb"/><stop offset=".66" stop-color="#5bb0c0"/><stop offset=".67" stop-color="#55aebf"/><stop offset=".69" stop-color="#46a7bc"/><stop offset=".71" stop-color="#2b9db7"/><stop offset=".74" stop-color="#008bae"/><stop offset=".83" stop-color="#009972"/><stop offset=".89" stop-color="#00a24c"/><stop offset="1" stop-color="#00937d"/></linearGradient><linearGradient id="b" x1="200.188" x2="181.94" y1="927.432" y2="927.432" data-name="Unbenannter Verlauf 10" gradientTransform="matrix(1 0 0 -1 0 1082)" gradientUnits="userSpaceOnUse"><stop offset="0" stop-color="#88357f"/><stop offset=".34" stop-color="#88357f"/><stop offset=".72" stop-color="#8c2b58"/><stop offset="1" stop-color="#8f2540"/></linearGradient><linearGradient xlink:href="#a" id="e" x1="158" x2="306" y1="927.933" y2="927.933" data-name="Unbenannter Verlauf 25"/><linearGradient id="f" x1="260.166" x2="213.078" y1="1010.005" y2="902.643" data-name="Unbenannter Verlauf 4" gradientTransform="matrix(1 0 0 -1 0 1082)" gradientUnits="userSpaceOnUse"><stop offset="0" stop-color="#312a6f"/><stop offset=".24" stop-color="#312a6f"/><stop offset=".45" stop-color="#2c2d73"/><stop offset=".7" stop-color="#1e377f"/><stop offset=".96" stop-color="#064692"/><stop offset="1" stop-color="#024995"/></linearGradient><linearGradient xlink:href="#a" id="g" x1="158" x2="306" y1="927.933" y2="927.933" data-name="Unbenannter Verlauf 25"/><linearGradient id="h" x1="193.836" x2="209.96" y1="927.933" y2="927.933" data-name="Unbenannter Verlauf 6" gradientTransform="matrix(1 0 0 -1 0 1082)" gradientUnits="userSpaceOnUse"><stop offset="0" stop-color="#6e368c"/><stop offset="1" stop-color="#3a4190"/></linearGradient><linearGradient xlink:href="#a" id="i" x1="158" x2="306" y1="927.933" y2="927.933" data-name="Unbenannter Verlauf 25"/><linearGradient id="j" x1="222.039" x2="200.189" y1="927.933" y2="927.933" data-name="Unbenannter Verlauf 8" gradientTransform="matrix(1 0 0 -1 0 1082)" gradientUnits="userSpaceOnUse"><stop offset="0" stop-color="#14387f"/><stop offset=".22" stop-color="#19387f"/><stop offset=".47" stop-color="#273881"/><stop offset=".74" stop-color="#3f3983"/><stop offset="1" stop-color="#5c3986"/></linearGradient><linearGradient xlink:href="#a" id="k" x1="158.001" x2="305.998" y1="928.432" y2="928.432" data-name="Unbenannter Verlauf 25"/><linearGradient xlink:href="#b" id="l" x1="201.005" x2="181.265" y1="928.432" y2="928.432" data-name="Unbenannter Verlauf 10"/><linearGradient xlink:href="#a" id="m" x1="158" x2="306" y1="927.933" y2="927.933" data-name="Unbenannter Verlauf 25"/><linearGradient id="n" x1="289.042" x2="289.042" y1="1063.601" y2="792.263" data-name="Unbenannter Verlauf 12" gradientTransform="matrix(1 0 0 -1 0 1082)" gradientUnits="userSpaceOnUse"><stop offset="0" stop-color="#94bd55"/><stop offset=".3" stop-color="#8cbc66"/><stop offset=".67" stop-color="#85bb73"/><stop offset="1" stop-color="#83bb78"/></linearGradient><linearGradient xlink:href="#a" id="o" x1="158" x2="306" y1="927.933" y2="927.933" data-name="Unbenannter Verlauf 25"/><linearGradient id="p" x1="231.319" x2="323.687" y1="992.633" y2="865.181" data-name="Unbenannter Verlauf 14" gradientTransform="matrix(1 0 0 -1 0 1082)" gradientUnits="userSpaceOnUse"><stop offset="0" stop-color="#00a24c"/><stop offset=".27" stop-color="#00a053"/><stop offset=".64" stop-color="#009a65"/><stop offset="1" stop-color="#00937d"/></linearGradient><linearGradient xlink:href="#a" id="q" x1="158" x2="306" y1="927.933" y2="927.933" data-name="Unbenannter Verlauf 25"/><linearGradient id="r" x1="300.144" x2="300.144" y1="1063.601" y2="792.263" data-name="Unbenannter Verlauf 16" gradientTransform="matrix(1 0 0 -1 0 1082)" gradientUnits="userSpaceOnUse"><stop offset="0" stop-color="#689f60"/><stop offset=".15" stop-color="#4d9752"/><stop offset=".31" stop-color="#389147"/><stop offset=".49" stop-color="#298c40"/><stop offset=".69" stop-color="#208a3b"/><stop offset="1" stop-color="#1d893a"/></linearGradient><linearGradient xlink:href="#a" id="s" x1="158" x2="306" y1="927.933" y2="927.933" data-name="Unbenannter Verlauf 25"/><linearGradient id="t" x1="267.3" x2="267.3" y1="1063.601" y2="792.263" data-name="Unbenannter Verlauf 18" gradientTransform="matrix(1 0 0 -1 0 1082)" gradientUnits="userSpaceOnUse"><stop offset="0" stop-color="#00b5dd"/><stop offset=".28" stop-color="#00afd6"/><stop offset=".67" stop-color="#009ec3"/><stop offset="1" stop-color="#008bae"/></linearGradient><linearGradient xlink:href="#a" id="u" x1="158.001" x2="306" y1="927.933" y2="927.933" data-name="Unbenannter Verlauf 25"/><linearGradient id="v" x1="297.444" x2="333.937" y1="930.188" y2="953.921" data-name="Unbenannter Verlauf 20" gradientTransform="matrix(1 0 0 -1 0 1082)" gradientUnits="userSpaceOnUse"><stop offset="0" stop-color="#62b16e"/><stop offset="1" stop-color="#86b857"/></linearGradient><linearGradient xlink:href="#a" id="w" x1="158" x2="306" y1="927.933" y2="927.933" data-name="Unbenannter Verlauf 25"/><linearGradient id="x" x1="210.501" x2="303.706" y1="990.229" y2="863.41" data-name="Unbenannter Verlauf 22" gradientTransform="matrix(1 0 0 -1 0 1082)" gradientUnits="userSpaceOnUse"><stop offset="0" stop-color="#009ad2"/><stop offset=".22" stop-color="#0f9ecf"/><stop offset=".65" stop-color="#37a7c7"/><stop offset="1" stop-color="#5bb0c0"/></linearGradient><linearGradient xlink:href="#a" id="y" x1="158" x2="306" y1="927.933" y2="927.933" data-name="Unbenannter Verlauf 25"/><linearGradient id="z" x1="238.866" x2="238.866" y1="1063.601" y2="792.263" data-name="Unbenannter Verlauf 24" gradientTransform="matrix(1 0 0 -1 0 1082)" gradientUnits="userSpaceOnUse"><stop offset="0" stop-color="#174290"/><stop offset=".4" stop-color="#20559e"/><stop offset="1" stop-color="#327ab9"/></linearGradient><linearGradient xlink:href="#a" id="A" x1="158" x2="306" y1="927.933" y2="927.933" data-name="Unbenannter Verlauf 25"/><linearGradient id="B" x1="246.53" x2="246.53" y1="792.263" y2="1063.601" data-name="Unbenannter Verlauf 26" gradientTransform="matrix(1 0 0 -1 0 1082)" gradientUnits="userSpaceOnUse"><stop offset="0" stop-color="#3e9ac9"/><stop offset="1" stop-color="#1d61a1"/></linearGradient><clipPath id="d"><path fill="none" d="M158 153.067h148v2H158z"/></clipPath><mask id="c" width="138.236" height="15.996" x="163" y="744" maskUnits="userSpaceOnUse"><path fill="#fff" d="M163 744h138.236v15.798H163z"/></mask></defs><g fill="#fff"><path d="M1047.213 818H571.666l-1.177 42.008-3.42 89.992h484.003l-2.649-104.025s-.5-11.373-1.21-27.975M512.305 950c1.878-19.414 5.01-33.078 10.94-74.075 2.875-19.858 2.369-39.19.09-57.925h-14.879c-6.87 30.534-11.74 54.727-11.74 54.727L483.48 950z"/><path d="M0 0v950h425.049c9.277-67.006 25.705-110.605 32.724-132H90V24h1740v554.825a15 15 0 0 1 1.583 2.412c2.993 3.663 5.27 8.57 6.89 15.048l15.17 101.436.01-.001-.003.049.003.021h-.005c-.752 15.76-9.97 23.979-23.648 27.569v2.61h90V0z"/></g><path fill="#fff" d="m1135.711 950-12.877-98.682s-2.96-13.673-7.492-33.318h-12.08c3.261 40.511 7.527 90.027 11.084 132zm58.406 0h231.153l6.814-132H1162.26c11.38 27.904 19.839 45.047 31.858 132"/><g fill="#eff1f2"><path d="M145 92h173v164H145zM145 295.661h173v172.794H145zM331 92h173v164H331zM145 722h173v76H145z"/></g><path fill="#b2b9c0" d="M410 1073.022c0-1.453.436-2.834 1.236-3.997l25.08-18.954h-17.95c0-37.793 2.674-71.116 6.683-100.071H0v130h416.977a6.98 6.98 0 0 1-6.977-6.978M1879.803 950l5.49 106.366h-12.458L1867.343 950h-30.79l5.901 105.761h-13.709L1822.897 950h-51.085l-5.492 106.366h-12.47L1759.346 950h-41.2l-5.824 105.247h-13.557L1704.606 950h-38.493c-1.203 19.017-2.54 37.568-3.06 54.505l14.664 22.589-49.322 25.714a26.49 26.49 0 0 1-22.81.594l-.223-.07 41.325-44.006L1634.372 950h-45.36c-11.676 21.907-25.221 43.51-38.262 64.605l2.156 41.761h-12.469l-.665-12.876-3.095 12.876-55.268-25.855a26.78 26.78 0 0 1-14.586-17.63l-.08-.222 62.969 5.474.075.035 7.227-28.089-2.07-40.079h-97.213l-5.493 106.366h-12.458L1425.27 950h-231.153c2.577 18.648 5.319 40.507 8.288 66.372l-11.388.02 24.836 18.58c.784 1.102 1.179 2.401 1.249 3.832a6.69 6.69 0 0 1-6.676 6.72l-34.139.114 2.113-29.204 11.761-.04-45.774.083L1135.71 950h-21.365c2.26 26.676 4.235 50.303 5.484 66.627l-28.216.049 5.924 29.226-55.988.188c-7.348.024-14.318-3.363-19.02-9.166l-.13-.2 52.307-20.02-21.937.038-1.698-66.742H567.068l-3.843 101.11 52.9 19.368-.145.218a25.69 25.69 0 0 1-19.77 9.303h-75.37l5.926-28.766H509c.855-58.62 1.5-82.58 3.305-101.233h-28.826l-17.143 100.07h-1.158l2.313 29.93H1920V950z"/><path fill="#eff1f2" d="M240.607 597.612h-48.35v-4.145h48.35zm5.526-4.145h22.103v4.145h-22.103zM291 665h27V508.073H145v172.795h146zm-32.485-49.689 57.705 33.071-26.62 7.128-17.472 24.862zM484.566 458.71l-.017-.009 10.586-6.533 3.126-9.74.02.004 2.347-12.933-4.67-19.144c.03.063.065.124.095.187-1.206-2.533-2.07-5.143-2.045-7.427 0 .025-.006.048-.006.073-.219-.582-.319-1.224-.537-1.95-2.471-7.632-5.015-25.003.436-27.983 3.317-1.847 6.807-2.544 10.099-3.375v-74.22H331v172.795h136.86zM145 92h173v164H145z"/><g fill="#e0e2e5"><path d="M523.335 818a334 334 0 0 0-3.073-20h-7.219c-1.6 6.838-3.138 13.56-4.587 20zm48.892-20-.56 20h475.546c-.26-6.067-.547-12.834-.849-20z"/><path d="M90 24v794h367.773c2.128-6.485 3.393-10.937 3.33-13.375l-.176-6.625H110V92h1700v477.775c3.237 1.37 6.4 2.447 8.403 2.822v.03c5.539 1.074 9.203 3.216 11.597 6.198V24zm30 41.5a9 9 0 1 1 0-18 9 9 0 0 1 0 18m28 .5a9 9 0 1 1 0-18 9 9 0 0 1 0 18m28 0a9 9 0 1 1 0-18 9 9 0 0 1 0 18"/></g><path fill="#eff1f2" d="M540 92v204.827a91 91 0 0 1 9.589-7.532l.01-.007a91 91 0 0 1 3.32-2.158l.168-.106a91 91 0 0 1 3.326-1.956l.252-.141a91 91 0 0 1 3.38-1.788l.276-.137a91 91 0 0 1 3.483-1.646l.218-.095a91 91 0 0 1 3.652-1.526l.055-.021a90 90 0 0 1 7.658-2.601l.25-.074a90 90 0 0 1 3.702-.976l.443-.109a91 91 0 0 1 3.656-.784l.546-.104a91 91 0 0 1 3.671-.61l.57-.08a91 91 0 0 1 3.742-.442l.514-.046a92 92 0 0 1 3.883-.275l.347-.013a93 93 0 0 1 4.119-.097c50.258 0 91 40.742 91 91s-40.742 91-91 91c-18.154 0-35.065-5.318-49.264-14.479-2.124 3.5-5.552 4.404-5.552 4.404a55 55 0 0 1-2.926 2.62v10.507l7.498 4.822v.001l12.78 7.71c14.536 8.795 22.894 25.076 21.44 42.01l-6.693 46.237 3.973-.832 20.31-41.407c.872-1.962 2.907-3.27 5.087-3.343h77.988c4.433 0 7.195 5.378 5.015 9.74l-3.865 7.879.885-.03-2.253 32.634s-5.829 1.315-15.281 1.34l-2.017 4.111c-.873 1.963-2.835 3.27-5.015 3.344h-31.35c-14.353 8.188-35.822 19.04-59.189 26.013l-.17 1.17 5.161 61.342h-1.334L572.227 798H846V407h-40v-48h40V152h300v242.982c3.699 4.91 5.808 11.157 5.122 18.928-.052.643 1.216 52.769 1.216 52.769l-6.338-.342v30.3c.163.054.335.115.485.159l-.003.028c5.595 1.691 8.936 4.377 10.802 7.855 9.644 7.565 53.038 41.573 66.44 51.625 15.112 11.334 10.39 24.557 10.39 24.557l-61.392 50.058-3.3-4.33-1.379.98s-3.15 6.085-8.652 12.885c1.456 2.193 2.404 4.402 2.266 6.35-.41 5.868-2.105 21.335-4.975 23.315L1146 654.826v3.094l5.291 22.888c8.106 25.331 6.393 53.399 5.274 102.28-.139 5.344-.126 10.342.215 14.912h276.337l2.972-57.571h-51.7v-12.46H1459v-30.703h-25.028c-5.723 0-10.362-4.64-10.362-10.362V574.25c0-5.723 4.64-10.363 10.362-10.363H1459V252.142h-178.11v-48H1459V92z"/><g fill="#fff"><path d="M1738.538 727.97c-.187-.619-.375-1.234-.56-1.835a30 30 0 0 1-7.735 1.835zM1459 740.429V798h68.113l-2.955-57.571zM1493.152 697.266H1459v30.704h29.07zM1600.244 785.931l-2.018-9.608c40.592-27.256 144.164-35.28 144.164-35.28l-.177-.614h-205.616l2.972 57.571h46.865l1.833-7.121s4.268-1.93 11.977-4.948m131.174-206.761.14-.015zM1459 252.142v311.745h166.694c5.723 0 10.362 4.64 10.362 10.363v112.654c0 5.723-4.64 10.362-10.362 10.362h-96.698l-3.187 24.273h25.222v-5.907h47.064l11.783-10.735h31.339l7.66 4.536c18.629-3.75 52.467-9.818 69.603-11.17l.215-.014c-.216-8.728-.455-18.66-.685-28.781a2441 2441 0 0 0-3.25-8.913c-.886-2.44-1.703-4.738-2.287-6.885-4.597-15.634-2.5-24.746 3.548-34.08.329-.47.672-.927 1.006-1.392a970 970 0 0 1-.089-11.48c0-7.655-.744-23.284 11.802-26.973h-.001l-.002.001 21.743-7.38.135-.253c4.375-8.74 4.224-12.368 4.224-12.368l.797-.042 1.068-9.192c.3-2.788.641-5.686.932-8.336h.003a47.2 47.2 0 0 1-11.56-2.076l.102-.012-.102-.029s-2.883-6.189-6.522-19.152c-.221-.887-.514-1.733-.735-2.741a123 123 0 0 1-3.214-18.864c-6.956-3.667-9.707-8.136-10.122-11.387-2.127-16.692 12.51-23.597 19.626-25.966 14.142-4.737 45.44-7.993 52.174 17.781.986 3.669 1.727 9.66 1.666 16.263l.25-.042s0 25.37-11.315 32.728l2.937 16.46 2.256 12.614 1.615-.084s.07 1.33 4.375 5.857c1.923 1.946 6.495 4.373 10.93 6.25V92h-351v112.142h21.89v48z"/><path d="m1741.584 579.885.175.052zm-4.781-.85h-.002q.465.033.918.08c-.3-.034-.608-.056-.916-.08m2.059.244.323.05q-.162-.027-.323-.05"/></g><g fill="#fff"><path d="m1124.78 469.579-1.053 4.812 1.646.275 3.933 11.801.023.03c2.683 3.335 12.115 8.625 16.671 10.14v-30.3l-20.488-1.106zM1146 657.92v-3.094l-1.069-1.53zM1091.438 501.721l.004.012zm6.876 246.726c.436 10.132 1.675 27.787 3.364 49.553h8.982c-3.724-15.664-7.993-33.032-12.346-49.553M1006 407h-51.564l1.855 11.2 5.639 1.847L964 448l-.043 4.195c1.644 5.586 3.567 12.14 5.5 18.774l3.628-.423 12.507 55.136s51.807-21.553 75.728-30.392c2.461-.91 5.831-2.252 9.471-3.11l13.084-3.85 6.938-19.424.316.052 1.851-5.408.036-.072-1.563-.085s.936-3.264 2.302-8.137a44 44 0 0 1-6.862-4.245l.092.021-.079-.057s-.59-6.37.29-18.955c.085-.852.094-1.692.216-2.65a115 115 0 0 1 2.374-14.6l-6.016-2.602s3.384-31.893 27.57-32.19c10.697-.13 26.524 4.203 34.66 15.004V152H846v207h160z"/><path d="M1042.504 690.187c.216-4.197.751-10.692 1.327-16.992-2.679-.622-4.25-1.104-4.25-1.104s4.879-38.427 6.613-46.89c1.128-10.233-.17-38.526-4.704-56.298-.595-2.358-1.137-4.578-1.477-6.635-1.312-7.053-1.371-12.612-.403-17.378-36.43 10.552-83.74 22.212-83.74 22.212l-8.46-93.566 3.046-.354c-.511-9.69-.833-16.214-.833-16.214s-11.535-6.748-15.524-32.722c-.03-.111-.072-.218-.099-.33l14.36-3.383.013.044.037-.009s-.661-8.199-1.098-13.568H846v391h200.364c-1.83-43.502-4.172-101.739-3.86-107.813M947.006 403.26"/></g><path fill="#fff" d="M513.043 798h7.219a471 471 0 0 0-3.32-16.35l-.02.08c-1.322 5.44-2.62 10.89-3.879 16.27M469.73 661.297h-7.9l-3.548-62.39h.002c-19.21 6.19-36.081 3.664-45.878-16.906l25.802-88.453c3.767-12.596 10.577-18.056 20.071-19.503l26.287-15.334-.017-.01 10.586-6.533 3.125-9.739.02.003 2.348-12.933-4.67-19.144c.03.063.065.124.095.187-1.206-2.533-2.07-5.143-2.045-7.427 0 .025-.006.048-.006.073-.219-.582-.319-1.224-.537-1.95-2.471-7.632-5.015-25.003.436-27.983 5.409-3.012 11.278-2.972 15.996-5.434a93 93 0 0 1-.067-3.318c0-26.87 11.65-51.018 30.17-67.676V92H110v706h350.927c-1.89-69.84-3.368-90.258 8.802-136.703"/><path fill="#eff1f2" d="M460.007 722H331v76h129.927c-.927-34.256-1.754-56.621-.92-76M145 722v76h18v-54h138.236v54H318v-76zM469.73 661.297h-7.9L460.732 642H370v-94h52.324l11.647-39.927H331V665h137.775c.309-1.218.625-2.449.954-3.703M331 92h173v164H331zM484.566 458.71l-.017-.009 10.586-6.533 3.126-9.74.02.004 2.347-12.933-4.67-19.144c.03.063.065.124.095.187-1.206-2.533-2.07-5.143-2.045-7.427 0 .025-.006.048-.006.073-.219-.582-.319-1.224-.537-1.95-2.471-7.632-5.015-25.003.436-27.983 3.317-1.847 6.807-2.544 10.099-3.375v-74.22H331v172.795h136.86z"/><path fill="#d1e4ff" fill-rule="evenodd" d="M474 134v72H360v-72z"/><path fill="#00629a" fill-rule="evenodd" d="m380.782 188.807 17.152-22.006 17.18 22.006z"/><path fill="#9dc9ff" fill-rule="evenodd" d="m396.442 188.807 28.31-35.598 28.308 35.598z"/><ellipse cx="392.177" cy="156.163" fill="#fff" rx="4.8" ry="4.928"/><path d="M366 772c-5.514 0-10 4.486-10 10s4.486 10 10 10 10-4.486 10-10-4.486-10-10-10m0 18.998c-4.962 0-8.998-4.036-8.998-8.998s4.036-8.998 8.998-8.998 8.998 4.037 8.998 8.998-4.036 8.998-8.998 8.998M418 772c-5.514 0-10 4.486-10 10s4.486 10 10 10 10-4.486 10-10-4.486-10-10-10m0 18.998c-4.962 0-8.998-4.036-8.998-8.998s4.036-8.998 8.998-8.998 8.998 4.037 8.998 8.998-4.036 8.998-8.998 8.998M393.5 748h48v8h-48z"/><path fill="#eff1f2" d="M366 773.002c-4.962 0-8.998 4.037-8.998 8.998s4.036 8.998 8.998 8.998 8.998-4.036 8.998-8.998-4.036-8.998-8.998-8.998m52 0c-4.962 0-8.998 4.037-8.998 8.998s4.036 8.998 8.998 8.998 8.998-4.036 8.998-8.998-4.036-8.998-8.998-8.998"/><path fill="#00629a" fill-rule="evenodd" d="m397.934 166.8-17.152 22.007h15.66l9.423-11.848z"/><path fill="#9dc9ff" fill-rule="evenodd" d="m396.442 188.807 28.31-35.598 28.308 35.598z"/><path fill="#d1e4ff" fill-rule="evenodd" d="M360 134v72h114v-72zm32.177 17.235c2.651 0 4.8 2.206 4.8 4.928s-2.149 4.928-4.8 4.928-4.8-2.206-4.8-4.928 2.15-4.928 4.8-4.928m4.265 37.572h-15.66l17.152-22.006 7.93 10.158 18.887-23.75 28.31 35.598z"/><ellipse cx="392.177" cy="156.163" fill="#fff" rx="4.8" ry="4.928"/><path d="M170.983 772.143h12.592v2.072h-12.592zM170.983 777.323h40.926v2.072h-40.926zM170.983 781.468h40.926v2.072h-40.926zM170.983 786.648h40.926v2.072h-40.926zM170.983 793.901h10.074v2.072h-10.074z"/><circle cx="276.5" cy="751.5" r="1.5"/><circle cx="286.5" cy="751.5" r="1.5"/><circle cx="296.5" cy="751.5" r="1.5"/><path fill="#fff" d="M163 744v54h138.236v-54zm7.983 28.143h12.592v2.072h-12.592zm10.074 23.83h-10.074V793.9h10.074zm30.851-7.253h-40.925v-2.072h40.925zm0-5.18h-40.925v-2.072h40.925zm0-4.145h-40.925v-2.072h40.925zM276.5 753a1.5 1.5 0 1 1 0-3 1.5 1.5 0 0 1 0 3m10 0a1.5 1.5 0 1 1 0-3 1.5 1.5 0 0 1 0 3m10 0a1.5 1.5 0 1 1 0-3 1.5 1.5 0 0 1 0 3"/><g mask="url(#c)"><path d="M301.236 759.6H163v.396h138.236z"/></g><g fill="#d0d4d8"><path d="M990 300h92l-46-58-30.86 38.91L991.977 264 964 300z"/><path d="M866 172v148h64V210h186v110h10V172z"/><circle cx="982" cy="246" r="8"/></g><circle cx="982" cy="246" r="8" fill="#fff"/><path fill="#00629a" fill-rule="evenodd" d="m964 300 27.977-36L1020 300z"/><path fill="#9dc9ff" fill-rule="evenodd" d="m990 300 46-58 46 58z"/><path d="M1490 220h70v4h-70zM1490 291h70v4h-70z"/><path fill="#d0d4d8" d="M1459 264h351v1h-351zM1490 419.304h69.057v3.5H1490z"/><rect width="224" height="24" x="1490" y="314" fill="#e0e2e5" rx="6.22" ry="6.22"/><path d="M1774.494 397.332v-11.533h-1v11.533h-11.522v1h11.522v11.533h1v-11.533h11.523v-1z"/><path fill="#00a4fd" d="M1774.725 174h-65.45c-5.122 0-9.275-5.37-9.275-11.995v-12.01c0-6.625 4.153-11.995 9.275-11.995h65.45c5.122 0 9.275 5.37 9.275 11.995v12.01c0 6.625-4.153 11.995-9.275 11.995"/><circle cx="1558" cy="156" r="18" fill="#383b3e"/><circle cx="1607" cy="156" r="18" fill="#004975"/><path d="M1490 396h70v4h-70z"/><path fill="#d0d4d8" d="M1459 372h351v1h-351zM1490 506h70v4h-70zM1490 557h70v4h-70z"/><path fill="#0096e8" d="M1506 138c-9.941 0-18 8.059-18 18a17.9 17.9 0 0 0 3.914 11.187L1516.67 153l-4.134 19.758C1519.241 170.14 1524 163.633 1524 156c0-9.941-8.059-18-18-18M1280.891 204.142h200v48h-200z"/><path fill="#0096e8" d="m1491.334 192.707 9.787 15.076 9.809-46.883-41.944 24.038 21.622 6.651z"/><path fill="#fff" d="m1459 186.05 29.043 8.935 15.005 23.114L1516.67 153zm42.12 21.733-9.786-15.076-.726-1.118-21.622-6.651 41.944-24.038z"/><path fill="#eff1f2" d="M145 508.073v172.795h146V665h27V508.073z"/><path fill="#fff" d="M158.852 371.999H304v20.722H158.852zM387.502 374.507h59.863v6.907h-59.863z"/><path d="M187.219 378.216h88.413v8.289h-88.413z"/><path fill="#fff" d="M387.502 374.507h59.863v6.907h-59.863z"/><path d="M187.219 378.216h88.413v8.289h-88.413z"/><path fill="#fff" d="M158.852 372v20.72H304V372zm116.78 14.504H187.22v-8.288h88.413z"/><path fill="#007bc0" d="M360.794 362.765v30.392h113.279v-30.392zm86.57 18.65h-59.862v-6.908h59.863z"/><path fill="#eff1f2" d="M145 92v164h173V92z"/><path fill="#eff1f2" d="M145 92h173v164H145z"/><path fill="#fff" d="M158 155v32h148v-32zm20.988 19.334a6 6 0 0 1-2.692 2.208 5.994 5.994 0 0 1-8.18-4.372 6.002 6.002 0 0 1 10.127-5.413 6 6 0 0 1 .745 7.577M220 175h-34v-7.925l34-.075z"/><path d="M173.999 165a6 6 0 0 0-5.542 3.704 6 6 0 0 0 1.3 6.538 5.995 5.995 0 0 0 6.539 1.3A5.999 5.999 0 0 0 173.999 165"/><path fill="#ed0007" fill-rule="evenodd" d="M186 167.075V175h34v-8z"/><g clip-path="url(#d)"><path fill="url(#a)" d="M193.748 155.068h.134l-.047-1z"/><path fill="url(#b)" d="M193.748 155.068h.134l-.047-1z"/><path fill="url(#e)" d="M217.054 155.068h14.229v-2.001h-14.225l-.038 1.001z"/><path fill="url(#f)" d="M217.054 155.068h14.229v-2.001h-14.225l-.038 1.001z"/><path fill="url(#g)" d="M193.882 155.068h16.006l.072-1-.067-1.001h-16.006l-.051 1.001z"/><path fill="url(#h)" d="M193.882 155.068h16.006l.072-1-.067-1.001h-16.006l-.051 1.001z"/><path fill="url(#i)" d="M209.888 155.068h7.166l-.033-1 .037-1.001h-7.164l.066 1.001z"/><path fill="url(#j)" d="M209.888 155.068h7.166l-.033-1 .037-1.001h-7.164l.066 1.001z"/><path fill="#af1917" d="M176.26 155.068h1.244l-.032-1 .031-1.001h-1.243l.136 1.001z"/><path fill="url(#k)" d="M193.887 153.067h-.14l.089 1.001z"/><path fill="url(#l)" d="M193.887 153.067h-.14l.089 1.001z"/><path fill="#b12638" d="m176.26 155.068.135-1-.135-1.001h-6.874v2z"/><path fill="#942331" d="M169.386 153.067H158v2h11.386z"/><path fill="#d51317" d="M177.504 155.068h16.242l.089-1-.09-1.001h-16.242l-.031 1.001z"/><path fill="url(#m)" d="M293.79 155.068c-.04-.667-.076-1.334-.12-2.001h-9.377l.121 2z"/><path fill="url(#n)" d="M293.79 155.068c-.04-.667-.076-1.334-.12-2.001h-9.377l.121 2z"/><path fill="url(#o)" d="m284.416 155.068-.12-2.001H272.2l-.078 2z"/><path fill="url(#p)" d="m284.416 155.068-.12-2.001H272.2l-.078 2z"/><path fill="url(#q)" d="M306 155.068v-2.001h-11.587l-.126 2z"/><path fill="url(#r)" d="M306 155.068v-2.001h-11.587l-.126 2z"/><path fill="url(#s)" d="m272.124 155.068.077-2.001h-9.802l.07 2z"/><path fill="url(#t)" d="m272.124 155.068.077-2.001h-9.802l.07 2z"/><path fill="#283587" d="m234.877 155.068.026-1-.026-1.001h-3.595v2z"/><path fill="url(#u)" d="m294.287 155.068.126-2.001h-.746c.04.667.076 1.334.12 2z"/><path fill="url(#v)" d="m294.287 155.068.126-2.001h-.746c.04.667.076 1.334.12 2z"/><path fill="url(#w)" d="m262.47 155.068-.07-2.001h-12.196l-.033 2z"/><path fill="url(#x)" d="m262.47 155.068-.07-2.001h-12.196l-.033 2z"/><path fill="url(#y)" d="M234.877 155.068h7.979v-2.001h-7.98l.028 1.001z"/><path fill="url(#z)" d="M234.877 155.068h7.979v-2.001h-7.98l.028 1.001z"/><path fill="url(#A)" d="m250.172 155.068.032-2.001h-7.348v2z"/><path fill="url(#B)" d="m250.172 155.068.032-2.001h-7.348v2z"/></g><path fill="#fff" d="M438 630h22.05l-1.768-31.092.002-.001-.284.088V600h-3.435c-8.796 2.336-17.02 2.651-24.189 0H376v-4h47.158c-4.147-3.18-7.777-7.753-10.752-13.999L422.324 548H370v94h68zm-62-44h32v4h-32zm0 20h82v4h-82zm0 10h82v4h-82zm20 18h-20v-4h20z"/><path fill="#004975" d="M468.775 665H291v48h169.532c1.153-15.405 3.609-29.737 8.243-48"/><path fill="#004975" d="M318 665h-27v48h169.532c.025-.34.055-.679.082-1.019v.002c1.185-15.02 3.63-29.124 8.161-46.983z"/><path fill="#eff1f2" d="m467.747 669.136-.003.01z"/><path d="M192.256 593.467h48.351v4.144h-48.351z"/><path fill="#007bc0" d="M246.133 593.467h22.103v4.144h-22.103z"/><path d="M192.256 593.467h48.351v4.144h-48.351z"/><path fill="#007bc0" d="M246.133 593.467h22.103v4.144h-22.103z"/><path d="M376 616h82v4h-82zM376 606h82v4h-82zM376 586h32v4h-32zM376 630h20v4h-20z"/><path fill="#eff1f2" d="m274.155 670.53 13.008-18.508 18.65-4.994-41.559-23.817z"/><path fill="#fff" d="m258.515 615.311 13.613 65.06 17.473-24.86 26.619-7.129zm28.648 36.711-13.008 18.508-9.9-47.319 41.558 23.817z"/><path fill="#004975" d="m264.254 623.211 9.901 47.32 13.008-18.509 18.65-4.994z"/><path fill="#fff" d="M387.502 374.507h59.863v6.907h-59.863z"/><g fill="#fff"><path d="m1704.606 950 6.123-110.283h-3.78a21.37 21.37 0 0 1-15.157-6.234 21.36 21.36 0 0 1-6.193-13.32c-9.81-.434-18.74-.817-26.722-.99l-.247-.004c12.535 35.38 10.413 84.496 7.483 130.831zM1765.02 840.132l-40.774-.415L1718.144 950h41.201zM1818.103 863.304h-41.814L1771.812 950h51.085zM1618.364 872.878c-4.79 25.908-15.813 51.72-29.352 77.122h45.36zM1581.289 818H1540.6l6.8 131.712zM1817.414 850.845l-.593-10.725-41.086.12 1.746-.004-.547 10.609zM1529.823 850.805 1528.139 818h-83.59l-1.696 32.804zM1879.803 950H1920V740.429h-51.015zM1534.945 950l-4.477-86.696h-88.26L1437.73 950z"/><path d="M1830 740.429V818h-39.548c-.755.217-1.504.439-2.286.64h67.199l.002-.031v.03h-.002c-.005 11.62-9.411 21.05-21.035 21.078h-3.932l.622 11.128h31.201l-5.705-110.416zM1862.866 863.304h-31.151l4.837 86.696h30.79z"/></g><path fill="#e0e2e5" d="m1031.653 343-4.184 20H1083v-20zM1017.673 363l-7.597-11.703L983.105 343H865v16h141v4zM1006 376h51v20h-51z"/><path fill="#383b3e" d="m1013.366 349.018 9.787 15.077 9.81-46.884-41.944 24.039 21.622 6.65z"/><path fill="#383b3e" d="m1013.366 349.018 9.787 15.077 9.81-46.884-41.944 24.039 21.622 6.65z"/><path fill="#d1e4ff" fill-rule="evenodd" d="M930 210v118h76.093l32.609-18.688-3.91 18.688H1116V210zm52 28a8 8 0 1 1 0 16 8 8 0 0 1 0-16m38 62h-56l27.977-36 13.163 16.91L1036 242l46 58z"/><path fill="#fff" d="M1099.885 774h4.95a1828 1828 0 0 0-6.521-25.553c.26 6.063.81 14.834 1.57 25.553"/><path fill="#383b3e" d="m946.936 402.443 6.626-.718.874 5.275H1006v-48H806v48h141.312a846 846 0 0 0-.376-4.557"/><path fill="#d0d4d8" d="m969.457 470.969 3.628-.423 12.507 55.136s1.62-.674 4.408-1.828V470h-20.825zm-13.587 96.133-8.46-93.566 3.046-.354-.167-3.182H866v176h124v-87.584a2950 2950 0 0 1-34.13 8.686"/><g fill="#d0d4d8"><path d="m1125.373 474.666.127.382v-4.797h-.868l-.905 4.14zM1091.442 501.733l-.004-.012zm-51.832 43.157c-12.212 3.537-25.645 7.198-38.11 10.504v4.857h38.173c-.964-6.105-.937-11.061-.063-15.36m21.71-49.601c2.461-.91 5.831-2.252 9.471-3.11l13.084-3.85 6.457-18.08H1001.5v48.863c17.242-7.083 44.356-18.11 59.82-23.823"/></g><path fill="#d0d4d8" d="M1110.66 798c-1.828-7.69-3.788-15.79-5.824-24h-4.951c.51 7.191 1.115 15.26 1.793 24zm-65.294-24H867v24h179.364c-.322-7.666-.66-15.785-.998-24"/><path fill="#e0e2e5" d="M1042.921 710H866v10h177.264c-.127-3.568-.242-6.92-.343-10m-.417-19.813.011-.187H866v10h176.622c-.133-5.09-.182-8.562-.118-9.813m1.327-16.992c-2.679-.622-4.25-1.104-4.25-1.104s.097-.773.267-2.091H866v10h177.235c.185-2.216.388-4.522.596-6.805"/><path fill="#fff" d="M1115.342 818h-12.08c3.261 40.511 7.527 90.027 11.084 132h21.365l-12.877-98.682s-2.96-13.673-7.492-33.318"/><path fill="#d0d4d8" d="M1636.056 585v1h84.449q.32-.514.677-1z"/><g fill="#d0d4d8"><path d="M1743.34 533H1459v1h284.693zM1788.836 534H1810v-1h-21.342z"/></g><path fill="#d0d4d8" d="M1797.988 483H1810v-1h-12.203c.065.329.13.65.19 1m-72.545-1H1459v1h266.35c.025-.337.052-.673.092-1"/><path fill="#fff" d="M513.043 798h7.219a471 471 0 0 0-3.32-16.35l-.02.08c-1.322 5.44-2.62 10.89-3.879 16.27M438 630h22.05l-1.768-31.092.002-.001c-19.21 6.19-36.081 3.664-45.878-16.906L422.324 548H370v94h68z"/><path d="M376 616h82v4h-82zM376 606h82v4h-82zM423.158 596H376v4h54.376a27.5 27.5 0 0 1-7.218-4M376 586h32v4h-32zM376 630h20v4h-20z"/><path fill="#007bc0" d="M438 642h22.732l-.682-12H438z"/><path d="M458 600v-1.005h-.001a74 74 0 0 1-3.434 1.005z"/><g fill="#e0e2e5"><path d="M1830 740.429h-6.609c10.315 38.27 3.067 67.231-32.939 77.571H1830zM1445.582 798l-1.034 20h83.591l-1.026-20zM1539.569 798l1.032 20h40.688l5.145-20zM1433.117 798H1156.78c.505 6.774 1.737 12.596 4.315 17.13q.588 1.456 1.164 2.87h269.825zM1823.208 740.147l.003-.004zM1824.355 726.55l-.11 1.42H1830v-2.611q-2.712.711-5.645 1.19"/></g><path fill="#eff1f2" d="M145 295.661v172.795h173V295.66zm159 97.06H158.852v-20.722H304z"/><g fill="#0096e8"><path d="M635.63 330.903h-55.2v76.8h55.2zm-50.4 7.13h43.2v4.94h-43.2zm0 12h43.2v4.94h-43.2zm0 12h43.2v4.94h-43.2zm40.838 31.27a4.8 4.8 0 0 1-2.35-.613l-4.82 2.89c.003.055.009.107.009.161a4.844 4.844 0 0 1-4.839 4.84 4.844 4.844 0 0 1-4.838-4.84c0-.256.026-.507.065-.753l-3.989-3.19a6.47 6.47 0 0 1-6.387.1l-4.053 3.444c.007.086.018.172.021.259a4.8 4.8 0 0 1-1.301 3.467 4.8 4.8 0 0 1-3.539 1.534c-1.23 0-2.397-.46-3.3-1.305a4.8 4.8 0 0 1-1.53-3.372 4.8 4.8 0 0 1 1.3-3.467 4.8 4.8 0 0 1 3.373-1.53 4.8 4.8 0 0 1 2.22.457l3.738-3.178a6.5 6.5 0 0 1-.326-2.023c0-3.588 2.92-6.508 6.508-6.508s6.508 2.92 6.508 6.508c0 .638-.097 1.254-.269 1.837l4.028 3.222a4.8 4.8 0 0 1 4.084.25l4.855-2.912c-.001-.04-.006-.077-.006-.116a4.844 4.844 0 0 1 4.838-4.839 4.844 4.844 0 0 1 4.839 4.839 4.844 4.844 0 0 1-4.839 4.838"/><path d="M600.83 273.503c-50.258 0-91 40.742-91 91 0 1.114.027 2.221.067 3.325a13.5 13.5 0 0 0 2.465-1.624c5.015-4.215 7.268-9.375 15.772-11.483s11.92.872 13.3 2.98c1.454 2.107 3.562 9.23 3.562 9.23s11.63-1.526 11.63 9.086c0 2.035-.51 4.07-1.527 5.814 1.599 2.835 9.005 18.023-5.53 26.454l-.013.08c-.509 2.907-1.09 5.887-1.962 8.94l-.4 1.399c.028.025 6.015 5.525 6.015 15.894 0 2.768-.69 4.857-1.643 6.426 14.199 9.16 31.11 14.479 49.264 14.479 50.258 0 91-40.742 91-91s-40.742-91-91-91m-30 129.4h-9.6v-86.4h60.095v4.8H566.03v76.8h4.8zm69.6 9.6h-64.8v-86.4h64.8z"/></g><path fill="#0096e8" d="M635.63 330.903h-55.2v76.8h55.2zm-50.4 7.13h43.2v4.94h-43.2zm0 12h43.2v4.94h-43.2zm0 12h43.2v4.94h-43.2zm40.838 31.27a4.8 4.8 0 0 1-2.35-.613l-4.82 2.891c.003.054.009.107.009.16a4.844 4.844 0 0 1-4.839 4.84 4.844 4.844 0 0 1-4.838-4.84c0-.256.026-.507.065-.753l-3.989-3.19a6.46 6.46 0 0 1-6.387.1l-4.053 3.444c.008.086.018.172.021.259a4.8 4.8 0 0 1-1.301 3.467 4.8 4.8 0 0 1-3.539 1.534c-1.23 0-2.397-.46-3.3-1.305a4.8 4.8 0 0 1-1.53-3.372 4.8 4.8 0 0 1 1.3-3.467 4.8 4.8 0 0 1 3.373-1.53 4.8 4.8 0 0 1 2.22.457l3.738-3.177a6.5 6.5 0 0 1-.326-2.024 6.515 6.515 0 0 1 6.508-6.508 6.515 6.515 0 0 1 6.508 6.508c0 .638-.097 1.254-.269 1.837l4.028 3.223a4.8 4.8 0 0 1 4.084.25l4.855-2.913c-.001-.04-.006-.077-.006-.116a4.844 4.844 0 0 1 4.838-4.839 4.844 4.844 0 0 1 4.839 4.839 4.844 4.844 0 0 1-4.839 4.838"/><path fill="#a4abb3" d="M528.624 423.992c-2.762.726-5.233 2.18-7.268 4.215l-2.253-7.631s-.654-.655-3.852-1.89c-3.198-1.308-5.306-16.063-6.614-23.113-1.536-7.654-1.02-9.827-1.02-9.827s14.084-6.235 18.262-5.448c4.288.727 14.173 7.104 19.115 7.104 1.89 0 3.79-.504 5.535-1.376.29 1.09.526 2.258.744 3.494-.072 6.25-.627 12.667-1.717 18.845-.509 2.907-1.09 5.887-1.962 8.94l-.436 1.526-4.434 9.666c-4.724-6.032-10.175-5.45-14.1-4.506"/><path fill="#fff" d="M562.922 1051.072h-2.253c-5.96.364-21.368-.145-33.87 0L520.84 1080h75.371c7.632 0 14.9-3.416 19.77-9.303l.145-.218L562.922 1051zM410 1073.022a6.98 6.98 0 0 0 6.977 6.978h50.514l-2.326-30.09H436.53l-25.293 19.115a7.03 7.03 0 0 0-1.236 3.998"/><path fill="#a4abb3" d="m502.149 421.123-3.869 21.309 27.794 3.92c-.38-.299-.752-.578-1.103-.808-3.925-2.471-6.614-2.835-12.501-6.178-4.289-2.399-6.687-7.268-7.05-11.702-.073-1.017-.073-1.962.072-2.98.073-.29.073-.654.146-.945l3.779-13.3s-3.125-7.196-6.977-10.83c-1.34-1.253-2.73-2.062-4.082-2.03l-.073.002q-.121.006-.243.02c-.87.073-1.733.489-2.56 1.388a5.3 5.3 0 0 0-.607.823c-.048.079-.087.161-.131.242a5.5 5.5 0 0 0-.321.703q-.044.116-.084.234a7.1 7.1 0 0 0-.331 2.123c-.035 3.295 1.758 7.271 3.797 10.71 1.4 2.702 2.997 5.278 4.344 7.3"/><path fill="#43464a" d="M502.149 421.123c-1.347-2.02-2.943-4.597-4.344-7.299a41 41 0 0 1-1.846-3.469l4.67 19.144z"/><path fill="#2e3033" d="M685.47 513.753h-73.626c-2.18.073-4.215 1.38-5.087 3.343l-22.532 45.935c-2.107 4.361.655 9.74 5.088 9.74h73.627c2.18-.073 4.142-1.381 5.015-3.344l6.226-12.695-8.48-5.548c-5.96-2.18-9.52-12.574-8.649-18.824l29.569-.988 3.865-7.88c2.18-4.36-.582-9.739-5.015-9.739"/><path fill="#8a9097" fill-rule="evenodd" d="M589.531 572.77h-4.579c-4.433 0-7.195-5.378-5.088-9.739l2.222-4.528-3.973.832-5.71 39.449c23.366-6.974 44.835-17.825 59.188-26.013z"/><path fill="#d1e4ff" d="M438.208 493.548c4.434-14.827 13.083-19.77 25.366-19.915h.727c18.534 2.762 19.624 26.093 18.534 36.85-1.381 14.246-5.076 29.315-9.364 42.107-30.38 14.463-61.283 29.048-61.065 29.411z"/><path fill="#007bc0" d="m484.712 547.222-2.386-31.434-.093-.113c-1.68 12.632-4.977 25.608-8.737 36.838 3.762-1.776 7.52-3.549 11.216-5.29m-26.43 51.685 3.548 62.389h31.543l-5.816-76.615c-9.949 6.097-19.89 11.202-29.275 14.226"/><path fill="#a4abb3" fill-rule="evenodd" d="m687.506 531.342-30.454 1.018c-.872 6.25 2.69 16.644 8.65 18.824l19.55 12.792z"/><path fill="#8a9097" fill-rule="evenodd" d="m674.181 556.732-4.21 8.583c9.453-.024 15.282-1.339 15.282-1.339z"/><path fill="#001d33" fill-rule="evenodd" d="M539.036 451.17c-1.817 1.09-3.706 1.89-5.741 2.544 0 0-.919-1.05-2.19-2.457l-.029-.262-.042-.042-3.282.948-15.336-4.433v17.734l15.336-4.434 15.336 4.434v-17.154a62 62 0 0 1-4.052 3.122"/><path fill="#43464a" d="M555.099 381.831c1.018-1.744 1.526-3.78 1.526-5.814 0-10.612-11.629-9.085-11.629-9.085s-2.108-7.124-3.561-9.231c-1.381-2.108-4.797-5.088-13.301-2.98s-10.757 7.268-15.772 11.483-12.065 3.49-18.46 7.05l-.001.001c-5.451 2.98-2.907 20.35-.436 27.982.218.727.318 1.37.537 1.95 0-.024.005-.047.006-.072.016-1.576.445-2.997 1.473-4.126.828-.9 1.69-1.315 2.561-1.387q.122-.015.243-.02l.073-.002c1.351-.033 2.742.776 4.082 2.03 3.852 3.633 6.977 10.829 6.977 10.829l-3.78 13.3c-.072.291-.072.654-.145.945-.145 1.018-.145 1.963-.072 2.98.363 4.434 2.761 9.303 7.05 11.702 5.887 3.343 8.576 3.707 12.5 6.178 1.89 1.236 4.289 3.634 6.106 5.45l.03.263a243 243 0 0 1 2.189 2.457c2.035-.654 3.924-1.454 5.741-2.544 2.472-1.745 4.797-3.634 6.978-5.742 0 0 7.195-1.89 7.195-10.83 0-10.393-6.017-15.897-6.017-15.897l-4.387 9.601c-4.87-5.96-10.237-5.333-14.162-4.388-2.762.727-5.306 2.18-7.268 4.216l-2.253-7.632s-.654-.582-3.852-1.89-5.306-16.062-6.614-23.112c-1.454-7.777-1.018-9.74-1.018-9.74s14.028-6.178 18.243-5.45c4.216.726 14.173 7.122 19.115 7.122 1.963 0 3.852-.509 5.524-1.381.29 1.09.509 2.253.727 3.489-.073 6.323-.588 12.571-1.679 18.749 14.537-8.431 7.13-23.62 5.531-26.454"/><path fill="#a4abb3" d="M473.386 552.565a23947 23947 0 0 1 59.817-28.128l19.333-10.393 12.283 27.328s-20.86 2.762-22.386 3.852c-39.248 29-105.97 87.291-130.027 36.777-.218-.436 30.526-15.045 60.98-29.436"/><path fill="#a4abb3" d="M473.386 552.565a23947 23947 0 0 1 59.817-28.128l19.333-10.393 12.283 27.328s-20.86 2.762-22.386 3.852c-39.248 29-105.97 87.291-130.027 36.777-.218-.436 30.526-15.045 60.98-29.436"/><path fill="#8a9097" d="M552.536 514.044 576 514s2.765 13.958 2.475 15.049c-.655 2.398-1.527 4.724-2.472 7.05-2.398 5.088-11.184 5.273-11.184 5.273z"/><path fill="#0096e8" d="m563.366 471.089-12.78-7.71c.002.032 1.094 19.11-1.085 33.707v-.001c-.963 6.435-3.587 15.424-5.522 21.559l-.032.017 8.59-4.617L576 514s2.765 13.958 2.475 15.049c-.655 2.398-1.527 4.724-2.472 7.05-2.398 5.088-11.184 5.273-11.184 5.273s-20.86 2.762-22.386 3.852c-15.47 11.431-35.208 27.41-54.92 39.484l.044-.026 5.816 76.614h84.02l-5.16-61.343 12.574-86.854c1.453-16.935-6.905-33.216-21.441-42.01"/><path fill="#0096e8" d="M539.248 521.188c-4.155-7.154-12.865-21.758-20.768-32.51l-.417-.566-.006-.008a126 126 0 0 0-3.596-4.624 83 83 0 0 0-.578-.694l-.173-.208a70 70 0 0 0-.84-.974c-12.647-14.319-25.584-21.514-28.056-22.75l-.248-.143-26.287 15.334a38 38 0 0 1 5.295-.412h.727c18.534 2.762 19.624 26.093 18.534 36.85-.167 1.72-.37 3.454-.602 5.193v-.001l.093.113 2.386 31.434-.031.015c25.77-12.145 48.522-22.8 48.522-22.8l6.213-3.34z"/><path fill="#d1e4ff" d="M543.088 458.555v6.647l-15.336-4.434-15.336 4.434v-17.734l15.336 4.433 3.282-.948c-1.473-1.473-3.313-3.304-4.96-4.6l-27.813-3.924-3.126 9.74-10.586 6.532.265.154c2.472 1.235 15.409 8.43 28.055 22.749 8.948 10.178 21.2 30.669 26.379 39.584l4.731-2.544c1.935-6.135 4.559-15.124 5.522-21.56v.002c2.18-14.61 1.085-33.71 1.085-33.71z"/><path fill="#7ebdff" d="M493.373 661.296H469.73c-12.546 47.883-10.587 68.1-8.626 143.329.363 13.955-42.737 93.687-42.737 245.446h47.97l30.38-177.344s9.231-45.862 20.206-90.997c7.123-29.218 14.9-58.145 21.441-74.062 6.445-15.707 8.047-36.692 8.445-46.372z"/><path fill="#9dc9ff" d="M546.808 661.296c-.398 9.68-2 30.665-8.445 46.372-6.535 15.902-14.303 44.791-21.421 73.982 6.563 29.747 11.078 61.29 6.304 94.275-11.63 80.386-12.502 55.675-14.246 175.308h54.22l7.269-191.225 5.57-198.712z"/><path fill="#595e62" d="m584.225 563.031 22.532-45.935c.872-1.962 2.907-3.27 5.087-3.343h-4.36c-2.181.073-4.216 1.38-5.088 3.343l-22.532 45.935c-2.107 4.361.655 9.74 5.088 9.74h4.361c-4.433 0-7.195-5.379-5.088-9.74"/><path fill="#b8d6ff" d="M963.957 452.195 964 448l-2.07-27.953-5.639-1.848-2.73-16.474-6.625.718c.015.039 1.474 18.125 1.474 18.125l-.037.009-.014-.044L934 423.915c.027.113.068.22.099.331 3.989 25.974 15.524 32.722 15.524 32.722s.322 6.524.833 16.214l19.001-2.213a7527 7527 0 0 0-5.5-18.774"/><path fill="#43464a" d="M1161.095 815.13c-4.318-7.593-4.875-18.776-4.53-32.043 1.119-48.883 2.832-76.951-5.275-102.284l.635 2.75s-16.327 3.188-32.213 2.676q.027 1.545.033 3.085c-2.757 22.677-8.364 40.642-21.448 58.756l.017.377c12.616 47.876 24.52 102.871 24.52 102.871l21.553 165.158 58.018-.104c-17.281-150.547-26.85-165.385-41.31-201.241"/><path fill="#b8d6ff" d="M1089.786 414.77a115 115 0 0 0-2.374 14.6c-.122.958-.131 1.798-.216 2.65-.88 12.585-.29 18.955-.29 18.955l.079.057 7.47 1.722c2.657-9.523 6.42-23.282 8.452-31.986l.42-.139z"/><path fill="#595e62" d="M1119.745 689.314a233 233 0 0 0-.033-3.085 98 98 0 0 1-1.7-.068c-26.374-1.316-62.042-9.883-74.18-12.966-.577 6.3-1.112 12.795-1.328 16.992-.504 9.813 5.92 155.788 5.92 155.788l4.347 170.767 67.059-.115c-4.723-61.745-19.835-227.977-21.533-268.557 13.084-18.114 18.69-36.079 21.448-58.756"/><path fill="#383b3e" d="M955.87 567.102s95.073-23.432 119.452-33.92c7.672-3.299 22.442-14.748 16.116-31.46-6.157-16.253-22.49-9.251-30.118-6.432-23.92 8.839-75.728 30.392-75.728 30.392l-12.507-55.136-25.675 2.99z"/><path fill="#232628" d="M1045.437 673.6c7.547 1.891 21.54 5.223 36.85 8.006.012-.134.017-.253.034-.396l5.742-147.618-3.907-6.181c-3.046 2.729-6.32 4.69-8.834 5.77-7.181 3.09-20.499 7.303-35.712 11.71-.968 4.765-.91 10.324.403 17.377.34 2.057.883 4.277 1.477 6.635 4.534 17.772 5.832 46.065 4.704 56.298-1.734 8.463-6.614 46.89-6.614 46.89s1.572.482 4.251 1.104z"/><path fill="#383b3e" d="m1146.482 496.824.003-.028c-4.34-1.28-14.377-6.844-17.156-10.3l-.023-.029-3.933-11.801-34.56-5.76-6.938 19.425-13.084 3.848c3.712-.876 7.703-1.236 11.308-.122 3.814 1.179 7.195 4.005 9.339 9.664 4.253 11.237-1.032 20.09-7.282 25.69l3.907 6.18-5.742 147.62c-18.165-3.244-42.695-9.109-42.739-9.12.087.024 46.202 12.462 78.43 14.07 16.398.813 33.914-2.608 33.914-2.608l-7.142-30.893 12.48-121.456c2.811-16.527 5.261-29.53-10.782-34.38"/><path fill="#101112" d="M1223.725 556.304c-13.403-10.052-56.797-44.06-66.441-51.625 3.484 6.496 1.81 15.762-.02 26.525l-2.12 20.638c16.32 14.468 30.8 26.185 30.8 26.185l-28.334 33.058 15.112 19.834 61.392-50.058s4.723-13.223-10.39-24.557"/><path fill="#9dc9ff" d="m1160.115 614.373-12.781 13.65-.02.013-2.53 24.624.037.16c1.695-.52 3.052-1.053 3.701-1.552 12.047-9.251 19.521-23.7 19.521-23.7l1.38-.979z"/><path fill="#b8d6ff" d="M1148.522 651.268c-.65.499-2.006 1.031-3.701 1.552l-.037-.16 1.748-17.01-2.184 16.811 12.334 17.658c2.87-1.98 4.565-17.447 4.975-23.316.138-1.947-.81-4.156-2.266-6.35-2.977 3.68-6.64 7.567-10.87 10.815"/><path fill="#003e64" d="m1091.453 463.393 60.885 3.286s-1.268-52.126-1.216-52.769c2.194-24.865-24.22-34.123-39.783-33.932-24.185.297-27.569 32.19-27.569 32.19l19.556 8.461-.419.139c-3.36 14.386-11.454 42.625-11.454 42.625"/><path fill="#56b0ff" d="m1094.455 452.754-7.562-1.743a44 44 0 0 0 6.862 4.245c.223-.793.457-1.631.7-2.502"/><path fill="#b8d6ff" d="m1123.727 474.391 1.052-4.812.733-4.348-32.496-1.753-.036.072-1.85 5.408z"/><g fill="#101112"><path d="m1215.853 1034.971-24.838-18.58-12.615.043-2.113 29.204 34.14-.114a6.69 6.69 0 0 0 6.675-6.72c-.07-1.43-.465-2.73-1.249-3.833m-141.146-18.266-52.307 20.02.13.2c4.702 5.802 11.672 9.19 19.02 9.165l55.988-.188-5.924-29.226z"/></g><path fill="#43464a" d="m1527.545 708.314 1.451-11.048h-35.844l-1.835 11.048-3.247 19.656h62.961v-6.431h-25.222z"/><path fill="#fff" d="m1466.742 1012.66.08.22a26.78 26.78 0 0 0 14.587 17.63l55.268 25.856 7.55-31.41-14.515-6.823zm196.168-8.377-16.22 5.04-41.328 44.009.222.07a26.49 26.49 0 0 0 22.811-.594l49.322-25.714z" data-name="Path"/><path fill="#656a6f" d="M1756.29 822.137c-27.15 0-50.77-1.094-70.691-1.975a21.36 21.36 0 0 0 6.193 13.32 21.37 21.37 0 0 0 15.157 6.235h3.78l-11.965 215.53h13.557l11.925-215.53 51.489.524 41.086-.121 11.924 215.641h13.71l-12.057-216.044h3.932c11.624-.028 21.03-9.457 21.035-21.078h-67.198c-8.912 2.288-19.484 3.498-31.877 3.498m99.075-3.497h.002v-.031z"/><g fill="#8a9097" fill-rule="evenodd"><path d="M1868.985 740.429h-12.47l5.706 110.416h-31.202l.696 12.459h31.151l9.97 193.062h12.458zM1817.414 850.845h-40.48l.547-10.61-1.746.006-10.693-.11h-.022l-11.17 216.235h12.47l9.97-193.062h41.813z"/></g><path fill="#383b3e" d="m1528.996 697.266-1.451 11.048h-36.228l1.835-11.048z" data-name="Path"/><path fill="#8a9097" d="M1384.389 727.97v12.459h51.7l-16.31 315.937h12.46l9.969-193.062h88.26l9.97 193.062h12.468l-16.31-315.937h55.37v-12.46zm58.464 122.835 5.705-110.376h75.6l5.665 110.376z"/><path fill="#b8d6ff" d="M1735.608 499.301c2.622 1.383 5.858 2.647 9.776 3.693 2.624-3.776 6.495-7.422 10.04-3.588 2.996 3.272 1.177 8.92-1.518 13.901a27 27 0 0 0 .982 1.886 27 27 0 0 0 1.999 3.024l.147.193q.547.706 1.134 1.37l.08.09q.569.634 1.171 1.232l.134.134q.626.612 1.285 1.184l.181.154q.645.551 1.318 1.066l.062.048a31 31 0 0 0 1.67 1.176q1.452.956 3.004 1.761.142.075.287.148.764.39 1.55.744l.187.081q.722.319 1.46.608.143.059.29.115.792.304 1.6.575.158.052.32.103.741.244 1.495.457l.216.063q.824.228 1.657.423.188.044.377.086.847.194 1.702.353a17 17 0 0 0 1.587.211c.403.036.8.06 1.187.063h.026a14 14 0 0 0 1.43-.071c.37-.037.734-.084 1.087-.151l.017-.003a12 12 0 0 0 1.28-.322 12 12 0 0 0 1.988-.81l.158-.085q.468-.249.913-.535c11.314-7.357 11.315-32.728 11.315-32.728l-.25.042c.06-6.603-.68-12.594-1.666-16.263-6.734-25.774-38.032-22.518-52.174-17.78-7.117 2.368-21.753 9.273-19.626 25.965.415 3.25 3.166 7.72 10.122 11.387"/><path fill="#c1c7cc" d="M1738.539 727.97h-146.583v12.459h150.257c-.52-1.804-2.113-7.31-3.674-12.46m85.705.001-.8 10.291-.152 1.785s-.106.142-.354.383H1920v-12.46z"/><path fill="#2e3033" d="M1455.826 584.743h27v94.264h-27z"/><path fill="#eff1f2" d="M1625.694 563.887h-184.565c-5.723 0-10.362 4.64-10.362 10.363v112.654c0 5.723 4.639 10.362 10.362 10.362h184.565c5.723 0 10.362-4.64 10.362-10.362V574.25c0-5.723-4.64-10.363-10.362-10.363m-142.868 115.12h-27v-94.264h27zm133.073 0H1488V585.29h127.899z"/><path fill="#232628" d="m1537.014 990.08-7.262 28.224 8.936 4.192zM1801.68 746.497a214 214 0 0 1-28.468-.428c-6.233 1.545-14.83 3.289-27.697 5.377-86.537 7.45-157.248 39.433-157.248 39.433L1547.4 949.712l3.35 64.893c28.306-45.788 59.014-93.963 67.757-142.461 2.883-16.3 3.407-32.599.443-48.818 7.923-3.85 21.41-4.596 39.927-4.152 24.192.524 56.892 2.963 97.413 2.963 65.41 0 80.187-33.647 67.002-82.091-.001 0-4.115 5.534-21.612 6.45"/><path fill="#56b0ff" d="M1718.48 698.264c-17.136 1.35-50.974 7.419-69.602 11.169l-7.661-4.536h-31.339s11.088 11.864 17.136 17.015c7.258 6.209 24.192 6.209 30.583 6.209h69.552c16.685.028 30.24-13.464 30.29-30.15v-.453c-6.209-.121-33.354.312-38.959.746" data-name="Path"/><path fill="#656a6f" d="M1627.014 721.912c-1.903-1.622-4.306-3.908-6.706-6.28h-69.277v12.338h98.861c-7.675-.37-17.72-1.645-22.878-6.058"/><path fill="#0096e8" d="m1826.592 697.804-2.237 28.746c16.765-2.74 28.474-10.937 29.298-28.83 0 .068-12.085.119-27.061.084"/><path fill="#00629a" d="M1620.308 715.632c-5.223-5.165-10.43-10.735-10.43-10.735l-11.783 10.735z"/><path fill="#101112" d="M1772.44 746.006a251 251 0 0 1-1.469-.132l-1.024-.095c-.45-.044-.89-.09-1.333-.136-.36-.037-.724-.074-1.08-.112-.405-.045-.8-.09-1.196-.136-.375-.043-.752-.085-1.119-.13a136 136 0 0 1-1.068-.132c-.388-.048-.778-.097-1.157-.146-.318-.042-.627-.085-.939-.127-.399-.054-.798-.108-1.187-.164l-.822-.12c-.405-.058-.81-.117-1.202-.177l-.703-.11-1.23-.195c-.19-.03-.372-.062-.559-.093-.426-.07-.85-.14-1.258-.212l-.46-.08c-.426-.075-.846-.15-1.252-.224l-.348-.065q-.645-.119-1.255-.236l-.235-.045q-.647-.125-1.252-.248l-.133-.027q-.643-.13-1.236-.255l-.042-.01c-1.277-.27-2.378-.519-3.292-.736l-3.2-.82s-103.571 8.024-144.163 35.28l2.018 9.608c23.697-9.278 79.975-28.864 145.27-34.485 12.868-2.088 21.465-3.832 27.698-5.377l.091.007z"/><path fill="#004975" d="M1718.695 698.25c6.02-.43 32.6-.852 38.742-.732.358-5.573 4.023-63.883 2.613-90.8-.464-8.901-6.461-27.922-25.533-27.772-18.547.152-17.579 19.092-17.579 27.771 0 17.275 1.015 61.515 1.757 91.532"/><path fill="#001d33" d="M1714.76 660.555a2136 2136 0 0 1 3.25 8.913c-.421-18.53-.814-37.682-.983-51.27-.334.465-.677.923-1.006 1.391-6.048 9.335-8.145 18.447-3.548 34.081.584 2.147 1.4 4.445 2.288 6.885m45.612-42.548-.017-.021c.248 29.265-2.606 74.648-2.919 79.532l-.2-.003.202.003v.454c-.038 12.869-8.114 23.831-19.46 28.163 2.056 6.692 4.41 14.908 4.41 14.908s12.601 3.67 32.257 5.141z"/><path fill="#003253" d="M1818.403 572.627v-.03c-4.747-.888-16.007-5.706-19.333-9.072-4.304-4.526-4.375-5.857-4.375-5.857l-39.856 2.077s.151 3.628-4.224 12.368l-.135.253-21.743 7.38h.002q.628-.187 1.301-.33l.007-.002q.662-.143 1.371-.243c.103-.015.213-.022.317-.035.382-.048.765-.095 1.167-.124a25 25 0 0 1 1.615-.066q.84-.005 1.646.039c.217.011.426.033.64.05.308.024.616.046.916.08.276.032.544.073.813.112.218.033.438.064.652.102a23 23 0 0 1 1.368.285q.525.124 1.033.271l.217.065c13.356 4.008 17.85 19.119 18.248 26.767.174 3.329.271 7.139.306 11.269l.017.021 14.272 128.174a214 214 0 0 0 27.035.316c17.5-.918 21.612-6.451 21.612-6.451l.151-1.785 10.14-130.304c1.19-17.852 2.38-31.923-15.18-35.33"/><path fill="#004975" d="m1833.584 607.957-6.991 89.833h27.06l-15.18-101.505c-1.62-6.478-3.897-11.385-6.89-15.049 3.432 6.509 2.72 15.92 2 26.721"/><path fill="#00629a" d="M1746.08 540.099a47.2 47.2 0 0 0 11.561 2.076l.363-3.477z" data-name="Path"/><path fill="#56b0ff" d="m1790.824 545.139-2.937-16.461c-2.588 1.682-5.766 2.424-9.673 1.703-10.235-1.888-19.745-7.36-24.308-17.074 2.695-4.98 4.514-10.63 1.517-13.901-3.544-3.834-7.415-.188-10.039 3.588-3.918-1.046-7.154-2.31-9.776-3.693a123 123 0 0 0 3.214 18.864c.221 1.008.514 1.854.735 2.741 3.64 12.963 6.522 19.152 6.522 19.152l.102.029 11.823-1.39-.363 3.478h-.005c-.29 2.65-.632 5.548-.932 8.336l-1.068 9.192 37.444-1.95z"/><path fill="#8a9097" d="M1430.767 686.904V574.25c0-5.723 4.639-10.363 10.362-10.363h-7.157c-5.723 0-10.362 4.64-10.362 10.363v112.654c0 5.723 4.64 10.362 10.362 10.362h7.157c-5.723 0-10.362-4.64-10.362-10.362"/><path fill="#101112" d="M1488 585.289v93.718h127.899V585.29zm48.528 55.638-3.124 2.5-9-11.25 9-11.25 3.124 2.5-7 8.75zm10.295 1.992-3.714-1.485 8-20 3.714 1.485zm17.705.507-3.124-2.499 7-8.75-7-8.75 3.124-2.5 9 11.25z"/><path fill="#fff" d="m1536.528 640.927-3.124 2.5-9-11.25 9-11.25 3.124 2.5-7 8.75zM1543.11 641.434l7.999-20 3.714 1.485-8 20zM1564.528 643.426l-3.124-2.499 7-8.75-7-8.75 3.124-2.5 9 11.25z"/><path fill="#101112" d="M1628.698 820.45c-.289.051-.587.097-.87.151-.192.036-.372.078-.561.115-.542.11-1.082.219-1.599.34l-.07.017q-.959.226-1.858.478l-.166.05q-.803.23-1.558.484c-.387.131-.759.271-1.127.413-.139.053-.285.103-.421.157q-.79.319-1.518.671c2.964 16.22 2.44 32.519-.443 48.818-.044.245-.098.49-.143.734l28.326 136.465 16.36-4.748c1.774-58.215 13.268-135.499-4.42-185.426-12.243-.287-22.266-.042-29.932 1.281"/></svg>