<svg xmlns="http://www.w3.org/2000/svg" viewBox="0 0 1852 994"><g fill="none" fill-rule="evenodd"><path fill="#4E5256" fill-rule="nonzero" d="M0 0h1852.2v994.32H0z"/><path fill="#43464A" fill-rule="nonzero" d="M846.32 668.09h668.77v27.1H846.32z"/><path fill="#383B3E" d="m1166.75 758.6-84.23.27-84.22-.27c0 11.548 9.362 20.91 20.91 20.91h3.87l-11.87 214.06h13.42l19.22-214 33.36.17h10.63l33.35-.17 19.23 214h13.41L1142 779.53h3.88c11.54-.022 20.881-9.39 20.87-20.93m-203.75 0-84.23.27-84.23-.27c0 11.548 9.362 20.91 20.91 20.91h3.88l-11.84 214.08h13.42l19.22-214 33.36.17h10.62l33.36-.17 19.22 214h13.42l-11.87-214.06h3.87A20.91 20.91 0 0 0 963 758.6m603.84 0-84.23.27-84.23-.27c0 11.548 9.362 20.91 20.91 20.91h3.88l-11.87 214.08h13.42l19.22-214 33.36.17h10.62l33.36-.17 19.22 214h13.42l-11.87-214.06h3.88a20.91 20.91 0 0 0 20.91-20.93"/><path fill="#43464A" fill-rule="nonzero" d="M1005.16 654.28H869.05l21.72 10.12h92.67z"/><path fill="#43464A" d="M970.22 649.42c5.29-7.57 6.73-18.51 6.73-32.52h-79.69c0 14 1.44 25 6.73 32.52z"/><path fill="#43464A" fill-rule="nonzero" d="M1167.56 654.28h-136.11l21.72 10.12h92.67z"/><path fill="#43464A" d="M1132.62 649.42c5.29-7.57 6.73-18.51 6.73-32.52h-79.69c0 14 1.44 25 6.73 32.52z"/><path fill="#43464A" fill-rule="nonzero" d="M1492.36 654.28h-136.11l21.72 10.12h92.67z"/><path fill="#43464A" d="M1457.42 649.42c5.29-7.57 6.72-18.51 6.72-32.52h-79.68c0 14 1.44 25 6.73 32.52z"/><path fill="#383B3E" d="m1363.11 758.6-84.22.27-84.23-.27c0 11.548 9.362 20.91 20.91 20.91h3.88l-11.87 214.06H1221l19.23-214 33.35.17h10.63l33.35-.17 19.23 214h13.41l-11.87-214.06h3.88c11.544-.006 20.9-9.366 20.9-20.91"/><path fill="#43464A" fill-rule="nonzero" d="M1329.96 654.28h-136.11l21.72 10.12h92.67z"/><path fill="#43464A" d="M1295 649.42c5.29-7.57 6.73-18.51 6.73-32.52h-79.69c0 14 1.44 25 6.73 32.52z"/><path fill="#383B3E" d="M1146.5 364.85a132.87 132.87 0 0 0-96.71-59.4v-13.11h-9.1V0h-11v292.34h-9.09v13.1a132.92 132.92 0 0 0-96.73 59.41h84.29c3.096 12.39 14.228 21.084 27 21.084s23.904-8.693 27-21.084zm288.96 0a132.91 132.91 0 0 0-96.72-59.4v-13.11h-9.09V0h-11v292.34h-9.09v13.1a132.9 132.9 0 0 0-96.73 59.41h84.28c3.111 12.376 14.239 21.053 27 21.053s23.889-8.677 27-21.053z"/><path fill="#43464A" fill-rule="nonzero" d="m1037 664.39-16-4.91v-39.84a2.4 2.4 0 0 1 1.18-.34c.87-.06 1.9-.16 2.94-.33 2.71-.44 7.17-3 9.74-9.19 1.81-4.35 3.4-11.07-.1-20.81a82 82 0 0 0-7.85-16.34h-17.24a82 82 0 0 0-7.83 16.34c-3.5 9.75-1.9 16.47-.09 20.82 2.58 6.19 7 8.74 9.75 9.17 1 .17 2.08.27 3 .33.408.01.808.123 1.16.33v39.85l-16 4.91H1037zm162.38 0-16-4.91v-39.84a2.4 2.4 0 0 1 1.18-.34c.87-.06 1.9-.16 2.94-.33 2.71-.44 7.17-3 9.74-9.19 1.81-4.35 3.4-11.07-.1-20.81a82 82 0 0 0-7.85-16.34h-17.24a82 82 0 0 0-7.83 16.34c-3.5 9.75-1.9 16.47-.09 20.82 2.58 6.19 7 8.74 9.75 9.17 1 .17 2.08.27 2.95.33.408.01.808.123 1.16.33v39.85l-16 4.91h37.39zm162.4 0-16-4.91v-39.84a2.4 2.4 0 0 1 1.18-.34c.87-.06 1.9-.16 2.94-.33 2.71-.44 7.17-3 9.74-9.19 1.81-4.35 3.4-11.07-.1-20.81a82 82 0 0 0-7.85-16.34h-17.24a82 82 0 0 0-7.83 16.34c-3.5 9.75-1.9 16.47-.09 20.82 2.58 6.19 7 8.74 9.75 9.17 1 .17 2.08.27 3 .33.408.01.808.123 1.16.33v39.85l-16 4.91h37.39zM279.59 790.47V942h52.87l-16.8 52.36h13.22L352.59 942h147.62V790.47zm128.1 25.93h-38.63v-9.15h38.63zm317.21-25.93H508.35V942h146.58l23.71 52.36h13.22L675.06 942h49.82zm-89.47 25.93H596.8v-9.15h38.63zM357.15 666.45h78.26v116.66h-78.26z"/><circle cx="396.28" cy="724.78" r="31.76" fill="#4E5256" fill-rule="nonzero"/><circle cx="396.28" cy="724.78" r="19.08" fill="#43464A" fill-rule="nonzero"/><path fill="#4E5256" fill-rule="nonzero" d="M364.55 673.86h21.66v7.41h-21.66z"/><path fill="#383B3E" fill-rule="nonzero" d="M569.08 666.45h78.26v116.66h-78.26z"/><circle cx="608.21" cy="724.78" r="31.76" fill="#4E5256" fill-rule="nonzero"/><circle cx="608.21" cy="724.78" r="19.08" fill="#43464A" fill-rule="nonzero"/><path fill="#4E5256" fill-rule="nonzero" d="M576.49 673.86h21.66v7.41h-21.66z"/><path fill="#383B3E" fill-rule="nonzero" d="M446.71 666.45h111.07v32.57H446.71zm0 42.05h111.07v32.57H446.71zm0 42.04h111.07v32.57H446.71z"/><path fill="#43464A" fill-rule="nonzero" d="M454.37 699.02h20.42v9.48h-20.42zm75.34 0h20.42v9.48h-20.42zm-75.34 42.04h20.42v9.48h-20.42zm75.34 0h20.42v9.48h-20.42z"/><path fill="#4E5256" fill-rule="nonzero" d="M454.12 673.86h21.66v7.41h-21.66z"/><path fill="#43464A" fill-rule="nonzero" d="M155.5 579.66h-36.57l-55.2 414.66h21.86z"/><path fill="#43464A" fill-rule="nonzero" d="M147.73 579.66h36.58l62.55 414.66H225z"/><path fill="#43464A" fill-rule="nonzero" d="M133.33 579.66h36.58l-7.36 414.66h-21.86z"/><path fill="#383B3E" fill-rule="nonzero" d="M42.45 393.56h218.34v166.16H42.45z"/><path fill="#43464A" fill-rule="nonzero" d="M140.15 559.72h22.94v19.94h-22.94z"/><path fill="#43464A" d="M597.19 550.9H491.64V434.47h-19.32V550.9h-8.13V434.47h-19.32v22l-17-6.3-35.92 98.2 6.93 2.56h-36.5v18.79h291.93V550.9zm-152.32 0h-33.3l33.3-91.07z"/><path fill="#43464A" d="M557.78 550.86H519V434.39h-19.31v116.43h-8.14z"/><path fill="#43464A" fill-rule="nonzero" d="M1823.07 772.78c-4.94-1.92-9.91-3.78-14.94-5.43a124 124 0 0 0-16.51-4 88.5 88.5 0 0 0-21.3-1.19A66.4 66.4 0 0 0 1749 767a63.4 63.4 0 0 0-22 15 65.7 65.7 0 0 0-10.23 13.83l-.3-51.42c4.88 3.46 11.42 6.86 16.37 7.85a42.5 42.5 0 0 0 16.93-.16 63.7 63.7 0 0 0 20.49-8.43 87 87 0 0 0 14.19-10.6c4.78-4.46 9.43-9.06 14.05-13.68 1.66-1.65 3.08-3.52 4.83-5.54-4-1.78-7.8-3.53-11.64-5.12a92.2 92.2 0 0 0-17.8-5.3c-3-.59-6.14-.82-9.22-1.15a41 41 0 0 0-5.66-.38 65 65 0 0 0-20.48 3.49 44.17 44.17 0 0 0-18.53 12.4 35 35 0 0 0-3.66 5.06l-.2-33.67a16.4 16.4 0 0 0 6.65 1.88 34.7 34.7 0 0 0 8.33-.36 76.6 76.6 0 0 0 13.87-3.89 151 151 0 0 0 24.76-12.25c5.46-3.28 10.77-6.8 16.07-10.33 4.27-2.84 8.41-5.85 12.82-8.94l-4.5-1.18a116 116 0 0 0-16-3.06 97 97 0 0 0-9.82-.48 66 66 0 0 0-7.81.11 63 63 0 0 0-11.79 2.2 51 51 0 0 0-12.36 5.43 47.3 47.3 0 0 0-12.46 11.3 44.4 44.4 0 0 0-6 10c-.62 1.46-1.23 2.94-1.86 4.45l-.3-51.26c1.13 1 2.25 2 3.4 3A31.25 31.25 0 0 0 1738 643c1.85.016 3.7-.078 5.54-.28a37.4 37.4 0 0 0 9.92-2.11 76.6 76.6 0 0 0 21.79-11.76c4-3 7.72-6.18 11.54-9.33 1-.85 1.92-1.87 2.87-2.82a4 4 0 0 0-.53-.55c-3.1-1.81-6.14-3.73-9.32-5.38a79.6 79.6 0 0 0-15.15-6 60.8 60.8 0 0 0-15-2.18 56 56 0 0 0-7.73.64 36 36 0 0 0-14.91 5.24 28 28 0 0 0-8.68 8c-.9 1.35-1.78 2.74-2.7 4.18l-.12-21.11a74 74 0 0 0 11.48-1.2 48.4 48.4 0 0 0 16.23-6.11 50.5 50.5 0 0 0 15.81-15.18 67 67 0 0 0 8.71-18.57c.41-1.34.67-2.72 1-4.22-.39.08-.55.1-.71.15-.41.14-.82.28-1.21.45a170 170 0 0 0-18.64 8.73c-3.83 2.16-7.66 4.31-11.4 6.61a84.6 84.6 0 0 0-12.59 9.47 41.5 41.5 0 0 0-7 7.92c-1.26 1.92-2.19 4.07-3.33 6.25-.12-.6-.51-2.45-.64-3-1.42-6.61-4.72-12.32-8.55-17.75a90 90 0 0 0-8.14-10.12c-3-3.14-5.8-6.45-8.94-9.44-4.21-4-8.63-7.8-13-11.63-1.77-1.54-3.65-2.94-5.51-4.43a1.8 1.8 0 0 0-.17.45 92 92 0 0 0 .61 14.63 77 77 0 0 0 2.76 12.06 54 54 0 0 0 6.63 13.84 51 51 0 0 0 10 11.17 58 58 0 0 0 11.7 7.49 64 64 0 0 0 9.59 3.69l-.25 21.83a27.5 27.5 0 0 0-4.5-7 36 36 0 0 0-15.11-10.11 53.1 53.1 0 0 0-16.7-2.85 34 34 0 0 0-4.62.31c-2.51.27-5 .46-7.52.94a75.3 75.3 0 0 0-14.52 4.32c-3.13 1.3-6.2 2.72-9.49 4.17 1.42 1.65 2.59 3.18 3.94 4.53 3.77 3.76 7.56 7.52 11.45 11.15a71.4 71.4 0 0 0 11.58 8.65 51.8 51.8 0 0 0 16.71 6.87 34.5 34.5 0 0 0 13.81.14c4.56-.91 10.76-4.33 14.82-7.49l-.52 45.07c-.26-.4-.52-.8-.73-1.2a53 53 0 0 0-8.8-12.13 52 52 0 0 0-18-12.23 53.8 53.8 0 0 0-17.42-3.91 71.8 71.8 0 0 0-17.37 1 103 103 0 0 0-13.47 3.24c-4.11 1.35-8.16 2.87-12.18 4.43-2.5 1-4.91 2.17-7.44 3.31.3.19.45.3.61.38 7.57 3.83 15.19 7.54 23 10.79 5.37 2.22 10.72 4.5 16.18 6.45 9.3 3.32 18.72 6.21 28.55 7.64 3.12.45 6.25.68 9.38.92a35.2 35.2 0 0 0 9-.73 23.4 23.4 0 0 0 8.57-3.26l-.34 30.18a55.3 55.3 0 0 0-.9 8.84c-1.34-2.1-2.57-4.08-3.88-6a34 34 0 0 0-10.64-9.79 43.9 43.9 0 0 0-18.27-6.42 66 66 0 0 0-9.48-.79 74 74 0 0 0-18.35 2.67 98 98 0 0 0-18.58 7.3c-3.9 2-7.62 4.39-11.42 6.61a4.2 4.2 0 0 0-.65.67c1.17 1.16 2.25 2.42 3.52 3.46 4.67 3.86 9.3 7.8 14.14 11.44a94.4 94.4 0 0 0 26.71 14.42 46.4 46.4 0 0 0 12.17 2.58 62 62 0 0 0 6.79.35c8.62-.53 16.45-3.23 23.12-8.88 1.56-1.32 3.07-2.68 4.61-4 .5 2.28.25 61-.3 64.47-1-2.31-1.86-4.51-2.78-6.7a54 54 0 0 0-7.33-12.27 57.7 57.7 0 0 0-15.27-13.85 62.5 62.5 0 0 0-15.15-6.66 79.2 79.2 0 0 0-14.46-2.7 81 81 0 0 0-9.58-.14c-4 .1-8.06.1-12 .6a142 142 0 0 0-19.57 3.75l-5.52 1.45c5.41 3.78 10.49 7.47 15.72 10.95 6.49 4.33 13 8.65 19.7 12.67a186.6 186.6 0 0 0 30.35 15 93 93 0 0 0 17 4.76c3.373.56 6.8.71 10.21.45a19.9 19.9 0 0 0 8.77-2.65v24.77l-.25 22h-69.16l24.18 139.69h101.81l24.18-139.69H1717l-.29-49.48a31.2 31.2 0 0 0 9 3.1 43 43 0 0 0 11.07.89c3.84-.29 7.67-.57 11.5-1.13 12.05-1.75 23.6-5.29 35-9.36 6.7-2.39 13.26-5.19 19.84-7.91 9.61-4 19-8.53 28.23-13.22.2-.1.39-.24.76-.47-3.03-1.55-5.98-2.99-9.04-4.21"/><circle cx="592.32" cy="523.09" r="36.63" fill="#43464A" fill-rule="nonzero"/><path fill="#383B3E" fill-rule="nonzero" d="M643.71 502.08H539.92l19.52-67.69h64.74z"/><path fill="#43464A" d="M926.42 679.52h-27.09l-16.21 313.85h12.38zm508.57 0h27.09l16.21 313.85h-12.38z"/></g></svg>