<svg xmlns="http://www.w3.org/2000/svg" viewBox="0 0 585 559"><g fill="none" fill-rule="evenodd"><path fill="#232628" fill-rule="nonzero" d="M468.42 220.09h114.71v121.4H468.42z"/><path fill="#232628" d="m583.13 373.07-31.68-31.67h31.68z"/><path fill="#66B8B2" d="M516.14 305.16v8.6a8.42 8.42 0 0 0 16.82 0v-8.6z"/><path fill="#419E98" d="M559.63 298.85a24.55 24.55 0 0 1-10-19.79v-11.57c-.383-13.576-11.499-24.382-25.08-24.382s-24.697 10.806-25.08 24.382v11.57a24.6 24.6 0 0 1-10 19.79v12.58h70.16z"/><path fill="#116864" fill-rule="nonzero" d="M489.47 298.85h70.17v12.63h-70.17z"/><path fill="#FFF" d="M544.73 242.42c7.18 0 13 5.82 13 13s-5.82 13-13 13-13-5.82-13-13 5.82-13 13-13"/><path fill="#E0E2E5" fill-rule="nonzero" d="M.87.96H420.3v556.08H.87z"/><path fill="#D0D4D8" fill-rule="nonzero" d="M.87.96H420.3v251.21H.87z"/><path fill="#02201E" fill-rule="nonzero" d="M.87.96H420.3v52.92H.87z"/><path fill="#18837E" d="M332.72 121.15a25.32 25.32 0 1 1-25.31-25.31c13.978 0 25.31 11.332 25.31 25.31"/><path fill="#053634" d="M113.33 121.15c.006 6.528-5.282 11.824-11.81 11.83s-11.824-5.282-11.83-11.81 5.282-11.824 11.81-11.83h.08c6.499.033 11.75 5.31 11.75 11.81"/><path fill="#0A4F4B" d="M162.87 121.15c.006 6.528-5.282 11.824-11.81 11.83s-11.824-5.282-11.83-11.81 5.282-11.824 11.81-11.83c6.526 0 11.819 5.284 11.83 11.81"/><path fill="#419E98" d="M210.09 121.15c.006 6.528-5.282 11.824-11.81 11.83s-11.824-5.282-11.83-11.81 5.282-11.824 11.81-11.83c6.524 0 11.814 5.286 11.82 11.81z"/><path fill="#66B8B2" d="M259.59 121.15c0 6.522-5.288 11.81-11.81 11.81s-11.81-5.288-11.81-11.81 5.288-11.81 11.81-11.81 11.81 5.288 11.81 11.81"/><path fill="#EFF1F2" fill-rule="nonzero" d="m290.22 122.23 4.77-4.77 12.73 12.73-4.77 4.77z"/><path fill="#EFF1F2" fill-rule="nonzero" d="m298.09 130.19 21.55-21.55 4.78 4.78-21.55 21.54z"/><path fill="#D0D4D8" fill-rule="nonzero" d="M80.06 186.58h259.66v300.89H80.06z"/><path fill="#02201E" fill-rule="nonzero" d="M101.37 487.52h218.15v9.85H101.37z"/><path fill="#EFF1F2" fill-rule="nonzero" d="M80.06 203.84h259.66v48.33H80.06z"/><path fill="#383B3E" fill-rule="nonzero" d="M176.9 219.34h65.98v32.83H176.9z"/><path fill="#8A9097" d="M137.15 227.96a8.67 8.67 0 1 1-8.68-8.66 8.67 8.67 0 0 1 8.67 8.66zm162.82 0a8.67 8.67 0 1 1-8.68-8.66 8.67 8.67 0 0 1 8.68 8.66"/><path fill="#595E62" fill-rule="nonzero" d="M104.96 267.3h209.68c5.401 0 9.78 4.379 9.78 9.78v60.18H95.18v-60.19c.006-5.397 4.383-9.77 9.78-9.77"/><path fill="#71767C" fill-rule="nonzero" d="M268.38 331.82v-.25z"/><path fill="#C1C7CC" fill-rule="nonzero" d="M236.54 314.44h21.35v6.69h-21.35a5.92 5.92 0 0 0-5.81 4.64l-1.38 6.05a6 6 0 0 0 5.83 7.29h19.47v6.69h-19.47a12.66 12.66 0 0 1-12.31-15.45l1.37-6.05a12.6 12.6 0 0 1 12.3-9.86"/><path fill="#C1C7CC" fill-rule="nonzero" d="m245.32 306.72 30.11-.05 3.62 43.29-37.22.06z"/><path fill="#E0E2E5" fill-rule="nonzero" d="M157.37 278.96a36.78 36.78 0 1 0 36.78 36.77c-.006-20.31-16.47-36.77-36.78-36.77"/><path fill="#FFF" fill-rule="nonzero" d="M183.2 278.96a36.78 36.78 0 1 0 36.77 36.77c-.006-20.305-16.465-36.764-36.77-36.77"/><path fill="#E0E2E5" fill-rule="nonzero" d="M183.2 338.63a22.86 22.86 0 1 1 22.85-22.86 22.85 22.85 0 0 1-22.85 22.86"/><path fill="#FFF" fill-rule="nonzero" d="M313.87 327.86a1.65 1.65 0 1 0 0-3.3h-9.06v-22.14h9.06a1.65 1.65 0 1 0 0-3.3H115.43a1.65 1.65 0 1 0 0 3.3h9.07v22.14h-9.07a1.65 1.65 0 1 0 0 3.3h9.07v22.15h-9.07a1.65 1.65 0 1 0 0 3.3h9.07v5.07a1.65 1.65 0 1 0 3.3 0v-5.07h40.95v5.07a1.65 1.65 0 1 0 3.3 0v-5.07H213v5.07a1.65 1.65 0 1 0 3.3 0v-5.07h40.95v5.07a1.65 1.65 0 1 0 3.3 0v-5.07h40.95v5.07a1.65 1.65 0 1 0 3.3 0v-5.07h9.07a1.65 1.65 0 1 0 0-3.3h-9.06v-22.15zm-145.12 22.15H127.8v-22.15h40.95zm0-25.45H127.8v-22.14h40.95zM213 350.01h-40.95v-22.15H213zm0-25.45h-40.95v-22.14H213zm44.25 25.45H216.3v-22.15h40.95zm0-25.45H216.3v-22.14h40.95zm3.3-22.14h40.95v22.14h-40.95zm0 47.59v-22.15h40.95v22.15z"/><path fill="#D0D4D8" fill-rule="nonzero" d="M375.62 353.13H44.16l35.9 134.34h259.66z"/><path fill="#8A9097" fill-rule="nonzero" d="M232.87 362.88h-45.96l-19.13-9.75H252z"/><path fill="#C1C7CC" fill-rule="nonzero" d="m48.39 337.26-4.23 15.83h331.46l-4.23-15.83z"/></g></svg>