<svg xmlns="http://www.w3.org/2000/svg" data-name="Ebene 1" viewBox="0 0 480.506 811.016"><path fill="#eff1f2" d="M0 0h480.202v811.016H0z"/><path fill="#e0e2e5" d="M0 526.698h480.202v284.318H0zM0 0h480.506v25.231H0zm0 351.132h480.506v25.231H0zm0-175.566h480.506v25.231H0z"/><path fill="#f7f8f9" d="M31.941 133.515h71.616v42.051H31.941zm86.079 0h71.616v42.051H118.02zM74.981 79.569h71.616v42.051H74.981zm186.297 24.381v71.616h-42.05V103.95zM225.81 92.222h28.886v11.728H225.81zm100.407 11.728v71.616h-42.051V103.95zm-35.468-11.728h28.886v11.728h-28.886zm100.407 47.728v35.616h-42.051V139.95z"/><path fill="#f7f8f9" d="M355.688 128.222h28.886v11.728h-28.886z"/><path fill="#d0d4d8" d="M268.362 675.076h51.74v11.618h-51.74z"/><path fill="#d0d4d8" d="M268.362 675.076h51.74v11.618h-51.74z"/><path fill="#d0d4d8" d="M268.362 675.076h51.74v11.618h-51.74z"/><path fill="#f7f8f9" d="M176.459 351.132h-39.62V211.087h39.62z"/><ellipse cx="156.649" cy="325.754" fill="#d0d4d8" rx="9.159" ry="9.463"/><path fill="#f7f8f9" d="M225.484 351.132h-39.62V211.087h39.62z"/><ellipse cx="205.674" cy="325.754" fill="#d0d4d8" rx="9.159" ry="9.463"/><path fill="#f7f8f9" d="M274.51 351.132h-39.62V211.087h39.62z"/><ellipse cx="254.7" cy="325.754" fill="#d0d4d8" rx="9.159" ry="9.463"/><path fill="#f7f8f9" d="M323.535 351.132h-39.62V211.087h39.62z"/><ellipse cx="303.725" cy="325.754" fill="#d0d4d8" rx="9.159" ry="9.463"/><path fill="#f7f8f9" d="M439.627 351.132h-39.62V211.087h39.62z"/><ellipse cx="419.817" cy="325.754" fill="#d0d4d8" rx="9.159" ry="9.463"/><path fill="#f7f8f9" d="m393.488 342.266-38.616 8.866-31.337-136.494 38.615-8.865z"/><ellipse cx="368.501" cy="321.965" fill="#d0d4d8" rx="9.159" ry="9.463" transform="rotate(-12.93 368.501 321.965)"/><path fill="#eff1f2" d="M.633 551.851h479.569v69.07H.633zm0 81.852h479.569v69.07H.633zm0 81.851h479.569v69.07H.633z"/><path fill="#f7f8f9" d="M209.371 526.698h-19.19V475h19.19zm-26.142 0h-19.19V475h19.19zm-26.144 0h-19.19V475h19.19zm-26.144 0h-19.19V475h19.19zm-26.143 0h-19.19V475h19.19z"/></svg>