<svg xmlns="http://www.w3.org/2000/svg" data-name="Ebene 1" viewBox="0 0 1174.532 928.514"><path fill="#eff1f2" d="M0 0h480.202v811.016H0z"/><path fill="#e0e2e5" d="M0 526.698h480.202v284.318H0zM0 0h480.506v25.231H0zm0 351.132h480.506v25.231H0zm0-175.566h480.506v25.231H0z"/><path fill="#f7f8f9" d="M31.941 133.515h71.616v42.051H31.941zm86.079 0h71.616v42.051H118.02zM74.981 79.569h71.616v42.051H74.981zm186.297 24.381v71.616h-42.05V103.95zM225.81 92.222h28.886v11.728H225.81zm100.407 11.728v71.616h-42.051V103.95zm-35.468-11.728h28.886v11.728h-28.886zm100.407 47.728v35.616h-42.051V139.95z"/><path fill="#f7f8f9" d="M355.688 128.222h28.886v11.728h-28.886z"/><path fill="#d0d4d8" d="M268.362 675.076h51.74v11.618h-51.74z"/><path fill="#d0d4d8" d="M268.362 675.076h51.74v11.618h-51.74z"/><path fill="#d0d4d8" d="M268.362 675.076h51.74v11.618h-51.74z"/><path fill="#f7f8f9" d="M304.008 211.087h39.62v140.045h-39.62z"/><ellipse cx="323.817" cy="325.754" fill="#d0d4d8" rx="9.159" ry="9.463"/><path fill="#f7f8f9" d="M254.982 211.087h39.62v140.045h-39.62z"/><ellipse cx="274.792" cy="325.754" fill="#d0d4d8" rx="9.159" ry="9.463"/><path fill="#f7f8f9" d="M205.957 211.087h39.62v140.045h-39.62z"/><ellipse cx="225.766" cy="325.754" fill="#d0d4d8" rx="9.159" ry="9.463"/><path fill="#f7f8f9" d="M156.931 211.087h39.62v140.045h-39.62z"/><ellipse cx="176.741" cy="325.754" fill="#d0d4d8" rx="9.159" ry="9.463"/><path fill="#f7f8f9" d="M40.839 211.087h39.62v140.045h-39.62z"/><ellipse cx="60.649" cy="325.754" fill="#d0d4d8" rx="9.159" ry="9.463"/><path fill="#f7f8f9" d="m118.316 205.773 38.615 8.865-31.337 136.494-38.616-8.865z"/><ellipse cx="111.965" cy="321.965" fill="#d0d4d8" rx="9.463" ry="9.159" transform="rotate(-77.07 111.965 321.965)"/><path fill="#eff1f2" d="M.633 551.851h479.569v69.07H.633zm0 81.852h479.569v69.07H.633zm0 81.851h479.569v69.07H.633z"/><path fill="#f7f8f9" d="M209.371 526.698h-19.19V475h19.19zm-26.142 0h-19.19V475h19.19zm-26.144 0h-19.19V475h19.19zm-26.144 0h-19.19V475h19.19zm-26.143 0h-19.19V475h19.19z"/><path fill="#eff1f2" d="M808.284 45.763h239.409v320.942H808.284z"/><path fill="none" stroke="#fff" stroke-miterlimit="10" stroke-width="7" d="M927.988 95.266h92.762M838.037 286.074h77.497m24.532-26.168h80.684M930.798 156.87l25.18-25.18h64.772m-92.762 39.931-25.179-25.179h-64.772m89.951 54.884-25.179 25.18h-64.772"/><path fill="#e0e2e5" d="M970.527 189.839c-2.879-21.053-9.835-18.141-9.116-27.548.366-4.778.174-12.965-.103-19.866-.278-6.936-5.183-12.93-12.242-15.107-7.138-2.2-14.922-5.49-14.922-9.371 0-7.167 6.156-8.287 6.156-17.693s-4.798-16.35-12.312-16.35-12.31 6.944-12.31 16.35 6.155 10.526 6.155 17.693c0 3.88-7.783 7.17-14.92 9.371-7.06 2.177-11.965 8.171-12.243 15.107-.278 6.9-.469 15.088-.103 19.866.72 9.407-6.237 6.495-9.117 27.548-2.878 21.052-11.035 22.396-11.035 24.86s1.724 2.866 3.664 1.155l1.94-1.71s-5.173 12.273-1.616 13.682c3.556 1.408 8.405 1.006 8.405 1.006s1.508-5.03 1.724-5.634c.215-.603 2.478.906 2.8-8.249.325-9.155 1.618-14.99 5.282-21.529s6.573-16.096 7.22-21.327c.645-5.231 2.19-20.89 2.956-20.89s4.977 28.774 1.34 38.96-7.919 27.021.698 72.99c0 0-6.463 9.768-.924 28.155 5.54 18.387 7.386 25.57 4.309 32.465s-1.539 6.895 4.308 6.895 6.77-12.64 6.155-16.95-3.385-14.078-2.77-26.432c.616-12.354 0-17.813.923-23.272s4.471-40.797 7.16-40.797 6.236 35.339 7.159 40.797c.923 5.46.307 10.918.923 23.272s-2.154 22.122-2.77 26.431c-.615 4.31.308 16.951 6.155 16.951s7.386 0 4.308-6.895c-3.077-6.895-1.23-14.078 4.309-32.465 5.54-18.387-.923-28.156-.923-28.156 8.617-45.968 4.335-62.801.698-72.988s.574-38.96 1.34-38.96 2.31 15.658 2.956 20.889c.647 5.23 3.556 14.788 7.22 21.327s4.957 12.374 5.28 21.53c.323 9.154 2.587 7.645 2.802 8.248.215.604 1.724 5.634 1.724 5.634s4.85.402 8.405-1.006-1.616-13.682-1.616-13.682l1.94 1.71c1.939 1.71 3.663 1.308 3.663-1.156s-8.156-3.807-11.035-24.86zM693.445 526.698h481.087v284.318H693.445z"/><path fill="#eff1f2" d="M693.445 715.366h481.087v69.445H693.445zm0-80.286h481.087v67.88H693.445zm0-84.382h481.087v69.445H693.445z"/><path fill="#c1c7cc" d="M1057.318 493.016h21.501v16.877h-21.501z"/><path fill="#a4abb3" d="m1085.124 371.071-4.018 17.888c18.254 5.576 31.533 22.549 31.533 42.628 0 24.615-19.955 44.57-44.57 44.57-.048 0-.094-.004-.141-.004l.14 8.145h-34.252c9.854 6.416 21.617 10.148 34.253 10.148 34.716 0 62.858-28.143 62.858-62.86 0-28.804-19.375-53.081-45.803-60.515"/><path fill="#8a9097" d="m1090.322 345.673 4.957-10.973 14.686 6.634-4.957 10.973z"/><path fill="#a4abb3" d="m1051.965 416.347 34.521-76.418 25.367 11.46-34.522 76.418z"/><path fill="#8a9097" d="m1045.093 441.79 4.957-10.973 17.419 7.869-4.957 10.973z"/><path fill="#a4abb3" d="m1044.86 432.072 4.892-10.826 25.366 11.46-4.89 10.826z"/><path fill="#b2b9c0" d="m1043.688 421.101 5.134-11.365 35.547 16.058-5.134 11.366z"/><circle cx="1097.525" cy="387.017" r="15.696" fill="#c1c7cc" transform="rotate(-81.511 1097.525 387.017)"/><path fill="#b2b9c0" d="M1001.34 476.153h94.18v11.453h-94.18z"/><path fill="#57a2f3" d="M1040.617 503.328h54.902v10.68h-54.902z"/><path fill="#d0d4d8" d="M1040.617 503.328h54.902v11.685h-54.902zm-15.085 11.685h85.072v11.685h-85.072z"/><path fill="#c1c7cc" d="M776.667 499.587h59.604v27.111h-59.604z"/><path fill="#e0e2e5" d="M780.51 452.259h13.391v57.902c0 3.695-3 6.695-6.695 6.695s-6.695-3-6.695-6.695zm19.26 0h13.39v57.902c0 3.695-3 6.695-6.695 6.695s-6.696-3-6.696-6.695v-57.902zm19.258 0h13.39v57.902c0 3.695-3 6.695-6.695 6.695s-6.695-3-6.695-6.695z"/><path fill="#c1c7cc" d="M776.667 476.153h59.604v5.437h-59.604z"/><ellipse cx="619.11" cy="916.426" fill="#f7f8f9" data-name="&amp;lt;Path&amp;gt;" rx="435.718" ry="12.088"/><path fill="#b2b9c0" d="M206.537 675.506h12.778v240.92h-12.778zm631.465 0h12.778v240.92h-12.778z"/><path fill="#d0d4d8" d="M323.116 675.506h12.778v240.92h-12.778zm631.466 0h12.778v240.92h-12.778zm-790.213-15.134h729.513v15.134H164.369z"/><path fill="#c1c7cc" d="M893.882 660.372h122.039v15.134H893.882z"/><path fill="#d0d4d8" d="M850.78 782.792h103.813v10.062H850.78zm-631.466 0h110.191v10.062H219.314zm38.035-118.356L317.716 531.9l10.573 4.816-60.367 132.535z"/><path fill="#b2b9c0" d="M364.395 660.372h115.057l-123.45-186.6h-83.41c-17.856 0-19.641 1.29-22.354 3.237z"/><path fill="#b2b9c0" d="m345.663 480.624 121.58 173.634 9.516-6.664c4.354-5.426-3.091-23.289-26.168-57.628l-58.043-82.894c-19.046-22.945-32.053-34.979-37.368-33.111z"/><path fill="#c1c7cc" d="m240.72 483.673 9.518-6.664 123.725 176.699-9.517 6.664z"/><path fill="#b2b9c0" d="M373.963 660.372h621.435V647.78c-2.966-4.309-37.593-7.322-104.784-9.024h-421.71c-57.818 1.38-92.523 4.198-94.94 9.024z"/><path fill="#a4abb3" d="M995.398 660.372H882.954V647.78h112.444z"/></svg>