<svg xmlns="http://www.w3.org/2000/svg" data-name="Ebene 1" viewBox="0 0 239.409 476.316"><path fill="#c1c7cc" d="M12.48 164.887h59.604v27.111H12.48z"/><path fill="#e0e2e5" d="M0 191.998h239.409v284.318H0z"/><path fill="#eff1f2" d="M0 380.667h239.409v69.445H0zm0-80.287h239.409v67.88H0zm0-84.382h239.409v69.445H0z"/><path fill="#e0e2e5" d="M16.324 117.559h13.39v57.902c0 3.695-3 6.695-6.695 6.695s-6.695-3-6.695-6.695zm19.258 0h13.39v57.902c0 3.695-3 6.695-6.695 6.695s-6.695-3-6.695-6.695zm19.258 0h13.391v57.902c0 3.695-3 6.695-6.695 6.695s-6.695-3-6.695-6.695v-57.902z"/><path fill="#c1c7cc" d="M160.062 158.317h21.501v16.877h-21.501z"/><path fill="#a4abb3" d="M187.868 36.371 183.85 54.26c18.254 5.576 31.533 22.549 31.533 42.628 0 24.615-19.955 44.57-44.57 44.57q-.071-.001-.141-.004l.14 8.145H136.56c9.854 6.416 21.617 10.148 34.253 10.148 34.716 0 62.858-28.143 62.858-62.86 0-28.804-19.375-53.081-45.803-60.515z"/><path fill="#8a9097" d="m193.067 10.973 4.957-10.974 14.686 6.634-4.957 10.974z"/><path fill="#a4abb3" d="M154.708 81.648 189.23 5.229l25.367 11.46-34.522 76.418z"/><path fill="#8a9097" d="m147.837 107.09 4.958-10.973 17.419 7.87-4.957 10.973z"/><path fill="#a4abb3" d="m147.605 97.373 4.89-10.827 25.367 11.46-4.89 10.826z"/><path fill="#b2b9c0" d="m146.433 86.402 5.134-11.365 35.547 16.058-5.134 11.365z"/><circle cx="200.269" cy="52.317" r="15.696" fill="#c1c7cc" transform="rotate(-81.511 200.269 52.317)"/><path fill="#b2b9c0" d="M104.084 141.453h94.18v11.453h-94.18z"/><path fill="#57a2f3" d="M143.361 168.628h54.902v10.68h-54.902z"/><path fill="#d0d4d8" d="M143.361 168.628h54.902v11.685h-54.902zm-15.085 11.685h85.072v11.685h-85.072z"/><path fill="#c1c7cc" d="M12.48 141.453h59.604v5.437H12.48z"/></svg>