<svg xmlns="http://www.w3.org/2000/svg" data-name="Ebene 1" viewBox="0 0 1054.811 753.233"><path fill="#eff1f2" d="M621.33 351.132h433.481V635.45H621.33z"/><path fill="#e0e2e5" d="M621.33 351.132h433.481V635.45H621.33z"/><path fill="#eff1f2" d="M621.901 376.285h432.91v69.07h-432.91zm0 81.852h432.91v69.07h-432.91zm0 81.851h432.91v69.07h-432.91zM0 0h480.202v635.45H0z"/><path fill="#e0e2e5" d="M0 351.132h480.202V635.45H0zm0-175.566h480.506v25.231H0zM0 0h480.506v25.231H0z"/><path fill="#f7f8f9" d="M176.459 175.566h-39.62V35.521h39.62z"/><ellipse cx="156.649" cy="150.188" fill="#d0d4d8" rx="9.159" ry="9.463"/><path fill="#f7f8f9" d="M225.484 175.566h-39.62V35.521h39.62z"/><ellipse cx="205.674" cy="150.188" fill="#d0d4d8" rx="9.159" ry="9.463"/><path fill="#f7f8f9" d="M274.51 175.566h-39.62V35.521h39.62z"/><ellipse cx="254.7" cy="150.188" fill="#d0d4d8" rx="9.159" ry="9.463"/><path fill="#f7f8f9" d="M323.535 175.566h-39.62V35.521h39.62z"/><ellipse cx="303.725" cy="150.188" fill="#d0d4d8" rx="9.159" ry="9.463"/><path fill="#f7f8f9" d="M439.627 175.566h-39.62V35.521h39.62z"/><ellipse cx="419.817" cy="150.188" fill="#d0d4d8" rx="9.159" ry="9.463"/><path fill="#f7f8f9" d="m393.488 166.7-38.616 8.866-31.337-136.494 38.615-8.866z"/><ellipse cx="368.501" cy="146.399" fill="#d0d4d8" rx="9.159" ry="9.463" transform="rotate(-12.93 368.501 146.4)"/><path fill="#eff1f2" d="M.633 376.285h479.569v69.07H.633zm0 81.852h479.569v69.07H.633zm0 81.851h479.569v69.07H.633z"/><path fill="#d0d4d8" d="M232.325 324.021h59.604v27.111h-59.604z"/><path fill="#f7f8f9" d="M236.169 276.693h13.39v57.902c0 3.695-3 6.695-6.695 6.695s-6.695-3-6.695-6.695zm19.258 0h13.39v57.902c0 3.695-3 6.695-6.694 6.695-3.696 0-6.696-3-6.696-6.695zm19.259 0h13.39v57.902c0 3.695-3 6.695-6.695 6.695s-6.695-3-6.695-6.695z"/><path fill="#e0e2e5" d="M232.325 300.587h59.604v5.437h-59.604z"/><path fill="#f7f8f9" d="M119.25 351.132H90.89V274.73h28.36zm-38.637 0h-28.36V274.73h28.36zm76.901 0h-28.36V274.73h28.36z"/><ellipse cx="566.22" cy="742.069" fill="#f7f8f9" data-name="&amp;lt;Path&amp;gt;" rx="388.957" ry="11.164"/><path fill="#d0d4d8" d="M405.517 471.015h25.977v130.781h-25.977z"/><path fill="#e0e2e5" d="M397.978 595.813h41.056v67.913h-41.056z"/><path fill="#c1c7cc" d="M524.211 715.216h-14.573c0-22.671-18.445-41.116-41.116-41.116H368.49c-22.672 0-41.116 18.445-41.116 41.116H312.8c0-30.707 24.983-55.69 55.69-55.69h100.032c30.707 0 55.69 24.983 55.69 55.69z"/><rect width="27.58" height="38.367" x="503.284" y="698.95" fill="#b2b9c0" rx="13.79" ry="13.79"/><path fill="#c1c7cc" d="M410.355 666.32h16.302v48.897h-16.302z"/><rect width="27.58" height="38.367" x="306.148" y="698.95" fill="#b2b9c0" rx="13.79" ry="13.79"/><rect width="27.58" height="38.367" x="404.716" y="698.95" fill="#b2b9c0" rx="13.79" ry="13.79"/><rect width="217.14" height="45.601" x="309.936" y="467.214" fill="#a4abb3" rx="20.229" ry="20.229"/><path fill="#d0d4d8" d="M405.517 397.777h25.977v69.437h-25.977z"/><path fill="#71767c" d="M333.728 512.815h169.556v16.612H333.728z"/><path fill="#979ea4" d="M520.571 467.214h-17.287v45.601h17.287a6.504 6.504 0 0 0 6.505-6.504v-32.593a6.504 6.504 0 0 0-6.505-6.504"/><path fill="#b2b9c0" d="M316.44 512.815h17.288v-45.601H316.44a6.504 6.504 0 0 0-6.504 6.504v32.593a6.504 6.504 0 0 0 6.504 6.504"/><path fill="#979ea4" d="M477.604 319.932h-4.671v77.845h4.67c10.13 0 18.34-8.211 18.34-18.34v-41.165c0-10.129-8.21-18.34-18.34-18.34z"/><path fill="#b2b9c0" d="M359.408 397.777h4.67v-77.845h-4.67c-10.13 0-18.34 8.211-18.34 18.34v41.165c0 10.129 8.21 18.34 18.34 18.34"/><path fill="#a4abb3" d="M364.079 319.932h108.854v77.845H364.079z"/><path fill="#d0d4d8" d="M874.315 467.531H170.929v-28.042h703.386z"/><path fill="#a4abb3" d="M658.918 439.489H458.942v-8.903h199.976z"/><path fill="#a4abb3" d="M521.942 430.586h199.976l24-122.58H545.942z"/><path fill="#c1c7cc" d="M724.918 439.489H524.942v-8.903h199.976z"/><path fill="#d0d4d8" d="M524.942 430.586h199.976l24-122.58H548.942z"/><path fill="#fff" d="M629.087 388.42h10.096l1.817-9.376h9.375l1.957-10.097h-9.375l1.816-9.375h-10.096l-1.817 9.375h-9.376l-1.956 10.097h9.375z"/><path fill="#e0e2e5" d="M294.374 695.02c0-11.125 9.02-20.145 20.145-20.145h416.943c11.126 0 20.145 9.02 20.145 20.146v47.048h63.445l-.004-274.538h-584.12l.005 274.538h63.441z"/><path fill="#c1c7cc" d="M938.03 317.45h21.501v16.877H938.03z"/><path fill="#a4abb3" d="m965.836 195.505-4.018 17.888c18.254 5.576 31.533 22.549 31.533 42.628 0 24.615-19.955 44.57-44.57 44.57-.048 0-.094-.004-.141-.004l.14 8.145h-34.252c9.854 6.416 21.617 10.147 34.253 10.147 34.715 0 62.858-28.142 62.858-62.859 0-28.804-19.375-53.081-45.803-60.515"/><path fill="#8a9097" d="m971.034 170.107 4.957-10.973 14.686 6.634-4.957 10.973z"/><path fill="#a4abb3" d="m932.677 240.781 34.521-76.418 25.367 11.46-34.522 76.418z"/><path fill="#8a9097" d="m925.805 266.224 4.957-10.973 17.419 7.869-4.957 10.973z"/><path fill="#a4abb3" d="m925.573 256.506 4.89-10.826 25.368 11.46-4.891 10.826z"/><path fill="#b2b9c0" d="m924.4 245.535 5.134-11.365 35.547 16.058-5.134 11.365z"/><circle cx="978.237" cy="211.45" r="15.696" fill="#c1c7cc" transform="rotate(-81.511 978.237 211.45)"/><path fill="#b2b9c0" d="M882.052 300.587h94.18v11.453h-94.18z"/><path fill="#57a2f3" d="M921.329 327.762h54.902v10.68h-54.902z"/><path fill="#d0d4d8" d="M921.329 327.762h54.902v11.685h-54.902zm-15.085 11.685h85.072v11.685h-85.072z"/></svg>