<svg xmlns="http://www.w3.org/2000/svg" data-name="Ebene 1" viewBox="0 0 1054.811 828.205"><path fill="#eff1f2" d="M577.697 426.104h477.113v284.318H577.697z"/><path fill="#e0e2e5" d="M577.697 426.104h477.113v284.318H577.697z"/><path fill="#eff1f2" d="M578.326 451.257h476.485v69.07H578.326zm0 81.852h476.485v69.07H578.326zm0 81.851h476.485v69.07H578.326zM0 74.972h480.202v635.45H0z"/><path fill="#e0e2e5" d="M0 426.104h480.202v284.318H0zm0-175.566h480.506v25.231H0zM0 74.972h480.506v25.231H0z"/><path fill="#f7f8f9" d="M176.459 250.538h-39.62V110.493h39.62z"/><ellipse cx="156.649" cy="225.16" fill="#d0d4d8" rx="9.159" ry="9.463"/><path fill="#f7f8f9" d="M225.484 250.538h-39.62V110.493h39.62z"/><ellipse cx="205.674" cy="225.16" fill="#d0d4d8" rx="9.159" ry="9.463"/><path fill="#f7f8f9" d="M274.51 250.538h-39.62V110.493h39.62z"/><ellipse cx="254.7" cy="225.16" fill="#d0d4d8" rx="9.159" ry="9.463"/><path fill="#f7f8f9" d="M323.535 250.538h-39.62V110.493h39.62z"/><ellipse cx="303.725" cy="225.16" fill="#d0d4d8" rx="9.159" ry="9.463"/><path fill="#d1e4ff" d="M439.627 250.538h-39.62V110.493h39.62z"/><ellipse cx="419.817" cy="225.16" fill="#b8d6ff" rx="9.159" ry="9.463"/><path fill="#d1e4ff" d="m393.488 241.672-38.616 8.866-31.337-136.494 38.615-8.866z"/><ellipse cx="368.501" cy="221.371" fill="#b8d6ff" rx="9.159" ry="9.463" transform="rotate(-12.93 368.501 221.371)"/><path fill="#eff1f2" d="M.633 451.257h479.569v69.07H.633zm0 81.852h479.569v69.07H.633zm0 81.851h479.569v69.07H.633z"/><path fill="#f7f8f9" d="M119.25 426.104H90.89v-76.402h28.36z"/><path fill="#d1e4ff" d="M80.613 426.104h-28.36v-76.402h28.36z"/><path fill="#f7f8f9" d="M157.514 426.104h-28.36v-76.402h28.36z"/><ellipse cx="566.22" cy="817.041" fill="#f7f8f9" data-name="&amp;lt;Path&amp;gt;" rx="388.957" ry="11.164"/><ellipse cx="569.036" cy="815.832" fill="#f7f8f9" data-name="&amp;lt;Path&amp;gt;" rx="435.718" ry="12.088"/><path fill="#b2b9c0" d="M156.463 574.912h12.778v240.92h-12.778zm631.465 0h12.778v240.92h-12.778z"/><path fill="#d0d4d8" d="M273.042 574.912h12.778v240.92h-12.778zm631.466 0h12.778v240.92h-12.778zm-790.213-15.134h729.513v15.134H114.295z"/><path fill="#c1c7cc" d="M843.808 559.778h122.039v15.134H843.808z"/><path fill="#d0d4d8" d="M800.706 682.198h103.813v10.062H800.706zm-631.466 0h110.191v10.062H169.24z"/><path fill="#003e64" d="M408.546 484.77c32.711-19.14 101.841-26.281 101.841-26.281l207.973 45.78-1.71 17.935c-59.63-3.204-112.246 9.05-165.463-10.754 0 0-31.977-5.374-44.737-4.359a276.6 276.6 0 0 1-68.805 14.172s-40.778-27.644-29.1-36.492z"/><path fill="#7ebdff" d="M317.87 347.762c-5.23-2.032-9.146-4.05-12.382-7.248 3.8-.015 7.751-.193 11.163-.383.628 2.528 1.39 5.19 1.966 7.867l-.732-.198z" data-name="Path"/><path fill="#00629a" d="M331.896 285.534a.3.3 0 0 0-.1-.21 13 13 0 0 1 1.164 1.116s1.566-6.85.004-12.464a3.9 3.9 0 0 1-.205-.938c2.187 4.11 4.868 11.975-.305 19.747a63 63 0 0 0-.587-7.237z" data-name="Path"/><path fill="#00629a" d="M272.14 280.016s-.754-5.722 7.266-14.244c8.02-8.523 18.553-4.902 26.685-6.867s16.959-5.596 23.964-3.156c6.566 2.264 2.244 11.945 3.076 17.727q.045.507.202.99c1.562 5.615.006 12.463.006 12.463s-.62-.03-1.346-.686c-1.95-1.775-5.563-5.495-8.063-6.354-3.518-1.182-4.808 1.446-13.436 5.122s-18.513-1.737-18.513-1.737c6.74 13.222-.611 16.953-2.497 21.305-.477 1.156-.848 2.85-.721 4.093-3.505-4.475-8.713-10.164-11.907-5.497-3.955 5.681 5.752 17.527 10.56 22.877l-1.693 4.032c-.22.03-19.287-25.425-21.582-34.905-1.794-7.372 7.999-15.163 7.999-15.163" data-name="Path"/><path fill="#b8d6ff" d="M318.617 347.998c2.695 10.82 5.398 21.16 5.398 21.16l-40.43 5.325 2.138-44.399 1.31-4.236c-4.816-5.338-14.516-17.205-10.56-22.877 3.274-4.687 8.67.575 12.093 5.051a6.8 6.8 0 0 1 .536-3.646c1.875-4.432 9.236-8.083 2.487-21.304 0 0 9.846 5.346 18.513 1.737s9.997-6.315 13.434-5.132c3.238.752 8.265 5.91 8.35 6.011s.446 2.928.648 7.32c.469 7.14.263 14.31-.613 21.413-2 14.891-4.317 22.215-4.317 22.215a50 50 0 0 1-10.997 3.5 35.3 35.3 0 0 1-10.846.413c3.91 3.674 12.847 7.406 12.847 7.406l.01.043z" data-name="Path"/><path fill="#d0d4d8" d="m207.275 563.841 60.367-132.535 10.573 4.815-60.367 132.536z"/><path fill="#b2b9c0" d="M314.321 559.778h115.057l-123.45-186.6h-83.41c-17.856 0-19.641 1.29-22.354 3.237L314.32 559.778z"/><path fill="#b2b9c0" d="m295.59 380.03 121.579 173.634 9.516-6.664c4.354-5.426-3.091-23.289-26.168-57.628l-58.043-82.894c-19.046-22.945-32.053-34.979-37.368-33.111z"/><path fill="#c1c7cc" d="m190.647 383.08 9.517-6.665 123.725 176.699-9.517 6.664z"/><path fill="#0088d4" fill-rule="evenodd" d="m367.382 373.178 45.603 87.444-33.203 10.082z" data-name="Path"/><path fill="#0088d4" fill-rule="evenodd" d="m338.353 359.1 3.976.012c10.191.009 20.42 6.029 25.71 15.166l14.22 27.617-47.043-28.24z" data-name="Path"/><path fill="#7ebdff" d="M265.442 378.165c.704-.426 18.81-12.242 18.81-12.242l-.002-9.238 34.705-7.726 6.626 7.764 12.78 2.375s7.678-.257 17.63 11.614c7.436 8.137 11.745 12.022 17.145 29.85 7.729 27.078 33.457 87.19 33.457 87.19l-64.324 33.746z" data-name="Path"/><path fill="#005587" d="M438.829 482.496c15.904-.61 31.83-.249 47.69 1.08l19.588 42.728c-21.174 10.538-78.345 15.998-114.483 15.518-12.57 3.022-35.218 3.089-44.56-8.072s-11.953-27.791-11.953-27.791c9.658-6.258 15.27-8.092 26.386-10.96a447 447 0 0 1 49.542-9.928c10-1.368 19.403-2.252 27.79-2.575" data-name="Path"/><path fill="#9dc9ff" d="m714.592 503.313 59.417-16.939.004.236a25.43 25.43 0 0 1-10.634 19.018l-47.434 33.761-10.692-20.667z" data-name="Path"/><path fill="#9dc9ff" d="m676.56 515.856 34.911-51.609.153.173a25.43 25.43 0 0 1 4.12 21.397l-14.527 56.392-21.413-8.826z" data-name="Path"/><path fill="#005587" d="m486.247 484.267.137-.564 190.649 31.455 2.826 18.119c-65.374 6.81-109.962 6.606-139.958 1.9-55.405-8.65-59.14-27.635-53.654-50.91" data-name="Path"/><path fill="#9dc9ff" d="M477.25 492.313c-4.648 1.497-17.226-2.423-17.226-2.423l11.682-27.17 27.03 17.893s-16.844 10.198-21.485 11.7z" data-name="Path"/><path fill="#b8d6ff" d="M443.39 466.654c1.543.55 28.316-3.934 28.316-3.934l-11.682 27.17-18.885-6.472 2.043-16.832z" data-name="Path"/><path fill="#56b0ff" d="M320.738 475.612c4.964-14.376 20.44-19.921 39.6-20.96 27.387-1.435 62.4 6.257 85.124 10.56l-5.037 21.3s-121.343.874-121.357.1a31.9 31.9 0 0 1 1.675-11.027z" data-name="Path"/><path fill="#56b0ff" d="M266.08 411.569c-11.623-17.235-9.302-26.793-.638-33.404 10.343-5.442 23.862 8.196 36.05 20.031 12.187 11.836 32.168 43.355 39.557 59.586-14.904 5.045-21.452 14.049-21.981 28.83z" data-name="Path"/><path fill="#1a1c1d" d="M327.056 429.67c3.071-2.517-14.43-26.53-17.502-24.014l-31.507 23.852c-3.106 2.28 14.95 26.883 18.055 24.603l30.954-24.442z"/><path fill="#8a9097" d="m226.817 534.44 10.907 17.002v8.3h-42.38v-8.3z"/><path fill="#b2b9c0" d="m182.335 534.44-31.473 18.234h44.482l31.473-18.234z"/><path fill="#def5f3" d="m186.269 537.18-11.686 6.77h28.747l11.685-6.77z"/><path fill="#979ea4" d="M195.344 559.743h-44.483v-7.068h44.483z"/><path fill="#b2b9c0" d="M323.89 559.778h621.434v-12.592c-2.966-4.31-37.593-7.322-104.784-9.024H418.83c-57.818 1.38-92.523 4.198-94.94 9.024z"/><path fill="#a4abb3" d="M945.324 559.778H832.88v-12.591h112.444z"/><path fill="none" stroke="#1a1c1d" stroke-miterlimit="10" stroke-width="2.49" d="M224.336 552.674c24.465 0 44.298-19.833 44.298-44.298v-31.138a44.3 44.3 0 0 1 18.505-36.015l5.571-3.99"/><path fill="#d0d4d8" d="M726.556 398.993h59.604v27.111h-59.604z"/><path fill="#f7f8f9" d="M730.4 351.665h13.39v57.902c0 3.695-3 6.695-6.696 6.695s-6.695-3-6.695-6.695v-57.902zm19.258 0h13.39v57.902c0 3.695-3 6.695-6.695 6.695s-6.695-3-6.695-6.695zm19.258 0h13.391v57.902c0 3.695-3 6.695-6.695 6.695s-6.696-3-6.696-6.695z"/><path fill="#e0e2e5" d="M726.556 375.559h59.604v5.437h-59.604z"/><path fill="#eff1f2" d="M577.697 0h239.409v320.942H577.697z"/><path fill="none" stroke="#fff" stroke-miterlimit="10" stroke-width="7" d="M697.402 49.503h92.762M607.45 240.31h77.497m24.532-26.167h80.685m-89.952-103.036 25.18-25.18h64.772m-92.762 39.931-25.18-25.18H607.45m89.952 54.885-25.18 25.18H607.45"/><path fill="#d1e4ff" d="M739.94 144.075c-2.878-21.052-9.835-18.14-9.115-27.547.365-4.778.173-12.965-.103-19.866-.279-6.936-5.184-12.93-12.243-15.107-7.138-2.201-14.921-5.49-14.921-9.371 0-7.167 6.155-8.287 6.155-17.693s-4.797-16.35-12.311-16.35-12.311 6.943-12.311 16.35 6.155 10.526 6.155 17.693c0 3.88-7.783 7.17-14.92 9.37-7.06 2.178-11.964 8.172-12.243 15.108-.277 6.9-.468 15.088-.103 19.866.72 9.407-6.237 6.495-9.116 27.547-2.879 21.053-11.035 22.397-11.035 24.86s1.724 2.866 3.663 1.156l1.94-1.71s-5.173 12.273-1.616 13.682c3.556 1.408 8.405 1.006 8.405 1.006s1.509-5.03 1.724-5.634c.216-.603 2.478.906 2.801-8.25.324-9.154 1.618-14.989 5.281-21.528 3.664-6.54 6.573-16.096 7.22-21.327s2.19-20.89 2.956-20.89 4.977 28.774 1.34 38.96-7.919 27.02.698 72.99c0 0-6.462 9.767-.923 28.155 5.54 18.387 7.385 25.57 4.308 32.465s-1.538 6.895 4.308 6.895c5.848 0 6.771-12.641 6.155-16.95-.615-4.31-3.385-14.078-2.769-26.433.615-12.353 0-17.812.923-23.27.923-5.46 4.47-40.798 7.159-40.798s6.236 35.339 7.16 40.797.307 10.918.923 23.271c.615 12.355-2.155 22.123-2.77 26.432-.615 4.31.307 16.951 6.155 16.951s7.385 0 4.308-6.895-1.231-14.078 4.308-32.465c5.54-18.388-.922-28.156-.922-28.156 8.616-45.968 4.334-62.802.697-72.989-3.637-10.186.574-38.96 1.34-38.96s2.31 15.658 2.956 20.89c.647 5.23 3.556 14.788 7.22 21.327s4.957 12.374 5.28 21.529 2.587 7.646 2.802 8.249c.216.604 1.724 5.634 1.724 5.634s4.85.402 8.406-1.007c3.555-1.408-1.617-13.681-1.617-13.681l1.94 1.71c1.94 1.71 3.663 1.308 3.663-1.156s-8.156-3.807-11.034-24.86z"/><path fill="#7ebdff" d="M938.03 392.422h21.501v16.877H938.03z"/><path fill="#9dc9ff" d="m965.836 270.477-4.018 17.888c18.254 5.576 31.533 22.549 31.533 42.628 0 24.615-19.955 44.57-44.57 44.57-.048 0-.094-.004-.141-.004l.14 8.145h-34.252c9.854 6.416 21.617 10.147 34.253 10.147 34.715 0 62.858-28.142 62.858-62.859 0-28.804-19.375-53.081-45.803-60.515"/><path fill="#7ebdff" d="m971.034 245.08 4.957-10.974 14.686 6.634-4.957 10.973z"/><path fill="#9dc9ff" d="m932.677 315.753 34.521-76.418 25.367 11.46-34.522 76.418z"/><path fill="#7ebdff" d="m925.805 341.196 4.957-10.973 17.419 7.869-4.957 10.973z"/><path fill="#9dc9ff" d="m925.573 331.478 4.89-10.826 25.368 11.46-4.891 10.826z"/><path fill="#7ebdff" d="m924.4 320.507 5.134-11.365 35.547 16.058-5.134 11.365z"/><circle cx="978.237" cy="286.422" r="15.696" fill="#7ebdff" transform="rotate(-81.511 978.237 286.422)"/><path fill="#d1e4ff" d="M882.052 375.559h94.18v11.453h-94.18z"/><path fill="#57a2f3" d="M921.329 402.734h54.902v10.68h-54.902z"/><path fill="#9dc9ff" d="M921.329 402.734h54.902v11.685h-54.902zm-15.085 11.685h85.072v11.685h-85.072z"/></svg>