<svg xmlns="http://www.w3.org/2000/svg" data-name="Ebene 1" viewBox="0 0 1054.811 828.205"><path fill="#eff1f2" d="M0 74.972h480.202v635.45H0z"/><path fill="#e0e2e5" d="M0 426.104h480.202v284.318H0zm0-175.566h480.506v25.231H0zM0 74.972h480.506v25.231H0z"/><path fill="#f7f8f9" d="M176.459 250.538h-39.62V110.493h39.62z"/><ellipse cx="156.649" cy="225.16" fill="#d0d4d8" rx="9.159" ry="9.463"/><path fill="#f7f8f9" d="M225.484 250.538h-39.62V110.493h39.62z"/><ellipse cx="205.674" cy="225.16" fill="#d0d4d8" rx="9.159" ry="9.463"/><path fill="#f7f8f9" d="M274.51 250.538h-39.62V110.493h39.62z"/><ellipse cx="254.7" cy="225.16" fill="#d0d4d8" rx="9.159" ry="9.463"/><path fill="#f7f8f9" d="M323.535 250.538h-39.62V110.493h39.62z"/><ellipse cx="303.725" cy="225.16" fill="#d0d4d8" rx="9.159" ry="9.463"/><path fill="#f7f8f9" d="M439.627 250.538h-39.62V110.493h39.62z"/><ellipse cx="419.817" cy="225.16" fill="#d0d4d8" rx="9.159" ry="9.463"/><path fill="#f7f8f9" d="m393.488 241.672-38.616 8.866-31.337-136.494 38.615-8.866z"/><ellipse cx="368.501" cy="221.371" fill="#d0d4d8" rx="9.159" ry="9.463" transform="rotate(-12.93 368.501 221.371)"/><path fill="#eff1f2" d="M.633 451.257h479.569v69.07H.633zm0 81.852h479.569v69.07H.633zm0 81.851h479.569v69.07H.633z"/><path fill="#f7f8f9" d="M119.25 426.104H90.89v-76.402h28.36zm-38.637 0h-28.36v-76.402h28.36zm76.901 0h-28.36v-76.402h28.36z"/><path fill="#eff1f2" d="M577.697 426.104h477.113v284.318H577.697z"/><path fill="#e0e2e5" d="M577.697 426.104h477.113v284.318H577.697z"/><path fill="#eff1f2" d="M578.326 451.257h476.485v69.07H578.326zm0 81.852h476.485v69.07H578.326zm0 81.851h476.485v69.07H578.326z"/><ellipse cx="566.22" cy="817.041" fill="#f7f8f9" data-name="&amp;lt;Path&amp;gt;" rx="388.957" ry="11.164"/><path fill="#c1c7cc" d="M938.03 392.422h21.501v16.877H938.03z"/><path fill="#a4abb3" d="m965.836 270.477-4.018 17.888c18.254 5.576 31.533 22.549 31.533 42.628 0 24.615-19.955 44.57-44.57 44.57-.048 0-.094-.004-.141-.004l.14 8.145h-34.252c9.854 6.416 21.617 10.147 34.253 10.147 34.715 0 62.858-28.142 62.858-62.859 0-28.804-19.375-53.081-45.803-60.515"/><path fill="#8a9097" d="m971.034 245.08 4.957-10.974 14.686 6.634-4.957 10.973z"/><path fill="#a4abb3" d="m932.677 315.753 34.521-76.418 25.367 11.46-34.522 76.418z"/><path fill="#8a9097" d="m925.805 341.196 4.957-10.973 17.419 7.869-4.957 10.973z"/><path fill="#a4abb3" d="m925.573 331.478 4.89-10.826 25.368 11.46-4.891 10.826z"/><path fill="#b2b9c0" d="m924.4 320.507 5.134-11.365 35.547 16.058-5.134 11.365z"/><circle cx="978.237" cy="286.422" r="15.696" fill="#c1c7cc" transform="rotate(-81.511 978.237 286.422)"/><path fill="#b2b9c0" d="M882.052 375.559h94.18v11.453h-94.18z"/><path fill="#57a2f3" d="M921.329 402.734h54.902v10.68h-54.902z"/><path fill="#d0d4d8" d="M921.329 402.734h54.902v11.685h-54.902zm-15.085 11.685h85.072v11.685h-85.072zM726.556 398.993h59.604v27.111h-59.604z"/><path fill="#f7f8f9" d="M730.4 351.665h13.39v57.902c0 3.695-3 6.695-6.696 6.695s-6.695-3-6.695-6.695v-57.902zm19.258 0h13.39v57.902c0 3.695-3 6.695-6.695 6.695s-6.695-3-6.695-6.695zm19.258 0h13.391v57.902c0 3.695-3 6.695-6.695 6.695s-6.696-3-6.696-6.695z"/><path fill="#e0e2e5" d="M726.556 375.559h59.604v5.437h-59.604z"/><path fill="#eff1f2" d="M577.697 0h239.409v320.942H577.697z"/><path fill="none" stroke="#fff" stroke-miterlimit="10" stroke-width="7" d="M697.402 49.503h92.762M607.45 240.31h77.497m24.532-26.167h80.685m-89.952-103.036 25.18-25.18h64.772m-92.762 39.931-25.18-25.18H607.45m89.952 54.885-25.18 25.18H607.45"/><path fill="#e0e2e5" d="M739.94 144.075c-2.878-21.052-9.835-18.14-9.115-27.547.365-4.778.173-12.965-.103-19.866-.279-6.936-5.184-12.93-12.243-15.107-7.138-2.201-14.921-5.49-14.921-9.371 0-7.167 6.155-8.287 6.155-17.693s-4.797-16.35-12.311-16.35-12.311 6.943-12.311 16.35 6.155 10.526 6.155 17.693c0 3.88-7.783 7.17-14.92 9.37-7.06 2.178-11.964 8.172-12.243 15.108-.277 6.9-.468 15.088-.103 19.866.72 9.407-6.237 6.495-9.116 27.547-2.879 21.053-11.035 22.397-11.035 24.86s1.724 2.866 3.663 1.156l1.94-1.71s-5.173 12.273-1.616 13.682c3.556 1.408 8.405 1.006 8.405 1.006s1.509-5.03 1.724-5.634c.216-.603 2.478.906 2.801-8.25.324-9.154 1.618-14.989 5.281-21.528 3.664-6.54 6.573-16.096 7.22-21.327s2.19-20.89 2.956-20.89 4.977 28.774 1.34 38.96-7.919 27.02.698 72.99c0 0-6.462 9.767-.923 28.155 5.54 18.387 7.385 25.57 4.308 32.465s-1.538 6.895 4.308 6.895c5.848 0 6.771-12.641 6.155-16.95-.615-4.31-3.385-14.078-2.769-26.433.615-12.353 0-17.812.923-23.27.923-5.46 4.47-40.798 7.159-40.798s6.236 35.339 7.16 40.797c.923 5.459.307 10.918.923 23.271.615 12.355-2.155 22.123-2.77 26.432-.615 4.31.307 16.951 6.155 16.951s7.385 0 4.308-6.895-1.231-14.078 4.308-32.465c5.54-18.388-.922-28.156-.922-28.156 8.616-45.968 4.334-62.802.697-72.989-3.637-10.186.574-38.96 1.34-38.96s2.31 15.658 2.956 20.89c.647 5.23 3.556 14.788 7.22 21.327s4.957 12.374 5.28 21.529 2.587 7.646 2.802 8.249c.216.604 1.724 5.634 1.724 5.634s4.85.402 8.406-1.007c3.555-1.408-1.617-13.681-1.617-13.681l1.94 1.71c1.94 1.71 3.663 1.308 3.663-1.156s-8.156-3.807-11.034-24.86z"/><ellipse cx="569.036" cy="815.832" fill="#f7f8f9" data-name="&amp;lt;Path&amp;gt;" rx="435.718" ry="12.088"/><path fill="#b2b9c0" d="M156.463 574.912h12.778v240.92h-12.778zm631.465 0h12.778v240.92h-12.778z"/><path fill="#d0d4d8" d="M273.042 574.912h12.778v240.92h-12.778zm631.466 0h12.778v240.92h-12.778zm-790.213-15.134h729.513v15.134H114.295z"/><path fill="#c1c7cc" d="M843.808 559.778h122.039v15.134H843.808z"/><path fill="#d0d4d8" d="M800.706 682.198h103.813v10.062H800.706zm-631.466 0h110.191v10.062H169.24zm38.035-118.357 60.367-132.535 10.573 4.815-60.367 132.536z"/><path fill="#b2b9c0" d="M314.321 559.778h115.74l-124.132-186.6h-83.411c-17.856 0-19.641 1.29-22.354 3.237L314.32 559.778z"/><path fill="#b2b9c0" d="m295.59 380.03 121.579 173.634 9.516-6.664c4.354-5.426-3.091-23.289-26.168-57.628l-58.043-82.894c-19.046-22.945-32.053-34.979-37.368-33.111z"/><path fill="#c1c7cc" d="m190.647 383.08 9.517-6.665 123.725 176.699-9.517 6.664z"/><path fill="#b2b9c0" d="M323.89 559.778h621.434v-12.592c-2.966-4.31-37.593-7.322-104.784-9.024H418.83c-57.818 1.38-92.523 4.198-94.94 9.024z"/><path fill="#a4abb3" d="M945.324 559.778H832.88v-12.591h112.444z"/></svg>