<svg xmlns="http://www.w3.org/2000/svg" viewBox="0 0 78.3 112.8"><path fill="#005587" d="M77.78 94.13c-1.14-2-7.31-5.6-7.31-5.6a7 7 0 0 1 0-1.28c.14-.55.93-1.43 1.1-2 .37-1.2 0-2.81 0-5s-3.38-3.47-3.38-3.47a31.7 31.7 0 0 1-2.7-4.78c-.56-1.6-1.46-11.83-1.82-14.87s-1.22-10.11-1.59-13.53c-.18-1.61-.1-2.84.75-6.45a8.48 8.48 0 0 1 5.21-6c1-.45 1.78-.6 4.24-1.43s3.34-6.41 3.92-10.24.6-8.72-1.81-11.28A28.1 28.1 0 0 0 59.66.14a13.8 13.8 0 0 0-8.55 1.64l-1.67-.56-4.89.08s-4.51.26-7.41.58a5.7 5.7 0 0 0-1.53.39q.221-.057.45-.07c1.61 0 5.36 2.11 7.57 5.11 1.6 2.18 2.22 1.85 3.22 1.85C52 9.05 67.5 8.73 67.5 8.73s2.88-.1 3.89 0c.897.089 2.384.478 2.506 2.388a4.4 4.4 0 0 1-.016.882 41.4 41.4 0 0 1-2 9 10 10 0 0 1-.264.702c-.812 2.506-1.186 3.952-6.216 5.468-4.13 1.24-5.15.24-7.49 5.24s-4.34 10.61-4.34 10.61-1.07 1.72.6 2.34L58.61 47c.205.023.4.082.577.17l.021.015c.168.086.322.194.453.327q.011.014.02.029c.127.133.236.282.316.45.01.019.01.043.019.063.068.16.125.326.144.506.11 1.4 1.32 15.15 1.32 15.15l.46 6.4s.6 3.68 1.59 4.85q1.315 1.272 2.47 2.69c.461.79 1.514 1.926.386 2.282q-.116.04-.266.068c-.198.035-.633.117-1.225.23-3.313.638-11.475 2.23-11.475 2.23l-4.77 11.82-6.1 1.39-.007-.005-.023.005-3-2.17-13.24-6.2-3.19-1 .033-.033-.053-.017L16 97.84v4.65l19.7 10.34 39.79-9.75c.91-.872 1.7-1.86 2.35-2.94.51-1.42.69-4.71-.06-6.01"/><path fill="#005587" d="M48 68.1a9.4 9.4 0 0 1-.11 2.51A4.75 4.75 0 0 0 48 68.1m-1.84-22.88c.29-1.89 1-9.9-2.85-9.09-2.67.57-4.816 1.31-6.726 1.05 1.74 1 1.016 4.86 1.016 4.86-1.64 4.27-.36 4.22 1.14 4.84a7.5 7.5 0 0 0 3.56.25s3.57-.02 3.86-1.91"/><path fill="#2e3033" d="M40.17 25.508c1.19-3.33 5.457-20.177-7.27-21.148 0 0-8.18 1.8-9.4 1.91s-2.62 1.65-2.62 1.65l-10.19.73s-4.63 2.76-6.87 4a4.67 4.67 0 0 0-2.19 3.94L0 17.07l-.052 4.2 2.142.43c.2 1.84 2.38 3.3 2.38 3.3l8.22 3.05 10-.78a27.2 27.2 0 0 0 7.94 1.49c.37.01 8.39.008 9.54-3.252"/><path fill="#003e64" d="M35.61 2.27a5 5 0 0 0-2.71 2.09 6 6 0 0 1 2.71-2.09"/><path fill="#003e64" d="m39.52 93.5 3 2.17 6.1-1.39 4.74-11.82S64.82 80.23 66.12 80c1.5-.27.34-1.5-.15-2.34A31 31 0 0 0 63.53 75c-1-1.17-1.59-4.85-1.59-4.85l-.46-6.4S60.27 50 60.16 48.57A1.76 1.76 0 0 0 58.61 47l-4.44-1.64c-1.67-.62-.6-2.34-.6-2.34s2-5.61 4.34-10.61 3.36-4 7.49-5.24c5.54-1.67 5.641-3.28 6.691-6.29 1-2.916 1.46-5.905 1.789-8.97.29-2.61-1.48-3.08-2.49-3.18s-3.89 0-3.89 0-15.5.32-20.65.43c-1 0-1.62.33-3.22-1.85-2.21-3-5.918-5.114-7.57-5.11a2.3 2.3 0 0 0-.45.07 6 6 0 0 0-2.71 2.09c12.29 1.12 8.15 17.68 7 21s-8.89 3.4-9.27 3.41h.07s2 6.92 4.4 8c0 0 .565.289 1.33.4 1.9.24 4.25-.53 6.92-1.08 3.85-.81 3.14 7.2 2.85 9.09s-3.86 1.93-3.86 1.93l.93.6c.79.47 1 .41 1 .41s0 1.37.24 3.42c.603 6.352 3.625 17.53 3.38 19.07a3.7 3.7 0 0 1-.47 1.27c-3.482 1.365-17.06 6-17.06 6s-6.451 7.482-7.27 8.42l3.19 1z"/><path fill="#2e3033" d="m71.86 89.38-29.31 6.29-3-2.17L25.76 87l-2.69-.71L16 97.84v4.65l19.71 10.34 39.78-9.75a14.3 14.3 0 0 0 2.35-2.94 10.27 10.27 0 0 0-.08-6c-.68-2.04-4.92-3.99-5.9-4.76"/><path fill="#ed0007" d="M36.43 37.17s1.817.123 6.577-1.147c3.4-.87 3.478 2.857 3.538 5.607 0 2.1.215 3.53-1.055 4.56 0 0-1 1-3.69 1-3.44.16-5.8-.19-4.8-3.3.91-2.83.8-5.38-.57-6.72m12.74-4.64c.14.19 6.67 0 6.67 0l2.44-2.95s.51-1.11-1.21-1a61 61 0 0 0-7.48 1.67s-2.04.21-.42 2.28M44.61 1.3a8 8 0 0 1 4.07 2.85l9.21-.09a14.14 14.14 0 0 0-6.78-2.28S49.16 0 44.61 1.3M26.26 87.25l7.08 3.34s-5.59 6.9-6.65 9.6l-5.45-2.49s-.41-1.75 1.57-5 3.45-5.45 3.45-5.45M18.09 98.77l12.82 6.33.02 2.92-1.79.87-.01.5-10.05-5.33-.19-.53-.86-1.31z"/><ellipse cx="48.822" cy="13.89" fill="#c1c7cc" rx="3.008" ry="2.89"/><path fill="#ed0007" d="m71.38 14.74-16.42.7-.12-3.62 16.44-.36z"/></svg>