<svg xmlns="http://www.w3.org/2000/svg" viewBox="0 0 1600 900"><path fill="#00629a" d="m762.884 652.136-.447 3.464-6.627 71.376h-65.248c-5.361 45.175-3.512 89.95-1.229 173.037h96.953a3562 3562 0 0 1 6.526-27.368c13.161-54.207 27.669-107.811 39.734-137.225 11.377-27.74 14.628-64.4 15.558-83.285z"/><path fill="#8a9097" d="M799.635 252.53a99.5 99.5 0 0 0 18.853 14.97l1.062.422a1061 1061 0 0 0-1.445-13.741 59.3 59.3 0 0 1-18.47-1.651"/><path fill="#eff1f2" d="m854.04 297.59-23.272-14.458c2.626 3.34 4.76 7.217 4.961 11.129.01.2.026.4.026.6 0 10.825-5.414 27.068-5.414 27.068l-13.775-16.957-9.681-11.917a79.6 79.6 0 0 1-10.666 11.917c-9.271 8.837-20.013 16.958-20.013 16.958-3.539-4.246-9.238-10.69-14.86-16.958a3023 3023 0 0 0-5.9-6.554c-5.781-6.39-10.5-11.536-11.235-12.338l-.11-.121-4.386 2.683.018.058 23.156 75.8h91.66l-.5-66.9z"/><path fill="#eff1f2" d="M806.89 293.047a34 34 0 0 0 4.273-3.145z"/><path fill="#e0e2e5" d="M780.032 284.136a49 49 0 0 1-3.577-2.164 97 97 0 0 1-6-4.312c-6.929-5.412-8.877-8.826-9.409-10.125a3 3 0 0 1-.194-.6L744.1 285.956l.11.121c.736.8 5.454 5.948 11.235 12.338 1.89 2.089 3.892 4.31 5.9 6.554 5.622 6.268 11.321 12.712 14.86 16.958 0 0 10.742-8.121 20.013-16.958a79.6 79.6 0 0 0 10.666-11.917c.435-.652-14.099-1.888-26.852-8.916"/><path fill="#e0e2e5" d="M830.768 283.132a55.7 55.7 0 0 0-10.442-9.879c0 .367 0 .731-.026 1.091a16 16 0 0 1-.561 3.316c-1.456 5.253-5.348 9.471-8.474 12.154l-.1.088a34 34 0 0 1-4.273 3.145h-.006l9.681 11.917 13.775 16.957s5.414-16.243 5.414-27.068c0-.2-.016-.4-.026-.6-.202-3.904-2.336-7.781-4.962-11.121"/><path fill="#007bc0" d="m834.011 423.818 30.134 45.77v-.01l-26.783-41.126 16.411-16.029 9.6-24.421-.8-85.454 16.177 9.4-24.71-14.358.5 66.9h-91.66l-23.156-75.8-23.249 13.61 17.38-10.109c.05.157 24.914 67.119 37.741 167.9 38.067-20.338 62.415-36.273 62.415-36.273m47.67 225.588-8.747-59.674-1.18-8.051L869 562.862l-4.243-28.953-.087-9.243-.407-43.136c-25.643 19.051-56.085 42.308-87.412 62.378l-13.61 105.5-.352 2.73h119.2l-.3-2.059zM742.015 178.331l.048.014a163 163 0 0 0 16.217 3.72q6.3 1.1 12.11 1.578a115 115 0 0 0 11.6.363 105 105 0 0 0 15.295-1.4c14.945-8.3 28.782-15.98 40.405-20.365a60.4 60.4 0 0 1 12.612-3.473 26.7 26.7 0 0 1 6.592-.191l.211.13q.109-.052.218-.105c-5.754-33.634-36.231-56.483-68.072-51.035-31.025 5.307-51.886 35.519-47.616 68.174q.123.929.272 1.859c.04.247.066.489.108.731"/><path fill="#7d8389" d="m857.106 158.711-.211-.13a26.7 26.7 0 0 0-6.592.191 60.4 60.4 0 0 0-12.612 3.473c-11.623 4.385-25.46 12.069-40.405 20.365l-.012.007 17.388 5.8c11.286 6.2 27.4 9.468 38.846 7.964a25.1 25.1 0 0 0 7.98-2.251c10.485-5.3 25.653-8.115 41.231-7.31z"/><path fill="#002742" d="M741.908 177.6q-.15-.93-.272-1.859c0 .04 0 .082.008.122.062.559.156 1.137.264 1.737m16.372 4.465a163 163 0 0 1-16.217-3.72c3.673 17.542 25.756 51.822 25.756 51.822l3.2-6.946c-7.02-10.128-20.771-32.375-12.812-41.081.022-.027.048-.049.073-.075m12.11 1.578a50.5 50.5 0 0 1 7.226 9.77 12.77 12.77 0 0 1 1.722-6.066 20.7 20.7 0 0 1 2.653-3.341 115 115 0 0 1-11.601-.363M923 425.453c-2.466 3.84-4.9 7.2-6.839 9.777l-.237 78.052v.644l-.053 17.415 17.336-21.9-.055-.455zm-214.055 154.21-.038 69.743-.041 77.57h46.944l6.627-71.376.447-3.464.352-2.73 13.61-105.5c-10.057 6.442-20.2 12.554-30.312 18.1a302 302 0 0 1-37.589 17.657m36.428-184.651a348 348 0 0 1-8.023 46.288c-3.488 14.626-7.677 28.878-12.048 42.12q7.535-3.562 14.712-7.1a1068 1068 0 0 0 31.583-16.217c-12.827-100.782-37.691-167.744-37.741-167.9L716.475 302.3 687.9 318.928a66 66 0 0 1 10.716-1.672 88 88 0 0 1 5.963-.264h1.473c39.321 5.86 41.548 55.288 39.321 78.02"/><path fill="#001d33" d="m1010.041 492.383-1.316-5.047-75.572 21.654.055.455-17.336 21.896-.027 8.93.094 2.78.95 28.051.458 13.534 105.24-44.118-3.856-14.794zM683.642 587.26c1.272 67.481 2.31 125.276 2.42 139.717h22.8l.041-77.57.038-69.743h-.012a173 173 0 0 1-25.287 7.596"/><path fill="#004975" d="m892.424 722.349-.008.021-.03.072-10.3-70.306H848.1c-.93 18.89-4.181 55.545-15.558 83.285-12.065 29.414-26.573 83.018-39.734 137.225 1.961 8.86 3.967 18.326 5.677 27.354l96.66.014 4.631-177.665zM596.126 545.825q0-.018.025-.05l-.008-.016zm109.923-228.833h-1.473a88 88 0 0 0-5.963.264 66 66 0 0 0-10.716 1.672c-17.281 4.256-29.778 16.029-37.069 40.193l-54.648 186.52c1.518-1.457 39.564-19.75 85.87-41.739 8.744-4.153 17.78-8.435 26.923-12.763l.019-.009q8.1-3.832 16.27-7.694l.04-.019c4.371-13.242 8.56-27.494 12.048-42.12a348 348 0 0 0 8.023-46.285c2.227-22.732 0-72.16-39.324-78.02"/><path fill="#003253" d="m894.378 328.9-.455-5.359a84.8 84.8 0 0 0-15.17-11.582l-16.177-9.4.8 85.454 5.616-14.28 21.129-7.41.791-2.717-2.223-5.945 2.987-7.375.238-.588-.38-.44-1.844-2.13.959-3.729zm7.637 49.584 14.39-5.813c-.007-.1-.009-.2-.016-.3a75.1 75.1 0 0 0-9.723-32.57l-2.16 5.737 1.175 10.449-3.964 11.524.734 3.186-.467 6.475zm15.332 206.152-.458-13.534-.95-28.051-.094-2.78.027-8.93.053-17.415v-.644l.237-78.052c-2.176 2.893-3.723 4.8-3.952 5.249l-.017-.026a38.4 38.4 0 0 1-4.413 4.4 101.5 101.5 0 0 1-11.161 8.177 305 305 0 0 1-31.912 17.414l-.564-.866v.01l-30.134-45.77S809.663 439.753 771.6 460.1a1072 1072 0 0 1-31.583 16.217q-7.172 3.531-14.712 7.1l-.04.019q-8.151 3.852-16.27 7.694l-.019.009c-9.143 4.328-18.179 8.61-26.923 12.763-46.306 21.989-84.352 40.282-85.87 41.739-.037.036-.059.064-.052.08l.018.037.008.016c19.2 40.274 50.939 49.236 87.489 41.485a173 173 0 0 0 25.291-7.593h.012A302 302 0 0 0 746.534 562c10.108-5.541 20.255-11.653 30.312-18.1 31.327-20.07 61.769-43.327 87.412-62.378l.407 43.136.087 9.243L869 562.862l2.759 18.819 1.18 8.051 8.747 59.674.1.671.3 2.059 10.3 70.306.03-.072.008-.021h29.588L917.827 598.8zM882.69 386.29l4.682-1.891.666-1.006-1.558-2.637-3.527 2.316z"/><path fill="#595e62" d="m893.923 323.536.455 5.359 1.873-3.001 5.757-9.223-8.412 3.009zm9.637 11.353-11.646 14.798-.238.588-2.987 7.375 2.223 5.945 2.029-2.697 11.565-15.364 2.16-5.737.225-.599-2.771-5.02zm-4.744 35.986-3.531 4.102-1.006 1.168-6.241 7.248-.666 1.006 7.274-2.939 5.909-2.386 1.429-1.907v.001l.467-6.475-.734-3.186z"/><path fill="#656a6f" d="m901.984 377.167-1.429 1.907 1.331-.538.129-.052zm-9.043-16.269-2.029 2.697-.791 2.717-4.016 13.808.375.636 1.558 2.637 6.241-7.248 1.006-1.168 3.531-4.102 2.901-3.368 3.964-11.524-1.175-10.449zm9.067-44.227-5.757 9.223-1.873 3.001-3.729 14.493-.959 3.729 1.844 2.13.38.44 11.646-14.798.56-.711 1.789-5.941 2.331-7.742z"/><path fill="#a4abb3" d="m898.289 418.315-1.357-2.16-.437-.7-.367-.585-4.52-7.2-1.514-2.41-.249-.4-3.253-5.18-5.345-8.509-2.16-3.437.056-.023 3.547-1.433.263-3.218 3.527-2.316-.375-.636 4.016-13.808-21.129 7.41-5.616 14.29-9.6 24.421-16.411 16.029 26.783 41.126.564.866a305 305 0 0 0 31.912-17.414 101.5 101.5 0 0 0 11.161-8.177 38.4 38.4 0 0 0 4.413-4.4l-3.069-4.886z"/><path fill="#b2b9c0" d="m814.662 188.42-17.388-5.8.012-.007a105 105 0 0 1-15.295 1.4 20.7 20.7 0 0 0-2.653 3.341 12.77 12.77 0 0 0-1.722 6.066 50.5 50.5 0 0 0-7.226-9.77q-5.811-.474-12.11-1.578c-.025.026-.051.048-.075.075-7.959 8.706 5.792 30.953 12.812 41.081l-3.2 6.946-6.778 37.368c.532 1.3 2.48 4.713 9.409 10.125a100 100 0 0 0 6 4.312c1.166.778 2.364 1.5 3.577 2.164 12.753 7.028 27.287 8.264 26.852 8.916h.006l4.273-3.145.1-.088c3.126-2.683 7.018-6.9 8.474-12.154a16 16 0 0 0 .561-3.316c-.248-2.113-.5-4.261-.75-6.422l-1.062-.422a99.5 99.5 0 0 1-18.853-14.97 59.3 59.3 0 0 0 18.47 1.651 81.6 81.6 0 0 0 19.429-3.479s5.552-11.9 12.24-36.725a175 175 0 0 0 3.734-17.593c-11.436 1.492-27.551-1.776-38.837-7.976m304.215 264.787-52.9 22.964 16.174-24.807-11.02-5.515-56.64 45.545-4.452.989 8.69 33.341 4.823-2.149s36.607 2.009 68.284-10.684c4.374-1.753 13.932-11.677 21.337-19.88a31.52 31.52 0 0 0 7.793-25.759zm-202.472-80.536-14.39 5.813-.129.052-1.331.538-5.909 2.386-7.274 2.939-4.682 1.891-3.547 1.433-.056.023 2.16 3.437 5.345 8.509 3.253 5.18.249.4 1.514 2.41 4.52 7.2.367.585.437.7 1.357 2.16 10.837 17.252 3.069 4.886.017.026c.229-.45 1.776-2.356 3.952-5.249 1.937-2.575 4.373-5.937 6.839-9.777 5.417-8.434 10.958-19.147 11.562-28.794 1.23-19.7-7.2-28.417-7.2-28.417z"/></svg>