<svg xmlns="http://www.w3.org/2000/svg" data-name="Ebene 2" viewBox="0 0 1600 900"><path fill="#001d33" d="M770.83 410.75c-2.08 1.25-3.5 144.94-2.82 155.14.55 8.48.41 16.98.26 25.47l-.54 29.57-.8 43.86-.57 31.56c0 1.93-7.02 14.33-7.02 14.33l.13 22.91s-3.38 17.17-6.82 22.65c14.88 9.75 59.02-17.53 59.02-17.53l9.75-18.41s-2.26-15.17-1.77-24.06c1.28-22.53-1.09-25.99 1.15-48.46 1.62-16.36 20.16-88.44 22.95-96.67 1.33-3.92-.58-9.67-1.1-13.81l-9.44-72.81c-1.06-8.12-2.14-16.42-5.65-23.83-13.52-28.4-37.39-41.52-56.74-29.91Z"/><path fill="#003253" d="M922.42 635.96c.73 6.42 7.1 34.52 8.66 54.96 1.22 15.89 1.1 27.76 1.1 27.76l8.89 26.69s-4.87 15.63-5.18 19.49c-37.67-10.92-44.92-5.08-61.06-6.99 1.82-7.8-5.51-30.87-5.51-30.87l-4.17-12.62c-.04-6.83-1.36-13.6-3.9-19.95-10.04-22.74-5.08-19.79-8.38-44.38-1.93-14.31-2.68-28.79-5.6-42.94s-8.12-28.1-12.65-42.03c-13.73-42.4-33.2-163.46-31.22-167.63 3.36-7.08 21.57 12.41 29.03 9.97 11.4-3.73 22.94-6.97 34.6-9.75 7.07-1.62 29.19 5.68 35 10.77 5.82 5.08 12.05 64.42 17.43 110.08 6.19 53.72 2.31 111.45 2.98 117.41Z"/><path fill="#43464a" d="m934.85 759.71-48.3-14.23-13.96 33.19 27.7 9.06 41.12 2.34z"/><path fill="#43464a" d="m903.96 743.68-36.04-3.24 7.83 34.12 27.69 9.06z"/><path fill="#43464a" d="M876.85 832.98c-9.75 3.25-45.99 2.78-49.53-3.04-3.98-6.5 0-15.51 5.93-19.88s13.19-5.88 19.49-9.47c6.76-3.85 16.65-14.43 19.85-21.91 24.53 7.46 43.73 2.97 68.23 10.43 2.14.65 1.25 24.37-.99 27.62-2.94 4.17-11.89 4.5-16.34 5.51-6.09 1.38-14.62-2.75-22.03-1.07-9.23 2.14-17.25 9.32-24.61 11.83Z"/><path fill="#2f353c" d="M827.76 816.5c3.07-2.65 14.13 1.51 14.62 10.67 9.88 3.27 20.3 4.61 30.69 3.93 9.32-.78 21.48-12.09 32.85-12.02 17.2.1 32.28-3.9 35.87-12.83 3.49 2.08 0 13-2.13 15.73-1.35 1.42-3.02 2.5-4.87 3.15l-4.37 1.46c-.88.24-1.74.45-2.6.63l-4.42.67c-.89.07-1.78.07-2.66 0l-4.34-.55a46 46 0 0 0-7.05-.55c-8.12 0-11.81 4.17-17.5 7.88l-3.25 1.92c-.63.31-1.28.62-1.98.91l-4.19 1.43c-.7.18-1.43.36-2.19.5l-4.87.65h-.11l-2.24.13-4.74.15h-1.71l-4.76-.13-1.62-.08-4.27-.32-2.42-.26-4.26-.54-1.77-.28-4.6-.84c-7.16-1.46-12.44-3.36-13.95-5.05-4.19-4.6-4.19-13.68-1.14-16.34Z"/><path fill="#c1c7cc" d="m905.1 776.57-30.41-6.59.46 2.63 28.1 6.32zM899.12 784.13l-26.53-5.46-.97 2.01 25.67 5.77zM892.58 792.4l-23.06-8.4-1.6 2.04 22.92 8.57zM887.12 799.3l-22.5-9-1.82 1.97 22.6 9.22zM882.07 805.68l-23.14-9.79-1.95 1.64 23.61 10.02z"/><path fill="#43464a" d="m811.16 737.18-48.3-14.23-13.95 33.19 27.69 9.06 41.1 2.36z"/><path fill="#43464a" d="m780.26 721.16-36.03-3.25 7.81 34.12 27.72 9.06z"/><path fill="#43464a" d="M753.15 810.44c-9.75 3.25-45.97 2.78-49.53-3.04-3.96-6.5 0-15.51 5.95-19.87 5.95-4.35 13.17-5.88 19.49-9.49 6.74-3.85 16.63-14.43 19.84-21.91 24.55 7.46 43.73 2.97 68.23 10.43 2.14.65 1.27 24.37-.99 27.62-2.94 4.17-11.89 4.5-16.24 5.51-6.09 1.38-14.62-2.75-22.04-1.07-9.31 2.14-17.32 9.32-24.69 11.83Z"/><path fill="#2f353c" d="M704.07 793.99c3.05-2.66 14.13 1.49 14.62 10.66a80.9 80.9 0 0 0 30.7 3.93c9.31-.78 21.46-12.09 32.85-12.02 17.19.11 32.26-3.9 35.87-12.82 3.48 2.08 0 13-2.14 15.73a12.36 12.36 0 0 1-4.87 3.14l-4.37 1.48-2.58.63-4.43.67c-.89.05-1.78.05-2.66 0l-4.32-.57c-2.34-.36-4.7-.54-7.07-.54-8.12 0-11.79 4.17-17.48 7.86l-3.25 1.92c-.63.32-1.28.63-1.97.91l-4.26 1.41c-.7.19-1.43.36-2.21.52l-4.87.63h-.1l-2.26.15-4.74.13h-1.64l-4.74-.11-1.71-.1-4.27-.32-2.37-.23-4.27-.55-1.75-.28-4.6-.83c-7.16-1.48-12.44-3.38-13.95-5.05-4.21-4.61-4.21-13.69-1.14-16.34Z"/><path fill="#c1c7cc" d="M781.41 754.06 751 747.45l.44 2.63 28.12 6.32zM775.43 761.6l-26.52-5.46-.99 2.01 25.68 5.77zM768.89 769.86l-23.05-8.39-1.61 2.04 22.92 8.56zM763.43 776.77l-22.52-8.99-1.82 1.95 22.6 9.23zM758.38 783.15l-23.15-9.78-1.94 1.63 23.61 10.02z"/><path fill="#005587" d="m871.98 595.05 52.57-1.23c14.25-30.07-.23-71.48-7.59-87.72l-53.38 4s-1.97 49.21 8.4 84.96Z"/><path fill="#003e64" d="m872.63 532.09 54.58-3.98-10.25-22.05-54.58 3.97z"/><path fill="none" d="m661.38 253.32-.89-.03zm30.51 28.77.79 2.23c-.22-.76-.49-1.5-.79-2.23m-26.6-28.64-.58-.02zm4.55.16-.73-.02zm7.15.24-2.48-.08zm-3.15-.11-.61-.02zm5.26.18-.79-.03zm-1.09-.04-.49-.02zm3.17 3.73-.03-.17c0 .1-.01.2-.02.31 0-.07.02-.14.02-.21l.02.07ZM651.95 253h-.37zm-15.56-.17H636zm23.04.43h-.23zm-23.59-.45-.84-.03z"/><path fill="#005587" d="M765.6 226.94s-10.48 65.64-10.91 68.01v.06s.45.48 1.15 1.22l.15.16c.37.4.81.86 1.31 1.38l.82.87 1.08 1.15 1.58 1.67c4.17 4.42 9.16 9.71 10.38 11.01"/><path fill="#8a9097" d="M771.17 312.47c-1.24-1.31-6.22-6.59-10.39-11.01l-1.58-1.67-1.08-1.15-.82-.87c-.5-.52-.93-.99-1.31-1.38l-.15-.16c-.69-.73-1.12-1.18-1.16-1.22v-.06h.01l-84.15-18.27-15.41 9.9-8.56 5.45-.14.09c-.4.46 47.88 14.43 48.66 14.34 0 0 54.55 31 75.12 41.61"/><path fill="#d0d4d8" d="M824.81 181.58c.4-4.28.84-8.6 1.27-12.71 4.99.36 10.01-.14 14.82-1.49a77.5 77.5 0 0 1-16.09 14.2"/><path fill="#d0d4d8" d="M839.64 168.84a44.1 44.1 0 0 1-13.73 1.24 61 61 0 0 1-14-2.39s-4-8.2-8.83-25.3c-.79-2.79-1.44-5.56-1.98-8.25-1.38-6.97-2.22-14.03-2.52-21.12 5.57 1.85 3.72-13.57 20.84-12.57 17.24 1.01 32.74.97 32.74.97.08 4.81.58 9.6 1.48 14.32 4-6 10.73-.23 15.46 4.71 2.1 2.19 1.01 4.42 1.56 7.84 1.3 8.1-7.78 15.05-10.38 18.21.63 1.56 11.68 58.58 11.68 58.58l-51.42 4.18s2.67-15.94 4.21-28.57c5.48-3.25 10.5-7.24 14.9-11.84Z"/><path fill="#595e62" d="M873.49 110.65c-1.27-8.16-11.81-14.39-11.81-14.39s-.46-6.26-10.86-13.56c-10.4-7.31-20.77-2.58-29.67-1.38-19.21 2.58-16.67 27.68-14.19 26.2 3.43-2.05 5.42.5 15.41 2.45 10 1.95 19.27-5.92 19.27-5.92-4.22 15.58 6.04 9.89 9.05 14.16.48.68 2.47 1.9 3.88 2.84l-4.4 26.23s-1.56 2.15-6 1.63a84 84 0 0 0-25.27-5.09c-15.06-.69-14.68 2.27-14.68 2.27s-5.51 12.77 1.23 23.88c5.64 9.28 17.08 11.82 25.2 11.62 3.18-.08.49-1.87 3.86-5.78 2.25-2.61 15.09-1.99 19.2-8.43 2.74-4.29 1.3-10.39.1-15.34l-1.9-9.78c2.69-5.27 11.91-26.11 18.74-13.98 1.77-3.64 3.74-11.75 2.83-17.63Zm-40.03 42.13c0 5.08-19.1 14.6-28.28-3.36v-.93c5.72 4.86 27.03 1.89 27.03 1.89q1.25 1.73 1.25 2.4"/><path fill="#d0d4d8" d="m819.61 140.79 7.71 3.82s-16.54 4.9-19 4.58a3.23 3.23 0 0 1-3.13-3.05c-.09-.78.16-1.56.7-2.14l7.19-9.9z"/><path fill="#d1e4ff" d="M894.36 412.65H780.83l.12-35.53.11-30.74-10.55-73.1-3-20.78a48.37 48.37 0 0 1 23.16-45.42L823 187.55h42.14l46.24 27.04-17.01 198.06Z"/><path fill="#002c50" d="m878.18 255.39 33.19-40.8-17.01 198.06h-28.12z"/><path fill="#d0d4d8" fill-rule="evenodd" d="m823 187.55 5.22 20.41 40.86-18.06-1.54-7.45-43.44 3.25z"/><path fill="#003e64" d="M839.17 59.66c-19.2.37-34.13 13.05-36.5 17.09-.9 8.55-1.46 22.57-1.57 32.19 11.16 4.89 40.7 11.42 75.92 1.04-.15-12.03.89-22.2-1.03-28.11-5.21-16.02-20.36-22.54-36.81-22.22Z"/><path fill="#005587" d="M853.97 114.6c-22.24.11-50.27-4.38-52.87-7.28 0 0-8.71 5.64-16.24 10.95-7.62 5.37-6.87 6.51 2.75 5.2 6.73-.92 25.72 3.46 33.94 5.96 10.55 3.21 14.16-2.31 23.39-7.34l9.02-7.49Zm-42.32 308.54c24.06-1.17 75.23-1.16 75.23-1.16s10.12-1.2 19.87-.06c.61-22.68 3.06-67.83 3.67-90.51.1-1.06.94-5.1.61-6.12-.63-1.18 6.06.17 4.9-.48-10.1-6.89-6.64-60.58-6.64-60.58l-17.64-33.61c2.86-7.16 20.32-19.37 26.12-18.47 8.14 1.22-48.57-24.28-48.57-24.28s-4.29 3.33-8.12 6.42c-6.31 5.1-41.16 72.91-41.16 72.91s-8.86 146.85-8.26 155.95ZM823 187.55c-.54-.8-50.89 25.9-52.94 27.04-2.13 1.38-4.13 6.04-4.13 6.04l-2.06 39.09 2.43 53.86 2.69 34.1-2.29 73.62 36.35 2.5c.04-12.15 8.44-164.61 8.44-164.61s11.52-71.64 11.5-71.65Z"/><path fill="#003e64" d="m915.51 305.38-12.45-92.84-16.49 30.49 2.3 120.65-1.99 58.3 19.87-.06z"/><path fill="#d1e4ff" d="M937.01 233.01c-4.09-14.09-13.29-21.23-22.11-22.48-3.79-.38-6.82.03-6.82.03-20.7 2.91-22.13 28.94-21.01 40.95.17 1.92.38 3.85.62 5.8v.02c1.86 13.98 5.01 27.76 9.41 41.16l.12.06c6.47 3.12 12.95 6.25 19.2 9.28 26.45 12.8 48.77 23.73 48.57 24.12L937 233.03Z"/><path fill="#a4abb3" d="M916.43 307.82c-6.25-3.03-12.73-6.16-19.2-9.28l-.12-.06c-4.16-2-8.31-4-12.39-5.97l-.07-.04c-28.63-13.78-53.9-25.86-53.9-25.86l-6.72-3.68-.19-.1-5.03-2.76-.04-.02-9.51-5.21-13.76 30.41c2.18.31 23.14 3.31 24.75 4.47 17.14 12.88 39 30.87 60.87 44.52l.07.05c11.02 6.87 22.04 12.64 32.46 16.09 21.38 7.08 40.22 4.41 51.34-18.45.2-.39-22.12-11.31-48.57-24.12Z"/><path fill="#404040" d="M733.64 298.92h.07v-.03s-.05.02-.07.03"/><path d="M733.71 298.89v.03h-.07s.04-.02.07-.03"/><path fill="#404040" d="M789.17 296.31c.35-44.87-26.57-89.76-60.13-100.28s-61.06 17.33-61.4 62.2c-.35 44.86 26.58 89.75 60.14 100.27s61.05-17.33 61.4-62.19Zm-9.2 3.83v.03l-.09-.02h.09Zm-101.36-39.29c-.56-38.4 20.79-61.78 47.69-52.21 13.12 4.67 25.12 16.3 34.04 31.46-26.42-4.38-47.95 2.33-62 9.28a109.6 109.6 0 0 0-19.7 12.52c-.02-.35-.02-.7-.03-1.04Zm84.34-9.12c-9.32 12.92-29.26 45.8-23.41 84.11-16.72-40.88-45.29-55.71-59.13-60.67 5.61-5.49 36.82-33.35 82.54-23.44m-34.63 96c-20.49-7.29-38.27-31.59-45.84-59.72 3.89 1.85 8.45 4.42 13.25 7.94 16.39 12.01 28.87 30.21 36.38 52.92-1.24-.3-2.51-.67-3.8-1.13Zm25.47-1.27c-11.32-36.06 6.18-69.68 16.27-84.98 3.64 10.85 5.78 22.47 5.95 34.03.36 24.99-8.54 43.62-22.21 50.95Z"/><path fill="#a4abb3" d="m679.1 253.92-.79-.03h-.3l-.49-.03-.53-.02-2.48-.08-.67-.02-.61-.02-3.39-.11-.73-.02-3.82-.13-.58-.02-3.32-.11-.89-.03-1.06-.04h-.23l-7.24-.26h-.37l-4.79-.18h-.39l-.16-.02-.84-.03h-.28l-.84-.04 2.16 39.38.15-.1 9.73-6.2c5.29-3.37 10.95-6.98 14.33-9.13 6.58-2.89 10.09-11.42 10.5-18.95 0-.1.02-.2.02-.31.05-1.15.03-2.31-.07-3.45l-1.98-.06Z"/><path fill="#8a9097" d="m774.23 260.55-4.56.74s.47 2.36 1.25 5.44c.12.44 3.65 5.86 7.09 9.49 1.33 1.4 8.27 7.26 11.29 8.07 3.23.87 6.2.96 6.2.96l13.76-30.42-35.04 5.7Z"/></svg>