<svg xmlns="http://www.w3.org/2000/svg" viewBox="0 0 1600 900"><path fill="none" d="m316.729 395.202-5.441 6.056 5.44-6.054zm818.182-60.208.007-.008-6.951-30.726-.023-.053zm13.497 59.635.001-.01-1.355-5.988-.003.002zM325.161 253.434l-2.392-11.147zM428.7 270.586 326.552 384.271l102.175-113.692z"/><path fill="#383b3e" d="M679.017 813.7H656.13a18.26 18.26 0 0 1 0 20.179h22.887a10.09 10.09 0 1 0 0-20.179"/><path fill="#71767c" d="M635.307 813.586a12.77 12.77 0 0 0-10.371-5.755c-.228 0-.45.027-.676.04-7.136.42-12.817 7.377-12.817 15.923s5.681 15.5 12.817 15.922c.226.013.448.04.676.04A12.76 12.76 0 0 0 635.307 834a18.25 18.25 0 0 0 0-20.415z"/><path fill="#43464a" d="m992.948 264.234.844 76.95-10.546 7.331h28.998l-.883-3.857zm141.97 70.752 4.542-5.241a1273 1273 0 0 1-11.493-25.485zm24.508 43.245-12.372 10.4 1.355 5.988 8.017 35.434.061-.014 13.123-2.962c-1.292-5.933-5.162-24.544-10.184-48.846"/><path fill="#00a4fd" d="M1014.806 348.515H866.327v43.433h148.678v-43.433z"/><path fill="#0088d4" d="M1041.84 348.515h-26.835v43.433h70.56l2.7-3.117v-40.316zm-92.897 52.318a12.9 12.9 0 0 1 3.477 2.953l.04.053c.047-.039.09-.084.137-.125a15.46 15.46 0 0 0 5.421-11.766h-4.529a10.96 10.96 0 0 1-4.546 8.885m-5.461 2.047c-.322.028-.645.049-.974.049a11 11 0 0 1-1.845-.167c-.122-.02-.248-.031-.368-.056a10.97 10.97 0 0 1-8.768-10.758H927a15.6 15.6 0 0 0 .315 3.126 15 15 0 0 0 .522 1.868 15.64 15.64 0 0 0 11.548 10.2c.042.009.087.011.13.02a15.6 15.6 0 0 0 3 .3c.313 0 .618-.029.926-.047a15.4 15.4 0 0 0 5.85-1.528 9 9 0 0 0-.581-.6 9.02 9.02 0 0 0-5.228-2.407"/><path fill="#c1c7cc" d="m1040.23 190.7 2.878 1.259h.005c-.33-.322 7.908-2.934 14.361-8.66a30 30 0 0 0 1.786-1.717 58 58 0 0 0 2.9-3.275c4.008-4.9 4.163-7.146 4.164-7.422l-11.5-22.434s-.437-.535-1.146-1.423c1.933-4.957 6.777-19.1 1.247-23.869a84 84 0 0 1-8.36 3.326 37.6 37.6 0 0 0-2.678 7.1 31 31 0 0 1-.771-1.342 44 44 0 0 1-1.873-4.193 64 64 0 0 1-12.028 1.867h.008l-9.426 5.7c-5.573 4.931-14.119 8.859-20.911 9.718.869 1.9 1.832 3.88 2.9 5.908 1.145 2.178 2.4 4.4 3.773 6.6 8.415 13.509 13.844 19.567 13.844 19.567a50.5 50.5 0 0 0 12.137-1.41 36.8 36.8 0 0 0 10.541-4.226 63.6 63.6 0 0 1-8.586 12.594c.06.125.115.252.18.373a15.53 15.53 0 0 0 6.483 5.921zm48.035 222.658a411 411 0 0 1-9.715-8.682l-1.616 1.886-12.113 2.253-18.1 3.365-8.275 1.539-1.23 7.264 10.293 1.479 5.673.814-4.549 3.2 20.945 24.386a22.7 22.7 0 0 0 3.934-3.5c5.252-5.654 11.063-15.168 14.754-21.145 1.829-2.961 3.137-5.053 3.6-5.374.956-.664 1.942-1.343 2.946-2.032a218 218 0 0 1-6.547-5.453"/><path fill="#656a6f" d="M990.842 123.788c-.008-.143-.006-.284-.012-.427l-1.537 2.114 1.691-1.653zm2.258 21.381c-.794-.2-1.627-.363-2.482-.506a20.27 20.27 0 0 0 11.167 6.585 126 126 0 0 1-2.9-5.908 16 16 0 0 1-5.785-.171m50.021-12.927c.224.418.486.87.771 1.342a37.6 37.6 0 0 1 2.678-7.1q-2.721.914-5.322 1.565a44 44 0 0 0 1.873 4.193m11.809-9.084c5.53 4.77.686 18.912-1.247 23.869.709.888 1.146 1.423 1.146 1.423s6.718-16.306 5.838-28.152q-2.94 1.58-5.737 2.86M933.44 411.894h-5.288v21.249h25.755v-21.249zm257.698-94.023-46.438-99.429c-4.986-13.857-12.711-22.112-23.148-24.438-.1-.022-.2-.034-.3-.055l-.122-.022a30 30 0 0 0-6.98-.6c-.143 0-.284 0-.428.01a23.3 23.3 0 0 0-6.862 7.625c-3.824 6.619-5.157 15.161-5.131 23.356a75.1 75.1 0 0 0 3.42 22.531c6.693 19.419 15.266 40.152 22.791 57.355l.023.053c4.38 10.013 8.4 18.83 11.493 25.485l-4.542 5.241-.007.008-19.207 22.177-8.818 10.177-18.617 21.486-2.7 3.117-2.821 3.255-6.418 7.408.042.039a422 422 0 0 0 11.897 10.708c2.18 1.882 4.43 3.772 6.545 5.454 4.332 3.446 8.084 6.013 9.431 5.806l16.709-14.045 18.285-15.37 7.816-6.57 12.372-10.4 36.3-30.514z"/><path fill="#00629a" d="M1201.337 774.45c-.413-165.726-43.146-204.5-42.742-219.866 1.663-63.332 3.317-91.392-2.108-124.544l-.061.014-27.143 6.128-8.333-25.608-16.709 14.045c-1.347.207-5.1-2.36-9.431-5.806-1 .689-1.99 1.368-2.946 2.032-.462.321-1.77 2.413-3.6 5.374v68.249c2.938 10.922 5.877 22.547 8.712 34.222 12.133 49.973 22.351 100.8 22.351 100.8l25.35 127.95 29.591 2.656-.082 6.354zM330.693 418.678l-16.663-14.959-3.776 11.917c-13.511 50.758-11.465 71-9.406 149.422.376 14.316-39.516 50.472-39.734 205.345L286 763.071l-.077-5.893 27.648-2.481 23.776-120.008s9.5-47.249 20.776-93.7c7.315-30.13 15.379-59.924 22.085-76.273 4.239-10.336 6.447-22.9 7.6-33.224l-48.464-20.82z"/><g fill="#eff1f2"><path d="m1078.491 179.66-.049.084c-.281.491-1.9 3.318-3.987 7.01a1061 1061 0 0 0-6.117 10.952c-1.457 2.653-2.778 5.106-3.718 6.943 0 0-3.237-1.467-7.324-3.6-4.857-2.534-10.916-6.009-14.183-9.091l-6.345 12.8-3.448 6.957s-5.251-8.685-6.664-14.944c-.026-.116-.029-.237-.049-.355a12.23 12.23 0 0 1 1.4-7.078l-11.572 11.4 8.442 38.749 53-11.964 3.494-46.847v-.037z"/><path d="M1040.23 190.7a20.4 20.4 0 0 0 2.878 1.259zm-513.959 73.45a10.16 10.16 0 0 1-2.183 5.574c-4.017 4.475-12.283 9.18-12.283 9.18l.264-5.343.739-14.968.017-.329c-.323.081-.667.154-1.02.224-4.683.928-11.751.865-16.689.662-3.327-.136-5.687-.335-5.687-.335.045-1.233.078-2.743.1-4.412.054-3.86.056-8.567.042-12.667-.018-4.943-.06-8.995-.067-9.614v-.091l-2.808-.518-.015.031-18.554 39.923 28.9 25.944 8.989 8.069 19.784-22.372 4.837-5.47-4.255-14.612q-.042.563-.111 1.124"/><path d="M512.828 258.264a19 19 0 0 0 2.934.286z"/></g><path fill="#e0e2e5" d="M1066.323 170.851v.033c0 .276-.156 2.52-4.164 7.422a58 58 0 0 1-2.9 3.275c-.573.6-1.172 1.173-1.786 1.717-6.453 5.726-14.691 8.338-14.361 8.66h-.005a20.4 20.4 0 0 1-2.878-1.259l-.072-.04a15.53 15.53 0 0 1-6.483-5.921c-.065-.121-.12-.248-.18-.373a9.2 9.2 0 0 1-.738-2.1l-.021.024a33 33 0 0 0-4.724 7.049 12.23 12.23 0 0 0-1.4 7.078c.02.118.023.239.049.355 1.413 6.259 6.664 14.944 6.664 14.944l3.448-6.957 6.345-12.8c3.267 3.082 9.326 6.557 14.183 9.091 4.087 2.133 7.324 3.6 7.324 3.6.94-1.837 2.261-4.29 3.718-6.943 2-3.633 4.243-7.637 6.117-10.952 2.088-3.692 3.706-6.519 3.987-7.01l.049-.084zm-561.965 71.542c-2.459-9.575-.874-12.006-.874-12.006l-.09.01-13.894 1.634v.091c.007.619.049 4.671.067 9.614.014 4.1.012 8.807-.042 12.667a209 209 0 0 1-.1 4.412s2.36.2 5.687.335c4.938.2 12.006.266 16.689-.662.353-.07.7-.143 1.02-.224.465-.118-6.236-7.186-8.463-15.871m21.369 12.675a8.7 8.7 0 0 1-1.67 1.46 14.4 14.4 0 0 1-8.3 2.022 19 19 0 0 1-2.934-.286l-.017.329-.739 14.968-.264 5.343s8.266-4.7 12.283-9.18a10.16 10.16 0 0 0 2.183-5.574q.071-.561.107-1.124a31 31 0 0 0-.605-7.751c-.026-.131-.044-.207-.044-.207"/><path fill="#002742" d="m472 228.537-12.076-2.507q.034.022.067.046a22.3 22.3 0 0 1 6.976 7.263l.055.084c4.494 10.332-5.408 21.669-18.374 29.228a70 70 0 0 1-16.706 7.064l-3.219.864-102.17 113.693-9.825 10.928-5.44 6.054 2.742 2.461 16.663 14.959 8.652-8.007 13.6-12.589 6.969-6.449 48.468-44.851c49.528-60.66 74.522-115.867 74.568-115.97z"/><path fill="#001d33" d="M535.185 423.06s3.65-37.307 4.013-74.016c.09-9.214.158-18.381.184-26.9a69.2 69.2 0 0 0-1.8-15.5 40.92 40.92 0 0 1-8.922 25.036 44.6 44.6 0 0 1-4.586 5.05l-32.748 46.76-1.674 37.086 23.531 84.943 4.826-.9 19.569-3.632 6.891-1.279zM405.947 276.6a704 704 0 0 1-14.926 3.724c-41.507 41.328-91.8 91.65-100.114 101.049l20.381 19.881 5.441-6.056 9.825-10.932L428.7 270.586c-7.287 1.951-15 3.988-22.753 6.014"/><path fill="#004975" d="M1089.9 633.334c-5.276-36.67-.229-71.634 7.077-104.645-2.835-11.675-5.774-23.3-8.712-34.222V512.6h-53.326l2.689 103.16 9.091 129.767 25.454 2.285-.083 6.354 28.537 8.406 2.664 12.343c-3.129-92.215-.691-53.315-13.391-141.581M388.881 467.459l-.012.006-.039.018 19.954-30.06-19.954-5.493-1.021-.439c-1.152 10.325-3.36 22.888-7.6 33.224-6.706 16.349-14.77 46.143-22.085 76.273 6.791 30.685 11.483 63.185 6.579 97.272-11.206 77.873-9.734 49.257-12.042 119.447l25.422-7.489-.076-5.893 26.879-2.413 8.4-119.988 3.439-131.918-1.056 1.507zm13.75 301.58.305.724.264-3.767-.185.804zm162.152-529.731a10.7 10.7 0 0 0 2.963-.722q-.577-.351-1.16-.763-.878.742-1.803 1.485m-29.629-39.742a31 31 0 0 1-.19 8.554c.425-.3.819-.594 1.172-.873a44 44 0 0 0 3.45-3.171 69 69 0 0 1-4.432-4.51m-15.106 17.173s.513-.262 1.363-.707c.209-5.3 1.455-20.385 8.858-21.321a5 5 0 0 1 .855-.028 95 95 0 0 1-4.7-6.772c-8.345 8.042-6.376 28.827-6.376 28.828m-53.077 16.6a22.3 22.3 0 0 0-6.971-7.263q-.034-.024-.067-.046c-6.2-3.9-14.8-4.491-27.591-2.769l-109.573 19.026 2.392 11.147 8.317 38.748s27.314-4.644 57.543-11.854a704 704 0 0 0 14.926-3.724 4342 4342 0 0 0 22.754-6.018l.026-.007 3.219-.864a70 70 0 0 0 16.706-7.064c12.966-7.559 22.868-18.9 18.374-29.228-.018-.023-.037-.055-.055-.084"/><g fill="#56b0ff"><path d="M997.152 391.948h-39.134a15.46 15.46 0 0 1-5.421 11.766c-.047.041-.09.086-.137.125a12.75 12.75 0 0 1 2.855 8.055h2.7v21.249h-29.863v-21.249h1.548a12.75 12.75 0 0 1 2.855-8.055 15.53 15.53 0 0 1-4.721-6.9 15 15 0 0 1-.522-1.868 15.6 15.6 0 0 1-.315-3.126h-60.67v-43.43h-.135V512.6h148.813V391.948z"/><path d="M943.482 402.88a8.8 8.8 0 0 0-1.949 0c.322.028.646.049.975.049s.652-.021.974-.049m-4.1 4.264a15.4 15.4 0 0 1-3.651-1.26 9.02 9.02 0 0 0-2.268 5.552c-.007.153-.023.3-.023.458h18.135a9.02 9.02 0 0 0-2.291-6.01 15.4 15.4 0 0 1-5.85 1.528c-.308.018-.613.047-.926.047a15.6 15.6 0 0 1-3-.3c-.039-.004-.084-.006-.126-.015m-6.993-10.922a10.6 10.6 0 0 0 2.763 3.862 11 11 0 0 0 .92.749 12.73 12.73 0 0 1 12.871 0 10.96 10.96 0 0 0 4.546-8.885h-21.962a11 11 0 0 0 .862 4.274M553.392 219.844l-5.164-9.08h.007a60.5 60.5 0 0 1-8.649-6.689 44 44 0 0 1-3.45 3.171c-.353.279-.747.571-1.172.873a31 31 0 0 0 .19-8.554q-2.028-2.261-4.03-4.883a5 5 0 0 0-.855.028c-7.4.936-8.649 16.018-8.858 21.321-.85.445-1.363.707-1.363.707L503.394 230.4l.09-.01s-1.585 2.431.874 12.006c2.227 8.685 8.928 15.753 8.466 15.871l2.934.286a14.4 14.4 0 0 0 8.3-2.022 55.8 55.8 0 0 1-2.351-15.269 34.2 34.2 0 0 0 7.973 8.272 47.7 47.7 0 0 0 9.976 5.808s6.987-3.2 19.375-11.736a96 96 0 0 0 5.753-4.3 120 120 0 0 0 1.8-1.485c-5.345-3.773-10.803-11.157-13.192-17.977M232.025 321.769c-1.425 1.258-25.855 7.334-32.866 13.859l17.86 24.93 4-3.491-1.489 15.317 7.01.5 15.346-34.051 3.183-1.611-12.2-16.2z"/></g><path fill="#003253" d="m535.517 292.745-3.2-9.89-3.353 3.807-35.064 39.807-46.533 52.831-28.884 43.514-7.183 10.821-2.515 3.788-19.954 30.06.039-.018.012-.006 26.794 24.054 1.056-1.507 74.6-106.516 32.745-46.756a44.6 44.6 0 0 0 4.586-5.05 40.92 40.92 0 0 0 8.922-25.036 45.8 45.8 0 0 0-2.068-13.903m-212.748-50.458-95.741 70.992 5.834 7.745 12.203 16.202 3.233 4.292 85.18-49.336-8.317-38.748z"/><path fill="#a4abb3" d="M858.851 434.212a18.1 18.1 0 0 0 7.341 5.64v-17.247l-12.329 5.114zm173.906-251.947a9.2 9.2 0 0 0 .738 2.1 63.6 63.6 0 0 0 8.586-12.594A36.8 36.8 0 0 1 1031.54 176c.378 2.038.782 4.159 1.2 6.294zM929.7 411.894h3.74c0-.155.016-.305.023-.458a9.02 9.02 0 0 1 2.268-5.552 15.5 15.5 0 0 1-3.176-2.045 12.75 12.75 0 0 0-2.855 8.055m22.72-8.108a12.775 12.775 0 0 0-16.348-2.953 10.9 10.9 0 0 0 4.223 1.873c.12.025.246.036.368.056.287.049.577.092.87.118a8.8 8.8 0 0 1 1.949 0 9.02 9.02 0 0 1 5.221 2.406c.2.19.4.39.581.6a9.02 9.02 0 0 1 2.291 6.01h3.74a12.75 12.75 0 0 0-2.855-8.055c-.014-.019-.026-.041-.04-.055m96.212 22.691-.781.47-14.911 8.961-3.616 2.174-7.024 4.218c.993 5.134 5.315 9.88 10.237 12.672.1.056.195.116.293.17.2.112.411.207.617.312a16.76 16.76 0 0 0 8.369 2.074c6.615-.406 27.758-6.666 27.758-6.666zM403.536 767.239v.068c.172-.043 0-.068 0-.068"/><path fill="#b2b9c0" d="M1029.22 129.916c-3.9-1.141-7.678-2.247-11.286-3.234-11.326-3.1-20.92-5-26.844-2.965l-.106.105-1.691 1.653-21.332 20.866a54 54 0 0 1 22.66-1.678c.855.143 1.688.307 2.482.506a16 16 0 0 0 5.788.171c6.792-.859 15.338-4.787 20.911-9.718l9.426-5.7zm-446.56 93.352c-3.626-4.051-11.325-6.79-20.89-9.276l-.4-.1c-4.1-1.057-8.532-2.072-13.134-3.125h-.007l5.164 9.08c2.389 6.82 7.847 14.2 13.194 17.979q.582.411 1.16.763a13.2 13.2 0 0 0 3.328 1.506c6.462 1.746 13.968 6.325 20.267 12.6L582.7 223.4zM346.346 813.9c-5.022-3.725-11.265-5.024-16.657-8.1a29 29 0 0 1-3.689-2.585l-20.1 8.536-1.267-1.6 19.718-8.335a57 57 0 0 1-3.447-3.335l.195.211-19.3 7.877-1.48-1.869 19.232-7.683.2.216a57 57 0 0 1-3.152-3.809l-19.458 7.26-1.489-1.88 19.668-7.172a33 33 0 0 1-1.825-3l.077.158-19.523 4.388-2.418.543-1.572-1.985 6.512-1.341 16.161-3.327-2.179-5.18-.137.031-23.88 5.367-.22-.278-1.363-1.722 1.337-.291 23.431-5.083 1.216-.264 5.79-25.237-3.15.283-27.648 2.481.077 5.893-24.892 7.332-1.58.465-5.544 25.684c-.737 1.94-.788 8.475-.362 14.147 3.109 7.589 15.963 11 30.627 10.911 9.721-.057 20.108 9.6 28.065 10.264a69.1 69.1 0 0 0 26.231-3.353c.411-7.825 9.862-11.387 12.482-9.117a16.75 16.75 0 0 0-4.687-5.501m92.082-12.858c-5.021-3.725-11.265-5.024-16.657-8.1a29 29 0 0 1-3.694-2.583l-20.1 8.537-1.267-1.6 19.718-8.334a58 58 0 0 1-3.444-3.334l.193.209-19.3 7.877-1.48-1.869 19.231-7.683.2.216a57 57 0 0 1-3.151-3.809l-19.459 7.26-1.488-1.88 19.668-7.172a32 32 0 0 1-1.826-3l.077.159-19.523 4.387-2.418.544-1.572-1.986 6.512-1.341 16.161-3.327-1.874-4.455-.305-.724-.136.03-11.556 2.6-12.324 2.77-.221-.278-1.363-1.722 1.337-.29 2.21-.48 21.222-4.6 1.216-.264.184-.8 5.605-24.435-3.918.351-26.879 2.413.076 5.893-25.422 7.489-1.046.308-5.543 25.681c-.736 1.941-.788 8.475-.361 14.147 3.108 7.59 15.962 11 30.626 10.911 9.721-.057 20.108 9.6 28.066 10.264a69.1 69.1 0 0 0 26.23-3.353c.411-7.825 9.862-11.387 12.483-9.116a16.75 16.75 0 0 0-4.688-5.511"/><path fill="#8a9097" d="M351.033 819.4c-2.62-2.27-12.071 1.292-12.482 9.117a69.1 69.1 0 0 1-26.231 3.353c-7.957-.662-18.344-10.321-28.065-10.264-14.664.086-27.518-3.322-30.627-10.911l-.022-.05c-2.979 1.776-.039 11.047 1.828 13.435a10.5 10.5 0 0 0 4.144 2.685l3.734 1.259c.745.2 1.491.384 2.217.54l3.783.568a17 17 0 0 0 2.278-.014l3.7-.475a39.3 39.3 0 0 1 6.036-.467c6.948 0 10.08 3.565 14.94 6.723l2.828 1.638a26 26 0 0 0 1.682.784l3.581 1.217c.6.159 1.222.308 1.88.438l4.114.551.089.008q.959.072 1.925.121l4.048.119h1.458l4.058-.106q.733-.034 1.461-.078l3.648-.279q1.048-.1 2.073-.213l3.64-.467q.762-.111 1.5-.23l3.932-.719c6.123-1.257 10.629-2.884 11.92-4.316 3.55-3.939 3.552-11.693.933-13.966zm92.084-12.847c-2.621-2.271-12.072 1.291-12.483 9.116a69.1 69.1 0 0 1-26.23 3.353c-7.958-.662-18.345-10.321-28.066-10.264-14.664.087-27.518-3.321-30.626-10.911l-.023-.05c-2.979 1.776-.039 11.048 1.828 13.435a10.5 10.5 0 0 0 4.145 2.685l3.733 1.259c.745.2 1.491.384 2.217.54l3.783.568a17 17 0 0 0 2.278-.014l3.695-.475a39.3 39.3 0 0 1 6.036-.467c6.949 0 10.08 3.566 14.941 6.723l2.827 1.638q.801.41 1.683.784l3.581 1.217c.6.159 1.222.308 1.879.438l4.114.551c.03 0 .059.006.089.009q.96.07 1.925.12l4.048.119q.729.006 1.458 0l4.058-.105q.734-.035 1.461-.079l3.649-.279q1.047-.1 2.072-.213l3.64-.467q.762-.111 1.5-.23l3.932-.719c6.123-1.257 10.63-2.884 11.921-4.316 3.553-3.94 3.554-11.694.935-13.966"/><path fill="#007bc0" d="m1004.028 212.267.001-.001 7.273-6.756-7.273 6.756zm102.854 155.078-12.553-38.573c-14.566-82.284-9.113-146.719-9.1-146.839l11.367 3.577-15.22-4.832-3.494 46.847-53 11.964-8.442-38.749-4.285 3.981 28.939 134.054.746 9.743h46.425v40.316zm-77.662-237.429a64 64 0 0 0 12.028-1.867q2.6-.656 5.322-1.565a84 84 0 0 0 8.36-3.326q2.8-1.285 5.737-2.86c.132-.072.261-.135.394-.207-1.079-20.481-17.672-36.257-37.062-35.236-19.255 1.014-34.019 18.211-33.169 38.506.006.143 0 .284.012.427l.142.034.106-.105c5.924-2.037 15.518-.132 26.844 2.965 3.608.987 7.389 2.093 11.286 3.234M525.8 283.108l-19.786 22.372-8.989-8.069-28.9-25.944 18.554-39.923L472 228.537l10.951 2.273c-.046.1-25.04 55.31-74.568 115.97l-48.468 44.851-6.969 6.449-13.6 12.589 48.464 20.82 1.021.439 19.954 5.493 2.515-3.788 7.184-10.823 28.883-43.51 46.533-52.831 35.065-39.809 3.353-3.807 3.2 9.89-4.884-15.105zm47.594-107.221c-15.576-9.812-36.6-4.428-46.967 12.024a93 93 0 0 0 4.7 6.772q2 2.628 4.03 4.883a68 68 0 0 0 4.432 4.51 60.5 60.5 0 0 0 8.649 6.689c4.6 1.053 9.031 2.068 13.134 3.125.133.035.269.068.4.1 9.565 2.486 17.264 5.225 20.89 9.276l.04.136.133.038c10.365-16.45 6.135-37.74-9.441-47.553M310.549 781.891l.384-2.238v-.002l-1.216.264-23.431 5.083-1.337.291 1.363 1.722.22.278 23.88-5.367zm2.942 6.744-.763-1.564-16.161 3.327-6.512 1.341 1.572 1.985 2.418-.543 19.523-4.388zm3.232 4.741-1.376-1.756-.031.012-19.668 7.172 1.489 1.88 19.458-7.26zm4.177 5.105q-.585-.615-1.155-1.248l-.2-.216-19.23 7.683 1.48 1.869 19.3-7.877zm3.449 3.335-19.718 8.335 1.267 1.6 20.097-8.536.069-.029-1.659-1.393zm78.146-32.747.136-.03.384-2.239.001-.002-1.216.264-21.222 4.604-2.21.48-1.337.29 1.363 1.722.221.278 12.324-2.77zm3.078 6.713-.763-1.564-16.161 3.327-6.512 1.341 1.572 1.986 2.418-.544 19.523-4.387zm3.232 4.741-1.376-1.756-.03.012-19.668 7.172 1.488 1.88 19.459-7.26zm4.182 5.107q-.588-.615-1.158-1.25l-.2-.216-19.229 7.683 1.48 1.869 19.3-7.877zm3.444 3.334-19.718 8.334 1.267 1.601 20.097-8.537.069-.029-1.659-1.393z"/><path fill="#4e5256" d="M645.678 807.831h-20.742a12.77 12.77 0 0 1 10.371 5.755 18.25 18.25 0 0 1 0 20.415 12.76 12.76 0 0 1-10.371 5.755h20.742a12.79 12.79 0 0 0 10.452-5.873 18.26 18.26 0 0 0 0-20.179 12.79 12.79 0 0 0-10.452-5.873m-21.418.04c.226-.013.448-.04.676-.04h-.676zm0 31.885h.676c-.228 0-.45-.027-.676-.04zm505.023-403.575 27.143-6.128-8.017-35.434-.001.01-1.357-5.996-7.816 6.57-18.285 15.37zm-22.401-68.836 8.818-10.177 19.211-22.174-6.967-30.787c-7.525-17.2-16.1-37.936-22.791-57.355a75.1 75.1 0 0 1-3.42-22.531c-.026-8.195 1.307-16.737 5.131-23.356a23.3 23.3 0 0 1 6.862-7.625c.144-.006.285-.006.428-.01a30 30 0 0 1 6.98.6l.122.022c.1.021.2.033.3.055a1 1 0 0 0-.189-.1l-24.772-8.392-11.367-3.577c-.009.12-5.462 64.555 9.1 146.839zm-94.638-18.83h29.6l-.746-9.743-28.939-134.054-8.126 7.548c-11.264 10.805-16.2 24.71-13.876 39.844a47.5 47.5 0 0 0 1.643 7.09l1.153 5.033 18.413 80.424zm-56.929 63.379h-1.408v21.249h4.111v-21.249zm151.679 393.623c.46-6.115.4-13.161-.389-15.253l-3.314-15.349-2.664-12.343-28.537-8.406.083-6.354-25.454-2.285-7.752-.7 6.242 27.212 1.311.284 2.108.457 18.751 4.069 4.4.955 1.442.313-1.469 1.857-.238.3-15.24-3.424-7.483-1.682-3.024-.68-.147-.033-2.349 5.584 17.424 3.588 7.021 1.446-1.695 2.14-2.607-.585-21.05-4.731.083-.17a35 35 0 0 1-1.967 3.23l21.205 7.733-1.6 2.027-20.98-7.828a60 60 0 0 1-3.4 4.106l.215-.232 20.735 8.284-1.6 2.015-20.812-8.493.21-.226a63 63 0 0 1-3.716 3.6l21.26 8.986-1.366 1.726-21.668-9.2a31 31 0 0 1-3.982 2.785c-5.814 3.313-12.545 4.714-17.96 8.73a18.05 18.05 0 0 0-5.054 5.94c2.826-2.448 13.016 1.393 13.459 9.83a74.5 74.5 0 0 0 28.281 3.614c8.579-.713 19.778-11.127 30.259-11.066 15.818.086 29.677-3.588 33.028-11.771m101.706-2.966-5.978-27.692-1.386-.409-27.15-8 .082-6.354-29.591-2.656-3.615-.324 6.243 27.211 1.311.285 25.263 5.481 1.442.313-1.47 1.856-.237.3-25.748-5.786-.147-.033-2.349 5.584 17.425 3.588 7.021 1.445-1.695 2.141-2.607-.586-21.05-4.731.083-.17a35 35 0 0 1-1.968 3.23l21.206 7.734-1.605 2.027-20.98-7.828a60 60 0 0 1-3.4 4.105l.214-.231 20.735 8.283-1.6 2.016-20.811-8.494.212-.228a62 62 0 0 1-3.718 3.6l21.26 8.985-1.366 1.726-21.669-9.2a31 31 0 0 1-3.982 2.785c-5.814 3.314-12.545 4.715-17.959 8.73a18.1 18.1 0 0 0-5.054 5.94c2.826-2.447 13.015 1.393 13.459 9.83a74.5 74.5 0 0 0 28.281 3.615c8.579-.714 19.778-11.128 30.259-11.066 15.811.093 29.67-3.582 33.021-11.765.469-6.12.413-13.166-.382-15.257"/><path fill="#7d8389" d="M1105.048 819.949c2.012-2.575 5.182-12.571 1.97-14.486l-.024.054c-3.351 8.182-17.21 11.857-33.021 11.764-10.481-.061-21.68 10.353-30.259 11.066a74.5 74.5 0 0 1-28.281-3.614c-.443-8.437-10.633-12.278-13.459-9.83-2.823 2.45-2.821 10.811 1.006 15.057 1.392 1.545 6.251 3.3 12.852 4.654l4.239.775q.8.129 1.622.248l3.925.5q1.106.125 2.234.23l3.934.3q.784.046 1.575.085l4.376.113q.786.006 1.571 0l4.365-.128a89 89 0 0 0 2.075-.13c.034 0 .064-.006.1-.009l4.435-.595c.71-.139 1.379-.3 2.027-.471l3.861-1.312a28 28 0 0 0 1.814-.846l3.048-1.766c5.241-3.4 8.617-7.247 16.109-7.248a42 42 0 0 1 6.508.5l3.984.512a18 18 0 0 0 2.456.015l4.079-.612a44 44 0 0 0 2.39-.583l4.025-1.357a11.3 11.3 0 0 0 4.464-2.886m104.067-2.199q-.012.027-.024.053c-3.351 8.183-17.21 11.858-33.021 11.765-10.481-.062-21.68 10.352-30.259 11.066a74.5 74.5 0 0 1-28.281-3.615c-.444-8.437-10.633-12.277-13.459-9.83-2.823 2.451-2.822 10.811 1.006 15.058 1.392 1.544 6.25 3.3 12.852 4.653l4.239.775q.8.129 1.622.249l3.925.5q1.106.123 2.235.229l3.933.3q.784.048 1.575.085l4.375.114q.786.006 1.573 0l4.364-.128a94 94 0 0 0 2.075-.13l.1-.01 4.435-.594c.709-.139 1.379-.3 2.027-.471l3.86-1.313a28 28 0 0 0 1.814-.845l3.049-1.767c5.241-3.4 8.616-7.246 16.109-7.248a42.5 42.5 0 0 1 6.507.5l3.984.513a19 19 0 0 0 2.456.015l4.08-.613a43 43 0 0 0 2.389-.582l4.026-1.357a11.3 11.3 0 0 0 4.468-2.895c2.008-2.567 5.178-12.562 1.966-14.477"/><path fill="#0096e8" d="M1069.577 450.863s-21.143 6.26-27.758 6.666a16.76 16.76 0 0 1-8.369-2.074c-.206-.1-.414-.2-.617-.312-.1-.054-.2-.114-.293-.17-4.922-2.792-9.244-7.538-10.237-12.672l7.021-4.219 3.616-2.174 14.911-8.961.781-.47 4.549-3.2-5.673-.814-10.293-1.479 1.23-7.264 8.275-1.539 18.1-3.365 12.113-2.253 1.616-1.886a328 328 0 0 1-2.182-2.026l-.042-.039 6.418-7.408 2.821-3.255h-70.56V512.6h73.26v-86.382c-3.691 5.977-9.5 15.491-14.754 21.145a22.7 22.7 0 0 1-3.933 3.5m-531.999 50.128-19.569 3.632 1.306 4.459s-3.9 20.366.818 39.082c.651 2.584 5.489 8.693 9.526 13.465a17.83 17.83 0 0 0 13.848 6.318l8.03-.108-8.865-31.388 12.68 10.944 3.925-5.759-21.238-35.2zm-11.851-245.923s.018.076.046.207a802 802 0 0 0 3.906-5.744 34.2 34.2 0 0 1-7.973-8.272 55.8 55.8 0 0 0 2.351 15.269 8.7 8.7 0 0 0 1.67-1.46M186.7 359.844c-2.124 6.844 2.325 18.148 9.695 21.533l20.625-20.819-17.86-24.93s-10.587 18.177-12.46 24.216m880.679 417.008-18.751-4.069-2.108-.457-1.311-.284v.001l.415 2.414.147.033 3.024.68 7.483 1.682 15.24 3.424.238-.299 1.469-1.857-1.442-.313zm-24.104 3.189-.824 1.688-.083.17 21.05 4.731 2.607.585 1.695-2.14-7.021-1.446zm-2.825 4.906-1.483 1.893.138.051 20.98 7.828 1.604-2.027-21.205-7.733zm-4.742 6.053q-.615.684-1.248 1.348l-.21.226 20.812 8.493 1.6-2.015-20.735-8.284zm-5.023 4.915-1.789 1.501.074.032 21.668 9.204 1.366-1.726-21.26-8.986zm143.195-5.821-25.263-5.481-1.311-.285v.001l.414 2.415.147.033 25.748 5.786.237-.3 1.47-1.856zm-28.509 2.234-.823 1.687-.083.17 21.05 4.731 2.607.586 1.695-2.141-7.021-1.445zm-2.824 4.905-1.484 1.893.138.052 20.98 7.828 1.605-2.027-21.206-7.734zm-4.742 6.05q-.615.684-1.246 1.346l-.212.228 20.811 8.494 1.6-2.016-20.735-8.283zm-5.023 4.918-1.789 1.502.073.031 21.669 9.204 1.366-1.726-21.26-8.985z"/></svg>