<svg xmlns="http://www.w3.org/2000/svg" viewBox="0 0 250 365"><path fill="#dfe2e4" d="M0 40.72h250l-11.772 312.478H11.772z"/><path fill="#c1c7cc" d="M0 25.858h250V40.72H0z"/><path fill="#71767c" d="M19.859 0h210.282C241.101 0 250 8.899 250 19.859v5.999H0v-5.999C0 8.899 8.899 0 19.859 0m-8.087 353.198h23.544v.03c0 6.497-5.275 11.772-11.772 11.772s-11.772-5.275-11.772-11.772zm202.911 0h23.544v.03c0 6.497-5.275 11.772-11.772 11.772s-11.772-5.275-11.772-11.772z"/><ellipse cx="125" cy="12.929" fill="#383b3e" rx="32.564" ry="5.535"/><ellipse cx="64.499" cy="12.929" fill="#383b3e" rx="11.401" ry="1.938"/><ellipse cx="32.234" cy="12.929" fill="#383b3e" rx="11.401" ry="1.938"/><ellipse cx="217.766" cy="12.929" fill="#383b3e" rx="11.401" ry="1.938"/><ellipse cx="185.501" cy="12.929" fill="#383b3e" rx="11.401" ry="1.938"/><path fill="#a2aab1" d="M102.467 74.173h45.065v12.304h-45.065z"/></svg>