<svg xmlns="http://www.w3.org/2000/svg" viewBox="0 0 713 400"><path fill="#2e3033" fill-rule="evenodd" d="M235.358 167.015c-52.195-54.413-138.925-56.218-193.339-4.023s-56.217 138.926-4.023 193.34c52.195 54.413 138.927 56.217 193.34 4.023 54.413-52.196 56.218-138.927 4.022-193.34M213.95 342.23c-44.42 42.611-115.223 41.137-157.832-3.283-42.61-44.419-41.137-115.222 3.284-157.831 44.42-42.61 115.223-41.137 157.832 3.284 42.61 44.418 41.137 115.221-3.284 157.83"/><path fill="#383b3e" fill-rule="evenodd" d="m511.647 23.782-23.517-2.057a2.47 2.47 0 0 0-1.592.417l-.319-.79 21.885-4.429c3.487-.865 3.072-5.122 2.207-8.607-.864-3.488-3.34-8.983-6.827-8.118l-27.705 9.955c-3.139.779-5.183 3.744-4.928 6.872.018.529.092 1.064.246 1.594l7.053 28.925c1.002 3.45 5.238 2.868 8.688 1.866 3.449-1.001 8.842-3.693 7.841-7.141l-2.06-5.094 17.721 1.55a2.493 2.493 0 0 0 2.701-2.267l.873-9.975a2.493 2.493 0 0 0-2.267-2.701"/><g fill-rule="evenodd"><path fill="#2e3033" d="M674.682 167.014c-52.195-54.413-138.927-56.216-193.34-4.021s-56.218 138.925-4.022 193.338c52.195 54.413 138.925 56.218 193.339 4.023 54.413-52.194 56.217-138.927 4.023-193.34M495.443 338.948c-42.61-44.42-41.137-115.224 3.284-157.833s115.223-41.136 157.832 3.284c42.61 44.42 41.135 115.223-3.284 157.832-44.42 42.61-115.223 41.137-157.832-3.283"/><path fill="#979ea4" d="M576.206 287.222c-14.11.114-25.64-11.233-25.754-25.344-.113-14.11 11.233-25.64 25.345-25.754 14.109-.113 25.639 11.234 25.753 25.345.113 14.109-11.234 25.64-25.344 25.753m-.458-57.126c-17.44.14-31.464 14.392-31.324 31.83.14 17.44 14.39 31.463 31.83 31.323 17.44-.139 31.462-14.39 31.322-31.829-.14-17.44-14.39-31.462-31.828-31.324"/><path fill="#595e62" d="M588.652 261.572c-.056-6.988-5.766-12.605-12.752-12.55-6.988.057-12.605 5.766-12.55 12.753.056 6.987 5.766 12.605 12.752 12.55 6.988-.057 12.605-5.766 12.55-12.753"/></g><circle cx="505.304" cy="8.745" r="8.745" fill="#e0e2e5" transform="rotate(-13.283 505.286 8.748)"/><path fill="#383b3e" d="M296.831 13.463s-29.157 3.034-51.813 1.709-51.261-7.734-51.261-7.734a2.51 2.51 0 0 0-2.653 2.36l-.168 2.868a2.51 2.51 0 0 0 1.605 2.49l31.474 12.11 26.169 79.197 11.969-3.794-23.188-70.041.055-.002c21.656-8.792 57.989-11.435 57.989-11.435a2.51 2.51 0 0 0 2.021-2.317l.161-2.759a2.51 2.51 0 0 0-2.36-2.653Z"/><path fill="#595e62" fill-rule="evenodd" d="M168.253 262.419c-.14-17.438-14.392-31.462-31.83-31.322-17.44.14-31.462 14.39-31.322 31.83.138 17.438 14.39 31.462 31.83 31.322 17.438-.14 31.461-14.39 31.322-31.83"/><path fill="#00a4fd" fill-rule="evenodd" d="m580.638 255.461-52.717-119.744-29.746-85.313s-1.95-8.803-3.66-8.298c-1.711.504-16.447 5.357-16.447 5.357s-.622 3.841-2.574 4.836-5.495 1.76-5.495 1.76l-207.835 46.73-13.685 4.028s3.409 10.682 8.187 25.676l-24.629 24.791-77.166 76.738c-13.583 13.507-26.971 26.817-28.892 28.738-.354.354-.41.805.042 1.497.248.38 7.672 10.807 9.635 13.585.652.922 1.171 1.046 1.587 1.113 2.336.38 13.291 2.168 25.107 4.096l103.159 16.825 16.161 2.958c5.872 9.799 16.592 16.36 28.846 16.36 8.76 0 16.734-3.354 22.717-8.844l.007-.004.008-.011a33.7 33.7 0 0 0 6.455-8.094l.028-.036s6.406-11.002 12.555-29.514c4.215-12.689 23.091-33.055 23.091-33.055L477.58 119.232s9.288-10.545 12.442-10.589c3.572-.05 4.779 2.815 4.779 2.815l11.25 24.182 62.716 125.793s3.603 6.462 9.985 3.022c5.2-3.02 1.886-8.995 1.886-8.995Zm-302.864 20.531-109.395-7.883-26.749-2.005a1 1 0 0 1-.746-.421l-1.854-2.614c-.284-.4-.238-.946.108-1.293l20.606-20.66 100.169-100.431c11.096 34.831 26.331 82.727 26.759 84.483 2.735 7.309 3.186 23.77 3.219 31.889-5.986 4.661-10.351 11.3-12.117 18.936ZM480.578 75.361l-23.039 26.573-102.203 118.404s-12.751 12.249-14.77 13.407c-6.727 3.862-12.266 5.269-18.857 6.066-4.195.507-13.222 1.667-13.86-.282l-10.545-32.244-24.774-76.048-.422-1.63 1.576-2.093s25.209-22.692 28.668-23.663 90.313-20.714 90.313-20.714l86.008-16.291s3.933-.946 4.547 2.045-2.642 6.47-2.642 6.47"/><path fill="#007bc0" fill-rule="evenodd" d="M371.615 217.018s76.404-89.684 79.827-93.719 4.255-7.032 3.811-10.64-1.253-4.019-2.378-5.321l-93.68 108.53c.161.147 4.484 4.325 7.178 4.368 2.754.104 5.242-3.218 5.242-3.218"/><circle cx="310.515" cy="283.583" r="33.61" fill="#007bc0" transform="rotate(-9.217 310.533 283.6)"/><path fill="#656a6f" d="M344.705 340.973h-11.743l-17.344-59.681c-.996-3.427-4.573-5.386-7.95-4.353l-1.596.488c-3.377 1.032-5.247 4.657-4.157 8.055l17.811 55.491h-9.393c-.957 0-1.732.775-1.732 1.732v6.388c0 .957.775 1.732 1.732 1.732h34.373c.957 0 1.732-.775 1.732-1.732v-6.388c0-.957-.775-1.732-1.732-1.732Z"/></svg>