<svg xmlns="http://www.w3.org/2000/svg" viewBox="0 0 320 180"><path fill="#eff1f2" d="M92 18H6v58.6h86z"/><path fill="#e0e2e5" d="M87.9 24.8c.5 0 .9-.4.9-.9s-.4-.9-.9-.9-.8.4-.8.9.4.9.8.9m-5.5 0c.5 0 .8-.4.8-.9s-.4-.9-.8-.9-.8.4-.8.9.4.9.8.9m-5.6 0c.5 0 .8-.4.8-.9s-.4-.9-.8-.9-.8.4-.8.9.4.9.8.9m-5.6 0c.5 0 .8-.4.8-.9s-.4-.9-.8-.9-.8.4-.8.9.4.9.8.9m-5.5 0c.5 0 .9-.4.9-.9s-.4-.9-.9-.9-.8.4-.8.9.4.9.8.9m-5.6 0c.5 0 .9-.4.9-.9s-.4-.9-.9-.9-.8.4-.8.9.4.9.8.9m-5.5 0c.5 0 .8-.4.8-.9s-.4-.9-.8-.9-.9.4-.9.9.4.9.9.9m-5.6 0c.5 0 .8-.4.8-.9s-.4-.9-.8-.9-.9.4-.9.9.4.9.9.9m-5.6 0c.5 0 .8-.4.8-.9s-.4-.9-.8-.9-.8.4-.8.9.4.9.8.9m-5.5 0c.5 0 .9-.4.9-.9s-.4-.9-.9-.9-.8.4-.8.9.4.9.8.9m-5.6 0c.5 0 .8-.4.8-.9s-.4-.9-.8-.9-.9.4-.9.9.4.9.9.9m-5.6 0c.5 0 .8-.4.8-.9s-.4-.9-.8-.9-.9.4-.9.9.4.9.9.9m-5.5 0c.5 0 .9-.4.9-.9s-.4-.9-.9-.9-.9.4-.9.9.4.9.9.9m-5.6 0c.5 0 .8-.4.8-.9s-.4-.9-.8-.9-.8.4-.8.9.4.9.8.9m-5.5 0c.5 0 .8-.4.8-.9s-.4-.9-.8-.9-.9.4-.9.9.4.9.9.9m77.8 5.8c.5 0 .9-.4.9-.9s-.4-.9-.9-.9-.8.4-.8.9.4.9.8.9m-5.5 0c.5 0 .8-.4.8-.9s-.4-.9-.8-.9-.8.4-.8.9.4.9.8.9m-5.6 0c.5 0 .8-.4.8-.9s-.4-.9-.8-.9-.8.4-.8.9.4.9.8.9m-5.6 0c.5 0 .8-.4.8-.9s-.4-.9-.8-.9-.8.4-.8.9.4.9.8.9m-5.5 0c.5 0 .9-.4.9-.9s-.4-.9-.9-.9-.8.4-.8.9.4.9.8.9m-5.6 0c.5 0 .9-.4.9-.9s-.4-.9-.9-.9-.8.4-.8.9.4.9.8.9m-5.5 0c.5 0 .8-.4.8-.9s-.4-.9-.8-.9-.9.4-.9.9.4.9.9.9m-5.6 0c.5 0 .8-.4.8-.9s-.4-.9-.8-.9-.9.4-.9.9.4.9.9.9m-5.6 0c.5 0 .8-.4.8-.9s-.4-.9-.8-.9-.8.4-.8.9.4.9.8.9m-5.5 0c.5 0 .9-.4.9-.9s-.4-.9-.9-.9-.8.4-.8.9.4.9.8.9m-5.6 0c.5 0 .8-.4.8-.9s-.4-.9-.8-.9-.9.4-.9.9.4.9.9.9m-5.6 0c.5 0 .8-.4.8-.9s-.4-.9-.8-.9-.9.4-.9.9.4.9.9.9m-5.5 0c.5 0 .9-.4.9-.9s-.4-.9-.9-.9-.9.4-.9.9.4.9.9.9m-5.6 0c.5 0 .8-.4.8-.9s-.4-.9-.8-.9-.8.4-.8.9.4.9.8.9m-5.5 0c.5 0 .8-.4.8-.9s-.4-.9-.8-.9-.9.4-.9.9.4.9.9.9m77.8 5.9c.5 0 .9-.4.9-.9s-.4-.8-.9-.8-.8.4-.8.8.4.9.8.9m-5.5 0c.5 0 .8-.4.8-.9s-.4-.8-.8-.8-.8.4-.8.8.4.9.8.9m-5.6 0c.5 0 .8-.4.8-.9s-.4-.8-.8-.8-.8.4-.8.8.4.9.8.9m-5.6 0c.5 0 .8-.4.8-.9s-.4-.8-.8-.8-.8.4-.8.8.4.9.8.9m-5.5 0c.5 0 .9-.4.9-.9s-.4-.8-.9-.8-.8.4-.8.8.4.9.8.9m-5.6 0c.5 0 .9-.4.9-.9s-.4-.8-.9-.8-.8.4-.8.8.4.9.8.9m-5.5 0c.5 0 .8-.4.8-.9s-.4-.8-.8-.8-.9.4-.9.8.4.9.9.9m-5.6 0c.5 0 .8-.4.8-.9s-.4-.8-.8-.8-.9.4-.9.8.4.9.9.9m-5.6 0c.5 0 .8-.4.8-.9s-.4-.8-.8-.8-.8.4-.8.8.4.9.8.9m-5.5 0c.5 0 .9-.4.9-.9s-.4-.8-.9-.8-.8.4-.8.8.4.9.8.9m-5.6 0c.5 0 .8-.4.8-.9s-.4-.8-.8-.8-.9.4-.9.8.4.9.9.9m-5.6 0c.5 0 .8-.4.8-.9s-.4-.8-.8-.8-.9.4-.9.8.4.9.9.9m-5.5 0c.5 0 .9-.4.9-.9s-.4-.8-.9-.8-.9.4-.9.8.4.9.9.9m-5.6 0c.5 0 .8-.4.8-.9s-.4-.8-.8-.8-.8.4-.8.8.4.9.8.9m-5.5 0c.5 0 .8-.4.8-.9s-.4-.8-.8-.8-.9.4-.9.8.4.9.9.9m77.8 5.8c.5 0 .9-.4.9-.8s-.4-.8-.9-.8-.8.4-.8.8.4.8.8.8m-5.5 0c.5 0 .8-.4.8-.8s-.4-.8-.8-.8-.8.4-.8.8.4.8.8.8m-5.6 0c.5 0 .8-.4.8-.8s-.4-.8-.8-.8-.8.4-.8.8.4.8.8.8m-5.6 0c.5 0 .8-.4.8-.8s-.4-.8-.8-.8-.8.4-.8.8.4.8.8.8m-5.5 0c.5 0 .9-.4.9-.8s-.4-.8-.9-.8-.8.4-.8.8.4.8.8.8m-5.6 0c.5 0 .9-.4.9-.8s-.4-.8-.9-.8-.8.4-.8.8.4.8.8.8m-5.5 0c.5 0 .8-.4.8-.8s-.4-.8-.8-.8-.9.4-.9.8.4.8.9.8m-5.6 0c.5 0 .8-.4.8-.8s-.4-.8-.8-.8-.9.4-.9.8.4.8.9.8m-5.6 0c.5 0 .8-.4.8-.8s-.4-.8-.8-.8-.8.4-.8.8.4.8.8.8m-5.5 0c.5 0 .9-.4.9-.8s-.4-.8-.9-.8-.8.4-.8.8.4.8.8.8m-5.6 0c.5 0 .8-.4.8-.8s-.4-.8-.8-.8-.9.4-.9.8.4.8.9.8m-5.6 0c.5 0 .8-.4.8-.8s-.4-.8-.8-.8-.9.4-.9.8.4.8.9.8m-5.5 0c.5 0 .9-.4.9-.8s-.4-.8-.9-.8-.9.4-.9.8.4.8.9.8m-5.6 0c.5 0 .8-.4.8-.8s-.4-.8-.8-.8-.8.4-.8.8.4.8.8.8m-5.5 0c.5 0 .8-.4.8-.8s-.4-.8-.8-.8-.9.4-.9.8.4.8.9.8m77.8 5.8c.5 0 .9-.4.9-.8s-.4-.9-.9-.9-.8.4-.8.9.4.8.8.8m-5.5 0c.5 0 .8-.4.8-.8s-.4-.9-.8-.9-.8.4-.8.9.4.8.8.8m-5.6 0c.5 0 .8-.4.8-.8s-.4-.9-.8-.9-.8.4-.8.9.4.8.8.8m-5.6 0c.5 0 .8-.4.8-.8s-.4-.9-.8-.9-.8.4-.8.9.4.8.8.8m-5.5 0c.5 0 .9-.4.9-.8s-.4-.9-.9-.9-.8.4-.8.9.4.8.8.8m-5.6 0c.5 0 .9-.4.9-.8s-.4-.9-.9-.9-.8.4-.8.9.4.8.8.8m-5.5 0c.5 0 .8-.4.8-.8s-.4-.9-.8-.9-.9.4-.9.9.4.8.9.8m-5.6 0c.5 0 .8-.4.8-.8s-.4-.9-.8-.9-.9.4-.9.9.4.8.9.8m-5.6 0c.5 0 .8-.4.8-.8s-.4-.9-.8-.9-.8.4-.8.9.4.8.8.8m-5.5 0c.5 0 .9-.4.9-.8s-.4-.9-.9-.9-.8.4-.8.9.4.8.8.8m-5.6 0c.5 0 .8-.4.8-.8s-.4-.9-.8-.9-.9.4-.9.9.4.8.9.8m-5.6 0c.5 0 .8-.4.8-.8s-.4-.9-.8-.9-.9.4-.9.9.4.8.9.8m-5.5 0c.5 0 .9-.4.9-.8s-.4-.9-.9-.9-.9.4-.9.9.4.8.9.8m-5.6 0c.5 0 .8-.4.8-.8s-.4-.9-.8-.9-.8.4-.8.9.4.8.8.8m-5.5 0c.5 0 .8-.4.8-.8s-.4-.9-.8-.9-.9.4-.9.9.4.8.9.8M87.9 54c.5 0 .9-.4.9-.9s-.4-.8-.9-.8-.8.4-.8.8.4.9.8.9m-5.5 0c.5 0 .8-.4.8-.9s-.4-.8-.8-.8-.8.4-.8.8.4.9.8.9m-5.6 0c.5 0 .8-.4.8-.9s-.4-.8-.8-.8-.8.4-.8.8.4.9.8.9m-5.6 0c.5 0 .8-.4.8-.9s-.4-.8-.8-.8-.8.4-.8.8.4.9.8.9m-5.5 0c.5 0 .9-.4.9-.9s-.4-.8-.9-.8-.8.4-.8.8.4.9.8.9m-5.6 0c.5 0 .9-.4.9-.9s-.4-.8-.9-.8-.8.4-.8.8.4.9.8.9m-5.5 0c.5 0 .8-.4.8-.9s-.4-.8-.8-.8-.9.4-.9.8.4.9.9.9M49 54c.5 0 .8-.4.8-.9s-.4-.8-.8-.8-.9.4-.9.8.4.9.9.9m-5.6 0c.5 0 .8-.4.8-.9s-.4-.8-.8-.8-.8.4-.8.8.4.9.8.9m-5.5 0c.5 0 .9-.4.9-.9s-.4-.8-.9-.8-.8.4-.8.8.4.9.8.9m-5.6 0c.5 0 .8-.4.8-.9s-.4-.8-.8-.8-.9.4-.9.8.4.9.9.9m-5.6 0c.5 0 .8-.4.8-.9s-.4-.8-.8-.8-.9.4-.9.8.4.9.9.9m-5.5 0c.5 0 .9-.4.9-.9s-.4-.8-.9-.8-.9.4-.9.8.4.9.9.9m-5.6 0c.5 0 .8-.4.8-.9s-.4-.8-.8-.8-.8.4-.8.8.4.9.8.9m-5.5 0c.5 0 .8-.4.8-.9s-.4-.8-.8-.8-.9.4-.9.8.4.9.9.9m77.8 5.8c.5 0 .9-.4.9-.8s-.4-.8-.9-.8-.8.4-.8.8.4.8.8.8m-5.5 0c.5 0 .8-.4.8-.8s-.4-.8-.8-.8-.8.4-.8.8.4.8.8.8m-5.6 0c.5 0 .8-.4.8-.8s-.4-.8-.8-.8-.8.4-.8.8.4.8.8.8m-5.6 0c.5 0 .8-.4.8-.8s-.4-.8-.8-.8-.8.4-.8.8.4.8.8.8m-5.5 0c.5 0 .9-.4.9-.8s-.4-.8-.9-.8-.8.4-.8.8.4.8.8.8m-5.6 0c.5 0 .9-.4.9-.8s-.4-.8-.9-.8-.8.4-.8.8.4.8.8.8m-5.5 0c.5 0 .8-.4.8-.8s-.4-.8-.8-.8-.9.4-.9.8.4.8.9.8m-5.6 0c.5 0 .8-.4.8-.8s-.4-.8-.8-.8-.9.4-.9.8.4.8.9.8m-5.6 0c.5 0 .8-.4.8-.8s-.4-.8-.8-.8-.8.4-.8.8.4.8.8.8m-5.5 0c.5 0 .9-.4.9-.8s-.4-.8-.9-.8-.8.4-.8.8.4.8.8.8m-5.6 0c.5 0 .8-.4.8-.8s-.4-.8-.8-.8-.9.4-.9.8.4.8.9.8m-5.6 0c.5 0 .8-.4.8-.8s-.4-.8-.8-.8-.9.4-.9.8.4.8.9.8m-5.5 0c.5 0 .9-.4.9-.8s-.4-.8-.9-.8-.9.4-.9.8.4.8.9.8m-5.6 0c.5 0 .8-.4.8-.8s-.4-.8-.8-.8-.8.4-.8.8.4.8.8.8m-5.5 0c.5 0 .8-.4.8-.8s-.4-.8-.8-.8-.9.4-.9.8.4.8.9.8m77.8 5.9c.5 0 .9-.4.9-.8s-.4-.8-.9-.8-.8.4-.8.8.4.8.8.8m-5.5 0c.5 0 .8-.4.8-.8s-.4-.8-.8-.8-.8.4-.8.8.4.8.8.8m-5.6 0c.5 0 .8-.4.8-.8s-.4-.8-.8-.8-.8.4-.8.8.4.8.8.8m-5.6 0c.5 0 .8-.4.8-.8s-.4-.8-.8-.8-.8.4-.8.8.4.8.8.8m-5.5 0c.5 0 .9-.4.9-.8s-.4-.8-.9-.8-.8.4-.8.8.4.8.8.8m-5.6 0c.5 0 .9-.4.9-.8s-.4-.8-.9-.8-.8.4-.8.8.4.8.8.8m-5.5 0c.5 0 .8-.4.8-.8s-.4-.8-.8-.8-.9.4-.9.8.4.8.9.8m-5.6 0c.5 0 .8-.4.8-.8s-.4-.8-.8-.8-.9.4-.9.8.4.8.9.8m-5.6 0c.5 0 .8-.4.8-.8s-.4-.8-.8-.8-.8.4-.8.8.4.8.8.8m-5.5 0c.5 0 .9-.4.9-.8s-.4-.8-.9-.8-.8.4-.8.8.4.8.8.8m-5.6 0c.5 0 .8-.4.8-.8s-.4-.8-.8-.8-.9.4-.9.8.4.8.9.8m-5.6 0c.5 0 .8-.4.8-.8s-.4-.8-.8-.8-.9.4-.9.8.4.8.9.8m-5.5 0c.5 0 .9-.4.9-.8s-.4-.8-.9-.8-.9.4-.9.8.4.8.9.8m-5.6 0c.5 0 .8-.4.8-.8s-.4-.8-.8-.8-.8.4-.8.8.4.8.8.8m-5.5 0c.5 0 .8-.4.8-.8s-.4-.8-.8-.8-.9.4-.9.8.4.8.9.8m77.8 5.8c.5 0 .9-.4.9-.8s-.4-.9-.9-.9-.8.4-.8.9.4.8.8.8m-5.5 0c.5 0 .8-.4.8-.8s-.4-.9-.8-.9-.8.4-.8.9.4.8.8.8m-5.6 0c.5 0 .8-.4.8-.8s-.4-.9-.8-.9-.8.4-.8.9.4.8.8.8m-5.6 0c.5 0 .8-.4.8-.8s-.4-.9-.8-.9-.8.4-.8.9.4.8.8.8m-5.5 0c.5 0 .9-.4.9-.8s-.4-.9-.9-.9-.8.4-.8.9.4.8.8.8m-5.6 0c.5 0 .9-.4.9-.8s-.4-.9-.9-.9-.8.4-.8.9.4.8.8.8m-5.5 0c.5 0 .8-.4.8-.8s-.4-.9-.8-.9-.9.4-.9.9.4.8.9.8m-5.6 0c.5 0 .8-.4.8-.8s-.4-.9-.8-.9-.9.4-.9.9.4.8.9.8m-5.6 0c.5 0 .8-.4.8-.8s-.4-.9-.8-.9-.8.4-.8.9.4.8.8.8m-5.5 0c.5 0 .9-.4.9-.8s-.4-.9-.9-.9-.8.4-.8.9.4.8.8.8m-5.6 0c.5 0 .8-.4.8-.8s-.4-.9-.8-.9-.9.4-.9.9.4.8.9.8m-5.6 0c.5 0 .8-.4.8-.8s-.4-.9-.8-.9-.9.4-.9.9.4.8.9.8m-5.5 0c.5 0 .9-.4.9-.8s-.4-.9-.9-.9-.9.4-.9.9.4.8.9.8m-5.6 0c.5 0 .8-.4.8-.8s-.4-.9-.8-.9-.8.4-.8.9.4.8.8.8m-5.5 0c.5 0 .8-.4.8-.8s-.4-.9-.8-.9-.9.4-.9.9.4.8.9.8"/><path fill="#d0d4d8" d="M6 80v72h4v-6h78v6h4V80z"/><path fill="#eff1f2" d="M22.2 84.5h53.7v3H22.1v-3zm0 22.9h53.7v3H22.1v-3zm0-11.4h53.7v3H22.1v-3zm0 22.8h53.7v3H22.1v-3zm0 11.5h53.7v3H22.1v-3z"/><path fill="#c1c7cc" d="M94 76.6H4V80h90zM66.1 25.7h-6.3c-.6 0-1.1.5-1.1 1.1v.9c0 .6.5 1.1 1.1 1.1h6.3c.6 0 1.1-.5 1.1-1.1v-.9c0-.6-.5-1.1-1.1-1.1"/><path fill="#c1c7cc" d="M62.9 26.3c-.5 0-.9.4-.9.9v16.6c0 .5.4.9.9.9s.9-.4.9-.9V27.2c0-.5-.4-.9-.9-.9m13.6-.2h-4.9c-.5 0-.9.4-.9.9v.9c0 .5.4.9.9.9h4.9c.5 0 .9-.4.9-.9V27c0-.5-.4-.9-.9-.9"/><path fill="#c1c7cc" d="M74 26.3c-.5 0-.9.4-.9.9v10.7c0 .5.4.9.9.9s.9-.4.9-.9V27.2c0-.5-.4-.9-.9-.9M60.4 69.6H32.6c-.5 0-1-.4-1-1s.4-1 1-1h27.8c.5 0 1 .5 1 1s-.5 1-1 1m-1.9-5.9h-24c-.5 0-1-.5-1-1s.5-1 1-1h24c.5 0 1 .5 1 1s-.5 1-1 1m-2-5.7h-20c-.5 0-1-.5-1-1s.5-1 1-1h20c.5 0 1 .5 1 1s-.5 1-1 1m12.3 7.6h-1v-11c0-1.9 1.5-3.5 3.5-3.5h2.9v1h-2.9c-1.3 0-2.5 1.1-2.5 2.5zm5.6 2.7h-1v-7.7c0-1.9 1.6-3.5 3.5-3.5h2v1h-2c-1.3 0-2.5 1.1-2.5 2.5zm6.2 3.3h-1v-5.3c0-1.9 1.5-3.5 3.5-3.5h.5v1h-.5c-1.3 0-2.5 1.1-2.5 2.5zM40.6 36c-.6 0-1-.5-1-1v-6.4c0-.5.4-1 1-1s1 .5 1 1V35c0 .5-.5 1-1 1"/><path fill="#c1c7cc" d="M41 34.1h-.8v9.2h.8zm5.1 1.9c-.6 0-1-.5-1-1v-6.4c0-.5.4-1 1-1s1 .5 1 1V35c0 .5-.5 1-1 1"/><path fill="#c1c7cc" d="M46.4 34.1h-.8v7.6h.8zm5.4 1.9c-.5 0-1-.5-1-1v-6.4c0-.5.5-1 1-1s1 .5 1 1V35c0 .5-.5 1-1 1"/><path fill="#c1c7cc" d="M52.2 34.1h-.8v5.8h.8z"/><path fill="#c1c7cc" fill-rule="evenodd" d="M17.3 59.9V40.4h-3.2c-1.1 0-2.1.3-3.2.6-2 .6-2.9-1.7-.4-2.8l5.2-2.6c3.9-2 6.2-3.1 7.8-2.5.8.3 1.2 1.5 1.1 2.2 0 .8-1 2.6-5.2 4.4v20.2h-2.3z"/><path fill="#c1c7cc" d="M312.2 63.8h-36c-1.1 0-2 .9-2 2v22c0 1.1.9 2 2 2h18.9l.3 2v.2l.4 2.6h-5.6v-.8h-25.1v2.4h38.1l-.7-4.2v-.2l-.4-1.9h10.1c1.1 0 2-.9 2-2v-22c0-1.1-.9-2-2-2z"/><path fill="#d0d4d8" d="M260 96v78h4v-8h46v8h4V96z"/><path fill="#eff1f2" d="M272 103.4h30v3h-30zm0 14.6h30v3h-30zm0 14.6h30v3h-30zm0 14.6h30v3h-30z"/><path fill="#d0d4d8" d="m117 73.1 13.6 11 5.3 2.2 6.8-.8-3.2-2 .8-1.7h-5.6l-12.1-12.4s-2.042-.583-3.771.811S116.83 72.778 117 73.1"/><path fill="#b8d6ff" d="M111.1 39.2c2.8 0 5.1 2 5.7 4.8l5.9 25.5c-1.9-.6-5.5 2-5.7 3.8-.4-.5-5-10.8-6.1-14.2-3.7-11.4-3.8-20.2-3.8-20.2l4.1.4z"/><path fill="#a4abb3" d="m106.6 167.6 11.8 4.3c-1.1 1.4-2.7 2.1-4.4 2.1H97.3l1.3-6.4zm-33.53 3.915 5.53-4.115h6.3l.5 6.7H74.2c-.6 0-1.1-.3-1.4-.8s-.2-1.1 0-1.6z"/><path fill="#00629a" d="m109.1 80.1.3 2.7-1.2 42.6-1.6 42.3h-12c.4-26.5.6-21 3.2-38.8 1.1-7.3 0-14.3-1.4-20.9 1.6-6.5 3.1-12.8 4.5-16.3 1.9-4.7 2.035-12.246 2.035-12.246z"/><path fill="#006ead" d="M74.6 167.4c0-33.6 9.5-51.2 9.4-54.3-.4-17.3-.3-25 2.8-36.5l16.6 2.7s-.4 7.7-2.3 12.4c-1.5 3.5-3.2 9.9-4.7 16.4-2.4 10-4.5 20.1-4.5 20.1l-6.7 39.2z"/><path fill="#c1c7cc" d="M107.2 30.609c.7.4 1.5.6 2.3.7 0 .6 0 1.3-.2 1.9-.922-.753-1.5-1.7-2.1-2.6"/><path fill="#007bc0" d="M102.026 19.135c.7-2.3 3.586-2.832 3.586-2.832 1-3.9 5.6-1.6 5.6-1.6s4.1-1.1 5.8.2-.2 3.6.3 4.7.477 2.496.477 2.496-.277 3.204-2.977 4.004c.5-1.2.8-2.3 1.1-3.6-1.2.2-2.3 0-3.5-.3-2.7-1-4.9-3.4-4.9-3.4s-.6 3.3-1.1 4.4v.3c-.5-1.2-1.2-2.6-2.2-1.9-1.2.9.037 3.645.537 4.645l-.237.355s-3.3-4.8-2.6-7.1z"/><path fill="#e0e2e5" d="m109 37.5-8.2-1.6 3.7-9.4s0-.1.2-.3c-.5-1-1.8-3.8-.5-4.7.9-.7 1.7.8 2.2 1.9l-.024-.331c.41-1.247 1.037-4.401 1.037-4.401S109.8 21.1 112.5 22.1c1.1.4 2.3.5 3.5.3-.3 1.2-.7 2.4-1.1 3.6-.2.4-.4.9-.6 1.4-1.4 2.8-2.3 4-2.3 4h-2.4c-.8-.1-1.5-.3-2.3-.7.6 1 1.3 1.9 2.1 2.6-.2 2.2-.3 4.2-.3 4.2z"/><path fill="#d1e4ff" d="m86.9 76.6 22.5 4.4 1.9-9.6 1.1-5 1.5-6.4 3.9-11.2c.116-.291.18-.46.2-.7.7-3.3-.4-6.7-2.9-8.9l-6-5.1-7.2-1.4-6.1 1.2.4 8.3z"/><path fill="#9dc9ff" d="m92.5 77.7-5.6-1.1 4.8-40.2v-.5l4.5 6.2z"/><path fill="#d1e4ff" fill-rule="evenodd" d="M95.8 33.9c-2.9 0-4 .2-6.9 4.8-2.3 3.8-7.4 15.3-7.4 15.3l7.839 2.563S94.7 49 96.1 43.9c.6-2.4 1.447-6.81-.253-10.01z"/><path fill="#d0d4d8" d="m107.6 62.5 4.2.3-2.5 5.3c-.9-.6-2.5-1.6-2.9-1.6-15.1-3.2-28-.6-24.9-12.5l26 8.5z"/><path fill="#c1c7cc" d="M117.6 68.803s-2.9 1.2-4.1 1.1c-1.9-.2-4.2-1.8-4.2-1.8l2.5-5.3 5.8 6.1z"/><path fill="#e0e2e5" d="M196 10h-8v164h8z"/><path fill="#2e3033" fill-rule="evenodd" d="M113.7 121.1c5.4 15.6 22.4 23.8 38 18.4s23.8-22.4 18.4-38-22.4-23.8-38-18.4-23.8 22.4-18.4 38m4.9-1.8c-4.5-12.8 2.3-26.9 15.2-31.3 12.9-4.5 26.9 2.3 31.3 15.2 4.5 12.8-2.3 26.9-15.2 31.3-12.8 4.5-26.9-2.3-31.3-15.2M201 90.8c5.4 15.6 22.4 23.8 38 18.4s23.8-22.4 18.4-38-22.4-23.8-38-18.4-23.8 22.4-18.4 38m5-1.8c-4.5-12.9 2.3-26.9 15.2-31.3 12.8-4.5 26.9 2.3 31.3 15.2 4.5 12.9-2.3 26.9-15.2 31.3-12.9 4.5-26.9-2.3-31.3-15.2m-15.4-19.3V45.4h-3.9c-1.3 0-2.7.3-3.9.7-2.5.7-3.6-2.1-.5-3.5l6.5-3.2c4.9-2.5 7.7-3.9 9.7-3.1s1.4 1.8 1.4 2.7-1.2 3.2-6.4 5.5v25.7c-.1 0-2.9-.6-2.9-.6z"/><path fill="#00a4fd" fill-rule="evenodd" d="M233.6 79.4c-.8-2.4-3.4-3.6-5.8-2.8-.6.2-1.1.5-1.6.9l-76.1-16.9.4-3.6c1-.3 1.8-1.2 1.8-2.3s-1-2.6-2.4-2.7l-6.6-.4c-.7 0-1.4.2-1.9.7-1 1-1.1 2.6-.1 3.6l-6.3-.6c-1.5 0-2.8 1-3 2.5s.9 2.9 2.5 3.1l10.5 1.2-4.9 45c-2.2.9-3.3 3.4-2.5 5.7.8 2.4 3.4 3.6 5.8 2.8s3.7-3.4 2.8-5.8c-.3-.9-.9-1.7-1.7-2.2l4.3-36.4 2.7.2c.4 0 .8.2 1.1.5l34.3 30.8c.3.3.6.4 1 .5l5.8 1c1.6.4 2.3 0 2.9 0 .8-.3 1.5-.9 1.7-1.8l.8-3.1c.1-.6.5-1.1 1.1-1.4l27.2-12.6c1 .5 2.2.5 3.4.2 2.4-.8 3.6-3.4 2.8-5.8zm-44.9 11.5-3.1 1c-.7.2-1.4 0-1.9-.4l-5.5-5-17.6-16.2c-1.6-1.4-.2-4 1.8-3.6l26.1 5.3c.9.2 1.6 1 1.6 1.9V89c0 .8-.5 1.6-1.3 1.9zm11.6 2.8-5.9-4s-.1 0-.1-.2v-1.3c0-2.9-.2-9.3-.2-12.9s1.1-2.1 2.3-1.9l28.9 5.9c-.5 1-.6 2.2-.2 3.4.1.3.2.6.4.9l-23.8 10.5c-.7.2-1.4-.4-1.4-.4"/><path fill="#2e3033" fill-rule="evenodd" d="m187.7 114.7 3.3-1.1-.2-15.8c0-.8.7-1.5 1.5-1.5s1.5.7 1.5 1.5l.2 14.8 2.9-1c.5-.2 1 0 1.2.5l.3.9c.1.5-.1 1-.6 1.1l-9.2 3.2c-.5.2-1 0-1.2-.5l-.3-.9c-.1-.5.1-1 .6-1.1z"/><path fill="#c1c7cc" fill-rule="evenodd" d="m140.8 87.3-1.2-4.8c-1.5.2-4.1.6-4.8 2.5-.4 1.1-.8 3.2-.8 3.2l6.8-.8z"/><path fill="#b2b9c0" d="M194.9 51.7H189v8.5h5.9z"/></svg>