<svg xmlns="http://www.w3.org/2000/svg" viewBox="0 0 320 180"><path fill="#e8f1ff" d="M293.044 35.51h-59.27v77.34h59.27z"/><path fill="#b8d6ff" d="M278.312 23.96h-59.27v77.34h59.27z"/><path fill="#56b0ff" d="M271.103 32.77h-25.9v3.11h25.9zm-7.69 5.709h-18.21v3.11h18.21zm7.69 16.761h-25.9v3.11h25.9zm-12.49 5.7h-13.41v3.11h13.41z"/><path fill="#7ebdff" d="M271.103 77.7h-25.9v3.11h25.9zm-4.98 5.71h-20.92v3.11h20.92z"/><path fill="#0088d4" d="M239.512 29.62h-15.11v15.11h15.11z"/><path fill="#e8f1ff" d="m237.293 35.062-6.431 6.433-4.241-4.242 1.462-1.464 2.779 2.777 4.969-4.967z"/><path fill="#0088d4" d="M239.512 52.09h-15.11V67.2h15.11z"/><path fill="#e8f1ff" d="m237.294 57.521-6.431 6.443-4.242-4.243 1.462-1.464 2.778 2.777 4.969-4.977z"/><path fill="#7ebdff" d="M239.512 74.55h-15.11v15.11h15.11z"/><path fill="#d0d4d8" d="m171.438 147.227.45-1.82.26-6.68 1.47.14 1.4 7.32-.78 3.12 1.09 6.95-2.92.45-1.47-9.4z"/><path fill="#e0e2e5" d="M171.669 148.996a2.09 2.09 0 1 0 0-4.18 2.09 2.09 0 0 0 0 4.18"/><path fill="#e0e2e5" d="M172.148 147.286v-1.87l1.35-6.56-1.45-.21-3.13 6.77v3.21l-2.73 6.48 2.73 1.15 2.55-6.08.68-1.61.46-1.09z"/><path fill="#b2b9c0" d="M162.538 166.567a1.767 1.767 0 0 1-.93-2.36l6.1-13.44 3.26 1.36-6.14 13.54c-.39.87-1.41 1.27-2.29.9m13.29 1.589c-.96.15-1.87-.5-2.02-1.46l-2.37-14.56 3.49-.56 2.36 14.55c.16.96-.5 1.87-1.46 2.03"/><path fill="#d0d4d8" d="M157.629 168.236c-.86.11-1.66-.48-1.8-1.34l-4.54-27.84 3.33-.52 4.38 27.86c.14.9-.49 1.73-1.39 1.85z"/><path fill="#a4abb3" d="m147.089 148.796 7.46-.03 7.1-2.26-.91-5.84-7.46.03-7.1 2.26z"/><path fill="#7d8389" d="M183.979 150.406h-42.52v3.13h42.52z"/><path fill="#979ea4" d="M179.789 149.206v12.39h-33.83v-12.39h-2.91v27.37h39.65v-27.37z"/><path fill="#595e62" d="m72 170.77-.47 6.18c-.04.58.41 1.08 1 1.08h19.25s.9-1.94-2.6-3.17c-3.86-1.35-8.97-4.09-8.97-4.09zm-29.15-1-1.07 6.04c-.11.59.33 1.14.93 1.17l19.11 1.05s1.06-2.02-2.38-3.42c-3.79-1.54-8.5-3.84-8.5-3.84z"/><path fill="#d0d4d8" d="m65.32 24.09 1.39-4.91 2.19-10.1 10.96-.45-2.13 12.06-4.26.81-.02 4.71z"/><path fill="#00629a" d="M66.71 19.18s-1.83-4.59-2.63-8.13c-.96-4.26 3.61-5.79 3.61-5.79s.59-2.93 3.34-3.12c4.36-.3 4.69 1.92 8.86 1.68 3.93-.23 3.51 4.7.86 5.78-2.38.97-4 0-6.25 0s-1.93 4.55-1.93 4.55l-1.04-.04s-.6-3.36-2.27-2.27c-1.52 1 .88 4.29.88 4.29l-3.44 3.04z"/><path fill="#b2b9c0" d="m71.13 20.69 2.34.81-.01 2.46z"/><path fill="#e0e2e5" d="M122.85 15.03h-8v162.674h8z"/><path fill="#b2b9c0" d="M121.79 43.03h-5.88v8h5.88z"/><path fill="#2e3033" fill-rule="evenodd" d="M178.88 72.09c-15.59-5.41-32.6 2.85-38.01 18.43s2.85 32.6 18.43 38.01c15.59 5.41 32.6-2.85 38.01-18.43s-2.85-32.6-18.43-38.01m-17.86 51.48c-12.85-4.46-19.65-18.48-15.19-31.33s18.48-19.65 31.33-15.19 19.65 18.48 15.19 31.33-18.48 19.65-31.33 15.19M91.53 41.791c-15.59-5.41-32.6 2.85-38.01 18.43-5.41 15.59 2.85 32.6 18.43 38.01 15.59 5.41 32.6-2.85 38.01-18.43 5.41-15.59-2.85-32.6-18.43-38.01m-17.86 51.48c-12.85-4.46-19.65-18.48-15.19-31.33s18.48-19.65 31.33-15.19 19.65 18.48 15.19 31.33-18.48 19.65-31.33 15.19m46.74-34.501-.1-24.29c.67.07 1.27.05 1.92.03.61-.02 1.26-.04 2.05 0 1.33.11 2.65.34 3.92.71 2.52.69 3.57-2.07.51-3.5l-6.49-3.19c-4.88-2.48-7.67-3.89-9.73-3.06-1.01.4-1.45 1.8-1.41 2.71.04.95 1.23 3.19 6.43 5.52l.12 25.72z"/><path fill="#00a4fd" fill-rule="evenodd" d="m170.87 96.11-4.9-45 10.46-1.18a2.82 2.82 0 0 0 2.48-3.11 2.814 2.814 0 0 0-2.98-2.49l-6.27.63c.97-1.04.91-2.67-.13-3.64-.51-.47-1.19-.72-1.89-.68l-6.6.37c-1.42.08-2.51 1.3-2.42 2.72.06 1.09.81 2.03 1.85 2.32l.42 3.58-76.14 16.93a4.576 4.576 0 0 0-7.37 1.91c-.83 2.39.44 4.99 2.82 5.82 1.15.4 2.35.31 3.38-.16l27.18 12.57c.56.27.96.8 1.08 1.41l.75 3.1c.21.89.96 1.47 1.73 1.79.64.27 1.32.51 2.91.15l5.77-.97c.38-.05.74-.21 1.02-.47l34.34-30.82c.32-.28.71-.45 1.14-.49l2.66-.22 4.29 36.41c-.75.53-1.34 1.29-1.67 2.22-.83 2.39.44 4.99 2.82 5.82 2.39.83 4.99-.44 5.82-2.82a4.58 4.58 0 0 0-2.54-5.71zm-54.23-17.46-5.92 4.05c-.39.27-.9.32-1.34.13L85.6 72.37c.17-.28.31-.57.42-.89.4-1.15.31-2.35-.16-3.38l28.88-5.87c1.2-.19 2.27.59 2.26 1.94-.04 3.6-.16 10.01-.21 12.92-.01.65-.02 1.13-.02 1.35 0 .09-.06.17-.12.22zm33.79-19.25-17.64 16.16-5.49 5.03c-.51.48-1.24.64-1.9.42L122.26 80a1.94 1.94 0 0 1-1.35-1.86l.07-15.09c0-.92.65-1.71 1.56-1.9l26.08-5.33c2.07-.42 3.39 2.15 1.83 3.58z"/><path fill="#2e3033" fill-rule="evenodd" d="m123.3 103.501-3.28-1.14.18-15.82c0-.84-.66-1.52-1.5-1.53-.84 0-1.52.66-1.53 1.5l-.17 14.81-2.93-1.02a.9.9 0 0 0-1.16.5l-.32.92c-.15.48.12.97.6 1.12l9.23 3.2c.47.18.99-.04 1.17-.51l.32-.92a.887.887 0 0 0-.6-1.11z"/><path fill="#007bc0" d="M107.583 32.246c-.48-.43-1.03-.72-1.61-.86l.13 3.39-2.39.11-.13-3.32a3.76 3.76 0 0 0-1.06 6.24c.41.37.88.63 1.37.79l.55 11.6c.03.73.66 1.3 1.39 1.26.73-.03 1.3-.66 1.26-1.39l-.55-11.6c.47-.21.92-.51 1.29-.91a3.76 3.76 0 0 0-.25-5.31"/><path fill="#b2b9c0" d="M76.363 48.401c2.33 10.49 11.37 3.92 24.34.41.29-.08 3.651-.441 3.651-.441l-.111-3.749 1.56-3.38-1.25.08-4.64 3.27-14.48 1.84-2.46-4.36z"/><path fill="#d0d4d8" d="m95.26 49.349 18.36 3.13 4.52-2.76 1.44.14-1.96 2.42 2.77-.72v-.5c.48.05.49.31.54.43.08.19.02 2.83 0 3.9 0 .29-.14.56-.36.74-.59.47-1.84 1.32-3.29 1.32-6.51 0-21.3.17-25.95-1.19s-9.71-6.56-9.71-6.56l6.62-5.93 7.03 5.6z"/><path fill="#7d8389" d="m52.81 78.02-3.31-.99s-.78 12.53 0 23.06.7 24.76-1.22 29.6c-4.12 10.38-7.41 24.042-7.41 39.862l10.07 1.228s13.97-56.72 13.97-66.48.56-24.76.56-24.76l-10.36-1.06c-.78-.08-1.54-.23-2.29-.46z"/><path fill="#a4abb3" d="M75.18 76.67s5.8 40.81 5.8 49.46-.78 44.64-.78 44.64H69.27s-4.09-24.34-.96-39.95c2.03-10.13-8.34-28.42-10.11-32.96s-5.6-12.34-5.39-22.19z"/><path fill="#d1e4ff" d="m88.74 43.77-9.92-14.86a7.74 7.74 0 0 0-4.66-3.24l-8.69-2.08s-7.28 4.32-10.63 18.72-7.11 34.41-7.11 34.41c2.86 1.51 13.32 3.99 28.37 1.63 0 0 .02-23.16 2.56-28.71l1.55 1.6 8.54-7.48"/><path fill="#9dc9ff" d="M77.57 53.76c.3-1.74.65-3.18 1.08-4.11l-6.93-9.48z"/></svg>