<svg xmlns="http://www.w3.org/2000/svg" viewBox="0 0 320 180"><path fill="#eff1f2" d="M249.42 26.55h-4.39V59.1h4.39zm-176.32 0h-4.39v32h4.39z"/><g fill-rule="evenodd"><path fill="#2e3033" d="M237.79 69.05c-3.24-16.29-19.07-26.87-35.37-23.63-16.29 3.24-26.87 19.07-23.63 35.37 3.24 16.29 19.07 26.87 35.37 23.63 16.29-3.24 26.87-19.07 23.63-35.37m-5.18 1.04c2.67 13.43-6.05 26.48-19.48 29.15s-26.48-6.05-29.15-19.48 6.05-26.48 19.48-29.15 26.48 6.05 29.15 19.48"/><path fill="#00a4fd" d="M304.12 55.86c-.5-2.5-2.92-4.12-5.42-3.62s-4.12 2.92-3.62 5.42c.19.97.68 1.81 1.35 2.44l-9.3 35.72-2.62-.59c-.42-.09-.79-.32-1.07-.64l-30-35.49c-.25-.3-.58-.51-.95-.61l-5.62-1.77c-1.53-.58-2.24-.43-2.92-.25-.81.22-1.64.69-1.97 1.55l-1.18 2.99c-.2.59-.67 1.07-1.27 1.26l-28.85 8.79a4.603 4.603 0 0 0-6.97 4.8c.5 2.5 2.92 4.12 5.42 3.62a4.5 4.5 0 0 0 1.67-.69l73.61 27.4-.91 3.51c-1.09.15-1.96.99-2.17 2.06-.28 1.41.64 2.77 2.04 3.05l6.54 1.28c.69.13 1.4-.02 1.98-.42 1.17-.82 1.45-2.44.63-3.61l6.17 1.49c1.49.3 2.94-.61 3.31-2.08.39-1.52-.53-3.05-2.04-3.44l-10.27-2.62 11.11-44.2a4.6 4.6 0 0 0 3.32-5.34zm-59.74 15.5c-.03.22-.08.7-.16 1.35-.35 2.9-1.12 9.32-1.57 12.91-.17 1.36-1.35 1.98-2.52 1.63l-27.99-9.85c.61-.96.86-2.15.62-3.35-.07-.33-.17-.65-.3-.95l25.16-7.15c.47-.13.97 0 1.32.31l5.34 4.85c.06.05.1.15.09.23zm28.64 26.96-25.28-8.91a1.97 1.97 0 0 1-1.3-2.11l2.02-15.06c.11-.84.76-1.52 1.61-1.67l3.28-.58c.69-.13 1.4.13 1.84.68l4.78 5.78L275.34 95c1.36 1.64-.31 4.03-2.32 3.32"/><path fill="#2e3033" d="m254.4 47.08-3.43.68-2.01 15.8c-.11.84-.87 1.43-1.71 1.32s-1.43-.87-1.32-1.71l1.88-14.79-3.07.61a.913.913 0 0 1-1.09-.66l-.19-.96c-.08-.5.26-.96.75-1.04l9.65-1.92c.49-.12.98.18 1.09.67l.19.96c.07.49-.26.96-.76 1.03z"/></g><path fill="#e0e2e5" fill-rule="evenodd" d="M127.44 55.87v-.01c-.5-2.5-2.92-4.12-5.42-3.62s-4.12 2.92-3.62 5.42c.19.97.68 1.81 1.35 2.44l-9.3 35.72-2.62-.59c-.42-.09-.79-.32-1.07-.64l-30-35.49c-.25-.3-.58-.51-.95-.61l-2.774-.874 1.254-9.856 3.43-.68-.02-.01c.5-.07.83-.54.76-1.03l-.19-.96a.894.894 0 0 0-1.09-.67l-9.65 1.92c-.49.08-.83.54-.75 1.04l.19.96c.12.48.61.77 1.09.66l3.07-.61-1.055 8.3c-1.447-.527-2.143-.386-2.805-.21-.81.22-1.64.69-1.97 1.55l-1.18 2.99c-.2.59-.67 1.07-1.27 1.26l-3.48 1.06c-5.392-12.956-19.329-20.753-33.63-17.91C9.45 48.66-1.13 64.5 2.11 80.79s19.07 26.87 35.37 23.63c9.642-1.918 17.282-8.247 21.241-16.473l49.009 18.243-.91 3.51c-1.09.15-1.96.99-2.17 2.06-.28 1.41.64 2.77 2.04 3.05l6.54 1.28c.69.13 1.4-.02 1.98-.42 1.17-.82 1.45-2.44.63-3.61l6.17 1.49c1.49.3 2.94-.61 3.31-2.08.39-1.52-.53-3.05-2.04-3.44l-10.27-2.62 11.11-44.2a4.6 4.6 0 0 0 3.32-5.34M36.45 99.24C23.02 101.91 9.97 93.19 7.3 79.76s6.05-26.48 19.48-29.15c11.599-2.306 22.909 3.888 27.499 14.271L34 71.059a4.603 4.603 0 0 0-6.97 4.8c.5 2.5 2.92 4.12 5.42 3.62a4.5 4.5 0 0 0 1.67-.69l19.622 7.304c-3.32 6.568-9.513 11.6-17.292 13.147m19.48-29.15c.973 4.897.427 9.74-1.304 14.051L35.47 77.4c.61-.96.86-2.15.62-3.35-.07-.33-.17-.65-.3-.95l19.497-5.541q.384 1.235.643 2.531m11.62 2.62c-.35 2.9-1.12 9.32-1.57 12.91-.17 1.36-1.35 1.98-2.52 1.63l-3.851-1.355a29.95 29.95 0 0 0 1.501-16.844 31 31 0 0 0-.738-2.936l.578-.164c.47-.13.97 0 1.32.31l5.34 4.85c.06.05.1.15.09.23l.01.02c-.03.22-.08.7-.16 1.35Zm28.79 25.61-25.28-8.91a1.97 1.97 0 0 1-1.3-2.11l2.02-15.06c.11-.84.76-1.52 1.61-1.67l3.28-.58c.69-.13 1.4.13 1.84.68l4.78 5.78L98.66 95c1.36 1.64-.31 4.03-2.32 3.32"/><path fill="#e0e2e5" d="M320 4.79H0v21.78h104.28v142.64h63.79V26.57H320z"/><path fill="#c1c7cc" d="M155.6 41.17h-38.86v25.62h38.86z"/><path fill="#eff1f2" d="M153.16 42.78h-33.98v22.4h33.98z"/><path fill="#fff" d="M153.16 42.78h-33.98v3.47h33.98z"/><path fill="#ed0007" fill-rule="evenodd" d="M123.04 44.491s.14-.05.14-.2c0-.18-.13-.27-.31-.27h-.46v.99h.5c.16 0 .31-.11.31-.27 0-.2-.18-.24-.18-.24zm-.39-.261h.18c.06 0 .09.04.09.09 0 .04-.03.09-.1.09h-.18v-.18zm.18.57h-.18v-.19h.18c.09 0 .13.04.13.1 0 .07-.05.1-.13.1zm.92-.8c-.29 0-.45.23-.45.52s.17.52.45.52.45-.23.45-.52-.17-.52-.45-.52m0 .79c-.14 0-.21-.13-.21-.28s.07-.28.21-.28.21.13.21.28c0 .16-.07.28-.21.28m.98-.38h-.03c-.08-.02-.15-.05-.15-.11 0-.07.06-.09.12-.09.08 0 .16.04.2.09l.15-.15a.46.46 0 0 0-.36-.16c-.21 0-.37.12-.37.31 0 .18.13.26.28.3h.03c.13.03.18.05.18.12s-.05.1-.13.1a.3.3 0 0 1-.25-.13l-.16.16c.09.1.2.18.41.18.18 0 .38-.11.38-.32 0-.22-.17-.27-.31-.3zm.86.38c-.11 0-.22-.09-.22-.29 0-.18.11-.27.22-.27.09 0 .14.04.18.11l.2-.13a.42.42 0 0 0-.38-.21c-.3 0-.46.23-.46.51 0 .29.18.52.46.52.2 0 .29-.07.39-.21l-.2-.13c-.04.07-.08.11-.18.11zm1.03-.769v.36h-.3v-.36h-.26v.99h.26v-.39h.3v.39h.26v-.99z"/><path d="M120.91 43.771c-.41 0-.75.34-.75.75s.34.75.75.75.75-.34.75-.75-.34-.75-.75-.75m0 1.419a.68.68 0 1 1 .001-1.361.68.68 0 0 1-.001 1.361"/><path d="M121.22 44.051h-.05v.26h-.51v-.26h-.05c-.15.1-.25.27-.25.47s.1.37.25.47h.05v-.26h.51v.26h.05c.15-.1.25-.27.25-.47s-.1-.37-.25-.47m-.64.83a.506.506 0 0 1 0-.74zm.59-.22h-.51v-.28h.51zm.07.22v-.74c.1.09.16.22.16.36s-.06.27-.16.37z"/><path fill="#fff" d="M152.17 47.15h-32.01v17.14h32.01z"/><path fill="#0096e8" d="M127.07 56.331c.07-1.15.34-2.23.8-3.26.41-.89.93-1.66 1.57-2.31h-3.3v-1.16h4.73v1.09c-.7.73-1.25 1.63-1.64 2.72a9 9 0 0 0-.55 2.91h-1.61zm6.15-3.951q.45-.51 1.32-.51c.69 0 1.23.23 1.61.68.33.39.5.9.5 1.52 0 .77-.25 1.37-.76 1.8-.44.37-1.02.56-1.73.56-.84 0-1.49-.24-1.97-.71-.14-.14-.24-.26-.31-.38q-.105-.165-.21-.48l-.04-.1 1.36-.38c.17.58.54.88 1.1.88.36 0 .64-.12.83-.35.17-.21.25-.48.25-.82 0-.38-.11-.68-.32-.89-.18-.18-.42-.27-.73-.27-.43 0-.75.19-.96.56h-1.24l.42-3.9h3.9v1.16h-2.84l-.19 1.63zm6.18-2.85c.57 0 1.03.21 1.36.62.29.35.44.8.44 1.33 0 .64-.19 1.14-.57 1.51-.33.32-.75.48-1.27.48-.58 0-1.04-.2-1.37-.61-.29-.35-.43-.8-.43-1.35 0-.62.19-1.12.57-1.49q.495-.48 1.26-.48zm-.05.95c-.41 0-.62.33-.62 1s.21 1 .63 1c.44 0 .66-.33.66-1s-.22-1-.67-1m3.91-.88h1.08l-3.77 6.72h-1.07zm1.2 2.89c.58 0 1.03.2 1.37.61.3.35.45.79.45 1.33 0 .64-.19 1.14-.57 1.51-.33.32-.76.48-1.27.48-.58 0-1.04-.2-1.37-.61-.29-.35-.43-.8-.43-1.35 0-.63.19-1.13.57-1.49.33-.31.75-.47 1.26-.47zm-.03.96q-.63 0-.63.99c0 .99.21 1.01.63 1.01s.66-.33.66-1-.22-1-.66-1"/><path fill="#e0e2e5" d="M149.55 59.841h-26.77v1.45h26.77z"/><path fill="#0096e8" d="M142.85 59.841h-20.07v1.45h20.07z"/><path fill="#c1c7cc" d="M156.79 85.12h-41.25v2.7h41.25z"/><path fill="#595e62" d="M150.43 85.12h-34.89v2.7h34.89z"/><path fill="#b2b9c0" d="m79.21 168.319-.12.05-.97 4.73h11.56c1.85 0 3.61-.83 4.77-2.27l.03-.05-9.13-4.71z"/><path fill="#a4abb3" d="M131.21 79.609h-6.61s2.46 4.37 4.46 4.49c1.6.09 5.85.18 6.49-.53z"/><path fill="#8a9097" d="M88.65 90.639s-2.57-11.56-5.24-.13c-3.25 13.936-2.886 33.958-2.827 36.442-2.226 6.966-3.869 19.19-2.463 42.259l9.03-2.58L92 126.74l1.11-8.32-.054.003c1.434-8.409-4.406-27.784-4.406-27.784"/><path fill="#b2b9c0" d="M110.96 172.89 98.41 168l-6.94 2.02-1.4 5.19h16.08c1.85 0 3.61-.84 4.77-2.27l.03-.05z"/><path fill="#a4abb3" d="M103.88 91.56s-14.5-16.83-15.53-1.41h-.01c-.7 10.591.1 16.231 1.42 21.171 2.367 8.849 3.598 15.317 3.641 15.546-3.614 12.216-3.481 43.574-3.481 43.574l11.78-2.19 2.543-49.493c1.477-11.809-.363-27.198-.363-27.198"/><path fill="#004975" d="M87.62 51.71c-1.74.94-7.32 3.27-8.19 7.06L74.7 84.5h.003l-.003.02h8.04l6.02-22.87c.39-2.26 2.76-9.07-1.14-9.94"/><path fill="#d0d4d8" d="m92.253 43.659-1.68 10.05 8.48-.11s-.29-2.17-.59-4.44c-.07-.58-.15-1.17-.21-1.72.8-.05 1.6-.2 2.36-.45 0 0 .66-1.46 1.43-4.48.13-.5.23-.99.31-1.47.22-1.24.34-3.65.37-4.91-.43-.51-1.91-1.52-3.26-1.74-2.89-.44-5.82.98-5.82.98s.05 3.35-.17 4.55c-.02.09-.05.19-.07.3-.69-1.05-1.78-2.33-2.57-1.45-1.05 1.16.85 3.7 1.54 4.55-.07.21-.13.34-.13.34z"/><path fill="#00629a" d="M84.42 53.28a4.54 4.54 0 0 0-2.45 3.18c-1.21 5.95-2.49 29.2-3.17 48.25h19.74l7.74-27.33v-.05l1.85-13.82c.34-2.17.75-4.28.36-6.07a4.82 4.82 0 0 0-2.01-3.02l-7.712-4.3-7.578-.15z"/><path fill="#004975" d="M89.633 36.47c-.1 3.67 1.82 6.5 2.26 9.44.08.53.51.7 1.05.85.53.15 2.03.07 2.69-.09.43-.11.92-.17 1.11-.56 1.44-2.96 3.27-3.03 3.66-5.65.32-2.16.48-4.16.52-5.23.7.2 1.32.61 1.78 1.17-1.33-3.17-.61-4.03-3.79-5.98-1.14-1.26-8.59-1.72-9.28 6.05"/><path fill="#d0d4d8" d="m100.103 43.33.6-3.06c-.49-1.07-1.26-2.37-1.76-1.52-.67 1.12.68 3.72 1.16 4.58"/><path fill="#a4abb3" d="m100.603 46.99-2.47-.28.12.74c.8-.06 1.59-.21 2.36-.46z"/><path fill="#005587" d="M99.58 60.189c-.54 7.07-2.3 36.67-2.25 44.509h9.6l-.64-27.329v-.05l1.85-13.82c.18-1.13.37-2.25.46-3.31h-9.03z"/><path fill="#c1c7cc" d="M112.06 78.219c-1.17-.09-2.48-.18-3.77-.16 0 3.22-3.43 6.3-7.76 6.45h20.63c1.34 0 4.91 0 6.44-1.31 1.27-1.09 3.61-3.59 3.61-3.59h-6.61l-1.62.96c-3.93-.79-7.33-2.06-10.94-2.35z"/><path fill="#0096e8" d="M96.103 29.39c3.011 0 5.564 1.962 6.508 4.704 3.653.085 5.278 1.658 4.432 2.076-.851.417-3.496.76-4.582.887-.267.041-.665.085-1.258.153-2.03 0-12.001 4.069-12.001-.79 0-3.88 3.09-7.03 6.9-7.03Z"/><path fill="#004975" d="M121.81 79.87c-3.76-.63-13.52-2.65-13.52-2.65s.36-11.31.36-17.04c0-1.82.2-5.82-3.71-5.85-4.01-.03-5.28 3.98-5.37 5.85l1.01 24.89h.01s19.26.31 21.28.28c2.03-.03 3.71-4.85-.06-5.48"/></svg>