<svg xmlns="http://www.w3.org/2000/svg" viewBox="0 0 580 413"><path fill="#383b3e" d="m476.783 182.335-14.015 1.991a1.57 1.57 0 0 0-1.347 1.552v5.651l-14.418 10.673-12.097 22.484 4.187 2.244 11.525-21.495 10.803-7.997v1.49c0 .781.574 1.442 1.347 1.552l14.015 1.991a1.568 1.568 0 0 0 1.788-1.552v-17.032c0-.953-.844-1.686-1.788-1.552"/><path fill="#2e3033" d="M480.824 215.248c-54.331 0-98.376 44.044-98.376 98.376S426.492 412 480.824 412s98.376-44.044 98.376-98.376-44.044-98.376-98.376-98.376m0 24.867c40.533 0 73.509 32.976 73.509 73.509s-32.976 73.509-73.509 73.509-73.509-32.976-73.509-73.509 32.976-73.509 73.509-73.509"/><path fill="#979ea4" fill-rule="evenodd" d="M481.787 339.334c-14.11.114-25.64-11.233-25.754-25.344-.113-14.11 11.233-25.64 25.345-25.754 14.109-.113 25.639 11.234 25.753 25.345.113 14.109-11.234 25.64-25.344 25.753m-.458-57.126c-17.44.14-31.464 14.392-31.324 31.83.14 17.44 14.39 31.463 31.83 31.323 17.44-.139 31.462-14.39 31.322-31.829-.14-17.44-14.39-31.462-31.828-31.324"/><path fill="#595e62" fill-rule="evenodd" d="M495.597 312.407c-.056-6.988-5.766-12.605-12.752-12.55-6.988.057-12.605 5.766-12.55 12.753.056 6.987 5.766 12.605 12.752 12.55 6.988-.057 12.605-5.766 12.55-12.753"/><path fill="#383b3e" d="M236.67 39.138s-39.514.567-44.208.605c-22.243.177-44.813-4.498-45.59-4.695-1.371-.336-2.119.527-2.102 2.629s1.663 3.741 1.663 3.741 17.664 16.137 32.069 17.286l28.319 86.091 11.607-3.679-27.736-84.196 11.358-2.628c3.39-.808 6.104-1.466 7.156-1.696 20.296-3.918 26.326-2.511 33.1-2.564 2.122-.18 8.069-1.78 8.119-5.616-.046-5.714-13.756-5.278-13.756-5.278Z"/><path fill="#595e62" fill-rule="evenodd" d="M129.714 313.371c-.14-17.438-14.392-31.462-31.83-31.322-17.44.14-31.462 14.39-31.322 31.83.138 17.438 14.39 31.462 31.83 31.322 17.438-.14 31.461-14.39 31.322-31.83"/><path fill="#2e3033" d="M98.376 215.248C44.044 215.248 0 259.293 0 313.624S44.044 412 98.376 412s98.376-44.044 98.376-98.376-44.044-98.376-98.376-98.376m0 171.885c-40.533 0-73.509-32.976-73.509-73.509s32.976-73.509 73.509-73.509 73.509 32.976 73.509 73.509-32.976 73.509-73.509 73.509"/><path fill="#007bc0" fill-rule="evenodd" d="M403.217 10.971a2.86 2.86 0 0 0 1.721-3.648l-1.951-5.436a2.86 2.86 0 0 0-3.648-1.721l-32.402 11.745a2.86 2.86 0 0 0-1.721 3.647l1.951 5.438a2.86 2.86 0 0 0 3.649 1.72z"/><path fill="#383b3e" fill-rule="evenodd" d="m378.223 34.996 21.865-4.425c3.487-.865 3.072-5.122 2.207-8.607-.864-3.488-3.34-8.983-6.827-8.118l-27.705 9.955c-3.486.865-5.631 4.425-4.766 7.91.113.458.276.891.476 1.299l22.137 70.08c1.002 3.45 17.448-1.909 16.447-5.357z"/><circle cx="397.288" cy="22.394" r="8.745" fill="#e0e2e5"/><path fill="#00a4fd" d="m488.181 311.088-52.717-119.744-29.746-85.313s-2.213-8.79-3.66-8.298c-1.689.574-15.788 5.132-16.447 5.357-1.178.401 2.183 9.079 2.183 9.079l2.969 12.349s.087.217.254 1.223S311.8 250.146 311.8 250.146h-56.342l-37.536-113.601-13.685 4.028s3.453 10.821 8.28 25.966c0 0-120.043 136.847-121.831 138.892-.329.377-.355.83.142 1.491.273.362 8.378 10.269 10.522 12.91.712.877 1.238.965 1.658 1.005 2.244.212 139.151 13.369 139.151 13.369 6.133 8.155 15.888 13.43 26.877 13.43 16.185 0 29.694-11.441 32.89-26.676 2.091-8.73 8.294-30.298 14.521-42.294l60.056-91.318 36.905-7.429 22.959 62.684 39.945 74.457s3.603 6.462 9.985 3.022c5.2-3.02 1.886-8.995 1.886-8.995ZM237.807 301.6c-.656 1.444-1.15 3.034-1.508 4.823a33 33 0 0 0-.712 4.317l-99.466-.788v-.002l-29.463-.232a1 1 0 0 1-.772-.371l-2.025-2.484c-.31-.38-.301-.928.022-1.298l112.005-128.443c11.077 34.771 26.116 82.057 26.542 83.802 2.821 7.541 3.212 22.125 3.221 28.974a33.65 33.65 0 0 0-7.843 11.703Zm67.826-42.149s-3.116 6.021-4.791 7.365-23.357 8.521-23.357 8.521-1.882.721-5.536 1.84-7.476.756-8.342-1.892c-.3-.918-3.556-10.791-5.205-15.834h47.232Z"/><circle cx="269.034" cy="314.027" r="33.61" fill="#007bc0" transform="rotate(-45 269.034 314.026)"/><path fill="#00a4fd" d="M133.649 201.316H45.51c-.066 0-.128.016-.194.02a3 3 0 0 0-.383.039 4 4 0 0 0-.317.071q-.168.043-.331.103a3 3 0 0 0-.306.134q-.154.074-.301.163-.138.086-.267.185a3.2 3.2 0 0 0-.5.461 3 3 0 0 0-.215.261 4 4 0 0 0-.201.314c-.034.059-.077.108-.108.17l-8.813 17.42.967 1.647c1.591 2.71 39.12 66.559 53.398 81.518l2.883 3.083 11.188-12.909 28.93-85.679h2.71a3.5 3.5 0 1 0 0-7Zm-37.788 89.003-5.312 5.884c-13.882-16.755-43.293-66.146-49.003-75.8l6.115-12.087h75.89z"/><path fill="#007bc0" fill-rule="evenodd" d="M236.528 293.183s9.156-6.975 9.053-10.428c-.197-6.592-.901-15.813-3.153-21.832-.403-1.655-13.959-44.294-24.806-78.353-5.281 5.281-8.887 9.434-14.671 17.205-5.219 7.013-6.599 11.583-5.667 17.56.962 6.17 22.519 76.424 24.377 82.319s14.865-6.47 14.865-6.47Z"/><path fill="#656a6f" d="M303.224 371.416h-11.743l-17.344-59.681c-.996-3.427-4.573-5.386-7.95-4.353l-1.596.488c-3.377 1.032-5.247 4.657-4.157 8.055l17.811 55.491h-9.393c-.957 0-1.732.775-1.732 1.732v6.388c0 .957.775 1.732 1.732 1.732h34.373c.957 0 1.732-.775 1.732-1.732v-6.388c0-.957-.775-1.732-1.732-1.732Z"/></svg>