<svg xmlns="http://www.w3.org/2000/svg" viewBox="0 0 320 180"><path fill="#d1e4ff" d="M203.367 36.092H23.684v140.401h179.683z"/><path fill="#0096e8" d="m219.021 84.691 34.002-56.279 34.002 56.279z"/><path fill="#fff" d="M256.298 73.361c0 1.828-1.422 3.251-3.251 3.251s-3.298-1.422-3.298-3.251 1.47-3.299 3.322-3.299 3.215 1.47 3.215 3.299h.024zm-6.251-22.122h5.976v7.446l-1.255 9.215h-3.514l-1.231-9.215v-7.446z"/><path fill="#0096e8" d="m154.042 72.104 13.47 62.148-15.562 4.548v-31.784l2.082-34.901.01-.01Z"/><path fill="#c1c7cc" d="M124.822 47.319a19.6 19.6 0 0 0 5.681.586c.125 1.433.293 2.94.418 4.457a28.5 28.5 0 0 1-6.099-5.043"/><path fill="#00629a" d="M105.477 20.819c.68-6.12 8.14-9.73 8.14-9.73.743-10.378 13.538-6.591 13.538-6.591s9.876-4.781 14.741-2.26 1.088 9.217 2.929 11.707 2.354 6.183 2.354 6.183.837 8.15-5.712 11.644a65 65 0 0 0 1.203-9.51 18.1 18.1 0 0 1-9.05.774c-7.334-1.329-14.029-6.309-14.029-6.309s-.094 8.6-.754 11.634c-.062.241-.136.492-.198.774-1.685-2.741-4.405-6.099-6.466-3.902-2.71 2.919 1.915 9.52 3.609 11.759-.209.534-.355.858-.355.858s-10.682-10.933-9.95-17.032Z"/><path fill="#eff1f2" d="m110.405 63.42 5.032-25.611s.137-.324.356-.858c-1.695-2.228-6.361-8.872-3.609-11.759 2.05-2.197 4.781 1.161 6.465 3.902.063-.282.126-.554.199-.774.649-3.065.743-11.602.743-11.602s6.685 4.98 14.029 6.309c3.024.502 6.131.23 9.029-.764a64 64 0 0 1-1.245 9.552 49 49 0 0 1-.9 3.735c-2.186 7.69-3.965 11.383-3.965 11.383a24.3 24.3 0 0 1-6.057.994 18.2 18.2 0 0 1-5.681-.586 31 31 0 0 0 6.089 5.001c.586 5.838 1.182 11.404 1.182 11.404l-21.667-.335v.011Z"/><path fill="#56b0ff" d="M105.885 169.63 87.545 67.793l23.613-13.349 21.29.272 16.185 10.096a12.22 12.22 0 0 1 5.597 7.428c1.266 4.52 1.162 10.588.618 16.174l.816 81.876-49.768-.648-.011-.011Z"/><path fill="#0096e8" d="m87.842 67.59 18.085 102.093H92.526c-10.044-55.679-8.963-98.869-8.963-98.869l4.279-3.225Z"/><path fill="#e0e2e5" d="M224.064 98.237h-101.45v56.987h101.45z"/><path fill="#979ea4" d="M151.186 98.237h-28.572v56.987h28.572z"/><path fill="#71767c" d="m138.856 119.099 1.685 2.49 1.862-2.49 1.067 1.496V98.237h-13.14v22.577l1.423-1.715 1.6 2.469 1.957-2.469 1.747 2.176z"/><path fill="#00629a" d="m131.287 152.372 9.37 8.059a5 5 0 0 0 6.154.287l6.769-4.802a1 1 0 0 0 .145-1.506l-2.194-2.301 1.958-2.279a1 1 0 0 0-.165-1.456l-10.038-7.407z"/><path fill="#9dc9ff" d="M78.539 140.967s-.257-48.197-.257-56.276 3.897-16.741 11.942-18.802c10.221-2.616 14.689 5.221 16.593 12.073s-7.132 39.337-5.312 47.696l42.236 15.518-16.242 16.099z"/><path fill="#00629a" d="M197.223 156.417a1 1 0 0 1-.807 1.59h-14.113a2 2 0 0 1-1.568-.758l-4.71-5.949a1 1 0 0 1 .784-1.62h14.471c.638 0 1.238.304 1.614.819zm-41.633 8.265h-29.482v11.822h29.482z"/><path fill="#007bc0" d="M210.98 122.552c-.828-4.41-4.501-3.73-4.716-9.195 0 0-2.88 1.848-2.608 5.691.182 2.597-.895.873-.839.193 0 0-3.83 6.767 2.549 9.171-.24-.24-1.722-1.906-.656-3.536 1.167-1.792 2.38-2.426 1.485-5.487 0 0 2.777 2.403.793 5.781 0 0 1.1-.204 1.463-.85 0 0 .678 2.466-1.162 4.109.172-.063 4.468-1.678 3.691-5.877"/><g fill="#007bc0"><path d="M182.693 116.702h-4.127v1.644h-5.882v-1.644h-4.127v1.644h-2.485v17.334h19.103v-17.334h-2.482zm1.053 3.084v14.465h-16.234v-14.465z"/><path d="M168.565 124.229h4.127v1.429h-4.127zM196.423 119.094v-2.392h-5.181v2.392h-2.595v16.586h10.363v-16.586zm1.165 14.76h-7.505v-2.063h7.505zm0-3.639h-7.505v-2.063h7.505zm0-3.661h-7.505v-2.064h7.505zm0-3.651h-7.505v-2.063h7.505zM179.618 127.313h1.428v-1.655h1.655v-1.429h-1.655v-1.631h-1.428v1.631h-1.633v1.429h1.633z"/></g><path fill="#007bc0" d="M136.434 176.463c-.251-4.353 1.57-11.791 1.57-11.791H91.626s-.513 5.911.753 11.822l44.045-.031z"/></svg>