<svg xmlns="http://www.w3.org/2000/svg" viewBox="0 0 320 180"><path fill="#007bc0" d="m212.277 133.747-8.652 28.597 16.582-.105s.314-.786 1.194-2.776c-2.085-5.96-5.144-14.654-8.139-22.731-.357-1.037-.713-2.021-.975-2.996z"/><path fill="#b2b9c0" d="M150.664 167.707c-5.227 1.383-11.041.838-12.968-.524l9.071-8.254h12.979l-.012.023.002-.002 3.373 1.99c8.202-1.655 15.294-4.316 22.825-4.913 2.441-.188 5.164-.387 7.877-.335l.095.032c11.177-.105 20.143 3.582 22.301 14.843h-52.854z"/><path fill="#71767c" d="M183.084 93.711h-81.108a4.557 4.557 0 0 0-4.557 4.557v49.505a4.557 4.557 0 0 0 4.557 4.557h81.108a4.557 4.557 0 0 0 4.557-4.557V98.268a4.557 4.557 0 0 0-4.557-4.557"/><path fill="#979ea4" d="M179.933 93.711H98.824a4.557 4.557 0 0 0-4.557 4.557v49.505a4.557 4.557 0 0 0 4.557 4.557h81.109a4.557 4.557 0 0 0 4.557-4.557V98.268a4.557 4.557 0 0 0-4.557-4.557"/><path fill="#a4abb3" d="m139.32 162.009 5.238-39.879H129.83l-7.374 44.582h37.751v-4.703z"/><path fill="#71767c" d="m144.557 122.13 16.101 30.21h-20.071z"/><path fill="#d0d4d8" d="M236.673 84.325a14.5 14.5 0 0 1-4.756.388 656 656 0 0 0-.419 3.708 25 25 0 0 0 5.175-4.096"/><path fill="#8a9097" d="M258.8 82.199c0-.199.031-.44.031-.618 0-5.479-4.085-10.108-9.522-10.779a19 19 0 0 0-.125-9.993c-2.944-11.324-12.906-13.419-19.128-11.324-3.132 1.037-9.448 4.4-8.726 10.905a10.74 10.74 0 0 0 1.53 14.173c.335.304.712.576 1.1.807-.095-.388-.231-.775-.325-1.205a52.3 52.3 0 0 1-1.634-11.397c1.33 2.504 5.635 5.866 20.29 5.866.052 0 .115 0 .168.031 1.037-1.854 3.215-4.944 5.174-2.797 2.116 2.304-1.236 7.322-2.87 9.469a1 1 0 0 0-.157.23l1.886 10.454 2.178 12.046h-5.635c1.393 6.536 7.395 11.051 14.057 10.559 6.662-.482 11.952-5.814 12.382-12.487a13.364 13.364 0 0 0-10.685-13.963v.021h.011Z"/><path fill="#eff1f2" d="m246.482 86.044-1.885-10.454q.094-.107.157-.23c1.634-2.147 4.986-7.165 2.87-9.469-1.959-2.116-4.137.943-5.174 2.797-.063 0-.095-.031-.168-.031-14.655 0-18.943-3.386-20.284-5.9a54 54 0 0 0 1.607 11.43c.094.44.23.807.325 1.205 1.592 5.699 2.87 8.422 2.87 8.422 1.644.513 3.352.817 5.08.911a16.5 16.5 0 0 0 4.756-.398 25.5 25.5 0 0 1-5.143 4.075l-1.142 9.637h18.268l-2.147-12.015.021.021h-.011Z"/><path fill="#007bc0" d="M223.802 99.399a11.8 11.8 0 0 0-9.05 9.742l-.891 9.658c1.331-2.053 3.101-4.106 5.144-6.547l.492-.587c1.435-1.728 2.661-3.32 3.781-4.755a66 66 0 0 0 5.783-8.977l-5.248 1.466z"/><path fill="#0096e8" d="m223.888 166.921 36.998-.063 4.462-53.203c.524-7.845 1.037-14.036-6.673-15.534h.021c-2.084-.388-7.039-2.504-8.495-3.991-1.896-1.98-1.927-2.566-1.927-2.566l-17.515.911s.063 1.592-1.854 5.437a59 59 0 0 1-5.793 8.988 118 118 0 0 1-3.771 4.756l-.492.586a77 77 0 0 0-5.143 6.526c-2.661 4.107-3.583 8.108-1.561 14.98.262.942.618 1.959 1.006 3.027l10.747 30.147z"/><path fill="#007bc0" fill-rule="evenodd" d="m260.822 171.331 4.494-57.644c.618-7.846 1.142-13.995-6.579-15.535l-10.318 71.472z"/><path fill="#0096e8" d="m284.575 166.398-15.629-58.378c-1.99-6.809-5.468-9.574-11.04-10.056-4.526 4.724-5.5 15.273-5.06 20.185 1.142 12.759 6.924 31.258 10.664 37.156z"/><path fill="#e0e2e5" d="M233.689 168.105h51.621c0-.063-.209-.985-.241-1.142-2.158-11.26-10.999-14.986-22.186-14.891l-.209.006c-2.714-.042-5.437.147-7.878.346-7.531.597-14.613 3.279-22.794 4.923z"/><path fill="#c1c7cc" d="m232.157 157.316-3.363-1.99H215.02s3.613 6.819 6.274 9.093c3.195 2.723 9.794 3.708 12.581 3.708z"/><path fill="#d0d4d8" d="M205.954 163.58c1.33 1.477 10.192 1.299 13.533 1.1 4.17-.251 9.302-9.365 9.302-9.365h-13.764z"/><path fill="#71767c" d="M233.554 162.009h-56.565v4.19h56.565z"/><path fill="#d0d4d8" d="M216.77 166.199H61.739v6.285H216.77z"/><path fill="#b2b9c0" d="M304.762 166.199h-87.991v6.285h87.991z"/><path fill="#e0e2e5" d="m132.265 79.482 22.814.021.021-30.65-22.814-.01-.011 7.427-.01 23.213Z"/><path fill="#b2b9c0" d="m129.254 76.56 22.815.021.021-30.65-22.815-.011-.011 7.427z"/><path fill="#fff" d="M148.461 57.84v1.571l-15.567-.011.002-1.57zm0-5.164v1.571l-15.567-.011.002-1.57zm-.001 10.328v.786l-.001.785-15.577-.011.002-1.57zm-5.949 5.175-.002 1.571-9.627-.011.002-1.57z"/><path fill="#00a4fd" d="M65.751 7.517v38.257h-4.286v6.613h45.496a5.85 5.85 0 0 0 5.852-5.852V7.517H65.74z"/><path fill="#b8d6ff" d="M87.736 13.604H73.111v16.571h14.625z"/><path fill="#fff" d="M106.923 13.905v1.947H92.22v-1.947zm0 7.979v.974l-14.702.011-.002-1.946 14.703-.012zm.007 7.004v.974l-14.69.011-.002-1.946 14.692-.012zm.01 7.99-33.893.011v-1.946l33.893-.012zm0 7.005-33.893.011v-1.946l33.893-.012z"/><path fill="#d1e4ff" d="M61.376 52.397a4.403 4.403 0 0 1-4.409-4.409l-.022-33.814h8.817l.022 33.803a4.403 4.403 0 0 1-4.409 4.409zm119.603-8.055c6.538 0 11.837-5.3 11.837-11.837s-5.299-11.837-11.837-11.837-11.836 5.3-11.836 11.837 5.299 11.837 11.836 11.837"/><path fill="#007bc0" stroke="#007bc0" stroke-width=".2" d="M187.47 32.517a2.595 2.595 0 0 1-2.598 2.598h-2.92v-.655h2.92a1.96 1.96 0 0 0 1.954-1.954c0-.77-.448-1.46-1.149-1.782l-.23-.103.046-.253c.023-.161.046-.31.046-.471a2.77 2.77 0 0 0-2.759-2.759 2.75 2.75 0 0 0-2.368 1.345l-.149.241-.265-.115a1.9 1.9 0 0 0-.793-.172 1.947 1.947 0 0 0-1.942 1.816l-.023.287-.288.023a1.957 1.957 0 0 0-1.816 1.943 1.96 1.96 0 0 0 1.954 1.954h2.92v.655h-2.92a2.595 2.595 0 0 1-2.597-2.598c0-1.264.919-2.345 2.149-2.563a2.604 2.604 0 0 1 3.368-2.023 3.38 3.38 0 0 1 2.77-1.425 3.415 3.415 0 0 1 3.414 3.414c0 .115 0 .23-.012.333a2.61 2.61 0 0 1 1.311 2.264zm-6.173 4.736v-6.034h-.655v6.034l-1.391-1.391-.459.46 2.172 2.173 2.172-2.173-.459-.46-1.391 1.391z"/><path fill="#d1e4ff" fill-rule="evenodd" d="M83.076 127.331 69.04 113.296V73.528H15.238v53.803h67.839Z"/><path fill="#00629a" fill-rule="evenodd" d="M42.142 82.886c9.684 0 17.544 7.86 17.544 17.544s-7.86 17.545-17.544 17.545-17.545-7.86-17.545-17.545 7.86-17.544 17.545-17.544"/><path fill="#fff" d="M30.443 104.125v-7.403h1.836l2.784 5.251v-5.251h1.462v7.403h-1.778l-2.842-5.45v5.45zm7.767 0v-7.403h5.158v1.275h-3.579v1.766h2.749v1.181h-2.749v1.918h3.743v1.275H38.21zm7.828 0-1.813-7.403h1.661l1.146 5.275 1.38-5.275h1.31l1.38 5.322 1.205-5.322h1.532l-1.825 7.403H50.4l-1.345-5.099-1.38 5.099z"/></svg>