<svg xmlns="http://www.w3.org/2000/svg" viewBox="0 0 320 180"><path fill="#d0d4d8" d="M101.69 60.641c0-4.23-2.7-7.66-6.06-7.75h-4.6c-3.42 0-6.19 3.47-6.19 7.76s2.77 7.76 6.19 7.76h4.6c3.36-.09 6.06-3.53 6.06-7.76z"/><path fill="#eff1f2" d="M134.67 7.9h-34.5v42.21h34.5z"/><path fill="#eff1f2" d="M108.72 53.801H75.3v-30.01c-.07-3 2.21-4.66 4.94-4.66h32.548l-4.068 5.804v28.876z"/><path fill="#e0e2e5" d="M127.32 47.601v-28.4c0-.04-.07-.07-.07-.07h-14.87a3.73 3.73 0 0 0-3.73 3.73v30.94"/><path fill="#d0d4d8" d="M74.15 53.801h34.51v8.77H76.79c-1.45 0-2.63-1.18-2.63-2.63v-6.14z"/><path fill="#eff1f2" d="M81.08 59.421h-4.49l-.87-2.58h8.87c-.4 1.51-1.85 2.58-3.5 2.58zm20.64 0h4.49l.87-2.58h-8.87c.4 1.51 1.85 2.58 3.5 2.58z"/><path fill="#d0d4d8" d="M108.65 38.518v-14.95h12.77v10zm0-14.95H75.298v14.92h33.352z"/><path fill="#e0e2e5" d="M204.06 7.9h-69.39v42.21h69.39z"/><path fill="#eff1f2" d="M266.25 47.261H234.5v21.13h31.75zM228.8 36.46h-16.62v16.62h16.62z"/><path fill="#d0d4d8" d="M232.16 55.751v-2.87h-29.37V50.11h-74.63v-2.44h-9.59l-.02-.05-9.89 6.19v8.77h2.723c.688 3.342 3.103 5.82 5.987 5.82h4.6c3.36-.09 6.06-3.53 6.06-7.76v-.22h18.91v.22c0 4.28 2.77 7.76 6.19 7.76h4.6c3.36-.09 6.06-3.53 6.06-7.76v-.364h11.29v.364c0 4.28 2.77 7.76 6.19 7.76h4.6c3.36-.09 6.06-3.53 6.06-7.76 0-1.85-.52-3.55-1.38-4.88z"/><path fill="#c1c7cc" d="M6.25 173.98H117.3v-66.36H6.25z"/><path fill="#979ea4" d="m127.34 166.3-10.04 7.68v-66.36l10.04-7.68z"/><path fill="#b2b9c0" d="m16.29 99.94-10.04 7.68H117.3l10.04-7.68z"/><path fill="#e0e2e5" fill-rule="evenodd" d="M90.14 130.511c-2.32 0-4.54.45-6.59 1.24l-5.12-10.81 5.83-2.78c.86-.41 1.23-1.44.81-2.3a1.74 1.74 0 0 0-2.23-.85l-3.51 1.63c.35-.8-.01-1.73-.81-2.08a1.6 1.6 0 0 0-1.23-.02l-3.75 1.54c-.81.33-1.19 1.26-.86 2.07.26.62.87 1.01 1.54.97l.96 1.99-21.66 13.36-4.92-13.98c.4-.09.75-.23 1.12-.37.35-.13.72-.28 1.19-.41.79-.21 1.6-.33 2.42-.38 1.6-.11 1.65-1.92-.41-2.13l-4.4-.55c-3.33-.46-5.23-.71-6.26.18-.51.44-.48 1.34-.27 1.85.21.54 1.36 1.6 4.84 1.9l5.21 14.79-4 2.47c-3.34-4.45-8.65-7.34-14.64-7.34-10.12 0-18.33 8.21-18.33 18.33s8.21 18.33 18.33 18.33c8.88 0 16.28-6.32 17.97-14.7l2.21.22c.38.04.72.27.91.6l1.06 1.65c.3.47.85.66 1.36.69.41.03.85.02 1.65-.46l1.62 4.84h-1.91c-.3-.01-.56.22-.57.52v.6c.01.31.27.54.57.53h6c.31.01.56-.22.57-.53v-.6a.546.546 0 0 0-.57-.52h-2.13l-1.92-5.74 1.56-.85c.21-.11.38-.27.5-.48l13.71-24.78c.13-.23.32-.41.56-.51l1.5-.66 2.92 6.02c-5.46 3.17-9.15 9.07-9.15 15.85 0 10.12 8.21 18.33 18.33 18.33s18.33-8.21 18.33-18.33-8.21-18.33-18.33-18.33zm-56.73 33.44c-8.34 0-15.11-6.76-15.11-15.11s6.76-15.11 15.11-15.11c4.83 0 9.13 2.28 11.89 5.81l-10.85 6.69c-.33-.14-.7-.22-1.08-.22-1.55 0-2.81 1.26-2.81 2.81s1.26 2.81 2.81 2.81c.75 0 1.42-.29 1.93-.77l12.84 1.28c-1.51 6.75-7.53 11.8-14.73 11.8zm15.11-15.11c0 .53-.03 1.06-.08 1.58l-12.32-.99a2.77 2.77 0 0 0-.7-2.53l10.65-6.3c1.55 2.37 2.46 5.2 2.46 8.25zm6.86-2.01-2.62 3.54c-.17.23-.46.37-.75.35l-.36-.03c.06-.61.09-1.22.09-1.84 0-3.65-1.08-7.03-2.91-9.89l2.14-1.27c.66-.35 1.44-.12 1.7.67.7 2.1 1.92 5.84 2.48 7.53.12.38.22.66.26.79.02.05 0 .11-.03.15m15.71-17.95-6.98 12.91-2.17 4.02c-.2.38-.59.62-1.02.62l-2.03.04c-.52.01-.99-.32-1.16-.81l-3-8.76c-.18-.53.03-1.12.52-1.41l14.05-8.33c1.12-.66 2.4.57 1.78 1.71zm19.05 35.07c-8.34 0-15.11-6.76-15.11-15.11 0-5.5 2.95-10.29 7.34-12.94l5.48 11.32a2.77 2.77 0 0 0-.52 1.62c0 1.55 1.26 2.81 2.81 2.81s2.81-1.26 2.81-2.81-1.16-2.7-2.62-2.8l-5.39-11.37c1.62-.6 3.37-.94 5.2-.94 8.34 0 15.11 6.76 15.11 15.11s-6.76 15.11-15.11 15.11"/><path fill="#71767c" d="M163.54 65.2c.58.22 1.23.314 1.85.354-.033.452-.043.86-.04 1.396-1.014-.497-1.81-1.75-1.81-1.75"/><path fill="#003253" d="M170.34 57.53c-.24-.37-.72-1.06-1.09-1.3-.52-.34-.86.03-2.44.25s-2.97-1.07-2.97-1.07c.51 2.41-.86 2.69-1.37 3.31-.13.16-.22.36-.26.56-.37-.86-1.02-1.94-1.76-1.33-.9.74.16 3.06.71 4.12l-.41.63s-2.05-4.95-2-6.56v.01c.04-1.26 2-2.09 2-2.09s.13-.95 1.84-1.97 3.26 0 4.68.03.16.49 1.2 1.17c.98.64 1.49.76 1.37 1.73 0 .05.56 1.06.56 1.11z"/><path fill="#e0e2e5" d="m165.35 66.95-.08 3.62-6.88-.87 2.35-7.03.41-.63c-.55-1.06-1.61-3.38-.71-4.12.75-.61 1.4.46 1.76 1.33.03-.21.12-.4.26-.56.51-.63 1.88-.9 1.37-3.31 0 0 1.38 1.28 2.96 1.07 1.59-.21 1.93-.59 2.44-.25.5.26 1.09 1.3 1.1 1.31s-.06.49-.22 1.21c-.24 1.17-.14 1.37-.47 3.2-.41 2.28-1.16 3.42-1.16 3.42-.65.1-2.46.3-3.11.26-.62-.04-1.23-.17-1.8-.39 0 0 1.084 1.352 1.78 1.74"/><path fill="#00a4fd" d="M170.39 55.45h-11.45c0-3.43 1.58-6.21 5.72-6.21s5.72 2.78 5.72 6.21z"/><path fill="#0096e8" d="M170.37 55.24s4.79 4.98.8 5.18-12.23-4.98-12.23-4.98z"/><path fill="#006ead" d="m166.2 167.75-6.67.34-1.32 5.66 14.55.23c1.47.02 2.88-.52 3.84-1.49l.03-.04-10.22-3.4zm-26.11.74-1.35 5.26 14.55.23c1.47.02 2.88-.52 3.84-1.49l.03-.04-9.89-3.56s-4.76-.4-7.17-.41z"/><path fill="#71767c" d="M161.84 99.98s.28 5.26-1.26 8.97c-1.16 2.79-2.47 7.84-3.64 12.94 1.58 5.05 2.76 10.44 2.1 16.17-1.62 13.9-2 10.2-1.31 30.85l10.79.16-.22-34.21-.64-35.16c-2.22.126-3.043.28-5.82.28"/><path fill="#7d8389" d="m161.85 100.13-15.08.72c-2.37 9.05-1.8 12.26-.72 25.62.19 2.39-7.69 16.49-6.37 42.44h9.55l4.51-31.13s1.44-7.95 3.23-15.8c1.16-5.08 2.46-10.12 3.62-12.91 1.54-3.7 1.26-8.94 1.26-8.94"/><path fill="#7ebdff" d="M169.16 79.04c2.35 4.05 12.08 16.36 12.08 16.36l3.28-8.14c-2.05-2.58-4.85-7.57-8.4-12.26v-.01c-1.25-1.66-4.768-5.212-7.68-3.57-2.532 1.427-.797 5.093.72 7.62"/><path fill="#56b0ff" d="m166.61 70.39-9.29-.74-7.45 32.4 9.25.55 4.04-.1z"/><path fill="#b8d6ff" d="m170.34 71.01-5.06-1.77-1.34.94-.53 17.62 7.49.75zm-.2 22.021-6.87-.68-.11 3.59 6.05.6zm-7.12 7.459-.11 3.69h4.26l.85-3.2z"/><path fill="#e8f1ff" d="m169.21 96.54-6.05-.6-.14 4.55 5 .49zm1.74-6.54-.05-1.45-7.49-.75-.14 4.55 6.87.68z"/><path fill="#b8d6ff" d="m160.06 91.99-15.85-1.58c-.23 1.22-.43 2.41-.61 3.55l16.17 1.61c.1-1.19.19-2.38.28-3.58zm1.4-22.009-2.09-3.26-6.94 1.89c-3.42 3.56-5.75 10.53-7.3 17.33l15.25 1.52c.65-9.4 1.07-17.48 1.07-17.48zM142.97 98.45c-.41 3.22-.57 5.33-.57 5.33l16.6.45c.13-1.32.27-2.71.39-4.14l-16.43-1.64z"/><path fill="#e8f1ff" d="m160.39 87.46-15.25-1.52c-.34 1.51-.65 3.01-.92 4.47l15.85 1.58c.11-1.52.22-3.04.33-4.52zm-.61 8.11-16.17-1.61c-.26 1.64-.47 3.16-.64 4.49l16.43 1.64c.13-1.47.26-2.99.38-4.52"/><path fill="#00a4fd" d="M166.48 148.48h107.13V84.461H166.48z"/><path fill="#006ead" d="m283.29 141.081-9.68 7.41v-64.02l9.68-7.41z"/><path fill="#007bc0" d="m176.16 77.061-9.68 7.41h107.13l9.68-7.41z"/><path fill="#7ebdff" fill-rule="evenodd" d="M247.41 106.551c-2.24 0-4.38.43-6.35 1.2l-4.94-10.43 5.62-2.69c.83-.4 1.18-1.39.78-2.22-.38-.8-1.33-1.16-2.15-.82l-3.38 1.57a1.525 1.525 0 0 0-1.97-2.03l-3.62 1.49c-.78.32-1.15 1.21-.83 1.99.25.6.84.98 1.49.94l.93 1.92-20.9 12.89-4.74-13.49c.39-.09.72-.22 1.08-.36.33-.13.69-.27 1.15-.4.76-.2 1.55-.32 2.33-.37 1.54-.1 1.6-1.85-.39-2.06l-4.25-.53c-3.21-.44-5.04-.69-6.04.17-.49.42-.46 1.29-.26 1.79.21.52 1.31 1.55 4.67 1.84l5.02 14.27-3.86 2.38c-3.23-4.29-8.34-7.08-14.13-7.08-9.77 0-17.68 7.92-17.68 17.68s7.92 17.68 17.68 17.68c8.57 0 15.71-6.09 17.33-14.18l2.13.21c.37.04.69.26.88.58l1.02 1.59c.29.46.82.63 1.31.67.4.03.82.02 1.59-.45l1.56 4.67h-1.84a.534.534 0 0 0-.55.51v.57c.01.3.26.52.55.51h5.79c.3.01.54-.22.55-.51v-.57a.54.54 0 0 0-.55-.51h-2.05l-1.85-5.54 1.5-.82c.2-.1.37-.26.48-.46l13.23-23.9c.12-.22.31-.39.54-.49l1.45-.64 2.81 5.81c-5.27 3.06-8.83 8.75-8.83 15.29 0 9.77 7.92 17.68 17.68 17.68s17.68-7.92 17.68-17.68-7.92-17.68-17.68-17.68zm-54.73 32.26c-8.05 0-14.57-6.52-14.57-14.57s6.52-14.57 14.57-14.57c4.66 0 8.81 2.2 11.47 5.61l-10.46 6.45a2.706 2.706 0 0 0-3.75 2.5c0 1.5 1.21 2.71 2.71 2.71.72 0 1.37-.28 1.86-.74l12.39 1.23c-1.46 6.51-7.26 11.39-14.21 11.39zm14.57-14.57c0 .52-.03 1.02-.08 1.52l-11.88-.96c.04-.19.06-.38.06-.58 0-.72-.28-1.38-.74-1.86l10.27-6.08c1.5 2.29 2.37 5.02 2.37 7.96m6.62-1.94-2.53 3.41c-.17.23-.44.35-.73.33l-.35-.03a17.6 17.6 0 0 0-2.72-11.31l2.07-1.22c.63-.34 1.39-.11 1.64.65.68 2.02 1.85 5.63 2.39 7.26.12.37.21.64.25.76.02.05 0 .11-.03.15zm15.16-17.33-6.73 12.46-2.1 3.88c-.19.37-.57.6-.98.6l-1.96.04c-.51.01-.96-.31-1.12-.78l-2.89-8.45c-.18-.52.03-1.09.5-1.36l13.55-8.04c1.08-.64 2.31.55 1.72 1.65zm18.38 33.84c-8.05 0-14.57-6.52-14.57-14.57 0-5.3 2.84-9.93 7.08-12.48l5.29 10.92a2.706 2.706 0 0 0 2.21 4.27c1.5 0 2.71-1.21 2.71-2.71s-1.12-2.61-2.53-2.7l-5.2-10.97c1.57-.58 3.25-.91 5.02-.91 8.05 0 14.57 6.52 14.57 14.57s-6.52 14.57-14.57 14.57z"/><path fill="#006ead" d="m282.79 169.211-8.76 3.21.02.04c.8.97 2 1.53 3.25 1.53h12.4l-.98-4.761c-2.06-.02-4.59.06-5.57 0h-.37zm24.96 2.96-4.16-3.15h-4.71l-.38 4.95h8.31c.63 0 1.15-.51 1.15-1.15 0-.24-.07-.47-.2-.66z"/><path fill="#8a9097" d="M285.564 103.833c-3.997 0-5.691-.092-7.834-.093v33.44l5.01 32.13h8.92c-.29-20.07-2.22-18.89-4.14-32.13-.79-5.45 1.1-11.29 2.19-16.21-1.17-4.82-1.81-6.08-2.88-8.7-1.42-3.48-1.266-8.437-1.266-8.437"/><path fill="#8a9097" d="M306.58 169.11c0-25.36-7.09-38.48-7.03-40.78.33-12.85.67-15.95-1.66-24.5l-4.52.1-7.94-.06s-.01 5.04 1.41 8.51c1.08 2.62 2.36 7.38 3.53 12.19 1.81 7.43 3.33 14.98 3.33 14.98l5 29.57h7.9z"/><path fill="#0096e8" d="M282.39 59.8h-8.36s1.73-3.11 6.54-3.11z"/><path fill="#c1c7cc" d="m302.72 94.23-6.11.12v3.73h6.894z"/><path fill="#eff1f2" d="M303.53 98.08c-5.59-.11-5.68-3.53-6.32-5.85-.97-.19-2.03-.27-3.14-.26-.64-2.59-1.86-7.7-2.66-12.07-.34-1.8-2.03-7.06 1.33-7.75 1.52.59 5.95 2.21 6.7 5.22h.01zm-15.98-32.49 1.45 8-7.31-.08s.26-1.73.51-3.54c.05-.47.13-.93.18-1.37-.69-.04-1.37-.16-2.03-.36 0 0-.56-1.16-1.23-3.57q-.165-.6-.27-1.17c-.19-.99-.3-2.91-.32-3.91.37-.41 1.64-1.21 2.8-1.38 2.49-.35 5.01.78 5.01.78s-.05 2.67.14 3.63q.03.105.06.24c.59-.84 1.54-1.86 2.21-1.16.9.92-.73 2.94-1.32 3.62.06.17.11.27.11.27z"/><path fill="#b8d6ff" d="M297.28 75.76c-.24-1.1-1.02-2.03-2.11-2.53l-5.83-2.64-7.93.12-5.24 3.43c-.89.56-1.52 1.42-1.73 2.4-.33 1.43.01 3.1.31 4.83l1.07 7.37 22.66-.04c-.36-6.52-.52-9.97-1.18-12.94zm1.42 17.29-22.04.04 1.7 3.43 20.55-.04c-.08-1.22-.15-2.36-.21-3.44zm-18.18 7.82 1.54 3.1h17.39c-.08-1.09-.16-2.14-.23-3.14z"/><path fill="#e8f1ff" d="m298.92 96.491-20.55.04 2.15 4.34 18.7-.04c-.11-1.549-.21-2.99-.3-4.35zm-.47-7.791-22.66.04.53 3.62v.04l.34.69 22.04-.04c-.1-1.59-.18-3.03-.25-4.35"/><path fill="#979ea4" d="M289.79 59.87c.09 2.92-1.57 5.17-1.95 7.51-.07.42-.45.55-.9.67-.46.12-1.74.06-2.32-.07-.36-.08-.79-.13-.96-.44-1.24-2.36-2.82-2.41-3.15-4.49-.28-1.72-.42-3.31-.45-4.16-.6.16-1.101.401-1.501.841-.32-1.68 2.011-5.491 4.481-4.461.8-1.21 6.554-2.516 6.754 4.424z"/><path fill="#eff1f2" d="M280.25 62.89c.42-.85 1.09-1.88 1.52-1.21.57.89-.59 2.96-1 3.64z"/><path fill="#d0d4d8" d="m280.34 68.241 2.13-.22-.1.59a8.8 8.8 0 0 1-2.03-.37"/><path fill="#7ebdff" d="M284.06 93.08h-7.76l-.13 3.45 8.35-.02c-.14-1.12-.29-2.27-.45-3.44zm-1.97-14.34h-7.77c.08.84.24 1.73.4 2.64l1.07 7.37h7.64c-.58-3.97-1.14-7.67-1.34-10.01m-6.1 22.14-.12 3.09h9.22c0-.9-.05-1.96-.13-3.11l-8.96.02z"/><path fill="#b8d6ff" d="m284.51 96.521-8.35.02-.17 4.351 8.96-.02a93 93 0 0 0-.44-4.351m-1.08-7.791h-7.64l.53 3.64v.04l-.03.69h7.76c-.2-1.47-.41-2.93-.63-4.36z"/><path fill="#eff1f2" d="M274.74 97.88s-.46-14.58-.46-19.14c0-1.46-.18-4.63 3.19-4.65 3.46-.03 4.55 3.16 4.63 4.65.27 4.74-.81 19.34-.81 19.34l-6.54-.2z"/><path fill="#d0d4d8" d="M258.93 93.121c.74.23 1.84.5 2.82.5 1.68 0 6.49-1.81 9.6-2.1 1.01-.1 2.081-.189 3.201-.169 0 3.33 3.008 6.568 6.738 6.738 0 0-14.129-.409-16.489-.409s-4.03-.4-8.02.39z"/><path fill="#00a4fd" d="M289.87 59.8h-11.46c0-3.43 1.58-6.21 5.73-6.21s5.73 2.78 5.73 6.21"/><path fill="#003e64" d="M151.97 95.43c.41-2.95 1.66-4.6 3.51-5.1 3.89-1.05 16.82 2.14 16.82 2.14l7.12.16-.89 5.13-3.88-1.31-22.68-1.03z"/><path fill="#001222" d="M184.12 91.96c.8 5.82-5.59 5.8-5.59 5.8l.89-5.13z"/><path fill="#003e64" d="m179.72 89.5.97.83-2.72 2.72-3.87-.43z"/><path fill="#7ebdff" fill-rule="evenodd" d="m174.449 91.34-.67 6.58-23.929-2.25h.009c-.007-.092-.848-14.031-1.04-20.31-.163-5.339 2.041-6.67 3.61-6.75 4.109-.21 4.3 5.15 4.43 7.22.32 5.078.049 10.036.152 13.405l17.439 2.104Z"/><path fill="#001222" d="M254.384 98.249s-2.12-1.23-2.71-2.02c-.66-.89-.93-3.07-.38-4.28l3.49.74z"/><path fill="#003e64" d="M261.985 93.61c-.08 0-.16.01-.23.01-.98 0-2.08-.28-2.82-.5l-3.87-3.26-.87.73 1.364 2.259-.776-.16-.398 5.56c.56.15 1.48.022 2.39-.168 2.33-.46 3.86-.51 5.21-.48v-3.99Z"/></svg>