<svg xmlns="http://www.w3.org/2000/svg" viewBox="0 0 915 405"><path fill="#007bc0" fill-rule="evenodd" d="M466.035 10.971a2.86 2.86 0 0 0 1.721-3.648l-1.951-5.436a2.86 2.86 0 0 0-3.648-1.721l-32.402 11.745a2.86 2.86 0 0 0-1.721 3.647l1.951 5.438a2.86 2.86 0 0 0 3.649 1.72z"/><path fill="#383b3e" fill-rule="evenodd" d="M465.113 21.964c-.864-3.488-3.34-8.983-6.827-8.118l-27.705 9.955c-3.139.779-5.183 3.744-4.928 6.872.018.529.782 22.519.936 23.05.269 3.582 4.534 3.886 8.117 3.617 3.581-.269 9.413-1.791 9.144-5.372l-3.037-17.005 21.334-4.063c3.487-.865 3.832-5.451 2.967-8.936Z"/><circle cx="460.107" cy="22.394" r="8.745" fill="#e0e2e5"/><path fill="#007bc0" fill-rule="evenodd" d="M454.615 145.032c-12.616 1.594-12.934 7.831-18.239 16.565s-8.204 14.251-8.161 22.047c.044 8.047 1.176 66.376 2.178 74.313s7.311 7.14 7.311 7.14l31.388-3.965z"/><path fill="#383b3e" d="M291.975 40.759s-39.514.567-44.208.605c-22.243.177-44.813-4.498-45.59-4.695-1.371-.336-2.119.527-2.102 2.629s1.663 3.741 1.663 3.741 17.578 16.058 31.965 17.277l19.671 62.057 11.607-3.679-19.061-60.135 11.435-2.646c3.39-.808 6.104-1.466 7.156-1.696 20.296-3.918 26.326-2.511 33.1-2.564 2.122-.18 8.069-1.78 8.119-5.616-.046-5.714-13.756-5.278-13.756-5.278Zm501.401 131.774c0-.953-.844-1.686-1.788-1.552l-14.015 1.991a1.57 1.57 0 0 0-1.347 1.552v4.025h-5.035c-.405 0-.785.197-1.019.528l-7.893 11.181 4.084 2.884 6.771-9.593h3.091v4.025c0 .781.574 1.442 1.347 1.552l14.015 1.991a1.568 1.568 0 0 0 1.788-1.552v-17.032Z"/><path fill="#595e62" fill-rule="evenodd" d="M136.423 237.47c-17.44.14-31.462 14.39-31.322 31.83.138 17.438 14.39 31.462 31.83 31.322 17.438-.14 31.461-14.39 31.322-31.83-.14-17.438-14.392-31.462-31.83-31.322"/><path fill="#383b3e" d="M453.282 134.331 473.5 296.492h204.111l59.149-99.424z"/><path fill="#2e3033" fill-rule="evenodd" d="M235.358 173.388c-52.195-54.413-138.925-56.218-193.339-4.023s-56.217 138.926-4.023 193.34c52.195 54.413 138.927 56.217 193.34 4.023 54.413-52.196 56.218-138.927 4.022-193.34M213.95 348.603c-44.42 42.611-115.223 41.137-157.832-3.283-42.61-44.419-41.137-115.222 3.284-157.831 44.42-42.61 115.223-41.137 157.832 3.284 42.61 44.418 41.137 115.221-3.284 157.83"/><path fill="#2e3033" d="M816.32 207.631c-54.331 0-98.376 44.044-98.376 98.376s44.044 98.376 98.376 98.376 98.376-44.044 98.376-98.376-44.044-98.376-98.376-98.376m0 171.885c-40.533 0-73.509-32.976-73.509-73.509s32.976-73.509 73.509-73.509 73.509 32.976 73.509 73.509-32.976 73.509-73.509 73.509"/><path fill="#979ea4" fill-rule="evenodd" d="M816.526 330.44c-14.11.114-25.64-11.233-25.754-25.344-.113-14.11 11.233-25.64 25.345-25.754 14.109-.113 25.639 11.234 25.753 25.345.113 14.109-11.234 25.64-25.344 25.753m-.458-57.126c-17.44.14-31.464 14.392-31.324 31.83.14 17.44 14.39 31.463 31.83 31.323 17.44-.139 31.462-14.39 31.322-31.829-.14-17.44-14.39-31.462-31.828-31.324"/><path fill="#595e62" fill-rule="evenodd" d="M828.971 304.79c-.056-6.988-5.766-12.605-12.752-12.55-6.988.057-12.605 5.766-12.55 12.753.056 6.987 5.766 12.605 12.752 12.55 6.988-.057 12.605-5.766 12.55-12.753"/><path fill="#00a4fd" fill-rule="evenodd" d="M822.153 301.768s-44.648-101.69-45.338-102.984c-.418-.783-1.217-1.187-3.663-.629l-14.66-31.438c-.572-1.227-6.093-.054-8.103.815s-6.453 4.118-5.745 5.642l2.779 5.962c-6.302 10.384-44.265 74.413-44.265 74.413l-240.203-41.547L445.88 74.9s.206-23.327-2.094-23.065c-.955.108-15.916 1.79-17.197 1.888-2.583.198 3.823 23.442 3.823 23.442l16.653 132.089-160.145-27.7-24.547-74.391-13.685 4.028 17.797 55.317-.023-.046-109.412 78.471.077.07c-9.708 6.742-29.698 20.68-31.149 22.13-.354.354-.41.805.042 1.497.248.38 7.672 10.807 9.635 13.585.652.922 1.171 1.046 1.587 1.113 2.538.412 12.176 1.984 25.109 4.093l-.002.003 103.159 16.824 16.143 2.927c5.868 9.816 16.597 16.391 28.864 16.391 10.234 0 19.393-4.58 25.558-11.795h344.461v-.025c5.779-.302 8.09-4.592 8.09-4.592s48.501-77.581 67.855-108.6l2.439 5.229c-1.793 1.047-1.955 1.696-1.576 2.484l12.996 27.016 39.945 74.457s3.603 6.462 9.985 3.022c5.2-3.02 1.886-8.995 1.886-8.995Zm-654.368-27.329.001-.002-26.156-1.96a1 1 0 0 1-.746-.421l-1.854-2.614c-.284-.4-.238-.946.108-1.293l23.877-16.509.017.024 5.839-4.073 100.992-70.451c5.091 16.111 16.495 52.253 17.019 54.402h-.001c3.098 8.28 3.266 25.871 3.215 31.727-6.176 4.732-10.658 11.557-12.393 19.417zm175.7 22.053c.417-2.115.64-4.298.64-6.535 0-18.562-15.048-33.61-33.61-33.61-.524 0-1.044.016-1.561.039-.297-.358-.567-.837-.895-1.484-1.312-2.584-10.545-41.244-10.545-41.244l-5.167-15.66 156.717 27.107 9 71.387zm334.126 0H473.478l-8.549-68.643 229.807 39.749z"/><path fill="#007bc0" fill-rule="evenodd" d="M443.931 276.357c-8.329-5.92-13.11-9.925-20.85-10.86-7.99-.965-66-7.153-74-7.153s-8 6.358-8 6.358v31.79h117c-1.176-9.189-4.04-12.951-14.15-20.135"/><circle cx="310.515" cy="289.957" r="33.61" fill="#007bc0" transform="rotate(-45 310.515 289.957)"/><path fill="#656a6f" d="M344.705 347.346h-11.743l-17.344-59.681c-.996-3.427-4.573-5.386-7.95-4.353l-1.596.488c-3.377 1.032-5.247 4.657-4.157 8.055l17.811 55.491h-9.393c-.957 0-1.732.775-1.732 1.732v6.388c0 .957.775 1.732 1.732 1.732h34.373c.957 0 1.732-.775 1.732-1.732v-6.388c0-.957-.775-1.732-1.732-1.732Z"/></svg>