<svg xmlns="http://www.w3.org/2000/svg" viewBox="0 0 320 180"><rect width="209.54" height="110.834" x="55.225" y="37.568" fill="#c1c7cc" rx="6" ry="6"/><path fill="#c1c7cc" fill-rule="evenodd" d="M207.917 169.827h-96.13v-2.492c0-1.625 2.157-2.95 4.827-2.95h86.477c2.66 0 4.826 1.316 4.826 2.95z"/><path fill="#b2b9c0" fill-rule="evenodd" d="M197.899 164.385h-75.62l4.444-15.992h66.732z"/><path fill="#eff1f2" fill-rule="evenodd" d="M62.131 124.689h195.733V44.236H62.131z"/><path fill="#979ea4" d="M193.459 148.394h-66.732l-2.249 8.075h71.231z"/><path fill="#00a4fd" d="M137.247 13.082H78.85v88.839h58.397z"/><path fill="#00629a" d="m101.281 89.227-4.815-4.276-5.99 2.369 5.008-28.38 10.805 1.897zm24.35-1.906-5.99-2.369-4.825 4.276-5.008-28.39 10.815-1.897z"/><path fill="#fff" d="m108.046 25.774 3.457 2.552 4.16-1.04 2.215 3.679 4.247.636.636 4.247 3.678 2.215-1.04 4.16 2.552 3.457-2.552 3.448 1.04 4.17-3.678 2.205-.636 4.247-4.247.636-2.215 3.679-4.16-1.04-3.457 2.552-3.448-2.552-4.17 1.04-2.205-3.679-4.247-.636-.635-4.247-3.679-2.205 1.03-4.17-2.552-3.448 2.552-3.457-1.03-4.16 3.679-2.215.635-4.247 4.247-.636 2.205-3.679 4.17 1.04z"/><path fill="#00629a" d="M108.05 55.84c5.611 0 10.16-4.549 10.16-10.16s-4.549-10.16-10.16-10.16-10.16 4.549-10.16 10.16 4.549 10.16 10.16 10.16"/><path fill="#d1e4ff" d="M187.125 21.911H144.18v65.332h42.945z"/><path fill="#7ebdff" d="m160.672 77.917-3.547-3.146-4.407 1.746 3.688-20.875 7.945 1.4zm17.909-1.401-4.406-1.746-3.548 3.146-3.678-20.875 7.954-1.4z"/><path fill="#fff" d="m165.654 31.247 2.539 1.876 3.062-.766 1.634 2.707 3.118.467.467 3.127 2.707 1.624-.765 3.062 1.876 2.539-1.876 2.539.765 3.062-2.707 1.624-.467 3.127-3.118.467-1.634 2.707-3.062-.765-2.539 1.876-2.54-1.876-3.062.765-1.624-2.707-3.118-.467-.477-3.127-2.698-1.624.757-3.062-1.877-2.539 1.877-2.539-.757-3.062 2.698-1.624.477-3.127 3.118-.467 1.624-2.707 3.062.766z"/><path fill="#7ebdff" d="M165.649 53.363a7.478 7.478 0 1 0 0-14.956 7.478 7.478 0 0 0 0 14.956"/><path fill="#d1e4ff" d="M239.169 21.911h-42.944v65.332h42.944z"/><path fill="#7ebdff" d="m212.72 77.917-3.548-3.146-4.406 1.746 3.687-20.875 7.945 1.4zm17.908-1.401-4.406-1.746-3.548 3.146-3.678-20.875 7.954-1.4z"/><path fill="#fff" d="m217.697 31.247 2.539 1.876 3.062-.766 1.625 2.707 3.127.467.467 3.127 2.708 1.624-.766 3.062 1.876 2.539-1.876 2.539.766 3.062-2.708 1.624-.467 3.127-3.127.467-1.625 2.707-3.062-.765-2.539 1.876-2.539-1.876-3.062.765-1.625-2.707-3.127-.467-.467-3.127-2.698-1.624.756-3.062-1.876-2.539 1.876-2.539-.756-3.062 2.698-1.624.467-3.127 3.127-.467 1.625-2.707 3.062.766z"/><path fill="#7ebdff" d="M217.701 53.363a7.478 7.478 0 1 0 0-14.956 7.478 7.478 0 0 0 0 14.956M65.262 13.082C59.098 13.082 54.193 7.17 54.193 0c0 7.296-5.031 13.082-11.069 13.082 6.164 0 11.069 5.912 11.069 13.082 0-7.296 5.031-13.082 11.069-13.082M50.989 32.61c-4.381 0-7.868-4.202-7.868-9.298 0 5.186-3.576 9.298-7.868 9.298 4.381 0 7.868 4.202 7.868 9.298 0-5.186 3.576-9.298 7.868-9.298"/></svg>