<svg xmlns="http://www.w3.org/2000/svg" data-name="Entry Ticket Machine" viewBox="0 0 1600 900"><path fill="#c1c7cc" d="m773.33 765.52-106.01-29.07V143.41l106.01-8.93z" data-name="Purple Side 2"/><path fill="#d0d4d8" d="m773.33 765.52 125.02-22.01v-600.1l-125.02-8.93z" data-name="Purple Side 1"/><path fill="#d0d4d8" d="m807.66 462.71 125.02-11.29V146.04l-125.02-9z" data-name="Purple Extension"/><path fill="#c535bc" d="m761.98 417.95-83.67-9.17V158.89l83.67-6.24z" data-name="Purple Screen 2"/><path fill="#9e2896" d="m878.25 295.65-86.43 2.67V152.65l86.43 5.04z" data-name="Purple Screen 1"/><path fill="#656a6f" d="m925.73 293.33-21.2.72v-34.02l21.2-.18z" data-name="Purple Ticket Space"/><path fill="#656a6f" d="m727.47 255-14.65-1.6v-43.74l14.65-1.1z" data-name="Purple Screen 2"/><path fill="#d0d4d8" d="m724.47 252.01-9.26-1.39V212.5l9.26-.95z" data-name="Purple Screen 2"/><path fill="#fff" d="M743.31 501.97v-21.15l-9.31-1.06c-1.11 7.83-7.8 13.21-15.85 12.3-8.05-.92-14.73-7.82-15.85-15.91l-9.31-1.06v21.15l6.86.79v4.7l-6.86-.78v58.78l9.31 1.06c1.12-7.84 7.8-13.22 15.85-12.31 8.05.92 14.74 7.83 15.85 15.92l9.31 1.06v-58.78l-6.86-.78v-4.71zm-27.45 1.59-11.43-1.31v-4.7l11.43 1.3zm16.02 1.82-11.44-1.3v-4.71l11.44 1.3z"/><g fill="#c1c7cc"><path d="M731.88 500.67v4.71l-11.44-1.3v-4.71zM715.86 498.85v4.71l-11.43-1.31v-4.7z"/></g></svg>