<svg xmlns="http://www.w3.org/2000/svg" data-name="Layer 10" viewBox="0 0 1600 900"><g data-name="Gate Strips"><path fill="#c1c7cc" d="M649.93 251.46h314.14v4.59H649.93zM649.93 333.09h314.14v4.59H649.93zM651.81 423.89h314.14v4.59H651.81zM649.93 519.74h314.14v4.59H649.93zM651.81 599.12h314.14v4.59H651.81zM651.81 678.5h314.14v4.59H651.81z"/><path fill="#c1c7cc" d="M678.34 183.41h5.96V743.3h-5.96zM704.31 179.95h5.96v559.89h-5.96zM729.3 177.86h5.96v559.89h-5.96zM755.36 183.64h5.96v559.89h-5.96zM781.33 180.17h5.96v559.89h-5.96zM806.32 178.08h5.96v559.89h-5.96zM831.31 183.41h5.96V743.3h-5.96zM857.28 179.95h5.96v559.89h-5.96zM882.27 177.86h5.96v559.89h-5.96zM906.51 182.73h5.96v559.89h-5.96zM932.48 179.26h5.96v559.89h-5.96z"/><path fill="#43464a" d="M957.47 177.17h5.96v559.89h-5.96z"/></g><path fill="#00629a" d="M611.41 158.82h23.39v610.45h-23.39z" data-name="Blue Stand 2"/><path fill="#595e62" d="M647.3 167.69h11.69v584.56H647.3z" data-name="Blue Gate Border 4"/><path fill="#595e62" d="M958.23 167.69h11.69v584.56h-11.69z" data-name="Blue Gate Border 3"/><path fill="#00629a" d="M981.7 158.82h23.39v610.45H981.7z" data-name="Blue Stand 1"/><path fill="#232628" d="M623.11 433.98h71.77v53.2h-71.77z" data-name="Blue Lock 2"/><path fill="#c1c7cc" d="M647.18 454h59.62v5.99h-59.62z" data-name="Blue Lock 1"/><path fill="#595e62" d="M649.93 173.5h314.14v10.09H649.93z" data-name="Blue Gate Border 2"/><path fill="#595e62" d="M649.93 738.43h314.14v10.09H649.93z" data-name="Blue Gate Border 1"/><path fill="#00557a" d="M968.93 701.57h25.55v11.69h-25.55z" data-name="Blue Gate Extentsion 2"/><path fill="#00557a" d="M969.07 213.17h25.55v11.69h-25.55z" data-name="Blue Gate Extentsion 1"/></svg>