<svg xmlns="http://www.w3.org/2000/svg" data-name="Layer 10" viewBox="0 0 1600 900"><g data-name="Gate Strips"><path fill="#c1c7cc" d="M607.74 251.46h314.14v4.59H607.74zM607.74 333.09h314.14v4.59H607.74zM609.61 423.89h314.14v4.59H609.61zM607.74 519.74h314.14v4.59H607.74zM609.61 599.12h314.14v4.59H609.61zM609.61 678.5h314.14v4.59H609.61z"/><path fill="#c1c7cc" d="M636.15 183.41h5.96V743.3h-5.96zM662.11 179.95h5.96v559.89h-5.96zM687.11 177.86h5.96v559.89h-5.96zM713.17 183.64h5.96v559.89h-5.96zM739.14 180.17h5.96v559.89h-5.96zM764.13 178.08h5.96v559.89h-5.96zM789.12 183.41h5.96V743.3h-5.96zM815.09 179.95h5.96v559.89h-5.96zM840.08 177.86h5.96v559.89h-5.96zM864.32 182.73h5.96v559.89h-5.96zM890.28 179.26h5.96v559.89h-5.96z"/><path fill="#43464a" d="M915.28 177.17h5.96v559.89h-5.96z"/></g><path fill="#9e2896" d="M569.22 158.82h23.39v610.45h-23.39z" data-name="Purple Stand 2"/><path fill="#595e62" d="M605.11 167.69h11.69v584.56h-11.69z" data-name="Purple Gate Border 4"/><path fill="#595e62" d="M916.04 167.69h11.69v584.56h-11.69z" data-name="Purple Gate Border 3"/><path fill="#9e2896" d="M939.51 158.82h23.39v610.45h-23.39z" data-name="Purple Stand 1"/><path fill="#232628" d="M580.91 433.98h71.77v53.2h-71.77z" data-name="Purple Lock 2"/><path fill="#c1c7cc" d="M604.99 454h59.62v5.99h-59.62z" data-name="Purple Lock 1"/><path fill="#595e62" d="M607.74 173.5h314.14v10.09H607.74z" data-name="Purple Gate Border 2"/><path fill="#595e62" d="M607.74 738.43h314.14v10.09H607.74z" data-name="Purple Gate Border 1"/><path fill="#700970" d="M926.74 701.57h25.55v11.69h-25.55z" data-name="Purple Gate Extentsion 2"/><path fill="#700970" d="M926.88 213.17h25.55v11.69h-25.55z" data-name="Purple Gate Extentsion 1"/></svg>