<svg xmlns="http://www.w3.org/2000/svg" data-name="Ebene 1" viewBox="0 0 1869.364 1537.37"><path fill="#66b8b2" d="M829.46 917.547c.33.227.684.397 1.024.627l13.796 107.194 9.7 26.828c.001 12.497-.375 29.115-1.884 42.646 0 0-14.379-1.427-16.535-6.809-7.005-25.167-8.619-26.623-10.766-38.758-2.746-17.46 1.503-22.814 1.503-22.814l-29.583-79.321-.534-1.385a22.9 22.9 0 0 1-1.258-11.836c2.4-14.932 19.59-25.344 34.537-16.372"/><path fill="#116864" d="M741.535 683.528c5.791 10.61 13.43 14.79 21.447 14.505-.623-5.51-.642-7.407-1.173-12.662a61 61 0 0 1-20.274-1.843m-66.477-88.498c-2.087 20.872 34.787 58.68 34.787 58.68s.531-1.484 1.465-3.9c-4.373-8.236-21.555-29.168-12.4-39.256 6.994-7.763 15.86 2.95 21.792 12.104.254-.83.431-1.683.531-2.545 2.824-10.271 2.014-39.694 2.014-39.694s22.277 17.525 47.306 21.7c10.345 1.517 21.642-.365 31.495-3.867-1.064 10.902-3.043 21.733-4.407 32.297 22.19-12.248 19.622-39.694 19.622-39.694s-2.033-12.431-8.35-20.853 6.19-31.418-10.49-39.767-50.056 8.33-50.056 8.33-43.868-12.505-45.882 23.015c0 0-25.156 12.504-27.17 33.358z"/><path fill="#419e98" d="M804.555 777.283c16.322 4.134 21.913 16.942 21.618 33.777l4.455 107.414-1.272-.42c-16.648-5.783-31.527 6.898-34.152 21.577-.517-1.472-18.246-60.516-20.669-82.563-6.687-72.38 6.138-87.477 6.138-87.477z" data-name="Path"/><path fill="#79c5c0" d="m767.916 739.325-67.36-.329 9.23-85.723 1.483-3.9c-5.786-7.323-22.19-30.008-12.816-39.968 7.104-7.653 16.276 3.772 22.19 12.817q.346-1.257.55-2.545c2.013-10.491 2.013-39.694 2.013-39.694s22.923 16.844 47.988 21.019c10.328 1.432 21.4.46 31.234-3.006-.436 10.888-2.247 21.639-4.32 32.336-.806 4.175-1.74 8.35-2.948 12.652-7.14 26.236-12.926 38.888-12.926 38.888a89.5 89.5 0 0 1-20.451 3.661 60.2 60.2 0 0 1-20.14-1.83c6.424 7.067 11.864 10.436 21.339 14.33z" data-name="Path"/><path fill="#54a9a3" d="m807.804 1241.45-9.11 172.66h-55.795c-7.433-61.47-10.47-69.887 1.332-151.23a293 293 0 0 0 1.078-69.7h63.135l-.587 48.257z" data-name="Path"/><path fill="#0e5b57" d="m800.265 1414.11-.4 11.255h-56.18c-.387-3.916-.786-7.632-1.333-11.255z" data-name="Path"/><path fill="#0e5b57" d="M799.666 1446.53h-54.61c1.172 13.998 2.451 30.434 4.116 50.307h47.217zm.306-14.466h-56.101c.293 2.638.52 5.714.812 8.565h54.983z" data-name="Shape"/><path fill="#43464a" d="M775.398 972.33H812l5.487 20.952 3.996 199.885h-81.435c-1.172-16.25-2.837-30.741-4.901-43.954 5.98-34.844 15.863-82.58 28.783-114.134 7.392-21.645 10.056-49.722 11.455-62.748z" data-name="Path"/><path fill="#66b8b2" d="M653.525 1212.267c3.237-5.674 5.17-13.455 6.05-21.78l60.814 2.347c-7.54 37.001-12.72 65.345-12.72 65.345l-26.76 155.93h-50.8c-5.087-121.566-18.007-128.225 23.39-201.842z" data-name="Path"/><path fill="#71767c" d="M645.307 1190.49s.4-11.988 1.958-30.635c8.125-102.68-3.531-143.877 22.495-187.498l105.638-.093c-.586 13.026-2.744 41.623-11.455 62.868-12.92 31.514-22.643 79.29-28.676 114.04-4.41 25.441-6.753 43.955-6.753 43.955l-8.125-.293-61.083-1.851z" data-name="Path"/><path fill="#c1c7cc" d="M749.212 1496.61h47.177l71.925 27.811-.2.187a34.18 34.18 0 0 1-26.425 12.533H740.847zm-152.468 25.947 34.551-25.947h35.443l5.328 40.531h-67.543a9.324 9.324 0 0 1-9.324-9.323 8.5 8.5 0 0 1 1.545-5.261" data-name="Path"/><path fill="#9fddd9" d="M800.785 1425.365h-58.18l.693 6.753h57.354zm-.52 15.077h-56.288l.587 6.753h55.502z" data-name="Shape"/><path fill="#0e5b57" d="m667.031 1496.837 8.71-50.308h-46.004a9250 9250 0 0 0 1.758 50.308zm-37.4-64.76c0 2.745.092 5.622.146 8.432h47.004l1.465-8.378H629.63zm49.534-6.606 1.958-11.361h-51.386c0 3.13-.014 7.046.093 11.361z" data-name="Shape"/><path fill="#9fddd9" d="M628.764 1432.118h49.722l.692-3.716.493-3.037h-51.106l.2 6.753zm.4 15.077h46.778l1.185-6.753h-48.163z" data-name="Shape"/><path fill="#a4abb3" d="m817.588 750.66 15.322 67.651-19.559 10.141 3.95-75.7c-.047-1.561-.276-3.342-.4-4.708z" data-name="Path"/><path fill="#c1c7cc" d="m707.15 972.344-20.566-214.27-35.962-32.992 54.147-24.607 56.404 18.813 3.34-8.994 27.192 10.66c10.171 4.679 28.085 7.574 25.787 45.361 0 .813-3.611 38.883-5.106 94.723-1.224 45.711-.386 111.293-.386 111.293z" data-name="Path"/><path fill="#a4abb3" d="M707.549 972.357H669.76l-18.766-247.155v-.2l.107.093 35.962 32.992z" data-name="Path"/><path fill="#dee0e3" d="M749.652 764.934h-35.963v9.79h35.963z" data-name="Path"/><path fill="#00864a" d="m568.565 884.457 59.538-128.01c10.164-18.038 22.1-27.318 37.67-22.597 23.457 9.097 19.355 24.14 14.757 37.858-8.716 26.134-57.341 116.089-63.875 124.195-34.157 16.984-48.09-11.446-48.09-11.446" data-name="Path"/><path fill="#66b8b2" d="M664.197 534.721c.642.488 1.338.861 2 1.355l24.292 262.293 25.517 87.563-16.683.325a36.78 36.78 0 0 1-29.018-12.936c-8.493-9.923-18.742-22.586-20.08-27.92-10.222-38.995-2.448-81.76-2.448-81.76l-52.114-172.417-.948-2.834a46.1 46.1 0 0 1-1.447-23.909c6.189-29.8 41.699-49.161 70.929-29.76" data-name="Path"/><path fill="#54a9a3" d="M606.698 863.473c21.388-7.53 21.583-6.576 43.924-16.566l21.697-26.097.141 40.114-.484.739c-4.655 6.974-6.328 13.234-13.877 16.886-35.858 17.351-54.158 38.868-89.794 41.523a50.3 50.3 0 0 1-4.019-13.708c-4.541-30.144 17.931-34.263 42.412-42.89z" data-name="Path"/><path fill="#419e98" d="M709.32 814.433c-3.186 16.408-4.323 22.079-9.95 29.266-7.38 7.064-26.809 17.595-26.809 17.595l-.343-40.484z" data-name="Path"/><path fill="#2e908b" d="M1588.214 341.972c-1.385-17.361-16.569-30.322-33.933-28.964a29.6 29.6 0 0 0-6.343 1.19c-24.616 5.43-42.206 27.16-42.39 52.367l-.882 33.607s36.655-21.686 83.548-58.2" data-name="Path"/><path fill="#71767c" d="M1621.592 244.404a79.9 79.9 0 0 1-23.135 2.052c-.616 5.276-1.21 11.168-1.806 16.895l1.868-.493a123 123 0 0 0 23.073-18.475z" data-name="Path"/><path fill="#c1c7cc" d="M1596.671 263.29a9408 9408 0 0 1-5.44 45.571h85.396l-14.492-79.812-4.517-25.332c5.584-7.246 17.347-23.853 17.347-36.067a13.02 13.02 0 0 0-3.162-9.196 7.4 7.4 0 0 0-2.73-2.053c-4.516-2.258-9.504.903-14.164 5.727a86.5 86.5 0 0 0-11.927 16.894c-25.044-1.498-76.487-8.436-88.105-40.87l-2.854 4.228a273.4 273.4 0 0 0 4.106 39.968c.903 4.988 2.053 9.956 3.47 15.088 8.21 30.463 14.943 44.956 14.943 44.956a97 97 0 0 0 23.833 4.229 76.4 76.4 0 0 0 22.58-2.053 115.7 115.7 0 0 1-23.073 18.25l-1.21.471z" data-name="Path"/><path fill="#595e62" d="M1704.69 96.603c.108-35.189-26.682-64.632-61.725-67.836s-66.728 20.894-73 55.52a50.07 50.07 0 0 0-17.49 23.38l-.164.309c-16.936 11.249-32.434 39.762-4.62 67.516l8.54 6.876a254.6 254.6 0 0 1-4.105-39.967l2.853-4.229c11.763 32.27 63.062 39.372 88.106 40.871a86.5 86.5 0 0 1 11.926-16.894c4.66-4.824 9.649-7.842 14.165-5.728a9.3 9.3 0 0 1 2.73 2.053 13.02 13.02 0 0 1 3.058 9.176c-.143 12.317-11.762 28.739-17.346 36.067l4.517 25.332c28.739-44.956 26.85-73.018 23.997-86.217a66.45 66.45 0 0 0 18.475-46.31z" data-name="Path"/><path fill="#b6ede8" d="M1734.146 701.21a255 255 0 0 0-24.14-44.197 428 428 0 0 0-20.816-28.739l69.384-238.574c5.46-2.929 12.023-57.937-34.835-72.71-2.053-.616-44.669-14.8-44.669-14.8l-7.698-22.54-82.665 2.012s-58.936 84.636-87.49 119.328l-1.52 2.422c-15.23 19.912-21.718 40.727-12.316 81.455 1.068 4.536 2.053 8.909 3.161 13.425 13.836 60.352 28.411 129.9 28.411 129.9l-14.944 27.323-11.147 82.111v285.337s4.66.595 12.666 1.498c15.99 1.807 45.715 4.68 80.715 6.344 22.93 1.046 48.261 1.662 73.47.903 11.002-.308 21.861-.903 32.72-1.663 20.077-1.52 36.95-2.71 50.992-3.613 51.155-3.47 66.53-3.47 66.53-3.47s-61.993-286.65-75.952-321.65z" data-name="Path"/><path fill="#419e98" d="M1588.659 281.518s-12.615 15.394-40.769 32.475l-44.931 84.855 1.005-1.213c5.42-5.563 83.2-109.876 84.695-116.117" data-name="Path"/><path fill="#54aba4" d="m1720.393 313.028-11.578-3.797-17.777 84.841c-2.874 21.575-31.08 25.208-31.08 25.208s16.587 13.713 10.408 30.32c-11.618 30.915-48.425 72.114-48.425 72.114l.76 131.378 85.478.74-10.388-216.713s21.487-119.526 22.602-124.09z" data-name="Shape"/><path fill="#18837e" d="m1739.832 507.694 14.637-125.508a219 219 0 0 0 1.355-13.137c.143-3.162.308-6.036.308-8.889-.165-23.997-8.745-39.537-36.807-46.475l-23.094 124.912 11.167 215.275h56.432z" data-name="Path"/><path fill="#8a9097" d="M1576.76 1471.989c24.88-93.238 59.284-204.724 13.568-372.93-5.275-19.46-5.583-43.6-2.71-70.595-35.143-1.662-64.724-4.536-80.715-6.343l2.258 65.176s40.44 385 40.748 385h26.686v-.308z" data-name="Path"/><path fill="#c1c7cc" d="M1799.425 1471.989c-10.1-327.81 20.22-314.384-54.317-448.061-14.185.923-31.079 2.052-50.991 3.777-10.695.76-21.718 1.355-32.721 1.663 9.463 41.856 15.621 70.451 15.621 70.451l95.024 372.478h.616l26.85-.308z" data-name="Path"/><path fill="#0a4f4b" d="m1549.909 1472.276-127.93 44.197.288.451a54.42 54.42 0 0 0 42.246 19.913h124.604L1576 1473.036l-.144-.76zm306.275 41.569-57.17-42.103-26.994.308-4.988 65.32h76.795a15.15 15.15 0 0 0 15.088-15.232 14.6 14.6 0 0 0-2.73-8.21z" data-name="Path"/><path fill="#419e98" d="M1661.108 419.342s28.205-3.757 31.08-25.188l16.873-84.841c-26.111-10.716-37.689-29.663-37.689-29.663l-49.43 242.064s37.79-41.035 49.266-71.95c6.487-16.607-10.1-30.34-10.1-30.34z" data-name="Path"/><path fill="#54aba4" d="m1862.32 567.294-91.211-211.163c-12.912-30.587-32.845-45.346-59.284-42.883-15.807 28.164-18.866 58.402-10.9 96.194 7.964 37.791 40.027 93.39 62.3 127.405 43.108-7.39 79.163-2.177 97.371 27.383z" data-name="Path"/><path fill="#8a9097" d="m1570.047 605.406-44.936-19.87-20.322 4.823 9.053 12.645 9.853-1.847 5.522 3.962z" data-name="Path"/><path fill="#c1c7cc" d="M1860.043 563.488c-18.208-29.478-55.425-33.85-98.533-26.46-61.584 10.633-135.176 45.53-183.457 66.633-3.388 1.478-47.748-3.613-47.748-3.613l13.281 58.669 42.493-17.88s283.654-52.1 283.285-53.721a70.4 70.4 0 0 0-9.3-23.628z" data-name="Path"/><path fill="#18837e" d="m1354.723 560.682 158.715-35.71 50.904 226.247-158.715 35.71z"/><path fill="#8a9097" d="M1505.938 663.52c9.895 5.358 37.648-4.803 37.648-4.803l-13.22-58.669-67.741 28.35c0 .143 33.44 29.95 43.313 35.122" data-name="Path"/><path fill="#fff" d="m1413.297 574.55 53.132-11.955 6.858 30.48-53.132 11.955z" data-name="Rectangle"/><path fill="#8a9097" d="M1398.413 663.48c-8.108 7.78-37.524 5.398-37.524 5.398l-2.977-60.023 72.771 9.176c0 .164-24.202 37.833-32.331 45.448z" data-name="Path"/><path fill="#66b8b2" d="m737.772 819.625-6.06 13.17-44.947-27.178-7.175-53.549z" data-name="Path"/><path fill="#a4abb3" d="m679.585 317.293-10.616 216.573-71.944 61.961" data-name="Path"/><path fill="#116864" fill-rule="evenodd" d="M395.999 481.662 385.958 364.45l-26.511-63.272-42.635-3.116 27.646 200.74 9.63 3.77 41.91-20.909z" data-name="Path"/><path fill="#18837e" d="M614.392 60.239a.56.56 0 0 0-.146-.46 32 32 0 0 1 2.088 2.61s3.36-13.068 3.438-25.047c.002-.224-.05-.392-.077-.588a9 9 0 0 1-.146-1.983c3.465 9.102 6.826 25.927-5.908 40.414.54-4.992.797-10.01.772-15.03l-.02.084zm-45.924 129.069c-8.334-5.117-16.073-11.415-22.995-18.322 7.723 1.573 15.074 2.15 22.431 2.311.626 5.365 1.232 11.043 1.69 16.7l-1.23-.605z" data-name="Path"/><path fill="#18837e" d="M472.63 66.71c-1.69-15.636 20.563-28.996 20.563-28.996s0-11.96 18.787-27.304 39.266-5.052 56.362-6.889 36.365-6.91 50.1 0c12.88 6.43 1.378 25.155 1.545 37.262-.031.7.018 1.4.146 2.088 1.691 11.96-3.382 25.613-3.382 25.613a31 31 0 0 0-2.087-2.61c-3.528-4.174-10.438-11.96-15.322-14.403-6.91-3.382-10.292 1.67-28.996 6.889s-37.575-8.58-37.575-8.58c10.27 28.996-5.824 34.673-10.896 43.107-1.284 2.25-2.284 5.505-2.37 8.094-6.477-9.771-15.353-23.124-23.181-14.398-9.665 10.604 7.055 37.575 15.489 49.87l-3.82 8.35c-.48 0-33.15-57.99-35.3-78.093z" data-name="Path"/><path fill="#66b8b2" d="M575.565 235.004h-79.074l10.96-90.66 3.84-8.35c-8.35-12.275-25.154-39.287-15.49-49.87 7.975-8.747 17.64 3.527 23.464 13.652.007-2.595.73-5.137 2.088-7.348 5.072-8.6 21.167-14.112 10.897-43.107 0 0 18.787 13.652 37.574 8.58 18.788-5.073 22.232-10.27 28.975-6.91 6.471 2.421 15.385 14.383 15.552 14.612s.125 6.138-.668 15.218a234.5 234.5 0 0 1-7.056 43.838c-8.12 30.06-14.884 44.484-14.884 44.484a103.4 103.4 0 0 1-23.526 4.154 73 73 0 0 1-22.399-2.087 131.5 131.5 0 0 0 23.86 18.787z" data-name="Path"/><path fill="#c1c7cc" d="m630.78 1475.894 112.286 41.124-.293.46a54.28 54.28 0 0 1-41.75 19.622H541.957l12.525-61.039c26.386-.313 58.91.752 71.497 0h4.801zM338.3 1513.97l53.399-40.351h60.537l4.905 63.522H350.533a14.78 14.78 0 0 1-12.128-23.17z" data-name="Path"/><path fill="#02201e" d="m655.182 640.479 2.943 26.156-11.376 406.143-15.343 403.638H516.969c3.674-252.587 5.511-200.4 30.06-370.03 10.124-69.951.46-136.835-13.506-199.898 15.03-61.831 29.235-121.589 43.055-155.114 18.244-44.651 18.627-110.895 18.627-110.895z" data-name="Path"/><path fill="#053634" d="M363.434 1473.953c0-320.326 53.19-488.6 52.438-518.054-4.3-164.766-5.26-204.574 24.653-314.189h156.562s.167 65.047-18.078 109.531c-13.819 33.588-30.226 94.647-45.256 156.333-23.172 95.252-68.992 566.379-68.992 566.379z" data-name="Path"/><path fill="#c1c7cc" d="M440.525 641.71h218.728v-93.686l1.064-49.077 2.693-63.022 16.262-111.994c.146-2.296.313-4.51.313-6.597a90.08 90.08 0 0 0-43.566-78.114l-65.046-36.51h-70.349l-55.319 22.274 18.788 77.425z" data-name="Shape"/><path fill="#a4abb3" d="M495.405 641.71h-54.817L411.05 256.797l-.314-4.76v-.146l.147.147 53.69 49.244z" data-name="Path"/><path fill="#71767c" d="m419.984 468.887 35.32-69.117 43.128 54.275-37.763 25.884a6154 6154 0 0 1-35.717 23.568s-.208-1.064-34.214 35.676a23.76 23.76 0 0 1-17.451 7.786c-28.557.584-36.907-39.14-11.001-51.165z" data-name="Path"/><path fill="#18837e" d="M631.93 555.998c-.751 2.088-14.612 4.3-15.635 6.45a91 91 0 0 1-6.596 13.507c-5.824 9.498-60.287 11.815-60.287 11.815l16.094-60.767 69.785 19.643c0-.146-1.356 3.987-3.36 9.352z" data-name="Path"/><path fill="#66b8b2" d="m391.03 371.067 37.784 54.65s75.505 79.116 108.947 110.637l27.763-9.352-16.115 60.747s-22.963-8.747-31.313-12.129L340.137 439.098c2.61-3.695 24.716-33.4 50.935-67.969z" data-name="Path"/><path fill="#dee0e3" fill-rule="evenodd" d="M445.305 224.984c-27.763 4.467-46.927 15.343-55.38 49.098L340.22 438.848l88.656-13.13s34.172-56.822 37.303-106.985c1.545-23.943 0-67.196-21.02-93.75h.145z" data-name="Path"/><path fill="#02201e" d="m349.552 1086.785-35.487 385.06c-3.528.918-30.457 6.137-31.98-.167-24.863-93.27-59.223-204.805-13.653-373.098 4.175-15.177 5.219-32.983 4.175-52.772 28.995-1.837 55.381-4.739 78.698-8.35l-1.67 49.244z" data-name="Path"/><path fill="#71767c" d="M309.493 1471.845v-.126l.46-.146-.46.313z" data-name="Path"/><path fill="#053634" d="m182.01 1099.206-95.107 372.639s-27.617 3.214-27.472-.314c9.666-311.036-17.18-314.96 43.588-428.479 31.312 2.756 61.518 4.3 90.347 4.614-7.056 31.291-11.356 51.54-11.356 51.54" data-name="Path"/><path fill="#b6ede8" d="M150.504 582.996h191.583l15.573 31.396c1.064 6.743 8.989 114.325 8.822 121.235 0 0 27.763 293.627 27.012 293.92-12.525 2.922-26.845 5.531-42.502 7.994-23.317 3.528-49.849 6.43-78.698 8.35-24.695 1.545-51.248 2.317-79.158 2.088-28.85-.313-59.076-1.691-90.368-4.614-25.926-2.296-52.605-5.657-79.763-9.957-1.294-.626 29.324-378.915 127.499-450.412" data-name="Path"/><path fill="#18837e" fill-rule="evenodd" d="m281.353 1471.364-14.612 65.777h124.811a58.01 58.01 0 0 0 43.316-21.146l.313-.46-121.2-44.17zm-194.366.356 4.905 65.338H15.031c-8.296-.012-15.019-6.734-15.03-15.03a14.32 14.32 0 0 1 2.755-8.559l55.695-42.042z" data-name="Path"/><path fill="#71767c" d="M230.815 183.735a78 78 0 0 0 23.777 2.087c.605 5.824 1.294 12.087 1.753 18.224a135.7 135.7 0 0 1-25.53-20.311" data-name="Path"/><path fill="#a4abb3" d="M261.815 251.244h-89.45l15.197-83.5 4.76-26.532c-5.845-7.681-18.12-25.05-18.12-37.888a13.1 13.1 0 0 1 3.382-9.665c9.978-10.896 23.923 10.27 30.227 21.46 26.219-1.524 79.972-9.102 92.246-43.003l3.027 4.655a273 273 0 0 1-4.467 41.876 183 183 0 0 1-3.528 15.802c-8.58 31.918-15.635 47.115-15.635 47.115a106.4 106.4 0 0 1-24.862 4.258 79.8 79.8 0 0 1-23.318-2.087 133.4 133.4 0 0 0 25.322 20.102 2565 2565 0 0 0 5.219 47.24z" data-name="Path"/><path fill="#02201e" d="m314.023 281.597-2.902-174.118c24.55-27.91 8.747-55.841-8.141-67.343l-.292-.313c-6.45-16.554-19.184-30.665-43.587-34.047-59.515-8.288-84.21 18.411-94.501 63.668a93 93 0 0 0-2.756 12.734l-35.487 199.419zM177.813 93.722c9.979-10.897 24.09 10.437 29.915 21.626 26.24-1.69 80.097-8.892 92.371-42.793L303.001 77a255 255 0 0 1-4.447 41.875c-.918 5.073-2.15 10.438-3.527 15.803-8.58 31.75-15.51 46.864-15.51 46.864a106 106 0 0 1-25.05 4.363c.605 5.907 1.231 12.295 1.837 18.432l5.678 47.094h-89.429l15.176-83.625 4.76-26.532c-5.824-7.661-17.953-25.008-18.099-37.888a13.78 13.78 0 0 1 3.361-9.665h.063z" data-name="Shape"/><path fill="#116864" d="M302.813 257.716c23.171 5.218 55.548 28.369 59.076 51.853l-9.832 37.888c-35.446-54.463-49.244-89.741-49.244-89.741m-124.13 325.28h-29.617L84.002 335.663c-1.107-.968-15.36-59.815 36.05-75.442l62.205 322.775z" data-name="Path"/><path fill="#18837e" d="M342.087 582.996H180.468l-61.459-323.172v-.94c1.983-.626 46.78-15.489 46.78-15.489l8.601-21.188h85.9l7.578 21.21 29.601 12.107 5.678 2.296s13.798 35.3 49.244 89.762l1.065 1.67c15.969 20.875 22.712 42.502 12.9 85.295l-24.269 148.45z" data-name="Path"/><path fill="#66b8b2" d="M34.32 514.185 71.142 314.58c6.596-34.047 23.922-53.523 51.394-56.592 22.232 25.3 31.897 55.673 31.897 96.192 0 63.042-52.313 179.524-52.313 179.524-14.111-17.221-35.592-25.509-67.802-19.518z" data-name="Path"/><path fill="#71767c" d="M184.16 844.468c-56.613 28.703-84.064-38.953-84.064-38.953l56.759-8.35z" data-name="Path"/><path fill="#a4abb3" d="M34.32 514.185c32.21-5.97 55.067 1.775 68.26 19.727 27.785 37.575 25.05 187.311 25.05 187.311l29.225 75.943-56.759 8.35-3.402-45.633z" data-name="Path"/><path fill="#a4abb3" d="m190.485 789.108-4.28 13.193-39.892-19.33-12.525-42.501z" data-name="Path"/><path fill="#b2b9c0" fill-rule="evenodd" d="m455.304 399.77-54.588 44.422a58.24 58.24 0 0 0 45.8 20.081l51.916-10.312-43.128-54.275z" data-name="Path"/></svg>