<svg xmlns="http://www.w3.org/2000/svg" data-name="Ebene 1" viewBox="0 0 330.001 841.004"><path fill="#005587" d="m170.187 806.063.764 2.124-64.93 22.117c-.08 0-.08.074-.08.147 5.636 6.362 13.97 10.06 22.86 10.06h66.836c.08 0 .159-.074.159-.148l-7.065-32.176.765-2.075z"/><path fill="#c1c7cc" d="M41.348 229.517 2.515 203.185l5.695 32.767 16.2 4.512c10.799 3.033 19.748 5.474 19.748 5.474s59.214 34.394 80.22 46.081c2.423-12.257 4.623-30.26-6.781-38.434l-76.25-24.068z"/><path fill="#003253" d="M152.977 125.159c-11.906 2.515-21.51 11.391-23.257 22.708l-4.453 31.226c22.25-28.235 27.63-53.73 27.71-53.934"/><path fill="#005587" d="m328.502 828.466-30.326-20.73.069-.815-16.345-.02.967 1.206-2.203 32.897 41.352-.543c4.524-.06 8.044-3.51 7.981-7.65.055-1.629-.523-3.1-1.495-4.346z"/><path fill="#001d33" d="m161.267 331.275.045-3.283-23.279-.858-1.135 4.14-7.7 17.03c-2.473 6.752-3.931 33.58-4.048 44.774-1.816 44.439 2.268 120.605 6.588 198.038l21.512 217.06 48.023.084c7.7-78.501-1.19-115.633-25.798-210.498-7.858-30.238 4.763-79.747 17.146-130.835 3.878-31.55-5.863-70.658-12.214-86.69-9.207-23.676-19.06-44.061-19.14-48.962"/><path fill="#002742" d="M153.33 808.333v-.147h-.24z"/><path fill="#003253" d="M314.624 806.1c-21.035-192.804-15.161-175.194-57.47-253.86-5.159-9.637-5.873-23.841-5.397-40.788 2.381-94.117 17.542-127.345-20.876-180.177l-.912-3.926h-69.193l.411 3.926c.08 4.9.715 38.46 9.923 62.053 6.27 16.115 13.97 43.694 21.431 73.6 15.162 60.972 29.45 131.166 29.45 131.166l51.198 210.166c.08-.084 41.673-.25 41.435-2.16"/><path fill="#003e64" d="M204.769 331.275h26.036c.618-5.779 36.162-169.196 35.556-174.723.317-9.534-1.871-20.305-10.476-26.346-2.502-1.791-7.003-3.219-10.002-4.142-7.865 34.886-33.8 172.3-41.114 205.21z"/><path fill="#656a6f" d="m50.295 230.332-18.862-53.109a5.2 5.2 0 0 0-4.734-3.402h-2.367c2.145 0 3.994 1.331 4.66 3.328l18.714 52.591c.888 2.589-.444 5.474-3.033 6.361-.517.222-1.11.296-1.701.296l-16.917-.005-.127-.027 19.559.698c2.81 0 5.104-2.22 5.104-5.03 0-.592-.075-1.184-.296-1.701"/><path fill="#8a9097" d="m47.857 229.739-18.714-52.591c-.74-1.997-2.589-3.328-4.66-3.328h-2.219l-17.234-.074c-2.737 0-5.03 2.219-5.03 5.03 0 .591.074 1.109.296 1.7l18.714 52.591c.74 1.997 2.588 3.329 4.66 3.329h2.514l16.865.074c2.737 0 5.03-2.22 5.03-5.03.074-.592 0-1.183-.222-1.701"/><path fill="#d0d4d8" fill-rule="evenodd" d="m2.515 203.185 30.549 1.035c.887 6.287-1.48 16.125-8.21 20.785L8.135 235.952l-5.621-32.768z"/><path fill="#c1c7cc" d="M211.24 461.898c29.132 13.758 46.173-23.662 46.173-23.662l.04-2.688-27.973-4.565-1.219 2.832-17.02 28.083z"/><path fill="#e0e2e5" d="M291.287 279.303c-16.154-5.164-28.71 1.483-34.986 9.393-14.99 18.892-13.018 106.141-13.018 106.141l-15.081 39.035 29.21 4.364c1.397-6.475 33.875-158.933 33.875-158.933"/><path fill="#e0e2e5" d="m208.84 432.014 2.223 6.362 22.675-14.176 6.35-20.415-31.247 28.23z"/><path fill="#003253" d="m119.927 221.057-4.779 31.738c10.573 7.1 11.197 22.13 9.23 39.224l8.752-6.452c1.39-25.94-2.474-34.722-13.203-64.51"/><path fill="#00629a" d="m205.816 331.275 40.067-205.95c-1.032-.333-21.729-7.572-21.729-7.572l-5.021-9.589h-44.214l-3.392 9.59-18.55 7.405s-7.348 21.292-25.525 50.672l-.556.916c-8.175 11.236-11.668 22.972-6.588 46.027 1.667 7.574 6.853 24.97 8.52 32.96 5.08 24.054 8.07 75.54 8.07 75.54z"/><path fill="#007bc0" d="M272.316 152.47c-3.414-16.346-12.304-25.666-26.433-27.145-11.43 12.204-16.431 26.702-16.431 46.155 0 30.253 26.909 117.216 26.909 117.216 7.382-8.284 18.415-12.204 34.926-9.394l-18.971-126.831z"/><path fill="#c1c7cc" d="M174.766 91.424a224 224 0 0 0-.756 7.66l1.135.21c5.692-1.41 10.302-6.986 13.63-10.315-3.698.814-10.835-.644-13.997 2.257z"/><path fill="#003253" d="M180.078 38.347c-12.722-8.95-29.069-15.681-29.069-15.681-.074-.074-.074-.148-.074-.222-8.062 6.065-14.868 19.823-1.405 33.285l4.671 3.339c-1.257-6.657-1.997-13.388-2.145-20.12l1.098-2.007c5.917 16.273 31.732 19.75 44.306 20.49a47 47 0 0 1 2.959-4.66c-3.624-6.214-11.687-10.652-20.341-14.424"/><path fill="#56b0ff" d="M222.269 55.717a17 17 0 0 0 0-2.737c.295-3.55.813-10.208.813-12.944C222.27-11.52 165.24-4.42 154.81 12.52a17.6 17.6 0 0 0-1.775 3.772c-2.219.444-3.032 4.364-2.367 6.213 0 .074.074.148.074.222 0 0 16.347 6.731 29.07 15.681 8.654 3.773 16.87 8.319 20.42 14.532 1.702-2.367 3.471-4.842 5.542-6.1 1.997-1.33 4.142-1.553 5.917.444.888.962 1.406 2.22 1.554 3.477.814 6.73-6.731 16.864-9.32 20.045 0 .074 0 .148.074.222v.074-.074c.148 1.183 1.183 17.604-20.341 27.442-2.363 1.021-5.712 1.1-8.744.73l-.84-.226c.295-2.663.482-5.223.704-7.738a47.3 47.3 0 0 1-11.623-2.07s-3.163-6.954-7.175-21.354c-.37 11.169-1.243 27.403-1.909 32.58-.888 6.954-3.267 25.283-3.193 25.283 42.975 15.089 60.962 2.234 67.767-6.05 11.169 10.947 23.718 4.484 23.718 4.484s-21.13-49.013-20.094-68.392"/><path fill="#e0e2e5" d="M204.464 70.699c0-.075 0-.149-.075-.297 2.596-3.263 10.16-13.35 9.345-20.098-.148-1.335-.667-2.522-1.557-3.486-1.78-2.002-3.857-1.78-5.933-.445s-4.005 3.634-5.711 6.007c-1.187 1.706-2.15 3.338-2.967 4.673-12.607-.742-38.49-4.302-44.423-20.543l-1.409 2.15c.223 6.75.89 13.498 2.15 20.173.446 2.447 1.039 5.043 1.706 7.638.149.445.223.816.371 1.261 4.005 14.462 7.194 21.433 7.194 21.433a50.5 50.5 0 0 0 11.94 2.151 39.6 39.6 0 0 0 11.05-.89 63.5 63.5 0 0 1-11.05 8.825c3.041.371 6.23.297 8.826-.89 21.73-9.937 20.617-26.401 20.543-27.662"/></svg>