<svg xmlns="http://www.w3.org/2000/svg" data-name="Ebene 1" viewBox="0 0 1874.51 1303.837"><path fill="#b2b9c0" d="m1434.194 650.898-253.272 4.523 271.747-415.283h183.611c39.305 0 43.236 2.84 49.208 7.127z"/><path fill="#b2b9c0" d="m1475.429 255.223-267.63 382.217-20.95-14.668c-9.583-11.946 6.805-51.266 57.605-126.857l127.769-182.473c41.924-50.509 70.558-77 82.257-72.888zm278.13 428.99h28.128v619.625h-28.128z"/><path fill="#8a9097" d="m1553.455 445.979 26.248-10.11 86.61 224.87-26.248 10.11z"/><path fill="#b2b9c0" d="M363.523 684.213h28.128v619.625h-28.128z"/><path fill="#979ea4" d="M1496.934 684.213h28.128v619.625h-28.128zm-1390.036 0h28.128v619.625h-28.128z"/><path fill="#c1c7cc" d="m1413.133 636.228 272.355-388.963 20.949 14.668-272.355 388.964z"/><path fill="#d0d4d8" d="M268.643 650.898h1605.866v33.315H268.643z"/><path fill="#c1c7cc" d="M0 650.898h268.643v33.315H0z"/><path fill="#979ea4" d="M120.961 920.381h242.561v22.149H120.961zm1390.036 0h242.561v22.149h-242.561z"/><path fill="#116864" fill-rule="evenodd" d="m1251.355 240.138-100.386 192.49 73.09 22.194z"/><path fill="#02201e" d="M1160.74 485.786c-72.007-42.132-224.181-57.854-224.181-57.854L478.75 528.71l3.765 39.478c131.261-7.052 247.085 19.922 364.23-23.673 0 0 70.391-11.829 98.48-9.595a609 609 0 0 0 151.458 31.196s89.765-60.853 64.057-80.33" data-name="Path"/><path fill="#8a9097" d="M1365.874 170.926c-.76 2.599-1.501 5.198-2.281 7.932 8.848-3.49 17.887-8.139 25.814-13.396-7.267-.256-14.769-.77-21.35-1.91a770 770 0 0 0-2.183 7.374" data-name="Path"/><path fill="#a4abb3" d="M1359.013 194.425c-4.656 15.403-8.396 27.417-8.396 27.417l81.417 14.624-.097-29.082-.03-49.512-.092-25.054c6.553-6.03 20.532-19.765 22.768-31.456a12.7 12.7 0 0 0-1.492-9.333c-7.267-11.587-23.589 5.55-31.096 14.565-23.59-5.686-71.24-21.163-77.068-54.004l-3.384 3.574a254.7 254.7 0 0 0-2.826 38.921c-.002 4.996.258 9.99.78 14.958 2.656 30.383 6.461 45.486 6.461 45.486a96.7 96.7 0 0 0 15.956 6.47c1.925.623 3.967 1.13 6.027 1.657a74 74 0 0 0 20.808 1.996 129.5 129.5 0 0 1-25.252 13.157 2371 2371 0 0 1-4.522 15.596z" data-name="Path"/><path fill="#b6ede8" d="M1469.099 88.44a81.4 81.4 0 0 0-.356-14.88c-1.941-42.811-20.023-71.105-75.578-73.503-22.854-.942-36.766 9.94-45.291 23.788-.174.115-.194.27-.329.23-15.016 6.658-31.38 24.952-23.46 48.895-21.744 16.066-31.841 43.53-25.683 69.853 6.157 26.324 27.389 46.46 54.002 51.214 2.08.373 4.2.611 6.454.888 1.461-4.929 3.116-10.107 4.637-15.402.76-2.6 1.54-5.334 2.3-7.933s1.56-5.488 2.3-7.933c-2.06-.527-4.255-1.113-6.161-1.735a97.7 97.7 0 0 1-15.937-6.413s-3.576-14.524-6.521-44.907a383 383 0 0 1-.76-14.958 237.5 237.5 0 0 1 2.825-38.921l3.365-3.574c5.674 32.782 53.342 48.356 77.068 54.004 7.526-9.014 23.83-26.094 31.115-14.565 1.68 2.803 1.935 6.612 1.213 9.799-2.827 11.441-15.953 24.42-22.487 30.43l-.084 25.614.03 49.511c27.406-2.277 50.696-20.941 58.89-47.192 8.192-26.251-.346-54.85-21.59-72.31z" data-name="Path"/><path fill="#116864" fill-rule="evenodd" d="m1315.256 209.149-8.753.026c-22.434.02-44.95 13.271-56.595 33.385l-31.304 60.794 103.557-62.163z" data-name="Path"/><path fill="#8dd2cd" d="M1469.46 248.965c-1.549-.937-35.114-24.796-35.114-24.796l.006-20.336-76.396-17.006-14.585 17.09-28.134 5.227s-29.878 27.783-76.233 73.972c-18.752 18.69-35.512 33.044-42.15 72.536-10.223 60.906-31.813 136.696-31.813 136.696l141.594 74.287z" data-name="Path"/><path fill="#053634" d="M1094.08 480.779a862 862 0 0 0-104.982 2.377l-43.116 94.057c46.609 23.197 172.457 35.216 252.008 34.16 27.673 6.652 77.525 6.799 98.09-17.769s26.31-61.177 26.31-61.177c-21.259-13.776-33.61-17.813-58.081-24.127a985 985 0 0 0-109.055-21.854c-22.013-3.01-42.712-4.956-61.174-5.667" data-name="Path"/><path fill="#053634" d="m1248.968 490.723-6.051 30.795-81.611-33.406z" data-name="Path"/><path fill="#116864" fill-rule="evenodd" d="m1270.64 403.886-65.993 173.254 133.984 50.736 137.248-306.639c18.128-32.65 19.42-61.248-10.523-76.897-7.963-4.142-24.923-18.955-28.087-27.181-4.129-10.634-2.989-13.184-2.989-13.184l-163.658 199.907.019.004z" data-name="Path"/><path fill="#18837e" d="m487.046 526.604-130.795-37.287-.009.519a55.99 55.99 0 0 0 23.41 41.863l104.415 74.318 23.536-45.495z" data-name="Path"/><path fill="#18837e" d="M570.764 554.213 493.916 440.61l-.338.38a55.99 55.99 0 0 0-9.068 47.101l31.977 124.134 47.138-19.428 7.139-38.583z" data-name="Path"/><path fill="#053634" d="m989.7 484.677-.304-1.242-419.671 69.243-6.221 39.884c143.907 14.991 242.056 14.542 308.087 4.184 121.961-19.042 130.185-60.834 118.108-112.07z" data-name="Path"/><path fill="#8a9097" d="M1009.502 502.389c10.234 3.295 37.92-5.333 37.92-5.333l-25.714-59.81-59.503 39.389s37.08 22.448 47.297 25.754" data-name="Path"/><path fill="#a4abb3" d="M1084.038 445.907c-3.396 1.21-62.33-8.661-62.33-8.661l25.714 59.81 41.573-14.247-4.499-37.052z" data-name="Path"/><path fill="#66b8b2" d="M1354.031 465.626c-10.927-31.646-44.994-43.852-87.171-46.14-60.287-3.159-137.362 13.774-187.381 23.247l11.087 46.888s267.11 1.922 267.142.22a70.1 70.1 0 0 0-3.689-24.275z" data-name="Path"/><path fill="#419e98" d="M1474.35 324.648c25.584-37.94 20.475-58.98 1.403-73.531-31.164 1.631-52.528 18.041-79.355 44.094s-70.811 95.435-87.077 131.165c32.808 11.106 47.221 30.926 48.387 63.465z" data-name="Path"/><path fill="#1a1c1d" d="M1340.124 364.492c-6.762-5.538 31.766-58.399 38.527-52.86l69.354 52.506c6.838 5.018-32.906 59.176-39.744 54.158z"/><path fill="#8a9097" d="m1587.193 595.123-24.009 37.426v18.272h93.29V632.55z"/><path fill="#b2b9c0" d="m1685.112 595.123 69.28 40.139h-97.919l-69.28-40.139z"/><path fill="#def5f3" d="m1676.452 601.153 25.723 14.903h-63.28l-25.722-14.903z"/><path fill="#979ea4" d="M1656.473 635.262h97.919v15.559h-97.919z"/><path fill="none" stroke="#1a1c1d" stroke-miterlimit="10" stroke-width="2.49" d="M1424.623 402.862c17.283 18.434 25.63 66.85 25.63 109.99 0 65.252 32.675 127.843 80.692 127.829 23.907-.008 32.24-12.805 56.934-12.805"/><path fill="#b2b9c0" d="M1413.133 650.898H45.177V623.18c6.529-9.486 82.754-16.118 230.66-19.865h928.303c127.276 3.039 203.67 9.242 208.993 19.865v27.717z"/><path fill="#a4abb3" d="M45.177 623.181h247.521v27.717H45.177z"/></svg>