<svg xmlns="http://www.w3.org/2000/svg" data-name="Ebene 1" viewBox="0 0 1881.273 1853.441"><path fill="#a4abb3" fill-rule="evenodd" d="m1243.787 1113.728 264.356.85 264.356-.85c0 36.255-29.378 65.632-65.633 65.632l-12.17.051 37.254 671.843h-42.103l-37.244-671.666-127.784.536v.14l-16.676-.07-16.677.07v-.14l-127.783-.536-37.245 671.666h-42.103l37.255-671.843-12.171-.05c-36.255 0-65.632-29.378-65.632-65.633"/><path fill="#c1c7cc" d="M1344.934 1718.257c.22-.03-.41.28.03.22l39.95-5.419.15 1.098c.379-.499-.34-.848-.21-1.536 15.964-126.232.512-281.18-61.222-477.573-46.64-1.051-162.863-205.606-205.953-203.562z"/><path fill="#001222" d="m1330.88 1688.997-128.94 158.892.727.33c23.414 7.88 49.015 5.01 70.087-8.085l159.923-99.383-40.38-55.085h-2.466z"/><path fill="#d0d4d8" d="M973.51 1400.794c.198.102-.495-.007-.101.197l35.822 18.498-.508.984c.597-.19.21-.89.711-1.378 85.538-94.195 190.172-201.713 252.37-397.96-37.586-27.635-54.053-135.097-90.509-158.16l-197.784 537.819z"/><path fill="#001222" d="m975.424 1379.794-166.392 98.328.546.583c18.635 16.217 43.394 23.335 67.869 19.272l185.745-30.836-28.567-67.613-2.467-2.467z"/><path fill="#00a4fd" d="M1712.518 1012.254c2.467 125.803-90.035 105.415-90.035 105.415h-159.884c-8.634 121.071 62.9 259.659 62.9 259.659-44.4 24.667-192.403 4.933-330.538-167.737-77.047-96.309-150.47-17.267-150.47-17.267l125.803-337.939 165.727-11.712h260.057z"/><path fill="#001222" d="M1707.28 336.148c-.886-17.057-3.767-34.335-10.19-49.84-13.735-32.342-36.107-60.031-62.689-77.31-22.595-15.063-38.1-38.765-42.752-65.347-2.436-13.734-5.094-27.91-7.31-38.322-14.841-65.347-50.504-103.89-136.675-91.929-35.442 4.873-53.828 25.474-63.132 49.176 0 .222-.221.222-.221.443-25.475 17.279-48.955 60.252-7.09 102.34v62.69c-.221.664-.443 1.328-.885 1.993-8.86 20.822-23.703 55.6-23.703 77.088 0 42.088 14.842 71.992 24.589 87.055v78.86l338.697-5.981s15.284-13.07 23.923-45.854c6.645-25.917 4.208-51.613-32.563-85.062zm-319.869-227.94c18.165 50.285 99.683 58.038 136.232 58.924 2.437-5.538 23.037-48.54 40.98-29.048 15.506 17.057-10.633 54.493-21.488 68.67l28.798 159.963H1442.57s3.986-33.227 8.196-68.227q1.329-13.29 2.659-25.917c-12.184-.664-24.367-2.88-36.107-6.424 0 0-10.19-22.151-22.595-68.005-7.089-27.246-11.075-55.379-11.74-83.511l4.43-6.424z"/><path fill="#c1c7cc" d="M1487.314 268.57c-11.076 2.658-22.518 3.48-33.89 2.88-.886 8.418-1.683 17.352-2.57 26.213 13.291-8.196 25.328-17.903 36.182-28.758z"/><path fill="#d0d4d8" d="M1453.643 273.9c11.298.664 22.595-2.671 33.671-5.33-10.854 11.076-23.168 20.897-36.46 29.093-3.986 35-8.065 68.14-8.065 68.14h129.143l-28.797-159.049c10.854-14.177 36.994-51.613 21.488-68.67-17.943-19.493-38.321 23.731-40.98 29.048-36.771-.887-118.066-8.86-136.23-58.923l-4.43 6.424c.885 28.132 3.926 55.187 11.014 82.433 12.405 45.853 23.2 70.822 23.2 70.822s24.042 5.347 36.446 6.011z"/><path fill="#9dc9ff" d="M1380.544 370.845c-33.449 7.532-60.252 34.335-65.347 68.227l-5.76 61.36c51.17-78.638 71.107-129.587 71.107-129.587"/><path fill="#00a4fd" d="m1607.376 804.13 91.265-322.084c.221-1.772 1.55-26.36 1.55-26.36s8.327-65.115-52.627-83.27l-1.422-.242-112.531 431.733 73.764.222h.001z"/><path fill="#d1e4ff" d="M1328.487 803.908h205.123l112.532-431.734c-2.879-.886-66.899-22.15-66.899-22.15l-12.405-30.57h-124.049l-11.297 30.57-42.752 17.499-8.197 3.323s-19.936 51.17-71.106 129.586l-1.551 2.437c-23.038 30.126-32.784 61.581-18.607 123.162 4.652 20.38 9.524 41.867 14.398 63.354 14.177 64.017 24.81 114.523 24.81 114.523"/><path fill="#001222" d="m1607.376 804.13-278.889-.222 7.534 38.765h260.057z"/><path fill="#9dc9ff" fill-rule="evenodd" d="M1646.141 372.174c40.095 6.425 67.784 22.152 79.967 70.885l80.677 241.253-161.308-60.275s-25.03-44.081-29.683-116.517c-2.215-34.556 0-97.024 30.348-135.346z"/><path fill="#d0d4d8" d="m1437.962 533.167-55.157-39.43-36.328 81.075c14.177 1.772 63.132 8.639 67.34 10.854 187.18 99.903 320.09 251.642 392.968 98.574z"/><path fill="#c1c7cc" d="M1274.927 511.237s1.33 6.424 3.544 14.841c.886 3.101 21.266 9.083 22.373 12.405 1.994 7.31 4.653 14.399 7.532 21.266 7.089 15.284 38.1 15.063 38.1 15.063l36.33-81.075z"/><g fill="#a4abb3" fill-rule="evenodd"><path d="m109.15 1113.728 264.357.85 264.356-.85c0 36.255-29.377 65.632-65.632 65.632l-12.171.051 37.254 671.843h-42.103l-37.244-671.666-127.784.536v.14l-16.676-.07-16.677.07v-.14l-127.783-.536-37.245 671.666H149.7l37.254-671.843-12.171-.05c-36.255 0-65.632-29.378-65.632-65.633zm231.101-851.733a112.3 112.3 0 0 0 32.784 5.348c.222 8.386.697 17.215.918 26.044a165.9 165.9 0 0 1-33.702-31.392"/><path d="M236.74 101.269c6.043-35.348 50.473-53.797 50.473-53.797 7.912-60.127 81.17-33.734 81.17-33.734s59.083-24.43 86.519-8.133 3.164 53.955 13.006 69.081 11.646 36.74 11.646 36.74 2.088 47.659-37.215 65.791a373.4 373.4 0 0 0 10.221-54.873 104.8 104.8 0 0 1-52.784 1.393C357.434 113.515 320.25 82.28 320.25 82.28s-3.512 50-8.386 67.437a95 95 0 0 0-1.392 4.43c-8.83-16.52-23.481-36.994-36.266-24.905-16.772 16.044 7.88 56.044 16.962 69.62-1.392 3.006-2.342 4.873-2.342 4.873s-58.354-67.215-52.088-102.467z" data-name="Path"/><path d="m250.948 350.728 37.974-147.213s.95-1.868 2.342-4.874c-9.082-13.512-33.955-53.797-16.962-69.62 12.658-12.088 27.437 8.386 36.266 24.905.474-1.645.917-3.164 1.392-4.43 4.779-17.626 8.291-67.215 8.291-67.215s37.183 31.392 79.525 41.614a107.34 107.34 0 0 0 52.784-1.393 372 372 0 0 1-10.443 55.127c-1.867 6.962-3.955 14.177-6.519 21.392-15.348 43.955-26.993 64.873-26.993 64.873a142 142 0 0 1-35.57 3.734 104.2 104.2 0 0 1-32.784-5.348 178.7 178.7 0 0 0 33.607 31.012 5564 5564 0 0 0 3.165 66.74l-126.043-9.304zM666.799 817.56l-153.48 11.17-43.522-115.18 27.687-206.277c5.249-32.231 10.85-64.521 5.153-91.234z" data-name="Path"/><path d="m116.519 368.387 141.866-69.62 123.733 8.829 90.695 64.208a71.36 71.36 0 0 1 30 45.095c5.79 26.74-.234 58.064-5.33 90.374l-27.708 206.142-21.392 141.866-20.474 10-1.14-.443-232.34 93.259-15.126-404.68z" data-name="Path"/><path d="m116.519 368.387 63.037 185.41 15.095 404.648-70.474 28.48c-84.873-378.16-7.658-618.538-7.658-618.538m311.39 496.989 20.474-10 37.69 8.86L961.89 975.85l77.91 768.38-103.51 29.999s-193.702-511.578-114.399-638.602c-8.164-.95-17.215-1.867-26.993-2.785v-114.164l-366.99-153.302z" data-name="Path"/><path d="m1227.015 1816.792-.474.696a92 92 0 0 1-71.044 33.765H915.721l20.949-77.214 103.48-30 186.992 72.784zM427.054 864.996l.855.38 378.16 142.815c-81.855 12.994-155.783 42.019-180.378 132.309-323.256-62.784-495.122 22.785-501.64-153.954l70.473-28.481 232.119-93.259z" data-name="Path"/><path d="m806.07 1008.191-11.33 124.714-67.91 613.73-12.089 4.873-79.777 28.48c-36.266-346.04-38.354-535.122-9.304-639.773 29.841-104.587 90.632-124.397 180.41-132.024" data-name="Path"/><path d="m726.988 1746.57 136.075 70.222-.443.696a92.02 92.02 0 0 1-71.202 33.765h-172.34l14.272-70.505 1.867-.696 91.771-33.481zM3.323 816.262.16 815.63l71.01-399.776c15.57-49.778 46.265-62.816 85.126-60.126 58.132 13.038 58.132 90.474 52.31 124.208-13.956 81.835-35.127 177.657-46.044 226.264-80.917-1.298-143.67 28.639-159.24 110.062z" data-name="Path"/><path d="M162.784 706.327c87.91 1.392 194.207 35.094 275.82 64.872l111.867-57.689-3.481 115.822c-18.988 7.911-70 12.658-98.828 15.126 0 0-448.636-25.822-448.162-28.829.222-1.17.475-2.12.697-3.164 15.57-81.392 80.949-107.594 162.087-106.043z" data-name="Path"/><path d="m550.47 713.51 94.209 47.468s4.652 18.576-19.557 48.133c-24.209 29.556-78.132 20.474-78.132 20.474z" data-name="Path"/></g><path fill="#a4abb3" fill-rule="evenodd" d="m109.15 1113.728 264.357.85 264.356-.85c0 36.255-29.377 65.632-65.632 65.632l-12.171.051 37.254 671.843h-42.103l-37.244-671.666-127.784.536v.14l-16.676-.07-16.677.07v-.14l-127.783-.536-37.245 671.666H149.7l37.254-671.843-12.171-.05c-36.255 0-65.632-29.378-65.632-65.633z"/><path fill="#9dc9ff" d="M340.251 261.995a112.3 112.3 0 0 0 32.784 5.348c.222 8.386.697 17.215.918 26.044a165.9 165.9 0 0 1-33.702-31.392" data-name="Path"/><path fill="#0096e8" d="M236.74 101.269c6.043-35.348 50.473-53.797 50.473-53.797 7.912-60.127 81.17-33.734 81.17-33.734s59.083-24.43 86.519-8.133 3.164 53.955 13.006 69.081 11.646 36.74 11.646 36.74 2.088 47.659-37.215 65.791a373.4 373.4 0 0 0 10.221-54.873 104.8 104.8 0 0 1-52.784 1.393C357.434 113.515 320.25 82.28 320.25 82.28s-3.512 50-8.386 67.437a95 95 0 0 0-1.392 4.43c-8.83-16.52-23.481-36.994-36.266-24.905-16.772 16.044 7.88 56.044 16.962 69.62-1.392 3.006-2.342 4.873-2.342 4.873s-58.354-67.215-52.088-102.467z" data-name="Path"/><path fill="#d1e4ff" d="m250.948 350.728 37.974-147.213s.95-1.868 2.342-4.874c-9.082-13.512-33.955-53.797-16.962-69.62 12.658-12.088 27.437 8.386 36.266 24.905.474-1.645.917-3.164 1.392-4.43 4.779-17.626 8.291-67.215 8.291-67.215s37.183 31.392 79.525 41.614a107.34 107.34 0 0 0 52.784-1.393 372 372 0 0 1-10.443 55.127c-1.867 6.962-3.955 14.177-6.519 21.392-15.348 43.955-26.993 64.873-26.993 64.873a142 142 0 0 1-35.57 3.734 104.2 104.2 0 0 1-32.784-5.348 178.7 178.7 0 0 0 33.607 31.012 5564 5564 0 0 0 3.165 66.74l-126.043-9.304z" data-name="Path"/><path fill="#0096e8" d="m666.799 817.56-153.48 11.17-43.522-115.18 27.687-206.277c5.249-32.231 10.85-64.521 5.153-91.234z" data-name="Path"/><path fill="#56b0ff" d="m116.519 368.387 141.866-69.62 123.733 8.829 90.695 64.208a71.36 71.36 0 0 1 30 45.095c5.79 26.74-.234 58.064-5.33 90.374l-27.708 206.142-21.392 141.866-20.474 10-1.14-.443-232.34 93.259-15.126-404.68z" data-name="Path"/><path fill="#0096e8" d="m116.519 368.387 63.037 185.41 15.095 404.648-70.474 28.48c-84.873-378.16-7.658-618.538-7.658-618.538" data-name="Path"/><path fill="#003253" d="m427.909 865.376 20.474-10 37.69 8.86L961.89 975.85l77.91 768.38-103.51 29.999s-193.702-511.578-114.399-638.602c-8.164-.95-17.215-1.867-26.993-2.785v-114.164l-366.99-153.302z" data-name="Path"/><path fill="#001d33" d="m1227.015 1816.792-.474.696a92 92 0 0 1-71.044 33.765H915.721l20.949-77.214 103.48-30 186.992 72.784z" data-name="Path"/><path fill="#004975" d="m427.054 864.996.855.38 378.16 142.815c-81.855 12.994-155.783 42.019-180.378 132.309-323.256-62.784-495.122 22.785-501.64-153.954l70.473-28.481 232.119-93.259z" data-name="Path"/><path fill="#00629a" d="m806.07 1008.191-11.33 124.714-67.91 613.73-12.089 4.873-79.777 28.48c-36.266-346.04-38.354-535.122-9.304-639.773 29.841-104.587 90.632-124.397 180.41-132.024" data-name="Path"/><path fill="#001d33" d="m726.988 1746.57 136.075 70.222-.443.696a92.02 92.02 0 0 1-71.202 33.765h-172.34l14.272-70.505 1.867-.696 91.771-33.481z" data-name="Path"/><path fill="#9dc9ff" d="M3.323 816.262.16 815.63l71.01-399.776c15.57-49.778 46.265-62.816 85.126-60.126 58.132 13.038 58.132 90.474 52.31 124.208-13.956 81.835-35.127 177.657-46.044 226.264-80.917-1.298-143.67 28.639-159.24 110.062z" data-name="Path"/><path fill="#d1e4ff" d="M162.784 706.327c87.91 1.392 194.207 35.094 275.82 64.872l111.867-57.689-3.481 115.822c-18.988 7.911-70 12.658-98.828 15.126 0 0-448.636-25.822-448.162-28.829.222-1.17.475-2.12.697-3.164 15.57-81.392 80.949-107.594 162.087-106.043z" data-name="Path"/><path fill="#9dc9ff" d="m550.47 713.51 94.209 47.468s4.652 18.576-19.557 48.133c-24.209 29.556-78.132 20.474-78.132 20.474z" data-name="Path"/><path fill="#8a9097" fill-rule="evenodd" d="m1659.39 1853.44-31.084-601.927h-269.942l-31.084 601.928h-38.851l50.869-985.053h38.851l-17.778 344.273h265.93l-17.78-344.273h38.852l50.87 985.053z"/><path fill="#8a9097" d="M783.665 829.535h1097.608v38.852H783.665z"/><rect width="640.042" height="415.847" x="1035.859" y="311.709" fill="#979ea4" rx="36.04" ry="36.04"/><rect width="640.041" height="415.847" x="1058.169" y="311.709" fill="#c1c7cc" rx="36.04" ry="36.04"/><path fill="#a4abb3" d="M1498.244 829.535H1383.01l-41.552-316.295h104.524z"/><path fill="#a4abb3" d="M1227.26 803.224h194.615v26.311H1227.26z"/><path fill="#979ea4" d="M1341.458 513.24 1227.26 727.556h142.353z"/><path fill="#a4abb3" d="M392.528 803.908H793.93v25.627H392.528z"/><path fill="#7d8389" d="M136.497 829.535v38.851h161.207l-.003.002-50.87 985.053h38.852l31.084-601.928h275.19l31.084 601.928h38.852l-50.87-985.053-.003-.002h172.645v-38.85zm182.276 383.126 17.78-344.275h235.619l17.779 344.275z"/></svg>