<svg xmlns="http://www.w3.org/2000/svg" viewBox="0 0 408.8 994"><switch><g><path fill="#7d8389" d="M190.132 724.069h-55v-218h55z"/><path fill="#111f32" d="M159.5 541.3c9.3-35.8 18.9-69 26.9-88.3 12.6-30.6 12.5-75.1 12.5-75.1h30.2l9.7 20.5.3.6c.4 2.6 2 18.5 3.3 32.3 1 10.2 1.7 19.4 1.7 21.4l-6.8 194.5-1.5 42.9-4.9 47L217.5 866h-56.7c-7.2-46 1.8-100.2 20.1-167.9 9.9-36.3-5.9-95.6-21.4-156.8"/><path fill="#133351" d="M41.4 866.7c.5-91.3-3.1-124 6.9-158.2.8-2.9 1.8-5.7 2.8-8.7.9-2.4 1.8-4.9 2.8-7.4l.3-1.5s2.5-5.1 3.8-7.8v-.1l.6-1.5v-.1c1-2.2 2.1-4.4 3.2-6.6l.8-1.6.1-.2.8-1.6s.1-.1.1-.2c1.2-2.3 2.4-4.7 3.7-7.1l.1-.2.8-1.6.2-.4.8-1.5c.1-.1.1-.3.2-.4l.8-1.6.2-.3 2.1-3.8.2-.4c.3-.5.5-1 .8-1.5l.4-.8.6-1.2.5-.9.6-1.1.5-1 .6-1 .6-1 .4-.8.7-1.2c.6-1 1.1-2.1 1.6-3.2 5-11.4 5.7-27.2 5.2-45.6-2-81-12.5-124.5-.3-165.9 4.8-16.5 13.2-32.7 27.2-51.1h86.8c0 .2.1 44.7-12.5 75.3-7.9 19.3-17.5 52.4-26.9 88.2-4.7 17.8-9.2 36.2-13.5 54-13.2 55.1-23.5 103.3-23.5 103.3L96.1 864.9l-16.2.8z"/><path fill="#979ea4" d="M208.8 950.5c.2 0 0 0 0 0v.1zm-.4-.1c-.1 0 .2.1 0 0l-17.5.1-.1.5c-.2-.2-.3-.4-.4-.7-6.8-25.4-14.6-52.8-19.5-83.8h46.6zm-168.3-.2c1-32.6 1.4-60.1 1.6-83.7l38.4-.2-21.4 84.2h-.4z"/><path fill="#047bc0" d="m208.3 950.3 86.4 29.9-.2.3c-7 8.5-17.5 13.4-28.5 13.4h-84.1l8.9-43.1.1-.5zM1.8 978.1l37.7-28.4h.9l18.3.2 3.4 44.1H10.2C4.6 994 0 989.4 0 983.8c0-2 .6-4 1.8-5.7"/><path fill="#111f32" d="M61.6 146.7c.4-7.7 1.7-15.5 4.6-22.5 6.2-14.6 16.3-27.1 28.3-34.9 10.2-6.8 17.2-17.5 19.3-29.5 1.1-6.2 2.3-12.6 3.3-17.3C123.8 13 139.9-4.4 178.9 1c16 2.2 24.3 11.5 28.5 22.2 0 .1.1.1.1.2 11.5 7.8 22.1 27.2 3.2 46.2v28.3c.1.3.2.6.4.9 4 9.4 10.7 25.1 10.7 34.8 0 19-6.7 32.5-11.1 39.3v35.6l-152.9-2.7s-6.9-5.9-10.8-20.7c-3.1-11.7-2-23.3 14.6-38.4M206.4 43.8C198.2 66.5 161 70 144.5 70.4c-1.1-2.5-10.4-21.1-18.2-12.7-7 7.7 4.8 24.6 9.7 31l-13.3 71.8h58.4s-1.8-15-3.7-30.8c-.4-4-.9-7.9-1.3-11.7 5.5-.3 11.1-1.3 16.4-2.9 0 0 4.6-10 10.2-30.7 3.2-12.3 5-25 5.3-37.7z"/><path fill="#7d8389" d="M161.2 116.6c5 1.2 10.1 1.7 15.2 1.3.4 3.8.8 7.8 1.2 11.8-6.2-3.5-11.5-8.2-16.4-13.1"/><path fill="#a4abb3" d="M192.8 115.1c-5.3 1.6-10.7 2.6-16.3 2.9-5.1.3-10.2-.1-15.2-1.3 4.9 5 10.4 9.3 16.4 13 1.8 15.8 3.7 30.8 3.7 30.8H123l13-71.8c-4.9-6.4-16.7-23.3-9.7-31 8.1-8.8 17.3 10.3 18.5 12.7 16.6-.4 53.3-4 61.5-26.6l1.9 2.9c-.4 12.7-2.1 25.4-5.3 37.7-5.5 20.7-10.1 30.7-10.1 30.7"/><path fill="#979ea4" d="m348.2 251.8 38-16 5.8 31.7-34.8 7.9c-70.1 51.9-165.4 69.1-160.4 14.1-.5-1 151.4-37.7 151.4-37.7"/><path fill="#bad4f0" d="M357.2 275.4c-70.1 51.9-165.4 69.1-160.4 14.1l149-31zM209.5 164.8c15.1 3.4 27.2 15.5 29.5 30.8l2.6 27.7c-23.1-35.5-32.1-58.5-32.1-58.5"/><path fill="#f0f2f2" d="M240.5 398.8c.7 4.7 5.1 49.5 5.1 54.2.1-4.6-4.4-49.5-5.1-54.2"/><path fill="#00639b" d="M107.3 360.3 65.8 215c-.1-.8-.2-1.5-.3-2.3 0-.3 0-.5-.1-.8 0-.5-.1-1-.1-1.5 0-.3 0-.6-.1-.9 0-.4-.1-.9-.1-1.3V201c0-.3 0-.8.1-1.1l.1-.9c0-.4.1-.8.1-1.1s.1-.6.1-.9l.1-1.1c0-.3.1-.6.1-.9s.1-.7.2-1 .1-.6.2-.9.1-.7.2-1l.2-.8c.1-.3.2-.7.3-1l.2-.8c.1-.3.2-.7.3-1s.2-.5.2-.8c.1-.3.2-.7.4-1 .1-.3.2-.5.3-.7.1-.4.3-.7.4-1.1l.2-.6c.2-.4.4-.9.6-1.3.1-.1.1-.2.1-.3.3-.5.5-1 .8-1.6.1-.1.2-.3.3-.4.2-.4.4-.8.7-1.1.1-.2.2-.4.4-.6s.4-.6.6-.9l.4-.6c.2-.3.4-.6.6-.8.2-.3.3-.4.5-.6s.4-.5.7-.8c.2-.3.4-.4.5-.6s.5-.5.7-.7l.6-.6c.2-.2.5-.5.8-.7l.6-.5c.3-.2.5-.4.8-.6l.7-.5c.3-.2.5-.4.8-.6l.7-.5.9-.6.8-.5.9-.5c.3-.1.5-.3.8-.4l1-.5.8-.4c.3-.2.7-.3 1.1-.5l.8-.3c.4-.2.8-.3 1.2-.4l.6-.1 50.9 194.5z"/><path fill="#2e91cf" d="M233.3 360.3h-92.7l-51-194.6v-.2c1.3-.4 30.5-10.1 30.5-10.1l5.6-13.8h56l5.1 13.8 19.3 7.9 3.7 1.5s9 23.1 32.1 58.5l.7 1.1C253 238 257.4 252.2 251 280c-2.1 9.2-4.3 18.9-6.5 28.6-6.4 28.9-11.2 51.7-11.2 51.7"/><path fill="#111f32" d="M107.3 360.3h125.9l-3.8 17.5H112.1z"/><path fill="#e8f0fb" d="M124.8 143.5c-4.3 5.1-12.8 9.6-23.6 15.5-7.9 4.3-14 5-19 8l3 110 3 110c-10.8 58.2-21 118.2-30.5 180-9.3 60.8-17.4 120.1-24.5 178h111c-2.4-79.2-5.5-126.4-5.8-186.5-.1-28.7.2-66 2.8-114.5 3.7-71.3 10.9-158.5 18-207-11.4-40.6-23.1-52.8-34.4-93.5M245.2 227c7 11 12 19 7 47l-8 112 6 74c.1 15.2-.3 262.8-.2 278-36.6-.1-5.4.1-42 0-4.6-66.9 26.8-291.2 22.2-358l3-148-44-69c-2-6-5.4-15.5-7.4-21.5 6.7 5 21.3 18 28 23 14.3 21.9 21.1 40.6 35.4 62.5"/><path fill="#d2e2f6" fill-rule="evenodd" d="M89.7 163.5c-18.1 2.9-30.8 12-36.3 34L21 304.9l68.8-25.7s11.3-19.9 13.4-52.6c1-15.6.3-45.8-13.5-63.1" clip-rule="evenodd"/><path fill="#979ea4" d="m187.6 236.6 24.9-17.8 16.4 36.6c-6.4.8-28.5 3.9-30.4 4.9-11.1 3.7-45.7 23.2-51.7 29.2-6.6 6.5-6.5-23.1-13-30z"/><path fill="#133351" d="m233.8 307 59.7-121.7c1.2-2.7 3.9-4.5 6.9-4.6h100.5c6 0 9.8 7.3 6.9 13.3l-59.7 121.7c-1.2 2.7-3.9 4.5-6.9 4.6H240.7c-6 0-9.8-7.3-6.9-13.3"/><path fill="#a4abb3" fill-rule="evenodd" d="m399.7 222.9-41.7 1.4c-1.2 8.5 3.4 21.1 11.8 25.7l22.2 17.5z" clip-rule="evenodd"/><path fill="#7d8389" d="M261.1 226.7s-.6 2.9-1.6 6.7c-.4 1.4-9.6 4.1-10.1 5.6-.9 3.3-2.1 6.5-3.4 9.6-3.2 6.9-17.1 6.8-17.1 6.8l-16.4-36.6z"/><path fill="#a4abb3" d="M320.2 180.7h59l-6-4h-50z"/><path fill="#d2e2f6" d="M174.8 277.5c-84.5 45.1-114 86-153.7 26.8l139.7-58.8z"/></g></switch></svg>