<svg xmlns="http://www.w3.org/2000/svg" viewBox="0 0 337.352 1008.422"><path fill="none" d="M198.8 58.078a7.8 7.8 0 0 1 1.407 2.1 8.7 8.7 0 0 0-1.407-2.2c-2.482-2.753-5.384-2.342-8.247-.4 2.847-1.872 5.747-2.23 8.247.5m49.1 286.436c-.89-2-7.783-17.623-15.132-37.842l-19.688 69.7a284 284 0 0 1 17.316 24.35c4.535-24.019 10.4-46.6 17.448-56.139a.4.4 0 0 0 .056-.069m-84.1-227.536h-.012z"/><path fill="#8a9097" d="M163.788 116.981a50.3 50.3 0 0 1-14.988 1.3h-.011c-.394 3.652-.788 7.589-1.182 11.434a87.6 87.6 0 0 0 16.193-12.737z"/><path fill="#c1c7cc" d="M211.047 650.006c-5.908.345-16.851.833-19.539.947 6.469 28.768 10.692 49.693 10.692 49.693l64.806 254.574h19.3c-6.912-223.694 13.428-216.449-37.778-308l-.928.063h-.061"/><path fill="#232628" d="m260.174 490.84-7.624-2.126-.95 3.764-2.2 29.8-37-5.5 2.732-7.08-21.832 10.58-2.8-8.6 35.283-30.31-6.336-1.782s3.84-41.2 10.952-78.861a284 284 0 0 0-17.316-24.35l-.283 1h-26.5l.045-.2-63.96.07h-4.214L95 377.278l-.317-1.5H94.5l-9.7 19.4-7.3 55.8v194s3.1.4 8.6 1c3.545.387 8.077.857 13.379 1.356 11.121.994 25.77 2.066 42.219 3.052 15.447.7 32.373 1.09 49.2.592l.608-.025c2.688-.114 13.631-.6 19.539-.947a204 204 0 0 0 2.053-.128l.116-.01.093-.008c13.455-1.352 24.73-1.978 34.23-2.578h.061l.928-.063c34.445-2.335 44.772-2.337 44.772-2.337S274.947 555.9 260.174 490.84M194.5 547.678l17.8-30.9 37 5.5s-17.9 44.1-54.8 25.4"/><path fill="#006c3a" d="m94.683 375.778.317 1.5 23.171-.025h4.214l63.96-.07.318-1.4 29.194-128.343a118.4 118.4 0 0 1-1.957-19.8c0-26.394 6.3-46.191 20.791-62.689-2.188-.7-30.391-10.065-30.391-10.065l-5.6-13.8h-56l-.466 1.284-4.534 12.508-22.651 9.257-.349.142s-8.3 21.174-29.312 54.188a545 545 0 0 1-3.488 5.413c-10.4 13.6-14.8 27.8-8.4 55.6 3.168 13.694 6.509 28.636 9.589 42.628a7285 7285 0 0 1 11.594 53.672"/><path fill="#a4abb3" d="M36.552 479 0 512.278l2.6 8 18.38-8.324L0 545.178l9.2 2.9a21.36 21.36 0 0 0 18.2-2.6c6.3-4.1 14-9.6 15.6-12.3 11.8-20 14.3-44.9 14.3-44.9l8.306-12.9-23.418-10.838zm62.927 168.334c-5.229-.467-9.685-.917-13.169-1.333l1.59 46.977s27.612 263.016 27.812 263.016l18.308.093c17-63.7 40.48-140.209 9.28-255.109-3.8-13.8-3.764-31.189-1.564-50.589h-.038l-.2-.008a973 973 0 0 1-42.019-3.047"/><path fill="#a4abb3" d="m141.5 650.378.2.008c-16.449-.986-31.1-2.058-42.219-3.052a968 968 0 0 0 42.019 3.044m107.8-128.1-37-5.5-17.8 30.9c36.9 18.7 54.8-25.4 54.8-25.4"/><path fill="#c1c7cc" d="M192.59 84.191a82 82 0 0 0 2.937-4.623 42 42 0 0 0 5.093-12.022 17 17 0 0 0 .38-3.268c.012-.27.009-.541 0-.81-.007-.142-.025-.283-.038-.424s-.023-.292-.044-.436c-.014-.1-.038-.2-.055-.3-.034-.191-.067-.382-.112-.569q-.018-.063-.036-.124a9 9 0 0 0-.207-.7c-.022-.064-.051-.126-.074-.19a9 9 0 0 0-.223-.552 7.8 7.8 0 0 0-1.407-2.1c-2.5-2.73-5.4-2.372-8.247-.5-4.52 3.074-8.943 9.986-11.453 14.395-17.1-1-52.2-5.8-60.2-27.9l-1.9 2.9q.121 5.5.631 11.028.192 2.1.436 4.191c.47 4.048 1.078 8.085 1.833 12.081.7 3.3 1.5 6.8 2.4 10.3 5.6 20.7 10.2 30.7 10.2 30.7a69.7 69.7 0 0 0 16.3 2.9v.006l-.01.093h.011a50.3 50.3 0 0 0 14.988-1.3h.012a87.6 87.6 0 0 1-16.193 12.733l-.007.067c-.454 3.9-.908 7.711-1.362 11.3H198.5l-6.3-34.7-3.1-17.3.015-.019-.015-.081a88 88 0 0 0 3.49-4.776m34.314 397.485-.867-.238-.19-.053-.064-.017-35.283 30.31 2.8 8.6 21.832-10.58-2.732 7.08 37 5.5 2.2-29.8.95-3.764-.103-.028z"/><path fill="#00381b" d="m133.794 956.12-17.7-.1-87.3 30.2.2.3a37.43 37.43 0 0 0 28.8 13.6h85l-8.9-43.5zm190.613 27.8-38.1-28.7h-19.3l-.017.224-3.382 44.577h52.2a10.287 10.287 0 0 0 10.3-10.3 9.88 9.88 0 0 0-1.701-5.801m-108.55-736.485.076.433c3.337 18.984 10.268 40.729 16.838 58.8 7.349 20.219 14.242 35.84 15.132 37.842 8.607-11.647 23.188-16.52 44.143-12.629h.146L268.2 201.832c-4.3-22.2-15.6-34.9-33.5-36.9l-.009.011c-14.493 16.5-20.791 36.295-20.791 62.689a118.4 118.4 0 0 0 1.957 19.803"/><path fill="#00210e" d="m115.049 164.135-.373.109a36.885 36.885 0 0 0-28.9 35.8s-.149 7.179-.388 18.421c21.017-33.014 29.312-54.188 29.312-54.188zM77.5 450.978l7.3-55.8 9.7-19.4h.183a7285 7285 0 0 0-11.594-53.668c-.443 18.443-.8 31.48-.913 31.538l-45.6 108.3 5.612 2.6 23.418 10.835 5.77 2.669s2.352-4.139 6.124-10.976v-16.09zm68.651-309.9h.087c.454-3.589.908-7.4 1.362-11.3l.007-.067c.394-3.845.788-7.782 1.182-11.434l.01-.093v-.006a69.7 69.7 0 0 1-16.3-2.9s-4.6-10-10.2-30.7c-.9-3.5-1.7-7-2.4-10.3-.755-4-1.363-8.033-1.833-12.081q-.241-2.093-.436-4.191-.5-5.519-.631-11.028l1.9-2.9c8 22.1 43.1 26.9 60.2 27.9 2.51-4.409 6.933-11.321 11.453-14.395 2.863-1.947 5.765-2.358 8.247.4a8.7 8.7 0 0 1 1.407 2.2c.082.181.153.366.223.552.023.064.052.126.074.19.08.229.146.462.207.7q.018.061.036.124c.045.187.078.378.112.569.017.1.041.2.055.3.021.144.03.29.044.436s.031.282.038.424c.013.269.016.54 0 .81a17 17 0 0 1-.38 3.268 42 42 0 0 1-5.093 12.022 83 83 0 0 1-2.937 4.623 93 93 0 0 1-3.49 4.787l.015.081 3.185 17.219c24.7-38.8 16.1-59.2 15-63.8-6.7-29.5-22.8-46.9-61.6-41.5-15.9 2.2-24.2 11.4-28.4 22.2l-.2.2c-9.8 6.6-19 21.8-9.7 37.8a47.851 47.851 0 0 0 34.3 81.2c.182 0 .355-.013.534-.016l.466-1.284zm69.782 106.79-.076-.433-29.194 128.343-.318 1.4-.045.2h26.5l.283-1 19.688-69.7c-6.571-18.078-13.501-39.826-16.838-58.81m31.967 96.646q-.028.036-.056.072c-7.049 9.54-12.913 32.12-17.448 56.139-7.112 37.662-10.952 78.861-10.952 78.861l6.336 1.782.064.017.19.053.867.238 25.543 7.01.1.028 7.624 2.126 2.673.746s27.2-145.3 29.3-158.7v-.1a6 6 0 0 0 .1-.9h-.2c-20.95-3.892-35.531.981-44.141 12.628"/></svg>