<svg xmlns="http://www.w3.org/2000/svg" viewBox="0 0 600 400"><ellipse cx="529.786" cy="235.067" fill="#e0e2e5" rx="13.12" ry="33.92"/><path fill="#e0e2e5" d="M580.439 209.081c0-20.236-7.522-36.64-16.8-36.64s-16.8 16.404-16.8 36.64c0 19 6.631 34.62 15.121 36.457v19.221h3.199v-19.195c8.566-1.676 15.28-17.366 15.28-36.484Z"/><path fill="#eff1f2" d="M600 273.705c-16.437-9.727-34.897-18.506-48.021-18.506-30.88 0-38.24-31.04-77.92-31.04s-108.16 75.2-108.16 75.2H600z"/><path fill="#e0e2e5" d="M47.2 258.559c12.96 0 24.16-10.08 24.32-22.88.16-7.36-3.2-13.92-8.48-18.4 2.56-3.2 4.16-7.36 4.16-11.84 0-4.8-1.76-9.12-4.64-12.48 2.08-2.88 3.2-6.4 3.2-10.24 0-8-14.24-18.72-17.76-21.44-.48-.32-1.12-.32-1.76 0-3.68 2.56-17.76 13.28-17.76 21.44 0 3.84 1.28 7.36 3.2 10.24-2.88 3.36-4.64 7.68-4.64 12.48 0 4.48 1.6 8.64 4.16 11.84-5.28 4.32-8.64 11.04-8.48 18.4.32 12.8 11.52 22.88 24.48 22.88m50.559-11.839c10.24 0 19.04-8 19.2-18.08.16-5.76-2.56-11.04-6.72-14.56 2.08-2.56 3.36-5.76 3.36-9.28 0-3.84-1.44-7.2-3.68-9.92 1.6-2.24 2.56-5.12 2.56-8 0-6.4-11.2-14.88-14.08-16.96-.32-.32-.96-.32-1.28 0-2.88 2.08-14.08 10.56-14.08 16.96 0 3.04.96 5.76 2.56 8-2.24 2.72-3.68 6.08-3.68 9.92 0 3.52 1.28 6.72 3.36 9.28-4.16 3.52-6.72 8.64-6.72 14.56.16 10.08 8.96 18.08 19.2 18.08"/><path fill="#eff1f2" fill-rule="evenodd" d="M0 299.359h289.028c-60.723-36.589-115.996-71.933-156.166-71.933-30.472 0-73.911 7.558-132.861 50.303v21.63Z"/><path fill="#eff1f2" d="M439.99 153.225c1.92-5.44 7.04-9.28 13.12-9.28h.48c1.92-7.36 8.64-12.96 16.64-12.96 5.44 0 10.4 2.56 13.44 6.56h1.44c8.96 0 16.32 6.88 16.96 15.68z"/><path fill="#e8f1ff" d="M287.039 108.161h-105.76c-8.16 0-14.72 6.56-14.72 14.72v231.2c0 8.16 6.56 14.72 14.72 14.72h105.76c8.16 0 14.72-6.56 14.72-14.72v-231.36c0-8-6.56-14.56-14.72-14.56"/><path fill="#7ebdff" fill-rule="evenodd" d="M216.675 122.88a2.845 2.845 0 0 1 2.845-2.845h29.28a2.845 2.845 0 0 1 0 5.69h-29.28a2.845 2.845 0 0 1-2.845-2.845"/><path fill="#fff" d="M197.937 223.806H300.96v-5.69h-33.156v-28.07h33.156v-5.69h-33.156v-20.87h33.156v-5.69h-33.156v-48.995h-5.69v48.995h-71.269v-48.995h-5.69v48.995h-15.716v5.69h15.716v26.561h76.959v28.07h-69.747l-25.007-25.548v8.135l48.122 49.163-26.493 27.894-21.629-23.424v8.388l21.571 23.361 30.534-32.15 34.114 34.852-78.202 77.723a13.8 13.8 0 0 0 5.904 1.332h.828l75.451-74.988 43.401 44.339v-8.135L197.938 223.808Zm-7.092-39.45v-20.87h71.269v20.87z"/><path fill="#7ebdff" d="M287.04 105.12H181.28c-9.76 0-17.76 8-17.76 17.76v231.2c0 9.76 8 17.76 17.76 17.76h105.76c9.76 0 17.76-8 17.76-17.76V122.72c0-9.76-8-17.6-17.76-17.6m0 6.08c6.4 0 11.52 5.12 11.52 11.52v231.2c0 6.4-5.12 11.52-11.52 11.52H181.28c-6.4 0-11.52-5.12-11.52-11.52v-231.2c0-6.4 5.12-11.52 11.52-11.52z"/><path fill="#fff" d="M225.28 309.441c-7.36 0-13.28 5.92-13.28 13.28 0 3.04.8 6.24 2.08 8.32 1.6 2.56 8.48 14.24 8.48 14.24l2.72 4.8 2.72-4.64c0-.16 6.88-11.84 8.32-14.24 1.44-2.24 2.24-5.28 2.24-8.48 0-7.36-5.92-13.28-13.28-13.28"/><path fill="#00a4fd" d="M225.28 311.681c-6.08 0-10.88 4.96-10.88 10.88 0 2.72.64 5.28 1.76 7.2 1.44 2.56 8.32 14.24 8.48 14.24l.8 1.28.8-1.28c0-.16 6.88-11.84 8.48-14.24 1.12-1.92 1.76-4.48 1.76-7.2-.16-5.92-5.12-10.88-11.2-10.88m-.001 16.161c-2.88 0-5.12-2.4-5.12-5.12 0-2.88 2.4-5.12 5.12-5.12 2.88 0 5.12 2.24 5.12 5.12s-2.4 5.12-5.12 5.12"/><circle cx="259.504" cy="318.726" r="8" fill="#9dc9ff" transform="rotate(-68.955 259.507 318.727)"/><path fill="#fff" d="M259.503 327.527c-4.852 0-8.8-3.948-8.8-8.8s3.948-8.8 8.8-8.8 8.8 3.948 8.8 8.8-3.948 8.8-8.8 8.8m0-16c-3.97 0-7.2 3.23-7.2 7.2s3.23 7.2 7.2 7.2 7.2-3.23 7.2-7.2-3.23-7.2-7.2-7.2"/><path fill="#fff" d="m259.752 314.833.841 2.588h2.721a.26.26 0 0 1 .153.472l-2.202 1.599.841 2.588a.26.26 0 0 1-.401.291l-2.202-1.599-2.202 1.599a.26.26 0 0 1-.401-.291l.841-2.588-2.202-1.599a.261.261 0 0 1 .153-.472h2.721l.841-2.588a.26.26 0 0 1 .496 0Z"/><circle cx="261.92" cy="249.92" r="12" fill="#9dc9ff"/><path fill="#fff" d="M261.92 262.72c-7.058 0-12.8-5.742-12.8-12.8s5.742-12.8 12.8-12.8 12.8 5.742 12.8 12.8-5.742 12.8-12.8 12.8m0-24c-6.175 0-11.2 5.024-11.2 11.2s5.025 11.2 11.2 11.2 11.2-5.024 11.2-11.2-5.025-11.2-11.2-11.2"/><path fill="#fff" d="m262 243.202-6.4 6.72h1.6v6.08h3.52v-3.52h2.56v3.52h3.36v-6.08h1.6z"/><circle cx="199.751" cy="270.951" r="8" fill="#9dc9ff" transform="rotate(-48.058 199.75 270.95)"/><path fill="#fff" d="M199.75 279.493c-4.709 0-8.542-3.832-8.542-8.542s3.833-8.542 8.542-8.542 8.542 3.832 8.542 8.542-3.833 8.542-8.542 8.542m0-16c-4.113 0-7.458 3.345-7.458 7.458s3.345 7.458 7.458 7.458 7.458-3.345 7.458-7.458-3.345-7.458-7.458-7.458"/><path fill="#fff" d="M201.271 267.511c-.48 0-1.12.16-1.44.64-.48-.48-.96-.64-1.6-.64-1.12 0-2.08.96-2.08 2.08 0 1.28.64 2.56 1.76 3.52.812.726 1.553 1.183 1.76 1.28 0 0 .951-.419 1.92-1.28 1.12-.96 1.76-2.24 1.76-3.52 0-1.12-.96-2.08-2.08-2.08"/><circle cx="194" cy="222.4" r="9.6" fill="#9dc9ff"/><path fill="#fff" d="M194 232.8c-5.734 0-10.4-4.666-10.4-10.4S188.266 212 194 212s10.4 4.666 10.4 10.4-4.666 10.4-10.4 10.4m0-19.2c-4.852 0-8.8 3.948-8.8 8.8s3.948 8.8 8.8 8.8 8.8-3.948 8.8-8.8-3.948-8.8-8.8-8.8"/><path fill="#fff" d="M193.6 220.96h-.8v-3.04h-.96v3.04h-.8v-3.04h-.96v3.04c0 .48 0 .96.32 1.6.48.64 1.44.8 1.44.8v3.52h.96v-3.52s.96-.16 1.44-.8c.32-.48.32-.96.32-1.6v-3.04h-.96zm3.359-3.04c-.96 0-1.6.8-1.6 1.6v4.32h1.6v3.04h.96v-8.96z"/><path fill="#004975" d="M405.148 202.881a28 28 0 0 0-15.538 4.694 27.96 27.96 0 0 0-12.491-2.935c-15.52 0-28.16 12.64-28.16 28.16s12.64 28.16 28.16 28.16c5.799 0 11.158-1.711 15.612-4.656a28 28 0 0 0 12.416 2.896c15.52 0 28.16-12.64 28.16-28.16s-12.64-28.16-28.16-28.16Z"/><path fill="#007bc0" d="M358.08 243.681s-4.64 11.68-16.16 29.6l1.28-13.92c1.12-7.84 7.2-13.92 14.88-15.68"/><path fill="#001d33" d="M373.079 389.761c-6.4-15.68-6.4-38.4-6.4-38.4h-18.4c-.32 2.4-1.795 10.342-2.548 22.465-.705 11.348-.85 26.174-.85 26.174h31.889c-1.292-3.917-2.533-7.367-3.691-10.239"/><path fill="#b2b9c0" fill-rule="evenodd" d="M362.72 286.6h-18.522l-3.558 15.96-40.8-39.04-15.68 14.88 14.56 3.36s25.28 34.4 40.32 47.68c11.84 10.72 21.256 4.863 21.92-2.24.893-9.54 1.76-40.6 1.76-40.6"/><path fill="#d0d4d8" d="M382.719 220.321c-3.2.8-6.347-.994-9.387-1.154-.32 2.4-1.347 10.933-1.667 13.333 3.68-2.08 8.013-8.979 11.053-12.179Z"/><path fill="#eff1f2" fill-rule="evenodd" d="M396 205.6c2.24-3.2 5.44-8.32 5.6-12.32 0-1.28-.32-2.56-1.28-3.52-3.04-3.36-7.04.64-10.4 5.76-1.6-.32-3.04-.32-4.48-.48-2.72-.16-5.92-.48-11.84-1.76-7.68-1.6-15.04-7.36-17.28-13.28l-1.12 1.6c0 2.72.32 8.64 1.6 15.36.32 1.92.8 3.84 1.28 5.76 3.2 11.68 5.76 17.28 5.76 17.28s4 1.28 9.12 1.6c2.72.16 5.76 0 8.64-.8-2.72 2.88-6.08 5.44-9.44 7.52-.96 8.8-2.08 17.12-2.08 17.12h32.8l-5.6-30.72z"/><path fill="#00a4fd" d="M342.24 351.361s1.44-20.32-1.76-35.04c-1.12-4.96-2.24-9.76-3.2-14.4-3.2-14.08-.96-21.28 4.16-28.16l.32-.64c11.68-17.92 16.16-29.6 16.16-29.6l1.92-.8 9.76-4 2.201-7.04h28.679l2.88 7.04 15.807 5.445v.833l-20.408 106.388-56.519-.027Z"/><path fill="#004975" d="M405.44 178.721c-1.92-6.4-14.72-24.32-35.52-21.44-8.64 1.12-13.28 7.2-15.52 12.96q-.16.96 0 0c-6.08 4.16-11.84 10.4-2.08 22.24l4.48 3.84c-1.28-6.4-1.44-12.16-1.6-14.72l.96-1.6c2.08 5.6 8.32 11.52 15.68 13.12 8.8 1.92 12.8 2.4 18.08 2.88.16 0-.16 0 0 0 2.24-3.84 6.88-9.92 10.24-6.08.8.96 1.28 1.92 1.28 3.2 0 4.48-3.52 9.28-5.6 12.64l1.28 7.2c13.6-20.8 10.4-27.84 8.32-34.24"/><path fill="#7d8389" fill-rule="evenodd" d="m388.8 207.201-.32-22.08 3.52-1.44.32 22.08 10.703-8.159-1.6 4.96-9.263 7.039-7.36 12.96-11.771-.939 9.797-2.058z"/><path fill="#007bc0" fill-rule="evenodd" d="M396.799 185.601c-8.32-2.4-8.64.96-13.92 2.24-3.52.96-26.4.48-35.36.64-8.48-1.28-2.56-9.76 2.24-16.48 4.8-6.88 8.64-13.12 18.56-17.44 14.4-4.32 35.36.8 43.2 13.12 6.56 9.12 5.44 20.32-3.36 35.36h-7.36c1.76-4 2.4-6.88 2.08-8.48-.48-4.96-3.36-8.16-6.08-8.96"/><path fill="#595e62" d="m324.01 282.41-13.76-35.04c-.64-1.44-1.92-2.24-3.36-2.24h-1.6c1.44 0 2.56 1.12 3.04 2.24l13.76 35.36c.48 1.12.273 2.211-.48 3.36-.707 1.079-1.232 1.588-2.672 1.588l1.232.012c1.569 0 2.111-.278 3.04-1.6 1.049-1.493 1.12-2.56.8-3.68"/><path fill="#383b3e" d="M318.938 287.68c1.44 0 2.342-.48 3.142-1.44.8-1.12.8-2.24.48-3.36l-13.92-35.52c-.48-1.44-1.6-2.24-3.04-2.24h-.32l-17.6-.32c-1.12 0-2.24.48-3.04 1.44-.48 1.12-.8 2.24-.32 3.36l13.76 35.52c.48 1.12 1.44 1.92 2.72 2.24h.48z"/><path fill="#fff" d="m282.4 257.92 19.36.48c.48 3.84-1.12 9.12-5.6 12l-12.32 8.16z"/><path fill="#e0e2e5" fill-rule="evenodd" d="M339.04 289.601s-8.96-22.08-9.12-22.72c-.8-2.72-4.64.16-4.64.16l.64 10.88z"/><path fill="#d0d4d8" fill-rule="evenodd" d="m316 295.361-18.24-5.92c-.16-5.28 5.12-11.2 9.76-12 4.16-.64 17.76-.16 17.76-.16z"/><g fill="#9dc9ff"><path d="m308.765 239.471 2.4-9.6 1.671.419-2.4 9.6zM314.684 241.706l6.72-8.48 1.35 1.07-6.72 8.48zM318.25 246.077l9.12-3.52.62 1.607-9.12 3.52z"/></g><path fill="#003253" d="M413.4 351.361h-50.68s0 22.72 6.4 38.4c1.158 2.872 2.399 6.322 3.691 10.239h53.79c-.359-17.723-2.353-32.159-13.201-48.639"/><path fill="#0088d4" d="m426.601 262.72-11.56 88.801-17.76-.16 12.479-94.564z"/><path fill="#e0e2e5" fill-rule="evenodd" d="M421.44 249.761c7.36 1.76 7.68 11.68 7.68 19.84-.8 25.12-1.76 67.04-8.48 69.76s-18.56-5.12-18.56-5.12l-.16-19.52s.96-66.56 19.52-64.96"/><path fill="#e0e2e5" fill-rule="evenodd" d="M407.84 337.278c-17.6-6.56-44.32-17.12-55.84-25.6-6.4-4.8-16.48-10.08-16.48-10.08l-19.84-6.4 9.6-17.92c5.92 2.24 16.16 14.72 17.44 15.2 19.68 7.84 53.44 10.24 67.04 25.28z"/><path fill="#0088d4" d="M395.68 295.521s2.24-19.2 3.68-32.64c.8-6.88 8.64-20.8 20.16-18.56 7.52 2.24 12 7.84 12.48 19.04.32 9.44 1.12 33.76 1.12 33.76z"/><path fill="#006ead" d="M328.159 159.36c0-1.76-1.44-3.36-3.36-3.36h-119.68c-1.76 0-3.36 1.44-3.36 3.36v35.84c0 1.76 1.44 3.36 3.36 3.36h106.56l16.32 14.72v-53.92z"/><path fill="#fff" fill-rule="evenodd" d="M317.28 177.281c0 5.6-4.64 10.24-10.24 10.24s-10.24-4.64-10.24-10.24 4.64-10.24 10.24-10.24c5.76 0 10.24 4.64 10.24 10.24"/><path fill="#006ead" d="m305.28 182.561 8.48-8.48-1.76-1.92-6.72 6.72-3.04-3.2-1.92 1.92z"/><path fill="#0096e8" d="M287.52 170.72H214.4c-.96 0-1.6.64-1.6 1.44v10.24c0 .8.64 1.44 1.6 1.44h73.12c.96 0 1.6-.64 1.6-1.44v-10.24c0-.8-.8-1.44-1.6-1.44"/><path fill="#eff1f2" d="M564.925 347.849H453.772a1.44 1.44 0 0 0 0 2.88h111.153a1.44 1.44 0 0 0 0-2.88"/><path fill="#d0d4d8" fill-rule="evenodd" d="M544.183 305.768a21.8 21.8 0 0 0-7.853 1.461l-6.093-12.86 6.94-3.317a2.055 2.055 0 0 0-1.685-3.748l-4.18 1.937a1.884 1.884 0 0 0-.962-2.481 1.88 1.88 0 0 0-1.466-.02l-4.472 1.838a1.884 1.884 0 0 0 .816 3.622l1.148 2.369-25.803 15.914-5.857-16.657c.482-.11.89-.268 1.334-.44.413-.16.857-.332 1.419-.488a14.7 14.7 0 0 1 2.879-.451c1.904-.126 1.97-2.289-.484-2.541l-5.245-.652c-3.962-.543-6.226-.849-7.453.214-.602.521-.569 1.592-.325 2.209.255.646 1.617 1.908 5.765 2.269l6.204 17.624-4.75 2.93c-3.984-5.301-10.324-8.731-17.466-8.731-12.06 0-21.836 9.776-21.836 21.836s9.776 21.836 21.836 21.836c10.581 0 19.402-7.526 21.407-17.517l2.633.262c.451.053.856.325 1.081.716l1.261 1.964c.358.564 1.012.783 1.622.823.494.033 1.008.031 1.966-.547l1.926 5.76h-2.27a.663.663 0 0 0-.683.624v.71a.655.655 0 0 0 .683.631h7.146a.655.655 0 0 0 .683-.631v-.71a.653.653 0 0 0-.683-.624h-2.537l-.001-.006-2.287-6.839 1.854-1.016c.252-.126.458-.325.591-.57l16.334-29.517c.153-.272.385-.484.67-.61l1.785-.79 3.467 7.157c-6.511 3.78-10.893 10.822-10.893 18.893 0 12.06 9.776 21.836 21.836 21.836s21.836-9.776 21.836-21.836-9.776-21.836-21.836-21.836Zm-67.59 39.833c-9.94 0-17.997-8.058-17.997-17.997s8.058-17.997 17.997-17.997c5.76 0 10.875 2.716 14.169 6.925l-12.92 7.968a3.344 3.344 0 1 0-1.289 6.43c.89 0 1.696-.35 2.295-.916l15.297 1.524c-1.797 8.044-8.966 14.062-17.552 14.062Zm17.997-17.997a18 18 0 0 1-.099 1.883l-14.672-1.183a3.33 3.33 0 0 0-.84-3.015l12.683-7.51a17.9 17.9 0 0 1 2.929 9.825Zm8.173-2.398-3.118 4.213a1.02 1.02 0 0 1-.896.411l-.429-.035q.109-1.082.11-2.192c0-4.342-1.273-8.385-3.458-11.785l2.544-1.506c.783-.418 1.712-.139 2.023.803.834 2.496 2.29 6.953 2.95 8.97l.308.941c.02.06 0 .133-.033.179Zm18.725-21.389-8.315 15.385-2.588 4.79a1.39 1.39 0 0 1-1.214.743l-2.415.053a1.425 1.425 0 0 1-1.38-.962l-3.569-10.436a1.42 1.42 0 0 1 .623-1.685l16.736-9.927c1.332-.79 2.857.676 2.121 2.038Zm22.695 41.784c-9.94 0-17.997-8.058-17.997-17.997 0-6.549 3.51-12.264 8.74-15.413l6.531 13.48a3.32 3.32 0 0 0-.618 1.932 3.344 3.344 0 1 0 6.688 0 3.34 3.34 0 0 0-3.123-3.333l-6.418-13.545a17.9 17.9 0 0 1 6.197-1.118c9.94 0 17.997 8.058 17.997 17.997s-8.058 17.997-17.997 17.997"/></svg>