<svg xmlns="http://www.w3.org/2000/svg" data-name="Ebene 1" viewBox="0 0 935.16 972.942"><path fill="#1a1c1d" d="m453.51 471.525 1.58.95-57.84 59.39-1.54-1.45-7.62-7.22-1.52-1.43 42.94-44.24 1 1 15-13 13-14 7 2zM10.112 919.171 0 929.85l1.533 1.438 1.26 1.197 6.363 6.027 1.523 1.45 10.111-10.68-1.522-1.438-7.634-7.224z"/><path fill="#8a9097" d="M634.43 113.165a80.6 80.6 0 0 1-16.24 13.03c.38-3.95.8-7.96 1.18-11.72.02 0 .05.01.08.01 5.03.34 10.09-.1 14.98-1.32"/><path fill="#979ea4" d="M586.45 360.305a25.2 25.2 0 0 1-6.52 7.68l-1.33 1.02-72.67 61.69-21.42 25.83-26 18-3.42-2.05-1.58-.95 12-18-7-2-13 14-15 13-3-3 24.57-38.26 26.67-9.72 76.9-97.86-.03.15 1.31-.22c17.21-3.03 31.79 11.55 29.52 30.69"/><path fill="#7d8389" d="M611.67 150.955c-.58 1.27-1.24 2.65-2 4.14-4.77 9.43-10.27 26.25-25.3 44.22-3.87 4.69-7.41 8.85-10.54 12.82l4.68-30.26c2.37-16.57 15.84-29.33 32.51-30.82zm-27.514 212.812c2.27-19.14-9.975-36.895-27.185-33.865l-1.812.407.49-.624 9.46-61.18c.42 1.2.84 2.4 1.3 3.6 3.92 10.64 9.63 33.4 14.95 56.25 2.31 9.93 4.55 19.87 6.53 28.85.04.22.09.43.14.65-.54.92-1.07 1.8-1.6 2.63.01-.06-2.283 3.342-2.273 3.282"/><path fill="#979ea4" d="m756.82 532.72-6.3 34.132c39.138 5.028 42.052-39.05 42.17-41.136l-.058-.083-35.624 6.644z"/><path fill="#00512a" d="m716.762 391.88-31.187-2.433-61.656-.314h-1.64c-.041 2.45-.974 25.422-21.716 67.032-.18.36-.348.71-.538 1.08-1.035 1.94-1.953 3.97-3.083 6.04-33.673 64.59-62.192 183.86-62.192 183.86L472.172 923.33l-.074.02 20.766 6.3.026-.084c94.08-197.09 104.28-148.65 100.5-253.82-.49-12.84 6.31-28.01 15.95-45.24 11.28-20.13 20.23-36.77 30.501-50.78l.063-.09c32.935-45.27 57.14-64.23 70.06-89.51l.031-.06c10.978-21.49 13.639-47.546 6.767-98.186M488.51 916.014v-.06l.02.06zM661.76 103.15c-.02.03-.04.07-.06.1l-3.3-17.54c3.83-4.8 11.67-15.17 11.77-23.34.1-2.24-.67-4.43-2.14-6.13a7.7 7.7 0 0 0-.95-.88c-.16-.13-.33-.25-.5-.34-.17-.11-.33-.2-.5-.27a4 4 0 0 0-.52-.2c-.15-.05-.3-.09-.44-.12-6.07-1.42-13.93 8.78-17.41 14.8-7.58-1.15-13.092.886-28.512-2.485-4.67-1.04-8.218-4.326-12.428-6.806-7.64-4.52-13.88-10.93-16.26-17.52l-1.8 2.81c.14 4.92.5 9.83 1.06 14.72v.01c.283 2.073.709 5.977.709 5.977.096.33-6.509-.807-6.449-.067-16.16-17.93-6.14-35.81 4.72-43.17l.18-.2c4.09-10.44 12.06-19.39 27.58-21.53 37.8-5.17 57.16 10.69 63.68 39.3l.04.04c1.02 14.09 5.59 25.37-18.47 62.84z"/><path fill="#c1c7cc" d="M606.77 59.935c-.24-.01-.853 1.862-1.103 1.862-6.25-.07-11.436-.08-15.896 0-.56-4.89-.921-11.652-1.061-16.572l1.8-2.81c2.38 6.59 8.62 13 16.26 17.52"/><path fill="#00381b" d="m622.226 390.4.156 1.745c-.042 2.45-1.077 22.41-21.82 64.02-.2.38-.39.76-.59 1.15-8.635-41.45-8.213-65.44-8.213-65.44h.032l-.04-1.475z"/><path fill="#c1c7cc" d="m661.76 103.15 6.42 34.596-52.013 3.215c.43-3.8 1.563-10.522 2.023-14.762 5.95-3.62 11.41-8 16.24-13.03a48.4 48.4 0 0 1-14.98 1.32c-.03 0-.06-.01-.08-.01-5.32-.3-10.58-1.25-15.68-2.81 0 0-4.14-9.02-9.31-27.64.76-.13 1.51-.28 2.23-.47l3.28-10.95 3.28 10.95c9.08 1.59 20.06.92 25.18 0 2.19-1.09 4.38-10.95 5.48-13.14l13.75-.95c0-.02 0 0 0 0 .04-.08.09-.16.13-.24 3.48-6.02 11.34-16.22 17.41-14.8.14.03.29.07.44.12.17.05.34.12.52.2.17.08.34.17.5.27.17.1.34.21.5.34.32.25.64.54.95.88a8.78 8.78 0 0 1 2.14 6.13c-.1 8.17-7.94 18.54-11.77 23.34l3.3 17.54c.02-.03.04-.07.06-.1z"/><path fill="#a4abb3" d="m756.82 532.72.18-7.22-16.59 16.74-5.29-7 22.64-39.51.38-14.68s-30.45-90.18-25.15-119.46h-.05q.345-1.92.87-4.02l.06-.24c.03.06.06.12.08.17.07-.38-.22.19-.08-.17-2.668-14.334 9.183-29.578 25.063-34.748 2.48-.82 8.657 1.307 11.447.967v.01l.82 9.67 13.82 164.36 7.67 28.13z"/><path fill="#979ea4" d="M690.368 187.6c2.17-9.31 5.142-14.639 7.422-30.875.08-.578.73-.92 1.1-1.37-7.18-2.11-19.62-7.58-23.59-11.72l-.07-.03c-5.82-6.13-5.93-7.88-5.93-7.88l-1.59.09-50.88 2.57-1.42.07s.22 3.71-3.74 12.5c-.58 1.27-1.24 2.65-2 4.14-4.77 9.43-10.27 26.25-25.3 44.22-3.87 4.69-7.41 8.85-10.54 12.82-2.13 2.69-4.07 5.3-5.78 7.9-6.42 9.9-9.35 19.52-6.78 34 .92 4.91 2.22 9.74 3.84 14.47.42 1.2.84 2.4 1.3 3.6 3.92 10.64 9.63 33.4 14.95 56.25 2.31 9.93 4.55 19.87 6.53 28.85.04.22.09.43.14.65 4.17 18.91 3.613 33.37 3.761 34.02 0 .02.01.04.01.04h93.62v-.04l8.249-131.11c-.02-.06 2.821-1.763 2.801-1.823-5.32-16.19-8.66-27.468-9.73-39.298-.21-2.49.085-11.266.085-11.736.06-7 1.662-12.217 3.542-20.307zm-75.578-31.825-.07-.04h.07z"/><path fill="#a4abb3" d="M614.79 155.735v.04l-.07-.04z"/><path fill="#8a9097" d="m716.7 320.01.062 71.87-34.766.035L693.67 260.77c.78 2.37 1.58 4.76 2.42 7.16l-.58.21 19 50.39 1.35-.45c.28.64.56 1.29.84 1.93"/><path fill="#00381b" d="m863.73 883.695.397.647-16.633 11.11-.204-.757-171.22-236.52s-17.186-33.98-36.166-78.54c32.935-45.27 57.14-64.23 70.06-89.51l.031-.06c5.13 32.84 9.025 70.12 16.615 107.69 3.895 19.42 4.43 35.37 12.98 45.01 68.98 77.53 72.97 37.63 124.14 240.93"/><path fill="#a4abb3" d="m863.73 883.695-16.44 11-47.082 73.111.29.093a36.16 36.16 0 0 0 30.248-6.314l65.764-49.535zm-391.525 39.644-.033-.01-85.012 5.162.08.252a36.38 36.38 0 0 0 22.954 20.624l78.908 23.575 3.788-43.377zm-85.057 5.152h.012l-.012-.04z"/><path fill="#979ea4" d="M770.382 323.543h.002z"/><path fill="#b2b9c0" d="m764.45 301.88-.01.01-47.65 15.88-.83.28-.1.03c.28.64.56 1.29.84 1.93 6.1 14.06 12.11 27.05 17.11 37.56l.06-.24c.03.06.06.12.08.17.07-.38.18-.76.32-1.12 2.85-11.99 12.33-25.91 28.21-31.08 2.48-.82 5.11-1.41 7.9-1.75zm-14.57-53.135-.01.01-30.68 10.93-23.06 8.23-.04.01a403 403 0 0 1-2.48-7.34c-5.32-16.19-9.17-31.24-10.24-43.07-.21-2.49-.37-9.22-.37-9.67 0-.46.01-.93.01-1.4.06-7 .75-15.03 2.63-23.12 2.17-9.31 5.93-18.68 12.15-26.6.36-.46.73-.92 1.1-1.37q.01 0 .01-.01c17.36.39 27.8 10.12 33.89 31.03z"/><path fill="#1a1c1d" d="m647.58 69.47-13.75.95c-1.1 2.19-3.29 12.05-5.48 13.14-5.12.92-16.1 1.59-25.18 0l-3.28-10.95-3.28 10.95c-.72.19-1.47.34-2.23.47-2.53.43-5.26.55-7.75.39-1.24-6.12-2.1-12.32-2.6-18.55-.06-.74-.32-4.65-.39-5.72 1.69-.08 3.76-.15 6.13-.19v-.01c4.46-.08 10.02-.09 16.27-.02.25 0 .49 0 .73.01 4.21 2.48 8.84 4.4 13.51 5.44 15.42 3.37 19.85 2.7 27.43 3.85-.04.08-.09.16-.13.24 0 0 0-.02 0 0"/><path fill="#a4abb3" d="M488.53 916.015h-.02v-.06z"/><path fill="#e0e2e5" d="m750.51 248.53-.63.22-.01.01-30.68 10.93-23.06 8.23-.04.01-.58.21 19 50.39 1.35-.45.1-.03.83-.28 47.65-15.88.01-.01 1.06-.35zm-32.43 38.1c-.21.03-.42.07-.64.08a9.47 9.47 0 0 1-10.15-8.72c-.4-5.22 3.51-9.76 8.71-10.16.98-.07 1.94 0 2.85.21 3.93.91 7 4.28 7.31 8.51.38 5-3.19 9.38-8.08 10.08m19.68 17.52c-5.22.4-9.76-3.5-10.16-8.72s3.51-9.76 8.73-10.16c5.2-.4 9.76 3.51 10.15 8.73.4 5.2-3.5 9.76-8.72 10.15m4.38-25.65c-5.21.4-9.77-3.51-10.16-8.73-.39-5.2 3.5-9.75 8.72-10.15s9.76 3.51 10.16 8.72c.4 5.22-3.51 9.76-8.72 10.16"/><path fill="#1a1c1d" d="M718.08 286.625c-.21.03-.42.07-.64.08a9.47 9.47 0 0 1-10.15-8.72c-.4-5.22 3.51-9.76 8.71-10.16.98-.07 1.94 0 2.85.21 3.93.91 7 4.28 7.31 8.51.38 5-3.19 9.38-8.08 10.08"/><path d="M742.14 278.495c-5.21.4-9.77-3.51-10.16-8.73-.39-5.2 3.5-9.75 8.72-10.15s9.76 3.51 10.16 8.72c.4 5.22-3.51 9.76-8.72 10.16m-4.38 25.65c-5.22.4-9.76-3.5-10.16-8.72s3.51-9.76 8.73-10.16c5.2-.4 9.76 3.51 10.15 8.73.4 5.2-3.5 9.76-8.72 10.15"/><path fill="#a4abb3" d="m57.09 879.79-3.51-3.32-41.95 44.15 7.64 7.23 41.86-44.23zm338.62-349.37L200.05 736.99l-7.78-7.07L388.09 523.2z"/><path fill="#006c3a" d="M192.27 729.92 75.92 852.76l-22.34 23.71 3.51 3.32 4.04 3.83 9.76-10.3 12.56-13.24 116.6-123.09z"/><path fill="#a4abb3" d="M935.148 928.491h.012l-.012-.04z"/></svg>