<svg xmlns="http://www.w3.org/2000/svg" data-name="Ebene 1" viewBox="0 0 1378.25 1878.878"><path fill="#001222" d="M995.805 96.523c15.1 42.212 82.858 48.724 113.239 49.468 2.025-4.651 19.15-39.98 34.064-23.62 12.89 14.318-8.839 45.747-17.863 57.647l23.939 133.516h-107.53s3.31-27.894 6.814-57.276q1.101-11.153 2.21-21.755c-10.13-.558-20.255-2.418-30.014-5.395 0 0-8.472-18.592-18.783-57.084-5.89-22.876-9.206-46.491-9.759-70.106zm265.878 191.35c-.733-14.32-3.13-28.825-8.472-41.841-11.411-27.15-30.01-50.393-52.104-64.898-18.783-12.645-31.673-32.544-35.537-54.857-2.025-11.529-4.236-23.429-6.075-32.173-12.337-54.851-41.979-87.21-113.605-77.17-29.462 4.093-44.743 21.389-52.476 41.283 0 .186-.186.186-.186.372-21.176 14.505-40.693 50.579-5.895 85.913v52.625c-.18.559-.367 1.117-.733 1.675-7.367 17.476-19.703 46.672-19.703 64.711 0 35.33 12.336 60.433 20.436 73.078v66.2l281.531-5.018s12.703-10.97 19.884-38.492c5.522-21.76 3.497-43.329-27.065-71.409z"/><path fill="#e0e2e5" d="M1078.846 232.085c-9.206 2.233-18.72 2.918-28.17 2.419-.733 7.064-1.472 14.69-2.211 22.127 11.05-6.878 21.127-15.154 30.147-24.264z"/><path fill="#eff1f2" d="M1020.846 229.11c9.759 2.977 19.703 4.837 30.015 5.395 9.386.559 18.778-.185 27.984-2.418-9.02 9.296-19.15 17.296-30.196 24.173-3.316 29.382-6.814 57.276-6.814 57.276h107.344l-23.933-133.516c9.02-11.9 30.747-43.329 17.858-57.647-14.914-16.366-31.853 19.15-34.064 23.615-30.562-.745-98.138-7.436-113.233-49.463l-3.498 5.395c.734 23.615 3.864 47.23 9.753 70.101 10.312 38.492 18.784 57.09 18.784 57.09z"/><path fill="#e0e2e5" d="m711.94 610.976-74.29 15.792 13.953 54.591 71.467-24.779c160.516 5.087 334.15 18.188 325.492-112.622-.293-2.062-336.622 67.018-336.622 67.018"/><path fill="#9dc9ff" d="M990.098 321.53c-27.804 6.325-50.084 28.824-54.315 57.276l-4.79 51.509c42.532-66.014 59.105-108.785 59.105-108.785"/><path fill="#eef0f0" d="m933.02 756.666 20.255-39.422zc-1.292 8.738-9.392 92.047-9.392 100.785-.186-8.552 8.1-92.047 9.392-100.785"/><path fill="#e0e2e5" d="M990.098 1795.186c.186 0-.367.187 0 .187h33.511v.93c.367-.373-.186-.745 0-1.303 27.25-103.203 63.521-226.638 34.618-396.977-38.3-6.134-75.863-13.389-111.58-16.546l43.45 413.71z"/><path fill="#eff1f2" d="M1303.112 1795.186c-7.548-246.392 2.763-343.975-6.995-415.383-39.587 21.382-81.571 28.824-124.47 29.196l96.847 386.56s-.547 0 0 0z"/><path fill="#001222" d="m1374.921 1847.44-71.807-53.37-34.803.372-5.523 82.937h96.48c10.498 0 18.965-8.552 18.965-19.155.186-3.902-1.1-7.622-3.312-10.785m-384.638-51.88-160.74 56.159.367.558c13.075 15.993 32.406 25.29 53.029 25.29h156.508l-15.839-81.077v-.93z"/><path fill="#0096e8" d="m1178.643 685.258 75.862-270.38c.506-1.463 25.226-63.942-43.088-92.043l-94.09 362.237z"/><path fill="#d1e4ff" d="M946.826 685.076h170.69l93.901-361.874v-.367c-2.392-.75-56.16-18.783-56.16-18.783l-10.31-25.662h-103.108l-9.392 25.662-35.537 14.69-6.814 2.791s-16.572 42.952-59.104 108.784l-1.286 2.041c-19.15 25.29-27.25 51.695-15.467 103.395a41390 41390 0 0 1 11.964 53.183c11.784 53.741 20.623 96.14 20.623 96.14"/><path fill="#0096e8" d="M1169.068 717.615H953.274l-20.256 39.422c-1.291 8.738-9.578 92.047-9.392 100.79-.186 1.298-39.586 523.279-38.848 523.279 19.698-2.047 40.507-1.488 62.049.553 35.537 3.162 73.284 10.417 111.58 16.55 37.748 6.14 76.043 11.343 113.791 10.785 42.718-.372 84.882-7.994 124.47-29.19a236.8 236.8 0 0 0 50.265-36.451c1.472-1.302-54.315-535.18-177.865-625.738"/><path fill="#001222" d="m1178.643 685.258-231.817-.182 6.265 32.536h216.16z"/><path fill="#7ebdff" d="M1211.417 322.835c33.326 5.395 55.788 18.409 65.918 59.319l67.056 202.522-134.079-50.6s-20.803-37.004-24.673-97.814c-1.839-29.005.553-81.254 25.778-113.427"/><path fill="#eff1f2" d="m1030.421 455.046-45.848-33.103-30.195 68.06c11.783 1.489 52.476 7.256 55.973 9.116 155.584 83.862 266.064 211.244 326.64 82.75z"/><path fill="#e0e2e5" d="M894.904 436.637s1.106 5.395 2.945 12.458c.739 2.604 17.678 7.622 18.598 10.412 1.658 6.14 3.869 12.087 6.26 17.854 5.895 12.83 31.488 12.645 31.488 12.645l30.195-68.06-89.486 14.69z"/><path fill="#eef0f0" d="m593.176 621.347 64.579-42.027c10.73 11.725 16.982 35.856 9.094 51.78l-15.25 50.26z"/><path fill="#656a6f" d="M461.116 679.374c.92.372 1.844.559 2.764.93l114.115 296.223 58.073 93.093-19.172 5.954c-12.724 3.911-26.549 2.051-37.61-5.395-13.09-8.568-28.945-19.927-32.262-25.694-24.518-41.893-29.68-93.838-29.68-93.838L401.019 768l-2.03-2.977c-5.528-8.01-8.85-17.502-9.583-27.187-2.77-36.86 31.704-71.121 71.711-58.46z"/><path fill="#656a6f" d="m636.252 1000.729-5.347 16.758-57.148-26.065-16.041-63.117z"/><path fill="#cfd2d7" d="m235.28 198.46.187-.558c-.186.186-.553.372-.92.558h.734zm-14.93-70.005c0-.744-.185-1.489 0-2.047-.552-1.307-1.105-3.167-1.657-5.028z"/><path fill="#71767c" d="M307.007 181.345c-7.005 1.86-12.927 5.363-18.088 10.572l-6.255-20.596s-1.919-.553-10.03-3.721c-8.11-3.349-13.463-43.95-16.78-62.006-3.502-19.921-2.663-24.391-2.663-24.391s37.211-15.308 47.905-13.633c10.88 1.865 35.952 18.246 48.485 18.246 4.794 0 9.588-1.302 14.01-3.534.74 2.79 1.292 5.772 1.845 8.934-.186 16.015-1.472 32.21-4.236 48.038-1.292 7.447-2.77 15.08-4.98 22.898l-1.106 3.912-10.157 26.517c-11.986-15.451-25.529-14.17-35.484-11.752z"/><path fill="#71767c" d="m235.469 198.46.738-4.099 3.87-21.78c-5.533-8.383-12.72-20.294-16.775-31.652-1.477-3.912-2.397-8.005-2.95-12.103 0-.744-.186-1.488-.186-2.052 0-4.278.92-8.19 3.503-10.98 5.347-5.959 11.433-3.726 16.96 1.674 9.77 9.306 17.886 27.74 17.886 27.74l-9.588 34.075c-.187.744-.187 1.674-.373 2.418-.366 2.604-.366 5.028-.18 7.633.92 11.358 7.005 23.646 17.88 29.977 14.935 8.562 21.754 9.498 31.71 15.823 4.794 3.167 10.875 9.126 15.488 13.968a3266 3266 0 0 0 5.528 46.358H217.955l17.328-96.442z"/><path fill="#7d8389" d="M.02 1860.632c0 10.056 8.115 18.06 17.885 18.06h128.86l-10.137-78.381H68.967l-65.998 50.27c-2.025 2.976-3.13 6.516-2.95 10.05m518.219-6.33-135.313-53.804H290.56l-15.85 78.381h192.647c19.543 0 38.162-8.748 50.515-24.019z"/><path fill="#003253" d="M20.145 1802.186c0-388.753 109.321-609.686 108.396-645.435-5.16-195.495-11.006-243.555 22.362-369.97l195.173.462c-1.106 24.763-5.159 79.058-21.566 119.464-16.589 40.772-36.319 115.061-54.565 190.095-27.841 115.805-51.254 233.477-51.254 233.477l-77.245 471.907z"/><path fill="#001d33" d="m419.265 787.243-.74 29.791-12.352 481.284-17.694 503.564H250.4c4.421-306.459 6.632-257.055 35.945-462.973 12.166-84.903.553-165.89-16.221-242.411 18.065-75.034 37.79-149.323 54.384-190.095 16.407-40.406 20.463-94.397 21.569-119.16h73.189z"/><path fill="#d1e4ff" d="m418.162 629.663 26.69-173.345 25.664 230.318-2.025.744-50.143 15.27z"/><path fill="#7ebdff" d="M217.054 786.793 191.41 413.316l-77.983-96.629 108.768-64.047h99.18l75.958 46.359c36.866 22.53 58.068 64.233 54.565 107.615l-7.005 49.34-26.73 173.709.367 72.981.739 84.904z"/><path fill="#56b0ff" d="M217.087 786.781h-66.184l-37.48-469.723v-.372l.258.318 77.728 96.312z"/><path fill="#71767c" d="M312.897 249.846H227.54l31.524 25.508 31.524 13.59 24.338-13.404 2.764-18.433z"/><path fill="#001222" d="m294.092 272.189-30.785 22.53 22.308 29.042-12.725 28.861 7.744 318.375 31.71 41.703 35.027-48.219-25.438-311.859-17.333-28.861 16.041-25.88z"/><path fill="#d1e4ff" d="M250.586 313.707s32.448-24.763 43.509-41.335c.733-1.117-24.152-2.977-43.138-15.824-21.02-14.149-22.126-21.6-22.126-21.6l-23.78 27.187s32.815 35.93 45.535 51.572"/><path fill="#d1e4ff" d="M313.265 243.888c.187 16.945-19.171 28.303-19.171 28.303l33.368 41.33s7.744-23.274 7.744-38.725-21.94-30.908-21.94-30.908"/><path fill="#001222" d="M219.107 49.575c16.306-9.169 34.277-7.298 47.06-18.152 12.602-10.853 18.528-24.14 40.208-29.568 21.68-5.426 30.387 2.249 33.906 7.675 3.523 5.427 9.078 23.764 9.078 23.764s29.648-3.927 29.648 23.392c0 5.24-1.298 10.482-3.891 14.968 4.076 7.297 22.977 46.411-14.08 68.118 2.78-15.908 4.077-32.002 4.257-48.282-.552-3.179-1.11-6.171-1.85-8.977-4.262 2.242-9.077 3.55-14.084 3.55-12.597 0-37.982-16.466-48.73-18.337-10.741-1.871-46.506 14.037-46.506 14.037s-1.111 5.05 2.593 25.071c3.338 18.151 8.712 56.138 16.865 59.508 8.148 3.37 9.817 4.864 9.817 4.864l5.746 19.65c5.001-5.241 11.486-8.983 18.528-10.854 10.003-2.434 23.902-3.928 36.313 11.417l11.13-25.358s15.185 14.69 15.185 41.447c0 23.02-18.342 27.883-18.342 27.883-5.56 5.427-11.491 10.295-17.79 14.781-4.635 2.812-9.45 4.869-14.638 6.554 0 0-2.593-2.998-6.112-6.926-4.449-4.863-10.747-11.04-15.563-14.032-10.008-6.362-16.865-7.297-31.87-15.908-10.932-6.362-17.05-18.714-17.975-30.126-.186-2.62-.186-5.055.186-7.675.186-.75.186-1.685.372-2.429l9.631-34.245s-8.148-18.715-17.784-28.07c-5.56-5.426-11.571-7.207-16.748-1.525-2.594 2.812-3.439 7.346-3.439 11.646-.558-1.494-1.493-3.944-2.046-5.815-6.299-19.65-12.788-64.372.925-72.046"/><path fill="#71767c" d="m591.776 594.942 60.863-32.066 38.099 28.696-6.299 10.742-26.294-10.305-15.137 9.221z"/><path fill="#e0e2e5" d="m729.157 607.446-30.203-24.106-46.81-24.264-36.574 33.82 22.08 1.218 15.652-11.222 12.539 5.682 40.561 23.678z"/><path fill="#d1e4ff" d="M268.084 657.926 94.381 407.823c-19.576-34.362-16.955-62.883 5.82-83.925 37.535-29.744 85.42 9.902 103.331 30.875 34.203 39.885 137.05 206.97 136.19 218.51-5.449 72.896-71.638 84.643-71.638 84.643"/><path fill="#71767c" d="M425.251 565.351c57.42 2.855 119.787 16.488 166.14 27.485l74.066-6.368s-3.63 78.903-3.444 78.94c-21.978 6.278-78.61-5.894-78.61-5.894s-315.33.494-315.32-1.59a97.3 97.3 0 0 1 4.423-27.005c17.03-55.697 81.183-69 152.745-65.568"/><path fill="#595e62" d="m665.458 586.468 62.52 36.397s.329 1.068-7.144 10.742c-15.967 20.479-56.654 30.593-58.95 31.864l3.577-78.999"/></svg>