<svg xmlns="http://www.w3.org/2000/svg" viewBox="0 0 415 737"><g fill="none" fill-rule="evenodd"><path fill="#551151" fill-rule="nonzero" d="M342.181 155.85c0-.37.08-.74.08-1.11a2.1 2.1 0 0 1 .07-.66 1 1 0 0 0-.29-1v-.66a1 1 0 0 0 .36-.89 1 1 0 0 1 .15-.66v-2.35a3 3 0 0 1-.22-.66 3.2 3.2 0 0 0-.07-.81l-.08-.66c0-.29-.07-.59-.07-.81s-.07-.44-.07-.66l-.08-.81c0-.22-.07-.44-.07-.66a3.5 3.5 0 0 0-.15-.81c-.07-.22-.07-.44-.14-.66s-.08-.51-.15-.73l-.15-.59c-.07-.22-.15-.52-.22-.74s-.07-.37-.15-.59-.14-.51-.22-.73a1.8 1.8 0 0 1-.14-.59 1.5 1.5 0 0 0-.3-.73 3 3 0 0 0-.22-.52c-.07-.29-.22-.59-.29-.81l-.15-.44c-.15-.29-.29-.66-.44-.95a.3.3 0 0 1-.07-.22c-.22-.37-.37-.74-.59-1.18-.07-.07-.15-.22-.22-.29a3 3 0 0 0-.52-.81 1.3 1.3 0 0 0-.29-.44l-.44-.66-.29-.44a3.8 3.8 0 0 0-.45-.59 2.1 2.1 0 0 0-.36-.44c-.15-.15-.3-.37-.52-.59a1.6 1.6 0 0 1-.36-.44l-.52-.52-.44-.44a5 5 0 0 0-.59-.51c-.22-.15-.29-.3-.44-.37a4.3 4.3 0 0 0-.59-.44 2.8 2.8 0 0 0-.51-.37 5 5 0 0 0-.59-.44l-.51-.37-.67-.44a2.3 2.3 0 0 0-.58-.29l-.66-.37-.59-.29c-.22-.15-.52-.22-.74-.37a1.9 1.9 0 0 0-.59-.29 8 8 0 0 1-.8-.37 2.8 2.8 0 0 0-.59-.22c-.22-.08-.59-.22-.88-.3s-.37-.14-.59-.22l-.15-.07q-15.875 60.502-22.89 91.324t-12.6 64.596h19.69l33.73-119.57c.08-.58.15-1.1.22-1.69z"/><path fill="#E0E2E5" fill-rule="nonzero" d="m200.381 239.1-80.7 47.32-10.55.89-13 15.41 4.6 2.07 20.77 9.18 16.18-19.38s65.1-21.49 78.68-29.39c4.5-2.62 5.78-3 7.66-5.86 7.1-10.72-16.14-25.36-23.64-20.24"/><path fill="#E0E2E5" fill-rule="nonzero" d="m204.761 223.9-4.38 15.2 28.7 16.88 1.61-27.83z"/><path fill="#551151" fill-rule="nonzero" d="m218.021 146.03-19.92 81.53 33.72 11.51z"/><path fill="#8A9097" fill-rule="nonzero" d="M138.091 308.82a5.08 5.08 0 0 0-2.8-6.34l-86.89-37.24a32.1 32.1 0 0 1-9.32-6.09l-2.13-2a22.23 22.23 0 0 0-13.95-6l-12.26-.7a2.67 2.67 0 0 0-2.66 1.86 3.2 3.2 0 0 0 1.73 3.92l1.09.47a2.62 2.62 0 0 1 1.43 1.39l1.31 3.28a2.65 2.65 0 0 0 3.44 1.47l1.85-.74a2.64 2.64 0 0 1 3.4 1.45l.8 1.93a2.65 2.65 0 0 0 3.43 1.45l1.86-.75a2.64 2.64 0 0 1 3.43 1.47l.75 1.86a2.66 2.66 0 0 0 3.44 1.47l3.29-1.31a2.66 2.66 0 0 1 2 0l79.61 34.12-83.61-22.69a2.64 2.64 0 0 1-1.58-1.23l-1.76-3.06a2.63 2.63 0 0 0-3.6-1l-1.75 1a2.65 2.65 0 0 1-3.6-1l-1-1.74a2.65 2.65 0 0 0-3.59-1l-1.82 1a2.65 2.65 0 0 1-3.59-1l-1-1.73a2.64 2.64 0 0 0-3.61-1l-3.06 1.75a2.66 2.66 0 0 1-2 .26l-1.13-.31a3.2 3.2 0 0 0-3.79 2 2.65 2.65 0 0 0 1 3l10.05 7.07a22.23 22.23 0 0 0 14.64 4l2.91-.24a32.2 32.2 0 0 1 11.09 1l91.19 24.88a5.08 5.08 0 0 0 6.13-3.23z"/><path fill="#C1C7CC" d="m91.331 305.13 9-20.75c6.48 1.79 18 5.58 19.71 14.66 1 5.18 1.46 14.89 1.46 14.89z"/><path fill="#551151" fill-rule="nonzero" d="M238.391 280.2c29.25-86.5 15.58-164.76 15.58-164.76l-18.08 5.29c-12.348 2.761-21.174 13.657-21.31 26.31l-1.79 76.54 11.22 24.91c14.26-4.48 15.41 18.85 14.38 31.71m-3.38 9.63-.73 1a2.5 2.5 0 0 0 .73-1"/><path fill="#71767C" fill-rule="nonzero" d="M301.101 21.43h-.14q.23.482.36 1zm-64.45-1.69q.216-.75.52-1.47a4.3 4.3 0 0 0-.52 1.47"/><path fill="#D0D4D8" fill-rule="nonzero" d="M271.931 86.16a38 38 0 0 1-10.8.88c-.15 1.4-.29 2.94-.44 4.41-.15 1.25-.25 2.63-.4 3.88a55.7 55.7 0 0 0 11.78-9.15z"/><path fill="#E0E2E5" fill-rule="nonzero" d="M257.581 118.51h43l-4.85-26.89-2.4-13.23-2.35-12.79c3.67-4.7 12.34-17.2 7.2-22.78a4.3 4.3 0 0 0-1.47-1.1c-4-1.91-9 4.55-12 9.4l-6.76-13.59h-6.25l-9-16.32-.22 16.32h-8.67l-8.57-9.22.51 9.19h-7.94a129.7 129.7 0 0 0 3.75 24.91c4.12 15.29 7.57 22.64 7.57 22.64a51.6 51.6 0 0 0 12 2.13 38.5 38.5 0 0 0 10.8-.88 70.3 70.3 0 0 1-11.68 9.11 1532 1532 0 0 1-2.65 23.07z"/><path fill="#340731" fill-rule="nonzero" d="M243.781 277.62h44.83c-.07-.44-67.39-.07-67.39-.07l-7.28 15.76c-.51 3.46-3.82 36.38-3.75 39.84l6.14 176.04 20 193.06h38.8c12.49-46.82 4.78-102.74-18.08-187.18-7.27-26.9 4.41-70.92 15.95-116.34-6.91-26.53-11.99-51.25-17.91-65.58-9.33-22.63-9.398-55.53-9.398-55.53z"/><path fill="#551151" fill-rule="nonzero" d="M383.261 702.31c-19-170.2-10.8-157.56-50.19-227.6-4.85-8.6-5.44-21.24-5-36.23 2.21-84.07 16.47-113.62-19.84-160.87h-64.45s-.07 33 9.26 55.71c5.88 14.33 13 38.87 19.92 65.48 14.11 54.24 27.37 116.71 27.37 116.71l47.73 186.8z"/><path fill="#F0DCEE" fill-rule="nonzero" d="m186.161 724.96.15.22a27.91 27.91 0 0 0 21.46 10.13h63.27l-6.71-33h-16.73l-61.44 22.64zm218.64-1.55-28-21.09h-14.26l-2.5 33h38.58a7.56 7.56 0 0 0 7.57-7.57 8 8 0 0 0-1.39-4.34"/><path fill="#791D73" fill-rule="nonzero" d="M342.041 143.31c0 .22.07.44.07.66a2.1 2.1 0 0 1-.07-.66m-.3-1.39c.08.22.08.44.15.66-.07-.18-.07-.4-.15-.62zm.44 2.86c0 .22.08.44.08.66 0-.13-.08-.4-.08-.62zm.15 1.53.07.66zm-18-24.47c.22.07.36.15.58.22a1.4 1.4 0 0 0-.58-.24zm16.38 16.17c.087.185.138.386.15.59a1.3 1.3 0 0 0-.15-.61zm.44 1.25c.08.22.08.37.15.59a1.8 1.8 0 0 1-.15-.61zm-.88-2.59c.08.14.15.36.22.51-.07-.15-.16-.37-.22-.51m2.13 11.09v.66a.93.93 0 0 0 0-.66m-18.07-26.23c-1-.3-22.57-7.5-22.57-7.5l-4.19-2.87h-41.15l-3.75 2.8-16.9 6.91s-6.76 17.27-24.18 43.87c-7.64 10-10.88 20.43-6.17 40.86 7.27 31.53 15.8 72 15.8 72l67.24.58zm17.12 19.1.15.59zm-10.51-15.65.51.37zm1.18.81c.14.15.36.22.51.37zm1 .88c.15.15.3.22.45.37-.06-.15-.24-.22-.43-.37zm-3.38-2.42c.22.07.37.22.59.29a2.3 2.3 0 0 1-.57-.29zm-1.25-.67.59.3zm-2.69-1.27.58.23a4.4 4.4 0 0 0-.58-.23m8.37 5.22.44.44zm5.59 7.94.15.44zm-12.57-12.57c.22.08.37.22.59.3a2.4 2.4 0 0 0-.59-.28zm9.63 7.57.29.44zm.81 1.1c.07.15.22.3.29.45-.07-.13-.22-.28-.29-.43zm.73 1.18c.08.07.15.22.22.29a1.1 1.1 0 0 1-.25-.27zm.81 1.47c.054.06.08.14.07.22a.28.28 0 0 0-.07-.2zm-4-5.81a2.1 2.1 0 0 1 .37.45 2.1 2.1 0 0 0-.41-.43zm.88 1c.15.15.22.3.37.44-.19-.09-.26-.24-.41-.39z"/><path fill="#340731" fill-rule="nonzero" d="M304.181 31.57a71 71 0 0 0-2.72-9.18c-.15-.3-.22-.66-.37-1-6.25-15.32-18.45-23.62-42.18-20.39-7.87 1.1-13.23 4.49-16.76 9a8.9 8.9 0 0 0-2 2.13 27.2 27.2 0 0 0-2.92 6.18c-.15.44-.3 1-.52 1.47-2.64 8.53-14.38 75.66-14.38 75.66h38c.15-1.55.66-6.84.81-8.23a51.5 51.5 0 0 1-12-2.13s-3.45-7.35-7.57-22.71a123 123 0 0 1-3.75-24.84h7.94l-.48-9 8.55 9h8.61l.4-15.82 8.49 16.18h6.17l7.2 13.23c2.31-3.46 7.28-11 11.24-9.11a6.7 6.7 0 0 1 1.47 1.1c5.08 5.59-3.45 17.86-7.05 22.42l-11.39 29.39h43.58c-.08 0-18.08-62.1-18.37-63.35"/><path fill="#E0E2E5" fill-rule="nonzero" d="M268.771 112.85c-.3-.36 2.5 1 28.36-12.34h-37.55c.66 6.39 9.19 12.34 9.19 12.34"/><path fill="#E48CDD" fill-rule="nonzero" d="M297.061 100.43c-25.87 13.31-28.59 12-28.37 12.35 0 0-8.52-6-9.18-12.35a34.1 34.1 0 0 0-8.09 13.88l4.12 14.7 13.15-16.24c4.34 6.47 9.48 17.86 9.48 17.86l25-16.39a35.5 35.5 0 0 0-6.1-13.82z"/><path fill="#C1C7CC" fill-rule="nonzero" d="M279.001 282.5c.36.95 7.05 2.05 7.49 3.08a44.5 44.5 0 0 0 3.16 6.47c2.8 4.56 28.88 5.66 28.88 5.66l-7.71-29.1-33.44 9.4c0-.07.66 1.91 1.62 4.49"/><path fill="#E0E2E5" fill-rule="nonzero" d="m393.541 196.46-34.21 17.49c3.6 4 6.91 7.64 9.7 11.1-14.92 13.67-28.95 33-45 48l-13.3-4.48 7.8 29.14s10.92-4.23 14.92-5.85l80.17-68.66c-1.25-1.76-7.57-10.17-20.14-26.78z"/><path fill="#E48CDD" fill-rule="nonzero" d="M354.521 141.64c-12.42-15.07-18.67-19.41-30.28-20.14-9.62 12.13-12.64 18.67-9.84 35.13 4.26 24.84 54.67 68.42 54.67 68.42s16.68-11.43 44.61-1.81c-40.06-58.16-59.16-81.6-59.16-81.6"/></g></svg>