<svg xmlns="http://www.w3.org/2000/svg" viewBox="0 0 600 400"><path fill="#eff1f2" d="M439.43 359.386c-5.539-38.133-30.251-67.531-60.927-72.005-34.511-51.341-100.977-118.446-192.368-46.441-58.797 46.228-122.494-26.203-184.486 118.446z"/><path fill="#c1c7cc" d="M494.819 274.386c-2.769 0-4.687 1.704-5.965 5.326-1.278 2.982-1.704 7.243-1.704 12.782s.852 10.439 2.343 13.421c1.278 2.769 3.195 4.048 5.539 4.048s4.687-1.704 5.965-5.326c1.278-2.982 1.704-7.243 1.704-12.569s-.852-10.652-2.343-13.634c-1.278-2.769-3.195-4.048-5.539-4.048m0-8.948c6.391 0 11.291 2.769 14.912 8.095 2.982 4.687 4.687 10.865 4.687 18.534s-1.704 13.847-4.9 18.96c-1.704 2.556-3.835 4.687-6.604 5.965a18.6 18.6 0 0 1-7.882 1.704c-6.391 0-11.504-2.769-14.912-8.095-2.982-4.687-4.687-11.078-4.687-18.747s.426-7.03 1.278-10.226c.852-3.195 2.13-6.178 3.622-8.521 1.704-2.556 3.835-4.687 6.604-5.965a18.6 18.6 0 0 1 7.882-1.704m24.073 43.672c4.261-2.556 7.243-4.687 8.947-5.965s3.835-2.769 5.965-4.687c6.391-5.752 9.586-11.504 9.586-17.043 0-3.203-.639-4.261-1.917-5.539-1.065-1.065-2.556-1.704-4.474-1.704s-3.622.639-4.687 1.917c-1.278 1.278-2.13 3.195-2.982 5.965l-10.226-2.343c1.491-5.113 3.835-8.947 7.03-11.291 2.982-2.13 6.604-2.982 11.291-2.982s10.439 1.704 13.421 4.9c2.769 2.769 4.048 6.604 4.048 11.291s-2.982 12.782-8.947 18.534c-2.556 2.343-6.604 5.326-12.356 8.947h21.942v8.947h-36.642zm41.327-30.25q4.473-13.42 19.173-13.421c8.095 0 10.652 1.917 13.421 4.474 2.769 2.556 4.261 5.965 4.261 10.013s-2.769 8.734-8.308 10.865c6.391 2.13 9.586 6.178 9.586 12.356s-1.917 9.16-5.965 11.93c-3.409 2.556-7.882 3.622-13.634 3.622s-11.504-1.704-15.338-4.9c-2.556-2.343-4.474-5.539-5.326-9.586l10.013-2.556c.852 2.982 2.13 5.113 4.048 6.391 1.491 1.065 3.622 1.704 6.178 1.704s4.9-.639 6.391-2.13q1.917-1.917 1.917-5.113c0-3.196-.852-4.048-2.556-5.326-1.491-1.065-3.408-1.491-5.965-1.491h-4.687v-8.095h4.474c2.556 0 4.474-.639 5.965-1.917 1.278-1.065 1.704-2.769 1.704-4.687s-.639-3.835-2.13-5.113c-1.278-1.065-2.769-1.491-4.687-1.491s-4.048.639-5.539 1.704-2.769 2.982-3.835 5.539l-9.16-2.556v-.213Z"/><path fill="#791d73" d="M159.079 212.181c4.474 23.434 25.138 41.115 49.85 41.115s50.702-22.794 50.702-50.702-22.794-50.702-50.702-50.702h-2.13c-4.474-23.434-25.138-41.115-49.85-41.115s-50.702 22.794-50.702 50.702 22.794 50.702 50.702 50.702z"/><path fill="#c1c7cc" d="M189.331 158.069c8.095-2.769 16.617-2.343 24.073-2.769.639 6.178 1.703 14.06 2.342 20.451-9.16-5.752-18.746-9.373-26.415-17.469z"/><path fill="#e0e2e5" d="M245.357 86.491c0 4.474-1.917 23.86-4.048 35.15-.639 3.195-1.278 6.391-2.13 9.586-5.326 19.386-9.586 28.759-9.586 28.759s-6.604 2.343-15.125 2.769c-4.474.213-9.586 0-14.486-1.278a79 79 0 0 0 15.551 12.569c1.704 14.699 3.409 28.546 3.409 28.546h-54.536l9.16-50.915 2.982-16.19c-3.622-4.687-12.143-15.551-12.143-23.434V86.702l80.952-.213Z"/><path fill="#791d73" d="M155.67 90.964c6.178-27.694 24.925-42.82 61.353-37.92 14.912 2.13 23.221 12.569 27.055 22.581q.142.994 0 0c10.652 7.243 20.451 23.86 2.769 41.541l-5.539 4.474c2.13-11.291 2.556-21.09 2.769-25.564l-1.704-2.769c-3.622 9.799-15.977 19.386-28.546 22.155-15.338 3.409-19.386 2.556-27.268 3.835h-.426c-3.835-6.817-12.356-19.812-18.534-12.995-1.491 1.704-2.13 3.622-1.917 5.965 0 7.882 7.456 18.534 11.078 23.008l-3.153 16.194c-23.221-36.216-19.002-55.392-17.937-60.505"/><path fill="#e8b6e3" d="M123.502 71.579c0-2.343.426-4.048 1.278-5.539s2.343-2.982 4.687-4.474c1.704-1.278 2.982-2.343 3.622-3.409s1.065-2.13 1.065-3.622-.639-3.409-1.917-4.474c-1.065-.852-2.556-1.491-4.474-1.491-4.261 0-7.03 2.343-7.882 7.03l-5.752-1.065c.426-1.917.852-3.409 1.491-4.687s1.491-2.343 2.769-3.409c2.556-2.13 5.752-3.195 9.799-3.195s7.456 1.065 9.799 3.409q3.195 2.876 3.195 7.669c0 4.793-.426 4.261-1.491 5.752q-1.597 2.236-5.752 5.113c-1.704 1.065-2.769 2.13-3.195 2.982s-.852 2.13-.852 4.048v2.13h-6.391v-2.769Z"/><circle cx="126.891" cy="83.29" r="4.714" fill="#e8b6e3"/><path fill="#e472db" d="M268.165 217.407c-5.835-13.176-16.631-12.976-25.366-12.55l-20.238-8.308-4.687-12.782h-51.98l-5.326 12.782s-14.273 4.687-22.581 7.456c-1.704-.639-3.409-1.065-5.113-1.491-15.338-2.556-29.825 7.669-32.381 23.008L77.977 359.386l225.729.006s-29.675-128.736-35.542-141.985Z"/><path fill="#d0d4d8" d="m189.756 359.387 27.055-23.86 45.589-33.446-.852-22.794-47.932 11.93-28.12 32.381s-24.286 17.256-48.571 35.789z"/><path fill="#b12ea9" d="m203.73 346.717 114.44-103.404 18.566 20.548-114.44 103.404z"/><path fill="#9e2896" d="m214.343 358.25 114.44-103.405 7.998 8.852L222.34 367.1z"/><path fill="#e552da" fill-rule="evenodd" d="M174.204 391.767c9.16 10.226 24.925 11.078 35.15 1.704l99.06-89.474-33.446-37.068-99.06 89.474c-10.226 9.16-11.078 24.925-1.704 35.15z"/><path fill="#eff1f2" fill-rule="evenodd" d="m249.618 257.557 23.647 38.772c-7.03 6.178-21.303 11.291-32.381 6.604l-27.268-11.93z"/><path fill="#c535bc" d="M174.204 391.767c9.16 10.226 24.925 11.078 35.15 1.704l99.06-89.474-7.03-7.882-106.516 96.078c-6.178 5.539-15.338 5.113-20.877-1.065"/><circle cx="433.89" cy="157.218" r="157.218" fill="#c535bc" transform="rotate(-45 433.89 157.218)"/><circle cx="433.89" cy="157.218" r="132.509" fill="#fff"/><path fill="#e8b6e3" d="M386.172 165.953c4.048-4.687 10.439-7.03 18.321-7.03s16.83 3.195 22.155 9.373c4.687 5.326 6.817 12.356 6.817 20.877s-3.409 18.96-10.439 24.712c-6.178 5.113-14.06 7.669-23.86 7.669-15.89 0-29.859-7.56-34.937-22.794l18.747-5.113c2.343 8.095 7.456 12.143 15.125 12.143 9.666 0 14.912-6.764 14.912-16.19 0-8.657-5.429-15.977-14.486-15.977-5.965 0-10.439 2.556-13.208 7.882h-17.043l5.752-53.897h53.897v15.977h-39.198l-2.556 22.368Zm84.92-24.073c-4.9 0-8.229 3.409-10.572 9.586-2.13 5.539-3.195 13.208-3.195 22.794s1.491 18.534 4.261 24.073c2.343 4.9 5.752 7.243 9.799 7.243s8.308-3.195 10.865-9.373q3.195-8.308 3.195-22.368c0-14.06-1.278-18.96-4.048-24.712-2.343-4.9-5.752-7.243-9.799-7.243h-.505Zm.293-15.764c11.504 0 20.238 4.9 26.629 14.699 5.539 8.521 8.308 19.599 8.308 33.02s-2.982 24.925-8.734 34.085c-5.638 8.86-15.584 13.847-25.99 13.847q-17.256 0-26.842-14.699c-5.539-8.521-8.308-19.812-8.308-33.659 0-11.453 2.416-23.726 8.734-33.446 5.638-8.86 15.584-13.847 25.99-13.847zm74.134 79.674c-4.048 0-7.456-2.343-9.8-7.243-2.769-5.539-4.261-13.634-4.261-24.073s1.065-17.256 3.195-22.794c2.343-6.391 5.965-9.373 10.865-9.373s7.243 2.343 9.799 7.243c.639 1.278 1.278 2.769 1.704 4.261 0-8.095-1.065-17.043-2.769-26.416-2.769-.639-5.752-1.065-8.734-1.065q-7.67 0-14.06 3.195c-4.9 2.343-8.947 5.965-11.93 10.652-2.769 4.261-4.9 9.16-6.391 15.125s-2.343 11.93-2.343 18.321c0 13.847 2.769 25.138 8.308 33.659 5.113 8.095 12.356 12.782 21.09 14.273 2.556-3.835 5.326-9.16 8.095-15.764-.852.213-1.917 0-2.769 0Zm-115.462 52.192c2.343-6.391 5.965-9.373 10.865-9.373s7.243 2.343 9.799 7.243c2.769 5.539 4.048 13.634 4.048 24.499 6.817-1.278 13.634-2.982 20.664-5.539-.639-11.078-3.408-20.238-8.095-27.481-6.391-9.799-15.125-14.699-26.629-14.699-17.068 0-28.404 13.064-32.381 28.972-1.491 5.965-2.343 13.208-2.343 19.599 5.752.852 12.995 1.491 20.877 1.491 0-8.274.187-16.891 3.195-24.712m87.13-9.16s8.095-8.308 11.93-12.995c-4.261-2.13-8.947-3.195-14.273-3.195s-9.799 1.065-14.06 3.195c-4.9 2.343-8.947 5.965-11.93 10.652-2.769 4.261-4.9 9.16-6.391 15.125q-1.598 5.433-1.917 11.504c7.669-3.195 15.551-7.243 23.008-12.569.437-6.047 7.139-12.422 13.634-11.717Z"/><path fill="#eff1f2" d="M433.89 24.709c-73.183 0-132.509 59.326-132.509 132.509 0 .358.011.714.013 1.071L484.29 34.641c-15.538-6.396-32.555-9.932-50.401-9.932Z"/><path fill="#ebcae8" d="M433.917 24.259q-1.802.001-3.594.05c67.799 1.84 122.195 57.375 122.195 125.618 0 69.404-56.263 125.668-125.668 125.668-68.243 0-123.605-54.397-125.445-122.195q-.049 1.791-.05 3.594c0 73.307 59.254 132.734 132.56 132.734s132.734-59.427 132.734-132.734S507.224 24.259 433.917 24.259"/><path fill="#c1c7cc" d="M324.818 359.386c10.013-13.208 17.043-22.794 17.043-22.794l36.002-26.629-48.784-2.13-10.652 21.303-39.411 30.251z"/><path fill="#e0e2e5" fill-rule="evenodd" d="M365.933 277.794c-8.308 0-20.664 5.752-25.777 13.634-5.326 8.095-11.291 16.19-11.291 16.19l48.784 2.13z"/></svg>