<svg xmlns="http://www.w3.org/2000/svg" viewBox="0 0 699.3 806.7"><switch><g><path fill="#2e3033" fill-rule="evenodd" d="m96.5 806.6 13.4-260.9H227l13.4 260.9h16.9l-22.1-427h-16.9l7.7 149H110.9l7.7-149h-16.9l-22.1 427z" clip-rule="evenodd"/><path fill="#007bc0" d="m147 747.7.1.3c2.7 10.5 9.9 19.2 19.7 23.8l74.6 34.9 10.2-42.4-19.6-9.2z"/><path fill="#e0e2e5" fill-rule="evenodd" d="M671.6 485.8H557.1l-114.8-.4c0 16 12.9 28.9 28.9 28.9h-.2 5.3l-16.1 290.9h18.3l16.1-290.9h69.5v.7l55.4-.2 16.1 291.1h18.5l-16.2-291.6h5.3c15.6 0 28.4-12.7 28.4-28.5" clip-rule="evenodd"/><path fill="#007bc0" d="m411.8 736.4-21.9 6.8-55.8 59.4.3.1c9.9 4.4 21.2 4.1 30.8-.8l66.6-34.7z"/><path fill="#00629a" d="M554.1 111.3c-4.8 1.2-9.7 1.6-14.6 1.2-.4 3.6-.9 7.6-1.3 11.4 5.8-3.4 11.2-7.8 15.9-12.6"/><path fill="#d1e4ff" d="M622 104.8c0-.6.1-1.3.1-1.9 0-16.8-12.5-31-29.2-33.1 2.2-8.1 2.9-18.4-.4-30.7-9.1-34.8-39.7-41.2-58.8-34.8-9.6 3.2-29 13.5-26.8 33.5-9.7 13.6-7.7 32.4 4.7 43.6 1 .9 2.2 1.8 3.4 2.5-.3-1.2-.7-2.4-1-3.7-3-11.5-4.6-23.2-5-35 4.1 7.7 17.3 18 62.3 18 .2 0 .4 0 .5.1 3.2-5.7 9.9-15.2 15.9-8.6 6.5 7.1-3.8 22.5-8.8 29.1-.2.2-.4.5-.5.7l5.8 32.1 6.7 37h-17.3c4.7 22.2 26.5 36.4 48.7 31.7s36.4-26.5 31.7-48.7c-3.5-16-16-28.5-32-31.8"/><path fill="#56b0ff" d="m584.2 116.6-5.8-32.1c.2-.2.3-.4.5-.7 5-6.6 15.3-22 8.8-29.1-6-6.5-12.7 2.9-15.9 8.6-.2 0-.3-.1-.5-.1-45 0-58.2-10.3-62.3-18 .4 11.8 2.1 23.6 5 35 .3 1.3.7 2.5 1 3.7 4.9 17.5 8.8 25.9 8.8 25.9 5.1 1.6 10.3 2.5 15.6 2.8 4.9.3 9.8-.1 14.6-1.2-4.7 4.8-10 9-15.8 12.5-1.8 15.2-3.5 29.6-3.5 29.6h56.1z"/><path fill="#001d33" d="m597.3 376-82.5-10.7s-1.6-4.7-4.4-12.6c-51.8 33.5-131.1 39.2-185.9 76l2.9 13.8c29-10.2 90.7-30.4 142.8-39 56-9.1 104.9-21.5 127.1-27.5M352.1 492.3c4 21.9 3.4 43.9-.6 65.9l38.4 185 22.1-6.4c2.4-78.6 17.9-183-6-250.4-25-.6-43.2.7-53.9 5.9"/><path fill="#003253" d="M597.6 375.8c-22.2 6-71 18.4-127 27.5-52.2 8.6-113.8 28.8-142.8 39-10.5 3.7-16.7 6-16.7 6l-79 307 19.6 9.2c40.4-66 87.5-136 100.2-206.5 3.9-22 4.6-44 .6-65.9 10.7-5.2 28.9-6.2 53.9-5.6 32.6.7 76.8 4 131.5 4 88.3 0 108.7-47.6 90.9-113l-1.3-.2zM479.2 263.1 452.6 351l50.9-.3s1-2.4 3.7-8.5c-6.4-18.3-15.8-45-25-69.8-1.1-3.3-2.2-6.3-3-9.3m35.4-105.5c-14.5 3.3-25.6 15.2-27.8 29.9l-2.8 29.7c4.1-6.3 9.5-12.6 15.8-20.1l1.5-1.8c4.4-5.3 8.2-10.2 11.6-14.6 8.8-11.8 14.3-20.8 17.8-27.6z"/><path fill="#003253" d="M621.7 153.7c-6.4-1.2-21.6-7.7-26.1-12.3-5.8-6.1-5.9-7.9-5.9-7.9l-53.8 2.8s.2 4.9-5.7 16.7c-3.4 6.8-8.9 15.9-17.8 27.6-3.4 4.5-7.2 9.4-11.6 14.6l-1.5 1.8c-6.3 7.5-11.7 13.9-15.8 20.1-8.2 12.6-11 24.9-4.8 46 .8 2.9 1.9 6 3.1 9.3 9.1 24.8 18.5 51.5 25 69.8q1.95 5.7 3.6 10.2c2.7 7.8 4.4 12.6 4.4 12.6l82.5 10.7 31 4 .2-2.4 13.7-175.9c1.6-24.1 3.2-43.1-20.5-47.7"/><path fill="#001d33" fill-rule="evenodd" d="m590.1 373.3 36.9 6.2.8-.6.4-.4 13.8-177c1.9-24.1 3.5-43-20.2-47.7z" clip-rule="evenodd"/><path fill="#8a9097" d="M357.4 248.7 407 351.3h8.4l-49.6-102.6c-2.1-4.4-6.6-7.2-11.4-7.1H346c4.8 0 9.3 2.7 11.4 7.1"/><path fill="#43464a" d="M415.3 351.1H407l-49.6-102.6c-2.1-4.4-6.6-7.2-11.4-7.1H198.2c-7 0-12.6 5.6-12.6 12.6 0 1.9.4 3.8 1.3 5.5L237 363.3h293.4c5.2 0 9.4-4.2 9.4-9.4v-3.4z"/><path fill="#a4abb3" d="M0 362.5h372.2v17.1H0z"/><path fill="#43464a" d="M62.7 304h39.9v59.2H62.7z"/><path fill="#c1c7cc" d="M372.1 362.5v17.1H447l-22.1 427H442l13.5-260.9h119.3l13.5 260.9h16.9l-22.1-427H653v-17.1zm84.4 166.1 7.7-149h102l7.7 149z"/><path fill="#004975" d="m699.3 315.2-46.1-131.1c-6.1-20.9-16.8-29.4-33.9-30.9-13.9 14.5-16.9 46.9-15.5 62 3.5 39.2 27.4 81.2 38.9 99.3 28.6.1 52.1.4 56.6.7"/><path fill="#56b0ff" d="M698.5 315c-4.4-.4-28-.6-56.5-.8-51.1-.3-117.8-.4-117.8-.4l-43.2-7.1 1.3 43.4 11.5-.1s27.2-11.8 29.6-11.3c62.5 14.9 172.9 49.9 175.9-23.7 0 .1-.3.1-.8 0"/><path fill="#00629a" d="M445.7 324.5s-1.7 6.9 7.3 18 29.3 7.6 29.3 7.6l-1.3-43.4z"/><ellipse cx="585.2" cy="66" fill="#4e5256" rx="10.5" ry="18"/><path fill="#4e5256" d="M591.7 50c.9-29.2-21.5-49.5-44-50-16-.3-33 10-39 25 5-12 22-23.3 38-23 22.5.5 41.9 18.8 41 48zM579 72.4 555.7 92l-13 5v3h1l11-4 24.9-21.6z"/><ellipse cx="588.2" cy="66" fill="#595e62" rx="9.9" ry="17"/></g></switch></svg>