<svg xmlns="http://www.w3.org/2000/svg" viewBox="0 0 600 400"><ellipse cx="276.32" cy="348.64" fill="#eff1f2" rx="169.12" ry="5.92"/><path fill="#383b3e" d="M267.52 301.44h23.04L280 294.08h-10.08c-1.28 4.48-2.4 7.36-2.4 7.36"/><path fill="#d0d4d8" d="m291.84 249.441-15.52-4.8-4.64 11.68 10.24 3.36c-1.92 4.64-4.48 11.84-6.88 19.04h11.2l8.96-21.92c1.28-3.04-.32-6.4-3.36-7.36"/><path fill="#8a9097" d="M269.92 294.081H280l6.239-15.36h-11.2c-1.92 5.76-3.679 11.36-5.119 15.36"/><path fill="#7d8389" d="M267.2 301.441h11.84v5.44H267.2z"/><path fill="#43464a" d="M274.401 302.719c.96.48 1.12 1.6.64 2.24l-7.36 12.48c-.48.8-1.44 1.12-2.24.64h-.16c-.8-.48-1.12-1.44-.64-2.24l7.36-12.48c.48-.8 1.6-1.12 2.4-.64"/><g fill-rule="evenodd"><path fill="#2e3033" d="M330.061 341.686c-16.764 0-30.363-13.591-30.363-30.363s13.591-30.363 30.363-30.363 30.363 13.591 30.363 30.363-13.591 30.363-30.363 30.363m0-67.2c-20.345 0-36.837 16.491-36.837 36.837s16.491 36.837 36.837 36.837 36.837-16.491 36.837-36.837-16.491-36.837-36.837-36.837m-114.024 67.2c-16.764 0-30.363-13.591-30.363-30.363s13.591-30.363 30.363-30.363 30.363 13.591 30.363 30.363-13.591 30.363-30.363 30.363m0-67.2c-20.345 0-36.837 16.499-36.837 36.837s16.491 36.837 36.837 36.837 36.837-16.491 36.837-36.837-16.491-36.837-36.837-36.837m41.142 11.583-9.934-28.25c.81-.189 1.499-.454 2.249-.742.697-.273 1.446-.56 2.393-.825a24.7 24.7 0 0 1 4.854-.765c3.21-.212 3.324-3.862-.818-4.286l-8.844-1.098c-6.686-.916-10.502-1.431-12.577.363-1.015.878-.962 2.688-.545 3.725.432 1.09 2.726 3.218 9.73 3.831l10.532 29.916 2.961-1.87Z"/><path fill="#00a4fd" d="m291.771 271.2-14.031 25.956-4.369 8.079a2.35 2.35 0 0 1-2.044 1.257l-4.074.091a2.41 2.41 0 0 1-2.332-1.62l-6.02-17.604a2.386 2.386 0 0 1 1.052-2.839l28.235-16.749c2.249-1.333 4.823 1.136 3.581 3.43Zm-31.582 36.08-5.262 7.11a1.75 1.75 0 0 1-1.514.697l-31.938-2.574a5.6 5.6 0 0 0-1.416-5.088l31.272-18.513c1.318-.704 2.885-.235 3.415 1.355 1.408 4.21 3.862 11.729 4.975 15.136.25.765.432 1.325.522 1.59a.35.35 0 0 1-.053.288Zm70.243-1.568-23.897-50.451 11.706-5.596a3.46 3.46 0 0 0 1.635-4.619 3.48 3.48 0 0 0-4.475-1.704l-7.049 3.271a3.184 3.184 0 0 0-1.62-4.187 3.16 3.16 0 0 0-2.476-.03l-7.542 3.097a3.184 3.184 0 0 0-1.726 4.149 3.17 3.17 0 0 0 3.097 1.961l1.938 3.998-81.881 50.489a5.6 5.6 0 0 0-2.173-.432 5.64 5.64 0 1 0 0 11.282 5.6 5.6 0 0 0 3.869-1.545l36.753 3.665a2.44 2.44 0 0 1 1.825 1.211l2.128 3.316c.606.954 1.704 1.317 2.733 1.386.856.053 1.742.061 3.453-.999l6.33-3.468c.424-.212.772-.545.999-.962l27.554-49.792a2.4 2.4 0 0 1 1.128-1.03l3.014-1.333 19.709 40.683a5.64 5.64 0 0 0-1.045 3.263 5.64 5.64 0 1 0 11.282 0c0-3.112-2.325-5.429-5.27-5.626Z"/></g><path fill="#003253" d="m241.44 231.68 41.92 13.92-5.28 15.04-42.4-12.16z"/><path fill="#004975" d="M274.72 188.64c-.48 2.24-2.24 3.2-5.44 4-3.52.96-4.96-.48-7.2-2.4-1.44-1.28-3.04-2.72-5.6-3.68-5.12-1.76-10.4.8-10.56.96l.8 1.44s4.8-2.4 9.28-.8c2.24.8 3.68 2.08 5.12 3.36 1.28 1.12 2.56 2.4 4.32 2.88-1.6 0-3.04-.48-4.48-1.44-6.72-4.8-16.16-4-18.56 3.36-2.72 8.48 6.56 15.68 13.44 15.68 11.68 0 18.88-6.56 18.88-6.56l4.8-10.08v-.16c2.08.16 4-.96 4.8-2.72 3.36-.32 9.12-1.44 10.4-5.28l.32.48c0 .96-.16 2.88-.48 5.12 0 0 4.64-1.92 2.88-6.08-.64-1.76-2.4-3.52-2.4-3.52-.8-2.08-3.2-4-5.6-4.64-2.24-.48-12.48-.96-14.72 10.08"/><path fill="#eff1f2" d="M291.2 201.28s1.76-2.56 2.88-6.56l.48-1.92c.32-2.24.48-4.16.48-5.12l-.32-.48c-1.44 4.16-8.16 5.12-11.36 5.28-.8-1.28-2.4-3.84-3.68-2.56-.32.32-.48.64-.48 1.12 0 1.12.64 2.24 1.28 3.36l-10.4 8.96 5.92 6.88 9.92-8.64s2.24.32 5.28-.32"/><path fill="#b8d6ff" d="M195.359 245.441h31.2v1.6h-31.2zM191.2 253.441h31.2v1.6h-31.2zM186.88 261.441h31.2v1.6h-31.2z"/><path fill="#d0d4d8" d="M282.08 196.066c0 2.08.32 5.12.64 8.32l2.679-2.332-1.399-3.108z"/><path fill="#9dc9ff" d="m318.895 238.189.806.994a.676.676 0 0 1-.098.945l-8.884 7.208-1.653-2.038 8.884-7.208a.676.676 0 0 1 .945.098Z"/><path fill="#d1e4ff" d="m316.175 226.562-1.071.276 1.909 7.436 1.115-.264zM310.518 232.017l.763-.848 4.507 4.051-.763.849zM319.918 234.19l2.792-6.317 1.044.461-2.793 6.316z"/><path fill="#383b3e" d="M267.68 314.08c.96.64.96 1.92.48 2.72l-8.96 13.76c-.48.96-1.76 1.12-2.56.64-.96-.64-1.28-1.76-.64-2.72l8.8-13.6c.8-1.28 2.24-1.44 2.88-.8"/><path fill="#7d8389" d="m248.458 331.208-.617 4.473 12.8 1.6.626-4.539z"/><path fill="#8a9097" d="m257.6 321.601 8.006-15.525-12.006-3.515c-1.92 5.12-4.16 10.88-6.72 17.6z"/><path fill="#e0e2e5" d="m280.8 272.321-23.04-26.08-11.84 10.88 19.84 19.52s-2.88 3.2-12.16 25.92l12 3.52 15.68-28.8c.96-1.44.8-3.52-.48-4.96"/><path fill="#004975" d="m240.16 227.68-5.28 7.2c-3.68 4.96-3.04 12 1.44 16.32l24.32 22.72 12.64-11.68-18.88-23.68z"/><path fill="#4e5256" d="m243.041 330.559 26.72 3.2-12.16-12.16-10.72-1.44c-1.12 3.2-2.56 6.56-3.84 10.4"/><path fill="#e0e2e5" d="m310.881 247.68 1.825-2.555a1.6 1.6 0 0 0 .112-1.679l-.977-1.846c-.32-.64-.96-1.12-1.6-1.12l-6.4-.16-18.56-10.4-4.081-12.64-8.559 4 5.76 12.48c.64 1.28 1.6 2.24 2.88 2.72l21.039 8.723 6.427.289-1.066 2.349z"/><path fill="#007bc0" d="M277.44 202.56c-.64-1.76-2.56-2.72-4.32-2.08q-1.92.72-4.32 1.44s-9.12 3.04-20.64 12.64c-8.96 7.52-18.24 7.84-18.24 7.84s6.56 5.92 13.76 12.8 14.08 5.6 14.08 5.6 2.88-7.04 8.32-12.48c2.4-2.56 4.8-3.68 6.88-4.8l3.2 7.52 9.44-3.84z"/><path fill="#004975" d="M276.96 191.359c2.88.96 5.44 4.96 5.76 7.68.32 3.36-2.08 6.4-5.44 5.6-1.44-.32-3.68-1.6-5.44-1.92-2.24-.48-5.78.356-8.18 1.476z"/><path fill="#7d8389" d="m284.96 198.079 2.24-10.24-2.24-.48-1.76 8.16-4.8-7.04-1.92 1.28 10.56 15.2 1.92-1.28z"/><path fill="#0096e8" d="M301.919 188c.48 0 .64-.48.32-.8-2.24-2.56-9.6-10.4-16.16-10.4-4.8 0-8.8 1.12-11.04 2.08-1.28.48-2.08 1.76-2.08 3.04v4.32c0 3.04 2.08 4.8 4.96 4.8 3.04 0 6.08-2.08 6.08-2.08s4-.48 17.92-.96"/><path fill="#c1c7cc" d="M256.8 102.72H252v-1.6h4.8zm9.6 0h-4.8v-1.6h4.8zm9.6 0h-4.8v-1.6h4.8zm9.6 0h-4.8v-1.6h4.8zm9.6 0h-4.8v-1.6h4.8zm9.6 0H300v-1.6h4.8zm9.6 0h-4.8v-1.6h4.8zm9.6 0h-4.8v-1.6h4.8zm9.6 0h-4.8v-1.6h4.8zm9.6 0h-4.8v-1.6h4.8zm9.28.8c-1.44-.48-2.88-.8-4.48-.8v-1.6c1.76 0 3.36.32 4.96.8zm7.36 5.12c-.96-1.28-2.08-2.24-3.2-3.2l.96-1.28c1.44.96 2.56 2.08 3.68 3.52zm3.04 8.48c-.16-1.6-.32-3.04-.96-4.48l1.44-.48c.64 1.6.96 3.2.96 4.96zm1.6 9.6h-1.6v-4.8h1.6zm127.36 8.32h-1.6v-4.8h1.6zm-127.36 1.28h-1.6v-4.8h1.6zm127.36 8.32h-1.6v-4.8h1.6zm-127.36 1.28h-1.6v-4.8h1.6zm127.36 8.32h-1.6v-4.8h1.6zm-127.36 1.28h-1.6v-4.8h1.6zm127.36 8.32h-1.6v-4.8h1.6zm-127.36 1.28h-1.6v-4.8h1.6zm127.36 8.32h-1.6v-4.8h1.6zm-127.36 1.28h-1.6v-4.8h1.6zm0 9.6h-1.6v-4.8h1.6zm0 9.6h-1.6v-4.8h1.6zm0 9.6h-1.6v-4.8h1.6zm0 9.6h-1.6v-4.8h1.6zm0 9.6h-1.6v-4.8h1.6zm0 9.6h-1.6v-4.8h1.6zm-1.44 9.76c-.16-.8-.16-1.76-.16-2.56v-2.4h1.6v2.4c0 .8 0 1.6.16 2.24zm4.48 8.8c-1.12-1.28-2.08-2.56-2.88-4.16l1.44-.64c.64 1.44 1.6 2.56 2.56 3.68zm8.64 4.96c-1.6-.32-3.2-.96-4.64-1.76l.8-1.44c1.28.8 2.72 1.28 4.16 1.6zm9.6.48h-4.8v-1.6h4.8zm9.6 0h-4.8v-1.6h4.8zm9.6 0h-4.8v-1.6h4.8z"/><path fill="#7ebdff" d="M88.639 250.56h-27.68v-4.8h27.52c7.52 0 13.6-6.08 13.6-13.6V99.52h145.6v4.8h-140.8v127.84c0 10.24-8.32 18.4-18.24 18.4"/><path fill="#eff1f2" d="M403.678 175.52h112.8V276h-112.8z"/><path fill="#e0e2e5" d="m403.678 243.744 112.8-.32V210.72l-13.098-8.52-18.416 8.057-26.165-14.059-28.4 13.277-26.721-17.955z"/><path fill="#d0d4d8" d="m516.478 250.24-30.553-12.96c-14.038-6.88-29.893-10.56-46.078-10.56h-36.169v38.72h112.635z"/><path fill="#7d8389" d="M410.878 171.52c0 8.64 13.28 27.68 13.28 27.68s13.28-19.04 13.28-27.68-5.92-13.92-13.28-13.92-13.28 5.28-13.28 13.92"/><circle cx="424.159" cy="169.599" r="6.24" fill="#fff"/><path fill="#e0e2e5" d="M403.678 243.68h112.8V276h-112.8z"/><path fill="#c1c7cc" d="M516.477 207.047c-11.2 4-14.56 17.6-14.56 17.6-13.12 0-20.8 15.354-22.56 19.034h-11.52l31.84 32.32h16.8z"/><path fill="#fff" d="M507.481 182.07c-6.478 0-11.696 1.611-12.595 3.424h-2.159c-5.758 0-10.436 1.813-10.616 4.23 0 2.417 4.858 4.431 10.796 4.431 1.439 0 2.699-.201 3.959-.201 1.979 1.209 6.478 2.216 11.696 2.216 3.059 0 5.758-.201 7.917-.806v-12.086c-2.519-.806-5.578-1.209-8.997-1.209Zm-63.962 30.331c0-1.92-4.48-3.68-10.4-4v-.48c0-2.24-4.96-4.16-11.2-4.16s-11.2 1.76-11.2 4.16q0 1.2 1.44 1.92c-2.173.604-3.705 1.572-4.328 2.698-1.58.262-2.995.594-4.152.982v7.36c3.055.96 7.448 1.6 12.031 1.6 9.357 0 16.996-2.4 16.996-5.28 0-.238-.063-.47-.154-.698 6.188-.312 10.968-1.946 10.968-4.102Z"/><path fill="#c1c7cc" d="M412.158 243.68v-5.44c2.08-.32 4-1.12 5.6-2.56.16.64.32 1.28.64 1.92 1.12 2.24 3.2 3.68 5.44 4v2.08zm13.92-2.24c2.4-.32 4.48-1.76 5.44-4 1.28-2.4 1.12-5.12-.32-7.36.16-.64.32-1.6.32-1.92 0-3.68-6.56-14.72-6.56-14.72s-2.4 4-4.32 8c-.32-1.76-.96-2.88-1.6-4.32-.96-2.4-8.48-17.44-8.48-17.44s-4.16 7.2-6.88 13.28v22.4c1.6 1.44 3.52 2.4 5.76 2.56v5.76h-5.76v32.16h18.4l34.4-32.32h-30.56v-2.08z"/><path fill="#eff1f2" d="M428.8 54.08h110.24v78.4H428.8z"/><path fill="#e0e2e5" d="M527.199 89.6c0-3.52-1.76-6.56-4.32-8.64 1.12-1.44 1.92-3.2 1.92-5.12 0-4.64-3.68-8.32-8.32-8.32s-8.32 3.68-8.32 8.32c0 1.92.64 3.84 1.92 5.12-2.56 1.92-4.32 5.12-4.32 8.64 0 5.44 4 9.76 9.12 10.56v10.88h3.04v-10.88c5.28-.8 9.28-5.12 9.28-10.56m-62.079-.001c1.12-1.44 1.92-3.2 1.92-5.28 0-4.64-3.84-8.48-8.48-8.48s-8.48 3.84-8.48 8.48c0 1.92.64 3.84 1.92 5.28-1.28.96-2.56 2.4-3.2 3.84-1.12-7.36-11.36-24.48-11.36-24.48s-5.28 8.8-8.64 16.48v29.28c1.92 1.76 4.32 2.88 7.04 3.2v11.36h3.2v-11.36c4.32-.48 8-3.2 9.92-7.04.8-1.6 1.28-3.36 1.44-5.12 2.08 2.24 4.96 3.68 8.32 3.68 6.08 0 11.04-4.96 11.04-11.04-.32-3.52-1.92-6.88-4.64-8.8"/><path fill="#d0d4d8" d="M428.8 132.48h110.24v-20c-3.52-4-6.4-3.84-9.44-3.68v-3.52c2.24-.16 4.32-1.6 5.44-3.52 1.12-2.08.96-4.48-.32-6.4.16-.64.32-1.44.32-1.76 0-3.2-5.92-13.12-5.92-13.12s-5.92 9.92-5.92 13.12c0 .32.16 1.12.32 1.6-1.28 1.92-1.44 4.48-.32 6.56.96 2.08 3.04 3.52 5.44 3.68v3.36c-1.6 0-3.2 0-4.96-.96-5.12-2.56-9.6-2.24-13.44-.64v-9.28l2.24-3.68-19.68-12-19.84 12.16 2.24 3.68v9.12c-2.56-4.32-7.52-7.36-13.28-7.36-7.52 0-13.76 4.96-14.72 11.68-2.24-1.6-5.44-2.72-8.96-2.72-3.68 0-7.04 1.12-9.44 2.88z"/><path fill="#e0e2e5" d="M496.641 113.279h-7.2v-14.56c0-1.92 1.6-3.68 3.68-3.68 1.92 0 3.68 1.6 3.68 3.68z"/><path fill="#a4abb3" d="M510.72 52.48c0 6.72 10.4 21.6 10.4 21.6s10.4-14.88 10.4-21.6-4.8-10.88-10.56-10.88-10.24 4.16-10.24 10.88"/><circle cx="520.96" cy="50.88" r="4.96" fill="#fff"/><path fill="#0096e8" d="M60.959 75.841h122.88v116.48H60.959z"/><path fill="#7ebdff" d="M175.999 86.561c-7.04 0-12.96 1.76-14.56 4h-.96c-8 0-14.56 1.92-14.56 4.48 0 2.24 5.12 4 11.84 4.48-.16.32-.32.8-.32 1.12 0 3.36 7.36 6.08 16.48 6.08 3.68 0 7.2-.48 9.92-1.28v-18.08c-2.24-.64-4.96-.8-7.84-.8"/><path fill="#9dc9ff" d="M60.959 108.481h32v59.04h-32z"/><path fill="#d1e4ff" d="M82.88 155.681h7.36v8.32h-7.36zM71.839 155.681h7.36v8.32h-7.36zM60.959 155.681h7.36v8.32h-7.36zM82.88 144.641h7.36v8.32h-7.36zM71.839 144.641h7.36v8.32h-7.36zM60.959 144.641h7.36v8.32h-7.36zM82.88 133.6h7.36v8.32h-7.36zM71.839 133.6h7.36v8.32h-7.36zM60.959 133.6h7.36v8.32h-7.36zM82.88 122.72h7.36v8.32h-7.36zM71.839 122.72h7.36v8.32h-7.36zM60.959 122.72h7.36v8.32h-7.36zM82.88 111.681h7.36v8.32h-7.36zM71.839 111.681h7.36v8.32h-7.36zM60.959 111.681h7.36v8.32h-7.36z"/><path fill="#b8d6ff" d="M120.959 96.961h41.28v70.4h-41.28z"/><path fill="#e8f1ff" d="M153.119 153.761h6.56v10.24h-6.56zM143.359 153.761h6.56v10.24h-6.56zM153.119 140.161h6.56v10.24h-6.56zM143.359 140.161h6.56v10.24h-6.56zM153.119 126.561h6.56v10.24h-6.56zM143.359 126.561h6.56v10.24h-6.56zM133.439 126.561h6.56v10.24h-6.56zM153.119 112.961h6.56v10.24h-6.56zM143.359 112.961h6.56v10.24h-6.56zM133.439 112.961h6.56v10.24h-6.56zM123.519 112.961h6.56v10.24h-6.56zM153.119 99.361h6.56v10.24h-6.56zM143.359 99.361h6.56v10.24h-6.56zM133.439 99.361h6.56v10.24h-6.56zM123.519 99.361h6.56v10.24h-6.56z"/><path fill="#b8d6ff" d="M171.519 136h12.32v31.36h-12.32z"/><path fill="#fff" d="M113.439 103.841c0-3.358-7.808-6.08-17.44-6.08-3.091 0-5.989.283-8.506.775-1.721-.771-4.151-1.254-6.853-1.254-5.214 0-9.44 1.791-9.44 4 0 1.248 1.35 2.362 3.463 3.095-2.166 1.013-3.463 2.265-3.463 3.625 0 3.358 7.808 6.08 17.44 6.08 8.809 0 16.072-2.279 17.253-5.236 4.556-1.097 7.547-2.928 7.547-5.004Z"/><path fill="#9dc9ff" d="m133.599 120.8 16 46.56h-17.44l.32-46.56z"/><path fill="#b8d6ff" d="M143.359 164.001h5.086l-3.519-10.24h-1.567zM143.772 150.401l-.413-1.199v1.199zM135.52 126.561h-1.92v10.24h5.44zM133.439 153.761h6.56v10.24h-6.56zM133.439 140.161h6.56v10.24h-6.56z"/><path fill="#7ebdff" d="M101.28 120.96v46.401l32.32-.001V120.8z"/><path fill="#fff" d="M104.8 141.92h25.28v4.96H104.8zM104.8 133.28h25.28v4.96H104.8zM104.8 124.641h25.28v4.96H104.8zM123.519 167.361h-12.16v-9.44c0-3.36 2.72-6.08 6.08-6.08s6.08 2.72 6.08 6.08z"/><path fill="#4e5256" d="M60.959 167.2h122.88v25.12H60.959z"/><path fill="#fff" d="M60.959 178.559h6.88v2.4h-6.88zM92 180.959H80v-2.4h12.16zm24.32 0h-12.16v-2.4h12.16zm24.32 0h-12.16v-2.4h12.16zm24.16 0h-12.16v-2.4h12.16zM176.959 178.559h6.88v2.4h-6.88z"/><circle cx="182.879" cy="76.001" r="15.36" fill="#007bc0" transform="rotate(-79.099 182.88 76)"/><path fill="#fff" d="m192.96 71.36-2.72-2.88-9.87 9.87-4.691-4.591-2.72 2.72 7.36 7.52h.001V84z"/></svg>