<svg xmlns="http://www.w3.org/2000/svg" viewBox="0 0 340.762 1009.342"><path fill="none" d="M258.1 330.61v.01c20.071 3.744 35.468 12.523 41.608 29.352-6.069-16.845-21.471-25.624-41.608-29.362M121.163 63.03a169 169 0 0 0 2.615 20.748l.074.34c-.046-.249-.1-.5-.143-.746a175 175 0 0 1-2.546-20.342m31.522 64.345-.034.309.035-.308zm-26.966-35.129c.151.61.3 1.22.459 1.831.408 1.449.807 2.838 1.2 4.179-.415-1.467-.838-2.99-1.267-4.584-.139-.478-.262-.951-.392-1.426m67.39 5.726.074.4c3.8-5 11.8-16.3 11.9-24.694a9 9 0 0 0-.147-2 9 9 0 0 1 .078 1.6c-.105 8.394-8.105 19.694-11.905 24.694m-119 240.7.002.001-2.649-3.533-.334-.044 1.371 3.888zm93.2-212.5-.137.029.133-.026z"/><path fill="#00210e" d="m168.432 552.245-.122-.473c-9.4-36.2-19.1-69.7-27.1-89.2-7.15-17.4-10.243-39.264-11.58-55.053-.985-11.622-1.019-19.943-1.02-20.771v-.072h-28.158l-.044.1 9.43-.007-9.429.008-9.137 21-.095.209c-.576 3.865-5.75 34.917-7.514 48.439a57 57 0 0 0-.586 5.861l.054 1.568 8.246 238.232s27.641 262.545 27.9 263.094h17.516v.006h.752c17-63.8 40.533-140.2 9.333-255.1-9.871-36.497 5.901-96.242 21.554-157.841"/><path fill="#00381b" d="M250.109 655.172c-6.6-11.7-7.4-28.9-6.8-49.4 2.653-101.25 18.12-144.4-12.493-197.565l-83.207.465-.009-1.272-.106-20.671v-.06h-18.885v.076c0 .828.035 9.149 1.02 20.771 1.337 15.789 4.43 37.656 11.58 55.053 8 19.5 17.7 53 27.1 89.2l.122.473c19.154 73.789 37.178 158.427 37.178 158.427L270.5 965.241l18.807-.19c-6.996-227.078 14.401-214.582-39.198-309.879"/><path fill="#37a264" d="M136.792 965.177v-.006h-17.8l-87.5 30.2.2.3a37.48 37.48 0 0 0 28.9 13.6h85.2l-8.9-43.6zm190.661 28.265-37.646-28.395h-.5l-18.807.19h-.049l-3.4 44.1h52.1a10.07 10.07 0 0 0 10.1-10.1 9.95 9.95 0 0 0-1.798-5.795"/><path fill="#00884a" d="m88.709 204.372-2.567 27.466c23.05-35.426 37.483-60.345 37.483-60.345l-6.016 1.679a37.65 37.65 0 0 0-28.9 31.2M88.01 336.15a5368 5368 0 0 1-9.358-39.337l-3.843 13.159.077 15.12.676.048zm9.579 39.234-18.628 3.557-2.718.519-1.078.206.012 2.313.034 6.6.1 19.3 15.963-.1 9.561-21h-.424s-1.069-4.291-2.822-11.395m72.896 4.162c-8.243.1-16.023.187-23.023.266l.035 6.86v.06l.103 20.668.006 1.269 83.207-.465 24.093-.135 1.224-29.7c-11.282.188-23.8.374-36.609.551-16.571.229-33.611.442-49.036.626M237.609 328.472c-3.356-8.574-7.142-18.8-10.7-29.59-7.154-21.685-13.4-45.683-13.4-63.31 0-26.271 6.246-46 20.6-62.554.058-.066.11-.134.167-.2l-7.547-2.49c-7.093-3.073-15.712-7.86-18.815-11.456a44 44 0 0 1-4.823-6.439l-.163-.4-.714-1.76-6.732 19.7-10.336 30.087-38.037 110.712.142 27.729c8.964-1.766 18.273-3.477 27.677-4.98a386 386 0 0 1 49.251-5.071c4.575-.127 9.066-.132 13.43.022a140.5 140.5 0 0 1 20.491 2.148v-.01a141 141 0 0 0-20.491-2.138"/><path fill="#86d7a2" d="M150.163 150.272h-4.054l-.071.193-5.029 13.607-17.384 7.421s-14.433 24.919-37.483 60.345l-.933 1.434c-10.4 13.6-14.8 27.8-8.4 55.6.6 2.607 1.217 5.26 1.843 7.941a5420 5420 0 0 0 9.358 39.337l11.909 10.532c2.816.755 4.9 1.208 5.49 1.09l.335-.07-.135-.53c12.06-2.5 26.352-5.66 41.642-8.671l-.142-27.729 38.032-110.713 10.336-30.087 6.732-19.7zM118.092 380.13l-2.2.023-1.885.019-1.12-4.4-.444-1.744-1.173-.028-5.761-.131-7.92 1.512c1.753 7.1 2.82 11.388 2.82 11.388h.424l.044-.1H147.5l-.035-6.86c-13.394.153-23.927.264-29.373.321m-50.678-55.564-14.791-41.938a6.89 6.89 0 0 0-6.4-4.6h-2.494a6.79 6.79 0 0 1 5.68 4.444l14.773 41.867 3.642 10.319 1.727 4.9 2.948-.57-1.371-3.888z"/><path fill="#b8efc9" d="M236.178 91.477a47.87 47.87 0 0 0-22.7-29 59 59 0 0 0-2.1-10.3c-6.7-29.5-22.8-46.9-61.7-41.6-16 2.2-24.3 11.5-28.5 22.2-.1.1-.1.2-.2.2-9.6 6.5-18.7 21.2-10.2 36.9a47.8 47.8 0 0 0 34.8 80.6c.153 0 .308-.01.461-.012l.071-.193h4.069c.4-3.6.9-7.4 1.3-11.295l.056-.541.005-.048c.18-1.723.36-3.5.54-5.211.188-1.793.383-3.763.573-5.493l.034-.309c-1.5-.1-3.092-.234-4.492-.434a69.7 69.7 0 0 1-11.884-2.465s-3.714-8.348-8.933-26.216c-.391-1.341-.79-2.73-1.2-4.179q-.234-.916-.459-1.831a258 258 0 0 1-1.867-8.128l-.074-.34a169 169 0 0 1-2.615-20.748q-.21-3.323-.285-6.652l1.9-2.9c8 22.1 43.1 26.9 60.3 27.9 4.1-7.2 13.3-21.1 19.8-14a8.9 8.9 0 0 1 2.053 4.3 11.7 11.7 0 0 1-.013 1.969c.1 7.508-8.007 19.326-11.809 24.329l.069.406 3.1 17.4 6.2 34.4.1-.029a47.88 47.88 0 0 0 33.6-58.68M64.182 324.339l-14.773-41.867a7.07 7.07 0 0 0-6.4-4.5l-11.1.8-15.2-.1a6.786 6.786 0 0 0-6.8 6.7 5.9 5.9 0 0 0 .4 2.3l20.883 59.307 38.332-7.42.027-.005-1.727-4.9z"/><path fill="#8a9097" d="M36.854 487.107 0 520.857l2.6 8 18.692-8.465-21.283 33.78 9.3 2.9a21.36 21.36 0 0 0 18.2-2.6c6.3-4.1 14-9.6 15.6-12.3 11.9-20.1 14.3-45 14.3-45L68.4 480.115l-24.825-10.272zM167.172 126.2a52 52 0 0 1-14.486 1.175l-.035.308c-.19 1.73-.385 3.7-.573 5.493-.18 1.707-.36 3.488-.54 5.211a90 90 0 0 0 15.767-12.213zM74.361 359.389v-.184l-.075-6.138v-.1l-.112-9.242-.062-5.05-1.61.312-2.948.57-.027.005-38.332 7.42-6.683 1.293s18.2 24.6 24 29.5 26.1 2 26.1 2l-.2-16.223z"/><path fill="#a4abb3" d="M204.931 71.674a8.9 8.9 0 0 0-2.053-4.3c-6.5-7.1-15.7 6.8-19.8 14-17.2-1-52.3-5.8-60.3-27.9l-1.9 2.9q.072 3.327.285 6.652a175 175 0 0 0 2.546 20.342c.044.249.1.5.143.746a258 258 0 0 0 1.867 8.128c.13.475.253.948.39 1.426.429 1.594.852 3.117 1.267 4.584 5.219 17.868 8.933 26.216 8.933 26.216a69.7 69.7 0 0 0 11.884 2.465c1.4.2 2.992.334 4.492.434a52 52 0 0 0 14.486-1.175l.137-.029a90 90 0 0 1-15.767 12.213l-.005.048-.056.541c-.4 3.9-.9 7.7-1.3 11.295h52.031s.3-.1.269-.095l-6.2-34.4-3.1-17.4v-.007l-.074-.4c3.8-5 11.8-16.3 11.9-24.7a9 9 0 0 0-.075-1.584m97.477 305.465c-.366.066-1.244.133-2.582.2a11 11 0 0 0 2.583-.169zM105.744 347.7l-.335.07c-.593.118-2.674-.335-5.49-1.09L88.01 336.15l-12.448-11.01-.676-.048-7.472-.526 3.714 10.53.334.044 2.649 3.533.062 5.05.112 9.242v.1l.075 6.138v.184l.051 4.16.2 16.223.556-.106 1.078-.206 2.718-.519 18.628-3.557 7.92-1.512 5.761.131 1.175.026-1.347-5.292z"/><path fill="#37a264" d="m75.211 388.576-.034-6.6-36.368 85.896 4.766 1.971L68.4 480.115l5.212 2.157 9.522-18.427-.054-1.568a57 57 0 0 1 .586-5.861c1.764-13.522 6.938-44.574 7.514-48.439l.095-.209-15.963.1zm159.098-215.804-.038.046c-.057.066-.109.134-.167.2-14.349 16.55-20.6 36.283-20.6 62.554 0 17.627 6.243 41.625 13.4 63.31 3.561 10.793 7.347 21.016 10.7 29.59a141 141 0 0 1 20.496 2.138c20.135 3.738 35.537 12.517 41.607 29.36l-31.9-150.3c-4.298-22.198-15.598-34.998-33.498-36.898m65.4 187.198v.002z"/><path fill="#5ebd82" d="M299.709 359.972c-6.14-16.829-21.537-25.608-41.608-29.352a140.5 140.5 0 0 0-20.492-2.148c-4.364-.154-8.855-.149-13.43-.022a386 386 0 0 0-49.251 5.071c-9.4 1.5-18.713 3.214-27.677 4.98-15.29 3.011-29.582 6.17-41.642 8.671l.135.53 5.354 21.035 1.347 5.292.444 1.744 1.12 4.4 1.885-.019 2.2-.023a39525 39525 0 0 0 52.393-.584 29326 29326 0 0 0 49.039-.626c12.805-.177 25.327-.363 36.609-.551 20.791-.348 37.361-.705 43.693-1.028 1.338-.069 2.216-.136 2.582-.2.128-.022.2-.045.2-.067a50 50 0 0 0-2.901-17.103"/></svg>