<svg xmlns="http://www.w3.org/2000/svg" viewBox="0 0 717 737"><g fill="none" fill-rule="evenodd"><path fill="#66B8B2" fill-rule="nonzero" d="M650.745 6.31h-.47a5 5 0 0 0-.49 0h-.38c-.19 0-.38 0-.57.08l-.42.08-.52.11-.38.11-.54.16c-6.37 2.14-11.55 9.53-13.75 19.26a2 2 0 0 0 0 .21c-.19.86-.36 1.74-.51 2.63-.12.77-.22 1.56-.3 2.35-.12 1.15-.21 2.32-.25 3.51v1.71c0 16.73 8.36 30.3 18.69 30.31l-38 269.23h56.58V36.62c0-16.74-8.37-30.31-18.69-30.31"/><path fill="#595E62" fill-rule="nonzero" d="m634.745 162.5 80.64 572.82h-26.83l-80.65-572.82z"/><path fill="#595E62" fill-rule="nonzero" d="M574.485 544.47h98.06v15.51h-98.06z"/><path fill="#C1C7CC" fill-rule="nonzero" d="m611.705 162.5-80.64 572.82h26.84l80.64-572.82z"/><path fill="#595E62" fill-rule="nonzero" d="m395.685 162.5 80.64 572.82h-26.83l-80.65-572.82z"/><path fill="#595E62" fill-rule="nonzero" d="M335.425 544.47h98.06v15.51h-98.06z"/><path fill="#C1C7CC" fill-rule="nonzero" d="m372.645 162.5-80.64 572.82h26.84l80.64-572.82z"/><path fill="#B6EDE8" fill-rule="nonzero" d="M604.545 395.07h-302.64l46.2-328.14h302.64z"/><path fill="#8A9097" fill-rule="nonzero" d="M282.035 395.07h345.28c0 14.989-12.151 27.14-27.14 27.14h-291c-14.989 0-27.14-12.151-27.14-27.14"/><path fill="#C1C7CC" fill-rule="nonzero" d="M672.545 67.12a21 21 0 0 1-.21 3.07l-45.72 324.88h-22.07l46.2-328.14 3-21.4c10.699 1.495 18.69 10.598 18.79 21.4z"/><path fill="#8A9097" fill-rule="nonzero" d="M653.755 45.53h-307.19l21.38 21.38h282.8z"/><path fill="#8DD2CD" fill-rule="nonzero" d="M632.055 36.62c0-16.74 8.36-30.31 18.69-30.31h-302.73c-10.32 0-18.69 13.57-18.69 30.31s8.37 30.31 18.69 30.31h302.73c-10.32 0-18.69-13.57-18.69-30.31"/><path fill="#8A9097" fill-rule="nonzero" d="M672.545 66.93h-21.8l3-21.4c10.703 1.49 18.7 10.594 18.8 21.4"/><path fill="#595E62" fill-rule="nonzero" d="M397.675 382.01h63.05v13.06h-63.05z"/><path fill="#18837E" fill-rule="nonzero" d="M460.725 382.01h23.52v13.06h-23.52z"/><path fill="#02201E" fill-rule="nonzero" d="m442.095 222.11-9 63.98h-23.75l9.01-63.98zm50.55-23.11-12.26 87.09h-23.75l12.26-87.09zm50.66-23.1-15.51 110.19h-23.75l15.51-110.19z"/><path fill="#C1C7CC" fill-rule="nonzero" d="M209.145 204.62c.27-.29.46-.61.73-.9l125.45-1.82 40-8.34 2 7.46c-.05 0-20.21 6-20.21 6s2.35 17 2.36 16.94c-30 6.72-42.21-3-42.21-3l-83.65 18.32-1.39.35a21.85 21.85 0 0 1-11.38-.16c-14-4.05-21.9-21.65-11.65-34.85z"/><path fill="#C1C7CC" fill-rule="nonzero" d="m352.015 192.19 4.41 5.38-17.38 13.39-24.43-8.09z"/><path fill="#116864" fill-rule="nonzero" d="m160.215 164.47 33.9-32.3 45.64 71.11-27.61 38.75z"/><path fill="#D0D4D8" fill-rule="nonzero" d="M342.835 208.04s1.47 9.47 6 12.84a13.8 13.8 0 0 0 10.7 3.12l-2.36-16.94z"/><path fill="#02201E" fill-rule="nonzero" d="M69.535 108.21c-12.2 11.1-13 19.63-10.81 28.22 2.87 10.88 7.94 15.22 7.94 15.22l112.37 2v-26.18a53.24 53.24 0 0 0 8.16-28.88c0-7.13-4.93-18.67-7.87-25.58a2.7 2.7 0 0 1-.29-.66v-20.8c13.89-14 6.1-28.22-2.35-33.95 0-.07-.08-.07-.08-.15-3.08-7.86-9.18-14.69-20.94-16.31-28.59-4-40.42 8.82-45.35 30.5-.73 3.45-1.61 8.15-2.42 12.71a33 33 0 0 1-14.18 21.68c-8.82 5.73-16.25 14.92-20.8 25.65a50.2 50.2 0 0 0-3.38 16.53m106.34-75.6 1.25 2.11a121.8 121.8 0 0 1-3.9 27.7c-4.11 15.21-7.49 22.56-7.49 22.56a52.5 52.5 0 0 1-12.12 2.15c.3 2.79.7 5.65 1 8.59 1.4 11.61 2.72 22.64 2.72 22.64h-42.9l9.78-52.76c-3.61-4.7-12.28-17.12-7.13-22.78 5.73-6.2 12.56 7.48 13.37 9.32 12.13-.29 39.4-2.83 45.42-19.52z"/><path fill="#C1C7CC" fill-rule="nonzero" d="M142.695 86.14a36 36 0 0 0 11.17 1c.3 2.79.62 5.69.92 8.63a56.2 56.2 0 0 1-12.09-9.59z"/><path fill="#D0D4D8" fill-rule="nonzero" d="M165.885 85a50.5 50.5 0 0 1-12 2.14 38.2 38.2 0 0 1-11.17-1 63.4 63.4 0 0 0 12 9.55c1.32 11.62 2.72 22.64 2.72 22.64h-42.82l9.56-52.77c-3.6-4.7-12.28-17.12-7.13-22.78 6-6.47 12.71 7.57 13.59 9.33 12.2-.29 39.17-2.94 45.2-19.54l1.4 2.13a126.4 126.4 0 0 1-3.9 27.7c-4.11 15.22-7.49 22.56-7.49 22.56z"/><path fill="#116864" fill-rule="nonzero" d="M178.155 121.53c11.09 2.5 20 11.39 21.68 22.63l1.91 20.36c-16.98-26.1-23.59-42.99-23.59-42.99"/><path d="M178.155 702.69v.08c.14 0-.08 0 0-.08"/><path fill="#C1C7CC" fill-rule="nonzero" d="M178.155 702.77c-.08 0 .14.07 0 .07h-13.38v.37c-.14-.15.08-.3 0-.52-10.87-40.78-25.35-88.41-13.81-155.72 15.28-2.43 30.27-5.3 44.53-6.54z"/><path fill="#EFF1F2" fill-rule="nonzero" d="m67.035 702.91 38.66-151.61c-17.08-.15-33.88-3.08-49.68-11.54-3.9 28.22.22 65.63-2.8 163z"/><path fill="#18837E" fill-rule="nonzero" d="M164.775 702.91v.37l-6.32 32h62.47a27.37 27.37 0 0 0 21.16-10l.15-.22-64.16-22.2zm-141.54 24.77a7.56 7.56 0 0 0 7.57 7.57h38.51l-2.21-32.78-13.89-.15-28.66 21.1a6.86 6.86 0 0 0-1.32 4.26"/><path fill="#116864" fill-rule="nonzero" d="m103.115 265.2-30.5-106.78-.23-1.69a1.7 1.7 0 0 0-.07-.59c0-.36-.07-.73-.07-1.1a1.9 1.9 0 0 0-.08-.66c0-.29-.07-.66-.07-1v-5.29a3.2 3.2 0 0 1 .07-.81l.08-.66c0-.29.07-.59.07-.81s.07-.44.07-.66l.08-.81c0-.22.07-.44.07-.66a2.7 2.7 0 0 1 .15-.73c.07-.22.07-.44.15-.66s.07-.52.14-.74l.15-.59c.07-.22.15-.51.22-.73l.15-.59c.07-.22.15-.51.22-.73a1.8 1.8 0 0 0 .15-.59 2.8 2.8 0 0 1 .29-.74 4 4 0 0 1 .22-.51c.07-.29.22-.52.29-.81l.15-.44c.15-.29.29-.66.44-1a.25.25 0 0 0 .08-.22c.22-.36.36-.73.58-1.17.08-.08.15-.22.22-.3a3.2 3.2 0 0 1 .52-.8 1.6 1.6 0 0 1 .29-.45 4 4 0 0 0 .44-.66l.3-.44a3.6 3.6 0 0 1 .44-.59 2 2 0 0 1 .37-.44c.14-.14.29-.36.51-.58s.29-.3.37-.45a3.5 3.5 0 0 1 .51-.51l.44-.44q.271-.286.59-.52l.44-.36c.22-.15.37-.3.59-.44l.51-.37c.22-.15.37-.29.59-.44l.52-.37.66-.44.59-.37.66-.37c.22-.07.36-.22.58-.29l.74-.37.59-.29a8 8 0 0 1 .81-.37l.58-.22a3.9 3.9 0 0 1 .89-.29l.46-.11q16.897 57.93 24.49 86.977t12.89 56.023z"/><path fill="#18837E" fill-rule="nonzero" d="M195.615 265.2h-68.1l-37.48-143v-.15c1-.29 22.42-7.42 22.42-7.42l4.16-10.15h41.16l3.75 10.14 14.09 5.8 2.72 1.1s6.61 17 23.59 43l.51.81c7.65 10 10.88 20.43 6.18 40.86-1.55 6.76-3.16 13.89-4.78 21-4.66 21.23-8.22 38.01-8.22 38.01"/><path fill="#B6EDE8" fill-rule="nonzero" d="M106.725 278.06h86.13l8.08 15.58c.51 3.46 3.82 36.38 3.75 39.84.07.51 15.8 206.8 15.5 206.8a127 127 0 0 0-24.76.22c-14.19 1.25-29.25 4.11-44.54 6.54-15.06 2.42-30.35 4.48-45.41 4.26-17-.15-33.88-3.16-49.68-11.54a94.3 94.3 0 0 1-20.07-14.4c-.58-.51 21.68-211.51 71-247.3"/><path fill="#02201E" fill-rule="nonzero" d="M103.115 265.2h92.5l-2.79 12.86h-86.21z"/><path fill="#C1C7CC" fill-rule="nonzero" d="M135.295 283.04c-.37 1-7.05 2.06-7.5 3.09a43.4 43.4 0 0 1-3.16 6.46c-2.79 4.56-28.88 5.66-28.88 5.66l7.72-29.1 33.44 8.91c0-.07-.66 2.41-1.62 4.98"/><path fill="#D0D4D8" fill-rule="nonzero" d="m20.745 197 34.18 17.49c-3.6 4-6.91 7.65-9.7 11.1 14.91 13.67 28.94 33 45 48l14-4.48-8.43 29.1s-11-4.19-15-5.8L.615 223.79c1.25-1.76 7.57-10.18 20.13-26.79"/><path fill="#66B8B2" fill-rule="nonzero" d="M59.775 142.18c12.42-15.07 18.66-19.4 30.28-20.14 9.62 12.13 12.64 18.67 9.84 35.13-4.28 24.84-54.67 68.42-54.67 68.42s-16.69-11.42-44.61-1.8c40.06-58.17 59.16-81.61 59.16-81.61"/></g></svg>