<svg xmlns="http://www.w3.org/2000/svg" viewBox="0 0 641 478"><g fill="none" fill-rule="evenodd"><path fill="#419E98" fill-rule="nonzero" d="m292.21 226.629-4.847-1.826 25.32-67.22 4.847 1.826z"/><path fill="#116864" d="m447 137.65-38.49 80.13 9.35 28.68 39.52 3z"/><path fill="#8A9097" fill-rule="nonzero" d="M408.1 220.18c-.18-.25-.46-.53-.64-.77l-111.79 2.69-38.2-6.43 7.07 32 46.83-4 77.86 5.29 1.23.28a19 19 0 0 0 10.19-.59c12.23-4.07 17-17.11 7.45-28.5z"/><path fill="#8A9097" fill-rule="nonzero" d="m279.69 205.33-4.69 4.02 16.29 15.18 24.21-1.85z"/><path fill="#419E98" fill-rule="nonzero" d="m408.51 217.78-77.28-.4.08 27.68s71.91 4.4 88.42 5.15c3.48.16 13.51-2.69 13.22-7.05-.65-9.61-9.45-24-24.44-25.38"/><path fill="#43464A" fill-rule="nonzero" d="m57.55 348.97-8.18 24.89-33.66 102.46H-.02l32.91-100.18 8.17-24.9z"/><path fill="#8A9097" fill-rule="nonzero" d="M21.4 423.62a7.87 7.87 0 0 1 7.87-7.87h128.47v15.74H29.28a7.87 7.87 0 0 1-7.88-7.87"/><path fill="#43464A" fill-rule="nonzero" d="m281.27 241.77-6.93 21.12-.65 2-69.32 211.43h-15.72l69.56-212.43.66-1.99 6.91-21.12zm167.54 95.9 1.07 2.55 9.17 21.69 48.32 114.41h-36.1l-49.33-116.78-10.24-24.24z"/><path fill="#43464A" fill-rule="nonzero" d="m454.83 252.88-1.24 23.51-179.9-11.5-15.48-1-15.75-1 1.8-23.48 21.52 1.37 15.49.99z"/><path fill="#C1C7CC" fill-rule="nonzero" d="m622.05 100.34-78.32 239.14h15.73l76.87-234.47z"/><path fill="#8A9097" fill-rule="nonzero" d="M494.66 100.34h127.39l-77.13 235.52-124.67-8.32z"/><path fill="#C1C7CC" fill-rule="nonzero" d="m191.3 348.97-8.18 24.89-33.67 102.46h-15.72l32.9-100.18 8.18-24.9z"/><path fill="#8A9097" fill-rule="nonzero" d="m148.935 352.7 1.525 25.67H16.71l-3.83-23.24z"/><path fill="#8A9097" fill-rule="nonzero" d="m146.63 355.13 225.283-30.94H237.15L12.88 355.13z"/><path fill="#02201E" fill-rule="nonzero" d="M347.14 267.25c-13.17-8.28-57-7.34-57-7.34L57.98 332.46l3.71 20.24c67.54-9.51 128.62-.74 187.23-28.51 0 0 35.86-9.26 50.48-9.36a316 316 0 0 0 79.69 9.36s-17.79-48.02-31.95-56.94"/><path fill="#8A9097" fill-rule="nonzero" d="M501.38 89.22c-.39 1.35-.77 2.7-1.17 4.12 4.585-1.826 9.268-4.254 13.372-6.995-3.772-.12-7.665-.374-11.082-.955-.36 1.2-.73 2.48-1.12 3.83"/><path fill="#A4ABB3" fill-rule="nonzero" d="M497.82 101.44c-2.39 8-4.31 14.24-4.31 14.24l42.27 7.45-.1-15.09-.1-25.69-.09-13c3.39-3.14 10.62-10.29 11.76-16.36a6.6 6.6 0 0 0-.79-4.84c-3.79-6-12.23 2.92-16.11 7.61-12.25-2.91-37-10.86-40.08-27.89l-1.75 1.86a132 132 0 0 0-1.4 20.2 74 74 0 0 0 .43 7.76c1.43 15.76 3.43 23.59 3.43 23.59a50 50 0 0 0 8.29 3.33c1 .32 2.06.58 3.13.85a38.4 38.4 0 0 0 10.8 1 67.2 67.2 0 0 1-13.08 6.87c-.8 2.84-1.58 5.54-2.32 8.1z"/><path fill="#B6EDE8" fill-rule="nonzero" d="M554.76 46.26a42 42 0 0 0-.21-7.72C553.47 16.33 544.04 1.68 515.21.53c-11.86-.45-19.06 5.22-23.46 12.42-.09.06-.1.14-.17.12-7.78 3.48-16.24 13-12.09 25.41a35.12 35.12 0 0 0 14.9 62.77c1.08.19 2.18.31 3.35.45.75-2.56 1.6-5.25 2.38-8 .39-1.35.79-2.77 1.18-4.12s.8-2.85 1.18-4.12c-1.07-.27-2.21-.57-3.2-.89a50.7 50.7 0 0 1-8.28-3.3s-1.88-7.53-3.46-23.29c-.2-2.65-.33-5.28-.42-7.76a123 123 0 0 1 1.4-20.2l1.74-1.86c3 17 27.76 25 40.08 27.89 3.89-4.69 12.32-13.58 16.12-7.61.876 1.452 1.015 3.427.646 5.082-1.447 5.942-8.236 12.698-11.616 15.828v13.29l.1 25.69a35.05 35.05 0 0 0 19.15-62.07z"/><path fill="#116864" d="m475.87 114.75-4.43 1c-11.36 2.54-21.27 11.79-24.9 23.29l-9 34.32 45.44-43.16z"/><path fill="#8DD2CD" fill-rule="nonzero" d="M558.46 117.53c-.89-.3-20.58-8.6-20.58-8.6l-2.29-10.3h-40.61l-5.46 10.3-13.66 5.82s-12 17.44-30.27 46.06c-7.39 11.58-14.26 20.74-13.17 41.49 1.69 32-.7 72.82-.7 72.82l80.09 21.66z"/><path fill="#053634" fill-rule="nonzero" d="M396.17 259.65a447.5 447.5 0 0 0-54.37-3.56s-20.4 28.67-17.07 52c34.48 22.46 119.19 23.8 119.19 23.8 14 4.7 39.76 7.05 51.51-4.71s16.39-30.42 16.39-30.42c-10.36-8.09-16.56-10.74-28.92-15.12a511 511 0 0 0-55.37-16.27c-11.24-2.56-21.85-4.51-31.36-5.72"/><path fill="#053634" fill-rule="nonzero" d="m473.03 266.12-2.92 16.02-42.58-16.75z"/><path fill="#116864" d="m475.23 218.41-13.89 95.19 73.58 10.59 34.94-170.78c5.5-18.58 2.93-33.21-14-37.76-4.5-1.2-14.76-6.79-17.29-10.6-3.29-4.92-3-6.34-3-6.34l-60.35 119.7z"/><path fill="#18837E" fill-rule="nonzero" d="M58.61 332.29 2.04 290.1l-.1.25a29.05 29.05 0 0 0 3.64 24.62l36.95 55.29 19.8-17.73zm72.08-4.59-55.32-44.77-.11.24a29.05 29.05 0 0 0 2.62 24.75l34.64 56.78 20.46-16.77z"/><path fill="#B2B9C0" fill-rule="nonzero" d="m591.7 361.91-10.24-24.24-37.11-2.37-173.46-11.11-179.59 24.78-16.49 2.27-28.18 3.89 3.83 23.24 16.18-2.23 16.48-2.28 188.58-26.02 182.89 11.7 49.33 116.78h36.1z"/><path fill="#053634" fill-rule="nonzero" d="m342.06 256.7-.26-.61-211.11 71.61 2.29 20.23c74.94-4.48 125.15-13 158.08-23.88 60.83-20.05 61.51-42.14 51-67.35"/><path fill="#116864" d="M273.1 250.22h27.6l4.71-58.66h-37.02z"/><path fill="#A4ABB3" d="m256.5 211.78 32.27.6c1 6.6-2.9 16.14-8.8 20.06l-17 8.16z"/><path fill="#8A9097" fill-rule="nonzero" d="M210.07 423.62a7.87 7.87 0 0 1 7.87-7.87h128.47v15.75H217.95a7.87 7.87 0 0 1-7.88-7.88"/><path fill="#C1C7CC" fill-rule="nonzero" d="m398.12 240.82-6.9 21.08-.67 2.01-69.56 212.41h15.73l69.3-211.37.66-2.01 6.91-21.08z"/><path fill="#A4ABB3" fill-rule="nonzero" d="m408.55 171.66-15.4-19.21-10.17-2.5 1.13 7.73 4.81 1.5 1.51 2.94z"/><path fill="#B2B9C0" fill-rule="nonzero" d="m601.91 254.47-1.57 23.49-202.48-13.55-15.46-1.04-7.29-.48 1.8-23.48 13.05.87 15.47 1.04z"/><path fill="#66B8B2" fill-rule="nonzero" d="m397.31 181.53-18.74-53.1a5.06 5.06 0 0 0-4.71-3.38h-2.35a5 5 0 0 1 4.71 3.31l18.52 52.54a5 5 0 0 1-3.09 6.39 4.2 4.2 0 0 1-1.69.3l-16.9.59h-.08l19.55.14a5 5 0 0 0 5.07-5 4.5 4.5 0 0 0-.29-1.77z"/><path fill="#B6EDE8" fill-rule="nonzero" d="m394.8 181.01-18.59-52.7a5 5 0 0 0-4.71-3.3l-8.15.59-11.18-.07a5 5 0 0 0-5 4.93 4.4 4.4 0 0 0 .29 1.69l18.37 52.17a4.91 4.91 0 0 0 4.63 3.31h2.65l16.9.07a5 5 0 0 0 5-5 3.3 3.3 0 0 0-.21-1.69"/><path fill="#8A9097" fill-rule="nonzero" d="M367.04 187.19c3.59 4.27 18.7 4.67 18.7 4.67l4.77-29.83-37.16.8s10.11 20.09 13.69 24.36"/><path fill="#A4ABB3" fill-rule="nonzero" d="M411.98 172.53c-1.87.05-21.53-10.5-21.53-10.5l-4.77 29.83 22.8-.33 3.75-19z"/><path fill="#66B8B2" fill-rule="nonzero" d="M526.13 251.7c3.17-17.08-9.08-31.31-27.53-43.14-26.4-16.86-65.52-28.95-90.52-37.48l-7 24s120.06 69.25 120.51 68.49a36.4 36.4 0 0 0 4.55-11.9z"/><path fill="#419E98" fill-rule="nonzero" d="M569.47 155.31c8.68-22.1 3.72-32.18-7.58-37.4-15.6 4.34-24.57 15.06-35.22 31.28s-18.79 42.88-23 62.81c17.92 12.73 21.73 34.77 17.69 51.64z"/></g></svg>