<svg xmlns="http://www.w3.org/2000/svg" data-name="Ebene 1" viewBox="0 0 1886.167 992.433"><path fill="#c1c7cc" d="m337.987 173.318 20.726-1.459 1.641 23.317-20.726 1.459z"/><path fill="#a1dfdb" d="M400.734 59.174a54 54 0 0 0-3.607-2.253c-1.16-.664-33.448-14.58-67.38-1.244-32.76 12.961-54.144 50.61-54.144 50.61-1.296 10.113-2.074 20.233-2.202 30.36-.335 26.359-4.559 42.018-4.559 42.018s8.024 2.18 27.526.35l2.99-.222c10.919-.901 22.095-1.539 22.095-1.539-6.622-10.343-10.628-22.081-11.642-34.301-.033-.952-.105-1.95-.093-2.859-3.452-4.329-24.006-31.4-14.046-42.13 7.897-8.34 16.363 3.48 20.55 11.195 2.472-10.618 3.445-21.588 2.803-32.375 0 0 7.948 1.508 15.968-6.312 0 0 15.38 17.543 36.413 17.81 9.868.125 19.44 3.103 27.681 8.532-.442 4.15-.893 8.95-1.737 14.133l8.284-8.206c.265-.386 26.512-22.13-4.902-43.566z"/><path fill="#02201e" d="M329.746 55.677c33.802-13.337 65.96.577 67.38 1.244l.13.002-22.35-29.633-15.644-5.393S340.753 6.858 335.977 4.59c-12.26-6-29.162-4.395-29.162-4.395s-15.974 10.316-21.3 20.768c-5.457 10.45-5.673 27.459-5.673 27.459l-6.7 16.278 2.46 41.587s21.385-37.649 54.143-50.61z"/><path fill="#e0e2e5" d="M371.666 88.164c-21.034-.266-36.653-17.866-36.653-17.866-8.02 7.82-16.054 6.42-16.054 6.42.641 10.916-.405 21.682-2.747 32.3-4.317-7.716-12.738-19.51-20.505-11.168-10.399 11.037 10.427 37.923 14.008 42.254-.011.909.106 1.949.094 2.858 1.014 12.22 5.02 23.958 11.642 34.302 0 0-11.043.607-21.833 1.51l-9.725 49.905 74.267.942s-1.972-18.596-4.058-38.362c-7.858-5.034-15.053-11.099-21.46-17.933 6.47 1.77 13.214 2.505 19.972 2.071a85.2 85.2 0 0 0 20.692-3.504s6.134-12.648 13.61-39.046l.004-.26c2.04-7.246 3.562-14.629 4.694-22.017.845-5.184 1.425-9.981 1.738-14.133-8.246-5.17-17.817-8.147-27.685-8.272h-.001z"/><path fill="#07423f" d="M404.218 235.825c20.776 4.675 33.388 15.677 41.179 36.453L486.95 403.43c2.597 11.687 15.25 57.96 15.25 57.96l-40.05 50.627c-18.161-38.037-84.507-189.74-57.932-276.192"/><path fill="#71767c" d="M361.406 292.688c18.568 0 34.8 12.856 38.954 30.905l44.02 189.717 6.232 26.75 14.673 63.239c3.766 16.102-6.363 32.203-22.464 35.97a30 30 0 0 1-6.752.779H118.461L36.527 292.689c-1.428 0-2.856.13-4.285.26v-.26h329.164z"/><path fill="#43464a" d="m436.588 867.03 16.49 50.382-12.465 55.448h-27.658zm20.516-91.287h27.787l-20.516 91.546-16.49-50.383zM443.989 512.79h209.834l55.315 169.068-27.788-.13-46.485-141.8H450.352zm360.327 460.07h-27.787l-64.794-198.156h27.787z"/><path fill="#c1c7cc" d="M783.41 681.858c6.363.65 11.946 12.077 11.946 12.077v69.731s-5.583 11.427-11.946 10.908h-43.888l-27.787 1.038H516.963c3.766-3.376 6.103-11.557 6.103-11.557v-73.107s-1.818-7.272-4.934-9.22l163.218 1.039 27.788-1.039h74.273z"/><path fill="none" d="M477.75 774.184 431.133 566.03h-27.787l46.615 208.154m-2.078 42.722-13.504-41.164h22.724z"/><path fill="#595e62" d="m434.51 775.613-31.423-95.962H511.64c6.362 0 11.426 5.194 11.426 11.427v73.107c0 6.363-5.194 11.427-11.426 11.427zm-308.518-39.606c-4.285-9.09-6.492-19.088-6.492-29.216v-4.285c0-12.596 10.258-22.855 22.853-22.855l233.711-.277 18.487 57.137z"/><path fill="none" d="m375.04 679.521 18.568 56.486H125.992c-4.285-9.22-6.492-19.088-6.492-29.216v-4.026c0-7.012 3.116-13.505 8.57-17.92l-9.998-44.799h.26l-6.623-28.438-10.258-45.708h-.39l-6.232-26.1h234.634z"/><path fill="#595e62" d="M32.242 293.337c1.429-.13 2.857-.26 4.285-.26l51.94 220.362 6.232 26.62 6.103 25.97 10.777 45.58 6.752 28.307h-25.97c-.648 0-1.427 0-2.077-.13-11.686-.91-21.554-9.35-24.151-20.776L.949 337.747c-4.544-19.737 7.661-39.345 27.398-43.89 1.298-.13 2.597-.39 3.895-.52"/><path fill="#18837e" d="m239.422 236.909 60.442 347.56c-20.776 10.258-41.687 21.945-59.995 36.229l-32.26-316.397s-10.341-61.574 31.813-67.392"/><path fill="#79c5c0" d="m298.82 584.598-59.34-347.487v-.26c1.817-.649 41.94-13.894 41.94-13.894l7.79-18.959h76.87l6.753 18.96 26.488 10.907 5.065 2.077s12.465 31.555 44.018 80.38l.909 1.428c14.283 18.569 20.256 38.047 11.426 76.224-2.856 12.596-5.973 25.97-8.83 39.216-7.14 32.203-7.011 88.3-6.621 108.947-42.98 5.324-95.698 17.27-146.468 42.462z"/><path fill="#032b28" d="M445.417 541.358c53.887-6.753 92.322-3.247 92.322-3.247v.65c-47.914 5.713-89.335 33.112-67.52 144.007H359.847c-24.801 8.31-70.248 12.466-91.023-8.31-20.646-20.647-28.956-53.76-28.956-53.76 18.308-14.284 38.045-26.62 58.82-36.878 51.03-25.192 103.749-37.008 146.728-42.462z"/><path fill="#02201e" d="m690.142 569.795 100.632 355.668-33.37 14.414c-52.33-108.557-105.956-156.343-122.707-269.705l-74.143 2.857-17.4-105.83z"/><path fill="#053634" d="m537.296 538.226 1.169-.13 4.674 28.048 17.4 105.83 42.85 260.357-33.112 14.023c-58.171-119.205-88.686-203.87-100.502-263.991-21.944-111.025 19.607-138.424 67.521-144.137"/><path fill="#b6ede8" d="m790.648 924.26 117.512 41.683-.26.39c-9.738 11.946-24.411 18.828-39.733 18.828H750.655l6.622-46.487 33.37-14.414zm-134.003 46.098-53.237-38.047-33.111 14.024v46.098h74.792c7.79 0 14.023-6.233 14.023-14.024 0-2.986-.909-5.713-2.467-8.051"/><path fill="#c1c7cc" d="m117.942 640.046 10.258 44.67c-5.584 4.284-8.7 10.907-8.7 17.79v4.285a69.6 69.6 0 0 0 6.492 29.346h267.616l-18.568-56.486-45.706-139.592H94.829l-6.363-27.14h259.955l54.536 166.343 31.423 96.091 13.504 41.294 16.491 50.382 34.67 105.83h-27.788l-18.179-55.447-16.49-50.253-29.216-89.34H166.115l-45.057 201.273H93.271l45.057-201.272h-2.987c-21.944 0-39.863-17.79-39.863-39.865v-1.818h16.231l-21.944-96.092c.65 0 1.428.13 2.077.13l26.1-.13z"/><path fill="#0a4f4b" d="m134.432 499.545 63.366-232.957c8.7-24.153 27.268-29.347 48.433-32.204 19.867 24.413 24.541 49.994 10.388 116.609-11.816 55.576-32.332 115.309-32.332 115.309l-1.299.52c-40.123-6.623-73.363-1.04-88.556 32.723"/><path fill="#e0e2e5" d="M467.671 490.342c12.76-27.854 35.87-33.995 74.519-32.154 55.213 2.7 87.16 13.637 142.387 18.344 3.068.981 43.296-18.644 43.296-18.644v40.225l-55.057 14.59s-210.911.83-210.666-.643c.614-7.485 2.454-14.847 5.521-21.718"/><path fill="#c1c7cc" d="M478.269 542.526c-8.57 6.103-35.968-.26-35.968-.26l5.454-56.097 66.741 18.829s-27.657 31.554-36.227 37.527z"/><path fill="#e0e2e5" d="M137.03 490.195c13.504-29.477 47.653-37.918 88.555-35.97 58.432 2.857 131.017 26.75 178.281 40.774 3.246 1.039 43.889-8.83 43.889-8.83l-5.454 56.097-46.248-15.475s-265.126-12.054-264.867-13.612c.65-7.921 2.597-15.712 5.843-22.984zm602.119-47.178c-1.867 25.532-1.957 48.694-11.276 51.194l1.364-51.194z"/><path fill="#18837e" d="M727.873 510.557h-47.046l-5.947-84.074h58.94z"/><path fill="#e0e2e5" d="m695.657 439.617-24.205 10.057-20.24 23.029c9.716 1.77 18.915 3.008 27.169 3.266l-.28-6.287 5.624-9.95 11.932-7.842z"/><path fill="#43464a" d="m1444.342 862.707-16.713 50.93 12.634 56.062h28.031zm-20.793-92.384h-28.03l20.66 92.647 16.714-50.93zm13.292-265.833h-212.272l-55.93 170.949 28.162-.132 46.982-143.444h186.61z"/><path fill="#71767c" d="M1092.896 675.568c-11.762 1.487-11.377 12.374-11.377 12.374v70.538s-.115 10.784 11.976 10.791l44.35 1.053h225.168c-3.816-3.29-6.185-11.58-6.185-11.58v-73.96s1.711-7.37 4.87-9.476H1196.67l-28.031.131z"/><path fill="#a4abb3" d="M1520.407 281.822c-18.819 0-35.137 13.029-39.348 31.321l-44.481 191.874-6.317 26.978-14.74 63.958c-3.816 16.318 6.449 32.637 22.768 36.454 2.237.526 4.606.79 6.843.79h321.237l82.908-351.374c1.448 0 2.895.132 4.343.263v-.263h-333.212zm23.103-117.234c-6.844 1.711-14.1 2.324-21.206 1.93-.658 5.395-1.239 11.208-1.897 16.998 8.554-5.264 16.39-11.69 23.102-18.928z"/><path fill="#0a4f4b" d="M1613.712 71.13c-2.237-22.11-28.689-35.4-28.689-35.4-2.237-37.507-48.56-24.215-48.56-24.215s-35.4-17.634-53.035-8.817-4.475 33.163-11.055 41.98c-6.58 8.95-8.817 22.11-8.817 22.11s-3.108 29.064 20.317 42.093c-2.106-11.318-3.292-22.896-3.818-34.477 8.685 3.026 19.56 5.543 32.062 3.57 26.583-4.607 50.798-22.241 50.798-22.241s0 30.926 2.237 41.98c.132.79.395 1.711.658 2.764 6.185-9.738 16.187-21.714 23.425-13.686 8.349 9.807-7.61 33.35-13.927 41.378a115 115 0 0 0 1.425 3.498c.131-.132 39.217-38.428 36.98-60.537z"/><path fill="#d0d4d8" d="M1515.538 223.786h78.04l-16.846-92.778s-.394-1.053-1.052-2.764c6.316-8.028 23.161-31.584 13.554-42.112-7.37-8.028-17.24 3.948-23.425 13.686-.263-.92-.526-1.842-.658-2.763-2.105-11.055-2.105-41.98-2.105-41.98s-24.215 17.634-50.798 22.108c-12.37 2.106-23.82-.263-32.505-3.29.526 11.581 1.71 23.03 3.948 34.348.79 4.343 1.842 8.949 3.026 13.423 7.502 27.768 13.687 41.191 13.687 41.191 7.106 2.237 14.344 3.422 21.714 3.948a63 63 0 0 0 21.056-1.974c-6.712 7.238-14.476 13.555-22.767 18.687-2.5 20.925-4.87 40.27-4.87 40.27z"/><path fill="none" d="m1402.757 768.876 47.113-210.56h28.162l-47.244 210.56"/><path fill="#d0d4d8" d="M1377.62 414.475 1229.703 334.2l4.211 61.852 55.404 24.346s81.46 65.669 98.437 67.906c37.506 5.133 40.402-29.083 40.402-29.083l-50.535-44.745z"/><path fill="#54aba4" fill-rule="evenodd" d="m1139.687 934.693 12.24 46.718h-148.183c-15.003 0-29.347-6.712-38.822-18.292l-.264-.395 104.228-40.796zm187.663-4.738 4.605 59.878h-99.884c-7.633 0-13.818-6.185-13.818-13.818 0-2.764.92-5.527 2.5-7.764l50.93-38.428z"/><path fill="none" d="m1432.893 812.04 13.686-41.717h-23.03z"/><path fill="#595e62" d="m1446.723 770.323 31.716-96.99h-109.755a11.514 11.514 0 0 0-11.58 11.58v73.829c0 6.448 5.132 11.58 11.58 11.58zm312.025-40.006c4.343-9.212 6.58-19.346 6.58-29.479v-4.342c0-12.766-10.396-23.162-23.162-23.162l-235.838.504-18.687 56.982z"/><path fill="none" d="m1506.59 673.07-18.688 57.247h270.702c4.343-9.212 6.58-19.346 6.58-29.61v-4.08c0-6.975-3.158-13.686-8.685-18.03l10.133-45.402h-.395l6.712-28.689 10.396-46.191h.263l6.317-26.32h-237.144z"/><path fill="#595f63" d="M1853.357 282.48c-1.448-.131-2.895-.263-4.343-.263l-52.509 222.932-6.317 26.978-6.185 26.188-10.923 46.06-6.711 28.69h26.32c.658 0 1.447 0 2.105-.133 11.844-.921 21.715-9.475 24.478-21.056l65.932-284.52c4.606-19.872-7.764-39.743-27.636-44.35-1.579-.131-2.895-.394-4.211-.526"/><path fill="#2e908b" d="m1587.918 192.202-54.492 16.056-13.94-16.056-23.951 13.423-35.664 332.16c56.72 9.739 124.757 31.19 183.188 76.723l23.284-381.246z"/><path fill="#a1dfdb" d="m1442.998 439.266-7.896-128.705c-.921-11.45-2.106-22.767-2.106-33.295 0-4.606.264-9.344.922-13.95.394-2.237.79-4.474 1.316-6.712l-57.347 158.102 47.74 42.326 3.027 2.632 12.896-12.897z"/><path fill="#032b28" d="M1425.524 533.18c-49.088-5.265-83.304-2.106-83.304-2.106v.658c48.956 5.658 93.305 28.688 75.407 145.682h104.491c25.136 8.29 71.064 12.502 91.989-8.423 20.924-20.924 29.347-54.35 29.347-54.35-58.3-45.534-126.468-66.853-183.188-76.723q-18.359-2.962-34.743-4.738z"/><path fill="#02201e" d="m1188.532 562.384-118.44 359.664 70.8 12.765c52.904-109.754 90.542-156.604 104.228-270.965l73.433 2.764 18.424-106.991z"/><path fill="#053634" d="m1342.74 531.468-1.184-.132-4.87 28.295-18.423 106.99-45.534 263.333 56.851 21.978c52.509-125.284 79.224-213.061 88.567-274.782 17.898-116.992-26.452-139.89-75.407-145.682"/><path fill="#032b28" fill-rule="evenodd" d="m1534.132 204.443 21.978 15.924-15.924 20.53 9.08 20.398-5.527 225.037-22.636 29.478-25.004-34.084 18.16-220.431 12.37-20.398-11.449-18.292z"/><path fill="#def5f3" d="M1666.343 233.262c-23.688-12.283-47.376-28.514-71.064-40.796l-30.268 144.76-39.48 388.222 184.24-52.64-61.852-114.493zm-260.391 298.275 22.372-193.3 1.138-37.705c2.632-33.054 2.632-60.558 28.952-76.482l50.008-27.636-21.056 102.648s-15.295 226.433-17.108 240.83c-19.74-3.949-40.796-6.58-64.306-8.355"/><path fill="#b6ede8" d="m1752.682 498.305-50.798-225.563c-8.817-29.084-27.11-42.375-49.876-40.928-36.453 5.396-39.875 53.167-37.77 74.223 6.054 61.852 35.928 129.1 44.482 147.129 43.428-4.474 80.276 5.527 93.962 45.139"/><path fill="#8a9097" d="M1756.367 678.335c5.528 4.342 8.818 11.054 8.818 18.029v4.343c0 10.264-2.238 20.398-6.58 29.61h-270.703l18.688-57.115 46.191-141.207h237.145l6.448-27.373h-262.938l-55.14 168.317-31.848 97.253-13.686 41.718-16.713 50.93-35.006 107.122h28.162l18.293-56.062 16.713-50.93 29.61-90.41h244.119l45.665 203.587h28.163l-45.666-203.586h3.027c22.24 0 40.27-18.03 40.27-40.27v-1.843h-16.318l22.307-97.567c-.658 0-1.74.15-2.398.15l-26.621.033z"/><path fill="#d0d4d8" d="m1507.51 474.09-45.928-24.477-29.347 11.318 5.527 7.501 19.214-2.5 5.133 5z"/><path fill="#0a4f4b" d="M1412.89 443.296h58.036v91.362l-58.147-2.801z"/><path fill="#d0d4d8" d="M1629.11 441.585c-42.508 6.317-87.778 20.925-121.6 32.506l-56.193-3.816 9.08 62.378c16.714 3.027 58.037-10.133 58.037-10.133s234.38-22.899 234.249-24.478c-.922-6.712-2.632-13.292-5.264-19.609-16.714-39.743-65.406-44.744-118.31-36.848z"/><path fill="#b2b9c1" d="m1451.317 470.275-50.008 16.713s-.79 12.239 13.16 26.715c13.423 13.818 44.218 18.424 46.06 19.082z"/><ellipse cx="1575.566" cy="328.197" fill="#2e3033" rx="16.45" ry="13.029" transform="rotate(-63.987 1575.566 328.197)"/><path fill="none" stroke="#101112" stroke-miterlimit="10" stroke-width="4" d="m1575.539 317.486 26.32-100.016c4.593-13.719.231-26.397-7.896-30.268-4.925-2.346-10.297-1.013-13.16 0"/><ellipse cx="1571.618" cy="325.565" fill="#43464a" rx="12.612" ry="9.989" transform="rotate(-63.987 1571.618 325.565)"/><path fill="none" stroke="#101112" stroke-miterlimit="10" stroke-width="4" d="m1478.154 246.422 10.528-30.268c3.125-9.411 10.528-19.74 21.056-23.688 3.344-1.254 5.168-2.285 8.105-2.918"/><path fill="none" stroke="#101112" stroke-miterlimit="10" stroke-width="4" d="M1438.674 325.382c-3.948-3.948-13.16-6.58 3.948-46.06 7.752-17.89 19.74-38.164 35.532-32.9 17.39 5.796 13.775 31.962 9.212 48.692-11.844 43.428-22.372 39.48-28.952 36.848"/><path fill="#b6ede8" fill-rule="evenodd" d="M1565.18 233.694s-23.161-17.503-31.057-29.216c-.527-.79 17.24-2.105 30.794-11.186 15.002-10.001 19.825-16.714 19.825-16.714l10.537 15.888-2.115 10.094c-7.371 8.064-21.513 23.256-27.984 31.134"/><path fill="#b6ede8" fill-rule="evenodd" d="M1534.132 204.443s-13.97-8.027-13.84-20.003-.017.013-.049.035l-.038.027-.108.078-.086.062-.152.112-.123.091a38 38 0 0 0-.792.601q-.139.107-.288.225l-.206.161-.352.283-.206.165-.488.401-.12.099q-.315.263-.65.55l-.197.17q-.243.21-.494.431l-.266.238-.46.414-.295.272a61 61 0 0 0-1.223 1.164 58 58 0 0 0-.787.787l-.323.331a51 51 0 0 0-.486.514q-.149.158-.296.317-.286.311-.568.631l-.186.207-.025.029-.301.353q-.204.236-.406.477-.153.186-.302.373-.197.239-.39.484-.15.195-.3.392-.186.242-.368.487-.15.203-.294.41-.15.206-.297.414l.002.003c-2.157 3.12-3.74 6.588-3.74 10.058 0 10.923 5.528 27.373 5.528 27.373l13.167-16.15z"/><path fill="#979ea4" d="m1190.042 228.002 79.854 205.472 140.087 1.048-80.083-206.52z"/><path fill="#fff" d="M1306.172 273.767h-59.1l-9.574-23.045h59.1z"/><path fill="#d0d4d8" fill-rule="evenodd" d="m1229.57 334.2 57.773 1.973c1.579 11.844-5.649 28.802-16.319 35.664l-37.111 24.214z"/></svg>