<svg xmlns="http://www.w3.org/2000/svg" viewBox="0 0 375.304 1000.564"><path fill="none" d="M230.289 100.248h.06c.7-1.3 1.7-2.9 2.8-4.6.288-.447.59-.9.9-1.349-.309.44-.612.881-.9 1.318-1.087 1.676-2.071 3.251-2.86 4.631m13.485-15.105-.038-.023a10 10 0 0 0-2.369 1.246 9.2 9.2 0 0 1 2.482-1.214 4.8 4.8 0 0 1 1.964-.243 4.8 4.8 0 0 0-2.039.234"/><path fill="#66b8b2" d="M209.5 531.554c-6.986-25.4-13.88-47.759-19.8-62.2-11.968-29.188-12.2-70.96-12.2-73.2h-28.9l-10.4 20.4c-.7 4.5-5 48.1-4.9 52.6l8.1 232.7 1.9 99.2h96.9c-2.4-42.5-11.8-75.6-23.6-127.6-4.863-21.256-3.327-47.128.65-75.2h-7.75z"/><path fill="#8a9097" d="M185.9 956.7v-.051h-17.1l-.468.161L84 985.952l.2.3a36.08 36.08 0 0 0 28 13.2h82.5l-8.8-42.3zm185.6 27.752-37.5-27.8h-.424l-16.132.181-1.744.019-3.3 43.3h50.9a10.03 10.03 0 0 0 10-10 11.6 11.6 0 0 0-1.8-5.7"/><g fill="#053634"><path d="M195.157 267.27c-3.865-1.624-9.24-4.645-10.244-9.164-1.6-7.2-1.4-20.9-1.4-20.9l23.593.06c18.922-27.267 53.874-54.2 54.685-54.826l-6.891-2.288-5.5-13.4H195l-4.9 13.4-18.7 7.7-2.616 1.09-.984.41s-8.719 22.186-30.877 56.3l-.323.5-.7 1c-10.1 13.2-14.4 27-8.1 54 2.1 8.9 4.2 18.4 6.3 27.7l.061.273c4.376 19.6 8.452 38.686 11.239 51.427l.027.132a2263 2263 0 0 0 3.273 15.468h59.546l-.016-.1c-3.739-24.596-14.371-97.97-13.073-128.782"/><path d="M280.581 188.667c-.553.424-28.177 21.637-47.03 47.029l5.964 24.44a13 13 0 0 0 2.376 2.557c7.185 3.562 15.129 7.353 23.452 11.366l6.431-28.237c-1.411-15.6.358-37.436 12.722-55.859v-.011c-.271-.084-1.756-.572-3.915-1.285m-23.073 119.791c-18.049-14.926-31.117-25.765-31.117-25.765l-10.243-5.272c-1.217 27.6 7.7 87.013 12.887 118.632l.016.1h8.549-.065l.022-.1zm-29.037-63.599-.185-1.574-.433.68z"/></g><path fill="#02201e" d="M281.263 281.83a148 148 0 0 1-8.167-26.667 90 90 0 0 1-1.316-9.285l-.006-.056-6.431 28.237c.008 0 .016.008.024.012a1579 1579 0 0 1 15.896 7.759m3.237-91.878v.011h.025zm-26.992 118.506-19.951 87.595-.022.1h.065l25.42-.1h.08l18.914-67.35a27542 27542 0 0 1-24.474-20.219z"/><path fill="#1a1c1d" d="m151.7 801.152 16.632 155.661.468-.161h17.1v.051c11.474-43.12 26.385-92.217 23.9-155.551zm56.41-650.731a76 76 0 0 0 7.833-6.947 47.4 47.4 0 0 1-15 1.3l-.008.078c-.4 3.479-.689 7.228-1.086 10.9l.8-.1a80 80 0 0 0 7.461-5.231"/><path fill="#e0e2e5" d="m247.793 104.685-.493-.333q-.028.05-.056.1c.173.113.331.219.5.329z"/><path fill="#a4abb3" d="m188.176 22.173-.017-.07c-.293-1.252-.488-1.929-.488-1.929s-2.794 2.707-9.478 9.922a18.4 18.4 0 0 0-1.688 2.194l-.007.009c-4.649 7.008-5.2 17.31-5.252 18.742v.17l.029-.015.17-.086c.4-.2.9-.4 1.6-.8a11 11 0 0 1 1.1-.6c.743-.373 1.661-.923 2.668-1.561l.075-.048c.052-.034.1-.064.153-.1a31.6 31.6 0 0 0 5.848-4.958c.074-.08.152-.155.225-.235.037-.041.079-.079.116-.121a27.7 27.7 0 0 0 4.086-6.009c2.284-4.808 1.467-11.306.86-14.505"/><path fill="#b6ede8" d="M247.743 104.781c-.168-.11-.326-.216-.5-.329a84 84 0 0 1-7.544 11.6l3 16.8q.061-.099.123-.2a148 148 0 0 0 8.577-15.4l.141-.308a13.8 13.8 0 0 0-2.715-2.8l1.425-1.725a10.2 10.2 0 0 1 2.3 2.316c.845-1.8 1.516-3.6 2.179-5.306l-.13-.081c-1.329-.848-3.629-2.438-6.856-4.567m2.099-96.495A45.005 45.005 0 0 0 188.159 22.1l.017.07c.607 3.2 1.422 9.7-.868 14.5a27.7 27.7 0 0 1-4.086 6.009c-.037.042-.079.08-.116.121 39.174 7.265 75.583 12.081 80.868 27.039.027.072.047.146.073.219s.068.147.095.223a44.92 44.92 0 0 0-14.3-61.995m-25.1 81.658a18.2 18.2 0 0 1-2.758-2.272c-.051-.064-.109-.126-.161-.19-7.341-9.026-21.181-17.35-32.7-23.506-2-1.6-4-3.2-5.7-4.7-2.8-2.4-9.5-6.4-11.6-7.7l-.5-.3-.034.075a15 15 0 0 0-.766 1.826l-.1.2c-11.2 7.5-21.5 26.4-3.1 44.8l5.7 4.5a169 169 0 0 1-2.8-26.5l1.9-2.8c.012.035.029.066.041.1 7.871 21.311 41.542 25.791 58.115 26.79l.01-.018c.789-1.38 1.773-2.955 2.854-4.627l.036-.056c-2.5-1.6-4.756-3.089-7.256-4.79 0-.001-.518-.353-1.181-.832"/><path fill="#8dd2cd" d="M237.6 396.152h-8.549c.486 2.96.94 5.679 1.349 8.1h38.823q-2.931-4.039-6.123-8.2h-.08zm-60 0h-.1c0 2.24.232 44.012 12.2 73.2 5.92 14.443 12.814 36.8 19.8 62.2v-127.3s-.477-2.984-1.254-8.1zm138.9 259.8c-5.3-11.8-7.2-28-6.6-47.9q.131-5 .247-9.8h-83.521c14.164 58.131 25.474 111.5 25.474 111.5l11.3 97.9h92.1c-9.4-56.7-16.5-101.5-39-151.7M185.145 141.809s-.48-1.17-1.08-2.67h-.014c-.136-.053-.261-.121-.394-.177a14.91 14.91 0 0 1-8.206-19.123 10.2 10.2 0 0 1 1.048-2.094q.125-.204.252-.406c-.3-.9-.5-1.8-.8-2.8a17.2 17.2 0 0 0 2.9 24.2 19 19 0 0 0 6.294 3.07m59.355.202q.756-.224 1.5-.52a16.964 16.964 0 0 0 8.962-23.054 20.8 20.8 0 0 0-2.22-3.455c-.059-.085-.123-.161-.184-.243a10.2 10.2 0 0 0-2.3-2.316l-1.425 1.725a13.8 13.8 0 0 1 2.715 2.8c.061.081.125.158.185.24a14.656 14.656 0 0 1-4.268 21.007 14.9 14.9 0 0 1-3.368 1.534 15.02 15.02 0 0 1-16.247-4.915 14.6 14.6 0 0 1 3.168-21.161 14.8 14.8 0 0 1 7.951-2.664l-.082-2.159a16.5 16.5 0 0 0-6.794 1.734 16.91 16.91 0 0 0-7.45 23.586 17.42 17.42 0 0 0 19.857 7.861"/><path fill="#c1c7cc" d="M264.047 70.063c-.026-.073-.046-.147-.073-.219-5.285-14.958-41.694-19.774-80.868-27.039-.073.08-.151.155-.225.235a31.6 31.6 0 0 1-5.848 4.96c-.052.033-.1.063-.153.1l.544.155c29.1 14.5 51.7 27.7 66.5 36.8-.063.019-.126.049-.188.07l.038.023a4.8 4.8 0 0 1 2.039-.234 4.96 4.96 0 0 1 3.461 1.935 8 8 0 0 1 1.519 2.582c.025.073.059.144.081.217l.123.08c7.715 4.941 11.5 7.029 11.6 7.029a70.3 70.3 0 0 1 1.674-19.408 12 12 0 0 0-.224-7.286M66.364 304.852l-24.7-69.5a6.59 6.59 0 0 0-6.2-4.4H32.2a6.59 6.59 0 0 1 6.2 4.4l24.7 69.5a5.4 5.4 0 0 1 .4 2.2c0 .048-.006.1-.007.143a6.587 6.587 0 0 1-6.361 6.445l3.032.011a6.514 6.514 0 0 0 6.5-5.471 7 7 0 0 0 .1-1.128 8.5 8.5 0 0 0-.4-2.2M34.6 313.553h-.036l.492.002-.429-.002z"/><path fill="#e0e2e5" d="m251 89.723-.123-.08c-.022-.073-.056-.144-.081-.217 1.1 4.317-.8 9.893-3.554 15.023q.028-.05.056-.1l.493.333-.05.1c3.227 2.129 5.527 3.716 6.857 4.571l.13.081 1.17.719c5.6-3.5 6.7-13.4 6.7-13.4-.098-.001-3.886-2.089-11.598-7.03m-29.177-2.241c.052.064.11.126.161.19a18.2 18.2 0 0 0 2.758 2.272c.663.479 1.181.831 1.181.831 2.5 1.7 4.756 3.19 7.256 4.79l-.036.056c.292-.437.595-.878.9-1.318a32.8 32.8 0 0 1 7.32-7.937 10 10 0 0 1 2.369-1.246c.062-.021.125-.051.188-.07-14.8-9.1-37.4-22.3-66.5-36.8l-.544-.155-.075.048c-1.007.638-1.925 1.188-2.668 1.561a11 11 0 0 0-1.1.6c-.7.4-1.2.6-1.6.8l-.17.086-.029.015v-.17c.053-1.432.6-11.734 5.252-18.742l.007-.009c-2.73-8.156-11.893-13.413-11.893-13.413s-2.077 10.105-.36 17.5c1.573 6.778 6.159 13.617 6.915 14.715l-.127.063a.1.1 0 0 0 .1.1l.165.1.034-.075.5.3c2.1 1.3 8.8 5.3 11.6 7.7 1.7 1.5 3.7 3.1 5.7 4.7 11.515 6.158 25.355 14.482 32.696 23.508M63.1 304.852l-24.7-69.5a6.59 6.59 0 0 0-6.2-4.4h-2.9l-22.7-.1a6.594 6.594 0 0 0-6.6 6.6 5.4 5.4 0 0 0 .4 2.2L11.184 270l32.666 1.135a33.25 33.25 0 0 1-5.593 22.179 21.7 21.7 0 0 1-5.207 5.22l-9.52 6.2 1.57 4.418a6.59 6.59 0 0 0 6.2 4.4h3.756l21.844.1c.078 0 .154-.009.232-.011a6.587 6.587 0 0 0 6.361-6.445c0-.048.007-.1.007-.143a5.4 5.4 0 0 0-.4-2.2zm288.1 81.1-23.2-18.8.8 37.1h-98.4c-.409-2.421-.863-5.14-1.349-8.1l-.016-.1c-5.19-31.619-14.1-91.029-12.887-118.632l-16.934-8.716a35 35 0 0 1-4.056-1.436c-1.3 30.812 9.334 104.186 13.073 128.783l.016.1c.777 5.116 1.254 8.1 1.254 8.1v194H351.1v-194l.1-18.3zM227.853 243.965l.433-.68a140 140 0 0 1 5.265-7.589c18.853-25.392 46.477-46.6 47.03-47.029l.019-.015-18.783-6.231-.026.019c-.811.623-35.763 27.559-54.685 54.826l16.175.041.01-.014.009.014h.013l-.007.008c.106.157 1.994 2.952 4.547 6.65"/><path fill="#43464a" d="m11.184 270-7.618-.265H3.55l7.4 43.2 12.58-8.2 9.52-6.2a21.7 21.7 0 0 0 5.207-5.22 33.25 33.25 0 0 0 5.593-22.179zm352.607 69.293c-.082-.11-.171-.221-.253-.332-14.422-19.375-42.085-36.4-70.1-50.953a756 756 0 0 0-12.051-6.115l-.128-.063a1539 1539 0 0 0-15.9-7.759c-.008 0-.016-.007-.024-.012-8.323-4.013-16.267-7.8-23.452-11.366a13 13 0 0 1-2.376-2.557l-5.964-24.44c-1.852 2.5-3.616 5.03-5.265 7.589l.185 1.574a900 900 0 0 1-5.165-7.544l-24.092 31.39 16.934 8.716 10.243 5.272s13.068 10.839 31.117 25.765l.032.026c7.493 6.2 15.841 13.1 24.474 20.219 37.669 31.083 80.684 66.4 81.077 65.891 15.408-20.301 12.908-38.701.708-55.301m-140.5-102-.01.014h.019z"/><path fill="#2e3033" d="M250.793 89.426a8 8 0 0 0-1.519-2.582 4.96 4.96 0 0 0-3.461-1.935 4.8 4.8 0 0 0-1.964.243 9.2 9.2 0 0 0-2.482 1.214 32.8 32.8 0 0 0-7.32 7.937q-.464.676-.9 1.349c-1.1 1.7-2.1 3.3-2.8 4.6h-.06l-.01.018c-16.573-1-50.244-5.479-58.115-26.79l-1.815 2.676a166 166 0 0 0 2.8 26.4c.6 3.2 1.4 6.6 2.3 10 .3 1 .5 2 .8 2.9s.5 1.9.8 2.7c2.1 7.4 4.5 14.6 7.3 21.7.6 1.5.9 2.2.9 2.2a27 27 0 0 0 3.6 1 62 62 0 0 0 12.086 1.8l.008-.078a47.4 47.4 0 0 0 15-1.3 76 76 0 0 1-7.833 6.947 81 81 0 0 1-7.461 5.231l-.8.1c-.441 3.773-.882 7.509-1.3 11h50.419c-1.762-9.734-3.691-20.4-4.473-24.741a17.42 17.42 0 0 1-19.862-7.865 16.91 16.91 0 0 1 7.45-23.586 16.5 16.5 0 0 1 6.794-1.734l.082 2.159a14.8 14.8 0 0 0-7.951 2.664 14.6 14.6 0 0 0-3.168 21.161 15.02 15.02 0 0 0 16.247 4.915l-.042-.233-1.1-6.14-.126-.7q-.061.1-.123.2l-3-16.8a84 84 0 0 0 7.544-11.6c2.756-5.137 4.662-10.713 3.555-15.03M139.349 219.552l-2.426 26.1c22.158-34.114 30.877-56.3 30.877-56.3l.984-.41-1.435.41a36.35 36.35 0 0 0-28 30.2m-5.188 109.573-67.5-20.944a6.514 6.514 0 0 1-6.5 5.471l-3.032-.011c-.078 0-.154.011-.232.011l-21.844-.1H31.3a6.59 6.59 0 0 1-6.2-4.4l-1.57-4.418-12.58 8.2-7.4-43.2h.016l-.117-.08 7.5 43.3 21.4 6c14.3 4 26.1 7.2 26.1 7.2s59.327 39.086 86.978 54.532l-.027-.132c-2.787-12.743-6.863-31.825-11.239-51.429M332.2 807.752h-54.8l38 149 2.044.081 16.132-.181C331.5 887.8 332 841.52 332.2 807.752m-12.8-588.789c-8.3-20.387-21.583-29.088-34.874-29h-.026c-12.364 18.423-14.133 40.26-12.722 55.859l.006.056a90 90 0 0 0 1.316 9.285 148 148 0 0 0 8.167 26.667l.128.063c4 1.987 8.029 4.026 12.051 6.115 28.011 14.549 55.674 31.578 70.1 50.953zm-96.119 18.344-16.175-.041-23.593-.06s-.2 13.7 1.4 20.9c1 4.519 6.379 7.54 10.244 9.164a35 35 0 0 0 4.056 1.436l24.092-31.39.007-.008h-.032z"/></svg>