<svg xmlns="http://www.w3.org/2000/svg" viewBox="0 0 382.327 999.113"><path fill="#003253" d="M39.8 954.313c7-226.7-13.972-213.635 39.628-308.835 6.6-11.7 7.4-28.8 6.8-49.3-3-114.3-22.4-154.5 27-218.8h87.6s.1 44.9-12.6 75.8c-8 19.5-17.7 52.9-27.1 89-19.2 73.8-37.3 158.7-37.3 158.7l-64.8 254.2z"/><path fill="#007bc0" d="m210.411 955.113 87.3 30.1-.2.3c-7.1 8.6-17.6 13.6-28.8 13.6h-84.9l9-44z"/><path fill="#00629a" d="M130.253 378.85h-32.9s-31-161.31-31.4-165.1-.4-7.5-.4-7.5v-4.2c0-.4 0-.8.1-1.1l.1-.9c0-.4.1-.8.1-1.1s.1-.6.1-.9.1-.7.1-1.1c.1-.4.1-.6.1-.9s.1-.7.2-1 .1-.6.2-.9.1-.7.2-1 .1-.6.2-.8c.1-.3.2-.7.3-1s.1-.5.2-.8.2-.7.3-1 .2-.5.2-.8.2-.7.4-1l.3-.7c.1-.4.3-.8.4-1.1.1-.2.2-.4.2-.6.2-.4.4-.9.6-1.3l.1-.3c.3-.5.6-1 .8-1.6l.3-.4c.2-.4.4-.8.7-1.1.1-.2.3-.4.4-.6s.4-.6.6-.9l.4-.6c.2-.3.4-.6.6-.8.2-.3.3-.4.5-.6s.4-.5.7-.8c.2-.301.4-.4.5-.601l.7-.7.6-.6.8-.7.6-.5c.3-.2.5-.4.8-.6l.7-.5.8-.6.7-.5.9-.6.8-.4c.3-.2.6-.4.9-.5l.8-.4 1-.5.8-.4c.3-.2.7-.3 1.1-.5l.8-.3 1.2-.4.3-.1z"/><path fill="#8a9097" d="M161.91 116.957c5 1.2 10.4 1.732 15.5 1.332.4 3.8.845 7.877 1.145 11.877-6-3.7-11.744-8.209-16.644-13.209"/><path fill="#a4abb3" d="M182.113 160.992h-58.3l9.9-54.5 3.1-17.3c-3.8-5-11.8-16.3-11.8-24.7-.1-2.3.6-4.6 2.2-6.3 6.5-7.1 15.6 6.7 19.7 14 17.1-1 52.137-5.937 60.137-28.037l1.964 3.037c-.3 9.2-1.2 18.3-2.9 27.3-.6 3.4-1.4 6.8-2.3 10.3-5.6 20.8-10.2 30.7-10.2 30.7-5.3 1.6-10.7 2.6-16.2 2.9-5.1.3-10.2-.1-15.2-1.3 4.9 5 10.5 9.4 16.5 13.1 1.6 15.9 3.4 30.8 3.4 30.8"/><path fill="#001d33" d="M93.828 180.778h122.3l-1.9-113.5c16-18.2 5.7-36.4-5.3-43.9l-.2-.2c-4.2-10.8-12.5-20-28.4-22.2-38.8-5.4-54.9 12-61.6 41.5-.8 2.7-1.4 5.5-1.8 8.3zm33.5-122.5c6.5-7.1 15.7 6.8 19.5 14.1 17.1-1.1 52.2-5.8 60.2-27.9l1.9 2.9c-.2 9.1-1.2 18.3-2.9 27.3-.6 3.3-1.4 6.8-2.3 10.3-5.6 20.7-10.114 30.546-10.114 30.546-5.2 1.6-10.788 2.548-16.288 2.848.4 3.8.801 8.006 1.201 12.006 1.9 15.8 3.7 30.7 3.7 30.7h-58.3l9.9-54.5 3.1-17.3c-3.8-5-11.7-16.3-11.8-24.7-.1-2.3.7-4.6 2.2-6.3m73.5 319.1s.1 44.9-12.6 75.9c-8 19.4-17.7 52.9-27.1 89 15.7 61.8 31.6 121.6 21.7 158.2-31.1 114.7 9.984 254.635 9.984 254.635h17.6l27.816-262.735 8.3-239.5c.1-4.7-4.4-49.5-5.1-54.2l-10.1-21.3s-91.3-.6-91.4 0z"/><path fill="#007bc0" d="m1.8 983.013 38-28.7h.9l18.4.8 3.4 44H10.3c-5.7 0-10.3-4.6-10.3-10.3 0-2.1.6-4.1 1.8-5.8"/><path fill="#8a9097" d="m326.228 283.878 52.8-35.8-7.7 44.6-22.1 6.2c-14.7 4.1-26.9 7.4-26.9 7.4s-61.2 40.3-89.7 56.2c2.8-13.2 6.09-32.927 10.59-53.127z"/><path fill="#00629a" d="M208.84 165.208c15.1 3.4 27.2 15.5 29.5 30.8l2.6 27.7c-23.1-35.5-32.1-58.5-32.1-58.5"/><path fill="#0096e8" d="m130.128 378.878-41.1-212.3v-.6c1.3-.4 30.5-10.1 30.5-10.1l5.6-13.8h56l5 13.8 19.3 7.9 3.7 1.5s9 23 32.1 58.5l.7 1.1c10.4 13.6 14.8 27.7 8.4 55.6-2.1 9.2-4.3 18.9-6.5 28.5-6.4 29-3.5 69.2-3.5 69.2z"/><path fill="#a4abb3" d="m314.193 283.965 25.6-72.1c.468-1.394 2.139-3.855 5.915-3.776l8.987.02c-2.9 0-10.602.956-11.602 3.656l-25.4 71.4c-1.3 3.5.6 7.4 4.1 8.7.7.3 1.5.4 2.3.4l23.1.8-26.6.1c-3.8 0-6.9-3-6.9-6.8.1-.8.2-1.6.5-2.4"/><path fill="#e0e2e5" d="m317.328 284.078 25.4-71.5c1-2.7 3.5-4.5 6.4-4.5h3l23.4-.1c3.8 0 6.8 3 6.8 6.8 0 .8-.1 1.5-.4 2.3l-25.4 71.5c-1 2.7-3.5 4.5-6.4 4.5h-3.4l-23 .1c-3.8 0-6.8-3-6.8-6.8 0-.8.1-1.5.4-2.3"/><path fill="#a4abb3" fill-rule="evenodd" d="m378.928 248.078-41.5 1.4c-1.2 8.5 2 21.9 11.2 28.2l22.7 14.9z"/><path fill="#a4abb3" d="m223.562 146.2 11.23 5.922 12.303 14.495-12.302 20.417-3.012-25.248z"/><path fill="#56b0ff" d="M152.291 316.944s-62.837-74.374-71.275-84.366-11.442-16.776-15.463-28.993c0-24.403 10.66-37.253 28.56-39.253 14.5 16.5 8.187 5.639 25.065 32.246 20.537 32.376 39.247 71.803 39.247 71.803-16.765 17.637-14.348 39.14-6.134 48.563"/><path fill="#d0d4d8" d="M189.904 99.604c2.14-.728 5.673-2.537 10.87-1.208 1.418.363 3.508 1.145 3.623 1.208 1.184.646 3.687 1.52 7.247 4.831-.488-.151-5.844-1.193-10.87 1.208a9.4 9.4 0 0 0-2.528 1.79c-1.597 1.695-2 3.7-2.303 5.457-.455 2.63-.96 6.3-1.208 10.87-4.238-4.693-3.624-7.137-3.624-9.662v-7.247c0-1.21-.956-5.464-1.207-6.04z"/><path fill="#b2b9c1" d="M265.995 182.942s-6.068-9.342-19.325-20.533c-9.963-8.41-24.156-14.493-35.026-20.532-8.215-4.564-15.768-14.472-16.91-18.117-.747-2.388-.2-5.819 0-7.247 1.55 2.962 9.082 11.406 16.91 16.91 1.616 1.136 4.704 3.624 7.247 4.83 4.647 2.206 6.686 1.91 15.7 7.247 18.003 10.658 26.039 25.701 28.988 31.403z"/><path fill="#007bc0" d="M194.735 116.513c1.17 2.369 4.254 7.316 9.662 12.078 8.74 7.696 15.54 10.799 22.312 13.804 25.12 11.145 36.87 34.508 36.87 34.508 0-4.831 1.488-9.709 0-10.87-.118-.86-20.35-27.337-26.571-28.987-3.84-3.772-19.325-8.455-24.156-9.663-9.663-3.623-16.955-15.731-16.91-15.701 0 0-.658 2.407-1.207 4.831"/><path fill="#eff1f2" d="M199.566 105.643c2.846-1.89 9.662-2.416 12.078-1.208 7.247 3.624 9.417 5.106 15.701 9.663 8.264 5.992 13.65 11.494 25.364 24.155a2048 2048 0 0 1 24.156 26.572c2.273 2.546 6.039 8.62 6.039 14.493 0 7.247-1.635 10.045-6.04 10.87-5.037.944-12.077-6.038-13.285-12.55-.512-2.759 1.208-9.19 0-11.605a158 158 0 0 0-12.078-14.494c-8.485-9.027-9.464-11.507-16.91-15.701-12.08-6.806-18.708-5.849-26.57-10.87-7.247-4.831-12.078-13.286-12.078-13.286s1.27-4.477 3.623-6.039"/><path fill="#8a9097" d="M262.322 138.524c28.17 21.754 16.376 45.678 16.376 45.678l-25.225-27.622z"/><path fill="#c1c7cc" d="m238.735 179.874 14.726-23.35 25.225 27.62-20.88 14.09z"/><path fill="#007bc0" stroke="#429bd6" stroke-linecap="round" stroke-linejoin="round" d="M240.266 129.836c-4.539-4.734-6.236-6.384-10.779-9.808"/><path fill="#a4abb3" d="M153.069 317.436c-14.962-15.243-19.051-30.09-14.148-43.758 10.216-28.697 92.185-81.708 92.185-81.708l22.355-35.447 25.225 27.622-20.88 14.089z"/></svg>