<svg xmlns="http://www.w3.org/2000/svg" viewBox="0 0 415 749"><g fill="none" fill-rule="evenodd"><path fill="#D1E4FF" fill-rule="nonzero" d="M273.35 46.58c-1.47-1.18-2.94-2.35-4.19-3.45a87 87 0 0 0-8.53-5.66l-.36-.22q-.34.676-.59 1.39l-.07.15c-8.24 5.51-15.81 19.4-2.28 32.92l4.564 3.58c-1.199-6.426-2.042-12.976-2.214-19.51l.95-1.89c5.74 15.73 30.76 18.6 42.96 19.36.59-1 1.33-2.2 2.13-3.45-1.83-1.18-3.49-2.27-5.33-3.52A22 22 0 0 1 297.5 64c-5.37-6.69-15.63-12.86-24.15-17.42"/><path fill="#9DC9FF" fill-rule="nonzero" d="M269.692 101.806c-5.644-2.188-8.459-8.525-6.3-14.18a8.4 8.4 0 0 1 .95-1.83c-.22-.67-.37-1.33-.59-2.06a12.64 12.64 0 0 0 2.13 17.78 13.9 13.9 0 0 0 4.63 2.26l-.79-2z"/><path fill="#232628" fill-rule="nonzero" d="M293.06 105c-3.838.609-7.261 1-11 1-.29 2.57-.55 5.31-.84 8.03l.52-.04c4.059-1.91 7.99-4.46 11.35-9zm-79.48 169.17c-.26-.17-8.66 1.1-3.37 4.36l-87.49 54-8.25-3.42-23.8.27 10.13 4.83 10.51 14.86h7.44c8.41 0 90.52-36.79 99-43.84 9.85-8.18 9.47-24.59-4.17-31.06"/><path fill="#D1E4FF" fill-rule="nonzero" d="M258.15 139.64c-12.62 4.9-18.39 10.26-20.81 22.67l-38 116.75 1-.12c13.13-1.63 22.07 10 21.7 21.2.61-1 22.87-41.59 28.1-57.39 16.24-52.1 31.61-104.44 31.61-104.44z"/><path fill="#E0E2E5" fill-rule="nonzero" d="M.22 349.09h193.37v14.92H.22z"/><path fill="#C1C7CC" fill-rule="nonzero" d="M71.89 341.78a3.67 3.67 0 0 0-3 4.27 3.91 3.91 0 0 0 4 3h61.2v-14.3zm102.85-1.05-9.82 1.91a3.58 3.58 0 0 0-2.76 4.18c0 .11.05.21.08.32l.46 1.93h15.36s.9-4.88.9-4.9a3.58 3.58 0 0 0-3.64-3.52 4 4 0 0 0-.58.08"/><path fill="#2E3033" fill-rule="nonzero" d="m97.39 343.72 17.08-14.59-23.8.27s-22.45 14.32 6.72 14.32"/><path fill="#C1C7CC" fill-rule="nonzero" d="m144.44 349.15-2.05-3.28 12.77-7.97 2.55 2.96z"/><path fill="#C1C7CC" fill-rule="nonzero" d="m151.47 349.09-1.65-3.49 13.88-6.56 2.18 3.25z"/><path fill="#8A9097" fill-rule="nonzero" d="M15.66 329.37a17.22 17.22 0 0 1 16.55-12H30.5c-5.67-.027-10.258-4.62-10.28-10.29h3.44a10.34 10.34 0 0 1 10 7.38c1.57-3.82 4.79-7.36 10.75-7.36v3.44c-5.56 0-7.53 4.3-8.23 7.32a17.2 17.2 0 0 1 5.66 31.23H22.73a17.22 17.22 0 0 1-7.07-19.72"/><path fill="#56B0FF" fill-rule="nonzero" d="M294.88 175.64c2.28-17.71-2.57-31.82-19.47-36.52.44-3.16.73-4.93.73-4.93l-39.53 58.45 1.83 6.25c-5.29 10.07-9 17.34-9 17.34l-18.22 152.46 88 4.34z"/><path fill="#A4ABB3" fill-rule="nonzero" d="M296.61 414.64c-6.83-26.31-13.89-50.71-19.77-64.89-9.26-22.49-9.18-55.19-9.18-55.19h-22.2l-7.13 15.08-.22.44c-.29 1.91-1.47 13.59-2.42 23.73-.74 7.5-1.25 14.26-1.25 15.73l5 142.94 1.1 31.53 3.6 34.54 9.85 94.73h41.67c5.29-33.81-1.33-73.64-14.78-123.39-7.27-26.68 4.34-70.25 15.73-115.25"/><path fill="#C1C7CC" fill-rule="nonzero" d="M383.37 653.81c-.36-67.09 2.28-91.12-5.07-116.26-.59-2.13-1.32-4.19-2.06-6.39-.66-1.77-1.32-3.6-2-5.44l-.22-1.1s-1.84-3.75-2.8-5.74v-.07l-.44-1.1v-.07c-.73-1.62-1.54-3.24-2.35-4.86l-.59-1.17-.07-.15-.59-1.17a.3.3 0 0 1-.07-.15c-.88-1.69-1.77-3.45-2.72-5.22l-.07-.15-.59-1.17-.15-.3-.59-1.1c-.07-.07-.07-.22-.14-.29l-.59-1.18-.15-.22-1.54-2.79-.15-.29c-.22-.37-.37-.74-.59-1.11l-.29-.58-.44-.89-.37-.66-.44-.81-.37-.73-.44-.74-.44-.73-.29-.59-.52-.88a22 22 0 0 1-1.17-2.35c-3.68-8.38-4.19-20-3.83-33.51 1.47-59.53 9.19-91.5.23-121.93-3.53-12.12-9.71-24-20-37.55h-63.83c0 .15-.08 32.85 9.18 55.34 5.81 14.18 12.86 38.51 19.77 64.82 3.46 13.08 6.76 26.6 9.92 39.68 9.7 40.5 17.27 75.92 17.27 75.92l19.45 122.36 11.91.59 28.29.73z"/><path fill="#2E3033" fill-rule="nonzero" d="M281.22 114.03c-1.32 11.32-2.65 22.19-2.65 22.19h41.31s-5.89-32.49-6.1-33.73l-.89-4.92-2.2-12.28a72 72 0 0 0 5.59-8.45c2.13-4 3.6-8.23 2.49-11.46a5.8 5.8 0 0 0-1.17-2.06 3.68 3.68 0 0 0-4-1.18c-2.8.81-5.74 4.41-7.87 7.72-.81 1.25-1.54 2.43-2.06 3.38-12.12-.73-37-4.11-42.69-19.77l-1.4 2.06a122 122 0 0 0 2.06 19.4c.44 2.35 1 4.85 1.69 7.35.22.74.37 1.47.59 2.13s.36 1.4.58 2c1.55 5.43 3.31 10.73 5.37 15.94.44 1.11.66 1.62.66 1.62a19 19 0 0 0 2.65.73 45.5 45.5 0 0 0 8.89 1.33c3.68.218 7.37-.12 10.95-1a61.6 61.6 0 0 1-11.17 8.89l-.59.08z"/><path d="M320.88 91.76a11.15 11.15 0 0 0-1.76-6 111 111 0 0 1-6.4 11.47l.88 4.92a11 11 0 0 0 7.28-10.39m-51.52 10.29c-2.06-5.29-3.89-10.58-5.44-16.1-3.202 5.156-1.622 11.931 3.53 15.14a9.2 9.2 0 0 0 1.91 1z"/><path fill="#D1E4FF" fill-rule="nonzero" d="M312.72 97.23a112 112 0 0 0 6.4-11.5l.8-1.76c.67-1.4 1.18-2.79 1.69-4.11-1.1-.67-3-1.92-5.51-3.61a61.5 61.5 0 0 1-5.58 8.6z"/><path fill="#E0E2E5" fill-rule="nonzero" d="M318.53 64.79c1.1 3.23-.34 7.57-2.47 11.54 2.57 1.69 4.38 2.94 5.41 3.6l.95.59c4.12-2.58 4.93-9.85 4.93-9.85s-3.02-2.21-8.82-5.88"/><path fill="#D1E4FF" fill-rule="nonzero" d="M271.75 26.82a20.2 20.2 0 0 1-3 4.41c29 5.36 55.78 8.89 59.75 20a33.065 33.065 0 1 0-56.07-35.06c.42 2.47 1.01 7.12-.68 10.65"/><path fill="#C1C7CC" fill-rule="nonzero" d="M268.68 30.98a25.2 25.2 0 0 1-4.55 3.89l.51.22c21.39 10.73 38.07 20.43 48.87 27.05a3.58 3.58 0 0 1 4 1.25 5.6 5.6 0 0 1 1.18 2c5.73 3.68 8.54 5.23 8.62 5.23a51.4 51.4 0 0 1 1.23-14.26 8.9 8.9 0 0 0-.22-5.52c-3.9-11-30.8-14.55-59.68-19.91z"/><path fill="#E0E2E5" fill-rule="nonzero" d="M264.22 34.88a14 14 0 0 1-2.14 1.25c-.29.14-.51.29-.8.44-.52.22-.89.44-1.11.51l-.14.08a.07.07 0 0 0 .07.07l.37.22c1.54 1 6.46 3.89 8.52 5.66 1.33 1.1 2.72 2.28 4.19 3.45 8.53 4.56 18.67 10.88 24 17.57 0 0 6.69 4.55 8.45 5.73 2.21-3.31 5.15-6.91 7.94-7.79-10.88-6.69-27.48-16.39-48.87-27l-.51-.14z"/><path fill="#E0E2E5" fill-rule="nonzero" d="M255.32 13.43s-1.52 7.43-.26 12.86 5.16 10.94 5.16 10.94.2-8.37 3.86-13.89c-2-6-8.77-9.91-8.77-9.91z"/><path fill="#A4ABB3" fill-rule="nonzero" d="M261.53 36.54a8 8 0 0 1 .8-.45 22 22 0 0 0 2.13-1.25 23 23 0 0 0 4.55-3.91 20 20 0 0 0 3-4.41c1.69-3.53 1.09-8.31.64-10.66-.22-1-.37-1.47-.37-1.47s-2.05 2-7 7.29a14 14 0 0 0-1.25 1.62c-3.66 5.52-3.86 13.83-3.86 13.9l.14-.07c.34-.15.7-.3 1.22-.59"/><path fill="#9DC9FF" fill-rule="nonzero" d="m318.27 82.18-1.05 1.27a10.5 10.5 0 0 1 2.14 2.19 10.78 10.78 0 0 1-3.14 15.48 11 11 0 0 1-14.42-2.48 10.85 10.85 0 0 1 8.18-17.51l-.07-1.59a12.1 12.1 0 0 0-5 1.28 12.42 12.42 0 0 0-5.47 17.33 12.8 12.8 0 0 0 15.69 5.4 12.47 12.47 0 0 0 6.6-16.91 15.5 15.5 0 0 0-1.63-2.54 7.5 7.5 0 0 0-1.83-1.92"/><path fill="#004975" fill-rule="nonzero" d="M345.6 140.19c-1-.3-22.19-7.35-22.19-7.35l-4.12-10.07H278.5l-3.67 10-16.68 6.87s-6.69 17.12-23.89 43.36c-7.57 9.85-10.73 20.21-6.1 40.42 7.2 31.16 17.2 71.21 17.2 71.21l86.06-.07 14.18-154.33z"/><path d="M260.57 715.55c-.15 0 .07-.08 0-.08z"/><path fill="#2E3033" fill-rule="nonzero" d="m238.01 310.25.22-.45zm22.63 404.85c.08 0-.14.08 0 .08h12.87l.07.37c.14-.145.24-.324.29-.52 5-18.74 10.73-38.88 14.33-61.73h-34.32zm123.76-.07c-.73-24-1-44.31-1.17-61.73l-28.3-.15 15.8 62.1h.3z"/><path fill="#007BC0" fill-rule="nonzero" d="m260.72 715.21-63.5 22 .15.22a27.16 27.16 0 0 0 20.95 9.85h61.8l-6.54-31.67-.07-.37zm151.74 20.43-27.71-20.87h-.66l-13.45.14-2.5 32.41h38.14a7.53 7.53 0 0 0 7.5-7.49 7.27 7.27 0 0 0-1.32-4.19"/><path fill="#9DC9FF" d="M309.85 373.2h81.5l-25.94-197.47c2.35-18.08-2.8-32.41-20.51-36.82-4.77-1.17-11.91-2.88-11.91-2.88s-12 36-14.69 73c-3.16 41-8.45 164.18-8.45 164.18z"/><path fill="#D1E4FF" fill-rule="nonzero" d="M314.22 278.4s36.72-69.85 48.34-93.77c6.79-14 5.1-37.86-12.7-44-12.42 1.9-27.73 29.07-32.93 39.76-10.32 21.24-30.24 67.49-32 75.13 6.12 28 29.29 22.88 29.29 22.88"/><path fill="#8A9097" fill-rule="nonzero" d="M255.72 258.42c-16.5 4.22-31.32 12.83-48.9 19.62l-31.46-5.91 24 19.4.61.25a35.2 35.2 0 0 0 18.4 2.4c29.63-4.07 96-15.11 95.92-15.78a37.6 37.6 0 0 0-3.19-10.24c-9.7-20.7-36.49-14.52-55.38-9.74"/><path fill="#E0E2E5" fill-rule="nonzero" d="M150.05 251.85c-13-10.51-30.25-10.36-30.25-10.36s2 11.13 20.08 25.67 25.52 18.21 25.52 18.21l10-13.24s-12.33-9.77-25.35-20.28"/><path fill="#E0E2E5" fill-rule="nonzero" d="m175.52 272.39-6.53 8.1 31.62 25.61a2.08 2.08 0 0 0 2.94-.31l3.9-4.84a2.08 2.08 0 0 0-.31-2.94z"/><path fill="#2E3033" fill-rule="nonzero" d="M160.67 291.64c3.56 2.77 8.48 6.56 15.83 6.67 9.42.15 22.83-6.79 22.83-6.79l-24-19.4z"/><path fill="#56B0FF" fill-rule="nonzero" d="M258.15 139.64c-12.156 2.642-20.84 13.38-20.88 25.82l-.33 13.39c15.21-23.92 21.21-39.21 21.21-39.21"/></g></svg>