<svg xmlns="http://www.w3.org/2000/svg" data-name="Ebene 1" viewBox="0 0 376.219 967.09"><path fill="#a4abb3" d="M15.498 278.227v8.579l-8.4-1.901.021-.116z"/><path fill="#e0e2e5" d="M170.056 923.707s-.568-.094 0 0l8.139 5.814 19.426-1.712s-.026-49.598 4.233-72.014l-36.177.537 4.38 67.375z"/><path fill="#43464a" d="M196.434 141.706c-.21 1.9-.42 3.99-.63 5.996-18.007.21-37.915-4.211-37.915-4.211 3.034-4.483 8.022-24.097 11.088-36.53 5.785 21.4 10.605 31.69 10.605 31.69a69.4 69.4 0 0 0 16.747 3.045c.032 0 .074.01.105.01"/><path fill="#c1c7cc" d="M212.552 140.226c-5.271 5.47-11.162 10.31-17.588 14.311.21-2.31.515-4.526.84-6.835.21-2.006.42-4.095.63-5.996 5.45.399 10.878-.126 16.118-1.48"/><path fill="#43464a" d="M269.115 145.276s-6.531 1.69-22.333 0l-2.415-.21c-.063-.01-.126-.01-.19-.021-8.788-.83-17.723-1.449-17.723-1.449 5.48-8.316 8.851-17.797 9.796-27.688.042-.767.105-1.575.105-2.321 2.95-3.465 20.118-25.053 11.802-34.104-6.216-6.846-13.167 2.636-16.747 8.841-1.796-8.631-2.531-17.367-1.901-26.208 0 0-6.531 1.05-12.957-5.365 0 0-12.841 14.101-29.914 14.101-8.001 0-15.792 2.32-22.533 6.426.21 3.36.63 7.256 1.26 11.466.01.042.01.074.02.116l-6.447-6.531c-.21-.315-21.272-18.218 4.432-35.27.955-.63 1.995-1.26 2.94-1.785.147-.063.703-.304 1.606-.64 2.342-.861 7.045-2.405 13.272-3.486a91 91 0 0 1 2.993-.462c.451-.063.903-.116 1.354-.168q.428-.047.872-.095c.399-.052.798-.084 1.207-.126l1.103-.094a92 92 0 0 1 1.753-.116c.357-.021.714-.042 1.071-.052.357-.021.725-.032 1.082-.042a73 73 0 0 1 5.219.031h.03a77 77 0 0 1 3.056.19c.473.041.945.083 1.418.136.136.01.262.02.388.042.315.02.63.063.945.105h.021c.284.031.578.073.85.115 1.219.158 2.458.357 3.707.599.515.094 1.04.199 1.554.315.179.031.347.063.525.105.567.126 1.124.262 1.69.409q1.89.472 3.812 1.071a61 61 0 0 1 5.145 1.848c26.439 10.836 43.397 41.58 43.397 41.58.945 8.211 1.47 16.422 1.47 24.633 0 21.368 3.265 34.104 3.265 34.104"/><path fill="#e0e2e5" d="M329.125 925.255c-3.706-.924-8.21-.91-12.957.098-1.722 1.06-2.714 4.233-6.368 6.637-.236.215-2.392.919-2.392.919l-17.913-68.204 34.078-.335c.283 17.367 4.891 39.15 5.552 60.885"/><path fill="#2f3134" d="M214.35 861.565h-51.48l-19.31-182.35-7.76-222.55c-.1-4.35 4.07-45.97 4.73-50.32l9.78-21.328 30.08.537c0 .42 8.243 54.346 15.453 71.796 7.38 18.17 24.076 70.674 19.447 82.735-.01.04-.02.1-.03.14-14.47 57.17-29.1 112.54-20.22 146.46 22.9 87.58 24.61 104.13 19.31 174.88"/><path fill="#56b0ff" d="M167.916 44.634c2.331-.893 7.035-2.436 13.272-3.486-6.226 1.081-10.93 2.624-13.272 3.486"/><path fill="#86d7a2" d="m266.795 52.855-2.415 33.684s-16.958-30.744-43.397-41.58a61 61 0 0 0-5.145-1.848 52 52 0 0 0-3.811-1.071 33 33 0 0 0-1.691-.41 9 9 0 0 0-.525-.104 21 21 0 0 0-1.554-.316 53 53 0 0 0-3.707-.598 13 13 0 0 0-.85-.115h-.021c-.315-.042-.63-.085-.945-.105a4 4 0 0 0-.388-.042 32 32 0 0 0-1.418-.137 77 77 0 0 0-3.055-.189h-.032a73 73 0 0 0-6.3.01c-.357.011-.714.032-1.071.053-.588.032-1.176.074-1.753.116l-1.103.094c-.41.042-.808.074-1.207.126q-.444.047-.872.095c-.462.052-.913.115-1.354.168a94 94 0 0 0-2.993.461c-6.227 1.082-10.93 2.626-13.272 3.487-.903.336-1.46.577-1.607.64h-.104l18.438-23.793 12.747-4.21s15.162-12.002 19.057-13.787C226.454-1.262 240.146.219 240.146.219s12.852 8.526 17.073 17.052c4.315 8.525 4.315 22.312 4.315 22.312l5.26 13.272z"/><path fill="#dfe1e4" d="m244.18 145.045 4.18 23.06h-54.51l-.73 2.01c.55-4.69 1.18-10.09 1.84-15.58 6.43-4 12.32-8.84 17.59-14.31a49.6 49.6 0 0 1-16.12 1.48c-.03 0-.07-.01-.1-.01a69.2 69.2 0 0 1-16.75-3.04s-4.82-10.29-10.6-31.69v-.01c-.01-.04-.02-.07-.03-.1v-.21c-1.57-5.86-2.73-11.81-3.56-17.77v-.02c-.01-.04-.01-.07-.02-.11-.63-4.21-1.05-8.11-1.26-11.47 6.74-4.1 14.53-6.42 22.53-6.42 17.07 0 29.91-14.1 29.91-14.1 6.43 6.41 12.96 5.36 12.96 5.36-.63 8.84.1 17.58 1.9 26.21 3.58-6.21 10.53-15.69 16.75-8.84 8.31 9.05-8.85 30.64-11.8 34.1 0 .75-.11 1.59-.11 2.32-.94 9.89-4.31 19.38-9.8 27.69 0 0 8.94.62 17.73 1.45"/><path fill="#43464a" d="M326.2 865.925h-53.37l-23.09-178.95s-16.71-78.42-34.48-146.75c-.02-.08-.04-.16-.06-.23-8.8-33.68-17.79-64.88-25.26-83.05-7.09-17.18-9.91-39.05-11-53.8-.02-.24-.04-.48-.05-.71-.02-.23-.12-1.63-.15-2.09-.01-.03-.5-10.68-.5-10.84-.03-1.32-.04-4.772-.04-5.192l64.9-.17h19.177l.422 3.172c5.29 6.88 9.68 13.47 13.31 19.88l-15.99 9.44 18.17 31.13s4.61-8.59 8.6-15.48c11.65 39.46-.22 79.89-2.23 157.46-.47 19.01 0 35.09 6.34 45.78 36.34 61.66 25.75 89.28 35.3 230.4z"/><path fill="#5ebd82" d="M170.14 189.575c-.25.66 1.159 18.454-29.61 53.95l2.33-25.4c2.08-14.17 13.31-25.32 27.28-28.55m-28.38 170.59c-31.77-9.86-70.787-38.281-106.347-64.571l2.546.001h15.11v-26.27c11.98 5.38 47.44 21.36 81.2 36.69 4.23 2.234 5.03 5.281 6.26 10.801 2.65 11.9 7.733 22.515 1.23 43.349z"/><path fill="#37a264" d="m292.32 289.345-18.77 97.97h-30.525l.07-.632 27.703-146.838h1.012c1.44 7.67 3.81 15.17 6.9 21.82 4.69 10.16 9.2 19.36 13.61 27.68"/><path fill="#86d7a2" d="M271.61 238.725c.06.38.13.76.2 1.12l-28.62 147.02-.09.45-64.9-.47-28.33-.21-8.68-.06s.85-11.54.57-26.41c-.21-11.81-1.14-25.72-3.79-37.62-1.23-5.52-2.47-11.07-3.7-16.53-.75-3.33-1.5-6.63-2.25-9.85-5.97-25.73-1.81-38.88 7.76-51.45l.66-1.04c.03-.06.06-.1.09-.15 20.9-32.22 29.36-53.29 29.61-53.95l.01-.01 3.41-1.42 15.65-7.27 3.91-10.75v-.01l.73-2.01h55.9l5.2 12.77s25.38 8.29 26.61 8.67c-10.96 10.16-13.34 30.06-9.95 49.18"/><path fill="none" d="M170.056 923.234v.19c-.568-.095 0-.19 0-.19"/><path fill="#007a42" d="m197.621 927.81 6.384 26.519-1 12.712h-85.918c-8.614-.067-16.954-.745-24.794-2.54-1.737-4.93-3.158-9.669-1.345-12.579l30.535-7.502 48.573-20.997 8.139 6.098zm167.695 36.508c-6.394 2.72-12.747 2.772-18.05 2.772l-41.916-.053c-.734-3.675-1.291-11.487-.787-14.09 1.176-8.369-.263-10.742 2.814-20.213a7.2 7.2 0 0 0 1.743-.809c.01-.01.021-.02.032-.02 3.654-2.405 4.231-7.613 5.953-8.673 4.746-1.008 10.252-.67 13.958.255 4.116 1.627 6.297 8.512 12.513 12.723l23.793 14.216c1.134 1.607.042 12.002-.053 13.892"/><path fill="#5ebd82" d="M376.22 327.055c-5.31-6.66-36.782 2.167-57.32 3.72-8.78-10.61-17.45-24.16-26.58-41.43-4.41-8.32-8.92-17.52-13.61-27.68-3.09-6.65-5.46-14.15-6.9-21.82-.07-.36-.14-.74-.2-1.12-3.39-19.12-1.01-39.02 9.95-49.18 13.87 4.03 20.17 7.49 29.29 26.42z"/><path fill="#2f3134" d="M53.067 234.568v61.026H15.498v-17.367l12.222-9.587c2.016-1.092 3.79-2.667 5.303-4.546 4.378-5.439 6.52-13.377 5.68-19.288l-23.205-.798v-9.44z"/><path fill="#e0e2e5" fill-rule="evenodd" d="M33.023 264.094c-1.512 1.88-3.287 3.455-5.303 4.546l-12.222 9.587-8.379 6.562-.021.021L0 243.483l15.498.525 23.205.798c.84 5.911-1.302 13.849-5.68 19.288"/><path fill="#c1c7cc" d="M291.175 425.174c-1.081 1.523-2.677 4.159-4.388 7.109-3.99 6.888-8.6 15.477-8.6 15.477l-18.165-31.122 15.992-9.44 1.69-.997z"/><path fill="#37a264" d="M376.215 327.052 299.324 437.05l-6.038-8.904-2.11-2.972-13.472-18.973-1.018-1.439c16.044-20.065 26.911-55.544 41.958-73.71.084-.094.168-.189.252-.272 15.498-16.643 23.94-21.61 42.577-15.026 4.914 2.678 9.44 4.641 14.742 11.298"/></svg>