<svg xmlns="http://www.w3.org/2000/svg" viewBox="0 0 428.2 999.9"><switch><g><path fill="#111f32" d="m415 250.1 5.7 31.2-34.1 7.7-8.9-23.1z"/><path fill="#111f32" d="m376.6 262.8 1.2 3 8.9 23.2 2 5.2c-68.8 50.9-143 104-178.4 44.6-.7-.9 166.3-76 166.3-76"/><path fill="#67a9dd" d="M231.5 131.7c-5.2 1.6-10.5 2.6-15.9 2.9l.6 5.7c17.1.2 36-4 36-4-2.9-4.3-7.7-23.2-10.6-35v.2c-5.5 20.4-10.1 30.2-10.1 30.2"/><path fill="#c2c7cd" d="M200.3 133.2c4.9 5.3 10.6 9.8 16.7 13.6-.2-2.2-.5-4.3-.8-6.5-.2-1.9-.4-3.9-.6-5.7-5.1.3-10.3-.2-15.3-1.4"/><path fill="#67a9dd" d="M247 44.7c-.9-.6-1.9-1.2-2.8-1.7s-25.9-10.9-51.9-.3c-25.1 10.3-41.2 39.5-41.2 39.5-.9 7.8-1.4 15.6-1.4 23.4 0 20.3-3.1 32.4-3.1 32.4s6.2 1.6 21.2 0l2.3-.2c8.4-.8 17-1.4 17-1.4-5.2-7.9-8.4-16.9-9.3-26.3 0-.7-.1-1.5-.1-2.2-2.7-3.3-18.8-23.9-11.2-32.3 6-6.5 12.6 2.5 15.9 8.4 1.8-8.2 2.4-16.7 1.8-25 0 0 6.1 1.1 12.2-5 0 0 12 13.4 28.2 13.4 7.6 0 15 2.2 21.4 6.3-.3 3.2-.6 6.9-1.2 10.9l6.3-6.4c.3-.3 20.4-17.3-4.1-33.5"/><path fill="#133351" d="M192.3 42.7c25.9-10.6 50.8-.2 51.9.3h.1l-17.5-22.6-12.1-4S200.3 5 196.6 3.3C187.1-1.2 174.1.2 174.1.2s-12.2 8.1-16.2 16.2c-4.1 8.1-4.1 21.2-4.1 21.2l-5 12.6 2.3 32s16.1-29.2 41.2-39.5"/><path fill="#e0e2e5" d="M224.9 67.3c-16.2 0-28.4-13.4-28.4-13.4-6.1 6.1-12.3 5.1-12.3 5.1.6 8.4-.1 16.7-1.8 24.9-3.4-5.9-10-14.9-15.9-8.4-7.9 8.6 8.4 29.1 11.2 32.4 0 .7.1 1.5.1 2.2.9 9.4 4.1 18.4 9.3 26.3 0 0-8.5.5-16.8 1.3l-7 38.6h57.2s-1.7-14.3-3.5-29.5c-6.1-3.8-11.7-8.4-16.7-13.6 5 1.3 10.2 1.8 15.4 1.4 5.4-.3 10.8-1.3 15.9-2.9 0 0 4.6-9.8 10.1-30.2v-.2c1.5-5.6 2.6-11.3 3.4-17 .6-4 1-7.7 1.2-10.9-6.4-3.9-13.8-6.1-21.4-6.1"/><path fill="#111f32" d="M248.3 180.5c14.8 3.4 26.7 15.2 28.9 30.2l2.5 27.2c-22.5-34.8-31.4-57.4-31.4-57.4m-77 209.1H139l-30.6-159.8c-.1-.7-.2-1.5-.3-2.2l-.1-.7c0-.5-.1-1-.1-1.5 0-.3 0-.6-.1-.9 0-.4-.1-.9-.1-1.3v-7.1c0-.4 0-.7.1-1.1l.1-.9c0-.4.1-.7.1-1.1 0-.3.1-.6.1-.9s.1-.7.1-1.1c.1-.4.1-.6.1-.9s.1-.7.2-1 .1-.6.1-.8.1-.7.2-1 .1-.5.2-.8.2-.7.3-1 .1-.5.2-.8.2-.7.3-1 .1-.5.2-.7.2-.7.4-1l.2-.7c.1-.4.3-.7.4-1.1.1-.2.2-.4.2-.6.2-.4.4-.9.6-1.3l.1-.3c.3-.5.5-1 .8-1.5l.2-.4c.2-.4.4-.7.7-1.1.1-.2.2-.4.4-.5.1-.2.4-.6.6-.9l.4-.6c.2-.3.4-.5.6-.8s.3-.4.5-.6.4-.5.7-.7c.2-.2.4-.4.5-.6s.5-.5.7-.7.4-.4.6-.5l.7-.7.6-.5c.3-.2.5-.4.7-.6l.7-.5.8-.6.7-.5.9-.6.7-.4c.3-.2.6-.4.9-.5l.7-.4 1-.5.8-.4c.3-.2.7-.3 1.1-.5l.8-.3 1.1-.4.3-.1z"/><path fill="#133351" d="m171.2 389.6-40.5-208.2v-.2c1.3-.4 29.9-9.9 29.9-9.9l5.5-13.5h54.8l4.9 13.5 18.9 7.7 3.6 1.5s8.9 22.5 31.4 57.2l.7 1.1c10.1 13.3 14.5 27.2 8.2 54.4-2.1 9-4.2 18.5-6.3 27.9-6.3 28.4-3.4 67.7-3.4 67.7z"/><path fill="none" d="M248.4 956.2v.2c.6-.1 0-.2 0-.2"/><path fill="#2f3134" d="M239.8 388.8h29.9l9.9 20.9c.7 4.6 5.1 48.6 5 53.2l-8.2 235.3L256 891h-54.4c-5.6-74.8-3.8-92.3 20.4-184.9 9.4-35.9-6.1-94.5-21.4-155 9.3-35.7 18.9-68.7 26.7-87.9 12.5-30.3 12.5-74.4 12.5-74.4"/><path fill="#e0e2e4" d="M248.4 956.7s.6-.1 0 0h-17.3s-10.7-42-15.2-65.7H256z"/><path fill="#43464a" d="M120.7 652c6.7-11.3 7.2-28.3 6.7-48.4-2.9-112.2-20.1-151.6 28.3-214.7H180l59.8-.1s.1 44.1-12.4 74.4c-7.9 19.2-17.4 52.2-26.7 87.8-18.8 72.3-36.5 155.4-36.5 155.4l-24.4 189.2H83.3c10.2-149.2-1.1-178.4 37.4-243.6"/><path fill="#e0e2e4" d="M81.6 956.5c.7-23.2 1.4-42.4 1.7-60.9h32.4L100 956.7s.3 0 0 0z"/><path fill="#8a9097" d="m248.4 956.7 86 29.6-.2.3c-7 8.4-17.3 13.3-28.2 13.3h-83.4l8.5-43.2zM43.3 984.1 81.6 956l18.5.2 3 43.7H51.7c-5.6 0-10.1-4.5-10.1-10.1-.1-2 .5-4 1.7-5.7"/><path fill="#111f32" d="m16.1 309.6 84.6-106.8c12.3-18.5 19.5-20.9 34.6-23.1 14.2 17.4 20.1 46 5.2 69.1-20.8 32.4-51 61-67.8 75.6-19.9-18-38.9-27.8-56.6-14.8"/><path fill="#133351" d="M0 328.2c5.2-8.8 10.6-14.9 16-18.9 17.7-13 36.7-3.3 56.6 14.9 20.9 19.1 42.7 47.4 65.1 68.6l-1.1 2.1-13.1 26.3-5.7 11.6z"/><path fill="#2e91cf" d="M411.9 228.1h-39.7V287h39.7z"/><path fill="#e0e2e4" fill-rule="evenodd" d="m428.2 237.5-40.9 1.4c-1.2 8.4 3.3 20.7 11.6 25.2l21.8 17.1z" clip-rule="evenodd"/><path fill="#e0e2e4" d="M199.7 408.1c-.5 1.3-9.8 2.9-10.4 4.3-1.3 3.1-2.7 6.1-4.4 9-3.9 6.4-40.3 7.9-40.3 7.9l10.8-40.7 46.7 13.2c-.1 0-1 2.7-2.4 6.3"/><path fill="#c2c7cd" d="m155.4 388.6-10.8 40.7s-15.4-5.8-20.9-8.1l13.1-26.3z"/><path fill="#047bc0" d="m159.2 309.9 42 30v-149h-42z"/><path fill="#00639b" d="m197.2 175.9 48 20 2-20-9-21-21-11z"/><path fill="#006fae" d="m131.2 179.9 95 56 23-38-81-56-18 2z"/></g></switch></svg>