<svg xmlns="http://www.w3.org/2000/svg" viewBox="0 0 600 400"><path fill="#18837e" d="M326.577 150.203c3.948 1.992-1.352 10.099-5.265 10.099-10.791-5.44-19.001-18.792-19.179-18.988 1.76-.284 7.626-2.382 7.626-2.382s9.902 8.551 16.817 11.271Z"/><path fill="#54aba5" d="M343.308 145.65H332.09l-1.036 2.687-4.489 1.889c-1.752 4.073-4.006 7.976-6.44 11.673-2.357 3.535-2.844 7.342-1.902 11.449 1.518 6.577 2.472 12.897 1.991 19.698h22.062l5.772-33.305c-.635-3.224.402-6.392 3.448-9.796 0 0-3.27-.629-7.122-1.557l-1.067-2.738Z"/><path fill="#18837e" d="M342.216 193.048h6.673l4.515-25.28-5.497-8.665z"/><path fill="#8a9097" d="m329.895 121.941-1.688-2.529-3.983 2.699c-1.236 2.801-2.072 5.568-2.072 5.568s-15.307 8.551-20.018 13.636c2.583 1.596 5.952 2.719 10.887.279l12.163-11.303 4.712-8.349Z"/><path fill="#02201e" d="M331.343 140.781a12.6 12.6 0 0 1-1.76-.409s-.089-.178-.231-.551a55 55 0 0 1-1.796-5.564 33 33 0 0 1-.462-2.062 35 35 0 0 1-.587-5.458l.373-.587c1.6 4.427 8.622 5.369 12.053 5.582.764-1.458 2.596-4.249 3.911-2.827.302.356.462.8.444 1.262-.018 1.689-1.6 3.947-2.364 4.942l.622 3.467 1.334 7.074h.426l1.067 2.737 4.479 1.015c-1.853-10.545-.422-34.236-16.568-31.982-3.182.444-4.853 2.276-5.689 4.444l-.036.036c-2.204 1.493-4.267 5.138-1.067 8.782l-.322 18.904 1.399.64 4.484-1.89 1.036-2.687h.224l.424-4.617-1.396-.252Zm-12.285 67.093 1.653 47.947 5.547 52.621h3.556c3.396-12.747 8.213-28.052 1.991-51.021-1.973-7.324 1.209-19.307 4.338-31.68-.759-13.113-7.851-21.567-7.946-32.695h-6.334c-.799.797-3.101 4.045-2.805 14.828"/><path fill="#053634" d="M351.111 236.567c.124-4.8.391-8.942.658-12.622 1.905-18.556-3.913-28.475-5.66-30.896l-18.214-.002c.025 5.006.877 10.221 2.79 14.881 1.6 3.911 3.538 10.596 5.422 17.813 3.84 14.773 7.467 31.769 7.467 31.769l12.943 50.917 3.876-.163c-1.387-45.244.406-47.217-7.912-61.848 0 0-1.59-1.342-1.369-9.849Z"/><path fill="#8a9097" d="m332.528 143.32.21-2.287a13.6 13.6 0 0 0 3.181-.381c-.355.764-2.44 2.045-3.392 2.668Z"/><path fill="#a4abb3" d="m332.528 143.32-.214 2.33h10.567l-1.92-10.578c.764-.996 2.347-3.271 2.364-4.942a1.83 1.83 0 0 0-.444-1.262c-1.298-1.422-3.147 1.369-3.911 2.827-3.431-.213-10.453-1.156-12.053-5.582l-.469.61c.089 4.568 1.28 9.008 3.11 13.676 2.178.681 3.896.933 6.355.256-.978.996-2.211 1.936-3.384 2.665Z"/><path fill="#66b8b2" d="M356.623 171.198c3.467 2.844 7.493 7.637 7.493 7.637 3.84-2.4 6.232-3.921 10.996-.792l-23.616-28.098c-7.573 8.551-2.944 14.231 5.127 21.253"/><path fill="#a4abb3" d="m352.159 198.47-6.151-1.262-2.809-.409 3.112 8.265c-.07 0 9.378-.371 9.777-.407l19.004-26.649c-3.16-2.709-7.341-2.87-10.981.828 0 0-9.072 18.639-11.952 19.634"/><path fill="#8a9097" d="m343.208 196.802-5.59 5.721s.071.818 1.138 1.867q.666.64 1.44 1.12c2.364 1.476 5.834-.303 6.118-.445l-3.106-8.262Z"/><path fill="#18837e" d="m368.001 314.006-7.609-5.742-3.876.16-.676 8.818h10.453a2.063 2.063 0 0 0 2.062-2.062c0-.427-.124-.836-.356-1.173Zm-41.742-5.565-17.458 6.027c1.2 1.8 3.711 2.773 5.796 2.773h16.996l-1.778-8.8z"/><g fill-rule="evenodd"><path fill="#0a4f4b" d="M294.168 126.131h-69.28V80.602h57.547v33.813z"/><path fill="#fff" d="M250.863 113.722c0 1.227.942 2.204 2.204 2.204s2.204-.996 2.204-2.204-1.013-2.204-2.204-2.204-2.204.942-2.204 2.204m9.902-16.995c0 1.636-.498 2.951-1.511 4.053-.622.658-1.102 1.031-2.631 2.062-1.831 1.191-2.222 1.973-2.222 4.018v1.476h-2.507l-.036-1.849c0-2.542.729-3.804 3.307-5.618 2.009-1.387 2.631-2.418 2.631-4.107 0-2.133-1.564-3.573-3.964-3.573-2.613 0-4.213 1.387-4.711 4.178l-2.631-.338c.338-2.044.942-3.236 2.204-4.356 1.351-1.191 3.197-2.069 5.295-2.069.427.004 6.777-.459 6.777 6.122Z"/></g></svg>