<svg xmlns="http://www.w3.org/2000/svg" viewBox="0 0 355.377 931.822"><path fill="#e0e2e5" d="M318.58 891.93c-.645-21.323-3.3-72.527-3.575-89.532l-3.41-3.936h-30.487l-.812 3.936 21.361 89.717s-.275 0 0 0l16.922-.184zm-153.312.185s-.552-.092 0 0h15.91s14.266-75.3 18.405-97.084l-3.376-3.978-42.147.85-1.898 3.128z"/><path fill="#2f3134" d="M173.177 370.128h-27.498l-9.105 19.21c-.644 4.229-4.69 44.671-4.599 48.9l7.542 216.276 12.645 140.517h47.42c5.151-68.753 12.222-48.142-10.034-133.256-8.645-32.997 5.61-86.86 19.68-142.468-8.552-32.814-17.381-63.146-24.555-80.794-11.496-27.85-11.496-68.385-11.496-68.385"/><path fill="#43464a" d="M282.711 612.05c-6.162-10.387-6.622-26.013-6.162-44.488 2.667-103.129 23.268-138.721-21.244-196.72l-27.131-.622-54.997-.092s-.092 40.535 11.404 68.385c7.265 17.648 16.002 47.98 24.556 80.702 17.29 66.455 33.568 142.836 33.568 142.836l37.59 140.347h34.71c-9.289-137.137 3.022-130.42-32.293-190.349z"/><path fill="#00a4fd" d="M196.175 49.685c-12.589 13.568-31.669 16.333-42.616 6.175s-11.824-30.96.765-44.527S188.2-3.43 199.147 6.727s9.617 29.39-2.972 42.958"/><path fill="#c1c7cc" d="M12.14 242.642 6.898 271.32l31.361 7.077 8.185-21.232z"/><path fill="#111f32" d="m47.456 254.315-1.104 2.758-8.185 21.324-1.84 4.78c63.275 46.784 131.424 95.591 163.98 40.994.644-.828-152.852-69.856-152.852-69.856z"/><path fill="#c1c7cc" d="M210.629 131.589c-5.016 5.422-14.33 13.803-21.158 16.04.205-2.25.507-4.399.814-6.65.205-1.943.41-3.99.614-5.83 5.096-2.3 14.611-2.333 19.73-3.56"/><path fill="#dddfe2" d="M209.732 40.419c6.094-.186 13.252 14.698 13.315 17.388-.615 8.594.102 17.085 1.842 25.474 3.48-6.036 10.236-15.244 16.276-8.594 4.633 5.041 1.134 14.08-3.239 21.514-3.258 5.54-2.53 11.539-3.754 12.98 0 .716 2.223 23.224 3.102 29.139l7.166 39.489-49.714 22.324-11.764-22.324s1.258-10.047 4.923-20.567c.3-.859.822-3.164.932-4.093l.654-5.52c6.244-3.887 11.977-8.593 17.095-13.913-5.118 1.33-10.441 1.842-15.764 1.432a67.2 67.2 0 0 1-16.275-2.967s-4.71-10.025-10.34-30.895v-.205c-1.535-5.728-2.66-11.56-3.48-17.391-.614-4.092-1.023-7.877-1.228-11.151-.425-6.027-.022-17.386 5.94-21.07 7.518-8.928 22.201-17.884 44.313-11.05"/><path fill="#111f32" d="M165.42 178.657c-13.611 3.125-24.556 13.971-26.58 27.758l-2.298 25.001c20.693-31.986 28.878-52.76 28.878-52.76z"/><path fill="#005587" d="M228.174 370.22c11.984 60.085 21.998 122.604 15.917 185.985 24.092 1.101 45.856 1.295 54.337-3.683-1.444-70.084-6.898-133.852-24.914-177.84.415-2.912 20.558-149.931 20.748-152.739.33-2.6.415-5.279.369-7.908.565-14.706-6.692-29.829-21.524-34.376-23.008 68.746-52.927 130.362-46.486 185.277z"/><path fill="#00629a" d="M236.252 370.862c-4.488-64.993 17.626-128.09 37.262-191.365l-.133-.496c-1.195-.368-25.607-8.788-25.607-8.788l-4.483-6.869-48.565 33.789-9.694-30.024-19.672 11.56s-8.185 20.681-28.878 52.576l-.644 1.01c-9.29 12.225-13.336 25.001-7.542 50.002 1.932 8.273 11.177 67.406 7.075 87.871-6.7 23.074-7.006 122.227-11.61 184.542 13.378-7.764 69.174-5.78 120.33 1.535l8.645.353c4.686-62.284-5.59-129.063-16.484-185.696"/><path fill="none" d="M165.268 891.655v.184c-.552-.092 0-.184 0-.184"/><path fill="#888e95" d="M165.268 892.115h15.91l7.818 39.707h-76.702c-10.025 0-19.497-4.504-25.935-12.225l-.184-.275zm188.535 25.184c1.104 1.563 1.656 3.401 1.564 5.24a9.26 9.26 0 0 1-9.29 9.283h-47.27l2.758-40.167 17.014-.184z"/><path fill="#111f32" d="m342.379 325.501-44.703-117.012c-5.678-19.618-11.33-23.712-23.968-29.815-17.263 11.329-20.902 44.054-14.214 68.424 9.294 34.153 18.446 58.289 29.148 75.732 22.429-10.28 41.802-13.618 53.736 2.67z"/><path fill="#0096e8" d="M6.897 207.672h36.885v71.5H6.898z"/><path fill="#e0e2e5" fill-rule="evenodd" d="m0 231.06 37.615 1.287c1.104 7.721-3.035 19.027-10.668 23.163l-20.05 15.718z"/><path fill="#c1c7cc" d="M234.765 422.978s8.013-13.414 11.631-16.674l-9.7-20.07-14.968 4.853z"/><path fill="#003253" d="M342.379 325.552c-4.01-7.238-8.03-9.851-12.31-13.21-16.893-9.368-25.781-5.885-43.51 7.741-17.352 14.978-33.498 47.224-52.113 63.867l12.131 25.08 4.35 9.515z"/><path fill="#56b0ff" d="M279.15 15.85c12.371 13.766 10.708 34.795-.4 44.778-11.106 9.982-30.14 6.915-42.512-6.85s-13.397-33.018-2.29-43c11.108-9.983 32.83-8.693 45.202 5.073z"/><path fill="#002742" d="M195.308 196.09c-10.106-2.339-14.938-8.133-24.478-23l-2.252-17.18 12.28-7.367 8.31 1.644c-.834 7.83-3.959 16.321-2.256 19.23zm44.316-44.965c3.862-1.25 9.096-1.323 14.6-.129 2.126 1.57 1.362 4.09 0 6.809-38.049 37.563-50.877 35.022-58.916 38.285l44.181-31.584c1.77-2.898 1.35-7.412.135-13.381"/><path fill="#006ead" d="M191.601 202.854c-2.47-1.357-29.082-24.438-31.793-22.414-6.195-22.027 7.725-36.686 29.967-35.368.007 0-.608 5.115-.608 5.115s-7.403.262-10.306 1.426c-23.18 9.291 8.594 43.616 16.447 44.478 3.411.374 62.16-35.932 59.377-44.017 0 0-5.616-2.334-15.06-.95-.002-.002-.938-5.162-.938-5.162 4.67-.274 11.41-2.484 20.07-2.637 16.749.918 18.968 11.863 18.796 20.261l-1.53 16.072c-15.923-3.301-70.069 16.99-84.422 23.196"/><path fill="#001d33" d="m219.007 380.981-9.778.931 22.821 60.61 8.233-6.241zm-81.024 1.681h6.14l-12.15 62.265-2.722-4.78z"/><path fill="#56b0ff" d="M247.266 33.051C210.757 7.386 172.5 21.348 156.044 47.474c-7.545 14.53.025 49.889.025 49.889 1.765-44.281 15.426-40.444 17.933-53.874 3.479 11.87 27.013 42.976 41.39 22.102.793 15.22 6.677 29.47 6.293 48.041 2.302-8.134.998-30.083 3.147-30.234 3.377-6.036 10.17-15.263 16.31-8.613 4.84 5.345-.17 15.37-4.6 23.363-1.387 2.505-3.507 4.817-3.507 4.817-.235.506 3.438 15.65-1.102 26.999 4.329 0 5.015-.89 5.015-.89s5.205-7.869 7.492-24.794c31.376-44.075 2.826-71.229 2.826-71.229"/></svg>