<svg xmlns="http://www.w3.org/2000/svg" viewBox="0 0 519.8 999.7"><switch><g><path fill="#8a9097" d="m421.5 352-22.9 21-22-.3 4.9-26.7z"/><path fill="#71767c" d="m402 367.3-3.5 5.7 26.9-3.1 17.5-5.2z"/><path fill="#c2c7cd" d="m500 370.4-99.6-1c-1.5-.1-2.5-.4-1.7-1.7l15.1-18.7q1.5-1.5 4.8-1.5l97.8 1c3 0 4 .5 3.2 1.6L504.4 369c-1.1 1-2.6 1.4-4.4 1.4"/><path fill="#d0d4d8" d="m418.5 337.5 44.3.5c4 .2 8.2 2.4 11.7 4.2 3.6 2.3 7 4.2 11.5 4.5l30.9.3v1.5l-98.5-1c-2 0-3.1-.3-3.1-.9z"/><path fill="#43464a" d="m500 369-99.6-1c-1.5-.1-2.5-.4-1.7-1.7l15.1-18.7q1.5-1.5 4.8-1.5l97.8 1c3 0 4 .5 3.2 1.6l-15.2 18.9c-1.1 1-2.6 1.4-4.4 1.4"/><path fill="#eff1f2" d="m445.9 359.9-45.4-.5c-1.5-.1-2.5-.4-1.7-1.7l15.1-18.7q1.5-1.5 4.8-1.5l43.6.5c2.3 0 3.5.3 3.5 1q0 .3-.3.6l-15.2 18.9c-1.1 1-2.6 1.4-4.4 1.4"/><path fill="#e0e2e5" d="M445.8 368.5c1.8-.1 3.4-.5 4.3-1.5l15.2-18.9q.3-.3.3-.6l.1-8.5q0 .3-.3.6l-15.2 18.9c-1 1.1-2.5 1.5-4.3 1.5z"/><path fill="#a4abb3" d="m500 370.4-98.5-1c-2 .1-3.2-.2-3.1-.9l.1-9.9c0 .7 1.2 1 3.1.9l44.3.5c4 .2 8.2 2.4 11.7 4.2 3.6 2.3 7 4.2 11.5 4.5l30.9.3zm0 0c1.9 0 3.4-.5 4.3-1.5l15.2-18.9q.3-.3.3-.6V348q0 .3-.3.6l-15.2 18.9c-.9.9-2.3 1.5-4.3 1.5z"/><path fill="#a4abb3" fill-rule="evenodd" d="m381.3 344.6-2 12.8c3.5-4.1 8.1.3 16.7-5.3l7.1-3.7 15.1-.7 6.5-4.3-13.8-1.5-16.2-.5z" clip-rule="evenodd"/><path fill="#a1c6ea" d="m382.1 342.8-.5 3.2-4.5 24.4-1 5.5c-85.2 7.6-176.2 14.3-175.4-54.8-.2-1.2 181.4 21.7 181.4 21.7"/><path fill="#8a9097" d="M176.9 117.3q.3 2.55.6 5.4c.2 1.8.9 5.1 1.1 7.1-5.7-3.5-13.2-9.4-18-14 4.8 1 11.3 1.8 16.3 1.5"/><path fill="#7d8389" d="M187.879 722.895h-55v-218h55z"/><path fill="#a4abb3" d="M179 140.2c1.3 11.3 2.4 20.1 2.4 20.1H123l3.7-20.2 6.2-34.4 2.7-14.9c-3.8-5-11.3-18.8-11.4-27.2-.1-2.3.7-4.6 2.2-6.3 6.5-7.1 15.7 6.8 19.8 14C144 57 174.6 49 206.5 43.4l1.9 2.9c-.3 9.2-1.2 18.3-2.9 27.4-.6 3.4-1.4 6.8-2.4 10.3-5.6 20.8-10.2 30.8-10.2 30.8-3.9 1.2-7.8 2-11.9 2.5-1.4.2-2.9.3-4.4.4-4.9.3-9.9-.1-14.7-1.2 4.8 4.7 10.2 8.8 15.9 12.3q.6 6 1.2 11.4"/><path fill="#083e63" d="M115.8 52.8c.4-3.5 1.1-7 2.1-10.3C124.6 13 140.7-4.4 179.6.9c16 2.2 24.3 11.5 28.5 22.2.1.1.1.2.2.2 9.6 6.5 18.7 21.2 10.2 36.9 18.1 19.2 17.2 49.5-2 67.6-8.9 8.4-20.6 13-32.8 13-1.5 0-3-.1-4.6-.2-.4-3.6-.9-7.4-1.3-11.3-.2-1.9-.4-3.9-.6-5.8s-.4-4-.6-5.8c1.5-.1 3.1-.2 4.5-.4 4-.5 8-1.3 11.9-2.5 0 0 4.3-9.6 10.1-30.4.9-3.5 1.7-7 2.4-10.3 1.7-9 2.7-18.2 2.9-27.4l-1.9-2.9c-29.2 8.5-59.3 9.9-60.3 27.9-4.1-7.2-13.3-21.1-19.8-14-1.5 1.7-2.3 4-2.2 6.3.1 8.4 8.1 19.7 11.9 24.7l-3.1 17.4-6.2 34.4c-25.5-6.9-40.6-33.2-33.7-58.7 3.4-12.3 11.6-22.8 22.7-29"/><path fill="#e8f0fb" d="M165.6 79.8c4.7.8 14.7 1.4 23 0l3-10 3 10c4.6 1.2 10.5 1 14 0 1.9-6.7 2.7-15.1 2-21-3.8-.8-24.8-.9-48 0l-24 2 4 5 18 2c1 2 3 11 5 12"/><path fill="#083e63" d="M93.1 81.8c3.4-12.3 11.6-22.8 22.7-29 .4-3.5 1.1-7 2.1-10.3C124.6 13 140.7-4.4 179.6.9c16 2.2 24.3 11.5 28.5 22.2.1.1.1.2.2.2l-1.8 20.5c-31 11-61 10.7-60.3 27.9-4.1-7.2-13.3-21.1-19.8-14-1.5 1.7-2.3 4-2.2 6.3.1 8.4 8.1 19.7 11.9 24.7z"/><path fill="#a1c6ea" fill-rule="evenodd" d="m190.1 157.5 21.5 6c15.1 3.4 26.6 15.8 28.9 31.2l4.3 46-52.5-57.8z" clip-rule="evenodd"/><path fill="#a1c6ea" d="M90.8 164.5c1.3-.4 30.6-10.1 30.6-10.1l5.6-13.8h56.1l5.1 13.8 17.5 7.8s14.7 25.2 38.3 61.4c10.4 13.6 14.8 27.8 8.4 55.6-9.9 42.9-23.6 97.9-23.6 97.9l-118.4-.1z"/><path fill="#111f32" d="M200.5 377h27.9l9.7 21.3c.7 4.7 8.2 49.6 8.1 54.3l-8.3 239.8S210.2 955.5 210 955.5h-17.8l-.1.5c-.2-.2-.3-.5-.4-.7-17-63.8-40.5-140-9.3-254.9 9.9-36.6-6-96.6-21.7-158.4 9.4-36.2 19.1-69.7 27.1-89.2 12.7-30.8 12.7-75.8 12.7-75.8"/><path fill="#133351" d="M39.9 955.4c7-227.1-14.4-214.6 39.2-309.9 6.6-11.7 7.4-28.9 6.8-49.4-3-114.5-22.4-154.7 27-219.1h87.7s.1 45-12.6 75.9c-8 19.5-17.7 53-27.1 89.2C141.7 616 123.6 701 123.6 701L58.7 955.6h-.4z"/><path fill="#047bc0" d="m210.3 955.5 87.5 30.2-.2.3a37.48 37.48 0 0 1-28.9 13.6h-85.2l8.9-43.6.1-.5zM1.8 983.8l37.6-28.4 19.4.2 3.4 44.1H10.1c-5.6 0-10.1-4.5-10.1-10.1 0-2.1.6-4.1 1.8-5.8"/><path fill="#e8f0fb" d="M206.8 244.9c-7-15.3-17-47.7-24-63-9.1-6.4-18.3-12.9-27.6-19.8-9.7-7.1-19.2-14.2-28.4-21.2-4.3 5.1-13.2 12.1-24 18-7.9 4.3-14 5-19 8l3 110c1 36.7 8 60.3 9 97-10.8 58.2-22.5 54.2-32 116-9.3 60.8-21.9 197.1-29 255h143c8.7-172.3 20.4-327.7 29-500"/><path fill="#d2e2f6" d="m181.8 661.9 25-417-24-63c-2-6 4-31 2-37 6.7 5 14.3 12 21 17 14.3 21.9 26.7 43.1 41 65 7 11 12 19 7 47l-12 110 10 76c.1 15.2-.3 262.8-.2 278h-65.8zM33.1 331.7l23.8-128.9c4.3-22 14.8-35.2 32.6-37.1 14.3 16.4 21.2 36.6 21.2 62.7 0 40.7-33.8 116-33.8 116-9.2-11.2-23.1-16.6-43.8-12.7"/><path fill="#a4abb3" d="M33.1 331.7c20.8-3.9 35.4 1 44 12.6C95 368.6 93.3 465.2 93.3 465.2l18.9 49-36.6 5.5-2.1-29.5z"/><path fill="#d2e2f6" d="M95.8 461.9s1.9-91.7-16-116c-8.6-11.6-26.4-18.6-47.2-14.7l34.2 139.7z"/><path fill="#a4abb3" d="m123 503.5 8.4 13.2-5.6.4-20.4-11.8-8-27.4z"/><path fill="#8a9097" d="M129.8 544.8c-36.6 18.6-54.3-25.1-54.3-25.1l36.6-5.5z"/></g></switch></svg>