<svg xmlns="http://www.w3.org/2000/svg" viewBox="0 0 700 1000"><path fill="#c1c7cc" d="M322.6 471.1c2.7-7.6 6.4-14.8 10-21l-2.8-4.7-19 18.2 12.4 29.6c-.9-8.4-1.7-18.9-.6-22.1"/><path fill="#419e98" d="m280.5 433.9-1.2.3z"/><path fill="#2e908b" d="M285.4 366.2c-.4 32.8-.6 66.4-.6 66.4s-.7.3-2.2.7l.6 5.7c9.4 10.8 18.4 20.4 25.4 26.6l23.5-22.5z"/><path fill="#419e98" d="M282.5 433.4c-.3.1-.6.2-.9.2.4-.1.7-.2.9-.2m-.8.2c-.3.1-.7.2-1.1.3.4-.1.7-.2 1.1-.3"/><path fill="#d0d4d8" d="M81.9 956c3.9-1 8.6-1 13.6.1 1.8 1.1 2.9 4.5 6.7 7 .2.2 2.5 1 2.5 1l18.8-71.7-35.7-.4c-.3 18.2-5.2 41.1-5.9 64"/><path fill="none" d="M249.2 953.9v.2c.6-.1 0-.2 0-.2"/><path d="m220.2 958.7-6.7 27.9 1.1 13.4H305c9.1-.1 17.8-.8 26.1-2.7 1.8-5.2 3.3-10.2 1.4-13.2l-32.1-7.9-51.1-22.1-8.6 6.4zM43.9 997.1c6.7 2.9 13.4 2.9 19 2.9l44.1-.1c.8-3.9 1.4-12.1.8-14.8-1.2-8.8.3-11.3-3-21.3q-1.05-.3-1.8-.9c-3.8-2.5-4.5-8-6.3-9.1-5-1.1-10.8-.7-14.7.3-4.3 1.7-6.6 9-13.2 13.4l-25 15c-1.2 1.7 0 12.6.1 14.6"/><path fill="#8dd2cd" d="m281.1 240.3-.7-1.1c0-.1-.1-.1-.1-.2-16.1-24.9-25.2-43.4-29-51.8-9.1 5.4-28.2 21.8-30.3 23-38.6-16-62.4-25.5-76.6-31.1 5.8 10.2 8.4 24 8.1 37.9v1.2a97 97 0 0 1-3.6 23.8c-3.2 11.3-6.4 21.6-9.6 31-4.2 12.4-10.8 28.6-16.8 41.9l6.8 107.1s37.2 11.6 84.9 15.2c47.8 3.6 70.7-4.6 70.7-4.6s.7-122.2 2-127.9c.8-3.5 4.2-51.2-5.8-64.4"/><path fill="#419e98" d="M152.5 217v1.2a97 97 0 0 1-3.6 23.8c-3.2 11.3-6.4 21.6-9.6 31-4.2 12.4-10.8 28.6-16.8 41.9l6.8 107.1s7.8 2.4 20.7 5.4c-.1 0 2.7-224.6 2.5-210.4"/><path fill="#43464a" d="m146.9 528.7-.4.1zm-29.2-49.5 8.3-2.5zm96.4-42c-26-2-48.8-6.3-64.2-9.8-.3-.1-.6-.1-.9-.2s-.7-.2-1-.2c-.5-.1-1-.2-1.4-.3-.3-.1-.6-.1-.9-.2-.5-.1-1-.2-1.5-.4-.3-.1-.5-.1-.8-.2-.5-.1-1-.3-1.6-.4-.2 0-.4-.1-.5-.1-.7-.2-1.3-.3-1.9-.5-.2 0-.4-.1-.5-.1l-1.2-.3c-.2-.1-.4-.1-.6-.2-.3-.1-.7-.2-1-.3-.2-.1-.4-.1-.6-.2-.3-.1-.6-.2-.8-.2-.2-.1-.4-.1-.6-.2-.3-.1-.5-.1-.7-.2-.2 0-.3-.1-.5-.1-.1 0-.1 0-.2-.1-1.6 3.7-3.4 8-5.2 12.5l5.4 39.1-5.2 1.6v1.9l5.3 13.8 36.5 31.3-2.9 8.8-22.6-10.8 2.8 7.2h.1L165 560c-24.9 12.6-41.3-2.8-49.6-14.6-.5-.7-1-1.4-1.4-2.1-.1 17.5.2 37.2.8 60 .5 20 2.8 36.9-3.9 48.1-21.1 78-15.8 93.9-25.9 242.3h56.1l31.3-188.2S190 623 208.7 551.2c0-.1 0-.2.1-.2 7.5-28.5 21.3-69.7 27.9-112.7-6.8-.2-14.3-.4-22.6-1.1"/><path fill="#66b8b2" d="M144.3 179.1c-7-2.8-11.7-4.5-14.6-5.6-2.1-.8-3.3-1.2-3.7-1.4h-.1c-.1 0-.1 0-.1-.1-8.2 5.1-12.8 11.6-17.7 27.9 0 0-44 139.3-44.3 141.4C62.7 346 98 485.4 98 485.4l34.7-10.8-19.4-141.5c7.4-12.7 19.4-41 26-60.1 3.2-9.4 6.4-19.7 9.6-31a97 97 0 0 0 3.6-23.8V217c.2-13.9-2.4-27.7-8.2-37.9"/><path fill="#2f3134" d="M236.6 438.2c-6.5 42.9-20.4 84.1-27.9 112.7 0 .1 0 .2-.1.2-1.2 4.8-2.5 9.6-3.7 14.4 11.4 54.2 8.5 101.8 6.7 139.6-16.4 95-14.6 109.5-9.1 183.9h54.1l25.9-198.8 2.5-227c.1-2.5-1.2-16.7-2.5-29.9-5 1.5-20.2 4.9-45.9 4.9"/><path fill="#e0e2e5" d="M249.2 954.4c.6-.1 0 0 0 0"/><path fill="#d0d4d8" d="M253.5 889h-36.7c3.5 25.4 3.5 69.7 3.5 69.7l20.4 1.8 8.6-6.1z"/><path fill="#c1c7cc" d="m114.6 533.5 32.3-4.8-.1-.3h.1L165 560c-24.9 12.6-41.3-2.8-49.6-14.6-2.4-3.5-4.5-7.2-6.2-11 0-.1 5.4-.9 5.4-.9"/><path fill="#d0d4d8" d="M169.2 523.3 132.7 492l-5.3-13.8v-1.9l-25.7 8c3.2 12 5.2 19.7 5.2 19.7l2.2 30.4h.1l5.4-.8 32.3-4.8-.1-.3-2.8-7.2 22.4 10.9z"/><path fill="#0a4f4b" d="M170.2 153.3s-.2-.1 0 0m46.5 49.5c-1.4 0 0 0 0 0m18.7-48.6c-.2-.1-.4-.1-.6-.2 0 0-.6 0-1.6-.1l-11.7-.4v-.1c.5 3.8 1.5 11.9 1.9 15.4H175l.4-14.7-3 .2-20.7.2c-3 9.8 32.7 32.1 52.6 42.6 6.2 3.2 10.8 5.2 12.1 5.6.2 0 .4.1.5.1 8.5-1 43-38.1 18.5-48.6"/><path fill="none" d="m204.7 144.8.2.2c-.1-.1-.1-.2-.2-.2"/><path fill="#419e98" d="M240.4 150.6c-2.9-.9-11.3-.4-19.4-.6.1 1.1.3 2.2.4 3.4-.1 0-.2-.1-.2-.1.1 0 .2.1.2.1v.1l13.5.5c25.4 10.2-9.4 47.9-18.1 48.8-3.7.4-69.2-35.2-65.2-48.3l23.7-.2.2-5.3c-10.3-.3-28.3-.1-28.3-.1-19.3 1.2-21.7 13.9-21.5 23.1 0 0 18.2 6.4 95.2 38.2 2.7-1.5 31.9-26.8 34.9-24.6 4.9-17.4.6-29.5-15.4-35"/><path fill="#2e908b" d="M255.8 185.6c-.6-.4-2.3.2-4.6 1.6 3.8 8.4 12.9 26.9 29 51.8l-2.5-26.7c-1.8-12.5-10.4-22.7-21.8-27.7.1.3 0 .7-.1 1"/><path fill="#43464a" d="M236 138.3s4.6-9.8 10.1-30.1c2.9 11.8 7.6 30.4 10.5 34.7 0 0-18.9 4.2-36 4-.2-1.9-.4-3.9-.6-5.7h.1c5.4-.3 10.8-1.3 15.9-2.9"/><path fill="#e0e2e5" d="M250.7 80c-6.4-4-13.8-6.1-21.4-6.1-16.2 0-28.4-13.4-28.4-13.4-6.1 6.1-12.3 5.1-12.3 5.1.1 2.1.2 4.2.2 6.3 0 6.3-.7 12.5-2 18.6-3.4-5.9-10-14.9-15.9-8.4-1.5 1.6-2.1 3.6-2.1 5.9-.1 9.8 11.1 23.8 13.3 26.5 0 .7.1 1.5.1 2.2.1 1.2.3 2.3.4 3.5 1.3 8.1 4.3 15.9 8.9 22.8 0 0-6.1 1.3-15.8 2.1l-.7 23.7h48.4c-.4-3.5-1.5-11.6-1.9-15.4-6-3.8-11.6-8.3-16.5-13.4l-.2-.2c5 1.3 10.2 1.8 15.3 1.4h.1c5.4-.3 10.7-1.3 15.9-2.9 0 0 4.6-9.8 10.1-30.1v-.3c1.5-5.6 2.6-11.2 3.4-16.9v-.1c.5-4 .9-7.7 1.1-10.9"/><path fill="#2e908b" d="M248.6 49.6c-8.4-3.3-17.4-5-26.5-5-8.7-.1-17.4 1.5-25.4 4.7-25.1 10.3-41.2 39.5-41.2 39.5l-2.3-32 5-12.6s0-13.1 4.1-21.2c4-8.1 16.2-16.2 16.2-16.2s13-1.4 22.5 3.1c3.7 1.7 18.1 13.1 18.1 13.1l12.1 4 17.5 22.6z"/><path fill="#c1c7cc" d="M220 141.2c.2 1.8.4 3.8.6 5.7.3 2.2.6 4.3.8 6.5-6-3.8-11.6-8.3-16.5-13.4l-.2-.2c5 1.3 10.2 1.8 15.3 1.4"/><path fill="#43464a" d="M154.1 112.2c0-7.8.5-15.6 1.4-23.4 0 0 16.1-29.2 41.2-39.5 8.1-3.2 16.7-4.9 25.4-4.7 9.1 0 18 1.7 26.5 5 .9.5 1.9 1.1 2.8 1.7 24.4 16.2 4.4 33.2 4.2 33.5l-6.1 6.2v-.1c.6-4 1-7.7 1.2-10.9-6.4-4-13.8-6.1-21.4-6.1-16.2 0-28.4-13.4-28.4-13.4-6.1 6.1-12.3 5.1-12.3 5.1.6 8.3-.1 16.7-1.8 24.9-3.4-5.9-10-14.9-15.9-8.4-7.9 8.6 8.4 29.1 11.2 32.4 0 .7.1 1.5.1 2.2.1 1.2.3 2.3.4 3.5 1.3 8.1 4.3 15.9 8.9 22.8 0 0-34.4 5-40.5 1.6 0 0 3.1-12.1 3.1-32.4"/><path fill="#0a4f4b" d="M462.3 121.8c-.2 1.8-.3 3.7-.5 5.6l4.6-.2c5.1-3.3 12.8-8.5 16.3-12.1 0 0-13.6 2.8-20 2.6-5.6-.3-11.2-1.3-16.5-2.9 0 0-4.7-10-10.4-31.2-1-3.6-1.8-7-2.4-10.5-1.6-9.2-2.6-18.4-2.8-27.7V42c60.1-4.9 45.7 27.7 63 28.8 2.3-4.2 5.1-8.2 8.3-11.7 3.2-3.3 6.7-5.5 9.8-4 .7.3 1.4.8 1.9 1.4 1.5 1.8 2.3 4 2.2 6.4 0 8.5-8.1 20.1-12 25.1l3.1 17.5 3.1 17.2c1.2-.2 18.8-3.1 28.8-7.6 0 0-13.4-83.7-33.4-104-27-27.5-72.2 3.9-74.6 10.4l-.1.2c-11.7 7.8-.2 82.3 4.1 107l26.8-1.3z"/><path fill="#a4abb3" d="M435.8 83.6c5.7 21.1 10.4 31.2 10.4 31.2 5.4 1.7 10.9 2.6 16.5 2.9 6.4.2 20-2.6 20-2.6-5.5 5.6-21.2 15.2-21.2 15.2.3-3 .5-5.8.8-8.5l-.8 7.4c-.1 1.1-.3 2.2-.4 3.3l50.3-2.1-4.5-24.9-3.1-17.5c3.9-5 12-16.6 12-25.1.1-2.3-.7-4.6-2.2-6.4-.5-.6-1.2-1.1-1.9-1.4-3.1-1.6-6.6.6-9.8 4-3.2 3.6-6 7.5-8.3 11.7-17.4-1-2.9-33.7-63-28.8v3.4c.3 9.3 1.2 18.5 2.8 27.7q1.05 5.25 2.4 10.5"/><path fill="#8a9097" d="M462.7 117.7c-.5 4.2-.7 8.1-1.2 12.6 0 0 15.7-9.6 21.2-15.2 0 0-13.6 2.8-20 2.6m-57.5 216.7c-.4-4-.9-7.8-1.4-11.2-2.7-20.1-5.5-39.6-6.5-43.8-2.6-9.5-3.9-17.9-4.1-25.6-.3-9.3 1-17.5 3.6-25.7.9-2.9 2.1-5.9 3.3-8.8-1.3 3-2.4 5.9-3.3 8.8-1.4-.8-2.6-1.7-3.6-2.5l-14.9 95.8-30.3 107s-16.8 19.3-25.3 42.7c-1.1 3.1-.4 13.7.6 22 .7 7.2 4.6 14 10.4 18.4l8.8 6.8 2.1-6.4-5.2-5.7-5.1-5.6c-1.1-1.3-2-2.8-2.6-4.4-1.9-5.2-2-11-.2-16.4l21.2 3.8 5.2.9L353 497l-.3 11.8 8.8-3.5 5.7-55.7 40.8-86.5c-.9-9.4-1.8-19.6-2.8-28.7"/><path fill="#419e98" d="m432.1 159.1-32 60.1c-1.3 3-2.4 5.9-3.3 8.8-1.9-1.1-3.6-2.4-4.6-3.4 2.4-10.6 5.9-23.5 11.3-38.9 5.7-15.8 13.6-23.1 28.6-26.6m130.5 87.7c-2.1.7-4.2 1.4-6.4 2.1l-8.1-17.3c-1-2.2-2-4.5-2.9-6.8-.3 1.3-2.3 11.8-2.4 12.3-10.8 55.3-27.7 148.4-29 155.9v2.2h-2.3l4.3.1 23.7-.8v-1.6s11.3-92.2 26.3-140.4c-1.1-1.8-2.2-3.8-3.2-5.7"/><path fill="#66b8b2" d="M544 221c-7.3-22.4-8-47 5.6-60.6 1.1-1.1 4.1-3.1 4.2-3.2-3.6-1.3-34.2-8-34.2-8s-3.5-15.5-4.8-19l-56.4 2.4-2.4 14.1-20.2 10.8-3.7 1.5-32 60.1c-1.3 3-2.4 5.9-3.3 8.8-2.6 8.2-3.9 16.5-3.6 25.7.3 7.7 1.6 16 4.1 25.6 1 4.2 3.8 23.7 6.5 43.8.5 3.4.9 7.2 1.4 11.2 2.7 24.7 5.1 58.5 5.1 58.5l-.4 2.4h88.5l15.4-.2V393c1.4-7.4 18.2-100.6 29.1-155.9.1-.5 2.2-11 2.4-12.3-.5-1.2-.9-2.5-1.3-3.8"/><path fill="#133351" d="M513.8 393h-.7z"/><path fill="none" d="M432 951.3v.2c-.6-.1 0-.2 0-.2"/><path fill="#0a4f4b" d="m468.7 986.2-1.1 13.7h-92.8c-9.3-.1-18.3-.8-26.8-2.7-1.9-5.3-3.4-10.4-1.5-13.6l33-8.1 52.4-22.6c5-.1 8.7 6.4 14.1 6.1h.2l15.5-1.4z"/><path fill="#8a9097" d="M580.4 962.1c4.4-2.5 6.4-8.3 8.3-9.4 5.1-1.1 9.7-1.2 13.7-.2 0 0 .1 0 .1.1l-1.1-11.3-24.1 5.2 1.2 16.4c.8-.2 1.4-.5 1.9-.8"/><path fill="#2e3033" d="M555 431.3c-4.1 5.9-13.8 24-13.8 24l-19.6-33.6 19.8-11.7c1.2-1.6 2.3-3.3 3.4-4.9-1.7-4-3.5-8-5.4-12.2l-25.7.1h-11.8l-61.1-.1v3.6c0 .9.1 1.9.1 3.1 0 .9.2 3.7.2 4.2.1.9.1 2 .2 3v.1c0 .5.1 1.1.1 1.7 0 .5.3 3.5.4 4.6 0 .5.1 1 .1 1.5s.1 1 .1 1.5.1 1 .1 1.5c1.5 15.4 19.2 83.3 28.7 119.7 0 .1 0 .2.1.3 8.2 89.6 29.4 160.2 29.4 160.2L534 946.6l43.4-.1 24.5-5.6.6-.1C596.2 760.7 591 710.1 581 666.6s-1.8-164.5-26-235.3"/><path fill="#1a1c1d" d="M487.6 678.7s0-14.3-.4-34.8c-5.9-28.1-12.4-65.1-16.2-106.1 0-.1 0-.2-.1-.3-9.5-36.4-27.2-104.3-28.7-119.7-.1-.5-.1-1-.1-1.5s-.1-1-.1-1.5-.1-1-.1-1.5c-.1-1-.3-4.1-.4-4.6 0-.6-.1-1.1-.1-1.7v-.1c-.1-1.1-.1-2.1-.2-3 0-.5-.2-3.4-.2-4.2 0-1.2-.1-2.2-.1-3.1V393h-30.6l-5.7 17.6-6.1 75.2 4.4 181.6 8.6 273.9 5.7.1 45.6 1.8.9.1h25.5c-3.6-154-1.6-264.6-1.6-264.6"/><path fill="#101112" d="m539.5 392.9-25.7.1h-.7.7z"/><path fill="#a4abb3" d="M607.7 227.2c-12.6 8.7-25.3 13.1-39.8 17.9-1.7.6-3.5 1.1-5.3 1.8 1 1.9 2.1 3.9 3.1 5.7 13.1 23.3 26.8 50.2 38.4 63.6-3 1.7-5.7 3.8-8 6-14.1 13.6-28.8 50.8-51.2 83-1.1 1.6-2.2 3.2-3.4 4.9l-19.8 11.7 19.6 33.6s9.7-18.1 13.8-24c.3-.4.6-.8.8-1.1l100.9-110.4z"/><path fill="#8a9097" d="m431.9 941.9.1 10.8v.2c5-.1 8.7 6.4 14.1 6.1h.2l15.5-1.4-.2-14.5z"/><path fill="#79c5c0" d="M614.3 222.2c-2.2 1.8-4.4 3.4-6.6 5-12.6 8.7-25.3 13.1-39.8 17.9-1.7.6-3.5 1.1-5.3 1.8-2.1.7-4.2 1.4-6.4 2.1l-8.1-17.3c-1-2.2-2-4.5-2.9-6.8-.5-1.2-.9-2.5-1.3-3.8-7.3-22.4-8-47 5.6-60.6 1.1-1.1 4.1-3.1 4.2-3.2 23.2 8.4 22 5.8 37 25.2z"/><path fill="#0a4f4b" d="M642.9 997c-6.9 2.9-13.8 3-19.5 3h-47.1c-.8-4-1.2-10.8-.7-13.6 1.3-9-.5-13.2 2.9-23.4.7-.2 1.3-.5 1.8-.8 4.4-2.5 6.4-8.3 8.3-9.4 5.1-1.1 9.7-1.2 13.7-.2.1 0 .1 0 .2.1 4.4 1.9 10.2 12.4 16.8 16.9l23.8 14.2c1.3 1.5-.1 11.2-.2 13.2"/><path fill="#b2b9c0" d="m352.6 483.8 5.2.9-11.4 29.3-7-7.7-5.1-5.6c-1.1-1.3-2-2.8-2.6-4.4-1.9-5.2-2-11-.2-16.4z"/></svg>