<svg xmlns="http://www.w3.org/2000/svg" data-name="Ebene 1" viewBox="0 0 775.364 734.693"><g data-name="Bosch Mobility People female-beside-ebike-blue"><g data-name="Bosch-eBike-illustration-eUrban-connectivity edit"><path fill="#8a9097" fill-rule="evenodd" d="M148.995 613.332c-15.383 0-27.853-12.47-27.853-27.855 0-15.381 12.47-27.855 27.853-27.855s27.853 12.474 27.853 27.855c0 15.385-12.47 27.855-27.853 27.855m0-62.278c-19.013 0-34.425 15.41-34.425 34.423s15.412 34.423 34.425 34.423 34.424-15.411 34.424-34.423-15.412-34.423-34.424-34.423"/><path fill="#e0e2e5" fill-rule="evenodd" d="m59.842 684.513 1.273 1.35L254.07 503.72l-1.273-1.346zm-15.909-16.855 1.273 1.35 192.957-182.139-1.273-1.35z"/><path fill="#e0e2e5" fill-rule="evenodd" d="M48.83 497.804 230.972 690.76l1.349-1.274L50.18 496.53zm16.854-15.908 182.14 192.956 1.349-1.274-182.14-192.955z"/><path fill="#e0e2e5" fill-rule="evenodd" d="m16.025 594.377 265.233 7.648.053-1.853-265.233-7.649zm.668-23.167 265.233 7.65.053-1.854-265.233-7.65z"/><path fill="#e0e2e5" fill-rule="evenodd" d="m132.668 717.947 1.854.053 7.649-265.232-1.854-.057-7.65 265.236m23.167.667 1.854.053 7.649-265.232-1.855-.053z"/><path fill="#e0e2e5" fill-rule="evenodd" d="m30.106 645.299 112.083-66.28-.944-1.6-112.083 66.284z"/><path fill="#e0e2e5" fill-rule="evenodd" d="m19.06 620.268 128.445-21.385-.304-1.827-128.446 21.385.304 1.827M156.76 593.96l112.083-66.281-.944-1.596-112.084 66.28.944 1.597"/><path fill="#e0e2e5" fill-rule="evenodd" d="m150.803 574.322 128.446-21.38-.304-1.828-128.446 21.381z"/><path fill="#e0e2e5" fill-rule="evenodd" d="m155.675 578.878 1.597-.944-66.28-112.082-1.597.944z"/><path fill="#e0e2e5" fill-rule="evenodd" d="m135.808 584.196 1.828-.307-21.384-128.445-1.828.303zm71.205 121.334 1.597-.943-66.281-112.083-1.597.944z"/><path fill="#e0e2e5" fill-rule="evenodd" d="m181.752 715.938 1.828-.307-21.383-128.445-1.828.304zM156.188 579.42l108.077 72.63 1.035-1.54-108.077-72.629z"/><path fill="#e0e2e5" fill-rule="evenodd" d="m149.736 598.948 127 28.749.41-1.804-127-28.75zM32.705 520.872 140.781 593.5l1.035-1.543L33.74 519.33l-1.035 1.543"/><path fill="#e0e2e5" fill-rule="evenodd" d="m20.859 545.49 127 28.749.41-1.808-127.001-28.75zm61.783 155.466 1.54 1.035 72.63-108.08-1.54-1.034z"/><path fill="#e0e2e5" fill-rule="evenodd" d="m106.994 713.425 1.806.41 28.75-127.001-1.807-.41zm34.2-135.957 1.54 1.035 72.63-108.076-1.54-1.035z"/><g fill-rule="evenodd"><path fill="#e0e2e5" d="m160.454 584.548 1.807.41 28.75-127.001-1.807-.41z"/><path fill="#43464a" d="M59.532 490.906C7.268 540.24 4.884 622.895 54.218 675.159s131.99 54.648 184.254 5.314 54.647-131.99 5.313-184.253c-49.333-52.265-131.99-54.649-184.253-5.314m-12.857-13.619c59.775-56.426 154.307-53.697 210.73 6.076 56.424 59.777 53.698 154.306-6.076 210.732-59.775 56.422-154.307 53.697-210.731-6.08-56.423-59.772-53.697-154.306 6.077-210.728"/></g><path fill="#232628" fill-rule="evenodd" d="M65.468 497.194c-48.797 46.063-51.022 123.233-4.961 172.03 46.06 48.795 123.233 51.024 172.03 4.96 48.796-46.059 51.021-123.233 4.96-172.029s-123.233-51.02-172.03-4.961zm-6.032-6.387c52.32-49.387 135.064-47.003 184.45 5.318 49.387 52.317 47 135.063-5.319 184.45s-135.064 47-184.45-5.318c-49.386-52.32-47-135.066 5.32-184.45z"/><path fill="#8a9097" fill-rule="evenodd" d="M626.363 613.544c-15.385 0-27.855-12.47-27.855-27.855 0-15.38 12.47-27.85 27.855-27.85 15.38 0 27.85 12.47 27.85 27.85 0 15.385-12.47 27.855-27.85 27.855m0-62.278c-19.012 0-34.427 15.411-34.427 34.423s15.415 34.424 34.427 34.424 34.423-15.412 34.423-34.424-15.411-34.423-34.423-34.423"/><path fill="#232628" fill-rule="evenodd" d="m566.537 330.044-1.285 8.36a1.947 1.947 0 0 1-2.213 1.622l-20.237-3.116a1.943 1.943 0 0 1-1.622-2.212l1.285-8.361a1.947 1.947 0 0 1 2.213-1.621l20.237 3.116a1.943 1.943 0 0 1 1.622 2.212"/><path fill="#d0d4d8" fill-rule="evenodd" d="M566.764 328.823 565.1 339.63a.7.7 0 0 1-.8.587l-2.448-.377a.7.7 0 0 1-.587-.801l1.664-10.807a.7.7 0 0 1 .8-.587l2.448.377c.383.059.648.42.587.801"/><path fill="#232628" fill-rule="evenodd" d="M532.584 357.359c-3.772 1.061-8.396 1.659-9.457-2.11l-7.433-31.595c-1.065-3.769 1.152-7.721 4.92-8.783 3.771-1.062 7.72 1.154 8.786 4.923l11.795 29.848c1.061 3.769-4.844 6.655-8.611 7.717"/><path fill="#232628" fill-rule="evenodd" d="M560.916 318.274c.913 3.808 1.327 8.452-2.479 9.364l-31.865 6.184c-3.809.913-7.671-1.457-8.58-5.265-.914-3.808 1.455-7.67 5.264-8.582l30.288-10.61c3.81-.912 6.459 5.1 7.372 8.909"/><path fill="#595e62" fill-rule="evenodd" d="m576.456 303.985-68.236 21.728a.6.6 0 0 1-.75-.388l-3.215-10.099a.595.595 0 0 1 .387-.75l68.236-21.728c.315-.1.652.075.75.388l3.215 10.099a.595.595 0 0 1-.387.75"/><path fill="#232628" fill-rule="evenodd" d="M496.254 325.51c-4.374 0-7.922-4.229-7.922-9.446s3.548-9.446 7.922-9.446l58.393 5.606s12.417.003 9.775 10.42c-.705 2.787-2.9 4.359-5.439 5.051-19.778-2.27-62.73-2.185-62.73-2.185"/><path fill="#595e62" fill-rule="evenodd" d="M504.175 316.064c0 5.217-3.547 9.446-7.921 9.446s-7.922-4.229-7.922-9.446 3.548-9.446 7.922-9.446 7.921 4.23 7.921 9.446"/><path fill="#232628" fill-rule="evenodd" d="m287.335 413.319-22.599-73.333h.028a3.4 3.4 0 0 0 3.399-3.398v-5.351a3.4 3.4 0 0 0-3.4-3.399h-25.671a3.4 3.4 0 0 0-3.398 3.399v5.35a3.4 3.4 0 0 0 3.398 3.4h11.753l23.803 77.243zm-87.697-109.064c.845.223 25.407 5.518 49.658 5.518h53.396s14.95-.356 14.95 5.874c-.089 4.182-6.585 5.873-8.899 6.051-7.386 0-20.201-6.23-42.36-2.136-3.382.712-22.516 5.34-29.902 6.408-16.197 1.512-37.377-14.773-37.377-14.773s-1.78-1.803-1.78-4.094.823-3.226 2.314-2.848"/><path fill="#232628" fill-rule="evenodd" d="m266.984 332.343-1.383-2.423 25.453-14.506 1.383 2.423zm-30.164 4.121-17.888-15.31 1.814-2.119 17.888 15.31-1.814 2.118"/><path fill="#e0e2e5" fill-rule="evenodd" d="m537.2 684.513 1.274 1.35L731.429 503.72l-1.27-1.346zm-15.908-16.855 1.274 1.35 192.956-182.139-1.274-1.35z"/><path fill="#e0e2e5" fill-rule="evenodd" d="M526.19 497.804 708.33 690.76l1.35-1.274L527.539 496.53l-1.35 1.274m16.856-15.908 182.138 192.956 1.35-1.274L544.39 480.623z"/><path fill="#e0e2e5" fill-rule="evenodd" d="m493.385 594.377 265.232 7.648.053-1.853-265.232-7.649zm.667-23.167 265.232 7.65.053-1.854-265.232-7.65z"/><path fill="#e0e2e5" fill-rule="evenodd" d="m610.027 717.947 1.853.053 7.649-265.232-1.854-.057zm23.166.667 1.853.053 7.65-265.232-1.854-.053-7.65 265.232"/><path fill="#e0e2e5" fill-rule="evenodd" d="m507.465 645.299 112.083-66.28-.944-1.6-112.082 66.284z"/><path fill="#e0e2e5" fill-rule="evenodd" d="m496.42 620.268 128.446-21.385-.307-1.827-128.445 21.385zm137.697-26.308 112.086-66.281-.948-1.596-112.082 66.28z"/><path fill="#e0e2e5" fill-rule="evenodd" d="m628.163 574.322 128.445-21.38-.303-1.828-128.445 21.381z"/><path fill="#e0e2e5" fill-rule="evenodd" d="m633.034 578.878 1.6-.944-66.281-112.082-1.6.944z"/><path fill="#e0e2e5" fill-rule="evenodd" d="m613.169 584.196 1.827-.307-21.385-128.445-1.827.303zm71.204 121.334 1.596-.943-66.28-112.083-1.597.944z"/><path fill="#e0e2e5" fill-rule="evenodd" d="m659.11 715.938 1.828-.307-21.381-128.445-1.827.304zM633.55 579.42l108.075 72.63 1.035-1.54-108.076-72.629z"/><path fill="#e0e2e5" fill-rule="evenodd" d="m627.094 598.948 127.001 28.749.41-1.804-127.001-28.75zm-117.028-78.076L618.142 593.5l1.034-1.543L511.1 519.33l-1.034 1.543"/><path fill="#e0e2e5" fill-rule="evenodd" d="m498.217 545.49 127.001 28.749.41-1.808-127.001-28.75zm61.786 155.466 1.538 1.035 72.63-108.08-1.54-1.034z"/><path fill="#e0e2e5" fill-rule="evenodd" d="m584.351 713.425 1.808.41 28.75-127.001-1.805-.41zm34.2-135.957 1.543 1.035 72.629-108.076-1.539-1.035z"/><g fill-rule="evenodd"><path fill="#e0e2e5" d="m637.813 584.548 1.808.41 28.75-127.001-1.809-.41z"/><path fill="#43464a" d="M536.893 490.906c-52.264 49.334-54.648 131.989-5.314 184.253s131.99 54.648 184.253 5.314c52.265-49.335 54.649-131.99 5.314-184.253-49.334-52.265-131.989-54.649-184.253-5.314m-12.856-13.619c59.772-56.426 154.306-53.697 210.728 6.076 56.426 59.777 53.697 154.306-6.076 210.732-59.777 56.422-154.306 53.697-210.732-6.08-56.422-59.772-53.697-154.306 6.08-210.728"/></g><path fill="#232628" fill-rule="evenodd" d="M542.829 497.194c-48.8 46.063-51.025 123.233-4.962 172.03 46.06 48.795 123.234 51.024 172.03 4.96 48.796-46.059 51.02-123.233 4.961-172.029-46.063-48.796-123.233-51.02-172.03-4.961zm178.416-1.07c49.387 52.318 47.003 135.064-5.318 184.451s-135.063 47-184.45-5.318c-49.387-52.32-47-135.066 5.318-184.45 52.32-49.387 135.066-47.003 184.45 5.318z"/><path fill="#8a9097" fill-rule="evenodd" d="M640.156 585.69c0 7.618-6.179 13.792-13.793 13.792-7.619 0-13.793-6.174-13.793-13.793 0-7.614 6.174-13.793 13.793-13.793 7.614 0 13.793 6.179 13.793 13.793"/><path fill="#b2b9c0" fill-rule="evenodd" d="M149.478 616.315a1.636 1.636 0 0 1 1.675 1.576c.421-.03.843-.064 1.26-.11a1.637 1.637 0 1 1 3.233-.53q.62-.136 1.231-.288a1.639 1.639 0 0 1 3.13-.974q.593-.224 1.175-.47a1.64 1.64 0 0 1 2.961-1.403 30 30 0 0 0 1.1-.621 1.639 1.639 0 0 1 2.736-1.804q.51-.371 1.004-.77a1.638 1.638 0 0 1 2.459-2.16q.453-.443.889-.902a1.64 1.64 0 0 1-.158-2.293 1.64 1.64 0 0 1 2.293-.19q.387-.5.757-1.012a1.64 1.64 0 0 1 1.77-2.76q.315-.543.608-1.106a1.638 1.638 0 0 1 1.367-2.98c.156-.39.309-.78.45-1.182a1.638 1.638 0 0 1 .936-3.138c.1-.41.196-.819.28-1.232a1.64 1.64 0 0 1 .489-3.24c.041-.418.07-.842.095-1.263a1.638 1.638 0 0 1 .039-3.275q-.024-.636-.073-1.262a1.638 1.638 0 0 1-.415-3.248q-.11-.625-.244-1.243a1.64 1.64 0 0 1-1.999-1.149 1.64 1.64 0 0 1 1.132-2.009 33 33 0 0 0-.415-1.197 1.637 1.637 0 0 1-1.302-3.006 33 33 0 0 0-.58-1.126 1.637 1.637 0 0 1-2.24-.553 1.64 1.64 0 0 1 .534-2.244 31 31 0 0 0-.735-1.027 1.638 1.638 0 0 1-2.075-2.536q-.426-.464-.872-.917a1.64 1.64 0 0 1-2.298.08 1.64 1.64 0 0 1-.108-2.301c-.324-.27-.655-.53-.99-.789a1.638 1.638 0 0 1-2.692-1.868 36 36 0 0 0-1.088-.64 1.64 1.64 0 0 1-2.19.712 1.64 1.64 0 0 1-.737-2.187 39 39 0 0 0-1.167-.485 1.64 1.64 0 0 1-3.105-1.046 33 33 0 0 0-1.223-.323 1.638 1.638 0 0 1-3.22-.602q-.624-.087-1.256-.152a1.64 1.64 0 0 1-1.711 1.547 1.64 1.64 0 0 1-1.562-1.699c-.423 0-.844.02-1.264.035a1.638 1.638 0 0 1-3.262.303q-.628.09-1.248.205a1.64 1.64 0 0 1-1.22 1.955 1.64 1.64 0 0 1-1.968-1.201 33 33 0 0 0-1.207.375 1.638 1.638 0 0 1-3.051 1.198q-.578.254-1.144.538a1.637 1.637 0 1 1-2.853 1.607 36 36 0 0 0-1.059.694 1.64 1.64 0 0 1-.32 2.281 1.636 1.636 0 0 1-2.281-.291q-.485.408-.953.833a1.64 1.64 0 0 1 .001 2.305 1.64 1.64 0 0 1-2.303.026c-.28.315-.558.633-.826.956.713.545.86 1.561.323 2.285a1.64 1.64 0 0 1-2.282.341q-.351.529-.68 1.07a1.636 1.636 0 0 1 .638 2.213 1.64 1.64 0 0 1-2.214.66q-.273.567-.523 1.148c.836.326 1.257 1.266.94 2.107s-1.254 1.27-2.097.959a34 34 0 0 0-.358 1.213 1.64 1.64 0 0 1-.715 3.199q-.105.62-.19 1.25a1.639 1.639 0 0 1-.265 3.263 36 36 0 0 0-.021 1.267 1.637 1.637 0 0 1 1.713 1.539 1.64 1.64 0 0 1-1.527 1.732c.046.42.104.838.165 1.25a1.64 1.64 0 0 1 .64 3.215q.159.614.339 1.22a1.638 1.638 0 0 1 1.085 3.09c.16.394.33.776.504 1.163a1.64 1.64 0 0 1 2.19.709 1.64 1.64 0 0 1-.683 2.198q.319.546.658 1.08a1.634 1.634 0 0 1 2.265.402c.52.732.352 1.74-.368 2.267q.39.5.8.982c.66-.607 1.683-.573 2.299.08s.59 1.674-.05 2.3q.456.439.928.86a1.636 1.636 0 0 1 2.289-.242c.701.56.818 1.58.268 2.289q.512.37 1.038.724a1.637 1.637 0 0 1 2.818 1.668c.372.197.746.394 1.127.576a1.64 1.64 0 0 1 2.14-.876 1.64 1.64 0 0 1 .886 2.134q.594.215 1.199.402a1.638 1.638 0 1 1 3.17.826c.412.087.828.16 1.245.228a1.64 1.64 0 0 1 1.813-1.414 1.64 1.64 0 0 1 1.44 1.793c.212.011.421.034.635.045.21.008.419.008.629.011a1.637 1.637 0 0 1 1.599-1.648"/><path fill="#979ea4" fill-rule="evenodd" d="M149.34 610.535a1.33 1.33 0 0 1 1.362 1.28c.342-.026.684-.052 1.023-.09a1.331 1.331 0 0 1 2.628-.429q.504-.11 1.001-.235a1.33 1.33 0 0 1 .877-1.66c.7-.22 1.444.167 1.666.868.323-.121.64-.25.956-.379a1.332 1.332 0 0 1 2.406-1.14q.453-.246.894-.509a1.33 1.33 0 1 1 2.223-1.463q.414-.306.817-.625a1.332 1.332 0 0 1 1.999-1.759q.367-.36.721-.731a1.333 1.333 0 0 1-.128-1.865 1.335 1.335 0 0 1 1.864-.156q.315-.402.615-.822a1.331 1.331 0 0 1 1.438-2.24q.256-.446.495-.902a1.33 1.33 0 0 1 1.11-2.418c.127-.319.251-.637.366-.963a1.33 1.33 0 0 1 .761-2.55c.08-.334.159-.668.227-1.002a1.333 1.333 0 0 1 .398-2.634c.034-.34.056-.682.077-1.027a1.33 1.33 0 0 1-1.296-1.345 1.333 1.333 0 0 1 1.328-1.316 26 26 0 0 0-.06-1.027 1.33 1.33 0 0 1-.337-2.638q-.089-.507-.199-1.008a1.333 1.333 0 0 1-.704-2.57 25 25 0 0 0-.337-.97 1.333 1.333 0 0 1-1.059-2.445 25 25 0 0 0-.47-.913 1.331 1.331 0 0 1-1.387-2.275q-.291-.422-.597-.833a1.333 1.333 0 0 1-1.686-2.062q-.348-.38-.71-.743a1.33 1.33 0 0 1-1.868.06 1.33 1.33 0 0 1-.087-1.868 24 24 0 0 0-.804-.64 1.33 1.33 0 0 1-2.188-1.517c-.29-.182-.586-.352-.885-.523a1.336 1.336 0 0 1-1.78.58 1.335 1.335 0 0 1-.598-1.778q-.47-.205-.95-.394a1.336 1.336 0 0 1-1.682.823 1.335 1.335 0 0 1-.84-1.676q-.494-.137-.994-.257a1.331 1.331 0 0 1-2.617-.49c-.34-.045-.678-.09-1.021-.125a1.331 1.331 0 0 1-2.66-.125q-.515.007-1.028.03a1.332 1.332 0 0 1-2.65.243q-.51.075-1.015.17c.16.71-.28 1.418-.99 1.585a1.33 1.33 0 0 1-1.6-.974c-.33.099-.658.197-.982.307a1.333 1.333 0 0 1-.76 1.713 1.334 1.334 0 0 1-1.72-.743q-.468.212-.929.44a1.332 1.332 0 0 1-2.319 1.308q-.436.272-.86.56c.434.588.32 1.414-.26 1.858-.58.44-1.405.334-1.855-.239-.261.224-.521.444-.774.675.512.52.515 1.353.001 1.876a1.33 1.33 0 0 1-1.871.019c-.229.258-.454.515-.672.78a1.331 1.331 0 1 1-1.592 2.134q-.285.427-.553.865c.636.36.87 1.16.519 1.804-.351.64-1.155.88-1.8.534a25 25 0 0 0-.425.933 1.334 1.334 0 0 1-.94 2.494q-.155.487-.291.985c.708.167 1.152.876.992 1.588a1.333 1.333 0 0 1-1.573 1.009q-.086.504-.154 1.016a1.33 1.33 0 1 1-.215 2.653c-.01.345-.02.69-.018 1.03a1.331 1.331 0 0 1 .152 2.657c.037.342.084.683.133 1.02a1.331 1.331 0 0 1 .521 2.612q.128.5.275.989a1.333 1.333 0 0 1 1.685.819 1.334 1.334 0 0 1-.803 1.694q.195.477.41.944a1.332 1.332 0 0 1 1.224 2.365q.26.443.535.875a1.334 1.334 0 0 1 1.841.326 1.334 1.334 0 0 1-.3 1.846q.32.405.652.796a1.33 1.33 0 0 1 1.867.065c.5.53.48 1.36-.04 1.868q.37.357.754.698a1.331 1.331 0 1 1 2.078 1.664q.416.302.843.587a1.335 1.335 0 0 1 1.818-.455c.63.375.839 1.183.473 1.816.303.159.606.318.916.466a1.33 1.33 0 0 1 1.74-.709c.676.28.996 1.054.719 1.732q.483.175.974.326a1.331 1.331 0 0 1 2.577.671c.335.072.673.13 1.011.186a1.332 1.332 0 0 1 2.644.307c.173.011.343.03.516.038.171.007.34.004.512.011a1.33 1.33 0 0 1 1.299-1.342"/><path fill="#8a9097" fill-rule="evenodd" d="M149.193 604.41a1.003 1.003 0 0 1 1.03.966c.258-.019.517-.038.773-.068a1.003 1.003 0 0 1 .832-1.145 1.005 1.005 0 0 1 1.155.819q.381-.079.756-.175a1.005 1.005 0 0 1 .663-1.254 1.004 1.004 0 0 1 1.26.656c.243-.091.483-.19.722-.289a1.01 1.01 0 0 1 .482-1.334 1.01 1.01 0 0 1 1.337.474q.342-.187.676-.387a1.007 1.007 0 0 1 1.68-1.106q.314-.23.617-.47a1.007 1.007 0 0 1 1.51-1.33q.279-.273.547-.554a1.01 1.01 0 0 1-.097-1.41c.36-.417.987-.466 1.409-.114q.238-.306.464-.625a1.007 1.007 0 0 1-.293-1.384 1.007 1.007 0 0 1 1.38-.307c.13-.227.254-.45.375-.682a1.007 1.007 0 0 1 .84-1.83q.144-.36.276-.725a1.007 1.007 0 0 1 .575-1.929 20 20 0 0 0 .172-.758 1.007 1.007 0 0 1 .3-1.99q.037-.385.058-.777a1.005 1.005 0 0 1 .024-2.009 20 20 0 0 0-.044-.777 1.01 1.01 0 0 1-1.113-.871 1.01 1.01 0 0 1 .858-1.126 21 21 0 0 0-.15-.762 1.01 1.01 0 0 1-1.228-.705 1.01 1.01 0 0 1 .695-1.236 21 21 0 0 0-.254-.735 1.006 1.006 0 0 1-.8-1.846 20 20 0 0 0-.356-.69 1.008 1.008 0 0 1-1.05-1.72 23 23 0 0 0-.45-.633c-.43.345-1.057.28-1.407-.148a1.003 1.003 0 0 1 .132-1.406 19 19 0 0 0-.536-.565 1.007 1.007 0 0 1-1.478-1.365 20 20 0 0 0-.608-.485 1.01 1.01 0 0 1-1.392.247 1.007 1.007 0 0 1-.262-1.391 19 19 0 0 0-.669-.398 1.01 1.01 0 0 1-1.345.44 1.01 1.01 0 0 1-.453-1.342 16 16 0 0 0-.717-.3 1.01 1.01 0 0 1-1.272.622 1.01 1.01 0 0 1-.635-1.266 24 24 0 0 0-.752-.197 1.005 1.005 0 0 1-1.978-.368 13 13 0 0 0-.771-.095 1.006 1.006 0 0 1-2.01-.095 29 29 0 0 0-.778.023c.043.55-.36 1.031-.909 1.084a1.01 1.01 0 0 1-1.094-.898q-.387.057-.767.125a1.01 1.01 0 0 1-.75 1.201 1.01 1.01 0 0 1-1.208-.739q-.375.113-.742.232a1.006 1.006 0 1 1-1.874.735q-.356.158-.703.333a1.007 1.007 0 0 1-1.753.985c-.22.141-.437.281-.65.43a1.003 1.003 0 0 1-.197 1.398 1.004 1.004 0 0 1-1.402-.178q-.297.25-.585.511c.387.39.389 1.024 0 1.414a1.005 1.005 0 0 1-1.414.02 19 19 0 0 0-.508.587 1.007 1.007 0 0 1-1.203 1.614q-.215.32-.418.656a1.006 1.006 0 0 1-.968 1.763q-.168.351-.322.708a1.007 1.007 0 0 1-.71 1.884q-.118.369-.22.743c.535.129.87.663.75 1.201a1.004 1.004 0 0 1-1.19.762c-.042.258-.082.512-.116.77a1.006 1.006 0 0 1-.163 2.004c-.007.262-.015.52-.013.778a1.006 1.006 0 0 1 .115 2.009c.028.261.063.515.1.773a1.005 1.005 0 0 1 1.176.788 1.01 1.01 0 0 1-.781 1.187q.096.376.207.746a1.007 1.007 0 0 1 .667 1.9q.148.358.31.712a1.008 1.008 0 0 1 .925 1.789q.196.334.405.663a1.005 1.005 0 0 1 1.165 1.637q.24.308.492.603a1.01 1.01 0 0 1 1.412.05c.378.401.362 1.03-.031 1.413q.28.269.57.527a1.005 1.005 0 0 1 1.571 1.258c.21.152.422.304.638.444.286-.47.898-.626 1.374-.341.475.28.633.89.357 1.368.229.121.458.243.692.353a1.007 1.007 0 0 1 1.859.777c.243.087.49.166.737.246a1.006 1.006 0 0 1 1.948.508q.379.074.764.14a1.007 1.007 0 0 1 1.999.227q.194.019.39.03c.129.005.257.005.386.008-.003-.55.432-1 .982-1.012"/><path fill="#b2b9c0" fill-rule="evenodd" d="M143.105 629.88a1.317 1.317 0 0 1 1.857-1.853q.354-.632.586-1.304a1.32 1.32 0 0 1-1.055-1.751 1.315 1.315 0 0 1 1.483-.846 8 8 0 0 0-.145-1.425 1.32 1.32 0 0 1-1.792-.985 1.316 1.316 0 0 1 .854-1.475 8 8 0 0 0-.764-1.087q-.034-.039-.07-.076a1.318 1.318 0 0 1-2.04-1.66 7.7 7.7 0 0 0-1.303-.588 1.317 1.317 0 0 1-2.597-.428 7.5 7.5 0 0 0-1.425.148 1.316 1.316 0 0 1-2.46.936c-.376.22-.742.47-1.087.762-.026.023-.048.049-.074.072a1.317 1.317 0 0 1-1.662 2.04q-.356.628-.587 1.303a1.32 1.32 0 0 1 1.055 1.751 1.315 1.315 0 0 1-1.483.845q.007.719.145 1.425a1.32 1.32 0 0 1 1.792.985 1.316 1.316 0 0 1-.854 1.475c.222.375.471.743.764 1.088q.034.04.07.072a1.318 1.318 0 0 1 2.04 1.664q.628.354 1.303.587a1.322 1.322 0 0 1 1.75-1.057c.618.224.964.86.847 1.486a8 8 0 0 0 1.425-.148 1.322 1.322 0 0 1 .986-1.793 1.32 1.32 0 0 1 1.473.857 7.7 7.7 0 0 0 1.088-.766c.026-.019.048-.045.074-.068a1.3 1.3 0 0 1-.194-.186m1.412 30.906a1.57 1.57 0 0 1 .954-2.005 1.57 1.57 0 0 1 1.896.724 9.4 9.4 0 0 0 1.203-1.205 1.57 1.57 0 0 1-.437-2.392 1.56 1.56 0 0 1 2.01-.318 9.4 9.4 0 0 0 .438-1.65 1.574 1.574 0 0 1-1.581-1.857 1.57 1.57 0 0 1 1.575-1.28 9.4 9.4 0 0 0-.393-1.536c-.014-.038-.032-.072-.046-.11a1.57 1.57 0 0 1-2.295-.815 1.57 1.57 0 0 1 .723-1.898 9 9 0 0 0-1.205-1.202 1.57 1.57 0 0 1-2.712-1.573 9.4 9.4 0 0 0-1.65-.44 1.568 1.568 0 0 1-3.135.008 9 9 0 0 0-1.535.394q-.056.02-.111.046a1.568 1.568 0 0 1-2.713 1.573 9.4 9.4 0 0 0-1.203 1.201 1.57 1.57 0 0 1 .437 2.395 1.57 1.57 0 0 1-2.009.319 9.3 9.3 0 0 0-.44 1.649 1.568 1.568 0 0 1 .007 3.135 9.4 9.4 0 0 0 .393 1.534c.013.038.032.076.046.114a1.572 1.572 0 0 1 2.295.815 1.565 1.565 0 0 1-.723 1.895q.552.665 1.205 1.205a1.573 1.573 0 0 1 2.395-.44c.595.509.712 1.365.318 2.013a9 9 0 0 0 1.648.436 1.573 1.573 0 0 1 1.855-1.58 1.57 1.57 0 0 1 1.28 1.577 9.4 9.4 0 0 0 1.535-.395l.112-.045a1.5 1.5 0 0 1-.137-.292"/><path fill="#2e3033" fill-rule="evenodd" d="M341.264 655.802c-.278 0-.527-.03-.777-.144a2.4 2.4 0 0 1-.638-.444 1.97 1.97 0 0 1-.585-1.387c0-.5.223-1 .585-1.39.75-.721 2.054-.721 2.804 0 .36.39.556.89.556 1.39 0 .527-.195 1.027-.583 1.387-.167.194-.39.334-.612.444-.25.114-.5.144-.75.144m-194.06-90.065a1.96 1.96 0 0 1 1.805-2.107c1.083-.087 2.027.693 2.11 1.774a1.95 1.95 0 0 1-1.777 2.141h-.166a1.97 1.97 0 0 1-1.972-1.808m7.332 2.058c-1.083-.057-1.889-1-1.833-2.084a1.93 1.93 0 0 1 2.083-1.835c1.083.057 1.887.974 1.833 2.085-.056 1.027-.917 1.834-1.973 1.834zm5.498.307a1.964 1.964 0 0 1-1.861-2.058c.084-1.11 1-1.918 2.082-1.86 1.084.056 1.918 1 1.862 2.084-.055 1.027-.945 1.86-1.973 1.86-.027 0-.082 0-.11-.026m5.499.33c-1.083-.057-1.917-1-1.862-2.085.056-1.08 1-1.914 2.083-1.86 1.084.087 1.917 1 1.862 2.084-.084 1.058-.945 1.861-1.972 1.861zm-23.66-1.22c-.307-1.058.276-2.142 1.332-2.445 1.027-.334 2.139.277 2.444 1.304.305 1.057-.278 2.141-1.333 2.444-.167.057-.36.084-.556.084-.833 0-1.638-.557-1.888-1.387zm29.158 1.527a1.96 1.96 0 0 1-1.861-2.058c.055-1.107 1-1.914 2.082-1.861 1.084.057 1.918 1 1.834 2.085-.056 1.027-.917 1.86-1.944 1.86-.055 0-.083-.026-.11-.026zm5.47.334c-1.083-.088-1.915-1.001-1.831-2.085a1.957 1.957 0 0 1 2.054-1.861c1.083.057 1.916 1 1.86 2.085a1.953 1.953 0 0 1-1.943 1.86zm5.5.307a1.99 1.99 0 0 1-1.862-2.085 1.943 1.943 0 0 1 2.083-1.834 1.96 1.96 0 0 1 1.86 2.058 1.98 1.98 0 0 1-1.97 1.86H182zm5.498.333c-1.082-.087-1.917-1.004-1.86-2.084.055-1.084.999-1.918 2.082-1.865 1.083.057 1.916 1 1.833 2.084a1.954 1.954 0 0 1-1.944 1.865zm5.471.303a1.944 1.944 0 0 1-1.833-2.084 1.923 1.923 0 0 1 2.055-1.835 1.94 1.94 0 0 1 1.86 2.058 1.953 1.953 0 0 1-1.944 1.861zm5.499.307a1.97 1.97 0 0 1-1.861-2.084 1.977 1.977 0 0 1 2.083-1.835c1.082.057 1.916 1 1.86 2.085-.055 1.027-.943 1.861-1.971 1.861-.029 0-.056 0-.111-.027m5.498.334a1.99 1.99 0 0 1-1.86-2.085c.055-1.084.999-1.918 2.082-1.86 1.082.083 1.916.996 1.86 2.084-.083 1.054-.943 1.861-1.97 1.861zm-67.01-.974c-.527-.974-.167-2.164.777-2.668.972-.527 2.167-.194 2.666.78.527.944.167 2.134-.777 2.665-.307.167-.612.25-.945.25-.694 0-1.36-.387-1.721-1.027m72.508 1.277a1.97 1.97 0 0 1-1.86-2.084c.056-1.08 1-1.888 2.083-1.835a1.927 1.927 0 0 1 1.832 2.085 1.947 1.947 0 0 1-1.943 1.834zm5.472.334c-1.084-.087-1.918-1-1.833-2.085a1.96 1.96 0 0 1 2.054-1.86c1.083.056 1.916 1 1.862 2.084a1.96 1.96 0 0 1-1.973 1.86h-.11zm5.499.307a1.99 1.99 0 0 1-1.862-2.085 1.943 1.943 0 0 1 2.082-1.834 1.96 1.96 0 0 1 1.862 2.058 1.98 1.98 0 0 1-1.973 1.86h-.11zm5.498.303a1.96 1.96 0 0 1-1.862-2.054c.056-1.084 1-1.918 2.083-1.861 1.083.053 1.917.997 1.862 2.084-.084 1.027-.945 1.861-1.972 1.861-.056 0-.084 0-.11-.03zm5.47.334c-1.083-.057-1.888-1.001-1.834-2.085a1.97 1.97 0 0 1 2.084-1.861c1.083.083 1.888 1 1.833 2.085a1.96 1.96 0 0 1-1.972 1.86h-.111zm5.498.307a1.945 1.945 0 0 1-1.831-2.085c.054-1.08.97-1.888 2.054-1.835a1.97 1.97 0 0 1 1.86 2.085c-.055 1.027-.944 1.861-1.971 1.861-.027 0-.056-.026-.112-.026m5.499.333a1.99 1.99 0 0 1-1.86-2.085c.083-1.08.999-1.917 2.082-1.86 1.084.053 1.916.996 1.86 2.084-.082 1.054-.943 1.861-1.971 1.861zm5.499.303a1.965 1.965 0 0 1-1.86-2.08 1.94 1.94 0 0 1 2.082-1.835 1.915 1.915 0 0 1 1.833 2.054 1.95 1.95 0 0 1-1.944 1.861zm5.47.334c-1.082-.084-1.915-1-1.86-2.085.083-1.08 1-1.914 2.083-1.86 1.082.056 1.916 1 1.86 2.084a1.96 1.96 0 0 1-1.97 1.86h-.112zm5.5.307c-1.084-.057-1.917-1.005-1.86-2.085a1.94 1.94 0 0 1 2.082-1.834 1.96 1.96 0 0 1 1.86 2.058 1.98 1.98 0 0 1-1.972 1.86h-.11zm-126.107-.584a1.95 1.95 0 0 1 .111-2.778c.805-.72 2.056-.667 2.777.11.75.807.695 2.058-.11 2.778v.027a2 2 0 0 1-1.334.504 1.89 1.89 0 0 1-1.444-.64zm131.605.887a1.96 1.96 0 0 1-1.86-2.054 1.963 1.963 0 0 1 2.082-1.861 1.94 1.94 0 0 1 1.832 2.084c-.055 1.028-.915 1.861-1.943 1.861-.055 0-.084 0-.111-.03m5.47.334a1.943 1.943 0 0 1-1.832-2.081 1.963 1.963 0 0 1 2.054-1.865c1.112.083 1.916 1 1.86 2.085a1.95 1.95 0 0 1-1.942 1.86h-.14zm5.5.307a1.944 1.944 0 0 1-1.834-2.085 1.923 1.923 0 0 1 2.055-1.834 1.96 1.96 0 1 1-.111 3.92zm5.498.333c-1.083-.087-1.917-1.004-1.862-2.084.056-1.08 1.001-1.914 2.083-1.861 1.084.053 1.918 1 1.862 2.084-.084 1.054-.945 1.861-1.973 1.861zm5.499.303a1.965 1.965 0 0 1-1.862-2.08 1.943 1.943 0 0 1 2.083-1.835 1.916 1.916 0 0 1 1.833 2.058 1.95 1.95 0 0 1-1.943 1.857zm5.47.334c-1.084-.083-1.916-1-1.833-2.08a1.957 1.957 0 0 1 2.055-1.862c1.084.053 1.916.997 1.86 2.085a1.98 1.98 0 0 1-1.97 1.857zm5.498.307c-1.083-.057-1.916-1-1.86-2.085.083-1.08 1-1.914 2.083-1.86 1.083.083 1.916 1 1.86 2.084a1.98 1.98 0 0 1-1.971 1.861zm5.499.303c-1.082-.057-1.916-1-1.86-2.08.055-1.085.999-1.888 2.082-1.835 1.084.057 1.916 1 1.86 2.085a1.99 1.99 0 0 1-1.97 1.83zm5.471.334a1.943 1.943 0 0 1-1.833-2.081 1.957 1.957 0 0 1 2.055-1.861c1.111.08 1.944.997 1.861 2.085a1.957 1.957 0 0 1-1.972 1.857zm5.499.307a1.944 1.944 0 0 1-1.833-2.085c.055-1.08.972-1.914 2.055-1.83a1.956 1.956 0 0 1 1.86 2.054 1.954 1.954 0 0 1-1.944 1.86h-.138zm5.498.333c-1.083-.083-1.916-1-1.86-2.084.056-1.08 1-1.914 2.083-1.861 1.082.057 1.916 1 1.86 2.084-.084 1.054-.944 1.861-1.971 1.861zm5.499.304c-1.11-.084-1.916-1.001-1.86-2.081.055-1.084.999-1.918 2.082-1.861 1.082.083 1.916.997 1.832 2.084a1.95 1.95 0 0 1-1.943 1.858zm5.47.307c-1.082-.057-1.916-.975-1.832-2.055a1.965 1.965 0 0 1 2.083-1.86c1.055.052 1.887.996 1.832 2.084a1.944 1.944 0 0 1-1.944 1.83h-.14zm-200.558-.14c-.917-.554-1.195-1.778-.639-2.692.583-.917 1.805-1.22 2.721-.64a2.01 2.01 0 0 1 .64 2.721 2.04 2.04 0 0 1-1.694.917c-.334 0-.695-.083-1.028-.307zm206.058.473c-1.084-.083-1.918-1-1.862-2.085.084-1.08 1-1.914 2.083-1.86 1.083.056 1.916 1 1.862 2.084a1.98 1.98 0 0 1-1.974 1.861zm-207.863 4.719a1.924 1.924 0 0 1-1.306-2.44 1.993 1.993 0 0 1 2.472-1.309c1.028.334 1.61 1.445 1.277 2.472a1.96 1.96 0 0 1-1.86 1.39c-.195 0-.39-.03-.583-.113m-.39 5.5a2 2 0 0 1-1.944-2.002c.029-1.08.945-1.94 2.027-1.94a1.963 1.963 0 0 1 1.918 2.024 1.97 1.97 0 0 1-1.973 1.918h-.027zm-1.25 3.945c-.249-1.057.39-2.141 1.445-2.391a2 2 0 0 1 2.389 1.474c.25 1.054-.418 2.108-1.473 2.358a2.2 2.2 0 0 1-.443.057c-.89 0-1.695-.61-1.918-1.498m1.89 5.527a1.95 1.95 0 0 1 1.027-2.585c.973-.444 2.139 0 2.582 1 .445 1-.027 2.168-1.026 2.581-.251.11-.528.167-.779.167-.75 0-1.47-.443-1.804-1.163m2.61 5.082c-.555-.947-.223-2.141.723-2.698.943-.523 2.138-.22 2.665.724v.03c.555.913.223 2.134-.722 2.665a1.8 1.8 0 0 1-.973.276 1.96 1.96 0 0 1-1.693-.997m2.972 4.776a1.946 1.946 0 0 1 .555-2.725c.888-.61 2.11-.36 2.721.557.612.89.361 2.111-.554 2.722a1.9 1.9 0 0 1-1.084.333c-.639 0-1.25-.307-1.638-.887m3.138 4.579c-.639-.887-.416-2.111.499-2.748.89-.61 2.111-.39 2.721.5.612.89.418 2.111-.499 2.752-.333.22-.723.333-1.11.333a1.95 1.95 0 0 1-1.611-.837m3.055 4.499c-.585-.917-.334-2.138.583-2.718.915-.583 2.138-.333 2.722.58.582.917.332 2.138-.584 2.722a1.85 1.85 0 0 1-1.056.307 1.96 1.96 0 0 1-1.665-.891m2.526 4.499c-.416-.997.028-2.138 1.028-2.581s2.165.026 2.583 1.027c.443 1-.028 2.138-1 2.581a2 2 0 0 1-.806.167c-.75 0-1.471-.444-1.805-1.194m2.111 6.5a1.987 1.987 0 0 1-1.528-2.335 1.975 1.975 0 0 1 2.334-1.527 1.973 1.973 0 0 1 1.527 2.335 1.98 1.98 0 0 1-1.916 1.554c-.139 0-.278 0-.417-.027m-2.333 5c-.971-.474-1.389-1.642-.915-2.612a1.95 1.95 0 0 1 2.61-.944 1.99 1.99 0 0 1 .943 2.608v.03a1.99 1.99 0 0 1-2.638.918m-2.638 4.828a1.94 1.94 0 0 1-.778-2.664 1.945 1.945 0 0 1 2.666-.777c.945.527 1.306 1.72.778 2.668a1.95 1.95 0 0 1-1.722 1.024c-.334 0-.666-.08-.944-.25zm-2.694 4.807c-.944-.527-1.305-1.721-.777-2.665s1.722-1.308 2.666-.78a1.98 1.98 0 0 1 .805 2.668 2.02 2.02 0 0 1-1.749 1.027c-.306 0-.639-.084-.945-.25m-2.388 4.972c-.972-.447-1.417-1.64-.944-2.611.444-1 1.61-1.418 2.61-.974.973.474 1.416 1.641.944 2.611a1.94 1.94 0 0 1-1.777 1.137q-.416.001-.833-.163m-1.471 5.303a2.01 2.01 0 0 1-1.5-2.361 2.01 2.01 0 0 1 2.36-1.501 2.01 2.01 0 0 1 1.5 2.361 1.98 1.98 0 0 1-1.917 1.528c-.166 0-.305 0-.443-.027m200.78 1.22a1.98 1.98 0 0 1 1.916-2.024c1.084-.03 2 .83 2 1.915a1.94 1.94 0 0 1-1.888 2.027h-.056a1.97 1.97 0 0 1-1.972-1.918m-5.527.171a1.965 1.965 0 0 1 1.918-2.032 1.977 1.977 0 0 1 2.027 1.888 1.96 1.96 0 0 1-1.917 2.028h-.056c-1.055 0-1.943-.83-1.972-1.884m-5.498.163a1.94 1.94 0 0 1 1.889-2.024c1.083-.057 2 .8 2.027 1.888a1.977 1.977 0 0 1-1.916 2.024h-.056a1.94 1.94 0 0 1-1.944-1.888m-3.499 2.058c-1.083.053-2-.807-2.027-1.891s.806-2.001 1.888-2.028c1.111-.027 2 .807 2.055 1.888a2.023 2.023 0 0 1-1.916 2.058zm-5.498.19c-1.084.03-2-.83-2.027-1.914a1.94 1.94 0 0 1 1.887-2.028 1.98 1.98 0 0 1 2.027 1.918c.029 1.08-.804 1.997-1.887 2.024m-7.554-1.717a1.984 1.984 0 0 1 1.916-2.032c1.083-.053 1.971.807 2.027 1.888a1.98 1.98 0 0 1-1.916 2.031h-.056c-1.055 0-1.943-.834-1.971-1.887m-3.472 2.08a1.983 1.983 0 0 1-2.027-1.917c-.055-1.08.805-1.971 1.89-2.024a1.96 1.96 0 0 1 2.026 1.914c.056 1.08-.805 1.997-1.889 2.027m-7.553-1.72a1.98 1.98 0 0 1 1.916-2.028c1.084-.03 2 .803 2.028 1.887a1.997 1.997 0 0 1-1.89 2.055h-.082c-1.055 0-1.916-.86-1.971-1.914zm-5.498.193a1.96 1.96 0 0 1 1.916-2.028c1.083-.057 1.972.808 2.027 1.888a1.98 1.98 0 0 1-1.916 2.028h-.055c-1.056 0-1.945-.83-1.972-1.888m-5.499.193a1.937 1.937 0 0 1 1.888-2.024c1.083-.057 2 .804 2.056 1.888a1.98 1.98 0 0 1-1.917 2.024h-.055c-1.056 0-1.944-.834-1.972-1.888m-5.498.197a1.94 1.94 0 0 1 1.887-2.031c1.084-.053 2 .807 2.028 1.891a1.94 1.94 0 0 1-1.888 2.028h-.084c-1.028 0-1.916-.834-1.943-1.888m-5.527.19a2 2 0 0 1 1.916-2.05c1.083-.03 2 .83 2.027 1.913.029 1.084-.805 2.002-1.887 2.028h-.084c-1.055 0-1.944-.83-1.972-1.891m-5.499.197a1.983 1.983 0 0 1 1.89-2.054c1.081-.03 1.998.834 2.054 1.914a1.98 1.98 0 0 1-1.916 2.028h-.056c-1.055 0-1.943-.834-1.972-1.888m-135.659.917a1.95 1.95 0 0 1 .861-2.638c.944-.5 2.138-.113 2.639.86.499.97.111 2.165-.861 2.639-.305.166-.583.22-.89.22a1.92 1.92 0 0 1-1.749-1.08zm130.161-.72c-.056-1.088.806-2.001 1.889-2.058a2.025 2.025 0 0 1 2.054 1.918c.029 1.08-.833 1.97-1.916 2.024h-.083c-1.027 0-1.917-.83-1.944-1.884m-5.527.19a2.02 2.02 0 0 1 1.917-2.05 1.98 1.98 0 0 1 2.028 1.913c.055 1.084-.806 1.971-1.89 2.028h-.082a1.983 1.983 0 0 1-1.973-1.891m-5.47.197a2 2 0 0 1 1.889-2.058c1.082-.027 1.999.837 2.054 1.917a1.98 1.98 0 0 1-1.916 2.028h-.056c-1.055 0-1.944-.834-1.971-1.887m-5.499.193c-.028-1.084.806-1.997 1.89-2.028a1.944 1.944 0 0 1 2.027 1.892 1.94 1.94 0 0 1-1.89 2.024h-.055c-1.055 0-1.945-.83-1.972-1.888m-5.527.197a1.96 1.96 0 0 1 1.916-2.028c1.084-.057 1.973.804 2.029 1.888.027 1.084-.805 2.001-1.89 2.028h-.083a1.98 1.98 0 0 1-1.972-1.888m-5.498.193c-.027-1.084.805-2 1.889-2.027 1.083-.057 2 .807 2.054 1.887a1.96 1.96 0 0 1-1.916 2.028h-.055c-1.056 0-1.944-.834-1.972-1.888m-5.499.194a1.944 1.944 0 0 1 1.89-2.028 1.94 1.94 0 0 1 2.026 1.891 1.937 1.937 0 0 1-1.888 2.024h-.056c-1.055 0-1.943-.803-1.972-1.887m-5.498.197a1.94 1.94 0 0 1 1.889-2.032c1.083-.026 1.998.808 2.027 1.888.056 1.088-.806 2.005-1.889 2.058h-.056a1.95 1.95 0 0 1-1.971-1.914m-5.526.22a1.984 1.984 0 0 1 1.916-2.055 1.974 1.974 0 0 1 2.027 1.888c.056 1.08-.805 1.997-1.888 2.054h-.083a1.98 1.98 0 0 1-1.972-1.887m-5.498.193a2 2 0 0 1 1.887-2.054c1.112-.027 2 .803 2.056 1.918.027 1.08-.806 1.997-1.889 2.024h-.083a1.98 1.98 0 0 1-1.971-1.888m-5.499.197a1.94 1.94 0 0 1 1.888-2.032c1.083-.053 2 .808 2.056 1.892a2.02 2.02 0 0 1-1.917 2.054h-.055a1.985 1.985 0 0 1-1.972-1.914m-5.498.193a1.94 1.94 0 0 1 1.887-2.027c1.084-.027 2 .803 2.028 1.887.055 1.084-.806 2.001-1.888 2.054h-.056a1.964 1.964 0 0 1-1.971-1.914m-5.527.22a2 2 0 0 1 1.916-2.05c1.083-.03 2 .803 2.027 1.887.055 1.08-.805 1.998-1.888 2.055h-.084a1.983 1.983 0 0 1-1.971-1.892m-5.499.197a2.003 2.003 0 0 1 1.89-2.058c1.081-.026 1.998.838 2.053 1.918.029 1.084-.805 2.001-1.887 2.028h-.084c-1.055 0-1.943-.834-1.972-1.888m-5.498.194a1.94 1.94 0 0 1 1.889-2.028c1.082-.053 1.998.803 2.054 1.891a1.98 1.98 0 0 1-1.916 2.024v.027h-.056a1.965 1.965 0 0 1-1.971-1.914m-5.527.193a1.983 1.983 0 0 1 1.917-2.028c1.082-.026 1.999.807 2.027 1.888.056 1.087-.805 2.005-1.889 2.058h-.082c-1.057 0-1.918-.834-1.973-1.918m-5.499.224a1.997 1.997 0 0 1 1.889-2.055c1.084-.03 2 .808 2.056 1.914.027 1.084-.806 1.998-1.89 2.028h-.082c-1.056 0-1.944-.83-1.973-1.887m-5.498.193a1.937 1.937 0 0 1 1.888-2.024c1.084-.057 2 .803 2.028 1.887a1.94 1.94 0 0 1-1.89 2.024h-.055c-1.055 0-1.943-.83-1.971-1.887m-5.526.223a1.986 1.986 0 0 1 1.889-2.058c1.11-.026 2.027.808 2.054 1.892a1.996 1.996 0 0 1-1.889 2.054h-.082a1.983 1.983 0 0 1-1.972-1.888m-26.326 1.888c-.972-.417-1.444-1.58-1.028-2.581a1.98 1.98 0 0 1 2.583-1.031c1 .42 1.471 1.584 1.055 2.585a1.99 1.99 0 0 1-1.833 1.194c-.25 0-.528-.057-.777-.167m20.827-1.694a1.94 1.94 0 0 1 1.888-2.028c1.083-.053 2 .807 2.028 1.888a1.94 1.94 0 0 1-1.888 2.027h-.056c-1.055 0-1.944-.83-1.972-1.887m-5.527.193c-.027-1.08.806-1.997 1.89-2.024s2 .804 2.054 1.888a2 2 0 0 1-1.888 2.054h-.084c-1.055 0-1.916-.834-1.972-1.918m-5.525.224a2 2 0 0 1 1.887-2.055 2 2 0 0 1 2.056 1.914c.027 1.085-.806 2.002-1.889 2.032h-.082a1.986 1.986 0 0 1-1.972-1.891m-5.527.193c-.027-1.08.805-1.997 1.889-2.028 1.083-.053 1.999.808 2.054 1.892.029 1.08-.804 1.997-1.887 2.024h-.084a1.98 1.98 0 0 1-1.972-1.888m199.977-82.257c-.528 0-1.029-.22-1.39-.58-.36-.39-.583-.86-.583-1.39 0-.527.223-1.028.584-1.388.721-.75 2.054-.75 2.777 0 .36.36.583.86.583 1.387 0 .5-.223 1.001-.583 1.391-.36.36-.861.58-1.389.58"/><path fill="#006ead" fill-rule="evenodd" d="m528.335 380.969-.667 1.868-2.138 2.76-70.128 78.132-66.387 77.072-10.323 11.746-1.424 1.6-3.382 1.603-22.96 7.474-6.051 1.96-2.848.534h-1.602l-1.78-.356-1.246-.713-1.602-1.603-11.213-35.238-26.342-83.121-.445-1.781 1.736-2.267 14.016-13.884 5.873-5.742 3.872-2.801 3.737-2.672 3.871-1.6 2.537-.936 17.62-4.002 95.447-19.357 77.023-13.35 2.134-.133.936.4 1.201.935.667 1.067.266 1.336zM316.064 579.056c-8.52 5.436-14.625 13.827-16.542 23.56l-117.861-17.5-1.602-.89-1.602-1.777-6.051-9.969-1.958-2.873.178-1.425 113.738-113.803 7.826 25.016s19.935 64.787 20.647 67.812c3.661 10.029 3.337 28.131 3.227 31.85zm316.97 3.749-56.422-131-31.68-93.264s-2.046-9.611-3.915-9.077-17.977 5.695-17.977 5.695-.713 4.183-2.847 5.25c-2.138 1.069-6.007 1.87-6.007 1.87l-226.979 49.126-14.95 4.271 8.63 27.582-27.497 27.237-95.935 93.62-20.112 10.325 4.093 6.049 15.307 5.34 9.077 9.078 122.811 31.327 21.94 8.835c7.231 6.637 17.222 10.745 28.258 10.745 3.257 0 6.405-.397 9.436-1.072 2.527 0 5.447-1.16 8.324-2.786 6.556-2.994 12.078-7.577 15.976-13.22l26.15-29.114 137.227-158.585s4.093-5.34 6.853-5.071c2.759.265 3.737 3.202 3.737 3.202l4.45 12.993 26.164 55.532 42.895 81.517s3.87 7.077 10.859 3.381c5.693-3.244 2.134-9.786 2.134-9.786"/><path fill="#2e3033" fill-rule="evenodd" d="M630.9 585.69a4.537 4.537 0 1 1-9.075-.002 4.537 4.537 0 0 1 9.075.001"/><path fill="#005587" fill-rule="evenodd" d="M395.497 564.323c-5.371-7.303-10.924-11.317-15.26-13.535l-1.545 1.759-1.424 1.6-3.381 1.603-22.961 7.474-6.051 1.96-2.848.534h-1.605c-6.288 2.506-15.81 6.755-24.335 12.398-.007.372-.016.69-.023.94-8.205 5.235-14.131 13.225-16.273 22.503-.034 6.428.312 18.717 2.93 30.349l7.85 3.161c7.231 6.637 17.222 10.745 28.258 10.745 3.257 0 6.405-.398 9.436-1.072 2.527 0 5.447-1.16 8.324-2.786 6.556-2.994 12.078-7.577 15.976-13.22l26.15-29.114 9.612-11.105c-2.98-7.46-7.3-16.681-12.83-24.194"/><path fill="#2e3033" fill-rule="evenodd" d="M335.738 578.264c-1.083-.083-1.917-1-1.86-2.085.083-1.08 1-1.914 2.082-1.86 1.083.056 1.916 1 1.862 2.084a1.98 1.98 0 0 1-1.974 1.861zm-5.499-.334c-1.082-.056-1.916-.974-1.832-2.054a1.965 1.965 0 0 1 2.083-1.86c1.055.052 1.887.996 1.832 2.084a1.944 1.944 0 0 1-1.944 1.83zm-5.469-.306c-1.11-.084-1.916-1.001-1.86-2.081.055-1.084.999-1.918 2.082-1.861 1.082.083 1.916.996 1.832 2.084a1.95 1.95 0 0 1-1.943 1.858zm-5.499-.304c-1.083-.083-1.916-1-1.86-2.084.055-1.08 1-1.914 2.083-1.861 1.082.056 1.916 1 1.86 2.084-.084 1.054-.944 1.861-1.972 1.861h-.11m21.689 1.247c-.528 0-1.029-.22-1.39-.58-.36-.39-.583-.86-.583-1.39 0-.527.223-1.028.584-1.388.721-.75 2.054-.75 2.777 0 .36.36.583.86.583 1.387 0 .5-.223 1.001-.583 1.391-.36.36-.861.58-1.389.58"/><path fill="#2e3033" fill-rule="evenodd" d="m368.435 610.224-19.54-6.978c-2.89-1.035-2.933-5.106-.066-6.197l13.024-4.962a3.3 3.3 0 0 1 4.075 1.505l6.516 11.94c1.453 2.664-1.152 5.715-4.01 4.692zm5.947 5.86-3.943 13.561c-.53 1.823-3.096 1.873-3.695.068l-4.646-13.97a1.936 1.936 0 0 1 1.93-2.544l8.588.413a1.933 1.933 0 0 1 1.766 2.471zm-11.646 24.026-11.943 6.52c-2.663 1.451-5.712-1.153-4.691-4.01l6.98-19.543c1.032-2.889 5.103-2.93 6.196-.065l4.962 13.024a3.3 3.3 0 0 1-1.504 4.074m-19.608-1.899-.412 8.589a1.935 1.935 0 0 1-2.474 1.766l-13.56-3.945c-1.823-.527-1.871-3.093-.07-3.692l13.973-4.647a1.936 1.936 0 0 1 2.543 1.93zm-22.838.212a3.3 3.3 0 0 1-4.075-1.504l-6.517-11.944c-1.453-2.66 1.153-5.711 4.01-4.688l19.54 6.978c2.89 1.035 2.933 5.105.065 6.197zm-12.528-23.996 3.942-13.561c.53-1.824 3.096-1.873 3.695-.069l4.646 13.971a1.936 1.936 0 0 1-1.93 2.544l-8.588-.414a1.934 1.934 0 0 1-1.765-2.47zm11.645-24.026 11.942-6.52c2.664-1.451 5.713 1.152 4.692 4.01l-6.98 19.543c-1.032 2.888-5.103 2.93-6.196.065l-4.962-13.024a3.3 3.3 0 0 1 1.504-4.074m19.608 1.898.412-8.588a1.936 1.936 0 0 1 2.474-1.767l13.56 3.942c1.823.531 1.871 3.097.07 3.696l-13.973 4.647a1.936 1.936 0 0 1-2.543-1.93m37.193 10.284a2.795 2.795 0 0 1 1.564-3.548c-.194-.432-.387-.868-.595-1.289a2.8 2.8 0 0 1-3.742-1.054 2.8 2.8 0 0 1 .935-3.775c-.267-.39-.544-.777-.823-1.156a2.8 2.8 0 0 1-3.865-.386 2.797 2.797 0 0 1 .262-3.878c-.33-.341-.662-.678-1.004-1.004a2.796 2.796 0 0 1-3.878.292 2.795 2.795 0 0 1-.412-3.866c-.385-.277-.779-.539-1.172-.804a2.795 2.795 0 0 1-3.763.955 2.794 2.794 0 0 1-1.083-3.722 40 40 0 0 0-1.29-.599 2.794 2.794 0 0 1-3.537 1.592 2.797 2.797 0 0 1-1.712-3.483c-.455-.133-.91-.262-1.371-.375a2.795 2.795 0 0 1-3.212 2.194 2.795 2.795 0 0 1-2.29-3.142c-.47-.05-.943-.083-1.416-.114a2.792 2.792 0 0 1-5.583.02 36 36 0 0 0-1.414.124 2.796 2.796 0 0 1-2.269 3.158 2.794 2.794 0 0 1-3.226-2.168c-.457.117-.912.25-1.368.382a2.8 2.8 0 0 1-1.688 3.495 2.8 2.8 0 0 1-3.55-1.565c-.432.193-.866.386-1.29.595a2.792 2.792 0 0 1-4.825 2.808q-.588.4-1.158.823a2.792 2.792 0 0 1-4.264 3.6c-.34.33-.678.664-1.005 1.005a2.795 2.795 0 0 1 .294 3.878 2.795 2.795 0 0 1-3.867.413c-.278.382-.54.777-.803 1.17a2.797 2.797 0 0 1 .955 3.765 2.8 2.8 0 0 1-3.724 1.084q-.31.635-.596 1.288a2.794 2.794 0 0 1 1.589 3.537 2.797 2.797 0 0 1-3.483 1.713c-.13.455-.26.91-.373 1.372a2.794 2.794 0 0 1 2.194 3.21 2.794 2.794 0 0 1-3.144 2.29c-.049.47-.082.943-.113 1.417a2.793 2.793 0 0 1 .02 5.583c.035.47.073.94.124 1.414a2.796 2.796 0 0 1 3.159 2.267 2.8 2.8 0 0 1-2.168 3.229c.116.455.25.91.383 1.364a2.793 2.793 0 0 1 1.927 5.238c.195.436.388.869.596 1.293a2.794 2.794 0 0 1 3.742 1.05 2.797 2.797 0 0 1-.935 3.775q.402.59.822 1.156a2.793 2.793 0 1 1 3.603 4.264c.331.341.663.679 1.005 1.005a2.796 2.796 0 0 1 3.878-.292 2.795 2.795 0 0 1 .412 3.866c.384.277.778.542 1.172.803a2.796 2.796 0 0 1 3.763-.955 2.797 2.797 0 0 1 1.083 3.726q.639.307 1.29.595a2.795 2.795 0 0 1 3.537-1.588 2.795 2.795 0 0 1 1.712 3.483c.455.13.91.258 1.37.372a2.795 2.795 0 0 1 3.213-2.195 2.8 2.8 0 0 1 2.29 3.146c.47.046.943.08 1.416.11a2.793 2.793 0 0 1 5.582-.019 36 36 0 0 0 1.415-.125 2.797 2.797 0 0 1 2.268-3.157c1.49-.27 2.91.697 3.226 2.168.458-.118.913-.25 1.369-.383a2.8 2.8 0 0 1 1.688-3.495 2.8 2.8 0 0 1 3.549 1.566c.433-.194.867-.387 1.29-.595a2.795 2.795 0 0 1 1.052-3.741 2.796 2.796 0 0 1 3.774.936c.393-.27.776-.546 1.158-.823a2.796 2.796 0 0 1 .387-3.866 2.796 2.796 0 0 1 3.877.262c.34-.33.678-.663 1.005-1.005a2.795 2.795 0 0 1-.294-3.877 2.8 2.8 0 0 1 3.867-.413c.277-.383.54-.777.802-1.171a2.8 2.8 0 0 1-.954-3.764 2.797 2.797 0 0 1 3.724-1.08c.206-.429.405-.857.596-1.293a2.794 2.794 0 0 1-1.59-3.536 2.797 2.797 0 0 1 3.484-1.713c.13-.455.258-.91.372-1.369a2.8 2.8 0 0 1-2.193-3.214 2.797 2.797 0 0 1 3.144-2.29c.05-.47.08-.943.114-1.417a2.793 2.793 0 0 1-2.713-2.782 2.79 2.79 0 0 1 2.69-2.797 45 45 0 0 0-.121-1.418 2.796 2.796 0 0 1-3.16-2.266 2.794 2.794 0 0 1 2.167-3.226c-.114-.458-.25-.913-.383-1.368a2.796 2.796 0 0 1-3.491-1.69"/><path fill="#005587" fill-rule="evenodd" d="m497.008 417.374-41.606 46.355-63.203 73.376 1.478 1.047c2.252 1.152 4.833 2.79 7.547 5.12 0 0 4.389 4.36 7.327 4.423 3.001.133 5.738-3.471 5.738-3.471l87.703-101.584s2.87-3.536 3.605-12.55c-.201-3.937-5.473-9.342-5.473-9.342z"/><path fill="#43464a" fill-rule="evenodd" d="m292.662 675.166 1.576 1.346c3.153 2.699 5.268 1.421 7.964-1.732l45.828-54.05a7.514 7.514 0 0 0-.827-10.593l-1.576-1.35a7.515 7.515 0 0 0-10.594.826l-43.2 54.96a7.514 7.514 0 0 0 .829 10.593"/><path fill="#232628" fill-rule="evenodd" d="M346.136 615.485c0 2.748-2.23 4.98-4.98 4.98a4.98 4.98 0 1 1 0-9.96 4.98 4.98 0 0 1 4.98 4.98"/><path fill="#43464a" fill-rule="evenodd" d="M316.825 679.45h-40.459a.595.595 0 0 1-.595-.596v-10.556c0-.326.268-.595.595-.595h40.46c.326 0 .594.27.594.595v10.556c0 .33-.268.595-.595.595"/><path fill="#d0d4d8" fill-rule="evenodd" d="M231.853 353.527h-4.955a.687.687 0 0 1-.685-.685v-16.397c0-.377.308-.686.685-.686h4.955c.376 0 .685.309.685.686v16.397a.687.687 0 0 1-.685.685"/><path fill="#232628" fill-rule="evenodd" d="M237.07 356.74h-4.954a.69.69 0 0 1-.685-.685v-22.507c0-.377.308-.685.685-.685h4.955c.376 0 .685.308.685.685v22.507a.687.687 0 0 1-.685.685"/><path fill="#2e3033" fill-rule="evenodd" d="M153.634 585.515a4.537 4.537 0 1 1-9.074 0 4.537 4.537 0 0 1 9.074 0"/><path fill="#8a9097" d="M388.523 86.004c-3.677.882-7.645 1.273-11.397.98-.294 2.793-.622 5.791-.842 8.733 4.412-2.721 8.634-6.036 12.239-9.713"/><path fill="#a4abb3" d="M373.667 118.384h42.87l-7.278-40.076-2.281-12.721c2.793-3.677 8.676-11.986 8.676-18.163.075-1.692-.44-3.383-1.615-4.633-4.78-5.221-11.473 4.927-14.487 10.295-12.576-.735-38.34-4.366-44.222-20.617l-1.444 2.233c.22 6.765.883 13.457 2.133 20.075.44 2.5 1.03 5 1.691 7.574 4.118 15.295 7.5 22.575 7.5 22.575 3.898 1.177 7.869 1.912 11.913 2.133 3.75.22 7.5-.074 11.176-.956-3.6 3.676-7.72 6.912-12.132 9.633-1.176 11.691-2.5 22.648-2.5 22.648"/><path fill="#001d33" d="M413.952 42.854a6.61 6.61 0 0 1 1.618 4.633c-.072 6.177-5.882 14.486-8.676 18.163l2.278 12.721 7.281 40.077h-42.87s1.324-10.957 2.72-22.576c.295-2.94.59-6.033.884-8.828-4.044-.22-8.153-.918-11.977-2.094 0 0-3.319-7.24-7.437-22.462-.662-2.574-1.25-5.148-1.691-7.574-1.25-6.618-1.986-13.383-2.133-20.075l1.398-2.132c5.882 16.25 31.694 19.707 44.266 20.516 2.797-5.369 9.56-15.59 14.339-10.369m24.636 90.08L421.6 37.339a43 43 0 0 0-1.322-6.103C415.35 9.543 403.513-3.252 374.98.719c-11.692 1.618-17.795 8.383-20.884 16.325l-.147.147c-8.089 5.515-15.662 18.898-3.897 32.281l-1.397 83.462zm-78.682 144.569h44.782c-.072-.442-67.21 0-67.21 0l-7.427 15.663c-.515 3.456-3.824 36.4-3.75 39.855l6.103 176.116 20.442 193.175c.074 0-.147.072 0 .072h13.09l.073.368c.147-.148.22-.368.294-.515 12.501-46.84 29.71-102.8 6.839-187.146-7.28-26.91 4.412-70.885 15.957-116.33-6.914-26.546-14.045-51.18-19.928-65.446-9.339-22.795-9.265-55.812-9.265-55.812m-7.06 425.101v-.072c-.147-.076 0-.076 0-.076z"/><path fill="#003253" d="M478.004 702.237c-5.148-166.7 10.586-157.585-28.83-227.588-4.85-8.604-5.438-21.18-4.999-36.254 2.206-84.049 16.473-113.61-19.853-160.892h-64.416s-.074 33.016 9.265 55.739c5.883 14.339 13.014 38.9 19.928 65.446 14.119 54.27 27.426 116.7 27.426 116.7l47.652 186.924h.295z"/><path fill="#007bc0" d="m352.858 702.335-64.195 22.135.147.22c5.22 6.326 12.942 10.003 21.178 10.003h62.43l-6.544-31.987-.074-.371zm153.402 20.517-27.942-21.104h-.663l-13.531.587-2.498 32.358h38.384a7.563 7.563 0 0 0 7.573-7.573c0-1.547-.44-3.017-1.323-4.268"/><path fill="#8a9097" d="m228.867 182.423 5.662 32.796 16.251 4.56c10.81 3.014 19.781 5.44 19.781 5.44s45.003 29.635 65.96 41.327c-2.058-9.706-4.477-24.212-7.786-39.066l-61.042-18.732z"/><path fill="#00629a" d="M354.014 121.485c-11.104 2.5-20.002 11.398-21.693 22.648l-1.912 20.37c16.987-26.106 23.605-43.018 23.605-43.018m57.789 157.1h24.193l22.867-119.714c.075-.589.148-1.103.223-1.692l.072-.588c0-.367.072-.735.072-1.103 0-.22 0-.441.076-.662 0-.294.072-.661.072-.955v-5.295c0-.294 0-.588-.072-.809l-.076-.662c0-.293-.072-.588-.072-.809s-.072-.44-.072-.661c0-.22-.075-.515-.075-.81-.073-.293-.073-.44-.073-.661 0-.22-.075-.515-.147-.735s-.072-.441-.148-.662c-.072-.22-.072-.515-.148-.735-.072-.221-.072-.442-.144-.589-.076-.22-.148-.514-.224-.735-.072-.22-.072-.368-.144-.588-.075-.22-.147-.515-.223-.736-.072-.22-.144-.367-.144-.588s-.148-.515-.296-.735l-.22-.515c-.076-.294-.22-.588-.295-.809-.072-.147-.148-.294-.148-.441-.144-.294-.292-.662-.44-.956l-.072-.22c-.224-.369-.443-.736-.591-1.178l-.22-.294c-.148-.294-.292-.588-.516-.809-.072-.147-.22-.294-.291-.44-.076-.148-.296-.442-.444-.663l-.292-.44c-.148-.221-.295-.442-.443-.589-.144-.221-.22-.294-.368-.442-.144-.147-.292-.367-.512-.588-.147-.22-.295-.294-.367-.441l-.516-.515-.443-.44-.588-.516-.44-.367c-.22-.147-.367-.294-.587-.441l-.515-.369-.592-.44-.511-.368-.664-.442-.587-.294c-.22-.147-.443-.294-.663-.367l-.588-.294-.735-.368-.588-.294c-.22-.147-.515-.22-.81-.368l-.588-.22-.883-.295-.22-.073z"/><path fill="#007bc0" fill-rule="evenodd" d="m411.894 278.606 30.223-156.114v-.441c-.955-.294-22.427-7.427-22.427-7.427l-4.12-10.148h-41.178l-3.677 10.148-14.192 5.809-2.72 1.103s-6.619 16.913-23.605 43.017l-.515.81c-7.648 10-10.883 20.369-6.177 40.885 1.544 6.765 3.162 13.897 4.78 20.957 4.706 21.325 2.574 50.886 2.574 50.886z"/><path fill="#979ea4" fill-rule="evenodd" d="m276.543 208.812-18.825-53.018c-.344-1.025-1.573-2.835-4.35-2.777l-6.608.015c2.133 0 7.796.702 8.532 2.688l18.677 52.504c.956 2.573-.44 5.44-3.014 6.397-.515.22-1.103.294-1.692.294l-16.986.588 19.56.074c2.794 0 5.074-2.206 5.074-5-.074-.589-.147-1.177-.368-1.765"/><path fill="#e0e2e5" fill-rule="evenodd" d="M255.56 156.318c-.735-1.985-2.574-3.309-4.706-3.309h-2.206l-17.207-.074a4.96 4.96 0 0 0-5 5c0 .589.073 1.104.294 1.692l18.678 52.577c.735 1.985 2.573 3.309 4.706 3.309h2.5l16.913.074c2.794 0 5-2.206 5-5 0-.589-.073-1.104-.294-1.692z"/><path fill="#a4abb3" fill-rule="evenodd" d="m228.94 182.423 30.518 1.03c.882 6.25-1.471 16.103-8.236 20.736l-16.693 10.956-5.588-32.723"/><path fill="#56b0ff" d="m482.707 244.412-17.647-95.668c-3.161-16.325-11.47-25.664-24.633-27.134-10.662 12.133-15.298 26.693-15.298 46.106 0 30.223 25.077 86.109 25.077 86.109 6.765-8.31 17.06-12.28 32.501-9.413"/><path fill="#8a9097" d="M410.866 402.585c27.135 13.75 40.295-18.679 40.295-18.679l-27.207-4.044z"/><path fill="#a4abb3" d="M482.635 245.148c.072-.368.072-.589 0-.589h-.147c-15.442-2.868-26.18.735-32.502 9.339C436.674 271.914 438 343.684 438 343.684l-14.047 36.398 27.207 4.044 1.618-21.912s28.31-107.14 29.856-116.993v-.074"/><path fill="#a4abb3" fill-rule="evenodd" d="m407.85 376.186 2.057 6.325 19.122-9.267 6.03-20.369z"/><g fill-rule="evenodd"><path fill="#9dc9ff" d="m530.304 353.928-1.348 43.922a2.937 2.937 0 1 1-5.876.087l1.017-39.939-40.35 28.798a2.939 2.939 0 0 1-3.456-4.756l42.993-32.228-2.114-40.802c-.134-2.125 1.112-3.295 3.037-3.473 2-.039 2.942 1.533 3.057 4.205z"/><path fill="#0096e8" d="M561.875 404.38c3.073.792 4.753 4.117 3.542 7.05-4.353 10.557-17.861 32.156-55.421 31.737-49.668-.554-46.624-38.343-46.278-43.637.344-5.293 2.058-14.77 6.664-24.596 2.26-4.822 8.73-5.724 12.19-1.678l6.778 11.56a10.16 10.16 0 0 0 10.01 4.944l16.74-2.062a7.96 7.96 0 0 1 6.252 1.942l6.552 5.807c.463.41 1.019.706 1.618.86l31.353 8.074"/><path fill="#002742" d="m472.425 421.882 5.228-4.989-4.85-14.278-5.014 6.684zm38.841 6.023 7.857 5.081 20.82-15.889-13.794-.75zm19.925 2.465 5.935 1.248 16.707-12.927-6.353-.425z"/></g></g></g></svg>