<svg xmlns="http://www.w3.org/2000/svg" viewBox="0 0 425 737"><g fill="none" transform="translate(.305 .308)"><rect width="7.87" height="87.43" x="114.764" y="223.26" fill="#A4ABB3" rx="3.93" transform="rotate(31.87 118.699 266.975)"/><path fill="#E0E2E5" d="M108.16 276.472a12.44 12.44 0 0 1-1.55-5.47c0-1.25.94-6.35 1-7.69-.1-2.88-.72-7.72-.49-10.68.59-7.52 13.37-11.81 13.37-11.81l2.15 22.9z"/><path fill="#C1C7CC" d="m248 218.892-127.55 21.93 2.15 22.9-3.3 9.73 6.32 2.32 11.73-18.36c61.65-3.14 134.45 12.43 110.65-38.52"/><path fill="#551151" d="M248.1 279.892c29.25-86.5 15.58-164.76 15.58-164.76l-18.07 5.29c-12.353 2.757-21.183 13.654-21.32 26.31l-1.79 76.54 11.22 24.91c14.28-4.48 15.41 18.82 14.38 31.71m-3.38 9.63-.73 1c.33-.261.582-.607.73-1"/><path fill="#71767C" d="M310.82 21.122h-.15q.234.481.37 1zm-64.46-1.69q.216-.75.52-1.47a4.5 4.5 0 0 0-.52 1.47"/><path fill="#C1C7CC" d="M281.65 85.852a38.2 38.2 0 0 1-10.81.88c-.14 1.4-.29 2.94-.44 4.41-.14 1.25-.25 2.63-.4 3.88a55.7 55.7 0 0 0 11.78-9.15z"/><path fill="#E0E2E5" d="M267.3 118.202h43l-4.85-26.89-2.45-13.23-2.35-12.79c3.67-4.7 12.35-17.2 7.2-22.78a4.3 4.3 0 0 0-1.47-1.1c-4-1.91-9 4.55-12 9.4l-6.76-13.59h-6.24l-9-16.32-.22 16.32h-8.68l-8.48-9.22.51 9.19h-7.93a130.5 130.5 0 0 0 3.74 24.91c4.12 15.29 7.57 22.64 7.57 22.64a51.6 51.6 0 0 0 12 2.13 38.6 38.6 0 0 0 10.74-.87 71 71 0 0 1-11.69 9.11c-1.25 11.76-2.64 23.07-2.64 23.07z"/><path fill="#340731" d="M253.49 277.312h44.83c-.07-.44-67.39-.07-67.39-.07l-7.27 15.76c-.52 3.46-3.83 36.38-3.75 39.84l6.09 176.04 20.06 193.06h38.8c12.5-46.81 4.78-102.74-18.08-187.18-7.27-26.9 4.41-70.92 15.95-116.34-6.91-26.53-12.352-51.25-18.262-65.58-9.34-22.63-10.434-55.53-10.434-55.53z"/><path fill="#551151" d="M393 702.002c-19-170.2-10.81-157.56-50.2-227.6-4.85-8.6-5.43-21.24-5-36.23 2.2-84.07 16.46-113.62-19.85-160.87h-64.46s-.07 33 9.26 55.71c5.88 14.33 13 38.87 19.92 65.48 14.11 54.23 27.41 116.7 27.41 116.7l47.7 186.81z"/><path fill="#F0DCEE" d="m195.88 724.652.14.22a27.91 27.91 0 0 0 21.46 10.13h63.28l-6.76-33h-16.69l-61.43 22.64zm218.63-1.55-28-21.09h-14.26l-2.5 33h38.59a7.56 7.56 0 0 0 7.57-7.57 8.1 8.1 0 0 0-1.4-4.34"/><path fill="#791D73" d="M351.75 143.002c0 .22.07.44.07.66a2.1 2.1 0 0 1-.07-.66m-.29-1.39c.07.22.07.44.14.66-.07-.18-.07-.4-.14-.62zm.44 2.86c0 .22.07.44.07.66.03-.13-.07-.4-.07-.62zm.1 1.53.08.66zm-18-24.47c.22.07.37.15.59.22a1.5 1.5 0 0 0-.59-.24zm16.39 16.17q.12.282.14.59a1.5 1.5 0 0 0-.1-.61zm.44 1.25c.07.22.07.37.14.59a1.8 1.8 0 0 1-.1-.61zm1.03 16.59a1.7 1.7 0 0 1-.08.58 1.7 1.7 0 0 0 .12-.58zm-1.86-19.18c.07.14.14.36.22.51-.09-.15-.16-.37-.22-.51m2.13 11.09v.66a1.06 1.06 0 0 0-.01-.66zM334 121.222c-1-.3-22.56-7.5-22.56-7.5l-4.19-2.86h-41.12l-3.75 2.79-16.9 6.91s-6.76 17.27-24.18 43.87c-7.64 10-10.87 20.43-6.17 40.86 7.28 31.53 15.8 72 15.8 72l67.24.58q11.527-46.635 16.92-70.218 6.55-28.635 18.91-86.432m17.12 19.1.15.59zm-10.51-15.65.52.37zm1.18.81c.15.15.37.22.51.37zm1 .88c.14.15.29.22.44.37-.01-.15-.15-.22-.37-.37zm-3.38-2.42c.22.07.36.22.58.29a2.3 2.3 0 0 1-.51-.29zm-1.25-.67.58.3zm-2.65-1.27.59.23a5 5 0 0 0-.59-.23m8.38 5.22.44.44zm5.58 7.94.15.44zm-12.57-12.55c.22.08.37.22.59.3a2.4 2.4 0 0 0-.59-.3m9.63 7.57.3.44zm.81 1.1c.07.15.22.3.29.45-.07-.15-.22-.3-.29-.45m.73 1.18c.08.07.15.22.23.29a.9.9 0 0 1-.23-.29m-3.19-4.34q.221.194.37.45a1.8 1.8 0 0 0-.41-.45zm.88 1c.15.15.22.3.37.44-.19-.11-.26-.26-.41-.41z"/><path fill="#551151" d="M351.97 154.432a2.1 2.1 0 0 1 .07-.66c0-.29.08-.66-.29-1v-.66a1 1 0 0 0 .37-.89 1 1 0 0 1 .14-.66v-2.35a4.6 4.6 0 0 1-.22-.66 3.2 3.2 0 0 0-.07-.81l-.07-.66c0-.29-.08-.59-.08-.81s-.07-.44-.07-.66l-.07-.81c0-.22-.08-.44-.08-.66a4 4 0 0 0-.14-.81c-.08-.22-.08-.44-.15-.66s-.08-.51-.15-.73l-.15-.59c-.07-.22-.14-.52-.22-.74s-.07-.37-.14-.59-.15-.51-.22-.73a1.6 1.6 0 0 1-.15-.59 1.6 1.6 0 0 0-.28-.7c-.08-.22-.15-.37-.22-.52a10 10 0 0 1-.3-.81l-.15-.44c-.14-.29-.29-.66-.44-.95a.3.3 0 0 1-.07-.22c-.22-.37-.37-.74-.59-1.18-.07-.07-.15-.22-.22-.29a3 3 0 0 0-.51-.81 1.5 1.5 0 0 0-.3-.44l-.44-.66-.29-.44a4.5 4.5 0 0 0-.44-.59 2.1 2.1 0 0 0-.37-.44c-.15-.15-.29-.37-.51-.59a1.5 1.5 0 0 1-.37-.44l-.52-.52-.44-.44a4.5 4.5 0 0 0-.59-.51c-.22-.15-.29-.3-.44-.37a3.7 3.7 0 0 0-.58-.44 3.3 3.3 0 0 0-.52-.37 5 5 0 0 0-.59-.44l-.51-.37-.66-.44a2.3 2.3 0 0 0-.59-.29l-.66-.37-.59-.29c-.22-.15-.51-.22-.73-.37a2.2 2.2 0 0 0-.59-.29 8 8 0 0 1-.81-.37 2.8 2.8 0 0 0-.59-.22c-.22-.08-.59-.22-.88-.3s-.37-.14-.59-.22l-.15-.07-35.5 155.89h19.69l33.74-119.57c.07-.58.14-1.1.22-1.69v-.58c0-.37.07-.74.07-1.11"/><path fill="#340731" d="M313.89 31.262a69 69 0 0 0-2.72-9.18c-.15-.3-.22-.66-.37-1-6.25-15.32-18.44-23.62-42.18-20.39-7.87 1.1-13.23 4.49-16.76 9a9.1 9.1 0 0 0-2 2.13 27.2 27.2 0 0 0-2.94 6.1c-.15.44-.3 1-.52 1.47-2.62 8.61-14.4 75.74-14.4 75.74h38c.15-1.55.67-6.84.81-8.23a51.6 51.6 0 0 1-12-2.13s-3.45-7.35-7.57-22.71a123 123 0 0 1-3.74-24.84h7.93l-.47-9 8.54 9h8.62l.4-15.82 8.48 16.18h6.17l7.2 13.23c2.31-3.46 7.28-11 11.25-9.11a7 7 0 0 1 1.47 1.1c5.07 5.59-3.46 17.86-7.06 22.42l-11.35 29.39h43.58c-.07 0-18.08-62.1-18.37-63.35"/><path fill="#E0E2E5" d="M278.48 112.542c-.29-.36 2.5 1 28.37-12.34h-37.56c.71 6.39 9.19 12.34 9.19 12.34"/><path fill="#E8B6E3" d="M306.77 100.122c-25.87 13.31-28.58 12-28.36 12.35 0 0-8.53-6-9.19-12.35a34 34 0 0 0-8.08 13.88l4.11 14.7 13.16-16.24c4.33 6.47 9.48 17.86 9.48 17.86l25-16.39a35.2 35.2 0 0 0-6.1-13.82z"/><path fill="#C1C7CC" d="M288.71 282.192c.37.95 7.05 2.05 7.5 3.08a43.5 43.5 0 0 0 3.16 6.47c2.79 4.56 28.88 5.66 28.88 5.66l-7.72-29.1-33.44 9.4c0-.07.66 1.91 1.62 4.49"/><path fill="#E0E2E5" d="m403.26 196.152-34.18 17.49c3.6 4 6.91 7.64 9.7 11.1-14.91 13.67-28.94 33-45 48l-13.31-4.48 7.72 29.1s11-4.19 15-5.81l80.17-68.66c-1.25-1.76-7.57-10.17-20.13-26.78z"/><path fill="#E48CDD" d="M364.23 141.332c-12.42-15.07-18.66-19.41-30.27-20.14-9.63 12.13-12.65 18.67-9.85 35.13 4.26 24.84 54.67 68.42 54.67 68.42s16.69-11.43 44.61-1.81c-40.06-58.16-59.16-81.6-59.16-81.6"/><path fill="#8A9097" d="M9.37 283.302h119.61v68.38H9.37z"/><path fill="#8A9097" d="M0 290.872h138.35v5.35H0z"/></g></svg>