<svg xmlns="http://www.w3.org/2000/svg" viewBox="0 0 253 737"><g fill="none" fill-rule="evenodd"><path fill="#9E2896" fill-rule="nonzero" d="M97.202 294.24c19.91-58.8 19.32-113.62 17.19-141.25-.675-8.458-8.072-14.771-16.53-14.11a14.4 14.4 0 0 0-3.09.58c-11.992 2.645-20.56 13.23-20.65 25.51l-2.57 109.76.95-.3c13.75-4.41 25.65 7.35 24.7 19.85z"/><path fill="#71767C" fill-rule="nonzero" d="M130.652 105.46a39 39 0 0 1-11.27 1c-.3 2.57-.59 5.44-.88 8.23l.91-.24a60 60 0 0 0 11.24-9z"/><path fill="#C1C7CC" fill-rule="nonzero" d="M118.512 114.66c-1.32 11.32-2.65 22.2-2.65 22.2h41.6l-7.06-38.88-2.2-12.34c2.72-3.53 8.45-11.62 8.45-17.57a6.34 6.34 0 0 0-1.54-4.48 3.6 3.6 0 0 0-1.33-1c-2.2-1.1-4.63.44-6.9 2.79a42.2 42.2 0 0 0-5.81 8.23c-12.2-.73-37.26-4.11-42.92-19.91l-1.39 2.06a133 133 0 0 0 2 19.47c.44 2.43 1 4.85 1.69 7.35 4 14.84 7.28 21.9 7.28 21.9a47.3 47.3 0 0 0 11.61 2.06 37.2 37.2 0 0 0 11-1 56.4 56.4 0 0 1-11.24 8.89z"/><path fill="#595E62" fill-rule="nonzero" d="M171.132 33.46c.053-17.142-12.997-31.485-30.068-33.046s-32.507 10.178-35.562 27.046a24.4 24.4 0 0 0-8.52 11.39l-.08.15c-8.25 5.48-15.8 19.37-2.25 32.89l4.16 3.35a124 124 0 0 1-2-19.47l1.39-2.06c5.73 15.72 30.72 19.18 42.92 19.91a42.2 42.2 0 0 1 5.81-8.23c2.27-2.35 4.7-3.82 6.9-2.79a4.5 4.5 0 0 1 1.33 1 6.34 6.34 0 0 1 1.49 4.47c-.07 6-5.73 14-8.45 17.57l2.2 12.34c14-21.9 13.08-35.57 11.69-42a32.37 32.37 0 0 0 9-22.56z"/><path d="m111.822 132.74.52-1.32c-.23.44-.52 1-.81 1.47z"/><path fill="#E8B6E3" fill-rule="nonzero" d="M185.482 327.99a124.2 124.2 0 0 0-11.76-21.53c-4.63-7-8.89-12.42-10.14-14l33.8-116.22c.08-.52.15-1.11.22-1.62a1.2 1.2 0 0 1 .08-.52c0-.36.07-.73.07-1-.017-.2.006-.4.07-.59 0-.3.08-.66.08-1v-.66s.07-.59.07-.88 0-.44.44-.66v-2.35a1 1 0 0 1-.51-.67c-.08-.22 0-.51-.08-.8l-.07-.67c0-.29-.07-.51-.07-.8s-.08-.44-.08-.67l-.07-.73c0-.22-.07-.44-.07-.66a2.8 2.8 0 0 0-.15-.74 4 4 0 0 0-.15-.58c-.07-.23-.07-.52-.14-.74l-.15-.59c-.07-.22-.15-.51-.22-.73s-.07-.37-.15-.59-.15-.51-.22-.74a3 3 0 0 0-.15-.51 2.8 2.8 0 0 0-.29-.73 2 2 0 0 1-.15-.52c-.07-.29-.22-.51-.29-.81l-.15-.44c-.14-.29-.29-.66-.44-1a.3.3 0 0 1-.07-.22c-.22-.37-.37-.74-.59-1.11a.6.6 0 0 1-.15-.29c-.14-.29-.29-.51-.44-.81a.7.7 0 0 0-.29-.37l-.44-.66-.3-.44c-.14-.22-.29-.37-.44-.59a2 2 0 0 0-.37-.44c-.14-.14-.29-.36-.44-.51l-.36-.44a3.6 3.6 0 0 0-.52-.52l-.44-.36a3.2 3.2 0 0 1-.51-.52c-.15-.22-.3-.22-.44-.37s-.37-.29-.52-.44l-.44-.36c-.22-.15-.37-.3-.59-.45l-.51-.36a2.7 2.7 0 0 0-.66-.37 3.5 3.5 0 0 1-.52-.29l-.66-.37-.51-.3-.74-.36c-.22-.08-.37-.22-.59-.3a3.1 3.1 0 0 1-.73-.37c-.22-.07-.37-.14-.59-.22s-.51-.22-.81-.29-.37-.15-.59-.22l-.14-.07c-1-.3-21.76-7.21-21.76-7.21l-4.76-10h-39.26s-28.71 41.23-42.62 58.13l-.74 1.18c-7.42 9.7-10.58 19.84-6 39.68.52 2.21 1 4.34 1.54 6.54 6.74 29.4 13.84 63.28 13.84 63.28l-7.28 13.31-5.43 40v139s2.27.29 6.17.73c7.79.88 22.27 2.28 39.32 3.09 11.17.51 23.51.81 35.79.44 5.36-.15 10.65-.44 15.94-.81 9.78-.74 18-1.32 24.84-1.76 24.92-1.69 32.41-1.69 32.41-1.69s-30.2-139.64-37-156.69z"/><path fill="#E48CDD" fill-rule="nonzero" d="M111.532 132.89c.29-.51.51-1 .81-1.47a37.2 37.2 0 0 0 3.3-8.74s-6.32 10.36-20.87 16.75l-21.75 41.38.41-.38c2.64-2.71 21.63-22.55 36.77-45.41a12.4 12.4 0 0 0 1.33-2.13"/><path fill="#71767C" fill-rule="nonzero" d="M198.472 160.96c0 .22.07.44.07.67 0-.23-.07-.45-.07-.67m-.3-1.32c.08.22.08.44.15.59a1.3 1.3 0 0 0-.15-.59m.44 2.72c0 .22.08.44.08.66a1.9 1.9 0 0 0-.04-.66zm.15 1.47.07.66zm-17.42-23.81c.22.07.37.15.59.22a5 5 0 0 1-.59-.22m15.88 15.73c.08.159.127.332.14.51a2 2 0 0 1-.14-.51m.36 1.25c.08.22.08.36.15.58a4 4 0 0 0-.15-.58m1.03 16.09a1.3 1.3 0 0 1-.07.51 1.3 1.3 0 0 0 .11-.51zm-1.83-18.59c.08.159.127.332.14.51a4 4 0 0 0-.14-.51m2.05 10.74v.66a1.8 1.8 0 0 0 0-.66m0 3v.66a1.06 1.06 0 0 1 0-.66m-.88-10 .15.59zm-10.21-15.13.51.36zm1.1.8c.15.15.29.22.44.37-.15-.15-.29-.22-.44-.37m1 .81c.14.15.29.22.44.37-.12-.15-.27-.22-.41-.37zm-3.31-2.28.51.3a1.2 1.2 0 0 0-.48-.3zm-1.18-.73.52.29zm-2.64-1.18c.22.08.37.15.59.22-.19-.07-.34-.14-.56-.22zm8.08 5.07.44.37zm5.44 7.72.15.44zm-2.79-4.85.29.44zm.73 1q.124.206.3.37a.8.8 0 0 1-.27-.34zm.74 1.18a.6.6 0 0 1 .15.29c.03-.04-.05-.12-.12-.26zm.81 1.47c.055.06.08.14.07.22.03-.05-.04-.1-.04-.19zm-4-5.66q.219.19.37.44a1.8 1.8 0 0 0-.31-.41zm.88.95c.15.15.22.3.37.44a1.6 1.6 0 0 1-.32-.41z"/><path fill="#9E2896" fill-rule="nonzero" d="m178.782 138.89-5.64-1.85-8.66 41.33c-1.4 10.51-15.14 12.28-15.14 12.28s8.08 6.68 5.07 14.77c-5.66 15.06-23.59 35.13-23.59 35.13l.37 64 41.64.36-5.06-105.57s27.96-54.8 11.01-60.45m20.39 165.35-11.69-71.21zm-44.52-181.87-23.68 117.87z"/><path fill="#791D73" fill-rule="nonzero" d="m188.252 233.72 7.13-61.14q.44-3.32.66-6.4c.07-1.54.15-2.94.15-4.33-.08-11.69-4.26-19.26-17.93-22.64l-11.25 60.85 5.44 104.87h27.49z"/><path fill="#8A9097" fill-rule="nonzero" d="M108.812 703.47c12.12-45.42 28.88-99.73 6.61-181.67-2.57-9.48-2.72-21.24-1.32-34.39-17.12-.81-31.53-2.21-39.32-3.09l1.1 31.75s19.7 187.55 19.85 187.55h13v-.15z"/><path fill="#C1C7CC" fill-rule="nonzero" d="M217.282 703.47c-4.92-159.69 9.85-153.15-26.46-218.27-6.91.45-15.14 1-24.84 1.84-5.21.37-10.58.66-15.94.81 4.61 20.39 7.61 34.32 7.61 34.32l46.29 181.45h.3l13.08-.15z"/><path fill="#E48CDD" fill-rule="nonzero" d="m95.732 703.61-62.32 21.53.14.22a26.51 26.51 0 0 0 20.58 9.7h60.7l-6.39-31.08-.07-.37zm149.2 20.25-27.85-20.51-13.15.15-2.43 31.82h37.41a7.38 7.38 0 0 0 7.35-7.42 7.1 7.1 0 0 0-1.33-4zm-95.03-533.18s13.74-1.83 15.14-12.27l8.22-41.33c-12.72-5.22-18.36-14.45-18.36-14.45l-23.67 118s18-20.07 23.59-35.13c3.16-8.09-4.92-14.78-4.92-14.78z"/><path fill="#9E2896" fill-rule="nonzero" d="m246.742 261.08-44.28-100.26c-6.29-14.9-16-22.09-28.88-20.89-7.7 13.72-9.19 28.45-5.31 46.86s19.62 44.76 30.47 61.33c21-3.6 39.13-1.4 48 13z"/><path fill="#8A9097" fill-rule="nonzero" d="m105.542 281.32-21.89-9.68-9.9 2.35 4.41 6.16 4.8-.9 2.69 1.93z"/><path fill="#C1C7CC" fill-rule="nonzero" d="M246.812 260.9c-8.87-14.36-27-16.49-48-12.89-30 5.18-65.85 22.18-89.37 32.46-1.65.72-23.26-1.76-23.26-1.76l6.47 28.58 20.7-8.71s138.18-25.38 138-26.17c-.8-4.08-2.335-7.98-4.53-11.51z"/><path fill="#340731" fill-rule="nonzero" d="m.648 259.533 77.317-17.396 24.797 110.215-77.317 17.396z"/><path fill="#8A9097" fill-rule="nonzero" d="M74.312 309.63c4.82 2.61 18.34-2.34 18.34-2.34l-6.44-28.58-33 13.81c0 .07 16.29 14.59 21.1 17.11"/><path fill="#FFF" fill-rule="nonzero" d="m29.182 266.289 25.883-5.824 3.341 14.849-25.883 5.823z"/><path fill="#8A9097" fill-rule="nonzero" d="M21.932 309.61c-3.95 3.79-18.28 2.63-18.28 2.63L2.202 283l35.45 4.47c0 .08-11.79 18.43-15.75 22.14z"/></g></svg>