<svg xmlns="http://www.w3.org/2000/svg" viewBox="0 0 523.6 1008.436"><path fill="none" d="M288.443 70.983q.046-.122.093-.242c-.029.08-.063.159-.093.242m.557-1.644c.028-.091.061-.183.088-.273-.023.09-.056.182-.088.273"/><path fill="#18837e" d="M237.7 117.691h-.01c-.4 3.87-.892 7.934-1.289 12a82.6 82.6 0 0 0 16.7-13.4 49.8 49.8 0 0 1-15.401 1.4"/><path fill="none" d="M356.674 366.515a5 5 0 0 0-.228.862c.073-.285.154-.577.228-.862m1.964-6.049a43 43 0 0 0-1.586 4.706c.448-1.54.975-3.115 1.586-4.706"/><path fill="#8dd2cd" d="M296.144 147.63c-6-6.3-6.1-8.1-6.1-8.1l-2.66.135-52.39 2.648-.35.018s.3 5-5.9 17.1l-.107.208c-4.922 9.693-13.807 23.728-30.093 43.192-7.053 8.543-13.116 15.507-17.705 22.461q-.047.069-.095.139c-7 10.8-10.2 21.3-7.4 37.1q.017.08.033.161l.024-.1a123 123 0 0 0 5.6 19.7c10.2 27.7 29 74.4 29 74.4l-.074.063a6915 6915 0 0 0 6.075 15.236h91.1l9.007-106.925a269 269 0 0 1-7.52-27.851l-.015-.075q-.8-3.907-1.337-7.537-.11-.732-.208-1.451c-.071-.52-.14-1.04-.2-1.549a95 95 0 0 1-.325-3.012 113.2 113.2 0 0 1 3-38.01 67.9 67.9 0 0 1 11.767-24.474c.373-.476.746-.951 1.137-1.415h.008c-7.388-2.136-20.193-7.805-24.272-12.062"/><path fill="#02201e" d="m221.99 439.211.01-.019c22.134-46.464 21.8-67.074 21.8-67.195v-.006H214s-.4 24.645 7.99 67.22M362.3 629.892c-8.8-9.9-13.2-26.3-17-46.2-7.389-38.643-11.189-76.985-16.178-110.748l-.022.047c-12.593 25.986-36.175 45.481-68.249 92.027C279.332 610.856 297 645.792 297 645.792l176 273.9 16.9-11.3c-52.6-209-56.7-198.801-127.6-278.5"/><path fill="#053634" d="M335.8 371.991h-92V372c0 .121.334 20.731-21.8 67.195l-.01.019c-1 1.994-1.893 4.087-2.99 6.18-32.8 66.4-67.3 189-67.3 189L87.439 949.1l21.261 6.388-.017.2h.017c96.7-202.6 107.2-183.8 103.3-291.9-.5-13.2 6.5-28.8 16.4-46.5 11.6-20.7 22.4-37.8 32.4-52.2l.051-.073c32.074-46.546 55.656-66.041 68.249-92.027l.022-.047c10.678-22.088 13.378-48.886 6.678-100.95"/><path fill="#419e98" d="M373.6 582.892c41.2 5.3 43.4-42.4 43.4-42.4l-36.9 7.2zM87.4 949.091 0 954.392l.1.3a37.39 37.39 0 0 0 23.6 21.2l81.1 24.2 3.883-44.4.017-.2-21.261-6.392zm402.5-40.499-16.9 11.3-48.4 75 .3.1a37.23 37.23 0 0 0 31.1-6.5l67.6-51z"/><path fill="#b6ede8" d="M300.2 41.392c-6.7-29.4-26.6-45.7-65.4-40.4-16 2.2-24.2 11.4-28.4 22.2l-.2.2c-11.5 7.8-22.1 27.1-3.2 46.1l6.063 4.632c-.02-.111-.044-.222-.064-.333a178 178 0 0 1-2.9-27.3l1.9-2.9c3.8 10.5 17.1 20.6 30.6 23.6 16.4 3.6 20.7 2.7 29 4.1l.5.1c4.1-7.2 13.2-21 19.7-13.9a8.72 8.72 0 0 1 2.2 6.3 19.4 19.4 0 0 1-.908 5.274c-.027.09-.06.182-.088.273q-.217.7-.468 1.4-.046.12-.093.242c-2.536 6.8-7.56 13.82-10.343 17.409l3.1 17.3.057.311C305.991 67.476 301.3 55.881 300.2 41.392m55.1 150.199c-6.3-21.5-17-31.5-34.892-31.9h-.008c-.391.464-.764.939-1.137 1.415a67.9 67.9 0 0 0-11.763 24.475 113.2 113.2 0 0 0-3 38.01c.086.979.2 1.991.325 3.012q.095.766.2 1.549.098.72.208 1.451.537 3.625 1.337 7.537l.015.075a269 269 0 0 0 7.52 27.851l.02.061c.281.876.571 1.759.862 2.643.242.736.483 1.471.731 2.212q.252.754.509 1.512c6.155 18.175 13.964 37.524 21.7 55.358 6.586 15.191 13.114 29.282 18.507 40.578l.011-.058a5 5 0 0 1 .228-.862c.027-.073.053-.145.09-.237q.135-.55.288-1.106a43 43 0 0 1 1.586-4.706c5.069-12.637 16.9-25.6 35.307-27.867l.055-.008z"/><path fill="#66b8b2" d="m416.9 540.491-7.9-29-14.173-169.032-.8-9.568-.025-.3-.055.008c-18.412 2.271-30.238 15.23-35.307 27.867a60 60 0 0 0-1.586 4.706c-.1.37-.2.739-.288 1.106-.037.092-.063.164-.09.237q-.118.433-.228.862l-.011.058-.051.2a66 66 0 0 0-.881 4.057c-5.4 30.1 25.9 122.8 25.9 122.8L381 509.63l-23.3 40.562 5.5 7.2 17-17.163-.2 7.463zm-233.2-345.4-2.862 30.2c4.589-6.954 10.652-13.918 17.705-22.461 16.286-19.464 25.171-33.5 30.093-43.192l-16.436 4.654a37.11 37.11 0 0 0-28.5 30.799m132.02 74.891q-.37-1.11-.731-2.212a367 367 0 0 1-.862-2.643l-.02-.061-9.007 106.925h30.6l2.218-44.985.007-.154c-7.732-17.834-15.541-37.183-21.7-55.358zM179 282.292a123 123 0 0 1-5.6-19.7l-.024.1a499 499 0 0 0-10.8 61.98l.021.021 38.5 37.8 6.826-5.736.074-.063s-18.8-46.7-29-74.4z"/><path fill="#0a4f4b" d="m201.1 362.491-38.5-37.8-.021-.021L97.5 260.591l-2.654-5.7-7.7-.289-1.951-.009H81.8a7.03 7.03 0 0 1-6.4-4.6l-1.693-4.765-13.107 8.564-.1.1 27.7 28.1 36.9 71.3c11.3 21.3 37.3 32.5 59.2 22.4 4.4-2 16.8-13.2 16.8-13.2z"/><path fill="#a4abb3" d="m118.235 246.221-25.7-72.4a7.02 7.02 0 0 0-6.5-4.6h-2.864a7.02 7.02 0 0 1 6.129 4.571l25.5 71.8a4.6 4.6 0 0 1 .3 2.3 6.96 6.96 0 0 1-6.9 6.8l-13.474-.059-7.575-.033 7.7.289 16.789.632a6.914 6.914 0 0 0 6.9-6.9 4.84 4.84 0 0 0-.305-2.4"/><path fill="#e0e2e5" d="m114.8 245.591-25.5-71.8a6.97 6.97 0 0 0-4.446-4.231c-.039-.013-.079-.022-.118-.035a7 7 0 0 0-.853-.2q-.099-.016-.2-.028c-.171-.025-.339-.061-.513-.074-.092-.007-.179-.027-.271-.029h-3l-23.5-.1a6.96 6.96 0 0 0-6.9 6.8 5.9 5.9 0 0 0 .4 2.3l11.106 31.27 12.9.433 20.7.694c1.065 7.54-1.344 19-8.32 25.9a21 21 0 0 1-2.88 2.405l-9.693 6.334 1.693 4.765a7.03 7.03 0 0 0 6.4 4.6h3.4l1.951.009 7.575.033 13.474.059a6.96 6.96 0 0 0 6.9-6.8 4.6 4.6 0 0 0-.305-2.305"/><path fill="#419e98" d="M287.8 57.491c-6.5-7.1-15.6 6.7-19.7 13.9l-.5-.1c-8.3-1.4-12.6-.5-29-4.1-13.5-3-26.8-13.1-30.6-23.6l-1.9 2.9a178 178 0 0 0 2.9 27.3q.032.166.064.333c.593 3.289 1.366 6.581 2.236 9.967 5.6 20.7 10.2 30.7 10.2 30.7a69 69 0 0 0 16.191 2.9h.01a49.8 49.8 0 0 0 15.4-1.4 82.6 82.6 0 0 1-16.7 13.4c-.474 4.385-.957 8.69-1.406 12.621l52.39-2.648L281.257 106l-.057-.311-3.1-17.3c2.783-3.589 7.807-10.609 10.343-17.409.03-.081.064-.162.093-.242.172-.468.324-.936.468-1.4.028-.091.061-.183.088-.273a19.4 19.4 0 0 0 .908-5.273 8.72 8.72 0 0 0-2.2-6.301M73.9 209.9l-12.9-.433-7.843-.264-.263-.008 7.7 44.6 13.107-8.566 9.693-6.334a21 21 0 0 0 2.88-2.405c6.976-6.893 9.385-18.356 8.32-25.9z"/></svg>