<svg xmlns="http://www.w3.org/2000/svg" data-name="Ebene 1" viewBox="0 0 356.481 850.22"><path fill="#005587" d="m172.829 814.92-.772 2.146 65.598 22.344c.08 0 .08.075.08.15-5.693 6.426-14.113 10.66-23.095 10.66 0 0-67.826.075-67.826 0l7.28-33.154-.773-2.096z"/><path fill="#b2b9c0" d="m302.993 232.444 39.232-26.604-5.754 33.105-16.365 4.558c-10.91 3.064-19.952 5.53-19.952 5.53s-59.823 34.749-81.046 46.556c-2.447-12.383-4.67-30.572 6.852-38.83z"/><path fill="#003253" d="M190.215 127.012c12.03 2.541 21.733 11.509 23.497 22.942l4.499 31.547c-22.478-28.525-27.914-54.282-27.996-54.489"/><path fill="#005587" d="m12.885 837.553 30.639-20.944-.07-.822 16.512-.021-.977 1.219 2.226 33.235-41.777-.22c-4.57-.06-8.126-3.873-8.063-8.058-.056-1.644.529-3.131 1.51-4.389"/><path fill="#001d33" d="m181.84 335.248-.045-3.316 23.518-.867 1.147 4.183 7.779 17.204c2.499 6.822 3.972 33.926 4.09 45.235 1.835 44.896-2.292 121.846-6.656 200.075L189.94 817.055l-48.517.084c-7.779-79.308 1.203-116.822 26.063-212.663 7.939-30.548-4.812-80.567-17.322-132.18-3.918-31.875 5.924-71.385 12.34-87.583 9.302-23.918 19.256-44.513 19.336-49.465"/><path fill="#142840" d="M189.86 817.214v-.15h.24z"/><path fill="#003253" d="M26.906 814.957c21.252-194.787 15.317-176.995 58.06-256.471 5.213-9.735 5.935-24.086 5.454-41.207-2.406-95.086-17.723-128.655 21.09-182.03l.921-3.967h69.906l-.416 3.966c-.08 4.952-.722 38.857-10.024 62.691-6.336 16.282-14.115 44.144-21.653 74.357-15.317 61.6-29.752 132.516-29.752 132.516L68.767 817.139c-.08-.084-42.101-.252-41.86-2.182"/><path fill="#003e64" d="M137.891 335.248h-26.303c-.625-5.838-37.764-170.012-37.152-175.596-.32-9.633 3.12-21.438 11.814-27.54 2.527-1.81 7.074-3.253 10.104-4.185 7.946 35.244 34.148 174.072 41.537 207.321"/><path fill="#656a6f" d="m293.954 233.267 19.056-53.655a5.26 5.26 0 0 1 4.782-3.437h2.392c-2.167 0-4.036 1.345-4.708 3.362l-18.907 53.132c-.896 2.616.449 5.53 3.064 6.427.523.224 1.121.299 1.72.299l17.09-.005.129-.028-19.76.705c-2.84 0-5.157-2.242-5.157-5.081 0-.598.075-1.196.3-1.72"/><path fill="#8a9097" d="m296.417 232.668 18.906-53.132c.747-2.017 2.616-3.363 4.708-3.363h2.242l17.412-.074c2.765 0 5.081 2.242 5.081 5.081 0 .598-.075 1.121-.299 1.719l-18.906 53.132c-.747 2.017-2.615 3.362-4.708 3.362h-2.54l-17.039.075c-2.765 0-5.081-2.242-5.081-5.081-.075-.598 0-1.196.224-1.72"/><path fill="#d0d4d8" fill-rule="evenodd" d="m342.225 205.84-30.862 1.047c-.897 6.352 1.494 16.29 8.294 20.998l16.89 11.06z"/><path fill="#003253" d="m223.606 223.897 4.827 32.064c-10.68 7.173-11.311 22.357-9.324 39.628l-8.842-6.518c-1.405-26.208 2.499-35.08 13.339-65.175"/><path fill="#00629a" d="M136.833 335.248 96.354 127.18c1.043-.337 21.952-7.65 21.952-7.65l5.074-9.687h44.667l3.428 9.688 18.74 7.481s7.424 21.511 25.788 51.194l.562.925c8.26 11.352 11.788 23.208 6.656 46.5-1.685 7.652-6.924 25.227-8.608 33.3-5.132 24.301-8.153 76.317-8.153 76.317z"/><path fill="#e0e2e5" d="M138.72 72.255v-.075z"/><path fill="#b2b9c0" d="M168.203 92.93c.298 2.54.539 5.049.763 7.739l-1.146.212c-5.75-1.425-10.408-7.058-13.77-10.42 3.736.821 10.946-.65 14.14 2.28z"/><path fill="#003253" d="M162.836 39.307c12.853-9.042 29.368-15.842 29.368-15.842.075-.075.075-.15.075-.224 8.145 6.127 15.02 20.027 1.42 33.627l-4.72 3.373c1.27-6.725 2.017-13.526 2.167-20.326l-1.11-2.028c-5.977 16.44-32.057 19.953-44.761 20.7a47 47 0 0 0-2.99-4.708c3.662-6.277 11.808-10.76 20.55-14.572"/><path fill="#56b0ff" d="M120.211 56.856a17 17 0 0 1 0-2.765c-.299-3.587-.822-10.313-.822-13.078.822-52.085 58.438-44.911 68.974-27.799a17.8 17.8 0 0 1 1.794 3.812c2.242.448 3.064 4.409 2.391 6.277 0 .074-.075.15-.075.224 0 0-16.515 6.8-29.368 15.842-8.743 3.811-17.044 8.404-20.63 14.681-1.72-2.39-3.507-4.891-5.6-6.162-2.017-1.345-4.184-1.569-5.978.449-.896.971-1.42 2.242-1.57 3.512-.821 6.8 6.801 17.038 9.417 20.251 0 .075 0 .15-.075.224v.075-.075c-.15 1.196-1.196 17.786 20.55 27.725 2.387 1.031 5.77 1.111 8.834.738l.85-.229c-.3-2.69-.488-5.276-.712-7.817a47.8 47.8 0 0 0 11.742-2.093s3.196-7.024 7.248-21.573c.374 11.284 1.257 27.685 1.93 32.916.896 7.025 3.3 25.542 3.225 25.542-43.417 15.245-61.588 2.257-68.463-6.112-11.284 11.06-23.963 4.53-23.963 4.53s21.347-49.517 20.3-69.095z"/><path fill="#e0e2e5" d="M138.2 71.992c0-.075 0-.15.074-.3-2.622-3.297-10.264-13.487-9.44-20.305.15-1.348.674-2.547 1.573-3.521 1.798-2.023 3.896-1.798 5.994-.45s4.046 3.672 5.77 6.07c1.198 1.723 2.172 3.37 2.997 4.72 12.737-.75 38.886-4.346 44.88-20.755l1.423 2.173c-.224 6.818-.899 13.636-2.172 20.38-.45 2.472-1.05 5.095-1.724 7.717-.15.45-.224.824-.374 1.274-4.046 14.61-7.268 21.653-7.268 21.653a51 51 0 0 1-12.063 2.173 40 40 0 0 1-11.164-.899 64 64 0 0 0 11.164 8.916c-3.072.375-6.294.3-8.916-.899C137 89.9 138.124 73.266 138.199 71.992"/><path fill="#d0d4d8" d="m208.42 111.47 9.524 5.021 10.432 12.291-10.432 17.313-2.554-21.409z"/><path fill="#007bc0" d="m147.985 256.255-60.439-71.54c-11.91-12.83-13.112-24.75-13.11-25.063.137-20.39 9.091-31.558 24.152-33.241 12.296 13.992 7.006 5.215 21.318 27.778 17.415 27.453 33.28 60.886 33.28 60.886-14.215 14.956-12.167 33.19-5.2 41.18"/><path fill="#d0d4d8" d="M179.88 71.958c1.815-.618 4.81-2.152 9.217-1.025 1.202.308 2.975.971 3.072 1.025 1.004.548 3.126 1.289 6.145 4.096-.413-.128-4.955-1.012-9.217 1.024-1.298.62-2.144 1.519-2.144 1.519-1.354 1.437-1.696 3.136-1.953 4.626a80 80 0 0 0-1.024 9.218c-3.594-3.98-3.073-6.052-3.073-8.193v-6.145c0-1.027-.81-4.634-1.024-5.121z"/><path fill="#b2b9c1" d="M244.402 142.625s-5.145-7.922-16.387-17.41c-8.448-7.132-20.483-12.29-29.7-17.411-6.967-3.87-13.371-12.273-14.34-15.363-.633-2.025-.169-4.934 0-6.145 1.314 2.512 7.701 9.672 14.34 14.338 1.37.964 3.988 3.074 6.144 4.097 3.941 1.87 5.67 1.619 13.315 6.145 15.265 9.038 22.079 21.794 24.58 26.628z"/><path fill="#007bc0" d="M183.976 86.296c.992 2.008 3.607 6.203 8.193 10.242 7.412 6.526 13.178 9.157 18.92 11.705 21.301 9.45 31.265 29.261 31.265 29.261 0-4.096 1.261-8.232 0-9.217-.1-.73-17.257-23.18-22.532-24.58-3.255-3.198-16.387-7.17-20.483-8.194-8.194-3.072-14.377-13.34-14.339-13.314 0 0-.558 2.042-1.024 4.097"/><path fill="#eff1f2" d="M188.073 77.078c2.413-1.602 8.193-2.048 10.241-1.024 6.145 3.073 7.986 4.33 13.315 8.194 7.007 5.08 11.574 9.747 21.507 20.483 7.68 8.3 14.538 15.875 20.484 22.532 1.928 2.159 5.12 7.31 5.12 12.29 0 6.145-1.386 8.518-5.12 9.217-4.272.8-10.242-5.12-11.266-10.642-.434-2.34 1.024-7.793 0-9.841a134 134 0 0 0-10.242-12.29c-7.195-7.655-8.025-9.758-14.338-13.314-10.245-5.771-15.865-4.96-22.532-9.218C189.097 89.368 185 82.2 185 82.2s1.077-3.796 3.073-5.12"/><path fill="#b2b9c0" d="M241.287 104.96c23.888 18.447 13.887 38.734 13.887 38.734l-21.39-23.423z"/><path fill="#c3c8ce" d="m221.286 140.024 12.488-19.8 21.39 23.421-17.705 11.948z"/><path fill="none" stroke="#429ad5" stroke-linecap="round" stroke-linejoin="round" d="M222.585 97.593c-3.849-4.014-5.288-5.413-9.14-8.317"/><path fill="#d0d4d8" d="M148.645 256.672c-12.688-12.925-16.155-25.516-11.997-37.106 8.662-24.333 78.17-69.285 78.17-69.285l18.956-30.058 21.39 23.422-17.705 11.948z"/></svg>