<svg xmlns="http://www.w3.org/2000/svg" viewBox="0 0 491 737"><g fill="none" fill-rule="evenodd" transform="translate(.352 .667)"><path fill="#053634" fill-rule="nonzero" d="m449.848 603.374 2.399-1.008c6.538-2.747 13.97.099 16.6 6.357l19.69 46.861c1.262 3.005 1.225 6.411-.102 9.47-1.328 3.057-3.838 5.516-6.978 6.835l-2.399 1.008z"/><path fill="#595E62" fill-rule="nonzero" d="M157.29 90.421c-.15 1.42-.23 2.772-.37 4.242 4.2-2.579 8.27-5.688 11.834-9.092-3.55.743-7.334 1.184-10.954.972-.15 1.25-.36 2.458-.51 3.878"/><path fill="#B6EDE8" fill-rule="nonzero" d="M202.53 38.843a42 42 0 0 0-1.53-7.57c-4.93-21.68-16.76-34.47-45.35-30.58-11.76 1.62-17.86 8.46-21 16.32-.07.07-.07.15-.14.15-7.06 4.77-13.75 15.58-7.5 27.11a35.13 35.13 0 0 0 25.57 59.24c1.11 0 2.21-.08 3.39-.15.29-2.64.66-5.44.95-8.3.15-1.4.29-2.87.44-4.27s.3-2.94.45-4.26c-1.1-.08-2.27-.17-3.3-.32a52 52 0 0 1-8.74-1.81s-3.15-7.09-7.44-22.34c-.66-2.57-1.25-5.14-1.77-7.57a123.4 123.4 0 0 1-2.13-20.14l1.4-2.13c5.88 16.24 31.67 19.77 44.31 20.51 3-5.3 9.78-15.51 14.56-10.29a6.6 6.6 0 0 1 1.61 4.63c-.07 6.17-6.853 13.667-9.593 17.337l3.173 13.593 4.56 25.28a35 35 0 0 0 8.09-64.45z"/><path fill="#71767C" d="M57.03 115.703 0 121.833l29.81 110.29 53.27-6.55z"/><path fill="#D0D4D8" d="m0 121.833 64.6-4 26.72 105.78-61.51 8.51z"/><path fill="#8A9097" fill-rule="nonzero" d="M50.78 211.093 10 184.933l7.87 32.55 16.13 4.52c10.73 3 19.62 5.44 19.62 5.44s44.76 29.47 65.63 41.08c-2.06-9.62-5.22-24.1-8.45-38.87l-60-18.52z"/><path fill="#A4ABB3" fill-rule="nonzero" d="M149 545.823c0 1.13-.13 2.26-.22 3.41l-.26 3v.16l-21.06 113.15c-2.14 11.4-4.4 23.87-6.79 37.58l-16.34-.31-2.7-37.71-8.86-123.94v-.11c.06-2.22 2.47-34.63 5.35-73.06l36.48.21a32.3 32.3 0 0 0 1.39 7.88c10.31 32.34 14.18 48.82 13.01 69.74"/><path fill="#66B8B2" fill-rule="nonzero" d="m43.85 724.463.14.19a27.45 27.45 0 0 0 21.08 10h62.2l-6.46-32.22h-16.53z"/><path fill="#A4ABB3" fill-rule="nonzero" d="m301.24 689.183-15.86 3.94-16-34.8-41.8-108.08-31-80.27s-15.08-65.97-15.1-120.85c0-26.72 5-54.67 8.9-72.1h16.32c15.79 11.46 28.64 41.45 38.78 76.85-2 9.84-3.77 15-5.72 43.55-.92 12.84-1.56 15.56-1.13 33 .37 14.89 1.8 27.38 7.06 35.54 17.32 26.91 25.44 41.71 29.93 60.51.53 2.2 1 4.46 1.44 6.8l.53 3v.16l17.91 115.3z"/><path fill="#66B8B2" fill-rule="nonzero" d="m232 729.113.18.15a27.45 27.45 0 0 0 22.86 4.55l60.34-15.11-14.26-29.65-15.82 3.95z"/><path fill="#116864" d="m121.67 149.433-20.8 71.21.37 71.95 68-.44 13.06-135.52c2.35-18.3-2.8-32.78-20.73-37.19z"/><path fill="#02201E" fill-rule="nonzero" d="m275.72 526.373-.1.09a94.2 94.2 0 0 1-19.8 14.2 95.7 95.7 0 0 1-28.24 9.58 125.4 125.4 0 0 1-21 1.86c-14.94.21-30.1-1.82-45-4.23q-6.27-1-12.49-2c-10.85-1.81-21.49-3.54-31.68-4.44a126.4 126.4 0 0 0-24.56-.22v-.11c.06-2.22 2.47-34.63 5.35-73.06 4.43-58.79 10-131.63 10-131.94-.08-3.42 3.2-40.09 3.72-43.51l7.805-15.57 60.612-.681 26.363.731c15.79 11.46 28.64 41.45 38.78 76.85 21.27 74.16 30.63 172.08 30.24 172.45"/><path fill="#71767C" fill-rule="nonzero" d="m91.32 231.943-61.51.18L0 121.833l61.5-.18z"/><path fill="#FFF" fill-rule="nonzero" d="m48.64 149.783-20.59.06-4.12-15.21 20.59-.06z"/><path fill="#A4ABB3" fill-rule="nonzero" d="M156 103.063c-1 8.31-1.77 14.77-1.77 14.77h42.92l-2.68-14.83-4.55-25.28-2.35-12.79c2.79-3.67 8.67-12 8.74-18.15a6.56 6.56 0 0 0-1.62-4.63c-4.77-5.22-11.53 5-14.55 10.29-12.56-.74-38.36-4.26-44.31-20.51l-1.4 2.14a132.6 132.6 0 0 0 2.13 20.13 73 73 0 0 0 1.77 7.57c4.11 15.29 7.49 22.64 7.49 22.64a49.6 49.6 0 0 0 8.75 1.83c1 .15 2.13.22 3.23.3a38.6 38.6 0 0 0 10.81-.88 67 67 0 0 1-11.69 9c-.29 2.94-.59 5.73-.88 8.37z"/><path fill="#116864" d="m148.12 115.703-15.8 4.41a27.67 27.67 0 0 0-21.24 22.89l-3.16 33.81 38.59-42.48z"/><path fill="#02201E" fill-rule="nonzero" d="M221 122.133c-.95-.3-22.37-8.71-22.37-8.71s-3.57-5.27-4.11-10.14h-41.25l-3.75 10.14-12.86 5.73s-10.8 18.52-28.15 45.12c-7.64 10-10.87 20.43-6.17 40.86 7.27 31.53 17.34 71.95 17.34 71.95l87-.07z"/><path fill="#116864" d="m154 221.233.37 72 78.86-.45 5.58-135.51c2.35-18.3 2.52-30.94-15.41-35.42-4.78-1.18-21.48-8.46-24.71-12.2-4.19-4.85-4.19-6.25-4.19-6.25z"/><path fill="#66B8B2" fill-rule="nonzero" d="M268.51 246.583 251 151.413c-3.16-16.24-14.47-28.14-27.55-29.61-10.59 12.12-12.14 29.17-12.14 48.5 0 30.06 32.27 94.07 32.27 94.07 6.83-8.23 17.31-8.57 25-17.79z"/><path fill="#A4ABB3" fill-rule="nonzero" d="M268.66 247.083c-.14-.35-.25-.54-.32-.5l-.12.08c-14.33-2-23.91 7.07-24.69 17.71-1.67 22.22 31.58 106.41 44.94 124.52 23.74 32.17 35.6 21.28 25.73 3.88-14.62-25.77-41.55-136.57-45.54-145.69"/><path fill="#A4ABB3" fill-rule="nonzero" d="M306.68 380.593c.49 0 19.91 17.64 19.91 17.64l-2.92 34.3-11.48-9.72-4.92-7.18-13.67-3.09-8.72-29.25z"/><circle cx="441.21" cy="721.983" r="12.63" fill="#383B3E" fill-rule="nonzero"/><path fill="#2E3033" fill-rule="nonzero" d="m430.64 712.713 4.9 11.65a6.151 6.151 0 1 0 11.34-4.77l-4.88-11.59zM304.723 397.508a6.32 6.32 0 0 1 8.275 3.378l57.104 135.911-11.644 4.892-57.108-135.92a6.32 6.32 0 0 1 3.373-8.261"/><rect width="75.46" height="196.38" x="377.947" y="519.53" fill="#02201E" fill-rule="nonzero" rx="15.92" transform="rotate(-22.79 415.677 617.72)"/><path fill="#053634" fill-rule="nonzero" d="m367.796 531.332 19.693-8.273 76.068 181.048-19.692 8.274z"/><path fill="#A4ABB3" d="m10 184.933 32.56 1c.88 6.25-1.47 16-8.16 20.65l-16.62 10.9z"/></g></svg>