<svg xmlns="http://www.w3.org/2000/svg" viewBox="0 0 557 594"><g fill="none" fill-rule="evenodd" transform="translate(.415 .961)"><path fill="#340731" fill-rule="nonzero" d="m340.43 191.829-19.54 64.55 37.43-.23s.7-1.78 2.69-6.26c-4.71-13.45-11.62-33.07-18.38-51.3-.8-2.35-1.61-4.56-2.2-6.76"/><path fill="#E552DA" fill-rule="nonzero" d="M233.31 277.509h116.51c0-.14-.47-2.22-.54-2.58-4.87-25.42-25.1-33.75-50.33-33.51l-.21-.08c-6.13-.11-12.28.33-17.79.76-17 1.34-33 7.36-51.52 11.08l-7.61-4.5-20.56 16.32 32.05 12.54z"/><path fill="#E48CDD" fill-rule="nonzero" d="M170.29 267.289c3 3.34 23 2.94 30.55 2.49 9.41-.55 21-21.13 21-21.13h-31.08z"/><path fill="#340731" fill-rule="nonzero" d="M339 277.879c-1.22 13.71 3.56 41.44 3.56 41.44h56.63v-41.44z"/><path fill="#71767C" fill-rule="nonzero" d="M416.38 229.309v.01z"/><path fill="#43464A" d="m70.6 591.319 9.89-191.53h85.89l9.9 191.53h12.36l-16.19-313.44h-12.36l5.66 109.55H81.13l5.66-109.55H74.42l-16.18 313.44z"/><rect width="203.66" height="132.32" x="81.16" y="101.459" fill="#8A9097" fill-rule="nonzero" rx="10.28" transform="rotate(-180 182.99 167.619)"/><rect width="203.66" height="132.32" x="74.05" y="101.459" fill="#656A6F" fill-rule="nonzero" rx="10.28" transform="rotate(-180 175.88 167.619)"/><path fill="#43464A" fill-rule="nonzero" d="M137.68 266.229h36.67l13.22-100.64h-33.26z"/><path fill="#43464A" fill-rule="nonzero" d="M223.91 266.239h-61.92v-8.37h61.92z"/><path fill="#595E62" fill-rule="nonzero" d="m187.57 165.589 36.34 68.19h-45.3z"/><path fill="#9E2896" fill-rule="nonzero" d="M395.49 80.269a32.9 32.9 0 0 1-10.73.88c-.3 2.65-.64 5.57-.94 8.36a56.6 56.6 0 0 0 11.67-9.24"/><path fill="#F0DCEE" fill-rule="nonzero" d="M445.43 75.469c0-.44.07-1 .07-1.39-.002-12.373-9.221-22.806-21.5-24.33a42.7 42.7 0 0 0-.29-22.56c-6.65-25.57-29.14-30.28-43.17-25.57-7.06 2.35-21.32 9.92-19.7 24.62-7.117 10.004-5.63 23.749 3.46 32a15.2 15.2 0 0 0 2.49 1.83c-.22-.88-.51-1.76-.73-2.71a117.5 117.5 0 0 1-3.68-25.73c3 5.66 12.72 13.23 45.79 13.23a.53.53 0 0 1 .37.08c2.35-4.19 7.27-11.17 11.68-6.32 4.78 5.21-2.79 16.53-6.47 21.38a2.3 2.3 0 0 0-.36.52l4.26 23.59 4.92 27.19h-12.71c3.136 14.758 16.683 24.937 31.73 23.842 15.049-1.094 26.98-13.126 27.948-28.182.968-15.057-9.324-28.518-24.108-31.53z"/><path fill="#E48CDD" fill-rule="nonzero" d="m417.63 84.149-4.26-23.59a3.3 3.3 0 0 0 .36-.52c3.68-4.85 11.25-16.17 6.47-21.38-4.41-4.78-9.33 2.13-11.68 6.32-.15 0-.22-.08-.37-.08-33.07 0-42.77-7.57-45.79-13.23a121.8 121.8 0 0 0 3.64 25.73c.22 1 .51 1.83.73 2.71 3.6 12.87 6.47 19 6.47 19a47.3 47.3 0 0 0 11.46 2.06c3.6.22 7.215-.08 10.73-.89a58.2 58.2 0 0 1-11.61 9.19l-2.57 21.75h41.23l-4.85-27.11z"/><path fill="#551151" fill-rule="nonzero" d="M366.44 114.299a26.66 26.66 0 0 0-20.43 22l-2.01 21.8c3-4.63 7-9.26 11.61-14.77l1.1-1.33c3.23-3.89 6-7.49 8.53-10.73a149 149 0 0 0 13.04-20.27l-11.84 3.31z"/><path fill="#551151" fill-rule="nonzero" d="M445.19 111.409c-4.71-.88-15.88-5.66-19.18-9-4.27-4.48-4.34-5.8-4.34-5.8l-39.54 2.05s.15 3.6-4.19 12.28a131.7 131.7 0 0 1-13.08 20.28c-2.5 3.31-5.29 6.91-8.52 10.73l-1.1 1.32a175 175 0 0 0-11.62 14.73c-6 9.26-8.08 18.3-3.52 33.81.58 2.13 1.39 4.41 2.27 6.83 6.69 18.23 13.6 37.85 18.38 51.3a304 304 0 0 0 2.64 7.5c2 5.73 3.24 9.26 3.24 9.26l60.63 7.86 22.74 2.94.14-1.76 10.07-129.27c1.18-17.71 2.35-31.68-15.06-35.06z"/><path fill="#340731" d="m422 272.799 27.1 4.56.58-.42.32-.28 10.15-130.12c1.39-17.71 2.57-31.6-14.85-35.06z"/><path fill="#791D73" fill-rule="nonzero" d="m503.61 265.519-35.27-131.77c-4.49-15.36-12.35-21.6-24.92-22.71-10.21 10.66-12.42 34.47-11.42 45.57 2.57 28.81 13.55 62.7 22 76 21.05.07 46.31 32.69 49.61 32.91"/><path fill="#8A9097" fill-rule="nonzero" d="M0 265.519h349.25v12.36H0z"/><path fill="#E48CDD" fill-rule="nonzero" d="M387.08 265.529H503.6c0-.15-.47-2.23-.54-2.58-4.86-25.42-25.09-33.75-50.33-33.52l-.21-.08c-6.13-.1-12.28.34-17.78.77-17 1.34-33.05 7.35-51.53 11.07z"/><path fill="#E48CDD" fill-rule="nonzero" d="m383.632 241.169-7.6-4.5h-31.09s11 11.77 17 16.89c7.2 6.15 19.27 12 25.56 12z"/><path fill="#E8B6E3" fill-rule="nonzero" d="M324.472 255.319c3 3.33 23 2.93 30.55 2.49 9.41-.56 21-21.14 21-21.14h-31.08z"/><path fill="#43464A" fill-rule="nonzero" d="M387.09 265.519H259.37v-12.24h127.72z"/><path fill="#C535BC" fill-rule="nonzero" d="m96.32 547.999.08.22a26.6 26.6 0 0 0 14.47 17.49l54.83 25.65 7.49-31.16-14.4-6.76z"/><path fill="#D0D4D8" d="M481.86 355.469h-84.15l-84.36-.29a21.2 21.2 0 0 0 21.23 21.24h3.75l-11.83 213.78H340l11.83-213.78h51.08v.51l40.71-.14 11.78 213.93H469l-11.91-214.3H461c11.544-.033 20.881-9.406 20.87-20.95z"/><path fill="#C535BC" fill-rule="nonzero" d="m290.93 539.639-16.09 5-41 43.65.22.07a26.24 26.24 0 0 0 22.63-.58l48.95-25.5z"/><path fill="#340731" fill-rule="nonzero" d="M388.59 358.869c-1.63.05-3.31.08-5 .08l-.2-.25c2.96.11 4.82.16 5.2.17"/><path fill="#340731" fill-rule="nonzero" d="M415.12 277.879c-18.86 4.8-48.25 11.66-81 17-38.36 6.32-83.63 21.17-105 28.66-7.71 2.72-12.27 4.41-12.27 4.41l-58.02 225.6 14.41 6.76c29.69-48.5 64.3-99.95 73.64-151.76 2.86-16.16 3.38-32.33.44-48.43 7.86-3.82 21.24-4.55 39.61-4.11 24 .51 56.44 2.94 96.64 2.94 64 0 79.46-34 67.32-81.07z"/><path fill="#551151" fill-rule="nonzero" d="M450.89 277.879h-79.7c-.22 7.77.81 9.75 1.56 13.22-38.62 1.22-103.91 4.13-146 12.71l48.07 240.83 16.23-4.72c1.76-57.76 13.17-134.47-4.4-184a45.6 45.6 0 0 0-5.25-11c12.19 9.7 100.74 13.95 107.25 13.95 59.76 0 74.04-35.23 62.24-80.99"/><path fill="#C1C7CC" fill-rule="nonzero" d="M349.25 265.519v12.36h54.93L388 591.319h12.36l9.89-191.53h87.56l9.89 191.53h12.36l-16.18-313.44h51.29v-12.36zm61.64 121.91 5.65-109.55h75l5.65 109.55z"/></g></svg>