<svg xmlns="http://www.w3.org/2000/svg" data-name="Ebene 1" viewBox="0 0 1753.688 1845.716"><path fill="#979ea4" d="M1001.594 433.042q-.99 9.4-1.98 19.791c-.66 6.597-1.319 13.855-2.308 21.11a322.5 322.5 0 0 0 58.054-45.19c-17.483 3.959-35.624 5.278-53.766 4.288z"/><path fill="#d0d4d8" d="M992.687 514.514a34234 34234 0 0 1-8.906 73.557h213.744l-13.524-73.887-22.76-125.673-11.432-62.628c13.854-18.142 43.099-60.408 43.428-91.084.33-8.246-2.309-16.492-7.916-23.09-23.75-26.057-57.394 24.74-72.237 51.128-62.672-3.629-190.984-21.11-220.67-102.254l-6.928 10.555c.99 33.645 4.618 66.96 10.886 100.275 2.308 12.205 5.083 25.116 8.381 37.98 20.45 76.195 37.47 113.093 37.47 113.093 14.183 4.288 28.696 7.586 43.54 9.235 4.947.66 10.86.97 16.467 1.3 18.142 1.32 35.647-.31 53.13-4.268-17.812 17.153-36.614 31.665-57.395 44.53-1.98 14.183-3.629 28.037-5.278 41.231"/><path fill="#116864" d="M1224.244 193.57c-1.32-12.864-3.959-25.399-7.587-37.933-24.409-107.861-83.453-171.853-225.618-152.062-58.384 7.916-88.73 41.89-104.234 81.144l-.66.99c-35.293 23.749-68.278 77.515-37.602 135.239-66.3 70.258-63.002 181.088 7.587 247.387 32.325 30.676 75.206 47.499 119.736 47.499 5.607 0 11.215-.33 16.823-.66a4877 4877 0 0 0 4.948-41.232c.66-7.258 1.319-14.183 2.308-21.11.99-6.928 1.32-13.194 1.98-19.791-5.608-.33-11.215-.66-16.163-1.32-14.843-1.649-29.356-4.947-43.54-9.235 0 0-17.152-36.614-37.273-112.48-3.299-12.863-6.267-25.399-8.577-37.932-6.267-32.985-9.895-66.63-10.885-100.275l6.927-10.555c29.357 80.814 157.999 98.296 220.67 102.255 15.174-26.388 48.489-77.185 72.238-51.127 5.607 6.267 8.246 14.513 7.916 23.09-.33 30.675-29.357 72.237-43.54 90.378l11.544 63.333 22.76 125.673c93.348-25.399 148.433-121.384 123.034-214.733-12.204-45.19-41.89-83.782-82.793-106.542z"/><path fill="#66b8b2" d="M882.18 587.07c-55.417 12.54-99.562 56.501-107.809 112.576l-9.565 101.265C849.248 671.28 882.508 587.077 882.18 587.069z"/><path fill="#d0d4d8" d="M385.775 1235.283c216.002-9.547 292.64 11.452 438.469 2.48 65.665-38.122 46.108-186.37-22.172-183.732-10.022-4.127-64.313 4.873-98.898 13.715-127.335 28.297-165.178 47.488-323.737 87.816-14.513-.659 6.338 79.721 6.338 79.721"/><path fill="#18837e" d="M1407.56 768.166v-.007c-18.146 217.216-85.216 285.84-109.215 584.173-1.753 21.793-31.881 1.984-31.881 1.984-4.948-13.854-9.976-25.08-16.903-37.945-64.111-170.322-4.478-439.715 72.897-726.003 30.607 3.193 77.161 52.377 85.101 177.798z"/><path fill="#2e908b" d="M1256.138 1329.038c-40.976-123.263-.751-418.71 66.401-738.664v-.99c-4.617-1.648-111.819-36.943-111.819-36.943l-20.78-50.467H984.771L966.3 552.441l-70.588 29.026-13.524 5.608S848.872 671.518 764.43 801.15c-.99 1.319-1.65 2.638-2.639 3.958-37.933 49.808-54.095 101.594-30.676 203.52 7.916 33.645 15.833 69.268 23.749 104.563 13.194 59.703 26.388 115.448 26.388 187.026l1.702 83.45s95.58 78.272 222.05 23.112c56.593-24.684 132.243-63.49 251.133-77.74z"/><path fill="#053634" d="M1384.26 1492.137c-47.853 13.55-266.374 58.06-416.555 121.047l-149.698 95.6c5.278 20.12 67.15 120.849 46.039 130.084l233.535-4.618c114.458-2.31 199.43-124.386 242.661-206.132l7.074-16.506z"/><path fill="#116864" d="M782.955 1383.666s-401.352-129.45-401.682-129.78c-74.876-22.758-154.04 19.792-176.47 94.669-1.65 5.937-3.299 11.875-4.288 18.142C314.254 1531.529 792.3 1697.615 792.3 1697.615c154.932-162.247 289.072-230.244 419.034-312.377-172.152 18.31-357.07 29.072-428.38-1.572z"/><path fill="#0e5b57" d="M764.806 1556.59c-171.352-198.076-264.032-245.237-388.905-302.703-74.877-22.76-154.04 19.791-176.471 94.668-1.65 5.937-3.298 11.875-4.288 18.142 4.318 72.165 55.71 111.292 107.555 150.593 50.016 30.709 163.043 79.973 240.522 112.682 89.622-15.69 116.979-42.907 221.587-73.382"/><path fill="#54aba4" d="M373.062 1679.55 0 1712.535s47.498 112.48 147.443 112.48h223.97l65.97-37.273-.99.33-63.332-108.52z"/><path fill="#0a4f4b" d="M946.508 1681.725c151.634-47.77 412.2-108.513 412.206-108.628 25.545-63.668 28.983-80.127 32.313-102.969 26.424-136.105-30.003-188.762-178.544-157.064-372.971 139.17-360.878 207.54-848.343 367.23 0 0 57.899 111.89 58.246 111.578 245.015-46.098 403.932-72.713 524.122-110.147"/><path fill="#54aba4" d="M887.85 1791.292c-.132-.66-.132-1.32-.262-1.98-4.052-34.964-50.323-77.184-95.287-91.697-12.94-4.288-26.142-5.937-39.212-4.618q-2.94.495-5.49.989c-25.62 4.617-36.99 15.832-36.99 15.832s.522 5.608 1.698 14.513c1.569 11.875 3.268 23.75 5.36 35.295 6.274 34.304 16.992 75.536 33.592 85.101l115.154.989c4.314-.33 8.496-2.31 12.418-6.597 8.496-9.566 11.11-27.377 9.018-47.829z"/><path fill="#79c5c0" d="m1753.688 1198.166-290.707-541.188c-34.965-59.043-81.803-66.63-140.517-67.62-39.912 73.887-41.891 150.413 28.697 317.977 55.744 132.6 109.051 205.551 124.884 228.31-1.319-8.576 277.643 62.52 277.643 62.52z"/><path fill="#c1c7cc" d="M1227.475 1322.318c253.69-25.289 502.633-80.135 526.213-124.09-80.915-52.087-136.526-94.813-204.806-92.174-8.246.33-16.822.99-25.399 2.309-109.801 34.771-142.165 93.454-300.724 133.781-14.514-.659 4.716 80.174 4.716 80.174"/><path fill="#c1c7cc" d="M1168.731 1210.938c24.893 10.97 42.32 21.709 52.663 32.227l24.367 76.243-131.658 33.013-157.597-12.183c7.971-20.778 25.794-35.842 60.916-40.873l50.812-9.884c-8.844-12.577-15.43-28.357-19.37-47.889 10.02-22.428 17.713-36.505 22.794-43.426 31.073 3 63.853 7.67 97.073 12.772m-86.307 8.226c-.037 8.312-1.571 17.165-4.32 26.457l25.19 35.691c24.244-5.66 40.509-11.19 45.356-16.532-.14-5.404-3.547-12.405-8.253-20.044l-37.73-12.379c-9.03-4.123-16.742-8.405-20.243-13.193"/><path fill="#d0d4d8" d="M227.24 1203.426c-8.845-12.577-17.643-30.915-21.584-50.446 10.021-22.428 17.713-36.505 22.794-43.427 31.074 3 63.853 7.67 97.073 12.772 24.893 10.971 42.32 21.71 52.664 32.227l24.366 76.244c.357 8.946-17.416 12.681-124.772 31.944-17.922 3.764-49.107 7.294-60.367 7.301-33.308.023-67.042-23.159-70.447-53.056zm11.976-72.874c-.037 8.312-1.57 17.165-4.319 26.457l25.19 35.69c24.244-5.66 40.508-11.19 45.356-16.531-.14-5.404-3.548-12.406-8.254-20.044l-37.729-12.38c-9.03-4.123-16.742-8.405-20.244-13.192"/></svg>