<svg xmlns="http://www.w3.org/2000/svg" data-name="Ebene 1" viewBox="0 0 400.437 959.043"><path fill="#7d8389" d="M210.262 488.259h55.018v210.342h-55.018z"/><path fill="#111f32" d="M240.953 522.272c-9.303-34.543-18.906-66.576-26.908-85.198-12.604-29.526-12.24-72.854-12.24-72.854h-32.173l-8.004 20.171-.3.58c-.4 2.508-2 17.85-3.301 31.165-1 9.841-1.7 18.718-1.7 20.648l6.801 187.668 1.5 41.393 4.903 45.349 13.404 124.372h56.718c7.202-44.384-1.8-96.68-20.107-162.002-9.903-35.025 5.902-92.242 21.407-151.292"/><path fill="#133351" d="M359.05 836.27c-.5-88.092 3.101-119.644-6.902-152.642-.8-2.798-1.8-5.5-2.8-8.395-.901-2.315-1.801-4.727-2.802-7.14l-.3-1.447s-2.5-4.92-3.801-7.526v-.097l-.6-1.447v-.096c-1-2.123-2.1-4.246-3.201-6.369l-.8-1.544-.1-.193-.8-1.543s-.1-.097-.1-.193c-1.201-2.22-2.402-4.535-3.702-6.851l-.1-.193-.8-1.544-.2-.386-.8-1.447c-.1-.097-.1-.29-.2-.386l-.8-1.544-.2-.29-2.101-3.666-.2-.386c-.3-.482-.5-.965-.8-1.447l-.4-.772-.601-1.158-.5-.868-.6-1.061-.5-.965-.6-.965-.6-.965-.401-.772-.7-1.158c-.6-.965-1.1-2.026-1.6-3.087-5.002-11-5.702-26.245-5.202-43.999 2-78.154 12.504-120.126.3-160.072-4.802-15.92-13.204-31.551-27.209-49.305H201.5c0 .193-.1 43.13 12.504 72.655 7.903 18.622 17.506 50.56 26.909 85.102 4.701 17.174 9.203 34.928 13.504 52.103 13.204 53.164 23.508 99.671 23.508 99.671l26.408 160.651 16.205.772z"/><path fill="#979ea4" d="M191.653 917.112c-.2 0 0 0 0 0v.096zm.378-.097c.1 0-.2.097 0 .097h17.464l.1.48c.2-.192.3-.384.399-.673 6.786-24.546 14.57-50.92 19.46-80.857H182.85l9.18 80.954zm168.349-.192c-.997-31.439-1.396-57.975-1.595-80.76l-38.376-.193 21.43 81.242h.4l18.14-.289z"/><path fill="#047bc0" d="m192.1 916.877-86.427 28.85.2.29c7.002 8.2 17.506 12.928 28.51 12.928h84.126l-8.903-41.586-.1-.482h-17.405zm206.537 26.824L360.925 916.3h-.9l-18.306.193-3.402 42.55h51.917c5.602 0 10.203-4.438 10.203-9.84a9.3 9.3 0 0 0-1.8-5.5z"/><path fill="#002742" d="M338.82 141.525c-.4-7.429-1.7-14.955-4.6-21.71-6.203-14.086-16.306-26.147-28.31-33.673-10.203-6.561-17.205-16.886-19.306-28.464-1.1-5.982-2.3-12.157-3.3-16.692C276.6 12.522 260.495-4.267 221.583.943c-16.005 2.123-24.308 11.096-28.51 21.42 0 .097-.1.097-.1.193-11.503 7.527-22.107 26.245-3.2 44.578V94.44c-.101.289-.201.578-.4.868-4.002 9.07-10.704 24.218-10.704 33.578 0 18.332 6.702 31.358 11.103 37.92v34.349l152.949-2.606s6.902-5.692 10.803-19.972c3.001-11.29 1.9-22.482-14.705-37.052zM194.068 42.281c8.202 21.902 45.322 25.239 61.827 25.625 1.1-2.413 10.407-20.382 18.204-12.237 7.003 7.43-4.801 23.736-9.908 29.911l13.306 69.26h-58.213s1.8-14.472 3.701-29.717c.4-3.86.943-7.62 1.343-11.286a73.3 73.3 0 0 1-16.447-2.801s-4.602-9.65-10.204-29.622c-3.201-11.868-5.002-24.122-5.301-36.376l1.698-2.78z"/><path fill="#7d8389" d="M239.232 112.546c-5.002 1.157-10.103 1.64-15.205 1.254-.4 3.667-.844 7.48-1.245 11.34 6.276-3.407 11.548-7.866 16.45-12.594"/><path fill="#a4abb3" d="M207.677 111.053c5.302 1.544 10.704 2.508 16.305 2.798 5.102.29 10.204-.097 15.205-1.254-4.901 4.824-10.403 8.973-16.405 12.543a2605 2605 0 0 1-3.701 29.718h58.318L264.395 85.58c4.902-6.175 16.706-22.481 9.703-29.91-8.102-8.492-17.305 9.937-18.506 12.253-16.605-.386-53.316-3.86-61.52-25.666l-1.9 2.798c.4 12.254 2.101 24.508 5.302 36.376 5.602 19.973 10.203 29.622 10.203 29.622"/><path fill="#979ea4" d="m52.228 242.95-38.012-15.437-5.802 30.586 34.81 7.623c70.123 50.077 165.435 66.677 160.433 13.609.5-.965-151.43-36.38-151.43-36.38z"/><path fill="#bad4f0" d="M43.225 265.722c70.122 50.077 165.434 66.677 160.432 13.609L54.61 249.42zm147.747-106.715c-15.105 3.28-27.209 14.955-29.51 29.718l-2.6 26.727c23.107-34.253 32.11-56.445 32.11-56.445"/><path fill="#eff0f1" d="M159.962 384.787c-.7 4.535-5.101 47.761-5.101 52.296-.1-4.438 4.4-47.761 5.101-52.296"/><path fill="#00639b" d="m293.105 347.64 41.513-140.197c.1-.771.2-1.447.3-2.219 0-.29 0-.482.1-.772 0-.482.1-.965.1-1.447 0-.29 0-.579.1-.868 0-.386.1-.869.1-1.255v-6.947c0-.29 0-.772-.1-1.061l-.1-.869c0-.386-.1-.772-.1-1.061 0-.29-.1-.579-.1-.868l-.1-1.062c0-.29-.1-.579-.1-.868s-.1-.675-.2-.965-.1-.579-.2-.868-.1-.676-.201-.965l-.2-.772c-.1-.29-.2-.676-.3-.965l-.2-.772c-.1-.29-.2-.675-.3-.965s-.2-.482-.2-.772c-.1-.29-.2-.675-.4-.965-.1-.29-.2-.482-.3-.675-.1-.386-.3-.675-.4-1.061l-.2-.58c-.201-.385-.4-.868-.601-1.254-.1-.096-.1-.193-.1-.29-.3-.482-.5-.964-.8-1.543-.1-.096-.2-.29-.3-.386-.2-.386-.4-.772-.7-1.061-.1-.193-.2-.386-.4-.58s-.4-.578-.6-.868l-.401-.579c-.2-.289-.4-.578-.6-.771-.2-.29-.3-.386-.5-.58s-.4-.482-.7-.771c-.201-.29-.4-.386-.501-.58s-.5-.482-.7-.675l-.6-.578c-.201-.193-.5-.483-.8-.676l-.601-.482c-.3-.193-.5-.386-.8-.58l-.7-.482c-.3-.193-.5-.386-.8-.579l-.701-.482-.9-.579-.8-.482-.9-.483c-.3-.096-.5-.29-.8-.386l-1-.482-.8-.386c-.3-.193-.701-.29-1.101-.483l-.8-.29c-.4-.192-.8-.289-1.201-.385l-.634-.136-50.881 187.707h33.21z"/><path fill="#2e91cf" d="M167.165 347.64h92.73l51.016-187.765v-.193c-1.3-.386-30.51-9.745-30.51-9.745l-5.602-13.315h-56.018l-5.101 13.315-19.306 7.623-3.702 1.447s-9.003 22.289-32.11 56.445l-.7 1.061c-10.404 13.123-14.805 26.824-8.403 53.647a21500 21500 0 0 1 6.502 27.596 5290 5290 0 0 1 11.204 49.883z"/><path fill="#111f32" d="M293.105 347.64h-125.94l1.472 16.798h118.319z"/><path fill="#e8f0fb" d="M275.68 138.46c4.26 4.885 12.824 9.294 23.61 14.988 7.899 4.169 14.005 4.824 19.007 7.719l-3.001 106.136-3.001 106.136a5443 5443 0 0 1 30.51 173.677 5437 5437 0 0 1 24.508 171.747H256.277c2.396-76.403 5.548-121.95 5.756-179.986.1-27.682-.212-63.667-2.755-110.44-3.737-68.754-10.87-152.954-18.006-199.729 11.337-39.238 23.071-51.01 34.408-90.249zm-120.435 80.6c-7.002 10.613-12.004 18.332-7.002 45.348l8.002 108.066-6.002 71.4c-.133 14.667.3 253.584.166 268.25 36.574-.131 5.44.13 42.013 0 4.64-64.516-26.811-280.923-22.172-345.44l-3.001-142.8 44.014-66.577c2-5.789 5.398-14.988 7.4-20.777-6.67 4.824-21.341 17.367-28.01 22.192-14.283 21.132-21.125 39.205-35.408 60.337z"/><path fill="#d2e2f6" fill-rule="evenodd" d="M310.691 157.757c18.106 2.798 30.83 11.574 36.331 32.801l32.41 103.628-68.821-24.798s-11.303-19.2-13.404-50.752c-1-15.052-.22-44.187 13.484-60.88z"/><ellipse cx="268.299" cy="237.183" fill="#2e3033" rx="12.5" ry="9.9" transform="rotate(-63.987 268.3 237.183)"/><path fill="none" stroke="#1b1c1d" stroke-miterlimit="10" stroke-width="4" d="m268.278 229.045 20-76c3.49-10.425.176-20.058-6-23-3.742-1.783-6.532-.85-9.46-.148"/><ellipse cx="265.299" cy="235.183" fill="#43464a" rx="9.584" ry="7.59" transform="rotate(-63.987 265.3 235.183)"/><path fill="none" stroke="#1b1c1d" stroke-miterlimit="10" stroke-width="4" d="M168.278 235.045c-3-3-10-5 3-35 5.89-13.594 15-29 27-25 13.214 4.404 10.467 24.287 7 37-9 33-17 30-22 28"/><path fill="none" stroke="#1b1c1d" stroke-miterlimit="10" stroke-width="4" d="m198.278 175.045 8-23c2.374-7.151 7.856-17.9 15.32-17.081"/><path fill="#7d8389" d="M139.382 218.733s.6 2.798 1.6 6.464c.4 1.351 9.603 3.956 10.104 5.403.9 3.185 2.1 6.272 3.4 9.263 3.202 6.658 17.106 6.561 17.106 6.561l16.405-35.314z"/><path fill="#133351" d="m179.003 291.326-137.27-8c-3.556 0-7.538-2.76-8.894-6.167L.454 195.322c-1.356-3.406.427-6.167 3.983-6.167l137.27 6c3.556 0 7.538 2.761 8.894 6.167l32.385 83.837c1.356 3.406-.427 6.167-3.983 6.167"/><path fill="#a4abb3" fill-rule="evenodd" d="m.711 215.066 41.714 1.35c1.2 8.202-3.401 20.36-11.804 24.798L8.414 258.099z"/><path fill="#979ea4" d="m212.88 228.285-24.91-17.175-16.405 35.314c6.402.772 28.51 3.763 30.41 4.728 11.092 3.554 45.695 22.39 51.697 28.179 6.55 6.318 6.5-22.28 13.004-28.946l-53.798-22.1z"/><path fill="#d2e2f6" d="M225.664 267.752c84.527 43.516 114.037 82.98 153.714 25.872l-139.71-56.748z"/></svg>