<svg xmlns="http://www.w3.org/2000/svg" viewBox="0 0 840 1000"><path fill="#a4abb3" d="M404.3 509.3c-15.8-47.2-32.6-88.2-52-145.5-9.6 9.2-27.3 14.7-32.3 16.1 9.4 43.1 59.3 138.4 59.7 139.3L367.6 568l7.8 5.3 7.6-11.8-.1-18.8v-.1l27.3 10c-.1 1.4-.2 2.7-.3 4l17.7-5.1h.1c-2.2-12.9-23-39.7-23.4-42.2m-24.6 9.9v.2z"/><path fill="#8a9097" d="M214 136.1c-5 1.3-10.2 1.7-15.3 1.4-.4 3.9-.8 8.1-1.2 12.1 6.3-3.6 12.2-8.2 17-13.5z"/><path fill="#9be4b3" d="M261.2 61.3c-6.7-29.4-26.6-45.7-65.5-40.4-15.9 2.2-24.1 11.4-28.3 22.1l-.2.2c-11.5 7.8-22.1 27.1-3.2 46.1l6.1 4.7c-1.7-9.1-2.6-18.4-2.8-27.6l1.6-2.5c3.8 10.5 17 20.6 30.6 23.6 16.3 3.6 20.7 2.8 29 4.1l.5.1c4.1-7.2 13.3-21 19.7-13.9 1.5 1.7 2.3 4 2.2 6.3-.1 8.4-8.2 19-12.1 24l3.4 18c24.8-38.7 20.1-50.3 19-64.8"/><path fill="#a4abb3" d="M172.3 104c5.6 20.7 10.2 30.7 10.2 30.7 5.3 1.6 10.7 2.6 16.2 2.9 5.2.4 10.4-.1 15.4-1.4-5 5.2-10.6 9.7-16.7 13.4-.3 2.8-.6 5.5-.9 8.2H248l-5.9-32.3-3.1-17.2c3.8-4.9 11.8-16.2 11.9-24.6.1-2.3-.6-4.6-2.2-6.4-6.5-7.1-15.6 6.7-19.7 13.9l-.5-.1c-8.3-1.4-12.6-.5-29-4.1-13.5-3-26.8-13.1-30.6-23.6l-1.9 2.9c.3 9.2 1.2 18.3 2.9 27.3.7 3.5 1.5 6.9 2.4 10.4"/><path fill="#8a9097" d="M150 388.3c-.6-2.4-2-8.1-3.9-15.8 1.9 7.8 3.3 13.4 3.9 15.8m.1.7c0 .2.1.3.1.4 0-.1 0-.3-.1-.4m-5.1 21.2-22 .1-35.1 93.3-38.6 34.1 3.3 10 16.8-8.2-21.5 29.3 9.2 3.6c6.8 2 12.8 1.8 19.7-.8 19.7-9.6 31.2-59.5 31.2-59.5l26.6-39.7c.2-2.6.3-4 .3-4.1 0-4.5 9.4-53.4 10.1-58.1"/><path fill="#37a264" d="m49.2 986.4.2.3c6.9 8.4 17.2 13.3 28.1 13.3h83l-8.6-43h-22.1zM386.7 949.4l-7.5-1.6 1.4-5.7-9.4 2.3-9.5 6.5zM329 975.8c-.9-.3-1.8-.6-2.6-.9l-26.2 17.8.2.2c8.8 6.5 19.9 8.7 30.5 6.1l41.1-10.3z"/><path fill="#007a42" fill-rule="evenodd" d="M150.3 389.6s-11.6-46.6-21.1-87l-8 107.7 23.7-.1z" clip-rule="evenodd"/><path fill="#002c14" d="M318.1 492.1c-9.3-32.5-20.3-61.5-33.1-81.5l-88.4.5-.5-96 54-157.2s0 .2.1.5c0-.2-.1-.4-.1-.7h-55l-5 13.5-17.2 7.6s-14.4 24.7-37.6 60.2c-10.2 13.3-14.5 27.3-8.2 54.5 9.7 42.1 23.1 96 23.1 96l-5.4 20.7c-.7 4.6-10.1 53.5-10 58 0 .4-7.4 97.6-13.3 176-3.8 51.3-7.1 94.5-7.1 97.5v.1c10.9-1 21.9-.9 32.8.3 13.6 1.2 27.8 3.5 42.3 5.9 5.5.9 11.1 1.8 16.7 2.7 19.9 3.2 40.1 5.9 60 5.6 9.4 0 18.8-.9 28-2.5 13.1-2.3 25.9-6.6 37.7-12.8 9.6-5.1 18.5-11.5 26.4-18.9l.1-.1c.6-.3-11.9-131-40.3-229.9"/><path fill="#a4abb3" d="M147.3 742.3c-10.9-1.2-21.9-1.3-32.8-.3v-.1c.1-3 0-3-.1-.1v.1l11.8 165.3 3.6 50.3 21.8.4c3.2-18.3 6.2-34.9 9.1-50.1l28.1-150.9v-.2l.3-4c.1-1.5.3-3 .3-4.5-14.4-2.5-28.6-4.8-42.1-5.9"/><path fill="#979ea4" d="m388.2 911.5-3.4-22.1L361 735.6v-.2l-.7-4c-.6-3.1-1.2-6.1-1.9-9.1-7.9 7.4-16.8 13.8-26.4 18.9-11.8 6.2-24.5 10.5-37.7 12.8L350 898.2l21.3 46.4 9.2-2.3z"/><path fill="#007a42" fill-rule="evenodd" d="m173 178.9 2-.9-7.8 2.2c-14.8 3.4-26.1 15.5-28.3 30.5l-2.5 27c22.5-34.7 36.6-58.8 36.6-58.8" clip-rule="evenodd"/><path fill="#00884a" fill-rule="evenodd" d="M272.5 247.2c0-25.7 2.1-48.5 16.1-64.6-6.4-1.6-28.7-11.3-33-16.3-5.6-6.5-5.6-8.3-5.6-8.3l-54 157.2.5 96 88.4-.5 16.8-.1 2.5-61.2c-13.4-30.8-31.7-77-31.7-102.2" clip-rule="evenodd"/><path fill="#4ab073" d="M325.5 222c-4.2-21.7-19.3-37.5-36.8-39.5-14.1 16.2-16.2 38.9-16.2 64.7 0 40.1 46 133.1 46 133.1s25.6-6.4 35.8-18.7zM487.8 382c-16-8.2-35.1-19.5-40.8-22.9L409.9 473l-10.7 21.5c1.7 4.9 3.4 9.8 5 14.7.4 2.4 19.5 27.1 22.9 40.4l-5.6-34.7c0 .1 59.8-119.5 66.3-132.9"/><path fill="#37a264" d="M544.1 120.6c-.2 1.9-.3 3.7-.5 5.7 5.6-3.4 11-7.6 15.8-12.1-4.7 1-9.8 1.6-14.6 1.3-.2 1.6-.5 3.2-.7 5.1"/><path fill="#72ca92" d="M518.8 82.4c5.5 20.4 10 30.2 10 30.2q5.7 1.8 11.7 2.4c1.3.2 2.8.3 4.3.4 4.8.3 9.7-.1 14.4-1.2-4.7 4.6-10 8.6-15.6 12-.4 3.9-.8 7.6-1.2 11.2h-.1c-.2 1.6-.4 3.2-.6 4.7l52.3-2.6-.4-2.2-6.1-33.7-3.1-17.1c3.7-4.9 11.6-16 11.7-24.2.1-2.3-.7-4.5-2.2-6.2-6.4-7-15.4 6.7-19.4 13.7-16.8-1-51.2-5.7-59.1-27.4l-1.9 2.9c.3 9 1.2 18 2.8 26.9.8 3.5 1.5 6.9 2.5 10.2"/><path fill="#002c14" d="M690.8 636c-8.8-9.9-13.7-40-17.5-60-6.5-34-16.4-73.2-22.2-105.1 1.3 22.5.2 42.6-31.8 85-7.9 11.4-29.7 35.7-44.1 55.6 22.3 46 50 97.9 50 97.9l140.3 220.3 45.2-31.7c-59.4-167.1-60.6-175.2-119.9-262"/><path fill="#979ea4" d="M503.8 202.8c16.3-19.5 25.2-33.5 30.1-43.2-14.7-.2-28.4 8.5-34.4 22.3L486.3 225c4.6-6.8 10.6-13.8 17.5-22.2m-19.6 79.4c-2.5-6.4-4.3-13-5.6-19.7-.6-3.4-.9-6.5-1-9.4l-32.3 105s25.3 15.3 44.7 25c1.7-2.1 3.2-4.7 4.5-7.6-2.2-40-5.5-80.5-10.3-93.3"/><path fill="#5ebd82" d="M678.8 582.7c41.2 5.3 43.4-42.4 43.4-42.4l-36.9 7.2z"/><path fill="#72ca92" d="m722.2 540.4-7.9-29L701 354.2c-14.8 5.2-23.4 6.8-42.6 11.7-5.1 30.6 28.2 128.5 28.2 128.5l-.4 15.1-23.2 40.6 5.4 7.2 17-17.2-.2 7.5z"/><path fill="#b2b9c0" d="M609.9 223.6c-1.4-15.7-.4-44.5 15.9-63.9-7.4-2.2-20.2-7.8-24.2-12.1h-.1c-6-6.3-6.1-8.1-6.1-8.1l-55.4 2.8s.3 5-5.9 17.1c-4.9 9.7-13.8 23.8-30.2 43.4-7.1 8.6-13.2 15.6-17.8 22.6-7 10.8-10.2 21.3-7.4 37.1 1.3 6.7 3.1 13.3 5.6 19.7 10.2 27.7 14.1 186.4 14.1 186.4l112.2 1.5 11.2-194.4c-6.2-19.5-10.7-38-11.9-52.1"/><path fill="#979ea4" d="m621.6 275.6-11.1 194.5s31.5-2.2 43.5-6.5l-2.1-108.8c-10.3-22.6-21.8-52-30.3-79.2"/><path fill="#004523" d="m610.5 470.1-96.9-1.3C484.4 537 457 634.3 457 634.3l-77.8 313.4 52.4 11.2c77.8-172.8 89.9-192 110.5-283.1 6.7-19.4 13.8-32.3 23.7-50 11.6-20.7 43.5-55.6 53.5-70 35-46.4 33-66.1 31.4-91.3-13.6 3.7-40.2 5.6-40.2 5.6"/><path fill="#232628" d="m305.3 954.3.1.3c4.3 10.2 13 18 23.6 21.2l81.1 24.2 10.2-44.4-27.6-6.6zm495.3-51-22.4 16.5-48.4 75 .3.1c10.8 2.6 22.2.2 31.1-6.5l67.6-50.9z"/><path fill="#c1c7cc" d="m705 352.8-44.4-161.3c-6.3-21.5-17-31.5-34.8-31.9-16.3 19.4-17.3 48.3-15.9 63.9 3.3 37.4 29.2 105 47.2 142.7.1-.4-.1.4 0 0 21.9-5.5 30.1-6.9 47.9-13.4"/><path fill="#2e3033" d="M604.5 51.8c-.4-3.4-1.1-6.8-2.1-10.1-6.6-28.9-22.4-46-60.5-40.8-15.7 2.2-23.8 11.3-28 21.8-.1.1-.1.2-.2.2-9.4 6.4-18.3 20.8-10 36.2-12.8 13.6-9.8 37.4-2.4 54.6 7.2 16.7 18.1 40 35.7 39.3 3.1-7.5 2.9-10.7 2.9-10.7l1.9-.1c.2-1.5.4-3.1.6-4.7h.1c.4-3.5.8-7.2 1.2-11.2.2-2 .3-3.8.5-5.7s.5-3.5.7-5.2c-1.5-.1-3-.2-4.3-.4-3.6-.4-7.2-1.2-10.7-2.2-.3-.1-.7-.2-1-.3 0 0-1.2-2.7-3.2-8.4-.7-1.8-1.4-4-2.2-6.5-1.3-4.1-2.9-9.1-4.5-14.9-.9-3.4-1.7-6.9-2.4-10.1-1.7-8.9-2.6-17.8-2.8-26.9v-.4l1.9-2.9c7.9 21.7 42.4 26.4 59.1 27.4 4-7.1 13-20.7 19.4-13.7 1.5 1.7 2.3 3.9 2.2 6.2v.4c0 1.3-.3 2.6-.7 4-2 7.4-7.9 15.8-11 19.9l3.1 17.1 6.1 33.7.4 2.2 1.2-.1s.1 1.8 6.1 8.1h.1c.1.1.3.2.4.4 14.4-9.4 24.2-33.3 26.2-49.6 2.2-18.9-7.2-37.3-23.8-46.6m-60.9 74.5"/><path fill="#5ebd82" fill-rule="evenodd" d="m382.8 542.5 27.3 10c-.9 13.2-3.2 24-14.1 26.3l-12.9 3.9z" clip-rule="evenodd"/><path fill="#979ea4" d="M409.7 556.5c-1.1 11.3-4 20.2-13.8 22.2l-7.4 2.2.4 9.4c10.6 2.6 24.7-5.7 28.2-14.7 2.9-7.6 10-21.7 10.3-24.2z"/></svg>