<svg xmlns="http://www.w3.org/2000/svg" viewBox="0 0 144.4 459.3"><g data-name="Ebene_1"><path fill="#43464a" d="m47.717 57.791.083-.391c2.7-1.3 5.2-2.9 7.6-4.8q-3.3.6-6.6 0c-.2.9-.9 4.4-1.1 5.2zM.1 226.3c14.1 9.1 23.1-7.9 23.1-7.9l-14.6-3.8zm48.2-82.1v-.3c-8.3-2.5-14.3-1.1-18.3 3.2-8.3 9.1-11.7 48.4-11.7 48.4l-9.7 19.1 14.6 3.8 2.1-11.9s21.6-57 23-62.3"/><path fill="#43464a" d="m0 211.7.8 3.6 11-4 4.4-10.8z"/><path fill="#002742" d="m48.4 143.8-4.2-53.3c-.8-9.1-4.8-14.7-11.9-16.2-6.5 6-9.9 13.7-11 24.3-1.7 16.5 8.8 48.5 8.8 48.5 4.2-4.1 10-5.7 18.3-3.3"/><path fill="#002742" d="M48.4 143.8c-8.3-2.5-14.3-1.1-18.3 3.3-8.3 9.1-17.1 53.1-17.1 53.1l2.5 1 10.4 4 4.1 1.6s17-57.3 18.4-62.6z"/><path fill="#c1c7cc" d="M81.1 43.3c-.8-2.5-2.8-4.4-5.3-5.1l.2-.2c3.9-9.2 2.2-16.3 2.2-16.6-.2-1.9-.6-3.9-1.1-5.8l-.2-.6C74 5.2 67.1-.5 52.4 0c-4.1 0-7.9 1.7-10.8 4.6-.5.3-1 .7-1.3 1.2-.9 1.1-1.6 2.3-2.2 3.5 0 .3-.2.6-.4.9-4.574 5.541-5.894 23.843 1.815 32.731a88 88 0 0 1-.841-4.29A25 25 0 0 1 38.2 36.5c-.8-5.1-1.1-10.2-.8-15.4l.1.01v-.01l4.7.49.2-5.59.095.127L42.5 16l4.6 6.1 5.101.49L53.3 12.7l.08.18.02-.18 4.559 10.406 3.741.394 3.3 8.6c2.1-2.8 5.5-6.4 7.8-5 .3.2.6.5.8.8.263.347.426.732.544 1.133l.018.062c.042.152.086.303.11.461.46 2.585-1.52 6.018-3.572 8.644-.064.022-.123.052-.187.076A40 40 0 0 1 67.9 41.3l.7 7.9.306 3.584c2.052 1.321 4.655 1.729 7.094.916 4.2-1.4 6.5-6.2 5.1-10.4"/><path fill="#595e62" d="M44.6 71.5 70.7 74l-1.4-16.6-.7-8.2-.7-7.9c2.5-2.6 8.5-9.7 5.7-13.4-.2-.3-.5-.6-.8-.8-2.3-1.4-5.7 2.2-7.8 5l-3.3-8.6-3.7-.3-4.6-10.5-1.1 9.9-5.2-.5-4.6-6.1-.2 5.6-4.8-.5c-.2 5.1 0 10.3.8 15.3.7 4.8 1.8 9.6 3.3 14.2 2.3 1 4.7 1.6 7.2 2q3.3.6 6.6 0c-2.4 1.9-4.9 3.5-7.6 4.8-1.5 7.1-3 13.9-3 13.9z"/><path fill="#002742" d="M39.6 169.2c14-54.1 2.2-101.3 2.2-101.3L31 72c-7.4 2.2-12.3 9.3-11.8 17l3.4 69.1.6-.2c8.5-3.4 16.5 3.4 16.4 11.4z"/><path fill="#003e64" d="M42 160.1h27.4c0-.3-41.2 0-41.2 0l-4.5 9.6c-.3 2.1-2.3 22.3-2.3 24.4l-2.1 52.8 2.1 52.3 8.2 46.1 2.2 36.3 1.9 7.2-2.6 7.9v8.1l2.6 11.2 10.6 4.2h10.1l7.1-6.3 3.7-10.3-1.8-5.2 2-4.9c0-2.5-1.9-11.9-1.9-14.4 0-5.2 0-10-.3-12.4-2.2-17.5 4.2-36.6-2.2-60.3-4.5-16.5-5.5-43.3-1.1-72.1-4.2-16.3-8.6-31.4-12.2-40.1-5.7-13.9-5.7-34.1-5.7-34.1"/><path fill="#005587" d="m139.1 415.7 1.7-9-4.5-6.6 1.6-8.5-1.6-11s-10.3-46-10.9-49.1l-4.3-21.6-8.5-13.4-2.5-12.1c-3.4-5-7.4-22.6-8-31.8-3.4-51.4-7.8-65-32.6-91.8l-12 1.1-27.3 2.5 31.1 111.9c1.3 4.8 5.2 9.4 6.2 13.4 2.7 11.1 6 14.9 6 14.9l3.7 14.5 11.7 16.6 4.8 19.2 14.8 28.3-.8 7 3.1 4.8-1.8 6.3 10.3 17.3 7.2-1.8 8.7-.8 3.9-.4z"/><path fill="#005587" d="m87.4 72.1-13.7-4.7-2.4-6.2-25.2-.3-2.4 6.2-10.4 4.1S29 81.7 18.2 97.8c-4.8 6.1-6.8 12.4-4.1 25 4.2 19.3 9.6 47 9.6 47l40.518-2.6 23.182-95z"/><path fill="#003e64" d="m72.2 230.1 26.7-7c3.6-17.1-8.8-36.4-14.5-43.9l-26.8 8.5s5 25.4 14.6 42.4"/><path fill="#005587" d="m65.1 198.1 27.2-9.3-8.1-9.8-26.5 8.7 7.5 10.4z"/><path fill="#c1c7cc" d="m74 25-5 2.6-3.9 4.5-4.2-10.7 12.9-3.2.2 6.9z"/><path fill="#43464a" d="M53.1 240.515c15.7 9.8 25.4-9.1 25.4-9.1l-16.2-3.9z"/><path fill="#595e62" d="M105.1 149.015v-.4c-9.2-2.6-15.9-1-20.2 3.9-9 10.1-12.1 53.7-12.1 53.7l-10.5 21.3 16.2 3.9 2.2-13.2s23-63.3 24.4-69.2"/><path fill="#595e62" d="m52.7 224.315.9 3.9 12.1-4.6 4.7-12-17.7 12.6z"/><path fill="#003e64" d="M105.2 148.315c-9.2-2.6-15.9-.9-20.2 3.9-9 10.2-17.9 59-17.9 59l2.8 1 11.6 4.3 4.5 1.7s17.8-63.6 19.2-69.5z"/><path fill="#ed0007" d="m75.4 205.515.9-2.2 9.8 4-.9 2.2z"/><circle cx="72.6" cy="203.015" r="1.8" fill="#c1c7cc"/><path fill="#43464a" d="m62.5 413.7-27.3-8-7.9 18.8 15.6 5.1 23.2 1.3-3.7-17.1z"/><path fill="#43464a" d="m45.1 404.7-20.4-1.8 4.4 19.3 15.6 5.1.3-22.5z"/><path fill="#43464a" d="M29.8 455.1c-5.5 1.9-26 1.6-28-1.7-2.2-3.7 0-8.8 3.3-11.2s7.4-3.3 11-5.4c3.8-2.2 9.4-8.1 11.2-12.4 13.9 4.2 24.7 1.7 38.5 5.9 1.2.4.7 13.8-.6 15.6-1.7 2.4-6.7 2.5-9.2 3.1-3.4.8-8.3-1.5-12.5-.6-5.2 1.2-9.7 5.2-13.9 6.6z"/><path fill="#2e3033" d="M2.1 445.8c1.7-1.5 8 .9 8.2 6 5.6 1.8 11.5 2.6 17.3 2.2 5.3-.4 12.1-6.8 18.5-6.8 9.7 0 18.2-2.2 20.2-7.2 2 1.2 0 7.3-1.2 8.9q-1.2 1.2-2.7 1.8l-2.5.9c-.5.1-1 .2-1.5.4l-2.5.4h-1.5l-2.5-.3c-1.3-.2-2.7-.3-4-.3-4.6 0-6.7 2.4-9.9 4.4l-1.9 1.1c-.3.2-.7.4-1.1.5l-2.4.8-1.2.3-2.6.4h-7.7l-1-.1h-2.4c-.5-.1-.9-.2-1.4-.3l-2.4-.3-1-.2-2.6-.5c-4-.8-7-1.9-7.9-2.9-2.3-2.6-2.3-7.8-.6-9.3z"/><path fill="#c1c7cc" d="m45.7 423.2-17.2-3.7.3 1.5 15.9 3.6 1-1.3zm-3.3 4.3-15-3.1-.6 1.1 14.5 3.3 1-1.3zm-3.7 4.7-13-4.8-.9 1.2 12.9 4.8zm-3.1 3.9L22.9 431l-1 1.1 12.8 5.2 1-1.2zm-2.9 3.6-13.1-5.5-1.1.9 13.3 5.7.8-1.1z"/><path fill="#43464a" d="m139.7 411.5-27.3-8-7.9 18.8 15.6 5.1 23.2 1.3-3.7-17.1z"/><path fill="#43464a" d="m122.2 402.4-20.3-1.8 4.4 19.3 15.6 5.1.3-22.5z"/><path fill="#43464a" d="M106.9 452.9c-5.5 1.9-26 1.6-28-1.7-2.2-3.7 0-8.8 3.3-11.2s7.4-3.3 11-5.4c3.8-2.2 9.4-8.1 11.2-12.4 13.8 4.2 24.7 1.7 38.6 5.9 1.2.4.7 13.8-.6 15.6-1.6 2.4-6.7 2.5-9.2 3.1-3.4.8-8.3-1.5-12.4-.6-5.2 1.2-9.7 5.2-13.9 6.6z"/><path fill="#2e3033" d="M79.2 443.6c1.7-1.5 8 .9 8.2 6 5.6 1.8 11.5 2.6 17.3 2.2 5.3-.4 12.1-6.8 18.6-6.8 9.7 0 18.2-2.2 20.2-7.2 2 1.2 0 7.3-1.2 8.9q-1.2 1.2-2.7 1.8l-2.5.8c-.5.1-1 .2-1.5.4l-2.5.4h-1.5l-2.4-.3c-1.3-.2-2.7-.3-4-.3-4.6 0-6.7 2.4-9.9 4.4l-1.9 1.1c-.3.2-.7.4-1.1.5l-2.4.8-1.2.3-2.7.4h-8.6l-2.4-.2h-1.4c0-.1-2.4-.5-2.4-.5l-1-.2-2.6-.5c-4-.8-7-1.9-7.9-2.9-2.3-2.7-2.3-7.8-.6-9.3z"/><path fill="#c1c7cc" d="m122.9 421-17.2-3.7.3 1.5 15.9 3.6s1.1-1.3 1-1.3zm-3.4 4.3-15-3.1-.6 1.1 14.5 3.3 1-1.3zm-3.7 4.7-13-4.8-.9 1.2 12.9 4.8zm-3.1 3.9-12.7-5.1-1 1.1 12.8 5.2 1-1.2zm-2.8 3.6L96.8 432l-1.1.9 13.3 5.7.8-1.1z"/><path fill="#003e64" d="M99.846 89.619c-1.1-10.1-5.6-16.2-13.5-17.8-7.1 6.8-10.7 15.4-11.7 27.1-1.6 18.3 10.6 53.4 10.6 53.4 4.5-4.6 10.654-6.304 19.854-3.704z"/><path fill="#002742" d="m87.849 72.192-.23-.092h-.124c.117.032.238.058.354.092m-.631-.16V72l-.007.03zM76.124 117.92 64.218 167.2l11.183.188 7.182-23.382c-2.028-6.692-4.748-16.52-6.459-26.087"/></g></svg>