<svg xmlns="http://www.w3.org/2000/svg" viewBox="0 0 425 737"><g fill="none" fill-rule="evenodd"><path fill="#C1C7CC" fill-rule="nonzero" d="M197.395 235.83c-.27-.15-.64-.29-.91-.43l-100.32 49.4-37.32 10.15 3.6 6.19c2.36 4.06 3.61 4.58 8.32 5.31 5.45.91 12.36 1.75 14.56 1.09 16.43-5 32.92-15 32.92-15l73.9-19.39 1.24-.26a19 19 0 0 0 9-4.81c9.34-8.78 8.44-26-5-32.29z"/><path fill="#E0E2E5" fill-rule="nonzero" d="m44.885 317.53 61.99-30.53h-44.43L.455 317.53z"/><path fill="#C1C7CC" fill-rule="nonzero" d="M112.895 277.21 98.575 287h-11.31l-13 5.41-5.54-1.91 16.23-10.26a19.66 19.66 0 0 1 10.51-3z"/><path fill="#551151" fill-rule="nonzero" d="M262.955 120.83c-12.45-2.237-24.8 4.39-29.82 16l-46.09 103.2 1 .09c13.18 1.22 19.41 14.53 16.66 25.35.82-.89 32.51-41.46 41-55.78 27-47.42 36-86.79 36-86.79z"/><path fill="#C1C7CC" fill-rule="nonzero" d="M289.285 86.16a38.1 38.1 0 0 1-10.8.88c-.15 1.4-.3 2.94-.45 4.41-.14 1.25-.25 2.63-.39 3.88a56 56 0 0 0 11.81-9.15z"/><path fill="#E0E2E5" fill-rule="nonzero" d="M274.935 118.51h43l-4.85-26.89-2.43-13.23-2.35-12.79c3.68-4.7 12.35-17.2 7.2-22.78a4.3 4.3 0 0 0-1.47-1.1c-4-1.91-9 4.55-12 9.4l-6.76-13.59h-6.24l-9-16.32-.22 16.32h-8.68l-8.55-9.22.51 9.19h-7.93a129.7 129.7 0 0 0 3.75 24.91c4.11 15.32 7.54 22.67 7.54 22.67a51.6 51.6 0 0 0 12 2.13 38.6 38.6 0 0 0 10.81-.9 71 71 0 0 1-11.69 9.11c-1.25 11.76-2.64 23.07-2.64 23.07z"/><path fill="#340731" fill-rule="nonzero" d="M261.125 277.62h44.83c-.07-.44-67.39-.07-67.39-.07l-7.27 15.76c-.52 3.46-3.83 36.38-3.75 39.84l6.1 176.08 20.06 193.06h38.8c12.5-46.82 4.78-102.74-18.07-187.18-7.28-26.9 4.4-70.92 15.94-116.34-6.91-26.53-11.995-51.29-17.905-65.62-9.34-22.63-11.345-55.49-11.345-55.49z"/><path fill="#551151" fill-rule="nonzero" d="M400.615 702.31c-19-170.2-10.8-157.56-50.2-227.6-4.85-8.6-5.43-21.24-5-36.23 2.2-84.07 16.46-113.62-19.85-160.87h-64.44s-.07 33 9.26 55.71c5.88 14.33 13 38.87 19.92 65.48 14.11 54.23 27.41 116.7 27.41 116.7l47.74 186.81z"/><path fill="#F0DCEE" fill-rule="nonzero" d="m203.515 724.96.14.22a27.92 27.92 0 0 0 21.46 10.13h63.28l-6.76-33h-16.69l-61.43 22.64zm218.63-1.55-28-21.09h-14.26l-2.49 33h38.58a7.56 7.56 0 0 0 7.57-7.57 8.1 8.1 0 0 0-1.4-4.34"/><path fill="#791D73" fill-rule="nonzero" d="M359.385 143.31c0 .22.07.44.07.66a2.1 2.1 0 0 1-.07-.66m-.29-1.39c.07.22.07.44.14.66-.07-.18-.07-.4-.14-.62zm.44 2.86c0 .22.07.44.07.66 0-.13-.07-.4-.07-.62zm.14 1.47.08.66zm-18-24.47c.22.07.37.15.59.22a1.5 1.5 0 0 0-.59-.18zm16.39 16.17c.08.187.127.387.14.59a1.5 1.5 0 0 0-.14-.55zm.44 1.25c.07.22.07.37.15.59a1.6 1.6 0 0 1-.15-.55zm1.17 14.84v.04zm-.14 1.77v.04zm-1.91-19.18c.07.14.14.36.22.51-.08-.11-.15-.33-.22-.47zm2.13 11.09v.66a1.06 1.06 0 0 0 0-.62zm-18.08-26.23c-1-.3-22.56-7.5-22.56-7.5l-4.19-2.87h-41.16l-3.74 2.8-16.91 6.91s-6.76 17.27-24.18 43.87c-7.64 10-10.87 20.43-6.17 40.86 7.28 31.53 15.8 72 15.8 72l67.25.58q9.25-37.215 16.05-66.915 6.802-29.7 19.81-89.685zm17.12 19.1.15.59zm-10.51-15.65.52.37zm1.18.81c.15.15.37.22.51.37zm1 .88c.14.15.29.22.44.37-.04-.11-.19-.18-.45-.33zm-3.38-2.42c.22.07.36.22.59.29a2.2 2.2 0 0 1-.56-.25zm-1.25-.67.59.3zm-2.69-1.23.59.23a5 5 0 0 0-.59-.23m8.38 5.22.44.44zm5.58 7.94.15.44zm-12.56-12.57c.22.08.36.22.58.3a2.3 2.3 0 0 0-.58-.28zm9.62 7.57.3.44zm.81 1.1c.07.15.22.3.29.45-.07-.13-.22-.28-.29-.43zm.74 1.18c.07.07.14.22.22.29a.8.8 0 0 1-.22-.27zm.8 1.47a.26.26 0 0 1 .08.22.26.26 0 0 0-.08-.2zm-4-5.81q.221.196.37.45a1.8 1.8 0 0 0-.43-.43zm.88 1c.15.15.22.3.37.44-.19-.09-.26-.24-.41-.39z"/><path fill="#551151" fill-rule="nonzero" d="M359.535 155.85c0-.37.07-.74.07-1.11a2.1 2.1 0 0 1 .07-.66c0-.29.08-.66-.29-1v-.66a1 1 0 0 0 .37-.89 1 1 0 0 1 .14-.66v-2.35a4.6 4.6 0 0 1-.22-.66 3.2 3.2 0 0 0-.07-.81l-.07-.66c0-.29-.08-.59-.08-.81s-.07-.44-.07-.66l-.07-.81c0-.22-.08-.44-.08-.66a4 4 0 0 0-.14-.81c-.08-.22-.08-.44-.15-.66s-.07-.51-.15-.73l-.14-.59c-.08-.22-.15-.52-.22-.74s-.08-.37-.15-.59-.15-.51-.22-.73a1.6 1.6 0 0 1-.15-.59 1.6 1.6 0 0 0-.29-.73c-.08-.22-.15-.37-.22-.52s-.22-.59-.3-.81l-.14-.44c-.15-.29-.3-.66-.45-.95a.3.3 0 0 1-.07-.22c-.22-.37-.37-.74-.59-1.18-.07-.07-.14-.22-.22-.29a2.8 2.8 0 0 0-.51-.81 1.5 1.5 0 0 0-.3-.44l-.44-.66-.29-.44a3.8 3.8 0 0 0-.44-.59 2.1 2.1 0 0 0-.37-.44c-.15-.15-.29-.37-.51-.59a1.7 1.7 0 0 1-.37-.44l-.52-.52-.44-.44a4.4 4.4 0 0 0-.58-.51c-.22-.15-.3-.3-.45-.37a3.7 3.7 0 0 0-.58-.44 3.3 3.3 0 0 0-.52-.37 4.5 4.5 0 0 0-.59-.44l-.51-.37-.66-.44a2.3 2.3 0 0 0-.59-.29l-.66-.37-.59-.29c-.22-.15-.51-.22-.73-.37a2 2 0 0 0-.59-.29 8 8 0 0 1-.81-.37 2.6 2.6 0 0 0-.59-.22c-.22-.08-.59-.22-.88-.3s-.37-.14-.59-.22l-.14-.07-35.5 155.87h19.69l33.74-119.57c.07-.58.14-1.1.22-1.69v-.58z"/><path fill="#340731" fill-rule="nonzero" d="M321.525 31.57a69 69 0 0 0-2.72-9.18c-.15-.3-.22-.66-.37-1-6.24-15.32-18.44-23.62-42.18-20.39-7.86 1.1-13.23 4.49-16.76 9a9.1 9.1 0 0 0-2 2.13 27.2 27.2 0 0 0-2.94 6.1 16 16 0 0 1-.52 1.47c-2.58 8.61-14.38 75.74-14.38 75.74h38c.14-1.55.66-6.84.8-8.23a51.6 51.6 0 0 1-12-2.13s-3.45-7.35-7.56-22.71a122.3 122.3 0 0 1-3.75-24.84h7.93l-.47-9 8.54 9h8.62l.4-15.82 8.49 16.18h6.17l7.2 13.23c2.31-3.46 7.28-11 11.25-9.11a7 7 0 0 1 1.47 1.1c5.07 5.59-3.46 17.86-7.06 22.42l-11.37 29.39h43.58c-.07 0-18.08-62.1-18.37-63.35"/><path fill="#E0E2E5" fill-rule="nonzero" d="M286.115 112.85c-.29-.36 2.5 1 28.37-12.34h-37.56c.67 6.39 9.19 12.34 9.19 12.34"/><path fill="#E8B6E3" fill-rule="nonzero" d="M314.455 100.43c-25.86 13.31-28.58 12-28.36 12.35 0 0-8.53-6-9.19-12.35a34 34 0 0 0-8.13 13.88l4.11 14.7 13.16-16.24c4.33 6.47 9.48 17.86 9.48 17.86l25-16.39a35.2 35.2 0 0 0-6.1-13.82z"/><path fill="#9E2896" d="M341.645 121.53c13.3 2.13 22.49 7.34 26.53 23.51l23.81 78.93-49.19-7.29s-9.67-26.22-11.22-50.25c-.73-11.47 0-32.19 10.07-44.9"/><path fill="#E0E2E5" d="m127.925 173.15 37.5 37.5h89l-37.51-37.5z"/><path fill="#E0E2E5" fill-rule="nonzero" d="m261.155 204.71-20.91-8.29-5.22 29c4.71-.56 21-2.26 22.55-1.88 68.25 17.21 123.17 55.46 134.41.35z"/><path fill="#C1C7CC" fill-rule="nonzero" d="M206.995 210.65s.94 2 2.33 4.5c.53.93 7.57 1.22 8.19 2.2a57 57 0 0 0 4.13 6.25c3.5 4.36 13.4 1.83 13.4 1.83l5.22-29z"/><path fill="#C1C7CC" fill-rule="nonzero" d="m240.265 196.42 7.27 27.71-16.11 1.9z"/></g></svg>