<svg xmlns="http://www.w3.org/2000/svg" viewBox="0 0 565 737"><g fill="none" fill-rule="evenodd"><path fill="#C1C7CC" fill-rule="nonzero" d="m335.212 241.03-80.7 47.31-10.55.85-13 15.41 4.6 2.07 20.77 9.19 16.18-19.39s65.1-21.48 78.68-29.39c4.5-2.62 5.78-2.95 7.66-5.85 7.1-10.69-16.1-25.33-23.64-20.2"/><path fill="#C1C7CC" fill-rule="nonzero" d="m339.592 225.82-4.38 15.21 21.97 14.28-1.94-26.94z"/><path fill="#00210E" fill-rule="nonzero" d="M370.032 125.07c-9.84 2.25-18.09 9.81-20.47 19.48v.08a19 19 0 0 0-.42 2.13l-.12 1.21-13.27 82.46 30.95 10.56z"/><path fill="#00512A" fill-rule="nonzero" d="m428.035 280.98 29.927-154.95v-.4c-.95-.3-22.34-7.42-22.34-7.42l-4.12-10.07h-40.93l-3.67 10.07-14.15 5.76-2.72 1.1s-6.62 16.83-23.45 42.77l-.51.81c-7.57 9.92-10.8 20.29-6.1 40.64 1.54 6.69 3.16 13.82 4.7 20.87 4.71 21.24 2.57 50.64 2.57 50.64l30.62.51z"/><path fill="#00210E" fill-rule="nonzero" d="M377.932 280.8h-22.56l-7.13 15.07c-.51 3.38-3.75 36.23-3.75 39.61l6.1 175.2 19.92 192 44.46.07c7.13-69.45-1.1-102.3-23.89-186.22-7.27-26.75 4.41-70.55 15.88-115.75-5.843-25.878-12.93-50.193-18.77-64.373-8.53-20.95-8.994-51.267-9.064-55.607z"/><path fill="#00381B" fill-rule="nonzero" d="M519.913 700.87c-19.47-170.57-14-155-53.2-224.59-4.78-8.52-5.44-21.09-5-36.08 2.2-83.26 16.132-112.999-19.438-159.739l-64.413.339c.07 4.34.66 34 9.18 54.9 5.81 14.25 12.94 38.65 19.84 65.11 14 53.94 27.27 116 27.27 116l47.4 185.93c.07-.03 38.529-.03 38.361-1.87"/><path fill="#006C3A" fill-rule="nonzero" d="M403.142 702.71h-16.24l-60.12 22c-.07 0-.07.08-.07.15a27.38 27.38 0 0 0 21.16 10h61.88a.17.17 0 0 0 .15-.15l-6.54-32zm129.61 20.15-28.07-20.55-14.18.34-2 32.67 38.29-.54a7.49 7.49 0 0 0 7.39-7.61 6.9 6.9 0 0 0-1.43-4.31"/><path fill="#00381B" fill-rule="nonzero" d="m451.932 280.8 22.79-119c.07-.59.14-1.1.22-1.69l.07-.59c0-.37.07-.73.07-1.1a1.9 1.9 0 0 1 .08-.66c0-.3.07-.66.07-1v-5.13a3 3 0 0 0-.07-.81l-.08-.66c0-.29-.07-.58-.07-.8s-.07-.45-.07-.67-.08-.51-.08-.8a2.5 2.5 0 0 1-.07-.67 2.4 2.4 0 0 0-.15-.73c-.07-.22-.07-.44-.14-.66s-.08-.52-.15-.74a5 5 0 0 0-.15-.59c-.07-.22-.14-.51-.22-.73s-.07-.37-.15-.59-.14-.51-.22-.73a1.8 1.8 0 0 1-.14-.59 1.55 1.55 0 0 0-.3-.74l-.14-.51c-.08-.29-.22-.59-.3-.81a1.1 1.1 0 0 1-.14-.44c-.15-.29-.3-.66-.45-1l-.07-.22a5.8 5.8 0 0 1-.59-1.17l-.14-.3a3.2 3.2 0 0 0-.52-.8 1.5 1.5 0 0 0-.29-.44c-.08-.15-.3-.45-.44-.67l-.3-.44a3.6 3.6 0 0 0-.44-.59 2 2 0 0 0-.37-.44c-.14-.14-.29-.36-.51-.58a2.3 2.3 0 0 1-.37-.44 3 3 0 0 0-.51-.52l-.44-.44-.59-.51-.44-.37c-.22-.15-.37-.3-.59-.44l-.51-.37-.59-.44-.52-.37-.66-.44-.59-.29a2.7 2.7 0 0 0-.66-.37l-.58-.3-.74-.36-.59-.3a8 8 0 0 0-.81-.36l-.58-.22-.89-.3-.22-.07-29.76 155z"/><path fill="#006C3A" fill-rule="nonzero" d="m498.312 247.29-17.56-95.17c-3.16-16.24-11.39-25.5-24.47-27-10.58 12.12-15.21 26.53-15.21 45.85 0 30.06 32.27 94.08 32.27 94.08 6.83-8.23 17.31-8.58 25-17.79z"/><path fill="#C1C7CC" fill-rule="nonzero" d="M395.092 91.46c-.3 2.5-.53 5-.75 7.61l1.12.21a62.8 62.8 0 0 0 11-8.82 42.2 42.2 0 0 1-11.31.82z"/><path fill="#00381B" fill-rule="nonzero" d="M400.372 38.73c-12.62-8.89-28.89-15.58-28.89-15.58a.28.28 0 0 1-.07-.22c-8 6-14.77 19.69-1.4 33.07l4.65 3.32a121.4 121.4 0 0 1-2.13-20l1.09-2c5.87 16.17 31.52 19.63 44 20.36a46 46 0 0 1 2.94-4.63c-3.6-6.17-11.62-10.58-20.21-14.33z"/><path fill="#5EBD82" fill-rule="nonzero" d="M442.282 55.99c.08-.905.08-1.815 0-2.72.3-3.53.81-10.14.81-12.86-.81-51.23-57.47-44.17-67.83-27.34a17.4 17.4 0 0 0-1.76 3.75c-2.21.44-3 4.33-2.35 6.17 0 .07.07.15.07.22s16.24 6.69 28.88 15.58c8.6 3.75 16.76 8.27 20.29 14.44 1.69-2.35 3.45-4.81 5.51-6.06s4.11-1.54 5.85.46a6.18 6.18 0 0 1 1.54 3.45c.81 6.69-6.69 16.76-9.26 19.92a.28.28 0 0 0 .07.22c.15 1.18 1.18 17.49-20.21 27.26-2.34 1-5.67 1.1-8.68.73l-.84-.22c.29-2.65.48-5.19.7-7.69a46.8 46.8 0 0 1-11.55-2.06s-3.14-6.91-7.13-21.22c-.36 11.1-1.23 27.23-1.89 32.38-.89 6.9-3.31 24.47-3.24 24.47 42.7 15 60.63 2.86 67.39-5.37 11.1 10.88 21.9 6.18 21.9 6.18s-19.32-50.42-18.29-69.67z"/><path fill="#E0E2E5" fill-rule="nonzero" d="M424.592 70.87a.6.6 0 0 0-.07-.29c2.58-3.24 10.1-13.27 9.29-20a6 6 0 0 0-1.55-3.46c-1.77-2-3.83-1.77-5.9-.45a23.3 23.3 0 0 0-5.67 6c-1.18 1.7-2.14 3.32-2.95 4.64-12.52-.73-38.24-4.27-44.14-20.41l-1.4 2.14a132.6 132.6 0 0 0 2.14 20c.44 2.43 1 5 1.7 7.59.14.45.22.81.36 1.26 4 14.36 7.15 21.29 7.15 21.29a50 50 0 0 0 11.87 2.14 39.3 39.3 0 0 0 11-.89 62.7 62.7 0 0 1-11 8.77 16.6 16.6 0 0 0 8.76-.88c21.57-9.84 20.49-26.19 20.41-27.45m73.86 176.91c-.13-.35-.25-.53-.31-.5l-.12.08c-14.34-2-23.91 7.08-24.69 17.72-1.67 22.22 25.23 72.51 38.59 90.61 23.73 32.17 39.63 37.09 48.5 38.51l2.78-5.88s-15.68-11.35-25.55-28.69c-14.62-25.76-35.21-102.68-39.2-111.8z"/><path fill="#E0E2E5" fill-rule="nonzero" d="m510.362 381 6.3 2.14 4.09-20.73-12.7-16.88z"/><path fill="#71767C" fill-rule="nonzero" d="m160.282 252.59.08.36a.6.6 0 0 1-.08-.32z"/><path fill="#5EBD82" fill-rule="nonzero" d="m258.362 294.44-48.76 20.7a19.81 19.81 0 0 0-10.49 26l11.24 26.49h-.12c-12.15-3.64-24.32-7.19-36.42-11a9.62 9.62 0 0 1-4.74-3.7c-2.9-4.45-5.38-9.19-8.59-14.8l-14.6 36.15c5.83-1.64 10.52-3.19 15.32-4.19a10 10 0 0 1 6.4.64c16 8.72 31.61 18.12 47.83 26.37 5.92 3 10 6.72 12.47 12.06l6.59 15.47 68.41-29-11.87-22.8 1.28-40.36a39.6 39.6 0 0 0-3.12-16.69l-4.5-10.6a20.07 20.07 0 0 0-26.33-10.74m18.94 26.26a39.6 39.6 0 0 1 3.12 16.82l-.49 13.94-10-19.14v.06l-1.89-3.62c-3.85-7.37-7.91-8.87-15.53-5.66l-40.76 17.34-.17-.39c-2.545-6.006.257-12.939 6.26-15.49l42.91-18.22a9.32 9.32 0 0 1 12.66 5.15z"/><path fill="#E0E2E5" d="m226.062 324.41-3.31-22.39c6.44-1.91 18.22-4.81 24.48 2 3.57 3.88 9.14 11.86 9.14 11.86l-30.28 8.55z"/><path fill="#B8EFC9" fill-rule="nonzero" d="m53.662 487 1.37-9.16a2.553 2.553 0 0 1 5.06.69v.14l-1.13 8.96v.15a2.66 2.66 0 1 1-5.28-.66zm3.21-18.23 2.28-9a2.34 2.34 0 1 1 4.55 1.1v.11l-2 8.79v.11a2.452 2.452 0 1 1-4.78-1.1zm4.98-17.79 3.1-8.69a2.13 2.13 0 0 1 4 1.38v.1l-2.84 8.57v.1a2.24 2.24 0 1 1-4.25-1.41zm6.61-17.23 3.91-8.35a1.92 1.92 0 0 1 3.49 1.58v.09l-3.63 8.27v.09a2.026 2.026 0 0 1-3.71-1.63zm8.23-16.5 4.76-7.9a1.729 1.729 0 1 1 3 1.72l-.05.09-4.48 7.84-.05.09a1.814 1.814 0 0 1-3.15-1.8zm9.98-15.52 5.71-7.26a1.5 1.5 0 0 1 2.37 1.82l-.07.09-5.4 7.25-.06.08a1.604 1.604 0 0 1-2.57-1.92zm11.95-14.1c2.17-2.18 4.44-4.28 6.8-6.26a1.284 1.284 0 1 1 1.67 1.95q-3.37 3-6.47 6.25a1.39 1.39 0 0 1-2-1.91zm14.2-11.81a74 74 0 0 1 8-4.66 1.078 1.078 0 0 1 1 1.91 71 71 0 0 0-7.65 4.7 1.19 1.19 0 0 1-1.65-.29 1.18 1.18 0 0 1 .29-1.64zm16.59-8.19a56 56 0 0 1 9-2.15.861.861 0 0 1 .28 1.7 55.4 55.4 0 0 0-8.68 2.28 1 1 0 0 1-.64-1.82zm-94.66 129.89q.07-4.62.49-9.21a2.55 2.55 0 0 1 5.08.4q-.32 4.43-.29 8.84a2.64 2.64 0 1 1-5.28.08zm1.57-18.36 1.71-9a2.37 2.37 0 0 1 4.66.83v.15l-1.49 8.77v.15a2.46 2.46 0 0 1-4.85-.82zm3.97-17.93 2.74-8.74a2.19 2.19 0 0 1 4.19 1.26v.12l-2.5 8.56v.12a2.282 2.282 0 1 1-4.38-1.28zm5.94-17.32 3.63-8.4a2.008 2.008 0 1 1 3.7 1.56v.1l-3.38 8.27v.1a2.101 2.101 0 1 1-3.89-1.59zm7.67-16.6 4.43-8a1.84 1.84 0 0 1 3.23 1.75l-.05.08-4.19 7.91v.08a1.924 1.924 0 0 1-3.4-1.8zm9.26-15.74 5.21-7.5a1.66 1.66 0 0 1 2.74 1.86v.07l-5 7.46v.07a1.742 1.742 0 1 1-2.9-1.93zm10.81-14.71 6-6.89a1.48 1.48 0 0 1 2.25 1.91l-.06.07-5.75 6.87-.06.07a1.57 1.57 0 0 1-2.4-2zm12.41-13.4c2.21-2.1 4.48-4.13 6.84-6.07a1.3 1.3 0 0 1 1.66 2q-3.39 2.91-6.57 6.07a1.414 1.414 0 0 1-2-2zm14.12-11.6a98 98 0 0 1 7.75-4.87 1.12 1.12 0 0 1 1.11 1.94 91 91 0 0 0-7.46 4.9 1.21 1.21 0 1 1-1.42-1.95zm15.98-8.9a66 66 0 0 1 8.68-3 .94.94 0 0 1 1.15.66 1 1 0 0 1-.65 1.15 64 64 0 0 0-8.37 3.05 1.028 1.028 0 0 1-.83-1.88zm17.72-4.61a48.5 48.5 0 0 1 9.18 0 .76.76 0 0 1 .69.83.77.77 0 0 1-.82.69 47 47 0 0 0-8.88.17.85.85 0 1 1-.19-1.68zM14.612 496.71q.39-5.08 1.14-10.14a2.821 2.821 0 1 1 5.59.77c-.41 3.24-.71 6.5-.89 9.76a2.92 2.92 0 1 1-5.83-.33zm2.93-20.16 2.42-9.87a2.62 2.62 0 0 1 5.1 1.19v.15l-2.18 9.61v.16a2.737 2.737 0 1 1-5.35-1.16zm5.4-19.57 3.51-9.52a2.421 2.421 0 0 1 4.56 1.63v.13l-3.26 9.33v.13a2.53 2.53 0 0 1-4.77-1.66zm7.51-18.82 4.49-9.08a2.23 2.23 0 0 1 4 1.93l-.05.11-4.14 8.95-.06.11a2.33 2.33 0 0 1-4.21-2zm9.43-17.91 5.39-8.56a2.04 2.04 0 0 1 3.48 2.13l-.06.09-5.11 8.48-.05.1a2.13 2.13 0 1 1-3.65-2.2zm11.22-16.82 6.27-7.93a1.832 1.832 0 1 1 2.9 2.24l-.07.08-6 7.89-.07.09a1.93 1.93 0 1 1-3.07-2.34zm12.98-15.49 7.16-7.14a1.633 1.633 0 1 1 2.33 2.29l-.07.07-6.87 7.13-.08.08a1.733 1.733 0 0 1-2.49-2.41zm14.78-13.8a136 136 0 0 1 8.08-6.09 1.44 1.44 0 0 1 1.66 2.35 124 124 0 0 0-7.78 6.11 1.543 1.543 0 1 1-2-2.35zm16.63-11.51a108 108 0 0 1 9-4.61 1.24 1.24 0 0 1 1 2.26c-3 1.4-5.88 3-8.7 4.66a1.341 1.341 0 0 1-1.38-2.3zm18.48-8.24a80 80 0 0 1 9.84-2.48 1.044 1.044 0 1 1 .4 2.05 78 78 0 0 0-9.52 2.6 1.142 1.142 0 0 1-.74-2.16zm19.92-3.61a66 66 0 0 1 10.12.37.85.85 0 0 1-.17 1.69 62.5 62.5 0 0 0-9.86-.17.95.95 0 0 1-.11-1.89zM.832 476.07l2.34-9.95a2.823 2.823 0 0 1 5.51 1.23v.19l-2.06 9.62v.19a2.93 2.93 0 1 1-5.72-1.23zm5.3-19.72 3.54-9.55a2.624 2.624 0 0 1 4.94 1.77v.15l-3.24 9.33-.05.15a2.732 2.732 0 0 1-5.16-1.8zm7.62-18.87 4.56-9.09a2.43 2.43 0 0 1 4.36 2.14l-.05.12-4.28 8.98-.06.12a2.53 2.53 0 0 1-4.53-2.23zm9.59-17.91 5.48-8.54a2.23 2.23 0 0 1 3.78 2.37l-.06.1-5.19 8.45-.06.1a2.343 2.343 0 1 1-4-2.44zm11.41-16.78 6.33-7.93a2.033 2.033 0 1 1 3.2 2.51l-.07.09-6 7.87-.06.09a2.14 2.14 0 0 1-3.39-2.6zm13.05-15.5 7.15-7.2a1.84 1.84 0 0 1 2.63 2.54l-.07.08-6.86 7.18-.07.08a1.934 1.934 0 1 1-2.8-2.67zm14.69-13.97 7.94-6.3a1.64 1.64 0 0 1 2.06 2.54l-.08.07-7.66 6.32-.08.07a1.74 1.74 0 1 1-2.22-2.68zm16.26-12.07a131 131 0 0 1 8.74-5.15 1.448 1.448 0 1 1 1.41 2.53 128 128 0 0 0-8.44 5.21 1.543 1.543 0 0 1-1.71-2.57zm17.88-9.62q4.65-2 9.49-3.61a1.244 1.244 0 0 1 .79 2.36c-3.12 1.08-6.18 2.33-9.19 3.7a1.347 1.347 0 0 1-1.12-2.45zm19.3-6.23a83 83 0 0 1 10-1.5 1.045 1.045 0 1 1 .2 2.08 81 81 0 0 0-9.76 1.66 1.144 1.144 0 0 1-.51-2.23zm20.2-1.72a71 71 0 0 1 10.09 1.19.85.85 0 0 1-.31 1.67 69 69 0 0 0-9.85-1 .95.95 0 0 1 .05-1.89z"/></g></svg>