<svg xmlns="http://www.w3.org/2000/svg" viewBox="0 0 309 737"><g fill="none"><path fill="#551151" d="m120.65 163.43-6.74 77.22 22.64 8.72z"/><path fill="#C1C7CC" d="M172.19 264.29c-.14-.37-.22-.74-.36-1.1L54.9 217.69l-36.74-23.14-2.35 7.64a17.69 17.69 0 0 0 2.13 15c3.38 5.22 7.86 11.54 10.14 12.86 16.53 9.78 37 11.83 37 11.83l72.09 46.38 1.18.8a21.8 21.8 0 0 0 10.73 3.83c14.55 1.1 28.07-12.64 23.07-28.59z"/><path fill="#551151" d="M143.68 124.98c-11 2.5-19.91 11.32-21.53 22.56l-1.91 20.21c16.83-25.94 23.44-42.77 23.44-42.77"/><path fill="#340731" d="M151.38 280.8H128.8l-7.13 15.07c-.52 3.38-3.75 36.23-3.75 39.61l6.1 175.2 19.92 192 44.46.07c7.13-69.45-1.1-102.3-23.89-186.22-7.27-26.75 4.41-70.55 15.88-115.75-6.91-26.46-10.03-51.12-15.88-65.3-8.52-20.95-13.08-50.37-13.15-54.71z"/><path fill="#71767C" d="M144.01 702.86v-.15h-.22z"/><path fill="#551151" d="M293.38 700.87c-19.47-170.57-14-155-53.21-224.59-4.77-8.52-5.43-21.09-5-36.08 2.2-83.26 16.24-112.66-19.33-159.4h-64.56c.08 4.34.67 34 9.19 54.9 5.81 14.25 12.94 38.65 19.84 65.11 14 53.94 27.27 116 27.27 116l47.4 185.93c.07-.03 38.58-.18 38.4-1.87"/><path fill="#9E2896" d="M176.57 702.71h-16.25l-60.11 22c-.07 0-.07.08-.07.15a27.38 27.38 0 0 0 21.16 10h61.88a.17.17 0 0 0 .15-.15l-6.54-32zm129.62 20.15-28.07-20.55-14.18.34-2 32.67 38.29-.54a7.5 7.5 0 0 0 7.39-7.61 6.9 6.9 0 0 0-1.43-4.31"/><path fill="#551151" d="M201.26 280.8h24.12l22.79-119c.07-.59.14-1.1.22-1.69l.07-.59c0-.37.07-.73.07-1.1a1.9 1.9 0 0 1 .08-.66c0-.3.07-.66.07-1v-5.13a3 3 0 0 0-.07-.81l-.08-.66c0-.29-.07-.58-.07-.8s-.07-.45-.07-.67-.08-.51-.08-.8a2.5 2.5 0 0 1-.07-.67 2.4 2.4 0 0 0-.15-.73c-.07-.22-.07-.44-.15-.66s-.07-.52-.14-.74-.08-.44-.15-.59-.15-.51-.22-.73-.07-.37-.15-.59-.14-.51-.22-.73a1.8 1.8 0 0 1-.14-.59 1.55 1.55 0 0 0-.3-.74l-.14-.51c-.08-.29-.23-.59-.3-.81a1.1 1.1 0 0 1-.15-.44c-.14-.29-.29-.66-.44-1l-.07-.22a5.8 5.8 0 0 1-.59-1.17l-.15-.3a2.9 2.9 0 0 0-.51-.8 1.5 1.5 0 0 0-.29-.44c-.08-.15-.3-.45-.44-.67l-.3-.44a4.3 4.3 0 0 0-.44-.59 2.4 2.4 0 0 0-.37-.44c-.14-.14-.29-.36-.51-.58a2 2 0 0 1-.37-.44c-.07-.15-.37-.37-.51-.52l-.44-.44-.59-.51-.44-.37c-.22-.15-.37-.3-.59-.44l-.52-.37-.58-.44-.52-.37-.66-.44-.59-.29a2.7 2.7 0 0 0-.66-.37l-.59-.3-.73-.36-.59-.3a8 8 0 0 0-.81-.36l-.59-.22-.88-.3-.22-.07-29.76 155z"/><path fill="#791D73" d="m201.38 281.31 30-155.28v-.4c-1-.3-22.34-7.42-22.34-7.42l-4.12-10.07H164l-3.68 10.07-14.11 5.8-2.72 1.1s-6.61 16.83-23.44 42.77l-.51.81c-7.57 9.92-10.81 20.29-6.1 40.64 1.54 6.69 3.16 13.82 4.7 20.87 4.7 21.24 2.57 50.64 2.57 50.64h30.72z"/><path fill="#9E2896" d="m267.46 247.29-13.29-95.17c-3.16-16.24-11.39-25.5-24.47-27-10.58 12.12-15.21 26.53-15.21 45.85 0 30.06 20.64 85.62 20.64 85.62 6.83-8.23 17.05-12.12 32.33-9.33z"/><path fill="#C1C7CC" d="M168.52 91.46c-.3 2.5-.53 5-.75 7.61l1.12.21a62.8 62.8 0 0 0 11-8.82 42.2 42.2 0 0 1-11.31.82z"/><path fill="#551151" d="M173.79 38.73c-12.64-8.89-28.88-15.58-28.88-15.58a.28.28 0 0 1-.07-.22c-8 6-14.77 19.69-1.4 33.07l4.64 3.32a123.7 123.7 0 0 1-2.13-20l1.09-2c5.88 16.17 31.53 19.63 44 20.36a49 49 0 0 1 2.94-4.63c-3.6-6.16-11.6-10.57-20.19-14.32"/><path fill="#E48CDD" d="M215.71 55.99c.08-.905.08-1.815 0-2.72.3-3.53.81-10.14.81-12.86-.81-51.23-57.47-44.17-67.83-27.34a17.4 17.4 0 0 0-1.76 3.75c-2.21.44-3 4.33-2.36 6.17 0 .07.08.15.08.22s16.24 6.69 28.88 15.58c8.6 3.75 16.76 8.27 20.29 14.44 1.69-2.35 3.45-4.81 5.51-6.06s4.11-1.54 5.87.44a6.13 6.13 0 0 1 1.55 3.45c.81 6.69-6.69 16.76-9.26 19.92a.28.28 0 0 0 .07.22c.15 1.18 1.18 17.49-20.21 27.26-2.35 1-5.67 1.1-8.69.73l-.83-.22c.29-2.65.48-5.19.7-7.69a46.8 46.8 0 0 1-11.55-2.06s-3.14-6.91-7.13-21.22c-.37 11.1-1.23 27.23-1.89 32.38-.89 6.9-3.31 24.47-3.24 24.47 42.7 15 60.63 2.86 67.39-5.37 11.1 10.88 21.9 6.18 21.9 6.18s-19.33-50.42-18.3-69.67"/><path fill="#E0E2E5" d="M198.02 70.87a.6.6 0 0 0-.07-.29c2.58-3.24 10.09-13.27 9.28-20a5.9 5.9 0 0 0-1.54-3.46c-1.77-2-3.84-1.77-5.9-.45a23.3 23.3 0 0 0-5.67 6c-1.18 1.7-2.14 3.32-3 4.64-12.53-.73-38.24-4.27-44.14-20.41l-1.4 2.14a131 131 0 0 0 2.14 20c.44 2.44 1 5 1.69 7.59.15.45.23.81.37 1.26 4 14.36 7.15 21.29 7.15 21.29a50 50 0 0 0 11.86 2.14 39.4 39.4 0 0 0 11-.89 62.4 62.4 0 0 1-11 8.77 16.6 16.6 0 0 0 8.77-.88c21.59-9.88 20.49-26.23 20.41-27.49zm-39.46 272.67-4 5.3 21.07-1.66 6.29-10.37z"/><path fill="#8A9097" d="M178.68 348.83a22.38 22.38 0 0 0-27.61-4.13c-2-3.54-3.93-9.34 1.36-14.26l-3.05-3.28c-5.7 5.3-5.63 11.52-3.74 16.54a13.43 13.43 0 0 0-15.94 1.75l-3.32 3.05c5.048 5.396 13.507 5.7 18.93.68l1.65-1.53c-9.06 8.418-9.584 22.586-1.17 31.65.48.51 1 1 1.49 1.46 8.328 7.243 20.79 6.992 28.82-.58l1.18-1.1c7.867-7.179 9.269-19.046 3.29-27.86a23 23 0 0 0-1.89-2.39"/><path fill="#C1C7CC" d="M148.12 367.79c20.18 22.52 44.11-2.71 44.11-2.71l-23.74-13.57z"/><path fill="#E0E2E5" d="M267.25 247.69c.2-.32.28-.52.21-.55h-.14c-13.27-8.24-24.51-8.75-33.51-3-18.84 11.91-39.19 78.82-39.19 78.82l-26.13 28.63 23.74 13.57 9.43-19.75s60.65-89 65.59-97.64z"/><path fill="#595E62" d="m54.02 205.51-.86-12 1.42.67 5.25-11.06-31.19-14.78-5.26 11.06 1.42.68-9.82 6.9-14 29.22a6.09 6.09 0 0 0 2.88 8.14l28.02 13.29a6.1 6.1 0 0 0 8.11-2.87z"/><path fill="#C1C7CC" d="m45.38 194.47-6.64 2.16 10.28 22.79 24.92 6.39z"/></g></svg>