<svg xmlns="http://www.w3.org/2000/svg" viewBox="0 0 404 1000"><path fill="#003253" d="m178.2 955.9-87.3 30.2.2.3c7.1 8.6 17.7 13.6 28.8 13.6h85l-8.9-43.5v-.5zm170-.7h-19.3l-3.4 44.8h52.2c5.7 0 10.3-4.6 10.3-10.3.1-2.1-.6-4.1-1.7-5.8z"/><path fill="#001d33" d="M209.6 290.7h-48.4c-4.2-42.1-12.6-90.6-12.6-90.6 0-17.2 12.1-32.1 28.9-35.8l24.6-7.2s21.5 50.6 7.4 133.6Z"/><path fill="#8a9097" d="m14.1 252.5 7.7 44.6 22.1 6.2c4.1 1.1 8 2.2 11.4 3.2 9.1 2.5 15.5 4.2 15.5 4.2s.1 0 .3.2l9.4-18.4-13.6-4.2-1.7-1.2z"/><path fill="#a4abb3" d="m79 288.4-25.6-72.1c-.5-1.4-2.1-3.9-5.9-3.8h-9c2.9 0 10.6 1 11.6 3.7l25.4 71.4c1.3 3.5-.6 7.4-4.1 8.7-.7.3-1.5.4-2.3.4l-23.1.8h26.6c3.8.1 6.9-2.9 6.9-6.7-.1-.8-.2-1.6-.5-2.4"/><path fill="#e0e2e5" d="M75.8 288.5 50.4 217c-1-2.7-3.5-4.5-6.4-4.5H17.6c-3.8-.1-6.8 2.9-6.8 6.7s.1 1.5.4 2.3L36.6 293c1 2.7 3.5 4.5 6.4 4.5h3.4l23 .1c3.8 0 6.8-3 6.8-6.8s-.1-1.5-.4-2.3"/><path fill="#a4abb3" fill-rule="evenodd" d="m14.2 252.5 41.5 1.4c1.2 8.5-2 21.9-11.2 28.2L21.8 297z"/><path fill="#001d33" d="M70 312.7c5 3.7 64.8 45 92.8 62.4-2.9-15.1-6.3-37.7-10.9-60.9L81 288.6z"/><path fill="#8a9097" d="M210.6 118.6c-.4 3.7-.8 7.6-1.2 11.6 5.9-3.6 11.4-7.9 16.3-12.8-5 1.1-10.1 1.6-15.1 1.2"/><path fill="#a4abb3" d="M207.9 142.7c-1.2 10.5-2.2 18.6-2.2 18.6H264l-9.9-54.5-3.1-17.3c3.8-5 11.8-16.3 11.9-24.7.1-2.3-.6-4.6-2.2-6.3-6.5-7.1-15.7 6.6-19.7 13.8-17.1-1-52.2-5.9-60.2-28l-2 2.9c.3 9.2 1.3 18.5 3 27.5.6 3.4 1.4 6.8 2.4 10.3 5.6 20.8 10.2 30.7 10.2 30.7 5.3 1.6 10.7 2.6 16.3 2.9 5.1.3 10.1-.1 15-1.3-4.9 4.9-10.4 9.2-16.3 12.8-.5 4.4-1 8.6-1.5 12.5Z"/><path fill="#001d33" d="M269.2 42.9C262.5 13.4 246.4-4 207.6 1.4c-15.9 2.2-24.2 11.4-28.4 22.2l-.2.2c-9.8 6.6-19 21.8-9.7 37.8-18.4 18.9-18 49.1.9 67.6 8.9 8.7 20.9 13.6 33.4 13.6s2.9-.1 4.4-.2c.5-3.9 1-8.1 1.5-12.4.4-3.9.8-7.9 1.2-11.6-5.5-.3-11-1.3-16.3-2.9 0 0-4.6-10-10.2-30.7-.9-3.5-1.7-7-2.4-10.3-1.7-9-2.7-18.2-2.9-27.3l1.9-2.9c8 22.1 43.1 26.9 60.2 27.9 4.1-7.2 13.3-21.1 19.7-14 1.5 1.7 2.3 4 2.2 6.3-.1 8.4-8 19.7-11.9 24.7l3.2 17.3c24.7-38.8 16.1-59.2 15-63.8"/><path fill="#8a9097" d="m149.8 692.4 28.3 263.5h17.7c17-63.6 40.6-140.6 9.4-255.5-3.8-13.8-3.8-31-1.6-50.4-24.1-1.1-44.5-3.1-55.4-4.4z"/><path fill="#a4abb3" d="M348.2 955.2c-7-225.6 13.8-214.7-38.7-308.2-9.5.6-20.8 1.5-34.3 2.5-7.3.6-14.8.9-22.2 1.1 6.7 29.7 11.1 50.3 11.1 50.3l64.8 254.3z"/><path fill="#232628" d="M309.5 647.7c35.2-2.4 45.7-2.4 45.7-2.4S315 450.4 305.7 426.6c-9.4-23.8-31.2-50.4-31.2-50.4H156.4s-7.4 14.1-9.7 19.4c-5 11.6-7.3 46.1-7.3 55.8v194s3.1.4 8.6 1c11 1.2 31.4 3.2 55.4 4.4 15.5.7 32.5 1.1 49.4.6 7.5-.2 14.9-.6 22.2-1.1 13.6-1.2 24.9-2 34.5-2.6"/><path fill="#005587" d="M296.5 165.4c-1.3-.4-30.5-10.1-30.5-10.1l-5.6-13.8h-56l-5 13.8-23 9.4s-9.2 23.5-32.8 59.6c-10.4 13.6-14.8 27.8-8.4 55.6 9.9 42.8 21.5 97.8 21.5 97.8h91.5c0-.1 48.3-212.3 48.3-212.3"/><path fill="#001d33" d="M316.1 181.4c-.1-.1-.2-.3-.3-.4-.2-.4-.4-.8-.7-1.1-.1-.2-.2-.4-.4-.6l-.6-.9-.4-.6c-.2-.3-.4-.6-.6-.8-.2-.3-.3-.4-.5-.6s-.4-.5-.7-.8-.4-.4-.5-.6l-.7-.7-.6-.6c-.2-.2-.5-.5-.8-.7s-.4-.4-.6-.5c-.2-.2-.5-.4-.8-.6-.2-.2-.4-.3-.7-.5-.2-.2-.5-.4-.8-.6l-.7-.5-.9-.6c-.3-.2-.5-.3-.8-.4l-.9-.5-.8-.4c-.3-.2-.7-.3-1-.5s-.5-.3-.8-.4-.7-.3-1.1-.5-.5-.2-.8-.3-.8-.3-1.2-.4c-.3-.1-.5-.2-.8-.3h-.2c0-.1-48.2 211.8-48.2 211.8h26.5l45.9-162.5c5-20.2-4.2-33.3-4.5-33.9"/><path fill="#c1c7cc" d="M237.7 318.4c15-15.2 19.1-30.1 14.1-43.8-10.2-28.7-92.2-81.7-92.2-81.7l-22.4-35.4-25.2 27.6 20.9 14.1 104.7 119.2Z"/><path fill="#c1c7cc" d="m167.2 147.2-11.2 5.9-12.3 14.5L156 188l3-25.2z"/><path fill="#002742" d="M316.7 175.5c-4.9-5.8-11.7-9.2-20.1-10.2-14.5 16.5-17.1 18.6-25.1 32.2-19.4 33.1-39.2 71.8-39.2 71.8 16.8 17.6 14.3 39.1 6.1 48.6l71.3-84.4c9.7-8.3 15.3-25.4 15.5-29.7.4-12.2-2.7-21.8-8.4-28.4Z"/><path fill="#003253" d="M238 319v-.2c15.1-15.2 19.2-30.1 14.3-43.8-10.2-28.7-88.8-89.6-88.8-89.6l-4 3.4-20.9 18-4 2.8s92.8 99.4 102.7 108.7c.4.5.7.6.7.6Z"/><path fill="#d0d4d8" d="M200.8 100.6c-2.1-.7-5.7-2.5-10.9-1.2-1.4.4-3.5 1.1-3.6 1.2-1.2.6-3.7 1.5-7.2 4.8.5-.2 5.8-1.2 10.9 1.2 1.5.7 2.5 1.8 2.5 1.8 1.6 1.7 2 3.7 2.3 5.5.5 2.6 1 6.3 1.2 10.9 4.2-4.7 3.6-7.1 3.6-9.7v-7.2c0-1.2 1-5.5 1.2-6v-1.2Z"/><path fill="#b2b9c1" d="M124.7 184s6.1-9.3 19.3-20.5c10-8.4 24.2-14.5 35-20.5 8.2-4.6 15.8-14.5 16.9-18.1.7-2.4.2-5.8 0-7.2-1.5 3-9.1 11.4-16.9 16.9-1.6 1.1-4.7 3.6-7.2 4.8-4.6 2.2-6.7 1.9-15.7 7.2-18 10.7-26 25.7-29 31.4z"/><path fill="#007bc0" d="M196 117.5c-1.2 2.4-4.3 7.3-9.7 12.1-8.7 7.7-15.5 10.8-22.3 13.8-25.1 11.1-36.9 34.5-36.9 34.5 0-4.8-1.5-9.7 0-10.9.1-.9 20.4-27.3 26.6-29 3.8-3.8 19.3-8.5 24.2-9.7 9.7-3.6 17-15.7 16.9-15.7 0 0 .7 2.4 1.2 4.8Z"/><path fill="#eff1f2" d="M191.2 106.7c-2.8-1.9-9.7-2.4-12.1-1.2-7.2 3.6-9.4 5.1-15.7 9.7-8.3 6-13.6 11.5-25.4 24.2-9.1 9.8-17.1 18.7-24.2 26.6-2.3 2.5-6 8.6-6 14.5 0 7.2 1.6 10 6 10.9 5 .9 12.1-6 13.3-12.6.5-2.8-1.2-9.2 0-11.6 2.8-3.8 6.8-8.9 12.1-14.5 8.5-9 9.5-11.5 16.9-15.7 12.1-6.8 18.7-5.8 26.6-10.9 7.2-4.8 12.1-13.3 12.1-13.3s-1.3-4.5-3.6-6Z"/><path fill="#a4abb3" d="M128.4 139.5c-28.2 21.8-16.4 45.7-16.4 45.7l25.2-27.6z"/><path fill="#c1c7cc" d="m152 180.9-14.7-23.4-25.2 27.6 20.9 14.1 19.1-18.4Z"/><path fill="#007bc0" stroke="#429ad5" stroke-linecap="round" stroke-linejoin="round" d="M150.5 130.8c4.5-4.7 6.2-6.4 10.8-9.8"/></svg>