<svg xmlns="http://www.w3.org/2000/svg" data-name="Ebene 1" viewBox="0 0 715.68 754.812"><g data-name="Bosch/Mobility/People/female-on-bicycle-dutch-style-blue"><path fill="#007bc0" d="M399.54 107.892c.15-1.62.36-3.16.59-4.78.14-1.39.29-2.86.44-4.19 3.653-.135 7.38-.618 11.24-1.03-3.305 4.024-7.59 7.464-12.27 10"/><path fill="#007bc0" d="M242.59 310.802c3.21 1.6 14.08 2.69 21.12.51 9-2.79 13-22.39 13-22.39l-27.91-.18z" data-name="Path"/><path fill="#004975" d="M239.92 294.202h39.49v11h-39.49z"/><path fill="#001d33" d="M389.09 271.002s31.31-70.25 41.34-94.88c5.86-14.39 3.39-39.78-18.4-42.85-12.26 2.71-22.92 30.58-27.41 41.6-8.9 21.86-26.37 72.34-27.6 80.08 7.88 27.5 32.07 16.05 32.07 16.05" data-name="Path"/><path fill="#56b0ff" d="M341 259.892c-18.16 9.61-38.57 22.85-54.88 32.28l-7.61-3.25-27.92-.18s9.35 14.89 19.1 18.4c12.58 4.53 19.75 1.75 27.18-.65 28.52-9.24 98.42-34.89 98.22-35.54a38 38 0 0 0-4.74-9.62c-12.77-18.95-32.12-10.55-49.35-1.44" data-name="Path"/><path fill="#d0d4d8" d="m478.5 401.842 11.9-41.61-14.92-4.09-11.17 41.65z" data-name="Path"/><ellipse cx="130.45" cy="610.632" fill="#d0d4d8" rx="15.73" ry="17.53"/><ellipse cx="585.22" cy="610.632" fill="#d0d4d8" data-name="Oval" rx="15.73" ry="17.53"/><path fill="#004975" d="M446.55 616.142a5.52 5.52 0 0 1-5.52-5.51c0-42 14.94-81.51 42.06-111.24s63.52-46.34 102.13-46.34c48.2 0 93 26.15 119.86 69.94a5.51 5.51 0 1 1-9.39 5.76c-24.84-40.5-66.14-64.68-110.47-64.68-73.42 0-133.16 65.75-133.16 146.56a5.51 5.51 0 0 1-5.51 5.51" data-name="Path"/><path fill="#43464a" d="m409.08 285.532-1.67.21s5.14 35.81 15.78 55.11l61 22.54c7-9.85 12.61-18.29 15.41-27.22 4.75-15.22 4.46-26.52-4.6-50.64z" data-name="Path"/><path fill="#d0d4d8" d="m349.759 597.18 4.074-6.118 56.543 37.667-4.075 6.117z" data-name="Rectangle"/><path fill="#43464a" d="M585.22 754.812c-35.06 0-68-15.14-92.63-42.64-24.39-27.17-37.82-63.24-37.82-101.54s13.43-74.37 37.82-101.55c24.68-27.49 57.57-42.64 92.63-42.64s68 15.15 92.64 42.64c24.39 27.18 37.82 63.24 37.82 101.55s-13.43 74.37-37.82 101.54c-24.68 27.5-57.57 42.64-92.64 42.64m0-267.41c-60.37 0-109.49 55.28-109.49 123.23s49.12 123.22 109.49 123.22 109.5-55.28 109.5-123.22-49.12-123.23-109.5-123.23"/><path fill="#43464a" d="M130.45 754.812c-35.06 0-68-15.14-92.63-42.64C13.43 685.002 0 648.932 0 610.632s13.43-74.37 37.82-101.55c24.67-27.49 57.57-42.64 92.63-42.64s68 15.15 92.64 42.64c24.38 27.18 37.81 63.24 37.81 101.55s-13.43 74.37-37.81 101.54c-24.68 27.5-57.58 42.64-92.64 42.64m0-267.41c-60.37 0-109.45 55.28-109.45 123.23s49.44 129.84 109.45 123.22c81.41-9 114.7-57.5 109.49-123.22-5.36-67.74-49.11-123.23-109.49-123.23" data-name="Shape"/><path fill="#56b0ff" d="M371.25 514.482c-.26 11.59-.48 24.27-.61 38.19l-16.18 2.33-8.77-36.77z" data-name="Path"/><path fill="#43464a" d="m345.69 518.242 25.56-3.76 10.88-1.59-4.9-94.64c-1.92-22.6-8.26-38.25-24.5-70.12a32.4 32.4 0 0 1-2.64-7.54l-46.49 7.34z" data-name="Path"/><path fill="#43464a" d="m446.65 291.342-.63.18c-1.59.42-3.18 1-4.88 1.36-52.55 14.12-136.92 54.69-136.92 54.69l-.61.35 20.18 42.51c7-3.91 16.36-6.55 27.12-8.87 17-3.66 31.73-6 44.53-7.49 23.09-2.75 41.48-1.49 56.79-.84z" data-name="Path"/><path fill="#71767c" d="m298.29 586.172.16.16a27.5 27.5 0 0 0 22.42 6.42l61.37-10.11-11.6-30.75-16.31 2.65-56 31.63z" data-name="Path"/><path fill="#001d33" d="M521.29 607.772c0-10.069-8.162-18.23-18.23-18.23H407c-18.22.89-32.77 19.43-32.77 42.19 0 23.33 15.28 42.24 34.13 42.24s34.14-18.91 34.14-42.24a49.3 49.3 0 0 0-6.05-24zm-103.11 42.32c-1.67 2.07-5.18 5.54-9.85 5.54s-8.17-3.47-9.85-5.54c-3.76-4.65-5.91-11.33-5.91-18.32s2.15-13.66 5.91-18.31c1.68-2.07 5.18-5.55 9.85-5.55s8.18 3.48 9.85 5.55c3.76 4.65 5.92 11.32 5.92 18.31s-2.16 13.67-5.92 18.32" data-name="Shape"/><path fill="#d0d4d8" d="M418.18 613.462c-1.67-2.07-5.18-5.55-9.85-5.55s-8.17 3.48-9.85 5.55c-3.76 4.65-5.91 11.32-5.91 18.31s2.15 13.67 5.91 18.32c1.68 2.07 5.18 5.54 9.85 5.54s8.18-3.47 9.85-5.54c3.76-4.65 5.92-11.33 5.92-18.32s-2.16-13.66-5.92-18.31" data-name="Path"/><path fill="#595e62" d="m331.35 590.893 38.275-6.302 2.039 12.384-38.275 6.302z" data-name="Rectangle"/><path fill="#d0d4d8" d="m406.295 634.849 4.075-6.117 56.543 37.666-4.075 6.117z" data-name="Rectangle"/><path fill="#004975" d="m591.49 605.762-123.64-166.76 11.62-40.63-14.18-3.88-39.47 147c-21.67-1-43.22-7.5-64.17-19.45-19.36-11.04-38.33-26.79-56.35-46.74-35-38.68-54.86-79.86-60.5-92.48l1.79-6.31-14.2-4.06-24.45 86.72 14.15 4 .28-1 179.23 152.63a13.33 13.33 0 0 0 8.63 3.17h175a7.73 7.73 0 0 0 6.26-12.21m-182-3.54-182.72-155.6 12-42.41c12.25 23.8 31.5 54.26 55.63 81 19.08 21.1 39.25 37.79 60 49.62 22 12.54 44.64 19.65 67.55 21.2zm13.35 1.06 40-146 108.87 146z" data-name="Shape"/><path fill="#004975" d="M127.19 603.652c46.94-38.9 65.16-90.41 78.63-137.12.72-2.5 1.433-4.999 2.153-7.478l14.397 3.118c-.72 2.47-1.71 5.95-2.43 8.44-7.15 24.81-14.55 50.47-27 75.31-13.08 26.06-34.45 50.9-56.31 69a7.37 7.37 0 0 1-10.57-1.14 7.34 7.34 0 0 1 1.13-10.13" data-name="Path"/><path fill="#56b0ff" d="m478.43 590.332 2.66 37.8-16.14 2.62-13.13-35.99z" data-name="Path"/><path fill="#8a9097" d="m408.85 662.242.16.17a27.44 27.44 0 0 0 22.41 6.41l61.37-10.1-11.79-30.72-16.13 2.63-56 31.62z" data-name="Path"/><path fill="#43464a" d="m503.74 367.232-80.25-4.58c-3.93-.22-7-4-7-8.51 0-4.52 3.06-8.25 7-8.51l89.32-5.91c4.09 0 7.41 3.83 7.41 8.55-.06 10.47-7.41 18.96-16.48 18.96" data-name="Path"/><path fill="#001d33" d="m467.31 133.172.25.44-.26-.09-.24-.07q4.057 61.035 6.652 92.207t6.068 60.653l18-.5c8.3-29.25 3.22-71.77-1.1-95.86-6.11-34.25-9.61-49.2-29.37-56.78m-78.42-36.38a48.6 48.6 0 0 0 11.68 2.13l-.44 4.19c-12.57.15-26.46-2.94-26.46-2.94 2.13-3.16 5.66-17 7.79-25.72v.15c4 15 7.43 22.19 7.43 22.19m-11.4-63.94c.67-.44 1.4-.88 2.06-1.24s19-8 38.14-.23c18.45 7.57 30.28 29 30.28 29 .662 5.71.995 11.452 1 17.2 0 14.92 2.28 23.81 2.28 23.81s-4.56 1.18-15.58 0l-1.69-.15c-6.17-.58-12.5-1-12.5-1a42.4 42.4 0 0 0 6.84-19.33c0-.54.07-1.11.07-1.62 2-2.42 13.81-17.6 8.25-23.74-4.41-4.78-9.28 1.85-11.71 6.19a64.4 64.4 0 0 1-1.35-18.34s-4.51.79-9-3.69c0 0-8.83 9.82-20.74 9.82a29 29 0 0 0-15.72 4.63c.22 2.35.44 5.07.88 8l-4.63-4.71c-.15-.22-14.85-12.71 3.09-24.62z" data-name="Path"/><path fill="#56b0ff" d="M393.74 49.462c11.9 0 20.87-9.84 20.87-9.84 4.48 4.48 9 3.74 9 3.74a66.4 66.4 0 0 0 1.39 18.3c2.19-4.695 7.35-10.95 11.68-6.17 5.81 6.32-6.17 21.39-8.23 23.81 0 .51-.07 1.1-.07 1.62a42.4 42.4 0 0 1-6.84 19.33s6.25.36 12.35 1l5.11 28.32h-42s1.25-10.51 2.57-21.68a63.6 63.6 0 0 0 12.27-10 34.1 34.1 0 0 1-11.31 1 48 48 0 0 1-11.69-2.13s-3.38-7.2-7.42-22.19v-.15a105 105 0 0 1-2.53-12.42c-.44-2.94-.73-5.66-.88-8a30.25 30.25 0 0 1 15.72-4.49z" data-name="Path"/><path fill="#001d33" d="M380.79 132.652c-10.19 2.49-16.54 11.17-15.11 22.19l3.69 20c2.885-7.793 6.903-14.089 8.55-20 3.759-13.495 2.87-22.19 2.87-22.19" data-name="Path"/><path fill="#003253" d="m479.88 286.322-12.53-153v-.15c-1-.29-24-7.28-24-7.28l-6.81-9.89h-40.27l-.86 9.92-12.33 5.66-2.34 1.1s-2 16.54-11.45 42l-.29.81c-4.72 9.77-5.13 20 5 40 3.38 6.61 6.85 13.59 10.3 20.5 10.4 20.87 23 49.76 23 49.76z" data-name="Path"/><path fill="#004975" d="M445 271.002s31.31-70.25 41.34-94.88c5.87-14.39 3.39-39.78-18.39-42.85-12.27 2.71-22.93 30.58-27.42 41.6-8.9 21.86-26.37 72.34-27.6 80.08 7.89 27.5 32.07 16.05 32.07 16.05m212.78 164.61H509.26l-32.81 32a5.51 5.51 0 1 0 7.69 7.89l29.61-28.85h102.89l-41.17 162.62a5.52 5.52 0 0 0 5.36 6.87 5.51 5.51 0 0 0 5.34-4.16L628 446.642h29.77a5.52 5.52 0 1 0 0-11zm-388.65 180.53a5.51 5.51 0 0 1-5.51-5.51c0-80.81-59.74-146.56-133.17-146.56a122 122 0 0 0-37.16 5.79 5.512 5.512 0 0 1-3.36-10.5 132.9 132.9 0 0 1 40.52-6.31c38.61 0 74.88 16.46 102.13 46.34s42.06 69.24 42.06 111.24a5.51 5.51 0 0 1-5.51 5.51" data-name="Path"/><path fill="#71767c" d="m442.041 667.056 38.275-6.302 2.039 12.384-38.275 6.302z" data-name="Rectangle"/><path fill="#d0d4d8" d="M289.81 294.202c-14.84 0-20.85 11.19-25.23 19.36-3 5.51-4.93 8.86-7.35 8.86h-35.81c-1.61 0-5.7-4.8-5.7-10.83a6.78 6.78 0 0 1 1.42-4.54c1.11-1.21 3.06-1.82 5.79-1.82h17v-11h-17c-7.39 0-11.63 2.92-13.89 5.38a17.3 17.3 0 0 0-4.34 12c0 10.31 7.15 21.85 16.72 21.85h35.81c9.19 0 13.56-8.13 17.06-14.66 4.53-8.44 7.83-13.55 15.52-13.55h.87v-11z" data-name="Path"/><path fill="#9dc9ff" d="M390.92 259.892c-18.16 9.61-38.57 22.85-54.88 32.28l-7.61-3.25-27.92-.18s9.36 14.89 19.1 18.4c12.58 4.53 19.76 1.75 27.18-.65 28.52-9.24 98.42-34.89 98.21-35.49a37.3 37.3 0 0 0-4.74-9.62c-12.76-19-32.11-10.6-49.34-1.49" data-name="Path"/><path fill="#00629a" d="M332.19 294.202h-41.51v11h41.51c.92 0 1.66-2.46 1.66-5.5s-.74-5.5-1.66-5.5" data-name="Path"/><path fill="#d0d4d8" d="M233.71 333.442a7.41 7.41 0 0 1 6.72 9.33l-.61 2.24-7.44 27.44 14.2 4.06 9.81-34.11a10.61 10.61 0 0 0-1.47-9z" data-name="Path"/><path fill="#7ebdff" d="M294.27 310.802c3.22 1.6 14.09 2.69 21.13.51 9-2.79 13-22.39 13-22.39l-27.92-.18z" data-name="Path"/><path fill="#595e62" d="M497.75 285.782h-27.34l-.06-.25h-43.17a139 139 0 0 0 7.39 31.33c-3.6 5-19.53 32-24.2 45.68-16.62 48.71-19.39 77.82-19.68 78.76l53.37 154.75 34.37-5.72s-9.8-63.69-13.33-83.88c-4.28-24.56-7.11-26.11-23.82-57.52 21.17-35.8 39.72-73.63 55.58-97.93 9.85-15.12 11.33-32.81.89-65.22" data-name="Path"/><g fill-rule="evenodd"><path fill="#d0d4d8" d="m420.943 86.834-5.517-40.22a2.67 2.67 0 1 1 5.247-1.005l5.724 40.08 22.249-36.316a2.671 2.671 0 0 1 3.844 3.713s-22.144 39.47-28.56 43.744-12.428 7.025-17.313 7.025-6.202-.583-8.856-.961c-2.26.024-5.293-5.003-5.681-5.208 5.354.57 8.315 1.073 13.557.99 4.719-.074 15.306-7.842 15.306-7.842s.399-1.09 0-4"/><path fill="#8a9097" d="M369.552 45.941c-2.877-.223-4.905-2.935-4.284-5.752 2.23-10.139 10.914-33.608 44.607-39.162 44.554-7.346 47.794 26.967 48.32 31.761.528 4.793.49 13.549-2.083 23.073-1.262 4.674-8.872 6.797-10.649 3.427l-4.893-9.28c-2.389-2.808-4.217-3.927-7.742-2.847l-11.66 4.49a7.24 7.24 0 0 1-5.905-.752l-6.783-4.165c-.479-.294-21.027-3.295-29.363-2.034z"/><path fill="#595e62" d="m447.444 14.151-3.893 5.292 6.595 12.018 3.434-6.776zm-35.724.739-7.837-3.308-16.131 17.512 12.467-1.506 11.5-12.697m-18.228.938-5.51-.18-12.916 14.211 5.754-.623z"/></g></g></svg>