<svg xmlns="http://www.w3.org/2000/svg" viewBox="0 0 600 400"><path fill="#656a6f" d="M99.545 206.184c-24.245 0-43.876 19.609-43.876 43.787s19.649 43.787 43.876 43.787 43.876-19.609 43.876-43.787-19.649-43.787-43.876-43.787m0 6.045c20.86 0 37.819 16.924 37.819 37.742s-16.959 37.742-37.819 37.742-37.819-16.924-37.819-37.742 16.959-37.742 37.819-37.742"/><ellipse cx="99.546" cy="249.971" fill="#8a9097" rx="6.68" ry="6.667"/><path fill="#656a6f" d="M424.884 300.869c0 3.609-1.782 6.808-4.5 9.462-2.71 2.646-6.498 4.909-10.967 6.755-8.952 3.697-21.14 5.925-34.469 5.925s-25.517-2.228-34.469-5.925c-4.47-1.846-8.257-4.109-10.967-6.755-2.718-2.654-4.5-5.853-4.5-9.462s1.782-6.81 4.5-9.464c2.71-2.646 6.498-4.909 10.967-6.755 8.952-3.697 21.14-5.923 34.469-5.923s25.517 2.226 34.469 5.923c4.47 1.846 8.257 4.109 10.967 6.755 2.718 2.654 4.5 5.855 4.5 9.464m-5.173 0c0-1.791-.869-3.738-2.942-5.762-2.082-2.033-5.229-3.982-9.327-5.675-8.185-3.381-19.672-5.533-32.494-5.533s-24.308 2.152-32.494 5.533c-4.098 1.693-7.246 3.642-9.328 5.675-2.074 2.025-2.942 3.972-2.942 5.762s.869 3.736 2.942 5.761c2.082 2.033 5.23 3.982 9.328 5.675 8.185 3.381 19.672 5.533 32.494 5.533s24.308-2.152 32.494-5.533c4.098-1.693 7.245-3.642 9.327-5.675 2.073-2.025 2.942-3.971 2.942-5.761"/><ellipse cx="374.949" cy="300.868" fill="#8a9097" rx="8.854" ry="3.644"/><path fill="#003e64" d="M155.499 282.755a2.266 2.266 0 0 1 1.389 2.88l-2.458 7.342-3.973 11.858h4.899c.766 0 1.407.569 1.407 1.28v1.44c0 .711-.623 1.28-1.407 1.28h-14.643c-.766 0-1.407-.569-1.407-1.28v-1.44c0-.711.623-1.28 1.407-1.28h4.97l4.703-14.027c1.247-3.698 2.245-6.684 2.245-6.684a2.245 2.245 0 0 1 2.868-1.369m254.186-29.529 2.565 4.249c.392.658 1.211.907 1.817.533l1.247-.747c.606-.373.766-1.191.356-1.867l-7.553-12.516c-.392-.658-1.211-.907-1.817-.533l-1.247.747c-.606.373-.784 1.191-.374 1.867l2.53 4.178-19.791 4.409a2.255 2.255 0 0 0-1.764 2.667 2.26 2.26 0 0 0 2.672 1.76z"/><path fill="#006ead" d="M380.025 248.798a3.84 3.84 0 0 0-4.151-3.538s-9.334.711-9.869.747a3.75 3.75 0 0 0-1.479.409c-1.336.693-2.209 2.133-2.084 3.716a3.82 3.82 0 0 0 1.39 2.667l13.877-.196c1.143-.52 2.441-2.24 2.316-3.804Zm-204.896 19.289c-.178-1.582-.534-4.764-.73-6.347a1.66 1.66 0 0 1 .855-1.636c5.065-2.665 10.137-5.007 15.373-7.307.073-.01.142 0 .214 0l8.996 4.178a.83.83 0 0 1 .428.747c.03 4.24.013 8.415-.285 12.64-.089 1.369-1.015 2.418-2.209 3.093-.862.516-1.7.907-2.726.907h-10.207a3.05 3.05 0 0 1-1.621-.444c-1.89-1.199-7.81-3.524-8.088-5.831m48.792 24.301a2.32 2.32 0 0 0-1.781-.853c-9.976-.053-39.885-.16-39.885-.16-.837 0-1.621.462-2.031 1.191a690 690 0 0 1-2.53 4.587l50.253-.196s-3.046-3.413-4.044-4.587z"/><path fill="#00a4fd" d="M441.359 271.804h-36.162l-.891 4.124 38.264.018s-1.247-4.48-1.211-4.142M299.454 284.78c-3.153-2.738-9.655-1.049-22.143.462-1.229.142-2.512.302-3.866.427-5.024.516-4.881 4.942-.98 5.191 2.601.178 4.453.516 5.896.924 1.977.551 3.242 1.191 4.703 1.636 1.906.533 4.115.622 6.253.427 4.347-.427 9.744-2.044 10.813-4.569.481-1.156.57-3.413-.677-4.498Zm-8.107-24.497.16-.018zm-50.752-43.022 3.794 1.262a2.9 2.9 0 0 1 1.479 1.12l1.461 2.133s3.919-.356 5.22-.48a2.33 2.33 0 0 1 2.138 1.013l22.178 33.084c.392.569.481 1.28.285 1.938-.41 1.476-1.55 5.902-1.55 5.902l4.204 6.169a1.65 1.65 0 0 1-.16-1.298c.463-1.529 1.372-4.587 1.835-6.116a1.645 1.645 0 0 1 1.443-1.156c1.104-.089 2.708-.196 3.189-.231a2.89 2.89 0 0 1-2.173-1.28l-6.181-9.262-19.952-29.884c-1.14-1.689-.214-4 1.781-4.444 0 0 1.013-.331 2.387.107l35.895 17.013a2.91 2.91 0 0 1 1.585 3.307l-5.309 21.92a2.92 2.92 0 0 1-2.636 2.222l8.665-.058s-.168-.119-.132-.262c.41-1.76 3.278-14.382 4.774-20.782.463-1.973 2.316-2.72 3.99-2.027l39.939 18.827s3.848 1.689 3.545 3.627c-.285 1.902-4.756 2.702-4.756 2.702l-38.318 6.684a2.07 2.07 0 0 1-1.906-.658l-.552-.622a.78.78 0 0 1 .089.853s-2.832 6.667-3.1 7.236c.41-.871 1.211-1.493 2.066-1.671l44-8.516s6.698-1.458 6.271-6.027c-.089-2.844-5.219-5.404-5.219-5.404l-104.675-51.804-7.909.32-25.064 68.338c-.606 1.636.214 3.449 1.835 4.107a3.23 3.23 0 0 0 4.168-1.707l21.377-56.196Zm-6.164 95.894 23.283-.338a4.207 4.207 0 0 0 4.044-4.391c-.107-2.293-2.049-4.089-4.347-4l-15.748.213-7.268 3.129z"/><path fill="#007bc0" d="M455.564 150.239c3.948 1.992-1.352 10.099-5.265 10.099-10.791-5.44-19.001-18.792-19.179-18.988 1.76-.284 7.626-2.382 7.626-2.382s9.902 8.551 16.817 11.271Z"/><path fill="#8a9097" d="m459.675 119.958-1.835-.871-4.341 3.412a46 46 0 0 0-2.36 5.215s-15.307 8.551-20.018 13.636c2.583 1.596 5.952 2.719 10.887.279l12.163-11.303z"/><path fill="#001d33" d="m448.045 207.911 1.653 47.947 5.547 52.621h3.556c3.396-12.747 8.213-28.052 1.991-51.021-1.973-7.324 1.209-19.307 4.338-31.68-.759-13.113-7.851-21.567-7.946-32.695h-6.334c-.799.797-3.101 4.045-2.805 14.828m13.227-90.454c-3.182.444-4.853 2.276-5.689 4.444l-.036.036c-2.204 1.493-4.267 5.138-1.067 8.782l-.322 18.904 1.399.64 4.541-1.801c2.319-3.185 1.485-4.849 1.742-7.484h-.018a22 22 0 0 1-1.493-.16 12.6 12.6 0 0 1-1.76-.409s-.089-.178-.231-.551a55 55 0 0 1-1.796-5.564 33 33 0 0 1-.462-2.062 35 35 0 0 1-.587-5.458l.373-.587c1.6 4.427 8.622 5.369 12.053 5.582.764-1.458 2.596-4.249 3.911-2.827.302.356.462.8.444 1.262-.018 1.689-1.6 3.947-2.364 4.942l.622 3.467 1.298 7.111h.444l1.12 2.756s2.72.907 4.533 1.493c-1.853-10.545-.511-34.769-16.658-32.516Z"/><path fill="#00a4fd" d="m473.415 148.442-1.12-2.756h-11.218l-1.036 2.687-4.489 1.889c-1.752 4.073-4.006 7.976-6.44 11.673-2.357 3.535-2.844 7.342-1.902 11.449 1.518 6.577 2.472 12.897 1.991 19.698h22.062l7.004-29.831c-2.176-4.665-.83-9.866 2.215-13.27 0 0-3.27-.629-7.122-1.557l.053.018Z"/><path fill="#0088d4" d="M471.204 193.084h6.672l4.515-25.28-5.497-8.664z"/><path fill="#003253" d="M480.098 236.603c.124-4.8.391-8.942.658-12.622 1.905-18.556-3.913-28.475-5.66-30.896l-18.214-.002c.025 5.006.877 10.221 2.79 14.881 1.6 3.911 3.538 10.596 5.422 17.813 3.84 14.773 7.467 31.769 7.467 31.769l12.943 50.917 3.876-.163c-1.387-45.244.406-47.217-7.912-61.848 0 0-1.59-1.342-1.369-9.849Z"/><path fill="#8a9097" d="m461.6 143.301.125-2.231a13.6 13.6 0 0 0 3.181-.381c-.355.764-2.355 1.989-3.306 2.612"/><path fill="#a4abb3" d="m461.601 143.282-.3 2.405h10.567l-1.92-10.578c.764-.996 2.347-3.271 2.364-4.942a1.83 1.83 0 0 0-.444-1.262c-1.298-1.422-3.147 1.369-3.911 2.827-3.431-.213-10.453-1.156-12.053-5.582l-.469.61c.089 4.568 1.28 9.008 3.11 13.676 2.178.681 3.896.933 6.355.256-.978.996-2.125 1.861-3.299 2.59"/><path fill="#56b0ff" d="M481.173 184.142c1.962-2.589 5.513-3.057 8.515-2.418l-4.614-24.96c-.819-4.196-2.922-7.201-6.674-7.126-4.632.093-4.654 5.318-4.155 10.313.408 4.081 4.03 16.322 6.946 24.17"/><path fill="#a4abb3" d="M485.736 181.538c-1.96.284-3.512 1.197-4.545 2.584-1.621 2.187-2.46 7.523-2.834 12.501-.349 4.626.33 9.248-1.336 13.582l-6.876 5.884.534 1.653 4.222-2.044-.517 1.351 7.054 1.12.445-5.707 7.823-30.741s-.594-.496-3.972-.183Z"/><path fill="#8a9097" d="m474.385 217.036-3.488 5.932c4.736 2.693 8.668-.657 10.538-4.804z"/><path fill="#007bc0" d="m496.988 314.042-7.609-5.742-3.876.16-.676 8.818h10.453a2.063 2.063 0 0 0 2.062-2.062c0-.427-.124-.836-.356-1.173Zm-41.742-5.564-17.458 6.027c1.2 1.8 3.711 2.773 5.796 2.773h16.996l-1.778-8.8z"/></svg>