<svg xmlns="http://www.w3.org/2000/svg" viewBox="0 0 700 1000"><path fill="#8a9097" d="m340.4 427.4-24.3 16.5c15.4 19.9 28.7 37.3 28.7 37.3l5.1 7.3c0-.2 5.3-11.5 5.3-11.6 0 0 3.3-6 5.4-9.5z"/><path fill="none" d="M208 112.9c-.7 1.8-1.2 2.8-1.2 2.8-2.9.9-5.8 1.6-8.8 2 3-.5 5.9-1.2 8.8-2.1q.15 0 1.2-2.7"/><path fill="#232628" d="M227.5 67.3c16-18.2 5.7-36.4-5.3-43.9l-.2-.2c-4.2-10.8-12.5-20-28.4-22.2-38.8-5.4-54.9 12-61.7 41.5-.8 2.7-1.4 5.5-1.8 8.3l-20 112.7c9.1-3 22.6-7.5 22.6-7.5l5.6-13.8h2.3l6.5-35.5 3.1-17.3c-3.8-5-11.7-16.3-11.8-24.7-.1-2.3.7-4.6 2.2-6.3 6.5-7.1 15.7 6.8 19.5 14.1 17.1-1.1 52.2-5.8 60.3-27.9l1.9 2.9c-.2 9.2-1.2 18.3-2.9 27.3-.6 3.3-1.4 6.8-2.3 10.3-2.5 9.4-5.5 18.7-9 27.8-.7 1.8-1.2 2.8-1.2 2.8-2.9.9-5.8 1.6-8.8 2-2.5.4-4.9.7-7.4.8h-.1c.4 3.7.8 7.8 1.2 11.7v.3c.5 4 1 8 1.4 11.7h1.2l5 13.8 19.3 7.9 3.7 1.5c1.4.4 4.2 1.2 6.8 2z"/><path fill="#00210e" d="m254.7 399-2.8-20.5-37.8.2c0 .8 0 2-.1 3.6v1.8c-.4 13 .9 63.3-17.3 98.9-2.3 13.6-11.5 54.7-21.5 97.5 1.1 68.2 2.3 61.9 7.3 115.2-2.2 119.3-5.8 196.2 11.2 260 .1.3 12 .5 12.1.7l.1-.5h.2v-.1h31.4s2.7-1 2.8-1l11.3-262 8.3-239.7c0-4.5-4.5-49.4-5.2-54.1"/><path fill="#053634" d="m96 526.9 22-2z"/><path fill="#00381b" d="M143.3 379.2H117c-7.2 13.1-7.9 18.5-11 31.2-1 4.8-2 9.6-2.8 14.4 1.7 17.4 2.9 30.5 2.9 30.5l-1.8.4c.8 18 1.7 32.5 1.7 32.5l34.1 32.6-3.3 8.4-21.3-11.8 2.3 7.2.1.3 17 32.2c-19.4 8.7-33 1.1-41.7-8.3-4.1 30.5-6.4 84.6-11.9 94.3-15.8 94.1-28 86.8-48.3 312.1h20.7l17.6.8h12.1l63.2-254.4s44.6-186.1 50-218.4c18.2-35.6 16.9-85.9 17.3-98.9v-1.8c0-1.6.1-2.8.1-3.6z"/><path fill="#66b8b2" d="M113.6 181.8c-1.9-3.5-4-6.9-6.4-10.1-1.3-1.8-2.8-3.6-4.3-5.3-.3 0-.5.1-.8.1-17.5 2.3-28.5 14.9-32.8 36.8L45.6 338.9h.1l-.1.1 24.5 123.6 36.1-7.3S97 359.7 95 340.1c.4-1.9 1.4-5.4 3.4-15 6.6-16.6 15.2-40.4 20.5-62.7.1-.3.2-.7.2-1 2.7-11.7 4.5-22.9 4.5-32.3.1-18.6-3.1-34-10-47.3"/><path fill="#00884a" d="M119.6 259.9 143 377.7l.3 1.5h-32.8l-11.4-55.8c6.6-16.6 15.2-41.2 20.5-63.5M206 956l17.6-.1h.1L311 986l-.2.3c-7.1 8.6-17.7 13.6-28.8 13.6h-85l8.9-43.5zM14.9 983.9l38-28.7h.9l17.6.8h.9l3.4 44H23.4c-5.7 0-10.3-4.6-10.3-10.3 0-2.1.6-4.1 1.8-5.8"/><path fill="#37a264" d="m132.7 156 5.6-13.8h56.1l5 13.8 19.3 7.9 3.7 1.5s2.1 5.5 7 15.2c7.5 14.7 15.7 29.1 24.8 42.9.1.2.2.3.3.5l.7 1.1c10.4 13.6 14.8 27.7 8.4 55.7-2.1 9.2-4.3 18.9-6.5 28.5v.2l-3.5 69.1-8.6.1-30.9.2-70.8.4-.3-1.5S119.4 260.3 119.5 260c2.7-11.7 5.3-25.7 3.5-45.4-2.7-29.6-18.6-46.4-20.1-48.1-.3 0 4.5-2 7.2-2.9 9-3.1 22.6-7.6 22.6-7.6"/><path fill="#8a9097" d="M190.6 118.5c.4 3.7.8 7.8 1.2 11.7-5.9-3.7-11.4-8-16.3-13 4.9 1.2 10 1.6 15.1 1.3"/><path fill="#7d8389" d="m118 524.9 17 32.2c-24.9 11.2-40.3-4.5-47.9-16.6-2.2-3.5-4.9-8.4-6.4-12.2z"/><path fill="#8a9097" d="M191.8 130.5c.5 4 1 8 1.4 11.7h-52.6l6.5-35.5 3.1-17.3c-3.8-5-11.7-16.3-11.8-24.7-.1-2.3.7-4.6 2.2-6.3 6.5-7.1 15.7 6.8 19.5 14.1 17.1-1.1 52.2-5.8 60.3-27.9l1.9 2.9c-.2 9.2-1.2 18.3-2.9 27.3-.6 3.3-1.4 6.8-2.3 10.3-2.5 9.4-5.5 18.7-9 27.8-.7 1.8-1.2 2.7-1.2 2.7-2.9.9-5.8 1.6-8.8 2.1-2.5.4-4.9.7-7.4.8h-.1zm-51.7 390.3L106 488.2s-.9-14.5-1.7-32.5l-31.7 6.4c4.3 21.1 7.4 36.3 7.4 36.3l.6 29.9h.1l5.3-.5 31.8-3-.1-.3-2.3-7.2 21.3 11.8z"/><path fill="#5ebd82" d="M113.6 181.8c-1.9-3.5-4-6.9-6.4-10.1-1.3-1.8-2.8-3.6-4.3-5.3-.3 0-.5.1-.8.1-17.5 2.3-28.5 14.9-32.8 36.8L45.6 338.9h.1l-.1.1 24.5 123.6 36.1-7.3S97 359.7 95 340.1c.4-1.9 1.4-5.4 3.4-15 6.6-16.6 15.2-40.4 20.5-62.7.1-.3.2-.7.2-1 2.7-11.7 4.5-22.9 4.5-32.3.1-18.6-3.1-34-10-47.3"/><path fill="#00884a" d="M300.9 345c-.6-1.5-1.3-2.9-2.2-4.2L248.9 190c-2.9-10.3-5.9-16.3-15.6-21-2.1-1-8.7-3-11-3.6 0 0 .8 2.2 2.7 6.1 1.1 2.4 2.5 5.4 4.4 9.1 4.2 8.2 8.6 16.4 13.3 24.3.2.4.5.8.7 1.2 3.5 5.9 7.1 11.6 10.8 17.3.1.2.2.3.3.5l.7 1.1c10.4 13.6 14.8 27.7 8.4 55.7-2.1 9.2-4.3 18.9-6.5 28.5v.2l-2.6 52.2 58.2 84.7 29.5-20.1z"/><path fill="#71767c" d="M172.9 115.3s12.4 3.5 17.7 3.2c.4 3.6.8 9 1.2 12.9.1 0-18.3-14.3-18.9-16.1"/><path fill="#c1c7cc" d="M476.3 82.6c5.6 20.8 10.2 30.8 10.2 30.8 5.3 1.6 10.8 2.6 16.3 2.9 6.3.2 19.8-2.6 19.8-2.6-5.4 5.5-20.9 15-20.9 15 .3-3 .5-5.7.8-8.4l-.8 7.3c-.4 3.9-.9 7.7-1.3 11.2h52.4l-6.3-34.7-3.1-17.2c3.8-5 11.9-16.4 11.9-24.8.1-2.3-.7-4.6-2.2-6.3-.5-.6-1.1-1.1-1.9-1.4-3.1-1.5-6.5.6-9.7 3.9-3.2 3.5-5.9 7.4-8.2 11.6-17.1-1-52.1-5.9-60.2-27.9l-2 2.8c.3 9.2 1.2 18.3 2.8 27.3.7 3.5 1.5 6.9 2.4 10.5"/><path fill="#b2b9c0" d="M419.9 371.2c-10.6-1-18.4-3.4-22.6-5L373.9 449s-17.4 18.5-24.8 41.9c-1.1 3.1-.4 13.4.6 21.6.7 7.1 4.5 13.7 10.2 18.1l8.6 6.7 2.1-6.3-5.1-5.6-5-5.5c-1.1-1.3-1.9-2.7-2.6-4.3-1.9-5.1-2-10.8-.2-16.1l20.8 3.8 5.1.9-4.7 11.9-.3 11.5 8.6-3.4 5.2-51.3 22.8-39.8c1.2-26.8.9-46.8 4.7-61.9M523.2 652.3c-8.9-.1-17.5-.4-25.7-.8-15.2-.7-38.3-4.2-55.9-6.9l1.5 47s27.7 263.5 27.9 263.5h25.6c17-63.8 44.2-137.6 13-252.6-3.6-13.5 11.7-31.8 13.6-50.2"/><path fill="#c1c7cc" d="m615.5 647.9-3.2.2c-2.3.1-4.7.3-7.2.5-9.6.6-21.2 1.4-34.9 2.5-6.3.4-12.6.8-18.9 1-1 .1-1.7.1-2.3.1 3.6 30.8 7.2 48 7.2 48l68 254.9h.4l22.1-.1h.2c-6.9-223.2 18.4-217.3-31.4-307.1"/><path fill="#5ebd82" d="M545.1 11c-26.7-27.1-71.3 3.8-73.6 10.2l-.1.2c-11.6 7.7-22.2 27.2-3.2 46.2l5.8 4.7c-1.7-9-2.6-18.2-2.8-27.4l1.9-2.9c8 22.1 43.2 26.9 60.3 28 2.2-4.2 5-8 8.2-11.6 3.2-3.3 6.6-5.4 9.7-3.9.7.3 1.3.8 1.9 1.4 1.5 1.7 2.2 4 2.1 6.3-.1 8.4-8 19.7-11.9 24.7l3.1 17.3c45.7-22.9 25.3-66.1-1.4-93.2"/><path fill="#147671" d="M599.3 397.2c4.1 6.9 8.7 16.1 12.1 23.4-2.5-6.2-7.1-15.2-12.1-23.4m-18.9-26.7c1.8 2.2 14.2 19.7 14.2 19.7-6.4-9.8-12.4-17.5-14.2-19.7"/><path fill="#007a42" d="M548 372s14.3-69.8 26.5-128.7c-1.3-4.8-2.4-9.2-3.5-13.3-5.5-25.9-.6-51.1 10.3-70.4-8.9-2.9-20.2-6.7-20.2-6.7l-6.7-14h-55.1l-69.2 82c-10.4 13.6-14.9 27.9-8.4 55.7.7 3.1 1.4 6.1 2.2 9.2 9.5 41.3 2.1 66.3-2.8 81.7-5.4 16.9-4.4 40.5-6.1 73.6l-4.5 199s3.2.4 8.7 1c10.9 1.2 54.5 9.2 78.5 10.3 15.7.7 33 1.1 50.3.6 7.5-.2 15-.6 22.4-1.1 13.7-1 25.3-1.9 34.9-2.5 2.5-.2 4.9-.3 7.2-.5-.2.1-19.2-209.5-64.5-275.9"/><path fill="#37a264" d="M622.7 187.1c-11.8-17.9-23.8-22.3-41.4-27.5-10.8 19.3-15.7 44.5-10.3 70.4 10.6 42.9 38.1 129.3 47.3 147.2 15.1 1.4 30.6.4 46.8-2.5 0 .1-15.4-141.3-42.4-187.6"/><path fill="#006c3a" d="m627.6 560.4 5.9-24.9c-.7-4.6-1.5-9.2-2.3-13.8l-12.7 12.8-5.1-7.5 14.8-23.1c-6.7-39.5-13.2-74.2-16.9-83.3-4.8-10.4-12.1-24.5-16.7-30.5 0 0-12.5-17.4-14.2-19.7 0 0 6.3-28.4 13.5-61.3-7.2-22.6-14.3-46.7-19.5-65.9C562.2 302.2 548 372 548 372c45.4 66.4 64.3 276 64.3 276l38.3-1.9s-5.8-39.1-13-85c-3.1.2-6.4 0-10-.7"/><path fill="#43464a" d="m471 954.9-87.5 30.2.2.3c7.1 8.7 17.7 13.7 28.9 13.6h93.1l-9.1-44.2h-.1zm210.7 28.5-34.9-28.8-22.7.2-3.4 44.7h52.5c2.8 0 5.4-1.1 7.3-3.1s3-4.6 3-7.4c0-2-.6-3.9-1.8-5.6"/><path fill="#7d8389" d="m378.6 503.2 5.1.9-11.2 28.6-6.9-7.5-5-5.5c-1.1-1.3-1.9-2.7-2.6-4.3-1.9-5.1-2-10.8-.2-16.1z"/><path fill="#b2b9c0" d="M627.6 560.4c40.9 7.3 45.4-40.2 45.4-40.2l-37.2 5.4z"/><path fill="#c1c7cc" d="m673 520.3-6.5-29.3-8.1-115.1c-13.4 1.9-26.4 2.6-39.1 1.5 6.1 42 20.5 95.3 20.5 95.3l-1.1 15.1-25.3 39.4 5.1 7.5 18-18.2-.7 9.3z"/><path fill="#a4abb3" d="M502.9 116.2c-.5 4.1-.7 8-1.2 12.4 0 0 15.5-9.5 20.9-15 0 0-13.4 2.8-19.7 2.6"/><path fill="#005f23" d="M421 367.5c4.9-15.4 12.2-40.4 2.8-81.7-.8-3.1-1.4-6.1-2.2-9.2-6.4-27.9-2-42.1 8.4-55.7l57.9-68.6-33.6 14.6c-15.8 6.4-26.9 15.8-29.1 30.5-1.2 3.2-2.1 6.5-2.4 10.1l-29.1 157.2s9.7 5 26.2 6.5c.4-1.3.7-2.5 1.1-3.7"/></svg>