<svg xmlns="http://www.w3.org/2000/svg" viewBox="0 0 247.4 437.5"><g data-name="Ebene_1"><path fill="#fff" d="M22.6 85.3 0 88.7 1.9 86l20.4-1.1.4.4z"/><path fill="#2e3033" d="m15.4 83.9-1 .2c-.8.8-1.5 1.8-2 2.8l1-.2c.6-1 1.3-1.9 2-2.8m2-.3-1 .2c-.8.8-1.5 1.8-2 2.8l1.1-.2c.6-1 1.2-1.9 2-2.8zm-7.5 1.2-1.1.2c-.9.8-1.6 1.7-2.1 2.8l1.1-.2c.6-1 1.3-1.9 2.1-2.8m-5.9.9h-.7c-.8.9-1.4 1.8-1.9 2.9h.7c.6-1.1 1.2-2 1.9-2.9m6.5 1.5 1-.2c.6-1 1.3-1.9 2-2.8l-1 .2c-.8.8-1.5 1.8-2 2.8m-4.6.8c.6-1.1 1.3-2.1 2.1-2.9l-1.1.2c-.8.8-1.5 1.7-2 2.8zm13.4-4.7-1 .2c-.8.8-1.5 1.8-2 2.8h.9q.9-1.65 2.1-3m2.4 2.2h.9c0-.1-.1-1.2-.1-1.2-.2.4-.5.8-.6 1.2zm-1.6.2h.8c.4-.9.9-1.6 1.4-2.3v-.6h-.4c-.7.8-1.4 1.8-1.8 2.8zm-8.5-1.2h-.8c-.9.9-1.6 1.9-2.1 2.9h.9c.6-1.1 1.2-2.1 2-2.9m-9.2 1.4h-.5c-.8.8-1.4 1.6-1.9 2.5v.3h.5c.5-1 1.2-1.9 1.9-2.8m3.6-.5-1.1.2c-.8.8-1.4 1.7-1.9 2.8l1.1-.2c.5-1 1.2-1.9 1.9-2.8m15-2.3h-.9c-.8.9-1.5 1.9-2.1 2.9h-.1l1.3-.2q.75-1.5 1.8-2.7"/><path fill="#005587" d="M60.047 139.193c-.798-1.4-5.117-3.92-5.117-3.92a5 5 0 0 1 0-.896c.098-.385.65-1 .77-1.4.259-.84 0-1.967 0-3.5s-2.366-2.429-2.366-2.429a22 22 0 0 1-1.89-3.346c-.392-1.12-1.022-8.28-1.274-10.409-.252-2.128-.854-7.077-1.113-9.47-.126-1.128-.07-1.989.525-4.516a5.94 5.94 0 0 1 3.647-4.2c.7-.315 1.246-.42 2.968-1 1.722-.582 2.338-4.488 2.744-7.169s.42-6.104-1.267-7.896A19.7 19.7 0 0 0 47.363 73.4a9.66 9.66 0 0 0-5.985 1.148l-1.17-.392-3.422.056s-3.157.182-5.187.406a4 4 0 0 0-1.071.273q.154-.04.315-.049c1.127 0 3.752 1.477 5.299 3.577 1.12 1.526 1.554 1.295 2.254 1.295 3.605-.077 14.455-.3 14.455-.3s2.016-.07 2.723 0c.627.061 1.669.334 1.754 1.67a3 3 0 0 1-.011.618 29 29 0 0 1-1.4 6.3 7 7 0 0 1-.185.492c-.568 1.754-.83 2.766-4.351 3.827-2.891.868-3.605.168-5.243 3.668s-3.038 7.427-3.038 7.427-.75 1.204.42 1.638l3.108 1.148q.217.026.403.119l.016.01q.177.09.317.23l.014.02c.088.093.165.197.22.314.007.014.008.031.014.045.048.112.087.228.1.354.078.98.925 10.605.925 10.605l.322 4.48s.42 2.576 1.113 3.395c.613.593 2.789 3.232 1.999 3.48a1.3 1.3 0 0 1-.186.048l-.857.16c-2.32.447-8.2 1.561-8.2 1.561l-3.172 8.275-4.27.973-.005-.003-.016.003-2.1-1.519-9.268-4.34-2.233-.7.023-.023-.037-.012-4.95 8.113v3.255l13.79 7.238 27.854-6.825a10 10 0 0 0 1.645-2.058c.357-.994.483-3.297-.042-4.207"/><path fill="#005587" d="M39.2 120.972a6.6 6.6 0 0 1-.076 1.757c.183-.568.21-1.175.077-1.757m-1.288-16.016c.203-1.323.7-6.93-1.995-6.363-1.87.4-3.5.882-4.837.7 1.218.7.84 3.437.84 3.437-1.148 2.99-.252 2.954.798 3.388a5.25 5.25 0 0 0 2.492.175s2.499-.014 2.702-1.337"/><path fill="#2e3033" d="M33.634 91.2c.833-2.331 3.6-14.062-5.031-14.839 0 0-5.698 1.253-6.552 1.33s-1.834 1.155-1.834 1.155l-7.133.511s-3.241 1.932-4.81 2.8a3.27 3.27 0 0 0-1.532 2.758l-1.141.336.063 2.996 1.4.245c.14 1.288 1.666 2.31 1.666 2.31l5.754 2.135 7-.546a19 19 0 0 0 5.558 1.043c.259.007 5.787.048 6.592-2.234"/><path fill="#005587" d="m35.862 106.727-.651-.42q.4.273.65.42m.883 3.066c0-.112 0-.245-.042-.385z"/><path fill="#003e64" d="M30.528 74.891a3.5 3.5 0 0 0-1.897 1.463 4.2 4.2 0 0 1 1.897-1.463m6.216 34.902v.14c.343 4.347 1.792 8.225 2.394 10.843v.196a13.8 13.8 0 0 0-.791-3.57 34.6 34.6 0 0 1-1.603-7.609m-.882-3.066.56.364s.182 1.4.28 2.317c-.14-1.4-.168-2.394-.168-2.394s-.133.042-.672-.287"/><path fill="#003e64" d="m33.265 138.752 2.1 1.52 4.27-.974 3.318-8.274s8.022-1.56 8.932-1.722c1.05-.189.238-1.05-.105-1.638a22 22 0 0 0-1.708-1.862c-.7-.819-1.113-3.395-1.113-3.395l-.322-4.48s-.847-9.625-.924-10.626a1.23 1.23 0 0 0-1.085-1.099l-3.108-1.148c-1.17-.434-.42-1.638-.42-1.638s1.4-3.927 3.038-7.427 2.352-2.8 5.243-3.668c3.878-1.169 3.8-2.275 4.536-4.382a29 29 0 0 0 1.4-6.3c.203-1.827-1.036-2.156-1.743-2.226s-2.723 0-2.723 0-10.85.224-14.455.301c-.7 0-1.134.231-2.254-1.295-1.547-2.1-4.2-3.57-5.3-3.577a1.6 1.6 0 0 0-.314.05 4.2 4.2 0 0 0-1.897 1.462c8.603.784 5.705 12.376 4.9 14.7s-6.635 2.354-6.635 2.354 1.595 4.877 3.275 5.633c0 0 .46.234.93.28 1.33.168 2.976-.37 4.845-.756 2.695-.567 2.198 5.04 1.995 6.363s-2.702 1.351-2.702 1.351l.65.42c.554.33.7.287.7.287s0 .96.169 2.394c0 .14 0 .273.042.385a34.6 34.6 0 0 0 1.547 7.637c.442 1.147.73 2.347.854 3.57.132.582.152.853-.03 1.42-.054.315-.297.576-.46.85-2.281.76-11.858 4.576-11.858 4.576s-4.516 5.238-5.09 5.894l2.234.7z"/><path fill="#2e3033" d="m55.903 135.868-20.517 4.403-2.1-1.519-9.653-4.55-1.883-.497-4.95 8.085v3.255l13.798 7.238 27.846-6.825a10 10 0 0 0 1.645-2.058 7.2 7.2 0 0 0-.056-4.2c-.476-1.428-3.444-2.793-4.13-3.332"/><path fill="#ed0007" d="M31.102 99.321s1.329.083 4.66-.806c2.38-.609 2.371 2.117 2.413 4.042 0 1.47.158 2.357-.731 3.078 0 0-.7.7-2.583.7-2.408.112-4.06-.133-3.36-2.31.637-1.98.56-3.766-.4-4.704m8.919-3.248c.098.133 4.669 0 4.669 0l1.708-2.065s.357-.777-.847-.7a43 43 0 0 0-5.236 1.17s-1.428.146-.294 1.595m-3.192-21.861a5.6 5.6 0 0 1 2.849 1.995l6.447-.063a9.9 9.9 0 0 0-4.746-1.596s-1.365-1.246-4.55-.336m-12.845 60.165 4.956 2.338s-3.913 4.83-4.655 6.72l-3.815-1.743s-.287-1.225 1.099-3.5 2.415-3.815 2.415-3.815M18.264 142.441l8.974 4.431.014 2.044-1.253.61-.007.35-7.035-3.732-.133-.37-.602-.918z"/><ellipse cx="39.6" cy="83.025" fill="#c1c7cc" rx="2.282" ry="2.023"/><path fill="#ed0007" d="m55.567 83.62-11.494.49-.084-2.534 11.508-.252z"/><path fill="#003e64" d="M148.6 149.2H175c0-.3-39.6 0-39.6 0l-4.4 9.2c-.3 2-2.2 21.4-2.2 23.5l-2 50.8 2 50.4 7.9 44.4 2.1 34.9 1.8 6.9-2.5 7.6v7.8l2.5 10.8 10.2 4h9.8l6.8-6 3.6-9.9-1.7-5 1.9-4.7c0-2.4-1.9-11.5-1.8-13.9.1-4 0-8-.3-11.9-2.1-16.8 4-35.3-2.1-58-4.3-15.9-5.3-41.6-1.1-69.4-4.1-15.7-8.3-30.2-11.8-38.6-5.4-13.4-5.4-32.8-5.4-32.8z"/><path fill="#005587" d="m242 395.1 1.6-8.7-4.3-6.3 1.7-8.2-1.6-10.6s-9.9-44.2-10.5-47.2l-4.1-20.7-8.2-12.9s-9.5-33.3-10.1-42.2c-3.2-49.4-7.5-62.5-31.4-88.3l-11.6 1-26.3 2.4 29.9 107.7c1.2 4.6 15.4 41.2 15.4 41.2l11.3 16 4.6 18.5 14.3 27.3-.8 6.8 3 4.6-1.7 6 9.9 16.7 6.9-1.7 8.3-.8 3.8-.4z"/><path fill="#002742" d="m175.545 63.291-5.608 94.409 10.556-1.9 8.844-72.9c.007-.474 0-1 0-1 .12-2.602-.988-8.722-2.82-11.326-4.046-5.75-10.972-7.283-10.972-7.283"/><path fill="#595e62" d="m44.9 97.1-3.3 2.2 8.6 9.6H63z"/><path fill="#2e3033" d="M110 124.9c0-.2-.2-.3-.3-.5l-57.5-7.8-19-6.4-.3 3.7c-.2 2.4.8 4.8 2.6 6.5 2.1 2 4.8 4.3 6 4.7 8.5 2.6 18 1.3 18 1.3l37.4 13 .6.2c1.7.6 3.5.8 5.2.6 6.5-1.1 11.1-8.7 7.2-15.3z"/><path fill="#002742" d="m60 127.5 48.2 16.6h14.2c10-6.1 21.4-12.2 29.8-24.2l-15-14.9-23.7 20.2-45.7-12.6S58.7 127 60 127.5"/><path fill="#c1c7cc" d="M159 32.9c2.1-9.4-.7-15.8-.8-16.1-.6-1.8-1.2-3.6-2.1-5.2l-.3-.6c-4.4-8.7-12-13-25.7-9.9-3.8.7-7.2 2.9-9.4 6.1-.4.4-.8.9-1.1 1.4-.6 1.2-1.1 2.4-1.4 3.7 0 .3-.1.6-.2.8-3.9 6.9-.9 28.6 11.3 33-1.8-.8-4.5-2.9-6.3-8.2-1.6-4.7-2.932-9.19-3.532-14.09l4.732-.71-.706-4.942 4.762 4.646L134 22.3l-.518-8.71 5.536 8.4 4.182-.49 4.6 7.6c1.5-3 4.07-6.654 6.47-5.754.3.1.63.474.93.774 2.3 2.2.29 6.278-1.51 9.678-3.8 2.2-4.59 6.902-2.39 10.702s7 5.1 10.8 2.9 5.1-7 2.9-10.8c-1.2-2.1-3.4-3.6-5.8-3.9z"/><path fill="#595e62" d="m134.9 70 25.2-2.1-4.1-15.5-2-7.7-2-7.4c1.9-2.9 6.4-10.6 3.1-13.7-.3-.3-.6-.4-.9-.6-2.4-.9-5 3.1-6.5 6.1l-4.7-7.6-3.7.3-6.1-9.1.6 9.6-5.1.4-5.4-5 .7 5.4-4.532.71c.6 4.9 1.732 9.39 3.332 14.09 1.5 4.4 3.3 8.7 5.5 12.9 2.3.5 4.7.7 7.1.7 2.1 0 4.3-.4 6.3-1-1.9 2.2-4.1 4.2-6.4 5.9-.3 7-.5 13.7-.5 13.7z"/><path fill="#002742" d="M146.7 163.4c4.1-53.7-15.1-96.3-15.1-96.3l-9.6 5.6c-6.7 3.4-10.1 10.9-8.3 18.1l15 64.9c.2-.1.3-.2.5-.3 7.4-4.6 16.414-2.63 17.714 4.87z"/><path fill="#eff1f2" d="M176.6 3.9c0 .2.2.4.2.6v-.6zm-38-.9c0-.3.2-.6.3-.8-.1.3-.2.5-.3.8"/><path fill="#43464a" d="M141.8 50.5c-2 .6-4.2 1-6.3 1 0 .8-.2 4.9-.2 4.9 2.3-1.7 4.7-3.8 6.6-6z"/><path fill="#005587" d="m175.6 63.3-13.8-2.2-3.4-5.5-23.9 4-1.2 6.2-9.2 5.7s-2.3 10.7-9.8 27.8c-3.5 6.5-4.3 12.9.4 24.3 7.3 17.6 16.1 40.3 16.1 40.3l39.2-6.5z"/><path fill="#003e64" d="m129.7 122.6 48.1-31.4c8.2-5.4 11.4-12.1 9.2-19.6-9-3-18-2.2-28.6 2.2-16.4 6.9-41.1 33.2-41.1 33.2 6.1 1.8 10.6 6.5 12.5 15.6z"/><path fill="#43464a" d="M29.7 101.8c-4.3 17.4 16.1 20.7 16.1 20.7l-1.3-16.2z"/><path fill="#595e62" d="M129.8 122.1h.3c-.4-9.3-3.9-15-9.7-17.5-12.1-5.2-53.2 5-53.2 5l-22.8-3.2 1.3 16.2 12.8-2s65.3 2.1 71.2 1.6z"/><path fill="#003e64" d="M130.3 122.4c-.2-9.4-3.7-15.2-9.4-17.8-12.1-5.5-60.2 0-60.2 0l-.2 2.9-.7 12-.3 4.7s64.5-1.5 70.4-1.9h.4zm47.3 94.1 25.7-6.7c3.5-16.4-8.4-35.1-13.9-42.2l-25.8 8.2s4.8 24.4 14 40.8z"/><path fill="#eff1f2" d="M153.4 19.5s-17.5 6.7-25.1 6.6c-4.8-.3-11-2.8-11-2.8s1.6 6.2 2.4 8.1c1.1 2.4 4.9 4 6.4 3.6s.4-3.6 2.1-3.7c1.7 0 1.7 2.1 4.2 3.6s11.2-4.4 11.8-5.2c.6-1.3 1.1-2.6 1.4-4l7.9-4.4-.2-1.7z"/><path fill="#003e64" d="M117.842 25.746 117.3 23.3c3.6 1 7.4 1.7 11.1 2 7.6 0 25.1-5.4 25.1-5.4l.2 1.5-6.1 2.7c-5.8 1.5-14.4 3.6-19.1 3.6 0 0-7.258-.954-10.658-1.954"/><path fill="#c1c7cc" d="m154.9 21-4.3 3.3-3 4.9-5.8-9.4 11.7-5.3 1.3 6.5z"/><path fill="#ed0007" d="M65.7 110.7H68l.1 10.1h-2.3z"/><circle cx="67" cy="107.3" r="1.7" fill="#c1c7cc"/><path fill="#43464a" d="m166.8 391.9-27.3-8-7.9 18.7 15.6 5.1 23.2 1.3-3.7-17.2z"/><path fill="#43464a" d="m149.4 382.9-20.4-1.8 4.4 19.3 15.6 5.1.3-22.5z"/><path fill="#43464a" d="M134.1 433.3c-5.5 1.9-26 1.6-28-1.7-2.2-3.7 0-8.8 3.3-11.2s7.4-3.3 11-5.4c3.8-2.2 9.4-8.1 11.2-12.4 13.9 4.2 24.7 1.7 38.5 5.9 1.2.4.7 13.8-.6 15.6-1.6 2.4-6.7 2.5-9.2 3.1-3.4.8-8.3-1.5-12.4-.6-5.2 1.2-9.7 5.2-13.9 6.6z"/><path fill="#2e3033" d="M106.3 424c1.7-1.5 8 .9 8.2 6 5.6 1.8 11.5 2.6 17.3 2.2 5.2-.4 12.1-6.8 18.5-6.8 9.7 0 18.2-2.2 20.3-7.2 2 1.2 0 7.3-1.2 8.9q-1.2 1.2-2.7 1.8l-2.5.8c-.5.1-1 .3-1.5.4l-2.5.4h-1.5l-2.4-.3c-1.3-.2-2.7-.3-4-.3-4.6 0-6.7 2.4-9.9 4.5l-1.9 1.1c-.4.2-.7.4-1.1.5l-2.4.8-1.2.3-2.7.4h-1.3l-2.7.2h-3.7l-1-.1-2.4-.2h-1.4c0-.1-2.4-.5-2.4-.5h-1c0-.1-2.6-.6-2.6-.6-4-.8-7-1.9-7.9-2.9-2.3-2.5-2.3-7.7-.5-9.2z"/><path fill="#c1c7cc" d="m150 401.5-17.2-3.7.3 1.5 15.9 3.6 1.1-1.3zm-3.4 4.2-15-3.1-.6 1.1 14.5 3.3 1-1.3zm-3.7 4.7-13-4.8-.9 1.2 12.9 4.8zm-3 3.9-12.7-5.1-1 1.1 12.8 5.2 1-1.2zm-2.9 3.6-13.1-5.5-1.1.9 13.3 5.7.8-1z"/><path fill="#43464a" d="m242.6 391.7-27.3-8-7.9 18.7 15.6 5.1 23.2 1.3-3.7-17.2z"/><path fill="#43464a" d="m225.1 382.6-20.4-1.8 4.4 19.3 15.6 5.1.3-22.6z"/><path fill="#43464a" d="M209.8 433c-5.5 1.9-26 1.6-28-1.7-2.2-3.7 0-8.8 3.4-11.2s7.4-3.3 11-5.4c3.8-2.2 9.4-8.1 11.2-12.4 13.9 4.2 24.7 1.7 38.6 5.9 1.2.4.7 13.8-.6 15.6-1.7 2.4-6.7 2.5-9.2 3.1-3.4.8-8.3-1.5-12.4-.6-5.2 1.2-9.7 5.3-13.9 6.7z"/><path fill="#2e3033" d="M182.1 423.7c1.7-1.5 8 .9 8.2 6 5.6 1.9 11.5 2.6 17.3 2.3 5.3-.4 12.1-6.8 18.6-6.8 9.7 0 18.2-2.2 20.2-7.2 2 1.2 0 7.3-1.2 8.9q-1.2 1.2-2.7 1.8l-2.5.8c-.5.1-1 .2-1.5.4l-2.5.4h-1.5l-2.4-.3c-1.3-.2-2.7-.3-4-.3-4.6 0-6.7 2.4-9.9 4.4l-1.9 1.1c-.4.2-.7.4-1.1.5l-2.4.8-1.2.3-2.7.3h-1.3l-2.7.2h-3.7l-1-.1h-2.3c0-.1-1.4-.3-1.4-.3l-2.4-.3h-1c0-.1-2.6-.6-2.6-.6-4.1-.8-7-1.9-7.9-2.9-2.4-2.6-2.4-7.7-.6-9.2z"/><path fill="#c1c7cc" d="m225.8 401.2-17.2-3.7.2 1.5 15.9 3.6 1.1-1.3zm-3.4 4.3-15-3.1-.6 1.1 14.5 3.3 1-1.3zm-3.7 4.6-13-4.8-.9 1.2 12.9 4.8zm-3.1 3.9-12.7-5.1-1 1.1 12.8 5.2 1-1.2zm-2.8 3.6-13.1-5.5-1.1.9 13.3 5.7.8-1z"/><path fill="#005587" d="M170.8 185.8v-.1l26.1-8.9-7.8-9.4-25.5 8.4z"/></g></svg>