<svg xmlns="http://www.w3.org/2000/svg" data-name="Ebene 1" viewBox="0 0 359.585 965.537"><path fill="none" d="m101.356 127.565-.01.01c-.074-.86-.147-1.732-.22-2.604.073.85.157 1.722.23 2.594m178.07 109.914a154 154 0 0 0-2.394 4.147c-6.1 10.983-11.151 21.882-15.488 32.697-4.326-16.012-9.145-31.626-14.217-46.116 10.574 3.633 21.536 6.626 32.099 9.272M141.351 56.543a19 19 0 0 0-.326-1.67 8.8 8.8 0 0 0-.672-2.33 8.9 8.9 0 0 1 .84 2.645c.074.441.116.893.158 1.355"/><path fill="#a4abb3" d="m63.556 433.829-12.442 27.835-1.449.116q-1.275-.661-2.615-1.197l-1.112 1.48-5.471 7.245-1.323 1.743-13.377 6.689-7.318 3.654v-.956l.031-8.883 10.28-7.245 2.257-5.365c-13.986 2.499-24.423 15.099-24.423 29.746v2.279a53 53 0 0 1-6.594.315l10.132-33.852 26.67-14.564 3.392-15.53-.394-2.42 25.543 7.119z"/><path fill="#8a9097" d="m25.767 477.74-1.27 3.895c-1.25 2.604-3.854 4.925-7.603 6.636v-.23c0-2.7.557-5.261 1.555-7.603v.956z"/><path fill="#71767c" d="M114.177 112.262c-3.159 5.875-7.518 10.95-12.951 14.508a1189 1189 0 0 0-.332-4.392c.063.756.137 1.522.21 2.3-.084-.946-.184-1.864-.247-2.746-.137-1.732-.435-5.214-.435-5.214l2.784-.897s10.677-3.443 10.97-3.559z"/><path d="m67.294 477.425-7.287 7.287-10.531-10.532a19.2 19.2 0 0 0-9.009-4.872l5.47-7.245 1.113-1.48a29 29 0 0 1 2.615 1.197 29.5 29.5 0 0 1 7.098 5.113zm-36.277-18.48-2.258 5.365-10.279 7.245-.031 8.883a19.3 19.3 0 0 0-1.555 7.602v.231l1.008 477.257h-10.3L6.594 490.97v-2.279c0-14.647 10.437-27.247 24.423-29.746"/><path fill="#0e5b57" d="M102.763 351.55a31 31 0 0 1-.902 1.901l-.82 1.48L67.41 434.89l-3.854-1.06-23.362-6.49-8.453-2.34 30.881-107.846.714-133.382c4.984-2.945 9.317 17.854 9.933 36.582-.263 13.335.714 26.47 3.98 37.191a144 144 0 0 0 3.496 10.08c2.289 13.556 8.883 28.001 14.007 46.807.021.094 2.29 7.272 2.311 7.366.977 3.56 1.53 6.357 2.6 9.822 2.006 6.489 4.426 10.186 6.789 15.888.388.945-4.098 3.12-3.689 4.044z"/><path fill="#a4abb3" d="M100.467 116.601h.002l-.002-.027z"/><path fill="#a4abb3" d="m148.344 118.125-46.746 12.6-.073.021c-.043-.493-.169-2.257-.305-4.053a.2.2 0 0 1 .052-.042v-.01a79 79 0 0 0 3.99-3.98c.4-.41.788-.819 1.155-1.239a2 2 0 0 0 .147-.157c.494-.536.966-1.082 1.45-1.628a90 90 0 0 0 2.037-2.457 64 64 0 0 0 1.648-2.12 63 63 0 0 0 1.585-2.164c-.294.116-.598.231-.892.347-4.148 1.722-7.455 2.887-11.917 3.465-.09.03-.354.077-1.04.147-3.948.504-11.676.462-15.34.063 0 0-6.238-8.81-15.54-27.867a99 99 0 0 1-4.19-9.503 152 152 0 0 1-2.037-5.533c-.105-.273-.2-.557-.294-.83a165 165 0 0 1-5.355-19.236l1.344-3.14c11.781 19.867 46.546 18.05 63.336 15.856 2.667-7.697 8.967-22.817 16.548-17.147a8.85 8.85 0 0 1 2.447 3.024c.409.83.703 1.722.84 2.646.073.441.115.893.157 1.355.672 8.095-4.505 19.456-7.119 24.685l6.195 16.233z"/><path fill="none" d="M147.262 42.903c0-.01-.01-.031-.01-.042h-.01z"/><path fill="#e0e2e5" d="M156.387 127.586a31 31 0 0 1-3.308-3.434c0 .032.011.053.011.074l-2.237-2.898-2.425-3.15-.042-.063-.042.01-7.917-20.664-6.195-16.233c2.614-5.229 7.791-16.59 7.119-24.685a18 18 0 0 0-.158-1.355 9 9 0 0 0-.84-2.646 8.85 8.85 0 0 0-2.446-3.024c-7.581-5.67-13.881 9.45-16.548 17.147-16.79 2.194-51.555 4.01-63.336-15.855l-1.344 3.14a165 165 0 0 0 5.355 19.235c.094.273.189.557.294.83.64 1.858 1.323 3.696 2.037 5.533a99 99 0 0 0 4.19 9.503c9.302 19.057 15.54 27.867 15.54 27.867 3.664.399 11.392.44 15.34-.063.336-.042.613-.063.886-.115l.1-.022c.148 1.701.316 3.812.473 5.66 0 .052.01.126.021.22 0 .053.011.105.011.158 0 .063.01.136.01.22.01.084.021.168.021.263 0 .01.01.031.01.052 0 .116.011.242.022.378.02.19.031.41.052.64.032.358.053.746.084 1.156.032.399.063.819.095 1.228.136 1.796.262 3.56.304 4.053l-3.622.977v8.526c-.032.01-.063.02-.095.02-18.427 3.529-37.18-4.252-47.712-19.781-10.52-15.53-10.794-35.837-.682-51.64-11.099-13.544-4.967-29.42 3.055-37.442.168-.032.084-.126.168-.242 2.037-11.098 8.39-21.598 23.436-26.67 36.645-12.253 55.377 1.596 67.274 28.844a58.7 58.7 0 0 1 3.906 9.523h-.01l.02.042c0-.01-.01-.031-.01-.042 18.08 6.07 30.702 22.47 31.91 41.507a46.88 46.88 0 0 1-22.775 43.218"/><path fill="#a1dfdb" d="m187.006 355.857-54.706-.768c-1.848-2.1-14.511-21.556-29.673-45.38-8.18-12.853-16.223-27.406-21.882-42.085a144 144 0 0 1-3.496-10.08c-3.266-10.72-4.243-23.856-3.98-37.19.178-9.136.945-18.344 1.963-26.933.263-2.184.536-4.326.82-6.416.23-1.648.461-3.276.703-4.861 2.656-17.661 5.848-30.534 5.848-30.534l.21-.158 15.089-11.077v-8.652l3.622-.977.074-.02 46.746-12.6.042-.011.042.063 2.425 3.15 2.237 2.898c.273 1.428 1.747 2.424 1.967 4.178.189 1.428.282 1.756.44 3.405.398 4.284 3.915 6.375 4.093 12.36.231 7.707 1.37 18.504 1.182 29.54-.252 15.602-1.493 39.704-2.659 63.277-1.28 25.935 3.877 45.995 13.884 69.945 5.89 13.955 10.893 34.362 15.009 48.926"/><path fill="#d1e4ff" d="m147.262 42.903-.02-.042h.01c0 .01.01.032.01.042"/><path fill="#18837e" d="m132.877 353.83-9.428 20.548-5.167.031c-5.785-4.179-10.962-12.463-15.519-22.858a113 113 0 0 1-1.197-2.814c-2.362-5.702-4.546-11.95-6.552-18.438a344 344 0 0 1-3.065-10.553c-.022-.094-.053-.189-.074-.283-5.124-18.806-8.841-38.283-11.13-51.839 5.66 14.68 13.702 29.232 21.882 42.084 15.162 23.825 30.25 44.121 30.25 44.121z"/><path fill="#116864" d="M82.562 151.557c-8.222 7.57-22.47 18.312-21.42 23.562.21 1.04 1.018 4.21 2.194 8.652 2.457 9.272 6.5 24.077 9.933 36.582.178-9.135.945-18.343 1.963-26.932.263-2.184.536-4.326.82-6.416.23-1.648.461-3.276.703-4.861 2.656-17.661 5.848-30.534 5.848-30.534l.21-.158z"/><path fill="#a1dfdb" d="M194.407 805.382c-3.255 45.16-23.809 116.655-23.966 116.855l-.464.434-17.118-.211.084-.305c-.094 0-5.922-56.556-12.296-116.773l-1.756-2.314 55.92.303zm126.395 116.653.634 1.04-19.481.537-.112-1.386-29.788-116.844-3.063-2.996 50.844.985-1.077 2.01c-.105 29.936.531 67.608 2.043 116.654"/><path fill="#0e5b57" d="m170.435 922.208-17.492-.053-86.002 29.675.2.294a36.86 36.86 0 0 0 28.405 13.373h83.729l-8.746-42.794zm187.384 27.736-37.017-27.91-.469.005.001.022-18.094.188h-.388l-.007-.028h-.06l-3.33 43.316h51.206a9.896 9.896 0 0 0 9.924-9.896 9.75 9.75 0 0 0-1.766-5.697"/><path fill="#007bc0" d="m302.24 922.249 18.094-.188v-.022l-18.489.182.007.028z"/><path fill="#003253" d="m184.254 353.787-21.588.021v-.042l21.567-.031c.01.01.01.031.021.052"/><path fill="#2e3033" d="M184.254 353.787c1.88 6.668 23.855.354 23.949.784 11.56 2.184 4.884 19.89 17.956 15.67-4.157 4.22 28.164-.36 28.164-.36l7.379-.312c38.115 54.054 50.064 143.65 50.064 143.65s20.57 116.372 27.458 292.163H75.926l15.33-191.898 9.208-128.415 11.55-85.796 11.435-24.895 9.428-20.549"/><path fill="#003253" d="M162.666 353.766v.042h-.273v-.042"/><path fill="#18837e" d="M284.672 358.622c-3.812.42-14.97.968-18.571 1.672.535-.977 2.3-4.228 2.909-5.33 0 0 6.69-9.957 10.103-16.436.588 3.78 3.839 16.04 5.559 20.094m-40.285-31.505c-1.942 7.067-3.811 14.06-5.712 20.99l2.688.609c-.44 1.648-.871 3.276-1.312 4.893v.02a2 2 0 0 0-.032.116c-.157.578-.315 1.166-.472 1.733-.399 1.375-7.403 8.683-13.388 14.763-13.072 4.22-24.969 7.182-36.529 4.998-.094-.43-.21-.861-.305-1.292a358 358 0 0 0-5.071-20.16c-.01-.02-.01-.042-.021-.052l-.032-.126c-4.115-14.564-9.103-28.865-14.994-42.82-10.006-23.95-17.262-49.57-15.98-75.505 1.165-23.572 1.847-42.756 2.1-58.359.188-11.035.147-20.286-.085-27.993-.178-5.985-.472-11.035-.871-15.32a128 128 0 0 0-.525-4.62 75 75 0 0 0-.756-4.766c0-.021-.01-.042-.01-.074a31 31 0 0 0 3.307 3.434c12.789 11.518 37.296 17.587 43.491 18.984.052.01.105.031.158.042-1.345-.116 7.657 2.963 6.365 2.974-2.414.031-8.425 2.507-10.514 3.263-11.477 4.137-10.99 8.66-4.532 20.304 6.814 12.296 5.96 12.675 20.304 22.66.756.526 24.784 7.463 25.56 7.977 10.228 6.7 12.69 12.69 10.108 24.417 5.072 14.49 9.891 30.104 14.217 46.116-7.181 17.903-12.39 35.532-17.156 52.794z"/><path fill="#0096e8" d="m348.646 207.258-.22-.094-.016.038c.079.02.157.035.236.056"/><path fill="#116864" d="M336.231 201.947c-1.26-.273-1.457 3.461-2.749 3.293l-2.9.182c-21.767-2.678-31.42 9.502-45.322 32.812-10.563-2.646-27.359-6.394-37.933-10.027-12.715-4.368-24.843-9.67-35.07-16.37-.777-.514-1.575-1.007-2.33-1.532-14.344-9.986-24.665-20.59-31.48-32.886-6.457-11.645-.608-25.62 10.868-29.757a20.6 20.6 0 0 1 6.762-1.218c1.291-.01 2.614.052 3.959.168 6.037.504 12.547 2.278 19.498 5.365z"/><path fill="#0096e8" d="m348.685 207.267-.04-.009.027.011.013-.001z"/><path fill="#71767c" d="M253.88 396.606s-6.542 19.068-13.42 21.945c-6.867 2.898-36.529 7.896-36.529 7.896l13.692-47.617.01-.053.074-.073 36.141 17.881zm-36.173-17.902-.074.073.032-.094.042.02z"/><path fill="#a4abb3" d="m217.633 378.777-.01.053-.021-.021zm51.377-23.814c-.609 1.103-1.176 2.153-1.711 3.13-3.056 5.617-4.852 8.903-4.852 8.903l-.745 2.573-.64 2.194-7.214 24.822-36.141-17.881c.63-.62 4.294-4.242 8.452-8.463 5.985-6.08 12.989-13.388 13.388-14.763.157-.567.315-1.155.472-1.733.011-.042.021-.084.032-.115v-.021c.441-1.617.871-3.245 1.313-4.893l.117-1.528 10.272 2.145 17.589 4.218z"/><path fill="#56b0ff" d="M348.421 207.165c0 .01-.01.021-.01.032h-.042c.01-.021.01-.032.021-.053z"/><path fill="#0e5b57" d="M348.39 207.144c-.01.021-.01.032-.021.053h.042c-4.085 9.555-54.716 105.83-71.631 137.928-3.413 6.478-5.46 10.353-5.46 10.353l-2.31-.515-17.986-4.063-9.66-2.184-2.688-.61c1.9-6.93 3.769-13.922 5.712-20.989 4.766-17.262 9.975-34.891 17.156-52.794 4.337-10.815 9.387-21.714 15.488-32.697a154 154 0 0 1 2.394-4.147c13.902-23.31 31.174-38.83 52.941-36.152l.032-.052c1.291.168 2.572.399 3.832.672a49 49 0 0 1 12.443 4.462c.041.021-.053.294-.253.756l-.031-.02z"/></svg>