<svg xmlns="http://www.w3.org/2000/svg" viewBox="0 0 303 727"><g fill="none" fill-rule="evenodd" transform="translate(.549 .041)"><path fill="#D0D4D8" fill-rule="nonzero" d="m167.452 498.839-19.18 193.66c-1.69.46-12.42 3.09-13.16-.08-11.9-46.91-28.37-103-6.54-187.64 2-7.64 2.5-16.59 2-26.54 13.89-.92 26.53-2.39 37.7-4.16l-.8 24.76z"/><path fill="#71767C" fill-rule="nonzero" d="M148.272 692.499v-.08l.22-.07z"/><path fill="#C1C7CC" fill-rule="nonzero" d="m87.192 505.089-45.56 187.41s-13.23 1.62-13.15-.15c4.63-156.35-8.24-158.35 20.87-215.5 15 1.39 29.47 2.16 43.28 2.32-3.38 15.74-5.44 25.92-5.44 25.92"/><path fill="#43464A" fill-rule="nonzero" d="m78.963 265.897 82.9.582 7.5 15.82c.51 3.39 6.32 36.49 6.24 40 0 0 13.31 147.68 12.94 147.83-6 1.47-12.86 2.78-20.36 4-11.17 1.77-23.88 3.24-37.7 4.16-11.83.77-24.55 1.16-37.92 1-13.82-.15-28.29-.84-43.29-2.31-12.42-1.16-25.2-2.85-38.21-5-.66-.3 20.86-170.122 67.9-206.082"/><path fill="#551151" d="m134.782 692.259-6.39 32.48h59.75a25.64 25.64 0 0 0 20.21-10l.14-.23-58.06-22.22zm-93.11.16 2.33 32.86h-36.8a7.39 7.39 0 0 1-7.2-7.56 7.5 7.5 0 0 1 1.32-4.32l26.68-21.14z"/><path fill="#D0D4D8" fill-rule="nonzero" d="m278.582 303.719 9.9 15.42 8.41-28.06-17.5-8.25"/><circle cx="262.842" cy="209.959" r="10.73" fill="#C1C7CC" fill-rule="nonzero"/><path fill="#340731" fill-rule="nonzero" d="m162.862 118.079 17.79 6.18c12.199 3.351 20.46 14.691 19.91 27.33 0 0-3.24 112.72-2.95 112.88l29.52 81.15-26.13 10.55s-35.9-71.17-39.52-96.17c-24.86-87.77 1.38-141.95 1.38-141.95z"/><path fill="#71767C" fill-rule="nonzero" d="M171.162 87.459c-.42 2.7-.88 5.54-1.36 8.46a64.3 64.3 0 0 1-9.13-12.19 38 38 0 0 0 10.49 3.73"/><path fill="#C1C7CC" fill-rule="nonzero" d="M168.492 105.079c-1.14 7.68-2 13.62-2 13.62l-41.39-11.09 17.39-36.8 5.5-11.7c-1.75-4.27-5.28-13.81-3.75-19.79a6.3 6.3 0 0 1 2.76-4.06c6-3.8 9.88 7.71 11.35 13.58 12.33 2.55 38.17 5.77 48.05-8.4l.83 2.46a131.5 131.5 0 0 1-7.33 18.94 74 74 0 0 1-3.66 6.86c-7.93 13.7-13.08 19.85-13.08 19.85a50.5 50.5 0 0 1-12.12-1 36.8 36.8 0 0 1-10.4-3.78 64.3 64.3 0 0 0 9.13 12.19c-.45 3.18-.89 6.25-1.28 9.12"/><path fill="#340731" fill-rule="nonzero" d="M144.002 22.569c10.33-19.66 25.07-28.95 51.58-17.74 10.87 4.59 15 12.7 15.94 21.16l.1.18c5.7 6.55 9.34 19.09-.3 28.68a35.17 35.17 0 0 1-39.79 51.15c-1.07-.29-2-.63-3.09-1 .39-2.87.83-5.94 1.29-9.09.46-2.84.94-5.76 1.36-8.46a51.3 51.3 0 0 0 12.12 1s5.17-6.22 13.08-19.85c1.31-2.32 2.54-4.65 3.66-6.86a122 122 0 0 0 7.25-18.83l-.79-2.42c-9.88 14.17-35.71 10.9-48 8.36-1.54-5.89-5.43-17.51-11.32-13.69a6.6 6.6 0 0 0-2.76 4.06c-1.53 6 1.93 15.5 3.74 19.79l-5.56 11.68c-10.15-32.24-.17-45.09 1.49-48.15z"/><path fill="#791D73" fill-rule="nonzero" d="M165.302 266.449c6.84-13.34 17.67-38.12 23.31-50.94 7.12-16.18 6.32-28.6 4.62-41.06-4.62-33.7-6.7-47.8-6.7-47.8l-14.53-11.05-.93-10.75-39.76-10.65-6.6 8.73s-22.57 1.33-23.57 1.37l-6.8 162.18z"/><path fill="#340731" fill-rule="nonzero" d="M101.142 104.299c-13.7.2-26.16 9.07-26.42 30.6v1.28c0 .8 0 1.61.07 2.44 0 0 13.51 63.07 3.73 127.79h16.54z"/><path fill="#551151" fill-rule="nonzero" d="M70.262 235.769c-16.56-110.2 5.65-137.94 30.88-131.47 1.11 14.4 3.11 134.88 3.11 134.88-8.18-6.98-33.99-3.41-33.99-3.41"/><path fill="#C1C7CC" fill-rule="nonzero" d="m163.532 212.949 2.23-14.28-1.76.66-5.17-13.79 38.91-14.6 5.17 13.79-1.77.66 11.08 9.29 14.85 39.57-48.69 18.27z"/><path fill="#8A9097" fill-rule="nonzero" d="M230.302 237.759a5.77 5.77 0 0 0 4.25 5l.3.07a5.71 5.71 0 0 0 6.66-3.12l20.65-44a5.77 5.77 0 0 0-3.73-8l-1.52-.4 8.77-12.6a1.47 1.47 0 0 0-.38-2l-2-1.32a1.7 1.7 0 0 0-.43-.19 1.45 1.45 0 0 0-1.51.5l-7.66 9.74 4.15-15.9a1.46 1.46 0 0 0-1-1.76l-2.22-.59a1.48 1.48 0 0 0-1.76 1l-4.15 15.9-1.86-12.29a1.43 1.43 0 0 0-1.52-1.22l-2.35.17a1.48 1.48 0 0 0-1.33 1.59l1.57 15.28-2.06-.54a5.7 5.7 0 0 0-4.8.88 5.83 5.83 0 0 0-2.27 3.4z"/><path fill="#E0E2E5" fill-rule="nonzero" d="M203.622 199.269c0-10 8.63-10 8.63-19.91l.59-16.14h-1.06a.89.89 0 0 1-.79-.88v-6.45a1.9 1.9 0 0 1 1.57-1.87q.17-.015.34 0h11.42a2 2 0 0 1 .35 0 1.9 1.9 0 0 1 1.56 1.87v6.51a.89.89 0 0 1-.88.79h-1l.59 16.14c0 9.86 8.6 9.92 8.6 19.9v48.83h-29.92z"/><path fill="#C1C7CC" fill-rule="nonzero" d="M218.122 223.319a17.18 17.18 0 0 1 16.55-11.94h-1.67a10.34 10.34 0 0 1-10.38-10.38h3.45a10.33 10.33 0 0 1 10 7.37c1.58-3.81 4.8-7.36 10.75-7.36v3.45c-5.55 0-7.52 4.3-8.22 7.32a17.2 17.2 0 0 1 5.65 31.23h-19.06a17.2 17.2 0 0 1-7.07-19.69"/><path fill="#8A9097" fill-rule="nonzero" d="M292.322 225.919a8.69 8.69 0 0 0-4.54-15.56 7.3 7.3 0 0 0 .42-1.45 8.705 8.705 0 1 0-17-3.76c0 .17-.07.33-.1.5a8.5 8.5 0 0 0-.14 1.51 7 7 0 0 0-.85-.21 8.67 8.67 0 0 0-9.07 13 8.53 8.53 0 0 0-5 .73h-.06a6 6 0 0 0-.72.39l-.25.15-.45.32a8 8 0 0 0-1.06.9 8.66 8.66 0 0 0 4.65 14.56l30.72 5.86a8.673 8.673 0 1 0 3.45-17z"/><path fill="#E0E2E5" fill-rule="nonzero" d="M242.372 218.999c-5.91 11.57-3.31 24.77 5.75 29.92l21.88-42.83c-9.51-4.32-21.73 1.32-27.63 12.91"/><path fill="#E0E2E5" fill-rule="nonzero" d="M248.742 249.229c9.56 4.88 22.21-.75 28.25-12.58s3.19-25.38-6.38-30.26c-.21-.11-.42-.2-.64-.3l-21.85 42.8z"/><path fill="#8A9097" fill-rule="nonzero" d="m190.282 368.119-61.96-16.97 6.65-43.36 30.29-57.91.06-31.78 61.96 16.97-13.38 32.89-1.61 39.09-17.48 32.7z"/><path fill="#C1C7CC" fill-rule="nonzero" d="M70.692 235.999c9.15-12.75 19.38-17.58 29.9-15.76 22.06 3.78 70.78 56.45 70.78 56.45l35.31 16.52-16.82 21.75-16.33-14.68zm156.59-.93 73.62 2.67-14.9 33.44-2.25 39.16-22.54 56-71 1.8 4.53-28.36 17.48-32.71s.58-36.55 1.61-39.09z"/><path fill="#D0D4D8" fill-rule="nonzero" d="M231.902 300.439c-10.05 28.69-42 14.42-42 14.42l16.82-21.75z"/><path fill="#C1C7CC" fill-rule="nonzero" d="m215.702 279.309 2.89 6-20.2 6.55-18.39-10.58z"/><path fill="#340731" fill-rule="nonzero" d="m70.262 235.769.1-.11c9.15-12.75 19.39-17.58 29.9-15.76 22.07 3.78 83.74 57.1 83.74 57.1l-2.48 4.21-10.39 17.41-4 6.83s-88.37-63.2-96.3-69.24v-.05a5 5 0 0 1-.51-.42z"/><path fill="#D0D4D8" d="m296.892 291.079-31.89-4.74c-2.06 6.35.2 16.39 5.37 21.23l18.15 11.57z"/></g></svg>