<svg xmlns="http://www.w3.org/2000/svg" viewBox="0 0 351.2 990.5"><path fill="#8a9097" d="M168.5 116.2c-3.9-2.5-16.5-.1-16.7 2-.4 3.8-.8 7.9-1.1 11.9 6.6.3 16.2-4.8 17.8-13.9"/><path fill="#a4abb3" d="M147.1 161h58.3l-9.9-54.5-3.1-17.3c3.8-5 11.8-16.3 11.8-24.7.1-2.3-.6-4.6-2.2-6.3-6.5-7.1-15.6 6.7-19.7 14-17.1-1-52.1-5.9-60.1-28l-2 3c.3 9.2 1.2 18.3 2.9 27.3.6 3.4 1.4 6.8 2.3 10.3 5.6 20.8 10.2 30.7 10.2 30.7 5.3 1.6 10.7 2.6 16.2 2.9 5.1.3 10.2-.1 15.2-1.3-4.9 5-10.5 9.4-16.5 13.1-1.6 15.9-3.4 30.8-3.4 30.8"/><path fill="#340731" d="m235.4 180.8-23.1-130c-.4-2.8-1-5.6-1.8-8.3C203.8 13 187.7-4.4 148.9 1c-15.9 2.2-24.2 11.4-28.4 22.2l-.2.2c-11 7.5-21.3 25.7-5.3 43.9l-1.9 113.5zM201.9 58.3c1.5 1.7 2.3 4 2.2 6.3-.1 8.4-8 19.7-11.8 24.7l3.1 17.3 9.9 54.5H147s1.8-14.9 3.7-30.7c.4-4 .8-8.2 1.2-12-5.5-.3-11.1-1.3-16.3-2.9 0 0-4.5-9.8-10.1-30.5-.9-3.5-1.7-7-2.3-10.3-1.7-9-2.7-18.2-2.9-27.3l1.9-2.9c8 22.1 43.1 26.8 60.2 27.9 3.8-7.3 13-21.2 19.5-14.1"/><path fill="#979ea4" d="M128.4 368.7h60.9c-.1-.6-91.4 0-91.4 0L87.8 390c-.7 4.7-5.2 49.5-5.1 54.2L91 683.7s27.8 262.6 27.8 262.7h17.6s41.1-139.9 10-254.6c-9.9-36.6 6-96.4 21.7-158.2-9.4-36.1-19.1-69.6-27.1-89-12.7-31-12.6-75.9-12.6-75.9"/><path fill="#979ea4" d="M289.5 945.7c-7-226.7 14-213.6-39.6-308.8-6.6-11.7-7.4-28.8-6.8-49.3 3-114.3 22.4-154.5-27-218.8h-87.6s-.1 44.9 12.6 75.8c8 19.5 17.7 52.9 27.1 89 19.2 73.8 37.3 158.7 37.3 158.7l64.8 254.2z"/><path fill="#340731" d="m118.8 946.5-87.3 30.1.2.3c7.1 8.6 17.6 13.6 28.8 13.6h84.9l-8.9-43.5-.1-.5zm208.7 27.9-38-28.7-19.3.8-3.4 44H319c5.7 0 10.3-4.6 10.3-10.3 0-2.1-.6-4.1-1.8-5.8"/><path fill="#9e2896" d="M120.4 156.5c-15.1 3.4-27.2 15.5-29.5 30.8L88.3 215c23.1-35.5 32.1-58.5 32.1-58.5m118.1 217.4-1-3.8 26.1-162.8c.1-.8.2-1.5.3-2.3l.1-.8c0-.5.1-1 .1-1.5 0-.3 0-.6.1-.9 0-.4.1-.9.1-1.3v-7.2c0-.4 0-.8-.1-1.1l-.1-.9c0-.4-.1-.8-.1-1.1s-.1-.6-.1-.9-.1-.7-.1-1.1c-.1-.4-.1-.6-.1-.9s-.1-.7-.2-1-.1-.6-.2-.9-.1-.7-.2-1-.1-.6-.2-.8c-.1-.3-.2-.7-.3-1s-.1-.5-.2-.8-.2-.7-.3-1-.2-.5-.2-.8-.2-.7-.4-1l-.3-.7c-.1-.4-.3-.8-.4-1.1-.1-.2-.2-.4-.2-.6-.2-.4-.4-.9-.6-1.3l-.1-.3c-.3-.5-.6-1-.8-1.6l-.3-.4c-.2-.4-.4-.8-.7-1.1-.1-.2-.3-.4-.4-.6s-.4-.6-.6-.9l-.4-.6c-.2-.3-.4-.6-.6-.8-.2-.3-.3-.4-.5-.6s-.4-.5-.7-.8c-.2-.3-.4-.4-.5-.6l-.7-.7-.6-.6-.8-.7-.6-.5c-.3-.2-.5-.4-.8-.6l-.7-.5-.8-.6-.7-.5-.9-.6-.8-.4c-.3-.2-.6-.4-.9-.5l-.8-.4-1-.5-.8-.4c-.3-.2-.7-.3-1.1-.5l-.8-.3-1.2-.4-1.3-.4-44.9 215.4z"/><path fill="#a4abb3" d="m219 148.9-17.2-6.8-52.8 2.8-22.7 9.6 30.7 14 36.7-8 13.8-6.9z"/><g fill="#979ea4"><path d="M91 323.6c-.4.1-1 .3-1.4.4L30.2 476.6 0 524.5l10 3.1c6.6 2 13.8 1.1 19.6-2.8 6.8-4.4 15.1-10.3 16.8-13.2 12.8-21.6 15.4-48.4 15.4-48.4l60.6-94 1.1-1.5c2.9-4.2 4.6-9 4.9-14.1 1.3-18.8-16.6-36.4-37.4-30"/><path d="m0 489.2 2.7 8.6 29.8-13.4 7.4-32.5z"/></g><path fill="#e552da" d="m198.4 370.1 41.1-212.3v-.6c-1.3-.4-21.2-8.6-21.2-8.6s-53.6 13.9-64.5 13.4c-12.4-.5-27.8-8.1-27.8-8.1l-6.7 2.8s-9 22.9-32.1 58.4l-.7 1.1c-10.4 13.6-14.8 27.7-8.4 55.6 2.1 9.2 4.3 18.9 6.5 28.5 6.4 29 3.5 69.2 3.5 69.2l-1 2.2 110.6 1.3z"/><path fill="none" stroke="#440c41" stroke-miterlimit="10" stroke-width="6" d="M227.9 152.5c-3.3 8-51 18.9-59.9 24.9-22.4 15-49.8 88.2-51.1 108"/><path fill="#8b2284" d="m237.5 370.1-149.3-.7-11.7 25c-.9 5.6-11 59.8-10.8 65.5 0 0-23.1 422.4-22.4 422.7 10.5 2.4 22.3 4.6 35.3 6.6 19.4 2.9 41.4 5.3 65.4 6.8 20.5 1.3 42.6 1.9 65.8 1.6 24-.3 49.1-1.4 75.1-3.8 21.6-1.9 43.7-4.7 66.3-8.2 1.1-.4-56.1-388.4-113.7-515.5"/><path fill="#979ea4" d="M225.3 540.1c38.3 15.6 52.5-29.9 52.5-29.9l-37.3-2.4z"/><path fill="#a4abb3" d="m218.3 504.7 3.5 8.3 24.9-14.7 5.9-28.3z"/><path fill="#a4abb3" d="M304.8 318.7c.1-.5 0-.8-.1-.8h-.2c-21.3-2.1-35.4 4-43 16.3-16 25.9-6.1 123-6.1 123l-14.9 50.9 37.3 2.4-.3-29.9c.1.1 26.3-148.3 27.3-161.9"/><path fill="none" stroke="#440c41" stroke-miterlimit="10" stroke-width="5" d="M122 155.4c2.2 5.4 6.8 13.1 9.6 21.3 6.8 19.3-19.8 81.6-14.8 108.7"/><path fill="#440c41" d="m119.577 276.775 6.573-3.176 3.175 6.573-6.573 3.176zm-13.82.884 5.151-5.172 5.172 5.151-5.151 5.172zm17.728-12.789 6.573-3.176 3.175 6.573-6.573 3.175zm-17.701-.189 5.605-4.677 4.678 5.605-5.605 4.677zm21.284-11.941 6.572-3.176 3.176 6.573-6.573 3.175zm-19.612-.452 5.889-4.314 4.314 5.889-5.889 4.314z"/><path fill="#c535bc" d="M308 323.5 270.1 190c-6.1-21.8-14.9-26.9-35.4-34.7-13.1 17.6-18.7 38.6-16.6 64.9 3.4 41 28.1 140.8 28.1 140.8 19.8-8 49.9-16.7 61.8-37.5"/><path fill="#440c41" d="m131.37 239.946 6.573-3.175 3.176 6.573-6.573 3.175z"/><g fill="#440c41"><path d="m248.327 354.4 3.112-6.604 6.604 3.112-3.112 6.603z"/><path d="m246.1 361.1-1.8-8.2 4.1 1.4zm11.67-10.112 2.875-6.71 6.71 2.875-2.876 6.71z"/><path d="m267.257 347.294 2.61-6.818 6.817 2.609-2.609 6.818z"/><path d="m276.43 343.084 2.31-6.925 6.925 2.309-2.31 6.925z"/><path d="m285.547 338.626.995-7.232 7.232.994-.994 7.232z"/><path d="m293.481 332.624.346-7.292 7.292.346-.346 7.292z"/><path d="M307.3 324.8c-.3.4-.8 1.3-.8 1.3l-5.4-.3.3-7.3 5.3.3 1.3 4.7s-.6 1-.7 1.3"/></g><path fill="#440c41" d="m110.051 240.196 6.004-4.153 4.153 6.004-6.004 4.153zm1.363 46.384 5.71-4.549 4.548 5.71-5.71 4.548zm25.465-59.81 6.96-2.203 2.202 6.96-6.96 2.202zm-20.996-10.056 6.39-3.53 3.53 6.39-6.39 3.53zm-2.847 11.275 6.254-3.766 3.765 6.254-6.254 3.766zm29.849-13.413 6.96-2.203 2.202 6.96-6.96 2.202zm-22.531-20.564 5.917-4.276 4.276 5.918-5.917 4.275zm.756-11.367 5.157-5.167 5.166 5.158-5.157 5.166zm-2.624 23.489 5.986-4.179 4.178 5.986-5.986 4.179zm30.088-2.744 7.122-1.6 1.601 7.12-7.121 1.603zm7.283-10.635 7.266-.704.703 7.266-7.266.703zm7.603-9.598 7.265-.703.703 7.266-7.265.703zM118 172.294l3.387-6.467 6.467 3.387-3.387 6.467zm54.908 8.722 2.648-6.803 6.803 2.648-2.648 6.803zm12.11-5.444 3.65-6.322 6.322 3.65-3.65 6.322zm12.658-3.31 3.392-6.464 6.464 3.391-3.392 6.464zm11.944-3.989 2.255-6.943 6.943 2.254-2.255 6.943zm11.98-5.473 3-6.7 7.1 3.5-3.6 6.1z"/></svg>