<svg xmlns="http://www.w3.org/2000/svg" viewBox="0 0 774.061 1881.954"><path fill="#147671" d="M360.076 1370.882h-104.17v-412.76h104.17z"/><path fill="#053634" d="M302.014 1024.628c17.614-67.784 35.797-130.645 50.949-167.187 23.864-57.938 23.675-142.194 23.675-142.194h57.198l18.372 38.814.568 1.137c.758 4.923 3.788 35.027 6.25 61.156 1.894 19.313 3.22 36.732 3.22 40.519l-12.88 368.265-2.84 81.226-9.28 88.99-25.38 244.058h-107.39c-13.637-87.096 3.41-189.718 38.07-317.9 18.75-68.731-11.175-181.01-40.532-296.885z"/><path fill="#07423f" d="M78.361 1641.034c.947-172.867-5.871-234.78 13.069-299.534 1.515-5.491 3.41-10.793 5.303-16.473 1.705-4.544 3.41-9.277 5.304-14.01l.568-2.84s4.735-9.657 7.197-14.77v-.189l1.137-2.84v-.19c1.894-4.165 3.977-8.33 6.06-12.496l1.516-3.03.189-.378 1.515-3.03s.19-.19.19-.379c2.272-4.354 4.545-8.898 7.007-13.443l.19-.378 1.515-3.03.379-.757 1.515-2.84c.19-.19.19-.568.379-.757l1.515-3.03.379-.568 3.977-7.195.379-.757c.568-.947.947-1.894 1.515-2.84l.758-1.515 1.136-2.272.947-1.704 1.136-2.083.947-1.893 1.137-1.894 1.136-1.893.758-1.515 1.325-2.272c1.137-1.893 2.084-3.976 3.03-6.059 9.47-21.584 10.796-51.5 9.85-86.339-3.789-153.365-23.676-235.727-.569-314.113 9.091-31.241 25-61.914 51.517-96.753h164.399c0 .379.19 84.635-23.675 142.573-14.963 36.542-33.145 99.213-50.949 166.997-8.901 33.702-17.424 68.54-25.569 102.243-25 104.326-44.509 195.588-44.509 195.588l-50.001 315.25-30.683 1.514z"/><path fill="#979ea4" d="M361.508 1799.21c-12.85-48.167-28.702-100.988-37.96-159.733h88.24l-17.325 159.733zm-285.854-1.254c1.887-61.694 2.33-112.208 2.707-156.922l72.972-1.934-40.576 159.422h-.755z"/><path fill="#a1dfdb" d="m394.463 1799.21 163.641 56.613-.378.568c-13.258 16.094-33.145 25.371-53.98 25.371H344.463l16.856-81.605.19-.947zM3.41 1851.848l71.403-53.772h1.704l34.66.379 6.44 83.499H19.32c-10.607 0-19.319-8.71-19.319-19.313 0-3.787 1.136-7.573 3.41-10.792z"/><path fill="#032b28" d="M116.664 277.719c.758-14.58 3.22-29.348 8.713-42.601 11.743-27.644 30.872-51.311 53.6-66.08 19.319-12.875 32.577-33.134 36.553-55.855 2.084-11.739 4.356-23.857 6.25-32.756 12.69-55.855 43.183-88.8 116.86-78.576 30.304 4.166 46.024 21.774 53.98 42.034 0 .189.189.189.189.378 21.78 14.769 41.857 51.5 6.061 87.475v53.583c.19.568.38 1.136.757 1.704 7.576 17.798 20.267 47.524 20.267 65.89 0 35.975-12.69 61.536-21.024 74.41v67.405l-289.592-5.112s-13.068-11.17-20.455-39.193c-5.682-22.152-3.598-44.116 27.842-72.706zm274.077-194.75c-15.531 42.98-85.813 49.526-117.064 50.284-2.084-4.734-19.704-39.995-34.468-24.012-13.258 14.579 9.091 46.577 18.372 58.695l-25.193 135.912h110.61s-3.41-28.401-7.01-58.317c-.756-7.573-1.784-14.95-2.542-22.146 10.417-.568 21.104-2.468 31.142-5.497 0 0 8.712-18.934 19.319-58.127 6.06-23.29 9.47-47.335 10.038-71.381l-3.216-5.457z"/><path fill="#7d8389" d="M305.225 220.851c9.47 2.272 19.13 3.219 28.789 2.462.757 7.195 1.599 14.679 2.357 22.252-11.883-6.685-21.865-15.436-31.145-24.714z"/><path fill="#a4abb3" d="M364.97 217.922c-10.037 3.029-20.266 4.922-30.871 5.49-9.66.569-19.32-.189-28.79-2.461 9.281 9.467 19.698 17.609 31.062 24.614a5299 5299 0 0 0 7.008 58.317l-112.27-1.202 26.472-134.744c-9.28-12.118-31.63-44.116-18.372-58.695 15.342-16.662 32.766 19.502 35.04 24.046 31.44-.758 100.949-7.574 116.48-50.364l3.599 5.49c-.758 24.046-3.978 48.093-10.038 71.381-10.607 39.193-19.32 58.127-19.32 58.127z"/><path fill="#979ea4" d="m659.298 476.748 71.972-30.294 10.984 60.02-65.91 14.958c-132.77 98.268-313.232 130.842-303.762 26.706-.947-1.894 286.716-71.39 286.716-71.39"/><path fill="#b6ede8" d="M395.834 311.066c28.6 6.437 51.517 29.347 55.873 58.316l4.924 52.447c-43.751-67.215-60.797-110.763-60.797-110.763"/><path fill="#00639b" d="m203.222 682.182-78.6-275.11c-2.278-9.03-17.342-71.583 45.141-93.233l96.34 368.343h-62.88z"/><path fill="#66b8b2" d="M441.677 682.182H266.103l-96.594-368.455v-.378c2.462-.758 57.767-19.124 57.767-19.124l10.606-26.128h106.064l9.66 26.128 36.553 14.958 7.009 2.84s17.046 43.738 60.797 110.764l1.326 2.083c19.698 25.75 28.031 52.636 15.91 105.272-3.978 17.42-8.144 35.785-12.311 54.151-12.122 54.72-21.213 97.889-21.213 97.889"/><path fill="#02201e" d="M203.222 682.182h238.455l-7.196 33.134H212.314z"/><path fill="#def5f3" d="M236.311 271.747c-8.065 9.587-24.28 18.239-44.704 29.412-14.953 8.18-26.516 9.467-35.986 15.147l11.364 416.547a11035 11035 0 0 0-104.17 677.835H273.05c-4.536-149.929-10.503-239.306-10.898-353.192-.189-54.321.402-124.935 5.216-216.72 7.076-134.917 20.582-300.144 34.092-391.932-21.465-76.998-43.682-100.1-65.148-177.097zm227.935 158.119c13.258 20.827 22.728 35.974 13.258 88.989l-15.152 212.06 11.364 140.111c.252 28.78-.567 497.612-.314 526.392-69.25-.256-10.298.257-79.548 0-8.783-126.6 50.765-551.263 41.982-677.863l5.682-280.222-83.336-130.645c-3.788-11.36-10.448-29.231-14.236-40.591 12.627 9.466 40.631 33.9 53.258 43.367 27.043 41.469 39.999 76.932 67.042 118.402"/><path fill="#b6ede8" fill-rule="evenodd" d="M169.924 309.57c-34.281 5.491-58.372 22.713-68.789 64.367L39.77 577.287l130.307-48.66s21.401-37.678 25.379-99.592c1.894-29.537.416-86.71-25.532-119.465"/><path fill="#979ea4" d="m355.121 447.969 47.16-33.703 31.062 69.299c-12.121 1.514-53.979 7.384-57.577 9.277-21.002 6.973-86.52 43.935-97.884 55.296-12.402 12.398-12.306-43.72-24.622-56.802z"/><path fill="#4e5256" d="m442.624 581.264 113.072-230.426c2.274-5.112 7.387-8.52 13.069-8.71h190.347c11.364 0 18.56 13.822 13.068 25.182L659.108 597.736c-2.273 5.112-7.386 8.52-13.068 8.71H455.693c-11.364 0-18.56-13.822-13.069-25.182"/><path fill="#a4abb3" fill-rule="evenodd" d="m756.838 422.03-78.98 2.65c-2.273 16.094 6.44 39.95 22.35 48.66l42.046 33.135 14.584-84.446z"/><path fill="#7d8389" d="M494.28 429.224s-1.136 5.491-3.03 12.686c-.757 2.65-18.182 7.763-19.13 10.603-1.704 6.248-3.977 12.307-6.439 18.176-6.06 13.065-32.387 12.876-32.387 12.876l-31.062-69.299z"/><path fill="#a4abb3" d="M606.304 342.061H718.05l-11.364-7.573h-94.7z"/><path fill="#b6ede8" d="M330.914 525.417C170.87 610.81 114.998 688.25 39.874 576.185l264.524-111.357z"/></svg>