<svg xmlns="http://www.w3.org/2000/svg" data-name="Ebene 1" viewBox="0 0 1794.094 1406.712"><path fill="#71767c" d="M955.714 257.51a95.3 95.3 0 0 0 27.59 2.448c.735 6.292 1.445 13.318 2.155 20.149l-2.228-.588a146.6 146.6 0 0 1-27.517-22.034z"/><path fill="#c1c7cc" d="M985.435 280.033a11220 11220 0 0 0 6.487 54.35H890.08l17.284-95.185 5.386-30.21c-6.66-8.643-20.687-28.448-20.687-43.015a15.52 15.52 0 0 1 3.77-10.968 8.8 8.8 0 0 1 3.256-2.448c5.386-2.693 11.335 1.077 16.892 6.83a103.2 103.2 0 0 1 14.224 20.149c29.868-1.787 88.087-11.281 105.075-48.743l3.403 5.043a326 326 0 0 1-4.896 47.666c-1.077 5.949-2.448 11.873-4.137 17.994-9.793 36.33-17.823 53.615-17.823 53.615a115.8 115.8 0 0 1-28.423 5.043 91.1 91.1 0 0 1-26.93-2.448 138 138 0 0 0 27.517 21.764l1.445.563z" data-name="Path"/><path fill="#2e908b" d="M856.612 81.242c-.13-41.967 31.82-77.08 73.612-80.902 41.793-3.82 79.58 24.918 87.061 66.213a59.7 59.7 0 0 1 20.859 27.885l.196.367c20.197 13.416 38.68 47.42 5.508 80.52l-10.184 8.201a303.6 303.6 0 0 0 4.896-47.666l-3.403-5.043c-14.028 38.485-75.208 46.956-105.075 48.743a103.2 103.2 0 0 0-14.224-20.148c-5.557-5.753-11.507-9.352-16.892-6.83a11.1 11.1 0 0 0-3.257 2.448 15.52 15.52 0 0 0-3.647 10.943c.171 14.689 14.028 34.274 20.687 43.014l-5.386 30.21c-34.275-53.614-32.022-87.08-28.62-102.822a79.25 79.25 0 0 1-22.033-55.231z" data-name="Path"/><path fill="#d0d4d8" d="M1035.787 350.914c76.096-.22 166.07 22.556 250.64 28.652l5.383 67.495c-80.145 4.095-154.406 2.123-221.133-7.615zm610.776 33.089 60.368-2.782 87.163 13.472c-8.762 17.841-86.123 14.08-98.083 17.323-4.517 3.36-8.845 8.328-12.776 8.784-35.806 1.704-61.887 2.775-69.455-8.597l-53.628 4.182-.33-34.173zM154.132 371.547l-62.98-3.229L.3 382.154c9.224 18.908 89.898 15.297 102.388 18.782 4.727 3.574 9.264 8.85 13.367 9.35 37.356 1.972 64.565 3.228 72.405-8.763l9.11-.354 3.893-34.723z" data-name="Path"/><path fill="#d0d4d8" d="M1286.682 379.055c62.673-1.64 142.189.363 273.14 3.157l.33 34.173c-145.27 17.407-175.11 33.74-252.105 32.6-13.314-.06-15.608-.566-22.682-3.117-26.32-9.227 1.317-66.813 1.317-66.813" data-name="Path"/><path fill="#66b8b2" d="m879.588 327.37 10.848-37.541 105.376 12.046 4.945 35.23 43.188 12.862s58.605 100.98 33.707 155.564c-24.689 54.127-54.899 207.455-54.899 207.455-67.989 4.523-139.894 4.89-214.73 2.145 33.241-143.673-35.978-200.518 5.783-371.362z" data-name="Path"/><path fill="#07423f" d="M1419.318 859.786c-15.17 152.468-40.801 232.468-84.86 459.678h-32.424l-.172.912a5.2 5.2 0 0 1-.74-1.257c2.443-186.477-41.828-215.603-1.905-391.505-209.108-.006-271.54 5.15-378.686-29.441l-20.078-5.062 51.065-177.98 71.235-2.145c3.237 23.624 5.768 24.046 36.14 29.951 76.784 4.911 211.06 29.609 278.554 35.515 76.117 8.014 83.028 35.146 81.87 81.334z" data-name="Path"/><path fill="#053634" d="M71.45 1326.566c46.736-78.638 203.883-224.646 277.851-268.39 77.893-41.678 83.588-46.107 118.178-80.276C596.5 850.209 678.118 786.663 761.921 745.046c13.203-6.556 37.121-15.186 46.103-29.915h143.494s-6.913 111.752-51.065 177.98c-147.813 78.883-215.227 62.73-284.215 115.161-124.178 77.266-212.482 151.773-212.482 151.773-118.932 84.877-239.123 109.144-297.27 166.866l-35.035-.345z"/><path fill="#b6ede8" d="m1333.284 1319.616 158.443 54.671-.37.542a67.9 67.9 0 0 1-52.33 24.637h-154.255l16.113-78.84.173-.911zM3.254 1377.984l68.197-51.418 35.034.345 6.135 79.8H18.283A18.23 18.23 0 0 1 0 1388.48a17.97 17.97 0 0 1 3.253-10.496z" data-name="Path"/><path fill="#d0d4d8" d="m489.303 413.943 13.269-65.378c153.823-10.804 191.194.404 216.31-3.412 42.46-8.505 84.731-5.97 101.791-1.706 10.994 21.61 1.695 70.43-14.305 89.961-37.58 17.127-164.699-3.145-317.065-19.465" data-name="Path"/><path fill="#d0d4d8" d="M490.179 413.74c-119.285 8.055-158.597-20.035-292.801-12.507l3.884-34.809c145.577-17.09 259.755-23.56 302.185-18.062.755 9.46-13.268 65.377-13.268 65.377z" data-name="Path"/></svg>