<svg xmlns="http://www.w3.org/2000/svg" data-name="Ebene 1" viewBox="0 0 389.573 963.8"><path fill="#656a6f" d="M127.551 153.63c-2.846 3.664-8.339 9.9-11.699 13.06-.483.452-1.59 1.163-2.083 1.603-1.323 1.166-2.626 1.044-4.023 2.147-.084-4.085-.168-8.085-.22-11.855 4.884-2.712 13.195-3.191 18.025-4.955"/><path fill="#8a9097" d="m122.02 98.053-.335.063-10.217 2.026c-2.867-3.8-7.213-6.037-11.592-5.48-2.898.356-5.47 1.91-7.266 4.367-1.638 2.247-2.51 5.093-2.53 8.096-1.019-.41-2.227-.504-3.34-.284-.965.179-1.784.557-2.404 1.06-2.331-6.142-8.053-10.268-13.818-9.533a8 8 0 0 0-.85.147c0-.021 0-.042-.011-.053l.01.01c-.734-3.968-1.428-7.633-1.49-11.381l-.011-.095 4.494-6.877s6.647 12.957 31.133 13.104h.073c.126 0 .252 0 .378.01.053.01.094.01.147.01h.231c5.786-.188 13.02 2.605 17.399 4.81z"/><path fill="#8a9097" d="M81.207 120.785c-1.113 1.544-2.614 2.636-4.316 3.182-1.858-4.935-3.506-10.017-4.819-15.13l-.189-.757-.01-.02c-.105-.431-.221-.872-.326-1.313a211 211 0 0 1-1.449-6.185c.22-.042.451-.084.683-.115a9 9 0 0 1 1.07-.063c2.584 0 5.104 1.155 7.13 3.076 2.016 1.932 3.539 4.62 4.116 7.718.662 3.549-.021 7.056-1.89 9.607m29.369-3.706c-1.45 1.984-3.518 3.234-5.828 3.528-5.544.703-11.077-4.116-12.316-10.731-.672-3.55.01-7.056 1.879-9.608 1.439-1.984 3.507-3.234 5.828-3.528a9 9 0 0 1 1.081-.063c2.583 0 5.103 1.155 7.119 3.077s3.538 4.63 4.116 7.717c.661 3.55-.021 7.046-1.88 9.608z"/><path fill="#8a9097" d="M124.587 155.44a54.4 54.4 0 0 1-15.06 3.15c-5.63.38-11.34.06-16.94-.93 0 0-5.92-9.55-14.26-29.96-.23-.58-.46-1.17-.69-1.76 2.08-.69 3.91-2.04 5.27-3.92 1.66-2.27 2.53-5.15 2.53-8.2 0-.99-.09-2.01-.28-3.03-.26-1.43 1.74-1.85 1.96-1.89 1.11-.21 2.98-.02 3.25 1.36 1.34 7.18 7.16 12.51 13.31 12.51.44 0 .89-.03 1.33-.08 2.89-.37 5.47-1.93 7.26-4.38 1.66-2.28 2.54-5.17 2.54-8.21 0-1-.09-2.01-.28-3.02-.35-1.81-.97-3.5-1.82-5.03l11.76-2.34c4.99 3.11 8.23 6.35 11.43 6.12 1.38-4.06 8.02-22.17 16.84-14.67 5.66 4.88 2.34 15.26-1.36 23.67-.05.13-.1.25-.16.38l-.14.37c-1.91 4.51-3.33 7.29-4.82 7.19l2.37 10.04.71 3.02 7.05 22.46 2.575 1.91-50.081 13.142.866-2.482v-.42c1.4-1.1 2.75-2.25 4.07-3.41.5-.44.98-.9 1.46-1.35 3.36-3.16 6.46-6.58 9.31-10.24"/><path fill="#a4abb3" d="M151.074 115.577c-1.554 3.896-3.035 7.36-4.82 7.193 1.492.105 2.909-2.678 4.82-7.193"/><path fill="#656a6f" d="M188.881 897.875c-.934 6.059-2.78 13.31-3.557 19.138l.123.64-18.98-.548-.031-.147c-.158-1.029-1.019-9.214-2.352-19.451 7.717 0 17.783.4 24.797.368"/><path fill="#101112" d="M71.873 108.06c-.105-.431-.221-.872-.326-1.313l.053-.01.273 1.322z"/><path fill="#e0e2e5" d="m153.048 124.996-4.42 7.812-2.373-10.038c1.784.168 3.265-3.297 4.819-7.193.052-.126.095-.241.147-.367l.157-.378c3.696-8.41 7.015-18.795 1.355-23.667-8.82-7.508-15.456 10.605-16.832 14.668-3.202.231-6.446-3.013-11.434-6.121a40 40 0 0 0-2.782-1.596l.336-.063c-4.379-2.205-11.613-4.998-17.399-4.81-.126-.01-.252-.01-.378-.01-.126-.01-.252-.01-.378-.01h-.073C79.307 93.076 72.66 80.119 72.66 80.119l-4.494 6.877.01.095c.063 3.748.757 7.413 1.492 11.382l-.011-.01c-12.506-9.251-14.49-18.995-10.07-32.404 6.027-16.044 21.179-24.748 34.43-27.069a25.8 25.8 0 0 1-3.36-9.901C88.883 14.914 98.931 1.978 113.106.203s27.1 8.274 28.875 22.45a25.7 25.7 0 0 1-2.971 15.634c.283.126.566.241.84.367 12.841 5.67 25.158 14.952 29.326 37.17 3.486 29.495-10.71 40.394-16.128 49.172"/><path fill="#d1e4ff" d="M151.074 115.577c-1.554 3.896-3.035 7.36-4.82 7.193 1.492.105 2.909-2.678 4.82-7.193"/><path fill="#101112" d="m112.707 102.053 11.76-2.341a40 40 0 0 0-2.782-1.596l-10.217 2.026c-2.867-3.8-7.213-6.037-11.592-5.48-2.898.356-5.47 1.91-7.266 4.367-1.638 2.247-2.51 5.093-2.53 8.096-1.019-.41-2.227-.504-3.34-.284-.965.179-1.784.557-2.404 1.06-2.331-6.142-8.053-10.268-13.818-9.533a8 8 0 0 0-.85.147c-2.552.535-4.81 2.005-6.416 4.22-2.205 3.025-3.024 7.12-2.247 11.236 1.344 7.171 7.15 12.505 13.314 12.505.441 0 .882-.02 1.333-.084a9.7 9.7 0 0 0 1.985-.451c2.079-.693 3.906-2.037 5.271-3.917 1.659-2.278 2.53-5.155 2.53-8.2 0-.998-.094-2.016-.283-3.035-.262-1.428 1.743-1.848 1.964-1.89 1.113-.21 2.981-.02 3.244 1.365 1.344 7.172 7.161 12.506 13.314 12.506.441 0 .893-.032 1.333-.084 2.888-.368 5.471-1.922 7.256-4.379 1.659-2.278 2.541-5.166 2.541-8.21 0-.998-.095-2.006-.284-3.014a16.7 16.7 0 0 0-1.816-5.03m-31.5 18.732c-1.113 1.544-2.614 2.636-4.316 3.182a7.5 7.5 0 0 1-1.511.346c-5.544.704-11.067-4.116-12.317-10.73a13.4 13.4 0 0 1-.231-2.867l9.198-1.932-.147-.704-.01-.02c-.105-.431-.221-.872-.326-1.313l-8.495 1.774c.295-1.69.946-3.244 1.901-4.546 1.292-1.785 3.097-2.972 5.145-3.413.22-.042.452-.084.683-.115a9 9 0 0 1 1.07-.063c2.584 0 5.104 1.155 7.13 3.076 2.016 1.932 3.539 4.62 4.116 7.718.662 3.549-.021 7.056-1.89 9.607m29.369-3.706c-1.45 1.984-3.518 3.234-5.828 3.528-5.544.703-11.077-4.116-12.316-10.731-.672-3.55.01-7.056 1.879-9.608 1.439-1.984 3.507-3.234 5.828-3.528a9 9 0 0 1 1.081-.063c2.583 0 5.103 1.155 7.119 3.077s3.538 4.63 4.116 7.717c.661 3.55-.021 7.046-1.88 9.608z"/><path fill="#656a6f" d="m347.025 917.021-19.53.168h-.42l-5.659-19.822 25.036.613c.179 5.723.342 12.741.563 18.852.01.063.01.126.01.19zm-319.2-366.649-1.375 4.21c-1.355 2.814-4.148 5.334-8.212 7.182v-.273c-1.22-5.86.599-5.69 1.691-8.21v1.039z"/><path fill="#e552da" fill-rule="evenodd" d="m147.117 411.14-.07.11-.16.29-11.29 18.73c-.66 3.68-7.07 35.45-8.41 45.08-.09.62-.27 1.74-.42 2.71l-11.38-2.69c-7.06-5.1-12.47-18.39-16.59-35.51-.23-.97-.46-1.93-.68-2.92-3.84-16.82-6.51-36.94-8.39-56.54-.18-1.87-.36-3.73-.52-5.59-.16-1.8-.31-3.59-.46-5.37-1.96-23.86-2.8-45.83-3.14-58.62 6.06 18.37 16.09 36.92 26.33 53.01 1.02 1.61 2.05 3.19 3.07 4.74.42.64.85 1.27 1.26 1.9.07.09.13.19.19.28.03.05.07.09.1.15.03.04.07.1.1.14.01.02.03.04.04.07.03.04.06.09.08.13.63.94 1.25 1.86 1.87 2.76.18.27.36.52.53.78l.13.2c.14.19.26.37.38.55.01 0 .01.01.01.01.14.2.28.38.4.58.04.06.09.11.12.16.01.01.02.03.03.04.09.14.19.28.28.42.04.06.08.1.11.15.46.67.92 1.33 1.38 1.99a398 398 0 0 0 2.73 3.83c.45.62.89 1.24 1.34 1.85.22.3.44.6.66.91.22.3.44.6.65.89.44.59.87 1.17 1.3 1.75v.01c.42.57.85 1.14 1.27 1.7q1.26 1.68 2.46 3.24c.1.14.2.26.3.39.02.02.03.04.04.06.22.28.43.55.63.82.08.09.15.18.22.27.13.17.26.34.38.5.1.12.19.23.28.35.1.14.2.28.31.41.24.33.49.64.74.95.38.48.74.94 1.1 1.41.11.13.21.26.31.39.05.06.09.12.14.17.02.04.05.07.07.1h.02c.12.15.23.31.35.46.04.06.09.11.14.17.36.45.7.88 1.04 1.3.07.1.15.18.21.27.03.03.05.06.07.09l.01.01c.01.01.03.02.04.04.02.01.04.03.05.05l.06.09c.02.02.03.05.05.07.04.05.08.09.12.14.28.35.56.7.84 1.04.3.37.61.74.9 1.11.11.12.21.25.3.38.1.11.19.22.28.33l.03.03c.09.11.17.2.25.3.14.17.27.33.41.49v.01c.07.08.14.16.2.24l.2.23c.28.34.55.66.81.97.09.12.2.24.3.36s.19.22.28.33l.06.08.21.24.09.12.03.03c.32.38.61.73.89 1.05l.03.03c.08.1.16.19.24.28.02.03.04.05.06.08.08.09.15.17.22.26l.03.03c.02.02.04.05.06.07.04.04.07.09.11.13l.05.05c.02.02.03.04.04.05.04.06.09.11.13.16.02.01.03.02.05.04.04.04.07.09.11.13.01.01.02.03.03.04s.01.01.01.02l.04.04c0 .01.01.01.01.02.01.01.02.01.02.02.04.04.08.09.12.13.23.27.42.49.57.65"/><path fill="#00629a" fill-rule="evenodd" d="M133.617 394.6c.13.17.26.34.38.5-.19-.25-.39-.51-.6-.77.08.09.15.18.22.27m3.35 4.28c.12.15.23.31.35.46-.12-.15-.24-.31-.36-.46zm1.91 2.39.06.09-.11-.14c.02.01.04.03.05.05m2.49 3.07c.02.03.05.06.07.09h-.01z"/><path fill="#383b3e" d="M202.627 693.86s13.1 149.35-4.94 205.14c-.03.07-3.77.1-9.1.13-7.01.03-16.79.04-24.5.04h-12.31c-.21 0-24.43-211.72-24.43-211.72l-.81-207.65c0-.2.1-.91.23-1.74.15-.97.33-2.09.42-2.71 1.34-9.63 7.75-41.4 8.41-45.08l12.133-20.38 5.056-.284 24.852.142c0 .36-.143 7.843-.103 8.543.01.09.129.594.129.664.02.39.14 1.008.16 1.418.78 12.65 16.818 52.338 17.268 53.258 2.06 4.14 3.587 7.002 5.837 12.452 5.06 17.36 8.59 31.413 15.76 53.113 1.1 3.33 5.145 16.455 6.225 19.845 1.28 3.96-4.117 13.31-2.857 17.31-12.52 52.449-17.43 117.509-17.43 117.509"/><path fill="#00629a" fill-rule="evenodd" d="M142.517 405.73c.28.34.55.66.81.97-.03-.02-.04-.04-.06-.06-.24-.29-.49-.59-.75-.91"/><path fill="#2e3033" d="M356.567 899.09h-59.43l-44.63-209.05s-14.93-57.66-32.45-113.69c-1.26-4-2.52-7.99-3.8-11.95q-1.62-5.085-3.27-10.08c-7.17-21.7-11.59-44.87-16.65-62.23-2.25-5.45-4.42-10.33-6.48-14.47-.45-.92-.89-1.84-1.32-2.77-8.37-18.5-10.92-41.67-11.7-54.32-.02-.41-.07-1.33-.08-1.42-.04-.7-.07-1.36-.1-1.98-.02-.19-.02-.36-.04-.53-.01-.38-.02-.72-.04-1.06 0-.25-.01-.48-.02-.71 0-.15-.01-.28-.01-.41-.01-.18-.01-.36-.02-.53-.03-1.23-.04-3.788-.04-4.148h1.792l6.694-.136 11.244-.426c5.25 23.22 10.63 50.7 13.74 65.51.34 1.66.66 3.19.97 4.57 4.37.82 8.79.97 13.28.61l-2.88 10.02s32.04-5.4 39.45-8.51c4.05-1.7 8-8.6 10.74-14.53 8.83-2.79 18.22-5.39 28.34-7.03l.62-.09c24.76 56.56 29.11 124.79 29.11 124.79l7.21 41.28s12.34 83.46 19.77 273.29"/><path fill="#00629a" fill-rule="evenodd" d="M143.627 407.06c.1.12.19.22.28.33l-.12-.13c-.05-.06-.11-.13-.16-.2m2.69 3.16c-.05-.06-.1-.11-.16-.17.02.01.03.02.05.04.04.04.07.09.11.13m30.44 8.891c-.042-.703-.084-1.365-.105-1.984.032.62.063 1.28.105 1.984"/><path fill="#e8b6e3" d="m196.727 411.44-49.69-.387c-.15-.16-.26-.293-.49-.563-.04-.04-.08-.09-.12-.13 0-.01-.01-.01-.02-.02 0-.01-.01-.01-.01-.02-.01-.01-.02-.03-.03-.04h-.01q0-.01-.01-.02c-.01-.01-.02-.03-.03-.04-.04-.04-.07-.09-.11-.13a.2.2 0 0 0-.05-.04c-.04-.05-.09-.1-.13-.16-.01-.01-.02-.03-.04-.05l-.05-.05c-.04-.04-.07-.09-.11-.13-.02-.02-.04-.05-.06-.07l-.03-.03c-.07-.09-.14-.17-.22-.26-.02-.03-.04-.05-.06-.08-.08-.09-.16-.18-.24-.28l-.03-.03c-.28-.32-.57-.67-.89-1.05l-.03-.03-.09-.12-.21-.24-.06-.08c-.09-.11-.18-.21-.28-.33s-.21-.24-.3-.36c-.26-.31-.53-.63-.81-.97l-.2-.23c-.06-.08-.12-.16-.2-.24v-.01c-.14-.16-.27-.32-.41-.49-.08-.1-.16-.19-.25-.3 0-.01-.01-.02-.02-.03-.02-.03-.05-.06-.07-.09a.4.4 0 0 1-.08-.1l-.04-.04c-.13-.16-.26-.32-.4-.48-.29-.37-.6-.74-.9-1.11-.28-.34-.56-.69-.84-1.04-.04-.05-.08-.09-.12-.14-.02-.02-.03-.05-.05-.07l-.06-.09a.12.12 0 0 0-.05-.05c-.01-.02-.03-.03-.04-.04l-.01-.01a.6.6 0 0 0-.07-.09c-.06-.09-.14-.17-.21-.27-.34-.42-.68-.85-1.04-1.3-.05-.06-.1-.11-.14-.17-.12-.15-.23-.31-.35-.46h-.01c-.03-.03-.05-.07-.08-.1-.05-.05-.09-.11-.14-.17-.1-.13-.2-.26-.31-.39-.36-.47-.72-.93-1.1-1.41-.25-.31-.5-.62-.74-.95-.11-.13-.21-.27-.31-.41-.09-.12-.18-.23-.28-.35-.12-.16-.25-.33-.38-.5-.07-.09-.14-.18-.22-.27-.2-.27-.41-.54-.63-.82a.2.2 0 0 0-.04-.06c-.1-.13-.2-.25-.3-.39q-1.2-1.56-2.46-3.24c-.42-.56-.85-1.13-1.27-1.7v-.01c-.43-.58-.86-1.16-1.3-1.75-.21-.29-.43-.59-.65-.89-.22-.31-.44-.61-.66-.91-.45-.61-.89-1.23-1.34-1.85a398 398 0 0 1-2.73-3.83c-.46-.66-.92-1.32-1.38-1.99-.03-.05-.07-.09-.11-.15-.09-.14-.19-.28-.28-.42-.01-.01-.02-.03-.03-.04-.03-.05-.08-.1-.12-.16-.12-.2-.26-.38-.4-.58 0 0 0-.01-.01-.01-.12-.18-.24-.36-.38-.55l-.13-.2c-.17-.26-.35-.51-.53-.78-.62-.9-1.24-1.82-1.87-2.76a1 1 0 0 0-.08-.13c-.01-.03-.03-.05-.04-.07-.03-.04-.07-.1-.1-.14-.03-.06-.07-.1-.1-.15-.06-.09-.12-.19-.19-.28-.41-.63-.84-1.26-1.26-1.9a326 326 0 0 1-3.07-4.74c-10.24-16.09-20.27-34.64-26.33-53.01-.38-1.1-.72-2.21-1.06-3.31-3.5-11.47-4.57-25.5-4.32-39.76q.015-1.185.06-2.37c.01-.4.03-.8.04-1.2l.06-1.78c.02-.64.05-1.27.08-1.9.05-1 .1-1.99.16-2.98l.06-1c.01-.27.03-.53.05-.8l.15-2.21a334 334 0 0 1 .74-8.53q.15-1.455.3-2.88c.01-.05.01-.1.01-.15.14-1.24.28-2.47.43-3.69.27-2.37.57-4.7.89-6.98.24-1.77.49-3.49.74-5.18 2.88-19.08 6.32-32.98 6.32-32.98l.22-.16 16.3-11.97v-9.34l2.91-.79 46.64-12.57 4.97-1.34 5.09 6.61c1.97 10.27 2.89 27.79 2.4 56.89-.27 16.84-1 37.57-2.26 63.02-1.39 28.01 6.45 55.67 17.25 81.53 4.01 9.53 8.55 27.21 12.85 46.25.02.06.03.12.04.19"/><path fill="#9dc9ff" d="M81.197 249.63c-.11 1.29-.21 2.58-.31 3.88l-.15 2.21c.04-.75.09-1.49.14-2.23.1-1.3.2-2.58.32-3.86m55.77 149.25c.12.15.23.31.35.46-.13-.15-.25-.3-.37-.46-.02-.03-.05-.06-.07-.1.03.03.05.07.08.1zm3.88 4.84c.14.16.27.32.4.48l-.1-.1c-.09-.13-.19-.26-.3-.38m1.67 2.01c.28.34.55.66.81.97-.03-.02-.04-.04-.06-.06-.24-.29-.49-.59-.75-.91m1.11 1.33c.1.12.19.22.28.33l-.12-.13c-.05-.06-.11-.13-.16-.2m.64.77-.3-.36.21.24z"/><path fill="#001d33" d="M176.757 419.111c-.042-.703-.084-1.365-.105-1.984.032.62.063 1.28.105 1.984"/><path fill="#003253" d="M176.757 419.111c-.042-.703-.084-1.365-.105-1.984.032.62.063 1.28.105 1.984m59.38 19.309-.01.05-.03-.01zm.08-.08-.08.08.03-.1zm39.05 19.33s-1.46 4.25-3.75 9.18c-2.74 5.93-6.69 12.83-10.74 14.53-7.41 3.11-39.45 8.51-39.45 8.51l2.88-10.02 1.53-5.3v-.01l10.39-36.09 39.07 19.33.04-.14z"/><path fill="#001d33" d="M176.757 419.111c-.042-.703-.084-1.365-.105-1.984.032.62.063 1.28.105 1.984"/><path fill="#003253" d="m236.137 438.42-.01.05-.03-.01zm.08-.08-.08.08.03-.1zm39.05 19.33s-1.46 4.25-3.75 9.18c-2.74 5.93-6.69 12.83-10.74 14.53-7.41 3.11-39.45 8.51-39.45 8.51l2.88-10.02 1.53-5.3v-.01l10.39-36.09 39.07 19.33.04-.14z"/><path fill="#8b2284" d="M166.436 916.955 73.57 948.998l.216.318a39.8 39.8 0 0 0 30.672 14.44h90.413l-9.444-46.21-.102-.533z"/><path fill="#8b2284" d="m387.666 946.962-39.971-30.137-20.535.202-3.596 46.773h55.293a10.686 10.686 0 0 0 10.716-10.686c.022-2.2-.644-4.35-1.907-6.152" data-name="Path"/><path fill="#e472db" d="M280.477 333.56v.01c-6.22 16.61-11.02 32.99-15.45 49.06v.01c-2.11 7.63-4.12 15.19-6.17 22.66l2.9.65c-.47 1.79-.95 3.55-1.42 5.3-.01.05-.02.09-.03.13-.17.63-.35 1.26-.52 1.88-.73 2.49-21.76 23.3-23.57 25.08l-.05-.02-.03.1-.04.04.03.01-10.39 36.09v.01l-1.53 5.3c-4.49.36-8.91.21-13.28-.61-.31-1.38-.63-2.91-.97-4.57-3.11-14.81-7.98-40.03-13.23-63.25-.01-.07-.02-.13-.04-.19-4.3-19.04-8.84-36.72-12.85-46.25-10.8-25.86-18.64-53.52-17.25-81.53 1.26-25.45 1.99-46.18 2.26-63.02.49-29.1-.43-46.62-2.4-56.89-.01-.03-.01-.05-.02-.08 12.17 14.86 43.21 22.55 50.53 24.2.03.01.06.01.08.02-1.42-.12-2.82-.18-4.18-.16-2.6.04-5.05.5-7.3 1.32-12.4 4.46-18.71 19.56-11.74 32.13 7.35 13.27 18.5 24.72 33.99 35.51.83.58 1.68 1.15 2.54 1.7v.01c9.49 6.22 20.54 11.31 32.17 15.6 6.25 18.6 12.34 38.95 17.96 59.75m28.1 125.518c-2.13.25-6.02.322-8.1.652l-.62.09c-10.12 1.64-19.51 4.24-28.34 7.03 2.29-4.93 3.75-9.18 3.75-9.18l-.03-.01 8.42-28.95.1-.34.77-2.68s2.66-4.88 7.09-12.99l2.49.56 3.66-6.94c3.82 18.82 8.71 36.908 10.81 52.758"/><path fill="#00629a" d="m236.137 438.42-.01.05-.03-.01zm.08-.08-.08.08.03-.1zm39.05 19.33s-1.46 4.25-3.75 9.18c-17.52 5.55-32.84 11.88-47.31 13.02l1.53-5.3v-.01l10.39-36.09 39.07 19.33.04-.14z"/><path fill="#e5a2df" d="M364.161 247.457a54 54 0 0 0-4.095-.714l-.053.063c-23.499-2.898-42.157 13.86-57.162 39.029-13.303-3.318-27.194-7.172-40.33-12.023-11.634-4.294-22.68-9.387-32.172-15.603v-.01a71 71 0 0 1-2.541-1.701c-15.487-10.784-26.638-22.24-33.988-35.511-6.972-12.569-.662-27.668 11.739-32.13a22 22 0 0 1 7.297-1.313 40 40 0 0 1 4.179.158c6.541.525 13.618 2.478 21.147 5.806z"/><path fill="#7d8389" d="M275.097 457.772s-1.407 4.099-3.697 9.029c-2.74 5.93-6.69 12.83-10.74 14.53-7.41 3.11-39.45 8.51-39.45 8.51l2.88-10.02 1.53-5.3v-.01l10.39-36.09 1.984-1.473 37.545 19.223-.46 1.58.04-.14-.022.16z"/><path fill="#8a9097" d="M236.347 438.037c1.81-1.78 22.71-22.287 23.44-24.777.17-.62.35-1.25.52-1.88.01-.04.02-.08.03-.13.47-1.75.95-3.51 1.42-5.3l10.42 2.36v.01l19.44 4.38c-4.43 8.11-7.09 12.99-7.09 12.99l-.77 2.68-.1.34-8.341 28.92-.102.191-39.204-19.4"/><path fill="#a4abb3" d="m236.137 438.42-.01.05"/><path fill="#e8b6e3" d="M377.367 253.11c-.01.01-.01.03-.02.04-4.69 10.92-64.12 123.82-79.58 153.17-2.33 4.42-4.429 8.979-4.429 8.979l-15.203-4.409-16.378-4.94-2.9-.65c2.05-7.47 4.06-15.03 6.17-22.66v-.01c4.43-16.07 9.23-32.45 15.45-49.06v-.01c5.33-14.26 11.71-28.69 19.79-43.24.85-1.52 1.71-3.02 2.58-4.49 15.01-25.16 33.67-41.92 57.17-39.02l.05-.07c1.37.19 2.74.42 4.09.72 4.69.99 9.21 2.62 13.48 4.84.04.02-.06.3-.27.81"/><path fill="#383b3e" d="m33.556 530.049-2.436 5.785-11.109 7.823-1.053 11.468c-.59 2.25-.646 3.234-.658 6.33v.272l1.102 401.95H8.272L7.13 564.663l-.188-3.946c0-15.823 11.505-27.969 26.614-30.667zm39.104 19.987-7.854 7.864-11.371-11.371a20.66 20.66 0 0 0-9.724-5.271l5.891-7.812 1.208-1.596c.955.378 1.89.808 2.803 1.28h.01a31.8 31.8 0 0 1 7.676 5.534z"/><path fill="#8a9097" d="M70.77 498.145 55.825 532.54l-2.201.59h-.011a31 31 0 0 0-2.803-1.28l-1.208 1.596-5.89 7.812-1.439 1.9-14.448 7.214-9.998 6.184 2.123-12.862 11.109-7.823 2.436-5.785c-15.11 2.698-26.376 16.296-26.376 32.12l.01 2.456a55 55 0 0 1-7.129.336l10.941-36.55 28.791-15.73 4.778-21.86z"/><path fill="#e48cdd" d="m98.797 439.86-24.88 59.16-3.15-.88-26.26-7.28-9.1-2.53 33.34-116.45.76-142.28-.29-1.03c4.11 8.65 8.61 18.32 11.66 24.92 0 .01.01.01.01.02l-.15 2.21c-.02.27-.04.53-.05.8l-.06 1c-.06.99-.11 1.98-.16 2.98-.03.63-.06 1.26-.08 1.9-.05.99-.08 1.99-.1 2.98q-.045 1.185-.06 2.37c-.25 14.26.82 28.29 4.32 39.76.34 1.1.68 2.21 1.06 3.31.34 12.79 1.18 34.76 3.14 58.62.15 1.78.3 3.57.46 5.37.16 1.86.34 3.72.52 5.59 1.88 19.6 4.55 39.72 8.39 56.54.22.99.45 1.95.68 2.92"/><path fill="#e552da" d="M90.666 192.865s-3.79 14.155-6.67 33.235c-.25 1.69-.5 3.41-.74 5.18-.32 2.28-.62 4.61-.89 6.98-.15 1.22-.29 2.45-.43 3.69 0 .05 0 .1-.01.15q-.15 1.425-.3 2.88a334 334 0 0 0-.74 8.53c0-.01-.01-.01-.01-.02-3.05-6.6-7.55-16.27-11.66-24.92l-.86-3.1c-3.51-16.34 12.812-24.004 21.692-32.174z"/></svg>