<svg xmlns="http://www.w3.org/2000/svg" viewBox="0 0 298.5 1000.1"><switch><g><path fill="#a4abb3" d="M59 356.7c-.4.2-.8.5-1.2.6L29 506.5 9.3 555.4l9.6 1.2c6.3.8 12.8-1.3 17.4-5.8 5.5-5.2 12-12 13.1-14.9 8-21.8 6-46.7 6-46.7l39.6-96 .7-1.6c2-4.3 2.7-9 2.2-13.6-1.7-17.6-21-30.8-38.9-21.3"/><path fill="#a4abb3" d="m20.3 503.7-7.4 24.2 7-3.4 13-25.2 1.3-19.7z"/><path fill="#111f32" d="m111.7 157-24.6 7.2c-16.8 3.7-28.8 18.6-28.9 35.8 0 0-3.2 153.4-3.6 153.6l-4.7 23.7-19.6 98 29.5 7.9S97.4 383.7 104 350c39.7-117.6 7.7-193 7.7-193"/><path fill="#8a9097" d="M121.1 118.2c-.4 3.7-.8 7.6-1.2 11.6 5.9-3.6 11.4-7.9 16.3-12.8-5 1.1-10.1 1.6-15.1 1.2"/><path fill="#a4abb3" d="M118.4 142.3c-1.2 10.5-2.2 18.6-2.2 18.6h58.3l-9.9-54.5-3.1-17.3c3.8-5 11.8-16.3 11.9-24.7.1-2.3-.6-4.6-2.2-6.3-6.5-7.1-15.7 6.6-19.7 13.8-17.1-1-52.2-5.9-60.2-28l-2 2.9c.3 9.2 1.3 18.5 3 27.5.6 3.4 1.4 6.8 2.4 10.3 5.6 20.8 10.2 30.7 10.2 30.7 5.3 1.6 10.7 2.6 16.3 2.9 5.1.3 10.1-.1 15-1.3-4.9 4.9-10.4 9.2-16.3 12.8q-.75 6.75-1.5 12.6"/><path fill="#111f32" d="M179.7 42.5C173 13 156.9-4.4 118.1 1c-15.9 2.2-24.2 11.4-28.4 22.2l-.2.2c-9.8 6.6-19 21.8-9.7 37.8-18.4 18.9-18 49.1.9 67.6 8.9 8.7 20.9 13.6 33.4 13.6 1.5 0 2.9-.1 4.4-.2.5-3.9 1-8.1 1.5-12.4.4-3.9.8-7.9 1.2-11.6-5.5-.3-11-1.3-16.3-2.9 0 0-4.6-10-10.2-30.7-.9-3.5-1.7-7-2.4-10.3-1.7-9-2.7-18.2-2.9-27.3l1.9-2.9c8 22.1 43.1 26.9 60.2 27.9 4.1-7.2 13.3-21.1 19.7-14 1.5 1.7 2.3 4 2.2 6.3-.1 8.4-8 19.7-11.9 24.7l3.2 17.3c24.7-38.8 16.1-59.2 15-63.8"/><path fill="#666a6f" d="M60.3 693s27.6 263 27.8 263l18.3.1c17-63.7 40.5-140.2 9.3-255.1-3.8-13.8-3.8-31-1.6-50.4-24.1-1.1-44.5-3.1-55.4-4.4z"/><path fill="#8a9097" d="M258.3 955.7c-7-225.6 14.2-214.6-38.3-308.1-9.5.6-20.8 1.5-34.3 2.5-7.3.6-14.8.9-22.2 1.1 6.7 29.7 11.1 50.3 11.1 50.3l64.9 254.4h.4z"/><path fill="#133351" d="M88.5 956 1.2 986.2l.2.3c7.1 8.6 17.7 13.6 28.8 13.6h85l-8.9-43.5-.1-.5zm208.3 27.9-38.1-28.7h-19.3L236 1000h52.2c5.7 0 10.3-4.6 10.3-10.3.1-2.1-.6-4.1-1.7-5.8"/><path fill="#232628" d="M220 647.3c35.2-2.4 45.7-2.4 45.7-2.4S225.5 450 216.2 426.2c-9.4-23.8-31.2-50.4-31.2-50.4H66.9l-9.7 19.4-7.3 55.8v194s3.1.4 8.6 1c11 1.2 31.4 3.2 55.4 4.4 15.5.7 32.5 1.1 49.4.6 7.5-.2 14.9-.6 22.2-1.1 13.6-1.2 24.9-2 34.5-2.6"/><path fill="#004975" d="M207.2 165c-1.3-.4-30.5-10.1-30.5-10.1l-5.6-13.8h-56l-5 13.8-23 9.4s-9.2 23.5-32.8 59.6c-10.4 13.6-14.8 27.8-8.4 55.6 9.9 42.8 21.5 97.8 21.5 97.8l91.5-.1z"/><path fill="#111f32" d="M231.5 211.8c0-.5.1-1 .1-1.5 0-.3 0-.6.1-.9 0-.4.1-.9-.3-1.3v-.9c.4-.4.4-.8.4-1.2s0-.6.3-.9v-3.2c-.3-.4-.3-.6-.3-.9s0-.8-.1-1.1l-.1-.9c0-.4-.1-.8-.1-1.1s-.1-.6-.1-.9l-.1-1.1c0-.3-.1-.6-.1-.9s-.1-.7-.2-1.1-.1-.6-.2-.9-.1-.7-.2-1l-.2-.8c-.1-.3-.2-.7-.3-1s-.1-.5-.2-.8-.2-.7-.3-1-.2-.5-.2-.8c-.1-.3-.2-.7-.4-1-.1-.3-.2-.5-.3-.7-.1-.4-.3-.8-.4-1.1l-.2-.6c-.2-.4-.4-.9-.6-1.3-.1-.1-.1-.2-.1-.3-.3-.5-.5-1-.8-1.6-.1-.1-.2-.3-.3-.4-.2-.4-.4-.8-.7-1.1-.1-.2-.2-.4-.4-.6l-.6-.9-.4-.6c-.2-.3-.4-.6-.6-.8-.2-.3-.3-.4-.5-.6s-.4-.5-.7-.8c-.2-.2-.4-.4-.5-.6l-.7-.7-.6-.6c-.2-.2-.5-.5-.8-.7s-.4-.4-.6-.5c-.2-.2-.5-.4-.8-.6-.2-.2-.4-.3-.7-.5-.2-.2-.5-.4-.8-.6l-.7-.5-.9-.6c-.3-.2-.5-.3-.8-.4l-.9-.5-.8-.4c-.3-.2-.7-.3-1-.5s-.5-.3-.8-.4-.7-.3-1.1-.5-.5-.2-.8-.3-.8-.3-1.2-.4c-.3-.1-.5-.2-.8-.3l-.2-.1-48.2 211.9h26.5l45.9-162.5c.1-.8.2-1.5.3-2.3.1-.3.1-.6.1-.8"/><path fill="#c2c7cd" d="M148.2 318c15-15.2 19.1-30.1 14.1-43.8-10.2-28.7-92.2-81.7-92.2-81.7l-22.4-35.4-25.2 27.6 20.9 14.1z"/><path fill="#c2c7cd" d="m77.7 146.8-11.2 5.9-12.3 14.5 12.3 20.4 3-25.2z"/><path fill="#133351" d="m148.9 317.5 71.3-84.4c9.9-8.5 11.4-16.8 15.5-29 0-24.4-10.7-37.3-28.6-39.3-14.5 16.5-8.2 5.6-25.1 32.2-20.5 32.4-39.2 71.8-39.2 71.8 16.8 17.8 14.4 39.3 6.1 48.7"/><path fill="#111f32" d="m148.5 318.6.1-.2c15-15.2 19.1-30.1 14.1-43.8C152.6 246 74 185.1 74 185.1l-4 3.4-20.9 18-4 2.8s92.8 99.4 102.7 108.7l.1.1c.4.3.6.5.6.5"/><path fill="#d0d4d8" d="M111.3 100.2c-2.1-.7-5.7-2.5-10.9-1.2-1.4.4-3.5 1.1-3.6 1.2-1.2.6-3.7 1.5-7.2 4.8.5-.2 5.8-1.2 10.9 1.2 1.5.7 2.5 1.8 2.5 1.8 1.6 1.7 2 3.7 2.3 5.5.5 2.6 1 6.3 1.2 10.9 4.2-4.7 3.6-7.1 3.6-9.7v-7.2c0-1.2 1-5.5 1.2-6z"/><path fill="#b2b9c1" d="M35.2 183.5s6.1-9.3 19.3-20.5c10-8.4 24.2-14.5 35-20.5 8.2-4.6 15.8-14.5 16.9-18.1.7-2.4.2-5.8 0-7.2-1.5 3-9.1 11.4-16.9 16.9-1.6 1.1-4.7 3.6-7.2 4.8-4.6 2.2-6.7 1.9-15.7 7.2-18 10.7-26 25.7-29 31.4.1 0 0 0-2.4 6"/><path fill="#047bc0" d="M106.5 117.1c-1.2 2.4-4.3 7.3-9.7 12.1-8.7 7.7-15.5 10.8-22.3 13.8-25.1 11.1-36.9 34.5-36.9 34.5 0-4.8-1.5-9.7 0-10.9.1-.9 20.4-27.3 26.6-29 3.8-3.8 19.3-8.5 24.2-9.7 9.7-3.6 17-15.7 16.9-15.7 0 .1.7 2.5 1.2 4.9"/><path fill="#eff1f2" d="M101.7 106.2c-2.8-1.9-9.7-2.4-12.1-1.2-7.2 3.6-9.4 5.1-15.7 9.7-8.3 6-13.6 11.5-25.4 24.2-9.1 9.8-17.1 18.7-24.2 26.6-2.3 2.5-6 8.6-6 14.5 0 7.2 1.6 10 6 10.9 5 .9 12.1-6 13.3-12.6.5-2.8-1.2-9.2 0-11.6 2.8-3.8 6.8-8.9 12.1-14.5 8.5-9 9.5-11.5 16.9-15.7 12.1-6.8 18.7-5.8 26.6-10.9 7.2-4.8 12.1-13.3 12.1-13.3s-1.3-4.5-3.6-6.1"/><path fill="#a4abb3" d="M38.9 139.1c-28.2 21.8-16.4 45.7-16.4 45.7l25.2-27.6z"/><path fill="#c2c7cd" d="m62.5 180.5-14.7-23.4-25.2 27.6 20.9 14.1z"/><path fill="none" stroke="#429bd6" stroke-linecap="round" stroke-linejoin="round" stroke-miterlimit="10" d="M61 130.4c4.5-4.7 6.2-6.4 10.8-9.8"/></g></switch></svg>