<svg xmlns="http://www.w3.org/2000/svg" data-name="Ebene 2" viewBox="0 0 1600 900"><g fill="#c1c7cc" fill-rule="evenodd"><path d="M2377.2 548.57v1.12l-36.81.1-9.58.02h-1.24l-53.24.14-9.58.02h-1.24l-56.4.14-9.57.01h-1.24l-56.38.14-9.58.04h-1.25l-56.38.14-9.58.02h-1.24l-56.39.14-9.6.02h-1.22l-56.41.14-9.58.04h-1.24l-56.38.13-9.59.02h-1.24l-47.49.12-9.56.02h-1.25l-50.07.14-9.58.02h-1.24l-56.41.14-9.56.02h-1.24l-56.41.13-9.56.04h-1.24l-56.41.14-9.56.02h-1.24l-56.4.14-9.59.02h-1.22l-56.4.14-9.56.04h-1.27l-56.38.13-9.58.02h-1.24l-49.49.12-9.56.02h-.16l-1.08.02-48.09.12-9.58.02h-1.22l-56.43.14-9.56.02h-1.24l-56.4.14-9.57.02h-.13l-1.11.02-56.4.13-9.56.02h-1.25l-56.42.14-9.54.02h-1.24l-56.41.14-9.56.02h-.16l-1.08.02-56.41.14-9.56.02h-1.24l-47.43.11-9.57.02h-1.24l-50.15.12-9.58.04h-1.23l-56.42.14-9.56.02h-1.25l-56.4.14-9.54.02h-1.26l-56.41.14-9.56.03h-1.24l-56.43.14-9.54.02h-1.24l-56.42.14-9.55.02h-1.24l-56.42.16-9.54.02h-1.25l-48.48.12-9.56.02h-1.24l-49.13.11-9.54.02-.16.02h-1.1l-56.41.14-9.54.02h-1.26l-56.41.14-9.54.02h-1.26l-56.4.14-9.57.04h-1.22l-56.44.13-9.54.02h-1.25l-56.42.14-9.54.02h-1.24l-56.43.14-9.54.04h-1.24l-48.23.12-9.52.02h-1.26l-52.22.13-9.55.02h-1.24l-56.42.14-9.54.02h-1.27l-56.4.14-9.56.02h-.16l-1.06.02-56.45.14-9.54.02h-1.24l-56.43.14-9.54.02h-1.24l-56.43.13-9.54.02h-.14l-1.1.02-56.44.14-9.53.02h-1.26l-24.29.06v-1.62l24.27-.06h1.24l9.55-.02 56.44-.13h1.24l9.54-.02 56.41-.14h1.26l9.54-.02 56.41-.14h1.26l9.54-.02 56.43-.12 1.08-.02h.16l9.54-.02 56.42-.12h1.25l9.56-.03 56.4-.12h1.24l9.57-.02 52.22-.12 1.1-.02h.14l9.54-.02 48.23-.1h1.22l9.56-.04 56.41-.12h1.26l9.54-.02 56.42-.13h1.25l9.54-.02 56.42-.14h1.24l9.57-.02 56.4-.14h1.24l9.56-.02 56.41-.12h1.24l9.56-.04 56.41-.12h1.24l9.56-.02 49.13-.11h1.24l9.56-.02 48.46-.12h1.27l9.54-.02 56.4-.14h1.26l9.55-.02 56.4-.14h1.24l9.56-.02 56.43-.11 1.08-.02h.14l9.58-.02 56.41-.12h1.24l9.56-.02 56.41-.14h1.24l9.56-.02 56.42-.14h1.23l9.58-.02 50.13-.12h1.26l9.57-.02 47.41-.11h1.24l9.58-.02 56.39-.14h1.24l9.58-.02 56.39-.12h1.24l9.58-.04 56.4-.12h1.25l9.56-.02 56.4-.14h1.24l9.57-.02 56.4-.13h1.24l9.56-.02 56.41-.14h1.24l9.58-.02 48.09-.1 1.08-.02h.16l9.56-.02 49.49-.1 1.1-.02h.14l9.58-.02 56.38-.11h1.25l9.58-.04 56.4-.12h1.22l9.59-.02 56.4-.14h1.24l9.58-.02 56.39-.14h1.24l9.58-.02 56.39-.12 1.08-.02h.16l9.56-.02 56.41-.11h1.22l9.6-.04 50.06-.1 1.1-.02h.14l9.58-.02 47.49-.1h1.24l9.59-.02 56.38-.14h1.24l9.58-.02 56.41-.14h1.22l9.6-.01 56.39-.14h1.24l9.58-.02 56.38-.12 1.09-.02h.16l9.58-.02 56.38-.12h1.23l9.6-.02 56.38-.14h1.24l9.6-.02 53.22-.11 1.1-.02h.14l9.58-.02z"/><path d="M2377.2 549.67v9.96l-36.67.06h-10.77l-53.29.1-9.52.01h-1.26l-56.45.08-9.52.02h-1.24l-56.44.1-9.53.02h-1.24l-56.44.08-9.52.02h-1.25l-56.44.1h-9.68l-1.08.02-56.47.08-9.5.02h-1.26l-56.45.1h-9.66l-1.1.02-47.55.05-9.51.02h-1.26l-50.11.08-9.53.02h-1.24l-56.46.1-9.5.02h-1.25l-56.46.08-9.5.02h-1.24l-56.45.1-9.52.02h-1.24l-56.47.08-9.5.02h-1.24l-56.46.1h-9.51l-.15.01h-1.11l-56.44.08-9.52.02h-1.25l-49.54.08-9.5.02h-1.26l-48.13.08-9.52.02h-1.24l-56.47.08-9.5.02h-1.26l-56.45.1-9.5.02h-1.26l-56.44.08-9.51.02h-1.26l-56.46.09-9.5.02h-1.25l-56.46.08-9.5.02h-1.24l-56.47.1-9.5.02h-1.24l-47.5.06-9.5.02h-1.24l-50.21.08-9.51.02h-1.24l-56.46.1h-.02l-9.49.02h-1.26l-56.44.08-9.5.02h-1.27l-56.46.09-9.5.02h-1.24l-56.47.08-9.5.02h-1.26l-56.45.1-9.5.02h-1.26l-56.44.08-9.51.02H295l-48.52.08-9.5.02h-1.24l-49.19.08-9.48.02h-1.27l-56.46.08-9.48.02h-1.26l-56.47.09-9.48.02h-1.26l-56.47.08-9.5.02h-1.24l-56.48.1-9.49.02h-1.26l-56.46.08-9.48.02h-1.27l-56.46.1-9.5.02h-1.24l-48.27.08h-9.64l-1.08.02-52.29.07-9.5.02h-1.24l-56.46.08-9.49.02h-1.26l-56.48.1h-9.48l-.18.02h-1.07l-56.48.08-9.48.02h-1.26l-56.47.1h-9.64l-1.1.02-56.47.08-9.48.02h-1.26l-56.48.1h-10.75l-24.43.03v-7.88l24.29-.06h1.24l9.55-.02 56.42-.14h1.26l9.54-.02 56.41-.12h1.26l9.54-.02 56.41-.13h1.26l9.52-.02 56.45-.14h1.24l9.54-.02 56.42-.12h1.25l9.54-.04 56.42-.12h1.24l9.55-.02 52.24-.12h1.24l9.54-.02 48.23-.11h1.22l9.56-.02 56.41-.14h1.26l9.54-.02 56.4-.12 1.11-.02h.16l9.54-.02 56.42-.12h1.24l9.55-.02 56.42-.13h1.24l9.56-.02 56.41-.12 1.1-.02h.14l9.54-.02 56.43-.12h1.24l9.54-.02 49.15-.12h1.24l9.54-.02 48.48-.12h1.27l9.54-.02 56.4-.13h1.26l9.55-.02 56.4-.12h1.26l9.54-.02 56.43-.14h1.22l9.58-.02 56.41-.14h1.24l9.56-.02 56.4-.12h1.25l9.56-.03 56.42-.12h1.23l9.56-.02 50.15-.12h1.26l9.57-.02 47.41-.12h1.24l9.56-.02 56.41-.12h1.24l9.56-.04 56.41-.11h1.24l9.56-.02 56.42-.14h1.25l9.56-.02 56.4-.12 1.11-.02h.13l9.57-.02 56.4-.12h1.24l9.56-.02 56.41-.14h1.24l9.58-.02 48.09-.11h1.24l9.56-.02 49.49-.1 1.1-.02h.14l9.58-.02 56.38-.12h1.25l9.58-.02 56.4-.14h1.22l9.57-.02 56.42-.14h1.24l9.56-.02 56.41-.11h1.24l9.56-.04 56.41-.12h1.24l9.56-.02 56.41-.14h1.24l9.58-.02 50.05-.12h1.25l9.58-.02 47.49-.1h1.24l9.59-.03 56.38-.12h1.24l9.58-.02 56.41-.14h1.22l9.58-.02 56.41-.12 1.08-.02h.16l9.58-.02 56.38-.12h1.25l9.56-.02 56.4-.13h1.24l9.57-.02 56.4-.12 1.1-.02h.14l9.58-.02 53.24-.12h1.24l9.58-.02z"/></g><g fill="#c1c7cc" fill-rule="evenodd"><path d="m39.41 456.48 8.17 443.33h1.68l-8.73-443.33z"/><path d="M40.53 456.48h10.22L56.48 900l-7.89-.19zM106.63 456.48l8.17 443.33h1.68l-8.73-443.33z"/><path d="M107.75 456.48h10.21L123.7 900l-7.89-.19zM173.84 456.48l8.17 443.33h1.68l-8.73-443.33z"/><path d="M174.96 456.48h10.22L190.91 900l-7.89-.19zM233.77 456.48l8.17 443.33h1.68l-8.73-443.33z"/><path d="M234.89 456.48h10.22L250.84 900l-7.89-.19z"/></g><g fill="#c1c7cc" fill-rule="evenodd"><path d="m293.04 456.48 8.17 443.33h1.68l-8.73-443.33z"/><path d="M294.16 456.48h10.22L310.11 900l-7.89-.19zM360.26 456.48l8.17 443.33h1.68l-8.73-443.33z"/><path d="M361.38 456.48h10.21L377.33 900l-7.89-.19zM427.47 456.48l8.17 443.33h1.68l-8.73-443.33z"/><path d="M428.59 456.48h10.22L444.54 900l-7.89-.19zM494.69 456.48l8.17 443.33h1.68l-8.73-443.33z"/><path d="M495.81 456.48h10.21L511.76 900l-7.89-.19zM561.9 456.48l8.17 443.33h1.68l-8.73-443.33z"/><path d="M563.02 456.48h10.22L578.97 900l-7.89-.19zM629.12 456.48l8.17 443.33h1.68l-8.73-443.33z"/><path d="M630.24 456.48h10.21L646.18 900l-7.89-.19zM696.33 456.48l8.17 443.33h1.68l-8.73-443.33z"/><path d="M697.45 456.48h10.22L713.4 900l-7.89-.19zM757.29 456.48l8.17 443.33h1.68l-8.73-443.33z"/><path d="M758.41 456.48h10.22L774.36 900l-7.89-.19z"/></g><g fill="#c1c7cc" fill-rule="evenodd"><path d="m815.53 456.48 8.17 443.33h1.68l-8.73-443.33z"/><path d="M816.65 456.48h10.22L832.6 900l-7.89-.19zM882.75 456.48l8.17 443.33h1.68l-8.73-443.33z"/><path d="M883.87 456.48h10.21L899.81 900l-7.89-.19zM949.96 456.48l8.17 443.33h1.68l-8.73-443.33z"/><path d="M951.08 456.48h10.22L967.03 900l-7.89-.19zM1017.17 456.48l8.17 443.33h1.68l-8.73-443.33z"/><path d="M1018.29 456.48h10.22l5.73 443.52-7.89-.19zM1084.39 456.48l8.17 443.33h1.68l-8.73-443.33z"/><path d="M1085.51 456.48h10.21l5.74 443.52-7.89-.19zM1151.6 456.48l8.17 443.33h1.68l-8.73-443.33z"/><path d="M1152.72 456.48h10.22l5.73 443.52-7.89-.19zM1218.82 456.48l8.17 443.33h1.68l-8.73-443.33z"/><path d="M1219.94 456.48h10.21l5.74 443.52-7.89-.19zM1277.71 456.48l8.18 443.33h1.67l-8.73-443.33z"/><path d="M1278.83 456.48h10.22l5.73 443.52-7.89-.19z"/></g><g fill="#c1c7cc" fill-rule="evenodd"><path d="m1338.02 456.48 8.17 443.33h1.68l-8.73-443.33z"/><path d="M1339.14 456.48h10.21l5.74 443.52-7.89-.19zM1405.23 456.48l8.17 443.33h1.68l-8.73-443.33z"/><path d="M1406.35 456.48h10.22L1422.3 900l-7.89-.19zM1472.45 456.48l8.17 443.33h1.68l-8.73-443.33z"/><path d="M1473.57 456.48h10.21l5.74 443.52-7.89-.19zM1539.66 456.48l8.17 443.33h1.68l-8.73-443.33z"/><path d="M1540.78 456.48H1551l5.73 443.52-7.89-.19z"/></g></svg>