<svg xmlns="http://www.w3.org/2000/svg" viewBox="0 0 1600 900"><path fill="none" d="M1117.478 283.054c-.012-.061-.02-.125-.033-.185.013.06.021.124.033.185m-.948-2.938c-.048-.1-.091-.2-.141-.3.05.096.093.199.141.3m.544 1.373c-.039-.118-.083-.233-.124-.35.041.117.085.232.124.35m.713 6.893q.013-.197.021-.4c-.008.136-.008.268-.021.4m-2.087-9.728c-.051-.074-.11-.142-.164-.214.056.072.115.14.164.214m2.119 7.515c0 .062.007.121.009.182q-.005-.09-.009-.182m-22.016 7.331zm21.579-1.418.035-.211zm-1.305 5.842.068-.242zm.948-3.898.068-.341zm-2.733 9.467-.001.002zm3.356-13.374q.017-.167.032-.334c-.011.115-.02.222-.032.334"/><g fill="#b2b9c0"><path d="m574.098 556.469-23.503-40.71H447.008l-54.275-85.892v382.599h254.831V515.824l-23.466 40.645zm73.466-483.578H392.733v73.429l254.831-1.25zm-3.466 418.07L560.88 359.502v27.93l64.11 103.529zM527.116 358.53l-.049-.075.049 8.305z"/><path d="m525.513 318.364-18.089-28.16h-87.402l127.501 200.757h60.666l-51.317-82.194 50.522 81.317h-7.482l-63.361-101.092-.002-1.234h-9.433v-.192l-25.791-40.167v-29.035zm-29.509-61.346-56.906-89.894h-46.365v80.112l6.212 9.782zm147.404 132.95-.003-1.235h-9.434v-.191l-25.79-40.166V319.34h27.742l-18.716-29.136h-90.923l11.128 17.742 110.152 173.441 6.081 9.574h53.061l-59.142-94.36zM545.22 167.124h-97.244l57.092 89.894h97.058z"/><path d="m633.971 359.506-.048-.075.048 8.304zm33.765 28.902 63.505 102.553h18.979L667.736 360.66zm46.452 102.553h.248l-50.708-81.218zm127.353 0h18.553l-51.09-80.706-31.573-49.876v27.054l31.573 50.986zm-32.537-12.778-32.626-52.055-23.276-37.136-.002-1.234h-9.433v-.192l-25.79-40.167v-29.035h24.745l-18.089-28.16h-88.466l3.984 6.35 7.513 11.832 115.954 182.575h61.223l-15.737-25.205-32.626-52.256-2.964-4.748 2.964 4.772 32.626 52.513 14.941 24.047h-7.481zM557.849 167.124l57.092 89.894h97.058l-56.905-89.894z"/><path d="M743.667 366.763v-8.232l-.049-.076zm108.554-8.233-.048-.075.048 8.298z"/><path d="M932.499 490.084h-7.481l-63.361-101.092-.002-1.234h-9.434v-.192l-25.79-40.167v-29.035h25.687l-18.089-28.16h-90.247l32.596 51.324 32.626 51.372 62.279 98.061h62.012l-51.326-82.209zm-46.513-128.457v25.806l64.109 103.528h17.763zM776.378 257.018h43.386l-10.76-16.997-32.626-51.54-13.52-21.357h-97.244l57.091 89.894zm98.081 364.142c-7.233 4.552-16.146 3.448-20.3-2.367l-.034.021-11.407-18.127a12.8 12.8 0 0 1-.6-11.975l-12.19-19.371a10.074 10.074 0 0 1 8.423-15.452l-24.707-39.433-.03-.049-.15-.239-4.464.042-32.626.31-15.428.146.031.048 15.4 24.025L809 589.647l32.533 50.763h51.022l-14.151-22.588a18.6 18.6 0 0 1-3.945 3.338"/></g><path fill="#979ea4" d="M549.098 513.168h.069L408.68 290.204h-15.947v139.663l54.275 85.892h103.587l-.007-.011zm84.823-154.017-25.74-39.811v29.036l25.79 40.166v-20.807l-.048-8.304zm29.807 50.592-13.117-21.01-3.047-4.879-4.156-6.658h.099l-.124-.199.022 11.736.003 1.235 4.156 6.633 59.142 94.36.062.099h7.482l-.062-.099zM527.116 366.76l-.049-8.305-.002-.28-25.74-39.811v29.035l25.791 40.167zm16.639 20.998-7.204-11.538h.1l-.123-.198.021 11.736.002 1.234 63.361 101.092h7.482l-50.522-81.317zm199.861-29.583-25.739-39.811v29.035l25.79 40.167v-20.803l-.049-8.308zm32.762 55.349-2.964-4.772-13.108-20.994-7.204-11.538h.1l-.124-.198.022 11.736.002 1.234 23.276 37.136 32.626 52.055 7.46 11.901h7.481l-14.941-24.047zm75.793-55.349-25.74-39.811v29.035l25.79 40.167v-20.813l-.048-8.298zm29.798 50.577-13.108-20.994-7.204-11.538h.1l-.124-.198.022 11.736.002 1.234 63.361 101.092h7.481z"/><path fill="#d0d4d8" d="M993.783 513.571 853.042 290.2h-19.013l18.089 28.16h-25.687l25.74 39.811v.28l.048.075v-.111h33.765v3.208l81.872 129.334H950.1l-64.114-103.524-6.944-11.213h-17.385l7.2 11.538 13.108 20.994 51.335 82.209h-62.017L809 392.9l-32.626-51.372-32.6-51.324h-19.241l18.089 28.16h-24.745l25.739 39.811v.28l.049.076v-.112h33.764v1.96L809 410.255l51.09 80.706h-18.549L809 438.419l-31.573-50.986-1.053-1.7-5.89-9.512H753.1l7.2 11.538 13.108 20.994 2.964 4.748L809 465.756l15.737 25.205h-61.219L647.564 308.386l-7.513-11.832-3.984-6.35h-18.86l18.716 29.136h-27.742l25.74 39.811v.28l.048.075v-.106h33.765v1.265l82.484 130.3h-18.977l-63.5-102.553-6.948-11.212h-17.385l4.156 6.658 3.047 4.879 13.117 21.01 50.708 81.218h-.248l.062.1h-7.482l-.062-.1h-53.061l-6.081-9.574-110.152-173.445-11.128-17.746h-18.86l18.089 28.16h-24.188l25.74 39.811v.28l.049.075v-.111h33.766v1.085l83.22 131.461h-19.11l-64.11-103.529-6.943-11.212h-17.386l7.2 11.538 13.117 21.009 51.317 82.194h-60.662L420.022 290.2H408.68l140.487 222.968H649.1l-1.213 2.1-.321.554v296.644h128.812V538.739l-15.4-24.025-.031-.048 15.428-.146 32.625-.31 4.461-.042.15.239.03.049 24.707 39.433a10.07 10.07 0 0 1 8.656 4.705l12.19 19.371a12.79 12.79 0 0 1 10.538 5.719l11.047 17.553.36.572-.034.022c2.722 4.949 1.5 11.294-2.7 15.99l14.151 22.588h48.978l-17.583-28.064a94 94 0 0 1-8.567-.959c-3.461-.559-12.016-6.2-18.727-10.951a23.44 23.44 0 0 1-9.855-17.425l-.772-10.534 14.7 2.806-38.261-61.067 19.779-.1-.55-.951h100l-.268.464zm-233.729 1.148-24.1 41.75h-50L662.123 515.2l-1.173-2.032h100zm-264.05-257.701h9.064l-57.092-89.894h97.244l56.906 89.894h12.815l-57.092-89.894h97.245l56.905 89.894h10.706l-57.091-89.894h97.244l13.52 21.357 32.626 51.54 10.76 16.997h12.368l-23.128-36.705-32.626-51.781V72.891H647.564v72.179l-254.831 1.25v20.804h46.365zm-103.271 0h6.212l-6.212-9.782zm-161.44 555.448h128.814V72.891H231.293z"/><path fill="#a4abb3" d="M1076.666 288.017c-8.522-2.522-16.686-4.94-24.215-6.854a158 158 0 0 0-15.475-3.245 75 75 0 0 0-6.35-.687q-.479-.028-.95-.047a30.7 30.7 0 0 0-11.1 1.208l-.164.158-35.2 34.221c12.563-3.486 25.413-4.2 35.492-2.285.97.184 1.922.383 2.837.615a21.5 21.5 0 0 0 6.226.516c10.685-.493 25.27-6.814 34.516-14.946l14.4-8.651z"/><path fill="#00629a" d="m1258.41 677.023-23.05 5.13-72.012 16.028-9.6-42.056a20392 20392 0 0 1-16.422 5.077l-.9-5.3-10.7 5.388c1.477 19.93 5.244 49.811 14.862 73.26 10.006 24.4 22.155 66.317 33.957 111.6 4.617 17.714 9.18 35.942 13.541 53.837l80.773-.135c4.018-110.413 19.02-163.328-10.449-222.829"/><path fill="#007bc0" d="m1018.408 278.55.164-.158a30.7 30.7 0 0 1 11.1-1.208q.471.019.95.047c2.008.123 4.13.358 6.35.687a158 158 0 0 1 15.475 3.245c7.529 1.914 15.693 4.332 24.215 6.854a96 96 0 0 0 13.352-1.669l.047-.01q4.816-.947 9.9-2.466l.067-.02a124.5 124.5 0 0 0 15.229-5.741l.018-.007a154 154 0 0 0 9.963-4.916c-.008-.17-.027-.336-.037-.506-1.8-30.977-26.893-54.834-56.294-53.376-29.562 1.467-52.27 27.968-50.721 59.193zm118.914 305.66s6.242-83.278 9.871-144.069l-99.617 22.171 11.424-58.34-12.792 8.905-.012.076q.079-.04.159-.079s-4.44 28.365-21.6 74.355l-.023-.184c-.282.762-.559 1.516-.849 2.287-8.408 18.146-9.835 35.469 4.567 65.61 2.824 5.908 5.73 12.034 8.65 18.226q1.7 3.591 3.385 7.084l1.323 2.749q1.184 2.45 2.352 4.846a1636 1636 0 0 0 20.059 39.758q2.6 4.983 4.9 9.321l9.093-.139 8.635-1.492-6.833-4.478-16.7-10.944 6.906-7.892 35.549 11.881 16.1 5.381 9.762-1.687-.413-2.437s5.233-2.959 13.73-7.5z"/><g fill="#e0e2e5"><path d="M776.378 812.466h32.626V589.647l-32.626-50.908zm32.626-739.575h-32.626v95.641l32.626 51.781zm32.533 567.519 25 43.301h50l25-43.301zm-292.37-127.242h-.069l1.49 2.58.007.011 23.503 40.71h50l23.466-40.645.321-.554 1.213-2.102zm112.956 2.032 23.827 41.269h50l24.104-41.75.896-1.551h-100zm220.129-1.081 24.45 42.35h50l24.732-42.837.268-.464h-100zM667.736 360.66v-1.265h-33.765v29.338h9.434l-.022-11.736.124.199h17.286l6.943 11.212zm-113.799 15.56 6.943 11.212v-29.013h-33.764v29.339h9.433l-.021-11.736.123.198zm223.494 11.213v-29.014h-33.764v29.339h9.433l-.022-11.736.124.198h17.286l5.89 9.512zm74.79-28.903v29.228h9.434l-.022-11.736.124.198h17.285l6.944 11.213v-29.014h-33.765z"/><path d="M853.042 290.204h.97v-33.186H392.733V72.891h-32.626v739.575h32.626V290.204zm279.616 69.096c-.951.794-1.869 1.554-2.777 2.3-33.536 27.718-38.115 26.6-37.568 27.115a92 92 0 0 1 3.166 3.17c2.315 2.421 4.7 5.115 6.948 7.764a326 326 0 0 1 11.145 13.931l20.063-20.642 6.44-6.625 6.746-6.94.357-.368a59 59 0 0 0-14.52-19.705"/><path d="m1073.494 372.467-.042.064a54.7 54.7 0 0 0-7.884 24.643l.873 1.621 10.81 20.079 7.727-15.468 5.61-11.229 1.727-3.457c-.067-.028-15.537-6.364-18.821-16.253"/></g><rect height="53.608" x="1274.454" y="619.552" fill="#0096e8"/><path fill="#001d33" d="m1038.069 583.01-.294-2.965-57.39-4.373-1.143 7.479-4.059 26.567-.928 6.08 68.271 12.209-.481-4.857zm226.395 38.473c-13 4.137-27.639 8.748-42.242 13.323l1.57 5.657 11.568 41.689 23.05-5.13 26.034-5.794zM1217.9 538.77c-12.968-20.814-26.818-46.645-34.615-72.107-.122-.4-.251-.8-.37-1.2l.332 9.159.824 22.7 24.783 89.317q3.272-1.387 6.526-2.711c9.337-3.8 18.482-7.139 26.853-9.62a508 508 0 0 1-24.333-35.538"/><path fill="#002742" d="M1027.766 311.617a21.5 21.5 0 0 1-6.226-.516 48 48 0 0 0-2.837-.615c5.285 11.8 12.986 22.553 22.925 28.8a370 370 0 0 1-7.8-14.411c-2.295-4.46-4.307-8.944-6.062-13.258m119.686 4.168a20.97 20.97 0 0 0-20.5-16.559 81.5 81.5 0 0 0-1.747-26.544c.01.17.029.336.037.506a154 154 0 0 1-9.963 4.916q.132.164.256.336c.054.072.113.14.164.214a10 10 0 0 1 .687 1.16c.05.1.093.2.141.3q.232.5.42 1.023c.041.117.085.232.124.35a14 14 0 0 1 .371 1.38c.013.06.021.124.033.185a17 17 0 0 1 .251 1.729q.067.68.09 1.386c0 .062.007.121.009.182.012.536 0 1.083-.02 1.635 0 .132-.013.264-.021.4q-.038.695-.107 1.4-.015.167-.032.334-.094.868-.231 1.752l-.035.211q-.129.8-.289 1.6l-.068.341a58 58 0 0 1-.88 3.656l-.068.242a79 79 0 0 1-1.785 5.569 110 110 0 0 1-4.23 10.065l7.725 18.725 3.322 8.053a20.975 20.975 0 0 0 26.344-24.553zm-57.387-29.447-.047.01 5.785 7.152 4.232-9.647-.067.02q-5.091 1.527-9.903 2.465m133.727 354.125-1.57-5.657-18.091 5.657a24424 24424 0 0 1-50.387 15.661l9.6 42.056 72.012-16.028zm-14.934-53.818-24.783-89.317-.824-22.7-.332-9.159q-1.324-4.433-2.391-8.838c-3.477-14.458-5.867-38.878-.086-59.479a68 68 0 0 1 3.219-9.057 58 58 0 0 1 1.618-3.4l.022-.041.645-1.237.258-.5a59 59 0 0 1 1.718-.195 60 60 0 0 0-8.8-.85l-29.532-2.573c.01.113.018.237.027.361.475 6.88-.669 31.041-2.426 60.481-3.629 60.791-9.871 144.069-9.871 144.069l7.628 33.408c9.429-5.04 22.882-12.031 37.714-19.118 8.454-4.038 17.346-8.1 26.196-11.855"/><path fill="#004975" d="m1125.721 661.294-30.991 15.6a73 73 0 0 1-14.422.392l-3.593 40.18-8.08 1.8c-.655 7.493-1.09 13.237-1.066 14.912l5.75 165.808 87.291.009c4.481-17.549 9.349-35.78 13.93-53.837-11.8-45.281-23.951-87.2-33.957-111.6-9.618-23.453-13.383-53.334-14.862-73.264m110.437-241.57-3.134-8.107c-10.5-22.814-25.532-30.866-45.1-28.9a59 59 0 0 0-1.718.195l-.258.5-.645 1.237-.022.041a59 59 0 0 0-1.618 3.4 68 68 0 0 0-3.219 9.057c-5.781 20.6-3.391 45.021.086 59.479q1.059 4.4 2.391 8.838c.119.4.248.8.37 1.2 7.8 25.462 21.647 51.293 34.615 72.107a507 507 0 0 0 24.333 35.544q1.488-.441 2.942-.844c9.83-2.73 18.442-4.149 24.8-3.527 13.909 1.361 25.6 9.541 34.1 25.446l.025.035z"/><path fill="#8a9097" d="M1087.981 351.4a104.6 104.6 0 0 1-14.859 17.694l.331 3.442.042-.064c3.284 9.889 18.754 16.225 18.818 16.252-.547-.519 4.032.6 37.568-27.115l-4.081-9.891-4.692-11.374-3.322-8.053-7.725-18.725a110 110 0 0 0 4.23-10.065 79 79 0 0 0 1.785-5.569l.068-.242a58 58 0 0 0 .88-3.656l.068-.341q.159-.8.289-1.6l.035-.211q.138-.884.231-1.752.017-.167.032-.334.071-.708.107-1.4a26 26 0 0 0 .041-2.035c0-.061-.007-.12-.009-.182a21 21 0 0 0-.135-1.802q-.078-.672-.206-1.313c-.012-.061-.02-.125-.033-.185a14 14 0 0 0-.371-1.38q-.06-.176-.124-.35-.187-.526-.42-1.023c-.048-.1-.091-.2-.141-.3a10 10 0 0 0-.687-1.16c-.051-.074-.11-.142-.164-.214a8 8 0 0 0-.256-.336l-.018.007a124.5 124.5 0 0 1-15.229 5.741l-4.234 9.636-5.785-7.152a96 96 0 0 1-13.352 1.669h.012l-14.4 8.651c-9.246 8.132-23.831 14.453-34.516 14.946 1.755 4.314 3.767 8.8 6.061 13.258a372 372 0 0 0 7.8 14.411 182 182 0 0 0 11.139 17.652 78.4 78.4 0 0 0 18.976-.655 57.8 57.8 0 0 0 16.246-4.88m47.175 296.995-1.341-7.932-2.182-12.907-9.762 1.687-16.1-5.381-35.549-11.881-6.906 7.892 16.699 10.944 6.833 4.478-8.635 1.492 4.497 10.919 4.681 11.365 7.339 17.819 30.991-15.596 10.705-5.388z"/><path fill="#003253" d="M1046.2 412.953c-16.166 7.724-26.774 24.4-25.479 42.274l4.012 31.818.023.184c17.163-45.99 21.6-74.355 21.6-74.355-.056.026-.104.053-.156.079m-.288 249.241 6.022 60.783 16.7-3.717 8.08-1.8 3.593-40.18a71 71 0 0 1-7.516-.893c-9.313-1.624-19.658-5.508-26.879-14.193m23.208-25.268q-2.293-4.329-4.9-9.321a1636 1636 0 0 1-20.059-39.758q-1.168-2.4-2.352-4.846l-1.323-2.749q-1.683-3.5-3.385-7.084l-.008-.019.683 6.9.294 2.965 3.976 40.14.481 4.857.922 9.309 23.317-.354zm239.854-30.567a89 89 0 0 0-4.9-10.97c-8.495-15.9-20.187-24.085-34.1-25.446-6.361-.622-14.973.8-24.8 3.527q-1.455.4-2.942.844c-8.371 2.481-17.516 5.824-26.853 9.62q-3.252 1.322-6.526 2.711c-8.85 3.752-17.742 7.817-26.194 11.855-14.832 7.087-28.285 14.078-37.714 19.118-8.5 4.542-13.73 7.5-13.73 7.5l.413 2.437 2.182 12.907 1.341 7.932 1.27 7.511.9 5.3s6.275-1.936 16.422-5.077c12.442-3.853 30.707-9.519 50.387-15.661a16790 16790 0 0 0 18.091-5.657c14.6-4.575 29.244-9.186 42.242-13.323 22-7 39.291-12.646 43.682-14.443l.1-.043c.548-.227.827-.369.809-.418-.023-.083-.054-.15-.08-.224"/><g fill="#eff1f2"><path d="m1092.312 388.719.003.001-.002-.002z"/><path d="M1149.619 379.66c-.009-.124-.017-.248-.027-.361l-2.413-.289-.357.368-6.746 6.94-6.44 6.625-20.063 20.642s-5.077-6.787-11.145-13.931c-2.25-2.649-4.633-5.343-6.948-7.764a89 89 0 0 0-3.166-3.17l-1.727 3.457-5.61 11.229-7.727 15.468-10.81-20.079-.873-1.621-6.565 6.8-11.427 58.34 99.617-22.171c1.758-29.443 2.902-53.603 2.427-60.483"/></g><path fill="#383b3e" d="M847.008 558.594a10.089 10.089 0 1 0-17.079 10.747l12.19 19.371a17.76 17.76 0 0 1 6.92-7.947 18.6 18.6 0 0 1 4.81-2.14 17 17 0 0 1 5.349-.66z"/><path fill="#4e5256" d="M859.2 577.965a17 17 0 0 0-5.349.66 18.6 18.6 0 0 0-4.81 2.14 17.76 17.76 0 0 0-6.92 7.947 12.8 12.8 0 0 0 .6 11.975l11.407 18.127.034-.021c-.131-.185-.273-.358-.4-.552a12.77 12.77 0 0 1-.652-11.842 17.74 17.74 0 0 1 6.976-8.08 18.6 18.6 0 0 1 4.768-2.128 16.9 16.9 0 0 1 5.535-.665 12.76 12.76 0 0 1 10.394 5.711l-11.047-17.553a12.79 12.79 0 0 0-10.536-5.719m21.583 23.273c.122.193.217.4.326.594l.034-.022z"/><path fill="#71767c" d="M1073.121 369.089a104.6 104.6 0 0 0 14.859-17.694 57.8 57.8 0 0 1-16.238 4.886c.229 2.243.47 4.552.723 6.9.211 1.95.429 3.924.656 5.908M919.486 559.354l-7.1 5.8 15.782 15.368-27.435-5.238-14.7-2.806.772 10.534a23.44 23.44 0 0 0 9.855 17.425c6.711 4.747 15.266 10.392 18.727 10.951 2.854.461 5.723.767 8.567.959 22.129 1.489 42.734-4.334 42.734-4.334l8.5 1.706 4.059-26.567-11.223.027zm167.905 99.717-4.681-11.365-4.5-10.919-9.093.139-2.355.036-23.317.354-6.592.1c.761 10.946 4.2 18.943 9.056 24.778 7.221 8.685 17.566 12.569 26.88 14.2a71 71 0 0 0 7.516.893 73 73 0 0 0 14.422-.392zm-206.608-57.833a12.76 12.76 0 0 0-10.394-5.711 16.9 16.9 0 0 0-5.535.665 18.6 18.6 0 0 0-4.768 2.128 17.74 17.74 0 0 0-6.976 8.08 12.77 12.77 0 0 0 .652 11.842c.122.194.264.367.4.552 4.156 5.815 13.069 6.919 20.3 2.367a18.6 18.6 0 0 0 3.949-3.338c4.2-4.7 5.423-11.041 2.7-15.99-.111-.199-.206-.402-.328-.595"/></svg>