<svg xmlns="http://www.w3.org/2000/svg" viewBox="0 0 435 731"><g fill="none"><path fill="#A4ABB3" d="M369.025.31h-1.33l-.58.07-.41.08-.52.11-.39.11-.53.16h-.05c-6.36 2.14-11.55 9.53-13.74 19.26v.21c-.19.86-.36 1.74-.5 2.63-.12.77-.22 1.56-.31 2.35-.12 1.15-.21 2.32-.25 3.51v1.71c0 16.74 8.37 30.3 18.69 30.31l-37.96 269.25h56.58V30.62c0-16.74-8.4-30.31-18.7-30.31"/><path fill="#595E62" d="m353.025 156.5 80.65 572.82h-26.84l-80.65-572.82z"/><path fill="#595E62" d="M292.775 538.48h98.06v15.51h-98.06z"/><path fill="#C1C7CC" d="m329.995 156.5-80.64 572.82h26.83l80.65-572.82z"/><path fill="#595E62" d="m113.965 156.5 80.64 572.82h-26.83L87.125 156.5z"/><path fill="#595E62" d="M53.715 538.48h98.06v15.51h-98.06z"/><path fill="#C1C7CC" d="m90.935 156.5-80.64 572.82h26.83l80.65-572.82z"/><path fill="#D0D4D8" d="M322.835 389.07H20.195l46.19-328.14h302.64z"/><path fill="#8A9097" d="M.325 389.07h345.27c0 14.989-12.151 27.14-27.14 27.14h-291C12.47 416.204.325 404.055.325 389.07"/><path fill="#C1C7CC" d="M390.835 61.13a23 23 0 0 1-.21 3.06l-45.74 324.88h-22.05l46.2-328.14 3-21.4c10.695 1.5 18.682 10.6 18.78 21.4q.018.1.02.2"/><path fill="#8A9097" d="M372.045 39.53H64.855l21.38 21.38h282.79z"/><path fill="#E0E2E5" d="M350.325 30.62c0-16.74 8.38-30.31 18.7-30.31h-302.7c-10.34 0-18.71 13.57-18.71 30.31s8.37 30.31 18.71 30.31h302.7c-10.32 0-18.7-13.57-18.7-30.31"/><path fill="#8A9097" d="M390.825 60.93h-21.79l3-21.4c10.699 1.495 18.69 10.598 18.79 21.4"/><path fill="#595E62" d="M115.955 376.01h63.05v13.06h-63.05z"/><path fill="#A4ABB3" d="M179.015 376.01h23.52v13.06h-23.52z"/><path fill="#43464A" d="m160.385 216.11-9 63.98h-23.76l9.01-63.98zm50.54-23.11-12.25 87.09h-23.76l12.26-87.09zm50.67-23.1-15.52 110.19h-23.74l15.51-110.19z"/></g></svg>