<svg xmlns="http://www.w3.org/2000/svg" viewBox="0 0 309 520"><g fill="none"><path fill="#43464A" d="M46.005.96h.95l.41.05.29.06.37.08.28.08.38.11c4.52 1.52 8.2 6.77 9.76 13.68v.15a31 31 0 0 1 .58 3.54c.09.82.15 1.65.18 2.5v1.21c0 11.89-6 21.53-13.28 21.53l26.99 191.26h-40.19V22.49c0-11.89 5.95-21.53 13.28-21.53"/><path fill="#383B3E" d="M57.375 111.92.085 518.83h19.06l57.29-406.91z"/><path fill="#383B3E" d="M100.175 394.27h-64.15a5.51 5.51 0 1 1 0-11.02h64.15z"/><path fill="#383B3E" d="m73.735 111.92 57.29 406.91h-19.07l-57.29-406.91zm153.46 0-57.29 406.91h19.06l57.3-406.91z"/><path fill="#383B3E" d="M269.995 394.27h-64.15a5.51 5.51 0 1 1 0-11.02h64.15z"/><path fill="#383B3E" d="m243.555 111.92 57.29 406.91h-19.07l-57.29-406.91z"/><path fill="#71767C" d="M78.815 277.12h215l-32.82-233.1H46.005z"/><path fill="#2E3033" d="M288.645 296.4H81.925a19.28 19.28 0 0 1-19.28-19.28h245.27c0 10.644-8.626 19.274-19.27 19.28"/><path fill="#2E3033" d="M30.515 44.16q0 1.096.15 2.18l32.49 230.79h15.67L46.005 44.02l-2.14-15.2a15.5 15.5 0 0 0-13.35 15.2zm13.35-15.34h218.22l-15.19 15.19H46.005z"/><path fill="#656A6F" d="M59.285 22.49c0-11.89-5.95-21.53-13.28-21.53h215.08c7.33 0 13.28 9.64 13.28 21.53s-5.98 21.53-13.28 21.53h-215c7.25 0 13.2-9.64 13.2-21.53"/><path fill="#2E3033" d="M30.515 44.02h15.49l-2.14-15.2a15.5 15.5 0 0 0-13.35 15.2m195.27 233.1h-44.79v-9.28h44.79z"/><path fill="#43464A" d="M180.985 277.12h-16.71v-9.28h16.71z"/><path fill="#2E3033" d="m194.225 154.26 6.39 45.45h16.87l-6.4-45.45zm-35.91-16.42 8.71 61.87h16.87l-8.71-61.87zm-35.99-16.41 11.02 78.28h16.87l-11.02-78.28z"/></g></svg>