<svg xmlns="http://www.w3.org/2000/svg" data-name="Ebene 1" viewBox="0 0 1003.402 416.055"><path fill="#1a1c1d" d="m319.335 368.678 464.059-.027 58.625-17.574 17.37-.006 70.086-13.86v-41.092h-610.14z"/><path fill="#232628" d="M583.27 352.841c0-16.277-4.911-31.114-12.973-42.319v-20.895H532.84c-27.852 0-50.43 28.302-50.43 63.214s22.578 63.214 50.43 63.214h37.457V395.16c8.062-11.205 12.973-26.042 12.973-42.319"/><ellipse cx="569.251" cy="352.841" fill="#383b3e" rx="50.43" ry="63.214"/><ellipse cx="571.2" cy="354.963" fill="#595e62" rx="37.222" ry="46.657"/><path fill="#656a6f" d="M571.2 308.306c-1.811 0-3.59.17-5.332.484 18.03 3.243 31.89 22.675 31.89 46.173s-13.86 42.93-31.89 46.174a30 30 0 0 0 5.332.484c20.557 0 37.222-20.89 37.222-46.658s-16.664-46.657-37.222-46.657"/><path fill="#232628" d="M801.32 352.841c0-16.277-4.911-31.114-12.974-42.319v-20.895H750.89c-27.852 0-50.43 28.302-50.43 63.214s22.578 63.214 50.43 63.214h37.457V395.16c8.063-11.205 12.974-26.042 12.974-42.319z"/><ellipse cx="787.301" cy="352.841" fill="#383b3e" rx="50.43" ry="63.214"/><ellipse cx="789.25" cy="354.963" fill="#595e62" rx="37.222" ry="46.657"/><path fill="#656a6f" d="M789.25 308.306c-1.811 0-3.59.17-5.332.484 18.03 3.243 31.89 22.675 31.89 46.173s-13.86 42.93-31.89 46.174a30 30 0 0 0 5.332.484c20.557 0 37.222-20.89 37.222-46.658s-16.665-46.657-37.222-46.657"/><path fill="#232628" d="M178.608 352.841c0-16.277-4.912-31.114-12.974-42.319v-20.895h-37.457c-27.852 0-50.43 28.302-50.43 63.214s22.578 63.214 50.43 63.214h37.457V395.16c8.062-11.205 12.974-26.042 12.974-42.319"/><ellipse cx="164.588" cy="352.841" fill="#383b3e" rx="50.43" ry="63.214"/><ellipse cx="166.538" cy="354.963" fill="#595e62" rx="37.222" ry="46.657"/><path fill="#656a6f" d="M166.538 308.306c-1.811 0-3.59.17-5.332.484 18.03 3.243 31.89 22.675 31.89 46.173s-13.86 42.93-31.89 46.174a30 30 0 0 0 5.332.484c20.557 0 37.222-20.89 37.222-46.658s-16.665-46.657-37.222-46.657"/><path fill="#232628" d="M393.256 352.841c0-16.277-4.91-31.114-12.973-42.319v-20.895h-37.457c-27.852 0-50.43 28.302-50.43 63.214s22.578 63.214 50.43 63.214h37.457V395.16c8.062-11.205 12.973-26.042 12.973-42.319"/><ellipse cx="379.237" cy="352.841" fill="#383b3e" rx="50.43" ry="63.214"/><ellipse cx="381.186" cy="354.963" fill="#595e62" rx="37.222" ry="46.657"/><path fill="#656a6f" d="M381.186 308.306c-1.81 0-3.59.17-5.332.484 18.03 3.243 31.89 22.675 31.89 46.173s-13.86 42.93-31.89 46.174a30 30 0 0 0 5.332.484c20.558 0 37.223-20.89 37.223-46.658s-16.665-46.657-37.223-46.657"/><path fill="#2e3033" d="m304.959 368.65.1-8.99c.463-19.317 1.064-22.173 10.02-42.736l-43.503-.01-.006 26.862c0 12.025-9.692 24.902-23.722 24.902-9.667 0 57.11-.027 57.11-.027z"/><path fill="#b2b9c0" d="M923.322.031H366.448L271.57 238.275v.3l.006 78.339 43.503.01 5.729-11.033c2.69-4.612 6.938-7.12 13.037-7.123h86.82c6.277.093 10.467 3 12.409 8.939l6.724 23.67h282.541l6.244-23.163c1.836-5.176 5.742-8.696 11.845-9.446h94.81c3.621.305 6.192 2.046 7.778 5.054l9.84 28.376h85.032l.3-65.437V14.898c0-8.21-6.655-14.867-14.866-14.867"/><path fill="#979ea4" d="M271.57 238.275c0-8.819-6.986-15.871-16.356-15.871-46.78 0-216.54.144-238.245.144C2.349 222.548.002 237.1 0 237.69c0-10.263 4.327-15.975 8.436-18.681l90.662-48.045a.4.4 0 0 1 .176-.043l250.19.068c16.635 0 16.913 14.298 16.913 17.905-22.07 11.986-94.807 49.69-94.807 49.381"/><path fill="#d0d4d8" d="M365.65 170.921H98.98l21.07-140.477c3.58-16.607 6.362-31.213 33.209-30.413h213.19c14.22 0 25.212 12.485 23.41 26.592l-17.707 138.573a6.556 6.556 0 0 1-6.503 5.725zM15.774 222.358h240.063c8.683 0 15.733 7.05 15.733 15.734v78.822H.04v-78.822c0-8.684 7.05-15.734 15.734-15.734"/><path fill="#43464a" d="M352.335 164.534H115.378c-3.999 0-7.105-3.106-6.455-8.167l15.474-100.45c1.3-8.37 2.24-13.068 13.665-12.89l230.55.021c4.476 0 7.879 4.02 7.141 8.433l-13.695 105.218c-.583 3.49-3.86 7.835-9.723 7.835"/><path fill="#232628" d="M484.865 157.194a7.433 7.433 0 0 1-7.433 7.335H391.09c-4.142 0-7.966-4.053-7.343-8.887L398 50.192c.42-3.227 1.712-7.15 9.003-7.15h71.838a7.433 7.433 0 0 1 7.432 7.532z"/><circle cx="27.818" cy="251.154" r="18.64" fill="#2e3033"/><circle cx="242.441" cy="251.154" r="18.64" fill="#2e3033"/><path fill="#43464a" d="M711.613 29.996h206.826v165.153H711.613z"/><path fill="#232628" d="M503.508 29.996h208.105v165.153H503.508z"/><path fill="#595e62" d="M503.508 175.832h348.717v19.317H503.508z"/><path fill="#2e3033" d="M852.855 332.198h85.033v4.012c0 8.211-6.657 14.867-14.868 14.867l-63.632-.006z"/><path fill="#43464a" d="M503.508 23.782h84.963v6.213h-84.963z"/><path fill="#979ea4" d="M544.279 195.149h412.526v8.418H544.279z"/><path fill="#43464a" d="M503.508 195.149v8.418h40.77v-8.418"/><path fill="#383b3e" d="m571.51 29.996-68.002 68.662V91.82l61.433-61.824h6.57z"/><path fill="#2e3033" d="M981.606 29.996 918.44 93.774v-6.837l56.58-56.941z"/><path fill="#70767c" d="M588.472 91.219h6.741v71.705h-6.741z"/><path fill="#d0d4d8" d="M606.185 48.196v23.262c0 .858-.11 1.737-.297 2.623-1.197 3.271-5.386 1.615-5.448-.067h.007l.002-25.823h-5.737l-.002 25.806-.005.016c-.503 3.085-5.33 2.986-5.728 0q-.001-.009-.004-.018l.002-25.804h-5.737l-.002 25.756c-.002.023-.013.043-.014.066-.069 1.92-4.313 3.226-5.454 0-.001-.004-.006-.007-.007-.011a13 13 0 0 1-.261-2.544V48.19h-5.737v23.267c0 11.44 11.498 22.629 20.08 22.63 4.04 0 9.079-2.663 13.149-6.947 4.404-4.636 6.93-10.353 6.93-15.683V48.196zM648.655 105.524l-22.947.033V59.661c0-6.327 5.919-11.474 13.195-11.474h9.752z"/><path fill="#70767c" d="M642.415 48.186h6.742v114.741h-6.742z"/><path fill="#979ea4" d="M588.471 23.782h414.931v6.213H588.471z"/><path fill="#2e3033" d="M439.798 331.377h282.541l-2.45 9.092a79.1 79.1 0 0 0-2.721 21.62l.084 6.562h-271.48l-.143-6.664a85 85 0 0 0-3.216-21.405z"/><path fill="#383b3e" d="M22.34 368.65c-12.315 0-22.3-9.983-22.3-22.299v-29.437h271.53v26.835c0 12.026-9.692 24.902-23.722 24.902z"/><path fill="#2e3033" d="M78.022 247.807h115.66v6.694H78.022zm0 14.162h115.66v6.694H78.022zm-.094 13.311h115.66v6.694H77.928zm0 14.162h115.66v6.694H77.928z"/></svg>