<svg xmlns="http://www.w3.org/2000/svg" viewBox="0 0 663 645"><g fill="none" fill-rule="evenodd" transform="translate(.15 .82)"><path fill="#A4ABB3" fill-rule="nonzero" d="M498.57 0v631.65h-75.46c-8.5 0-23.54-2-23.87-25.07V23.74c0-8.08 1.1-23.74 24.16-23.74z"/><path fill="#C1C7CC" fill-rule="nonzero" d="M472.78 631.65c-8.59 0-23.88-2-23.88-25.86v-582C449 15.66 450 0 473.06 0h164.48c23.32 0 24.13 16 24.16 24v581.79c0 23.81-15.29 25.82-23.88 25.86z"/><path fill="#D0D4D8" fill-rule="nonzero" d="M448.61 236.49h213.08v2.26H448.61zm0 15.81h213.08v2.26H448.61z"/><circle cx="556.14" cy="89.18" r="20.32" fill="#D0D4D8" fill-rule="nonzero"/><path fill="#A4ABB3" fill-rule="nonzero" d="M424.26 631.72h213.35v11.29H424.26z"/><path fill="#C1C7CC" fill-rule="nonzero" d="M400.06 236.49h48.24v2.26h-48.24zm0 15.81h48.24v2.26h-48.24z"/><path fill="#D0D4D8" d="M150 169.92c17.33-5.49 28.6-18.52 25.17-29.09-2.52-7.77-12.33-12.09-24.25-11.59a12.07 12.07 0 0 0-2.77-8.72c-6.11-6.9-20.3-4.6-31.67 5.18-7.3 6.31-12.62 20-15.49 29v-29c8.89-7.77 25.1-23.51 27.25-36.3 3-17.76-6-34-20-36.35-12-2-23.85 6.9-28.89 20.64a17.06 17.06 0 0 0-7.78 1.08c-10.66 4.2-14.9 18.54-9.48 32 5.24 13 30.86 25.71 33 26.76v45.69l-12-10.13c-1.22-8.83-4.71-27.8-12.79-35.15-10.68-9.73-25.57-10.92-33.27-2.66s-5.23 22.85 5.42 32.58c8.2 7.48 28.12 9.3 36.9 9.74l15.78 13.27v40.38c-4.78-10.25-13.72-26.92-23.92-33.58-15.21-9.85-32.53-10.37-38.71-1.1-4.55 6.82-1.74 17.07 6.06 26a12.24 12.24 0 0 0-5.12 7.6c-1.62 9.07 9.11 18.54 23.94 21.14 11.71 2.06 30.34-5.17 37.72-8.34v38.94H40.89v58a36.44 36.44 0 0 0 36.64 36.25h35.18a36.453 36.453 0 0 0 36.65-36.25v-58h-47.18l15.19-23.3c9.4-3.69 34-14.36 40.94-27.13 8.58-15.88 5.36-34.13-7.2-40.76s-29.66.86-38.26 16.73c-6.67 12.35-2.47 37.27-.27 47.75L101 268.9v-84.24l.21-.25-.21-.17v-19c6.58 1.97 33.86 9.49 49 4.68"/><path fill="#A4ABB3" fill-rule="nonzero" d="M187.15 246.69a6.37 6.37 0 1 0 0 12.74 6.37 6.37 0 0 0 0-12.74m15.46-4.09v18.64h-31.37V242.6zm-44.97 129.51q-.16-2 1.32-2.34a65 65 0 0 1 10.21-.71h10.54v-1.93h-3.08c-4 0-7.46-3.54-7.46-9.81v-11.63H173v-1.34l-3.85-1.47v-79.13l2.07-.88v-1.63h31.17v1.63l2.07.88v79.13l-3.85 1.47v1.34h3.85v11.63c0 6.27-3.47 9.81-7.46 9.81h-3.08v1.93h10.54a65 65 0 0 1 10.21.71q1.49.3 1.32 2.34zm-4.13 21.67h9v108.36h-9zm0 130h9V643h-9z"/><path fill="#D0D4D8" fill-rule="nonzero" d="M162.55 502.14h-52.38v21.66h148.09v-21.66zm-9-108.37h104.71v-21.66H110.17v21.66z"/><path fill="#A4ABB3" fill-rule="nonzero" d="M9 502.14h92.1v21.67H9zm0-130h92.1v21.67H9z"/><path fill="#D0D4D8" fill-rule="nonzero" d="M258.26 372.11h9.03v270.9h-9.03z"/><path fill="#A4ABB3" fill-rule="nonzero" d="M110.17 393.77v-21.66h-9V643h9zM9 393.77v-21.66H0V643h9z"/></g></svg>