<svg xmlns="http://www.w3.org/2000/svg" viewBox="0 0 478.51 656.12"><g data-name="Ebene 2"><g data-name="Ebene 1"><path fill="#71767c" d="M173.17 646.61v9.51h295.17v-9.51z"/><path fill="#a4abb3" d="M218.43 0v319.12h259.66V328H218.43v318.61h260.08V0zm20.79 368.65h11.42v118.54h-11.42zm-8.33-353.57h234.43v68.79h.05V99h-.05v69.73h.05v15.08h-.05v119.62H230.89z"/><path fill="#c1c7cc" d="M218.43 328V0H0v318.51h157.17v328.1h61.26zM16 303.43V15.08h187.87v288.35z"/><path fill="#43464a" d="M242.2 296.43V233.7h19.66a11.84 11.84 0 0 1 9.44-5.26 11.82 11.82 0 0 1 10-19.67 11.85 11.85 0 1 1 23.46-2.77v.69a12 12 0 0 1-.19 2.05 11.81 11.81 0 0 1 10 19.67 11.84 11.84 0 0 1 9.43 5.29h3v-49.94h-78.75a7 7 0 0 1-7-7v-8.08H327v-.07h-23.86v-25.83a10.46 10.46 0 0 1 3.76-8.05H304a1.56 1.56 0 0 1-1.55-1.56v-6a1.56 1.56 0 0 1 1.55-1.56h23V99h-78.75a7 7 0 0 1-7-7v-8.13H327V15.08h-96.11v288.35h18.31a7 7 0 0 1-7-7"/><path fill="#2e3033" d="M327.01 183.76v49.94h138.3v69.73-119.67zm138.31-99.89V15.08H327v68.79zM339.17 47.05l6.5-9.74v-6.5h30.86v6.46L381.4 47v35.75h-42.23zM327 99v26.66h12.48a1.56 1.56 0 0 1 1.56 1.56v6a1.56 1.56 0 0 1-1.56 1.56h-2.9a10.5 10.5 0 0 1 3.75 8.05v25.83H327v.07h46.17a22.86 22.86 0 0 1 7.13-44.58H378a13.71 13.71 0 0 1-13.72-13.7h4.57a13.72 13.72 0 0 1 13.15 9.71c2.08-5.07 6.35-9.77 14.29-9.77V115c-7.37 0-10 5.66-10.92 9.72a22.86 22.86 0 0 1 2.06 44h77.87V99z"/><path fill="#eff1f2" d="M327 83.87h-85.75V92a7 7 0 0 0 7 7h217.12V83.87z"/><path fill="#71767c" d="M218.43 319.12h259.66v8.84H218.43z"/><path fill="#fff" d="M239.22 368.65h11.43v118.54h-11.43z"/><path fill="#007bc0" d="M340.34 142.78a10.5 10.5 0 0 0-3.75-8.05h2.9a1.56 1.56 0 0 0 1.56-1.56v-6a1.56 1.56 0 0 0-1.56-1.56H304a1.56 1.56 0 0 0-1.55 1.56v6a1.56 1.56 0 0 0 1.55 1.56h2.91a10.46 10.46 0 0 0-3.76 8.05v25.83h37.2z"/><path fill="#004975" d="M381.4 82.79V47.05l-4.87-9.74v-6.5h-30.86v6.5l-6.5 9.74v35.74z"/><path fill="#001d33" d="M314.51 228.44a11.82 11.82 0 0 0-10-19.67 11.85 11.85 0 1 0-23.46-2.77v.69a12 12 0 0 0 .19 2.05 11.81 11.81 0 0 0-10 19.67 11.84 11.84 0 0 0-9.44 5.26h62.09a11.84 11.84 0 0 0-9.38-5.23"/><path fill="#eff1f2" d="M327 233.7h-84.8v62.73a7 7 0 0 0 7 7h216.11V233.7z"/><path fill="#56b0ff" d="M403.17 147a22.85 22.85 0 0 0-17.78-22.28c.93-4.06 3.55-9.72 10.92-9.72v-4.57c-7.94 0-12.21 4.7-14.29 9.77a13.72 13.72 0 0 0-13.14-9.77h-4.57A13.71 13.71 0 0 0 378 124.1h2.29a22.86 22.86 0 0 0-7.13 44.58h14.27A22.86 22.86 0 0 0 403.17 147"/><path fill="#eff1f2" d="M387.45 168.68h-146.2v8.08a7 7 0 0 0 7 7h217.12v-15.08zM203.87 15.08H16v288.35h187.87zm-16 272.92a9.42 9.42 0 0 1-9.42 9.42H38.87a6.82 6.82 0 0 1-6.87-6.8v-40.3h11.35L49 263.51h121.89l5.66-13.19h11.3zM53.78 263.1v-19.29C53.78 232 64 232 64 220.32l.9-24.49h13.17l.93 24.49C79 232 89.15 232 89.15 243.81v19.29zm42 0v-19.29C95.78 232 106 232 106 220.32l.9-24.49h13.21l.89 24.49c0 11.64 10.19 11.71 10.19 23.49v19.29zm92.05-88.77a9.44 9.44 0 0 1-9.42 9.43H38.87a6.83 6.83 0 0 1-6.87-6.83v-40.29h11.35L49 149.83h22v-17.05l6-10.67h-1.6v-12.5h35.25v12.5h-1.6l6 10.67v17.05h55.81l5.66-13.19h11.3zm0-84.81a9.44 9.44 0 0 1-9.42 9.48H38.87A6.83 6.83 0 0 1 32 92.12V51.83h11.35L49 65h71.14V53.78a10.48 10.48 0 0 1 3.76-8H121a1.56 1.56 0 0 1-1.55-1.56v-6a1.56 1.56 0 0 1 1.55-1.56h35.5a1.56 1.56 0 0 1 1.56 1.56v6a1.56 1.56 0 0 1-1.56 1.56h-2.9a10.48 10.48 0 0 1 3.75 8V65h13.55l5.66-13.19h11.3z"/><path fill="#002742" d="M157.34 53.78a10.48 10.48 0 0 0-3.75-8h2.9a1.56 1.56 0 0 0 1.56-1.56v-6a1.56 1.56 0 0 0-1.56-1.56H121a1.56 1.56 0 0 0-1.55 1.56v6a1.56 1.56 0 0 0 1.55 1.56h2.91a10.48 10.48 0 0 0-3.76 8V65h37.2z"/><path fill="#007bc0" d="m79 220.32-.89-24.49H64.88L64 220.32C64 232 53.8 232 53.8 243.81v19.29h35.37v-19.29C89.17 232 79 232 79 220.32"/><path fill="#0096e8" d="m121 220.32-.89-24.49h-13.23l-.9 24.49C106 232 95.8 232 95.8 243.81v19.29h35.37v-19.29C131.17 232 121 232 121 220.32"/><path fill="#fff" d="M170.89 263.51H49l-5.65-13.19H32v40.29a6.82 6.82 0 0 0 6.82 6.82h139.61a9.42 9.42 0 0 0 9.42-9.42v-37.69h-11.3zm0-198.51H49l-5.65-13.17H32v40.29A6.83 6.83 0 0 0 38.87 99h139.56a9.44 9.44 0 0 0 9.42-9.43V51.83h-11.3z"/><path fill="#004975" d="m115.08 132.78-6.03-10.67h1.6v-12.5H75.4v12.5H77l-6.03 10.67v17.05h44.11z"/><path fill="#fff" d="M170.89 149.83H49l-5.65-13.19H32v40.29a6.83 6.83 0 0 0 6.83 6.83h139.6a9.44 9.44 0 0 0 9.42-9.43v-37.69h-11.3z"/></g></g></svg>