<svg xmlns="http://www.w3.org/2000/svg" viewBox="0 0 1394 846.6"><path fill="none" d="M626.6 354.1c0-.1-.1-.1-.1-.2 0 .1 0 .2.1.2M744.9 233c.5-3.4.1-4.9.1-5 0 0 .3 1.5-.1 5m464.3 435.5c-70.2 6.6-121 38.1-136 48.5 15-10.3 65.9-41.8 136-48.5m-582-313c0-.1-.1-.2-.2-.3.1.1.2.2.2.3m-259.9 41.6c-7.5-6.7-15.5-14.3-23.8-22.5 8.3 8.2 16.3 15.9 23.8 22.5q0 .15 0 0m377.6-186.3c-3.9.7-7.9 1-11.9.7 0 0-5-6.2-12.5-19.9-4.3-8.1-7.7-16.7-10.2-25.6l.9-2.3-.9 2.3c2.4 8.9 5.8 17.5 10.2 25.6 7.5 13.7 12.5 19.8 12.5 19.8 4 .4 8 .2 11.9-.6.3 2.8.7 5.7 1.1 8.6.1.5.1 1 .2 1.4-.1-.5-.1-.9-.2-1.4-.3-2.9-.7-5.8-1.1-8.6m14.2-38.6s.1-.5.3-1.4c-.3.9-.4 1.4-.3 1.4l.4.7zm-13 47.2c3.6-3.6 6.7-7.7 9.3-12.1-3.3 1.7-6.8 2.9-10.4 3.5 3.6-.6 7.1-1.8 10.4-3.5-2.6 4.4-5.7 8.5-9.3 12.1m-449.3 76.4c3.8 3 6.7 5.4 6.7 5.4s-2.9-2.5-6.7-5.4M450 267.7q.15 0 0 0c-.7-.3-42.5-16-66.9-23-12.5-3.6-35.9-8.9-55.9-13.3 20 4.4 43.4 9.8 55.9 13.4 24 6.8 64.5 22 66.9 22.9m-123.8-12.3c-.5-.1-1-.3-1.5-.4.5.1 1 .3 1.5.4m-83.1-10.3c5-.8 9.7-1.4 14-1.7 6.1-.5 11.5-.7 15.8-.7-4.4 0-9.7.2-15.9.7-4.2.4-9 .9-13.9 1.7l-6.8 1.1c.1 5.5-.9 10.9-3.1 16 2.2-5 3.2-10.5 3.1-16z"/><path fill="none" d="M257.1 243.4c-1.8 2.6-4 4.9-6.5 6.9-8.6 6.9-14.4 10.3-17.3 11.9 2.9-1.6 8.7-5 17.2-11.8 2.5-2 4.7-4.4 6.6-7M450 267.8c-.4.1-.2.1 0 0m10.8-5.1c3.6-1.7 6.8-2.5 9.6-2.6-2.8.1-6 .9-9.6 2.6m-185.7-45.8c-1.1-.8-2.2-1.8-3.4-2.8l-.4-.3.3.3c1.3 1 2.4 2 3.5 2.8l-1-.8c-1-.8-1.9-1.6-2.8-2.4l-.4-.3c1 1 2 1.9 3.1 2.8zc4.7 3.8 10.4 6.1 16.4 6.7-6-.6-11.7-2.9-16.4-6.7M450 267.7h.1s1.5 1.8 3.5 4.3c-2-2.5-3.5-4.3-3.6-4.3.1 0 0 0 0 0m-179.1-54.4c-8.6-8.6-16-23.4-24.9-35.9 8.9 12.5 16.3 27.4 24.9 35.9m494.2 601.2-.4-.1zm-39.8-478.7c.2.5.4.9.7 1.4s.5 1.1.8 1.6c-.3-.6-.5-1.1-.8-1.6-.2-.5-.5-1-.7-1.4m483.9 236.5c-34.5-1.9-65.2-22.6-79.8-54-17.5 8.6-36.7 13.3-56.2 14V717c15-10.4 65.8-41.9 136-48.5z"/><path fill="#00512a" d="M416.4 49.5c6.3-6.4 14.7-10.2 23.6-10.8V23.1c-27.1 1.3-48.7 22.9-50 50h15.6c.7-8.9 4.5-17.3 10.8-23.6"/><path fill="none" d="M257.1 243.4c-4.3.4-9 .9-14 1.7l-6.8 1.1c.1 5.5-.9 10.9-3.1 16h.1c2.9-1.5 8.7-5 17.3-11.9 2.5-2 4.6-4.3 6.5-6.9m39.7 52.3q0 .15 0 0m-8-51.4c-.9 2.2-2 4.5-3.1 6.9-4.6 9.4-10.8 18-18.1 25.4 12.2 6.8 23.3 14.3 26.8 17.1l2.5 2c7.7-8.6 14.6-17.9 20.8-27.6 2.5-4.1 4.9-8.6 7.1-13.2-15.9-4.6-30.1-8.9-36-10.6m-13.7-27.4c-1.1-.8-2.2-1.8-3.4-2.8l-.3-.3-.1-.1c.9.9 1.8 1.7 2.8 2.4z"/><path fill="#004523" d="M267.5 276.6q.15 0 0 0c7.4-7.4 13.5-16 18.2-25.4 1.1-2.4 2.2-4.7 3.1-6.9l-2.8-.8c-.2 0-4.9-.7-13.1-.7-4.4 0-9.7.2-15.8.7-1.8 2.6-4 5-6.5 7-8.6 6.8-14.3 10.3-17.2 11.8 6.6 2 13 4.3 19.3 6.9 4.8 2 9.9 4.7 14.8 7.4"/><path fill="#004523" d="M288.8 244.3c-.9 2.2-2 4.5-3.1 6.9-4.7 9.4-10.8 18-18.2 25.4 7.4-7.5 13.5-16 18.1-25.4 1.3-2.4 2.3-4.7 3.2-6.9"/><path fill="#002c14" d="M324.7 255c-2.2 4.6-4.6 9.1-7.1 13.2-6.2 9.8-13.1 19-20.8 27.6 3.8 3 6.7 5.4 6.7 5.4.4.4 4 3.9 9.4 9.3 8.9-11.1 22.2-28.6 29-43.2 1-2 1.9-4.2 2.7-6.4-1.5-.5-3-.9-4.6-1.4-4.7-1.4-9.4-2.8-14-4.2-.3 0-.8-.2-1.3-.3"/><path fill="#002c14" d="M317.6 268.1c-6.2 9.8-13.1 19-20.8 27.6 7.7-8.6 14.6-17.8 20.8-27.6 2.5-4.1 4.9-8.6 7.1-13.2-2.2 4.6-4.6 9.1-7.1 13.2"/><path fill="#00512a" d="M450.1 267.7s-.1 0-.1.1c0 0 .1 0 .1-.1"/><path fill="#00512a" d="M486.8 266c5.1 2.9 53.2 31 57.7 33.6 4.4 2.6 5.9 4.9 2.1 6.4s-11.2 3.5-17.6 5.6-7 1.8-11.1.1-29.4-13.9-39.3-18.2c-10-4.2-11.1-4.8-13.9-8-1.8-2.1-7.4-8.9-11-13.6-1.9-2.5-3.5-4.4-3.5-4.4s-43-16.1-67-22.9c-12.5-3.6-35.9-9-55.9-13.4-19.4-4.3-35.6-7.7-35.6-7.7h-.1.1l-5.6 19.8 2.9.8c5.9 1.7 20.1 6 35.9 10.7.5.1 1 .3 1.5.4 4.6 1.4 9.3 2.8 14 4.2 1.5.5 3.1.9 4.6 1.4 17.4 5.3 33.3 10.2 38.6 12.2C430 290.4 548 350.4 548 350.4s13.9-13.5 21.1-27.1 4.4-16.8-10.8-28.2c-15.2-11.3-57.6-35-57.8-35.1-2.4 1.8-5.1 3.2-8 4.2-2 .5-3.8 1.1-5.7 1.8"/><path fill="#00512a" d="M288.8 244.3c5.9 1.7 20.1 6 35.9 10.7-15.8-4.8-30-9.1-35.9-10.7 0-.1 0 0 0 0m-2.8-.9 2.8.8zm54.2 16.2"/><path fill="#232628" d="M246 177.4c8.9 12.5 16.3 27.4 24.9 36l.4.3c-.1-.1-.3-.2-.4-.4l.4.4.4.3c1.2 1.1 2.3 2 3.4 2.8 4.7 3.8 10.4 6.1 16.4 6.7v-.1s16.2 3.4 35.7 7.7c20 4.4 43.3 9.8 55.9 13.3 24.4 7 66.2 22.7 67 23 .8-.4 3.4-1.6 10.7-5 3.6-1.7 6.8-2.5 9.6-2.6 7.9-.5 12.7 3.8 16.4 5.9 1.8-.7 3.7-1.3 5.6-1.8 2.9-1 5.6-2.4 8-4.2 0 0-13-6.9-22.1-11.5s-43.7-19.3-58-24.7-44.8-15-61.4-20-43.9-12.5-52.5-28c-7.4-13.4-19.6-34.2-20.5-35.6L243.4 174c.9 1.2 1.8 2.3 2.6 3.4m39.9-37.3"/><path fill="#232628" d="M270.9 213.3c.1.1.3.2.4.4l.1.1zm56.3 18c-19.4-4.3-35.7-7.7-35.7-7.7v.1h.1s16.2 3.3 35.6 7.6m165.2 32.9c-1.9.5-3.7 1.1-5.6 1.8 1.9-.7 3.7-1.3 5.6-1.8 2.9-.9 5.6-2.4 8-4.2-2.5 1.9-5.2 3.2-8 4.2"/><path fill="#1a1c1d" d="M464.7 285.6c2.8 3.2 3.9 3.8 13.8 8 10 4.2 35.2 16.3 39.4 18.1s4.5 2 10.9-.1 13.7-4.1 17.5-5.6 2.6-3.7-1.8-6.3-52.8-30.9-57.8-33.7c-3.7-2.1-8.5-6.4-16.4-5.9-2.8.2-6 .9-9.6 2.6-7.3 3.4-9.9 4.6-10.7 5 0 0 1.5 1.8 3.5 4.4 3.8 4.5 9.4 11.4 11.2 13.5"/><path fill="#1a1c1d" d="M486.8 266s-.1 0 0 0c5 2.8 53.3 31.1 57.8 33.7 4.4 2.6 5.6 4.7 1.8 6.3-3.8 1.5-11 3.5-17.5 5.6-6.4 2.1-6.8 1.9-10.9.1s-29.4-13.8-39.4-18.1c-10-4.2-11.1-4.8-13.8-8-1.8-2.1-7.4-9-11.1-13.6 3.7 4.6 9.2 11.5 11 13.6 2.8 3.2 3.9 3.8 13.9 8s35.2 16.4 39.3 18.2 4.7 2 11.1-.1 13.9-4.1 17.6-5.6 2.3-3.9-2.1-6.4c-4.4-2.7-52.6-30.8-57.7-33.7m0 0c-3.7-2.1-8.5-6.4-16.4-5.9 7.9-.5 12.7 3.8 16.4 5.9m0 0"/><path fill="#00512a" d="M462.7 472.9c-17.4-19.5-74.5-83.4-95.3-106.1-17.1-18.7-41.2-43-54.4-56.2l-9.4-9.4s-3-2.3-6.7-5.4l-2.5-2c-3.5-2.8-14.6-10.3-26.8-17.1-4.9-2.7-10-5.3-14.9-7.5-6.4-2.6-12.8-5-19.4-6.9 0 0 .1 0 .1-.1-9.3-2.9-18.7-5.4-24.6-6.9-3.7-1-6-1.5-6-1.5-19.5 23.1 19.1 37.2 30 43.1 0 0-.1 0-.1-.1-10.7-5.9-1.2-22.1 15.8-14.7 14 6.1 56.9 54.5 95.2 92.5 8.2 8.1 16.3 15.8 23.8 22.5.1.1-27.9 23.6-39 11.3 25.1 29.4 63.3 68.9 81.1 87 2.5 2.6 5.2 4.4 7.9 5.6 12.5-5.4 25.3-12.9 38.5-23.1 2.1-1.6 4.4-3.3 6.7-5"/><path fill="#00512a" d="M467.8 478.6s-1.9-2.1-5.1-5.8c-2.3 1.7-4.6 3.5-6.9 5.3-13.1 10.2-25.9 17.7-38.5 23.1 23 10.5 50.5-22.6 50.5-22.6M233.2 262.2q.15 0 0 0c.1 0 0 0 0 0m61.2 31.5c-3.5-2.8-14.5-10.3-26.8-17.1 12.2 6.8 23.3 14.4 26.8 17.1l2.5 2zm-61.2-31.5c-9.3-2.9-18.7-5.4-24.6-7 5.8 1.6 15.2 4.1 24.6 7m34.4 14.4c-4.9-2.7-10-5.3-14.9-7.5-6.3-2.6-12.8-4.9-19.3-6.9 0 0-.1 0-.1.1 6.6 2 13.1 4.3 19.4 6.9 4.8 2.1 9.9 4.7 14.9 7.4m36 24.6 9.4 9.4c-5.4-5.5-9-9-9.4-9.4"/><path fill="#006c3a" d="M367.3 397.2c-7.5-6.7-15.5-14.4-23.7-22.5-38.4-37.9-81.4-86.1-95.3-92.2-17-7.4-26.1 8.6-15.4 14.5-.1 0-.1-.1-.2-.1q3.45 1.95 6.6 4.2c7.9 5.5 15.1 12.9 22.3 23.2l.4.6c9.7 13.8 41.2 54.8 66.3 83.6l.1.1-.1-.1c10.8 12.3 38.7-10.9 39-11.3"/><path fill="#006c3a" d="M248.2 282.4c14 6.1 57 54.3 95.3 92.2-38.3-38-81.2-86.4-95.2-92.5-17-7.4-26.5 8.7-15.8 14.7 0 0 .1 0 .1.1.1 0 .1.1.2.1-10.7-6-1.6-22 15.4-14.6m119.1 114.8c-.3.4-28.2 23.6-39.1 11.2l.1.1c11.1 12.3 39.2-11.2 39-11.3"/><g fill="#a4abb3"><circle cx="210.5" cy="207.9" r="15"/><path d="M436.7 846.2V832c-3.4 8.1-6.2 13.7-6.4 14.2zm-8.9-268.1v165.8c2.7 2.3 5.8 4.7 8.9 7.6V578.1zm104.2 0h-4.2v268.1h9V578.1z"/></g><path fill="none" d="M764.7 814.5h.4l-.4-.1z"/><path fill="#219557" d="M102.2 417.4h40.9v-40.9h-40.9zm5.9-35.1h29.2v29.2h-29.2zm177.7-242.2-45.8-4.8-39.4 30.3c.7-.4 1.4-.7 2.2-1.1 4.5-2.2 9-3 13.4-3 .5 0 1 0 1.5.1.5 0 1 .1 1.4.1 1.9.2 3.8.6 5.6 1.1.9.3 1.8.5 2.7.9 1.7.6 3.4 1.4 5 2.2.8.4 1.6.9 2.3 1.3.8.5 1.5.9 2.2 1.4 1.1.7 2.1 1.5 3 2.3 1.2 1 2.4 2.1 3.4 3.2l.1.1 42.5-34.1zm433.3 261.8c-.2-.5-.5-1-.7-1.5 0-.1-.1-.1-.1-.2v.2l-.1 1.6-4.5 73.3 26-3.7-.7-20.6c0-.5 0-1.6.2-3.1.3-4.2 1-11.7 1.7-18.8.5-5.2 1-10.2 1.4-13.5-8-.8-18.2-3.9-23.2-13.7m25.9-14.7-12.1-7.9 4.4-5 3.7 1.2c-.8-2.3-1.6-4.7-2.5-7-4.1-11.5-8.3-22.5-11.7-29.7-.3-.5-.5-1.1-.8-1.6-.2-.5-.5-.9-.7-1.4-.1-.3-.3-.5-.4-.8-.8-1.7-1.6-3.4-2.3-4.9l-2.7 44-1 16.3 23.5-.3 3.4-.6c-.3-.8-.6-1.6-.8-2.3"/><path fill="#007a42" d="M728.8 249.2c-1 .5-2 1.1-2.9 1.7-8.3 5.5-12.9 15.2-12 25.1l3.4 23.6c1.4-7.1 4.9-14.1 10-23.1 8.3-14.9 12.8-25.7 15.1-33.2.2-.5.3-1 .4-1.4.1-.2.1-.3.1-.5z"/><g fill="#eff1f2"><path d="m847.4 752.5-19.3-122c0-.1-13.1-61.5-27-114.8-.8 2.7-1.9 5.9-2.5 8.3l-.3 1.2c-.1.5-.3 1-.4 1.4s-.2.7-.3 1.1c-.4 1.6-.8 3.2-1.2 4.9-1.2 4.6-2.3 9.2-3.4 13.7-1 4-1.9 7.9-2.8 11.8-6.4 28.5-10.1 54.1-5.2 72 13.4 49.5 20 89 14.7 122.6h-7.1c-2 12.6-4.6 24.5-7.4 35.7H868l-9.1-35.8zM793 546.3c1.1-4.5 2.2-9.1 3.4-13.7-1.2 4.6-2.3 9.2-3.4 13.7M536.8 728.2h42.9v60.2h-42.9zm221.5 24.5-3.3-32.2-10-96.2-4.8-139.6-.5-13.1-.7-20.6v-.3c0-.6 0-1.4.1-2.6v-.2c.3-4.2 1-11.7 1.7-18.8.5-5.1 1-10.1 1.4-13.4-.4 3.3-.9 8.3-1.4 13.5-.7 7.1-1.4 14.6-1.7 18.8-.2 1.5-.2 2.6-.2 3.1l.7 20.6-26 3.7 4.5-73.3-52.2 4.8s-14.6 9.3-30.6 11.3c-1.1.1-3.1-.2-5.5-.9v64.2l7.2-7.2c2.1-6.8 11.1-34.8 21.6-41.8 11.9-8.1 28.1-5 36.2 7 8.1 11.9 5 28.1-6.9 36.2-9.2 6.3-35.2 2.9-46.2 1.1l-11.9 11.9v16.4H674V523h-2.4l-6.5 48.3h-5.4v7.2h32.5v210.3H762z"/><path d="M588.6 728.2h94.7v60.2h-94.7zm24.2-285.8 12 12v-32.8c-4-4.5-10.3-11.7-16.7-19.4-4.8 1-9.6 2.2-14.4 3.5 8.3 7.9 15.7 27 19.1 36.7m622.3 224.9c-5.4 0-10.7.2-15.8.5v-95.5c51.6-2.8 91.1-46.8 88.4-98.4-1.3-24.7-12.4-47.8-30.7-64.4 3.8-8.7 5.8-18.1 5.8-27.6 0-37.8-68.5-153.5-68.5-153.5s-11.8 19.8-25.5 45.8c-18.1-82.1-120.5-255-120.5-255s-123.2 208-123.2 276c0 9.1 1 18.1 3 26.9-39.1 66.4-16.9 151.9 49.5 191 20 11.8 42.6 18.3 65.7 19.2v177.5c-19.7-37.2-92.7-164.8-203.6-245.5.3 22.9-3.4 50.6-4.5 90.4-.1 1.8-.1 3.7-.1 5.4-.2 6.6.3 13.2 1.4 19.7.6 3.7 1.9 7.2 3.6 10.5l.4.7c.3.5.5.9.8 1.4.2.3.4.6.5.9l1.1 1.9c.1.3.3.5.4.8l1.1 2 .3.5c.4.6.7 1.2 1 1.8.1.2.2.3.3.5l1.1 2 .3.5 1 2 .2.4 1 1.9.1.1 1 2 .2.4 1 1.9.2.3c.3.6.6 1.3.9 1.9v.1l.9 1.8.1.2c.3.6.6 1.2.8 1.8 0 .1.1.2.1.3.3.6.5 1.2.8 1.8l.1.2c.3.6.5 1.2.8 1.8s.5 1.2.8 1.8c0 .1.1.2.1.2.2.6.5 1.1.7 1.7.1.1.1.1.1.2.5 1.2.9 2.4 1.4 3.5v.2c.2.6.4 1.1.6 1.7l.1.2c.2.6.4 1.1.6 1.7v.1c.2.6.4 1.1.6 1.7s.4 1.1.5 1.7l.1.2c.2.5.3 1.1.5 1.6v.2c.3 1.1.6 2.3.9 3.4v.2l.4 1.7v.2c.1.6.2 1.1.4 1.7l.3 1.8c.1.6.2 1.2.3 1.7v.2l.3 1.8v.1c.2 1.2.4 2.4.5 3.7v.1l.2 1.8v.1c.1 1.3.3 2.6.4 3.9 0 .7.1 1.3.2 2v.1c.2 2 .3 4.2.4 6.3v.1l.1 2.2c.6 15.5.1 35.1.1 63.8v15.6c.1 11 .2 23.2.5 36.7H1394c0 .3-60.5-120.8-158.9-120.8m-25.9 1.2c-70.2 6.7-121 38.1-136 48.5V532.3c19.5-.7 38.7-5.4 56.2-14 14.6 31.4 45.3 52.1 79.8 54zm-663-93.1-.2-1.8h-2.4v4.5h48.2v-7.2h-5.3l-.4-2.5-.6 7h-2.6v2.6h-34v-2.6zm-18.4 24.1h-91.2v107.2h91.2v21.5h-91.2v23.3c5.6 5.2 11 12.2 12.9 23.7.6 3.9.6 8.4 0 13.2h78.2v-81.6zV578zm51.9 0h-42.9v107.3h42.9zh8.9v107.3h94.7V599.5h-94.7zm159.2-148.6.2 5.2z"/><path d="M500.8 578.1v-4.5h-3.4l-5.3-69.1h-.9v-11.2H552v11.2h-.7l-1.5 22.8h30.7l-.6-4.6h-2.4v-17.9h47.3v-43.3L612.2 449c-8.4 1.6-35.4 6.2-46.1.6-11-5.7-16.2-18.1-13.2-29.6-29.2 12.3-59.4 29.7-90.3 53 3.3 3.6 5.1 5.8 5.1 5.8s-27.6 33-50.5 22.6C280.9 559.8 174 372.6 0 788.4h339.4c3.4-3.5 7.1-5.7 9.2-8.2 4-4.9 3.6-12.9 3.6-12.9h7.6c5.6-15.1 18.1-20.3 23.7-27.2 6.4-7.9 5.7-20.8 5.7-20.8h28.9s-.7 12.9 5.7 20.8c1.1 1.3 2.4 2.6 3.9 3.8V578.1zM110.6 187.9c18.7 12.9 41.8 19.8 41.8 19.8l5.6-3.9c-7.5-2.1-28.3-8.7-44.3-19.8C94 170.3 87.6 148.2 85 141.6c-.5-1.1-.8-2.4-.7-3.6l-.2-.2-2.7 5.8c-.1-.1 8.2 29.8 29.2 44.3m673.8 30.5-.4.1h-.2l-36.7 9-2.1.5c0 .1.3 1.6-.1 5-.3 2-.8 4.7-1.8 8.2 0 .2-.1.3-.1.5-.1.5-.3.9-.4 1.4-2.4 7.5-6.9 18.3-15.1 33.2-5 9-8.5 16.1-10 23.1v.2c-1.7 8.7-.3 17.5 5.3 30.2.7 1.6 1.5 3.2 2.3 4.9.1.3.3.5.4.8.2.5.5.9.7 1.4.3.5.5 1.1.8 1.6 3.4 7.2 7.6 18.2 11.7 29.7.8 2.3 1.7 4.7 2.5 7l1.7.6 13.5 4.5 13.8 4.6 10.7-1.9s4.9-3.1 12.4-7.4c-17.9-100.7-9.2-155.2-8.9-157.2M745 387.2c.3.8.5 1.5.8 2.2l2.1-.4zm39.4-168.8"/></g><path fill="#43464a" d="M785 630.1c-4.8-17.9-1.2-43.5 5.2-72 .9-3.9 1.8-7.8 2.8-11.8 1.1-4.5 2.2-9.1 3.4-13.7.4-1.6.8-3.2 1.2-4.9.1-.4.2-.7.3-1.1 0-.1 0-.1.1-.2.1-.4.2-.7.3-1.1v-.2l.3-1.2c.6-2.3 1.7-5.6 2.5-8.3v-.1c-6.8-26.2-13.8-50.4-19.6-64.4-4.5-10.9-6.8-24.2-8-35-.4-4-.7-7.7-.9-10.7h-.2l-11.8 5.9-7.8 3.9c-.1 0-4.7.7-10.6.1-.4 3.3-.9 8.3-1.4 13.4-.7 7.1-1.4 14.6-1.7 18.8v.2c-.1 1.2-.1 2.1-.1 2.6v.3l.2 5.2 1 28.6L745 624l10 96.2 3.3 32.2h41.4c5.3-33.3-1.3-72.9-14.7-122.3"/><path fill="#2e3033" d="M887.1 751.6V736c0-28.7.5-48.3-.1-63.8l-.1-2.2v-.1c-.1-2.2-.2-4.3-.4-6.3v-.1c0-.7-.1-1.3-.2-2-.1-1.3-.2-2.6-.4-3.9v-.1l-.2-1.8v-.1c-.2-1.2-.3-2.5-.5-3.7v-.1l-.3-1.8v-.2c-.1-.6-.2-1.2-.3-1.7l-.3-1.8c-.1-.6-.2-1.1-.4-1.7v-.2l-.4-1.7v-.2c-.3-1.1-.6-2.3-.9-3.4v-.2c-.2-.5-.3-1.1-.5-1.6l-.1-.2c-.2-.6-.3-1.1-.5-1.7s-.4-1.2-.6-1.7v-.1c-.2-.6-.4-1.1-.6-1.7l-.1-.2c-.2-.6-.4-1.1-.6-1.7v-.2c-.4-1.2-.9-2.3-1.4-3.5 0-.1 0-.1-.1-.2-.2-.6-.5-1.1-.7-1.7 0-.1-.1-.2-.1-.2-.2-.6-.5-1.2-.8-1.8s-.5-1.2-.8-1.8l-.1-.2c-.3-.6-.5-1.2-.8-1.8 0-.1-.1-.2-.1-.3-.3-.6-.6-1.2-.8-1.8l-.1-.2-.9-1.8v-.1c-.3-.6-.6-1.3-.9-1.9l-.2-.3-1-1.9-.2-.4-1-2-.1-.1-1-1.9-.2-.4-1-2-.3-.5-1.1-2c-.1-.2-.2-.3-.3-.5-.3-.6-.6-1.2-1-1.8l-.3-.5-1.1-2c-.2-.3-.3-.5-.4-.8l-1.1-1.9c-.2-.3-.3-.6-.5-.9-.3-.5-.5-.9-.8-1.4l-.4-.7q-2.7-4.95-3.6-10.5c-1.1-6.5-1.6-13.1-1.4-19.7 0-1.8 0-3.6.1-5.4 1-39.8 4.8-67.4 4.5-90.4 0-2.5-.1-5-.3-7.4-.1 0-.2 0-.3.1l-7.2 1.8c-18.8 4.6-36.4 8.9-36.4 8.6-3-11.1-6.5-23.9-9.8-36.6-3-11.4-5.8-22.6-8.2-32.5-11.9 3.5-21 6.1-24 6.9q-.6.15-.9.3c.2 3.1.5 6.7.9 10.7 1.2 10.8 3.5 24.1 8 35 5.8 14.1 12.8 38.3 19.6 64.4v.1c13.9 53.3 26.9 114.6 27 114.8l19.3 122 11.4.1h.4l27.8.2c.2-.6.2-1 .2-1.4 0 .1 0 0 0 0"/><path fill="#c1c7cc" d="M209.1 248.9c.3 2.1.1 4.3-.5 6.3 5.9 1.5 15.3 4 24.6 6.9 2.2-5 3.2-10.5 3.1-16-10.2 1.7-19.1 3.1-27.2 2.8m370.6 539.5v57.8h8.9v-118h-8.9zm0-188.9v107.3h8.9V599.5zm-82.3-25.9H546l-4-39.6h-.6v-6.7h8.5l1.5-22.8h-59.2zm-60.7 177.9c-3.1-2.9-6.3-5.3-8.9-7.6-1.5-1.3-2.8-2.5-3.9-3.8-6.5-7.9-5.7-20.8-5.7-20.8h-28.9s.7 12.9-5.7 20.8c-5.6 6.8-18.1 12-23.7 27.2h10.4s-.4 8 3.6 12.9c2.1 2.6 5.8 4.8 9.2 8.2 3.1 3.1 5.8 7.3 6.9 13.6 2.5 15-11.7 43.5-12 44.2h52.5c.3-.5 3-6.1 6.4-14.2 5-11.9 11.2-29.1 12.9-43.6.6-4.8.6-9.3 0-13.2-2.1-11.5-7.5-18.5-13.1-23.7M915.9 835l-27.4-20.7h-.6l-13.3.1-2.5 32.1h37.7c4.1 0 7.4-3.3 7.4-7.4 0-1.5-.4-2.9-1.3-4.1m-138-20.5h-16.3l-60.2 22 .2.2c5.2 6.3 12.9 9.9 21 9.9h61.9l-6.5-31.7z"/><path fill="#b8efc9" d="M590.3 403.3c-12.8-6.7-28.5-1.7-35.2 11-.9 1.8-1.6 3.7-2.1 5.6 13.8-5.8 27.3-10.5 40.7-14.1-1.1-1-2.2-1.9-3.4-2.5"/><path fill="#b8efc9" d="M566.2 449.5c10.7 5.6 37.7 1 46.1-.6l12.6 12.5v-7l-12-12c-3.4-9.7-10.8-28.8-19.1-36.6-13.4 3.6-26.9 8.3-40.7 14.1-3.1 11.5 2.1 23.9 13.1 29.6"/><path fill="#5ebd82" d="M807.3 275.7c-2.7-11.1-4.4-31.5 3-45.6l.6-1.1h-.2c-2.6-.3-5.1-.5-7.6-1-5.1-1-10.8-2.7-13.3-4.5-.6-.5-1.2-.9-1.7-1.3-3.2-2.4-3.7-3.5-3.7-3.7-.3 2-9 56.4 8.8 157.5l1.5-.9c13.8-7.8 35.1-19.2 51.9-24.6-9.3-12.4-32.1-44.8-39.3-74.8m67.2 99.9c-18.8 5.8-52.1 15.5-75.5 22.3-.5.1-1 .3-1.4.4 2.3 9.8 5.2 21.1 8.2 32.5 3.3 12.7 6.8 25.5 9.8 36.6.1.2 17.6-4 36.4-8.6l7.2-1.8c.1 0 .2 0 .3-.1 19.2-4.7 37.3-9.3 37.3-9.3zm-228.6-41c-10.3-2.3-20.7 2.8-25.1 12.4 2.3 1.9 4.3 4.2 5.7 6.9 0 .1.1.1.1.2.2.3.3.7.5 1 .1.1.1.2.2.3.2.4.4.8.5 1.3 1.4 3.8 1.9 16.8 2.1 29.1l17.6 3c7.3-11.4 14-22.7 15.2-27.7 2.6-11.9-4.9-23.8-16.8-26.5m-8.3 62.4-7.7-4v5.4c0 7.5-.1 13-.1 13v3.5c2.8-4 6.8-9.8 11.1-16.2l-2.7-1.4z"/><path fill="#9be4b3" d="M641.7 476.5c11 1.8 37 5.2 46.2-1.1 11.9-8.1 15-24.3 6.9-36.2s-24.3-15-36.2-7c-10.5 7.1-19.5 35-21.6 41.8l-7.2 7.2v7z"/><path fill="#86d7a2" d="m842.6 252.3-2-5.2c-6.8-14.9-16.7-19.9-29.7-18.2l-.6 1.1c-7.4 14.1-5.7 34.5-3 45.6 7.2 30 30 62.5 39.3 74.8 6.8-2.2 12.9-3.4 17.4-2.9 8.8.9 16.2 6 21.6 16 0 .1.1.1.1.2zM629.9 398.4V393l-4.7-2.5 3.3-4.8 1.4.2c-.2-12.4-.7-25.3-2.1-29.1-.2-.4-.3-.9-.5-1.3 0-.1-.1-.2-.2-.3-.2-.3-.3-.7-.5-1 0-.1-.1-.1-.1-.2-1.4-2.7-3.4-5.1-5.7-6.9-5.8-4.7-13.9-6.3-21.4-3.6-11.5 4.1-17.5 16.9-13.4 28.4 2 5.6 12.2 18.6 22.2 30.5 6.4 7.7 12.8 14.9 16.7 19.4v83.1h5v-93.4c-.1-.1 0-5.6 0-13.1"/><path fill="#8a9097" d="M436.7 578.1v21.4h91.1v-21.4h-27zm0 150.1h91.1v-21.4h-91.1zm393.5-516.8c-1.5-5.4-3.9-10.4-7.1-15-6.8-9.2-16.1-16.2-25.9-19.7-8.3-3-15.1-9.3-18.6-17.4-1.8-4.2-3.8-8.5-5.3-11.6-9.7-19.6-24-29.1-50.4-18.7-10.9 4.3-15.1 12.2-16.2 20.5l-.1.2c-6.8 7.4-10.9 22.9 5.7 33l4.8 19.8c0 .3 0 .5-.1.8-1.2 7.3-3.2 19.5-1.6 26.3 1.9 7.8 5.5 15.2 10.6 21.4.9-.6 1.9-1.2 2.9-1.7l14.2-7.9c1-3.5 1.6-6.2 1.8-8.2.4-3.5.1-5 .1-5l2.1-.5c-.3-2.1-.6-4.4-.8-6.7-.1-.4-.1-.9-.2-1.4-.4-2.9-.8-5.8-1.2-8.6-3.9.7-7.9 1-11.9.7 0 0-5-6.2-12.5-19.8-4.3-8.1-7.7-16.7-10.1-25.6l.8-2.3v-.1c9.7 14.6 36.5 11.3 48.2 9.1l-.4-.7s.1-.5.3-1.4c.9-4 4.2-15.2 10.5-10.9 6.2 4.2.8 18.1-1.5 23.4l15.6 35.2.4-.1c.1.2.6 1.3 3.7 3.7.5.4 1.1.8 1.7 1.3 2.5 1.8 8.2 3.5 13.3 4.5 2.5.5 5 .7 7.6 1h.2c12.9-1.7 22.8 3.3 29.7 18.2l2 5.2.4-.1s3.8-5.3 4.1-16.4c.2-8.8-2.6-16.7-16.8-24.5M580.6 527.3h9v6.7h-.6l-2.9 34.4.4 2.5h78.6l6.5-48.2h-91.7z"/><path fill="#71767c" d="M500.8 578.1h42.8v-4.5h-42.8zm-9.5-73.6h60.8v-11.3h-60.8zm100.5 66.4h67.9v7.2h-67.9zm38.1-66.1h-52.4v17.9H674v-17.9z"/><path fill="#fff" d="M160.7 359h-23.4v-20.5h-5.8V359H114v-20.5h-5.8V359H84.7v23.4H64.3v5.8h20.4v17.5H64.3v5.8h20.4v23.4h23.4v20.5h5.8v-20.5h17.5v20.5h5.8v-20.5h23.4v-23.4H181v-5.8h-20.4v-17.5H181v-5.8h-20.4V359zm-5.9 70.1H90.6v-64.3h64.3v64.3zM480.1 39.6c-9.2-9.6-21.7-15.2-34.9-15.9v5.2c25.8 1.4 45.6 23.6 44.2 49.4s-23.6 45.6-49.4 44.2c-23.8-1.3-42.9-20.3-44.2-44.2h-5.2c1.4 28.7 25.9 50.9 54.6 49.4 28.7-1.4 50.9-25.9 49.4-54.6-.6-12.5-5.7-24.5-14.5-33.5m179.7 538.5h-123v21.4h146.5v-21.4zm-71.2 128.7h-51.8v21.4h146.5v-21.4zM549.5 534h40.1v-6.7h-48.2v6.7h.6z"/><path fill="#e0e2e5" d="M367 150v43.1l43.1-43.1h107.7V0H367zm78.2-121.1v-5.2c13.2.6 25.7 6.3 34.9 15.9 8.7 9.1 13.9 21 14.5 33.6 1.4 28.7-20.7 53.2-49.4 54.6s-53.2-20.7-54.6-49.4h5.2c1.3 23.8 20.4 42.8 44.2 44.2 25.8 1.4 48-18.3 49.4-44.2 1.5-25.9-18.3-48.1-44.2-49.5m-5.1-5.8v15.6c-8.9.6-17.3 4.4-23.6 10.7S406.3 64.1 405.7 73H390c1.3-27 23-48.6 50.1-49.9M210.5 174.9c-18.2 0-33 14.8-33 33s14.8 33 33 33 33-14.8 33-33-14.8-33-33-33m0 48c-8.3 0-15-6.7-15-15s6.7-15 15-15 15 6.7 15 15c0 8.2-6.7 15-15 15M739.1 448c-.1 1.1-.1 2-.1 2.6 0-.5 0-1.4.1-2.6m-.2 2.9.8 20.7.4 13.1-1-28.6zm0 0v-.2zm59 75.5c0 .1 0 .1-.1.2.1-.5.3-1 .4-1.4v.2c-.1.3-.2.6-.3 1m-35.9 262 2.7 26-.2-.1.2.1v-.1l.4.1h12.8l.1.4c.1-.2.2-.3.3-.5 2.2-8.3 4.6-16.9 6.9-26 2.8-11.2 5.4-23 7.4-35.7h-34.3zm34.4-255.8c-1.2 4.6-2.3 9.2-3.4 13.7 1.1-4.5 2.2-9.1 3.4-13.7m90.7 219.1v1.1l-27.8-.2h-.4l9.1 35.8 6.7 26.1 13.3-.1h.3c-.3-9.2-.5-17.8-.7-26-.3-13.6-.5-25.7-.5-36.7M744.9 210.8q.15 0 0 0c3.7-.6 7.2-1.8 10.5-3.5-2.6 4.4-5.8 8.5-9.3 12.1.1.5.1.9.2 1.4.3 2.3.6 4.6.8 6.7l36.7-9h.2l-15.6-35.2c2.4-5.3 7.8-19.2 1.5-23.4s-9.6 6.9-10.5 10.9c-.2.8-.3 1.4-.3 1.4l.4.7c-11.7 2.2-38.4 5.5-48.1-9v-.1l-.9 2.4c2.4 8.9 5.8 17.5 10.2 25.6 7.5 13.7 12.5 19.9 12.5 19.9 3.8.1 7.8-.1 11.7-.9m143.9 159.9c-1-2.6-2-4.9-3.2-7.1-5.4-10-12.8-15.2-21.6-16-4.5-.4-10.6.8-17.4 2.9-16.8 5.4-38.1 16.7-51.9 24.6l-1.5.9c-7.5 4.3-12.4 7.4-12.4 7.4l-10.7 1.9-13.8-4.6-13.5-4.5-1.7-.6-3.7-1.2-4.4 5 12.1 7.9 2.9 1.9-2.1.4-3.4.6 3.4 8.3 4 9.7.9 2.2.2.4 2 4.9 7.8-3.9 11.8-5.9h.2q.3 0 .9-.3c3-.9 12.1-3.5 24-6.9.5-.1 1-.3 1.4-.4 23.4-6.8 56.7-16.5 75.5-22.3 7-2.2 12.1-3.8 13.8-4.5h.1c.3-.1.5-.2.5-.3-.2-.4-.2-.5-.2-.5"/><g fill="#d0d4d8"><path d="M108.1 382.3h29.2v29.2h-29.2z"/><path d="M48.1 321.7v149.7h149.7V365.6l43.9-43.9zm133 66.5h-20.4v17.5h20.4v5.8h-20.4v23.4h-23.4v20.5h-5.8v-20.5H114v20.5h-5.8v-20.5H84.7v-23.4H64.3v-5.8h20.4v-17.5H64.3v-5.8h20.4V359h23.4v-20.5h5.8V359h17.5v-20.5h5.8V359h23.4v23.3H181v5.9z"/><path d="M90.6 429.1h64.3v-64.3H90.6zm11.6-52.6h40.9v40.9h-40.9zm172.9-159.6-1-.8c-1.1-.9-2.2-1.8-3.1-2.8-8.6-8.6-16-23.4-24.9-35.9-.8-1.1-1.7-2.1-2.6-3.1l-.1-.1c-1-1.1-2.1-2.1-3.4-3.2-.9-.8-2-1.6-3-2.3-.7-.5-1.4-1-2.2-1.4-.8-.5-1.5-.9-2.3-1.3-1.6-.8-3.3-1.6-5-2.2l-2.7-.9c-1.8-.5-3.7-.9-5.6-1.1-.5-.1-1-.1-1.4-.1-.5 0-1 0-1.5-.1-4.4-.1-8.9.8-13.4 3-.8.4-1.5.7-2.2 1.1-.5.3-33.4-2.8-46.2-4.8-8.5-1.5-17-3.6-25.2-6.3 0 0-21.8-9.2-28.8-12.6-5.1-2.5-12.8-6.2-12.8-6.2s-3-.4-3.4 2.1c-.1 1.3.1 2.5.7 3.6 2.6 6.6 9 28.7 28.8 42.5 15.9 11.1 36.8 17.6 44.3 19.8 1.8.5 2.8.8 2.8.8l8 3.2-.1 1c-2.2 2.6-4.8 4.8-7.7 6.6 0 0-10 5-25 3s-35-8-48-18-16-11-19-10-.6 9.6 4.5 15.5c6 7 27 36 97.5 36.5 15 .1 17 0 17 0 6.4 4.4 13.3 6.2 21 6.5 8.1.2 17-1.1 27.2-2.7l6.8-1.1c5-.8 9.7-1.4 14-1.7 6.2-.5 11.5-.7 15.9-.7 8.2 0 12.9.7 13.1.7l5.6-19.8h-.1c-6.1-.6-11.8-2.9-16.5-6.7m-64.6 24c-18.2 0-33-14.8-33-33s14.8-33 33-33 33 14.8 33 33-14.8 33-33 33m472.8 358.6v246.7h9V578.1h-9zM382.9 788.4c-3.4-3.4-7.1-5.6-9.2-8.2-4-4.9-3.6-12.9-3.6-12.9h-18s.4 8.1-3.6 12.9c-2.1 2.6-5.8 4.8-9.2 8.2-3 3.1-5.8 7.3-6.9 13.6-2.5 15.1 12.1 44.2 12.1 44.2h33.2c.3-.6 14.5-29.2 12-44.2-1-6.4-3.8-10.5-6.8-13.6m372.5-581.1c-3.3 1.7-6.8 2.9-10.4 3.5h-.1c.4 2.8.7 5.7 1.2 8.6 3.6-3.6 6.7-7.7 9.3-12.1M549.5 534H542l4 39.6.2 1.8h2.7v2.6h34v-2.6h2.6l.6-7L589 534h-7.5zm201.2-123.8-.9-2.2-4-9.7-3.4-8.3-23.5.3 1-16.3-57.6 17.3-14.9-2.5-17.6-3-1.4-.2-3.3 4.8 4.7 2.5 7.7 4 .7.4 2.7 1.4c-4.3 6.4-8.3 12.2-11.1 16.2v2.3c2.4.6 4.4 1 5.5.9 16-2.1 30.6-11.3 30.6-11.3l52.2-4.8.1-1.6v-.2c0 .1.1.1.1.2.2.5.5 1 .7 1.5 5 9.9 15.2 12.9 23.1 13.7 6 .6 10.6-.1 10.6-.1l-2-4.9z"/></g></svg>