<svg xmlns="http://www.w3.org/2000/svg" viewBox="0 0 1061 216"><g fill="none" transform="translate(.745 .37)"><path fill="#D0D4D8" d="M1058.51 60.11V72H606.56V60.11zm-.01 126.91v11.89H606.55v-11.89zm-927.67 0h11.89v11.89h-11.89zM95.15 35.18l-11.9-15.43-11.89 15.43v179.28h23.79zm-35.68 0-11.9-15.43-11.89 15.43v179.28h23.79zm71.36 0-11.9-15.43-11.89 15.43v179.28h23.79zm71.36 0-11.9-15.43-11.89 15.43v179.28h23.79z"/><path fill="#D0D4D8" d="m166.51 35.18-11.9-15.43-11.89 15.43v179.28h23.79zm71.36 0-11.9-15.43-11.89 15.43v179.28h23.79zm71.36 0-11.9-15.43-11.89 15.43v179.28h23.79zm-35.68 0-11.9-15.43-11.89 15.43v179.28h23.79zm71.36 0-11.9-15.43-11.89 15.43v179.28h23.79zm71.36 0-11.9-15.43-11.89 15.43v179.28h23.79zm-35.68 0-11.9-15.43-11.89 15.43v179.28h23.79zM523.3 15.43 511.41 0l-11.89 15.43v199.03h23.78zm-35.67 9.46-11.9-15.43-11.89 15.43v189.57h23.79zm71.36-9.46L547.09 0 535.2 15.43v199.03h23.79zm35.67 9.46L582.77 9.46l-11.89 15.43v189.57h23.78zm71.36 10.29-11.89-15.43-11.89 15.43v179.28h23.78zm71.36 0-11.89-15.43-11.89 15.43v179.28h23.78zm-35.67 0-11.9-15.43-11.89 15.43v179.28h23.79zm71.36 0-11.9-15.43-11.89 15.43v179.28h23.79zm71.35 0-11.89-15.43-11.89 15.43v179.28h23.78zm-35.67 0-11.9-15.43-11.89 15.43v179.28h23.79zm71.35 0-11.89-15.43-11.89 15.43v179.28h23.78zm35.68 0-11.89-15.43L892 35.18v179.28h23.78zm71.36 0-11.89-15.43-11.89 15.43v179.28h23.78zm-35.68 0-11.89-15.43-11.89 15.43v179.28h23.78zm71.36 0-11.89-15.43-11.89 15.43v179.28h23.78z"/><path fill="#D0D4D8" d="M428.16 60.11V72H0V60.11zm0 126.91v11.89H0v-11.89zm166.51-126.9v11.89H463.84V60.12zm-.01 126.91v11.89H463.83v-11.89z"/><path fill="#B2B9C0" d="M606.56 60.11V72h-11.89V60.11zm-.01 126.91v11.89h-11.89v-11.89z"/><path fill="#C1C7CC" d="M428.16 0h23.79v214.46h-23.79zM0 0h23.79v214.46H0zm1034.72 0h23.79v214.46h-23.79zM606.56 0h23.79v214.46h-23.79z"/><rect width="11.89" height="35.68" x="451.945" y="48.225" fill="#B2B9C0" rx="5.945" transform="rotate(90 457.89 66.065)"/></g></svg>