<svg xmlns="http://www.w3.org/2000/svg" viewBox="0 0 1920 1080"><g fill="none" fill-rule="evenodd"><path fill="#FFF" fill-rule="nonzero" d="M0 0h1920v1080H0z"/><path fill="#EFF1F2" fill-rule="nonzero" d="M1498.69 817.15c-5.38 0-10.67.17-15.87.47V722c37.753-2.023 70.582-26.558 83.214-62.193 12.631-35.634 2.586-75.368-25.464-100.717a68.5 68.5 0 0 0 5.82-27.66c0-37.88-68.57-153.67-68.57-153.67s-11.77 19.87-25.55 45.83c-18.08-82.17-120.61-255.28-120.61-255.28s-123.33 208.23-123.33 276.35a123.4 123.4 0 0 0 3 26.95c-24.952 42.41-25.744 94.821-2.087 137.966s68.273 70.658 117.447 72.424v177.7c-38.46-72.45-278.86-488.18-608.15-231.9-156 121.35-266.1-143.94-456.31 310.56h1395.54s-60.6-121.21-159.08-121.21M1392.91 668c14.6 31.39 45.33 52.159 79.9 54v96.4c-70.22 6.6-121.13 38.12-136.15 48.48V682a139.1 139.1 0 0 0 56.25-14"/><path d="M262.23 967.83h1395.53v29.49H262.23zm0-29.49h1395.53v29.49H262.23z"/><g fill-rule="nonzero"><path fill="#D0D4D8" d="M345.448 557.68c0 10.22-.05 59.87-.13 70.26a4.79 4.79 0 0 1-7.74 3.73l-85.81-71.22-32.89 5 75.3 58.92c39.93 30.3 48.84 54.54 50.27 74.9-1.26 59.44-3.55 128.69-6.72 193.39-1.28 26.11-2.47 52-12.13 75.17h99.41c-7.31-22.78-9.68-42.35-11-64.82-3.27-56.68-5.32-117.34-5.32-170.84 0-43.12 85-133.52 120.59-162.21l-37.19 3.72-79.64 76.47a3.57 3.57 0 0 1-5.79-2.73c-.32-18-.54-72.09-.65-89.74z"/><path fill="#B2B9C0" d="M638.868 312.19c-12.326-36.549-44.628-62.709-82.94-67.17-11.85-28.33-36-53.08-68.66-66.61-39.54-16.35-81.82-12.25-112.63 7.42-20.38-10.08-47.64-12.36-76.54-5.78-23.21 5.29-40.75 13.55-51.59 25.07-35.73-10.68-78.58.37-109.3 31.76-19.56 19.98-30.76 44.7-33.36 69.18-49.838 13.178-83.415 59.742-80.18 111.191 3.237 51.45 42.383 93.44 93.48 100.269h.09c15.6 26.48 40.47 50.15 64.34 62.2 53.08 26.78 119 16.46 153.3-16.81 31.43 23.9 73.15 34.38 111.44 24.57a108.6 108.6 0 0 0 15.48-5.21 120.5 120.5 0 0 0 32.13 10.62v263.38h-14.87v11.16h110.81v-11.16h-15.61v-276.8a121.26 121.26 0 0 0 55.09-65.43c51.693-3.293 92.644-44.925 95.084-96.665s-34.41-97.041-85.564-105.185m-75.77 544.08h-58v-261.9a121.6 121.6 0 0 0 58-9.4z"/></g><g fill-rule="nonzero"><path fill="#232628" d="M681.06 979.21c0 10-4.5 18.11-10.06 18.11s-10.07-8.11-10.07-18.11 4.51-18.12 10.07-18.12 10.06 8.11 10.06 18.12"/><path fill="#232628" d="M670.46 961.09h10.07v36.23h-10.07z"/><path fill="#595E62" d="M690.59 979.21c0 10-4.5 18.11-10.06 18.11s-10.07-8.11-10.07-18.11 4.51-18.12 10.07-18.12 10.06 8.11 10.06 18.12"/><path fill="#232628" d="M665.59 975.74h62.49v10.05h-62.49zm186.58-12.23c0 18-8.13 32.68-18.16 32.68s-18.16-14.63-18.16-32.68 8.13-32.68 18.16-32.68 18.16 14.63 18.16 32.68"/><path fill="#232628" d="M833.15 930.83h18.16v65.36h-18.16z"/><path fill="#00629A" d="M806.45 916.09h-55.93c-56.07 0-99.23 24.8-99.23 49.61q46.503.762 69.739.762 28.484 0 85.421-.762z"/><path fill="#383B3E" d="M712.11 955.52h-38.8l-6.22 15.66h51.24z"/><path fill="#383B3E" d="M751.92 965.7H651.29v11.49c0 4.75 2.54 8.6 5.68 8.6h12.45a4 4 0 0 0 3.7-2.51 4 4 0 0 1 3.71-2.52h33.39a4 4 0 0 1 3.7 2.52 4 4 0 0 0 3.71 2.51h35.66z"/><path fill="#A4ABB3" d="M753.48 916.09c-37.3 0-71.85 15.47-80.19 29.94l19 2.75 19.8-2.75c7.04-11.94 37.2-29.94 71.36-29.94z"/><path fill="#232628" d="M764.29 979.21c0 10-4.51 18.11-10.07 18.11s-10.07-8.11-10.07-18.11 4.51-18.12 10.07-18.12 10.07 8.11 10.07 18.12"/><path fill="#232628" d="M753.68 961.09h10.07v36.23h-10.07z"/><path fill="#595E62" d="M773.82 979.21c0 10-4.51 18.11-10.07 18.11s-10.07-8.11-10.07-18.11 4.51-18.12 10.07-18.12 10.07 8.11 10.07 18.12"/><path fill="#0096E8" d="M840.55 916.09h-35.1c-34.16 0-70.48 28.2-70.48 49.61h30.93c8.61-23.61 36.33-40.45 60.8-40.45h18.31c11.15 0 20.63 12.89 24.1 30.84.07-1 .1-2 .1-3.08l3.5-2.84c0-21.96-11.89-34.08-32.16-34.08"/><path fill="#71767C" d="M815.85 965.69v-2.18c-.03.74-.03 1.46 0 2.18"/><path fill="#71767C" d="M872.71 950.17c-3.57-18-14.18-30.36-27.71-30.36-9.545 0-18.139 5.442-23.394 15.42-3.884 7.376-5.765 17.567-5.786 28.12v.16c0 .74-.481 1.04-.481 1.76l-80.369.42v11.51c0 4.74 2.13 8.59 4.77 8.59h83.62a3.5 3.5 0 0 0 3.5-3.49v-18.95c0-18 8.16-32.52 18.16-32.52s18.16 14.63 18.16 32.68v1.76a44.2 44.2 0 0 0 9.53-15.1"/><path fill="#232628" d="M844.58 930.83h6.63v8.8h-6.63z"/><path fill="#A4ABB3" d="M869.36 963.51c0 18-8.13 32.68-18.16 32.68s-18.16-14.63-18.16-32.68 8.13-32.68 18.16-32.68 18.16 14.63 18.16 32.68"/><path fill="#595E62" d="M845 919.81h-18.3c-24.47 0-52.19 19.06-60.8 45.88h50v-2.34c-.03-24.83 12.5-43.54 29.1-43.54"/></g><path fill="#0096E8" fill-rule="nonzero" d="m1490.21 747.629-4.847-1.826 25.32-67.22 4.847 1.826z"/><path fill="#00629A" d="m1645 658.65-38.49 80.13 9.35 28.68 39.52 3z"/><path fill="#8A9097" fill-rule="nonzero" d="M1606.1 741.18c-.18-.25-.46-.53-.64-.77l-111.79 2.69-38.2-6.43 7.07 32 46.83-4 77.86 5.29 1.23.28a19 19 0 0 0 10.19-.59c12.23-4.07 17-17.11 7.45-28.5z"/><path fill="#8A9097" fill-rule="nonzero" d="m1477.69 726.33-4.69 4.02 16.29 15.18 24.21-1.85z"/><path fill="#0096E8" fill-rule="nonzero" d="m1606.51 738.78-77.28-.4.08 27.68s71.91 4.4 88.42 5.15c3.48.16 13.51-2.69 13.22-7.05-.65-9.61-9.45-24-24.44-25.38"/><path fill="#43464A" fill-rule="nonzero" d="m1255.55 869.97-8.18 24.89-33.66 102.46h-15.73l32.91-100.18 8.17-24.9z"/><path fill="#8A9097" fill-rule="nonzero" d="M1219.4 944.62a7.87 7.87 0 0 1 7.87-7.87h128.47v15.74h-128.46a7.87 7.87 0 0 1-7.88-7.87"/><path fill="#43464A" fill-rule="nonzero" d="m1479.27 762.77-6.93 21.12-.65 2-69.32 211.43h-15.72l69.56-212.43.66-1.99 6.91-21.12zm167.54 95.9 1.07 2.55 9.17 21.69 48.32 114.41h-36.1l-49.33-116.78-10.24-24.24z"/><path fill="#43464A" fill-rule="nonzero" d="m1652.83 773.88-1.24 23.51-179.9-11.5-15.48-1-15.75-1 1.8-23.48 21.52 1.37 15.49.99z"/><path fill="#C1C7CC" fill-rule="nonzero" d="m1820.05 621.34-78.32 239.14h15.73l76.87-234.47z"/><path fill="#8A9097" fill-rule="nonzero" d="M1692.66 621.34h127.39l-77.13 235.52-124.67-8.32z"/><path fill="#C1C7CC" fill-rule="nonzero" d="m1389.3 869.97-8.18 24.89-33.67 102.46h-15.72l32.9-100.18 8.18-24.9z"/><path fill="#8A9097" fill-rule="nonzero" d="m1346.935 873.7 1.525 25.67h-133.75l-3.83-23.24z"/><path fill="#8A9097" fill-rule="nonzero" d="m1344.63 876.13 225.283-30.94H1435.15l-224.27 30.94z"/><path fill="#001D33" fill-rule="nonzero" d="M1545.14 788.25c-13.17-8.28-57-7.34-57-7.34l-232.16 72.55 3.71 20.24c67.54-9.51 128.62-.74 187.23-28.51 0 0 35.86-9.26 50.48-9.36a316 316 0 0 0 79.69 9.36s-17.79-48.02-31.95-56.94"/><path fill="#8A9097" fill-rule="nonzero" d="M1699.38 610.22c-.39 1.35-.77 2.7-1.17 4.12 4.585-1.826 9.267-4.254 13.372-6.995-3.772-.12-7.665-.374-11.082-.955-.36 1.2-.73 2.48-1.12 3.83"/><path fill="#A4ABB3" fill-rule="nonzero" d="M1695.82 622.44c-2.39 8-4.31 14.24-4.31 14.24l42.27 7.45-.1-15.09-.1-25.69-.09-13c3.39-3.14 10.62-10.29 11.76-16.36a6.6 6.6 0 0 0-.79-4.84c-3.79-6-12.23 2.92-16.11 7.61-12.25-2.91-37-10.86-40.08-27.89l-1.75 1.86a132 132 0 0 0-1.4 20.2 74 74 0 0 0 .43 7.76c1.43 15.76 3.43 23.59 3.43 23.59a50 50 0 0 0 8.29 3.33c1 .32 2.06.58 3.13.85a38.4 38.4 0 0 0 10.8 1 67.2 67.2 0 0 1-13.08 6.87c-.8 2.84-1.58 5.54-2.32 8.1z"/><path fill="#D1E4FF" fill-rule="nonzero" d="M1752.76 567.26a42 42 0 0 0-.21-7.72c-1.08-22.21-10.51-36.86-39.34-38.01-11.86-.45-19.06 5.22-23.46 12.42-.09.06-.1.14-.17.12-7.78 3.48-16.24 13-12.09 25.41a35.12 35.12 0 0 0 14.9 62.77c1.08.19 2.18.31 3.35.45.75-2.56 1.6-5.25 2.38-8 .39-1.35.79-2.77 1.18-4.12s.8-2.85 1.18-4.12c-1.07-.27-2.21-.57-3.2-.89a50.7 50.7 0 0 1-8.28-3.3s-1.88-7.53-3.46-23.29c-.2-2.65-.33-5.28-.42-7.76a123 123 0 0 1 1.4-20.2l1.74-1.86c3 17 27.76 25 40.08 27.89 3.89-4.69 12.32-13.58 16.12-7.61.876 1.452 1.015 3.427.646 5.082-1.447 5.942-8.236 12.698-11.616 15.828v13.29l.1 25.69a35.05 35.05 0 0 0 19.15-62.07z"/><path fill="#00629A" d="m1673.87 635.75-4.43 1c-11.36 2.54-21.27 11.79-24.9 23.29l-9 34.32 45.44-43.16z"/><path fill="#9DC9FF" fill-rule="nonzero" d="M1756.46 638.53c-.89-.3-20.58-8.6-20.58-8.6l-2.29-10.3h-40.61l-5.46 10.3-13.66 5.82s-12 17.44-30.27 46.06c-7.39 11.58-14.26 20.74-13.17 41.49 1.69 32-.7 72.82-.7 72.82l80.09 21.66z"/><path fill="#003253" fill-rule="nonzero" d="M1594.17 780.65a447.5 447.5 0 0 0-54.37-3.56s-20.4 28.67-17.07 52c34.48 22.46 119.19 23.8 119.19 23.8 14 4.7 39.76 7.05 51.51-4.71s16.39-30.42 16.39-30.42c-10.36-8.09-16.56-10.74-28.92-15.12a511 511 0 0 0-55.37-16.27c-11.24-2.56-21.85-4.51-31.36-5.72"/><path fill="#003253" fill-rule="nonzero" d="m1671.03 787.12-2.92 16.02-42.58-16.75z"/><path fill="#00629A" d="m1673.23 739.41-13.89 95.19 73.58 10.59 34.94-170.78c5.5-18.58 2.93-33.21-14-37.76-4.5-1.2-14.76-6.79-17.29-10.6-3.29-4.92-3-6.34-3-6.34l-60.35 119.7z"/><path fill="#007BC0" fill-rule="nonzero" d="m1256.61 853.29-56.57-42.19-.1.25a29.05 29.05 0 0 0 3.64 24.62l36.95 55.29 19.8-17.73zm72.08-4.59-55.32-44.77-.11.24a29.05 29.05 0 0 0 2.62 24.75l34.64 56.78 20.46-16.77z"/><path fill="#B2B9C0" fill-rule="nonzero" d="m1789.7 882.91-10.24-24.24-37.11-2.37-173.46-11.11-179.59 24.78-16.49 2.27-28.18 3.89 3.83 23.24 16.18-2.23 16.48-2.28 188.58-26.02 182.89 11.7 49.33 116.78h36.1z"/><path fill="#003253" fill-rule="nonzero" d="m1540.06 777.7-.26-.61-211.11 71.61 2.29 20.23c74.94-4.48 125.15-13 158.08-23.88 60.83-20.05 61.51-42.14 51-67.35"/><path fill="#00629A" d="M1471.1 771.22h27.6l4.71-58.66h-37.02z"/><path fill="#A4ABB3" d="m1454.5 732.78 32.27.6c1 6.6-2.9 16.14-8.8 20.06l-17 8.16z"/><path fill="#8A9097" fill-rule="nonzero" d="M1408.07 944.62a7.87 7.87 0 0 1 7.87-7.87h128.47v15.75h-128.46a7.87 7.87 0 0 1-7.88-7.88"/><path fill="#C1C7CC" fill-rule="nonzero" d="m1596.12 761.82-6.9 21.08-.67 2.01-69.56 212.41h15.73l69.3-211.37.66-2.01 6.91-21.08z"/><path fill="#A4ABB3" fill-rule="nonzero" d="m1606.55 692.66-15.4-19.21-10.17-2.5 1.13 7.73 4.81 1.5 1.51 2.94z"/><path fill="#B2B9C0" fill-rule="nonzero" d="m1799.91 775.47-1.57 23.49-202.48-13.55-15.46-1.04-7.29-.48 1.8-23.48 13.05.87 15.47 1.04z"/><path fill="#56B0FF" fill-rule="nonzero" d="m1595.31 702.53-18.74-53.1a5.06 5.06 0 0 0-4.71-3.38h-2.35a5 5 0 0 1 4.71 3.31l18.52 52.54a5 5 0 0 1-3.09 6.39 4.2 4.2 0 0 1-1.69.3l-16.9.59h-.08l19.55.14a5 5 0 0 0 5.07-5 4.5 4.5 0 0 0-.29-1.77z"/><path fill="#D1E4FF" fill-rule="nonzero" d="m1592.8 702.01-18.59-52.7a5 5 0 0 0-4.71-3.3l-8.15.59-11.18-.07a5 5 0 0 0-5 4.93 4.4 4.4 0 0 0 .29 1.69l18.37 52.17a4.91 4.91 0 0 0 4.63 3.31h2.65l16.9.07a5 5 0 0 0 5-5 3.3 3.3 0 0 0-.21-1.69"/><path fill="#8A9097" fill-rule="nonzero" d="M1565.04 708.19c3.59 4.27 18.7 4.67 18.7 4.67l4.77-29.83-37.16.8s10.11 20.09 13.69 24.36"/><path fill="#A4ABB3" fill-rule="nonzero" d="M1609.98 693.53c-1.87.05-21.53-10.5-21.53-10.5l-4.77 29.83 22.8-.33 3.75-19z"/><path fill="#56B0FF" fill-rule="nonzero" d="M1724.13 772.7c3.17-17.08-9.08-31.31-27.53-43.14-26.4-16.86-65.52-28.95-90.52-37.48l-7 24s120.06 69.25 120.51 68.49a36.4 36.4 0 0 0 4.55-11.9z"/><path fill="#0096E8" fill-rule="nonzero" d="M1767.47 676.31c8.68-22.1 3.72-32.18-7.58-37.4-15.6 4.34-24.57 15.06-35.22 31.28s-18.79 42.88-23 62.81c17.92 12.73 21.73 34.77 17.69 51.64z"/></g></svg>