<svg xmlns="http://www.w3.org/2000/svg" viewBox="0 0 641 378"><g fill="none"><path fill="#43464A" d="M49.37 273.86 15.71 376.32H-.02l32.91-100.19 8.17-24.89 16.49-2.28z"/><path fill="#8A9097" d="M21.41 331.49v-15.75h136.34v15.75z"/><path fill="#43464A" d="m281.27 141.76-6.93 21.13-.65 1.99-69.32 211.44h-15.72l69.56-212.43.66-2 6.91-21.12z"/><path fill="#8A9097" d="M216.39 331.48v-15.75h130.75v15.75z"/><path fill="#43464A" d="m448.81 237.66 1.07 2.55 9.17 21.7 48.32 114.41h-36.1l-49.33-116.79-10.24-24.24z"/><path fill="#8A9097" d="m454.83 152.88-1.24 23.51-179.9-11.51-15.48-.99-15.75-1.01 1.8-23.48 21.52 1.37 15.49.99z"/><path fill="#C1C7CC" d="m622.05.33-78.32 239.15h15.73L636.33 5z"/><path fill="#8A9097" d="M494.66.33h127.39l-77.13 235.52-124.67-8.31zM191.3 248.96l-8.18 24.9-33.67 102.46h-15.72l32.9-100.19 8.18-24.89zM146.75 255l3.83 23.24H16.83L13 255z"/><path fill="#8A9097" d="M12.88 255.12h133.75l224.26-30.94H237.15z"/><path fill="#B2B9C0" d="m591.7 261.83-10.24-24.25-37.11-2.37-173.46-11.11-179.59 24.78-16.49 2.28-28.18 3.88 3.83 23.24 16.18-2.23 16.48-2.27 188.58-26.03 182.89 11.7 49.33 116.79h36.1z"/><path fill="#C1C7CC" d="m398.12 140.82-6.9 21.07-.67 2.02-69.56 212.41h15.73l69.3-211.38.66-2.01 6.91-21.08z"/><path fill="#B2B9C0" d="m601.91 154.46-1.57 23.49-202.48-13.55-15.46-1.04-7.29-.48 1.8-23.48 13.05.87 15.47 1.04z"/></g></svg>