<svg xmlns="http://www.w3.org/2000/svg" viewBox="0 0 1600 900"><g data-name="Ebene 2"><path fill="none" d="M0 0h1600v900H0z"/><path fill="#eff1f2" d="m1308.302 291.432 58.701 185.091h-117.402z"/><path fill="#eff1f2" d="m1308.302 339.657 63.739 182.476h-127.478z"/><path fill="#eff1f2" d="m1308.302 272.077 54.414 153.806h-108.828z"/><path fill="#eff1f2" d="m1308.302 274.754 48.712 98.652h-97.425z"/><path fill="#eff1f2" d="m1308.302 270.445 36.284 57.098h-72.568zm9.016 275.224h-16.674v-29.505h16.674z"/><path fill="#e0e2e5" d="m1402.006 320.694 44.246 139.513h-88.492z"/><path fill="#e0e2e5" d="m1402.006 357.044 48.044 137.541h-96.087z"/><path fill="#e0e2e5" d="m1402.006 306.105 41.015 115.932h-82.03z"/><path fill="#e0e2e5" d="m1402.006 308.123 36.718 74.359h-73.435z"/><path fill="#e0e2e5" d="m1402.006 304.875 27.349 43.038h-54.698zm6.797 207.451h-12.568v-22.239h12.568z"/><path fill="#eff1f2" d="m1489.196 247.821-58.701 185.092h117.401z"/><path fill="#eff1f2" d="m1489.196 296.046-63.74 182.476h127.479z"/><path fill="#eff1f2" d="m1489.196 228.466-54.415 153.806h108.829z"/><path fill="#eff1f2" d="m1489.196 231.143-48.713 98.653h97.425z"/><path fill="#eff1f2" d="m1489.196 226.834-36.284 57.098h72.567zm-9.017 245.719h16.674v29.505h-16.674z"/><path fill="#d0d4d8" d="M1600 501.897c-99.327-16.534-212.845-2.55-336.584 68.208C1071.879 679.632 936.619 440.2 702.987 850.397H1600z"/><path fill="#eff1f2" d="m626.996 397.923 58.701 185.092H568.295z"/><path fill="#eff1f2" d="m626.996 446.148 63.739 182.476H563.257z"/><path fill="#eff1f2" d="m626.996 378.568 54.415 153.806H572.582z"/><path fill="#eff1f2" d="m626.996 381.245 48.713 98.652h-97.425z"/><path fill="#eff1f2" d="m626.996 376.936 36.284 57.098h-72.568zm9.016 275.224h-16.674v-29.505h16.674zm-528.95-191.945 58.701 185.091H48.361z"/><path fill="#eff1f2" d="m107.062 508.44 63.739 182.476H43.323z"/><path fill="#eff1f2" d="m107.062 440.86 54.415 153.806H52.648z"/><path fill="#eff1f2" d="m107.062 443.537 48.713 98.652H58.35z"/><path fill="#eff1f2" d="m107.062 439.228 36.284 57.098H70.778zm9.016 275.223H99.404v-29.505h16.674z"/><path fill="#e0e2e5" d="m704.532 467.502 44.246 139.513h-88.492z"/><path fill="#e0e2e5" d="m704.532 503.851 48.043 137.542h-96.087z"/><path fill="#e0e2e5" d="m704.532 452.913 41.015 115.931h-82.03z"/><path fill="#e0e2e5" d="m704.532 454.931 36.717 74.359h-73.434z"/><path fill="#e0e2e5" d="m704.532 451.683 27.349 43.038h-54.698zm6.796 207.45H698.76v-22.239h12.568z"/><path fill="#eff1f2" d="m791.736 402.233 58.701 185.091H733.035z"/><path fill="#eff1f2" d="m791.736 450.457 63.739 182.476H727.997z"/><path fill="#eff1f2" d="m791.736 382.877 54.415 153.806H737.322z"/><path fill="#eff1f2" d="m791.736 385.555 48.713 98.652h-97.425z"/><path fill="#eff1f2" d="m791.736 381.245 36.284 57.099h-72.568zm9.016 275.224h-16.674v-29.505h16.674z"/><path fill="#d0d4d8" d="M0 860.452h1501.768s-76.2-64.975-200.027-64.975c-105.38-1.11-216.34 22.8-216.34 22.8-48.36-38.843-350.675-261.71-764.736-124.325-116.134 38.533-212.06 4.36-320.665 20.702z"/><path fill="#e0e2e5" d="M1600 784.748c-173.811-107.552-299.579-14.042-464.586-73.274-430.457-154.52-717.17 45.156-767.445 88.843 0 0-141.627-2.097-251.181-.85-45.403 0-84.798 12.355-116.788 28.343v70.93h1600z"/><path fill="#101112" d="m1089.981 469.661 6.41-10.086 148.05 94.08-6.41 10.087zm323.467-7.536 6.7 9.897-145.257 98.34-6.7-9.897z"/><path fill="#101112" d="m1380.2 455.092 11.89 1.194-3.634 36.212-11.891-1.194z"/><circle cx="1258.719" cy="545.053" r="106.327" fill="#eff1f2"/><circle cx="1258.719" cy="708.757" r="134.99" fill="#eff1f2"/><circle cx="1258.719" cy="409.281" r="74.069" fill="#eff1f2"/><circle cx="1258.719" cy="505.729" r="9.472" fill="#101112"/><circle cx="1258.719" cy="549.055" r="9.472" fill="#101112"/><circle cx="1258.719" cy="592.381" r="9.472" fill="#101112"/><path fill="#101112" d="m1114.776 453.009 10.716-5.292 21.84 44.228-10.717 5.292z"/><path fill="#007a42" d="M1212.128 543.041V450.68h25.943v92.362z"/><path fill="#005f32" d="M1184.167 437.753h151.035v25.943h-151.035z"/><path fill="#007a42" d="M1212.129 538.144h2.866v16.617h-2.866zm23.076 0h2.866v16.617h-2.866zm-5.769 0h2.866v16.617h-2.866zm-5.769 0h2.866v16.617h-2.866zm-5.769 0h2.866v16.617h-2.866z"/><path fill="#006c3a" d="m1305.818 405.968-49.902-9.512q-8.786 9.512 0 19.024z"/><path fill="#383b3e" d="M1202.617 293.942H1312.8v51.443h-110.183z"/><path fill="#232628" d="M1192.662 341.625h130.093v20.402h-130.093z"/><path fill="#b2b9c0" d="M841.651 751.7c11.108-3.55 17.33-10.054 16.406-20.876l-30.037-18.15a7.96 7.96 0 0 0-10.338.79l-.428.427z"/><path fill="#383b3e" d="M660.946 600.522v-8.115a7.075 7.075 0 0 1 7.075-7.074 7.075 7.075 0 0 1 7.075 7.074v8.115h20.33v-5.286l-12.742-12.743a7.075 7.075 0 0 1 0-10.005 7.075 7.075 0 0 1 10.005 0l2.737 2.737v-4.556a7.075 7.075 0 0 1 7.075-7.074 7.075 7.075 0 0 1 7.074 7.074v29.853h17.863a7.174 7.174 0 0 0 7.174-7.175v-19.144l-25.467-25.467a7.075 7.075 0 0 1 0-10.006 7.075 7.075 0 0 1 10.005 0l15.462 15.462V532.11a7.075 7.075 0 0 1 7.075-7.075 7.075 7.075 0 0 1 7.075 7.075v62.092a20.47 20.47 0 0 1-20.47 20.47h-18.717v.007h-14.15v-.008h-20.33v.063l-10.098-.038a6.634 6.634 0 0 0-6.66 6.634v20.118h-14.15V617.28a16.76 16.76 0 0 1 16.759-16.758m-56.279 0v-8.115a7.075 7.075 0 0 0-7.075-7.074 7.075 7.075 0 0 0-7.075 7.074v8.115h-20.33v-5.286l12.742-12.743a7.075 7.075 0 0 0 0-10.005 7.075 7.075 0 0 0-10.005 0l-2.737 2.737v-4.556a7.075 7.075 0 0 0-7.075-7.074 7.075 7.075 0 0 0-7.075 7.074v29.853h-17.862a7.174 7.174 0 0 1-7.174-7.175v-19.144l25.467-25.467a7.075 7.075 0 0 0 0-10.006 7.075 7.075 0 0 0-10.005 0L531 554.192V532.11a7.075 7.075 0 0 0-7.075-7.075 7.075 7.075 0 0 0-7.075 7.075v62.092a20.47 20.47 0 0 0 20.47 20.47h18.716v.007h14.15v-.008h20.33v.063l10.1-.038a6.634 6.634 0 0 1 6.659 6.634v20.118h14.15V617.28a16.76 16.76 0 0 0-16.76-16.758z"/><path fill="#7d8389" d="M799.638 801.104H619.225a44.61 44.61 0 0 1-44.608-44.608v-5.365a44.61 44.61 0 0 1 44.608-44.608h175.047a49.973 49.973 0 0 1 49.974 49.973 44.61 44.61 0 0 1-44.608 44.608"/><path fill="#8a9097" d="M811.205 801.73h-44.246a26.24 26.24 0 0 1-26.242-26.243v-4.79a54.215 54.215 0 0 1 54.215-54.215h1.897a47.416 47.416 0 0 1 47.417 47.416v4.79a33.04 33.04 0 0 1-33.041 33.041z"/><path fill="#8a9097" d="M822.518 826.013h-71.326v-24.909h71.326a12.454 12.454 0 0 1 12.455 12.455 12.454 12.454 0 0 1-12.455 12.454"/><path fill="#7d8389" d="M662.905 826.013h-60.132a12.454 12.454 0 0 1-12.455-12.454 12.454 12.454 0 0 1 12.455-12.455h60.132z"/><path fill="#2e3033" d="M751.192 826.013h-41.76v-7.422a17.487 17.487 0 0 1 17.487-17.487h24.273zm-88.287-24.909h24.273a17.487 17.487 0 0 1 17.487 17.487v7.422h-41.76z"/><path fill="#b2b9c0" d="M678.824 726.01c-3.2 28.725-39.959 26.966-45.53 35.847-9.354 14.908 18.032 19.947 0 19.947-28.777 0-58.677-24.98-58.677-55.795 0 0-7.327-60.57 52.104-61.061s52.103 61.061 52.103 61.061z"/><path fill="#d0d4d8" d="M589.644 708.398c2.278 20.441 28.435 19.189 32.4 25.509 6.656 10.608-12.832 14.194 0 14.194 20.477 0 41.753-17.776 41.753-39.703 0 0 5.214-43.102-37.076-43.451s-37.077 43.451-37.077 43.451"/><path fill="#7d8389" d="M610.846 651.649q-13.929-36.605-49.2-19.58c5.29 23.12 22.368 29.653 49.2 19.58"/><path fill="#8a9097" d="M598.285 646.283q-8.302-18.071-26.751-10.645c3.37 11.33 12.649 14.899 26.751 10.645"/><path fill="#7d8389" d="M687.944 691.134h-66.166a27.77 27.77 0 0 1-27.772-27.772 13.21 13.21 0 0 1 13.21-13.21h86.68a13.21 13.21 0 0 1 13.21 13.21v8.61a19.16 19.16 0 0 1-19.162 19.162"/><path fill="#7d8389" d="M678.807 673.597h-76.75a8.05 8.05 0 0 1-8.051-8.052 32.93 32.93 0 0 1 32.93-32.93h10.889a40.98 40.98 0 0 1 40.982 40.982"/><ellipse cx="698.79" cy="658.024" fill="#006c3a" rx="15.005" ry="8.363"/><path fill="#383b3e" d="m1060.815 838.853-.104-129.168 97.108-.079.104 129.168z"/><path fill="#86d7a2" d="M1103.371 709.644h16.621v129.168h-16.621z"/><path fill="#86d7a2" d="m1060.749 758.514-.014-16.621 97.172-.079.014 16.621z"/><path fill="#979ea4" d="m403.37 622.286 12.358 49.779-32.838 8.151-12.357-49.779z"/><path fill="#219557" d="m403.097 675.237-7.558 1.876-12.374-49.85 7.557-1.875z"/><path fill="#219557" d="m377.65 659.105-1.876-7.557 32.838-8.152 1.876 7.558z"/><path fill="#b8efc9" d="M424.616 827.617h-146.53V681.086h146.53z"/><path fill="#5ebd82" d="M1146.438 709.635h-74.391v-55.927h74.391z"/><path fill="#00381b" d="M1072.047 685.097v-9.573h74.391v9.573z"/><path fill="#00381b" d="M1100.17 709.635h-9.574v-55.964h9.573z"/><path fill="#383b3e" d="M1179.155 653.668h-147.488v-27.963h147.488z"/><path fill="#219557" d="M1107.351 653.705h-3.469v-28.037h3.47z"/><path fill="#219557" d="M1031.564 641.41v-3.447h147.693v3.446z"/><path fill="#a4abb3" d="M357.214 827.617h-15.157V681.086h15.157z"/><path fill="#a4abb3" d="M424.616 743.472v15.157H278.085v-15.157zm703.824-117.77h-46.863v-40.03h46.863z"/><path fill="#004523" d="M1107.977 625.702h-5.936v-40.03h5.936z"/><path fill="#004523" d="m1107.262 582.523-4.197 4.197-13.116-13.116 4.197-4.197z"/><path fill="#004523" d="m1106.02 588.854-4.197-4.198 11.989-11.988 4.197 4.197z"/><path fill="#37a264" d="M291.199 565.67h81.343v115.302h-81.343z"/><path fill="#2e3033" d="M326.719 565.67h10.304v115.302h-10.304z"/><path fill="#2e3033" d="m352.525 539.582 7.284 7.288-22.772 22.759-7.284-7.288z"/><path fill="#2e3033" d="m311.103 552.516 7.288-7.284 19.104 19.115-7.288 7.284z"/><path fill="#4e5256" d="m413.906 784.896 13.697-4.133a13.704 13.704 0 1 1 19.089-5.76l13.696-4.132a6.907 6.907 0 0 1 3.99 13.226l-10.434 3.148 4.253 14.099 11.327 10.639a6.417 6.417 0 0 1 .283 9.071l-.67.715a6.417 6.417 0 0 1-9.072.283l-13.441-12.626-4.215 17.953a6.417 6.417 0 0 1-7.714 4.782l-.954-.224a6.417 6.417 0 0 1-4.781-7.715l3.587-15.281-4.215-13.968-10.435 3.149a6.907 6.907 0 1 1-3.99-13.226z"/><circle cx="440.774" cy="790.04" r="3.06" fill="#eff1f2"/><circle cx="437.871" cy="764.648" r="1.608" fill="#eff1f2"/><circle cx="429.078" cy="767.301" r="1.608" fill="#eff1f2"/><circle cx="443.793" cy="799.907" r="3.06" fill="#eff1f2"/><path fill="none" stroke="#eff1f2" stroke-miterlimit="10" stroke-width="2.066" d="M460.836 770.738c.495 1.652-2.045 2.414-1.55 4.066.496 1.653 3.036.892 3.531 2.545.497 1.655-2.043 2.417-1.547 4.072s3.036.895 3.532 2.55m4.848 28.135c-1.185 1.255-3.113-.566-4.297.689-1.185 1.255.743 3.075-.441 4.33-1.187 1.257-3.115-.563-4.301.693s.741 3.077-.446 4.334"/><path fill="none" stroke="#eff1f2" stroke-miterlimit="10" stroke-width="2.068" d="M442.242 828.007c-1.677-.42-1.033-2.995-2.71-3.414s-2.322 2.155-4 1.736c-1.68-.42-1.036-2.996-2.716-3.416s-2.325 2.155-4.005 1.735"/><path fill="none" stroke="#eff1f2" stroke-miterlimit="10" stroke-width="2.066" d="M417.92 798.11c-.494-1.657 2.048-2.413 1.554-4.07-.493-1.657-3.035-.9-3.528-2.557-.494-1.66 2.047-2.416 1.552-4.076s-3.035-.902-3.53-2.562"/><path fill="none" stroke="#eff1f2" stroke-linecap="round" stroke-miterlimit="10" stroke-width="2.066" d="M441.16 769.977c-.626 6.165-7.375 8.622-11.764 3.943"/></g></svg>