<svg xmlns="http://www.w3.org/2000/svg" viewBox="0 0 440.458 483.684"><g fill="#4e5256" data-name="Ebene 2"><path d="M270.762 435.581c-2.756 4.817-6.92 12.095-16.164 12.628-9.235.55-14.218-6.217-17.51-10.684-3.005-4.08-4.189-5.324-5.915-5.239-1.699.099-2.754 1.485-5.271 5.885-2.756 4.816-6.919 12.095-16.163 12.629q-.52.03-1.024.03c-8.592 0-13.317-6.415-16.485-10.715-3.004-4.077-4.222-5.307-5.908-5.238l.518 9.366a41.743 41.743 0 0 0 43.983 39.376l6.365-.351a41.743 41.743 0 0 0 39.376-43.983l-.53-9.588c-1.699.099-2.755 1.485-5.272 5.884"/><path d="M377.153 354.88c5.04-.627 6.728-1.068 7.477-2.605s.06-3.14-2.548-7.498c-2.852-4.766-7.162-11.97-3.096-20.304 4.065-8.335 12.395-9.372 17.908-10.059 5.04-.628 6.73-1.07 7.48-2.607s.058-3.14-2.55-7.498c-2.85-4.768-7.16-11.972-3.094-20.307l2.274 1.11-74.56-37.725-51.912-79.442 39.155-25.586c-5.053-7.723-1.718-15.393.491-20.471 2.026-4.655 2.505-6.333 1.564-7.763-.944-1.432-2.675-1.665-7.751-1.632-5.54.013-13.937.058-19.032-7.68-5.096-7.74-1.751-15.43.462-20.519 2.026-4.656 2.505-6.335 1.562-7.767-.942-1.43-2.67-1.654-7.751-1.631-5.528.021-13.862.051-18.965-7.59l-57.439 37.534a89.137 89.137 0 1 0-108.57 70.946l-60.38 39.455c5.056 7.734 1.697 15.403-.527 20.48-2.034 4.642-2.518 6.315-1.586 7.737s2.65 1.64 7.73 1.628c5.54-.016 13.934-.047 19.013 7.695s1.715 15.423-.512 20.506c-2.034 4.644-2.518 6.318-1.584 7.74s2.67 1.663 7.73 1.63c5.541-.025 13.934-.047 19.014 7.696l-11.238 7.373c-.934-1.424-2.67-1.682-7.731-1.63-5.547.03-13.934.046-19.014-7.696-5.079-7.743-1.714-15.423.512-20.506 2.034-4.644 2.518-6.317 1.585-7.74s-2.666-1.667-7.73-1.628c-5.55.018-13.934.046-19.013-7.695s-1.714-15.422.513-20.504c2.033-4.64 2.518-6.313 1.588-7.734l-6.27 4.097a44.93 44.93 0 0 0 49.155 75.224l59.352-38.783 52.398 80.186 4.318 78.141c9.217-.51 14.184 6.225 17.47 10.686 3.007 4.082 4.223 5.317 5.913 5.238 1.698-.099 2.754-1.485 5.271-5.885 2.755-4.816 6.92-12.096 16.163-12.629 9.245-.553 14.219 6.217 17.51 10.685 3.008 4.079 4.204 5.337 5.915 5.238 1.7-.099 2.756-1.484 5.273-5.885 2.756-4.816 6.92-12.094 16.164-12.628l.743 12.857-6.057-109.624 89.404 45.234c4.1-8.15 12.336-9.184 17.803-9.865M127.899 47.09a10.46 10.46 0 1 1-3.034 14.477 10.46 10.46 0 0 1 3.034-14.477M74.853 94.248a10.46 10.46 0 1 1 14.477 3.034 10.46 10.46 0 0 1-14.477-3.034m74.02 41.571a48 48 0 0 1-25.03 6.94 55.6 55.6 0 0 1-31.24-10.003 6.72 6.72 0 1 1 7.567-11.108c13.618 9.275 29.215 10.278 41.729 2.682 12.407-7.532 18.642-21.89 16.677-38.41a6.72 6.72 0 0 1 13.347-1.587c2.603 21.898-6.013 41.145-23.05 51.486m59.915 90.099a19.905 19.905 0 1 1 5.774-27.551 19.905 19.905 0 0 1-5.774 27.551m36.498 56.322a19.905 19.905 0 1 1 5.774-27.552 19.905 19.905 0 0 1-5.774 27.552"/><path d="m417.552 293.484-6.792-3.436c-.639 1.495.086 3.13 2.612 7.352 2.851 4.768 7.16 11.972 3.094 20.307s-12.396 9.372-17.909 10.059c-5.04.628-6.73 1.069-7.48 2.605-.748 1.537-.057 3.14 2.55 7.5 2.853 4.766 7.163 11.97 3.096 20.304-4.064 8.334-12.395 9.37-17.908 10.056-5.014.625-6.71 1.065-7.466 2.584l5.634 2.851a41.743 41.743 0 0 0 56.093-18.402l2.877-5.687a41.743 41.743 0 0 0-18.401-56.093M283.176 61.455c5.554-.014 13.936-.058 19.033 7.68 5.096 7.741 1.75 15.431-.462 20.52-2.026 4.656-2.505 6.334-1.563 7.766s2.68 1.665 7.75 1.632c5.557-.015 13.936-.059 19.032 7.68s1.75 15.428-.463 20.517c-2.023 4.648-2.503 6.328-1.567 7.758l8.948-5.847a44.93 44.93 0 1 0-49.155-75.225l-9.208 6.017c.964 1.313 2.743 1.528 7.655 1.502"/></g></svg>