<svg xmlns="http://www.w3.org/2000/svg" viewBox="0 0 1920 1080"><g fill="none" fill-rule="evenodd"><path fill="#232628" fill-rule="nonzero" d="M0 0h1920v1080H0z"/><path fill="#232628" fill-rule="nonzero" d="M1540.36 997.32h87.38V1080h-87.38z"/><path fill="#1E2122" fill-rule="nonzero" d="M275.96 165.14h329.76v758.49H275.96zm346.11 0h329.76v758.49H622.07zm346.11 0h329.76v758.49H968.18zm346.1 0h329.76v758.49h-329.76z"/><path d="M71.65 967.83h1776.7v29.49H71.65zm0-29.49h1776.7v29.49H71.65z"/><path fill="#1A1C1D" fill-rule="nonzero" d="m1569.24 923.63-14.7-243.69h56.27v-19.77h-130.58l-5.45-37.59h-112.57l-5.45 37.59h-42.48v19.77h39.61l-15.51 107h13v15.38h10.82l-23.83 121h15.38l8.17-41.48h113.13l8.17 41.48h15.38l-23.83-121h10.82V786.9h13l-15.51-107H1511l43 243.69H712.16l43-243.69H783l-15.51 107h13v15.38h10.82l-23.83 121h15.38l8.17-41.48h113.15l8.17 41.48h15.38l-23.83-121h10.82V786.9h13l-15.51-107h39.6v-19.73h-42.46l-5.45-37.59H791.33l-5.45 37.59H655.3v19.77h56.27l-14.7 243.69H71.65v14.71h1776.7v-14.71zM1365 866.38l12.63-64.1h81.81l12.62 64.1zm-558.25-64.1h81.81l12.63 64.1H794.08z"/><path fill="#1A1C1D" fill-rule="nonzero" d="M1052.94 786.9h13v15.38h10.82l-23.83 121h15.38l8.17-41.48h113.13l8.17 41.48h15.38l-23.83-121h10.82V786.9h13l-15.51-107h100.27v-19.73h-103.12l-5.45-37.59h-112.57l-5.45 37.59H968.18v19.77h100.27zm39.21 15.38H1174l12.63 64.1h-107.11z"/></g></svg>