<svg xmlns="http://www.w3.org/2000/svg" viewBox="0 0 600 400"><path fill="#eff1f2" d="M569.776 209.696s-34.215-37.095-84.408-42.688c-39.444-4.395-45.596-23.695-84.604-23.695-60.488 0-118.457 66.399-118.457 66.399z"/><path fill="#e0e2e5" d="M104 176.592c13.872 0 25.776-10.752 26.032-24.464.144-7.872-3.392-14.912-9.04-19.584a20.1 20.1 0 0 0 4.448-12.624c0-5.088-1.904-9.744-5.024-13.312a18.64 18.64 0 0 0 3.488-10.864c0-8.56-15.12-20-18.992-22.784a1.54 1.54 0 0 0-1.792 0c-3.872 2.784-18.992 14.224-18.944 22.784a18.75 18.75 0 0 0 3.488 10.864c-3.12 3.568-5.024 8.224-5.024 13.312 0 4.768 1.664 9.152 4.448 12.624-5.632 4.672-9.184 11.712-9.04 19.584.256 13.696 12.08 24.464 25.952 24.464m57.087-16.111c11.792 0 21.824-9.136 22.048-20.768.128-6.688-2.88-12.672-7.68-16.624a17.04 17.04 0 0 0 3.776-10.72c0-4.32-1.616-8.272-4.272-11.312a15.77 15.77 0 0 0 2.976-9.232c0-7.28-12.848-16.992-16.128-19.36a1.27 1.27 0 0 0-1.52 0c-3.28 2.368-16.128 12.08-16.096 19.36a15.9 15.9 0 0 0 2.976 9.232c-2.656 3.04-4.272 6.976-4.272 11.312 0 4.048 1.424 7.776 3.776 10.72-4.784 3.968-7.792 9.952-7.68 16.624.224 11.632 10.304 20.768 22.096 20.768"/><path fill="#eff1f2" fill-rule="evenodd" d="M346.847 209.712c-89.536-58.032-134.16-71.568-170.736-71.568-31.904 0-79.328 9.984-145.888 71.568z"/><path fill="#eff1f2" d="M120.561 344.705h378.546a3.008 3.008 0 0 0 0-6.016H120.561a3.008 3.008 0 0 0 0 6.016"/><g fill="#ebcae8"><path d="m295.624 175.175-1.131.402 2.84 8.002 1.131-.402 1.131-.401-2.84-8.002zM314.677 180.314l-.709-.968-7.8 5.717.709.968.71.968 7.8-5.717zM307.498 171.046l-1.13-.404-4.361 12.206 1.13.404 1.13.404 4.361-12.207z"/></g><g fill-rule="evenodd"><path fill="#2e3033" d="M335.301 333.584c-24.479 0-44.336-19.846-44.336-44.336s19.846-44.336 44.336-44.336 44.335 19.846 44.335 44.336-19.846 44.336-44.335 44.336m0-98.124c-29.708 0-53.789 24.08-53.789 53.789s24.08 53.789 53.789 53.789 53.789-24.08 53.789-53.789-24.08-53.789-53.789-53.789m-166.497 98.124c-24.479 0-44.336-19.846-44.336-44.336s19.846-44.336 44.336-44.336 44.336 19.846 44.336 44.336-19.846 44.336-44.336 44.336m0-98.124c-29.708 0-53.789 24.092-53.789 53.789s24.08 53.789 53.789 53.789 53.789-24.08 53.789-53.789-24.08-53.789-53.789-53.789m59.139 11.842-14.506-41.251c1.183-.276 2.189-.663 3.284-1.084 1.017-.398 2.112-.818 3.494-1.205a36 36 0 0 1 7.087-1.117c4.688-.31 4.854-5.639-1.194-6.258l-12.914-1.603c-9.763-1.338-15.335-2.09-18.364.531-1.482 1.283-1.404 3.925-.796 5.44.63 1.592 3.98 4.699 14.207 5.594l15.379 43.683 4.323-2.731Z"/><path fill="#e472db" d="m279.389 230.662-20.487 37.901-6.379 11.797a3.44 3.44 0 0 1-2.985 1.835l-5.948.133a3.52 3.52 0 0 1-3.405-2.366l-8.79-25.706a3.485 3.485 0 0 1 1.537-4.146l41.229-24.456c3.284-1.946 7.043 1.658 5.23 5.008Zm-46.115 52.683-7.684 10.382a2.55 2.55 0 0 1-2.211 1.017l-46.635-3.759a8.4 8.4 0 0 0 .199-1.769c0-2.2-.862-4.19-2.267-5.661l45.662-27.032c1.924-1.028 4.212-.343 4.986 1.979 2.056 6.147 5.639 17.126 7.264 22.101.365 1.117.63 1.935.763 2.322.044.144 0 .31-.077.42m102.568-2.289-34.893-73.668 17.093-8.171a5.055 5.055 0 0 0 2.388-6.744c-1.161-2.432-4.036-3.527-6.534-2.488l-10.293 4.776c1.028-2.333-.033-5.086-2.366-6.114a4.6 4.6 0 0 0-3.615-.044l-11.012 4.522a4.65 4.65 0 0 0-2.521 6.059c.752 1.813 2.565 2.974 4.522 2.864l2.83 5.838-119.562 73.723a8.2 8.2 0 0 0-3.173-.63 8.237 8.237 0 1 0 0 16.474 8.2 8.2 0 0 0 5.65-2.255l53.667 5.351a3.56 3.56 0 0 1 2.665 1.769l3.107 4.843c.884 1.393 2.488 1.924 3.991 2.023 1.249.077 2.543.088 5.042-1.459l9.243-5.064a3.4 3.4 0 0 0 1.459-1.404l40.234-72.706a3.5 3.5 0 0 1 1.647-1.504l4.4-1.946 28.779 59.405a8.24 8.24 0 0 0-1.526 4.765 8.237 8.237 0 1 0 16.474 0c0-4.544-3.394-7.927-7.695-8.215Z"/><path fill="#2e3033" d="m259.388 322.02-6.247-.022-9.033-27.01a2.74 2.74 0 0 0-3.461-1.725 2.74 2.74 0 0 0-1.725 3.461l8.458 25.297h-5.594a1.624 1.624 0 0 0-1.681 1.537v1.747a1.61 1.61 0 0 0 1.681 1.548h17.602a1.61 1.61 0 0 0 1.681-1.548v-1.747a1.61 1.61 0 0 0-1.681-1.537Z"/></g><path fill="#d0d4d8" d="M443.878 97.858c3.605-.169 7.434-3.169 7.787-4.43h-6.895c-.283 1.444-.536 2.774-.893 4.43Z"/><path fill="#101112" d="M467.023 79.637c.576-4.352-3.856-8.144-3.856-8.144 1.392-7.344-8.128-7.024-8.128-7.024s-6-5.04-9.84-4.192c-3.76.8-2.4 6.16-4.112 7.472-1.136 1.088-2.112 2.384-2.768 3.808 0 0-1.983 5.487 1.905 9.135.128-2.288.384-4.48.88-6.752 1.792 1.248 3.839 1.889 6.047 2.065 5.328.448 10.832-1.808 10.832-1.808s-1.616 8.512-1.6 8.736c1.632-1.632 4.112-3.408 5.168-1.552 1.328 2.512-3.152 6.256-4.688 7.472l.149 1.257s9.355-6.153 9.995-10.489"/><path fill="#d0d4d8" fill-rule="evenodd" d="M431.25 165.108c-12.96 11.904-38.88-17.248-38.88-17.248l-9.232-2.752 10.352-10.064 21.488 16.192 9.648-35.488 9.008 29.792z"/><path fill="#8a9097" d="M432.161 332.869h13.728c.416-5.712 1.76-19.936 2.112-23.952h-17.04z"/><path fill="#e0e2e5" d="M473.424 250.82a15.3 15.3 0 0 1-1.696-6.064l-17.6.56c2.176 10.704 3.648 18.736 3.648 18.736l7.744 44.864h14.656c1.408-35.008 5.152-36.896-6.752-58.096"/><path fill="#d0d4d8" d="M428.913 245.333h18.24c-.704 6.688-.64 13.456.288 20.064 3.376 23.456 2.752 25.84.56 43.52h-17.04l-1.904-49.648-.144-13.952"/><path fill="#101112" d="M446.305 181.877h-18.228l-1.479 5.84-1.557 57.616h23.392l3.312-36.848z"/><path fill="#383b3e" d="M451.808 245.397s-.704-5.36-1.968-12.672c-1.696-10-4.576-23.728-8.24-32.816-2.528-6.128-3.168-14.304-3.312-18.032h30.42c7.536 12.544 4.156 24.368 6.556 53.952.416 5.424.496 8.8.496 8.8zm-5.984 87.472H432.16l-20.912 8.096c1.824 2.32 4.784 3.648 7.744 3.648h29.296zm44.081 7.536-10.064-7.536h-10.208l-1.552 11.76h19.648c.992 0 1.904-.56 2.4-1.408.416-.912.4-1.968-.224-2.816"/><path fill="#8a9097" d="M479.84 332.869s.144-16.976.352-23.952h-14.656l4.08 23.952z"/><path fill="#c535bc" d="m422.368 120.538-5.984 20.203 9.008 5.216c1.116-7.006 1.872-9.678 1.872-17.189z"/><path fill="#eff1f2" d="M461.584 81.413c-1.056-1.856-3.536-.08-5.168 1.552-.016-.224 1.6-8.736 1.6-8.736s-5.504 2.256-10.832 1.808a13.1 13.1 0 0 1-6.08-2.096c-.48 2.208-.752 4.464-.88 6.752-.064.848-.08 1.792-.096 2.736a54.4 54.4 0 0 0 .704 8.528c1.264.752 2.56 1.36 3.984 1.792 1.328.48 6.92-.49 6.012.738-1.256 1.701-5.19 3.371-6.95 3.371-.909 4.218-1.103 6.925-1.558 11.202l4.304-2.4 10.095-5.613.462-11.044-.285-1.119c1.6-1.2 6.016-4.96 4.688-7.472Z"/><path fill="#e472db" d="m456.721 101.03-14.401 8.044.987-7.887-12.714 6.82c-5.28 3.168-8.448 8.944-8.384 15.072.522 6.819 2.101 15.448 3.168 22.88l1.696 35.92h41.632l5.408-71.2-17.392-9.648Z"/><path fill="#2e3033" d="m456.241 87.558 6.08-2.497-1.344 2.177-5.392 2.175-4.702 5.023h-.003l-.052.051c-.338.333-4.465.896-7.545-.132l.25-1.056c1.994.491 4.032.511 6.186.163l4.665-5.601 2.495-10.688 1.856-.305-2.495 10.689Z"/><path fill="#c535bc" fill-rule="evenodd" d="M460.898 78.451c-3.744-2.176-9.584-.368-12.256-.336-1.776.032-3.837.226-6.928-.416-3.845-.799-5.6-1.824-5.36-2.576.064-.224 1.968-16.656 13.84-15.936 7.12.432 17.664 5.568 19.904 12.448 1.776 5.44-.352 11.248-6.368 17.408l-2.944-1.728c1.312-1.712 1.984-3.056 2.048-3.84.192-2.464-.736-4.32-1.952-5.024z"/><path fill="#d543cb" d="M471.905 109.044c-6.256 2.448-8.128 12.704-6.272 17.808.736 2.032 2.224 4.416 6.592 6 1.056.384 13.92-9.936 18.496-13.104 11.44-7.936 12.6-10.736 12.792-10.88-.32-2.624-2.968-4.208-5.928-5.632-3.776-1.472-5.888-.976-8.032-.208 0 0-13.312 4.32-17.648 6.016"/><path fill="#d0d4d8" d="M500.385 99.782c3.088 2.032 4.102 7.415 3.44 8.656-1.482 2.778-8.816 3.68-12.48 2.608-.608-.176-1.136-.528-1.584-.96l-25.696-25.152s-2.464-.32-3.744-3.008l-3.152-8.56 8.928-3.664 1.568 9.632z"/><path fill="#eff1f2" fill-rule="evenodd" d="m466.097 69.702-5.12-4.881c-2.16-1.792-5.84-.272-7.824.528l4.016 8.016z"/><path fill="#383b3e" d="m403.007 140.758-8.352-21.712a2.24 2.24 0 0 0-2.112-1.44l-.992-.048c.88.048 1.6.672 1.936 1.488l8.368 21.776a2.08 2.08 0 0 1-.272 2.048c-.286.369-1.122.959-1.842.959h1.104c.768 0 1.504-.406 1.89-.959.361-.517.56-1.392.272-2.112"/><path fill="#101112" d="M399.728 143.829a2.29 2.29 0 0 0 1.888-.944c.448-.608.56-1.44.272-2.112l-8.368-21.776c-.336-.832-1.056-1.392-1.936-1.44h-.112l-10.784-.16c-.72 0-1.44.336-1.888.944a2.39 2.39 0 0 0-.224 2.112l8.368 21.776c.272.72.88 1.216 1.664 1.392.112 0 .272.048.384.048z"/><path fill="#e0e2e5" fill-rule="evenodd" d="m383.136 145.109 7.6-4.928c2.32-.848 3.664-4.864 3.376-7.328l-11.824-.416z"/><path fill="#ffc6c6" d="m366.584 133.507-15.882-16.198V64.767h-72.816v68.816z"/><path fill="#ed0007" d="M324.319 75.359H304.27l-13.808 13.808v20.048l13.808 13.808h20.049l13.807-13.808V89.167z"/><path fill="#fff" d="M315.806 87.264h-3.04v7.408l.8 9.136h1.456l.8-9.136zM312.175 108.976c0 1.184.928 2.112 2.112 2.112s2.112-.96 2.112-2.112-.96-2.112-2.112-2.112-2.112.928-2.112 2.112"/></svg>