<svg xmlns="http://www.w3.org/2000/svg" viewBox="0 0 600 400"><path fill="#eff1f2" d="M472.893 116.352c-2.08-5.936-7.712-10.208-14.368-10.208-.192 0-.384.016-.56.032-2.048-8.112-9.392-14.128-18.144-14.128-6 0-11.328 2.816-14.752 7.216a17 17 0 0 0-1.568-.064c-9.808 0-17.856 7.552-18.64 17.168zm90.299 93.344S540.415 172.601 507 167.008c-26.259-4.395-30.354-23.695-56.322-23.695-40.268 0-78.859 66.399-78.859 66.399z"/><path fill="#e0e2e5" d="M97.417 176.592c13.872 0 25.776-10.752 26.032-24.464.144-7.872-3.392-14.912-9.04-19.584a20.1 20.1 0 0 0 4.448-12.624c0-5.088-1.904-9.744-5.024-13.312a18.64 18.64 0 0 0 3.488-10.864c0-8.56-15.12-20-18.992-22.784a1.54 1.54 0 0 0-1.792 0c-3.872 2.784-18.992 14.224-18.944 22.784a18.75 18.75 0 0 0 3.488 10.864c-3.12 3.568-5.024 8.224-5.024 13.312 0 4.768 1.664 9.152 4.448 12.624-5.632 4.672-9.184 11.712-9.04 19.584.256 13.696 12.08 24.464 25.952 24.464m57.086-16.111c11.792 0 21.824-9.136 22.048-20.768.128-6.688-2.88-12.672-7.68-16.624a17.04 17.04 0 0 0 3.776-10.72c0-4.32-1.616-8.272-4.272-11.312a15.77 15.77 0 0 0 2.976-9.232c0-7.28-12.848-16.992-16.128-19.36a1.27 1.27 0 0 0-1.52 0c-3.28 2.368-16.128 12.08-16.096 19.36a15.9 15.9 0 0 0 2.976 9.232c-2.656 3.04-4.272 6.976-4.272 11.312 0 4.048 1.424 7.776 3.776 10.72-4.784 3.968-7.792 9.952-7.68 16.624.224 11.632 10.304 20.768 22.096 20.768"/><path fill="#eff1f2" fill-rule="evenodd" d="M340.264 209.712c-89.536-58.032-134.16-71.568-170.736-71.568-31.904 0-79.328 9.984-145.888 71.568z"/><path fill="#eff1f2" d="M161.344 344.705h277.328a3.008 3.008 0 0 0 0-6.016H161.344a3.008 3.008 0 0 0 0 6.016"/><path fill="#8a9097" d="M380.959 329.669h13.728c.416-5.712 1.76-19.936 2.112-23.952h-17.04z"/><path fill="#e0e2e5" d="M422.223 247.62a15.3 15.3 0 0 1-1.696-6.064l-17.6.56c2.176 10.704 3.648 18.736 3.648 18.736l7.744 44.864h14.656c1.408-35.008 5.152-36.896-6.752-58.096"/><path fill="#d0d4d8" d="M377.711 242.133h18.24c-.704 6.688-.64 13.456.288 20.064 3.376 23.456 2.752 25.84.56 43.52h-17.04l-1.904-49.648-.144-13.952"/><path fill="#101112" d="M395.103 178.677h-19.216l-2.048 63.456h23.392l3.312-36.848z"/><path fill="#383b3e" d="M400.608 242.197s-.704-5.36-1.968-12.672c-1.696-10-4.576-23.728-8.24-32.816-2.528-6.128-3.168-14.304-3.312-18.032h30.42c7.536 12.544 4.156 24.368 6.556 53.952.416 5.424.496 8.8.496 8.8zm-5.922 87.472h-13.727l-20.912 8.096c1.824 2.32 4.784 3.648 7.744 3.648h27.43l-.534-11.744Zm44.016 7.536-10.064-7.536H418.43l-1.552 11.76h19.648c.992 0 1.904-.56 2.4-1.408.416-.912.4-1.968-.224-2.816"/><path fill="#8a9097" d="M428.638 329.669s.144-16.976.352-23.952h-14.656l4.08 23.952z"/><path fill="#d0d4d8" d="M391.694 91.199c-.144 1.12-.222 2.353-.366 3.473 1.68-.992 3.296-2.24 4.64-3.808z"/><path fill="#101112" d="M409.824 72.321c-.496-4.352-5.696-6.96-5.696-6.96-.416-7.456-9.568-4.848-9.568-4.848s-7.024-3.44-10.544-1.68c-3.44 1.68-.848 6.544-2.176 8.224-.848 1.328-1.472 2.816-1.76 4.352 0 0-.64 5.76 4 8.368-.416-2.256-.704-4.496-.768-6.816 2.032.768 4.224.992 6.4.64 5.28-.848 10.048-4.352 10.048-4.352s0 6.112.416 8.304c0 .144.064.352.144.56 1.2-1.968 3.168-4.288 4.64-2.736 1.904 2.112-1.552 6.816-2.736 8.368l.352.848s7.664-7.872 7.248-12.24"/><path fill="#d0d4d8" fill-rule="evenodd" d="M379.232 160.208c-12.944 11.888-38.8-17.248-38.8-17.248l-9.216-2.736 10.336-10.048 21.44 16.176 9.632-35.44 8.992 29.744z"/><path fill="#007bc0" d="m370.24 118.225-5.84 17.648 8.992 5.2-3.088-21.584c-.064-.416-.064-.848-.064-1.264"/><path fill="#eff1f2" d="m405.808 102.528-1.248-6.384-1.968-11.6-.352-.848c1.264-1.552 4.64-6.256 2.736-8.368-1.472-1.552-3.44.768-4.64 2.736-.064-.208-.064-.416-.144-.56-.416-2.176-.416-8.304-.416-8.304s-4.784 3.52-10.048 4.352a13.14 13.14 0 0 1-6.4-.56c.064 2.256.352 4.496.768 6.752.144.848.352 1.76.56 2.672.704 2.736 1.616 5.488 2.736 8.08 1.408.416 2.816.704 4.288.768 1.408.144 2.88 0 4.224-.352-1.328 1.408-2.88 2.736-4.576 3.728-.048.352-1.056 9.568-1.056 9.568z"/><path fill="#383b3e" d="m351.102 135.905-8.352-21.712a2.24 2.24 0 0 0-2.112-1.44l-.992-.048c.88.048 1.6.672 1.936 1.488l8.368 21.776a2.08 2.08 0 0 1-.272 2.048c-.286.369-1.122.959-1.842.959h1.104c.768 0 1.504-.406 1.89-.959.361-.517.56-1.392.272-2.112"/><path fill="#101112" d="M347.824 138.976a2.29 2.29 0 0 0 1.888-.944c.448-.608.56-1.44.272-2.112l-8.368-21.776c-.336-.832-1.056-1.392-1.936-1.44h-.112l-10.784-.16c-.72 0-1.44.336-1.888.944a2.39 2.39 0 0 0-.224 2.112l8.368 21.776c.272.72.88 1.216 1.664 1.392.112 0 .272.048.384.048z"/><path fill="#e0e2e5" fill-rule="evenodd" d="m331.232 140.225 7.584-4.928c2.641-1.711 3.664-4.848 3.376-7.312l-11.808-.416z"/><path fill="#00a4fd" d="m404.544 96.129-14.256 8.096.88-8.112-12.56 7.056c-5.28 3.168-8.432 8.928-8.368 15.04 0 .416 0 .848.064 1.264l4.848 33.68.742 25.533h41.626l4.528-72.861z"/><path fill="#2e3033" d="m401.55 82.352 5.297-3.888-.784 2.448-4.905 3.661-2.667 5.911q-.001.013-.005.027c-.161.377-4.554 2.353-7.936 1.859l.092-1.189c1.074.112 4.421-.407 6.37-1.419l.058-.05 2.752-6.625-.175-10.959 1.728-.736.175 10.959Z"/><path fill="#007bc0" fill-rule="evenodd" d="M403.855 72.384c-4.16-1.216-9.392 1.952-11.968 2.64-1.712.464-3.984.88-6.832 1.264-3.936 0-5.872-.416-5.824-1.2 0-.24-2.112-16.64 9.6-18.8 7.024-1.296 18.48 1.136 22.32 7.28 3.024 4.848 2.368 10.992-1.984 18.432l-3.264-.976c.864-1.984 1.184-3.44 1.056-4.224-.4-2.448-1.76-4.016-3.104-4.416"/><g fill-rule="evenodd"><path fill="#2e3033" d="M383.056 333.584c-24.479 0-44.336-19.846-44.336-44.336s19.846-44.336 44.336-44.336 44.335 19.846 44.335 44.336-19.846 44.336-44.335 44.336m0-98.124c-29.708 0-53.789 24.08-53.789 53.789s24.08 53.789 53.789 53.789 53.789-24.08 53.789-53.789-24.08-53.789-53.789-53.789m-166.497 98.124c-24.479 0-44.336-19.846-44.336-44.336s19.846-44.336 44.336-44.336 44.336 19.846 44.336 44.336-19.846 44.336-44.336 44.336m0-98.124c-29.708 0-53.789 24.092-53.789 53.789s24.08 53.789 53.789 53.789 53.789-24.08 53.789-53.789-24.08-53.789-53.789-53.789m59.14 11.842-14.506-41.251c1.183-.276 2.189-.663 3.284-1.084 1.017-.398 2.112-.818 3.494-1.205a36 36 0 0 1 7.087-1.117c4.688-.31 4.854-5.639-1.194-6.258l-12.914-1.603c-9.763-1.338-15.335-2.09-18.364.531-1.482 1.283-1.404 3.925-.796 5.44.63 1.592 3.98 4.699 14.207 5.594l15.379 43.683 4.323-2.731Z"/><path fill="#00a4fd" d="m327.145 230.662-20.487 37.901-6.379 11.797a3.44 3.44 0 0 1-2.985 1.835l-5.948.133a3.52 3.52 0 0 1-3.405-2.366l-8.79-25.706a3.485 3.485 0 0 1 1.537-4.146l41.229-24.456c3.284-1.946 7.043 1.658 5.23 5.008Zm-46.116 52.683-7.684 10.382a2.55 2.55 0 0 1-2.211 1.017l-46.635-3.759a8.4 8.4 0 0 0 .199-1.769c0-2.2-.862-4.19-2.267-5.661l45.662-27.032c1.924-1.028 4.212-.343 4.986 1.979 2.056 6.147 5.639 17.126 7.264 22.101.365 1.117.63 1.935.763 2.322.044.144 0 .31-.077.42m102.569-2.289-34.893-73.668 17.093-8.171a5.055 5.055 0 0 0 2.388-6.744c-1.161-2.432-4.036-3.527-6.534-2.488l-10.293 4.776c1.028-2.333-.033-5.086-2.366-6.114a4.6 4.6 0 0 0-3.615-.044l-11.012 4.522a4.65 4.65 0 0 0-2.521 6.059c.752 1.813 2.565 2.974 4.522 2.864l2.83 5.838-119.562 73.723a8.2 8.2 0 0 0-3.173-.63 8.237 8.237 0 1 0 0 16.474 8.2 8.2 0 0 0 5.65-2.255l53.667 5.351a3.56 3.56 0 0 1 2.665 1.769l3.107 4.843c.884 1.393 2.488 1.924 3.991 2.023 1.249.077 2.543.088 5.042-1.459l9.243-5.064a3.4 3.4 0 0 0 1.459-1.404l40.234-72.706a3.5 3.5 0 0 1 1.647-1.504l4.4-1.946 28.779 59.405a8.24 8.24 0 0 0-1.526 4.765 8.237 8.237 0 1 0 16.474 0c0-4.544-3.394-7.927-7.695-8.215Z"/><path fill="#2e3033" d="m307.143 322.02-6.247-.022-9.033-27.01a2.74 2.74 0 0 0-3.461-1.725 2.74 2.74 0 0 0-1.725 3.461l8.458 25.297h-5.594a1.624 1.624 0 0 0-1.681 1.537v1.747a1.61 1.61 0 0 0 1.681 1.548h17.602a1.61 1.61 0 0 0 1.681-1.548v-1.747a1.61 1.61 0 0 0-1.681-1.537Z"/></g><path fill="#e0e2e5" d="m419.759 146.048 3.008-10.64-16.608-8.672c-1.552 4.992-6.32 26.576-7.2 31.728 4.24.752 9.632 4.32 13.072 2.512 3.456-3.952 7.712-14.928 7.712-14.928z"/><path fill="#0088d4" d="M425.36 138.833s1.808-15.104 1.632-21.824c-.16-5.968-.784-9.408-5.248-11.472-6.864-2.304-12.816 5.488-13.904 9.488-2.08 8.096-5.104 19.504-5.104 19.504z"/><path fill="#e0e2e5" d="M412.016 160.977c-7.04-5.872-13.856-3.6-20.256 2.256-6.464 5.856-12.416 15.28-17.648 23.296l-10.976-2.832 2.976 12.016c3.184.768 13.808 1.072 13.808 1.072s32.32-35.616 32.096-35.808"/><path fill="#d0d4d8" d="M366.128 195.729c-.352.08-5.568 2.112-8.656-.352-3.152-2.528-3.136-4.64-3.136-4.64l8.832-7.04 2.976 12.016z"/><path fill="#9dc9ff" d="m296.504 107.047 14.488-11.145.92-.707-.988-.608-18.526-11.4-1.219-.75v20.477l-10.866-9.055-.615-.512-.512.615-1.505 1.806-.512.615.615.512 12.188 10.156-12.108 9.081-.64.48.48.64 1.411 1.881.48.64.64-.48 10.946-8.209v20.979l1.255-.869 18.523-12.823.95-.658-.95-.658-14.453-10.006Zm-1.374 3.854 9.836 6.809-9.836 6.809zm0-21.395 9.831 6.05-9.831 7.562V89.505Z"/></svg>