<svg xmlns="http://www.w3.org/2000/svg" viewBox="0 0 197.055 365"><path fill="#dfe2e4" d="M197.058 37.82v93.07c0 1.25-.1 2.49-.27 3.69.16 1.95.27 3.91.27 5.9v201.416c0 12.76-10.344 23.104-23.104 23.104H23.117C10.352 365 .006 354.648.013 341.883L.128 140.48c0-1.99.1-3.95.26-5.9-.17-1.2-.26-2.44-.26-3.69V37.82c0-6.65 2.54-12.73 6.71-17.33-.11.16-.21.33-.3.49-.2.35-.37.69-.5 1.04-.07.16-.12.32-.17.48-.02.02-.02.04-.03.06-.04.13-.07.25-.1.38-.03.08-.05.17-.06.25-.04.13-.06.27-.08.4-.06.35-.09.71-.09 1.06 0 13.62 41.67 24.65 93.08 24.65s93.08-11.03 93.08-24.65q0-.3-.03-.6c-.01-.17-.03-.34-.07-.52-.02-.15-.05-.31-.09-.46 0-.01-.01-.03-.02-.05-.03-.16-.08-.33-.13-.49-.17-.53-.41-1.06-.71-1.59-.1-.17-.2-.34-.31-.51 4.18 4.61 6.75 10.71 6.75 17.39"/><path fill="#4f5257" d="M191.671 24.652C191.671 11.037 149.996 0 98.588 0S5.507 11.037 5.507 24.652s41.675 24.652 93.081 24.652 93.083-11.037 93.083-24.652"/><path fill="#2f3134" d="M139.423 29.564c0-5.36-18.283-9.705-40.834-9.705s-40.833 4.345-40.833 9.705 18.281 9.705 40.833 9.705 40.834-4.345 40.834-9.705"/><path fill="#a2aab1" d="M74.47 89.365h51.302v13.24H74.47zM197.236 41.419c-8.184 10.938-49.172 19.252-98.508 19.252-49.799 0-91.088-8.47-98.728-19.558v3.555q2.115 2.004 5.454 3.845c5.226 2.875 12.638 5.441 22.031 7.627 19.056 4.434 44.357 6.877 71.243 6.877s52.185-2.443 71.241-6.877c9.393-2.186 16.805-4.753 22.031-7.627 2.115-1.164 3.857-2.382 5.236-3.648z"/><path fill="#4f5257" d="M16.545 347.713c-.951 0-1.722-.602-1.722-1.346v-119.31c0-.742.771-1.345 1.722-1.345s1.721.602 1.721 1.345v119.31c0 .743-.77 1.346-1.721 1.346m36.437 0c-.951 0-1.722-.602-1.722-1.346v-119.31c0-.742.771-1.345 1.722-1.345s1.721.602 1.721 1.345v119.31c0 .743-.77 1.346-1.721 1.346m-18.218 0c-.951 0-1.722-.602-1.722-1.346v-119.31c0-.742.771-1.345 1.722-1.345s1.721.602 1.721 1.345v119.31c0 .743-.77 1.346-1.721 1.346m36.437 0c-.951 0-1.722-.602-1.722-1.346v-119.31c0-.742.771-1.345 1.722-1.345s1.721.602 1.721 1.345v119.31c0 .743-.77 1.346-1.721 1.346m18.218 0c-.951 0-1.722-.602-1.722-1.346v-119.31c0-.742.771-1.345 1.722-1.345s1.721.602 1.721 1.345v119.31c0 .743-.77 1.346-1.721 1.346m18.218 0c-.951 0-1.722-.602-1.722-1.346v-119.31c0-.742.771-1.345 1.722-1.345s1.721.602 1.721 1.345v119.31c0 .743-.77 1.346-1.721 1.346m18.219 0c-.951 0-1.722-.602-1.722-1.346v-119.31c0-.742.771-1.345 1.722-1.345s1.721.602 1.721 1.345v119.31c0 .743-.77 1.346-1.721 1.346m18.218 0c-.951 0-1.722-.602-1.722-1.346v-119.31c0-.742.771-1.345 1.722-1.345s1.721.602 1.721 1.345v119.31c0 .743-.77 1.346-1.721 1.346m18.219 0c-.951 0-1.722-.602-1.722-1.346v-119.31c0-.742.771-1.345 1.722-1.345s1.721.602 1.721 1.345v119.31c0 .743-.77 1.346-1.721 1.346m18.218 0c-.951 0-1.722-.602-1.722-1.346v-119.31c0-.742.771-1.345 1.722-1.345s1.721.602 1.721 1.345v119.31c0 .743-.77 1.346-1.721 1.346"/></svg>