<svg xmlns="http://www.w3.org/2000/svg" viewBox="0 0 1250 800"><path fill="#a2aab1" d="M990.296 0v800H1250V58.283C1250 26.135 1223.891 0 1191.774 0h-201.71z"/><path fill="#dfe2e4" d="M58.92 0h1010.397c32.579 0 58.917 26.367 58.917 58.975V800H0V58.975C0 26.367 26.341 0 58.92 0"/><path fill="#70767e" d="M759.037 410.229c0 191.547-156.074 347.009-348.371 347.009S62.295 601.776 62.295 410.229 218.366 63.22 410.666 63.22c92.424 0 180.787 36.421 246.128 101.508 65.339 65.085 101.903 153.439 101.903 245.164z"/><path fill="#dfe2e4" d="M652.024 410.229c0 133.36-108.13 241.596-241.359 241.596S169.306 543.588 169.306 410.229s108.13-241.596 241.359-241.596c64.035 0 125.253 25.357 170.523 70.671s70.602 106.829 70.602 170.691z"/><path fill="#a2aab1" d="M884.704 390.171h160.35v43.712h-160.35z"/><path fill="none" stroke="#dfe2e4" stroke-miterlimit="10" stroke-width="6" d="M652.024 410.229c0 133.36-108.13 241.596-241.359 241.596S169.306 543.588 169.306 410.229s108.13-241.596 241.359-241.596c64.035 0 125.253 25.357 170.523 70.671s70.602 106.829 70.602 170.691z"/><path fill="none" stroke="#dfe2e4" stroke-miterlimit="10" stroke-width="6" d="M142.553 410.229c0-147.906 120.116-267.95 268.112-267.95 71.132 0 139.137 28.123 189.424 78.38s78.427 118.482 78.427 189.309l.261.26c0 147.907-120.116 267.95-268.112 267.95s-268.112-120.043-268.112-267.95Z"/><path fill="none" stroke="#dfe2e4" stroke-miterlimit="10" stroke-width="6" d="M115.8 410.229c0-162.452 132.101-294.303 294.865-294.303 78.229 0 153.02 30.889 208.326 86.089 55.305 55.199 86.252 130.134 86.252 207.927l.287.286c0 162.453-132.102 294.303-294.865 294.303S115.8 572.682 115.8 410.229Z"/><path fill="none" stroke="#dfe2e4" stroke-miterlimit="10" stroke-width="6" d="M89.047 410.229c0-176.999 144.086-320.656 321.618-320.656 85.327 0 166.903 33.655 227.227 93.799 60.322 60.142 94.078 141.786 94.078 226.546l.313.312c0 177-144.088 320.656-321.618 320.656S89.047 587.229 89.047 410.229Z"/><path fill="none" stroke="#dfe2e4" stroke-miterlimit="10" stroke-width="6" d="M759.037 410.229c0 191.547-156.074 347.009-348.371 347.009S62.295 601.776 62.295 410.229 218.366 63.22 410.666 63.22c92.424 0 180.787 36.421 246.128 101.508 65.339 65.085 101.903 153.439 101.903 245.164z"/><path fill="#a2aab1" d="M410.803 331.729c-44.347 0-80.298 35.951-80.298 80.298s35.951 80.298 80.298 80.298 80.298-35.951 80.298-80.298c-.024-44.338-35.961-80.274-80.298-80.298m0 153.099c-40.207 0-72.801-32.594-72.801-72.801s32.594-72.801 72.801-72.801 72.801 32.594 72.801 72.801c-.041 40.19-32.611 72.76-72.801 72.801"/><path fill="#a2aab1" d="M443.955 361.882h-5.498v27.488h-55.142v-27.488h-5.664c-27.694 18.275-35.33 55.541-17.055 83.235a60.1 60.1 0 0 0 17.055 17.055h5.664v-27.488h55.142v27.488h5.498c27.694-18.275 35.33-55.541 17.055-83.235a60.1 60.1 0 0 0-17.055-17.055m-68.304 89.461c-21.714-19.296-23.674-52.541-4.378-74.254a53 53 0 0 1 4.378-4.378zm62.806-24.323h-55.142v-30.153h55.142zm7.497 24.157v-78.465c21.668 19.469 23.45 52.817 3.981 74.484a53 53 0 0 1-3.981 3.981"/></svg>