<svg xmlns="http://www.w3.org/2000/svg" viewBox="0 0 182.8 135.8"><g data-name="Ebene_1"><path fill="#003e64" d="M54.8 20.9c-6.7 5.2-22.3 20.4-27.7 35.2-.4 1.3-1.5 2.4-2.8 2.8-1.4.4-2.9-.2-3.6-1.5-1.3-1.8-1.2-4.3-.5-6.5 6.2-19 21.7-33.8 31.8-38.4 1.9-.9 5.3.3 6.2 2 1 1.8-.8 4.3-3.4 6.3zM21.4 93.7s83.2 21.5 159.9 13.8c0 0-71 24.4-89 26.8-23 3.1-63.4 1.9-80.4-8.1-13.2-7.8-21.5-19.5 8.8-37 .8-.4.7 4.5.7 4.5"/><path fill="#005587" d="M153.3 15.6s-21.5-18.3-55-14c0 0-26.6 1.3-46.3 17.5-8 6.6-37 25.6-30.7 74.6 0 0 23 28.2 104.4 17.8l55.4-4s11.6-58.3-27.9-91.9z"/><path fill="#003e64" d="M140.8 8.3s-76.2 20.2-79 102.5c-1.2 6.1-16.4-3.3-16.4-3.3-3.9-61.1 46.6-98.1 75-106 20.8-5.7 20.4 6.8 20.4 6.8m7.5 43.5c-10.1 6.7-28.2 20.8-35.1 40.5-.6 1.8-2.1 3.3-3.9 3.9-1.9.7-4.1 0-5.3-1.6-2-2.3-2.5-5.6-1.2-8.4 11.1-24.7 27-41.1 40.4-44.9h.3c6.4-1.8 10.3 6.8 4.7 10.4z"/></g></svg>