<svg xmlns="http://www.w3.org/2000/svg" viewBox="0 0 1920 1080"><path fill="#eff1f2" d="M784.411 323.347h414.425v567.891H784.411z"/><path fill="#eff1f2" d="M1104.306 359.329h319.895v516.39h-319.895zm584.56-78.933h-108.89a35.415 35.415 0 1 1 0-70.825 36.5 36.5 0 0 1 6.045.5l17.42 2.975c4.56-21.173 23.296-36.28 44.955-36.245 25.375 0 45.94 20.47 45.94 45.72a46 46 0 0 1-.385 5.945c13.275 2.576 22.41 14.83 21.087 28.289-1.323 13.458-12.67 23.7-26.192 23.641zM682.51 186.826h98.54c12.349.054 22.671-9.378 23.728-21.68 1.057-12.304-7.506-23.358-19.682-25.41l-14.085-2.415c.065-.945.11-1.9.11-2.865 0-22.85-18.615-41.37-41.575-41.37-18.659-.026-35.047 12.387-40.075 30.355l-1.445-.245a32.06 32.06 0 1 0-5.515 63.63zM434.772 362.649H261.857c-23.1 0-41.83-18.64-41.83-41.625.049-20.3 14.714-37.613 34.73-41l24.78-4.215a77 77 0 0 1-.175-5.04c0-40.12 32.665-72.62 72.955-72.62 32.74-.052 61.502 21.723 70.335 53.25l2.5-.43c3.17-.54 6.38-.81 9.595-.81 31.21 0 56.5 25.175 56.5 56.235s-25.285 56.255-56.475 56.255"/><path fill="#eff1f2" d="M1242.705 868.559c73.43-39.16 167.76-57.36 275.26-2.9 57.895 29.29 106.98 10.26 159.78 14.5v-23.565a33.72 33.72 0 0 1-25.895-51.89c-.735-3.185-1.605-7.17-1.605-8.615 0-16.555 30-67.17 30-67.17s30 50.615 30 67.17c-.005 1.485-.785 5.645-1.445 8.865a33.73 33.73 0 0 1-26.055 51.64v24.03c47.76 5.19 98.85 31.065 162.42 129.91l-602.415.025v.155H922.9v-.155H74.835a531.6 531.6 0 0 1 180.375-99.5v-54.275a55.135 55.135 0 0 1-42.31-84.82c-1.2-5.195-2.62-11.695-2.62-14.05 0-27.055 49-109.755 49-109.755s49 82.7 49 109.755c-.005 2.42-1.28 9.205-2.355 14.47a55.13 55.13 0 0 1-42.575 84.4v51.765a542.2 542.2 0 0 1 164.14-23.05z"/><path fill="#f7f8f9" d="M1104.351 384.899h58.09v77.71h-58.09zm65.44 0h58.09v77.71h-58.09zm65.44 0h58.09v77.71h-58.09zm65.44 0h58.09v77.71h-58.09zm65.44 0h58.09v77.71h-58.09zm-261.76 103.275h58.09v77.71h-58.09zm65.44 0h58.09v77.71h-58.09zm65.44 0h58.09v77.71h-58.09zm65.44 0h58.09v77.71h-58.09zm65.44 0h58.09v77.71h-58.09zm-261.76 103.28h58.09v77.71h-58.09zm65.44 0h58.09v77.71h-58.09zm65.44 0h58.09v77.71h-58.09zm65.44 0h58.09v77.71h-58.09zm65.44 0h58.09v77.71h-58.09zm-261.76 103.275h58.09v77.71h-58.09zm65.44 0h58.09v77.71h-58.09zm65.44 0h58.09v77.71h-58.09zm65.44 0h58.09v77.71h-58.09zm65.44 0h58.09v77.71h-58.09zm-261.76 103.28h58.09v77.71h-58.09zm65.44 0h58.09v77.71h-58.09zm65.44 0h58.09v77.71h-58.09zm65.44 0h58.09v77.71h-58.09zm65.44 0h58.09v77.71h-58.09z"/><path fill="#eff1f2" d="M427.959 497.635h454.846v411.633H427.959z"/><path fill="#f7f8f9" d="M427.959 534.019h454.846v51.26H427.959zm0 88h454.846v51.26H427.959zm356.452-176h98.394v51.26h-98.394zm0-88h98.394v51.26h-98.394zM427.959 710.014h454.846v51.26H427.959zm0 87.995h454.846v51.26H427.959z"/><path fill="#f7f8f9" d="M427.959 798.009h454.846v51.26H427.959z"/><path fill="#e0e2e5" d="M74.835 929.006h1770.33v81.707H74.835z"/><path fill="#fff" d="M997.352 798.009h69.204v130.998h-69.204zm-76.798 0h69.204v130.998h-69.204z"/><ellipse cx="693.84" cy="975.026" fill="#b2b9c0" rx="154.504" ry="7.904"/><circle cx="993.555" cy="471.649" r="87.465" fill="#fff"/><path fill="#d0d4d8" d="M1013.91 533.145h-43.047v-39.973H930.89v-43.047h39.973v-39.973h43.048v39.973h39.973v43.047h-39.973v39.973z"/><path fill="#a4abb3" d="M532.406 820.951h180.345v106.81H532.406z"/><path fill="#c1c7cc" d="M532.406 851.951h180.345v42.648H532.406z"/><path fill="#101112" d="M532.406 927.761H817v25.565H532.406z"/><circle cx="609.341" cy="953.327" r="21.699" fill="#383b3e"/><circle cx="609.341" cy="953.327" r="11.824" fill="#7d8389"/><circle cx="609.341" cy="953.327" r="11.824" fill="#7d8389"/><path fill="#b2b9c0" d="M712.751 834.076h40.182l28.325 60.523L817 905.665v22.096H712.75z"/><path fill="#71767c" d="M532.406 953.327h51.37c0-14.12 11.446-25.566 25.565-25.566h-76.935zm76.935-25.566c14.12 0 25.565 11.446 25.565 25.566h77.845V927.76z"/><circle cx="764.506" cy="953.327" r="21.699" fill="#383b3e"/><circle cx="764.506" cy="953.327" r="11.824" fill="#7d8389"/><g fill="#7d8389"><path d="M712.751 953.327h26.19c0-14.12 11.446-25.566 25.565-25.566h-51.755z"/><path d="M764.506 927.761c14.12 0 25.566 11.446 25.566 25.566H817V927.76z"/></g><path fill="#a4abb3" d="M733.543 820.951a6.67 6.67 0 0 0-6.564 5.48l-1.388 7.645h15.905l-1.388-7.645a6.67 6.67 0 0 0-6.565-5.48"/><path fill="#e0e2e5" d="M532.406 927.761h20.447v12.783h-20.447zm274.371 0h10.224v12.783h-10.224z"/><circle cx="609.892" cy="873.275" r="41.258" fill="#fff"/><path fill="#71767c" d="M619.494 902.284h-20.306v-18.856h-18.856v-20.306h18.856v-18.855h20.306v18.855h18.856v20.306h-18.856z"/><path fill="#d0d4d8" d="M781.258 894.6H712.75v-42.65h14.429z"/><path fill="#383b3e" d="m781.258 894.6-45.261-5.7a10.076 10.076 0 0 1-8.817-9.998v-26.95h34.119l19.959 42.647z"/></svg>