<svg xmlns="http://www.w3.org/2000/svg" viewBox="0 0 1920 1080"><defs><clipPath id="a"><path fill="none" d="M-51.782-1h1920v1080h-1920z"/></clipPath></defs><g data-name="Ebene_1"><path fill="#a4abb3" d="M986.718 157.7h-52.2l-.9 62.4h-294.8V40h294.8l.9 70.4.2-.6 52.1 47.9z"/><g clip-path="url(#a)"><path fill="#003e64" d="m946.318 663.3 115.3 8.4 33-86.7-20.8-155.1c-4-24.5-8.1-48.4-3.7-68.6l-123.7 301.9z"/><path fill="#a4abb3" d="M995.764 579.5c-38.214 1-84.418 26.4-119.91 48.8l-48.637-43.4 1.506 87.2c8.28 6 30.455 9.6 42.962 11.4 0 0 195.064-19.4 194.833-21.7-.116-.9-.174-1.6-.29-2.5-6.774-61.3-35.203-80.9-70.464-79.8"/><path fill="#2e3033" d="M1251.218 251.9h-5.6v4.4z"/><path fill="#d0d4d8" d="M1200.518 229.2c-10.6 3.2-21.7 3.8-31.5 3.2q-1.5 13.5-2.7 27c12.7-8.4 24.2-18.6 34.2-30.1z"/><path fill="#d0d4d8" d="M1166.218 257.4c-3.3 26.8-8.9 60.6-8.9 60.6l93.9-11.1-10.3-115.3s.8-6 .7-6.7c5.5-6.7 24.8-21.4 22-38.6-1.2-7.3 1.2-12-3.3-16.6-10-10.5-24.3-22.7-32.8-10 10.3-27.9.2 1.1 0 0-1.9-10-3-20.2-3.1-30.4 0 0-32.9 0-69.5-2.1-36.3-2.1-32.4 30.6-44.2 26.7.6 15.1 2.4 30 5.4 44.8 1.1 5.7 2.5 11.6 4.2 17.5 10.2 36.3 18.7 53.7 18.7 53.7 9.7 2.8 19.6 4.6 29.7 5.1 9.8.6 19.6-.2 29.1-2.6-9.4 9.8-20 18.2-31.6 25.1z"/><path fill="#71767c" d="M1269.618 108.8c-2.7-17.3-25.1-30.5-25.1-30.5s-1-13.3-23-28.8-44.1-5.5-63-2.9c-40.8 5.5-54.9 32.1-54.1 45.6v2.3c-.9 13.4 7.7 29.3 7.7 29.3-.6-1.4-.4-3 .4-4.2 3.5-4.9 10.6-14.2 15.9-17.3 7.3-4.4 11.5 1 32.7 5.2s40.9-12.6 40.9-12.6c-9 33.1 12.8 21 19.2 30.1 1 1.4 5.2 4 8.2 6l-9.3 55.7s-3.3 4.6-12.7 3.5c-1.9-.2-21.7-9.3-53.6-10.8s-31.2 4.8-31.2 4.8-11.7 27.1 2.6 50.7c12 19.7 36.3 25.1 53.5 24.7 6.8-.2 1-4 8.2-12.3 4.8-5.5 32-4.2 40.8-17.9 5.8-9.1 2.8-22.1.2-32.6l-4-20.8c5.7-11.2 25.3-55.4 39.8-29.7 3.8-7.7 7.9-24.9 6-37.4zm-84.9 89.4c0 10.8-40.5 31-60-7.1v-2c12.1 10.3 57.4 4 57.4 4q2.7 3.7 2.7 5.1z"/><path fill="#d0d4d8" d="m1141.418 158.6-15.3 21c-.8 1.1-1.8 2.2-1.5 4.5s1.4 5.8 6.6 6.5 40.3-9.7 40.3-9.7l-16.4-8.1-13.9-14.2z"/><path fill="#005587" d="m1354.718 338.8 4.8-13.6-100.4-51-83.9 41.2-15.1-35.8-68.1 48.3c-11.7 7.9-19.8 20.1-22.5 34-4.4 20.1.2 43.8 4 68.1l20.8 155.1v.5l16.1 106.3 15.4 7.5.9-.3 174.5 70.3 11.4-304.7 42.4-125.8z"/><path fill="#003e64" d="m1359.518 325.2-4.8 13.6-42.5 126-11.2 304.4 52.7 21.3c63.7-284.6 7.7-457.1 7.7-457.1z"/><path fill="#c1c7cc" fill-rule="evenodd" d="M1391.718 883.5h-198.7l-199.1-.7c0 27 21.9 49 48.9 49h9.4l-28.1 508.2h31.8l28.1-506.9h121.7l96.2-.3 28.1 507.3h30.9l-28.1-508.2h9.3c27.4 0 49.6-22.2 49.6-49.5v1.2z"/><path fill="#2e3033" fill-rule="evenodd" d="m392.218 1441.4 23.4-454.8h203.4l23.4 454.8h29.3l-38.4-744.3h-29.3l13.3 259.6h-200.1l13.4-259.6h-29.3l-38.4 744.3z"/><path fill="#2e3033" d="m1125.718 699.3-15.4-7.5-28.3 6.7-357.3 84-58.5 578.4 77.7 22.6s145.5-385.1 85.9-480.7c6.1-.7 12.9-1.4 20.3-2.1l-8.4-93.8 284-107.5z"/><path fill="#525f6b" d="m1126.318 699-.6.3-284 107.5c67.2 5.6 113.2 20.5 135.3 99.6 242.7-47.3 371.8 17.2 376.7-115.9l-52.9-21.4-174.3-70.2h-.2z"/><path fill="#71767c" d="m841.718 806.8 8.4 93.8 51 462 9.1 3.7 59.9 21.5c27.2-260.5 28.8-402.8 7-481.6-22.2-78.8-67.9-93.7-135.3-99.4z"/><path fill="#006ead" d="m1444.518 662.3 2.5-.5-53.4-300.9c-11.7-37.5-34.8-47.3-63.9-45.3-43.7 9.8-43.7 68.1-39.3 93.5 10.5 61.6 26.4 133.7 34.6 170.3 60.8-.9 107.9 21.7 119.6 82.9z"/><path fill="#d0d4d8" d="M1324.818 579.6c-66 1-145.8 26.4-207.1 48.8l-84-43.4 2.6 87.2c14.3 6 52.6 9.6 74.2 11.4 0 0 336.9-19.4 336.5-21.7-.2-.9-.3-1.6-.5-2.5-11.7-61.3-60.8-80.9-121.7-79.8"/><path fill="#d0d4d8" d="m1033.718 585-70.7 35.7s-3.5 14 14.7 36.2 58.7 15.4 58.7 15.4l-2.6-87.3z"/><path fill="#71767c" d="m845.718 468.4 86.1 178.9h14.7l-86.1-178.9c-3.7-7.7-11.4-12.5-19.9-12.4h-14.7c8.5 0 16.2 4.8 19.9 12.4"/><path fill="#2e3033" d="M946.518 647.3h-14.5l-86.1-178.9c-3.7-7.7-11.4-12.5-19.9-12.4h-257.4c-12.1 0-21.9 9.8-22 21.9 0 3.3.7 6.6 2.1 9.6l87.1 181h510.1c9 0 16.3-7.3 16.2-16.3V646l-215.7 1.2z"/><path fill="#71767c" d="M225.318 667.3h647v29.8h-647z"/><path fill="#2e3033" d="M333.018 565.4h69.3v103.1h-69.3z"/><path fill="#a4abb3" d="M872.318 667.3v29.8h130.1l-38.4 744.3h29l23.4-454.8h207.5l23.4 454.8h29.3l-38.4-744.3h122.4v-29.8zm145.8 289.3 13.4-259.6h177.3l13.4 259.6z"/><path fill="#2e3033" d="M1131.618 386c5.5 25.4 23 67.1 23 67.1s36.6-76.4 62.4-110c28.1-36.4 58.1-54.5 63.9-57.9l-21.8-11.1-7.9-22.3-74 55.5-11.7-45.5-2.4-.9-7.6 21.8-31.7 22.5s.3 46 7.8 80.7z"/><ellipse cx="1242.818" cy="156.5" fill="#002742" rx="18.3" ry="31.5"/><path fill="#002742" d="M1254.118 128.5c1.6-51.1-37.6-86.7-76.8-87.5-28-.6-57.6 17.5-68.1 43.8 8.7-21 38.4-40.8 66.4-40.3 39.2.8 73.2 32.9 71.6 84h7zm-22.1 39.3-40.7 34.2-22.7 8.8v5.3h1.7l19.2-7 43.5-37.8-1-3.4z"/><ellipse cx="1248.018" cy="156.5" fill="#003e64" rx="17.3" ry="29.8"/><path fill="#71767c" d="M1162.918 45.8c-1.5.3-2.9.5-4.3.7-40.8 5.5-54.9 32.1-54.1 45.6v2.3c-.9 13.4 7.7 29.3 7.7 29.3-.6-1.4-.4-3 .4-4.2 3.5-4.9 10.6-14.2 15.9-17.3 7.3-4.4 11.5 1 32.7 5.2 2.1.4 4.2.6 6.3.7l-4.6-62.1z"/></g></g></svg>