<svg xmlns="http://www.w3.org/2000/svg" viewBox="0 0 3840 2160"><g fill="none" fill-rule="evenodd"><path fill="#FFF" fill-rule="nonzero" d="M0 0h3840v2160H0z"/><path fill="#EFF1F2" fill-rule="nonzero" d="M3311 2018.34c-127.87-198.83-201.9-82.77-306.77-135.86-221.36-112.11-383 104.17-408.83 135.86zm-1118.51-922.32h103.36v137.5h-103.36z"/><path fill="#EFF1F2" fill-rule="nonzero" d="M2838.73 1439.1v101.61h-911.88v-337.72h634.46l109.2 92.94z"/><path fill="#EFF1F2" fill-rule="nonzero" d="M2207.13 1540.71h-821.58V1439.1l405.19-354.38 416.39 354.38zM1547 2018.34c0-142.35-151.35-143.2-277.09-126.63-137.84 18.16-216.15 53.71-262 126.63z"/><path fill="#EFF1F2" fill-rule="nonzero" d="M1440.08 1540.71H2784.2v477.63H1440.08zm-202.59 81.08c1.62-7.19 7.39-34.36 7.4-41.73 0-55.34-100.18-224.5-100.18-224.5s-100.19 169.16-100.19 224.5c0 7.37 6.78 34.54 8.39 41.73"/><circle cx="1144.71" cy="1669.84" r="112.76" fill="#EFF1F2" fill-rule="nonzero"/><path fill="#EFF1F2" fill-rule="nonzero" d="M1136.42 1755.46h16.56v170.96h-16.56z"/><ellipse cx="2725.77" cy="919.68" fill="#EFF1F2" fill-rule="nonzero" rx="63.5" ry="63.19"/><ellipse cx="2988.26" cy="897.5" fill="#EFF1F2" fill-rule="nonzero" rx="85.79" ry="85.37"/><ellipse cx="2823.28" cy="843.35" fill="#EFF1F2" fill-rule="nonzero" rx="110.75" ry="110.2"/><path fill="#EFF1F2" fill-rule="nonzero" d="m2973.69 813.36-258.71 44.03 10.79 125.47h262.49z"/><ellipse cx="1716.27" cy="807.45" fill="#EFF1F2" fill-rule="nonzero" rx="85.42" ry="85"/><ellipse cx="1363.17" cy="777.61" fill="#EFF1F2" fill-rule="nonzero" rx="115.4" ry="114.83"/><ellipse cx="1531.55" cy="704.77" fill="#EFF1F2" fill-rule="nonzero" rx="148.98" ry="148.25"/><path fill="#EFF1F2" fill-rule="nonzero" d="m1382.77 664.42 348.01 59.25-14.51 168.78h-353.1z"/><path fill="#F7F8F9" fill-rule="nonzero" d="M1796.34 1315.16c32.922 0 59.61 26.688 59.61 59.61v74h-119.22v-74c0-32.922 26.688-59.61 59.61-59.61"/><path fill="#EFF1F2" fill-rule="nonzero" d="M529.05 2018.34c103.55-87.11 238.61-139.82 386.34-139.82s282.78 52.71 386.33 139.82z"/><path fill="#F7F8F9" fill-rule="nonzero" d="M2356.07 1584.57h116.18v155.42h-116.18zm163.01 0h116.18v155.42h-116.18zm-589.07 0h116.18v155.42h-116.18zm-383.52 0h116.18v155.42h-116.18z"/><path d="M529.05 2047.83h2781.9v29.49H529.05zm0-29.49h2781.9v29.49H529.05z"/></g></svg>