<svg xmlns="http://www.w3.org/2000/svg" viewBox="0 0 4000 3240"><g fill="none"><path fill="#232628" d="M0-.055h4000v3240H0z"/><path fill="#595E62" d="M3323.42 2224.055v1016h-621v-1016z"/><path fill="#383B3E" d="m2372 372.025-1335.91-.26-530.16 697.41h2396.23z"/><path fill="#2E3033" d="M2028.13 489.755v96.97l-91.48-33.29-232.71-84.7-232.72 84.7-91.47 33.29v-96.96l91.47-33.29 99.52-36.22 133.2-48.49 133.21 48.49 99.5 36.21z"/><path fill="#595E62" d="m1936.65 553.435-232.71-84.7-232.72 84.7v424.62h465.43z"/><path fill="#8A9097" d="M1562.35 645.565h283.19v241.36h-283.19z"/><path fill="#8A9097" d="M1845.53 645.565c-38.76-33.66-88-53.8-141.59-53.8s-102.83 20.14-141.59 53.8q94.208 1.145 141.695 1.145 46.907 0 141.485-1.145"/><path fill="#595E62" d="M2724.69 2224.055v1016h-91.12v-1016z"/><path fill="#4E5256" d="M781.37 2245.735h1852.2v994.32H781.37z"/><path fill="#595E62" d="M781.36 2224.055v1016h-91.12v-1016z"/><path fill="#595E62" d="M3323.42 2245.735H690.25v-91.12h2633.17z"/><path fill="#595E62" d="M2724.69 1125.295v1051h-91.12v-1051z"/><path fill="#4E5256" d="M781.37 1160.295h1852.2v994.32H781.37z"/><path fill="#595E62" d="M781.36 1125.295v1051h-91.12v-1051z"/><path fill="#595E62" d="M2724.68 1160.295H690.25v-91.12h2034.43z"/><path fill="#383B3E" d="m2970.74 1457.475-246.05-.05v697.19h776.21z"/><path fill="#8A9097" d="m2941.3 2370.305 63.77-52.5h45.02l63.77 52.5z"/><path fill="#43464A" d="M3027.54 2252.675c12.41 0 22.47 10.06 22.47 22.47v42.67h-44.94v-42.67c0-12.41 10.06-22.47 22.47-22.47"/><path fill="#A4ABB3" d="M3045.32 2370.305c0 9.798-7.942 17.74-17.74 17.74s-17.74-7.942-17.74-17.74z"/><path fill="#43464A" d="M2846.07 2463.845h355.97v776.21h-355.97z"/><path fill="#8A9097" d="M2816.21 3240.055h29.86v-776.21h355.97v776.21h29.86v-806.06h-415.69z"/><path fill="#383B3E" d="M3116.2 2798.575h36.75v100.48h-36.75z"/><path fill="#383B3E" d="M3064.53 2812.355h70.05v22.97h-70.05z"/></g></svg>