<svg xmlns="http://www.w3.org/2000/svg" viewBox="0 0 3840 2160"><g fill="none" fill-rule="evenodd"><path fill="#FFF" fill-rule="nonzero" d="M0 0h3840v2160H0z"/><ellipse cx="2888.52" cy="522.09" fill="#EFF1F2" fill-rule="nonzero" rx="85.42" ry="85"/><ellipse cx="2447.22" cy="492.25" fill="#EFF1F2" fill-rule="nonzero" rx="115.4" ry="114.83"/><ellipse cx="2724.83" cy="419.41" fill="#EFF1F2" fill-rule="nonzero" rx="148.98" ry="148.25"/><path fill="#EFF1F2" fill-rule="nonzero" d="m2466.82 379.07 436.21 59.24-14.51 168.78h-441.3zM778.11 2018.34c-25.86-31.69-187.48-248-408.84-135.86-104.86 53.09-178.89-63-306.77 135.86zm2980.36 0c-103.54-87.11-238.6-139.82-386.33-139.82s-282.79 52.71-386.34 139.82z"/><path fill="#EFF1F2" fill-rule="nonzero" d="M3156.33 2018.34c-67.46-56.76-155.47-91.1-251.72-91.1s-184.26 34.34-251.73 91.1z"/><path fill="#EFF1F2" fill-rule="nonzero" d="M608.02 1540.71h2224.5v477.63H608.02zm975.3-922.31h103.36v137.5h-103.36z"/><path fill="#EFF1F2" fill-rule="nonzero" d="M2229.56 961.47v101.62h-911.88V725.36h634.46l109.2 92.95zm657.49 477.63v101.61h-911.88v-337.72h634.46l109.21 92.94zm-2333.56 0v101.61h277.42v-339.16l-109.2 94.38z"/><path fill="#EFF1F2" fill-rule="nonzero" d="M1597.96 1063.09H776.38V961.47l405.19-354.38 416.39 354.38zm-767.05 0h1344.12v477.63H830.91z"/><path fill="#EFF1F2" fill-rule="nonzero" d="M1187.17 837.54c32.922 0 59.61 26.688 59.61 59.61v74h-119.22v-74c0-32.922 26.688-59.61 59.61-59.61"/><path fill="#F7F8F9" fill-rule="nonzero" d="M1826.37 1106.94h116.18v155.42h-116.18zm163.01 0h116.18v155.42h-116.18zm-1089 0h116.18v155.42H900.38zm163.01 0h116.18v155.42h-116.18zm472.08 514.38h116.18v219.62h-116.18zm379.44 0h116.18v219.62h-116.18zm-388.52-514.38h116.18v155.42h-116.18zm-163.01 0h116.18v155.42h-116.18zm892.25 514.38h496.29v397.02h-496.29zm-1455.58 0h399.44v219.62H800.05z"/><path fill="#EFF1F2" fill-rule="nonzero" d="M3318.78 1396.24c0 12.36-.06 72.44-.16 85a5.79 5.79 0 0 1-9.36 4.52l-103.85-86.18-39.8 6 91.13 71.3c48.26 36.72 59.05 66 60.71 90.67-1.51 71.92-4.29 155.72-8.13 234-1.55 31.6-3 62.91-14.67 91h120.29c-8.84-27.57-11.71-51.26-13.28-78.44-3.95-68.59-6.43-142-6.43-206.73 0-52.19 102.88-161.58 145.92-196.29l-45 4.5-96.32 92.54a4.32 4.32 0 0 1-7-3.3c-.39-21.81-.65-87.24-.79-108.59z"/><path fill="#EFF1F2" fill-rule="nonzero" d="M3035.11 1247.05c-38.8 56.08 25.81 145.84 85.32 175.86 64.23 32.41 144 19.92 185.5-20.33 38 28.92 88.52 41.6 134.86 29.73a133 133 0 0 0 18.73-6.3c57.51 28.38 126.801 15.99 170.913-30.56 44.112-46.552 52.759-116.409 21.327-172.31"/><path fill="#EFF1F2" fill-rule="nonzero" d="M3673.79 1099.17a118.84 118.84 0 0 0-34.88-52.25c-19.48-17.07-42.63-26.73-65.48-29-14.34-34.29-43.54-64.24-83.09-80.6-47.84-19.79-99-14.83-136.29 9-24.66-12.2-57.65-15-92.62-7-28.08 6.4-49.32 16.39-62.43 30.34-43.24-12.93-95.09.44-132.26 38.42-23.67 24.18-37.22 54.09-40.38 83.72-49.754 13.112-87.183 54.198-95.617 104.954-8.433 50.757 13.7 101.738 56.54 130.235s98.414 29.206 141.967 1.811l434.8-24.74c36.54 39.6 94.599 50.808 143.252 27.654s76.574-75.279 68.888-128.61c-7.686-53.33-49.188-95.45-102.4-103.924z"/><path d="M62.5 2047.83h3695.97v29.49H62.5zm0-29.49h3695.97v29.49H62.5z"/></g></svg>