<svg xmlns="http://www.w3.org/2000/svg" viewBox="0 0 3840 2160"><g fill="none" fill-rule="evenodd"><path fill="#232628" fill-rule="nonzero" d="M0 0h3840v2160H0z"/><path fill="#F7F8F9" fill-rule="nonzero" d="M1796.34 1315.16c32.922 0 59.61 26.688 59.61 59.61v74h-119.22v-74c0-32.922 26.688-59.61 59.61-59.61"/><path fill="#1A1C1D" fill-rule="nonzero" d="M3004.18 1882.48c-83.08-42.08-157.75-37.9-220-14.57v-327.19h54.53V1439.1l-168.22-143.17-109.18-92.93h-265.46v-107h-103.36v107h-262.78l-139-118.27-405.16 354.37v101.61h54.53v350.74c-51-11.18-113.23-7.25-170.19.26-45 5.93-83.65 13.71-116.9 24V1782.3a112.78 112.78 0 0 0 87.09-172.64c2.2-10.76 4.81-24.65 4.81-29.6 0-55.34-100.18-224.5-100.18-224.5s-100.19 169.16-100.19 224.5c0 4.82 2.9 18.11 5.36 28.74a112.78 112.78 0 0 0 86.54 173.5v137.77a604 604 0 0 0-221-41.55c-147.73 0-282.79 52.71-386.34 139.82H3311c-127.92-198.83-201.95-82.77-306.82-135.86m-278.41-899.62h262.49c47.38 0 85.79-38.22 85.79-85.36s-38.41-85.37-85.79-85.37a86.4 86.4 0 0 0-14.57 1.25l-42.05 7.15c-10.988-51.038-56.152-87.454-108.36-87.37-61.17 0-110.75 49.34-110.75 110.21a111 111 0 0 0 .93 14.33c-32.042 6.169-54.11 35.729-50.916 68.202 3.193 32.474 30.597 57.169 63.226 56.98zm-1362.6-90.41h353.1c47.18 0 85.42-38.06 85.42-85-.085-41.463-30.03-76.834-70.91-83.76l-50.61-8.62c.23-3.4.36-6.82.36-10.28 0-81.88-66.7-148.25-149-148.25-66.856-.093-125.58 44.38-143.61 108.76l-5.15-.88a117 117 0 0 0-19.6-1.65c-63.73 0-115.4 51.41-115.4 114.83s51.67 114.85 115.4 114.85"/><path fill="#1E2122" fill-rule="nonzero" d="M2356.07 1584.57h116.18v155.42h-116.18zm163.01 0h116.18v155.42h-116.18zm-589.07 0h116.18v155.42h-116.18zm-383.52 0h116.18v155.42h-116.18z"/><path d="M529.05 2047.83h2781.9v29.49H529.05zm0-29.49h2781.9v29.49H529.05z"/></g></svg>