<svg xmlns="http://www.w3.org/2000/svg" viewBox="0 0 8000 3240"><g fill="none"><path fill="#FFF" d="M0-.01h8000v3240H0z"/><path fill="#D0D4D8" d="M461.59 2226.67v1012h-91.12v-1012z"/><path fill="#B2B9C0" d="m6313.8 371.97-3286.08-.27-530.16 697.41h4346.4zM2681.88 1457.41l-1967.17-.27-530.16 697.41h2497.33zm3977.76 0 625.65-.27 530.16 697.41H6659.64z"/><path fill="#EFF1F2" d="M3744.49 2245.67h1852.2v994.32h-1852.2zm1943.32 0h1852.2v994.32h-1852.2z"/><path fill="#D0D4D8" d="M3744.49 2227.99v1012h-91.12v-1012z"/><path fill="#EFF1F2" d="M1801.34 2245.67h1852.2v994.32h-1852.2zm-1339.74 0h1248.72v994.32H461.6z"/><path fill="#D0D4D8" d="M1801.44 2226.99v1013h-91.12v-1013z"/><path fill="#D0D4D8" d="M7631.14 2245.67H1710.32v-91.12h5920.82z"/><path fill="#D0D4D8" d="M5687.81 2226.99v1013h-91.12v-1013zm1943.33.01v1013h-91.12V2227z"/><path fill="#EFF1F2" d="M2773 1160.23h1852.2v994.32H2773zm1943.32 0h1852.2v994.32h-1852.2z"/><path fill="#D0D4D8" d="M2773 1142.56v1030h-91.12v-1030z"/><path fill="#D0D4D8" d="M6659.64 1160.23H2681.87v-91.12h3977.77z"/><path fill="#A4ABB3" d="M4259.11 489.69v96.97l-91.47-33.29-232.71-84.7-232.72 84.71-91.47 33.29V489.7l91.47-33.29 99.51-36.22 133.21-48.49 133.21 48.49 99.5 36.21z"/><path fill="#D0D4D8" d="M4716.32 1142.55v1030h-91.12v-1030zm1943.32 0v1030h-91.12v-1030z"/><path fill="#A4ABB3" d="M7446.97 794.37h-.21v-.05z"/><path fill="#D0D4D8" d="M370.47 2154.55h1339.85v91.12H370.47zM4167.64 553.37l-232.71-84.7-232.72 84.71v424.61h465.43z"/><path fill="#A4ABB3" d="M5730.78 489.69v96.97l-91.47-33.29-232.71-84.7-232.72 84.71-91.47 33.29V489.7l91.47-33.29 99.51-36.22 133.21-48.49 133.21 48.49 99.5 36.21z"/><path fill="#D0D4D8" d="m5639.31 553.37-232.71-84.7-232.72 84.71v424.61h465.43z"/><path fill="#EFF1F2" d="M3793.33 645.51h283.19v241.36h-283.19zm1471.67 0h283.19v241.36H5265zm283.19 0c-38.77-33.67-88-53.81-141.6-53.81s-102.82 20.14-141.59 53.81zm-1471.67 0c-38.77-33.67-88-53.81-141.6-53.81s-102.82 20.14-141.59 53.81z"/></g></svg>