<svg xmlns="http://www.w3.org/2000/svg" viewBox="0 0 5760 3240"><g fill="none"><path fill="#232628" d="M0-.01h5760v3240H0z"/><path fill="#383B3E" d="m4523.04 371.97-3286.08-.27-530.16 697.41h4346.4z"/><path fill="#4E5256" d="M3270.41 2245.67h1852.2v994.32h-1852.2z"/><path fill="#595E62" d="M3270.41 2230.99v1009h-91.12v-1009z"/><path fill="#595E62" d="M3194.29 2230.99v1009h-622v-1009z"/><path fill="#595E62" d="M2587.61 2230.99v1009h-91.12v-1009z"/><path fill="#4E5256" d="M644.29 2245.67h1852.2v994.32H644.29z"/><path fill="#595E62" d="M644.29 2231v1009h-91.12V2231z"/><path fill="#595E62" d="M5213.74 2245.67H553.17v-91.12h4660.57z"/><path fill="#595E62" d="M5213.73 2230.99v1009h-91.12v-1009z"/><path fill="#4E5256" d="M982.24 1160.23h1852.2v994.32H982.24zm1943.32-.31h1852.2v994.32h-1852.2z"/><path fill="#595E62" d="M982.24 1145.55v1024h-91.12v-1024z"/><path fill="#595E62" d="M4868.88 1160.23H891.11v-91.12h3977.77z"/><path fill="#2E3033" d="M2468.35 489.69v96.97l-91.47-33.29-232.71-84.7-232.72 84.71-91.47 33.29V489.7l91.47-33.29 99.51-36.22 133.21-48.49 133.21 48.49 99.5 36.21z"/><path fill="#595E62" d="M2925.56 1145.55v1024h-91.12v-1024zm1943.32 0v1024h-91.12v-1024zm-2492-592.18-232.71-84.7-232.72 84.71v424.61h465.43z"/><path fill="#2E3033" d="M3940.02 489.69v96.97l-91.47-33.29-232.71-84.7-232.72 84.71-91.47 33.29V489.7l91.47-33.29 99.51-36.22 133.21-48.49 133.21 48.49 99.5 36.21z"/><path fill="#595E62" d="m3848.55 553.37-232.71-84.7-232.72 84.71v424.61h465.43z"/><path fill="#8A9097" d="M2002.57 645.51h283.19v241.36h-283.19zm1471.67 0h283.19v241.36h-283.19zm283.19 0c-38.77-33.67-88-53.81-141.6-53.81s-102.83 20.14-141.59 53.81zm-1471.67 0c-38.77-33.67-88-53.81-141.59-53.81s-102.83 20.14-141.6 53.81z"/><path fill="#383B3E" d="M4868.88 1458.14v696.1h529.17zm-3977.76 0v696.1H361.95z"/><path fill="#8A9097" d="M2973.8 2370.24h-172.56l63.78-52.5h45.01z"/><path fill="#43464A" d="M2887.49 2252.61c12.41 0 22.47 10.06 22.47 22.47v42.67h-44.94v-42.67a22.47 22.47 0 0 1 22.47-22.47"/><path fill="#A4ABB3" d="M2905.27 2370.24c0 9.791-7.929 17.733-17.72 17.75-9.798 0-17.74-7.942-17.74-17.74z"/><path fill="#43464A" d="M2706.01 2463.78h355.97v776.21h-355.97z"/><path fill="#8A9097" d="M2676.16 3239.99h29.85v-776.2h355.97v776.2h29.86v-806.06h-415.68z"/><path fill="#383B3E" d="M2976.15 2798.51h36.75v100.48h-36.75z"/><path fill="#383B3E" d="M2924.48 2812.29h70.05v22.97h-70.05z"/></g></svg>