<svg xmlns="http://www.w3.org/2000/svg" viewBox="0 0 3840 2160"><path fill="#fff" d="M0 0h3840v2160H0z"/><path fill="#eff1f2" d="M498.673 1233.83v-49.984c-12.404-.92-23.419-8.333-29.02-19.529a35.96 35.96 0 0 1 1.668-35.136c-.69-3.41-1.51-7.805-1.513-9.372 0-17.523 31.48-71.087 31.48-71.087s31.478 53.564 31.478 71.087c0 1.525-.912 5.735-1.683 9.1a35.96 35.96 0 0 1 1.91 35.264c-5.577 11.271-16.631 18.747-29.09 19.673v51.61zm116.923-101.277v-49.984c-12.404-.921-23.419-8.334-29.02-19.529a35.96 35.96 0 0 1 1.668-35.136c-.69-3.41-1.51-7.805-1.513-9.372 0-17.523 31.48-71.087 31.48-71.087s31.478 53.564 31.478 71.087c0 1.525-.912 5.735-1.683 9.1a35.96 35.96 0 0 1 1.91 35.263c-5.577 11.272-16.631 18.747-29.091 19.674v51.61l-5.23-1.626zm116.922-101.277v-49.984c-12.403-.921-23.418-8.334-29.02-19.53a35.96 35.96 0 0 1 1.67-35.136c-.692-3.41-1.51-7.804-1.514-9.372 0-17.523 31.48-71.087 31.48-71.087s31.478 53.564 31.478 71.087c0 1.526-.912 5.736-1.683 9.1a35.96 35.96 0 0 1 1.91 35.264c-5.577 11.271-16.632 18.747-29.091 19.674v51.61z"/><path fill="#eff1f2" d="M3592.841 1868.132c.378-38.785-2.06-435.214-308.76-638.02-119.104-78.758-240.6-99.556-317.4-105.085-89.068-176.62-192.386-299.736-267.011-376.664-108.683-112.037-215.21-221.851-387.136-262.7-91.607-21.764-162-14.498-248.873-5.53-297.19 30.68-345.629 150.204-605.59 163.15-142.044 7.074-160.074-28.144-254.404 0-157.336 46.943-257.223 182.384-318.004 293.117-89.292 39.906-203.248 104.608-312.474 210.16-275.357 266.093-325.402 603.116-337.303 721.572z"/><path fill="#9dc9ff" d="M1596.237 701.283c40.896 8.35 80.39 8.512 159.375 8.837 8.083.033 31.796.153 63.494 2.515a693 693 0 0 1 21.744 1.974c30.686 3.256 52.574 7.393 75.86 15.29 27.727 9.403 56.68 19.658 63.437 43.33.593 2.075 2.62 9.878 0 21.35-8.43 36.913-52.781 58.403-77.551 69.984-82.31 38.482-96.129 36.488-166.42 68.214-31.335 14.144-54.8 26.25-104.227 48.353 16.951 5.5 33.595 10.988 52.056 16.44a2897 2897 0 0 1 53.347-24.805c61.072-27.648 127.49-55.895 127.49-55.895 23.556-10.018 42.826-18.056 68.254-32.93 18.48-10.81 30.103-17.716 43.007-30.55 13.716-13.642 39.206-39.1 35.283-69.979-2.197-17.292-13.305-29.695-18.23-35.283-12.057-13.68-26.141-20.56-44.018-27.19-35.498-13.168-66.294-18.149-88.95-21.036-21.568-2.748-47.534-4.952-92.084-6.735-59.676-2.389-77.382-.698-127.495-4.935-25.097-2.122-45.392-4.637-69.82-12.398-5.188-1.648-24.86-8.075-48.94-20.881a313 313 0 0 1-24.596-14.558 792 792 0 0 1-26.743 2.177c13.07 11.337 30.072 23.79 51.338 34.567 29 14.696 53.151 19.807 74.389 24.144"/><path fill="#dfe0e3" d="M3382.688 1575.174c-117.123-138.055-228.192-128.777-475.624-248.872-377.894-183.419-343.345-314.039-569.642-340.127-153.626-17.71-246.463 33.621-453.502-24.887-65.513-18.514-105.035-41.386-185.272-52.54 0 0-150.686-20.948-311.765 30.389-256.066 81.61-355.424 301.413-680.603 627.676-77.041 77.3-190.128 184.02-338.845 301.319h3148.134c-15.039-81.392-48.563-193.57-132.881-292.958"/><path fill="#dfe0e3" d="M2869.443 1330.559v-60.747c15.074-1.12 28.462-10.129 35.27-23.734 6.807-13.606 6.037-29.815-2.029-42.703.84-4.144 1.835-9.485 1.839-11.39 0-21.297-38.258-86.395-38.258-86.395s-38.257 65.098-38.257 86.395c0 1.854 1.108 6.97 2.045 11.06-8.216 12.873-9.097 29.158-2.32 42.856s20.212 22.784 35.355 23.91v62.724zm-125.173-83.119v-60.748c15.075-1.12 28.462-10.128 35.27-23.734 6.807-13.605 6.038-29.814-2.028-42.702.84-4.144 1.835-9.485 1.839-11.39 0-21.297-38.258-86.395-38.258-86.395s-38.258 65.098-38.258 86.395c0 1.853 1.11 6.97 2.046 11.06-8.216 12.873-9.098 29.158-2.32 42.856s20.212 22.784 35.354 23.91v62.723l6.356-1.975zm-125.172-94.374v-77.493c15.075-1.12 28.462-10.128 35.27-23.734 6.807-13.606 6.037-29.815-2.029-42.702.84-4.145 1.835-9.486 1.84-11.39 0-21.297-38.258-86.395-38.258-86.395s-38.258 65.098-38.258 86.394c0 1.854 1.109 6.97 2.046 11.06-8.216 12.873-9.098 29.158-2.32 42.857 6.777 13.698 20.211 22.784 35.354 23.91v79.47z"/><path fill="#7ebdff" d="M2243.355 1201.165c-56.786-80.352-92.908-155.724-115.69-211.995-26.395 1.214-53.831 1.619-83.557-.06 4.703 97.725 25.957 246.024 107.59 402.947 167.457 321.899 466.448 444.508 551.683 476.075h662.084c-198.604-40.659-549.162-142.297-880.747-422.497-56.905-48.086-152.71-119.024-241.363-244.47"/><path fill="#d0d4d8" d="m2118.754 629.105 7.056-222.762h5.018l7.057 222.762z"/><path fill="#dfe0e3" d="m2149.28 416.42 20.961 69.45c.657 2.176-2.407 3.414-3.447 1.394l-38.385-74.606c-1.066-2.072.944-4.384 3.144-3.617l16.009 5.587a2.74 2.74 0 0 1 1.717 1.792zm-38.983 3.685-70.627-16.572c-2.212-.519-1.753-3.791.517-3.681l83.803 4.06c2.328.113 3.325 3.01 1.56 4.531l-12.842 11.071a2.74 2.74 0 0 1-2.41.591zm16.299-35.602 49.666-52.879c1.555-1.656 4.16.378 2.93 2.288l-45.418 70.546c-1.262 1.96-4.27 1.375-4.704-.915l-3.167-16.657a2.74 2.74 0 0 1 .693-2.383"/><circle cx="2128.792" cy="406.532" r="9.712" fill="#dfe0e3"/><path fill="#d0d4d8" d="m2290.999 583.606-4.502-167.122h-3.201l-4.502 167.122z"/><path fill="#dfe0e3" d="m2269.213 417.319-30.15 39.884c-.944 1.25.74 2.782 1.896 1.725l42.644-39.053c1.185-1.084.438-3.06-1.168-3.089l-11.684-.215a1.89 1.89 0 0 0-1.538.748m24.317 11.699 49.616 6.168c1.554.194 2.04-2.032.546-2.503l-55.142-17.405c-1.532-.483-2.87 1.15-2.092 2.556l5.656 10.226c.292.528.818.884 1.417.958zm-2.026-26.909-19.466-46.052c-.61-1.442-2.78-.75-2.441.779l12.498 56.457c.347 1.568 2.43 1.909 3.26.533l6.027-10.01a1.89 1.89 0 0 0 .122-1.707"/><circle cx="2284.82" cy="415.824" r="6.693" fill="#dfe0e3"/><path fill="#d0d4d8" d="m1943.472 499.667-2.597-96.43h-3.272l-2.651 98.427c2.811-.675 5.655-1.34 8.52-1.997"/><path fill="#dfe0e3" d="m1924.858 402.587-32.942 33.944c-1.031 1.064.372 2.699 1.58 1.84l44.576-31.712c1.238-.881.767-2.822-.738-3.037l-10.945-1.559a1.78 1.78 0 0 0-1.53.524zm21.473 13.81 45.868 11.556c1.437.362 2.15-1.671.804-2.287l-49.752-22.75c-1.382-.631-2.827.748-2.26 2.158l4.121 10.258c.213.53.666.925 1.22 1.065zm1.224-25.502-12.927-45.5c-.405-1.425-2.522-1.028-2.382.447l5.175 54.46c.144 1.514 2.06 2.076 2.998.88l6.823-8.699a1.79 1.79 0 0 0 .313-1.588"/><circle cx="1939.685" cy="402.996" r="6.332" fill="#dfe0e3"/><path fill="#d0d4d8" d="m2436.04 531.098-2.625-97.493h-2.582l-2.522 93.627q3.888 1.908 7.73 3.866z"/><path fill="#dfe0e3" d="m2420.6 429.747-32.347 18.634c-1.013.583-.301 2.128.8 1.737l40.695-14.42c1.13-.401 1.192-1.976.097-2.465l-7.97-3.552a1.4 1.4 0 0 0-1.275.066m13.308 15.128 32.311 18.697c1.012.585 1.994-.803 1.105-1.562l-32.836-28.032c-.912-.778-2.308-.045-2.183 1.148l.909 8.678c.046.447.305.846.694 1.071m6.448-19.089.036-37.33c.001-1.17-1.692-1.325-1.905-.176l-7.858 42.453c-.218 1.179 1.115 2.02 2.085 1.316l7.061-5.125c.364-.265.58-.688.58-1.138z"/><circle cx="2431.765" cy="433.267" r="4.997" fill="#dfe0e3"/><path fill="#d0d4d8" d="M1396.073 710.715v104.299h7.995v-78.699z"/><path fill="#dfe0e3" d="m1427.837 682.447 60.95 106.02-78.186 6.628-59.671-119.322z"/><path fill="#001d33" d="m1404.573 716.317-15.585-30.039 17.883 1.431 15.539 29.115zm6.447-28.276 14.555 1.165 16.194 28.168-15.327-.436zm-30.337 27.599-15.641-31.278 19.828 1.587 15.697 30.255zm81.377 37.028 16.668 28.994-17.036 1.325-15.937-29.862zm-33.718-32.171 15.475.44 16.26 28.281-16.165.454zm-25.929-.736 15.892 30.63-19.963.56-15.88-31.756zm39.429 33.474 16.037 30.049-17.841 1.388-16.05-30.935zm-17.532-32.852 15.69 29.4-17.805.5-15.776-30.408zm11.934 64.584-20.108 1.565-16.065-32.124 20.026-.562z"/><path fill="#b2b9c0" d="m1418.305 750.391-19.963.56 1.729 3.457 20.026-.562 16.147 31.121 3.794-.295-16.05-30.935 17.854-.502 16.037 30.049 3.813-.297-15.937-29.862 16.304-.457-1.983-3.45-16.164.454-15.57-29.175 15.475.44-2.048-3.563-15.327-.436-15.422-28.897-4.149-.332 15.539 29.115-17.837-.506-15.585-30.04-4.118-.33 15.697 30.256-19.884-.565 1.778 3.556 19.952.566zm-11.886-30.516 17.89.508 15.69 29.4-17.804.5z"/><path fill="#d0d4d8" d="M1243.507 637.01v104.298h7.995v-78.699z"/><path fill="#dfe0e3" d="m1275.27 608.74 60.951 106.02-78.186 6.63-59.672-119.324z"/><path fill="#001d33" d="m1252.007 642.611-15.586-30.039 17.884 1.431 15.538 29.115zm6.446-28.276 14.556 1.165 16.194 28.168-15.327-.436zm-30.336 27.598-15.642-31.277 19.829 1.586L1248 642.498zm81.376 37.029 16.669 28.994-17.036 1.325-15.937-29.862zm-33.718-32.171 15.476.44 16.26 28.281-16.165.454zm-25.928-.736 15.892 30.63-19.963.56-15.881-31.756zm39.429 33.475 16.037 30.048-17.841 1.388-16.05-30.935zm-17.533-32.853 15.69 29.4-17.804.5-15.776-30.408zm11.935 64.584-20.109 1.565-16.064-32.124 20.026-.562z"/><path fill="#b2b9c0" d="m1265.739 676.685-19.963.56 1.729 3.457 20.026-.562 16.147 31.121 3.794-.295-16.05-30.935 17.854-.502 16.037 30.049 3.813-.297-15.937-29.862 16.304-.457-1.983-3.45-16.164.454-15.57-29.175 15.475.44-2.048-3.563-15.327-.436-15.422-28.897-4.15-.332 15.54 29.115-17.837-.507-15.586-30.039-4.117-.33L1248 642.498l-19.884-.565 1.778 3.556 19.952.566zm-11.886-30.516 17.89.508 15.69 29.4-17.804.5z"/><path fill="#d0d4d8" d="M1149.207 741.97v104.3h7.996v-78.7z"/><path fill="#dfe0e3" d="m1180.971 713.702 60.95 106.02-78.186 6.628-59.671-119.322z"/><path fill="#001d33" d="m1157.707 747.573-15.585-30.04 17.883 1.431 15.539 29.115zm6.447-28.277 14.556 1.165 16.193 28.168-15.327-.435zm-30.337 27.598-15.641-31.277 19.828 1.587 15.698 30.255zm81.377 37.029 16.668 28.994-17.035 1.325-15.938-29.861zm-33.718-32.17 15.476.439 16.259 28.282-16.164.453zm-25.929-.737 15.892 30.63-19.962.561-15.882-31.757zm39.43 33.474 16.037 30.05-17.842 1.387-16.05-30.935zm-17.534-32.852 15.69 29.4-17.804.5-15.776-30.408zm11.936 64.585-20.11 1.564-16.064-32.123 20.027-.563z"/><path fill="#b2b9c0" d="m1171.44 781.647-19.963.56 1.728 3.457 20.027-.563 16.147 31.122 3.793-.296-16.05-30.935 17.855-.501 16.037 30.048 3.813-.297-15.938-29.861 16.305-.458-1.983-3.45-16.164.454-15.571-29.175 15.476.44-2.049-3.563-15.327-.435-15.422-28.898-4.148-.332 15.538 29.115-17.837-.506-15.585-30.04-4.118-.33 15.698 30.256-19.885-.565 1.778 3.556 19.952.566zm-11.887-30.517 17.89.508 15.69 29.4-17.804.5z"/><path fill="#232628" d="M1837.437 682.706c.051-5.081 1.519-9.698 3.886-13.172l.067-6.523 10.832.11c8.054.083 14.494 8.984 14.383 19.883s-6.731 19.666-14.786 19.584l-10.832-.11.067-6.523c-2.296-3.522-3.67-8.168-3.617-13.249"/><ellipse cx="1840.92" cy="683.404" fill="#8a9097" rx="14.566" ry="10.765" transform="rotate(-89.416 1840.924 683.4)"/><path fill="#c1c7cc" d="M1841.069 668.84a8 8 0 0 1 1.54.166c-5.224.96-9.294 6.985-9.37 14.32-.074 7.335 3.872 13.442 9.076 14.508a8 8 0 0 1-1.543.135c-5.945-.06-10.698-6.63-10.616-14.674s4.968-14.516 10.913-14.456z"/><path fill="#c1c7cc" d="m1828.718 685.038 9.091-4.06c.732-.326 1.28-.885 1.522-1.554l4.793-13.242 6.773 1.766-4.873 13.462a2.67 2.67 0 0 0 .27 2.36l4.392 6.983-3.276 7.284-6.532-10.146c-.408-.65-1.363-.9-2.13-.556l-9.365 4.18z"/><path fill="#383b3e" d="M1826.907 682.599c-.111 10.898 6.328 19.8 14.382 19.882s14.675-8.686 14.786-19.585c.11-10.898-6.329-19.8-14.383-19.882-8.055-.082-14.674 8.686-14.785 19.585m3.249.695c.082-8.044 4.968-14.515 10.913-14.455s10.698 6.631 10.616 14.675-4.968 14.516-10.913 14.455-10.698-6.63-10.616-14.675"/><path fill="#d0d4d8" d="m1887.264 663.164-.162 15.879c-.065 6.313-5.235 11.378-11.548 11.314l-191.863-1.956c-6.313-.065-11.378-5.235-11.314-11.548l.992-97.284c.064-6.313 5.234-11.379 11.547-11.315l116.586 1.19a22.86 22.86 0 0 1 19.136 10.715l28.603 45.612 23.794 13.065a27.44 27.44 0 0 1 14.229 24.328"/><path fill="#232628" d="M1683.099 681.132c.052-5.08 1.52-9.698 3.886-13.172l.067-6.523 10.832.11c8.055.083 14.494 8.984 14.383 19.883s-6.73 19.667-14.785 19.585l-10.832-.11.066-6.524c-2.296-3.521-3.669-8.167-3.617-13.249"/><ellipse cx="1686.583" cy="681.831" fill="#8a9097" rx="14.566" ry="10.765" transform="rotate(-89.416 1686.586 681.826)"/><path fill="#c1c7cc" d="M1686.731 667.265a8 8 0 0 1 1.54.167c-5.224.96-9.294 6.985-9.369 14.32s3.872 13.443 9.076 14.508q-.758.14-1.544.136c-5.945-.061-10.698-6.631-10.616-14.675s4.968-14.516 10.913-14.456"/><path fill="#c1c7cc" d="m1674.38 683.464 9.092-4.059c.732-.327 1.28-.886 1.521-1.555l4.793-13.242 6.774 1.766-4.873 13.462a2.67 2.67 0 0 0 .27 2.36l4.392 6.983-3.276 7.284-6.532-10.146c-.409-.65-1.363-.899-2.131-.556l-9.364 4.18z"/><path fill="#383b3e" d="M1672.57 681.025c-.112 10.899 6.327 19.8 14.382 19.882s14.674-8.686 14.785-19.584-6.328-19.8-14.383-19.883-14.674 8.687-14.785 19.585zm3.248.696c.082-8.044 4.968-14.516 10.913-14.456s10.698 6.631 10.616 14.675-4.968 14.516-10.913 14.455-10.698-6.63-10.616-14.674"/><path fill="#c1c7cc" d="m1819.842 662.477-.278 27.31-203.294-2.074c-6.313-.064-11.379-5.234-11.315-11.547l.923-90.426c.103-10.101 8.374-18.206 18.475-18.103l109.727 1.119a22.86 22.86 0 0 1 19.137 10.715l28.602 45.612 23.794 13.066a27.44 27.44 0 0 1 14.229 24.328"/><path fill="#b2b9c0" d="m1781.813 625.073-.656 64.321-45.95-.468.715-70.218z"/><path fill="#979ea4" d="m1743.672 636.07 6.964.071a.666.666 0 0 0 .673-.659l.01-.995a.666.666 0 0 0-.659-.672l-6.964-.071a.666.666 0 0 0-.673.659l-.01.995a.666.666 0 0 0 .66.672z"/><path fill="#43464a" d="m1620.868 643.395-15.577-.159-.09 8.78 15.615-3.567z"/><path fill="#fff" d="m1620.833 646.809-.017 1.64-15.614 3.568.017-1.64z"/><path fill="#43464a" d="m1761.903 593.323 67.421.687 19.91 31.75-67.421-.687z"/><path fill="#383b3e" d="m1735.897 621.175.252-24.685a3.43 3.43 0 0 1 3.464-3.395l22.29.228 19.91 31.75-42.522-.434a3.43 3.43 0 0 1-3.394-3.464"/><path fill="#383b3e" d="m1735.897 621.175.252-24.685a3.43 3.43 0 0 1 3.464-3.395l22.29.228 19.91 31.75-42.522-.434a3.43 3.43 0 0 1-3.394-3.464"/><g fill="#8a9097"><path d="M1788.67 668.207c5.904.06 10.625 6.585 10.543 14.575-.025 2.457-.504 4.765-1.324 6.783l-18.873-.192c-.779-2.035-1.21-4.352-1.185-6.81.081-7.989 4.934-14.417 10.838-14.356z"/><path d="M1789.288 662.421c8 .082 14.396 8.923 14.285 19.747a25.6 25.6 0 0 1-1.164 7.443l-4.52-.046c.82-2.018 1.299-4.326 1.324-6.783.082-7.99-4.639-14.515-10.544-14.575-5.904-.06-10.757 6.367-10.838 14.357-.025 2.457.406 4.774 1.185 6.809l-3.4-.035a25.6 25.6 0 0 1-1.013-7.465c.11-10.825 6.685-19.533 14.685-19.452"/></g><path fill="#232628" d="M1786.944 681.999c.052-5.047 1.51-9.633 3.86-13.083l.066-6.479 10.759.11c8 .082 14.396 8.923 14.285 19.747-.11 10.824-6.685 19.533-14.685 19.452l-10.758-.11.066-6.478c-2.28-3.498-3.644-8.113-3.593-13.16z"/><ellipse cx="1790.404" cy="682.692" fill="#8a9097" rx="14.467" ry="10.692" transform="rotate(-89.416 1790.408 682.687)"/><path fill="#c1c7cc" d="M1790.552 668.226a8 8 0 0 1 1.53.166c-5.19.952-9.232 6.937-9.306 14.222-.074 7.286 3.845 13.351 9.014 14.41a8 8 0 0 1-1.533.134c-5.905-.06-10.626-6.586-10.544-14.575.081-7.99 4.934-14.417 10.839-14.357"/><path fill="#c1c7cc" d="m1778.285 684.315 9.03-4.032c.727-.324 1.27-.88 1.51-1.544l4.761-13.152 6.727 1.754-4.84 13.37a2.65 2.65 0 0 0 .269 2.345l4.362 6.935-3.254 7.234-6.487-10.077c-.406-.646-1.354-.893-2.117-.552l-9.3 4.152z"/><path fill="#383b3e" d="M1776.486 681.892c-.11 10.824 6.285 19.665 14.285 19.747s14.574-8.627 14.685-19.452c.11-10.824-6.285-19.665-14.285-19.747-8-.081-14.575 8.628-14.685 19.452m3.227.69c.081-7.988 4.934-14.416 10.839-14.356s10.625 6.586 10.543 14.575c-.081 7.99-4.934 14.417-10.838 14.357-5.905-.06-10.626-6.586-10.544-14.575z"/><path fill="#c1c7cc" d="m1789.413 661.837 21.831-1.407 8.36 25.358-.04 3.998-11.963-.122c.95-14.268-3.909-26.94-18.188-27.827"/><g fill="#8a9097"><path d="M1634.334 666.633c5.905.06 10.625 6.586 10.544 14.575-.025 2.457-.504 4.765-1.324 6.783l-18.873-.192c-.779-2.035-1.21-4.352-1.186-6.81.082-7.988 4.935-14.416 10.84-14.356z"/><path d="M1634.953 660.847c8 .082 14.396 8.923 14.285 19.747a25.6 25.6 0 0 1-1.164 7.443l-4.52-.046c.82-2.018 1.299-4.326 1.324-6.783.081-7.99-4.64-14.515-10.544-14.575s-10.757 6.368-10.839 14.357c-.025 2.457.407 4.774 1.186 6.809l-3.4-.035a25.6 25.6 0 0 1-1.013-7.465c.11-10.824 6.685-19.533 14.685-19.452"/></g><path fill="#232628" d="M1632.609 680.425c.052-5.047 1.509-9.633 3.86-13.083l.066-6.478 10.759.11c8 .08 14.395 8.922 14.285 19.746-.11 10.825-6.685 19.533-14.685 19.452l-10.759-.11.067-6.478c-2.28-3.498-3.644-8.112-3.593-13.16z"/><ellipse cx="1636.069" cy="681.118" fill="#8a9097" rx="14.467" ry="10.692" transform="rotate(-89.416 1636.072 681.114)"/><path fill="#c1c7cc" d="M1636.217 666.652c.52.005 1.03.064 1.53.166-5.19.953-9.232 6.937-9.306 14.222-.074 7.286 3.845 13.351 9.014 14.41a8 8 0 0 1-1.533.134c-5.905-.06-10.626-6.585-10.544-14.575s4.934-14.417 10.839-14.357"/><path fill="#c1c7cc" d="m1623.95 682.74 9.03-4.03c.726-.325 1.27-.88 1.51-1.545l4.761-13.152 6.727 1.754-4.84 13.37a2.65 2.65 0 0 0 .269 2.345l4.362 6.935-3.254 7.235-6.487-10.078c-.406-.646-1.354-.893-2.117-.552l-9.3 4.152-.661-6.433z"/><path fill="#383b3e" d="M1622.15 680.318c-.11 10.825 6.286 19.666 14.286 19.747 8 .082 14.574-8.627 14.685-19.451s-6.286-19.666-14.285-19.747c-8-.082-14.575 8.627-14.685 19.451zm3.228.691c.081-7.99 4.934-14.417 10.839-14.357 5.904.06 10.625 6.586 10.543 14.575-.081 7.99-4.934 14.418-10.838 14.357-5.905-.06-10.626-6.585-10.544-14.575"/><path fill="#c1c7cc" d="m1635.078 660.263 21.831-1.407 8.36 25.358-.04 3.998-11.963-.122c.95-14.268-3.909-26.94-18.188-27.827"/><path fill="#43464a" d="m1656.485 688.123 115.802 1.181-4.493-7.833-106.658-1.087z"/><path fill="#c1c7cc" d="m1831 689.903-11.431-.117.116-11.43c-.064 6.312 5.002 11.482 11.315 11.547"/><path fill="#43464a" d="m1617.991 687.73-1.721-.017c-5.038-.051-9.279-3.356-10.755-7.897l7.983.082z"/><path fill="#383b3e" d="m1729.234 596.42-.251 24.684a3.43 3.43 0 0 1-3.465 3.394l-105.062-1.07a3.43 3.43 0 0 1-3.394-3.465l.252-24.685a3.43 3.43 0 0 1 3.464-3.394l105.062 1.071a3.43 3.43 0 0 1 3.394 3.464z"/><path fill="#43464a" d="m1832.116 648.458 7.188 3.653 28.7.293 7.262-3.506 8.214.083a27.4 27.4 0 0 1 2.99 7.358l-18.493 4.814-28.824-.293-20.218-5.662a27.5 27.5 0 0 0-2.876-6.904zM1829.093 689.883l48.325.493-4.493-7.833-39.18-.4z"/><path fill="#fff" d="m1829.895 652.18 9.473 3.905 28.492.29 9.55-3.711 7.907.08q.225.57.425 1.148l-8.136-.083-9.55 3.712-28.908-.295-9.472-3.906-11.352-.116a27 27 0 0 0-.428-1.147z"/><path fill="#43464a" d="m1819.79 667.73 7.405 3.121-.06 5.888-7.437-.076zM1887.21 668.417l-7.468 2.97-.06 5.888 7.437.076zM1765.512 632.188l9.758.662c1.041.077 1.892-.831 1.76-1.88l-2.17-15.159a1.66 1.66 0 0 0-1.622-1.462l-8.482.48c-.967-.01-1.736.821-1.665 1.798l.894 14.017a1.66 1.66 0 0 0 1.527 1.544"/><path fill="#8a9097" d="m1772.12 629.273 11.982.808.02-2.02-11.982-.808z"/><path fill="#d0d4d8" d="M2393.336 772.633h13.797v86.229h-13.797zm80.341 0h13.797v86.229h-13.797zm-15.331-85.816h-35.882a5.67 5.67 0 0 1-5.67-5.67v-39.03a5.67 5.67 0 0 1 5.67-5.67h35.882a5.67 5.67 0 0 1 5.67 5.67v39.03a5.67 5.67 0 0 1-5.67 5.67"/><circle cx="2440.392" cy="753.316" r="102.745" fill="#56b0ff"/><path fill="#fff" d="M2454.649 712.108h-12.509v22.671h-21.264v-22.67h-12.508v55.896h12.508v-23.14h21.264v23.14h12.508v-55.897zm30.971 55.272c0-5.75-4.12-9.258-10.808-9.258q-1.146 0-2.183.129c-3.108.384-5.463 1.632-7.054 3.746a10 10 0 0 0-.502.736 11 11 0 0 0-.833 1.667q-.36.896-.602 1.92l6.973 1.713q.138-.497.294-.92c.731-1.98 1.802-2.791 3.62-2.791 1.276 0 2.216.478 2.741 1.363.316.532.483 1.211.483 2.022q-.002 1.183-.504 2.427-.67 1.66-2.205 3.403-.385.434-.82.874a29 29 0 0 1-3.084 2.66c-1.97 1.49-4.368 2.998-7.172 4.501v6.16h22.145v-6.038h-12.235a96 96 0 0 0 2.963-1.799c1.413-.899 2.486-1.666 3.48-2.483 3.631-2.976 5.302-6.117 5.302-10.032z"/><path fill="#9dc9ff" d="M2492.074 664.529c22.572 18.847 36.94 47.188 36.94 78.893 0 56.745-46 102.745-102.744 102.745-18.849 0-36.497-5.099-51.682-13.957 17.826 14.884 40.765 23.85 65.804 23.85 56.745 0 102.745-46 102.745-102.744 0-37.896-20.531-70.977-51.063-88.788z"/><path fill="#d0d4d8" d="M2353.166 784.801h13.797v86.229h-13.797zm80.341 18.252h13.797v86.229h-13.797zm80.341-18.252h13.797v86.229h-13.797z"/><path fill="#c1c7cc" d="M3038.993 1368.142c6.204 5.32 14.702 12.608 18.942 10.994.209-.08 1.122-.435 2.198-.962a56 56 0 0 0 3.731-2.005c5.282-3.11 6.175-5.1 6.268-5.35l-5.245-38.995s-.219-.633-.565-1.677c3.415-3.857 12.552-15.086 9.123-21.27a81 81 0 0 1-8.71.223 36.4 36.4 0 0 0-4.81 5.555q-.144-.735-.25-1.478a43 43 0 0 1-.299-4.437 62 62 0 0 1-11.554-2.33l.008.003-10.474 2.023c-6.714 2.615-15.794 3.323-22.253 1.83.153 2.017.365 4.139.657 6.339a100 100 0 0 0 1.219 7.26c3.123 15.092 6.028 22.414 6.028 22.414a49 49 0 0 0 11.5 2.782c3.659.466 7.367.36 10.993-.311a61.6 61.6 0 0 1-12.018 8.569c.008.095.02.233.039.399.064.59.417 3.561 1.898 6.257 1.115 2.03 2.515 3.259 3.574 4.167"/><path fill="#656a6f" d="M3015.007 1287.995c.04-.133.09-.26.132-.392l-2.104 1.406 2.09-.936z"/><path fill="#383b3e" d="M3009.9 1308.178a31 31 0 0 0-2.085-1.29 19.62 19.62 0 0 0 7.942 9.721 122 122 0 0 1-.657-6.339 15.5 15.5 0 0 1-5.2-2.092m49.78 5c.063.455.15.953.25 1.478a36.4 36.4 0 0 1 4.81-5.555 68 68 0 0 1-5.359-.36 43 43 0 0 0 .298 4.437zm13.77-4.301c3.428 6.186-5.708 17.414-9.124 21.271.347 1.044.565 1.677.565 1.677s11.564-12.567 14.73-23.626q-3.2.451-6.17.678z"/><path fill="#a4abb3" d="M3033.516 1355.16a9 9 0 0 0-.033 2.156 61.6 61.6 0 0 0 12.018-8.569 35.6 35.6 0 0 1-10.994.314 634 634 0 0 0-1.017 6.12z"/><path fill="#979ea4" d="M3047.827 1306.41c-3.162-2.342-6.224-4.611-9.172-6.716-9.253-6.608-17.335-11.547-23.399-11.68l-.131.059-2.09.936-26.368 11.818a52.3 52.3 0 0 1 21.15 6.061c.73.416 1.432.844 2.087 1.29a15.5 15.5 0 0 0 5.201 2.094c6.46 1.493 15.54.785 22.254-1.83l10.473-2.023z"/><path fill="#656a6f" d="M3058.168 1263.72c-17.835-5.526-37.007 5.157-43.029 23.883-.042.132-.095.258-.132.392l.118.078.131-.06c6.065.133 14.145 5.075 23.399 11.681 2.948 2.105 6.013 4.375 9.172 6.717a62 62 0 0 0 11.554 2.33q2.583.275 5.36.36c2.905.081 5.812.006 8.71-.224q2.973-.23 6.17-.678c.144-.02.282-.035.427-.056 5.876-18.97-3.92-38.86-21.88-44.424"/><path fill="#b2b9c0" d="M2980.105 1471.6c-.238.12-.532.317-.77.437l-15.424 97.932-5.366 32.852a64 64 0 0 0 12.28.69c4.217-.166 6.363-.274 8.26-1.457 4.902-3.057 4.978-11.09 5.101-14.333.489-12.855 6.948-24.798 9.475-37.412a4979 4979 0 0 0 10.861-55.769l.438-1.03c1.92-4.348 1.496-7.46 1.107-9.007-1.948-7.743-12.432-13.62-25.962-12.903"/><path fill="#7d8389" d="m3001.292 1388.288-22.28 90.307 24.96 16.876 12.803-81.133z"/><path fill="#c1c7cc" d="m3198.21 1869.74-16.134 11.028-28.547 44.177.189.063a22.46 22.46 0 0 0 18.78-3.908l40.898-30.88z"/><path fill="#b2b9c0" d="m2901.72 1898.413.062.19c2.584 6.175 7.878 10.902 14.306 12.792l49.092 14.62 2.142-24.262-16.511-6.365-49.092 3.025z"/><path fill="#71767c" d="M3205.532 1864.757c-38.693-117.153-45.5-113.183-88.983-162.023-5.294-5.987-8.004-15.944-10.272-27.98-3.907-20.419-6.869-40.711-10.272-59.176-9.705 13.36-24.83 26.027-43.547 53.63 10.272 24.83 19.537 43.105 19.537 43.105l108.708 169.46 2.08-1.45 16.133-11.029z"/><path fill="#7d8389" d="M3106.28 1549.16h-66.422c-.504 4.664-2.773 16.953-13.046 38.505a199 199 0 0 1-1.827 3.718c-19.788 40.144-40.71 114.317-40.71 114.317l-37.686 188.113 4.096 1.576 16.512 6.365 8.507 3.277c48.903-125.283 53.44-116.208 51.109-181.559-.315-8.004 3.907-17.393 9.894-28.107 5.546-9.894 10.776-18.338 15.818-25.775 18.717-27.602 33.841-40.269 43.546-53.63 10.84-14.62 14.936-30.06 10.21-66.8z"/><path fill="#eff1f2" d="m3020.482 1491.251-4.17 46.37 57.476 12.397-9.13-62.203c-.396-70.774 13.174-123.605 13.229-123.738l-8.462-4.586-35.131 1.856-18.878 12.908z"/><path fill="#979ea4" d="m3077.854 1363.979 19.14 10.684c4.297 2.217 10.024 10.083 10.037 10.104a270 270 0 0 1 2.355 4.795c21.411 45.143 22.944 93.682 17.658 139.587l-.01.044c-2.093 18.415-5.328 36.408-8.788 53.573 0 0-18.027 3.807-51.892 2.389l-6.944-131.605c-.902-56.942 18.452-89.442 18.444-89.571"/><path fill="#8a9097" d="m3016.313 1537.62 4.283-46.308-5.06-117.158-.623.42-6.812 4.473c-12.694 8.573-12.493 21.258-11.193 31.92 5.33 43.798 5.093 78.757.043 173.634l4.608.705"/><path fill="#7d8389" d="M3084.663 1399.771c4.603 13.51 44.588 101.58 42.383 129.37 5.282-45.889 3.718-94.452-17.659-139.587-15.066 2.07-26.419 5.263-24.724 10.217"/><path fill="#001d33" d="M3091.2 1474.727h-53.905v32.001h53.977v-32.001h-.073z"/><path fill="#9dc9ff" d="M2927.65 1506.729h109.645v88.895H2927.65z"/><path fill="#003253" d="M3037.148 1474.727H2927.75v32.001h109.545v-32.001z"/><path fill="#56b0ff" d="M3037.295 1506.729h53.977v88.895h-53.977z"/><path fill="#b2b9c0" d="M3049.252 1608.263c4.866-.855 11.909-12.211 11.909-12.211l-20.743-16.936-15.949 28.799s19.91 1.238 24.783.348"/><path fill="#c1c7cc" d="m3145.601 1475.651-19.89-6.11a395 395 0 0 0-4.57 4.698c-7.733 8.086-13.99 15.317-17.26 19.269-11.231 13.576-19.359 27.436-20.462 29.175-9.682 15.257-16.182 28.115-25.384 44.604-.815 1.46-17.635 11.83-17.635 11.83l20.743 16.935 10.028-17.905a7112 7112 0 0 0 83.944-96.995z"/><path fill="#a4abb3" d="M3102.774 1378.454c-3.657-2.519-7.589-2.685-7.589-2.685-.39-.022-7.127-.295-11.435 4.661-1.78 2.046-2.642 4.296-3.043 6.498-2.798 15.353 2.326 30.091 2.326 30.091 3.74 9.032 9.992 21.212 20.454 33.536a126.3 126.3 0 0 0 20.939 19.619l32.461 13.767c-6.577-24.464-14.066-44.655-20.539-60.079 0 0-18.673-35.144-33.574-45.408"/><path fill="#232628" d="M1288.273 1778.11c0-30.51-8.528-58.32-22.528-79.324v-39.166h-65.043c-48.364 0-87.57 53.05-87.57 118.49s39.206 118.49 87.57 118.49h65.043v-39.166c14-21.003 22.528-48.814 22.528-79.324"/><ellipse cx="1267.314" cy="1782.088" fill="#8a9097" rx="64.635" ry="87.456"/><path fill="#c1c7cc" d="M1267.314 1694.631c-3.146 0-6.234.32-9.26.908 31.31 6.08 55.376 42.503 55.376 86.549s-24.067 80.47-55.376 86.549c3.026.587 6.114.907 9.26.907 35.697 0 64.635-39.155 64.635-87.456s-28.938-87.457-64.635-87.457"/><path fill="#c1c7cc" d="m1340.475 1792.643-54.336-24.926c-4.374-2.007-7.626-5.399-9.038-9.43l-27.968-79.797-40.774 10.19 28.432 81.123c1.657 4.73 1.022 9.82-1.766 14.155l-26.796 41.652 19.224 43.934 39.837-60.518c2.494-3.878 8.239-5.313 12.83-3.207l55.963 25.673z"/><path fill="#383b3e" d="M1263.929 1659.62c-48.364 0-87.571 53.05-87.571 118.49s39.207 118.49 87.57 118.49c48.365 0 87.571-53.05 87.571-118.49s-39.206-118.49-87.57-118.49m3.385 209.924c-35.697 0-64.636-39.156-64.636-87.456s28.939-87.457 64.636-87.457 64.635 39.156 64.635 87.457-28.938 87.456-64.635 87.456"/><path fill="#d0d4d8" d="M990.311 1657.731v95.343c0 37.907 30.73 68.637 68.637 68.637h1152.05c37.907 0 68.637-30.73 68.637-68.637v-584.149c0-37.907-30.73-68.637-68.637-68.637h-700.042a137.27 137.27 0 0 0-115.55 63.162l-174.52 272.1-143.658 76.989c-53.516 28.68-86.917 84.475-86.917 145.192"/><path fill="#232628" d="M2214.998 1778.11c0-30.51-8.528-58.32-22.528-79.324v-39.166h-65.042c-48.364 0-87.571 53.05-87.571 118.49s39.207 118.49 87.57 118.49h65.043v-39.166c14-21.003 22.528-48.814 22.528-79.324"/><ellipse cx="2194.039" cy="1782.088" fill="#8a9097" rx="64.635" ry="87.456"/><path fill="#c1c7cc" d="M2194.04 1694.631c-3.146 0-6.235.32-9.26.908 31.31 6.08 55.376 42.503 55.376 86.549s-24.067 80.47-55.376 86.549c3.025.587 6.114.907 9.26.907 35.696 0 64.635-39.155 64.635-87.456s-28.939-87.457-64.636-87.457z"/><path fill="#c1c7cc" d="m2267.2 1792.643-54.336-24.926c-4.374-2.007-7.625-5.399-9.038-9.43l-27.968-79.797-40.774 10.19 28.433 81.123c1.657 4.73 1.022 9.82-1.766 14.155l-26.797 41.652 19.224 43.934 39.838-60.518c2.494-3.878 8.238-5.313 12.83-3.207l55.963 25.673 4.392-38.849z"/><path fill="#383b3e" d="M2190.655 1659.62c-48.364 0-87.571 53.05-87.571 118.49s39.207 118.49 87.57 118.49 87.57-53.05 87.57-118.49-39.205-118.49-87.57-118.49zm3.384 209.924c-35.697 0-64.635-39.156-64.635-87.456s28.938-87.457 64.635-87.457 64.635 39.156 64.635 87.457-28.938 87.456-64.635 87.456"/><path fill="#c1c7cc" d="M1395.146 1657.731v163.98h1220.687c37.907 0 68.637-30.73 68.637-68.637v-542.966c0-60.652-49.168-109.82-109.82-109.82h-658.86a137.27 137.27 0 0 0-115.548 63.162l-174.522 272.1-143.657 76.989c-53.516 28.68-86.917 84.475-86.917 145.192"/><path fill="#b2b9c0" d="M1625.76 1435.489v386.222h275.915v-421.623z"/><path fill="#979ea4" d="M1852.99 1503.851h-39.635a5.09 5.09 0 0 1-5.088-5.087v-3.793a5.09 5.09 0 0 1 5.088-5.088h39.635a5.09 5.09 0 0 1 5.088 5.088v3.793a5.09 5.09 0 0 1-5.088 5.087"/><path fill="#43464a" d="M2590.941 1555.346h93.529v52.726l-93.529-22.375z"/><path fill="#fff" d="M2590.941 1575.846v9.852l93.529 22.374v-9.851z"/><path fill="#43464a" d="M1747.242 1246.083h-404.835l-121.482 189.404h404.835z"/><path fill="#383b3e" d="M1901.675 1414.896v-148.222c0-11.372-9.22-20.591-20.591-20.591h-133.842l-121.482 189.404h255.324c11.372 0 20.59-9.219 20.59-20.59z"/><path fill="#383b3e" d="M1901.675 1414.896v-148.222c0-11.372-9.22-20.591-20.591-20.591h-133.842l-121.482 189.404h255.324c11.372 0 20.59-9.219 20.59-20.59z"/><g fill="#8a9097"><path d="M1581.954 1694.041c-35.454 0-64.196 38.89-64.196 86.862 0 14.756 2.734 28.64 7.532 40.808h113.328c4.799-12.168 7.532-26.052 7.532-40.808 0-47.972-28.741-86.862-64.196-86.862"/><path d="M1578.592 1659.268c-48.035 0-86.976 52.69-86.976 117.685 0 15.851 2.334 30.958 6.535 44.758h27.14c-4.8-12.168-7.533-26.052-7.533-40.808 0-47.972 28.742-86.862 64.196-86.862 35.455 0 64.196 38.89 64.196 86.862 0 14.756-2.733 28.64-7.532 40.808h20.416c4.2-13.8 6.534-28.907 6.534-44.758 0-64.996-38.94-117.685-86.976-117.685"/></g><path fill="#232628" d="M1591.468 1776.953c0-30.303-8.47-57.925-22.375-78.785v-38.9h-64.601c-48.036 0-86.976 52.69-86.976 117.685s38.94 117.685 86.976 117.685h64.6v-38.9c13.905-20.86 22.376-48.482 22.376-78.785"/><ellipse cx="1570.651" cy="1780.904" fill="#8a9097" rx="64.196" ry="86.862"/><path fill="#c1c7cc" d="M1570.651 1694.041a48 48 0 0 0-9.196.901c31.096 6.039 55 42.216 55 85.962s-23.904 79.923-55 85.961a48 48 0 0 0 9.196.901c35.455 0 64.196-38.89 64.196-86.862s-28.741-86.863-64.196-86.863"/><path fill="#c1c7cc" d="m1643.315 1791.387-53.967-24.757c-4.344-1.993-7.573-5.361-8.976-9.365l-27.778-79.256-40.498 10.121 28.24 80.572c1.646 4.697 1.015 9.755-1.754 14.059l-26.615 41.369 19.094 43.636 39.567-60.107c2.477-3.851 8.182-5.277 12.743-3.185l55.582 25.498z"/><path fill="#383b3e" d="M1567.29 1659.268c-48.036 0-86.977 52.69-86.977 117.685s38.94 117.685 86.976 117.685 86.976-52.69 86.976-117.685-38.94-117.685-86.976-117.685zm3.361 208.498c-35.454 0-64.196-38.89-64.196-86.863s28.742-86.862 64.196-86.862c35.455 0 64.196 38.89 64.196 86.862 0 47.973-28.741 86.863-64.196 86.863"/><path fill="#c1c7cc" d="m1577.88 1655.753-130.987-9.786-51.747 151.738v24.006h71.83c-4.833-85.722 25.116-161.506 110.903-165.958z"/><g fill="#8a9097"><path d="M2508.666 1694.041c-35.455 0-64.196 38.89-64.196 86.862 0 14.756 2.734 28.64 7.532 40.808h113.328c4.798-12.168 7.532-26.052 7.532-40.808 0-47.972-28.741-86.862-64.196-86.862"/><path d="M2505.304 1659.268c-48.035 0-86.976 52.69-86.976 117.685 0 15.851 2.334 30.958 6.535 44.758h27.139c-4.798-12.168-7.532-26.052-7.532-40.808 0-47.972 28.741-86.862 64.196-86.862s64.196 38.89 64.196 86.862c0 14.756-2.734 28.64-7.532 40.808h20.415c4.201-13.8 6.535-28.907 6.535-44.758 0-64.996-38.94-117.685-86.976-117.685"/></g><path fill="#232628" d="M2518.18 1776.953c0-30.303-8.47-57.925-22.376-78.785v-38.9h-64.6c-48.036 0-86.976 52.69-86.976 117.685s38.94 117.685 86.975 117.685h64.601v-38.9c13.905-20.86 22.375-48.482 22.375-78.785z"/><ellipse cx="2497.363" cy="1780.904" fill="#8a9097" rx="64.196" ry="86.862"/><path fill="#c1c7cc" d="M2497.363 1694.041a48 48 0 0 0-9.196.901c31.096 6.039 55 42.216 55 85.962s-23.904 79.923-55 85.961a48 48 0 0 0 9.196.901c35.454 0 64.196-38.89 64.196-86.862s-28.742-86.863-64.196-86.863"/><path fill="#c1c7cc" d="m2570.027 1791.387-53.967-24.757c-4.345-1.993-7.573-5.361-8.977-9.365l-27.778-79.256-40.497 10.121 28.24 80.572c1.646 4.697 1.015 9.755-1.755 14.059l-26.614 41.369 19.093 43.636 39.567-60.107c2.478-3.851 8.183-5.277 12.744-3.185l55.582 25.498z"/><path fill="#383b3e" d="M2494 1659.268c-48.035 0-86.975 52.69-86.975 117.685s38.94 117.685 86.976 117.685c48.035 0 86.976-52.69 86.976-117.685s-38.94-117.685-86.976-117.685zm3.363 208.498c-35.455 0-64.196-38.89-64.196-86.863s28.741-86.862 64.196-86.862 64.196 38.89 64.196 86.862c0 47.973-28.742 86.863-64.196 86.863"/><path fill="#c1c7cc" d="m2504.59 1655.753-130.986-9.786-51.746 151.738v24.006h71.829c-4.833-85.722 25.117-161.506 110.904-165.958z"/><path fill="#43464a" d="M2374.36 1821.71h-695.34l27.454-46.751h640.432zM2605.497 1821.71h10.336c30.252 0 55.914-19.58 65.052-46.751h-47.933z"/><path fill="#383b3e" d="M1943.192 1266.674v148.222c0 11.372 9.219 20.591 20.591 20.591h630.85c11.371 0 20.59-9.219 20.59-20.59v-148.223c0-11.372-9.219-20.591-20.59-20.591h-630.85c-11.372 0-20.591 9.219-20.591 20.591"/><path fill="#43464a" d="m1322.315 1572.81-43.383 21.497H1106.6l-43.383-21.496h-49.323a164.8 164.8 0 0 0-18.398 43.988l110.733 30.04h173.074l121.735-32.752a164.8 164.8 0 0 1 17.69-41.276z"/><path fill="#fff" d="m1335.418 1595.29-57.11 22.87h-171.083l-57.11-22.87h-47.478a165 165 0 0 0-2.623 6.864h48.852l57.11 22.869h173.58l57.111-22.869h68.161a166 166 0 0 1 2.643-6.864z"/><path fill="#43464a" d="m1395.143 1689.274-44.657 18.286v35.353h44.657zM990.311 1689.274l44.658 18.286v35.353H990.31zM1723.193 1479.209l-58.625 3.375c-6.258.4-11.308-5.106-10.455-11.397l13.957-90.878c.675-4.975 4.872-8.681 9.83-8.681l50.893 3.405c5.81 0 10.378 5.033 9.887 10.897l-6.225 84.098c-.415 4.962-4.355 8.867-9.262 9.18z"/><path fill="#8a9097" d="m1683.7 1461.302-71.991 4.118v-12.132l71.99-4.119z"/><path fill="#c1c7cc" d="M1395.114 1753.074v68.637h-68.636c4.435-.02 30.14-.564 49.94-21.56 18.036-19.128 18.678-41.98 18.697-47.077z"/><path fill="#43464a" d="m1075.21 1774.959-26.964 45.916c3.488.547 7.061.836 10.702.836h278.982l-27.455-46.752z"/><path fill="#9dc9ff" d="M660.283 1227.066h57.064V1896.6h-57.064z"/><path fill="#003253" d="M660.283 1193.236h45.198v173.671h-45.198z"/><path fill="#9dc9ff" d="M813.759 1399.714h45.198v117.298h-45.198z"/><path fill="#56b0ff" d="M705.481 1227.066V1896.6h181.452v-669.534zm151.492 280.946H737.03v-101.521h119.943z"/><path fill="#001d33" d="M705.481 1366.907h181.452v-173.671H705.481z"/><path fill="#fff" d="M808.825 1241.218H793.04v28.61h-26.834v-28.609h-15.784v70.537h15.784v-29.201h26.834v29.201h15.784v-70.538zm39.083 69.75c0-7.256-5.198-11.683-13.638-11.683q-1.446 0-2.754.163c-3.923.484-6.896 2.06-8.902 4.727q-.339.45-.634.93a14 14 0 0 0-1.051 2.102 17 17 0 0 0-.76 2.424l8.8 2.16q.173-.626.37-1.16c.923-2.498 2.274-3.522 4.569-3.522 1.61 0 2.796.603 3.46 1.72.398.672.608 1.529.608 2.551q-.001 1.493-.636 3.064c-.562 1.394-1.493 2.83-2.783 4.294q-.484.549-1.033 1.103a37 37 0 0 1-3.893 3.357c-2.487 1.88-5.513 3.783-9.051 5.68v7.772h27.946v-7.618h-15.44a121 121 0 0 0 3.74-2.27c1.782-1.134 3.137-2.103 4.39-3.133 4.583-3.757 6.692-7.72 6.692-12.661"/><path fill="#b2b9c0" d="m1172.99 1536.64 15.342 17.367-34.425-.77.078-9.781c.045-.096-1.163-3.81-1.163-3.81s-40.629-42.989-58.194-53.716c8.127-2.547 19.997-6.847 32.462-10.616l43.015 58.693z"/><path fill="#a4abb3" d="M1087.796 1370.23c.249 2.395.623 5.455.812 7.98-2.95-1.606-9.69-6.28-10.503-8.356 3.355.375 6.406.592 9.691.375z"/><path fill="#c1c7cc" d="M1090.85 1397.603h-36.793l6.244-34.354 1.958-10.915c-2.396-3.16-7.446-10.306-7.446-15.588a5.4 5.4 0 0 1 1.392-3.976c4.096-4.484 9.842 4.225 12.435 8.828 10.787-.627 32.902-3.744 37.952-17.692l1.237 1.916a112 112 0 0 1-1.83 17.228 75 75 0 0 1-1.451 6.501c-3.53 13.089-6.398 19.341-6.398 19.341a43.8 43.8 0 0 1-10.306 1.82 32.8 32.8 0 0 1-9.593-.858 55 55 0 0 0 10.452 8.313 1151 1151 0 0 0 2.147 19.436"/><path fill="#383b3e" d="m1112.32 1410.064-1.202-71.635c10.1-11.482 3.599-22.973-3.34-27.705l-.13-.13c-2.628-6.784-7.884-12.59-17.923-13.981-24.486-3.41-34.654 7.575-38.862 26.194a36 36 0 0 0-1.134 5.239l-14.6 82.044zm-56.02-77.286c4.104-4.483 9.91 4.294 12.306 8.898 10.795-.696 32.945-3.659 37.995-17.606l1.202 1.829a106 106 0 0 1-1.83 17.228c-.377 2.087-.884 4.294-1.45 6.501-3.54 13.063-6.382 19.281-6.382 19.281a43.6 43.6 0 0 1-10.306 1.795c.25 2.43.498 5.059.756 7.583a13405 13405 0 0 0 2.336 19.376h-36.818l6.252-34.405 1.976-10.899c-2.405-3.151-7.386-10.288-7.455-15.587a5.7 5.7 0 0 1 1.391-3.977z"/><path fill="#71767c" d="M1108.722 1899.055v-.129s.129 0 0 .06zm-7.085-364.873s.766 28.084-7.246 47.656c-5.085 12.239-11.22 32.724-17.154 55.508 9.91 39.008 20.312 77.696 14.068 100.79-19.633 72.365-4.861 120.39 5.866 160.601q.092.24.257.438l.06-.309h11.234c.129 0-.06-.069 0-.069l17.546-165.805 5.239-151.154c.068-2.963-2.774-31.244-3.221-34.207l-6.373-13.45s-57.627-.377-57.687 0z"/><path fill="#7d8389" d="M1001.3 1898.737c4.423-143.09-9.087-135.257 24.708-195.349 4.166-7.377 4.672-18.173 4.294-31.115-1.898-72.142-14.145-97.512 17.04-138.091h55.325s.06 28.341-7.953 47.837c-5.05 12.307-11.164 33.39-17.107 56.176-12.118 46.582-23.541 100.165-23.541 100.165l-40.94 160.437h-.258l-11.611-.06z"/><path fill="#b2b9c0" d="m1108.713 1898.823 55.103 18.963-.13.189a23.52 23.52 0 0 1-18.18 8.588h-53.583l5.515-27.766z"/><path fill="#c1c7cc" d="m977.055 1916.43 23.987-18.114h.567l11.611.507 2.147 27.766h-32.944a6.493 6.493 0 0 1-6.502-6.501 6.3 6.3 0 0 1 1.134-3.659zm130.662-516.165c9.533 2.147 17.177 9.782 18.62 19.444l1.648 17.477c-14.583-22.407-20.268-36.921-20.268-36.921"/><path fill="#a4abb3" d="M1058.12 1535.11h-20.767l-19.624-102.75a97 97 0 0 1-.189-1.452l-.069-.507c0-.318-.06-.635-.06-.945.01-.193-.01-.388-.06-.575 0-.249-.068-.567-.068-.816v-4.543a2.2 2.2 0 0 1 .068-.696l.069-.584c0-.257.06-.506.06-.695s.069-.378.069-.567.06-.447.06-.696q.07-.279.06-.567.021-.326.129-.635c.06-.19.06-.378.129-.567.068-.189.06-.438.12-.627s.069-.378.129-.507c.06-.128.129-.446.189-.635.06-.19.068-.31.128-.498s.13-.447.19-.636c.07-.16.114-.332.128-.507.026-.227.112-.443.25-.626l.188-.447a6 6 0 0 1 .258-.687 1 1 0 0 0 .12-.387c.129-.249.258-.566.378-.858l.069-.19a4.8 4.8 0 0 0 .498-1.013l.189-.249c.11-.254.261-.49.446-.695.06-.13.19-.25.25-.378s.257-.378.377-.567l.258-.378a3.7 3.7 0 0 1 .378-.507q.133-.21.318-.378c.12-.129.249-.317.438-.506.189-.19.249-.25.317-.378l.438-.447.378-.378.507-.438.378-.318c.189-.128.318-.249.506-.377l.439-.318.506-.378.447-.318.567-.378.506-.249q.265-.193.567-.318l.507-.249.627-.317.507-.25a7 7 0 0 1 .695-.317l.507-.19.756-.248.189-.069q12.428 58.903 18.13 88.769 5.703 29.865 7.42 45.036z"/><path fill="#eff1f2" d="m1058.042 1535.127-25.945-133.977v-.378c.86-.258 19.255-6.373 19.255-6.373l3.53-8.717h35.35l3.151 8.717 12.187 4.981 2.336.945s5.677 14.523 20.26 36.93l.438.687c6.561 8.588 9.344 17.485 5.299 35.091-1.323 5.815-2.714 11.93-4.097 17.993-4.045 18.301-2.207 43.671-2.207 43.671z"/><path fill="#d0d4d8" d="m996.604 1505.507 16.152-81.848c2.714-14.007 8.048-21.642 19.341-22.905 9.155 10.41 14.935 22.527 14.935 39.197 0 25.937-21.53 73.86-21.53 73.86-5.806-7.086-15.638-10.769-28.898-8.304"/><path fill="#a4abb3" d="m1103.142 1579.965.737 5.662-18.233-.12-12.194-13.558z"/><path fill="#007bc0" d="m1229.962 1582.253 5.587-15.004s-19.42-6.917-32.722-11.493c-.958 4.416-4.47 10.27-5.427 14.686 13.301 4.469 32.562 11.811 32.562 11.811"/><path fill="#007bc0" d="m1234.772 1586.864 7.07-19.97-27.215-9.542-6.706 19.584z"/><path fill="none" stroke="#007bc0" stroke-miterlimit="10" stroke-width="9.843" d="M1146.934 1556.202c-12.78 2.022-31.23 6.62-49.688 18.48-30.947 19.881-46.029 49.964-71.877 127.234-37.758 112.875-39.037 148.709-75.691 173.646-7.343 4.995-30.77 20.933-60.888 17.755-24.64-2.6-41.42-16.647-46.227-20.877-35.168-30.948-38.277-82.606-41.568-152.856a671 671 0 0 1 .274-68.317"/><path fill="#9dc9ff" d="M781.071 1547.727h36.301v106.201h-36.3z"/><path fill="#b2b9c0" d="M1110.516 1601.567c-15.919 20.661-38.058.408-38.058.408l19.584-13.176z"/><path fill="#c1c7cc" d="M996.557 1505.472s14.628-8.543 31.626-2.813c16.997 9.056 39.576 63.285 39.576 63.285l24.316 23.023-19.584 13.175-9.344-16.383z"/><path fill="#0096e8" d="m1145.32 1548.06-.389 17.736 52.305.26-6.344-15.666z"/><path fill="#0096e8" d="m1191.174 1550.33-9.6 2.35-.75 10.644 3.966 4.404-3.895 8.682a3.6 3.6 0 0 1-3.307 2.13l-14.97-.078c-1.491-.008-2.84-.925-3.352-2.326-.357-.973-.672-2.1-.865-3.366-.665-4.368.51-7.88 1.196-9.54l-8.509-.135 1.94 16.923a5.01 5.01 0 0 0 4.864 4.436l22.778.512 3.115.14a8.44 8.44 0 0 0 6.71-2.851l8.022-9.1 5.906-19.474z"/><path fill="#a4abb3" fill-rule="evenodd" d="M1180.145 1546.512c-5.388.503-11.215.015-13.737 6.608l-5.941 14.457 21.567.643a2.525 2.525 0 0 0 2.508-3.191z" clip-rule="evenodd"/></svg>