<svg xmlns="http://www.w3.org/2000/svg" viewBox="0 0 1600 900"><g fill="none"><path fill="#D1E4FF" d="M0 0h1600v436.2H0z"/><path fill="#007BC0" d="M0 436.2h1600V900H0z"/><g fill="#FFF" transform="translate(134.7 170.3)"><circle cx="19.7" cy="50.3" r="19.7"/><circle cx="116" cy="50.3" r="19.7"/><circle cx="78.4" cy="30.6" r="30.6"/><path d="M19.7 30.6h96.2v39.5H19.7z"/></g><g fill="#FFF" transform="translate(429.2 264.6)"><circle cx="88.865" cy="27.122" r="10.5" transform="rotate(-80.782 88.865 27.122)"/><circle cx="10.5" cy="27.1" r="10.5"/><circle cx="30.3" cy="20" r="12.9"/><circle cx="58" cy="17.4" r="17.4"/><path d="M10.5 16.7h78.4v20.9H10.5z"/></g><g fill="#FFF" transform="translate(1178.9 194.8)"><circle cx="220" cy="87.3" r="32"/><circle cx="32" cy="87.3" r="32"/><circle cx="99.7" cy="55.3" r="55.3"/><circle cx="158.1" cy="61.4" r="29.9"/><path d="M32 55.3h188.1v64H32z"/></g><path fill="#FFF" d="m846.8 379.9.1-.1c0-.1.1-.1.1-.1l-.1.1s0 .1-.1.1l-.1.1c.1 0 .1 0 .1-.1"/><path fill="#FFF" d="m930 359.8 18.1-48.2-34.2-57.1-28.1 30.3-16.8-48.9-66.7-91.6-64.4 88.3-36.1 15.1-39.2 74.3h-24.1l-63.6 114.2h435.6z"/><path fill="#006EAD" d="M997.9 562.5 1012 541l-.9-64.1.9 64.1z"/><path fill="#004975" d="m993.9 568.5 4-6L1012 541l-.9-64.1-.6-40.7-32.3-76.7-4.3-45-60-60 34.2 57.1-18.1 48.2 80.5 76.4H574.9l23.6 196.5 52.7 36.2 21.4 74.3 37.4 13.9L790.1 873l138.5-135.1 34.8-25.6z"/><path fill="#004975" d="m638.5 322 80 55.6-55.9-55.6zm63.3-74.3 36.1-15.1 40.7 84.6zm100.5-103.4 40.2 99.5 43.3 41 7.1-7.1-23.9-41.8z"/></g></svg>