<svg xmlns="http://www.w3.org/2000/svg" viewBox="0 0 1920 1080"><path fill="#fff" d="M0 0h1920v1080H0z"/><path fill="#f7f8f9" d="M275.96 165.14h329.76v758.49H275.96zM622.07 165.14h329.76v758.49H622.07zM968.18 165.14h329.76v758.49H968.18zM1314.28 165.14h329.76v758.49h-329.76z" data-name="Rectangle"/><path fill="none" d="M71.65 967.83h1776.7v29.49H71.65zM71.65 938.34h1776.7v29.49H71.65z" data-name="Rectangle"/><path fill="#eff1f2" d="m1569.24 923.63-14.7-243.69h56.27v-19.77h-130.58l-5.45-37.59h-112.57l-5.45 37.59h-42.48v19.77h39.61l-15.51 107h13v15.38h10.82l-23.83 121h15.38l8.17-41.48h113.13l8.17 41.48h15.38l-23.83-121h10.82V786.9h13l-15.51-107H1511l43 243.69H712.16l43-243.69H783l-15.51 107h13v15.38h10.82l-23.83 121h15.38l8.17-41.48h113.15l8.17 41.48h15.38l-23.83-121h10.82V786.9h13l-15.51-107h39.6v-19.73h-42.46l-5.45-37.59H791.33l-5.45 37.59H655.3v19.77h56.27l-14.7 243.69H71.65v14.71h1776.7v-14.71zM1365 866.38l12.63-64.1h81.81l12.62 64.1zm-558.25-64.1h81.81l12.63 64.1H794.08z"/><path fill="#eff1f2" d="M1052.94 786.9h13v15.38h10.82l-23.83 121h15.38l8.17-41.48h113.13l8.17 41.48h15.38l-23.83-121h10.82V786.9h13l-15.51-107h100.27v-19.73h-103.12l-5.45-37.59h-112.57l-5.45 37.59H968.18v19.77h100.27zm39.21 15.38H1174l12.63 64.1h-107.11z" data-name="Shape"/><path fill="#a4abb3" d="M506.6 378.359c-2.537.668-4.807 2.003-6.676 3.872l-2.069-7.01s-.601-.601-3.538-1.736c-2.937-1.202-4.873-14.754-6.075-21.229-1.411-7.031-.937-9.026-.937-9.026s12.937-5.726 16.774-5.004c3.939.668 13.018 6.525 17.557 6.525 1.736 0 3.481-.463 5.084-1.264a39 39 0 0 1 .684 3.209c-.067 5.741-.576 11.635-1.577 17.309-.467 2.67-1.001 5.407-1.802 8.211l-.401 1.402-4.072 8.879c-4.339-5.541-9.346-5.007-12.951-4.139Z"/><path fill="#43464a" d="m480.917 383.548-4.673-19.16c1.469 4.005 4.072 8.345 6.075 11.349z"/><path fill="#a4abb3" d="M482.282 375.724c-2.003-3.004-4.606-7.343-6.075-11.349-.534-1.402-.868-2.87-1.068-4.339 0-.267-.067-.534-.067-.734 0-1.535.334-2.937 1.268-3.939 1.936-2.136 4.139-1.335 6.209.601 3.538 3.338 6.409 9.947 6.409 9.947l-3.471 12.217c-.067.267-.067.601-.133.868-.133.935-.133 1.803-.067 2.737.334 4.072 2.537 8.545 6.475 10.748 5.407 3.071 7.877 3.405 11.482 5.674 1.736 1.135 3.939 3.338 5.608 5.007a1234 1234 0 0 0 2.003 16.689h-36.583l8.011-44.127Z"/><path fill="#c1c7cc" d="M538.102 954.331h-2.069c-5.474.334-19.627-.134-31.109 0L499.45 980.9h69.228c7.01 0 13.685-3.137 18.158-8.545l.133-.2-48.867-17.891zm-140.458 20.161a6.41 6.41 0 0 0 6.409 6.409h46.397l-2.136-27.638h-26.303l-23.232 17.557a6.46 6.46 0 0 0-1.135 3.672"/><path fill="#340731" d="m523.423 590.716-44.394.334c0-.134.067-.2.067-.334.067-.401 71.231 0 71.231 0l-5.274 188.123-6.676 175.64h-49.801c1.602-109.883 2.403-87.186 13.085-161.02 4.406-30.442.2-59.548-5.875-86.985 6.542-26.903 13.752-53.54 19.76-68.16 7.944-19.427 7.877-47.598 7.877-47.598"/><path fill="#551151" d="M405.328 953.411c0-139.39 39.587-212.624 39.254-225.441-1.869-71.698-3.738-88.988 9.279-136.72l25.234.534 44.327-.334s.067 28.105-7.877 47.465c-6.008 14.62-13.151 41.19-19.694 68.026-10.08 41.457-18.559 83.581-18.559 83.581l-27.905 162.889z"/><path fill="none" d="M508.536 400.522c-1.068-11.015-2.737-21.83-2.47-22.364l-16.556-1.402c1.335 9.613 10.147 18.225 19.026 23.766m10.013-33.579 3.071-24.767 9.88-3.138c.067-.067 13.151 21.162-12.951 27.905"/><path fill="#c535bc" d="M435.703 428.16v-.334zm.066-.2 28.239 34.647 10.147 133.716h77.239l-4.74-56.344 11.549-79.776c1.335-15.554-6.342-30.508-19.694-38.586l-11.95-7.21c.133 1.468 1.068 17.49-.935 30.909-1.469 9.814-6.865 26.088-6.865 26.088s-16.1-28.157-26.781-40.308c-11.549-13.151-23.565-19.76-25.768-20.895l-30.442 17.758Z"/><path fill="#f0dcee" d="M525.775 445.495c-1.469 9.814-7.143 26.102-7.143 26.102s-15.822-28.172-26.503-40.322c-11.616-13.151-23.499-19.76-25.768-20.895l-.243-.141 9.723-6.001 2.871-8.945 31.71 4.473 3.872 6.743 12.479 8.025s1.006 17.543-.997 30.961Z"/><path fill="#9e2896" d="M435.703 428.027v-.067l.067.067 28.305 34.647 10.147 133.649h-28.973l-9.546-167.896z"/><path fill="#a4abb3" d="M489.91 366.676s-8.345-17.157-13.752-11.282c-5.474 6.008 7.343 20.962 7.343 20.962z"/><path fill="#340731" fill-rule="evenodd" d="m505.799 403.994 14.086-4.072v16.289l-14.086-4.072-14.086 4.072v-16.289z"/><path fill="none" d="M515.211 481.032a3.276 3.276 0 0 0 3.271 3.271 3.276 3.276 0 0 0 3.271-3.271c0-1.802-1.469-3.271-3.271-3.271s-3.271 1.469-3.271 3.271"/><path fill="#43464a" d="M474.707 331.757c5.875-3.271 12.35-2.603 16.957-6.476 4.606-3.872 6.676-8.612 14.486-10.548s10.948.801 12.217 2.737c1.335 1.936 3.271 8.478 3.271 8.478s10.681-1.402 10.681 8.345c0 1.869-.467 3.739-1.402 5.341 1.469 2.603 8.272 16.554-5.08 24.298 1.001-5.674 1.475-11.414 1.542-17.221-.2-1.135-.401-2.203-.668-3.204a11 11 0 0 1-5.074 1.268c-4.54 0-13.685-5.875-17.557-6.542-3.872-.668-16.756 5.007-16.756 5.007s-.401 1.803.935 8.945c1.202 6.476 3.138 20.027 6.075 21.229s3.538 1.736 3.538 1.736l2.069 7.01c1.802-1.869 4.139-3.204 6.676-3.872 3.605-.868 8.535-1.444 13.007 4.031l4.029-8.819s5.527 5.055 5.527 14.602c0 8.211-6.609 9.947-6.609 9.947a54 54 0 0 1-6.409 5.274c-1.669 1.001-3.405 1.736-5.274 2.337 0 0-.935-1.068-2.203-2.47-1.602-1.736-3.872-3.939-5.608-5.007-3.605-2.27-6.075-2.603-11.482-5.674-3.939-2.27-6.142-6.676-6.475-10.748-.067-.935-.067-1.803.067-2.737.067-.267.067-.601.133-.868l3.471-12.217s-2.937-6.676-6.409-10.014c-1.79-1.668-4.555-2.34-6.152-.556-.935 1.001-1.433 2.348-1.433 3.883-.2-.534-.293-1.124-.493-1.791-2.27-7.01-4.606-22.965.401-25.702Z"/><path fill="#a4abb3" d="M443.483 550.522c.335 23.955.614 56.342.726 76.667.056 11.447.112 19.041.112 19.041l7.817 29.706-28.255 4.523c-2.513-8.543 2.513-31.437 2.066-33.113-7.817-29.092-23.843-77.505-18.259-105.871z"/><path fill="#8a9097" d="m452.194 675.881 8.823 25.909c-5.863 4.746-17.198 3.741-22.056-.893-4.3-4.076-15.021-20.493-15.021-20.493z" data-name="Path"/><path fill="#a4abb3" d="m444.321 646.119 22.224 27.082-3.351 5.639-13.345-8.32z" data-name="Path"/><path fill="#f0dcee" d="M449.664 414.944c14.797.726 19.32 26.244 15.691 44.392-1.619 7.817-3.295 16.138-5.081 24.569-6.98 33.448-14.462 67.621-14.462 67.621l-2.68-.67-35.793-9.158-10.274-2.624 29.595-99.338c5.584-16.473 11.615-23.62 22.782-24.681z" data-name="Path"/><path fill="#d0d4d8" d="m423.939 494.831 184.028-106.249 106.25 184.029-184.03 106.249z"/><path fill="#43464a" fill-rule="evenodd" d="m528.431 569.954 11.341-42.784 43.062 11.375z"/><path fill="#8a9097" fill-rule="evenodd" d="m555.657 554.236 10.318-59.41 56.996 20.546z"/><circle cx="511.832" cy="521.748" r="9.716" fill="#fff"/><path fill="#8a9097" fill-rule="evenodd" d="m655.961 437.12-29.483 1.005c-.838 6.086 2.68 16.305 8.376 18.371l19.376 12.452z" data-name="Path"/><g data-name="Bosch/Kitchen/People/female-getting-something-from-the-fridge-purple"><path fill="#551151" d="m1063.484 464.277-6.137 70.318 20.616 7.941z" data-name="Path"/><path fill="#c1c7cc" d="M1110.418 556.123c-.127-.337-.2-.674-.328-1.002l-106.479-41.433-33.456-21.072-2.14 6.957a16.1 16.1 0 0 0 1.94 13.659c3.078 4.753 7.157 10.509 9.234 11.711 15.053 8.906 33.693 10.773 33.693 10.773l65.647 42.235 1.075.729a19.84 19.84 0 0 0 9.771 3.488c13.25 1.002 25.561-11.51 21.008-26.035l.036-.009Z" data-name="Path"/><path fill="#551151" d="M1084.456 429.264c-10.017 2.277-18.13 10.308-19.606 20.544l-1.739 18.404c15.326-23.622 21.345-38.947 21.345-38.947Z" data-name="Path"/><path fill="#340731" d="M1091.468 571.157h-20.562l-6.493 13.723c-.474 3.078-3.415 32.992-3.415 36.07l5.555 159.541 18.14 174.839 40.486.064c6.493-63.243-1.002-93.157-21.755-169.576-6.62-24.359 4.016-64.244 14.461-105.405-6.292-24.095-9.134-46.551-14.461-59.464-7.758-19.078-11.911-45.868-11.975-49.82l.018.027Z" data-name="Path"/><path fill="#71767c" d="M1084.757 955.494v-.136h-.201z" data-name="Path"/><path fill="#551151" d="M1220.777 953.682c-17.73-155.325-12.749-141.146-48.455-204.517-4.344-7.759-4.945-19.205-4.553-32.855 2.003-75.818 14.789-102.591-17.602-145.153h-58.79c.073 3.952.61 30.961 8.369 49.993 5.291 12.976 11.783 35.196 18.067 59.291 12.749 49.119 24.833 105.632 24.833 105.632l43.163 169.312c.064-.027 35.132-.164 34.968-1.703" data-name="Path"/><path fill="#9e2896" d="M1114.406 955.358h-14.798l-54.738 20.034c-.064 0-.064.073-.064.137a24.93 24.93 0 0 0 19.269 9.106h56.349a.155.155 0 0 0 .137-.137l-5.955-29.14zm118.035 18.349-25.561-18.713-12.913.31-1.821 29.75 34.868-.492a6.827 6.827 0 0 0 6.729-6.93 6.28 6.28 0 0 0-1.302-3.925" data-name="Path"/><path fill="#551151" d="M1136.89 571.157h21.964l20.753-108.364c.064-.537.127-1.002.2-1.539l.064-.537c0-.337.064-.665.064-1.002a1.7 1.7 0 0 1 .073-.601c0-.273.064-.601.064-.911v-4.671a2.7 2.7 0 0 0-.064-.738l-.073-.601c0-.264-.064-.528-.064-.729s-.064-.41-.064-.61-.073-.464-.073-.729a2.2 2.2 0 0 1-.064-.61 2.1 2.1 0 0 0-.137-.665c-.064-.2-.064-.401-.137-.601s-.064-.474-.127-.674c-.064-.2-.073-.401-.137-.537-.064-.137-.137-.464-.2-.665-.064-.2-.064-.337-.137-.537s-.127-.464-.2-.665a1.6 1.6 0 0 1-.127-.537 1.4 1.4 0 0 0-.273-.674l-.127-.464c-.073-.264-.209-.537-.273-.738a1 1 0 0 1-.137-.401c-.127-.264-.264-.601-.401-.911l-.064-.2a5.3 5.3 0 0 1-.537-1.065l-.137-.273a2.6 2.6 0 0 0-.464-.728 1.3 1.3 0 0 0-.264-.401c-.073-.137-.273-.41-.401-.61l-.273-.401a4 4 0 0 0-.401-.537 2.2 2.2 0 0 0-.337-.401c-.127-.127-.264-.328-.464-.528a2 2 0 0 1-.337-.401c-.064-.137-.337-.337-.464-.474l-.401-.401-.537-.464-.401-.337c-.2-.137-.337-.273-.537-.401l-.474-.337-.528-.401-.474-.337-.601-.401-.537-.264a2.5 2.5 0 0 0-.601-.337l-.537-.273-.665-.328-.537-.273a7 7 0 0 0-.738-.328l-.537-.2-.801-.273-.2-.064-27.1 141.146h-.018Z" data-name="Path"/><path fill="#791d73" d="m1136.999 571.621 27.319-141.401v-.364c-.911-.273-20.343-6.757-20.343-6.757l-3.752-9.17h-37.263l-3.351 9.17-12.849 5.282-2.477 1.002s-6.019 15.326-21.345 38.947l-.464.738c-6.893 9.033-9.844 18.477-5.555 37.008a1755 1755 0 0 1 4.28 19.005c4.28 19.342 2.34 46.114 2.34 46.114h27.974l45.486.428Z" data-name="Path"/><path fill="#9e2896" d="m1197.173 540.642-12.102-86.664c-2.878-14.789-10.372-23.221-22.283-24.587-9.634 11.037-13.851 24.159-13.851 41.752 0 27.373 18.795 77.967 18.795 77.967 6.22-7.494 15.526-11.037 29.44-8.496z" data-name="Path"/><path fill="#c1c7cc" d="M1107.076 398.74a196 196 0 0 0-.683 6.93l1.02.191a57.2 57.2 0 0 0 10.017-8.032 38.4 38.4 0 0 1-10.299.747z" data-name="Path"/><path fill="#551151" d="M1111.875 350.723c-11.51-8.095-26.299-14.187-26.299-14.187a.26.26 0 0 1-.064-.2c-7.285 5.464-13.45 17.93-1.275 30.114l4.225 3.023a112.6 112.6 0 0 1-1.94-18.212l.993-1.821c5.354 14.725 28.712 17.876 40.067 18.54a45 45 0 0 1 2.677-4.216c-3.278-5.609-10.563-9.625-18.385-13.04Z" data-name="Path"/><path fill="#e48cdd" d="M1150.048 366.44c.073-.824.073-1.653 0-2.477.273-3.214.738-9.234.738-11.711-.738-46.651-52.333-40.222-61.768-24.896a15.8 15.8 0 0 0-1.603 3.415c-2.012.401-2.732 3.943-2.149 5.619 0 .064.073.137.073.2s14.789 6.092 26.299 14.187c7.831 3.415 15.262 7.531 18.477 13.149 1.539-2.14 3.142-4.38 5.018-5.518s3.743-1.402 5.345.401a5.58 5.58 0 0 1 1.411 3.142c.738 6.092-6.092 15.262-8.432 18.14a.25.25 0 0 0 .064.2c.137 1.075 1.075 15.927-18.404 24.824-2.14.911-5.163 1.002-7.913.665l-.756-.2c.264-2.413.437-4.726.637-7.003a42.6 42.6 0 0 1-10.518-1.876s-2.859-6.292-6.493-19.323c-.337 10.108-1.12 24.796-1.721 29.486-.81 6.283-3.014 22.283-2.95 22.283 38.884 13.659 55.211 2.604 61.367-4.89 10.108 9.908 19.943 5.628 19.943 5.628s-17.602-45.914-16.664-63.443Z" data-name="Path"/><path fill="#e0e2e5" d="M1133.939 379.99a.53.53 0 0 0-.064-.264c2.349-2.95 9.188-12.084 8.451-18.212a5.4 5.4 0 0 0-1.402-3.151c-1.612-1.821-3.497-1.612-5.373-.41a21.2 21.2 0 0 0-5.163 5.464c-1.075 1.548-1.949 3.023-2.732 4.225-11.41-.665-34.822-3.888-40.195-18.586l-1.275 1.949c.183 6.112.834 12.2 1.949 18.212a87 87 0 0 0 1.539 6.912c.137.41.209.738.337 1.147 3.642 13.077 6.511 19.387 6.511 19.387a45.5 45.5 0 0 0 10.8 1.949c3.36.202 6.733-.071 10.017-.81a56.8 56.8 0 0 1-10.017 7.986c2.686.457 5.445.181 7.986-.801 19.66-8.997 18.659-23.886 18.586-25.033zM1098.006 628.289l-3.642 4.827 19.187-1.512 5.727-9.443z" data-name="Path"/><path fill="#e0e2e5" d="M1196.982 541.006c.182-.291.255-.474.191-.501h-.128c-12.084-7.504-22.319-7.968-30.515-2.732-17.156 10.846-35.687 71.775-35.687 71.775l-23.795 26.071 21.618 12.357 8.587-17.985s55.229-81.045 59.728-88.913z" data-name="Path"/></g><path fill="#d0d4d8" d="m871.67 672.274 216.725-84.786 84.785 216.726-216.725 84.785z"/><path fill="#43464a" d="m953.044 761.126-.713-28.131 2.757-1.078 18.46 21.188-2.93 1.146-4.535-5.299-10.545 4.125.298 6.957zm1.822-25.306.569 14.557 8.891-3.479zm37.743 9.948c-.367.184-.711.318-.986.427q-2.895 1.13-4.733-1.129c-.844 2.516-2.23 4.051-4.47 4.926-3.343 1.309-6.494.158-7.627-2.736-1.037-2.654-.021-5.236 2.846-7.352 1.514-1.109 2.77-1.76 5.829-3.076l-.444-1.137c-1.092-2.791-2.692-3.635-5.139-2.678-1.896.742-3.066 1.914-4.294 4.262l-2.417-1.201c1.404-2.812 3.057-4.373 5.78-5.438 4.135-1.618 7.298-.233 8.93 3.937l3.141 8.029c.499 1.275 1.144 1.499 2.708.928l.877 2.239Zm-8.346-6.907c-5.707 2.471-7.676 4.553-6.665 7.137.701 1.793 2.265 2.332 4.4 1.496 2.86-1.119 4.246-3.566 3.343-5.875zm12.62-23.295c5.272-2.062 8.871-.887 10.543 3.387.971 2.481.585 4.34-1.335 6.441 3.679-.246 5.854 1.049 7.054 4.115 1.726 4.41-.386 8.256-5.692 10.332l-10.269 4.018-9.639-24.639zm5.068 10.416c2.895-1.133 3.776-3.146 2.658-6.006-1.092-2.791-3.177-3.445-6.589-2.111l-6.684 2.615 3.275 8.373zm5.02 11.306c3.342-1.307 4.556-3.689 3.396-6.652s-3.661-3.773-7.279-2.357l-7.546 2.952 3.572 9.132 7.856-3.074Zm11.199-19.003c.541-2.675 2.164-4.622 4.714-5.619 4.617-1.806 9.114.647 11.298 6.229 2.224 5.686.647 10.594-4.039 12.426-2.585 1.012-5.083.719-7.214-.872l1.132 2.895-2.86 1.118-10.151-25.947 2.86-1.119 4.261 10.89Zm2.268 6.107c1.726 4.41 4.744 6.129 8.292 4.742 3.48-1.362 4.35-4.324 2.557-8.908-1.726-4.41-4.681-6.273-7.954-4.992-3.515 1.375-4.593 4.814-2.895 9.158m39.91-12.037c-.053 2.403-.512 3.973-1.458 5.616-1.147 1.839-2.974 3.269-5.386 4.212-6.581 2.574-12.925-.744-15.877-8.291-2.979-7.615-.51-14.502 6.106-17.09 2.688-1.053 5.334-1.094 7.587-.107 1.295.566 2.279 1.254 3.589 2.57l-2.104 1.936c-.953-1.02-1.685-1.566-2.657-2.021-1.644-.747-3.554-.756-5.518.013-4.962 1.941-6.493 7.068-3.985 13.479s7.036 9.049 12.102 7.066c2.137-.836 3.611-2.246 4.265-4.131.359-1.016.537-1.879.491-3.213l2.846-.039Zm20.996-5.434c-.63 3.465-2.514 5.354-5.581 6.555-5.031 1.967-9.973-.51-12.116-5.988-2.184-5.582-.312-10.646 4.65-12.588 2.964-1.158 5.546-.857 8.191.929l-1.798 2.411c-2.126-1.473-3.464-1.744-5.428-.975-3.377 1.32-4.365 4.688-2.626 9.133 1.712 4.375 4.647 6.088 8.265 4.673 2.033-.796 3.267-2.112 3.704-4.548zm-97.484 84.424-9.994 3.91.214 5.318-5.169 2.021-.61-28.17 6.34-2.48 18.495 21.174-5.857 2.292-3.418-4.065Zm-10.222-.532 7.375-2.886-7.885-9.391zm32.59-2.816c-.347-.381-.83-1.105-1.318-1.947-.614 2.186-1.945 3.662-4.15 4.523-3.411 1.336-6.398.199-7.611-2.902-1.617-4.135.977-7.455 8.117-10.328l-.188-.482c-.782-1.998-1.967-2.488-4-1.693-1.723.674-3.071 1.799-4.412 3.754l-3.562-2.502c1.629-2.743 3.765-4.492 7.073-5.787 2.826-1.105 5.073-1.15 6.942-.132 1.471.815 2.389 2.045 3.305 4.389l3.195 8.166c.458 1.172.995 2.034 1.629 2.741l.08.205-5.1 1.996Zm-3.688-7.497c-3.764 1.552-5.087 2.944-4.413 4.667.444 1.137 1.507 1.516 2.851.99 1.965-.768 2.829-2.418 2.182-4.072zm15.17-25.405c5.238-2.049 8.953-.879 10.611 3.359 1.038 2.654.654 4.512-1.404 6.668 3.555-.159 5.503 1.066 6.717 4.168 1.766 4.514-.289 8.098-5.905 10.295l-11.51 4.504-9.639-24.639zm3.587 10.082c2.067-.809 2.668-2.117 1.899-4.082s-2.152-2.455-4.393-1.579l-5.168 2.022 2.251 5.755 5.41-2.116Zm4.373 10.367c2.31-.904 3.126-2.574 2.29-4.711-.822-2.102-2.577-2.727-5.058-1.756l-5.479 2.144 2.562 6.547zm13.955-18.254c.543-2.676 1.896-4.396 4.274-5.327 4.376-1.712 8.809.884 11.02 6.536 2.265 5.789.833 10.561-3.75 12.354-2.411.943-4.691.604-6.65-1.055l1.092 2.791-5.271 2.062-10.15-25.947 5.271-2.062zm2.331 6.36c1.32 3.377 3.439 4.734 5.92 3.764 2.482-.971 3.068-3.229 1.707-6.709-1.389-3.547-3.426-4.896-5.906-3.926-2.412.943-3.043 3.494-1.721 6.871m39.62-11.963c-.127 2.314-.6 3.85-1.65 5.533-1.287 2.092-3.291 3.672-6.186 4.804-7.202 2.817-13.748-.304-16.754-7.987-2.952-7.547-.212-14.66 6.715-17.369 3.17-1.24 6.07-1.342 8.605-.348 1.426.596 2.417 1.201 3.809 2.523l-4.076 3.9c-2.149-2.141-4.084-2.615-6.634-1.617-3.79 1.482-4.768 5.281-2.705 10.555 2.076 5.307 5.407 7.422 9.302 5.897 2.721-1.065 3.813-2.843 3.899-5.978zm20.47-5.864c-.211 3.422-1.982 5.902-5.772 7.385-5.755 2.252-10.699-.027-12.896-5.645-2.225-5.686-.164-10.98 5.143-13.057 3.446-1.348 6.31-1.039 8.886.775l-3.344 4.248c-1.125-1.148-2.283-1.57-3.765-.99-2.378.93-2.946 3.338-1.598 6.784 1.361 3.48 3.386 4.794 5.935 3.796 1.725-.674 2.315-1.699 2.311-3.645l5.102.348Z"/><path fill="#c1c7cc" d="M1088.499 650.372c18.376 20.507 40.168-2.468 40.168-2.468l-21.618-12.357z" data-name="Path"/><path fill="#d0d4d8" d="m780.183 356.084 231.072 27.652-27.652 231.071-231.071-27.651z"/><path fill="#18837e" d="m806.924 395.971 78.317 9.372-8.85 73.95-78.317-9.371z"/><path fill="#00884a" d="m897.54 406.817 78.317 9.372-8.85 73.95-78.316-9.372z"/><path fill="#9e2896" d="m887.393 491.599 78.317 9.372-8.85 73.95-78.316-9.372z"/><path fill="#007bc0" d="m796.777 480.754 78.318 9.372-8.85 73.95-78.317-9.371z"/><path fill="#c1c7cc" d="m994.942 492.543-6.047 1.967 9.362 20.753 22.692 5.819z" data-name="Path"/><g data-name="Group"><path fill="#a4abb3" d="M1734.319 268.31h-1.33l-.58.07-.41.08-.52.11-.39.11-.53.16h-.05c-6.36 2.14-11.55 9.53-13.74 19.26v.21c-.19.86-.36 1.74-.5 2.63-.12.77-.22 1.56-.31 2.35-.12 1.15-.21 2.32-.25 3.51v1.71c0 16.74 8.37 30.3 18.69 30.31l-37.96 269.25h56.58V298.62c0-16.74-8.4-30.31-18.7-30.31" data-name="Path"/><path fill="#595e62" d="m1718.319 424.5 80.65 572.82h-26.84l-80.65-572.82z" data-name="Path"/><path fill="#595e62" d="M1658.069 806.48h98.06v15.51h-98.06z" data-name="Rectangle"/><path fill="#c1c7cc" d="m1695.289 424.5-80.64 572.82h26.83l80.65-572.82z" data-name="Path"/><path fill="#595e62" d="m1479.259 424.5 80.64 572.82h-26.83l-80.65-572.82z" data-name="Path"/><path fill="#595e62" d="M1419.009 806.48h98.06v15.51h-98.06z" data-name="Rectangle"/><path fill="#c1c7cc" d="m1456.229 424.5-80.64 572.82h26.83l80.65-572.82z" data-name="Path"/><path fill="#d0d4d8" d="M1688.129 657.07h-302.64l46.19-328.14h302.64z" data-name="Path"/><path fill="#8a9097" d="M1365.619 657.07h345.27c0 14.989-12.151 27.14-27.14 27.14h-291c-14.985-.006-27.13-12.155-27.13-27.14" data-name="Path"/><path fill="#c1c7cc" d="M1756.129 329.13q0 1.538-.21 3.06l-45.74 324.88h-22.05l46.2-328.14 3-21.4c10.695 1.5 18.682 10.601 18.78 21.4q.018.1.02.2" data-name="Path"/><path fill="#8a9097" d="M1737.339 307.53h-307.19l21.38 21.38h282.79z" data-name="Path"/><path fill="#e0e2e5" d="M1715.619 298.62c0-16.74 8.38-30.31 18.7-30.31h-302.7c-10.34 0-18.71 13.57-18.71 30.31s8.37 30.31 18.71 30.31h302.7c-10.32 0-18.7-13.57-18.7-30.31" data-name="Path"/><path fill="#8a9097" d="M1756.119 328.93h-21.79l3-21.4c10.699 1.495 18.691 10.598 18.79 21.4" data-name="Path"/><path fill="#595e62" d="M1481.249 644.01h63.05v13.06h-63.05z" data-name="Rectangle"/><path fill="#a4abb3" d="M1544.309 644.01h23.52v13.06h-23.52z" data-name="Rectangle"/><path fill="#43464a" d="M1449.685 472.305c6.048 0 9.312 2.627 9.312 7.521 0 3.064-1.114 4.775-4.019 6.128 3.621 1.233 5.094 3.223 5.094 6.804 0 5.213-3.462 7.998-9.948 7.998h-13.291v-28.452h12.853Zm-.358 11.501c2.387 0 3.502-1.075 3.502-3.343s-1.194-3.304-3.78-3.304h-5.969v6.646zm.318 12.096c2.666 0 4.139-1.353 4.139-3.821 0-2.427-1.512-3.741-4.377-3.741h-6.327v7.561h6.566Zm35.058-5.65c0 6.446-4.417 10.943-10.665 10.943-6.287 0-10.625-4.418-10.625-10.744 0-6.486 4.417-11.023 10.784-11.023 6.088 0 10.506 4.537 10.506 10.824m-15.082.039c0 3.98 1.552 6.168 4.417 6.168s4.457-2.189 4.457-6.168c0-4.019-1.552-6.128-4.497-6.128-2.785 0-4.377 2.228-4.377 6.128m33.107-4.815c-1.95-.955-3.82-1.552-5.849-1.552-1.87 0-2.706.517-2.706 1.632 0 1.233.716 1.591 4.099 2.228 2.388.398 3.661.796 4.815 1.512 1.83 1.075 2.706 2.746 2.706 5.014 0 4.378-3.343 6.884-9.152 6.884-4.019 0-6.606-.836-9.113-2.985l2.825-3.94c1.91 1.751 3.661 2.428 6.128 2.428 2.228 0 3.422-.677 3.422-1.99 0-.597-.239-.995-.756-1.274-.557-.278-.756-.358-3.661-.915-4.855-.915-7.003-2.905-7.003-6.526 0-4.099 3.144-6.565 8.476-6.565 3.343 0 5.73.637 8.158 2.069zm25.746 10.585c-1.552 3.343-4.298 5.134-8.675 5.134-6.645 0-10.704-4.219-10.704-10.705 0-6.565 4.138-11.062 10.267-11.062 3.979 0 6.725 1.433 8.595 4.258l-5.014 2.945c-.676-1.592-1.671-2.467-3.382-2.467-2.746 0-4.258 2.189-4.258 6.167 0 4.02 1.512 6.128 4.457 6.128 1.989 0 2.984-.796 3.74-2.746l4.975 2.348Zm9.708-25.268v12.416c1.393-2.547 3.502-3.781 6.447-3.781 4.178 0 6.566 2.865 6.566 7.879v13.45h-6.088v-12.654c0-2.707-.995-3.94-3.104-3.94-2.427 0-3.82 1.592-3.82 4.338v12.256h-6.088v-29.964zm35.416 7.64c-1.393-3.064-3.263-3.741-6.805-3.741-3.621 0-5.81 1.711-5.81 4.577 0 1.631.597 2.666 1.95 3.462 1.114.637 1.95.915 4.934 1.592 3.582.796 5.492 1.552 7.004 2.746 1.711 1.393 2.626 3.383 2.626 5.81 0 5.014-3.9 8.237-9.988 8.237-5.372 0-9.192-1.99-10.744-6.406l2.945-1.194c1.154 3.621 3.701 4.855 7.799 4.855 4.178 0 6.765-2.069 6.765-5.412 0-1.393-.477-2.547-1.393-3.343-1.114-.955-2.308-1.393-6.327-2.388-3.263-.796-4.975-1.472-6.407-2.547-1.552-1.154-2.388-2.985-2.388-5.173 0-4.656 3.462-7.56 8.994-7.56 4.735 0 7.799 1.234 9.55 5.094l-2.706 1.393Zm14.523-4.974c0 1.194-.995 2.189-2.188 2.189s-2.189-.995-2.189-2.189.995-2.188 2.189-2.188 2.188.994 2.188 2.188m-.477 6.486v20.812h-3.303v-20.812zm17.349 16.275c4.696 0 7.322 2.03 7.322 5.611 0 4.099-3.781 6.684-9.829 6.684-5.611 0-9.192-2.228-9.192-5.73 0-1.871 1.154-3.343 3.542-4.458-1.393-.756-2.03-1.83-2.03-3.343s.716-2.626 2.268-3.541c-1.711-1.393-2.547-3.025-2.547-5.094 0-4.02 3.104-6.765 7.64-6.765 1.552 0 2.706.239 4.139.876l5.969-.836v2.985h-3.104c.955 1.233 1.353 2.427 1.353 3.979 0 4.099-3.024 6.606-7.879 6.606-1.432 0-2.547-.199-3.78-.717-.756.637-1.074 1.194-1.074 1.95 0 1.353.756 1.791 3.064 1.791h4.139Zm-4.536 2.866c-.318 0-.995-.04-1.313-.08-1.83.915-2.626 1.99-2.626 3.462 0 2.269 2.029 3.423 6.048 3.423 4.298 0 6.526-1.353 6.526-3.9 0-1.95-1.392-2.905-4.138-2.905zm-2.627-12.734c0 2.586 1.831 4.218 4.815 4.218 2.945 0 4.577-1.472 4.577-4.139 0-2.547-1.831-4.218-4.736-4.218s-4.656 1.552-4.656 4.139m23.437-6.407v3.184c1.273-2.348 3.383-3.542 6.327-3.542 4.457 0 6.884 2.905 6.884 8.277v12.893h-3.303v-13.132c0-3.582-1.353-5.173-4.417-5.173-3.342 0-5.492 2.189-5.492 5.571v12.734h-3.303v-20.812zm37.644 17.509c-1.91 2.746-4.576 3.661-7.919 3.661-6.606 0-10.307-4.338-10.307-10.704 0-6.406 3.86-10.824 9.471-10.824 5.531 0 8.914 3.9 8.914 10.346v1.075h-14.962c.08 2.985.756 4.656 2.189 5.969 1.074.955 2.467 1.393 4.616 1.393 2.308 0 3.979-.637 5.571-2.865zm-3.223-9.113c-.438-4.258-2.029-6.008-5.492-6.008-3.303 0-5.213 1.95-5.969 6.008zm9.828-8.396v-5.412l3.303-.796v6.207h5.253v2.746h-5.253v12.694c0 2.03.756 2.985 2.388 2.985 1.074 0 1.87-.278 2.825-.995l1.273 2.269c-1.393 1.074-2.586 1.472-4.298 1.472-3.382 0-5.492-1.95-5.492-5.094V482.69h-3.183v-2.746z"/></g><g data-name="Bosch Office Side-objects pinboard-chest-of-drawers"><path fill="#d0d4d8" d="M262.002 526.745c-6.096-8.959-18.281-11.318-27.28-5.282-7.075 4.79-13.241 22.109-15.611 29.368l-5.232 5.269v-48.922a857 857 0 0 0 7.492-10.968l4.913-7.456c5.503-8.598 10.563-17.122 11.46-20.881 1.961-8.985-3.649-17.881-12.602-19.984a16.704 16.704 0 0 0-18.915 9.347 16.8 16.8 0 0 1 4.287 5.208c0 .074.086.074.086.147s.221.528.369.749.074.16.16.233c.169.308.293.639.369.983q.074.19.098.393a2 2 0 0 0-.098-.319c-.147-.307-.221-.688-.369-.983 0-.074-.086-.147-.16-.233s-.221-.516-.369-.749c-.147-.233-.086-.074-.086-.147a16 16 0 0 0-4.287-5.208 16.73 16.73 0 0 0-26.236 18.694c1.511 4.225 9.2 14.027 16.729 22.993 4.385 5.269 8.758 10.219 11.73 13.634v23.337l-8.905-8.905c-2.8-7.689-7.959-20.181-13.683-25.56a12 12 0 0 0-2.555-1.879 19.654 19.654 0 0 0-26.543 8.291 21.6 21.6 0 0 0-1.572 4.213 19.41 19.41 0 0 0 9.826 22.318c7.726 4.053 26.752 1.032 33.888-.295l9.495 9.495v29.847a2.714 2.714 0 1 0 5.428 0v-9.826l8.77-8.782c8.598 1.376 27.403 3.685 34.158-.933 8.931-6.084 11.274-18.238 5.245-27.206Z" data-name="Path-36"/><path fill="#c1c7cc" d="M132.014 650.149v324.203h18.362v-33.373h118.995v33.373h18.547V650.149z"/><path fill="#d0d4d8" d="M150.376 668.512h118.995v49.757H150.376zM150.376 736.632h118.995v49.757H150.376zM150.376 804.752h118.995v49.757H150.376zM150.376 872.884h118.995v49.757H150.376z"/><path fill="#b2b9c0" d="M150.376 668.512h118.995v13.192H150.376zM150.376 736.632h118.995v13.192H150.376zM150.376 804.752h118.995v13.192H150.376zM150.376 872.884h118.995v13.192H150.376z"/><path fill="#d0d4d8" d="M255.246 571.601h-82.884l9.028 78.548h64.816z"/></g></svg>