<svg xmlns="http://www.w3.org/2000/svg" viewBox="0 0 569 998"><g fill="none" fill-rule="evenodd" transform="translate(.835)"><path fill="#D0D4D8" d="m394.31 258.54-97.91-71.28h1.32v-15.87h-9.08V0H277.7v171.39h-9.08v15.87h1.6L172 258.56V277h84.15c3.05 12.435 14.197 21.179 27 21.179s23.95-8.744 27-21.179h84.15v-18.5z"/><path fill="#C1C7CC" fill-rule="nonzero" d="M0 638.4h544.55v358.92H0z"/><path fill="#8A9097" fill-rule="nonzero" d="M0 614.01h566.33v24.39H0z"/><path fill="#C1C7CC" fill-rule="nonzero" d="m104.48 501.14-29 2.88A79 79 0 0 0 72 486.91c-.54-1.58-1.1-3.18-1.79-4.77a38 38 0 0 0-2.48-4.86 24 24 0 0 0-1.73-2.53c-.32-.42-.73-.87-1.11-1.3a16 16 0 0 0-1.43-1.36 11.9 11.9 0 0 0-4.82-2.53 11 11 0 0 0-1.89-.27 9.7 9.7 0 0 0-5.87 1.64 11.8 11.8 0 0 0-3.73 4.19 17.7 17.7 0 0 0-1.43 3.52 28.5 28.5 0 0 0-1 5.95 46.3 46.3 0 0 0 .65 10.51c.78 4.49 10.85 34.31-3.42 54.93-19.26 27.84-26.54 64.31 0 64.31h67zM54.6 482.93a.8.8 0 0 1 .14.11c-.19-.13-.2-.18-.14-.14zm3.69 10.84c0-1.9 0-3.77.07-5.54a74 74 0 0 1 1.79 3.45c2.14 4.35 4.09 9 6.2 13.73l-7 1.05c-.51-4.37-.94-8.6-1.06-12.72z"/><circle cx="126.67" cy="465.65" r="22.23" fill="#E0E2E5" fill-rule="nonzero"/><path fill="#8A9097" fill-rule="nonzero" d="M150.47 437.06a9.61 9.61 0 0 0-9.37-6.47l.59-6.42-10.85 4.06 4.61 4.41a9.61 9.61 0 0 0-3.15 10.69 66.1 66.1 0 0 1-2 48.17 9.61 9.61 0 0 0 17.6 7.72 85.2 85.2 0 0 0 2.57-62.16"/><path fill="#C1C7CC" fill-rule="nonzero" d="M202.66 441.25c.53-10-8.09-10.48-7.57-20.33l.27-16.15 1.06.05a.87.87 0 0 0 .83-.83l.34-6.45a1.9 1.9 0 0 0-1.47-2 2 2 0 0 0-.33 0l-11.41-.54a2 2 0 0 0-.35 0 1.89 1.89 0 0 0-1.65 1.79l-.35 6.5c.03.45.39.806.84.83l1 .05-1.44 16.09c-.52 9.85-9.12 9.46-9.64 19.42l-2.58 48.76 29.88 1.56z"/><path fill="#8A9097" fill-rule="nonzero" d="M88 471.07a17.2 17.2 0 0 1 13.13-15.62l-1.66.42c-5.512 1.336-11.073-2.013-12.47-7.51l3.34-.84a10.33 10.33 0 0 1 11.51 4.71c.6-4.08 2.86-8.31 8.63-9.77l.84 3.35c-5.38 1.35-6.24 6-6.19 9.1a17.21 17.21 0 0 1 13.12 28.91l-18.5 4.65A17.19 17.19 0 0 1 88 471.07m84.55 134.1-14-5.47-17.64-6.88 65.76-168.54s12.7-32.56 28.53-26.39 3.12 38.74 3.12 38.74z"/><path fill="#E0E2E5" fill-rule="nonzero" d="m145.57 470.81 5.39-13.42-1.87.25-1.94-14.6 41.2-5.47 1.94 14.6-1.87.25 8.71 11.54 5.56 41.9-51.56 6.85z"/><path fill="#C1C7CC" fill-rule="nonzero" d="M127.84 476.28h101.33l-6.26 20.66 7.39 38.52-4.89 43.5 4.44 35.38H127.84z"/><path fill="#8A9097" fill-rule="nonzero" d="M156.72 614.34h-73.8l5.34-38.53-5.09-20.74 3.15-41.59-4.79-37.2h75.59l2.01 35.29-3.4 33.74 4.44 40.41z"/></g></svg>