<svg xmlns="http://www.w3.org/2000/svg" viewBox="0 0 1852 994"><g fill="none" fill-rule="evenodd"><path fill="#EFF1F2" fill-rule="nonzero" d="M0 0h1852.2v994.32H0z"/><path fill="#E0E2E5" fill-rule="nonzero" d="M1412.16 632.6h-227.53v323.76h450.97V632.6zm-227.52 329.96h450.96v31.76h-450.96z"/><path fill="#D0D4D8" fill-rule="nonzero" d="M1428.12 653.8h187.43v54.45h-187.43zm0 75.64h187.43v54.45h-187.43zm0 75.64h187.43v54.45h-187.43zm0 75.64h187.43v54.45h-187.43zM1204.68 653.8h187.43v54.45h-187.43z"/><path fill="#D0D4D8" fill-rule="nonzero" d="M1204.68 702.81h187.43v81.07h-187.43zm0 102.27h187.43v54.45h-187.43z"/><path fill="#D0D4D8" fill-rule="nonzero" d="M1204.68 847.18h187.43v87.98h-187.43z"/><path fill="#E0E2E5" fill-rule="nonzero" d="M1184.64 610.48h450.96v15.93h-450.96zm0-504v264.73H1407V106.48zM1385 352.77a8.16 8.16 0 1 1 0-16.32 8.16 8.16 0 0 1 0 16.32m28.21-246.29v264.73h222.39V106.48zm22 246.29a8.16 8.16 0 1 1 .04 0zm-250.57 118.68h182.07v24.07h-182.07z"/><path fill="#E0E2E5" fill-rule="nonzero" d="M1222.23 514.18a122.7 122.7 0 0 1-10.23 48s-6.91-13.72-6.91-50.73 1.91-49.55 1.91-49.55h15.28zm-8.83-94.7h6.6a2.22 2.22 0 0 1 2.22 2.22v37.82h-11V421.7c0-1.21.97-2.198 2.18-2.22m41.08 94.7a122.7 122.7 0 0 1-10.23 48s-6.91-13.72-6.91-50.73 1.86-49.58 1.86-49.58h15.28zm-8.82-94.7h6.6a2.22 2.22 0 0 1 2.22 2.22v37.82h-11V421.7c0-1.21.97-2.198 2.18-2.22m41.08 94.7a122.7 122.7 0 0 1-10.23 48s-6.91-13.72-6.91-50.73 1.86-49.58 1.86-49.58h15.28zm-8.83-94.7h6.6a2.22 2.22 0 0 1 2.22 2.22v37.82h-11V421.7c0-1.21.97-2.198 2.18-2.22m41.09 94.7a122.7 122.7 0 0 1-10.23 48s-6.91-13.72-6.91-50.73 1.86-49.58 1.86-49.58H1319zm-8.83-94.7h6.6a2.22 2.22 0 0 1 2.22 2.22v37.82h-11V421.7c0-1.21.97-2.198 2.18-2.22m41.08 94.7a122.7 122.7 0 0 1-10.23 48s-6.92-13.72-6.92-50.73 1.9-49.55 1.9-49.55h15.28zm-8.83-94.7h6.6a2.22 2.22 0 0 1 2.22 2.22v37.82h-11V421.7c0-1.21.97-2.198 2.18-2.22m244.47 65.3-10.36 23.35v68.56c0 6.31-2.09 14.87-10 14.87h-55.73c-7.26 0-10.42-4.73-10.42-15.42v-84.63H1491c-5.89 0-7 5.46-7 7.78s-1.84 36.06-2.71 39.88-2 5.41-3.85 6.28q-1.87.87-7.83.33l3.34-44.64c1.26-17 9.62-21.2 18-21.2h85.3v4.84zm-9.02 119.08a39.7 39.7 0 0 0 9-2.17v-2.77h-96.52v2.77a39.7 39.7 0 0 0 9 2.17z"/><path fill="#D0D4D8" fill-rule="nonzero" d="M329.18 610.47h296.41v345.89H329.18z"/><path fill="#E0E2E5" d="M498 645.71A22.77 22.77 0 1 1 475.22 623c12.558-.011 22.752 10.152 22.78 22.71"/><path fill="#D0D4D8" d="M492.54 645.71a17.32 17.32 0 1 1-17.32-17.31 17.31 17.31 0 0 1 17.32 17.31"/><path fill="#E0E2E5" fill-rule="nonzero" d="M345.2 622.66h83.97v48.21H345.2zm0 83.61h264.38v189.21H345.2z"/><path fill="#E0E2E5" fill-rule="nonzero" d="M345.2 706.27h264.38v5.78H345.2z"/><path fill="#D0D4D8" fill-rule="nonzero" d="M345.2 723.65h264.38v5.78H345.2zm-16.02 238.91h296.41v31.76H329.18z"/><path fill="#E0E2E5" fill-rule="nonzero" d="M633.13 962.56H873.5v31.76H633.13zM216.6 632.6h105.22v323.76H216.6zm416.36 0h240.55v323.76H632.96z"/><path fill="#D0D4D8" fill-rule="nonzero" d="M654.15 653.8h198.16v54.45H654.15zm0 75.64h198.16v54.45H654.15zm0 75.64h198.16v54.45H654.15zm0 75.64h198.16v54.45H654.15z"/><path fill="#E0E2E5" fill-rule="nonzero" d="M632.96 610.47h240.55v15.93H632.96zm-416.36 0h105.22v15.93H216.6zm0 352.09h105.22v31.76H216.6zm339.56-634.87H442.77l-91.51 52.61h296.41zm-204.9 52.61h296.41v22.4H351.26zm91.51-273.83h113.39v221.22H442.77zM362.6 408.3h276.81v5.6H362.6z"/><path fill="#D0D4D8" fill-rule="nonzero" d="M880.86 672h296.42v284.36H880.86z"/><path fill="#E0E2E5" fill-rule="nonzero" d="M880.86 610.48h296.41v55.17H880.86z"/><path fill="#D0D4D8" fill-rule="nonzero" d="M991.41 628.17h75.32v37.48h-75.32z"/><path fill="#E0E2E5" fill-rule="nonzero" d="M1052.01 687.43h-45.88l-14.72-15.41h75.32z"/><path fill="#D0D4D8" d="M946 638.05a9.9 9.9 0 1 1-9.9-9.88 9.88 9.88 0 0 1 9.89 9.88zm185.9 0a9.9 9.9 0 1 1-9.91-9.88c5.46 0 9.889 4.42 9.9 9.88z"/><path fill="#D0D4D8" fill-rule="nonzero" d="M880.86 962.56h296.41v31.76H880.86z"/><path fill="#E0E2E5" fill-rule="nonzero" d="M727.22 665.95h52.03v12.15h-52.03zm0 75.64h52.03v12.15h-52.03zm0 75.64h52.03v12.15h-52.03zm0 75.64h52.03v12.15h-52.03zm771.17-226.92h52.03v12.15h-52.03zm0 75.64h52.03v12.15h-52.03zm0 75.64h52.03v12.15h-52.03zm0 75.64h52.03v12.15h-52.03zm-222.55-226.92h52.03v12.15h-52.03zm0 151.28h52.03v12.15h-52.03z"/><path fill="#D0D4D8" fill-rule="nonzero" d="M238.26 653.8h62.37v54.45h-62.37zm0 75.64h62.37v54.45h-62.37zm0 75.64h62.37v54.45h-62.37z"/><path fill="#D0D4D8" fill-rule="nonzero" d="M238.26 842.72h62.37v92.45h-62.37z"/><path fill="#E0E2E5" fill-rule="nonzero" d="M243.43 665.95h52.03v12.15h-52.03zm0 75.64h52.03v12.15h-52.03zm0 75.64h52.03v12.15h-52.03zm544.44-633.42a16.88 16.88 0 0 1-16.87-16.9c0-6.93 9.42-22.69 14.24-30.29-31.987 1.37-57.262 27.614-57.43 59.63l120 .43c.099-32.043-24.997-58.508-57-60.11 4.75 7.65 14 23.43 14 30.39a16.87 16.87 0 0 1-16.92 16.82z"/><path fill="#EFF1F2" fill-rule="nonzero" d="M771 166.86c-.155 9.288 7.216 16.96 16.503 17.177s17.007-7.102 17.287-16.387V167c0-6.93-9.26-22.76-14-30.39l-.64-1v.39h-4.25v-.42c-.19.32-.42.7-.64 1-4.82 7.59-14.26 23.35-14.26 30.28"/><path fill="#E0E2E5" fill-rule="nonzero" d="M790.13 135.97v-.42L790.75 0h-4.23l-.62 135.55v.42zM953 183.81c-9.319-.017-16.861-7.581-16.85-16.9 0-6.93 9.42-22.69 14.24-30.29-31.952 1.39-57.196 27.599-57.39 59.58l120 .43c.099-32.043-24.997-58.508-57-60.11 4.74 7.65 14 23.43 14 30.39a16.86 16.86 0 0 1-16.92 16.82z"/><path fill="#EFF1F2" fill-rule="nonzero" d="M936.15 166.86a16.905 16.905 0 0 0 33.8.79V167c0-6.93-9.27-22.76-14-30.39l-.65-1v.39H951v-.42c-.2.32-.42.7-.65 1-4.78 7.59-14.17 23.35-14.2 30.28"/><path fill="#E0E2E5" fill-rule="nonzero" d="M955.26 135.97v-.42L955.88 0h-4.22l-.62 135.55v.42z"/></g></svg>