<svg xmlns="http://www.w3.org/2000/svg" viewBox="0 0 1600 900"><path fill="none" d="m1253.476 180.374.079-.113-.08.112zm134.821 217.166 16.182-6.285zM1214.23 111.367a10.2 10.2 0 0 0-1.282-1.77 10.2 10.2 0 0 1 1.282 1.77m125.006 434.265-3.107.375a383 383 0 0 1 4.366 42.874l8.851-13.945-.614-5.4-8.165-.521zm-104.8-436.932c.766 8.686-5.148 21.945-8.71 29.022l3.891 5.189-3.891-5.189c3.562-7.074 9.474-20.333 8.71-29.022m87.088 386.675-17.641-145.8-.025-.067 17.661 145.871zM1341.07 631.6l1.45-6.862 1.1-8-2.473 1.994c-.001 4.149-.027 8.432-.077 12.868"/><path fill="#c1c7cc" d="M667.805 495.445H145.416v26.919h956.925v-26.919z"/><path fill="#0096e8" d="M330.7 443.578h18.09l9.045 14.74H552.82l9.043-14.74h18.089v-60.1H330.7zm80.65-31.1h87.95V458.3h-87.95zm593.944 30.106a631 631 0 0 1-7.91-.134 1006 1006 0 0 1-16.117 3.978l-28.081 6.713-20.786-3.65-13.483 8.827h88.07l6.6-10.759-7.06.549zm-220.427-59.111v60.1h18.09L812 458.318h54.423l-9.354-14.289 28.276-18.51a23 23 0 0 1-1.13-2.976v-.006L900 415.926l30.656-20.069 4.079 6.23L996.926 407l.1.25.357-.088-.986-4.419 37.719-7.471v-11.8z"/><path fill="#006ead" d="M552.82 458.318H357.835l-9.045-14.74H330.7v51.867h249.252v-51.867h-18.089zM330.7 366.967h249.252v16.507H330.7zm676.287 91.351h-88.07l-36.746 24.054-15.746-24.054h-54.423l-9.045-14.74h-18.09v51.867h249.252v-49.484l-20.531 1.598zm-222.12-91.351h249.252v16.507H784.867z"/><path fill="#00629a" d="M1338.876 720.441c.483-18.392.965-34.672 1.36-49.347a21.4 21.4 0 0 1-6.941-2.7l7.775-36.794c.05-4.435.076-8.718.074-12.872l-15.764 12.715-6.508-8.5 21.623-34.066a383 383 0 0 0-4.366-42.874l-8.358 1.007-39.418 4.751-12.148-56.294-68.969 2.316-2.044.246c.809 16.052 3.585 46.722 13.12 69.972 10.188 24.836 22.438 70.1 33.55 115.87 17.134 70.568 31.563 142.347 31.563 142.347l14.605 73.718 93.31.018c-16.472-125.754-52.908-162.628-52.464-179.513"/><path fill="#d1e4ff" d="M1243.829 98.666c-4.032 1.683-7.9 3.09-11.624 4.263a9.6 9.6 0 0 1 2.231 5.774c.766 8.686-5.148 21.945-8.71 29.022l3.891 5.189s15.028-30.354 14.212-44.248m-30.881 10.934a10.2 10.2 0 0 1 1.282 1.77 9.2 9.2 0 0 1 1.16 2.936 59 59 0 0 1 1.651-3.653c.365-.735.749-1.465 1.153-2.176s.825-1.4 1.266-2.065c.071-.108.145-.211.218-.317a94 94 0 0 1-9.423 1.31 17 17 0 0 1 2.693 2.195"/><g fill="#eff1f2"><path d="m1253.555 180.261-.079.113-5.855 8.4-11.458 16.437-5.929 8.5s-4.046-2.356-9.236-5.755c-6.627-4.339-15.121-10.379-19.447-15.387l-11.087 17.6-5.685 9.023s-6.191-13.091-7.286-22.18c-.354-2.931.643-6.018 2.151-8.857q.4-.761.849-1.494l-18.076 14.493 6.348 56.229 76.965-9.277 11.773-65.988.009-.052z"/><path d="M1197.636 190.361a29 29 0 0 0 3.91 2.21z"/></g><path fill="#e0e2e5" d="m1253.555 180.261-14.279-12.745s-1.325 2.036-8.431 8.415a304 304 0 0 1-4.865 4.26c-10.37 8.879-24.9 11.832-24.429 12.382 4.326 5.008 12.82 11.048 19.447 15.387 5.19 3.4 9.236 5.755 9.236 5.755l5.929-8.5 11.458-16.437 5.855-8.4zm-55.919 10.1a24.6 24.6 0 0 1-7.23-7.076 16 16 0 0 1-1.207-2.333 14 14 0 0 1-.319-.851 13 13 0 0 1-.62-2.79 47.1 47.1 0 0 0-7.769 9.352q-.444.732-.849 1.494c-1.508 2.839-2.505 5.926-2.151 8.857 1.1 9.089 7.286 22.18 7.286 22.18l5.685-9.023 11.087-17.6a29 29 0 0 1-3.913-2.21"/><path fill="#007bc0" d="M213.637 383.473v111.972H330.7V366.967H213.637zm454.168 0v111.972h117.062V366.967H667.805zM1275.564 492.5l-21.209-98.282c-8.71-118.916 8.4-209.585 8.429-209.753l15.613 6.728-20.9-9.07-11.773 65.988-76.965 9.277-6.348-56.229-19.3 14.561 12.632-9.532 21.584 194.491-.537 21.321-.216 8.457-1.661 64.915-.117 4.566-.045 1.76 30.441-3.669 2.044-.246 68.969-2.316-.021-.1zM1147.7 93.826q.484-.111.988-.2c11.165-1.929 29.492 5.551 50.255 14.007a87 87 0 0 0 11.316-.233 94 94 0 0 0 9.423-1.31 110 110 0 0 0 12.527-3.163 137 137 0 0 0 11.624-4.263c1.393-28.141-19.075-52.024-45.718-53.343s-49.371 20.424-50.764 48.566l.189.065z"/><path fill="#b2b9c0" d="M1198.939 107.635c-20.763-8.456-39.09-15.936-50.255-14.007a16 16 0 0 0-.988.2l-.16.128-34.617 27.553c12.007-2.08 24.03-1.462 33.014 1.409a43 43 0 0 1 1.511.51c9.119 3.3 26.881-1.461 37.824-9.31l13.682-6.477z"/><path fill="#002742" d="M1321.524 495.375 1303.858 349.5c-4.252-11.342-8.572-23.321-12.631-35.338a6107 6107 0 0 1-12.992-38.837 100 100 0 0 1-3.27-12.857c-5.064-27-.372-58.589 20.081-62.132h.395a42 42 0 0 1 4.538.153l-21.581-9.3-15.613-6.728c-.031.168-17.139 90.837-8.429 209.753l21.209 98.282.62 2.873.021.1 12.148 56.294 39.418-4.751zm-190.975-120.828-10.874-87.96-4.067 91.592-.043.958 19.715 34.395-.202-2.344z"/><path fill="#004975" d="M1251.862 683.874C1240.75 638.1 1228.5 592.84 1218.312 568c-9.535-23.25-12.311-53.92-13.12-69.972l-30.441 3.669-1.538 60.078-.032-.057-.009-.017-11.471 1.383 6.353 243.742 6.524 93.127h77.632c-2.3-14.611-5.559-35.076-10.341-68.311-7.451-51.778-.323-101.152 9.993-147.768M1337 235.962c-11.206-23.318-21.425-34.057-37.019-35.471a42 42 0 0 0-4.538-.153h-.395c-20.453 3.543-25.145 35.129-20.081 62.132a100 100 0 0 0 3.27 12.857c4.066 12.31 8.5 25.545 12.992 38.837 4.059 12.017 8.379 24 12.631 35.338l.025.067c14.477 38.611 28.166 69.812 28.166 69.812l1.9-.737 54.349-21.104 16.182-6.285z"/><path fill="#2e3033" d="M1225.726 137.725c3.562-7.077 9.476-20.336 8.71-29.022a10.1 10.1 0 0 0-1.76-5.2 7 7 0 0 0-.471-.572 110 110 0 0 1-12.527 3.163q-.11.157-.218.317c-.441.661-.863 1.353-1.266 2.065s-.788 1.441-1.153 2.176c-.3.612-.593 1.228-.869 1.839s-.536 1.219-.782 1.814a9.2 9.2 0 0 0-1.16-2.936 10.2 10.2 0 0 0-1.282-1.77 17 17 0 0 0-2.693-2.195 87 87 0 0 1-11.316.233h.011l-13.682 6.477c-10.943 7.849-28.7 12.615-37.824 9.31-.492-.178-1-.346-1.511-.51a152 152 0 0 0 8.07 19.972c9.673 19.313 16.406 28.192 16.406 28.192a80 80 0 0 0 17.872-.288 58.4 58.4 0 0 0 16.251-4.349 89.3 89.3 0 0 1-13.338 14.267l-1.995.241q.212.511.459 1 .345.685.748 1.333a24.6 24.6 0 0 0 7.23 7.076l3.91 2.21c-.473-.55 14.059-3.5 24.429-12.382a283 283 0 0 0 4.865-4.26c7.106-6.379 8.43-8.415 8.431-8.415l-9.659-24.6zm153.579 435.465c.079-.55.165-1.127.247-1.686l-30.82-1.966.614 5.4-8.851 13.945-21.623 34.066 6.508 8.5 15.764-12.715 2.473-1.994-1.1 8 46.656 1.856c2.436-14.38-10.273-50.54-9.868-53.406"/><path fill="#003253" d="M1143.12 215.716c-17.557 13.7-26.579 32.717-25.488 54.536a68 68 0 0 0 1.3 10.3l.745 6.027 10.874 87.96 4.529 36.641.2 2.344.679 7.866 1.273 14.743 2.105 24.39 8.991 104.169 13.373-1.612 11.471-1.383.009.017.032.057 1.538-60.078.045-1.76.117-4.566 1.661-64.915.216-8.457.546-21.328-21.584-194.491zm245.177 181.824-54.348 21.106-1.9.737 7.187 126.249 1.331 23.385 8.165.521 30.82 1.966 14.734.94 10.193-181.189z"/><path fill="#001d33" d="M1332.049 419.383s-13.689-31.2-28.166-69.812l17.641 145.8 6.247 51.638 8.358-1.007 3.107-.375zm-196.09 2.015-.679-7.866-19.715-34.395-20.747 4.11-60.699 12.024-37.719 7.471.986 4.419 7.908 35.423 1.234 5.524 7.06-.549 20.531-1.598 103.267-8.035-.154-1.785z"/><path fill="#d0d4d8" d="M411.35 458.3h87.95v-45.825h-87.95zm4.832-37.642h43.673v6.142h-43.673zm0 11.661h76.389v6.135h-76.389zm0 11.66h68.388v6.136h-68.388zM945.16 418.01l-27.49-3.419-1.336-5.507-.778-3.2 9.151-.3 12.051-.4-2.021-3.088-4.079-6.23L900 415.926l-14.655 9.593-28.276 18.51 9.354 14.289 15.746 24.054 36.746-24.054 13.483-8.827 23.361-15.291zm-79.56 30.221 24.045-15.741 12.494-8.179 3.361 5.133-11.717 7.67-24.823 16.25zm6.6 10.087-.216-.331 26.2-17.15 23.91-15.652 3.36 5.133-21.326 13.961-21.446 14.039-7.337 4.8zm31.771 0-22.24 14.559-3.36-5.134 14.4-9.425 19.008-12.443 11.338-7.423 3.361 5.133-5.863 3.838z"/><path fill="#101112" d="M416.182 420.661h43.673v6.135h-43.673zm0 11.661h76.388v6.135h-76.388zm0 11.66h68.388v6.135h-68.388zm489.316-14.538-3.361-5.133-12.494 8.179-24.045 15.741 3.36 5.133 24.823-16.25zm-1.371 14.835 21.326-13.961-3.36-5.133-23.91 15.652-26.199 17.15.216.331 3.144 4.802 7.337-4.802zm18.989-5.827-11.338 7.423-19.008 12.443-14.399 9.425 3.36 5.134 22.24-14.559 16.643-10.895 5.863-3.838z"/><path fill="#232628" d="M1188.88 180.1c.1.288.2.572.319.851l1.995-.241a89.3 89.3 0 0 0 13.338-14.267 58.4 58.4 0 0 1-16.251 4.349c.179 3.008.377 6.139.599 9.308m-73.315 199.037.043-.958c-6.9 1.678-13.86 3.376-20.79 5.068zm-231.348 43.406a23 23 0 0 0 1.13 2.976L900 415.926l-15.783 6.611zm112.812-15.294-.1-.25-34.088-2.692-28.1-2.22 2.021 3.088-12.051.4-9.151.3.778 3.2 1.336 5.507 27.49 3.419 10.6 16.19-23.364 15.3 20.786 3.648 28.081-6.713a1006 1006 0 0 0 16.117-3.978c2.419.058 5.077.1 7.91.134l-7.908-35.423zm345.491 217.488-1.45 6.862-7.775 36.794a21.4 21.4 0 0 0 6.941 2.7c10.237 2.157 23-1.62 28.563-8.387 6.113-7.436 20.377-36.114 20.377-36.114z"/></svg>