<svg xmlns="http://www.w3.org/2000/svg" viewBox="0 0 223 83"><g fill="none"><path fill="#232628" d="M30.06 63.21c0 10-4.5 18.11-10.06 18.11S9.93 73.21 9.93 63.21 14.44 45.09 20 45.09s10.06 8.11 10.06 18.12"/><path fill="#232628" d="M19.46 45.09h10.07v36.23H19.46z"/><path fill="#595E62" d="M39.59 63.21c0 10-4.5 18.11-10.06 18.11s-10.07-8.11-10.07-18.11 4.51-18.12 10.07-18.12 10.06 8.11 10.06 18.12"/><path fill="#232628" d="M14.59 59.74h62.49v10.05H14.59zm186.58-12.23c0 18-8.13 32.68-18.16 32.68s-18.16-14.63-18.16-32.68 8.13-32.68 18.16-32.68 18.16 14.63 18.16 32.68"/><path fill="#232628" d="M182.15 14.83h18.16v65.36h-18.16z"/><path fill="#006C3A" d="M155.45.09H99.52C43.45.09.29 24.89.29 49.7q46.503.762 69.739.762 28.485 0 85.421-.762z"/><path fill="#383B3E" d="M61.11 39.52h-38.8l-6.22 15.66h51.24z"/><path fill="#383B3E" d="M100.92 49.7H.29v11.49c0 4.75 2.54 8.6 5.68 8.6h12.45a4 4 0 0 0 3.7-2.51 4 4 0 0 1 3.71-2.52h33.39a4 4 0 0 1 3.7 2.52 4 4 0 0 0 3.71 2.51h35.66z"/><path fill="#A4ABB3" d="M102.48.09c-37.3 0-71.85 15.47-80.19 29.94l19 2.75 19.8-2.75C68.13 18.09 98.29.09 132.45.09z"/><path fill="#232628" d="M113.29 63.21c0 10-4.51 18.11-10.07 18.11s-10.07-8.11-10.07-18.11 4.51-18.12 10.07-18.12 10.07 8.11 10.07 18.12"/><path fill="#232628" d="M102.68 45.09h10.07v36.23h-10.07z"/><path fill="#595E62" d="M122.82 63.21c0 10-4.51 18.11-10.07 18.11s-10.07-8.11-10.07-18.11 4.51-18.12 10.07-18.12 10.07 8.11 10.07 18.12"/><path fill="#37A264" d="M189.55.09h-35.1c-34.16 0-70.48 28.2-70.48 49.61h30.93c8.61-23.61 36.33-40.45 60.8-40.45h18.31c11.15 0 20.63 12.89 24.1 30.84.07-1 .1-2 .1-3.08l3.5-2.84c0-21.96-11.89-34.08-32.16-34.08"/><path fill="#71767C" d="M164.85 49.69v-2.18c-.03.74-.03 1.46 0 2.18"/><path fill="#71767C" d="M221.71 34.17c-3.57-18-14.18-30.36-27.71-30.36-9.545 0-18.139 5.442-23.394 15.42-3.884 7.376-5.765 17.567-5.786 28.12v.16c0 .74-.481 1.04-.481 1.76l-80.369.42V61.2c0 4.74 2.13 8.59 4.77 8.59h83.62a3.5 3.5 0 0 0 3.5-3.49V47.35c0-18 8.16-32.52 18.16-32.52s18.16 14.63 18.16 32.68v1.76a44.2 44.2 0 0 0 9.53-15.1"/><path fill="#232628" d="M193.58 14.83h6.63v8.8h-6.63z"/><path fill="#A4ABB3" d="M218.36 47.51c0 18-8.13 32.68-18.16 32.68s-18.16-14.63-18.16-32.68 8.13-32.68 18.16-32.68 18.16 14.63 18.16 32.68"/><path fill="#595E62" d="M194 3.81h-18.3c-24.47 0-52.19 19.06-60.8 45.88h50v-2.34c-.03-24.83 12.5-43.54 29.1-43.54"/></g></svg>