<svg xmlns="http://www.w3.org/2000/svg" viewBox="0 0 585 374"><g fill="none" fill-rule="evenodd"><path fill="#232628" fill-rule="nonzero" d="M468.42 220.065h114.71v121.4H468.42z"/><path fill="#232628" d="m583.13 373.065-31.68-31.67h31.68z"/><path fill="#56B0FF" d="M516.14 305.135v8.6a8.42 8.42 0 0 0 16.82 0v-8.6z"/><path fill="#0096E8" d="M559.63 298.825a24.55 24.55 0 0 1-10-19.79v-11.57c-.383-13.576-11.499-24.382-25.08-24.382s-24.697 10.806-25.08 24.382v11.57a24.6 24.6 0 0 1-10 19.79v12.58h70.16z"/><path fill="#00629A" fill-rule="nonzero" d="M489.47 298.825h70.17v12.63h-70.17z"/><path fill="#FFF" d="M544.73 242.395c7.18 0 13 5.82 13 13s-5.82 13-13 13-13-5.82-13-13 5.82-13 13-13"/><path fill="#E0E2E5" fill-rule="nonzero" d="M.87.935H420.3v362.37H.87z"/><path fill="#D0D4D8" fill-rule="nonzero" d="M.87.935H420.3v251.21H.87z"/><path fill="#001D33" fill-rule="nonzero" d="M.87.935H420.3v52.92H.87z"/><path fill="#007BC0" d="M332.72 121.125a25.32 25.32 0 1 1-25.31-25.31c13.978 0 25.31 11.332 25.31 25.31"/><path fill="#003253" d="M113.33 121.125c.006 6.528-5.282 11.824-11.81 11.83s-11.824-5.282-11.83-11.81 5.282-11.824 11.81-11.83h.08c6.499.033 11.75 5.31 11.75 11.81"/><path fill="#004975" d="M162.87 121.125c.006 6.528-5.282 11.824-11.81 11.83s-11.824-5.282-11.83-11.81 5.282-11.824 11.81-11.83c6.526 0 11.819 5.284 11.83 11.81"/><path fill="#0096E8" d="M210.09 121.125c.006 6.528-5.282 11.824-11.81 11.83s-11.824-5.282-11.83-11.81 5.282-11.824 11.81-11.83c6.524 0 11.814 5.286 11.82 11.81z"/><path fill="#56B0FF" d="M259.59 121.125c0 6.522-5.288 11.81-11.81 11.81s-11.81-5.288-11.81-11.81 5.288-11.81 11.81-11.81 11.81 5.288 11.81 11.81"/><path fill="#EFF1F2" fill-rule="nonzero" d="m290.22 122.205 4.77-4.77 12.73 12.73-4.77 4.77z"/><path fill="#EFF1F2" fill-rule="nonzero" d="m298.09 130.165 21.55-21.55 4.78 4.78-21.55 21.54z"/><path fill="#232628" fill-rule="nonzero" d="M309.23 268.495c0 18.778-15.222 34-34 34s-34-15.222-34-34 15.222-34 34-34 34 15.222 34 34m-205.68 15.21c1.048 10.658 10.01 18.782 20.72 18.782s19.672-8.124 20.72-18.782z"/><path fill="#71767C" fill-rule="nonzero" d="M275.23 220.695c-24.194-.008-44.573 18.076-47.44 42.1H89.87v12a9 9 0 0 0 9 8.95h145.94a34.05 34.05 0 0 1-1.22-27.7v-.06a34 34 0 0 1 2-4.14v-.05a34.2 34.2 0 0 1 3.92-5.54l.09-.11a33.5 33.5 0 0 1 3.15-3.15l.12-.11a45 45 0 0 1 1.7-1.39c.61-.47 1.23-.91 1.87-1.34.61-.4 1.24-.78 1.87-1.14l.17-.1a32 32 0 0 1 4-1.93l.21-.09c.69-.27 1.38-.52 2.08-.75a34 34 0 0 1 44.4 32.39c0 .82 0 1.64-.09 2.45a25.67 25.67 0 0 0 11.23-18.15c-6.687-19.212-24.797-32.09-45.14-32.1z"/><path fill="#43464A" fill-rule="nonzero" d="M264.87 221.835a48 48 0 0 1 10.39-1.14h-34.31c-45.82 0-77.06 17.48-93.19 42.1h80c2.395-20.128 17.222-36.559 37-41z"/><path fill="#0096E8" fill-rule="nonzero" d="M305.87 220.695c-8.08-5.9-18.31-9.53-27.5-9.53h-61.16c-51.54 0-122.34 21.67-122.34 51.63h52.89c16.13-24.62 47.37-42.1 93.19-42.1h34.29c20.34.01 38.446 12.89 45.13 32.1q.2-1.599.2-3.21v-4.21c0-9.7-6.15-18.44-14.7-24.68"/><path fill="#A4ABB3" fill-rule="nonzero" d="M299.54 268.495c0 13.432-10.888 24.32-24.32 24.32s-24.32-10.888-24.32-24.32 10.888-24.32 24.32-24.32 24.32 10.888 24.32 24.32"/><path fill="#71767C" fill-rule="nonzero" d="M94.15 246.115a4.36 4.36 0 0 1 4.36 4.36v12.32h-8.72v-12.32a4.36 4.36 0 0 1 4.36-4.36"/></g></svg>