<svg xmlns="http://www.w3.org/2000/svg" viewBox="0 0 750.38 937"><g data-name="Ebene 2"><g data-name="Ebene 1"><path fill="#eff1f2" fill-rule="evenodd" d="m493.51 386 6-47.92h8.06v-16h-43.12V282l11.16-11.15c10.33 1.69 34.62 4.86 43.31-1a24.45 24.45 0 0 0-27.42-40.45c-9.79 6.64-18.27 32.83-20.22 39.2l-6.83 6.83v-7.83h-.35c0-.59 0-1.19.06-1.82.3.75.47 1.15.47 1.15s20.8-50.17 20.8-61.65a20.79 20.79 0 0 0-40.7-6A20.76 20.76 0 0 0 423.34 227c3.08 8.63 27 36 36.46 46.72v24.19l-11.26-11.26c-3.63-10.37-12.08-31.93-21.08-36.63a24.43 24.43 0 0 0-23.39 42.9l.79.41c10 5.24 35.34.92 43.18-.6l11.72 11.78v17.65h-46v16h8.07l6 47.92h-38.14V271.5h-19V386h-8V271.5h-19v21.61l-16.69-6.2-35.38 96.59 6.81 2.52h-35.88v18.48h287.14V386zm-149.82-89.6V386h-32.76zm-80.87-19.25-80.53-58.75h1.09v-13.08h-7.47V0h-9v205.32h-7.47v13.08h1.32L80 277.17v15.23h69.2a22.85 22.85 0 0 0 44.39 0h69.22v-15.25zM221 508.21c19.86-6.37 32.78-21.47 28.85-33.72-2.89-9-14.13-14-27.79-13.43a14.13 14.13 0 0 0-3.18-10.1c-7-8-23.27-5.33-36.3 6-8.37 7.31-14.46 23.19-17.76 33.64V457c10.19-9 28.77-27.25 31.24-42.07 3.43-20.58-6.84-39.44-22.94-42.12-13.77-2.29-27.33 8-33.11 23.92A19.4 19.4 0 0 0 131 398c-12.22 4.87-17.08 21.48-10.86 37.11 6 15 35.37 29.79 37.83 31v52.95l-13.8-11.74c-1.4-10.23-5.4-32.21-14.66-40.73-12.24-11.27-29.31-12.65-38.13-3.08s-6 26.48 6.21 37.75c9.4 8.67 32.23 10.78 42.3 11.29L158 527.92v46.79c-5.48-11.88-15.72-31.2-27.41-38.91-17.41-11.49-37.28-12.09-44.36-1.35-5.22 7.91-2 19.78 7 30.07a14.15 14.15 0 0 0-5.87 8.81c-1.86 10.51 10.44 21.48 27.44 24.5 13.42 2.38 34.77-6 43.23-9.67v45.13H95.85v67.21a42 42 0 0 0 42 42h40.33a42 42 0 0 0 42-42v-67.21h-54.07l17.4-27c10.78-4.28 39-16.65 46.93-31.44 9.84-18.4 6.14-39.55-8.25-47.24s-34 1-43.86 19.39c-7.64 14.31-2.83 43.19-.31 55.33l-13.26 20.57v-97.61l.24-.29-.24-.2v-22c7.54 2.26 38.8 10.98 56.24 5.41"/><path fill="#eff1f2" d="M312.38 540.82v149h52l-16.52 51.5h13l23.32-51.5h145.2v-149zm126 25.5h-38v-9h38zm312-25.5H639.82v-16.29h-31v-46.08l-26.24-25.66V426h-18.69v26.83l-26.25 25.66v62.37h-.26v149h144.18l23.32 51.5h13l-16.52-51.5h49zm-88 25.5h-38v-9h38z"/><path fill="#e0e2e5" fill-rule="evenodd" d="M695 872.5c0 35.62-155.58 64.5-347.5 64.5S0 908.12 0 872.5 155.58 808 347.5 808 695 836.88 695 872.5"/><path fill="#71767c" d="M233.89 638.1v.09z"/></g></g></svg>