<svg xmlns="http://www.w3.org/2000/svg" viewBox="0 0 1006.59 787.52"><g data-name="Ebene 2"><g data-name="Ebene 1"><path fill="#eff1f2" d="M521 0v385h273V0zm254.75 170H666.47V22.2h109.28zM648.47 22.2V170H539.21V22.2zM539.21 188H648.5v174.81H539.21zM666.5 362.81V188h109.28v174.81z"/><path fill="#fff" d="M539.18 22.2h109.29v147.81H539.18zm0 165.8h109.29v174.81H539.18zm127.29 0h109.29v174.81H666.47zm0-165.8h109.29v147.81H666.47z"/><path fill="#c1c7cc" d="M817.43 141a24.36 24.36 0 0 1 24.36 24.36c0 10-13.47 32.75-20.37 43.74a86.46 86.46 0 0 0 82.49-86.37h-173a86.46 86.46 0 0 0 82.49 86.37c-6.9-11-20.37-33.73-20.37-43.74A24.36 24.36 0 0 1 817.39 141z"/><path fill="#fff" d="M841.79 165.34a24.36 24.36 0 1 0-48.71-1v1c0 10 13.47 32.75 20.37 43.74l.94 1.49V210h6.09v.6c.29-.47.61-1 .94-1.49 6.9-11.02 20.37-33.76 20.37-43.77"/><path fill="#a4abb3" d="M814.39 209.97v540.04h6.09V209.97z"/><path fill="#d0d4d8" fill-rule="evenodd" d="M1006.59 715.12c0 40-225.33 72.4-503.3 72.4S0 755.1 0 715.12s225.33-72.4 503.29-72.4 503.3 32.41 503.3 72.4"/></g></g></svg>