<svg xmlns="http://www.w3.org/2000/svg" xml:space="preserve" viewBox="0 0 429.97 1017.208"><path fill="#001D33" d="M176.973 457.47c-2.71 1.629-4.558 188.843-3.669 202.136.72 11.048.53 22.118.339 33.188l-.699 38.523-1.037 57.148-.74 41.126c0 2.519-9.144 18.668-9.144 18.668l.169 29.845s-4.403 22.372-8.89 29.505c19.388 12.7 76.897-22.838 76.897-22.838l12.7-23.981s-2.943-19.77-2.308-31.347c1.673-29.358-1.418-33.866 1.503-63.139 2.117-21.314 26.262-115.229 29.902-125.96 1.736-5.1-.756-12.593-1.433-17.99l-12.298-94.867c-1.376-10.583-2.794-21.4-7.366-31.051-17.61-36.998-48.717-54.1-73.926-38.967"/><path fill="#003253" d="M374.488 750.895c.953 8.36 9.25 44.978 11.282 71.605 1.587 20.7 1.44 36.173 1.44 36.173l11.577 34.776s-6.35 20.362-6.752 25.4c-49.084-14.224-58.524-6.625-79.563-9.102 2.37-10.16-7.176-40.216-7.176-40.216l-5.44-16.446a71.1 71.1 0 0 0-5.08-25.992c-13.08-29.632-6.624-25.78-10.921-57.826-2.519-18.647-3.492-37.506-7.302-55.942-3.81-18.435-10.583-36.617-16.489-54.756-17.885-55.244-43.263-212.974-40.681-218.414 4.381-9.228 28.109 16.171 37.824 12.996a568 568 0 0 1 45.084-12.7c9.207-2.116 38.027 7.405 45.604 14.03 7.578 6.625 15.704 83.933 22.71 143.431 8.065 69.997 3.016 145.215 3.883 152.983"/><path fill="#43464A" d="m390.68 912.139-62.926-18.542-18.182 43.243 36.088 11.81 53.572 3.048z"/><path fill="#43464A" d="m350.444 891.248-46.968-4.212 10.202 44.449 36.088 11.81z"/><path fill="#43464A" d="M315.117 1007.598c-12.7 4.233-59.921 3.62-64.535-3.958-5.186-8.466 0-20.214 7.725-25.907 7.726-5.694 17.187-7.662 25.4-12.34 8.805-5.016 21.695-18.796 25.865-28.553 31.96 9.715 56.98 3.873 88.898 13.588 2.794.847 1.63 31.75-1.292 35.983-3.83 5.44-15.493 5.863-21.293 7.175-7.937 1.8-19.05-3.577-28.7-1.397-12.023 2.794-22.48 12.15-32.068 15.41"/><path fill="#2F353C" d="M251.153 986.136c4-3.45 18.415 1.968 19.05 13.906a105.3 105.3 0 0 0 39.983 5.122c12.149-1.016 27.981-15.748 42.798-15.663 22.415.127 42.057-5.08 46.734-16.721 4.551 2.71 0 16.933-2.772 20.489a16.15 16.15 0 0 1-6.35 4.106l-5.694 1.905a53 53 0 0 1-3.386.825l-5.758.868a23.6 23.6 0 0 1-3.47 0l-5.652-.72a60 60 0 0 0-9.186-.72c-10.583 0-15.388 5.44-22.796 10.266l-4.234 2.498a49 49 0 0 1-2.582 1.185l-5.46 1.863c-.91.233-1.863.466-2.858.656l-6.35.847h-.148l-2.921.17-6.18.19h-2.223l-6.202-.17-2.116-.106-5.567-.423-3.154-.339-5.545-.698-2.307-.36-5.99-1.1c-9.335-1.905-16.214-4.382-18.182-6.583-5.46-5.99-5.46-17.822-1.482-21.293"/><path fill="#C1C7CC" d="m351.925 934.11-39.623-8.594.593 3.429 36.617 8.233zM344.136 943.952l-34.564-7.112-1.27 2.624 33.442 7.514zM335.606 954.725l-30.035-10.943-2.095 2.667 29.865 11.155zM328.494 963.72l-29.315-11.725-2.37 2.56 29.442 12.023zM321.912 972.039l-30.14-12.763-2.54 2.138 30.754 13.06z"/><path fill="#43464A" d="m229.522 882.781-62.927-18.541-18.182 43.242 36.088 11.811 53.55 3.07z"/><path fill="#43464A" d="m189.264 861.912-46.947-4.234 10.18 44.45 36.11 11.81z"/><path fill="#43464A" d="M153.937 978.24c-12.7 4.234-59.9 3.62-64.535-3.957-5.165-8.467 0-20.214 7.746-25.887s17.166-7.662 25.4-12.36c8.784-5.017 21.674-18.796 25.844-28.554 31.982 9.716 56.979 3.874 88.897 13.589 2.794.847 1.651 31.75-1.29 35.982-3.832 5.44-15.494 5.863-21.167 7.176-7.937 1.799-19.05-3.577-28.722-1.397-12.128 2.794-22.563 12.15-32.173 15.409"/><path fill="#2F353C" d="M89.994 956.8c3.98-3.472 18.415 1.947 19.05 13.884a105.4 105.4 0 0 0 40.004 5.123c12.128-1.016 27.96-15.748 42.798-15.663 22.394.148 42.036-5.08 46.735-16.7 4.53 2.709 0 16.932-2.794 20.488a16.1 16.1 0 0 1-6.35 4.085l-5.694 1.927-3.365.825-5.779.868a31 31 0 0 1-3.47 0l-5.631-.74a61 61 0 0 0-9.207-.7c-10.583 0-15.367 5.44-22.775 10.245l-4.233 2.498c-.826.423-1.672.825-2.561 1.185l-5.546 1.841a45 45 0 0 1-2.879.678l-6.35.825h-.126l-2.943.19-6.18.17h-2.138l-6.18-.148-2.223-.127-5.566-.424-3.09-.296-5.567-.72-2.286-.36-5.99-1.079c-9.335-1.926-16.214-4.402-18.182-6.582-5.482-6.012-5.482-17.844-1.482-21.294"/><path fill="#C1C7CC" d="m190.766 904.773-39.623-8.615.572 3.43 36.638 8.233zM182.977 914.594l-34.564-7.112-1.291 2.625 33.463 7.514zM174.447 925.368l-30.035-10.943-2.095 2.667 29.865 11.154zM167.335 934.363 138 922.658l-2.37 2.54 29.442 12.023zM160.753 942.682 130.59 929.94l-2.519 2.116 30.755 13.06z"/><path fill="#005587" d="m308.773 697.6 68.493-1.608c18.563-39.179-.296-93.131-9.884-114.298l-69.552 5.207s-2.561 64.113 10.943 110.7"/><path fill="#003E64" d="m309.62 615.56 71.118-5.185-13.356-28.723-71.118 5.165z"/><path fill="none" d="m34.373 252.342-1.16-.039zm39.747 37.481 1.032 2.907a27 27 0 0 0-1.031-2.907M39.46 252.516l-.756-.025zm5.928.201-.948-.032zm9.32.314-3.227-.108zm-4.103-.138-.797-.027zm6.86.232-1.03-.036zm-1.425-.048-.64-.022zm4.134 4.853c-.014-.074-.024-.143-.036-.216 0 .133-.018.267-.025.4.008-.093.021-.183.029-.277zm-38.084-6-.489-.017zm-20.283-.228-.505-.017zm30.021.558-.306-.011zm-30.734-.582L0 251.641z"/><path fill="#D1E4FF" d="M170.238 216.624s-13.724 86.872-14.28 89.962l-.011.078c.04.038.596.623 1.506 1.585l.197.208c.488.515 1.06 1.12 1.704 1.803l1.068 1.13 1.405 1.493 2.052 2.173c5.435 5.762 11.929 12.65 13.529 14.342"/><path fill="#8A9097" d="M177.418 329.405c-1.61-1.702-8.101-8.589-13.536-14.348l-2.052-2.173-1.404-1.493-1.068-1.13c-.649-.683-1.217-1.288-1.705-1.804l-.196-.208a173 173 0 0 0-1.507-1.584l.014-.073-81.84-16.768q.6 1.425 1.032 2.907l.573 1.62c2.034 5.653-2.878 10.409-8.317 10.169a28.7 28.7 0 0 1-10.477-.017l-17.17-.689c-7.183.822-10.293-2.354-11.994-9.11l-12.673 8.072-.182.116c-.525.596 62.388 18.804 63.405 18.686 0 0 71.072 40.385 97.87 54.22"/><path fill="#A4ABB3" d="M11.892 210.528h7.722a418 418 0 0 0-7.722 0m63.836 83.819-.574-1.62-1.031-2.907-26.37-74.327a7.43 7.43 0 0 0-7.022-4.969H19.614c1.766.019 3.395.053 4.903.108h12.65a7.43 7.43 0 0 1 7.02 4.97l13.28 37.52 2.58.087c.133 1.496.165 3 .093 4.5.012.074.022.143.036.217 1.665 4.742 10.515 32.559 11.881 36.417.076.266.147.552.216.849q.044.193.082.382c.904 4.338-.35 6.87-2.916 8.193a9.4 9.4 0 0 1-2.025.745c5.433.243 10.346-4.513 8.314-10.165"/><path fill="#D0D4D8" d="m1.517 220.574 10.988 31.033.676.023.362.013 1.094.037.209.008.504.016 6.248.216.488.016 9.433.324h.309l1.384.046 1.16.039 4.329.147.756.025 4.98.168.948.032 4.42.15.797.026.876.03 3.227.108.691.024.64.022.395.013 1.03.036-13.278-37.521a7.43 7.43 0 0 0-7.021-4.969H8.538a7.48 7.48 0 0 0-7.436 7.529m71.17 77.03a18 18 0 0 0-.216-.85c-1.365-3.857-10.214-31.675-11.882-36.416l-.032-.094c-.008.094-.021.184-.03.276-.534 9.819-5.106 20.927-13.678 24.696-4.394 2.796-11.773 7.502-18.667 11.892 1.701 6.756 4.811 9.931 11.995 9.11l17.17.69c3.461.647 7.013.652 10.477.015a9.4 9.4 0 0 0 2.025-.745c2.567-1.323 3.822-3.855 2.916-8.193z"/><path fill="#A4ABB3" d="m57.465 253.125-1.03-.036-.396-.013-.64-.021-.69-.024-3.228-.108-.876-.03-.797-.027-4.42-.15-.949-.032-4.98-.168-.755-.025-4.328-.147-1.16-.039-1.385-.046-.306-.01-9.433-.325-.488-.016-6.247-.216-.505-.017-.208-.007-1.095-.037-.361-.013-1.099-.037 2.809 51.307.2-.127 12.673-8.072c6.888-4.39 14.273-9.096 18.667-11.892 8.572-3.768 13.143-14.877 13.678-24.695.007-.133.02-.267.026-.4.071-1.5.04-3.005-.094-4.5z"/><path fill="#D0D4D8" d="M247.31 158.871c.515-5.574 1.088-11.211 1.653-16.562a56.4 56.4 0 0 0 19.316-1.943 101 101 0 0 1-20.97 18.505"/><path fill="#D0D4D8" d="M266.638 142.267a57.7 57.7 0 0 1-17.888 1.62 79.8 79.8 0 0 1-18.244-3.118s-5.216-10.69-11.5-32.97a145 145 0 0 1-2.573-10.75 181 181 0 0 1-3.286-27.52c7.255 2.414 4.852-17.676 27.155-16.375 22.462 1.31 42.655 1.267 42.655 1.267a109 109 0 0 0 1.925 18.655c5.208-7.811 13.98-.302 20.138 6.14 2.737 2.86 1.315 5.76 2.026 10.211 1.691 10.56-10.131 19.607-13.528 23.723.824 2.038 15.22 76.33 15.22 76.33l-66.998 5.443s3.476-20.77 5.483-37.224a91 91 0 0 0 19.415-15.432"/><path fill="#595E62" d="M310.737 66.451c-1.65-10.63-15.394-18.746-15.394-18.746s-.604-8.152-14.15-17.674-27.064-3.36-38.658-1.802c-25.032 3.362-21.72 36.068-18.485 34.136 4.472-2.674 7.057.647 20.083 3.188 13.025 2.54 25.107-7.72 25.107-7.72-5.5 20.3 7.872 12.89 11.785 18.448.622.884 3.213 2.48 5.05 3.703l-5.733 34.18s-2.026 2.799-7.815 2.12a109.2 109.2 0 0 0-32.925-6.626c-19.624-.905-19.131 2.962-19.131 2.962s-7.184 16.636 1.607 31.11c7.348 12.097 22.258 15.396 32.838 15.141 4.147-.1.642-2.435 5.036-7.527 2.935-3.4 19.655-2.594 25.015-10.978 3.572-5.589 1.697-13.536.132-19.984l-2.472-12.74c3.503-6.871 15.521-34.016 24.42-18.215 2.31-4.748 4.88-15.314 3.69-22.976m-52.16 54.897c0 6.619-24.883 19.021-36.85-4.382v-1.206c7.451 6.33 35.222 2.466 35.222 2.466 1.628 2.254 1.628 2.254 1.628 3.122"/><path fill="#D0D4D8" d="m240.54 105.727 10.048 4.975s-21.554 6.38-24.754 5.964a4.215 4.215 0 0 1-4.08-3.975 3.5 3.5 0 0 1 .913-2.787l9.37-12.898z"/><path fill="#D1E4FF" d="M337.928 459.941H190.011l.159-46.292.137-40.05-13.748-95.239-3.91-27.08a63.04 63.04 0 0 1 30.179-59.18l42.12-25.45h54.902l60.243 35.228z"/><path fill="#002C50" d="m316.847 255.033 43.246-53.15-22.167 258.057h-36.633z"/><path fill="#D0D4D8" fill-rule="evenodd" d="m244.948 166.65 6.811 26.594 52.3-23.54-1.856-9.705-55.82 4.234z" clip-rule="evenodd"/><path fill="#003E64" d="M266.022.014c-25.02.482-44.47 17.001-47.557 22.271-1.169 11.136-1.9 29.41-2.048 41.943 14.542 6.375 53.026 14.882 98.915 1.361-.195-15.672 1.158-28.926-1.347-36.621C307.191 8.096 287.461-.398 266.022.014"/><path fill="#005587" d="M285.299 71.599c-28.983.147-65.495-5.705-68.882-9.488 0 0-11.346 7.35-21.161 14.269-9.924 6.995-8.953 8.483 3.586 6.773 8.765-1.195 33.508 4.508 44.224 7.77 13.746 4.183 18.448-3.014 30.48-9.563 0 0 11.755-9.761 11.753-9.761m-55.137 402.006c31.347-1.524 98.023-1.509 98.023-1.509s13.186-1.566 25.886-.084c.79-29.548 3.99-88.385 4.78-117.933.134-1.385 1.224-6.644.798-7.968-.815-1.534 7.9.218 6.381-.624-13.165-8.974-8.657-78.928-8.657-78.928l-22.986-43.793c3.725-9.334 26.47-25.235 34.027-24.07 10.604 1.587-63.279-31.64-63.279-31.64s-5.588 4.34-10.583 8.362c-8.225 6.643-53.633 94.993-53.633 94.993s-11.539 191.34-10.757 203.194m14.786-306.955c-.698-1.037-65.836 33.978-68.503 35.46-2.771 1.802-5.376 7.874-5.376 7.874l-2.688 50.925 3.168 70.181 3.502 44.433-2.989 95.92 47.366 3.262c.057-15.828 10.999-214.474 10.999-214.474s14.542-93.567 14.521-93.58"/><path fill="#003E64" d="M365.483 320.175 349.27 199.211l-21.495 39.725 2.996 157.204-2.586 75.956 25.886-.084z"/><path fill="#D1E4FF" d="M393.505 225.882c-5.327-18.356-17.314-27.668-28.806-29.295-4.942-.501-8.892.036-8.892.036-26.976 3.796-28.836 37.7-27.378 53.351q.333 3.755.811 7.557v.02a296.5 296.5 0 0 0 12.266 53.634l.16.078c8.429 4.066 16.872 8.145 25.016 12.087 34.466 16.683 63.547 30.915 63.286 31.425z"/><path fill="#A4ABB3" d="M366.684 323.351c-8.143-3.942-16.587-8.02-25.016-12.087l-.16-.078c-5.415-2.61-10.826-5.216-16.147-7.777l-.096-.046c-37.3-17.95-70.224-33.696-70.224-33.696l-8.75-4.796-.244-.134-6.558-3.594-.046-.026-12.385-6.788-17.924 39.62c2.836.402 30.151 4.308 32.243 5.828 22.338 16.788 50.816 40.227 79.308 58.009l.097.06c14.358 8.955 28.714 16.47 42.293 20.966 27.853 9.224 52.409 5.75 66.892-24.036.264-.51-28.817-14.742-63.283-31.425"/><path fill="#8A9097" d="m181.409 261.759-5.946.968s.609 3.07 1.633 7.093c.22.794 3.13 2.003 5.851 3.2 2.362 1.038 4.583 2.066 4.772 2.804a91 91 0 0 0 3.51 10.278c3.427 7.425 17.9 7.86 17.9 7.86l.006-.013 17.924-39.62z"/></svg>