<svg xmlns="http://www.w3.org/2000/svg" data-name="Ebene 2" viewBox="0 0 1600 900"><path fill="#232628" d="M801.12 589.82c0-12.41-3.75-23.73-9.89-32.28V541.6h-28.57c-21.24 0-38.46 21.59-38.46 48.21s17.22 48.21 38.46 48.21h28.57v-15.94c6.15-8.55 9.89-19.86 9.89-32.28Z"/><ellipse cx="790.42" cy="589.82" fill="#3c3f42" rx="38.46" ry="48.21"/><ellipse cx="791.91" cy="591.44" fill="#595e62" rx="28.39" ry="35.59"/><path fill="#656a6f" d="M791.91 555.86c-1.38 0-2.74.13-4.07.37 13.75 2.47 24.32 17.29 24.32 35.22s-10.57 32.74-24.32 35.22c1.33.24 2.69.37 4.07.37 15.68 0 28.39-15.93 28.39-35.59s-12.71-35.59-28.39-35.59"/><path fill="#232628" d="M929.96 589.82c0-12.41-3.75-23.73-9.89-32.28V541.6H891.5c-21.24 0-38.46 21.59-38.46 48.21s17.22 48.21 38.46 48.21h28.57v-15.94c6.15-8.55 9.89-19.86 9.89-32.28Z"/><ellipse cx="919.27" cy="589.82" fill="#3c3f42" rx="38.46" ry="48.21"/><ellipse cx="920.75" cy="591.44" fill="#595e62" rx="28.39" ry="35.59"/><path fill="#656a6f" d="M920.75 555.86c-1.38 0-2.74.13-4.07.37 13.75 2.47 24.32 17.29 24.32 35.22s-10.57 32.74-24.32 35.22c1.33.24 2.69.37 4.07.37 15.68 0 28.39-15.93 28.39-35.59s-12.71-35.59-28.39-35.59"/><path fill="#232628" d="M1058.89 589.82c0-12.41-3.75-23.73-9.89-32.28V541.6h-28.57c-21.24 0-38.46 21.59-38.46 48.21s17.22 48.21 38.46 48.21H1049v-15.94c6.15-8.55 9.89-19.86 9.89-32.28Z"/><ellipse cx="1048.2" cy="589.82" fill="#3c3f42" rx="38.46" ry="48.21"/><ellipse cx="1049.68" cy="591.44" fill="#595e62" rx="28.39" ry="35.59"/><path fill="#656a6f" d="M1049.68 555.86c-1.38 0-2.74.13-4.07.37 13.75 2.47 24.32 17.29 24.32 35.22s-10.57 32.74-24.32 35.22c1.33.24 2.69.37 4.07.37 15.68 0 28.39-15.93 28.39-35.59s-12.71-35.59-28.39-35.59"/><path fill="#1a1c1d" d="M461.97 533.14h435.67v55.34H461.97z"/><path fill="#1a1c1d" d="M883.32 533.14h435.67v55.34H883.32z"/><path fill="#232628" d="M366.92 589.82c0-12.41-3.75-23.73-9.89-32.28V541.6h-28.57c-21.24 0-38.46 21.59-38.46 48.21s17.22 48.21 38.46 48.21h28.57v-15.94c6.15-8.55 9.89-19.86 9.89-32.28Z"/><ellipse cx="356.22" cy="589.82" fill="#383b3e" rx="38.46" ry="48.21"/><ellipse cx="357.71" cy="591.44" fill="#595e62" rx="28.39" ry="35.59"/><path fill="#656a6f" d="M357.71 555.86c-1.38 0-2.74.13-4.07.37 13.75 2.47 24.32 17.29 24.32 35.22s-10.57 32.74-24.32 35.22c1.33.24 2.69.37 4.07.37 15.68 0 28.39-15.93 28.39-35.59s-12.71-35.59-28.39-35.59"/><path fill="#2e3033" d="M919.69 541.92h418.54v17.56H919.69z"/><path fill="#c535bc" d="M385.26 261.96h214.45v262.4H385.26z"/><path fill="#2e3033" d="M1224.48 617.2h47.04l-11.96-20.92h-47.04z"/><path fill="#43464a" d="M1151.66 515.25v-.42h.67l.45-.28.09.28h42.89l.09-.28.45.28h.67v.42c36.37 7.14 62.59 39.02 62.59 76.08v4.95h-37.28l-.06-8.73c0-29.43-19.84-53.35-44.5-53.97v-.03h-6.81v.03c-24.67.62-19.25-18.34-19.25-18.34Z"/><path fill="#232628" d="M1214.39 584.23c0-12.41-3.75-23.73-9.89-32.28v-15.94h-28.57c-21.24 0-38.46 21.59-38.46 48.21s17.22 48.21 38.46 48.21h28.57v-15.94c6.15-8.55 9.89-19.86 9.89-32.28Z"/><ellipse cx="1203.69" cy="584.23" fill="#383b3e" rx="38.46" ry="48.21"/><ellipse cx="1205.18" cy="585.84" fill="#595e62" rx="28.39" ry="35.59"/><path fill="#656a6f" d="M1205.18 550.26c-1.38 0-2.74.13-4.07.37 13.75 2.47 24.32 17.29 24.32 35.22s-10.57 32.74-24.32 35.22c1.33.24 2.69.37 4.07.37 15.68 0 28.39-15.93 28.39-35.59s-12.71-35.59-28.39-35.59"/><path fill="#383a3d" d="M1227.03 515.25v-.42h-.67l-.45-.28-.09.28h-42.89l-.09-.28-.45.28h-.67v.42c-36.37 7.14-62.59 39.02-62.59 76.08l.73 7.77h37.32l-.71-11.54c0-29.43 19.84-53.35 44.5-53.97v-.03h6.82v.03c24.67.62 19.25-18.34 19.25-18.34Z"/><path fill="#d0d4d8" d="M420.72 331.75h46.92v29.87h-46.92z"/><path fill="#2e3033" d="M1108.3 620.03h47.04l-11.96-20.92h-47.04z"/><path fill="#43464a" d="M1035.48 518.07v-.42h.67l.45-.28.09.28h42.89l.09-.28.45.28h.67v.42c36.37 7.14 62.59 39.02 62.59 76.08v4.95h-37.28l-.06-8.73c0-29.43-19.84-53.35-44.5-53.97v-.03h-6.81v.03c-24.67.62-19.25-18.34-19.25-18.34Z"/><path fill="#232628" d="M1098.21 587.05c0-12.41-3.75-23.73-9.89-32.28v-15.94h-28.57c-21.24 0-38.46 21.59-38.46 48.21s17.22 48.21 38.46 48.21h28.57v-15.94c6.15-8.55 9.89-19.86 9.89-32.28Z"/><ellipse cx="1087.52" cy="587.05" fill="#383b3e" rx="38.46" ry="48.21"/><ellipse cx="1089" cy="588.67" fill="#595e62" rx="28.39" ry="35.59"/><path fill="#656a6f" d="M1089 553.09c-1.38 0-2.74.13-4.07.37 13.75 2.47 24.32 17.29 24.32 35.22s-10.57 32.74-24.32 35.22c1.33.24 2.69.37 4.07.37 15.68 0 28.39-15.93 28.39-35.59s-12.71-35.59-28.39-35.59"/><path fill="#383a3d" d="M1110.85 518.07v-.42h-.67l-.45-.28-.09.28h-42.89l-.09-.28-.45.28h-.67v.42c-36.37 7.14-62.59 39.02-62.59 76.08l.73 7.77H1041l-.71-11.54c0-29.43 19.84-53.35 44.5-53.97v-.03h6.82v.03c24.67.62 19.25-18.34 19.25-18.34Z"/><path fill="#d0d4d8" d="M438.4 547.34H230.61V360.76c-.41-18.62 13.76-29 30.73-29H438.4z"/><path fill="#d0d4d8" d="M437.99 458.27H223.48l6.72-10.73h207.79z"/><path fill="#b2b9c0" d="M437.99 458.24H223.48l6.72 3.03h207.79z"/><path fill="#c1c7cc" d="M467.99 331.75h85.49c.29 0 .53.24.53.53v176.33c0 .29-.24.53-.53.53H438.52c-.29 0-.53-.24-.53-.53V361.75c0-16.56 13.44-30 30-30"/><path fill="#c1c7cc" d="m497.71 527.86-59.72 19.48V477.2h61.49z"/><path fill="#383b3e" d="M223.48 547.34h214.51v54.55H244.66c-11.69 0-21.18-9.49-21.18-21.18z"/><path fill="#656a6f" d="M266.61 582.27h-27.94l-5.44-16.02h55.14c-2.5 9.42-11.47 16.02-21.76 16.02m128.26 0h27.94l5.44-16.02h-55.14c2.5 9.42 11.47 16.02 21.76 16.02"/><path fill="#e0e2e5" d="M236.54 461.27h195.93v12.91c0 39.33-31.93 71.26-71.26 71.26H307.8c-39.33 0-71.26-31.93-71.26-71.26z"/><path fill="#c1c7cc" d="M236.54 461.27h195.93v7.74c0 39.33-31.93 71.26-71.26 71.26H307.8c-39.33 0-71.26-31.93-71.26-71.26z"/><path fill="#2e3033" d="M290.47 461.27h88.21v5.11h-88.21zM290.47 481.02h88.21v5.11h-88.21zM290.47 500.77h88.21v5.11h-88.21zM290.47 520.52h88.21v5.11h-88.21zM307.74 540.27h53.66v5.11h-53.66z"/><path fill="#383b3e" d="M437.99 447.54v-92.96h79.36v62.19z"/><path fill="#43464a" d="M230.2 354.58h207.79v92.74H230.2z"/><path fill="#232628" d="M530.63 589.82c0-12.41-3.75-23.73-9.89-32.28V541.6h-28.57c-21.24 0-38.46 21.59-38.46 48.21s17.22 48.21 38.46 48.21h28.57v-15.94c6.15-8.55 9.89-19.86 9.89-32.28Z"/><ellipse cx="519.93" cy="589.82" fill="#383b3e" rx="38.46" ry="48.21"/><ellipse cx="521.42" cy="591.44" fill="#595e62" rx="28.39" ry="35.59"/><path fill="#656a6f" d="M521.42 555.86c-1.38 0-2.74.13-4.07.37 13.75 2.47 24.32 17.29 24.32 35.22s-10.57 32.74-24.32 35.22c1.33.24 2.69.37 4.07.37 15.68 0 28.39-15.93 28.39-35.59s-12.71-35.59-28.39-35.59"/><path fill="#2e3033" d="m463.75 601.88.08-9.94c0-33.51 26.82-60.74 60.16-61.44v-.03h35.23v-21.32h-59.61l-.12-.32L438 547.34v54.55h25.75ZM992.44 622.8h47.05l-11.96-20.92h-47.05z"/><path fill="#43464a" d="M919.63 520.85v-.42h.67l.45-.28.09.28h42.89l.09-.28.45.28h.67v.42c36.37 7.14 62.59 39.02 62.59 76.08v4.95h-37.28l-.06-8.73c0-29.43-19.84-53.35-44.5-53.97v-.03h-6.81v.03c-24.67.62-19.25-18.34-19.25-18.34Z"/><path fill="#232628" d="M982.35 589.82c0-12.41-3.75-23.73-9.89-32.28V541.6h-28.57c-21.24 0-38.46 21.59-38.46 48.21s17.22 48.21 38.46 48.21h28.57v-15.94c6.15-8.55 9.89-19.86 9.89-32.28Z"/><ellipse cx="971.66" cy="589.82" fill="#383b3e" rx="38.46" ry="48.21"/><ellipse cx="973.15" cy="591.44" fill="#595e62" rx="28.39" ry="35.59"/><path fill="#656a6f" d="M973.15 555.86c-1.38 0-2.74.13-4.07.37 13.75 2.47 24.32 17.29 24.32 35.22s-10.57 32.74-24.32 35.22c1.33.24 2.69.37 4.07.37 15.68 0 28.39-15.93 28.39-35.59s-12.71-35.59-28.39-35.59"/><path fill="#43464a" d="M994.99 520.85v-.42h-.67l-.45-.28-.09.28h-42.89l-.09-.28-.45.28h-.67v.42c-36.37 7.14-62.59 39.02-62.59 76.08l.73 7.77h37.32l-.71-11.54c0-29.43 19.84-53.35 44.5-53.97v-.03h6.82v.03c24.67.62 19.25-18.34 19.25-18.34Z"/><path fill="#9e2896" d="M599.71 261.96h776.81v262.4H599.71z"/><path fill="#2e3033" d="M486.97 524.36h877.4v17.56h-877.4zM909.21 572.64v-12.22H564.08v12.22h12.55v19.84h-11.96v12.22h343.94v-12.22h-10.64v-19.84zm-326.47 0h150.85v19.84H582.74zm309.12 19.84H739.7v-19.84h152.16z"/></svg>