<svg xmlns="http://www.w3.org/2000/svg" data-name="Ebene 2" viewBox="0 0 1600 900"><path fill="#c1c7cc" d="M0 681.48h1600V900H0z"/><path fill="#232628" d="M461.53 695.14c0-16.05 4.84-30.69 12.8-41.74v-20.61h36.95c27.47 0 49.74 27.92 49.74 62.35 0 34.44-22.27 62.35-49.74 62.35h-36.95v-20.61c-7.95-11.05-12.8-25.69-12.8-41.74"/><ellipse cx="475.36" cy="695.14" fill="#383b3e" rx="49.74" ry="62.35"/><ellipse cx="473.44" cy="697.23" fill="#595e62" rx="36.71" ry="46.02"/><path fill="#656a6f" d="M473.44 651.21c1.79 0 3.54.17 5.26.48-17.78 3.2-31.45 22.37-31.45 45.54 0 23.18 13.67 42.34 31.45 45.54-1.72.31-3.47.48-5.26.48-20.28 0-36.71-20.6-36.71-46.02s16.44-46.02 36.71-46.02"/><path fill="#1a1c1d" d="M837.62 693.41H274.19v-71.57h563.43z"/><path fill="#232628" d="M960.54 695.14c0-16.05 4.84-30.69 12.8-41.74v-20.61h36.95c27.47 0 49.74 27.92 49.74 62.35 0 34.44-22.27 62.35-49.74 62.35h-36.95v-20.61c-7.95-11.05-12.8-25.69-12.8-41.74"/><ellipse cx="974.37" cy="695.14" fill="#383b3e" rx="49.74" ry="62.35"/><ellipse cx="972.44" cy="697.23" fill="#595e62" rx="36.71" ry="46.02"/><path fill="#656a6f" d="M972.44 651.21c1.79 0 3.54.17 5.26.48-17.78 3.2-31.45 22.37-31.45 45.54 0 23.18 13.67 42.34 31.45 45.54-1.72.31-3.47.48-5.26.48-20.28 0-36.71-20.6-36.71-46.02s16.44-46.02 36.71-46.02"/><path fill="#2e3033" d="M245.68 655.89H136.82v-22.7h108.86zM234.45 737.78h-60.84l15.47-27.05h60.84z"/><path fill="#43464a" d="M328.62 605.94v-.54h-.86l-.58-.36-.12.36h-55.47l-.12-.36-.58.36h-.86v.54c-47.03 9.24-80.95 50.46-80.95 98.39v6.41h48.21l.07-11.29c0-38.06 25.66-68.99 57.55-69.79v-.04h8.81v.04c31.9.8 24.89-23.72 24.89-23.72Z"/><path fill="#232628" d="M247.5 695.14c0-16.05 4.84-30.69 12.8-41.74v-20.61h36.95c27.47 0 49.74 27.92 49.74 62.35 0 34.44-22.27 62.35-49.74 62.35H260.3v-20.61c-7.95-11.05-12.8-25.69-12.8-41.74"/><ellipse cx="261.33" cy="695.14" fill="#383b3e" rx="49.74" ry="62.35"/><ellipse cx="259.4" cy="697.23" fill="#595e62" rx="36.71" ry="46.02"/><path fill="#656a6f" d="M259.4 651.21c1.79 0 3.54.17 5.26.48-17.78 3.2-31.45 22.37-31.45 45.54 0 23.18 13.67 42.34 31.45 45.54-1.72.31-3.47.48-5.26.48-20.28 0-36.71-20.6-36.71-46.02s16.44-46.02 36.71-46.02"/><path fill="#37a264" d="M936.82 610.48H659.49V271.14h277.33z"/><path fill="#d0d4d8" d="M890.95 400.03h-60.68V361.4h60.68z"/><path fill="#d0d4d8" d="M868.09 640.19h268.72v-241.3c.53-24.08-17.79-37.5-39.74-37.5H868.09z"/><path fill="#d0d4d8" d="M868.62 525.01h277.41l-8.69-13.87H868.62z"/><path fill="#b2b9c0" d="M868.62 524.97h277.41l-8.69 3.92H868.62z"/><path fill="#c1c7cc" d="M868.09 590.81H719.11c-.29 0-.53-.24-.53-.53V361.93c0-.29.24-.53.53-.53h119.51c16.56 0 30 13.44 30 30v198.88c0 .29-.24.53-.53.53"/><path fill="#c1c7cc" d="m791.4 615 77.22 25.19v-90.7H789.1z"/><path fill="#383b3e" d="M1124.86 710.74H868.62V640.2h277.41v49.36c0 11.69-9.49 21.18-21.18 21.18Z"/><path fill="#656a6f" d="M1090.26 685.38h36.14l7.03-20.72h-71.31c3.24 12.18 14.84 20.72 28.14 20.72m-165.87 0h-36.14l-7.03-20.72h71.31c-3.24 12.18-14.84 20.72-28.14 20.72"/><path fill="#e0e2e5" d="M1057.88 637.73H947.02c-39.33 0-71.26-31.93-71.26-71.26v-37.59h253.38v37.59c0 39.33-31.93 71.26-71.26 71.26"/><path fill="#c1c7cc" d="M1057.88 631.05H947.02c-39.33 0-71.26-31.93-71.26-71.26v-30.91h253.38v30.91c0 39.33-31.93 71.26-71.26 71.26"/><path fill="#2e3033" d="M1059.41 535.48H945.33v-6.6h114.08zM1059.41 561.03H945.33v-6.6h114.08zM1059.41 586.57H945.33v-6.6h114.08zM1059.41 612.11H945.33v-6.6h114.08zM1037.06 637.66h-69.4v-6.6h69.4z"/><path fill="#383b3e" d="M868.62 511.14V390.91H765.99v80.43z"/><path fill="#43464a" d="M1137.34 510.85H868.62V390.92h268.72z"/><path fill="#232628" d="M748.82 695.14c0-16.05 4.84-30.69 12.8-41.74v-20.61h36.95c27.47 0 49.74 27.92 49.74 62.35 0 34.44-22.27 62.35-49.74 62.35h-36.95v-20.61c-7.95-11.05-12.8-25.69-12.8-41.74"/><ellipse cx="762.65" cy="695.14" fill="#383b3e" rx="49.74" ry="62.35"/><ellipse cx="760.73" cy="697.23" fill="#595e62" rx="36.71" ry="46.02"/><path fill="#656a6f" d="M760.73 651.21c1.79 0 3.54.17 5.26.48-17.78 3.2-31.45 22.37-31.45 45.54s13.67 42.34 31.45 45.54c-1.72.31-3.47.48-5.26.48-20.28 0-36.71-20.6-36.71-46.02s16.44-46.02 36.71-46.02"/><path fill="#2e3033" d="m835.31 710.73-.1-12.85c0-43.34-34.68-78.55-77.8-79.46v-.04h-45.56v-27.57h77.09l.16-.41 79.52 49.8v70.54h-33.3Z"/><path fill="#43464a" d="M231.15 605.94v-.54h.86l.58-.36.12.36h55.47l.12-.36.58.36h.86v.54c47.03 9.24 80.95 50.46 80.95 98.39l-.94 10.05h-48.26l.92-14.93c0-38.06-25.66-68.99-57.55-69.79v-.04h-8.81v.04c-31.9.8-24.89-23.72-24.89-23.72Z"/><path fill="#006c3a" d="M659.48 610.48H101.66V271.14h557.82z"/><path fill="#2e3033" d="M805.28 633.19H111.82v-22.7h693.46zM358.66 672.91v25.66H347.6v15.8h357.34v-15.8h-12.43v-25.66h13.04v-15.8H346.97v15.8h11.67Zm327.51 25.66H529.45v-25.66h156.72zM365 672.91h158.09v25.66H365z"/><g fill="#fff"><path d="M293.46 815.31H35.04l-8.26 14.68H285.2zM720.04 815.31H461.63l-8.26 14.68h258.42zM1146.63 815.31H888.21l-8.25 14.68h258.41zM1573.22 815.31H1314.8l-8.26 14.68h258.42z"/></g></svg>