<svg xmlns="http://www.w3.org/2000/svg" data-name="Ebene 2" viewBox="0 0 807.567 376.074"><defs><clipPath id="a"><path fill="none" stroke-width="0" d="M118.772 131.96h86.011v53.054h-86.011z"/></clipPath></defs><g stroke-width="0"><path fill="#232628" d="M529.291 327.86c0-12.414-3.745-23.73-9.894-32.276v-15.936h-28.569c-21.242 0-38.463 21.586-38.463 48.213s17.22 48.213 38.463 48.213h28.569v-15.937c6.149-8.546 9.894-19.862 9.894-32.276"/><ellipse cx="518.599" cy="327.861" fill="#383b3e" rx="38.463" ry="48.213"/><ellipse cx="520.086" cy="329.479" fill="#595e62" rx="28.389" ry="35.585"/><path fill="#656a6f" d="M520.086 293.894c-1.382 0-2.738.13-4.067.369 13.752 2.474 24.322 17.295 24.322 35.216s-10.57 32.743-24.322 35.217c1.329.239 2.685.369 4.067.369 15.679 0 28.39-15.932 28.39-35.586s-12.711-35.585-28.39-35.585"/></g><path fill="#1a1c1d" d="M238.483 271.176h435.671v55.34H238.483z"/><g stroke-width="0"><path fill="#232628" d="M143.433 327.86c0-12.414-3.745-23.73-9.894-32.276v-15.936H104.97c-21.242 0-38.463 21.586-38.463 48.213s17.22 48.213 38.463 48.213h28.569v-15.937c6.149-8.546 9.894-19.862 9.894-32.276"/><ellipse cx="132.741" cy="327.861" fill="#383b3e" rx="38.463" ry="48.213"/><ellipse cx="134.228" cy="329.479" fill="#595e62" rx="28.389" ry="35.585"/><path fill="#656a6f" d="M134.228 293.894c-1.382 0-2.739.13-4.067.369 13.751 2.474 24.322 17.295 24.322 35.216s-10.57 32.743-24.322 35.217a23 23 0 0 0 4.067.369c15.679 0 28.389-15.932 28.389-35.586s-12.71-35.585-28.39-35.585"/></g><path fill="#2e3033" d="M696.204 279.954h84.178v17.557h-84.178zM704.884 360.834h47.044l-11.96-20.915h-47.044z"/><path fill="#43464a" d="M632.069 258.882v-.415h.667l.452-.28.09.28h42.888l.09-.28.451.28h.668v.415c36.366 7.143 62.593 39.022 62.593 76.082v4.955H702.69l-.056-8.728c0-29.433-19.839-53.35-44.504-53.967v-.03h-6.816v.03c-24.665.617-19.245-18.342-19.245-18.342"/><g stroke-width="0"><path fill="#232628" d="M694.794 327.86c0-12.414-3.746-23.73-9.895-32.276v-15.936h-28.568c-21.243 0-38.463 21.586-38.463 48.213s17.22 48.213 38.463 48.213h28.568v-15.937c6.15-8.546 9.895-19.862 9.895-32.276"/><ellipse cx="684.101" cy="327.861" fill="#383b3e" rx="38.463" ry="48.213"/><ellipse cx="685.588" cy="329.479" fill="#595e62" rx="28.389" ry="35.585"/><path fill="#656a6f" d="M685.588 293.894c-1.381 0-2.738.13-4.067.369 13.752 2.474 24.323 17.295 24.323 35.216s-10.571 32.743-24.323 35.217c1.33.239 2.686.369 4.067.369 15.68 0 28.39-15.932 28.39-35.586s-12.71-35.585-28.39-35.585"/></g><path fill="#b2b9c0" d="M161.778 0h214.45v262.397h-214.45z"/><path fill="#d0d4d8" d="M197.237 69.789h46.922v29.87h-46.922z"/><path fill="#d0d4d8" d="M214.92 285.373H7.13V98.79c-.408-18.62 13.758-29 30.728-29H214.92z"/><path fill="#d0d4d8" d="M214.511 196.303H0l6.722-10.722h207.79z"/><path fill="#b2b9c0" d="M214.511 196.275H0l6.722 3.028h207.79z"/><path fill="#c1c7cc" d="m274.224 265.895-59.713 19.478v-70.137h61.486z"/><path fill="#383b3e" d="M0 285.373h214.511v54.546H21.177C9.489 339.919 0 330.429 0 318.742z"/><path fill="#656a6f" d="M43.123 320.31H15.182l-5.436-16.02h55.138c-2.504 9.417-11.473 16.02-21.76 16.02m128.264 0h27.942l5.435-16.02h-55.137c2.503 9.417 11.472 16.02 21.76 16.02"/><path fill="#e0e2e5" d="M13.06 199.303h195.93v12.909c0 39.33-31.931 71.26-71.261 71.26H84.32c-39.33 0-71.26-31.93-71.26-71.26z"/><path fill="#c1c7cc" d="M13.06 199.303h195.93v7.74c0 39.33-31.931 71.26-71.261 71.26H84.32c-39.33 0-71.26-31.93-71.26-71.26z"/><path fill="#2e3033" d="M66.985 199.303h88.214v5.106H66.985zM66.985 219.053h88.214v5.106H66.985zM66.985 238.803h88.214v5.106H66.985zM66.985 258.553h88.214v5.106H66.985zM84.261 278.303h53.661v5.106H84.261z"/><path fill="#43464a" d="M6.722 92.615h207.789v92.739H6.722z"/><g stroke-width="0"><path fill="#232628" d="M307.145 327.86c0-12.414-3.746-23.73-9.895-32.276v-15.936h-28.568c-21.243 0-38.463 21.586-38.463 48.213s17.22 48.213 38.463 48.213h28.568v-15.937c6.15-8.546 9.895-19.862 9.895-32.276"/><ellipse cx="296.453" cy="327.861" fill="#383b3e" rx="38.463" ry="48.213"/><ellipse cx="297.939" cy="329.479" fill="#595e62" rx="28.389" ry="35.585"/><path fill="#656a6f" d="M297.94 293.894c-1.382 0-2.739.13-4.067.369 13.751 2.474 24.322 17.295 24.322 35.216s-10.57 32.743-24.322 35.217c1.328.239 2.685.369 4.066.369 15.68 0 28.39-15.932 28.39-35.586s-12.71-35.585-28.39-35.585"/></g><path fill="#2e3033" d="m240.264 339.919.076-9.936c0-33.512 26.818-60.74 60.16-61.444v-.033h35.23v-21.322h-59.611l-.122-.32-61.486 38.51v54.545z"/><path fill="#43464a" d="M707.436 258.882v-.415h-.667l-.452-.28-.09.28H663.34l-.09-.28-.451.28h-.668v.415c-36.366 7.143-62.593 39.022-62.593 76.082l.73 7.768h37.318l-.714-11.54c0-29.434 19.839-53.35 44.504-53.968v-.03h6.816v.03c24.665.617 19.246-18.342 19.246-18.342"/><path fill="#979ea4" d="M376.227 0h431.339v262.397H376.227z"/><path fill="#2e3033" d="M263.487 262.397H799.71v17.557H263.487zM617.868 310.673v-12.216H340.594v12.216h10.086v19.843h-9.608v12.216H617.39v-12.216h-8.549v-19.843zm-262.28 0h121.188v19.843H355.59zm248.343 19.843H481.685v-19.843h122.246z"/><path fill="#383b3e" d="M214.511 185.581V92.615h79.362v62.195z"/><path fill="none" d="m193.936 168.54.257.725a7 7 0 0 0-.257-.724m-8.632-9.291-.188-.006zm1.476.05-.236-.008zm2.321.078-.803-.027zm-1.021-.034-.199-.007zm1.708.058-.257-.01zm-.355-.012-.16-.006zm1.03 1.208-.01-.054-.006.1.008-.069z"/><path fill="#d1e4ff" d="M216.886 149.929c-2.702 1.684-22.907 11.36-22.907 11.36 2.812 5.093 2.072 8.645 4.884 13.739 11.551-3.19 21.195-6.787 25.105-13.378 1.745-2.941-8.827-8.78-7.082-11.721"/><path fill="#8a9097" d="M198.863 175.028c.33-2.172.577-6.151-.693-9.61-.556-1.51-1.483-3.574-2.824-4.774l-21.675-2.732c-1.723.26-6.969 1.045-11.474 1.754l-3.122 1.224.672 1.18 15.338 3.692c8.066 3.327 15.712 5.939 23.778 9.266"/><path fill="#d0d4d8" d="M234.065 138.93c.128-1.388.271-2.792.412-4.125 1.62.118 3.247-.045 4.81-.484a25 25 0 0 1-5.222 4.609"/><path fill="#a4abb3" d="M238.878 134.795a14.4 14.4 0 0 1-4.454.403 20 20 0 0 1-4.544-.776s-1.298-2.662-2.863-8.21a36 36 0 0 1-.641-2.678 45 45 0 0 1-.818-6.854c1.806.602 1.208-4.401 6.762-4.077 5.594.326 10.622.315 10.622.315.027 1.56.187 3.114.48 4.646 1.297-1.945 3.481-.075 5.015 1.53.681.711.327 1.433.504 2.542.421 2.63-2.523 4.883-3.369 5.908.206.507 3.79 19.008 3.79 19.008l-16.684 1.356s.866-5.173 1.366-9.27a22.7 22.7 0 0 0 4.834-3.843"/><path fill="#525f6b" d="M249.86 115.914c-.41-2.647-3.833-4.668-3.833-4.668s-.15-2.03-3.524-4.402c-3.374-2.37-6.74-.837-9.627-.448-6.234.837-5.409 8.982-4.603 8.5 1.113-.665 1.757.162 5 .794s6.253-1.922 6.253-1.922c-1.37 5.055 1.96 3.21 2.935 4.594.155.22.8.618 1.258.922l-1.428 8.512s-.504.697-1.946.528a27.2 27.2 0 0 0-8.2-1.65c-4.886-.225-4.764.738-4.764.738s-1.789 4.143.4 7.747c1.83 3.012 5.544 3.834 8.178 3.77 1.033-.024.16-.606 1.254-1.874.731-.847 4.895-.646 6.23-2.734.89-1.392.423-3.37.033-4.976l-.616-3.173c.873-1.711 3.865-8.471 6.082-4.536.575-1.182 1.215-3.814.918-5.722m-12.989 13.671c0 1.648-6.197 4.737-9.177-1.091v-.3c1.856 1.576 8.772.614 8.772.614q.405.56.405.777"/><path fill="#a4abb3" d="m232.38 125.695 2.501 1.239s-5.367 1.589-6.164 1.485a1.05 1.05 0 0 1-1.016-.99.87.87 0 0 1 .227-.694l2.334-3.212z"/><path fill="#d1e4ff" d="M256.632 213.905h-36.836l.04-11.528.034-9.973-3.424-23.718-.974-6.744a15.7 15.7 0 0 1 7.516-14.737l10.49-6.338h13.671l15.003 8.773z"/><path fill="#002c50" d="m251.382 162.877 10.77-13.236-5.52 64.264h-9.123z"/><path fill="#a4abb3" fill-rule="evenodd" d="m233.477 140.867 1.696 6.622 13.258-5.862-.462-2.417-14.135 1.055z"/><path fill="#003b6a" d="M238.725 99.37c-6.23.12-11.074 4.233-11.843 5.545-.291 2.773-.473 7.325-.51 10.446 3.621 1.587 13.205 3.706 24.633.339-.049-3.903.288-7.204-.336-9.12-1.692-5.198-6.605-7.313-11.944-7.21"/><path fill="#005691" d="M243.526 117.196c-7.218.037-16.31-1.42-17.154-2.363 0 0-2.826 1.83-5.27 3.554-2.471 1.742-2.23 2.112.893 1.686 2.183-.297 8.345 1.123 11.013 1.935 3.423 1.042 4.594-.75 7.59-2.381z"/><path fill="#002c50" d="M229.716 193.92c0 4.06-1.465 8.397-1.333 12.425.132 4.027 2.398 8.127 2.662 12.123 7.806-.38 15.022-.366 23.654-1.755 3.472-.298 2.691.325 5.854.694.197-7.358 1.093-22.506 1.29-29.865.033-.344.304-1.654.198-1.984-.203-.382 1.968.054 1.59-.155-3.28-2.235-2.157-19.656-2.157-19.656l-5.724-10.906c.928-2.324 6.592-6.284 8.474-5.994 2.64.395-15.759-7.879-15.759-7.879s-1.391 1.08-2.635 2.082c-7.843 6.336-10.268 20.077-12.292 30.14-.074.363-.148.732-.227 1.096-1.302 6.336-3.6 13.215-3.595 19.635"/><path fill="#002c50" d="M233.477 140.867c-.174-.258-16.512 8.405-17.176 8.774-.69.448-2.097 1.947-2.264 2.753.119 3.882-.04 7.673.256 11.89l.05 6.935.168 14.362c.274 3.848 1.114 3.88 1.752 7.708 1.101 6.63-1.012 18.35-1.053 23.424l10.914 1.29c.02-5.835 2.504-14.062 2.504-19.902.022-5.329-.706-11.127.132-16.398 1.223-7.58 3.582-14.975 4.215-22.597.232-2.81.67-5.846.59-8.655-.053-2.108-.072-9.574-.088-9.584"/><path fill="#003b6a" d="m263.494 179.1-4.038-30.125-4.835 8.937.229 40.105-.644 18.915 6.446-.02z"/><path fill="#c1c7cc" d="M330.003 69.789H244.51c-14.095 0-25.913 9.723-29.13 22.826h78.491v62.195l-79.36 30.771v61.071a.53.53 0 0 0 .531.532h114.96a.53.53 0 0 0 .532-.532V70.321a.53.53 0 0 0-.532-.532"/><path fill="#d1e4ff" d="M268.273 150.314c-3.385-3.336-6.497-3.88-9.766-2.684q-.904.335-1.754.792l-.23.126c-5.41 4.104-1.703 11.687.512 14.906q.528.774 1.093 1.54l.002.005c2.736 3.66 3.026 3.774 3.026 3.774 2.328-.143 23.121-5.393 23.126-5.25z"/><g clip-path="url(#a)"><path fill="#232628" d="M166.997 162.832c-16.466 0-29.814 13.348-29.814 29.814s13.348 29.814 29.814 29.814 29.814-13.348 29.814-29.814-13.348-29.814-29.814-29.814m0 54.314c-13.531 0-24.5-10.97-24.5-24.5s10.969-24.5 24.5-24.5 24.5 10.969 24.5 24.5-10.97 24.5-24.5 24.5"/></g><path fill="#a4abb3" d="m172.12 160.428-13.045.462 1.59 2.916c.887 1.654 1.871 3.354 2.435 4.409.715 2.028 3.32 3.26 5.558 3.553l.092.013a8 8 0 0 0 1.032.057zm88.188 7.396c-1.457.344-23.013 5.765-23.013 5.765l-2.446.446-.068.012-1.833.334-.013.002-2.654.74 1.915 10.356c.612-.367 6.516-3.895 7.159-3.929 6.954-.258 16.137-.194 24.438-1.225l.028-.004c4.183-.52 8.14-1.319 11.474-2.579 6.84-2.584 10.838-6.193 8.987-14.22-.028-.14-23.974 4.302-23.974 4.302"/><path fill="#8a9097" d="m218.32 182.041.441 2.03s1.679 1.148 2.506 1.765c.167.119 10.95-.376 10.95-.376v-.004l-1.936-10.334z"/><path fill="#43464a" d="M6.722 92.615h207.789v92.739H6.722z" opacity=".65"/></svg>