<svg xmlns="http://www.w3.org/2000/svg" viewBox="0 0 1600 900"><path fill="#006ead" d="M689.955 72.89h-2.914v51.056h194.625V72.89z"/><path fill="#4e5256" d="M599.334 193.7c-.081-.226-.156-.462-.236-.692s-.148-.428-.221-.648c-.255-.767-.5-1.545-.721-2.335-.015-.052-.029-.1-.043-.155a37 37 0 0 1-.626-2.638 31 31 0 0 1-.189-1.05l-.024-.146q-.09-.581-.153-1.152-.01-.11-.021-.22-.045-.468-.07-.927c0-.086-.011-.173-.014-.258a17 17 0 0 1-.013-1.08q-.001-.058.006-.117a14 14 0 0 1 .089-1.19q.052-.442.136-.864.01-.062.021-.123a9 9 0 0 1 .246-.91q.038-.116.08-.229a8 8 0 0 1 .278-.675c.031-.067.059-.135.093-.2a6.5 6.5 0 0 1 .452-.764c.034-.049.073-.094.108-.141q.082-.113.169-.222a102 102 0 0 1-6.567-3.24c.006-.112.018-.221.025-.333a53.8 53.8 0 0 0-1.152 17.5 13.821 13.821 0 1 0 3.854 27.1l.859-2.082c.231-1.5.493-3.006.8-4.5l3.349-16.326c-.169-.435-.329-.9-.493-1.358zm61.131 5.016a14.2 14.2 0 0 1-4.1.333l-.062.157c-1.142 2.8-2.45 5.7-3.935 8.588v.006c-4.429 8.613-5.138 9.494-5.138 9.494 6.55-4.117 11.62-11.21 15.1-18.983-.637.121-1.263.252-1.865.405m-48.946-11.603 3.782-4.72q-3.177-.626-6.53-1.627a46 46 0 0 1 2.748 6.347"/><path fill="#00629a" d="M587.766 415.328h-.776l-.508 3s-3.692-1.139-9.7-3h-.767l-6.044 26.464-45.694-10.17-6.279-1.4c-23.733 40.471-11.919 72.961-9.9 149.862.4 15.458-.7 28.209-5.179 37.269-35.063 70.886-26.533 89.994-42.354 185.542l16.084-4.737-.072-5.513 23.678-2.126 36.262-131.249s13.653-64.19 28.18-119.928c7.115-27.3 14.44-52.575 20.473-67.285 7.589-18.5 9.137-43.633 9.452-53.279z"/><path fill="#71767c" d="M709.465 413.968V437h.091v-23.1l-.019.015c-.024.023-.048.037-.072.053m0-5.135.091-.085v-21.621l-.091-.009zm0-47.649.091-.045v-71.123h36.619v38.399h16.856v-39.226h-53.566zm94.197-71.995v39.226h24.694v108.587h28.922V289.189z"/><path fill="#c1c7cc" d="M717.016 714.419h137.59v72.064h-137.59zm193.029-429.017-28.379 2.037-24.388 1.75v147.813l24.388 2.112 28.379 2.457 12.771 1.107V284.485z"/><path fill="#656a6f" d="M709.556 290.016v71.123l15.152-7.438 4.505 3.68-10.015 9.752 14.655-2.798v-35.92h12.322v-38.399zm7.551 106.113 1.841-6.948a24 24 0 0 1 .539-1.735 81 81 0 0 1-9.931-.319v21.621a26.16 26.16 0 0 0 7.551-12.619m16.746-12.748c-2.713 1.731-5.218 3.123-6.544 3.338-1.133.183-2.27.325-3.4.439a18.4 18.4 0 0 0-1.089 3.048l-1.84 6.948a29.8 29.8 0 0 1-11.419 16.752v23.923h36.619V437h-12.327z"/><path fill="#43464a" d="M803.662 328.415h-69.809v35.92l12.082-2.307-.033.444q.137-.037.273-.065a4.5 4.5 0 0 1 .945-.115c2.044 0 2.747-.845 5.117 3.654l7.833-6.341c4.867 8.626 4.666 16.882 0 24.81l-7.359-5.481c-1.226 2.776-3.271 4.6-5.591 4.6a4.5 4.5 0 0 1-.945-.114c-2.152-.47-3.982-2.508-5-5.362a15 15 0 0 1-1.988 1.715 138 138 0 0 1-5.339 3.611V437h94.5V328.415z"/><path fill="#9dc9ff" d="M626.256 236.727q.16-.282.3-.571a618 618 0 0 0 .822-7.662 38.1 38.1 0 0 1-10.7-3.22 68.7 68.7 0 0 0 9.578 11.453m-3.411 162.321 10.597-6.944-4.383-5.008-22.557 7.539-10.215 3.414-6.195-1.07-2.236 13.223-.806 4.766.716.36 6.856 3.45 18.886 9.505 4.657-11.307.285-.692 5.539-13.448-5.479-.947z"/><g fill="#e0e2e5"><path d="M576.011 415.328h.767l-.717-.222zm35.508-228.215.001.002zM586.99 415.328h.776l-.716-.36zm100.051-2.897v-22.392l-22.261 3.981c6.47 8.513 14.045 14.849 22.261 18.411M536.517 659.27l-36.264 131.252 5.133-.46-5.139 22.4h56.111l2.2-10.166 8.325-2.453c-.129-69.209-2.724-95.063 14.185-140.949 9.9-26.865-4.527-72.886-16.366-119.555-14.532 55.741-28.185 119.931-28.185 119.931"/><path d="M384.182 812.465h66.191l1.514-7.01 8.676-2.557c15.821-95.548 7.291-114.656 42.354-185.542 4.481-9.06 5.584-21.811 5.179-37.269-2.021-76.9-13.835-109.391 9.9-149.862l-24.867-5.534 12.678-31.565c-13.959-4.443-24.932-8.024-27.718-9.165l-.065-.027c-.348-.144-.525-.235-.514-.265l.053-.14a56 56 0 0 1 3.137-7q-.022.031-.046.064L523.766 265.1l1.989-5.144c6.664-14.48 16.205-19.588 28.627-18.334a38 38 0 0 1 5.574-.54l18.739-1.633 1.531-.183a37.4 37.4 0 0 1 9.215-12.508c.455.379.888.737 1.327 1.1l.981-2.378 3.092-7.5a13.822 13.822 0 1 1-3.854-27.1 53.8 53.8 0 0 1 1.152-17.5c1.184-20.417 17.725-36.141 37.1-35.18 19.483.967 34.451 18.434 33.43 39.014l-.142.034 23.2 22.554c-8.283-2.3-16.754-2.766-23.4-1.5-3.483 7.773-8.553 14.866-15.1 18.983 0 0 .709-.881 5.138-9.494-7.452 14.491-12.48 21.126-12.48 21.126a51.7 51.7 0 0 1-12.507-.432 618 618 0 0 1-.822 7.662 9 9 0 0 0 .428-1.042 32.8 32.8 0 0 1 3.594 7.976l.976-14.119 3.99.276-1.674 24.219 2.31 1.639 8.117 5.651.008.051c10.256 4.9 16.988 15.478 16.167 26.821l-2.546 20.191c.179.483.355.961.539 1.45 5.335 11.515 6.24 22.507-2.9 41.633-1.79 3.746-3.632 7.63-5.484 11.556l-.23 2.324q.332 1 .675 1.985l35.538-2.708.725 4.746h.251v-244.85H384.182z"/><path d="m660.4 394.8-13.77 2.463-.585 5.907 4.183.063c-.483 6.939-2.671 12-5.745 15.7l-3.823 38.593-12.86-2.861c.77 8.147 1.412 15.6 1.39 17.162l-6.277 180.994-14.924 134.45 4.062-.365-5.417 23.61-.335 1.949h80.74V416.757c-9.973-3.894-19.087-11.515-26.639-21.957m553.961-270.854H910.045v161.456l12.771-.917h16.411v158.193h-16.411l-12.771-1.107v370.894h305.773V123.946zm-451.33 165.243h40.631v39.226h-40.631z"/></g><path fill="#b2b9c0" d="M881.666 812.465h28.379V441.571l-28.379-2.457zm0-525.026 28.379-2.037V123.946h-28.379zm41.15-2.954h16.411v158.192h-16.411zM533.1 845.705c-4.7-3.484-10.538-4.7-15.583-7.574a27 27 0 0 1-3.455-2.417l-18.8 7.986-1.185-1.5 18.446-7.8a54 54 0 0 1-3.226-3.122l.184.2-18.057 7.369-1.384-1.749 17.99-7.187.187.2a53 53 0 0 1-2.948-3.563l-18.2 6.792-1.392-1.759 18.4-6.71a31 31 0 0 1-1.707-2.8l.072.147-18.264 4.1-2.262.508-1.47-1.857 6.175-1.272 15.034-3.1-2.038-4.845-.127.028-22.34 5.021-.206-.26-1.275-1.611 1.25-.272 21.92-4.756 1.138-.246.277-1.206 5.139-22.4-5.133.46-23.678 2.126.072 5.513-16.091 4.751-8.676 2.557-1.514 7.01-3.673 17.014c-.689 1.815-.737 7.924-.338 13.229 2.9 7.1 14.929 10.294 28.65 10.213 9.1-.054 18.811 8.982 26.255 9.6a64.6 64.6 0 0 0 24.538-3.136c.385-7.32 9.226-10.652 11.678-8.529a15.7 15.7 0 0 0-4.383-5.153m106.664-3.155c-4.7-3.484-10.538-4.7-15.583-7.574a27 27 0 0 1-3.455-2.417l-18.8 7.986-1.186-1.5 18.446-7.8a54 54 0 0 1-3.224-3.12l.182.2-18.056 7.37-1.385-1.749 17.991-7.187.186.2a53 53 0 0 1-2.947-3.562l-18.2 6.791-1.392-1.758 18.4-6.71a31 31 0 0 1-1.707-2.8l.072.147-18.264 4.105-2.262.508-1.47-1.858 6.175-1.271 15.035-3.1-2.039-4.845-.127.029-22.34 5.02-.206-.26-1.275-1.611 1.251-.271 14.07-3.053 7.849-1.7 1.138-.247 5.417-23.61-4.062.365-24.75 2.221.072 5.513-16.435 4.841-8.325 2.453-2.2 10.166-2.992 13.861c-.688 1.814-.737 7.924-.338 13.229 2.9 7.1 14.93 10.293 28.651 10.212 9.094-.053 18.81 8.982 26.254 9.6a64.7 64.7 0 0 0 24.538-3.136c.385-7.321 9.226-10.653 11.678-8.529a15.7 15.7 0 0 0-4.385-5.149"/><path fill="#8a9097" d="M537.483 850.859c-2.452-2.123-11.293 1.209-11.678 8.529a64.6 64.6 0 0 1-24.538 3.136c-7.444-.619-17.16-9.655-26.255-9.6-13.721.081-25.746-3.11-28.65-10.213q-.01-.02-.021-.041c-2.787 1.661-.036 10.334 1.71 12.568a9.8 9.8 0 0 0 3.877 2.512l3.493 1.177q1.052.287 2.074.506l3.539.531a16 16 0 0 0 2.13-.013l3.457-.445a37 37 0 0 1 5.647-.436c6.5 0 9.43 3.335 13.977 6.289l2.645 1.532q.749.383 1.574.734l3.349 1.139c.563.149 1.143.288 1.759.409l3.848.515.084.008q.9.068 1.8.113l3.787.111q.683.006 1.364 0l3.8-.1q.685-.033 1.366-.074l3.413-.261q.98-.092 1.939-.2l3.4-.436q.713-.105 1.408-.216l3.678-.673c5.728-1.175 9.943-2.7 11.151-4.038 3.321-3.684 3.322-10.938.872-13.064zm106.668-3.154c-2.452-2.124-11.293 1.208-11.678 8.529a64.7 64.7 0 0 1-24.538 3.136c-7.444-.62-17.16-9.655-26.254-9.6-13.721.081-25.747-3.109-28.651-10.212q-.01-.021-.021-.042c-2.787 1.662-.036 10.335 1.71 12.569a9.8 9.8 0 0 0 3.877 2.511l3.493 1.178q1.052.288 2.074.5l3.539.532a16 16 0 0 0 2.131-.013l3.456-.445a36.7 36.7 0 0 1 5.647-.436c6.5 0 9.43 3.335 13.977 6.288l2.645 1.533q.749.383 1.574.734l3.35 1.138c.562.149 1.142.288 1.758.409l3.848.516.084.008q.9.066 1.8.113l3.786.111h1.364l3.8-.1q.685-.031 1.366-.073l3.413-.261q.98-.092 1.939-.2l3.405-.437q.713-.104 1.408-.216l3.678-.672c5.728-1.176 9.943-2.7 11.151-4.038 3.318-3.68 3.318-10.934.869-13.06"/><path fill="#b8d6ff" d="m733.853 364.335-14.655 2.8 10.015-9.752-4.5-3.68-15.152 7.438-.091.045-15.553 7.635-3.957-.01-2.914-.007h-.251l.251 1.643 2.325 15.215.589-.119 4.8-.964a90.4 90.4 0 0 0 14.709 2.541l.091.009a81 81 0 0 0 9.931.319c2.133-6.12 6.189-9.305 10.83-12.935 1.144-.9 2.328-1.825 3.536-2.836.08-.067.157-.127.238-.195l.652-.551 5.649.6c.383-4.582 2.627-8.241 5.51-9.058l.033-.444zm2.159 10.751a116 116 0 0 1-2.159 1.734l-1.071.842c-3.955 3.093-7.018 5.488-8.878 9.5a57 57 0 0 0 3.4-.439c1.326-.215 3.831-1.607 6.544-3.338a138 138 0 0 0 5.339-3.611 15 15 0 0 0 1.988-1.715 14.4 14.4 0 0 1-.628-2.485zm-104.759 27.861-1.5-.023-5.769-.088-5.539 13.448-.285.692-4.657 11.307a46.7 46.7 0 0 0 9.151.246c.5-.033 1-.075 1.522-.126 6.622-.653 14.861-2.911 20.306-9.469 3.074-3.7 5.262-8.76 5.745-15.7l-4.183-.063zm-39.504-177.466-.981 2.378q2.038 1.689 3.859 3.162a95 95 0 0 1 .808-13.238q.123-.94.265-1.88l-.859 2.082zm32.376-41.981h.007a63.6 63.6 0 0 1-8.8-1.1l-.03-.006-3.782 4.72a46 46 0 0 0-2.747-6.345l-.042-.012a82 82 0 0 1-10.037-3.784h-.012a6 6 0 0 0-.169.222c-.035.047-.074.092-.108.141a6.5 6.5 0 0 0-.452.764c-.034.065-.062.133-.093.2-.1.218-.2.443-.278.675q-.041.113-.08.229a9 9 0 0 0-.246.91q-.01.06-.021.123a11 11 0 0 0-.166 1.139c-.029.3-.05.6-.059.915q.001.06-.006.117c-.008.354 0 .715.013 1.08 0 .085.009.172.014.258q.024.459.07.927.01.11.021.22.063.572.153 1.152.011.075.024.146a31 31 0 0 0 .235 1.278c.164.8.36 1.609.58 2.41l.043.155a50 50 0 0 0 .942 2.983c.08.23.155.466.236.692l.021.017c.164.455.324.923.493 1.358l.168-.819 1.205-5.878a3.62 3.62 0 0 1-1.318-2.775 3.731 3.731 0 0 1 7.461 0 3.66 3.66 0 0 1-2.172 3.322l-1.936 9.44-2.839 13.839q-.316 1.546-.57 3.1a91 91 0 0 0-1.152 18.959c14.5 11.377 16.648 10.874 16.347 11.16.041-.017 8.191-3.358 11.213-8.7a68.7 68.7 0 0 1-9.581-11.453 38.1 38.1 0 0 0 10.7 3.22 51.7 51.7 0 0 0 12.507.432s5.028-6.635 12.48-21.126v-.006a109 109 0 0 0 3.935-8.588l.062-.157c-7.043-.322-16.655-4.483-22.751-9.844z"/><path fill="#007bc0" d="M881.666 72.89h28.379v51.055h-28.379zM627.434 288.564l-2.668-.594 2.537 2.496zm30.491 19.255-.015.116c-10.89-29.183-13.707-47.181-13.707-47.181q.05.026.1.053l-.008-.051-8.117-5.651 7.251 37.019-12.048-2.681-.438 6.339 16.9 62.324q.771 2.846 1.654 5.584c.2-.411.391-.818.587-1.232 1.852-3.926 3.694-7.81 5.484-11.556 9.139-19.126 8.234-30.118 2.9-41.633a85 85 0 0 1-.543-1.45m-11.525 59.26q-1.315-3.861-2.421-7.926l-17.041-62.864h-.037l.008-.1-.183-.672-9.33-9.18-37.176-8.274c2.3 38.574 6.263 91.418 6.263 91.418l-4.841 21.2a470 470 0 0 1 8.713 4.76l-.262 1.547 6.2 1.07 10.215-3.414 22.557-7.539 4.383 5.008-10.6 6.944-4.335 2.841 5.479.947 5.769.088q1.457-2.746 3.111-5.914c3.7-7.1 8.075-15.681 12.728-25.228q.708-1.455 1.425-2.937l-.048-.139c-.196-.55-.391-1.089-.577-1.636M499.61 815.767l.36-2.095v-.001l-1.138.246-21.92 4.756-1.25.272 1.275 1.611.206.26 22.34-5.021zm2.753 6.31-.715-1.465-15.034 3.095-6.175 1.272 1.47 1.857 2.262-.508 18.264-4.104zm3.023 4.433-1.287-1.642-.029.01-18.399 6.71 1.392 1.759 18.203-6.792zm3.908 4.774q-.548-.575-1.08-1.166l-.187-.2-17.99 7.187 1.384 1.749 18.057-7.369zm3.226 3.122-18.446 7.797 1.185 1.497 18.801-7.986.064-.027-1.552-1.303zm93.756-21.795.025-.146.335-1.949v-.001l-1.138.247-7.849 1.703-14.07 3.053-1.251.271 1.275 1.611.206.26 22.34-5.02zm2.753 6.31-.714-1.465-15.035 3.096-6.175 1.271 1.47 1.858 2.262-.508 18.264-4.105zm3.024 4.434-1.288-1.643-.029.011-18.399 6.71 1.392 1.758 18.204-6.791zm3.909 4.776q-.548-.576-1.082-1.169l-.186-.2-17.994 7.186 1.385 1.749 18.056-7.37zm3.224 3.12-18.446 7.796 1.186 1.498 18.8-7.986.064-.027-1.552-1.303zm10.056-693.037c-19.378-.961-35.919 14.763-37.1 35.18-.007.112-.019.221-.025.333a102 102 0 0 0 6.567 3.24h.012a82 82 0 0 0 10.037 3.784l.042.012q3.357 1.008 6.53 1.627l.03.006a63.6 63.6 0 0 0 8.8 1.1c5.625-1.665 11-3.253 15.97-4.515a104 104 0 0 1 10.176-2.131q2.211-.328 4.212-.451c.2-.012.412-.03.612-.039a20.3 20.3 0 0 1 7.32.792l.108.1.142-.034c1.018-20.57-13.95-38.037-33.433-39.004"/><path fill="#a4abb3" d="m662.53 177.262-.108-.1a20.3 20.3 0 0 0-7.32-.792c-.2.009-.409.027-.612.039q-2 .12-4.212.451a104 104 0 0 0-10.176 2.131c-4.967 1.262-10.345 2.85-15.97 4.515h-.007l9.488 5.7c6.1 5.361 15.708 9.522 22.751 9.844a14.2 14.2 0 0 0 4.1-.333 31 31 0 0 1 1.864-.405c6.645-1.261 15.116-.793 23.4 1.5z"/><path fill="#eff1f2" d="m636.179 255.105-2.31-1.639-.002.03-2.485 35.947 12.048 2.681zm-37.022 3.636L595 254.467l-10.677-10.987-3.869-3.981-.228-.233-1.531.183c-.006.067-.01.155-.015.229-.3 4.346.421 19.678 1.538 38.378l37.182 8.274-4.532-4.459c-5.953-5.852-10.595-13.901-13.711-23.13m23.355 1.642-6.375-12.762-1.1-2.194c-.651.618-1.326 1.3-2.009 2.012-2.779 2.905-5.718 6.439-7.928 9.2-.646.807-1.227 1.545-1.725 2.184 2.9 8.049 7.054 15.045 12.289 20.2l9.1 8.951 2.668.594 2.321-33.578-5.155 9.575zm-7.47-14.957-.001.001z"/><path fill="#d0d4d8" d="M828.356 437h-82.181v.827h-36.619V437h-.091v-23.032a23.82 23.82 0 0 1-13.732 4.569 22 22 0 0 1-5.778-.788 23 23 0 0 1-1.668-.517c-.417-.149-.832-.314-1.246-.475v395.708h194.625V439.114L857.278 437zm26.25 349.481h-137.59v-72.062h137.59zM689.955 123.946h-2.914v244.856l2.914.007 3.957.01 15.553-7.635v-71.995h147.813l24.388-1.75V123.946zm0 289.623c5.82 1.965 11.786.962 17.273-2.915a24 24 0 0 0 2.237-1.821v-21.715a90.4 90.4 0 0 1-14.709-2.541l-4.8.964-.589.119.589 3.858-2.914.521v22.392c.857.371 1.719.723 2.59 1.033q.16.053.323.105m-63.4-177.413a9 9 0 0 1-.3.571c-3.022 5.341-11.172 8.682-11.213 8.7.3-.286-1.846.217-16.347-11.16q.085 1.961.253 3.9.2 2.271.508 4.5a82 82 0 0 0 2.991 13.4q.442 1.4.932 2.755c.5-.639 1.079-1.377 1.725-2.184 2.21-2.761 5.149-6.3 7.928-9.2a59 59 0 0 1 2.009-2.012l1.1 2.194 6.375 12.762 2.088 4.178 5.155-9.575.287-4.153v-.079l.53-7.664a32.8 32.8 0 0 0-3.594-7.976 9 9 0 0 1-.427 1.043m-31.199 5.787q-.4-3.23-.585-6.529-.121-2.187-.144-4.393-1.822-1.476-3.859-3.162l-1.327-1.1a37.4 37.4 0 0 0-9.215 12.508l.228.233 3.869 3.981L595 254.467l4.155 4.274q-.6-1.783-1.13-3.623a88 88 0 0 1-2.669-13.175"/><g fill="#0096e8"><path d="M384.182 72.89h302.859v51.055H384.182zm525.863 0h305.774v51.055H910.045z"/><rect width="34.017" x="482.458" y="408.907"/></g><path fill="#001d33" d="m689.366 385.66-2.325-15.215-.251-1.643-.725-4.746-35.538 2.708q.345.982.7 1.952a100.9 100.9 0 0 0 11.395 22.316 81 81 0 0 0 2.158 2.988l22.261-3.981 2.914-.521zm-40.415-11.782-2.012 20.305-.3 3.082L660.4 394.8a87 87 0 0 1-2.015-2.919 103.6 103.6 0 0 1-9.434-18.003M493.127 424.69l24.867 5.534 6.279 1.4 4.521-16.294 3.815-13.749c-9.267-2.9-18.555-5.829-26.8-8.454zm42.222-84.05a322 322 0 0 1-15.44 22.554c5.312 1.575 11.115 3.7 17.04 6.1q2.063.839 4.14 1.719l15.726-56.675.523-14.405.21-5.812c-.075.253-.157.506-.234.759-4.948 16.162-13.736 32.553-21.965 45.76"/><path fill="#002742" d="m528.794 415.328-4.521 16.294 45.694 10.17 6.044-26.464.05-.222c-10.278-3.183-26.82-8.316-43.452-13.527zm51.425-137.272c-1.117-18.7-1.842-34.032-1.538-38.378 0-.074.009-.162.015-.229l-18.739 1.633a38 38 0 0 0-5.574.54q.538.053 1.082.123l.164.315.413.792.01.019c.37.71.7 1.447 1.027 2.187a43 43 0 0 1 2.041 5.749c3.659 13.066 2.152 28.542-.053 37.711q-.672 2.792-1.518 5.608l-.21 5.812-.523 14.405-15.726 56.675c5.616 2.382 11.259 4.961 16.621 7.523 9.412 4.5 17.949 8.933 23.931 12.131l4.841-21.2s-3.962-52.842-6.264-91.416"/><path fill="#003253" d="M644.3 260.807q-.052-.027-.1-.053s2.817 18 13.707 47.181l.015-.116 2.546-20.191c.824-11.343-5.908-21.92-16.168-26.821M624.181 428.4q-.777.077-1.522.126l2.281 25.5 2.862.638 12.862 2.862 3.823-38.593c-5.445 6.559-13.687 8.817-20.306 9.467m25.313-64.71v.008q.175.543.355 1.081l.23-2.324c-.194.417-.389.824-.585 1.235m-2.472 5.155q-.716 1.482-1.425 2.937a1039 1039 0 0 1-12.728 25.228q-1.65 3.161-3.111 5.914l1.5.023 14.8.225.585-5.907.3-3.082 2.012-20.305q-1-2.435-1.9-4.967zm-89.312 9.696c-5.362-2.562-11-5.141-16.621-7.523q-2.076-.879-4.14-1.719c-5.925-2.409-11.728-4.53-17.04-6.1-.184.246-.373.5-.547.728-.585-.085-1.16-.148-1.739-.22-15.718-1.955-29.066.993-36.925 12.824a56 56 0 0 0-3.137 7l-.053.14c-.011.03.166.121.514.265l.065.027c2.786 1.141 13.759 4.722 27.718 9.165 8.249 2.625 17.537 5.55 26.8 8.454a14302 14302 0 0 0 43.452 13.527l.717.222c6.012 1.861 9.7 3 9.7 3l.508-3 .06-.36.806-4.766 2.236-13.223.262-1.547s-3.321-1.877-8.713-4.76a594 594 0 0 0-23.923-12.134"/><path fill="#004975" d="m627.8 454.665-2.862-.638-2.281-25.5a46.7 46.7 0 0 1-9.151-.246l-18.886-9.5c-.315 9.646-1.863 34.777-9.452 53.279-6.033 14.71-13.358 39.984-20.473 67.285 11.839 46.669 26.265 92.69 16.366 119.555-16.909 45.886-14.314 71.74-14.185 140.949l16.435-4.841-.072-5.513 24.75-2.221 14.924-134.45 6.277-180.994c.024-1.568-.618-9.018-1.39-17.165m-70.722-209.607a37 37 0 0 0-1.027-2.187l-.01-.019-.413-.792-.164-.315a38 38 0 0 0-1.082-.123c-12.422-1.254-21.963 3.854-28.627 18.334l-1.989 5.144-43.114 111.49q.024-.033.046-.064c7.859-11.831 21.207-14.779 36.925-12.824.579.072 1.154.135 1.739.22l.547-.728a323 323 0 0 0 15.44-22.554c8.229-13.207 17.017-29.6 21.965-45.755.077-.253.159-.506.234-.759q.841-2.812 1.518-5.608c2.2-9.169 3.712-24.645.053-37.711a43 43 0 0 0-2.041-5.749"/><path fill="#2e3033" d="m760.07 359.605-7.833 6.341c-2.37-4.5-3.073-3.654-5.117-3.654a4.5 4.5 0 0 0-.945.115q-.136.028-.273.065c-2.883.817-5.127 4.476-5.51 9.058l-5.649-.6-.652.551c-.081.068-.158.128-.238.195a136 136 0 0 1-3.536 2.836c-4.641 3.63-8.7 6.815-10.83 12.935a24 24 0 0 0-.539 1.735l-1.841 6.948a26.16 26.16 0 0 1-7.551 12.619l-.091.085a24 24 0 0 1-2.237 1.821c-5.487 3.877-11.453 4.88-17.273 2.915-.108-.036-.216-.066-.324-.105a42 42 0 0 1-2.59-1.033c-8.216-3.562-15.791-9.9-22.261-18.411a81 81 0 0 1-2.158-2.988 100.9 100.9 0 0 1-11.395-22.316q-.357-.967-.7-1.952t-.675-1.985q-.18-.537-.355-1.081v-.008q-.879-2.74-1.654-5.584l-16.9-62.324.438-6.339 2.485-35.947v-.03l1.674-24.219-3.99-.276-.976 14.119-.53 7.664v.079l-.287 4.153-2.321 33.578-.131 1.9-2.537-2.5-9.1-8.951c-5.235-5.151-9.389-12.147-12.289-20.2q-.489-1.359-.932-2.755a82 82 0 0 1-2.991-13.4q-.309-2.231-.508-4.5-.169-1.938-.253-3.9a91 91 0 0 1 1.152-18.959c.173-1.036.359-2.07.57-3.1l2.839-13.839 1.936-9.44a3.66 3.66 0 0 0 2.172-3.322 3.731 3.731 0 0 0-7.461 0 3.62 3.62 0 0 0 1.318 2.775l-1.205 5.878-.168.819L596.5 211.4a93 93 0 0 0-.8 4.5c-.1.626-.182 1.253-.265 1.88a95 95 0 0 0-.808 13.238q.021 2.207.144 4.393.182 3.3.585 6.529a88 88 0 0 0 2.671 13.175q.525 1.839 1.13 3.623c3.116 9.229 7.758 17.278 13.706 23.13l4.532 4.459 9.33 9.18.183.672-.008.1h.037l17.041 62.864q1.1 4.063 2.421 7.926c.187.547.382 1.086.575 1.627l.048.139.024.066q.907 2.532 1.9 4.967a103.6 103.6 0 0 0 9.438 18 87 87 0 0 0 2.015 2.919c7.548 10.44 16.662 18.061 26.637 21.955.414.161.829.326 1.246.475.553.2 1.11.365 1.668.517a22 22 0 0 0 5.778.788 23.82 23.82 0 0 0 13.732-4.569q.036-.023.072-.047l.019-.015a29.8 29.8 0 0 0 11.419-16.752l1.84-6.948a18.4 18.4 0 0 1 1.089-3.048c1.86-4.008 4.923-6.4 8.878-9.5l1.071-.842a116 116 0 0 0 2.159-1.734l4.54.484a14.4 14.4 0 0 0 .628 2.485c1.013 2.854 2.843 4.892 5 5.362a4.5 4.5 0 0 0 .945.114c2.32 0 4.365-1.821 5.591-4.6l7.359 5.481c4.666-7.906 4.867-16.162 0-24.788"/></svg>