<svg xmlns="http://www.w3.org/2000/svg" data-name="Ebene 1" viewBox="0 0 340.767 967.423"><path fill="none" d="m156.555 233.906-.063.116s-1.207-3.612-2.824-8.904c1.396 4.41 2.52 7.696 2.887 8.788m31.379-120.564c0 .01-.01.01-.01.02-.02 0-.04 0-.06.01.02-.02.04-.02.07-.03"/><path fill="#8a9097" d="M188.053 113.342c-4.09 4.12-8.64 7.76-13.51 10.92l-.15.02-2.18.32c.29-3.35.66-6.7 1.02-9.87.95.05 1.91.08 2.87.08 3.94 0 7.88-.48 11.71-1.43.01-.01.03-.02.05-.01.02-.01.04-.01.06-.01.04-.01.09-.01.13-.02"/><path fill="#003253" d="M236.429 44.16c-1.323 12.37-20.297 46.4-23.216 51.136l-2.436-5.303c5.597-8.127 16.664-26.008 10.269-33.022-5.292-5.786-11.697 2.341-15.55 9.04a9.35 9.35 0 0 0-1.376-4.861c-3.35-5.691-14.017-9.345-7.203-28.54 0 0-.168.127-.504.347l-.105.074h-.01c-.032.02-.074.052-.116.084-2.835 1.827-13.492 8.053-24.14 5.176-12.442-3.36-14.731-6.804-19.193-4.578-4.274 1.607-10.175 9.513-10.28 9.67l-.01.011c-.021.032-.032.305-.042.767-.011 1.386.083 4.557.44 8.862-7.759-8.988-6.32-19.278-4.283-25.452.01-.19.01-.378.01-.567.095-8.022-7.518-20.412 1.008-24.675 9.093-4.568 21.745-1.218 33.159 0 11.424 1.218 25.106-5.597 37.537 4.567 12.443 10.154 12.443 18.07 12.443 18.07s14.71 8.852 13.598 19.195z"/><path fill="#a4abb3" d="m213.314 95.512 4.11 22.72-42.88 6.03c4.87-3.16 9.42-6.8 13.51-10.92-.04.01-.09.01-.13.02 0-.01.01-.01.01-.02-.03.01-.05.01-.07.03-.02-.01-.04 0-.05.01-3.83.95-7.77 1.43-11.71 1.43-.96 0-1.92-.03-2.87-.08h-.13a69.4 69.4 0 0 1-15.59-2.79s-4.47-9.56-9.85-29.46c-2.47-9.5-4.03-19.22-4.67-29.02-.01-.15-.03-.29-.04-.44.04.04.07.09.11.13-.33-3.01-.48-6.03-.49-9.05 0-.24-.01-.48 0-.72.1-.16 6-8.06 10.27-9.67 4.47-2.22 6.76 1.22 19.2 4.58 10.65 2.88 21.3-3.35 24.14-5.18.04-.03.08-.06.11-.08h.01l.11-.07c.34-.22.5-.35.5-.35-6.81 19.19 3.86 22.85 7.21 28.54a9.37 9.37 0 0 1 1.37 4.86c3.86-6.7 10.26-14.83 15.55-9.04 6.4 7.01-4.67 24.89-10.27 33.02l2.44 5.3z"/><path fill="#a4abb3" d="M143.063 53.149a1 1 0 0 1-.105-.126c-.358-4.305-.452-7.476-.441-8.862.02-.021.031-.042.052-.063.01 3.024.168 6.048.494 9.05z"/><path fill="#a4abb3" d="M142.569 43.384c-.01.241 0 .483 0 .714-.021.02-.031.042-.052.063.01-.462.02-.735.042-.767z"/><path fill="#8a9097" d="M106.848 424.04h.483L65.52 487.838s-2.846 28.287-16.348 51.135c-1.827 3.15-10.563 9.345-17.777 14.018a24.48 24.48 0 0 1-20.727 2.94L.095 552.686l23.898-37.936-21.053 9.502L0 515.107l41.548-37.905 47.807-124.72 22.932 6.962z"/><path fill="#00629a" d="m123.591 336.928-1.53 16.517-9.774 6-22.932-6.962-7.098-2.163 17.714-109.284z"/><path fill="#c1c7cc" d="m339.036 952.083-35.058-26.492h-40.317l-3.23 41.832h70.576a9.784 9.784 0 0 0 8.03-15.34zM126.608 927.06l-73.873 27.054.193.304a35.93 35.93 0 0 0 27.64 13.005h105.32l-8.247-40.202h-51.026l-.007-.162z"/><path fill="#001d33" d="M202.43 927.221h-24.791l-.042-.22c-17.472-.21-38.997.493-47.334 0h-3.192v-.116l-.462.179-10.153-246.866-7.76-256.158 3.941-9.561h36.207l.676 9.561c.441 13.325 16.068 31.414 22.022 54.273 7.55 28.938 29.942 85.158 19.37 116.871-.772 2.317-2.353 4.521-1.776 6.82-7.927 35.46-12.747 58.108-6.625 100.433 16.254 112.298 17.472 57.572 19.919 224.784"/><path fill="#001d33" d="M130.263 927h-3.192v-.11l-.463.17.007.161h51.026l-.046-.22c-17.468-.208-38.999.497-47.332 0z"/><path fill="#003253" d="M329.018 925.594h-25.043l-.294-.22h-40.005l-.01.22h-1.691l-42.451-227.62s-15.53-36.96-30.387-95.97a979 979 0 0 1-1.733-6.992c-9.933-40.824-22.302-77.06-29.851-105.998-5.954-22.858-7.592-51.65-8.033-64.974l-.676-7.671 66.937 1.245 10.306-.453 22.2-1.812 8.826 8.702c-.041 21.63-.041 42.661-.031 58.737v14.217l-.115.588-33.118 41.034 5.146 8.505 20.117-12.747-3.244 16.296-15.141 31.888c15.414 2.71 28.308.389 39.302-6.72-.231 8.232-.483 17.168-.725 26.964-.515 19.499 59.714 110.733 59.714 322.78z"/><path fill="#003253" d="M303.975 925.594h-40.31l.011-.22h40.005z"/><path fill="#007bc0" d="m236.555 140.981-.336.2c-1.638.819-6.552 3.496-13.146 8.221a158 158 0 0 0-7.991 6.132 158.6 158.6 0 0 0-18.07 17.43c-.253.294-.515.588-.767.882a1 1 0 0 1-.115.126c-.21.263-.442.525-.662.798-.157.179-.305.357-.462.546-.105.137-.22.263-.326.4-.262.314-.514.63-.776.955-.169.2-.336.41-.494.609-.64.819-1.302 1.67-1.974 2.54q-.01.011-.01.022c-.095.115-.179.23-.273.357-.053.063-.095.126-.137.178a448 448 0 0 0-2.446 3.276q-.221.33-.473.662c-14.9 20.611-31.395 49.99-31.395 49.99s-.053-.147-.147-.399c-.042.074-.063.116-.063.116s-1.208-3.612-2.824-8.904c-.085-.273-.169-.536-.252-.82-2.688-8.557-6.269-20.852-7.592-29.704-2.971-19.929-1.575-45.832-1.512-47.04l-17.84 10.763a62.46 62.46 0 0 0-29.987 58.674l3.486 24.045 14.09 97.324-.871 10.416-.903 10.668-5.439 64.596h1.848l128.173-.046 3.55-29.879-2.332-152.134c-.671-5.985-1.323-11.855-1.984-17.556-3.066-28.067 7.676-67.484 30.103-64.953a39 39 0 0 1 2.835.44l-32.487-18.93z"/><path fill="#d1e4ff" d="M152.355 220.75c-.346-1.197-.714-2.447-1.071-3.728.367 1.281.725 2.53 1.071 3.728"/><path fill="#e8f1ff" d="m221.793 131.832-4.36-13.57-.01-.03-42.88 6.03-.15.02-2.18.32-3.02.42-2.17 3.78 4.26 1.24 4.93 1.42 21.44-6.2v24.79l-21.44-6.2-6.8 1.96-14.62 4.24v-9.29l-10.47 6.73s-.01.03-.01.06c-.06 1.21-1.46 27.11 1.51 47.04 1.32 8.85 4.9 21.15 7.59 29.71.09.28.17.54.25.82 1.4 4.41 2.52 7.69 2.89 8.78.38-.65 2.33-4.05 5.29-9.01.33-.55.68-1.13 1.02-1.72 1.68-2.78 3.61-5.97 5.72-9.38.53-.85 1.06-1.73 1.62-2.6.67-1.08 1.37-2.18 2.07-3.29.39-.62.79-1.24 1.19-1.87q1.335-2.115 2.73-4.26c.53-.82 1.07-1.65 1.61-2.47 1.16-1.77 2.32-3.52 3.5-5.26.47-.72.96-1.41 1.44-2.11 1.49-2.19 2.98-4.33 4.46-6.39.29-.41.59-.82.89-1.23q.255-.33.48-.66c.83-1.12 1.64-2.21 2.44-3.27.04-.06.09-.12.14-.18.09-.13.18-.24.27-.36q0-.01.01-.02c.67-.87 1.34-1.72 1.98-2.54.15-.2.32-.41.49-.61l.24-.3c.08-.11.16-.21.24-.31.05-.06.1-.12.15-.17l.15-.18c.1-.13.22-.26.32-.4.16-.18.31-.36.46-.54.04-.05.08-.09.11-.14.09-.11.19-.22.28-.33.1-.11.19-.22.28-.33.04-.04.08-.08.11-.13.25-.29.52-.58.77-.88a158.4 158.4 0 0 1 18.07-17.43 153 153 0 0 1 7.99-6.13l-.01-.06c4.29-3.04 8.75-5.87 13.37-8.44l.12.08.04-.02zm-70.51 85.19c.37 1.28.73 2.53 1.07 3.73-.34-1.2-.71-2.45-1.07-3.73"/><path fill="#d1e4ff" d="M152.355 220.75c-.346-1.197-.714-2.447-1.071-3.728.367 1.281.725 2.53 1.071 3.728m35.742-36.435c-14.9 20.611-31.395 49.99-31.395 49.99s-.053-.147-.147-.399c.378-.65 2.331-4.053 5.292-9.02.326-.545.672-1.123 1.019-1.71a1013 1013 0 0 1 5.722-9.388c.525-.85 1.06-1.722 1.617-2.593a506 506 0 0 1 2.069-3.297c.388-.62.787-1.24 1.186-1.87a563 563 0 0 1 2.73-4.252c.536-.83 1.071-1.659 1.617-2.478a457 457 0 0 1 3.497-5.26c.472-.714.955-1.407 1.438-2.11a318 318 0 0 1 4.463-6.385c.294-.41.588-.819.892-1.228m6.583-8.6c-.262.315-.514.63-.776.956.157-.2.325-.41.483-.61.094-.115.188-.23.294-.346zm1.45-1.743c-.21.263-.442.525-.662.798a.7.7 0 0 1 .105-.136c.189-.22.368-.441.557-.662m40.425-32.991-.336.2c-1.638.819-6.552 3.496-13.146 8.221l-.011-.063c4.295-3.034 8.747-5.87 13.367-8.442z"/><path fill="#00629a" d="M257.334 366.227c-.115 17.357-.178 37.548-.22 57.278v.546H224.27v-.01h.052c.207-8.82 13.765-182.06 13.765-182.06.274 2.436.557 4.903.84 7.37.494 4.295.998 8.621 1.523 12.979 6.069 51.744 12.737 104.548 12.737 104.548l4.147-.65z"/><path fill="#001d33" d="M197.652 125.263v24.79l-21.441-6.205-6.793 1.963-14.627 4.242v-24.79l12.233 3.538 4.263 1.24 4.924 1.417z"/><path fill="#a4abb3" d="M289.002 546.554c0 4.662-.304 8.652-1.081 11.33l-17.294-2.961-24.759-4.242 3.244-16.296-20.117 12.747-5.146-8.505 33.118-41.034.115-.588v-14.217c-.01-16.076-.01-37.107.031-58.737h.148a10 10 0 0 0-.148-.546c.043-19.73.106-39.921.221-57.278l14.416-2.33 40.93-6.616c5.785 42.61-16.496 98.68-27.647 141.246-.546 2.016 3.969 30.051 3.969 48.027"/><path fill="#a4abb3" d="M257.26 424.05h-.147v-.545c.053.178.106.367.148.546z"/><path fill="#d1e4ff" d="m328.839 354.709-15.939 2.54-.22.032-40.93 6.615-14.416 2.331-4.147.651s-6.668-52.804-12.737-104.548c-.525-4.358-1.029-8.684-1.522-12.978a2511 2511 0 0 1-.84-7.371c-.672-5.985-1.324-11.855-1.985-17.556-3.066-28.067 7.676-67.484 30.104-64.953a39 39 0 0 1 2.835.44c15.109 3.004 22.512 15.824 28.402 40.1z"/><path fill="#8a9097" d="M287.92 557.884c-5.365 7.686-11.287 13.692-17.891 17.965-10.994 7.109-23.888 9.43-39.302 6.72l15.141-31.888 24.759 4.242z"/></svg>