<svg xmlns="http://www.w3.org/2000/svg" viewBox="0 0 257.2 599.8"><g data-name="Ebene_1"><path fill="#bfc0c2" d="M65.5 302.6c10.5 1 22 2.8 35.2-2.8l-1.1-37c-14.7 3.4-15 10.5-23.5 13.6l-25-34.5-17-16.9v22z"/><path fill="#525f6b" d="m41.1 267.8 23.5-11.3c-10.7-10-10.3-13.3-10.3-13.3l3.938-19.839-30.25-.502L31.6 245.1s2.5 9.1 9.6 22.7zm11.4-125.5 11.1-10.7s2.2-1.2 3.6 2.3c.8 2.1-17.9 21.4-17.9 21.4z"/><path fill="#002c50" d="m102 546 5.9-7.1-.9-9.7 2.1-8.3 1.2-28.2-6-49.9c-.8-3 1.8-8.7 1.8-8.7s18.2-22.5 24.8-29.8c21-23.2 41.3-80.1 19.2-69.4-15.5 3.8-56.5 20-56.5 20s-11.1 25.4-15.1 34.3c-16.3 36.6-20.6 56.3-20.6 56.3l13.6 67.1-2.4 6.9 4.6 6.3-4.3 18.7-1.9 13.2 34.6-11.6z"/><path fill="#005691" d="M144.8 430.4c14.8 31.7 18.2 42.7 18.2 42.7l29.5 27.5 4 14.2 15.5 20.4s40.9 29.2 40.6 24l-24.1-64.4s-20.8-36-25.5-43.7c-3.9-6.5-9.8-36.2-11.3-40.4-5.4-14.7-12.6-48.4-25.6-77.2l-11.9 1.1-47.8 18.2c5.7 23.9 12 30.3 18.7 44.3"/><path fill="#003b6a" d="m153.7 346.2-1.7-98.3 6.3-20.1-4-4.2-20.4-4.6-24.7.9-23 14.1c-9.7 6.4 5 126.7 5 126.7"/><path fill="#002c50" d="m170.9 346.2-9.1-47.2s3.3-45.1 1.9-60.7c-.9-9.4-9.4-14.7-9.4-14.7l-9.8 10.9 9.3 111.7H171z"/><path fill="#bfc0c3" d="m104 231.4 29.8-12.3v-8.3l.8-5.7.3-1.1c4.3-1.2 16.3-5.1 15.4-10.6-.7-4.2-7.3-2.5-12-.7.1-.4.3-.7.4-1 1.9-4 9.6-14 9.6-14s-5.9-10.7-16.7-15c-5-2-13 1.2-15.4-1.6-3.7 5.3-7.1 10.8-10.1 16.5-.8 1.6-1.5 3.3-2.2 5-4.1 10.6-5.1 16.2-5.1 16.2 2.1 2.3 4.4 4.3 7 6 2.6 1.8 5.5 3.2 8.6 4.1-4.5 1.1-4.1.3-8.5.1l-.4 3.1c-.8 5.7-1.4 19.4-1.4 19.4z"/><path fill="#bfc0c3" d="M117.7 208.9c-3.7-.3-6.8-1.2-11.5-3.9-.3 2.3-.6 5.1-.9 7.4 4.9-1.7 6.8-2.2 12.4-3.6z"/><path fill="#525f6b" d="M160.5 192.6c4.1-4 0-12.1 0-12.1s2.7-3.3.2-11.3-11.3-9.2-16.4-13-8.7-7.4-14.5-8.2c-5.6-.8-7.5 5-10.2 8.4-.2.2-.3.4-.5.6-2.1 2.2-3.7 4.9-4.7 7.8 0 0 .5-.1 1.3-.3 2-.5 6-1.3 8.2-1 2.9.4 2.9 2.5 7.7 7.6s13.9 5 13.9 5c-9.8 6.1-5.9 10.8-6.2 14.2 0 .9-.4 1.7-1 2.5 4.1-1.6 10-3.1 10.6.8.7 4.9-10.7 9.1-16.1 10.8l-.7 3.1s23.4-9.7 28.6-14.8z"/><path fill="#005691" d="m104.2 252.2 38.7 1.6c11.2 1.3 17.3-3.2 21.2-11 3.9-12.6-10.8-21.8-18.5-23.3-15.3-3-30-5.1-30-5.1v.5c-.1 0-9.9 32.5-9.9 32.5l-1.5 4.9z"/><path fill="#525f6b" d="M99.3 195.9s5.9 4 19.2 3.9c13.3 0 17.8-5 17.8-5l2.5-2.7s-6.3 18.1-19.6 17.3-19.5 4.2-21.1-1.3c-1.5-5-1.1-5.8-.9-7.4.2-1.8 1-3.5 2.2-4.9z"/><path fill="#ed0007" d="m118.3 229.6 3.3 1-4.2 14.3-3.3-1z"/><circle cx="121.5" cy="225.4" r="2.5" fill="#bfc0c2"/><path fill="#eff1f2" d="M145.4 183.8s-20.5-6-26.7-11.8c-3.7-3.8-6-11.9-6-11.9-1.5 2.7-2.8 5.6-4 8.4-.9 2.8 1.1 7 2.7 7.8s3-2.7 4.5-1.5-.2 3 .8 6.1 12.6 4.7 13.7 4.5 4.1-2.3 4.1-2.3l9.8 2.2z"/><path fill="#003b6a" d="M147.3 143c-2.9-.3-10.4-.3-15.3 2.1-.4.2-.9.2-1.4 0-.4-.2-.7-.7-.6-1.2.2-.8.7-1.4 1.4-1.7 6.1-3.2 13.5-3.2 17.1-1.9.7.4 1.2 1.2 1.1 2-.2.6-1.2.8-2.4.8zm-25.7 10s15.5 25.2 36.4 41.6c0 0-23.4-10.9-28.5-14.6-6.4-4.7-16.2-14.7-18-21.2-1.4-5.1-.7-10 11-7.1.3 0-.9 1.3-.9 1.3"/><path fill="#005691" d="M173.1 165.2c-1.1-6.7-4.8-12.6-10.3-16.6 0 0-6.9-6-15.7-6.7-3.6-.3-15.3-2.5-25.4 11.2 0 0-1 12.5 21.7 29.4l14.7 12.3s16.8-11.7 15.1-29.5z"/><path fill="#003b6a" d="M171.7 160.4s-23.8-13.2-44.1 6.5c-1.8 1.2-3.3-4.7-3.3-4.7 13.6-16.1 35-13.2 44-8.3 6.5 3.6 3.4 6.6 3.4 6.6zm-8.6 12.5c-4.1-.8-12-1.6-18.4 1.7-.6.3-1.3.3-1.9 0-.7-.3-1.1-1-1-1.7 0-1.1.7-2 1.7-2.4 8.7-3.5 16.5-3.8 20.8-1.5 1 .5 1.5 1.7 1 2.7-.4.9-1.3 1.3-2.3 1.1zm-1.7 242.8 29.4-7.1c4.4-18.7-8.9-40.2-15-48.5l-29.6 8.8s4.9 28 15.1 46.9z"/><path fill="#005691" d="m154.3 380.5 30-9.6-8.7-11-29.3 9z"/><path fill="#bfc0c3" d="m114.8 175.1-8.5 1c-.6 0-1.1.2-1.4.7-.8.8-.8 2.2 0 3.1 1 1.4 11.4 7.6 11.4 7.6l-1.7-5.8.3-6.5z"/><path fill="#003b6a" d="M106.7 176.2s6.6 14.8 12.8 15.8c.4 0 14.8-.8 20.2-.8h2.9l-2.9.9s-18.2 1.1-19.7 2.2c-12.3 9.5-22.7 6.5-22.7 6.5-1-3.1-1.6-6.4-1.7-9.7.3-9.3 8.2-16 11.2-15.1z"/><path fill="#3e4750" d="m103.6 546.5-31.9-9.4-9.2 21.9 18.3 6 27.2 1.5-4.3-20.1z"/><path fill="#3e4750" d="m83.2 535.9-23.8-2.1 5.2 22.5 18.3 6z"/><path fill="#3e4750" d="M65.2 594.9c-6.4 2.2-30.4 1.8-32.7-2-2.6-4.3 0-10.2 3.9-13.1s8.7-3.9 12.9-6.3c4.5-2.5 11-9.5 13.1-14.5 16.2 4.9 28.9 2 45.1 6.9 1.4.4.8 16.1-.7 18.3-1.9 2.8-7.8 3-10.8 3.6-4 .9-9.7-1.8-14.6-.7-6.1 1.4-11.4 6.2-16.3 7.8z"/><path fill="#2f353c" d="M32.8 584c2-1.8 9.3 1 9.7 7 6.5 2.2 13.4 3 20.3 2.6 6.1-.5 14.2-8 21.7-7.9 11.4 0 21.3-2.6 23.7-8.5 2.3 1.4 0 8.5-1.4 10.4-.9.9-2 1.6-3.2 2.1l-2.9 1c-.6.2-1.2.3-1.7.4l-2.9.4h-1.8l-2.8-.4c-1.5-.2-3.1-.4-4.7-.4-5.4 0-7.8 2.8-11.6 5.2l-2.2 1.3c-.4.2-.8.4-1.3.6l-2.8.9c-.5.1-1 .2-1.4.3l-3.2.4h-8.9l-1.1-.1-2.8-.2-1.6-.2-2.8-.3-1.2-.2-3-.5c-4.7-1-8.2-2.2-9.2-3.3-2.8-3-2.8-9-.8-10.8z"/><path fill="#bfc0c2" d="m83.9 557.7-20.1-4.4.3 1.7 18.6 4.2zm-3.9 4.9L62.5 559l-.7 1.3 17 3.8zm-4.4 5.5-15.2-5.5-1.1 1.4 15.1 5.7 1.2-1.5zm-3.6 4.6-14.9-5.9-1.2 1.3 14.9 6.1 1.1-1.4zm-3.3 4.2-15.3-6.5-1.3 1.1 15.6 6.6z"/><path fill="#3e4750" d="m251.6 546.4-31.9-9.4-9.2 21.9 18.3 6 27.1 1.6z"/><path fill="#3e4750" d="m231.2 535.9-23.8-2.1 5.2 22.5 18.3 6z"/><path fill="#3e4750" d="M213.3 594.8c-6.4 2.2-30.4 1.8-32.7-2-2.6-4.3 0-10.2 3.9-13.1s8.7-3.9 12.9-6.2c4.5-2.5 11-9.5 13.1-14.5 16.2 4.9 28.9 2 45.1 6.9 1.4.4.8 16.1-.6 18.3-1.9 2.8-7.9 3-10.8 3.6-4 .9-9.7-1.8-14.6-.7-6.1 1.4-11.4 6.1-16.3 7.8z"/><path fill="#2f353c" d="M180.9 584c2-1.8 9.3 1 9.6 7 6.5 2.2 13.4 3 20.3 2.6 6.1-.5 14.2-8 21.7-7.9 11.4 0 21.3-2.6 23.7-8.5 2.3 1.4 0 8.5-1.4 10.4-.9.9-2 1.7-3.2 2.1l-2.9 1c-.6.2-1.1.3-1.7.4l-2.9.4h-1.8l-2.9-.4c-1.5-.2-3.1-.4-4.7-.4-5.4 0-7.8 2.8-11.6 5.2l-2.2 1.2c-.4.2-.8.4-1.3.6l-2.8.9c-.5.1-.9.2-1.5.3l-3.2.4h-1.6l-3.1.2h-4.3l-1.1-.1-2.8-.2-1.6-.2-2.8-.4-1.2-.2-3-.6c-4.7-1-8.2-2.2-9.2-3.3-2.8-3-2.8-9-.7-10.7z"/><path fill="#bfc0c2" d="m232 557.6-20.1-4.3.3 1.7 18.6 4.2 1.2-1.5zm-4 5-17.5-3.6-.6 1.3 17 3.8 1.2-1.5zm-4.3 5.4-15.2-5.5-1.1 1.4 15.1 5.6 1.1-1.5zm-3.6 4.6-14.9-5.9-1.2 1.3 14.9 6.1 1.1-1.4zm-3.3 4.2-15.3-6.5-1.3 1.1 15.6 6.6z"/><path fill="#003b6a" d="M65.6 2.7 63.3.4h-1.9l1.3 99.7c-3.5.3-3.4 2.5-3.4 2.5v12l-3.1 4.5.4 60.6H12.9c-17.5 0-4.2 27.8-1.8 27.7 1.3 0 6.4-.4 6.4-.4v23.2c.4 9.8 40.7 4.7 49.5 3.9s9.2-9.8 9.2-9.8l-1.953-105.406c-.1 0-2.747-4.594-2.747-4.594s-.5-7.699-.5-11.3c0-3.151-3.7-2.891-3.7-2.891L65.8 2.7zM43.5 215.6c9.7 0 17.6 3 17.6 6.9s-7.8 7.1-17.5 7.1-17.6-3-17.6-6.9 7.8-7.1 17.5-7.1"/><path fill="#bfc0c3" d="m75.2 126.7-.4-8-3.3-4.4-12.2.2-3.1 4.5v8.1c.1 0 19-.4 19-.4"/><path fill="#005691" d="m75.2 135.2-3.1.9V187H56.6l-43.2-.4c-.6 2.8-.9 5.7-1.1 8.6v4.9H76c0-.1-.7-64.9-.7-64.9z"/><path fill="#eff1f2" d="M67.1 89.8v-1.5c-1.4-1.6-2.9-3.1-4.7-4.4v1.6c1.9 1.1 3.4 2.6 4.7 4.3M67 86v-1.5c-1.4-1.6-3-3.1-4.8-4.4v1.6c1.9 1.1 3.5 2.6 4.8 4.3m-.1-3.3v-1.5c-1.4-1.6-3-3.1-4.8-4.4v1.6c1.9 1.1 3.5 2.6 4.8 4.3m.1-3.2V78c-1.4-1.6-3-3.1-4.8-4.4v1.6c1.9 1.1 3.5 2.6 4.8 4.3m-.1-3.4v-1.5c-1.3-1.6-2.9-3.1-4.7-4.4v1.6c1.9 1.1 3.4 2.6 4.7 4.3m-.2-3.6V71c-1.4-1.6-3-3.1-4.7-4.4v1.6c1.9 1.1 3.5 2.6 4.7 4.3m0-3.3v-1.5c-1.4-1.6-3-3.1-4.7-4.4v1.6c1.9 1.1 3.5 2.6 4.7 4.3m0-3.3v-1.5c-1.4-1.6-3-3.1-4.8-4.4v1.6c1.9 1.1 3.5 2.6 4.8 4.3m0-3.5V61q-2.1-2.4-4.8-4.5v1.6c1.9 1.1 3.5 2.6 4.8 4.3m-.2-3.3v-1.5c-1.3-1.6-2.9-3.1-4.6-4.4v1.6c1.8 1.1 3.4 2.6 4.6 4.3m.1-3.5v-1.5c-1.4-1.6-3.1-3.1-4.8-4.4v1.6c1.9 1.1 3.5 2.6 4.8 4.3m-.1-3.6v-1.5c-1.3-1.6-2.9-3.1-4.7-4.5v1.6c1.9 1.1 3.4 2.6 4.7 4.3zm0-3.1v-1.5c-1.4-1.6-3-3.1-4.7-4.4v1.6c1.9 1.1 3.4 2.6 4.7 4.3m0-3.5v-1.5c-1.4-1.6-3-3.1-4.7-4.4v1.6c1.9 1.1 3.4 2.6 4.7 4.3m0-3V41c-1.4-1.6-3-3.1-4.7-4.5v1.6c1.9 1.1 3.4 2.6 4.7 4.3m0-3.2v-1.5c-1.5-1.6-3.2-3.1-5.1-4.4v1.6c2 1.1 3.7 2.6 5.1 4.3m-.3-3.3v-1.5c-1.3-1.6-2.8-3.1-4.4-4.5v1.6c1.8 1.2 3.3 2.6 4.4 4.3zm-.1-3.2v-1.5c-1.3-1.6-2.9-3.1-4.6-4.4v1.6c1.9 1.1 3.4 2.6 4.6 4.3m0-3.3v-1.5c-1.3-1.6-2.9-3.1-4.6-4.4v1.6c1.9 1.1 3.4 2.6 4.6 4.3m0-3.4v-1.5c-1.3-1.6-2.9-3.1-4.6-4.4v1.6c1.9 1.1 3.4 2.6 4.6 4.3m-.1-3.3v-1.5c-1.3-1.6-2.9-3.1-4.6-4.4v1.6c1.9 1.1 3.4 2.6 4.6 4.3m-.1-3v-1.5a30.5 30.5 0 0 0-4.4-4.4v1.6c1.8 1.2 3.3 2.6 4.4 4.3m0-3.3v-1.5a30.5 30.5 0 0 0-4.4-4.4v1.6c1.8 1.2 3.3 2.6 4.4 4.3M66 13v-1.4c-1.4-1.6-3.1-3.1-4.8-4.4v1.6c1.9 1.1 3.5 2.6 4.8 4.3zm-.1-3.4V8.1c-1.4-1.6-3-3.1-4.8-4.4v1.6c1.9 1.1 3.5 2.6 4.8 4.3m0-2.7V5.4c-1.4-1.6-3-3.1-4.8-4.4v1.6c1.9 1.1 3.5 2.6 4.8 4.3m-.2-2.6V2.8C65.1 1.7 64.1.7 63 0h-1.4c1.6 1.2 3 2.6 4.1 4.3"/><path fill="#ed0007" d="M46.2 233.5c1.9 0 3.6-1.4 4-3.2 0-.2.1-.5.2-.8.9-3.6-3.8 0-6.7-.1-2.2 0-4.2-1.8-5.3-.5-.1.6-.2 1.2 0 1.9 0 3.6.3 3 3.7 3 1.5 0 2.9-.2 4.1-.3"/><path fill="#bfc0c3" d="m75.4 135.1.3 45.8c-5.9 0-10.7-4.7-10.8-10.6l-.2-24.4c0-5.9 4.7-10.7 10.6-10.8z"/><path fill="#003b6a" d="M75.5 166.5h-2.2v14.4h2.4c.7-2.5.9-5.1.6-7.7 0 0 1.6-2.3-.7-6.7z"/><path fill="#2f353c" d="M4.6 179.7h12.7l.2 30.8H4.8z"/><path fill="#ed0007" d="m5.6 210.6.6-30.9H3.8s-3.6-.9-3.8 15c0 3.5.2 15.7 2 15.9z"/><path fill="#bfc0c3" d="M63.4 100h3.378c3.106 0 4.276.157 4.322 4.3l.4 10-12.2.2-.2-10c0-4.489 1.9-4.4 4.3-4.5"/><path fill="#bfc0c3" d="m74.8 118.7-3.3-4.4-.4-10c-.046-4.143-1.216-4.3-4.322-4.3H63.4c-2.4.1-4.3.011-4.3 4.5l.2 10-3.1 4.5v8.1c.1 0 19-.4 19-.4z"/><path fill="#003b6a" d="m75.4 135.1-40.6.6c-1.5 0-2.8-1.2-2.8-2.7v-2.8c0-1.5 1.2-2.8 2.7-2.8l40.4-.7z"/><path fill="#ed0007" d="M63.1 179.4h-4c0 .1-.5-16.9-.5-16.9h4c0-.1.5 16.9.5 16.9"/><ellipse cx="60.711" cy="156.68" fill="#bfc0c2" rx="2.9" ry="2.8" transform="rotate(-12.8 60.71 156.68)"/><path fill="#757f89" d="M60.5 223.2s-2.1 8.1-5.7 10.6c-2.8 1.9-18.139.098-22.5-1.6-5.1-1.9-4.313-9.34-4.313-9.34l32.413.34zm-3.1-95.9s-3.5-6.1-7.2-6.3c-1.7 0-8-.1-10.8 1-5.8 2.4-12.4 5.2-12.4 5.2l30.4.2z"/><path fill="#525f6b" d="m50.9 239.4 6.2-11.3s.8-1.9 3.3.3c1.7 1.4-4.1 22.3-4.1 22.3l-5.5-11.3z"/><path fill="#bfc0c2" d="M40.3 166c7.9 32.6 14.2 50.5 17.9 59.4 1.9 4.7 5.5 8.5 10.1 10.6l37.5 11.3 9.4-31.1-32.9-6.8-31.6-55-1.2-5.8-11.9 2.6s1.5 9.7 2.8 14.7z"/><path fill="#525f6b" d="M32.3 157.4s3.6 11.3 3.9 13.2l22.2-5-7-11 6-27.4H27c0-.1 5.9 28.5 5.4 30.3z"/></g></svg>