<svg xmlns="http://www.w3.org/2000/svg" viewBox="0 0 399 736"><g fill="none"><path fill="#18837E" d="M276.012 86.26c-.29 2.87-.642 6.58-.982 9.59 4.449-2.71 8.856-6.317 11.982-10.59a32.9 32.9 0 0 1-11 1m47.23-49.58c-1.1-11.39-14.84-18.22-14.84-18.22-1.1-19.4-25.06-12.57-25.06-12.57s-18.23-9.11-27.34-4.55-2.28 17.12-5.73 21.72-4.56 11.39-4.56 11.39-1.76 15.06 10.36 21.75c-.745-5.77-1.469-11.756-2.05-17.71 5.382 1.912 11.552 2.94 17.203 2.112 13.67-2.28 25.837-11.852 25.837-11.852s-.442 16.07 1.1 21.68q.083.708.29 1.39c3.24-5 8.083-10.851 11.903-6.611 5 5.51-4.385 16.943-6.773 21.441.51 1.32.8 2.13.8 2.13s20.14-20.65 19-32.05z"/><path fill="#419E98" d="M214.182 261.16c-.26-.16-8.66 1.11-3.37 4.37l-87.49 54-8.25-3.42-23.8.27 10.13 4.82 10.51 14.86h7.44c8.41 0 90.52-36.8 99-43.84 9.85-8.16 9.47-24.61-4.17-31.06"/><path fill="#419E98" d="M248.602 139.18c-12.632.481-23.271 9.593-25.69 22l-22.94 104.88 1-.11c13.13-1.64 22.07 10 21.7 21.19.61-1 22.87-41.58 28.1-57.39 16.24-52.1 16.57-92.48 16.57-92.48z"/><path fill="#66B8B2" d="m275.032 95.18-2.42 20.51h40.27l-8.52-47-.81-2.13c3.16-4 12.12-16.39 7-21.83-3.88-4.18-8.89 2.06-12.12 7a13 13 0 0 1-.3-1.39c-1.1-5.73-1.1-21.68-1.1-21.68s-12.52 9.2-26.21 11.48a35.7 35.7 0 0 1-16.76-1.69 118 118 0 0 0 2.06 17.71c.44 2.28.95 4.56 1.61 6.91 3.9 14.33 7.06 21.24 7.06 21.24a49 49 0 0 0 11.17 2 32.9 32.9 0 0 0 11-1 54.9 54.9 0 0 1-12 9.92zm-37.48 417.14 6.84 129.63h41.89c5.58-46.15 7.86-52.47-1-113.54a220 220 0 0 1-.81-52.33h-47.4l.44 36.23z"/><path fill="#B6EDE8" d="m243.212 641.95.3 8.45h42.18c.29-2.94.59-5.73 1-8.45zm2.91 62.11h35.45c1.25-14.92 2.21-27.26 3.09-37.77h-41zm-2.46-42.2h41.28c.22-2.14.39-4.45.61-6.43h-42.12z"/><path fill="#43464A" d="M261.882 310.27h-27.48l-4.12 15.73-3 150.07h61.14c.88-12.2 2.13-23.08 3.68-33-4.49-26.16-11.91-62-21.61-85.69-5.55-16.25-7.55-37.33-8.6-47.11z"/><path fill="#8DD2CD" d="M353.382 490.41c-2.43-4.26-3.882-10.102-4.542-16.352l-45.658 1.762c5.66 27.78 9.55 49.06 9.55 49.06l20.09 117.07h38.14c3.82-91.27 13.52-96.27-17.56-151.54z"/><path fill="#71767C" d="M359.552 474.06s-.3-9-1.47-23c-6.1-77.09.95-111-18.59-143.75l-.3 3-77.31-.09c.44 9.78 2.06 31.25 8.6 47.2 9.7 23.66 17 59.53 21.53 85.62 3.31 19.1 5.07 33 5.07 33l6.1-.22 45.86-1.39z"/><path fill="#C1C7CC" d="M281.542 703.89h-35.42l-54 20.88.15.14a25.66 25.66 0 0 0 19.84 9.41h75.71zm114.47 19.48-25.94-19.48h-26.61l-4 30.43h50.71a7 7 0 0 0 7-7 6.4 6.4 0 0 0-1.16-3.95"/><path fill="#66B8B2" d="M242.922 655.47h43.06l.52-5.07h-43.68zm.44 11.32h41.67l.44-5.07h-42.26z"/><path fill="#B6EDE8" d="M369.482 704.06h.44s.74-19.47 1.32-37.77h-34.54l6.54 37.77zm1.84-48.58h-36.5l1.1 6.29h35.29c.04-2.11.11-4.27.11-6.33zm-.15-5c.08-3.24.07-6.18.07-8.53h-38.58l1.47 8.53z"/><path fill="#66B8B2" d="M372.122 650.4h-38.37l.37 2.28.52 2.79h37.33zm-.3 11.32h-36.16l.89 5.07h35.12z"/><path fill="#A4ABB3" d="m220.222 156.65-15.07 46.15 23.37 13.45-8.16-56.3c-.07-1.17-.14-2.27-.14-3.3"/><path fill="#C1C7CC" d="m313.122 310.28 15.44-160.87 27-24.77-45.67-25.35-37.33 21 2-21-32.43 18.29a45.22 45.22 0 0 0-21.9 39.31c0 1.11.07 2.21.15 3.31l8.15 56.29 4.56 31.68-.22 62.1z"/><path fill="#E0E2E5" d="m339.272 310.14.22-3 15.8-182.55v-.07z"/><path fill="#A4ABB3" d="M312.822 310.29h26.46l16-185.56v-.15l-.08.07-27 24.77z"/><path fill="#66B8B2" d="m309.892 99.29-34.91-1-.07 1-2.5 21.17z"/><path fill="#E0E2E5" d="M281.212 154.56h27v7.35h-27zM.822 336.09h193.37v14.92H.822z"/><path fill="#C1C7CC" d="M72.492 328.77a3.68 3.68 0 0 0-3 4.27 3.92 3.92 0 0 0 4 3h61.2v-14.3zm102.85-1.05-9.82 1.94a3.57 3.57 0 0 0-2.76 4.17c0 .11.05.22.08.32l.46 1.93h15.36s.9-4.88.9-4.9a3.57 3.57 0 0 0-4.22-3.46"/><path fill="#66B8B2" d="m97.992 330.71 17.08-14.58-23.8.27s-22.45 14.31 6.72 14.31"/><path fill="#C1C7CC" d="m145.042 336.15-2.05-3.28 12.77-7.98 2.55 2.97z"/><path fill="#C1C7CC" d="m152.072 336.09-1.65-3.5 13.88-6.55 2.18 3.24z"/><path fill="#18837E" d="m310.352 263.93 47.27-94.87c5.83-14.41 5.69-25.76-4.37-32.69-16.32-9.51-23.23-.06-29.13 9.06-11.26 17.35-41.3 88-43 95.63 6.02 28 29.23 22.87 29.23 22.87"/><path fill="#E0E2E5" d="M355.402 123.75c-16.32-9.51-30.16 9.85-36.05 19-4.92 7.58-13.67 25.28-21.88 43.19l44.94 25.2s16.94-30.18 21.52-44c7.66-23.19 1.53-36.46-8.53-43.39"/><path fill="#66B8B2" d="M256.322 245.41c-16.5 4.19-31.32 12.83-48.9 19.65l-31.46-5.91 24 19.4.61.26a35.3 35.3 0 0 0 18.4 2.39c29.63-4.07 91.51-16.57 91.41-17.24a37.7 37.7 0 0 0-3.19-10.24c-9.7-20.73-31.98-13.1-50.87-8.31"/><path fill="#E0E2E5" d="M150.652 238.84c-13-10.5-30.25-10.35-30.25-10.35s2 11.13 20.08 25.67 25.52 18.21 25.52 18.21l10-13.25s-12.33-9.77-25.35-20.28"/><path fill="#E0E2E5" d="m176.122 259.38-6.53 8.1 31.62 25.58a2.1 2.1 0 0 0 2.94-.32l3.9-4.84a2.08 2.08 0 0 0-.31-2.94z"/><path fill="#419E98" d="M161.272 278.64c3.56 2.77 8.48 6.57 15.83 6.68 9.42.14 22.83-6.8 22.83-6.8l-24-19.4z"/><path fill="#8A9097" d="M16.262 316.36a17.2 17.2 0 0 1 16.56-11.94h-1.72c-5.695-.033-10.291-4.665-10.28-10.36h3.44a10.34 10.34 0 0 1 10 7.37c1.56-3.79 4.76-7.37 10.72-7.37v3.45c-5.56 0-7.53 4.3-8.23 7.32a17.2 17.2 0 0 1 5.66 31.23h-19.08a17.23 17.23 0 0 1-7.07-19.7"/></g></svg>