<svg xmlns="http://www.w3.org/2000/svg" viewBox="0 0 517 587"><g fill="none" fill-rule="evenodd"><path fill="#E8B6E3" fill-rule="nonzero" d="M407.55 83.11a35.5 35.5 0 0 1-10.36 1.69c-.07 2.65-.22 5.44-.29 8.23a52.4 52.4 0 0 0 10.65-9.92"/><path fill="#E552DA" fill-rule="nonzero" d="M440.26 32.32c-1.91-11.17-15.95-17-15.95-17-2.5-19-25.65-10.66-25.65-10.66s-18.67-7.72-27.34-2.57-1 17.05-4.11 21.83-3.68 11.61-3.68 11.61-.66 15.06 11.76 20.79a118 118 0 0 1-3.23-17.34 33.1 33.1 0 0 0 16.68.44c13.38-3.23 25.13-13.1 25.13-13.1s1.11 15.8 2.65 21.31c.15.44.29.88.44 1.4 2.79-5.22 7.42-11.69 11.46-7.87 5.3 5.07-2.49 17.71-5.36 22 .44.95.74 1.54.74 1.54s18.44-21.24 16.46-32.38"/><path fill="#F0DCEE" fill-rule="nonzero" d="m435.77 111.15-12-46.52s-.3-.59-.74-1.54c2.87-4.27 10.73-17 5.36-22-4-3.82-8.67 2.65-11.46 7.87-.15-.52-.29-1-.44-1.4-1.51-5.57-2.62-21.24-2.62-21.24s-11.75 9.92-25.13 13.15a33.9 33.9 0 0 1-16.68-.44 117.6 117.6 0 0 0 3.3 17.42c.59 2.2 1.25 4.48 2.06 6.76 4.85 13.89 8.53 20.5 8.53 20.5a44.9 44.9 0 0 0 11.24 1.18 33 33 0 0 0 10.36-1.69 56.5 56.5 0 0 1-10.62 9.8c-.44 10.8-1 21.09-1 21.09l39.83-2.94z"/><path fill="#E552DA" fill-rule="nonzero" d="m304.36 258.67 48.5 3.53 13.89-36.38-8.75-65.11c-1.69-10.29-3.41-20.33-1.57-28.79z"/><path fill="#E48CDD" fill-rule="nonzero" d="m478.18 122.54.07-5.81-44.83-22-39.1 2.79-28.66 20.29a22.55 22.55 0 0 0-9.48 14.25c-1.83 8.45.08 18.38 1.69 28.59l8.75 65.11v.22l6.76 44.61 6.47 3.16.36-.14 73.42 29.47 4.78-127.88 19.77-52.69z"/><path fill="#E552DA" fill-rule="nonzero" d="m479.06 120.19-.88 2.35-19.85 52.78-4.77 127.87 22.27 9c26.82-119.5 3.23-192 3.23-192"/><path fill="#D0D4D8" d="M491.77 351.09h-83.63l-83.78-.29c.005 11.36 9.21 20.569 20.57 20.58h4l-11.85 213.34h13.37l11.83-212.83h51.23l40.49-.14 11.83 213h13l-11.82-213.37h3.92c11.506.017 20.848-9.294 20.87-20.8z"/><path fill="#43464A" d="m71.19 585.32 9.84-190.94h85.62l9.85 190.94h12.35l-16.17-312.49h-12.35l5.59 109H81.7l5.65-109H75.01L58.84 585.32z"/><path fill="#551151" fill-rule="nonzero" d="m379.85 273.78-6.47-3.16-11.91 2.8-150.36 35.27-24.62 242.81 32.71 9.48s61.21-161.66 36.15-201.8c2.58-.3 5.44-.59 8.53-.88v-36.076z"/><path fill="#340731" fill-rule="nonzero" d="m127.33 574.43.15.22a29.07 29.07 0 0 0 22.45 10.67h75.77l-6.62-24.4-32.7-9.48-59.09 23z"/><path fill="#791D73" fill-rule="nonzero" d="m380.12 273.66-.27.12-119.5 45.13c25.867 4.106 49.228 13.278 57 41.81 102.15-19.84 156.46 7.2 158.52-48.65l-22.27-9-73.35-29.47z"/><path fill="#9E2896" fill-rule="nonzero" d="m260.35 318.91 3.58 39.41 21.46 193.94 3.82 1.54 25.21 9c11.46-109.35 12.12-169.1 2.94-202.17-9.43-33.05-28.64-39.31-57.01-41.72"/><path fill="#340731" fill-rule="nonzero" d="m285.34 552.24-43 22.19.14.22a29.08 29.08 0 0 0 22.5 10.67h54.46l-4.51-22.28-.59-.22z"/><path fill="#E8B6E3" fill-rule="nonzero" d="m514.02 258.26 1-.2-22.44-126.33c-4.92-15.73-14.62-19.85-26.9-19-18.37 4.12-18.37 28.59-16.53 39.25 4.41 25.86 11.1 56.14 14.55 71.5 25.57-.41 45.4 9.05 50.32 34.78"/><path fill="#F0DCEE" fill-rule="nonzero" d="M463.63 223.52c-27.78.44-61.37 11.09-87.16 20.5l-35.35-18.23 1.1 36.6c6 2.5 22.12 4 31.23 4.78 0 0 141.77-8.16 141.62-9.11-.07-.37-.15-.67-.22-1-4.92-25.72-25.58-34-51.22-33.51z"/><path fill="#E8B6E3" fill-rule="nonzero" d="m341.12 225.79-29.77 15s-1.47 5.87 6.18 15.21 24.69 6.47 24.69 6.47z"/><path fill="#71767C" fill-rule="nonzero" d="m262.04 176.85 36.23 75.11h6.18l-36.23-75.11a9.21 9.21 0 0 0-8.38-5.22h-6.18a9.31 9.31 0 0 1 8.38 5.22"/><path fill="#43464A" fill-rule="nonzero" d="M304.45 251.96h-6.1l-36.23-75.11a9.21 9.21 0 0 0-8.38-5.22H145.41a9.26 9.26 0 0 0-9.26 9.19 9.7 9.7 0 0 0 .88 4l36.68 76h214.66a6.85 6.85 0 0 0 6.84-6.91v-2.5l-90.76.52z"/><path fill="#8A9097" fill-rule="nonzero" d="M.93 260.32h272.28v12.5H.93z"/><path fill="#43464A" fill-rule="nonzero" d="M46.27 217.56h29.18v43.29H46.27z"/><path fill="#C1C7CC" fill-rule="nonzero" d="M273.21 260.32v12.5h54.72l-16.14 312.5h12.2l9.85-190.93h87.31L431 585.32h12.34l-16.17-312.49h51.52v-12.51zm61.37 121.48 5.66-109h74.59l5.66 109z"/></g></svg>