<svg xmlns="http://www.w3.org/2000/svg" viewBox="0 0 494.574 1000.067"><path fill="none" d="M394.6 485.467v-.032l-.016.237zm-321.3-249.3-7.972-.185 7.982.279q-.008-.046-.01-.094m44.388 61.195h.091l-23.511-1.542zm6.812.505c.093 0 .183-.014.275-.019q-.218.008-.438.008zm.9-.067q-.114.013-.228.023.11-.014.228-.023"/><path fill="#37a264" d="M241.23 112.279c-.4 3.889-.9 8.076-1.3 12.066a71.2 71.2 0 0 0 15.844-13.553 45.1 45.1 0 0 1-14.544 1.487M302.4 48.14c-1.5-14.8-19.2-23.6-19.2-23.6-1.5-25.2-32.5-16.3-32.5-16.3s-23.7-11.8-35.5-5.9-3 22.2-7.4 28.1-5.9 14.8-5.9 14.8-2.125 19.59 13.575 28.19l-.074-.361a162 162 0 0 1-2.6-23 43.3 43.3 0 0 0 21.7 2.2c17.7-3 34-14.8 34-14.8s0 20.7 1.5 28.1a15 15 0 0 0 .4 1.8c4.1-6.5 10.8-14.6 15.7-9.2 6.5 7.1-4.8 22.9-9 28.2.438.963.722 1.619.786 1.768l.014.032c-.101-.002 25.999-25.23 24.499-40.029"/><path fill="#00210e" d="M340.9 645.76c-8.4-9.5-12.7-25.3-16.3-44.4-6.158-32.179-10.836-64.158-16.19-93.3-15.384 21.179-39.351 41.262-69.009 84.967 16.221 39.157 30.8 67.926 30.8 67.926l172.5 268.9 2.091-1.457 1.208-.842 24.5-16.747 1.091-.746 10.5-7.2C420.7 716.96 409.9 723.26 340.9 645.76M198.5 463.167c16.2-33.995 19.855-53.46 20.684-60.96H190.9c.213 8.005 1.335 29.337 7.6 60.96"/><path fill="#00381b" d="M324.618 402.209H219.184c-.829 7.5-4.481 26.965-20.684 60.96-.9 1.9-1.9 3.9-2.9 5.9-31.4 63.7-64.6 181.4-64.6 181.4l-59.8 298.5 6.5 2.5.027.011 26.173 10.087.193.075 13.307 5.126c77.6-198.8 84.8-184.4 81.1-288.1-.5-12.7 6.2-27.6 15.7-44.6 8.8-15.7 17.1-29.1 25.1-40.9l.091-.133c29.658-43.705 53.625-63.788 69.009-84.967 17.188-23.186 23.689-47.668 16.218-105.859"/><path fill="#71767c" d="M124.337 297.856c.146 0 .293 0 .438-.008s.264-.015.394-.028q.114-.01.228-.023a11.12 11.12 0 0 0 8.562-7.1l.037.028a9.7 9.7 0 0 0-.108-5.561l-31-95.4a9.56 9.56 0 0 0-8.5-6.6l-6.244-.391a9.56 9.56 0 0 1 8.456 6.6l31 95.4a9 9 0 0 1 .5 3.6 9.624 9.624 0 0 1-10.2 9l-.121-.008h-.091l-23.42-1.542-30.626-2.006 11.046.747.435.029-.023-.023z"/><path fill="#71767c" d="M124.337 297.856 75.1 294.567l.023.023 48.965 3.271c.083.002.165-.005.249-.005m1.063-.056a10.09 10.09 0 0 0 8.591-7.036c0-.012 0-.025.008-.038l-.037-.028a11.12 11.12 0 0 1-8.562 7.102"/><path fill="#c1c7cc" d="M96.6 189.367a9.56 9.56 0 0 0-8.456-6.6H88.1l-56.2-3.7a9.706 9.706 0 0 0-10.3 9 10.8 10.8 0 0 0 .4 3.6l14.149 43.3h.051l29.128 1.015 7.972.185q.002.047.01.094l.19.006c1.2 8.2-3.5 21.9-11.3 24.7l-14.491 9.494-.009.006-.139.091 3.739 11.609v.012l1.6 4.888a9.58 9.58 0 0 0 8.4 6.6h.1l2.242.147 30.626 2.006 23.511 1.539.121.008a9.624 9.624 0 0 0 10.2-9 9 9 0 0 0-.5-3.6zm188.954-60.16h-45.9l-.32.18-42.08 23.62a58.73 58.73 0 0 0-28.394 50.13c0 .257-.008.512-.006.77 0 1.4.1 2.8.2 4.3l10.472 72.118v.011l.127.871 5.3 41.1.677 30.942.024 1.058v47.9h138.963-35.662l.013-.138 18.664-194.362c-3.648-14.874-2.275-37.654 16.366-45.538l.6-1.5a35.8 35.8 0 0 1 16.1-.55zm-2.754 70.56v9.5h-34.9v-9.5z"/><path fill="#a4abb3" d="M169.054 208.207c-.1-1.5-.2-2.9-.2-4.3q-.002-.386.006-.77l-19.578 59.73 4.1 2.4.015.009 26.131 15.06v-.011zm141.869 8.5-.323-.64a39.7 39.7 0 0 1-2.967-8.362l-18.664 194.362-.013.138h35.727L335.9 263.5c-2.7-4.8-13.98-25.015-24.977-46.793"/><path fill="#e0e2e5" d="M363.7 178.967c-6.664-11.043-14.3-16.964-23-18.85a35.8 35.8 0 0 0-16.1.55l-.6 1.5c-18.641 7.884-20.014 30.664-16.366 45.538a39.7 39.7 0 0 0 2.967 8.362q.16.321.323.64c11 21.778 22.279 42 24.972 46.789l.6 1.071.9-.4 58.3-25 8.7-3.7zm-115.8 20.8h34.9v9.5h-34.9z"/><path fill="#86d7a2" d="M421.8 482.768c4.7-44.6 16.8-132.2 2-172.6-4-20.3-12.1-49.7-28.1-71l-58.3 25c13.1 25.4 29.1 50.1 38.6 64.1 5.1 35.3 9.9 99.4 14.4 129.2 2.384 16.019 4.039 26.938 4.188 27.92l.012-.02v.1l-.021.205-2.38 36.695-1.366 1.187-.714 7.213-.019.2 42.408.1h.092c1.7-13.201-11.1-45.701-10.8-48.3"/><path fill="#5ebd82" d="M286.1 58.167c-4.9-5.4-11.6 2.7-15.7 9.2a15 15 0 0 1-.4-1.8c-1.5-7.4-1.5-28.1-1.5-28.1s-16.3 11.8-34 14.8a43.3 43.3 0 0 1-21.7-2.2 162 162 0 0 0 2.6 23l.074.361c.576 2.788 1.159 5.666 1.926 8.639 5 18.6 9.2 27.5 9.2 27.5a59.8 59.8 0 0 0 14.6 2.7 44.8 44.8 0 0 0 14.6-1.5l-.022.025a71.2 71.2 0 0 1-15.844 13.553l-.034.022c-.189 1.695-.379 3.377-.566 5.02l.32-.18h45.713l-7.467-41.04-.014-.032a99 99 0 0 0-.786-1.768c4.2-5.3 15.5-21.1 9-28.2m184.4 852.64L446 927.561l-1.208.842-45.212 69.964.3.1a35.64 35.64 0 0 0 29.8-6.2l64.9-49zM77.727 951.478 0 956.267l.1.3a35.55 35.55 0 0 0 22.7 20.3l77.9 23.2 3.393-38.425-.193-.075zm101.928-670.271-.127-.871-26.128-15.06-9 33.191-10.4-7.744c0 .013 0 .026-.008.038a10.09 10.09 0 0 1-8.592 7.039q-.113.014-.228.023a9 9 0 0 1-.394.028c-.092 0-.182.017-.275.019l-.163-.011c-.084 0-.166.007-.249 0l-48.968-3.269c19.194 19.691 73.227 69.785 110.508 58.659l-.677-30.942zm-128.355.972v-.012l-3.739-11.609.139-.091.009-.006 14.491-9.494c7.8-2.8 12.5-16.5 11.3-24.7l-.19-.006-7.982-.279-29.128-1.015h-.051l-2.649-.1 3 42.9zm364 282.188c5.043-6.66 16.142-30.953 17.209-33.3l-42.408-.1.019-.2h-.02l-6.9 40c9.7 5.6 26.1 1.5 32.1-6.4m-23.1-42 2.38-36.695.016-.237.004-.068-.012.02-26.088 44.68 6.2 7.5 16.134-14.013z"/></svg>