<svg xmlns="http://www.w3.org/2000/svg" viewBox="0 0 699.6 798.2"><switch><g><path fill="#7d8389" d="m412.9 353.7 66 4.8 18.9-49.5-11.9-88.6c-2.3-14-4.6-27.7-2.1-39.2z"/><path fill="#9dc9ff" d="M553.8 112.2c-2.1.5-4.5 1-7.3 1.2s-5.2.2-7.3.1c-.4 3.8-.7 7.5-1.1 11.3 2.3-1.1 5.1-2.7 8-5 3.5-2.7 6-5.4 7.7-7.6"/><path fill="#003253" d="M601.4 44.1c1.1-10.2-13.4-18.9-13.4-18.9s0-7.8-12.3-17.8-25.6-3.3-36.8-4.5c-11.1-1.1-23.7-4.5-32.6 0-8.4 4.2-.9 16.4-1 24.3 0 .4 0 .9-.1 1.3-1.1 7.8 2.2 16.7 2.2 16.7s.5-.7 1.4-1.7c2.3-2.7 6.8-7.8 10-9.4 4.5-2.2 6.7 1.1 18.9 4.5s24.5-5.6 24.5-5.6c-6.7 18.9 3.8 22.6 7.1 28.1.9 1.5 1.3 3.1 1.4 4.8 3.9-6.6 10.2-14.6 15.3-8.9 6.3 6.9-4.6 24.5-10.1 32.5l2.5 5.5c.3 0 21.6-37.8 23-50.9"/><path fill="#b8d6ff" d="M538.2 124.8c-1.7 15-3.9 29-3.9 29h55.1l-10.7-59.1-2.5-5.5c5.5-8 16.4-25.6 10.1-32.5-5.2-5.7-11.5 2.3-15.3 8.9 0-1.7-.5-3.3-1.4-4.8-3.3-5.6-13.8-9.2-7.1-28.1 0 0-12.3 8.9-24.5 5.6s-14.5-6.7-18.9-4.5c-4.2 1.6-10 9.4-10.1 9.5 0 0-.1 4 .4 9.9.6 9.7 2.2 19.2 4.6 28.6 5.3 19.6 9.7 29 9.7 29 5 1.5 10.2 2.5 15.4 2.8 4.9.3 9.8-.1 14.6-1.3-4.5 4.5-10.1 9.2-15.5 12.5"/><path fill="#4e5256" d="m649.4 168.5.1-7.9-61-29.9-53.2 3.8-39 27.6c-6.7 4.5-11.3 11.5-12.9 19.4-2.5 11.5.1 25 2.3 38.9l11.9 88.6v.3l9.2 60.7 8.8 4.3.5-.2 99.9 40.1 6.5-174z"/><path fill="#43464a" d="m650.6 165.3-1.2 3.2-27 71.8-6.5 174 30.3 12.2c36.5-162.6 4.4-261.2 4.4-261.2"/><path fill="#e0e2e5" fill-rule="evenodd" d="M667.9 479.5H554.1l-114-.4c0 15.5 12.6 28 28 28h5.4l-16.1 290.3h18.2l16.1-289.6h69.7l55.1-.2 16.1 289.8h17.7l-16.1-290.3h5.3c15.7 0 28.4-12.7 28.4-28.3z" clip-rule="evenodd"/><path fill="#2e3033" fill-rule="evenodd" d="M95.6 798.2 109 538.4h116.5l13.4 259.8h16.8l-22-425.2h-16.8l7.6 148.3H109.9l7.7-148.3h-16.8l-22 425.2z" clip-rule="evenodd"/><path fill="#003253" d="m515.6 374.3-8.8-4.3-16.2 3.8-204.6 48-33.5 330.4 44.5 12.9s83.3-220 49.2-274.6c3.5-.4 7.4-.8 11.6-1.2l-4.8-53.6z"/><path fill="#001d33" d="m172 783.4.2.3c7.5 9.2 18.8 14.5 30.6 14.5h103.1l-9-33.2-44.5-12.9z"/><path fill="#004975" d="m516 374.1-.4.2L353 435.7c38.5 3.2 64.8 11.7 77.5 56.9 139-27 212.9 9.8 215.7-66.2l-30.3-12.2-99.8-40.1z"/><path fill="#00629a" d="m353 435.7 4.8 53.6L387 753.2l5.2 2.1 34.3 12.3c15.6-148.8 16.5-230.1 4-275.1-12.7-45-38.9-53.5-77.5-56.8"/><path fill="#001d33" d="m387 753.2-58.5 30.2.2.3c7.5 9.2 18.8 14.5 30.6 14.5h74.1l-6.2-30.3-.8-.3z"/><path fill="#979ea4" d="m698.2 353.1 1.4-.3L669 181c-6.7-21.4-19.9-27-36.6-25.9-25 5.6-25 38.9-22.5 53.4 6 35.2 15.1 76.4 19.8 97.3 34.8-.5 61.8 12.3 68.5 47.3"/><path fill="#b8d6ff" d="M629.6 305.9c-37.8.6-83.5 15.1-118.6 27.9L462.9 309l1.5 49.8c8.2 3.4 30.1 5.5 42.5 6.5 0 0 192.9-11.1 192.7-12.4-.1-.5-.2-.9-.3-1.4-6.7-35-34.8-46.2-69.7-45.6"/><path fill="#9dc9ff" d="m462.9 309-40.5 20.4s-2 8 8.4 20.7 33.6 8.8 33.6 8.8z"/><path fill="#71767c" d="m355.3 242.4 49.3 102.2h8.4l-49.3-102.2c-2.1-4.4-6.5-7.1-11.4-7.1h-8.4c4.9 0 9.3 2.8 11.4 7.1"/><path fill="#43464a" d="M413 344.6h-8.3l-49.3-102.2c-2.1-4.4-6.5-7.1-11.4-7.1H196.6c-6.9 0-12.6 5.6-12.6 12.5 0 1.9.4 3.8 1.2 5.5l49.9 103.4h292.1c5.2 0 9.3-4.2 9.3-9.4v-3.4z"/><path fill="#8a9097" d="M0 356h370.5v17H0z"/><path fill="#43464a" d="M61.7 297.8h39.7v58.9H61.7z"/><path fill="#c1c7cc" d="M370.5 356v17H445l-22 425.2h16.6L453 538.4h118.8l13.4 259.8H602L580 373h70.1v-17zM454 521.3l7.7-148.3h101.5l7.7 148.3z"/><path fill="#d1e4ff" d="M518.6 195.4c3.1 14.5 13.2 38.3 13.2 38.3s20.9-43.6 35.7-62.8c16.1-20.8 33.4-31.2 36.7-33.1l-14-7-5-12-47 7L532 136l-17.9 13.2s.2 26.3 4.5 46.2"/><path fill="#001d33" fill-rule="evenodd" d="m541.8 134.4-21.2-5.8.4 24.4 21-6.4 21.2 5.8-.4-24.4z" clip-rule="evenodd"/><ellipse cx="585.7" cy="66" fill="#4e5256" rx="10.5" ry="18"/><path fill="#4e5256" d="M592.2 50c.9-29.2-21.5-49.5-44-50-16-.3-33 10-39 25 5-12 22-23.3 38-23 22.5.5 41.9 18.8 41 48zm-12.6 22.4L556.2 92l-13 5v3h1l11-4 24.9-21.6z"/><ellipse cx="588.7" cy="66" fill="#595e62" rx="9.9" ry="17"/><path fill="#003253" d="M539.2 2.8c-11.1-1.1-23.7-4.5-32.6 0-8.4 4.2-.9 16.4-1 24.3 0 .4 0 .9-.1 1.3-1.1 7.8 1.6 15.3 1.6 15.3s1.1.7 2-.3c2.3-2.7 6.8-7.8 10-9.4 4.5-2.2 6.8.3 19 3.7"/></g></switch></svg>