<svg xmlns="http://www.w3.org/2000/svg" viewBox="0 0 429.274 1012.816"><path fill="none" d="M169.116 348.672c.176-4.881.335-9.207.473-12.793-.024.458-.112 2.357-.121 2.706zm-.034-134.437c-.018-4.479-.024-7.11-.014-7.128a61 61 0 0 0 .014 7.128M30.814 257.082l-1.074-.037zm138.305 81.134c-1.481-1.566-7.493-7.943-12.525-13.278 5.03 5.333 11.04 11.708 12.525 13.278m-14.419-15.29-1.305-1.382zm-2.3-2.426-1.577-1.669a262 262 0 0 1 1.577 1.669m208.87 233.036 10.463 1.682zM67.614 291.78l.955 2.69a25 25 0 0 0-.955-2.69m-32.09-34.539-.7-.024zm5.489.185-.878-.029zm301.632 293.116 2.057.331zm-5.108-.821 4.247.683zm17.045 2.74.068.011zm-8.875-1.427 6.7 1.077zM49.642 257.718l-2.988-.1zm306.897 295.057 2.234.36zM45.843 257.589l-.738-.024zm6.351.211-.954-.032zM299.5 435.767c-.055 5.776 8.695 6.378 9.7.844 1.392-6.841-9.878-7.965-9.7-.844m0 18.2c-.362 6.517 9.885 6.659 9.8.2.452-6.567-10.016-6.86-9.8-.2M321.181 269.3q-.933-4.435-1.856-8.851c-3.294-14.762-8.338-35.718-8.918-55.194.484 19.1 5.3 39.746 8.918 55.2.022.086.155 3.7.37 9.926l-.308-9.632q.893 4.269 1.794 8.551m-151.757 16.732.166 49.8c.049-1.632-.044-24.086-.166-49.8m204.888 269.6-1.075-.173zM283.815 88.719l-.01.015a83 83 0 0 0 4.809-8.124 105 105 0 0 1-4.547 7.716zm-36.878 35.527c3.342.088 6.827.2 10.186 0-3.006.002-6.517.001-10.186 0M290.4 56.308c-.08-.035-.164-.056-.245-.086a7.7 7.7 0 0 1 1.466.892 4.5 4.5 0 0 0-1.221-.806m-12.085 53.151a26.7 26.7 0 0 0 .96-5.687 34 34 0 0 1-.96 5.687M215.965 49.2a96 96 0 0 1-.065-3.081c-.03.938 0 1.914.065 3.081m127.741 455.056v-.231.232zm.2-28.401v.217c.154-21.5.345-46.317.572-69.8-.239 24.118-.43 48.54-.571 69.578zm-25.09 111.778c.688.351 1.41.679 2.149.993a55 55 0 0 1-2.149-.993M256.343 39.936c-5.508 1.215-9.816.224-14.1-1.165 4.283 1.392 8.585 2.385 14.1 1.165M345 360.856l8.117-2.07c-5 1.272-9.226 2.344-12.1 3.065l.049-.012zM221.176 37.669a20.2 20.2 0 0 1 4.744-2.422 14.4 14.4 0 0 0-4.744 2.422m29.898 56.249c15.545 16.32 22.914-29.4 24.542-37.539-1.635 8.161-8.995 53.841-24.542 37.539M50.874 257.76l-.592-.02zm151.868 121.764c4.771-41.082 6.821-95.736 7.638-143.844-.829 48.081-2.895 102.809-7.638 143.844m73.858-50.057 5.285 56.766a101041 101041 0 0 0-5.285-56.766m56.892-172.311q.66-.082 1.341-.139c-.481.037-.924.083-1.341.139M54.7 262.252q-.017-.1-.032-.2c-.006.122-.017.246-.024.369.007-.086.02-.168.026-.255zm279.625 286.953 2.036.327zm-3.194-391.56.046-.013zM285.1 420.767l-.006-.059 5.106 55.159zm42.921-261.657q.362-.222.732-.437-.367.207-.732.437m-6.745 110.644.427 2.03zM276.6 329.4c1.256-26.677 3.732-51.629 6.754-74.1-3.02 22.474-5.497 47.429-6.754 74.1m55.61-172.027c.357-.071.716-.139 1.088-.191q-.579.084-1.088.191m-8.932 121.876q.075.346.146.693zm2.929-118.935c-.033.025-.063.055-.1.08q.105-.08.211-.157zM19.443 256.7l-.452-.016zm-6.236-.213-.467-.016zM323.7 281.263a13393 13393 0 0 0 12.306 57.5 14793 14793 0 0 1-12.306-57.5M28.459 257l-.284-.009zm293.289 15 .285 1.356zM12.546 256.464l-1.012-.034zm309.76 18.183.041.194zm.462 2.19.151.714z"/><path fill="none" d="m283.814 88.715.252-.393q-.125.202-.252.393m57.263 273.14 3.926-.981v-.018l-3.929.983z"/><path fill="#595e62" d="M203.381 957.821 131.093 986.1a34.92 34.92 0 0 0 27.3 13.1h103.4l-8.471-41.357h-49.94zm169.435-.465-35.216.311-5.4 41.5H402c7.67.241 12.437-9.058 8-15.2z"/><path fill="#8a9097" d="M149.247 317.169c.037.034.552.576 1.394 1.466l.183.193 1.576 1.672.989 1.047 1.305 1.382 1.9 2.012c5.032 5.335 11.044 11.712 12.525 13.278.2.214.329.348.349.369.009-.349.1-2.248.121-2.706l-.165-49.847c-.128-27.254-.288-58.151-.342-71.8 0-2.382-.07-4.742-.014-7.128l-19.809 109.994z"/><path fill="#02201e" d="M259.076 717.11c-6.528-45.3-.211-88.508 8.728-129.311v-.032c-.128-.517-.251-1.033-.38-1.549-13.226-66.595-39.987-112.071-41.374-165.988h-30.2l-.054.216-7.821 55.9h-.275c2.717 118.254 10.956 362.388 15.687 481.478v.021h53.3c12.495-150.603 18.289-129.836 2.389-240.735"/><path fill="#053634" d="M243.841 132.73h50.728l.931.569v-11.032h-28.122a31 31 0 0 1-10.193 1.979h-.062c-3.359.2-6.844.088-10.186 0h-7.538v9.2l1.169-.712zm77.124 455.896a34 34 0 0 1-2.149-.993c-.009 0 12.921-37.978 13.194-38.78l1.771-6.749-18.081 11.263-5.135-8.787c.28-.751 33.334-39.34 33.141-40.324v-.232c.057-8.225.122-17.709.2-27.949v-.217H326.4l-36.2.012-5.106-55.159-.045-.478h-59c1.387 53.917 28.148 99.393 41.374 165.988.129.516.252 1.032.38 1.549 31.828 128.718 49.368 257.151 69.8 369.9l35.216-.311c0-209.3 28.407-202.439-22.093-292.139-9.866-16.854-5.809-52.742-5.723-75.033-6.441 2.629-14.256 2.736-24.038-1.561"/><path fill="#0a4f4b" d="M210.38 235.68c-.817 48.108-2.867 102.762-7.638 143.844-1.859 16.082-4.13 30.057-6.9 40.706h30.238c1.529 0 50.529-.029 58.966 0-.272-2.9-1.621-17.4-3.164-34l-5.282-56.763v-.071c1.253-26.667 3.73-51.622 6.754-74.1 8.987-66.838 22.8-111.733 23.743-114.9l-11.6-7.1-.931-.569h-54l-1.169.712-28.609 17.414c.146 20.154.178 50.831-.408 84.827"/><path fill="#0a4f4b" d="M285.049 420.23c-8.437-.029-57.437 0-58.966 0z"/><path fill="#a4abb3" d="M335.088 475.855h8.818c.141-21.038.332-45.46.571-69.578.158-16.3.333-31.962.526-45.4l-3.926.981v-.016l-.049.012c.043.2-1.944-8.885-5.015-23.09-3.239-14.977-7.7-35.705-12.306-57.5l-.28-1.321q-.075-.346-.146-.693-.18-.847-.359-1.7l-.151-.714-.421-2-.041-.194-.273-1.294-.288-1.348-.045-.213-.427-2.03-.1-.453q-.9-4.278-1.794-8.555c0 .054.114 3.56.308 9.632 1.46 42.306 6.7 205.477 6.7 205.477zm-139.297-55.409.032-.216c2.78-10.7 5.056-24.669 6.919-40.706 4.743-41.035 6.809-95.763 7.638-143.844.575-33.86.539-64.478.411-84.824v-.01l-1 .6-10.8 6.3a61.67 61.67 0 0 0-29.923 49.361c-.01.018 0 2.649.014 7.128.032.537.232 38.818.342 71.8.122 25.714.165 49.838.165 49.847s-.085 1.763-.121 2.706c-.112 2.987-.219 6.377-.352 10.087l-1.016 29.129c-1.195 34.938-2.6 77.85-3.31 98.445l23.179.1 7.821-55.9z"/><path fill="#a4abb3" d="m195.791 420.446.054-.216h-.022zM210.38 235.68c.586-34 .554-64.673.411-84.824.128 20.344.164 50.964-.411 84.824m-14.557 184.55h.022c2.767-10.649 5.038-24.624 6.9-40.706-1.866 16.037-4.145 30.006-6.922 40.706"/><path fill="#419e98" d="m156.594 324.938-1.9-2.012-1.305-1.382-.989-1.044q-.9-.95-1.577-1.669l-.183-.193a159 159 0 0 0-1.394-1.466l.012-.068-81.644-25.324a25 25 0 0 1 .955 2.69l.531 1.5c1.883 5.234-2.665 9.636-7.7 9.415a26.6 26.6 0 0 1-9.7-.015l-15.9-.638c-6.651.761-9.53-2.179-11.1-8.435-4.536 2.89-8.83 5.626-11.733 7.473l-.169.107c-.486.552 57.759 17.41 58.7 17.3 0 0 71.678 47.186 96.488 59.994l.117-3.365 1.368-39.216c-.02-.021-.148-.155-.349-.369-1.488-1.575-7.498-7.95-12.528-13.283m217.718 230.694-1.075-.173-1.5-.241-10.463-1.682-2.5-.4-2.234-.36-1.889-.3-.068-.011-2.177-.35-6.7-1.077-1-.161-2.057-.331-.861-.138-4.247-.683-1.176-.189-2.036-.327-2.137-.344-.172-.028-.006.02c-.273.8-13.2 38.776-13.194 38.78.728.358 1.442.682 2.149.993 9.782 4.3 17.6 4.19 24.035 1.558 14.47-5.915 22-24.565 29.316-34.551z"/><path fill="#a4abb3" d="M10 218.367h7.15c-2.158-.023-4.528-.02-7.15 0m59.1 77.6-.531-1.5-.955-2.69-24.414-68.81a6.88 6.88 0 0 0-6.5-4.6H17.15c1.635.017 3.143.05 4.538.1H33.4a6.88 6.88 0 0 1 6.5 4.6L52.194 257.8l2.388.081a31 31 0 0 1 .087 4.167c.011.068.02.132.032.2 1.543 4.391 9.735 30.144 11 33.715.07.245.136.511.2.785q.04.18.075.354c.838 4.016-.323 6.361-2.7 7.586a8.7 8.7 0 0 1-1.876.69c5.035.222 9.583-4.178 7.7-9.411"/><path fill="#c1c7cc" d="m307.129 140.3-.028.095c-.941 3.166-14.756 48.061-23.743 114.9-3.022 22.473-5.5 47.425-6.754 74.1v.071c.032.275 2.892 31.029 5.285 56.766 1.543 16.6 2.892 31.1 3.164 34l.045.478.006.059 5.1 55.1 36.2-.012s-5.245-163.171-6.7-205.477c-.215-6.225-.348-9.84-.37-9.926-3.615-15.45-8.434-36.1-8.918-55.2-.55-18.468 2.919-35.6 15.7-44.862.033-.025.063-.055.1-.08l.115-.077a32 32 0 0 1 1.7-1.127q.364-.23.732-.437c.14-.082.275-.17.418-.25a9 9 0 0 1 1.96-.778l.046-.013c.337-.1.678-.188 1.033-.259s.7-.135 1.088-.191l.194-.026c.417-.055.86-.1 1.341-.139.043 0 .084-.01.128-.013l.515-.031h.014l.11-.008zm2.071 296.311c-1 5.534-9.755 4.932-9.7-.844-.178-7.121 11.092-5.997 9.7.844m.1 17.556c.085 6.459-10.162 6.317-9.8-.2-.216-6.66 10.252-6.367 9.8.2M28.459 257l1.281.043 1.074.037 4.008.135.7.024 4.611.156.878.029 4.092.139.738.024.811.028 2.988.1.64.022.592.02.366.012.954.032L39.9 223.067a6.88 6.88 0 0 0-6.5-4.6H6.9a6.928 6.928 0 0 0-6.5 9.2L10.573 256.4l.625.021.336.011 1.012.034.194.007.467.016 5.784.195.452.016 8.732.3zM65.9 296.752a17 17 0 0 0-.2-.785c-1.264-3.571-9.456-29.324-11-33.715l-.03-.086c-.006.087-.019.169-.026.255-.5 9.09-4.728 19.375-12.663 22.864-4.068 2.589-10.9 6.946-17.282 11.009 1.574 6.256 4.453 9.2 11.1 8.435l15.9.638a26.6 26.6 0 0 0 9.7.015 8.7 8.7 0 0 0 1.876-.69c2.377-1.225 3.538-3.57 2.7-7.586z"/><path fill="#e0e2e5" d="M369.725 194.351c-8.444-25.078-17.3-35.348-34.235-37.376h-.014l-.515.031c-.044 0-.085.01-.128.013q-.68.055-1.341.139l-.194.026c-.372.052-.731.12-1.088.191s-.711.163-1.033.259l-.046.013a9 9 0 0 0-1.96.778c-.143.08-.278.168-.418.25q-.37.215-.732.437c-.542.341-1.092.717-1.7 1.127q-.106.078-.211.157c-12.785 9.262-16.254 26.394-15.7 44.862.58 19.476 5.624 40.432 8.918 55.194q.923 4.41 1.856 8.851l.1.453.427 2.03.045.213.285 1.356.273 1.294.041.194q.212 1 .421 2l.151.714.359 1.7q.075.346.146.693l.28 1.321a13467 13467 0 0 0 17.321 80.59c2.869-.721 7.1-1.793 12.1-3.065l45.62-11.639a5813 5813 0 0 1 15.384-3.9zM294.44 26.448s0-7.705-12.122-17.683-25.428-3.359-36.467-4.446-23.555-4.445-32.327 0c-7.885 3.952-1.774 14.917-1.085 22.721-3.449 6.026-8.377 20.054 4.041 29.932 0-.077-.009-.145-.013-.222a141 141 0 0 1-.5-7.554c-.067-1.163-.095-2.139-.065-3.081 0-.371-.008-.755 0-1.11v-.026c.033-.179.08-.356.124-.533a10 10 0 0 1 .982-2.4 14 14 0 0 1 4.175-4.373 20 20 0 0 1 4.744-2.422l.022-.009c6.6-.114 11.442 1.956 16.3 3.533 4.287 1.389 8.595 2.38 14.1 1.165a39.5 39.5 0 0 0 12.768-5.783c-4.632 11.557 2.168 17.386 6.5 22.226-1.628 8.134-9 53.859-24.542 37.539h-19.417c-4.829 6.125-7.884-.1-9.856-8.3v.059-.011a.2.2 0 0 1-.006.078l-.015-.05c-7.119 21.688 6.668 17.944 4.459 38.55h30.948a31 31 0 0 0 10.193-1.979h-.5a19.35 19.35 0 0 0 11.434-12.808 34 34 0 0 0 .96-5.687 37.5 37.5 0 0 0-.112-5.9c-.77-8.23-2.182-21.446-2.266-29.932-.056-5.616 6.8-14.656 13.257-11.716.081.03.165.051.245.086a4.5 4.5 0 0 1 1.221.806 10 10 0 0 1 1.08.953c3.985 4.329.325 14.241-4.086 22.543a83 83 0 0 1-4.809 8.124c.161.783.969 4.682 1.109 5.381l.022.125c.017.063.033.124.043.173.545-1.258 36.066-56.933 9.461-67.969"/><path fill="#66b8b2" d="M269.111 34.153a39.5 39.5 0 0 1-12.768 5.783c-5.515 1.22-9.817.227-14.1-1.165-4.856-1.577-9.7-3.647-16.3-3.533l-.022.009a20.2 20.2 0 0 0-4.744 2.422A14 14 0 0 0 217 42.042a9.4 9.4 0 0 0-.982 2.4c-.044.177-.091.354-.124.533v1.136c.006.981.024 2 .065 3.081.089 2.34.258 4.889.5 7.554.892 9.745 2.776 21 5.312 28.946l.015.05a.2.2 0 0 0 .006-.078v.011-.055c1.972 8.2 5.027 14.423 9.856 8.3h19.416c15.547 16.3 22.907-29.378 24.542-37.539-4.327-4.842-11.127-10.671-6.495-22.228M292.7 58.067a10 10 0 0 0-1.08-.953 7.7 7.7 0 0 0-1.466-.892c-6.458-2.94-13.313 6.1-13.257 11.716.084 8.486 1.5 21.7 2.266 29.932a37.5 37.5 0 0 1 .112 5.9 26.7 26.7 0 0 1-.96 5.687 19.35 19.35 0 0 1-11.434 12.808h23.087l-5.032-28.025-.022-.125c-.14-.7-.948-4.6-1.109-5.381l.01-.015.253-.389c.454-.7.969-1.423 1.453-2.214.024-.039.045-.094.073-.13a62 62 0 0 0 3.021-5.372c4.41-8.306 8.07-18.214 4.085-22.547m81.608 497.585.002-.008-.005.007zm-3.101-49.7c11.783-43.634 35.723-116.175 27.534-158.8l-45.62 11.639-8.121 2.065v.018c-.193 13.441-.368 29.1-.526 45.4-.227 23.478-.418 48.3-.572 69.8-.074 10.24-.139 19.724-.2 27.949v.231c.193.984-32.861 39.573-33.141 40.324l5.135 8.787 18.082-11.265-1.771 6.749.006-.02.172.028 2.137.344 2.036.327 1.176.189 4.247.683.861.138 2.057.331 1 .161 6.7 1.077 2.177.35.068.011 1.889.3 2.234.36 2.5.4 10.463 1.682 1.5.241 1.075.173c3.795-12.806-3.797-47.174-3.098-49.672M52.194 257.8l-.954-.032-.366-.012-.592-.02-.64-.022-2.988-.1-.811-.028-.738-.024-4.092-.139-.878-.029-4.611-.156-.7-.024-4.008-.135-1.074-.037-1.283-.042-.284-.009-8.732-.3-.452-.016-5.784-.195-.467-.016-.194-.007-1.012-.034-.336-.011-1.016-.034 2.6 47.5.185-.118c2.9-1.847 7.2-4.583 11.733-7.473 6.377-4.063 13.214-8.42 17.282-11.009 7.935-3.489 12.167-13.774 12.663-22.864.007-.123.018-.247.024-.369a31 31 0 0 0-.087-4.167z"/></svg>