<svg xmlns="http://www.w3.org/2000/svg" xml:space="preserve" viewBox="0 0 100 100"><path fill="#003253" d="M94.5 89.7c-1.3-4.3-4.6-7.7-8.8-9.3l-24.6-9.1H39l-24.6 9.1c-4.2 1.6-7.5 5-8.8 9.3L2.3 100h95.3z"/><path fill="#FFF" d="M30.2 25.2c.3 2.6 3.4 22.1 3.7 23.8l.1.2c.4 1.8 1.3 6 6.5 9.1L39 71.2c-.1.7 5 2.8 11.1 2.8s11.2-2.1 11.1-2.8l-1.5-12.9c5.2-3 6.1-7.3 6.5-9.1l.1-.3c.4-1.7 3.2-21.2 3.6-23.8z"/><path fill="#979EA4" d="M28.5 30.5s-4.4 2.5-1.4 8.6c2.4 5 5.4 6.1 5.4 6.1l-.8-13.4zm43 0s4.4 2.5 1.4 8.6c-2.4 5-5.4 6.1-5.4 6.1l.8-13.4z"/><path fill="#B2B9C0" d="M52.6 42.7h-5.2V31.8l-2.1.5L44 45.6l7-1.7zM50 51.1c-5.2 0-7.1-1.4-7.2-1.4-.3-.2-.3-.6-.1-.9s.6-.3.9-.1c.1 0 1.7 1.2 6.4 1.2s6.5-1.2 6.5-1.2c.3-.2.7-.1.9.2s.1.7-.2.9c0-.1-2.1 1.3-7.2 1.3"/><path fill="#B2B9C0" d="M33.1 39.9s.7-2.6 6.4-5.1c6.7-3 23.4-5.7 29.1-3.7l.4-5.9H30zM40.4 59l-1.1 10c9.4-.5 17.7-6 20.7-8.9l-.2-1.1c-2 1.4-5.7 2.4-9.7 2.4-4.1-.1-7.7-1-9.7-2.4"/><path fill="#00629A" d="M36.7 62.9v-3h2.7c-.9-.6-1.8-1.3-2.8-2.2-2.9-2.6-3.9-5.9-4.5-8.3-.7-3-3.2-24.2-3.2-24.2h3.3s2.6 21.8 2.9 23.5c.4 1.7 1.2 6.2 6.2 8.7 2.2 1.1 4.3 2.4 8.6 2.4 2.4 0 4.7-.3 8.6-2.4 5.2-2.9 5.9-7.1 6.2-8.7.4-1.7 2.9-23.5 2.9-23.5h3.3s-2.5 21.2-3.2 24.2c-.6 2.4-1.6 5.8-4.5 8.3-5.4 4.8-9.9 5.2-13.4 5.2zm19.6-43.2L71.4 10l-8.8-4.9-8.5-2.4h-8.3l-8.1 2.4L29 10l15.1 9.7z"/><path fill="#00A4FD" d="M78.3 19.8c-.4-4.2-3-7.8-6.7-10.7-.8-.6-1.9-.6-2.8-.1l-10.7 7.4 5.1-10.3c.5-.9.1-2-.9-2.4-2.3-.9-4.7-1.7-6.9-2.1-.9-.2-1.8.4-2 1.2L50 14.9 46.7 2.8c-.3-.9-1.1-1.4-2-1.2-2.2.5-4.6 1.2-6.9 2.1-1 .3-1.4 1.4-.9 2.4L42 16.4 31.2 9c-.9-.6-2-.6-2.8.1-3.7 3-6.3 6.6-6.7 10.7-1 10.7 7.9 16 8.5 16.3 0-5.4 5.2-7.3 9-7.7 2.5-.3 6.6-.5 10.7-.5s8.2.2 10.7.5c3.8.4 9 2.3 9 7.7.7-.4 9.6-5.6 8.7-16.3"/><path fill="#007BC0" d="M30.2 36.1c0-5.4 5.2-7.3 9-7.7 2.5-.3 6.6-.5 10.7-.5s8.2.2 10.7.5c3.8.4 9 2.3 9 7.7 11.2-7.2 8.5-17.7 8.5-17.7-5.1 3.5-15.9 6.1-28.1 6.1-12.3 0-22.9-2.6-28.1-6.1 0 0-2.8 10.5 8.3 17.7"/></svg>