<svg xmlns="http://www.w3.org/2000/svg" viewBox="0 0 291 722"><g fill="none" fill-rule="evenodd" transform="translate(.692 .405)"><path fill="#001D33" fill-rule="nonzero" d="m218.016 158.855 6.67 35.01-21.11-.89"/><path fill="#003253" fill-rule="nonzero" d="M28.366 688.835c0-153.82-20.32-148.68 16.79-214.6 4.48-8.09 5.14-20 4.78-34.18-.22-7.2-.37-14-.59-20.28l1.1-64.45s2.21-48.95 2.14-61.52l40.41-.8 43.78-.15c-.44 10.67-2.06 32.06-8.6 48.08s-14.55 45.57-21.82 75.26c-11.08 45.81-20.49 92.43-20.49 92.43l-31.15 180.13zm194.25-649.18a.27.27 0 0 0 0-.23q.374.717.67 1.47s4-5.69 4.74-11.43a4.3 4.3 0 0 1 .17-.95c.44 4.61-.09 12.84-7.79 18a62 62 0 0 0 2.22-6.86z"/><path fill="#71767C" fill-rule="nonzero" d="M185.996 91.365a59.5 59.5 0 0 1-8.33-11.21 35 35 0 0 0 10.12 3.7c-.38 2.56-.8 5.26-1.29 8l-.49-.44z"/><path fill="#003253" fill-rule="nonzero" d="M156.836 22.765c1.15-7.45 13.1-10.87 13.1-10.87s1.49-5.54 12.12-10.3 18.8 2.53 27 3.81 17.68 1.31 23.14 6.2c5.16 4.58-2.48 11.81-3.91 17.44a4.2 4.2 0 0 0-.18.94c-.7 5.75-4.74 11.44-4.74 11.44a16 16 0 0 0-.67-1.47c-1.12-2.36-3.34-6.83-5.31-8.58-2.77-2.42-5-.49-14.27-.4s-16.33-8.64-16.33-8.64c1.16 14.7-7 15.33-10.38 18.6a7.6 7.6 0 0 0-1.91 3.14c-1.51-5.42-4.46-12.3-9.17-9.23-5.78 3.7-1.39 18.27 1 25l-2.82 3.43c-.21-.06-8.14-30.95-6.64-40.51z"/><path fill="#C1C7CC" fill-rule="nonzero" d="M186.686 91.935c-1.65 11-3.09 21.46-3.09 21.46l-39.11-10.48 18.83-39.91 2.83-3.42c-2.39-6.73-6.78-21.3-1-25 4.77-3.05 7.72 3.82 9.17 9.23a6.8 6.8 0 0 1 1.9-3.14c3.41-3.35 11.55-3.9 10.39-18.6 0 0 7 8.66 16.32 8.64s11.57-2 14.28.4c2.68 1.92 5.33 8.56 5.38 8.65s-.7 2.86-2.19 7a112.7 112.7 0 0 1-8.7 19.42c-7.49 12.91-12.41 18.75-12.41 18.75a49.5 49.5 0 0 1-11.46-1 35 35 0 0 1-10.12-3.7 59.2 59.2 0 0 0 8.34 11.21l.63.48z"/><path d="m193.396 104.385-6.6-5.19"/><path fill="#001D33" fill-rule="nonzero" d="M127.866 340.195c6.54-16 8.23-37.48 8.6-47.33h14.26l13.27 83.63-1.91 66.88-1.47 52.4-7.35 193h-39c-9.26-111-13.44-95-1.69-176.82 3.46-24.17 2.06-47.62-1.47-70.11-1.39-8.81-3.16-17.56-5-26.16 7.2-29.76 15.21-59.3 21.82-75.47z"/><path fill="#43464A" fill-rule="nonzero" d="m150.726 292.865 15.64-103.86 9.26-88.21 13.65.46 7.77.26 12.66 17.49a64.5 64.5 0 0 1 10.89 22.39 48 48 0 0 1-.88 28l-.34 1-21.69 62.21-31.3 151.76-3.08 14.92z"/><path fill="#D0D4D8" fill-rule="nonzero" d="M153.226 688.755h-37l-6.17 31.16h77.24a26.35 26.35 0 0 0 20.28-9.55l.15-.22-54.53-21.39zm-98.48 0-26.38.08-27.12 19.91a7.14 7.14 0 0 0 5.88 11.17h51.66l-4-31.16z"/><path fill="#43464A" fill-rule="nonzero" d="M110.326 93.235h-.44l30.78-8.42 3.51 2.19 20.08 12.53s-48.55 124.53-91.04 326.47l-63.66-6.83c10.52-146.29 48.44-282.82 100.77-325.94"/><path fill="#71767C" d="M143.116 110.845c-3.39-7.22-3.52-27.73-3.43-27.78l16.5-5.92s8.47 22 8.07 22.4c-6 5.16-21.14 11.3-21.14 11.3m45.72 12.25c6.55-4.56 10.17-24.06 10.21-24.2l-11.32-11.4s-12.25 12.77-12.08 13.27c2.55 7.53 13.19 22.33 13.19 22.33"/><path fill="#71767C" fill-rule="nonzero" d="M29.286 232.245s32.48-87.78 45.71-112.32c14-26 21.53-26.37 35.51-27.11h.44c16.61 9.69 9.62 38.93 5.08 50.46-12.85 32.67-29.43 62.39-36.23 80.83"/><path fill="#D0D4D8" fill-rule="nonzero" d="m266.296 298.355 9.89 15.42 8.42-28.06-17.5-8.25"/><circle cx="250.546" cy="204.595" r="10.73" fill="#C1C7CC" fill-rule="nonzero"/><path fill="#C1C7CC" fill-rule="nonzero" d="m151.246 207.585 2.23-14.28-1.76.66-5.18-13.79 38.91-14.6 5.18 13.79-1.77.66 11.08 9.29 14.85 39.57-48.69 18.27z"/><path fill="#8A9097" fill-rule="nonzero" d="M217.996 232.395a5.77 5.77 0 0 0 4.25 5l.29.07a5.73 5.73 0 0 0 6.67-3.12l20.65-44a5.77 5.77 0 0 0-3.73-8l-1.52-.4 8.77-12.6a1.48 1.48 0 0 0-.39-2l-1.99-1.34a1.47 1.47 0 0 0-1.95.31l-7.61 9.69 4.15-15.9a1.48 1.48 0 0 0-1-1.76l-2.21-.59a1.47 1.47 0 0 0-1.76 1l-4.15 15.9-1.86-12.29a1.44 1.44 0 0 0-1.52-1.22l-2.36.17a1.47 1.47 0 0 0-1.32 1.59l1.59 15.32-2.07-.54a5.67 5.67 0 0 0-4.79.88 5.74 5.74 0 0 0-2.27 3.4z"/><path fill="#E0E2E5" fill-rule="nonzero" d="M191.326 193.895c0-10 8.64-10 8.64-19.9l.59-16.14h-1.07a.89.89 0 0 1-.78-.88v-6.45a1.9 1.9 0 0 1 1.57-1.87q.165-.015.33 0h11.39q.17-.015.34 0a1.89 1.89 0 0 1 1.56 1.87v6.48a.9.9 0 0 1-.88.79h-1l.59 16.14c0 9.86 8.6 9.92 8.6 19.9v48.83h-29.88z"/><path fill="#C1C7CC" fill-rule="nonzero" d="M205.836 218.005a17.18 17.18 0 0 1 16.55-12h-1.72c-5.704-.011-10.324-4.636-10.33-10.34h3.45a10.33 10.33 0 0 1 10 7.37c1.58-3.81 4.79-7.36 10.75-7.36v3.45c-5.55 0-7.53 4.3-8.23 7.32a17.2 17.2 0 0 1 5.69 31.24h-19.09a17.2 17.2 0 0 1-7.07-19.68"/><path fill="#8A9097" fill-rule="nonzero" d="M279.996 220.555a8.69 8.69 0 0 0-4.5-15.55q.27-.708.42-1.45a8.705 8.705 0 0 0-17-3.76c0 .17-.07.33-.09.5a9.5 9.5 0 0 0-.15 1.5 8 8 0 0 0-.85-.2 8.68 8.68 0 0 0-9.07 13 8.5 8.5 0 0 0-5 .73h-.06a7 7 0 0 0-.73.4l-.24.15a5 5 0 0 0-.45.32 7.6 7.6 0 0 0-1.07.9 8.55 8.55 0 0 0-2.3 4.41 8.65 8.65 0 0 0 6.88 10.13l30.72 5.87a8.673 8.673 0 0 0 3.45-17z"/><path fill="#E0E2E5" fill-rule="nonzero" d="M230.076 213.605c-5.9 11.57-3.3 24.77 5.75 29.91l21.86-42.79c-9.48-4.32-21.69 1.28-27.61 12.88m6.38 30.26c9.56 4.88 22.21-.75 28.25-12.58s3.18-25.38-6.38-30.26c-.21-.11-.43-.21-.64-.3l-21.86 42.79c.17.12.41.24.63.35"/><path fill="#8A9097" fill-rule="nonzero" d="m177.986 362.755-61.95-16.97 6.65-43.36 30.28-57.91.07-31.78 61.96 16.97-13.38 32.89-1.62 39.09-17.47 32.7z"/><path fill="#C1C7CC" fill-rule="nonzero" d="M49.906 239.825c9.15-12.75 19.38-17.58 29.9-15.76 22.06 3.78 79.27 47.21 79.27 47.21l35.32 16.52-16.82 21.75-16.33-14.68zm165.09-10.12 73.62 2.67-14.88 33.44-2.24 39.19-22.5 56-71 1.8 4.54-28.37 17.46-32.75s.59-36.55 1.62-39.09z"/><path fill="#D0D4D8" fill-rule="nonzero" d="M219.606 295.075c-10 28.69-42 14.42-42 14.42l16.82-21.75z"/><path fill="#C1C7CC" fill-rule="nonzero" d="m203.416 273.945 2.89 6-20.2 6.55-18.39-10.57z"/><path fill="#71767C" fill-rule="nonzero" d="M29.286 232.245c9.15-12.76 34.52-31.19 54.21-15.93 17.69 13.69 79.95 49.69 79.95 49.69l-20.09 33.8z"/><path fill="#D0D4D8" d="m284.606 285.715-31.93-4.71c-2.07 6.35.2 16.39 5.36 21.23l18.15 11.57z"/></g></svg>