<svg xmlns="http://www.w3.org/2000/svg" viewBox="0 0 1813.1 1144.5"><g data-name="Ebene_1"><path fill="#595e62" d="M1813.1 1144.5H0l378.3-266.4 1128-2.5z"/><path fill="#2e3033" d="m1565.7 1128.5-5.7-7.1c-1.2-1.5-1.1-3.5.2-4.9l13.6 2.5 10.9-2.3s5.9 5.8 8.8 8.2l-4.1 3.5h-23.9z"/><path fill="#43464a" d="M1514.8 1086.4c9.8-13.2 15-21.6 15-21.6l-.3-.2-.2-.2-36.8-17.3-5.7 19.6s23.9 25.2 28 19.6z"/><path fill="#2e3033" d="m1570.4 1056.7-22.5 10.4c-.4.1-11.6-2.3-12-2.4l-23.9 2.4c-24.8-6.3-56.9-6.2-71.8 14.6-.7.9-.5 2.1.3 2.8.4.3.9.5 1.3.4h7l75.5 11v18.8l105.2-14.1s-44.2-49.3-59.1-44z"/><path fill="#43464a" d="M1544.2 1094.8c3.9-4.4 3.5-11.1-.9-15-.7-.6-1.4-1.1-2.2-1.5-14.6-7.6-52.7 5.5-52.7 5.5-3.3 5.3-1.8 12.3 3.5 15.6h.1l24.7 5 21-2.5 6.4-7.3zm-65.3-9.8-31.2-12.3-14.2 6.7 11.2 12.3 29.4-.5zm91.6 47 5.9-2.1-.2-4.9-19.1-1.4-12.1 5.1 1.8 3.2h23.7zm14.3-58.7c2.3 11.9 2.1 8.4 2.1 8.4h.4l27.7-11.4-6.4-7.3c-3.1-3.5-8.2-4.1-12.1-1.6-5.6 3.6-12.3 8.8-11.7 11.8z"/><path fill="#2e3033" d="M1470.6 1102.3s-.9-12.7 5.3-14.7c10.4-3.3 34.6 14 34.6 14s-39.9 2-39.9.7m174.1-28.3c-2.8.2-5.5 0-8.2-.8-3.5-1-7.3.5-9.2 3.6l-9-10.7-14.5 3.6-14.2 6.4-12.5 21 113.5-.8-7.3-13.2c-2.5-4.5-7.9-6.6-12.8-4.9l-7.4 2.6c-4.7-3.9-12.4-7.8-18.3-6.8z"/><path fill="#43464a" d="m1625.1 1106.2-5.9-11.4-12.9 11.6s19 1.1 18.8-.2m-40.7 5.4h-40.7c0-.1 18.6-16 18.6-16l33.9-5.7-2 8.6-9.9 13.1zm69-11 3.8-4.8-7-2.4c-4.5-1.5-9.4 0-12.2 3.9l-3 4.2z"/><path fill="#002742" d="M1356.5 716.3c1.9 1 3.6 2.3 4.9 4 1.9 2.7 1.9 6.2 1.8 9.4-.4 23.3-.8 46.6-3.7 69.7-1.1 8.9-2.6 17.7-3.2 26.7-.5 7.4-.4 14.9-.2 22.3l.5 25.9.7 38.4.5 27.7c0 1.7 6.2 12.5 6.2 12.5V973c-.1 0 2.9 15 5.9 19.8-13 8.5-51.7-15.3-51.7-15.3l-8.5-16.1s2-13.3 1.6-21.1c-1.1-19.7 1-22.8-1-42.4-1.4-14.3-16.4-78.8-18.9-86-1.2-3.4-.7-7.2-.2-10.7l8.3-63.8c.9-7.1 1.9-14.4 5-20.9 11.6-24.8 35.2-10.2 52.2 0z"/><path fill="#003e64" d="M1221 887.5c-.6 5.6-6.2 30.2-7.6 48.1-1.1 13.9-1 24.3-1 24.3l-7.8 23.4s4.3 13.7 4.6 17c33-9.6 39.3-4.5 53.5-6.1-1.6-6.8 4.8-27 4.8-27l3.7-11.1s-.1-9.5 3.4-17.5c8.8-19.9 4.5-17.3 7.4-38.9 1.7-12.5 2.3-25.2 4.9-37.6 2.6-12.6 7.1-24.6 11.1-36.8 12-37.2 18.8-75.8 20.1-114.9.1-4 .2-8.3-1.6-11.9-3-6.2-10.1-9.1-16.6-11.2-10-3.3-20.1-6.1-30.3-8.5-6.2-1.5-20.4-7.3-25.5-2.8s-4.7 20.7-4.9 27c-.2 4.4-6.2 42.1-10.8 82.1-5.5 47.1-6.7 97.2-7.3 102.4z"/><path fill="#43464a" d="m1207.5 1001.5 42.3-12.5 12.2 29.1-24.3 7.9-36 2.1 5.7-26.6z"/><path fill="#43464a" d="m1234.5 987.4 31.6-2.8-6.9 29.9-24.3 7.9z"/><path fill="#43464a" d="M1258.3 1065.6c8.5 2.9 40.3 2.4 43.4-2.7 3.5-5.7 0-13.6-5.2-17.4s-11.6-5.2-17.1-8.3c-5.9-3.4-14.6-12.6-17.4-19.2-21.5 6.5-38.3 2.6-59.8 9.1-1.9.6-1.1 21.4.9 24.2 2.6 3.7 10.4 3.9 14.3 4.8 5.3 1.2 12.8-2.4 19.3-.9 8.1 1.8 15.1 8.1 21.6 10.3z"/><path fill="#2e3033" d="M1301.3 1051.2c-2.7-2.3-12.4 1.3-12.8 9.3-8.7 2.8-17.8 4-26.9 3.4-8.2-.6-18.8-10.6-28.8-10.5-15.1 0-28.3-3.4-31.4-11.2-3.1 1.8 0 11.3 1.9 13.8 1.2 1.2 2.6 2.2 4.2 2.8l3.8 1.3c.8.2 1.5.4 2.3.6l3.9.6h2.3l3.8-.5c2-.3 4.1-.5 6.2-.5 7.1 0 10.3 3.7 15.3 6.9l2.9 1.7c.6.3 1.1.6 1.7.8l3.7 1.2c.6.2 1.3.3 1.9.4l4.2.6c.7 0 1.3 0 2 .1h4.2c0 .1 1.5.1 1.5.1h4.2c0-.1 1.5-.2 1.5-.2l3.7-.3 2.1-.2 3.7-.5 1.5-.2 4-.7c6.3-1.3 10.9-3 12.2-4.4 3.7-4 3.7-12 1-14.3z"/><path fill="#c1c7cc" d="m1233.5 1016.2 26.6-5.8-.4 2.3-24.6 5.5zm5.3 6.6 23.2-4.8.9 1.8-22.5 5zm5.7 7.3 20.2-7.4 1.4 1.8-20.1 7.5zm4.8 6 19.7-7.9 1.6 1.7-19.8 8.1zm4.4 5.6 20.3-8.6 1.7 1.4-20.7 8.8z"/><path fill="#43464a" d="m1313.8 972.5 42.3-12.5 12.2 29.1-24.3 7.9-36 2.1 5.7-26.6z"/><path fill="#43464a" d="m1340.8 958.4 31.6-2.8-6.9 29.9-24.3 7.9z"/><path fill="#43464a" d="M1364.6 1036.6c8.5 2.9 40.3 2.4 43.4-2.7 3.5-5.7 0-13.6-5.2-17.4s-11.6-5.2-17.1-8.3c-5.9-3.4-14.6-12.6-17.4-19.2-21.5 6.5-38.3 2.6-59.8 9.1-1.9.6-1.1 21.4.9 24.2 2.6 3.7 10.4 3.9 14.3 4.8 5.3 1.2 12.8-2.4 19.3-.9 8.1 1.8 15.1 8.1 21.6 10.3z"/><path fill="#2e3033" d="M1407.6 1022.2c-2.7-2.3-12.4 1.3-12.8 9.3-8.7 2.9-17.8 4-26.9 3.4-8.2-.7-18.8-10.6-28.8-10.5-15.1 0-28.3-3.4-31.4-11.2-3.1 1.8 0 11.3 1.9 13.8 1.2 1.2 2.6 2.2 4.2 2.8l3.8 1.3c.8.2 1.5.4 2.3.6l3.9.6h2.3l3.8-.5c2-.3 4.1-.5 6.2-.5 7.1 0 10.3 3.7 15.3 6.9l2.9 1.7c.6.3 1.1.6 1.7.8l3.7 1.2c.6.2 1.2.3 1.9.4l4.2.6h2.1c0 .1 4.2.2 4.2.2h5.7c0-.1 1.5-.2 1.5-.2l3.7-.3 2.1-.2 3.7-.5 1.5-.2 4-.7c6.3-1.3 10.9-3 12.2-4.4 3.6-4 3.6-12 1-14.3z"/><path fill="#c1c7cc" d="m1339.8 987.2 26.6-5.8-.4 2.3-24.6 5.5zm5.3 6.7 23.2-4.8.9 1.8-22.5 5zm5.7 7.2 20.2-7.4 1.4 1.8-20.1 7.5zm4.8 6 19.7-7.9 1.6 1.7-19.8 8.1zm4.4 5.6 20.3-8.6 1.7 1.4-20.7 8.8z"/><path fill="#eff1f2" d="m1376.5 712.3-6 6.7c-1.3 0-2.6-.5-3.8-1.2-2.4-1.2 11.7-22.3 11.7-22.3z"/><path fill="#43464a" d="M1300.5 500c5.3 1.4 10.7 1.9 16.1 1.5.4 4.1.9 8.4 1.3 12.7-5.7-3.8-12.6-8.7-17.4-14.2"/><path fill="#595e62" d="M1317.8 512.8c1.6 12.7 3 24.7 3 24.7h-50.4l10.7-56.1 1-2.5c-3.9-4.8-15.2-19.5-8.9-26.1 4.7-5 11.5-10.7 15.5-4.7-4.8-13.2-.1.5 0 0 .9-4.7 1.4-9.5 1.5-14.3 0 0 15.6 0 32.9-1s15.3 14.4 20.9 12.6c-.3 7.1-1.1 14.2-2.5 21.2-.5 2.7-1.2 5.5-2 8.3-4.8 17.1-8.9 25.3-8.9 25.3q-6.9 1.95-14.1 2.4c-4.6.3-9.3-.1-13.8-1.2 4.5 4.6 9.5 8.5 15.1 11.6z"/><path fill="#c1c7cc" d="m1274.8 708.4-10.6-143.8-8.7-31.9-14.6-8 29.6-14.1 36.8 21.925 10.9-22.025 36.3 18.8c17.1 8.5 27.4 23.7 27.2 39.9 0 1.1 0 2.2-.2 3.3l-19 57.3-5.7 33.3s-.4 41.1 4.1 53.9c1.4 3.9 2.9 8.1 2.9 8.1h-34.1l-54.8-16.6z"/><path fill="#595e62" d="M1267.1 725h-31.5l-2.3-79.4-17.1-106.5 3.7-4.2 28.8 26.5 18.3 163.5z"/><path fill="#eff1f2" d="M1281.2 566.7h27.4v7.3h-27.4z"/><path fill="#002742" d="M1318.7 599.2c-.2-1-.4-2.1-.6-3.1-5.8-28.7-12.7-67.8-35-85.8-3.5-2.9-7.5-5.9-7.5-5.9s-43.9 22.5-36.4 21.4c5.4-.8 13 11.5 15.7 18.1l-16.3 31s3.2 49.6-6.1 56c-1.1.6-2 1.5-2.6 2.6-.3.9-.4 1.9-.3 2.9.6 21 1.1 41.9 1.7 62.9 9-1 13.6 13.2 22.1 16.5 20.9 8.3 49.6 8.2 71.9 9.3.8-11.4 7.2-23 7.6-34.5s-3.8-23.8-3.8-35.4c0-18.3-6.5-37.8-10.2-55.9z"/><path fill="#002742" d="M1315.6 562.5c1.8 21.7 10 42.8 13.5 64.3 2.4 15 .3 31.6.4 46.7 0 16.6 2.2 31.9 2.3 48.5l30.866-4.036c-3.868-18.523-1.066-39.264 2.134-58.164 1.8-10.9 2.6-21.9 3.3-32.8l2.1-30 1.7-23.6c.8-12.1 1.7-24.3-1.9-36.1-.7-2.1-1.6-4.4-3.8-5.6-1.9-1-48.172-22.366-48.672-21.666 0 0-3.328 21.766-3.428 27.766 0 0 .8 16.7 1.5 24.7"/><path fill="#43464a" d="M1268.8 443c-.3-8.3 11.9-14.4 11.9-14.4s.5-6.3 10.9-13.6 20.8-2.6 29.8-1.4c19.3 2.6 26 15.1 25.6 21.5v1.1c.4 6.3-3.6 13.8-3.6 13.8.3-.7.2-1.4-.2-2-1.7-2.3-5-6.7-7.5-8.2-3.4-2-5.4.5-15.5 2.5s-19.3-5.9-19.3-5.9c4.2 15.6-4.4 17.9-7.4 22.2-.8 1.1-1.2 2.4-1.4 3.8-2.7-5.5-7.3-12.3-11.8-8.1-5.5 5.1 2.2 19.9 6.2 26.7l-2.4 4.3s-14.8-31.6-15.2-42.2z"/><path fill="#003e64" d="m1254 724.8-1.7-59.5 4.7-96.3-2.4-5.1-.6-.9-14.8-37.3-11.5 85.8 6.375 113.985z"/><path fill="#eff1f2" d="m1272.9 718.5 7.5 5.3a9.4 9.4 0 0 0 3.5-2c2.2-1.7-16.2-19.4-16.2-19.4l5.1 16.1z"/><path fill="#c1c7cc" d="M1369.8 537.3c1.2.3 47.9 82.5 47.9 93.8 0 30.4-11.3 69.5-11.3 69.5 0 .3-30.7-3.8-30.6-3.3.1-4.1 2.5-60.6 2.5-60.6l-9.7-15.2s-1.1-84.8 1.2-84.2M1256.9 569c4.4-23.1-7-42.3-16-44.3-2.6-.6-18.4 1-24.7 14.5-.6 1.3-30.6 94.6-30.6 106.8s0 10.1 1.4 14.9c2 7.1 6.8 12.5 11.7 17.5 20.8 21.4 30.8 25.4 43.7 42.4 0 .3 19.5-15.9 27-21.4-4.3-5-42-54.6-42-54.6l29.6-75.7z"/><path fill="#ed0007" d="M1337.5 580.1v-5.2h22.7v5.2z"/><circle cx="1329.9" cy="577.3" r="3.8" fill="#c1c7cc"/><path fill="#005587" d="m1268.9 858.3-46-1.1c-12.5-26.3.2-62.5 6.7-76.9l46.7 3.5s1.7 43.1-7.4 74.4z"/><path fill="#003e64" d="m1268.4 803.2-47.8-3.5 9-19.3 47.8 3.5z"/><path fill="#c1c7cc" d="M1277.8 443.5s32.8 11.4 46.9 10.8c8.9-.9 20.3-5.8 20.3-5.8s-2.5 11.6-4 15.1c-1.8 4.5-8.9 7.7-11.8 7s-1-6.8-4.2-6.8-3 4-7.6 7-21.1-7.6-22.3-9-2.8-7.4-2.8-7.4l-14.8-7.8.3-3.2z"/><path fill="#003e64" d="M1324.7 457c7-.5 16-3.1 19.3-4.1l1-4.4s-11.4 3.5-20.3 4.2c-14.1.5-46.9-8.6-46.9-8.6l-.3 2.8 11.4 4.6c10.8 2.5 27 5.8 35.7 5.5z"/><path fill="#43464a" d="M1307.3 485h29.4l-3.6-5.3h-19.2z"/><path fill="#c1c7cc" d="m1236.1 721.4.5 11.2 55-.2-9.8-11.5-45.6.5z"/><path fill="#c1c7cc" d="m1414.8 725.8-.5-11.2-35.1.8-.3-2.8-16.8.3-.8-38.8-18.2-.5-.2-2.5-40.6 1.5.3 3-21.4 2s2.9 18.5 5.5 38.2h-.5c0 .1-3.6.3-3.6.3s-9.9.5-14.3.7l.4 3.5 1.2 11.4 1 10.8 18.9-.9c.8 6.2 1.5 14.1 2.3 20.3l7.8 1.3 7.5 11.7 2.8 90.8 8.4-.3c.7 8.7 2.7 50.8 2.9 55.4 1.8-.1 7.9-.1 7.9-.1l5.2 140.4h8.1l-4.5-140.5h7.4c0-.1-3.3-55.9-3.3-55.9l9-.3-4.7-91.3 6.7-12.9 6.7-2 3.1-19.3 16.4-.5-.3-11.8s35.5-.9 35.7-.8z"/><path fill="#595e62" d="m1318.6 865.4 23.7-.7 3.3 55.8-24.1.4-2.9-55.4z"/><path fill="#c1c7cc" d="m1404.5 714.1.3 11.2-38 1.5v-11.3l37.6-1.3z"/><path fill="#005587" d="m1280.5 677.5 14.2-1.2 3.8 38.6 1.9 26.3-30.1 1.4-2.6-25.8 17.8-.9-5.1-38.3zm80.9-3.5-15.8-.4 2.8 39.2 1.6 26.5 28.4-.8-1-25.8-15.2.2-.8-38.8z"/><path fill="#595e62" d="m1286.1 677 13.9-1.3-.2-3.1 43.2-1.5.2 2.5 10.9.4.5 17-7.3.6 1.1 21.2-49.8 2.2-2.2-21.2-8 .6-2.2-17.3z"/><path fill="#eff1f2" d="m1307.4 774.9 39.3-1.8 4.7 91.3-41.2 1.3z"/><circle cx="1309.9" cy="727.2" r="4" fill="#71767c"/><path fill="#ed0007" d="m1317.8 723.9 24.4-1.5.3 5.7-24.4 1.5z"/><path fill="#eff1f2" d="m1371.4 730 34.4.4-2.9-32.6-27.1-3.5z"/><path fill="#eff1f2" d="m1375.3 699.8 28.9 11.5 10.7-27-44.1-2.4zm-92 33.3-35.1 11.6-7.3-31.1 25.8-14.2 16.5 33.7z"/><path fill="#eff1f2" d="m1272.6 707.9-28.2 19.5-14-14.9 37.9-22.6 4.3 17.9z"/><path fill="none" stroke="#2e3033" stroke-linecap="round" stroke-miterlimit="10" stroke-width="2" d="M1291.1 752.2s-18.6-1.2-21.5 31.7c-7.4 84.1-55.1 190.1-103.6 227-48.7 37.1-134.6-11.3-58.1-50.2 64.2-32.7 2.9-69-28.2-84.5"/><path fill="#003e64" d="M1332.2 409.4c3.1 2.7 10.3 10.4 12.5 17.5.2.6.6 1.2 1.3 1.4s1.4 0 1.8-.6c.6-.9.8-2 .5-3-2.4-9.2-9.5-16.6-14.3-19.2-1.1-.4-2.3-.1-3.1.7-.6.8.2 2 1.4 3zm14 35.3s-42 7.3-79.6 1c0 0 34.3 13.9 43.1 15.6 11.3 2.2 31.3 3 40.1-1.1 6.8-3.2 11.3-8.4-3-17.7-.4-.2-.5 2.1-.5 2.1z"/><path fill="#005587" d="m1266.5 445.8 27.3 3.8c40 7.6 52.3-4.8 52.3-4.8 4.9-22.8-8.8-32.7-12.5-36.1-9.2-8.3-22.3-9.8-22.3-9.8-16.4-3.2-27.7 4.7-27.7 4.7-20.8 14.4-17.1 42.3-17.1 42.3z"/><path fill="#003e64" d="M1290.1 400.5s37 12.1 35.5 50.9c.4 2.9 8.2-1 8.2-1 4.1-28.6-19.6-47.7-33.4-52.4-10.1-3.4-10.3 2.5-10.3 2.5m-5.3 20.2c4.8 3.5 13.2 10.8 15.9 20.2.2.9.9 1.6 1.8 2s2 .2 2.7-.6c1.1-1 1.4-2.5.9-3.9-4.6-12-11.9-20.3-18.4-22.5h-.2c-3.1-1.1-5.3 2.8-2.7 4.7z"/><path fill="#002742" d="m1270 456.3 1.5-9.5c.7-4.2 2.1-5.5 6-5.9 3.5-.4 6.6-.2 9.2 2.7s3.4 7.3 3.7 11.3q.75 10.95 0 21.9c0 1.7-.2 3.6-1.3 4.9-1.4 1.7-3.9 1.8-6.1 1.9-2.7 0-5.5 0-8-.9-4.2-1.7-6.8-6.1-7.1-10.6 0-2 .1-3.9.5-5.9.5-2.9 1.8-6.7 1.6-9.5-.2-2.6-2.5-5.5-3.4-8-2.4-6-2.9-12.6-1.4-18.9 2.3-9 9.6-16.7 18.9-17.2.4.5.4 1.2 0 1.8-3 3.2-4.9 7.2-5.5 11.6-.2 1.6-.3 3.4-1.6 4.2-1.7 1.1-4.1-.3-4.9-2.2s-.7-4-1.2-6c-5.6 7.9-5.1 19.6.6 27.5"/><path fill="#c1c7cc" d="m1371.4 729.8-4.6 9.2s13.7.2 15 .2c7.5 0 24.1-8.9 24.1-8.9l-34.4-.5zm-88.1 3.3 5 9.5s-13 4.6-14.3 5c-7.2 2.3-25.8-3-25.8-3z"/><path fill="#71767c" d="M1422.3 1046c-.6-.2-1.3-.2-1.9 0l-14 5.8c-.2 0-.4.1-.7.2l-15.2 2.2c-.5 0-1 .3-1.4.6l-6.6 5.6 2.7-.7h.2l19-3.7c.9-.2-1 .8 0 .6l17.8-5.4c1.5-.4 2.3-2 1.9-3.4-.3-.9-.9-1.6-1.8-1.9zm-26.2-48.4-4.7.5c-.8 0-1.5.7-1.7 1.5l-3.1 9.6c-.3 1.1.2 2.2 1.3 2.5.8.3 1.7 0 2.2-.7l7.8-10.2c.7-.9.5-2.1-.4-2.8-.4-.3-.9-.4-1.4-.4m32.8 5.8-4.3 1.3c-.8.2-1.5.8-1.9 1.5l-1.8 2.8c-1.1 1.6-.6 3.8 1 4.9 1.2.8 2.7.7 3.9 0l6.2-4.2c1.6-1.1 2-3.3.9-4.9-.9-1.3-2.5-1.8-4-1.4m-28.4 29.8-1.8.7c-.3.1-.6.3-.8.6l-.8 1.2c-.9 1.3.5 2.7 1.8 1.7l2.6-1.9c1.4-1 .6-3-1-2.4zm17.1-36.5 5-5c1.2-1.1 1.2-3 0-4.2l-2.2-2.4c-1.1-1.2-3-1.4-4.2-.3-.2.2-.5.5-.6.8l-4.8 8.3c-.9 1.4-.4 3.3 1 4.1.9.5 1.9.6 2.8.1l1.9-.8c.4-.2.7-.4.9-.7zm-55.1 60.6 3.2-5.2c0-.2.2-.3.2-.5l.2-2.7c0-.6-.5-1.1-1-1.1-.4 0-.8.2-1 .6l-6.3 10.2c-.4.4-.3 1.1.1 1.4.4.4 1.1.3 1.4-.1l2.8-2.4s.2-.2.2-.3zm5.5 5.3 5.7-1.9c.2 0 .3-.1.5-.2l1.8-1.4c.7-.6-.2-1.3-1.3-.9 0 0-11.9 5.1-10.6 5l3.7-.4h.4zm14.4-25.6 4.8-3.9c.2-.1.3-.3.3-.5l1-2.7c.3-.6 0-1.3-.6-1.6-.4-.2-.8-.1-1.2.1 0 0-9.4 10.3-8.2 9.9l3.5-1.2c.1 0 .3 0 .4-.2zm43.4-12.6h4.2c2 .1 3.6 1.8 3.6 3.9 0 .8-.3 1.7-.9 2.3l-6.7 7.9c-.7.8-1.8 1.3-2.9 1.3l-7.3-.2c-2 0-3.6-1.7-3.6-3.8 0-1.1.5-2.1 1.4-2.8l9.7-7.8c.7-.5 1.5-.8 2.4-.8zm-58.2 7 2.9-6.4c.7-1.4 2.4-2.1 3.8-1.4.2 0 .4.2.5.3l2.5 1.8c1.3.9 1.5 2.8.6 4-.1.2-.3.3-.5.5l-5.4 4.6c-1.2 1-3 .9-4.1-.3-.7-.9-.9-2.1-.4-3.1zm38-7-6-1.5c-1.2-.3-2.5-.4-3.8-.2-1.9.5-3.9-1-2.4-2.6l7.5-8.4c.5-.6 1.3-.8 2-.7l3.3.6c.9.2 1.8 2.4 2.2 4.8.5 3 .3 7.7-2.8 8m-13.2 21-3.6-2.9c-.3-.2-.7-.3-1-.2l-12.8 3.7c-.2 0-.4.2-.6.4l-3.4 4.3c-.4.5-.3 1.2.2 1.6.2.2.5.3.8.2l6.9-.6c.3 0 .5-.1.7-.3l3.4-3.3c.2-.2.5-.3.7-.3l8-.5c.6 0 1.1-.6 1.1-1.2 0-.3-.2-.6-.4-.8zm-150.7-4.5 11.6 3.2c3.1.9 6.3 1.4 9.5 1.5l7.9.3q4.2.15 7.8 2.4l4.4 2.8-2.9-.4-19.9-1.6c-1-.1 1.1.7.1.6l-17.8-3.2c-1.6-.3-2.7-1.9-2.4-3.5.2-1 .8-1.8 1.7-2.2zm21.6-50.2 6.1-.9c.8-.1 1.6.3 2 1l10.1 15.1c.6.9.4 2.2-.5 2.8q-.45.3-.9.3s-4.7.6-4.6.5c-2.5-3.1-5.4-6.1-8-8.8l-.1-.1-5.4-6.7c-.7-.8-.6-2.1.2-2.8.3-.3.7-.4 1.1-.5zm-35.9 9.6 6.7 1.3c.7.1 1.4.5 1.8 1.1l3.2 3.8c1.1 1.3 1 3.3-.3 4.5-1 .8-2.4 1-3.5.4l-9.9-5c-1.6-.7-2.3-2.5-1.7-4.2.6-1.4 2.2-2.2 3.7-1.8zm12.7-7.3-5.1-3.9c-1.5-1.2-1.8-3.4-.6-4.9l1.3-1.7c1.2-1.5 3.4-1.8 4.9-.6.2.2.5.4.6.6l4.5 5.8c1.2 1.5.9 3.7-.6 4.9-.9.7-2.1.9-3.1.6l-.7-.2c-.4-.1-.8-.3-1.1-.6zm-5.8 27.8c-2.9.4-5 3-4.7 6 .2 1.3.8 2.5 1.7 3.3l4.1 3.7c1.2 1 2.7 1.5 4.3 1.3l1.7-.2c3-.3 5.1-3 4.8-6-.2-1.7-1.2-3.2-2.6-4l-5.8-3.5c-1-.6-2.3-.9-3.5-.7zm-15.4-2.2c1.6.7 3.4.3 4.5-1.1 1.2-1.7.4-3.7-2.5-5.1l-5.6-2.4h-.3c-2.3-.9-4.8.2-5.7 2.4-.2.8 0 1.6.5 2.2.9 1.4 2.5 2.3 4.1 2.4 1.7.3 3.4.8 5 1.5zm79.3 7.7-7.6-12.2c-.5-.7-1.4-1-2.2-.5 0 0-.1 0-.2.1l-4.8 4.2c-.6.6-.7 1.6-.1 2.2 0 .1.2.2.3.3l12.4 8c.7.4 1.7.2 2.2-.5.3-.5.3-1.1 0-1.6m-22.5-3.8-4.6-3.4c-1.4-1-3.2-.6-4.2.7-.2.3-.4.7-.5 1.2-.2.9.4 1.8 1.3 1.9l7.2 1.2c.5 0 .9-.3 1-.8 0-.3 0-.7-.3-.8zm-19.2-10.8 2.9 1.5c1.5.7 3.3 0 4-1.5.5-1.2.3-2.5-.6-3.4l-2.5-2.1c-.8-.7-2-1-3-.7-1.8.5-2.8 2.3-2.3 4.1.2.9.8 1.6 1.6 2zm38.9 34.3 31.2 6.8-26.7-12.6-4.6 5.8zm-26.8-14.6c.6-.5 1.4-.8 2.2-.7l9.7 1.6c2.3.4 4.4 1.4 6.1 3.1l3.5 3.4-10.2.2-4.5-3.4-4.8.2c-1.4 0-2.6-1-2.7-2.4 0-.8.3-1.5.8-2zM198.3 924h927.8v29.3H198.3zm0-221.8h927.8v16.7H198.3zm3.3-456.3h927.8v16.7H201.5v-16.7z"/><path fill="#71767c" d="m221.8 498.9 885.9 446.9 6.9-12.9-885.9-447-6.9 12.9zm878.1-457.4-886 446.9-6.9-12.9 885.9-447 6.9 12.9z"/><path fill="#71767c" d="M198.3 467.7h927.8V497H198.3z"/><path fill="#71767c" d="M1082.6 1040.9V1.4h29.3v1039.5zm-875.6 0V0h29.3v1040.9z"/><path fill="#003e64" d="m406.5 681.3-3.1-4.8-3.4-.6-33.5 172.7c-6.1-.8-6.8 3-6.8 3l-4.4 20.7-6.9 6.7-3.4 17.7-17.7 87.3s-45.3-9.3-75.7-15.6c-9.1-1.9-17.2 46.5-13.1 47.3 2.2.4 11.2 1.7 11.2 1.7l-8.1 40.2c-3 17.1 68.5 22.7 84 24.5s19.5-13.7 19.5-13.7l30.6-154.5 1.9-14.6 2.7-14.1-4-8.7s2.1-13.5 3.2-19.8-5.3-6.5-5.3-6.5l32.4-168.9zm-114.7 360.3c16.8 3.4 29.4 11.5 28 18.2s-16.1 9.4-32.9 6-29.4-11.5-28-18.2 16-9.4 32.9-6"/><path fill="#c1c7cc" d="m378.5 899.2 2.1-14.2-4.3-8.6-21-4.1-6.9 6.7-2.86 13.966z"/><path fill="#005587" d="m375.6 914-5.7.4-18.4 88-26.8-5.7-74.7-16s-4 9.4-4.9 14.5c-.8 4.1-1.9 8.4-1.9 8.4l110.2 22.7 22.1-112.2z"/><path fill="#eff1f2" d="m377.8 832.5.518-2.898c-1.9-3.3-4.017-6.227-6.517-9.127l-.563 2.73c2.7 2.6 6.562 9.295 6.562 9.295m1.8-9c-2-3.4-4.3-6.5-6.8-9.4l-.4 2.8c2.7 2.6 5 5.7 6.6 9.1zm1.1-5.7c-2-3.4-4.3-6.5-6.8-9.4l-.4 2.8c2.7 2.6 5 5.7 6.6 9.1zm1.3-5.7c-2-3.4-4.3-6.5-6.8-9.4l-.4 2.8c2.7 2.6 5 5.7 6.6 9.1zm.89-6.178c-1.9-3.4-3.99-6.222-6.49-9.122l-.556 2.673c2.7 2.6 4.985 5.66 6.585 9.06l.071.167zm.51-3.422.7-2.5c-1.9-3.4-4.2-6.5-6.8-9.4l-.4 2.8c2.7 2.6 4.9 5.7 6.5 9.1m1.1-5.7.7-2.5c-1.9-3.4-4.2-6.5-6.8-9.4l-.4 2.8c2.7 2.6 4.9 5.7 6.5 9.1m1.2-5.7.7-2.5c-1.9-3.4-4.2-6.5-6.8-9.4l-.4 2.8c2.7 2.6 4.9 5.7 6.5 9.1m1.2-6.1.7-2.5c-1.9-3.4-4.2-6.5-6.8-9.4l-.4 2.8c2.7 2.6 4.9 5.7 6.5 9.1m1-5.8.7-2.5c-1.8-3.3-4-6.5-6.5-9.4l-.4 2.8c2.6 2.6 4.7 5.7 6.2 9.1m1.3-5.9.7-2.5c-2-3.4-4.3-6.5-6.9-9.5l-.4 2.8c2.8 2.6 5 5.7 6.6 9.2m1.2-6.2.7-2.5a62.5 62.5 0 0 0-6.709-9.483l-.46 2.747c2.7 2.6 4.969 5.836 6.569 9.236zm1.1-5.6.7-2.5c-1.9-3.3-4.1-6.5-6.7-9.4l-.529 2.702c2.7 2.6 5.029 5.798 6.529 9.198m1.2-6 .477-3.027c-1.9-3.3-3.877-5.973-6.477-8.873l-.4 2.8c2.7 2.6 4.9 5.7 6.4 9.1m1.5-8.145c-1.9-3.4-3.933-6.108-6.533-9.008l-.53 2.798c2.7 2.6 5.052 5.659 6.552 9.059zm1.093-5.613c-2.1-3.4-4.09-5.92-6.79-8.82l-.603 2.778c2.9 2.6 5.08 5.406 6.88 8.806zm1.007-5.242c-1.8-3.3-4.05-6.615-6.45-9.515l-.648 2.764c2.5 2.6 5.098 5.951 6.498 9.251zm.4-3 .7-2.5c-1.9-3.3-4.1-6.5-6.6-9.4l-.4 2.8c2.7 2.6 4.8 5.7 6.3 9.1m1.1-5.8.7-2.5c-1.9-3.3-4.1-6.5-6.6-9.4l-.4 2.8c2.7 2.6 4.8 5.7 6.3 9.1m1.2-5.8.7-2.5c-1.9-3.3-4.1-6.5-6.6-9.4l-.4 2.8c2.6 2.6 4.8 5.7 6.3 9.1m1.7-8.2c-1.9-3.3-4.1-6.5-6.6-9.4l-.4 2.8c2.7 2.6 4.938 5.737 6.438 9.137zm.9-5.3a59.3 59.3 0 0 0-6.325-9.377l-.46 2.764c2.5 2.6 4.93 5.895 6.33 9.195zm1.2-5.7a60 60 0 0 0-6.364-9.41l-.546 2.833c2.5 2.6 4.91 5.777 6.31 9.077zm.6-3.4.7-2.5c-1.9-3.4-4.2-6.5-6.8-9.4l-.4 2.8c2.7 2.6 4.9 5.7 6.5 9.1m1.2-5.9.7-2.5c-1.9-3.4-4.2-6.5-6.8-9.4l-.4 2.8c2.7 2.6 4.9 5.7 6.5 9.1m.9-4.7.7-2.5c-1.9-3.4-4.2-6.5-6.8-9.4l-.4 2.8c2.7 2.6 4.9 5.7 6.5 9.1m1.3-7.1s-.5-2.1-3.8-5.9l-3 .2c2.4 2.5 4.98 4.842 6.28 8.042z"/><path fill="#ed0007" d="M289.9 1073.6c3.3.6 6.7-1.1 8.2-4.1l.6-1.2c2.8-5.8-6.6-1.5-11.5-2.6-3.8-.8-6.6-4.7-8.9-2.7 0 0-.3.3-.8 3.2-1.2 6.2-.5 5.3 5.4 6.5 2.5.5 5 .7 7.2 1z"/><path fill="#c1c7cc" d="m371.7 913 4.3.9-15.9 79.3-7.1-1.4c-6.3-1.3-10.4-7.4-9.1-13.7l10.8-53.7c1.6-7.9 9.2-12.9 17.1-11.4z"/><path fill="#003e64" d="m364.8 968.2-3.8-.8-5.1 24.9 4.1.9c2.2-4 3.5-8.5 3.7-13.1 0 0 3.6-3.5 1.1-11.8z"/><path fill="#2e3033" d="m237.4 965.5 21.9 4.4-10.8 53.5-21.9-4.4z"/><path fill="#ed0007" d="m228.1 1019.3 12.2-53.2-4.2-.9s-5.9-2.9-12 24.6c-1.4 6-5.3 27.3-2.2 28.2l6.3 1.3z"/><path fill="#c1c7cc" d="M376.6 850.5c2.4.5 4 2.8 3.5 5.1l-3.8 20.9-21-4.1 3.9-20.8c.5-2.4 2.8-4 5.1-3.5z"/><path fill="#003e64" d="m375.9 914-70.4-13.6c-2.7-.5-4.4-3.1-3.9-5.8l.9-4.8c.5-2.7 3.1-4.4 5.8-3.9l70.2 13.3L376 914z"/><path fill="#ed0007" d="m338.6 986-6.9-1.2 5.3-29.6 6.9 1.2z"/><ellipse cx="342.158" cy="946.078" fill="#c1c7cc" rx="5.1" ry="5" transform="rotate(-1 342.158 946.078)"/><path fill="#43464a" d="M1025.7 349.3v63h-178v-63H831v730.1h16.7V989h178v90.4h16.7V349.3zM847.7 765h178v95.3h-178zm0-16.7V653h178v95.3zm0-112V541h178v95.3zm178-207.3v95.3h-178V429zm-178 543.3V877h178v95.3z"/><path fill="#005587" d="m552.8 1043.6-2-29c.3-2.2 1.1-11.3-3.2-10.4-3.1.7-5.541 1.398-7.741 1.198 2 1.1 1.241 5.602 1.241 5.602-1.9 4.9-.4 4.8 1.3 5.5 1.3.4 2.7.5 4.1.3 0 0 4.1 0 4.4-2.2h-.1Zm-14.5-38.6h-.1z"/><path fill="#2e3033" d="M543.7 992c1.3-3.8 6.1-22.7-7.9-24 0 0-9.3 2-10.7 2.2s-3 1.9-3 1.9l-11.6.8s-5.3 3.1-7.8 4.5c-1.6 1-2.5 2.7-2.5 4.5l-1.9.6v4.9c.1 0 2.4.4 2.4.4.2 2.1 2.7 3.8 2.7 3.8l9.4 3.5 11.4-.9c2.9 1 6 1.6 9 1.7.4 0 9.3-.2 10.6-3.8z"/><path fill="#005587" d="M586.9 1070.4c-1.3-2.3-8.3-6.4-8.3-6.4v-1.4c.2-.6 1.1-1.6 1.2-2.2.4-1.4 0-3.2 0-5.7s-3.8-4-3.8-4c-1.2-1.7-2.2-3.5-3.1-5.4-.6-1.8-1.7-13.5-2.1-17s-1.4-11.5-1.8-15.4c-.2-1.8-.1-3.2.9-7.3.7-3.1 2.9-5.7 5.9-6.8 1.2-.5 2-.7 4.8-1.6s3.8-7.3 4.5-11.7.7-9.9-2.1-12.9c-4.5-4.7-10.4-7.9-16.8-9.2-3.4-.4-6.8.2-9.8 1.9l-1.9-.7h-5.6s-5.1.4-8.4.8c-.6 0-1.2.2-1.8.4h.5c1.8 0 6.1 2.4 8.6 5.8 1.8 2.5 2.5 2.1 3.7 2.1l23.5-.4s3.3-.2 4.5 0 3.2.7 2.8 3.6c-.4 3.5-1.1 6.9-2.3 10.2-1.2 3.4-1.1 5.2-7.4 7.1-4.7 1.4-5.9.3-8.5 6s-5 12.1-5 12.1-1.2 2 .7 2.7l5.1 1.9c.9.1 1.7.8 1.8 1.8.1 1.6 1.5 17.3 1.5 17.3l.5 7.3s.7 4.2 1.8 5.5c1 1 1.9 2 2.8 3.1.6 1 1.9 2.4.2 2.7-1.5.3-14.5 2.8-14.5 2.8l-5.4 13.5-7 1.6-3.5-2.5-15.1-7.1-3.6-1.1-8.1 13.2v5.3l22.5 11.8 45.4-11.1s2.3-2.3 2.7-3.3c.7-1.6.9-5.3 0-6.8z"/><path fill="#003e64" d="M579.7 973c-1.1-.1-4.5 0-4.5 0s-17.7.3-23.5.4c-1.2 0-1.8.4-3.7-2.1-2.5-3.4-6.8-5.8-8.6-5.8h-.5a8 8 0 0 0-.78.383A5.8 5.8 0 0 0 535.7 968c.216-.297.457-.568.713-.821a7 7 0 0 0-.613.721c14 1.3 9.3 20.2 7.9 24s-9.867 3.96-10.367 3.96h-.367s1.934 6.54 4.134 8.44c.3.3 1.587.924 2.5 1 2.2.3 4.867-.258 7.967-.958 4.4-.9 3.533 7.958 3.133 10.158s-4.4 2.2-4.4 2.2.354.245 1.2.8l.9.6.4 4.4c.312 3.276 1.416 8.128 1.23 7.295.392 1.691 2.238 9.798 2.67 13.705 0 .188-.05.374-.113.557-.242.407-.61.755-1.032.915-4.852.728-18.855 6.728-18.855 6.728l-.397.775-6.372 7.37c-.618.496-.837.698-1.53 1.455l.213.066c-.04.046.002 0 .002 0l3.599 1.15 15.07 7.258 3.415 2.426 7.063-1.526 5.438-13.229s12.93-2.407 14.43-2.707c1.7-.3.469-2.138-.131-3.138-.9-1.1-1.8-2.1-2.8-3.1-1.1-1.3-1.8-5.5-1.8-5.5l-.5-7.3s-1.4-15.7-1.5-17.3c0-.9-.8-1.7-1.8-1.8l-5.1-1.9c-1.9-.7-.7-2.7-.7-2.7s2.3-6.4 5-12.1 3.8-4.6 8.5-6c6.3-1.9 6.2-3.7 7.4-7.1 1.1-3.3 1.9-6.7 2.3-10.2.3-3-1.7-3.5-2.8-3.6"/><path fill="#2e3033" d="m580.366 1065.124-33.755 6.964-3.253-2.25-15.143-7.321-3.815-1.217-8.094 13.59-.006 5.41 22.578 11.868 45.48-11.33s2.3-2.3 2.7-3.3c.6-2.2.6-4.6 0-6.9-.8-2.3-6.692-5.514-6.692-5.514"/><path fill="#ed0007" d="M539.978 1005.763s1.697.356 7.097-1.044c3.9-1 3.9 3.3 4 6.4 0 2.4.4 3.8-1 5 0 0-1.2 1.1-4.2 1.2-3.9 0-6.6-.4-5.5-3.9 1-3.2.8-6.1-.7-7.7zm14.297-5.244c.2.2 7.6 0 7.6 0l2.8-3.4s.6-1.3-1.4-1.2c-2.9.5-5.7 1.1-8.5 1.9 0 0-2.3.2-.5 2.6zm-5.2-35.6c1.9.6 3.5 1.7 4.7 3.2h10.5c-2.3-1.6-5-2.5-7.7-2.7 0 0-2.2-2-7.4-.5zm-20.88 97.956 8.032 3.83s-6.452 7.914-7.652 11.014l-6.2-2.8s-.5-2 1.8-5.7 4.02-6.344 4.02-6.344m-9.42 13.244 14.6 7.2v3.3l-2 1v.6l-11.508-6.019-.192-.681-1-1.5v-3.9z"/><ellipse cx="553.983" cy="978.9" fill="#c1c7cc" rx="3.317" ry="3.3"/><path fill="#ed0007" d="m579.6 979.8-18.7.8v-4.1c-.1 0 18.6-.4 18.6-.4v3.7z"/></g></svg>