<svg xmlns="http://www.w3.org/2000/svg" viewBox="0 0 598 400"><path fill="#d0d4d8" d="M324.989 246.002c-2.344-2.757-3.585-7.307-4.688-12.684-1.792-9.237-3.171-18.337-4.688-26.747-4.412 6.066-11.305 11.857-19.715 24.403 4.688 11.167 8.824 19.44 8.824 19.44l49.495 77.069 10.202-5.928c-7.031-13.373-7.996-15.993-10.892-23.714-9.099-23.989-13.511-35.019-28.539-51.839Z"/><path fill="#101112" d="m304.997 180.652-23.438-.827s-.414 5.653 1.379 20.681c1.93 15.028 15.717 49.909 15.717 49.909l28.677-8.824s-3.723-9.927-7.169-19.991c-3.447-10.478-3.585-22.059-6.756-26.195-4.136-5.377-8.41-14.614-8.41-14.614z"/><path fill="#656a6f" d="M364.584 321.576c-2.482-4.963-6.556-12.836-8.211-16.421l-11.764 7.369 9.593 14.981 10.381-5.929Z"/><path fill="#eff1f2" d="M291.094 176.927h29.125c2.206 16.683.551 23.714-4.412 30.331-4.412 6.066-11.305 11.857-19.715 24.403-2.344 3.447-4.688 7.307-7.169 11.719-2.757 4.825-4.688 9.099-4.55 12.822 1.103 29.78-2.686 16.018-25.801 80.501l-11.039-3.386 17.262-85.249s12.964-37.847 17.68-48.536 7.531-11.126 8.619-22.605"/><path fill="#c1c7cc" d="m247.249 333.675 11.46 3.038c1.654-4.688 5.928-16.026 7.168-19.335l-14.305-4.163-4.324 20.46Z"/><path fill="#383b3e" d="m258.673 336.706-1.103 12.133-24.403-7.307c-3.171-.965-5.791-3.309-7.169-6.342l21.232-1.517zm113.191-5.224-19.991 15.166c-2.62 1.93-5.928 2.62-9.237 1.93l11.581-21.094.414-.276 9.927-5.653 7.445 10.065-.138-.138Z"/><path fill="#c1c7cc" fill-rule="evenodd" d="m286.386 148.665-15.166-7.721-3.722 13.373-21.646-16.269-10.34 10.065 9.237 2.757s26.057 29.366 39.017 17.372l2.344-19.715z"/><path fill="#2e3033" d="M252.331 147.011c.827 0 1.542-.304 2.02-.889s.435-1.399.186-2.144l-8.41-21.921c-.276-.827-1.103-1.379-1.93-1.517l-10.892-.138c-.689 0-1.517.276-1.93.965a2.2 2.2 0 0 0-.276 2.068l8.41 21.921c.276.689.827 1.241 1.654 1.379h.414"/><path fill="#eff1f2" fill-rule="evenodd" d="m246.541 135.982-11.857-.414.827 12.554s5.015-3.159 7.583-4.833 3.723-4.825 3.447-7.307"/><path fill="#c1c7cc" d="M301.92 99.369c-1.792.551-3.585.689-5.515.551-.138 1.517-.276 2.895-.414 4.412 2.206-1.241 4.136-3.033 5.928-4.963Z"/><path fill="#2e3033" d="M314.787 81.385c-.551-4.412-5.791-7.031-5.791-7.031-.414-7.445-9.651-4.825-9.651-4.825s-7.031-3.447-10.616-1.654c-3.447 1.654-.827 6.618-2.206 8.272-.827 1.379-1.517 2.895-1.792 4.412 0 0-.689 5.791 3.998 8.41a55 55 0 0 1-.827-6.894c2.068.827 4.274.965 6.48.689 5.377-.827 10.065-4.412 10.065-4.412s0 6.204.414 8.41c0 .138 0 .414.138.551 1.241-1.93 3.171-4.274 4.688-2.757 1.93 2.068-1.543 6.751-2.784 8.268l.414.827s7.989-7.384 7.472-12.266Z"/><path fill="#eff1f2" d="M296.036 103.859c-.551 4.136-1.103 8.134-1.103 8.134l14.338-8.134-1.93-10.202-.414-.827c1.241-1.517 4.688-6.342 2.757-8.41-1.517-1.517-3.447.827-4.688 2.757-.097-.314-.095-.322-.138-.551-.414-2.206-.414-8.41-.414-8.41s-4.825 3.585-10.065 4.412c-2.206.414-4.412.138-6.48-.551 0 2.206.414 4.55.827 6.756.138.827.414 1.792.551 2.757.689 2.757 1.654 5.515 2.757 8.134 1.379.414 2.895.689 4.274.827s2.895 0 4.274-.414c-1.379 1.379-2.895 2.757-4.55 3.722ZM328.988 211.535l-4.688 3.309-1.517-2.068 8.582-12.263-1.964 10.746z"/><path fill="#c1c7cc" d="M334.64 223.116c-1.792 1.93-6.342 2.757-8.824.965l2.895-10.616 11.443 1.103c-.414.551-3.86 6.894-5.515 8.548Z"/><path fill="#71767c" d="m255.777 143.978-8.548-21.921c-.276-.827-1.103-1.517-2.068-1.517h-1.264c.827 0 1.946.619 2.222 1.584l8.356 21.893c.276.689.199 1.477-.214 2.029s-1.103.965-1.792.965h1.103c.827 0 1.517-.414 1.93-.965a2.2 2.2 0 0 0 .276-2.068Z"/><path fill="#383b3e" d="M291.487 249.312s4.55-9.651 8.686-16.682c3.998-7.031 24.679-27.16 20.818-50.736h-31.572c0 3.585-5.791 10.478-10.065 20.818s-13.787 37.914-13.787 37.914z"/><path fill="#54aba5" d="m294.933 111.993 14.338-8.134 17.786 9.787-5.102 71.555h-42.05v-25.397s-.784-4.693-1.732-10.631l-9.159-5.334 6.119-20.974c.79-4.824 3.808-9.375 8.219-11.977l12.684-7.03z"/><path fill="#eff1f2" d="M338.363 201.194c-.138.689 2.482 9.789 1.792 13.373l-11.443-1.103 2.344-12.133c0-.276-.138-3.309-.414-7.583-.551-8.134-.276-25.644-.827-35.295-2.206-3.998-5.928-11.03-8.824-18.199l16.407-5.377c3.86 6.204 5.239 14.339 5.928 19.853 3.033 11.305-1.923 31.691-4.267 43.686l-.696 2.777Z"/><path fill="#2e908b" d="M341.395 137.361s-6.204-12.408-9.513-18.475c-3.309-6.066-6.893-9.099-12.546-7.169-6.066 2.068-7.583 9.237-6.066 14.89 1.654 6.204 5.101 15.441 6.756 19.853l21.37-9.099Z"/></svg>