<svg xmlns="http://www.w3.org/2000/svg" viewBox="0 0 557 588"><g fill="none" fill-rule="evenodd" transform="translate(.415 .78)"><path fill="#43464A" fill-rule="nonzero" d="M188.76 261.73h-61.92v-8.37h61.92z"/><path fill="#43464A" fill-rule="nonzero" d="m152.42 161.09-8.96 68.19-1.44 10.96-2.82 21.5h-36.67l3.55-21.5 1.82-10.96 11.27-68.19z"/><path fill="#8A9097" fill-rule="nonzero" d="m152.42 161.09 36.34 68.19h-45.3z"/><path fill="#8A9097" d="m484.57 585.54-9.89-191.53h-85.89l-9.89 191.53h-12.37l16.19-313.44h12.36l-5.65 109.55h84.61l-5.66-109.55h12.37l16.18 313.44z"/><path fill="#C1C7CC" fill-rule="nonzero" d="M205.92 259.739h349.25v12.36H205.92z"/><rect width="203.66" height="132.32" x="38.91" y="96.969" fill="#8A9097" fill-rule="nonzero" rx="10.28"/><rect width="203.66" height="132.32" x="46.01" y="96.969" fill="#D0D4D8" fill-rule="nonzero" rx="10.28"/><path fill="#00381B" fill-rule="nonzero" d="m343.7 273.78-.28.13L223.93 319c28.29 2.35 36.86 16.49 46.19 49.71 102.15-19.84 167.22-.69 169.28-56.55l-22.27-9-73.34-29.47z"/><path fill="#00381B" fill-rule="nonzero" d="m223.93 319 3.53 39.39 21.45 193.94 3.83 1.54 25.2 9c11.47-109.35 12.13-169.1 2.94-202.17s-28.58-39.25-56.95-41.7"/><path fill="#D0D4D8" d="m466.48 350.16-84.12.27-84.12-.27c.022 11.52 9.37 20.845 20.89 20.84H323l-11.85 213.83h13.39l11.85-213.71 40.66.17h10.62l40.66-.17 11.85 213.71h13.39l-11.85-213.77h3.87a20.88 20.88 0 0 0 20.89-20.9"/><path fill="#00210E" fill-rule="nonzero" d="m100.13 574.55.15.22a29 29 0 0 0 22.49 10.66h75.76L191.92 561l-32.7-9.48-59.09 23zm148.78-22.19-43 22.19.15.22a29 29 0 0 0 22.49 10.66H283l-4.55-22.27-.59-.22z"/><path fill="#00381B" fill-rule="nonzero" d="m376.29 351.82-22 1.11c7.83-.48 15.16-.81 22-1.11"/><path fill="#00512A" fill-rule="nonzero" d="M454.09 284.41c1.47 73.17-31.41 65.41-77.8 67.41-6.84.3-14.17.63-22 1.11l-65.62 3.32-60.54 3.05-44.24-50.48 162.27-38.07z"/><path fill="#383B3E" fill-rule="nonzero" d="m143.46 229.28-1.44 10.96h-35.94l1.82-10.96z"/><path fill="#86D7A2" fill-rule="nonzero" d="M201.56 255.35c3 3.33 23 2.93 30.55 2.49 9.41-.56 21-21.14 21-21.14H222zm286.65 4.39h-37.87v-22.11h34.14z"/><path fill="#37A264" fill-rule="nonzero" d="m486.82 258.38 1.05-.2s-15.12-91.11-22-121.1c-4.1-17.86-28.33-27.41-36.64-30.92-18.38 4.11-9.12 35.24-7.28 45.9 4.41 25.87 11.09 56.14 14.55 71.5 25.57-.36 45.39 9.1 50.32 34.82"/><path fill="#37A264" fill-rule="nonzero" d="M453 222.7c4.24 13.6 2.84 36.35 35.21 37l-7.94-43.36z"/><path fill="#B8EFC9" fill-rule="nonzero" d="M400.74 67.33s-.25-.62-.6-1.61c3.22-4 12.15-16 7.23-21.43-3.7-4.15-8.87 1.89-12.1 6.85-.1-.52-.21-1-.32-1.43-1.06-5.69-.8-21.46-.8-21.46s-13.79-6.67-27.4-4.6c-6.35 1-13.32 5.76-15.32 8.18.15 5.92.72 17.29 1.76 23.14.4 2.24.86 4.57 1.47 6.91C358.3 76.13 361.39 83 361.39 83a45 45 0 0 0 11.1 2.14c-.29 2.6-.68 5.35-1 8.1-1.37 10.72-2.76 20.93-2.76 20.93l39.94.49z"/><path fill="#5EBD82" fill-rule="nonzero" d="M442.38 112.6 410.47 97l-43.35.71L338.46 118a22.57 22.57 0 0 0-9.46 14.22c-1.84 8.45.07 18.37 1.69 28.59l8.75 65.11v.22l6.76 44.61c59.62 29.38 107.91 13.66 107.91 13.66 20-89.07 5.53-128.84-.17-156.85a21.4 21.4 0 0 0-11.56-14.96"/><path fill="#37A264" fill-rule="nonzero" d="M413.05 33.46C411.92-7.66 373.69-2.18 369.35 5c-13.54-6.09-38.61 13.48-17.84 28.18a17.14 17.14 0 0 1 8.39-5.53c.18 5 .94 14.43 2.44 24.61 1.81 12.33 10.44 12.66 17.23 26.6.9 1.86 3.23 2.13 5.23 2.63 3.13.79 10.15 1.14 12.67.44s4.55-1.48 4.93-4c2.09-13.88 11.13-27.19 10.65-44.47"/><path fill="#B8EFC9" fill-rule="nonzero" d="M363.74 65.79c2.27-4.08 8.6-16.3 5.46-21.58-2.36-4-6 2.13-8.3 7.17z"/><path fill="#86D7A2" fill-rule="nonzero" d="m372.49 85.18.55-3.49L361.39 83a45 45 0 0 0 11.1 2.18"/><path fill="#656A6F" fill-rule="nonzero" d="M293.04 259.74H165.32V247.5h127.72z"/><path fill="#006C3A" fill-rule="nonzero" d="m183.91 308.81-24.62 242.82 32.7 9.48s49.36-152.33 36.16-201.81c-8.27-31.01-44.24-50.49-44.24-50.49"/><path fill="#37A264" fill-rule="nonzero" d="M371 145.2h-42.52c.43 5 1.35 10.27 2.19 15.61l8.75 65.11v.22l6.76 44.61a177 177 0 0 0 31.42 12c.24-36.92-4.04-104.26-6.6-137.55"/><path fill="#86D7A2" fill-rule="nonzero" d="M366.56 259.72s5.92-86.46 4.45-114.52c-.46-8.83-6.42-27.7-25.33-27.552-18.41.151-17.44 18.941-17.44 27.551 0 27 2.5 114.52 2.5 114.52z"/><path fill="#B8EFC9" fill-rule="nonzero" d="M312.24 230.13c-17 1.34-33 7.35-51.52 11.07l-7.61-4.5H222s11 11.77 17 16.89c7.2 6.15 24 6.15 30.34 6.15h97.2C346.17 259 330 244.54 330 229.36c-6.1-.1-12.25.34-17.76.77"/><path fill="#8A9097" fill-rule="nonzero" d="M0 259.74v12.36h51.29L35.11 585.54h12.36L57.36 394h87.56l9.89 191.53h12.37L151 272.1h54.93v-12.36zm58 121.91 5.66-109.55h75l5.65 109.55z"/><path fill="#D0D4D8" fill-rule="nonzero" d="M70.87 117.649h42.23v42.23H70.87z"/><path fill="#C1C7CC" fill-rule="nonzero" d="M136.15 129.619h76v76h-76z"/><path fill="#D0D4D8" fill-rule="nonzero" d="M196.6 114.699h35.44v32.67H196.6z"/></g></svg>