<svg xmlns="http://www.w3.org/2000/svg" viewBox="0 0 700.2 752"><switch><g><path fill="#43464a" d="m364.5 655.4-12.7 38.7 9.6 42.6h21.3zm-15.8-70.2h-21.3l15.7 70.4 12.7-38.7zm10.1-202H197.5L155 513.1l21.4-.1 35.7-109h141.8zm-277 353.5h21.4l49.9-152.3-21.4.1z"/><path fill="#71767c" d="M97.9 513.9c-4.9-.1-9.1 8.7-9.1 8.7v53.6s4.2 8.8 9.1 8.2l33.7.8h171.1c-2.9-2.5-4.7-8.8-4.7-8.8v-56.2s1.3-5.6 3.7-7.2H176.3l-21.4.8h-57z"/><path fill="#a4abb3" d="M422.3 214c-14.3 0-26.7 9.9-29.9 23.8l-33.8 145.8-4.8 20.5-11.2 48.6c-2.9 12.4 4.9 24.8 17.3 27.7 1.7.4 3.5.6 5.2.6h244.1l63-267c1.1 0 2.2.1 3.3.2v-.2zm17.6-89.1c-5.2 1.3-10.7 1.8-16.1 1.5-.5 4.1-.9 8.5-1.4 12.9 6.4-4 12.4-8.9 17.5-14.4"/><path fill="#00639b" d="M493.2 53.9C491.5 37.1 471.4 27 471.4 27c-1.7-28.5-36.9-18.4-36.9-18.4s-26.9-13.4-40.3-6.7-3.4 25.2-8.4 31.9c-5 6.8-6.7 16.8-6.7 16.8s-2.4 22.1 15.4 32c-1.6-8.6-2.5-17.4-2.9-26.2 6.6 2.3 14.9 4.2 24.4 2.7 20.2-3.5 38.6-16.9 38.6-16.9s0 23.5 1.7 31.9c.1.6.3 1.3.5 2.1 4.7-7.4 12.3-16.5 17.8-10.4 6.3 7.5-5.8 25.3-10.6 31.4.5 1.3 1.1 2.7 1.1 2.7.1-.1 29.8-29.2 28.1-46"/><path fill="#d0d4d8" d="M418.6 169.9h59.3l-12.8-70.5s-.3-.8-.8-2.1c4.8-6.1 17.6-24 10.3-32-5.6-6.1-13.1 3-17.8 10.4-.2-.7-.4-1.4-.5-2.1-1.6-8.4-1.6-31.9-1.6-31.9s-18.4 13.4-38.6 16.8c-9.4 1.6-18.1-.2-24.7-2.5.4 8.8 1.3 17.5 3 26.1.6 3.3 1.4 6.8 2.3 10.2 5.7 21.1 10.4 31.3 10.4 31.3 5.4 1.7 10.9 2.6 16.5 3 5.4.4 10.8-.1 16-1.5-5.1 5.5-11 10.3-17.3 14.2-1.9 15.9-3.7 30.6-3.7 30.6"/><path fill="none" d="m332.9 584.1 35.8-160h21.4l-35.9 160"/><path fill="#d0d4d8" d="m313.8 314.8-112.4-61 3.2 47 42.1 18.5s61.9 49.9 74.8 51.6c28.5 3.9 30.7-22.1 30.7-22.1z"/><path fill="#a4abb3" fill-rule="evenodd" d="m133 710.1 9.3 35.5H29.7c-11.4 0-22.3-5.1-29.5-13.9l-.2-.3 79.2-31z" clip-rule="evenodd"/><path fill="#f0f2f2" d="M357.1 235.5c-.7-8.7-1.6-17.3-1.6-25.3 0 8 .9 16.6 1.6 25.3l6 97.8zm16.2-62.7 28.7-16zc-10.9 6.5-15.4 15.9-17 26.8 1.6-10.9 6.1-20.2 17-26.8"/><path fill="#a4abb3" fill-rule="evenodd" d="m275.6 706.5 3.5 45.5h-75.9c-5.8 0-10.5-4.7-10.5-10.5 0-2.1.7-4.2 1.9-5.9l38.7-29.2z" clip-rule="evenodd"/><path fill="#083e63" d="m307.1 308.5-39.4-102.2c-1.5-4-5.4-6.7-9.7-6.7h-31.1l-30.6-.4c-5.8-.1-10.6 4.6-10.6 10.4 0 1.3.2 2.7.7 3.9l39.3 102c1.5 4 5.3 6.6 9.6 6.7h20.9l41 .5c5.8 0 10.6-4.6 10.6-10.5 0-1.2-.2-2.5-.7-3.7"/><path fill="#d0d4d8" fill-rule="evenodd" d="m201.3 253.8 43.9 1.5c1.2 9-4.3 21.9-12.4 27.1l-28.2 18.4z" clip-rule="evenodd"/><path fill="none" d="m355.8 616.9 10.4-31.7h-17.5z"/><path fill="#5a5f63" d="m366.3 585.2 24.1-73.7H307c-4.9 0-8.8 3.9-8.8 8.8v56.1c0 4.9 3.9 8.8 8.8 8.8zm237.1-30.4c3.3-7 5-14.7 5-22.4v-3.3c0-9.7-7.9-17.6-17.6-17.6l-179.2.4-14.2 43.3z"/><path fill="none" d="m411.8 511.3-14.2 43.5h205.7c3.3-7 5-14.7 5-22.5v-3.1c0-5.3-2.4-10.4-6.6-13.7l7.7-34.5h-.3l5.1-21.8 7.9-35.1h.2l4.8-20H446.9z"/><path fill="#5a5f63" d="M675.3 214.5c-1.1-.1-2.2-.2-3.3-.2l-39.9 169.4-4.8 20.5-4.7 19.9-8.3 35-5.1 21.8h20c.5 0 1.1 0 1.6-.1 9-.7 16.5-7.2 18.6-16l50.1-216.2c3.5-15.1-5.9-30.2-21-33.7-1.2-.1-2.2-.3-3.2-.4"/><path fill="#1a86c8" d="m473.6 145.9-41.4 12.2-10.6-12.2-18.2 10.2-27.1 252.4c43.1 7.4 94.8 23.7 139.2 58.3l25-283.5z"/><path fill="#a1c6ea" d="m363.5 333.6-6-97.8c-.7-8.7-1.6-17.3-1.6-25.3 0-3.5.2-7.1.7-10.6.3-1.7.6-3.4 1-5.1L314 315l36.3 32.2 2.3 2 9.8-9.8z"/><path fill="#133351" d="M350.2 405c-37.3-4-63.3-1.6-63.3-1.6v.5c37.2 4.3 70.9 21.8 57.3 110.7h79.4c19.1 6.3 54 9.5 69.9-6.4s22.3-41.3 22.3-41.3c-44.3-34.6-96.1-50.8-139.2-58.3q-13.95-2.25-26.4-3.6"/><path fill="#111f32" d="m170.1 427.2-90 273.3 53.8 9.7c40.2-83.4 68.8-119 79.2-205.9l55.8 2.1 14-81.3z"/><path fill="#004975" d="m287.3 403.7-.9-.1-3.7 21.5-14 81.3-34.6 200.1 43.2 16.7c39.9-95.2 60.2-161.9 67.3-208.8 13.6-88.9-20.1-106.3-57.3-110.7"/><path fill="#111f32" fill-rule="evenodd" d="m432.7 155.2 16.7 12.1-12.1 15.6 6.9 15.5-4.2 171-17.2 22.4-19-25.9 13.8-167.5 9.4-15.5-8.7-13.9z" clip-rule="evenodd"/><path fill="#d2e2f6" fill-rule="evenodd" d="M456.3 177.5s-17.6-13.3-23.6-22.2c-.4-.6 13.1-1.6 23.4-8.5 11.4-7.6 15.1-12.7 15.1-12.7l9.8 15.7s-17.8 19.3-24.7 27.7" clip-rule="evenodd"/><path fill="#d2e2f6" fill-rule="evenodd" d="M422.3 140c-.1 9.1 10.4 15.2 10.4 15.2l-18.1 22.2s-4.2-12.5-4.2-20.8 11.9-16.6 11.9-16.6" clip-rule="evenodd"/><path fill="#e8f0fb" d="M533.2 177.1c-18-9.3-36-21.7-54-31l-23 110-30 295 140-40-47-87zM335.3 403.7c5.7-49 11.3-97.9 17-146.9l.9-28.7c2-25.1 2-46 22-58.1l38-21-16 78s-11.6 172.1-13 183c-15-2.9-31-4.9-48.9-6.3"/><path fill="#d2e2f6" d="m598.8 378.5-38.6-171.4c-6.7-22.1-20.6-32.2-37.9-31.1-27.7 4.1-30.3 40.4-28.7 56.4 4.6 47 27.3 98.1 33.8 111.8 33-3.4 61 4.2 71.4 34.3"/><path fill="#8a9097" d="M601.6 515.3c4.2 3.3 6.7 8.4 6.7 13.7v3.3c0 7.8-1.7 15.5-5 22.5H397.6l14.2-43.4 35.1-107.3h180.2l4.9-20.8H432.2l-41.9 127.9-24.2 73.9-10.4 31.7-12.7 38.7-26.6 81.4h21.4l13.9-42.6 12.7-38.7 22.5-68.7h185.5l34.7 154.7h21.4l-34.7-154.7h2.3c16.9 0 30.6-13.7 30.6-30.6v-1.4h-12.4l17-74.1c-.5 0-1.3.1-1.8.1h-20.2z"/><path fill="#d2e2f6" d="m412.5 360.1-34.9-18.6-22.3 8.6 4.2 5.7 14.6-1.9 3.9 3.8z"/><path fill="#43464a" d="M340.6 336.7h44.1v69.4l-44.2-2.1z"/><path fill="#d0d4d8" d="M504.9 335.4c-32.3 4.8-66.7 15.9-92.4 24.7l-42.7-2.9 6.9 47.4c12.7 2.3 44.1-7.7 44.1-7.7s178.1-17.4 178-18.6c-.7-5.1-2-10.1-4-14.9-12.7-30.2-49.7-34-89.9-28"/><path fill="#b2b9c1" d="m369.8 357.2-38 12.7s-.6 9.3 10 20.3c10.2 10.5 33.6 14 35 14.5z"/><ellipse cx="464.2" cy="249.2" fill="#2f3134" rx="12.5" ry="9.9" transform="rotate(-63.985 464.223 249.206)"/><path fill="none" stroke="#1b1c1d" stroke-miterlimit="10" stroke-width="4" d="m464.2 241.1 20-76c3.5-10.4.2-20.1-6-23-3.7-1.8-7.8-.8-10 0"/><ellipse cx="461.2" cy="247.2" fill="#43464a" rx="9.6" ry="7.6" transform="rotate(-63.985 461.223 247.206)"/><path fill="none" stroke="#1b1c1d" stroke-miterlimit="10" stroke-width="4" d="m390.2 187.1 8-23c2.4-7.2 8-15 16-18 2.5-1 3.9-1.7 6.2-2.2m-60.2 103.2c-3-3-10-5 3-35 5.9-13.6 15-29 27-25 13.2 4.4 10.5 24.3 7 37-9 33-17 30-22 28"/><path fill="#d2e2f6" fill-rule="evenodd" d="M456.3 177.5s-17.6-13.3-23.6-22.2c-.4-.6 13.1-1.6 23.4-8.5 11.4-7.6 15.1-12.7 15.1-12.7l7.3 11.6-1.2 8.2c-5.6 6.1-16.1 17.6-21 23.6" clip-rule="evenodd"/><path fill="#d2e2f6" fill-rule="evenodd" d="M422.3 140s-3.7 2.6-7 6.4c-.7.8-1.4 1.7-2 2.6l11.4 16.2 8.1-9.9c-.1-.1-10.6-6.2-10.5-15.3" clip-rule="evenodd"/></g></switch></svg>