<svg xmlns="http://www.w3.org/2000/svg" viewBox="0 0 1013 736"><g fill="none" fill-rule="evenodd" transform="translate(.22 .062)"><path fill="#37A264" fill-rule="nonzero" d="m384.72 239.998-80.69 47.31-10.56.85-13 15.42 4.6 2.06 20.78 9.16 16.18-19.39s65.1-21.48 78.68-29.38c4.5-2.62 5.78-3 7.66-5.86 7.09-10.68-16.15-25.33-23.65-20.17"/><path fill="#00884A" fill-rule="nonzero" d="M792.6 704.998c-27.58 0-51.47-4-72.8-12.17a152.6 152.6 0 0 1-56.22-37.47c-30.23-31.29-49-73.86-69-118.94-17.63-39.92-35.86-81.2-63.46-118.11-38-50.87-71.49-81.56-105.34-96.6-29.94-13.31-57.7-13-87.09-12.69-4.63.05-9.42.1-14.24.1v-14.7c4.74 0 9.49-.06 14.08-.11 31-.33 60.35-.65 93.22 14 36.24 16.1 71.55 48.27 111.14 101.23 28.6 38.25 47.17 80.3 65.14 121 19.37 43.85 37.66 85.26 66.07 114.67 31.24 32.34 71.52 46.65 126.76 45l.43 14.69c-2.9.1-5.82.1-8.69.1"/><path fill="#37A264" fill-rule="nonzero" d="m389.1 224.758-4.38 15.21 28.7 16.88 1.62-27.84z"/><path fill="#A4ABB3" fill-rule="nonzero" d="M419.35 124.088c-9.84 2.26-17.9 9.73-20.28 19.4v.08q-.261 1.05-.42 2.13l-.11 1.2-13.3 82.47 30.94 10.56z"/><path fill="#00884A" fill-rule="nonzero" d="M462.55 84.824c-3.584.952-6.967 1.28-10.664.99-.29 2.87-.697 6.264-1.037 9.274 4.45-2.71 8.833-6.04 12.344-9.89zm36.53-48.206c-1.1-11.39-14.84-18.22-14.84-18.22-1.12-19.4-25.08-12.57-25.08-12.57s-18.23-9.11-27.31-4.55-2.31 17.12-5.76 21.72-4.56 11.39-4.56 11.39-1.511 15.236 10.569 21.926c-.854-5.946-1.665-11.958-2.19-18.016 5.363 1.918 11.014 2.88 16.651 2.073 13.66-2.28 26.29-11.683 26.29-11.683s0 16 1.1 21.68q.08.708.29 1.39c3.24-5 8.173-10.952 11.993-6.712 5 5.51-3.864 17.572-6.914 21.542.51 1.32.8 2.13.8 2.13s20.14-20.65 19-32.05z"/><path fill="#5EBD82" fill-rule="nonzero" d="M450.85 95.118c-1.24 10.59-2.42 20.51-2.42 20.51h40.27l-8.52-47-.81-2.13c3.16-4 12.12-16.39 7.05-21.83-3.88-4.18-8.89 2.06-12.12 7a13 13 0 0 1-.3-1.39c-1.1-5.73-1.1-21.68-1.1-21.68s-12.57 9.11-26.23 11.39a35.7 35.7 0 0 1-16.76-1.69 119 119 0 0 0 2.06 17.71c.44 2.28.95 4.56 1.61 6.91 3.9 14.33 7.06 21.24 7.06 21.24a49 49 0 0 0 11.17 2 32.9 32.9 0 0 0 11-1 54.9 54.9 0 0 1-12 9.92zm-37.48 417.14 6.84 129.63h41.89c5.58-46.15 7.86-52.47-1-113.54a220 220 0 0 1-.81-52.33h-47.4l.44 36.23z"/><path fill="#B8EFC9" fill-rule="nonzero" d="m419.03 641.888.3 8.45h42.18c.29-2.94.59-5.73 1-8.45zm2.91 62.11h35.46c1.24-14.92 2.2-27.26 3.08-37.77h-41zm-2.46-42.2h41.28c.22-2.14.39-4.45.61-6.43h-42.12z"/><path fill="#43464A" fill-rule="nonzero" d="M437.7 310.208h-27.48l-4.12 15.73-3 150.07h61.14c.88-12.2 2.41-24.926 3.96-34.846-4.49-26.16-11.055-61.158-20.755-84.848-5.55-16.25-6.438-36.326-7.488-46.106z"/><path fill="#86D7A2" fill-rule="nonzero" d="m524.677 472.736-45.945 1.742c5.66 27.78 9.827 50.34 9.827 50.34l20.06 117.07h38.14c3.82-91.27 13.52-96.27-17.56-151.54-2.43-4.26-3.862-11.362-4.522-17.612"/><path fill="#71767C" fill-rule="nonzero" d="M535.37 473.998s-.3-9-1.47-23c-6.1-77.09 1-111-18.59-143.75l-.3 3-77.31-.09c.44 9.78 2.06 31.25 8.6 47.2 9.7 23.66 17.05 59.53 21.53 85.62 3.31 19.1 5.07 33 5.07 33l6.1-.22 45.85-1.35 10.51-.37z"/><path fill="#C1C7CC" fill-rule="nonzero" d="M457.36 703.828h-35.42l-54 20.88.15.14a25.66 25.66 0 0 0 19.84 9.41h75.77zm114.49 19.48-26-19.48h-26.57l-4 30.43h50.71a7 7 0 0 0 7-7 6.4 6.4 0 0 0-1.14-3.95"/><path fill="#5EBD82" fill-rule="nonzero" d="M418.74 655.408h43.11l.52-5.07h-43.78zm.44 11.32h41.67l.44-5.07h-42.26z"/><path fill="#B8EFC9" fill-rule="nonzero" d="M545.3 703.998h.44s.74-19.47 1.32-37.77h-34.54l6.54 37.77zm1.84-48.58h-36.53l1.1 6.29H547c.07-2.11.14-4.27.14-6.33zm-.15-5c.08-3.24.07-6.18.07-8.53h-38.58l1.47 8.53z"/><path fill="#5EBD82" fill-rule="nonzero" d="M547.94 650.338h-38.37l.37 2.28.52 2.79h37.33zm-.3 11.32h-36.16l.89 5.07h35.12z"/><path fill="#C1C7CC" fill-rule="nonzero" d="m488.94 310.218 15.44-160.87 27-24.77-45.67-25.35-37.33 21 2-21-32.43 18.3a45.22 45.22 0 0 0-21.9 39.31c0 1.11.07 2.21.15 3.31l8.15 56.29 4.56 31.68-.22 62.1z"/><path fill="#E0E2E5" fill-rule="nonzero" d="m515.09 310.078.22-3 15.8-182.55v-.07z"/><path fill="#A4ABB3" fill-rule="nonzero" d="M488.63 310.228h26.46l16-185.56v-.15l-.08.07-27 24.77z"/><path fill="#5EBD82" fill-rule="nonzero" d="m485.71 99.228-34.91-1-.07 1-2.5 21.17z"/><path fill="#E0E2E5" fill-rule="nonzero" d="M457.03 154.498h27v7.35h-27z"/><path fill="#00884A" fill-rule="nonzero" d="m609.85 228.878-32.85-47-44.87 19.22a278.6 278.6 0 0 0 24.72 32.41c17-14.78 35-20.43 53-4.63"/><path fill="#E0E2E5" fill-rule="nonzero" d="M580.57 182.938s-26.39-33.8-34.4-45.49c-8.82-12.93-17.78-17.12-30.13-13.52-17.49 7.42-15.65 32.92-10.73 42.7 9.78 19.47 23.59 47 23.59 47l51.67-30.72z"/><path fill="#86D7A2" fill-rule="nonzero" d="M609.85 228.658c-18-15.8-36-10.14-53.06 4.63-17.27 14.92-33.43 39.17-47.54 59.75l-28.44-8.16 7 31.68h-.08c8.16 2.28 35.87 3.6 35.87 3.6s86.86-91 86.27-91.5z"/><path fill="#37A264" fill-rule="nonzero" d="m480.85 284.888-23.44 17.93s-.3 5.37 7.86 12.2c7.86 6.62 21.39 1.91 22.49 1.54h.07l-7-31.67z"/><path fill="#A4ABB3" fill-rule="nonzero" d="M259.74 306.878v-9.69l51.55-2.75v14.64z"/><rect width="5.11" height="14.43" x="257.969" y="294.538" fill="#B2B9C0" fill-rule="nonzero" rx="2.555"/><path fill="#A4ABB3" fill-rule="nonzero" d="M311.289 294.438h13.21v14.64h-13.21z"/><rect width="5.74" height="19.27" x="318.849" y="292.118" fill="#B2B9C0" fill-rule="nonzero" rx="2.87"/><path fill="#5EBD82" d="m274.42 313.618 3.7-22.33c6.72.17 18.82 1 22.68 9.42 2.21 4.79 5.05 14.09 5.05 14.09z"/><path fill="#00884A" fill-rule="nonzero" d="M1004.21 734.258H769.75a7.35 7.35 0 1 1 0-14.7h234.46a7.35 7.35 0 0 1 0 14.7"/><path fill="#37A264" fill-rule="nonzero" d="M996.85 719.558H777.1a7.35 7.35 0 1 1 0-14.7h219.75a7.35 7.35 0 1 1 0 14.7"/><path fill="#00884A" fill-rule="nonzero" d="M985.85 704.858H788.12a7.35 7.35 0 1 1 0-14.7h197.73a7.35 7.35 0 1 1 0 14.7"/><path fill="#B8EFC9" fill-rule="nonzero" d="m66.57 399.878 5.87-8.11a2.794 2.794 0 1 1 4.56 3.23l-.06.09-5.6 8-.06.09a2.89 2.89 0 1 1-4.74-3.3zm12.06-15.99 6.52-7.6a2.612 2.612 0 0 1 4 3.36l-.08.09-6.22 7.55-.07.09a2.71 2.71 0 1 1-4.17-3.45zm13.36-14.89 7.17-7a2.43 2.43 0 0 1 3.43 3.44l-.09.08-6.87 7-.08.08a2.542 2.542 0 0 1-3.59-3.6zm14.66-13.66 7.79-6.28a2.241 2.241 0 1 1 2.85 3.46l-.08.08-7.51 6.28-.09.07a2.34 2.34 0 1 1-3-3.58zm15.88-12.18 8.37-5.48a2.06 2.06 0 1 1 2.3 3.42l-.09.06-8.09 5.53-.09.06a2.16 2.16 0 1 1-2.43-3.56zm17-10.54 8.86-4.63a1.88 1.88 0 0 1 1.77 3.31h-.08l-8.61 4.71h-.08a2 2 0 1 1-1.9-3.46zm17.92-8.83 9.25-3.75a1.7 1.7 0 0 1 1.31 3.13h-.08l-9 3.86h-.08a1.79 1.79 0 1 1-1.41-3.28zm18.66-7.07 9.54-2.89a1.52 1.52 0 0 1 .91 2.89h-.07l-9.35 3h-.07a1.61 1.61 0 0 1-1-3.06zm19.19-5.36 9.74-2.06a1.33 1.33 0 0 1 .58 2.59h-.05l-9.59 2.22h-.06a1.421 1.421 0 0 1-.64-2.77zm19.55-3.74 9.86-1.3a1.14 1.14 0 0 1 1.29 1 1.16 1.16 0 0 1-1 1.29l-9.74 1.48h-.05a1.24 1.24 0 0 1-.37-2.45zm15.87-2.21 9.91-.61a1 1 0 0 1 1 .9 1 1 0 0 1-.88 1l-9.84.79a1.053 1.053 0 0 1-.17-2.1zm15.01-.55 7.15-.24a.74.74 0 1 1 0 1.48l-7.13.33a.79.79 0 0 1 0-1.57zm-226.6 97.61 7.89-7.69a3.1 3.1 0 0 1 4.37 4.4h-.05l-7.66 7.82a3.193 3.193 0 0 1-4.54-4.49zm15.92-15.23 8.21-7.36a2.913 2.913 0 1 1 3.93 4.3l-.06.05-8 7.41h-.05a3.01 3.01 0 1 1-4.1-4.41zm16.6-14.52 8.58-6.93a2.725 2.725 0 1 1 3.46 4.21l-.06.05-8.35 7-.06.05a2.82 2.82 0 0 1-3.61-4.33zm17.37-13.6 9-6.4a2.544 2.544 0 0 1 3 4.11l-.07.05-8.75 6.45-.07.05a2.632 2.632 0 1 1-3.12-4.24zm18.22-12.48 9.43-5.74a2.35 2.35 0 1 1 2.47 4l-.07.05-9.22 5.79-.08.05a2.443 2.443 0 1 1-2.61-4.13zm19.07-11.13 9.84-5a2.16 2.16 0 1 1 2 3.83h-.08l-9.6 5.09h-.08a2.261 2.261 0 0 1-2.11-4zm19.87-9.61 10.2-4.2a2 2 0 0 1 1.53 3.63h-.07l-10 4.31h-.08a2.065 2.065 0 0 1-1.64-3.79zm20.56-7.98 10.5-3.38a1.79 1.79 0 0 1 1.12 3.39h-.07l-10.3 3.51h-.07a1.88 1.88 0 0 1-1.21-3.55zm21.11-6.34 10.72-2.58a1.6 1.6 0 0 1 .77 3.1h-.06l-10.55 2.72h-.06a1.69 1.69 0 1 1-.84-3.27zm21.51-4.73 10.85-1.8a1.411 1.411 0 1 1 .49 2.78l-10.73 2a1.5 1.5 0 0 1-.54-2.95zm21.75-3.23 10.94-1.11a1.24 1.24 0 0 1 1.34 1.1 1.22 1.22 0 0 1-1.07 1.33l-10.84 1.28a1.314 1.314 0 0 1-.31-2.61zm19.42-2.3 11-.48a1.031 1.031 0 1 1 .1 2.06l-10.91.67a1.13 1.13 0 0 1-.13-2.25zm16.1-.03 8.27-.07a.82.82 0 1 1 0 1.64l-8.26.11a.84.84 0 0 1 0-1.68zM1.26 377.558l9.15-6.16a3.11 3.11 0 0 1 3.52 5.13l-9 6.26a3.21 3.21 0 0 1-3.67-5.26zm18.38-12.19 9.32-5.9a2.933 2.933 0 0 1 3.18 4.93l-9.14 6a3.02 3.02 0 0 1-3.31-5.05zm18.75-11.63 9.55-5.55a2.744 2.744 0 1 1 2.8 4.72l-9.35 5.65h-.05a2.84 2.84 0 0 1-2.94-4.86zm19.21-10.9 9.79-5.12a2.573 2.573 0 1 1 2.46 4.52l-9.6 5.22a2.654 2.654 0 0 1-2.54-4.66zm19.72-9.98 10-4.58a2.38 2.38 0 0 1 2 4.31h-.06l-9.85 4.69h-.07a2.47 2.47 0 1 1-2.12-4.46zm20.25-8.86 10.28-3.95a2.193 2.193 0 1 1 1.61 4.08h-.07l-10.12 4.07h-.07a2.29 2.29 0 1 1-1.67-4.2zm20.77-7.57 10.56-3.26a2.01 2.01 0 1 1 1.22 3.83h-.07l-10.37 3.4h-.07a2.105 2.105 0 1 1-1.31-4zm21.21-6.17 10.75-2.55a1.83 1.83 0 0 1 .87 3.55l-10.64 2.74h-.06a1.926 1.926 0 0 1-1-3.72zm21.56-4.77 10.87-1.88a1.65 1.65 0 0 1 .59 3.24h-.05l-10.74 2h-.05a1.74 1.74 0 1 1-.65-3.41zm21.74-3.49 11-1.28a1.45 1.45 0 0 1 1.62 1.28 1.47 1.47 0 0 1-1.25 1.62l-10.85 1.46a1.562 1.562 0 0 1-.52-3.08m22-2.28 11-.79a1.28 1.28 0 0 1 .21 2.55l-10.91 1a1.37 1.37 0 0 1-.24-2.73zm20.7-1.72 11-.38a1.1 1.1 0 0 1 .1 2.19l-11 .56a1.19 1.19 0 1 1-.12-2.37zm18.37-.2 9.63.09a.82.82 0 1 1 0 1.64l-9.6.07a.91.91 0 0 1-.93-.88.92.92 0 0 1 .88-.93z"/></g></svg>