<svg xmlns="http://www.w3.org/2000/svg" viewBox="0 0 429.59 1002.8"><path fill="#a4abb3" d="m105.57 254.28-9.39 225.21h-17.6c-.3-30.3-7.87-256.3-8.37-292.3z"/><path fill="#56b0ff" d="m190.69 97.58-19.3.09c-8.9 7.8-12.64 2.44-18.24-11.96-3.7-9.7-5.7-20-6.6-25.9 4.4-4.8 11.3-10.7 6.6-22.3 0 0 12.2 8.9 24.4 5.6s14.1-5.8 18.9-4.4c4.8 1.3 8 5.2 9.8 8 .1.6.2 1.1.3 1.7 0 0 .14 4.78-.56 11.98-.7 8.8-2.24 17.62-4.54 26.22-.3.9-.5 1.9-.8 2.8v-.1c-1.7 8.1-5.08 14.58-9.88 8.38l-.08-.1Z"/><path fill="#56b0ff" d="m137.54 97.75 1.1-5.4c-5.8-9-14.45-24.56-8.85-30.76 5.2-5.7 10.35.16 13.25 4.96 1 1.6 1.8 3.2 2.6 4.9l-1.4 15.5c-.4 4.7-1.1 20.9-1 22.9.7 11 12.1 17.5 22 17.5h12.3c1.8 15.2 3.6 30 3.6 30h-54.3z"/><path fill="#003253" d="M183.05 125.9h-56.1v11.5h56.1z"/><path fill="#595e62" d="m291.36 989.73-.2.3c-6.7 8.1-16.6 12.8-27.1 12.8h-103.4l8.5-41.5h49.6zM75.95 961.2l8.9.1 5.4 41.5h-69.8c-5.4 0-9.7-4.3-9.7-9.7 0-2 .6-3.9 1.7-5.5l37.18-26.61z"/><path fill="#0096e8" d="m272.96 320.81 81.9-25.4 37.4-15.2 17.4 27.3s-16.7 5.7-31.6 9.8c-14.8 4.2-27.1 7.5-27.1 7.5s-71.7 47.2-96.5 60l-1.5-43z"/><path fill="#8a9097" d="M253.21 219.8c.3-3.1.3-6.3.1-9.5l19.9 110.5-.2.2-20.31 21.52z"/><path fill="#001d33" d="m195.88 423.64 31.33-.07 8.33 56.4h-1.05l-5.81 218.87-9.61 262.63-49.91-.14c-12.5-150.6-21.68-129.69-5.78-240.59 6.6-45.8.3-89.4-8.8-130.6 9.8-40.4 20.7-80.5 29.7-102.4 8.9-21.6 11.1-50.7 11.6-64.1"/><path fill="#003253" d="M49.64 960.99c0-209.3-28.3-201.9 22.2-291.6 6.1-11 7-27.2 6.5-46.5-.3-9.8-.5-19-.8-27.6l1.5-87.7s-.1-11.4-.2-28.5l53-.08 5.12-55.12 59.57-.09c-.6 13.4-2.8 42.4-11.7 64.2-9 22-19.8 62-29.7 102.4-15.1 62.4-27.9 125.8-27.9 125.8L84.85 961.31 49.63 961Z"/><path fill="#00629a" d="m213.58 334.36 13.1 89.5h-89.5l8.4-91.2c-5.1-108.5-30.2-188.39-30.3-188.59l12.6-7.71h54l29.98 18.25z"/><path fill="#c1c7cc" d="m137.35 424.4 8.5-91.3c-5.1-108.7-30.53-188.97-30.53-189.17L86.85 160.6h.1c22.2 1.1 29.1 39.3 23.6 66.5-2.4 11.6-4.77 16.92-7.37 29.52L96.05 479.5h36.2zm-19.3 38.3c-2.7 0-4.9-2.2-4.9-4.9s2.3-4.9 5-4.9c2.6 0 4.8 2.2 4.8 4.8.1 2.8-2.2 5-4.9 5m-4.9-23.4c0-2.9 2.6-5.1 5.6-4.5 1.7.3 3.1 1.8 3.5 3.5.6 3-1.6 5.6-4.5 5.6-2.6 0-4.6-2.1-4.6-4.6"/><path fill="#a4abb3" d="m226.66 424.08-13.3-89.6-1.7-180 1 .6 10.8 6.3c20.2 12.1 31.8 34.6 29.8 58.1l-.4 120 .1 2.1 1.5 43 3.2 95.3-23.18.1z"/><path fill="#fff" d="M118.05 434.4c-2.7 0-4.9 2.2-4.9 4.9s2.3 4.9 5 4.9c2.6 0 4.8-2.2 4.8-4.8.1-2.8-2.2-5-4.9-5m0 18.2c-2.7 0-4.9 2.2-4.9 4.9s2.3 4.9 5 4.9c2.6 0 4.8-2.2 4.8-4.8.1-2.8-2.2-5-4.9-5"/><path fill="#a4abb3" d="M352.95 301.9c0 3.9 3.1 7 7 7h3.4c-.8 0-1.6-.1-2.3-.4-3.6-1.3-5.6-5.3-4.3-8.9l25.8-72.9c1-2.7 3.6-4.6 6.5-4.6l23.4-.1h-26.7c-2.9 0-5.5 1.8-6.5 4.6l-25.9 73c-.3.8-.4 1.5-.4 2.3m17.9 7 15.8-.8z"/><path fill="#c1c7cc" d="m356.75 299.6 25.8-72.9c1-2.8 3.6-4.6 6.5-4.6h26.5c3.8 0 6.9 3.1 6.9 6.9 0 .8-.1 1.5-.4 2.3l-25.6 72.3c-1 2.7-3.5 4.6-6.4 4.6h-3.4l-15.9.8h-7.5c-3.8 0-7-3.1-7-7 .1-.9.3-1.7.5-2.4"/><path fill="#e0e2e5" d="M128.01 30.08s0-7.71 12.12-17.68c12.12-9.98 25.43-3.36 36.47-4.45s23.56-4.45 32.33 0c7.88 3.95 1.77 14.92 1.08 22.72 3.45 6.03 8.38 20.05-4.04 29.93.59-7.21.59-11.95.59-11.95l-.3-1.78c-1.77-2.77-4.93-6.62-9.76-8-4.73-1.28-6.6 1.09-18.82 4.45-12.12 3.36-24.34-5.53-24.34-5.53 4.63 11.56-2.17 17.39-6.5 22.23.89 5.83 2.86 16.2 6.5 25.78 5.52 14.42 9.26 19.56 18.04 11.76h19.42c4.83 6.12 7.88-.1 9.86-8.3v.1c.3.89 2.17 6.92 2.17 12.05 0 5.53-6.6 13.34-6.6 16.6v9.88h-30.95c-9.95 0-21.39-6.52-22.08-17.58-.1-2.07-.1-5.14.1-8.79.2-4.45.59-9.58.89-14.32l1.38-15.61c-.79-1.68-1.58-3.36-2.56-4.94-2.96-4.84-8.02-10.66-13.24-4.93-5.32 5.94 2.98 21.58 8.9 30.67l-1.17 5.68s-18.53-29.83-19.91-51.37c-.49-10.17 10.45-16.6 10.45-16.6Z"/><path fill="#56b0ff" d="m220.69 142.46 11.23 5.92 12.3 14.49-12.3 20.42-3.01-25.25-8.22-15.59Z"/><path fill="#d0d4d8" d="M186.92 94.84c2.14-.73 5.67-2.54 10.87-1.21 1.42.36 3.51 1.14 3.62 1.21 1.18.65 3.69 1.52 7.25 4.83-.49-.15-5.84-1.19-10.87 1.21-1.53.73-2.53 1.79-2.53 1.79-1.6 1.69-2 3.7-2.3 5.46-.45 2.63-.96 6.3-1.21 10.87-4.24-4.69-3.62-7.14-3.62-9.66v-7.25c0-1.21-.96-5.46-1.21-6.04z"/><path fill="#b2b9c1" d="M262.01 176.73s-6.07-9.34-19.32-20.53c-9.96-8.41-24.16-14.49-35.03-20.53-8.21-4.56-15.77-14.47-16.91-18.12-.75-2.39-.2-5.82 0-7.25 1.55 2.96 9.08 11.41 16.91 16.91 1.62 1.14 4.7 3.62 7.25 4.83 4.65 2.21 6.69 1.91 15.7 7.25 18 10.66 26.04 25.7 28.99 31.4 0 0 .01.03 2.42 6.04Z"/><path fill="#047bc0" d="M190.75 110.3c1.17 2.37 4.25 7.32 9.66 12.08 8.74 7.7 15.54 10.8 22.31 13.8 25.12 11.15 36.87 34.51 36.87 34.51 0-4.83 1.49-9.71 0-10.87-.12-.86-20.35-27.34-26.57-28.99-3.84-3.77-19.32-8.45-24.16-9.66-9.66-3.62-16.95-15.73-16.91-15.7 0 0-.66 2.41-1.21 4.83Z"/><path fill="#eff1f2" d="M195.59 99.43c2.85-1.89 9.66-2.42 12.08-1.21 7.25 3.62 9.42 5.11 15.7 9.66 8.26 5.99 13.65 11.49 25.36 24.16 9.06 9.79 17.14 18.72 24.16 26.57 2.27 2.55 6.04 8.62 6.04 14.49 0 7.25-1.63 10.05-6.04 10.87-5.04.94-12.08-6.04-13.29-12.55-.51-2.76 1.21-9.19 0-11.61-2.77-3.76-6.78-8.86-12.08-14.49-8.49-9.03-9.46-11.51-16.91-15.7-12.08-6.81-18.71-5.85-26.57-10.87-7.25-4.83-12.08-13.29-12.08-13.29s1.27-4.48 3.62-6.04Z"/><path fill="none" stroke="#429bd6" stroke-linecap="round" stroke-linejoin="round" d="M233.88 121.44c-4.01-4.19-3.82-4.57-10.78-9.81"/><path fill="#56b0ff" d="m277.85 179.81-22.33 15.07-117.96 123.87v-.02l-.02-.03-12.45-22.49c-.86-6.84.71-13.55 3.37-20.49 4.55-11.96 21.13-28.78 39.41-44.68 27.53-23.94 58.92-45.78 58.92-45.78l25.06-33.54z"/><path fill="#e0e2e5" d="M168.02 230.61c-.05.14-.08.3-.15.43-20.06 39.64-37.8 72.52-37.8 74.17l-4.98-9-48.91-88.39c-10.35-19.15-6.29-36.79 4.57-43.89l1.28-.89c21.58-13.32 44.57 6.3 53.94 17.62 12.55 15.17 23.71 33.37 32.05 49.95"/><path fill="#56b0ff" fill-rule="evenodd" d="m412.25 259.98-44.4 1.5c-1.3 9.1 4 24.3 12.6 27.4l29.2 18.6z"/><path fill="#0096e8" d="M260.43 133.63c28.53 22.38 17.42 46.18 17.42 46.18l-26.08-27.99z"/></svg>