<svg xmlns="http://www.w3.org/2000/svg" data-name="Ebene 1" viewBox="0 0 320.521 963.483"><path fill="none" d="m173.074 539.28-.03-.14c-.02-.06-.03-.12-.04-.17-.08-.3-.16-.6-.24-.91.07.31.15.63.24.95.02.09.04.18.07.27m-.86-3.31h.01l-.09-.33v.04c.03.1.06.19.08.29m-4.37-16.56v.01c.29 1.06.58 2.11.86 3.19.58 2.14 1.15 4.3 1.72 6.48.29 1.09.58 2.18.86 3.28.04.13.08.27.11.4-.03-.15-.07-.3-.11-.44l-.42-1.6c-.43-1.66-.86-3.31-1.3-4.94-.03-.13-.06-.26-.1-.38-.16-.58-.31-1.16-.47-1.74l-.72-2.7q-.105-.405-.21-.78c-.07-.27-.15-.55-.22-.82-.15-.56-.31-1.13-.46-1.69-.1-.37-.2-.73-.31-1.1.25.88.48 1.76.72 2.65.02.06.03.12.05.18m7.04 27.02-.18-.74c-.26-1.02-.52-2.04-.78-3.07.26 1.03.52 2.07.78 3.11zm-7.88-30.1c.01.03.01.05.03.08v-.02c-.01-.06-.03-.12-.05-.18-.05-.19-.1-.37-.16-.55.05.2.11.4.16.6.01.02.02.04.02.07M173.924 542.62c-.02-.1-.05-.2-.07-.3l-.36-1.4.36 1.44c.03.09.05.17.07.26m-11.65-42.99.63 2.13c-.04-.16-.08-.32-.13-.48a5 5 0 0 1-.06-.2v-.03c-.05-.15-.09-.3-.14-.44-.04-.15-.09-.29-.13-.44-.05-.19-.1-.38-.16-.56 0 0 0-.01-.01-.01-.01-.02-.01-.03-.01-.05-.01-.02-.02-.05-.03-.08 0 .01.01.03.01.05zm-2.95-9.82c-.05-.15-.09-.3-.13-.45-.06-.19-.13-.38-.18-.55.06.18.12.36.17.55.05.15.1.3.14.45m6.13 20.87c-.18-.64-.36-1.29-.55-1.93.24.87.49 1.75.74 2.63-.06-.24-.12-.47-.19-.7m-6.05-20.6a.8.8 0 0 0-.06-.21c-.01-.01-.01-.02-.02-.03.03.08.05.16.08.24m-.74-2.39c-.06-.18-.11-.35-.16-.52h-.01c.05.17.1.34.17.52m3.3 10.87c.04.12.07.24.11.36-.05-.19-.1-.37-.16-.56-.02-.06-.03-.11-.05-.17v-.03c-.02-.05-.04-.1-.05-.14-.01-.05-.03-.1-.04-.14l-.01-.01.09.32c.03.12.07.25.11.37m-1.55-5.17c-.04-.14-.07-.27-.11-.4-.01-.02-.01-.03-.02-.05.01.06.03.13.05.19.03.09.06.17.08.26"/><path fill="#111f32" d="m177.772 569.556 1.576-7.024 2.2-3.602.4-7.002-9.184-41.011-12.155-32.244-8.469-.166-50.672-2.847.263 4.312 1.01 31.81 2.52 88.15 1.94 69.06 8.04 253.67-1.269 1.672 49.67-.774c4.22-50.36 8.32-81.169 11.79-103.289 6.58-41.83 9.4-55.58-.72-125.99-4.56-31.87-6.88-66.75-2.23-96.39 1.508-9.528 3.346-18.988 5.29-28.335"/><path fill="none" d="M175.444 548.69c0 .01.01.03.01.04.01.01.01.03.01.04.02.05.03.11.05.16-.04-.16-.08-.32-.12-.47 0 .04.01.08.02.11zm-10.79-40.85c-.08-.29-.16-.58-.24-.86-.01-.04-.02-.08-.05-.13.15.55.31 1.1.47 1.65q-.075-.33-.18-.66m-6.25-20.98-.01-.01c.03.1.06.2.1.3-.03-.09-.06-.19-.09-.29m3.11 10.17c-.02-.09-.05-.19-.09-.27.08.28.17.58.27.86-.06-.2-.11-.4-.18-.59"/><path fill="#003e64" d="m107.523 420.04-14.262 37.202.32 1.37-2.32 4.63-8.71 15.43-13.15 15.99c-2.93-1.06-4.46-1.79-7.2-3.12-1.76-.85-4.02-1.94-7.49-3.51a764 764 0 0 1-14.06-6.58c-.36-.18-.73-.35-1.09-.53-.14-.07-.28-.14-.43-.2-1.39-.67-2.79-1.35-4.27-2.05-3.37-1.64-3.89-2.46-3.89-2.46s-.4-10.05 4.26-23.8c2.15-6.35 1.14-15.45 3.82-23.3 11.46-33.78 26.3-77.26 32.52-94.51l10.69-125.79 19.203 33.892 5.127 98.34z"/><path fill="#003253" d="m281.927 922.742-.101.56-34.555-.06.038-.6-41.118-237s-8.14-40.58-19.08-88.23c-2.62-11.14-5.23-22.57-8.05-34-.05-.22-.1-.45-.16-.67v-.01c-.28-1.14-.56-2.28-.83-3.41-.17-.7-.34-1.39-.51-2.08l-.33-1.35c-.27-1.07-.54-2.16-.8-3.23a.8.8 0 0 0-.04-.16v-.01l-.42-1.7c-.14-.57-.28-1.14-.42-1.7-.01-.05-.03-.11-.04-.16-.04-.16-.08-.32-.12-.47v-.01c-.01-.04-.02-.08-.03-.11 0-.03-.01-.06-.02-.08q0-.01-.01-.02c.01-.02 0-.05-.01-.07 0-.02-.01-.03-.01-.04v-.01c-.01-.01-.01-.02-.01-.03a.2.2 0 0 1-.02-.07c0-.02-.01-.05-.02-.07 0-.01-.01-.02-.01-.02 0-.02 0-.04-.01-.05 0-.02 0-.04-.01-.06a.7.7 0 0 0-.04-.16c-.1-.41-.2-.82-.31-1.23l-.18-.74c-.26-1.02-.52-2.04-.78-3.07-.02-.1-.05-.2-.07-.3l-.36-1.4c-.14-.55-.28-1.1-.42-1.64l-.03-.14c-.02-.06-.03-.12-.04-.17-.08-.3-.16-.6-.24-.91-.1-.39-.19-.77-.3-1.15-.04-.18-.08-.35-.13-.52-.01-.03-.01-.07-.03-.1-.01-.07-.03-.13-.05-.2l-.03-.12-.09-.33c-.24-.96-.49-1.92-.74-2.87-.03-.15-.07-.3-.11-.44l-.42-1.6a502 502 0 0 0-1.3-4.94 4 4 0 0 0-.1-.38c-.16-.58-.31-1.16-.47-1.74l-.72-2.7q-.105-.405-.21-.78c-.07-.27-.15-.55-.22-.82-.15-.56-.31-1.13-.46-1.69-.1-.37-.2-.73-.31-1.1-.01-.05-.02-.11-.04-.16v-.03c-.01-.06-.03-.12-.05-.18-.05-.19-.1-.37-.16-.55-.02-.09-.04-.18-.07-.26-.12-.46-.25-.91-.38-1.37-.14-.53-.28-1.05-.43-1.57v-.01c-.01-.03-.02-.07-.03-.11l-.12-.43-.03-.11c-.04-.14-.07-.28-.12-.42-.06-.24-.12-.47-.19-.7-.18-.64-.36-1.29-.55-1.93-.02-.08-.04-.17-.07-.25q-.075-.33-.18-.66c-.08-.29-.16-.58-.24-.86-.01-.04-.02-.08-.05-.13 0-.01 0-.02-.01-.03-.08-.3-.16-.6-.25-.89-.04-.15-.08-.29-.12-.43-.04-.16-.09-.31-.13-.46l-.03-.09c-.08-.31-.17-.61-.26-.92-.03-.09-.05-.17-.08-.26-.06-.21-.12-.42-.18-.62-.13-.46-.26-.93-.4-1.39-.04-.16-.08-.32-.13-.48a5 5 0 0 1-.06-.2v-.03c-.05-.15-.09-.3-.14-.44-.04-.15-.09-.29-.13-.44-.05-.19-.1-.38-.16-.56 0 0 0-.01-.01-.01-.01-.02-.01-.03-.01-.05a1 1 0 0 1-.03-.08v-.01c-.02-.06-.03-.12-.05-.18-.03-.12-.07-.24-.11-.36-.05-.19-.1-.37-.16-.56-.02-.06-.03-.11-.05-.17v-.03c-.02-.05-.04-.1-.05-.14-.01-.05-.03-.1-.04-.14l-.01-.01c-.01-.06-.03-.11-.05-.17 0-.03-.01-.05-.02-.08-.06-.2-.11-.4-.18-.59-.02-.09-.05-.19-.09-.27.01-.01 0-.01 0-.02a1 1 0 0 0-.08-.27c.01-.01 0-.02 0-.02 0-.02 0-.04-.02-.05 0-.03 0-.05-.02-.07-.09-.34-.19-.67-.3-1v-.01c-.02-.07-.04-.13-.06-.19-.11-.4-.23-.8-.36-1.19-.05-.18-.1-.35-.16-.52 0-.01-.01-.02-.01-.03-.04-.14-.07-.27-.11-.4-.01-.02-.01-.03-.02-.05 0-.01-.01-.03-.01-.04-.02-.07-.05-.15-.07-.22-.05-.16-.1-.32-.15-.49-.03-.11-.06-.21-.1-.32l-.21-.7c-.09-.32-.19-.63-.29-.95-.01-.04-.03-.09-.05-.14a.8.8 0 0 0-.06-.21c0-.02-.01-.03-.02-.05v-.01c-.05-.15-.09-.3-.13-.45-.06-.19-.13-.38-.18-.55-.03-.09-.05-.18-.09-.27 0-.02-.01-.04-.02-.06-.01-.04-.02-.08-.03-.11l-.03-.11c-.01-.02-.01-.04-.02-.05-.05-.17-.1-.35-.16-.52-.06-.18-.11-.35-.16-.52 0-.01-.01-.01-.01-.02-.03-.09-.06-.19-.09-.29l-.01-.01v-.01a.8.8 0 0 0-.05-.16c-.01-.05-.03-.1-.04-.14l-.19-.6c-.09-.28-.18-.57-.27-.85l-1.702-8.07 4.519-2.31 28.332 3.476 58.924-9.213 8.047 8.056c.07.23.11.37.13.42.01.02.01.03.01.03l5.03.48 7.358-2.153c-.05 2.29.629 12.412.629 12.412l-8.122 7.893-6.395 21.829-1.81 6.89-.09.09-12.72 37.46c4.03 3.24 9.81 4.62 15.53 4.49 2.73-.07 5.44-.48 7.94-1.21l-.09 1.51s-.79 20.42-1.31 31.3c-.3 17.14-2.66 39.64 2.96 49.61 39.86 82.86 24.436 81.9 16.916 274.66"/><path fill="none" d="M253.961 331.612v.13c-7.13-24.68-21.37-76.06-28.87-117.25-.04-.22-.08-.45-.11-.68l.09.49c7.51 41.22 21.76 92.56 28.89 117.31"/><path fill="#8a9097" d="m151.452 111.518-.032.294v.01c-.01.095-.02.21-.042.316-.063.556-.126 1.113-.199 1.67-.084.65-.168 1.29-.241 1.952-.19 1.565-.368 3.15-.505 4.736h.011l1.185.314c1.134-.693 1.937-1.07 3.03-1.826l2.282-1.868c1.124-.84 2.446-1.493 3.528-2.407 1.795-1.512 6.029-5.738 7.72-7.429-4.578 1.145-11.886 3.094-16.558 2.82-.032.274-.064.557-.106.84a1 1 0 0 0-.02.18c-.021.115-.032.251-.053.398"/><path fill="#005587" d="M122.661 48.445a3 3 0 0 1-.021-.305 96 96 0 0 1-.095-2.058 86 86 0 0 1-.063-3.118c0-.137 0-.242.011-.336v-.284c.157-.168 5.722-7.602 9.754-9.114 4.232-2.11 6.448 1.155 18.197 4.337 11.75 3.181 23.593-5.397 23.593-5.397-6.447 18.207 3.665 21.672 6.846 27.069.83 1.396 1.302 2.877 1.334 4.452 1.029-1.701 2.205-3.476 3.486-5.05 3.423-4.358 7.623-7.34 11.266-3.35 6.059 6.646-4.43 23.593-9.733 31.3l2.373 5.219c2.362-3.79 20.632-36.771 21.903-48.657.042-.357.052-.714.052-1.071 0-9.345-12.967-17.126-12.967-17.126s0-7.518-11.844-17.146-24.654-3.182-35.438-4.337c-16.81-1.984-33.579-9.628-37.422 7.067-.987 6.73 4.726 7.801 4.631 15.403 0 .389-.21 3.13-.315 3.518v.031c-1.512 5.922-1.87 14.448 4.662 22.03a75 75 0 0 1-.168-2.353 18 18 0 0 1-.042-.724m-.378-9.198h-.01v-.021s.01 0 .01-.01z"/><path fill="#133351" d="M122.272 39.247h.011v-.032c0 .01-.01.01-.01.01z"/><path fill="#c1c7cc" d="M165.564 108.84a83 83 0 0 1-5.218 4.8 71 71 0 0 1-3.308 2.624l-2.363 1.69a69 69 0 0 1-3.328 2.164l-.903.378h-.01l-.903 7.255c0 .01-.011.021-.011.032h46.62l-2.163-11.991-.515-2.762-.136-.756-.137-.756-.147-.83-.073-.409-.053-.283a22 22 0 0 0-.094-.504l-.074-.42-.052-.294-.032-.19-3.024-16.705-.031-.073-2.373-5.219c5.302-7.707 15.792-24.654 9.733-31.3-3.643-3.99-7.843-1.008-11.266 3.35-1.281 1.574-2.457 3.349-3.486 5.05-.032-1.575-.504-3.056-1.334-4.452-3.181-5.397-13.293-8.862-6.846-27.07 0 0-11.844 8.58-23.593 5.398s-13.965-6.447-18.196-4.337c-4.033 1.512-9.598 8.946-9.755 9.114v.284c-.01.094-.01.2-.01.336 0 .62.01 1.69.062 3.118.021.62.053 1.302.095 2.058 0 .095.01.2.021.305.01.23.021.472.042.724.042.735.094 1.523.168 2.352l.031.4c.578 9.344 2.121 18.49 4.431 27.54 5.103 18.88 9.335 27.93 9.335 27.93 4.82 1.45 9.828 2.416 14.836 2.7.043 0 .084 0 .126.01 4.673.273 9.356-.116 13.934-1.26z"/><path fill="#133351" d="m177.124 565.748-.13-.537z"/><path fill="#e0e2e5" d="M154.109 159.472c-.484-.116-.935-.242-1.397-.368.525.19.987.315 1.397.368m32.886-23.835c4.882-3.843 8.357-6.804 9.145-7.854h-50.012l-2.677 2.457v.052c0 .41.01.82.031 1.24.19 5.029 1.45 10.153 3.644 15.33.273.65.567 1.301.861 1.952 1.648 3.518 3.696 7.077 6.122 10.658 4.672-3.066 10.058-6.815 15.382-10.658 6.353-4.599 12.631-9.334 17.504-13.177"/><path fill="#a4abb3" d="m115.243 922.665-71.416 28.009.193.288c6.549 7.898 16.276 12.521 26.582 12.521h101.225l-8.09-40.837zm166.684.077-34.618-.1-5.256 40.841h67.708c5.201 0 9.343-4.238 9.343-9.342a9.3 9.3 0 0 0-1.638-5.298zm-37.287.905h.055z"/><path fill="#005587" d="M199.951 148.812h-.22c.06-.02.14-.04.21-.06z"/><path fill="#a4abb3" d="M293.641 531.372s-15.6 23.79-21.77 29.77c-2.12 2.02-5.08 3.55-8.42 4.52-2.5.73-5.21 1.14-7.94 1.21-5.72.13-11.5-1.25-15.53-4.49l12.72-37.46.09-.09 3.69.58 9.33 1.5z"/><path fill="#c1c7cc" d="m293.641 531.372-27.83-4.46-9.33-1.5-3.69-.58 1.81-6.89-17.69 11.02-4.82-8.19 16.27-19.9 7.87-9.62 7.74-9.48s.04-1.25.09-3.54l.296-2.325 22.01-.247 3.412 1.362 1.979.369c.14-.01-.537 3.3-.397 3.29-.24.88-.48 1.77-.71 2.63-.77 2.51 6.64 35.64 2.99 48.06z"/><path fill="none" d="M253.961 331.742v-.13c-7.13-24.75-21.38-76.09-28.89-117.31l-.09-.49c.03.23.07.46.11.68 7.5 41.19 21.74 92.57 28.87 117.25"/><path fill="#005587" d="M269.84 477.032s-2.934-6.794-3.374-12.504c-.31-3.99-1.849-10.845-2.089-20.085-.02-.89-3.515-12.88-3.535-13.82-.51-29.3 8.945-79.371 9.285-102.981-7.13-24.68-34.03-114.065-34.03-114.135-.05-.43-.795-5.343-.845-5.813-1.73-18.01-9.34-49.702 11.2-59.752l.1.01-9.86-5.44c-7.25-1.3-15.86-2.796-31.01 1.654l-5.246 1.443-2.36.655c-1.14.33-3.975 1.093-5.115 1.443-18.87 5.76-34.708 12.87-42.528 16.26-1.42-.79-9.984-9.347-18.274-15.687-6.56-4.98-13.307-5.819-14.538-4.898-.01-.02-.01-.03-.01-.04l-5.69 3.73c-8.66 6.74-15.89 15.13-21.38 24.66-6.26 11.18-9.35 23.41-8.38 35.74l.1 1.25v.09l6.35 86.1 6.65 70.33-1 61-1 31 .32 1.37 2.68 11.63 1 5 1 3 3.47 1.73.53.27 13.53 3 42.05 1.85 3.42.15 19.57.13 63.53-6.5 11.717-1.48c-.017-.077 13.763-.36 13.763-.36z"/><path fill="#004975" d="M284.161 185.642c-6.63-22.09-18.93-35.29-37.13-37.6l-.48-.09-.1-.01c-20.54 10.05-23.79 43.35-22.06 61.36q.075.705.15 1.35c0 .07.01.13.02.21 0 .03.01.06.01.09.01.12.03.23.04.35.04.25.34 2.31.37 2.51l.09.49c7.51 41.22 21.76 92.56 28.89 117.31v.13c-.34 23.61-2.87 77.42-2.36 106.72l.06 2.74c.24 9.24 1.29 14.05 1.6 18.04.44 5.71 1.58 12.85 1.58 12.85s1.03 4.44 1.15 4.93c.04.177.07.293.087.37.004.017.012.048.013.06.01.02.01.03.01.03l5.03.48 2.93.27 4.69.43 20.2 1.86.82.07 1.18.11c.14-.01.27-.01.41-.02 3.28-.12 5.96-.31 7.78-.84l5.04-16.98s8.08-13.4 8.7-21.03c4.34-52.71 7.64-120.24 7.64-120.24z"/><path fill="#004975" d="M256.091 477.452c-.02-.05-.06-.19-.13-.42l.03-.01c.05.22.09.37.1.43"/><path fill="#002742" d="M147.126 146.861c-2.194-5.176-3.454-10.3-3.644-15.33-.02-.42-.031-.83-.031-1.239v-.052l2.677-2.457h3.392c0-.01.01-.021.01-.032l.903-7.255c.137-1.586.315-3.171.505-4.736-1.094-1.423-10.71-2.247-13.587-1.092-9.292 3.717-13.214 11.564-10.085 18.967 1.176 2.772 3.873 7.252 5.857 9.92 3.308 4.472 8.522 8.763 12.197 11.703 2.562 2.048 5.105 3.528 7.392 3.846.462.126.698 1.052 1.397.368-2.426-3.58-4.473-7.14-6.122-10.658a79 79 0 0 1-.861-1.953m39.869-11.224c-4.873 3.843-11.151 8.578-17.504 13.177-5.324 3.843-10.71 7.592-15.382 10.658.314.031 1.065.669 2.21.186 3.528-1.491 10.874-4.413 18.917-9.116 7.298-4.274 14.31-6.025 21.324-10.907 2.12-1.47 6.341-4.588 8.21-6.005 7.55-5.712 15.21-15.463 14.338-18.015-.367-.756-11.133-3.431-17.77-3.431-2.719 0-4.8 3.156-7.361 3.608l2.163 11.99c-.788 1.05-4.263 4.012-9.145 7.855"/><path fill="#004975" d="m238.631 128.812-1.57 13.77c-.12-.03-.24-.05-.37-.07-7.25-1.3-21.6 1.79-36.75 6.24-.07.02-.15.04-.21.06q-1.71.495-3.42 1.02c-18.87 5.76-38.19 13.2-46.01 16.59-1.42-.79-10.59-8.52-18.88-14.86-6.56-4.98-12.57-9.1-13.8-8.18-.01-.02-.01-.03-.01-.04-6.34-22.61 11.11-34.18 33.96-32.82 0 0-.01.04-.01.11-.01.07-.02.18-.04.31-.01.05-.02.11-.02.18-.02.11-.03.25-.05.4l-.03.29v.01c-.01.1-.02.21-.04.32-.07.55-.13 1.11-.2 1.67-.09.65-.17 1.29-.24 1.95-.72-.01-11.13-.05-14.01 1.1-9.29 3.72-9.96 10.89-6.83 18.29 1.18 2.77 2.88 5.59 4.87 8.26 3.3 4.47 6.792 7.846 10.463 10.786 2.56 2.05 2.242 1.985 5.225 3.866.477.3 3.452 1.408 3.452 1.408.083.002 4.01-1.75 5.15-2.23 3.53-1.49 7.68-3.72 15.72-8.43 7.3-4.27 15.38-9.32 22.4-14.2 2.12-1.47 4.13-2.93 6-4.35 7.55-5.71 12.62-10.73 11.75-13.28-.36-.76-6.42-1.82-13.06-1.82-2.72 0-5.53.18-8.09.63l-.52-2.76-.14-.76-.13-.75-.15-.83-.07-.41-.06-.29c-.03-.17-.06-.34-.09-.5l-.07-.42-.06-.29-.03-.19c4.28-.08 16.91-.93 26.65-.6 17.22.94 19.5 12.19 19.32 20.82"/><path fill="#8a9097" d="M40.656 481.454c-.368-.178-.735-.357-1.092-.535-.147-.063-.283-.137-.43-.2L.062 516.43l2.793 8.663 20.212-9.135L0 552.55l10.017 3.087c6.646 2.12 13.965 1.06 19.75-2.793 6.836-4.526 15.215-10.406 16.947-13.388 11.445-19.299 14.858-42.808 15.488-47.911-1.764-.85-4.022-1.943-7.487-3.518a745 745 0 0 1-14.059-6.573"/><path fill="#002742" d="M134.777 153.745a2.24 2.24 0 0 1-1.487-.562q-.683-.601-1.406-1.163a2.25 2.25 0 1 1 2.755-3.557c.555.43 1.101.882 1.626 1.344a2.25 2.25 0 0 1-1.488 3.938m41.917 2.425a2.25 2.25 0 0 1-1.186-4.163 31 31 0 0 1 1.693-.975 2.25 2.25 0 1 1 2.121 3.969q-.75.4-1.445.832a2.24 2.24 0 0 1-1.183.337"/><path fill="#c1c7cc" d="M168.261 245.492a1.25 1.25 0 0 1-1.19-1.633c3.443-10.71 1.428-24.771-.521-38.368-2.988-20.834-6.076-42.377 10.484-52.634a1.25 1.25 0 1 1 1.316 2.125c-15.169 9.396-12.33 29.194-9.326 50.154 1.99 13.878 4.047 28.228.428 39.488-.171.53-.662.868-1.19.868zm-27.001-11.649a1.25 1.25 0 0 1-1.073-1.89c.055-.093 5.582-9.74-.074-22.884-4.013-9.327-1.552-13.587 1.564-18.98.81-1.401 1.647-2.85 2.46-4.528 3.723-7.68-.085-23.535-10.574-32.464a1.25 1.25 0 1 1 1.62-1.904c11.503 9.792 15.402 26.797 11.203 35.459-.852 1.758-1.751 3.315-2.545 4.688-2.98 5.158-4.948 8.566-1.431 16.74 6.18 14.368.184 24.72-.075 25.153a1.25 1.25 0 0 1-1.075.61"/></svg>