<svg xmlns="http://www.w3.org/2000/svg" viewBox="0 0 361.138 1032.007"><path fill="none" d="M189.2 81.857a46 46 0 0 1 3.605-5.418 47 47 0 0 0-3.618 5.238c.001.061.013.123.013.18m74.481 278.136v-.136c-7.4-25.7-22.2-79-30-121.8a66 66 0 0 1-.7-5.182 65 65 0 0 0 .714 5.383c7.799 42.765 22.581 96.111 29.986 121.735M154.2 500.258q-.083-.21-.165-.418c.056.138.109.28.165.418m1.737 4.406c8.594 22.571 18.67 59.937 27.807 97.647-9.137-37.801-19.213-75.087-27.807-97.647M142.5 435.867v-.009zm52.3-.009h.096l-11.319-265.801h-.012zM91.997 321.712l-.736 12.699.739-12.654zM159.14 139c-.127.083-.258.161-.386.244z"/><path fill="#8a9097" d="m42.2 515.472-1.144-.541-.468-.221L.055 551.747l2.9 9 20.991-9.486L0 589.258l10.4 3.2a23.98 23.98 0 0 0 20.5-2.9c7.1-4.7 15.8-10.8 17.6-13.9 11.984-20.211 15.487-44.885 16.094-49.878a1042 1042 0 0 1-7.794-3.522 1039 1039 0 0 1-14.6-6.786m115.228-385.609a454 454 0 0 0-.627 5.792c.457.834 1.142 2.09 1.953 3.586.128-.083.259-.161.386-.244a81.3 81.3 0 0 0 12.76-10.44 47.9 47.9 0 0 1-14.472 1.306"/><path fill="#2e3033" d="M183.9 602.958c-2.468 11.552-4.835 23.3-6.723 35.145l14.918-.494c-2.665-11.359-5.332-23.004-8.195-34.651"/><path fill="#02201e" d="M85.4 232.3 74.3 362.958c-11.2 31.1-49.4 144.3-49.4 144.3s2.2 1 5.7 2.7c2.668 1.268 6.12 2.919 9.988 4.752l.468.221 1.144.541c4.57 2.16 9.622 4.523 14.6 6.786 2.66 1.214 5.283 2.4 7.794 3.522 6.123 2.733 11.558 5.057 15.114 6.344l1.963-33.6L87.714 395.1l3.547-60.69.736-12.7-6.6-89.355zm89.7 501.657c-4.7-32.9-2.8-64.8 2-95.4.024-.152.053-.3.077-.454 1.888-11.845 4.255-23.593 6.723-35.145l-.048-.2-.108-.45c-9.137-37.71-19.213-75.076-27.807-97.647q-.879-2.307-1.737-4.406-.083-.209-.165-.418c-8.764-21.747-11.4-50.508-11.535-63.973v-.009h-19.353l-.047.3-17.934 113.683L107.8 640.9h-.1l1.993 71.052 10 262.6h53.1C185.4 823.557 191.1 845.258 175.1 733.957"/><path fill="#053634" d="M180.7 48.957c-6.7 18.9 3.8 22.5 7.1 28.1a9.26 9.26 0 0 1 1.387 4.62 47 47 0 0 1 3.618-5.238c3.559-4.531 7.917-7.623 11.695-3.482 6.3 6.9-4.6 24.5-10.1 32.5l2.463 5.418c2.449-3.935 21.418-38.178 22.737-50.517 1.1-10.2-13.4-18.9-13.4-18.9s0-7.8-12.3-17.8-25.6-3.3-36.8-4.5c-11.1-1.1-23.7-4.5-32.6 0-8.4 4.2-.9 16.4-1 24.3v.137c-2.074 6.026-3.731 16.405 4.07 25.458-.453-5.5-.4-9.255-.393-9.5v-.023l.007-.009c.158-.178 5.934-7.9 10.119-9.464 4.4-2.2 6.7 1.2 18.9 4.5s24.497-5.6 24.497-5.6m86.8 633.101c-5.788-10.279-6.895-25.142-6.6-42.8l-58.2 2.6-7.8-205.9v-.1h-52.4v.009c.131 13.465 2.771 42.226 11.535 63.973q.083.208.165.418.858 2.1 1.737 4.406c8.594 22.56 18.67 59.846 27.807 97.647l.108.45.048.2c2.863 11.647 5.53 23.292 8.195 34.651l.1.449c11.3 49.2 19.7 91.1 19.7 91.1l42.1 245.4h35.8C289.8 764.558 318.2 772.058 267.5 682.058"/><path fill="#e0e2e5" d="m183.565 170.057-.464-10.978c-.1-.14-.206-.283-.3-.421-.174-.261 3.316-5.346 7.311-11h-26.85c2.334 4.434 4.308 8.347 4.139 8.6l-.06.085.06.014-.377 2.376-1.795 11.323L148.5 275.557l-18.364 116.114-6.631 41.929-.358 2.258H194.8zm-98.322 59.917c-.035-.507-.075-1.014-.1-1.52.022.51.063 1.021.1 1.531zm-.098-1.52c-.519-11.983 2.762-23.823 8.855-34.7a62.06 62.06 0 0 0-8.855 34.7"/><path fill="#2e3033" d="M167.34 156.344c-2.645 3.932-7.764 9.116-12.7 13.713-6.377 5.942-12.441 10.9-12.441 10.9-4.975-5.9-5.353-21.187-5.155-29.614L116.2 168.257a87.95 87.95 0 0 0-22.2 25.6c-6.334 11.3-9.522 23.65-8.757 36.117v.011c.02.324.03.648.056.972l.1 1.346v.054L92 321.712v.045l-.739 12.654-3.547 60.689-6.043 103.42-1.963 33.6-.008.133-6.4 109.8 34.407-1.152h.1l-2.637-91.064 17.93-113.68.047-.3.358-2.258 6.631-41.929L148.5 275.557l16.728-105.5 1.795-11.323.377-2.376zm134.817 358.318-.073-.006c-.557-.032-2.01-.149-4.031-.32-.788 2.835-1.544 5.584-2.253 8.222-.8 2.6 6.9 37 3.1 49.9 0 0-16.2 24.7-22.6 30.9-7.3 7-24.3 8.4-33.1 1.3l13.2-38.9.1-.1 1.871-7.147L240 569.958l-5-8.5 33.1-40.5-.593 2.649.693-2.649s.03-3.393.073-9.261c-3.6-.324-5.99-.541-5.99-.541s.6-95.344 1.4-151.163c-7.4-25.624-22.187-78.97-29.981-121.735a65 65 0 0 1-.714-5.383c-1.8-18.71 1.569-53.281 22.9-63.718l.142.023-35.814-20.915c-1.985 6.968-7.929 25.956-13.611 32.693 0 0-6.588-4.99-13.111-10.9a77.3 77.3 0 0 1-10.379-10.965l.467 10.965 11.319 265.8v.1l7.8 205.9 58.2-2.6h.1l49.8-2.3z"/><path fill="#a4abb3" d="m326.5 1001.757-36.9-27.1-35.55-.1h-.35l-5.5 42.4h70.3a9.711 9.711 0 0 0 8-15.2m-206.8-27.2-74.2 29.1.2.3a35.87 35.87 0 0 0 27.6 13h105.1l-8.4-42.4zm156.6-371.199c6.4-6.2 22.6-30.9 22.6-30.9l-42.4-6.8-.1.1-13.2 38.9c8.8 7.1 25.8 5.7 33.1-1.3"/><path fill="#c1c7cc" d="m183.1 159.079.464 10.978h.012l-.467-10.965zm-16.077-.345.377-2.376zM204.5 72.957c-3.778-4.141-8.136-1.049-11.695 3.482a46 46 0 0 0-3.605 5.418c0-.06-.012-.119-.013-.18a9.26 9.26 0 0 0-1.387-4.62c-3.3-5.6-13.8-9.2-7.1-28.1 0 0-12.3 8.9-24.5 5.6s-14.5-6.7-18.9-4.5c-4.185 1.562-9.961 9.286-10.119 9.464l-.007.009v.024c-.005.244-.06 4 .393 9.5q.016.202.033.4a153.6 153.6 0 0 0 4.6 28.6c5.3 19.6 9.7 29 9.7 29a67.4 67.4 0 0 0 15.4 2.8q.065-.002.128.006a47.9 47.9 0 0 0 14.472-1.306A81.3 81.3 0 0 1 159.14 139l-.383.248a765 765 0 0 1 4.5 8.412h26.85c4.316-6.11 9.22-12.884 10.725-14.96l-3.936-21.74-.037-.082-2.463-5.418C199.9 97.457 210.8 79.857 204.5 72.957m91.3 449.601c.709-2.638 1.465-5.387 2.253-8.222-7.167-.606-21.607-1.9-29.78-2.639-.043 5.868-.073 9.261-.073 9.261l-.693 2.649.593-2.649-33.1 40.5 5 8.5 18.371-11.447-1.871 7.147 42.4 6.8c3.8-12.9-3.9-47.3-3.1-49.9"/><path fill="#71767c" d="M200.836 132.7c-1.505 2.076-6.409 8.85-10.725 14.96-3.995 5.655-7.485 10.74-7.311 11 .095.138.2.281.3.421l.009.013a77.3 77.3 0 0 0 10.379 10.965c6.523 5.911 13.111 10.9 13.111 10.9 5.682-6.737 11.626-25.725 13.611-32.693.46-1.617.708-2.588.689-2.607l-19.6-13.6zm-42.079 6.545c-.811-1.5-1.5-2.752-1.953-3.586l-.6-1.1-18.9 11c0 .058-.175 2.357-.255 5.786-.2 8.427.18 23.715 5.155 29.614s6.064-4.959 12.441-10.9c4.935-4.6 10.054-9.781 12.7-13.713l.06-.085c.169-.254-1.805-4.167-4.139-8.6a860 860 0 0 0-4.509-8.416m174.026 210.212-41.1-140.8c-4.6-23.6-16.3-37-35.2-39.4l-.458-.077-.142-.023c-21.328 10.437-24.7 45.008-22.9 63.718.184 1.905.42 3.648.7 5.182 7.8 42.8 22.6 96.1 30 121.8v.136c-.8 55.819-1.4 151.163-1.4 151.163s2.389.217 5.99.541c8.173.737 22.613 2.033 29.78 2.639 2.021.171 3.474.288 4.031.32l.073.006c10.266.795 18.627.992 18.727-.006 6.3-50.499 11.899-165.199 11.899-165.199"/></svg>