<svg xmlns="http://www.w3.org/2000/svg" viewBox="0 0 600 400"><ellipse cx="147.296" cy="344" fill="#eff1f2" rx="67.296" ry="5.216"/><ellipse cx="395.713" cy="343.151" fill="#eff1f2" rx="169.2" ry="5.904"/><path fill="#2e3033" d="M441.957 79.327c-.416-4.048-5.248-6.448-5.248-6.448-.416-6.896-8.88-4.464-8.88-4.464s-6.48-3.232-9.712-1.616-.816 6.08-2.032 7.696c-1.2 1.616-1.616 4.048-1.616 4.048s-.576 5.36 3.728 7.712a44 44 0 0 1-.704-6.32c1.872.704 3.888.912 5.872.64 4.832-.816 9.296-4.048 9.296-4.048s0 5.664.416 7.68c.032.16.08.336.112.496 1.152-1.776 2.96-3.968 4.288-2.512 1.76 1.952-1.421 6.034-2.541 7.522l.301.606s7.12-6.944 6.72-10.992"/><path fill="#d0d4d8" d="M429.285 96.384c-1.392.288-2.8.4-4.064.48-.112 1.072-.256 2.208-.368 3.312 1.632-1.008 3.168-2.336 4.432-3.776z"/><path fill="#eff1f2" d="M424.021 107.248h14.32l-3.088-16.976s-.08-.192-.224-.496c1.152-1.456 4.24-5.776 2.464-7.712-1.344-1.488-3.168.752-4.288 2.512-.048-.16-.08-.32-.112-.496-.416-2.032-.416-7.68-.416-7.68s-4.464 3.232-9.296 4.048c-2 .304-4.048.096-5.936-.608.08 2.112.32 4.208.704 6.288.16.8.32 1.616.544 2.464 1.376 5.088 2.512 7.52 2.512 7.52 1.296.416 2.64.656 4 .752 1.344.08 2.688-.048 3.984-.416a19.8 19.8 0 0 1-4.352 3.728c-.416 3.664-.816 7.072-.816 7.072"/><path fill="#595e62" d="m471.106 335.216-9.52-7.2h-10.784l-.864 11.328h19.008a2.63 2.63 0 0 0 2.624-2.64 2.6 2.6 0 0 0-.464-1.488m-77.04.624a9.64 9.64 0 0 0 7.44 3.504h28.352l-2.224-10.88c-4.704-.064-10.991 0-13.694 0z"/><path fill="#4e5256" d="M423.409 199.007c2.464 5.968 5.264 16.896 7.952 27.92-2.496 11.232-4.208 23.152-2.4 35.632 4.384 30.24 4.72 21.017 5.376 66.041l-20.417-.089-2.736-71.936s-2.192-69.328-2.192-72.4-.063-5.408-.063-5.408h12.241z"/><path fill="#7d8389" d="M468.417 328.08c0-57.088-16.208-87.088-16.08-92.336.8-30.352.675-38.353-4.397-56.977h-27.995s.072 12.577 3.32 20.497c2.464 5.984 5.392 16.88 8.064 27.872 4.128 16.976 7.6 34.224 7.6 34.224l11.424 66.72z"/><path fill="#d0d4d8" d="m400.479 157.159-37.432 30.632-14.095 9.04 1.818 2.392c1.354 1.481 1.913 1.575 3.94 1.412 2.349-.169 5.289-.506 6.147-1.012 6.363-3.777 12.063-10.795 12.063-10.795s22.06-11.668 24.607-13.279c3.743-2.383 10.041-5.938 12.244-9.199s-9.293-9.192-9.293-9.192h.001Z"/><path fill="#2e908b" d="M413.001 108.375c-17.126 4.641-11.843 42.198-15.16 50.936 5.009-.34 9.075 6.655 12.127 8.985 4.792-3.847 5.585-13.417 6.673-26.105.976-11.488 0-33.816 0-33.816z"/><path fill="#54aba5" d="m447.09 105.503-9.782-4H424.69l-11.239 6.371c-4.864 2.928-7.323 8.76-7.275 14.456 0 13.623 2.455 26.73 2.754 40.383v16.055h39.008l-.848-73.264Z"/><path fill="#419e98" d="M438.159 178.767h9.782l5.26-67.648.048-.848v-.032l-.032.032-9.568 8.784z"/><path fill="#d0d4d8" d="m369.736 182.902-6.246 5.683-5.362.755-4.482 2.731-2.734-.557 5.736-5.29a9.6 9.6 0 0 1 4.814-2.154l8.273-1.167h.001Z"/><g fill-rule="evenodd"><path fill="#2e3033" d="M474.151 333.215c-24.478 0-44.335-19.846-44.335-44.336s19.846-44.336 44.335-44.336 44.335 19.846 44.335 44.336-19.846 44.336-44.335 44.336m0-98.124c-29.708 0-53.789 24.08-53.789 53.789s24.08 53.789 53.789 53.789 53.789-24.08 53.789-53.789-24.08-53.789-53.789-53.789m-166.497 98.124c-24.478 0-44.335-19.846-44.335-44.336s19.846-44.336 44.335-44.336 44.336 19.846 44.336 44.336-19.846 44.336-44.336 44.336m0-98.124c-29.708 0-53.789 24.092-53.789 53.789s24.08 53.789 53.789 53.789 53.789-24.08 53.789-53.789-24.08-53.789-53.789-53.789m59.14 11.842-14.506-41.251c1.183-.276 2.189-.663 3.284-1.084 1.017-.398 2.112-.818 3.494-1.205a36 36 0 0 1 7.087-1.117c4.688-.31 4.854-5.639-1.194-6.258l-12.914-1.603c-9.763-1.338-15.335-2.09-18.364.531-1.482 1.283-1.404 3.925-.796 5.44.63 1.592 3.98 4.699 14.207 5.594l15.379 43.683 4.323-2.731Z"/><path fill="#54aba5" d="m418.24 230.293-20.487 37.901-6.379 11.797a3.44 3.44 0 0 1-2.985 1.835l-5.948.133a3.52 3.52 0 0 1-3.405-2.366l-8.79-25.706a3.485 3.485 0 0 1 1.537-4.146l41.229-24.456c3.284-1.946 7.043 1.658 5.23 5.008zm-46.116 52.683-7.684 10.382a2.55 2.55 0 0 1-2.211 1.017l-46.635-3.759a8.4 8.4 0 0 0 .199-1.769c0-2.2-.862-4.19-2.267-5.661l45.662-27.032c1.924-1.028 4.212-.343 4.986 1.979 2.056 6.147 5.639 17.126 7.264 22.101.365 1.117.63 1.935.763 2.322.044.144 0 .31-.077.42m102.569-2.289-34.894-73.668 17.093-8.171a5.055 5.055 0 0 0 2.388-6.744c-1.161-2.432-4.036-3.527-6.534-2.488l-10.293 4.776c1.028-2.333-.033-5.086-2.366-6.114a4.6 4.6 0 0 0-3.615-.044l-11.012 4.522a4.65 4.65 0 0 0-2.521 6.059c.752 1.813 2.565 2.974 4.522 2.864l2.83 5.838-119.562 73.723a8.2 8.2 0 0 0-3.173-.63 8.237 8.237 0 1 0 0 16.474 8.2 8.2 0 0 0 5.65-2.255l53.667 5.351a3.56 3.56 0 0 1 2.665 1.769l3.107 4.843c.884 1.393 2.488 1.924 3.991 2.023 1.249.077 2.543.088 5.042-1.459l9.243-5.064a3.4 3.4 0 0 0 1.459-1.404l40.234-72.706a3.5 3.5 0 0 1 1.647-1.504l4.4-1.946 28.779 59.405a8.24 8.24 0 0 0-1.526 4.765 8.237 8.237 0 1 0 16.474 0c0-4.544-3.394-7.927-7.695-8.215"/><path fill="#2e3033" d="m398.238 321.65-6.247-.022-9.033-27.01a2.74 2.74 0 0 0-3.461-1.725 2.74 2.74 0 0 0-1.725 3.461l8.458 25.297h-5.594a1.624 1.624 0 0 0-1.681 1.537v1.747a1.61 1.61 0 0 0 1.681 1.548h17.602a1.61 1.61 0 0 0 1.681-1.548v-1.747a1.61 1.61 0 0 0-1.681-1.537Z"/></g><path fill="#2e908b" fill-rule="evenodd" d="M447.076 105.497c4.926 1.131 6.793 2.176 10.985 9.424 4.192 7.232 13.089 38.799 12.595 43.345-2.736 2.864-13.134-1.45-13.134-1.45s-13.696-25.696-14.24-34.64c-.256-4.272.034-11.975 3.794-16.679"/><path fill="#eff1f2" d="m427.836 185.786-6.478 5.167 8.311 6.937c.679-1.612 3.097-7.11 3.508-7.537 21.584-18.566 56.763-38.67 24.377-33.542z"/><path fill="#e0e2e5" d="m431.513 193.697-2.111 5.028c-.427 1.09-1.344 2.876-2.734 3.097q-1.374.189-2.748.189c-.427.016-1.802 2.212-2.197 2.212-1.058-.016-1.864-.08-1.864-.08l1.502-13.188 10.153 2.741h-.001Z"/><path fill="#383b3e" d="m113.521 339.744 9.904-7.472h10.16l1.52 11.648h-19.344a2.76 2.76 0 0 1-1.904-.784 2.7 2.7 0 0 1-.784-1.904 2.37 2.37 0 0 1 .448-1.488m77.328.56-.048.08c-.928 1.12-2.08 2.016-3.392 2.64s-2.736.928-4.192.928h-28.912l2.384-11.648h13.856z"/><path fill="#383b3e" d="M115.409 332.56c0-57.776 16.4-87.984 16.272-93.296-.768-29.056-1.488-36.08 3.52-54.864h29.136c-.16 3.68-.768 11.696-3.232 17.712-2.496 6.064-5.456 17.104-8.192 28.256-4.176 17.216-7.696 34.704-7.696 34.704l-11.6 67.52h-18.208z"/><path fill="#c1c7cc" d="m168.657 148.223 46.704-6.416 9.056-3.904 2.256 9.664c-1.024.88-3.408 1.232-4.4 1.344-5.28.576-12.784.832-12.784.832l-30.416 10.656c-7.146 1.888-12.808-5.073-10.416-12.176"/><path fill="#101112" d="m175.313 184.4-.112 4.432-1.856 71.52-2.656 72.224h-20.72c.656-45.536.992-35.584 5.392-66.176 1.824-12.624.08-24.656-2.432-36.032 2.704-11.152 5.68-22.192 8.16-28.256 2.464-6 3.072-14.032 3.232-17.712z"/><path fill="#d0d4d8" d="M155.841 100.975a14.1 14.1 0 0 0 4.768.48c.144 1.328.288 2.72.416 4.096a24.8 24.8 0 0 1-5.184-4.576"/><path fill="#eff1f2" d="M161.04 105.248c.496 4.064 1.36 9.2 1.36 9.2l-16.544-1.344s3.552-18.352 3.76-18.848c-.832-1.024-3.76-3.248-3.344-5.856.176-1.104-.176-1.824.496-2.528 1.52-1.584 3.696-3.44 4.976-1.52q.432-2.28.48-4.608s4.992 0 10.544-.32c5.504-.32 4.912 4.64 6.704 4.048a44 44 0 0 1-.816 6.8c-.176.864-.384 1.76-.64 2.656-1.552 5.504-2.848 8.144-2.848 8.144a19.6 19.6 0 0 1-4.512.768 14.1 14.1 0 0 1-4.416-.4 22.5 22.5 0 0 0 4.8 3.808"/><path fill="#66b8b2" d="M147.777 103.168s5.824 6.832 10.048 5.84 2.784-4.128 2.784-4.128l11.392 6.896a17.1 17.1 0 0 1 6.368 6.832c1.44 2.832 2.08 6 1.824 9.152l-1.056 7.328-3.728 25.728-.224 10.928.112 12.624h-40.112l-6.032-69.904 18.624-11.328z"/><path fill="#419e98" d="m145.121 184.369-9.936.016-6.032-69.904.4.112 11.552 14.16z"/><path fill="#8dd2cd" fill-rule="evenodd" d="M157.84 109.024c-6.528-1.872-9.84-6.96-9.84-6.96l-4.475 3.646s4.411 5.394 10.635 10.146c0 0 2.384-3.36 3.68-6.832m2.881-4.527c.032 2.512-2.88 4.512-2.88 4.512l5.008 5.824s1.168-3.456 1.168-5.76-3.296-4.592-3.296-4.592"/><path fill="#2e3033" d="M158.224 96.272c0 1.632 6.144 4.704 9.104-1.088v-.304c-1.84 1.568-8.704.608-8.704.608q-.4.56-.4.768zm-12.88-13.552c.4-2.624 3.808-4.624 3.808-4.624s.144-2.016 3.488-4.368 6.688-.832 9.552-.448c3.856.518 8.208 2.915 8.208 7.264.144 2.032-1.013 4.535-1.013 4.535-.137-.488-.231-.881-.569-1.419-.482-.767-1.251-1.468-2.051-1.948-1.104-.656-1.744.16-4.96.784s-6.208-1.904-6.208-1.904c1.36 5.008-1.952 3.184-2.912 4.56-.16.224-.8.608-1.248.912l1.408 8.448s.496.688 1.936.528a26.7 26.7 0 0 1 8.128-1.632c4.848-.224 4.736.768 4.736.768s1.76 4.064-.416 7.648c-1.808 2.992-5.504 3.808-8.112 3.744-1.024-.032-.16-.608-1.248-1.856-.72-.832-4.848-.64-6.176-2.704-.88-1.376-.559-3.152-.175-4.752l.296-1.839a4.78 4.78 0 0 0-.453-2.946c-1.26-2.442-3.515-6.192-5.089-3.055-.576-1.168-1.235-3.777-.947-5.681l.016-.016Z"/><path fill="#eff1f2" d="M166.504 92.633c.077.092.138.199.184.307.031.107.046.23.031.353 0 .245-.123.49-.307.659s-.414.276-.659.276c-.751.092-5.855-1.41-5.855-1.41l4.384-3.249 2.222 3.065Z"/><path fill="#4e5256" d="M197.583 128.913h29.232l-9.456 35.631h-28.928z"/><path fill="#e0e2e5" d="m224.433 137.903-9.456.576c-.752 2.512 1.056 6.016 3.168 6.944 1.872.832 8.56 2.128 8.56 2.128l-2.256-9.664z"/><path fill="#419e98" d="m180.194 127.691 1.545 18.713s-4.806 2.999-4.774 2.775z"/><path fill="#8dd2cd" d="m116.241 165.745 8.608-44.576c1.632-5.664 4.96-8.32 9.568-8.032 7.088.976 7.856 10.24 7.472 14.336-.688 7.808-7.824 36.16-9.152 37.264-4.988 4.147-11.146 4.348-16.496 1.008"/><path fill="#116864" d="m168.864 154.096 1.632.544 3.744-11.168-1.632-.544z"/><path fill="#053634" d="m170.497 154.656-1.632-.544-.368 1.632 1.312.432zm1.952-11.776 1.952.656 2.032-6.064-1.952-.656z"/><path fill="#116864" d="m174.641 136.864 1.632.544.208-1.744-.944-.32-.88 1.504z"/><path fill="#07423f" d="m175.681 135.409.64.208-.08-.736h-.064zM170.785 154.736l.448.16 1.856-5.536-.448-.16zm-2.304 1.744.864.288.224-.688-.864-.288z"/><path fill="#eff1f2" d="M139.066 154.687c11.248-5.296 22.4-10.512 22.4-10.512l7.232-3.888 4.528 10.24s-7.744 1.024-8.32 1.424c-14.704 10.848-39.676 32.695-48.668 13.783-.08-.16 11.404-5.671 22.812-11.047z"/><path fill="#e0e2e5" d="m168.706 140.291 13.278 2.269s-.16.784-.432 1.824c-.112.384-2.64 1.12-2.752 1.52a23 23 0 0 1-.928 2.64c-.896 1.904-4.654 1.978-4.654 1.978l-4.513-10.231z"/><path fill="#54aba5" d="m387.952 101.424-13.184-13.152V49.6h-49.055v51.824z"/><path fill="#fff" d="M351.856 71.488v-6.336h-3.343v6.336l.767 7.808h1.792l.768-7.808z"/><circle cx="350.241" cy="83.791" r="2.08" fill="#fff" transform="rotate(-67.5 350.241 83.79)"/><path fill="#54aba5" d="M270.977 101.424V49.6h-49.072v38.688l-13.152 13.136z"/><path fill="#fff" d="M244.657 78.112c0-1.072.192-1.92.56-2.56.384-.64 1.104-1.344 2.176-2.096.816-.576 1.392-1.088 1.712-1.552q.48-.72.48-1.68c0-.896-.32-1.584-.944-2.096-.528-.432-1.216-.656-2.048-.656-2 0-3.232 1.072-3.696 3.232l-2.72-.512c.192-.88.432-1.6.736-2.16q.456-.84 1.296-1.536 1.752-1.488 4.512-1.488c2.76 0 3.424.528 4.528 1.584.96.912 1.44 2.096 1.44 3.52 0 1.072-.24 1.968-.736 2.672-.48.704-1.376 1.504-2.688 2.368-.784.512-1.28.976-1.536 1.408-.24.416-.368 1.04-.368 1.84v1.04h-2.736v-1.312z"/><circle cx="245.936" cy="83.937" r="2.08" fill="#fff"/></svg>