<svg xmlns="http://www.w3.org/2000/svg" viewBox="0 0 609.829 714.952"><circle cx="306.458" cy="539.977" r="132.635" fill="#4e5256" transform="rotate(-45 306.458 539.977)"/><circle cx="306.458" cy="539.977" r="115.93" fill="#656a6f" transform="rotate(-13.283 306.458 539.977)"/><circle cx="306.458" cy="539.977" r="32.635" fill="#e0e2e5"/><circle cx="306.458" cy="539.977" r="17.513" fill="#979ea4"/><path fill="#979ea4" d="M306.458 407.342c-73.135 0-132.635 59.5-132.635 132.635s59.5 132.635 132.635 132.635 132.635-59.5 132.635-132.635-59.5-132.635-132.635-132.635m0 255.27c-67.622 0-122.635-55.014-122.635-122.635s55.013-122.635 122.635-122.635 122.635 55.013 122.635 122.635-55.014 122.635-122.635 122.635"/><path fill="#e472db" d="m333.407 231.7 4.85 78.38-4.85 11.259-39.839-18.534c1.59-4.93 39.58-105.314 39.58-105.314-2.079 10.047-.693 21.998.26 34.21z"/><path fill="#340731" d="M375.317 207.694H482.39v199.599H375.317zm-130.561 92.04h104.323c10.222 0 18.521 8.3 18.521 18.522v7.078H226.234v-7.078c0-10.222 8.3-18.522 18.522-18.522"/><path fill="none" stroke="#8b2284" stroke-miterlimit="10" stroke-width="15" d="M375.317 327.629s-120.815.252-127.215.201c-25.655-.201-38.843 18.566-38.843 40.536 0 3.958.18 87.222.18 87.222"/><path fill="#2e3033" d="M101.478 612.134c-24.11 0-43.724 19.614-43.724 43.724s19.615 43.724 43.724 43.724 43.724-19.615 43.724-43.724-19.614-43.724-43.724-43.724m0 72.448c-15.838 0-28.724-12.886-28.724-28.724s12.886-28.724 28.724-28.724 28.724 12.885 28.724 28.724-12.886 28.724-28.724 28.724"/><path fill="#8b2284" d="M101.478 685.09c-16.119 0-29.232-13.113-29.232-29.232s13.113-29.232 29.232-29.232 29.233 13.113 29.233 29.232-13.114 29.233-29.233 29.233z"/><path fill="none" stroke="#8b2284" stroke-miterlimit="10" stroke-width="15" d="M101.658 655.858s-.18-151.594-.18-155.551c0-21.97 13.187-40.738 38.843-40.536 4.122.032 99.232-.06 166.411-.131l65.715-.07s-.517-226.989-.517-233.389c0-18.447 11.859-37.835 32.753-38.964 3.951-.214 48.376 0 48.376 0"/><path fill="#340731" d="M450.236 172.817h64.288v27.576h-64.288z"/><path fill="#1a1c1d" d="M306.732 377.293c-89.82 0-162.635 72.814-162.635 162.635s72.815 162.635 162.635 162.635 162.635-72.814 162.635-162.635-72.814-162.635-162.635-162.635m0 295.27c-73.135 0-132.635-59.5-132.635-132.635s59.5-132.635 132.635-132.635 132.635 59.5 132.635 132.635-59.5 132.635-132.635 132.635"/><path fill="none" stroke="#8b2284" stroke-miterlimit="10" stroke-width="15" d="m307.015 464.11-.283 78.818H101.478"/><path fill="#595e62" d="m152.666 630.316 38.725-40.062 11.818 11.423-38.725 40.062z"/><path fill="#551151" d="M118.629 408.212c-3.51.409-6.592 7.605-6.592 7.605v43.91s3.081 7.196 6.592 6.869h24.214l15.332.654h107.462c-2.077-2.126-3.367-7.278-3.367-7.278v-46.036s1.003-4.58 2.722-5.806l-90.053.654-15.331-.654h-40.98v.082z"/><path fill="#791d73" d="M473.046 421.94c0-7.931-5.358-14.39-11.936-14.39l-122.063-.175-70.809.174c-3.323 0-5.968 3.271-5.968 7.196v46.036c0 4.007 2.713 7.196 5.968 7.196H319.3l-.008.028 141.818-.202c6.578 0 11.936-6.46 11.936-14.392v-31.47z"/><path fill="#8a9097" d="M146.259 372.09 74.275 578.653l-8.296 5.132 21.223 10.37 10.476-3.332c36.193-43.335 83.49-100.612 99.325-174.66l170.504-31.138-10.636-59.503s-88.904 11.704-118.008 18.365c-23.591 5.4-92.604 28.203-92.604 28.203"/><path fill="#a4abb3" d="M414.905 337.77c-32.64-21.903-110.604-5.988-140.46.078-62.08 12.613-89.913 31.513-89.913 31.513L121.145 582.23l26.4 12.52c39.095-69.375 76.021-108.632 91.857-182.679 0 0 106-2.546 132.422-3.153 15.45-.355 47.166 2.492 59.44-9.783 12.199-12.198 11.6-27.041 11.6-27.041-7.25-13.772-9.531-21.958-27.959-34.324"/><path fill="#595e62" d="m1.157 612.355 163.753 11.211-1.157 16.903L0 629.258z"/><path fill="#595e62" d="m.436 622.889 168.213 11.913-4.897 5.667L0 629.26zm17.145-.774-16.424-9.76 16.763-2.873 129.841 13.285z"/><path fill="#e5a2df" d="M74.275 578.653 1.712 600.415l.144.252c5.516 7.8 14.298 12.676 23.772 13.324l72.663 4.975-.613-28.143z"/><path fill="#e5a2df" d="m121.55 580.873-72.73 23.338.149.257c5.68 7.958 14.691 12.91 24.392 13.532l74.4 4.767-.501-28.778-25.712-13.116z"/><path fill="#d0d4d8" d="M353.47 86.37h18.62c8.487 7.361 11.951 2.511 17.234-11.26 3.551-9.18 5.37-19.053 6.236-24.596-4.157-4.59-10.74-10.133-6.236-21.218 0 0-11.605 8.487-23.21 5.283-11.605-3.205-13.424-5.456-17.928-4.244-4.59 1.213-7.621 4.937-9.267 7.622-.087.52-.173 1.126-.26 1.645 0 0-.086 4.504.52 11.346.693 8.4 2.078 16.715 4.244 24.942.26.867.302 1.762.562 2.628 0-.086 3.055 16.32 9.484 7.852z"/><path fill="#d0d4d8" d="m404.175 87.322-1.04-5.11c5.543-8.487 13.684-23.21 8.401-29.1-4.937-5.369-9.786.087-12.558 4.677-.953 1.473-1.732 3.118-2.425 4.677l1.3 14.723.52 6.15-.52-6.15c.346 4.504 1.039 19.833.952 21.739-.606 10.479-11.518 16.628-20.872 16.628h-11.606a4020 4020 0 0 1-3.377 28.494h51.617z"/><path fill="#9e2896" d="M413.467 23.06s0-7.327-11.502-16.782c-11.501-9.456-24.11-3.152-34.59-4.174-10.478-1.022-22.32-4.174-30.67 0-7.496 3.748-1.618 14.055-1.022 21.466-3.237 5.708-8.259 18.944 3.583 28.4-.596-6.815-.26-11.363-.26-11.363.085-.596.17-1.107.255-1.618 1.704-2.64 4.686-6.304 9.201-7.496 4.515-1.278 6.304 1.022 17.806 4.174 11.501 3.151 22.636-5.315 22.636-5.315-4.43 10.989 2.411 16.56 6.585 21.074-.851 5.537-2.943 15.233-6.436 24.262-5.197 13.63-8.624 17.405-16.856 10.585l-18.728.097c-4.515 5.792-7.526.263-9.287-6.964 0 0-.026.063-.072.166-.255.852-1.868 6.269-1.868 11.124 0 5.197 6.305 12.607 6.305 15.674v9.37h29.307c9.457 0 20.276-6.218 20.958-16.696.085-1.959.085-4.856-.085-8.263-.17-4.174-.512-9.03-.852-13.544l-1.278-14.822a30.7 30.7 0 0 1 2.47-4.686c2.812-4.6 7.504-10.012 12.445-4.56 5.368 5.878-2.84 20.525-8.377 29.044l1.044 5.246s17.721-28.282 18.999-48.64c.767-9.627-9.712-15.76-9.712-15.76z"/><path fill="#e5a2df" d="M414.905 337.77c-12.868-7.493-56.41-7.634-73.29-7.634-9.926 0-28.897.057-34.883 1.847l6.332-49.276-.433-7.275-4.85-78.379c-1.04-12.211-2.425-24.076-.26-34.296 1.732-8.314 5.803-15.416 14.377-20.612l39.146-23.644h51.098l48.886 28.826c-6.409-2.945-46.123 190.443-46.123 190.443"/><path fill="#e472db" d="m414.227 337.43 40.761-193.38c9.18 17.148 10.78 20.414 24.119 36.956-3.984 50.492-21.607 142.675-36.243 191.088 0 0-5.107-13.353-14.01-22.859-3.797-4.053-14.627-11.805-14.627-11.805"/><path fill="#340731" d="m460.957 479.033 17.318-275.615v5.314c14.11.904 24.815 7.76 23.91 21.87l-14.044 224.52c-.904 14.11-13.075 24.815-27.184 23.91zM340.06 312.123h104.323c10.223 0 18.522 8.3 18.522 18.522v7.078H321.538v-7.078c0-10.222 8.3-18.522 18.522-18.522"/><path fill="none" stroke="#9e2896" stroke-miterlimit="10" stroke-width="15" d="M470.621 340.018s-120.815.252-127.215.201c-25.655-.201-38.842 18.566-38.842 40.536 0 3.958.18 87.222.18 87.222"/><path fill="none" stroke="#9e2896" stroke-miterlimit="10" stroke-width="15" d="M196.963 668.247s-.18-151.594-.18-155.551c0-21.97 13.187-40.738 38.842-40.536 4.122.032 99.233-.06 166.412-.131l65.715-.07s-.518-226.989-.518-233.389c0-18.447 11.86-37.835 32.753-38.964 3.952-.214 48.377 0 48.377 0"/><path fill="none" stroke="#9e2896" stroke-miterlimit="10" stroke-width="15" d="m402.32 476.5-.283 78.817H196.783"/><path fill="#340731" d="M545.54 185.206h64.288v27.576H545.54z"/><path fill="#2e3033" d="M402.037 389.682c-89.82 0-162.635 72.814-162.635 162.635s72.814 162.635 162.635 162.635 162.635-72.814 162.635-162.635-72.814-162.635-162.635-162.635m0 295.27c-73.135 0-132.635-59.5-132.635-132.635s59.5-132.635 132.635-132.635 132.635 59.5 132.635 132.635-59.5 132.635-132.635 132.635m-205.254-60.429c-24.11 0-43.724 19.614-43.724 43.724s19.614 43.724 43.724 43.724 43.724-19.615 43.724-43.724-19.615-43.724-43.724-43.724m0 72.448c-15.839 0-28.724-12.886-28.724-28.724s12.885-28.724 28.724-28.724 28.724 12.885 28.724 28.724-12.886 28.724-28.724 28.724"/><path fill="#c535bc" d="M196.783 697.543c-16.154 0-29.296-13.142-29.296-29.296s13.142-29.296 29.296-29.296 29.295 13.142 29.295 29.296-13.142 29.296-29.295 29.296"/><path fill="#e48cdd" d="M415.672 192.414c-3.027-14.212-1.246-45.934 23.657-50.278l.306-.223c8.251-.16 15.418 1.409 21.393 5.414 1.14.81 2.278 1.62 3.302 2.593l.075.102c4.419 4.124 8.033 9.93 10.76 17.949L516.6 281.254c-23.193 2.08-40.632 10.53-50.79 14.449-5.682-8.208-3.535-4.455-17.13-27.998-10.963-18.974-21.86-40.108-28.477-59.128-1.7-5.327-3.299-10.729-4.53-16.164z"/><circle cx="402.037" cy="552.317" r="132.635" fill="#b2b9c0" transform="rotate(-45 402.037 552.317)"/><circle cx="402.037" cy="552.317" r="115.93" fill="#d0d4d8" transform="rotate(-13.283 402.037 552.317)"/><circle cx="402.037" cy="552.317" r="32.635" fill="#e0e2e5"/><circle cx="402.037" cy="552.317" r="17.513" fill="#c535bc"/><path fill="#fff" d="M402.037 419.682c-73.135 0-132.635 59.5-132.635 132.635s59.5 132.635 132.635 132.635 132.635-59.5 132.635-132.635-59.5-132.635-132.635-132.635m0 255.27c-67.621 0-122.635-55.014-122.635-122.635s55.014-122.635 122.635-122.635 122.635 55.014 122.635 122.635-55.014 122.635-122.635 122.635"/><path fill="#b2b9c0" d="m390.265 410.709-17.692 6.004-5.066 7.537a132 132 0 0 1 16.195-3.294z"/><path fill="#c1c7cc" d="M401.32 456.797c5.955-1.785 16.281-19.716 16.281-19.716l-38.474-18.828-15.359 37.984s27.135 3.682 37.553.56z"/><path fill="#d0d4d8" d="M503.752 275.666c-18.653-4.36-36.843.258-50.734 20.065-19.81 28.323-38.59 77.515-49.144 104.664-.69 1.892-24.747 17.858-24.747 17.858l38.474 18.828 9.578-23.635s90.243-131.75 89.421-132.192a41.7 41.7 0 0 0-12.848-5.588"/></svg>