<svg xmlns="http://www.w3.org/2000/svg" viewBox="0 0 283 736"><g fill="none" fill-rule="evenodd"><path fill="#8A9097" fill-rule="nonzero" d="m131.564 243.37-94.72-44.09-14.72-17.87-6 6.75L.844 177.6l9.2 32.77 34.7 19.61s45 40.1 75.77 44.31c20.2 2.75 19.33-25.56 11.05-30.92"/><path fill="#00629A" fill-rule="nonzero" d="m104.494 161.09-2.91 68.24 22.88 25.13z"/><path fill="#A4ABB3" fill-rule="nonzero" d="m168.654 75.22 2.27-7.71s.67-.66 3.9-1.91 5.663-16.028 6.993-23.148c1.55-7.74 1.042-10.482 1.042-10.482s-14.836-6.407-19.066-5.617-14.079 7.607-19.079 7.607c-1.945-.025-3.824-1.1-5.555-1.99-.3 1.11-.565 2.89-.785 4.14a118.4 118.4 0 0 0 1.73 19 87 87 0 0 0 2 9l.44 1.54q.917 2.815 1.475 4.034.935 2.04 3.005 5.746c4.78-6.1 10.31-4.955 14.28-3.995 2.78.737 5.316 1.752 7.35 3.785"/><path fill="#43464A" fill-rule="nonzero" d="m189.574 76.7 5.14-21.09a64.2 64.2 0 0 1-6.68 12.49z"/><path fill="#A4ABB3" fill-rule="nonzero" d="M188.074 68.09a64.5 64.5 0 0 0 6.68-12.49 21.6 21.6 0 0 0 1.18-4.78c0-.29.07-.59.07-.81a6.15 6.15 0 0 0-1.39-4.33c-2.13-2.36-4.56-1.47-6.84.66-3.89 3.67-7.05 11-7.05 11l3.82 13.45c.07.29.07.66.15 1 .128.995.151 2 .07 3-.37 4.49-2.79 9.41-7.13 11.84-5.95 3.38-8.67 3.74-12.64 6.24a47 47 0 0 0-6.15 5.42c-1.11 9.78-2.21 18.38-2.21 18.38h40.28z"/><path fill="#C1C7CC" fill-rule="nonzero" d="m126.624 704.98-53.78 19.69.15.22a25.94 25.94 0 0 0 20 9.41h76.21l-6-29.25c-12.64-.15-28.22.37-34.24 0h-2.28zm153.37 18.24-25.57-19.32h-29l-2.35 30.42h51.08a7.05 7.05 0 0 0 7-7.05 7.13 7.13 0 0 0-1.16-4.05"/><path fill="#001D33" fill-rule="nonzero" d="m142.784 304.76 48.87.37c0-.15-.08-.22-.08-.37-.07-.44-78.41 0-78.41 0l5.81 207.1 7.35 193.36h54.82c-1.76-121-2.65-96-14.4-177.26-4.86-33.51-.23-65.55 6.46-95.75-7.2-29.62-12.917-58.593-19.527-74.653-8.75-21.38-10.893-52.747-10.893-52.747z"/><path fill="#003253" fill-rule="nonzero" d="M272.784 704.04c0-153.45-43.58-234.07-43.21-248.18 2.06-78.93 4.11-98-10.22-150.51l-27.78.59-48.79-.37s-.08 30.94 8.67 52.25c6.61 16.1 14.48 45.35 21.68 74.89 11.1 45.64 20.43 92 20.43 92l30.72 179.32z"/><path d="M159.174 95.39c1.17-12.13 3-24 2.71-24.62l18.23-1.55c-1.47 10.58-11.17 20.06-20.94 26.16zm-11.03-36.97-3.38-27.26-10.92-3.46c-.07-.07-14.47 23.3 14.26 30.72z"/><path fill="#007BC0" fill-rule="nonzero" d="m239.274 125.59-33.51-19.54a104.5 104.5 0 0 0-28.37 23c-11.76 13.37-29.48 44.37-29.48 44.37s-5.94-17.92-7.56-28.72c-2.2-14.77-1.17-32.41-1-34l-13.15 7.93a45.19 45.19 0 0 0-21.68 42.48l12.71 87.82-5.22 62h85q6.596-56.502 8.75-84.891t2.42-62.309l31.09-38.15z"/><path fill="#D1E4FF" fill-rule="nonzero" d="M140.194 144.9c1.61 10.8 7.86 28.73 7.86 28.73s17.42-31 29.18-44.39c12.78-14.47 25.87-21.75 28.36-23l.27-.15-10.7-6.61-3.16-9.85-34.91 4.93-4.25 7.42-13.74 8.83s-1.11 19.32 1.1 34.09z"/><path fill="#00629A" fill-rule="nonzero" d="M239.344 125.67v-.08l-.07.08-31.16 38.14-11.17 147.13h31.9l10.5-184.83z"/><path fill="#A4ABB3" fill-rule="nonzero" d="M179.674 58.13s9.17-18.91 15.17-12.42-8.09 23.08-8.09 23.08z"/><path fill="#001D33" d="m162.184 99.22-15.51-4.48v17.93l15.51-4.45 15.51 4.48V94.73z"/><path d="M151.844 184.02a3.61 3.61 0 1 1-7.22.02 3.61 3.61 0 0 1 7.22-.02"/><path fill="#43464A" fill-rule="nonzero" d="M196.414 19.69c-6.47-3.6-13.6-2.87-18.67-7.13s-7.35-9.48-15.9-11.61-12 .88-13.45 3-3.6 9.34-3.6 9.34-11.76-1.55-11.76 9.18a11.7 11.7 0 0 0 1.55 5.88c-1.62 2.87-9.11 18.22 5.59 26.75a117.6 117.6 0 0 1-1.7-19c.22-1.25.44-2.42.74-3.53a12 12 0 0 0 5.58 1.4c5 0 15.07-6.47 19.33-7.2s18.45 5.51 18.45 5.51.44 2-1 9.85c-1.33 7.13-3.46 22-6.69 23.37a17.2 17.2 0 0 0-3.9 1.91l-2.35 7.81a16 16 0 0 0-7.35-4.26c-4-1-9.4-1.59-14.32 4.44l-4.44-9.71s-6.08 5.53-6.08 16.03c0 9 7.27 11 7.27 11a59 59 0 0 0 7.06 5.8 27.6 27.6 0 0 0 5.8 2.57s1-1.17 2.43-2.72a35.5 35.5 0 0 1 6.17-5.51c4-2.5 6.69-2.86 12.64-6.24a15.21 15.21 0 0 0 7.13-11.84c.091-1 .068-2.006-.07-3-.08-.29-.08-.66-.15-1l-3.82-13.46s3.23-7.35 7.05-11c2-1.83 5-2.57 6.78-.61a6.13 6.13 0 0 1 1.57 4.28c.23-.59.33-1.24.55-2 2.5-7.71 5.07-25.28-.44-28.29z"/><path fill="#595E62" fill-rule="nonzero" d="M24.724 221.58a5.75 5.75 0 0 0 5.83 3h.3a5.74 5.74 0 0 0 4.99-5.36l2.52-48.56a5.77 5.77 0 0 0-6.48-6l-1.56.2 3.36-15a1.45 1.45 0 0 0-1.12-1.73l-2.32-.48a1.6 1.6 0 0 0-.48 0 1.48 1.48 0 0 0-1.21 1l-3.42 11.9-2.15-16.33a1.47 1.47 0 0 0-1.61-1.24l-2.28.29a1.48 1.48 0 0 0-1.25 1.64l2.17 16.31-6.36-10.7a1.43 1.43 0 0 0-1.87-.56l-2.12 1a1.47 1.47 0 0 0-.62 2l7.22 13.56-2.12.28a5.71 5.71 0 0 0-4.11 2.62 5.82 5.82 0 0 0-.82 4z"/><path fill="#A4ABB3" d="m.844 177.6 24.23-3.58c2.06 7 5.17 19.73-2.19 26.49a162 162 0 0 1-12.84 9.86z"/><path fill="#C1C7CC" fill-rule="nonzero" d="m149.914 262.74-24.78-9.32-14.1 7.66 3.26 3.39 9.55-2.45 2.87 2.18z"/><path fill="#D1E4FF" fill-rule="nonzero" d="m275.204 258.56-24.06-116.29c-4.28-14.3-12.76-21-24.47-20.12-17.94 2.67-19.63 26.15-18.58 36.53 2 19.77 15.34 61.89 21.09 76.47 24.19 6.83 46.02 23.41 46.02 23.41"/><path fill="#D0D4D8" fill-rule="nonzero" d="m111.524 226.22-6.26-15.85-10.27 3.56 4.85 16.29c2.67 7.67-5.25 10.41-2.57 18.16l19.74 57 27.46-9.5-19.74-57c-2.66-7.72-10.56-4.98-13.21-12.66"/><path fill="#A4ABB3" fill-rule="nonzero" d="M209.064 238.22c-21 6-42.94 16.43-59.15 24.48l-28.62 1.79s8.77 30.91 8.7 30.94c8.68.4 28.6-9 28.6-9s116.79-27.16 116.61-27.93a36.1 36.1 0 0 0-4-9.51c-11.05-18.88-35.94-18.2-62.14-10.77"/><path fill="#8A9097" fill-rule="nonzero" d="m121.294 264.53-24.11 11.79s.39 6.26 8.36 12.56c7.67 6.12 23.54 6.34 24.5 6.6z"/></g></svg>