<svg xmlns="http://www.w3.org/2000/svg" viewBox="0 0 712 649"><g fill="none" fill-rule="evenodd"><path stroke="#7D8389" stroke-linecap="round" stroke-width="1.16" d="m579.011 536.505-164.675 35.13m-2.926-71.36 159.55-10.246"/><path fill="#791D73" d="M438.24 238.363s-103.853 48.816-114.794 53.574c-6.862 2.984-17.798 9.889-10.76 24.536 6.49 13.505 81.953 119.335 81.953 119.335l36.586-20.271-60.316-93.442 98.373-18.798z"/><path fill="#383B3E" d="m512.484 302.629 4.265.117a.774.774 0 0 0 .791-.75l.402-14.769a.773.773 0 0 0-.75-.791l-4.263-.117a.774.774 0 0 0-.793.75l-.402 14.769a.773.773 0 0 0 .75.79"/><path fill="#656A6F" d="m348.703 494.036 34.903-6.142a1.39 1.39 0 0 0 1.122-1.602l-1.389-7.888a1.386 1.386 0 0 0-1.6-1.122l-34.904 6.142a1.39 1.39 0 0 0-1.122 1.602l1.39 7.888c.131.75.852 1.254 1.6 1.122"/><path fill="#595E62" d="M368.489 104.125c-32.548-21.094-60.4 75.61-66.994 83.41-.002-.004-69.803 53.095-69.803 53.095l9.587 9.143s87.387-33.87 94.281-46.285c11.262-20.276 28.895-49.779 51.148-82.495 0 0-9.148-10.986-18.22-16.868"/><path fill="#979EA4" d="m337.568 474.506 57.302-33.094 16.561-2.865 12.422 31.473-63.002 11.02c-8.248 1.415-16.764-.92-23.114-6.366z"/><path fill="#383B3E" d="M363.609 537.154c.152-18.947 15.635-34.185 34.584-34.034s34.187 15.637 34.036 34.585c-.152 18.949-15.637 34.187-34.587 34.035-18.949-.152-34.185-15.637-34.033-34.586m-5.527-.043c-.177 22 17.515 39.98 39.517 40.156 22 .177 39.98-17.515 40.157-39.517.177-22-17.515-39.98-39.518-40.157-22-.177-39.981 17.515-40.156 39.518"/><path fill="#383B3E" d="m407.036 516.312 4.22-12.564 2.963 2.01-2.078 6.188.556 2.999 3.444-.493 4.79-4.142 2.972 2.017-9.76 8.437-11.868 16.7-6.324-4.405z"/><path fill="#383B3E" d="m380.146 521.255-10.673-7.856 2.818-2.207 5.257 3.87 3.027.383.58-3.428-2.478-5.827 2.828-2.213 5.051 11.87 12.278 16.404-6.128 4.673z"/><path fill="#383B3E" d="m376.405 548.466-11.309 6.91-.978-3.445 5.57-3.404 1.502-2.654-2.955-1.836-6.33.093-.982-3.455 12.9-.189 19.828-5.163 2.01 7.438z"/><path fill="#383B3E" d="m402.923 560.291 4.016 12.631-3.577.128-1.978-6.22-2.22-2.09-2.488 2.431-1.42 6.172-3.587.13 2.89-12.576-.292-20.484 7.704-.18z"/><path fill="#383B3E" d="m423.049 536.765 13.136-1.75-.498 3.545-6.47.861-2.446 1.823 1.96 2.873 5.83 2.474-.5 3.556-11.875-5.04-20.223-3.289 1.167-7.617zM224.378 299.108c3.45 1.002 7.686 1.584 8.688-1.866l7.053-28.925c1.001-3.45-1.002-7.09-4.45-8.092-3.45-1.002-7.092 1-8.094 4.45l-11.038 27.292c-1.001 3.448 4.392 6.14 7.841 7.141"/><path fill="#383B3E" d="M198.677 263.05c-.865 3.485-1.28 7.742 2.207 8.607l29.18 5.906c3.486.865 7.047-1.279 7.911-4.766.865-3.485-1.28-7.045-4.766-7.91l-27.705-9.955c-3.487-.865-5.963 4.63-6.827 8.118"/><path fill="#383B3E" d="m182.065 247.586 53.453 21.094a2.86 2.86 0 0 0 3.696-1.615l2.105-5.38a2.86 2.86 0 0 0-1.616-3.695l-53.453-21.094a2.86 2.86 0 0 0-3.696 1.616l-2.105 5.378a2.86 2.86 0 0 0 1.616 3.696"/><path fill="#383B3E" d="M257.936 270.163c4.013.032 7.297-3.821 7.336-8.606.038-4.786-3.184-8.69-7.197-8.722l-53.6 4.71s-11.932.595-9.045 9.488c.574 2.073 3.81 4.17 5.085 4.968 20.621-3.087 57.421-1.838 57.421-1.838"/><path fill="#E0E2E5" d="M250.738 261.44c-.039 4.785 3.185 8.691 7.198 8.723s7.297-3.821 7.335-8.606-3.183-8.69-7.196-8.722c-4.014-.034-7.299 3.82-7.337 8.605"/><path fill="#383B3E" d="m440.906 377.577 21.268-67.099-.025-.001a3.116 3.116 0 0 1-3.092-3.142l.038-4.908a3.12 3.12 0 0 1 3.144-3.092l23.548.189a3.117 3.117 0 0 1 3.092 3.142l-.04 4.908a3.117 3.117 0 0 1-3.142 3.093l-10.781-.087-22.403 70.676zm81.244-99.394c-.777.197-23.347 4.872-45.59 4.695-4.694-.038-44.208-.605-44.208-.605s-13.71-.436-13.756 5.278c.05 3.836 5.997 5.436 8.119 5.616 6.774.053 13.804-5.354 34.1-1.436 3.097.678 20.613 5.063 27.38 6.098 14.845 1.506 34.393-13.276 34.393-13.276s1.646-1.64 1.663-3.741-.731-2.965-2.102-2.63"/><path fill="#383B3E" d="m460.169 303.45 1.287-2.212-23.241-13.493-1.286 2.212zm27.638 4.002 16.52-13.911-1.648-1.957-16.52 13.911z"/><path fill="#595E62" d="M50.395 425.092C4.757 472.668 6.337 548.502 53.912 594.14c47.577 45.637 123.41 44.06 169.047-3.518 45.638-47.575 44.06-123.41-3.517-169.047-47.575-45.637-123.41-44.06-169.047 3.517m184.963 177.423c-52.195 54.413-138.925 56.218-193.339 4.023-54.413-52.194-56.217-138.927-4.023-193.34s138.927-56.216 193.34-4.021 56.218 138.925 4.022 193.338"/><path fill="#383B3E" d="M56.119 430.583c-42.61 44.42-41.135 115.223 3.284 157.832 44.42 42.61 115.223 41.137 157.832-3.283 42.61-44.42 41.137-115.224-3.284-157.833s-115.223-41.136-157.832 3.284M223.05 590.71c-45.684 47.627-121.6 49.206-169.227 3.52s-49.207-121.6-3.521-169.227 121.6-49.207 169.227-3.52c47.628 45.685 49.207 121.6 3.521 169.227"/><path fill="#979EA4" d="M111.128 507.653c.114-14.111 11.644-25.458 25.753-25.345 14.112.114 25.458 11.644 25.345 25.754-.114 14.111-11.644 25.458-25.754 25.344s-25.457-11.644-25.344-25.753m-6.026-.049c-.14 17.439 13.882 31.69 31.322 31.829 17.44.14 31.69-13.883 31.83-31.323.14-17.438-13.884-31.69-31.324-31.83-17.438-.138-31.688 13.884-31.828 31.324"/><path fill="#595E62" d="M124.026 507.756c-.055 6.987 5.562 12.696 12.55 12.753 6.986.055 12.696-5.563 12.752-12.55.055-6.987-5.562-12.696-12.55-12.753-6.986-.055-12.696 5.562-12.752 12.55m364.232-79.15c-45.638 47.578-44.06 123.412 3.517 169.048 47.575 45.637 123.41 44.06 169.047-3.516s44.06-123.412-3.517-169.047c-47.577-45.638-123.41-44.06-169.047 3.515M673.22 606.031c-52.195 54.413-138.927 56.217-193.34 4.023-54.413-52.196-56.218-138.927-4.022-193.34 52.195-54.413 138.925-56.218 193.339-4.023s56.217 138.926 4.023 193.34"/><path fill="#383B3E" d="M493.982 434.099c-42.61 44.418-41.137 115.221 3.284 157.83 44.42 42.611 115.223 41.137 157.832-3.283 42.61-44.419 41.137-115.222-3.284-157.831-44.42-42.61-115.223-41.137-157.832 3.284m166.932 160.127c-45.686 47.626-121.6 49.205-169.227 3.521-47.628-45.686-49.207-121.602-3.521-169.23 45.686-47.625 121.6-49.204 169.227-3.52 47.628 45.686 49.207 121.602 3.521 169.23z"/><path fill="#979EA4" d="M542.963 511.118c-.139 17.44 13.884 31.69 31.322 31.83 17.44.14 31.692-13.884 31.83-31.322.14-17.44-13.882-31.69-31.322-31.83-17.438-.14-31.69 13.884-31.83 31.322"/><path fill="#595E62" d="M561.889 511.27c-.057 6.988 5.562 12.698 12.548 12.753 6.988.056 12.698-5.563 12.754-12.549s-5.564-12.697-12.55-12.752c-6.986-.057-12.696 5.562-12.752 12.548"/><path fill="#656A6F" d="M570.377 511.339a4.162 4.162 0 1 0 8.323.067 4.162 4.162 0 0 0-8.323-.067"/><path fill="#E48CDD" d="m227.742 319.813.254-1.223.62-.975 1.11-.848.859-.36 1.958.138 70.553 12.812 87.405 18.457 16.134 3.803 2.32.876 3.538 1.497 3.41 2.478 3.53 2.599 5.345 5.309 12.754 12.837 1.576 2.093-.422 1.63-24.774 76.048-10.545 32.244-1.481 1.457-1.149.645-1.634.312-1.47-.012-2.608-.51-5.536-1.84-21.005-7.027-3.09-1.494-1.296-1.48-9.382-10.851-60.328-71.18-63.75-72.188-1.938-2.546-.599-1.719zm196.802 155.053c.675-2.77 19.437-62.05 19.437-62.05l7.364-22.887 103.5 103.78.154 1.307-1.83 4.068-5.624 9.098-1.482 1.621-1.476.803L436.35 525.79c-1.687-8.943-7.224-16.686-15-21.734-.073-3.412-.237-20.017 3.195-29.19zm-292.08 39.289c6.382 3.44 9.985-3.022 9.985-3.022l39.945-74.457 24.41-50.744 4.176-11.886s.92-2.686 3.452-2.91 6.247 4.703 6.247 4.703l124.705 146.476 23.774 26.894c3.534 5.205 8.566 9.45 14.557 12.246 2.626 1.51 5.297 2.596 7.614 2.616 2.776.641 5.66 1.028 8.647 1.053 10.123.08 19.318-3.612 26-9.647l20.19-7.945 112.88-27.83 8.392-8.258 14.08-4.786 3.8-5.52-18.373-9.618-87.308-86.58-25.02-25.184 8.12-25.24-13.685-4.028-207.835-46.73s-3.544-.764-5.495-1.76c-1.952-.995-2.574-4.836-2.574-4.836s-14.736-4.853-16.447-5.357-3.66 8.298-3.66 8.298l-29.746 85.313-52.717 119.744s-3.314 5.975 1.886 8.995"/><path fill="#656A6F" d="M132.516 507.825a4.161 4.161 0 1 0 8.322.065 4.161 4.161 0 0 0-8.322-.065"/><path fill="#E472DB" d="M348.596 489.957c4.983-6.66 10.103-10.3 14.098-12.303l1.404 1.625 1.296 1.48 3.09 1.494 21.005 7.027 5.536 1.84 2.607.51 1.471.012h.002c5.75 2.347 14.453 6.312 22.23 11.554.004.338.01.632.014.861 7.489 4.861 12.866 12.235 14.76 20.76-.014 5.897-.422 17.166-2.909 27.817l-7.225 2.843c-6.68 6.035-15.876 9.727-25.999 9.646-2.986-.024-5.87-.411-8.647-1.052-2.317-.02-4.988-1.105-7.614-2.616-5.991-2.796-11.023-7.041-14.557-12.246l-23.774-26.894-8.734-10.26c2.786-6.82 6.82-15.245 11.946-22.098m-92.029-135.536 37.821 42.826 57.435 67.768-1.362.949c-2.075 1.041-4.456 2.524-6.961 4.642 0 0-4.059 3.965-6.753 4.005-2.754.1-5.238-3.225-5.238-3.225l-79.7-93.827s-2.605-3.266-3.213-11.537c.214-3.611 5.088-8.53 5.088-8.53l2.883-3.07"/><path fill="#656A6F" d="m442.108 592.387-1.456 1.225c-2.913 2.45-4.843 1.262-7.293-1.65l-41.638-49.915a6.894 6.894 0 0 1 .838-9.712l1.454-1.224a6.895 6.895 0 0 1 9.713.836l39.22 50.73a6.893 6.893 0 0 1-.838 9.71"/><path fill="#383B3E" d="M393.35 537.394a4.568 4.568 0 1 0 9.137.072 4.568 4.568 0 1 0-9.136-.072"/><path fill="#656A6F" d="m420.75 596.146 35.436.284a1.385 1.385 0 0 0 1.394-1.372l.065-8.008a1.385 1.385 0 0 0-1.373-1.394l-35.437-.286a1.39 1.39 0 0 0-1.394 1.373l-.063 8.01a1.39 1.39 0 0 0 1.372 1.393M283.972 42.516l2.585 10.707-6.829 18.648 7.995 2.737 7.842 21.436 19.093-.693 20.505 24.313 11.302-40.577-30.248-35.496z"/><path fill="#383B3E" d="m356.439 69.463-9.974 9.624-10.8.415-8.62-11.313-19.146-10.786-2.576-12.044 21.395-2.5 25.262 5.746s6.875-2.22 7.748 9.611z"/><path fill="#E472DB" d="m318.242 83.81-7.517-39.22a2.67 2.67 0 1 1 5.247-1.004l6.724 35.08 30.249-31.316a2.671 2.671 0 0 1 3.845 3.713l-33.561 34.744-6.312 12.025a2.671 2.671 0 1 1-4.73-2.484z"/><path fill="#656A6F" d="M322.976 54.268s5.376-3.965 8.035-2.608c2.661 1.358 7.93 10.751 2.544 16.051-4.76 4.685-6.732 6.626-9.393 5.269s-1.186-18.712-1.186-18.712M243.561 238.68l-24.518 1.543-5.259 20.338 13.963 10.996 16.15-5.654-10.329-.875-8.163-5.738 4.427-4.657 9.088 1.748 13.278-3.551z"/><path fill="#979EA4" d="m479.67 552.11 7.678 32.838-64.32.905c-8.461.11-16.525-3.537-21.975-9.978l-.139-.197 59.382-21.702 19.376-1.866z"/><path fill="#383B3E" d="m190.016 273.527 2.51 7.896a1.48 1.48 0 0 0 1.854.958l18.326-5.824a1.48 1.48 0 0 0 .958-1.855l-2.509-7.895a1.48 1.48 0 0 0-1.854-.96l-18.325 5.827a1.48 1.48 0 0 0-.96 1.853M397.68 516.42c0 9.738-7.895 17.632-17.633 17.632s-17.63-7.894-17.63-17.632c0-9.737 7.893-17.632 17.63-17.632 9.738 0 17.632 7.895 17.632 17.632"/><path fill="#9E2896" d="M280.222 43.941c-2.876-.223-4.904-2.935-4.283-5.752 2.23-10.139 10.914-31.608 44.607-37.162 44.554-7.346 47.794 26.967 48.32 31.761.527 4.793.489 13.549-2.084 23.073-1.262 4.674-6.91 6.502-10.648 3.427l-7.893-9.28a9.24 9.24 0 0 0-9.743-2.847l-14.66 4.49a7.24 7.24 0 0 1-5.905-.752l-6.782-4.165a3.56 3.56 0 0 0-1.585-.514z"/><path fill="#791D73" d="m357.542 14.151-3.893 5.292 6.596 12.018 3.434-6.776zm-35.724.739-7.836-3.308-16.131 17.512 12.467-1.506 11.5-12.697m-18.228.938-5.51-.18-12.917 14.211 5.755-.623zm176.08 536.28-8.026-26.86-24.313 4.607 9.57 25.441z"/><path fill="#9E2896" d="M503.626 218.284s26.156 23.393 6.676 61.34c-10.347 20.157-57.447 79.31-80.56 100.811-4.717 4.387 51.418 146.836 51.418 146.836l-39.005 11.272S371.3 395.948 371.393 384.555c.062-7.763 55.106-121.567 55.106-121.567l43.65-27.904z"/><path fill="#E48CDD" d="M346.465 79.087s19.918 3.799 31.057 6.627c16.17 4.103 32.339 8.208 76.92 59.748 3.909 4.52 54.775 79.384 54.775 79.384l-18.639.152-62.843 36.975s-38.179-51.046-46.17-54.1c-25.83-9.87-38.83-21.706-38.83-21.706s-10.407-41.503-7.89-66.475c2.516-24.97 11.62-40.605 11.62-40.605"/><path fill="#D543CB" d="m490.578 224.998-64.1 38.042s-36.922-52.113-44.913-55.166c-25.83-9.871-38.83-21.707-38.83-21.707s5.344-88.921 33.698-79.215z"/><path fill="#656A6F" d="M379.164 107.184c-32.546-21.094-60.398 75.609-66.992 83.41-.001-.005-68.873 48.196-68.873 48.196l8.657 14.041s87.387-33.87 94.281-46.283c9.327-16.797 24.555-44.415 40.488-67.085 6.874-9.783 4.68-23.256-4.896-30.416a49 49 0 0 0-2.665-1.863"/><path fill="#E472DB" d="M381.829 109.047a49 49 0 0 0-2.665-1.863c-17.05-11.052-32.806 10.236-44.9 34.128l37.668 20.734c4.75-7.69 9.735-15.385 14.793-22.582 6.876-9.784 4.68-23.257-4.896-30.417"/></g></svg>