<svg xmlns="http://www.w3.org/2000/svg" viewBox="0 0 227.7 449.9"><g data-name="Ebene_1"><path fill="#002742" d="M186.9 212.8q1.95 1.05 3.3 2.7c1.2 1.8 1.2 4.1 1.2 6.3-.2 15.5-.5 31-2.4 46.4-.8 5.9-1.8 11.8-2.1 17.8-.3 4.9-.2 9.9-.1 14.9l.3 17.2.5 25.6.3 18.4c0 1.1 4.1 8.4 4.1 8.4v13.4s1.9 10 3.9 13.2c-8.7 5.7-34.4-10.2-34.4-10.2l-5.7-10.8s1.3-8.9 1-14c-.7-13.2.6-15.2-.7-28.3-.9-9.5-10.9-52.5-12.6-57.3-.8-2.3-.5-4.8-.2-7.2l5.5-42.5c.6-4.7 1.3-9.6 3.3-13.9 7.8-16.5 23.5-6.8 34.8 0z"/><path fill="#003e64" d="M97.38 326.817c-.4 3.8-4.1 20.1-5 32.1-.7 9.3-.7 16.2-.7 16.2l-5.2 15.6s2.9 10.1 3 12.3c22-6.4 26.2-4 35.6-5.1-1.1-4.5 3.2-18 3.2-18l2.4-7.4c0-4 .8-7.9 2.3-11.6 5.9-13.2 3-11.5 4.9-25.9 1.1-8.4 1.6-16.8 3.3-25.1s4.7-16.4 7.4-24.5c8-24.8 12.5-50.6 13.4-76.6 0-2.7.1-5.5-1-7.9-2-4.1-6.7-6.1-11.1-7.5-6.7-2.2-13.4-4.1-20.2-5.7-4.1-1-13.6-4.9-17-1.9s-2.432 13.8-2.632 18c0 3-4.769 28-7.869 54.7-3.7 31.4-4.5 64.8-4.9 68.2z"/><path fill="#43464a" d="m87.6 402.8 28.2-8.3 8.2 19.4-16.2 5.3-24 1.4 3.8-17.7z"/><path fill="#43464a" d="m105.6 393.5 21-1.9-4.6 19.9-16.2 5.3-.3-23.3z"/><path fill="#43464a" d="M121.5 445.6c5.7 1.9 26.8 1.6 28.9-1.8 2.3-3.8 0-9.1-3.5-11.6s-7.7-3.4-11.4-5.5c-3.9-2.2-9.7-8.4-11.6-12.8-14.3 4.4-25.5 1.7-39.8 6.1-1.2.4-.7 14.3.6 16.1 1.7 2.4 6.9 2.6 9.5 3.2 3.6.8 8.6-1.6 12.9-.6 5.4 1.2 10.1 5.4 14.4 6.9"/><path fill="#2e3033" d="M150.1 436c-1.8-1.5-8.2.9-8.5 6.2-5.8 1.9-11.8 2.6-17.9 2.3-5.4-.4-12.5-7-19.2-7-10 0-18.8-2.3-20.9-7.5-2 1.2 0 7.5 1.2 9.2.8.8 1.8 1.4 2.8 1.8l2.6.9c.5.1 1 .3 1.5.4l2.6.4h1.6l2.5-.3c1.4-.2 2.7-.3 4.1-.3 4.8 0 6.9 2.4 10.2 4.6l1.9 1.1c.4.2.8.4 1.2.5l2.4.8c.4.1.8.2 1.3.3l2.8.4h1.4l2.8.2h3.8l1-.1 2.5-.2h1.4c0-.1 2.5-.5 2.5-.5l1-.2 2.7-.5c4.2-.9 7.3-2 8.1-3 2.5-2.7 2.5-8 .7-9.5z"/><path fill="#c1c7cc" d="m105 412.6 17.8-3.9-.3 1.5-16.4 3.7-1.1-1.4zm3.4 4.5 15.5-3.2.6 1.2-15 3.4zm3.9 4.8 13.4-4.9.9 1.2-13.4 5-1-1.3zm3.2 4 13.1-5.2 1.1 1.1-13.2 5.4zm2.9 3.7 13.5-5.7 1.1 1-13.8 5.9-.9-1.1z"/><path fill="#43464a" d="m158.4 383.5 28.2-8.3 8.1 19.4-16.2 5.3-24 1.4 3.8-17.7z"/><path fill="#43464a" d="m176.5 374.1 21-1.9-4.6 19.9-16.2 5.3-.3-23.3z"/><path fill="#43464a" d="M192.3 426.2c5.6 1.9 26.8 1.6 28.9-1.8 2.3-3.8 0-9-3.5-11.6s-7.7-3.4-11.4-5.5c-3.9-2.2-9.7-8.4-11.6-12.8-14.3 4.4-25.5 1.7-39.8 6.1-1.2.4-.7 14.3.6 16.1 1.7 2.4 6.9 2.6 9.5 3.2 3.6.8 8.6-1.6 12.9-.6 5.4 1.2 10.1 5.4 14.4 6.9"/><path fill="#2e3033" d="M220.9 416.6c-1.8-1.6-8.2.9-8.5 6.2-5.8 1.9-11.9 2.7-17.9 2.3-5.4-.5-12.5-7-19.2-7-10 0-18.8-2.3-20.9-7.5-2 1.2 0 7.5 1.2 9.2.8.8 1.8 1.5 2.8 1.8l2.6.9c.5.1 1 .3 1.5.4l2.6.4h1.6l2.5-.3c1.4-.2 2.7-.3 4.1-.3 4.7 0 6.9 2.4 10.2 4.6l1.9 1.1c.4.2.8.4 1.1.5l2.4.8c.4.1.8.2 1.3.3l2.8.4h1.4l2.8.2h3.8l1-.1 2.5-.2h1.4c0-.1 2.5-.5 2.5-.5l1-.2 2.7-.5c4.2-.9 7.3-2 8.1-3 2.4-2.7 2.4-8 .7-9.5"/><path fill="#c1c7cc" d="m175.8 393.3 17.8-3.9-.3 1.5-16.4 3.7-1.1-1.4zm3.5 4.4 15.5-3.2.6 1.2-15 3.4zm3.8 4.9 13.5-4.9.9 1.2-13.4 5zm3.2 4 13.1-5.2 1.1 1.1-13.2 5.4zm2.9 3.7 13.5-5.7 1.1 1-13.8 5.9-.9-1.1z"/><path fill="#eff1f2" d="m200.2 210.1-4 4.5c-.9 0-1.8-.3-2.5-.8-1.6-.8 7.8-14.9 7.8-14.9z"/><path fill="#43464a" d="M149.6 68.7c3.5.9 7.1 1.2 10.8 1 .3 2.7.6 5.6.9 8.5-3.8-2.5-8.4-5.8-11.6-9.5z"/><path fill="#595e62" d="M161.1 77.2c1 8.4 2 16.4 2 16.4h-33.6l7.1-37.4.7-1.7c-2.6-3.2-10.1-13-5.9-17.4 3.2-3.3 7.7-7.1 10.3-3.1-3.2-8.8 0 .3 0 0 .6-3.1.9-6.3 1-9.5 0 0 10.4 0 21.9-.6s10.2 9.6 13.9 8.4c-.2 4.7-.8 9.4-1.7 14.1-.4 1.8-.8 3.6-1.3 5.5-3.2 11.4-5.9 16.9-5.9 16.9-3 .9-6.2 1.4-9.4 1.6-3.1.2-6.2 0-9.2-.8 3 3 6.3 5.6 10 7.7z"/><path fill="#c1c7cc" d="m132.4 207.5-7-95.8-5.8-21.3-9.8-5.3 19.7-9.4 26.55 10.182L161.2 75.6l24.2 12.5c11.4 5.6 18.2 15.8 18.1 26.6 0 .7 0 1.5-.1 2.2L190.8 155l-3.8 22.2s-.3 27.4 2.7 35.9c.9 2.6 1.9 5.4 1.9 5.4h-22.8l-36.6-11z"/><path fill="#595e62" d="M127.3 218.6h-21l-1.5-52.9-11.4-70.9 2.4-2.8 19.2 17.7 12.2 109z"/><path fill="#002742" d="M161.7 134.8c-.1-.7-.3-1.4-.4-2.1-3.8-19.1-8.4-45.2-23.3-57.2-2.4-1.9-5-3.9-5-3.9s-29.3 15-24.3 14.2c3.6-.6 8.7 7.7 10.4 12.1l-10.9 20.7s2.1 33.1-4.1 37.3c-.7.4-1.3 1-1.7 1.7-.2.6-.3 1.3-.2 1.9l1.1 41.9c6-.7 9.1 8.8 14.7 11 13.9 5.5 33.1 5.5 47.9 6.2.5-7.6 4.8-15.4 5.1-23s-2.5-15.9-2.5-23.6c0-12.2-4.4-25.2-6.8-37.2"/><path fill="#002742" d="M158.5 93.9c-.1 5.3.7 11.1 1.1 16.4 1.2 14.5 6.7 28.5 9 42.9 1.6 10 .2 21 .2 31.1 0 11.1 1.5 21.2 1.5 32.3l22.5-3.9c-6.7-11.5-2.7-24.9-.6-37.5 1.2-7.3 1.7-14.6 2.2-21.9l1.4-20 1.1-15.7c.6-8 1.1-16.2-1.3-24.1-.3-1.5-1.2-2.9-2.5-3.7-1.3-.7-31.7-15.093-32.1-14.593z"/><path fill="#c1c7cc" d="M128.4 30.7c-.2-5.5 7.9-9.6 7.9-9.6s.3-4.2 7.3-9 13.9-1.7 19.9-.9c12.9 1.7 17.3 10.1 17 14.3v.7c.3 4.2-2.4 9.2-2.4 9.2.2-.4.1-.9-.1-1.3-1.1-1.5-3.3-4.5-5-5.4-2.3-1.4-3.6.3-10.3 1.6s-12.9-4-12.9-4c2.8 10.4-2.9 11.9-4.9 14.8-.5.8-.8 1.6-.9 2.5-1.8-3.7-4.9-8.2-7.9-5.4-3.6 3.4 1.5 13.3 4.1 17.8l-2.3 1.8s-9.2-20.1-9.4-27.1z"/><path fill="#003e64" d="m118.5 218.5-1.1-39.6 3.1-64.2-1.6-3.4-.4-.6-9.9-24.9-7.7 57.2 3.798 75.72z"/><path fill="#eff1f2" d="m131.2 214.3 5 3.5c.9-.3 1.7-.7 2.4-1.3 1.4-1.2-10.8-12.9-10.8-12.9l3.4 10.8z"/><path fill="#c1c7cc" d="M195.8 93.5c.8.2 31.9 55 31.9 62.5 0 20.2-7.5 46.3-7.5 46.3 0 .2-20.4-2.6-20.4-2.2 0-2.7 1.6-40.4 1.6-40.4l-6.5-10.2s-.7-56.5.8-56.1zm-75.2 21.1c3-15.4-4.7-28.2-10.7-29.5-1.7-.4-12.3.7-16.5 9.6-.4.8-20.4 63.1-20.4 71.2-.2 3.3.2 6.7.9 9.9 1.3 4.7 4.6 8.3 7.8 11.6 13.9 14.2 20.5 16.9 29.1 28.3 0 .2 13-10.6 18-14.3-2.9-3.4-28-36.4-28-36.4l19.7-50.4z"/><path fill="#ed0007" d="M174.2 122v-3.5h15.1v3.5z"/><circle cx="169.2" cy="120.2" r="2.5" fill="#c1c7cc"/><path fill="#005587" d="m128.6 307.5-30.7-.7c-8.3-17.5.1-41.7 4.4-51.2l31.1 2.3s1.1 28.7-4.9 49.6z"/><path fill="#003e64" d="m128.2 270.7-31.8-2.3 6-12.9 31.9 2.3-6 12.9z"/><path fill="#c1c7cc" d="M134.5 31s21.9 7.6 31.3 7.2c5.9-.6 13.5-3.9 13.5-3.9s-1.7 7.7-2.6 10.1c-1.2 3-6 5.2-7.8 4.7s-.6-4.5-2.8-4.5-2 2.6-5.1 4.7-14.1-5-14.9-6-1.9-4.9-1.9-4.9l-9.9-5.2.2-2.1z"/><path fill="#003e64" d="M165.7 40c4.4-.5 8.7-1.4 12.9-2.8l.7-2.9c-4.4 1.3-8.9 2.3-13.5 2.8-9.4.3-31.2-5.7-31.2-5.7l-.2 1.9 7.7 3.1c7.2 1.7 17.9 3.9 23.7 3.6z"/><path fill="#595e62" d="m166.7 44.8 6.6 8.1c.5.4.7 1.1.7 1.7 0 .9-.5 2.2-2.7 2.3s-16.9-4.2-16.9-4.2l6.7-2.8z"/><path fill="#43464a" d="M154.1 58.7h19.6l-2.4-3.5h-12.8z"/><path fill="#c1c7cc" d="m106.7 216.2.3 7.4h36.6c0-.1-6.5-7.7-6.5-7.7z"/><path fill="#c1c7cc" d="m225.8 219.1-.4-7.5-23.4.5-.2-1.9-11.2.2-.5-25.9-12.1-.4v-1.6c-.1 0-27.2 1-27.2 1l.2 2-14.3 1.4s2 12.3 3.6 25.4h-.4l-2.4.2s-6.6.4-9.5.5l.3 2.4.8 7.6.7 7.2 12.6-.6c.5 4.1 1 9.4 1.6 13.5l5.2.9 5 7.8 1.9 60.4 5.6-.2c.4 5.8 1.8 33.8 2 36.9h5.2l3.5 93.6h5.4l-3-93.6h4.9l-2.2-37.2 6-.2-3.1-60.8 4.4-8.6 4.5-1.4 1.849-12.781 11.051-.42-.2-7.9s23.7-.6 23.8-.6z"/><path fill="#595e62" d="m161.7 312.2 15.8-.5 2.2 37.2-16.34.527-1.76-37.227z"/><path fill="#c1c7cc" d="m218.9 211.3.2 7.4-25.3 1v-7.6l25.1-.9z"/><path fill="#005587" d="m136.337 186.811 9.4-.8 2.6 25.7 1.206 17.71-20.106.69-1.7-17.2 11.773-.84-3.273-25.26zm53.8-2.5-10.613-.16 1.913 26.06.982 17.936 18.949-.288-.631-17.848-10.1.2z"/><path fill="#595e62" d="m140.3 186.5 8.992-.857-.012-2.107c-.1 0 28.72-1.036 28.72-1.036v1.6c.1 0 7.458.192 7.458.192l.342 11.508-4.9.4.8 14.1-33.493 1.401-1.412-14.05-5.095.349z"/><path fill="#eff1f2" d="m154.2 251.9 26.2-1.2 3.1 60.8-27.4.8-1.9-60.5z"/><circle cx="155.8" cy="220.1" r="2.7" fill="#595e62"/><path fill="#ed0007" d="m161.1 217.9 16.2-1 .2 3.8-16.3 1-.2-3.8z"/><path fill="#eff1f2" d="m196.9 221.9 22.9.3-1.9-21.7-18-2.4-2.9 23.8z"/><path fill="#eff1f2" d="m199.4 201.8 19.2 7.7 7.1-18-29.4-1.6 3 11.9zM138.1 224l-23.4 7.7-4.8-20.7 17.2-9.5z"/><path fill="#eff1f2" d="m131 207.2-18.8 13-9.3-9.9 25.3-15z"/><path fill="none" stroke="#2e3033" stroke-linecap="round" stroke-miterlimit="10" stroke-width="2" d="M143.3 236.7s-12.4-.8-14.3 21.1c-4.9 56.1-36.7 126.7-69 151.3s-89.7-7.5-38.7-33.5c42.8-21.8 1.9-46-18.8-56.3"/><path fill="#003e64" d="M170.7 8.3c2.1 1.8 6.9 6.9 8.3 11.7.1.4.4.8.9 1 .4.2.9 0 1.2-.4.4-.6.5-1.3.3-2-1.6-6.1-6.3-11.1-9.6-12.8-.7-.3-1.5 0-2.1.5-.4.5.2 1.3 1 2m9.3 23.5s-27.974 4.809-52.974.609c0 0 22.774 9.391 28.674 10.491 7.5 1.5 20.9 2 26.7-.7 4.6-2.2 7.6-5.6-2-11.8-.3-.2-.4 1.4-.4 1.4"/><path fill="#005587" d="m127 32.5 18.2 2.5c26.6 5.1 34.8-3.2 34.8-3.2 3.2-15.2-5.8-21.8-8.3-24.1-6.1-5.5-14.8-6.5-14.8-6.5-6.3-1.3-12.9-.2-18.5 3.1-13.8 9.6-11.4 28.2-11.4 28.2"/><path fill="#003e64" d="M142.6 2.4s24.7 8.1 23.6 33.9c.3 1.9 5.5-.7 5.5-.7 2.7-19.1-13.1-31.8-22.2-34.9-6.7-2.3-6.9 1.7-6.9 1.7m-3.5 13.4c3.2 2.3 8.8 7.2 10.6 13.5.2.6.6 1.1 1.2 1.3.6.3 1.3.1 1.8-.4.7-.7 1-1.7.6-2.6-3.1-8-7.9-13.5-12.3-15h-.1c-1-.4-2 .1-2.4 1.1-.3.8 0 1.6.6 2.1"/><path fill="#002742" d="m129.3 39.6 1-6.3c.4-2.8 1.4-3.6 4-3.9 2.3-.3 4.4-.2 6.1 1.8s2.3 4.8 2.5 7.5c.3 4.8.3 9.7 0 14.6 0 1.2-.2 2.3-.9 3.3-1 1.1-2.6 1.2-4.1 1.2-1.8.2-3.6 0-5.3-.6-2.8-1.3-4.6-4-4.7-7.1 0-1.3 0-2.6.3-3.9.3-1.9 1.2-4.4 1.1-6.4-.1-1.7-1.7-3.7-2.3-5.3-1.6-4-1.9-8.4-.9-12.6 1.5-6 6.4-11.1 12.6-11.5.3.3.3.8 0 1.2-2 2.1-3.3 4.8-3.6 7.7-.1 1-.2 2.2-1.1 2.8-1.1.8-2.7-.2-3.3-1.5s-.5-2.7-.8-4c-3.8 5.3-3.4 13 .4 18.3"/><path fill="#c1c7cc" d="m196.9 221.8-3.1 6.2s9.1.2 10 .1c5 0 16-5.9 16-5.9zm-58.8 2.2 3.3 6.3s-8.7 3.1-9.5 3.3c-4.8 1.5-17.2-2-17.2-2l23.4-7.7z"/></g></svg>