<svg xmlns="http://www.w3.org/2000/svg" viewBox="0 0 321 737"><g fill="none" fill-rule="evenodd"><path fill="#00884A" fill-rule="nonzero" d="M192.752 81.53a33.3 33.3 0 0 1-10.73 1.09c-.29 2.87-.66 5.95-1 8.89a52.3 52.3 0 0 0 11.73-9.98m34.23-46.04c-1.1-10.87-14.11-17.34-14.11-17.34-1.1-18.52-23.89-12-23.89-12s-17.41-8.67-26.08-4.34-2.21 16.32-5.44 20.65-4.34 10.88-4.34 10.88-1.56 14.4 10 20.72a120 120 0 0 1-1.89-17 32.15 32.15 0 0 0 15.8 1.7c13-2.2 25-10.88 25-10.88s0 15.22 1.1 20.65c.08.45.23.89.3 1.33 3.09-4.78 7.94-10.66 11.54-6.76 4.77 5.21-3.53 16.48-6.54 20.45l.58 1.32c-.07 0 19.11-18.54 18-29.42z"/><path fill="#5EBD82" fill-rule="nonzero" d="M178.842 110.55h38.41l-8.31-45.64s-.22-.52-.58-1.32c3.08-3.9 11.39-15.51 6.61-20.73-3.6-4-8.53 2-11.54 6.76a10 10 0 0 1-.29-1.32c-1.1-5.44-1.1-20.65-1.1-20.65s-12 8.67-25 10.88a31.94 31.94 0 0 1-16-1.62c.231 5.672.87 11.32 1.91 16.9.44 2.13.88 4.34 1.47 6.62 3.77 13.67 6.83 20.19 6.83 20.19a44 44 0 0 0 10.73 2 33.1 33.1 0 0 0 10.73-1.1 52.6 52.6 0 0 1-11.68 10c-1.11 9.85-2.21 19-2.21 19zm-124.24 88.81s120.24 51.52 119.87 52.18c-25.36 42.48-76.95.74-126.19-35.64l-24.39-5.51 4-22.27 26.67 11.24z"/><path fill="#8A9097" fill-rule="nonzero" d="M15.722 218.27h23.47v-7.36h-23.47a6.52 6.52 0 0 1-6.4-5.09l-1.53-6.64a6.56 6.56 0 0 1 6.38-8h21.4v-7.36h-21.4a13.91 13.91 0 0 0-13.54 17l1.52 6.64a13.85 13.85 0 0 0 13.57 10.81"/><path fill="#8A9097" fill-rule="nonzero" d="m19.702 226.72 33.06-.04 3.83-47.54-40.85.06z"/><path fill="#595E62" fill-rule="nonzero" d="m125.722 165.03-2.76 63.76 22.88 25.13z"/><path fill="#D0D4D8" fill-rule="nonzero" d="m98.712 725.62.15.22a26 26 0 0 0 20.14 9.48h76.79l-6.32-30.94h-36.82zm205.41-1.47-26.31-19.84h-27l-4 30.94h51.37a7.13 7.13 0 0 0 7.12-7.13 6.4 6.4 0 0 0-1.18-4z"/><path fill="#00381B" fill-rule="nonzero" d="M297.252 705.02c0-153.45-43.58-233.7-43.21-247.81 2.06-77.16 4-97.08-9.26-147l-.15 1.25h-77.739c.44 9.77 2.092 36.99 8.632 52.9 6.61 16.1 14.897 39.52 22.167 69.1 11.1 45.71 20.43 92.15 20.43 92.15l30.8 179.32z"/><path fill="#00210E" fill-rule="nonzero" d="m138.162 311.48.3 11.76 4.92 190 7.06 191.81h55c-1.76-121-2.64-94.51-14.33-175.79-4.85-33.51-.157-65.698 6.533-95.898-7.2-29.62-15.133-58.722-21.743-74.782-6.54-15.95-8.512-37.36-8.952-47.1z"/><path fill="#8A9097" fill-rule="nonzero" d="m146.912 118.62 30.28-18.3h39.54l43.36 25.3-31.09 38.14-10.22 147.42 25.93-.29-.06.59h-106.49l.3-33.51-.59-29-9.92-68.35-2.79-19.47a45.37 45.37 0 0 1 21.75-42.53"/><path fill="#595E62" fill-rule="nonzero" d="M218.342 311.48h26.79l15-185.86-31.09 38.14z"/><path fill="#5EBD82" d="M180.572 99.24h34l-12.56 10.07-12.57 5.36-9.7-5.29-1.1-7.28z"/><path fill="#00210E" d="m188.072 108.06 12.27 8.89-8.89 11.46 5.07 11.4-3.09 125.66-12.64 16.47-14-19 10.14-123.09 6.91-11.4-6.4-10.21z"/><path fill="#C1C7CC" d="M205.412 124.45s-12.94-9.78-17.35-16.32c-.29-.44 9.63-1.18 17.2-6.25 8.38-5.58 8.82-8.52 8.82-8.52l9.48 10.73s-13.08 14.18-18.15 20.36m-24.99-27.56c-.07 6.68 7.64 11.17 7.64 11.17l-13.3 16.31s-3.08-9.18-3.08-15.28 8.74-12.2 8.74-12.2"/><path fill="#5EBD82" fill-rule="nonzero" d="m255.652 364.36-18.81 19.61 6.59 17.65 4.74-1.22-1-11.12 5.14-4.74z"/><path fill="#C1C7CC" fill-rule="nonzero" d="m315.942 248.62-45-111c-7.1-13.82-17-19-28.87-15.93-17.86 6.15-15.11 30.5-12.05 40.92 5.77 19.86 43.89 101.88 47.87 104.05 25.18 13.73 38.05-18.04 38.05-18.04m-11.715 211.611-93.941-22.848 15.489-63.684 93.941 22.849z"/><path fill="#86D7A2" fill-rule="nonzero" d="M263.702 298.2c-5.28 22.13-7.06 47.33-8 66.16l-10.6 27.45s30.1 7.27 30.09 7.34c4.8-7.66 6.49-30.52 6.49-30.52s35.1-119.79 34.31-120a38 38 0 0 0-10.74-1.3c-22.8.37-34.91 23.29-41.55 50.87"/><path fill="#5EBD82" fill-rule="nonzero" d="M239.252 416.17s12.13 2.33 19.5-.82c9.4-4 15.71-15.51 16.44-16.24l-30.13-7.3z"/><path fill="#00884A" d="M18.392 210.99h-2.74a3.33 3.33 0 0 1-3.22-3l-1.36-13.29a3.12 3.12 0 0 1 3.09-3.43h17.74c.64 3.63.03 18.75-13.51 19.72"/></g></svg>