<svg xmlns="http://www.w3.org/2000/svg" viewBox="0 0 551 736"><g fill="none" fill-rule="evenodd"><path fill="#8A9097" fill-rule="nonzero" d="m335.086 240.01-80.7 47.31-10.56.85-13 15.42 4.59 2.07 20.77 9.18 16.18-19.38s65.1-21.49 78.68-29.39c4.5-2.62 5.78-3 7.67-5.86 7.11-10.68-16.12-25.32-23.63-20.2"/><path fill="#E48CDD" fill-rule="nonzero" d="m257.696 293.43-48.76 20.7a19.81 19.81 0 0 0-10.49 26l11.24 26.48h-.12c-12.15-3.63-24.32-7.18-36.42-11a9.6 9.6 0 0 1-4.74-3.69c-2.9-4.46-5.38-9.19-8.59-14.8-5 12.4-9.57 23.7-14.6 36.14 5.83-1.63 10.52-3.19 15.32-4.19a10.18 10.18 0 0 1 6.4.64c16 8.72 31.61 18.13 47.83 26.38 5.92 3 10 6.72 12.47 12.05l6.59 15.52 68.41-29-11.87-22.79 1.28-40.37a39.7 39.7 0 0 0-3.12-16.69l-4.5-10.59a20.07 20.07 0 0 0-26.33-10.79m18.94 26.26a39.6 39.6 0 0 1 3.12 16.81l-.49 14-10-19.14v.05l-1.89-3.62c-3.85-7.36-7.91-8.87-15.53-5.65l-40.76 17.29-.17-.39c-2.546-6.009.256-12.944 6.26-15.5l42.91-18.22a9.32 9.32 0 0 1 12.66 5.15z"/><path fill="#F0DCEE" fill-rule="nonzero" d="m52.996 485.99 1.37-9.17a2.553 2.553 0 1 1 5.06.69v.14l-1.11 8.92v.14a2.66 2.66 0 0 1-5.28-.66zm3.21-18.24 2.28-9a2.37 2.37 0 1 1 4.6 1.15v.11l-2 8.78v.12a2.452 2.452 0 0 1-4.78-1.1zm4.98-17.78 3.1-8.7a2.13 2.13 0 0 1 4 1.39v.09l-2.84 8.57v.1a2.24 2.24 0 1 1-4.25-1.41zm6.61-17.23 3.91-8.36a1.92 1.92 0 0 1 3.49 1.59v.09l-3.63 8.26v.09a2.026 2.026 0 0 1-3.71-1.63zm8.23-16.52 4.76-7.9a1.732 1.732 0 1 1 3 1.73l-.05.08-4.48 7.84-.05.09a1.814 1.814 0 0 1-3.15-1.8zm9.98-15.5 5.71-7.26a1.5 1.5 0 0 1 2.37 1.82l-.07.08-5.41 7.22-.06.09a1.604 1.604 0 0 1-2.57-1.92zm11.95-14.08c2.17-2.19 4.44-4.29 6.8-6.27a1.29 1.29 0 0 1 1.81.16 1.28 1.28 0 0 1-.14 1.79q-3.37 3-6.47 6.25a1.39 1.39 0 1 1-2-1.91zm14.2-11.83a73 73 0 0 1 8-4.66 1.06 1.06 0 0 1 1.43.48 1.07 1.07 0 0 1-.46 1.43 70 70 0 0 0-7.65 4.69 1.18 1.18 0 1 1-1.36-1.92zm16.59-8.19a58 58 0 0 1 9-2.15.87.87 0 0 1 1 .73.85.85 0 0 1-.7 1 55.4 55.4 0 0 0-8.68 2.28 1 1 0 1 1-.64-1.82zm-94.66 129.89c0-3.08.21-6.16.49-9.22a2.55 2.55 0 0 1 5.08.4q-.32 4.42-.29 8.85a2.64 2.64 0 0 1-5.28 0zm1.57-18.36 1.71-9a2.37 2.37 0 0 1 4.66.84v.15l-1.49 8.77v.15a2.46 2.46 0 0 1-4.85-.83zm3.97-17.93 2.74-8.74a2.19 2.19 0 0 1 4.19 1.27v.11l-2.5 8.57v.12a2.322 2.322 0 0 1-4.45-1.33zm5.94-17.33 3.63-8.39a2.006 2.006 0 1 1 3.7 1.55v.1l-3.38 8.28v.09a2.101 2.101 0 0 1-3.89-1.59zm7.67-16.59 4.43-8a1.834 1.834 0 1 1 3.23 1.74l-.05.09-4.19 7.91v.08a1.924 1.924 0 0 1-3.4-1.8zm9.26-15.75 5.21-7.5a1.66 1.66 0 0 1 2.74 1.86v.08l-5 7.45v.07a1.742 1.742 0 0 1-2.9-1.93zm10.81-14.71 6-6.89a1.48 1.48 0 0 1 2.25 1.92l-.06.07-5.75 6.86-.06.07a1.562 1.562 0 0 1-2.4-2zm12.41-13.4c2.21-2.1 4.48-4.12 6.84-6.06a1.3 1.3 0 1 1 1.66 2q-3.39 2.91-6.57 6.07a1.414 1.414 0 0 1-2-2zm14.12-11.59c2.5-1.74 5.09-3.38 7.75-4.87a1.12 1.12 0 0 1 1.11 1.94 91 91 0 0 0-7.46 4.9 1.226 1.226 0 0 1-1.42-2zm15.98-8.91a68 68 0 0 1 8.68-3 1 1 0 0 1 1.15.67.94.94 0 0 1-.65 1.14 65 65 0 0 0-8.37 3.05 1 1 0 0 1-1.35-.52 1 1 0 0 1 .52-1.36zm17.72-4.6a47.7 47.7 0 0 1 9.18 0 .76.76 0 1 1-.13 1.51 46.3 46.3 0 0 0-8.88.18.86.86 0 0 1-.94-.75.85.85 0 0 1 .75-.94zM13.946 495.7q.39-5.1 1.13-10.14a2.82 2.82 0 1 1 5.59.76 146 146 0 0 0-.89 9.76 2.92 2.92 0 0 1-5.83-.32zm2.93-20.16 2.42-9.88a2.62 2.62 0 0 1 5.1 1.19v.16l-2.14 9.6v.17a2.72 2.72 0 1 1-5.31-1.19zm5.4-19.58 3.51-9.51a2.421 2.421 0 1 1 4.56 1.63v.13l-3.26 9.32v.13a2.524 2.524 0 0 1-4.77-1.65zm7.51-18.81 4.49-9.08a2.23 2.23 0 0 1 4 1.93l-.05.11-4.14 8.95-.06.11a2.33 2.33 0 0 1-4.21-2zm9.43-17.93 5.39-8.56a2.043 2.043 0 1 1 3.48 2.14l-.06.1-5.11 8.48-.05.09a2.13 2.13 0 0 1-3.65-2.2zm11.22-16.8 6.27-7.94a1.84 1.84 0 0 1 2.9 2.25l-.07.08-6 7.89-.07.08a1.93 1.93 0 1 1-3.07-2.33zm12.98-15.5 7.16-7.14a1.633 1.633 0 1 1 2.33 2.29l-.07.08-6.87 7.13-.08.07a1.73 1.73 0 1 1-2.49-2.4zm14.78-13.79c2.61-2.13 5.31-4.17 8.08-6.09a1.44 1.44 0 0 1 1.66 2.35 132 132 0 0 0-7.78 6.1 1.54 1.54 0 1 1-2-2.34zm16.63-11.51c2.93-1.67 5.94-3.22 9-4.6a1.24 1.24 0 0 1 1 2.25c-3 1.41-5.88 3-8.7 4.67a1.341 1.341 0 0 1-1.38-2.3zm18.48-8.24a81.5 81.5 0 0 1 9.84-2.49 1 1 0 0 1 1.21.84 1 1 0 0 1-.81 1.21 77 77 0 0 0-9.52 2.61 1.15 1.15 0 0 1-.74-2.17zm19.92-3.62a66 66 0 0 1 10.12.38.844.844 0 1 1-.17 1.68 65 65 0 0 0-9.86-.17.95.95 0 0 1-.11-1.89zM.166 475.05l2.34-9.95a2.824 2.824 0 1 1 5.51 1.24v.18l-2.06 9.63v.19a2.93 2.93 0 0 1-5.72-1.23zm5.3-19.71 3.54-9.55a2.624 2.624 0 1 1 4.94 1.77v.15l-3.24 9.32-.05.15a2.73 2.73 0 0 1-5.16-1.79zm7.62-18.88 4.56-9.08a2.43 2.43 0 0 1 4.36 2.14l-.05.12-4.27 8.93-.06.12a2.53 2.53 0 0 1-4.54-2.18zm9.59-17.9 5.48-8.54a2.23 2.23 0 1 1 3.78 2.37l-.06.1-5.19 8.45-.06.1a2.343 2.343 0 0 1-4-2.44zm11.41-16.79 6.33-7.92a2.03 2.03 0 1 1 3.2 2.5l-.07.09-6 7.87-.06.09a2.14 2.14 0 1 1-3.39-2.6zm13.05-15.5 7.15-7.19a1.84 1.84 0 0 1 2.63 2.56l-.07.07-6.86 7.19-.07.07a1.934 1.934 0 0 1-2.8-2.67zm14.69-13.97 7.94-6.3a1.64 1.64 0 0 1 2.06 2.55l-.08.06-7.66 6.33-.08.07a1.74 1.74 0 0 1-2.22-2.68zm16.26-12.08a144 144 0 0 1 8.74-5.15 1.44 1.44 0 0 1 1.39 2.52 128 128 0 0 0-8.44 5.21 1.542 1.542 0 0 1-1.69-2.58m17.88-9.58q4.65-2 9.49-3.61a1.24 1.24 0 0 1 .79 2.35 102 102 0 0 0-9.19 3.71 1.342 1.342 0 0 1-1.12-2.44zm19.3-6.25a85 85 0 0 1 10-1.51 1.045 1.045 0 1 1 .2 2.08 85 85 0 0 0-9.76 1.66 1.14 1.14 0 0 1-1.37-.85 1.15 1.15 0 0 1 .86-1.38zm20.2-1.72a70 70 0 0 1 10.09 1.19.85.85 0 0 1-.31 1.67 69 69 0 0 0-9.85-1 1 1 0 0 1 .05-1.9z"/><path fill="#8A9097" fill-rule="nonzero" d="m339.466 224.8-4.37 15.21 21.97 14.28-1.94-26.94z"/><path fill="#340731" fill-rule="nonzero" d="M369.726 124.13c-9.85 2.26-17.91 9.73-20.28 19.41-.17.7-.32 1.41-.43 2.13l-.11 1.2-13.32 82.55 30.95 10.55z"/><path fill="#A4ABB3" d="m225.946 323.39-3.35-22.38c6.45-1.92 18.23-4.81 24.48 2a150 150 0 0 1 9.14 11.85l-30.27 8.55z"/><path fill="#F0DCEE" fill-rule="nonzero" d="m53.546 485.99 1.36-9.17a2.56 2.56 0 0 1 5.07.69v.14l-1.12 8.92v.14a2.67 2.67 0 0 1-5.29-.66zm3.2-18.24 2.28-9a2.35 2.35 0 0 1 4.56 1.11v.11l-2 8.78v.12a2.452 2.452 0 0 1-4.78-1.1zm4.98-17.78 3.11-8.7a2.13 2.13 0 0 1 4 1.39v.09l-2.84 8.57v.1a2.24 2.24 0 1 1-4.25-1.41zm6.61-17.23 3.91-8.36a1.922 1.922 0 1 1 3.5 1.59v.09l-3.66 8.26v.09a2.026 2.026 0 0 1-3.71-1.63zm8.24-16.52 4.76-7.9a1.732 1.732 0 1 1 3 1.73v.08l-4.48 7.84v.09a1.814 1.814 0 0 1-3.15-1.8zm9.98-15.5 5.71-7.26a1.494 1.494 0 1 1 2.37 1.82l-.06.08-5.41 7.22-.07.09a1.6 1.6 0 0 1-2.56-1.92zm11.95-14.08c2.17-2.19 4.43-4.29 6.8-6.27a1.303 1.303 0 1 1 1.67 2q-3.369 3-6.48 6.25a1.38 1.38 0 0 1-2 .06 1.4 1.4 0 0 1-.06-2zm14.2-11.83a73 73 0 0 1 8-4.66 1.07 1.07 0 0 1 1.44.48 1.08 1.08 0 0 1-.46 1.43 71 71 0 0 0-7.66 4.69 1.174 1.174 0 0 1-1.35-1.92zm16.59-8.19a58 58 0 0 1 9-2.15.87.87 0 0 1 1 .73.86.86 0 0 1-.71 1 55 55 0 0 0-8.67 2.28 1 1 0 1 1-.64-1.82zm-94.71 129.89c0-3.08.21-6.16.48-9.22a2.55 2.55 0 0 1 5.08.4q-.3 4.42-.29 8.85a2.64 2.64 0 1 1-5.27 0zm1.61-18.36 1.72-9a2.37 2.37 0 0 1 4.66.84v.15l-1.49 8.73v.15a2.482 2.482 0 0 1-4.9-.8zm3.97-17.93 2.74-8.74a2.19 2.19 0 0 1 4.18 1.26v.11l-2.5 8.57v.12a2.311 2.311 0 0 1-4.43-1.32zm5.92-17.33 3.63-8.39a2.01 2.01 0 1 1 3.71 1.55v.1l-3.38 8.28v.09a2.134 2.134 0 0 1-3.96-1.59zm7.69-16.59 4.44-8a1.83 1.83 0 1 1 3.22 1.74v.09l-4.19 7.91v.08a1.924 1.924 0 0 1-3.4-1.8zm9.31-15.75 5.21-7.5a1.652 1.652 0 1 1 2.73 1.86l-.05.08-5 7.45v.07a1.742 1.742 0 0 1-2.9-1.93zm10.77-14.71 6-6.89a1.48 1.48 0 0 1 2.23 1.92l-.06.07-5.74 6.86-.06.07a1.562 1.562 0 0 1-2.4-2zm12.41-13.4q3.3-3.15 6.83-6.06a1.303 1.303 0 1 1 1.67 2q-3.39 2.91-6.57 6.07a1.414 1.414 0 0 1-2-2zm14.12-11.59a93 93 0 0 1 7.75-4.87 1.12 1.12 0 0 1 1.11 1.94c-2.57 1.51-5 3.15-7.47 4.9a1.224 1.224 0 0 1-1.41-2zm15.97-8.91a68 68 0 0 1 8.68-3 .94.94 0 0 1 .5 1.81 66 66 0 0 0-8.36 3.05 1.028 1.028 0 1 1-.83-1.88zm17.73-4.6a48 48 0 0 1 9.19 0 .76.76 0 0 1-.13 1.51 46.2 46.2 0 0 0-8.88.18.85.85 0 0 1-.19-1.69zm-118.75 139.4q.39-5.1 1.13-10.14a2.82 2.82 0 1 1 5.59.76q-.62 4.88-.89 9.76a2.92 2.92 0 0 1-5.83-.32zm2.93-20.16 2.42-9.88a2.62 2.62 0 0 1 5.1 1.19v.16l-2.14 9.6v.17a2.72 2.72 0 1 1-5.31-1.19zm5.4-19.58 3.51-9.51a2.421 2.421 0 1 1 4.56 1.63v.13l-3.24 9.32v.13a2.524 2.524 0 0 1-4.77-1.65zm7.51-18.78 4.49-9.08a2.23 2.23 0 0 1 4 1.93l-.05.11-4.2 8.95-.05.1a2.335 2.335 0 0 1-4.22-2zm9.43-17.94 5.39-8.56a2.029 2.029 0 1 1 3.46 2.12l-.06.1-5.11 8.48-.05.09a2.13 2.13 0 0 1-3.65-2.2zm11.22-16.82 6.26-7.94a1.84 1.84 0 0 1 2.9 2.25l-.07.08-6 7.89-.06.08a1.931 1.931 0 0 1-3.08-2.33zm12.98-15.5 7.16-7.14a1.633 1.633 0 1 1 2.33 2.29l-.07.08-6.87 7.13-.08.07a1.73 1.73 0 1 1-2.49-2.4zm14.78-13.74c2.61-2.13 5.31-4.17 8.08-6.09a1.44 1.44 0 0 1 1.66 2.35 132 132 0 0 0-7.78 6.1 1.54 1.54 0 1 1-2-2.34zm16.63-11.56c2.93-1.67 5.94-3.22 9-4.6a1.24 1.24 0 0 1 1 2.25c-3 1.41-5.88 3-8.7 4.67a1.341 1.341 0 0 1-1.38-2.3zm18.48-8.24a81.5 81.5 0 0 1 9.84-2.49 1 1 0 0 1 1.21.84 1 1 0 0 1-.81 1.21 77 77 0 0 0-9.52 2.61 1.15 1.15 0 0 1-.74-2.17zm19.92-3.62a66 66 0 0 1 10.13.38.845.845 0 1 1-.18 1.68 65 65 0 0 0-9.86-.17.95.95 0 0 1-.11-1.89zM.706 475.05l2.38-9.95a2.824 2.824 0 1 1 5.51 1.24v.18l-2.07 9.63v.19a2.93 2.93 0 0 1-5.72-1.23zm5.31-19.71 3.53-9.55a2.63 2.63 0 0 1 4.95 1.77l-.05.15-3.24 9.32-.06.15a2.73 2.73 0 0 1-5.15-1.79zm7.6-18.88 4.57-9.08a2.43 2.43 0 0 1 4.36 2.14l-.06.12-4.27 8.93-.06.12a2.53 2.53 0 1 1-4.56-2.18zm9.6-17.9 5.49-8.54a2.23 2.23 0 1 1 3.78 2.37l-.06.1-5.19 8.45-.07.1a2.343 2.343 0 0 1-4-2.44zm11.4-16.79 6.33-7.92a2.034 2.034 0 1 1 3.21 2.5l-.07.09-6 7.87-.07.09a2.132 2.132 0 0 1-3.38-2.6zm13.07-15.5 7.14-7.19a1.84 1.84 0 0 1 2.64 2.56l-.08.07-6.85 7.19-.07.07a1.94 1.94 0 0 1-2.81-2.67zm14.68-13.97 8-6.3a1.64 1.64 0 0 1 2.06 2.55l-.08.06-7.65 6.33-.09.07a1.74 1.74 0 1 1-2.21-2.68zm16.29-12.08q4.26-2.73 8.73-5.15a1.44 1.44 0 0 1 1.39 2.52 131 131 0 0 0-8.44 5.21 1.548 1.548 0 1 1-1.71-2.58zm17.85-9.58a123 123 0 0 1 9.49-3.61 1.241 1.241 0 1 1 .8 2.35 102 102 0 0 0-9.19 3.71 1.342 1.342 0 0 1-1.12-2.44zm19.3-6.25c3.3-.7 6.64-1.204 10-1.51a1.045 1.045 0 1 1 .2 2.08 85 85 0 0 0-9.75 1.66 1.15 1.15 0 0 1-1.38-.85 1.16 1.16 0 0 1 .86-1.38zm20.21-1.72a70 70 0 0 1 10.07 1.19.85.85 0 0 1-.3 1.67 69 69 0 0 0-9.85-1 1 1 0 0 1 0-1.9z"/><path fill="#A4ABB3" fill-rule="nonzero" d="M400.709 71.158c2.78.736 5.414 2.027 7.447 4.062l2.397-7.639s.543-.731 3.783-1.981 5.569-15.963 6.889-23.083c1.56-7.74 1.164-10.418 1.164-10.418s-14.6-6.265-18.82-5.475-14.384 7.187-19.384 7.187c-1.95-.026-3.76-.51-5.496-1.399a49 49 0 0 0-.813 3.698 119.5 119.5 0 0 0 1.74 19 87 87 0 0 0 2 9l.44 1.54 4.373 9.944c5.034-5.746 10.25-5.399 13.566-4.604z"/><path fill="#43464A" fill-rule="nonzero" d="m429.086 76.7 5.14-21.09a64.2 64.2 0 0 1-6.69 12.49z"/><path fill="#A4ABB3" fill-rule="nonzero" d="M427.576 68.09a64.5 64.5 0 0 0 6.69-12.49 21.6 21.6 0 0 0 1.18-4.78c0-.29.07-.59.07-.81a6.15 6.15 0 0 0-1.4-4.33c-2.13-2.36-4.55-1.47-6.83.66-3.9 3.67-7.06 11-7.06 11l3.86 13.4c.07.29.07.66.14 1 .136.994.163 2 .08 3-.37 4.49-2.8 9.41-7.13 11.84-5.95 3.38-8.67 3.74-12.64 6.24a47.7 47.7 0 0 0-6.18 5.51c-1.1 9.78-2.2 18.38-2.2 18.38h40.27z"/><path fill="#C1C7CC" fill-rule="nonzero" d="m366.086 704.98-53.79 19.69.15.22a25.94 25.94 0 0 0 20 9.41h76.2l-6-29.25c-12.64-.15-28.22.37-34.25 0h-2.31zm153.42 18.24-25.58-19.32h-28.95l-2.35 30.42h51.07a7.06 7.06 0 0 0 7.06-7.05 7.13 7.13 0 0 0-1.25-4.05"/><path fill="#340731" fill-rule="nonzero" d="m382.286 304.76 48.88.37c0-.15-.08-.22-.08-.37-.07-.44-78.41 0-78.41 0l5.8 207.1 7.35 193.36h54.83c-1.77-121-2.65-96-14.41-177.26-4.85-33.51-.22-65.55 6.47-95.75-7.2-29.62-14.185-58.866-20.795-74.926-8.75-21.38-8.36-52.524-8.36-52.524z"/><path fill="#551151" fill-rule="nonzero" d="M512.296 704.04c0-153.45-43.58-234.07-43.21-248.18 2.05-78.93 4.11-98-10.22-150.51l-27.78.59-48.8-.37s-.07 30.94 8.68 52.25c6.61 16.1 14.47 45.35 21.68 74.89 11.09 45.64 20.43 92 20.43 92l30.71 179.33z"/><path d="M398.676 95.39c1.18-12.13 3-24 2.72-24.62l18.23-1.55c-1.47 10.58-11.17 20.06-21 26.16zm-11.02-36.97-3.38-27.26-10.88-3.46c-.07-.07-14.48 23.3 14.26 30.72"/><path fill="#C535BC" fill-rule="nonzero" d="m478.786 125.59-33.51-19.54a104.5 104.5 0 0 0-28.37 23c-11.76 13.37-29.48 44.37-29.48 44.37s-5.94-17.92-7.56-28.72c-2.21-14.77-1.18-32.41-1-34l-13.15 7.93a45.19 45.19 0 0 0-21.68 42.48l12.71 87.82-5.22 62H437.7l11.034-146.204 30.052-39.146z"/><path fill="#F0DCEE" fill-rule="nonzero" d="M379.696 144.9c1.62 10.8 7.87 28.73 7.87 28.73s17.42-31 29.17-44.39c12.79-14.47 25.87-21.75 28.37-23l.27-.15-10.7-6.61-3.16-9.85-34.91 4.93-4.27 7.42-13.73 8.83s-1.11 19.32 1.09 34.09"/><path fill="#9E2896" fill-rule="nonzero" d="M478.856 125.67v-.08l-.07.08-31.16 38.14-11.17 147.13h31.89l10.51-184.83z"/><path fill="#A4ABB3" fill-rule="nonzero" d="M419.186 58.13s9.18-18.91 15.14-12.42-8.09 23.08-8.09 23.08z"/><path fill="#340731" d="m401.696 99.22-15.51-4.49v17.93l15.51-4.44 15.5 4.48V94.73z"/><path d="M391.326 184.02a3.6 3.6 0 1 1-7.2 0 3.6 3.6 0 0 1 7.2 0"/><path fill="#43464A" fill-rule="nonzero" d="M435.916 19.69c-6.46-3.6-13.59-2.87-18.66-7.13s-7.35-9.48-15.95-11.61-12.05.88-13.45 3-3.6 9.34-3.6 9.34-11.76-1.55-11.76 9.18a11.8 11.8 0 0 0 1.59 5.89c-1.61 2.87-9.1 18.22 5.6 26.75a115.4 115.4 0 0 1-1.7-19c.22-1.25.44-2.42.73-3.53a12 12 0 0 0 5.59 1.4c5 0 15.06-6.47 19.33-7.2s18.44 5.51 18.44 5.51.44 2-1 9.85c-1.32 7.13-3.45 22-6.68 23.37a16.8 16.8 0 0 0-3.9 1.91l-2.36 7.8a15.86 15.86 0 0 0-7.35-4.26c-4-1-9.39-1.59-14.31 4.44l-4.39-9.76s-6.14 5.58-6.14 16.08c0 9 7.28 11 7.28 11a59 59 0 0 0 7.06 5.8 27.2 27.2 0 0 0 5.8 2.57s1-1.17 2.43-2.72a35.5 35.5 0 0 1 6.17-5.51c4-2.5 6.69-2.86 12.64-6.24a15.21 15.21 0 0 0 7.13-11.84c.083-1 .056-2.006-.08-3-.07-.29-.07-.66-.14-1l-3.82-13.46s3.23-7.35 7.05-11c2-1.83 5-2.57 6.77-.61a6.14 6.14 0 0 1 1.58 4.28c.22-.59.32-1.24.54-2 2.5-7.71 5.07-25.28-.44-28.29z"/><path fill="#8A9097" fill-rule="nonzero" d="m506.946 361.83-15.76 22.14 9.08 16.49 4.51-1.89-2.57-10.87 4.4-5.44z"/><path fill="#F0DCEE" fill-rule="nonzero" d="m549.786 238.56-60.63-103.26c-9-12.65-19.64-16.34-30.88-11.57-16.78 8.68-10.52 32.38-6 42.24 8.6 18.81 58.23 94.42 62.48 96 26.91 9.89 35.03-23.41 35.03-23.41"/><path fill="#A4ABB3" fill-rule="nonzero" d="M505.306 295.22c-2 22.67-.11 47.86 1.64 66.62l-6.49 28.7s30.83 2.83 30.83 2.9c3.63-8.28 2-31.14 2-31.14s17.33-123.62 16.52-123.73a37.8 37.8 0 0 0-10.73.28c-22.57 3.67-31.22 28.11-33.77 56.37"/><path fill="#8A9097" fill-rule="nonzero" d="M498.236 415.48s12.34.55 19.18-3.64c8.71-5.34 13.28-17.63 13.9-18.46l-30.86-2.85z"/></g></svg>