<svg xmlns="http://www.w3.org/2000/svg" data-name="Ebene 1" viewBox="0 0 259.887 750"><path fill="#e48cdd" d="M70.07 233.143c-.37.142-.738.213-1.107.356L23.307 347 .074 382.67l6.938 2.734c5.089 1.499 11.859 1.351 17.082-.564 5.93-2.683 11.52-7.813 12.847-10.024 9.81-16.051 10.632-37.732 10.632-37.732S82.26 293.64 94.114 267.1c.143-.32.812-1.141.812-1.141a20.7 20.7 0 0 0 3.835-10.416c1.106-14.125-12.686-27.251-28.691-22.4"/><path fill="#e48cdd" d="m0 356.273 2.493 7.484 22.51-11.051 6.418-24.184L0 356.272z"/><path fill="#979ea4" d="m87.255 214.095-10.142-62.686-14.398 83.253 4.404 1.548 20.062 5.85z"/><path fill="#e5a2df" d="m122.05 69.091 18.523.072c6.694 5.864 9.508 1.832 13.715-9.007 2.306-6.298 1.97-12.813 2.964-19.446-3.306-3.613-8.495-8.045-4.964-16.775 0 0-9.212 6.693-18.351 4.216-9.14-2.476-10.604-4.37-14.217-3.316s-6.018 3.92-7.369 6.019c-.072.45-.153.829-.225 1.279-.03 3.011.11 6.021.42 9.017.543 6.664-.312 13.265 1.418 19.723.225.675.368 1.422.604 2.047 0 0 3.818 10.89 7.43 6.222z"/><path fill="#e5a2df" d="m164.068 69.224-.829-4.094c4.36-6.765 10.87-18.474 6.653-23.14-3.91-4.29-7.779.122-9.959 3.735a32 32 0 0 0-1.955 3.684l3.024 11.658c.307 3.531.829 15.72.757 17.225-.532 8.27-9.099 13.162-16.55 13.162h-11.211c-1.351 11.433-2.702 22.517-2.702 22.517h40.858l-8.045-44.829z" data-name="Path"/><path fill="#671761" d="M129.832 90.4h42.199v8.649h-42.199z" data-name="Path"/><path fill="#e0e2e5" d="M171.233 18.326s0-5.793-9.12-13.305c-9.119-7.513-19.129-2.528-27.43-3.337s-17.716-3.347-24.317 0c-5.927 2.968-1.331 11.258-.809 17.082-2.6 4.534-6.305 15.086 3.07 22.517-.45-5.425-.45-8.986-.45-8.986l.225-1.341c1.33-2.047 3.705-4.974 7.339-6.018 3.633-1.044 4.964.819 14.155 3.347s18.31-4.166 18.31-4.166c-3.48 8.69 1.637 13.08 4.892 16.724-.975 6.61-.614 13.104-2.892 19.385-4.145 10.849-6.96 14.718-13.561 8.843H122.05c-3.634 4.605-7.47-6.117-7.47-6.117-.958 2.93-1.45 5.933-1.578 9.013 0 4.166 4.974 10.04 4.974 12.487v7.43h27.274c7.492 0 16.09-4.902 16.601-13.223q.135-3.307-.071-6.612c-.144-3.347-.44-7.216-.666-10.777l-3.023-11.74a35 35 0 0 1 1.924-3.715c2.221-3.644 6.028-8.024 9.959-3.705s-2.293 16.222-6.745 23.06l.89 4.277s13.93-22.445 14.974-38.647c.368-7.645-7.86-12.476-7.86-12.476" data-name="Path"/><path fill="#595e62" d="m48.362 740.144.154.225A26.46 26.46 0 0 0 68.904 750h77.785l-6.397-31.217h-37.316zm162.029-21.463-6.693.082-4.094 31.206h52.505a7.308 7.308 0 0 0 6.018-11.432l-27.941-20.05z" data-name="Path"/><path fill="#340731" d="m119.447 314.35-49.172-.09-2.293 42.095c-2.552 43.827 9.946 100.715 18.77 164.613l15.275 197.918h39.243c14.357-116.791 30.376-105.677 7.588-181.408-.063-33.183 8.29-47.14 5.235-80.714-7.38-30.387-19.13-77.76-25.895-94.227-6.694-16.253-8.352-38.136-8.72-48.217z" data-name="Path"/><path fill="#440c41" d="M230.972 718.478c0-157.433 4.357-146.802-11.663-220.44-9.064-41.66-.87-96.488-3.937-142.02.007-.001-47.015-.062-47.015-.062-1.847-23.456-4.023-41.442-4.023-41.442s-22.806-1.343-49.441-.46c-1.733 45.069 32.632 189.83 48.259 219.843-.003-.005 39.386 184.878 39.386 184.878z" data-name="Path"/><path fill="#791d73" d="M83.961 204.12c-8.713 27.86-10.955 74.097-5.857 110.394h86.23l-3.104-82.134c3.838-81.603 19.5-128.163 19.572-128.347l-9.477-5.783h-40.612l-22.517 13.725L83.96 204.12z" data-name="Path"/><path fill="#c1c7cc" d="M214.29 135.639c-.198-4.2-.629-8.386-1.289-12.538l-10.808-6.602-7.86-4.605-13.541-7.932c0 .143-17.573 41.746-21.411 123.503l4.84 87.408 3.839 41.492h54.347c0-.635-15.352-95.778-15.352-95.778s8.843-93.036 7.236-124.948zm-35.565 208.086a3.685 3.685 0 1 1-.072-7.37 3.756 3.756 0 0 1 3.756 3.685 3.685 3.685 0 0 1-3.684 3.685m.225-14.135a3.46 3.46 0 0 1-3.388-4.216 3.5 3.5 0 0 1 2.64-2.63 3.46 3.46 0 1 1 .748 6.846"/><path fill="#a4abb3" d="M222.407 356.355h-27.235l-.36-97.017-3.15-121.294s22.24-14.79 22.608-2.405c1.075 34.696 3.964 120.334 3.964 120.334s4.143 99.809 4.173 100.382M86.812 210l21.496-98.106c-19.058 8.872-33.517 27.054-31.236 48.893l-9.521 90.984c-.894 22.255-.057 81.851-.865 104.84l17.399.071C75.126 299.815 76.523 246.426 86.812 210" data-name="Path"/><path fill="#fff" d="M178.725 322.395a3.695 3.695 0 0 0-.082 7.38 3.756 3.756 0 0 0 3.766-3.685 3.695 3.695 0 0 0-3.684-3.695m0 13.695a3.685 3.685 0 1 0-.082 7.369 3.756 3.756 0 0 0 3.746-3.664 3.695 3.695 0 0 0-3.685-3.685z" data-name="Shape"/><path fill="#e48cdd" d="M184.24 387.976c27.532 12.193 43.801-19.02 43.801-19.02l-3.071-4.21-22.56-2.896-4.18 3.491z"/><g fill="#e5a2df"><path d="M257.837 237.581c-15.34-2.497-25.308 3.553-33.067 7.765-18.297 9.936-13.436 86.184-12.303 87.742l-14.255 32.268 29.812 3.616c.531-15.83 30.663-131.806 29.813-131.39z"/><path d="m183.806 356.102 1.49 11.236 19.6-10.518 6.003-18.094z"/></g><path fill="#e0e2e5" d="M259.887 237.65c-5.19-41.881-14.4-70.49-24.03-90.67-10.434-18.458-20.14-25.925-32.638-25.368-19.179 2.316-17.717 25.133-17.464 36.834.458 26.713 22.056 85.08 27.515 99.71l46.617-20.505z" data-name="Path"/></svg>