<svg xmlns="http://www.w3.org/2000/svg" viewBox="0 0 317.3 953.9"><path fill="none" d="M254.5 355.8c-3.7 8.9-6.4 19.3-8.4 31-2 11.6-3.4 23.8-4.4 35.8 0-.2-.1-.3-.1-.5l6.6-82.2c2.3 7.2 4.2 13 5.7 16.6.3-.2.5-.4.6-.7m11.2 162.1-10.7-1.8c6.1.9 10.7 1.7 10.7 1.8M303.8 340c-.2 0-.3-.1-.5-.2.3.1.4.1.5.2m-81.4-101.9-.5.8z"/><path fill="#440c41" d="m200.5 123.9-4.2-7.6.2-3.7-1.2-6.3c2-6.2 8.6-11.6 9.2-17.9.2-2.3.5-4.8-.9-6.3-4.6-4.5-8.6 3.2-8.6 3.2l-.4.9-1 12.1-2.2 5.3-6.5-.3H179l4-18.8.3-2 .5-2.7-1-1.4c-1.1-1.2-1.6-3.5-2.4-5-1.6-3-2-2.1.2-7 0 0-8.2 6.1-19.5 3.9-.3-.1-.6-.4-.9-.4-11.6-2.8-12.5-4.2-17-3-3.5.8-5 1-6.8 3-.6.7-.9 2.2-1.3 2.7-.1.5-.2 1.6-.3 2.1 0 0 0 2.1.7 8.3.3 3.8.6 8.3 1.3 12.1.4 1.9 1.5 4.7 2 6.6 1 4.8 1.4 8.8 2.6 12.3.8 2.3-.3 4 .8 7.2-14.8-9.2-25.6-29.4-28.1-49.2-.2-1.2-.3-2.5-.3-3.7-2.1-5-3.3-10.5-3.3-16.2 0-11.2 3.4-19.1 9.8-24.8 2.9-8.2 10.2-15.4 19.9-18.7 3.2-3.4 7.7-5.5 12.7-5.5 2.2 0 4.4.4 6.4 1.2-.1.1-.2.1-.3.2.2 0 .3-.1.5-.1-.1 0-.1-.1-.2-.1 4.4-3.2 10.2-4.8 16.3-4.1 4.2.5 8.1 2 11.2 4.2 3.3 0 6.8.6 10.1 1.9 3.9 1.5 7.3 3.8 10.1 6.7 10.5 3.5 17.2 11.9 21.4 22.9 6 6.2 7.7 16.2 8 23.2.8 19.9-14.2 56.9-35.9 64.8"/><path fill="#71767c" d="M207.3 86.2c-.5 6.3-6.1 15-10.1 20.7l1 4.6 2.2 12.3 5.5 30.4c-.3.3 1.8 2.4-1.3 4.4-.7.5-3.4 2-4.2 2.5-.5.3-2.1.8-2.7 1.1-1.4.8-1.8 1.3-3.5 2.2-9.4 4.7-21 6.7-21.6 7.3h-3s-8.6-2.5-12-7.4c-.5-.7-.9-2.9-1.1-3.8 0-.1.7-1.8.7-2.3.2-1.7.5-3.8.8-6.3.5-.3 1.1-.7 1.6-1 .7-.5 3.2-4.2 2-6.5-.9-1.8-.3-3.2-2.2-3.4-.3 0-.6 0-.8-.1-5.5-.5-10.1-1.6-10.1-1.6s-3.6-9.6-6.6-18.1c-1.1-3.2-2.2-6.2-2.9-8.5-1.2-3.5-2.4-8.7-3.3-13.5q-.75-2.85-1.2-5.7c-.7-3.7-1.2-7.5-1.6-11.2-.7-6.2-.5-10.2-.5-10.2.1-.5.2-.9.3-1.5.4-.6.9-1.2 1.5-1.9 1.8-2 4.4-4.1 7.9-5 4.6-1.2 6.4.9 18 3.8.3.1.6.1.9.2 11.3 2.2 22.4-5 22.4-5-2.2 4.9-1.7 8.6-.2 11.6.8 1.5 1.8 2.8 2.8 3.9l-.3 1.3-.6 3.1-.4 1.9-3.5 17.3 2.9.2 6.7.4.6-4.2 1.8-11.8.2-1.2.2-1.4c2.9-3.9 7.4-7.9 12-3.4 1.4 1.6 1.9 3.6 1.7 5.8"/><path fill="#383b3e" d="M172.8 140.4c-3.4 3.3-7.1 6.4-11 9.1-.7.5-3.2 2.1-3.8 2.4.4-3.3.9-7 1.5-10.9 1.9.2 4 .3 5.9.2 1.9 0 4.5-.3 7.4-.8"/><path fill="#595e62" d="m108.6 381.7-.4 41.9.1 4.3-49 76.2s-2.6 25.7-14.8 46.3c-1.7 2.8-9.6 8.5-16.1 12.7-5.5 3.7-12.4 4.6-18.8 2.7L.1 563l21.7-34.4-19.1 8.6-2.7-8.3 37.8-34.6 46.7-119.9z"/><path fill="#979ea4" d="M317.3 944.9c0 5-4 8.9-8.9 8.9h-64.3L249 916h35.1l31.7 23.9c1.1 1.5 1.6 3.3 1.5 5m-137 9H84.2c-9.8 0-19-4.3-25.2-11.9l-.2-.3 65.4-25.7h48.4z"/><path fill="#440c41" d="M307.3 916h-60.5l-38.5-224.4s-11.7-58.1-25.6-115.3c-5.2-21-10.7-11.3-15.9-29.2-.5-1.9-18-56.2-20.3-61.9-8.2-20-13.3-52.9-1.7-61.7h96.8l.1-1.5c0 .2.1.3.1.5-1.5 18.6-2 36.9-1.8 52l-11.4 28.8-3 7.6.2 36.9s5 2.3 17.6-3.8c4.3-2.1 8.3-5.9 11.6-9.9-.2 19.3-1 42.2-1.8 71.8-.4 17.7 54.1 118.2 54.1 310.1"/><path fill="#595e62" d="m229.3 511.7-1-.2c.2 0 .6.1 1 .2m25.7 4.4-24-4.1c6.2 1 16.3 2.7 24 4.1q0-.15 0 0"/><path fill="#340731" d="M192.5 916h-68.9l-8.8-240-6.2-237.7-.4-14.7h36.5c.5 12.2 2.6 38.9 10.8 58.8 2.3 5.7 4.8 12.6 7.3 20.6l.9 2.7c.1.5.3.9.4 1.4.3.9.6 1.8.8 2.8.1.5.3.9.4 1.4.5 1.8 1.1 3.6 1.6 5.4 5.2 17.8 10.6 38.7 15.7 59.7-8.4 37.8-14.2 77.8-8.1 119.7 14.6 101.7 15.7 68.6 18 219.9"/><path fill="#43464a" d="M108.2 423.7"/><path fill="#ebcae8" d="m108.6 381.7-24.1-7.3-.8-.2-1-.4L96 263.4l11.9 82 .5 26.8z"/><path fill="#f0dcee" d="M259.8 187.2c-4.1-1.7-8.6-2.4-13.6-2.1-23.5 3.5-25.8 34.3-24.4 47.9.2 1.5.4 3.2.6 5l.8 23-10.6 160.5-4.1 2.1H108.2l.4-41.9-.2-9.5-.5-26.7-11.9-82-.5-3.5-3.5-24.5c-1.8-21.4 8.8-42 27.2-53.1l35.2-21.7c-2 2.1-4.2 5.5-4.2 9.8 0 7.6 3.9 19.1 3.9 19.1l4.7-5.7 6.7 10.8-8.6 14.3-12.7 154 17.5 23.8 15.8-20.6 3.9-157.2-6.3-14.3 9.1-11.7c4.5 3.9 8.4 6.8 8.4 6.8 6.3-7.7 23.7-24.5 23.7-24.5l-1.2-1.3z"/><path fill="#c1c7cc" d="M260.6 187.5v.1z"/><path fill="#a4abb3" d="M260.6 187.6"/><path fill="#e5a2df" d="m248.3 339.9-6.6 83.7h-33.2L222.4 238c3.6 23.8 17 73.4 25.8 101.7z"/><path fill="#440c41" d="m174.9 194.6 6.3 14.3-3.9 157.2-15.8 20.6-17.5-23.8 12.7-154 8.6-14.3-6.7-10.8 7.8-9.6 4.1-5.1v.1c1.4 2 3.4 4.3 5.6 6.5 2.5 2.5 5.2 4.9 7.7 7.1z"/><path fill="#e5a2df" d="M216.7 164.8s-18 17.1-24.4 24.8c0 0-3.8-2.9-8.4-6.8-2.5-2.2-5.3-4.6-7.7-7.1-2.2-2.3-4.3-4.5-5.6-6.5v-.1c.6-.5 12.3-1.4 21.7-6.1 1.7-.9 3.2-1.7 4.6-2.4.6-.4 1.2-.7 1.7-1 .9-.5 1.6-1 2.3-1.5 3.1-2 4.7-3.5 5-3.8l.1-.1z"/><path fill="#71767c" d="m230.3 499.3-20.9 8.3-2.7-8.3 33.3-24.6-7.1 24.1z"/><path fill="#e5a2df" d="m170.7 169.1-4.1 5.1-7.8 9.6-4.7 5.7s-3.9-11.5-3.9-19.1c0-4.3 2.2-7.7 4.2-9.8 1.5-1.6 2.8-2.5 2.8-2.5v.1c0 .5.1 1.1.2 1.6 0 .1 0 .2.1.3.2.9.6 1.7 1.1 2.4 3.4 5 12.1 6.6 12.1 6.6"/><path fill="#71767c" d="M271.6 477.1s-.2 30.3-5.9 40.7c0 0-4.6-.8-10.7-1.9-6.3-1.1-14.1-2.4-20.2-3.4-.5-.1-.9-.2-1.4-.2l-2.4-.3-1.8-.3c-.4-.1-.7-.1-1-.2l-.9-.2-.5-.1-.4-.1-.8-.1 3-7.6 11.4-28.8c-.2-15.1.3-33.4 1.8-52 1-12 2.4-24.2 4.4-35.8 2-11.7 4.7-22.2 8.4-31 18.9-24.7 44.8-17.3 48.8-16 .2.1.3.1.5.2 1 .2-32.3 137.1-32.3 137.1"/><path fill="#595e62" d="m265.7 517.9-10.7-1.8-20.2-3.4-1.4-.2-2.4-.5-1.8-.3-1-.2-.9-.2-.5-.1-.4-.1-.8-.1.2 36.9s5 2.3 17.6-3.8c4.3-2.1 8.3-5.9 11.6-9.9 6.1-7.4 10.1-15.7 10.7-16.3"/><path fill="#ebcae8" d="M303.8 340c-.1 0-.3-.1-.5-.2-3.9-1.3-29.9-8.7-48.8 16-.2.2-.4.5-.6.7-1.4-3.6-3.4-9.5-5.7-16.6v-.1c-8.9-28.3-22.3-78-25.8-101.7-.3-1.8-.5-3.5-.6-5-1.4-13.6.8-44.4 24.4-47.9 5-.4 9.6.3 13.6 2.1.3.1.5.2.8.4 8 3.8 14 11.7 17.6 23.9z"/><path fill="#d0d4d8" d="M260.6 187.6"/><path fill="#001d33" d="M159.3 4.3c-.2 0-.3.1-.5.1.1-.1.2-.1.3-.2 0 .1.1.1.2.1"/><path fill="#001d33" d="M159.3 4.3c-.2 0-.3.1-.5.1.1-.1.2-.1.3-.2 0 .1.1.1.2.1"/></svg>