<svg xmlns="http://www.w3.org/2000/svg" viewBox="0 0 367 735"><g fill="none" fill-rule="evenodd" transform="translate(.377 .535)"><path fill="#A4ABB3" fill-rule="nonzero" d="m81.084 168.713 20.54 14.27-24.946 35.905-20.54-14.27z"/><path fill="#56B0FF" fill-rule="nonzero" d="m61.74 196.545-1-3.36s8.55-13.74 11-16c6.94-6.36 19.93-4.29 19.93-4.29l-11.16 23.1c-12.09-4.77-18.77.55-18.77.55"/><path fill="#C1C7CC" d="m186.89 153.565-19.56 48.44 29.66 10.86z"/><path fill="#56B0FF" fill-rule="nonzero" d="m233 67.505 14.19.07c6.54 5.73 9.29 1.79 13.4-8.8a97 97 0 0 0 4.85-19c-3.23-3.53-8.3-7.86-4.85-16.39 0 0-9 6.54-17.93 4.12s-10.36-4.27-13.89-3.24-5.88 3.83-7.2 5.88c-.07.44-.15.81-.22 1.25a78 78 0 0 0 .41 8.81 108.6 108.6 0 0 0 3.34 19.27c.22.66.36 1.39.59 2v-.07c1.24 5.95 3.73 10.71 7.26 6.15z"/><path fill="#56B0FF" fill-rule="nonzero" d="m272.1 67.635-.81-4c4.26-6.61 10.62-18.05 6.5-22.61-3.82-4.19-7.6.12-9.73 3.65a31 31 0 0 0-1.91 3.6l1 11.39c.3 3.45.81 15.36.74 16.83-.52 8.08-8.89 12.86-16.17 12.86h-9c-1.32 11.17-2.64 22-2.64 22H280l-7.86-43.8z"/><path fill="#003253" fill-rule="nonzero" d="M238.65 88.325h41.23v8.45h-41.23z"/><path fill="#E0E2E5" fill-rule="nonzero" d="M279.1 17.905s0-5.66-8.91-13-18.69-2.47-26.8-3.26-17.31-3.27-23.76 0c-5.79 2.9-1.3 11-.79 16.69-2.54 4.43-6.16 14.74 3 22-.44-5.3-.44-8.78-.44-8.78l.22-1.31c1.3-2 3.62-4.86 7.17-5.88s4.85.8 13.83 3.27 17.89-4.07 17.89-4.07c-3.4 8.49 1.6 12.78 4.78 16.34a97 97 0 0 1-4.78 18.94c-4.05 10.6-6.8 14.38-13.25 8.64H233c-3.55 4.5-5.79-.07-7.24-6.1v.08a32.9 32.9 0 0 0-1.6 8.85c0 4.07 4.86 9.81 4.86 12.2v7.26h22.74c7.32 0 15.72-4.79 16.22-12.92a63 63 0 0 0-.07-6.46c-.14-3.27-.43-7.05-.65-10.53l-1-11.47a34 34 0 0 1 1.88-3.63c2.17-3.56 5.89-7.84 9.73-3.62s-2.24 15.85-6.59 22.53l.87 4.18s13.61-21.93 14.63-37.76c.36-7.47-7.68-12.19-7.68-12.19"/><path fill="#0096E8" fill-rule="nonzero" d="m220.94 218.995-108.59-34.42-20.71-11.65-11.13 23.07 8.49 5-5.9 8.64 3 3.45 18.9-10.93c56.15 25.63 113.6 73.03 115.94 16.84"/><rect width="7.87" height="87.43" x="90.406" y="210.931" fill="#A4ABB3" fill-rule="nonzero" rx="3.93" transform="rotate(11.06 94.34 254.646)"/><path fill="#8A9097" fill-rule="nonzero" d="M9.37 281.075h119.61v68.38H9.37z"/><path fill="#8A9097" fill-rule="nonzero" d="M0 288.645h138.35v5.35H0z"/><path fill="#595E62" fill-rule="nonzero" d="m159.05 723.155.15.22a25.85 25.85 0 0 0 19.92 9.41h76l-6.25-30.5h-36.46zm158.31-20.97-6.54.08-4 30.49h51.3a7.14 7.14 0 0 0 5.88-11.17l-27.3-19.59z"/><path fill="#001D33" fill-rule="nonzero" d="m229.23 307.135-23-.05-5.56 41.06v-.08l4.48 161.32 7.06 193h39.17c9.19-110.68 13.44-95.42 1.76-176.92-4.85-33.66-.22-65.7 6.47-96-7.21-29.69-15.22-59.16-21.83-75.25-6.54-15.88-8.16-37.26-8.52-47.11z"/><path fill="#003253" fill-rule="nonzero" d="M336.7 701.995c0-153.82 20.8-148.38-16.32-214.3-4.48-8.08-5.14-20-4.77-34.17.22-7.21.36-14 .58-20.29l-1.1-64.45s.08-8.38.15-20.94l-38.95-.06-3.77-40.51q-11.087-.624-16.559-.634-9.122-.013-27.221.564c.44 9.84 2.06 31.16 8.6 47.18 6.66 16.21 14.55 45.61 21.83 75.29 11.09 45.86 20.5 92.45 20.5 92.45l31.15 180.14z"/><path fill="#004975" fill-rule="nonzero" d="m216.21 241.525-9.63 65.77h65.78l-4.85-52.65c3.75-79.73 20.87-152.82 20.94-153l-9.26-5.65h-39.68l-22 13.41z"/><path fill="#C1C7CC" fill-rule="nonzero" d="M321.17 132.525a112 112 0 0 0-1.26-12.25l-10.56-6.45-7.68-4.5-13.23-7.75c0 .14-17.17 73.19-20.92 153.07l4.73 53 3.75 40.54h53.1c0-.62-15-93.58-15-93.58s8.64-90.9 7.07-122.08m-34.75 203.31a3.6 3.6 0 0 1-.07-7.2c2 0 3.632 1.6 3.67 3.6a3.6 3.6 0 0 1-3.6 3.6m.22-13.81a3.38 3.38 0 0 1-3.31-4.12 3.42 3.42 0 0 1 2.58-2.57 3.38 3.38 0 1 1 .73 6.69"/><path fill="#A4ABB3" fill-rule="nonzero" d="M329.1 348.175h-26.61L290 254.695l9.06-119.82s21.73-14.45 22.09-2.35c1.05 33.9-7 122.07-7 122.07s14.92 93.02 14.95 93.58m-122.5-40.72 9.77-65.85 1.25-132.28-.73.44-7.89 4.63a45.3 45.3 0 0 0-21.9 42.7l.3 88.19-.08 1.54-1.1 31.6-2.35 70 17 .07 5.75-41.08z"/><path fill="#FFF" fill-rule="nonzero" d="M286.42 314.995a3.61 3.61 0 0 0-.08 7.21 3.67 3.67 0 0 0 3.68-3.6 3.61 3.61 0 0 0-3.6-3.61m0 13.38a3.6 3.6 0 0 0-.08 7.2 3.67 3.67 0 0 0 3.66-3.58 3.61 3.61 0 0 0-3.6-3.6z"/><path fill="#0096E8" fill-rule="nonzero" d="M78.58 241.995s-.13.42 2.82 4.21c6.33 8 22.43 12 23.34 12.49l-1.41-31z"/><path fill="#E0E2E5" fill-rule="nonzero" d="m280 240.685 49.41-83c7.75-13.47 2.4-27.25-6.62-35.5-14.85-11.65-29.5 6.48-36.59 14.7-10.16 11.73-34 65.24-46 87.21z"/><path fill="#56B0FF" fill-rule="nonzero" d="m273.2 237.785-33-13.71c-27.85-4-90 6.73-108.38 11l-28.51-7.43s1.43 30.93 1.36 30.94c8.7 2.47 31.12-2.31 31.12-2.31s124.82.2 124.82-.62z"/></g></svg>