<svg xmlns="http://www.w3.org/2000/svg" viewBox="0 0 910.1 966.8"><path fill="none" d="M582.1 190.3c-.1.2-.1.5-.1.7-.2 1.2-.4 2.5-.6 3.8-.2 1.2-.3 2.3-.4 3.5 0 .3 0 .6-.1.9v.1c0 .4-.1.9-.1 1.3v1.8-1.9c0-.5 0-1 .1-1.5 0-.4 0-.7.1-1.1.1-1 .2-2 .3-2.9.1-.5.1-.9.2-1.4s.2-.9.2-1.4c.1-.5.2-1.1.3-1.6 0-.1 0-.2.1-.3m104.1 198.8-8-188.5zM622 40.7c-.3.4-.5.7-.5.7v-.1c.2-.2.3-.4.5-.6"/><path fill="#c1c7cc" d="m522.4 448.8-10.1 7.8s-5.2 5.8-15.8 8.4c-4.2 1-9.4 1.8-14 2.3l-25.9 14.5-1.4-1.8-1.3-1.7-1.2-1.6 1.5-1.5 15.6-15.2-.4-.4-12.8 1.3-8.8 8.6-10 7.5-10.6 8s-2.3-5.9-2.7-6l35.2-43.3 38-6.7z"/><path fill="#a4abb3" d="m509.8 919.8-75.3 4.6.1.2c4 9.5 12.1 16.7 22 19.6l75.4 22.5 3.3-37.2-.2-.1zm-77.3 5.7v-.1z"/><path fill="#71767c" d="M664.7 108c-3.9 3.9-8.2 7.3-12.7 10.3-.8-1.4-1.4-2.6-1.9-3.4.2-1.9.4-3.8.6-5.6.9 0 1.8.1 2.8.1 3.8 0 7.6-.5 11.2-1.4"/><path fill="#656a6f" d="m596.6 294-15.4 107.5-55.5 50-3.3-2.7-24.6-19.8-5.4-4.4 64-84.5 25.8-115.6z"/><path fill="#a4abb3" d="m886.8 879.4-23.7 16.2-.7.4-.4.3-43.8 67.8.3.1c10 2.4 20.6.2 28.8-6l62.8-47.4z"/><path fill="#001d33" d="m899 873.7-10.2 7-1.1.7-24.3 16.6-4.6 2.8-164.9-261.2s-14.1-27.8-29.8-65.7c-7.5-20 8.5-41 27.8-36.9l13.6.9 16 14 25 31 4.4 19.3h.3c2.7 9.3 6.2 17.1 11.1 22.6 66.9 75.1 77.3 69 136.7 248.9"/><path fill="#001d33" d="M887.8 881.4 863.4 898l.7-.4zM641.2 405.5c7.3 15.5-1.7 30.5-16.6 42.7.1-1-11-24.2 2.2-42.7l2-11.4 13.8 5z"/><path fill="#003253" d="M692 537.1c-8.5 10.2-17.8 22.2-27.8 36.9l-.1.1c-7.7 11.4-15.8 24.4-24.3 39.6-9.2 16.4-15.7 30.9-15.2 43.1 3.6 100.4-3.4 86.4-78.5 278.8l-12.9-5-25.3-9.8h-.1l-.2-.1-6.3-2.4 57.9-288.9s4.1-14.5 10.7-35.8c.2-.8.5-1.6.8-2.4 7.5-24.4 7.2-78.7 18.9-109.2 6.9-18.1 17.9-20.5 25-35 1-1.9 7-19 7-19l3 20.2c8.9-18.6 13.8-32.7 16.6-42.7l.3-6.5 44-2 1.3 8.5.1.1 11.6-.6 5 128z"/><path fill="#003253" d="M571.3 589.4c.2-.7.4-1.4.7-2.1-.3.9-.5 1.8-.8 2.6 0-.2 0-.3.1-.5m115.6-183.9-.7-16.4zM533.2 930.6l-.1-.1-25.3-9.7h.1z"/><path fill="#004975" d="M710.9 42.1c-1.4 11.8-19.4 44.5-22 48.8-.2.3-.3.5-.3.5l-2.4-5.3c5.3-7.8 15.9-24.8 9.8-31.5-1.7-1.9-3.6-2.2-5.4-1.4-1.1.5-2.2 1.3-3.3 2.3-2.2 2.2-4.2 5.2-5.9 8 0-1.6-.7-3.5-1.5-5-.4-.7-1-1.4-1.6-2.1-2-2.2-4.7-4.5-6.2-8.2-1.6-3.7-1.9-8.9.9-16.9 0 0-11.9 8.7-23.7 5.4s-13.9-6.4-18.3-4.2c-2.7 1.3-6.4 5.2-8.8 7.9-.1.1-.1.1-.1.2-.2.2-.3.4-.5.6v.1c-.1.1-.1 2.5.2 6.2-.7 0-1.3.1-1.9.1-5.1-8-3.7-16.5-1.9-21.7v-.3c.1-7.6-7.2-19.4 1-23.5 8.7-4.4 20.8-1.2 31.6 0s23.8-5.3 35.6 4.3C698 16.1 698 23.6 698 23.6s14 8.6 12.9 18.5"/><path fill="#c1c7cc" d="m672 48.3-4.2-.4c-19.6-.7-37.6-.8-46-.4-.1-2.1-.2-4.1-.2-6.2 0 0 .2-.3.5-.7.1-.1.1-.1.1-.2 2.4-2.7 6.1-6.6 8.8-7.9 4.4-2.1 6.5 1 18.3 4.2 11.8 3.3 23.7-5.4 23.7-5.4-2.9 8.1-2.6 13.3-1 17M688.9 91l3.8 21.1c-1.4 2-6.2 8.6-10.4 14.5h-26c-1.5-2.8-3.1-5.8-4.3-8.2l-.1-.1c4.6-3 8.9-6.4 12.7-10.3-3.7.9-7.4 1.4-11.2 1.4-.9 0-1.8 0-2.8-.1h-.1c-5.1-.3-10.1-1.2-14.9-2.6 0 0-4.3-9.2-9.3-28.1-.7-2.6-1.3-5.1-1.8-7.7 3.1.2 6.6 0 9.6-.8l3.2-10.5 3.1 10.5c8.7 1.5 19.2.9 24.2 0 2.1-1 4.2-10.5 5.2-12.6l8.3-.9c.6.7 1.2 1.4 1.6 2.1.8 1.4 1.5 3.3 1.5 5 1.7-2.8 3.7-5.9 5.9-8 1.1-1 2.2-1.9 3.3-2.3 1.8-.8 3.7-.5 5.4 1.4 6.1 6.7-4.5 23.7-9.8 31.5l2.4 5.3s.1-.2.3-.5c.2-.2.2-.1.2-.1m-67.2-43.4c-.3-3.8-.3-6.1-.2-6.2 0 2 .1 4.1.2 6.2"/><path fill="#e0e2e5" d="M580.7 201.9v-1.1 1.2zm8.6-30.6c-.1.2-.3.5-.4.7-.3.6-.7 1.2-1 1.8-1.9 3.6-3.4 7.4-4.6 11.3-.2.7-.4 1.3-.5 1.9l-.3 1.2v.1c-.3 1.2-.6 2.5-.8 3.7-.1.5-.2.9-.2 1.4-.1.5-.1.9-.2 1.4-.1 1-.2 1.9-.3 2.9 0 .4-.1.7-.1 1.1 0 .5-.1 1-.1 1.5.3-10.1 3.2-20.2 8.5-29m96.9 217.8-8-188.5zm.1 0-8-188.5-1.9-43.6-.8-19.4c-.1-.1-.2-.2-.3-.4-.2-.2 3.2-5.2 7.1-10.6h-26c2.3 4.3 4.2 8.1 4 8.3 0 0 0 .1-.1.1h.1l-3.5 22-14.8 93.4s-12.3 91.3-14.8 138.8c-.3 5.7-.5 10.7-.5 14.9v1.5h60.1v-1z"/><path fill="#43464a" d="m660.4 135-2.1 13.2-16.2 102.2s-12.3 91.3-14.8 138.8c-.3 5.7-.5 10.7-.5 14.9v1.5c-.2 11.9-2.2 42.7-2.2 42.7-.9 1.8-1.8 3.8-2.8 5.7-7.1 14.5-16.1 30.2-23 48.3-11.6 30.5-20.6 64.5-28.1 89-.3.8-.5 1.6-.8 2.4l5.5-94.8 5.7-97.2 6.2-106.5-5.2-70.5-1.2-16-.1-1.3c-.1-1.5-.1-3-.1-4.5v-2.2c0-.4 0-.9.1-1.3v-.1c0-.3 0-.6.1-.9.1-1.2.2-2.4.4-3.5.2-1.2.4-2.5.6-3.8 0-.1 0-.2.1-.4 0-.1 0-.2.1-.3 0-.2.1-.4.1-.6s.1-.4.1-.6.1-.4.1-.5v-.1l.3-1.2c.2-.6.4-1.3.5-1.9.2-.6.4-1.1.5-1.7s.4-1.1.6-1.7c.1-.3.2-.6.3-1 0 0 0-.1.1-.1.4-1.1.8-2.1 1.3-3.2.3-.6.5-1.2.8-1.8l.9-1.8c.1-.3.3-.5.4-.8.2-.4.4-.7.6-1.1.1-.2.3-.5.4-.7 0 0 0-.1.1-.1 5.5-9.5 12.8-17.9 21.4-24.7l20.2-16.4c0 7.9 27 8.4 29.6 4.6m-79.7 67.1q0-.15 0 0v.3z"/><path fill="#43464a" d="M582 190.6c0-.1 0-.2.1-.3-.1.2-.1.5-.1.7-.1-.2 0-.3 0-.4m78.4-55.6h-.1zm-79.7 66.9v.5zm-9.4 387.5c.2-.7.4-1.4.7-2.1-.3.9-.5 1.8-.8 2.6 0-.2 0-.3.1-.5m17-416.2c-.1.3-.3.5-.4.8l-.9 1.8c-.3.6-.6 1.2-.8 1.8-.5 1.1-.9 2.1-1.3 3.2 0 0 0 .1-.1.1-.1.3-.2.6-.3 1-.2.6-.4 1.1-.6 1.7s-.4 1.1-.5 1.7c1.2-3.9 2.7-7.7 4.6-11.3 0-.4.2-.6.3-.8m72.1-38.2-2.1 13.2zm86.2 396 41 6.5c3.6-12.5-3.8-45.7-3-48.2.7-2.6 1.4-5.2 2.2-8 2 .2 3.4.3 3.9.3h.1l8.3 118.4-47.8 2.2h-.3l-56.4 2.5-2.6-67.8v-.7l-5-130.8-.1-1.1-.6-15.4h-.1l-8-188.5L676 148l-.4-11.2c6.3 5.8 34.1-3.5 36-10l28.1 12c1 21 .1 55 3 71 2 11 2 27-10.9 38.5l-1 .3 15.8 60.9.8-.2c2.4 8.7 9.6 9.5 11.4 15.5 16.1 58.1-6.4 153.3-6.4 153.3s2.3.2 5.8.5c0 5.7-.1 9-.1 9h-.1l-22.7 27.8-9.3 11.4 4.8 8.2 7-4.4 10.7-6.6z"/><path fill="#43464a" d="M685.6 148.2H676l-.5-10.6c2.4 3.3 6.2 7.1 10.1 10.6m-7.4 52.4-2.2-52.4zm-2.2-52.4-.5-10.6z"/><path fill="#2e3033" d="M660.4 134.9s-.1 0 0 0c-2.6 3.9-7.6 8.9-12.3 13.3-6.2 5.8-12.1 10.6-12.1 10.6v-.1c-4.8-5.7-5.2-20.4-5-28.6.1-3.4.2-5.6.2-5.7l18.3-10.6s.2.4.6 1.1c.4.8 1.1 2 1.9 3.4l.1.1c1.3 2.4 2.9 5.4 4.3 8.2 2.3 4.3 4.2 8 4 8.3m51.8-10.3c0 .1-.2.9-.6 2.3-1.9 6.6-7.7 25.3-13.2 31.8 0 0-6.4-4.8-12.7-10.6-3.9-3.5-7.7-7.3-10-10.6-.1-.1-.2-.2-.3-.4-.2-.3 3.2-5.2 7.1-10.6 4.2-5.9 8.9-12.5 10.4-14.5.3-.4.5-.6.5-.6z"/><path fill="#d0d4d8" d="M787.7 537.5s-15.7 23.9-21.9 29.9c-4.6 4.4-13.1 6.5-20.9 5.5-4.2-.5-8.2-1.9-11.1-4.3l6.8-20.2 5.9-17.5v.1l4-5.1 33 6zc-.1.1-.1 0 0 0"/><path fill="#c1c7cc" d="M787.6 537.5v.1l-7-1.1-34.1-5.5v-.1l1.8-6.8-10.7 6.6-7 4.4-4.8-8.2 9.3-11.4 22.7-27.8h.1s0-3.3.1-9c7.9.7 21.9 2 28.8 2.6-.8 2.8-1.5 5.4-2.2 8-.8 2.5 6.6 35.7 3 48.2"/><path fill="#71767c" d="M820.4 321.8s-5.4 111-11.5 159.9v-.1c-.1 1-8.2.8-18.1 0h-.1c-.5 0-2-.1-3.9-.3-6.9-.6-20.9-1.8-28.8-2.6-3.5-.3-5.8-.5-5.8-.5s.5-92.4 1.3-146.4c-1.7-6.1-3.9-13.7-6.3-22.4l2.1-.6 62.9-17.7zm-24.9-92.6L733 248.1l-1.3.4c-2.7-11.7-5.2-23.5-7.2-34.5-2.9-16-7.5-63.8 15.1-75 0 0 .1 0 .1-.1l.6.1c18.3 2.4 32.4 13.2 42.9 44.7z"/><path fill="#1a1c1d" d="M678.2 56.5c-2-2.2-4.7-4.5-6.2-8.2l-4.2-.4c-19.7-.9-34.8-.9-48-.3q-1.65.15-2.4.3c-.7 6.2.1 15 2.1 22 1.4.4 3.2.7 5.1.8 3.1.2 6.6 0 9.6-.8l3.2-10.5 3.2 10.5c8.7 1.5 19.2.9 24.2 0 2.1-1.1 4.2-10.5 5.2-12.6z"/><path fill="#a4abb3" d="M388.1 532.6 191.7 740l7.6 7.2 196.4-207.3zM53.5 885.9l-41.9 44.2 7.7 7.2 41.8-44.2z"/><path fill="none" d="M53.5 885.8v.1m145.8-138.7"/><path fill="#1a1c1d" d="m454 478.4 1.2 1.7-58 61.2-1.5-1.4-7.6-7.3-1.5-1.4 51.2-54.1 10-7.5 8.8-8.6 12.8-1.3.4.4-15.6 15.1-1.5 1.5zM20.8 938.7l-10.1 10.7-1.5-1.4-6.4-6.1-1.3-1.2-1.5-1.4 10.1-10.7 1.5 1.5 7.7 7.2z"/><path fill="#d0d4d8" d="m796.8 228.8-1.4.4-62.4 18.9-1.3.4-1 .3 15.8 60.9.8-.2 2.1-.6 62.9-17.7 1.5-.4zM755 271.7c-6.1.1-11.1-4.7-11.2-10.8s4.7-11.1 10.8-11.2 11.1 4.7 11.2 10.8c.1 6-4.7 11.1-10.8 11.2m22.5 21.5c-6.1.1-11.1-4.7-11.2-10.8s4.7-11.1 10.8-11.2 11.1 4.7 11.2 10.8c.1 6-4.7 11.1-10.8 11.2m6.7-29.5c-6.1.1-11.1-4.7-11.2-10.8s4.7-11.1 10.8-11.2 11.1 4.7 11.2 10.8c0 6-4.8 11.1-10.8 11.2"/><path d="M765.7 260.4c.1 6.1-4.7 11.1-10.8 11.3-6.1.1-11.1-4.7-11.2-10.8s4.7-11.1 10.8-11.2 11.1 4.7 11.2 10.7m29.2-7.9c.1 6.1-4.7 11.1-10.8 11.2s-11.1-4.7-11.2-10.8 4.7-11.1 10.8-11.2c6-.1 11.1 4.7 11.2 10.8m-6.7 29.5c.1 6.1-4.7 11.1-10.8 11.2s-11.1-4.7-11.2-10.8 4.7-11.1 10.8-11.2 11.1 4.7 11.2 10.8"/><path fill="#00629a" d="m75.9 862.2-22.4 23.7 7.6 7.2 22.4-23.6 115.8-122.3-7.6-7.2z"/></svg>