<svg xmlns="http://www.w3.org/2000/svg" viewBox="0 0 435 708"><g fill="none"><path fill="#00210E" d="M335.43 282.78c-9.64 32.65-16.4 42.83-31.4 52.88-17.65 11.81-45.08 12.53-82.73 30.18-6.73 3.12-22.12 13.95-34.94 23.46 5.94 25.43 4.79 44.05 4.48 63-.67 39.1-6.62 149-6.62 149h-44.9l-11.95-232.77c.17-.18 24.76-25 85.08-73.33 17.72-14.21 42.11-31.49 42.11-31.49l39.81-6.43z"/><path fill="#00381B" d="M370.62 313.56c-3.83 28.74-7.18 40.78-7.23 62.26-.07 31.11 2.37 49.19 7.63 57.35 19.34 30.08 23.51 49.51 27.67 71.81l35.28 156.14h-37.29l-78.49-219.4s-25.26-65.93-25.27-120.85c0-43.17 1.45-63.55 1.45-63.55l67.55-10.92c12.88 32.14 12.25 40.5 8.7 67.16"/><path fill="#86D7A2" d="m302.66 346.98 25.29 9.92 1.41 18.76-4.82.88-3.78-10.51-6.65-2.13z"/><path fill="#00884A" d="m88.22 622.14.15.22a25.83 25.83 0 0 0 19.91 9.41h76l-6.25-30.5h-36.46zm255.26 59.81.15.22a25.8 25.8 0 0 0 19.91 9.41h69.16l-6.25-30.5h-27.36l-53.35 20.87z"/><path fill="#C1C7CC" d="M144.5 658.12a9.18 9.18 0 1 1-7.75-14.11l271.18-427.44a9.184 9.184 0 0 1 15.51 9.84L152.26 653.9a9.17 9.17 0 0 1-7.76 4.22"/><path fill="#37A264" d="m199.43 267.13-5.62-119.61c.66-15.53 7.52-24.42 19.55-26.56 18.79-1.9 26.49 21.37 28.08 32.11 3.07 20.46 2.81 110.9.1 114.54-17.11 22.98-42.11-.48-42.11-.48"/><path fill="#86D7A2" d="M215.2 77.44a35.7 35.7 0 0 1-8.95 5.46c.93 2.47 1.86 5.12 2.84 7.73a52.4 52.4 0 0 0 6.11-13.19"/><path fill="#37A264" d="M226.23 18.02c-6-9.61-21.2-9.67-21.2-9.67-9.52-16.67-27.77-.15-27.77-.15s-20.2-.08-26.28 8 5.51 16.17 4.46 21.76 1 12.13 1 12.13 5.09 14.2 18.76 14.8a117 117 0 0 1-9.56-14.83 33 33 0 0 0 15.61-5.9c11.15-8.06 18.28-21.69 18.28-21.69s7 14.2 10.52 18.72c.3.35.6.7.93 1.12.61-5.88 2.45-13.62 7.64-11.61 6.82 2.69 4.39 17.33 3.35 22.36.77.72 1.27 1.16 1.27 1.16s9.06-26.58 3-36.17z"/><path fill="#B8EFC9" d="m251.94 92.71-28.7-38.52s-.5-.44-1.27-1.16c1-5 3.51-19.77-3.35-22.36-5.19-2-7 5.73-7.64 11.61-.33-.42-.63-.77-.93-1.12-3.55-4.59-10.52-18.72-10.52-18.72s-7.13 13.63-18.28 21.69a33.9 33.9 0 0 1-15.61 5.9 118 118 0 0 0 9.65 14.87c1.38 1.82 2.86 3.68 4.47 5.48 9.75 11 15.65 15.75 15.65 15.75a44.2 44.2 0 0 0 10.85-3.17 32.9 32.9 0 0 0 9-5.48 56.3 56.3 0 0 1-6.14 13.14c3.68 10.17 7.1 19.89 7.1 19.89l35.76-17.8z"/><path fill="#37A264" d="M361.92 246.36c-21.89-109.06-66.5-161.67-66.5-161.67l-2.05-2.9-8.75 41.24 51.21 127.55z"/><path fill="#5EBD82" d="M297.15 143.45 295.5 87.2l-2.13-5.41-49.82-3.36-35.12 17.39-14.08 28.66a22.57 22.57 0 0 0-3.32 16.79c1.49 8.52 40.35 83.73 40.35 83.73l.09.2 23.14 38.51 81.71-13.2z"/><path fill="#B8EFC9" d="m397.8 221.18 8.91 19.9-23.68 31.95c-2.75-5.92-7.08-38.79-8.2-47.87 0 0-4.07-88.77-4.1-89.73-1.62-48.18 40.88-43.77 40.88-43.77.83 27.13-5.5 103.35-13.81 129.52"/><path fill="#86D7A2" d="m383.03 273.03 23.71-31.95s1.65 2.12 7.94 12.41-7.38 20.87-7.38 20.87zm28.55-181.37S314.5 80.48 281.97 81.02c-16.48.28-22.38 11-23.92 23.18.56 18.82 24.69 22.2 35.4 23.68 35.18 4.85 77.25 7.55 77.25 7.55 4.49-25.18 14.69-43.81 40.88-43.77"/><path fill="#B8EFC9" d="M267.64 290.28c14.07 17.89 26.23 40 33.88 55.59l21.12 20.49s-22.74 20.37-22.7 20.43c-7.57-4.95-19.08-25.05-19.08-25.05s-82-94.08-81.43-94.61a38 38 0 0 1 9.14-5.63c20.9-9.23 41.46 6.51 59.07 28.78"/><path fill="#86D7A2" d="M337.94 376.51s-7.76 9.62-15.42 12c-9.76 3-21.55-1.61-22.58-1.7l16.68-26.22z"/><path fill="#43464A" d="M98.76 706.32h28.32c38.18-16.16 55.14-45.54 71.89-74.55h-86c-16.75 29.01-33.71 58.39-14.21 74.55"/><path fill="#71767C" d="M169.96 706.32c-9.85-9.54-32.12-16.2-58-16.2-1.58 0-3.15 0-4.71.08-8.58-4.36-20-7-32.42-7-18.12 0-33.9 5.6-42.19 13.89-14.31 1.81-25.93 5.09-32.61 9.23z"/></g></svg>