<svg xmlns="http://www.w3.org/2000/svg" viewBox="0 0 714.225 745.576"><path fill="none" d="m282.691 506.36-55.582-2.092c-.354 2.963-.732 5.86-1.128 8.708h55.566l1.142-6.6zm126.792-276.608 7.91-73.676-7.951 73.75zm-67.48 355.423h38.058zm-115.91-181.2-7.385 22.549 77.981-1.452 3.631-21.097zm137.792.448-9.286-.448h-1.06q4.96.4 10.251.959z"/><path fill="#71767c" d="M225.981 512.976c-3.939 28.277-9.938 51.064-17.742 72.2h60.824l12.484-72.2zm-114.087.8v.1c-4.9-.1-9.1 8.7-9.1 8.7v53.6s4.2 8.8 9.1 8.2l20.288.482 23.408-71.082z"/><path fill="#007bc0" d="M507.194 53.876c-1.7-16.8-21.8-26.9-21.8-26.9-1.7-28.5-36.9-18.4-36.9-18.4s-26.9-13.4-40.3-6.7-3.4 25.2-8.4 31.9c-5 6.8-6.7 16.8-6.7 16.8s-2.356 22.041 15.388 31.955c-.029-.15-.062-.305-.089-.455a175.4 175.4 0 0 1-3-26.1 49.9 49.9 0 0 0 24.7 2.5c20.2-3.4 38.6-16.8 38.6-16.8s0 23.5 1.6 31.9q.179 1.067.5 2.1c4.7-7.4 12.2-16.5 17.8-10.4 7.3 8-5.5 25.9-10.3 32 .5 1.3.8 2.1.8 2.1l.077.424c1.53-1.511 29.68-29.552 28.024-45.924"/><path fill="none" d="m369.74 616.636 10.321-31.461h-17.368zm198.613-105.082 36.449-.078a17.5 17.5 0 0 1 10.8 3.739l7.564-34.239h-53.607a1604 1604 0 0 1-1.206 30.578"/><path fill="#a4abb3" d="M610.325 367.514a61 61 0 0 1 2.469 10.762q-.001.015-.038.034l.037.165c-.019-.054-.04-.1-.058-.157-1.079.471-18.787 2.453-42.654 4.958h75.912l-4.9 20.8h-70.96c.342 24.62.216 50.414-.575 76.9h53.612l.022-.1 5.1-21.8 8.3-35 4.7-19.9 4.8-20.5 39.966-169.7H575.747zM390.59 405.709h-.011l-.3 2.819.315.048a378 378 0 0 1 43.93 10.324l.014-.044a371 371 0 0 0-44.245-10.378zM146.994 710.076l-19.91-3.589-20.2-3.642-13.692-2.469-79.2 31 .2.3a38.18 38.18 0 0 0 29.5 13.9h112.6l-9.3-35.5zm101.095-3.601.016-.1h-.812l-38.7 29.2a10.37 10.37 0 0 0-1.9 5.9c0 5.799 4.701 10.5 10.5 10.5h75.9l-2.228-28.964zm73.004-397.999-39.4-102.2a10.4 10.4 0 0 0-9.7-6.7h-31.1l-30.6-.4c-5.812-.042-10.558 4.635-10.601 10.447-.01 1.317.228 2.624.701 3.853l15.536 40.324 43.264 1.479c.788 5.91-1.322 13.485-5.151 19.474a25 25 0 0 1-7.249 7.626l-15.865 10.351 6.247 16.214 2.518 6.535a10.42 10.42 0 0 0 9.6 6.7h20.9l22.273.271 18.727.229c5.81.044 10.556-4.63 10.6-10.44v-.06c0-.22-.014-.446-.028-.672a9.4 9.4 0 0 0-.672-3.031m132.835 116.892a334 334 0 0 1 9.929 3.836 304 304 0 0 0-9.923-3.852z"/><path fill="#595e62" d="m327.682 309.183-39.7-102.9a10.75 10.75 0 0 0-9.7-6.8l-32.8.092h26.512a10.4 10.4 0 0 1 9.7 6.7l39.4 102.2c.39.965.617 1.988.672 3.028.014.226.028.452.028.672-.011 5.81-4.73 10.511-10.54 10.5h-.06l-18.727-.229 25.116 1.037c5.25.089 9.271-3.639 10.407-8.536q.218-.92.293-1.864a8.6 8.6 0 0 0-.6-3.9zm288.033 206.194q-.06-.052-.121-.1l.013-.061a17.5 17.5 0 0 0-10.8-3.739l-36.449.078q-.346 7.04-.76 14.121l-86.8-3.2s.027-1.159.073-3.287c-15.151 1.754-31.975-.886-43.273-4.612h-12.852l-13.152 40.2h205.7a52.8 52.8 0 0 0 5-22.5v-3.3a17.54 17.54 0 0 0-6.579-13.6m-253.271-.801h-3.887c-3.008 19.791-8.373 43.117-16.554 70.6h38.058l.033-.1 23.086-70.5zm330.049-299.7a61 61 0 0 0-6.434-.9l-39.966 169.7-4.8 20.5-4.7 19.9-8.3 35-5.1 21.8h.024l20.205-.025c.443 0 1.127-.085 1.628-.106a20.85 20.85 0 0 0 18.343-15.969l50.1-216.2c3.503-15.104-5.898-30.189-21-33.7"/><path fill="#003253" d="m390.593 408.576-.315-.048q-11.952-1.922-22.78-3.169c-1.1-.128-2.219-.265-3.305-.383l-.4-.042q-5.285-.561-10.251-.959c-31.5-2.549-52.646-.6-52.646-.6v.256l.4.043q1.182.141 2.356.3c23.817 3.2 45.8 12.3 54.3 42.838a110.4 110.4 0 0 1 3.636 26.09c.259 12.907-.6 25.813-2.567 38.572-.139.962-.276 1.922-.425 2.9l-.032.2h44.616l1.016-3.1.1-.3 9.893-30.2 20.335-62.074a378 378 0 0 0-43.931-10.324m73.264 20.624a309 309 0 0 0-9.929-3.836l-18.19 55.608-9.944 30.4-.158.483-.89 2.717h12.847c11.3 3.726 28.122 6.366 43.273 4.612a9574 9574 0 0 0 .745-38.212c.225-12.9.46-27.871.653-43.528v-.044a297 297 0 0 0-18.407-8.2"/><path fill="#001d33" d="m218.708 426.524-21.528.4-13.071.244-28.52 86.608-23.408 71.082-38.072 115.609 12.8 2.308 20.2 3.642 20.8 3.751c25.219-52.32 45.871-85.829 60.33-124.992 7.8-21.136 13.8-43.923 17.742-72.2.4-2.848.774-5.745 1.128-8.708l55.582 2.092 14-81.285z"/><path fill="#004975" d="M361.581 472.9a110.4 110.4 0 0 0-3.636-26.09c-8.5-30.54-30.484-39.637-54.3-42.838q-1.175-.158-2.356-.3l-.4-.043-.5-.057-.069.4-3.631 21.1-14 81.285v.015l-1.142 6.6-12.484 72.2-20.958 121.2-.016.1 42.776 16.537.423.163c22.788-54.369 39.173-99.43 50.367-136.828l.348-1.172c8.181-27.482 13.546-50.808 16.554-70.6l.032-.2c.149-.979.286-1.939.425-2.9a223.7 223.7 0 0 0 2.567-38.572"/><path fill="#c1c7cc" d="M387.193 172.776a33.92 33.92 0 0 0-16 21.6c-.284 1.209-.565 2.417-.778 3.626-.086.491-.164.983-.222 1.474a75.5 75.5 0 0 0-.7 10.6c0 .382.011.772.014 1.156.006.655.009 1.308.026 1.971 0 .172.017.35.022.523.18 6.638.8 13.618 1.45 20.682v.006l.089.962 6 97.8v.025l-.671 3.474h21.536l2.34-21.9v-.1l9.148-84.85 7.951-73.75-17.9 9.9zm-23.308 231.647-.095.511.4.042c1.086.118 2.2.255 3.305.383a533 533 0 0 1 22.78 3.169l.3-2.819-22.908-1.1zm206.249-.347H482.59c-.076 11.126-.191 22.39-.326 33.325v.047c-.193 15.657-.428 30.63-.653 43.528a9574 9574 0 0 1-.745 38.212c-.046 2.128-.073 3.287-.073 3.287l86.8 3.2a1550 1550 0 0 0 1.966-44.699c.791-26.486.917-52.276.575-76.9m-87.68-61.15a362 362 0 0 1 36.439-7.55c5.971-.891 11.868-1.56 17.628-1.964-9.2-21.159-25.154-62.469-28.929-101.036a87.8 87.8 0 0 1 .258-18.4c1.949-16.434 9.026-35.126 28.442-38a38 38 0 0 1 4.786-.012l-10.086-5.388-30.681-17.589-.019-.011s-5.684 23.287-10.67 61a846 846 0 0 0-7.23 125.6c.023 1.095.043 2.216.062 3.35"/><g fill="#e0e2e5"><path d="M487.536 145.876h-51.943l-.1.055-18.1 10.145-7.91 73.676L398 336.675h.691v8.585l27.8 14.816c16.12-5.52 35.662-11.943 55.961-17.15a846 846 0 0 1 7.169-128.951c4.986-37.713 10.669-60.995 10.67-61l-12.7-7.1zm-88.843 258.9v1.324l-8.1-.391-.3 2.767a371 371 0 0 1 44.245 10.378l7.431-22.681-7.175.7s-21.486 6.842-36.101 7.903"/><path d="m398.693 358.188 27.8 1.888-27.8-1.934zm55.241 67.164a332 332 0 0 1 9.923 3.852 309 309 0 0 1 18.407 8.2c.135-10.935.25-22.2.326-33.325h-21.7zm-82.928-190.936c-.731-7.955-1.429-15.806-1.5-23.18 0-.384-.014-.774-.014-1.156a75.5 75.5 0 0 1 .7-10.6c.058-.491.136-.983.222-1.474L328 314.951l2.883 2.556 23.713 21.023v-1.858h21.825l.671-3.474v-.025l-6-97.8zm203.187-27.34c-6.017-19.847-17.843-30.01-32.722-31.08l-.392-.032a38 38 0 0 0-4.786.012c-19.416 2.874-26.493 21.566-28.442 38a87.8 87.8 0 0 0-.258 18.4c3.775 38.567 19.731 79.877 28.929 101.036 1.6-.112 3.183-.208 4.756-.277 8.901-.486 17.828-.03 26.633 1.361 18.831 3.217 33.721 11.85 40.883 28.88a57 57 0 0 1 1.531 4.138l-34.578-153.538zm38.542 171.242c.018.053.039.1.058.157l-.037-.165zm.058.157z"/></g><path fill="#8a9097" d="M645.05 480.745c-.5.021-1.185.106-1.628.106l-20.205.025h-.024l-.022.1-7.564 34.239-.013.061q.06.05.121.1a17.54 17.54 0 0 1 6.579 13.6v3.3a52.8 52.8 0 0 1-5 22.5h-205.7l13.152-40.2.89-2.717.158-.483 9.944-30.4 18.19-55.608.006-.016 6.96-21.276h180.2l4.9-20.8h-75.913l-.351.037c-10.218 1.072-21.55 2.238-33.179 3.423-18.29 1.862-37.312 3.767-53.894 5.416-17.562 1.747-32.38 3.205-40.688 4.021l-7.431 22.681-.014.044-20.337 62.078-9.893 30.2-.1.3-1.016 3.1-23.086 70.5-.033.1-10.319 31.46-.046.14-12.654 38.56-.046.14-26.6 81.4h21.4l13.9-42.6 12.7-38.7 22.5-68.7h185.5l34.7 154.7h21.4l-34.7-154.7h2.3c16.9 0 30.6-13.7 30.6-30.6v-1.4h-12.4l16.95-74.139c-.057 0-.13.005-.194.008"/><path fill="#d1e4ff" d="M479.093 99.376s-.3-.8-.8-2.1c4.8-6.1 17.6-24 10.3-32-5.6-6.1-13.1 3-17.8 10.4a16 16 0 0 1-.5-2.1c-1.6-8.4-1.6-31.9-1.6-31.9s-18.4 13.4-38.6 16.8a49.9 49.9 0 0 1-24.7-2.5 175.4 175.4 0 0 0 3 26.1c.027.15.06.305.089.455.589 3.167 1.352 6.5 2.211 9.745 5.7 21.1 10.4 31.3 10.4 31.3a71.6 71.6 0 0 0 16.5 3l.116.006a47.9 47.9 0 0 0 15.884-1.506 84 84 0 0 1-17.3 14.2c-.27 2.256-.537 4.485-.8 6.655l.1-.055h51.943L479.17 99.8zM215.929 253.8l-.529-.018h-.106l3.3 47 12.335-8.049 15.865-10.351a25 25 0 0 0 7.249-7.626c3.829-5.989 5.939-13.564 5.151-19.474zm182.764 104.342 27.8 1.934-27.8-14.816z"/><path fill="#43464a" d="m365.794 694.076 9.6 42.6h21.3l-18.201-81.3zm3.946-77.44-7.047-31.461H342l-.348 1.172 15.385 68.989 12.654-38.56zm-262.855 86.209 20.199 3.642.023-.07-20.199-3.642zm283.896-298.256.013.087c-.021-.007-.061-.017-.09-.025h-.011c-1.365-.388-11.726-2.066-21.515-6.123l-.077-.033a61 61 0 0 1-3.8-1.726 35 35 0 0 1-9.5-6.589c-.444-.46-.861-.916-1.266-1.37a42 42 0 0 1-4.271-5.631H211.493l-14.313 43.745 21.528-.4 7.385-22.549h74.227l.069-.4.5.057v-.256s21.144-1.95 52.646.6h1.06l9.286.448 3.786.182 22.908 1.1h.011l8.1.391v-1.324c-2.633.25-5.286.188-7.905-.184m7.221-67.914h-43.409l-.002 1.828v.027l-.036 28.418 2.575-.861 14.747-4.928 6.41-2.143 5.507-1.84 11.884.807.036.003 2.979.202v-21.513z"/><path fill="#9dc9ff" d="M453.593 125.076a47.9 47.9 0 0 1-15.884 1.506c-.489 4.038-.925 8.372-1.416 12.694a84 84 0 0 0 17.3-14.2M215.394 253.779h.006l-.007-.003zm112.595 61.169c-1.136 4.9-5.157 8.625-10.407 8.536l-25.116-1.037-22.273-.271h-5.868c13.432 10.669 60.155 47.248 71.168 48.7 3.421.508 6.898.521 10.323.041a9 9 0 0 1-.022-1.041l8.761-2.928.036-28.418-23.713-21.023zm-109.396-14.172 18.582 8.165-6.247-16.214zm391.732 66.738a57 57 0 0 0-1.531-4.138c-7.162-17.03-22.052-25.663-40.883-28.88a126.5 126.5 0 0 0-26.633-1.361c-1.573.069-3.16.165-4.756.277-5.76.4-11.657 1.073-17.628 1.964a362 362 0 0 0-36.439 7.55c-20.3 5.207-39.841 11.63-55.961 17.15l-27.8-1.888-2.979-.2h-.036l-11.884-.807 6.939 47.091.007.047.041.275a33.6 33.6 0 0 0 7.912.187c14.615-1.061 36.1-7.9 36.1-7.9l7.175-.7c8.308-.816 23.126-2.274 40.688-4.021 16.582-1.649 35.6-3.554 53.894-5.416 11.629-1.185 22.961-2.351 33.179-3.423l.351-.037c23.867-2.5 41.575-4.487 42.654-4.958l.021-.008q.037-.02.038-.034a61 61 0 0 0-2.469-10.77"/><path fill="#56b0ff" d="m390.781 404.589-.041-.275-.007-.047-6.939-47.091-5.507 1.84-6.41 2.143-14.747 4.928-2.575.861-8.761 2.928a9 9 0 0 0 .022 1.041c.13 1.962.846 6.539 4.441 12.258a42 42 0 0 0 4.271 5.631q.6.68 1.266 1.37a35 35 0 0 0 9.5 6.589 62 62 0 0 0 3.8 1.726l.077.033c9.789 4.057 20.15 5.735 21.515 6.123h.011c.029.008.069.018.09.025z"/></svg>