<svg xmlns="http://www.w3.org/2000/svg" enable-background="new 0 0 1600 900" viewBox="0 0 1600 900"><path fill="#e0e2e5" fill-rule="evenodd" d="M0 664.5h1600V0H0z" clip-rule="evenodd"/><defs><filter id="a" width="109.9" height="32.1" x="1198.5" y="836.6" filterUnits="userSpaceOnUse"><feColorMatrix values="1 0 0 0 0 0 1 0 0 0 0 0 1 0 0 0 0 0 1 0"/></filter></defs><mask id="b" width="109.9" height="32.1" x="1198.5" y="836.6" maskUnits="userSpaceOnUse"><g filter="url(#a)"><path fill="#fff" fill-rule="evenodd" d="M0 868.7h1476V0H0z" clip-rule="evenodd"/></g></mask><path fill="#595e62" fill-rule="evenodd" d="m1198.5 858.6.2.2c5.6 6.3 14 9.9 22.8 9.9h87l-7.2-32.1h-41.7z" clip-rule="evenodd" mask="url(#b)"/><defs><filter id="c" width="66.2" height="32.3" x="1367.2" y="836.4" filterUnits="userSpaceOnUse"><feColorMatrix values="1 0 0 0 0 0 1 0 0 0 0 0 1 0 0 0 0 0 1 0"/></filter></defs><mask id="d" width="66.2" height="32.3" x="1367.2" y="836.4" maskUnits="userSpaceOnUse"><g filter="url(#c)"><path fill="#fff" fill-rule="evenodd" d="M0 868.7h1476V0H0z" clip-rule="evenodd"/></g></mask><path fill="#595e62" fill-rule="evenodd" d="m1401.5 836.4-22.3.1h-7.4l-4.6 32.1h58.2c4.4 0 8.1-3.3 8.1-7.4 0-1.5-.5-3-1.4-4.2z" clip-rule="evenodd" mask="url(#d)"/><path fill="#419e98" fill-rule="evenodd" d="m1244.3 385.1-19.1-43.1c-38.7 12.9-93.3 31.5-112.8 38.1l-.1-.2-45.4.3-.1-.2-34.2 17.9c2.8 7 13.1 16 21.2 15l30 2.6 19.7-6.5c4.5-1.5 8.2-2.8 11.3-3.8 20.2-1.3 62.3-5.7 86.7-10.1z" clip-rule="evenodd"/><path fill="#0a4f4b" fill-rule="evenodd" d="M1267.1 128.1c0-.1 0-.2.1-.3-.8.8-1.2 1.4-1.2 1.4s-2.9-7.2-2-13.5c.1-.4.1-.7.1-1.1-1.9 4.8-3.8 13.6 3.4 21.3-.5-4.8-.4-7.8-.4-7.8" clip-rule="evenodd"/><path fill="#116864" fill-rule="evenodd" d="M1293.2 193.2c4.8-2.7 9.2-5.9 13.1-9.6-4.2 1-8.5 1.3-12.8 1.1-.3 2.8-.7 5.8-1 8.8z" clip-rule="evenodd"/><path fill="#0a4f4b" fill-rule="evenodd" d="M1348.3 128.3c1-8.2-11.7-15.3-11.7-15.3s0-6.3-10.8-14.4-22.5-2.7-32.3-3.6-20.8-3.6-28.6 0c-7.4 3.4-.8 13.2-.9 19.6 0 .4 0 .7-.1 1.1-1 6.3 2 13.5 2 13.5s.5-.6 1.2-1.4c2-2.2 6-6.3 8.8-7.6 3.9-1.8 5.9.9 16.6 3.6 10.8 2.7 21.5-4.5 21.5-4.5-5.9 15.3 3.3 18.2 6.3 22.7.7 1.2 1.2 2.5 1.2 3.9 3.4-5.3 8.9-11.8 13.5-7.2 5.5 5.6-4 19.8-8.9 26.2l2.2 4.4c0 .1 18.7-30.4 20-41" clip-rule="evenodd"/><path fill="#66b8b2" fill-rule="evenodd" d="M1292.4 193.5c-1.5 12.1-3.1 23.6-3.1 23.6h48.4l-9.4-47.7-2.2-4.4c4.9-6.5 14.4-20.7 8.9-26.2-4.5-4.6-10.1 1.9-13.5 7.2 0-1.4-.5-2.7-1.2-3.9-2.9-4.5-12.1-7.4-6.3-22.7 0 0-10.8 7.2-21.5 4.5-10.8-2.7-12.7-5.4-16.6-3.6-2.8 1.3-6.8 5.4-8.8 7.6 0 .1 0 .2-.1.3 0 0 0 3.1.3 7.9.6 7.8 1.9 15.5 4.1 23.1 4.6 15.8 8.5 23.4 8.5 23.4 4.4 1.2 8.9 2 13.5 2.2 4.3.3 8.6-.1 12.8-1.1-3.9 3.7-8.3 6.9-13.1 9.6z" clip-rule="evenodd"/><defs><filter id="e" width="47.1" height="8.8" x="1289.5" y="195.1" filterUnits="userSpaceOnUse"><feColorMatrix values="1 0 0 0 0 0 1 0 0 0 0 0 1 0 0 0 0 0 1 0"/></filter></defs><mask id="f" width="47.1" height="8.8" x="1289.5" y="195.1" maskUnits="userSpaceOnUse"><g filter="url(#e)"><path fill="#fff" fill-rule="evenodd" d="M0 868.7h1476V0H0z" clip-rule="evenodd"/></g></mask><path fill="#2e3033" fill-rule="evenodd" d="M1289.5 203.9h47v-8.8h-47z" clip-rule="evenodd" mask="url(#f)"/><defs><filter id="g" width="16.9" height="101" x="1214.4" y="259.7" filterUnits="userSpaceOnUse"><feColorMatrix values="1 0 0 0 0 0 1 0 0 0 0 0 1 0 0 0 0 0 1 0"/></filter></defs><mask id="h" width="16.9" height="101" x="1214.4" y="259.7" maskUnits="userSpaceOnUse"><g filter="url(#g)"><path fill="#fff" fill-rule="evenodd" d="M0 868.7h1476V0H0z" clip-rule="evenodd"/></g></mask><path fill="#a4abb3" fill-rule="evenodd" d="m1231.3 359-.3-92.1c-.2-2.4-.2-4.8 0-7.3l-16.6 84.8.2.2 16.7 16.1z" clip-rule="evenodd" mask="url(#h)"/><defs><filter id="i" width="67.7" height="412.6" x="1246.4" y="424" filterUnits="userSpaceOnUse"><feColorMatrix values="1 0 0 0 0 0 1 0 0 0 0 0 1 0 0 0 0 0 1 0"/></filter></defs><mask id="j" width="67.7" height="412.6" x="1246.4" y="424" maskUnits="userSpaceOnUse"><g filter="url(#i)"><path fill="#fff" fill-rule="evenodd" d="M0 868.7h1476V0H0z" clip-rule="evenodd"/></g></mask><path fill="#053634" fill-rule="evenodd" d="M1278.8 424h-25.6l-6.8 42.8 5.1 168.6 8.1 201.2h44.5c10.5-115.6 15.2-99.2 1.9-184.3-5.5-35.1-.2-68.7 7.4-100.3-8.2-31.1-17.2-61.8-24.8-78.6-7.4-16.8-9.3-39.1-9.8-49.4" clip-rule="evenodd" mask="url(#j)"/><defs><filter id="k" width="129.2" height="412.6" x="1278.8" y="424" filterUnits="userSpaceOnUse"><feColorMatrix values="1 0 0 0 0 0 1 0 0 0 0 0 1 0 0 0 0 0 1 0"/></filter></defs><mask id="l" width="129.2" height="412.6" x="1278.8" y="424" maskUnits="userSpaceOnUse"><g filter="url(#k)"><path fill="#fff" fill-rule="evenodd" d="M0 868.7h1476V0H0z" clip-rule="evenodd"/></g></mask><path fill="#0a4f4b" fill-rule="evenodd" d="M1401.5 836.4c0-160.8 23.6-155.1-18.5-224-5.2-8.4-5.8-20.9-5.4-35.7.2-7.5.4-14.6.6-21.2-1.4.4-2.9.6-4.4.8-2.2.3-4.4.3-6.6.1l3.1-43.8 6.6-24.4s.1-8.7.2-21.9h-44.9l-4.3-42.2h-49.1c.5 10.3 2.3 32.6 9.8 49.3 7.5 16.9 16.6 47.6 24.8 78.6 12.6 47.9 23.3 96.6 23.3 96.6l35.1 188h7.4z" clip-rule="evenodd" mask="url(#l)"/><defs><filter id="m" width="93.1" height="220.8" x="1253.2" y="203.2" filterUnits="userSpaceOnUse"><feColorMatrix values="1 0 0 0 0 0 1 0 0 0 0 0 1 0 0 0 0 0 1 0"/></filter></defs><mask id="n" width="93.1" height="220.8" x="1253.2" y="203.2" maskUnits="userSpaceOnUse"><g filter="url(#m)"><path fill="#fff" fill-rule="evenodd" d="M0 868.7h1476V0H0z" clip-rule="evenodd"/></g></mask><path fill="#43464a" fill-rule="evenodd" d="m1264.2 355.3-11 68.8h74.7l-7.1-70.1c4.2-83.4 25.4-144.9 25.5-145l-10.7-5.7h-45l-25.9 14.3.8-.5z" clip-rule="evenodd" mask="url(#n)"/><defs><filter id="o" width="49.2" height="257.3" x="1320.9" y="208.9" filterUnits="userSpaceOnUse"><feColorMatrix values="1 0 0 0 0 0 1 0 0 0 0 0 1 0 0 0 0 0 1 0"/></filter></defs><mask id="p" width="49.2" height="257.3" x="1320.9" y="208.9" maskUnits="userSpaceOnUse"><g filter="url(#o)"><path fill="#fff" fill-rule="evenodd" d="M0 868.7h1476V0H0z" clip-rule="evenodd"/></g></mask><path fill="#d0d4d8" fill-rule="evenodd" d="M1344.3 439.1c-2.3 0-4.1-1.7-4.1-3.8s1.8-3.8 4.1-3.8 4.1 1.7 4.1 3.8-1.8 3.8-4.1 3.8m0 14.2c-2.3 0-4.1-1.7-4.1-3.8s1.8-3.8 4.1-3.8 4.1 1.7 4.1 3.8-1.8 3.8-4.1 3.8m-16.4-29.3 4.3 42.2h30.2l-5.8-165.3c-2.2-9.7-4.4-19.3-6.3-28.3-4.6-20.8 1.2-50.1 19.6-51h.1l-23.7-12.7c0 .1-21.2 61.7-25.5 145z" clip-rule="evenodd" mask="url(#p)"/><defs><filter id="q" width="21.4" height="165.3" x="1356.6" y="301" filterUnits="userSpaceOnUse"><feColorMatrix values="1 0 0 0 0 0 1 0 0 0 0 0 1 0 0 0 0 0 1 0"/></filter></defs><mask id="r" width="21.4" height="165.3" x="1356.6" y="301" maskUnits="userSpaceOnUse"><g filter="url(#q)"><path fill="#fff" fill-rule="evenodd" d="M0 868.7h1476V0H0z" clip-rule="evenodd"/></g></mask><path fill="#b2b9c0" fill-rule="evenodd" d="m1378 378-3.3.8s-9.3-39.3-18.1-77.8l5.8 165.3h14.7c.2-23.4.5-60.7.9-88.3" clip-rule="evenodd" mask="url(#r)"/><defs><filter id="s" width="38.3" height="249.8" x="1227.3" y="217.1" filterUnits="userSpaceOnUse"><feColorMatrix values="1 0 0 0 0 0 1 0 0 0 0 0 1 0 0 0 0 0 1 0"/></filter></defs><mask id="t" width="38.3" height="249.8" x="1227.3" y="217.1" maskUnits="userSpaceOnUse"><g filter="url(#s)"><path fill="#fff" fill-rule="evenodd" d="M0 868.7h1476V0H0z" clip-rule="evenodd"/></g></mask><path fill="#b2b9c0" fill-rule="evenodd" d="m1253.2 424 11-68.8 1.4-138.2-.8.5-9 4.8c-16.8 9.3-26.4 26.6-24.8 44.6l.3 92.1-.1 1.6-1.2 33-2.7 73.1h19z" clip-rule="evenodd" mask="url(#t)"/><defs><filter id="u" width="8.2" height="7.5" x="1340.2" y="431.6" filterUnits="userSpaceOnUse"><feColorMatrix values="1 0 0 0 0 0 1 0 0 0 0 0 1 0 0 0 0 0 1 0"/></filter></defs><mask id="v" width="8.2" height="7.5" x="1340.2" y="431.6" maskUnits="userSpaceOnUse"><g filter="url(#u)"><path fill="#fff" fill-rule="evenodd" d="M0 868.7h1476V0H0z" clip-rule="evenodd"/></g></mask><path fill="#fff" fill-rule="evenodd" d="M1344.3 431.6c-2.3 0-4.1 1.7-4.1 3.8s1.8 3.8 4.1 3.8 4.1-1.7 4.1-3.8c0-2.2-1.8-3.8-4.1-3.8" clip-rule="evenodd" mask="url(#v)"/><defs><filter id="w" width="8.2" height="7.5" x="1340.2" y="445.7" filterUnits="userSpaceOnUse"><feColorMatrix values="1 0 0 0 0 0 1 0 0 0 0 0 1 0 0 0 0 0 1 0"/></filter></defs><mask id="x" width="8.2" height="7.5" x="1340.2" y="445.7" maskUnits="userSpaceOnUse"><g filter="url(#w)"><path fill="#fff" fill-rule="evenodd" d="M0 868.7h1476V0H0z" clip-rule="evenodd"/></g></mask><path fill="#fff" fill-rule="evenodd" d="M1344.3 445.7c-2.3 0-4.1 1.7-4.1 3.8s1.8 3.8 4.1 3.8 4.1-1.7 4.1-3.8-1.8-3.8-4.1-3.8" clip-rule="evenodd" mask="url(#x)"/><defs><filter id="y" width="53.9" height="150.4" x="1370.3" y="367.4" filterUnits="userSpaceOnUse"><feColorMatrix values="1 0 0 0 0 0 1 0 0 0 0 0 1 0 0 0 0 0 1 0"/></filter></defs><mask id="z" width="53.9" height="150.4" x="1370.3" y="367.4" maskUnits="userSpaceOnUse"><g filter="url(#y)"><path fill="#fff" fill-rule="evenodd" d="M0 868.7h1476V0H0z" clip-rule="evenodd"/></g></mask><path fill="#66b8b2" fill-rule="evenodd" d="M1378 378c-.4 27.6-.7 65-.9 88.3-.1 13.2-.2 21.9-.2 21.9l-6.6 24.4 35.3 5.2s-6.4-26.4-5.8-28.3c9.8-33.6 29.9-89.4 22.9-122.1z" clip-rule="evenodd" mask="url(#z)"/><defs><filter id="A" width="86.8" height="157.1" x="1348.8" y="221.7" filterUnits="userSpaceOnUse"><feColorMatrix values="1 0 0 0 0 0 1 0 0 0 0 0 1 0 0 0 0 0 1 0"/></filter></defs><mask id="B" width="86.8" height="157.1" x="1348.8" y="221.7" maskUnits="userSpaceOnUse"><g filter="url(#A)"><path fill="#fff" fill-rule="evenodd" d="M0 868.7h1476V0H0z" clip-rule="evenodd"/></g></mask><path fill="#eff1f2" fill-rule="evenodd" d="M1369.9 221.7c-18.5.9-24.2 30.2-19.6 51 2 9 4.1 18.6 6.3 28.3 8.7 38.5 18.1 77.8 18.1 77.8l3.3-.8 44.8-10.5 12.9-3-37.1-114.3c-7-19-14.5-27.2-28.5-28.4-.1-.1-.1-.1-.2-.1" clip-rule="evenodd" mask="url(#B)"/><defs><filter id="C" width="38.4" height="44" x="1367.2" y="512.6" filterUnits="userSpaceOnUse"><feColorMatrix values="1 0 0 0 0 0 1 0 0 0 0 0 1 0 0 0 0 0 1 0"/></filter></defs><mask id="D" width="38.4" height="44" x="1367.2" y="512.6" maskUnits="userSpaceOnUse"><g filter="url(#C)"><path fill="#fff" fill-rule="evenodd" d="M0 868.7h1476V0H0z" clip-rule="evenodd"/></g></mask><path fill="#54aba5" fill-rule="evenodd" d="m1370.3 512.6-3.1 43.8c2.2.2 4.4.2 6.6-.1 1.5-.2 3-.4 4.4-.8 6.5-1.6 9.9-4.9 12.9-7.8 5-5 14.6-29.9 14.6-29.9z" clip-rule="evenodd" mask="url(#D)"/><defs><filter id="E" width="726.2" height="400.9" x="352.3" y="129.1" filterUnits="userSpaceOnUse"><feColorMatrix values="1 0 0 0 0 0 1 0 0 0 0 0 1 0 0 0 0 0 1 0"/></filter></defs><mask id="F" width="726.2" height="400.9" x="352.3" y="129.1" maskUnits="userSpaceOnUse"><g filter="url(#E)"><path fill="#fff" fill-rule="evenodd" d="M0 868.7h1476V0H0z" clip-rule="evenodd"/></g></mask><path fill="#eff1f2" fill-rule="evenodd" d="M352.3 530h726.2V129.1H352.3z" clip-rule="evenodd" mask="url(#F)"/><path fill="#d0d4d8" fill-rule="evenodd" d="m953.5 129.1-1.1-36.9-35.6-3.8z" clip-rule="evenodd"/><path fill="#a4abb3" fill-rule="evenodd" d="m953.5 129.1-36.7 73.2 62.8-73.2z" clip-rule="evenodd"/><path fill="#c1c7cc" fill-rule="evenodd" d="M953.5 129.1h26.1l-27.2-36.9z" clip-rule="evenodd"/><path fill="#d0d4d8" fill-rule="evenodd" d="m881.3 92.2-1.1 36.9 36.7-40.7z" clip-rule="evenodd"/><path fill="#a4abb3" fill-rule="evenodd" d="m854 129.1 62.8 73.2-36.7-73.2z" clip-rule="evenodd"/><path fill="#c1c7cc" fill-rule="evenodd" d="M854.1 129.1h26.1l1.1-36.9z" clip-rule="evenodd"/><path fill="#eff1f2" fill-rule="evenodd" d="M880.2 129.1h73.3l-36.7-40.7z" clip-rule="evenodd"/><path fill="#d0d4d8" fill-rule="evenodd" d="m880.2 129.1 36.6 73.2 36.7-73.2z" clip-rule="evenodd"/><path fill="#eff1f2" fill-rule="evenodd" d="M505 624.8h182.8V505.4H505z" clip-rule="evenodd"/><path fill="#a4abb3" fill-rule="evenodd" d="M505 530h182.8v-24.6H505z" clip-rule="evenodd"/><path fill="#fff" fill-rule="evenodd" d="M509.8 517.7c0 4.3 3.4 7.7 7.7 7.7s7.7-3.4 7.7-7.7-3.4-7.7-7.7-7.7-7.7 3.5-7.7 7.7M529.1 517.7c0 4.3 3.4 7.7 7.7 7.7s7.7-3.4 7.7-7.7-3.4-7.7-7.7-7.7-7.7 3.5-7.7 7.7M556.1 525.4c4.3 0 7.7-3.4 7.7-7.7s-3.4-7.7-7.7-7.7-7.7 3.4-7.7 7.7 3.4 7.7 7.7 7.7" clip-rule="evenodd"/><defs><filter id="G" width="100.9" height="27.4" x="514.5" y="541.1" filterUnits="userSpaceOnUse"><feColorMatrix values="1 0 0 0 0 0 1 0 0 0 0 0 1 0 0 0 0 0 1 0"/></filter></defs><mask id="H" width="100.9" height="27.4" x="514.5" y="541.1" maskUnits="userSpaceOnUse"><g filter="url(#G)"><path fill="#fff" fill-rule="evenodd" d="M-194 866.8h1281V-1.9H-194z" clip-rule="evenodd"/></g></mask><path fill="#595e62" fill-rule="evenodd" d="M514.5 568.4h100.9v-27.3H514.5z" clip-rule="evenodd" mask="url(#H)"/><defs><filter id="I" width="100.9" height="38.4" x="514.5" y="577.8" filterUnits="userSpaceOnUse"><feColorMatrix values="1 0 0 0 0 0 1 0 0 0 0 0 1 0 0 0 0 0 1 0"/></filter></defs><mask id="J" width="100.9" height="38.4" x="514.5" y="577.8" maskUnits="userSpaceOnUse"><g filter="url(#I)"><path fill="#fff" fill-rule="evenodd" d="M-194 866.8h1281V-1.9H-194z" clip-rule="evenodd"/></g></mask><path fill="#b2b9c0" fill-rule="evenodd" d="M514.5 616.2h100.9v-38.4H514.5z" clip-rule="evenodd" mask="url(#J)"/><defs><filter id="K" width="48.3" height="48.3" x="627.7" y="550.4" filterUnits="userSpaceOnUse"><feColorMatrix values="1 0 0 0 0 0 1 0 0 0 0 0 1 0 0 0 0 0 1 0"/></filter></defs><mask id="L" width="48.3" height="48.3" x="627.7" y="550.4" maskUnits="userSpaceOnUse"><g filter="url(#K)"><path fill="#fff" fill-rule="evenodd" d="M-194 866.8h1281V-1.9H-194z" clip-rule="evenodd"/></g></mask><path fill="#2e908b" fill-rule="evenodd" d="M627.7 574.5c0 13.3 10.8 24.1 24.1 24.1s24.1-10.8 24.1-24.1-10.8-24.1-24.1-24.1-24.1 10.8-24.1 24.1" clip-rule="evenodd" mask="url(#L)"/><path fill="#419e98" fill-rule="evenodd" d="m1064.5 389.8 37.8 1.4-6.1-11.5-33.8 4z" clip-rule="evenodd"/><path fill="#66b8b2" fill-rule="evenodd" d="M508.9 129.2v241.6h-51.8V198c-16.7 8.7-43.4 13.7-67.5 13.7l-5.3-30.1c37.8-6.4 65.5-18.7 81.2-52.5h43.4z" clip-rule="evenodd"/><path fill="#18837e" fill-rule="evenodd" d="M788.9 586.9c34.3-21.7 43.8-28.6 61.1-43.8 26.2-23.5 39.6-47.1 39.6-70 0-18.5-9.8-29.5-26.8-29.5-16.1 0-25.6 9.5-31.9 32.2l-41.7-10.1c11-39.6 35.1-58.7 75.7-58.7 45 0 72.7 25.6 72.7 66.7 0 27.7-11.9 52.1-36.9 76-12.2 11.9-25.3 21.1-50.9 36.9h90.3v36.6h-151v-36.3z" clip-rule="evenodd"/><path fill="#66b8b2" fill-rule="evenodd" d="M1023.5 94.5c11.9-36.9 38.4-55.7 78.6-55.7 43.5 0 72.7 23.8 72.7 59.3 0 20.9-11 35.4-34 45 26.5 8.9 39.3 25.6 39.3 50.9 0 39.3-31 64.3-80.4 64.3-25.9 0-47.4-6.9-62.8-20-11.9-10.1-18.2-21.1-22.3-39.3l41.4-10.4c6.6 22.9 19.4 33.1 41.7 33.1 21.7 0 34.6-11.3 34.6-30.1 0-18.2-12.5-28.6-34.6-28.6h-19.4v-33.7h18.2c20 0 31.9-10.1 31.9-27.1 0-16.7-10.7-26.8-28-26.8-18.5 0-30.4 9.2-38.7 29.8z" clip-rule="evenodd"/><path fill="#0a4f4b" fill-rule="evenodd" d="M651.7 328.4c.1 45.4 37 82.1 82.4 81.9 45.4-.1 82.1-37 81.9-82.4-.1-45.4-37-82.1-82.4-81.9s-82 37.1-81.9 82.4" clip-rule="evenodd"/><path fill="#fff" fill-rule="evenodd" d="m784.8 328.1-76.6-43.9.3 88.2z" clip-rule="evenodd"/></svg>