<svg xmlns="http://www.w3.org/2000/svg" viewBox="0 0 705.573 571.037"><path fill="none" d="M422.19 77.429c.99 6.084-2.992 15.1-7.312 22.7 4.345-7.618 8.365-16.629 7.312-22.7m-10.899-5.051a6.7 6.7 0 0 1 4.681-1.512 6.5 6.5 0 0 0-4.681 1.512m-9.446-.925-.073-.079a170 170 0 0 1-2.586 12.911c1.277-5.035 2.156-9.563 2.659-12.832M428.4 414.4l.033-.279q-.268-.539-.541-1.073.254.672.508 1.352M344.214 109c1.137 2.894 2.54 4.993 4.232 5.477-1.831-.556-3.236-2.977-4.232-5.477m4.666 5.57a3 3 0 0 1-.374-.071 3 3 0 0 0 .374.071"/><path fill="#419e98" d="M254.5 321.861c-.1.066-.2.139-.3.2a10.3 10.3 0 0 1-5.4 1.6l-5.924.084a10 10 0 0 1-1 .052l-51.478.993c17.434 15.8 54.4 47.832 74.079 51.808 10.1 2 20.5-5.2 24.9-14.5 2.128-4.448 10.426-18.059 10.971-18.951l-28.367-13.2zm-107.774-15.992 18.343 2.785-4.898-11.621zm-.453-.069.08.012-.004-.061z"/><path fill="#1a1c1d" d="m258.6 308.863-1-2.3-42.4-100a10.58 10.58 0 0 0-10-6.5l-5.617.112a10.71 10.71 0 0 1 8.592 6.425l43.4 102.4a10.65 10.65 0 0 1-5.7 14 13 13 0 0 1-1.483.465 10.6 10.6 0 0 1-1.516.282l5.924-.084a10.3 10.3 0 0 0 5.4-1.6c.1-.063.2-.136.3-.2a10.94 10.94 0 0 0 4.1-13"/><path fill="#2e3033" d="m251.573 309-43.4-102.4a10.76 10.76 0 0 0-10.1-6.5l-53.2 1.1h-2.2l-7.1.1a10.5 10.5 0 0 0-3.9.8 10.65 10.65 0 0 0-5.7 14l17.9 42.3 43.3 1.5c0 .03 0 .061.008.091l.292.009a28.62 28.62 0 0 1-12.6 27.4l-14.479 9.486-.021.014-.2.133 4.9 11.621.1.246 4.1 9.6a10.68 10.68 0 0 0 10 6.5h.1l10.6-.2.422-.007 51.478-.993a10 10 0 0 0 1-.052 10.6 10.6 0 0 0 1.516-.282 13 13 0 0 0 1.483-.465A10.65 10.65 0 0 0 251.573 309"/><path fill="#a4abb3" d="M300.573 239.6c-1.166-13.688-2.695-26.993-.5-38.555l-42.434 105.612.96 2.206a11.12 11.12 0 0 1-4.1 13l17.474 8.091 28.367 13.2.329.152 5.522-12.818-.022-.383zm188.001 80.2c-15.294-18.968-30.874-40.3-41.474-60.086l-.062-.114-18.607 154.519-.033.279.076.2c.8 2.2 1.6 4.5 2.3 6.7a.5.5 0 0 1 .017.145l25.583 70.257a816.4 816.4 0 0 0 32.381-171.677z"/><path fill="#e0e2e5" d="M422.6 38.7s0-8.459-13.28-19.377-27.838-3.639-39.938-4.819-25.773-4.819-35.413 0c-8.656 4.328-1.869 16.229-1.181 24.786-3.738 6.591-9.536 21.874 4.137 32.792-.022-.259-.041-.506-.061-.759a89 89 0 0 1-.239-12.361c.1-.688.2-1.279.3-1.869 1.967-3.049 5.41-7.278 10.623-8.655 5.214-1.475 7.28 1.18 20.56 4.82s26.137-6.138 26.137-6.138c-5.09 12.625 2.7 19.055 7.53 24.255l.073.079c-.5 3.269-1.382 7.8-2.659 12.832a134 134 0 0 1-4.772 15.182c-6 15.738-9.958 20.1-19.463 12.222l-21.624.111c-1.654 2.122-3.133 2.924-4.447 2.77a3 3 0 0 1-.374-.071l-.06-.019c-1.692-.484-3.1-2.583-4.232-5.477a41 41 0 0 1-1.609-5.234v-.009s-.029.073-.082.191a50.2 50.2 0 0 0-2.157 12.845c0 6 7.279 14.557 7.279 18.1v10.819h33.84c10.919 0 23.411-7.18 24.2-19.278.1-2.262.1-5.607-.1-9.541-.17-4.171-.488-8.931-.825-13.516-.053-.713-.1-1.422-.158-2.123l-1.481-17.118a35.4 35.4 0 0 1 2.853-5.409 23.1 23.1 0 0 1 5.314-6.353 6.5 6.5 0 0 1 4.681-1.512 7.18 7.18 0 0 1 4.374 2.6 7.7 7.7 0 0 1 1.844 3.964c1.053 6.067-2.967 15.082-7.312 22.7a145 145 0 0 1-4.2 6.875l1.206 6.058.018-.029c.385-.617 20.457-32.852 21.919-56.134.879-11.12-11.221-18.2-11.221-18.2m78.073 166.2c-4.4-8.4-9.4-14.2-15-18l-.1-.1a33 33 0 0 0-4.1-2.3c-7.3-3.4-15.5-3.9-24.6-2.3l-.3.3a28.83 28.83 0 0 0-16 12.811c-8.66 14.531-5.679 35.945-1.5 46.889 2.3 5.8 5 11.5 7.8 17.1.053.1.111.2.165.3l.062.114c10.6 19.784 26.18 41.118 41.474 60.085q.09.113.181.224c18.792 23.3 37.156 42.786 45.009 51.051-.565-20.592 8.283-36.518 33.408-42.775.008 0 .027.028.041.042.054-.013.1-.029.159-.043z"/><path fill="#053634" d="M339.269 481.1q-8.082 4.326-16.8 8.7l8.5 56.7a15.4 15.4 0 0 1 .481 3.023c.281 4.853-2.044 9.049-7.282 11.377l70.8-1.4a62.793 62.793 0 0 0 61.5-64.1l-.1-3.7-25.582-70.251c.014 3.708-33.873 29.398-91.517 59.651"/><path fill="#02201e" d="m330.773 545.9.019.055-8.419-56.155a687 687 0 0 1-64.573 28.291c.026 0 .051 0 .076.009 34.497 4.4 69.797 17.2 72.897 27.8m-40.234-143.314c-20.464-7.924-110.066-42.386-110.265-42.386a42.89 42.89 0 0 0-53.5 28.6 49 49 0 0 0-1.3 5.5c-2.7 16.4 9.6 33.2 20.9 46.4 7.4 8.6 18.89 22.088 31.483 36.879l.117-.079c34.455-23.471 77.787-52.625 112.565-74.914"/><path fill="#0a4f4b" d="M430.79 421.445a.5.5 0 0 0-.017-.145c-.7-2.2-1.5-4.5-2.3-6.7l-.076-.2q-.251-.68-.508-1.352c-14.852-39.059-43.048-64.363-90.854-38.772-.684.366-1.37.738-2.062 1.126-10 5.6-23.8 14.1-39.7 24.2l-4.6 2.9-.134.086c-34.778 22.289-78.11 51.443-112.566 74.914l-.117.079c-32.634 22.173-57.214 39.252-59.059 40.535l-.124.086 19.074 32.684.126.216.3-.1c21.9-3.8 42.7-8.7 62.6-14.2a82.5 82.5 0 0 1-5.4-15.1s9.9-3.9 32.5-5.1a177 177 0 0 1 30 1.4 687 687 0 0 0 64.6-28.3q8.7-4.345 16.8-8.6c57.644-30.254 91.533-55.944 91.522-59.652z"/><path fill="#c1c7cc" d="M421.073 148.9h-59l-45.2 27.3c-9.9 6-14.6 14.2-16.6 23.8-.073.345-.131.7-.2 1.045-2.2 11.562-.669 24.867.5 38.555l5.6 90.5.022.383.478 8.017-11.3 60.9c15.9-10.1 29.7-18.6 39.7-24.2q.988-.477 1.963-.926c47.806-25.591 76-.287 90.854 38.772.141.372.353.991.508 1.352l18.64-154.8c-.054-.1-.112-.2-.165-.3-2.8-5.6-5.5-11.3-7.8-17.1-4.176-10.944-7.157-32.358 1.5-46.889a29.07 29.07 0 0 1 16.1-13.011l.3-.3c9.1-1.6 17.3-1.1 24.7 2.3zm-302.4 369.3.124-.086-.124-.214-113.2 10s14.4 34.1 44.7 34.1h67.9l19.674-11.116zm212.301 28.3c-.09-.181-.106-.362-.181-.542l-.019-.055c-3.1-10.6-38.4-23.4-72.9-27.8-.025 0-.05-.006-.076-.009a177 177 0 0 0-29.924-1.391c-22.6 1.2-32.5 5-32.4 5.1a100.4 100.4 0 0 0 5.4 15.1c4.8 10.4 13.1 22.9 25.7 25.7l88 .3a28.4 28.4 0 0 0 9.5-2c5.32-2.328 7.66-6.524 7.381-11.377a15.4 15.4 0 0 0-.481-3.026"/><g fill="#66b8b2"><path d="M394.414 99.467a134 134 0 0 0 4.772-15.182 170 170 0 0 0 2.586-12.911c-4.827-5.2-12.62-11.63-7.53-24.255 0 0-12.858 9.777-26.137 6.138s-15.346-6.295-20.56-4.82c-5.213 1.377-8.656 5.606-10.623 8.655-.1.59-.2 1.181-.3 1.869a89 89 0 0 0 .239 12.361 166.6 166.6 0 0 0 4.866 28.378c.3 1 .349 2.035.649 3.035 0-.015.078.385.229 1.034a41 41 0 0 0 1.609 5.231c1 2.5 2.4 4.918 4.232 5.477q.03.01.06.019a3 3 0 0 0 .374.071c1.314.154 2.793-.648 4.447-2.77l21.624-.111c9.505 7.877 13.462 3.519 19.463-12.219"/><path d="M422.19 77.429a7.7 7.7 0 0 0-1.844-3.964 7.18 7.18 0 0 0-4.374-2.6 6.7 6.7 0 0 0-4.681 1.512 23.1 23.1 0 0 0-5.314 6.353 35.4 35.4 0 0 0-2.853 5.409l1.476 17.115c.053.7.1 1.41.158 2.123.337 4.585.655 9.345.825 13.516.2 3.934.2 7.279.1 9.541-.788 12.1-13.28 19.278-24.2 19.278h-13.334q-.183 1.6-.367 3.188h50.687l-6.569-35.871-.018.029-1.209-6.058a137 137 0 0 0 4.2-6.875c4.327-7.595 8.307-16.612 7.317-22.696M187.181 259.991l-43.008-1.391h-1.1l3.276 47.151v.061l.02.288.353-.231 13.445-8.836.2-.133.021-.014 14.479-9.486a28.62 28.62 0 0 0 12.6-27.4zM663.973 501.6l-35.4-7.8c-13.691-37.7-59.659-163.669-61.359-165.458-.014-.014-.033-.043-.041-.042-25.125 6.257-33.973 22.183-33.408 42.775 0 .142 0 .283.008.426 1.6 39.9 39 97.1 63.1 135.2a27.02 27.02 0 0 0 5.6 17.4 23.1 23.1 0 0 0 6.819 6.348l2.081 2.152 39.2 19.3 8.4-5.2L648 536.507l29.171 4.292a32.4 32.4 0 0 0 22.7-5l5.7-3.8S694.373 512.7 663.973 501.6"/></g></svg>