<svg xmlns="http://www.w3.org/2000/svg" viewBox="0 0 1920 1191"><g data-name="Ebene_1"><path fill="#2e3033" d="M0 0h1920v1191H0z"/><path fill="#595e62" d="M1850.32 1116.354H37.22l378.3-266.4 1127.9-2.5 306.8 268.9z"/><path fill="#2e3033" d="m1566.4 1099.3-5.7-7.1c-1.2-1.5-1.1-3.5.2-4.9l13.6 2.5 10.9-2.3s5.9 5.7 8.8 8.2l-4.1 3.5h-23.9z"/><path fill="#43464a" d="M1515.5 1057.2c9.8-13.2 15-21.6 15-21.6l-.3-.2s-.1 0-.2-.2l-36.8-17.3-5.7 19.6s23.9 25.2 28 19.6z"/><path fill="#2e3033" d="m1571.1 1027.5-22.5 10.5c-.4.1-11.6-2.3-12-2.4l-23.9 2.4c-24.8-6.3-56.9-6.2-71.8 14.6-.7.9-.4 2.2.5 2.9.3.2.7.4 1.2.4h7l75.5 11v18.8l105.2-14.1s-44.2-49.4-59.1-44z"/><path fill="#43464a" d="M1544.9 1065.6c3.9-4.4 3.5-11.1-.9-15-.7-.6-1.4-1.1-2.2-1.5-14.6-7.6-52.7 5.5-52.7 5.5-3.3 5.3-1.8 12.3 3.5 15.6h.1l24.7 5 21-2.5 6.4-7.3zm-65.3-9.8-31.2-12.3-14.2 6.7 11.2 12.3 29.4-.5zm91.6 47 5.9-2.1-.2-4.9-19.1-1.4-12.1 5.1 1.8 3.2h23.7zm14.4-58.7c2.3 11.9 2.1 8.4 2.1 8.4h.4l27.7-11.3-6.4-7.3c-3.1-3.5-8.2-4.1-12.1-1.6-5.5 3.7-12.3 8.8-11.7 11.8"/><path fill="#2e3033" d="M1471.3 1073.1s-.9-12.7 5.3-14.7c10.4-3.3 34.6 14.1 34.6 14.1s-39.9 1.9-39.9.7zm174.1-28.3c-2.8.2-5.5 0-8.2-.8-3.5-1-7.3.5-9.2 3.6l-9-10.7-14.5 3.6-14.2 6.4-12.6 21 113.5-.8-7.3-13.2c-2.5-4.5-7.9-6.6-12.8-4.9l-7.4 2.6c-4.7-3.9-12.3-7.8-18.2-6.8z"/><path fill="#43464a" d="m1625.8 1077-5.9-11.4-12.9 11.6s19 1.1 18.8-.2m-40.7 5.4h-40.7c0-.1 18.6-16 18.6-16l33.9-5.7-2 8.6-9.9 13.1zm69-11 3.8-4.8-7-2.4c-4.5-1.6-9.4 0-12.2 3.9l-3 4.2z"/><path fill="#002742" d="M1393.5 688.4c1.9 1 3.6 2.3 4.9 4 1.8 2.7 1.9 6.2 1.8 9.4-.4 23.3-.8 46.6-3.7 69.7-1.1 8.9-2.6 17.7-3.2 26.7-.5 7.4-.4 14.9-.2 22.3l.5 25.9.7 38.4.5 27.6c0 1.7 6.1 12.5 6.1 12.5V945c-.1 0 2.9 15 5.9 19.8-13 8.5-51.7-15.3-51.7-15.3l-8.5-16.1s2-13.3 1.6-21.1c-1.1-19.8 1-22.8-1-42.5-1.4-14.3-16.4-78.8-18.9-86-1.2-3.4-.7-7.2-.2-10.8l8.3-63.8c.9-7.1 1.9-14.4 5-20.9 11.6-24.8 35.2-10.2 52.2 0z"/><path fill="#003e64" d="M1258 859.5c-.6 5.6-6.2 30.2-7.6 48.1-1.1 13.9-1 24.3-1 24.3l-7.8 23.4s3.59 14.731 3.79 18.031c33-9.6 40.01-5.531 54.21-7.131-1.6-6.8 4.8-27 4.8-27l3.7-11.1s-.1-9.5 3.4-17.5c8.8-19.9 4.5-17.3 7.3-38.9 1.7-12.5 2.3-25.2 4.9-37.6 2.6-12.5 7.1-24.6 11.1-36.8 12-37.2 18.8-75.8 20.1-114.9.1-4 .2-8.3-1.6-11.9-3-6.2-10.1-9.1-16.6-11.2-10-3.3-20.1-6.1-30.3-8.5-6.2-1.5-20.4-7.3-25.5-2.8s-4.7 20.7-4.9 27c-.2 4.5-6.2 42.1-10.8 82.1-5.5 47.1-6.7 97.2-7.3 102.4z"/><path fill="#43464a" d="m1244.5 973.5 42.3-12.5 12.2 29.1-24.3 7.9-36 2.1z"/><path fill="#43464a" d="m1271.5 959.5 31.6-2.8-6.8 29.9-24.3 7.9-.4-35z"/><path fill="#43464a" d="M1295.3 1037.7c8.5 2.9 40.3 2.4 43.4-2.7 3.5-5.7 0-13.6-5.2-17.4s-11.6-5.1-17.1-8.3c-5.9-3.4-14.6-12.6-17.4-19.2-21.5 6.5-38.3 2.6-59.8 9.1-1.9.6-1.1 21.4.9 24.2 2.6 3.7 10.4 3.9 14.3 4.8 5.3 1.2 12.8-2.4 19.3-.9 8.1 1.8 15.1 8.1 21.6 10.3z"/><path fill="#2e3033" d="M1338.3 1023.2c-2.7-2.3-12.4 1.3-12.8 9.3-8.7 2.8-17.8 4-26.9 3.4-8.2-.6-18.8-10.6-28.8-10.5-15.1 0-28.3-3.4-31.4-11.2-3.1 1.8 0 11.3 1.9 13.8 1.2 1.2 2.6 2.2 4.2 2.8l3.8 1.3c.8.2 1.5.4 2.3.6l3.9.6h2.3l3.8-.5c2-.3 4.1-.5 6.2-.5 7.1 0 10.3 3.7 15.3 6.9l2.9 1.7c.6.3 1.1.6 1.7.8l3.7 1.2c.6.2 1.2.3 1.9.4l4.2.6h2.1c0 .1 4.2.2 4.2.2h5.7c0-.1 1.5-.2 1.5-.2l3.7-.3c.7 0 1.4-.1 2.1-.2l3.7-.5 1.6-.2 4-.7c6.3-1.3 10.9-3 12.2-4.4 3.7-4.1 3.7-12 1-14.3z"/><path fill="#c1c7cc" d="m1270.5 988.3 26.6-5.8-.4 2.3-24.6 5.5zm5.3 6.6 23.2-4.8.9 1.8-22.5 5.1-1.6-2zm5.7 7.2 20.2-7.4 1.4 1.8-20.1 7.5zm4.8 6.1 19.7-7.9 1.6 1.7-19.8 8.1zm4.4 5.6 20.3-8.6 1.7 1.4-20.7 8.8z"/><path fill="#43464a" d="m1350.8 944.5 42.3-12.5 12.2 29.1-24.3 7.9-36 2.1 5.7-26.6z"/><path fill="#43464a" d="m1377.8 930.5 31.6-2.8-6.8 29.9-24.3 7.9z"/><path fill="#43464a" d="M1401.6 1008.7c8.5 2.9 40.3 2.4 43.4-2.7 3.5-5.7 0-13.6-5.2-17.4s-11.6-5.2-17.1-8.3c-5.9-3.4-14.6-12.6-17.4-19.2-21.5 6.5-38.3 2.6-59.8 9.1-1.9.6-1.1 21.4.9 24.2 2.6 3.7 10.4 3.9 14.3 4.8 5.3 1.2 12.8-2.4 19.3-.9 8.1 1.8 15.1 8.1 21.6 10.3z"/><path fill="#2e3033" d="M1444.6 994.2c-2.7-2.3-12.4 1.3-12.8 9.3-8.7 2.9-17.8 4-26.9 3.4-8.2-.7-18.8-10.6-28.8-10.5-15.1 0-28.3-3.4-31.4-11.2-3 1.8 0 11.3 1.9 13.8 1.2 1.2 2.6 2.2 4.2 2.8l3.8 1.3c.8.2 1.5.4 2.3.5l3.9.6h2.3l3.8-.5c2-.3 4.1-.5 6.2-.5 7.1 0 10.3 3.7 15.3 6.9l2.9 1.7c.6.3 1.1.5 1.7.8l3.7 1.2c.6.2 1.2.3 1.9.5l4.2.6c.7 0 1.3 0 2 .1h4.2c0 .1 1.5.1 1.5.1h4.2l1.5-.2 3.7-.3 2.1-.2 3.7-.5 1.5-.2 4-.7c6.3-1.3 10.9-3 12.2-4.4 3.6-4 3.6-12 .9-14.3z"/><path fill="#c1c7cc" d="m1376.8 959.3 26.6-5.8-.4 2.3-24.6 5.5zm5.3 6.6 23.2-4.8.9 1.8-22.5 5.1-1.6-2zm5.7 7.2 20.2-7.4 1.4 1.8-20.1 7.5zm4.8 6.1 19.7-7.9 1.6 1.7-19.8 8.1zm4.4 5.6 20.3-8.6 1.7 1.4-20.7 8.8z"/><path fill="#eff1f2" d="m1413.5 684.3-6 6.7c-1.3 0-2.6-.5-3.8-1.1-2.4-1.2 11.7-22.3 11.7-22.3l-1.9 16.8z"/><path fill="#c1c7cc" d="M1337.5 472c5.3 1.4 10.7 1.9 16.1 1.5.4 4.1.9 8.5 1.3 12.7-5.7-3.8-12.6-8.6-17.4-14.2"/><path fill="#c1c7cc" d="M1354.8 484.9c1.5 12.6 3 24.7 3 24.7h-50.5l10.7-56.1 1-2.5c-3.9-4.8-15.2-19.5-8.9-26.1 4.7-4.9 11.5-10.7 15.5-4.7-4.8-13.2 0 .5 0 0 .9-4.7 1.4-9.5 1.5-14.3 0 0 15.6 0 32.9-1s15.3 14.4 20.9 12.6c-.3 7.1-1.2 14.2-2.5 21.1-.5 2.7-1.2 5.5-2 8.3-4.8 17.1-8.9 25.3-8.9 25.3-4.6 1.3-9.3 2.1-14 2.4-4.6.3-9.3-.1-13.8-1.2 4.4 4.5 9.5 8.5 15 11.6z"/><path fill="#8a9097" d="m1311.8 680.4-10.6-143.8-8.7-31.9-14.6-8 35.044-16.693 34.247 21.587 8.01-19.094 36.2 18.8c17.1 8.5 27.4 23.7 27.2 39.9 0 1.1 0 2.2-.2 3.3l-19 57.2-5.7 33.3s-.4 41.1 4.1 53.9c1.4 3.9 2.9 8.1 2.9 8.1h-34.1l-54.9-16.6z"/><path fill="#595e62" d="M1304.1 697h-31.5l-2.3-79.4-17.1-106.5 3.7-4.1 28.8 26.5L1304 697z"/><path fill="#eff1f2" d="M1318.2 538.7h27.4v7.3h-27.4z"/><path fill="#003e64" d="M1355.1 568.1c-5.8-28.7-12.7-67.8-35-85.8-3.5-2.9-7.5-5.9-7.5-5.9s-43.9 22.5-36.4 21.4c5.4-.8 13 11.5 15.7 18.1l-16.3 31s3.2 49.6-6.1 56c-1.1.6-2 1.5-2.5 2.6-.3.9-.4 1.9-.3 2.9.6 21 1.1 41.9 1.7 62.9 9-1 13.6 13.2 22.1 16.5 20.9 8.3 49.6 8.2 71.9 9.3.8-11.4 7.2-23 7.6-34.5s-3.8-23.8-3.8-35.4c0-18.2-11.1-59.1-11.1-59.1"/><path fill="#003e64" d="M1350.9 509.8c-.2 8 1 16.7 1.7 24.7 1.8 21.7 10 42.8 13.5 64.3 2.4 15 .3 31.6.4 46.7 0 16.6 2.2 31.9 2.3 48.5l33.8-5.9c-10-17.3-4-37.4-.8-56.3 1.8-10.9 2.6-21.9 3.3-32.8l2.1-30 1.7-23.6c.8-12.1 1.7-24.3-1.9-36.1-.6-2.1-1.6-4.4-3.8-5.6-1.9-1-48.1-23.1-48.6-22.4 0 0-3.4 22.6-3.6 28.6z"/><path fill="#c1c7cc" d="M1305.8 415c-.3-8.3 11.9-14.4 11.9-14.4s.5-6.3 10.9-13.6 20.8-2.6 29.8-1.4c19.3 2.6 26 15.1 25.6 21.5v1.1c.4 6.3-3.6 13.8-3.6 13.8.3-.7.2-1.4-.2-2-1.7-2.3-5-6.7-7.5-8.2-3.4-2.1-5.4.5-15.5 2.5s-19.3-5.9-19.3-5.9c4.2 15.6-4.4 17.9-7.4 22.2-.8 1.1-1.2 2.4-1.4 3.8-2.7-5.5-7.3-12.3-11.8-8.1-5.5 5.1 2.2 19.9 6.2 26.7l-2.4 4.2s-14.8-31.6-15.2-42.2z"/><path fill="#002742" d="M1272.6 696.8h18.3l-1.7-59.5 4.7-96.3-2.4-5.1-.6-.9-14.8-37.3-11.5 85.8 7.9 113.3z"/><path fill="#eff1f2" d="m1309.9 690.5 7.5 5.3a9.4 9.4 0 0 0 3.5-2c2.2-1.7-16.2-19.4-16.2-19.4l5.1 16.1z"/><path fill="#a4abb3" d="M1406.8 509.3c1.2.3 47.9 82.6 47.9 93.8 0 30.4-11.3 69.5-11.3 69.5 0 .3-30.7-3.8-30.6-3.3.1-4.1 2.5-60.6 2.5-60.6l-9.7-15.2s-1.1-84.8 1.2-84.2M1293.9 541c4.4-23.1-7-42.4-16-44.3-2.6-.6-18.4 1-24.7 14.5-.6 1.3-30.6 94.6-30.6 106.9 0 5 0 10.1 1.4 14.8 2 7.1 6.8 12.5 11.7 17.5 20.8 21.4 30.8 25.4 43.7 42.4 0 .3 19.5-15.9 27-21.4-4.4-5-42-54.6-42-54.6l29.6-75.7z"/><path fill="#ed0007" d="M1374.5 552.1v-5.2h22.7v5.2z"/><circle cx="1366.9" cy="549.3" r="3.8" fill="#c1c7cc"/><path fill="#005587" d="m1306 830.4-46-1.1c-12.5-26.3.2-62.5 6.7-76.9l46.8 3.5s1.6 43.1-7.4 74.4z"/><path fill="#003e64" d="m1305.4 775.2-47.8-3.5 9-19.3 47.8 3.5z"/><path fill="#595e62" d="M1314.8 415.5s32.8 11.4 46.9 10.8c8.9-.9 20.3-5.8 20.3-5.8s-2.5 11.6-4 15.1c-1.8 4.5-8.9 7.7-11.8 7s-.9-6.8-4.2-6.8-3 4-7.6 7-21.1-7.6-22.3-9-2.8-7.4-2.8-7.4l-14.8-7.8.3-3.2z"/><path fill="#003e64" d="M1361.8 429c7-.5 16-3.1 19.3-4.1l1-4.4s-11.4 3.5-20.3 4.2c-14.1.5-46.9-8.6-46.9-8.6l-.2 2.8 11.4 4.6c10.8 2.6 26.9 5.9 35.7 5.5"/><path fill="#43464a" d="M1344.3 457h29.4l-3.6-5.3h-19.2z"/><path fill="#c1c7cc" d="m1273.1 693.4.5 11.2 55-.2-9.8-11.5-45.6.5z"/><path fill="#c1c7cc" d="m1451.8 697.8-.5-11.2-35.1.8-.3-2.8-16.8.2-.8-38.8-18.2-.5-.2-2.5-40.6 1.5.3 3-21.4 2s2.9 18.5 5.5 38.2h-.5c0 .1-3.6.3-3.6.3s-9.8.5-14.2.7l.4 3.5 1.2 11.4 1 10.8 18.9-.9c.8 6.2 1.5 14.1 2.3 20.3l7.8 1.3 7.5 11.7 2.8 90.8 8.4-.3c.7 8.7 2.7 50.8 3 55.4 1.8-.1 7.9-.1 7.9-.1l5.2 140.4h8.1l-4.5-140.5h7.4c0-.1-3.3-55.9-3.3-55.9l9-.3-4.7-91.3 6.7-12.9 6.7-2 3.1-19.3 16.4-.5-.3-11.8s35.5-.8 35.7-.8z"/><path fill="#595e62" d="m1355.6 837.5 23.9-.9 3.3 55.9-24.3.5-2.9-55.4z"/><path fill="#c1c7cc" d="m1441.5 686.1.3 11.2-38 1.5v-11.3l37.7-1.3z"/><path fill="#005587" d="M1331.614 648.201 1335.5 687l1.9 26.3-30.1 1.3-2.6-25.8 17.755-1.121-5.114-38.24zM1398.4 646l-15.78-.483 2.78 39.283 1.6 26.5 28.4-.8-1-25.8-15.3.1-.7-38.7z"/><path fill="#595e62" d="m1323.1 649 13.9-1.3-.2-3.2 43.2-1.5.2 2.5 10.891.292.509 17.108-7.3.6 1.1 21.2-49.9 2.3-2.1-21.3-8 .6-2.2-17.3z"/><path fill="#eff1f2" d="m1344.4 746.9 39.2-1.8 4.7 91.3-41.2 1.3-2.8-90.8z"/><circle cx="1346.9" cy="699.2" r="4" fill="#595e62"/><path fill="#ed0007" d="m1354.8 695.9 24.4-1.5.3 5.7-24.4 1.5z"/><path fill="#eff1f2" d="m1408.4 702 34.4.4-2.9-32.6-27.1-3.5z"/><path fill="#eff1f2" d="m1412.3 671.8 28.8 11.5 10.7-27-44.1-2.4zm-92 33.3-35.1 11.6-7.3-31.1 25.8-14.2 16.5 33.7z"/><path fill="#eff1f2" d="m1309.6 679.9-28.2 19.5-14-14.9 37.9-22.6z"/><path fill="none" stroke="#2e3033" stroke-linecap="round" stroke-miterlimit="10" stroke-width="2" d="M1328.1 724.2s-18.6-1.2-21.5 31.7c-7.4 84.1-55.1 190.1-103.6 227-48.7 37.1-134.6-11.3-58.1-50.2 64.2-32.7 2.9-69-28.2-84.5"/><path fill="#003e64" d="M1369.2 381.4c3.1 2.7 10.3 10.4 12.5 17.5.2.7.7 1.2 1.3 1.4.7.2 1.4 0 1.8-.6.6-.9.8-2 .5-3-2.4-9.2-9.5-16.6-14.3-19.2-1.1-.4-2.3-.1-3.1.7-.6.8.2 2 1.4 3zm14 35.3s-42 7.3-79.6 1c0 0 34.2 13.9 43.1 15.6 11.2 2.2 31.3 3 40.1-1.1 6.8-3.2 11.3-8.4-3.1-17.7-.4-.2-.5 2.1-.5 2.1z"/><path fill="#005587" d="m1303.5 417.8 27.3 3.8c40 7.6 52.3-4.8 52.3-4.8 4.9-22.8-8.8-32.7-12.5-36.1-9.2-8.3-22.3-9.8-22.3-9.8-16.4-3.2-27.7 4.7-27.7 4.7-20.8 14.5-17.1 42.3-17.1 42.3z"/><path fill="#003e64" d="M1327.1 372.5s37 12.1 35.5 50.9c.4 2.9 8.2-1 8.2-1 4.1-28.6-19.6-47.7-33.4-52.4-10.1-3.4-10.3 2.5-10.3 2.5m-5.3 20.2c4.8 3.5 13.2 10.8 15.9 20.2.2.9.9 1.6 1.8 2s2 .2 2.7-.5c1.1-1 1.4-2.5.9-3.9-4.6-12-11.9-20.3-18.4-22.5h-.1c-3.2-1.1-5.3 2.8-2.7 4.7z"/><path fill="#002742" d="m1307.1 428.4 1.5-9.5c.7-4.2 2.1-5.5 6-5.9 3.5-.4 6.6-.2 9.2 2.7s3.4 7.3 3.7 11.3q.75 10.95 0 21.9c0 1.7-.2 3.6-1.3 4.9-1.4 1.7-3.9 1.8-6.1 1.9-2.7 0-5.5 0-8-.9-4.2-1.7-6.8-6.1-7.1-10.6 0-2 .1-3.9.5-5.9.5-2.9 1.8-6.7 1.6-9.5-.2-2.6-2.5-5.5-3.4-8-2.4-6-2.9-12.6-1.4-18.9 2.3-9 9.6-16.7 18.9-17.2.4.5.4 1.2 0 1.7-3 3.2-4.9 7.2-5.5 11.6-.2 1.5-.3 3.4-1.6 4.2-1.7 1.1-4.1-.3-4.9-2.2s-.7-4-1.2-6c-5.6 7.9-5.1 19.5.6 27.5"/><path fill="#c1c7cc" d="m1408.4 701.9-4.6 9.2s13.7.2 15 .2c7.5 0 24-8.9 24-8.9zm-88.1 3.2 5 9.5s-13 4.6-14.3 5c-7.2 2.3-25.8-3-25.8-3l35-11.5z"/><path fill="#8a9097" d="M1459.3 1018.1c-.6-.2-1.3-.2-1.9 0l-14 5.8c-.2 0-.4.2-.7.2l-15.2 2.2c-.5 0-1 .3-1.4.6l-6.6 5.6 2.7-.7h.2l19-3.7c.9-.2-1 .8 0 .6l17.8-5.4c1.5-.4 2.4-1.9 2-3.4-.2-.9-.9-1.6-1.8-1.9zm-26.2-48.4-4.7.5c-.8 0-1.5.7-1.7 1.4l-3 9.6c-.3 1.1.3 2.2 1.3 2.5.8.2 1.7 0 2.2-.7l7.8-10.2c.7-.9.5-2.1-.4-2.8-.4-.3-.9-.4-1.5-.4zm32.8 5.7-4.3 1.3c-.8.3-1.5.8-1.9 1.5l-1.8 2.8c-1.1 1.6-.6 3.8 1 4.9 1.2.8 2.7.7 3.9 0l6.2-4.2c1.6-1.1 2-3.3.9-4.9-.9-1.3-2.5-1.8-3.9-1.4zm-28.4 29.9-1.8.7c-.3.1-.6.3-.8.6l-.8 1.2c-.9 1.3.5 2.7 1.8 1.8l2.6-1.9c1.4-1 .6-3-1-2.4m17.1-36.6 5-5c1.1-1.1 1.2-3 .1-4.2l-2.2-2.4c-1.1-1.2-3-1.4-4.2-.3-.2.2-.5.5-.6.8l-4.7 8.2c-.9 1.4-.4 3.3 1 4.1.9.5 1.9.6 2.9.2l1.9-.8.9-.6zm-55.1 60.6 3.2-5.2c.1-.2.2-.3.2-.5l.2-2.7c.1-.6-.2-1.1-.8-1.2s-1.1.2-1.2.8l-6.3 10.2c-.4.4-.3 1.1.1 1.4.4.4 1.1.3 1.4-.1l2.8-2.4s.2-.2.2-.3zm5.5 5.3 5.7-1.9c.2 0 .3-.1.5-.2l1.8-1.5c.7-.6-.2-1.3-1.3-.9 0 0-11.9 5.1-10.6 5l3.7-.4h.4zm14.4-25.6 4.8-3.9c.1-.1.3-.3.3-.5l1.1-2.7c.3-.6 0-1.3-.6-1.6-.4-.2-.8-.1-1.2.1 0 0-9.4 10.3-8.2 9.9l3.5-1.2c.1 0 .2-.1.3-.2zm43.4-12.6h4.2c2 .1 3.6 1.8 3.6 3.9 0 .8-.3 1.7-.9 2.3l-6.7 7.9c-.7.8-1.8 1.3-2.9 1.3l-7.3-.2c-2 0-3.6-1.7-3.6-3.8 0-1.1.5-2.1 1.4-2.8l9.7-7.8c.7-.5 1.5-.8 2.4-.8zm-58.2 7 2.9-6.5c.7-1.4 2.4-2.1 3.8-1.4.2 0 .4.2.5.3l2.5 1.8c1.3.9 1.5 2.8.6 4-.1.2-.3.3-.5.5l-5.4 4.6c-1.2 1-3 .9-4.1-.3-.7-.9-.9-2.1-.4-3.1zm38-7-6-1.5c-1.2-.3-2.5-.4-3.8-.2-1.9.4-3.9-1-2.4-2.6l7.6-8.4c.5-.6 1.3-.8 2-.7l3.3.6c.9.2 1.8 2.4 2.2 4.8.5 3 .3 7.7-2.8 8zm-13.2 21-3.6-2.9c-.3-.2-.7-.3-1-.2l-12.8 3.7c-.2 0-.4.2-.6.4l-3.4 4.2c-.4.5-.3 1.2.2 1.6.2.2.5.3.8.2l6.9-.6c.3 0 .5-.1.7-.3l3.4-3.4c.2-.2.5-.3.7-.3l8-.5c.6 0 1.1-.6 1.1-1.2 0-.3-.2-.6-.4-.8zm-150.7-4.5 11.6 3.2c3.1.9 6.3 1.4 9.5 1.5l7.9.3c2.8 0 5.4.9 7.8 2.4l4.4 2.9-2.9-.4-19.9-1.6c-1-.1 1.1.7.1.6l-17.9-3.2c-1.6-.3-2.7-1.9-2.4-3.5.2-1 .8-1.8 1.7-2.2zm21.6-50.2 6.1-.9c.8-.1 1.6.3 2 1l10.1 15.1c.6.9.4 2.2-.5 2.8q-.45.3-.9.3s-4.7.6-4.6.5c-2.5-3.1-5.4-6.1-8-8.8h-.1c0-.1-5.4-6.8-5.4-6.8-.7-.8-.6-2.1.2-2.8.3-.3.7-.4 1.1-.5zm-35.9 9.7 6.7 1.3c.7.1 1.4.5 1.8 1.1l3.2 3.8c1.1 1.3 1 3.3-.3 4.5-1 .8-2.4 1-3.5.4l-9.9-5c-1.6-.7-2.4-2.5-1.7-4.1.6-1.4 2.2-2.2 3.7-1.8zm12.7-7.3-5.2-3.9c-1.5-1.2-1.8-3.4-.7-4.9l1.3-1.7c1.2-1.5 3.4-1.8 4.9-.6.2.2.5.4.6.6l4.5 5.9c1.2 1.5.9 3.7-.6 4.9-.9.7-2.1.9-3.1.6l-.7-.2c-.4-.1-.8-.3-1.1-.6zm-5.8 27.7c-2.9.4-5.1 3-4.7 6 .2 1.3.8 2.5 1.7 3.4l4.1 3.7c1.2 1 2.7 1.5 4.3 1.3l1.7-.2c2.9-.4 5.1-3 4.7-6-.2-1.6-1.1-3.1-2.6-4l-5.8-3.5c-1-.6-2.2-.9-3.4-.7m-15.4-2.1c1.6.7 3.4.3 4.5-1.1 1.2-1.7.4-3.7-2.5-5.1l-5.6-2.4h-.3c-2.3-.9-4.8.2-5.7 2.4-.2.8 0 1.6.4 2.2.9 1.4 2.5 2.3 4.2 2.4 1.7.3 3.4.7 5 1.5zm79.3 7.7-7.6-12.2c-.5-.7-1.4-1-2.1-.5 0 0-.1 0-.2.2l-4.8 4.2c-.7.6-.7 1.5-.2 2.2l.3.3 12.4 8c.7.4 1.7.2 2.2-.5.3-.5.3-1.1 0-1.6zm-22.5-3.8-4.6-3.4c-1.4-1-3.2-.6-4.2.7-.2.3-.4.7-.5 1.2-.2.9.4 1.8 1.3 1.9l7.2 1.2c.5 0 1-.3 1-.7 0-.3 0-.7-.4-.9zm-19.2-10.9 2.8 1.5c1.5.7 3.3 0 4-1.4.5-1.2.3-2.6-.7-3.5l-2.5-2.1c-.8-.7-2-1-3.1-.7-1.8.5-2.8 2.3-2.3 4.1.2.9.8 1.6 1.6 2zm38.9 34.3 31.2 6.8-26.7-12.6-4.6 5.8zm-26.8-14.6c.6-.5 1.4-.8 2.2-.7l9.7 1.6c2.3.4 4.4 1.4 6.1 3.1l3.5 3.4-10.2.2-4.5-3.4-4.8.2c-1.4 0-2.6-1-2.7-2.4 0-.7.3-1.5.8-2z"/><path fill="#c1c7cc" d="M235.4 895.5h927.8v29.3H235.4zm0-221.8h927.8v16.7H235.4zm3.2-456.4h927.8V234H238.6z"/><path fill="#c1c7cc" d="m258.9 470.3 885.9 446.9 6.9-12.9-885.9-446.9zm878-457.4L251 459.8l-6.9-12.9L1130 0z"/><path fill="#c1c7cc" d="M235.4 439.2h927.8v29.3H235.4z"/><path fill="#c1c7cc" d="M1119.6 1012.4V0h29.3v1012.4zm-875.5 0V0h29.3v1012.4z"/><path fill="#8a9097" d="M869.4 1052.4V322.3h16.7v730.1zm194.6-.1V322.2h16.7v730.1z"/><path fill="#8a9097" d="M877.7 945.3h194.6V962H877.7zm2.8-112h194.6V850H880.5zm0-112h194.6V738H880.5zm0-112h194.6V626H880.5zm-2.8-112h194.6V514H877.7zm0-112h194.6V402H877.7z"/><path fill="#2e3033" d="M600 968.6c1.391-3.773 6.252-22.622-7.9-24 0 0-9.3 2-10.7 2.2s-3 1.9-3 1.9l-11.6.8s-5.3 3.1-7.8 4.5c-1.6 1-2.5 2.7-2.5 4.5l-1.9.6v4.9l2.4.4c.2 2.1 2.7 3.8 2.7 3.8l9.4 3.5 11.4-.9c2.9 1 5.9 1.6 9 1.7.4 0 9.3-.1 10.6-3.8z"/><path fill="#005587" d="M643.2 1047.1c-1.3-2.3-8.3-6.4-8.3-6.4v-1.5c.2-.6 1.1-1.6 1.2-2.2.4-1.4 0-3.2 0-5.7s-3.9-4-3.9-4c-1.2-1.7-2.2-3.5-3.1-5.4-.6-1.8-1.7-13.5-2.1-17s-1.4-11.5-1.8-15.4c-.2-1.8-.1-3.2.9-7.3.7-3.1 2.9-5.7 5.9-6.8 1.2-.5 2-.7 4.8-1.6s3.8-7.3 4.5-11.7.7-9.9-2.1-12.9c-4.5-4.7-10.4-7.9-16.8-9.2-3.4-.4-6.8.2-9.8 1.9l-1.9-.7h-5.6s-5.1.4-8.4.8c-.6 0-1.2.2-1.8.4h.5c1.8 0 6.1 2.4 8.6 5.8 1.8 2.5 2.5 2.1 3.7 2.1l23.5-.4s3.3-.2 4.5 0 3.2.7 2.8 3.6c-.4 3.5-1.1 6.9-2.3 10.2-1.2 3.4-1.1 5.2-7.4 7.1-4.7 1.4-5.9.3-8.5 6s-5 12.1-5 12.1-1.2 2 .7 2.7 5.1 1.9 5.1 1.9c.9.1 1.7.9 1.8 1.8.1 1.6 1.5 17.3 1.5 17.3l.5 7.3s.7 4.2 1.8 5.5c1 1 1.9 2 2.8 3.1.6 1 1.9 2.4.2 2.7-1.5.3-14.5 2.8-14.5 2.8l-5.4 13.5-7 1.6-3.5-2.5-15.1-7.1-3.6-1.1-8.1 13.2v5.3l22.5 11.8 45.4-11.1s2.3-2.3 2.7-3.3c.6-1.6.8-5.3 0-6.8z"/><path fill="#003e64" d="m584 1035.3 2.3-2.7.8-.2 2-3.9-8.3 9.6c.9-1.1 2-2 3.2-2.8"/><path fill="#003e64" d="m599.43 1046.294 3.57 2.506 7.019-1.505 5.458-13.332s12.992-2.444 14.492-2.744c1.7-.3.431-2.019-.169-3.019-.9-1.1-1.8-2.1-2.8-3.1-1.1-1.3-1.8-5.5-1.8-5.5l-.5-7.3s-1.4-15.7-1.5-17.3c0-.9-.8-1.7-1.8-1.8 0 0-3.2-1.2-5.1-1.9s-.7-2.7-.7-2.7 2.3-6.4 5-12.1 3.8-4.6 8.5-6c6.3-1.9 6.2-3.7 7.4-7.1 1.1-3.3 1.9-6.7 2.3-10.2.3-3-1.7-3.5-2.8-3.6s-4.5 0-4.5 0-17.7.3-23.5.4c-1.2 0-1.8.4-3.7-2.1-2.5-3.4-6.8-5.8-8.6-5.8h-.5c-1.2.5-2.3 1.4-3.1 2.5 14 1.3 9.3 20.1 7.9 23.9s-10.09 3.998-10.59 3.998c0 0 2.29 7.802 4.99 9.002 0 0 .97.393 1.5.4 2.2.3 4.8-.5 7.9-1.2 4.4-.9 3.6 8.2 3.2 10.4s-4.423 2.292-4.423 2.292l1.123.608c.9.5 1.1.5 1.1.5s.3 4.3.3 4.5c.4 4.2 1.926 22.156 1.726 22.656-4.1.2-17.826 6.744-17.826 6.744s-7.4 8.5-8.3 9.6l3.579 1.143z"/><path fill="#2e3033" d="m636.4 1041.6-33.4 7.2-3.5-2.5-15.7-7.4-3.1-.9-8.218 13.536.018 5.364 22.5 11.8 45.509-11.106s2.265-2.133 2.691-3.594c.7-2.2.6-4.6 0-6.9-.8-2.3-6.7-5.4-6.7-5.4z"/><path fill="#ed0007" d="M595.838 981.92s2.096.248 7.496-1.152c3.9-1 3.85 3.468 3.95 6.568 0 2.4.4 3.8-1 5 0 0-1.2 1.1-4.2 1.2-3.9 0-6.6-.4-5.5-3.9 1.123-4.166-.746-7.716-.746-7.716m14.645-5.184c.2.2 7.6 0 7.6 0l2.8-3.4s.6-1.3-1.4-1.2c-2.9.5-5.7 1.1-8.5 1.9 0 0-2.3.2-.5 2.6zm-5.2-35.6c1.9.6 3.5 1.7 4.7 3.2h10.5c-2.3-1.6-5-2.5-7.7-2.7 0 0-2.2-2-7.4-.5zm-12.9 101.8s-6.4 7.9-7.6 11l-6.2-2.8s-.5-2 1.8-5.7 3.953-6.28 3.953-6.28zm-17.4 9.3 14.6 7.2v3.3l-2 1 .016 1.074-11.443-5.988.006-.961-1.279-1.725v-3.9z"/><ellipse cx="610.259" cy="955.5" fill="#c1c7cc" rx="3.341" ry="3.3"/><path fill="#ed0007" d="m635.9 956.5-18.7.8v-4.1c-.1 0 18.6-.4 18.6-.4v3.7z"/><path fill="#003e64" d="m488.3 653.3-3.1-4.8-3.4-.6-33.5 172.7c-6.1-.8-6.8 3-6.8 3l-4.4 20.7-6.9 6.7-3.4 17.7L409 956s-45.4-9.3-75.7-15.6c-9.2-1.9-17.2 46.5-13.1 47.3 2.2.4 11.2 1.7 11.2 1.7l-8.1 40.2c-3 17.1 68.5 22.8 84 24.5s19.5-13.7 19.5-13.7l30.6-154.5 1.9-14.6 2.7-14.2-4-8.7s2.1-13.5 3.2-19.8-5.3-6.5-5.3-6.5l32.4-168.9zm-114.8 360.3c16.8 3.4 29.4 11.5 28 18.2s-16.1 9.4-32.9 6-29.4-11.5-28-18.2 16.1-9.4 32.9-6"/><path fill="#c1c7cc" d="m462.3 857-4.3-8.6-20.9-4-6.9 6.6-2.7 14.1 32.8 6.2z"/><path fill="#005587" d="m457.3 886-5.7.4-18.4 88-26.8-5.7-74.7-16s-4 9.4-5 14.5c-.8 4.1-1.9 8.4-1.9 8.4l110.3 22.6L457.2 886z"/><path fill="#eff1f2" d="M460.24 801.294c-1.9-3.3-4.04-5.794-6.54-8.694l-.681 2.729c2.7 2.6 4.929 5.475 6.529 8.875zm1.16-5.794c-2-3.4-4.3-6.5-6.8-9.4l-.4 2.8c2.7 2.6 5 5.7 6.6 9.1zm1.04-6.01c-2-3.4-4.24-6.19-6.74-9.09l-.4 2.8c2.7 2.6 5 5.7 6.6 9.1zm1.2-5.855c-2-3.4-4.21-6.103-6.71-9.003l-.51 2.783c2.7 2.6 4.983 5.457 6.583 8.857zm1-5.784c-1.9-3.4-4.04-6.151-6.54-9.051l-.57 2.668c2.7 2.6 4.965 5.657 6.565 9.057zm.56-3.251.7-2.5c-1.9-3.4-4.2-6.5-6.8-9.4l-.4 2.8c2.7 2.6 4.9 5.7 6.5 9.1m1.1-5.8.7-2.5c-1.9-3.4-4.2-6.5-6.8-9.4l-.4 2.8c2.7 2.6 4.9 5.7 6.5 9.1m1.2-5.7.7-2.5c-1.9-3.4-4.2-6.5-6.8-9.4l-.4 2.8c2.7 2.6 4.9 5.7 6.5 9.1m1.2-6 .7-2.5c-1.9-3.4-4.2-6.5-6.8-9.4l-.4 2.8c2.7 2.6 4.9 5.7 6.5 9.1m.9-5.9.7-2.5c-1.9-3.3-4-6.5-6.5-9.4l-.4 2.8c2.6 2.6 4.7 5.7 6.2 9.1m1.4-5.9.7-2.5c-2-3.4-4.3-6.5-6.9-9.5l-.4 2.8c2.8 2.6 5 5.7 6.6 9.2m1.1-6.2.7-2.5c-1.9-3.3-4.1-6.5-6.6-9.4l-.4 2.8c2.7 2.6 4.8 5.7 6.4 9.1zm1.1-5.5.7-2.5c-1.9-3.3-4.1-6.5-6.7-9.4l-.4 2.8c2.7 2.6 4.8 5.7 6.4 9.1m1.3-6.1.7-2.5c-1.9-3.3-4.1-6.5-6.7-9.4l-.4 2.8c2.7 2.6 4.9 5.7 6.4 9.1m1.1-5 .7-2.5c-1.9-3.3-4.1-6.5-6.7-9.4l-.4 2.8c2.7 2.6 4.9 5.7 6.4 9.1m1.1-5.6.7-2.5c-2.1-3.4-4.6-6.6-7.3-9.5l-.4 2.8c2.9 2.6 5.3 5.7 7 9.2m.6-5.8.7-2.5c-1.8-3.3-3.8-6.4-6.2-9.3l-.4 2.8c2.5 2.6 4.6 5.7 6 9zm1.1-5.6.7-2.5c-1.9-3.3-4.1-6.5-6.6-9.4l-.4 2.8c2.7 2.6 4.8 5.7 6.3 9.1m1.2-5.8.7-2.5c-1.9-3.3-4.1-6.5-6.6-9.4l-.4 2.8c2.6 2.6 4.8 5.7 6.3 9.1m1.2-5.7.7-2.5c-1.9-3.3-4.1-6.5-6.6-9.4l-.4 2.8c2.7 2.6 4.8 5.7 6.3 9.1m1-5.8.7-2.5c-1.9-3.3-4.1-6.5-6.6-9.4l-.4 2.8c2.7 2.6 4.8 5.7 6.3 9.1m.8-5.3.7-2.5c-1.8-3.3-3.8-6.4-6.2-9.3l-.4 2.8c2.5 2.6 4.6 5.7 6 9zm1.3-5.7.7-2.5c-1.8-3.3-3.8-6.4-6.2-9.3l-.4 2.8c2.5 2.6 4.6 5.7 6 9zm1.3-5.8.7-2.5c-1.9-3.4-4.2-6.5-6.8-9.4l-.4 2.8c2.7 2.6 4.9 5.7 6.5 9.1m1.2-6 .7-2.5c-1.9-3.4-4.2-6.5-6.8-9.4l-.4 2.8c2.7 2.6 4.9 5.7 6.5 9.1m.9-4.7.7-2.5c-1.9-3.4-4.2-6.5-6.8-9.4l-.4 2.8c2.7 2.6 4.9 5.7 6.5 9.1m.6-4.5.7-2.5s-.5-2.1-3.8-5.9l-2.5-.3c2.4 2.5 4.3 5.4 5.6 8.7"/><path fill="#ed0007" d="M371.7 1045.6c3.3.6 6.7-1.1 8.2-4.1l.6-1.2c2.8-5.8-6.6-1.5-11.5-2.6-3.8-.8-6.6-4.7-8.9-2.7-.4 1-.7 2.1-.8 3.2-1.2 6.2-.5 5.3 5.4 6.5 2.5.5 5 .7 7.2 1z"/><path fill="#c1c7cc" d="m453.5 885 4.4.9-15.9 79.3-7.1-1.4c-6.3-1.2-10.4-7.3-9.2-13.6l10.8-53.7c1.6-7.9 9.2-12.9 17.1-11.4z"/><path fill="#003e64" d="m442.835 939.455-5.1 24.9 4.1.9c2.2-4 3.5-8.5 3.7-13.1 0 0 3.9-3.48 1.4-11.78z"/><path fill="#2e3033" d="m319.2 937.5 21.9 4.4-10.8 53.5-21.9-4.4 10.8-53.6z"/><path fill="#ed0007" d="m309.9 991.3 12.1-53.2-4.2-.9s-5.9-2.9-12 24.6c-1.3 6-5.3 27.3-2.2 28.2l6.3 1.2z"/><path fill="#c1c7cc" d="M458.4 822.5c2.4.5 4 2.8 3.5 5.1l-3.9 20.8-20.9-4 3.9-20.8c.5-2.4 2.8-4 5.1-3.5z"/><path fill="#003e64" d="m457.7 886-70.4-13.5c-2.7-.5-4.4-3.1-3.9-5.8l.9-4.8c.5-2.7 3.1-4.4 5.8-3.9l70.2 13.3-2.5 14.7z"/><path fill="#ed0007" d="m420.4 958-6.9-1.2 5.3-29.6 6.9 1.2z"/><ellipse cx="423.957" cy="918.155" fill="#c1c7cc" rx="5.1" ry="5" transform="rotate(-1 423.956 918.155)"/></g></svg>