<svg xmlns="http://www.w3.org/2000/svg" viewBox="0 0 403 736"><g fill="none" fill-rule="evenodd"><path fill="#C535BC" fill-rule="nonzero" d="M287.686 81.347c-3.752.766-7.544 1.091-10.922 1.273-.3 2.87-.67 5.95-1 8.89 4.378-2.733 8.523-6.278 11.922-10.163"/><path fill="#E48CDD" fill-rule="nonzero" d="M197.364 231.03c-.27-.15-.64-.29-.91-.43L96.134 280l-37.32 10.15 3.6 6.19c2.36 4.06 3.61 4.58 8.32 5.31 5.45.91 12.36 1.76 14.56 1.09 16.43-5 32.92-15 32.92-15l73.9-19.38 1.24-.27a19 19 0 0 0 9-4.81c9.34-8.78 8.44-26-5-32.29z"/><path fill="#E0E2E5" fill-rule="nonzero" d="m44.854 312.73 61.99-30.53h-44.43L.424 312.73z"/><path fill="#E48CDD" fill-rule="nonzero" d="m112.864 272.41-14.32 9.79h-11.31l-13 5.41-5.54-1.91 16.23-10.26a19.66 19.66 0 0 1 10.51-3z"/><path fill="#A4ABB3" fill-rule="nonzero" d="M262.924 116.03c-12.448-2.23-24.794 4.396-29.82 16l-46.09 103.2 1 .1c13.18 1.21 19.41 14.52 16.66 25.34.82-.88 32.51-41.46 41-55.78 27-47.42 36-86.79 36-86.79z"/><path fill="#C1C7CC" fill-rule="nonzero" d="m246.954 705-53.8 19.69.15.22a26 26 0 0 0 20 9.41h76.21l-6-29.25c-12.64-.15-28.22.37-34.25 0h-2.27zm153.37 18.22-25.57-19.33h-29l-2.33 30.43h51.1a7.08 7.08 0 0 0 5.8-11.1"/><path fill="#340731" fill-rule="nonzero" d="m263.114 304.78 48.87.37c0-.15-.08-.22-.08-.37-.07-.44-76.65 0-76.65 0l-1.41 12.53 5.46 194.57 7.34 193.35h54.83c-1.77-121-2.65-96-14.41-177.26-4.85-33.51-.22-65.55 6.47-95.75-7.2-29.62-14.763-58.987-21.373-75.047-8.75-21.38-8.418-52.353-8.418-52.353z"/><path fill="#551151" fill-rule="nonzero" d="M393.114 704.06c0-153.45-43.58-234.07-43.21-248.18 2.06-78.93 2.52-98-11.81-150.51h-75s-.08 31.16 8.67 52.47c6.61 16.1 14.48 45.35 21.68 74.89 11.09 45.64 20.43 92 20.43 92l30.72 179.32z"/><path fill="#C535BC" fill-rule="nonzero" d="M321.714 35.49c-1.1-10.87-14.11-17.34-14.11-17.34-1.1-18.52-23.88-12-23.88-12s-17.42-8.67-26.09-4.34-2.21 16.34-5.44 20.67-4.34 10.88-4.34 10.88-1.56 14.4 10 20.72a120 120 0 0 1-1.89-17 32.16 32.16 0 0 0 15.8 1.7c13-2.2 25-10.88 25-10.88s0 15.22 1.11 20.65c.07.45.22.89.29 1.33 3.09-4.78 7.94-10.66 11.54-6.76 4.72 5.23-3.57 16.5-6.58 20.5l.58 1.32c-.07 0 19.11-18.54 18-29.42z"/><path fill="#E48CDD" fill-rule="nonzero" d="M273.574 110.55h38.44l-8.31-45.64s-.22-.52-.58-1.32c3.08-3.9 11.39-15.51 6.61-20.73-3.6-4-8.52 2-11.54 6.76a11 11 0 0 1-.29-1.32c-1.1-5.44-1.1-20.65-1.1-20.65s-12 8.67-25 10.88a31.94 31.94 0 0 1-15.95-1.62c.231 5.672.87 11.32 1.91 16.9.44 2.13.88 4.34 1.47 6.62 3.69 13.67 6.77 20.19 6.77 20.19a44 44 0 0 0 10.73 2c3.6.218 7.21-.154 10.69-1.1a52.6 52.6 0 0 1-11.68 10c-1.1 9.85-2.21 19-2.21 19z"/><path fill="#C1C7CC" fill-rule="nonzero" d="m352.544 119.32-.15 2.21zm-25.79 23.52 9.07-37.09-26.49-10.68h-33.73l-31.18 17.49a43.16 43.16 0 0 0-20.87 37.41c0 1 .07 2.05.14 3.16l7.79 53.64 1.24 30.21.52 23.52v44.87h104.85z"/><path fill="#A4ABB3" fill-rule="nonzero" d="M311.834 305.37h26.26l14.12-184.39.14-2.28v-.08l-.07.07-25.72 23.6z"/><path fill="#E0E2E5" d="M335.824 105.75c13.3 2.13 22.49 7.35 26.53 23.52l23.81 78.92-49.19-7.28s-9.67-26.23-11.22-50.26c-.73-11.46 0-32.19 10.07-44.9m-213.72 51.62 37.5 37.5h89l-37.51-37.5z"/><path fill="#E8B6E3" fill-rule="nonzero" d="m255.334 188.94-20.91-8.32-5.22 29c4.71-.56 21-2.26 22.55-1.88 68.25 17.22 123.17 55.46 134.41.35z"/><path fill="#E48CDD" fill-rule="nonzero" d="M201.174 194.88s.94 2 2.33 4.49c.53.93 7.57 1.23 8.19 2.21a58 58 0 0 0 4.13 6.24c3.5 4.36 13.4 1.83 13.4 1.83l5.2-29.03z"/><path fill="#E48CDD" fill-rule="nonzero" d="m234.444 180.64 7.27 27.72-16.11 1.89z"/></g></svg>