<svg xmlns="http://www.w3.org/2000/svg" viewBox="0 0 899 815"><g fill="none" fill-rule="evenodd" transform="translate(.775 .85)"><path fill="#C1C7CC" d="M378 0a9.38 9.38 0 0 0-9.38 9.38v713.33h18.77V9.38A9.39 9.39 0 0 0 378 0"/><path fill="#8A9097" d="M393.75 751.63v-28.92h-31.56v28.92l-82.28 22.05v38.79h196.12v-38.79zm150.18-581.25H212.01L368.59 29.9h18.77z"/><path fill="#43464A" d="M212.01 170.38H0L368.59 29.9z"/><path fill="#C1C7CC" d="M543.93 170.38h212.01L387.36 29.9z"/><path fill="#43464A" fill-rule="nonzero" d="M0 170.28h212c0 20.716-16.794 37.51-37.51 37.51h-137C16.782 207.779 0 190.988 0 170.28"/><path fill="#8A9097" fill-rule="nonzero" d="M543.93 170.28h212c0 20.716-16.794 37.51-37.51 37.51h-137c-20.716 0-37.51-16.794-37.51-37.51z"/><path fill="#43464A" fill-rule="nonzero" d="M212 170.28h331.93c0 20.716-16.794 37.51-37.51 37.51h-256.9A37.51 37.51 0 0 1 212 170.28M734 414.9 602.62 812.47h15.66L749.66 414.9z"/><path fill="#43464A" fill-rule="nonzero" d="m677.55 812.47-59.87-181.2h-15.65l59.87 181.2z"/><rect width="146.79" height="13.19" x="636.82" y="718.23" fill="#8A9097" fill-rule="nonzero" rx="6.595"/><path fill="#C1C7CC" fill-rule="nonzero" d="M880.79 414.9 749.41 812.47h15.66L896.45 414.9z"/><path fill="#C1C7CC" fill-rule="nonzero" d="M734.69 604.89H844.5v26.39H734.69z"/><path fill="#8A9097" fill-rule="nonzero" d="M587.9 604.89h146.79v26.39H587.9z"/><path fill="#C1C7CC" fill-rule="nonzero" d="m824.34 812.47-59.87-181.2h-15.65l59.87 181.2z"/><path fill="#8A9097" fill-rule="nonzero" d="m896.45 414.9-8.73 26.39H725.28L734 414.9zm-13.08 39.58-8.72 26.39H712.21l8.71-26.39zm-13.09 39.58-8.71 26.39H699.13l8.71-26.39zm-13.07 39.58-8.72 26.39H686.04l8.73-26.39z"/><path fill="#C1C7CC" fill-rule="nonzero" d="m581.81 481.535-4.848-1.826 25.32-67.22 4.847 1.826z"/><path fill="#8DD2CD" fill-rule="nonzero" d="M697.67 476.468c-.19-.24-.46-.52-.64-.77l-111.8 2.68-38.23-6.42 7.07 32 46.84-4q85.99 6.094 89.27 4.98c12.24-4.07 17-17.11 7.46-28.51z"/><path fill="#8DD2CD" fill-rule="nonzero" d="m569.26 461.618-4.69 4.03 16.29 15.18 24.21-1.86z"/><path fill="#419E98" fill-rule="nonzero" d="m698.08 474.078-77.29-.4.09 27.68s71.91 4.39 88.41 5.15c3.49.16 13.51-2.69 13.22-7.05-.64-9.61-9.45-24-24.43-25.38"/><path fill="#43464A" d="M562.66 505.14h27.6l4.71-58.66h-37.02z"/><path fill="#B6EDE8" d="m547 471.958 31.3.12c1 6.6-2.9 16.13-8.8 20.05l-15.4 11.83z"/><path fill="#419E98" fill-rule="nonzero" d="m805.24 378.848-.88 2.35-19.84 52.77-4.78 127.87 22.27 9c26.82-119.5 3.23-192 3.23-192z"/><path fill="#8DD2CD" fill-rule="nonzero" d="M733.73 341.778a35.8 35.8 0 0 1-10.36 1.69c-.07 2.64-.22 5.43-.29 8.23a53 53 0 0 0 10.65-9.92"/><path fill="#419E98" fill-rule="nonzero" d="M766.44 290.958c-1.91-11.17-16-17-16-17-2.5-19-25.65-10.66-25.65-10.66s-18.67-7.71-27.34-2.57-1 17.05-4.11 21.83-3.68 11.61-3.68 11.61-.66 15.07 11.76 20.8a118 118 0 0 1-3.23-17.35 33.1 33.1 0 0 0 16.68.45c13.38-3.24 25.13-13.16 25.13-13.16s1.11 15.8 2.65 21.31c.15.44.29.88.44 1.4 2.79-5.22 7.42-11.69 11.47-7.86 5.29 5.07-2.5 17.71-5.37 22 .44.95.74 1.54.74 1.54s18.44-21.16 16.46-32.33z"/><path fill="#B6EDE8" fill-rule="nonzero" d="m762 369.808-12-46.52s-.3-.59-.74-1.54c2.87-4.26 10.73-17 5.37-22-4.05-3.83-8.68 2.64-11.47 7.86-.15-.52-.29-1-.44-1.4-1.54-5.58-2.65-21.31-2.65-21.31s-11.75 9.92-25.13 13.16a33.9 33.9 0 0 1-16.68-.45 117.6 117.6 0 0 0 3.3 17.42c.59 2.21 1.25 4.48 2.06 6.76 4.85 13.89 8.53 20.51 8.53 20.51a44.4 44.4 0 0 0 11.24 1.17 33 33 0 0 0 10.36-1.69 56.1 56.1 0 0 1-10.65 9.85c-.44 10.8-1 21.09-1 21.09z"/><path fill="#66B8B2" fill-rule="nonzero" d="m804.36 381.198.07-5.8-44.83-22.02-39.09 2.8-28.67 20.28a22.57 22.57 0 0 0-9.48 14.26c-1.83 8.45.08 18.37 1.69 28.58l8.75 65.12v.22l6.76 44.61 80.25 32.48 4.78-127.87 19.77-52.7z"/><path fill="#053634" fill-rule="nonzero" d="M561.77 605.164H587l.19-42.76 125.77-28.42-13.37-5.42-162.3 20.59z"/><path fill="#053634" fill-rule="nonzero" d="m537.29 549.154-81.43 230.07 29.53 17s99.3-153.14 84.46-198.06z"/><path fill="#02201E" fill-rule="nonzero" d="m396.71 801.59.15.22a29.07 29.07 0 0 0 22.49 10.66h75.77l-6.62-24.4-32.7-9.48z"/><path fill="#0A4F4B" fill-rule="nonzero" d="m699.56 528.564-113 30.8c23.92 15.47 38.27 15 44.93 48.84 103.41-11.65 164 17.39 170.55-38.12z"/><path fill="#116864" fill-rule="nonzero" d="m586.53 559.364-2.91 39.45-10.32 194.84 3.53 2.14 23.4 13c29.07-106 39.42-164.89 35.72-199s-21.82-43.43-49.42-50.43"/><path fill="#02201E" fill-rule="nonzero" d="m574.3 779.4-43 22.19.15.22a29.07 29.07 0 0 0 22.49 10.66h54.46l-4.56-22.27-.59-.22z"/><path fill="#66B8B2" fill-rule="nonzero" d="m712.17 464.69-19.25-20-16.79.88 1.55 4.68 10.16 2 1.74 3.36z"/><path fill="#71767C" fill-rule="nonzero" d="m630.27 398 32.92 2.2zm71.14 78.56-23-70.84a7.11 7.11 0 0 0-6.32-4.93l-4.77-.29a7.12 7.12 0 0 1 6.32 4.92l23 70.85a7.14 7.14 0 0 1-4.63 9 8.3 8.3 0 0 1-2.65.36l4.71.3a7.1 7.1 0 0 0 7.57-6.69 5.7 5.7 0 0 0-.22-2.72z"/><path fill="#43464A" fill-rule="nonzero" d="m697.68 477.32-23.37-71.87a7.37 7.37 0 0 0-6.39-5l-4.12-.29-33.44-2.16-4.77-.29a7.25 7.25 0 0 0-7.72 6.76 6.6 6.6 0 0 0 .37 2.72L641.61 479a7.18 7.18 0 0 0 6.32 5h.07l42.33 2.79a7.35 7.35 0 0 0 7.72-6.83 8.4 8.4 0 0 0-.37-2.65z"/><path fill="#8DD2CD" fill-rule="nonzero" d="m832.62 518.638.8-15.07-15.27-109.19c-3.19-15.32-11.45-23-23.75-23.21-19 1.17-22.85 25.55-22.68 36.48.28 20.8 5.57 46.73 10.28 62.43 27.86 6.3 50.71 15.73 51.38 38.72z"/><path fill="#B6EDE8" fill-rule="nonzero" d="M779.213 468.686c-22.61-3.78-48-3.82-67-3.52l-27.89-11.21s-5.65 33.2-5.72 33.2c8 4.29 31.11 4.41 31.11 4.41s122.77 27 123 26.17a38.3 38.3 0 0 0 .55-10.79c-2.02-22.93-25.89-33.47-54.05-38.26"/><path fill="#8DD2CD" fill-rule="nonzero" d="m684.447 454.036-28.13.27s-2.46 6.11 2.25 15.66c4.49 9.25 19.42 16.62 20.2 17.31z"/><path fill="#C1C7CC" fill-rule="nonzero" d="M417.27 505.14h205.48v12.49H417.27z"/><path fill="#43464A" fill-rule="nonzero" d="M333.17 812.47 222.05 517.63h-15.66l111.12 294.84z"/><path fill="#43464A" fill-rule="nonzero" d="m206.39 812.47 111.12-294.84h15.66L222.05 812.47z"/><path fill="#8A9097" fill-rule="nonzero" d="M167 505.14h250.27v12.49H167zm105 153.31h245.38v13.19H272a6.6 6.6 0 0 1-6.6-6.6 6.6 6.6 0 0 1 6.6-6.59"/><path fill="#C1C7CC" fill-rule="nonzero" d="M583.4 812.47 472.28 517.63h-15.65l111.12 294.84z"/><path fill="#C1C7CC" fill-rule="nonzero" d="m456.63 812.47 111.12-294.84h15.65L472.28 812.47z"/></g></svg>