<svg xmlns="http://www.w3.org/2000/svg" xmlns:xlink="http://www.w3.org/1999/xlink" viewBox="0 0 686 1317"><path fill="#56b0ff" d="M350.1 170h-24.2c-11 9.7-15.5 3.2-22.4-14.7-4.6-12-7-24.8-8.1-32.2 5.4-6 13.9-13.3 8.1-27.7 0 0 15 11.1 30.1 7 15-4.1 17.4-7.2 23.3-5.5 5.9 1.6 9.9 6.5 12.1 9.9.1.7.2 1.4.4 2.1 0 0 .1 6-.7 14.9-.9 10.9-2.7 21.9-5.5 32.5-.4 1.1-.6 2.4-1 3.5v-.1c-2.2 10.2-6.2 18-12.1 10.3"/><path fill="#56b0ff" d="M285.8 162.5c-7.3-11.3-18-30.7-11-38.5 6.5-7.1 12.9.1 16.5 6.1 1.3 2 3.7 4.8 4.7 6.9l3 18v7l-3-4c-.5 5.9 1.9 22.5 2 25 .9 13.8 8.7 23.4 21.1 23.4h15.4c2.3 19.1 4.5 37.6 4.5 37.6h-68l13.4-74.8z"/><path fill="#0096e8" d="m447.2 437.5 97.6-30.4 44.6-18.2 20.7 32.7s-19.9 6.8-37.6 11.7c-17.6 5-32.3 9-32.3 9s-85.4 56.5-115 71.8l-1.8-51.5z"/><path fill="#a4abb3" d="m423.4 460 .4-143.8c.4-3.7.4-7.6.1-11.4L448 437.3l-.2.2-24.2 25.1z"/><path fill="#002742" d="M355.5 559H392l9.7 66.6v-.1l-7.2 262-11.5 312.7h-63.2c-14.8-179.7-21.6-154.2-2.7-286.6 7.8-54.7.4-106.7-10.4-155.9 11.6-48.2 24.6-96.1 35.2-122.2 10.4-25.8 13-60.5 13.6-76.5"/><path fill="#003e64" d="M180.5 1201c0-249.9-33.9-241.1 26.6-348.2 7.3-13.1 8.4-32.5 7.8-55.5-.4-11.7-.6-22.7-1-33l1.8-104.7s-.1-13.6-.2-34h64.4l6.1-66h70.4c-.7 16-3.4 50.6-14 76.7-10.8 26.3-23.7 74-35.5 122.3-18.1 74.5-33.4 150.2-33.4 150.2l-50.3 292.5-10.8 1z"/><path fill="#006ead" d="m377.6 453.7 15.6 107H286.4l10-109C290.3 322 260.1 226.2 260 226l15.3-9h64.4l37 22.4-1.2-.7z"/><path fill="#003253" d="M341.1 205h-67.3v13.7h67.3z"/><path fill="#c1c7cc" d="M280 626h-43l8.5-257c3.1-15 6.2-30.1 9-43.9 6.5-32.4-1.7-78-28.1-79.3h-.1l33.9-19.8c0 .2 30.2 95.9 36.3 225.6l-10.1 108.9zm-16.6-19.9c3.2 0 5.9-2.6 5.8-6 0-3.1-2.6-5.7-5.7-5.7-3.2 0-5.9 2.6-5.9 5.8s2.6 5.9 5.8 5.9m-.3-22.4c3.4 0 6.1-3.1 5.4-6.7-.5-2-2.1-3.8-4.2-4.2-3.6-.7-6.7 1.9-6.7 5.4 0 3 2.4 5.5 5.5 5.5"/><path fill="#b2b9c0" d="m213 488.6 5.1 1.2s14.4-61.1 27.9-121.2L237.1 626h-22.6c-.4-36.2-.9-94.4-1.5-137.4"/><path fill="#c1c7cc" d="m376.4 453.3-2-215.1 1.2.7 12.8 7.5c24 14.5 37.7 41.3 35.4 69.4l-.5 143.4.1 2.5 1.8 51.4 3.8 114h-27.2v.1l-9.6-66.8z"/><path fill="#56b0ff" d="M214.83 488.2c.6 42.9 1.1 100.9 1.3 137.3.1 20.5.2 34.1.2 34.1l14 53.2-50.6 8.1c-4.5-15.3 4.5-56.3 3.7-59.3-14-52.1-42.7-138.8-32.7-189.6z"/><path fill="#0096e8" d="m230.43 712.7 15.8 46.4c-10.5 8.5-30.8 6.7-39.5-1.6-7.7-7.3-26.9-36.7-26.9-36.7z"/><path fill="#56b0ff" d="m216.33 659.4 39.8 48.5-6 10.1-23.9-14.9z"/><path fill="#e0e2e5" d="M225.9 245.4c26.5 1.3 34.6 47 28.1 79.5-2.9 14-5.9 28.9-9.1 44C232.4 428.8 219 490 219 490l-4.8-1.2-64.1-16.4-18.4-4.7 53-177.9c10-29.5 20.8-42.3 40.8-44.2z"/><path fill="#003253" d="M274.1 87.4s0-9.3 14.7-21.4 31-4 44.4-5.3 28.6-5.4 39.3 0c9.6 4.8 2.2 18 1.3 27.5 4.2 7.3 10 24.2-5.1 36.2.7-8.7.8-14.4.8-14.4l-.2-2.1c-2.2-3.3-6-8-11.9-9.7-5.8-1.6-8 1.3-22.9 5.4-14.7 4.1-29.6-6.7-29.6-6.7 5.6 14-2.6 21-7.9 26.9 1.1 7 3.5 19.6 7.9 31.2 6.7 17.4 11.3 23.6 21.9 14.2h23.6c5.9 7.4 9.6-.1 12-10v.1c.4 1.1 2.6 8.4 2.6 14.6 0 6.7-8 16.1-8 20.1v11.9h-37.6c-12.1 0-26-7.9-26.8-21.2-.1-2.5-.1-6.2.1-10.6.2-5.4.7-11.6 1.1-17.3l1.7-18.9c-1-2-1.9-4.1-3.1-6-3.6-5.8-9.8-12.9-16.2-6-7 7.5 2.5 25.6 9.7 36.6l-1.4 6.5s-21.4-35.1-23.1-61.2c-.6-12.6 12.7-20.4 12.7-20.4"/><path fill="#595e62" d="m467 1234.1-.2.4c-8 9.7-19.8 15.3-32.3 15.3H311.3l10.1-49.6h59.1zm-286-33.9h-.1l31.8 1 10.6.1 6.4 49.6h-83.2c-6.4 0-11.6-5.1-11.6-11.6 0-2.4.7-4.7 2-6.6z"/><g transform="rotate(-30 855.942 -120.392)"><image xlink:href="31E32AB608842311.png" width="920" height="700" overflow="visible" transform="translate(.214)scale(.4071)"/><g fill-rule="evenodd" clip-rule="evenodd"><path fill="#d1e4ff" d="M375 285H0V0h375z"/><g transform="translate(89.674 89.164)"><path fill="#007bc0" d="m0 107 55.9-56.2 56.6 56.2z"/><path fill="#9dc9ff" d="m56.3 107 69.2-82.9 70 82.9z"/><circle cx="17.4" cy="17.4" r="17.4" fill="#fff" transform="rotate(-150 17.422 17.372)"/></g></g></g><path fill="#56b0ff" fill-rule="evenodd" d="m579 299-52.8 1.8c-1.5 10.9 4.8 29.2 15 32.9l34.7 22.3z" clip-rule="evenodd"/><path fill="#fff" d="M262.8 572.6c-3.2 0-5.9 2.6-5.8 5.9 0 3.1 2.6 5.7 5.7 5.7 3.2 0 5.9-2.6 5.9-5.8s-2.6-5.8-5.8-5.8m.7 21.9c-3.2 0-5.9 2.6-5.8 5.9 0 3.1 2.6 5.7 5.7 5.7 3.2 0 5.9-2.6 5.9-5.8s-2.6-5.8-5.8-5.8"/></svg>