<svg xmlns="http://www.w3.org/2000/svg" viewBox="0 0 411.7 1005.3"><switch><g><path fill="#003253" d="M306.9 43.5c1.1-10.2-13.4-18.9-13.4-18.9s0-7.8-12.3-17.8-25.6-3.3-36.8-4.5c-11.1-1.1-23.7-4.5-32.6 0-8.4 4.2-.9 16.4-1 24.3 0 .4 0 .9-.1 1.3-1.1 7.8 2.2 16.7 2.2 16.7s.5-.7 1.4-1.7c2.3-2.7 6.8-7.8 10-9.4 4.5-2.2 6.7 1.1 18.9 4.5s24.5-5.6 24.5-5.6c-6.7 18.9 3.8 22.6 7.1 28.1.9 1.5 1.3 3.1 1.4 4.8 3.9-6.6 10.2-14.6 15.3-8.9 6.3 6.9-4.6 24.5-10.1 32.5l2.5 5.5c.3 0 21.6-37.8 23-50.9"/><path fill="#00629a" d="M243.3 123.9c-1.7 15-3.5 29.3-3.5 29.3h55.1l-10.7-59.1-2.5-5.5c5.5-8 16.4-25.6 10.1-32.5-5.2-5.7-11.5 2.3-15.3 8.9 0-1.7-.5-3.3-1.4-4.8-3.3-5.6-13.8-9.2-7.1-28.1 0 0-12.3 8.9-24.5 5.6S229 31 224.6 33.2c-4.2 1.6-10 9.4-10.1 9.5 0 0-.1 4 .4 9.9.6 9.7 2.2 19.2 4.6 28.6 5.3 19.6 9.7 29 9.7 29 5 1.5 10.2 2.5 15.4 2.8 4.9.3 9.8-.1 14.6-1.3-4.5 4.5-9.5 8.5-14.9 11.8z"/><path fill="#001d33" d="m131.1 992.2.2.3c6.7 8.1 16.6 12.8 27.1 12.8h103.4l-8.5-41.5h-49.6zm215.4-28.5-8.9.1-5.4 41.5H402c5.4 0 9.7-4.3 9.7-9.7 0-2-.6-3.9-1.7-5.5l-37.2-26.6z"/><path fill="#006ead" d="M181.3 351.2c-8.5 13.7-54.2-1.3-109.8-23.9 0 0-12.3-3.3-27.1-7.5-14.9-4.1-31.6-9.8-31.6-9.8l17.4-27.3 37.4 15.2 76.7 8.3z"/><path fill="#002742" d="m143.3 305.2 25.8-92.4c-.2 3.2-.2 6.4.1 9.5l12.1 128.9z"/><path fill="#001d33" d="m226.6 426.1-31.3-.1-7.6 55.9v-.1l6.1 219.5 9.6 262.6h53.3c12.5-150.6 18.3-129.8 2.4-240.7-6.6-45.8-.3-89.4 8.8-130.6-9.8-40.4-20.7-80.5-29.7-102.4-8.9-21.6-11.1-50.7-11.6-64.1"/><path fill="#003253" d="M372.8 963.4c0-209.3 28.3-201.9-22.2-291.6-6.1-11-7-27.2-6.5-46.5.3-9.8.5-19 .8-27.6l-1.5-87.7s-1.2-21.8-1.1-38.9l-51.7 10.3-5.1-55.1-59.6-.1c.6 13.4 2.8 42.4 11.7 64.2 9 22 19.8 62 29.7 102.4 15.1 62.4 27.9 125.8 27.9 125.8l42.4 245.1z"/><path fill="#005587" d="M244.4 123.4c5.4-3.3 10.4-7.3 14.9-11.8-4.8 1.2-10.1.9-15 .6-.4 3.5-.7 8.3-1 12z"/><path fill="#002742" d="M182.3 352.2c-9.3 16.2-61.7-4.3-118-24l5-32 74 9z"/><path fill="#d1e4ff" d="m208.9 336.8-13.1 89.5h89.5l-8.4-91.2c5.1-108.5 30.2-188.4 30.3-188.6l-12.6-7.7-42.3 7.4-11.7-7.4-30 18.2z"/><path fill="#001d33" fill-rule="evenodd" d="m252.1 144.7 16.3 12.6-12.6 15.2 6.4 15.7-9.5 170.8-17.9 21.9-18.2-26.5 19-167 9.9-15.2-8.3-14.2z" clip-rule="evenodd"/><path fill="#9dc9ff" fill-rule="evenodd" d="M276 166.7s-17.6-13.3-23.6-22.2c-.4-.6 13.1-1.6 23.4-8.5 11.4-7.6 14.5-10.9 14.5-10.9l9.7 17c0 .1-17.1 16.2-24 24.6" clip-rule="evenodd"/><path fill="#9dc9ff" fill-rule="evenodd" d="M242 129.2c-.1 9.1 10.4 15.2 10.4 15.2l-18.1 22.2s-4.2-12.5-4.2-20.8 11.9-16.6 11.9-16.6" clip-rule="evenodd"/><path fill="#003253" d="m241.3 387.2-34 91-33-6 2-59 4-39-1-36L169.2 222c-2-23.5 9.6-46 29.8-58.1l10.8-6.3 20.5-13.4c-10.9 63.3-1.7 129.5 12 176z"/><path fill="#003e64" d="M319.5 266.4c-2.6-9.7-4.6-22.1-7.6-36.8-5.5-27.2 1.4-65.4 23.6-66.5l7.8 2.1c-22.8-11.8-42.4-23.1-48-32-10.7 67.7-65.5 154.6-65 187v67l36 95 60.1-.2"/><path fill="#002742" d="m339.3 368.2 1-104c-3-2-18 2-20.9 2.4l-13.1 94.6 20 120.8 30-4.8c.3-30.3-17.5-73-17-109"/><path fill="#006ead" d="M345 366.6c-.5 36-.9 84.6-1.1 115.1-.1 17.2-.2 28.6-.2 28.6L332 554.9l42.3 6.8c3.8-12.8-3.8-47.2-3.1-49.7 11.8-43.7 35.8-116.4 27.5-159z"/><path fill="#003253" d="M374.3 505.2s36.3-110.4 28-153l-58.8 14.4c-.5 36-2.2 132.6-2.2 132.6z"/><path fill="#003253" d="M343.3 367.2s-13.5-50.4-24-100.6c-2.7-12.6-5.2-25.1-7.6-36.8-5.5-27.2 1.4-66.5 23.6-67.6 16.8 1.6 26 13.6 34.4 38.3l32.6 151.7z"/><path fill="#005587" d="m332 554.9-13.2 38.8c8.8 7.1 25.7 5.6 33-1.3 6.4-6.1 22.5-30.7 22.5-30.7z"/><path fill="#a4abb3" d="m69.1 302.1-25.9-73c-1-2.8-3.6-4.6-6.5-4.6H10l23.4.1c2.9 0 5.5 1.9 6.5 4.6l25.8 72.9c1.3 3.6-.7 7.6-4.3 8.9-.7.3-1.5.4-2.3.4h3.4c3.9 0 7-3.1 7-7 0-.8-.1-1.5-.4-2.3m-33.3 8.5 15.8.8z"/><path fill="#c1c7cc" d="m65.7 302.1-25.8-72.9c-1-2.8-3.6-4.6-6.5-4.6H6.9c-3.8 0-6.9 3.1-6.9 6.9 0 .8.1 1.5.4 2.3L26 306.1c1 2.7 3.5 4.6 6.4 4.6h3.4l15.9.8h7.5c3.8 0 7-3.1 7-7-.1-.9-.3-1.7-.5-2.4"/><path fill="#007bc0" fill-rule="evenodd" d="m10.2 262.5 44.4 1.5c1.3 9.1-4 24.3-12.6 27.4L12.8 310z" clip-rule="evenodd"/><path fill="#006ead" d="m343.8 510.7-33.1 40.4 5 8.4 19.9-12.4z"/><ellipse cx="237.8" cy="322.2" fill="#001d33" rx="3.5" ry="4"/><ellipse cx="237.8" cy="350.2" fill="#001d33" rx="3.5" ry="4"/><ellipse cx="237.8" cy="377.2" fill="#001d33" rx="3.5" ry="4"/></g></switch></svg>