<svg xmlns="http://www.w3.org/2000/svg" viewBox="0 0 283.2 451.5"><path fill="#002742" d="M41.2 157c23.8 9.9 11.8 8.3 39.7 16.4l19.6 4.4c10.2-5.1 21.7-10.1 30.8-21.1l-21-24.3c-11.6 10.2-11.7 10.7-17.8 17.5l-21.6-.6c-21.8-5.5-21-6.3-21-6.3s-9.9 13.3-8.6 13.9z"/><g data-name="Ebene_1"><path fill="#fff" d="M22.6 125.2 0 128.6l1.9-2.7 20.4-3.1.4 2.4z"/><path fill="#003e64" d="m15.4 123.8-1 .2c-.8.8-1.5 1.8-2 2.8l1-.2c.6-1 1.3-1.9 2-2.8m2-.3-1 .2c-.8.8-1.5 1.8-2 2.8l1.1-.2c.6-1 1.2-1.9 2-2.8zm-7.5 1.2-1.1.2c-.9.8-1.6 1.7-2.1 2.8l1.1-.2c.6-1 1.3-1.9 2.1-2.8m-5.9.9h-.7c-.8.9-1.4 1.8-1.9 2.9h.7c.6-1.1 1.2-2 1.9-2.9m6.5 1.5 1-.2c.6-1 1.3-1.9 2-2.8l-1 .2c-.8.8-1.5 1.8-2 2.8m-5.6.8h1c.6-1.1 1.3-2 2.1-2.9l-1.1.2c-.8.8-1.5 1.7-2 2.7m14.4-4.7-1 .2c-.8.8-1.5 1.8-2 2.8h.9q.9-1.65 2.1-3m2.4 2.2h.9c0-.1-.1-1.2-.1-1.2-.2.4-.5.8-.6 1.2zm-1.6.2h.8c.4-.9.9-1.6 1.4-2.3v-.6h-.4c-.7.8-1.4 1.8-1.8 2.8zm-8.5-1.2h-.8c-.9.9-1.6 1.9-2.1 2.9h.9c.6-1.1 1.2-2.1 2-2.9m-9.2 1.4h-.5c-.8.8-1.4 1.6-1.9 2.5v.3h.5c.5-1 1.2-1.9 1.9-2.8m3.6-.5-1.1.2c-.8.8-1.4 1.7-1.9 2.8l1.1-.2c.5-1 1.2-1.9 1.9-2.8m15-2.3h-.9c-.9.9-1.6 1.9-2.1 2.9h-.1l1.3-.2c.5-1 1.1-1.9 1.8-2.8z"/><path fill="#43464a" d="m45.9 139.8-8.4-3.3s-.1-.9 1.4-2.4 28.4 7.6 28.4 7.6z"/><path fill="#005587" d="M59.727 179.472c-.8-1.404-5.131-3.931-5.131-3.931a5 5 0 0 1 0-.899c.098-.386.653-1.004.772-1.404.26-.842 0-1.972 0-3.51s-2.373-2.436-2.373-2.436a22 22 0 0 1-1.895-3.356c-.394-1.123-1.025-8.305-1.278-10.439s-.857-7.097-1.116-9.498c-.127-1.13-.07-1.994.526-4.528a5.95 5.95 0 0 1 3.658-4.212c.702-.316 1.25-.421 2.976-1.004 1.727-.583 2.345-4.5 2.752-7.189s.421-6.121-1.27-7.919a19.73 19.73 0 0 0-10.341-5.658 9.7 9.7 0 0 0-6.003 1.151l-1.172-.393-3.433.056s-3.166.183-5.202.408a4 4 0 0 0-1.074.273q.156-.04.316-.049c1.13 0 3.763 1.481 5.314 3.588 1.124 1.53 1.559 1.298 2.26 1.298 3.616-.077 14.498-.302 14.498-.302s2.021-.07 2.73 0c.63.063 1.674.336 1.76 1.677q.025.275-.011.62a29 29 0 0 1-1.405 6.317 7 7 0 0 1-.185.493c-.57 1.76-.832 2.774-4.364 3.839-2.899.87-3.615.168-5.258 3.678s-3.047 7.449-3.047 7.449-.75 1.207.422 1.643l3.117 1.15q.217.027.404.12l.016.01c.117.06.226.137.318.23l.014.02q.135.14.222.316c.006.014.006.03.012.045.049.112.088.229.102.355.077.983.926 10.636.926 10.636l.323 4.493s.422 2.583 1.117 3.404a22 22 0 0 1 1.734 1.889c.323.555 1.063 1.352.27 1.602a1.3 1.3 0 0 1-.186.048c-.139.024-.444.082-.86.16-2.326.449-8.056 1.567-8.056 1.567l-3.348 8.297-4.283.976-.005-.003-.016.003-2.106-1.523-9.295-4.353-2.24-.702.024-.023-.037-.012-4.964 8.137v3.264l13.83 7.259 27.934-6.845a10 10 0 0 0 1.65-2.064c.358-.997.484-3.306-.043-4.219"/><path fill="#005587" d="M38.821 161.199c.054.588.028 1.18-.077 1.762.183-.57.21-1.179.077-1.762m-1.291-16.063c.203-1.327.701-6.95-2.001-6.381-1.875.4-3.51.884-4.851.702 1.221.702.842 3.447.842 3.447-1.151 2.997-.253 2.962.8 3.398a5.3 5.3 0 0 0 2.5.175s2.506-.014 2.71-1.34"/><path fill="#2e3033" d="M33.107 131.201c.835-2.338 3.742-13.963-4.914-14.742 0 0-5.715 1.256-6.571 1.333s-1.84 1.159-1.84 1.159l-7.153.512s-3.25 1.938-4.823 2.808a3.28 3.28 0 0 0-1.538 2.766l-1.144.337.063 3.005 1.404.246c.14 1.291 1.671 2.316 1.671 2.316l5.77 2.142 7.021-.548c1.796.624 3.674.976 5.574 1.046.26.007 5.672-.091 6.48-2.38"/><path fill="#005587" d="m35.473 146.912-.653-.42q.4.273.653.42m.884 3.075c0-.112 0-.245-.042-.386z"/><path fill="#003e64" d="M26.648 133.595h-.077s1.193 4.079 2.548 5.223q.283.237.618.393c-1.699-.758-3.089-5.616-3.089-5.616m3.475-18.611a3.5 3.5 0 0 0-1.902 1.468 4.2 4.2 0 0 1 1.902-1.468m-6.845 57.264 1.404-1.628.506-.155 1.221-2.415-5.096 5.925a10 10 0 0 1 1.965-1.727m15.452-9.288a1.3 1.3 0 0 1-.807.85 90 90 0 0 0-11.5 4.212s9.478-4.057 11.977-4.212c.16-.261.271-.549.33-.85m-2.373-12.973v.14c.344 4.36 1.797 8.25 2.401 10.875v.197a13.8 13.8 0 0 0-.793-3.58 34.7 34.7 0 0 1-1.608-7.632m-6.536-10.741q.413.172.857.225a1.14 1.14 0 0 0-.548-.155 1.2 1.2 0 0 1-.309-.07m5.652 7.666.561.365s.183 1.404.281 2.324c-.14-1.404-.169-2.4-.169-2.4s-.133.041-.673-.289"/><path fill="#003e64" d="m32.868 179.03 2.106 1.523 4.282-.976 3.328-8.297s8.045-1.566 8.958-1.727c1.053-.19.239-1.053-.105-1.643a22 22 0 0 0-1.713-1.868c-.702-.82-1.117-3.404-1.117-3.404l-.323-4.493s-.849-9.653-.926-10.657a1.236 1.236 0 0 0-1.088-1.102l-3.117-1.151c-1.173-.436-.422-1.643-.422-1.643s1.405-3.939 3.047-7.449 2.359-2.808 5.258-3.678c3.89-1.173 3.812-2.282 4.55-4.395a29 29 0 0 0 1.404-6.318c.203-1.832-1.04-2.162-1.748-2.233s-2.731 0-2.731 0-10.882.225-14.497.302c-.702 0-1.137.232-2.26-1.298-1.552-2.107-4.213-3.58-5.315-3.588a1.6 1.6 0 0 0-.316.05 4.2 4.2 0 0 0-1.902 1.467c8.628.786 5.721 12.411 4.914 14.742s-6.241 2.387-6.508 2.394h.05s1.403 4.858 3.088 5.616h.084q.15.055.31.07c.192.005.38.058.547.155 1.334.168 2.976-.316 4.85-.702 2.704-.569 2.205 5.054 2.002 6.381s-2.71 1.355-2.71 1.355l.653.421c.554.33.702.288.702.288s0 .962.168 2.401c0 .14 0 .274.042.386a34.7 34.7 0 0 0 1.552 7.66c.444 1.15.732 2.353.856 3.58a3.34 3.34 0 0 1-.077 1.762 2.6 2.6 0 0 1-.33.891c-2.5.14-11.976 4.212-11.976 4.212l-1.236 2.401-.506.155-1.404 1.628a10 10 0 0 0-1.958 1.727l2.24.702z"/><path fill="#2e3033" d="m55.571 176.138-20.576 4.415-2.106-1.523-9.68-4.563-1.89-.499-4.963 8.109v3.264l13.837 7.259 27.927-6.845a10 10 0 0 0 1.65-2.064 7.2 7.2 0 0 0-.057-4.212c-.477-1.432-3.454-2.8-4.142-3.341"/><path fill="#ed0007" d="M30.699 139.485s1.228.19 4.57-.702c2.387-.61 2.394 2.022 2.436 3.952 0 1.475.246 2.36-.646 3.082 0 0-.702.702-2.59.702-2.415.113-4.072-.133-3.37-2.316.639-1.987.562-3.777-.4-4.718m8.944-3.257c.098.133 4.682 0 4.682 0l1.713-2.071s.358-.78-.85-.702c-1.773.28-3.526.672-5.25 1.172 0 0-1.433.147-.295 1.6m-3.202-21.924a5.6 5.6 0 0 1 2.858 2.001l6.465-.063a9.9 9.9 0 0 0-4.76-1.6s-1.368-1.25-4.563-.338M23.56 174.642l4.97 2.345s-3.925 4.844-4.669 6.74l-3.826-1.749s-.288-1.228 1.102-3.51 2.422-3.826 2.422-3.826M17.824 182.73l9 4.443.014 2.05-1.257.611-.007.351-7.055-3.742-.134-.372-.603-.92z"/><ellipse cx="39.463" cy="123.142" fill="#c1c7cc" rx="2.047" ry="2.029"/><path fill="#ed0007" d="m55.234 123.739-11.527.491-.084-2.541 11.541-.253z"/><path fill="#002742" d="m139.5 393.8 5.5-6.6-.9-9.1 2-7.8 1.1-26.5-5.6-46.8c-.7-2.8 1.7-8.1 1.7-8.1s17-21.1 23.2-27.9c19.7-21.8 38.7-75.1 18-65.1-14.5 3.6-53 18.8-53 18.8s-10.4 23.8-14.1 32.2c-15.3 34.3-19.3 52.8-19.3 52.8l12.8 62.9-2.4 6.4 4.3 5.9-4 17.5-1.8 12.4 32.4-10.8z"/><path fill="#c1c7cc" d="M133.9 56.8c-3.1.9-6.3 1.2-9.5 1-.3 2.6-.6 5.4-.8 8.2 3.9-2.6 7.3-5.6 10.3-9.2"/><path fill="#c1c7cc" d="M123.5 65.3c-1 8.1-2.7 18.3-2.7 18.3l33-2.7L147 45s-.3-.6-.7-1.6c1.7-2 7.5-6.5 6.7-11.7-.4-2.2.4-3.6-1-5-3-3.2-7.4-6.9-9.9-3 3.1-8.4 0 .3 0 0-.6-3-.9-6.1-.9-9.2 0 0-10 0-21-.6s-9.8 9.2-13.4 8.1c.2 4.5.7 9.1 1.6 13.5.3 1.7.8 3.5 1.3 5.3 3.1 11 5.7 16.2 5.7 16.2 2.9.9 6 1.4 9 1.5 3 .2 5.9 0 8.8-.8-2.8 2.9-6.1 5.5-9.6 7.5z"/><path fill="#003e64" d="M175.2 288.9c14.4 30.7 17.6 41.3 17.6 41.3l28.5 26.7 3.9 13.7 14.9 19.8s39.6 28.2 39.2 23.2L256 351.3s-20.1-34.8-24.7-42.3c-3.8-6.3-9.4-35.1-10.9-39.1-5.3-14.2-12.2-46.8-24.8-74.7l-11.5 1-46.2 17.6c5.5 23.2 11.6 29.3 18.1 42.9zm-77-163.8c-.2-.8-.5-1.6-.7-2.3l-2.8 35.5 2.5.8 16 4.9-15.1-38.8z"/><path fill="#005587" d="m185.1 198-13.7-99.1 12.8-19.6-7.1-5-25.7-8.3-19.5 11.6-9.4-4.4-14.9 7.8c-8.6 4.3-17.4 21.7-14.1 37.3l12.4 46.7 7.5 23 5.6 17.8 5.9 14.5 8.2-1.6s9.8-4.1 13.1-5.5"/><path fill="#002742" d="m185.1 198 13.2-3.3-8.9-38.1-2.3-73-2.3-3.5-.5-.6v-.2l-13 19.7 13.7 99.1z"/><path fill="#595e62" d="M154.9 20.5c-.8-5.2-7.6-9.2-7.6-9.2s-.3-4-7-8.7-13.3-1.6-19-.9c-12.3 1.7-16.6 9.7-16.4 13.8v.7c-.3 4.1 2.3 8.9 2.3 8.9-.2-.4-.1-.9.1-1.3 1.1-1.5 3.2-4.3 4.8-5.2 2.2-1.3 3.5.3 9.9 1.6 6.4 1.2 12.4-3.8 12.4-3.8-2.7 10 3.9 6.3 5.8 9.1.8.7 1.6 1.3 2.5 1.8l-2.8 16.8s-1 1.4-3.9 1c-5.2-1.9-10.7-3-16.2-3.3-9.7-.5-9.4 1.5-9.4 1.5s-3.5 8.2.8 15.3c3.6 6 11 7.6 16.2 7.5 2 0 .3-1.2 2.5-3.7 1.4-1.7 9.7-1.3 12.3-5.4 1.8-2.8.8-6.7 0-9.8L141 41c1.7-3.4 7.6-16.7 12-9 1.6-3.5 2.2-7.4 1.9-11.3zm-25.8 27c0 3.3-12.3 9.4-18.2-2.2v-.6c3.7 3.1 17.4 1.2 17.4 1.2q.8 1.1.8 1.5z"/><path fill="#eff1f2" d="M145.413 25.496S125.5 30.5 116.9 29.6c-5.3-.8-12.1-4.1-12.1-4.1s1.2 7.1 1.9 9.3c1 2.8 5.2 5 6.9 4.6s.8-4.1 2.8-4 1.7 2.5 4.4 4.5 13-3.9 13.8-4.7 2-4.4 2-4.4l8.54-4.306z"/><path fill="#003e64" d="M116.9 31.3c-3.9-.7-7.8-1.7-11.6-3.1l-.5-2.7c3.9 1.4 8 2.5 12.2 3.2 8.5.8 28.7-3.7 28.7-3.7v1.7l-7 2.4c-6.7 1.2-16.5 2.7-21.8 2.2"/><path fill="#c1c7cc" d="m116.1 35.5-4.6 6.3c-.3.4-.5.9-.4 1.4 0 1.1.9 1.9 2 2 1.6.2 12.2-2.9 12.2-2.9l-5-2.5-4.1-4.3z"/><path fill="#005587" d="m185.3 273.6 32-7.7c4.7-20.3-9.6-43.7-16.3-52.8l-32.2 9.5s5.4 30.4 16.5 50.9z"/><path fill="#003e64" d="m177.6 235.2 32.7-10.5-9.5-11.9-31.9 9.8 8.8 12.6z"/><path fill="#43464a" d="m278 401.8-29.7-8.8-8.6 20.4 17 5.6 25.3 1.5z"/><path fill="#43464a" d="m259 391.9-22.2-2 4.8 21 17 5.6.3-24.6z"/><path fill="#43464a" d="M242.3 446.9c-6 2-28.3 1.7-30.5-1.9-2.4-4 0-9.6 3.6-12.2s8.1-3.6 12-5.8c4.2-2.4 10.2-8.9 12.2-13.5 15.1 4.6 26.9 1.8 42 6.4 1.3.4.8 15-.6 17-1.8 2.6-7.3 2.8-10.1 3.4-3.7.9-9-1.7-13.6-.7-5.7 1.3-10.6 5.7-15.1 7.3z"/><path fill="#2e3033" d="M212.1 436.8c1.9-1.6 8.7.9 9 6.6 6.1 2 12.5 2.8 18.9 2.4 5.7-.5 13.2-7.4 20.2-7.4 10.6 0 19.9-2.4 22.1-7.9 2.1 1.3 0 8-1.3 9.7-.8.9-1.9 1.5-3 1.9l-2.7.9c-.5.1-1.1.3-1.6.4l-2.7.4h-1.6l-2.7-.3c-1.4-.2-2.9-.3-4.4-.3-5 0-7.3 2.6-10.8 4.8l-2 1.2-1.2.6-2.6.9c-.4.1-.9.2-1.4.3l-3 .4h-1.5l-2.9.2H233l-1.1-.1-2.6-.2c-.5 0-1-.1-1.5-.1l-2.6-.3-1.1-.2-2.8-.5c-4.4-.9-7.6-2.1-8.6-3.1-2.6-2.8-2.6-8.4-.7-10.1z"/><path fill="#c1c7cc" d="m259.7 412.2-18.7-4.1.3 1.6 17.3 3.9zm-3.7 4.6-16.3-3.4-.6 1.2 15.8 3.5 1.1-1.4zm-4 5.1-14.2-5.2-1 1.3 14.1 5.3zm-3.4 4.3-13.9-5.5-1.1 1.2 13.9 5.7 1.1-1.3zm-3.1 3.9-14.2-6-1.2 1 14.5 6.2.9-1.1z"/><path fill="#43464a" d="m140.7 394.6-29.7-8.8-8.6 20.4 17.1 5.6 25.3 1.5-4-18.7z"/><path fill="#43464a" d="m121.7 384.7-22.2-2 4.8 21 17 5.6.3-24.6z"/><path fill="#43464a" d="M105 439.7c-6 2-28.3 1.7-30.5-1.9-2.4-4 0-9.5 3.7-12.2s8.1-3.6 12-5.8c4.2-2.4 10.2-8.9 12.2-13.5 15.1 4.6 26.9 1.8 42 6.4 1.3.4.8 15-.6 17-1.8 2.6-7.3 2.8-10.1 3.4-3.8.9-9-1.7-13.6-.6-5.7 1.3-10.6 5.7-15.2 7.3z"/><path fill="#2e3033" d="M74.8 429.5c1.9-1.6 8.7.9 9 6.6 6.1 2 12.5 2.8 18.9 2.4 5.7-.5 13.2-7.4 20.2-7.4 10.6 0 19.9-2.4 22.1-7.9 2.1 1.3 0 8-1.3 9.7-.8.9-1.9 1.5-3 1.9l-2.7.9-1.6.4-2.7.4h-1.6l-2.7-.4c-1.4-.2-2.9-.3-4.3-.3-5 0-7.3 2.6-10.8 4.8l-2 1.2-1.2.6-2.6.9c-.4.1-.9.2-1.3.3l-3 .4H96l-1-.1-2.6-.2h-1.5c0-.1-2.6-.5-2.6-.5l-1.1-.2-2.9-.5c-4.4-.9-7.7-2.1-8.6-3.1-2.5-2.8-2.5-8.4-.7-10.1z"/><path fill="#c1c7cc" d="m122.4 405-18.7-4.1.3 1.6 17.3 3.9zm-3.7 4.6-16.3-3.4-.6 1.2 15.8 3.6zm-4 5.1-14.2-5.2-1 1.3 14.1 5.3zm-3.4 4.3-13.8-5.5-1.1 1.2 13.9 5.7 1.1-1.4zm-3.1 3.9-14.2-6-1.2 1 14.5 6.2.9-1.1z"/><path fill="#43464a" d="m44.3 139.4-17.5 2s-.3 3.7-.3 4.5c0 4.5 17.8 14.1 17.8 14.1v-20.7z"/><path fill="#595e62" d="M64.6 156.1c3.2-6.8 5.3-3.4 2.7-14.4l-7.7-.9-15.3-1.4v20.7c-.1 0 19.7-2.9 20.3-4"/><path fill="#003e64" d="M183.4 77.2c-11.8-7.8-26.2 2.5-29.2 9.5-5.8 14-18.1 43.5-22.2 50l-64.9 2.1-3 18.7 83.3 7.2c5.4.5 10.5-2.4 13-7.2l27-52.9c3.4-10.5 3-21.2-4.1-27.5z"/><path fill="#ed0007" d="m71.8 146.1 2.1.3-1.5 9.2-2.1-.3z"/><circle cx="73.4" cy="143.2" r="1.5" fill="#c1c7cc"/></g></svg>