<svg xmlns="http://www.w3.org/2000/svg" data-name="Ebene 1" viewBox="0 0 1740.185 1868.778"><path fill="#43464a" d="m905.84 1628.712-31.562 96.176 23.858 105.868h52.934zm-39.266-174.459H813.64l39.017 174.955 31.562-96.176zm25.1-502.001H490.818l-105.62 322.821 53.183-.249 88.72-270.882h352.396z"/><path fill="#71767c" d="M242.165 1275.317c-22.212 2.808-21.484 23.366-21.484 23.366v133.205s-.218 20.364 22.616 20.379l83.75 1.988h425.21c-7.207-6.213-11.68-21.87-11.68-21.87V1292.72s3.23-13.917 9.195-17.893H438.133l-52.934.247z"/><path fill="#a4abb3" d="M1049.481 531.764c-35.537 0-66.353 24.602-74.305 59.147l-83.999 362.336-11.929 50.945-27.833 120.78c-7.207 30.815 12.177 61.63 42.993 68.839a57.3 57.3 0 0 0 12.923 1.49h606.627l156.565-663.536c2.734 0 5.467.249 8.2.497v-.497h-629.24zm43.626-221.386c-12.922 3.23-26.624 4.388-40.043 3.642-1.243 10.19-2.34 21.167-3.583 32.102 16.153-9.94 30.953-22.076 43.626-35.744"/><path fill="#0a4f4b" d="M1225.68 133.89c-4.225-41.751-54.177-66.85-54.177-66.85-4.225-70.828-91.702-45.727-91.702-45.727s-66.85-33.301-100.152-16.65c-33.302 16.65-8.45 62.625-20.875 79.275-12.426 16.9-16.65 41.751-16.65 41.751s-5.87 54.887 38.366 79.49c-3.977-21.373-6.217-43.237-7.21-65.107 16.402 5.716 36.936 10.469 60.545 6.741 50.2-8.698 95.928-41.999 95.928-41.999s0 58.401 4.224 79.276c.25 1.492.746 3.231 1.243 5.22 11.68-18.39 30.568-41.006 44.236-25.846 15.766 18.52-14.37 62.98-26.3 78.139a217 217 0 0 0 2.691 6.605c.249-.249 74.058-72.566 69.833-114.317z"/><path fill="#d0d4d8" d="M1040.287 422.168h147.37l-31.81-175.204s-.746-1.988-1.989-5.219c11.929-15.16 43.74-59.643 25.597-79.525-13.917-15.16-32.555 7.456-44.236 25.846-.496-1.74-.993-3.48-1.242-5.22C1130 161.972 1130 103.57 1130 103.57s-45.726 33.301-95.927 41.751c-23.36 3.977-44.982-.497-61.383-6.213.994 21.87 3.23 43.49 7.455 64.863 1.492 8.201 3.48 16.9 5.716 25.349 14.165 52.437 25.846 77.785 25.846 77.785 13.42 4.225 27.088 6.462 41.005 7.456 13.42.993 26.84-.25 39.762-3.728-12.674 13.668-27.337 25.597-42.993 35.289-4.722 39.514-9.195 76.046-9.195 76.046z"/><path fill="none" d="m827.309 1451.52 88.968-397.625h53.183l-89.217 397.626"/><path fill="#d0d4d8" d="M779.842 782.267 500.51 630.672l7.953 116.803 104.625 45.975s153.831 124.01 185.89 128.235c70.827 9.691 76.294-54.923 76.294-54.923z"/><path fill="#54aba4" fill-rule="evenodd" d="m330.526 1764.65 23.112 88.224H73.809c-28.33 0-55.42-12.675-73.312-34.544l-.497-.745 196.824-77.04 133.702 24.107zm354.383-8.946 8.698 113.074H504.984c-14.414 0-26.094-11.68-26.094-26.094 0-5.219 1.74-10.438 4.721-14.662l96.176-72.567z"/><path fill="none" d="m884.219 1533.033 25.845-78.78h-43.49z"/><path fill="#595e62" d="m910.336 1454.253 59.893-183.156H762.966c-12.177 0-21.87 9.692-21.87 21.869v139.417c0 12.177 9.692 21.87 21.87 21.87zm589.23-75.548c8.202-17.396 12.426-36.532 12.426-55.667v-8.201c0-24.107-19.632-43.739-43.739-43.739l-445.359.951-35.289 107.607z"/><path fill="none" d="m1023.387 1270.6-35.289 108.105h511.197c8.201-17.396 12.426-36.532 12.426-55.916v-7.704c0-13.171-5.964-25.846-16.403-34.048l19.136-85.738h-.746l12.675-54.175 19.632-87.23h.497l11.93-49.703h-447.825l-87.23 266.41z"/><path fill="#595f63" d="M1678.226 533.006c-2.734-.249-5.467-.497-8.2-.497l-99.158 420.986-11.93 50.946-11.68 49.454-20.626 86.981-12.675 54.176h49.703c1.243 0 2.734 0 3.977-.249 22.366-1.74 41.005-17.893 46.224-39.762l124.507-537.291c8.698-37.526-14.663-75.052-52.189-83.75-2.982-.249-5.467-.746-7.952-.994z"/><path fill="#2e908b" d="m1176.97 362.524-102.903 30.32-26.325-30.32-45.23 25.349-67.348 627.254c107.11 18.39 235.593 58.898 345.934 144.884l43.97-719.95z"/><path fill="#a1dfdb" d="m903.301 829.082-14.91-243.048c-1.74-21.62-3.977-42.994-3.977-62.875 0-8.698.497-17.645 1.74-26.343.745-4.224 1.49-8.449 2.485-12.674l-108.295 298.56 90.153 79.929 5.716 4.97 24.354-24.354 2.734-14.166z"/><path fill="#032b28" d="M870.302 1006.429c-92.696-9.94-157.31-3.977-157.31-3.977v1.243c92.447 10.685 176.197 54.176 142.4 275.107h197.32c47.467 15.656 134.199 23.61 173.713-15.905 39.513-39.513 55.419-102.636 55.419-102.636-110.093-85.987-238.824-126.246-345.934-144.884q-34.668-5.592-65.608-8.947z"/><path fill="#02201e" d="M422.765 1061.579 199.1 1740.772l133.701 24.106c99.903-207.262 170.98-295.734 196.825-511.694l138.671 5.22 34.793-202.043z"/><path fill="#053634" d="m713.973 1003.197-2.236-.248-9.195 53.43-34.792 202.043-85.987 497.28 107.359 41.503c99.157-236.587 149.606-402.347 167.25-518.9 33.8-220.93-49.951-264.172-142.399-275.108"/><path fill="#032b28" fill-rule="evenodd" d="m1075.4 385.64 41.502 30.07-30.07 38.77 17.147 38.52-10.438 424.961-42.746 55.668-47.218-64.366L1037.872 493l23.36-38.52-21.621-34.544 35.788-34.296z"/><path fill="#def5f3" d="M1325.068 440.062c-44.733-23.195-89.466-53.846-134.199-77.04l-57.158 273.367-74.555 733.121 347.922-99.406-116.802-216.209zm-491.725 563.264 42.247-365.028 2.15-71.203c4.97-62.42 4.97-114.359 54.673-144.43l94.436-52.188-39.763 193.842s-28.883 427.6-32.307 454.784c-37.277-7.455-77.04-12.426-121.436-15.777"/><path fill="#b6ede8" d="m1488.112 940.572-95.928-425.956c-16.65-54.922-51.194-80.022-94.187-77.288-68.839 10.19-75.3 100.4-71.324 140.162 11.432 116.803 67.845 243.794 83.999 277.84 82.01-8.449 151.594 10.439 177.44 85.24z"/><path fill="#8a9097" d="M1495.07 1280.541c10.438 8.2 16.651 20.875 16.651 34.047v8.2c0 19.384-4.224 38.52-12.425 55.917H988.099l35.289-107.856 87.23-266.657h447.824l12.177-51.69h-496.534l-104.128 317.85-60.14 183.654-25.846 78.78-31.561 96.176-66.106 202.291h53.182l34.544-105.868 31.561-96.176 55.916-170.73h460.997l86.235 384.454h53.182l-86.235-384.454h5.716c41.999 0 76.046-34.048 76.046-76.046v-3.48h-30.816l42.126-184.246c-1.243 0-3.286.283-4.528.283l-50.273.062-18.886 85.49z"/><path fill="#d0d4d8" d="m1025.127 894.845-86.731-46.224-55.42 21.373 10.438 14.166 36.284-4.722 9.692 9.443z"/><path fill="#0a4f4b" d="M846.444 836.692H956.04v172.53l-109.805-5.29z"/><path fill="#d0d4d8" d="M1254.756 833.462c-80.271 11.928-165.76 39.513-229.629 61.383l-106.116-7.206 17.148 117.796c31.561 5.715 109.595-19.136 109.595-19.136s442.607-43.242 442.358-46.224c-1.74-12.675-4.97-25.1-9.94-37.03-31.562-75.051-123.512-84.494-223.416-69.583"/><path fill="#b2b9c1" d="M919.011 887.639 824.575 919.2s-1.491 23.111 24.852 50.448c25.348 26.094 83.501 34.792 86.98 36.035z"/><ellipse cx="1153.644" cy="619.337" fill="#2e3033" rx="31.064" ry="24.603" transform="rotate(-63.987 1153.644 619.337)"/><path fill="none" stroke="#101112" stroke-miterlimit="10" stroke-width="4" d="m1153.592 599.112 49.703-188.872c8.674-25.907.437-49.848-14.91-57.159-9.301-4.43-19.445-1.912-24.852 0"/><ellipse cx="1146.189" cy="614.367" fill="#43464a" rx="23.817" ry="18.863" transform="rotate(-63.987 1146.189 614.367)"/><path fill="none" stroke="#101112" stroke-miterlimit="10" stroke-width="4" d="m969.69 464.913 19.881-57.158c5.9-17.773 19.882-37.278 39.763-44.733 6.315-2.368 9.76-4.315 15.305-5.51"/><path fill="none" stroke="#101112" stroke-miterlimit="10" stroke-width="4" d="M895.135 614.023c-7.455-7.456-24.851-12.426 7.456-86.98 14.639-33.783 37.277-72.07 67.1-62.13 32.837 10.946 26.012 60.357 17.395 91.951-22.366 82.01-42.247 74.555-54.673 69.584"/><path fill="#b6ede8" fill-rule="evenodd" d="M1134.032 440.878s-43.74-33.052-58.65-55.171c-.994-1.492 32.556-3.977 58.152-21.124 28.33-18.888 37.438-31.564 37.438-31.564l19.897 30.003-3.993 19.062c-13.92 15.228-40.625 43.916-52.845 58.794"/><path fill="#b6ede8" fill-rule="evenodd" d="M1075.4 385.64s-26.383-15.16-26.134-37.775l-.002.002-.092.065-.072.052c-.057.04-.118.083-.204.146l-.162.118-.288.21-.233.173a71 71 0 0 0-1.129.852 90 90 0 0 0-.91.707l-.388.305-.666.533-.388.313c-.295.24-.605.495-.922.757l-.226.187q-.595.495-1.23 1.04l-.37.321c-.307.265-.615.533-.933.813-.165.146-.335.3-.503.45q-.428.381-.867.78-.276.253-.558.514a115 115 0 0 0-1.453 1.367 107 107 0 0 0-2.342 2.317c-.204.208-.407.414-.61.626q-.46.479-.919.971c-.186.2-.372.395-.559.597-.359.39-.715.79-1.072 1.192-.117.132-.235.259-.352.392l-.046.054c-.191.219-.379.444-.569.666-.256.3-.514.597-.767.902-.193.232-.38.47-.57.704-.247.303-.494.605-.737.914q-.285.368-.565.74c-.233.305-.468.61-.697.92-.189.255-.37.516-.555.775-.186.26-.378.518-.56.781l.003.005c-4.073 5.891-7.062 12.442-7.062 18.994 0 20.627 10.438 51.691 10.438 51.691l24.865-30.497z"/><path fill="#979ea4" d="m425.616 430.128 150.797 388.016 264.541 1.98-151.228-389.996z"/><path fill="#fff" d="M644.918 516.552H533.313l-18.08-43.519h111.605z"/><path fill="#d0d4d8" fill-rule="evenodd" d="M500.262 630.672 609.36 634.4c2.982 22.367-10.666 54.39-30.816 67.348l-70.081 45.727z"/></svg>