<svg xmlns="http://www.w3.org/2000/svg" viewBox="0 0 641 489"><g fill="none" fill-rule="evenodd"><path fill="#43464A" fill-rule="nonzero" d="m281.27 252.76-6.93 21.13-.65 1.99-69.32 211.44h-15.72l69.56-212.44.66-1.99 6.91-21.12z"/><path fill="#00884A" d="m401.87 222.26 23.79-76.86-1.78 88.89z"/><path fill="#A4ABB3" d="M400.32 207.85 420.1 214l.42-61.97z"/><path fill="#43464A" fill-rule="nonzero" d="m57.55 359.96-8.18 24.9-33.66 102.46H-.02l32.91-100.19 8.17-24.89z"/><path fill="#8A9097" fill-rule="nonzero" d="M21.4 434.62a7.87 7.87 0 0 1 7.87-7.87h128.47v15.74H29.28a7.87 7.87 0 0 1-7.87-7.87zm188.67-.01a7.87 7.87 0 0 1 7.87-7.87h128.47v15.75H217.95a7.87 7.87 0 0 1-7.88-7.88"/><path fill="#43464A" fill-rule="nonzero" d="m448.81 348.66 1.07 2.55 9.17 21.7 48.32 114.41h-36.1l-49.33-116.79-10.24-24.24z"/><path fill="#8A9097" fill-rule="nonzero" d="m454.83 263.88-1.24 23.51-179.9-11.51-15.48-1-15.75-1 1.8-23.48 21.52 1.37 15.49.99z"/><path fill="#C1C7CC" fill-rule="nonzero" d="m622.05 111.33-78.32 239.14h15.73L636.33 116z"/><path fill="#8A9097" fill-rule="nonzero" d="M489.4 111.33h132.65l-77.13 235.52-129.93-8.31z"/><path fill="#C1C7CC" fill-rule="nonzero" d="m191.3 359.96-8.18 24.9-33.67 102.46h-15.72l32.9-100.19 8.18-24.89z"/><path fill="#8A9097" fill-rule="nonzero" d="M150.46 363.69v25.67H16.71l-3.83-23.24z"/><path fill="#8A9097" fill-rule="nonzero" d="m146.63 366.12 227.35-31.315-136.83.375-224.27 30.94z"/><path fill="#5EBD82" fill-rule="nonzero" d="M379.09 335.14a550 550 0 0 1-80.94-13.89c-14.62.1-49.23 13.89-49.23 13.89-44.94 21.32-91.29 21.14-140.94 24.18-15.13.92-30.55 2.15-46.33 4.37l-3.67-20.23 50-15.64 176.37-62.15 21.81 4c15.34 2.74 34.78 11.13 43.57 16.66 14.25 8.93 29.36 48.81 29.36 48.81"/><path fill="#D0D4D8" fill-rule="nonzero" d="M58.61 343.28 2.04 301.14l-.1.24a29.05 29.05 0 0 0 3.64 24.58l36.95 55.29 19.8-17.73z"/><path fill="#00884A" d="m392.65 209.59-56.08-42.4-26.89 26.38 24.1 7.2s65.66 82.45 104.5 42.89z"/><path fill="#71767C" fill-rule="nonzero" d="m385.3 197.25-27.71-72.17a7.53 7.53 0 0 0-6.83-4.78h-3.39a7.37 7.37 0 0 1 6.4 4.71l27.71 72.13a7.43 7.43 0 0 1-4.34 9.56 8.6 8.6 0 0 1-2.72.51l3.83.07a7.35 7.35 0 0 0 7.49-7.34 7.2 7.2 0 0 0-.44-2.69"/><path fill="#C1C7CC" fill-rule="nonzero" d="M374.64 207.14a7.38 7.38 0 0 0 7.06-10l-27.64-72.09a7.23 7.23 0 0 0-6.39-4.71h-.44l-43.36-.59a7.38 7.38 0 0 0-7.06 10.07l27.64 72.1a7.33 7.33 0 0 0 5.58 4.63q.619.122 1.25.14l43.36.52z"/><path fill="#5EBD82" d="m307.4 160.5 30.86 1c.89 6.32-2.79 16.83-8.74 19l-19.84 13z"/><path fill="#00884A" fill-rule="nonzero" d="M489.99 87.65c-.71 2.8-1.51 5.72-2.25 8.66 4.796-2.042 9.29-4.524 13.31-8.06-3.914.093-7.298 0-11.06-.6m54.06-42.14c.58-11.43-12-20.2-12-20.2C533.8 5.95 509.1 9.2 509.1 9.2S492.36-2.49 482.67.69s-4.76 16.6-8.85 20.6-6.17 10.6-6.17 10.6-3.93 14.72 7.13 23.07c-.216-5.923.087-11.762.675-17.66 5.03 2.677 10.448 3.93 16.145 3.96 14.936-.234 27.542-7.223 27.542-7.223S516.88 49.62 517.13 55.45c-.013.475-.073 1.644 0 2.114 3.93-4.47 9.95-10.594 13.09-5.894 4.13 6.19-6.55 17.09-10.18 20.56.31 1.38.49 2.23.49 2.23s22.97-17.51 23.45-28.95z"/><path fill="#5EBD82" fill-rule="nonzero" d="M487.74 96.31c-2.78 10.28-4.57 19.19-4.57 19.19l38.81-13.19-1.35-27.87-.49-2.23c3.71-3.46 14.4-14.43 10.18-20.56-3.23-4.7-9.1.74-13 5.2a12 12 0 0 1-.09-1.42c-.25-5.83 2.09-21.61 2.09-21.61S505.56 41 491.7 41.25a35.7 35.7 0 0 1-16.36-4.11 119 119 0 0 0-.56 17.82c.1 2.32.28 4.65.59 7.07 1.75 14.75 3.86 22 3.86 22a48.6 48.6 0 0 0 10.75 3.62 32.8 32.8 0 0 0 11.06.6 55 55 0 0 1-13.31 8.06z"/><path fill="#C1C7CC" fill-rule="nonzero" d="m485.69 307.75 43.8-160.88 31.41-24.73-39.15-25.12-38.58 18.48 3.67-15.77-38.17 15.32c-15.21 8.31-26.21 23.23-28.83 39.32-.2 1.1-.32 2.2-.44 3.31l-1.77 56.29.72 26.75-12.92 67z"/><path fill="#E0E2E5" fill-rule="nonzero" d="m511.85 307.61.75-3 48-182.55v-.08z"/><path fill="#A4ABB3" fill-rule="nonzero" d="M485.37 307.76h26.46l48.74-185.57v-.14l-.08.07-31.34 24.77z"/><path fill="#E0E2E5" fill-rule="nonzero" d="M481.23 152.03h27l-1.25 7.35h-27z"/><path fill="#B8EFC9" fill-rule="nonzero" d="M107.98 327.82v31.5l-4.18.26c-2.09.13-4.2.28-6.3.43-1.7.12-3.41.25-5.11.39-10.11.8-20.34 1.83-30.74 3.29l-3.67-20.23 28.72-9 4.86-1.52 6-1.87 4.86-1.51z"/><path fill="#232628" fill-rule="nonzero" d="m302.94 271.64 5.28 53.54 62.67 10 15.89-51.88z"/><path fill="#86D7A2" fill-rule="nonzero" d="M334.11 313.91c-13.91 1.86-27.64 13.4-43 21.13-22.2 11.14-56 14.39-100 19.13-17.47 1.88-36.75 3.47-58 4.74l-2.3-20.21 52.87-17.94 133.79-55.06 14.12 1.44z"/><path fill="#43464A" fill-rule="nonzero" d="M511.82 307.77s-4.7 18.74-16.39 30.43-37.48 9.4-51.51 4.7c0 0-43.34-4.32-57.65-6.73-12.94-2.18-51.29-11.33-51.29-11.33l-.89-10.93-2.5-46.77s47.62 4.29 85.64 9.64c27.6 3.9 85.29 23.73 94.59 30.99"/><path fill="#B2B9C0" fill-rule="nonzero" d="m591.7 372.91-10.24-24.25-37.11-2.37-173.46-11.11-6.93.96 6.93-.96-179.59 24.78-16.49 2.28-28.18 3.88 3.83 23.24 16.18-2.23 16.48-2.27 188.58-26.03 182.89 11.7 49.33 116.79h36.1z"/><path fill="#5EBD82" fill-rule="nonzero" d="m92.23 332.88-4.86 1.52 5.72 25.92 5.11-.39zm10.84-3.38-4.86 1.51 6.3 28.49 4.17-4.57z"/><path fill="#D0D4D8" fill-rule="nonzero" d="m130.69 338.7-55.32-44.78-.11.24a29.05 29.05 0 0 0 2.62 24.75l34.64 56.78 20.46-16.77z"/><path fill="#5EBD82" fill-rule="nonzero" d="m459.71 218.14-16.92-20.35-16-.32 1.15 4.55 9.53 2.61 1.41 3.32z"/><path fill="#00884A" fill-rule="nonzero" d="M574.33 265.65v-68.18c-.07-26.3-7.77-55-7.77-55-2.29-14.75-9.79-22.49-21.51-23.25-18.14.21-17.73 22.4-18.1 32.82-.73 19.85 3.16 56.05 6.88 71.28 26.24 7.34 34.79 16.67 34.92 35.84z"/><path fill="#E0E2E5" fill-rule="nonzero" d="M581.25 196.69s-9.44-41.58-11.71-55.49c-2.47-15.37-8.76-22.93-21.4-24.91-18.88-.72-28 23-27.71 33.89l1.33 52.3zm-143.778 20.428-4.848-1.826 25.32-67.22 4.847 1.826z"/><path fill="#43464A" d="M418.35 240.72h27.6l4.71-58.66h-37.02z"/><path fill="#86D7A2" fill-rule="nonzero" d="M523.77 220.96c-21.5-4-45.37-3.54-63.47-3.56l-26.43-15s-.714 7.998-1.246 15.925c-.535 7.985-1.516 15.698-1.55 15.693 7.87 2.61 26.416 4.662 26.416 4.662s116.66 27.71 116.84 26.94c-5.58-34.48-23.78-39.67-50.56-44.66"/><path fill="#5EBD82" fill-rule="nonzero" d="M410.04 202.43s-2.45 5.78 1.88 15c4.14 8.9 7.54 13.13 19.95 16.79l2.17-31.79z"/><path fill="#C1C7CC" fill-rule="nonzero" d="m398.12 251.82-6.9 21.07-.67 2.02-69.56 212.41h15.73l69.3-211.38.66-2.01 6.91-21.08z"/><path fill="#B2B9C0" fill-rule="nonzero" d="m601.91 265.46-1.57 23.49-202.48-13.55-15.46-1.04-7.29-.48 1.8-23.48 13.05.87 15.47 1.04z"/><path fill="#B8EFC9" fill-rule="nonzero" d="M199.38 353.28c-2.6.28-5.43.57-8.42.87l-5.08.51-6.27.59-5.09.47c-13.75 1.24-28.78 2.43-41.53 3.19l-2.3-20.21 37.29-12.79 4.82-1.65 5.94-2 4.83-1.66 7.75-3z"/><path fill="#5EBD82" fill-rule="nonzero" d="m183.54 320.56-4.83 1.66 7.17 32.44 5.1-.52zm-10.77 3.7-4.79 1.65 6.57 29.81 5.09-.47z"/></g></svg>