<svg xmlns="http://www.w3.org/2000/svg" viewBox="0 0 293 724"><g fill="none" transform="translate(.653 .316)"><path fill="#0096E8" d="M223.713 240.404c.28.11.63.3.91.41l27.62 108.36 9.48 36.33a15.72 15.72 0 0 1-13-3.52c-4.23-3.56-9.36-8.26-10.29-10.37-6.88-15.72-6.41-34.1-6.41-34.1l-33.32-68.78-.6-1.11a18.9 18.9 0 0 1-2.19-10c.61-12.89 14.26-23.36 27.8-17.26z"/><path fill="#8A9097" d="m224.523 135.014 3.45 104.86-31.49 12.78 4.86-92.52z"/><path fill="#B2B9C0" d="m220.123 712.344-.15.22a25.83 25.83 0 0 1-19.91 9.44h-76l6.24-30.5h36.45l53.36 20.87zm-158.3-20.97 6.54.08 4 30.49h-51.36a7.14 7.14 0 0 1-5.88-11.17l27.33-19.55z"/><path fill="#001D33" d="m150.003 296.324 23-.05 5.57 41.06v-.08l-4.49 161.32-7.06 193h-39.2c-9.18-110.68-13.44-95.42-1.76-176.92 4.85-33.66.22-65.7-6.46-96 7.2-29.69 15.21-59.16 21.82-75.25 6.54-15.88 8.16-37.26 8.53-47.11z"/><path fill="#003253" d="M42.483 691.224c0-153.82-20.8-148.38 16.31-214.3 4.48-8.08 5.14-20 4.78-34.17-.22-7.21-.37-14-.59-20.29l1.1-64.46s2.21-48.95 2.14-61.51h40.43l43.78-.16c-.44 9.85-2.05 31.25-8.6 47.27s-14.55 45.57-21.83 75.26c-11.1 45.86-20.51 92.45-20.51 92.45l-31.13 180.14z"/><path fill="#56B0FF" d="m208.003 71.694-13.72-3.61c-7.8 3.85-9.43-.67-10.67-12a97 97 0 0 1 .25-19.64c4-2.57 10-5.44 8.92-14.57 0 0 7 8.64 16.26 8.61s11.11-1.43 14.25.48 4.69 5.21 5.44 7.54c-.05.44-.07.82-.11 1.26a80 80 0 0 1-2.62 8.44 108 108 0 0 1-8.23 17.8c-.38.58-.72 1.25-1.1 1.84v-.08c-2.75 5.43-6.38 9.38-8.61 4.07z"/><path fill="#56B0FF" d="m170.283 61.714 1.81-3.63c-2.41-7.49-5.59-20.18-.43-23.52 4.77-3.06 7.31 2.09 8.46 6a34 34 0 0 1 .91 4l-3.94 10.73c-1.18 3.26-4.76 14.63-5.07 16.07-1.59 7.94 5.27 14.72 12.29 16.61l8.69 2.36c-1.61 11.13-3.15 22-3.15 22l-38.5-10.33 18.93-40.27z"/><path fill="#003253" d="m197.233 90.354-39.82-10.67-2.19 8.16 39.83 10.67z"/><path fill="#004975" d="m179.253 244.134-6.25 52.14-66.32.23 24.63-66.5c17-78 14.39-139.47 14.36-139.63l10.41-3.08 38.33 10.27 17.81 18.66z"/><path fill="#C1C7CC" d="m145.733 90.274-23.62 7.31c-5.26 1.44-13.42 8.78-13.44 8.8q-1.89 2.36-3.72 4.74c-34.19 44.8-47.24 98-52.15 149.89v.05c-2 20.81-2.64 41.42-2.84 61.17 0 0 19 8.42 56.7 14.78l38.46-143.59c14.32-62.62.57-103.01.61-103.15"/><path fill="#D0D4D8" d="m173.003 296.274 6.11-52.1 33-128.09.59.61 6.47 6.53c12 12.43 8.81 26.38 4.88 37.84-16.13 47.08-24.05 85.71-40.68 191.58l-5.25-.3"/><path fill="#E0E2E5" d="M176.393 11.864s1.46-5.47 12-10.25 18.69 2.45 26.73 3.78 17.54 1.33 22.88 6.15c4.84 4.31-1.58 10.93-3.56 16.34 1.31 4.93 2.14 15.83-8.56 20.48 1.79-5 2.7-8.38 2.7-8.38l.12-1.32c-.73-2.3-2.23-5.63-5.4-7.53s-4.89-.49-14.21-.43-16.23-8.55-16.23-8.55c1.09 9.08-4.84 11.93-8.84 14.54a97 97 0 0 0-.29 19.54c1.27 11.28 2.9 15.64 10.61 11.77l13.78 3.7c2.26 5.26 5.62 1.42 8.58-4v.07a33.2 33.2 0 0 1-.76 9c-1 3.92-7.22 8.21-7.84 10.52l-1.88 7-22-5.88c-7.06-1.9-13.94-8.7-12.33-16.68.33-1.49.91-3.67 1.75-6.23 1-3.11 2.24-6.68 3.35-10l4.01-10.85a34 34 0 0 0-.88-4c-1.18-4-3.66-9.09-8.46-6s-2 15.88.48 23.46l-1.91 3.8s-7.48-24.7-4.37-40.25c1.59-7.31 10.58-9.79 10.58-9.79z"/><path fill="#232628" d="m167.383 286.714-1.82-3.16a14.7 14.7 0 0 0-12.73-7.35h-18.1a7.34 7.34 0 0 0-6.62 10.51z"/><path fill="#D0D4D8" d="M129.843 128.174c-8.24 13.83-72.97 101.65-77.04 132.83 4.91-51.87 18-105.09 52.15-149.89 16.14 5.81 27.92 11.99 24.89 17.06"/><path fill="#0096E8" d="M126.383 304.274c-5.53-.69-14.1-13.09-14.1-13.09l22.42-20.24 19.58 31.55s-22.36 2.51-27.9 1.78"/><path fill="#56B0FF" d="M10.413 160.274c16-6.71 32.52 2.26 48 17.78 22.07 22.24 42.16 57.92 55.78 80.55 1 1.6 20.53 12.34 20.53 12.34l-22.42 20.24-12.3-19.61s-100.64-103.98-100-104.57a36.3 36.3 0 0 1 10.41-6.72z"/><path fill="#E0E2E5" d="M117.373 99.094c11.74-.64 20.49 10.16 16.26 21.13-3.78 9.8-10.34 18.72-19.93 27.6-14.24 13.18-55.09 29.83-55.09 29.83l-58.61-10.65c42.66-40.81 96.79-66.78 117.37-67.91"/><path fill="#8A9097" d="M181.613 307.444h-98.13a7.35 7.35 0 0 0-6.36 11l70.22 121.64a14.72 14.72 0 0 0 12.73 7.35h98.13a7.35 7.35 0 0 0 6.37-11l-70.23-121.64a14.7 14.7 0 0 0-12.73-7.35"/><path fill="#8A9097" d="m288.623 420.084-25.45 25.45-159.8-161.02-25.45 25.45z"/><path fill="#C1C7CC" d="M206.763 282.294h-98.13a7.35 7.35 0 0 0-6.36 11l70.23 121.71a14.69 14.69 0 0 0 12.72 7.34h98.13a7.35 7.35 0 0 0 6.37-11l-70.23-121.7a14.7 14.7 0 0 0-12.73-7.35"/><path fill="#8A9097" d="M227.063 342.454h-61.39a7.35 7.35 0 0 0-6.36 11l31.77 51.63a14.7 14.7 0 0 0 12.73 7.35h61.38a7.34 7.34 0 0 0 6.36-11l-31.77-51.64a14.69 14.69 0 0 0-12.72-7.34"/><path fill="#232628" d="M139.113 396.434a5.52 5.52 0 0 1-4.78-2.76l-21.21-36.74a5.51 5.51 0 1 1 9.54-5.51l21.22 36.74a5.52 5.52 0 0 1-4.77 8.27"/><path fill="#383B3E" d="m193.883 434.254 1.09 22.54 9.51.03-.85-22.55z"/><ellipse cx="203.94" cy="445.543" fill="#383B3E" rx="9.13" ry="11.29" transform="rotate(-.74 203.94 445.543)"/><ellipse cx="194.021" cy="445.551" fill="#232628" rx="9.13" ry="11.29" transform="rotate(-.74 194.02 445.55)"/><path fill="#383B3E" d="m246.993 434.644 1.08 22.54 9.51.03-.85-22.55z"/><ellipse cx="257.041" cy="445.937" fill="#383B3E" rx="9.13" ry="11.29" transform="rotate(-.74 257.04 445.937)"/><ellipse cx="247.122" cy="445.935" fill="#232628" rx="9.13" ry="11.29" transform="rotate(-.74 247.122 445.935)"/></g></svg>