<svg xmlns="http://www.w3.org/2000/svg" viewBox="0 0 840 1000"><path fill="#72ca92" d="m124.9 288.4-18.4-10.6S97.2 324 94.8 335l-52 129.2L2 500.3l3.4 10.1 19.6-9.6-22.9 35 9.3 3.7c6.9 2 16 1.8 23-.8 8-3.6 15.5-10.5 17.3-13.5C64.9 503.6 66 474.4 66 474.4l63-93.9z"/><path fill="#a4abb3" d="m379 482.3-4.7 6.3-3.8 3.8c.9 4.6 8.3 24.5 10.2 38.4l10.2-17 10.2-9.9z"/><path fill="none" d="M343.6 494.3v.2z"/><path fill="#5ebd82" d="M191.7 125.7c-.4 4.2-1 8.8-1.4 13.1 6.4-4 12.2-9 17.2-14.7-5.1 1.4-10.5 2-15.8 1.6"/><path fill="#00884a" d="M258.1 56.1c-1.6-16.1-20.8-25.6-20.8-25.6C235.6 3.2 202 12.8 202 12.8S176.3 0 163.5 6.4s-3.3 24.1-8 30.5C150.7 43.3 149 53 149 53s-2.3 21.3 14.7 30.6c0-.1-.1-.3-.1-.4-1.5-8.2-2.5-16.6-2.8-25 7.5 2.8 15.6 3.6 23.5 2.4 19.2-3.3 36.9-16.1 36.9-16.1s0 22.5 1.6 30.5c.1.7.2 1.3.4 2 4.4-7.1 11.7-15.8 17-10 7.1 7.7-5.2 24.9-9.8 30.6.5 1 .8 1.8.9 1.9s28.4-27.3 26.8-43.4"/><path fill="#00210e" d="M419.2 895.1c-64.8-158.3-54.5-146.9-114.6-226.5-8.3-9.3-20.3-21.5-23.8-40.3-5.8-30.1-15.7-78.3-21.2-107.6l-5.5 8.6c-11.9 22.8-33.8 71.8-40.1 88.4-3.6 9.6-8 21-11.5 32 7.8 11 13.7 17 13.7 17l166 266.1 10.6-3.2 22.3-15.3z"/><path fill="#551151" d="m245.5 412.4-3.6 54.5z"/><path fill="#00381b" d="M239.9 497.1s-40.3.1-64.8-.4c-11.4-.2-21-.9-28.1-1.5-17.9 67.7-30.1 163.6-30.1 163.6L102 957.6l6.7 1.5 26.6 3.1 14.4.3c46.6-204.5 40-194.9 46.6-286.9 1.6-15.4 11-40 17.7-57.9 6.3-16.5 28.2-65.5 40.1-88.4l13.8-21.4c2-3.8 4-7.4 5.7-10.9z"/><path fill="#c1c7cc" d="M239.6 144.1h-48.3l-1.6.2-40 23.2a57.53 57.53 0 0 0-27.9 49.3v.8c0 1.4.1 2.8.2 4.2l12.2 272.1s16.5 2.4 41 2.9 64.8.4 64.8.4l18.2-275.9c-3.6-14.6-2.7-38 15.6-45.7l1-.5c5.2-1.4 14.2-1.8 20.4.9zm-5.9 69.4v9.3h-34.3v-9.3z"/><path fill="#a4abb3" d="M121.9 221.8c-.1-1.5-.2-2.9-.2-4.2v-.8l-19.2 58.7 22.6 16.2zm139.4 8.3-.3-.6c-1.3-2.6-2.3-5.4-2.9-8.2l-18.2 275.9 49.3-.1-3.3-221c-2.7-4.7-13.8-24.6-24.6-46"/><path fill="#e0e2e5" d="M313.2 193c-6.5-10.9-14.1-16.7-22.6-18.5-5.2-1-10.7-.8-15.8.5l-1 .5c-18.3 7.7-19.2 31.1-15.6 45.7.7 2.8 1.6 5.6 2.9 8.2l.3.6c10.8 21.4 21.9 41.3 24.5 46 .4.7.6 1.1.6 1.1l.9-.4 57.3-24.6 8.6-3.6zm-113.8 20.5h34.3v9.3h-34.3z"/><path fill="#86d7a2" d="M240.4 67c-5.3-5.9-12.6 2.9-17 10-.2-.6-.3-1.3-.4-2-1.6-8-1.6-30.5-1.6-30.5s-17.7 12.8-36.9 16.1c-7.9 1.2-16 .4-23.5-2.4.3 8.4 1.3 16.7 2.8 25 0 .1.1.3.1.4.6 3 1.3 6.1 2.1 9.4 5.4 20.2 10 29.8 10 29.8 5.1 1.6 10.5 2.6 15.8 2.9s10.7-.2 15.8-1.6c-5 5.7-10.8 10.7-17.2 14.7-.2 1.8-.4 3.7-.6 5.4l.3-.2h49.6l-8.1-44.5c-.1-.2-.4-.9-.9-1.9 4.5-5.7 16.8-22.9 9.7-30.6"/><path fill="#232628" d="m336.1 955.6.1.3c4.2 9.9 12.6 17.5 23 20.5L438 1000l3.4-38.9-26.4-10.3z"/><path fill="#00884a" d="m115.7 960.1-72.3 25.2.2.3c6.5 8.2 16.4 13 26.9 13.2l79.9 1.3-7-37.3h-.2c0-.1-27.5-2.7-27.5-2.7"/><path fill="#72ca92" d="M362.2 539c-4.3 10.7-9.6 18.5-19.7 17.7h-7.8l-2.3 9.2c9.5 5.5 25.7 1.5 31.5-6.3 5-6.5 15.9-18.3 16.9-20.6z"/><path fill="#86d7a2" d="M370.3 491.6c4.6-43.8 16.5-129.9 2-169.6-3.9-20-11.9-48.8-27.6-69.8l-57.3 24.6c12.9 25 28.6 49.2 37.9 63 5 34.7 9.7 97.7 14.2 127 2.3 15.7 4 26.5 4.1 27.4L318 538.1l6.1 7.4 10.8-9.3 5.2-18.3v-.1l23.6 17.5c-.5 1.3-1 2.6-1.5 3.8H381c1.6-13-11-44.9-10.7-47.5m-26.7 2.6v.2z"/><path fill="#43464a" d="M554.4 424.1h-12.5c-1.2 11.1-4.8 43.7-4.9 44.7 9.2-19.4 14.5-34.1 17.4-44.7M534 474.8c-.5.9-1 1.9-1.4 2.9.5-1 1-2 1.4-2.9"/><path fill="#656a6f" d="M602.2 424.3v-.1h-47.8c-2.9 10.5-8.1 25.3-17.4 44.7-.9 1.9-1.9 3.9-2.9 6-7.5 15.1-16.8 31.6-24 50.5-12.6 33-22.2 69.9-30.2 95.6-6.9 22.3-11.2 37.5-11.2 37.5l-60.5 289.9 6.6 2.5 26.6 10.2 13.7 5.3c78.5-201.1 76.8-181.6 91.5-278.8 1.4-10.6 33.4-65.1 61.6-110.7z"/><path fill="#43464a" d="M714.7 678.5c-5.3-8.8-17.5-30.7-27.5-49.4l-18.1.8-59 2.6-2.1-55.8c-7.7 12.5-15.7 25.6-23.2 38.3 18 39.8 46 92.7 46 92.7L784 928.9l3.3-2.3 25.9-17.7 10.6-7.3c-57.3-137.4-80.4-171.3-109.1-223.1"/><path fill="#656a6f" d="M602.2 424.3v-.1h-47.8c-2.9 10.5-8.1 25.3-17.4 44.7-.9 1.9-1.9 3.9-2.9 6-7.5 15.1-16.8 31.6-24 50.5-12.6 33-22.2 69.9-30.2 95.6-6.9 22.3-11.2 37.5-11.2 37.5l-60.5 289.9 6.6 2.5 26.6 10.2 13.7 5.3c78.5-201.1 76.8-181.6 91.5-278.8 1.4-10.6 33.4-65.1 61.6-110.7z"/><path fill="#a4abb3" d="M564.8 135.7c6-3.7 11.6-8.3 16.5-13.2-5.2 1.3-10.9 1.7-16.2 1.7-.4 3.8-.9 7.9-1.2 12z"/><path fill="#00210e" fill-rule="evenodd" d="m498 308.7-6.7-80.3-.1-1.4c-.3-5-.1-10 .7-15-.2.8-.5 1.5-.7 2.3l-36.5 163.3-79.3 101.2 30.2 29.5 85.8-86.3z" clip-rule="evenodd"/><path fill="#232628" d="m812.1 909.6-25.9 17.7-45.8 70.9.3.1c10.5 2.5 21.5.2 30.2-6.3l65.7-49.6z"/><path fill="#00884a" d="M414.9 950.8h-.2l-6.6-2.6 7.1-33.9-21.1 14.4-1.2.9-15.2 23.5zm-52.8 26.5-13.6 21 .3.1c10.2 2.4 20.9.2 29.3-6.1l9.7-7.3z"/><path fill="#71767c" d="M633.5 47.8c1.2-11.2-14.7-20.8-14.7-20.8s0-8.6-13.5-19.6-28.2-3.6-40.5-4.9-26.1-5-35.9 0c-9.2 4.6-1 18-1.1 26.7 0 .5 0 1-.1 1.5-1.2 8.6 2.4 18.4 2.4 18.4s.6-.8 1.5-1.9c2.5-3 7.5-8.5 11-10.2 5-2.4 7.3 1.1 20.8 4.8 13.4 3.7 26.9-6.2 26.9-6.2-7.4 20.8 4.2 24.9 7.8 30.9.9 1.6 1.7 3.8 1.8 5.6 4.3-7.3 11-16.4 16.6-10.1 6.9 7.6-5.1 26.9-11.1 35.7l2.8 6c.3 0 23.7-41.6 25.3-56z"/><path fill="#c1c7cc" d="m563.6 136.2 5.1 6.5h34.1l11.3-9.4-5.5-29.9-2.8-6c6-8.8 18-28.2 11.1-35.7-5.7-6.3-12.6 2.5-16.8 9.8 0-1.9-.5-3.7-1.5-5.3-3.6-6.2-15.2-10.1-7.8-30.9 0 0-13.5 9.8-26.9 6.2s-16-7.4-20.8-5c-4.6 1.7-11 10.3-11.1 10.5s-.1 4.4.5 10.9c.7 10.6 2.4 21.1 5.1 31.4 5.7 21.5 10.6 31.9 10.6 31.9 5.5 1.6 11.2 2.7 16.9 3 5.4.3 10.8-.2 16.1-1.5-4.9 5-10.4 9.3-16.4 13z"/><path fill="#e0e2e5" d="M491.3 226.9c-.1-1.6-.2-3.3-.2-4.9 0 1.6.1 3.3.2 4.9m-.2-4.9c0-11.3 3.3-22.4 9-32.6-5.9 9.8-9 21.1-9 32.6m99.3-67.8c-.1-.1-.1-.2-.2-.3-.2-.3 6.3-5.9 12.6-11.2h-34.1c2.9 4 5.9 8.4 5.7 8.7 0 0 0 .1-.1.1h.1L555.3 272l-13.4 152.2h60.2l-11.8-269.9z"/><path fill="#b12ea9" d="M543.4 144.4c0 .2 2 10.5 5.4 31.9v.1s19.4-15.9 25.5-25c.4-.6-10.4-15.2-10.4-15.2zm85.1-3.7-14.4-7.4s-24.3 20-23.9 20.6c6.2 9 23.8 22.5 23.8 22.5 6.3-12 14.6-35.6 14.5-35.7"/><path fill="#002c14" d="M548.9 176.4c-2.6-16.3-4.4-26.2-5.1-30.1l-21.3 17.3c-9.1 7.1-16.7 15.9-22.5 25.9-6.6 11.4-9.7 24.4-8.8 37.5l.1 1.4 6.7 80.3-12.4 213-5.8 99.2c8-25.7 17.6-62.6 30.2-95.6 7.2-18.9 16.6-35.4 24-50.5 1-2 2-4 2.9-6 .1-1 3.7-33.6 4.9-44.7 4.7-42.9 13.4-152.1 13.4-152.1l19.1-120.6h-.1c-6 9.1-25.3 25-25.3 25"/><path fill="#004523" d="M710.7 503.8h-.1c-3.4-.2-40.3-3.5-40.3-3.5s.6-96.6 1.4-153.1c-7.4-26-22.4-69.8-30.3-113.1-3-16.8-1.3-58.1 22.5-69.7l-36.3-21.2c-2.2 6.4-8.6 23.5-13.6 33.2 0 0-17.6-13.5-23.8-22.5l12 270.4 7.9 208.3 59-2.6 50.4-2.3z"/><path fill="#007a42" fill-rule="evenodd" d="M614 176.4s-17.6-13.5-23.8-22.5c-.4-.6 23.9-20.6 23.9-20.6l14.4 7.4c.1.1-8.2 23.7-14.5 35.7m-65.1 0s19.4-15.9 25.5-25c.4-.6-10.4-15.2-10.4-15.2l-20.5 8.2c-.1.2 1.9 10.4 5.4 32" clip-rule="evenodd"/><path fill="#b2b9c0" d="m664.5 555.4-13.4 39.4c8.9 7.2 26.2 5.8 33.5-1.3 6.5-6.3 22.9-31.3 22.9-31.3z"/><path fill="#c1c7cc" d="M704.2 511.8c.7-2.7 1.5-5.5 2.3-8.4-7.3-.6-21.9-1.9-30.1-2.7 0 6-.1 9.4-.1 9.4l-.3 1.3.3-1.2-33.5 41 5.1 8.6 18.5-11.5-1.9 7.1 42.9 6.9c3.8-13-4-47.8-3.2-50.5"/><path fill="#005f23" d="M729.7 503.9c6.4-51.1 12-167.1 12-167.1l-41.6-132.3c-4.7-23.9-24.5-36.9-35.6-39.9l-.6-.1c-23.8 11.6-25.5 52.9-22.5 69.7 7.9 43.3 22.9 87.1 30.3 113.1-.8 56.4-1.4 153.1-1.4 153.1s36.8 3.3 40.3 3.5c10.4.7 18.9.9 19.1 0"/><path fill="#979ea4" fill-rule="evenodd" d="m340 517.7 23.6 17.5c-4.6 12.5-9.9 22.4-21.2 21.5l-13.6.1z" clip-rule="evenodd"/></svg>