<svg xmlns="http://www.w3.org/2000/svg" viewBox="0 0 598 400"><path fill="#d0d4d8" d="M291.467 241.874h18.384c-.691 6.773-.691 13.546.276 20.181 3.456 23.636 2.62 28.894.408 46.725h-16.994l-2.074-67.043"/><path fill="#101112" d="m292.22 181.057-2.371 63.034h23.498c.415-4.7 3.316-26.407 3.869-30.277l-12.773-32.755-12.223-.003Z"/><path fill="#383b3e" d="M308.467 330.199h-14.099l-20.733 8.155c1.797 2.35 4.7 3.732 7.74 3.732h29.58l-2.35-11.887m32.068-85.974s-.415-5.667-.829-11.196c-2.35-29.856-.138-38.011-6.911-51.972l-30.351.028c.267 4.258 1.283 12.555 3.674 18.218 3.732 9.123 6.635 22.945 8.293 33.035 1.244 7.326 1.935 12.717 1.935 12.717z"/><path fill="#c1c7cc" fill-rule="evenodd" d="m297.824 144.288-14.928-7.602-3.732 13.408-21.701-16.31-10.367 10.09 9.261 2.764s26.124 29.442 39.117 17.416z"/><path fill="#2e3033" d="m266.171 139.726-8.432-21.978c-.276-.829-1.106-1.382-1.935-1.52l-10.92-.138c-.691 0-1.52.276-1.935.968a2.2 2.2 0 0 0-.277 2.073l8.432 21.977c.277.691.83 1.244 1.659 1.382h.415l10.781.276c.829 0 1.521-.276 1.935-.968s.553-1.52.276-2.073Z"/><path fill="#eff1f2" fill-rule="evenodd" d="m258.292 131.71-11.887-.415.717 12.599 7.715-4.859c2.404-1.508 3.732-4.838 3.456-7.326Z"/><path fill="#e472db" d="m306.809 107.66 14.394-8.155 17.813 9.812-6.082 71.738h-41.191v-24.051s-.873-5.468-1.892-12.159l-9.027-5.257 6.197-21.386c.879-4.703 3.864-9.106 8.178-11.65l12.716-7.048z"/><path fill="#eff1f2" d="M339.707 139.175c-.022.079-2.742 9.943-3.041 10.781-7.227 20.237-26.268 35.663-40.223 51.302-.079-.001-10.929-.141-14.098-.967l-2.903-12.164 11.058 2.903c5.469-8.348 10.633-16.775 17.831-23.775 2.393-2.138 4.843-3.806 7.335-4.765.986-5.33 5.801-27.061 7.317-32.023l16.725 8.709Z"/><path fill="#d543cb" d="M341.779 142.631s1.935-13.822 2.626-20.733c.553-5.391-.415-11.473-6.22-13.131-6.22-1.797-11.473 3.179-13.546 8.846-2.073 6.082-4.561 15.619-5.805 20.181l22.807 4.7.138.138Z"/><path fill="#c1c7cc" d="M282.366 200.255c-.417.132-5.61 1.773-8.754-.759-2.727-2.547-3.112-4.744-3.112-4.744l8.95-6.634 2.916 12.138Zm31.442-105.209c-1.797.553-3.594.691-5.529.553-.138 1.52-.276 2.903-.415 4.423 2.212-1.244 4.147-3.041 5.944-4.976"/><path fill="#eff1f2" d="m318.88 88.581.394.806 1.911 10.118-14.375 8.155s.553-4.008 1.106-8.155c1.659-.968 3.179-2.35 4.561-3.732-1.382.415-2.903.553-4.285.415a23.5 23.5 0 0 1-4.285-.829c-1.106-2.626-2.073-5.391-2.764-8.155-.138-.968-.415-1.935-.553-2.764-.415-2.212-.829-4.561-.829-6.773 2.073.691 4.285.968 6.496.553 5.252-.829 10.09-4.423 10.09-4.423.101 2.357-.146 7.318.634 8.995 0 0 1.991-3.4 3.796-3.134 2.058.303 2.291 3.701-1.896 8.925Z"/><path fill="#656a6f" d="M294.369 330.199h14.237c.276-3.87 1.244-14.099 1.935-21.425H293.54z"/><path fill="#eff1f2" d="M338.324 250.99c-.968-1.935-1.751-4.471-1.889-6.544l-17.693.553a1263 1263 0 0 1 3.824 19.399l7.363 44.815h15.437c2.488-29.994 4.016-38.595-7.042-58.223"/><path fill="#383b3e" d="m354.911 340.42-9.952-7.602h-11.887l-1.52 11.887h21.286c.968 0 1.935-.553 2.35-1.382.415-.968.415-1.935-.276-2.903Z"/><path fill="#c1c7cc" d="M329.934 309.214c1.106 8.017 2.861 19.596 3.137 23.605h11.887l.407-23.605z"/><path fill="#71767c" d="M267.375 141.628c-.334.535-1.203 1.14-2.032 1.14h-1.596c.691 0 1.382-.415 1.797-.968s.568-1.313.276-2.073l-8.432-21.977c-.306-.771-1.106-1.52-1.935-1.52h1.599c.968 0 1.656.691 1.932 1.52 0 0 8.216 21.23 8.44 21.77s.347 1.474-.05 2.108Z"/><path fill="#2e3033" d="M326.732 76.974c-.553-4.423-5.805-7.049-5.805-7.049-.415-7.464-9.676-4.838-9.676-4.838s-7.049-3.456-10.643-1.659c-3.456 1.659-.829 6.635-2.212 8.293-.829 1.382-1.52 2.903-1.797 4.423 0 0-.691 5.805 4.008 8.432-.415-2.212-.621-4.462-.759-6.811 2.073.829 4.215.868 6.426.591 5.391-.829 10.09-4.423 10.09-4.423s-.12 4.84.183 7.218c.082.645.27 1.642.408 1.78 1.244-1.935 3.141-4.298 4.661-2.778 1.935 2.073-1.52 6.911-2.764 8.432l.415.829s7.732-6.756 7.464-12.44Z"/><path fill="#c535bc" d="M429.204 119.894c-.103.439-.162.914-.214 1.353"/></svg>