<svg xmlns="http://www.w3.org/2000/svg" viewBox="0 0 345.1 999.7"><switch><g><path fill="#7d8389" d="M180.6 570.4h55v154h-55z"/><path fill="#595e62" d="M95 364.9c-.5.2-1 .3-1.5.5L31.6 524.5l-31.5 50 10.4 3.2c6.9 2.1 14.4 1.1 20.4-2.9 7.1-4.6 15.7-10.7 17.5-13.8 13.3-22.5 16.1-50.4 16.1-50.4l63.1-98.1 1.1-1.6c3-4.3 4.8-9.4 5.2-14.6 1.5-19.8-17.2-38.2-38.9-31.4"/><path fill="#595e62" d="m0 537.5 2.9 9 31-14 8.7-33.9z"/><path fill="#d0d4d8" d="m225.6 69 .9-3.8c-.3 1-.6 2-.9 2.7.1.3 0 .7 0 1.1m-7.7 37.6c-.2-.1-.4-.2-.5-.3l.1.3z"/><path fill="#71767c" d="M178.6 97.4c3.8 1 7 2.9 9.8 5.7l3.4-11.1s1-.3 5.4-2c4.4-1.8 7.3-23.6 9.1-33.3 1.9-10.7 1.4-13.1 1.4-13.1s-20.2-8.2-26-7.3c-5.9 1-19.5 9.8-26.3 9.8-2.6 0-5.2-.7-7.6-1.9-.4 1.5-.7 3.1-1 4.8.1 8.6.8 17.3 2.3 25.8.7 4 1.5 8.1 2.7 12.3l.6 2.1 5.5 14.2c6.5-8.3 13.8-7.6 19.2-6.3z"/><path fill="#d0d4d8" d="m217 104.1 7-28.7c-2.2 6-6.1 12.5-9.1 17z"/><path fill="#71767c" d="m217.4 106.6-.4-2.2-2.1-11.7c3-4.5 6.9-10.9 9.1-17 .8-2.1 1.3-4.3 1.6-6.5 0-.4.1-.8.1-1.1 0-2.3-.5-4.4-1.9-5.9-2.9-3.2-6.2-2-9.2.9-5.3 5-9.7 14.9-9.7 14.9l5.2 18.3c.1.4.1.9.2 1.3.2 1.4.2 2.7.1 4.1-.5 6.1-3.8 12.7-9.7 16.1-8.1 4.6-11.8 5.1-17.2 8.5-2.6 1.7-5.9 4.9-8.4 7.5-1.5 13.3-3 24.9-3 24.9h54.8l-9.4-51.8z"/><path fill="#e0e2e5" d="m64 986.5.2.3c6.7 8.2 16.8 12.9 27.4 12.9h104.5l-8.6-42.1h-50.1zm279.5-2-35.8-27H271l-5.5 42.1h69.9c5.3 0 9.7-4.3 9.7-9.7.1-1.9-.5-3.8-1.6-5.4"/><path fill="#b2b9c0" d="M334.2 958.5c0-208.8-59.3-318-58.8-337.2 2.8-105 5.5-132.1-12.6-200l-.2 1.7H157.4c.6 13.3 2.8 42.3 11.7 64 9 21.9 19.7 61.8 29.6 102.1 15.1 62.2 27.8 125.4 27.8 125.4l41.9 244z"/><path fill="#979ea4" d="m117.7 423 .4 16 6.7 258.5 9.6 261h74.9c-2.4-164.6-3.6-128.6-19.5-239.2-6.6-45.6-.3-89.1 8.8-130.2-9.8-40.3-20.5-80.2-29.5-102.1-8.9-21.7-11.1-50.7-11.7-64z"/><path fill="#9dc9ff" d="m118.3 338.2-11.7-112.8-16.7 143.4 1.1.4 27.2 8.2z"/><path fill="#9dc9ff" d="m284.5 170.4-21.8 251.8-35.3.4L241.3 222l42.3-55.6-59-30.7h-53.8l-42.2 27.7c-20 12.1-21 31-22 54v28l10.7 92.5.8 39.5-.4 45.6h144.9l.2-2.1z"/><path fill="#56b0ff" d="M226.8 423h35.9l21.8-252.3v-.2l-.1.2-43.1 51.3z"/><path fill="#71767c" fill-rule="evenodd" d="M175.4 134.2h46.3l-17.1 13.7-19-1.5-11.3 1.6-1.5-9.9z" clip-rule="evenodd"/><path fill="#e8f1ff" d="M321.6 741.4h-76c-5-41.3-10-82.7-15-124s-10-82.7-15-124v-290c4.7-22 9.3-44 14-66 18 9.3 36 18.7 54 28-3.7 73.3-7.3 146.7-11 220 5 28.3 44 327.6 49 356"/><path fill="#d1e4ff" d="m336.7 359.1-.7-20.5-33.4-146.3c-6.1-20.4-18.2-29.9-34.9-28.7-25.6 3.8-28 37.3-26.5 52.1 2.8 28.2 12.6 58.1 20.8 78.9 38.5 5.3 71 20 74.6 51.1z"/><path fill="#e8f1ff" d="M143.6 741.4c4.6-66.9-9.6-321.1-5-388l-2-114 6-61 28.2-43-42.2 27.7c-20 12.1-21 31-22 54v28l8 123.3-4 70c-.1 15.2-8.9 287.8-9 303 36.6-.2 5.5.1 42 0"/><path fill="#d1e4ff" fill-rule="evenodd" d="M209.2 168.5s-17.6-13.3-23.6-22.2c-.4-.6 13.1-1.6 23.4-8.5 11.4-7.6 12-11.6 12-11.6l12.9 14.6s-17.8 19.3-24.7 27.7" clip-rule="evenodd"/><path fill="#d1e4ff" fill-rule="evenodd" d="M175.2 131c-.1 9.1 10.4 15.2 10.4 15.2l-18.1 22.2s-4.2-12.5-4.2-20.8 11.9-16.6 11.9-16.6" clip-rule="evenodd"/><path fill="#71767c" d="M262 294.6c-30.9-4.2-65.5-3.2-91.3-2l-38.4-14.1s-6.3 45.4-6.4 45.4c11.7 4.5 42.5 4.7 42.5 4.7s168.1 31.6 168.3 30.5q1.2-7.35.3-14.7c-3.6-31.1-36.5-44.5-75-49.8"/><path fill="#71767c" d="m132.3 278.5-40.7-9.1s-8.8 16.2-2 29c6.5 12.4 35.3 24.7 36.4 25.6zm38.4 14.1-33-28.4-23.1-4.8 2 9 14.5 6.3 8.5 6.5z"/><path fill="#c1c7cc" d="M226.3 26.6c-8.8-4.9-18.6-3.9-25.5-9.7C194 11.1 190.7 3.9 179 1s-16.5 1.2-18.4 4.1-4.9 12.8-4.9 12.8-16.1-2.1-16.1 12.6c0 2.8.7 5.6 2.1 8-2.2 3.9-12.5 24.9 7.6 36.6-1.5-8.5-2.2-17.2-2.3-25.9.3-1.7.6-3.3 1-4.8 2.3 1.2 4.9 1.9 7.6 1.9 6.8 0 20.6-8.8 26.4-9.8s25.2 7.5 25.2 7.5.6 2.7-1.4 13.5c-1.8 9.7-4.7 30.2-9.1 32s-5.3 2.6-5.3 2.6l-3.1 10.6c-2.7-2.8-6.2-4.8-10.1-5.8-5.4-1.3-13-2.1-19.7 6.1l-6-13.6s-8.2 7.9-8.2 22.3c0 12.4 9.9 15 9.9 15 3 2.9 6.2 5.5 9.6 7.9 2.5 1.5 5.1 2.6 7.9 3.5 0 0 1.4-1.6 3.3-3.7 2.4-2.6 5.8-5.9 8.4-7.5 5.4-3.4 9.1-3.9 17.3-8.5 5.9-3.4 9.2-10.1 9.7-16.2.1-1.4.1-2.7-.1-4.1-.1-.4-.1-.9-.2-1.3l-5.2-18.4s4.4-10.1 9.6-15.1c3-2.9 6.3-3.9 9.1-.8 1.4 1.5 1.9 3.9 1.9 6.3.3-.8.8-2.1 1.1-3.1 3.6-10.9 7.1-35-.3-39.1"/></g></switch></svg>