<svg xmlns="http://www.w3.org/2000/svg" viewBox="0 0 404.145 1013.868"><path fill="none" d="M204.141 82.361q.012.091.026.181-.014-.09-.026-.181M253.234 188.9q.235-.285.469-.564-.233.273-.469.564m-5.575 7.172a175 175 0 0 1 5.436-7.007 164 164 0 0 0-5.436 7.007M281.076 77.6c.009.1.027.194.034.294-.01-.094-.024-.194-.034-.294"/><path fill="#43464a" d="m269.934 103.391 2.092 11.524 6.422-26.328a56 56 0 0 1-2.538 4.763 109 109 0 0 1-5.976 10.041"/><path fill="#c1c7cc" d="m395.019 994.817-34.508-26.079H320.8l-3.183 41.179h69.5a9.635 9.635 0 0 0 7.9-15.1zm-209.111-24.479-.006-.169-72.784 26.648.2.3a35.35 35.35 0 0 0 27.2 12.8h103.7l-8.154-39.578z"/><path fill="#551151" d="M326.408 631.038c2.7-103.5 5.393-131.32-11.869-197.2h-106.05c.548 13.321 2.753 42.194 11.619 63.8 8.991 21.879 19.679 61.625 29.472 101.786l.028.114c15.1 62.1 27.8 125.2 27.8 125.2l41.8 244h66c0-208.8-59.3-318.5-58.8-337.7"/><path fill="#c535bc" d="M212.381 237.567c-2.662-8.441-6.272-20.808-7.6-29.663-3-20.083-1.5-46.331-1.493-46.376l-17.583 10.608a61.49 61.49 0 0 0-29.5 57.8l1.257 8.683 43.143-7.382zm81.745-82.46-.342.2a106 106 0 0 0-12.953 8.108 148 148 0 0 0-7.909 6.078 155.4 155.4 0 0 0-17.738 17.114q-.73.829-1.481 1.727-.234.279-.469.564l-.139.169a175 175 0 0 0-5.436 7.007c-10.921 14.814-23.013 35.087-28.769 45l8.318 4.471s31.279 14.648 66.716 31.349l3.284-43.249.126-.154q-.478-3.59-.826-7.145c-1.5-14.8 0-46.9 25.5-50.7h1a52.6 52.6 0 0 1 7.285.566zM183.95 268.87l-.006.012s-13.7-.3-17-7.3a86 86 0 0 1-3.4-9.7c-.185-.7-2.3-1.653-4.538-2.617l6.412 44.287 7.857 54.276.233 1.609-7.1 84.4h115.6l.529-6.965 7.474-98.446c-27.1-16.609-54.234-38.572-75.5-54.288-1.994-1.422-27.874-4.909-30.561-5.268"/><path fill="#9e2896" d="m290.1 328.482-.092-.056-7.474 98.446-.529 6.965h43.4L330.289 348c-12.883-4.152-26.529-11.154-40.189-19.518m19.256-44.316a280.6 280.6 0 0 1-12.02-50.663v-.019l-.126.154-3.284 43.249.091.043c5.054 2.383 10.194 4.807 15.339 7.236"/><path fill="#340731" d="M240.908 729.138c-6.569-45.384-.358-88.786 8.672-129.714-9.793-40.161-20.481-79.907-29.472-101.786-8.866-21.607-11.071-50.48-11.619-63.8h-40.246l7.665 273.4 9.992 262.931.006.169h74.6c-2.398-164.6-3.598-130.6-19.598-241.2m-6.2-571.2 21.1 6.1v-24.4l-21.1 6.1-4.294-1.241-.032.034-.289.32c-1.748 1.937-3.011 3.381-3.011 3.381a44 44 0 0 1-3.6-1.338 34 34 0 0 1-4.3-2.162q-2.887-2.039-5.574-4.3v23.6l14.732-4.26z"/><path fill="#595e62" d="m163.008 298.638-3.056-6.231-27.944-56.969a7.99 7.99 0 0 0-7-4.6h-6a7.99 7.99 0 0 1 7 4.6l27.257 55.568 3.743 7.632c2.9 6-.9 13.4-7 13.4h6c6.1 0 9.9-7.4 7-13.4"/><path fill="#2e3033" d="m157.008 298.638-3.743-7.632-27.257-55.568a7.99 7.99 0 0 0-7-4.6h-101.3c-6.1 0-9.9 7.4-6.9 13.4l5.317 10.841 40.683 1.36a29.4 29.4 0 0 1-1.538 12.671c-2 6-5.627 11.5-10.362 13.229l-11.667 7.633 5.794 11.815 2.773 5.652a7.84 7.84 0 0 0 6.9 4.6h101.3c6.1-.001 9.9-7.401 7-13.401"/><path fill="#f0dcee" d="M275.284 132.705h-.027l-37.957 5.358a57.6 57.6 0 0 0-6.889 6.434l4.294 1.241 21.1-6.1v24.4l-21.1-6.1-6.368 1.84-14.732 4.26v-9.146l-10.317 6.635c0 .045-1.5 26.293 1.493 46.376 1.325 8.855 4.935 21.222 7.6 29.663l.044.024 6.234 3.351.231.125c5.756-9.908 17.848-30.181 28.769-44.995a164 164 0 0 1 5.436-7.007q.07-.085.139-.169l.469-.564q.75-.9 1.481-1.727a155.4 155.4 0 0 1 17.738-17.114 150 150 0 0 1 7.909-6.078 106 106 0 0 1 12.953-8.108l.342-.2.023-.013-14.565-8.991zm82.624 70.333c-5.182-17.33-14.552-24.842-27.615-26.834a52.6 52.6 0 0 0-7.285-.566h-1c-25.5 3.8-27 35.9-25.5 50.7q.344 3.55.826 7.145v.019a280.6 280.6 0 0 0 12.02 50.663l.152.072c8.008 3.784 16.03 7.579 23.767 11.247 32.745 15.523 60.376 28.768 60.133 29.253z"/><path fill="#8a9097" d="m18.008 299.938-.428-6.2za106 106 0 0 0 21.027 1.848l-5.794-11.815zm141.944-7.531 3.056 6.231c2.9 6-.9 13.4-7 13.4h-64.17c19.748 11.266 49.285 26.2 81.437 35.79l-7.857-54.276zm-2.487-53.787-5.62.962s.6 2.9 1.6 6.7c.215.749 2.978 1.871 5.562 2.983 2.243.964 4.353 1.92 4.538 2.617a86 86 0 0 0 3.4 9.7c3.3 7 17 7.3 17 7.3l.006-.012 16.658-37.632z"/><path fill="#a4abb3" d="M204.167 82.542q.243 1.6.524 3.186l.018.111.068.373a116 116 0 0 0 2.632 11.926l.55 1.925L214 113.269c6.7-8.2 14.085-7.337 19.485-6.037.292.076.578.17.867.258a21.44 21.44 0 0 1 9.133 5.541l2.05-6.943 1.05-3.557s.9-.8 5.3-2.6 7.3-22.1 9.1-31.8c2-10.7 1.4-13.4 1.4-13.4s-19.3-8.5-25.1-7.5c-5.665.976-18.848 9.371-25.8 9.762-.166.01-.346.037-.5.037a16.44 16.44 0 0 1-7.6-1.9c-.4 1.5-.7 3.1-1 4.8a161.6 161.6 0 0 0 1.759 22.43q.008.093.023.182M261.992 95.1l3.39 11.931c.1.4.1.9.2 1.3a18.8 18.8 0 0 1 .1 4.1c-.5 6.1-3.8 12.7-9.7 16.1-8.1 4.6-11.8 5.1-17.2 8.5-.469.288-.969.647-1.479 1.032l37.954-5.354-3.231-17.794-2.092-11.524a109 109 0 0 0 5.976-10.041 56 56 0 0 0 2.538-4.763c1.657-3.53 2.8-7.153 2.678-10.3q0-.196-.016-.391c-.007-.1-.025-.2-.034-.294A8.1 8.1 0 0 0 279 72.9a4.7 4.7 0 0 0-1.232-.976c-1.956-1.084-4.493-.607-6.593.738a9.7 9.7 0 0 0-1.39 1.072q-.036.034-.071.07c-5.169 5.022-9.529 14.93-9.529 14.93zm71.283 200.385a20824 20824 0 0 0-23.767-11.247l-.152-.072c-5.145-2.429-10.285-4.853-15.341-7.236l-.091-.043c-35.437-16.7-66.716-31.349-66.716-31.349l-8.318-4.471-.231-.125-6.234-3.351-.044-.024-11.773-6.329-16.658 37.632c2.687.359 28.567 3.846 30.558 5.268 21.269 15.716 48.4 37.679 75.5 54.288l.092.056c13.657 8.364 27.3 15.366 40.186 19.517 26.429 8.515 49.641 5.039 63.119-23.261.246-.485-27.385-13.73-60.13-29.253m-317.15-40.407-1.217-.04 2.672 38.7.428 6.2 15.233-9.967 11.667-7.633c4.735-1.733 8.366-7.234 10.362-13.229a29.4 29.4 0 0 0 1.538-12.671z"/><path fill="#43464a" d="M281.282 37.531c-8.8-4.9-18.5-3.9-25.4-9.7s-10-12.9-21.7-15.8-16.4 1.2-18.3 4.1c-2 2.9-4.9 12.7-4.9 12.7s-16-2.1-16 12.5a16.1 16.1 0 0 0 1.7 7.258c.127.25.256.5.4.742-2.2 3.9-12.39 24.8 7.608 36.4q-.281-1.591-.524-3.186-.014-.09-.026-.181a161.6 161.6 0 0 1-1.759-22.43c.3-1.7.6-3.3 1-4.8a16.44 16.44 0 0 0 7.6 1.9c.158 0 .338-.027.5-.037 6.948-.391 20.131-8.786 25.8-9.762 5.8-1 25.1 7.5 25.1 7.5s.6 2.7-1.4 13.4c-1.8 9.7-4.7 30-9.1 31.8s-5.3 2.6-5.3 2.6l-1.05 3.557-2.05 6.943a21.44 21.44 0 0 0-9.133-5.541c-.289-.088-.575-.182-.867-.258-5.4-1.3-12.785-2.163-19.485 6.037l-6.036-13.21c-.038.035-8.276 7.6-8.276 21.87 0 12.3 9.9 14.9 9.9 14.9a74 74 0 0 0 4.026 3.6q2.694 2.257 5.574 4.3a34 34 0 0 0 4.3 2.162 43 43 0 0 0 3.6 1.338s1.263-1.444 3.011-3.381l.289-.32.032-.034a57.6 57.6 0 0 1 6.889-6.434c.51-.385 1.01-.744 1.479-1.032 5.4-3.4 9.1-3.9 17.2-8.5 5.9-3.4 9.2-10 9.7-16.1a18.8 18.8 0 0 0-.1-4.1c-.1-.4-.1-.9-.2-1.3L261.992 95.1l-1.81-6.368s4.36-9.908 9.529-14.93q.036-.036.071-.07a9.7 9.7 0 0 1 1.39-1.072c2.1-1.345 4.637-1.822 6.593-.738A4.7 4.7 0 0 1 279 72.9a8.1 8.1 0 0 1 2.079 4.7c.01.1.026.194.034.294.01.129.011.261.016.391s.018.282.018.427c.3-.8.438-1.684.738-2.684 3.397-10.497 6.897-34.397-.603-38.497"/></svg>