<svg xmlns="http://www.w3.org/2000/svg" data-name="Ebene 2" viewBox="0 0 1600 900"><path fill="#001d33" d="M760.36 413.78c-1.92 1.15-3.23 133.77-2.6 143.19.51 7.83.37 15.67.24 23.51l-.49 27.29-.73 40.48-.52 29.13c0 1.78-6.48 13.22-6.48 13.22l.12 21.14s-3.12 15.85-6.3 20.9c13.73 9 54.47-16.18 54.47-16.18l9-16.99s-2.08-14-1.63-22.21c1.18-20.8-1-23.99 1.06-44.73 1.5-15.1 18.6-81.63 21.18-89.23 1.23-3.61-.54-8.92-1.02-12.74l-8.71-67.2c-.97-7.5-1.98-15.16-5.22-22-12.47-26.21-34.51-38.32-52.37-27.6Z"/><path fill="#003253" d="M900.28 621.64c.67 5.92 6.55 31.86 7.99 50.72 1.12 14.66 1.02 25.62 1.02 25.62l8.2 24.63s-4.5 14.42-4.78 17.99c-34.77-10.08-41.46-4.69-56.36-6.45 1.68-7.2-5.08-28.49-5.08-28.49l-3.85-11.65a50.5 50.5 0 0 0-3.6-18.41c-9.27-20.99-4.69-18.26-7.74-40.96-1.78-13.21-2.47-26.57-5.17-39.63s-7.5-25.94-11.68-38.79c-12.67-39.13-30.65-150.87-28.82-154.72 3.1-6.54 19.91 11.46 26.79 9.21 10.53-3.44 21.17-6.44 31.94-9 6.52-1.5 26.94 5.25 32.31 9.94s11.12 59.46 16.09 101.6c5.71 49.58 2.14 102.87 2.75 108.37Z"/><path fill="#43464a" d="m911.75 735.86-44.57-13.14-12.88 30.64 25.56 8.36 37.95 2.16z"/><path fill="#43464a" d="m883.25 721.06-33.27-2.98 7.22 31.48 25.57 8.37z"/><path fill="#43464a" d="M858.22 803.48c-9 3-42.45 2.56-45.72-2.8-3.67-6 0-14.32 5.47-18.35s12.17-5.43 17.99-8.74c6.24-3.55 15.37-13.31 18.32-20.23 22.64 6.88 40.36 2.74 62.97 9.63 1.98.6 1.15 22.49-.91 25.49-2.71 3.85-10.98 4.15-15.08 5.08-5.62 1.27-13.49-2.53-20.33-.99-8.52 1.98-15.92 8.61-22.72 10.92Z"/><path fill="#2e3033" d="M812.91 788.28c2.83-2.44 13.04 1.39 13.49 9.85a74.8 74.8 0 0 0 28.32 3.63c8.61-.72 19.82-11.16 30.32-11.1 15.88.09 29.79-3.6 33.11-11.85 3.22 1.92 0 12-1.96 14.51a11.5 11.5 0 0 1-4.5 2.91l-4.03 1.35c-.81.22-1.6.42-2.4.58l-4.08.61q-1.23.09-2.46 0l-4-.51c-2.15-.34-4.33-.51-6.51-.51-7.5 0-10.9 3.85-16.15 7.27l-3 1.77c-.58.28-1.18.57-1.83.84l-3.87 1.32c-.64.16-1.32.33-2.02.46l-4.5.6h-.1l-2.07.12-4.38.13h-1.57l-4.39-.12-1.5-.07-3.94-.3-2.23-.24-3.93-.49-1.63-.25-4.24-.78c-6.61-1.35-11.49-3.1-12.88-4.66-3.87-4.24-3.87-12.62-1.05-15.08Z"/><path fill="#c1c7cc" d="m884.3 751.42-28.07-6.09.42 2.43 25.94 5.84zM878.78 758.39l-24.48-5.03-.9 1.85 23.69 5.33zM872.74 766.03l-21.28-7.76-1.48 1.89 21.15 7.9zM867.7 772.4l-20.77-8.31-1.68 1.82 20.86 8.51zM863.04 778.29l-21.35-9.04-1.8 1.51 21.78 9.25z"/><path fill="#43464a" d="m797.59 715.06-44.58-13.13-12.88 30.63 25.57 8.37 37.93 2.17z"/><path fill="#43464a" d="m769.07 700.28-33.25-3 7.21 31.49 25.58 8.36z"/><path fill="#43464a" d="M744.05 782.68c-9 3-42.43 2.56-45.72-2.8-3.66-6 0-14.32 5.49-18.34s12.16-5.43 17.99-8.76c6.22-3.55 15.35-13.31 18.31-20.23 22.66 6.88 40.36 2.74 62.97 9.63 1.98.6 1.17 22.49-.91 25.49-2.71 3.85-10.98 4.15-14.99 5.08-5.62 1.27-13.49-2.53-20.35-.99-8.59 1.98-15.98 8.61-22.79 10.92"/><path fill="#2e3033" d="M698.75 767.49c2.82-2.46 13.04 1.38 13.49 9.84a74.8 74.8 0 0 0 28.34 3.63c8.59-.72 19.81-11.16 30.32-11.1 15.86.1 29.78-3.6 33.11-11.83 3.21 1.92 0 12-1.98 14.51-1.25 1.31-2.79 2.3-4.5 2.89l-4.03 1.36-2.38.58-4.09.61q-1.23.075-2.46 0l-3.99-.52c-2.16-.33-4.34-.5-6.52-.49-7.5 0-10.89 3.85-16.13 7.26l-3 1.77c-.58.3-1.18.58-1.81.84l-3.93 1.3c-.64.18-1.32.33-2.04.48l-4.5.58h-.09l-2.08.13-4.38.12h-1.51l-4.38-.1-1.57-.09-3.94-.3-2.19-.21-3.94-.51-1.62-.25-4.24-.76c-6.61-1.36-11.49-3.12-12.88-4.66-3.88-4.26-3.88-12.64-1.05-15.08Z"/><path fill="#c1c7cc" d="m770.14 730.64-28.07-6.1.4 2.43 25.96 5.83zM764.62 737.6l-24.49-5.04-.91 1.86 23.7 5.32zM758.58 745.23l-21.28-7.75-1.48 1.89 21.15 7.9zM753.54 751.6l-20.78-8.29-1.68 1.8 20.85 8.52zM748.87 757.49l-21.36-9.02-1.79 1.5 21.79 9.25z"/><path fill="#005587" d="m853.73 583.88 48.52-1.14c13.15-27.75-.21-65.97-7-80.97l-49.27 3.69s-1.81 45.42 7.75 78.42"/><path fill="#003e64" d="m854.33 525.77 50.38-3.68-9.46-20.34-50.38 3.65z"/><path fill="none" d="m659.35 268.47-.82-.03zm28.16 26.55.73 2.06c-.2-.7-.45-1.39-.73-2.06m-24.56-26.43-.54-.02zm4.2.14-.67-.02zm6.6.23-2.29-.08zm-2.9-.1-.56-.02zm4.86.16-.73-.03zm-1.01-.03-.45-.02zm2.93 3.44c0-.05-.02-.1-.03-.15 0 .09-.01.19-.02.28 0-.07.02-.13.02-.2l.02.07Zm-26.98-4.25h-.35zm-14.37-.17h-.36zm21.27.4h-.22zm-21.77-.41-.78-.03z"/><path fill="#8a9097" d="M760.68 323.06c-1.14-1.21-5.74-6.08-9.59-10.16l-1.45-1.54-.99-1.06-.76-.8c-.46-.48-.86-.91-1.21-1.28l-.14-.15c-.64-.68-1.03-1.09-1.07-1.12v-.05l-57.97-11.88c.28.67.53 1.36.73 2.06l.41 1.15c1.44 4-2.04 7.37-5.89 7.2-2.45.45-4.97.45-7.42-.01l-12.16-.49c-5.09.58-7.29-1.67-8.5-6.45l-8.98 5.72-.13.08c-.37.42 44.19 13.32 44.91 13.24 0 0 50.35 28.61 69.33 38.41"/><path fill="#d0d4d8" d="M810.19 202.26c.37-3.95.77-7.94 1.17-11.73 4.61.34 9.24-.13 13.68-1.38a71.6 71.6 0 0 1-14.85 13.11"/><path fill="#d0d4d8" d="M823.88 190.49a41 41 0 0 1-12.67 1.15c-4.38-.23-8.72-.97-12.92-2.21 0 0-3.69-7.57-8.15-23.36a95 95 0 0 1-1.82-7.62c-1.27-6.43-2.05-12.95-2.33-19.5 5.14 1.71 3.44-12.52 19.24-11.6 15.91.93 30.22.9 30.22.9.07 4.44.53 8.86 1.36 13.21 3.69-5.53 9.9-.21 14.27 4.35 1.94 2.03.93 4.08 1.44 7.23 1.2 7.48-7.18 13.89-9.58 16.81.58 1.44 10.78 54.07 10.78 54.07l-47.46 3.86s2.46-14.71 3.88-26.37c5.06-3 9.69-6.68 13.75-10.93Z"/><path fill="#d0d4d8" d="m805.39 164.61 7.12 3.52s-15.27 4.52-17.54 4.22a2.99 2.99 0 0 1-2.89-2.82c-.08-.72.15-1.44.65-1.97l6.64-9.14 6.02 6.18Z"/><path fill="#d1e4ff" d="M874.38 415.53H769.6l.11-32.79.1-28.37-9.74-67.47-2.77-19.18a44.65 44.65 0 0 1 21.38-41.92l29.84-18.03h38.89l42.67 24.95z"/><path fill="#002c50" d="m859.45 270.37 30.63-37.65-15.7 182.81h-25.95z"/><path fill="#d0d4d8" fill-rule="evenodd" d="m808.49 207.76 4.82 18.83 37.72-16.67-1.32-6.88-40.21 3z"/><path fill="#003e64" d="m893.9 316.52-11.48-85.69-15.23 28.14 2.12 111.36-1.83 53.81 18.34-.06zM684.38 292.25c.22.22-8.86 22.38-6.78 23.45 0 0 44.56 30.23 83.39 41.44l2.3-5.3-4.96-52.43-1.85-48.6-14.52 55.25c-10.42-4.95-57.67-13.88-57.59-13.81Z"/><path fill="#d1e4ff" d="M823.8 223.5c-4.02 2.87-7.97 5.67-11.49 7.97l-3.45-23.63 38.83-.05c-.57.79-19.22 12.33-23.89 15.7Z"/><path fill="#005587" d="M846.43 223.57c0-.07-.07 0-.14 0zs0-.07 0 0"/><path fill="#005587" d="M760.41 240.66c-4.67 8.33-6.97 17.45-6.25 26.36l.07 1.01 1.74 61.33 4.96 49.43-5.22 45.46-1.31 25.08 2.01 7.72.59 3.86 1.27 4.53 3.6 1.93 9.9 2.01 48.58 1.43 12.08-1.51 45.98-4.7 13.4.88s1.91-9.23 1.91-9.37c-.07-.36 3.39-4.66 3.39-4.66s-5.79-68.44-4.66-95.68l4.66-68.16c-3.16-10.96-18.61-3.85-22.01-28.36-2.12-15.24 1.71-30.87 19.69-30.06l-20.84-10.44c-5.46-.93-16.16 1.36-27.44 4.67q-.07.07-.14.07c-.86.29-1.72.5-2.59.79-14.08 4.31-28.51 9.84-34.33 12.35-1.08-.57-7.9-6.32-14.08-11.06-4.88-3.73-9.34-6.82-10.27-6.1l-4.24 2.8c-6.46 5.03-10.08 7.55-18.13 15.6l-2.31 2.79Z"/><path fill="#001d33" d="M809.73 230.46c.36.22 2.51 1.01 2.59 1.01l-3.45-23.63 1.16-2.88c.07-1.15.34-4.9.48-6.05-.5-.07-8.9-.05-11.05.81-6.97 2.8-7.4 8.12-5.1 13.65a32.2 32.2 0 0 0 3.66 6.18c2.51 3.3 5.1 5.82 7.83 8.04 1.87 1.51 1.65 1.44 3.88 2.87"/><path fill="#001d33" d="M823.76 223.67c-4.02 2.87-7.97 5.67-11.49 7.97s2.94-1.29 3.81-1.65c2.59-1.15 5.75-2.8 11.71-6.32 5.46-3.16 11.49-6.89 16.73-10.56 1.58-1.08 3.09-2.15 4.45-3.23 5.6-4.24 9.41-8.04 8.76-9.91-3.62-2.29-9.04-1.34-9.04-1.34l1.68 7.13s-21.87 14.46-26.61 17.91"/><path fill="#004975" d="M875.3 208.63c.14-6.39-1.58-14.79-14.44-15.37-7.25-.29-10.02-.09-13.18-.02l1.01 5.39c1.94-.36 8.79.74 9.08 1.31.65 1.94-3.16 5.67-8.76 9.91-1.36 1.08-2.87 2.15-4.45 3.23-5.24 3.59-11.28 7.4-16.73 10.56-5.96 3.52-9.05 5.24-11.71 6.32-.79.36-3.73 1.65-3.81 1.65 0 0-2.23-.86-2.59-1.08-2.23-1.36-1.94-1.36-3.88-2.87-2.73-2.23-5.39-4.74-7.83-8.04-1.51-2.01-2.8-4.09-3.66-6.18-2.3-5.53-1.8-10.84 5.1-13.65 2.08-.86 9.91-.79 10.41-.79 0-.5-.43-4.09-.43-4.09-17.02-1.01-29.16 7.76-24.42 24.63.93-.65 5.39 2.37 10.27 6.1 6.18 4.74 13 10.49 14.08 11.06 5.89-2.51 20.25-8.04 34.33-12.35.86-.29 1.72-.57 2.59-.79 0-.07.07-.07.14-.07 11.35-3.3 22.05-5.6 27.44-4.67.14 0 .22.07.29.07l1.15-10.27Z"/><path fill="#001d33" d="M800.1 227.09c.65-.72.57-1.72-.14-2.37-.43-.36-.79-.72-1.22-1.01-.72-.57-1.8-.43-2.37.29s-.43 1.8.29 2.37c.36.29.72.57 1.08.86.29.29.72.43 1.08.43.5 0 .93-.22 1.29-.57Zm29.95 1.79c.36-.22.72-.43 1.08-.65.86-.43 1.15-1.51.72-2.3-.43-.86-1.51-1.15-2.3-.72-.5.22-.86.5-1.29.72-.79.5-1.08 1.51-.57 2.3.36.5.86.79 1.44.79.29 0 .57-.07.93-.14Z"/><path fill="#c1c7cc" d="M822.8 295.6c.43 0 .79-.22.93-.57 2.73-8.4 1.22-19.1-.29-29.45-2.23-15.66-4.31-30.38 6.97-37.42.43-.29.57-.86.29-1.29-.29-.43-.86-.57-1.29-.29-12.35 7.61-10.05 23.7-7.83 39.21 1.44 10.13 2.94 20.61.36 28.58-.22.5.07 1.01.57 1.15.07.07.22.07.29.07Zm-19.61-9.12c.36 0 .65-.22.72-.43.22-.29 4.67-8.04.07-18.75-2.59-6.1-1.15-8.62 1.08-12.5.57-1.08 1.22-2.23 1.87-3.52 3.16-6.46.22-19.1-8.33-26.43-.36-.36-.93-.29-1.29.07s-.29.93.07 1.29c7.83 6.68 10.7 18.46 7.9 24.2-.65 1.22-1.29 2.3-1.87 3.38-2.3 4.02-4.17 7.18-1.15 14.15 4.24 9.84.14 17.02.07 17.09-.22.43-.07 1.01.36 1.29.14.07.36.14.5.14Z"/><path fill="#595e62" d="M855.12 136.79c-1.17-7.53-10.9-13.28-10.9-13.28s-.43-5.77-10.02-12.52c-9.6-6.75-19.17-2.38-27.38-1.28-17.73 2.38-15.39 25.55-13.09 24.18 3.17-1.89 5 .46 14.23 2.26s17.79-5.47 17.79-5.47c-3.9 14.38 5.58 9.13 8.35 13.07.44.63 2.28 1.76 3.58 2.62l-4.06 24.21s-1.44 1.98-5.54 1.5a77.2 77.2 0 0 0-23.32-4.69c-13.9-.64-13.55 2.1-13.55 2.1s-5.09 11.78 1.14 22.04c5.21 8.57 15.77 10.91 23.26 10.73 2.94-.07.45-1.73 3.57-5.33 2.08-2.41 13.92-1.84 17.72-7.78 2.53-3.96 1.2-9.59.09-14.16l-1.75-9.02c2.48-4.87 10.99-24.1 17.3-12.9 1.64-3.36 3.46-10.85 2.61-16.28Zm-36.95 38.89c0 4.69-17.63 13.47-26.1-3.1v-.85c5.28 4.48 24.95 1.75 24.95 1.75q1.15 1.6 1.15 2.21Z"/><path fill="#003e64" d="M823.45 89.72c-17.72.34-31.5 12.04-33.69 15.78-.83 7.89-1.35 20.83-1.45 29.71 10.3 4.52 37.56 10.54 70.07.96-.14-11.1.82-20.49-.95-25.94-4.81-14.79-18.79-20.8-33.98-20.51"/><g data-name="Ebene 2"><path fill="#383838" d="m668.67 206.82-34.75 8.17c-.84.2-1.33 1.17-1.1 2.17l1.65 7c.12.5.4.91.75 1.17s.78.38 1.2.28l2.83-.67c-1.79 2.87-2.32 6.63-1.46 10.25l26.1 100.91c.68 2.62 2.98 4.29 5.19 3.77l28.27-6.65c2.29-.54 3.61-3.22 2.9-5.94l-26.03-100.66c-.85-3.62-3-6.75-5.88-8.52l2.83-.67c.84-.2 1.33-1.17 1.1-2.17l-1.65-7c-.24-1-1.11-1.64-1.95-1.45Z" data-name="Ebene 1-2"/></g><path fill="#005587" d="M837.1 140.43c-20.53.1-46.4-4.04-48.8-6.72 0 0-8.04 5.21-14.99 10.11-7.03 4.96-6.34 6.01 2.54 4.8 6.21-.85 23.74 3.19 31.33 5.5 9.74 2.96 13.07-2.13 21.59-6.77l8.33-6.91Z"/><path fill="#a4abb3" d="m675.71 269.02-.73-.03h-.28l-.45-.02-.49-.02-2.29-.08-.62-.02-.56-.02-3.13-.11-.67-.02-3.53-.12-.54-.02-3.07-.1-.82-.03-.98-.03h-.22l-6.68-.24h-.35l-4.43-.16h-.36l-.15-.02-.78-.03h-.26l-.78-.04 1.99 36.35.14-.09 8.98-5.72c4.88-3.11 10.11-6.44 13.22-8.42 6.07-2.67 9.31-10.54 9.69-17.49 0-.09.01-.19.02-.28.05-1.06.03-2.13-.07-3.19l-1.83-.05Zm238.89 42.59s-.04.04-.05.06c-11.68 12.43-22.13 30.36-31.53 47.49v.02l-.04.05c-2.25 4.09-4.43 8.14-6.56 12.06l-17.22-3.07-.29-.05-9.49-1.69 7.57 22.84.02.05 1.88 5.68h-.07c6.54 1.11 25.66.28 31.62 0 1.13-.06 1.8-.09 1.8-.09s68.7-88.64 70.85-92.53v-.02q.075-.105.06-.12c-.12-.09-.24-.16-.36-.24-17.98-12.52-33.94-5.58-48.17 9.58Z"/><path fill="#8a9097" d="m856.99 389.36-.02-.05-7.57-22.84-.02.02-19.9 18.76s.14 2.8 3.64 6.52l.02.02c1.44 1.49 3.03 2.82 4.76 3.97 7.88 5.35 19.9-.26 20.9-.72s.07 0 .07 0z"/><path fill="#004975" d="M965 301.21s-18.84 33.61-40.75 66.38c-3.13 4.75-13.26 10.55-13.26 10.55l-9.4 9.23c-1.4-.29-3.23-1.14-5.4-2.26l-.25-.14-.72-.48-.53-.38-12.52-8.52-2.94-1.96-1.78-1.24-3.09-2.13.03-.06c.03-.06 0-.16.08-.29.11-.35 1.03-3.62 1.03-3.62s1.89-5.03 3.64-8.91c1.18-2.71 2.23-6.24 5.46-12.33.25-.6.57-1.16.91-1.79 10.23-19.29 18.63-46.24 27.43-61.49L965 301.2Z"/><path fill="#004975" d="M911.73 240.91c-10.48-9.57-16.12-13.96-26.59-12.2-8.65 1.45-16.66 12-18.04 18.89-3.06 15.31 2.04 22.8 12.25 34.54s24.01 33.24 32.43 43.17c0 0 39.21-13.41 45.6-12.99 3.28-5.54 7.65-11.5 7.61-11.1l-53.27-60.3Z"/></svg>