<svg xmlns="http://www.w3.org/2000/svg" data-name="Ebene 1" viewBox="0 0 3840 2160"><path fill="#fff" d="M0 0h3840v2160H0z"/><path fill="#eff1f2" d="M1760.15 705.5h217.78a70.83 70.83 0 1 0 0-141.65 73 73 0 0 0-12.09 1L1931 570.8c-9.12-42.346-46.593-72.56-89.91-72.49-50.75 0-91.88 40.94-91.88 91.44a91 91 0 0 0 .77 11.89c-26.551 5.152-44.822 29.661-42.176 56.578s25.34 47.4 52.386 47.282z"/><path fill="#eff1f2" d="M814 436.11h197.08c24.696.109 45.341-18.755 47.455-43.361s-15.012-46.714-39.365-50.819L991 337.1c.13-1.89.22-3.8.22-5.73 0-45.7-37.23-82.74-83.15-82.74-37.316-.052-70.092 24.775-80.15 60.71l-2.89-.49A64.12 64.12 0 1 0 814 436.11M2719.38 696h345.83c46.2 0 83.66-37.28 83.66-83.25-.098-40.6-29.429-75.226-69.46-82l-49.56-8.43q.34-5 .35-10.08c0-80.24-65.33-145.24-145.91-145.24-65.48-.103-123.004 43.447-140.67 106.5l-5-.86a114.5 114.5 0 0 0-19.19-1.62c-62.42 0-113 50.35-113 112.47S2657 696 2719.38 696m969.82 1322.66c-127.14-197.69-229.32-249.44-324.84-259.82v-48.06a67.46 67.46 0 0 0 52.11-103.28c1.32-6.44 2.88-14.76 2.89-17.73 0-33.11-60-134.34-60-134.34s-60 101.23-60 134.34c0 2.89 1.74 10.86 3.21 17.23a67.44 67.44 0 0 0 51.79 103.78v47.13c-105.6-8.48-203.77 29.58-319.56-29-215-108.92-403.66-72.52-550.52 5.8V836.25h-639.7v355.26h-321.64V975.35H853.85v793.24q-7-.09-14-.1a1084.4 1084.4 0 0 0-314.28 46.2v-103.53a110.26 110.26 0 0 0 85.15-168.8c2.15-10.53 4.7-24.1 4.71-28.94 0-54.11-98-219.51-98-219.51s-98 165.4-98 219.51c0 4.71 2.84 17.71 5.24 28.1a110.27 110.27 0 0 0 84.62 169.64v108.55a1063.1 1063.1 0 0 0-360.75 199h1696.13v.31h639.7v-.31z" data-name="Path"/><path fill="#f7f8f9" d="M1844.67 887.39h116.18v155.42h-116.18zm130.88 0h116.18v155.42h-116.18zm130.88 0h116.18v155.42h-116.18zm130.88 0h116.18v155.42h-116.18zm130.88 0h116.18v155.42h-116.18zm-523.52 206.55h116.18v155.42h-116.18zm130.88 0h116.18v155.42h-116.18zm130.88 0h116.18v155.42h-116.18zm130.88 0h116.18v155.42h-116.18zm130.88 0h116.18v155.42h-116.18zm-523.52 206.56h116.18v155.42h-116.18zm130.88 0h116.18v155.42h-116.18zm130.88 0h116.18v155.42h-116.18zm130.88 0h116.18v155.42h-116.18zm130.88 0h116.18v155.42h-116.18zm-523.52 206.55h116.18v155.42h-116.18zm130.88 0h116.18v155.42h-116.18zm130.88 0h116.18v155.42h-116.18zm130.88 0h116.18v155.42h-116.18zm130.88 0h116.18v155.42h-116.18zm-523.52 206.56h116.18v155.42h-116.18zm130.88 0h116.18v155.42h-116.18zm130.88 0h116.18v155.42h-116.18zm130.88 0h116.18v155.42h-116.18zm130.88 0h116.18v155.42h-116.18zM853.85 1062.54h669.09v102.52H853.85zm0 175.99h669.09v102.52H853.85zm0 176h669.09v102.52H853.85zm0 175.99h669.09v102.52H853.85zm0 175.99h669.09v102.52H853.85z" data-name="Rectangle"/><path fill="none" d="M150.8 2047.83h3540.6v29.49H150.8z" data-name="Rectangle"/><path fill="none" d="M150.8 2018.66h3540.6v29.49H150.8z" data-name="Rectangle"/><path fill="#e0e2e5" d="M1410.13 1117.06h607v148h-607zm-630.23 0h618v148h-618z" data-name="Rectangle"/><path fill="#c1c7cc" d="M764.67 1258.93h1277.7v50.49H764.67zm52.44 100.97h1172.83v637.75H817.11z" data-name="Rectangle"/><path fill="#e0e2e5" d="M842.35 1385.14h357.28v587.27H842.35zm382.53 0h357.28v587.27h-357.28zm382.53 0h357.28v587.27h-357.28z" data-name="Rectangle"/><path fill="#c1c7cc" d="M1964.69 1972.41h25.24v75.73h-25.24zm-1147.58 0h25.24v75.73h-25.24zm1147.58-671.26h25.24v84h-25.24zm-1147.58 0h25.24v84h-25.24zm573.79-184.09h25.24v141.87h-25.24z" data-name="Rectangle"/><path fill="#c1c7cc" d="M810.14 1117.06h-28.08c-5.39 12.64-9.56 28.15-12.39 46.64-5.1 32.92-5 67.73-4.87 88.52v6.71h25v-6.81c-.09-20.06-.23-53.64 4.54-84.57 3.39-22 8.76-39.04 15.8-50.49m1186.87 0h28.08c5.44 12.64 9.58 28.15 12.42 46.64 5.07 32.89 4.92 67.7 4.83 88.49v6.71h-25v-6.81c.08-20.06.23-53.64-4.55-84.57-3.37-21.97-8.74-39.01-15.78-50.46" data-name="Path"/><path fill="#a4abb3" d="M1276.34 1856.84h636.9v36.89h-636.9z" data-name="Rectangle"/><path fill="#a4abb3" d="M1313.08 1859.95h25.24v188.19h-25.24zm538.16 0h25.24v188.19h-25.24zm-931.51-397.43h202.53v242.83H919.73z" data-name="Rectangle"/><path fill="#c1c7cc" d="M2285.51 1301.15h33.5v747h-33.5z" data-name="Rectangle"/><rect width="202.15" height="225.72" x="2201.18" y="1083.7" fill="#e0e2e5" data-name="Rectangle" rx="17.72" ry="17.72"/><path fill="#a4abb3" d="M2258.5 1148.37h87.52v85.51h-87.52z" data-name="Rectangle"/><path fill="#e0e2e5" d="M2269.36 1159.23h65.78v34.51h-65.78z" data-name="Rectangle"/><circle cx="2274.8" cy="1207.73" r="5.43" fill="#e0e2e5"/><circle cx="2329.72" cy="1207.73" r="5.43" fill="#e0e2e5" data-name="Oval"/><path fill="#a4abb3" d="M2269.37 1233.88h10.87v10.87h-10.87zm54.91 0h10.87v10.87h-10.87z" data-name="Rectangle"/><path fill="#e0e2e5" d="M2302.26 1499.87c46.944 0 85 38.056 85 85v162.27h-169.9v-162.32c0-46.944 38.056-85 85-85z" data-name="Path"/><path fill="#a4abb3" d="M2275.235 1543.9h54.05c10.678 0 19.335 8.657 19.335 19.335s-8.657 19.335-19.335 19.335h-54.05c-10.679 0-19.335-8.657-19.335-19.335s8.656-19.335 19.335-19.335" data-name="Rectangle"/><path fill="#e0e2e5" d="M2208.36 1582.58h187.79v29.61h-187.79z" data-name="Rectangle"/><g data-name="Group"><path fill="#1e2122" d="M3091.42 1316.69h114.71v121.4h-114.71z" data-name="Path"/><path fill="#1e2122" fill-rule="evenodd" d="m3206.13 1469.76-31.68-31.67h31.68z" data-name="Path"/><path fill="#56b0ff" fill-rule="evenodd" d="M3139.14 1401.76v8.6a8.42 8.42 0 0 0 16.82 0v-8.6z" data-name="Path"/><path fill="#0096e8" fill-rule="evenodd" d="M3182.63 1395.45a24.57 24.57 0 0 1-10-19.79v-11.57c-.383-13.576-11.499-24.382-25.08-24.382s-24.697 10.806-25.08 24.382v11.57a24.6 24.6 0 0 1-10 19.79v12.58h70.16z" data-name="Path"/><path fill="#00629a" d="M3112.47 1395.45h70.17v12.63h-70.17z" data-name="Path"/><path fill="#fff" fill-rule="evenodd" d="M3167.73 1339.02c7.18 0 13 5.82 13 13s-5.82 13-13 13-13-5.82-13-13 5.82-13 13-13" data-name="Path"/><path fill="#e0e2e5" d="M2623.87 1097.56h419.43v614.88h-419.43z" data-name="Path"/><path fill="#d0d4d8" d="M2623.87 1097.56h419.43v251.21h-419.43z" data-name="Path"/><path fill="#001d33" d="M2623.87 1097.56h419.43v52.92h-419.43z" data-name="Path"/><path fill="#003253" fill-rule="evenodd" d="M2736.33 1217.75c.006 6.528-5.282 11.824-11.81 11.83s-11.824-5.282-11.83-11.81 5.282-11.824 11.81-11.83h.08c6.499.033 11.75 5.31 11.75 11.81" data-name="Path"/><path fill="#004975" fill-rule="evenodd" d="M2785.87 1217.75c.006 6.528-5.282 11.824-11.81 11.83s-11.824-5.282-11.83-11.81 5.282-11.824 11.81-11.83c6.526 0 11.819 5.284 11.83 11.81" data-name="Path"/><path fill="#0096e8" fill-rule="evenodd" d="M2833.09 1217.75c.006 6.528-5.282 11.824-11.81 11.83s-11.824-5.282-11.83-11.81 5.282-11.824 11.81-11.83c6.524 0 11.814 5.286 11.82 11.81z" data-name="Path"/><path fill="#56b0ff" fill-rule="evenodd" d="M2882.59 1217.75c0 6.522-5.288 11.81-11.81 11.81s-11.81-5.288-11.81-11.81 5.288-11.81 11.81-11.81 11.81 5.288 11.81 11.81" data-name="Path"/><path fill="#007bc0" fill-rule="evenodd" d="M2955.72 1217.75a25.32 25.32 0 1 1-25.31-25.31c13.978 0 25.31 11.332 25.31 25.31" data-name="Path"/><path fill="#fff" d="M2928.01 1201.2h4.79v21.23h-4.79z" data-name="Path"/><path fill="#fff" fill-rule="evenodd" d="M2926.98 1231.33a3.43 3.43 0 1 1 3.43 3.42 3.42 3.42 0 0 1-3.42-3.42z" data-name="Path"/><path fill="#595e62" d="M2857.56 1290.15c0 .24.05.49.08.73s0 .48 0 .73a3 3 0 0 1 0 .42v56.76h-49.77v5.88h54.79v-64.52zm-49.69 70.41v11.67c.006 7.07 5.74 12.8 12.81 12.8h24.29c7.07 0 12.8-5.73 12.8-12.8v-11.67zm13.7 19.6a8.8 8.8 0 1 1 8.81-8.8 8.8 8.8 0 0 1-8.85 8.77z"/><path fill="#71767c" d="M2857.73 1348.82v-55.72c.064-13.303-10.324-24.314-23.608-25.024s-24.787 9.13-26.142 22.364h43.22v49.24a9.18 9.18 0 0 1-9.15 9.14z" data-name="Path"/><path fill="#eff1f2" d="M2851.2 1339.65v-49.24h-43.33v58.41h34.21a9.17 9.17 0 0 0 9.12-9.17" data-name="Path"/><path fill="#a4abb3" d="M2857.73 1354.7h-49.86v5.86h49.89z" data-name="Path"/><path fill="#a4abb3" d="M2827.76 1365.1a8.8 8.8 0 1 0-12.44 12.45 8.8 8.8 0 0 0 12.44-12.45m-.35 6.24a7 7 0 0 1-.07.9q-.075.426-.2.84a3 3 0 0 1-.12.34q-.124.335-.29.65a.2.2 0 0 1 0 .07q-.147.275-.33.53-.091.145-.2.28a3 3 0 0 1-.23.27l-.24.26a5.88 5.88 0 0 1-4.16 1.72 5.7 5.7 0 0 1-1.31-.14 6 6 0 0 1-1.55-.59l-.36-.22-.24-.17a2 2 0 0 1-.23-.18l-.23-.19a1.5 1.5 0 0 1-.22-.21l-.21-.21-.36-.42c-.11-.16-.21-.3-.31-.46s-.19-.32-.28-.49-.08-.18-.11-.27a5 5 0 0 1-.2-.53 7 7 0 0 1-.2-.84 7 7 0 0 1-.07-.91v-.9q.061-.43.2-.84c.09-.28.2-.55.31-.81a5 5 0 0 1 .28-.49q.138-.246.31-.47a4 4 0 0 1 .36-.43l.4-.4c.14-.13.29-.25.43-.36s.31-.22.47-.31l.5-.28q.39-.18.8-.31.136-.056.28-.08l.28-.07h.29a5.3 5.3 0 0 1 .89-.07h.62l.36.05q.539.092 1.05.28.274.088.53.22l.18.09q.224.116.43.26.191.103.36.24l.13.11.3.25.36.37q.377.41.66.89c.08.12.15.26.22.39l.06.12q.09.163.15.34.1.225.17.46c0 .13.07.28.11.42q.06.212.09.43.015.205 0 .41.015.24 0 .48z" data-name="Shape"/><path fill="#fff" d="M2821.54 1365.46a5.88 5.88 0 1 0 5.86 5.89 5.88 5.88 0 0 0-5.86-5.89" data-name="Path"/><path fill="#d0d4d8" d="M2941.15 1654.39c-11.18 4.25-25.11 7.8-41 10.41a400.6 400.6 0 0 1-64 4.9h-.55c-9.51 0-18.78-.32-27.72-.9-33.75-2.19-62.78-8.22-81.88-16.5l14.58-41.74 2.87-8.22.37-1.09 9.67-27.71 65.71-188.48h28.35l11.38 32.77.19.53 9.65 27.76.74 2.13v.06l1.44 4.1.06.2 1.94 5.59 14.67 42.2 3.25 9.36 1.67 4.78v.1l4.55 13.12 4.17 12 17.35 49.92z" data-name="Path"/><path fill="#007bc0" d="M2843.54 1480.2c-.22 2.19-.5 4.48-.73 6.77a42 42 0 0 0 9.13-7.55 24.9 24.9 0 0 1-8.4.78m-16.67-36.41h-.06q.002.505.11 1c.07.15.16-.2.27-.89zm44.15 8.77a4.91 4.91 0 0 0-1.12-4 4 4 0 0 0-.39-.37l-.74-2.13-9.65-27.76a26.2 26.2 0 0 0-10 .65s-16.25 10.97-18.92 14.43a10.2 10.2 0 0 0-1.39 3c-.18.56-.35 1.17-.49 1.77-.55 2.2-.9 4.49-1.13 5.73a26.54 26.54 0 0 0 12.38 1.16 38.8 38.8 0 0 0 6.94-1.87c.83-.3 1.64-.62 2.42-.95a59 59 0 0 0 10.57-5.82c0 .36 0 4.87.21 9.29a55.5 55.5 0 0 0 .64 7.2q.085.544.28 1.06c.11-.18.24-.36.36-.55.25-.37.51-.75.78-1.13l.42-.56.2-.27.43-.54c.15-.18.3-.36.45-.52s.29-.34.44-.5l.24-.24.23-.23c.14-.14.31-.28.46-.42a6.9 6.9 0 0 1 1.62-1.11 3.8 3.8 0 0 1 1-.31q.36-.053.72 0a2.64 2.64 0 0 1 1.53.72q.18.139.33.31a4.92 4.92 0 0 1 1.11 3.79c-.34 4.58-4.71 10.54-6.49 12.84.39 1 .61 1.61.61 1.61a39.3 39.3 0 0 0 7.83-8.63z" data-name="Shape"/><path fill="#56b0ff" d="M2871.63 1502.56h-30.67s.68-5.7 1.48-12.47c.12-1 .24-2.08.37-3.15a42 42 0 0 0 9.13-7.55 24.9 24.9 0 0 1-8.4.78 36.8 36.8 0 0 1-8.51-1.51 117 117 0 0 1-5.38-16.1c-.5-1.8-.89-3.53-1.22-5.27a90 90 0 0 1-1.49-11.75v-1.72l.33.1c4 1.18 9.37-2.16 13-2.82h.23c1.72-.28 3.39-.6 5-.94 4.726-.98 9.399-2.202 14-3.66h.06s0 4.71.21 9.31a56 56 0 0 0 .63 7.2q.08.537.23 1.06c.11-.18.24-.36.36-.55.25-.37.51-.75.78-1.13l.42-.56.2-.27.43-.54c.15-.18.3-.36.45-.52s.3-.34.44-.5l.24-.24.23-.23c.14-.14.31-.28.46-.42a5.46 5.46 0 0 1 2.63-1.55 2.5 2.5 0 0 1 .72 0 2.66 2.66 0 0 1 1.52.66q.206.173.39.37a4.91 4.91 0 0 1 1.12 4c-.44 4.54-4.69 10.38-6.49 12.64l.6 1.58 4.23 23.28z" data-name="Path"/><path fill="#a4abb3" d="m2805.52 1533.79-13 39.71 19.35 5.68-6.22-42.88c0-.89-.11-1.73-.11-2.51z" data-name="Path"/><path fill="#c1c7cc" d="m2892.58 1514.56-9 13.67-2.32 24.19-4.44 46.24-.33 3.5-2.11 22.05-.5 5.07-2.01 21.51h-61.17v-13.33l.06-18 .05-15.54v-.4l-3.47-24.12-.22-1.57-.63-4.3-4.3-29.68-1.06-7.32c-.05-.84-.11-1.68-.11-2.52a34.42 34.42 0 0 1 16.68-29.94l24.69-13.92-1.12 11.71-.07.77-.34 3.52 6.31-3.59 22.18-12.49 18.26 10.26 3.25 9.36 1.67 4.78z" data-name="Path"/><path fill="#d0d4d8" d="m2902.33 1527.86-1.02 11.86-5.07 58.62-.98 11.38-.4 4.63-.98 11.38-.31 3.59-1.83 21.21.15-2.13 1.66-19.08.31-3.59.98-11.4.41-4.64.98-11.35 5.07-58.63z" data-name="Path"/><path fill="#a4abb3" d="m2897.13 1527.72-3.08 70.16-.44 10.1-.24 5.43-.54 12.24-.16 3.67-.93 21.21-.01.04-.01.23h-20.14v-.01l2.06-21.47.49-5.09 2.12-22.05.33-3.47 4.6-47.98 2.15-22.45 9.22-13.78.03.1z" data-name="Path"/><path fill="#56b0ff" d="m2869.35 1490.1-26.58-.73-.06.73-1.9 16.12z" data-name="Path"/><path fill="#d0d4d8" d="M2847.51 1532.2h20.6v5.59h-20.6z" data-name="Path"/><path fill="#c1c7cc" d="M2868.77 1446.08c-2 0-4.81 0-9-.39h-.06c-2.27-.18-4.93-.44-8.08-.8l-2.2-.25a21 21 0 0 0-3-1.46 64 64 0 0 0-6.27-2.13c-4.21-1.23-8.74-2.25-11.91-2.91-2.52-.52-4.18-.82-4.18-.82s0-.25.06-.36c2.43-15 19.38-23.51 33.45-19.57.43.13.86.25 1.28.4l.19.53z" data-name="Path"/><path fill="#8a9097" d="M2806.09 1444.63c-.67.47.1.77.81.61 6.12-1.35 12.82-1.33 21.41.54 5.13 1.12 23.51-.9 23.51-.9-6.28-7.06-19.13-9.84-27.43-8a56.2 56.2 0 0 0-18.3 7.75" data-name="Path"/><path fill="#b2b9c0" d="m2901.31 1539.72 17.35 49.92c.09 7.58.13 14.85.15 21v18.63l-19.48-12.19-4.46-2.73-1.47-.92-8.4-5.25c0-1.46 0-3-.07-4.67s-.14-3.13-.24-4.8v-.47c-.75-12.36-2.57-28.51-3.38-45.76 0-.57-.05-1.15-.07-1.73-.14-3.27-.24-6.58-.29-9.91-.1-7.6 1.74-23.8 10-31.1l1.67 4.78v.1l4.55 13.12 4.17 12z" data-name="Path"/><path fill="#8a9097" d="M2743.45 1573.5h44.44v63.95h-44.44z" data-name="Rectangle"/><path fill="#43464a" d="M2787.89 1573.5h64.74v63.95h-64.74z" data-name="Rectangle"/><path fill="#7ebdff" d="M2901.15 1626.28c-1-11.91-5.87-19.05-13.47-21.93-15.92-6.09-70.27.16-70.27.16l-29.54-2.82v20.66l19-3.22z" data-name="Path"/><path fill="#56b0ff" d="M2769.74 1599.13c-4.56 22.7 18.15 23.22 18.15 23.22v-20.66z" data-name="Path"/><path fill="#7ebdff" d="m2787.87 1589.06-4.78 2.8 10.69 12.13 16.15.21z" data-name="Path"/><path fill="#b2b9c0" d="m2911.25 1610.69 7.55 18.63h-102.15l-.05-29.95s38.05.42 60.5-.67c4.49-.22 8.36-.49 11.17-.85 10.54-1.29 18.14 4.96 22.98 12.84" data-name="Path"/><path fill="#56b0ff" fill-rule="evenodd" d="m2739.98 1601.69 21-2.56c1.31 5.61 2.82 15.14-6.48 20.08-3.17 1.69-13.09 3.36-13.09 3.36z" data-name="Path"/><path fill="#232628" d="M2836.07 1669.7h-.45c-9.51 0-18.78-.32-27.72-.9l.25-12.27 2.57-12.08h21.69c.779 8.475 2 16.903 3.66 25.25" data-name="Path"/><path fill="#2e3033" d="M2900.17 1664.8a400.6 400.6 0 0 1-64 4.9h-.55a147 147 0 0 1-3.21-25.25l59.37.07h.22a70.3 70.3 0 0 1 8.17 20.28" data-name="Path"/></g><g data-name="Group"><path fill="#d0d4d8" d="M505.87 1668.86a7.41 7.41 0 0 1 6.41 9.31l-.61 2.24-4.14 14.55 14.2 4.06 6.71-21.22a10.67 10.67 0 0 0-1.46-8.94q-6.936-.218-10.31-.218-3.663 0-10.8.218" data-name="Path"/><path fill="#001d33" d="M595.08 1595.05s42.81-64.14 55.84-87.32c7.62-13.55 13.62-45.54-7.61-51.31-3.53.33-2.31 0-8.43 3-11.44 10.08-25.07 33.85-29.25 41.29-11.57 20.58-45.21 76.59-47.4 84.11 4.37 28.36 36.85 10.23 36.85 10.23" data-name="Path"/><path fill="#43464a" d="m620.85 1840.75 25.56-3.76 10.88-1.59-4.9-94.64c-1.92-22.6-8.26-38.25-24.5-70.12a32.4 32.4 0 0 1-2.64-7.54l-46.49 7.34z" data-name="Path"/><path fill="#d0d4d8" d="m753.66 1724.35 11.9-41.61-14.92-4.09-11.17 41.65z" data-name="Path"/><ellipse cx="405.61" cy="1933.14" fill="#d0d4d8" data-name="Oval" rx="15.73" ry="17.53"/><ellipse cx="860.38" cy="1933.14" fill="#d0d4d8" data-name="Oval" rx="15.73" ry="17.53"/><path fill="#004975" d="M721.71 1938.65a5.52 5.52 0 0 1-5.52-5.51c0-42 14.94-81.51 42.06-111.24s63.52-46.34 102.13-46.34c48.2 0 93 26.15 119.86 69.94a5.51 5.51 0 1 1-9.39 5.76c-24.84-40.5-66.14-64.68-110.47-64.68-73.42 0-133.16 65.75-133.16 146.56a5.51 5.51 0 0 1-5.51 5.51" data-name="Path"/><path fill="#43464a" d="m684.24 1608.04-1.67.21s5.14 35.81 15.78 55.11l61 22.54c7-9.85 12.61-18.29 15.41-27.22 4.75-15.22 4.46-26.52-4.6-50.64z" data-name="Path"/><path fill="#d0d4d8" d="m624.918 1919.688 4.075-6.117 56.543 37.666-4.075 6.117z" data-name="Rectangle"/><path fill="#43464a" d="M860.38 2077.32c-35.06 0-68-15.14-92.63-42.64-24.39-27.17-37.82-63.24-37.82-101.54s13.43-74.37 37.82-101.55c24.68-27.49 57.57-42.64 92.63-42.64s68 15.15 92.64 42.64c24.39 27.18 37.82 63.24 37.82 101.55s-13.43 74.37-37.82 101.54c-24.68 27.5-57.57 42.64-92.64 42.64m0-267.41c-60.37 0-109.49 55.28-109.49 123.23s49.12 123.22 109.49 123.22 109.5-55.28 109.5-123.22-49.12-123.23-109.5-123.23m-454.77 267.41c-35.06 0-68-15.14-92.63-42.64-24.39-27.17-37.82-63.24-37.82-101.54s13.43-74.37 37.82-101.55c24.67-27.49 57.57-42.64 92.63-42.64s68 15.15 92.64 42.64c24.38 27.18 37.81 63.24 37.81 101.55s-13.43 74.37-37.81 101.54c-24.68 27.5-57.58 42.64-92.64 42.64m0-267.41c-60.37 0-109.45 55.28-109.45 123.23s49.08 123.22 109.45 123.22 109.49-55.28 109.49-123.22-49.11-123.23-109.49-123.23" data-name="Shape"/><path fill="#56b0ff" d="M646.41 1836.99c-.26 11.59-.48 24.27-.61 38.19l-16.18 2.33-8.77-36.77z" data-name="Path"/><path fill="#43464a" d="m721.81 1613.85-.63.18c-1.59.42-3.18 1-4.88 1.36-52.55 14.12-136.92 54.69-136.92 54.69l-.61.35 20.18 42.51c7-3.91 16.36-6.55 27.12-8.87 17-3.66 31.73-6 44.53-7.49 23.09-2.75 41.48-1.49 56.79-.84z" data-name="Path"/><path fill="#71767c" d="m573.45 1908.68.16.16a27.5 27.5 0 0 0 22.42 6.42l61.37-10.11-11.6-30.75-16.31 2.65-56 31.63z" data-name="Path"/><path fill="#001d33" d="M796.45 1930.28c0-10.068-8.162-18.23-18.23-18.23h-96.06c-18.22.89-32.77 19.43-32.77 42.19 0 23.33 15.28 42.24 34.13 42.24s34.14-18.91 34.14-42.24a49.3 49.3 0 0 0-6.05-24zm-103.11 42.32c-1.67 2.07-5.18 5.54-9.85 5.54s-8.17-3.47-9.85-5.54c-3.76-4.65-5.91-11.33-5.91-18.32s2.15-13.66 5.91-18.31c1.68-2.07 5.18-5.55 9.85-5.55s8.18 3.48 9.85 5.55c3.76 4.65 5.92 11.32 5.92 18.31s-2.16 13.67-5.92 18.32" data-name="Shape"/><path fill="#d0d4d8" d="M693.34 1935.97c-1.67-2.07-5.18-5.55-9.85-5.55s-8.17 3.48-9.85 5.55c-3.76 4.65-5.91 11.32-5.91 18.31s2.15 13.67 5.91 18.32c1.68 2.07 5.18 5.54 9.85 5.54s8.18-3.47 9.85-5.54c3.76-4.65 5.92-11.33 5.92-18.32s-2.16-13.66-5.92-18.31" data-name="Path"/><path fill="#595e62" d="m606.775 1913.402 38.275-6.302 2.039 12.384-38.275 6.302z" data-name="Rectangle"/><path fill="#d0d4d8" d="m681.456 1957.357 4.074-6.117 56.543 37.667-4.075 6.117z" data-name="Rectangle"/><path fill="#004975" d="m866.65 1928.27-123.64-166.76 11.61-40.63-14.17-3.88-17 63.38-207.84-59.66 6.14-21.7-14.2-4.06s-25.85 91.55-26.57 94.08c-13.47 46.71-31.69 98.22-78.63 137.12a7.35 7.35 0 1 0 9.41 11.29c21.86-18.13 43.23-43 56.31-69 12.48-24.84 19.88-50.5 27-75.31.69-2.38 7.53-26.46 7.53-26.46l174.16 170.63a13.33 13.33 0 0 0 8.63 3.17h175a7.73 7.73 0 0 0 6.26-12.21m-182-3.54-177.49-174.15 4.44-15.72 208 59.66zm13.35 1.06 40-146 108.87 146z" data-name="Shape"/><path fill="#9dc9ff" d="m753.59 1912.84 2.66 37.8-16.14 2.62-13.13-35.99z" data-name="Path"/><path fill="#8a9097" d="m684.006 1984.825.16.17a27.44 27.44 0 0 0 22.41 6.41l61.37-10.1-11.79-30.72-16.13 2.63-56 31.62z" data-name="Path"/><path fill="#43464a" d="m778.9 1689.74-80.25-4.58c-3.93-.22-7-4-7-8.51 0-4.52 3.06-8.25 7-8.51l89.32-5.91c4.09 0 7.41 3.83 7.41 8.55-.06 10.47-7.41 18.96-16.48 18.96" data-name="Path"/><path fill="#001d33" d="m729.01 1455.68.29.44-.27-.09-.24-.07q9.27 58.099 14.208 87.022 4.936 28.923 11.882 65.838l18-.5c5.74-29.25-3.06-71.77-9.49-95.86-9.15-34.25-13.95-49.2-34.38-56.78m-83.3-36.38a54 54 0 0 0 12.3 2.21l.19 4.08c-12.56.14-27.71-3-27.71-3 2.13-3.16 5.66-17 7.79-25.72v.15c4.05 15 7.43 22.19 7.43 22.19z" data-name="Path"/><path fill="#56b0ff" d="M659.57 1452.08h42.04l-13.27-37.07h-30.95z" data-name="Path"/><path fill="#001d33" d="M642.44 1455.16c-10 2.49-15.55 11.17-13.16 22.19l5.44 20c7.23-25.58 7.72-42.19 7.72-42.19" data-name="Path"/><path fill="#003253" d="m754.98 1608.83-25.91-153-.06-.15c-1.06-.29-24.62-7.28-24.62-7.28l-7.65-9.89h-40.28v9.92l-11.83 5.66-2.24 1.1s-.52 16.54-7.78 42l-.22.81c-3.86 9.77-3.38 20 8.53 40 4 6.61 8 13.59 12.09 20.5 12.23 20.87 27.37 49.76 27.37 49.76z" data-name="Path"/><path fill="#004975" d="M544.29 1938.65a5.51 5.51 0 0 1-5.51-5.51c0-80.81-59.74-146.56-133.17-146.56a122 122 0 0 0-37.16 5.79 5.512 5.512 0 0 1-3.36-10.5 132.9 132.9 0 0 1 40.52-6.31c38.61 0 74.88 16.46 102.13 46.34s42.06 69.24 42.06 111.24a5.51 5.51 0 0 1-5.51 5.51" data-name="Path"/><path fill="#71767c" d="m716.214 1989.694 38.402-6.206 2.008 12.424-38.402 6.207z" data-name="Rectangle"/><path fill="#007bc0" d="M670.58 1420.4c5.65-6.24-12.91-2.72-12.91-2.72l-.09.47.72 12.25a55.6 55.6 0 0 0 12.28-10" data-name="Path"/><path fill="#001d33" d="M634.31 1355.36c.67-.44 1.4-.88 2.06-1.24s19-8 38.14-.23c18.45 7.57 30.28 29 30.28 29 .662 5.71.995 11.452 1 17.2 0 14.92 2.28 23.81 2.28 23.81s-4.56 1.18-15.58 0l-1.69-.15c-6.17-.58-12.49-1-12.49-1a42.5 42.5 0 0 0 6.85-19.32c0-.54.07-1.11.07-1.62 2-2.42 13.81-17.6 8.25-23.74-4.4-4.78-9.28 1.85-11.71 6.19a64.4 64.4 0 0 1-1.35-18.34s-4.51.79-9-3.69c0 0-8.83 9.82-20.74 9.82a29 29 0 0 0-15.72 4.63c.22 2.35.44 5.07.88 8l-4.63-4.71c-.15-.22-14.85-12.71 3.09-24.62z" data-name="Path"/><path fill="#56b0ff" d="M650.56 1371.97c11.9 0 20.87-9.84 20.87-9.84 4.48 4.48 9 3.74 9 3.74a66.4 66.4 0 0 0 1.32 18.3c2.5-4.33 7.35-10.95 11.68-6.17 5.81 6.32-6.17 21.39-8.23 23.81 0 .51-.07 1.1-.07 1.62-.66 6.91-1.57 11.17-5.39 17 0 0-4.59 2-15.57 1.81-9.14-.56-14.83-1.73-18.58-2.91 0 0-3.38-7.2-7.42-22.19v-.15a105 105 0 0 1-2.46-12.48c-.44-2.94-.73-5.66-.88-8a30.26 30.26 0 0 1 15.73-4.49z" data-name="Path"/><path fill="#004975" d="M933.4 1758.12H784.88l-32.82 32a5.512 5.512 0 0 0 7.7 7.89l29.6-28.85h102.89l-41.16 162.62a5.52 5.52 0 0 0 5.36 6.87 5.5 5.5 0 0 0 5.33-4.16l41.86-165.34h29.77a5.52 5.52 0 0 0 0-11z" data-name="Path"/><path fill="#56b0ff" d="M486.54 1670.74c25.32-16 108.94-75.1 108.581-75.68a37.3 37.3 0 0 0-7.001-8.14c-17.09-15.17-33.74-2.22-48.16 10.9-15.19 13.82-50.74 45.41-64.2 58.61z" data-name="Path"/><path fill="#56b0ff" d="m475.78 1656.43-7.62-3.26-27.91-.18s9.35 14.89 19.09 18.4c12.59 4.54 19.76 1.76 27.19-.65z" data-name="Path"/><path fill="#d0d4d8" d="M443.6 1657.86h97.77v11H443.6z" data-name="Rectangle"/><path fill="#004975" d="M694.48 1590.88s37.06-67.4 49.11-91.1c7-13.85 6.7-39.36-14.76-44.24-12.45 1.68-25.4 28.56-30.78 39.16-10.7 21.05-38.95 79.93-40.82 87.54 5.55 28.11 37.25 8.64 37.25 8.64" data-name="Path"/><path fill="#9dc9ff" d="M596.4 1670.74c24.63-17.09 98.5-79.29 98.12-79.86a38.1 38.1 0 0 0-7.32-7.84c-17.71-14.44-33.81-.8-47.66 12.9-14.6 14.45-41 46.74-53.89 60.49q2.61 4.246 4.005 6.108 2.172 2.901 6.745 8.202" data-name="Path"/><path fill="#9dc9ff" d="m585.65 1656.43-7.61-3.26-27.88-.18s9.36 14.89 19.1 18.4c12.58 4.54 19.76 1.76 27.18-.65z" data-name="Path"/><path fill="#004975" d="M466.35 1663.36c0-3 1.75-5.5 3.92-5.5h-40.78c-2.16 0-3.92 2.47-3.92 5.5s1.76 5.5 3.92 5.5h40.78c-2.17 0-3.92-2.46-3.92-5.5" data-name="Path"/><path fill="#00629a" d="M584.1 1657.86h-46.87c-2.17 0-3.92 2.47-3.92 5.5s1.75 5.5 3.92 5.5h46.87c2.17 0 3.92-2.46 3.92-5.5s-1.75-5.5-3.92-5.5" data-name="Path"/><path fill="#56b0ff" d="M543.88 1675.06c3.22 1.6 14.09 2.69 21.13.5 9-2.79 13-22.39 13-22.39l-27.85-.18z" data-name="Path"/><path fill="#9dc9ff" d="M439.74 1672.44c5.28 4.34 15.44 3.12 15.44 3.12l13-22.39-27.92-.18s-6.65 14.41-.52 19.45" data-name="Path"/><path fill="#595e62" d="M772.91 1608.29h-27.34l-.06-.25h-43.17a139 139 0 0 0 7.39 31.33c-3.6 5-19.53 32-24.2 45.68-16.62 48.71-19.39 77.82-19.68 78.76l53.37 154.75 34.37-5.72s-9.8-63.69-13.33-83.88c-4.28-24.56-7.11-26.11-23.82-57.52 21.17-35.8 39.72-73.63 55.58-97.93 9.85-15.12 11.33-32.81.89-65.22" data-name="Path"/><g fill-rule="evenodd"><path fill="#d0d4d8" d="m678.15 1409.439-5.517-40.22a2.67 2.67 0 1 1 5.247-1.005l5.724 40.08 22.25-36.316a2.671 2.671 0 0 1 3.844 3.713s-22.145 39.471-28.561 43.745-12.427 7.024-17.312 7.024-6.202-.583-8.857-.96c-2.26.023-5.292-5.004-5.681-5.21 5.355.57 8.316 1.074 13.557.991 4.72-.074 15.306-7.842 15.306-7.842s.4-1.09 0-4"/><path fill="#8a9097" d="M626.759 1368.546c-2.876-.223-4.905-2.934-4.284-5.752 2.23-10.138 10.915-33.608 44.608-39.162 44.554-7.345 47.794 26.967 48.32 31.761.527 4.793.489 13.549-2.084 23.073-1.262 4.674-8.872 6.798-10.649 3.427l-4.892-9.28c-2.39-2.808-4.217-3.926-7.743-2.846l-11.66 4.489a7.24 7.24 0 0 1-5.905-.752l-6.783-4.165c-.479-.294-21.027-3.295-29.363-2.033z"/><path fill="#595e62" d="m704.651 1336.756-3.893 5.292 6.596 12.018 3.434-6.776zm-35.725.74-7.836-3.309-16.13 17.512 12.466-1.506zm-18.227.938-5.511-.18-12.916 14.211 5.754-.622z"/></g></g><g data-name="Group"><path fill="#007bc0" d="M3346.466 1432.99a59.8 59.8 0 0 0 10.95-8.67c-3.403.521-7.191.88-10.73 1-.29 2.57-.59 5.29-.81 8l.59-.29z" data-name="Path"/><path fill="#0096e8" d="m3279.456 1576.05-60.18-18.67-27.49-11.17-12.79 20.11s12.28 4.18 23.23 7.2 19.91 5.51 19.91 5.51 52.69 34.69 70.92 44.09l1.1-31.6-14.7-15.43z" data-name="Path"/><path fill="#8a9097" d="m3220.376 1560.47-19-53.65a5.06 5.06 0 0 0-4.78-3.38h-19.65l17.2.07a5.15 5.15 0 0 1 4.77 3.38l19 53.58a5.16 5.16 0 0 1-3.16 6.54 4.3 4.3 0 0 1-1.69.29h2.5a5.12 5.12 0 0 0 5.15-5.14 4.5 4.5 0 0 0-.34-1.69m-24.47 6.24 11.61.59z" data-name="Shape"/><path fill="#d0d4d8" d="m3217.876 1560.47-19-53.58a5 5 0 0 0-4.77-3.38h-19.44a5.08 5.08 0 0 0-5.07 5.07 4.6 4.6 0 0 0 .29 1.74l18.82 53.14a5.06 5.06 0 0 0 4.7 3.38h2.5l11.68.58h5.52a5.15 5.15 0 0 0 5.14-5.14 10 10 0 0 0-.37-1.76z" data-name="Path"/><path fill="#56b0ff" fill-rule="evenodd" d="m3177.076 1531.38 32.63 1.1c1 6.69-2.94 17.86-9.26 20.14l-21.46 13.7-1.91-34.9z" data-name="Path"/><path fill="#001d33" d="m3311.566 1577.51-9.22 53.88-65.29-29.13 1.21-42.23 41.99 9.95 13.59-76.7z" data-name="Path"/><path fill="#71767c" d="M3462.656 1746.26c.338 2.038.419 4.111.24 6.17h-31.6 26.47a3.55 3.55 0 0 1 3.55 3.55v6h7.35v-6a10.9 10.9 0 0 0-6.01-9.72" data-name="Path"/><path fill="#71767c" d="M3465.896 1752.4h-31.56l.71-7.28h25.76c1.695 0 3.367.397 4.88 1.16a23.8 23.8 0 0 1 .21 6.12" data-name="Path"/><path fill="#a4abb3" d="m3526.706 2011.65-18.81 12.86-33.3 51.52.22.07a26.17 26.17 0 0 0 21.9-4.56l47.69-36-17.71-23.88zm-345.75 33.44.07.22a26.11 26.11 0 0 0 16.68 14.91l57.25 17.1 2.5-28.29-19.25-7.42-57.25 3.53z" data-name="Path"/><path fill="#001d33" d="M3535.246 2005.84c-45.12-136.62-53.06-132-103.77-188.95-6.17-7-9.33-18.59-12-32.63-4.55-23.81-8-47.47-12-69-11.32 15.58-29 30.35-50.79 62.54 12 28.95 22.79 50.26 22.79 50.26l126.82 197.62 2.42-1.69 18.82-12.86zm-216.65-367.23c.15 5.81 3.59 20.72 8.22 44.09 12.78-25.11 14.89-39.27 15.21-44.9h-20.8z" data-name="Path"/><path fill="#003253" d="M3407.596 1715.7c-11.31 15.58-28.95 30.36-50.78 62.54-5.88 8.68-12 18.52-18.44 30.06-7 12.49-11.91 23.45-11.54 32.78 2.72 76.21-2.57 65.63-59.6 211.72l-9.92-3.82-19.26-7.42-4.78-1.84 43.95-219.4s3.1-11 8.12-27.22c6.093-19.68 12.186-48.32 21.889-73.34 4.772-12.306 18.941-35.69 19.601-37.08 12-25.14 14.62-39.47 15.21-44.91h77.46c5.51 42.88.73 60.88-11.91 77.93m-83.15-342.15a.26.26 0 0 1 .08-.22c-.66.74-1 1.25-1 1.25s-2.43-6.54-1.62-12.27a3.8 3.8 0 0 0 .08-.95c-1.62 4.33-3.24 12.42 2.86 19.4a64 64 0 0 1-.37-7.2z" data-name="Path"/><path fill="#003253" d="M3392.366 1374.26c.81-7.49-9.85-13.89-9.85-13.89s0-5.73-9-13.08-18.81-2.42-27-3.3-17.42-3.31-24 0c-6.17 3.08-.66 12.05-.73 17.85a3.9 3.9 0 0 1-.08 1c-.8 5.73 1.62 12.27 1.62 12.27s.37-.51 1-1.25c1.69-2 5-5.73 7.35-6.9 3.31-1.62 4.92.8 13.89 3.3s18-4.11 18-4.11c-4.92 13.89 2.8 16.61 5.22 20.65a7.5 7.5 0 0 1 1 3.53c2.87-4.86 7.5-10.73 11.24-6.55 4.63 5.08-3.38 18-7.42 23.89l1.84 4c.22 0 15.87-27.78 16.9-37.41z" data-name="Path"/><path fill="#56b0ff" d="M3345.596 1433.32c-1.25 11-2.57 21.53-2.57 21.53h40.57l-7.86-43.43-1.84-4c4-5.88 12.05-18.82 7.43-23.89-3.83-4.19-8.46 1.69-11.25 6.54a6.76 6.76 0 0 0-1-3.52c-2.42-4.12-10.14-6.76-5.22-20.65 0 0-9 6.54-18 4.11s-10.66-4.92-13.89-3.31c-3.09 1.16-7.37 6.89-7.44 7s-.06 2.94.31 7.29a113 113 0 0 0 3.38 21c3.9 14.4 7.13 21.31 7.13 21.31a49.6 49.6 0 0 0 11.25 2.02 35 35 0 0 0 10.73-1 59.4 59.4 0 0 1-10.95 8.68z" data-name="Path"/><path fill="none" d="m3335.926 1443.64 7.72-3.32z" data-name="Path"/><path fill="#d0d4d8" d="M3300.066 1472.32a45.56 45.56 0 0 0-6.4 27.27c-.8-9.43 1.62-18.76 6.4-27.27m40.05 60-18.67 117.9h52.7l-8.55-203.42 22.41-7.13-2.13-1.25h-39.81l-5.36 3.31 13.3 3.09z" data-name="Shape"/><path fill="#43464a" d="M3340.116 1532.42s-11.71 86.9-11.61 116.69c0 8.23-1.67 33.6-1.67 33.6-.66 1.39-1.4 2.86-2.13 4.33-14.86 30.14-30.27 76.73-39.36 106.09l4.25-72.06 9-154.7-4.85-65.7-.07-1a48.05 48.05 0 0 1 6.39-27.26 64.8 64.8 0 0 1 16.32-18.82l16.76-13.59 7.56 1.76 13.31 3.09zm84.66 62.1c-3.318-11.479-7.373-29.048-12.335-49.322-3.173-12.965-6.683-30.373-8.922-42.645-2.2-12.27 0-38.309 15.527-48.183l.44.07-27.56-16.12-4 1.25-22.41 7 5.37 355 51.88-1.91 36.6-1.69-6.4-90.47c-2.47-.1-28.78-71.9-28.19-112.98" data-name="Path"/><path fill="#71767c" fill-rule="evenodd" d="M3382.816 1462.89s-13-9.84-17.49-16.38c-.3-.45 13.59-19.55 13.59-19.55l14.41 10c.07.08-5.37 19.84-10.51 25.94zm-47.33 0s14.11-11.57 18.52-18.15c.29-.44-8.23-16-8.23-16l-13.89 8.09c0 .15-1.54 19.91 3.6 26z" data-name="Shape"/><path fill="#56b0ff" d="M3457.926 1719.76c8.67-32.26 13-85.83 6.91-117.21l-26.24 10.21c-.37 26.53-.66 62.32-.81 84.81-.07 12.64-.15 21-.15 21z" data-name="Path"/><path fill="#71767c" d="M3466.716 1709.39c4.63-37.07 8.88-122.67 8.88-122.67l-30.2-103.47c-3.38-17.34-12-27.19-25.87-29l-.44-.07c-17.27 8.45-18.52 38.44-16.32 50.64 5.73 31.45 16.61 70.62 22 89.51-.59 41 3.49 114.26 3.49 114.26z" data-name="Path"/><path fill="#71767c" d="M3399.206 1762.03h106.42v83.13h-106.42z" data-name="Rectangle"/><path fill="#a4abb3" d="M3383.076 1762.03h16.13v83.13h-16.13z" data-name="Rectangle"/><path fill="#8a9097" d="M3399.206 1762.03v34.93a6.49 6.49 0 0 0 4.87 6.29c12.52 3.24 30.28 5.25 50 5.25s37.47-2 50-5.25a6.49 6.49 0 0 0 4.87-6.29v-31.19a3.73 3.73 0 0 0-3.74-3.74z" data-name="Path"/><path fill="#c1c7cc" d="M3445.536 1804.3h17.05v12.59h-17.05z" data-name="Rectangle"/><path fill="#71767c" d="m3434.336 1752.38.71-7.28h-2.67c-6.02.005-10.899 4.88-10.91 10.9v6h7.35v-6a3.56 3.56 0 0 1 3.56-3.55h2v-.07z" data-name="Path"/><path fill="#56b0ff" d="M3465.936 1752.43h-31.6l.71-7.35h-2.67a10.88 10.88 0 0 0-8.55 4.14l13.77-30.63 20.22-2c-.23 1.65 6.3 18.43 7.83 29.72a24.2 24.2 0 0 1 .29 6.12" data-name="Path"/><path fill="#0096e8" d="M3432.376 1752.45a3.56 3.56 0 0 0-3.56 3.55v6h32.62c2.51-5.2 4.5-9.6 4.5-9.6z" data-name="Path"/></g></svg>