<svg xmlns="http://www.w3.org/2000/svg" viewBox="0 0 1200 1200"><circle cx="601.5" cy="598.9" r="325.2" fill="#e0e2e4" fill-rule="evenodd" clip-rule="evenodd"/><path fill="#c2c7cd" fill-rule="evenodd" d="M601.5 924.1c100.8 0 190.8-45.8 250.5-117.8-75.7 20.1-238.3 80-383.8-14.2s-154-256.7-141.9-366.6c-31.7 50.2-50 109.6-50 173.4 0 179.6 145.6 325.2 325.2 325.2" clip-rule="evenodd"/><circle cx="601.5" cy="668.1" r="76.3" fill="#c2c7cd" fill-rule="evenodd" clip-rule="evenodd" transform="rotate(-45.001 601.463 668.081)"/><circle cx="384.2" cy="613.3" r="21.5" fill="#c2c7cd" fill-rule="evenodd" clip-rule="evenodd" transform="rotate(-9.836 384.063 613.249)"/><circle cx="776" cy="714.8" r="21.5" fill="#c2c7cd" fill-rule="evenodd" clip-rule="evenodd" transform="rotate(-45.001 776.012 714.778)"/><circle cx="502.6" cy="455.5" r="30" fill="#c2c7cd" fill-rule="evenodd" clip-rule="evenodd"/><circle cx="744.3" cy="560.7" r="23" fill="#c2c7cd" fill-rule="evenodd" clip-rule="evenodd"/><path fill="#979ea4" fill-rule="evenodd" d="M601.5 744.4c23.6 0 44.8-10.8 58.8-27.6-17.8 4.7-55.9 18.8-90.1-3.3-34.1-22.1-36.2-60.3-33.3-86-7.4 11.8-11.7 25.7-11.7 40.7 0 42 34.1 76.2 76.3 76.2M384.2 634.8c6.7 0 12.6-3 16.6-7.8-5 1.3-15.8 5.3-25.4-.9s-10.2-17-9.4-24.3c-2.1 3.3-3.3 7.3-3.3 11.5 0 11.9 9.6 21.5 21.5 21.5M776 736.3c6.7 0 12.6-3 16.6-7.8-5 1.3-15.8 5.3-25.4-.9s-10.2-17-9.4-24.3c-2.1 3.3-3.3 7.3-3.3 11.5 0 11.9 9.6 21.5 21.5 21.5M502.6 485.5c9.3 0 17.6-4.2 23.1-10.9-7 1.9-22 7.4-35.4-1.3s-14.2-23.7-13.1-33.8c-2.9 4.6-4.6 10.1-4.6 16 0 16.6 13.4 30 30 30m241.7 98.2c7.1 0 13.5-3.2 17.7-8.3-5.4 1.4-16.9 5.7-27.1-1-10.3-6.7-10.9-18.2-10-25.9-2.2 3.5-3.5 7.8-3.5 12.3-.1 12.6 10.2 22.9 22.9 22.9" clip-rule="evenodd"/></svg>