<svg xmlns="http://www.w3.org/2000/svg" data-name="Ebene 2" viewBox="0 0 1600 900"><path fill="#e0e2e5" d="M1600 354.9c-99.33-16.53-212.85-2.55-336.58 68.21-191.54 109.53-326.8-129.91-560.43 280.29H1600z" opacity=".38"/><path fill="#d0d4d8" d="M0 713.45h1501.77s-76.2-64.98-200.03-64.98c-105.38-1.11-216.34 22.8-216.34 22.8-48.36-38.84-350.67-261.71-764.74-124.32-116.13 38.53-212.05 4.36-320.66 20.7z" opacity=".38"/><path fill="#b0b4b7" d="M0 635.3h1600V900H0z"/><g fill="#fff"><path d="M213.52 789.38H44.43l-17.65 9.61h169.09zM553.56 789.38H384.47l-17.64 9.61h169.08zM893.6 789.38H724.52l-17.65 9.61h169.08zM1233.65 789.38h-169.09l-17.65 9.61H1216zM1573.69 789.38H1404.6l-17.65 9.61h169.09z"/></g><path fill="#2e3033" d="M575.46 766.74H546.4v-2.36h29.06z"/><g transform="rotate(-48.02 283.552 828.087)"><ellipse cx="283.61" cy="828.15" fill="#2e3033" rx="38.74" ry="41.71"/><ellipse cx="283.61" cy="828.15" fill="#383b3e" rx="32.38" ry="34.87"/><ellipse cx="283.61" cy="828.15" fill="#595e62" rx="25.73" ry="27.71"/></g><path fill="#1a1c1d" d="M629.88 833.03H206.05v-50.07h423.83z"/><path fill="#2e3033" d="M188.85 810.4h-65.67v-13.7h65.67zM182.08 859.8h-36.7l9.33-16.32h36.7z"/><path fill="#43464a" d="M238.89 780.27v-.32h-.52l-.35-.22-.07.22h-33.46l-.07-.22-.35.22h-.52v.32c-28.37 5.57-48.83 30.44-48.83 59.35v3.86h29.08l.04-6.81c0-22.96 15.48-41.62 34.72-42.1v-.02h5.32v.02c19.24.48 15.01-14.31 15.01-14.31Z"/><path fill="#c535bc" d="M540.54 783.01h-68.07V578.32h68.07z"/><path fill="#d0d4d8" d="M654.5 656.06H533.96v-23.3H654.5z"/><path fill="#d0d4d8" d="M647.86 800.93h42.02V655.38c.08-14.53-2.78-22.62-6.21-22.62h-35.81z"/><path fill="#d0d4d8" d="M647.95 731.45h43.38l-1.36-8.36h-42.02z"/><path fill="#b2b9c0" d="M647.95 731.43h43.38l-1.36 2.36h-42.02z"/><path fill="#c1c7cc" d="M647.4 771.14H526.89c-.29 0-.53-.24-.53-.53V633.29c0-.29.24-.53.53-.53h91.04c16.56 0 30 13.44 30 30v107.85c0 .29-.24.53-.53.53"/><path fill="#c1c7cc" d="m563.23 781.68 84.71 19.25v-54.71h-92.12z"/><path fill="#383b3e" d="M670.15 843.49h-22.2v-42.55h43.38v21.37c0 11.69-9.49 21.18-21.18 21.18"/><path fill="#e0e2e5" d="M672.67 799.45h-7.59c-8.84 0-16.02-7.18-16.02-16.02v-49.64h39.62v49.64c0 8.84-7.18 16.02-16.02 16.02Z"/><path fill="#c1c7cc" d="M672.67 795.42h-7.59c-8.84 0-16.02-7.18-16.02-16.02v-45.61h39.62v45.61c0 8.84-7.18 16.02-16.02 16.02Z"/><path fill="#383b3e" d="M647.67 723.09v-72.52h-101.3v48.51z"/><path fill="#9e2896" d="M473.62 783.01H101.99V578.32h371.63z"/><path fill="#43464a" d="M689.97 722.91h-42.02v-72.34h42.02z"/><path fill="#2e3033" d="m628.09 843.48-.06-7.75c0-26.14-20.92-47.38-46.93-47.93v-.03h-60.24v-16.63h79.26l.09-.25 47.96 30.04v42.55h-20.09Z"/><path fill="#43464a" d="M180.09 784.45v-.3h.52l.35-.2.07.2h33.46l.07-.2.35.2h.52v.3c28.37 5.22 48.83 28.49 48.83 55.55l-.57 5.67h-29.11l.56-8.43c0-21.49-15.48-38.95-34.72-39.41v-.02h-5.32v.02c-19.24.45-15.01-13.39-15.01-13.39Z"/><path fill="#2e3033" d="M545.46 797.02H108.11V782.7h437.35zM259.61 820.67v15.48h-9.13v9.53h295.23v-9.53h-10.27v-15.48h10.78v-9.53H249.96v9.53zm270.59 15.48H400.72v-15.48H530.2zm-265.34-15.48h130.61v15.48H264.86z"/><circle cx="582.61" cy="831.07" r="39.99" fill="#2e3033"/><circle cx="582.61" cy="831.07" r="33.42" fill="#383b3e"/><circle cx="582.61" cy="831.07" r="26.56" fill="#595e62"/><circle cx="213.92" cy="835.94" r="39.99" fill="#2e3033"/><circle cx="213.92" cy="835.94" r="33.42" fill="#383b3e"/><circle cx="213.92" cy="835.94" r="26.56" fill="#595e62"/><path fill="#2e3033" d="M687.6 752.18h-35.94v-2.92h35.94zM687.6 763.47h-35.94v-2.92h35.94zM687.6 774.75h-35.94v-2.92h35.94zM680.56 786.04h-21.87v-2.92h21.87z"/><circle cx="1287.64" cy="733.21" r="32.37" fill="#2e3033"/><circle cx="1287.64" cy="733.21" r="27.06" fill="#383b3e"/><circle cx="1287.64" cy="733.21" r="21.5" fill="#595e62"/><path fill="#1a1c1d" d="M981.58 692.39h343.08v40.53H981.58z"/><path fill="#2e3033" d="M1338.58 703.52h53.16v11.09h-53.16zM1344.06 754.6h29.71l-7.56-13.21h-29.7z"/><path fill="#43464a" d="M1298.08 690.22v-.26h.42l.28-.18.06.18h27.08l.06-.18.28.18h.42v.26c22.96 4.51 39.52 24.64 39.52 48.04v3.13h-23.54l-.04-5.51c0-18.59-12.53-33.69-28.1-34.08v-.02h-4.31v.02c-15.58.39-12.15-11.58-12.15-11.58Z"/><path fill="#d9dbdd" d="M1053.89 526.74h55.1v165.69h-55.1z"/><path fill="#d0d4d8" d="M961.65 570.81h97.58v18.86h-97.58z"/><path fill="#d0d4d8" d="M967.02 706.95H933V589.13c-.07-11.76 2.25-18.31 5.03-18.31h28.98v136.13Z"/><path fill="#d0d4d8" d="M966.95 650.7h-35.11l1.1-6.77h34.01z"/><path fill="#b2b9c0" d="M966.95 650.68h-35.11l1.1 1.92h34.01z"/><path fill="#c1c7cc" d="M996.96 570.81h67.88c.29 0 .53.24.53.53v110.95c0 .29-.24.53-.53.53h-97.35c-.29 0-.53-.24-.53-.53V600.8c0-16.56 13.44-30 30-30Z"/><path fill="#c1c7cc" d="m1035.53 691.36-68.57 15.59v-44.29h74.57z"/><path fill="#383b3e" d="M931.84 706.95h35.12v34.44h-13.94c-11.69 0-21.18-9.49-21.18-21.18v-13.27Z"/><path fill="#e0e2e5" d="M933.97 652.6h32.07v38.66c0 7.99-6.49 14.49-14.49 14.49h-3.1c-7.99 0-14.49-6.49-14.49-14.49V652.6Z"/><circle cx="1325.88" cy="736.79" r="32.37" fill="#2e3033"/><circle cx="1325.88" cy="736.79" r="27.06" fill="#383b3e"/><circle cx="1325.88" cy="736.79" r="21.5" fill="#595e62"/><path fill="#c1c7cc" d="M933.97 652.6h32.07V688c0 7.99-6.49 14.49-14.49 14.49h-3.1c-7.99 0-14.49-6.49-14.49-14.49v-35.4Z"/><path fill="#383b3e" d="M967.18 643.93v-58.7h82v39.27z"/><path fill="#c1c7cc" d="M1108.07 526.74h300.83v165.69h-300.83z"/><path fill="#43464a" d="M932.94 585.23h34.02v58.56h-34.02z"/><path fill="#2e3033" d="m983.02 741.39.05-6.27c0-21.16 16.93-38.36 37.99-38.8v-.02h48.76v-13.46h-64.16l-.08-.2-38.83 24.32v34.44h16.26Z"/><path fill="#43464a" d="M1345.67 693.61v-.25h-.42l-.28-.17-.06.17h-27.08l-.06-.17-.28.17h-.42v.25c-22.96 4.22-39.52 23.06-39.52 44.97l.46 4.59h16.57l-.45-6.82c0-17.4 14.97-32.75 35.1-31.9v-.02h4.31v.02c15.58.37 12.15-10.84 12.15-10.84Z"/><path fill="#2e3033" d="M1049.91 692.19h354.03v11.59h-354.03zM1289.11 722.92v-7.71H1049.3v7.71h8.72v12.53h-8.31v7.71h238.98v-7.71h-7.39v-12.53zm-226.84 0h104.81v12.53h-104.81zm214.79 12.53h-105.73v-12.53h105.73z"/><circle cx="1019.84" cy="731.34" r="32.37" fill="#2e3033"/><circle cx="1019.84" cy="731.34" r="27.06" fill="#383b3e"/><circle cx="1019.84" cy="731.34" r="21.5" fill="#595e62"/><path fill="#2e3033" d="M965.89 655.77h-32.18v-2.61h32.18zM965.89 665.88h-32.18v-2.61h32.18zM965.89 675.98h-32.18v-2.61h32.18zM965.89 686.09h-32.18v-2.61h32.18zM959.58 696.19h-19.57v-2.61h19.57z"/></svg>