<svg xmlns="http://www.w3.org/2000/svg" viewBox="0 0 1920 1080"><defs><mask id="a" width="35.625" height="65.139" x="127.559" y="376.431" maskUnits="userSpaceOnUse"><path fill="#fff" fill-rule="evenodd" d="M163.184 376.431h-35.625v64.278h35.625z"/></mask></defs><path fill="#b2b9c0" d="M.085 950h1920v130H.085z"/><path fill="#d0d4d8" fill-rule="evenodd" d="M1605.621 281.874a102.73 102.73 0 0 0-74.778-45.929v-10.137h-7.036V-.234h-8.505v226.042h-7.028v10.129a102.77 102.77 0 0 0-74.793 45.937h65.174a21.519 21.519 0 0 0 41.754 0z"/><g data-name="Bosch/Office/People/female-working-on-computer-behind-blue"><path fill="#0096e8" d="M1767.14 624.286c-34.392-.174-79.268-.238-79.268-.238s-2.161 14.577-.54 14.87c42.056 8.9 116.343 29.301 118.367-14.65 0 .082-19.384.137-38.558.018Z" data-name="Path"/><path fill="#00629a" d="M1565.513 647.864c2.747 3.049 21.06 2.683 27.973 2.271 8.616-.504 19.229-19.348 19.229-19.348h-28.459z" data-name="Path"/><path fill="#8a9097" fill-rule="evenodd" d="m1823.123 950.057-9.056-175.375h-78.645l-9.056 175.375h-11.327l14.825-286.993h11.317l-5.173 100.3h77.473l-5.182-100.3h11.326l14.816 286.993z" data-name="Path"/><path fill="#c1c7cc" d="M1567.976 651.746h319.792v11.317h-319.792z"/><path fill="#001d33" d="m1757.48 660.051-55.745 4.816s-91.19 6.043-128.063 30.803l1.95 9.285c19.513-6.858 62.988-19.329 98.048-25.116 37.697-6.126 83.81-19.787 83.81-19.787Zm-165.23 78.417a122.8 122.8 0 0 1-.403 44.345l25.849 124.529 14.861-4.313c1.612-52.897 12.059-123.128-4.029-168.48-16.821-.439-29.081.394-36.278 3.919"/><path fill="#007bc0" d="m1454.233 910.354.073.201a24.33 24.33 0 0 0 13.25 16.015l50.205 23.487 6.858-28.532-13.185-6.199z" data-name="Path"/><path fill="#d0d4d8" fill-rule="evenodd" d="M1807.219 735.068h-77.052l-77.245-.266a19.413 19.413 0 0 0 19.476 19.412h3.434l-10.869 195.785h12.316l10.832-195.785h46.772v.476l37.322-.11 10.832 195.886h12.453l-10.951-196.252h3.571c10.569-.025 19.12-8.605 19.11-19.174v.027Z" data-name="Path"/><path fill="#007bc0" d="m1632.429 902.745-14.733 4.578-37.542 39.977.201.064a24.06 24.06 0 0 0 20.721-.54l44.803-23.358z" data-name="Path"/><path fill="#001d33" d="m1573.68 695.67 1.95 9.285c19.513-6.858 19.091-1.145-1.95-9.285m18.57 42.798a122.8 122.8 0 0 1-.403 44.345l25.849 124.529 14.861-4.313c1.612-52.897 12.059-123.128-4.029-168.48-15.813-2.664-29.829-.705-36.278 3.919" data-name="Shape"/><path fill="#003253" d="M1757.48 660.051c-14.934 4.038-12.325 6.904-50.013 13.021-78.609 6.767-142.842 35.82-142.842 35.82l-53.154 206.59 13.195 6.19c27.186-44.418 58.877-91.52 67.429-138.96 2.619-14.806 3.095-29.612.403-44.345 7.197-3.498 19.449-4.175 36.269-3.772 21.976.476 51.68 2.692 88.489 2.692 59.417 0 72.84-30.565 60.864-74.571l-20.639-2.665Z" data-name="Path"/><path fill="#43464a" d="M1495.566 645.904h56.697v7.664h-56.697z" data-name="Rectangle"/><path fill="#43464a" d="m1518.988 561.417-8.204 62.438-1.318 10.036-2.583 19.677h-33.577l3.251-19.677 1.666-10.036 10.32-62.438z" data-name="Path"/><path fill="#8a9097" d="m1518.988 561.417 33.275 62.438h-41.479z" data-name="Path"/><rect width="186.482" height="121.159" x="1415.052" y="502.696" fill="#8a9097" data-name="Rectangle" rx="10.28" ry="10.28"/><rect width="186.482" height="121.159" x="1421.554" y="502.696" fill="#d0d4d8" data-name="Rectangle" rx="10.28" ry="10.28"/><path fill="#383b3e" d="m1510.784 623.855-1.318 10.036h-32.909l1.666-10.036z" data-name="Path"/><path fill="#656a6f" d="M1530.8 640.538h116.947v11.208H1530.8z" data-name="Rectangle"/><path fill="#8a9097" d="M1379.424 651.746v11.317h46.964l-14.815 286.994h11.317l9.056-175.375h80.175l9.056 175.375h11.327l-14.815-286.994h50.297v-11.317zm53.108 111.582 5.183-100.264h68.674l5.146 100.264z" data-name="Shape"/><path fill="#003253" d="M1701.735 652.817c3.791 12.819 9.944 49.198 36.022 57.247s40.353-47.101 40.353-47.101z" data-name="Path"/><path fill="#56b0ff" d="M1715.314 510.497h37.752l-4.441-24.833-3.855-21.6q.187-.218.33-.467c3.37-4.441 10.301-14.806 5.924-19.586-4.038-4.377-8.543 1.95-10.695 5.787-.137 0-.201-.064-.339-.064-30.281 0-39.163-6.932-41.928-12.114a111.5 111.5 0 0 0 3.324 23.541c.201.916.467 1.685.668 2.491 3.306 11.775 5.924 17.397 5.924 17.397a42.8 42.8 0 0 0 10.503 1.886c-.266 2.417-.577 5.064-.852 7.609l-2.317 19.952Z" data-name="Path"/><path fill="#00629a" d="M1707.98 481.086a42.8 42.8 0 0 0 10.503 1.886l.33-3.159z" data-name="Path"/><path fill="#004975" d="m1805.698 624.331-13.79-92.206c-3.553-14.211-10.53-20.209-21.976-21.664-9.724 9.385-12.599 31.086-12.059 41.278 1.328 26.453 9.294 72.593 9.294 72.593z" data-name="Path"/><path fill="#003253" d="M1690.939 517.538c-3.663 4.13-6.593 5.961-8.076 15.859l-1.273 18.46c2.747-4.239 5.787-6.959 10.026-12.004l1.007-1.209c2.958-3.571 5.494-6.867 7.811-9.825a137 137 0 0 0 11.977-18.569l-21.472 7.289Z" data-name="Path"/><path fill="#003253" d="M1773.678 510.607c-4.313-.806-14.541-5.183-17.562-8.241-3.91-4.111-3.974-5.32-3.974-5.32l-36.205 1.886s.137 3.296-3.837 11.235a119.4 119.4 0 0 1-11.977 18.579c-2.289 3.022-4.844 6.318-7.801 9.825l-1.007 1.209a158 158 0 0 0-10.64 13.515c-5.494 8.479-7.398 16.756-3.223 30.958.531 1.95 1.273 4.038 2.079 6.254 6.126 16.692 12.453 34.658 16.83 46.973a271 271 0 0 0 2.417 6.858c1.831 5.256 5.851 19.284 5.851 19.284s22.589 6.584 53.859 4.954c15.896-.833 19.632-5.86 19.632-5.86l.137-1.621 9.211-118.367c1.08-16.216 2.161-28.999-13.79-32.094z" data-name="Path"/><circle cx="1761.811" cy="504.829" r="27.671" fill="#d1e4ff"/><circle cx="1751.601" cy="476.581" r="22.644" fill="#d1e4ff" data-name="Oval"/><path fill="#d1e4ff" d="M1749.285 466.326c8.296-10.512 7.435-31.801 5.21-40.078-6.117-23.413-34.548-20.456-47.394-16.152-6.465 2.152-19.76 8.424-17.828 23.587.824 6.455 11.739 18.222 50.691 16.051z" data-name="Path"/><path fill="#d1e4ff" d="M1712.723 448.251c1.63 14.229 12.297 24.008 24.448 24.008s14.467-31.563 14.467-31.563l-38.915 7.554Z" data-name="Path"/><path fill="#56b0ff" d="M1710.214 464.174q.19-.216.33-.467c3.37-4.441 10.301-14.806 5.924-19.586-4.038-4.368-8.543 1.95-10.695 5.787-.137 0 4.441 14.266 4.441 14.266" data-name="Path"/><path fill="#001d33" d="m1720.963 551.857-15.2-19.357-11.757 4.029a246 246 0 0 1-1.685 2.033l-1.007 1.209a159 159 0 0 0-10.64 13.524c-5.494 8.479-7.398 16.756-3.223 30.958.531 1.95 1.273 4.038 2.079 6.254 6.126 16.692 12.453 34.658 16.83 46.973a271 271 0 0 0 2.417 6.858c1.831 5.256 5.851 19.284 5.851 19.284s11.446 3.333 29.301 4.67z" data-name="Path"/><path fill="#004975" d="M1718.271 624.478s3.745-57.183 2.399-82.876c-.421-8.085-5.869-25.364-23.194-25.227-16.848.138-15.969 17.343-15.969 25.227 0 24.723 2.289 110.254 2.289 110.254l34.474-27.378Z" data-name="Path"/><path fill="#56b0ff" d="M1682.909 624.762c-15.566 1.227-46.305 6.739-63.226 10.145l-6.959-4.12h-28.468s10.072 10.777 15.566 15.456c6.593 5.64 21.976 5.64 27.781 5.64h63.18c15.157.025 27.47-12.23 27.515-27.387v-.412c-5.64-.11-30.299.284-35.39.678Z" data-name="Path"/><path fill="#d0d4d8" d="M1444.317 521.641h38.668v38.668h-38.668z" data-name="Rectangle"/><rect width="172.835" height="104.118" x="1427.282" y="510.497" fill="#fff" data-name="Rectangle" rx="5.472" ry="5.472"/><path fill="#d0d4d8" d="M1433.358 519.273h121.782v73.363h-121.782zM1567.976 519.273h24.321v14.652h-24.321zM1567.976 537.206h24.321v14.652h-24.321zM1567.976 555.23h24.321v14.652h-24.321zM1567.976 573.423h24.321v14.652h-24.321zM1567.976 591.385h24.321v14.652h-24.321zM1567.976 609.414h24.321v5.202h-24.321z" data-name="Rectangle"/></g><path fill="#a4abb3" d="M1433.358 597.291h43.199v3.394h-43.199zM1433.358 603.237h70.789v3.394h-70.789z"/><path fill="#fff" fill-rule="evenodd" d="M1143.562 611.058c0 28.532-23.051 51.582-51.421 51.582H432.53c-28.37 0-51.421-23.051-51.421-51.582V332.19c0-28.532 23.051-51.582 51.421-51.582h659.611c28.37 0 51.421 23.051 51.421 51.582z"/><path fill="#a4abb3" fill-rule="evenodd" d="M1144.691 611.058c0 14.508-5.803 27.726-15.314 37.236-9.511 9.511-22.567 15.475-37.075 15.475H432.691c-14.508 0-27.564-5.964-37.075-15.475s-15.314-22.729-15.314-37.236V332.19c0-14.508 5.803-27.726 15.314-37.236 9.511-9.511 22.567-15.475 37.075-15.475h659.45c14.508 0 27.564 5.964 37.075 15.475s15.314 22.729 15.314 37.236v278.868z"/><path fill="none" d="M1125.508 612.67c0 8.866-3.546 16.764-9.349 22.567s-13.702 9.349-22.567 9.349H430.918c-8.866 0-16.764-3.546-22.567-9.349s-9.349-13.702-9.349-22.567V330.578c0-8.866 3.546-16.764 9.349-22.567s13.702-9.349 22.567-9.349h662.835c8.866 0 16.764 3.546 22.567 9.349s9.349 13.702 9.349 22.567V612.67z"/><rect width="734.363" height="358.262" x="395.733" y="292.484" fill="#fff" rx="41.712" ry="41.712"/><path fill="#e0e2e5" d="M548.442 192.116h483.122v138.53H548.442z"/><g fill="#c1c7cc"><path d="M582.901 218.396h207.102v34.632H582.901z"/><path d="M927.84 227.747h69.092V295.8H927.84zM582.901 276.167h276.02v17.316h-276.02z" data-name="Rectangle-Copy-2"/></g><path fill="#d0d4d8" d="M445.161 339.819h457.344v223.456H445.161zM945.76 339.819h166.339v86.098H945.76zM945.76 435.543h166.339v86.098H945.76zM945.76 531.266h166.339v86.098H945.76z"/><path fill="#fff" d="M548.442 330.432h483.122v18.774H548.442z"/><path fill="#007bc0" d="M548.269 323.72h370.274v6.926H548.269z" data-name="Rectangle-Copy-2"/><path fill="#c1c7cc" d="M918.542 323.72h113.022v6.926H918.542z" data-name="Rectangle-Copy-2"/><ellipse cx="918.542" cy="327.183" fill="#007bc0" rx="7.557" ry="7.417"/><path fill="#fff" d="m1103.976 641.705 2.192-.818 1.807-.906 1.824-1.018 2.3-1.539v-10.436H945.76v16.469h150.011l2.59-.391a28 28 0 0 0 3.004-.624l1.779-.473q.422-.112.833-.265Z"/><path fill="#d1e4ff" d="M776.708 579.592h509.014v50.777H776.708z" data-name="Rectangle"/><rect width="446.869" height="10.55" x="807.78" y="599.705" fill="#c1c7cc" data-name="Rectangle-Copy-2" rx="3.708" ry="3.708"/><path fill="#a4abb3" d="M605.376 584.979h110.099v16.851H605.376zM605.174 618.764h78.762v9.153h-78.762z"/><g fill="#007bc0"><rect width="202.31" height="9.852" x="808.682" y="600.054" data-name="Rectangle-Copy-2" rx="3.463" ry="3.463"/><ellipse cx="1010.992" cy="604.98" rx="10.749" ry="10.55"/></g><g data-name="Bosch/Office/People/female-with-coffee-mug-blue"><path fill="#001d33" d="M1260.298 423.563c-.247 2.259-.494 4.662-.75 7.099 3.92-1.694 7.003-3.92 10.006-7.841 0 0-5.003 0-9.256.741Zm-10.927 124.491c-.128-.315-.196-.631-.315-.937l-99.655-38.77-31.312-19.73-2.003 6.511a15.08 15.08 0 0 0 1.815 12.784c2.881 4.449 6.699 9.835 8.642 10.96 14.096 8.335 31.534 10.091 31.534 10.091l61.44 39.52 1.006.69a18.65 18.65 0 0 0 9.145 3.256c12.4.937 23.923-10.773 19.662-24.366l.043-.009Z" data-name="Path"/><path fill="#001d33" d="m1141.262 488.549-5.634 1.815 8.761 19.423 21.239 5.48z" data-name="Path"/><path fill="#71767c" d="m1239.357 379.62.06.315a.6.6 0 0 1-.06-.315" data-name="Shape"/><path fill="#d1e4ff" d="M1300.414 327.539c-10.38-5.311-23.101-1.221-28.44 9.145-2.318 4.568-2.753 12.903-2.557 20.795-8.642-1.509-21.358 3.068-29.378 15.221-1.875 3.631-4.832 12.094 1.926 18.545a120 120 0 0 1-.98-13.346v-.068l3.187-3.758a36.55 36.55 0 0 0 17.165 16.193c6.392 2.949 14.966 3.699 18.605 3.886 1.125-2.318 6.426-12.614 11.131-7.483 3 3.324.256 9.264-2.557 14.003.353.47.56 1.033.597 1.619a2.9 2.9 0 0 1-.98 2.054l.622 2.506c3.886-4.824 9.503-14.957 5.489-30.238a25.4 25.4 0 0 0-3.264-7.611c8.079-3.699 16.099-8.395 18.477-13.031a20.956 20.956 0 0 0-9.042-28.431Zm-60.818 52.047a.5.5 0 0 0 .06.315z" data-name="Shape"/><path fill="#003253" d="m1282.201 412.995.435-1.381 1.125-4.585.69-2.821a2.703 2.703 0 0 1 .375-4.262 2.64 2.64 0 0 1 1.628-.435c.823.048 1.583.46 2.071 1.125 2.881-4.696 5.574-10.773 2.557-14.088-4.696-5.114-10.082 5.199-11.207 7.517-3.639-.196-12.213-.946-18.605-3.886a36.56 36.56 0 0 1-17.165-16.193l-3.409 3.886v.06c.03 4.422.343 8.837.937 13.219a92 92 0 0 0 2.318 11.71c3.409 12.784 6.264 18.92 6.264 18.92a42.3 42.3 0 0 0 10.082 1.807c3.091.19 6.193-.063 9.213-.75a52 52 0 0 1-9.963 7.824c-1.125 9.52-2.19 18.665-2.19 18.665h34.943l-6.597-36.332h-3.503Z" data-name="Path"/><path fill="#00629a" d="m1284.391 404.234-.69 2.795-1.125 4.568-.375 1.398h8.079l-1.568-6.264-.631-2.506a2.62 2.62 0 0 1-1.875.759 2.5 2.5 0 0 1-1.815-.75" data-name="Path"/><path fill="#56b0ff" d="M1286.206 399.436a2.6 2.6 0 0 0-2.224 1.108 2.87 2.87 0 0 0 .324 3.733 2.82 2.82 0 1 0 1.901-4.842Z" data-name="Path"/><path fill="#001d33" d="m1223.224 767.538 16.346 157.243c1.44.375 10.585 2.506 11.216-.06 10.142-38.088 24.17-83.616 5.574-152.326-1.705-6.204-2.131-13.466-1.705-21.545-11.838-.75-22.611-1.943-32.13-3.409z" data-name="Path"/><path fill="#71767c" d="M1239.57 924.781v-.06l-.187-.068z" data-name="Path"/><path fill="#003253" d="m1291.618 772.651 38.838 152.129s11.275 1.313 11.208-.128c-3.946-126.988 7.014-128.581-17.787-174.936-12.784 1.134-25.116 1.756-36.886 1.884 2.881 12.775 4.628 21.051 4.628 21.051Z" data-name="Path"/><path fill="#9dc9ff" d="M1297.635 578.94h-69.647l-6.392 12.835c-.435 2.753-5.386 29.625-5.327 32.446 0 0-11.335 119.88-11.02 120.008 5.114 1.185 10.96 2.25 17.352 3.256 9.52 1.44 20.352 2.633 32.13 3.409 10.082.622 20.915.937 32.318.81 11.77-.119 24.111-.69 36.886-1.875 10.585-.937 21.486-2.318 32.574-4.074.562-.23-18.792-137.59-58.875-166.814Z" data-name="Path"/><path fill="#00629a" d="M1240.014 451.586c-9.025 2.062-16.287 9.273-17.667 18.417l-1.56 16.534c13.841-21.17 19.227-34.943 19.227-34.943zm42.834 127.337h13.534l29.062-97.397.187-1.381.06-.435c0-.315.068-.631.068-.946a1.2 1.2 0 0 1 .06-.494c0-.256.06-.503.06-.852v-4.381q.015-.35-.06-.69l-.06-.562c0-.187-.068-.443-.068-.631s-.06-.375-.06-.562-.068-.435-.068-.622a1.7 1.7 0 0 1-.06-.503 2.5 2.5 0 0 0-.128-.631 1.6 1.6 0 0 1-.06-.494c-.06-.196-.06-.443-.128-.631s-.06-.315-.119-.503a2 2 0 0 1-.128-.622c-.06-.187-.06-.315-.128-.503s-.119-.443-.187-.631a3 3 0 0 0-.128-.435c-.06-.128-.119-.435-.187-.622l-.119-.443a7 7 0 0 0-.256-.622.95.95 0 0 1-.119-.384 7 7 0 0 1-.375-.852l-.068-.187c-.187-.315-.315-.631-.503-.937l-.119-.256c-.128-.247-.256-.435-.375-.69a1.2 1.2 0 0 0-.256-.307 6 6 0 0 1-.375-.562l-.247-.384c-.128-.187-.256-.307-.375-.494a1.8 1.8 0 0 0-.315-.375c-.128-.128-.256-.315-.375-.443s-.187-.247-.315-.375a2.6 2.6 0 0 0-.435-.435 1.6 1.6 0 0 0-.384-.315l-.435-.375-.375-.315c-.128-.128-.315-.247-.443-.375l-.375-.315-.494-.375-.443-.315-.503-.307-.435-.256c-.187-.128-.375-.187-.562-.315l-.443-.247-.622-.315-.503-.247a2.8 2.8 0 0 0-.622-.256l-.503-.187-.69-.247-.187-.06-28.815 126.988v.111Z" data-name="Shape"/><path fill="#007bc0" d="m1283.232 578.923 28.619-126.902v-.119l-18.315-6.077-3.409-8.267h-33.451l-3.008 8.267-11.523 4.756-2.199.946s-5.386 13.773-19.227 35.011l-.435.622c-6.204 8.148-8.829 16.602-5.011 33.238 1.253 5.506 2.557 11.335 3.886 17.096 3.878 17.412 8.889 41.463 8.889 41.463l55.184-.06z" data-name="Path"/><path fill="#007bc0" fill-rule="evenodd" d="m1251.067 924.585 5.446 26.369h-50.923a22.27 22.27 0 0 1-17.224-8.139l-.119-.188 49.474-18.042zm79.355.128-2.003 26.684h31.38a6.154 6.154 0 0 0 6.137-6.145 5.85 5.85 0 0 0-1.125-3.503l-22.696-17.165z" data-name="Path"/><path fill="#001d33" d="m1216.338 562.091-22.108-11.838-4.125.485 2.864 6.017h4.261l1.96 2.02z" data-name="Path"/><path fill="#003253" d="m1341.612 570.92-13.312-95.309c-1.705-14.054-8.207-22.551-19.304-24.528-9.793 9.733-12.204 20.846-13.372 37.338-1.168 16.491 9.204 47.531 14.378 64.099 18.631 2.003 28.525 15.051 32.548 29.275z" data-name="Path"/><path fill="#56b0ff" d="M1329.553 474.665c-4.952-17.599-9.46-21.605-20.557-23.582-9.793 9.733-13.142 20.02-14.301 36.511-.776 11.011-.989 29.872 4.261 44.914l41.062-3.23s-6.75-41.395-10.466-54.613Z" data-name="Path"/><path fill="#8a9097" d="M1169.957 580.644h20.003v-6.273h-20.003a5.566 5.566 0 0 1-5.455-4.338l-1.364-5.659a5.59 5.59 0 0 1 5.437-6.818h18.238v-6.324h-18.238a11.866 11.866 0 0 0-11.54 14.488l1.304 5.659a11.795 11.795 0 0 0 11.616 9.264Z" data-name="Path"/><path fill="#8a9097" d="m1173.315 587.846 28.176-.034 3.264-40.517-34.815.051z" data-name="Path"/><path fill="#001d33" d="M1183.525 580.892c3.605 3.094 16.329 1.381 16.329 1.381l-.068-25.747h-26.625s6.75 21.256 10.364 24.366" data-name="Path"/><path fill="#003253" d="M1340.811 571.389c-4.96-13.952-20.071-19.21-38.727-20.045-26.676-1.159-60.69 6.648-82.772 11.037-1.568.298-19.602-5.855-19.602-5.855l.102 25.738 19.389-3.537s123.297 3.818 123.306 3.068a30.7 30.7 0 0 0-1.705-10.406z" data-name="Path"/></g><path fill="#fff" d="m758.371 457.189-89.021-51.396v102.792zM982.523 261.774l-34.097-19.687v39.373zM1521.319 556.525l-28.245-16.307v32.615z"/><path fill="#fff" d="m1502.689 556.525-28.245-16.307v32.615z"/><rect width="50.776" height="36.279" x="810.786" y="508.585" fill="#a4abb3" rx="8.703" ry="8.703"/><text fill="#fff" font-family="BoschSans-Black,&quot;Bosch Sans&quot;" font-size="21" font-weight="800" transform="translate(821.027 533.688)"><tspan x="0" y="0" letter-spacing="-.012em">C</tspan><tspan x="15.267" y="0">C</tspan></text><path fill="#56b0ff" fill-rule="evenodd" d="M156.056 402.211c-5.768 5.079-8.214 1.693-11.85-7.712a86.6 86.6 0 0 1-4.326-16.866c2.884-3.135 7.336-7.872 4.326-15.459 0 0 7.963 6.681 15.926 4.549 7.963-2.194 9.217-3.762 12.289-2.884 3.135.878 5.355 1.618 6.546 3.499l1.046 2.793s-.607 1.804-1.046 6.506c-.439 5.768-1.781 12.846-3.223 18.489-.188.627-.313 1.191-.502 1.818v-.063c-1.191 5.267-3.26 9.405-6.395 5.329z"/><g mask="url(#a)"><path fill="#56b0ff" fill-rule="evenodd" d="m134.794 402.512.674-3.556c-3.802-5.886-9.504-16.065-5.764-20.112 3.372-3.74 6.745.061 8.646 3.25a32 32 0 0 1 1.656 3.25l-.92 10.179c-.245 3.066 1.539 14.034 1.6 15.322.429 7.235 4.962 8.517 11.461 8.517l8.706 1.176c1.165 9.933 2.33 21.034 2.33 21.034h-35.625z"/></g><path fill="#003253" fill-rule="evenodd" d="M136.634 347.323c7.787-6.377 16.31-2.146 23.362-2.821 7.051-.674 15.084-2.821 20.786 0 5.028 2.514 1.104 9.504.674 14.532 2.207 3.863 5.396 12.815-2.637 19.192.368-4.599.368-7.665.368-7.665l-.184-1.104c-1.104-1.778-3.188-4.231-6.254-5.089s-4.231.736-12.018 2.821c-7.787 2.146-15.574-3.556-15.574-3.556 3.005 7.419-1.41 11.16-4.231 14.225a80.3 80.3 0 0 0 4.17 16.494c3.556 9.198 5.948 12.509 11.589 7.113h12.509c3.066 4.353 5.089.368 6.132-4.844v.061c.92 2.514 1.41 5.089 1.533 7.726 0 3.556-4.231 8.523-3.986 10.669v6.07h-20.104c-6.377.245-13.743-3.924-14.172-11.037-.061-1.288-.061-3.25.061-5.58.123-2.821.245-6.005.429-9.01l.793-10.124c-.491-1.104-.854-2.143-1.467-3.185-1.901-3.066-5.212-6.806-8.523-3.188-3.618 3.986 1.813 13.999 5.614 19.763l-.635 3.445s-11.847-19.039-12.705-32.774c-.368-6.622 6.684-10.792 6.684-10.792s0-4.967 7.787-11.344Z"/><path fill="#0096e8" fill-rule="evenodd" d="m194.491 553.423 14.38-27.617c26.747 9.382 64.535 22.84 78.047 27.657l.473.162 31.325 1.082.066-.117 23.503 12.531v.003c-2.098 4.511-9.544 10.086-15.155 9.226l-21.088.965-13.608-4.749a542 542 0 0 1-7.803-2.783c-14.138-1.33-43.491-5.257-60.399-8.765z"/><path fill="#d0d4d8" fill-rule="evenodd" d="M163.267 435.954h-36.378v-6.835h36.378z"/><path fill="#595f63" fill-rule="evenodd" d="m233.55 942.196-.135.151c-4.334 4.85-10.798 7.66-17.621 7.66h-67.192l5.538-24.826h32.183zM76.721 925.063l17.246.088 5.749.03 3.518 24.826H58.27c-3.437 0-6.224-2.563-6.224-5.727 0-1.166.385-2.303 1.106-3.261z"/><path fill="#a0a2a4" fill-rule="evenodd" d="m208.209 539.008.235-55.556c.168-1.458.18-2.924.035-4.384l12.82 51.137-.134.101-12.91 9.695-.046-.992Z"/><path fill="#002742" fill-rule="evenodd" d="M171.482 606.167h19.79l5.273 33.119.015-.033-3.975 130.356-6.262 155.572h-34.36c-8.077-89.405-11.754-76.684-1.459-142.548 4.248-27.174.185-53.085-5.696-77.548 6.334-24.019 13.318-47.771 19.125-60.805 5.752-12.911 7.189-30.187 7.549-38.114"/><path fill="#003253" fill-rule="evenodd" d="M76.721 925.063c0-124.325-18.238-119.91 14.321-173.193 3.985-6.522 4.49-16.15 4.165-27.595-.166-5.828-.336-11.273-.497-16.395a26 26 0 0 0 3.396.617 23.6 23.6 0 0 0 5.113.059l-2.424-33.906-5.087-18.871s-.048-6.75-.132-16.947h34.676l3.295-32.666h37.937c-.359 7.926-1.797 25.203-7.549 38.114-5.807 13.033-12.79 36.785-19.125 60.804-9.767 37.033-17.993 74.701-17.993 74.701L99.718 925.18l-5.749-.03-17.246-.088Z"/><path fill="#d1e4ff" fill-rule="evenodd" d="m182.807 553.001 8.465 53.166h-57.726l5.464-54.174c-3.282-64.45-19.643-112.054-19.674-112.142l8.246-4.43h34.803l19.983 11.089-.656-.352 1.094 106.843Z"/><path fill="#797979" fill-rule="evenodd" d="M120.894 617.8c-1.745 0-3.16-1.304-3.159-2.912 0-1.608 1.416-2.911 3.162-2.911s3.163 1.304 3.162 2.912-1.415 2.911-3.162 2.911h-.004Zm0 10.964c-1.746 0-3.161-1.304-3.159-2.912 0-1.608 1.416-2.911 3.162-2.911s3.163 1.304 3.162 2.912-1.415 2.911-3.162 2.911zm18.116-76.772c-3.282-64.45-19.644-112.054-19.674-112.142v-.002l-18.345 9.854.09-.009c14.29.679 18.715 23.338 15.183 39.452a3106 3106 0 0 1-4.882 21.846l-4.472 127.842h23.339l3.295-32.667 5.464-54.174Z"/><path fill="#a0a2a4" fill-rule="evenodd" d="m94.854 570.544 2.548.6s7.223-30.354 13.982-60.153l-4.473 127.842H95.575c-.15-18.06-.413-46.934-.721-68.289"/><path fill="#797979" fill-rule="evenodd" d="m191.272 606.167-8.465-53.166-1.095-106.844.657.353 6.945 3.727c12.965 7.209 20.376 20.556 19.129 34.452l-.235 71.224.046 1.272.939 25.513 2.081 56.546h-14.71l-.004.009-.015.033z"/><path fill="#fff" fill-rule="evenodd" d="M120.897 611.978c1.747 0 3.162 1.303 3.162 2.911s-1.415 2.912-3.162 2.912-3.162-1.303-3.162-2.911c-.001-1.608 1.413-2.911 3.159-2.912h.004Zm0 10.963c1.747 0 3.162 1.303 3.162 2.911s-1.415 2.912-3.162 2.912-3.162-1.303-3.162-2.911c-.001-1.608 1.413-2.911 3.159-2.912h.004Z"/><path fill="#56b0ff" fill-rule="evenodd" d="M94.854 570.544c.308 21.355.571 50.229.721 68.289.084 10.197.132 16.947.132 16.947l5.087 18.871-27.274 4.045s4.908-20.383 4.465-21.906c-7.576-25.957-23.089-69.112-17.717-94.391z"/><path fill="#6c6c6c" fill-rule="evenodd" d="M101.081 449.693c14.29.679 18.715 23.338 15.183 39.452a3106 3106 0 0 1-4.882 21.846c-6.759 29.799-13.981 60.153-13.981 60.153l-2.548-.6-34.585-8.146-9.95-2.343 28.642-88.368c5.419-14.656 11.21-21.025 22.03-21.986z"/><path fill="#0096e8" fill-rule="evenodd" d="m100.795 674.651 2.425 33.906a23.7 23.7 0 0 1-5.114-.059 26 26 0 0 1-3.395-.617c-5.047-1.274-7.656-3.769-9.935-6.039-3.867-3.85-11.254-23.146-11.254-23.146z"/><path fill="#e0e2e5" d="M302.39 619.281h332.471v87.663H302.39z" data-name="Rectangle"/><path fill="#a4abb3" d="M318.639 648.439h141.657v17.671H318.639zM318.812 676.171h189.266v10.607H318.812z" data-name="Rectangle-Copy-2"/><path fill="#007bc0" d="M302.16 619.113h115.015v6.668H302.16z" data-name="Rectangle-Copy-2"/><path fill="#c1c7cc" d="M424.294 619.113h210.74v6.668h-210.74z" data-name="Rectangle-Copy-2"/><path fill="#d1e4ff" d="M302.362 442.88h332.471v176.377H302.362z" data-name="Rectangle"/><ellipse cx="419.2" cy="622.102" fill="#007bc0" rx="7.557" ry="7.141"/><path fill="#fff" d="M447.671 508.501h15.915v52.297h-15.915zM473.665 508.501h15.915v52.297h-15.915z"/><path fill="#0096e8" fill-rule="evenodd" d="m314.926 555.715-19.965 6.397 1.557-7.093 18.592-2.866z"/></svg>