<svg xmlns="http://www.w3.org/2000/svg" xmlns:xlink="http://www.w3.org/1999/xlink" viewBox="0 0 1920 1080"><defs><path id="a" d="M1068.552 118.473h738.156v442.735h-738.156z"/></defs><use xlink:href="#a" fill="#e8f1ff" overflow="visible"/><path fill="#e0e2e5" d="M1068.552 530.292h738.156v30.915h-738.156z"/><path fill="#fff" d="M1068.552 158.04h474.287v30.915h-474.287z"/><path fill="#007cff" d="M1170.638 512.143h212.606l-27.504-132.528h-212.605z"/><path fill="#c1c7cc" d="M1170.638 512.143h212.606l-27.504-132.528h-212.605z"/><path fill="#d0d4d8" d="M1218.912 479.183h89.21l-11.836-57.035h-89.211z"/><path fill="#979ea4" d="M1314.199 479.183h-6.076l-11.837-57.035h6.076zm65.459 32.96h5.838l-27.504-132.528h-5.838z"/><path fill="#007cff" d="M1260.56 530.542h-38.428l13.681-79.876h38.429z"/><path fill="#a4abb3" d="M1260.56 530.542h-38.428l13.681-79.876h38.429z"/><path fill="#979ea4" d="M1265.51 530.542h-4.95l13.682-79.876 2.511 14.24z"/><ellipse cx="874.294" cy="948.404" fill="#f7f8f9" rx="632.751" ry="23.565"/><path fill="#eff1f2" d="M271.222 153.473h104.373v693.918H271.222z"/><ellipse cx="271.222" cy="500.432" fill="#eff1f2" rx="182.953" ry="346.959"/><ellipse cx="375.594" cy="500.432" fill="#d1e4ff" rx="182.953" ry="346.959"/><path fill="#eff1f2" d="M393.022 153.473h104.373v693.918H393.022z"/><ellipse cx="393.022" cy="500.432" fill="#eff1f2" rx="182.953" ry="346.959"/><ellipse cx="497.394" cy="500.432" fill="#d1e4ff" rx="182.953" ry="346.959"/><path fill="#eff1f2" d="M516.499 153.473h104.373v693.918H516.499z"/><ellipse cx="516.499" cy="500.432" fill="#eff1f2" rx="182.953" ry="346.959"/><ellipse cx="620.871" cy="500.432" fill="#e0e2e5" rx="182.953" ry="346.959"/><ellipse cx="625.771" cy="500.432" fill="#b8d6ff" rx="133.84" ry="253.819"/><ellipse cx="625.771" cy="500.432" fill="#e8f1ff" rx="108.463" ry="205.694"/><path fill="none" stroke="#fff" stroke-linecap="round" stroke-linejoin="round" stroke-miterlimit="10" stroke-width="23" d="M602.889 666.878c27.754-36.583 45.923-97.49 45.923-166.446s-18.169-129.863-45.923-166.446"/><path fill="#e8f1ff" d="M1185.617 645.385h-636.8s7.468 15.458 20.651 30.915h616.15z"/><path fill="#d1e4ff" d="M1185.617 645.385h252.013V676.3h-252.013z"/><path fill="#7ebdff" d="M1082.574 676.3h252.013v29.826h-252.013z"/><path fill="#eff1f2" d="M823.253 706.126h242.278v242.278H823.253z"/><path fill="#e0e2e5" d="M1130.896 948.404h-65.365V706.126h65.365z"/><path fill="#eff1f2" d="M267.109 828.315h353.762v120.088H267.109z"/><path fill="#e0e2e5" d="M680.347 948.403H561.396V811.428h118.95z"/><path fill="#9dc9ff" d="M622.584 706.126c-19.037 0-39.286-13.13-53.116-29.826h55.01z"/><path fill="#9dc9ff" d="M622.584 676.3h459.99v29.826h-459.99z"/><path fill="#d1e4ff" d="M823.253 879.435h242.278v17.849H823.253z"/><path fill="#b8d6ff" d="M1130.896 897.284h-65.365v-17.849h65.365z"/><path fill="#d1e4ff" d="M267.109 879.435h296.284v17.849H267.109z"/><path fill="#b8d6ff" d="M680.347 897.284H563.393v-17.849h116.954z"/></svg>