<svg xmlns="http://www.w3.org/2000/svg" viewBox="0 0 1920 1080"><ellipse cx="825.453" cy="928.404" fill="#f7f8f9" rx="604.826" ry="23.565"/><ellipse cx="1509.042" cy="833.544" fill="#f7f8f9" rx="334.291" ry="13.025"/><path fill="#eff1f2" d="M1095.005 527.661h787.409v32.715h-787.409z"/><path fill="#e0e2e5" d="M1243.768 560.376h489.882v274.551h-489.882z"/><g fill="#e0e2e5"><path d="M1275.847 414.514h72.597V527.66h-72.597z"/><path d="M1275.847 414.514h72.597V527.66h-72.597z"/></g><path fill="#c1c7cc" d="M1195.492 517.273h233.306v10.387h-233.306z"/><path fill="#a4abb3" d="M1146.849 287.328h330.592v207.92h-330.592z"/><path fill="#d0d4d8" d="M1146.849 287.328h99.359v69.307h-99.359z"/><path fill="#c1c7cc" d="M1146.849 356.634h99.359v69.307h-99.359z"/><path fill="#b2b9c0" d="M1146.849 425.941h99.359v69.307h-99.359z"/><g fill="#eff1f2"><circle cx="1335.334" cy="348.979" r="30.121"/><circle cx="1305.213" cy="372.891" r="30.121"/><circle cx="1300.385" cy="403.472" r="30.121"/><circle cx="1413.51" cy="372.891" r="30.121"/><circle cx="1418.339" cy="403.472" r="30.121"/><circle cx="1380.86" cy="348.979" r="30.121"/><circle cx="1335.334" cy="418.417" r="30.121"/><circle cx="1380.86" cy="418.417" r="30.121"/><ellipse cx="1360.717" cy="384.299" rx="47.917" ry="22.444"/><path d="M1367.908 445.618c9.867 4.154 17.537 3.87 23.786 21.908h16.191v-38.348l-27.98-8.664"/></g><path fill="#a4abb3" d="M1380.86 318.858v-5.071c-19.405 0-35.192 15.787-35.192 35.192h5.071c0-16.636 13.486-30.121 30.121-30.121"/><path fill="#a4abb3" d="m1372.053 362.103 3.57-3.601c-13.78-13.662-36.106-13.564-49.768.216l3.601 3.57c11.712-11.814 30.783-11.897 42.597-.185m37.479 37.867 3.57-3.6c-13.78-13.662-36.107-13.564-49.768.216l3.6 3.57c11.713-11.814 30.784-11.897 42.598-.185zm-113.108.76-3.57 3.601c13.78 13.662 36.107 13.564 49.768-.216l-3.601-3.57c-11.712 11.814-30.783 11.897-42.597.185m10.49-41.77a30 30 0 0 1-1.7-9.981c0-16.636 13.485-30.121 30.12-30.121v-5.071c-19.405 0-35.192 15.787-35.192 35.192 0 4.086.708 8.008 1.994 11.66l4.778-1.678z"/><path fill="#a4abb3" d="M1298.434 433.523c-15.725-1.006-28.17-14.072-28.17-30.051 0-13.088 8.35-24.221 20.01-28.376l-1.699-4.77c-13.612 4.864-23.382 17.883-23.382 33.146 0 18.638 14.567 33.93 32.913 35.11zm73.63 18.972 1.266-4.906c-10.481-2.697-18.749-10.897-21.555-21.334l-4.891 1.318c3.285 12.178 12.951 21.764 25.18 24.922m46.275-84.215v5.071c16.635 0 30.12 13.486 30.12 30.12 0 16.636-13.485 30.122-30.12 30.122v5.07c19.404 0 35.191-15.786 35.191-35.191s-15.787-35.192-35.191-35.192"/><path fill="#a4abb3" d="m1397.861 424.055-3.65 3.494c6.423 6.834 15.534 11.115 25.631 11.115v-5.071c-8.673 0-16.485-3.671-21.98-9.538z"/><path fill="#eff1f2" d="M419.109 133.473h197.936v693.918H419.109z"/><circle cx="419.109" cy="480.432" r="346.959" fill="#eff1f2"/><circle cx="617.046" cy="480.432" r="346.959" fill="#e0e2e5"/><circle cx="617.046" cy="480.432" r="281.33" fill="#b8d6ff"/><path fill="#fff" d="M315.398 773.583a8 8 0 0 1-4.587-1.44c-46.12-32.056-84.47-75.132-110.901-124.572-27.3-51.064-41.73-108.86-41.73-167.14s14.43-116.075 41.73-167.14c26.431-49.439 64.78-92.515 110.901-124.57a8.05 8.05 0 0 1 9.189 13.22c-44.04 30.609-80.656 71.738-105.892 118.942-26.056 48.737-39.829 103.908-39.829 159.549s13.773 110.811 39.829 159.549C239.344 687.184 275.96 728.313 320 758.922a8.05 8.05 0 0 1-4.602 14.661"/><circle cx="617.046" cy="480.432" r="227.989" fill="#fff"/><path fill="#e8f1ff" d="M617.046 252.442c-31.294 0-61.112 6.31-88.26 17.719 82.085 34.496 139.73 115.65 139.73 210.27 0 94.622-57.645 175.776-139.73 210.272 27.148 11.408 56.966 17.718 88.26 17.718 125.914 0 227.989-102.074 227.989-227.99 0-125.914-102.075-227.989-227.99-227.989z"/><path fill="#fff" d="M657.237 672.97a8.05 8.05 0 0 1-4.601-14.661c28.13-19.552 51.519-45.822 67.638-75.973 16.641-31.127 25.437-66.365 25.437-101.904s-8.796-70.777-25.437-101.904c-16.12-30.15-39.508-56.422-67.638-75.973a8.05 8.05 0 0 1 9.189-13.22c30.212 20.998 55.332 49.216 72.647 81.602 17.886 33.454 27.34 71.317 27.34 109.495s-9.454 76.04-27.34 109.495c-17.315 32.386-42.435 60.604-72.647 81.602a8 8 0 0 1-4.588 1.44z"/><path fill="#9dc9ff" d="m526.581 656.3 90.465 52.442h310.49V656.3z"/><path fill="#eff1f2" d="M654.598 708.742h425.43v219.661h-425.43z"/><path fill="#eff1f2" d="M419.109 827.391h660.92v101.013h-660.92z"/><path fill="#e0e2e5" d="M1137.674 928.404h-57.646V708.743h57.646z"/><path fill="#eff1f2" d="M654.598 725.769c0 56.124-45.497 101.622-101.621 101.622h101.621z"/><path fill="#9dc9ff" d="M617.046 708.742c-65.158 0-113.088-24.846-145.095-52.442h64.147z"/><path fill="#7ebdff" d="M927.536 656.3h337.657v52.442H927.536z"/><path fill="#00629a" d="M897.392 571.189c12.396-7.794 53.65-6.909 53.65-6.909l241.243 45.64-3.492 19.05c-63.57-8.95-143.787 21.951-198.953-4.187 0 0-33.752-8.716-47.513-8.81a297.4 297.4 0 0 1-75.007 8.81s16.744-45.198 30.072-53.594"/><path fill="#8a9097" d="M546.388 573.94a617 617 0 0 1 4.002-.483c-2.37 3.995-5.314 7.992-8.464 11.406.441-3.524.776-7.18.737-10.443 1.169-.159 2.413-.315 3.725-.48"/><path fill="#a4abb3" d="M558.272 572.423a1904 1904 0 0 0 13.871-1.92l.728 40.393-14.015-2.305-23.87-3.861-12.074-1.99c-3.417 2.691-11.125 8.365-16.935 8.534a6.2 6.2 0 0 1-4.384-1.444c-5.023-4.404 4.508-10.942 9.438-13.862-.91-11.816-4.671-35.993-20.053-41.354l1.986-1.355c6.362.068 12.71.623 18.986 1.661q3.616.58 7.152 1.538c14.443 3.64 21.43 6.649 21.43 6.649a47 47 0 0 1 1.88 8.196c.15.976.237 2 .33 3.034a36.2 36.2 0 0 1-.653 10.188 63.2 63.2 0 0 0 8.305-11.153c2.758-.328 5.383-.657 7.871-.97z"/><path fill="#005587" d="M474.92 623.386c-12.236-5.647-16.178-22.621-13.019-49.594 1.321-11.093 7.649-16.955 14.988-19.99.07-.075.145-.073.137-.14 4.376-6.724 14.468-13.193 25.398-7.515a33.056 33.056 0 0 1 56.174 23.059c.018 1.032-.031 2.072-.073 3.18-2.49.322-5.116.718-7.787 1.04-1.312.164-2.69.328-4.003.493s-2.767.326-4.004.493c-.094-1.035-.206-2.139-.358-3.106a47.7 47.7 0 0 0-1.854-8.182s-6.725-2.852-21.146-6.633a188 188 0 0 0-7.153-1.528 116 116 0 0 0-18.986-1.661l-1.985 1.345c15.366 5.282 19.173 29.476 20.053 41.354-4.931 2.929-14.433 9.463-9.44 13.872 1.221 1.027 3.038 1.446 4.63 1.346 5.737-.475 13.014-5.796 16.42-8.48l12.356 1.95 23.87 3.86c-3.226 13.038-3.155 16.69-16.449 18.602-25.413 1.883-57.415-1.882-67.769-3.765"/><path fill="#7ebdff" d="M564.61 621.835c0-.884-7.762-10.152-7.762-10.152l-8.622-4.834 18.001-37.466 10.83-1.768s21.88-19.644 52.903-27.32c12.552-3.103 22.79-6.472 40.966.748 28.028 11.142 70.797 15.654 70.797 15.654 33.984 6.135 56.661 12.417 78.333 14.006l-51.889 60.947z"/><path fill="#006ead" d="M851.243 564.035a421 421 0 0 1 51.175-3.35s19.202 26.985 16.067 48.944C886.031 630.769 806.3 632.03 806.3 632.03c-13.177 4.424-37.423 6.636-48.483-4.433-8.313-8.32.16-38.741 11.794-42.864a481 481 0 0 1 52.116-15.314c10.58-2.41 20.566-4.245 29.517-5.384z"/><path fill="#006ead" d="M784.587 561.265c-28.237-2.824-56.474 44.238-45.18 65.886l16.002.942 66.828-57.416z"/><path fill="#004975" d="m1192.285 609.92 53.246-39.711.094.235a27.34 27.34 0 0 1-3.426 23.174l-34.779 52.04-18.636-16.688z"/><path fill="#004975" d="m1147.601 609.873 65.245-15.166-.005.248a27.34 27.34 0 0 1-12.393 19.88l-52.672 33.836-10.43-22.61z"/><path fill="#006ead" d="m902.174 561.259.244-.574 245.183 49.188-8.47 18.825c-70.537-4.217-157.96 6.194-188.954-4.047-57.256-18.872-57.896-39.664-48.003-63.392"/><path fill="#8a9097" d="M847.546 638.265c-4.811 2.102-31.738-.18-31.738-.18l8.439-27.153 32.712 18.862s-4.61 6.365-9.413 8.471"/><path fill="#a4abb3" d="M801.7 610.793c1.557.823 22.547.139 22.547.139l-8.44 27.152-19.092-9.803 4.775-17.592z"/><path fill="#56b0ff" d="M686.698 603.62c2.824.942 13.178-.94 26.995-2.21 29.31-3.19 67.357 2.956 92.006 6.206l-4.122 23.167s-130.194 8.25-130.256 7.42c-1.565-5.404 10.155-33.688 15.377-34.583"/><path fill="#56b0ff" d="M587.406 587.292c-22.336-.724-30.598 5.034-30.598 20.093 3.765 17.884 18.023 22.029 35.767 26.355s60.062 7.261 79.064 4.706c5.634-19.908 7.53-27.296 15.06-34.826z"/><path fill="#e8f1ff" d="M1108.852 625.385H441.06c8.102 11.045 21.39 23.048 30.89 30.915h636.9v-30.915z"/><path fill="#b8d6ff" d="M1108.852 625.385h239.592V656.3h-239.592z"/><ellipse cx="1729.666" cy="921.359" fill="#f7f8f9" rx="129.741" ry="10.958"/><path fill="#7d8389" d="M1683.822 591.879h38.512v147.24h-38.512z"/><path fill="#111f32" d="M1705.305 615.688c-6.512-24.18-13.234-46.603-18.836-59.639-8.823-20.668-8.568-50.997-8.568-50.997h-22.52l-5.603 14.12-.21.405c-.28 1.756-1.4 12.495-2.311 21.816-.7 6.889-1.19 13.103-1.19 14.453l4.761 131.368 1.05 28.975 3.431 31.744 9.383 87.06h39.703c5.042-31.068-1.26-67.676-14.074-113.4-6.933-24.518 4.13-64.57 14.984-105.905"/><path fill="#133351" d="M1787.973 835.487c-.35-61.665 2.171-83.751-4.831-106.85-.56-1.959-1.26-3.85-1.96-5.876-.631-1.621-1.261-3.31-1.961-4.998l-.21-1.013s-1.751-3.445-2.661-5.268v-.068l-.42-1.013v-.068c-.7-1.486-1.471-2.971-2.241-4.458l-.56-1.08-.07-.135-.56-1.081s-.07-.068-.07-.135c-.84-1.554-1.681-3.174-2.591-4.796l-.07-.135-.56-1.08-.14-.27-.56-1.014c-.07-.067-.07-.202-.14-.27l-.561-1.08-.14-.203-1.47-2.567-.14-.27c-.21-.337-.35-.675-.56-1.013l-.28-.54-.421-.81-.35-.608-.42-.743-.35-.676-.42-.675-.42-.676-.28-.54-.49-.81c-.421-.676-.771-1.419-1.121-2.162-3.501-7.7-3.991-18.37-3.641-30.799 1.4-54.708 8.753-84.088.21-112.05-3.361-11.144-9.243-22.086-19.046-34.514h-60.78c0 .135-.07 30.191 8.753 50.859 5.532 13.035 12.254 35.391 18.836 59.57 3.291 12.023 6.442 24.45 9.453 36.473 9.243 37.215 16.455 69.77 16.455 69.77l18.486 112.456 11.344.54z"/><path fill="#979ea4" d="M1670.796 892.076c-.14 0 0 0 0 0v.067zm.264-.068c.07 0-.14.068 0 .068h12.224l.07.337c.14-.135.21-.27.28-.472 4.75-17.182 10.199-35.644 13.622-56.6h-32.623zm117.844-.134c-.698-22.007-.977-40.583-1.117-56.533l-26.862-.134 15 56.869h.28z"/><path fill="#047bc0" d="m1671.109 891.911-60.5 20.195.14.203c4.902 5.74 12.254 9.05 19.957 9.05h58.888l-6.232-29.11-.07-.338zm144.575 18.777-26.399-19.181h-.63l-12.814.135-2.38 29.786h36.34c3.922 0 7.143-3.107 7.143-6.89 0-1.35-.42-2.701-1.26-3.85"/><path fill="#002742" d="M1773.813 349.165c-.28-5.2-1.19-10.468-3.222-15.196-4.341-9.861-11.413-18.304-19.816-23.572-7.142-4.593-12.044-11.82-13.514-19.925-.77-4.187-1.61-8.51-2.31-11.684-4.692-19.925-15.965-31.677-43.204-28.03-11.204 1.486-17.016 7.767-19.957 14.994 0 .068-.07.068-.07.135-8.052 5.268-15.475 18.371-2.24 31.204v19.114c-.07.203-.14.405-.28.608-2.802 6.349-7.493 16.953-7.493 23.504 0 12.833 4.691 21.951 7.772 26.544v24.045l107.064-1.824s4.832-3.985 7.563-13.98c2.1-7.903 1.33-15.738-10.294-25.937zm-101.328-69.47c5.742 15.33 31.725 17.666 43.28 17.936.77-1.688 7.284-14.266 12.742-8.565 4.901 5.2-3.361 16.615-6.936 20.938l9.314 48.482h-40.75s1.261-10.131 2.592-20.803c.28-2.701.66-5.333.94-7.9a51.3 51.3 0 0 1-11.513-1.96s-3.221-6.755-7.143-20.736a108 108 0 0 1-3.71-25.463l1.188-1.946z"/><path fill="#7d8389" d="M1704.1 328.88c-3.5.81-7.072 1.148-10.643.878-.28 2.566-.591 5.236-.871 7.937 4.393-2.384 8.083-5.506 11.514-8.815"/><path fill="#a4abb3" d="M1682.012 327.835c3.711 1.08 7.493 1.756 11.414 1.958 3.57.203 7.142-.067 10.643-.878-3.43 3.377-7.282 6.281-11.483 8.78-1.26 10.672-2.591 20.803-2.591 20.803h40.823l-9.103-48.494c3.43-4.323 11.693-15.737 6.792-20.938-5.672-5.944-12.114 6.957-12.954 8.578-11.624-.27-37.322-2.702-43.064-17.966l-1.33 1.958c.28 8.578 1.47 17.156 3.71 25.463 3.922 13.981 7.143 20.735 7.143 20.735z"/><path fill="#979ea4" d="m1573.198 420.163-26.609-10.806-4.061 21.41 24.368 5.336c49.085 35.054 115.803 46.674 112.302 9.526.35-.675-106-25.466-106-25.466"/><path fill="#bad4f0" d="M1566.896 436.103c49.085 35.054 115.803 46.674 112.302 9.526l-104.333-20.938-7.97 11.412zm103.423-74.701c-10.574 2.297-19.047 10.47-20.657 20.803l-1.82 18.709c16.175-23.977 22.477-39.512 22.477-39.512"/><path fill="#eff0f1" d="M1648.612 519.449c-.49 3.174-3.571 33.432-3.571 36.607-.07-3.107 3.08-33.433 3.57-36.607z"/><path fill="#00639b" d="m1741.812 493.445 29.059-98.137c.07-.54.14-1.013.21-1.553 0-.203 0-.338.07-.54 0-.339.07-.676.07-1.014 0-.203 0-.405.07-.608 0-.27.07-.608.07-.878v-4.863c0-.203 0-.54-.07-.743l-.07-.608c0-.27-.07-.54-.07-.743s-.07-.405-.07-.607l-.07-.743c0-.203-.07-.406-.07-.608 0-.203-.07-.473-.14-.676-.07-.202-.07-.405-.14-.608s-.07-.472-.141-.675l-.14-.54c-.07-.203-.14-.473-.21-.676l-.14-.54c-.07-.203-.14-.473-.21-.676-.07-.202-.14-.337-.14-.54-.07-.203-.14-.473-.28-.675-.07-.203-.14-.338-.21-.473-.07-.27-.21-.473-.28-.743l-.14-.405c-.14-.27-.28-.608-.42-.878-.071-.068-.071-.135-.071-.203-.21-.338-.35-.675-.56-1.08-.07-.068-.14-.203-.21-.27-.14-.271-.28-.541-.49-.744-.07-.135-.14-.27-.28-.405s-.28-.405-.42-.608l-.28-.405c-.14-.203-.28-.405-.42-.54a2.2 2.2 0 0 0-.35-.406c-.141-.135-.28-.337-.491-.54-.14-.203-.28-.27-.35-.405s-.35-.338-.49-.473l-.42-.405c-.14-.135-.35-.338-.56-.473l-.42-.338c-.21-.135-.351-.27-.561-.405l-.49-.338c-.21-.135-.35-.27-.56-.405l-.49-.338-.63-.405-.56-.338-.63-.337c-.21-.068-.351-.203-.56-.27l-.701-.338-.56-.27c-.21-.135-.49-.203-.77-.338l-.56-.203c-.28-.135-.56-.202-.841-.27l-.444-.095-35.617 131.395z"/><path fill="#2e91cf" d="M1653.653 493.445h64.911l35.712-131.435v-.135c-.91-.27-21.357-6.821-21.357-6.821l-3.921-9.321h-39.213l-3.571 9.32-13.514 5.336-2.591 1.013s-6.302 15.602-22.478 39.512l-.49.743c-7.282 9.186-10.363 18.776-5.882 37.553 1.47 6.214 3.011 12.765 4.552 19.317a3703 3703 0 0 1 7.842 34.918"/><path fill="#111f32" d="M1741.812 493.445h-88.159l1.03 11.76h82.824z"/><path fill="#e8f0fb" d="M1729.614 347.02c2.982 3.42 8.977 6.505 16.528 10.491 5.528 2.918 9.803 3.377 13.304 5.403l-2.1 74.296-2.101 74.295a3810 3810 0 0 1 38.512 241.797h-77.725c1.677-53.483 3.883-85.365 4.03-125.99.069-19.378-.15-44.567-1.93-77.309-2.615-48.127-7.609-107.067-12.603-139.81 7.936-27.466 16.15-35.707 24.085-63.174zm-84.304 56.42c-4.902 7.429-8.403 12.832-4.902 31.743l5.602 75.646-4.202 49.98c-.093 10.267.21 177.509.116 187.775 25.602-.091 3.808.092 29.41 0 3.247-45.16-18.768-196.646-15.521-241.807l-2.1-99.96 30.809-46.604c1.4-4.053 3.78-10.492 5.18-14.545-4.669 3.377-14.939 12.158-19.607 15.535-9.998 14.793-14.788 27.443-24.785 42.236z"/><path fill="#d2e2f6" fill-rule="evenodd" d="M1754.122 360.527c12.674 1.96 21.58 8.102 25.432 22.961l22.687 72.54-48.175-17.359s-7.913-13.44-9.383-35.526c-.7-10.537-.154-30.931 9.44-42.616z" clip-rule="evenodd"/><path fill="#7d8389" d="M1634.205 403.21s.42 1.96 1.12 4.526c.28.945 6.723 2.769 7.073 3.782.63 2.229 1.47 4.39 2.38 6.484 2.242 4.66 11.975 4.593 11.975 4.593l11.483-24.72z"/><path fill="#133351" d="m1661.94 454.026-97.489-5.6c-2.489 0-5.276-1.933-6.226-4.317l-21.269-57.286c-.95-2.384.299-4.317 2.788-4.317l96.089 4.2c2.49 0 5.277 1.933 6.226 4.317l22.67 58.686c.949 2.384-.3 4.317-2.789 4.317"/><path fill="#a4abb3" fill-rule="evenodd" d="m1537.136 400.644 29.2.945c.84 5.741-2.381 14.252-8.263 17.358l-15.545 11.82z" clip-rule="evenodd"/><path fill="#979ea4" d="m1685.653 409.897-17.435-12.022-11.484 24.72c4.482.54 19.957 2.634 21.287 3.31 7.765 2.487 31.987 15.672 36.188 19.724 4.586 4.423 4.55-15.596 9.103-20.262z"/><path fill="#d2e2f6" d="M1694.603 437.524c59.169 30.461 79.826 58.086 107.6 18.11l-97.797-39.723z"/></svg>