<svg xmlns="http://www.w3.org/2000/svg" viewBox="0 0 1920 1080"><g fill="none" fill-rule="evenodd"><path fill="#FFF" fill-rule="nonzero" d="M0 0h1920v1080H0z"/><path fill="#F7F8F9" fill-rule="nonzero" d="M275.96 165.14h329.76v758.49H275.96zm346.11 0h329.76v758.49H622.07zm346.11 0h329.76v758.49H968.18zm346.1 0h329.76v758.49h-329.76z"/><path d="M71.65 967.83h1776.7v29.49H71.65zm0-29.49h1776.7v29.49H71.65z"/><path fill="#EFF1F2" fill-rule="nonzero" d="m1569.24 923.63-14.7-243.69h56.27v-19.77h-130.58l-5.45-37.59h-112.57l-5.45 37.59h-42.48v19.77h39.61l-15.51 107h13v15.38h10.82l-23.83 121h15.38l8.17-41.48h113.13l8.17 41.48h15.38l-23.83-121h10.82V786.9h13l-15.51-107H1511l43 243.69H712.16l43-243.69H783l-15.51 107h13v15.38h10.82l-23.83 121h15.38l8.17-41.48h113.15l8.17 41.48h15.38l-23.83-121h10.82V786.9h13l-15.51-107h39.6v-19.73h-42.46l-5.45-37.59H791.33l-5.45 37.59H655.3v19.77h56.27l-14.7 243.69H71.65v14.71h1776.7v-14.71zM1365 866.38l12.63-64.1h81.81l12.62 64.1zm-558.25-64.1h81.81l12.63 64.1H794.08z"/><path fill="#EFF1F2" fill-rule="nonzero" d="M1052.94 786.9h13v15.38h10.82l-23.83 121h15.38l8.17-41.48h113.13l8.17 41.48h15.38l-23.83-121h10.82V786.9h13l-15.51-107h100.27v-19.73h-103.12l-5.45-37.59h-112.57l-5.45 37.59H968.18v19.77h100.27zm39.21 15.38H1174l12.63 64.1h-107.11z"/><g fill-rule="nonzero"><path fill="#C1C7CC" d="m277.527 967.83-83.29-83.28V610.71l58.74-58.74a8.874 8.874 0 0 0-12.55-12.55l-46.19 46.19V473.1l58.74-58.75a8.874 8.874 0 1 0-12.55-12.55l-46.19 46.2v-82.69c-.194-6.91-5.852-12.413-12.765-12.413s-12.572 5.502-12.765 12.413v128.83l-47.27-47.27a8.881 8.881 0 1 0-12.57 12.55l59.82 59.82v365.31l-83.27 83.28h25.1l61.86-61.87.22.22v61.65h17.75v-61.65l.22-.22 61.86 61.87z"/><path fill="#C1C7CC" d="m287.527 828.63-68.83-13.16-7.46-252.85a23.76 23.76 0 0 1 5.52-16.15l19.83-22.77c6.09-7 15.43-8 22.49-2.47 0 0 27.74 17.84 31 49.38 3.02 29.23 7.95 152.25-2.55 258.02"/><path fill="#D0D4D8" d="M301.077 583.35c-3.13-21-16.36-42.83-34.23-39.9-16.26 2.66-28.39 18.81-28.42 41.06-.07 50.69 15.38 183.09 15.38 183.09l50.06 10.26s4.75-143.8-2.79-194.51M73.707 739.11l68.83-13.15 7.46-252.85a23.8 23.8 0 0 0-5.52-16.15l-19.83-22.77c-6.09-7-15.43-8-22.49-2.47 0 0-27.74 17.83-31 49.38-3.02 29.23-7.95 152.25 2.55 258.01"/><path fill="#C1C7CC" d="M60.147 493.84c3.13-21 16.36-42.83 34.24-39.9 16.26 2.66 28.39 18.81 28.42 41.06.06 50.69-15.39 183.09-15.39 183.09l-50.1 10.26s-4.71-143.8 2.83-194.51m428.4 473.99h-124.27l-22.51-179.88h168.37z"/></g><g fill-rule="nonzero"><path fill="#A4ABB3" d="M1808.025 268.31h-1.33l-.58.07-.41.08-.52.11-.39.11-.53.16h-.05c-6.36 2.14-11.55 9.53-13.74 19.26v.21c-.19.86-.36 1.74-.5 2.63-.12.77-.22 1.56-.31 2.35-.12 1.15-.21 2.32-.25 3.51v1.71c0 16.74 8.37 30.3 18.69 30.31l-37.96 269.25h56.58V298.62c0-16.74-8.4-30.31-18.7-30.31"/><path fill="#595E62" d="m1792.025 424.5 80.65 572.82h-26.84l-80.65-572.82z"/><path fill="#595E62" d="M1731.775 806.48h98.06v15.51h-98.06z"/><path fill="#C1C7CC" d="m1768.995 424.5-80.64 572.82h26.83l80.65-572.82z"/><path fill="#595E62" d="m1552.965 424.5 80.64 572.82h-26.83l-80.65-572.82z"/><path fill="#595E62" d="M1492.715 806.48h98.06v15.51h-98.06z"/><path fill="#C1C7CC" d="m1529.935 424.5-80.64 572.82h26.83l80.65-572.82z"/><path fill="#D0D4D8" d="M1761.835 657.07h-302.64l46.19-328.14h302.64z"/><path fill="#8A9097" d="M1439.325 657.07h345.27c0 14.989-12.151 27.14-27.14 27.14h-291c-14.985-.006-27.13-12.155-27.13-27.14"/><path fill="#C1C7CC" d="M1829.835 329.13a23 23 0 0 1-.21 3.06l-45.74 324.88h-22.05l46.2-328.14 3-21.4c10.695 1.5 18.682 10.6 18.78 21.4q.018.1.02.2"/><path fill="#8A9097" d="M1811.045 307.53h-307.19l21.38 21.38h282.79z"/><path fill="#E0E2E5" d="M1789.325 298.62c0-16.74 8.38-30.31 18.7-30.31h-302.7c-10.34 0-18.71 13.57-18.71 30.31s8.37 30.31 18.71 30.31h302.7c-10.32 0-18.7-13.57-18.7-30.31"/><path fill="#8A9097" d="M1829.825 328.93h-21.79l3-21.4c10.699 1.495 18.69 10.598 18.79 21.4"/><path fill="#595E62" d="M1554.955 644.01h63.05v13.06h-63.05z"/><path fill="#A4ABB3" d="M1618.015 644.01h23.52v13.06h-23.52z"/><path fill="#43464A" d="m1599.385 484.11-9 63.98h-23.76l9.01-63.98zm50.54-23.11-12.25 87.09h-23.76l12.26-87.09zm50.67-23.1-15.52 110.19h-23.74l15.51-110.19z"/></g><path fill="#00629A" fill-rule="nonzero" d="M1161.202 556.24c19.91-58.8 19.32-113.62 17.19-141.25-.675-8.458-8.072-14.771-16.53-14.11a14.4 14.4 0 0 0-3.09.58c-11.992 2.645-20.56 13.23-20.65 25.51l-2.57 109.76.95-.3c13.75-4.41 25.65 7.35 24.7 19.85z"/><path fill="#71767C" fill-rule="nonzero" d="M1194.652 367.46a39 39 0 0 1-11.27 1c-.3 2.57-.59 5.44-.88 8.23l.91-.24a60 60 0 0 0 11.24-9z"/><path fill="#C1C7CC" fill-rule="nonzero" d="M1182.512 376.66c-1.32 11.32-2.65 22.2-2.65 22.2h41.6l-7.06-38.88-2.2-12.34c2.72-3.53 8.45-11.62 8.45-17.57a6.34 6.34 0 0 0-1.54-4.48 3.6 3.6 0 0 0-1.33-1c-2.2-1.1-4.63.44-6.9 2.79a42.2 42.2 0 0 0-5.81 8.23c-12.2-.73-37.26-4.11-42.92-19.91l-1.39 2.06a133 133 0 0 0 2 19.47c.44 2.43 1 4.85 1.69 7.35 4 14.84 7.28 21.9 7.28 21.9a47.3 47.3 0 0 0 11.61 2.06 37.2 37.2 0 0 0 11-1 56.4 56.4 0 0 1-11.24 8.89z"/><path fill="#595E62" fill-rule="nonzero" d="M1235.132 295.46c.053-17.142-12.997-31.485-30.068-33.046s-32.507 10.178-35.562 27.046a24.4 24.4 0 0 0-8.52 11.39l-.08.15c-8.25 5.48-15.8 19.37-2.25 32.89l4.16 3.35a124 124 0 0 1-2-19.47l1.39-2.06c5.73 15.72 30.72 19.18 42.92 19.91a42.2 42.2 0 0 1 5.81-8.23c2.27-2.35 4.7-3.82 6.9-2.79a4.5 4.5 0 0 1 1.33 1 6.34 6.34 0 0 1 1.49 4.47c-.07 6-5.73 14-8.45 17.57l2.2 12.34c14-21.9 13.08-35.57 11.69-42a32.37 32.37 0 0 0 9-22.56z"/><path d="m1175.822 394.74.52-1.32c-.23.44-.52 1-.81 1.47z"/><path fill="#9DC9FF" fill-rule="nonzero" d="M1249.482 589.99a124.2 124.2 0 0 0-11.76-21.53c-4.63-7-8.89-12.42-10.14-14l33.8-116.22c.08-.52.15-1.11.22-1.62a1.2 1.2 0 0 1 .08-.52c0-.36.07-.73.07-1-.017-.2.006-.4.07-.59 0-.3.08-.66.08-1v-.66s.07-.59.07-.88 0-.44.44-.66v-2.35a1 1 0 0 1-.51-.67c-.08-.22 0-.51-.08-.8l-.07-.67c0-.29-.07-.51-.07-.8s-.08-.44-.08-.67l-.07-.73c0-.22-.07-.44-.07-.66a2.8 2.8 0 0 0-.15-.74 4 4 0 0 0-.15-.58c-.07-.23-.07-.52-.14-.74l-.15-.59c-.07-.22-.15-.51-.22-.73s-.07-.37-.15-.59-.15-.51-.22-.74a3 3 0 0 0-.15-.51 2.8 2.8 0 0 0-.29-.73 2 2 0 0 1-.15-.52c-.07-.29-.22-.51-.29-.81l-.15-.44c-.14-.29-.29-.66-.44-1a.3.3 0 0 1-.07-.22c-.22-.37-.37-.74-.59-1.11a.6.6 0 0 1-.15-.29c-.14-.29-.29-.51-.44-.81a.7.7 0 0 0-.29-.37l-.44-.66-.3-.44c-.14-.22-.29-.37-.44-.59a2 2 0 0 0-.37-.44c-.14-.14-.29-.36-.44-.51l-.36-.44a3.6 3.6 0 0 0-.52-.52l-.44-.36a3.2 3.2 0 0 1-.51-.52c-.15-.22-.3-.22-.44-.37s-.37-.29-.52-.44l-.44-.36c-.22-.15-.37-.3-.59-.45l-.51-.36a2.7 2.7 0 0 0-.66-.37 3.5 3.5 0 0 1-.52-.29l-.66-.37-.51-.3-.74-.36c-.22-.08-.37-.22-.59-.3a3.1 3.1 0 0 1-.73-.37c-.22-.07-.37-.14-.59-.22s-.51-.22-.81-.29-.37-.15-.59-.22l-.14-.07c-1-.3-21.76-7.21-21.76-7.21l-4.76-10h-39.26s-28.71 41.23-42.62 58.13l-.74 1.18c-7.42 9.7-10.58 19.84-6 39.68.52 2.21 1 4.34 1.54 6.54 6.74 29.4 13.84 63.28 13.84 63.28l-7.28 13.31-5.43 40v139s2.27.29 6.17.73c7.79.88 22.27 2.28 39.32 3.09 11.17.51 23.51.81 35.79.44 5.36-.15 10.65-.44 15.94-.81 9.78-.74 18-1.32 24.84-1.76 24.92-1.69 32.41-1.69 32.41-1.69s-30.2-139.64-37-156.69z"/><path fill="#56B0FF" fill-rule="nonzero" d="M1175.532 394.89c.29-.51.51-1 .81-1.47a37.2 37.2 0 0 0 3.3-8.74s-6.32 10.36-20.87 16.75l-21.75 41.38.41-.38c2.64-2.71 21.63-22.55 36.77-45.41a12.4 12.4 0 0 0 1.33-2.13"/><path fill="#71767C" fill-rule="nonzero" d="M1262.472 422.96c0 .22.07.44.07.67 0-.23-.07-.45-.07-.67m-.3-1.32c.08.22.08.44.15.59a1.3 1.3 0 0 0-.15-.59m.44 2.72c0 .22.08.44.08.66a1.9 1.9 0 0 0-.04-.66zm.15 1.47.07.66zm-17.42-23.81c.22.07.37.15.59.22a5 5 0 0 1-.59-.22m15.88 15.73c.08.159.127.332.14.51a2 2 0 0 1-.14-.51m.36 1.25c.08.22.08.36.15.58a4 4 0 0 0-.15-.58m1.03 16.09a1.3 1.3 0 0 1-.07.51 1.3 1.3 0 0 0 .11-.51zm-1.83-18.59c.08.159.127.332.14.51a4 4 0 0 0-.14-.51m2.05 10.74v.66a1.8 1.8 0 0 0 0-.66m0 3v.66a1.06 1.06 0 0 1 0-.66m-.88-10 .15.59zm-10.21-15.13.51.36zm1.1.8c.15.15.29.22.44.37-.15-.15-.29-.22-.44-.37m1 .81c.14.15.29.22.44.37-.12-.15-.27-.22-.41-.37zm-3.31-2.28.51.3a1.2 1.2 0 0 0-.48-.3zm-1.18-.73.52.29zm-2.64-1.18c.22.08.37.15.59.22-.19-.07-.34-.14-.56-.22zm8.08 5.07.44.37zm5.44 7.72.15.44zm-2.79-4.85.29.44zm.73 1q.124.206.3.37a.8.8 0 0 1-.27-.34zm.74 1.18a.6.6 0 0 1 .15.29c.03-.04-.05-.12-.12-.26zm.81 1.47c.055.06.08.14.07.22.03-.05-.04-.1-.04-.19zm-4-5.66q.219.19.37.44a1.8 1.8 0 0 0-.31-.41zm.88.95c.15.15.22.3.37.44a1.6 1.6 0 0 1-.32-.41z"/><path fill="#00629A" fill-rule="nonzero" d="m1242.782 400.89-5.64-1.85-8.66 41.33c-1.4 10.51-15.14 12.28-15.14 12.28s8.08 6.68 5.07 14.77c-5.66 15.06-23.59 35.13-23.59 35.13l.37 64 41.64.36-5.06-105.57s27.96-54.8 11.01-60.45m20.39 165.35-11.69-71.21zm-44.52-181.87-23.68 117.87z"/><path fill="#004975" fill-rule="nonzero" d="m1252.252 495.72 7.13-61.14q.44-3.32.66-6.4c.07-1.54.15-2.94.15-4.33-.08-11.69-4.26-19.26-17.93-22.64l-11.25 60.85 5.44 104.87h27.49z"/><path fill="#8A9097" fill-rule="nonzero" d="M1172.812 965.47c12.12-45.42 28.88-99.73 6.61-181.67-2.57-9.48-2.72-21.24-1.32-34.39-17.12-.81-31.53-2.21-39.32-3.09l1.1 31.75s19.7 187.55 19.85 187.55h13v-.15z"/><path fill="#C1C7CC" fill-rule="nonzero" d="M1281.282 965.47c-4.92-159.69 9.85-153.15-26.46-218.27-6.91.45-15.14 1-24.84 1.84-5.21.37-10.58.66-15.94.81 4.61 20.39 7.61 34.32 7.61 34.32l46.29 181.45h.3l13.08-.15z"/><path fill="#56B0FF" fill-rule="nonzero" d="m1159.732 965.61-62.32 21.53.14.22a26.51 26.51 0 0 0 20.58 9.7h60.7l-6.39-31.08-.07-.37zm149.2 20.25-27.85-20.51-13.15.15-2.43 31.82h37.41a7.38 7.38 0 0 0 7.35-7.42 7.1 7.1 0 0 0-1.33-4zm-95.03-533.18s13.74-1.83 15.14-12.27l8.22-41.33c-12.72-5.22-18.36-14.45-18.36-14.45l-23.67 118s18-20.07 23.59-35.13c3.16-8.09-4.92-14.78-4.92-14.78z"/><path fill="#00629A" fill-rule="nonzero" d="m1310.742 523.08-44.28-100.26c-6.29-14.9-16-22.09-28.88-20.89-7.7 13.72-9.19 28.45-5.31 46.86s19.62 44.76 30.47 61.33c21-3.6 39.13-1.4 48 13z"/><path fill="#8A9097" fill-rule="nonzero" d="m1169.542 543.32-21.89-9.68-9.9 2.35 4.41 6.16 4.8-.9 2.69 1.93z"/><path fill="#C1C7CC" fill-rule="nonzero" d="M1310.812 522.9c-8.87-14.36-27-16.49-48-12.89-30 5.18-65.85 22.18-89.37 32.46-1.65.72-23.26-1.76-23.26-1.76l6.47 28.58 20.7-8.71s138.18-25.38 138-26.17c-.8-4.08-2.335-7.98-4.53-11.51z"/><path fill="#001D33" fill-rule="nonzero" d="m1064.648 521.533 77.317-17.396 24.797 110.215-77.317 17.396z"/><path fill="#8A9097" fill-rule="nonzero" d="M1138.312 571.63c4.82 2.61 18.34-2.34 18.34-2.34l-6.44-28.58-33 13.81c0 .07 16.29 14.59 21.1 17.11"/><path fill="#FFF" fill-rule="nonzero" d="m1093.182 528.289 25.883-5.824 3.341 14.849-25.883 5.823z"/><path fill="#8A9097" fill-rule="nonzero" d="M1085.932 571.61c-3.95 3.79-18.28 2.63-18.28 2.63l-1.45-29.24 35.45 4.47c0 .08-11.79 18.43-15.75 22.14z"/><path fill="#007BC0" fill-rule="nonzero" d="M799.248 343.53a33.3 33.3 0 0 0 10.73 1.09c.29 2.87.66 5.95 1 8.89a52.3 52.3 0 0 1-11.73-9.98m-34.23-46.04c1.1-10.87 14.11-17.34 14.11-17.34 1.1-18.52 23.89-12 23.89-12s17.41-8.67 26.08-4.34 2.21 16.32 5.44 20.65 4.34 10.88 4.34 10.88 1.56 14.4-10 20.72a120 120 0 0 0 1.89-17 32.15 32.15 0 0 1-15.8 1.7c-13-2.2-25-10.88-25-10.88s0 15.22-1.1 20.65c-.08.45-.23.89-.3 1.33-3.09-4.78-7.94-10.66-11.54-6.76-4.77 5.21 3.53 16.48 6.54 20.45l-.58 1.32c.07 0-19.11-18.54-18-29.42z"/><path fill="#56B0FF" fill-rule="nonzero" d="M813.158 372.55h-38.41l8.31-45.64s.22-.52.58-1.32c-3.08-3.9-11.39-15.51-6.61-20.73 3.6-4 8.53 2 11.54 6.76a10 10 0 0 0 .29-1.32c1.1-5.44 1.1-20.65 1.1-20.65s12 8.67 25 10.88a31.94 31.94 0 0 0 16-1.62 119 119 0 0 1-1.91 16.9c-.44 2.13-.88 4.34-1.47 6.62-3.77 13.67-6.83 20.19-6.83 20.19a44 44 0 0 1-10.73 2 33.1 33.1 0 0 1-10.73-1.1 52.6 52.6 0 0 0 11.68 10c1.11 9.85 2.21 19 2.21 19zm124.24 88.81s-120.24 51.52-119.87 52.18c25.36 42.48 76.95.74 126.19-35.64l24.39-5.51-4-22.27-26.67 11.24z"/><path fill="#8A9097" fill-rule="nonzero" d="M976.278 480.27h-23.47v-7.36h23.47a6.52 6.52 0 0 0 6.4-5.09l1.53-6.64a6.56 6.56 0 0 0-6.38-8h-21.4v-7.36h21.4a13.91 13.91 0 0 1 13.54 17l-1.52 6.64a13.85 13.85 0 0 1-13.57 10.81"/><path fill="#8A9097" fill-rule="nonzero" d="m972.298 488.72-33.06-.04-3.83-47.54 40.85.06z"/><path fill="#595E62" fill-rule="nonzero" d="m866.278 427.03 2.76 63.76-22.88 25.13z"/><path fill="#D0D4D8" fill-rule="nonzero" d="m893.288 987.62-.15.22a26 26 0 0 1-20.14 9.48h-76.79l6.32-30.94h36.82zm-205.41-1.47 26.31-19.84h27l4 30.94h-51.37a7.13 7.13 0 0 1-7.12-7.13 6.4 6.4 0 0 1 1.18-4z"/><path fill="#003253" fill-rule="nonzero" d="M694.748 967.02c0-153.45 43.58-233.7 43.21-247.81-2.06-77.16-4-97.08 9.26-147l.15 1.25h77.739c-.44 9.77-2.092 36.99-8.632 52.9-6.61 16.1-14.897 39.52-22.167 69.1-11.1 45.71-20.43 92.15-20.43 92.15l-30.8 179.32z"/><path fill="#001D33" fill-rule="nonzero" d="m853.838 573.48-.3 11.76-4.92 190-7.06 191.81h-55c1.76-121 2.64-94.51 14.33-175.79 4.85-33.51.157-65.698-6.533-95.898 7.2-29.62 15.133-58.722 21.743-74.782 6.54-15.95 8.512-37.36 8.952-47.1z"/><path fill="#8A9097" fill-rule="nonzero" d="m845.088 380.62-30.28-18.3h-39.54l-43.36 25.3 31.09 38.14 10.22 147.42-25.93-.29.06.59h106.49l-.3-33.51.59-29 9.92-68.35 2.79-19.47a45.37 45.37 0 0 0-21.75-42.53"/><path fill="#595E62" fill-rule="nonzero" d="M773.658 573.48h-26.79l-15-185.86 31.09 38.14z"/><path fill="#56B0FF" d="M811.428 361.24h-34l12.56 10.07 12.57 5.36 9.7-5.29 1.1-7.28z"/><path fill="#001D33" d="m803.928 370.06-12.27 8.89 8.89 11.46-5.07 11.4 3.09 125.66 12.64 16.47 14-19-10.14-123.09-6.91-11.4 6.4-10.21z"/><path fill="#C1C7CC" d="M786.588 386.45s12.94-9.78 17.35-16.32c.29-.44-9.63-1.18-17.2-6.25-8.38-5.58-8.82-8.52-8.82-8.52l-9.48 10.73s13.08 14.18 18.15 20.36"/><path fill="#C1C7CC" d="M811.578 358.89c.07 6.68-7.64 11.17-7.64 11.17l13.3 16.31s3.08-9.18 3.08-15.28-8.74-12.2-8.74-12.2"/><path fill="#56B0FF" fill-rule="nonzero" d="m736.348 626.36 18.81 19.61-6.59 17.65-4.74-1.22 1-11.12-5.14-4.74z"/><path fill="#C1C7CC" fill-rule="nonzero" d="m676.058 510.62 45-111c7.1-13.82 17-19 28.87-15.93 17.86 6.15 15.11 30.5 12.05 40.92-5.77 19.86-43.89 101.88-47.87 104.05-25.18 13.73-38.05-18.04-38.05-18.04m11.715 211.611 93.941-22.848-15.489-63.684-93.941 22.849z"/><path fill="#9DC9FF" fill-rule="nonzero" d="M728.298 560.2c5.28 22.13 7.06 47.33 8 66.16l10.6 27.45s-30.1 7.27-30.09 7.34c-4.8-7.66-6.49-30.52-6.49-30.52s-35.1-119.79-34.31-120a38 38 0 0 1 10.74-1.3c22.8.37 34.91 23.29 41.55 50.87"/><path fill="#56B0FF" fill-rule="nonzero" d="M752.748 678.17s-12.13 2.33-19.5-.82c-9.4-4-15.71-15.51-16.44-16.24l30.13-7.3z"/><path fill="#007BC0" d="M973.608 472.99h2.74a3.33 3.33 0 0 0 3.22-3l1.36-13.29a3.12 3.12 0 0 0-3.09-3.43h-17.74c-.64 3.63-.03 18.75 13.51 19.72"/></g></svg>