<svg xmlns="http://www.w3.org/2000/svg" data-name="Ebene 2" viewBox="0 0 1600 900"><path fill="#ddd" d="M789.41 507.35h21.19V900h-21.19z"/><path fill="#ddd" d="m958.64 188.51-317.25-1.71c-2.74 0-4.96 2.23-4.96 4.96v327.38c0 2.7 2.19 4.92 4.88 4.96l317.31 4.81c2.73 0 4.96-2.23 4.96-4.96V193.48c0-2.72-2.21-4.95-4.93-4.96Z"/><path fill="#c1c7cc" d="m942.23 207.58-284.44-1.54c-1.22 0-2.21.98-2.21 2.2v294.75c0 1.2.97 2.18 2.17 2.2l284.44 4.31c1.23.02 2.23-.97 2.23-2.2V209.78c0-1.21-.98-2.19-2.19-2.2"/><path fill="#efefef" d="M721.02 237.77h85.31c15.09 0 27.56 1.42 37.4 4.27s18.32 7.44 25.43 13.78c13.89 12.25 20.83 29.64 20.83 52.17s-7.71 40.85-23.13 52.66c-13.45 10.28-31.83 15.42-55.12 15.42h-62.83v101.87h-27.89zm87.27 115.82c18.59 0 32.04-4.04 40.36-12.14 8.53-8.09 12.8-19.74 12.8-34.94 0-16.62-4.76-28.6-14.27-35.93-8.42-6.45-20.78-9.68-37.08-9.68h-61.19v92.69z"/></svg>