<svg xmlns="http://www.w3.org/2000/svg" data-name="Ebene 2" viewBox="0 0 1600 900"><path fill="#e0e2e5" d="M1600 179.11c-99.33-16.53-212.85-2.55-336.58 68.21-191.54 109.53-326.8-129.91-560.43 280.29H1600z" opacity=".38"/><path fill="#d0d4d8" d="M0 537.67h1501.77s-76.2-64.98-200.03-64.98c-105.38-1.11-216.34 22.8-216.34 22.8-48.36-38.84-350.67-261.71-764.74-124.32-116.13 38.53-212.06 4.36-320.67 20.7v145.8Z" opacity=".38"/><path fill="#969696" d="M1600 900V524.57L0 492.79V900z"/><path fill="#ddd" d="M0 850.04V900l1600-375.43-106.1-2.11z"/><g fill="#f2e8df"><path d="m419.76 718.08 41.36-5.81-499.95-19.19v7.11l458.53 17.89zM719.73 751.64h-.02l-27.14 5.05 188.96 8.15 185.93 8.03 24.55-5.43-210.48-8.92zM447.35 822.05h-.02l-27.14 5.05 188.96 8.15 185.93 8.03 24.55-5.43-210.48-8.92zM976.85 685.95l-6.34 1.19-21.09 3.92 21.09.81L1307.82 705h.04l24.64-5.47-355.64-13.58zM291.82 618.8l-34.35 4.34 505.64 17.24h.04l31.01-4.8-502.27-16.78zM1226.35 624.74l324.69 10.1h.11l24.33-5.42v-.12l-321.13-9.77zM542.14 578.4l-34.76 4.43 489.76 15.21h.03l31.31-4.83-486.22-14.81zM787.28 536.48l-34.75 4.43 489.75 15.21.04-.01 31.3-4.82-486.22-14.81z"/></g><path fill="#969696" d="M1418.63 556.47c3.47.11 7.05.1 10.43-.03V431.76h-10.43v124.7Z"/><path fill="#ada7a5" d="M1418.63 486.23c.04-.06.08-.12.12-.17.94-1.55 1-3.47 1.03-5.28l.78-48.02c1.47-.16 2.94-.32 4.41-.47v-.51h-6.34v54.46Z"/><path fill="#43464a" d="M1426.62 536.56c-.03 3.81-.14 7.86-2.19 11.07-1.26 1.96-3.54 3.39-5.8 3.65v5.2c3.47.11 7.05.1 10.43-.03V431.77h-2.26c.23 37.68.17 67.12-.18 104.79"/><path fill="#aaaeb2" d="M1453.35 292.86c-.73.35-1.46.72-2.18 1.1a61 61 0 0 0-7.29 4.59c-2.31 1.71-4.5 3.6-6.53 5.64a51.4 51.4 0 0 0-5.51 6.54c-1.63 2.3-3.06 4.74-4.22 7.3-1.17 2.54-2.07 5.2-2.67 7.93-.3 1.37-.53 2.76-.66 4.16-.07.68-.12 1.37-.13 2.06-.02.91-.35 1.82-.37 2.73 0-.58-.06-1.16-.15-1.73-.07-.45-.05-.86-.07-1.31-.14-2.81-.63-5.59-1.4-8.28-.78-2.69-1.84-5.29-3.15-7.76-1.32-2.5-2.88-4.87-4.63-7.09a52.6 52.6 0 0 0-5.84-6.29 58.4 58.4 0 0 0-6.78-5.35c-2.36-1.6-4.84-3.02-7.41-4.25-14.8-7.08-31.56-8.58-48-8.97-.27 1.06-.68 2.5-1.06 3.63 12.51.58 25.13 1.33 37.07 5.05 12.59 3.91 24.54 11.56 30.87 23.12 6.17 11.3 6.33 24.79 6.33 37.67 0 26.13 0 52.27-.01 78.4h8.61c0-26.13 0-52.28-.01-78.4 0-12.88.15-26.37 6.33-37.67 6.32-11.56 18.28-19.21 30.87-23.12 11.94-3.72 24.57-4.48 37.07-5.05-.38-1.13-.8-2.57-1.06-3.63-16.44.38-33.2 1.89-48 8.97Z"/><path fill="#c5c7c9" d="M1354.28 284.19c1.31 1.3 3.69 1.58 5.69 1.67 12.35.53 24.59 3.32 35.96 8.17.43.19.91.38 1.37.35-.96-.53-1.95-1.04-2.95-1.52-12.43-5.94-26.24-7.96-40.07-8.67"/><path fill="#92979b" d="M1388.91 293.69a84.2 84.2 0 0 0-28.65-6.58c-2.42-.12-4.86-.14-7.22-.72-1.76-.43-3.5-1.22-4.83-2.45-.62-.02-1.24-.04-1.86-.05-.27 1.06-.68 2.5-1.06 3.63 12.51.58 25.13 1.33 37.07 5.05 10.03 3.12 19.66 8.61 26.35 16.56-.89-1.45-1.9-2.84-3.03-4.14-4.45-5.14-10.51-8.65-16.77-11.3"/><path fill="#c5c7c9" d="M1419.48 344.95c.07 2.81.08 5.63.08 8.41 0 23.25 0 46.51-.01 69.76.07-.04.14-.08.2-.14.55-.52.6-1.37.6-2.12.26-23.26.23-46.53-.08-69.8-.02-2.06-.07-4.21-.79-6.12Zm4.4 27.68c-.03-3.93-.14-7.85-.28-11.77-.13-3.62.26-7.68-.32-11.22-.04-.28-.15-.61-.42-.69-.43-.13-.7.46-.76.91-1.04 7.43-.53 15.46-.41 22.97.12 6.84-.48 13.67.55 20.46.19 1.22.63.79.97.19.17-.29.32-.62.4-.81.58-1.38.43-3.25.42-4.71-.06-5.11-.12-10.21-.16-15.32Zm27.29-78.67a61 61 0 0 0-7.29 4.59c-2.31 1.71-4.5 3.6-6.53 5.64a51.4 51.4 0 0 0-5.51 6.54c-1.63 2.3-3.06 4.74-4.22 7.3-.09.19-.17.39-.26.58.14.13.32.22.52.26 1.12.23 1.88-1.06 2.32-2.11 4.88-11.54 15.53-19.89 27.14-24.59 11.61-4.69 24.25-6.17 36.73-7.29 1.36-.12 2.81-.29 3.99-.91-15.37.51-30.88 2.27-44.69 8.87-.73.35-1.46.72-2.18 1.1Z"/><path fill="#92979b" d="M1496.26 286.12c-11.55.6-23.2 1.86-34.08 5.78-10.87 3.92-21.02 10.74-27.18 20.53-8.1 12.87-8.4 28.99-8.47 44.2-.08 18.09-.15 36.18-.23 54.26-.01 4.09-.06 8.33-1.73 12.07-1.02 2.3-2.83 4.38-5.03 5.55v3.26h8.61c0-26.13 0-52.28-.01-78.4 0-12.88.15-26.37 6.33-37.67 6.32-11.56 18.28-19.21 30.87-23.12 11.94-3.72 24.57-4.48 37.07-5.05-.17-.5-.35-1.07-.51-1.64-1.89.06-3.76.14-5.64.24Z"/><path fill="#969696" d="M1345.43 282.12c-3.84.05-7.65.05-11.48.04-5.39-.01-10.78-.04-16.18-.05-10.59-.03-21.19-.03-31.78.11-.49 0-1.05.06-1.32.46-.3.43-.08 1.01.14 1.48.82 1.77 1.63 3.54 2.45 5.31.22.5.47 1.02.93 1.32.58.4 1.35.35 2.06.27 17.99-1.86 36.33-1.68 54.31-1.76.12 0 .41-.76.75-1.78.38-1.13.8-2.57 1.06-3.63.21-.81.32-1.4.26-1.46-.29-.29-.77-.31-1.19-.31Z"/><path fill="#ada7a5" d="M1285.99 282.22c-.49 0-1.05.06-1.32.46a.9.9 0 0 0-.14.6c.34.08.72.07 1.07.06 15.97-.4 31.94-.79 47.91-1.19-5.25-.01-10.48-.04-15.74-.05-10.59-.03-21.19-.03-31.78.11Z"/><path fill="#43464a" d="M1290.48 287.38c-1.78-.37-3.54-1-5.09-1.94.62 1.35 1.24 2.69 1.86 4.04.22.5.47 1.02.93 1.32.58.4 1.35.35 2.06.27 17.99-1.86 36.33-1.68 54.31-1.76.12 0 .41-.76.75-1.78.09-.25.17-.53.26-.8-15.26.37-30.53.76-45.8 1.13-3.1.07-6.23.14-9.27-.48Z"/><path fill="#969696" d="M1561.72 282.22c-10.59-.14-21.19-.14-31.79-.11-5.39.01-10.78.04-16.17.05-3.84 0-7.65 0-11.48-.04-.42 0-.89.01-1.19.31-.07.06.05.65.26 1.46.27 1.06.68 2.5 1.06 3.63.34 1.02.63 1.78.75 1.78 17.97.09 36.32-.1 54.31 1.76.7.07 1.47.13 2.06-.27.45-.3.7-.83.93-1.32.82-1.77 1.63-3.54 2.45-5.31.22-.47.43-1.05.14-1.48-.27-.4-.83-.45-1.32-.46Z"/><path fill="#43464a" d="M1524.85 287.66c-7.34-.19-16.34.76-23.16-2.49.22.79.47 1.63.72 2.35.34 1.02.63 1.78.75 1.78 17.97.09 36.32-.1 54.31 1.76.7.07 1.47.13 2.06-.27.45-.3.7-.83.93-1.32l.6-1.29c-4.86-.33-9.74-.61-14.59-.56-7.2.08-14.41.22-21.61.04Z"/><path fill="#ada7a5" d="M1561.72 282.22c-10.59-.14-21.19-.14-31.79-.11-5.39.01-10.78.04-16.17.05-3.84 0-7.65 0-11.48-.04-.42 0-.89.01-1.19.31-.04.04-.01.27.05.62.89.17 1.86.15 2.77.12 19.74-.6 39.5-.68 59.24-.25a.8.8 0 0 0-.11-.24c-.27-.4-.83-.45-1.32-.46"/><path fill="#969696" d="M123.7 849.46c6.24.19 12.68.18 18.76-.05V625.26H123.7z"/><path fill="#ada7a5" d="M123.7 723.16c.08-.1.14-.21.21-.31 1.69-2.79 1.8-6.24 1.85-9.5.47-28.78.93-57.56 1.4-86.33 2.64-.28 5.28-.57 7.93-.85 0-.31.01-.61.01-.92h-11.4z"/><path fill="#43464a" d="M138.07 813.66c-.05 6.86-.25 14.13-3.95 19.9-2.26 3.53-6.36 6.09-10.43 6.56v9.34c6.24.19 12.68.18 18.76-.05V625.26h-4.06c.41 67.74.31 120.67-.32 188.41Z"/><path fill="#aaaeb2" d="M186.12 375.51a96 96 0 0 0-3.92 1.98c-4.55 2.42-8.94 5.19-13.1 8.25-4.15 3.08-8.1 6.47-11.75 10.14-3.61 3.64-6.95 7.57-9.91 11.76-2.92 4.13-5.5 8.53-7.59 13.13-2.1 4.57-3.73 9.35-4.8 14.26a65 65 0 0 0-1.19 7.48c-.13 1.23-.21 2.47-.23 3.7-.04 1.64-.63 3.27-.66 4.9.01-1.05-.1-2.08-.27-3.1-.13-.82-.09-1.54-.13-2.35-.26-5.05-1.13-10.05-2.52-14.89-1.4-4.84-3.31-9.51-5.67-13.95-2.37-4.5-5.17-8.76-8.32-12.76-3.17-4.05-6.7-7.83-10.49-11.31-3.8-3.51-7.89-6.71-12.19-9.61-4.24-2.87-8.71-5.42-13.32-7.63-26.61-12.73-56.74-15.43-86.29-16.12-.48 1.91-1.23 4.5-1.91 6.53 22.48 1.03 45.18 2.39 66.65 9.08 22.63 7.04 44.13 20.78 55.5 41.57 11.1 20.31 11.37 44.57 11.37 67.72-.01 46.97-.01 93.97-.03 140.96h15.49c-.01-46.99-.01-93.99-.03-140.96 0-23.16.27-47.41 11.37-67.72 11.37-20.79 32.87-34.53 55.5-41.57 21.47-6.69 44.17-8.05 66.65-9.08-.69-2.03-1.44-4.62-1.91-6.53-29.56.69-59.69 3.39-86.29 16.12Z"/><path fill="#c5c7c9" d="M8 359.92c2.35 2.34 6.64 2.85 10.23 3 22.2.96 44.22 5.96 64.65 14.7.78.34 1.64.69 2.47.62-1.73-.96-3.51-1.88-5.3-2.73C57.71 364.82 32.88 361.2 8 359.92"/><path fill="#92979b" d="M70.27 377.01a151.9 151.9 0 0 0-51.5-11.84c-4.35-.22-8.74-.26-12.98-1.29-3.17-.78-6.3-2.2-8.68-4.4-1.11-.04-2.24-.06-3.35-.09-.48 1.91-1.23 4.5-1.91 6.53 22.48 1.03 45.18 2.39 66.65 9.08 18.03 5.6 35.34 15.47 47.37 29.77-1.6-2.61-3.42-5.1-5.45-7.44-8.01-9.24-18.9-15.55-30.16-20.32Z"/><path fill="#c5c7c9" d="M125.22 469.17c.13 5.06.14 10.12.14 15.12-.01 41.8-.01 83.61-.03 125.42.13-.06.26-.14.36-.25 1-.93 1.07-2.46 1.09-3.82.47-41.82.41-83.66-.14-125.49-.04-3.7-.13-7.57-1.42-11Zm7.91 49.76c-.05-7.06-.25-14.11-.5-21.16-.23-6.51.47-13.8-.57-20.17-.08-.5-.27-1.1-.76-1.24-.78-.23-1.25.83-1.36 1.63-1.88 13.36-.96 27.79-.74 41.29.21 12.3-.87 24.58 1 36.78.34 2.19 1.12 1.42 1.75.35.31-.52.57-1.11.72-1.46 1.05-2.48.78-5.85.75-8.47-.1-9.19-.22-18.36-.29-27.54Zm49.07-141.44c-4.55 2.42-8.94 5.19-13.1 8.25-4.15 3.08-8.1 6.47-11.75 10.14-3.61 3.64-6.95 7.57-9.91 11.76-2.92 4.13-5.5 8.53-7.59 13.13-.16.35-.31.7-.47 1.05.26.23.58.39.93.47 2.01.41 3.38-1.9 4.17-3.79 8.77-20.75 27.92-35.76 48.8-44.21 20.88-8.43 43.6-11.09 66.03-13.11 2.44-.22 5.06-.52 7.17-1.63-27.63.92-55.52 4.08-80.35 15.95a96 96 0 0 0-3.92 1.98Z"/><path fill="#92979b" d="M263.26 363.4c-20.76 1.07-41.71 3.34-61.27 10.39-19.55 7.05-37.79 19.3-48.86 36.91-14.55 23.14-15.11 52.12-15.23 79.47-.14 32.52-.27 65.05-.41 97.56-.03 7.36-.1 14.98-3.1 21.7-1.84 4.14-5.1 7.88-9.04 9.97v5.86h15.49c-.01-46.99-.01-93.99-.03-140.96 0-23.16.27-47.41 11.37-67.72 11.37-20.79 32.87-34.53 55.5-41.57 21.47-6.69 44.17-8.05 66.65-9.08-.31-.91-.62-1.93-.92-2.95-3.39.1-6.77.26-10.14.43Z"/><path fill="#969696" d="M380.95 356.39c-19.04-.25-38.1-.25-57.15-.19l-29.07.09c-6.9.01-13.75.01-20.65-.08-.76 0-1.6.03-2.13.56-.12.12.09 1.18.47 2.63.48 1.91 1.23 4.5 1.91 6.53.61 1.84 1.14 3.21 1.35 3.21 32.32.16 65.29-.18 97.63 3.17 1.25.13 2.65.23 3.7-.49.81-.54 1.25-1.49 1.67-2.38 1.48-3.18 2.94-6.36 4.41-9.55.39-.85.78-1.89.25-2.67-.49-.72-1.5-.82-2.38-.83Z"/><path fill="#43464a" d="M314.67 366.17c-13.2-.34-29.38 1.37-41.64-4.48.4 1.42.85 2.94 1.29 4.23.61 1.84 1.14 3.21 1.35 3.21 32.32.16 65.29-.18 97.63 3.17 1.25.13 2.65.23 3.7-.49.81-.54 1.25-1.49 1.67-2.38l1.07-2.32c-8.75-.59-17.5-1.1-26.22-1.01-12.95.14-25.9.4-38.85.06Z"/><path fill="#ada7a5" d="M380.95 356.39c-19.04-.25-38.1-.25-57.15-.19l-29.07.09c-6.9.01-13.75.01-20.65-.08-.76 0-1.6.03-2.13.56-.07.06-.03.48.09 1.11 1.6.3 3.34.27 4.98.22 35.49-1.07 71.01-1.22 106.51-.45-.04-.16-.1-.28-.19-.43-.49-.72-1.5-.82-2.38-.83Z"/><g fill="#c4c4c4"><ellipse cx="201.02" cy="143.57" rx="19.68" ry="19.58"/><ellipse cx="99.36" cy="136.69" data-name="Oval" rx="26.58" ry="26.45"/><ellipse cx="163.31" cy="119.91" data-name="Oval" rx="34.32" ry="34.15"/><path d="m103.88 110.62 100.48 13.65-3.34 38.88H99.36z"/></g><g fill="#c4c4c4"><ellipse cx="322.16" cy="210.36" data-name="Oval" rx="13.75" ry="13.68"/><ellipse cx="251.12" cy="205.55" data-name="Oval" rx="18.58" ry="18.49"/><ellipse cx="295.81" cy="193.83" data-name="Oval" rx="23.98" ry="23.87"/><path d="m254.27 187.33 70.23 9.54-2.34 27.17h-71.04z" data-name="Path"/></g><path fill="#232628" d="M568.38 594.35c.2-6.66 2.39-12.67 5.82-17.16l.25-8.55 15.32.45c11.39.34 20.29 12.19 19.87 26.47s-10 25.59-21.4 25.25l-15.32-.45.25-8.55c-3.16-4.68-4.99-10.81-4.8-17.47Z"/><ellipse cx="574.12" cy="594.52" fill="#383b3e" rx="25.87" ry="20.64" transform="rotate(-88.31 574.067 594.516)"/><ellipse cx="573.29" cy="595.36" fill="#595e62" rx="19.1" ry="15.23" transform="rotate(-88.31 573.242 595.365)"/><path fill="#656a6f" d="M573.86 576.28c.74.02 1.47.11 2.18.26-7.42 1.11-13.32 8.89-13.61 18.5-.28 9.61 5.15 17.73 12.49 19.28-.72.11-1.45.16-2.19.13-8.41-.25-14.97-9-14.66-19.54s7.38-18.89 15.79-18.64Z"/><path fill="#1a1c1d" d="m490.65 591.284.877-29.687 233.688 6.895-.876 29.687z"/><path fill="#232628" d="M775.35 600.47c.2-6.66 2.39-12.67 5.82-17.16l.25-8.55 15.32.45c11.39.34 20.29 12.19 19.87 26.47s-10 25.59-21.4 25.25l-15.32-.45.25-8.55c-3.16-4.68-4.99-10.81-4.8-17.47Z"/><ellipse cx="781.09" cy="600.64" fill="#383b3e" rx="25.87" ry="20.64" transform="rotate(-88.31 781.033 600.65)"/><ellipse cx="780.27" cy="601.49" fill="#595e62" rx="19.1" ry="15.23" transform="rotate(-88.31 780.203 601.495)"/><path fill="#656a6f" d="M780.83 582.4c.74.02 1.47.11 2.18.26-7.42 1.11-13.32 8.89-13.61 18.5s5.15 17.73 12.49 19.28c-.72.11-1.45.16-2.19.13-8.41-.25-14.97-9-14.66-19.54s7.38-18.89 15.79-18.64Z"/><path fill="#2e3033" d="m434.148 574.032.278-9.416 45.15 1.332-.277 9.416zM473.67 609.25l-25.23-.75 6.75-11.03 25.23.75z"/><path fill="#43464a" d="M514.35 555.72v-.22l-.35-.01-.24-.16-.05.15-23.01-.68-.04-.15-.25.14h-.36v.21c-19.62 3.25-34.19 19.94-34.78 39.82l-.08 2.66 20 .59.17-4.68c.47-15.79 11.49-28.3 24.73-28.24v-.02l.52.02 2.61.08.52.02v.02c13.22.72 10.61-9.53 10.61-9.53Z"/><path fill="#232628" d="M479.61 591.72c.2-6.66 2.39-12.67 5.82-17.16l.25-8.55 15.32.45c11.39.34 20.29 12.19 19.87 26.47s-10 25.59-21.4 25.25l-15.32-.45.25-8.55c-3.16-4.68-4.99-10.81-4.8-17.47Z"/><ellipse cx="485.34" cy="591.89" fill="#383b3e" rx="25.87" ry="20.64" transform="rotate(-88.31 485.296 591.891)"/><ellipse cx="484.52" cy="592.74" fill="#595e62" rx="19.1" ry="15.23" transform="rotate(-88.31 484.47 592.73)"/><path fill="#656a6f" d="M485.09 573.65c.74.02 1.47.11 2.18.26-7.42 1.11-13.32 8.89-13.61 18.5s5.15 17.73 12.49 19.28c-.72.11-1.45.16-2.19.13-8.41-.25-14.97-9-14.66-19.54s7.38-18.89 15.79-18.64Z"/><path fill="#419e98" d="m651.466 561.62 4.153-140.749 115.03 3.394-4.153 140.749z"/><path fill="#d0d4d8" d="m724.883 476.433.472-16.023 25.17.742-.473 16.023z"/><path fill="#d0d4d8" d="m737.68 576.55 111.46 3.3 2.96-100.08c.51-9.98-6.92-15.77-16.02-16.04l-94.97-2.81-3.42 115.64Z"/><path fill="#d0d4d8" d="m739.32 528.78 115.06 3.4-3.44-5.85-111.45-3.3z"/><path fill="#b2b9c0" d="m739.32 528.76 115.06 3.41-3.65 1.52-111.46-3.3z"/><path fill="#c1c7cc" d="m706.18 565.16 31.72 11.4 1.12-37.63-32.98-.97z"/><path fill="#383b3e" d="m852.97 579.96-115.06-3.4-.87 29.26 103.7 3.07c6.27.19 11.51-4.75 11.7-11.02l.53-17.9Z"/><path fill="#656a6f" d="m829.28 598.02 14.99.44 3.17-8.51-29.58-.88c1.19 5.09 5.9 8.78 11.42 8.94Zm-68.8-2.04-14.99-.44-2.66-8.68 29.58.88c-1.49 5.01-6.41 8.41-11.93 8.25Z"/><path fill="#e0e2e5" d="m847.33 533.59-105.1-3.11-.2 6.92c-.62 21.1 16 38.73 37.09 39.36l28.65.85c21.1.62 38.73-16 39.36-37.09l.2-6.92Z"/><path fill="#c1c7cc" d="m847.33 533.59-105.1-3.11-.12 4.15c-.62 21.1 16 38.73 37.09 39.36l28.65.85c21.1.62 38.73-16 39.36-37.09l.12-4.15Z"/><path fill="#2e3033" d="m770.935 534.028.08-2.739 47.32 1.396-.081 2.74zM770.622 544.611l.08-2.739 47.32 1.396-.08 2.74zM770.308 555.203l.08-2.739 47.32 1.396-.08 2.74zM769.995 565.804l.08-2.739 47.32 1.396-.081 2.74zM778.956 576.67l.08-2.738 28.788.85-.081 2.738z"/><path fill="#43464a" d="m739.428 522.869 1.468-49.749 111.461 3.289-1.468 49.748z"/><path fill="#232628" d="M687.54 597.88c.2-6.66 2.39-12.67 5.82-17.16l.25-8.55 15.32.45c11.39.34 20.29 12.19 19.87 26.47s-10 25.59-21.4 25.25l-15.32-.45.25-8.55c-3.16-4.68-4.99-10.81-4.8-17.47Z"/><ellipse cx="693.28" cy="598.05" fill="#383b3e" rx="25.87" ry="20.64" transform="rotate(-88.31 693.222 598.047)"/><ellipse cx="692.45" cy="598.89" fill="#595e62" rx="19.1" ry="15.23" transform="rotate(-88.31 692.397 598.897)"/><path fill="#656a6f" d="M693.02 579.8c.74.02 1.47.11 2.18.26-7.42 1.11-13.32 8.89-13.61 18.5-.28 9.61 5.15 17.73 12.49 19.28-.72.11-1.45.16-2.19.13-8.41-.25-14.97-9-14.66-19.54s7.38-18.89 15.79-18.64Z"/><path fill="#2e3033" d="m723.22 605.41.12-5.33c.53-17.98-13.42-33.01-31.29-33.91v-.02l-18.9-.56.34-11.44 31.97.95.07-.17 32.37 21.63-.87 29.26z"/><path fill="#43464a" d="M473.92 554.52v-.22l.36.01.25-.14.04.15 23.01.68.05-.15.24.16h.36v.23c19.39 4.41 32.95 21.92 32.37 41.8l-.51 4.16-20.02-.59.57-6.18c.47-15.79-9.79-28.93-23.02-29.65v-.02l-3.66-.11v.02c-13.24-.06-10.03-10.14-10.03-10.14Z"/><path fill="#116864" d="m420.117 554.788 4.153-140.749 231.37 6.827-4.153 140.748z"/><path fill="#2e3033" d="m424.041 564.323.278-9.416 287.625 8.486-.278 9.416zM521.14 583.72l.19-6.55 148.73 4.4-.19 6.55-5.41-.16-.31 10.64 5.15.15-.19 6.55-148.21-4.39.19-6.55 4.59.14.31-10.64-4.84-.14Zm140.68 4.16-65-1.92-.31 10.64 65 1.92zm-133.52 6.7 65.57 1.94.31-10.64-65.57-1.94z"/><path fill="#383b3e" d="m739.49 523.03 1.47-49.87-42.57-1.26-.98 33.36z"/><path fill="#c1c7cc" d="m679.38 459.08 45.86 1.36c7.56.22 13.75 5.63 15.26 12.71l-42.1-1.25-.99 33.36 42.08 17.77-.97 32.76c0 .16-.14.28-.29.28l-61.66-1.82c-.16 0-.28-.14-.28-.29l2.8-94.58c0-.16.14-.28.29-.28Z"/><path fill="#43464a" d="M771.07 443.93h49.77v111.51h-49.77z" opacity=".65" style="isolation:isolate" transform="rotate(-88.31 795.9 499.694)"/></svg>