<svg xmlns="http://www.w3.org/2000/svg" xml:space="preserve" enable-background="new 0 0 400 760" viewBox="0 0 400 760"><g fill-rule="evenodd" clip-rule="evenodd"><path fill="#d0d4d8" d="M331.8 7.785c27.8 0 50.3 22.5 50.3 50.2v643.2c0 27.7-22.5 50.2-50.3 50.2H59.5c-27.8 0-50.3-22.5-50.3-50.2v-643.2c0-27.7 22.5-50.2 50.3-50.2z"/><path fill="#fff" d="M57.9 26.385h275.4c16.6 0 30.1 13.4 30.1 30v646.3c0 16.6-13.5 30-30.1 30H57.9c-16.6 0-30.1-13.4-30.1-30v-646.2c0-16.6 13.5-30.1 30.1-30.1"/></g><g transform="translate(11.996 23.97)"><path fill="#fff" fill-rule="evenodd" d="M46.1 2.7h276c16.7 0 30.2 13.5 30.2 30.1v646.8c0 16.6-13.5 30.1-30.2 30.1h-276c-16.7 0-30.2-13.5-30.2-30.1V32.7c.1-16.6 13.6-30 30.2-30" clip-rule="evenodd"/><defs><filter id="a" width="308" height="76.9" x="27.9" y="559.9" filterUnits="userSpaceOnUse"><feColorMatrix values="1 0 0 0 0 0 1 0 0 0 0 0 1 0 0 0 0 0 1 0"/></filter></defs><mask id="b" width="308" height="76.9" x="27.9" y="559.9" maskUnits="userSpaceOnUse"><g filter="url(#a)"><path fill="#fff" fill-rule="evenodd" d="M46.1 2.7h276c16.7 0 30.2 13.5 30.2 30.1v646.8c0 16.6-13.5 30.1-30.2 30.1h-276c-16.7 0-30.2-13.5-30.2-30.1V32.7c.1-16.6 13.6-30 30.2-30" clip-rule="evenodd"/></g></mask><g fill-rule="evenodd" clip-rule="evenodd" mask="url(#b)"><path fill="#007bc0" d="M27.934 559.894h308v76.9h-308z"/><path fill="#0096e8" d="M77.534 585.594h203.6v27.3h-203.6z"/></g><defs><filter id="c" width="308" height="46.2" x="29.7" y="189" filterUnits="userSpaceOnUse"><feColorMatrix values="1 0 0 0 0 0 1 0 0 0 0 0 1 0 0 0 0 0 1 0"/></filter></defs><mask id="d" width="308" height="46.2" x="29.7" y="189" maskUnits="userSpaceOnUse"><g filter="url(#c)"><path fill="#fff" fill-rule="evenodd" d="M46.1 2.7h276c16.7 0 30.2 13.5 30.2 30.1v646.8c0 16.6-13.5 30.1-30.2 30.1h-276c-16.7 0-30.2-13.5-30.2-30.1V32.7c.1-16.6 13.6-30 30.2-30" clip-rule="evenodd"/></g></mask><path fill="#e0e2e5" fill-rule="evenodd" d="M29.7 189h308v46.2h-308z" clip-rule="evenodd" mask="url(#d)"/><defs><filter id="e" width="203.6" height="46.2" x="29.7" y="252.2" filterUnits="userSpaceOnUse"><feColorMatrix values="1 0 0 0 0 0 1 0 0 0 0 0 1 0 0 0 0 0 1 0"/></filter></defs><mask id="f" width="203.6" height="46.2" x="29.7" y="252.2" maskUnits="userSpaceOnUse"><g filter="url(#e)"><path fill="#fff" fill-rule="evenodd" d="M46.1 2.7h276c16.7 0 30.2 13.5 30.2 30.1v646.8c0 16.6-13.5 30.1-30.2 30.1h-276c-16.7 0-30.2-13.5-30.2-30.1V32.7c.1-16.6 13.6-30 30.2-30" clip-rule="evenodd"/></g></mask><path fill="#e0e2e5" fill-rule="evenodd" d="M29.7 252.2h203.6v46.2H29.7z" clip-rule="evenodd" mask="url(#f)"/><defs><filter id="g" width="306.3" height="22.2" x="29.7" y="325.7" filterUnits="userSpaceOnUse"><feColorMatrix values="1 0 0 0 0 0 1 0 0 0 0 0 1 0 0 0 0 0 1 0"/></filter></defs><mask id="h" width="306.3" height="22.2" x="29.7" y="325.7" maskUnits="userSpaceOnUse"><g filter="url(#g)"><path fill="#fff" fill-rule="evenodd" d="M46.1 2.7h276c16.7 0 30.2 13.5 30.2 30.1v646.8c0 16.6-13.5 30.1-30.2 30.1h-276c-16.7 0-30.2-13.5-30.2-30.1V32.7c.1-16.6 13.6-30 30.2-30" clip-rule="evenodd"/></g></mask><path fill="#e0e2e5" fill-rule="evenodd" d="M29.7 325.7H336v22.2H29.7z" clip-rule="evenodd" mask="url(#h)"/><defs><filter id="i" width="306.3" height="22.2" x="29.7" y="365" filterUnits="userSpaceOnUse"><feColorMatrix values="1 0 0 0 0 0 1 0 0 0 0 0 1 0 0 0 0 0 1 0"/></filter></defs><mask id="j" width="306.3" height="22.2" x="29.7" y="365" maskUnits="userSpaceOnUse"><g filter="url(#i)"><path fill="#fff" fill-rule="evenodd" d="M46.1 2.7h276c16.7 0 30.2 13.5 30.2 30.1v646.8c0 16.6-13.5 30.1-30.2 30.1h-276c-16.7 0-30.2-13.5-30.2-30.1V32.7c.1-16.6 13.6-30 30.2-30" clip-rule="evenodd"/></g></mask><path fill="#e0e2e5" fill-rule="evenodd" d="M29.7 365H336v22.2H29.7z" clip-rule="evenodd" mask="url(#j)"/><defs><filter id="k" width="306.3" height="22.2" x="29.7" y="406.1" filterUnits="userSpaceOnUse"><feColorMatrix values="1 0 0 0 0 0 1 0 0 0 0 0 1 0 0 0 0 0 1 0"/></filter></defs><mask id="l" width="306.3" height="22.2" x="29.7" y="406.1" maskUnits="userSpaceOnUse"><g filter="url(#k)"><path fill="#fff" fill-rule="evenodd" d="M46.1 2.7h276c16.7 0 30.2 13.5 30.2 30.1v646.8c0 16.6-13.5 30.1-30.2 30.1h-276c-16.7 0-30.2-13.5-30.2-30.1V32.7c.1-16.6 13.6-30 30.2-30" clip-rule="evenodd"/></g></mask><path fill="#e0e2e5" fill-rule="evenodd" d="M29.7 406.1H336v22.2H29.7z" clip-rule="evenodd" mask="url(#l)"/><defs><filter id="m" width="203.6" height="22.2" x="29.7" y="447.1" filterUnits="userSpaceOnUse"><feColorMatrix values="1 0 0 0 0 0 1 0 0 0 0 0 1 0 0 0 0 0 1 0"/></filter></defs><mask id="n" width="203.6" height="22.2" x="29.7" y="447.1" maskUnits="userSpaceOnUse"><g filter="url(#m)"><path fill="#fff" fill-rule="evenodd" d="M46.1 2.7h276c16.7 0 30.2 13.5 30.2 30.1v646.8c0 16.6-13.5 30.1-30.2 30.1h-276c-16.7 0-30.2-13.5-30.2-30.1V32.7c.1-16.6 13.6-30 30.2-30" clip-rule="evenodd"/></g></mask><path fill="#e0e2e5" fill-rule="evenodd" d="M29.7 447.1h203.6v22.2H29.7z" clip-rule="evenodd" mask="url(#n)"/><defs><filter id="o" width="343.9" height="1391.4" x="14.3" y="-230" filterUnits="userSpaceOnUse"><feColorMatrix values="1 0 0 0 0 0 1 0 0 0 0 0 1 0 0 0 0 0 1 0"/></filter></defs><mask id="p" width="343.9" height="1391.4" x="14.3" y="-230" maskUnits="userSpaceOnUse"><g filter="url(#o)"><path fill="#fff" fill-rule="evenodd" d="M46.1 2.7h276c16.7 0 30.2 13.5 30.2 30.1v646.8c0 16.6-13.5 30.1-30.2 30.1h-276c-16.7 0-30.2-13.5-30.2-30.1V32.7c.1-16.6 13.6-30 30.2-30" clip-rule="evenodd"/></g></mask><g mask="url(#p)"><path fill="#eff1f2" fill-rule="evenodd" d="M14.21 2.7h343.9v123.1H14.21z" clip-rule="evenodd"/><g transform="translate(0 78.312)"><defs><filter id="q" width="336.2" height="1391.4" x="16" y="-308.3" filterUnits="userSpaceOnUse"><feColorMatrix values="1 0 0 0 0 0 1 0 0 0 0 0 1 0 0 0 0 0 1 0"/></filter></defs><mask id="r" width="336.2" height="1391.4" x="16" y="-308.3" maskUnits="userSpaceOnUse"><g filter="url(#q)"><path fill="#fff" fill-rule="evenodd" d="M16 47.2h336.3V54H16z" clip-rule="evenodd"/></g></mask><g mask="url(#r)"><g transform="translate(0 -226.627)"><linearGradient id="s" x1="-743.532" x2="-744.836" y1="1089.631" y2="1089.631" gradientTransform="matrix(26.424 0 0 -443.4232 19751.887 484129.344)" gradientUnits="userSpaceOnUse"><stop offset="0" stop-color="#88357f" stop-opacity=".999"/><stop offset="1" stop-color="#8f2540"/></linearGradient><path fill="url(#s)" fill-rule="evenodd" d="M70.4 1309.6h41.4L97.4 614z" clip-rule="evenodd"/><linearGradient id="t" x1="-744.777" x2="-746.053" y1="1090.2" y2="1090.2" gradientTransform="matrix(27.6578 0 0 -443.4324 20704.133 483695.969)" gradientUnits="userSpaceOnUse"><stop offset="0" stop-color="#88357f" stop-opacity=".999"/><stop offset="1" stop-color="#8f2540"/></linearGradient><path fill="url(#t)" fill-rule="evenodd" d="M69.9-81.7 97.4 614l15.9-695.7z" clip-rule="evenodd"/><linearGradient id="u" x1="-735.062" x2="-735.063" y1="1090.933" y2="1089.896" gradientTransform="matrix(20.653 0 0 -886.8557 15347.502 967419.375)" gradientUnits="userSpaceOnUse"><stop offset="0" stop-color="#312a6e"/><stop offset="1" stop-color="#024995"/></linearGradient><path fill="url(#u)" fill-rule="evenodd" d="M161.4-81.7 150 614l10.4 695.6h22V-81.7z" clip-rule="evenodd"/><linearGradient id="v" x1="-740.841" x2="-739.272" y1="1090.15" y2="1090.15" gradientTransform="matrix(23.3502 0 0 -886.8557 17396.144 967419.375)" gradientUnits="userSpaceOnUse"><stop offset="0" stop-color="#6e368c"/><stop offset="1" stop-color="#3a4190"/></linearGradient><path fill="url(#v)" fill-rule="evenodd" d="M113.3-81.7 97.4 614l14.4 695.6L134 614z" clip-rule="evenodd"/><linearGradient id="w" x1="-747.27" x2="-748.839" y1="1090.15" y2="1090.15" gradientTransform="matrix(31.6414 0 0 -886.8557 23806.102 967419.375)" gradientUnits="userSpaceOnUse"><stop offset="0" stop-color="#14387e"/><stop offset="1" stop-color="#5b3885"/></linearGradient><path fill="url(#w)" fill-rule="evenodd" d="M113.3-81.7 134 614l-22.2 695.6h48.6L150 614l11.4-695.7z" clip-rule="evenodd"/><path fill="#af1917" fill-rule="evenodd" d="M41.8-81.7v430.6l16 265.1-16 265v430.6h28.6L60.2 614l9.7-695.7z" clip-rule="evenodd"/><path fill="#931813" fill-rule="evenodd" d="m16-81.7 25.8 430.6V-81.7z" clip-rule="evenodd"/><path fill="#b12638" fill-rule="evenodd" d="m57.8 614-16-265.1V879z" clip-rule="evenodd"/><path fill="#931813" fill-rule="evenodd" d="M16 1309.6h25.8V879z" clip-rule="evenodd"/><path fill="#942331" fill-rule="evenodd" d="M16-81.7v1391.3L41.8 879V348.9z" clip-rule="evenodd"/><path fill="#d51317" fill-rule="evenodd" d="M69.9-81.7 60.2 614l10.2 695.6 27-695.6z" clip-rule="evenodd"/><linearGradient id="x" x1="-743.646" x2="-743.645" y1="1090.918" y2="1089.373" gradientTransform="matrix(28.6341 0 0 -886.8557 21584.02 967419.375)" gradientUnits="userSpaceOnUse"><stop offset="0" stop-color="#00a14b"/><stop offset="1" stop-color="#00937c"/></linearGradient><path fill="url(#x)" fill-rule="evenodd" d="M280.6-81.7c2.6 244.9-1.8 484.6-6.3 757.2-2.7 159.1-5.4 323.6-6.1 456.9-.5 95.9.2 148.8.8 177.2h43.5c2.2-263.3-4.7-521.4-10.8-745.4-4.1-151.2-7.9-294-8.7-417.8-.6-96.1.7-145.2 4.2-228.2h-16.6z" clip-rule="evenodd"/><path fill="#169a39" fill-rule="evenodd" d="M325 639.6c-.7 23.2-1.3 46.1-2 68.5-4.1 140.7-7.9 273.5-8.7 388.7-.6 89.5.7 155.3 4.2 212.8h15.3c2-234.8-3.3-464.2-8.8-670" clip-rule="evenodd"/><linearGradient id="y" x1="-724.475" x2="-724.475" y1="1090.934" y2="1089.365" gradientTransform="matrix(17.3315 0 0 -886.8557 12894.839 967419.375)" gradientUnits="userSpaceOnUse"><stop offset="0" stop-color="#1c893a"/><stop offset="1" stop-color="#699e60"/></linearGradient><path fill="url(#y)" fill-rule="evenodd" d="M332.4-81.7c5 251.2-1.1 501.3-7.4 721.3 5.5 205.8 10.8 435.2 8.8 670h18.4V-81.7z" clip-rule="evenodd"/><linearGradient id="z" x1="-735.904" x2="-735.904" y1="1090.934" y2="1089.365" gradientTransform="matrix(22.1374 0 0 -886.8557 16555.066 967419.375)" gradientUnits="userSpaceOnUse"><stop offset="0" stop-color="#00b5dd"/><stop offset="1" stop-color="#008aae"/></linearGradient><path fill="url(#z)" fill-rule="evenodd" d="M247.7-81.7c-.7 51.8-1.3 87.1-.8 190 .7 143.3 3.5 320.1 6.1 491.1 3.9 251.7 7.7 494.2 7 710.3h8.9c-.7-28.5-1.3-81.3-.8-177.2.7-133.3 3.5-297.8 6.1-456.9 4.6-272.7 9-512.3 6.3-757.2h-32.8z" clip-rule="evenodd"/><path fill="#283587" fill-rule="evenodd" d="M182.4-81.7h8.3v1391.3h-8.3z" clip-rule="evenodd"/><linearGradient id="A" x1="-708.273" x2="-708.271" y1="1089.747" y2="1090.552" gradientTransform="matrix(12.8071 0 0 -459.7746 9395.083 501523.375)" gradientUnits="userSpaceOnUse"><stop offset="0" stop-color="#62b16e"/><stop offset="1" stop-color="#85b856"/></linearGradient><path fill="url(#A)" fill-rule="evenodd" d="M318.4-81.7c-3.5 61.8-4.8 133.7-4.2 229.8.8 123.8 4.7 266.6 8.7 417.8.7 24.2 1.3 48.8 2 73.7 6.3-220 12.4-470.1 7.4-721.3z" clip-rule="evenodd"/><linearGradient id="B" x1="-739.562" x2="-739.561" y1="1090.899" y2="1089.348" gradientTransform="matrix(24.4105 0 0 -886.8557 18294.023 967419.375)" gradientUnits="userSpaceOnUse"><stop offset="0" stop-color="#009ad4"/><stop offset="1" stop-color="#5bafbf"/></linearGradient><path fill="url(#B)" fill-rule="evenodd" d="M228.4-81.7c.7 182.3-.7 387.2-3.2 729.9-1.5 197.6-3.7 501.8-3.3 661.4H260c.7-216.1-3.1-458.6-7-710.3-2.7-171-5.4-347.8-6.1-491.1-.5-102.9.2-138.2.8-190h-19.3z" clip-rule="evenodd"/><linearGradient id="C" x1="-725.984" x2="-725.984" y1="1090.934" y2="1089.365" gradientTransform="matrix(16.767 0 0 -886.8557 12368.172 967419.375)" gradientUnits="userSpaceOnUse"><stop offset="0" stop-color="#174290"/><stop offset="1" stop-color="#3179b8"/></linearGradient><path fill="url(#C)" fill-rule="evenodd" d="m182.4-81.7 8.3 695.7-8.3 695.6h26.3l.1-1391.3z" clip-rule="evenodd"/><linearGradient id="D" x1="-710.482" x2="-710.482" y1="1089.365" y2="1090.934" gradientTransform="matrix(12.644 0 0 -886.8557 9201.977 967419.375)" gradientUnits="userSpaceOnUse"><stop offset="0" stop-color="#3d9ac8"/><stop offset="1" stop-color="#1c60a1"/></linearGradient><path fill="url(#D)" fill-rule="evenodd" d="M208.8-81.7v1391.4h13.1c-.5-159.7 1.8-463.8 3.3-661.4 2.5-342.7 3.9-547.6 3.2-729.9h-19.6z" clip-rule="evenodd"/><linearGradient id="E" x1="-732.331" x2="-732.331" y1="1090.934" y2="1089.365" gradientTransform="matrix(20.5332 0 0 -886.8557 15346.01 967419.375)" gradientUnits="userSpaceOnUse"><stop offset="0" stop-color="#83ba77"/><stop offset="1" stop-color="#93bc54"/></linearGradient><path fill="url(#E)" fill-rule="evenodd" d="M297.1-81.7c-3.5 83-4.8 132-4.2 228.2.8 123.8 4.7 266.6 8.7 417.8 6 223.9 13 482.1 10.8 745.4h6c-3.5-57.5-4.8-123.2-4.2-212.8.8-115.2 4.7-248.1 8.7-388.7.7-22.5 1.3-45.4 2-68.5-.7-24.9-1.3-49.5-2-73.7-4.1-151.2-7.9-294-8.7-417.8-.6-96.1.7-168.1 4.2-229.8h-21.3z" clip-rule="evenodd"/></g></g></g><path fill="#a4abb3" fill-rule="evenodd" d="M36.51 21.5h87.3v13.7h-87.3zM241.81 21.5h87.3v13.7h-87.3z" clip-rule="evenodd"/><path fill="#c1c7cc" fill-rule="evenodd" d="M293.11 62.5h35.9v35.9h-35.9zM238.41 62.5h35.9v35.9h-35.9zM183.61 62.5h35.9v35.9h-35.9z" clip-rule="evenodd"/><g fill="#c1c7cc" fill-rule="evenodd" clip-rule="evenodd"><path d="M36.487 62.534h41.1v8.5h-41.1zM36.487 76.134h41.1v8.5h-41.1zM36.487 89.834h41.1v8.5h-41.1z"/></g></g></g><defs><filter id="F" width="371.3" height="1391.4" x="17.7" y="-206.1" filterUnits="userSpaceOnUse"><feColorMatrix values="1 0 0 0 0 0 1 0 0 0 0 0 1 0 0 0 0 0 1 0"/></filter></defs><mask id="G" width="371.3" height="1391.4" x="17.7" y="-206.1" maskUnits="userSpaceOnUse"><g filter="url(#F)"><path fill="#fff" fill-rule="evenodd" d="M195.6-11h229.3v801.7H195.6z" clip-rule="evenodd"/></g></mask><g mask="url(#G)"><g fill-rule="evenodd" clip-rule="evenodd"><path fill="#d0d4d8" d="M338.853 7.785c27.7 0 50.1 22.5 50.1 50.2v643.2c0 27.7-22.4 50.2-50.1 50.2h-271.1c-27.7 0-50.1-22.5-50.1-50.2v-643.2c0-27.7 22.4-50.2 50.1-50.2z"/><path fill="#fff" d="M66.253 26.385h274.2c16.6 0 30 13.4 30 30v646.3c0 16.6-13.4 30-30 30h-274.2c-16.6 0-30-13.4-30-30v-646.2c0-16.6 13.4-30.1 30-30.1"/></g><g transform="translate(17.449 23.97)"><path fill="#383b3e" fill-rule="evenodd" d="M49.1 2.7h274.5c16.6 0 30 13.5 30 30.1v646.8c0 16.6-13.4 30.1-30 30.1H49.1c-16.6 0-30-13.5-30-30.1V32.7c0-16.6 13.4-30 30-30" clip-rule="evenodd"/><defs><filter id="H" width="308" height="46.2" x="36.2" y="189" filterUnits="userSpaceOnUse"><feColorMatrix values="1 0 0 0 0 0 1 0 0 0 0 0 1 0 0 0 0 0 1 0"/></filter></defs><mask id="I" width="308" height="46.2" x="36.2" y="189" maskUnits="userSpaceOnUse"><g filter="url(#H)"><path fill="#fff" fill-rule="evenodd" d="M49.1 2.7h274.5c16.6 0 30 13.5 30 30.1v646.8c0 16.6-13.4 30.1-30 30.1H49.1c-16.6 0-30-13.5-30-30.1V32.7c0-16.6 13.4-30 30-30" clip-rule="evenodd"/></g></mask><path fill="#7d8389" fill-rule="evenodd" d="M36.2 189h308v46.2h-308z" clip-rule="evenodd" mask="url(#I)"/><defs><filter id="J" width="203.6" height="46.2" x="36.2" y="252.2" filterUnits="userSpaceOnUse"><feColorMatrix values="1 0 0 0 0 0 1 0 0 0 0 0 1 0 0 0 0 0 1 0"/></filter></defs><mask id="K" width="203.6" height="46.2" x="36.2" y="252.2" maskUnits="userSpaceOnUse"><g filter="url(#J)"><path fill="#fff" fill-rule="evenodd" d="M49.1 2.7h274.5c16.6 0 30 13.5 30 30.1v646.8c0 16.6-13.4 30.1-30 30.1H49.1c-16.6 0-30-13.5-30-30.1V32.7c0-16.6 13.4-30 30-30" clip-rule="evenodd"/></g></mask><path fill="#7d8389" fill-rule="evenodd" d="M36.2 252.2h203.6v46.2H36.2z" clip-rule="evenodd" mask="url(#K)"/><defs><filter id="L" width="306.3" height="22.2" x="36.2" y="325.7" filterUnits="userSpaceOnUse"><feColorMatrix values="1 0 0 0 0 0 1 0 0 0 0 0 1 0 0 0 0 0 1 0"/></filter></defs><mask id="M" width="306.3" height="22.2" x="36.2" y="325.7" maskUnits="userSpaceOnUse"><g filter="url(#L)"><path fill="#fff" fill-rule="evenodd" d="M49.1 2.7h274.5c16.6 0 30 13.5 30 30.1v646.8c0 16.6-13.4 30.1-30 30.1H49.1c-16.6 0-30-13.5-30-30.1V32.7c0-16.6 13.4-30 30-30" clip-rule="evenodd"/></g></mask><path fill="#7d8389" fill-rule="evenodd" d="M36.2 325.7h306.3v22.2H36.2z" clip-rule="evenodd" mask="url(#M)"/><defs><filter id="N" width="306.3" height="22.2" x="36.2" y="365" filterUnits="userSpaceOnUse"><feColorMatrix values="1 0 0 0 0 0 1 0 0 0 0 0 1 0 0 0 0 0 1 0"/></filter></defs><mask id="O" width="306.3" height="22.2" x="36.2" y="365" maskUnits="userSpaceOnUse"><g filter="url(#N)"><path fill="#fff" fill-rule="evenodd" d="M49.1 2.7h274.5c16.6 0 30 13.5 30 30.1v646.8c0 16.6-13.4 30.1-30 30.1H49.1c-16.6 0-30-13.5-30-30.1V32.7c0-16.6 13.4-30 30-30" clip-rule="evenodd"/></g></mask><path fill="#7d8389" fill-rule="evenodd" d="M36.2 365h306.3v22.2H36.2z" clip-rule="evenodd" mask="url(#O)"/><defs><filter id="P" width="306.3" height="22.2" x="36.2" y="406.1" filterUnits="userSpaceOnUse"><feColorMatrix values="1 0 0 0 0 0 1 0 0 0 0 0 1 0 0 0 0 0 1 0"/></filter></defs><mask id="Q" width="306.3" height="22.2" x="36.2" y="406.1" maskUnits="userSpaceOnUse"><g filter="url(#P)"><path fill="#fff" fill-rule="evenodd" d="M49.1 2.7h274.5c16.6 0 30 13.5 30 30.1v646.8c0 16.6-13.4 30.1-30 30.1H49.1c-16.6 0-30-13.5-30-30.1V32.7c0-16.6 13.4-30 30-30" clip-rule="evenodd"/></g></mask><path fill="#7d8389" fill-rule="evenodd" d="M36.2 406.1h306.3v22.2H36.2z" clip-rule="evenodd" mask="url(#Q)"/><defs><filter id="R" width="203.6" height="22.2" x="36.2" y="447.1" filterUnits="userSpaceOnUse"><feColorMatrix values="1 0 0 0 0 0 1 0 0 0 0 0 1 0 0 0 0 0 1 0"/></filter></defs><mask id="S" width="203.6" height="22.2" x="36.2" y="447.1" maskUnits="userSpaceOnUse"><g filter="url(#R)"><path fill="#fff" fill-rule="evenodd" d="M49.1 2.7h274.5c16.6 0 30 13.5 30 30.1v646.8c0 16.6-13.4 30.1-30 30.1H49.1c-16.6 0-30-13.5-30-30.1V32.7c0-16.6 13.4-30 30-30" clip-rule="evenodd"/></g></mask><path fill="#7d8389" fill-rule="evenodd" d="M36.2 447.1h203.6v22.2H36.2z" clip-rule="evenodd" mask="url(#S)"/><defs><filter id="T" width="343.9" height="1391.4" x="10.5" y="-230" filterUnits="userSpaceOnUse"><feColorMatrix values="1 0 0 0 0 0 1 0 0 0 0 0 1 0 0 0 0 0 1 0"/></filter></defs><mask id="U" width="343.9" height="1391.4" x="10.5" y="-230" maskUnits="userSpaceOnUse"><g filter="url(#T)"><path fill="#fff" fill-rule="evenodd" d="M49.1 2.7h274.5c16.6 0 30 13.5 30 30.1v646.8c0 16.6-13.4 30.1-30 30.1H49.1c-16.6 0-30-13.5-30-30.1V32.7c0-16.6 13.4-30 30-30" clip-rule="evenodd"/></g></mask><g mask="url(#U)"><path fill="#383b3e" fill-rule="evenodd" d="M10.547 2.7h343.9v123.1h-343.9z" clip-rule="evenodd"/><path fill="#71767c" fill-rule="evenodd" d="M10.547 2.7h343.9v44.4h-343.9z" clip-rule="evenodd"/><g transform="translate(-1.091 78.312)"><defs><filter id="V" width="336.2" height="1391.4" x="18.4" y="-308.3" filterUnits="userSpaceOnUse"><feColorMatrix values="1 0 0 0 0 0 1 0 0 0 0 0 1 0 0 0 0 0 1 0"/></filter></defs><mask id="W" width="336.2" height="1391.4" x="18.4" y="-308.3" maskUnits="userSpaceOnUse"><g filter="url(#V)"><path fill="#fff" fill-rule="evenodd" d="M18.4 47.2h336.3V54H18.4z" clip-rule="evenodd"/></g></mask><g mask="url(#W)"><g transform="translate(0 -226.627)"><linearGradient id="X" x1="-747.8" x2="-749.104" y1="1089.631" y2="1089.631" gradientTransform="matrix(26.424 0 0 -443.4232 19867.152 484129.344)" gradientUnits="userSpaceOnUse"><stop offset="0" stop-color="#88357f" stop-opacity=".999"/><stop offset="1" stop-color="#8f2540"/></linearGradient><path fill="url(#X)" fill-rule="evenodd" d="M72.8 1309.6h41.5L99.9 614z" clip-rule="evenodd"/><linearGradient id="Y" x1="-749.049" x2="-750.325" y1="1090.2" y2="1090.2" gradientTransform="matrix(27.6578 0 0 -443.4324 20824.78 483695.969)" gradientUnits="userSpaceOnUse"><stop offset="0" stop-color="#88357f" stop-opacity=".999"/><stop offset="1" stop-color="#8f2540"/></linearGradient><path fill="url(#Y)" fill-rule="evenodd" d="M72.4-81.7 99.9 614l15.9-695.7z" clip-rule="evenodd"/><linearGradient id="Z" x1="-739.304" x2="-739.305" y1="1090.933" y2="1089.896" gradientTransform="matrix(20.653 0 0 -886.8557 15437.594 967419.375)" gradientUnits="userSpaceOnUse"><stop offset="0" stop-color="#312a6e"/><stop offset="1" stop-color="#024995"/></linearGradient><path fill="url(#Z)" fill-rule="evenodd" d="M163.9-81.7 152.5 614l10.4 695.6h22V-81.7z" clip-rule="evenodd"/><linearGradient id="aa" x1="-745.096" x2="-743.528" y1="1090.15" y2="1090.15" gradientTransform="matrix(23.3502 0 0 -886.8557 17498.002 967419.375)" gradientUnits="userSpaceOnUse"><stop offset="0" stop-color="#6e368c"/><stop offset="1" stop-color="#3a4190"/></linearGradient><path fill="url(#aa)" fill-rule="evenodd" d="M115.8-81.7 99.9 614l14.4 695.6L136.5 614z" clip-rule="evenodd"/><linearGradient id="ab" x1="-751.554" x2="-753.123" y1="1090.15" y2="1090.15" gradientTransform="matrix(31.6414 0 0 -886.8557 23944.125 967419.375)" gradientUnits="userSpaceOnUse"><stop offset="0" stop-color="#14387e"/><stop offset="1" stop-color="#5b3885"/></linearGradient><path fill="url(#ab)" fill-rule="evenodd" d="M115.8-81.7 136.5 614l-22.2 695.6h48.6L152.5 614l11.4-695.7z" clip-rule="evenodd"/><path fill="#af1917" fill-rule="evenodd" d="M44.3-81.7v430.6L60.2 614 44.3 879v430.6h28.5L62.7 614l9.7-695.7z" clip-rule="evenodd"/><path fill="#931813" fill-rule="evenodd" d="m18.4-81.7 25.9 430.6V-81.7z" clip-rule="evenodd"/><path fill="#b12638" fill-rule="evenodd" d="M60.2 614 44.3 348.9V879z" clip-rule="evenodd"/><path fill="#931813" fill-rule="evenodd" d="M18.4 1309.6h25.9V879z" clip-rule="evenodd"/><path fill="#942331" fill-rule="evenodd" d="M18.4-81.7v1391.3L44.3 879V348.9z" clip-rule="evenodd"/><path fill="#d51317" fill-rule="evenodd" d="M72.4-81.7 62.7 614l10.1 695.6L99.9 614z" clip-rule="evenodd"/><linearGradient id="ac" x1="-747.922" x2="-747.92" y1="1090.918" y2="1089.373" gradientTransform="matrix(28.6341 0 0 -886.8557 21708.924 967419.375)" gradientUnits="userSpaceOnUse"><stop offset="0" stop-color="#00a14b"/><stop offset="1" stop-color="#00937c"/></linearGradient><path fill="url(#ac)" fill-rule="evenodd" d="M283.1-81.7c2.6 244.9-1.8 484.6-6.3 757.2-2.7 159.1-5.4 323.6-6.1 456.9-.5 95.9.2 148.8.8 177.2H315c2.2-263.3-4.7-521.4-10.8-745.4-4.1-151.2-7.9-294-8.7-417.8-.6-96.1.7-145.2 4.2-228.2h-16.6z" clip-rule="evenodd"/><path fill="#169a39" fill-rule="evenodd" d="M327.5 639.6c-.7 23.2-1.3 46.1-2 68.5-4.1 140.7-7.9 273.5-8.7 388.7-.6 89.5.7 155.3 4.2 212.8h15.3c2-234.8-3.4-464.2-8.8-670" clip-rule="evenodd"/><linearGradient id="ad" x1="-728.694" x2="-728.694" y1="1090.934" y2="1089.365" gradientTransform="matrix(17.3315 0 0 -886.8557 12970.441 967419.375)" gradientUnits="userSpaceOnUse"><stop offset="0" stop-color="#1c893a"/><stop offset="1" stop-color="#699e60"/></linearGradient><path fill="url(#ad)" fill-rule="evenodd" d="M334.9-81.7c5 251.2-1.1 501.3-7.4 721.3 5.5 205.8 10.8 435.2 8.8 670h18.4V-81.7z" clip-rule="evenodd"/><linearGradient id="ae" x1="-740.154" x2="-740.154" y1="1090.934" y2="1089.365" gradientTransform="matrix(22.1374 0 0 -886.8557 16651.633 967419.375)" gradientUnits="userSpaceOnUse"><stop offset="0" stop-color="#00b5dd"/><stop offset="1" stop-color="#008aae"/></linearGradient><path fill="url(#ae)" fill-rule="evenodd" d="M250.2-81.7c-.7 51.8-1.3 87.1-.8 190 .7 143.3 3.5 320.1 6.1 491.1 3.9 251.7 7.7 494.2 7 710.3h8.9c-.7-28.5-1.3-81.3-.8-177.2.7-133.3 3.5-297.8 6.1-456.9 4.6-272.7 9-512.3 6.3-757.2h-32.8z" clip-rule="evenodd"/><path fill="#283587" fill-rule="evenodd" d="M184.9-81.7h8.3v1391.3h-8.3z" clip-rule="evenodd"/><linearGradient id="af" x1="-712.441" x2="-712.44" y1="1089.747" y2="1090.552" gradientTransform="matrix(12.8071 0 0 -459.7746 9450.95 501523.375)" gradientUnits="userSpaceOnUse"><stop offset="0" stop-color="#62b16e"/><stop offset="1" stop-color="#85b856"/></linearGradient><path fill="url(#af)" fill-rule="evenodd" d="M320.9-81.7c-3.5 61.8-4.8 133.7-4.2 229.8.8 123.8 4.7 266.6 8.7 417.8.7 24.2 1.3 48.8 2 73.7 6.3-220 12.4-470.1 7.4-721.3z" clip-rule="evenodd"/><linearGradient id="ag" x1="-743.823" x2="-743.821" y1="1090.899" y2="1089.348" gradientTransform="matrix(24.4105 0 0 -886.8557 18400.504 967419.375)" gradientUnits="userSpaceOnUse"><stop offset="0" stop-color="#009ad4"/><stop offset="1" stop-color="#5bafbf"/></linearGradient><path fill="url(#ag)" fill-rule="evenodd" d="M230.9-81.7c.7 182.3-.7 387.2-3.2 729.9-1.5 197.6-3.7 501.8-3.3 661.4h38.2c.7-216.1-3.1-458.6-7-710.3-2.7-171-5.4-347.8-6.1-491.1-.5-102.9.2-138.2.8-190h-19.4z" clip-rule="evenodd"/><linearGradient id="ah" x1="-730.198" x2="-730.198" y1="1090.934" y2="1089.365" gradientTransform="matrix(16.767 0 0 -886.8557 12441.311 967419.375)" gradientUnits="userSpaceOnUse"><stop offset="0" stop-color="#174290"/><stop offset="1" stop-color="#3179b8"/></linearGradient><path fill="url(#ah)" fill-rule="evenodd" d="m184.9-81.7 8.3 695.7-8.3 695.6h26.3V-81.7z" clip-rule="evenodd"/><linearGradient id="ai" x1="-714.648" x2="-714.648" y1="1089.365" y2="1090.934" gradientTransform="matrix(12.644 0 0 -886.8557 9257.13 967419.375)" gradientUnits="userSpaceOnUse"><stop offset="0" stop-color="#3d9ac8"/><stop offset="1" stop-color="#1c60a1"/></linearGradient><path fill="url(#ai)" fill-rule="evenodd" d="M211.2-81.7v1391.4h13.1c-.5-159.7 1.8-463.8 3.3-661.4 2.5-342.7 3.9-547.6 3.2-729.9h-19.6z" clip-rule="evenodd"/><linearGradient id="aj" x1="-736.572" x2="-736.572" y1="1090.934" y2="1089.365" gradientTransform="matrix(20.5332 0 0 -886.8557 15435.578 967419.375)" gradientUnits="userSpaceOnUse"><stop offset="0" stop-color="#83ba77"/><stop offset="1" stop-color="#93bc54"/></linearGradient><path fill="url(#aj)" fill-rule="evenodd" d="M299.6-81.7c-3.5 83-4.8 132-4.2 228.2.8 123.8 4.7 266.6 8.7 417.8 6 223.9 13 482.1 10.8 745.4h6c-3.5-57.5-4.8-123.2-4.2-212.8.8-115.2 4.7-248.1 8.7-388.7.7-22.5 1.3-45.4 2-68.5-.7-24.9-1.3-49.5-2-73.7-4.1-151.2-7.9-294-8.7-417.8-.6-96.1.7-168.1 4.2-229.8h-21.3z" clip-rule="evenodd"/></g></g></g><path fill="#a4abb3" fill-rule="evenodd" d="M32.747 21.5h87.3v13.7h-87.3zM238.047 21.5h87.3v13.7h-87.3z" clip-rule="evenodd"/><path fill="#595e62" fill-rule="evenodd" d="M289.347 62.5h35.9v35.9h-35.9zM234.647 62.5h35.9v35.9h-35.9zM179.847 62.5h35.9v35.9h-35.9z" clip-rule="evenodd"/><g fill-rule="evenodd" clip-rule="evenodd"><path fill="#0096e8" d="M34.414 559.894h308v76.9h-308z"/><path fill="#9dc9ff" d="M84.114 585.594h203.6v27.3h-203.6z"/></g><g fill="#595e62" fill-rule="evenodd" clip-rule="evenodd"><path d="M32.724 62.534h41.1v8.5h-41.1zM32.724 76.134h41.1v8.5h-41.1zM32.724 89.834h41.1v8.5h-41.1z"/></g></g></g></g></svg>