<svg xmlns="http://www.w3.org/2000/svg" enable-background="new 0 0 719 600" viewBox="0 0 719 600"><g fill-rule="evenodd" clip-rule="evenodd"><path fill="#d0d4d8" d="M266.8 566.1V30.8c0-12.9 10.5-23.3 23.4-23.3h400c12.9 0 23.4 10.4 23.4 23.3v535.3c0 12.9-10.5 23.3-23.4 23.3h-400c-13 0-23.4-10.4-23.4-23.3"/><path fill="#595e62" d="M490.2 19.8c-1.9 0-3.4-1.5-3.4-3.4s1.5-3.4 3.4-3.4 3.4 1.5 3.4 3.4-1.6 3.4-3.4 3.4M504.2 18.7c-.9 0-1.7-.8-1.7-1.7s.8-1.7 1.7-1.7 1.7.8 1.7 1.7-.8 1.7-1.7 1.7"/></g><g transform="translate(13.573 13.025)"><path fill="#fff" fill-rule="evenodd" d="M272.3 550.7V21.3c0-4.3 3.5-7.8 7.8-7.8h394.1c4.3 0 7.8 3.5 7.8 7.8v529.4c0 4.3-3.5 7.8-7.8 7.8H280.1c-4.3 0-7.8-3.5-7.8-7.8" clip-rule="evenodd"/><defs><filter id="a" width="339.2" height="501.9" x="307" y="115.8" filterUnits="userSpaceOnUse"><feColorMatrix values="1 0 0 0 0 0 1 0 0 0 0 0 1 0 0 0 0 0 1 0"/></filter></defs><mask id="b" width="339.2" height="501.9" x="307" y="115.8" maskUnits="userSpaceOnUse"><g filter="url(#a)"><path fill="#fff" fill-rule="evenodd" d="M272.3 550.7V21.3c0-4.3 3.5-7.8 7.8-7.8h394.1c4.3 0 7.8 3.5 7.8 7.8v529.4c0 4.3-3.5 7.8-7.8 7.8H280.1c-4.3 0-7.8-3.5-7.8-7.8" clip-rule="evenodd"/></g></mask><g fill-rule="evenodd" clip-rule="evenodd" mask="url(#b)"><g transform="rotate(-90 173.2 98.774)"><path fill="#d1e4ff" d="M51.396 571.796v-339.2h104.8v339.2z"/><path fill="#007bc0" d="m76.8 342.9 29.4 28.9-29.4 29.4z"/><path fill="#9dc9ff" d="m76.8 372 43.3 35.9-43.3 36.3z"/><ellipse cx="123.6" cy="351.9" fill="#fff" rx="9" ry="9.1" transform="rotate(-90 123.627 351.883)"/></g><path fill="#8a9097" d="M440.712 262.026h-133.8v-27.6h133.8z"/><path fill="#c1c7cc" d="M646.174 499.126h-339.2v-104.8h339.2z"/><path fill="#8a9097" d="M460.054 441.294h-133.8v-27.6h133.8z"/><path fill="#c1c7cc" d="M646.164 380.536h-339.2v-104.8h339.2z"/><path fill="#8a9097" d="M460.043 322.705h-133.8v-27.6h133.8z"/><path fill="#c1c7cc" d="M646.185 617.715h-339.2v-104.8h339.2z"/><path fill="#8a9097" d="M460.064 559.884h-133.8v-27.6h133.8z"/></g><defs><filter id="c" width="411.3" height="93.6" x="270.5" y="6.4" filterUnits="userSpaceOnUse"><feColorMatrix values="1 0 0 0 0 0 1 0 0 0 0 0 1 0 0 0 0 0 1 0"/></filter></defs><mask id="d" width="411.3" height="93.6" x="270.5" y="6.4" maskUnits="userSpaceOnUse"><g filter="url(#c)"><path fill="#fff" fill-rule="evenodd" d="M272.3 550.7V21.3c0-4.3 3.5-7.8 7.8-7.8h394.1c4.3 0 7.8 3.5 7.8 7.8v529.4c0 4.3-3.5 7.8-7.8 7.8H280.1c-4.3 0-7.8-3.5-7.8-7.8" clip-rule="evenodd"/></g></mask><g fill-rule="evenodd" clip-rule="evenodd" mask="url(#d)"><g fill="#007bc0" transform="translate(27.103 129.404)"><ellipse cx="302.3" cy="-53.7" rx="24.4" ry="24.3"/><path d="M342-62.8h134.3v19.3H342z"/></g><path fill="#a4abb3" d="M270.472 6.38h411.3v33.6h-411.3z"/></g></g><g fill-rule="evenodd" clip-rule="evenodd"><path fill="#fff" d="M202.393 578.363h-166.4c-9.6 0-17.4-7.8-17.4-17.4v-393.8c0-9.6 7.8-17.4 17.4-17.4h166.4c9.6 0 17.4 7.8 17.4 17.4v393.9c-.1 9.6-7.8 17.3-17.4 17.3"/><path fill="#8a9097" d="M33.693 410.163h118.6v27.6h-118.6z"/><path fill="#d1e4ff" d="M33.693 263.963h171v131h-171z"/><g transform="translate(38.612 108.799)"><path fill="#007bc0" d="m22 252.3 33.3-33.6L89 252.3z"/><path fill="#9dc9ff" d="m55.5 252.3 41.2-49.6 41.7 49.6z"/><circle cx="32.4" cy="198.7" r="10.4" fill="#fff"/></g><path fill="#c1c7cc" d="M33.693 458.463h171v104.8h-171z"/><path fill="#8a9097" d="M55.893 480.563h95v27.6h-95z"/><g fill="#007bc0" transform="translate(19.043 37.833)"><ellipse cx="38.7" cy="185.8" rx="24.1" ry="24.3"/><path d="M76.8 175.6h105.9v19.3H76.8z"/></g><path fill="#a4abb3" d="M18.693 147.063h201.1v33.6h-201.1z"/><path fill="#d0d4d8" d="M200.8 138.5H37.7c-16.6 0-30.1 13.6-30.1 30.4V559c0 16.8 13.5 30.4 30.1 30.4h163.1c16.6 0 30.1-13.6 30.1-30.4V168.9c0-16.8-13.5-30.4-30.1-30.4m18.9 421.4c0 10.1-8.1 18.2-18 18.2h-165c-10 0-18-8.2-18-18.2V168c0-10.1 8.1-18.2 18-18.2h165c10 0 18 8.2 18 18.2z"/></g></svg>