<svg xmlns="http://www.w3.org/2000/svg" xml:space="preserve" enable-background="new 0 0 702 663" viewBox="0 0 702 663"><path fill="#fff" fill-rule="evenodd" d="M469 87c17.7 0 32 14.3 32 31.9v409.2c0 17.6-14.3 31.9-32 31.9H296c-17.7 0-32-14.3-32-31.9V118.9c0-17.6 14.3-31.9 32-31.9z" clip-rule="evenodd"/><path fill="#fff" fill-rule="evenodd" stroke="#c1c7cc" stroke-width="1.305" d="M469 86.3c9 0 17.2 3.6 23.1 9.5s9.6 14 9.6 23V528c0 9-3.7 17.1-9.6 23s-14.1 9.5-23.1 9.5H296c-9 0-17.2-3.6-23.1-9.5s-9.6-14-9.6-23V118.9c0-9 3.7-17.1 9.6-23s14.1-9.5 23.1-9.5h173z" clip-rule="evenodd"/><path fill="#a4abb3" fill-rule="evenodd" d="M295 98.8h175c10.6 0 19.1 8.6 19.1 19.1V529c0 10.5-8.6 19.1-19.1 19.1H295c-10.6 0-19.1-8.6-19.1-19.1V117.9c0-10.5 8.5-19.1 19.1-19.1" clip-rule="evenodd"/><path fill="none" stroke="#c1c7cc" stroke-width="1.305" d="M470 98.2c5.5 0 10.4 2.2 14 5.8s5.8 8.5 5.8 14v411.1c0 5.5-2.2 10.4-5.8 14s-8.5 5.8-14 5.8H295c-5.5 0-10.4-2.2-14-5.8s-5.8-8.5-5.8-14V117.9c0-5.5 2.2-10.4 5.8-14s8.5-5.8 14-5.8h175z"/><path fill="#007bc0" fill-rule="evenodd" d="M403 440h193v53H403z" clip-rule="evenodd"/><path fill="#fff" fill-opacity=".47" fill-rule="evenodd" d="M433.6 457.2h127.8v19.2H433.6z" clip-rule="evenodd"/><path fill="#fff" fill-rule="evenodd" d="M125 386.1h192v53.2H125z" clip-rule="evenodd"/><path fill="#c1c7cc" fill-rule="evenodd" d="M134.3 396.8h62.1v10.6h-62.1zM134.4 412.7h109.3v16H134.4z" clip-rule="evenodd"/><path fill="#d1e4ff" fill-rule="evenodd" d="M125 279h192v107.8H125z" clip-rule="evenodd"/><path fill="#007bc0" fill-rule="evenodd" d="m171.6 359.5 28.6-28.7 29 28.7z" clip-rule="evenodd"/><path fill="#9dc9ff" fill-rule="evenodd" d="m200.4 359.5 35.5-42.3 35.8 42.3z" clip-rule="evenodd"/><circle cx="180.5" cy="313.8" r="8.9" fill="#fff" fill-rule="evenodd" clip-rule="evenodd"/><path fill="#e0e2e5" fill-rule="evenodd" d="M317.1 159h279v80h-279z" clip-rule="evenodd"/><path fill="#c1c7cc" fill-rule="evenodd" d="M337 174.3h119.6v20H337z" clip-rule="evenodd"/><path fill="#fff" fill-rule="evenodd" d="M536.2 179.7h39.9V219h-39.9z" clip-rule="evenodd"/><path fill="#c1c7cc" fill-rule="evenodd" d="M337 204.3h159.4v20H337z" clip-rule="evenodd"/><path fill="#007bc0" fill-rule="evenodd" d="M317 235h279v4H317z" clip-rule="evenodd"/><path fill="#fff" fill-rule="evenodd" stroke="#c1c7cc" stroke-width=".5" d="M158.3 210H92.7c-10.3 0-18.7-8.4-18.7-18.8v-7.1h103v7.1c0 10.4-8.4 18.8-18.7 18.8" clip-rule="evenodd"/><g transform="translate(17.135 1.706)"><path fill="#ed0007" fill-rule="evenodd" d="M105 195.5s1-.4 1-1.5c0-1.4-1-2.1-2.3-2.1h-3.5v7.5h3.9c1.2 0 2.3-.8 2.3-2.1 0-1.5-1.4-1.8-1.4-1.8m-2.9-2h1.4c.4 0 .7.3.7.7 0 .3-.3.7-.7.7H102zm1.3 4.3H102v-1.5h1.3c.7 0 1 .3 1 .7.1.6-.3.8-.9.8m7.1-6.1c-2.2 0-3.5 1.7-3.5 3.9s1.3 3.9 3.5 3.9 3.5-1.7 3.5-3.9c0-2.1-1.3-3.9-3.5-3.9m0 6.1c-1.1 0-1.6-1-1.6-2.1 0-1.2.5-2.1 1.6-2.1s1.6 1 1.6 2.1-.5 2.1-1.6 2.1m7.5-2.9-.3-.1c-.6-.1-1.2-.3-1.2-.8s.5-.7.9-.7c.6 0 1.2.3 1.5.7l1.2-1.2c-.5-.6-1.4-1.2-2.8-1.2-1.6 0-2.8.9-2.8 2.4 0 1.3 1 2 2.2 2.2l.3.1c1 .2 1.4.4 1.4.8s-.4.7-1 .7c-.7 0-1.4-.3-1.9-1l-1.2 1.2c.7.8 1.5 1.4 3.1 1.4 1.4 0 2.9-.8 2.9-2.4.1-1.6-1.2-1.9-2.3-2.1m6.6 2.9c-.8 0-1.7-.7-1.7-2.2 0-1.3.8-2.1 1.6-2.1.7 0 1.1.3 1.4.8l1.5-1c-.8-1.1-1.7-1.6-2.9-1.6-2.3 0-3.5 1.8-3.5 3.9 0 2.2 1.4 4 3.5 4 1.5 0 2.2-.5 3-1.6l-1.5-1c-.4.4-.7.8-1.4.8m7.8-5.9v2.8h-2.3v-2.8h-2v7.5h2v-3h2.3v3h2v-7.5z" clip-rule="evenodd"/><defs><filter id="a" width="35.1" height="8.5" x="99.7" y="191.4" filterUnits="userSpaceOnUse"><feColorMatrix values="1 0 0 0 0 0 1 0 0 0 0 0 1 0 0 0 0 0 1 0"/></filter></defs><mask id="b" width="35.1" height="8.5" x="99.7" y="191.4" maskUnits="userSpaceOnUse"><g filter="url(#a)"><path fill="#fff" fill-rule="evenodd" d="M105 195.5s1-.4 1-1.5c0-1.4-1-2.1-2.3-2.1h-3.5v7.5h3.9c1.2 0 2.3-.8 2.3-2.1 0-1.5-1.4-1.8-1.4-1.8m-2.9-2h1.4c.4 0 .7.3.7.7 0 .3-.3.7-.7.7H102zm1.3 4.3H102v-1.5h1.3c.7 0 1 .3 1 .7.1.6-.3.8-.9.8m7.1-6.1c-2.2 0-3.5 1.7-3.5 3.9s1.3 3.9 3.5 3.9 3.5-1.7 3.5-3.9c0-2.1-1.3-3.9-3.5-3.9m0 6.1c-1.1 0-1.6-1-1.6-2.1 0-1.2.5-2.1 1.6-2.1s1.6 1 1.6 2.1-.5 2.1-1.6 2.1m7.5-2.9-.3-.1c-.6-.1-1.2-.3-1.2-.8s.5-.7.9-.7c.6 0 1.2.3 1.5.7l1.2-1.2c-.5-.6-1.4-1.2-2.8-1.2-1.6 0-2.8.9-2.8 2.4 0 1.3 1 2 2.2 2.2l.3.1c1 .2 1.4.4 1.4.8s-.4.7-1 .7c-.7 0-1.4-.3-1.9-1l-1.2 1.2c.7.8 1.5 1.4 3.1 1.4 1.4 0 2.9-.8 2.9-2.4.1-1.6-1.2-1.9-2.3-2.1m6.6 2.9c-.8 0-1.7-.7-1.7-2.2 0-1.3.8-2.1 1.6-2.1.7 0 1.1.3 1.4.8l1.5-1c-.8-1.1-1.7-1.6-2.9-1.6-2.3 0-3.5 1.8-3.5 3.9 0 2.2 1.4 4 3.5 4 1.5 0 2.2-.5 3-1.6l-1.5-1c-.4.4-.7.8-1.4.8m7.8-5.9v2.8h-2.3v-2.8h-2v7.5h2v-3h2.3v3h2v-7.5z" clip-rule="evenodd"/></g></mask><g mask="url(#b)"><path fill="#ed0007" fill-rule="evenodd" d="M99.678 191.406h35.1v8.5h-35.1z" clip-rule="evenodd"/></g></g><path fill-rule="evenodd" d="M105.9 191.7c3.1 0 5.7 2.5 5.7 5.6s-2.5 5.6-5.7 5.6-5.7-2.5-5.7-5.6 2.5-5.6 5.7-5.6m0 .5c-2.8 0-5.1 2.3-5.1 5.1s2.3 5.1 5.1 5.1 5.1-2.3 5.1-5.1-2.3-5.1-5.1-5.1m-2 1.6v1.9h3.9v-1.9h.4c1.2.8 1.9 2 1.9 3.5s-.8 2.7-1.9 3.5h-.4v-1.9h-3.9v1.9h-.4c-1.1-.8-1.9-2-1.9-3.5s.8-2.7 1.9-3.5zm-.5.8c-.8.7-1.2 1.7-1.2 2.7 0 1.1.5 2.1 1.2 2.7zm4.9 0v5.5c.8-.7 1.2-1.7 1.2-2.7.1-1.1-.4-2.1-1.2-2.8m-.5 1.7h-3.9v2.1h3.9z" clip-rule="evenodd"/><defs><filter id="c" width="11.4" height="11.3" x="100.2" y="191.7" filterUnits="userSpaceOnUse"><feColorMatrix values="1 0 0 0 0 0 1 0 0 0 0 0 1 0 0 0 0 0 1 0"/></filter></defs><mask id="d" width="11.4" height="11.3" x="100.2" y="191.7" maskUnits="userSpaceOnUse"><g filter="url(#c)"><path fill="#fff" fill-rule="evenodd" d="M105.9 191.7c3.1 0 5.7 2.5 5.7 5.6s-2.5 5.6-5.7 5.6-5.7-2.5-5.7-5.6 2.5-5.6 5.7-5.6m0 .5c-2.8 0-5.1 2.3-5.1 5.1s2.3 5.1 5.1 5.1 5.1-2.3 5.1-5.1-2.3-5.1-5.1-5.1m-2 1.6v1.9h3.9v-1.9h.4c1.2.8 1.9 2 1.9 3.5s-.8 2.7-1.9 3.5h-.4v-1.9h-3.9v1.9h-.4c-1.1-.8-1.9-2-1.9-3.5s.8-2.7 1.9-3.5zm-.5.8c-.8.7-1.2 1.7-1.2 2.7 0 1.1.5 2.1 1.2 2.7zm4.9 0v5.5c.8-.7 1.2-1.7 1.2-2.7.1-1.1-.4-2.1-1.2-2.8m-.5 1.7h-3.9v2.1h3.9z" clip-rule="evenodd"/></g></mask><g mask="url(#d)"><path fill-rule="evenodd" d="M100.2 191.7h11.4V203h-11.4z" clip-rule="evenodd"/></g><defs><filter id="e" width="103" height="93.1" x="74" y="107" filterUnits="userSpaceOnUse"><feColorMatrix values="1 0 0 0 0 0 1 0 0 0 0 0 1 0 0 0 0 0 1 0"/></filter></defs><mask id="f" width="103" height="93.1" x="74" y="107" maskUnits="userSpaceOnUse"><g filter="url(#e)"><path fill="#fff" fill-rule="evenodd" d="M177 184.1H74v-58.4c0-10.3 8.4-18.7 18.7-18.7h65.6c10.3 0 18.7 8.4 18.7 18.7z" clip-rule="evenodd"/></g></mask><path fill="#007bc0" fill-rule="evenodd" d="M74 107h103v93.1H74z" clip-rule="evenodd" mask="url(#f)"/></svg>