<svg xmlns="http://www.w3.org/2000/svg" viewBox="0 0 155.78 330.53"><g data-name="Ebene 2"><g data-name="Ebene 1"><path fill="#595e62" d="M32.41 322.55h87.82l7.29-53.9H25.12z"/><path fill="#43464a" d="M22.43 248.69v19.96h107.78v-19.96zm15.96 73.86h75.85v7.98H38.39zM31.63 130.5a18.09 18.09 0 1 0-27.08 24c5.33 6 37.56 24.79 50 31.94l2.72-2.44C51.7 170.77 37 136.51 31.63 130.5"/><path fill="#232628" d="M106.26 28.48a28 28 0 0 0-55.89-1.06v1.06c0 13 19.81 72.46 26.07 91h3.75c6.27-18.54 26.07-78.05 26.07-91"/><path fill="#a4abb3" d="M149.7 77.06a18.08 18.08 0 0 0-25.52 1.54c-5.54 6.26-21.29 43.12-26.29 55l-17.58 20.91v-35.08h-4v87.93l-19-23.36-2.76 2.43 21.77 26.31v36h4v-88.6l22-26.25c13.15-7.57 43.73-25.47 48.9-31.31a18.07 18.07 0 0 0-1.51-25.51z"/></g></g></svg>