<svg xmlns="http://www.w3.org/2000/svg" data-name="Ebene 2" viewBox="0 0 1600 900"><path fill="#eef5f9" d="M918.89 363.34c-1.72-1-3.98-1.49-6.24-1.49s-4.52.5-6.24 1.49c-1.37.79-2.19 1.78-2.47 2.81L829.12 323l-3.96-2.28-.04-.02-5.21 3.01.04.02-15.29 8.83 3.96 2.28 15.29-8.83 79.92 46.09 2.64-1.53c1.72.98 3.95 1.47 6.19 1.47s4.52-.5 6.24-1.49c1.72-1 2.59-2.3 2.59-3.6s-.86-2.61-2.59-3.6Zm-135.9-30.82-15.25-8.81h.02l-5.21-3.02h-.06l-3.96 2.28.04.02-74.84 43.16c-.28-1.03-1.1-2.02-2.47-2.81-1.72-1-3.98-1.49-6.24-1.49s-4.52.5-6.24 1.49c-1.72 1-2.59 2.3-2.59 3.6s.86 2.61 2.59 3.6c1.72 1 3.98 1.49 6.24 1.49s4.47-.49 6.19-1.47l2.64 1.53 79.93-46.1 15.25 8.81z"/><g fill="#eef5f9"><path d="M921.96 233.49c-1.72-1-3.98-1.49-6.24-1.49s-4.52.5-6.24 1.49c-1.72 1-2.59 2.3-2.59 3.6s.86 2.61 2.59 3.6c1.72 1 3.98 1.49 6.24 1.49s4.52-.5 6.24-1.49c1.72-1 2.59-2.3 2.59-3.6s-.86-2.61-2.59-3.6M822.94 294.98l-15.43-8.91-3.96 2.28 15.43 8.91-.04.03 5.21 3.01 87.94-50.83-5.21-3.01z"/></g><g fill="#eef5f9"><path d="M679.83 237.1c0-1.3-.86-2.61-2.59-3.6-1.72-1-3.98-1.49-6.24-1.49s-4.52.5-6.24 1.49c-1.72 1-2.59 2.3-2.59 3.6s.86 2.61 2.59 3.6c1.72 1 3.98 1.49 6.24 1.49s4.52-.5 6.24-1.49c1.72-1 2.59-2.3 2.59-3.6M783.11 288.43l-3.96-2.28-15.33 8.85-83.98-48.54-5.21 3.01 87.94 50.83 5.21-3.01-.01-.01z"/></g><path fill="#d8d8d8" d="M820.4 187.63V893.4c0 1.69-2.62 3.38-7.86 4.67-5.23 1.29-12.1 1.93-18.96 1.93s-13.73-.64-18.96-1.93c-5.24-1.29-7.86-2.98-7.86-4.67V187.63c0-5.94 2.62-11.87 7.86-16.4 5.23-4.53 12.1-6.79 18.96-6.79s13.73 2.26 18.96 6.79c5.24 4.53 7.86 10.46 7.86 16.4"/><path fill="#eef5f9" d="M793.58 164.44c-6.86 0-13.73 1.51-18.96 4.53-5.24 3.02-7.85 6.99-7.85 10.95s2.62 7.92 7.85 10.95c5.24 3.02 12.1 4.53 18.96 4.53s13.73-1.51 18.96-4.53c5.24-3.02 7.85-6.98 7.85-10.95 0-3.96-2.62-7.92-7.85-10.95-5.24-3.02-12.1-4.53-18.96-4.53"/><path fill="#979ea4" d="m687.224 323.518 10.9 19.04c7.105 12.411 2.802 28.264-9.617 35.373l-73.186 41.897-36.248-63.318 73.889-42.3c12.028-6.886 27.372-2.707 34.253 9.313Z"/><path fill="#e0e2e5" d="m603.09 398.4-23.98-41.89 70.96-40.63c22.5-12.58 42.09-4.8 51.03 13.07 2.09 4.18 3.65 7.88 4.38 10.83L603.1 398.4Z"/><path fill="#e0e2e5" d="m664 363.39-23.98-41.89-65.46 37.48c-20.51 12.04-22.83 32.37-12.02 49.17 2.53 3.92 4.9 7.17 7.01 9.32L664 363.4Z"/><g transform="rotate(-29.79 599.54 386.875)"><ellipse cx="599.5" cy="386.87" fill="#2e3033" rx="23.2" ry="36.21"/><ellipse cx="599.5" cy="386.87" fill="#979ea4" rx="14.16" ry="22.1"/><ellipse cx="599.5" cy="386.87" fill="#2e3033" rx="4.47" ry="6.97"/></g><path fill="#979ea4" d="m981.265 356.53-36.248 63.318-73.186-41.897c-12.41-7.104-16.727-22.953-9.618-35.372l10.9-19.04c6.887-12.03 22.234-16.195 34.254-9.314l73.889 42.3Z"/><path fill="#e0e2e5" d="m957.26 398.4 23.98-41.89-70.96-40.63c-22.5-12.58-42.09-4.8-51.03 13.07-2.09 4.18-3.65 7.88-4.38 10.83l102.38 58.62Z"/><path fill="#e0e2e5" d="m896.35 363.39 23.98-41.89 65.46 37.48c20.51 12.04 22.83 32.37 12.02 49.17-2.53 3.92-4.9 7.17-7.01 9.32l-94.45-54.07Z"/><g transform="rotate(-60.21 960.813 386.874)"><ellipse cx="960.85" cy="386.87" fill="#2e3033" rx="36.21" ry="23.2"/><ellipse cx="960.85" cy="386.87" fill="#979ea4" rx="22.1" ry="14.16"/><ellipse cx="960.85" cy="386.87" fill="#2e3033" rx="6.97" ry="4.47"/></g><rect width="151.48" height="68.17" x="862.83" y="178.66" fill="#979ea4" rx="34.09" ry="34.09" transform="rotate(-3.73 939.193 212.89)"/><path fill="#e0e2e5" d="M1025.69 213.91c.14-2.35.17-4.75.04-7.2-1.16-22.44-13.65-40.2-27.76-39.48l-117 6.02c-.08 0-.16 0-.24.01-14.72.75-25.86 13.63-24.46 28.3.54 5.63 3.44-3.95 3.6-.92l.32 1.28c.13 2.45-3.97 9.01-3.59 11.33l51.03 6.73 118.07-6.08Z"/><path fill="#ccc" d="M882.12 173.23c13.84.28 25.16 11.53 25.26 25.59.04 5.64.12 10.78.28 13.81.12 2.44.16 5.01.01 7.35l-51.23-6.65c-3.42-19.64 2.28-39.05 25.68-40.11Z"/><rect width="151.48" height="68.17" x="589.63" y="182.19" fill="#979ea4" rx="34.09" ry="34.09" transform="rotate(-172.86 665.379 216.247)"/><path fill="#e0e2e5" d="M578.33 212.26c0-2.35.12-4.75.39-7.19 2.49-22.33 16.01-39.32 30.06-37.76l116.44 12.96c.08 0 .16.02.24.03 14.65 1.62 25.01 15.14 22.74 29.7-.87 5.59-3.2-4.15-3.54-1.13l-.39 1.25c-.27 2.44 3.43 9.23 2.91 11.52l-51.34 3.69-117.51-13.08Z"/><path fill="#ccc" d="M724.06 180.17c-13.83-.54-25.8 10.02-26.73 24.05-.37 5.63-.76 10.76-1.09 13.77-.27 2.43-.46 5-.45 7.34l51.53-3.59c4.58-19.4.04-39.12-23.26-41.57"/></svg>