<svg xmlns="http://www.w3.org/2000/svg" viewBox="0 0 377.162 585.377"><path fill="#d0d4d8" d="M346.076 330.17h-330l60.512 131.14a40 40 0 0 0 36.32 23.241h136.337a40 40 0 0 0 36.32-23.241z"/><path fill="none" stroke="#71767c" stroke-miterlimit="10" stroke-width="8" d="M181.076 491.351c9.629 39.723 41.893 86.578 65.548 90.07 38.593 5.697 105.074-18.795 121.297-102.143 7.247-37.231 19.49-351.343-82.562-415.237C203.387 12.718 88.75 46.977 35.423 139.048c-72.787 125.67-14.04 342.054 96.371 379.863 99.507 34.075 223.535-80.992 221.117-201.927-1.903-95.174-46.844-174.736-168.796-173.139"/><path fill="#e0e2e5" d="M56.076.085h250c22.077 0 40 17.923 40 40v290h-330v-290c0-22.077 17.924-40 40-40"/><path fill="#d0d4d8" d="M47.294 31.303h267.564v267.564H47.294z"/><path fill="#a2aab1" d="M220.839 407.36c0 21.841-17.814 39.568-39.763 39.568s-39.762-17.727-39.762-39.568 17.814-39.568 39.762-39.568a39.78 39.78 0 0 1 28.093 11.575 39.46 39.46 0 0 1 11.631 27.955z"/><path fill="#71767c" d="M187.873 246.972c0 3.752-3.045 6.797-6.797 6.797s-6.797-3.045-6.797-6.797 3.045-6.797 6.797-6.797a6.783 6.783 0 0 1 6.79 6.79zM210.76 407.36c0 4.39-16.79 77.12-16.79 77.12-1.32 6.06-6.69 10.38-12.89 10.38s-11.57-4.32-12.89-10.38c0 0-16.8-72.73-16.8-77.12 0-16.38 13.3-29.68 29.69-29.68 7.87 0 15.4 3.11 20.97 8.68s8.68 13.13 8.68 20.97z"/><path fill="#a2aab1" d="M146.376 59.902h69.4v18.9h-69.4z"/></svg>