<svg xmlns="http://www.w3.org/2000/svg" viewBox="0 0 1600 900"><path fill="none" d="m307.95 418.537-.007.001-.024 51.479h.004zm61.419-163.972c.066 1.709.128 3.48.184 5.268 0-.062.012-.121.011-.183a31.1 31.1 0 0 1 5.7 5.373l8.915 5.538v-24.187c-2.032 4.689-3.3 6.975-3.3 6.975a47.8 47.8 0 0 1-11.51 1.216"/><path fill="#0096e8" d="M912.959 72.89h302.86v51.055h-302.86zm-528.777 0h305.774v51.055H384.182z"/><path fill="#006ead" d="M910.045 72.89H718.334v51.056h194.625V72.89z"/><path fill="#0096e8" d="m819.878 416.378.042-.038c-.245.011-.487.038-.735.038zm-16.343-16.343c0-9.026 7.007-16.343 15.65-16.343h-3c-8.5 0-15.388 7.317-15.388 16.343s6.889 16.343 15.388 16.343h3c-8.643 0-15.65-7.317-15.65-16.343m16.375-16.343h-.725c.257 0 .506.027.759.04z"/><path fill="#001222" d="M973.031 187.4a20.1 20.1 0 1 0-32.594-15.668c-8.588-.147-19.51 4.745-27.478 14.779a45 45 0 0 0-2.914 4.119 47 47 0 0 0-2.791 5.1c-1.5 4.314-3.569 13.534 2.791 20.2a17.5 17.5 0 0 0 2.643 2.263 137 137 0 0 1-2.643-10.908c-.637-3.2-.9-5.161-.9-5.161v-.09l.9-1.4 2.572-4.013s.116.178.342.493a45.84 45.84 0 0 0 23.662 16.318c8.413 2.446 19.052 1.85 23.566 1.438.966-3.073 5.723-16.741 12.425-11.26 4.309 3.523-1.794 19.654-4.524 25.953l1.641 4.884c9.1-14.635 12.6-25.708 4.985-43.634a36 36 0 0 0-1.683-3.413M907.886 204l.031.118z"/><g fill="#d0d4d8"><path d="M718.334 123.946v688.519h194.625V415.639l-2.914-.182-20.854-1.307v59.7H741.378V326.039h147.813v62.505l20.854-1.814 2.914-.254v-14.488q-1.746-3.894-2.914-7.346c-3.788-11.258-3.113-19.3 0-27.228.379-.966.782-1.931 1.23-2.9.176-.468.344-.926.516-1.388l-1.746-13.849-.692-5.481a24.9 24.9 0 0 1 .692-7.863 26 26 0 0 1 2.914-7.013v-79.83c-.087-.3-.187-.608-.271-.9a17.5 17.5 0 0 1-2.643-2.263c-6.36-6.662-4.288-15.882-2.791-20.2a47 47 0 0 1 2.791-5.1 45 45 0 0 1 2.914-4.119v-62.562zm27.06 590.473h137.59v72.064h-137.59z"/><path d="M816.189 383.692h3.721l.034.04a15.78 15.78 0 0 1 14.206 11.512l1.686-.339 5.988-1.208a25.49 25.49 0 0 0-21.324-19.738 24 24 0 0 0-3.025-.2c-13.848 0-25.074 11.722-25.074 26.183s11.226 26.182 25.074 26.182q.574-.002 1.142-.03a25.02 25.02 0 0 0 21.128-14.128 19.5 19.5 0 0 1-5.636-3.449 17 17 0 0 1-1.025-.993 15.6 15.6 0 0 1-13.164 8.812l-.042.038h-3.689c-8.5 0-15.388-7.317-15.388-16.343s6.889-16.339 15.388-16.339m161.168-128.173-.424.352c-21.521 17.914-24.425 17.2-24.086 17.521-.021-.008-9.124-3.879-11.121-9.891a31.56 31.56 0 0 0-5.126 15.028l.53.984 6.567 12.2 2.759-5.522 5.344-10.7 1.049-2.1a57 57 0 0 1 1.924 1.926c2.583 2.7 5.312 5.97 7.4 8.579 2.119 2.639 3.586 4.6 3.586 4.6l5.8-5.969 10.646-10.954 3.75-3.857.217-.224a35.8 35.8 0 0 0-8.815-11.973"/></g><path fill="#00629a" d="M1039.749 451.656 996 461.392l-5.834-25.549c-6.162 1.908-9.977 3.085-9.977 3.085l-.544-3.217-11 5.538c.91 11.3 3.1 27.459 8.343 40.254 5.691 13.876 12.6 37.718 19.314 63.473 13.7 52.581 26.584 113.135 26.584 113.135l32.258 116.753 19.012 1.707-.069 5.274 19.468 5.735c-13.6-84.961-6.645-103.653-38.972-169.009-4.228-8.547-5.269-20.575-4.886-35.158 1.763-67.106 11.433-98.363-4.847-132.892l-5.1 1.135z"/><rect height="32.567" x="1063.499" y="413.625" fill="#0096e8"/><path fill="#001d33" d="m919.53 387.76-.182-1.839-6.389.555-2.914.254-20.854 1.814-6.051.527-.108 2.886-.705 18.937-.105 2.819 6.969.437 20.854 1.307 2.914.182 9.391.589-.031-.312zm109.614-23.211c-7.878-12.644-16.292-28.337-21.028-43.8-.075-.243-.153-.485-.225-.728l.2 5.565.5 13.792 15.056 54.261q1.987-.843 3.964-1.647c5.673-2.306 11.228-4.337 16.314-5.844a311 311 0 0 1-14.781-21.599m28.286 50.251c-7.9 2.514-16.79 5.315-25.662 8.094l2.838 10.23 5.143 18.534 5.1-1.135 24.722-5.5z"/><path fill="#002742" d="m1034.606 433.122-2.838-10.23c-5.528 1.732-11.044 3.455-16.306 5.094a15654 15654 0 0 1-25.295 7.857L996 461.392l43.748-9.736zm-10.957-39.488-15.056-54.261-.5-13.792-.2-5.565q-.805-2.693-1.453-5.368c-2.111-8.778-3.554-23.594-.051-36.1a41.5 41.5 0 0 1 1.954-5.5c.312-.709.629-1.414.984-2.094l.009-.018.4-.759.158-.3c.373-.048.736-.071 1.1-.107a36 36 0 0 0-5.4-.527l-17.941-1.563c.006.064.009.148.014.219.291 4.161-.4 18.839-1.471 36.743-2.205 36.931-6 87.523-6 87.523l.12.528q.272.99.441 1.929l4.074 17.838c5.727-3.062 13.9-7.309 22.911-11.614a377 377 0 0 1 15.907-7.212"/><path fill="#979ea4" d="m949.857 437.634-3.912-9.5-1.664-4.04-5.524.084-1.431.021-14.165.216-4 .061c.463 6.642 2.558 11.486 5.5 15.03a25.44 25.44 0 0 0 13.854 8.122 41.3 41.3 0 0 0 7.044 1.064 44.6 44.6 0 0 0 8.761-.236z"/><path fill="#a4abb3" d="M941.373 254.694a38.2 38.2 0 0 0 11.174-2.6 67.8 67.8 0 0 1-10.822 11.4c2 6.012 11.1 9.883 11.121 9.891-.339-.321 2.565.393 24.086-17.521l-7.2-21.43-1.641-4.884c2.73-6.3 8.833-22.43 4.524-25.953-6.7-5.481-11.459 8.187-12.425 11.26-4.514.412-15.153 1.008-23.566-1.438a45.84 45.84 0 0 1-23.662-16.318c-.226-.315-.342-.493-.342-.493l-2.572 4.013-.9 1.4v.09s.266 1.965.9 5.161c.563 2.829 1.415 6.62 2.643 10.908.084.293.184.6.271.9a115 115 0 0 0 4.676 13.094c6.52 15.083 11.129 22.1 11.129 22.1a52.1 52.1 0 0 0 12.606.42m37.501 176.453-.534-3.161-1.606-9.498-5.93 1.025-12.905-4.313-18.472-6.174-4.196 4.795 4.108 2.692 10.188 6.676-5.246.907 1.664 4.04 3.912 9.498 4.458 10.824 14.326-7.209 11.005-5.538z"/><path fill="#003253" d="M924.831 288.117a27.8 27.8 0 0 0-11.872 10.8 26 26 0 0 0-2.914 7.013 24.9 24.9 0 0 0-.692 7.863l.692 5.481 1.746 13.849.014.111a300 300 0 0 0 1.154-3.139c9.47-26.082 11.97-42.032 11.97-42.032a1 1 0 0 1-.098.054m-.175 151.391 3.66 36.949 7.578-1.687c.649-7.717 1.869-20.129 2.616-27.14a25.44 25.44 0 0 1-13.854-8.122m.408-42.141q-2.3-4.685-4.7-9.7l-.838-1.759c-.074-.158-.149-.312-.224-.471l.049.486.182 1.839 2.789 28.156.031.312.811 8.189 14.165-.216 1.431-.021a989 989 0 0 1-13.696-26.815m159.407 8.243a54 54 0 0 0-3-6.7c-5.159-9.631-12.249-14.594-20.685-15.419-3.864-.378-9.1.484-15.068 2.142q-.883.246-1.787.513c-5.086 1.507-10.641 3.538-16.314 5.844q-1.976.8-3.964 1.647c-5.376 2.279-10.779 4.749-15.913 7.2-9.011 4.305-17.184 8.552-22.911 11.614-5.163 2.76-8.342 4.558-8.342 4.558l.251 1.48 1.606 9.5.534 3.161.772 4.564.544 3.217s3.815-1.177 9.977-3.085c6.424-1.99 15.4-4.774 25.295-7.857 5.262-1.639 10.778-3.362 16.306-5.094a5947 5947 0 0 0 25.662-8.094c13.365-4.254 23.87-7.682 26.537-8.774l.062-.026c.333-.138.5-.225.492-.254a2 2 0 0 1-.054-.137"/><path fill="#b8d6ff" d="M492.28 388.427c.3-.307.592-.6.874-.892l-1.525.021zm16.829-9.747 12.81-3.819-.268-.264-8.774-5.733z"/><path fill="#9dc9ff" d="M369.369 254.565a34.9 34.9 0 0 1-10.622-1.7 60.2 60.2 0 0 0 10.342 9.681 8.9 8.9 0 0 0 .464-2.708 583 583 0 0 0-.184-5.273"/><path fill="#383b3e" d="M428.66 338.482c-2.124-8.27-4.067-15.98-5.483-21.637a44 44 0 0 1-.132 4.7v1.163l-.049 16.163 4.344-.3zm8.471 31.889q-.318.889-.7 1.781a30.7 30.7 0 0 1-2.941 5.259l-10.614.768-.09 29.749.052 1.543.115 3.393.112 3.31 18.274-25.874 1.612-2.282c-.792-.497-3.042-7.718-5.82-17.647"/><path fill="#00629a" d="m307.919 470.017-.019 41.54.023-41.54z"/><path fill="#00629a" d="M382.569 470.017h-44.756l-.178 1.923-3.679 39.617H297.98c-3.068 25.773-1.757 51.277-.439 101.479.362 13.779-37.919 48.526-38.352 196.926l24.244-7.142-.074-5.709 26.742-2.4 22.676-114.456s9.17-45.612 20.057-90.455c7.062-29.085 14.846-57.847 21.319-73.63 6.413-15.634 8.015-36.554 8.416-46.153"/><g fill="#e0e2e5"><path d="M1022.882 658.111S1010 597.557 996.3 544.976c-11.17 44.024-24.78 87.439-15.441 112.783 15.5 42.065 13.626 66.281 13.4 127.53l2.082.613 4.963 22.989a14 14 0 0 1 .5 3.574h42.039l.041-.044c1-1.112 1.954-2.26 2.819-3.408l-.115-.042 1.232-1.572.028.01a29 29 0 0 0 1.633-2.682l.684-1.4 1.95-4.635-.344-2-5.183-22.59 8.555.768zM912.959 123.946v62.569c7.968-10.034 18.89-14.926 27.478-14.779a20.105 20.105 0 1 1 32.594 15.664 36 36 0 0 1 1.683 3.4c7.617 17.926 4.114 29-4.985 43.634l7.2 21.43.424-.352a35.8 35.8 0 0 1 8.822 11.975l1.466.176 17.941 1.563a36 36 0 0 1 5.4.527c11.856-1.172 20.973 3.71 27.339 17.544l1.9 4.924 41.277 106.74q-.022-.031-.044-.061a54 54 0 0 1 3 6.7q.025.068.05.134c.011.029-.159.116-.492.254l-.062.026c-2.667 1.092-13.172 4.52-26.537 8.774l12.138 30.221-24.722 5.5c16.28 34.529 6.61 65.786 4.847 132.892-.383 14.583.658 26.611 4.886 35.158 32.327 65.356 25.371 84.048 38.972 169.009l4.223 1.244 4.963 22.989a5 5 0 0 1 .181.652h112.9V123.946z"/><path d="m924.831 288.117.008-.048 7.772-5.41 3.988-4.13a31.56 31.56 0 0 1 5.126-15.028c-.141-3-.255-5.976-.352-8.805a52.1 52.1 0 0 1-12.609-.409s-4.609-7.017-11.129-22.1a115 115 0 0 1-4.676-13.094v79.83a27.8 27.8 0 0 1 11.872-10.806m-5.531 97.318a2389 2389 0 0 0-5.249-11.061c-.39-.817-.739-1.6-1.091-2.386v14.488l6.389-.555zm22.077 266.592-5.921-170.742c-.012-.8.162-3.237.438-6.515l-7.578 1.687-3.66-36.949c-2.942-3.544-5.037-8.388-5.5-15.03l4-.061-.811-8.189-9.391-.589v396.826h26.6q.933-.888 1.846-1.847l1.035-1.117c1-1.112 1.956-2.26 2.821-3.409l-.115-.043 1.232-1.572.028.01a29 29 0 0 0 1.634-2.682l.683-1.4 1.95-4.636-.344-2-5.183-22.59 9.549.857zM384.182 176.054A36.17 36.17 0 0 1 396.5 197.74l-.1.046.12.1 25.823 15.915c-8.058-.416-15.917.875-21.766 3.375a19.2 19.2 0 0 1-8.885 8.311 97 97 0 0 1-2.109 6.889c-2.079 5.971-3.941 10.6-5.408 13.993v24.187l4.294 2.668 13.716 7.972c12.516 7.547 19.888 19.231 20.891 33.533.049.7.077 1.405.093 2.111a3706 3706 0 0 0 5.483 21.637l2.575-.179s11.812 15.5 5.9 32.068c2.778 9.929 5.028 17.15 5.82 17.645l5.895-3.309a7.14 7.14 0 0 1-.637-6.419l26.9-70.079a7.21 7.21 0 0 1 6.63-4.624l3.293-.046c.139-.01.278-.02.419-.022l9.681-.134 1.533-5.085h8.408l1.58-5.242h9.361l-1.648 5.242h7.55l-1.488 4.733h-.017l7.184-.1a7.21 7.21 0 0 1 6.834 9.793l-11.54 30.056 1.325-.045-2.21 32.096-.349-.229.268.264-12.81 3.819-1.583 4.122a7.21 7.21 0 0 1-5.413 4.5 7 7 0 0 1-1.217.124l-7.742.108-.874.892 1.85 2.469c-23.174 22.614-46.64 37.665-70.376 45.72l.128 3.8 2.323 68.577h-15.972l-4.143 158.939-7.973 113.821 5.828-.523-5.609 24.452-.373 2.169 1.942 4.615h290.05V123.946H384.182zm-8.915 88.969a31.1 31.1 0 0 0-5.7-5.373c0 .062-.01.121-.011.183a8.9 8.9 0 0 1-.464 2.708c-.053.16-.1.323-.158.479a11 11 0 0 1-.538 1.183 19.2 19.2 0 0 1-6.286 6.526c-.544-.374-7.8-1.193-14.371-4.593a28 28 0 0 1-2.687-1.575 55 55 0 0 1-3.135-2.245c-5.138-3.97-5.521-6.054-5.528-6.094l-9.3 10.555.131.143c.169.184.5.548.961 1.05.924 1.01 2.363 2.588 4.048 4.445a894 894 0 0 1 8.941 9.985 232 232 0 0 1 3.741 4.342s2.044-1.509 4.775-3.728c4.129-3.355 9.83-8.334 12.441-12.2L370.479 281l4.644 5.665s3-9.015 3-15.023a10.23 10.23 0 0 0-2.161-5.684q-.331-.48-.695-.935"/></g><path fill="#007bc0" d="M689.955 72.89h28.378v51.055h-28.378zM834.15 395.244a15.78 15.78 0 0 0-14.206-11.512c-.253-.013-.5-.04-.759-.04-8.643 0-15.65 7.317-15.65 16.343s7.007 16.343 15.65 16.343c.248 0 .49-.027.735-.038a15.6 15.6 0 0 0 13.164-8.812 12.7 12.7 0 0 1-2.541-3.686c-.008-.028-.048-.05-.068-.075-.756-.906-9.519-.146-9.761-1.052-.682-2.578-1.118-4.535-1.118-4.535l10.463-2.11zm146.601-.632-.441-1.929-.12-.528s3.792-50.592 6-87.523L925.669 318.1l6.942-35.442-7.772 5.41-.008.048q.05-.026.1-.05s-2.5 15.95-11.97 42.032a388 388 0 0 1-1.154 3.139l-.014-.111c-.172.462-.34.92-.516 1.388a52 52 0 0 0-1.23 2.9c-3.113 7.924-3.788 15.97 0 27.228q1.161 3.451 2.914 7.346c.352.787.7 1.569 1.091 2.386 1.714 3.586 3.477 7.3 5.249 11.061.075.159.15.313.224.471l.838 1.759q2.393 5.01 4.7 9.7a994 994 0 0 0 13.693 26.811l5.524-.084 5.246-.907-10.188-6.676-4.108-2.692 4.2-4.8 18.47 6.183 12.9 4.313 5.93-1.025-.251-1.48s3.179-1.8 8.342-4.558zm-596.569-40.404 7.065-2.026.947 4.7 1.77-1.191-.751-79.7-4.737-2.753.279 37.134h-50.873l-12.862-42.1-16.334 9.584 13.084-7.611c.028.088 12.382 39.141 18.809 96.472zm18.01-73.007zl-8.481-4.929zM394.423 404.4l-.181-19.291a3499 3499 0 0 1-10.06 4.533c-10.766 4.833-26.372 11.78-40.565 17.876l-5.8 62.5h66.229l-.168-1.143zm-63.578-195.429c2.067.584 4.064 1.078 6 1.5a81 81 0 0 0 8.178 1.337c1.856.2 3.649.325 5.388.378a61 61 0 0 0 11.9-.773c3.266-1.813 6.434-3.57 9.479-5.194a129 129 0 0 1 12.387-5.953c4.682-1.874 8.782-2.9 12.076-2.536l.12.075.029-.014.1-.046a36.17 36.17 0 0 0-12.32-21.686 32.47 32.47 0 0 0-26.44-7.374c-17.764 3.039-29.672 20.416-27.067 39.129.054.386.104.769.17 1.157"/><path fill="#b2b9c0" d="M689.955 123.946h28.378v688.519h-28.378zm102.445 276c0-14.461 11.226-26.183 25.074-26.183h-4.8c-13.616 0-24.653 11.722-24.653 26.183s11.037 26.182 24.653 26.182h4.8c-13.847 0-25.074-11.722-25.074-26.182m26.184 26.182.033-.03q-.568.029-1.142.03zm1.751-52.365h-2.86a24 24 0 0 1 3.025.2zM396.378 197.8l-.12-.075c-3.294-.36-7.394.662-12.076 2.536a129 129 0 0 0-12.387 5.953c-3.045 1.624-6.213 3.381-9.479 5.194h-.007l9.9 3.305a40.6 40.6 0 0 0 11.972 4.089 35.5 35.5 0 0 0 8.973.565 15.6 15.6 0 0 0 5.718-1.4 30 30 0 0 1 1.711-.788c5.849-2.5 13.708-3.791 21.766-3.375l-25.823-15.915z"/><path fill="#595e62" d="M303.758 284.731h-.688c-.195 0-.386.009-.58.013a33.4 33.4 0 0 0-7.183.885c-8.079 1.982-13.92 7.478-17.326 18.768l-26.592 87.8s.167-.016.456-.047l41.03-11.765 15.087-4.326h.011l2.6-.747c3.779-11.439 9.032-35 11.022-49.8.209-1.56.383-3.023.515-4.364 1.043-10.609.005-33.681-18.352-36.417m87.173 39.614z"/><path fill="#d1e4ff" d="m907.886 204 .031.118zM494.258 343.757a19 19 0 0 0 .384 6.376c1.124 5.222 4.058 10.634 8.11 12.107l10.128 6.619 8.774 5.733.349.229 2.217-32.091-1.325.045zM384.182 218.805a40.6 40.6 0 0 1-11.972-4.089l-9.9-3.305h.007a61 61 0 0 1-11.9.773 42 42 0 0 1-.872 4.37c-.12.433-.267.905-.432 1.4a35 35 0 0 0-4.084-6.149 81 81 0 0 1-8.178-1.337c-4.37 5.489 3.172 17.734 6.019 21.951-.47.969-.763 1.554-.763 1.554l-5.716 22.251c.007.04.39 2.124 5.528 6.094.9.693 1.923 1.437 3.135 2.245a28 28 0 0 0 2.687 1.575c6.574 3.4 13.827 4.219 14.371 4.593a19.2 19.2 0 0 0 6.286-6.526 11 11 0 0 0 .538-1.183c.06-.156.105-.319.158-.479a60.2 60.2 0 0 1-10.342-9.681 34.9 34.9 0 0 0 10.622 1.7 47.8 47.8 0 0 0 11.511-1.216s1.27-2.286 3.3-6.975c1.467-3.388 3.329-8.022 5.408-13.993a99 99 0 0 0 2.109-6.889 115 115 0 0 0 1.456-6.122 35.5 35.5 0 0 1-8.976-.562m44.478 119.677-1.324.092-4.344.3-4.1.285-.7-14.679-6.692-2.68-.372-.15-.457-.183-1.108-.445-8.138 29.643-7.464 5.023-1.77 1.191 1.869 9.262 1.22 6.049 1.587 7.869 11.882-.859 3.19-.23 10.93-.79 10.614-.768a30.7 30.7 0 0 0 2.941-5.259q.387-.892.7-1.781c5.916-16.572-5.9-32.068-5.9-32.068z"/><path fill="#656a6f" d="M342.865 232.417c-2.847-4.217-10.389-16.462-6.019-21.951a94 94 0 0 1-6-1.5c-.066-.388-.116-.774-.17-1.162 1.01 11.344 11.427 26.162 11.427 26.162s.297-.58.762-1.549m6.675-15.866a42 42 0 0 0 .872-4.37 68 68 0 0 1-5.388-.378 35 35 0 0 1 4.084 6.149c.165-.496.312-.968.432-1.401m51.044.63c-.589.252-1.165.512-1.711.788a15.6 15.6 0 0 1-5.718 1.4c-.409 1.95-.889 4-1.456 6.122a19.2 19.2 0 0 0 8.885-8.31m-4.177-19.395-.029.014.149.091zm-1.124 174.403-1.22-6.049-1.869-9.262-.947-4.7-7.065 2.026-43.6 12.5-15.488 4.441-14.514 4.162-2.6.747h-.011l-15.087 4.326-41.03 11.765-.162.047c-.553 18.12 16.385 28.343 41.95 27.708a107 107 0 0 0 14.31-1.371h.007a141.4 141.4 0 0 0 20.372-4.931q2.2-.7 4.429-1.48c3.444-1.439 7.106-3 10.866-4.611 14.193-6.1 29.8-13.043 40.565-17.876 4.236-1.9 7.707-3.468 10.06-4.533l1-.451 2.345-1.064-.713-3.533z"/><path fill="#71767c" d="m475.112 308.209-26.9 70.079a7.14 7.14 0 0 0 .637 6.419l.014.022a7.15 7.15 0 0 0 6.18 3.354l3.711-.068a7.19 7.19 0 0 1-6.945-4.97c-.048-.145-.1-.287-.142-.435a7.14 7.14 0 0 1 .256-4.387l26.9-70.08a7.21 7.21 0 0 1 6.212-4.6l-3.293.046a7.21 7.21 0 0 0-6.63 4.62m39.257-9.911 1.648-5.242h-9.361l-1.58 5.242h-8.408l-1.533 5.085-.047.156 25.326-.507.017-.001 1.488-4.733z"/><path fill="#8a9097" d="M941.725 263.5a67.8 67.8 0 0 0 10.822-11.4 38.2 38.2 0 0 1-11.174 2.6c.1 2.829.211 5.808.352 8.805zm-89.699 128.138-10.2 2.059-5.988 1.208-1.686.339-4.091.826-10.461 2.11s.436 1.957 1.118 4.535c.242.906 9 .146 9.761 1.052.02.025.06.047.068.075a12.7 12.7 0 0 0 2.541 3.686q.46.488 1.025.993a19.5 19.5 0 0 0 5.636 3.449c.647.264 1.321.517 2.055.739 8.921 2.708 38.909-2.1 38.909-2.1.487.087 1.035.184 1.618.286l.705-18.937-3.6.418c-6.163 1.565-23.552-3.21-27.41-.738m10.175 33.083-.003-.001zm189.567 371.965zm51.15 15.779a5 5 0 0 0-.181-.652l-4.963-22.989-4.223-1.244-19.468-5.735.069-5.274-19.012-1.707-8.555-.768 5.182 22.589 1.089.236 20.973 4.55 1.2.26-1.22 1.542-.2.248-21.375-4.8-.122-.027-1.95 4.635 14.384 2.962 5.909 1.217-1.407 1.777-2.164-.486-17.475-3.928.069-.141a29 29 0 0 1-1.633 2.682l13.864 5.056 3.74 1.364-1.332 1.683-8.166-3.047-9.251-3.452a50 50 0 0 1-2.819 3.408l.177-.192.59.236 16.623 6.641-1.324 1.673-17.277-7.051.17-.183a51 51 0 0 1-3.081 2.98l17.65 7.46-1.134 1.433-17.989-7.641a26 26 0 0 1-3.306 2.312c-4.826 2.751-10.414 3.913-14.909 7.247a15 15 0 0 0-4.2 4.931c2.346-2.032 10.805 1.157 11.173 8.161a61.9 61.9 0 0 0 23.478 3c7.123-.593 16.42-9.239 25.121-9.187 13.128.077 24.634-2.976 27.413-9.772.344-4.563.344-9.741-.138-12.007m-101.618-3.574-4.962-22.991-2.082-.613-21.609-6.365.069-5.275-18.016-1.615-9.549-.857 5.183 22.59 1.088.237 2.815.611.056.012 18.1 3.927 1.2.26-1.22 1.541-.2.249L950.8 795.8l-.122-.028-1.95 4.636 14.384 2.962 5.909 1.216-1.407 1.778-2.164-.487-17.474-3.927.069-.142a29 29 0 0 1-1.634 2.682l17.6 6.42-1.233 1.558-.1.125-.336-.125-17.081-6.373a50 50 0 0 1-2.821 3.409l.179-.193 7.9 3.157 9.311 3.719-1.325 1.673-13.205-5.395-4.064-1.659.174-.188q-.91.958-1.846 1.847-.62.589-1.238 1.138l17.649 7.46-1.134 1.433-17.989-7.641a26 26 0 0 1-3.306 2.312c-4.826 2.751-10.414 3.914-14.909 7.247a15 15 0 0 0-4.2 4.932c2.346-2.032 10.805 1.156 11.173 8.16a61.9 61.9 0 0 0 23.478 3c7.123-.593 16.42-9.238 25.121-9.187 13.128.077 24.634-2.975 27.413-9.771a78 78 0 0 0 .177-9.084 14 14 0 0 0-.499-3.573"/><path fill="#43464a" d="m491.629 387.556-32.878.459-3.711.068a7.15 7.15 0 0 1-6.18-3.354l-.014-.022-5.895 3.309-1.612 2.282-18.278 25.876.553 16.318.14 4.124c23.736-8.055 47.2-23.106 70.376-45.72l-1.85-2.469zM295.244 511.557H307.9l.019-41.54.024-51.479a107 107 0 0 1-14.31 1.371c.823 43.257 1.542 82.642 1.611 91.648M1103.08 824.43l-.02.04c-2.779 6.8-14.285 9.849-27.413 9.772-8.7-.052-18 8.594-25.121 9.187a61.9 61.9 0 0 1-23.478-3c-.368-7-8.827-10.193-11.173-8.161-2.344 2.035-2.343 8.975.834 12.5 1.156 1.283 5.19 2.739 10.67 3.864l3.519.643q.664.106 1.347.206l3.258.418q.918.103 1.855.191l3.265.249q.652.039 1.308.07l3.632.1h1.306l3.623-.106q.864-.045 1.723-.108l.08-.008 3.682-.494a26 26 0 0 0 1.682-.391l3.205-1.089a25 25 0 0 0 1.507-.7l2.53-1.467c4.35-2.826 7.153-6.016 13.373-6.017a35 35 0 0 1 5.4.418l3.307.426a15.5 15.5 0 0 0 2.039.012l3.386-.509c.65-.139 1.317-.3 1.984-.483l3.342-1.127a9.4 9.4 0 0 0 3.71-2.4c1.672-2.147 4.304-10.446 1.638-12.036m-101.436-2.921c0 .014-.014.026-.02.04-2.779 6.8-14.285 9.848-27.413 9.771-8.7-.051-18 8.594-25.121 9.187a61.9 61.9 0 0 1-23.478-3c-.368-7-8.827-10.192-11.173-8.16-2.344 2.035-2.343 8.976.834 12.5 1.156 1.283 5.19 2.739 10.67 3.864l3.519.643q.665.107 1.347.207l3.258.417q.918.1 1.855.191l3.265.25q.652.039 1.308.07l3.633.095h1.305l3.623-.106q.864-.045 1.723-.108l.08-.007 3.682-.494a26 26 0 0 0 1.682-.392l3.206-1.088a24 24 0 0 0 1.5-.7l2.531-1.466c4.351-2.826 7.154-6.016 13.373-6.017a35 35 0 0 1 5.4.417l3.307.426a15 15 0 0 0 2.039.012l3.386-.508c.65-.139 1.317-.3 1.984-.484l3.342-1.127a9.4 9.4 0 0 0 3.71-2.4c1.678-2.142 4.309-10.442 1.643-12.033"/><path fill="#004975" d="M976.984 481.5c-5.247-12.795-7.433-28.952-8.343-40.254l-14.326 7.209a44.6 44.6 0 0 1-8.761.236 41.3 41.3 0 0 1-7.044-1.064c-.747 7.011-1.967 19.423-2.616 27.14-.276 3.278-.45 5.716-.438 6.515l5.921 170.742L954.7 772.032l18.018 1.617-.069 5.275 21.609 6.365c.229-61.249 2.1-85.465-13.4-127.53C971.52 632.415 985.13 589 996.3 544.976c-6.715-25.755-13.625-49.597-19.316-63.476m63.25-189.272-1.9-4.924c-6.366-13.834-15.483-18.716-27.339-17.544-.368.036-.731.059-1.1.107l-.158.3-.4.759-.009.018c-.355.68-.672 1.385-.984 2.094a41.5 41.5 0 0 0-1.954 5.5c-3.5 12.51-2.06 27.326.051 36.1q.644 2.673 1.453 5.368c.072.243.15.485.225.728 4.736 15.468 13.15 31.161 21.028 43.8a308 308 0 0 0 14.783 21.594q.9-.268 1.787-.513c5.972-1.658 11.2-2.52 15.068-2.142 8.436.825 15.526 5.788 20.685 15.419q.022.03.044.061zM409.778 509l-.017.04-5.719-39.023h-21.473c-.4 9.6-2 30.519-8.416 46.152-6.473 15.783-14.257 44.545-21.319 73.63 6.556 29.622 11.085 61 6.351 93.9-10.983 76.327-9.35 46.679-11.73 118.487l1.083-5.017 25.643-7.554-.074-5.71 10.075-.9 13.935-1.251 7.973-113.821 4.143-158.942h-.45zm643.078 287.921-1.089-.236.001.001.344 2.005.122.027 21.375 4.803.197-.248 1.22-1.542-1.197-.26zm-2.694 6.405-.684 1.401-.069.141 17.475 3.928 2.164.486 1.407-1.777-5.909-1.217zm-2.317 4.083-.028-.01-1.232 1.572.115.042 9.251 3.452 8.166 3.047 1.332-1.683-3.74-1.364zm-3.787 4.82-.177.192-.041.044-1 1.08-.17.183 17.277 7.051 1.324-1.673-16.623-6.641zm-4.348 4.275-1.485 1.247.061.026 17.989 7.641 1.134-1.433-17.65-7.46zm-85.419-21.881-.056-.012-2.815-.611-1.088-.237v.002l.344 2.004.122.028 21.375 4.803.197-.249 1.22-1.541-1.197-.26zm-5.565 5.782-.683 1.4-.069.142 17.474 3.927 2.164.487 1.407-1.778-5.909-1.216zm-2.345 4.072-1.232 1.572.115.043 17.081 6.373.336.125.099-.125 1.233-1.558-17.604-6.42zm-3.759 4.831-.179.193q-.51.567-1.035 1.117l-.174.188 4.064 1.659 13.213 5.392 1.325-1.673-9.311-3.719zm-4.348 4.274-1.485 1.247.061.026 17.989 7.641 1.134-1.433-17.649-7.46z"/><path fill="#2e3033" d="M346.808 868.516c-2.937 4.812-32.977 5.228-41 2.51-6.1-2.067-12.737-8.014-20.4-9.754-6.122-1.39-13.2 2.03-18.244.883-3.677-.836-11.092-1.1-13.52-4.561-.721-1.029-1.272-4.606-1.574-8.636-.006-.014-.016-.028-.022-.043-2.886 1.722-.037 10.7 1.771 13.017a10.16 10.16 0 0 0 4.016 2.6l3.617 1.22c.722.2 1.444.372 2.148.523l3.665.55a16.5 16.5 0 0 0 2.207-.013l3.58-.461a38 38 0 0 1 5.848-.451c6.732 0 9.766 3.454 14.475 6.513l2.737 1.587q.777.397 1.63.76l3.47 1.179c.582.154 1.183.3 1.821.424l3.985.534.087.008q.929.069 1.865.117l3.922.115h1.412l3.932-.1q.711-.033 1.416-.075l3.534-.271q1.016-.095 2.008-.206l3.527-.452q.738-.108 1.457-.224l3.81-.7c5.932-1.218 10.3-2.794 11.549-4.181 3.439-3.816 3.44-11.329.9-13.531 1.892 3.547 2.435 7.738.371 11.119"/><path fill="#2e3033" d="M334.344 866.231a66.9 66.9 0 0 1-25.413 3.248c-7.709-.641-17.772-10-27.191-9.944-14.21.084-26.664-3.22-29.672-10.577.3 4.03.853 7.607 1.574 8.636 2.428 3.462 9.843 3.725 13.52 4.561 5.041 1.147 12.122-2.273 18.244-.883 7.665 1.74 14.3 7.687 20.4 9.754 8.023 2.718 38.063 2.3 41-2.51 2.064-3.381 1.521-7.572-.37-11.118-2.536-2.198-11.693 1.252-12.092 8.833"/><path fill="#4e5256" d="M328.322 413.606a141.4 141.4 0 0 1-20.372 4.931l-.027 51.48-.023 41.54h26.056l3.679-39.617.178-1.923 5.8-62.5a1203 1203 0 0 1-10.866 4.611q-2.226.781-4.425 1.478M303.07 284.731h.688c18.357 2.736 19.4 25.808 18.357 36.42-.132 1.341-.306 2.8-.515 4.364-1.99 14.8-7.243 38.359-11.022 49.8l14.514-4.162 15.488-4.441c-6.427-57.331-18.781-96.384-18.809-96.472l-13.084 7.611-13.379 7.783a33.4 33.4 0 0 1 7.183-.885q.288-.014.579-.018m119.879 128.133-.115-3.393-.052-1.543.09-29.749-10.93.79-3.19.23-11.882.859.713 3.533-2.345 1.064-1 .451.181 19.291 9.451 64.477.168 1.143 5.719 39.023.017-.04v-.011h16.422l-2.323-68.577-.128-3.8-.14-4.124-.553-16.318zm-21.521-62.2 8.138-29.643 1.108.445.457.183.372.15 6.687 2.683.7 14.679 4.1-.285.049-16.163v-1.163a44 44 0 0 0 .132-4.7 45 45 0 0 0-.093-2.111c-1-14.3-8.375-25.986-20.891-33.533l-8.979-5.219.751 79.7zM341.9 852.06c-4.865-3.608-10.914-4.867-16.138-7.844a28 28 0 0 1-3.578-2.5l-19.472 8.271-1.227-1.551 19.1-8.075a55 55 0 0 1-3.34-3.231l.189.2-18.7 7.632-1.433-1.811 18.632-7.444.193.209a54 54 0 0 1-3.053-3.69l-18.852 7.034-1.442-1.821 19.055-6.949a32 32 0 0 1-1.768-2.9l.075.153-18.916 4.251-2.342.526-1.523-1.92 6.309-1.3 15.657-3.224-2.111-5.018-.132.03-23.136 5.2-.214-.27-1.321-1.668 1.3-.281 22.7-4.925 1.178-.256 5.609-24.453-3.1.278-26.742 2.4.074 5.709-24.244 7.142-1.4.412-5.372 24.884c-.713 1.879-.763 8.207-.35 13.7 3.008 7.357 15.462 10.661 29.672 10.577 9.419-.055 19.482 9.3 27.191 9.944a66.9 66.9 0 0 0 25.413-3.248c.4-7.581 9.556-11.032 12.094-8.833a16.2 16.2 0 0 0-4.535-5.34m90.745-13.203c-4.865-3.609-10.914-4.867-16.138-7.844a28 28 0 0 1-3.578-2.5l-19.472 8.271-1.227-1.551 19.1-8.075a55 55 0 0 1-3.339-3.231l.188.2-18.7 7.633-1.434-1.811 18.632-7.444.193.208a54 54 0 0 1-3.053-3.689l-18.852 7.034-1.442-1.822 19.055-6.949a32 32 0 0 1-1.768-2.9l.075.153-18.916 4.251-2.342.526-1.523-1.924 6.309-1.3 15.657-3.225-.169-.4-1.942-4.615-.132.03-1.569.353-12.08 2.715-6.844 1.538-2.643.594-.214-.27-.256-.324-1.064-1.344 1.3-.281 9.726-2.11 12.229-2.654.747-.162 1.178-.255 5.609-24.452-5.828.523L384.182 783l-10.075.9.074 5.71-25.643 7.554-1.083 5.017-4.289 19.867c-.713 1.879-.763 8.207-.35 13.7 3.008 7.357 15.462 10.66 29.672 10.577 9.419-.056 19.482 9.3 27.192 9.944a67 67 0 0 0 25.413-3.248c.4-7.582 9.555-11.033 12.094-8.833a16.2 16.2 0 0 0-4.542-5.331"/><path fill="#2e3033" d="M437.556 855.313c-2.937 4.812-32.977 5.228-41 2.51-6.1-2.067-12.737-8.015-20.4-9.754-6.122-1.39-13.2 2.03-18.244.883-3.677-.837-11.092-1.1-13.52-4.562-.721-1.028-1.271-4.605-1.574-8.635-.006-.015-.016-.028-.022-.043-2.886 1.721-.037 10.7 1.771 13.017a10.2 10.2 0 0 0 4.016 2.6l3.617 1.22c.722.2 1.444.372 2.148.523l3.665.55a17 17 0 0 0 2.207-.013l3.58-.461a38 38 0 0 1 5.848-.452c6.732 0 9.766 3.455 14.475 6.513l2.739 1.588q.777.396 1.63.759l3.47 1.18c.582.153 1.184.3 1.821.423l3.985.534.087.008q.929.07 1.865.118l3.922.114q.707.006 1.412 0l3.932-.1q.711-.033 1.416-.076l3.534-.27a118 118 0 0 0 2.008-.206l3.527-.453a90 90 0 0 0 1.457-.223l3.81-.7c5.932-1.218 10.3-2.794 11.549-4.182 3.439-3.816 3.44-11.328.9-13.53 1.89 3.548 2.433 7.738.369 11.12"/><path fill="#2e3033" d="M425.093 853.028a67 67 0 0 1-25.413 3.248c-7.71-.641-17.773-10-27.192-9.944-14.21.083-26.664-3.22-29.672-10.577.3 4.03.853 7.607 1.574 8.635 2.428 3.463 9.843 3.725 13.52 4.562 5.041 1.147 12.122-2.273 18.244-.883 7.665 1.739 14.3 7.687 20.4 9.754 8.023 2.718 38.063 2.3 41-2.51 2.064-3.382 1.521-7.572-.369-11.118-2.537-2.195-11.694 1.251-12.092 8.833"/><path fill="#c1c7cc" d="M745.394 714.419h137.59v72.064h-137.59zm67.28-340.656h7.661l.165.2a25.49 25.49 0 0 1 21.324 19.737l10.2-2.059c3.858-2.472 21.247 2.3 27.411.737l3.6-.418.108-2.886 6.051-.527v-62.5H741.378v147.805h147.813v-59.7l-6.969-.437.105-2.819c-.583-.1-1.131-.2-1.618-.286 0 0-29.988 4.809-38.909 2.1a23 23 0 0 1-2.055-.739 25.02 25.02 0 0 1-21.128 14.129l-.033.03h-5.91c-13.616 0-24.653-11.722-24.653-26.182s11.037-26.185 24.653-26.185M527.6 302.931l-7.184.1-25.326.507.047-.156-9.681.134c-.141 0-.28.012-.419.022a7.21 7.21 0 0 0-6.212 4.6l-26.9 70.08a7.14 7.14 0 0 0-.256 4.387c.039.148.094.29.142.435a7.19 7.19 0 0 0 6.945 4.97l32.878-.459 1.525-.021 7.742-.108a7 7 0 0 0 1.217-.124 7.21 7.21 0 0 0 5.413-4.5l1.583-4.122 3.768-9.816-10.128-6.619c-4.052-1.473-6.986-6.885-8.11-12.107a19 19 0 0 1-.384-6.376l28.634-.977 11.54-30.056a7.21 7.21 0 0 0-6.834-9.794M307.215 821.054l.373-2.169v-.002l-1.178.256-22.702 4.925-1.296.281 1.321 1.668.214.27 23.136-5.199zm2.851 6.534-.74-1.516-15.657 3.224-6.309 1.299 1.523 1.923 2.342-.526 18.916-4.251zm3.131 4.593-1.333-1.701-.03.011-19.055 6.949 1.442 1.821 18.852-7.034zm4.049 4.946q-.567-.6-1.12-1.21l-.193-.209-18.633 7.444 1.433 1.811 18.7-7.632zm3.34 3.231-19.104 8.075 1.227 1.551 19.472-8.271.066-.028-1.608-1.349zm75.676-32.125 1.569-.353.132-.03.373-2.169v-.001l-1.178.255-.747.162-12.229 2.654-9.726 2.11-1.295.281 1.064 1.344.256.324.214.27 2.643-.594 6.844-1.538zm4.552 6.152-.74-1.517-15.657 3.225-6.309 1.298 1.523 1.924 2.342-.526 18.916-4.251zm3.131 4.592-1.333-1.701-.03.011-19.055 6.949 1.442 1.822 18.852-7.034zm4.055 4.947q-.569-.6-1.121-1.211l-.193-.208-18.632 7.444 1.434 1.811 18.7-7.633zm3.334 3.231-19.104 8.075 1.227 1.551 19.472-8.271.066-.029-1.607-1.349z"/><path fill="#eff1f2" d="m987.644 267.67-1.466-.176-.217.224-3.75 3.857-10.646 10.954-5.8 5.969s-1.467-1.961-3.586-4.6c-2.093-2.609-4.822-5.877-7.4-8.579a56 56 0 0 0-1.924-1.926l-1.049 2.1-5.344 10.7-2.759 5.522-6.567-12.2-.53-.984-3.988 4.13-6.949 35.439 60.518-13.469c1.068-17.9 1.762-32.582 1.471-36.743-.005-.07-.008-.154-.014-.218m-34.797 5.722zm-564.371-.163-4.294-2.668-8.915-5.538c.242.3.475.616.7.935a10.23 10.23 0 0 1 2.161 5.684c0 6.008-3 15.023-3 15.023L370.479 281l-8.353-10.19c-2.611 3.866-8.312 8.845-12.441 12.2-2.731 2.219-4.775 3.728-4.775 3.728-.993-1.191-2.3-2.7-3.741-4.342a894 894 0 0 0-8.941-9.985 1543 1543 0 0 0-4.048-4.445l-.961-1.05-2.2 1.346 12.862 42.1h50.875l-.279-37.134zm856.067 92.181q.261-.836.554-1.658a4.5 4.5 0 0 0-.554 1.658"/></svg>