<svg xmlns="http://www.w3.org/2000/svg" xmlns:xlink="http://www.w3.org/1999/xlink" viewBox="0 0 1920 1080"><defs><linearGradient id="a" x1="963.534" x2="1613.62" y1="-746.208" y2="-746.208" data-name="Unbenannter Verlauf 25" gradientTransform="translate(-300.544 1415.446)" gradientUnits="userSpaceOnUse"><stop offset="0" stop-color="#942331"/><stop offset=".04" stop-color="#931813"/><stop offset=".08" stop-color="#b12638"/><stop offset=".12" stop-color="#af1917"/><stop offset=".13" stop-color="#b11917"/><stop offset=".15" stop-color="#cb1517"/><stop offset=".17" stop-color="#d51317"/><stop offset=".18" stop-color="#c41b2e"/><stop offset=".21" stop-color="#88357f"/><stop offset=".24" stop-color="#853580"/><stop offset=".26" stop-color="#6e368c"/><stop offset=".29" stop-color="#3a4190"/><stop offset=".32" stop-color="#14387f"/><stop offset=".42" stop-color="#312a6f"/><stop offset=".49" stop-color="#283587"/><stop offset=".56" stop-color="#1d61a1"/><stop offset=".59" stop-color="#347eac"/><stop offset=".63" stop-color="#50a2bb"/><stop offset=".66" stop-color="#5bb0c0"/><stop offset=".67" stop-color="#55aebf"/><stop offset=".69" stop-color="#46a7bc"/><stop offset=".71" stop-color="#2b9db7"/><stop offset=".74" stop-color="#008bae"/><stop offset=".83" stop-color="#009972"/><stop offset=".89" stop-color="#00a24c"/><stop offset="1" stop-color="#00937d"/></linearGradient><linearGradient id="b" x1="1148.846" x2="1068.693" y1="-746.208" y2="-746.208" data-name="Unbenannter Verlauf 10" gradientTransform="translate(-300.544 1415.446)" gradientUnits="userSpaceOnUse"><stop offset="0" stop-color="#88357f"/><stop offset=".34" stop-color="#88357f"/><stop offset=".72" stop-color="#8c2b58"/><stop offset="1" stop-color="#8f2540"/></linearGradient><linearGradient xlink:href="#a" id="o" x1="963.538" x2="1613.615" y1="-747.46" y2="-747.46" data-name="Unbenannter Verlauf 25"/><linearGradient id="c" x1="1395.758" x2="1210.56" y1="-1070.251" y2="-647.993" data-name="Unbenannter Verlauf 4" gradientTransform="translate(-300.544 1415.446)" gradientUnits="userSpaceOnUse"><stop offset="0" stop-color="#312a6f"/><stop offset=".24" stop-color="#312a6f"/><stop offset=".45" stop-color="#2c2d73"/><stop offset=".7" stop-color="#1e377f"/><stop offset=".96" stop-color="#064692"/><stop offset="1" stop-color="#024995"/></linearGradient><linearGradient xlink:href="#a" id="p" x1="963.538" x2="1613.615" y1="-747.46" y2="-747.46" data-name="Unbenannter Verlauf 25"/><linearGradient id="d" x1="1120.943" x2="1191.769" y1="-747.46" y2="-747.46" data-name="Unbenannter Verlauf 6" gradientTransform="translate(-300.544 1415.446)" gradientUnits="userSpaceOnUse"><stop offset="0" stop-color="#6e368c"/><stop offset="1" stop-color="#3a4190"/></linearGradient><linearGradient xlink:href="#a" id="q" x1="963.538" x2="1613.615" y1="-747.46" y2="-747.46" data-name="Unbenannter Verlauf 25"/><linearGradient id="e" x1="1244.826" x2="1148.85" y1="-747.46" y2="-747.46" data-name="Unbenannter Verlauf 8" gradientTransform="translate(-300.544 1415.446)" gradientUnits="userSpaceOnUse"><stop offset="0" stop-color="#14387f"/><stop offset=".22" stop-color="#19387f"/><stop offset=".47" stop-color="#273881"/><stop offset=".74" stop-color="#3f3983"/><stop offset="1" stop-color="#5c3986"/></linearGradient><linearGradient xlink:href="#a" id="r" x1="963.543" x2="1613.606" y1="-748.709" y2="-748.709" data-name="Unbenannter Verlauf 25"/><linearGradient xlink:href="#b" id="s" x1="1152.433" x2="1065.729" y1="-748.709" y2="-748.709" data-name="Unbenannter Verlauf 10"/><linearGradient xlink:href="#a" id="t" x1="963.538" x2="1613.615" y1="-747.46" y2="-747.46" data-name="Unbenannter Verlauf 25"/><linearGradient id="f" x1="1539.129" x2="1539.129" y1="-1086.652" y2="-408.265" data-name="Unbenannter Verlauf 12" gradientTransform="translate(-300.544 1415.446)" gradientUnits="userSpaceOnUse"><stop offset="0" stop-color="#94bd55"/><stop offset=".3" stop-color="#8cbc66"/><stop offset=".67" stop-color="#85bb73"/><stop offset="1" stop-color="#83bb78"/></linearGradient><linearGradient xlink:href="#a" id="u" x1="963.538" x2="1613.615" y1="-747.46" y2="-747.46" data-name="Unbenannter Verlauf 25"/><linearGradient id="g" x1="1301.955" x2="1675.453" y1="-1009.065" y2="-493.699" data-name="Unbenannter Verlauf 14" gradientTransform="translate(-300.544 1415.446)" gradientUnits="userSpaceOnUse"><stop offset="0" stop-color="#00a24c"/><stop offset=".27" stop-color="#00a053"/><stop offset=".64" stop-color="#009a65"/><stop offset="1" stop-color="#00937d"/></linearGradient><linearGradient xlink:href="#a" id="v" x1="963.538" x2="1613.615" y1="-747.46" y2="-747.46" data-name="Unbenannter Verlauf 25"/><linearGradient id="h" x1="1587.891" x2="1587.891" y1="-1086.652" y2="-408.265" data-name="Unbenannter Verlauf 16" gradientTransform="translate(-300.544 1415.446)" gradientUnits="userSpaceOnUse"><stop offset="0" stop-color="#689f60"/><stop offset=".15" stop-color="#4d9752"/><stop offset=".31" stop-color="#389147"/><stop offset=".49" stop-color="#298c40"/><stop offset=".69" stop-color="#208a3b"/><stop offset="1" stop-color="#1d893a"/></linearGradient><linearGradient xlink:href="#a" id="w" x1="963.538" x2="1613.615" y1="-747.46" y2="-747.46" data-name="Unbenannter Verlauf 25"/><linearGradient id="i" x1="1443.628" x2="1443.628" y1="-1086.652" y2="-408.265" data-name="Unbenannter Verlauf 18" gradientTransform="translate(-300.544 1415.446)" gradientUnits="userSpaceOnUse"><stop offset="0" stop-color="#00b5dd"/><stop offset=".28" stop-color="#00afd6"/><stop offset=".67" stop-color="#009ec3"/><stop offset="1" stop-color="#008bae"/></linearGradient><linearGradient xlink:href="#a" id="x" x1="963.543" x2="1613.615" y1="-747.46" y2="-747.46" data-name="Unbenannter Verlauf 25"/><linearGradient id="j" x1="1571.715" x2="1685.372" y1="-754.555" y2="-828.473" data-name="Unbenannter Verlauf 20" gradientTransform="translate(-300.544 1415.446)" gradientUnits="userSpaceOnUse"><stop offset="0" stop-color="#62b16e"/><stop offset="1" stop-color="#86b857"/></linearGradient><linearGradient xlink:href="#a" id="y" x1="963.538" x2="1613.615" y1="-747.46" y2="-747.46" data-name="Unbenannter Verlauf 25"/><linearGradient id="k" x1="1209.887" x2="1587.244" y1="-999.67" y2="-486.217" data-name="Unbenannter Verlauf 22" gradientTransform="translate(-300.544 1415.446)" gradientUnits="userSpaceOnUse"><stop offset="0" stop-color="#009ad2"/><stop offset=".22" stop-color="#0f9ecf"/><stop offset=".65" stop-color="#37a7c7"/><stop offset="1" stop-color="#5bb0c0"/></linearGradient><linearGradient xlink:href="#a" id="z" x1="963.538" x2="1613.615" y1="-747.46" y2="-747.46" data-name="Unbenannter Verlauf 25"/><linearGradient id="l" x1="1318.736" x2="1318.736" y1="-1086.652" y2="-408.265" data-name="Unbenannter Verlauf 24" gradientTransform="translate(-300.544 1415.446)" gradientUnits="userSpaceOnUse"><stop offset="0" stop-color="#174290"/><stop offset=".4" stop-color="#20559e"/><stop offset="1" stop-color="#327ab9"/></linearGradient><linearGradient xlink:href="#a" id="A" x1="963.538" x2="1613.615" y1="-747.46" y2="-747.46" data-name="Unbenannter Verlauf 25"/><linearGradient id="m" x1="1352.399" x2="1352.399" y1="-408.265" y2="-1086.651" data-name="Unbenannter Verlauf 26" gradientTransform="translate(-300.544 1415.446)" gradientUnits="userSpaceOnUse"><stop offset="0" stop-color="#3e9ac9"/><stop offset="1" stop-color="#1d61a1"/></linearGradient><linearGradient xlink:href="#a" id="C" x1="556.476" x2="827.865" y1="-1005.98" y2="-1005.98" data-name="Unbenannter Verlauf 25"/><linearGradient xlink:href="#b" id="D" x1="633.837" x2="600.376" y1="-1005.98" y2="-1005.98" data-name="Unbenannter Verlauf 10"/><linearGradient xlink:href="#a" id="E" x1="556.478" x2="827.863" y1="-1006.503" y2="-1006.503" data-name="Unbenannter Verlauf 25"/><linearGradient xlink:href="#c" id="F" x1="736.915" x2="659.601" y1="-1141.257" y2="-964.978" data-name="Unbenannter Verlauf 4"/><linearGradient xlink:href="#a" id="G" x1="556.478" x2="827.863" y1="-1006.503" y2="-1006.503" data-name="Unbenannter Verlauf 25"/><linearGradient xlink:href="#d" id="H" x1="622.189" x2="651.756" y1="-1006.503" y2="-1006.503" data-name="Unbenannter Verlauf 6"/><linearGradient xlink:href="#a" id="I" x1="556.478" x2="827.863" y1="-1006.503" y2="-1006.503" data-name="Unbenannter Verlauf 25"/><linearGradient xlink:href="#e" id="J" x1="673.906" x2="633.839" y1="-1006.503" y2="-1006.503" data-name="Unbenannter Verlauf 8"/><linearGradient xlink:href="#a" id="K" x1="556.479" x2="827.859" y1="-1007.024" y2="-1007.024" data-name="Unbenannter Verlauf 25"/><linearGradient xlink:href="#b" id="L" x1="635.335" x2="599.139" y1="-1007.024" y2="-1007.024" data-name="Unbenannter Verlauf 10"/><linearGradient xlink:href="#a" id="M" x1="556.478" x2="827.863" y1="-1006.503" y2="-1006.503" data-name="Unbenannter Verlauf 25"/><linearGradient xlink:href="#f" id="N" x1="796.767" x2="796.767" y1="-1148.104" y2="-864.9" data-name="Unbenannter Verlauf 12"/><linearGradient xlink:href="#a" id="O" x1="556.478" x2="827.863" y1="-1006.503" y2="-1006.503" data-name="Unbenannter Verlauf 25"/><linearGradient xlink:href="#g" id="P" x1="697.755" x2="853.678" y1="-1115.714" y2="-900.566" data-name="Unbenannter Verlauf 14"/><linearGradient xlink:href="#a" id="Q" x1="556.478" x2="827.863" y1="-1006.503" y2="-1006.503" data-name="Unbenannter Verlauf 25"/><linearGradient xlink:href="#h" id="R" x1="817.124" x2="817.124" y1="-1148.104" y2="-864.9" data-name="Unbenannter Verlauf 16"/><linearGradient xlink:href="#a" id="S" x1="556.478" x2="827.863" y1="-1006.503" y2="-1006.503" data-name="Unbenannter Verlauf 25"/><linearGradient xlink:href="#i" id="T" x1="756.899" x2="756.899" y1="-1148.104" y2="-864.9" data-name="Unbenannter Verlauf 18"/><linearGradient xlink:href="#a" id="U" x1="556.479" x2="827.863" y1="-1006.503" y2="-1006.503" data-name="Unbenannter Verlauf 25"/><linearGradient xlink:href="#j" id="V" x1="810.371" x2="857.819" y1="-1009.465" y2="-1040.323" data-name="Unbenannter Verlauf 20"/><linearGradient xlink:href="#a" id="W" x1="556.478" x2="827.863" y1="-1006.503" y2="-1006.503" data-name="Unbenannter Verlauf 25"/><linearGradient xlink:href="#k" id="X" x1="659.32" x2="816.854" y1="-1111.792" y2="-897.442" data-name="Unbenannter Verlauf 22"/><linearGradient xlink:href="#a" id="Y" x1="556.478" x2="827.863" y1="-1006.503" y2="-1006.503" data-name="Unbenannter Verlauf 25"/><linearGradient xlink:href="#l" id="Z" x1="704.761" x2="704.761" y1="-1148.104" y2="-864.9" data-name="Unbenannter Verlauf 24"/><linearGradient xlink:href="#a" id="aa" x1="556.478" x2="827.863" y1="-1006.503" y2="-1006.503" data-name="Unbenannter Verlauf 25"/><linearGradient xlink:href="#m" id="ab" x1="718.814" x2="718.814" y1="-864.9" y2="-1148.104" data-name="Unbenannter Verlauf 26"/><linearGradient xlink:href="#a" id="ad" x1="556.476" x2="827.865" y1="-827.019" y2="-827.019" data-name="Unbenannter Verlauf 25"/><linearGradient xlink:href="#b" id="ae" x1="633.837" x2="600.376" y1="-827.019" y2="-827.019" data-name="Unbenannter Verlauf 10"/><linearGradient xlink:href="#a" id="af" x1="556.478" x2="827.863" y1="-827.542" y2="-827.542" data-name="Unbenannter Verlauf 25"/><linearGradient xlink:href="#c" id="ag" x1="736.915" x2="659.601" y1="-962.296" y2="-786.017" data-name="Unbenannter Verlauf 4"/><linearGradient xlink:href="#a" id="ah" x1="556.478" x2="827.863" y1="-827.542" y2="-827.542" data-name="Unbenannter Verlauf 25"/><linearGradient xlink:href="#d" id="ai" x1="622.189" x2="651.756" y1="-827.542" y2="-827.542" data-name="Unbenannter Verlauf 6"/><linearGradient xlink:href="#a" id="aj" x1="556.478" x2="827.863" y1="-827.542" y2="-827.542" data-name="Unbenannter Verlauf 25"/><linearGradient xlink:href="#e" id="ak" x1="673.906" x2="633.839" y1="-827.542" y2="-827.542" data-name="Unbenannter Verlauf 8"/><linearGradient xlink:href="#a" id="al" x1="556.479" x2="827.859" y1="-828.063" y2="-828.063" data-name="Unbenannter Verlauf 25"/><linearGradient xlink:href="#b" id="am" x1="635.335" x2="599.139" y1="-828.063" y2="-828.063" data-name="Unbenannter Verlauf 10"/><linearGradient xlink:href="#a" id="an" x1="556.478" x2="827.863" y1="-827.542" y2="-827.542" data-name="Unbenannter Verlauf 25"/><linearGradient xlink:href="#f" id="ao" x1="796.767" x2="796.767" y1="-969.143" y2="-685.939" data-name="Unbenannter Verlauf 12"/><linearGradient xlink:href="#a" id="ap" x1="556.478" x2="827.863" y1="-827.542" y2="-827.542" data-name="Unbenannter Verlauf 25"/><linearGradient xlink:href="#g" id="aq" x1="697.755" x2="853.678" y1="-936.753" y2="-721.605" data-name="Unbenannter Verlauf 14"/><linearGradient xlink:href="#a" id="ar" x1="556.478" x2="827.863" y1="-827.542" y2="-827.542" data-name="Unbenannter Verlauf 25"/><linearGradient xlink:href="#h" id="as" x1="817.124" x2="817.124" y1="-969.143" y2="-685.939" data-name="Unbenannter Verlauf 16"/><linearGradient xlink:href="#a" id="at" x1="556.478" x2="827.863" y1="-827.542" y2="-827.542" data-name="Unbenannter Verlauf 25"/><linearGradient xlink:href="#i" id="au" x1="756.899" x2="756.899" y1="-969.143" y2="-685.939" data-name="Unbenannter Verlauf 18"/><linearGradient xlink:href="#a" id="av" x1="556.479" x2="827.863" y1="-827.542" y2="-827.542" data-name="Unbenannter Verlauf 25"/><linearGradient xlink:href="#j" id="aw" x1="810.371" x2="857.819" y1="-830.504" y2="-861.362" data-name="Unbenannter Verlauf 20"/><linearGradient xlink:href="#a" id="ax" x1="556.478" x2="827.863" y1="-827.542" y2="-827.542" data-name="Unbenannter Verlauf 25"/><linearGradient xlink:href="#k" id="ay" x1="659.32" x2="816.854" y1="-932.831" y2="-718.481" data-name="Unbenannter Verlauf 22"/><linearGradient xlink:href="#a" id="az" x1="556.478" x2="827.863" y1="-827.542" y2="-827.542" data-name="Unbenannter Verlauf 25"/><linearGradient xlink:href="#l" id="aA" x1="704.761" x2="704.761" y1="-969.143" y2="-685.939" data-name="Unbenannter Verlauf 24"/><linearGradient xlink:href="#a" id="aB" x1="556.478" x2="827.863" y1="-827.542" y2="-827.542" data-name="Unbenannter Verlauf 25"/><linearGradient xlink:href="#m" id="aC" x1="718.814" x2="718.814" y1="-685.939" y2="-969.143" data-name="Unbenannter Verlauf 26"/><linearGradient xlink:href="#a" id="aE" x1="1762.458" x2="1861.099" y1="-862.314" y2="-862.314" data-name="Unbenannter Verlauf 25"/><linearGradient xlink:href="#b" id="aF" x1="1790.576" x2="1778.414" y1="-862.314" y2="-862.314" data-name="Unbenannter Verlauf 10"/><linearGradient xlink:href="#a" id="aG" x1="1762.459" x2="1861.099" y1="-862.504" y2="-862.504" data-name="Unbenannter Verlauf 25"/><linearGradient xlink:href="#c" id="aH" x1="1828.042" x2="1799.941" y1="-911.483" y2="-847.411" data-name="Unbenannter Verlauf 4"/><linearGradient xlink:href="#a" id="aI" x1="1762.459" x2="1861.099" y1="-862.504" y2="-862.504" data-name="Unbenannter Verlauf 25"/><linearGradient xlink:href="#d" id="aJ" x1="1786.343" x2="1797.089" y1="-862.504" y2="-862.504" data-name="Unbenannter Verlauf 6"/><linearGradient xlink:href="#a" id="aK" x1="1762.459" x2="1861.099" y1="-862.504" y2="-862.504" data-name="Unbenannter Verlauf 25"/><linearGradient xlink:href="#e" id="aL" x1="1805.14" x2="1790.577" y1="-862.504" y2="-862.504" data-name="Unbenannter Verlauf 8"/><linearGradient xlink:href="#a" id="aM" x1="1762.459" x2="1861.097" y1="-862.693" y2="-862.693" data-name="Unbenannter Verlauf 25"/><linearGradient xlink:href="#b" id="aN" x1="1791.121" x2="1777.965" y1="-862.693" y2="-862.693" data-name="Unbenannter Verlauf 10"/><linearGradient xlink:href="#a" id="aO" x1="1762.459" x2="1861.099" y1="-862.504" y2="-862.504" data-name="Unbenannter Verlauf 25"/><linearGradient xlink:href="#f" id="aP" x1="1849.796" x2="1849.796" y1="-913.971" y2="-811.035" data-name="Unbenannter Verlauf 12"/><linearGradient xlink:href="#a" id="aQ" x1="1762.459" x2="1861.099" y1="-862.504" y2="-862.504" data-name="Unbenannter Verlauf 25"/><linearGradient xlink:href="#g" id="aR" x1="1813.809" x2="1870.482" y1="-902.199" y2="-823.999" data-name="Unbenannter Verlauf 14"/><linearGradient xlink:href="#a" id="aS" x1="1762.459" x2="1861.099" y1="-862.504" y2="-862.504" data-name="Unbenannter Verlauf 25"/><linearGradient xlink:href="#h" id="aT" x1="1857.195" x2="1857.195" y1="-913.971" y2="-811.035" data-name="Unbenannter Verlauf 16"/><linearGradient xlink:href="#a" id="aU" x1="1762.459" x2="1861.099" y1="-862.504" y2="-862.504" data-name="Unbenannter Verlauf 25"/><linearGradient xlink:href="#i" id="aV" x1="1835.306" x2="1835.306" y1="-913.971" y2="-811.035" data-name="Unbenannter Verlauf 18"/><linearGradient xlink:href="#a" id="aW" x1="1762.459" x2="1861.099" y1="-862.504" y2="-862.504" data-name="Unbenannter Verlauf 25"/><linearGradient xlink:href="#j" id="aX" x1="1854.741" x2="1871.987" y1="-863.58" y2="-874.796" data-name="Unbenannter Verlauf 20"/><linearGradient xlink:href="#a" id="aY" x1="1762.459" x2="1861.099" y1="-862.504" y2="-862.504" data-name="Unbenannter Verlauf 25"/><linearGradient xlink:href="#k" id="aZ" x1="1799.839" x2="1857.097" y1="-900.773" y2="-822.864" data-name="Unbenannter Verlauf 22"/><linearGradient xlink:href="#a" id="ba" x1="1762.459" x2="1861.099" y1="-862.504" y2="-862.504" data-name="Unbenannter Verlauf 25"/><linearGradient xlink:href="#l" id="bb" x1="1816.355" x2="1816.355" y1="-913.971" y2="-811.035" data-name="Unbenannter Verlauf 24"/><linearGradient xlink:href="#a" id="bc" x1="1762.459" x2="1861.099" y1="-862.504" y2="-862.504" data-name="Unbenannter Verlauf 25"/><linearGradient xlink:href="#m" id="bd" x1="1821.463" x2="1821.463" y1="-811.035" y2="-913.971" data-name="Unbenannter Verlauf 26"/><linearGradient xlink:href="#a" id="bf" x1="1700.692" x2="1741.872" y1="-901.73" y2="-901.73" data-name="Unbenannter Verlauf 25"/><linearGradient xlink:href="#b" id="bg" x1="1712.431" x2="1707.354" y1="-901.73" y2="-901.73" data-name="Unbenannter Verlauf 10"/><linearGradient xlink:href="#a" id="bh" x1="1700.693" x2="1741.872" y1="-901.81" y2="-901.81" data-name="Unbenannter Verlauf 25"/><linearGradient xlink:href="#c" id="bi" x1="1728.072" x2="1716.34" y1="-922.257" y2="-895.509" data-name="Unbenannter Verlauf 4"/><linearGradient xlink:href="#a" id="bj" x1="1700.693" x2="1741.872" y1="-901.81" y2="-901.81" data-name="Unbenannter Verlauf 25"/><linearGradient xlink:href="#d" id="bk" x1="1710.663" x2="1715.15" y1="-901.81" y2="-901.81" data-name="Unbenannter Verlauf 6"/><linearGradient xlink:href="#a" id="bl" x1="1700.693" x2="1741.872" y1="-901.81" y2="-901.81" data-name="Unbenannter Verlauf 25"/><linearGradient xlink:href="#e" id="bm" x1="1718.511" x2="1712.431" y1="-901.81" y2="-901.81" data-name="Unbenannter Verlauf 8"/><linearGradient xlink:href="#a" id="bn" x1="1700.693" x2="1741.871" y1="-901.889" y2="-901.889" data-name="Unbenannter Verlauf 25"/><linearGradient xlink:href="#b" id="bo" x1="1712.658" x2="1707.166" y1="-901.889" y2="-901.889" data-name="Unbenannter Verlauf 10"/><linearGradient xlink:href="#a" id="bp" x1="1700.693" x2="1741.872" y1="-901.81" y2="-901.81" data-name="Unbenannter Verlauf 25"/><linearGradient xlink:href="#f" id="bq" x1="1737.153" x2="1737.153" y1="-923.296" y2="-880.323" data-name="Unbenannter Verlauf 12"/><linearGradient xlink:href="#a" id="br" x1="1700.693" x2="1741.872" y1="-901.81" y2="-901.81" data-name="Unbenannter Verlauf 25"/><linearGradient xlink:href="#g" id="bs" x1="1722.13" x2="1745.789" y1="-918.381" y2="-885.735" data-name="Unbenannter Verlauf 14"/><linearGradient xlink:href="#a" id="bt" x1="1700.693" x2="1741.872" y1="-901.81" y2="-901.81" data-name="Unbenannter Verlauf 25"/><linearGradient xlink:href="#h" id="bu" x1="1740.242" x2="1740.242" y1="-923.296" y2="-880.323" data-name="Unbenannter Verlauf 16"/><linearGradient xlink:href="#a" id="bv" x1="1700.693" x2="1741.872" y1="-901.81" y2="-901.81" data-name="Unbenannter Verlauf 25"/><linearGradient xlink:href="#i" id="bw" x1="1731.104" x2="1731.104" y1="-923.296" y2="-880.323" data-name="Unbenannter Verlauf 18"/><linearGradient xlink:href="#a" id="bx" x1="1700.693" x2="1741.872" y1="-901.81" y2="-901.81" data-name="Unbenannter Verlauf 25"/><linearGradient xlink:href="#j" id="by" x1="1739.218" x2="1746.417" y1="-902.259" y2="-906.941" data-name="Unbenannter Verlauf 20"/><linearGradient xlink:href="#a" id="bz" x1="1700.693" x2="1741.872" y1="-901.81" y2="-901.81" data-name="Unbenannter Verlauf 25"/><linearGradient xlink:href="#k" id="bA" x1="1716.298" x2="1740.201" y1="-917.786" y2="-885.261" data-name="Unbenannter Verlauf 22"/><linearGradient xlink:href="#a" id="bB" x1="1700.693" x2="1741.872" y1="-901.81" y2="-901.81" data-name="Unbenannter Verlauf 25"/><linearGradient xlink:href="#l" id="bC" x1="1723.193" x2="1723.193" y1="-923.296" y2="-880.323" data-name="Unbenannter Verlauf 24"/><linearGradient xlink:href="#a" id="bD" x1="1700.693" x2="1741.872" y1="-901.81" y2="-901.81" data-name="Unbenannter Verlauf 25"/><linearGradient xlink:href="#m" id="bE" x1="1725.325" x2="1725.325" y1="-880.323" y2="-923.296" data-name="Unbenannter Verlauf 26"/><linearGradient xlink:href="#a" id="bG" x1="1700.692" x2="1741.872" y1="-875.157" y2="-875.157" data-name="Unbenannter Verlauf 25"/><linearGradient xlink:href="#b" id="bH" x1="1712.431" x2="1707.354" y1="-875.157" y2="-875.157" data-name="Unbenannter Verlauf 10"/><linearGradient xlink:href="#a" id="bI" x1="1700.693" x2="1741.872" y1="-875.236" y2="-875.236" data-name="Unbenannter Verlauf 25"/><linearGradient xlink:href="#c" id="bJ" x1="1728.072" x2="1716.34" y1="-895.683" y2="-868.935" data-name="Unbenannter Verlauf 4"/><linearGradient xlink:href="#a" id="bK" x1="1700.693" x2="1741.872" y1="-875.236" y2="-875.236" data-name="Unbenannter Verlauf 25"/><linearGradient xlink:href="#d" id="bL" x1="1710.663" x2="1715.15" y1="-875.236" y2="-875.236" data-name="Unbenannter Verlauf 6"/><linearGradient xlink:href="#a" id="bM" x1="1700.693" x2="1741.872" y1="-875.236" y2="-875.236" data-name="Unbenannter Verlauf 25"/><linearGradient xlink:href="#e" id="bN" x1="1718.511" x2="1712.431" y1="-875.236" y2="-875.236" data-name="Unbenannter Verlauf 8"/><linearGradient xlink:href="#a" id="bO" x1="1700.693" x2="1741.871" y1="-875.315" y2="-875.315" data-name="Unbenannter Verlauf 25"/><linearGradient xlink:href="#b" id="bP" x1="1712.658" x2="1707.166" y1="-875.315" y2="-875.315" data-name="Unbenannter Verlauf 10"/><linearGradient xlink:href="#a" id="bQ" x1="1700.693" x2="1741.872" y1="-875.236" y2="-875.236" data-name="Unbenannter Verlauf 25"/><linearGradient xlink:href="#f" id="bR" x1="1737.153" x2="1737.153" y1="-896.722" y2="-853.75" data-name="Unbenannter Verlauf 12"/><linearGradient xlink:href="#a" id="bS" x1="1700.693" x2="1741.872" y1="-875.236" y2="-875.236" data-name="Unbenannter Verlauf 25"/><linearGradient xlink:href="#g" id="bT" x1="1722.13" x2="1745.789" y1="-891.807" y2="-859.161" data-name="Unbenannter Verlauf 14"/><linearGradient xlink:href="#a" id="bU" x1="1700.693" x2="1741.872" y1="-875.236" y2="-875.236" data-name="Unbenannter Verlauf 25"/><linearGradient xlink:href="#h" id="bV" x1="1740.242" x2="1740.242" y1="-896.722" y2="-853.75" data-name="Unbenannter Verlauf 16"/><linearGradient xlink:href="#a" id="bW" x1="1700.693" x2="1741.872" y1="-875.236" y2="-875.236" data-name="Unbenannter Verlauf 25"/><linearGradient xlink:href="#i" id="bX" x1="1731.104" x2="1731.104" y1="-896.722" y2="-853.75" data-name="Unbenannter Verlauf 18"/><linearGradient xlink:href="#a" id="bY" x1="1700.693" x2="1741.872" y1="-875.236" y2="-875.236" data-name="Unbenannter Verlauf 25"/><linearGradient xlink:href="#j" id="bZ" x1="1739.218" x2="1746.417" y1="-875.685" y2="-880.368" data-name="Unbenannter Verlauf 20"/><linearGradient xlink:href="#a" id="ca" x1="1700.693" x2="1741.872" y1="-875.236" y2="-875.236" data-name="Unbenannter Verlauf 25"/><linearGradient xlink:href="#k" id="cb" x1="1716.298" x2="1740.201" y1="-891.212" y2="-858.688" data-name="Unbenannter Verlauf 22"/><linearGradient xlink:href="#a" id="cc" x1="1700.693" x2="1741.872" y1="-875.236" y2="-875.236" data-name="Unbenannter Verlauf 25"/><linearGradient xlink:href="#l" id="cd" x1="1723.193" x2="1723.193" y1="-896.722" y2="-853.75" data-name="Unbenannter Verlauf 24"/><linearGradient xlink:href="#a" id="ce" x1="1700.693" x2="1741.872" y1="-875.236" y2="-875.236" data-name="Unbenannter Verlauf 25"/><linearGradient xlink:href="#m" id="cf" x1="1725.325" x2="1725.325" y1="-853.75" y2="-896.722" data-name="Unbenannter Verlauf 26"/><clipPath id="n"><path fill="none" d="M662.994 665.486h650.077v5H662.994z"/></clipPath><clipPath id="B"><path fill="none" d="M255.934 407.9h271.385v2.087H255.934z"/></clipPath><clipPath id="ac"><path fill="none" d="M255.934 586.861h271.385v2.087H255.934z"/></clipPath><clipPath id="aD"><path fill="none" d="M1461.915 552.563h98.64v.759h-98.64z"/></clipPath><clipPath id="be"><path fill="none" d="M1400.149 513.478h41.179v.317h-41.179z"/></clipPath><clipPath id="bF"><path fill="none" d="M1400.149 540.052h41.179v.317h-41.179z"/></clipPath></defs><path fill="#eff1f2" d="M205.937 104.079h1199.618v647.383H205.937z"/><path fill="#8a9097" d="M205.755 104.079h1199.799v40.237H205.755z"/><path fill="#c1c7cc" d="M205.755 144.316h1199.799v83.091H205.755zM205.755 751.294h1199.799v34.014H205.755z"/><circle cx="228.502" cy="123.681" r="9.265" fill="#fff"/><circle cx="258.05" cy="123.681" r="9.265" fill="#fff"/><circle cx="287.598" cy="123.681" r="9.265" fill="#fff"/><path fill="#8a9097" d="M205.755 227.407h365.334v523.321H205.755z"/><path fill="#fff" d="M255.934 258.555h264.564v147.718H255.934zM255.934 437.421h271.385v151.527H255.934z"/><circle cx="1088.78" cy="472.505" r="1.383" fill="#fff"/><circle cx="1093.164" cy="472.659" r="1.383" fill="#fff"/><circle cx="1097.41" cy="472.505" r="1.383" fill="#fff"/><path fill="#e8b6e3" d="m607.098 349.539-7.562-1.743a44.3 44.3 0 0 0 6.862 4.245z"/><path fill="#9e2896" d="M535.043 933.509"/><path fill="#d0d4d8" d="M0 943.567h1920V1080H0z"/><path fill="#e0e2e5" d="M278.558 722.087c-4.94-1.92-9.91-3.78-14.94-5.43a124 124 0 0 0-16.51-4 88.5 88.5 0 0 0-21.3-1.19 66.4 66.4 0 0 0-21.32 4.84 63.4 63.4 0 0 0-22 15 65.7 65.7 0 0 0-10.23 13.83l-.3-51.42c4.88 3.46 11.42 6.86 16.37 7.85a42.5 42.5 0 0 0 16.93-.16 63.7 63.7 0 0 0 20.49-8.43 87 87 0 0 0 14.19-10.6c4.78-4.46 9.43-9.06 14.05-13.68 1.66-1.65 3.08-3.52 4.83-5.54-4-1.78-7.8-3.53-11.64-5.12a92.2 92.2 0 0 0-17.8-5.3c-3-.59-6.14-.82-9.22-1.15a41 41 0 0 0-5.66-.38 65 65 0 0 0-20.48 3.49 44.2 44.2 0 0 0-18.53 12.4 35.3 35.3 0 0 0-3.66 5.06l-.2-33.67a16.4 16.4 0 0 0 6.65 1.88c2.781.215 5.578.094 8.33-.36a76.6 76.6 0 0 0 13.87-3.89 151 151 0 0 0 24.76-12.25c5.46-3.28 10.77-6.8 16.07-10.33 4.27-2.84 8.41-5.85 12.82-8.94l-4.5-1.18a116 116 0 0 0-16-3.06 97 97 0 0 0-9.82-.48 66 66 0 0 0-7.81.11 63 63 0 0 0-11.79 2.2 51 51 0 0 0-12.36 5.43 47.3 47.3 0 0 0-12.46 11.3 44.4 44.4 0 0 0-6 10c-.62 1.46-1.23 2.94-1.86 4.45l-.3-51.26c1.13 1 2.25 2 3.4 3a31.25 31.25 0 0 0 18.86 7.2 47 47 0 0 0 5.54-.28 37.4 37.4 0 0 0 9.92-2.11 76.6 76.6 0 0 0 21.79-11.76c4-3 7.72-6.18 11.54-9.33 1-.85 1.92-1.87 2.87-2.82a4 4 0 0 0-.53-.55c-3.1-1.81-6.14-3.73-9.32-5.38a79.7 79.7 0 0 0-15.15-6 60.8 60.8 0 0 0-15-2.18 56 56 0 0 0-7.73.64 36 36 0 0 0-14.91 5.24 28 28 0 0 0-8.68 8c-.9 1.35-1.78 2.74-2.7 4.18l-.12-21.11a74 74 0 0 0 11.48-1.2 48.4 48.4 0 0 0 16.23-6.11 50.5 50.5 0 0 0 15.81-15.18 67 67 0 0 0 8.71-18.57c.41-1.34.67-2.72 1-4.22-.39.08-.55.1-.71.15-.41.14-.82.28-1.21.45a170 170 0 0 0-18.64 8.73c-3.83 2.16-7.66 4.31-11.4 6.61a84.6 84.6 0 0 0-12.59 9.47 41.5 41.5 0 0 0-7 7.92c-1.26 1.92-2.19 4.07-3.33 6.25-.12-.6-.51-2.45-.64-3-1.42-6.61-4.72-12.32-8.55-17.75a90 90 0 0 0-8.14-10.12c-3-3.14-5.8-6.45-8.94-9.44-4.21-4-8.63-7.8-13-11.63-1.77-1.54-3.65-2.94-5.51-4.43a1.8 1.8 0 0 0-.17.45 92 92 0 0 0 .61 14.63 77 77 0 0 0 2.76 12.06 54 54 0 0 0 6.63 13.84 51 51 0 0 0 10 11.17 58 58 0 0 0 11.7 7.49 64 64 0 0 0 9.59 3.69l-.25 21.83a27.5 27.5 0 0 0-4.5-7 36 36 0 0 0-15.11-10.11 53.1 53.1 0 0 0-16.7-2.85 34 34 0 0 0-4.62.31c-2.51.27-5 .46-7.52.94a75.2 75.2 0 0 0-14.52 4.32c-3.13 1.3-6.2 2.72-9.49 4.17 1.42 1.65 2.59 3.18 3.94 4.53 3.77 3.76 7.56 7.52 11.45 11.15a71.3 71.3 0 0 0 11.58 8.65 51.8 51.8 0 0 0 16.71 6.87 34.55 34.55 0 0 0 13.81.14c4.56-.91 10.76-4.33 14.82-7.49l-.52 45.07c-.26-.4-.52-.8-.73-1.2a53 53 0 0 0-8.8-12.13 52 52 0 0 0-18-12.23 53.8 53.8 0 0 0-17.42-3.91 71.8 71.8 0 0 0-17.37 1 103 103 0 0 0-13.47 3.24c-4.11 1.35-8.16 2.87-12.18 4.43-2.5 1-4.91 2.17-7.44 3.31.3.19.45.3.61.38 7.57 3.83 15.19 7.54 23 10.79 5.37 2.22 10.72 4.5 16.18 6.45 9.3 3.32 18.72 6.21 28.55 7.64 3.12.45 6.25.68 9.38.92a35 35 0 0 0 9-.73 23.4 23.4 0 0 0 8.57-3.26l-.34 30.18a55 55 0 0 0-.9 8.84c-1.34-2.1-2.57-4.08-3.88-6a34 34 0 0 0-10.64-9.79 43.9 43.9 0 0 0-18.27-6.42 66 66 0 0 0-9.48-.79 74 74 0 0 0-18.35 2.67 98 98 0 0 0-18.58 7.3c-3.9 2-7.62 4.39-11.42 6.61a4.2 4.2 0 0 0-.65.67c1.17 1.16 2.25 2.42 3.52 3.46 4.67 3.86 9.3 7.8 14.14 11.44a94.4 94.4 0 0 0 26.71 14.42 46.4 46.4 0 0 0 12.17 2.58c2.255.241 4.522.358 6.79.35 8.62-.53 16.45-3.23 23.12-8.88 1.56-1.32 3.07-2.68 4.61-4 .5 2.28.25 61-.3 64.47-1-2.31-1.86-4.51-2.78-6.7a54 54 0 0 0-7.33-12.27 57.7 57.7 0 0 0-15.27-13.85 62.5 62.5 0 0 0-15.15-6.66 79.3 79.3 0 0 0-14.46-2.7 80 80 0 0 0-9.58-.14c-4 .1-8.06.1-12 .6a142 142 0 0 0-19.57 3.75l-5.52 1.45c5.41 3.78 10.49 7.47 15.72 10.95 6.49 4.33 13 8.65 19.7 12.67a186.6 186.6 0 0 0 30.35 15 93 93 0 0 0 17 4.76c3.373.559 6.801.71 10.21.45a19.9 19.9 0 0 0 8.77-2.65v24.77l-.25 22h-69.16l24.18 139.69h101.81l24.18-139.69h-71.27l-.29-49.48a31.2 31.2 0 0 0 9 3.1 43 43 0 0 0 11.07.89c3.84-.29 7.67-.57 11.5-1.13 12.05-1.75 23.6-5.29 35-9.36 6.7-2.39 13.26-5.19 19.84-7.91 9.61-4 19-8.53 28.23-13.22.2-.1.39-.24.76-.47-3.03-1.55-5.98-2.99-9.04-4.21"/><path fill="#43464a" d="M1462.561 610.805h61.92v8.37h-61.92z"/><path fill="#43464a" d="m1488.141 518.535-8.96 68.19-1.44 10.96-2.82 21.5h-36.67l3.55-21.5 1.82-10.96 11.27-68.19z" data-name="Path"/><path fill="#8a9097" d="m1488.141 518.535 36.34 68.19h-45.3z" data-name="Path"/><path fill="#8a9097" fill-rule="evenodd" d="m1820.291 942.985-9.89-191.53h-85.89l-9.89 191.53h-12.37l16.19-313.44h12.36l-5.65 109.55h84.61l-5.66-109.55h12.37l16.18 313.44z" data-name="Path"/><path fill="#c1c7cc" d="M1541.641 617.185h349.25v12.36h-349.25z" data-name="Rectangle"/><rect width="203.66" height="132.32" x="1374.631" y="454.415" fill="#8a9097" data-name="Rectangle" rx="10.28" ry="10.28"/><rect width="203.66" height="132.32" x="1381.731" y="454.415" fill="#d0d4d8" data-name="Rectangle" rx="10.28" ry="10.28"/><path fill="#551151" d="m1679.421 631.225-.28.13-119.49 45.09c28.29 2.35 36.86 16.49 46.19 49.71 102.15-19.84 167.22-.69 169.28-56.55l-22.27-9-73.34-29.47z" data-name="Path"/><path fill="#551151" d="m1559.651 676.445 3.53 39.39 21.45 193.94 3.83 1.54 25.2 9c11.47-109.35 12.13-169.1 2.94-202.17s-28.58-39.25-56.95-41.7" data-name="Path"/><path fill="#d0d4d8" fill-rule="evenodd" d="m1802.201 707.605-84.12.27-84.12-.27c.022 11.52 9.37 20.846 20.89 20.84h3.87l-11.85 213.83h13.39l11.85-213.71 40.66.17h10.62l40.66-.17 11.85 213.71h13.39l-11.85-213.77h3.87a20.88 20.88 0 0 0 20.89-20.9" data-name="Path"/><path fill="#551151" d="m1712.011 709.265-22 1.11c7.83-.48 15.16-.81 22-1.11" data-name="Path"/><path fill="#791d73" d="M1789.811 641.855c1.47 73.17-31.41 65.41-77.8 67.41-6.84.3-14.17.63-22 1.11l-65.62 3.32-60.54 3.05-44.24-50.48 162.27-38.07z" data-name="Path"/><path fill="#383b3e" d="m1479.181 586.725-1.44 10.96h-35.94l1.82-10.96z" data-name="Path"/><path fill="#e8b6e3" d="M1537.281 612.795c3 3.33 23 2.93 30.55 2.49 9.41-.56 21-21.14 21-21.14h-31.11zM1823.931 617.185h-37.87v-22.11h34.14z" data-name="Path"/><path fill="#e552da" d="m1822.541 615.825 1.05-.2s-15.12-91.11-22-121.1c-4.1-17.86-28.33-27.41-36.64-30.92-18.38 4.11-9.12 35.24-7.28 45.9 4.41 25.87 11.09 56.14 14.55 71.5 25.57-.36 45.39 9.1 50.32 34.82" data-name="Path"/><path fill="#e552da" d="M1788.721 580.145c4.24 13.6 2.84 36.35 35.21 37l-7.94-43.36z" data-name="Path"/><path fill="#f0dcee" d="M1736.461 424.775s-.25-.62-.6-1.61c3.22-4 12.15-16 7.23-21.43-3.7-4.15-8.87 1.89-12.1 6.85-.1-.52-.21-1-.32-1.43-1.06-5.69-.8-21.46-.8-21.46s-13.79-6.67-27.4-4.6c-6.35 1-13.32 5.76-15.32 8.18.15 5.92.72 17.29 1.76 23.14.4 2.24.86 4.57 1.47 6.91 3.64 14.25 6.73 21.12 6.73 21.12a45 45 0 0 0 11.1 2.14c-.29 2.6-.68 5.35-1 8.1-1.37 10.72-2.76 20.93-2.76 20.93l39.94.49z" data-name="Path"/><path fill="#e48cdd" d="m1778.101 470.045-31.91-15.6-43.35.71-28.66 20.29a22.57 22.57 0 0 0-9.46 14.22c-1.84 8.45.07 18.37 1.69 28.59l8.75 65.11v.22l6.76 44.61c59.62 29.38 107.91 13.66 107.91 13.66 20-89.07 5.53-128.84-.17-156.85a21.4 21.4 0 0 0-11.56-14.96" data-name="Path"/><path fill="#e552da" d="M1748.771 390.905c-1.13-41.12-39.36-35.64-43.7-28.46-13.54-6.09-38.61 13.48-17.84 28.18a17.14 17.14 0 0 1 8.39-5.53c.18 5 .94 14.43 2.44 24.61 1.81 12.33 10.44 12.66 17.23 26.6.9 1.86 3.23 2.13 5.23 2.63 3.13.79 10.15 1.14 12.67.44s4.55-1.48 4.93-4c2.09-13.88 11.13-27.19 10.65-44.47" data-name="Path"/><path fill="#f0dcee" d="M1699.461 423.235c2.27-4.08 8.6-16.3 5.46-21.58-2.36-4-6 2.13-8.3 7.17z" data-name="Path"/><path fill="#e8b6e3" d="m1708.211 442.625.55-3.49-11.65 1.31a45 45 0 0 0 11.1 2.18" data-name="Path"/><path fill="#656a6f" d="M1501.041 604.945h127.72v12.24h-127.72z" data-name="Rectangle"/><path fill="#9e2896" d="m1519.631 666.255-24.62 242.82 32.7 9.48s49.36-152.33 36.16-201.81c-8.27-31.01-44.24-50.49-44.24-50.49" data-name="Path"/><path fill="#e552da" d="M1706.721 502.645h-42.52c.43 5 1.35 10.27 2.19 15.61l8.75 65.11v.22l6.76 44.61a177 177 0 0 0 31.42 12c.24-36.92-4.04-104.26-6.6-137.55" data-name="Path"/><path fill="#e8b6e3" d="M1702.281 617.165s5.92-86.46 4.45-114.52c-.46-8.83-6.42-27.7-25.33-27.551-18.41.151-17.44 18.941-17.44 27.551 0 27 2.5 114.52 2.5 114.52z" data-name="Path"/><path fill="#f0dcee" d="M1647.961 587.575c-17 1.34-33 7.35-51.52 11.07l-7.61-4.5h-31.11s11 11.77 17 16.89c7.2 6.15 24 6.15 30.34 6.15h97.2c-20.37-.74-36.54-15.2-36.54-30.38-6.1-.1-12.25.34-17.76.77" data-name="Path"/><path fill="#8a9097" d="M1335.721 617.185v12.36h51.29l-16.18 313.44h12.36l9.89-191.54h87.56l9.89 191.53h12.37l-16.18-313.43h54.93v-12.36zm58 121.91 5.66-109.55h75l5.65 109.55z"/><path fill="#d0d4d8" d="M1406.591 475.095h42.23v42.23h-42.23zM1532.321 472.145h35.44v32.67h-35.44z" data-name="Rectangle"/><path fill="#340731" d="m1435.851 931.995.15.22a29 29 0 0 0 22.49 10.66h75.76l-6.61-24.43-32.7-9.48-59.09 23zm148.78-22.19-43 22.19.15.22a29 29 0 0 0 22.49 10.66h54.45l-4.55-22.27-.59-.22z" data-name="Path"/><path fill="#8a9097" d="M1019.579 478.299h135.127v14.344h-135.127z"/><path fill="#fff" d="M663.573 307.746h649.498V670.39H663.573z"/><path fill="#ed0007" fill-rule="evenodd" d="M1224.424 637.952a3.92 3.92 0 0 0 2.503-3.698c0-3.328-2.361-4.978-5.603-4.978h-8.505v18.09h9.244c2.844 0 5.632-1.991 5.632-5.035 0-3.612-3.271-4.352-3.271-4.38Zm-7.167-4.921h3.299a1.613 1.613 0 0 1 1.707 1.706 1.686 1.686 0 0 1-1.792 1.65h-3.214zm3.327 10.553h-3.328v-3.555h3.243c1.621 0 2.389.711 2.389 1.764 0 1.308-.967 1.792-2.304 1.792Zm16.896-14.762c-5.234 0-8.306 4.181-8.306 9.472 0 5.319 3.072 9.472 8.306 9.472 5.262 0 8.306-4.153 8.306-9.472 0-5.291-3.043-9.472-8.306-9.472m0 14.62c-2.56 0-3.84-2.304-3.84-5.148s1.28-5.12 3.84-5.12 3.868 2.304 3.868 5.12c0 2.873-1.308 5.148-3.868 5.148m17.948-7.054-.626-.142c-1.536-.313-2.759-.711-2.759-1.82 0-1.195 1.166-1.678 2.19-1.678a5.1 5.1 0 0 1 3.698 1.678l2.816-2.787c-1.28-1.451-3.356-2.844-6.599-2.844-3.811 0-6.713 2.133-6.713 5.689 0 3.243 2.332 4.835 5.177 5.433l.626.142c2.361.484 3.243.853 3.243 1.991 0 1.081-.967 1.792-2.446 1.792-1.764 0-3.356-.768-4.579-2.332l-2.873 2.844c1.593 1.906 3.612 3.385 7.509 3.385 3.385 0 6.997-1.934 6.997-5.888.057-4.124-3.072-4.921-5.66-5.461Zm15.786 7.054c-1.991 0-4.067-1.65-4.067-5.262 0-3.214 1.934-5.006 3.954-5.006 1.593 0 2.531.74 3.271 2.019l3.641-2.418c-1.82-2.759-3.982-3.925-6.969-3.925-5.461 0-8.419 4.238-8.419 9.358 0 5.376 3.271 9.586 8.362 9.586 3.584 0 5.291-1.252 7.139-3.925l-3.669-2.475c-.74 1.195-1.536 2.048-3.243 2.048M1290.158 629.277v6.656h-5.49v-6.656h-4.75v18.09h4.75v-7.14h5.49v7.14h4.75v-18.09z"/><path d="M1185.457 624.669c-7.572 0-13.71 6.138-13.71 13.71s6.138 13.71 13.71 13.71 13.71-6.138 13.71-13.71c-.004-7.57-6.14-13.706-13.71-13.71m0 26.14c-6.865 0-12.43-5.565-12.43-12.43s5.565-12.43 12.43-12.43 12.43 5.565 12.43 12.43c-.007 6.862-5.568 12.423-12.43 12.43"/><path d="M1191.117 629.817h-.939v4.693h-9.415v-4.693h-.967c-4.728 3.12-6.032 9.483-2.912 14.211a10.3 10.3 0 0 0 2.912 2.912h.967v-4.693h9.415v4.693h.939c4.728-3.12 6.032-9.483 2.912-14.211a10.3 10.3 0 0 0-2.912-2.912m-11.662 15.274a8.98 8.98 0 0 1 0-13.425zm10.723-4.152h-9.415v-5.148h9.415zm1.28 4.124v-13.396a9.006 9.006 0 0 1 0 13.397Z"/><g clip-path="url(#n)"><path fill="url(#a)" d="M820.012 670.488h.59l-.208-2.499z"/><path fill="url(#b)" d="M820.012 670.488h.59l-.208-2.499z"/><path fill="url(#o)" d="M922.382 670.488h62.499v-5.002H922.4l-.166 2.503z"/><path fill="url(#c)" d="M922.382 670.488h62.499v-5.002H922.4l-.166 2.503z"/><path fill="url(#p)" d="M820.602 670.488h70.305l.318-2.499-.295-2.503h-70.305l-.226 2.503z"/><path fill="url(#d)" d="M820.602 670.488h70.305l.318-2.499-.295-2.503h-70.305l-.226 2.503z"/><path fill="url(#q)" d="M890.907 670.488h31.475l-.143-2.499.161-2.503h-31.466l.29 2.503-.318 2.499Z"/><path fill="url(#e)" d="M890.907 670.488h31.475l-.143-2.499.161-2.503h-31.466l.29 2.503-.318 2.499Z"/><path fill="#af1917" d="M743.197 670.488h5.468l-.143-2.499.138-2.503h-5.463l.599 2.503z"/><path fill="url(#r)" d="M820.625 665.485h-.618l.392 2.503z"/><path fill="url(#s)" d="M820.625 665.485h-.618l.392 2.503z"/><path fill="#b12638" d="m743.197 670.488.595-2.499-.595-2.503h-30.189v5.002z"/><path fill="#942331" d="M713.008 665.485h-50.014v5.002h50.014z"/><path fill="#d51317" d="M748.665 670.488h71.342l.387-2.499-.392-2.503H748.66l-.138 2.503z"/><path fill="url(#t)" d="M1259.443 670.488c-.175-1.667-.337-3.335-.53-5.002h-41.185c.175 1.667.355 3.335.53 5.002z"/><path fill="url(#f)" d="M1259.443 670.488c-.175-1.667-.337-3.335-.53-5.002h-41.185c.175 1.667.355 3.335.53 5.002z"/><path fill="url(#u)" d="M1218.267 670.488c-.175-1.667-.355-3.335-.53-5.002h-53.126l-.341 5.002h53.998Z"/><path fill="url(#g)" d="M1218.267 670.488c-.175-1.667-.355-3.335-.53-5.002h-53.126l-.341 5.002h53.998Z"/><path fill="url(#v)" d="M1313.071 670.488v-5.002h-50.895l-.553 5.002z"/><path fill="url(#h)" d="M1313.071 670.488v-5.002h-50.895l-.553 5.002z"/><path fill="url(#w)" d="m1164.274 670.488.337-5.002h-43.052q.158 2.501.309 5.002z"/><path fill="url(#i)" d="m1164.274 670.488.337-5.002h-43.052q.158 2.501.309 5.002z"/><path fill="#283587" d="m1000.668 670.488.115-2.499-.115-2.503h-15.791v5.002z"/><path fill="url(#x)" d="M1261.623 670.488q.283-2.501.553-5.002h-3.278c.175 1.667.337 3.335.53 5.002z"/><path fill="url(#j)" d="M1261.623 670.488q.283-2.501.553-5.002h-3.278c.175 1.667.337 3.335.53 5.002z"/><path fill="url(#y)" d="M1121.867 670.488q-.15-2.501-.309-5.002h-53.564q-.07 2.501-.148 5.002z"/><path fill="url(#k)" d="M1121.867 670.488q-.15-2.501-.309-5.002h-53.564q-.07 2.501-.148 5.002z"/><path fill="url(#z)" d="M1000.668 670.488h35.049v-5.002h-35.049l.12 2.503z"/><path fill="url(#l)" d="M1000.668 670.488h35.049v-5.002h-35.049l.12 2.503z"/><path fill="url(#A)" d="M1067.851 670.488c.046-1.667.097-3.335.143-5.002h-32.278v5.002z"/><path fill="url(#m)" d="M1067.851 670.488c.046-1.667.097-3.335.143-5.002h-32.278v5.002z"/></g><path fill="#c1c7cc" d="M662.994 307.907h325.328v300.607H662.994z"/><path fill="#e0e2e5" d="M988.322 307.907h325.328v300.607H988.322z"/><path fill="#43464a" fill-rule="evenodd" d="m721.139 542.302 64.621-64.658 66.17 63.935z" data-name="Path-9"/><path fill="#8a9097" fill-rule="evenodd" d="m786.592 541.94 79.91-95.29 81.923 94.395z"/><ellipse cx="740.807" cy="439.647" fill="#fff" rx="20.229" ry="19.908"/><path fill="#8a9097" d="M1019.579 368.44h209.595v28.688h-209.595zM1019.579 425.55h135.127v14.344h-135.127zM1019.579 451.925h182.012v14.344h-182.012z"/><path fill="#fff" d="M697.954 174.573h161.365v175.345H697.954zM891.266 174.573h161.365v175.345H891.266z"/><path fill="#43464a" d="m731.152 179.108 10.173-.798-20.732-17.595.629 27.437 9.176-8.985z"/><path fill="#fff" d="m719.072 193.436 12.326-12.069 15.597-1.224-28.788-24.432zm22.253-15.126-10.173.798-.754.059-9.176 8.985-.629-27.438 20.732 17.595Z"/><text fill="#43464a" font-size="30.725" transform="translate(718.093 258.555)"><tspan font-family="BoschSans-Regular,&quot;Bosch Sans&quot;"><tspan x="0" y="0" letter-spacing=".012em">A</tspan><tspan x="19.756" y="0">aBbCc</tspan></tspan><tspan font-family="BoschSans-Bold,&quot;Bosch Sans&quot;" font-weight="700"><tspan x="0" y="36.87" letter-spacing=".006em">A</tspan><tspan x="22.306" y="36.87">aBbCc</tspan></tspan></text><path fill="#43464a" d="m961.125 268.985 1.638 1.638-4.094 4.094-1.638-1.638zm22.329-30.559-2.022-1.13-4.122 7.377 2.022 1.13zm3.619 16.013 7.387-4.112-1.126-2.024-7.387 4.112zm-3.02-5.106 5.732-5.732-1.638-1.638-5.732 5.732zm-10.645-5.732 14.739 14.739-4.913 4.913c-1.753 1.753-3.835 2.852-6.021 3.18-2.937.44-4.985 1.275-6.262 2.552l-12.3 12.301-8.169-8.209 12.281-12.281c1.289-1.289 2.117-3.357 2.533-6.324.299-2.13 1.375-4.135 3.198-5.958zm11.464 14.739-11.464-11.464-3.275 3.275c-1.46 1.46-2.315 3.022-2.542 4.642-.489 3.484-1.532 5.983-3.19 7.64l-10.647 10.647 4.902 4.926 10.658-10.659c1.64-1.64 4.112-2.689 7.557-3.205 1.692-.253 3.326-1.127 4.726-2.527zm8.928-56.434h-4.801v-1.294c-.022-1.062-1.146-4.62-14.697-5.783-4.121-.353-13.065-.01-16.062 2.41-2.947 2.379-5.899 7.888-7.178 13.397-.275 1.183-1.488 7.326 1.625 12.091 1.771 2.711 4.171 3.182 5.622 3.182q.162 0 .307-.007c2.094-.097 4.093-1.179 4.861-2.632.535-1.013 1.16-2.73 1.753-4.562h5.164l1.083-3.6h2.474l.899-5.153c.401.091.725.187.971.269a1.55 1.55 0 0 0 1.528 1.283h4.082c.5 0 .982-.21 1.321-.576l1.655-2.234c.205-.207.459-.362.74-.45l2.176-.686a2.38 2.38 0 0 0 1.676-2.277v-.978h4.801zm-21.867 10.802h-2.24l-1.083 3.6h-2.636c.802-2.687 1.421-5.072 1.471-5.263l.002.023.007-.052c.072-.193.655-1.436 3.661-1.436h.049q.701.002 1.308.042l-.538 3.085Zm14.669-7.436-2.176.686a4.2 4.2 0 0 0-1.819 1.149l-1.482 1.999h-3.111c-.17-.401-.469-.789-.938-.978-.88-.355-2.817-.949-5.906-.949h-.056c-4.145 0-5.714 2.046-5.997 3.283-.123.473-2.367 9.046-3.761 11.685-.319.604-1.499 1.294-2.849 1.356-1.082.045-2.621-.272-3.809-2.09-2.634-4.031-1.441-9.612-1.296-10.235 1.151-4.955 3.821-10.032 6.348-12.073 1.575-1.271 6.838-2.003 11.395-2.003 1.039 0 2.041.038 2.954.116 10.711.919 12.321 3.223 12.502 3.564v3.522h.002v.966Zm1.237 113.978h-.003c-.076-4.005-1.222-8.04-3.241-11.408-2.202-3.674-5.227-6.209-8.773-7.363-.166-.937-.619-2.22-2.144-2.696-2.538-.792-5.293-.789-7.752.003-1.059.336-1.825 1.326-2.123 2.711-3.814 1.352-6.917 3.89-9.005 7.373-1.915 3.198-2.958 7.123-3.027 11.38-1.444.726-2.335 1.629-2.335 2.744 0 3.783 10.469 7.785 20.367 7.785s20.367-4.002 20.367-7.785c0-1.115-.891-2.019-2.332-2.744Zm-23.126-16.912v6.057a1.018 1.018 0 1 0 2.036 0v-8.73c1.948-.586 4.101-.583 6.11.003v8.74c0 .556.456 1.006 1.018 1.006s1.018-.45 1.018-1.006v-6.082c4.03 1.197 6.546 4.216 7.953 6.566 1.668 2.78 2.704 6.197 2.915 9.537q.035.537.038 1.072.004.095.003.188h-.01v.158l-1.199.257-.02.005-.046.01-.102.025h-.008l-.132.028c-4.129.937-8.727 1.153-14.382 1.153-5.379 0-9.888-.448-13.883-1.398a34 34 0 0 1-.95-.239h-.003l-.008-.003a39 39 0 0 1-.99-.272h-.005q-.13-.041-.26-.079.004-.456.028-.904c.379-7.951 4.376-13.898 10.876-16.093Zm18.399 23.012c-2.258.894-6.991 2.393-13.307 2.393s-11.047-1.5-13.305-2.393c-3.834-1.517-5.026-2.989-5.026-3.355 0-.109.255-.461 1.123-.904 4.88 1.548 10.415 2.271 17.309 2.271 7.083 0 12.577-.339 17.64-1.963.443.293.588.512.588.596 0 .367-1.189 1.838-5.023 3.355Zm-28.038-5.662.95.239h.008"/><path fill="#fff" d="M256.175 258.555h271.144v151.392H256.175z"/><path fill="#ed0007" fill-rule="evenodd" d="M490.312 396.405a1.635 1.635 0 0 0 1.045-1.544c0-1.389-.986-2.078-2.339-2.078h-3.55v7.552h3.859c1.187 0 2.351-.831 2.351-2.102 0-1.508-1.366-1.817-1.366-1.829Zm-2.992-2.054h1.377a.673.673 0 0 1 .712.712.704.704 0 0 1-.717.69l-.031-.001h-1.342zm1.389 4.405h-1.389v-1.484h1.354c.677 0 .997.297.997.736 0 .546-.404.748-.962.748m7.053-6.162c-2.185 0-3.467 1.746-3.467 3.954 0 2.22 1.282 3.954 3.467 3.954 2.197 0 3.467-1.734 3.467-3.954 0-2.209-1.271-3.954-3.467-3.954m0 6.103c-1.069 0-1.603-.962-1.603-2.149s.534-2.137 1.603-2.137 1.615.962 1.615 2.137c0 1.199-.546 2.149-1.615 2.149m7.493-2.945-.261-.059c-.641-.131-1.152-.297-1.152-.76 0-.499.487-.701.914-.701a2.12 2.12 0 0 1 1.544.701l1.176-1.164c-.534-.606-1.401-1.187-2.755-1.187-1.591 0-2.802.891-2.802 2.375 0 1.354.974 2.019 2.161 2.268l.261.059c.986.202 1.354.356 1.354.831 0 .451-.404.748-1.021.748-.736 0-1.401-.321-1.912-.974l-1.199 1.187c.665.796 1.508 1.413 3.135 1.413 1.413 0 2.921-.807 2.921-2.458.024-1.722-1.282-2.054-2.363-2.28Zm6.59 2.945c-.831 0-1.698-.689-1.698-2.197 0-1.342.807-2.09 1.651-2.09.665 0 1.057.309 1.366.843l1.52-1.009c-.76-1.152-1.662-1.639-2.909-1.639-2.28 0-3.515 1.769-3.515 3.907 0 2.244 1.366 4.002 3.491 4.002 1.496 0 2.209-.522 2.98-1.639l-1.532-1.033c-.309.499-.641.855-1.354.855M517.753 392.784v2.778h-2.291v-2.778h-1.983v7.552h1.983v-2.981h2.291v2.981h1.983v-7.552z"/><path d="M474.044 390.86a5.723 5.723 0 1 0 0 11.445 5.723 5.723 0 0 0 0-11.445m0 10.913a5.189 5.189 0 1 1 5.189-5.189 5.194 5.194 0 0 1-5.189 5.189"/><path d="M476.407 393.009h-.392v1.959h-3.93v-1.959h-.404a4.283 4.283 0 0 0 0 7.149h.404v-1.959h3.93v1.959h.392a4.283 4.283 0 0 0 0-7.149m-4.868 6.377a3.75 3.75 0 0 1 0-5.605zm4.476-1.734h-3.93v-2.149h3.93zm.535 1.722v-5.592a3.76 3.76 0 0 1 0 5.593Z"/><g clip-path="url(#B)"><path fill="url(#C)" d="M321.483 409.988h.246l-.087-1.043-.16 1.043Z"/><path fill="url(#D)" d="M321.483 409.988h.246l-.087-1.043-.16 1.043Z"/><path fill="url(#E)" d="M364.22 409.988h26.091V407.9h-26.084l-.069 1.045z"/><path fill="url(#F)" d="M364.22 409.988h26.091V407.9h-26.084l-.069 1.045z"/><path fill="url(#G)" d="M321.73 409.988h29.35l.133-1.043-.123-1.045h-29.35l-.094 1.045z"/><path fill="url(#H)" d="M321.73 409.988h29.35l.133-1.043-.123-1.045h-29.35l-.094 1.045z"/><path fill="url(#I)" d="M351.08 409.988h13.14l-.06-1.043.067-1.045h-13.136l.121 1.045-.133 1.043Z"/><path fill="url(#J)" d="M351.08 409.988h13.14l-.06-1.043.067-1.045h-13.136l.121 1.045-.133 1.043Z"/><path fill="#af1917" d="M289.416 409.988h2.283l-.06-1.043.058-1.045h-2.281l.25 1.045z"/><path fill="url(#K)" d="M321.739 407.9h-.258l.164 1.045z"/><path fill="url(#L)" d="M321.739 407.9h-.258l.164 1.045z"/><path fill="#b12638" d="m289.416 409.988.248-1.043-.248-1.045h-12.603v2.088z"/><path fill="#942331" d="M276.813 407.9h-20.879v2.088h20.879z"/><path fill="#d51317" d="M291.699 409.988h29.783l.162-1.043-.164-1.045h-29.783l-.058 1.045z"/><path fill="url(#M)" d="M504.931 409.988c-.073-.696-.141-1.392-.221-2.088h-17.193l.221 2.088z"/><path fill="url(#N)" d="M504.931 409.988c-.073-.696-.141-1.392-.221-2.088h-17.193l.221 2.088z"/><path fill="url(#O)" d="m487.741 409.988-.221-2.088h-22.178l-.142 2.088z"/><path fill="url(#P)" d="m487.741 409.988-.221-2.088h-22.178l-.142 2.088z"/><path fill="url(#Q)" d="M527.319 409.988V407.9h-21.247l-.231 2.088z"/><path fill="url(#R)" d="M527.319 409.988V407.9h-21.247l-.231 2.088z"/><path fill="url(#S)" d="m465.201 409.988.141-2.088h-17.973l.129 2.088z"/><path fill="url(#T)" d="m465.201 409.988.141-2.088h-17.973l.129 2.088z"/><path fill="#283587" d="m396.901 409.988.048-1.043-.048-1.045h-6.592v2.088z"/><path fill="url(#U)" d="M505.841 409.988q.118-1.044.231-2.088h-1.368c.073.696.141 1.392.221 2.088z"/><path fill="url(#V)" d="M505.841 409.988q.118-1.044.231-2.088h-1.368c.073.696.141 1.392.221 2.088z"/><path fill="url(#W)" d="m447.498 409.988-.129-2.088h-22.361q-.029 1.044-.062 2.088z"/><path fill="url(#X)" d="m447.498 409.988-.129-2.088h-22.361q-.029 1.044-.062 2.088z"/><path fill="url(#Y)" d="M396.901 409.988h14.632V407.9h-14.632l.05 1.045z"/><path fill="url(#Z)" d="M396.901 409.988h14.632V407.9h-14.632l.05 1.045z"/><path fill="url(#aa)" d="m424.948 409.988.06-2.088h-13.475v2.088z"/><path fill="url(#ab)" d="m424.948 409.988.06-2.088h-13.475v2.088z"/></g><g clip-path="url(#ac)"><path fill="url(#ad)" d="M321.483 588.949h.246l-.087-1.043-.16 1.043Z"/><path fill="url(#ae)" d="M321.483 588.949h.246l-.087-1.043-.16 1.043Z"/><path fill="url(#af)" d="M364.22 588.949h26.091v-2.088h-26.084l-.069 1.045z"/><path fill="url(#ag)" d="M364.22 588.949h26.091v-2.088h-26.084l-.069 1.045z"/><path fill="url(#ah)" d="M321.73 588.949h29.35l.133-1.043-.123-1.045h-29.35l-.094 1.045z"/><path fill="url(#ai)" d="M321.73 588.949h29.35l.133-1.043-.123-1.045h-29.35l-.094 1.045z"/><path fill="url(#aj)" d="M351.08 588.949h13.14l-.06-1.043.067-1.045h-13.136l.121 1.045-.133 1.043Z"/><path fill="url(#ak)" d="M351.08 588.949h13.14l-.06-1.043.067-1.045h-13.136l.121 1.045-.133 1.043Z"/><path fill="#af1917" d="M289.416 588.949h2.283l-.06-1.043.058-1.045h-2.281l.25 1.045z"/><path fill="url(#al)" d="M321.739 586.861h-.258l.164 1.045z"/><path fill="url(#am)" d="M321.739 586.861h-.258l.164 1.045z"/><path fill="#b12638" d="m289.416 588.949.248-1.043-.248-1.045h-12.603v2.088z"/><path fill="#942331" d="M276.813 586.861h-20.879v2.088h20.879z"/><path fill="#d51317" d="M291.699 588.949h29.783l.162-1.043-.164-1.045h-29.783l-.058 1.045z"/><path fill="url(#an)" d="M504.931 588.949c-.073-.696-.141-1.392-.221-2.088h-17.193l.221 2.088z"/><path fill="url(#ao)" d="M504.931 588.949c-.073-.696-.141-1.392-.221-2.088h-17.193l.221 2.088z"/><path fill="url(#ap)" d="m487.741 588.949-.221-2.088h-22.178l-.142 2.088z"/><path fill="url(#aq)" d="m487.741 588.949-.221-2.088h-22.178l-.142 2.088z"/><path fill="url(#ar)" d="M527.319 588.949v-2.088h-21.247l-.231 2.088z"/><path fill="url(#as)" d="M527.319 588.949v-2.088h-21.247l-.231 2.088z"/><path fill="url(#at)" d="m465.201 588.949.141-2.088h-17.973l.129 2.088z"/><path fill="url(#au)" d="m465.201 588.949.141-2.088h-17.973l.129 2.088z"/><path fill="#283587" d="m396.901 588.949.048-1.043-.048-1.045h-6.592v2.088z"/><path fill="url(#av)" d="M505.841 588.949q.118-1.044.231-2.088h-1.368c.073.696.141 1.392.221 2.088z"/><path fill="url(#aw)" d="M505.841 588.949q.118-1.044.231-2.088h-1.368c.073.696.141 1.392.221 2.088z"/><path fill="url(#ax)" d="m447.498 588.949-.129-2.088h-22.361q-.029 1.044-.062 2.088z"/><path fill="url(#ay)" d="m447.498 588.949-.129-2.088h-22.361q-.029 1.044-.062 2.088z"/><path fill="url(#az)" d="M396.901 588.949h14.632v-2.088h-14.632l.05 1.045z"/><path fill="url(#aA)" d="M396.901 588.949h14.632v-2.088h-14.632l.05 1.045z"/><path fill="url(#aB)" d="m424.948 588.949.06-2.088h-13.475v2.088z"/><path fill="url(#aC)" d="m424.948 588.949.06-2.088h-13.475v2.088z"/></g><path fill="#c1c7cc" d="M255.934 258.622h135.813v125.494H255.934z"/><path fill="#e0e2e5" d="M391.747 258.622H527.56v125.494H391.747z"/><g data-name="Group"><path fill="#43464a" fill-rule="evenodd" d="m280.207 356.475 26.977-26.993 27.624 26.691z" data-name="Path-9"/><path fill="#8a9097" fill-rule="evenodd" d="m307.532 356.323 33.359-39.78 34.201 39.407z" data-name="Path-9-Copy"/><ellipse cx="288.418" cy="313.62" fill="#fff" data-name="Oval" rx="8.445" ry="8.311"/></g><path fill="#8a9097" d="M404.796 283.893h87.499v11.976h-87.499zM404.796 307.735h56.411v5.988h-56.411zM404.796 318.745h75.984v5.988h-75.984z"/><path fill="#c1c7cc" d="M272.603 459.554h136.773v18.721H272.603zM272.603 496.822h88.178v9.36h-88.178zM272.603 514.033h118.773v9.36H272.603z"/><path fill="#fff" d="M310.255 172.728H471.62v175.345H310.255z"/><path fill="#18837e" d="M331.331 204.394h55.267v52.185h-55.267z"/><path fill="#00884a" d="M395.277 204.394h55.267v52.185h-55.267z"/><path fill="#9e2896" d="M395.277 264.223h55.267v52.185h-55.267z"/><path fill="#007bc0" d="M331.331 264.223h55.267v52.185h-55.267z"/><path fill="#fff" d="M504.641 174.573h161.365v175.345H504.641z"/><path fill="#c1c7cc" d="M531.622 204.394h32.282v104.488h-32.282zM531.622 312.626h107.403v3.781H531.622zM569.182 239.068h32.282v69.814h-32.282zM606.743 266.281h32.282v42.601h-32.282z"/><path fill="#d0d4d8" fill-rule="evenodd" d="m1753.048 231.816-81.88-59.73h1.11v-13.3h-7.59V.864h-9.15v157.922h-7.6v13.3h1.34l-82.11 59.75v15.48h70.36a23.231 23.231 0 0 0 45.13 0h70.38v-15.5z" data-name="Path"/><path fill="#eff1f2" d="M1392.562 467.378h182.025v98.231h-182.025z"/><path fill="#8a9097" d="M1392.535 467.378h182.053v6.105h-182.053z"/><path fill="#c1c7cc" d="M1392.535 473.483h182.053v12.608h-182.053zM1392.535 565.584h182.053v5.161h-182.053z"/><circle cx="1395.146" cy="470.352" r="1.406" fill="#fff"/><circle cx="1399.63" cy="470.509" r="1.406" fill="#fff"/><circle cx="1404.113" cy="470.509" r="1.406" fill="#fff"/><path fill="#8a9097" d="M1392.535 486.091h55.434v79.407h-55.434z"/><path fill="#fff" d="M1400.149 490.817h40.144v22.414h-40.144zM1400.149 517.958h40.144v22.414h-40.144z"/><circle cx="1526.522" cy="523.281" r=".21" fill="#fff"/><circle cx="1527.187" cy="523.305" r=".21" fill="#fff"/><circle cx="1527.831" cy="523.281" r=".21" fill="#fff"/><path fill="#e8b6e3" d="m1453.433 504.623-1.147-.265q.492.37 1.041.644z"/><path fill="#8a9097" d="M1516.021 524.16h20.504v2.177h-20.504z"/><path fill="#fff" d="M1462.002 498.281h98.552v55.026h-98.552z"/><path fill="#ed0007" fill-rule="evenodd" d="M1547.104 548.385a.59.59 0 0 0 .38-.561c0-.505-.358-.755-.85-.755h-1.29v2.745h1.403c.432 0 .855-.302.855-.764 0-.548-.496-.66-.496-.665Zm-1.088-.746h.501a.245.245 0 0 1 .259.229v.029a.256.256 0 0 1-.261.251h-.499zm.505 1.601h-.505v-.539h.492c.246 0 .363.108.363.268 0 .199-.147.272-.35.272Zm2.564-2.24c-.794 0-1.26.634-1.26 1.437 0 .807.466 1.437 1.26 1.437.798 0 1.26-.63 1.26-1.437 0-.803-.462-1.437-1.26-1.437m0 2.218c-.388 0-.583-.35-.583-.781s.194-.777.583-.777.587.35.587.777c0 .436-.199.781-.587.781m2.723-1.07-.095-.022c-.233-.047-.419-.108-.419-.276 0-.181.177-.255.332-.255a.77.77 0 0 1 .561.255l.427-.423c-.194-.22-.509-.432-1.001-.432-.578 0-1.019.324-1.019.863 0 .492.354.734.786.824l.095.022c.358.073.492.129.492.302 0 .164-.147.272-.371.272a.86.86 0 0 1-.695-.354l-.436.432c.242.289.548.514 1.139.514.514 0 1.062-.293 1.062-.893.009-.626-.466-.747-.859-.829Zm2.396 1.07c-.302 0-.617-.25-.617-.798 0-.488.293-.76.6-.76.242 0 .384.112.496.306l.552-.367c-.276-.419-.604-.596-1.057-.596-.829 0-1.278.643-1.278 1.42 0 .816.496 1.454 1.269 1.454.544 0 .803-.19 1.083-.596l-.557-.375c-.112.181-.233.311-.492.311ZM1557.078 547.069v1.01h-.833v-1.01h-.721v2.745h.721v-1.083h.833v1.083h.721v-2.745z"/><path d="M1541.191 546.37a2.08 2.08 0 1 0 0 4.16 2.08 2.08 0 0 0 0-4.16m0 3.966a1.885 1.885 0 1 1 1.886-1.886 1.89 1.89 0 0 1-1.886 1.886"/><path d="M1542.05 547.151h-.142v.712h-1.429v-.712h-.147a1.557 1.557 0 0 0 0 2.598h.147v-.712h1.429v.712h.142a1.557 1.557 0 0 0 0-2.598m-1.77 2.318a1.362 1.362 0 0 1 0-2.037zm1.628-.63h-1.429v-.781h1.429zm.194.625v-2.034a1.367 1.367 0 0 1 0 2.033Z"/><g clip-path="url(#aD)"><path fill="url(#aE)" d="M1485.74 553.322h.09l-.031-.379z"/><path fill="url(#aF)" d="M1485.74 553.322h.09l-.031-.379z"/><path fill="url(#aG)" d="M1501.273 553.322h9.483v-.759h-9.481l-.025.38.022.379Z"/><path fill="url(#aH)" d="M1501.273 553.322h9.483v-.759h-9.481l-.025.38.022.379Z"/><path fill="url(#aI)" d="M1485.829 553.322h10.668l.048-.379-.045-.38h-10.668l-.034.38z"/><path fill="url(#aJ)" d="M1485.829 553.322h10.668l.048-.379-.045-.38h-10.668l-.034.38z"/><path fill="url(#aK)" d="M1496.497 553.322h4.776l-.022-.379.024-.38h-4.775l.044.38z"/><path fill="url(#aL)" d="M1496.497 553.322h4.776l-.022-.379.024-.38h-4.775l.044.38z"/><path fill="#af1917" d="M1474.084 553.322h.83l-.022-.379.021-.38h-.829l.091.38z"/><path fill="url(#aM)" d="M1485.833 552.563h-.094l.059.38z"/><path fill="url(#aN)" d="M1485.833 552.563h-.094l.059.38z"/><path fill="#b12638" d="m1474.084 553.322.09-.379-.09-.38h-4.581v.759z"/><path fill="#942331" d="M1469.504 552.563h-7.589v.759h7.589z"/><path fill="#d51317" d="M1474.914 553.322h10.825l.059-.379-.059-.38h-10.825l-.021.38z"/><path fill="url(#aO)" d="M1552.417 553.322q-.038-.38-.08-.759h-6.249l.08.759z"/><path fill="url(#aP)" d="M1552.417 553.322q-.038-.38-.08-.759h-6.249l.08.759z"/><path fill="url(#aQ)" d="m1546.17 553.322-.08-.759h-8.061l-.052.759z"/><path fill="url(#aR)" d="m1546.17 553.322-.08-.759h-8.061l-.052.759z"/><path fill="url(#aS)" d="M1560.555 553.322v-.759h-7.723l-.084.759z"/><path fill="url(#aT)" d="M1560.555 553.322v-.759h-7.723l-.084.759z"/><path fill="url(#aU)" d="m1537.977 553.322.051-.759h-6.533l.047.759z"/><path fill="url(#aV)" d="m1537.977 553.322.051-.759h-6.533l.047.759z"/><path fill="#283587" d="m1513.152 553.322.017-.379-.017-.38h-2.396v.759z"/><path fill="url(#aW)" d="m1552.748 553.322.084-.759h-.497c.027.253.051.506.08.759z"/><path fill="url(#aX)" d="m1552.748 553.322.084-.759h-.497c.027.253.051.506.08.759z"/><path fill="url(#aY)" d="m1531.542 553.322-.047-.759h-8.128l-.022.759z"/><path fill="url(#aZ)" d="m1531.542 553.322-.047-.759h-8.128l-.022.759z"/><path fill="url(#ba)" d="M1513.152 553.322h5.318v-.759h-5.318l.018.38z"/><path fill="url(#bb)" d="M1513.152 553.322h5.318v-.759h-5.318l.018.38z"/><path fill="url(#bc)" d="m1523.346 553.322.022-.759h-4.898v.759z"/><path fill="url(#bd)" d="m1523.346 553.322.022-.759h-4.898v.759z"/></g><path fill="#c1c7cc" d="M1461.915 498.306h49.364v45.613h-49.364z"/><path fill="#e0e2e5" d="M1511.279 498.306h49.364v45.613h-49.364z"/><g data-name="Group"><path fill="#43464a" fill-rule="evenodd" d="m1470.737 533.872 9.806-9.811 10.04 9.701z" data-name="Path-9"/><path fill="#8a9097" fill-rule="evenodd" d="m1480.669 533.817 12.125-14.459 12.431 14.323z" data-name="Path-9-Copy"/><ellipse cx="1473.722" cy="518.295" fill="#fff" data-name="Oval" rx="3.07" ry="3.021"/></g><path fill="#8a9097" d="M1516.021 507.491h31.803v4.353h-31.803zM1516.021 516.156h20.504v2.177h-20.504zM1516.021 520.158h27.618v2.177h-27.618z"/><path fill="#fff" d="M1467.219 478.074h24.485v26.606h-24.485zM1496.552 478.074h24.485v26.606h-24.485z"/><path fill="#43464a" d="m1472.257 478.762 1.543-.121-3.146-2.67.096 4.164 1.392-1.364z"/><path fill="#fff" d="m1470.424 480.936 1.87-1.831 2.367-.186-4.368-3.707zm3.376-2.295-1.544.121-.114.009-1.392 1.363-.095-4.163z"/><text fill="#43464a" font-size="4.662" transform="translate(1470.275 490.818)"><tspan font-family="BoschSans-Regular,&quot;Bosch Sans&quot;"><tspan x="0" y="0" letter-spacing=".012em">A</tspan><tspan x="2.998" y="0">aBbCc</tspan></tspan><tspan font-family="BoschSans-Bold,&quot;Bosch Sans&quot;" font-weight="700"><tspan x="0" y="5.595" letter-spacing=".006em">A</tspan><tspan x="3.385" y="5.595">aBbCc</tspan></tspan></text><path fill="#43464a" d="m1507.152 492.4.249.249-.621.621-.249-.249zm3.388-4.637-.307-.171-.625 1.119.307.171zm.549 2.43 1.121-.624-.171-.307-1.121.624zm-.458-.775.87-.87-.249-.249-.87.87zm-1.615-.87 2.236 2.236-.745.746a1.64 1.64 0 0 1-.914.482c-.446.067-.756.193-.95.387l-1.866 1.867-1.24-1.246 1.863-1.863c.196-.196.321-.509.384-.96.045-.323.209-.627.485-.904zm1.739 2.237-1.739-1.739-.497.497c-.221.221-.351.459-.386.704-.074.529-.232.908-.484 1.159l-1.616 1.616.744.747 1.617-1.617c.249-.249.624-.408 1.147-.486.257-.038.505-.171.717-.383l.497-.497Zm1.355-8.563h-.728v-.196c-.003-.161-.174-.701-2.23-.878-.625-.054-1.982-.001-2.437.366-.447.361-.895 1.197-1.089 2.033-.042.18-.226 1.112.247 1.835.269.411.633.483.853.483l.047-.001c.318-.015.621-.179.738-.399a5 5 0 0 0 .266-.692h.784l.164-.546h.375l.136-.782q.091.021.147.041c.019.11.116.195.232.195h.619a.28.28 0 0 0 .201-.087l.251-.339a.3.3 0 0 1 .112-.068l.33-.104a.36.36 0 0 0 .254-.346v-.148h.728v-.364Zm-3.318 1.639h-.34l-.164.546h-.4c.122-.408.216-.77.223-.799v.004l.001-.008c.011-.029.099-.218.556-.218h.007q.106 0 .198.006zm2.226-1.129-.33.104a.64.64 0 0 0-.276.174l-.225.303h-.472a.26.26 0 0 0-.142-.148c-.133-.054-.427-.144-.896-.144h-.008c-.629 0-.867.31-.91.498-.019.072-.359 1.373-.571 1.773-.048.092-.227.196-.432.206-.164.007-.398-.041-.578-.317-.4-.612-.219-1.458-.197-1.553.175-.752.58-1.522.963-1.832.239-.193 1.038-.304 1.729-.304.158 0 .31.006.448.018 1.625.14 1.87.489 1.897.541zm.187 17.295a3.54 3.54 0 0 0-.492-1.731c-.334-.557-.793-.942-1.331-1.117-.025-.142-.094-.337-.325-.409a1.97 1.97 0 0 0-1.176 0c-.161.051-.277.201-.322.411-.579.205-1.05.59-1.366 1.119-.291.485-.449 1.081-.459 1.727-.219.11-.354.247-.354.416 0 .574 1.588 1.181 3.09 1.181s3.09-.607 3.09-1.181c0-.169-.135-.306-.354-.416Zm-3.509-2.566v.919a.155.155 0 0 0 .31 0v-1.325c.296-.089.622-.088.927 0v1.326c0 .084.069.153.155.153s.155-.068.155-.153v-.923c.612.182.993.64 1.207.996a3.3 3.3 0 0 1 .448 1.61v.029h-.002v.024l-.182.039h-.003l-.007.002-.015.004h-.001l-.02.004c-.627.142-1.324.175-2.182.175-.816 0-1.5-.068-2.107-.212l-.144-.036h-.002q-.076-.02-.15-.042l-.039-.012q0-.07.004-.137c.058-1.206.664-2.109 1.65-2.442Zm2.792 3.491c-.343.136-1.061.363-2.019.363s-1.676-.228-2.019-.363c-.582-.23-.763-.454-.763-.509 0-.017.039-.07.17-.137.741.235 1.58.345 2.626.345 1.075 0 1.908-.051 2.677-.298.067.044.089.078.089.09 0 .056-.18.279-.762.509Zm-4.254-.859.144.036h.001"/><path fill="#fff" d="M1400.185 490.817h41.142v22.972h-41.142z"/><path fill="#ed0007" fill-rule="evenodd" d="M1435.712 511.734a.25.25 0 0 0 .159-.234c0-.211-.15-.315-.355-.315h-.539v1.146h.586c.18 0 .357-.126.357-.319 0-.229-.207-.276-.207-.277Zm-.454-.312h.209a.1.1 0 0 1 .108.096v.012a.107.107 0 0 1-.109.105h-.209zm.211.669h-.211v-.225h.205c.103 0 .151.045.151.112 0 .083-.061.114-.146.114Zm1.07-.935c-.332 0-.526.265-.526.6 0 .337.195.6.526.6.333 0 .526-.263.526-.6 0-.335-.193-.6-.526-.6m0 .926c-.162 0-.243-.146-.243-.326s.081-.324.243-.324.245.146.245.324c0 .182-.083.326-.245.326m1.137-.447-.04-.009c-.097-.02-.175-.045-.175-.115 0-.076.074-.106.139-.106.089.001.174.04.234.106l.178-.177a.53.53 0 0 0-.418-.18c-.241 0-.425.135-.425.36 0 .205.148.306.328.344l.04.009c.15.031.205.054.205.126 0 .068-.061.114-.155.114a.36.36 0 0 1-.29-.148l-.182.18a.56.56 0 0 0 .476.214c.214 0 .443-.123.443-.373.004-.261-.195-.312-.359-.346Zm1 .447c-.126 0-.258-.105-.258-.333 0-.204.123-.317.25-.317.101 0 .16.047.207.128l.231-.153c-.115-.175-.252-.249-.441-.249-.346 0-.533.268-.533.593 0 .341.207.607.53.607.227 0 .335-.079.452-.249l-.232-.157c-.047.076-.097.13-.205.13ZM1439.876 511.185v.421h-.347v-.421h-.301v1.146h.301v-.453h.347v.453h.301v-1.146z"/><path d="M1433.244 510.893a.868.868 0 1 0 0 1.736.868.868 0 0 0 0-1.736m0 1.656a.787.787 0 1 1 .787-.787.787.787 0 0 1-.787.787"/><path d="M1433.603 511.219h-.059v.297h-.596v-.297h-.061a.65.65 0 0 0 0 1.084h.061v-.297h.596v.297h.059a.65.65 0 0 0 0-1.084m-.739.967a.568.568 0 0 1 0-.85zm.679-.263h-.596v-.326h.596zm.081.262v-.848a.57.57 0 0 1 0 .849Z"/><g clip-path="url(#be)"><path fill="url(#bf)" d="M1410.095 513.795h.037l-.013-.158z"/><path fill="url(#bg)" d="M1410.095 513.795h.037l-.013-.158z"/><path fill="url(#bh)" d="M1416.58 513.795h3.959v-.317h-3.958l-.011.159z"/><path fill="url(#bi)" d="M1416.58 513.795h3.959v-.317h-3.958l-.011.159z"/><path fill="url(#bj)" d="M1410.132 513.795h4.453l.02-.158-.019-.159h-4.453l-.014.159z"/><path fill="url(#bk)" d="M1410.132 513.795h4.453l.02-.158-.019-.159h-4.453l-.014.159z"/><path fill="url(#bl)" d="M1414.586 513.795h1.994l-.009-.158.01-.159h-1.993l.018.159z"/><path fill="url(#bm)" d="M1414.586 513.795h1.994l-.009-.158.01-.159h-1.993l.018.159z"/><path fill="#af1917" d="M1405.229 513.795h.346l-.009-.158.009-.159h-.346l.038.159z"/><path fill="url(#bn)" d="M1410.134 513.478h-.039l.025.159z"/><path fill="url(#bo)" d="M1410.134 513.478h-.039l.025.159z"/><path fill="#b12638" d="m1405.229 513.795.038-.158-.038-.159h-1.912v.317z"/><path fill="#942331" d="M1403.317 513.478h-3.168v.317h3.168z"/><path fill="#d51317" d="M1405.576 513.795h4.519l.025-.158-.025-.159h-4.519l-.009.159z"/><path fill="url(#bp)" d="M1437.931 513.795q-.015-.159-.034-.317h-2.609l.034.317z"/><path fill="url(#bq)" d="M1437.931 513.795q-.015-.159-.034-.317h-2.609l.034.317z"/><path fill="url(#br)" d="m1435.322 513.795-.034-.317h-3.365l-.022.317z"/><path fill="url(#bs)" d="m1435.322 513.795-.034-.317h-3.365l-.022.317z"/><path fill="url(#bt)" d="M1441.328 513.795v-.317h-3.224l-.035.317z"/><path fill="url(#bu)" d="M1441.328 513.795v-.317h-3.224l-.035.317z"/><path fill="url(#bv)" d="m1431.902 513.795.021-.317h-2.727l.02.317z"/><path fill="url(#bw)" d="m1431.902 513.795.021-.317h-2.727l.02.317z"/><path fill="#283587" d="m1421.539 513.795.007-.158-.007-.159h-1v.317z"/><path fill="url(#bx)" d="m1438.069 513.795.035-.317h-.208q.015.159.034.317z"/><path fill="url(#by)" d="m1438.069 513.795.035-.317h-.208q.015.159.034.317z"/><path fill="url(#bz)" d="m1429.216 513.795-.02-.317h-3.393l-.009.317z"/><path fill="url(#bA)" d="m1429.216 513.795-.02-.317h-3.393l-.009.317z"/><path fill="url(#bB)" d="M1421.539 513.795h2.22v-.317h-2.22l.008.159z"/><path fill="url(#bC)" d="M1421.539 513.795h2.22v-.317h-2.22l.008.159z"/><path fill="url(#bD)" d="m1425.794 513.795.009-.317h-2.045v.317z"/><path fill="url(#bE)" d="m1425.794 513.795.009-.317h-2.045v.317z"/></g><g clip-path="url(#bF)"><path fill="url(#bG)" d="M1410.095 540.369h.037l-.013-.158z"/><path fill="url(#bH)" d="M1410.095 540.369h.037l-.013-.158z"/><path fill="url(#bI)" d="M1416.58 540.369h3.959v-.317h-3.958l-.011.159z"/><path fill="url(#bJ)" d="M1416.58 540.369h3.959v-.317h-3.958l-.011.159z"/><path fill="url(#bK)" d="M1410.132 540.369h4.453l.02-.158-.019-.159h-4.453l-.014.159z"/><path fill="url(#bL)" d="M1410.132 540.369h4.453l.02-.158-.019-.159h-4.453l-.014.159z"/><path fill="url(#bM)" d="M1414.586 540.369h1.994l-.009-.158.01-.159h-1.993l.018.159z"/><path fill="url(#bN)" d="M1414.586 540.369h1.994l-.009-.158.01-.159h-1.993l.018.159z"/><path fill="#af1917" d="M1405.229 540.369h.346l-.009-.158.009-.159h-.346l.038.159z"/><path fill="url(#bO)" d="M1410.134 540.052h-.039l.025.159z"/><path fill="url(#bP)" d="M1410.134 540.052h-.039l.025.159z"/><path fill="#b12638" d="m1405.229 540.369.038-.158-.038-.159h-1.912v.317z"/><path fill="#942331" d="M1403.317 540.052h-3.168v.317h3.168z"/><path fill="#d51317" d="M1405.576 540.369h4.519l.025-.158-.025-.159h-4.519l-.009.159z"/><path fill="url(#bQ)" d="M1437.931 540.369q-.015-.159-.034-.317h-2.609l.034.317z"/><path fill="url(#bR)" d="M1437.931 540.369q-.015-.159-.034-.317h-2.609l.034.317z"/><path fill="url(#bS)" d="m1435.322 540.369-.034-.317h-3.365l-.022.317z"/><path fill="url(#bT)" d="m1435.322 540.369-.034-.317h-3.365l-.022.317z"/><path fill="url(#bU)" d="M1441.328 540.369v-.317h-3.224l-.035.317z"/><path fill="url(#bV)" d="M1441.328 540.369v-.317h-3.224l-.035.317z"/><path fill="url(#bW)" d="m1431.902 540.369.021-.317h-2.727l.02.317z"/><path fill="url(#bX)" d="m1431.902 540.369.021-.317h-2.727l.02.317z"/><path fill="#283587" d="m1421.539 540.369.007-.158-.007-.159h-1v.317z"/><path fill="url(#bY)" d="m1438.069 540.369.035-.317h-.208q.015.159.034.317z"/><path fill="url(#bZ)" d="m1438.069 540.369.035-.317h-.208q.015.159.034.317z"/><path fill="url(#ca)" d="m1429.216 540.369-.02-.317h-3.393l-.009.317z"/><path fill="url(#cb)" d="m1429.216 540.369-.02-.317h-3.393l-.009.317z"/><path fill="url(#cc)" d="M1421.539 540.369h2.22v-.317h-2.22l.008.159z"/><path fill="url(#cd)" d="M1421.539 540.369h2.22v-.317h-2.22l.008.159z"/><path fill="url(#ce)" d="m1425.794 540.369.009-.317h-2.045v.317z"/><path fill="url(#cf)" d="m1425.794 540.369.009-.317h-2.045v.317z"/></g><path fill="#c1c7cc" d="M1400.149 490.827h20.608v19.042h-20.608z"/><path fill="#e0e2e5" d="M1420.757 490.827h20.608v19.042h-20.608z"/><g data-name="Group"><path fill="#43464a" fill-rule="evenodd" d="m1403.832 505.675 4.093-4.096 4.192 4.05z" data-name="Path-9"/><path fill="#8a9097" fill-rule="evenodd" d="m1407.978 505.652 5.062-6.036 5.189 5.98z" data-name="Path-9-Copy"/><ellipse cx="1405.078" cy="499.173" fill="#fff" data-name="Oval" rx="1.281" ry="1.261"/></g><path fill="#8a9097" d="M1422.737 494.662h13.277v1.817h-13.277zM1422.737 498.28h8.56v.909h-8.56zM1422.737 499.95h11.529v.909h-11.529z"/><path fill="#c1c7cc" d="M1402.678 521.316h20.753v2.841h-20.753zM1402.678 526.971h13.38v1.42h-13.38zM1402.678 529.583h18.022v1.42h-18.022z"/><path fill="#fff" d="M1408.554 478.074h24.485v26.606h-24.485z"/><path fill="#18837e" d="M1411.426 482.319h8.386v7.918h-8.386z"/><path fill="#00884a" d="M1421.129 482.319h8.386v7.918h-8.386z"/><path fill="#9e2896" d="M1421.129 491.397h8.386v7.918h-8.386z"/><path fill="#007bc0" d="M1411.426 491.397h8.386v7.918h-8.386z"/><path fill="#fff" d="M1437.887 478.074h24.485v26.606h-24.485z"/><path fill="#c1c7cc" d="M1441.981 484.686h4.898v15.624h-4.898zM1441.981 500.87h16.297v.565h-16.297zM1447.68 489.871h4.898v10.439h-4.898zM1453.379 493.94h4.898v6.37h-4.898z"/></svg>