<svg xmlns="http://www.w3.org/2000/svg" viewBox="0 0 719 434"><g fill="none" fill-rule="evenodd"><path fill="#8A9097" fill-rule="nonzero" d="M372.21 259.79c-36.5-20.8-98.82-34.51-169.59-34.51S69.54 238.99 33.04 259.79q16.234 3.892 45.286 3.892 84.004 0 293.884-3.892"/><path fill="#B2B9C0" fill-rule="nonzero" d="M565.6 259.79c-47-26.77-127.19-44.41-218.27-44.41s-171.29 17.64-218.26 44.41z"/><path fill="#8A9097" fill-rule="nonzero" d="M683.93 259.79c-36.5-20.8-98.82-34.51-169.58-34.51s-133.09 13.71-169.59 34.51z"/><path fill="#C1C7CC" d="m347.53 221.65 14-21.42c9.31-3.66 33.67-14.22 40.52-26.86 8.5-15.71 5.3-33.78-7.12-40.34s-29.36.85-37.87 16.56c-6.6 12.22-2.45 36.89-.27 47.25l-11.45 17.57v-83.36l.2-.25-.2-.17v-18.79c6.51 1.93 33.5 9.37 48.52 4.62 17.15-5.44 28.3-18.34 24.91-28.8-2.5-7.69-12.2-12-24-11.47a12 12 0 0 0-2.78-8.64c-6.05-6.83-20.1-4.55-31.35 5.13-7.23 6.24-12.48 19.8-15.33 28.73V72.73c8.8-7.69 24.84-23.28 27-35.93 3-17.58-5.9-33.69-19.81-36-11.92-1.93-23.63 6.85-28.57 20.45a16.9 16.9 0 0 0-7.7 1.07c-10.55 4.16-14.75 18.35-9.38 31.69 5.18 12.82 30.54 25.45 32.67 26.48v45.23l-11.92-10c-1.26-8.77-4.67-27.54-12.67-34.82-10.56-9.62-25.3-10.8-32.92-2.63s-5.18 22.62 5.36 32.24c8.12 7.41 27.83 9.21 36.53 9.65l15.61 13.13v40c-4.73-10.14-13.57-26.64-23.67-33.23-15-9.81-32.19-10.32-38.3-1.15-4.51 6.76-1.73 16.89 6 25.68a12.08 12.08 0 0 0-5.07 7.53c-1.61 9 9 18.34 23.69 20.92 11.59 2 30-5.12 37.33-8.26v34.94a3.61 3.61 0 0 0 3.61 3.61h1.45a3.61 3.61 0 0 0 2.98-1.68"/><path fill="#C1C7CC" fill-rule="nonzero" d="M228.1 177.97c-6.593-9.68-19.76-12.23-29.49-5.71-7.65 5.17-14.31 23.87-16.87 31.74l-5.66 5.66v-52.83c2.2-3.16 5.06-7.32 8.11-11.86l5.37-8.07c6-9.28 11.41-18.49 12.39-22.56 2.116-9.73-3.986-19.354-13.69-21.59a18 18 0 0 0-20.45 10.1 18.3 18.3 0 0 1 4.64 5.62c0 .08.09.08.09.16.16.25.24.57.4.82.08.08.08.16.17.24.18.333.316.69.4 1.06q.071.21.11.43c0-.12-.07-.25-.11-.35-.16-.32-.24-.73-.4-1.06 0-.08-.09-.16-.17-.24-.16-.25-.24-.57-.4-.82 0-.08-.09-.08-.09-.16a17.4 17.4 0 0 0-4.64-5.62 18.08 18.08 0 0 0-28.35 20.21c1.63 4.56 9.94 15.15 18.08 24.85 4.74 5.69 9.46 11 12.67 14.72V188l-9.62-9.62c-3-8.31-8.6-21.81-14.78-27.62a12.4 12.4 0 0 0-2.77-2c-10.406-5.426-23.24-1.398-28.68 9a24.5 24.5 0 0 0-1.71 4.56 21 21 0 0 0 10.68 24.12c8.35 4.37 28.91 1.11 36.63-.32l10.25 10.26v32.17a2.94 2.94 0 0 0 2.94 2.94 2.94 2.94 0 0 0 2.93-2.94v-10.6l9.49-9.49c9.33 1.49 29.61 4 36.91-1 9.694-6.592 12.21-19.794 5.62-29.49m355.02 0c-6.593-9.68-19.76-12.23-29.49-5.71-7.65 5.17-14.31 23.87-16.86 31.74l-5.67 5.66v-52.83c2.2-3.16 5.06-7.32 8.11-11.86l5.38-8.07c5.94-9.28 11.4-18.49 12.38-22.56 2.116-9.73-3.986-19.354-13.69-21.59a18.05 18.05 0 0 0-20.45 10.1 18.2 18.2 0 0 1 4.65 5.62c0 .08.08.08.08.16.16.25.24.57.41.82.08.08.08.16.16.24.18.335.318.691.41 1.06q.065.21.1.43c0-.12-.07-.25-.1-.35-.17-.32-.25-.73-.41-1.06 0-.08-.08-.16-.16-.24-.17-.25-.25-.57-.41-.82 0-.08-.08-.08-.08-.16a17.3 17.3 0 0 0-4.65-5.62 18.08 18.08 0 0 0-28.35 20.21c1.63 4.56 9.94 15.15 18.09 24.85 4.73 5.69 9.46 11 12.67 14.72V188l-9.63-9.62c-3-8.31-8.59-21.81-14.78-27.62a12.6 12.6 0 0 0-2.76-2c-10.405-5.431-23.244-1.403-28.68 9a23 23 0 0 0-1.71 4.56 21 21 0 0 0 10.68 24.12c8.36 4.37 28.92 1.11 36.63-.32l10.26 10.26v32.17a2.94 2.94 0 0 0 2.93 2.94 2.94 2.94 0 0 0 2.93-2.94v-10.6l9.49-9.49c9.33 1.49 29.61 4 36.91-1a21.22 21.22 0 0 0 5.61-29.49"/><path fill="#8A9097" fill-rule="nonzero" d="M.93 242.26h32.11v190.05H.93z"/><path fill="#A4ABB3" fill-rule="nonzero" d="M33.04 374.81h554.59v57.51H33.04z"/><path fill="#8A9097" fill-rule="nonzero" d="M29.13 313.31h558.5v65.5H29.13z"/><path fill="#A4ABB3" fill-rule="nonzero" d="M33.04 259.79h554.59v57.51H33.04z"/><path fill="#B2B9C0" fill-rule="nonzero" d="M684.96 242.26h32.11v190.05h-32.11z"/><path fill="#C1C7CC" fill-rule="nonzero" d="M500.11 374.81h184.85v57.51H500.11z"/><path fill="#A4ABB3" fill-rule="nonzero" d="M500.11 317.3h184.85v57.51H500.11z"/><path fill="#C1C7CC" fill-rule="nonzero" d="M500.11 259.79h184.85v57.51H500.11z"/><path fill="#B2B9C0" fill-rule="nonzero" d="M468.01 242.26h32.11v190.05h-32.11z"/></g></svg>