<svg xmlns="http://www.w3.org/2000/svg" viewBox="0 0 597 350"><g fill="none"><path fill="#8A9097" d="M29.795 229.81h436.5v65h-436.5z"/><path fill="#A4ABB3" d="M378.775 229.81h190v65h-190z"/><path fill="#B2B9C0" d="M371.545 175.8c-36.5-20.81-98.82-34.51-169.59-34.51s-133.08 13.7-169.58 34.51q33.448 2.625 50.25 2.624 96.255 0 288.92-2.624"/><path fill="#8A9097" d="M564.935 175.8c-47-26.78-127.19-44.42-218.27-44.42s-171.29 17.67-218.26 44.42zM.265 158.26h32.11v190.05H.265z"/><path fill="#A4ABB3" d="M32.375 290.81h433.92v57.51H32.375zm0-115.01h433.92v57.51H32.375z"/><path fill="#B2B9C0" d="M563.625 158.26h32.11v190.05h-32.11z"/><path fill="#C1C7CC" d="M378.775 290.81h184.85v57.51h-184.85zm0-115.01h184.85v57.51h-184.85z"/><path fill="#B2B9C0" d="M346.665 158.26h32.11v190.05h-32.11z"/><path fill="#C1C7CC" d="M227.435 93.97c-6.596-9.677-19.763-12.222-29.49-5.7-7.68 5.17-14.31 23.86-16.87 31.78l-5.66 5.67V72.83c2.2-3.15 5.06-7.32 8.11-11.86l5.37-8.06c6-9.29 11.41-18.5 12.39-22.57 2.116-9.73-3.986-19.354-13.69-21.59a18 18 0 0 0-20.45 10.1 18.3 18.3 0 0 1 4.64 5.62c0 .08.09.08.09.17.16.24.24.57.4.81.08.08.08.16.17.25.181.33.316.683.4 1.05q.07.21.11.43c0-.12-.07-.24-.11-.34-.16-.33-.24-.74-.4-1.06 0-.08-.09-.17-.17-.25-.16-.24-.24-.57-.4-.81 0-.08-.09-.08-.09-.17a17.4 17.4 0 0 0-4.64-5.62 18.08 18.08 0 0 0-28.35 20.21c1.63 4.56 9.94 15.15 18.08 24.85 4.74 5.69 9.46 11 12.67 14.73v25.33l-9.62-9.63c-3-8.31-8.6-21.81-14.78-27.62a12.4 12.4 0 0 0-2.77-2c-10.406-5.426-23.24-1.398-28.68 9a24.3 24.3 0 0 0-1.71 4.57 21 21 0 0 0 10.68 24.11c8.35 4.38 28.91 1.11 36.63-.31l10.25 10.26v32.26a2.94 2.94 0 0 0 2.94 2.93 2.93 2.93 0 0 0 2.93-2.93v-10.6l9.49-9.49c9.33 1.49 29.61 4 36.91-1a21.22 21.22 0 0 0 5.62-29.63m191.53-8.25c-6.602-9.672-19.772-12.204-29.49-5.67-7.65 5.16-14.31 23.86-16.86 31.73l-5.67 5.67V64.58c2.2-3.16 5.06-7.32 8.11-11.86l5.38-8.06c5.94-9.29 11.4-18.5 12.38-22.57 2.116-9.73-3.986-19.354-13.69-21.59a18.05 18.05 0 0 0-20.45 10.1 18.2 18.2 0 0 1 4.65 5.62c0 .08.08.08.08.16.16.25.24.57.41.82.08.08.08.16.16.24q.271.505.41 1.06.065.21.1.43c0-.12-.07-.25-.1-.35-.17-.32-.25-.73-.41-1.06 0-.08-.08-.16-.16-.24-.17-.24-.25-.57-.41-.81 0-.09-.08-.09-.08-.17a17.3 17.3 0 0 0-4.65-5.62 18.08 18.08 0 0 0-28.35 20.21c1.63 4.56 9.94 15.16 18.09 24.85 4.73 5.69 9.46 11 12.67 14.72v25.3l-9.63-9.63c-3-8.31-8.59-21.81-14.78-27.62a12.4 12.4 0 0 0-2.77-2c-10.402-5.43-23.238-1.401-28.67 9a23 23 0 0 0-1.71 4.56 21 21 0 0 0 10.68 24.12c8.36 4.37 28.92 1.11 36.63-.31l10.25 10.17v32.26a2.94 2.94 0 0 0 2.93 2.94 2.94 2.94 0 0 0 2.93-2.94v-10.6l9.49-9.48c9.33 1.48 29.61 4 36.91-1a21.22 21.22 0 0 0 5.62-29.51"/></g></svg>