<svg xmlns="http://www.w3.org/2000/svg" viewBox="0 0 1600 900"><g data-name="Ebene 2"><path fill="none" d="M0 0h1600v900H0z"/><path fill="#e0e2e5" d="m1402.006 321.953 44.246 139.514h-88.492z"/><path fill="#e0e2e5" d="m1402.006 358.303 48.044 137.542h-96.087z"/><path fill="#e0e2e5" d="m1402.006 307.364 41.015 115.932h-82.03z"/><path fill="#e0e2e5" d="m1402.006 309.383 36.718 74.359h-73.435z"/><path fill="#e0e2e5" d="m1402.006 306.134 27.349 43.038h-54.698zm6.797 207.451h-12.568v-22.239h12.568z"/><path fill="#eff1f2" d="m1489.196 249.081-58.701 185.091h117.401z"/><path fill="#eff1f2" d="m1489.196 297.305-63.74 182.476h127.479z"/><path fill="#eff1f2" d="m1489.196 229.725-54.415 153.807h108.829z"/><path fill="#eff1f2" d="m1489.196 232.403-48.713 98.652h97.425z"/><path fill="#eff1f2" d="m1489.196 228.093-36.284 57.099h72.567zm-9.017 245.72h16.674v29.505h-16.674zm-487.778-69.708-46.699 147.25h93.399z"/><path fill="#eff1f2" d="m992.401 442.47-50.707 145.169h101.415z"/><path fill="#eff1f2" d="m992.401 388.707-43.289 122.36h86.579z"/><path fill="#eff1f2" d="m992.401 390.837-38.753 78.483h77.507z"/><path fill="#eff1f2" d="m992.401 387.408-28.865 45.425h57.731zm-7.173 195.483h13.265v23.472h-13.265z"/><path fill="#d0d4d8" d="M1600 503.157c-99.327-16.534-212.845-2.55-336.584 68.208-191.537 109.526-326.797-129.906-560.429 280.291H1600z"/><path fill="#eff1f2" d="m92.961 457.437 58.701 185.091H34.26z"/><path fill="#eff1f2" d="M92.961 505.662 156.7 688.137H29.222z"/><path fill="#eff1f2" d="m92.961 438.081 54.414 153.807H38.547z"/><path fill="#eff1f2" d="m92.961 440.759 48.713 98.652H44.248z"/><path fill="#eff1f2" d="m92.961 436.449 36.284 57.099H56.677zm9.017 275.224H85.304v-29.505h16.674z"/><path fill="#e0e2e5" d="m170.497 527.015 44.246 139.513h-88.492z"/><path fill="#e0e2e5" d="m170.497 563.365 48.043 137.542h-96.087z"/><path fill="#e0e2e5" d="m170.497 512.426 41.014 115.932h-82.029z"/><path fill="#e0e2e5" d="m170.497 514.444 36.717 74.36h-73.435z"/><path fill="#e0e2e5" d="m170.497 511.196 27.349 43.038h-54.698zm6.795 207.451h-12.568v-22.24h12.568z"/><path fill="#eff1f2" d="m257.701 461.746 58.701 185.092H199z"/><path fill="#eff1f2" d="m257.701 509.971 63.739 182.476H193.962z"/><path fill="#eff1f2" d="m257.701 442.391 54.414 153.806H203.287z"/><path fill="#eff1f2" d="m257.701 445.068 48.713 98.653h-97.426z"/><path fill="#eff1f2" d="m257.701 440.759 36.284 57.098h-72.568zm9.017 275.224h-16.674v-29.505h16.674z"/><path fill="#d0d4d8" d="M0 861.712h1501.768s-76.2-64.976-200.027-64.976c-105.38-1.109-216.34 22.8-216.34 22.8-48.36-38.843-350.675-261.71-764.736-124.325-116.134 38.533-212.06 4.36-320.665 20.702z"/><path fill="#e0e2e5" d="M1600 786.007c-173.811-107.552-299.579-14.041-464.586-73.273-430.457-154.52-717.17 45.155-767.445 88.843 0 0-141.627-2.098-251.181-.85-45.403 0-84.798 12.355-116.788 28.342V900h1600z"/><path fill="#b8efc9" d="M1169.324 563.668h135.314v135.314h-135.314z"/><path fill="#5ebd82" d="M1215.738 515.302h64.333v48.366h-64.333z"/><path fill="#383b3e" d="M1186.415 491.088h127.548v24.183h-127.548z"/><path fill="#a4abb3" d="M1215.224 456.438h40.527v34.618h-40.527z"/><path fill="#004523" d="M1232.921 456.438h5.133v34.618h-5.133z"/><path fill="#00381b" d="M1215.738 542.447v-8.278h64.333v8.278z"/><path fill="#00381b" d="M1255.751 515.27h8.278v48.397h-8.278z"/><path fill="#383b3e" d="m1310.299 649.984-5.661-111.56 83.87-4.256 5.662 111.56z"/><path fill="#86d7a2" d="m1357.37 647.596-14.356.729-5.66-111.56 14.355-.729z"/><path fill="#86d7a2" d="m1306.723 580.601-.729-14.355 83.926-4.259.729 14.356z"/><path fill="#219557" d="M1248.511 491.056h3v24.247h-3z"/><path fill="#219557" d="M1186.326 504.669v-2.98h127.725v2.98z"/><path fill="#979ea4" d="m1346.968 505.015 47.304-2.386 1.574 31.204-47.304 2.387z"/><path fill="#219557" d="m1347.904 524.21-.363-7.182 47.37-2.39.362 7.181z"/><path fill="#219557" d="m1375.785 534.844-7.182.363-1.574-31.204 7.181-.363z"/><path fill="#a4abb3" d="M1231.567 563.668h13.997v135.314h-13.997z"/><path fill="#a4abb3" d="M1304.638 621.278v13.997h-135.314v-13.997z"/><path fill="#004523" d="m1244.88 442.373 3.63 3.63-11.342 11.341-3.63-3.63z"/><path fill="#004523" d="m1224.245 448.822 3.63-3.63 10.367 10.368-3.63 3.63z"/><path fill="#37a264" d="m1467.154 622.153-75.043-3.296 4.67-106.373 75.044 3.295z"/><path fill="#2e3033" d="m1434.385 620.714-9.506-.418 4.671-106.373 9.506.417z"/><path fill="#2e3033" d="m1436.408 511.147-7.017 6.427-20.08-21.924 7.017-6.427z"/><path fill="#2e3033" d="m1435.61 519.699-6.426-7.017 18.403-16.855 6.427 7.017z"/><path fill="#4e5256" d="m1485.015 542.668-9.15 5.98a10.471 10.471 0 1 0-12.755 8.334l-9.151 5.98a5.278 5.278 0 0 0 5.774 8.837l6.973-4.556 6.155 9.42.655 11.856a4.904 4.904 0 0 0 5.167 4.625l.748-.041a4.904 4.904 0 0 0 4.625-5.167l-.777-14.07 12.574 6.362a4.904 4.904 0 0 0 6.59-2.162l.337-.668a4.904 4.904 0 0 0-2.161-6.59l-10.703-5.415-6.098-9.332 6.972-4.556a5.278 5.278 0 1 0-5.775-8.837"/><circle cx="1474.815" cy="560.914" r="2.338" fill="#eff1f2"/><circle cx="1461.389" cy="546.731" r="1.229" fill="#eff1f2"/><circle cx="1467.264" cy="542.892" r="1.229" fill="#eff1f2"/><circle cx="1479.103" cy="567.53" r="2.338" fill="#eff1f2"/><path fill="none" stroke="#eff1f2" stroke-miterlimit="10" stroke-width="1.579" d="M1455.355 562.047c.723 1.102-.97 2.214-.248 3.316.724 1.102 2.418-.009 3.141 1.093.724 1.105-.97 2.216-.245 3.32s2.418-.007 3.143 1.098m12.264 15.756c1.315-.076 1.432 1.947 2.748 1.87 1.317-.075 1.2-2.098 2.516-2.174 1.319-.076 1.436 1.947 2.754 1.87s1.202-2.098 2.52-2.174"/><path fill="none" stroke="#eff1f2" stroke-miterlimit="10" stroke-width="1.581" d="M1494.48 579.549c.579-1.188 2.401-.298 2.98-1.486s-1.243-2.076-.663-3.264c.58-1.19 2.403-.3 2.983-1.49s-1.242-2.078-.662-3.268"/><path fill="none" stroke="#eff1f2" stroke-miterlimit="10" stroke-width="1.579" d="M1489.08 552.627c-.727-1.103.966-2.218.24-3.32-.727-1.104-2.42.01-3.146-1.093-.728-1.105.964-2.22.237-3.325s-2.42.01-3.148-1.095"/><path fill="none" stroke="#eff1f2" stroke-linecap="round" stroke-miterlimit="10" stroke-width="1.579" d="M1462.89 551.275c3.913 2.665 8.669-.075 8.09-4.943"/><path fill="#005f32" d="M1431.427 575.591c-43.172-3.89-100.393 5.273-181.537 83.842-25.782 25.297-56.16 35.18-84.347 36.414a217.4 217.4 0 0 1-60.001-14.44 43 43 0 0 0 .216 4.304c-18.355-7.463-30.549-17.585-31.596-25.443v21.14a42.355 42.355 0 0 0 42.354 42.354h285.39a62.825 62.825 0 0 0 60.626-46.35l26.63-97.998c-16.62-3.06-35.582-5.965-57.735-3.823"/><path fill="#979ea4" d="M1333.5 769.458v-45.696h-15.253v45.696h-166.91v-45.696h-15.254v45.696h-63.798a54.3 54.3 0 0 1-54.3-54.3v-.59a54.3 54.3 0 0 1 54.3-54.3c14.56.06 46.975-11.423 47.759-46.606s-20.905-47.452-46.667-46.667c-42.07 1.282-49.333 57.533-4.18 62.412a7.01 7.01 0 0 0 7.71-6.996 7.06 7.06 0 0 0-6.336-6.99c-26.72-2.953-16.225-33.337 2.806-33.152 20.397.198 31.119 7.193 31.393 31.393.118 22.216-20.148 31.393-32.19 31.393a69.81 69.81 0 0 0-69.808 69.808 69.81 69.81 0 0 0 69.808 69.809h439.571a7.607 7.607 0 0 0 7.607-7.607 7.607 7.607 0 0 0-7.607-7.607z"/><path fill="#004523" d="M1261.265 667.513c96.736-89.688 156.71-77.684 223.606-72.308 8.607.692 11.956-17.441 3.178-18.277-59.221-5.634-149.589-18.353-238.16 75.448-60.502 64.076-140.522 31.502-165.601 6.497-2.203-1.37-12.301-3.88-13.395 6.588-2.735 22.063 105.46 80.777 190.372 2.052"/><path fill="#219557" d="M534.049 306.225 430.01 634.272h208.078z"/><path fill="#219557" d="M534.049 391.696 421.081 715.108h225.936z"/><path fill="#219557" d="m534.049 271.921-96.441 272.598H630.49z"/><path fill="#219557" d="m534.049 276.666-86.336 174.847h172.672z"/><path fill="#219557" d="m534.049 269.028-64.308 101.199h128.616z"/><path fill="#00210e" d="M518.069 715.108h29.552v41.714h-29.552z"/><circle cx="502.969" cy="355.643" r="11.913" fill="#86d7a2"/><circle cx="536.334" cy="403.264" r="11.913" fill="#006c3a"/><circle cx="477.63" cy="524.865" r="11.913" fill="#9be4b3"/><circle cx="457.828" cy="692.624" r="11.913" fill="#e2f5e7"/><circle cx="480.454" cy="610.729" r="11.913" fill="#004523"/><circle cx="556.671" cy="685.391" r="11.913" fill="#00512a"/><circle cx="532.845" cy="635.623" r="11.913" fill="#9be4b3"/><circle cx="612.457" cy="692.624" r="11.913" fill="#9be4b3"/><circle cx="485.497" cy="433.029" r="11.913" fill="#00210e"/><circle cx="534.049" cy="311.742" r="11.913" fill="#00210e"/><circle cx="529.661" cy="489.33" r="11.913" fill="#9be4b3"/><circle cx="564.621" cy="353.266" r="11.913" fill="#e2f5e7"/><circle cx="561.449" cy="569.622" r="11.913" fill="#00210e"/><circle cx="586.784" cy="511.763" r="11.913" fill="#b8efc9"/><circle cx="604.765" cy="610.729" r="11.913" fill="#e2f5e7"/><circle cx="586.784" cy="429.549" r="11.913" fill="#004523"/><path fill="#a4abb3" d="m526.709 254.654 5.606-12.51 6.519 12.058 13.63 1.466-9.453 9.927 2.818 13.416-12.363-5.924-11.888 6.826 1.813-13.588-10.166-9.197z"/><path fill="#b2b9c0" d="M347.896 796.87c8.704-2.783 13.58-7.88 12.857-16.36l-23.539-14.224a6.24 6.24 0 0 0-8.102.62l-.335.334z"/><path fill="#383b3e" d="M206.286 678.398v-6.358a5.544 5.544 0 0 1 5.544-5.545 5.544 5.544 0 0 1 5.544 5.545v6.358h15.932v-4.142l-9.985-9.986a5.544 5.544 0 0 1 0-7.84 5.544 5.544 0 0 1 7.84 0l2.145 2.145v-3.57a5.544 5.544 0 0 1 5.545-5.545 5.544 5.544 0 0 1 5.544 5.545v23.393h13.998a5.62 5.62 0 0 0 5.622-5.622v-15.002l-19.958-19.958a5.544 5.544 0 0 1 0-7.84 5.544 5.544 0 0 1 7.841 0l12.117 12.116v-17.305a5.544 5.544 0 0 1 5.544-5.544 5.544 5.544 0 0 1 5.544 5.544v48.659a16.04 16.04 0 0 1-16.04 16.04h-14.668v.007h-11.089v-.006h-15.932v.05l-7.914-.03a5.2 5.2 0 0 0-5.218 5.198v15.766h-11.088v-18.94a13.133 13.133 0 0 1 13.132-13.133m-44.103 0v-6.358a5.544 5.544 0 0 0-5.544-5.545 5.544 5.544 0 0 0-5.544 5.545v6.358h-15.932v-4.142l9.985-9.986a5.544 5.544 0 0 0 0-7.84 5.544 5.544 0 0 0-7.84 0l-2.145 2.145v-3.57a5.544 5.544 0 0 0-5.544-5.545 5.544 5.544 0 0 0-5.545 5.545v23.393h-13.998a5.62 5.62 0 0 1-5.622-5.622v-15.002l19.958-19.958a5.544 5.544 0 0 0 0-7.84 5.544 5.544 0 0 0-7.841 0l-12.117 12.116v-17.305a5.544 5.544 0 0 0-5.544-5.544 5.544 5.544 0 0 0-5.544 5.544v48.659a16.04 16.04 0 0 0 16.04 16.04h14.668v.007h11.089v-.006h15.932v.05l7.914-.03a5.2 5.2 0 0 1 5.218 5.198v15.766h11.089v-18.94a13.133 13.133 0 0 0-13.133-13.133"/><path fill="#7d8389" d="M314.972 835.585h-141.38a34.957 34.957 0 0 1-34.957-34.957v-4.205a34.957 34.957 0 0 1 34.957-34.956h137.176a39.16 39.16 0 0 1 39.161 39.161 34.957 34.957 0 0 1-34.957 34.957"/><path fill="#8a9097" d="M324.037 836.075h-34.674A20.565 20.565 0 0 1 268.8 815.51v-3.754a42.486 42.486 0 0 1 42.485-42.485h1.487a37.16 37.16 0 0 1 37.158 37.157v3.755a25.89 25.89 0 0 1-25.892 25.892z"/><path fill="#8a9097" d="M332.902 855.105h-55.895v-19.52h55.895a9.76 9.76 0 0 1 9.76 9.76 9.76 9.76 0 0 1-9.76 9.76"/><path fill="#7d8389" d="M207.821 855.105H160.7a9.76 9.76 0 0 1-9.76-9.76 9.76 9.76 0 0 1 9.76-9.76h47.122v19.52z"/><path fill="#2e3033" d="M277.007 855.105h-32.725v-5.816a13.704 13.704 0 0 1 13.704-13.704h19.021zm-69.186-19.52h19.022a13.704 13.704 0 0 1 13.704 13.704v5.816H207.82v-19.52z"/><path fill="#b2b9c0" d="M220.297 776.737c-2.51 22.511-31.314 21.132-35.681 28.092-7.33 11.683 14.131 15.632 0 15.632-22.55 0-45.981-19.576-45.981-43.724 0 0-5.742-47.467 40.83-47.851s40.832 47.851 40.832 47.851"/><path fill="#d0d4d8" d="M150.41 762.936c1.786 16.019 22.283 15.037 25.39 19.99 5.217 8.313-10.055 11.123 0 11.123 16.047 0 32.72-13.93 32.72-31.113 0 0 4.087-33.777-29.054-34.05s-29.055 34.05-29.055 34.05z"/><path fill="#7d8389" d="M167.025 718.464q-10.915-28.685-38.556-15.343c4.146 18.117 17.529 23.237 38.556 15.343"/><path fill="#8a9097" d="M157.182 714.26q-6.506-14.162-20.964-8.343c2.64 8.88 9.913 11.676 20.964 8.342z"/><path fill="#7d8389" d="M227.443 749.407h-51.851a21.764 21.764 0 0 1-21.764-21.764 10.35 10.35 0 0 1 10.353-10.352h67.926a10.35 10.35 0 0 1 10.353 10.352v6.747a15.017 15.017 0 0 1-15.017 15.017"/><path fill="#7d8389" d="M220.283 735.664h-60.145a6.31 6.31 0 0 1-6.31-6.31 25.806 25.806 0 0 1 25.806-25.806h8.533a32.116 32.116 0 0 1 32.116 32.116"/><ellipse cx="235.942" cy="723.46" fill="#006c3a" rx="11.759" ry="6.553"/><path fill="#101112" d="m815.691 388.887-5.472 2.654 1.92 30.56 9.555-5.429z"/><path fill="#d0d4d8" d="m1012.41 360.488.556-2.293a24 24 0 0 1-.51 1.611 9 9 0 0 1-.046.682m-4.526 22.399c-.106-.06-.206-.12-.31-.181l.033.181z"/><path fill="#71767c" d="M984.167 376.714a12.6 12.6 0 0 1 5.929 3.441l1.823-6.264a11.4 11.4 0 0 1 3.13-1.564c2.61-1.046 4.365-13.15 5.408-18.89 1.16-6.374.815-7.984.815-7.984s-11.452-5.017-14.929-4.439c-3.476.58-11.591 5.796-15.647 5.796a10 10 0 0 1-4.497-1.135 29 29 0 0 0-.601 2.85 94.4 94.4 0 0 0 1.376 15.314 81 81 0 0 0 1.596 7.324q.173.638.342 1.252l3.605 7.917c3.983-4.876 8.443-4.368 11.65-3.618"/><path fill="#d0d4d8" d="m1007.336 381.392 4.138-17.049a50.5 50.5 0 0 1-5.4 10.088z"/><path fill="#71767c" d="m1007.575 382.706-.239-1.314-1.262-6.961a50.5 50.5 0 0 0 5.4-10.088 16 16 0 0 0 .936-3.855c.022-.23.042-.46.046-.682a4.88 4.88 0 0 0-1.112-3.515c-1.747-1.91-3.71-1.183-5.498.515-3.126 2.964-5.724 8.89-5.724 8.89l3.1 10.847q.054.39.103.776a11.6 11.6 0 0 1 .035 2.423 12.27 12.27 0 0 1-5.775 9.577c-4.81 2.73-6.99 3.011-10.208 5.044a30.7 30.7 0 0 0-4.978 4.48c-.924 7.883-1.77 14.824-1.77 14.824h32.562l-5.584-30.78z"/><path fill="#00512a" d="M1074.585 834.982c0-104.284-32.084-160.239-31.784-169.838 1.639-52.444-2.136-64.56-12.888-98.501l-.087.85h-62.52c.33 6.649 1.652 21.14 6.938 31.97 5.336 10.932 11.753 30.855 17.574 51.002 8.975 31.063 16.533 62.659 16.533 62.659l24.902 121.858z"/><path fill="#101112" d="M907.46 437.419c-25.954-6.334-62.588-15.464-75.748-18.594l.02-.133-24.652-16.142.025-.14-25.498-1.78-.002.001c-1.26 5.128.824 14.118 5.572 16.425l15.211 12.373 13.189 3.244c3.003.74 5.549 1.338 7.601 1.806 11.44 6.551 64.832 31.31 79.717 37.452z"/><path fill="#00381b" d="m902.21 474.82 77.745-19.96c11.415-4.661 11.954-19.586 11.127-29.368l-.862-5.018c-3.594-14.529-22.851-15.774-31.039-13.153-16.316 5.226-51.721 30.098-51.721 30.098z"/><path fill="#101112" d="m915.819 852.084.122.15a20.97 20.97 0 0 0 16.194 7.646h61.74l-5.089-24.898h-29.573zm169.494-1.176-21.128-15.926h-21.659l-3.232 24.898h41.32a5.717 5.717 0 0 0 4.7-8.972z"/><path fill="#00512a" d="m939.935 567.492.248 7.995 4.005 129.1 5.752 130.395h44.537c5.352-61.943 1.393-82.378-2.837-117.25-2.785-22.957-3.169-50.202 2.235-70.722-5.82-20.147-18.024-36.615-23.36-47.548-5.286-10.83-6.608-25.32-6.938-31.97z"/><path fill="#71767c" fill-rule="evenodd" d="M981.685 395.273h27.489L999 403.43l-10.173 4.36-7.817-4.272-.905-5.902z"/><path fill="#004523" d="m1055.861 576.363-1.57-28.777c1.587-7.91 2.466-14.316 1.854-22.337l-18.747-3.44 9.09-105.132.01-.105-.062.075-25.19 30.887-.049.63-.033-.007.081-1.068 25.191-30.887-35.09-20.474h-31.982l-24.535 14.79a36.59 36.59 0 0 0-16.217 21.075l-.063-.013c-9.933 33.903-19.41 80.364-8.917 116.006l-13.599 102.686h152.184z"/><path fill="#00512a" d="m1077.73 520.109.554.195-20.98-90.562c-3.657-12.114-10.807-17.798-20.772-17.079-15.198 2.266-16.628 22.166-15.767 30.95 1.647 16.772 7.502 34.506 12.362 46.92 22.88 3.127 42.443 11.066 44.604 29.576z"/><path fill="#eff1f2" d="M1064.615 619.943H918.451l-4.307 31.592h155.571z"/><path fill="#101112" d="M1056.145 576.347H925.823l3.809-28.761h124.659z"/><path fill="#eff1f2" d="m1013.016 540.764-56.67-.381-.288 42.786 56.67.381zm-51.91 38.647.237-35.203 46.625.314-.237 35.202z"/><path fill="#00381b" d="m902.21 474.82-80.516-35.869 11.792-22.606 73.974 21.074z"/><path fill="#101112" d="m978.843 489.325-16.048-15.702-13.521 1.143 1.369 3.759 8.255 1.326 1.482 2.692z"/><path fill="#1a1c1d" d="M1033.127 490.533c-18.393-2.514-38.928-1.92-54.284-1.208l-22.809-8.378s-3.746 26.965-3.779 26.964c6.573 3.263 25.274 2.78 25.274 2.78s99.91 18.791 100.004 18.148a33.4 33.4 0 0 0 .198-8.73c-2.16-18.51-21.724-26.45-44.604-29.576"/><path fill="#101112" d="m956.034 480.947-22.751.858s-1.801 4.986 2.214 12.624c3.868 7.356 16.096 12.949 16.758 13.482z"/><path fill="#005f32" d="M1078.323 520.109c-2.173-18.51-21.852-26.45-44.867-29.576-18.502-2.514-39.159-4.319-54.606-3.607l-1.32 27.54s100.5 15.016 100.595 14.373a33.2 33.2 0 0 0 .198-8.73"/><path fill="#d0d4d8" d="M1012.42 335.219c-5.215-2.898-11.01-2.317-15.066-5.794s-5.93-7.674-12.883-9.413c-6.955-1.738-9.719.72-10.877 2.458-1.16 1.738-2.898 7.534-2.898 7.534s-9.478-1.274-9.478 7.448a9.2 9.2 0 0 0 1.235 4.74c-1.28 2.321-7.366 14.733 4.521 21.647a94.4 94.4 0 0 1-1.376-15.315 29 29 0 0 1 .6-2.85 10 10 0 0 0 4.498 1.136c4.056 0 12.17-5.217 15.647-5.796 3.477-.578 14.93 4.439 14.93 4.439s.343 1.61-.816 7.984c-1.043 5.74-2.798 17.844-5.407 18.89a11.4 11.4 0 0 0-3.13 1.564l-1.824 6.264a12.6 12.6 0 0 0-5.929-3.441c-3.207-.75-7.667-1.258-11.65 3.618l-3.605-7.917-.001-.002s-6.631 13.602-7.96 23.315c-1.718 12.561 10.9 32.444 26.461 31.855 0 0-5.469-1.21-4.864-7.858s8.842-7.249 16.849-10.367c5.1-1.987 7.212-7.194 7.367-16.72.182-11.245-6.642-26.942-6.642-26.942s2.598-5.926 5.724-8.89c1.789-1.698 3.75-2.426 5.497-.515a4.88 4.88 0 0 1 1.113 3.515c.163-.449.335-.995.51-1.611 1.796-6.327 3.891-20.512-.546-22.976"/><path fill="#00512a" d="M990.473 334.132c-14.666-6.002-28.242.162-28.845.422-.013.005 0 0 0 0a40.6 40.6 0 0 1 9.37-13.024s15.022-8.741 17.097-9.714c5.357-2.509 12.688-1.741 12.688-1.741s6.875 4.58 9.166 9.164c2.29 4.583 2.29 11.992 2.29 11.992l2.826 7.134a55.3 55.3 0 0 1-1.6 17.935s-8.809-16.365-22.992-22.168"/><path fill="#eff1f2" d="M995.426 322.864a37.46 37.46 0 0 0-24.428-1.334c-3.926-.98-11.239 8.993-9.488 13.09.604-.26 14.18-6.424 28.845-.422 14.183 5.803 22.992 22.168 22.992 22.168a54.9 54.9 0 0 0 1.665-16.635c-3.802-5.307-10.618-13.197-19.586-16.867M961.51 334.62c-.013.005 0 0 0 0"/><path fill="#00512a" d="m998.012 323.232 2.771-13.157c17.743 1.068 26.441 26.344 27.603 65.367h-8.614z"/><circle cx="1023.928" cy="379.441" r="6.573" fill="#eff1f2"/><path fill="#eff1f2" d="m989.769 518.191-12.322-1.759 1.491-31.619 12.402.054zm-160.392-72.39-10.99-5.802 11.383-26.22 12.165 3.094z"/><path fill="#101112" d="m564.62 485.79 6.41-10.086 148.052 94.08-6.41 10.086zm323.464-7.531 6.7 9.896-145.257 98.34-6.7-9.897z"/><path fill="#101112" d="m854.84 471.225 11.89 1.194-3.634 36.212-11.891-1.194z"/><circle cx="733.359" cy="561.186" r="106.327" fill="#eff1f2"/><circle cx="733.359" cy="724.89" r="134.99" fill="#eff1f2"/><circle cx="733.359" cy="425.414" r="74.069" fill="#eff1f2"/><circle cx="733.359" cy="521.862" r="9.472" fill="#101112"/><circle cx="733.359" cy="565.188" r="9.472" fill="#101112"/><circle cx="733.359" cy="608.514" r="9.472" fill="#101112"/><path fill="#101112" d="m589.416 469.142 10.716-5.292 21.84 44.228-10.717 5.292z"/><path fill="#007a42" d="M686.768 559.174v-92.362h25.943v92.362z"/><path fill="#005f32" d="M658.807 453.886h151.035v25.943H658.807z"/><path fill="#007a42" d="M686.768 554.277h2.866v16.617h-2.866zm23.077 0h2.866v16.617h-2.866zm-5.769 0h2.866v16.617h-2.866zm-5.769 0h2.866v16.617h-2.866zm-5.769 0h2.866v16.617h-2.866z"/><path fill="#006c3a" d="m780.457 422.1-49.901-9.511q-8.786 9.512 0 19.024z"/><path fill="#383b3e" d="M677.257 310.075H787.44v51.443H677.257z"/><path fill="#232628" d="M667.302 357.758h130.093v20.402H667.302z"/></g></svg>