<svg xmlns="http://www.w3.org/2000/svg" viewBox="0 0 1600 900"><g data-name="Ebene 2"><path fill="none" d="M0 0h1600v900H0z"/><path fill="#eff1f2" d="M1600 503.157c-99.327-16.534-212.845-2.55-336.584 68.208-191.537 109.526-326.797-129.906-560.429 280.291H1600zm-110.804-254.076-58.701 185.091h117.401z"/><path fill="#eff1f2" d="m1489.196 297.305-63.74 182.476h127.479z"/><path fill="#eff1f2" d="m1489.196 229.725-54.415 153.807h108.829z"/><path fill="#eff1f2" d="m1489.196 232.403-48.713 98.652h97.425z"/><path fill="#eff1f2" d="m1489.196 228.093-36.284 57.099h72.567zm-9.017 245.72h16.674v29.505h-16.674zm-140.474-190.082-58.701 185.092h117.402z"/><path fill="#eff1f2" d="m1339.705 331.956-63.739 182.476h127.478z"/><path fill="#eff1f2" d="m1339.705 264.376-54.414 153.806h108.829z"/><path fill="#eff1f2" d="m1339.705 267.053-48.712 98.652h97.425z"/><path fill="#eff1f2" d="m1339.705 262.744-36.284 57.098h72.568zm-9.016 245.719h16.674v29.505h-16.674zm-318.316-108.235-46.7 147.25h93.4z"/><path fill="#eff1f2" d="m1012.373 438.593-50.708 145.17h101.416z"/><path fill="#eff1f2" d="m1012.373 384.83-43.289 122.361h86.579z"/><path fill="#eff1f2" d="m1012.373 386.96-38.753 78.483h77.507z"/><path fill="#eff1f2" d="m1012.373 383.532-28.866 45.424h57.732zm-7.173 195.482h13.265v23.472H1005.2z"/><path fill="#e0e2e5" d="m1410.43 324.008-44.246 139.513h88.492z"/><path fill="#e0e2e5" d="m1410.43 360.358-48.044 137.541h96.087z"/><path fill="#e0e2e5" d="m1410.43 309.419-41.015 115.932h82.03z"/><path fill="#e0e2e5" d="m1410.43 311.437-36.717 74.359h73.434z"/><path fill="#e0e2e5" d="m1410.43 308.189-27.349 43.038h54.698zm-6.796 185.211h12.568v22.239h-12.568z"/><path fill="#eff1f2" d="m92.961 457.437 58.701 185.091H34.26z"/><path fill="#eff1f2" d="M92.961 505.662 156.7 688.137H29.222z"/><path fill="#eff1f2" d="m92.961 438.081 54.414 153.807H38.547z"/><path fill="#eff1f2" d="m92.961 440.759 48.713 98.652H44.248z"/><path fill="#eff1f2" d="m92.961 436.449 36.284 57.099H56.677zm9.017 275.224H85.304v-29.505h16.674z"/><path fill="#e0e2e5" d="m170.497 527.015 44.246 139.513h-88.492z"/><path fill="#e0e2e5" d="m170.497 563.365 48.043 137.542h-96.087z"/><path fill="#e0e2e5" d="m170.497 512.426 41.014 115.932h-82.029z"/><path fill="#e0e2e5" d="m170.497 514.444 36.717 74.36h-73.435z"/><path fill="#e0e2e5" d="m170.497 511.196 27.349 43.038h-54.698zm6.795 207.451h-12.568v-22.24h12.568z"/><path fill="#eff1f2" d="m257.701 461.746 58.701 185.092H199z"/><path fill="#eff1f2" d="m257.701 509.971 63.739 182.476H193.962z"/><path fill="#eff1f2" d="m257.701 442.391 54.414 153.806H203.287z"/><path fill="#eff1f2" d="m257.701 445.068 48.713 98.653h-97.426z"/><path fill="#eff1f2" d="m257.701 440.759 36.284 57.098h-72.568zm9.017 275.224h-16.674v-29.505h16.674z"/><path fill="#eff1f2" d="M0 861.712h1501.768s-76.2-64.976-200.027-64.976c-105.38-1.109-216.34 22.8-216.34 22.8-48.36-38.843-350.675-261.71-764.736-124.325-116.134 38.533-212.06 4.36-320.665 20.702z"/><path fill="#e0e2e5" d="M1600 786.007c-173.811-107.552-299.579-14.041-464.586-73.273-430.457-154.52-717.17 45.155-767.445 88.843 0 0-141.627-2.098-251.181-.85-45.403 0-84.798 12.355-116.788 28.342V900h1600z"/><path fill="#b8efc9" d="M1157.837 559.111h135.314v135.314h-135.314z"/><path fill="#5ebd82" d="M1204.251 510.745h64.333v48.366h-64.333z"/><path fill="#383b3e" d="M1174.928 486.53h127.548v24.183h-127.548z"/><path fill="#a4abb3" d="M1203.737 451.881h40.527v34.618h-40.527z"/><path fill="#004523" d="M1221.434 451.881h5.133v34.618h-5.133z"/><path fill="#00381b" d="M1204.251 537.889v-8.278h64.333v8.278z"/><path fill="#00381b" d="M1244.264 510.713h8.278v48.397h-8.278z"/><path fill="#383b3e" d="m1298.812 645.428-5.66-111.56 83.87-4.257 5.661 111.56z"/><path fill="#86d7a2" d="m1345.883 643.039-14.355.728-5.661-111.56 14.355-.728z"/><path fill="#86d7a2" d="m1295.235 576.043-.728-14.355 83.926-4.259.728 14.356z"/><path fill="#219557" d="M1237.024 486.498h3v24.247h-3z"/><path fill="#219557" d="M1174.84 500.112v-2.98h127.724v2.98z"/><path fill="#979ea4" d="m1335.48 500.458 47.305-2.386 1.574 31.204-47.304 2.387z"/><path fill="#219557" d="m1336.417 519.652-.362-7.181 47.37-2.39.362 7.181z"/><path fill="#219557" d="m1364.298 530.287-7.181.362-1.575-31.204 7.182-.362z"/><path fill="#a4abb3" d="M1220.08 559.111h13.997v135.314h-13.997z"/><path fill="#a4abb3" d="M1293.151 616.721v13.997h-135.314v-13.997z"/><path fill="#004523" d="m1233.395 437.815 3.63 3.63-11.342 11.342-3.63-3.63z"/><path fill="#004523" d="m1212.759 444.265 3.63-3.63 10.367 10.368-3.63 3.63z"/><path fill="#37a264" d="m1455.668 617.596-75.044-3.295 4.671-106.374 75.044 3.296z"/><path fill="#2e3033" d="m1422.898 616.157-9.505-.417 4.67-106.374 9.507.418z"/><path fill="#2e3033" d="m1424.92 506.59-7.016 6.427-20.08-21.924 7.017-6.427z"/><path fill="#2e3033" d="m1424.124 515.142-6.427-7.017 18.403-16.854 6.427 7.017z"/><path fill="#4e5256" d="m1473.529 538.11-9.152 5.98a10.471 10.471 0 1 0-12.754 8.335l-9.15 5.98a5.278 5.278 0 0 0 5.774 8.837l6.972-4.557 6.155 9.42.655 11.856a4.904 4.904 0 0 0 5.167 4.626l.748-.041a4.904 4.904 0 0 0 4.626-5.167l-.778-14.07 12.574 6.361a4.904 4.904 0 0 0 6.59-2.161l.338-.668a4.904 4.904 0 0 0-2.162-6.59l-10.703-5.415-6.098-9.332 6.972-4.556a5.278 5.278 0 1 0-5.774-8.837z"/><circle cx="1463.329" cy="556.357" r="2.338" fill="#eff1f2"/><circle cx="1449.902" cy="542.174" r="1.229" fill="#eff1f2"/><circle cx="1455.778" cy="538.335" r="1.229" fill="#eff1f2"/><circle cx="1467.616" cy="562.973" r="2.338" fill="#eff1f2"/><path fill="none" stroke="#eff1f2" stroke-miterlimit="10" stroke-width="1.579" d="M1443.869 557.49c.723 1.102-.971 2.213-.248 3.316s2.417-.01 3.14 1.093c.725 1.105-.97 2.216-.245 3.32s2.419-.007 3.143 1.097m12.263 15.757c1.317-.076 1.433 1.947 2.75 1.87 1.316-.075 1.2-2.098 2.516-2.174 1.318-.076 1.435 1.946 2.754 1.87s1.201-2.098 2.52-2.175"/><path fill="none" stroke="#eff1f2" stroke-miterlimit="10" stroke-width="1.581" d="M1482.993 574.992c.579-1.188 2.402-.298 2.98-1.486.58-1.187-1.243-2.077-.663-3.264.58-1.19 2.403-.3 2.983-1.49s-1.242-2.079-.662-3.268"/><path fill="none" stroke="#eff1f2" stroke-miterlimit="10" stroke-width="1.579" d="M1477.593 548.07c-.726-1.104.966-2.218.24-3.321-.727-1.103-2.42.01-3.146-1.092-.727-1.105.965-2.22.237-3.325s-2.42.01-3.148-1.096"/><path fill="none" stroke="#eff1f2" stroke-linecap="round" stroke-miterlimit="10" stroke-width="1.579" d="M1451.404 546.718c3.912 2.665 8.668-.075 8.09-4.943"/><path fill="#005f32" d="M1419.94 571.034c-43.172-3.89-100.392 5.273-181.537 83.842-25.782 25.297-56.16 35.18-84.347 36.414a217.5 217.5 0 0 1-60.001-14.44 43 43 0 0 0 .217 4.304c-18.356-7.463-30.55-17.585-31.597-25.443v21.14a42.354 42.354 0 0 0 42.354 42.354h285.39a62.825 62.825 0 0 0 60.627-46.35l26.63-97.998c-16.622-3.061-35.583-5.965-57.736-3.823"/><path fill="#979ea4" d="M1322.014 764.901v-45.696h-15.254V764.9h-166.91v-45.696h-15.254V764.9h-63.797a54.3 54.3 0 0 1-54.3-54.3v-.59a54.3 54.3 0 0 1 54.3-54.3c14.559.06 46.974-11.424 47.758-46.606s-20.905-47.452-46.666-46.667c-42.07 1.282-49.334 57.533-4.182 62.412a7.01 7.01 0 0 0 7.712-6.996 7.06 7.06 0 0 0-6.336-6.99c-26.72-2.954-16.226-33.337 2.806-33.152 20.397.197 31.118 7.193 31.393 31.393.117 22.216-20.149 31.393-32.19 31.393a69.81 69.81 0 0 0-69.809 69.808 69.81 69.81 0 0 0 69.809 69.808h439.57a7.607 7.607 0 0 0 7.607-7.606 7.607 7.607 0 0 0-7.607-7.607z"/><path fill="#004523" d="M1249.778 662.956c96.736-89.688 156.71-77.684 223.607-72.308 8.606.692 11.955-17.442 3.177-18.277-59.22-5.635-149.588-18.353-238.159 75.447-60.503 64.076-140.523 31.502-165.602 6.497-2.203-1.369-12.301-3.88-13.395 6.589-2.735 22.063 105.46 80.777 190.372 2.052"/><path fill="#219557" d="M564.374 169.458 412.959 646.889H715.79z"/><path fill="#219557" d="M564.374 293.851 399.963 764.535h328.822z"/><path fill="#219557" d="M564.374 119.532 424.016 516.265h280.716z"/><path fill="#219557" d="M564.374 126.439 438.723 380.905h251.302z"/><path fill="#219557" d="m564.374 115.323-93.591 147.281h187.183z"/><path fill="#00210e" d="M541.117 764.535h43.009v60.709h-43.009z"/><circle cx="519.141" cy="241.379" r="17.338" fill="#86d7a2"/><circle cx="567.699" cy="310.686" r="17.338" fill="#006c3a"/><circle cx="482.263" cy="487.66" r="17.338" fill="#9be4b3"/><circle cx="486.374" cy="612.624" r="17.338" fill="#004523"/><circle cx="597.298" cy="721.285" r="17.338" fill="#00512a"/><circle cx="562.622" cy="648.855" r="17.338" fill="#9be4b3"/><circle cx="493.714" cy="354.004" r="17.338" fill="#00210e"/><circle cx="564.374" cy="177.487" r="17.338" fill="#00210e"/><circle cx="557.989" cy="435.943" r="17.338" fill="#b8efc9"/><circle cx="608.869" cy="237.921" r="17.338" fill="#e2f5e7"/><circle cx="604.252" cy="552.798" r="17.338" fill="#b8efc9"/><circle cx="641.123" cy="468.592" r="17.338" fill="#00210e"/><circle cx="667.293" cy="612.624" r="17.338" fill="#e2f5e7"/><path fill="#a4abb3" d="m553.692 96.724 8.158-18.207 9.489 17.55 19.837 2.133-13.759 14.447 4.101 19.525-17.992-8.621-17.302 9.935 2.639-19.776-14.795-13.385z"/><circle cx="464.445" cy="731.812" r="17.338" fill="#e2f5e7"/><circle cx="689.487" cy="731.812" r="17.338" fill="#9be4b3"/><path fill="#b2b9c0" d="M347.896 796.87c8.704-2.783 13.58-7.88 12.857-16.36l-23.539-14.224a6.24 6.24 0 0 0-8.102.62l-.335.334z"/><path fill="#383b3e" d="M206.286 678.398v-6.358a5.544 5.544 0 0 1 5.544-5.545 5.544 5.544 0 0 1 5.544 5.545v6.358h15.932v-4.142l-9.985-9.986a5.544 5.544 0 0 1 0-7.84 5.544 5.544 0 0 1 7.84 0l2.145 2.145v-3.57a5.544 5.544 0 0 1 5.545-5.545 5.544 5.544 0 0 1 5.544 5.545v23.393h13.998a5.62 5.62 0 0 0 5.622-5.622v-15.002l-19.958-19.958a5.544 5.544 0 0 1 0-7.84 5.544 5.544 0 0 1 7.841 0l12.117 12.116v-17.305a5.544 5.544 0 0 1 5.544-5.544 5.544 5.544 0 0 1 5.544 5.544v48.659a16.04 16.04 0 0 1-16.04 16.04h-14.668v.007h-11.089v-.006h-15.932v.05l-7.914-.03a5.2 5.2 0 0 0-5.218 5.198v15.766h-11.088v-18.94a13.133 13.133 0 0 1 13.132-13.133m-44.103 0v-6.358a5.544 5.544 0 0 0-5.544-5.545 5.544 5.544 0 0 0-5.544 5.545v6.358h-15.932v-4.142l9.985-9.986a5.544 5.544 0 0 0 0-7.84 5.544 5.544 0 0 0-7.84 0l-2.145 2.145v-3.57a5.544 5.544 0 0 0-5.544-5.545 5.544 5.544 0 0 0-5.545 5.545v23.393h-13.998a5.62 5.62 0 0 1-5.622-5.622v-15.002l19.958-19.958a5.544 5.544 0 0 0 0-7.84 5.544 5.544 0 0 0-7.841 0l-12.117 12.116v-17.305a5.544 5.544 0 0 0-5.544-5.544 5.544 5.544 0 0 0-5.544 5.544v48.659a16.04 16.04 0 0 0 16.04 16.04h14.668v.007h11.089v-.006h15.932v.05l7.914-.03a5.2 5.2 0 0 1 5.218 5.198v15.766h11.089v-18.94a13.133 13.133 0 0 0-13.133-13.133"/><path fill="#7d8389" d="M314.972 835.585h-141.38a34.957 34.957 0 0 1-34.957-34.957v-4.205a34.957 34.957 0 0 1 34.957-34.956h137.176a39.16 39.16 0 0 1 39.161 39.161 34.957 34.957 0 0 1-34.957 34.957"/><path fill="#8a9097" d="M324.037 836.075h-34.674A20.565 20.565 0 0 1 268.8 815.51v-3.754a42.486 42.486 0 0 1 42.485-42.485h1.487a37.16 37.16 0 0 1 37.158 37.157v3.755a25.89 25.89 0 0 1-25.892 25.892z"/><path fill="#8a9097" d="M332.902 855.105h-55.895v-19.52h55.895a9.76 9.76 0 0 1 9.76 9.76 9.76 9.76 0 0 1-9.76 9.76"/><path fill="#7d8389" d="M207.821 855.105H160.7a9.76 9.76 0 0 1-9.76-9.76 9.76 9.76 0 0 1 9.76-9.76h47.122v19.52z"/><path fill="#2e3033" d="M277.007 855.105h-32.725v-5.816a13.704 13.704 0 0 1 13.704-13.704h19.021zm-69.186-19.52h19.022a13.704 13.704 0 0 1 13.704 13.704v5.816H207.82v-19.52z"/><path fill="#b2b9c0" d="M220.297 776.737c-2.51 22.511-31.314 21.132-35.681 28.092-7.33 11.683 14.131 15.632 0 15.632-22.55 0-45.981-19.576-45.981-43.724 0 0-5.742-47.467 40.83-47.851s40.832 47.851 40.832 47.851"/><path fill="#d0d4d8" d="M150.41 762.936c1.786 16.019 22.283 15.037 25.39 19.99 5.217 8.313-10.055 11.123 0 11.123 16.047 0 32.72-13.93 32.72-31.113 0 0 4.087-33.777-29.054-34.05s-29.055 34.05-29.055 34.05z"/><path fill="#7d8389" d="M167.025 718.464q-10.915-28.685-38.556-15.343c4.146 18.117 17.529 23.237 38.556 15.343"/><path fill="#8a9097" d="M157.182 714.26q-6.506-14.162-20.964-8.343c2.64 8.88 9.913 11.676 20.964 8.342z"/><path fill="#7d8389" d="M227.443 749.407h-51.851a21.764 21.764 0 0 1-21.764-21.764 10.35 10.35 0 0 1 10.353-10.352h67.926a10.35 10.35 0 0 1 10.353 10.352v6.747a15.017 15.017 0 0 1-15.017 15.017"/><path fill="#7d8389" d="M220.283 735.664h-60.145a6.31 6.31 0 0 1-6.31-6.31 25.806 25.806 0 0 1 25.806-25.806h8.533a32.116 32.116 0 0 1 32.116 32.116"/><ellipse cx="235.942" cy="723.46" fill="#006c3a" rx="11.759" ry="6.553"/><path fill="#101112" d="m654.434 337.757-5.054 2.451 1.773 28.226 8.826-5.014z"/><path fill="#d0d4d8" d="m820.315 363.998.514-2.118c-.162.57-.32 1.073-.471 1.488a9 9 0 0 1-.043.63m-4.18 20.688c-.098-.055-.19-.111-.286-.167l.03.167z"/><path fill="#71767c" d="M794.23 378.984a11.64 11.64 0 0 1 5.475 3.179l1.685-5.786a10.5 10.5 0 0 1 2.89-1.445c2.411-.965 4.031-12.145 4.995-17.447 1.071-5.887.753-7.374.753-7.374s-10.577-4.634-13.789-4.1c-3.21.535-10.706 5.353-14.452 5.353a9.2 9.2 0 0 1-4.154-1.048 27 27 0 0 0-.555 2.632 87 87 0 0 0 1.271 14.145c.372 2.17.853 4.459 1.474 6.764q.159.59.316 1.157l3.33 7.312c3.679-4.503 7.798-4.034 10.76-3.342z"/><path fill="#d0d4d8" d="m815.629 383.305 3.822-15.746a46.6 46.6 0 0 1-4.988 9.317z"/><path fill="#71767c" d="m815.849 384.519-.22-1.214-1.166-6.43a46.6 46.6 0 0 0 4.988-9.316 14.8 14.8 0 0 0 .864-3.561c.02-.213.039-.425.043-.63a4.5 4.5 0 0 0-1.028-3.246c-1.613-1.765-3.425-1.093-5.078.475-2.887 2.738-5.286 8.21-5.286 8.21l2.863 10.02q.05.36.095.717a10.7 10.7 0 0 1 .033 2.238 11.33 11.33 0 0 1-5.335 8.845c-4.443 2.521-6.456 2.781-9.428 4.659a28.4 28.4 0 0 0-4.598 4.138 3314 3314 0 0 1-1.635 13.692h30.075l-5.157-28.43z"/><path fill="#00512a" d="M877.742 802.253c0-96.32-29.634-148-29.357-156.867 1.514-48.438-1.973-59.628-11.903-90.978l-.081.785h-57.745c.305 6.141 1.526 19.525 6.408 29.528 4.929 10.097 10.855 28.5 16.232 47.108 8.29 28.69 15.27 57.873 15.27 57.873l23 112.551z"/><path fill="#101112" d="M726.505 410.307c-20.702-13.428-49.864-32.547-60.386-39.284l.058-.11-16.579-21.584.064-.114-21.691-9.32-.002.002c-2.661 4.087-3.582 12.56-.144 16.018l9.495 15.422v.001l10.512 6.845a414 414 0 0 0 6.078 3.89c7.98 9.196 46.994 47.048 58.103 56.937z"/><path fill="#00381b" d="m710.536 441.32 73.87 6.276c11.372-.588 16.388-13.438 18.647-22.22l.777-4.637c1.29-13.764-15.121-20.715-23.059-20.923-15.819-.413-54.266 10.49-54.266 10.49z"/><path fill="#101112" d="m731.1 818.049.114.139a19.36 19.36 0 0 0 14.957 7.062h57.025l-4.7-22.997H771.18zm156.55-1.086-19.514-14.71h-20.004l-2.986 22.997h38.163a5.28 5.28 0 0 0 4.342-8.287z"/><path fill="#00512a" d="m753.375 555.193.23 7.383 3.698 119.242 5.313 120.435h41.136c4.943-57.212 1.286-76.086-2.62-108.295-2.572-21.204-2.927-46.368 2.064-65.32-5.377-18.61-16.648-33.82-21.577-43.917-4.882-10.003-6.102-23.387-6.407-29.528z"/><path fill="#71767c" fill-rule="evenodd" d="M791.937 396.126h25.389l-9.396 7.534-9.397 4.027-7.219-3.945-.836-5.452z"/><path fill="#004523" d="m860.448 563.385-1.45-26.578c1.465-7.306 2.277-13.223 1.712-20.632L843.394 513l8.397-97.104.008-.096-.056.068-23.267 28.529-.045.582-.03-.007.075-.986 23.267-28.529-32.411-18.91h-29.539l-22.66 13.66a33.8 33.8 0 0 0-14.98 19.466l-.058-.012c-9.175 31.314-17.928 74.226-8.235 107.147l-12.561 94.843H871.86z"/><path fill="#00512a" d="m880.647 511.428.511.18-19.378-83.645c-3.377-11.189-9.981-16.44-19.185-15.775-14.038 2.093-15.358 20.473-14.563 28.586 1.521 15.491 6.929 31.871 11.418 43.337 21.133 2.888 39.202 10.22 41.197 27.317"/><path fill="#eff1f2" d="M868.533 603.638H733.532l-3.978 29.179h143.69z"/><path fill="#101112" d="M860.71 563.371H740.341l3.519-26.564h115.138z"/><path fill="#eff1f2" d="m820.875 530.506-52.342-.353-.266 39.519 52.341.352zM772.929 566.2l.219-32.514 43.064.29-.219 32.513z"/><path fill="#00381b" d="m710.536 441.32-59.282-55.799 17.167-16.121 58.084 40.907z"/><path fill="#101112" d="m789.311 482.995-14.822-14.503-12.488 1.056 1.265 3.472 7.624 1.225 1.369 2.486z"/><path fill="#1a1c1d" d="M839.45 484.11c-16.989-2.321-35.955-1.772-50.139-1.115l-21.066-7.738s-3.46 24.906-3.49 24.905c6.07 3.014 23.343 2.568 23.343 2.568s92.28 17.355 92.367 16.762a30.8 30.8 0 0 0 .182-8.064c-1.995-17.096-20.064-24.43-41.197-27.317z"/><path fill="#101112" d="m768.245 475.257-21.014.792s-1.663 4.605 2.045 11.66c3.573 6.794 14.867 11.96 15.479 12.453z"/><path fill="#005f32" d="M881.194 511.428c-2.007-17.096-20.183-24.43-41.44-27.317-17.09-2.322-36.168-3.989-50.435-3.332l-1.22 25.437s92.825 13.87 92.912 13.276a30.7 30.7 0 0 0 .183-8.064"/><path fill="#d0d4d8" d="M820.325 340.658c-4.817-2.676-10.17-2.14-13.916-5.351s-5.477-7.088-11.9-8.694c-6.423-1.605-8.976.664-10.045 2.27-1.07 1.606-2.677 6.959-2.677 6.959s-8.754-1.177-8.754 6.879a8.5 8.5 0 0 0 1.14 4.378c-1.181 2.144-6.803 13.608 4.176 19.994a87 87 0 0 1-1.27-14.145 27 27 0 0 1 .554-2.632 9.2 9.2 0 0 0 4.154 1.049c3.746 0 11.241-4.819 14.452-5.353 3.212-.535 13.79 4.099 13.79 4.099s.317 1.487-.754 7.375c-.964 5.3-2.584 16.48-4.994 17.446a10.5 10.5 0 0 0-2.891 1.445l-1.685 5.786a11.64 11.64 0 0 0-5.476-3.179c-2.962-.692-7.081-1.16-10.76 3.342l-3.33-7.312v-.002s-6.125 12.563-7.352 21.534c-1.587 11.602 10.067 29.966 24.44 29.422 0 0-5.052-1.116-4.493-7.257s8.167-6.696 15.562-9.576c4.71-1.834 6.661-6.644 6.804-15.443.169-10.385-6.134-24.884-6.134-24.884s2.4-5.473 5.286-8.211c1.653-1.568 3.465-2.24 5.078-.475a4.5 4.5 0 0 1 1.028 3.246c.15-.415.31-.919.471-1.488 1.658-5.844 3.594-18.945-.504-21.222"/><path fill="#00512a" d="M800.054 339.654c-13.547-5.543-26.086.15-26.643.39-.012.005 0 0 0 0a37.5 37.5 0 0 1 8.655-12.029s13.875-8.074 15.79-8.972c4.949-2.317 11.72-1.608 11.72-1.608s6.35 4.23 8.466 8.464c2.115 4.233 2.115 11.076 2.115 11.076l2.61 6.59a51 51 0 0 1-1.478 16.564s-8.135-15.115-21.235-20.475"/><path fill="#eff1f2" d="M804.628 329.247a34.6 34.6 0 0 0-22.562-1.232c-3.627-.905-10.38 8.306-8.763 12.09.557-.24 13.096-5.933 26.642-.39 13.1 5.36 21.235 20.475 21.235 20.475a50.7 50.7 0 0 0 1.538-15.364c-3.511-4.902-9.806-12.189-18.09-15.579m-31.325 10.858c-.013.005 0 0 0 0"/><path fill="#00512a" d="m807.017 329.587 2.56-12.152c16.387.986 24.421 24.332 25.494 60.374h-7.956z"/><circle cx="830.953" cy="381.503" r="6.071" fill="#eff1f2"/><path fill="#eff1f2" d="m799.404 509.657-11.381-1.625 1.376-29.204 11.456.05zm-141.967-115.48-8.057-8.174 17.338-19.91 9.848 6.118z"/><circle cx="634.123" cy="348.94" r="17.338" fill="#004523"/></g></svg>