<svg xmlns="http://www.w3.org/2000/svg" viewBox="0 0 1600 900"><path fill="#eff1f2" fill-rule="evenodd" d="M0-1h1600v608H0z" clip-rule="evenodd"/><g fill-rule="evenodd" clip-rule="evenodd"><path fill="#147671" d="m551.5 527.3 42.4-26.4c6.6-4.8 9.2-4.8 14.5-3.9 2.2 7.4.2 17.6-7.9 23.7-11.2 8.5-25.1 14.8-32.6 17.8-4-8.3-8.8-13.6-16.4-11.2"/><path fill="#419e98" d="M605.9 471.8c-1 3.9-2.8 10.3-3.8 11.8 0 0 6.8 1.4 13 1.3.1-.7.2-1.3.2-1.9-1.9-.1-3.9-.4-5.7-1-.1.1-1.7-3.3-3.7-10.2"/><path fill="#1a1c1d" d="M614.5 487.4c2.6-1.4 4.2-2.8 6.3-4.7-2.1.5-3.6.6-5.8.5z"/><path fill="#419e98" d="m602.1 464.6 2.3 2.2c-.2-1.3-.3-2.6-.4-3.7 2.3-1.4 4.9-2.1 7.7-2.1 5.8 0 10.2-4.5 10.2-4.5 2.2 2 4.4 1.7 4.4 1.7-.2 2.8.4 5.4 1 8.2 1.2-2 3.7-5 5.8-2.8 2.8 2.9-3.5 10-4.5 11.1v.7c-.3 3.2-1.5 6.2-3.3 8.8l6 .4c.3 0 .6.1.8.1 5.4.5 7.6 0 7.6 0s-1.1-4.1-1.1-10.9c0-2.6.1-4.7-.2-7.3 0 0-6-10.3-15-13.8-9.3-3.6-18.2-.1-18.6.1-.3.2-.7.4-1 .6-8.8 5.5-1.7 11.2-1.7 11.2"/><path fill="#116864" d="m638.3 466.8.9-10.9-1.9-4.3s0-4.5-1.5-7.2c-1.5-2.8-6-5.5-6-5.5s-4.8-.5-8.3 1c-1.4.6-6.7 4.5-6.7 4.5l-4.5 1.4-6.5 7.7c.4-.2 9.6-3.7 19.2-.1 9.3 3.4 15.3 13.4 15.3 13.4"/><path fill="#2e3033" d="M603.7 462.7c.1 1.1.2 2.3.4 3.7.3 1.9.7 3.8 1.3 5.7v.1c2 6.9 3.7 10.1 3.7 10.1 1.9.5 3.9.9 5.8 1s3.8 0 5.6-.5c-1.8 1.8-3.9 3.3-6.1 4.6-.6 5.1-1.3 9.9-1.3 9.9h21l-2.5-12.6c-3.1-.3-6.2-.8-6.2-.8 1.9-2.7 3.1-5.7 3.4-8.9v-.7c1-1.1 7-8 4.1-10.9-2.2-2.2-4.6.8-5.8 2.8-.7-2.8-.9-5.6-.7-8.4 0 0-2.3.3-4.5-1.7 0 0-4.5 4.5-10.4 4.5-2.7 0-5.4.7-7.8 2.1"/><path fill="#0a4f4b" d="M645.4 499h.1c.1 0 .3.1.4.1s.2.1.3.1c.1.1.3.1.4.2.1 0 .2.1.3.1.1.1.2.1.4.2.1 0 .2.1.3.1.1.1.2.1.3.2.1 0 .2.1.3.1.1.1.2.1.3.2s.2.1.3.2.2.1.3.2.2.1.2.2c.1.1.2.1.3.2s.2.1.2.2c.1.1.2.1.3.2l.2.2c.1.1.2.2.3.2l.2.2c.1.1.2.2.2.3l.2.2c.1.1.2.2.2.3l.2.2c.1.1.2.2.2.3s.1.1.1.2c.1.1.2.2.2.4l.1.1c.1.2.2.3.3.5 0 0 0 .1.1.1.1.1.2.3.2.4s.1.1.1.2c.1.1.1.2.2.4 0 .1.1.2.1.2 0 .1.1.2.1.3s.1.2.1.2c0 .1.1.2.1.3s.1.2.1.3.1.2.1.3 0 .2.1.3c0 .1.1.2.1.3s0 .2.1.3c0 .1 0 .2.1.3v.3c0 .1 0 .2.1.4v5.2c0 .2-.1.5-.1.7L642.6 569h-12.1z"/><path fill="#2e908b" d="M591.6 569s1.1-13.2-1.3-22.7c-.8-3.2-1.6-6.3-2.3-9.4-2.3-9.1-.7-13.8 3-18.2.1-.1.2-.2.3-.4 8.3-11.6 11.6-19.2 11.6-19.2l4.1-2.6 4.2-.5 1.8-4.5h20.2l2 4.5s10.5 3.2 11 3.3v.1L631.5 569z"/><path fill="#8a9097" d="M611.8 594.3c2.8 6.5 6.3 17.6 9.7 29.7-5.5 20.4-11.1 40.2-7.7 52.4 8.8 31.3 9.4 37.2 7.4 62.4h-19.7l-7.4-65.1-3-79.5c0-1.6 1.6-16.4 1.8-18l3.5-7.2h12.7z"/><path fill="#2e3033" d="M601.4 738.8H617c-1.8 8-4.1 15.3-6.2 22.2v.1h-6.7z"/><path fill="#979ea4" d="M663.5 740.4H643l-8.9-64s-6.4-28.1-13.3-52.5c-3.4-12-6.8-23.2-9.7-29.7-4.5-10.3-4.5-25.2-4.5-25.2h30.6c17.6 21.3 11.4 34.7 10.3 72.6-.2 6.8 0 12.5 2.4 16.4 14.1 22 10 31.9 13.6 82.4"/><path fill="#2e3033" d="m657.3 761-5.6-20.6h11.9c.1 6.3.2 12.6.5 20.5z"/><path fill="#43464a" d="m620.3 574.2 17.4-4.5 3.9 14s-13.5-.5-14.9-2.7c-.6-1-1.2-2-1.6-3.1-.2-.5-3.7-1-3.9-1.5-.6-1.3-.9-2.2-.9-2.2"/><path fill="#18837e" d="M667.5 548.3c-6.1-5-17.2-14.8-24.8-25.8-5.4-7.9-3.3-17.7 1.9-23.6 5.5.7 8.1 1.5 12.6 7.9l30.9 36.5c-6.4-4.6-13.3-1.3-20.6 5"/><path fill="#2e3033" d="m644.4 571.8 4.8 9.1c-2 .8-7.6 2.8-7.6 2.8l-3.9-14z"/><path fill="#419e98" d="m651 584.5-2.1-3.9-4.8-8.9-.4-.7c8.2-7.1 16.1-16.7 23.7-23.1 7.2-6.1 14.2-9.4 20.6-5 2 1.4 3.9 3.4 5.8 6.4z"/><path fill="#2e3033" d="M553.6 537.7c-1.8.1-3.6-.2-5.3-.9l-.6-.3-31.5-13.7s-7.9 1.3-13.7.4l-14.3-7.7c-3.2-1.2-4.9-4.3-4.1-7.5l15 .1 14.8 6.4 48.7 8.5c.1.2.2.3.2.5 3.4 6.6-2.3 13.6-9.2 14.2"/><path fill="#147671" d="M581.2 526.7c-9.2 22.6-39 10.4-66.7-1.4l.4-1.9 1.8-8.4.2-1.1c0-.1 64.4 12.4 64.3 12.8"/><path fill="#cfd3d7" d="m610.7 761 3.1 15h-30.6c-4 0-7.8-1.7-10.4-4.6l-.1-.1 31.5-10.3zm67.6 11.5c0 1.9-1.6 3.4-3.6 3.4h-18.4l1.1-14.9 6.6-.1 13.7 9.6c.3.6.6 1.3.6 2"/><path fill="#54aba5" d="m970 550.9 8.7-19.9c17.5 6 42.3 14.5 51.2 17.6v-.1l20.6.2v-.1l15.5 8.3c-1.3 3.2-5.9 7.4-9.6 6.9l-13.6 1.2-8.9-3q-3-1.05-5.1-1.8c-9.2-.6-28.3-2.6-39.3-4.7z"/><path fill="#0a4f4b" d="M960.7 433.3v-.1c.3.4.5.7.5.7s1.1-3.4.8-6.3v-.5c1 1.9 1.6 6.3-1.3 10z"/><path fill="#2e908b" d="M948.6 463.9c-2.4-1.4-4.6-3-6.6-4.9 2.1.5 4.3.7 6.5.5.2 1.4.3 2.9.5 4.5z"/><path fill="#0a4f4b" d="M924.3 434.9c-.4-3.8 5.3-7 5.3-7s0-2.9 4.8-6.6 10.1-1.2 14.5-1.7c4.4-.4 9.3-1.7 12.8 0 3.3 1.6.4 6.1.4 9v.5c.4 2.9-.9 6.2-.9 6.2s-.2-.3-.6-.6c-.9-1-2.5-2.5-3.8-3.1-1.8-.8-2.3.3-7.1 1.6-4.8 1.2-10.1-2.1-10.1-2.1 2.6 7-1.5 8.2-2.8 10.2-.3.5-.5 1.2-.5 1.8-1.5-2.4-4.2-5.2-6-3.3-2.5 2.6 1.8 8.9 4 11.8l-1 2c0-.1-8.4-13.8-9-18.7"/><path fill="#54aba5" d="M949.5 464.4c.7 5.4 1.4 10.6 1.4 10.6H929l4.3-21.5 1-2c-2.2-2.9-6.5-9.3-4-11.8 2.1-2.1 4.6.9 6.1 3.2 0-.6.2-1.2.5-1.7 1.3-2 5.5-3.3 2.8-10.2 0 0 4.9 3.2 9.7 2 4.9-1.2 5.8-2.4 7.5-1.6 1.3.6 3.1 2.4 4 3.4v.1s0 1.4-.2 3.5c-.3 3.5-.9 7-1.8 10.4-2.1 7.1-3.8 10.5-3.8 10.5-2 .6-4 .9-6.1 1-1.9.1-3.9 0-5.8-.5 1.8 1.6 3.8 3.1 5.9 4.3z"/><path fill="#2e3033" d="M950 468h-21v-4h21z"/><path fill="#71767c" d="M990 766.6c-2.6 2.8-6.4 4.4-10.5 4.4H940l3.3-14h18.9zm-90.2-9.6h13.5l2.1 13.9H889c-2 0-3.6-1.4-3.6-3.2q0-1.05.6-1.8z"/><path fill="#979ea4" d="m976 539.3.1-41.9q.15-1.65 0-3.3l7.8 38.6-.1.1-7.8 7.2z"/><path fill="#07423f" d="M954.1 569h12.4l3.2 19.5-3 76.9-3.7 91.7h-20.3c-4.8-52.7-7-45.2-.9-84 2.5-16 .1-31.3-3.4-45.7 3.8-14.2 7.9-28.2 11.3-35.8 3.4-7.7 4.2-17.9 4.4-22.6"/><path fill="#0a4f4b" d="M900 757.5c0-73.3-10.6-70.7 8.3-102.1 2.3-3.8 2.6-9.5 2.4-16.3-.1-3.4-.2-6.7-.3-9.8.6.2 1.3.3 2 .4 1 .1 2.6.2 3.6.1l-2-21.6-3.1-10.7s0-4-.1-10h19.9l1.8-18.6h22.2c-.2 4.7-.9 15.4-4.3 23-3.4 7.7-7.4 21.7-11.1 35.8-5.7 21.8-10.5 44-10.5 44l-15.7 85.7h-3.3z"/><path fill="#71767c" d="m961.6 537.6 4.9 31.4h-33.7l3.2-32c-1.9-38.1-11.5-66.3-11.5-66.3l4.8-2.6h20.3l11.3 6.4z"/><path fill="#d0d4d8" d="M925.4 575.3c1 0 1.8-.8 1.8-1.7s-.8-1.7-1.8-1.7-1.8.8-1.8 1.7.8 1.7 1.8 1.7m0 6.4c1 0 1.8-.8 1.8-1.7s-.8-1.7-1.8-1.7-1.8.8-1.8 1.7.8 1.7 1.8 1.7m7.3-13.3-1.9 19.2h-13.5l2.6-75.2c1-4.4 1.9-8.8 2.8-12.8 2-9.5-.5-22.8-8.8-23.2h-.1l10.6-5.8c0 .1 9.5 28 11.4 65.9z"/><path fill="#c1c7cc" d="m910 547.9 1.5.4s4.4-17.8 8.5-35.3l-2.7 74.6h-6.9c-.1-10.6-.2-27.1-.4-39.7m56.5 21.1-4.9-31.4-.6-63.2.4.2 4 2.2c7.5 4.2 11.7 12 11 20.2l-.1 41.7v.7l.5 14.9 1.2 33.1h-8.5z"/><path fill="#fff" d="M925 571c1.1 0 2 .9 2 2s-.9 2-2 2-2-.9-2-2 .9-2 2-2m0 7c1.1 0 2 .9 2 2s-.9 2-2 2-2-.9-2-2 .9-2 2-2"/><path fill="#66b8b2" d="M910.4 547.4c.2 12.5.3 29.4.4 39.9.1 6 .1 9.9.1 9.9l3.1 11-16.4 2.7s2.9-12.3 2.7-13.2c-4.5-15.2-13.9-40.4-10.6-55.2z"/><path fill="#e0e2e5" d="M913.8 476.4c8.7.4 11.4 14.2 9.3 24-.9 4.2-1.9 8.8-3 13.3-4.1 18.2-8.5 36.7-8.5 36.7l-1.6-.4-21.1-5-6.1-1.4 17.5-53.8c3.3-9 6.9-12.8 13.5-13.4"/><path fill="#54aba5" d="m914 608.3 2 21.6c-1 .1-2.1.1-3.1 0-.7-.1-1.4-.2-2.1-.4-3.1-.8-4.6-2.3-6-3.7-2.3-2.4-7.2-14.8-7.2-14.8z"/><path fill="#d0d4d8" d="M116 451h59v328h-59zm1258-204h59v533h-59z"/><path fill="#c1c7cc" d="M1242 334h170v22h-170zm0 152h170v20h-170zM137 517h167v22H137zm0 126h167v20H137z"/><path fill="#147671" d="m754 744.1-5.9 5.9-31.1-31.1 5.9-5.9z"/><path fill="#2e908b" d="m762 740.7-8.1 1.3-9.9-63.7 8.1-1.3z"/><path fill="#c1c7cc" d="m787.2 705.3 1.2-4.6.6-16.7 3.7.4 3.5 18.3-1.9 7.8 2.7 17.4-7.3 1.1-3.7-23.5z"/><path fill="#71767c" d="M714 698c-2.1 0-4 .5-5.7 1.4l11 11-5.4 5.4-10.8-10.8c-.7 1.5-1.1 3.2-1.1 5 0 6.6 5.4 12 12 12s12-5.4 12-12-5.4-12-12-12"/><path fill="#979ea4" d="m748.9 682.1-17.9 5.5 1.1 6.6.2 1.2 1 6.6 18.8-.1 17.9-5.5-1.1-6.6-.2-1.2-1-6.6z"/><path fill="#e0e2e5" d="M783 704c0 2.8 2.2 5 5 5s5-2.2 5-5-2.2-5-5-5-5 2.2-5 5"/><path fill="#e0e2e5" d="M788.7 705.6v-4.7l3.3-16.4-3.6-.5-7.7 16.9v8l-6.7 16.2 6.7 2.9 6.3-15.2 1.7-4 1.1-2.7z"/><path fill="#0a4f4b" d="m769.1 758-8.1-3.4 16.9-40.6 8.1 3.4zm32.9 1.6-8.5 1.4-6.5-43.6 8.5-1.4z"/><path fill="#232628" d="M721 712h106v-8H721z"/><path fill="#2e3033" d="m861.5 708-6.5 9.6 3.5 2.4 6.5-9.6z"/><path fill="#43464a" d="m819 686.8 2-3-4.8-3.3-8.1 12 5.4 29.1-3.4 5.2 2.8 2 4.1-6.3-5.4-29.2 5.4-7.9z"/><path fill="#2e3033" d="m822.5 680-6.5 9.6 3.5 2.4 6.5-9.6z"/><path fill="#147671" d="m790 751.2 7 4.8 18-26.2-7-4.8z"/><path fill="#79c5c0" d="M825.9 679 815 694.8l40.1 27.2 10.9-15.8z"/><path fill="#979ea4" d="M816.7 701v31h-84.4v-31H725v71h99v-71z"/><path fill="#595e62" d="M758.5 768.4c-3.3 0-5.9-2.7-5.9-5.9s2.7-5.9 5.9-5.9 5.9 2.7 5.9 5.9-2.6 5.9-5.9 5.9m13.3-8-.1-.4-3-.8c-.2-.5-.4-1.1-.6-1.6l1.6-2.7-.3-.4c-.8-1.2-1.9-2.2-3-3l-.4-.3-2.7 1.6q-.75-.45-1.5-.6l-.8-3-.4-.1c-1.4-.2-2.8-.2-4.3 0l-.4.1-.8 3c-.5.2-1.1.4-1.6.6l-2.7-1.6-.4.3c-1.2.8-2.2 1.9-3 3l-.3.4 1.6 2.7q-.45.75-.6 1.5l-3 .8-.1.4c-.1.7-.2 1.4-.2 2.1s.1 1.4.2 2.1l.1.4 3 .8c.2.5.4 1.1.6 1.6l-1.6 2.7.3.4c.8 1.2 1.9 2.2 3 3l.4.3 2.7-1.6q.75.45 1.5.6l.8 3 .4.1c.7.1 1.4.2 2.1.2s1.4-.1 2.1-.2l.4-.1.8-3c.5-.2 1.1-.4 1.6-.6l2.7 1.6.4-.3c1.2-.8 2.2-1.9 3-3l.3-.4-1.6-2.7q.45-.75.6-1.5l3-.8.1-.4c.1-.7.2-1.4.2-2.1.1-.7 0-1.4-.1-2.1m-40.8 9.4c-2.7 0-4.8-2.2-4.8-4.8s2.2-4.8 4.8-4.8 4.8 2.2 4.8 4.8-2.1 4.8-4.8 4.8m10.9-6.5-.1-.4-2.4-.6c-.1-.4-.3-.9-.5-1.3l1.3-2.2-.2-.3c-.7-.9-1.5-1.8-2.5-2.5l-.3-.2-2.2 1.3c-.4-.2-.8-.4-1.3-.5l-.6-2.4-.4-.1c-1.2-.2-2.3-.2-3.5 0l-.4.1-.6 2.4c-.4.1-.9.3-1.3.5l-2.2-1.3-.3.2c-.9.7-1.8 1.5-2.5 2.5l-.2.3 1.3 2.2c-.2.4-.4.8-.5 1.3l-2.4.6-.1.4c-.1.6-.1 1.2-.1 1.7s0 1.2.1 1.7l.1.4 2.4.6c.1.4.3.9.5 1.3l-1.3 2.2.2.3c.7.9 1.5 1.8 2.5 2.5l.3.2 2.2-1.3c.4.2.8.4 1.3.5l.6 2.4.4.1c.6.1 1.2.1 1.7.1.6 0 1.2 0 1.7-.1l.4-.1.6-2.4c.4-.1.9-.3 1.3-.5l2.2 1.3.3-.2c.9-.7 1.8-1.5 2.5-2.5l.2-.3-1.3-2.2c.2-.4.4-.8.5-1.3l2.4-.6.1-.4c.1-.6.1-1.2.1-1.7s.1-1.2 0-1.7"/><path fill="#979ea4" d="M360.9 473.7c-4.1-3.8-6.5-5.9-7.1-6.2l-4.2-3.3-4 3.5c-.4.1-2.8 2.2-7.1 6.2s-8.9 9.2-13.8 15.6c-.3.3-.5.7-.7 1 7.3 3.6 16.2 5.7 25.8 5.7 7.6 0 14.7-1.4 21-3.7.6-.2 1.3-.5 1.9-.7.3-.1.5-.2.8-.3.8-.3 1.6-.7 2.3-1.1-.2-.3-.4-.5-.6-.8s-.4-.5-.6-.8c-2.4-3.2-4.8-6-7.1-8.5q-3.3-3.75-6.6-6.6"/><path fill="#147671" d="m410.2 696.1 81.6 82.7-71.6.3-9.8-.1c-.1-.1-.3-83.2-.2-82.9m-120.5 0-81.6 83.6 71.6-.7 9.8-.1c.1 0 .3-83.1.2-82.8"/><path fill="#d0d4d8" d="M385 486.6c-1 .5-2.1 1-3.2 1.5-.4.2-.7.3-1.1.5-.8.3-1.7.7-2.5 1-.7.3-1.4.5-2.1.7-8 2.7-16.9 4.3-26.4 4.3-13.1 0-25.2-2.9-35.1-7.8q-9.45 12.6-16.8 29.1-8.1 17.1-8.4 36.6s0 31.2.1 136.4c0 52.6.1 90 .1 90l109.2-.1h11.4l-.2-226.4q0-19.8-8.1-37.5c-5.1-10.6-10.8-20-16.9-28.3"/><path fill="#54aba5" d="M362.9 565.3c.1 3.6-1.2 6.7-3.8 9.3-2.5 2.5-5.6 3.8-9.3 3.8s-6.8-1.2-9.3-3.8c-2.6-2.6-3.9-5.7-3.8-9.3 0-3.6 1.3-6.7 3.8-9.2q3.9-3.9 9.3-3.9t9.3 3.9c2.4 2.5 3.7 5.6 3.8 9.2M349.8 540c-6.9 0-12.8 2.5-17.8 7.5-4.8 4.8-7.3 10.7-7.4 17.7s2.4 13 7.4 18c4.8 4.8 10.8 7.2 17.8 7.2 7.1 0 13-2.4 17.8-7.3 5-5 7.5-11 7.4-18s-2.6-12.9-7.4-17.7c-5-4.9-11-7.4-17.8-7.4"/><path fill="#147671" d="m350 810.4 24.1-102.8h-44.7z"/><circle cx="350.2" cy="565.3" r="14.8" fill="#fff"/><path fill="#147671" d="M506.8 477.9q-8.4-7.8-9.6-8.4l-5.7-4.5-5.4 4.8q-.9.3-9.6 8.4c-8.7 8.1-12 12.5-18.7 21.2-.3.4-.7.9-1 1.4 9.9 4.9 22 7.8 35.1 7.8 10.3 0 20-1.8 28.5-5 .9-.3 1.7-.6 2.5-1 .4-.2.7-.3 1.1-.5 1.1-.5 2.1-1 3.2-1.5-.3-.4-.5-.7-.8-1.1s-.5-.7-.8-1.1c-3.3-4.3-6.5-8.1-9.6-11.5-3.2-3.5-6.2-6.5-9.2-9m740 128.3 92.1 155.8-80.9.5-11.1-.3s-.2-156.6-.1-156m-136.2 0-92.1 157.6 80.9-1.2 11.1-.3c0-.1.3-156.7.1-156.1"/><path fill="#d0d4d8" d="M1214.8 245.3c-.4.2-.8.4-1.2.5-.9.4-1.9.8-2.9 1.1-.8.3-1.6.6-2.4.8-9 3.1-19.1 4.8-29.8 4.8-14.8 0-28.4-3.2-39.6-8.8-7.1 9.5-13.4 20.4-19 32.9-6.1 12.9-9.2 26.7-9.4 41.3 0 0 0 224.4.1 343.2.1 59.4.1 101.6.1 101.6l123.3-.1h12.9l-.2-444.9c0-14.9-3.1-29-9.2-42.3-5.8-12-12.2-22.7-19.1-32-1.2.8-2.4 1.3-3.6 1.9"/><path fill="#147671" d="M1195.4 218c-6.3-5.9-9.9-9-10.8-9.5l-6.4-5.1-6.1 5.4c-.7.2-4.3 3.4-10.8 9.5s-13.6 14.1-21.2 23.9c-.4.5-.8 1-1.1 1.5 11.2 5.5 24.8 8.8 39.6 8.8 11.7 0 22.6-2.1 32.2-5.7 1-.4 1.9-.7 2.9-1.1.4-.2.8-.4 1.2-.5 1.2-.5 2.4-1.1 3.6-1.7l-.9-1.2-.9-1.2c-3.7-4.8-7.3-9.2-10.8-13-3.8-3.8-7.2-7.2-10.5-10.1m-16.6 580.4 27.2-156.1h-50.4z"/><circle cx="1179" cy="521.5" r="16.7" fill="#979ea4"/><path fill="#147671" d="M1059.3 533.5c0 2.9-1 5.3-3 7.4-2 2-4.4 3-7.3 3s-5.3-1-7.3-3c-2.1-2.1-3.1-4.5-3-7.4 0-2.9 1-5.3 3-7.3 2.1-2.1 4.5-3.1 7.3-3.1s5.3 1 7.3 3.1c2 2 3 4.4 3 7.3m-10.4-20q-8.1 0-14.1 6c-3.8 3.8-5.8 8.5-5.8 14-.1 5.5 1.9 10.3 5.9 14.2q5.7 5.7 14.1 5.7c8.4 0 10.3-1.9 14.1-5.8 4-4 5.9-8.7 5.8-14.2s-2-10.2-5.9-14c-3.9-3.9-8.6-5.9-14.1-5.9"/><path fill="#54aba5" d="M1189.4 450.5c0 2.9-1 5.3-3 7.4-2 2-4.4 3-7.3 3s-5.3-1-7.3-3c-2.1-2.1-3.1-4.5-3-7.4 0-2.9 1-5.3 3-7.3 2.1-2.1 4.5-3.1 7.3-3.1s5.3 1 7.3 3.1c1.9 2 2.9 4.4 3 7.3m-10.4-20q-8.1 0-14.1 6c-3.8 3.8-5.8 8.5-5.8 14-.1 5.5 1.9 10.3 5.9 14.2q5.7 5.7 14.1 5.7c8.4 0 10.3-1.9 14.1-5.8 4-4 5.9-8.7 5.8-14.2s-2-10.2-5.9-14c-4-3.9-8.7-5.9-14.1-5.9"/><circle cx="1049" cy="533.5" r="14.5" fill="#fff"/><circle cx="1179.3" cy="450.5" r="14.5" fill="#fff"/></g></svg>