<svg xmlns="http://www.w3.org/2000/svg" viewBox="0 0 1600 736"><path fill="#fff" fill-rule="evenodd" d="M0 0h1600v736H0z" clip-rule="evenodd"/><path fill="#2e3033" fill-rule="evenodd" d="M0 0h1600v736H0z" clip-rule="evenodd"/><g fill-rule="evenodd" clip-rule="evenodd"><path fill="#d0d4d8" d="M766 460h68v255h-68z"/><path fill="#8a9097" d="M777.5 517h45v95h-45z"/></g><g fill="#d0d4d8" fill-rule="evenodd" clip-rule="evenodd" transform="translate(573 595)"><circle cx="44.5" cy="168.5" r="44.5"/><g transform="matrix(-1 0 0 1 454 58)"><circle cx="44.5" cy="110.5" r="44.5"/><circle cx="118.5" cy="74.5" r="74.5"/></g><circle cx="118.5" cy="132.5" r="74.5"/><circle cx="226" cy="117" r="117"/></g><circle cx="1337" cy="127" r="20" fill="#def5f3" fill-rule="evenodd" clip-rule="evenodd"/><path fill="#eff1f2" fill-rule="evenodd" d="m304.5 137.8-7.3 3.8 1.4-8.2-6-5.8 8.2-1.2 3.7-7.4 3.7 7.4 8.2 1.2-6 5.8 1.4 8.2zm120 91-7.3 3.8 1.4-8.2-6-5.8 8.2-1.2 3.7-7.4 3.7 7.4 8.2 1.2-6 5.8 1.4 8.2zm720-116-7.3 3.8 1.4-8.2-6-5.8 8.2-1.2 3.7-7.4 3.7 7.4 8.2 1.2-6 5.8 1.4 8.2z" clip-rule="evenodd"/><path fill="#a4abb3" fill-rule="evenodd" d="m1209.5 396.8-7.3 3.8 1.4-8.2-6-5.8 8.2-1.2 3.7-7.4 3.7 7.4 8.2 1.2-6 5.8 1.4 8.2zm281 150-7.3 3.8 1.4-8.2-6-5.8 8.2-1.2 3.7-7.4 3.7 7.4 8.2 1.2-6 5.8 1.4 8.2z" clip-rule="evenodd"/><path fill="#eff1f2" fill-rule="evenodd" d="m1036.5 176.8-7.3 3.8 1.4-8.2-6-5.8 8.2-1.2 3.7-7.4 3.7 7.4 8.2 1.2-6 5.8 1.4 8.2z" clip-rule="evenodd"/><path fill="#a4abb3" fill-rule="evenodd" d="m595.5 87.8-7.3 3.8 1.4-8.2-6-5.8 8.2-1.2 3.7-7.4 3.7 7.4 8.2 1.2-6 5.8 1.4 8.2zm-224 391-7.3 3.8 1.4-8.2-6-5.8 8.2-1.2 3.7-7.4 3.7 7.4 8.2 1.2-6 5.8 1.4 8.2z" clip-rule="evenodd"/><g fill-rule="evenodd" clip-rule="evenodd" transform="translate(695.155 194)"><path fill="#a1dfdb" d="M104.7 241.4c-24.1 0-43.7 19.6-43.6 43.7 0 22.7 38.9 59.7 43.3 78.9.1.4.7.4.8 0 4.4-19.2 43.2-56.2 43.2-79 0-24-19.6-43.6-43.7-43.6"/><path fill="#def5f3" d="M104.7 244.3c-15.7 0-28.4 12.7-28.3 28.4 0 14.8 25.5 39 28.2 51.4.1.3.4.3.5 0 2.7-12.4 28.1-36.6 28.1-51.4-.1-15.8-12.8-28.5-28.5-28.4"/><path fill="#18837e" d="m149.2 199.6 60.3 61.1-52.9.2-7.3-.1c0-.1-.2-61.5-.1-61.2m-89.1 0L-.2 261.4l52.9-.5 7.3-.1c.1-.1.2-61.5.1-61.2"/><path fill="#d0d4d8" d="M130.6 44.8c-.8.4-1.5.7-2.3 1.1-.3.1-.5.2-.8.4-.6.3-1.2.5-1.9.7l-1.5.6c-5.9 2-12.5 3.2-19.5 3.2-9.7 0-18.6-2.1-25.9-5.7-4.6 6.2-8.8 13.4-12.4 21.5-4 8.4-6 17.4-6.2 27 0 0 0 23.1.1 100.8 0 38.9.1 66.5.1 66.5l80.7-.1h8.4l-.1-167.3c0-9.7-2-19-6-27.7-4-8-8.2-14.9-12.7-21"/><path fill="#66b8b2" d="M114.2 102.9c0 2.7-.9 5-2.8 6.9s-4.1 2.8-6.8 2.8-5-.9-6.8-2.8c-1.9-1.9-2.9-4.2-2.8-6.9 0-2.7 1-4.9 2.8-6.8 1.9-1.9 4.2-2.9 6.8-2.9s4.9 1 6.8 2.9 2.8 4.1 2.8 6.8m-9.6-18.7c-5.1 0-9.5 1.9-13.2 5.6-3.6 3.6-5.4 7.9-5.4 13.1-.1 5.1 1.8 9.6 5.5 13.3 3.6 3.6 8 5.3 13.2 5.3s9.6-1.8 13.2-5.4c3.7-3.7 5.5-8.1 5.4-13.3-.1-5.1-1.9-9.5-5.5-13.1-3.8-3.6-8.2-5.5-13.2-5.5"/><path fill="#18837e" d="M115.6 28.1c-4.1-3.8-6.5-5.9-7.1-6.2l-4.2-3.3-4 3.5c-.4.1-2.8 2.2-7.1 6.2s-8.9 9.2-13.8 15.6c-.3.3-.5.7-.7 1 7.3 3.6 16.2 5.7 25.9 5.7 7.6 0 14.8-1.4 21.1-3.7.6-.2 1.3-.5 1.9-.7.3-.1.5-.2.8-.3.8-.3 1.6-.7 2.3-1.1-.2-.3-.4-.5-.6-.8s-.4-.5-.6-.8c-2.4-3.2-4.8-6-7.1-8.5-2.4-2.5-4.6-4.8-6.8-6.6"/><path fill="#116864" d="m104.7 284 17.8-75.9h-33z"/><circle cx="104.8" cy="102.9" r="11" fill="#fff"/></g></svg>