<svg xmlns="http://www.w3.org/2000/svg" viewBox="0 0 1165.2 1920"><g data-name="Ebene_1"><path fill="#ed0007" d="m423.8 121.9-13-6.8 47-90.2h122.4v14.7H466.7z"/><path fill="#be0004" d="m715.6 122.2-58-82.7h-70.5v78.4h-14.7v-93h92.8l62.4 88.9z"/><path fill="#ed0007" d="M587.1 118h-14.7V24.9h14.2z"/><path fill="#43464a" d="M586.6 25.4H458.2l6.4-14.7h122z"/><path d="M664.6 25.4h-78V10.7h68.3z"/><path fill="#003e64" d="M400.4 108.8H760v326.6H400.4z"/><path fill="#002742" d="M660.9 272.1h19.3v49.5h-19.3z"/><path fill="#005587" d="M400.4 108.8h179.8v326.6H400.4z"/><path fill="#ed0007" d="M668.3 272.1h18.3v49.5h-18.3z"/><path fill="none" stroke="#002742" stroke-miterlimit="10" stroke-width=".3" d="m400.4 251.4 179.8-.4"/><path fill="none" stroke="#005587" stroke-miterlimit="10" stroke-width=".2" d="m580.2 251 179.8-.4"/><path fill="#2e3033" d="M612.6 115.3h110.1l14.1 127.5H626.7z"/><path d="M612.6 115.3h110.1l6 54.1H618.6z"/><path fill="#c1c7cc" d="M637.1 138.2h66l8.4 76.1h-66z"/><path fill="#a4abb3" d="m668.3 476.7 77.4-24.1 268.7 864.6-77.4 24.1z"/><path fill="#8a9097" d="m719.9 460.6 25.8-8 268.7 864.6-25.8 8z"/><path fill="#a4abb3" d="m876.2 1085 51.6-16 179.1 576.4-51.6 16z"/><path fill="#8a9097" d="m910.7 1074.3 17.2-5.3 179.1 576.4-17.2 5.3z"/><path fill="#005587" d="m922.3 1317.2 90.9-28.3 16.3 52.3-90.9 28.3z"/><path fill="#003e64" d="m980.5 1299.1 32.7-10.2 16.3 52.3-32.7 10.2z"/><path fill="#005587" d="M717.6 662.4 777 644l10.9 35.2-59.4 18.4z"/><path fill="#003e64" d="m791.2 639.5 21.2-6.6 10.9 35.2-21.2 6.6z"/><path fill="#ed0007" d="m812.4 632.9 8.8-2.7 21 67.7-8.8 2.7z"/><path d="m1055.4 1661.5 72.8-22.6 4.1 13.3-22 6.8 21.4 131.9-3.8 1.4 4.8 37.4-15.7-34.1-3.9 1.3-57.8-135.3z"/><path fill="#8a9097" d="m146.5 1317.1 76.7 23.9 268.7-864.6-76.7-23.9z"/><path fill="#a4abb3" d="m146.5 1317.1 25.8 8 269-864.5-26-8.1-268.7 864.6z"/><path fill="#8a9097" d="m54 1645.3 179.1-576.4 51.6 16-179.1 576.4z"/><path fill="#a4abb3" d="m71.2 1650.6-17.2-5.3 179.1-576.4 17.2 5.3z"/><path fill="#003e64" d="m222.4 1369.4-90.9-28.3 16.3-52.3 90.9 28.3z"/><path fill="#005587" d="m164.2 1351.3-32.7-10.2 16.3-52.3 32.7 10.2z"/><path fill="#003e64" d="m432.5 697.5-59.4-18.4 10.9-35.2 59.4 18.4zm-73.7-22.9-21.2-6.6 10.9-35.2 21.2 6.6z"/><path fill="#ed0007" d="m327.5 700.5-8.8-2.7 21-67.7 8.8 2.7z"/><path d="m105.6 1661.3-72.8-22.6-4.1 13.3 22 6.8-21.4 131.9 3.8 1.4-4.8 37.4 15.7-34.1 3.9 1.3 57.8-135.3z"/><path fill="#a4abb3" d="M519.2 477.4h122V1401h-122z"/><path fill="#a4abb3" d="M553.2 477.4h54.1v1309.8h-54.1z"/><path fill="#003e64" d="M553.2 554.5h54.1v528.8h-54.1z"/><path d="M553.2 1715.6h54.1v71.6l-16.1 84.9-4.5.2-6.5 26.9-6.6-27.3-5.9-.2-14.6-84.5v-71.6z"/><path fill="#003e64" d="M519.2 1375.2h122v54.8h-122zm-7-739.6h134.5v44.1H512.2z"/><path fill="#ed0007" d="M568.6 635.6h23.9v92.8h-23.9z"/><path fill="#003e64" d="M407.4 433.7h346.8v43.7H407.4z"/><path fill="#005587" d="M407.4 452.6h144.3v24.8H407.4z"/><path fill="#2e3033" d="M407.4 435.4h346.8v17.2H407.4z"/><path fill="#2e3033" d="M407.4 435.4h144.4v17.2H407.4z"/><path d="M551.8 108.8H601v40.4h-49.2zm0 286.3H601v40.4h-49.2zm187.5-286.3h49.2v40.4h-49.2zm0 286.3h49.2v40.4h-49.2z"/><path fill="#43464a" d="M338.9 108.8h212.8v40.4H338.9zm0 286.3h212.8v40.4H338.9z"/></g></svg>