<svg xmlns="http://www.w3.org/2000/svg" viewBox="0 0 119.5 368.8"><g data-name="Ebene_1"><path fill="#003e64" d="M96.5 4.1 92.9.5l-3 .2L95 155.9c-5.4.5-5.2 3.9-5.2 3.9l.2 18.7-4.6 7.1.6 15.9 1.9 78.6s-40.783.635-68.183 1.235c-8.2.2-5.717 43.665-2.017 43.465 2 0 10-.8 10-.8l.9 36.2c.7 15.3 63.4 6.1 77.1 4.6s13.759-15.547 13.759-15.547L115.7 210.3l-1.2-12.9-.5-12.7-5.1-6.7s-.8-12-1.1-17.6-5.8-4.5-5.8-4.5zM68.4 336.5c15.1-.4 27.5 4.1 27.7 10.2s-12 11.2-27.1 11.6-27.5-4.1-27.7-10.2 12-11.2 27.1-11.6"/><path fill="#c1c7cc" d="m115.1 197-1-12.6-4.958-6.669-19.242.669-4.6 7.1.4 12.6z"/><path fill="#005587" d="m115.5 210.3-4.8 1.4 1.5 79.2-24.2.4-67.4.9s-1.6 8.9-1.4 13.4c.1 3.7 0 7.6 0 7.6l99.3-2.1z"/><path fill="#eff1f2" d="M101.4 139.8v-2.3c-2.2-2.5-4.7-4.8-7.4-6.8l.2 2.5c2.8 1.7 5.3 4 7.2 6.6m-.3-5.8v-2.3c-2.3-2.5-4.9-4.8-7.7-6.8l.2 2.5q4.35 2.55 7.5 6.6m-.1-5.2v-2.3c-2.3-2.5-4.9-4.8-7.7-6.8l.2 2.5q4.35 2.55 7.5 6.6m-.1-5.1v-2.3c-2.3-2.5-4.8-4.8-7.6-6.8l.2 2.5q4.35 2.55 7.5 6.6zm-.2-5.3v-2.3c-2.2-2.5-4.8-4.8-7.5-6.8l.2 2.5c2.8 1.7 5.3 3.9 7.3 6.6m-.4-5.5v-2.3c-2.2-2.5-4.8-4.8-7.6-6.8l.2 2.5c2.9 1.7 5.4 3.9 7.4 6.6m-.1-5.2v-2.3c-2.2-2.5-4.8-4.8-7.6-6.8l.2 2.5c2.9 1.7 5.4 3.9 7.4 6.6m-.1-5.1v-2.3c-2.2-2.5-4.8-4.8-7.6-6.8l.2 2.5c2.9 1.7 5.4 3.9 7.4 6.6m-.2-5.4v-2.3c-2.2-2.5-4.8-4.8-7.6-6.8l.2 2.5c2.8 1.7 5.4 4 7.4 6.6m-.3-5.3v-2.3c-2.2-2.5-4.7-4.8-7.3-6.8l.2 2.5c2.8 1.7 5.2 4 7.2 6.6zm0-5.3v-2.3c-2.3-2.5-4.9-4.8-7.7-6.8l.2 2.5q4.35 2.55 7.5 6.6m-.2-5.6v-2.3c-2.2-2.5-4.7-4.8-7.4-6.8l.2 2.5c2.8 1.7 5.2 4 7.2 6.6m-.2-5v-2.3C97 71.2 94.5 69 91.7 67l.2 2.5c2.8 1.7 5.3 3.9 7.2 6.5zm-.1-5.4v-2.3c-2.2-2.5-4.7-4.8-7.5-6.8l.2 2.5c2.8 1.7 5.3 4 7.3 6.6m0-4.6v-2.3c-2.2-2.5-4.7-4.7-7.5-6.7l.2 2.5c2.8 1.7 5.3 3.9 7.3 6.5m-.2-5v-2.3c-2.4-2.5-5.1-4.7-8.1-6.7l.2 2.5c3 1.7 5.7 3.9 7.9 6.5m-.5-5.1v-2.3c-2.1-2.5-4.5-4.8-7.1-6.8l.2 2.5c2.7 1.7 5 4 6.9 6.6m-.2-5v-2.3c-2.2-2.5-4.7-4.8-7.4-6.8l.2 2.5c2.8 1.7 5.2 4 7.2 6.6m-.1-5.2v-2.3c-2.2-2.5-4.7-4.8-7.4-6.8l.2 2.5c2.8 1.7 5.2 4 7.2 6.6m-.2-5.2v-2.3c-2.2-2.5-4.7-4.8-7.4-6.8l.2 2.5c2.8 1.7 5.3 4 7.2 6.6m-.2-5.2V33c-2.2-2.5-4.7-4.8-7.4-6.8l.2 2.5c2.8 1.7 5.2 4 7.2 6.6m-.3-4.7v-2.3c-2.1-2.5-4.5-4.8-7.1-6.8l.2 2.5q4.05 2.7 6.9 6.6m-.1-5.2v-2.3c-2.1-2.5-4.5-4.8-7.1-6.8l.2 2.5q4.05 2.7 6.9 6.6m0-5.2v-2.3c-2.2-2.5-4.8-4.8-7.6-6.8l.2 2.5c2.8 1.7 5.4 3.9 7.4 6.6m-.1-5.3v-2.3c-2.2-2.5-4.8-4.8-7.6-6.8l.2 2.5c2.9 1.7 5.4 3.9 7.4 6.6m-.1-4.3V8.3c-2.2-2.5-4.8-4.8-7.6-6.8l.2 2.5c2.8 1.7 5.4 3.9 7.4 6.6m-.4-4V4.3s-.8-1.7-4.3-4.3l-2.2.2C92.8 1.9 95 4 96.7 6.5z"/><path fill="#ed0007" d="M73.1 364.4c3-.1 5.5-2.2 6.2-5.1 0-.4.2-.8.3-1.2 1.3-5.6-5.9 0-10.4 0s-6.6-2.7-8.2-.6c-.2 1-.2 1.9 0 2.9.2 5.6.6 4.6 5.9 4.5 2.3 0 4.5-.4 6.4-.5z"/><path fill="#c1c7cc" d="M113.6 210.2h2.2l1.8 71.3h-5c-6.4.3-11.8-4.7-12-11.2l-1.2-45.2c-.2-8 6.1-14.7 14.1-14.9z"/><path fill="#003e64" d="M117.005 259.1h-3.5l.5 22.5 3.595-.1c1.1-4 1.405-8 .705-12 0 0 2.4-3.7-1.4-10.4z"/><path fill="#2e3033" d="m6.91 281.7 19.7-.5 1.224 48.2-19.725.5z"/><path fill="#ed0007" d="M9.3 329.8v-48.1H5.5s-5.6-1.2-5.5 23.6c0 5.5.8 24.5 3.6 24.7l5.6-.2z"/><path fill="#c1c7cc" d="m93.5 155.8 9.9-.4c2.4 0 4.5 1.8 4.6 4.2l1.142 18.131L90 178.4l-.7-18.1c0-2.4 1.8-4.4 4.2-4.5"/><path fill="#003e64" d="m115.8 210.2-63.2 2.1c-2.4 0-4.4-1.8-4.5-4.2l-.2-4.3c0-2.4 1.8-4.4 4.2-4.5l63-2.3z"/><path fill="#ed0007" d="m97.8 279.5-6.2.3-1.2-26.5 6.2-.3z"/><ellipse cx="93.526" cy="244.188" fill="#c1c7cc" rx="4.5" ry="4.4" transform="rotate(-13.9 93.526 244.188)"/></g></svg>