<svg xmlns="http://www.w3.org/2000/svg" viewBox="0 0 394.554 761.961"><g data-name="Ebene 2"><path fill="#101112" d="m43.267 30.64-7.582 3.677 2.66 42.344 13.24-7.522z"/><path fill="#d0d4d8" d="m292.116 70.006.772-3.178a34 34 0 0 1-.707 2.233c-.007.307-.034.625-.065.945m-6.271 31.036c-.147-.083-.285-.168-.429-.251l.046.251z"/><path fill="#71767c" d="M252.983 92.488a17.45 17.45 0 0 1 8.215 4.769l2.527-8.68s.724-.722 4.337-2.168c3.616-1.448 6.047-18.22 7.492-26.173 1.607-8.832 1.13-11.063 1.13-11.063S260.816 42.22 256 43.023s-16.061 8.03-21.68 8.03a13.84 13.84 0 0 1-6.232-1.572 40 40 0 0 0-.833 3.948 131 131 0 0 0 1.907 21.22c.558 3.257 1.279 6.69 2.21 10.148q.24.884.475 1.735l4.995 10.97c5.519-6.756 11.698-6.053 16.142-5.014z"/><path fill="#d0d4d8" d="m285.086 98.97 5.734-23.622a70 70 0 0 1-7.483 13.977z"/><path fill="#71767c" d="m285.416 100.79-.33-1.82-1.75-9.645a70 70 0 0 0 7.484-13.977 22.3 22.3 0 0 0 1.296-5.342c.03-.32.058-.638.065-.945a6.76 6.76 0 0 0-1.542-4.87c-2.42-2.648-5.139-1.64-7.618.712-4.33 4.108-7.93 12.319-7.93 12.319l4.295 15.03q.075.54.142 1.075a16 16 0 0 1 .05 3.358c-.44 5.05-3.122 10.5-8.003 13.27-6.665 3.781-9.686 4.171-14.143 6.988a42.6 42.6 0 0 0-6.898 6.207 4965 4965 0 0 1-2.453 20.54h45.117l-7.736-42.648z"/><path fill="#00512a" d="M378.266 727.462c0-144.495-44.456-222.026-44.04-235.326 2.27-72.666-2.96-89.453-17.857-136.483l-.121 1.177H229.62c.458 9.213 2.289 29.292 9.612 44.297 7.395 15.148 16.286 42.754 24.351 70.67 12.436 43.04 22.91 86.819 22.91 86.819l34.502 168.846h57.27z"/><path fill="#101112" d="M151.385 139.477c-31.056-20.144-74.804-48.825-90.588-58.933l.086-.166L36.013 48l.095-.171-32.54-13.98-.004.001c-3.991 6.132-5.372 18.843-.215 24.03l14.244 23.136v.001l15.77 10.269c3.59 2.34 6.647 4.286 9.118 5.835 11.97 13.797 70.499 70.58 87.165 85.415z"/><path fill="#00381b" d="m127.43 186.003 110.817 9.414c17.06-.883 24.585-20.16 27.973-33.333l1.166-6.957c1.936-20.648-22.685-31.076-34.592-31.388-23.732-.62-81.409 15.738-81.409 15.738z"/><path fill="#101112" d="m158.28 751.158.17.208a29.05 29.05 0 0 0 22.437 10.595h85.548l-7.051-34.499h-40.977zm234.85-1.628-29.275-22.068h-30.01l-4.479 34.499h57.252a7.922 7.922 0 0 0 6.513-12.432z"/><path fill="#00512a" d="m191.696 356.83.343 11.077 5.55 178.882 7.969 180.674h61.711c7.416-85.828 1.93-114.143-3.931-162.462-3.859-31.81-4.391-69.56 3.097-97.991-8.066-27.916-24.975-50.735-32.369-65.883-7.324-15.005-9.154-35.084-9.612-44.297z"/><path fill="#71767c" fill-rule="evenodd" d="M249.544 118.204h38.089l-14.097 11.302-14.096 6.041-10.831-5.919-1.254-8.178z"/><path fill="#004523" d="m352.323 369.12-2.175-39.872c2.197-10.96 3.415-19.837 2.567-30.95l-25.976-4.766 12.596-145.671.012-.145-.084.103-34.904 42.797-.067.873-.046-.01.113-1.48 34.904-42.797-48.622-28.368h-44.312l-33.996 20.492a50.7 50.7 0 0 0-22.47 29.202l-.088-.017c-13.764 46.975-26.894 111.351-12.355 160.737l-18.843 142.28h210.865z"/><path fill="#00512a" d="m382.624 291.175.767.27-29.07-125.48c-5.067-16.786-14.974-24.662-28.781-23.665-21.059 3.138-23.04 30.713-21.847 42.883 2.282 23.24 10.395 47.812 17.129 65.012 31.702 4.333 58.81 15.334 61.802 40.98"/><path fill="#eff1f2" d="M364.452 429.506H161.927l-5.967 43.773h215.559z"/><path fill="#101112" d="M352.715 369.099H172.143l5.277-39.851h172.727z"/><path fill="#eff1f2" d="m292.956 319.796-78.522-.529-.399 59.284 78.521.529zm-71.927 53.548.329-48.776 64.603.435-.328 48.776z"/><path fill="#00381b" d="m127.429 186.003-88.933-83.709L64.25 78.11l87.135 61.367z"/><path fill="#101112" d="m245.606 248.521-22.236-21.756-18.735 1.584 1.898 5.208 11.438 1.838 2.054 3.73z"/><path fill="#1a1c1d" d="M320.822 250.195c-25.486-3.483-53.939-2.66-75.216-1.674l-31.604-11.608s-5.19 37.363-5.236 37.361c9.107 4.522 35.02 3.853 35.02 3.853s138.434 26.036 138.565 25.146a46.2 46.2 0 0 0 .273-12.098c-2.993-25.646-30.1-36.647-61.802-40.98"/><path fill="#101112" d="m214.002 236.913-31.524 1.189s-2.495 6.908 3.068 17.491c5.36 10.193 22.303 17.942 23.22 18.681z"/><path fill="#005f32" d="M383.446 291.175c-3.011-25.646-30.278-36.647-62.169-40.98-25.636-3.483-54.257-5.983-75.66-4.998l-1.831 38.16s139.253 20.806 139.385 19.916a46 46 0 0 0 .275-12.098"/><path fill="#d0d4d8" d="M292.13 34.993c-7.225-4.016-15.256-3.21-20.875-8.028-5.622-4.817-8.216-10.634-17.85-13.042-9.638-2.409-13.467.996-15.071 3.405-1.607 2.408-4.016 10.439-4.016 10.439s-13.133-1.765-13.133 10.32a12.74 12.74 0 0 0 1.71 6.568c-1.772 3.216-10.205 20.414 6.266 29.994a131 131 0 0 1-1.907-21.22 40 40 0 0 1 .833-3.948 13.84 13.84 0 0 0 6.231 1.573c5.62 0 16.864-7.229 21.68-8.03 4.818-.803 20.686 6.149 20.686 6.149s.477 2.23-1.13 11.063c-1.445 7.953-3.876 24.725-7.492 26.173-3.613 1.446-4.337 2.167-4.337 2.167l-2.527 8.68a17.45 17.45 0 0 0-8.215-4.768c-4.444-1.039-10.623-1.742-16.142 5.013l-4.995-10.969-.002-.004s-9.187 18.847-11.028 32.306c-2.38 17.405 15.102 44.954 36.663 44.138 0 0-7.577-1.675-6.74-10.888s12.253-10.044 23.346-14.364c7.067-2.753 9.993-9.969 10.208-23.168.253-15.58-9.202-37.33-9.202-37.33s3.6-8.21 7.93-12.319c2.479-2.351 5.197-3.36 7.618-.712a6.76 6.76 0 0 1 1.542 4.87c.225-.622.464-1.378.706-2.233 2.488-8.766 5.392-28.42-.756-31.835z"/><path fill="#00512a" d="M261.721 33.486c-20.322-8.315-39.133.226-39.968.585-.018.008 0 0 0 0a56.3 56.3 0 0 1 12.983-18.045s20.815-12.112 23.69-13.46c7.422-3.476 17.58-2.413 17.58-2.413s9.526 6.348 12.7 12.698 3.173 16.616 3.173 16.616l3.916 9.886a76.6 76.6 0 0 1-2.217 24.85s-12.205-22.675-31.857-30.717"/><path fill="#eff1f2" d="M268.583 17.874a51.9 51.9 0 0 0-33.847-1.848c-5.44-1.359-15.572 12.46-13.146 18.137.837-.36 19.646-8.9 39.968-.585 19.652 8.041 31.856 30.716 31.856 30.716a76 76 0 0 0 2.308-23.048c-5.268-7.355-14.712-18.287-27.139-23.372M221.59 34.163c-.019.008 0 0 0 0"/><path fill="#00512a" d="m272.167 18.384 3.84-18.23c24.583 1.48 36.636 36.502 38.246 90.571h-11.935z"/><circle cx="308.076" cy="96.267" r="9.108" fill="#eff1f2"/><path fill="#eff1f2" d="m260.746 288.518-17.074-2.437 2.066-43.811 17.185.075zM47.773 115.28l-12.088-12.263 26.01-29.868 14.774 9.178z"/></g></svg>