<svg xmlns="http://www.w3.org/2000/svg" viewBox="0 0 1200 1200"><switch><g fill-rule="evenodd" clip-rule="evenodd"><path fill="#c2c7cd" d="m769.204 464.265 295.952-79.296 54.788 204.48-295.952 79.297zM80.51 648.75l295.951-79.297 54.788 204.481-295.951 79.297z"/><path fill="#007bc0" d="m127.142 720.312 47.62-12.76 12.758 47.62-47.619 12.758zm688.695-184.486 47.619-12.759 12.759 47.619-47.619 12.759zM193.14 702.621l47.619-12.758 12.759 47.618-47.619 12.76zm688.695-184.485 47.619-12.76 12.759 47.62-47.62 12.759zm-623.11 166.869 47.62-12.758 12.758 47.618-47.619 12.76zM947.42 500.521l47.619-12.759 12.758 47.62-47.618 12.758zM324.24 667.512l47.619-12.76 12.759 47.62-47.62 12.759zm688.668-184.579 47.619-12.759 12.759 47.62-47.62 12.758zM111.137 660.724l47.62-12.76 12.758 47.62-47.619 12.759zM799.831 476.24l47.619-12.758 12.759 47.619-47.619 12.759zM177.23 643.009l47.62-12.76 12.758 47.62-47.619 12.758zm688.696-184.485 47.619-12.759 12.758 47.62-47.618 12.758zm-623.18 166.99 47.619-12.759 12.759 47.62-47.62 12.758zm688.669-184.581 47.619-12.76 12.758 47.62-47.619 12.759zM308.234 607.924l47.62-12.759 12.758 47.62-47.619 12.758zm688.695-184.48 47.618-12.76 12.76 47.62-47.62 12.758zM143.148 779.9l47.619-12.76 12.759 47.62-47.62 12.758zm688.668-184.58 47.618-12.76 12.76 47.62-47.62 12.758zm-622.67 166.889 47.618-12.759 12.76 47.619-47.62 12.759zM897.813 577.63l47.62-12.76 12.758 47.62-47.619 12.758zM274.634 744.62l47.618-12.76 12.76 47.62-47.62 12.758zm688.695-184.487 47.619-12.76 12.759 47.62-47.62 12.759zM340.245 727.1l47.62-12.76 12.758 47.62-47.619 12.758zm688.668-184.578 47.618-12.759 12.76 47.62-47.62 12.758z"/><path fill="#979ea4" d="m393.773 634.008 59.21-15.865 2.873 10.722-59.21 15.864zm333.589-89.394 59.21-15.864 2.872 10.721-59.21 15.865z"/><path fill="#c2c7cd" d="m527.51 358.582 10.72-2.873 114.313 426.638-10.722 2.873z"/><path fill="#a4abb3" d="m532.919 357.154 5.409-1.45 114.312 426.64-5.41 1.449z"/><path fill="#c2c7cd" d="M566.4 496.2c65.5-17.6 114.4-69.3 146.8-155.3-233.2 62.5-349.7 93.7-349.7 93.7 7.9 29.4 32.3 52.8 68.5 63.7 37 11 84.7 11.2 134.4-2.1"/><path fill="#979ea4" d="M566.4 496.2c98.3-26.3 162.7-95.9 146.8-155.3.8.3-32.3 8.7-48.4 13-3.6 29.8-18 62.8-33.6 89.7-17.3 21.9-30.6 37-64.8 52.6"/><path fill="#c2c7cd" d="m435.7 553.8 69.2 258.3 81.8 47L732 820.2l41.9-80.2-69.2-258.3z"/><path fill="#979ea4" d="M575.6 516.1 662.1 839l75.3-20.2 41.9-80.4-69.2-258.3z"/><circle cx="532.2" cy="354.4" r="12.6" fill="#c2c7cd" transform="rotate(-23.155 532.294 354.458)"/></g></switch></svg>