<svg xmlns="http://www.w3.org/2000/svg" viewBox="0 0 1920 1080"><defs><clipPath id="a"><path fill="none" d="M0 0h1920v1079.934H0z"/></clipPath></defs><path fill="#d1d4d9" d="M251.618 401.131h366.224v12.738H251.618z"/><path fill="#d1d4d9" d="M577.674 407.502h-87.815l-7.257-61.081h102.44zM528.789 326.581h63.537v19.84H475.317v-19.84zM451.328 266.465c2.635-8.113 12.875-12.617 25.325-12.103a12.64 12.64 0 0 1 2.899-9.1c6.375-7.216 21.203-4.803 33.077 5.402 7.646 6.59 13.208 20.904 16.176 30.323v-30.261c-9.28-8.112-26.215-24.56-28.46-37.928-3.129-18.548 6.256-35.545 20.897-37.964 12.513-2.085 24.908 7.209 30.17 21.55a17.9 17.9 0 0 1 8.134 1.12c11.123 4.421 15.558 19.388 9.892 33.472-5.471 13.521-32.228 26.855-34.473 27.939v47.731l12.575-10.587c1.279-9.218 4.922-29.038 13.361-36.685 11.123-10.156 26.702-11.401 34.759-2.78 8.057 8.62 5.471 23.865-5.659 34.021-8.564 7.814-29.364 9.733-38.54 10.178l-17.639 14.849-5.003-.663v-2.716l-.222-.264.222-.181v-19.826c-6.875 2.037-35.356 9.899-51.199 4.866-18.075-5.742-29.893-19.354-26.292-30.393"/><path fill="#d1d4d9" d="M528.797 306.006h6.057v26.844h-6.057zM352.463 276.936h19.107v124.195h-19.107zM324.629 276.936h19.107v124.195h-19.107z"/><path fill="#d1d4d9" d="m268.291 407.33 42.478-116.707 17.955 6.535-42.478 116.707z"/><path fill="#e0e3e5" d="m378.289 784.597-1.128-4.511-72.176-274.494v-.121z"/><path fill="#d8dade" d="M1725.464 1059.857c91.007 0 164.782-22.387 164.782-50s-73.775-50-164.782-50-164.782 22.383-164.782 50 73.775 50 164.782 50"/><path fill="#dfe2e4" d="M1801.831 763.965v72.201a21 21 0 0 1-.209 2.863c.124 1.513.209 3.033.209 4.577v156.253c0 9.899-8.025 17.923-17.923 17.923h-117.015c-9.903 0-17.929-8.031-17.923-17.933l.089-156.243c0-1.544.078-3.064.202-4.577a20.5 20.5 0 0 1-.202-2.863v-72.201c0-5.159 1.97-9.876 5.205-13.444a5 5 0 0 0-.233.38 5.5 5.5 0 0 0-.388.807c-.054.124-.093.248-.132.372-.015.016-.015.031-.023.047a5 5 0 0 0-.078.295 1 1 0 0 0-.047.194c-.031.101-.047.209-.062.31-.047.272-.07.551-.07.822 0 10.566 32.326 19.123 72.209 19.123s72.209-8.557 72.209-19.123q0-.232-.023-.465a2.5 2.5 0 0 0-.054-.403 3 3 0 0 0-.07-.357c0-.008-.008-.023-.015-.039a3 3 0 0 0-.101-.38 6.6 6.6 0 0 0-.551-1.233c-.078-.132-.155-.264-.24-.396 3.243 3.576 5.236 8.309 5.236 13.491Z"/><path fill="#505358" d="M1797.652 753.749c0-10.562-32.33-19.124-72.211-19.124s-72.21 8.562-72.21 19.124 32.33 19.124 72.21 19.124 72.211-8.562 72.211-19.124"/><path fill="#303235" d="M1757.12 757.56c0-4.158-14.183-7.529-31.678-7.529s-31.677 3.371-31.677 7.529 14.182 7.529 31.677 7.529 31.678-3.371 31.678-7.529"/><path fill="#a2aab1" d="M1706.731 803.952h39.799v10.271h-39.799zM1801.969 766.757c-6.349 8.485-38.146 14.935-76.42 14.935-38.632 0-70.663-6.571-76.59-15.173v2.758q1.64 1.555 4.231 2.983c4.054 2.23 9.804 4.221 17.091 5.917 14.783 3.44 34.411 5.335 55.268 5.335s40.484-1.895 55.267-5.335c7.287-1.696 13.037-3.687 17.091-5.917 1.641-.903 2.992-1.848 4.062-2.83z"/><path fill="#505358" d="M1661.795 1004.371c-.738 0-1.336-.467-1.336-1.044V910.77c0-.576.598-1.043 1.336-1.043s1.335.467 1.335 1.043v92.557c0 .577-.597 1.044-1.335 1.044m28.266 0c-.738 0-1.336-.467-1.336-1.044V910.77c0-.576.598-1.043 1.336-1.043s1.335.467 1.335 1.043v92.557c0 .577-.597 1.044-1.335 1.044m-14.133 0c-.738 0-1.336-.467-1.336-1.044V910.77c0-.576.598-1.043 1.336-1.043s1.335.467 1.335 1.043v92.557c0 .577-.597 1.044-1.335 1.044m28.267 0c-.738 0-1.336-.467-1.336-1.044V910.77c0-.576.598-1.043 1.336-1.043s1.335.467 1.335 1.043v92.557c0 .577-.597 1.044-1.335 1.044m14.133 0c-.738 0-1.336-.467-1.336-1.044V910.77c0-.576.598-1.043 1.336-1.043s1.335.467 1.335 1.043v92.557c0 .577-.597 1.044-1.335 1.044m14.133 0c-.738 0-1.336-.467-1.336-1.044V910.77c0-.576.598-1.043 1.336-1.043s1.335.467 1.335 1.043v92.557c0 .577-.597 1.044-1.335 1.044m14.134 0c-.738 0-1.336-.467-1.336-1.044V910.77c0-.576.598-1.043 1.336-1.043s1.335.467 1.335 1.043v92.557c0 .577-.597 1.044-1.335 1.044m14.133 0c-.738 0-1.336-.467-1.336-1.044V910.77c0-.576.598-1.043 1.336-1.043s1.335.467 1.335 1.043v92.557c0 .577-.597 1.044-1.335 1.044m14.133 0c-.738 0-1.336-.467-1.336-1.044V910.77c0-.576.598-1.043 1.336-1.043s1.335.467 1.335 1.043v92.557c0 .577-.597 1.044-1.335 1.044m14.134 0c-.738 0-1.336-.467-1.336-1.044V910.77c0-.576.598-1.043 1.336-1.043s1.335.467 1.335 1.043v92.557c0 .577-.597 1.044-1.335 1.044"/><path fill="#d1d4d9" d="M1500.548 592.075H936.61c-19.929 0-36.085 16.156-36.085 36.086v258.08h636.123v-258.08a36.085 36.085 0 0 0-36.1-36.086m-636.109 0H322.068c-19.93 0-36.086 16.156-36.086 36.086v258.08h614.543v-258.08c0-19.93-16.156-36.086-36.086-36.086"/><g clip-path="url(#a)"><path fill="#e0e3e5" d="m313.277 719.7 36.804 158.424c1.569-15.207 14.381-26.766 29.668-26.768h490.946a29.816 29.816 0 0 1 29.829 29.83 29.83 29.83 0 0 1 29.83-29.83h512.512a29.83 29.83 0 0 1 29.83 29.83l37.536-161.354h53.697l-26.372 210.025-10.256 83.438h-83.014l34.401 116.785h-30.767l-52.1-116.785H427.6l-52.1 116.785h-30.679l34.342-116.785h-82.969l-10.256-83.438L259.566 719.7z"/></g></svg>