<svg xmlns="http://www.w3.org/2000/svg" viewBox="0 0 451.08 393.85"><g data-name="Ebene 2"><path fill="#383b3e" d="M396.37 378.57c-21 0-38.06-22.11-38.06-49.4s17-49.39 38.06-49.39c8.38 0 16.13 3.53 22.42 9.49a67 67 0 0 0-4.33-7.15L398.13 260h-22c-28.48 0-51.56 30-51.56 66.93s23.08 66.92 51.56 66.92h18.2l18.09-19.91a30.8 30.8 0 0 1-16.05 4.63"/><path fill="#4e5256" d="M396.37 279.78a30 30 0 0 0-5.45.51c18.43 3.43 32.6 24 32.6 48.88s-14.17 45.46-32.6 48.89a30 30 0 0 0 5.45.51c21 0 38.05-22.11 38.05-49.4s-17.04-49.39-38.05-49.39"/><path fill="#595e62" d="m427.27 331.91-20.39-9a6.12 6.12 0 0 1-3.39-3.39L387 271.93l-15.3 3.66 16.67 48.1a5.58 5.58 0 0 1-.67 5.1l-26.15 30.8 7.21 15.81 31.05-37.59a4 4 0 0 1 4.81-1.15l21 9.24z"/><path fill="#383b3e" d="M394.37 260c-28.47 0-51.55 30-51.55 66.93s23.08 66.92 51.55 66.92 51.56-30 51.56-66.92S422.85 260 394.37 260m2 118.57c-21 0-38.06-22.11-38.06-49.4s17-49.39 38.06-49.39 38.05 22.11 38.05 49.39-17.04 49.4-38.05 49.4"/><path fill="#71767c" d="M396 288c-17.54 0-31.76 18.46-31.76 41.22s14.2 41.18 31.76 41.18 31.76-18.46 31.76-41.23S413.52 288 396 288m20.4 41.61c0 14.22-8.68 25.75-19.38 25.75s-19.39-11.53-19.39-25.75 8.68-25.74 19.39-25.74 19.36 11.47 19.36 25.69z"/><path fill="#c1c7cc" d="m135.8 348.46-17.39-.26c3.61-52.66-20.23-70.15-55.15-73.43l-6.38-37.87h63.85z"/><path fill="#2e3033" d="m138.69 74.12-3.59 2.11-26.55-63.17 3.59-2.1z"/><path fill="#2e3033" d="M86.06 30c6.13 3.58 34.94 2 34.94 2l-8.7-20.63c-2.58-6.17-7.71-10.32-13.62-11 0 0-15.56-2.34-19.27 4.91s.51 21.19 6.65 24.72"/><path fill="#383b3e" d="M143.13 91.5H96.76V75.82h46.37z"/><ellipse cx="97.23" cy="83.65" fill="#383b3e" rx="8.18" ry="7.84"/><path fill="#979ea4" d="m94.32 101.08 36.51-9.32-1.35-4.85-36.51 9.32z"/><path fill="#d0d4d8" d="m111.72 236.98-90.25 11.6 46.74-25.93 31.23-15.32z"/><path fill="#e0e2e5" d="m168.13 236.9-99.92-14.25-2.73-22.25 76.83-89.73h50.07z"/><path fill="#d0d4d8" d="m166.13 247.1-7.65-.5 24.06-125.74h7.83z"/><path fill="#e0e2e5" d="m191.13 334.8-55.33 13.66-28.08-122.29 60.41 10.73z"/><path fill="#383b3e" d="M304 314.4h-61q-7.87-44.7 15.73-89.38h61.51z"/><path fill="#383b3e" d="M344.64 314.39h-42.3l15.73-89.53 117-12.47z"/><path fill="#d0d4d8" d="m189.12 122.37-51.77-5-19.06-25.88V72.15l22.17-20.91a33.64 33.64 0 0 1 24.71-9.14l20.29 1A33.65 33.65 0 0 1 205 50.52c9.06 7.3 21.76 18.39 21.76 23.09v24.06z"/><path fill="#383b3e" d="M216.26 75.81h38.53v15.68h-38.53a7.84 7.84 0 0 1-7.84-7.84 7.84 7.84 0 0 1 7.84-7.84"/><ellipse cx="254.32" cy="83.65" fill="#2e3033" rx="8.18" ry="7.84"/><path fill="#7d8389" d="M318.8 225.02h-62.34l8.15-27.65h58.5z"/><path fill="#71767c" d="m408.42 215.23-89.62 9.79 4.31-27.65h71.29z"/><path fill="#2e3033" d="m206.37 73.25 3.45 2.32 30.54-61.48-3.45-2.32z"/><path fill="#2e3033" d="M261.73 32.34c-6.35 3.18-35-.13-35-.13l10-20c3-6 8.35-9.84 14.3-10.18C251 2 266.71.57 270 8s-1.92 21.16-8.27 24.34"/><path fill="#979ea4" d="m242.88 103.09-34-8.69a2.51 2.51 0 0 1-1.8-3.11 2.52 2.52 0 0 1 3.05-1.77l34.12 8.71z"/><path fill="#71767c" d="m356.74 218.69-22.55-21.32 50.44-10.7 34.89 2.21-4.45 23.51z"/><rect width="72.63" height="34.06" x="326.87" y="307.27" fill="#43464a" rx="17.03" transform="rotate(14.91 363.144 324.263)"/><path fill="#383b3e" d="M71.76 378.57c-21 0-38.06-22.11-38.06-49.4s17-49.39 38.06-49.39c8.38 0 16.13 3.53 22.42 9.49a69 69 0 0 0-4.33-7.15L73.52 260h-22C23.08 260 0 290 0 326.93s23.08 66.92 51.56 66.92h18.2l18.09-19.91a30.8 30.8 0 0 1-16.09 4.63"/><path fill="#4e5256" d="M71.76 279.78a30 30 0 0 0-5.46.51c18.44 3.43 32.61 24 32.61 48.88s-14.17 45.46-32.61 48.89a30 30 0 0 0 5.46.51c21 0 38.05-22.11 38.05-49.4s-17.04-49.39-38.05-49.39"/><path fill="#595e62" d="m102.66 331.91-20.39-9a6.12 6.12 0 0 1-3.39-3.39l-16.49-47.59-15.3 3.66 16.67 48.1a5.58 5.58 0 0 1-.67 5.1l-26.15 30.8 7.21 15.81 31.05-37.59a4 4 0 0 1 4.8-1.15l21 9.24z"/><path fill="#383b3e" d="M69.76 260c-28.47 0-51.55 30-51.55 66.93s23.08 66.92 51.55 66.92 51.56-30 51.56-66.92S98.24 260 69.76 260m2 118.57c-21 0-38.06-22.11-38.06-49.4s17-49.39 38.06-49.39 38.05 22.11 38.05 49.39-17.04 49.4-38.05 49.4"/><path fill="#71767c" d="M71.37 288c-17.54 0-31.76 18.46-31.76 41.22s14.22 41.18 31.76 41.18 31.76-18.46 31.76-41.23S88.91 288 71.37 288m20.4 41.61c0 14.22-8.68 25.75-19.38 25.75S53 343.78 53 329.56s8.68-25.74 19.39-25.74 19.38 11.52 19.38 25.74z"/><rect width="83.88" height="13.67" x="36.06" y="292.75" fill="#43464a" rx="6.84" transform="rotate(101.39 78 299.597)"/><path fill="#d0d4d8" d="M451.08 230.07c-34.41 58.22-94.16 85.69-131.62 78.92 7.58-39.92 27-74.74 108.94-103.88l8.51 3.83 11.89 13.64z"/><path fill="#e0e2e5" d="M448.8 222.58C421.12 262.07 371 291.35 344.64 289c7.57-26.21 32.32-56.79 92.27-80.08zM334.19 348.46H135.8l-6.46-34.07h215.3z"/><path fill="#eff1f2" d="M120.64 176.64h-15.75a14 14 0 0 1-12-8.2l13.26-15.38h14.54a11.79 11.79 0 0 1 11.79 11.79 11.79 11.79 0 0 1-11.84 11.79"/><path fill="#d0d4d8" d="m186.34 314.39-8.23.14-17.42-79.52 7.44 1.89z"/><path fill="#d0d4d8" d="m344.64 314.39-2.16 7.05-163.08-.37-1.31-6.69z"/><path fill="#595e62" d="M334.44 348.46H272.1a28.44 28.44 0 0 1 23.5-19.22l46.23-5.69z"/><path fill="#d0d4d8" d="M7.92 270.82c48.2-9.37 90.85-8.47 104.42 3.39L109.75 235l-88.28 13.58z"/><path fill="#383b3e" d="m135.873 98.623 28.387 1.562-.097 1.767-28.387-1.562zm.006-19.571 28.387 1.562-.098 1.768-28.387-1.562z"/><path fill="#71767c" stroke="#a4abb3" stroke-miterlimit="10" d="M194.74 93.56c-15.27-2-23.69-6.53-26-13.38L199 77.44a3.81 3.81 0 0 1 3.66 5.48l-3 8.83a3.81 3.81 0 0 1-4.92 1.81zM118.68 89c7.74-2 13.24-6 14.58-11.44l-15-3.9c-1.45-.18-2.15 14.11.42 15.34z"/></g></svg>