<svg xmlns="http://www.w3.org/2000/svg" viewBox="0 0 505.12 367.89"><g data-name="Ebene 2"><g data-name="Ebene 1"><path fill="none" d="M189.35 108c-4.3.37-9 .93-14 1.73l-6.75 1.09a37.6 37.6 0 0 1-3.1 16h.05c2.9-1.53 8.68-5 17.33-11.87a35 35 0 0 0 6.47-6.95m10.49 33.25c12.25 6.8 23.36 14.35 26.82 17.16l2.45 2a210 210 0 0 0 20.77-27.62c2.5-4.09 4.89-8.6 7.13-13.21-15.78-4.74-30-9-35.88-10.7-.93 2.24-2 4.54-3.12 6.91a98.2 98.2 0 0 1-18.17 25.46M203.22 78a32 32 0 0 0 3.15 2.79l1 .79c-1.08-.84-2.2-1.78-3.36-2.84z"/><path fill="#c1c7cc" d="M168.56 110.85c-10.18 1.63-19.14 3-27.22 2.63a15.15 15.15 0 0 1-.49 6.42c5.88 1.51 15.28 4 24.61 6.94a37.6 37.6 0 0 0 3.1-15.99"/><path fill="#eff1f2" d="M17.29 6.25a7.4 7.4 0 0 1-.67-3.65l-.26-.23-2.72 5.79s8.24 29.91 29.21 44.39c18.66 12.89 41.8 19.76 41.8 19.76l5.65-3.86C82.79 66.32 62 59.77 46 48.7 26.23 35 19.87 12.83 17.29 6.25"/><path fill="#004523" d="M189.35 108a35.2 35.2 0 0 1-6.51 7c-8.65 6.9-14.43 10.34-17.33 11.87a202 202 0 0 1 19.42 6.94c4.87 2.13 10 4.74 14.91 7.46A98.4 98.4 0 0 0 218 115.81c1.16-2.37 2.19-4.67 3.12-6.91l-2.84-.84s-10.99-1.6-28.93-.06"/><path fill="#002c14" d="M249.88 132.76a210 210 0 0 1-20.77 27.62l6.76 5.39s3.67 3.63 9.47 9.43c8.93-11.06 22.21-28.63 29-43.2 1-2.05 1.86-4.2 2.7-6.4-6.63-2-13.48-4.08-20.07-6-2.2 4.56-4.59 9.04-7.09 13.16"/><path fill="#00512a" d="M490.51 159.73c-15.24-11.35-57.76-35-57.76-35a28.6 28.6 0 0 1-8 4.2c-1.89.5-3.76 1.09-5.59 1.77 5 2.83 53.24 31 57.67 33.6s5.87 4.92 2.1 6.44-11.22 3.5-17.64 5.6-7 1.85-11.12.1-29.38-13.91-39.34-18.16-11.13-4.75-13.9-8-14.48-17.94-14.5-17.95c-.81-.3-42.57-16-67-23-24.69-7.07-91.45-21-91.45-21L218.29 108l2.84.84L257 119.55c6.59 2 13.44 4 20.07 6 17.41 5.29 33.27 10.21 38.61 12.19C362.29 155 480.29 215 480.29 215s13.89-13.55 21.06-27.11 4.4-16.81-10.84-28.16"/><path fill="#232628" d="M178.29 42c8.94 12.51 16.28 27.4 24.93 36l.83.74c1.16 1.06 2.28 2 3.36 2.84a31.76 31.76 0 0 0 16.53 6.71s66.76 13.93 91.45 21c24.44 7 66.2 22.74 67 23 .8-.38 3.39-1.58 10.69-4.95 14-6.47 21 .47 26 3.31 1.83-.68 3.7-1.27 5.59-1.77a28.6 28.6 0 0 0 8-4.2s-13-6.91-22.1-11.5-43.69-19.32-58-24.74-44.85-15-61.42-20-43.94-12.5-52.5-28c-7.65-13.91-20.5-35.73-20.5-35.73l-42.53 34.1a31 31 0 0 1 2.67 3.19"/><path fill="#1a1c1d" d="M393.09 127.36c-7.3 3.37-9.89 4.57-10.69 5s11.74 14.7 14.5 17.95 3.94 3.76 13.9 8 35.24 16.41 39.34 18.16 4.68 2 11.12-.1 13.87-4.12 17.63-5.63 2.34-3.86-2.1-6.44-52.65-30.77-57.67-33.6c-5.02-2.87-12.02-9.81-26.03-3.34"/><path fill="#00512a" d="M235.87 165.77s-3-2.35-6.76-5.39l-2.45-2c-3.46-2.81-14.57-10.36-26.82-17.16-4.93-2.72-10-5.33-14.91-7.46a202 202 0 0 0-19.42-6.94c-9.33-2.91-18.73-5.43-24.61-6.94-3.68-1-6-1.51-6-1.51-19.62 23.25 19.23 37.12 29.92 43-10.66-5.92-1.17-22.07 15.82-14.66s76.71 77.37 119 115.08c.14.13-28.12 23.79-39.09 11.22 25.14 29.38 63.43 69 81.27 87.19 23.91 24.37 58.35-16.94 58.35-16.94s-75.73-84.95-100.4-111.89c-17.13-18.7-41.25-43.07-54.41-56.23-5.82-5.74-9.49-9.37-9.49-9.37"/><path fill="#006c3a" d="M299.62 261.85c-42.31-37.71-102-107.67-119-115.08s-26.48 8.74-15.82 14.66a77 77 0 0 1 6.73 4.21c7.92 5.54 15.13 12.89 22.32 23.24l.4.58c9.65 13.78 41.18 54.84 66.26 83.58 10.99 12.6 39.25-11.04 39.11-11.19"/><path fill="#219557" d="m175.7 38.87 42.53-34.1L172.29 0l-39.37 30.31c.72-.37 1.44-.73 2.19-1.09 16.03-7.65 32.42.97 40.59 9.65"/><path fill="#d0d4d8" d="m168.56 110.85 6.75-1.09c5-.8 9.74-1.36 14-1.73 17.9-1.57 28.94 0 28.94 0l5.65-19.74a31.76 31.76 0 0 1-16.53-6.71l-1-.79a32 32 0 0 1-3.15-2.79c-8.65-8.58-16-23.47-24.93-36a31 31 0 0 0-2.59-3.13c-8.17-8.68-24.56-17.3-40.59-9.65-.75.36-1.47.72-2.19 1.09-.51.26-33.38-2.75-46.22-4.79a173 173 0 0 1-25.17-6.28S39.78 10.08 32.77 6.63C27.7 4.13 20 .46 20 .46S17 0 16.58 2.6a7.4 7.4 0 0 0 .67 3.65C19.87 12.83 26.25 35 46 48.7c15.93 11.07 36.75 17.62 44.26 19.75 1.82.52 2.86.78 2.86.78l8 3.22-.14 1A31.8 31.8 0 0 1 93.31 80s-10 5-25 3-35-8-48-18-16-11-19-10-.58 9.57 4.5 15.5c6 7 27 36 97.5 36.5 15 .11 17 0 17 0 6.43 4.41 13.33 6.21 21 6.51 8.11.29 17.07-1.03 27.25-2.66M109.79 72.5a33 33 0 1 1 33 33 33 33 0 0 1-33-33"/><path fill="#e0e2e5" d="M175.79 72.5a33 33 0 1 0-33 33 33 33 0 0 0 33-33m-33-15a15 15 0 1 1-15 15 15 15 0 0 1 15-15"/><circle cx="142.79" cy="72.5" r="15" fill="#a4abb3"/></g></g></svg>