<svg xmlns="http://www.w3.org/2000/svg" viewBox="0 0 1920 1080"><g data-name="Ebene 2"><path fill="#fff" d="M0 0h1920v1080H0z"/><path fill="#eff1f2" fill-rule="evenodd" d="m899.75 390.62 6-47.92h8.06v-16h-43.12v-40.07l11.16-11.15c10.33 1.69 34.62 4.86 43.31-1A24.42 24.42 0 1 0 897.74 234c-9.79 6.64-18.27 32.83-20.22 39.2l-6.83 6.83v-7.83h-.35c0-.59 0-1.19.06-1.82.3.75.47 1.15.47 1.15s20.8-50.17 20.8-61.65a20.79 20.79 0 0 0-40.7-6 20.55 20.55 0 0 0-8.82 1.12 20.79 20.79 0 0 0-12.57 26.58c3.08 8.63 27 36 36.46 46.72v24.19l-11.26-11.26c-3.63-10.37-12.08-31.93-21.08-36.63a24.43 24.43 0 1 0-22.6 43.31c10 5.24 35.34.92 43.18-.6L866 309.09v17.65h-46v16h8.07l6 47.92h-38.14V276.1h-19v114.52h-8V276.1h-19v21.61l-16.74-6.2-35.33 96.59 6.81 2.52h-35.88v18.48h287.14v-18.48zM749.93 301v89.58h-32.76zm-80.87-19.25L588.53 223h1.09v-13.08h-7.47V4.6h-9v205.32h-7.47V223H567l-80.77 58.77V297h69.21a22.85 22.85 0 0 0 44.39 0h69.22v-15.25zm-41.87 231.06c19.86-6.37 32.78-21.47 28.85-33.72-2.89-9-14.13-14-27.79-13.43a14.14 14.14 0 0 0-3.18-10.1c-7-8-23.27-5.33-36.3 6-8.37 7.31-14.46 23.19-17.76 33.64v-33.59c10.19-9 28.77-27.25 31.24-42.07 3.43-20.58-6.84-39.44-22.94-42.12-13.77-2.29-27.33 8-33.11 23.92a19.35 19.35 0 0 0-8.92 1.25c-12.22 4.87-17.08 21.48-10.86 37.11 6 15 35.37 29.79 37.83 31v52.95l-13.8-11.74c-1.4-10.23-5.4-32.21-14.66-40.73-12.24-11.27-29.31-12.65-38.13-3.08s-6 26.48 6.21 37.75c9.4 8.67 32.23 10.78 42.3 11.29l18.08 15.38v46.79c-5.48-11.88-15.72-31.2-27.41-38.91-17.41-11.49-37.28-12.09-44.36-1.35-5.22 7.91-2 19.78 6.95 30.07a14.15 14.15 0 0 0-5.87 8.81c-1.86 10.51 10.44 21.48 27.44 24.5 13.42 2.38 34.77-6 43.23-9.67v45.13h-62.14v67.21a42 42 0 0 0 42 42h40.33a42 42 0 0 0 42-42v-67.21h-54.07l17.4-27c10.78-4.28 39-16.65 46.93-31.44 9.84-18.4 6.14-39.55-8.25-47.24s-34 1-43.86 19.39c-7.64 14.31-2.83 43.19-.31 55.33L571 627.5v-97.61l.24-.29-.24-.2v-22c7.54 2.26 38.8 10.98 56.19 5.41"/><path fill="#eff1f2" d="M718.62 545.42v149h52l-16.52 51.5h13l23.32-51.5h145.2v-149zm126 25.5h-38v-9h38zm312-25.5h-110.56v-16.29h-31v-46.08l-26.24-25.66v-26.83h-18.69v26.83l-26.25 25.66v62.37h-.26v149h144.18l23.32 51.5h13l-16.52-51.5h49zm-88 25.5h-38v-9h38z"/><path fill="#e0e2e5" fill-rule="evenodd" d="M1101.24 877.1c0 35.62-155.58 64.5-347.5 64.5s-347.5-28.88-347.5-64.5 155.58-64.5 347.5-64.5 347.5 28.88 347.5 64.5"/><path fill="#595e62" d="M1354.71 239.13h-6.33a31 31 0 0 1 .22 3.64v88h-62.35v7.34h62.35v7.33h-62.35v14.57a16 16 0 0 0 16 16h30.35a16 16 0 0 0 16-16V335.7h6.11zm-51.34 130.8a11 11 0 1 1 11-11 11 11 0 0 1-11 11"/><path fill="#71767c" d="M1348.6 330.81v-88a31.17 31.17 0 0 0-62.17-3.32h54v79.89a11.47 11.47 0 0 1-11.43 11.43h19.63z"/><path fill="#eff1f2" d="M1340.44 319.34v-79.89h-54.19v91.36H1329a11.47 11.47 0 0 0 11.44-11.47"/><path fill="#e0e2e5" d="M1348.6 338.15h-62.35v7.33h62.35z"/><path fill="#d0d4d8" d="M1303.37 347.93a11 11 0 1 0 11 11 11 11 0 0 0-11-11m0 18.34a7.34 7.34 0 1 1 7.33-7.34 7.34 7.34 0 0 1-7.33 7.34"/><path fill="#fff" d="M1303.37 351.6a7.34 7.34 0 1 0 7.33 7.33 7.34 7.34 0 0 0-7.33-7.33"/><path fill="none" d="m1378.48 553.39.15 1.4-.6-5.42zm-9.84 219.63.77.29-44.34-16.37zm46.13 22.37-4.09 2.15s1.57-.72 4.09-2.15"/><path fill="#1a1c1d" d="m1335.59 662-11.83 94.73 1.31.19 44.34 16.37 7.57-44.07L1344 692a40.83 40.83 0 0 1-8.41-30"/><path fill="#e0e2e5" d="m1371.83 580.09 11.81 20.53 7.29-.38h.94l-3.62-14.48-2.78-11.11-8.37-33.49.14 1.22.79 7 .6 5.42a6.1 6.1 0 0 1 1.09 1.44 10.7 10.7 0 0 1 1.25 4.18v.7c.16 4.4-2.18 9.27-5 13.49a60 60 0 0 1-4.14 5.48m38.85 217.45-.44-1.49-13-44-20.24-22.81-7.57 44.07c-.35.48-.72 1-1.09 1.41l-.42.51c-29.68 35-119.27-10.37-119.27-10.37l-31-.71a43.2 43.2 0 0 1-9.94-1.82l-27.56 114.78c-.16.72.31 1.63 1.33 2.69 10 10.44 74 35.55 132.43 35.55 35.33 0 69.65-6.05 96.36-13.12 9.83-2.61 18.63-5.35 26.06-8z"/><path fill="#e0e2e5" d="m1225.28 742.15 98.48 14.6 11.83-94.75a40.9 40.9 0 0 1 3.72-12.89l7.92-16.53 5.91-12.33 1.81-1.19c-.69-1.36-1.39-2.77-2.1-4.18-1.54-2.95-3-6-4.38-8.66l-.06-.13a26.2 26.2 0 0 1-6.17 1.48 43.8 43.8 0 0 1-17.09-1.73s-3.06-6.57-6.75-20.26c-.61-2.23-1.1-4.45-1.52-6.61-11.54-6.37-9.86-20.76-9.86-20.76a32 32 0 0 1 1.26-4.75l5.72-23.66 7.4-6.34s9.56-10.58 11.9-12.5c6.07-5 16.31-5.93 16.31-5.93s10.32 3.64 14.76 8.78 6.85 14.65 6.85 14.65l1.93 1.67 1.28 1.1.27.23-38.83-155.43h-35.41l-88.11 366.87 12.93-.77z"/><path fill="#1a1c1d" d="M1463.19 881.07 1438.31 783l-.68.36-.21.11-22.65 11.93c-2.52 1.43-4.09 2.15-4.09 2.15l25.62 96.7s27.49-10.31 26.89-13.18"/><path fill="#43464a" d="m1383.64 600.62-11.81-20.53a66 66 0 0 1-5 5.33s-.54-.41-1.38-1.11a36.6 36.6 0 0 0 4.14-8.12 16 16 0 0 0 .44-1.59c.58-2.54.42-4.89-1.12-6.57a3.42 3.42 0 0 0-3.57-1.16c-2.8.71-5.74 4.44-7.86 7.73l-.06.1v-.1a9 9 0 0 1-.34-1.14C1356 568 1356 552.8 1356 552.8s-12 8.7-25 10.87a30.9 30.9 0 0 1-10.9-.21 38 38 0 0 1-5.09-1.38 118.4 118.4 0 0 0 1.93 16.91c.42 2.16.91 4.38 1.52 6.61 3.69 13.69 6.75 20.26 6.75 20.26a43.8 43.8 0 0 0 17.09 1.73 26.2 26.2 0 0 0 6.17-1.48l.06.13-.06-.13a19.38 19.38 0 0 0 9.31-7.3 51.9 51.9 0 0 1-4.61 16.6c-.09-.17-.18-.34-.26-.51.71 1.41 1.41 2.82 2.1 4.18l28-18.42z"/><path fill="#232628" d="M1383.64 600.62h-.65l-28 18.42-1.81 1.19-5.91 12.33-7.92 16.53A41 41 0 0 0 1344 692l33 37.23 20.21 22.82 13 44 .44 1.49 4.09-2.15 22.65-11.93.21-.11.68-.36-.21-.82-5.73-22.57-.51-2-8.62-34-31-123.43h-1.31z"/><path fill="#2e3033" d="M1357.72 598.81a19.38 19.38 0 0 1-9.31 7.3l.06.13c1.35 2.65 2.84 5.71 4.38 8.66.08.17.17.34.26.51a51.9 51.9 0 0 0 4.61-16.6"/><path fill="#1a1c1d" d="M1320 563.46a30.9 30.9 0 0 0 10.9.21c13-2.17 25-10.87 25-10.87s0 15.22 1.08 20.66a9 9 0 0 0 .34 1.14v.1l.06-.1c2.12-3.29 5.06-7 7.86-7.73a3.42 3.42 0 0 1 3.57 1.16c1.54 1.68 1.7 4 1.12 6.57a16 16 0 0 1-.44 1.59 36.6 36.6 0 0 1-4.14 8.12c.84.7 1.38 1.11 1.38 1.11a66 66 0 0 0 5-5.33 60 60 0 0 0 4.17-5.49c2.83-4.22 5.17-9.09 5-13.49v-.7a10.7 10.7 0 0 0-1.25-4.18 6.1 6.1 0 0 0-1.09-1.44s-19.44-11.58-32.91-13.34c-.78-.1-1.54-.18-2.3-.24a45.5 45.5 0 0 0-20.71 3 43.4 43.4 0 0 0-14.43 9.29 32 32 0 0 0-1.26 4.75s-1.68 14.39 9.86 20.76a118.4 118.4 0 0 1-1.93-16.91 38 38 0 0 0 5.12 1.36"/><path fill="#2e3033" d="m1373.15 530.15-1.93-1.67s-2.41-9.52-6.85-14.65-14.76-8.78-14.76-8.78-10.24 1-16.31 5.93c-2.34 1.92-11.9 12.5-11.9 12.5l-7.4 6.34-5.72 23.66a43.4 43.4 0 0 1 14.43-9.29 45.5 45.5 0 0 1 20.71-3c.76.06 1.52.14 2.3.24 13.47 1.76 32.91 13.34 32.91 13.34l-.15-1.4-.45-4-.79-7-.14-1.22-2.4-9.63-.27-.23z"/><path fill="#43464a" d="m1368.64 773-43.57-16.08-1.31-.19-94.38-14h-.14l-43.39-15.76-.74 8.47a18.89 18.89 0 0 0 5.6 15.1c4.72 4.62 10.8 10.2 13.47 11.09 19.39 6.42 41.18 3.88 41.18 3.88l8.93 2.07c20.11 9.22 88.42 37.41 113.61 7.68l.42-.51c.37-.46.74-.93 1.09-1.41z"/><path fill="#43464a" d="m1214.09 720.8-6.38 3.69 15.86 21.34 27.33 1.02z"/><path fill="#0a4f4b" d="M1252.15 321.05h-42.37v-55.18h-171.85v180.18h171.85v-83.27l.15.49z"/><path fill="none" d="M1122.75 301.6a24.17 24.17 0 0 0-24.15 24.15v6.59h48.29v-6.59a24.17 24.17 0 0 0-24.14-24.15"/><path fill="#b6ede8" d="M1098.6 325.75a24.15 24.15 0 1 1 48.29 0v6.59h10v-6.59a34.15 34.15 0 1 0-68.29 0v6.59h10z"/><path fill="#66b8b2" d="M1156.89 332.34h-72.78v77.26h77.27v-77.26zm-34.82 68.45a29.15 29.15 0 1 1 29.15-29.14 29.14 29.14 0 0 1-29.15 29.14"/><path fill="#fff" d="M1122.07 342.5a29.15 29.15 0 1 0 29.15 29.15 29.14 29.14 0 0 0-29.15-29.15m0 47.45a18.3 18.3 0 1 1 18.3-18.3 18.3 18.3 0 0 1-18.3 18.35z"/><circle cx="1122.07" cy="371.65" r="18.3" fill="#116864"/><path fill="#0a4f4b" fill-rule="evenodd" d="M903.93 581.06a49.71 49.71 0 1 1-49.71-49.71 49.71 49.71 0 0 1 49.71 49.71"/><path fill="#fff" d="M849.18 547.68h9.41v41.68h-9.41z"/><path fill="#fff" fill-rule="evenodd" d="M847.16 606.84a6.73 6.73 0 1 1 6.72 6.72 6.72 6.72 0 0 1-6.72-6.72"/><path fill="#a1dfdb" d="M728.27 592.92H714c-6.48 5.67-9.2 1.91-13.25-8.62a96.6 96.6 0 0 1-4.8-18.87c3.22-3.51 8.22-7.78 4.8-16.25 0 0 8.92 6.48 17.83 4.05s10.28-4.23 13.77-3.23 5.83 3.78 7.12 5.82c.08.42.17.84.24 1.27 0 0 0 3.48-.41 8.74a110.5 110.5 0 0 1-3.25 19.12c-.18.69-.37 1.35-.55 2v-.09c-1.42 5.98-3.71 10.57-7.23 6.06"/><path fill="#a1dfdb" d="M681.14 637.25h40.07s-1.33-10.93-2.63-22.11h-9c-7.29 0-15.7-4.79-16.2-12.9-.09-1.49.47-13.38.74-16.86l-.42 4.76.42-4.76 1-11.46a30 30 0 0 0-1.91-3.64c-2.18-3.54-5.94-7.82-9.75-3.64-4.17 4.55 2.19 16 6.49 22.61l-.78 4z"/><path fill="#419e98" d="M682.12 543.5s0-5.67 8.91-13 18.64-2.43 26.74-3.24 17.25-3.24 23.73 0c5.76 2.88 1.28 10.88.79 16.61 2.49 4.42 6.18 14.65-3 21.91.45-5.26.41-8.74.41-8.74-.07-.43-.16-.85-.24-1.27-1.29-2-3.63-4.86-7.12-5.82s-4.86.8-13.77 3.24-17.83-4.05-17.83-4.05c3.42 8.47-1.58 12.74-4.8 16.25a96.6 96.6 0 0 0 4.8 18.87c4 10.53 6.77 14.29 13.25 8.62h14.27c3.52 4.51 5.81-.08 7.2-6.07v.09a33.3 33.3 0 0 1 1.59 8.82c0 4-4.86 9.72-4.86 12.15v7.23h-22.65c-7.29 0-15.7-4.79-16.2-12.9-.09-1.49-.05-3.77.07-6.4.14-3.23.4-7 .67-10.46l1-11.46a30 30 0 0 0-1.91-3.64c-2.18-3.54-5.93-7.82-9.75-3.64-4.17 4.55 2.19 16 6.49 22.61l-.78 4s-13.57-21.81-14.58-37.54c-.48-7.43 7.57-12.17 7.57-12.17"/><path fill="#8dd2cd" d="m865.77 721.82-12.71 1.95 3.41-8.03zm-71.88 10.67a7 7 0 0 0 3.61 1.07l4.72.1 34.45.7c-11.47 10.46-36.32 32-49.45 34.59-6.72 1.34-13.6-3.44-16.58-9.61-1.49-3.06-7.32-12.62-7.32-12.62z"/><path fill="#71767c" d="m763.31 678-3.71 60.13 3.72 8.63 30.57-14.23a7.09 7.09 0 0 1-2.78-8.78l.65-1.55-28.26-70.56c1.64 7.81.59 16.96-.19 26.36"/><path fill="#1a1c1d" d="M793.89 732.49a7 7 0 0 0 3.61 1.07l4.72.1a7.09 7.09 0 0 1-6.38-9.86l28.8-68a7.08 7.08 0 0 1 6.67-4.32l-4.73-.1a7.08 7.08 0 0 0-6.67 4.32l-28.15 66.45-.65 1.55a7.09 7.09 0 0 0 2.78 8.79"/><path fill="#2e3033" d="m824.64 655.81-28.8 68a7.09 7.09 0 0 0 6.38 9.86l34.45.7 7 .14h.07a7.1 7.1 0 0 0 6.6-4.33l2.71-6.39 3.41-8-9.64-6.3a19 19 0 0 1-8.35-18.18l28.77-1 11.9-28.09a7.09 7.09 0 0 0-6.39-9.86l-4.72-.09h-1.44l-35.29-.71a7.08 7.08 0 0 0-6.66 4.25"/><path fill="#a1dfdb" d="M838.48 691.26a19 19 0 0 0 8.35 18.18l9.64 6.3 9.3 6.08 2.23-31.57h-.7l-28.77 1z"/><path fill="#8a9097" d="m659.27 639.68.22.17c17.82 6.08 15.54 29.6 11.66 39.69a102 102 0 0 1-5.29 11.37l12.42 103.24c9.89-26.94 29-44.55 62.12-26.07 6.61 3.7 15.81 9.35 26.38 16.1l-7.53-40.48.35-5.61 3.71-60.09c.78-9.36 1.83-18.51.19-26.32a22.93 22.93 0 0 0-11-15.82l-30.11-18.16H683.2l-40.29 23.51c4.84-2.27 10.31-2.58 16.36-1.53"/><path fill="#71767c" d="M640.13 642.7v.09zm38.15 151.45-12.42-103.24c-7.05 13.19-17.48 27.5-27.71 40.18a542 542 0 0 0 21.56 114.27l17-46.73c.51-1.52 1.03-3.01 1.57-4.48"/><path fill="#a4abb3" d="M671.15 679.54c3.88-10.09 6.16-33.61-11.66-39.69l-.22-.17c-6-1-11.52-.74-16.36 1.53a21 21 0 0 0-2.75 1.54c-3.74 2.5-7.06 6.37-9.93 12l-44.35 82c16.8 4.21 22.65 14.88 22.1 28.62 5.15-5.36 17.52-18.57 30.22-34.31 10.23-12.68 20.66-27 27.71-40.18a102 102 0 0 0 5.24-11.34"/><path fill="#053634" d="m743 881.78 5.66-37.67c-45.65-22.85-72-45.48-72-45.48l-17 46.73-.05 2.45a41.73 41.73 0 0 0 40.87 42.58l47.09 1c-4.22-1.89-5.57-5.52-4.57-9.61"/><path fill="#032b28" d="M843.12 758a28.53 28.53 0 0 1 36.43 22.65c1.8 10.94-6.4 22.07-13.91 30.83l-21 24.49c-22.94-15.61-51.78-35-74.87-49.84zm-94.43 86.11a461 461 0 0 0 42.91 18.81c-22.9 2.92-46.37 11.44-48.47 18.47 0 .13-.07.26-.1.39z"/><path fill="#419e98" d="m884.1 863-12.72 21.84h-.23l13.26 7.51h45.12c20.12 0 29.69-22.69 29.69-22.69z"/><path fill="#0a4f4b" d="M884.1 863s-16.85-11.69-39.42-27c-22.94-15.61-51.78-35-74.87-49.84l-3-1.93c-10.57-6.75-19.77-12.4-26.38-16.1-33.08-18.48-52.23-.87-62.12 26.07-.54 1.47-1.06 3-1.54 4.48 0 0 26.3 22.63 72 45.48a461 461 0 0 0 42.91 18.81 112 112 0 0 1 19.94-.93c15 .79 21.58 3.38 21.58 3.38a60.3 60.3 0 0 1-3.58 10c13.19 3.68 27.08 6.89 41.61 9.42h.23z"/><path fill="#419e98" d="M811.54 862a112 112 0 0 0-19.94.93c-22.9 2.92-46.37 11.44-48.47 18.47 0 .13-.07.26-.1.39-1.07 4.09.32 7.72 4.59 9.59a18 18 0 0 0 6.33 1.29l58.52-.17c8.42-1.88 13.89-10.18 17.07-17.11a60.3 60.3 0 0 0 3.58-10s-6.55-2.61-21.58-3.39"/><path fill="#a1dfdb" d="M585.87 736.78c-.67-.17-32.1 86-41.44 111.68l-23.92 5.24c-20.46 7.46-28.08 20.48-28.08 20.48l3.84 2.53a21.93 21.93 0 0 0 15.28 3.38l33.47-5v.08s10.6 2.27 16.91-6.42a18.22 18.22 0 0 0 3.8-11.75c16.25-25.67 41.5-64.26 42.58-91.19.55-13.93-5.38-24.76-22.44-29.03"/><path fill="#a1dfdb" fill-rule="evenodd" d="m562.21 868.47-5.96 6.16-26.43 13.03-5.69-3.5 18.09-16.82z"/></g></svg>