<svg xmlns="http://www.w3.org/2000/svg" viewBox="0 0 1196.83 678.76"><g data-name="Ebene 2"><path fill="#eff1f2" d="M1177.47 580V408.27h17.67v-12.62h-17.67V208.84h17.67v-12.57h-17.67v-195h-174.69L1001.5 0l-1.26 1.27H196.56L195.3 0 194 1.27H19.36v195H1.7v12.58h17.66v186.8H1.7v12.62h17.66V580H0v98.72h1196.83V580zM34.31 16.27h144.62L34.31 159.46zM1162.52 580h-38.21v-70.73c0-13.92-12-14-12-27.77l-.82-22.52h1.29a1.23 1.23 0 0 0 1.23-1.23v-9a2.66 2.66 0 0 0-2.16-2.61h-16.44a1.9 1.9 0 0 0-.47 0 2.63 2.63 0 0 0-1.94 1.51 2.7 2.7 0 0 0-.24 1.11v9.08a1.23 1.23 0 0 0 1.23 1.1h1.35l-.82 22.52c0 13.76-12 13.85-12 27.77V580h-15.64v-70.73c0-13.92-12-14-12-27.77l-.82-22.52h1.34a1.23 1.23 0 0 0 1.24-1.22v-9a2.66 2.66 0 0 0-2.16-2.61h-16.92a2.67 2.67 0 0 0-2 1.65 2.9 2.9 0 0 0-.18 1v9.08a1.23 1.23 0 0 0 1.23 1.1h1.39l-.82 22.52c0 13.76-12 13.85-12 27.77v70.8h-15.75v-70.8c0-13.92-12-14-12-27.77l-.87-22.5H998a1.24 1.24 0 0 0 1.11-1.23v-9a2.66 2.66 0 0 0-2.17-2.61h-16.88a2.64 2.64 0 0 0-2 1.8 2.5 2.5 0 0 0-.13.82v9.08a1.22 1.22 0 0 0 1.23 1.1h1.34l-.82 22.52c0 13.76-12 13.85-12 27.77V580H952v-70.73c0-13.92-12-14-12-27.77l-.83-22.5h1.48a1.23 1.23 0 0 0 1.1-1.23v-9a2.64 2.64 0 0 0-2.19-2.61 1.9 1.9 0 0 0-.47 0h-15.94a2 2 0 0 0-.48 0 2.66 2.66 0 0 0-2.18 2.61v9.08a1.23 1.23 0 0 0 1.23 1.1h1.35l-.82 22.52c0 13.76-12 13.85-12 27.77V580h-58.92a24 24 0 0 0-7.58-46.85h2.39a14.43 14.43 0 0 0 14.42-14.43h-4.81a14.42 14.42 0 0 0-14 10.29c-2.2-5.32-6.69-10.27-15-10.27v4.81c7.75 0 10.5 6 11.48 10.21A24 24 0 0 0 836 580h-42.72a24 24 0 0 0-7.58-46.85h2.38a14.43 14.43 0 0 0 14.42-14.43h-4.81A14.41 14.41 0 0 0 783.88 529c-2.19-5.32-6.69-10.27-15-10.27v4.81c7.75 0 10.5 6 11.48 10.21A24.05 24.05 0 0 0 778.1 580H736a24 24 0 0 0-7.58-46.85h2.38a14.43 14.43 0 0 0 14.42-14.42h-4.8A14.43 14.43 0 0 0 726.57 529c-2.19-5.32-6.69-10.27-15-10.27v4.81c7.75 0 10.51 6 11.48 10.21A24 24 0 0 0 720.8 580h-61.24a16.94 16.94 0 0 0 3.26-10v-48.73l1.93.77v-3c0-13.71-17.2-9.77-17.2-17.2v-1.93h.12c3.09 0 5.62-1.41 5.62-4.49v-.23a5.64 5.64 0 0 0-5.62-5.62h-38.54a5.63 5.63 0 0 0-5.61 5.62v.23c0 3.08 2.52 4.49 5.61 4.49h.12v1.93c0 7.43-17.2 3.49-17.2 17.2v2.45a3.34 3.34 0 0 0 1.94 3V570a16.94 16.94 0 0 0 3.26 10h-33.79V476.58l-9.56-14.31v-9.6h-45.44v9.6l-7.18 14.35V580H493V476.58l-9.56-14.31v-9.6H438v9.6l-7.19 14.31V580h-8.3V476.58l-9.56-14.31v-9.6h-45.47v9.6l-7.17 14.35V580h-31.24v-82.73c0-16.24-14.06-16.34-14.06-32.41l-1-26.27h1.57a1.45 1.45 0 0 0 1.45-1.44v-10.42a3 3 0 0 0-.55-1.75 2.9 2.9 0 0 0-.54-.61l-.13-.11a3.14 3.14 0 0 0-1.89-.63h-18.6a3.2 3.2 0 0 0-.69.07h-.16a3.17 3.17 0 0 0-1.56 1l-.11.15v.06l-.09.14a3 3 0 0 0-.45 1.61v10.59a1.43 1.43 0 0 0 1.43 1.3h1.57l-1 26.27c0 16.07-14 16.17-14 32.41V580H262v-82.7c0-16.3-14-16.37-14-32.44l-1-26.27h1.57a1.43 1.43 0 0 0 1.44-1.44v-10.42a3.14 3.14 0 0 0-.54-1.75l-.15-.21a3.12 3.12 0 0 0-2.41-1.14h-19.12a3.06 3.06 0 0 0-2 1.31l-.09.14a3 3 0 0 0-.46 1.61v10.59a1.44 1.44 0 0 0 1.44 1.3h1.56l-1 26.27c0 16.07-14.06 16.17-14.06 32.41V580H195v-82.73c0-16.24-14.06-16.34-14.06-32.41l-1-26.27h1.57a1.45 1.45 0 0 0 1.45-1.44v-10.42a3.11 3.11 0 0 0-3.11-3.1h-18.6a3 3 0 0 0-1.61.45l-.14.09-.13.09-.13.11a3.1 3.1 0 0 0-1.09 2.36v10.59a1.43 1.43 0 0 0 1.43 1.3h1.57l-1 26.27c0 16.07-14 16.17-14 32.41V580H127.9v-82.73c0-16.24-14.06-16.34-14.06-32.41l-1-26.27h1.57a1.43 1.43 0 0 0 1.44-1.44v-10.42a3.1 3.1 0 0 0-3.1-3.1H94.2a2.3 2.3 0 0 0-.52 0h-.17a3.07 3.07 0 0 0-1.88 1.28l-.08.14a3 3 0 0 0-.46 1.61v10.59a1.44 1.44 0 0 0 1.44 1.3h1.56l-1 26.27c0 16.07-14.06 16.17-14.06 32.41V580H34.31V408.27h1128.21zm0-184.39H1094a7.83 7.83 0 0 0 6.38-6.28l.07-.41a7.79 7.79 0 0 0-4.92-8.72l-61.85-23.5a7.92 7.92 0 0 0-6.64.49 7.79 7.79 0 0 0-3.87 5.4l-.39 2.1-18-10.6a2 2 0 0 0-2.71.73l-1.59 2.81a2.2 2.2 0 0 0-.22.61 2 2 0 0 0 .84 2l14 9.39-22-4a2 2 0 0 0-2.28 1.57l-.57 3.07a2 2 0 0 0 1.57 2.28l22 4-16.48 3.78a2 2 0 0 0-1.5 2.19l.47 3.18a2 2 0 0 0 2.29 1.63l20.58-3.7-.52 2.86a7.77 7.77 0 0 0 1.68 6.42 7.9 7.9 0 0 0 4.85 2.73H929.5V292.1h-21.12v34.78h-24.51a39.3 39.3 0 0 0 5.35-19.5c0-11.66-6.31-16.68-14.89-16.68-6.25 0-7.94 1.65-10.22 2.55.6-4.51 3.07-13.63 13.2-13.63v-5.33c-9.29 0-14.3 5.5-16.74 11.44a16.08 16.08 0 0 0-15.3-11.44h-5.35a16.05 16.05 0 0 0 16.06 16h3.26a28 28 0 0 0-.48 3.15c-2.67-.8-4-2.78-10.89-2.78-8.59 0-14.89 5-14.89 16.68a39.3 39.3 0 0 0 5.35 19.5H822a39.3 39.3 0 0 0 5.35-19.5c0-11.66-6.31-16.68-14.89-16.68-6.25 0-7.94 1.65-10.22 2.55.6-4.51 3.07-13.63 13.2-13.63v-5.29c-9.29 0-14.3 5.5-16.74 11.44a16.08 16.08 0 0 0-15.39-11.44h-5.35a16.05 16.05 0 0 0 16.06 16h3.26a28 28 0 0 0-.48 3.15c-2.67-.8-4-2.78-10.89-2.78-8.59 0-14.89 5-14.89 16.68a39.3 39.3 0 0 0 5.35 19.5h-17.53a39.3 39.3 0 0 0 5.34-19.5c0-11.66-6.3-16.68-14.88-16.68a17.8 17.8 0 0 0-9.6 2.28c.66-4.59 3.22-13.36 13.15-13.36v-5.29c-9.29 0-14.29 5.5-16.74 11.44a16.06 16.06 0 0 0-15.33-11.44h-5.36a16.07 16.07 0 0 0 16 16h3.26a28 28 0 0 0-.49 3.3c-3.08-.67-4.15-2.93-11.47-2.93-8.58 0-14.88 5-14.88 16.68a39.3 39.3 0 0 0 5.35 19.5h-21.92v-34.76h-21.11v34.78h-.06v68.79h-68.32l9.8-53h4.26v-8.32h-2.66a27 27 0 0 0-53.93 0h-3.71v8.32h4.24l9.81 53h-36l9.8-53h4.26v-8.32H545a27 27 0 0 0-53.92 0h-3.72v8.32h4.25l9.81 53H418a26.46 26.46 0 0 0-11.95-50h2.53a15.88 15.88 0 0 0 15.88-15.88h-5.29a15.88 15.88 0 0 0-15.21 11.3c-2.41-5.86-7.36-11.3-16.54-11.3v5.29c8.53 0 11.56 6.55 12.63 11.24a26.47 26.47 0 0 0-20.57 25.8v.44a26.49 26.49 0 0 0 14.39 23.12l-66.49-.22v-94.36a19.1 19.1 0 0 0-6.83-14.66h5.27a2.85 2.85 0 0 0 2.84-2.83v-10.94a2.85 2.85 0 0 0-2.84-2.83h-64.65a2.85 2.85 0 0 0-2.84 2.83v10.94a2.85 2.85 0 0 0 2.84 2.83h5.27a19.1 19.1 0 0 0-6.83 14.66v94.35l.6.22h-11.62v-107a19.16 19.16 0 0 0-8.3-15.79H247a2.85 2.85 0 0 0 2.84-2.83v-10.9a2.86 2.86 0 0 0-2.84-2.83h-64.59a2.85 2.85 0 0 0-2.83 2.83v10.94a2.83 2.83 0 0 0 2.83 2.83h6.75a19.12 19.12 0 0 0-8.3 15.79v107h-11v-93.61a19.14 19.14 0 0 0-6.86-14.66h5.27a2.83 2.83 0 0 0 2.83-2.83v-10.94a2.83 2.83 0 0 0-2.83-2.83h-64.61a2.85 2.85 0 0 0-2.84 2.83v10.94a2.85 2.85 0 0 0 2.84 2.83h5.27a19.14 19.14 0 0 0-6.83 14.66v93.57H34.31V208.84h1128.21zm0-199.39h-138.06V92.58l-9.56-14.31v-9.6h-45.44v9.6l-7.18 14.35v103.65H954V92.58l-9.56-14.31v-9.6H899v9.6l-7.19 14.31v103.69h-8.32V92.58l-9.54-14.31v-9.6h-45.47v9.6l-7.17 14.35v103.65h-6.83V92.58l-9.56-14.31v-9.6h-45.44v9.6l-7.17 14.35v103.65h-44.22a11.85 11.85 0 0 0-9.93-17.7 11.87 11.87 0 0 0-10-19.75 11.85 11.85 0 1 0-23.56-2.07 13 13 0 0 0 .19 2.07 11.86 11.86 0 0 0-10 19.75 11.88 11.88 0 0 0-9.94 17.7H592v-61l-9.52-16.87H585V98.66h-55.66v19.74h2.53l-9.53 16.87v61h-12.49v-82.93L497 90.6h3.41V64h-75.1v26.6h3.41l-12.85 22.74v82.93h-59c6.93-6.36 10.46-18.25 10.46-27.35 0-13-7-18.66-16.65-18.66-7 0-8.88 1.84-11.43 2.85.68-5 3.44-15.24 14.76-15.24v-6c-10.39 0-16 6.16-18.72 12.79a18 18 0 0 0-17.21-12.79h-6a18 18 0 0 0 18 18h3.64a32 32 0 0 0-.53 3.52c-3-.89-4.52-3.11-12.19-3.11-9.6 0-16.64 5.61-16.64 18.66 0 9.1 3.52 21 10.46 27.35h-28.56c6.93-6.36 10.46-18.25 10.46-27.35 0-13.05-7.05-18.66-16.65-18.66-7.75 0-9.23 2.27-12.29 3.14.6-4.92 3.25-15.53 14.79-15.53v-6c-10.39 0-16 6.16-18.72 12.79a18 18 0 0 0-17.2-12.79h-6a18 18 0 0 0 18 18h3.65a30 30 0 0 0-.51 3.24c-2.53-1-4.43-2.83-11.39-2.83-9.62 0-16.62 5.56-16.62 18.61 0 9.1 3.52 21 10.46 27.35h-28.57c6.93-6.36 10.46-18.25 10.46-27.35 0-13-7-18.66-16.65-18.66-7.16 0-9 1.94-11.61 2.92.65-5 3.38-15.31 14.76-15.31v-6c-10.39 0-16 6.16-18.72 12.79a18 18 0 0 0-17.21-12.79h-6a18 18 0 0 0 18 18h3.65a28 28 0 0 0-.57 3.41c-2.88-.93-4.5-3.06-12-3.06-9.59 0-16.64 5.61-16.64 18.66 0 9.1 3.52 21 10.46 27.35H34.31V180.5L200.18 16.27h796.48l165.86 164.28zm0-36.8L1017.9 16.27h144.62z" data-name="Ebene 1"/></g></svg>