<svg xmlns="http://www.w3.org/2000/svg" viewBox="0 0 417 520"><path fill="#2e3033" d="M237.08 349.41h28.43v94.76h-28.43z"/><circle cx="251.3" cy="423.13" r="5.19" fill="#43464a"/><path fill="#43464a" d="M243.55 355.74h15.5v54.75h-15.5z"/><path fill="#2e3033" d="M270.3 349.41h28.43v94.76H270.3z"/><circle cx="284.52" cy="423.13" r="5.19" fill="#43464a"/><path fill="#43464a" d="M276.77 355.74h15.5v54.75h-15.5z"/><path fill="#2e3033" d="M303.52 349.41h28.43v94.76h-28.43z"/><circle cx="317.74" cy="423.13" r="5.19" fill="#43464a"/><path fill="#43464a" d="M309.99 355.74h15.5v54.75h-15.5z"/><path fill="#2e3033" d="M336.74 349.41h28.43v94.76h-28.43z"/><circle cx="350.96" cy="423.13" r="5.19" fill="#43464a"/><path fill="#43464a" d="M343.21 355.74h15.5v54.75h-15.5z"/><path fill="#2e3033" d="M369.96 349.41h28.43v94.76h-28.43z"/><circle cx="384.18" cy="423.13" r="5.19" fill="#43464a"/><path fill="#43464a" d="M376.43 355.74h15.5v54.75h-15.5z"/><path fill="#2e3033" d="M237.08 238.61h28.43v94.76h-28.43z"/><circle cx="251.3" cy="312.33" r="5.19" fill="#43464a"/><path fill="#43464a" d="M243.55 244.93h15.5v54.75h-15.5z"/><path fill="#2e3033" d="M270.3 238.61h28.43v94.76H270.3z"/><circle cx="284.52" cy="312.33" r="5.19" fill="#43464a"/><path fill="#43464a" d="M276.77 244.93h15.5v54.75h-15.5z"/><path fill="#2e3033" d="M303.52 238.61h28.43v94.76h-28.43z"/><circle cx="317.74" cy="312.33" r="5.19" fill="#43464a"/><path fill="#43464a" d="M309.99 244.93h15.5v54.75h-15.5z"/><path fill="#2e3033" d="M336.74 238.61h28.43v94.76h-28.43z"/><circle cx="350.96" cy="312.33" r="5.19" fill="#43464a"/><path fill="#43464a" d="M343.21 244.93h15.5v54.75h-15.5z"/><path fill="#2e3033" d="M369.96 238.61h28.43v94.76h-28.43z"/><circle cx="384.18" cy="312.33" r="5.19" fill="#43464a"/><path fill="#43464a" d="M376.43 244.93h15.5v54.75h-15.5z"/><path fill="#2e3033" d="M237.08 127.8h28.43v94.76h-28.43z"/><circle cx="251.3" cy="201.52" r="5.19" fill="#43464a"/><path fill="#43464a" d="M243.55 134.13h15.5v54.75h-15.5z"/><path fill="#2e3033" d="M270.3 127.8h28.43v94.76H270.3z"/><circle cx="284.52" cy="201.52" r="5.19" fill="#43464a"/><path fill="#43464a" d="M276.77 134.13h15.5v54.75h-15.5z"/><path fill="#2e3033" d="M303.52 127.8h28.43v94.76h-28.43z"/><circle cx="317.74" cy="201.52" r="5.19" fill="#43464a"/><path fill="#43464a" d="M309.99 134.13h15.5v54.75h-15.5z"/><path fill="#2e3033" d="M336.74 127.8h28.43v94.76h-28.43z"/><circle cx="350.96" cy="201.52" r="5.19" fill="#43464a"/><path fill="#43464a" d="M343.21 134.13h15.5v54.75h-15.5z"/><path fill="#2e3033" d="M369.96 127.8h28.43v94.76h-28.43z"/><circle cx="384.18" cy="201.52" r="5.19" fill="#43464a"/><path fill="#43464a" d="M376.43 134.13h15.5v54.75h-15.5zM219.55.96h10.62v517.87h-10.62zm185.75 0h10.62v517.87H405.3z"/><path fill="#43464a" d="M225.08 333.36h182.36v10.62H225.08zm-5.53 110.8h196.37v10.62H219.55zm7.41-221.59h182.36v10.62H226.96zm0-110.8h182.36v10.62H226.96zM222.33.96h190.82v10.62H222.33z"/><path fill="#2e3033" d="M237.08 17h28.43v94.76h-28.43z"/><circle cx="251.3" cy="90.72" r="5.19" fill="#43464a"/><path fill="#43464a" d="M243.55 23.33h15.5v54.75h-15.5z"/><path fill="#2e3033" d="M270.3 17h28.43v94.76H270.3z"/><circle cx="284.52" cy="90.72" r="5.19" fill="#43464a"/><path fill="#43464a" d="M276.77 23.33h15.5v54.75h-15.5z"/><path fill="#2e3033" d="M303.52 17h28.43v94.76h-28.43z"/><circle cx="317.74" cy="90.72" r="5.19" fill="#43464a"/><path fill="#43464a" d="M309.99 23.33h15.5v54.75h-15.5z"/><path fill="#2e3033" d="M336.74 17h28.43v94.76h-28.43z"/><circle cx="350.96" cy="90.72" r="5.19" fill="#43464a"/><path fill="#43464a" d="M343.21 23.33h15.5v54.75h-15.5z"/><path fill="#2e3033" d="M369.96 17h28.43v94.76h-28.43z"/><circle cx="384.18" cy="90.72" r="5.19" fill="#43464a"/><path fill="#43464a" d="M376.43 23.33h15.5v54.75h-15.5zM60.322 512.214h79.819l7.29-53.9h-94.4z"/><path fill="#383b3e" d="M50.342 438.354v19.96h99.779v-19.96H50.34zm15.96 73.86h67.849v7.98H66.302z"/><path fill="#43464a" d="M175.736 276.682c-5.759-6.498-15.694-7.097-22.191-1.338-5.214 4.63-21.498 32.761-27.71 43.57l-21.611 25.008-.003-34.828h-.103c6.288-18.595 26.053-78.01 26.053-90.95-.63-15.45-13.667-27.465-29.118-26.835-14.161.578-25.657 11.646-26.772 25.775v1.06c0 12.989 19.775 72.355 26.053 90.95h-.113v65.812l-19-23.36-.267.235-.004-.028.231-.207-.392-.93c-1.83-12.87-6.006-40.502-8.862-46.124-3.293-6.547-10.744-9.609-17.534-7.617-6.738-6.353-17.328-6.63-24.392-.37-7.478 6.628-8.167 18.063-1.54 25.54 5.304 5.97 37.23 24.599 49.805 31.828l.119.119.046-.024.03.018.005-.005 21.765 26.305v41.451l-9.977-11.499c-3.477-8.258-13.85-28.935-17.202-32.686-4.137-4.667-11.274-5.098-15.941-.961s-5.098 11.273-.961 15.94c3.326 3.745 23.615 15.598 31.38 20.06l12.701 14.64v11.173h4v-12.058l-.002-21.865 16.061-18.28-.013-.013c7.071.674 21.021 1.867 24.168 1.12a7.895 7.895 0 0 0 5.9-9.479 7.86 7.86 0 0 0-3.043-4.586c3.464-1.755 6.16-3.29 7.306-4.315 4.969-4.404 5.427-12.001 1.023-16.97-4.403-4.97-12.001-5.427-16.97-1.024-3.987 3.542-16.344 24.647-21.095 32.913l-13.338 15.18-.004-49.6 24.335-28.16c11.496-4.839 40.617-17.728 45.839-22.394 6.497-5.759 7.096-15.694 1.338-22.191"/></svg>