<svg xmlns="http://www.w3.org/2000/svg" viewBox="0 0 1097.672 462.249"><g data-name="Ebene 2"><path fill="#005f32" d="M910.128 18.326c-91.665-8.261-213.156 11.196-385.443 178.014-54.74 53.711-119.24 74.695-179.088 77.314-72.92-6.932-127.395-30.657-127.395-30.657a91 91 0 0 0 .46 9.138c-38.973-15.847-64.862-37.338-67.086-54.022v44.884a89.93 89.93 0 0 0 89.927 89.927h605.945a133.39 133.39 0 0 0 128.723-98.41l56.541-208.072c-35.29-6.498-75.55-12.665-122.584-8.116"/><path fill="#979ea4" d="M702.209 429.948v-97.024H669.82v97.024H315.435v-97.024h-32.388v97.024H147.592a115.29 115.29 0 0 1-115.29-115.29v-1.255a115.29 115.29 0 0 1 115.29-115.29c30.912.128 99.736-24.254 101.402-98.955S204.607-1.592 149.91.075C60.586 2.796 45.164 122.23 141.033 132.589a14.88 14.88 0 0 0 16.373-14.854 14.99 14.99 0 0 0-13.454-14.842c-56.732-6.27-34.45-70.781 5.958-70.39 43.308.421 66.071 15.273 66.654 66.655.25 47.17-42.78 66.654-68.346 66.654A148.22 148.22 0 0 0 0 314.03a148.22 148.22 0 0 0 148.218 148.22h933.304a16.15 16.15 0 0 0 16.15-16.15 16.15 16.15 0 0 0-16.15-16.151z"/><path fill="#004523" d="M548.836 213.496C754.227 23.069 881.565 48.556 1023.601 59.97c18.273 1.469 25.384-37.033 6.746-38.806C904.608 9.2 712.74-17.803 524.685 181.356c-128.462 136.047-298.362 66.885-351.61 13.794-4.677-2.907-26.117-8.238-28.44 13.99-5.807 46.844 223.916 171.506 404.201 4.356"/></g></svg>