<svg xmlns="http://www.w3.org/2000/svg" data-name="Ebene 1" viewBox="0 0 1920 1080"><defs><clipPath id="a"><path fill="none" stroke-width="0" d="M0-33h1920v1080H0z"/></clipPath></defs><path fill="#eff1f2" d="M0 0h1920v1080H0z"/><path fill="#fff" d="M643.172 439.274H743.91a32.764 32.764 0 1 0 0-65.522 34 34 0 0 0-5.593.462l-16.115 2.752c-4.219-19.588-21.553-33.563-41.59-33.531-23.475 0-42.5 18.937-42.5 42.297a42 42 0 0 0 .356 5.5c-12.282 2.383-20.733 13.72-19.51 26.17 1.225 12.452 11.722 21.926 24.233 21.872z"/><path fill="#fff" d="M811.472 309.46h139.555c17.506.099 32.15-13.266 33.649-30.707 1.498-17.442-10.654-33.108-27.92-35.995l-20.012-3.406c.092-1.346.156-2.698.156-4.065 0-32.362-26.365-58.592-58.883-58.592-26.426-.035-49.635 17.55-56.752 42.999l-2.053-.354a46.4 46.4 0 0 0-7.74-.666 45.393 45.393 0 1 0 0 90.778z" data-name="Path"/><g stroke-width="0"><path fill="#e0e2e5" d="M1920 272.297V909.97l-386.326.104h-140.65l1.23-106.525V160.927h344.958v186.382h54.448v-75.012z"/><path fill="#eff1f2" d="M1406.606 288.721h58.033v77.634h-58.033z"/><path fill="#eff1f2" d="M1471.982 288.721h58.033v77.634h-58.033zM1537.357 288.721h58.033v77.634h-58.033zM1602.733 288.721h58.033v77.634h-58.033zM1668.104 288.721h58.033v77.634h-58.033zM1406.606 391.895h58.033v77.634h-58.033zM1471.982 391.895h58.033v77.634h-58.033zM1537.357 391.895h58.033v77.634h-58.033zM1602.733 391.895h58.033v77.634h-58.033zM1668.104 391.895h58.033v77.634h-58.033zM1406.606 185.542h58.033v77.634h-58.033zM1471.982 185.542h58.033v77.634h-58.033zM1537.357 185.542h58.033v77.634h-58.033zM1602.733 185.542h58.033v77.634h-58.033zM1668.104 185.542h58.033v77.634h-58.033zM1406.606 495.074h58.033v77.634h-58.033zM1471.982 495.074h58.033v77.634h-58.033zM1537.357 495.074h58.033v77.634h-58.033zM1602.733 495.074h58.033v77.634h-58.033zM1668.104 495.074h58.033v77.634h-58.033zM1406.606 598.248h58.033v77.634h-58.033zM1471.982 598.248h58.033v77.634h-58.033zM1537.357 598.248h58.033v77.634h-58.033zM1602.733 598.248h58.033v77.634h-58.033zM1668.104 598.248h58.033v77.634h-58.033zM1406.606 701.427h58.033v77.634h-58.033zM1471.982 701.427h58.033v77.634h-58.033zM1537.357 701.427h58.033v77.634h-58.033zM1602.733 701.427h58.033v77.634h-58.033zM1668.104 701.427h58.033v77.634h-58.033z" data-name="Rectangle"/><path fill="#eff1f2" d="M1881.736 314.146H1920v55.273h-38.264z"/><path fill="#eff1f2" d="M1813.556 314.14h48.279v55.283h-48.279z" data-name="Rectangle"/><path fill="#eff1f2" d="M1881.736 406.108H1920v55.273h-38.264z"/><path fill="#eff1f2" d="M1813.556 406.103h48.279v55.283h-48.279z" data-name="Rectangle"/><path fill="#eff1f2" d="M1881.736 498.054H1920v55.288h-38.264z"/><path fill="#eff1f2" d="M1813.556 498.061h48.279v55.283h-48.279z" data-name="Rectangle"/><path fill="#eff1f2" d="M1881.736 590.015H1920v55.288h-38.264z"/><path fill="#eff1f2" d="M1813.556 590.018h48.279v55.283h-48.279z" data-name="Rectangle"/><path fill="#eff1f2" d="M1881.736 681.977H1920v55.288h-38.264z"/><path fill="#eff1f2" d="M1813.556 681.981h48.279v55.283h-48.279z" data-name="Rectangle"/></g><path fill="none" d="M420.819 321.165q.105-.206.25-.385c-.085.129-.175.251-.25.385m-.069.125c-.024.046-.041.096-.065.143l.023-.065c.01-.027.034-.052.042-.079"/><path fill="#a4abb3" d="M0 825.733h1920V1080H0z"/><path fill="#007bc0" d="m760.427 670.42-47.02-66.855-3.593 64.228L657.89 634l7.09-10.897 33.11 21.549 4.429-79.168 56.266 80.004 18.831-36.056 11.524 6.018z"/><g stroke-width="0"><path fill="#fff" d="M462.766 266.623c0 63.544-30.244 120.03-77.114 155.835a196 196 0 0 1-29.286 18.532c-.09.05-.18.09-.27.14-26.789 13.74-57.153 21.488-89.325 21.488-33.779 0-65.561-8.547-93.31-23.585a199 199 0 0 1-19.32-11.982c0-.01-.01-.01-.01-.01a.6.6 0 0 0-.09-.07 197 197 0 0 1-42.776-41.028A196 196 0 0 1 95.6 362.18c-15.816-28.267-24.833-60.858-24.833-95.556 0-108.247 87.758-196.005 196.005-196.005s195.995 87.758 195.995 196.005"/><path fill="#004975" d="M212.221 273.989h4.613v3.624z"/><path fill="#d0d4d8" d="M254.135 255.216c8.784 2.62 17.885 3.1 25.994 2.616.933 8.848 1.683 16.44 2.224 22.289a135.7 135.7 0 0 1-28.218-24.905"/><path fill="#d0d4d8" d="M282.47 278.544c2.7 22.14 7.378 50.094 7.378 50.094l-77.59-9.203 8.509-95.279s-.623-4.984-.6-5.565c-4.573-5.54-20.483-17.714-18.208-31.924.959-5.992-.957-9.894 2.726-13.742 8.287-8.665 20.092-18.775 27.101-8.262-8.48-23.08-.188.9 0 0a147 147 0 0 0 2.587-25.106s27.175.057 57.403-1.706c30.015-1.75 26.78 25.286 36.545 22.036a244 244 0 0 1-4.422 37.037 195 195 0 0 1-3.465 14.467c-8.456 29.983-15.475 44.368-15.475 44.368a107.3 107.3 0 0 1-24.552 4.203 77.7 77.7 0 0 1-24.072-2.18 122.6 122.6 0 0 0 26.135 20.762"/><path fill="#757f89" d="M333.43 143.848c-.029-.63-.029-1.268.01-1.897.03-.51.04-1.029.02-1.578-.01-.16-.01-.32-.03-.49-.069-1.247-.289-2.585-.638-3.983-.06-.24-.13-.49-.2-.73-.03-.119-.07-.249-.11-.379a21 21 0 0 0-.589-1.757c-.12-.33-.25-.669-.39-.998a8 8 0 0 0-.299-.7c-.1-.239-.21-.479-.32-.708-.139-.3-.279-.6-.429-.889-.17-.34-.34-.669-.519-.998-.15-.27-.3-.54-.46-.8a17 17 0 0 0-.538-.908c-.15-.24-.3-.48-.46-.719a39 39 0 0 0-3.495-4.583 28 28 0 0 0-.928-1.028c-.22-.23-.43-.45-.659-.68-.16-.169-.33-.339-.5-.499a41 41 0 0 0-2.535-2.306c-.35-.3-.7-.59-1.059-.869-.44-.35-.888-.689-1.348-1.028a47 47 0 0 0-3.355-2.277c-.4-.24-.809-.49-1.218-.729a54 54 0 0 0-1.268-.709c-.29-.16-.58-.32-.879-.469-.409-.22-.828-.44-1.258-.64-.21-.109-.42-.209-.639-.309-.479-.23-.968-.459-1.468-.669-.21-.09-.419-.19-.629-.28-.21-.089-.419-.179-.639-.269-.26-.1-.509-.21-.769-.31-.379-.159-.758-.299-1.148-.449h-.01a.14.14 0 0 0-.06-.02 42 42 0 0 0-1.697-.609c-.45-.16-.909-.31-1.368-.449-.31-.1-.62-.2-.939-.29-.439-.13-.878-.27-1.338-.389-.439-.13-.898-.26-1.358-.37q-.644-.18-1.318-.329c-.519-.13-1.048-.25-1.577-.36-.26-.06-.52-.11-.78-.16a76 76 0 0 0-5.391-.918h-.01c-.02 0-.05-.01-.07-.01a68 68 0 0 1-3.574-.569 152 152 0 0 1-4.254-.829l-.06-.01c-4.533-.928-9.226-2.007-14.039-2.636h-.01c-9.725-1.258-19.89-.689-30.075 6.47-18.232 12.821-19.04 23.785-19.04 23.785s-18.503 10.923-20.72 25.232c-1.537 9.905 1.598 23.425 4.603 30.134q.18.405.36.78c1.398-2.477 2.855-4.174 4.343-5.213 7.858-5.522 16.605 7.16 22.616 18.113v.02a192 192 0 0 1 3.775 7.319c.01.01 0 .01 0 .01.469.918.888 1.767 1.248 2.516l.01.02c.33.649.619 1.228.868 1.727l-.449 2.337v.01l-2.876 14.798c-2.107 8.677-4.633 19.38.18 26.9 7.21 11.282 29.715 10.194 33.66 14.767 5.91 6.85 1.198 9.995 6.78 10.135 2.965.07 6.19-.07 9.525-.48.22-.02.44-.05.659-.08.09-.01.19-.02.29-.04 12.39-1.707 26.08-7.219 33.709-19.78 11.293-18.602 2.995-39.85 2.226-41.727v-.01c-.04-.08-.06-.13-.06-.13s.66-5.202-25.75-3.984c-23.455 1.079-39.002 7.14-43.246 8.597-.539.19-.888.3-1.058.32-1.188.14-2.267.17-3.225.12-5.332-.28-7.29-2.976-7.29-2.976l-.658-3.944-.75-4.433-2.266-13.47q.015-.015 0-.03l-3.195-19.061v-.02l-.849-5.032c2.477-1.648 5.961-3.795 6.8-4.983 5.262-7.479 23.255 2.486 15.856-24.833 0 0 13.17 11.204 28.597 10.934a33 33 0 0 0 3.904-.32c.43-.06.859-.14 1.288-.22 17.534-3.424 21.009-7.887 27.03-4.293 4.353 2.606 10.214 10.255 13.12 14.299.1.16.18.32.25.489q.12.255.18.51c.05.169.09.349.11.518a3.8 3.8 0 0 1-.12 1.628c-.02.1-.06.2-.09.3.03-.05.07-.13.13-.24.05-.11.13-.25.209-.42.14-.28.32-.629.52-1.058.219-.46.468-.998.738-1.608.09-.21.19-.419.28-.638.26-.6.529-1.259.818-1.958.08-.2.15-.389.23-.589.03-.1.07-.2.11-.3.14-.389.3-.788.45-1.197.269-.78.548-1.588.808-2.427.08-.24.15-.48.22-.719l.12-.4c.13-.438.25-.888.369-1.347q.195-.75.39-1.528c.13-.609.259-1.228.379-1.847.04-.22.08-.44.12-.669.12-.719.22-1.438.3-2.147a27 27 0 0 0 .18-2.526c.029-.859.019-1.697-.041-2.526m-64.053 81.567s37.374 5.202 47.409-3.315v1.628c-.01.01-.01.03-.02.04 0 0 0 .01-.01.01-9.536 18.582-25.122 20.349-36.275 16.834-2.776-.869-5.272-2.067-7.34-3.415l-.01-.01c-3.654-2.396-5.94-5.242-5.94-7.568q0-1.169 2.186-4.204"/><path fill="#007bc0" d="M356.366 440.99a196 196 0 0 0 29.286-18.532l-22.955-56.005-.829-2.027c3.605 16.635.23 36.395-3.085 56.635l-2.686 20.07z"/><path fill="#0096e8" d="m356.366 440.99 2.676-19.97c3.056-19.43 6.67-38.312 3.655-54.567-.11-.57-.22-1.129-.34-1.688a44.36 44.36 0 0 0-18.612-28.048l-26.26-18.631-26.22-18.602-3.785-2.686-1.907 4.523-10.574 25.082-60.709-29.775-8.627-4.234-81.277 37.444c-.08.03-.15.06-.23.1-.24.11-.47.21-.7.33l-.269.119v.01l3.505 15.357 27.349 81.218c.03.02.06.04.09.07 0 0 .01 0 .01.01a199 199 0 0 0 19.32 11.981c27.749 15.038 59.531 23.585 93.31 23.585 32.172 0 62.536-7.748 89.326-21.488z"/><path fill="#002c50" d="M154.04 426.972a197 197 0 0 1-42.775-41.029c4.853-29.146 9.875-44.602 9.875-44.602l1.588-6.8 3.964 11.213 27.439 81.288s.01 0 .01.01z"/><path fill="#0088d4" d="M154.14 427.051a199 199 0 0 0 19.322 11.982 1672 1672 0 0 0 6.4-35.227c3.605-20.968 3.605-69.125-32.461-77.213-8.987-.6-16.415.32-23.015 3.245-.08.03-.15.06-.23.1-.24.11-.47.21-.7.33-.089.04-.179.08-.269.129-10.154 4.953-18.412 14.908-27.588 31.782a196 196 0 0 0 15.666 23.764 197 197 0 0 0 42.776 41.029z"/><path fill="#56b0ff" d="M311.041 384.779c-4.53 21.01-19.03 55.432-19.03 55.432s-30.208-63.103-51.556-90.853c-23.224-30.047-48.027-45.057-52.765-47.826l17.974-9.133 6.534-18.41 61.156 45.86 9.703-37.61 1.942-.744 6.267 17.99 26.224 18.603s-.266 37.965-6.449 66.693z"/><ellipse cx="219.167" cy="195.191" fill="#004975" rx="15.148" ry="26.03"/><path fill="#004975" d="M209.79 172.054c-1.28-42.228 31.075-71.63 63.477-72.305 23.119-.483 47.608 14.457 56.264 36.152-7.213-17.353-31.702-33.742-54.821-33.26-32.403.676-60.43 27.185-59.15 69.413zM228.08 204.504l33.646 28.286 18.755 7.23v4.339h-1.443l-15.87-5.785-35.896-31.23z"/><ellipse cx="214.839" cy="195.191" fill="#0096e8" rx="14.307" ry="24.583"/><path fill="#757f89" d="M285.197 103.743c1.206.217 2.396.413 3.575.57 33.693 4.524 45.381 26.507 44.673 37.636a15 15 0 0 0-.01 1.9c.753 11.074-6.36 24.205-6.36 24.205a3.95 3.95 0 0 0-.3-3.511c-2.911-4.038-8.773-11.694-13.127-14.292-6.018-3.6-9.488.865-27.027 4.288-1.712.333-3.45.513-5.194.54z"/></g><g fill="#007bc0" stroke-width="0"><path d="M1283.16 268.601h-8.016v-3h8.017zm-16.032 0h-8.016v-3h8.016zm-16.033 0h-8.016v-3h8.016zm-16.033 0h-8.016v-3h8.016zm-16.032 0h-8.017v-3h8.017zm-16.033 0h-8.016v-3h8.016zm-16.032 0h-8.017v-3h8.017zm-16.034 0h-8.016v-3h8.016zm-16.032 0h-8.016v-3h8.016zm-16.033 0h-8.016v-3h8.016zm-16.032 0h-8.017v-3h8.017zm-16.034 0h-8.016v-3h8.016zm-16.032 0h-8.016v-3h8.016zm-16.033 0h-8.016v-3h8.016zm-16.032 0h-8.017v-3h8.017zm-16.033 0h-8.016v-3h8.016zm-16.033 0h-8.016v-3h8.016zm-16.033 0h-8.016v-3h8.016zm-16.032 0h-8.017v-3h8.017zm-16.033 0h-8.016v-3h8.016zm-16.032 0h-8.017v-3h8.017zm-16.034 0h-8.016v-3h8.016zm-16.032 0h-8.017v-3h8.017zm-16.033 0h-8.016v-3h8.016zm-16.033 0h-8.016v-3h8.016zm-16.033 0h-8.016v-3h8.016zm-16.032 0h-8.016v-3h8.016zm-16.033 0h-8.017v-3h8.017zm-16.033 0h-8.016v-3h8.016zm-16.032 0h-8.017v-3h8.017zm-16.033 0h-8.017v-3h8.017zm-16.033 0h-8.016v-3h8.016zm-16.033 0h-8.016v-3h8.016zm-16.033 0h-8.016v-3h8.016zm-16.032 0h-8.017v-3h8.017zm-16.033 0h-8.017v-3h8.017zm-16.033 0h-8.016v-3h8.016zm-16.033 0h-8.016v-3h8.016zm-16.032 0H665.9v-3h8.017zm-16.034 0h-8.016v-3h8.016zm-16.032 0h-8.016v-3h8.016zm-16.033 0h-8.016v-3h8.016zm-16.033 0h-8.016v-3h8.016zm-16.032 0h-8.017v-3h8.017zm-16.033 0h-8.017v-3h8.017zm-16.033 0h-8.016v-3h8.016zm-16.033 0h-8.016v-3h8.016zm-16.033 0h-8.016v-3h8.016zm-16.032 0h-8.017v-3h8.017zm-16.033 0h-8.016v-3h8.016zm-16.033 0h-8.016v-3h8.016zm-16.033 0h-8.016v-3h8.016zm-16.032 0h-8.017v-3h8.017zm-16.033 0h-8.017v-3h8.017zm-16.033 0h-8.016v-3h8.016zM1296.678 271.101h-3v-2.5h-2.5v-3h5.5zM1296.678 579.96h-3v-8.128h3zm0-16.256h-3v-8.128h3zm0-16.255h-3v-8.128h3zm0-16.256h-3v-8.128h3zm0-16.256h-3v-8.128h3zm0-16.256h-3v-8.128h3zm0-16.256h-3v-8.128h3zm0-16.256h-3v-8.127h3zm0-16.255h-3v-8.127h3zm0-16.255h-3v-8.128h3zm0-16.256h-3v-8.128h3zm0-16.256h-3v-8.128h3zm0-16.256h-3v-8.128h3zm0-16.256h-3v-8.128h3zm0-16.256h-3v-8.128h3zm0-16.255h-3v-8.127h3zm0-16.255h-3v-8.128h3zm0-16.256h-3v-8.128h3zm0-16.256h-3v-8.128h3z"/></g><g data-name="Ebene 2"><g stroke-width="0" clip-path="url(#a)" data-name="Ebene 2-2"><path fill="#232628" d="M165.364 862.042c0-22.699 6.341-43.386 16.756-59.009v-29.132h48.38c35.973 0 65.146 39.465 65.146 88.141s-29.173 88.141-65.146 88.141h-48.38v-29.142c-10.415-15.623-16.756-36.3-16.756-58.999"/><ellipse cx="180.956" cy="865.003" fill="#8a9097" rx="48.073" ry="65.054"/><path fill="#c1c7cc" d="M180.956 799.95a36 36 0 0 1 6.882.673c-23.28 4.524-41.19 31.654-41.19 64.38s17.91 59.888 41.19 64.38a36.7 36.7 0 0 1-6.882.674c-26.548 0-48.083-29.132-48.083-65.054s21.525-65.054 48.083-65.054"/><path fill="#c1c7cc" d="m126.532 872.815 40.415-18.543a12.43 12.43 0 0 0 6.729-7.015l20.8-59.316 30.336 7.577-21.157 60.346a11.96 11.96 0 0 0 1.317 10.528l19.932 30.98-14.295 32.675-29.612-45.02c-1.858-2.88-6.126-3.952-9.547-2.38l-41.63 19.095z"/><path fill="#383b3e" d="M183.468 773.901c35.984 0 65.146 39.465 65.146 88.141s-29.162 88.141-65.146 88.141-65.166-39.465-65.166-88.14 29.193-88.142 65.166-88.142m-2.512 156.156c26.549 0 48.073-29.132 48.073-65.054s-21.524-65.054-48.073-65.054-48.083 29.122-48.083 65.054 21.525 65.054 48.083 65.054"/><path fill="#232628" d="M573.343 862.042c0-22.699 6.341-43.386 16.756-59.009v-29.132h48.38c35.973 0 65.135 39.465 65.135 88.141s-29.162 88.141-65.135 88.141h-48.43v-29.142c-10.365-15.623-16.706-36.3-16.706-58.999"/><ellipse cx="588.925" cy="865.003" fill="#8a9097" rx="48.073" ry="65.054"/><path fill="#c1c7cc" d="M588.925 799.95c2.314.002 4.622.228 6.892.673-23.29 4.524-41.19 31.654-41.19 64.38s17.9 59.857 41.19 64.33a37 37 0 0 1-6.892.673c-26.549 0-48.073-29.132-48.073-65.054s21.524-65.003 48.073-65.003"/><path fill="#c1c7cc" d="m534.51 872.815 40.416-18.543a12.4 12.4 0 0 0 6.718-7.015l20.81-59.357 30.327 7.577-21.147 60.347a11.93 11.93 0 0 0 1.307 10.527l19.942 30.98-14.295 32.675-29.612-45.02c-1.858-2.88-6.127-3.952-9.547-2.379l-41.62 19.094z"/><path fill="#383b3e" d="M591.447 773.901c35.973 0 65.136 39.465 65.136 88.141s-29.163 88.141-65.136 88.141-65.136-39.465-65.136-88.14 29.163-88.142 65.136-88.142m-2.522 156.156c26.548 0 48.083-29.132 48.083-65.054s-21.524-65.054-48.083-65.054-48.073 29.122-48.073 65.054 21.524 65.054 48.073 65.054"/><path fill="#c1c7cc" d="m288.958 715.168 319.133 2.9L540.893 664c-49.36-40.844-108.237-62.798-168.665-62.798l-222.599.43z"/><path fill="#c1c7cc" d="M-46.738 653.187c51.177-27.651 122.154-46.684 183.512-51.126 63.838-4.626 130.608 28.805 175.883 78.369l34.432 37.71H-84.968l36.596-46.481z"/><path fill="#c1c7cc" d="M-102.357 735.304a59.74 59.74 0 0 1 21.954-30.633 33.1 33.1 0 0 1 20.187-6.402l668.307 10.21c64.615-1.858 156.299 11.233 156.299 47.073l.265 93.777c.184 65.922-92.674 65.922-124.022 65.922H48.98a34 34 0 0 1-7.311-.806l-38.608-8.66a33.2 33.2 0 0 0-7.311-.816h-47.42c-4.646 0-18.941-4.299-31.807-9.71a33.38 33.38 0 0 1-20.422-30.777v-30.54l.133-89.214a32 32 0 0 1 1.41-9.424"/><path fill="#b2b9c0" d="M144.932 709.092h167.725v205.935H144.932zM-12.511 709.092h150.469v205.935H-12.511z"/><path fill="#383b3e" d="M144.952 616.887c57.876-1.02 115.793 31.338 153.522 75.612l14.704 17.247H-11.428l-48.768-10.518c38.352-44.162 94.42-78.43 205.148-82.34m463.136 92.753-104.321.045h-26.744l-8.325.015h-18.39l-22.498.015-36.517.012-55.01.018c-25.094-36.959-68.667-71.442-118-94.466l241.296 1.455c4.05 1.545 8.07 3.164 12.044 4.844q4.77 1.98 9.45 4.095c49.153 22.05 92.486 52.603 127.015 83.967"/><path fill="#e0e2e5" d="m267.637 714.8 35.095 8.71.072-9.149-32.726-8.72z"/><path fill="#e0e2e5" d="M234.002 715.852h42.631l-12.692-19.85c-11.773-4.207-23.608-3.492-35.473 0z"/><path fill="#595e62" d="M236.381 712.34h38.404l-5.892-3.8-3.482-4.92h-31.695z"/><path fill="#595e62" d="m263.726 711.349 37.209 9.792-.112-3.9-36.453-9.926z"/><path fill="#979ea4" d="M183.366 729.953h-26.66a5.197 5.197 0 1 0 0 10.395h26.66a5.197 5.197 0 1 0 0-10.395m-157.718 0H-1.013a5.197 5.197 0 1 0 0 10.395h26.66a5.197 5.197 0 1 0 0-10.395"/><path fill="#007bc0" d="m741.405 772.451 23.026-2.267c.092-12.692.878-19.9-2.757-24.853l-20.269 8.863z"/><path fill="#d0d4d8" d="m535.511 742.114-2.42 12.795-196.806-45.163 37.658-.01zM741.405 754.194l-7.382-10.762 18.92-7.812a30 30 0 0 1 8.69 9.71z"/><path fill="#d0d4d8" d="M754.75 741.165s-14.917 8.965-13.345 13.029H527.761v-13.03z"/><path fill="#383b3e" d="M711.324 762.159H571.219a7.043 7.043 0 0 0-7.045 7.04 7.043 7.043 0 0 0 7.045 7.04h140.105a7.043 7.043 0 0 0 7.045-7.04 7.043 7.043 0 0 0-7.045-7.04m0 61.98H571.219a7.043 7.043 0 0 0-7.045 7.04 7.043 7.043 0 0 0 7.045 7.04h140.105a7.043 7.043 0 0 0 7.045-7.04 7.043 7.043 0 0 0-7.045-7.04"/><path fill="#8a9097" d="M415.155 915.037c10.599-11.937 17.358-29.918 17.358-50.034 0-35.932-21.524-65.054-48.083-65.054s-48.073 29.122-48.073 65.054c0 20.116 6.75 38.097 17.358 50.034h-18.798c-8.22-14.755-13.09-33.104-13.09-52.995 0-48.676 29.162-88.14 65.135-88.14s65.136 39.464 65.136 88.14c0 19.891-4.87 38.24-13.09 52.995zM5.573 915.7c10.599-11.926 17.359-29.907 17.359-50.033 0-35.922-21.525-65.044-48.074-65.044s-48.073 29.122-48.073 65.044a81.76 81.76 0 0 0 8.169 36.29l-18.155-6.79a115.6 115.6 0 0 1-4.565-32.451c0-48.676 29.163-88.141 65.146-88.141s65.136 39.465 65.136 88.141c0 19.891-4.88 38.24-13.09 52.985z"/><path fill="#232628" d="M377.303 862.042c0-22.699 6.351-43.386 16.766-59.009v-29.132h48.38c35.973 0 65.135 39.465 65.135 88.141s-29.162 88.141-65.135 88.141h-48.38v-29.142c-10.415-15.623-16.766-36.3-16.766-58.999"/><ellipse cx="392.895" cy="865.003" fill="#8a9097" rx="48.073" ry="65.054"/><path fill="#c1c7cc" d="M392.895 799.95c2.314.002 4.622.228 6.892.673-23.29 4.524-41.19 31.654-41.19 64.38s17.9 59.857 41.19 64.33a37 37 0 0 1-6.892.673c-26.549 0-48.073-29.132-48.073-65.054s21.524-65.003 48.073-65.003"/><path fill="#c1c7cc" d="m338.48 872.815 40.416-18.543a12.4 12.4 0 0 0 6.719-7.015l20.81-59.357 30.326 7.577-21.147 60.347a11.93 11.93 0 0 0 1.307 10.527l19.973 31.021-14.296 32.675-29.611-45.02c-1.859-2.88-6.127-3.952-9.548-2.38l-41.62 19.095z"/><path fill="#383b3e" d="M395.417 773.901c35.973 0 65.136 39.465 65.136 88.141s-29.163 88.141-65.136 88.141-65.136-39.465-65.136-88.14 29.163-88.142 65.136-88.142m-2.522 156.156c26.548 0 48.083-29.132 48.083-65.054s-21.524-65.054-48.083-65.054-48.073 29.122-48.073 65.054 21.524 65.054 48.073 65.054"/><path fill="#c1c7cc" d="m536.951 914.567-68.199.051c9.415-71.62-10.721-139.686-81.269-143.341l98.097-7.332z"/><path fill="#8a9097" d="m680.017 910.289-191.599-.092 24.027-35.544 239.651-.092c-5.381 13.57-35.585 29.06-72.08 35.728"/><path fill="#007bc0" d="m532.765 773.932-70.017-7.199.347-27.886L533 755.603z"/><path fill="#232628" d="M-29.645 862.042c0-22.699 6.341-43.386 16.756-59.009v-29.132h48.38c35.973 0 65.136 39.465 65.136 88.141s-29.163 88.141-65.136 88.141h-48.38v-29.142c-10.415-15.623-16.756-36.3-16.756-58.999"/><ellipse cx="-14.053" cy="865.003" fill="#8a9097" rx="48.073" ry="65.054"/><path fill="#c1c7cc" d="m-68.477 872.815 40.415-18.543a12.43 12.43 0 0 0 6.73-7.015L-.534 787.9l30.326 7.577-21.147 60.347a11.96 11.96 0 0 0 1.318 10.527l19.931 30.98L15.6 930.006l-29.612-45.02c-1.848-2.88-6.126-3.952-9.537-2.38l-41.63 19.095z"/><path fill="#383b3e" d="M-11.54 773.901c35.983 0 65.145 39.465 65.145 88.141s-29.162 88.141-65.146 88.141-65.186-39.465-65.186-88.14S-47.514 773.9-11.541 773.9m-2.513 156.156c26.549 0 48.074-29.132 48.074-65.054S12.496 799.95-14.053 799.95s-48.083 29.122-48.083 65.054 21.525 65.054 48.083 65.054"/><path fill="#b2b9c0" d="m128.972 914.771-68.199.052c9.415-71.61-10.71-139.676-81.258-143.342l98.096-7.321z"/><path fill="#43464a" d="m67.941 914.68 259.287.592-14.949-20.657H82.135z"/><path fill="#7ebdff" d="M452.733 709.743h-16.574l-.525-21.749.99-.045h.135l9.014-.36h.045l.735-.03z"/><path fill="none" d="M446.54 679.443a.32.32 0 0 0 .177.07z"/><path fill="#007bc0" d="M488.132 709.743h-15.255l.15-3.944 1.41-7.935z"/><path fill="#595e62" d="M456.546 644.424c-.015-.046-.015-.092-.015-.138-.046-.275-.077-.55-.122-.826 0-.03 0-.061-.016-.107a19 19 0 0 0-.199-1.194v-.03c-.061-.337-.107-.643-.168-.903 0-.015 0-.03-.016-.046-.015-.015-.015-.03-.015-.046l-.046-.29a3 3 0 0 0-.076-.368l-.046-.275-.06-.26c-.047-.03-.95-.81-2.113-1.622-1.147-.795-2.539-1.621-3.594-1.774-2.265-.566-3.015 1.254-8.384 4.054-5.125 2.647-11.505.046-12.026-.168-.015-.016-.03-.016-.03-.016.887 1.408 1.468 2.647 1.85 3.764.368 1.117.521 2.111.521 2.983q0 .596-.091 1.148c-.031.198-.077.382-.107.565-.03.169-.092.337-.138.505a2.6 2.6 0 0 1-.184.49c-.29.81-.704 1.515-1.116 2.157-.016 0 0 .015 0 .015-.353.597-.705 1.148-.965 1.699-.076.183-.153.367-.214.55a4.2 4.2 0 0 0-.23 1.852c.016.153.031.29.062.443v.03a6 6 0 0 0-.536-.52 2.5 2.5 0 0 0-.352-.351 18 18 0 0 0-.596-.536c-.26-.244-.505-.443-.765-.673-2.126-1.729-4.483-2.753-5.798-.413a2.5 2.5 0 0 0-.352.903.8.8 0 0 0-.061.321c-.016.015-.016.03-.016.046-.015.122-.015.26-.015.382-.015.276.015.551.076.842.092.52.245 1.04.46 1.591a11 11 0 0 0 .856 1.714c1.821 3.197 5.095 6.502 7.115 8.383l-.582 2.678-.031.122c-1.56-1.56-13.998-15.681-15.864-21.296a5.1 5.1 0 0 1-.276-1.653c0-4.222 4.605-8.567 4.605-8.567s-.795-3.672 3.932-9.608c4.743-5.951 11.673-4.207 16.782-5.905 2.051-.673 4.955.043 7.066-.676 4.054 1.668 7.761 2.793 9.307 3.45-.016 1.867 1.513 3.651 1.864 5.12l.015.092c1.591 2.586 3.428 7.298.704 12.362"/><path fill="#595e62" d="M456.546 644.424c-.015-.046-.015-.092-.015-.138-.046-.275-.077-.55-.122-.826 0-.03 0-.061-.016-.107a19 19 0 0 0-.199-1.194v-.03c-.061-.337-.107-.643-.168-.903 0-.015 0-.03-.016-.046-.015-.015-.015-.03-.015-.046l-.046-.29a3 3 0 0 0-.076-.368l-.046-.275-.06-.26c-.047-.03-.95-.81-2.113-1.622-1.147-.795-2.539-1.621-3.594-1.774-2.265-.566-3.015 1.254-8.384 4.054-5.125 2.647-11.505.046-12.026-.168-.015-.016-.03-.016-.03-.016.887 1.408 1.468 2.647 1.85 3.764.368 1.117.521 2.111.521 2.983q0 .596-.091 1.148c-.031.198-.077.382-.107.565-.03.169-.092.337-.138.505a2.6 2.6 0 0 1-.184.49c-.29.81-.704 1.515-1.116 2.157-.016 0 0 .015 0 .015-.353.597-.705 1.148-.965 1.699-.076.183-.153.367-.214.55a4.2 4.2 0 0 0-.23 1.852c.016.153.031.29.062.443v.03a6 6 0 0 0-.536-.52 2.5 2.5 0 0 0-.352-.351 18 18 0 0 0-.596-.536c-.26-.244-.505-.443-.765-.673-2.126-1.729-4.483-2.753-5.798-.413a2.5 2.5 0 0 0-.352.903.8.8 0 0 0-.061.321c-.016.015-.016.03-.016.046-.015.122-.015.26-.015.382-.015.276.015.551.076.842.092.52.245 1.04.46 1.591a11 11 0 0 0 .856 1.714c1.821 3.197 5.095 6.502 7.115 8.383l-.582 2.678-.031.122c-1.56-1.56-13.998-15.681-15.864-21.296a5.1 5.1 0 0 1-.276-1.653c0-4.222 4.605-8.567 4.605-8.567s-.795-3.672 3.932-9.608c4.743-5.951 11.673-4.207 16.782-5.905a86 86 0 0 0 3.079-1.096c1.666-.619 3.494-1.251 5.27-1.305 1.484-.044 3.103.045 4.231.51a7.5 7.5 0 0 1 1.829 1.097 9.74 9.74 0 0 1 3.63 7.129 8.5 8.5 0 0 0 .198 1.56l.015.09c1.591 2.587 3.428 7.299.704 12.363"/><path fill="#00a4fd" d="M476.492 709.743h-26.234l-3.585-15.33-1.02-6.284.165-.54 2.415-7.574 17.13 9.51c3.974 2.579 6.3 4.379 9.074 8.339 1.44 2.115 1.92 7.515 2.055 11.88m-34.318-.001h-6.015l-14.505-.015h-4.05c-1.664-6.06-4.86-11.954-10.364-14.069h-.03l.03-.03.045-.015 21.554-13.935 7.785 6.27.81.645z"/><path fill="#c1c7cc" d="M420.941 654.081c1.334-2.346 3.696-1.313 5.821.426.787.659 1.539 1.406 2.248 2.157l-.007-.085a4.33 4.33 0 0 1 .179-2.329c.98-2.957 5.533-5.718.44-13.877 0 0 6.684 2.92 12.045.088s6.1-4.654 8.381-4.042c2.125.282 5.607 3.315 5.7 3.393.01.127.424 1.89.782 4.471l.019.213c.708 4.607.95 9.255.8 13.852-.465 9.724-1.534 14.574-1.534 14.574a32.6 32.6 0 0 1-6.942 2.886l-.042.004a23.8 23.8 0 0 1-6.906.87c2.226 1.43 3.804 2.319 6.287 3.255l-2.58 8.112-8.276.391-8.531-6.826-.383-10.59-.004-.043.609-2.796c-3.4-3.082-10.332-10.222-8.106-14.104"/><path fill="#a4abb3" d="M442.79 676.777c-.255.022-.514.002-.769.025 2.18 1.392 3.801 2.276 6.24 3.216L448 676.1c-1.717.452-3.456.65-5.21.677"/><path fill="#007bc0" d="M421.654 709.728H394.58c.255-2.04.84-4.034 1.785-5.894 2.235-4.365 5.79-7.11 10.665-8.16l.21-.045.045-.015c7.545 2.895 11.31 8.384 14.37 14.114"/></g></g><g stroke-width="0" data-name="Bosch/House-Outside/Main-objects/car-front"><path fill="#232628" d="M1366.588 869.882c0-20.68 5.796-39.53 15.315-53.768v-26.539h44.09c32.778 0 59.349 35.951 59.349 80.307s-26.57 80.301-59.349 80.301h-44.134v-26.545c-9.5-14.226-15.309-33.082-15.309-53.756" data-name="Path"/><path fill="#8a9097" d="M1424.619 872.568c0 32.74-19.635 59.285-43.805 59.285s-43.799-26.545-43.799-59.285 19.635-59.26 43.799-59.26 43.805 26.526 43.805 59.26" data-name="Path"/><path fill="#c1c7cc" d="M1380.801 813.308c2.108.005 4.21.217 6.277.634-21.225 4.174-37.579 28.812-37.579 58.651s16.31 54.548 37.579 58.67c-2.068.408-4.17.62-6.277.634-24.189 0-43.798-26.545-43.798-59.285s19.634-59.26 43.798-59.26" data-name="Path"/><path fill="#c1c7cc" d="m1331.226 879.795 36.825-16.886a11.28 11.28 0 0 0 6.125-6.397l18.957-54.08 27.641 6.968-19.274 54.978a10.84 10.84 0 0 0 1.197 9.59l18.122 28.236-13.01 29.649-27.001-41.018a7.04 7.04 0 0 0-8.76-2.173l-37.927 17.4z" data-name="Path"/><path fill="#383b3e" d="M1383.1 789.575c-32.777 0-59.354 35.951-59.354 80.307s26.602 80.301 59.354 80.301 59.349-35.95 59.349-80.3-26.603-80.308-59.349-80.308m-2.299 142.278c-24.189 0-43.798-26.545-43.798-59.285s19.634-59.26 43.798-59.26 43.818 26.526 43.818 59.26-19.635 59.285-43.799 59.285"/><path fill="#232628" d="M1005.817 869.882c0-20.68 5.777-39.53 15.315-53.768v-26.539h44.078c32.778 0 59.36 35.951 59.36 80.307s-26.601 80.301-59.36 80.301h-44.122v-26.545c-9.5-14.226-15.309-33.082-15.309-53.756" data-name="Path"/><path fill="#8a9097" d="M1063.835 872.568c0 32.74-19.635 59.285-43.805 59.285s-43.817-26.545-43.817-59.285 19.635-59.26 43.817-59.26 43.805 26.526 43.805 59.26" data-name="Path"/><path fill="#c1c7cc" d="M1020.03 813.308c2.108.008 4.21.22 6.277.634-21.225 4.174-37.579 28.812-37.579 58.651s16.31 54.548 37.58 58.67a34 34 0 0 1-6.278.634c-24.189 0-43.817-26.545-43.817-59.285s19.635-59.26 43.817-59.26" data-name="Path"/><path fill="#c1c7cc" d="m970.436 879.795 36.832-16.886a11.34 11.34 0 0 0 6.124-6.397l18.958-54.08 27.64 6.968-19.273 54.978a10.85 10.85 0 0 0 1.19 9.59l18.166 28.103-13.029 29.77-27.001-41.025a7.04 7.04 0 0 0-8.696-2.166l-37.928 17.392z" data-name="Path"/><path fill="#383b3e" d="M1022.33 789.575c-32.778 0-59.349 35.951-59.349 80.307s26.57 80.301 59.349 80.301 59.348-35.95 59.348-80.3-26.57-80.308-59.348-80.308m-2.3 142.278c-24.189 0-43.817-26.545-43.817-59.285s19.635-59.26 43.817-59.26 43.805 26.526 43.805 59.26-19.635 59.285-43.805 59.285" data-name="Shape"/><path fill="#d0d4d8" d="m761.368 795.098 83.898 34.88 3.136 87.94h410.27c83.664 0 221.875-.544 221.875-.544 17.234-.349 14.435-12.415 18.818-24.424 25.93-26.893 10.913-93.994 10.913-93.994l-12.528-17.735c-10.381-26.602-25.234-32.936-47.764-55.973-92.93-94.875-192.113-123.225-323.37-123.225h-30.186c-64.802 2.185-192.271-1.495-304.178 104.205zm495.505 94.8c-.684-10.439-1.058-16.228 0 0m1.799 27.697c-.07-1.108-.304-4.649-.596-9.14.178 2.781.387 5.847.596 9.14m-.735-11.4a581 581 0 0 0-.266-3.89c.082 1.267.164 2.534.266 3.89m-.336-5.03c-.095-1.387-.184-2.85-.279-4.269.083 1.387.184 2.78.28 4.27m-.432-6.069c0-.722-.095-1.393-.139-2.128 0 .665.082 1.394.14 2.128" data-name="Shape"/><path fill="#d0d4d8" d="m848.332 911.806-110.456-39.694c-3.015-33.779 8.626-61.382 27.609-81.384l82.847 1.602z" data-name="Path"/><path fill="#383b3e" d="M1431.586 706.646c-53.724-52.14-112.743-75.62-162.61-90.612a241 241 0 0 0-39.985-8.349c-68.741-8.436-138.129-6.181-172.174-4.395 45.528 13.18 84.444 46.389 113.814 86.907 32.626 44.939 77.096 79.895 129.008 99.575 13.504 5.117 90.042 33.525 137.363 3.756 53.66-33.405 17.817-64.378-5.359-86.87" data-name="Path"/><path fill="#2e3033" d="M1340.632 853.066a529.7 529.7 0 0 0 114.478 0l5.834-3.87s-.304-4.351-1.9-4.351c-42.076 3.743-83.095 4.079-122.675 0-1.007 0-1.837 1.735-1.9 3.94zm15.98 31.79a419.7 419.7 0 0 0 82.423 0l4.18-3.839s-.228-4.37-1.393-4.37a459 459 0 0 1-88.313 0c-.742 0-1.394 1.754-1.394 3.952z" data-name="Shape"/><path fill="#595e62" d="M1448.415 828.921c18.958-.754 39.7-4.719 63.339-12.11l-3.072-18.299c-24.176 11.452-43.862 17.412-61.844 18.749z" data-name="Path"/><path fill="#c1c7cc" d="m1508.296 799.291 2.882 17.159c-23.246 7.227-43.634 11.135-62.3 11.926l-1.394-10.628c17.735-1.393 37.136-7.296 60.837-18.457m.81-1.545c-21.034 10.007-42.006 17.589-62.831 19.001l1.697 12.668c21.383-.792 42.861-5.567 64.39-12.294l-3.255-19.483M983.826 893.71V623.78c52.824-13.029 94.375-5.454 130.478 28.255l23.657 127.678c-33.779 20.782-54.864 57.993-43.672 113.288z" data-name="Shape"/><path fill="#8a9097" d="M1190.481 918.165c9.66-10.881 15.835-27.235 15.835-45.603 0-32.734-19.635-59.26-43.805-59.26s-43.818 26.532-43.818 59.266c0 18.336 6.15 34.716 15.835 45.604h-17.165a99.6 99.6 0 0 1-11.927-48.283c0-44.337 26.57-80.307 59.349-80.307s59.348 35.95 59.348 80.307a99.6 99.6 0 0 1-11.927 48.283z" data-name="Path"/><path fill="#232628" d="M1156 869.882c0-20.68 5.776-39.53 15.315-53.768v-26.539h44.077c32.778 0 59.349 35.951 59.349 80.307s-26.603 80.301-59.349 80.301h-44.128v-26.545c-9.5-14.226-15.309-33.082-15.309-53.756" data-name="Path"/><path fill="#8a9097" d="M1214.011 872.568c0 32.74-19.635 59.285-43.81 59.285s-43.806-26.545-43.806-59.285 19.635-59.26 43.805-59.26 43.811 26.526 43.811 59.26" data-name="Path"/><path fill="#c1c7cc" d="M1170.2 813.308c2.108.005 4.21.217 6.277.634-21.212 4.174-37.579 28.812-37.579 58.651s16.31 54.548 37.579 58.67a33.7 33.7 0 0 1-6.277.634c-24.189 0-43.805-26.545-43.805-59.285s19.635-59.26 43.805-59.26" data-name="Path"/><path fill="#c1c7cc" d="m1120.593 879.795 36.832-16.886a11.34 11.34 0 0 0 6.124-6.397l18.958-54.08 27.628 6.968-19.236 54.972a10.9 10.9 0 0 0 1.19 9.596l18.097 28.242-13.029 29.77-27.001-41.019a7.024 7.024 0 0 0-8.684-2.166l-37.927 17.393z" data-name="Path"/><path fill="#383b3e" d="M1172.53 789.575c-32.777 0-59.347 35.951-59.347 80.307s26.59 80.301 59.348 80.301 59.348-35.95 59.348-80.3-26.602-80.308-59.348-80.308m-2.35 142.278c-24.189 0-43.805-26.545-43.805-59.285s19.635-59.26 43.805-59.26 43.811 26.526 43.811 59.26-19.635 59.285-43.81 59.285" data-name="Shape"/><path fill="#d0d4d8" d="M1301.45 917.735h-62.128c8.57-65.24-9.748-127.273-74.05-130.598l89.384-6.683z" data-name="Path"/><path fill="#8a9097" d="M829.71 918.165c9.66-10.881 15.753-27.235 15.753-45.603 0-32.734-19.635-59.26-43.8-59.26s-43.804 26.526-43.804 59.26c0 2.299.095 4.554.279 6.783l-13.435-4.744a104 104 0 0 1-.095-4.693c0-44.337 26.603-80.307 59.349-80.307s59.348 35.95 59.348 80.307a99.6 99.6 0 0 1-11.901 48.257z" data-name="Path"/><path fill="#232628" d="M795.229 869.882c0-20.68 5.776-39.53 15.315-53.768v-26.539h44.077c32.778 0 59.349 35.951 59.349 80.307s-26.57 80.301-59.349 80.301H810.5v-26.545c-9.501-14.226-15.31-33.082-15.31-53.756" data-name="Path"/><path fill="#8a9097" d="M853.247 872.568c0 32.74-19.635 59.285-43.818 59.285s-43.805-26.545-43.805-59.285 19.635-59.26 43.805-59.26 43.818 26.526 43.818 59.26" data-name="Path"/><path fill="#c1c7cc" d="M809.43 813.308c2.107.005 4.21.217 6.276.634-21.225 4.174-37.579 28.812-37.579 58.651s16.272 54.522 37.58 58.646c-2.069.406-4.17.618-6.278.633-24.189 0-43.805-26.545-43.805-59.285s19.635-59.26 43.805-59.26" data-name="Path"/><path fill="#c1c7cc" d="m759.848 879.795 36.818-16.886a11.36 11.36 0 0 0 6.138-6.397l19.002-54.149 27.647 6.968-19.293 54.92a10.91 10.91 0 0 0 1.197 9.59l18.096 28.243-13.029 29.769-27.001-41.018a7.03 7.03 0 0 0-8.69-2.173l-37.94 17.4z" data-name="Path"/><path fill="#383b3e" d="M811.722 789.575c-32.778 0-59.348 35.951-59.348 80.307s26.57 80.301 59.348 80.301 59.348-35.95 59.348-80.3-26.602-80.308-59.348-80.308m-2.293 142.278c-24.189 0-43.805-26.545-43.805-59.285s19.635-59.26 43.805-59.26 43.818 26.526 43.818 59.26-19.635 59.285-43.818 59.285" data-name="Shape"/><path fill="#d0d4d8" d="M940.711 917.735h-62.18c8.59-65.24-9.74-127.273-74.03-130.598l89.384-6.683z" data-name="Path"/><path fill="#8a9097" d="M1267.539 914.504h212.242l10.818-2.78s-.57-3.218-3.496-3.218h-227.45a3.294 3.294 0 0 0-3.477 2.895z" data-name="Path"/><path fill="#595e62" d="M1321.256 820.972c-30.966-4.58-57.745-12.522-81.827-24.271l-2.78 21.225c23.378 7.6 51.304 12.737 83.024 15.309z" data-name="Path"/><path fill="#c1c7cc" d="M1239.847 797.493c23.828 11.54 50.304 19.375 80.827 23.904l-1.501 11.23c-31.29-2.534-58.905-7.601-82.011-15.088l2.685-20.072m-3.844 20.794c24.765 8.089 53.033 13.016 84.07 15.493l1.766-13.25c-29.585-4.327-57.423-12.136-82.84-24.608zM854.995 672.855c46.687-24.348 86.774-41.367 122.016-49.512v270.456l-87.243.78c2.033-60.806-13.39-98.417-65.556-114.13z" data-name="Shape"/><path fill="#383b3e" d="m1178.618 736.054-100.614 51.653-235.829-14.948-63.522-27.236 9.741-27.837c25.532-26.805 136.236-96.04 230.3-100.709s153.869 96.965 160.063 119.121" data-name="Path"/><ellipse cx="792.809" cy="768.35" fill="#c1c7cc" rx="7.278" ry="10.844"/><path fill="#232628" d="M1366.588 869.882c0-20.68 5.796-39.53 15.315-53.768v-26.539h44.09c32.778 0 59.349 35.951 59.349 80.307s-26.57 80.301-59.349 80.301h-44.134v-26.545c-9.5-14.226-15.309-33.082-15.309-53.756" data-name="Path"/><path fill="#8a9097" d="M1424.619 872.568c0 32.74-19.635 59.285-43.805 59.285s-43.799-26.545-43.799-59.285 19.635-59.26 43.799-59.26 43.805 26.526 43.805 59.26" data-name="Path"/><path fill="#c1c7cc" d="M1380.801 813.308c2.108.005 4.21.217 6.277.634-21.225 4.174-37.579 28.812-37.579 58.651s16.31 54.548 37.579 58.67c-2.068.408-4.17.62-6.277.634-24.189 0-43.798-26.545-43.798-59.285s19.634-59.26 43.798-59.26" data-name="Path"/><path fill="#c1c7cc" d="m1331.226 879.795 36.825-16.886a11.28 11.28 0 0 0 6.125-6.397l18.957-54.08 27.641 6.968-19.274 54.978a10.84 10.84 0 0 0 1.197 9.59l18.122 28.236-13.01 29.649-27.001-41.018a7.04 7.04 0 0 0-8.76-2.173l-37.927 17.4z" data-name="Path"/><path fill="#383b3e" d="M1383.1 789.575c-32.777 0-59.354 35.951-59.354 80.307s26.602 80.301 59.354 80.301 59.349-35.95 59.349-80.3-26.603-80.308-59.349-80.308m-2.299 142.278c-24.189 0-43.798-26.545-43.798-59.285s19.634-59.26 43.798-59.26 43.818 26.526 43.818 59.26-19.635 59.285-43.799 59.285" data-name="Shape"/><path fill="#232628" d="M1005.817 869.882c0-20.68 5.777-39.53 15.315-53.768v-26.539h44.078c32.778 0 59.36 35.951 59.36 80.307s-26.601 80.301-59.36 80.301h-44.122v-26.545c-9.5-14.226-15.309-33.082-15.309-53.756" data-name="Path"/><path fill="#8a9097" d="M1063.835 872.568c0 32.74-19.635 59.285-43.805 59.285s-43.817-26.545-43.817-59.285 19.635-59.26 43.817-59.26 43.805 26.526 43.805 59.26" data-name="Path"/><path fill="#c1c7cc" d="M1020.03 813.308c2.108.008 4.21.22 6.277.634-21.225 4.174-37.579 28.812-37.579 58.651s16.31 54.548 37.58 58.67a34 34 0 0 1-6.278.634c-24.189 0-43.817-26.545-43.817-59.285s19.635-59.26 43.817-59.26" data-name="Path"/><path fill="#c1c7cc" d="m970.436 879.795 36.832-16.886a11.34 11.34 0 0 0 6.124-6.397l18.958-54.08 27.64 6.968-19.273 54.978a10.85 10.85 0 0 0 1.19 9.59l18.166 28.103-13.029 29.77-27.001-41.025a7.04 7.04 0 0 0-8.696-2.166l-37.928 17.392z" data-name="Path"/><path fill="#383b3e" d="M1022.33 789.575c-32.778 0-59.349 35.951-59.349 80.307s26.57 80.301 59.349 80.301 59.348-35.95 59.348-80.3-26.57-80.308-59.348-80.308m-2.3 142.278c-24.189 0-43.817-26.545-43.817-59.285s19.635-59.26 43.817-59.26 43.805 26.526 43.805 59.26-19.635 59.285-43.805 59.285" data-name="Shape"/><path fill="#d0d4d8" d="m761.368 795.098 83.898 34.88 3.136 87.94h410.27c83.664 0 221.875-.544 221.875-.544 17.234-.349 14.435-12.415 18.818-24.424 25.93-26.893 10.913-93.994 10.913-93.994l-12.528-17.735c-10.381-26.602-25.234-32.936-47.764-55.973-92.93-94.875-192.113-123.225-323.37-123.225h-30.186c-64.802 2.185-192.271-1.495-304.178 104.205zm495.505 94.8c-.684-10.439-1.058-16.228 0 0m1.799 27.697c-.07-1.108-.304-4.649-.596-9.14.178 2.781.387 5.847.596 9.14m-.735-11.4a581 581 0 0 0-.266-3.89c.082 1.267.164 2.534.266 3.89m-.336-5.03c-.095-1.387-.184-2.85-.279-4.269.083 1.387.184 2.78.28 4.27m-.432-6.069c0-.722-.095-1.393-.139-2.128 0 .665.082 1.394.14 2.128" data-name="Shape"/><path fill="#d0d4d8" d="m848.332 911.806-110.456-39.694c-3.015-33.779 8.626-61.382 27.609-81.384l82.847 1.602z" data-name="Path"/><path fill="#383b3e" d="M1431.586 706.646c-53.724-52.14-112.743-75.62-162.61-90.612a241 241 0 0 0-39.985-8.349c-68.741-8.436-138.129-6.181-172.174-4.395 45.528 13.18 84.444 46.389 113.814 86.907 32.626 44.939 77.096 79.895 129.008 99.575 13.504 5.117 90.042 33.525 137.363 3.756 53.66-33.405 17.817-64.378-5.359-86.87" data-name="Path"/><path fill="#2e3033" d="M1340.632 853.066a529.7 529.7 0 0 0 114.478 0l5.834-3.87s-.304-4.351-1.9-4.351c-42.076 3.743-83.095 4.079-122.675 0-1.007 0-1.837 1.735-1.9 3.94zm15.98 31.79a419.7 419.7 0 0 0 82.423 0l4.18-3.839s-.228-4.37-1.393-4.37a459 459 0 0 1-88.313 0c-.742 0-1.394 1.754-1.394 3.952z" data-name="Shape"/><path fill="#595e62" d="M1448.415 828.921c18.958-.754 39.7-4.719 63.339-12.11l-3.072-18.299c-24.176 11.452-43.862 17.412-61.844 18.749z" data-name="Path"/><path fill="#c1c7cc" d="m1508.296 799.291 2.882 17.159c-23.246 7.227-43.634 11.135-62.3 11.926l-1.394-10.628c17.735-1.393 37.136-7.296 60.837-18.457m.81-1.545c-21.034 10.007-42.006 17.589-62.831 19.001l1.697 12.668c21.383-.792 42.861-5.567 64.39-12.294l-3.255-19.483M983.826 893.71V623.78c52.824-13.029 94.375-5.454 130.478 28.255l23.657 127.678c-33.779 20.782-54.864 57.993-43.672 113.288z" data-name="Shape"/><path fill="#8a9097" d="M1190.481 918.165c9.66-10.881 15.835-27.235 15.835-45.603 0-32.734-19.635-59.26-43.805-59.26s-43.818 26.532-43.818 59.266c0 18.336 6.15 34.716 15.835 45.604h-17.165a99.6 99.6 0 0 1-11.927-48.283c0-44.337 26.57-80.307 59.349-80.307s59.348 35.95 59.348 80.307a99.6 99.6 0 0 1-11.927 48.283z" data-name="Path"/><path fill="#232628" d="M1156 869.882c0-20.68 5.776-39.53 15.315-53.768v-26.539h44.077c32.778 0 59.349 35.951 59.349 80.307s-26.603 80.301-59.349 80.301h-44.128v-26.545c-9.5-14.226-15.309-33.082-15.309-53.756" data-name="Path"/><path fill="#8a9097" d="M1214.011 872.568c0 32.74-19.635 59.285-43.81 59.285s-43.806-26.545-43.806-59.285 19.635-59.26 43.805-59.26 43.811 26.526 43.811 59.26" data-name="Path"/><path fill="#c1c7cc" d="M1170.2 813.308c2.108.005 4.21.217 6.277.634-21.212 4.174-37.579 28.812-37.579 58.651s16.31 54.548 37.579 58.67a33.7 33.7 0 0 1-6.277.634c-24.189 0-43.805-26.545-43.805-59.285s19.635-59.26 43.805-59.26" data-name="Path"/><path fill="#c1c7cc" d="m1120.593 879.795 36.832-16.886a11.34 11.34 0 0 0 6.124-6.397l18.958-54.08 27.628 6.968-19.236 54.972a10.9 10.9 0 0 0 1.19 9.596l18.097 28.242-13.029 29.77-27.001-41.019a7.024 7.024 0 0 0-8.684-2.166l-37.927 17.393z" data-name="Path"/><path fill="#383b3e" d="M1172.53 789.575c-32.777 0-59.347 35.951-59.347 80.307s26.59 80.301 59.348 80.301 59.348-35.95 59.348-80.3-26.602-80.308-59.348-80.308m-2.35 142.278c-24.189 0-43.805-26.545-43.805-59.285s19.635-59.26 43.805-59.26 43.811 26.526 43.811 59.26-19.635 59.285-43.81 59.285" data-name="Shape"/><path fill="#d0d4d8" d="M1301.45 917.735h-62.128c8.57-65.24-9.748-127.273-74.05-130.598l89.384-6.683z" data-name="Path"/><path fill="#8a9097" d="M829.71 918.165c9.66-10.881 15.753-27.235 15.753-45.603 0-32.734-19.635-59.26-43.8-59.26s-43.804 26.526-43.804 59.26c0 2.299.095 4.554.279 6.783l-13.435-4.744a104 104 0 0 1-.095-4.693c0-44.337 26.603-80.307 59.349-80.307s59.348 35.95 59.348 80.307a99.6 99.6 0 0 1-11.901 48.257z" data-name="Path"/><path fill="#232628" d="M795.229 869.882c0-20.68 5.776-39.53 15.315-53.768v-26.539h44.077c32.778 0 59.349 35.951 59.349 80.307s-26.57 80.301-59.349 80.301H810.5v-26.545c-9.501-14.226-15.31-33.082-15.31-53.756" data-name="Path"/><path fill="#8a9097" d="M853.247 872.568c0 32.74-19.635 59.285-43.818 59.285s-43.805-26.545-43.805-59.285 19.635-59.26 43.805-59.26 43.818 26.526 43.818 59.26" data-name="Path"/><path fill="#c1c7cc" d="M809.43 813.308c2.107.005 4.21.217 6.276.634-21.225 4.174-37.579 28.812-37.579 58.651s16.272 54.522 37.58 58.646c-2.069.406-4.17.618-6.278.633-24.189 0-43.805-26.545-43.805-59.285s19.635-59.26 43.805-59.26" data-name="Path"/><path fill="#c1c7cc" d="m759.848 879.795 36.818-16.886a11.36 11.36 0 0 0 6.138-6.397l19.002-54.149 27.647 6.968-19.293 54.92a10.91 10.91 0 0 0 1.197 9.59l18.096 28.243-13.029 29.769-27.001-41.018a7.03 7.03 0 0 0-8.69-2.173l-37.94 17.4z" data-name="Path"/><path fill="#383b3e" d="M811.722 789.575c-32.778 0-59.348 35.951-59.348 80.307s26.57 80.301 59.348 80.301 59.348-35.95 59.348-80.3-26.602-80.308-59.348-80.308m-2.293 142.278c-24.189 0-43.805-26.545-43.805-59.285s19.635-59.26 43.805-59.26 43.818 26.526 43.818 59.26-19.635 59.285-43.818 59.285" data-name="Shape"/><path fill="#d0d4d8" d="M940.711 917.735h-62.18c8.59-65.24-9.74-127.273-74.03-130.598l89.384-6.683z" data-name="Path"/><path fill="#8a9097" d="M1267.539 914.504h212.242l10.818-2.78s-.57-3.218-3.496-3.218h-227.45a3.294 3.294 0 0 0-3.477 2.895z" data-name="Path"/><path fill="#595e62" d="M1321.256 820.972c-30.966-4.58-57.745-12.522-81.827-24.271l-2.78 21.225c23.378 7.6 51.304 12.737 83.024 15.309z" data-name="Path"/><path fill="#c1c7cc" d="M1239.847 797.493c23.828 11.54 50.304 19.375 80.827 23.904l-1.501 11.23c-31.29-2.534-58.905-7.601-82.011-15.088l2.685-20.072m-3.844 20.794c24.765 8.089 53.033 13.016 84.07 15.493l1.766-13.25c-29.585-4.327-57.423-12.136-82.84-24.608zM854.995 672.855c46.687-24.348 86.774-41.367 122.016-49.512v270.456l-87.243.78c2.033-60.806-13.39-98.417-65.556-114.13z" data-name="Shape"/><path fill="#383b3e" d="m1178.618 736.054-100.614 51.653-235.829-14.948-63.522-27.236 9.741-27.837c25.532-26.805 136.236-96.04 230.3-100.709s153.869 96.965 160.063 119.121" data-name="Path"/><ellipse cx="792.809" cy="768.35" fill="#c1c7cc" data-name="Oval" rx="7.278" ry="10.844"/></g><g stroke-width="0"><path fill="#b2b9c0" fill-rule="evenodd" d="M1327.004 725.065h-63.651c-6.203 0-11.25-5.048-11.25-11.25V564.74c0-6.203 5.047-11.25 11.25-11.25h63.65c6.203 0 11.25 5.047 11.25 11.25v149.075c0 6.202-5.047 11.25-11.25 11.25"/><path fill="#fff" fill-rule="evenodd" d="M1263.353 720.787a6.974 6.974 0 0 1-6.973-6.972V564.74a6.974 6.974 0 0 1 6.973-6.973h63.65a6.974 6.974 0 0 1 6.973 6.973v149.075a6.974 6.974 0 0 1-6.972 6.972z"/><path fill="#d1e4ff" d="M1259.916 573.639h70.237v36.853h-70.237z"/><g fill="#d1e4ff"><path d="M1259.916 685.4h45.649v7.443h-45.649zM1259.916 698.806h50.193v7.443h-50.193zM1259.916 671.994h64.186v7.443h-64.186z" data-name="Rectangle"/></g><path fill="#007bc0" d="M1264.69 645.385q.76 1.873 2.068 2.733 1.306.86 3.4.86 2.21 0 3.39-.91 1.03-.81 1.03-2.126-.001-1.334-1.046-1.974-.929-.591-3.442-1.181-2.851-.642-4.117-1.055c-1.266-.413-1.558-.599-2.143-.97q-2.8-1.788-2.8-5.298 0-3.78 2.7-5.787 2.378-1.77 6.41-1.771 5.872 0 9.195 4.42l-4.487 2.48q-.979-1.332-2.084-1.94c-1.105-.608-1.6-.607-2.59-.607q-3.864 0-3.864 2.665 0 1.166.937 1.797c.937.631 1.74.79 3.349 1.105q4.623.945 6.495 2.11 2.87 1.89 2.869 5.651 0 3.982-2.869 5.99-2.496 1.755-6.883 1.754-4.134 0-6.698-1.62-2.244-1.434-3.594-4.301zm30.825-17.53q3.409 0 6.142 1.637 2.666 1.62 4.167 4.47 1.535 2.903 1.535 6.547 0 6.074-3.796 9.684-3.29 3.138-8.267 3.138-5.652 0-9.01-3.981-2.901-3.476-2.901-8.706 0-3.678 1.569-6.63 1.535-2.886 4.268-4.505 2.784-1.654 6.293-1.654m-.253 4.454q-3.036 0-4.673 2.514-1.434 2.176-1.434 5.754 0 4.15 1.89 6.377 1.636 1.923 4.369 1.923 3.12 0 4.758-2.463 1.417-2.143 1.417-5.77 0-4.2-1.89-6.411-1.652-1.923-4.437-1.924m19.622 13.076q.759 1.873 2.067 2.733c1.308.86 2.005.86 3.4.86q2.21 0 3.39-.91 1.03-.81 1.03-2.126 0-1.333-1.046-1.974-.928-.591-3.442-1.181-2.851-.642-4.117-1.055c-1.266-.413-1.558-.599-2.142-.97q-2.801-1.788-2.801-5.298 0-3.78 2.7-5.787 2.378-1.77 6.41-1.771 5.872 0 9.196 4.42l-4.488 2.48q-.979-1.332-2.084-1.94c-1.105-.608-1.6-.607-2.59-.607q-3.863 0-3.863 2.666 0 1.164.936 1.796t3.349 1.105q4.623.945 6.496 2.11 2.868 1.89 2.868 5.651 0 3.982-2.868 5.99-2.498 1.755-6.884 1.755-4.134 0-6.698-1.62-2.244-1.434-3.594-4.302z"/></g></svg>