<svg xmlns="http://www.w3.org/2000/svg" viewBox="0 0 1920 1080"><g data-name="Ebene 2"><path fill="#232628" d="M0 0h1920v1080H0z"/><path fill="none" d="M983.97 174.66h109.29v147.81H983.97zm0 165.8h109.29v174.81H983.97zm127.29 0h109.29v174.81h-109.29zm0-165.8h109.29v147.81h-109.29z"/><path fill="#1a1c1d" d="M965.76 152.46v385h273v-385zm127.5 362.81H984V340.46h109.29zm0-192.81H984v-147.8h109.29zm127.28 192.81h-109.28V340.46h109.28zm0-192.81h-109.28v-147.8h109.28z"/><path fill="#43464a" d="M1175.75 275.17a86.46 86.46 0 0 0 82.49 86.37c-6.9-11-20.37-33.73-20.37-43.74a24.36 24.36 0 1 1 48.71 0c0 10-13.47 32.75-20.37 43.74a86.46 86.46 0 0 0 82.49-86.37z"/><path fill="#71767c" d="M1262.22 293.44a24.36 24.36 0 0 0-24.35 24.36c0 10 13.47 32.75 20.37 43.74l.94 1.49v-.6h6.09v.6c.29-.47.61-1 .94-1.49 6.9-11 20.37-33.73 20.37-43.74a24.36 24.36 0 0 0-24.36-24.36"/><path fill="#a4abb3" d="M1259.18 362.43v540.04h6.09V362.43z"/><path fill="#1a1c1d" fill-rule="evenodd" d="M1451.38 867.58c0 40-225.33 72.4-503.3 72.4s-503.29-32.42-503.29-72.4 225.33-72.4 503.29-72.4 503.3 32.41 503.3 72.4"/><path fill="#595e62" d="M1255.86 859.12h87.82l7.29-53.9h-102.4z"/><path fill="#43464a" d="M1245.88 785.26v19.96h107.78v-19.96zm15.96 73.86h75.85v7.98h-75.85zm-6.76-192.05a18.09 18.09 0 0 0-27.08 24c5.33 6 37.56 24.79 50 31.94l2.72-2.42c-5.57-13.25-20.32-47.51-25.64-53.52"/><path fill="#595e62" d="M1329.71 565.05a27.95 27.95 0 1 0-55.89 0c0 13 19.81 72.46 26.07 91h3.75c6.27-18.54 26.07-78.05 26.07-91"/><path fill="#a4abb3" d="M1373.15 613.63a18.08 18.08 0 0 0-25.52 1.54c-5.54 6.26-21.29 43.12-26.29 55l-17.58 20.91V656h-4v87.93l-19-23.36L1278 723l21.77 26.31v36h4v-88.6l22-26.25c13.15-7.57 43.73-25.47 48.9-31.31a18.07 18.07 0 0 0-1.52-25.52"/><path fill="#43464a" d="m982.26 814.95-8.55 26.15 6.44 28.78h14.42zm-10.65-47.55h-14.42l10.66 47.56 8.55-26.14zm6.76-136.2H869.45l-28.72 87.74 14.43-.05 24.17-73.85h95.83zM791.33 869.88h14.41l33.65-102.8-14.43.05z"/><path fill="#d0d4d8" d="M802.17 719.08a6 6 0 0 0-5.95 5.95v36.23a6 6 0 0 0 5.95 6l22.79-.08h14.43l101.15-.36a5.93 5.93 0 0 1-3.21-5.27v-38a5.93 5.93 0 0 1 2.58-4.9l-84.75.3-14.43.05z"/><path fill="#a4abb3" d="M1021.39 516.75a20.75 20.75 0 0 0-20.21 16.06l-22.81 98.39-3.21 13.8-7.6 32.8a15.57 15.57 0 0 0 15.16 19.08h164.78l42.5-180.13a21 21 0 0 1 2.26.13v-.13z"/><path fill="#56b0ff" d="M1033 456.83a34 34 0 0 1-10.8 1c-.31 2.78-.63 5.71-.91 8.62a57.2 57.2 0 0 0 11.71-9.62"/><path fill="#007bc0" d="M1069.26 408.41c-1.13-11.34-14.74-18.15-14.74-18.15-1.14-19.28-25-12.47-25-12.47s-18.14-9.08-27.22-4.55-2.27 17-5.67 21.56-4.54 11.33-4.54 11.34-1.75 15 10.29 21.66a122 122 0 0 1-2-17.65 33.9 33.9 0 0 0 16.68 1.66c13.61-2.26 26.09-11.34 26.09-11.34s0 15.88 1.13 21.55c.09.43.2.91.33 1.4 3.19-5 8.28-11.18 12-7.05 5 5.42-3.72 17.52-6.94 21.62.35.87.57 1.39.57 1.39s20.16-19.63 19.02-30.97"/><path fill="#b8d6ff" d="M1018.86 487.05H1059l-8.65-47.67s-.22-.52-.57-1.39c3.22-4.1 11.9-16.2 6.94-21.62-3.77-4.13-8.86 2-12 7.05-.13-.49-.24-1-.33-1.4-1.13-5.67-1.13-21.55-1.13-21.55s-12.48 9.08-26.09 11.34a33.9 33.9 0 0 1-16.68-1.66 122 122 0 0 0 2 17.65c.43 2.24 1 4.56 1.58 6.89 3.85 14.28 7 21.13 7 21.13a46.8 46.8 0 0 0 11.18 2 34 34 0 0 0 10.8-1 57.2 57.2 0 0 1-11.71 9.61c-1.27 10.65-2.48 20.62-2.48 20.62"/><path fill="none" d="m960.91 766.61 24.22-108.1h14.42l-24.23 108.1"/><path fill="#56b0ff" d="m948 584.68-75.9-41.21 2.19 31.74 28.44 12.5s41.81 33.69 50.54 34.89c19.26 2.63 20.75-14.92 20.75-14.92l-26-23z"/><path fill="#a4abb3" fill-rule="evenodd" d="m825.87 851.76 6.31 24h-76.06a25.86 25.86 0 0 1-20-9.42l-.15-.19 53.48-20.92z"/><path fill="#eff1f2" d="M968.29 667.61h.02zm9.01-136.5c-.49-5.87-1.09-11.67-1.07-17.1 0 5.43.58 11.23 1.07 17.1l4.08 66.1zm10.92-42.36 19.4-10.84zc-7.34 4.43-10.43 10.75-11.5 18.09 1.07-7.34 4.16-13.66 11.5-18.09"/><path fill="#a4abb3" fill-rule="evenodd" d="m922 849.47 2.35 30.53h-50.9a7 7 0 0 1-5.79-11l26-19.62z"/><path fill="#71767c" d="m948.32 580.71-26.7-69.27a7.14 7.14 0 0 0-6.56-4.57l-25.75-.32 21 .26a7.11 7.11 0 0 1 6.56 4.57l26.7 69.27a7.12 7.12 0 0 1-6.74 9.69L909.1 590l32.47.41a7.13 7.13 0 0 0 6.75-9.7m-53.25 9.1"/><path fill="#e0e2e5" d="m943.56 580.65-26.7-69.27a7.11 7.11 0 0 0-6.56-4.57l-21-.26-20.69-.27a7.13 7.13 0 0 0-6.74 9.7l26.7 69.27a7.11 7.11 0 0 0 6.49 4.56h.07l14 .17 27.72.35a7.12 7.12 0 0 0 6.71-9.68"/><path fill="#b8d6ff" fill-rule="evenodd" d="m872.1 543.47 29.63 1c.84 6.07-2.65 16.19-8.4 18.28l-19 12.45z"/><path fill="none" d="m976.4 788.82 7.01-21.42h-11.8z"/><path fill="#595e62" d="m983.41 767.4 16.33-49.86h-56.45a6 6 0 0 0-6 6v38a6 6 0 0 0 6 5.95h40.12zm160.11-20.51a35.6 35.6 0 0 0 3.39-15.2v-2.25a11.9 11.9 0 0 0-11.91-11.9h-120.85l-9.61 29.35z"/><path fill="none" d="m1014.15 717.54-9.61 29.35h139a35.6 35.6 0 0 0 3.39-15.2v-2.25a11.89 11.89 0 0 0-4.44-9.27l5.21-23.25h-.18l3.48-14.73 5.3-23.68h.28l3.18-13.47h-121.88z"/><path fill="#595e62" d="M1192.25 516.88a21 21 0 0 0-2.26-.13L1163 631.2l-3.26 13.8-3.18 13.47-5.56 23.72-3.48 14.73h14.57a14 14 0 0 0 12.55-10.79l33.85-146a19 19 0 0 0-16.24-23.25"/><path fill="#eff1f2" d="M1056 470.53h-35.14l-12.28 6.86L990.21 648c29.1 5 64.07 16 94 39.36l16.92-191.51z"/><path fill="#d0d4d8" d="m981.38 597.21-4.08-66.1c-.49-5.87-1.09-11.67-1.07-17.1a50.6 50.6 0 0 1 .49-7.17 33 33 0 0 1 .69-3.46L948 584.68l24.44 21.62 1.55 1.38 6.65-6.65.71-3.82zm15.64-12.53v-.04l-.01.05z"/><path fill="#e0e2e5" d="m1008.55 477.39-.93.52-19.4 10.84a22.84 22.84 0 0 0-10.81 14.63 33 33 0 0 0-.69 3.46 50.6 50.6 0 0 0-.49 7.17c0 5.43.58 11.23 1.07 17.1l4.08 66.1-.71 3.82-8.26 44.44c5.59.59 11.56 1.4 17.8 2.48l6.8-63.26v-.05l11.53-107.25z"/><path fill="#002742" d="M972.41 645.47c-25.23-2.68-42.77-1.1-42.77-1.1v.37c25.14 2.94 47.89 14.73 38.72 74.78H1022c12.88 4.3 36.5 6.45 47.23-4.29s15-27.92 15-27.92c-30-23.37-64.92-34.34-94-39.36-6.23-1.08-12.23-1.89-17.82-2.48"/><path fill="#001d33" d="M850.31 660.56 789.5 845.22l36.37 6.54c27.19-56.36 46.45-80.38 53.49-139.09l37.64 1.44 9.48-54.9z"/><path fill="#003253" d="m929.63 644.74-.6-.07-2.51 14.54-9.52 54.9-23.31 135.22 29.17 11.28c26.93-64.31 40.65-109.41 45.49-141.09 9.17-60.05-13.58-71.84-38.72-74.78"/><path fill="#e0e2e5" fill-rule="evenodd" d="m1085.28 487.23 15.87 8.43s16.09 109.37 8.91 231.45l-58.63-2.17s1.89-82.37 1.1-123.54c-1.36-71 12.08-126 12.08-126z"/><path fill="#eff1f2" d="m1140.57 627.7-26.11-115.81c-4.51-14.93-13.93-21.78-25.59-21-18.72 2.79-20.48 27.3-19.42 38.12 3.11 31.74 18.46 66.29 22.81 75.55 22.4-2.34 41.26 2.83 48.31 23.14m7.11 69.22-5.21 23.25a11.89 11.89 0 0 1 4.44 9.27v2.25a35.6 35.6 0 0 1-3.39 15.2h-139l9.61-29.35 23.73-72.5h121.86l3.28-13.84h-135l-28.26 86.34-16.33 49.86-7 21.42-8.56 26.18-18 54.92h14.41l9.43-28.78 8.57-26.14 15.21-46.44h125.06l23.38 104.31h14.41L1137 768.51h1.56a20.66 20.66 0 0 0 20.65-20.65v-1h-8.27l11.21-50h-1.09z"/><path fill="#fff" d="M820.38 341.99h105.5v111.65h-105.5z"/><path fill="#fff" fill-rule="evenodd" d="m925.88 482.77-29.13-29.13h29.13z"/><path fill="#56b0ff" fill-rule="evenodd" d="M864.27 420.23v7.91a7.74 7.74 0 0 0 15.47 0v-7.91z"/><path fill="#0096e8" fill-rule="evenodd" d="M904.27 414.43a22.59 22.59 0 0 1-9.2-18.2v-10.64a23.07 23.07 0 0 0-46.13 0v10.64a22.62 22.62 0 0 1-9.2 18.2V426h64.53z"/><path fill="#00629a" d="M839.74 414.43h64.54v11.61h-64.54z"/><path fill="#001d33" fill-rule="evenodd" d="M890.57 362.53a11.93 11.93 0 1 1-11.93 11.93 11.93 11.93 0 0 1 11.93-11.93"/><path fill="#eff1f2" d="M390.38 140.46h385.75v565.5H390.38z"/><path fill="#e0e2e5" d="M390.38 140.46h385.75V371.5H390.38z"/><path fill="#005587" d="M390.38 140.46h385.75v48.67H390.38z"/><path fill="#007bc0" fill-rule="evenodd" d="M695.58 251a23.28 23.28 0 1 1-23.28-23.28A23.28 23.28 0 0 1 695.58 251"/><path fill="#002742" fill-rule="evenodd" d="M493.81 251A10.87 10.87 0 1 1 483 240.14 10.86 10.86 0 0 1 493.81 251"/><path fill="#004975" fill-rule="evenodd" d="M539.34 251a10.87 10.87 0 1 1-10.87-10.86A10.87 10.87 0 0 1 539.34 251"/><path fill="#0096e8" fill-rule="evenodd" d="M582.8 251a10.87 10.87 0 1 1-10.87-10.86A10.87 10.87 0 0 1 582.8 251"/><path fill="#56b0ff" fill-rule="evenodd" d="M628.32 251a10.86 10.86 0 1 1-10.86-10.86A10.86 10.86 0 0 1 628.32 251"/><path fill="#eff1f2" d="m656.493 251.995 4.39-4.39 11.71 11.709-4.39 4.391z"/><path fill="#eff1f2" d="m663.733 259.314 19.82-19.82 4.392 4.391-19.82 19.82z"/><path fill="#fff" d="M463.21 311.17h238.81v330.81H463.21z"/><path fill="#001d33" d="M482.81 642.02h200.63v9.06H482.81z"/><path fill="#d0d4d8" fill-rule="evenodd" d="M684.9 480a101.3 101.3 0 1 1-101.3-101.3A101.31 101.31 0 0 1 684.9 480"/><path fill="#001d33" fill-rule="evenodd" d="M660.67 480a77.08 77.08 0 1 1-77.07-77.08A77.07 77.07 0 0 1 660.67 480"/><path fill="#d0d4d8" fill-rule="evenodd" d="M601.22 343a20.56 20.56 0 1 1-20.56-20.56A20.56 20.56 0 0 1 601.22 343"/><path fill="#001d33" fill-rule="evenodd" d="M596.3 343a15.64 15.64 0 1 1-15.64-15.64A15.63 15.63 0 0 1 596.3 343"/><path fill="#a4abb3" d="M617.85 473.64h69.49v13.21h-69.49z"/><path fill="#eff1f2" d="M472.76 322.18h75.85v43.55h-75.85z"/><path fill="#b8d6ff" d="m1012.37 619.09-24.15-12.91-15.44 5.95 2.89 3.93 10.11-1.26 2.66 2.65z"/><path fill="#43464a" d="M962.57 602.68h30.81v46.23h-30.81z"/><path fill="#b8d6ff" d="M1076.34 602c-22.4 3.33-46.24 11-64 17.1l-29.57-2s4.82 32.85 4.78 32.86c8.81 1.58 30.54-5.37 30.54-5.37s123.39-12.08 123.28-12.86a41 41 0 0 0-2.75-10.29c-8.81-20.97-34.43-23.6-62.28-19.44"/><path fill="#56b0ff" d="m982.8 617.06-26.34 8.76s-.41 6.46 6.9 14c7 7.29 23.26 9.67 24.22 10.07z"/></g></svg>