<svg xmlns="http://www.w3.org/2000/svg" viewBox="0 0 330.166 549.805"><g data-name="Ebene 2"><path fill="#101112" d="m0 175.718 6.41-10.087 148.05 94.08-6.409 10.087zm323.466-7.535 6.7 9.897-145.256 98.339-6.7-9.896z"/><path fill="#101112" d="m290.218 161.15 11.891 1.194-3.634 36.212-11.891-1.194z"/><circle cx="168.737" cy="251.112" r="106.327" fill="#eff1f2"/><circle cx="168.737" cy="414.815" r="134.99" fill="#eff1f2"/><circle cx="168.737" cy="115.339" r="74.069" fill="#eff1f2"/><circle cx="168.737" cy="211.788" r="9.472" fill="#101112"/><circle cx="168.737" cy="255.113" r="9.472" fill="#101112"/><circle cx="168.737" cy="298.439" r="9.472" fill="#101112"/><path fill="#101112" d="m24.795 159.066 10.716-5.29 21.839 44.227-10.716 5.291z"/><path fill="#007a42" d="M122.147 249.1v-92.362h25.943V249.1z"/><path fill="#005f32" d="M94.185 143.812H245.22v25.943H94.185z"/><path fill="#007a42" d="M122.147 244.202h2.866v16.617h-2.866zm23.076 0h2.866v16.617h-2.866zm-5.769 0h2.866v16.617h-2.866zm-5.769 0h2.866v16.617h-2.866zm-5.769 0h2.866v16.617h-2.866z"/><path fill="#006c3a" d="m215.836 112.026-49.902-9.512q-8.786 9.512 0 19.024z"/><path fill="#383b3e" d="M112.635 0h110.183v51.443H112.635z"/><path fill="#232628" d="M102.68 47.683h130.093v20.402H102.68z"/></g></svg>