<svg xmlns="http://www.w3.org/2000/svg" viewBox="0 0 1920 1080"><path fill="#b2b9c0" d="M0 950h1920v130H0z"/><path fill="#c1c7cc" d="M49.716 94.717H177.88v621.047H49.716zM1562.873 451.269h-497.13V182.73h497.13z"/><path fill="#fff" d="m1360.693 311.711-89.021-51.396v102.792z"/><path fill="#eff1f2" d="M1562.873 451.27h-497.13v-28.956h497.13zM1857.639 133.996h-856.386v-48.6c0-16.21 13.16-29.37 29.37-29.37h797.647c16.21 0 29.37 13.16 29.37 29.37zm-856.387 535.375h856.386v3.623c0 16.21-13.16 29.37-29.37 29.37h-797.647c-16.21 0-29.37-13.16-29.37-29.37z"/><path fill="#8a9097" d="M1816.15 68.439c20.476 0 37.134 16.658 37.134 37.134v557.441c0 20.476-16.658 37.134-37.134 37.134h-772.341c-20.476 0-37.134-16.658-37.134-37.134V105.573c0-20.476 16.658-37.134 37.134-37.134zm0-17h-772.341c-29.897 0-54.134 24.237-54.134 54.134v557.441c0 29.897 24.237 54.134 54.134 54.134h772.341c29.898 0 54.134-24.237 54.134-54.134V105.573c0-29.897-24.237-54.134-54.134-54.134"/><path fill="#c1c7cc" d="M794.909 95.011h147.848v147.848H794.909z"/><path fill="#c1c7cc" d="M741.2 95.011h53.709v53.709zM177.879 286.545v53.709h53.709z"/><circle cx="461.358" cy="189.535" r="34.683" fill="#eff1f2"/><circle cx="431.456" cy="273.225" r="13.32" fill="#eff1f2"/><circle cx="552.993" cy="189.535" r="34.683" fill="#eff1f2"/><circle cx="644.628" cy="189.535" r="34.683" fill="#eff1f2"/><path fill="#eff1f2" d="M406.699 659.015h292.589v13.554c0 16.21-13.16 29.37-29.37 29.37h-233.85c-16.21 0-29.37-13.16-29.37-29.37v-13.554Zm292.588-526.363H406.698V85.365c0-16.21 13.16-29.37 29.37-29.37h233.85c16.21 0 29.37 13.16 29.37 29.37z"/><path fill="#8a9097" d="M714.456 232.982a2.3 2.3 0 0 0-.783.139V104.183c0-28.819-23.262-52.183-51.957-52.183H444.274c-28.697 0-51.96 23.363-51.96 52.183v69.826a2.304 2.304 0 0 0-2.787 2.252v19.264a2.304 2.304 0 0 0 2.304 2.304q.249 0 .483-.051v19.712a2.304 2.304 0 0 0-2.787 2.253v40.788a2.304 2.304 0 0 0 2.304 2.304q.249 0 .483-.051v12.619a2.305 2.305 0 0 0-2.787 2.253v40.788a2.304 2.304 0 0 0 2.304 2.304q.249 0 .483-.051v342.89c0 28.819 23.262 52.183 51.96 52.183h217.442c28.695 0 51.957-23.363 51.957-52.183v-357.64a2.304 2.304 0 0 0 3.087-2.165v-68.491a2.304 2.304 0 0 0-2.304-2.304Zm-15.169-130.62v563.001c0 17.665-18.022 36.576-36.418 36.576H443.116c-16.461 0-36.418-18.076-36.418-36.576V102.362c0-18.491 18.232-36.584 36.426-36.584H662.86c18.404 0 36.426 18.51 36.426 36.584Z"/><path fill="#8a9097" d="M597.1 88.656c0 7.092-5.752 12.84-12.844 12.84h-62.367a12.8 12.8 0 0 1-9.083-3.761 12.8 12.8 0 0 1-3.761-9.079c0-7.092 5.752-12.84 12.844-12.84h62.367c3.546 0 6.759 1.438 9.082 3.761s3.761 5.532 3.761 9.079Z"/><circle cx="582.66" cy="88.787" r="3.618" fill="#fff"/><path fill="#eff1f2" d="M406.699 295.323h292.589v292.589H406.699zM461.358 267.222h92.517v12.006h-92.517zM428.246 602.683c2.667-3.177 7.284-3.689 9.887-.14 2.219 3.025.913 5.894-1.012 8.58-.868 1.21-7.539 8.138-8.47 8.221-.773.068-3.381-2.326-4.089-2.973-2.288-2.089-7.003-7.025-7.071-10.173-.126-5.757 7.78-8.546 10.755-3.514Zm76.036-1.411c.065.409-.021.73-.158 1.112-.78 2.178-7.551 12.779-9.221 15.061-.722.987-1.105 1.491-1.638.043-.323-.877-1.535-6.62-1.426-7.313.191-1.212 4.018-3.225 4.811-4.386l-6.303 1.931c-1.763-1.539-3.337-3.272-5.003-4.91-.544-.535-1.122-.274-.85-1.538zm178.497-.847v18.621l-1.286-.268-6.77-6.78-6.77 6.78-1.286.268v-18.198c0-.03.394-.423.424-.423h15.689Zm-222.659-.202c6.766-.713 11.492 5.357 10.112 11.783-.135.63-.676 1.278-.713 1.839-.069 1.067 2.258 5.092.952 5.471-.649.188-3.638-1.581-4.542-1.61-.527-.017-2.214.939-3.347 1.055-13.244 1.351-14.348-17.286-2.463-18.538Z"/><path fill="#c1c7cc" d="M424.799 322.742h177.83v24.34h-177.83zM424.799 371.196h114.647v12.17H424.799zM424.799 415.951h114.647v12.17H424.799zM424.799 393.574h154.427v12.17H424.799z"/><path fill="#56b0ff" d="M330.857 346.434h-13.513c-6.142 5.416-8.655 1.787-12.508-8.208-2.569-6.701-3.909-13.848-4.523-17.98 3.015-3.35 7.762-7.427 4.523-15.467 0 0 8.376 6.198 16.808 3.909 8.376-2.289 9.716-4.02 13.011-3.071 3.295.893 5.528 3.63 6.757 5.528.056.391.112.782.223 1.173 0 0 .056 3.35-.391 8.32-.503 6.086-1.508 12.229-3.071 18.148-.223.614-.335 1.34-.558 1.954v-.056c-1.228 5.696-3.462 10.051-6.757 5.751Z"/><path fill="#56b0ff" d="M294.953 342.247c-4.076-6.31-10.051-17.143-6.142-21.498 3.63-3.965 7.203.056 9.213 3.406.726 1.117 2.066 2.68 2.624 3.853l1.675 10.051v3.909l-1.675-2.234c-.279 3.295 1.061 12.564 1.117 13.96.503 7.706 4.858 13.066 11.782 13.066h8.599a17083 17083 0 0 1 2.513 20.996h-37.971l7.482-41.768z" data-name="Path"/><path fill="#0096e8" d="m385.081 495.776 54.499-16.975 24.904-10.163 11.559 18.259s-11.112 3.797-20.996 6.533c-9.828 2.792-18.036 5.026-18.036 5.026s-47.687 31.549-64.215 40.093l-1.005-28.757z" data-name="Path"/><path fill="#a4abb3" d="m371.791 508.368.223-80.297c.223-2.066.223-4.244.056-6.366l13.457 73.987-.112.112-13.513 14.016-.112-1.452Z" data-name="Path"/><path fill="#002742" d="M333.873 563.649h20.381l5.416 37.189v-.056l-4.02 146.299-6.422 174.609h-35.29c-8.264-100.343-12.061-86.104-1.508-160.035 4.355-30.544.223-59.58-5.807-87.053 6.477-26.914 13.736-53.661 19.655-68.235 5.807-14.406 7.259-33.783 7.594-42.717Z" data-name="Path"/><path fill="#003e64" d="M236.154 922.136c0-139.542-18.929-134.628 14.853-194.432 4.076-7.315 4.69-18.148 4.355-30.991-.223-6.533-.335-12.675-.558-18.427l1.005-58.464s-.056-7.594-.112-18.985h35.96l3.406-36.854h39.311c-.391 8.934-1.899 28.255-7.817 42.829-6.031 14.686-13.234 41.321-19.823 68.291-10.107 41.6-18.65 83.87-18.65 83.87l-28.087 163.33-6.031.558-17.813-.726Z" data-name="Path"/><path fill="#006ead" d="m346.213 504.85 8.711 59.748h-59.636l5.584-60.865c-3.406-72.423-20.27-125.917-20.325-126.029l8.543-5.026h35.96l20.66 12.508-.67-.391z" data-name="Path"/><path fill="#003253" d="M325.832 365.996h-37.58v7.65h37.58z" data-name="Path"/><path fill="#383b3e" d="M291.714 601.061h-24.011l4.746-143.507a7238 7238 0 0 0 5.026-24.513c3.63-18.092-.949-43.555-15.691-44.28h-.056l18.929-11.056c0 .112 16.863 53.55 20.27 125.973l-5.64 60.809-3.574 36.575Zm-9.269-11.112a3.233 3.233 0 0 0 3.239-3.35c0-1.731-1.452-3.183-3.183-3.183-1.787 0-3.295 1.452-3.295 3.239s1.452 3.295 3.239 3.295Zm-.168-12.508c1.899 0 3.406-1.731 3.015-3.741-.279-1.117-1.173-2.122-2.345-2.345-2.01-.391-3.741 1.061-3.741 3.015a3.06 3.06 0 0 0 3.071 3.071"/><path fill="#232628" d="m254.302 524.338 2.848.67s8.041-34.118 15.579-67.677l-4.97 143.73h-12.62c-.223-20.214-.503-52.712-.838-76.723Z" data-name="Path"/><path fill="#383b3e" d="m345.543 504.627-1.117-120.11.67.391 7.147 4.188c13.401 8.097 21.051 23.062 19.767 38.752l-.279 80.073.056 1.396 1.005 28.701 2.122 63.657h-15.188v.056l-5.361-37.301z" data-name="Path"/><path fill="#56b0ff" d="M255.324 524.115c.335 23.955.614 56.342.726 76.667.056 11.447.112 19.041.112 19.041l7.817 29.706-28.255 4.523c-2.513-8.543 2.513-31.437 2.066-33.113-7.817-29.092-23.843-77.505-18.259-105.871z" data-name="Path"/><path fill="#0096e8" d="m264.035 649.474 8.823 25.909c-5.863 4.746-17.198 3.741-22.056-.893-4.3-4.076-15.021-20.493-15.021-20.493z" data-name="Path"/><path fill="#56b0ff" d="m256.161 619.711 22.224 27.082-3.35 5.64-13.345-8.32z" data-name="Path"/><path fill="#383b3e" d="M261.505 388.537c14.797.726 19.32 26.244 15.691 44.392-1.619 7.817-3.295 16.138-5.081 24.569-6.98 33.448-14.462 67.621-14.462 67.621l-2.68-.67-35.793-9.158-10.274-2.624 29.595-99.338c5.584-16.473 11.615-23.62 22.782-24.681z" data-name="Path"/><path fill="#003253" d="M288.405 300.311s0-5.193 8.208-11.95 17.31-2.234 24.793-2.959c7.482-.726 15.97-3.015 21.945 0 5.361 2.68 1.228 10.051.726 15.356 2.345 4.076 5.569 13.522-2.863 20.223.391-4.858.422-8.053.422-8.053l-.128-1.17c-1.228-1.843-3.35-4.467-6.645-5.416-3.239-.893-4.467.726-12.787 3.015-8.208 2.289-16.528-3.741-16.528-3.741 3.127 7.817-1.452 11.726-4.411 15.021.614 3.909 1.954 10.944 4.411 17.422 3.741 9.716 6.31 13.178 12.229 7.929h13.178c3.295 4.132 5.361-.056 6.701-5.584v.056c.223.614 1.452 4.69 1.452 8.153 0 3.741-4.467 8.99-4.467 11.224v6.645h-20.996c-6.757 0-14.518-4.411-14.965-11.838-.056-1.396-.056-3.462.056-5.919.112-3.015.391-6.477.614-9.66l.949-10.554c-.558-1.117-1.061-2.289-1.731-3.35-2.01-3.239-5.472-7.203-9.046-3.35-3.909 4.188 1.41 14.295 5.431 20.437l-.759 3.631s-11.931-19.601-12.88-34.175c-.335-7.036 7.092-11.391 7.092-11.391Z" data-name="Path"/><path fill="#595e62" d="m396.112 940.615-.112.223c-4.467 5.416-11.056 8.543-18.036 8.543H309.17l5.64-27.696h33.001l48.301 18.929ZM236.448 921.69h-.056l17.757.558 5.919.056L263.642 950h-46.458a6.446 6.446 0 0 1-6.477-6.477c0-1.34.391-2.624 1.117-3.685z" data-name="Shape"/><path fill="#fff" d="M282.11 571.243c-1.787 0-3.295 1.452-3.239 3.295 0 1.731 1.452 3.183 3.183 3.183 1.787 0 3.295-1.452 3.295-3.239s-1.452-3.239-3.239-3.239m.391 12.229c-1.787 0-3.295 1.452-3.239 3.295 0 1.731 1.452 3.183 3.183 3.183 1.787 0 3.295-1.452 3.295-3.239s-1.452-3.239-3.239-3.239" data-name="Path"/><path fill="#c1c7cc" d="M226.652 476.18 410.68 369.93l106.25 184.03L332.9 660.207z"/><g data-name="Group"><path fill="#eff1f2" fill-rule="evenodd" d="m331.143 551.302 11.342-42.785 43.061 11.375z" data-name="Path-9"/><path fill="#fff" fill-rule="evenodd" d="m358.369 535.583 10.319-59.409 56.996 20.545z"/><circle cx="314.544" cy="503.095" r="9.716" fill="#fff"/></g><path fill="#56b0ff" fill-rule="evenodd" d="m458.673 418.467-29.483 1.005c-.838 6.086 2.68 16.305 8.376 18.371l19.376 12.452z" data-name="Path"/><path fill="#c1c7cc" d="M1609.919 133.996h243.16V669.37h-243.16z"/><path fill="#fff" d="M1822.307 291.205h-174.778V182.731h174.778zM1822.307 421.625h-174.778V313.151h174.778zM1822.307 552.046h-174.778V443.572h174.778zM1822.307 669.476h-174.778v-95.367h174.778z"/><path fill="#43464a" d="m1463.729 633.329 1.326-10.094h-32.75l-1.676 10.094-2.967 17.959h57.526v-5.875h-23.045z"/><path fill="#b8d6ff" d="m1408.175 911.403.074.203a24.47 24.47 0 0 0 13.327 16.108l50.498 23.623 6.898-28.698-13.262-6.235zm179.233-7.654-14.819 4.605-37.76 40.21.203.064a24.2 24.2 0 0 0 20.842-.543l45.064-23.494-13.529-20.842Z" data-name="Path"/><path fill="#656a6f" d="M1672.728 737.327c-24.807 0-46.388-1-64.589-1.804a19.52 19.52 0 0 0 5.659 12.17 19.53 19.53 0 0 0 13.848 5.696h3.454l-10.932 196.925h12.387l10.895-196.925 47.044.479 37.539-.111 10.895 197.027h12.525l-11.015-197.395h3.592c10.621-.025 19.215-8.64 19.22-19.258h-61.398c-8.143 2.09-17.802 3.196-29.125 3.196Zm90.523-3.196v-.028z"/><g fill="#8a9097" fill-rule="evenodd"><path d="M1775.695 662.672h-11.393l5.213 100.885h-28.508l.635 11.383h28.462l9.109 176.397h11.383zM1728.576 763.557h-36.986l.5-9.694-1.596.005-9.77-.1h-.019l-10.206 197.569h11.393l9.109-176.397h38.204z"/></g><path fill="#383b3e" d="m1465.055 623.235-1.326 10.094h-33.1l1.676-10.094z" data-name="Path"/><path fill="#8a9097" d="M1332.93 651.289v11.383h47.237l-14.902 288.665h11.383l9.109-176.397h80.642l9.109 176.397h11.393l-14.902-288.665h50.59v-11.383zm53.418 112.231 5.213-100.848h69.074l5.176 100.848z" data-name="Shape"/><path fill="#b8d6ff" d="M1653.831 442.36c2.396 1.263 5.352 2.418 8.932 3.374 2.398-3.45 5.934-6.782 9.173-3.278 2.738 2.99 1.076 8.151-1.386 12.702q.368.779.782 1.518l.115.205a25 25 0 0 0 1.826 2.762l.134.176q.5.645 1.036 1.253l.074.081q.52.58 1.07 1.126l.122.123q.572.559 1.174 1.082l.165.14q.589.504 1.205.974l.056.044a28 28 0 0 0 1.527 1.075 31 31 0 0 0 2.744 1.609l.262.136q.698.356 1.416.679l.172.075q.66.291 1.333.556l.265.105q.724.278 1.462.525l.292.095q.678.221 1.366.417l.198.058a37 37 0 0 0 1.858.465q.774.177 1.555.323c.398.073.784.124 1.166.165l.284.028c.368.032.731.054 1.085.057h.024a12 12 0 0 0 1.307-.066c.337-.034.67-.077.993-.138l.016-.003a11 11 0 0 0 1.17-.295 11 11 0 0 0 1.961-.818q.427-.227.833-.489c10.338-6.722 10.339-29.902 10.339-29.902l-.228.038c.055-6.033-.622-11.507-1.523-14.859-6.152-23.55-34.749-20.575-47.67-16.246-6.502 2.164-19.875 8.473-17.932 23.725.379 2.97 2.893 7.053 9.248 10.404Z"/><path fill="#c1c7cc" d="M1656.509 651.288H1522.58v11.383h137.286a931 931 0 0 0-3.357-11.383m78.307 0-.732 9.403-.138 1.63s-.097.13-.323.35h88.683v-11.383z"/><path fill="#b2b9c0" d="M1553.405 501.37h-168.633a9.47 9.47 0 0 0-9.468 9.468v102.929a9.47 9.47 0 0 0 9.468 9.468h168.633a9.47 9.47 0 0 0 9.468-9.468V510.838a9.47 9.47 0 0 0-9.468-9.468M1422.87 606.553h-24.669v-86.127h24.669zm121.586 0h-116.858v-85.628h116.858z"/><path fill="#232628" d="m1472.381 890.772-6.635 25.788 8.164 3.83zM1714.2 668.216c-9.623.502-18.423.228-26.011-.391-5.695 1.412-13.55 3.005-25.306 4.913-79.067 6.806-143.674 36.029-143.674 36.029l-37.339 145.122 3.061 59.291c25.862-41.836 53.919-85.852 61.908-130.163 2.634-14.892 3.113-29.785.405-44.603 7.239-3.518 19.562-4.2 36.48-3.794 22.104.479 51.98 2.708 89.004 2.708 59.763 0 73.264-30.742 61.218-75.005 0 .001-3.759 5.056-19.746 5.894Z"/><path fill="#56b0ff" d="M1638.182 624.147c-15.657 1.234-46.574 6.778-63.594 10.205l-7-4.144h-28.633s10.131 10.84 15.657 15.546c6.631 5.673 22.104 5.673 27.943 5.673h63.548c15.245.025 27.63-12.302 27.676-27.547v-.414c-5.673-.111-30.475.286-35.596.682Z" data-name="Path"/><path fill="#656a6f" d="M1554.612 645.753c-1.739-1.481-3.935-3.57-6.127-5.738h-63.297v11.273h90.327c-7.013-.337-16.19-1.503-20.903-5.535"/><path fill="#0096e8" d="m1736.961 623.727-2.044 26.264c15.318-2.503 26.016-9.993 26.769-26.342 0 .062-11.042.109-24.725.077Z"/><path fill="#00629a" d="M1548.485 640.016c-4.773-4.719-9.53-9.809-9.53-9.809l-10.766 9.809z"/><path fill="#101112" d="M1687.483 667.768c-.453-.039-.897-.08-1.341-.121-.313-.029-.628-.057-.936-.087-.412-.04-.814-.082-1.218-.124-.33-.034-.662-.068-.987-.103-.37-.04-.731-.082-1.093-.124-.342-.039-.687-.078-1.022-.118-.331-.04-.652-.081-.976-.121-.355-.044-.711-.089-1.057-.134-.291-.038-.572-.077-.857-.116-.365-.05-.73-.099-1.085-.149-.255-.036-.501-.073-.751-.109-.37-.054-.74-.108-1.099-.163l-.642-.1a136 136 0 0 1-1.634-.263c-.39-.065-.776-.129-1.15-.194a176 176 0 0 1-1.882-.337 112 112 0 0 1-1.147-.216l-.215-.042a157 157 0 0 1-2.395-.484l-.039-.008a129 129 0 0 1-3.008-.673l-2.923-.749s-94.631 7.331-131.719 32.235l1.844 8.778c21.652-8.477 73.071-26.373 132.731-31.508 11.756-1.908 19.612-3.501 25.306-4.913l.083.006-.79-.064Z"/><path fill="#004975" d="M1638.378 624.133c5.501-.391 29.786-.777 35.398-.668.327-5.092 3.676-58.368 2.387-82.962-.424-8.132-5.903-25.511-23.329-25.374-16.946.139-16.062 17.444-16.062 25.374 0 15.784.928 56.204 1.605 83.63Z"/><path fill="#001d33" d="M1634.784 589.693c.988 2.691 1.98 5.416 2.969 8.144-.385-16.93-.744-34.429-.899-46.845-.305.425-.619.844-.919 1.272-5.526 8.528-7.442 16.854-3.242 31.139.534 1.962 1.28 4.062 2.091 6.29m41.674-38.875-.015-.019c.227 26.739-2.381 68.205-2.667 72.667l-.183-.003.185.003v.414c-.035 11.758-7.414 21.774-17.781 25.732 1.879 6.115 4.03 13.622 4.03 13.622s11.512 3.352 29.472 4.697z"/><path fill="#003253" d="M1729.479 509.355v-.028c-4.338-.811-14.625-5.213-17.664-8.289-3.933-4.135-3.997-5.351-3.997-5.351l-36.416 1.897s.138 3.316-3.859 11.3q-.061.116-.124.231l-19.866 6.743h.002a16 16 0 0 1 1.189-.302l.006-.001q.606-.13 1.253-.223c.094-.013.194-.02.289-.032a19 19 0 0 1 2.542-.173q.767-.004 1.504.035c.198.01.39.031.585.046.281.022.563.043.837.074.252.028.497.066.742.102.2.03.4.058.596.093q.428.076.846.168.203.044.404.091.48.114.944.248l.198.06c12.203 3.662 16.309 17.468 16.673 24.456.159 3.041.248 6.522.28 10.296l.015.019 13.041 117.109c7.285.545 15.626.762 24.701.289 15.988-.838 19.746-5.894 19.746-5.894l.138-1.63 9.265-119.056c1.087-16.311 2.174-29.168-13.87-32.281Z"/><path fill="#004975" d="m1743.35 541.636-6.387 82.078h24.724l-13.87-92.743c-1.479-5.918-3.56-10.401-6.295-13.749 3.136 5.947 2.486 14.546 1.828 24.414"/><path fill="#00629a" d="M1663.399 479.635a43 43 0 0 0 10.564 1.897l.332-3.177-10.895 1.28Z" data-name="Path"/><path fill="#56b0ff" d="m1704.281 484.24-2.684-15.04c-2.364 1.537-5.268 2.215-8.837 1.556-9.352-1.726-18.041-6.725-22.21-15.6 2.462-4.551 4.124-9.712 1.386-12.702-3.239-3.503-6.775-.172-9.173 3.278-3.58-.956-6.536-2.11-8.932-3.374a112 112 0 0 0 2.936 17.235c.203.921.47 1.695.672 2.505 3.325 11.844 5.959 17.499 5.959 17.499.031.01.062.016.093.026l10.802-1.269-.332 3.177h-.004c-.266 2.422-.578 5.069-.852 7.617l-.975 8.398 34.212-1.782z"/><path fill="#8a9097" d="M1375.305 613.768V510.839a9.47 9.47 0 0 1 9.468-9.468h-6.539a9.47 9.47 0 0 0-9.468 9.468v102.929a9.47 9.47 0 0 0 9.468 9.468h6.539a9.47 9.47 0 0 1-9.468-9.468"/><path fill="#fff" d="m1471.937 571.76-2.854 2.283-8.223-10.278 8.223-10.279 2.854 2.284-6.397 7.995z"/><path fill="#101112" d="M1556.15 735.786c-.264.046-.536.089-.795.138-.175.033-.341.071-.513.105-.495.099-.989.2-1.461.31l-.064.016q-.876.205-1.697.437l-.152.046q-.734.21-1.423.441c-.354.12-.694.248-1.03.378-.127.048-.26.094-.385.143q-.722.29-1.387.614c2.708 14.819 2.229 29.711-.405 44.603-.04.224-.089.447-.13.671l25.881 124.685 14.948-4.338c1.62-53.19 12.122-123.802-4.039-169.42-11.186-.262-20.344-.038-27.348 1.171"/><path fill="#fff" d="M1391.037 520.425h160.582v86.127h-160.582z"/><path fill="#c1c7cc" d="M1411.834 533.75h77.972v10.672h-77.972zM1411.834 554.996h50.269v5.336h-50.269zM1411.834 574.62h50.269v5.336h-50.269zM1411.834 564.808h67.711v5.336h-67.711zM1065.743 471.709h235.41v24.34h-235.41zM1065.743 520.164h181.029v12.17h-181.029zM1065.743 587.297h181.029v12.17h-181.029zM1065.743 564.919h114.647v12.17h-114.647zM1065.743 542.542h187.522v12.17h-187.522zM575.795 446.853l-3.82 20.911 22.854 5.161 5.965-15.482z"/><path fill="#002742" d="m601.531 455.365-.804 2.011-5.965 15.549-1.34 3.485c46.111 34.114 95.774 69.703 119.5 29.892.469-.603-111.39-50.937-111.39-50.937Z"/><path fill="#56b0ff" d="M698.713 367.5c3.485 1.072 7.037 1.743 10.656 1.944l-.402 3.82c-11.461.134-24.128-2.681-24.128-2.681 1.944-2.882 5.161-15.549 7.104-23.458v.134c3.686 13.672 6.769 20.241 6.769 20.241Z"/><path fill="#c1c7cc" d="M719.62 368.505c-3.284 3.552-7.101 6.568-11.189 9.115.134-1.474.332-2.882.533-4.356.134-1.273.268-2.614.402-3.82 3.418.201 6.903-.134 10.254-.938Z"/><path fill="#56b0ff" d="M688.324 309.191c.603-.402 1.273-.804 1.876-1.139s17.359-7.305 34.784-.201c16.823 6.903 27.613 26.474 27.613 26.474.603 5.228.938 10.455.938 15.683 0 13.605 2.078 21.715 2.078 21.715s-4.155 1.072-14.209 0l-1.541-.134c-5.63-.536-11.394-.938-11.394-.938a38.75 38.75 0 0 0 6.233-17.627c.024-.491.067-1.005.067-1.474 1.81-2.212 12.595-16.048 7.525-21.651-4.021-4.356-8.468 1.688-10.68 5.643-1.206-5.496-1.637-11.164-1.235-16.727 0 0-4.112.727-8.2-3.362 0 0-8.052 8.953-18.91 8.953a26.56 26.56 0 0 0-14.343 4.222c.201 2.145.402 4.625.804 7.305l-4.222-4.289c-.134-.201-13.539-11.595 2.815-22.452Z"/><path fill="#003e64" d="M724.985 307.85c-17.359-7.104-34.047-.134-34.784.201h-.067l11.729-15.147 8.11-2.681s9.651-7.64 12.131-8.78c6.367-3.016 15.08-2.078 15.08-2.078s8.177 5.429 10.858 10.857c2.748 5.429 2.748 14.209 2.748 14.209l3.351 8.445-1.541 21.447s-10.791-19.57-27.613-26.474Z"/><path fill="#dfe1e4" d="M703.136 324.338c10.858 0 19.034-8.981 19.034-8.981 4.088 4.088 8.244 3.418 8.244 3.418-.402 5.63.067 11.193 1.206 16.688 2.279-3.954 6.702-9.986 10.656-5.63 5.295 5.764-5.63 19.503-7.507 21.715 0 .469-.067 1.005-.067 1.474a38.75 38.75 0 0 1-6.233 17.627s5.697.335 11.26.871l4.692 25.87h-38.337s1.14-9.584 2.346-19.771c4.088-2.547 7.842-5.63 11.193-9.115a31.4 31.4 0 0 1-10.321.938 44 44 0 0 1-10.656-1.944s-3.083-6.568-6.769-20.241v-.134c-1.005-3.753-1.743-7.573-2.279-11.394-.402-2.681-.67-5.161-.804-7.305 4.289-2.614 9.249-4.088 14.343-4.088Z"/><path fill="#002742" d="M687.497 400.197c-9.919 2.279-17.895 10.187-19.369 20.241l-1.676 18.23c15.08-23.324 21.045-38.47 21.045-38.47Zm51.536 140.136h21.648l20.509-107.101c.067-.469.134-1.005.201-1.474l.067-.469c0-.335.067-.67.067-1.005 0-.201 0-.402.067-.603 0-.268.067-.603.067-.871v-4.759c0-.268 0-.469-.067-.737l-.067-.603c0-.268-.067-.469-.067-.737 0-.201-.067-.402-.067-.603s-.067-.469-.067-.737c-.067-.268-.067-.402-.067-.603s-.067-.469-.134-.67-.067-.402-.067-.536-.067-.469-.134-.67-.067-.335-.134-.536-.134-.469-.201-.67-.067-.335-.134-.536-.134-.469-.201-.67-.067-.335-.134-.469-.134-.469-.268-.67l-.134-.469c-.067-.268-.201-.469-.268-.737-.067-.134-.134-.268-.134-.402-.134-.268-.268-.603-.402-.871l-.067-.201c-.201-.335-.335-.67-.536-1.005l-.134-.268a4.5 4.5 0 0 0-.469-.737c-.067-.134-.134-.268-.268-.335-.067-.134-.268-.402-.402-.603l-.268-.402c-.134-.201-.268-.335-.402-.536s-.201-.268-.335-.402-.268-.335-.469-.469c-.134-.134-.268-.268-.335-.402s-.335-.335-.469-.469-.268-.268-.402-.335l-.469-.469-.402-.335c-.201-.134-.335-.268-.469-.402l-.469-.335-.536-.402-.469-.335-.603-.402-.469-.268c-.201-.134-.402-.268-.603-.335l-.469-.268-.67-.335-.536-.268c-.201-.134-.469-.201-.737-.335l-.536-.201-.737-.268-.201-.067-26.943 139.405h.002Z"/><path fill="#003e64" d="m739.116 540.347 27.155-139.538v-.134c-.871-.268-20.039-6.635-20.039-6.635l-3.686-9.048h-36.728l-3.284 9.048-12.667 5.161-2.413 1.005s-5.965 15.08-21.045 38.336l-.469.737c-6.769 8.914-9.718 18.23-5.496 36.46 1.408 6.032 2.815 12.399 4.222 18.699 4.222 19.034 2.279 45.374 2.279 45.374z"/><path fill="none" d="M687.386 920.094v.134c-.402-.067 0-.134 0-.134"/><path fill="#2f3134" d="M693.15 539.812h-20.039l-6.635 14.008c-.469 3.083-3.418 32.573-3.351 35.656l5.496 157.702 13.672 129.218h36.46c3.753-50.132 2.547-61.861-13.672-123.923-6.3-24.061 4.088-63.336 14.343-103.884-6.233-23.927-12.667-46.044-17.895-58.912-8.378-20.308-8.378-49.864-8.378-49.864Z"/><path fill="#e0e2e5" d="M687.386 920.429s-.402-.067 0 0h11.595s7.171-28.149 10.187-44.033h-26.876z"/><path fill="#43464a" d="M772.973 716.214c-4.491-7.573-4.826-18.967-4.491-32.439 1.944-75.198 13.471-101.605-18.967-143.896h-16.286l-40.079-.067s-.067 29.557 8.311 49.864c5.295 12.868 11.662 34.985 17.895 58.845 12.6 48.457 24.463 104.152 24.463 104.152l16.353 126.805h37.8c-6.769-99.996.737-119.567-24.999-163.265Z"/><path fill="#e0e2e5" d="M799.111 920.295c-.469-15.549-.939-28.417-1.14-40.816h-21.715l10.523 40.95s-.201 0 0 0z"/><path fill="#8a9097" d="m687.386 920.429-57.639 19.838.134.201c4.692 5.63 11.595 8.914 18.9 8.914h55.896l-5.697-28.953h-11.595Zm137.395 18.364-25.669-18.833-12.399.134-2.011 29.288h34.449a6.75 6.75 0 0 0 6.769-6.769c.067-1.34-.335-2.681-1.14-3.82Z"/><path fill="#2f3134" d="m668.285 470.11-20.174-41.218c-.804-1.81-2.547-2.949-4.557-3.016h-4.222c1.944.067 3.753 1.206 4.557 3.016l20.174 41.218c1.944 3.954-.603 8.78-4.557 8.78h4.155c4.021 0 6.501-4.826 4.624-8.78"/><path fill="#595e62" d="m664.196 470.177-20.241-41.218c-.804-1.81-2.547-2.949-4.557-3.016h-66.083c-3.954 0-6.501 4.826-4.557 8.713l20.241 41.218c.804 1.81 2.547 2.949 4.557 3.016h66.083c3.954 0 6.434-4.826 4.557-8.713"/><path fill="#002742" d="m843.011 486.739-56.7-71.579c-8.244-12.399-13.069-14.008-23.19-15.482-9.517 11.662-13.471 30.83-3.485 46.312 13.94 21.715 34.181 40.883 45.441 50.668 13.337-12.064 26.071-18.632 37.934-9.919"/><path fill="#003e64" d="M853.801 499.197c-3.485-5.898-7.104-9.986-10.723-12.667-11.863-8.713-24.597-2.212-37.934 9.986-14.007 12.801-28.618 31.768-43.631 45.977l.737 1.407 8.78 17.627 3.82 7.775z"/><path fill="#e0e2e5" fill-rule="evenodd" d="m566.948 438.408 27.412.938c.804 5.63-2.212 13.873-7.775 16.889l-14.611 11.461z"/><path fill="#e0e2e5" d="M720.036 552.748c.335.871 6.568 1.944 6.97 2.882.871 2.078 1.81 4.088 2.949 6.032 2.614 4.289 27.01 5.295 27.01 5.295l-7.238-27.278-31.299 8.847c.067 0 .67 1.81 1.608 4.222"/><path fill="#c1c7cc" d="m749.716 539.678 7.238 27.278s10.321-3.887 14.007-5.429l-8.78-17.627z"/><path fill="#fff" d="M114.714 145.884c9.576 0 10.64 0 14.541.355 3.547 0 5.32.709 6.738 1.064 1.773.709 2.837 1.419 4.256 2.837s2.128 2.483 2.837 4.256c.355 1.419 1.064 3.192 1.064 6.738 0 3.901.355 4.965.355 14.541s0 10.64-.355 14.541c0 3.547-.709 5.32-1.064 6.738-.709 1.773-1.419 2.837-2.837 4.256s-2.483 2.128-4.256 2.837c-1.419.355-3.192 1.064-6.738 1.064-3.901 0-4.965.355-14.541.355s-10.64 0-14.541-.355c-3.547 0-5.32-.709-6.738-1.064-1.773-.709-2.837-1.419-4.256-2.837s-2.128-2.483-2.837-4.256c-.355-1.419-1.064-3.192-1.064-6.738 0-3.901-.355-4.965-.355-14.541s0-10.64.355-14.541c0-3.547.709-5.32 1.064-6.738.709-1.773 1.419-2.837 2.837-4.256s2.483-2.128 4.256-2.837c1.419-.355 3.192-1.064 6.738-1.064 3.901-.355 4.965-.355 14.541-.355m0-6.384c-9.576 0-10.994 0-14.895.355-3.901 0-6.384.709-8.866 1.773s-4.256 2.128-6.384 4.256-3.192 3.901-4.256 6.384c-1.064 2.128-1.419 4.965-1.773 8.866 0 3.901-.355 4.965-.355 14.895 0 9.576 0 10.994.355 14.895 0 3.901.709 6.384 1.773 8.866s2.128 4.256 4.256 6.384 3.901 3.192 6.384 4.256c2.128 1.064 4.965 1.419 8.866 1.773 3.901 0 4.965.355 14.895.355s10.994 0 14.895-.355c3.901 0 6.384-.709 8.866-1.773 2.483-1.064 4.256-2.128 6.384-4.256s3.192-3.901 4.256-6.384c1.064-2.128 1.419-4.965 1.773-8.866 0-3.901.355-4.965.355-14.895s0-10.994-.355-14.895c0-3.901-.709-6.384-1.773-8.866s-2.128-4.256-4.256-6.384-3.901-3.192-6.384-4.256c-2.128-1.064-4.965-1.419-8.866-1.773-3.901-.355-5.32-.355-14.895-.355m0 17.378c-10.285 0-18.442 8.157-18.442 18.442s8.157 18.442 18.442 18.442 18.442-8.157 18.442-18.442-8.157-18.442-18.442-18.442m0 30.5c-6.738 0-12.058-5.32-12.058-12.058s5.32-12.058 12.058-12.058 12.058 5.32 12.058 12.058c0 6.384-5.32 12.058-12.058 12.058m14.896-31.209a4.256 4.256 0 1 0 8.512 0 4.256 4.256 0 0 0-8.512 0m-9.611 161.991h12.028l-1.822 12.028H120v36.448h-14.944v-36.448h-7.654V318.16h7.654v-11.663c0-2.551 2.187-12.392 13.121-12.757 10.934-.364 13.486 0 13.486 0v12.757s-6.196-.364-9.112 0c-1.093 0-2.551 1.093-2.551 3.28zm23.535 140.325H85.528c-4.038 0-7.343 3.304-7.343 7.343v36.713c0 4.038 3.304 7.343 7.343 7.343h58.373c4.038 0 7.343-3.304 7.343-7.343v-36.713c0-4.038-3.304-7.343-7.71-7.343m-35.611 34.51v-15.786l16.521 8.077zm43.321 153.303v27.031h-15.707v-25.205c0-6.21-2.192-10.593-8.036-10.593-4.383 0-6.941 2.922-8.036 5.845-.365 1.096-.365 2.557-.365 3.653v26.301h-15.707s.365-42.739 0-47.122H119.1v6.575c2.192-3.288 5.845-7.671 14.246-7.671 10.228-.365 17.899 6.575 17.899 21.187Zm-64.292-43.104c-5.479 0-8.767 3.653-8.767 8.036s3.288 8.036 8.767 8.036 8.767-3.653 8.767-8.036-3.288-8.036-8.767-8.036m-7.671 69.77h15.707v-46.757H79.281zm829.552-518.943c0 14.44-6.8 28.135-19.67 39.61-9.62 8.575-19.115 12.86-19.515 13.04l-.815.36-.815-.36c-.4-.18-9.895-4.465-19.515-13.04-12.865-11.475-19.67-25.17-19.67-39.61 0-12.78 10.37-23.18 23.11-23.18 6.5 0 12.53 2.655 16.89 7.355 4.36-4.7 10.39-7.355 16.89-7.355 12.745 0 23.11 10.4 23.11 23.18"/></svg>