<svg xmlns="http://www.w3.org/2000/svg" viewBox="0 0 890 367"><g fill="none"><path fill="#383B3E" d="M43.26 0h384.91c13.603 0 24.63 11.027 24.63 24.63v176.15H18.62V24.63A24.63 24.63 0 0 1 43.26 0m434.17 0h370.19c13.603 0 24.63 11.027 24.63 24.63v176.15H452.8V24.63C452.8 11.027 463.827 0 477.43 0"/><path fill="#43464A" d="m853.62 83.24-25.12 112c-1.071-10.38-9.816-18.269-20.25-18.27H473.16a20.35 20.35 0 0 0-20.36 20.36 20.36 20.36 0 0 0-20.36-20.36H82.63a20.36 20.36 0 0 0-20.36 20.36l-25.62-114H0l18 147.22 7 56.95h56.66l-23.48 79.71h21l35.56-79.71h660.85l35.56 79.71h20.94l-23.44-79.71h56.63l7-56.95 18-147.31z"/></g></svg>