<svg xmlns="http://www.w3.org/2000/svg" viewBox="0 0 290.85 255.6"><g data-name="Ebene 2"><g data-name="Ebene 1"><path fill="#232628" fill-rule="evenodd" d="M0 0h290.85v202.72H52.88L0 255.6z"/><path fill="#fff" d="M56.11 60.88h11.57v91.27H56.11z"/><path fill="#d0d4d8" d="M84.11 96.51h11.57v55.65H84.11z"/><path fill="#a4abb3" d="M112.11 77.88h11.57v74.27h-11.57z"/><path fill="#9dc9ff" d="M234.24 44.89h-8.7A26.11 26.11 0 0 0 199.43 71h8.7a26.11 26.11 0 0 0 26.11-26.1z"/><path fill="#007bc0" d="M201.58 82.7c-1.27-12.46-8.6-30.81-30.22-30.81v8.7c16.77 0 20.61 15.4 21.48 22.56a13.3 13.3 0 0 0 3.72.49 13 13 0 0 0 5.02-.94"/><path fill="#56b0ff" d="M218.13 78.59c-10.11 0-12.88 2.65-16.55 4.11a13 13 0 0 1-5 .94 13.3 13.3 0 0 1-3.72-.49c-4.44-1.27-6.59-4.56-17.85-4.56-13.94 0-24.18 8.14-24.18 27.1s10.52 46.2 31 46.2c9.69 0 10-2.85 14.71-2.85s5 2.85 14.71 2.85c20.52 0 31-27.25 31-46.2s-10.18-27.1-24.12-27.1"/></g></g></svg>