<svg xmlns="http://www.w3.org/2000/svg" viewBox="0 0 105.5 140.78"><g data-name="Ebene 2"><g data-name="Ebene 1"><path fill="#232628" d="M0 0h105.5v111.65H0z"/><path fill="#232628" fill-rule="evenodd" d="m105.5 140.78-29.13-29.13h29.13z"/><path fill="#56b0ff" fill-rule="evenodd" d="M43.89 78.24v7.91a7.74 7.74 0 0 0 15.47 0v-7.91z"/><path fill="#0096e8" fill-rule="evenodd" d="M83.89 72.44a22.59 22.59 0 0 1-9.2-18.2V43.6a23.07 23.07 0 0 0-46.13 0v10.64a22.62 22.62 0 0 1-9.2 18.2V84h64.53z"/><path fill="#00629a" d="M19.36 72.44H83.9v11.61H19.36z"/><path fill="#fff" fill-rule="evenodd" d="M70.19 20.54a11.93 11.93 0 1 1-11.93 11.93 11.93 11.93 0 0 1 11.93-11.93"/></g></g></svg>