<svg xmlns="http://www.w3.org/2000/svg" enable-background="new 0 0 691 598" viewBox="0 0 691 598"><path fill="#232628" fill-rule="evenodd" d="M40 47v414.8h486.8L635 570V47z" clip-rule="evenodd"/><path fill="#a4abb3" fill-rule="evenodd" d="M408.2 379.7c.2 6.6-5 12-11.6 12.2s-12-5-12.2-11.6v-13.4c-7.1 6.6-7.5 17.6-.9 24.7s17.6 7.5 24.7.9 7.5-17.6.9-24.7l-.1-.1-.8 1.5zm-112.6 0c.2 6.6-5 12-11.6 12.2s-12-5-12.2-11.6v-13.4c-7.1 6.6-7.5 17.6-.9 24.7 6.5 7.1 17.6 7.5 24.7.9s7.5-17.6.9-24.7l-.1-.1-.8 1.5z" clip-rule="evenodd"/><path fill="#c1c7cc" fill-rule="evenodd" d="M329 346.9h-52.7l.4-.2-24.4-54.3c-2.1-.5-4.1-1.2-6.1-2.1l25.5 56.9v32.6c-.2 6.6 5 12 11.6 12.2s12-5 12.2-11.6v-11.1l.8-1.5 9.1-16.2h78.9v28.2c-.2 6.6 5 12 11.6 12.2s12-5 12.2-11.6v-11.1l.8-1.5 11.7-20.9h-87l.4-.2-24-53.5h-5.1zm-43.2-200.3h5.1l-9.7-21.8h-5.1zm-52.1 0-9.7-21.8h-5.1l10 22.4v-.6z" clip-rule="evenodd"/><path fill="#7d8389" fill-rule="evenodd" d="M349.3 293.2h-.8c10.5 0 20.2-5.7 25.5-14.8l5.1-15.5L409 146.6H228.8v115.9c0 11.9 6.8 22.7 17.5 27.7 1.9.9 4 1.6 6.1 2.1 2.3.5 4.7.8 7.1.8h89.8z" clip-rule="evenodd"/><path fill="#43464a" fill-rule="evenodd" d="M288.8 233.8c-.7-2.9-2.2-6.5-5.6-8.4v10.5c1.8-.9 3.6-1.6 5.6-2.1" clip-rule="evenodd"/><path fill="#8a9097" fill-rule="evenodd" d="M276.1 124.8h5.1v-8.4H215v8.4z" clip-rule="evenodd"/><defs><filter id="a" width="31.2" height="77.9" x="266" y="199.2" filterUnits="userSpaceOnUse"><feColorMatrix values="1 0 0 0 0 0 1 0 0 0 0 0 1 0 0 0 0 0 1 0"/></filter></defs><mask id="b" width="31.2" height="77.9" x="266" y="199.2" maskUnits="userSpaceOnUse"><g filter="url(#a)"><path fill="#fff" fill-rule="evenodd" d="M40 570h595V47H40z" clip-rule="evenodd"/></g></mask><path fill="#56b0ff" fill-rule="evenodd" d="M266 277.1h31.1v-77.9H266z" clip-rule="evenodd" mask="url(#b)"/><defs><filter id="c" width="31.2" height="77.9" x="297.1" y="199.2" filterUnits="userSpaceOnUse"><feColorMatrix values="1 0 0 0 0 0 1 0 0 0 0 0 1 0 0 0 0 0 1 0"/></filter></defs><mask id="d" width="31.2" height="77.9" x="297.1" y="199.2" maskUnits="userSpaceOnUse"><g filter="url(#c)"><path fill="#fff" fill-rule="evenodd" d="M40 570h595V47H40z" clip-rule="evenodd"/></g></mask><path fill="#00629a" fill-rule="evenodd" d="M297.1 277.1h31.2v-77.9h-31.2z" clip-rule="evenodd" mask="url(#d)"/><defs><filter id="e" width="42.8" height="148" x="313.5" y="129.1" filterUnits="userSpaceOnUse"><feColorMatrix values="1 0 0 0 0 0 1 0 0 0 0 0 1 0 0 0 0 0 1 0"/></filter></defs><mask id="f" width="42.8" height="148" x="313.5" y="129.1" maskUnits="userSpaceOnUse"><g filter="url(#e)"><path fill="#fff" fill-rule="evenodd" d="M40 570h595V47H40z" clip-rule="evenodd"/></g></mask><path fill="#007bc0" fill-rule="evenodd" d="M313.5 277.1h42.8v-148h-42.8z" clip-rule="evenodd" mask="url(#f)"/><defs><filter id="g" width="42.8" height="148" x="356.3" y="129.1" filterUnits="userSpaceOnUse"><feColorMatrix values="1 0 0 0 0 0 1 0 0 0 0 0 1 0 0 0 0 0 1 0"/></filter></defs><mask id="h" width="42.8" height="148" x="356.3" y="129.1" maskUnits="userSpaceOnUse"><g filter="url(#g)"><path fill="#fff" fill-rule="evenodd" d="M40 570h595V47H40z" clip-rule="evenodd"/></g></mask><path fill="#00629a" fill-rule="evenodd" d="M356.3 277.1h42.9v-148h-42.9z" clip-rule="evenodd" mask="url(#h)"/><defs><filter id="i" width="108.5" height="146.6" x="348.5" y="146.6" filterUnits="userSpaceOnUse"><feColorMatrix values="1 0 0 0 0 0 1 0 0 0 0 0 1 0 0 0 0 0 1 0"/></filter></defs><mask id="j" width="108.5" height="146.6" x="348.5" y="146.6" maskUnits="userSpaceOnUse"><g filter="url(#i)"><path fill="#fff" fill-rule="evenodd" d="M40 570h595V47H40z" clip-rule="evenodd"/></g></mask><path fill="#656a6f" fill-rule="evenodd" d="m379 262.9-2.1 8.3c-3.3 12.9-15 22-28.4 22h50.2c12.1 0 22.7-8.2 25.7-19.9L457 146.6h-48z" clip-rule="evenodd" mask="url(#j)"/></svg>