<svg xmlns="http://www.w3.org/2000/svg" viewBox="0 0 630 670"><path fill="#232628" fill-rule="evenodd" d="M84 46.5v483.3h365.4l94.6 94.7v-578z" clip-rule="evenodd"/><path fill="#0096e8" fill-rule="evenodd" d="M161.7 235.6v183.1c0 18.3 15.4 33.3 34.3 33.3h240.2c18.9 0 34.3-15 34.3-33.3V235.6zm0 0 154.4-119.8 154.4 119.8z" clip-rule="evenodd"/><path fill="#007bc0" fill-rule="evenodd" d="M470.5 235.6 316.1 355.4 161.7 235.6z" clip-rule="evenodd"/><path fill="#fff" fill-rule="evenodd" d="M199.5 115.8h222.6v254.3H199.5z" clip-rule="evenodd"/><path fill="#0096e8" fill-rule="evenodd" d="m316.1 354.2 154.4-118.5v183.1c0 18.3-15.4 33.3-34.3 33.3H196c-18.9 0-34.3-15-34.3-33.3V235.6z" clip-rule="evenodd"/><path fill="#232628" d="M241.7 172.8c9.6 0 14.8 4.2 14.8 11.9 0 4.9-1.8 7.6-6.4 9.7 5.7 2 8.1 5.1 8.1 10.8 0 8.3-5.5 12.7-15.8 12.7h-21.1v-45.1zm-.6 18.2c3.8 0 5.5-1.7 5.5-5.3s-1.9-5.2-6-5.2h-9.5V191zm.6 19.2c4.2 0 6.6-2.1 6.6-6.1 0-3.8-2.4-5.9-6.9-5.9h-10v12zm55.5-9c0 10.2-7 17.3-16.9 17.3-10 0-16.8-7-16.8-17 0-10.3 7-17.5 17.1-17.5 9.6.1 16.6 7.3 16.6 17.2m-23.9.1c0 6.3 2.5 9.8 7 9.8s7.1-3.5 7.1-9.8c0-6.4-2.5-9.7-7.1-9.7-4.5 0-7 3.5-7 9.7m52.5-7.6c-3.1-1.5-6.1-2.5-9.3-2.5-3 0-4.3.8-4.3 2.6 0 2 1.1 2.5 6.5 3.5 3.8.6 5.8 1.3 7.6 2.4 2.9 1.7 4.3 4.4 4.3 7.9 0 6.9-5.3 10.9-14.5 10.9-6.4 0-10.5-1.3-14.4-4.7l4.5-6.2c3 2.8 5.8 3.8 9.7 3.8 3.5 0 5.4-1.1 5.4-3.2 0-.9-.4-1.6-1.2-2-.9-.4-1.2-.6-5.8-1.4-7.7-1.5-11.1-4.6-11.1-10.3 0-6.5 5-10.4 13.4-10.4 5.3 0 9.1 1 12.9 3.3zm40.7 16.7c-2.5 5.3-6.8 8.1-13.7 8.1-10.5 0-17-6.7-17-17 0-10.4 6.6-17.5 16.3-17.5 6.3 0 10.7 2.3 13.6 6.7l-7.9 4.7c-1.1-2.5-2.6-3.9-5.4-3.9-4.4 0-6.7 3.5-6.7 9.8 0 6.4 2.4 9.7 7.1 9.7 3.2 0 4.7-1.3 5.9-4.4zm15.4-40v19.7c2.2-4 5.5-6 10.2-6 6.6 0 10.4 4.5 10.4 12.5v21.3h-9.6v-20c0-4.3-1.6-6.2-4.9-6.2-3.8 0-6.1 2.5-6.1 6.9V218h-9.6v-47.5h9.6zM232.3 235.8l16.7 30.6v-30.6h9.2v45.1h-11L230 249.7V281h-9.2v-45.1h11.5zm65.9 38.2c-2.6 5-6.7 7.6-14.5 7.6-10.2 0-17.1-6.9-17.1-16.9 0-10.3 6.9-17.6 16.6-17.6 9.6 0 15.4 6.4 15.4 17.2v2.6h-22.4c.3 5 3.3 7.6 7.8 7.6 2.7 0 5.4-1.1 6.5-3.4zm-8.8-13c-.5-4.7-2.3-6.7-6.1-6.7s-5.8 2.1-6.7 6.7zm22.6-13.1 5.2 21.1 6.1-21.1h8.3l5.5 21.1 5.6-21.1h9.3l-10 33h-9.5l-5.5-20.4-5.8 20.4h-9.6l-9.6-33zm66.7 8.8c-3.1-1.5-6.1-2.5-9.3-2.5-3 0-4.3.8-4.3 2.6 0 2 1.1 2.5 6.5 3.5 3.8.6 5.8 1.3 7.6 2.4 2.9 1.7 4.3 4.4 4.3 7.9 0 6.9-5.3 10.9-14.5 10.9-6.4 0-10.5-1.3-14.4-4.7l4.5-6.2c3 2.8 5.8 3.8 9.7 3.8 3.5 0 5.4-1.1 5.4-3.2 0-.9-.4-1.6-1.2-2-.9-.4-1.2-.6-5.8-1.4-7.7-1.5-11.1-4.6-11.1-10.3 0-6.5 5-10.4 13.4-10.4 5.3 0 9.1 1 12.9 3.3z"/></svg>