<svg xmlns="http://www.w3.org/2000/svg" viewBox="0 0 175 442"><g fill="none"><path fill="#D0D4D8" d="m21.516 47.835 10.481-3.405 20.479 63.027-10.481 3.405zm94.104 59.615 20.478-63.026 10.481 3.406-20.479 63.026zm-40.955 16.17h18.77v317.21h-18.77z"/><path fill="#B2B9C0" d="m7.145 72.14-6.48-8.92L86.965.37l86.37 62.85-6.48 8.92L86.965 14z"/><path fill="#D0D4D8" d="m86.965 14-25.09 18.22h50.17z"/><path fill="#B2B9C0" d="m82.335 106.9 5.39-9.93c7.91-1.73 16-7.31 16.59-24.73l22.64-11.87-2-3.84-22.93 12.01c-6.92-.06-27.59.06-36.14.06-8.28 0-14.81 2.71-14.81 11.63a10.64 10.64 0 0 0 2.37 6.26l-2.45 6.79 6.92-2.42a36.66 36.66 0 0 0 17.88 6.69l-7.69 9.35h-36.81v16.72h105.5V106.9zm-3.87-9.18h1a47 47 0 0 0 5.59-.3l-5.14 9.46h-9z"/></g></svg>