<svg xmlns="http://www.w3.org/2000/svg" viewBox="0 0 1600 900"><path fill="none" d="M1119.296 332.001h.016v35.156h-.016zm-160.963 105.29.342-10.08c-9.077 3.351-20.935 7.962-33.043 12.648h32.614zm191.879-70.135a1435 1435 0 0 1-9.781-21.929l-.424 21.929z"/><path fill="#c1c7cc" d="M145.416 522.364h583.007v-26.92H145.416zm1082.389-26.92h-90.2v.19c-.186 10.58-.339 19.663-.448 26.73h358.92v-26.92h-268.27zm245.028-190.363h-285.518l.273.585 12.299 26.335h296.188v-26.92zm-849.422 0H145.416v26.92h807.733l2.454-26.633.027-.287zm495.88 0h-.019v.585l.014 26.335h.018l-.012-26.335z"/><path fill="#00629a" d="M1130.6 692.3c2.042-77.78 4.073-116.226-1.065-156.21h-34.8v32.248h-71.7c7.841 24.194 16.332 56.428 24.226 88.939 16.41 67.589 30.23 136.338 30.23 136.338l21.059 106.29 86.156.132c-12.847-149.526-54.568-190.063-54.106-207.737"/><g fill="#eff1f2"><path d="m1092.242 196.161-.085.092c-.565.616-4.174 4.553-8.605 9.451-3.493 3.86-7.487 8.307-10.895 12.187-2 2.271-3.792 4.349-5.165 6 0 0-3.268-2.472-7.467-6-4.986-4.184-11.283-9.85-15-14.641a30 30 0 0 1-1.18-1.621l-1.671 2.058-11.538 14.2-4.87 5.994s-3.694-11.085-4.13-19.345a28 28 0 0 1-.043-1.518c0-3.17 1.716-6.333 3.844-9.039l-17.937 11.148-.388 51.567h70.65l17.848-58.422.013-.045z"/><path d="M1040.55 199.2a26 26 0 0 0 3.289 2.421z"/></g><path fill="#e0e2e5" d="M1079.33 181.5a2 2 0 0 1-.105.347c-.42 1.115-2.455 4.927-11.925 11.24-10.351 6.9-23.822 7.989-23.454 8.539.354.526.751 1.068 1.18 1.621 3.716 4.791 10.013 10.457 15 14.641 4.2 3.523 7.467 6 7.467 6a339 339 0 0 1 5.165-6c3.408-3.88 7.4-8.327 10.895-12.187 4.431-4.9 8.04-8.835 8.605-9.451l.085-.092zm-35.491 20.124a26 26 0 0 1-3.289-2.421c-2.739-2.333-6.289-6.221-6.954-11.083a12 12 0 0 1-.111-1.751 43 43 0 0 0-8.048 7.614c-2.128 2.706-3.844 5.869-3.844 9.039q0 .74.043 1.518c.436 8.26 4.13 19.345 4.13 19.345l4.87-5.994 11.538-14.2 1.671-2.058z"/><path fill="#002742" d="m1113.521 208.755-7-4.073-6.383-3.713c-.034.107-13 41.1-22.255 104.109q-1.891 12.873-3.533 26.92a853 853 0 0 0-4.713 57.836l4.644 50.022h20.461v5.483l16-18.472 8.59-9.914-.018-33.293-.009-16.507-.019-35.153-.014-26.335v-.585l-.007-12.029a618 618 0 0 1-4.461-12.483 86.4 86.4 0 0 1-3.948-25.2c-.007-.522-.015-1.043-.012-1.568.072-13.57 3.414-27.843 13.871-35.1.166-.007.329-.006.494-.011q1.438-.04 2.825.024 1.569.071 3.079.273zm5.853 286.879v-.19l-.006-11.106v-2.968l-.619.521-5 4.2a5.9 5.9 0 0 1-3.006-1.082 69 69 0 0 1-7.9-5.63c-1.161.8-2.3 1.581-3.406 2.349-.578.4-2.307 3.21-4.7 7.089v47.271h24.663l-.007-13.725z"/><path fill="#003253" d="M1084.4 87.162s0-7.908-12.428-18.078-25.986-3.389-37.283-4.516-24.058-4.52-33.1 0c-8.539 4.266-.951 16.6-1.034 24.621-2.217 6.027-4.422 17.12 3.917 26.768-.43-6.016-.387-9.861-.387-9.861.019-.116.043-.224.063-.339 2.308-2.742 6.932-7.922 10.2-9.556 4.519-2.261 6.777 1.128 19.209 4.52s24.852-5.651 24.852-5.651c-6.777 19.206 3.85 22.883 7.24 28.53a10.25 10.25 0 0 1 1.38 4.862c3.938-6.652 10.314-14.776 15.561-9.037 6.379 6.979-4.644 24.813-10.271 32.932l2.563 5.569s21.587-38.295 23.068-51.558c1.159-10.351-13.55-19.206-13.55-19.206M988.454 216.2c-17.378 10.48-27.615 26.7-29.007 46.564a62 62 0 0 0-.136 5.477c.023 1.325.079 2.655.19 3.988l.1 32.852v.287l.077 26.632.123 40.4.06 19.783-.073 2.143-.909 26.852-.2 6.035-.342 10.08-.087 2.568h33.289l7.707-52.582.517-55.279.254-26.92.907-96.132-11.2 6.509z"/><path fill="#0096e8" d="M321.387 268.241h53.515v-45.759h87.952v45.759h53.517l9.044-14.74h18.089v-60.104H294.252v60.104h18.09zm637.943-3.31q.037-1.086.112-2.167c1.392-19.86 11.629-36.084 29.007-46.564l1.272-.738V193.4H740.474v60.1h18.09l9.044 14.74h191.417zm-50.254 3.2h-87.953V222.3h87.953zm341.64.408H1445.7l9.044-14.74h18.089V193.7h-249.252v60.1h18.09zm53.515-45.842h87.952v45.828h-87.952zm-76.426 160.966v60.1h18.09l9.045 14.739h194.985l9.043-14.739h18.089v-60.1zm168.6 74.78h-87.953v-45.828h87.953zM300.807 443.47H318.9l9.045 14.74h194.981l9.043-14.74h18.089v-60.105H300.807zm80.649-32.219h87.953v45.828h-87.953zm699.285 98.227a34.9 34.9 0 0 1-7.069 6.958s-12.312 3.644-22.195 5.928a71.5 71.5 0 0 1-9.9 1.779 18.46 18.46 0 0 1-8.41-1.779c-6.6-2.932-12.85-9.1-14.153-15.827l18.456-11.093 11.984-7.2 5.259-3.7-18.459-2.652.59-3.487.283-1.669.549-3.242 39.047-7.261 5.452-1.014 1.868-2.181c-1.6-1.476-2.571-2.388-2.571-2.388l3.711-4.282h-239.7v60.1h18.089l3.618 5.894 5.427 8.846h194.985l5.427-8.846 3.616-5.894h18.09v-27.65a529 529 0 0 1-4.139 6.626 155 155 0 0 1-9.855 14.034m-66.653 21.729h-87.952v-45.828h87.952z"/><path fill="#006ead" d="M543.504 253.501h-18.089l-9.044 14.74h-53.517v.069h-87.952v-.069h-53.515l-9.045-14.74h-18.09v51.58h249.252zM294.252 176.89h249.252v16.507H294.252zm664.773 91.351H767.608l-9.044-14.74h-18.09v51.58H955.63zM740.474 176.89h249.252v16.507H740.474zm732.359 76.909h-18.089l-9.044 14.74h-194.984l-9.045-14.74h-18.09v51.282h249.252zm-249.252-76.611h249.252v16.507h-249.252zm226.344 281.319H1254.94l-9.045-14.739h-18.09v51.676h249.252v-51.676h-18.089zm-222.12-91.351h249.251v16.507h-249.251zM522.926 458.21H327.941l-9.045-14.74h-18.089v51.866h249.251V443.47h-18.089zm-222.119-91.352h249.251v16.507H300.807zm775.841 149.612-3.616 5.894-5.427 8.846H872.62l-5.427-8.846-3.618-5.894h-18.089v51.867h249.252V516.47zm-2.371-76.611H845.486v16.507h239.7l1.718-1.983 7.834-9.041v-5.483z"/><path fill="#007bc0" d="M294.252 253.501V176.89H177.189v128.191h117.063zm446.222 0V176.89H623.411v128.191h117.063zm420.054-5.777 9.721 20.815 17.066 36.542h36.266V177.188h-117.063v27.469l-10.909-6.384-17.848 58.427h-70.65l.388-51.567-17.773 10.33 11.2-6.509-.907 96.132-.256 26.914-.521 55.276-7.707 52.582h82.742l-4.644-50.022a853 853 0 0 1 4.713-57.836q1.621-14.029 3.533-26.92c9.254-63.009 22.221-104 22.255-104.109l6.383 3.713 7 4.073 17.592 10.233c13.424 1.819 23.238 11.559 29.419 28.734"/><path fill="#007bc0" d="m1119.265 293.052.007 12.029h.019v-11.974zm.101 188.318v2.968l.005.018v-2.99zm95.534-114.214 2.538 16.507 2.08 13.521-72.956 61.323-8.421 7.079c-.2 10.81-.38 20.869-.538 29.858h90.2V367.156z"/><path fill="#001d33" d="m959.678 332-.081-26.633v-.287l-.1-32.852a61 61 0 0 1-.19-3.988 62 62 0 0 1 .024-3.31l-.305 3.31-3.395 36.84-.027.287L953.149 332l-3.755 40.744-101.206 55.893s.253.409.692 1.109q.15.238.325.52l.119.189a710 710 0 0 0 6 9.4h70.311c12.108-4.686 23.966-9.3 33.043-12.648l.2-6.035.909-26.852.073-2.143-.06-19.777zm175.078 0a998 998 0 0 1-10.7-26.335l-.228-.585q-2.322-5.981-4.538-11.974v12.559l.01 26.335.016 35.155h-.015l.009 16.507.018 33.293.01-.012 20.155-23.262q.1-5 .192-10.019l.318-16.507.424-21.929a1336 1336 0 0 1-5.671-13.226m-15.383 152.356-.005-.018.006 11.106v.19l.015 26.73.007 13.725h17.576c.021-2.713.084-7.419.183-13.726.109-7.067.262-16.15.448-26.73v-.19c.158-8.989.34-19.048.538-29.858l-18.774 15.78z"/><path fill="#007bc0" d="M1139.689 383.663q-.1 5.014-.192 10.019l8.681-10.019 6.289-7.258a1479 1479 0 0 1-4.255-9.249h-10.2q-.164 8.23-.323 16.507m-955.945-.298v111.971h117.063V366.858H183.744zM988.449 216.2l.005-.003 1.272-.739-1.272.738zM829.52 439.859H728.423v128.478h117.063V439.859z"/><path fill="#d0d4d8" d="M462.854 268.241v-45.759H374.9v45.828h87.952zm-83.119-37.573h67.372v6.132h-67.372zm0 11.66h37.643v6.135h-37.643zm0 11.661h53.48v6.135h-53.48zm441.388 14.14h87.953V222.3h-87.953zm4.833-37.643h77.4v6.136h-77.4zm0 11.662h59.891v6.134h-59.891zm0 11.66H852.7v6.135h-26.74zm566.227-31.108h-87.952v45.828h87.952zm-83.12 8.185h43.673v6.136h-43.673zm68.388 29.457h-68.388V254.2h68.388zm8-11.661h-76.389v-6.135h76.389zm-76.996 163.934v45.828h87.953v-45.828zm43.925 37.643h-39.093v-6.135h39.093zm35.42-11.658h-74.512v-6.135h74.512zm0-11.66h-74.512v-6.14h74.512zM381.456 457.079h87.953v-45.828h-87.953zm4.833-37.642h59.89v6.135h-59.89zm0 11.66h69.721v6.135h-69.721zm0 11.661h31.966v6.135h-31.966zm598.575 42.621h-58.728v45.828h87.952v-45.828zm6 25.981h-59.896v-6.134h59.891zm-59.891-17.8h43.673v6.14h-43.678v-6.135zm53.48 29.456h-53.48v-6.135h53.48z"/><path fill="#101112" d="M379.735 230.668h67.373v6.135h-67.373zm0 11.66h37.644v6.135h-37.644zm0 11.661h53.48v6.135h-53.48zm446.221-23.503h77.398v6.135h-77.398zm0 11.662h59.891v6.135h-59.891zm0 11.66h26.74v6.135h-26.74zm483.107-22.926h43.673v6.135h-43.673zm0 11.661h76.389v6.135h-76.389zm0 11.661h68.388v6.135h-68.388zm4.224 166.597h74.512v6.135h-74.512zm0 11.661h74.512v6.135h-74.512zm0 11.661h39.092v6.135h-39.092zm-926.998-24.686h59.891v6.135h-59.891zm0 11.66h69.721v6.135h-69.721zm0 11.661h31.966v6.135h-31.966zM959.814 499.7h14.827v-6.135h-43.673v6.135zm.144 5.526h-28.99v6.134h59.891v-6.134zm.304 11.66h-29.294v6.135h53.48v-6.135z"/><path fill="#9dc9ff" d="M1034.266 187.854a79.7 79.7 0 0 0 15.114-12 47.6 47.6 0 0 1-14.806 1.324c-.36 3.241-.724 6.643-1.065 10.078q.028.438.087.865zM849.205 430.266l-.325-.52-1.055.551-48.441 1.1-3.251 7.544 3.048.92h56.14a850 850 0 0 1-6-9.4zm206.438 65.178-6.186-7.2-11.984 7.2-18.456 11.093c1.3 6.732 7.551 12.9 14.153 15.827a18.46 18.46 0 0 0 8.41 1.779 71.5 71.5 0 0 0 9.9-1.779c9.883-2.284 22.195-5.928 22.195-5.928z"/><path fill="#b8d6ff" d="M1033.6 188.12c.665 4.862 4.215 8.75 6.954 11.083l3.289 2.421h.007c-.368-.55 13.1-1.637 23.454-8.539 9.47-6.313 11.505-10.125 11.925-11.24l-4.34-23.924-2.563-5.569c5.627-8.119 16.65-25.953 10.271-32.932-5.247-5.739-11.623 2.385-15.561 9.037a10.25 10.25 0 0 0-1.38-4.862c-3.39-5.647-14.017-9.324-7.24-28.53 0 0-12.428 9.039-24.852 5.651s-14.69-6.781-19.209-4.52c-3.27 1.634-7.894 6.814-10.2 9.556-.02.115-.044.223-.063.339 0 0-.043 3.845.387 9.861a157 157 0 0 0 4.713 28.99c5.362 19.9 9.812 29.44 9.812 29.44a65.4 65.4 0 0 0 15.576 2.79 47.6 47.6 0 0 0 14.806-1.324 79.7 79.7 0 0 1-15.114 12zm66 288.614a307 307 0 0 1-4.858-4.127 489 489 0 0 1-10.692-9.571l-1.868 2.181-5.452 1.014-39.047 7.261-.549 3.242-.283 1.669-.59 3.487 18.459 2.652-5.259 3.7 6.186 7.2 18.029 20.992a34.9 34.9 0 0 0 7.069-6.958 155 155 0 0 0 9.858-14.034 529 529 0 0 0 4.139-6.626c2.394-3.879 4.123-6.687 4.7-7.089a653 653 0 0 1 3.406-2.349 180 180 0 0 1-3.248-2.644"/><path fill="#004975" d="M1047.262 657.276c-7.894-32.511-16.385-64.745-24.226-88.939H961.6l5.388 206.705 8.749 124.883 76.557.119c-1.672-21.009-4.806-33.125-14.607-101.234-7.133-49.596-.306-96.886 9.575-141.534m170.18-273.613-2.538-16.507-.689-4.478L1199.887 332l-12.3-26.335-.273-.585-17.066-36.542-9.721-20.815c-6.181-17.175-16-26.915-29.415-28.736q-1.509-.2-3.079-.273a38 38 0 0 0-2.825-.024c-.165 0-.328 0-.494.011-10.457 7.254-13.8 21.527-13.871 35.1 0 .525 0 1.046.012 1.568a86.4 86.4 0 0 0 3.948 25.2 618 618 0 0 0 4.461 12.483l.021.055q2.208 5.98 4.538 11.974l.228.585a1026 1026 0 0 0 10.7 26.335c1.921 4.549 3.822 8.974 5.675 13.226a1479 1479 0 0 0 14.036 31.178l-6.289 7.258-8.681 10.019-20.155 23.262-.01.012-8.59 9.914-16 18.472-7.834 9.041-1.718 1.983-3.711 4.282s.969.912 2.571 2.388c.6.553 1.295 1.19 2.056 1.883a470 470 0 0 0 8.636 7.688c1.6 1.386 3.239 2.782 4.858 4.127 1.1.913 2.189 1.8 3.249 2.646a69 69 0 0 0 7.9 5.63 5.9 5.9 0 0 0 3.006 1.082l5-4.2.619-.521h.005l18.774-15.78 8.421-7.079 72.956-61.323z"/></svg>