<svg xmlns="http://www.w3.org/2000/svg" viewBox="0 0 1852 995"><g fill="none" fill-rule="evenodd"><path fill="#EFF1F2" fill-rule="nonzero" d="M0 0h1852.2v994.32H0z"/><path fill="#E0E2E5" fill-rule="nonzero" d="M120.42 320.37h25.03v641.06h-25.03zm319.98 0h25.03v641.06H440.4zm867.56 0h25.03v641.06h-25.03zm398.83 0h25.03v641.06h-25.03z"/><path fill="#D0D4D8" fill-rule="nonzero" d="M182.08 466.27v-51.62c0-7.307 5.923-13.23 13.23-13.23h31.56c7.307 0 13.23 5.923 13.23 13.23v51.62zm58 495.25v-51.63c0-7.307-5.923-13.23-13.23-13.23h-31.54c-7.304.006-13.224 5.926-13.23 13.23v51.63zm71-495.25v-51.62a13.23 13.23 0 0 0-13.24-13.23h-31.5c-7.307 0-13.23 5.923-13.23 13.23v51.62zm71 0v-51.62a13.23 13.23 0 0 0-13.24-13.23h-31.47c-7.307 0-13.23 5.923-13.23 13.23v51.62z"/><path fill="#E0E2E5" fill-rule="nonzero" d="M120.38 837.64h344.99v28.39H120.38zm0 123.79h344.99v32.89H120.38zm0-247.57h344.99v28.39H120.38zm0-123.8h344.99v28.39H120.38zm0-123.78h344.99v28.39H120.38zm0-123.8h344.99v28.39H120.38zm1191.86 0h399.93v28.39h-399.93zm0 171.35h399.93v28.39h-399.93zm0 224.57h399.93v28.39h-399.93zM195.32 401.42h31.55q.732.002 1.46.08v-5a5.55 5.55 0 0 0-5.56-5.55h-23.35a5.55 5.55 0 0 0-5.56 5.55v5a14 14 0 0 1 1.46-.08m0 495.24h31.55q.733 0 1.46.09v-5a5.55 5.55 0 0 0-5.56-5.55h-23.35a5.55 5.55 0 0 0-5.56 5.55v5q.727-.09 1.46-.09m71.03-495.24h31.55q.726.002 1.45.08v-5a5.55 5.55 0 0 0-5.56-5.55h-23.34a5.55 5.55 0 0 0-5.56 5.55v5a14 14 0 0 1 1.46-.08m71.02 0h31.55q.732.002 1.46.08v-5a5.55 5.55 0 0 0-5.56-5.55h-23.35a5.54 5.54 0 0 0-5.55 5.55v5a14 14 0 0 1 1.45-.08M246.8 546.05h-62.35a4.09 4.09 0 0 1-4.06-3.51L178.17 527a4.12 4.12 0 0 1 1-3.26 4.07 4.07 0 0 1 3.09-1.41H249a4.09 4.09 0 0 1 4 4.67l-2.22 15.52a4.09 4.09 0 0 1-4 3.51zm100 0h-62.33a4.08 4.08 0 0 1-4-3.51L278.21 527a4.08 4.08 0 0 1 4-4.67h66.8a4.1 4.1 0 0 1 3.1 1.41 4.16 4.16 0 0 1 1 3.26l-2.22 15.52a4.1 4.1 0 0 1-4.06 3.51z"/><path fill="#E0E2E5" fill-rule="nonzero" d="M192.38 589.45 186.16 546h59.46l-6.23 43.41a4 4 0 0 1-.13.61h-46.7a4 4 0 0 1-.18-.61zm100.22.61h46.69q.093-.3.14-.61l6.22-43.45h-59.46l6.22 43.41q.08.31.19.61zM1540.83 401.4v133.18H1674V401.4zm87 44.54H1587a6 6 0 0 1 0-11.92h40.86a6 6 0 0 1 0 11.92zm-262.08 88.64h133.17V401.4h-133.17zM1411.89 434h40.87a6 6 0 0 1 0 11.92h-40.87a6 6 0 0 1 0-11.92M273.13 648.68v83.48h83.48v-83.48zm54.54 27.91h-25.61a3.74 3.74 0 0 1 0-7.46h25.61a3.74 3.74 0 0 1 0 7.46m-164.29 55.57h83.47v-83.48h-83.47zm28.92-63h25.62a3.74 3.74 0 0 1 0 7.46H192.3a3.74 3.74 0 0 1 0-7.46m1412.94 145.1v-17.61a3.1 3.1 0 0 1 3.31-2.85h23.67a3.11 3.11 0 0 1 3.31 2.85v17.61zM1494.38 601.1c-5.716 0-10.35 4.634-10.35 10.35s4.634 10.35 10.35 10.35h97.36c5.716 0 10.35-4.634 10.35-10.35s-4.634-10.35-10.35-10.35z"/><path fill="#D0D4D8" fill-rule="nonzero" d="M1487.83 814.26h-94.27a19.45 19.45 0 0 0-19.46 19.45V943.3c0 10.75 8.71 19.464 19.46 19.47h94.25c10.753 0 19.47-8.717 19.47-19.47V833.71c0-10.742-8.708-19.45-19.45-19.45M1423.54 848l-16.4 18.69a7.62 7.62 0 0 1-13.35-5V843a7.63 7.63 0 0 1 7.62-7.63h16.4a7.62 7.62 0 0 1 5.73 12.63m222.29-33.74h-94.28c-10.742 0-19.45 8.708-19.45 19.45v109.6c.006 10.745 8.715 19.454 19.46 19.46h94.26c10.747 0 19.46-8.713 19.46-19.46v-109.6c0-10.742-8.708-19.45-19.45-19.45m-94 47.42V843a7.61 7.61 0 0 1 7.6-7.61h16.41a7.61 7.61 0 0 1 5.73 12.63l-16.41 18.71a7.61 7.61 0 0 1-13.33-5z"/><path fill="#E0E2E5" fill-rule="nonzero" d="M1406.09 671.3h273.93v66.78h-273.93zm49.13 142.97v-17.62a3.1 3.1 0 0 1 3.3-2.85h23.69a3.11 3.11 0 0 1 3.31 2.85v17.62z"/><path fill="#D0D4D8" fill-rule="nonzero" d="M1406.09 629.17h273.93v34.78h-273.93z"/><path fill="#E0E2E5" fill-rule="nonzero" d="M1706.89 320.37v193h-373.6v-193h-24.94v674h423.47v-674zm-373.6 222.57h373.6v195.15h-373.6zM1707 962.77h-373.64V767.61H1707z"/><path fill="#D0D4D8" fill-rule="nonzero" d="M720 994.32h15.42l-19.51-522.15V472c0-16.28-6.2-28.15-18.94-36.28-13.63-8.68-34.7-13.09-62.65-13.09-28.25 0-48.67 6.43-60.68 19.1-10.19 10.76-11.71 23.56-11.71 30.23 0 5-6 152.87-12.55 315h-.3v7.42c-2.75 67.62-5.59 137.35-8.15 199.94h15.43l1.88-46.76h160zm-5-134.76H561.78l2.3-57.19h148.75zm-5.42-145.19H567.62l2.29-57.19H707.4zM607.63 592.43H670a17.52 17.52 0 0 0 17.5-18.18l-1-26.55h16.81l3.52 94.08h-136.3l3.79-94.08h16.87c-.34 8.34-.69 17.15-1.07 26.48a17.55 17.55 0 0 0 17.51 18.25m-1.54-59.5h63.81c2.41 0 4.35 2.86 4.35 6.38s-1.94 6.38-4.35 6.38h-63.81c-2.39 0-4.34-2.86-4.34-6.38s1.95-6.38 4.34-6.38m-4.34-21.35c0-3.54 2-6.39 4.34-6.39h63.81c2.41 0 4.35 2.85 4.35 6.39s-1.94 6.42-4.35 6.42h-63.81c-2.39 0-4.34-2.9-4.34-6.42m4.34 49.1h63.81c2.41 0 4.35 2.86 4.35 6.38s-1.94 6.38-4.35 6.38h-63.81c-2.39 0-4.34-2.85-4.34-6.38s1.95-6.38 4.34-6.38m-12.39-115c9.47-5.08 22.76-7.55 40.62-7.55 27.39 0 45.69 3.83 55.94 11.72s10.24 17.76 10.24 22.64l2.24 59.84h-16.81l-1-27.86c-.355-9.417-8.096-16.867-17.52-16.86h-56.97c-9.406-.018-17.144 7.402-17.52 16.8l-1.11 27.92h-16.87l2.42-60.33c0-11.51 5.64-20.64 16.34-26.36zM567 729.78h143.12l2.13 57.22H564.7zm-8.14 202.37 2.3-57.19h154.38l2.14 57.19z"/><rect width="194.68" height="67.81" x="876.64" y="926.89" fill="#D0D4D8" fill-rule="nonzero" rx="20.14"/><rect width="194.68" height="67.81" x="876.64" y="851.73" fill="#D0D4D8" fill-rule="nonzero" rx="20.14"/><circle cx="1179.58" cy="896.66" r="97.33" fill="#D0D4D8" fill-rule="nonzero"/><circle cx="1179.58" cy="896.66" r="65.7" fill="#EFF1F2" fill-rule="nonzero"/><path fill="#E0E2E5" fill-rule="nonzero" d="m1198.17 886.88 38.25 22.12c6.272-28.934-10.196-57.96-38.25-67.42zm-18.59 32.19-37.76 21.8c21.742 18.587 53.778 18.587 75.52 0zM1161 886.88v-45.33c-28.067 9.46-44.539 38.506-38.25 67.45z"/><path fill="#E0E2E5" d="m1019 281.78-81.87-59.73h1.11v-13.3h-7.6V0h-9.15v208.75h-7.59v13.3h1.34l-82.08 59.75v15.48h70.36a23.24 23.24 0 0 0 45.14 0H1019z"/></g></svg>