<svg xmlns="http://www.w3.org/2000/svg" viewBox="0 0 1852 994"><g fill="none" fill-rule="evenodd"><path fill="#4E5256" fill-rule="nonzero" d="M0 0h1852.2v994.32H0z"/><path fill="#383B3E" fill-rule="nonzero" d="M1234.34 445.72c40.228 0 72.84 32.612 72.84 72.84v6H1161.5v-6c0-40.228 32.612-72.84 72.84-72.84"/><path fill="#43464A" fill-rule="nonzero" d="M1228.37 524.57h12.05v467.76h-12.05z"/><path fill="#4E5256" fill-rule="nonzero" d="M1248.17 495.92a13.83 13.83 0 1 0-26.35 5.84l6.63 22.81h11.84l6.62-22.81a13.7 13.7 0 0 0 1.26-5.84"/><path fill="#383B3E" fill-rule="nonzero" d="M107.83 824.67h28.46v94.88h-28.46z"/><circle cx="122.06" cy="898.49" r="5.2" fill="#43464A" fill-rule="nonzero"/><path fill="#43464A" fill-rule="nonzero" d="M114.3 831h15.52v54.82H114.3z"/><path fill="#383B3E" fill-rule="nonzero" d="M141.09 824.67h28.46v94.88h-28.46z"/><circle cx="155.32" cy="898.49" r="5.2" fill="#43464A" fill-rule="nonzero"/><path fill="#43464A" fill-rule="nonzero" d="M147.56 831h15.52v54.82h-15.52z"/><path fill="#383B3E" fill-rule="nonzero" d="M174.35 824.67h28.46v94.88h-28.46z"/><circle cx="188.59" cy="898.49" r="5.2" fill="#43464A" fill-rule="nonzero"/><path fill="#43464A" fill-rule="nonzero" d="M180.82 831h15.52v54.82h-15.52z"/><path fill="#383B3E" fill-rule="nonzero" d="M207.62 824.67h28.46v94.88h-28.46z"/><circle cx="221.85" cy="898.49" r="5.2" fill="#43464A" fill-rule="nonzero"/><path fill="#43464A" fill-rule="nonzero" d="M214.09 831h15.52v54.82h-15.52z"/><path fill="#383B3E" fill-rule="nonzero" d="M240.88 824.67h28.46v94.88h-28.46z"/><circle cx="255.11" cy="898.49" r="5.2" fill="#43464A" fill-rule="nonzero"/><path fill="#43464A" fill-rule="nonzero" d="M247.35 831h15.52v54.82h-15.52z"/><path fill="#383B3E" fill-rule="nonzero" d="M107.83 713.72h28.46v94.88h-28.46z"/><circle cx="122.06" cy="787.54" r="5.2" fill="#43464A" fill-rule="nonzero"/><path fill="#43464A" fill-rule="nonzero" d="M114.3 720.06h15.52v54.82H114.3z"/><path fill="#383B3E" fill-rule="nonzero" d="M141.09 713.72h28.46v94.88h-28.46z"/><circle cx="155.32" cy="787.54" r="5.2" fill="#43464A" fill-rule="nonzero"/><path fill="#43464A" fill-rule="nonzero" d="M147.56 720.06h15.52v54.82h-15.52z"/><path fill="#383B3E" fill-rule="nonzero" d="M174.35 713.72h28.46v94.88h-28.46z"/><circle cx="188.59" cy="787.54" r="5.2" fill="#43464A" fill-rule="nonzero"/><path fill="#43464A" fill-rule="nonzero" d="M180.82 720.06h15.52v54.82h-15.52z"/><path fill="#383B3E" fill-rule="nonzero" d="M207.62 713.72h28.46v94.88h-28.46z"/><circle cx="221.85" cy="787.54" r="5.2" fill="#43464A" fill-rule="nonzero"/><path fill="#43464A" fill-rule="nonzero" d="M214.09 720.06h15.52v54.82h-15.52z"/><path fill="#383B3E" fill-rule="nonzero" d="M240.88 713.72h28.46v94.88h-28.46z"/><circle cx="255.11" cy="787.54" r="5.2" fill="#43464A" fill-rule="nonzero"/><path fill="#43464A" fill-rule="nonzero" d="M247.35 720.06h15.52v54.82h-15.52z"/><path fill="#383B3E" fill-rule="nonzero" d="M107.83 602.77h28.46v94.88h-28.46z"/><circle cx="122.06" cy="676.59" r="5.2" fill="#43464A" fill-rule="nonzero"/><path fill="#43464A" fill-rule="nonzero" d="M114.3 609.11h15.52v54.82H114.3z"/><path fill="#383B3E" fill-rule="nonzero" d="M141.09 602.77h28.46v94.88h-28.46z"/><circle cx="155.32" cy="676.59" r="5.2" fill="#43464A" fill-rule="nonzero"/><path fill="#43464A" fill-rule="nonzero" d="M147.56 609.11h15.52v54.82h-15.52z"/><path fill="#383B3E" fill-rule="nonzero" d="M174.35 602.77h28.46v94.88h-28.46z"/><circle cx="188.59" cy="676.59" r="5.2" fill="#43464A" fill-rule="nonzero"/><path fill="#43464A" fill-rule="nonzero" d="M180.82 609.11h15.52v54.82h-15.52z"/><path fill="#383B3E" fill-rule="nonzero" d="M207.62 602.77h28.46v94.88h-28.46z"/><circle cx="221.85" cy="676.59" r="5.2" fill="#43464A" fill-rule="nonzero"/><path fill="#43464A" fill-rule="nonzero" d="M214.09 609.11h15.52v54.82h-15.52z"/><path fill="#383B3E" fill-rule="nonzero" d="M240.88 602.77h28.46v94.88h-28.46z"/><circle cx="255.11" cy="676.59" r="5.2" fill="#43464A" fill-rule="nonzero"/><path fill="#43464A" fill-rule="nonzero" d="M247.35 609.11h15.52v54.82h-15.52zM90.27 475.76h10.64v518.56H90.27zm185.99 0h10.64v518.56h-10.64z"/><path fill="#43464A" fill-rule="nonzero" d="M95.8 819.24V808.6h182.6v10.64zm-5.53 110.95v-10.64H286.9v10.64zm7.42-221.89v-10.64h182.6v10.64zm0-110.95v-10.64h182.6v10.64zm-4.64-110.96v-10.64h191.07v10.64z"/><path fill="#383B3E" fill-rule="nonzero" d="M107.83 491.82h28.46v94.88h-28.46z"/><circle cx="122.06" cy="565.64" r="5.2" fill="#43464A" fill-rule="nonzero"/><path fill="#43464A" fill-rule="nonzero" d="M114.3 498.16h15.52v54.82H114.3z"/><path fill="#383B3E" fill-rule="nonzero" d="M141.09 491.82h28.46v94.88h-28.46z"/><circle cx="155.32" cy="565.64" r="5.2" fill="#43464A" fill-rule="nonzero"/><path fill="#43464A" fill-rule="nonzero" d="M147.56 498.16h15.52v54.82h-15.52z"/><path fill="#383B3E" fill-rule="nonzero" d="M174.35 491.82h28.46v94.88h-28.46z"/><circle cx="188.59" cy="565.64" r="5.2" fill="#43464A" fill-rule="nonzero"/><path fill="#43464A" fill-rule="nonzero" d="M180.82 498.16h15.52v54.82h-15.52z"/><path fill="#383B3E" fill-rule="nonzero" d="M207.62 491.82h28.46v94.88h-28.46z"/><circle cx="221.85" cy="565.64" r="5.2" fill="#43464A" fill-rule="nonzero"/><path fill="#43464A" fill-rule="nonzero" d="M214.09 498.16h15.52v54.82h-15.52z"/><path fill="#383B3E" fill-rule="nonzero" d="M240.88 491.82h28.46v94.88h-28.46z"/><circle cx="255.11" cy="565.64" r="5.2" fill="#43464A" fill-rule="nonzero"/><path fill="#43464A" fill-rule="nonzero" d="M247.35 498.16h15.52v54.82h-15.52zm-73.75-22.4h64.86l5.36-70.75h-75.66zM262 343.67a81 81 0 0 0-11-2.11 67 67 0 0 0-6.78-.33 40.6 40.6 0 0 0-13.53 1.59 35.3 35.3 0 0 0-8.53 3.76 32.6 32.6 0 0 0-8.6 7.79 30.4 30.4 0 0 0-4.13 6.91l-1.56 3.77c-.31-2-.45-35-.17-36.3.87.76 1.72 1.53 2.59 2.27a21.57 21.57 0 0 0 13 5 33 33 0 0 0 3.83-.2 25.8 25.8 0 0 0 6.85-1.45 52.9 52.9 0 0 0 15-8.12c2.72-2.05 5.33-4.26 8-6.44.71-.58 1.33-1.29 2-1.94a3 3 0 0 0-.36-.38c-2.14-1.25-4.24-2.58-6.43-3.72a55.3 55.3 0 0 0-10.46-4.11 41.7 41.7 0 0 0-10.34-1.51 37 37 0 0 0-5.34.45 24.7 24.7 0 0 0-10.28 3.61 19.3 19.3 0 0 0-6 5.51c-.73 1.09-1.42 2.21-2.18 3.4v-15.07a52 52 0 0 0 8.16-.84 33.5 33.5 0 0 0 11.2-4.22 34.7 34.7 0 0 0 10.92-10.48 46.5 46.5 0 0 0 6-12.82c.28-.92.46-1.87.71-2.91l-.49.1-.84.31a120 120 0 0 0-12.87 6c-2.64 1.49-5.28 3-7.86 4.56a59 59 0 0 0-8.69 6.54 28.3 28.3 0 0 0-4.8 5.47c-.87 1.33-1.51 2.81-2.3 4.31-.08-.41-.35-1.69-.44-2.1a33.75 33.75 0 0 0-5.9-12.26 63 63 0 0 0-5.62-7c-2.06-2.17-4-4.46-6.17-6.52-2.91-2.77-6-5.38-9-8-1.21-1.06-2.52-2-3.8-3-.06.16-.12.23-.12.31a63 63 0 0 0 .43 10.09 53.5 53.5 0 0 0 1.9 8.33 37.2 37.2 0 0 0 4.58 9.55 34.9 34.9 0 0 0 6.89 7.72 40.4 40.4 0 0 0 8.07 5.17 43.7 43.7 0 0 0 7.64 2.84v1.27c-.09 4.92-.3 10.7-.39 15.62a19.2 19.2 0 0 0-3.9-7 24.9 24.9 0 0 0-10.44-7 36.8 36.8 0 0 0-11.53-2 23 23 0 0 0-3.18.22c-1.74.18-3.49.31-5.19.64a52.4 52.4 0 0 0-10 3c-2.16.89-4.28 1.87-6.55 2.88 1 1.13 1.79 2.19 2.72 3.12 2.6 2.6 5.22 5.19 7.91 7.7a49 49 0 0 0 8 6 35.7 35.7 0 0 0 11.53 4.74 24 24 0 0 0 9.54.1c3.47-.7 8.34-3.5 11-5.84 0 .56-.56 32.51-.58 32.76-.3-.61-.79-1.2-1.11-1.81a36.3 36.3 0 0 0-6.07-8.37 36 36 0 0 0-12.42-8.44 37.4 37.4 0 0 0-12-2.71 50.3 50.3 0 0 0-12 .67 71 71 0 0 0-9.3 2.24c-2.83.93-5.63 2-8.41 3.05-1.72.68-3.38 1.5-5.13 2.29q.206.144.43.26c5.22 2.65 10.48 5.21 15.89 7.45 3.71 1.53 7.4 3.1 11.17 4.45a102.2 102.2 0 0 0 19.71 5.27c2.15.32 4.31.48 6.47.64a24.7 24.7 0 0 0 6.24-.5 15 15 0 0 0 6.57-2.75c0 .51-.15 6.84-.2 9.62-.12 6.89-.31 30.23-.31 30.23h4.16v-37.31a11.3 11.3 0 0 0 4.94 1.49c1.92.152 3.85.068 5.75-.25a53 53 0 0 0 9.58-2.68 104.5 104.5 0 0 0 17.09-8.46c3.77-2.26 7.44-4.69 11.1-7.13 2.94-2 5.8-4 8.84-6.17zm194.51 650.65H343.1l-20.54-164.16h153.65z"/><circle cx="799.47" cy="354.98" r="85.45" fill="#43464A" fill-rule="nonzero"/><path fill="#4E5256" fill-rule="nonzero" d="M796.02 277.33h6.91v18.26h-6.91zm0 137.05h6.91v18.26h-6.91zm81.11-62.85v6.91h-18.26v-6.91zm-137.05 0v6.91h-18.26v-6.91zm17.57-62.07 5.984-3.455 9.13 15.813-5.984 3.455zm68.524 118.694 5.984-3.455 9.13 15.813-5.984 3.455zm38.821-94.995 3.455 5.984-15.814 9.13-3.455-5.984zm-118.694 68.526 3.455 5.984-15.813 9.13-3.455-5.984zM730.49 319.15l3.455-5.984 15.813 9.13-3.455 5.984zm118.693 68.526 3.455-5.984 15.814 9.13-3.455 5.984zm-13.874-101.671 5.984 3.455-9.13 15.814-5.984-3.455zm-68.534 118.684 5.984 3.455-9.13 15.813-5.984-3.455z"/><circle cx="799.47" cy="354.98" r="65.9" fill="#43464A" fill-rule="nonzero"/><path fill="#4E5256" fill-rule="nonzero" d="M796.02 302.34h6.91v56.1h-6.91z"/><path fill="#4E5256" fill-rule="nonzero" d="M833.73 351.53v6.91h-37.72v-6.91z"/><path fill="#43464A" d="m1665.79 356.22 6.1-48.72h8.19v-16.27h-43.84v-40.74l11.35-11.34c10.5 1.72 35.2 4.95 44-1a24.86 24.86 0 1 0-27.85-41.15c-10 6.75-18.57 33.38-20.55 39.86l-7 6.94v-8h-.35c0-.6 0-1.21.06-1.85.3.76.48 1.17.48 1.17s21.14-51 21.14-62.68c-.001-10.484-7.686-19.382-18.057-20.911-10.371-1.53-20.297 4.774-23.323 14.811a20.85 20.85 0 0 0-9 1.14 21.12 21.12 0 0 0-12.78 27c3.13 8.78 27.45 36.6 37.06 47.5v24.6l-11.44-11.45c-3.69-10.55-12.29-32.47-21.44-37.24a24.834 24.834 0 1 0-23.77 43.61c.26.15.53.28.8.42 10.16 5.33 35.93.93 43.9-.61l11.91 12v17.94h-46.76v16.27h8.2l6.1 48.72h-38.78V239.78h-19.31v116.44h-8.14V239.78h-19.31v22l-17-6.31-35.92 98.2 6.92 2.57H1431V375h291.94v-18.78zm-152.32 0h-33.31l33.31-91.08z"/></g></svg>