<svg xmlns="http://www.w3.org/2000/svg" viewBox="0 0 3840 2160"><g fill="none" fill-rule="evenodd"><path fill="#C1C7CC" fill-rule="nonzero" d="M1894.5 970.17h-635.1a67.06 67.06 0 0 0-52.8 25.71l-46 58.77h667.77z"/><path fill="#B2B9C0" fill-rule="nonzero" d="M2356.68 970.17H1868.6a67.05 67.05 0 0 0-52.79 25.71l-46 58.77h653.93v-17.43a67.05 67.05 0 0 0-67.06-67.05"/><path fill="#C1C7CC" fill-rule="nonzero" d="M3744.88 970.17h-654.12c-37.03 0-67.05 30.02-67.05 67.05v17.43h608.46z"/><path fill="#B2B9C0" fill-rule="nonzero" d="M3840 970.17v84.48h-207.83v-17.43a67 67 0 0 1 67-67.05z"/><path fill="#D0D4D8" fill-rule="nonzero" d="M3840 1025.25v861.09H1415.9q0-26.16.29-51.85.19-19.29.58-38.31c1.85-92.47 6.7-179.9 15.27-260.38.06-.66.13-1.32.2-2s.13-1.15.19-1.72q.36-3.37.74-6.74c.09-.78.17-1.56.26-2.33.3-2.63.6-5.26.9-7.87.28-2.37.55-4.74.84-7.09.41-3.43.82-6.84 1.25-10.23q.39-3.12.79-6.22l.8-6.19q1.79-13.59 3.73-26.87.63-4.26 1.26-8.47 1.18-7.83 2.43-15.53l.87-5.37q2.12-12.78 4.38-25.24 1.63-9 3.38-17.91 1.15-5.93 2.35-11.75c.36-1.77.73-3.52 1.09-5.27l.12-.55q1.16-5.55 2.36-11c0-.16.07-.33.11-.49q1.26-5.73 2.55-11.36.64-2.82 1.31-5.62a733 733 0 0 1 2.67-11.11c.43-1.72.85-3.44 1.28-5.15l.09-.34a932 932 0 0 1 7.15-26.84q.7-2.54 1.43-5c0-.16.09-.32.14-.48l1.44-4.93c.49-1.67 1-3.33 1.48-5a1 1 0 0 0 0-.16 832 832 0 0 1 6.33-20.11v-.08a475 475 0 0 1 1.64-4.93 704 704 0 0 1 8.55-24q1.77-4.66 3.56-9.24a.1.1 0 0 0 0-.08 600 600 0 0 1 7.39-17.92.5.5 0 0 0 .06-.15 610 610 0 0 1 3.79-8.57c.65-1.44 1.3-2.86 2-4.29q2.94-6.39 6-12.57.065-.11.11-.23l1.94-3.86q1-2 2.08-4l.13-.26c.66-1.25 1.31-2.5 2-3.74s1.41-2.63 2.12-3.94l.15-.28q3.12-5.73 6.36-11.25c.74-1.26 1.47-2.5 2.22-3.74s1.49-2.47 2.24-3.69c1.5-2.45 3-4.86 4.56-7.23.71-1.11 1.43-2.21 2.15-3.3l.4-.6 2.1-3.12c.78-1.16 1.57-2.3 2.36-3.44l1.86-2.64c.23-.31.44-.61.66-.92q2.34-3.27 4.73-6.42c.76-1 1.52-2 2.29-3q1.32-1.71 2.66-3.39c.72-.9 1.43-1.8 2.16-2.68 1.06-1.31 2.14-2.6 3.21-3.88 1.44-1.7 2.89-3.38 4.35-5l.58-.65c.64-.72 1.28-1.43 1.93-2.14q1.74-1.92 3.51-3.79c.67-.7 1.33-1.4 2-2.09l.81-.84c.75-.77 1.51-1.53 2.27-2.29s1.81-1.79 2.72-2.68l2.29-2.19.45-.42c.92-.87 1.85-1.72 2.77-2.56s1.87-1.68 2.8-2.51 1.88-1.64 2.83-2.45 1.89-1.6 2.85-2.39l2.67-2.17.29-.23c.8-.64 1.6-1.27 2.41-1.89l.72-.55c.87-.67 1.74-1.33 2.62-2s2-1.45 3-2.16q1.5-1.065 3-2.1c1-.69 2-1.38 3-2s2-1.33 3-2c.8-.52 1.61-1 2.41-1.53l.29-.18.46-.28q1.5-.92 3-1.8c.92-.55 1.85-1.08 2.78-1.62l.34-.19q1.56-.88 3.15-1.74c1-.57 2.11-1.14 3.17-1.69s2.13-1.09 3.2-1.62 1.95-1 2.93-1.43l.3-.14c1.08-.51 2.17-1 3.26-1.5 2-.9 4-1.77 6-2.59q2.16-.88 4.35-1.72c1-.37 2-.74 2.94-1.09s2.11-.76 3.17-1.12l.62-.21c1-.34 2-.68 3-1 2.29-.74 4.61-1.44 6.94-2.08s4.68-1.26 7-1.82c1.19-.29 2.38-.56 3.57-.82s2.34-.5 3.51-.74h.18q3.54-.7 7.15-1.28h.1c1.21-.19 2.42-.38 3.64-.55a197 197 0 0 1 15-1.59h.06c1.67-.12 3.35-.21 5-.28l2.45-.11c1.37-.05 2.76-.09 4.14-.11H3840z"/><path fill="#A4ABB3" fill-rule="nonzero" d="m1728.5 1025.25-130.28 460.18c-48 20-104.06 37.08-166.16 50.32q2.73-25.66 6-50.37c36.39-277.27 122.38-460.13 290.44-460.13"/><path fill="#E0E2E5" fill-rule="nonzero" d="M1728.5 1025.25c-225 0-302.87 327.65-311.73 770.93q-.37 19-.58 38.31-.3 25.69-.29 51.85H807.15q0-26.16.29-51.85v-4.73q.15-12.09.36-24l.18-9.53c8.86-443.28 86.75-770.93 311.73-770.93z"/><path fill="#B2B9C0" fill-rule="nonzero" d="M1728.5 1025.25c-168.06 0-254 182.86-290.49 460.18a2031 2031 0 0 0-6 50.37l-59.72 11.2c-78.22 12.85-164.1 20-254.22 20s-176-7.1-254.18-20l-41-7.38a2112 2112 0 0 1 6.38-54.23c36.44-277.32 122.42-460.18 290.49-460.18z"/><rect width="357.2" height="318.84" x="2220.55" y="1136.95" fill="#A4ABB3" fill-rule="nonzero" rx="42.2"/><rect width="357.2" height="318.84" x="3478.55" y="1136.95" fill="#A4ABB3" fill-rule="nonzero" rx="42.2"/><path fill="#E0E2E5" fill-rule="nonzero" d="M3336.39 1098.65h-615.77a36.74 36.74 0 0 0-36.75 36.74v662.35c0 20.296 16.454 36.75 36.75 36.75h615.77a36.74 36.74 0 0 0 36.74-36.75v-662.35c0-20.29-16.45-36.74-36.74-36.74"/><rect width="213.82" height="277.65" x="2742.68" y="1178.15" fill="#A4ABB3" fill-rule="nonzero" rx="36.75"/><rect width="213.82" height="277.65" x="3100.51" y="1178.15" fill="#A4ABB3" fill-rule="nonzero" rx="36.75"/><path fill="#B2B9C0" fill-rule="nonzero" d="M3016.94 1098.65h23.12v735.84h-23.12z"/><path fill="#D0D4D8" fill-rule="nonzero" d="M2186.61 1238.83h436.9v25.24h-436.9zm1252.25 0H3840v25.24h-401.14z"/><path fill="#B2B9C0" fill-rule="nonzero" d="M863.88 1547a1243 1243 0 0 1-41-7.38zm568.12-11.2q-29 6.18-59.75 11.24zm166.34-50.37h-.14z"/><path fill="#FFF" fill-rule="nonzero" d="M1397.13 1597.19c-34.59 67.15-124.05 94.15-171.35 109.87V1618c50.88-3.23 100.55-8.77 148.53-16.57h.3l2.31-.44zM1028.08 1619v88c-46.43-15.42-133.44-41.72-169.37-106.16l.74.13h.38a1539 1539 0 0 0 168.25 18.03m388.69 177.18q-.37 19-.58 38.31H807.43l.06-4.73q.15-12.09.36-24l.18-9.53z"/><path fill="#E0E2E5" fill-rule="nonzero" d="M3840 1098.65V1137h-446.87v-1.56a56.5 56.5 0 0 0-13.55-36.74zm-2132.28 0h969.71a56.45 56.45 0 0 0-13.56 36.74v1.61h-967zm969.71 735.84H1416.19q.19-19.29.58-38.31h1247.1v1.56a56.46 56.46 0 0 0 13.56 36.75M3840 1796.18v38.31h-460.42a56.5 56.5 0 0 0 13.55-36.75v-1.56z"/><rect width="344.63" height="735.84" x="1769.8" y="1098.65" fill="#C1C7CC" fill-rule="nonzero" rx="36.75"/><rect width="213.82" height="277.65" x="1835.2" y="1178.15" fill="#A4ABB3" fill-rule="nonzero" rx="36.75"/><path fill="#C1C7CC" fill-rule="nonzero" d="M0 .45h3840v174.42H0z"/><path fill="#EFF1F2" fill-rule="nonzero" d="M0 1886.34h3840V2160H0z"/><path fill="#7D8389" fill-rule="nonzero" d="M3796.81.54v174.7h-209.93V.54h-43.19v174.7h-209.93V.54h-43.19v174.7h-209.93V.54h-43.19v174.7h-209.93V.54h-43.19v174.7H2574.4V.54h-43.19v174.7h-209.93V.54h-43.2v174.7h-209.92V.54H2025v174.7h-210V.54h-43.2v174.7h-209.88V.54h-43.2v174.7h-209.51V0H1266v175.24h-210.33V.54h-43.19v174.7H802.55V.54h-43.19v174.7H549.43V.54h-43.19v174.7H296.31V.54h-43.19v174.7H43.19V.54H0v273.34h253.12l265.44 265.44 20.79 20.78v1390.75h100.36V560.11l20.79-20.79 265.43-265.44h657.66L1849 539.32l20.79 20.78v1390.75h100.36V560.11l20.85-20.79 265.44-265.44h657.66l265.44 265.44 20.78 20.78v1390.75h100.36V560.11l20.8-20.79 265.43-265.44H3840V.54zM539.35 418.16 395.06 273.88h144.29zm100.36 0V273.88H784zm1230.11 0-144.29-144.28h144.29zm100.36 0V273.88h144.29zm1230.11 0L3056 273.88h144.28zm100.36 0V273.88h144.29z"/><path fill="#595E62" fill-rule="nonzero" d="M936.31 1759.55h636.9v36.89h-636.9z"/><path fill="#595E62" fill-rule="nonzero" d="M973.06 1762.67h25.24v188.19h-25.24zm538.16 0h25.24v188.19h-25.24zm675.39-75.13h139.93v263.32h-139.93zm169.46 0H2496v263.32h-139.93zM921.22 435h667.09v192.59H921.22z"/><path fill="#C1C7CC" fill-rule="nonzero" d="M1002.17 273.88h32.54v161.13h-32.54zm472.65 0h32.54v161.13h-32.54z"/><path fill="#D0D4D8" fill-rule="nonzero" d="M1465.19 564.18H1523v29.45h-57.81zM1523 549.4v59l45.31-29.51zm-288.27 2.6H1073.2v12.14h161.53zm-43.5 20.8h-118V585h118zm16.12 20.79H1073.2v12.14h134.15zM1427.14 552h-149.75v12.14h149.75zm-5.79 20.8h-144V585h144zm-19.59 20.79h-124.37v12.14h124.37zm45.69-122H1073.2v33.5h374.25zm-403.11 92.56h-57.81v29.45h57.81zm-57.81 44.23v-59l-45.31 29.5z"/><path d="M0 2047.83h3698.07v29.49H0z"/><path d="M0 2018.66h3698.07v29.49H0z"/></g></svg>