<svg xmlns="http://www.w3.org/2000/svg" viewBox="0 0 3840 2160"><g fill="none" fill-rule="evenodd"><path fill="#C1C7CC" fill-rule="nonzero" d="M0 .45h3840v174.42H0z"/><path fill="#EFF1F2" fill-rule="nonzero" d="M0 1886.34h3840V2160H0z"/><path fill="#7D8389" fill-rule="nonzero" d="M3796.81.54v174.7h-209.93V.54h-43.19v174.7h-209.93V.54h-43.19v174.7h-209.93V.54h-43.19v174.7h-209.93V.54h-43.19v174.7H2574.4V.54h-43.19v174.7h-209.93V.54h-43.2v174.7h-209.92V.54H2025v174.7h-210V.54h-43.2v174.7h-209.88V.54h-43.2v174.7h-209.51V0H1266v175.24h-210.33V.54h-43.19v174.7H802.55V.54h-43.19v174.7H549.43V.54h-43.19v174.7H296.31V.54h-43.19v174.7H43.19V.54H0v273.34h253.12l265.44 265.44 20.79 20.78v1390.75h100.36V560.11l20.79-20.79 265.43-265.44h657.66L1849 539.32l20.79 20.78v1390.75h100.36V560.11l20.85-20.79 265.44-265.44h657.66l265.44 265.44 20.78 20.78v1390.75h100.36V560.11l20.8-20.79 265.43-265.44H3840V.54zM539.35 418.16 395.06 273.88h144.29zm100.36 0V273.88H784zm1230.11 0-144.29-144.28h144.29zm100.36 0V273.88h144.29zm1230.11 0L3056 273.88h144.28zm100.36 0V273.88h144.29z"/><path fill="#595E62" fill-rule="nonzero" d="M936.31 1759.55h636.9v36.89h-636.9z"/><path fill="#595E62" fill-rule="nonzero" d="M973.06 1762.67h25.24v188.19h-25.24zm538.16 0h25.24v188.19h-25.24zM921.22 435h667.09v192.59H921.22z"/><path fill="#C1C7CC" fill-rule="nonzero" d="M1002.17 273.88h32.54v161.13h-32.54zm472.65 0h32.54v161.13h-32.54z"/><path fill="#D0D4D8" fill-rule="nonzero" d="M1465.19 564.18H1523v29.45h-57.81zM1523 549.4v59l45.31-29.51zm-288.27 2.6H1073.2v12.14h161.53zm-43.5 20.8h-118V585h118zm16.12 20.79H1073.2v12.14h134.15zM1427.14 552h-149.75v12.14h149.75zm-5.79 20.8h-144V585h144zm-19.59 20.79h-124.37v12.14h124.37zm45.69-122H1073.2v33.5h374.25zm-403.11 92.56h-57.81v29.45h57.81zm-57.81 44.23v-59l-45.31 29.5z"/><path d="M0 2047.83h3698.07v29.49H0z"/><path d="M0 2018.66h3698.07v29.49H0z"/><path fill="#595E62" fill-rule="nonzero" d="M2186.61 1687.54h139.93v263.32h-139.93zm169.46 0H2496v263.32h-139.93z"/></g></svg>