<svg xmlns="http://www.w3.org/2000/svg" viewBox="0 0 3840 2160"><g fill="none" fill-rule="evenodd"><path fill="#232628" fill-rule="nonzero" d="M0 0h3840v2160H0z"/><path fill="#43464A" fill-rule="nonzero" d="M3177.79 970.33h-635.22a67.06 67.06 0 0 0-52.68 25.57l-46 58.43h667.76z"/><path fill="#383B3E" fill-rule="nonzero" d="M3640 970.33h-488.2a67.08 67.08 0 0 0-52.68 25.57l-46 58.43H3707v-16.94c0-37.015-29.985-67.032-67-67.06"/><path fill="#595E62" fill-rule="nonzero" d="M3840 1025.34v861H2699.35q0-26.23.29-52 .14-13 .36-25.78l.22-12.22c1.85-92.53 6.7-180 15.28-260.55 25.29-237.73 83-414.75 191.35-481.45a192 192 0 0 1 64.59-25.21l3.9-.72c1.3-.23 2.62-.44 3.93-.64l2.64-.39h.24l2.23-.29h.18l1.84-.22c.58-.08 1.16-.15 1.74-.2l1.16-.12a.8.8 0 0 1 .22 0l1.33-.13a.5.5 0 0 1 .17 0l2.15-.2 2.15-.17 2-.14 2.08-.13 1.63-.08c.85 0 1.7-.08 2.56-.11l2.43-.07H3840z"/><path fill="#2E3033" fill-rule="nonzero" d="m3011.78 1025.28-130.27 460.18c-48 20-104.06 37.08-166.17 50.32q2.73-25.66 6-50.37c36.4-277.28 122.39-460.13 290.44-460.13"/><path fill="#656A6F" fill-rule="nonzero" d="M3011.74 1025.33h-608.68c-239.95 0-312.57 372.77-312.57 861h608.68c0-488.23 72.62-861 312.57-861"/><path fill="#383B3E" fill-rule="nonzero" d="M3011.85 1025.33c-168.12 0-254.14 182.93-290.6 460.37a2025 2025 0 0 0-6 50.39l-59.76 11.24h.06c-78.22 12.18-164.11 18.91-254.22 18.91s-176-6.73-254.18-18.91l-41-7h-.15a2038 2038 0 0 1 6.39-54.29c36.47-277.64 122.56-460.71 290.82-460.71z"/><path fill="#2E3033" fill-rule="nonzero" d="M3840 1143v307.6a42.06 42.06 0 0 1-21.2 5.7h-272.6c-23.306 0-42.2-18.894-42.2-42.2v-234.57a42.19 42.19 0 0 1 42.2-42.19h272.6a42.06 42.06 0 0 1 21.2 5.66"/><path fill="#595E62" fill-rule="nonzero" d="M3470 1239.34h370v25h-370z"/><path fill="#383B3E" fill-rule="nonzero" d="M2715.32 1535.83q-29 6.18-59.74 11.24zm166.3-50.5a.5.5 0 0 1-.13.06v-.06z"/><path fill="#7D8389" fill-rule="nonzero" d="M2680.35 1597.09c-34.59 67.15-124 94.16-171.35 109.88v-89.06c50.88-3.23 100.56-8.77 148.53-16.58h.3l2.31-.43zM2311 1619.06v88c-46.43-15.42-133.44-41.73-169.37-106.16l.74.13h.38a1542 1542 0 0 0 168.25 18.03m389 177.27v38h-609.34q.23-19.12.6-38z"/><path fill="#7D8389" fill-rule="nonzero" d="M2700 1796.33q-.37 18.86-.6 38h-608.74q.23-19.12.6-38z"/><path fill="#656A6F" fill-rule="nonzero" d="M3840 1098.34v38h-859.66l10.76-38zm-1140 698h1140v38H2700z"/><rect width="345" height="736" x="3053" y="1098.33" fill="#43464A" fill-rule="nonzero" rx="36.75"/><rect width="214" height="278" x="3118" y="1178.33" fill="#2E3033" fill-rule="nonzero" rx="36.78"/><path fill="#383B3E" fill-rule="nonzero" d="M407.48 1037.39v16.95H0v-84h340.43a67 67 0 0 1 67.05 67.05"/><path fill="#43464A" fill-rule="nonzero" d="M1728.65 970.33h-654.11a67.06 67.06 0 0 0-67.06 67.06v16.94H1616z"/><path fill="#383B3E" fill-rule="nonzero" d="M1682.54 970.33h488.19a67.06 67.06 0 0 1 52.68 25.57l46 58.43h-653.93v-16.94c0-37.036 30.024-67.06 67.06-67.06"/><path fill="#595E62" fill-rule="nonzero" d="M2594.67 1886.34H0v-861h2274.75q3.61 0 7.17.12a203.2 203.2 0 0 1 57.08 9.8h.06c135.87 44.41 208.08 234.36 238.24 500.33q1.2 10.7 2.33 21.55 2.74 26.61 5 54.15a2665 2665 0 0 1 4.48 65.22q3.33 58.26 4.64 119.81.42 18.86.64 38c.193 17.187.28 34.527.28 52.02"/><path fill="#2E3033" fill-rule="nonzero" d="M2578.33 1535.83c-62.1-13.24-118.16-30.27-166.16-50.32l-98.84-349.12-10.76-38-20.68-73.06c168.07 0 254 182.85 290.49 460.18a2109 2109 0 0 1 5.95 50.32"/><rect width="357" height="319" x="204.48" y="1137.33" fill="#2E3033" fill-rule="nonzero" rx="42.2"/><rect width="357" height="319" x="1462.48" y="1137.33" fill="#2E3033" fill-rule="nonzero" rx="42.2"/><path fill="#656A6F" fill-rule="nonzero" d="M1356.48 1135.08c0-20.293-16.447-36.75-36.74-36.75H704.23c-20.294 0-36.75 16.456-36.75 36.75v662.51c0 20.293 16.457 36.74 36.75 36.74h615.51c20.29 0 36.74-16.45 36.74-36.74z"/><rect width="214" height="278" x="726.48" y="1178.33" fill="#2E3033" fill-rule="nonzero" rx="36.78"/><rect width="214" height="278" x="1084.48" y="1178.33" fill="#2E3033" fill-rule="nonzero" rx="36.78"/><path fill="#383B3E" fill-rule="nonzero" d="M1000.48 1098.33h23v736h-23z"/><path fill="#595E62" fill-rule="nonzero" d="M170.48 1239.33h437v25h-437zm1252 0h437v25h-437z"/><path fill="#656A6F" fill-rule="nonzero" d="M661 1098.34a55.72 55.72 0 0 0-13.56 36.45v1.55H0v-38zm715.48 38v-1.55a55.72 55.72 0 0 0-13.56-36.45h939.63l10.76 38zm-715.48 698H0v-38h647.48v1.54a55.8 55.8 0 0 0 13.52 36.46m716.48-38.01v1.55a55.77 55.77 0 0 1-13.55 36.45h1227.55v-38z"/><path fill="#43464A" fill-rule="nonzero" d="M98.48 1135.08v662.51c0 20.293-16.447 36.75-36.74 36.75H0v-736h61.74c20.29 0 36.74 16.45 36.74 36.74"/><path fill="#2E3033" fill-rule="nonzero" d="M32.48 1215.12v204.43c.006 18.654-13.954 34.36-32.48 36.54v-277.5c18.525 2.176 32.486 17.878 32.48 36.53"/><rect width="345" height="736" x="1925.48" y="1098.33" fill="#43464A" fill-rule="nonzero" rx="36.75"/><rect width="214" height="278" x="1990.48" y="1178.33" fill="#2E3033" fill-rule="nonzero" rx="36.78"/><path fill="#43464A" fill-rule="nonzero" d="M0 1886.34h3840V2160H0z"/><path fill="#2E3033" fill-rule="nonzero" d="M936.31 1759.55h636.9v36.89h-636.9z"/><path fill="#2E3033" fill-rule="nonzero" d="M973.06 1762.67h25.24v188.19h-25.24zm538.16 0h25.24v188.19h-25.24zm1197.89-75.13h139.93v263.32h-139.93zm169.46 0h139.93v263.32h-139.93z"/><path fill="#7D8389" fill-rule="nonzero" d="M921.22 435h667.09v192.59H921.22z"/><path fill="#383B3E" fill-rule="nonzero" d="M1002.17 273.88h32.54v161.13h-32.54zm472.65 0h32.54v161.13h-32.54z"/><path fill="#43464A" fill-rule="nonzero" d="M1465.19 564.18H1523v29.45h-57.81zM1523 549.4v59l45.31-29.51zm-288.27 2.6H1073.2v12.14h161.53zm-43.5 20.8h-118V585h118zm16.12 20.79H1073.2v12.14h134.15zM1427.14 552h-149.75v12.14h149.75zm-5.79 20.8h-144V585h144zm-19.59 20.79h-124.37v12.14h124.37zm45.69-122H1073.2v33.5h374.25zm-403.11 92.56h-57.81v29.45h57.81zm-57.81 44.23v-59l-45.31 29.5z"/><path d="M0 2047.83h3698.07v29.49H0z"/><path d="M0 2018.66h3698.07v29.49H0z"/><path d="M0 2047.83h3698.07v29.49H0z"/><path d="M0 2018.66h3698.07v29.49H0z"/><path fill="#383B3E" fill-rule="nonzero" d="M2196.45 1547a1317 1317 0 0 1-41-7.38z"/><path fill="#C1C7CC" fill-rule="nonzero" d="M0 .45h3840v174.42H0z"/><path fill="#7D8389" fill-rule="nonzero" d="M3796.81.54v174.7h-209.93V.54h-43.19v174.7h-209.93V.54h-43.19v174.7h-209.93V.54h-43.19v174.7h-209.93V.54h-43.19v174.7H2574.4V.54h-43.19v174.7h-209.93V.54h-43.2v174.7h-209.92V.54H2025v174.7h-210V.54h-43.2v174.7h-209.88V.54h-43.2v174.7h-209.51V0H1266v175.24h-210.33V.54h-43.19v174.7H802.55V.54h-43.19v174.7H549.43V.54h-43.19v174.7H296.31V.54h-43.19v174.7H43.19V.54H0v273.34h253.12l265.44 265.44 20.79 20.78v1390.75h100.36V560.11l20.79-20.79 265.43-265.44h657.66L1849 539.32l20.79 20.78v1390.75h100.36V560.11l20.85-20.79 265.44-265.44h657.66l265.44 265.44 20.78 20.78v1390.75h100.36V560.11l20.8-20.79 265.43-265.44H3840V.54zM539.35 418.16 395.06 273.88h144.29zm100.36 0V273.88H784zm1230.11 0-144.29-144.28h144.29zm100.36 0V273.88h144.29zm1230.11 0L3056 273.88h144.28zm100.36 0V273.88h144.29z"/></g></svg>