<svg xmlns="http://www.w3.org/2000/svg" viewBox="0 0 363 356"><g fill="none" fill-rule="evenodd"><path d="M257.462 107.36h94.83v107.36h-94.83zm-152.09 0h91.25v107.36h-91.25zm100.2 0h42.95v107.36h-42.95z"/><path fill="#A4ABB3" fill-rule="nonzero" d="M248.522 236.18h8.95v118.09h-8.95zm0-128.82h8.95v107.36h-8.95z"/><path fill="#FFF" fill-rule="nonzero" d="M248.522 107.35h103.77V85.88h-146.72v21.47zm8.95 107.36h-51.9v21.47h146.72v-21.47z"/><path fill="#8A9097" fill-rule="nonzero" d="M103.622 85.88h95v21.47h-95zm0 128.83h95v21.47h-95z"/><path fill="#A4ABB3" fill-rule="nonzero" d="M352.292 85.88v268.4h8.95V85.88zm-246.92 21.47V85.88h-8.95v268.4h8.95V214.71zm100.2 0V85.88h-8.94v268.4h8.94V214.71z"/><path fill="#C1C7CC" d="M215.752 81.38h-49.57L160.052.93h60.84z"/><path fill="#71767C" fill-rule="nonzero" d="M169.562 81.38h42.81v4.5h-42.81zM160.052 1h60.84v11.26h-60.84z"/><path fill="#C1C7CC" d="M45.612 354.26s-23.42-46.71-19.37-71.08c3.59-21.52 19.37-27.26 25.83-35.16s5.74-20.8 5.74-20.8h28.95s-.72 12.91 5.74 20.8 22.17 13.7 25.77 35.22c4 24.33-19.37 71.08-19.37 71.08z"/><path fill="#D0D4D8" d="M13.122 354.26s-14.56-29.03-12.08-44.19c2.25-13.41 12.08-17 16.09-21.89s3.58-13 3.58-13h18.05s-.44 8 3.58 13 13.85 8.48 16.08 21.89c2.52 15.15-12 44.24-12 44.24z"/><path fill="#71767C" fill-rule="nonzero" d="M246.362 12.52h96.62-49.23z"/><path fill="#8A9097" fill-rule="nonzero" d="M255.302 78.73h78.74l6.53-48.32h-91.79z"/><path fill="#71767C" fill-rule="nonzero" d="M260.682 78.73h67.99v7.16h-67.99zm-14.32-65.93v17.89h96.62V12.8z"/><path fill="#D0D4D8" d="M254.382 83.18h-39.36l-4.87-46.827h48.31z"/><path fill="#C1C7CC" fill-rule="nonzero" d="M217.702 83.18h34v2.69h-34z"/><path fill="#FFF" fill-rule="nonzero" d="M210.152 35.2h48.3v6.74h-48.3z"/></g></svg>