<svg xmlns="http://www.w3.org/2000/svg" viewBox="0 0 493 416"><g fill="none" fill-rule="evenodd"><path fill="#D0D4D8" d="M491.42 180.1h-83.63l-83.78-.29c.006 11.36 9.21 20.569 20.57 20.58h4l-11.85 213.34h13.37l11.83-212.83h51.23l40.49-.15 11.83 213h13l-11.82-213.36h3.92c11.475 0 20.79-9.276 20.84-20.75z"/><path fill="#43464A" d="m70.84 414.32 9.84-190.93h85.62l9.85 190.93h12.35l-16.17-312.48h-12.35l5.59 109H81.35l5.65-109H74.66L58.49 414.32z"/><path fill="#8A9097" fill-rule="nonzero" d="m261.69 5.86 36.23 75.11h6.18L267.87 5.86a9.19 9.19 0 0 0-8.38-5.22h-6.18a9.31 9.31 0 0 1 8.38 5.22"/><path fill="#43464A" fill-rule="nonzero" d="M304.1 80.97H298L261.77 5.86a9.19 9.19 0 0 0-8.38-5.22H145.06a9.26 9.26 0 0 0-9.26 9.19 9.7 9.7 0 0 0 .88 4l36.68 76h214.66a6.85 6.85 0 0 0 6.84-6.91v-2.5l-90.76.52z"/><path fill="#8A9097" fill-rule="nonzero" d="M.58 89.34h272.28v12.5H.58z"/><path fill="#43464A" fill-rule="nonzero" d="M45.92 46.57H75.1v43.29H45.92z"/><path fill="#C1C7CC" fill-rule="nonzero" d="M272.86 89.34v12.5h54.72l-16.14 312.48h12.2l9.85-190.93h87.31l9.85 190.93h12.34l-16.17-312.48h51.52v-12.5zm61.37 121.48 5.66-109h74.59l5.66 109z"/></g></svg>