<svg xmlns="http://www.w3.org/2000/svg" viewBox="0 0 557 492"><g fill="none" fill-rule="evenodd" transform="translate(.415 .47)"><path fill="#D0D4D8" d="m481.9 254.47-84.12.27-84.11-.27a20.87 20.87 0 0 0 20.88 20.88h3.87l-11.85 213.8H340l11.86-213.72 40.65.17h10.62l40.66-.17 11.81 213.72H469l-11.86-213.78h3.87a20.88 20.88 0 0 0 20.89-20.9"/><path fill="#43464A" d="m70.6 489.85 9.89-191.53h85.89l9.9 191.53h12.36l-16.19-313.44h-12.36l5.66 109.55H81.13l5.66-109.55H74.42L58.24 489.85z"/><path fill="#8A9097" fill-rule="nonzero" d="M0 164.05h349.25v12.36H0z"/><rect width="203.66" height="132.32" x="81.16" fill="#8A9097" fill-rule="nonzero" rx="10.28" transform="rotate(-180 182.99 66.16)"/><rect width="203.66" height="132.32" x="74.05" fill="#656A6F" fill-rule="nonzero" rx="10.28" transform="rotate(-180 175.88 66.16)"/><path fill="#43464A" fill-rule="nonzero" d="M137.68 164.77h36.67l13.22-100.64h-33.26z"/><path fill="#43464A" fill-rule="nonzero" d="M223.91 164.76h-61.92v-8.37h61.92z"/><path fill="#595E62" fill-rule="nonzero" d="m187.57 64.13 36.34 68.19h-45.3z"/><path fill="#C1C7CC" fill-rule="nonzero" d="M349.25 164.05v12.36h54.93L388 489.85h12.36l9.89-191.53h87.56l9.89 191.53h12.36l-16.18-313.44h51.29v-12.36zM410.89 286l5.65-109.55h75L497.17 286z"/><path fill="#43464A" fill-rule="nonzero" d="M387.09 164.05H259.37v-12.24h127.72z"/></g></svg>