<svg xmlns="http://www.w3.org/2000/svg" viewBox="0 0 795 815"><g fill="none" fill-rule="evenodd" transform="translate(.25 .85)"><path fill="#C1C7CC" d="M378 0a9.38 9.38 0 0 0-9.38 9.38v713.33h18.77V9.38A9.39 9.39 0 0 0 378 0"/><path fill="#8A9097" d="M393.75 751.63v-28.92h-31.56v28.92l-82.28 22.05v38.79h196.12v-38.79zm150.18-581.25H212.01L368.59 29.9h18.77z"/><path fill="#43464A" d="M212.01 170.38H0L368.59 29.9z"/><path fill="#C1C7CC" d="M543.93 170.38h212.01L387.36 29.9z"/><path fill="#43464A" fill-rule="nonzero" d="M0 170.15h212c0 20.716-16.794 37.51-37.51 37.51h-137C16.782 207.649 0 190.858 0 170.15"/><path fill="#8A9097" fill-rule="nonzero" d="M543.93 170.15h212c0 20.716-16.794 37.51-37.51 37.51h-137c-20.716 0-37.51-16.794-37.51-37.51z"/><path fill="#43464A" fill-rule="nonzero" d="M212 170.15h331.93c0 20.716-16.794 37.51-37.51 37.51h-256.9A37.51 37.51 0 0 1 212 170.15M631.05 414.9 499.67 812.47h15.66L646.71 414.9z"/><path fill="#43464A" fill-rule="nonzero" d="m574.6 812.47-59.87-181.2h-15.66l59.88 181.2z"/><rect width="146.79" height="13.19" x="533.87" y="718.23" fill="#8A9097" fill-rule="nonzero" rx="6.595"/><path fill="#C1C7CC" fill-rule="nonzero" d="M777.84 414.9 646.46 812.47h15.65L793.49 414.9z"/><path fill="#C1C7CC" fill-rule="nonzero" d="M631.74 604.89h109.81v26.39H631.74z"/><path fill="#8A9097" fill-rule="nonzero" d="M484.95 604.89h146.79v26.39H484.95z"/><path fill="#C1C7CC" fill-rule="nonzero" d="m721.39 812.47-59.87-181.2h-15.66l59.87 181.2z"/><path fill="#8A9097" fill-rule="nonzero" d="m793.5 414.9-8.73 26.39H622.33l8.72-26.39zm-13.09 39.58-8.71 26.39H609.25l8.72-26.39zm-13.08 39.58-8.71 26.39H596.17l8.72-26.39zm-13.07 39.58-8.73 26.39H583.09l8.73-26.39z"/><path fill="#C1C7CC" fill-rule="nonzero" d="M314.32 505.14H519.8v12.49H314.32z"/><path fill="#43464A" fill-rule="nonzero" d="M230.21 812.47 119.1 517.63h-15.66l111.12 294.84z"/><path fill="#43464A" fill-rule="nonzero" d="m103.44 812.47 111.12-294.84h15.65L119.1 812.47z"/><path fill="#8A9097" fill-rule="nonzero" d="M64.09 505.14h250.23v12.49H64.09zm105 153.31h245.33v13.19H169.09a6.6 6.6 0 0 1-6.6-6.6 6.6 6.6 0 0 1 6.6-6.59"/><path fill="#C1C7CC" fill-rule="nonzero" d="M480.45 812.47 369.33 517.63h-15.65l111.11 294.84z"/><path fill="#C1C7CC" fill-rule="nonzero" d="m353.68 812.47 111.11-294.84h15.66L369.33 812.47zm-85.42-329.996-4.848-1.825 25.32-67.22 4.847 1.826z"/><path fill="#43464A" d="M249.12 506.06h27.6l4.71-58.66h-37.02z"/></g></svg>