<svg xmlns="http://www.w3.org/2000/svg" viewBox="0 0 583 705"><g fill="none" fill-rule="evenodd"><path fill="#2E3033" d="m495.225 469.15-84.12.27-84.11-.27c.006 11.528 9.352 20.87 20.88 20.87h3.87l-11.85 213.81h13.4l11.85-213.72 40.66.17h10.61l40.66-.17 11.85 213.72h13.4l-11.85-213.81h3.88c11.524-.006 20.864-9.346 20.87-20.87M96.955 703.83l9.89-191.53h85.89l9.89 191.53h12.36l-16.18-313.44h-12.36l5.65 109.55h-84.61l5.65-109.55h-12.36l-16.18 313.44z"/><path fill="#383B3E" fill-rule="nonzero" d="M26.355 378.03h349.25v12.36H26.355z"/><path fill="#43464A" fill-rule="nonzero" d="M375.605 378.02v12.36h54.93l-16.19 313.45h12.36l9.9-191.53h87.56l9.89 191.53h12.36l-16.19-313.44h51.3v-12.37zm61.63 121.91 5.66-109.55h75l5.66 109.55z"/><path fill="#43464A" d="m168.705 469.15-84.11.27-84.12-.27c.006 11.528 9.352 20.87 20.88 20.87h3.88l-11.86 213.81h13.4l11.85-213.72 40.66.17h10.61l40.66-.17 11.85 213.72h13.4l-11.85-213.81h3.87c11.528 0 20.874-9.342 20.88-20.87"/><path fill="#43464A" fill-rule="nonzero" d="M236.675 370.34h-135.93l21.69 7.68h92.54z"/><path fill="#383B3E" d="M200.215 370.34c5.28-5.75 6.71-14 6.71-24.67h-79.57c0 10.63 1.43 18.92 6.71 24.67z"/><path fill="#383B3E" fill-rule="nonzero" d="M548.345 370.34h-135.93l21.69 7.68h92.55z"/><path fill="#43464A" d="M511.885 370.34c5.29-5.75 6.72-14 6.72-24.67h-79.58c0 10.63 1.44 18.92 6.72 24.67z"/><path fill="#2E3033" fill-rule="nonzero" d="M322.855 282.41c0-10 8.65-10.05 8.65-19.93l.59-16.17h-1.07a.89.89 0 0 1-.79-.88v-6.41a1.91 1.91 0 0 1 1.58-1.87q.165-.015.33 0h11.44a2 2 0 0 1 .35 0 1.9 1.9 0 0 1 1.54 1.87v6.52a.89.89 0 0 1-.88.79h-1l.59 16.16c0 9.87 8.61 9.94 8.61 19.93v95.6h-30z"/><path fill="#43464A" fill-rule="nonzero" d="M256.105 346.8a25 25 0 0 0 3.7-.3c1.88-.3 5-2.07 6.76-6.37 1.26-3 2.36-7.68-.07-14.44a57 57 0 0 0-5.44-11.33h-12a57 57 0 0 0-5.43 11.34c-2.42 6.76-1.32 11.42-.06 14.44 1.79 4.3 4.88 6.06 6.77 6.37a26 26 0 0 0 3.69.29z"/><path fill="#43464A" fill-rule="nonzero" d="M254.065 346.73h2.05v28.99h-2.05z"/><path fill="#43464A" fill-rule="nonzero" d="m262.345 378.02-14.49.01 6.22-2.37h2.05z"/><path fill="#D0D4D8" fill-rule="nonzero" d="M257.795 346.73h-1.69v1.69c0-.933.757-1.69 1.69-1.69m-3.73 1.69v-1.69h-1.69a1.7 1.7 0 0 1 1.69 1.69"/><path fill="#383B3E" fill-rule="nonzero" d="M389.475 346.8a25 25 0 0 0 3.69-.3c1.89-.3 5-2.07 6.76-6.37 1.26-3 2.36-7.68-.07-14.44a57 57 0 0 0-5.38-11.33h-12a57.3 57.3 0 0 0-5.44 11.34c-2.42 6.76-1.31 11.42-.06 14.44 1.79 4.3 4.89 6.06 6.77 6.37a26 26 0 0 0 3.7.29z"/><path fill="#383B3E" fill-rule="nonzero" d="M387.445 346.73h2.05v28.99h-2.05z"/><path fill="#383B3E" fill-rule="nonzero" d="m395.725 378.02-14.49.01 6.22-2.37h2.05zm-4.55-31.29h-1.7v1.69a1.69 1.69 0 0 1 1.7-1.69m-3.7 1.69v-1.69h-1.69c.933 0 1.69.757 1.69 1.69"/><path fill="#43464A" fill-rule="nonzero" d="M391.305 26.34h48.39V88.5h-48.39zm85.86 78.74v66.85h-85.86v-66.85zm-187.53 83.42v66.85h-85.86V188.5zM249.735.02h123.01v171.9h-123.01zm-122.38 64.12h107.78v107.78h-107.78z"/></g></svg>