<svg xmlns="http://www.w3.org/2000/svg" data-name="Ebene 1" viewBox="0 0 1000 1080"><path fill="#c5cacf" d="M640.234 996.798c-97.635 24.228-152.943-11.681-152.943-11.681-1.509-3.183-2.021-14.869-2.087-27.551 0 0 28.83 22.267 87.29 18.586 49.527-3.122 87.778-9.124 112.902-25.246 4.661 17.764-5.147 35.963-45.161 45.893Z"/><path fill="#7d8389" d="M651.365 997.443c-97.635 24.228-164.074-12.327-164.074-12.327-1.509-3.183-2.021-14.869-2.087-27.551 0 0 28.83 22.267 87.29 18.586 49.527-3.122 87.778-9.124 112.902-25.246 1.72 30.363 5.984 36.608-34.03 46.538Z"/><path fill="#b2b9c0" d="M685.395 950.905c-25.123 16.122-63.375 22.124-112.902 25.246-58.46 3.681-87.29-18.586-87.29-18.586-.103-18.216.7-38.478.7-38.478l-.165-10.188c19.24 5.234 71.208 13.042 136.768-8.068 39.196 3.894 56.21 24.501 62.888 50.073Z"/><path fill="#929aa3" d="M636.019 676.353c-1.7.54-4.45 1.38-8.04 2.43-23.95 6.99-85.3 23.53-121.91 25.96-8.36 17.72-20.4 43.39-32.85 70l-7.06-68.7-2.22-21.55s5.89-2.02 15.66-4.89c26.19-7.7 80.26-21.57 123.52-19.25 11.91.63 22.99 2.49 32.46 6.05.27 1.81.42 5.23.44 9.95"/><rect width="175.887" height="282.673" x="213.746" y="383.079" fill="#43464a" rx="57.311" ry="57.311"/><path fill="#b2b9c0" d="M805.988 399.1c-10.661 15.32-45.843 68.692-110.714 103.342-82.532 44.083-121.32 46.488-134.693-5.259-20.93-80.989 69.689-81.264 118.57-123.23 15.709-13.49 25.57-25.042 30.629-31.617 12.213 26.481 67.851 60.286 96.207 56.763Z"/><path fill="#43464a" d="m610.998 547.965 14.621-6.446s17.924-28.242 0-81.152-41.049-40.485-41.049-40.485l-15.997 41.131z"/><path fill="#b2b9c0" d="M881.377 297.382c-7.602 41.72-42.754 74.21-75.389 101.718-5.638 4.752-21.647-1.677-27.803-3.682-9.908-3.228-19.374-7.864-28.306-13.203-15.316-9.155-32.931-21.67-40.669-38.381a31 31 0 0 1-1.216-3.03c-1.291-3.871-9.871-77.097-9.439-81.154 2.534-23.717 33.105-18.452 38.453.864l10.156 26.269c2.69-.367 11.076-24.273 12.65-27.566 3.806-7.963 7.151-16.176 12.954-22.935 29.808-34.723 97.22-21.109 107.643 25.09 2.903 12.866 3.003 24.824.965 36.011ZM637.949 675.693c-.59 4.3-11.288 202.434-13.186 210.255 0 0-46.331 19.019-85.846 20.065-18.026.477-53.723-7.26-53.723-7.26l-11.976-124.01c12.45-26.61 24.49-52.28 32.85-70 36.61-2.43 97.96-18.97 121.91-25.96 3.59-1.05 6.34-1.89 8.04-2.43 1.11-.35 1.78-.58 1.93-.66Z"/><path fill="#d0d4d8" d="M641.069 649.143a656 656 0 0 1-3.12 26.55c-.15.08-.82.31-1.93.66-1.7.54-4.45 1.38-8.04 2.43-7.2-6.28-19.96-12.66-40.97-9.87-16.06 2.12-38.36 5.66-69.74 12.29-.2.38-.7 1.4-1.46 3-1.86 3.86-5.27 11.06-9.74 20.54-8.36 17.72-20.4 43.39-32.85 70-25.15 53.75-51.94 111.32-53.24 114.9-1.66 4.57-3.37 8.94-5.13 13.06-.45 1.06-1.17 2.11-1.75 2.86-.38.5-.71.87-.85 1.03l-.08.09s-.05.01-.16.02l-72.94 11.18-33.32-12.08-39.45-14.31.56-3.53 1.77-15.61 8.92-78.73 3.98-35.11 3.36-74.39 1.29-28.38.2-4.53.05-1c0-8.48.811-16.96 1.811-25.43q.075-.57.15-1.17c.29-2.5.61-4.99.92-7.49.55-4.39 1.09-8.77 1.55-13.15 1.36-13.12 2.71-26.24 4.07-39.36l1.5-14.48c.2-1.87.13-4.03.61-5.85l29.74-112.99h23.39l100.1 17.95 110.97-11.97 27.189 3.66c19.53 22 66.18 67.77 52.64 209.21"/><path fill="#7d8389" d="M297.041 418.814s3.988-14.756 24.726-21.934l264.408 2.393s23.928 11.565 15.553 27.518c0 0-19.473 36.918-151.455 33.5-122.438-3.171-128.507-18.345-153.233-41.476Zm310.364-156.073c0 50.376 17.02 64.594 38.014 64.594s38.014-14.217 38.014-64.594-17.02-57.269-38.014-57.269-38.014 6.892-38.014 57.269"/><path fill="#c5cacf" d="M656.574 256.576c0 138.756-82.48 181.028-204.911 177.095-110.701-3.556-190.886-38.379-200.546-172.972-8.149-113.543 89.787-186.437 200.546-186.437s204.911 55.869 204.911 182.314"/><path fill="#2e3033" d="M607.409 354.793c-29.82 42.6-87.08 49.8-143.65 47.97-76.78-2.48-116.77-31.66-130.12-91.16-2.78-12.42-4.4-26.16-4.96-41.26-3.68-100.48 55.17-130.74 149.86-133.4 82.73-2.32 147.46 11.15 149.85 133.4.73 37.47-7.19 64.75-20.98 84.45"/><path fill="#7d8389" d="M225.937 262.741c0 50.376 17.02 64.594 38.014 64.594s38.014-14.217 38.014-64.594-17.02-57.269-38.014-57.269-38.014 6.892-38.014 57.269"/><path fill="#eff1f2" d="M256.423 268.052c0-22.685-5.168-29.087-11.542-29.087s-11.542 6.402-11.542 29.087 5.168 25.788 11.542 25.788 11.542-3.104 11.542-25.788"/><path fill="#43464a" d="M353.305 487.581c-.42 9.07-3.46 19.37-8.03 29.2-6.85 14.72-17.15 28.36-27.33 35.15-9.36 6.24-16.58 5.59-21.16 3.76-3.72-1.49-5.71-3.76-5.71-3.76l-7.42-105.72s1.01-15.66 2.67-21.1c1.39-4.58 3.06-10.68 17.2-16.8 6.83-2.95 26.38 3.32 38.3 18.86 8.96 11.67 12.54 37.78 11.48 60.41"/><path fill="#c5cacf" d="M132.983 753.292c-3.4-2.93-6.16-6.24-8.36-9.84.63.95 3.37 4.96 8.36 9.84m86.43 18.37c-.58.18-1.14.34-1.69.46.56-.15 1.12-.3 1.69-.46"/><path fill="#d0d4d8" d="M263.515 603.91c-9.1 18.11-13.76 32.35-15.96 40.46-25.55-22.67-82.86-31.26-111.18-12.17-.16.53-.33 1.08-.5 1.63.77-3.92 17.68-87.95 51.14-132.72 34.46-46.09 114.75-119.25 138.44-56.6 29.57 78.25-33.01 101.83-61.94 159.4"/><path fill="#777d84" d="M436.228 620.939h84.71c9.662 0 17.495-7.833 17.495-17.497v-93.731c0-9.662-7.833-17.497-17.495-17.497h-84.71c-9.662 0-17.497 7.834-17.497 17.497v93.731c0 9.664 7.834 17.497 17.497 17.497"/><path fill="#eff1f2" d="M456.08 620.939h84.71c9.662 0 17.495-7.833 17.495-17.497v-93.731c0-9.662-7.833-17.497-17.495-17.497h-84.71c-9.662 0-17.497 7.834-17.497 17.497v93.731c0 9.664 7.834 17.497 17.497 17.497"/><path fill="#43464a" d="M459.061 566.51h78.749v26.565h-78.749z"/><path fill="#7d8389" d="M496.733 520.081h41.077v26.565h-41.077z"/><rect width="25.863" height="26.565" x="459.061" y="520.081" fill="#b2b9c0" rx="12.931" ry="12.931"/><path fill="#7d8389" d="M419.983 889.642c-1.66 4.57-3.37 8.94-5.13 13.06-.45 1.06-1.17 2.11-1.75 2.86l-.85 1.03-.08.09s-.05.01-.16.02c-3.43.4-61.15 7.04-106.26-.9-15.57-2.75-29.64-7.23-39.45-14.31l2.29-19.17s.01.01.04.03c1.22.93 30.41 22.23 151.35 17.29M247.555 644.37s-39.944-43.968-111.18-12.17l5.799-25.077s59.709-27.35 111.595 18.623zm558.766-245.31s-84.284-24.708-96.54-56.724l-12.533 14.005s19.348 40.139 97.184 58.653z"/><path fill="#d0d4d8" d="M261.363 727.202c-22.17-.24-18.12-40.16-28.98-36.5-18.99 6.4 10.31 73.57-12.97 80.96-.57.16-1.13.31-1.69.46-44.62 11.83-72.02-6.37-84.74-18.83-4.99-4.88-7.73-8.89-8.36-9.84-.08-.15-.13-.22-.13-.22-18.3-30.38 2.72-81.44 11.36-109.32.01-.02.01-.05.02-.08.17-.55.34-1.1.5-1.63 28.32-19.09 85.63-10.5 111.18 12.17.95.84 1.86 1.71 2.72 2.59 9.08 9.31 20.26 32.69 22.52 45.51 1.76 9.94 4.62 34.91-11.43 34.73"/><path fill="#7d8389" d="M385.8 255.918c10.314 10.068 8.441 21.539 1.266 28.889s-17.36 9.043-27.674-1.025-12.161-22.032-4.986-29.382 21.08-8.55 31.394 1.518m-6.011 47.052c3.243 4.936.359 8.854-3.158 11.165s-7.743 2.093-10.985-2.844-3.019-10.811.498-13.122 10.403-.136 13.646 4.801Zm89.59-151.832c40.036-7.122 142.01-12.479 149.056 115.62.179 3.255-3.53 4.383-4.48 1.356-10.485-33.393-43.417-95.694-144.624-111.349-2.682-.415-2.644-5.148.048-5.627"/><path fill="#43464a" d="M607.409 354.793c-29.82 42.6-87.08 49.8-143.65 47.97-76.78-2.48-116.77-31.66-130.12-91.16 129.746 112.403 273.77 43.19 273.77 43.19"/><path fill="#c5cacf" d="M415.686 1003.627c-105.061 12.222-157.944-32.617-157.944-32.617-1.149-3.521-.121-15.776 1.505-29.012 0 0 27.091 27.074 88.551 31.046 52.069 3.362 92.763 2.213 121.118-11.244 2.488 19.149-10.173 36.818-53.23 41.827"/><path fill="#7d8389" d="M415.686 1003.627c-105.061 12.222-157.944-32.617-157.944-32.617-1.149-3.521-.121-15.776 1.505-29.012 0 0 27.091 27.074 88.551 31.046 52.069 3.362 92.763 2.213 121.118-11.244 2.488 19.149-10.173 36.818-53.23 41.827"/><path fill="#d0d4d8" d="M468.916 961.8c-28.355 13.457-69.05 14.606-121.118 11.244-61.46-3.972-88.551-31.046-88.551-31.046 2.327-19.011 5.871-40.035 5.871-40.035l1.189-10.647c19.366 8.03 76.395 26.39 147.587 13.134 46.256 13.433 51.474 29.789 55.022 57.35"/><path fill="#7d8389" d="M625.147 880.09c-.564 6.578-.514 15.767-2.639 20.741.222.528-41.788 17.24-82.02 20.239-18.816 1.41-54.683-8.151-54.683-8.151l-.609-14.167s76.859 10.885 139.952-18.663Z"/><path fill="#b2b9c0" d="m345.275 516.781.166 157.73-60.386-8.27 9.59-108.97 2.14-1.58c4.58 1.83 11.8 2.48 21.16-3.76 10.18-6.79 20.48-20.43 27.33-35.15"/><path fill="#43464a" d="M641.069 649.143a656 656 0 0 1-3.12 26.55c-.15.08-6.524 3.458-10.114 4.508-23.95 6.99-85.157 22.112-121.767 24.542-13.31.89-26.68 1.29-39.91 1.3-78.96.06-152.95-13.84-181.27-21.92l1.29-28.38c74.021 20.28 139.24 25.75 193.42 23.86 51.99-1.82 93.82-10.43 123.52-19.25.28-.08.56-.17.84-.25 8.44-2.52 26.29-7.69 37.11-10.96Z"/></svg>