<svg xmlns="http://www.w3.org/2000/svg" data-name="Ebene 2" viewBox="0 0 1600 900"><path fill="#c4c4c4" d="M1076.1 900c-70.54-59.35-162.56-95.26-263.2-95.26S620.24 840.65 549.69 900z"/><path fill="#c4c4c4" d="M776.54 476.17c0 8.42-.04 49.35-.11 57.91 0 1.5-.87 2.87-2.23 3.53-1.35.65-2.96.48-4.15-.45l-70.75-58.71-27.12 4.09 62.09 48.58c32.88 25.02 40.23 44.97 41.36 61.77-1.03 49-2.92 106.09-5.54 159.42-1.06 21.53-2.04 42.86-9.99 62h81.95c-6.02-18.78-7.98-34.92-9.05-53.44-2.69-46.73-4.38-96.74-4.38-140.84 0-35.56 70.09-110.08 99.41-133.73l-30.66 3.07-65.62 63.05c-.88.69-2.07.83-3.08.35a2.96 2.96 0 0 1-1.69-2.6c-.27-14.86-.44-59.44-.54-73.98h-49.91Z" data-name="Path"/><path fill="#c4c4c4" d="M583.28 374.53c-26.43 38.21 17.58 99.36 58.13 119.81 43.76 22.08 98.11 13.57 126.38-13.85 25.89 19.7 60.31 28.34 91.88 20.25 4.35-1.11 8.62-2.55 12.76-4.29 39.18 19.34 86.39 10.89 116.44-20.82 30.05-31.72 35.94-79.31 14.53-117.39" data-name="Path"/><path fill="#c4c4c4" d="M1018.41 273.78a80.95 80.95 0 0 0-23.76-35.6c-13.27-11.63-29.04-18.21-44.61-19.76-9.77-23.36-29.66-43.77-56.61-54.91-32.59-13.48-67.45-10.1-92.85 6.13-16.8-8.31-39.28-10.22-63.1-4.77-19.13 4.36-33.6 11.17-42.53 20.67-29.46-8.81-64.78.3-90.11 26.18-16.13 16.47-25.36 36.85-27.51 57.04-33.9 8.93-59.4 36.92-65.14 71.5-5.75 34.58 9.33 69.31 38.52 88.73 29.19 19.41 67.05 19.9 96.72 1.23l296.23-16.86c24.89 26.98 64.45 34.62 97.6 18.84 33.15-15.77 52.17-51.29 46.93-87.62s-33.51-65.03-69.76-70.8Z" data-name="Path"/></svg>