<svg xmlns="http://www.w3.org/2000/svg" viewBox="0 0 703 801"><g fill="none"><path fill="#D0D4D8" d="M322.448 389.68c0 10.22-.05 59.87-.13 70.26a4.79 4.79 0 0 1-7.74 3.73l-85.81-71.22-32.89 5 75.3 58.92c39.93 30.3 48.84 54.54 50.27 74.9-1.26 59.44-3.55 128.69-6.72 193.39-1.28 26.11-2.47 52-12.13 75.17h99.41c-7.31-22.78-9.68-42.35-11-64.82-3.27-56.68-5.32-117.34-5.32-170.84 0-43.12 85-133.52 120.59-162.21l-37.19 3.72-79.64 76.47a3.57 3.57 0 0 1-5.79-2.73c-.32-18-.54-72.09-.65-89.74z"/><path fill="#B2B9C0" d="M615.868 144.19c-12.326-36.549-44.628-62.709-82.94-67.17-11.85-28.33-36-53.08-68.66-66.61-39.54-16.35-81.82-12.25-112.63 7.42-20.38-10.08-47.64-12.36-76.54-5.78-23.21 5.29-40.75 13.55-51.59 25.07-35.73-10.68-78.58.37-109.3 31.76-19.56 19.98-30.76 44.7-33.36 69.18C31.01 151.238-2.567 197.802.668 249.251c3.237 51.45 42.383 93.44 93.48 100.269h.09c15.6 26.48 40.47 50.15 64.34 62.2 53.08 26.78 119 16.46 153.3-16.81 31.43 23.9 73.15 34.38 111.44 24.57a108.6 108.6 0 0 0 15.48-5.21 120.5 120.5 0 0 0 32.13 10.62v263.38h-14.87v11.16h110.81v-11.16h-15.61v-276.8a121.26 121.26 0 0 0 55.09-65.43c51.693-3.293 92.644-44.925 95.084-96.665s-34.41-97.041-85.564-105.185m-75.77 544.08h-58v-261.9a121.6 121.6 0 0 0 58-9.4z"/></g></svg>