<svg xmlns="http://www.w3.org/2000/svg" data-name="Truck Top View" viewBox="0 0 1600 900"><path fill="#006c3a" d="M326.54 311.15h626.68v278.02H326.54z" data-name="Purple Container"/><path fill="#37a264" d="M326.54 594.96h-30.81V305.35h30.81z" data-name="Purple Back Strip"/><path fill="#c1c7cc" d="M1029.59 554.59h35.43v35.43h-35.43z" data-name="Purple Outline 11"/><path fill="#c1c7cc" d="M995.18 554.59h35.43v35.43h-35.43z" data-name="Purple Outline 10"/><path fill="#c1c7cc" d="M1055.73 533.27h233.2v52.28h-233.2z" data-name="Purple Outline 9"/><path fill="#c1c7cc" d="M953.21 532.95h83.95v44.71h-83.95z" data-name="Purple Outline 8"/><path fill="#c1c7cc" d="m1288.93 585.55 15.35-62.6v-59.73h-30.49v72.8" data-name="Purple Outline 7"/><path fill="#c1c7cc" d="M1029.59 311.99h35.43v35.43h-35.43z" data-name="Purple Outline 6"/><path fill="#c1c7cc" d="M995.18 311.99h35.43v35.43h-35.43z" data-name="Purple Outline 5"/><path fill="#c1c7cc" d="M1055.73 316.46h233.2v52.28h-233.2z" data-name="Purple Outline 4"/><path fill="#c1c7cc" d="M953.21 324.35h83.95v44.71h-83.95z" data-name="Purple Outline 3"/><path fill="#c1c7cc" d="m1288.93 316.46 15.35 62.6v59.73h-30.49v-72.8" data-name="Purple Outline 2"/><path fill="#c1c7cc" d="M1273.11 430.77h31.17v47.46h-31.17z" data-name="Purple Outline 1"/><path fill="#43464a" d="M1133.44 338.72h31.67V561.6h-31.67z" data-name="Purple Split"/><path fill="#d0d4d8" d="M953.21 338.72h180.23V561.6H953.21z" data-name="Purple Back"/><path fill="#d0d4d8" d="M1165.11 338.72v111.44h123.82v-71.67l-13.3-21.1zM1165.11 561.6V450.16h123.82v71.67l-13.3 21.09z" data-name="Purple Window Bottom"/><path fill="#2e3033" d="M1136.79 346.4h28.31v93.4h-28.31zM1136.79 459.67h28.31v93.1h-28.31z" data-name="Grey Split"/><g fill="#a4abb3"><path d="M1155.74 290.22h10.86v33.92h-10.86z"/><path d="M1159.98 290.48h2.38v47.88h-2.38z"/></g><g fill="#a4abb3"><path d="M1166.6 609.77h-10.86v-33.92h10.86z"/><path d="M1162.36 609.52h-2.38v-47.88h2.38z"/></g><g fill="#e0e2e5" stroke="#e0e2e5" stroke-miterlimit="10" stroke-width="25"><path d="M953.34 373.71h177.7M954.36 413.29h177.7M954.36 452.86h177.7M954.36 492.44h177.7M954.36 532.01h177.7"/></g><g fill="#e0e2e5" stroke="#a4abb3" stroke-miterlimit="10" stroke-width="13"><path d="M1289.34 396.69h14.72M1289.43 423.56h14.72M1289.43 450.44h14.72M1289.43 477.31h14.72M1289.43 504.18h14.72"/></g></svg>