<svg xmlns="http://www.w3.org/2000/svg" viewBox="0 0 1600 900"><path fill="#e0e2e5" d="M589.96 182.37H800v8.25H589.96zM589.96 223.4H800v8.25H589.96zM589.96 264.44H800v8.25H589.96zM589.96 305.47H800v8.25H589.96zM589.96 346.51H800v8.25H589.96zM589.96 387.54H800v8.25H589.96zM589.96 428.57H800v8.25H589.96zM589.96 469.61H800v8.25H589.96zM589.96 510.64H800v8.25H589.96zM589.96 551.68H800v8.25H589.96zM589.96 592.71H800v8.25H589.96zM589.96 633.75H800V642H589.96zM589.96 674.78H800v8.25H589.96zM589.96 715.82H800v8.25H589.96zM927.49 165.69h89.89v15.04h-89.89zM927.49 206.33h89.89v15.04h-89.89zM927.49 245.28h89.89v15.04h-89.89zM927.49 285.93h89.89v15.04h-89.89zM927.49 326.49h89.89v15.04h-89.89zM927.49 367.14h89.89v15.04h-89.89zM927.49 406.09h89.89v15.04h-89.89zM927.49 446.74h89.89v15.04h-89.89zM927.49 487.85h89.89v15.04h-89.89zM927.49 528.5h89.89v15.04h-89.89zM927.49 567.45h89.89v15.04h-89.89zM927.49 608.1h89.89v15.04h-89.89zM927.49 654.82h89.89v15.04h-89.89zM927.49 695.47h89.89v15.04h-89.89z"/><path fill="#771875" d="m908.08 163.11-102.96 15.68v10.46l102.96-15.69zM908.08 230.15l-102.96 15.68v10.46l102.96-15.69zM908.08 297.18l-102.96 15.69v10.45l102.96-15.68zM908.08 364.22l-102.96 15.69v10.45l102.96-15.68zM908.08 431.26l-102.96 15.69v10.45l102.96-15.68zM908.08 498.3l-102.96 15.69v10.45l102.96-15.68zM908.08 565.34l-102.96 15.69v10.45l102.96-15.68zM908.08 632.38l-102.96 15.68v10.46l102.96-15.68zM908.08 699.42 805.12 715.1v10.46l102.96-15.68z"/><path fill="#9e2896" d="M552.36 74.14h495.29v67.87H552.36zM788.99 142.01H811v597.25h-22.01z"/><path fill="#c535bc" d="M1002.42 142.01h22.01v597.25h-22.01zM573.55 118.22h22.01v625.62h-22.01zM652.43 118.22h22.01v707.64h-22.01zM612.99 118.22H635v665.55h-22.01z"/><path fill="#d0d4d8" d="M695.39 118.22h22.01v628.31h-22.01z"/><path fill="#9e2896" d="m897.85 222.77-102.96-15.69v-10.45l102.96 15.68zM897.85 289.81l-102.96-15.69v-10.46l102.96 15.69zM897.85 356.84l-102.96-15.68V330.7l102.96 15.69zM897.85 423.88 794.89 408.2v-10.46l102.96 15.69zM897.85 490.92l-102.96-15.68v-10.46l102.96 15.69zM897.85 557.96l-102.96-15.68v-10.46l102.96 15.69zM897.85 625l-102.96-15.68v-10.46l102.96 15.68zM897.85 692.04l-102.96-15.68V665.9l102.96 15.68z"/><path fill="#d0d4d8" d="m674.44 790.91-100.89-85.02v-18.28l100.89 80.9z"/><path fill="#9e2896" d="M566.21 115.4h165.46v41.35H566.21z"/></svg>