<svg xmlns="http://www.w3.org/2000/svg" viewBox="0 0 1599.88 906.126"><defs><clipPath id="a"><path fill="none" stroke-width="0" d="M1197.71 649.506c-1.18 1.402-3.52 2.639-6.49 4.262-2.17 1.182-3.85 1.374-5.22 2.199l.82 30.247-4.94 34.666h22s1.34-32.329 3.29-45.665c-3.13-11.163-6.35-14.518-9.46-25.709m33.11 22.96c1.92 3.024 3.3 5.224 1.92 12.923 0 0 1.11 31.311 1.14 35.491-10.06-.027-10 0-10 0l3.64-47.04-12.1-18.972c-.55-1.65-1.48-4.263-2.03-5.912 1.84 1.374 5.85 4.95 7.69 6.324 3.94 6.022 5.81 11.164 9.74 17.186"/></clipPath></defs><path fill="#d0d4d8" d="M1482.3 552.004c-1.53 0-3.03.216-4.47.646-3.84-5.136-9.83-8.148-16.37-8.148-11.25 0-20.4 9.07-20.4 20.218 0 .551.02 1.106.07 1.664-4.7 2.778-7.65 7.837-7.65 13.341 0 6.39 6.4 17.353 15.4 17.155 4.75 1.813 55.05-34.167 57-35-3-8-21.04-9.882-23.58-9.876"/><path fill="#b2b9c1" stroke="#c2c7cd" d="M1512.93 611.702h-48.5c-9.13 0-16.55-7.536-16.55-16.8 0-8.113 5.76-15.004 13.43-16.496 1.45-7.81 8.25-13.676 16.25-13.676q2.49.002 4.83.728c4.04-5.569 10.54-8.956 17.41-8.956 11.91 0 21.6 9.844 21.6 21.943q0 .978-.09 1.969c5.01 2.993 8.17 8.5 8.17 14.488 0 9.264-7.42 16.8-16.55 16.8zM155.48 408.88h-57.6c-10.587 0-19.2-8.613-19.2-19.2 0-9.38 6.834-17.33 15.89-18.91 1.58-9.056 9.53-15.89 18.91-15.89 2.026 0 4.005.312 5.908.93 4.73-6.63 12.25-10.53 20.492-10.53 13.895 0 25.2 11.305 25.2 25.2 0 .826-.042 1.663-.127 2.501a19.24 19.24 0 0 1 9.727 16.699c0 10.587-8.613 19.2-19.2 19.2z"/><path fill="#e0e2e4" d="M1591.88 878.545c-22-82.439-65.8-143.165-122.2-169.165-41.46-19.115-81.8-34.5-151.91-122.721-119.53-150.426-366.528-424.691-722.263-127.504C429.4 597.923 302.794 602.642 127.824 854.614v51.266H1599.88z"/><path fill="#d0d4d8" d="M-.12 515.17c121.522-18.157 268.407-2.8 419.796 74.904 227.238 116.632 389.732-127.078 660.004 268.797 8.45 12.368 22.2 44.009 111.2 47.009H-.12z"/><path fill="#fff" d="m67.88 678.463 7.087 129 133.909 25.417 133.917-25.417 7.087-129zm407.743 111.906v39.741a9.86 9.86 0 0 1-2.314 6.354 9.88 9.88 0 0 1-7.585 3.545c-5.458-.001-9.899-4.441-9.899-9.899v-74.5h-3.422l-.014-3.299 25.634-.108.013 3.3-2.413.01z"/><path fill="#87b8e4" d="M475.623 830.11a9.86 9.86 0 0 1-2.314 6.354 9.88 9.88 0 0 1-7.585 3.545c-5.458-.001-9.899-4.441-9.899-9.899v-36.604l19.798-.083z"/><path fill="#fff" d="M433.114 790.369v39.741a9.86 9.86 0 0 1-2.314 6.354 9.88 9.88 0 0 1-7.584 3.545c-5.459-.001-9.899-4.441-9.899-9.899v-74.5h-3.423l-.014-3.299 25.634-.108.014 3.3-2.414.01z"/><path fill="#87b8e4" d="M433.114 790.369v39.741a9.86 9.86 0 0 1-2.314 6.354 9.88 9.88 0 0 1-7.584 3.545c-5.459-.001-9.899-4.441-9.899-9.899v-50.069l19.797-.083z"/><path fill="none" stroke="#666a6f" stroke-width="8" d="M393.88 811.576v46.504h102v-46.021s1.21-8.814-9.395-8.814h-83.879c-9.226 0-8.726 8.331-8.726 8.331z"/><path fill="#fff" d="M495.286 862.08a10.12 10.12 0 0 1-9.061-5.555 10.1 10.1 0 0 1 .663-10.347l.138-.201 29.004-68.611V696.66h52.8v80.706l29.004 68.611.138.201a10.1 10.1 0 0 1 .666 10.341 10.07 10.07 0 0 1-9.031 5.561zm35.144-182.4"/><path fill="#87b8e4" d="m597.972 846.178-.138-.201-19.649-46.48h-71.51l-19.649 46.48-.138.201a10.1 10.1 0 0 0-.663 10.347 10.12 10.12 0 0 0 9.061 5.555h94.321c3.837 0 7.295-2.126 9.031-5.561a10.09 10.09 0 0 0-.666-10.341M68.782 694.88l6.185 112.583L210.88 832.88l131.913-25.417 6.185-112.583z"/><path fill="none" stroke="#eff1f2" stroke-width="17" d="M205.88 704.045v143s0 23 23 23h681.882"/><path fill="#979ea4" d="M192.88 786.045v11h26v-11zm105 69.709v26h11v-26zm76 0v26h11v-26z"/><path fill="none" stroke="#e0e2e4" stroke-width="2" d="m101.88 712.88-7 37"/><path fill="none" stroke="#fff" stroke-width="2" d="m94.88 712.88 7 37"/><path fill="none" stroke="#e0e2e4" stroke-width="2" d="m118.863 712.88-7 37"/><path fill="none" stroke="#fff" stroke-width="2" d="m111.863 712.88 7 37"/><path fill="none" stroke="#e0e2e4" stroke-width="2" d="m135.845 712.88-7 37"/><path fill="none" stroke="#fff" stroke-width="2" d="m128.845 712.88 7 37"/><path fill="none" stroke="#e0e2e4" stroke-width="2" d="m152.828 712.88-7 37"/><path fill="none" stroke="#fff" stroke-width="2" d="m145.828 712.88 7 37"/><path fill="none" stroke="#e0e2e4" stroke-width="2" d="m169.81 712.88-7 37"/><path fill="none" stroke="#fff" stroke-width="2" d="m162.81 712.88 7 37"/><path fill="none" stroke="#e0e2e4" stroke-width="2" d="m186.793 712.88-7 37"/><path fill="none" stroke="#fff" stroke-width="2" d="m179.793 712.88 7 37"/><path fill="none" stroke="#e0e2e4" stroke-width="2" d="m203.775 712.88-7 37"/><path fill="none" stroke="#fff" stroke-width="2" d="m196.775 712.88 7 37"/><path fill="none" stroke="#e0e2e4" stroke-width="2" d="m220.758 712.88-7 37"/><path fill="none" stroke="#fff" stroke-width="2" d="m213.758 712.88 7 37"/><path fill="none" stroke="#e0e2e4" stroke-width="2" d="m237.741 712.88-7 37"/><path fill="none" stroke="#fff" stroke-width="2" d="m230.741 712.88 7 37"/><path fill="none" stroke="#e0e2e4" stroke-width="2" d="m254.723 712.88-7 37"/><path fill="none" stroke="#fff" stroke-width="2" d="m247.723 712.88 7 37"/><path fill="none" stroke="#e0e2e4" stroke-width="2" d="m271.706 712.88-7 37"/><path fill="none" stroke="#fff" stroke-width="2" d="m264.706 712.88 7 37"/><path fill="none" stroke="#e0e2e4" stroke-width="2" d="m288.688 712.88-7 37"/><path fill="none" stroke="#fff" stroke-width="2" d="m281.688 712.88 7 37"/><path fill="none" stroke="#e0e2e4" stroke-width="2" d="m305.671 712.88-7 37"/><path fill="none" stroke="#fff" stroke-width="2" d="m298.671 712.88 7 37"/><path fill="none" stroke="#e0e2e4" stroke-width="2" d="m322.653 712.88-7 37"/><path fill="none" stroke="#fff" stroke-width="2" d="m315.653 712.88 7 37"/><path fill="none" stroke="#fff" stroke-width="5" d="M91.88 711.88v38h232.8v-38H91.88z"/><path fill="none" stroke="#eff1f2" stroke-width="17" d="M1365.88 878.545v-66.244s-1-12.756-17.24-12.756H925.478c-15.598 0-15.598 12.756-15.598 12.756v66.244"/><path fill="#979ea4" d="M890.18 855.754v26h11v-26zm352.7-68.874v26h11v-26z"/><path fill="#87b8e4" d="M1127.64 851.12c-18.53 0-33.6-15.073-33.6-33.6 0-29.51 30.67-58.158 31.97-59.364l1.63-1.5 1.63 1.502c1.3 1.204 31.97 29.851 31.97 59.362 0 18.527-15.07 33.6-33.6 33.6"/><path fill="#eff1f2" d="m1333.75 714.293-5-73.748 59.5-30 57.5 30-2 73.748z"/><path fill="#87b8e4" d="m1329.23 650.545 4.32 63.748h110l1.73-63.748z"/><path fill="#979ea4" d="M1327.26 714.293v17h121v-17z"/><path fill="#979ea4" d="m1333.94 714.293-14.37 164.252h17l14.37-164.252zm107.65 0 14.37 164.252h-17l-14.37-164.252z"/><path fill="#979ea4" d="m1347.93 714.293 106.67 164.252h-13l-106.67-164.252z"/><path fill="#979ea4" d="m1427.6 714.293-106.67 164.252h13l106.67-164.252z"/><path fill="none" stroke="#a1c6ea" stroke-width="2" d="M807.863 345.88v-71m202.017 187h111.41v-173M606.88 465.083V212.162h-91.944M601.88 376.08h-254"/><path d="M1186.37 407.308c-.75-1.158-1.22-1.954-1.23-1.962l-.86-1.466-.86 1.466c-.01.008-.48.804-1.23 1.962l-.17.261c-.77 1.181-1.74 2.653-1.74 4.284 0 2.205 1.79 4 4 4s4-1.795 4-4c0-1.632-.96-3.103-1.74-4.284zm-2.09 6.545c-1.1 0-2-.897-2-2 0-1.034.75-2.177 1.41-3.189l.18-.266c.15-.228.28-.442.41-.64l.42.646.17.263c.66 1.009 1.41 2.152 1.41 3.186 0 1.103-.9 2-2 2m-1-21.973h-15v-4h12v-2h-22v32h10v-18h22v-1c0-3.86-3.14-7-7-7m-23-4h6v4h-6zm6 10v18h-6v-22h23a5.01 5.01 0 0 1 4.9 4zm21.06 40c-1.23 0-2.42.539-3.42 1.557-1.72 1.736-2.67 4.613-2.63 7.88v.411c0 3.038 2.16 5.567 4.98 6.063v24.089h2v-24.085c2.84-.485 5.01-3.019 5.01-6.052l.01-.382c0-5.405-2.56-9.481-5.95-9.481m3.94 9.848c0 2.289-1.79 4.152-3.99 4.152-2.21 0-4-1.863-4-4.152v-.424c-.04-2.708.73-5.124 2.05-6.462.62-.629 1.31-.962 2-.962 1.94 0 3.95 2.798 3.95 7.466zm-30.01-.846h-2v-9.002h2zm8-9v8.109c0 1.858-.88 3.851-2.41 5.468-1.1 1.156-2.4 1.971-3.59 2.281v24.137h-2v-24.131c-2.81-.713-6-4.198-6-7.755v-8.111h2v8.111c0 1.351.68 2.842 1.87 4.09 1.18 1.242 2.42 1.799 3.13 1.799s1.96-.556 3.14-1.799c1.18-1.248 1.86-2.739 1.86-4.09v-8.109zm-4 9h-2v-9.002h2zm14 30.998h-2v-20h-6v-16c0-2.205 2.07-4 4.6-4h3.4zm-6-22h4v-16h-1.4c-1.43 0-2.6.897-2.6 2zm-8.18 64.772-1.42-1.414 19.8-19.799 1.42 1.414zm3.94-9.603c.47-1.958 1.76-5.041 5.25-8.661.6.62 1.13 1.223 1.61 1.808l1.41-1.414c-1.22-1.491-2.24-2.443-2.34-2.541l-.68-.626-.68.626c-.28.257-6.82 6.377-6.82 12.735 0 .107 0 .213.01.319zm10.02-1.535c.64 1.691.73 2.911.73 3.462 0 3.032-2.47 5.5-5.5 5.5a5.44 5.44 0 0 1-3.17-1.013l-1.43 1.428a7.46 7.46 0 0 0 4.6 1.585c4.14 0 7.5-3.365 7.5-7.5 0-1.724-.48-3.427-1.19-5.002z"/><path d="M1174.28 530.045c-11.03 0-20-8.972-20-20s8.97-20 20-20 20 8.972 20 20-8.97 20-20 20m0-38c-9.93 0-18 8.075-18 18s8.07 18 18 18 18-8.074 18-18-8.07-18-18-18m17-160.639v7h-7v-2h3.67c-3.42-4.524-8.23-7-13.67-7-9.93 0-18 8.075-18 18h-2c0-11.028 8.97-20 20-20 5.95 0 11.21 2.631 15 7.449v-3.449zm1 16c0 9.925-8.07 18-18 18-5.44 0-10.25-2.475-13.67-7h3.67v-2h-7v7h2v-3.449c3.79 4.819 9.05 7.449 15 7.449 11.03 0 20-8.972 20-20z"/><path d="M1174.28 357.836c-4.14 0-7.5-3.364-7.5-7.5 0-6.363 6.54-12.477 6.82-12.734l.68-.626.68.626c.28.257 6.82 6.365 6.82 12.734 0 4.136-3.36 7.5-7.5 7.5m0-18.087c-5.1 5.281-5.5 9.424-5.5 10.587 0 3.033 2.47 5.5 5.5 5.5s5.5-2.467 5.5-5.5c0-1.164-.4-5.312-5.5-10.587m-10.4-48.871 1.05 22.3v.025c.18 2.05 1.93 3.65 3.98 3.65h10c2.07 0 3.82-1.625 3.97-3.675l1.05-22.325h-20.05zm18 2-.22 5h-15.45l-.25-5zm-2.95 22h-10c-1.02 0-1.9-.8-2-1.8l-.62-13.2h15.22l-.62 13.175a1.99 1.99 0 0 1-1.98 1.825m-2.77-36.309-.17-.261a48 48 0 0 1-1.22-1.962l-.86-1.466-.87 1.466c0 .008-.47.803-1.22 1.962l-.17.261c-.78 1.182-1.74 2.653-1.74 4.284 0 2.205 1.79 4 4 4 2.2 0 4-1.795 4-4 0-1.632-.97-3.102-1.75-4.284m-2.25 6.284c-1.11 0-2-.897-2-2 0-1.034.75-2.178 1.41-3.189l.17-.266.42-.64c.12.199.26.416.41.646l.17.263c.66 1.008 1.42 2.152 1.42 3.186 0 1.103-.9 2-2 2"/><path fill="none" stroke="#000" stroke-width="2" d="M749.88 288.691c8.008 0 14.5-6.493 14.5-14.5s-6.492-14.5-14.5-14.5-14.5 6.492-14.5 14.5 6.492 14.5 14.5 14.5zm-22.5 0c8.008 0 14.5-6.493 14.5-14.5s-6.492-14.5-14.5-14.5-14.5 6.492-14.5 14.5 6.492 14.5 14.5 14.5zm45 0c8.008 0 14.5-6.493 14.5-14.5s-6.492-14.5-14.5-14.5-14.5 6.492-14.5 14.5 6.492 14.5 14.5 14.5zm-34.5 17c8.008 0 14.5-6.493 14.5-14.5s-6.492-14.5-14.5-14.5-14.5 6.492-14.5 14.5 6.492 14.5 14.5 14.5zm23 0c8.008 0 14.5-6.493 14.5-14.5s-6.492-14.5-14.5-14.5-14.5 6.492-14.5 14.5 6.492 14.5 14.5 14.5z"/><path fill="#bad4f0" d="M602.862 461.236v236.715l205 118.355 204.998-118.355V461.236L807.862 342.881z"/><path fill="#047bc0" d="M672.863 500.853v155.885l134.999 77.941 135.001-77.941V500.853l-135.001-77.942z"/><path fill="#87b8e4" d="M657.732 482.38c-47.559 0-86.253-38.694-86.253-86.253 0-75.759 78.723-149.296 82.074-152.392l4.179-3.855 4.179 3.858c3.351 3.092 82.074 76.63 82.074 152.39 0 47.558-38.693 86.252-86.253 86.252"/><path fill="#fff" d="M808.88 690.803c-18.527 0-33.6-15.074-33.6-33.6 0-29.512 30.667-58.158 31.972-59.364l1.628-1.502 1.628 1.503c1.305 1.204 31.972 29.851 31.972 59.363 0 18.526-15.073 33.6-33.6 33.6m.001-87.848c-6.312 6.336-28.801 30.575-28.801 54.248 0 15.88 12.92 28.8 28.8 28.8s28.8-12.92 28.8-28.8c0-23.7-22.485-47.916-28.799-54.248m-9.001-75.075c-44.112 0-80-35.888-80-80s35.888-80 80-80 80 35.888 80 80-35.888 80-80 80m0-152c-39.701 0-72 32.299-72 72s32.299 72 72 72 72-32.299 72-72-32.299-72-72-72m-20 107.287v-70.574l55.45 35.287zm8-56v41.426l32.55-20.713z"/><path fill="#c2c7cd" d="M1051.7 597.467c-1.5.393-5.19 1.81-7.17 3.906a.82.82 0 0 1-.67.272.55.55 0 0 1-.49-.5c-.09-.402.11-.807.38-1.123 2.4-2.744 6.06-4.095 8.08-4.142.38-.008.86.437.89.779.04.372-.44.656-1.02.808m-10.81 9.769s12.38 9.572 25.76 13.786c0 0-13.63-1.011-16.82-1.902-4.07-1.137-10.74-4.238-12.86-7.132-1.66-2.256-2.2-4.804 4.13-5.556.17-.016-.21.804-.21.804"/><path fill="#e0e2e4" d="M1068.57 603.644s-2.29-4.603-8.2-6.278c0 0-4.54-1.691-9-.4-1.81.532-8.03 1.625-10.48 10.269 0 0 1.82 6.366 16.19 10.48l9.56 3.313s6.13-8.931 1.93-17.384"/><path fill="#c2c7cd" d="M1067 601.531s-14.21-2.095-20.58 11.465c-.65.931-2.51-1.734-2.51-1.734 3.74-10.492 14.85-13.06 20.17-12.33 3.89.532 2.92 2.599 2.92 2.599m-1.87 7.807c-2.17.387-6.21 1.456-8.78 4.252-.23.261-.57.4-.92.378a.86.86 0 0 1-.78-.648 1.39 1.39 0 0 1 .4-1.486c3.62-3.345 7.47-4.944 9.98-4.6l.06.009c1.2.183 1.23 1.882.04 2.095"/><path fill="#00639b" d="m984.438 678.488-6.536-8.033-6.984 1.667.239 1.85 4.253.142 1.552 2.166z"/><path fill="#87b8e4" d="M1008.6 684.296c-8.12-3.032-17.572-4.885-24.65-6.122l-18.07-9.294c-4 8 4.026 15.044 4 15.037 2.672 2.174 11.239 3.883 11.239 3.883s43.661 18.882 43.781 18.593c.52-1.279.85-2.626.99-4.001.93-8.64-7.17-14.293-17.29-18.096"/><path fill="#00639b" d="M1047.54 634.111a12.6 12.6 0 0 1-4.04-.728c-.41 1.021-.87 2.11-1.31 3.151 1.9-.539 3.7-1.356 5.35-2.423m17.38-13.271c.74-4.097-3.35-7.834-3.35-7.834 1.54-6.9-7.49-6.906-7.49-6.906s-5.47-5.005-9.1-4.329c-3.63.675-2.52 5.746-4.16 6.993s-2.74 3.53-2.74 3.53-2.08 5.111 1.49 8.641a46.5 46.5 0 0 1 1.09-6.426 12.26 12.26 0 0 0 5.61 2.282c5 .56 10.31-1.36 10.31-1.36s-1.6 5.576-1.77 7.681c-.02.173-.01.35-.03.519 1.63-1.427 4.03-3.071 4.94-1.265 1.2 2.41-3.03 5.667-4.55 6.805l.08.544c-.03-.007 8.95-4.784 9.68-8.886z"/><path fill="#87b8e4" d="m1039.4 643.28 14.07 4.035 1.75-17.592s-.03-.214-.08-.545c1.54-1.105 5.81-4.485 4.6-6.9-.9-1.843-3.33-.163-4.94 1.265 0-.172.01-.344.04-.514.17-2.109 1.76-7.681 1.76-7.681s-5.3 1.916-10.3 1.36a12.16 12.16 0 0 1-5.69-2.274 45 45 0 0 0-1.07 6.391c-.07.827-.14 1.683-.16 2.58-.06 5.404.38 8.114.38 8.114 1.16.771 2.41 1.396 3.72 1.859 1.3.461 2.67.706 4.05.725a20.2 20.2 0 0 1-5.33 2.436 882 882 0 0 1-2.81 6.728z"/><path fill="#5a5f63" d="m1020.11 666.032-1.05 24.299 8.72 9.577zm-10.29 213.639.05.084a9.92 9.92 0 0 0 7.68 3.613h29.26l-2.4-11.79h-14.04zm78.28-.56-10.03-7.561h-10.29l-1.52 11.791h19.57a2.72 2.72 0 0 0 2.72-2.717 2.5 2.5 0 0 0-.45-1.525z"/><path d="M1085.48 871.82c0-58.479-16.61-89.062-16.47-94.44.79-29.405 1.53-36.996-3.53-56.02l-.05.476h-29.63c.17 3.723.8 14.097 3.29 20.16 2.52 6.136 5.68 15.061 8.45 26.334 4.23 17.42 7.78 35.118 7.78 35.118l11.74 68.338z"/><path d="m1024.85 721.844.12 4.481 1.87 72.409 2.69 73.098h20.96c-.67-46.113-1-36.018-5.46-66.993-1.85-12.771-.06-25.037 2.49-36.547-2.74-11.288-5.77-22.378-8.29-28.499-2.49-6.078-3.24-14.238-3.41-17.949z"/><path fill="#8a8f96" d="m1028.19 648.345 11.54-6.974h15.06l16.53 9.642-11.85 14.535-3.9 56.181 9.89-.11-.03.225h-40.58l.12-12.771-.23-11.052-3.78-26.048-1.06-7.42a17.27 17.27 0 0 1 8.29-16.208"/><path fill="#5a5f63" d="M1055.41 721.844h10.21l5.71-70.831-11.84 14.535z"/><path fill="#87b8e4" d="M1041.01 640.96h12.96l-4.79 3.837-4.79 2.043-3.69-2.016-.42-2.774z"/><path d="m1043.87 644.321 4.68 3.388-3.39 4.367 1.93 4.345-1.18 47.888-4.81 6.277-5.34-7.24 3.87-46.91 2.63-4.345-2.44-3.891z"/><path fill="#c2c7cd" d="M1050.48 650.567s-4.93-3.727-6.61-6.219c-.11-.168 3.67-.45 6.55-2.382 3.2-2.127 4.17-3.086 4.17-3.086l2.81 3.928s-4.99 5.404-6.92 7.759m-9.52-11.212c-.03 2.546 2.91 4.966 2.91 4.966l-5.07 6.216s-1.17-3.499-1.17-5.824 3.33-5.358 3.33-5.358"/><path d="m1069.63 741.996-7.17 7.473 2.51 6.727 1.81-.465-.39-4.238 1.96-1.806z"/><path fill="#c2c7cd" d="m1092.6 697.888-17.15-42.302c-2.7-5.267-6.48-7.241-11-6.071-6.81 2.344-5.76 11.624-4.59 15.595 2.2 7.568 16.72 38.826 18.24 39.653 9.6 5.232 14.5-6.875 14.5-6.875m-4.46 80.644-35.8-8.707 5.9-24.27 35.8 8.708z"/><path fill="#87b8e4" d="M1072.69 716.783c-2.01 8.433-2.69 18.037-3.04 25.213l-4.04 10.461s11.47 2.771 11.46 2.797c1.83-2.919 2.48-11.631 2.48-11.631s13.37-45.651 13.07-45.731c-1.33-.36-2.71-.527-4.09-.496-8.69.141-13.31 8.876-15.84 19.387"/><path fill="#00639b" d="M1063.38 761.741s4.62.888 7.43-.313c3.58-1.524 5.98-5.91 6.26-6.189l-11.48-2.782z"/><path fill="#c2c7cd" d="M1051.7 597.467c-1.5.393-5.19 1.81-7.17 3.906a.82.82 0 0 1-.67.272.55.55 0 0 1-.49-.5c-.09-.402.11-.807.38-1.123 2.4-2.744 6.06-4.095 8.08-4.142.38-.008.86.437.89.779.04.372-.44.656-1.02.808m-10.81 9.769s12.38 9.572 25.76 13.786c0 0-13.63-1.011-16.82-1.902-4.07-1.137-10.74-4.238-12.86-7.132-1.66-2.256-2.2-4.804 4.13-5.556.17-.016-.21.804-.21.804"/><path fill="#fff" d="M1068.57 603.644s-2.29-4.603-8.2-6.278c0 0-4.54-1.691-9-.4-1.81.532-8.03 1.625-10.48 10.269 0 0 1.82 6.366 16.19 10.48l9.56 3.313s6.13-8.931 1.93-17.384"/><path fill="#c2c7cd" d="M1067 601.531s-14.21-2.095-20.58 11.465c-.65.931-2.51-1.734-2.51-1.734 3.74-10.492 14.85-13.06 20.17-12.33 3.89.532 2.92 2.599 2.92 2.599m-1.87 7.807c-2.17.387-6.21 1.456-8.78 4.252-.23.261-.57.4-.92.378a.86.86 0 0 1-.78-.648 1.39 1.39 0 0 1 .4-1.486c3.62-3.345 7.47-4.944 9.98-4.6l.06.009c1.2.183 1.23 1.882.04 2.095"/><path fill="#142840" d="M1207.25 758.889c2.56-9.844 5.2-18.973 7.4-24.28 3.47-8.414 3.44-20.65 3.44-20.65h8.3l2.67 5.636.08.165c.11.715.55 5.087.91 8.882.27 2.805.47 5.334.47 5.884l-1.87 53.482-.42 11.796-1.34 12.924-3.69 35.444h-15.59c-1.98-12.649.5-27.552 5.53-46.168 2.72-9.981-1.62-26.287-5.89-43.115"/><path fill="#083e63" d="M1174.78 848.364c.14-25.105-.85-34.096 1.9-43.5.22-.798.49-1.568.77-2.393.24-.659.49-1.347.77-2.034l.08-.413s.69-1.402 1.04-2.145v-.027l.17-.412v-.028c.27-.605.58-1.21.88-1.815l.22-.44.03-.055.22-.44s.02-.027.02-.055c.33-.632.66-1.292 1.02-1.952l.03-.055.22-.44.05-.11.22-.412c.03-.028.03-.083.06-.11l.22-.44.05-.083.58-1.045.06-.11c.08-.137.13-.275.22-.412l.11-.22.16-.33.14-.247.16-.303.14-.275.17-.275.16-.275.11-.22.19-.33c.17-.275.31-.577.44-.88 1.38-3.134 1.57-7.479 1.43-12.538-.55-22.273-3.43-34.234-.08-45.618 1.32-4.537 3.63-8.991 7.48-14.051h23.87c0 .055.03 12.291-3.44 20.705-2.17 5.307-4.81 14.409-7.4 24.253-1.29 4.894-2.53 9.954-3.71 14.848-3.63 15.151-6.46 28.405-6.46 28.405l-7.26 45.782-4.45.22z"/><path fill="#979ea4" d="M1220.81 871.407c.05 0 0 0 0 0v.027zm-.11-.028c-.03 0 .05.028 0 0l-4.81.028-.03.137a.5.5 0 0 1-.11-.192c-1.87-6.985-4.01-14.519-5.36-23.043h12.81zm-46.28-.055c.28-8.964.39-16.526.44-23.015l10.56-.055-5.88 23.153h-.11z"/><path fill="#047bc0" d="m1220.67 871.352 23.76 8.221-.06.083a10.15 10.15 0 0 1-7.83 3.684h-23.13l2.45-11.85.03-.138zm-56.78 7.644 10.37-7.809h.24l5.04.055.93 12.126h-14.27c-1.54 0-2.8-1.265-2.8-2.805 0-.55.16-1.1.49-1.567"/><path fill="#142840" d="M1181.3 657.007c-.45-2.072-.67-4.235-.41-6.302.59-4.321 2.37-8.368 4.99-11.305a12.35 12.35 0 0 0 2.98-9.222c-.15-1.724-.3-3.509-.37-4.828-.36-8.311 2.65-14.09 13.39-15.479 4.4-.574 7.28 1.293 9.17 3.828 0 .026.03.019.04.046 3.61 1.237 7.83 5.617 4.19 12.025l2.04 7.507c.05.073.1.145.18.21 1.74 2.204 4.65 5.885 5.35 8.458 1.38 5.041.57 9.107-.1 11.229l2.57 9.444-40.75 10.342s-2.26-1.066-4.37-4.71c-1.67-2.88-2.21-6.036 1.1-11.243m30.97-37.771c-.53 6.615-10.15 10.234-14.5 11.534-.47-.584-4.28-4.846-5.74-2.053-1.3 2.549 3.05 6.179 4.81 7.522l1.67 20.01 15.49-4.224s-1.56-3.849-3.21-7.903c-.4-1.032-.81-2.031-1.19-3.01a19.3 19.3 0 0 0 4.14-1.955s.5-2.986.49-8.882a46 46 0 0 0-1.33-10.385z"/><path fill="#7d828a" d="M1205.55 641.818c1.41-.043 2.8-.279 4.12-.754.38.979.78 2.011 1.17 3.043-1.89-.48-3.64-1.343-5.29-2.289"/><path fill="#a3aab2" d="M1213.82 639.135a19 19 0 0 1-4.11 1.948c-1.34.449-2.72.711-4.13.755 1.66.972 3.43 1.715 5.29 2.262 1.62 4.062 3.21 7.903 3.21 7.903l-15.49 4.224-1.75-19.988c-1.76-1.343-6.11-4.973-4.81-7.522 1.51-2.92 5.33 1.481 5.82 2.031 4.38-1.307 13.85-4.916 14.39-11.505l.72.632c.81 3.398 1.28 6.891 1.32 10.385.04 5.889-.46 8.875-.46 8.875"/><path fill="#979ea4" d="m1259.14 679.285 10.45-4.4 1.59 8.717-9.56 2.172c-19.28 14.271-45.48 19.001-44.11 3.877-.14-.275 41.63-10.366 41.63-10.366"/><path fill="#2e91cf" d="M1261.62 685.774c-19.28 14.271-45.48 19.001-44.11 3.877l40.97-8.524zM1221 655.362c4.15.935 7.48 4.262 8.11 8.47l.72 7.616c-6.35-9.761-8.83-16.086-8.83-16.086"/><path fill="#eff1f2" d="M1229.53 719.705c.19 1.293 1.4 13.611 1.4 14.904.03-1.265-1.21-13.611-1.4-14.904"/><path fill="#00639b" d="m1192.9 709.119-11.41-39.953c-.03-.22-.06-.412-.08-.632 0-.083 0-.138-.03-.22 0-.138-.03-.275-.03-.413 0-.082 0-.165-.03-.247 0-.11-.02-.248-.02-.358v-1.98c0-.082 0-.22.02-.302l.03-.248c0-.11.03-.22.03-.302 0-.083.03-.165.03-.248l.02-.302c0-.082.03-.165.03-.247a.9.9 0 0 1 .06-.275c.02-.083.02-.165.05-.248s.03-.192.06-.275l.05-.22c.03-.082.06-.192.08-.275l.06-.22c.03-.082.05-.192.08-.275.03-.082.06-.137.06-.22a.8.8 0 0 1 .11-.275c.02-.082.05-.137.08-.192.03-.11.08-.193.11-.303l.05-.165c.06-.11.11-.247.17-.357.03-.028.03-.055.03-.083.08-.137.13-.275.22-.44.02-.027.05-.082.08-.11.05-.11.11-.22.19-.302.03-.055.06-.11.11-.165.06-.055.11-.165.17-.247l.11-.165c.05-.083.11-.165.16-.22a.9.9 0 0 1 .14-.165c.05-.055.11-.138.19-.22.06-.083.11-.11.14-.165s.14-.138.19-.193l.17-.165c.05-.055.13-.137.22-.192l.16-.138c.08-.055.14-.11.22-.165l.19-.137c.09-.055.14-.11.22-.165l.2-.138.24-.165.22-.137.25-.138c.08-.027.14-.082.22-.11l.28-.137.22-.11c.08-.055.19-.083.3-.138l.22-.082c.11-.055.22-.083.33-.11l.16-.028 14 53.482z"/><path fill="#2e91cf" d="M1227.55 709.119h-25.49l-14.03-53.509v-.055c.36-.11 8.39-2.777 8.39-2.777l1.54-3.795h15.4l1.4 3.795 5.31 2.172 1.01.412s2.48 6.352 8.83 16.086l.19.303c2.86 3.739 4.07 7.644 2.31 15.288-.57 2.53-1.18 5.197-1.78 7.864-1.76 7.947-3.08 14.216-3.08 14.216"/><path fill="#142840" d="M1192.9 709.119h34.62l-1.05 4.812h-32.25z"/><path fill="#fff" d="M1197.71 649.506c-1.18 1.402-3.52 2.639-6.49 4.262-2.17 1.182-3.85 1.374-5.22 2.199l.82 30.247-4.94 34.666h22s1.34-32.329 3.29-45.665c-3.13-11.163-6.35-14.518-9.46-25.709m33.11 22.96c1.92 3.024 3.3 5.224 1.92 12.923 0 0 1.11 31.311 1.14 35.491-10.06-.027-10 0-10 0l3.64-47.04-12.1-18.972c-.55-1.65-1.48-4.263-2.03-5.912 1.84 1.374 5.85 4.95 7.69 6.324 3.94 6.022 5.81 11.164 9.74 17.186"/><g clip-path="url(#a)"><path fill="#71767c" d="M1175.88 695.88v14h59.6v-14z"/></g><path fill="#2e91cf" d="M1188.06 655.005c-4.98.797-8.47 3.3-9.98 9.349l-8.91 29.532 18.92-7.067s3.11-5.472 3.68-14.463c.28-4.29.09-12.594-3.71-17.351"/><path fill="#979ea4" d="m1214.98 675.105 6.85-4.894 4.51 10.064c-1.76.22-7.84 1.072-8.36 1.347-3.05 1.017-12.57 6.379-14.22 8.029-1.81 1.788-1.79-6.352-3.57-8.249z"/><path fill="#083e63" d="m1227.68 694.463 16.42-33.464a2.16 2.16 0 0 1 1.9-1.265h27.63c1.65 0 2.7 2.008 1.9 3.658l-16.42 33.463a2.15 2.15 0 0 1-1.89 1.265h-27.64c-1.65 0-2.69-2.007-1.9-3.657"/><path fill="#a3aab2" d="m1273.3 671.338-11.46.385c-.33 2.337.93 5.802 3.24 7.067l6.1 4.812z"/><path fill="#7d828a" d="M1235.19 672.383s-.16.798-.44 1.842c-.11.385-2.64 1.128-2.78 1.54-.24.908-.57 1.788-.93 2.64-.88 1.897-4.7 1.87-4.7 1.87l-4.51-10.064z"/><path fill="#a3aab2" d="M1251.44 659.734h16.22l-1.65-1.099h-13.74z"/><path fill="#2e91cf" d="M1211.46 686.352c-23.23 12.401-31.35 23.647-42.26 7.369l38.41-16.168z"/><path fill="#c2c7cd" d="M1203.4 604.955c1.5.392 5.2 1.81 7.17 3.906.17.188.42.288.67.272.26-.03.47-.238.5-.5.09-.402-.11-.807-.39-1.123-2.4-2.744-6.05-4.095-8.08-4.142-.38-.008-.86.436-.89.78-.03.37.44.655 1.02.807m10.81 9.768s-12.38 9.572-25.76 13.786c0 0 13.64-1.011 16.82-1.902 4.07-1.136 10.74-4.238 12.86-7.132 1.66-2.255 2.2-4.803-4.13-5.555-.17-.016.21.803.21.803"/><path fill="#fff" d="M1186.53 611.132s2.29-4.604 8.2-6.278c0 0 4.54-1.691 9-.401 1.81.533 8.03 1.626 10.48 10.269 0 0-1.82 6.366-16.19 10.481l-9.56 3.312s-6.13-8.93-1.93-17.383"/><path fill="#c2c7cd" d="M1188.1 609.019s14.21-2.095 20.59 11.464c.64.932 2.51-1.733 2.51-1.733-3.75-10.492-14.86-13.06-20.18-12.332-3.88.534-2.92 2.601-2.92 2.601m1.87 7.807c2.17.387 6.22 1.456 8.78 4.252.23.261.58.4.93.378.37-.03.68-.289.78-.648.17-.531.01-1.115-.4-1.486-3.63-3.345-7.47-4.944-9.99-4.601l-.06.009c-1.2.183-1.23 1.883-.04 2.096"/><path d="m1165.09 520.652-1.42-1.414 19.8-19.799 1.42 1.414z"/><g font-family="BoschSans-Bold,'Bosch Sans'" font-weight="700"><text fill="#047bc0" font-size="48" transform="translate(42.314 92.057)"><tspan x="0" y="0" letter-spacing="-.017em">U</tspan><tspan x="35.138" y="0" letter-spacing="-.013em">s</tspan><tspan x="59.812" y="0">o </tspan><tspan x="105.046" y="0" letter-spacing="-.013em">e</tspan><tspan x="132.791" y="0" letter-spacing="0em">f</tspan><tspan x="151.671" y="0" letter-spacing="-.017em">i</tspan><tspan x="165.725" y="0" letter-spacing="-.019em">c</tspan><tspan x="191.311" y="0" letter-spacing="-.017em">i</tspan><tspan x="205.364" y="0" letter-spacing="-.009em">e</tspan><tspan x="233.338" y="0" letter-spacing="-.021em">n</tspan><tspan x="262.34" y="0" letter-spacing="-.022em">t</tspan><tspan x="281.027" y="0">e </tspan><tspan x="324.855" y="0" letter-spacing="-.014em">d</tspan><tspan x="355.069" y="0" letter-spacing="-.01em">e</tspan><tspan x="382.967" y="0">l </tspan><tspan x="415.92" y="0" letter-spacing="-.008em">a</tspan><tspan x="442.793" y="0" letter-spacing="-.015em">g</tspan><tspan x="469.885" y="0" letter-spacing="-.01em">u</tspan><tspan x="498.992" y="0">a</tspan></text><text transform="translate(41.467 228.268)"><tspan font-size="36"><tspan x="0" y="0" letter-spacing="-.004em">L</tspan><tspan x="20.89" y="0" letter-spacing="-.011em">o</tspan><tspan x="42.84" y="0">s </tspan><tspan x="73.408" y="0" letter-spacing="-.013em">s</tspan><tspan x="91.939" y="0" letter-spacing="-.015em">i</tspan><tspan x="102.525" y="0" letter-spacing="-.014em">t</tspan><tspan x="116.857" y="0" letter-spacing="-.013em">i</tspan><tspan x="127.527" y="0" letter-spacing="-.011em">o</tspan><tspan x="149.477" y="0">s </tspan><tspan x="180.045" y="0" letter-spacing="-.011em">d</tspan><tspan x="202.834" y="0">e </tspan><tspan x="235.706" y="0" letter-spacing="-.008em">m</tspan><tspan x="268.338" y="0" letter-spacing="-.01em">a</tspan><tspan x="288.446" y="0" letter-spacing="-.011em">n</tspan><tspan x="310.579" y="0" letter-spacing="-.008em">u</tspan><tspan x="332.478" y="0" letter-spacing="-.006em">f</tspan><tspan x="346.422" y="0" letter-spacing="-.01em">a</tspan><tspan x="366.538" y="0" letter-spacing=".003em">c</tspan><tspan x="386.541" y="0" letter-spacing="-.016em">t</tspan><tspan x="400.797" y="0" letter-spacing="-.012em">u</tspan><tspan x="422.581" y="0" letter-spacing=".006em">r</tspan><tspan x="438.604" y="0">a</tspan></tspan><tspan font-size="24"><tspan x="0" y="27" letter-spacing="-.007em">d</tspan><tspan x="15.287" y="27">e </tspan><tspan x="37.201" y="27" letter-spacing=".007em">B</tspan><tspan x="54.488" y="27" letter-spacing="-.007em">o</tspan><tspan x="69.214" y="27" letter-spacing="-.006em">s</tspan><tspan x="81.731" y="27" letter-spacing="-.008em">c</tspan><tspan x="94.793" y="27">h </tspan><tspan x="117.527" y="27" letter-spacing="-.001em">e</tspan><tspan x="131.69" y="27">n </tspan><tspan x="154.424" y="27" letter-spacing="-.001em">M</tspan><tspan x="177.393" y="27" letter-spacing="-.021em">é</tspan><tspan x="191.089" y="27" letter-spacing="-.011em">x</tspan><tspan x="204.949" y="27" letter-spacing="-.009em">i</tspan><tspan x="212.158" y="27" letter-spacing="-.008em">c</tspan><tspan x="225.225" y="27">o </tspan><tspan x="247.842" y="27" letter-spacing="-.009em">t</tspan><tspan x="257.493" y="27" letter-spacing="-.009em">i</tspan><tspan x="264.702" y="27" letter-spacing="-.001em">e</tspan><tspan x="278.864" y="27" letter-spacing="-.006em">n</tspan><tspan x="293.739" y="27" letter-spacing="-.001em">e</tspan><tspan x="307.902" y="27">n</tspan></tspan><tspan font-size="24"><tspan x="0" y="54" letter-spacing="-.008em">u</tspan><tspan x="14.616" y="54">n </tspan><tspan x="37.351" y="54" letter-spacing="-.001em">e</tspan><tspan x="51.513" y="54" letter-spacing="-.012em">n</tspan><tspan x="66.249" y="54" letter-spacing="-.014em">f</tspan><tspan x="75.368" y="54" letter-spacing=".001em">o</tspan><tspan x="90.281" y="54" letter-spacing="-.006em">qu</tspan><tspan x="120.197" y="54">e </tspan><tspan x="142.111" y="54" letter-spacing="-.007em">d</tspan><tspan x="157.398" y="54">e </tspan><tspan x="179.312" y="54" letter-spacing="-.011em">c</tspan><tspan x="192.307" y="54" letter-spacing="-.009em">u</tspan><tspan x="206.898" y="54" letter-spacing="-.005em">i</tspan><tspan x="214.206" y="54" letter-spacing="-.003em">dda</tspan><tspan x="258.5" y="54" letter-spacing="-.007em">d</tspan><tspan x="273.786" y="54">o </tspan><tspan x="296.403" y="54" letter-spacing="-.007em">d</tspan><tspan x="311.69" y="54" letter-spacing="-.003em">e</tspan><tspan x="325.814" y="54">l </tspan><tspan x="342.291" y="54" letter-spacing="-.001em">a</tspan><tspan x="355.903" y="54" letter-spacing="-.007em">g</tspan><tspan x="369.631" y="54" letter-spacing="-.003em">u</tspan><tspan x="384.362" y="54" letter-spacing=".003em">a</tspan><tspan x="398.08" y="54">.</tspan></tspan></text><text font-size="24" transform="translate(225.87 442.244)"><tspan x="0" y="0" letter-spacing="-.011em">p</tspan><tspan x="15.174" y="0" letter-spacing="-.02em">r</tspan><tspan x="25.236" y="0" letter-spacing="-.033em">o</tspan><tspan x="39.332" y="0" letter-spacing="-.033em">y</tspan><tspan x="51.974" y="0" letter-spacing="-.01em">e</tspan><tspan x="65.916" y="0" letter-spacing="-.003em">c</tspan><tspan x="79.098" y="0" letter-spacing="-.024em">t</tspan><tspan x="88.391" y="0" letter-spacing="-.017em">o</tspan><tspan x="102.878" y="0" letter-spacing="-.01em">s </tspan><tspan x="122.777" y="0" letter-spacing="-.013em">p</tspan><tspan x="137.913" y="0" letter-spacing="-.016em">a</tspan><tspan x="151.171" y="0" letter-spacing="0em">r</tspan><tspan x="161.699" y="0" letter-spacing="-.01em">a </tspan><tspan x="0" y="27" letter-spacing="-.014em">u</tspan><tspan x="14.462" y="27" letter-spacing="-.016em">s</tspan><tspan x="26.739" y="27" letter-spacing="-.01em">o </tspan><tspan x="48.876" y="27" letter-spacing="-.016em">e</tspan><tspan x="62.689" y="27" letter-spacing="-.003em">f</tspan><tspan x="72.06" y="27" letter-spacing="-.019em">i</tspan><tspan x="79.029" y="27" letter-spacing="-.021em">c</tspan><tspan x="91.767" y="27" letter-spacing="-.019em">i</tspan><tspan x="98.735" y="27" letter-spacing="-.011em">e</tspan><tspan x="112.658" y="27" letter-spacing="-.024em">n</tspan><tspan x="127.106" y="27" letter-spacing="-.024em">t</tspan><tspan x="136.399" y="27" letter-spacing="-.01em">e </tspan><tspan x="0" y="54" letter-spacing="-.017em">d</tspan><tspan x="15.047" y="54" letter-spacing="-.013em">e</tspan><tspan x="28.931" y="54" letter-spacing="-.01em">l </tspan><tspan x="44.928" y="54" letter-spacing="-.011em">a</tspan><tspan x="58.299" y="54" letter-spacing="-.017em">g</tspan><tspan x="71.788" y="54" letter-spacing="-.013em">u</tspan><tspan x="86.279" y="54" letter-spacing="-.01em">a</tspan></text><text font-size="24" transform="translate(657.802 121.82)"><tspan x="0" y="0" letter-spacing=".001em">D</tspan><tspan x="18.338" y="0" letter-spacing="-.003em">e</tspan><tspan x="32.458" y="0" letter-spacing="-.003em">s</tspan><tspan x="45.035" y="0" letter-spacing="-.007em">d</tspan><tspan x="60.321" y="0">e </tspan><tspan x="82.235" y="0" letter-spacing=".01em">2</tspan><tspan x="97.077" y="0" letter-spacing="-.016em">0</tspan><tspan x="111.25" y="0" letter-spacing="-.066em">1</tspan><tspan x="124.495" y="0" letter-spacing="-.089em">7</tspan><tspan x="136.96" y="0">,</tspan><tspan x="0" y="27" letter-spacing="-.006em">ah</tspan><tspan x="28.369" y="27" letter-spacing="-.006em">o</tspan><tspan x="43.129" y="27" letter-spacing=".001em">r</tspan><tspan x="53.688" y="27" letter-spacing="-.01em">r</tspan><tspan x="63.991" y="27">o </tspan><tspan x="86.608" y="27" letter-spacing="-.007em">d</tspan><tspan x="101.895" y="27">e:</tspan></text><text font-size="24" transform="translate(827.88 277.305)"><tspan x="0" y="0" letter-spacing="-.061em">(</tspan><tspan x="8.919" y="0" letter-spacing="-.038em">1</tspan><tspan x="22.835" y="0">3 </tspan><tspan x="45.078" y="0" letter-spacing="-.009em">a</tspan><tspan x="58.507" y="0" letter-spacing=".006em">l</tspan><tspan x="67.41" y="0" letter-spacing="0em">b</tspan><tspan x="82.862" y="0" letter-spacing="-.001em">e</tspan><tspan x="97.025" y="0" letter-spacing="-.009em">r</tspan><tspan x="107.339" y="0" letter-spacing=".008em">c</tspan><tspan x="120.773" y="0" letter-spacing="-.005em">a</tspan><tspan x="134.287" y="0">s</tspan><tspan x="0" y="27" letter-spacing="-.007em">o</tspan><tspan x="14.719" y="27" letter-spacing=".004em">l</tspan><tspan x="23.562" y="27" letter-spacing="-.006em">í</tspan><tspan x="30.766" y="27" letter-spacing="-.006em">m</tspan><tspan x="52.568" y="27" letter-spacing="-.006em">p</tspan><tspan x="67.879" y="27" letter-spacing="-.009em">i</tspan><tspan x="75.088" y="27" letter-spacing=".008em">c</tspan><tspan x="88.522" y="27" letter-spacing="-.005em">a</tspan><tspan x="102.035" y="27" letter-spacing="-.05em">s</tspan><tspan x="113.501" y="27">)</tspan></text><text fill="#047bc0" font-size="84" transform="translate(657.732 226.294)"><tspan x="0" y="0" letter-spacing="-.01em">3</tspan><tspan x="49.995" y="0" letter-spacing=".01em">2</tspan><tspan x="101.916" y="0" letter-spacing="-.013em">,</tspan><tspan x="126.712" y="0" letter-spacing=".012em">00</tspan><tspan x="230.56" y="0" letter-spacing="0">0</tspan><tspan x="281.502" y="0" letter-spacing="-.122em"> </tspan><tspan x="298.302" y="0" letter-spacing="-.05em">m</tspan></text><text fill="#047bc0" font-size="84" letter-spacing="-.05em" transform="translate(1028.656 198.322)scale(.583)"><tspan x="0" y="0">3</tspan></text><text fill="#fff" font-size="24" transform="translate(715.07 567.892)"><tspan x="0" y="0" letter-spacing="-.003em">S</tspan><tspan x="15.676" y="0" letter-spacing="-.004em">u</tspan><tspan x="30.378" y="0" letter-spacing="-.005em">s</tspan><tspan x="42.919" y="0" letter-spacing="-.014em">t</tspan><tspan x="52.453" y="0" letter-spacing="-.001em">e</tspan><tspan x="66.615" y="0" letter-spacing="-.014em">n</tspan><tspan x="81.303" y="0" letter-spacing="-.003em">t</tspan><tspan x="91.1" y="0" letter-spacing="-.006em">a</tspan><tspan x="104.599" y="0" letter-spacing="-.006em">b</tspan><tspan x="119.91" y="0" letter-spacing="-.01em">i</tspan><tspan x="127.09" y="0" letter-spacing=".004em">l</tspan><tspan x="135.945" y="0" letter-spacing="-.005em">i</tspan><tspan x="143.252" y="0" letter-spacing="-.003em">da</tspan><tspan x="172.175" y="0">d</tspan></text><text font-size="48" transform="translate(1113.549 196.212)"><tspan x="0" y="0" letter-spacing="-.005em">T</tspan><tspan x="28.452" y="0" letter-spacing="-.016em">i</tspan><tspan x="42.553" y="0" letter-spacing="-.007em">p</tspan><tspan x="73.107" y="0">o </tspan><tspan x="118.342" y="0" letter-spacing="-.014em">d</tspan><tspan x="148.556" y="0">e</tspan><tspan x="0" y="55.2" letter-spacing="-.009em">p</tspan><tspan x="30.473" y="55.2" letter-spacing="-.017em">r</tspan><tspan x="50.708" y="55.2" letter-spacing="-.031em">o</tspan><tspan x="78.985" y="55.2" letter-spacing="-.031em">y</tspan><tspan x="104.361" y="55.2" letter-spacing="-.008em">e</tspan><tspan x="132.375" y="55.2">c</tspan><tspan x="158.883" y="55.2" letter-spacing="-.022em">t</tspan><tspan x="177.569" y="55.2" letter-spacing="-.014em">o</tspan><tspan x="206.663" y="55.2">s</tspan></text><text font-size="16" transform="translate(1218.2 306.936)"><tspan x="0" y="0" letter-spacing=".005em">C</tspan><tspan x="11.889" y="0" letter-spacing="-.003em">a</tspan><tspan x="20.929" y="0" letter-spacing="-.005em">p</tspan><tspan x="31.147" y="0" letter-spacing="-.001em">t</tspan><tspan x="37.719" y="0" letter-spacing="-.003em">a</tspan><tspan x="46.761" y="0" letter-spacing="-.009em">c</tspan><tspan x="55.457" y="0" letter-spacing="-.007em">i</tspan><tspan x="60.304" y="0" letter-spacing="-.003em">ó</tspan><tspan x="70.184" y="0">n </tspan><tspan x="85.34" y="0" letter-spacing="-.004em">d</tspan><tspan x="95.573" y="0">e </tspan><tspan x="110.183" y="0" letter-spacing=".001em">a</tspan><tspan x="119.297" y="0" letter-spacing="-.005em">g</tspan><tspan x="128.489" y="0" letter-spacing="0em">u</tspan><tspan x="138.35" y="0">a </tspan><tspan x="152.592" y="0" letter-spacing="-.004em">d</tspan><tspan x="162.825" y="0">e </tspan><tspan x="177.434" y="0" letter-spacing="-.003em">l</tspan><tspan x="183.214" y="0" letter-spacing="-.006em">l</tspan><tspan x="188.956" y="0" letter-spacing="-.002em">u</tspan><tspan x="198.792" y="0" letter-spacing="-.004em">v</tspan><tspan x="207.554" y="0" letter-spacing="-.003em">i</tspan><tspan x="212.459" y="0">a p</tspan><tspan x="242.146" y="0" letter-spacing="-.003em">a</tspan><tspan x="251.186" y="0" letter-spacing=".012em">r</tspan><tspan x="258.401" y="0" letter-spacing="0em">a </tspan><tspan x="272.644" y="0" letter-spacing=".001em">r</tspan><tspan x="279.69" y="0" letter-spacing="-.007em">i</tspan><tspan x="284.538" y="0" letter-spacing=".004em">e</tspan><tspan x="294.057" y="0" letter-spacing="-.011em">g</tspan><tspan x="303.139" y="0" letter-spacing="-.011em">o</tspan><tspan x="312.9" y="0">.</tspan><tspan x="0" y="36.8" letter-spacing="-.003em">Im</tspan><tspan x="20.069" y="36.8">p</tspan><tspan x="30.366" y="36.8" letter-spacing="-.005em">l</tspan><tspan x="36.122" y="36.8" letter-spacing=".001em">e</tspan><tspan x="45.605" y="36.8" letter-spacing="-.003em">m</tspan><tspan x="60.187" y="36.8" letter-spacing=".001em">e</tspan><tspan x="69.67" y="36.8" letter-spacing="-.011em">n</tspan><tspan x="79.505" y="36.8" letter-spacing="-.001em">t</tspan><tspan x="86.077" y="36.8" letter-spacing="-.003em">a</tspan><tspan x="95.12" y="36.8" letter-spacing="-.009em">c</tspan><tspan x="103.815" y="36.8" letter-spacing="-.007em">i</tspan><tspan x="108.662" y="36.8" letter-spacing="-.003em">ó</tspan><tspan x="118.542" y="36.8">n </tspan><tspan x="133.699" y="36.8" letter-spacing="-.004em">d</tspan><tspan x="143.932" y="36.8">e </tspan><tspan x="158.541" y="36.8" letter-spacing=".001em">a</tspan><tspan x="167.655" y="36.8" letter-spacing="-.005em">g</tspan><tspan x="176.848" y="36.8" letter-spacing="0em">u</tspan><tspan x="186.708" y="36.8">a </tspan><tspan x="200.951" y="36.8" letter-spacing="-.004em">t</tspan><tspan x="207.476" y="36.8" letter-spacing=".012em">r</tspan><tspan x="214.691" y="36.8" letter-spacing="-.01em">a</tspan><tspan x="223.628" y="36.8" letter-spacing="-.001em">tad</tspan><tspan x="249.562" y="36.8">a p</tspan><tspan x="274.101" y="36.8" letter-spacing="-.003em">a</tspan><tspan x="283.14" y="36.8" letter-spacing=".012em">r</tspan><tspan x="290.355" y="36.8">a </tspan><tspan x="0" y="55.2" letter-spacing="-.002em">u</tspan><tspan x="9.843" y="55.2" letter-spacing="-.003em">s</tspan><tspan x="18.229" y="55.2">o </tspan><tspan x="33.308" y="55.2" letter-spacing=".001em">s</tspan><tspan x="41.758" y="55.2" letter-spacing="-.003em">a</tspan><tspan x="50.797" y="55.2" letter-spacing="-.006em">n</tspan><tspan x="60.704" y="55.2" letter-spacing="-.009em">i</tspan><tspan x="65.515" y="55.2" letter-spacing="-.001em">t</tspan><tspan x="72.086" y="55.2" letter-spacing="-.003em">a</tspan><tspan x="81.126" y="55.2" letter-spacing=".002em">r</tspan><tspan x="88.173" y="55.2" letter-spacing="-.007em">i</tspan><tspan x="93.021" y="55.2" letter-spacing="-.011em">o</tspan><tspan x="102.783" y="55.2">.</tspan><tspan x="0" y="92" letter-spacing="-.007em">R</tspan><tspan x="11.438" y="92" letter-spacing=".002em">e</tspan><tspan x="20.934" y="92" letter-spacing=".001em">e</tspan><tspan x="30.417" y="92" letter-spacing="-.004em">m</tspan><tspan x="44.994" y="92">p</tspan><tspan x="55.291" y="92" letter-spacing=".014em">l</tspan><tspan x="61.354" y="92" letter-spacing="-.005em">a</tspan><tspan x="70.363" y="92" letter-spacing="-.007em">z</tspan><tspan x="78.549" y="92">o </tspan><tspan x="93.627" y="92" letter-spacing="-.004em">d</tspan><tspan x="103.86" y="92">e </tspan><tspan x="118.47" y="92" letter-spacing=".007em">e</tspan><tspan x="128.036" y="92" letter-spacing="-.004em">q</tspan><tspan x="138.257" y="92" letter-spacing="-.006em">u</tspan><tspan x="148.026" y="92" letter-spacing="-.005em">i</tspan><tspan x="152.892" y="92" letter-spacing=".003em">p</tspan><tspan x="163.233" y="92">o </tspan><tspan x="178.312" y="92" letter-spacing=".003em">(</tspan><tspan x="185.275" y="92" letter-spacing="0em">g</tspan><tspan x="194.534" y="92" letter-spacing=".002em">r</tspan><tspan x="201.582" y="92" letter-spacing="-.006em">i</tspan><tspan x="206.432" y="92" letter-spacing="-.011em">f</tspan><tspan x="212.555" y="92" letter-spacing="-.004em">o</tspan><tspan x="222.416" y="92" letter-spacing=".008em">s</tspan><tspan x="230.987" y="92">,</tspan><tspan x="0" y="110.4" letter-spacing="-.007em">r</tspan><tspan x="6.91" y="110.4" letter-spacing=".004em">e</tspan><tspan x="16.428" y="110.4" letter-spacing=".001em">g</tspan><tspan x="25.709" y="110.4" letter-spacing="-.001em">a</tspan><tspan x="34.786" y="110.4" letter-spacing="-.004em">d</tspan><tspan x="45.019" y="110.4" letter-spacing=".001em">e</tspan><tspan x="54.502" y="110.4" letter-spacing=".012em">r</tspan><tspan x="61.718" y="110.4" letter-spacing="-.003em">a</tspan><tspan x="70.769" y="110.4" letter-spacing="-.046em">s</tspan><tspan x="78.465" y="110.4" letter-spacing="-.018em">)</tspan><tspan x="85.096" y="110.4">.</tspan><tspan x="0" y="147.2" letter-spacing="-.006em">U</tspan><tspan x="11.887" y="147.2" letter-spacing="-.003em">s</tspan><tspan x="20.273" y="147.2">o </tspan><tspan x="35.352" y="147.2" letter-spacing="-.006em">m</tspan><tspan x="49.888" y="147.2" letter-spacing="-.004em">í</tspan><tspan x="54.734" y="147.2" letter-spacing="-.006em">n</tspan><tspan x="64.641" y="147.2" letter-spacing="-.005em">i</tspan><tspan x="69.506" y="147.2" letter-spacing="-.003em">m</tspan><tspan x="84.087" y="147.2">o </tspan><tspan x="99.166" y="147.2" letter-spacing="-.004em">d</tspan><tspan x="109.398" y="147.2">e </tspan><tspan x="124.008" y="147.2" letter-spacing=".001em">a</tspan><tspan x="133.123" y="147.2" letter-spacing="-.005em">g</tspan><tspan x="142.314" y="147.2" letter-spacing="0em">u</tspan><tspan x="152.175" y="147.2">a </tspan><tspan x="166.417" y="147.2" letter-spacing=".003em">p</tspan><tspan x="176.759" y="147.2" letter-spacing="-.008em">o</tspan><tspan x="186.563" y="147.2" letter-spacing="-.001em">t</tspan><tspan x="193.134" y="147.2" letter-spacing="-.003em">a</tspan><tspan x="202.173" y="147.2">b</tspan><tspan x="212.47" y="147.2" letter-spacing="-.005em">l</tspan><tspan x="218.226" y="147.2">e </tspan><tspan x="232.835" y="147.2" letter-spacing=".001em">e</tspan><tspan x="242.319" y="147.2">n </tspan><tspan x="0" y="165.6" letter-spacing=".001em">s</tspan><tspan x="8.45" y="165.6" letter-spacing="-.003em">a</tspan><tspan x="17.49" y="165.6" letter-spacing="-.006em">n</tspan><tspan x="27.396" y="165.6" letter-spacing="-.009em">i</tspan><tspan x="32.208" y="165.6" letter-spacing="-.001em">t</tspan><tspan x="38.779" y="165.6" letter-spacing="-.003em">a</tspan><tspan x="47.818" y="165.6" letter-spacing=".002em">r</tspan><tspan x="54.866" y="165.6" letter-spacing="-.007em">i</tspan><tspan x="59.713" y="165.6" letter-spacing="-.004em">o</tspan><tspan x="69.574" y="165.6">s y </tspan><tspan x="97.262" y="165.6" letter-spacing="-.005em">c</tspan><tspan x="106.014" y="165.6" letter-spacing="-.003em">om</tspan><tspan x="130.478" y="165.6" letter-spacing=".007em">e</tspan><tspan x="140.044" y="165.6" letter-spacing="-.004em">d</tspan><tspan x="150.277" y="165.6" letter-spacing="-.003em">o</tspan><tspan x="160.157" y="165.6" letter-spacing="-.007em">r</tspan><tspan x="167.067" y="165.6" letter-spacing="0em">e</tspan><tspan x="176.52" y="165.6" letter-spacing=".008em">s</tspan><tspan x="185.084" y="165.6">.</tspan><tspan x="0" y="202.4" letter-spacing="-.007em">R</tspan><tspan x="11.438" y="202.4" letter-spacing=".007em">e</tspan><tspan x="21.004" y="202.4" letter-spacing="-.004em">d</tspan><tspan x="31.232" y="202.4" letter-spacing="-.002em">u</tspan><tspan x="41.069" y="202.4" letter-spacing="-.004em">c</tspan><tspan x="49.838" y="202.4" letter-spacing="-.009em">c</tspan><tspan x="58.533" y="202.4" letter-spacing="-.007em">i</tspan><tspan x="63.381" y="202.4" letter-spacing="-.003em">ó</tspan><tspan x="73.261" y="202.4">n </tspan><tspan x="88.417" y="202.4" letter-spacing="-.004em">d</tspan><tspan x="98.65" y="202.4">e </tspan><tspan x="113.259" y="202.4" letter-spacing="-.002em">u</tspan><tspan x="123.103" y="202.4" letter-spacing="-.003em">s</tspan><tspan x="131.489" y="202.4">o </tspan><tspan x="146.567" y="202.4" letter-spacing="-.004em">d</tspan><tspan x="156.8" y="202.4">e </tspan><tspan x="171.409" y="202.4" letter-spacing=".001em">a</tspan><tspan x="180.524" y="202.4" letter-spacing="-.005em">g</tspan><tspan x="189.716" y="202.4" letter-spacing="0em">u</tspan><tspan x="199.577" y="202.4">a </tspan><tspan x="213.819" y="202.4" letter-spacing=".001em">e</tspan><tspan x="223.302" y="202.4">n </tspan><tspan x="0" y="220.8" letter-spacing=".001em">p</tspan><tspan x="10.316" y="220.8" letter-spacing="-.007em">r</tspan><tspan x="17.226" y="220.8" letter-spacing="-.001em">o</tspan><tspan x="27.133" y="220.8" letter-spacing="-.005em">c</tspan><tspan x="35.886" y="220.8" letter-spacing="0em">e</tspan><tspan x="45.339" y="220.8" letter-spacing="-.003em">s</tspan><tspan x="53.725" y="220.8" letter-spacing="-.004em">o</tspan><tspan x="63.586" y="220.8">s </tspan><tspan x="77.172" y="220.8" letter-spacing=".001em">p</tspan><tspan x="87.488" y="220.8" letter-spacing="-.007em">r</tspan><tspan x="94.398" y="220.8" letter-spacing=".003em">o</tspan><tspan x="104.379" y="220.8" letter-spacing="-.004em">d</tspan><tspan x="114.607" y="220.8" letter-spacing="-.002em">u</tspan><tspan x="124.444" y="220.8" letter-spacing=".009em">c</tspan><tspan x="133.43" y="220.8" letter-spacing="-.007em">t</tspan><tspan x="139.906" y="220.8" letter-spacing="-.003em">i</tspan><tspan x="144.806" y="220.8" letter-spacing="-.018em">v</tspan><tspan x="153.341" y="220.8" letter-spacing="-.004em">o</tspan><tspan x="163.202" y="220.8" letter-spacing=".008em">s</tspan><tspan x="171.766" y="220.8">.</tspan></text><text fill="#047bc0" font-size="84" letter-spacing=".018em" transform="translate(225.88 401.825)"><tspan x="0" y="0">48</tspan></text></g></svg>