<svg xmlns="http://www.w3.org/2000/svg" data-name="Ebene 1" viewBox="0 0 1920 1080"><defs><clipPath id="a"><path fill="none" stroke-width="0" d="M0 0h1920v1080H0z"/></clipPath></defs><g clip-path="url(#a)"><path fill="#eff1f2" stroke="#eff1f2" stroke-miterlimit="10" d="M-674.742-287.418h3315.291v1874.406H-674.742z"/><path fill="#a4abb3" d="m2117.867 1081.753-792.101 509.99-690.516 1.255-811.346-485.563 7.576-650.89 1026.252-86.954a1458 1458 0 0 1 247.632.126l1012.503 86.829z"/><path fill="#979ea4" d="m2115.001 1113.727-792.101 509.99-690.516 1.254-811.346-485.562 7.576-650.89 1026.252-86.955a1458 1458 0 0 1 247.632.126L2115 488.52z"/><path fill="#c1c7cc" d="M2117.708 745.93s12.957 68.85-53.756 126.974c-25.904 22.568-60.006 33.404-94.285 31.113-113.169-7.562-429-24.994-593.69 2.98-95.143 16.166-155.766 87.008-193.349 157.696-37.069 69.786-55.551 147.939-55.551 226.967v139.728l-31.869 179.68-245.193.462-31.92-180.09v-139.78c0-79.028-18.483-157.18-55.551-226.967-37.584-70.688-98.232-141.53-193.349-157.696-202.95-34.469-635.313 0-635.313 0a503.95 503.95 0 0 1-100.677 225.011l-9.473-5.663 4.427-380.545 16.604-12.33s45.383-5.663 84.357-14.828c38.973-9.189 88.913-42.886 88.913-42.886s327.876 11.481 463.15 20.646c42.217 2.857 105.826 14.209 173.424 28.47a1541.5 1541.5 0 0 0 636.472 0c67.599-14.261 131.207-25.613 173.399-28.47 135.274-9.165 463.15-20.646 463.15-20.646s49.94 33.697 88.913 42.886c39 9.165 84.382 14.828 84.382 14.828z"/><path fill="#8a9097" stroke-width="0" d="M-65.094-102.352s-85.722 77.21-94.084 95.761c-6.337 14.058-6.653 34.508-6.138 41.733C-161.33 91.01 62.1 437.516 62.1 437.516c-21.263 74.27-65.06 136.29-126.626 182.956l-138.83 123.096-5.4-279.25S-312.514 184.972-428.243 73.234C-543.97-38.502-615.802-74.418-615.802-74.418l-39.906-27.934zm2012.696 0s85.722 77.21 94.084 95.761c6.337 14.058 6.653 34.508 6.138 41.733-3.986 55.869-228.394 399.019-228.394 399.019a357.12 357.12 0 0 0 127.604 186.311l139.339 124.168 4.892-280.323S2195.02 184.973 2310.75 73.235c115.728-111.737 187.56-147.653 187.56-147.653l39.906-27.934z"/><path fill="#b2b9c0" d="M2668.233 988.722v166.242l-550.519-409.041-16.783-12.459s-45.384-5.663-84.383-14.827c-38.973-9.19-87.413-42.886-87.413-42.886s-329.376 11.48-464.65 20.645c-42.192 2.857-105.8 14.209-173.4 28.47a1541.5 1541.5 0 0 1-636.471 0c-67.599-14.261-131.207-25.613-173.424-28.47C345.916 687.23 18.04 675.75 18.04 675.75s-10.684 7.181-26 15.856c-17.814 10.065-41.96 22.087-62.914 27.03-38.973 9.164-84.357 14.827-84.357 14.827l-.18.129-9.987-90.38c4.53.772 38.458 5.405 91.718-20.182a753 753 0 0 0 12.82-6.282c49.94-24.866 81.422-45.924 81.422-45.924s391.846-9.704 483.564-14.286c62.734-3.14 258.94-54.264 376.684-63.48a1175 1175 0 0 1 184.055 0c117.744 9.216 313.95 60.34 376.684 63.48 91.718 4.582 489.588 14.286 489.588 14.286s30.89 24.687 88.217 52.206c57.328 27.518 92.233 20.078 92.233 20.078l6.127 3.81z"/><g stroke-width="0"><path fill="#656a6f" d="M2011.453 888.084s-432.374-34.462-635.316 0c-95.13 16.154-155.763 86.996-193.339 157.707-37.079 69.777-55.553 147.934-55.553 226.95v145.977L2358 1371.802l-171.222-178.986c-10.51-10.986-21.336-21.662-32.179-32.32a504.13 504.13 0 0 1-143.147-272.412M818.25 1370.611v48.112l-1230.753-46.928 136.948-143.177 34.262-35.807c10.529-10.992 21.34-21.65 32.178-32.307 74.832-73.57 124.977-168.764 143.151-272.427 0 0 432.39-34.443 635.314 0 37.094 6.306 68.937 20.902 96.198 40.57 7.13 10.965 54.599 87.161 63.866 186.217 4.84 51.561 3.475 88.887.746 113.78l4.094-.026c29.731 0 55.165 21.315 60.365 50.583l14.801 83.481 8.212 8.985z"/><path fill="#4e5256" d="M1127.245 1272.54v97.87l.618 1.056s59.898 107.81 99.013 124.992c29.817 13.098 38.775-63.31 51.635-63.31l1.436-86.38c-2.729-24.893-71.652-140.6-63.866-232.105 8.435-99.13 56.735-175.251 63.866-186.217-42.706 30.813-74.215 74.008-97.15 117.152-37.07 69.76-55.552 147.94-55.552 226.941m-308.995.001v97.87l-.618 1.056s-32.968 117.202-68.85 133.325c-32.6 14.647-67.646-71.643-81.799-71.643l-1.435-86.38c2.728-24.893 71.652-140.6 63.866-232.105-8.435-99.13-56.736-175.251-63.866-186.217 42.706 30.813 74.214 74.008 97.15 117.152 37.069 69.76 55.552 147.94 55.552 226.941"/></g><path fill="#a4abb3" d="M1987.761 801.809c-43.522-30.542-57.979-60.491-57.979-60.491s-582.424 36.286-685.233 74.364c-102.81 38.077-245.6 43.789-245.6 43.789l-51.432.147s-142.79-5.712-245.6-43.79c-102.81-38.077-660.645-71.041-660.645-71.041s-33.599 41.588-82.567 57.168c-41.857 13.319-104.026 21.194-104.026 21.194s41.33 65.41 69.99 74.962c28.66 9.554 713.599 21.395 769.37 41.534 122.522 44.244 125.919 66.571 257.286 66.571 8.52 0 35.638-.147 43.816-.147 131.367 0 134.764-22.327 257.286-66.57 55.77-20.14 740.71-31.98 769.37-41.535 28.66-9.552 69.99-74.962 69.99-74.962s-68.07 4.038-104.026-21.193"/><path fill="#4e5256" stroke="#4e5256" stroke-miterlimit="10" stroke-width="22" d="M253.017 390.036C114.363 390.036 1.56 502.84 1.56 641.494s112.803 251.458 251.457 251.458 251.458-112.803 251.458-251.458-112.803-251.458-251.458-251.458Zm0 25.146c99.52 0 184.178 64.597 214.41 154.041-58.168-18.116-134.244-28.312-214.41-28.312-79.903 0-156.214 10.193-214.401 28.289 30.239-89.433 114.891-154.018 214.401-154.018ZM28.134 666.622c31.969.114 85.91 2.219 120.092 26.309 39.823 28.063 41.821 83.217 41.92 165.922-86.507-25.063-151.82-100.427-162.012-192.23Zm287.754 192.231c.1-82.705 2.098-137.86 41.92-165.922 34.181-24.086 88.134-26.18 120.092-26.304-10.193 91.802-75.506 167.163-162.012 192.226Zm-62.87-255.077c-20.798 0-37.72 16.92-37.72 37.718s16.922 37.719 37.72 37.719 37.718-16.921 37.718-37.719-16.921-37.718-37.719-37.718Z"/><circle cx="877.109" cy="930.506" r="31.29" fill="#b2b9c0"/><circle cx="1065.346" cy="930.506" r="31.29" fill="#b2b9c0"/><g stroke-width="0"><circle cx="971.227" cy="932.005" r="48.186" fill="#b2b9c0"/><circle cx="971.227" cy="932.005" r="36.055" fill="#e0e2e5"/><circle cx="877.109" cy="932.005" r="23.679" fill="#e0e2e5"/><circle cx="1065.346" cy="932.005" r="23.679" fill="#e0e2e5"/></g></g><path fill="none" d="M739.527 422.292q.082-.161.195-.301c-.065.1-.136.196-.195.3"/><g fill="#007bc0" stroke-width="0"><path d="m834.295 671.231-5.401-6.045 2.237-1.999 5.401 6.045zm-10.802-12.09-5.401-6.045 2.237-1.999 5.401 6.045zm-10.802-12.09-5.401-6.044 2.237-2 5.401 6.046zm-10.802-12.09-5.401-6.044 2.237-2 5.4 6.046zm-10.802-12.09-5.401-6.044 2.237-2 5.4 6.046zm-10.803-12.089-5.4-6.045 2.237-1.999 5.4 6.045zm-10.802-12.09-5.4-6.045 2.237-1.999 5.4 6.045zm-10.802-12.09-3.927-4.395-.01-3.352 3-.01.007 2.213 3.167 3.545zm-3.963-15.853-.026-8.106 3-.01.026 8.107zm-.052-16.213-.026-8.106 3-.01.026 8.107zm-.052-16.212-.026-8.106 3-.01.026 8.106zm-.051-16.212-.026-8.107 3-.01.026 8.107zm-.052-16.213-.026-8.107 3-.01.026 8.107zm-.052-16.213-.026-8.106 3-.01.026 8.107zm-.052-16.213-.025-8.106 3-.01.025 8.107zm-.051-16.212-.026-8.106 3-.01.026 8.106zm-.052-16.212-.026-8.107 3-.01.026 8.107zM843.145 681.136l-3.449-3.86 2.238-1.999 1.881 2.106 2.495-1.324 1.407 2.65zM854.67 675.016l-1.407-2.649 6.953-3.692 1.407 2.649zm13.906-7.384-1.407-2.65 6.953-3.692 1.407 2.65zm13.906-7.384-1.407-2.65 6.953-3.692 1.408 2.65zm13.907-7.384-1.408-2.65 6.954-3.692 1.407 2.65zm13.906-7.385-1.407-2.65 6.953-3.691 1.407 2.649zm13.906-7.384-1.407-2.65 6.953-3.692 1.407 2.65zm13.906-7.385-1.407-2.65 6.954-3.691 1.406 2.65zm13.907-7.384-1.408-2.65 6.954-3.692 1.407 2.65zm13.906-7.384-1.407-2.65 6.953-3.692 1.407 2.65zm13.906-7.385-1.407-2.649 6.953-3.692 1.407 2.649zm13.906-7.384-1.407-2.65 6.953-3.692 1.408 2.65zm13.906-7.385-1.406-2.649 6.953-3.692 1.407 2.65zm13.907-7.384-1.407-2.65 6.953-3.691 1.407 2.65zm13.906-7.384-1.407-2.65 6.953-3.691 1.407 2.649zm13.906-7.384-1.407-2.65 6.953-3.692 1.407 2.65zm179.216-4.376-7.873-.003.002-3 7.872.003zm-15.745-.006-7.873-.003.001-3 7.873.003zm-15.746-.007-7.872-.003v-3l7.873.003zm-15.745-.006-7.872-.003v-3l7.873.003zm-15.745-.006-7.873-.003.001-3 7.873.003zm-15.745-.006-7.873-.004.002-3 7.872.004zm-15.746-.007-7.872-.003.001-3 7.873.003zm-15.745-.006-7.872-.003.001-3 7.873.003zm-15.745-.006-7.873-.003.001-3 7.873.003zm-15.745-.007-7.873-.003.001-3 7.873.003zm-15.745-.006-7.873-.003.001-3 7.873.003zM1242.178 569.67l-2.362-2.406-3.371-.001.001-3 4.63.002 3.243 3.302zM1434.295 765.284l-5.65-5.753 2.14-2.102 5.651 5.753zm-11.3-11.507-5.651-5.753 2.14-2.102 5.651 5.753zm-11.302-11.507-5.65-5.753 2.14-2.103 5.65 5.754zm-11.3-11.507-5.65-5.752 2.14-2.103 5.65 5.753zm-11.301-11.506-5.651-5.753 2.14-2.103 5.65 5.754zm-11.302-11.507-5.65-5.753 2.14-2.103 5.65 5.754zm-11.3-11.507-5.65-5.753 2.14-2.103 5.65 5.754zm-11.301-11.506-5.651-5.753 2.14-2.103 5.65 5.754zm-11.301-11.507-5.651-5.753 2.14-2.103 5.65 5.754zm-11.301-11.507-5.651-5.753 2.14-2.103 5.65 5.754zm-11.301-11.506-5.651-5.754 2.14-2.102 5.65 5.753zm-11.302-11.507-5.65-5.753 2.14-2.103 5.65 5.754zm-11.3-11.507-5.651-5.753 2.14-2.103 5.65 5.754zm-11.302-11.506-5.65-5.754 2.14-2.102 5.65 5.753zm-11.3-11.507-5.651-5.754 2.14-2.102 5.65 5.753zm-11.302-11.507-5.65-5.753 2.14-2.102 5.65 5.753zm-11.3-11.506-5.651-5.754 2.14-2.102 5.65 5.753zm199.242 183.427-2.294-1.934 5.179-6.144 2.294 1.934zm10.357-12.288-2.294-1.933 5.178-6.144 2.294 1.933zm10.357-12.287-2.294-1.934 5.178-6.144 2.294 1.934zm10.357-12.288-2.294-1.934 5.178-6.144 2.294 1.934zm10.357-12.288-2.294-1.934 5.178-6.144 2.294 1.934zm10.356-12.288-2.294-1.933 5.179-6.144 2.294 1.933zm10.357-12.287-2.294-1.934 5.179-6.144 2.294 1.934zm10.357-12.288-2.294-1.934 5.178-6.143 2.294 1.933zm10.357-12.288-2.294-1.934.133-.157 3.646-6.594 2.625 1.451-3.883 6.965zm7.998-14.266-2.626-1.451 3.888-7.032 2.626 1.451zm7.776-14.064-2.626-1.45 3.888-7.033 2.625 1.451zm7.775-14.064-2.625-1.45 3.888-7.032 2.625 1.45zm7.776-14.063-2.625-1.452 3.888-7.031 2.625 1.45zm7.776-14.064-2.626-1.451 3.888-7.032 2.626 1.45zm7.775-14.064-2.625-1.451 3.888-7.032 2.625 1.45zm7.776-14.064-2.625-1.451 3.887-7.032 2.626 1.451zm7.776-14.064-2.626-1.451 3.888-7.032 2.626 1.451zm7.775-14.063-2.625-1.451 3.888-7.033 2.625 1.451zm7.776-14.064-2.625-1.451 3.888-7.032 2.625 1.451zm7.776-14.064-2.626-1.452 3.888-7.031 2.626 1.451zm7.776-14.064-2.626-1.45 3.888-7.033 2.625 1.451zm7.775-14.064-2.625-1.45 3.887-7.033 2.626 1.452zm7.776-14.064-2.626-1.45 3.888-7.033 2.626 1.452zm7.776-14.063-2.626-1.451 3.888-7.033 2.625 1.452zm7.775-14.064-2.625-1.451 3.888-7.032 2.625 1.451zm7.776-14.064-2.625-1.451 3.887-7.032 2.626 1.451zm7.776-14.064-2.626-1.45 3.888-7.033 2.626 1.451zm7.775-14.064-2.625-1.45 3.888-7.033 2.625 1.451zm7.776-14.063-2.625-1.452 3.887-7.031 2.626 1.45zm7.775-14.064-2.625-1.452 3.889-7.032 2.625 1.452zm7.776-14.064-2.625-1.451 3.887-7.032 2.626 1.45zm7.776-14.064-2.625-1.451 3.888-7.032 2.625 1.45zM1722.415 328.569l-2.625-1.453 1.396-2.524-2.015-2.064 2.148-2.096 3.572 3.66zM1713.718 316.94l-5.452-5.587 2.147-2.096 5.453 5.588zm-10.905-11.174-5.453-5.587 2.147-2.096 5.453 5.587zm-10.906-11.175-5.452-5.587 2.147-2.095 5.452 5.586zm-10.905-11.174-5.453-5.588 2.147-2.095 5.453 5.587zm-10.906-11.175-5.452-5.587 2.147-2.096 5.452 5.588zm-10.905-11.174-5.453-5.587 2.147-2.096 5.453 5.587zm-10.906-11.175-5.452-5.587 2.147-2.096 5.452 5.588zm-10.905-11.174-5.453-5.587 2.147-2.096 5.453 5.587zm-169.511 91.806-1.67-2.492 6.434-4.31 1.67 2.493zm12.866-8.618-1.67-2.493 6.434-4.309 1.67 2.492zm12.867-8.619-1.67-2.492 6.433-4.309 1.67 2.492zm12.866-8.618-1.67-2.492 6.434-4.31 1.67 2.493zm12.866-8.618-1.669-2.493 6.433-4.309 1.67 2.492zm12.867-8.619-1.67-2.492 6.434-4.309 1.669 2.492zm12.866-8.618-1.67-2.492 6.434-4.309 1.67 2.492zm12.867-8.618-1.67-2.492 6.433-4.31 1.67 2.493zm12.866-8.618-1.67-2.492 6.434-4.31 1.67 2.493zm12.866-8.618-1.669-2.492 6.433-4.31 1.67 2.493zm12.867-8.618-1.67-2.493 6.434-4.309 1.669 2.492zm12.866-8.619-1.67-2.492 6.434-4.309 1.67 2.492zm-152.446 102.374-1.67-2.492 6.434-4.309 1.669 2.492zm-10.715-7.182-6.84-4.118 1.547-2.57 6.84 4.118zm-781.536-4.214-7.34-3.77 1.37-2.669 7.011 3.601-.585 1.14.017 1.694zm8.457-.084-.03-3 7.984-.079.03 3zm15.968-.157-.03-3 7.984-.08.03 3zm15.968-.158-.03-3 7.984-.08.03 3zm15.968-.158-.03-3 7.984-.08.03 3zm15.967-.158-.03-3 7.985-.08.03 3zm15.968-.158-.03-3 7.985-.08.03 3zm15.968-.158-.03-3 7.984-.08.03 3zm15.968-.159-.03-3 7.984-.078.03 3zm15.968-.157-.03-3 7.984-.08.03 3zm15.968-.158-.03-3 7.984-.079.03 3zm15.968-.158-.03-3 7.984-.08.03 3zm15.965-.158-.014-1.665-.754-1.058 6.41-4.565 1.74 2.443-6.794 4.84zm583.755-2.202-6.84-4.12 1.547-2.57 6.84 4.12zm-782.299-3.395-7.102-3.648 1.37-2.669 7.103 3.648zm212.43-3.88-1.74-2.444 6.502-4.632 1.74 2.443zm556.189-.963-6.84-4.119 1.548-2.57 6.84 4.118zm-782.823-2.453-7.102-3.648 1.37-2.669 7.103 3.649zm769.143-5.785-6.84-4.119 1.547-2.57 6.84 4.119zm-529.503-.064-1.74-2.443 6.502-4.633 1.74 2.444zm-253.845-1.447-7.102-3.648 1.37-2.669 7.103 3.648zm769.668-6.727-6.84-4.119 1.548-2.57 6.84 4.119zm-783.872-.569-7.102-3.648 1.37-2.669 7.102 3.648zm281.055-.522-1.74-2.443 6.503-4.632 1.74 2.443zm-295.26-6.774-7.102-3.648 1.37-2.669 7.103 3.648zm784.398-.373-6.84-4.118 1.547-2.57 6.84 4.118zm-476.132-2.117-1.74-2.444 6.503-4.632 1.74 2.443zm-322.47-4.806-7.103-3.647 1.371-2.67 7.102 3.649zm784.921-1.314-6.84-4.12 1.548-2.57 6.84 4.12zm-449.444-3.145-1.74-2.443 6.502-4.633 1.741 2.444zm-349.682-2.836-7.102-3.648 1.37-2.67 7.103 3.649zm785.447-2.257-6.84-4.119 1.548-2.57 6.84 4.119zM927.72 269.08l-1.74-2.443 6.503-4.632 1.74 2.443zm-376.256-.5h-7.984v-3h7.984zm-15.968 0h-7.985v-3h7.985zm-15.969 0h-7.984v-3h7.984zm-15.968 0h-7.985v-3h7.985zm-15.97 0h-7.983v-3h7.984zm-15.968 0h-7.984v-3h7.984zm-15.968 0h-7.985v-3h7.985zm-15.969 0H431.7v-3h7.984zm897.115-3.566-6.84-4.119 1.548-2.57 6.84 4.12zm-396.073-5.198-1.74-2.444 6.503-4.632 1.74 2.443zm382.393-3.04-6.84-4.118 1.548-2.57 6.84 4.118zm-369.387-6.225-1.74-2.443 6.503-4.633 1.74 2.444zm355.707-2.012-6.84-4.12 1.548-2.57 6.84 4.12zm-342.7-7.253-1.74-2.443 6.503-4.632 1.74 2.443zm329.02-.985-6.84-4.12 1.548-2.57 6.84 4.12zm-13.679-8.238-6.84-4.118 1.548-2.57 6.84 4.118zm-302.335-.041-1.74-2.444 6.503-4.632 1.74 2.443zm288.655-8.197-6.84-4.118 1.548-2.57 6.84 4.118zm-275.648-1.068-1.741-2.443 6.503-4.633 1.74 2.444zm261.968-7.17-6.84-4.118 1.548-2.57 6.84 4.118zm-248.962-2.095-1.74-2.443 6.502-4.632 1.741 2.443zm235.283-6.142-6.84-4.119 1.547-2.57 6.84 4.119zm-222.277-3.122-1.74-2.444 6.503-4.632 1.74 2.444zm208.597-5.116-5.228-3.05 1.547-2.57 5.228 3.05zm-13.604-5.554-7.984-.033.012-3 7.984.033zm-15.968-.066-7.985-.033.013-3 7.984.033zm-15.969-.065-7.984-.033.012-3 7.984.033zm-15.968-.066-7.984-.033.012-3 7.984.033zm-15.969-.066-7.984-.032.012-3 7.984.032zm-15.968-.065-7.985-.033.013-3 7.984.033zm-15.969-.066-7.984-.033.012-3 7.984.033zm-15.968-.066-7.984-.033.012-3 7.984.033zm-15.969-.065-7.984-.033.012-3 7.984.033zm-15.968-.066-7.984-.033.012-3 7.984.033zm-15.969-.066-7.984-.033.013-3 7.984.033z"/></g><path fill="#007bc0" d="m1145.898 469.712-2.852.216-.691-5.998 2.987-.274m-13.024.484-7.182-3.525 1.322-2.693 7.181 3.525zm9.427-7.024-.732-7.967 2.987-.274.732 7.967zm-23.79-.025-7.183-3.525 1.322-2.693 7.182 3.524zm-14.364-7.05-7.182-3.524 1.322-2.693 7.181 3.524zm-14.364-7.049-7.182-3.524 1.322-2.694 7.182 3.525zm51.055-1.81-.732-7.965 2.988-.275.731 7.966zm-65.418-5.239-7.182-3.524 1.322-2.694 7.182 3.525zm-14.364-7.049-7.182-3.525 1.322-2.693 7.182 3.525zm78.319-3.644-.732-7.967 2.987-.274.732 7.966zm-92.682-3.405-7.182-3.524 1.322-2.694 7.181 3.525zm-14.364-7.05-7.181-3.524 1.321-2.693 7.182 3.524zm105.583-5.478-.732-7.967 2.988-.274.731 7.967zm-119.946-1.57-7.182-3.525 1.322-2.693 7.181 3.525zm-14.364-7.05-7.182-3.524 1.322-2.693 7.182 3.524zm-14.363-7.048-7.182-3.525 1.322-2.694 7.182 3.525zm147.21-.265-.732-7.967 2.988-.274.731 7.967zM974.319 386.6l-7.182-3.524 1.322-2.693 7.182 3.524zm-14.363-7.049-7.182-3.524 1.322-2.694 7.182 3.525zm174.474-2.099-.732-7.966 2.987-.275.732 7.967zm-188.838-4.95-7.181-3.525 1.321-2.693 7.182 3.525zm-14.363-7.049-7.182-3.524 1.322-2.694 7.181 3.525zm201.738-3.934-.732-7.966 2.988-.275.731 7.966zm-216.102-3.115-7.181-3.525 1.321-2.693 7.182 3.524zm-14.363-7.05-7.182-3.524 1.322-2.693 7.181 3.524zm229.002-5.768-.732-7.967 2.988-.274.731 7.967zm-243.366-1.28-7.182-3.525 1.322-2.693 7.182 3.524zm-14.363-7.05-7.182-3.524 1.322-2.694 7.182 3.525zm-14.364-7.049-3.886-2.057 1.321-2.694 3.887 2.058zm270.63-.554-.731-7.967 2.987-.274.731 7.967zm-1.463-15.933-.732-7.966 2.988-.275.731 7.967zm-1.463-15.933-.732-7.966 2.988-.275.731 7.967z"/><path fill="none" stroke="#007bc0" stroke-dasharray="0 8" stroke-miterlimit="10" stroke-width="3" d="m845.314 680.154 598.505 92.686"/><path fill="none" d="M739.474 422.389c-.02.036-.033.075-.052.112l.018-.05c.009-.022.027-.041.034-.062"/><g stroke-width="0"><circle cx="266.502" cy="267.075" r="196" fill="#fff"/><g fill-rule="evenodd"><path fill="#d0d4d8" d="M321.384 406.347H211.07v-4.686a5.535 5.535 0 0 1 5.537-5.533h99.241a5.535 5.535 0 0 1 5.537 5.533z"/><path fill="#c1c6cc" d="M309.92 396.283h-86.836l5.129-30.162h76.58z"/><path fill="#d0d4d8" d="M404.572 330.442H128.433V163.701a5.61 5.61 0 0 1 5.61-5.606h264.92a5.61 5.61 0 0 1 5.609 5.606z"/><path fill="#d0d4d8" d="M128.433 329.911h276.139v30.607a5.606 5.606 0 0 1-5.608 5.603H134.04a5.606 5.606 0 0 1-5.608-5.603z"/></g><path fill="#fff" d="M137.031 166.523h258.846v155.433H137.031z"/><path fill="#007bc0" d="M259.911 235.635h67.132v6.407h-67.132z"/><path fill="#a4abb3" d="M259.911 252.749h115.983v6.407H259.911zM259.911 265.197h115.983v6.407H259.911zM259.911 277.644h115.983v6.407H259.911z"/><path fill="#007bc0" d="M204.5 246.395c8.489-3.382 14.489-11.616 14.489-21.318 0-12.701-10.276-22.977-22.978-22.977s-22.977 10.276-22.977 22.977c0 9.702 6 17.936 14.488 21.318-17.233 3.766-29.806 18.829-29.806 37.402h5.106c0-18.637 14.552-33.19 33.19-33.19s33.189 14.553 33.189 33.19h5.106c0-18.573-12.574-33.636-29.807-37.402m-26.36-21.318c0-9.829 8.042-17.87 17.871-17.87s17.872 8.041 17.872 17.87-8.043 17.872-17.872 17.872-17.871-8.042-17.871-17.872"/><path fill="#a4abb3" d="M136.803 166.523h259.074V177.7H136.803z"/></g><g stroke-width="0"><g fill="#007bc0"><path d="M1441.753 662.987h185.89v196.726h-185.89z"/><path fill-rule="evenodd" d="m1627.643 911.039-51.327-51.327 31.858-17.275 19.469 17.275z"/></g><path fill="#fff" d="m1578.853 827.008-17.892-46.618c-.328-7.96-7.058-14.773-16.414-17.563V705.54c0-5.417-4.432-9.849-9.849-9.849s-9.849 4.432-9.849 9.849v57.287c-9.356 2.872-16.004 9.602-16.414 17.563l-17.892 46.618zm-24.457-6.566v-19.698h-6.566v19.698h-9.849v-19.698h-6.566v19.698h-9.849v-19.698h-6.565v19.698h-14.938l13.87-36.112h41.447l13.87 36.112zm-22.98-59.093V705.54c0-1.806 1.477-3.283 3.282-3.283s3.283 1.477 3.283 3.283v55.81zm3.282 6.566c8.946 0 16.825 4.268 19.041 9.849h-38.082c2.216-5.581 10.095-9.849 19.041-9.849"/></g><g stroke-width="0"><g fill="#007bc0"><path d="M1364.333 334.903h185.89v196.726h-185.89z"/><path fill-rule="evenodd" d="m1364.333 582.955 51.327-51.326-25.664-22.913-25.663 22.913z"/></g><path fill="#fff" d="m1440.54 391.22.951 3.466 7.588 2.254-1.952-7.15c3.625-2.01 6.09-5.88 6.09-10.313 0-6.494-5.283-11.776-11.776-11.776s-11.777 5.282-11.777 11.776c0 6.191 4.803 11.28 10.877 11.743m.9-16.79c2.785 0 5.048 2.263 5.048 5.047s-2.263 5.047-5.047 5.047-5.047-2.263-5.047-5.047 2.262-5.047 5.047-5.047m14.51 54.374-5.416-.96-2.793-10.236 7.587 2.262.572 2.087 3.508.622zm24.538-2.591 13.619 2.094-1.027 6.646-16.074-2.473zm-64.4-39.081-3.037-8.16 6.309-2.355 4.811 12.92zm26.278 51.278 8.252-.009-3.743 6.738-9.186.009-12.777-34.329 8.075 2.406zm45.146-.05 17.429 6.973-2.498 6.241-16.227-6.485-16.226.017 3.743-6.73zm-29.189.033 4.635-8.344 3.457-6.225 4.046-7.285 5.888 3.264-2.927 5.266-3.449 6.216h-.008l-3.937 7.1-3.743 6.729-1.943 3.5-5.88-3.264.118-.22h.008zm33.036-41.395a3.365 3.365 0 1 1 4.758-4.759 3.365 3.365 0 0 1-4.758 4.759m23.792-23.793-4.76 4.76c-9.181-9.184-24.124-9.184-33.308 0l-4.758-4.76c11.808-11.807 31.02-11.805 42.826 0m-9.517 9.517-4.759 4.76c-3.936-3.937-10.34-3.936-14.275 0l-4.758-4.76c6.56-6.559 17.231-6.56 23.792 0m-85.113 12.872 6.628 1.952 16.437 4.836 7.587 2.238 9.724 2.86-.95 3.23-.951 3.222h-.008l-5.737-1.691-7.58-2.23-15.586-4.584-8.067-2.372-3.398-1 1.337-4.535v-.008zm50.336 56.4c-1.212-.302-2.659-.53-4.307-.697-3.592-.362-8.11-.404-13.013-.135-13.667.765-30.31 3.936-38.26 9.225l-9.187-79.613-6.685.771 10.071 87.283v.007c.025 3.752 1.245 6.923 3.365 9.22v20.869h63.929V480.3c4.02-2.313 6.73-6.645 6.73-11.583 0-3.272-.993-6.906-3.063-10.001-2.077-3.087-5.232-5.636-9.58-6.721m-.816 40.2h-50.47v-10.093h50.47zm0-16.823h-47.106c-2.473 0-6.587-.833-6.721-6.368.227-.883 1.186-1.934 2.725-2.969 7.874-5.3 27.54-8.353 40.696-8.353 3.945 0 7.302.27 9.59.841 5.181 1.296 7.545 6.191 7.545 10.195 0 3.668-3.02 6.654-6.73 6.654"/></g><g stroke-width="0"><g fill="#007bc0"><path d="M1034.3 92.957h185.89v196.726H1034.3z"/><path fill-rule="evenodd" d="m1034.3 341.01 51.327-51.327-22.1-14.573-29.227 14.573z"/></g><path fill="#fff" d="M1097.117 208.713a3.36 3.36 0 0 1-3.187-2.296l-5.952-17.857h-24.45v-6.718h26.87a3.36 3.36 0 0 1 3.188 2.296l3.53 10.594 10.25-30.748a3.36 3.36 0 0 1 6.373 0l6.89 20.672 3.532-10.595a3.36 3.36 0 0 1 6.373 0l2.593 7.78h14.374v6.719h-16.795a3.36 3.36 0 0 1-3.186-2.297l-.173-.517-3.53 10.594a3.36 3.36 0 0 1-6.374 0l-6.89-20.671-10.25 30.748a3.36 3.36 0 0 1-3.186 2.296m58.595-80.615c-10.916 0-21.043 4.453-28.365 12.347-7.321-7.894-17.448-12.347-28.364-12.347-21.402 0-38.815 17.462-38.815 38.925 0 2.717.152 5.418.437 8.1h6.755a70 70 0 0 1-.474-8.1c0-17.759 14.399-32.207 32.097-32.207 10.187 0 19.545 4.695 25.676 12.88l2.688 3.59 2.689-3.59c6.13-8.185 15.489-12.88 25.676-12.88 17.698 0 32.096 14.448 32.096 32.207 0 22.546-10.31 43.199-30.646 61.386-12.744 11.396-25.662 18.206-29.813 20.25-7.194-3.554-40.78-21.534-54.548-53.382h-7.257c5.359 13.747 14.664 26.684 27.658 38.27 16.16 14.409 32.107 21.602 32.777 21.9l1.368.61 1.368-.61c.671-.298 16.618-7.491 32.778-21.9 21.61-19.268 33.033-42.272 33.033-66.524 0-21.463-17.412-38.925-38.814-38.925"/></g><g stroke-width="0"><g fill="#007bc0"><path d="M1054.556 468.34h185.89v196.726h-185.89z"/><path fill-rule="evenodd" d="m1240.446 716.392-51.327-51.326 26.804-20.808 24.523 20.808z"/></g><path fill="#fff" d="M1198.807 503.95a5.332 5.332 0 1 1 7.588-7.493 5.332 5.332 0 0 1-7.589 7.493m-13.57-9.08h-7.11c0 16.436 13.372 29.808 29.808 29.808v-7.11c-12.516 0-22.698-10.182-22.698-22.698m-16.407 0h-7.11c0 25.483 20.732 46.215 46.215 46.215v-7.11c-21.563 0-39.105-17.543-39.105-39.105m-4.177 50.1c7.148 10.44 14.841 29.602 14.841 47.005 0 26.127-19.435 45.09-46.213 45.09s-46.214-18.963-46.214-45.09c0-20.47 8.679-35.011 17.071-49.074 7.674-12.859 14.923-25.005 14.923-40.919v-3.555h3.555c14.44 0 19.097 16.007 23.601 31.487 1.853 6.37 3.759 12.918 6.315 18.791l10.162-6.596zm-31.372 84.986c9.8 0 17.774-7.722 17.774-17.213 0-8.168-5.732-15.848-11.8-23.98-4.19-5.612-8.487-11.37-11.097-17.642-11.113 12.875-12.651 25.17-12.651 34.7 0 14.21 7.308 24.135 17.774 24.135m39.103-37.98c0-13.786-5.638-29.84-11.733-40.065l-10.96 7.114-1.798-3.5c-3.758-7.317-6.17-15.607-8.503-23.625-4.078-14.019-7.236-23.331-13.368-25.742-1.134 15.849-8.57 28.307-15.779 40.387-7.898 13.235-16.066 26.92-16.066 45.43 0 15.033 7.274 27.009 19.031 33.25-3.07-5.186-4.811-11.822-4.811-19.405 0-17.794 5.813-31.39 18.849-44.082l4.655-4.532 1.307 6.364c1.475 7.182 6.696 14.177 11.744 20.941 6.496 8.704 13.213 17.704 13.213 28.232 0 4.118-1.056 7.999-2.912 11.402 10.636-6.488 17.131-17.964 17.131-32.17"/></g><g stroke-width="0"><g fill="#007bc0"><path d="M663.016 577.88h185.89v196.726h-185.89z"/><path fill-rule="evenodd" d="m663.016 825.932 51.327-51.327-27.24-11.748-24.087 11.748z"/></g><path fill="#fff" d="m823.688 676.55-3.343 6.13-16.311-8.897-6.983 11.173-5.921-3.7 17.454-27.927 5.92 3.7-6.763 10.823zm-112.756-28.14-20.434-7.005-2.264 6.604 22.01 7.546a24 24 0 0 1 .688-7.144m35.236 32.304-55.853 59.343 5.084 4.785 55.853-59.344zm-18.729-44.025c-5.92-2.253-10.146-7.971-10.146-14.673 0-8.662 7.046-15.709 15.708-15.709s15.709 7.047 15.709 15.709c0 5.162-2.515 9.737-6.371 12.602 7.264 1.653 12.882 7.442 15.474 16.445 1.274 4.426 2.971 10.61 3.956 14.221l24.905-3.113.87 6.962-30.953 3.869-.795-2.944c-.029-.105-2.846-10.526-4.725-17.054-2.564-8.906-8.545-13.106-16.412-11.52-7.244 1.459-11.251 7.688-10.208 15.87.67 5.252 1.526 9.389 1.534 9.43l.036.2.174 1.173 2.919 20.49-6.157 6.541-3.862-27.078a144 144 0 0 1-1.603-9.869c-1.226-9.612 2.66-17.639 9.947-21.552m5.562-5.946c4.812 0 8.727-3.915 8.727-8.727s-3.915-8.727-8.727-8.727-8.727 3.915-8.727 8.727 3.915 8.727 8.727 8.727m15.476 67.89-7.256 7.71 22.806-2.087 23.55 39.974 6.045-3.561-25.807-43.805zM731.53 716.64l-7.105 7.549 35.025-2.695-.535-6.96zm-34.19-43.103 10.19 38.043 5.626-5.978-9.073-33.872z"/></g><g stroke-width="0"><g fill="#007bc0"><path d="M1621.667 128.473h185.89v196.726h-185.89z"/><path fill-rule="evenodd" d="m1621.667 376.525 51.326-51.327-26.826-14.662-24.5 14.662z"/></g><path fill="#fff" d="m1766.124 230.182 25.385-33.618-124.547-28.968-8.72 37.495 44.311 10.306-6.612 28.43q-.553.399-1.064.849h-22.268c0-7.719-6.28-13.999-13.999-13.999h-6.999v48.995h7c7.718 0 13.998-6.28 13.998-13.999h22.268c2.467 2.171 5.692 3.5 9.228 3.5 7.719 0 13.999-6.28 13.999-13.999a13.9 13.9 0 0 0-1.693-6.667l6.594-28.353zm-56.754-13.199 6.818 1.585-5.628 24.198a13.9 13.9 0 0 0-6.455-1.59c-.123 0-.243.015-.366.019zm-50.76 55.69v-34.997c3.86 0 7 3.14 7 7v20.997c0 3.86-3.14 7-7 7m13.999-20.998h17.958c-.29 1.12-.46 2.29-.46 3.5s.17 2.378.46 3.499h-17.958zm31.496 10.499c-3.86 0-6.999-3.14-6.999-7s3.14-6.999 7-6.999 6.998 3.14 6.998 7-3.14 6.999-6.999 6.999m-37.46-62.314 5.549-23.861 107.239 24.942-16.154 21.394-45.132-10.497-14.008-3.258z"/></g><g stroke-width="0"><g fill="#007bc0"><path d="M664.516 226.836h185.89v196.726h-185.89z"/><path fill-rule="evenodd" d="m850.406 474.888-51.327-51.327 19.972-25.23 31.355 25.23z"/></g><path fill="#fff" d="M800.191 302.468a3.534 3.534 0 0 1-4.906-.981c-.43-.644-1.118-1.843-2.16-3.657-3.659-6.368-11.27-19.616-18.73-27.754-4.507-4.916-10.31-9.466-22.157-9.466-6.51 0-12.63 2.06-19.264 6.481-5.82 3.881-9.618 7.736-13.29 11.465-3.57 3.624-6.942 7.047-11.616 9.852a3.538 3.538 0 0 1-3.64-6.068c3.903-2.342 6.828-5.31 10.215-8.75 3.74-3.797 7.98-8.101 14.407-12.386 7.741-5.16 15.326-7.67 23.188-7.67 14.706 0 22.353 6.286 27.372 11.76 7.99 8.716 15.864 22.423 19.65 29.01.865 1.508 1.613 2.81 1.912 3.259a3.537 3.537 0 0 1-.981 4.905m-90.41.595q.22 0 .444-.028c9.602-1.2 17.586-6.482 23.73-15.699 4.566-6.847 14.879-11.782 22.212-12.597a3.538 3.538 0 0 0-.782-7.032c-8.82.98-21.391 6.817-27.316 15.705-4.953 7.428-11.252 11.669-18.722 12.602a3.538 3.538 0 0 0 .434 7.05m66.986 1.27c1.873-4.871 1.668-10.23-.562-14.7-1.897-3.805-5.12-6.596-8.844-7.66-7.571-2.164-14.602-.991-28.127 11.406-2.055 1.885-4.043 3.832-5.967 5.715-7.99 7.825-14.89 14.582-23.481 14.582a3.538 3.538 0 0 0 0 7.075c11.477 0 20.096-8.44 28.431-16.601 1.883-1.843 3.83-3.75 5.799-5.555 11.203-10.27 15.998-11.363 21.402-9.82 1.818.52 3.442 1.983 4.455 4.015 1.347 2.7 1.452 5.98.29 9.003-4.121 10.715-31.97 37.188-57.723 43.835a3.537 3.537 0 1 0 1.768 6.85c28.73-7.414 57.759-35.666 62.559-48.145m8.169 51.901c-1.931-.483-4.517-2.493-7.253-4.622-5.52-4.292-12.388-9.634-21.907-9.634-6.979 0-14.658 6.25-22.084 12.293-4.98 4.054-10.626 8.649-13.645 8.95a3.537 3.537 0 1 0 .704 7.04c5.133-.512 10.821-5.142 17.407-10.502 6.166-5.018 13.154-10.706 17.618-10.706 7.091 0 12.655 4.327 17.563 8.144 3.343 2.6 6.5 5.056 9.88 5.901a3.537 3.537 0 1 0 1.716-6.864m-6.692 14.27c-2.26-.847-4.472-2.475-6.812-4.197-4.23-3.113-9.024-6.64-15.656-6.64-8.353 0-24.516 15.252-27.526 19.015a3.538 3.538 0 0 0 5.525 4.42c3.797-4.747 17.846-16.36 22.001-16.36 4.31 0 7.783 2.557 11.462 5.263 2.626 1.933 5.342 3.932 8.522 5.124a3.537 3.537 0 1 0 2.484-6.624m-6.531 17.763c-4.788-4.972-10.366-10.152-15.436-10.877-7.826-1.115-13.695 6.859-16.852 11.144l-.63.85a3.538 3.538 0 0 0 5.66 4.244q.31-.414.665-.897c2.118-2.874 6.512-8.869 10.156-8.336 2.22.317 6.035 3.271 11.34 8.78.332.344.605.628.81.832a3.539 3.539 0 0 0 5.003-5.003c-.181-.18-.423-.432-.716-.737m20.56-46.108c-7.72-2.573-12.287-8.34-14.74-11.439-.642-.81-1.106-1.396-1.567-1.857a3.539 3.539 0 0 0-5.003 5.003c.171.17.623.742 1.023 1.246 2.703 3.415 8.328 10.52 18.048 13.76a3.54 3.54 0 0 0 4.475-2.237 3.54 3.54 0 0 0-2.237-4.476m3.704-14.096c-.36-.14-8.815-3.474-8.357-10.565a3.54 3.54 0 0 0-3.206-3.807 3.53 3.53 0 0 0-3.844 3.202c-.03.337-.256 3.396 1.242 7.073 1.373 3.37 4.505 7.962 11.624 10.7a3.54 3.54 0 0 0 2.54-6.604m-49.557-12.536c5.646-5.085 11.484-10.343 15.104-13.24a3.538 3.538 0 0 0-4.42-5.525c-3.782 3.026-9.698 8.354-15.419 13.507-5.435 4.896-10.569 9.52-12.795 11.19-6.4 4.8-16.384 6.368-19.104 6.368a3.538 3.538 0 0 0 0 7.075c4.232 0 15.508-1.902 23.349-7.783 2.48-1.86 7.487-6.37 13.285-11.592"/></g></svg>