<svg xmlns="http://www.w3.org/2000/svg" viewBox="0 0 501.8 283.3"><switch><g><path fill="#b2b9c1" d="M270 283.3h202.2c10.2-.1 17.2-7.3 19.4-25l10.2-103h-58c-16.9.3-31.3 4.2-43.2 12.1l-18.1 11c-22.2 11.8-44.1 17.3-65.7 18.3H270z"/><path fill="#d0d4d8" d="M29 283.3h245.5c3.8-.2 5.4-7.3 4.9-21.8l-1.5-64.9H0l7.4 65c2.7 14.9 10.2 21.5 21.6 21.7"/><path fill="#666a6f" d="M314.8 192.6c21.6-1 43.5-6.6 65.7-18.3l18.1-11c11.8-7.8 26.2-11.8 43.2-12.1H171.4c-16.9.3-31.3 4.2-43.2 12.1l-18.1 11C87.9 186 66 191.5 44.4 192.6z"/><path fill="#4f5256" d="M276.8 192.6H2.2c-1.4 0-2.1.8-2.2 2.1v1.9h316.8c21.6-1 43.5-6.6 65.7-18.3l18.1-11c11.8-7.8 26.2-11.8 43.2-12.1h58v-1.9c0-1.3-.7-2.1-2.4-2.1h-57.6c-16.9.3-31.3 4.2-43.2 12.1l-18.1 11c-22.2 11.8-44.1 17.3-65.7 18.3z"/><path fill="#4f5256" d="M286.9 192.6c21.6-1 43.5-6.6 65.7-18.3l18.1-11c2.8-1.9 9.6-5.3 9.6-5.3.9-.4.7-.7-1.5-.8H168.7c-3.1 0-5.6.5-7.4 1.3 0 0-5.8 3-8.4 4.7l-18.1 11C112.5 186 90.7 191.5 69 192.6z"/><path fill="#43464a" d="M161.3 158.5s-5.8 3-8.4 4.7l-18.1 11C112.5 186 90.7 191.5 69 192.6h112.5c-6.5-.1-13.4-20.5-20.2-34.1"/><path fill="#eff1f2" d="M182.3 10C209.4 3.4 245.7.2 290.5 0h67.1c-44.9.4-105.3 10-105.3 10-2.2.5-4.2.7-6 .7h-63.9c-2.8.1-2.9 0-.1-.7"/><path fill="#c2c7cd" d="M246.6 130.9h48.5c3.1-.2 5.6-1.2 7.6-3l1.1-.9c3.6-2.8 7.8-4.5 12.5-5.4 4.2-.9 8.8-1.1 13.5-1.1h26.5c3-.1 4.6-1.6 4.6-4.6V3.5c0-2.1-1-3.4-3.2-3.4-43.8.2-79.3 3.5-105.7 10.1-.8.2-1.6.3-2.4.4z"/><path fill="#e0e2e5" d="M247.6 130.9H189c-3.6-.1-6-1.9-6.8-5.8-2.8-20.5-2.6-69.5-2.9-111.9 0-1.2.3-2.1 1-2.5 0 .1.8.1 2.2.1h64.1c1 0 2-.1 3-.2-.1 45.8-.3 99.3-1.8 117.9-.1.9-.2 1.7-.2 2.4"/><path fill="#047bc0" d="M254.293 148.314h-28.9v-17.4h28.9z"/><path fill="#c2c7cd" d="m227.8 179.4 6.9 6.1H245c2.8-1.3 5.2-3.3 7-6.2v-31.1h-24.1v31.2z"/><path fill="#d0d4d8" d="M227.8 179.4c1.5 2.7 3.8 4.8 6.9 6.1h4.1l-1.4-6.2v-31.1h-9.6z"/><path fill="#4f5256" d="M337.9 120.5h16.3v27.8c0 2 .8 2.9 2.1 2.9h-40.1v-29.6c4.2-.9 8.8-1.1 13.5-1.1z"/><path fill="#43464a" d="M316.2 134.6v13.8c0 1.9.3 2.8.7 2.9h-58.4c1.4 0 2.3-.8 2.3-2.9V131H295c3.1-.2 5.6-1.2 7.6-3l1.1-.9c3.6-2.8 7.8-4.5 12.5-5.4z"/></g></switch></svg>