<svg xmlns="http://www.w3.org/2000/svg" viewBox="0 0 193 151.4"><switch><g><path fill="#2e3033" d="M38.5 140.2H15.4c-1.5 0-2.6-1.2-2.6-2.6V82.1c0-1.5 1.2-2.6 2.6-2.6h23.2c1.5 0 2.6 1.2 2.6 2.6v55.4c0 1.5-1.2 2.7-2.7 2.7"/><path fill="none" stroke="#595e61" stroke-miterlimit="10" stroke-width=".75" d="M38.5 140.2H15.4c-1.5 0-2.6-1.2-2.6-2.6V82.1c0-1.5 1.2-2.6 2.6-2.6h23.2c1.5 0 2.6 1.2 2.6 2.6v55.4c0 1.5-1.2 2.7-2.7 2.7z"/><path fill="#f0f2f2" d="M38.6 139.9H15.3c-1.3 0-2.4-1.1-2.4-2.4v-33.4c0-1.3 1.1-2.4 2.4-2.4h23.3c1.3 0 2.4 1.1 2.4 2.4v33.4c-.1 1.4-1.1 2.4-2.4 2.4"/><path fill="#242629" d="M28.1 109.5h.3v.3h-.3zm-.7-.9v-.2H27v.4h.4c.1-.1.1-.2 0-.2m.7-1.7h.3v.3h-.3z"/><path fill="#242629" d="M28.9 109.1q.15 0 0 0l.1 1.2s0 .1-.1.1h-1.1s-.1 0-.1-.1v-1.1s0-.1.1-.1zm.1-.6v.2h-1.5v.7s0 .1-.1.1h-.3v.2h.3s.1 0 .1.1v.7h1.7v-2.1H29zm-3.7-2.1v-.2h-.4v.4h.4zm1.1 2.7q.15 0 0 0l.1 1.1s0 .1-.1.1h-1.1v-1.1s0-.1.1-.1zm-.7-2.7v.5s0 .1-.1.1h-.7v.9h.4v.7H25v1.7h2.1v-.2h-.4v-1.4h-.3s-.1 0-.1-.1v-.3h-.2v.3s0 .1-.1.1h-.4s-.1 0-.1-.1v-1.5h.4v-.6h.4v-.2h-.6z"/><path fill="#242629" d="M25.7 109.5h.3v.3h-.3zm2.1-2.9s0-.1 0 0h1.3v1.1s0 .1-.1.1h-1.1s-.1 0-.1-.1zm-.7 0v-.3h-.2v.6h.8v.4s0 .1-.1.1h-.7v.2h.8v.3h.7l.1.1v.3h.2v-.3s0-.1.1-.1h.7v-1.7h-1.7v.3zm-.8 1.3v-.2h-.4v.4h.4zm.3-.8v-.2h-.4v.3h.4z"/><path fill="#e0e3e5" d="M20 111.6h-3.9c-.8 0-1.4-.7-1.4-1.5v-5.8c0-.8.6-1.5 1.4-1.5h.6c.2 0 .3-.1.4-.3l.2-.7H19l.2.7c0 .2.2.3.4.3h.4c.8 0 1.4.7 1.4 1.5v5.8c0 .8-.7 1.5-1.4 1.5m8.4-26h-2.8c-.2 0-.4-.2-.4-.4v-3.1c0-.2.2-.4.4-.4h2.8c.2 0 .4.2.4.4v3.1c0 .3-.2.4-.4.4"/><path fill="#383b3d" d="M27 86.5c.1 0 .3.1.3.3v3.4c0 .1-.1.3-.3.3-.1 0-.3-.1-.3-.3v-3.4q0-.3.3-.3m2.8 6.3c.1 0 .3.1.3.3v3.4c0 .1-.1.3-.3.3-.1 0-.3-.1-.3-.3v-3.4q0-.3.3-.3M22.9 94c.1 0 .3.1.3.3v1.4c0 .1-.1.3-.3.3-.1 0-.3-.1-.3-.3v-1.4q.15-.3.3-.3m8.1 4.1c.1 0 .3.1.3.3v1.4c0 .1-.1.3-.3.3-.1 0-.3-.1-.3-.3v-1.4q0-.3.3-.3m-7.4-2c.1 0 .3.1.3.3v3.4c0 .1-.1.3-.3.3-.1 0-.3-.1-.3-.3v-3.4q.15-.3.3-.3m3.8 2c.1 0 .3.1.3.3v1.4c0 .1-.1.3-.3.3-.1 0-.3-.1-.3-.3v-1.4q0-.3.3-.3"/><path fill="#383b3d" d="M22.8 95.5c.1-.1.3-.1.4 0l1.4 1.4c.1.1.1.3 0 .4s-.3.1-.4 0l-1.4-1.4c-.1-.1-.1-.3 0-.4m8 1c.1-.1.3-.1.4 0l3 3c.1.1.1.3 0 .4s-.3.1-.4 0l-3-3c-.1-.1-.1-.3 0-.4m-11.6-.3c.1 0 .3.1.3.3v1.6c0 .1-.1.3-.3.3-.1 0-.3-.1-.3-.3v-1.6q0-.3.3-.3m8.2.4c.1 0 .3.1.3.3v1.4c0 .1-.1.3-.3.3-.1 0-.3-.1-.3-.3v-1.4q0-.3.3-.3m-6.3-2.3c0-.1.1-.3.3-.3h3.4c.1 0 .3.1.3.3 0 .1-.1.3-.3.3h-3.4c-.1-.1-.3-.2-.3-.3"/><path fill="#383b3d" d="M27.2 96.7c0-.1.1-.3.3-.3H31c.1 0 .3.1.3.3 0 .1-.1.3-.3.3h-3.6c-.1 0-.2-.1-.2-.3m0-6.7c.1.1.1.3 0 .4l-4 4c-.1.1-.3.1-.4 0s-.1-.3 0-.4l4-4c.1-.1.3-.1.4 0m-5.7 4.2c.1.1.1.3 0 .4l-2.1 2.1c-.1.1-.3.1-.4 0s-.1-.3 0-.4l2.1-2.1c.1-.1.3-.1.4 0m6.1 3.9c.1.1.1.3 0 .4l-1.4 1.4c-.1.1-.3.1-.4 0s-.1-.3 0-.4l1.4-1.4c.2-.1.3-.1.4 0"/><path fill="#383b3d" d="M26.8 90c.1-.1.3-.1.4 0l5.2 5.1c.1.1.1.3 0 .4s-.3.1-.4 0l-5.2-5.1c-.1-.2-.1-.3 0-.4"/><path fill="#383b3d" d="M26.8 90c.1-.1.3-.1.4 0l5.2 5.1c.1.1.1.3 0 .4s-.3.1-.4 0l-5.2-5.1c-.1-.2-.1-.3 0-.4"/><path fill="#383b3d" d="M26.8 90c.1-.1.3-.1.4 0l5.2 5.1c.1.1.1.3 0 .4s-.3.1-.4 0l-5.2-5.1c-.1-.2-.1-.3 0-.4"/><path fill="#383b3d" d="M26.8 90c.1-.1.3-.1.4 0l5.2 5.1c.1.1.1.3 0 .4s-.3.1-.4 0l-5.2-5.1c-.1-.2-.1-.3 0-.4"/><path fill="#383b3d" d="M26.8 90c.1-.1.3-.1.4 0l5.2 5.1c.1.1.1.3 0 .4s-.3.1-.4 0l-5.2-5.1c-.1-.2-.1-.3 0-.4"/><path fill="#383b3d" d="M26.8 90c.1-.1.3-.1.4 0l5.2 5.1c.1.1.1.3 0 .4s-.3.1-.4 0l-5.2-5.1c-.1-.2-.1-.3 0-.4"/><path fill="#383b3d" d="M26.8 90c.1-.1.3-.1.4 0l5.2 5.1c.1.1.1.3 0 .4s-.3.1-.4 0l-5.2-5.1c-.1-.2-.1-.3 0-.4"/><path fill="#383b3d" d="M26.8 90c.1-.1.3-.1.4 0l5.2 5.1c.1.1.1.3 0 .4s-.3.1-.4 0l-5.2-5.1c-.1-.2-.1-.3 0-.4"/><path fill="#a3abb2" d="M25.7 112.9h4.9v1.5h-4.9z"/><path fill="#d1d4d9" d="M32.8 113.2h7v1.3h-7z"/><path fill="#c2c7cc" d="M23.9 114.7c-.6 0-1-.5-1-1s.5-1 1-1c.6 0 1 .5 1 1s-.4 1-1 1"/><path fill="none" stroke="#a3abb2" stroke-miterlimit="10" stroke-width=".25" d="M17.6 133.5c-1.4 0-2.5-1.1-2.5-2.5s1.1-2.5 2.5-2.5 2.5 1.1 2.5 2.5-1.1 2.5-2.5 2.5z"/><path fill="#126938" d="M38.5 138.6H15.2c-.6 0-1.1-.5-1.1-1.1v-3.4h25.4v3.4c.1.6-.4 1.1-1 1.1m-24.3-13.2h6.5v.2h-6.5zm7.2 0h18.2v.2H21.4z"/><path fill="#c2c7cc" d="M28.2 125.9h11.4v1.6H28.2zm4.6 1.8h6.7v.3h-6.7zm1.2.5h5.5v.3H34z"/><path fill="#2e3033" d="M177.6 71h-23.2c-1.5 0-2.6-1.2-2.6-2.6V12.9c0-1.5 1.2-2.6 2.6-2.6h23.2c1.5 0 2.6 1.2 2.6 2.6v55.4c0 1.5-1.2 2.7-2.6 2.7"/><path fill="none" stroke="#595e61" stroke-miterlimit="10" stroke-width=".75" d="M177.6 71h-23.2c-1.5 0-2.6-1.2-2.6-2.6V12.9c0-1.5 1.2-2.6 2.6-2.6h23.2c1.5 0 2.6 1.2 2.6 2.6v55.4c0 1.5-1.2 2.7-2.6 2.7z"/><path fill="#f0f2f2" d="M177.6 70.8h-23.3c-1.3 0-2.4-1.1-2.4-2.4V35c0-1.3 1.1-2.4 2.4-2.4h23.3c1.3 0 2.4 1.1 2.4 2.4v33.4c0 1.3-1.1 2.4-2.4 2.4"/><path fill="#242629" d="M167.1 40.4h.3v.3h-.3zm-.6-1v-.2h-.4v.4h.4zm.6-1.6h.3v.3h-.3z"/><g fill="#242629"><path d="M168 39.9V41s0 .1-.1.1h-1.1s-.1 0-.1-.1v-1.1s0-.1.1-.1h1.2zm0-.5v.2h-1.5v.7s0 .1-.1.1h-.3v.2h.3s.1 0 .1.1v.7h1.7v-2.1h-.2zm-3.7-2.1v-.2h-.4v.4h.4c.1-.1.1-.2 0-.2"/><path d="m165.5 39.9.1 1.1s0 .1-.1.1h-1.1V40s0-.1.1-.1zm-.7-2.7v.5s0 .1-.1.1h-.7v.9h.4v.7h-.3v1.7h2.1v-.2h-.4v-1.4h-.3s-.1 0-.1-.1v-.3h-.2v.3s0 .1-.1.1h-.4s-.1 0-.1-.1v-1.5h.4v-.6h.4v-.2h-.6z"/></g><path fill="#242629" d="M164.7 40.4h.3v.3h-.3zm2.1-3h1.3v1.1s0 .1-.1.1h-1.1s-.1 0-.1-.1zm-.7 0v-.3h-.2v.6h.8v.4s0 .1-.1.1h-.7v.2h.8v.3h.7l.1.1v.3h.2v-.3s0-.1.1-.1h.7V37h-1.7v.3zc0 .1 0 0 0 0m-.8 1.3v-.2h-.4v.4h.4zm.4-.8v-.2h-.4v.3h.4z"/><path fill="#e0e3e5" d="M159 42.4h-3.9c-.8 0-1.4-.7-1.4-1.5v-5.8c0-.8.6-1.5 1.4-1.5h.6c.2 0 .3-.1.4-.3l.2-.7h1.7l.2.7c0 .2.2.3.4.3h.4c.8 0 1.4.7 1.4 1.5v5.8c0 .9-.6 1.5-1.4 1.5m8.4-25.9h-2.8c-.2 0-.4-.2-.4-.4V13c0-.2.2-.4.4-.4h2.8c.2 0 .4.2.4.4v3c0 .3-.2.5-.4.5"/><path fill="#383b3d" d="M166 17.3c.1 0 .3.1.3.3V21c0 .1-.1.3-.3.3-.1 0-.3-.1-.3-.3v-3.4q.15-.3.3-.3m2.8 6.3c.1 0 .3.1.3.3v3.4c0 .1-.1.3-.3.3-.1 0-.3-.1-.3-.3v-3.4q0-.3.3-.3m-6.8 1.3c.1 0 .3.1.3.3v1.4c0 .1-.1.3-.3.3-.1 0-.3-.1-.3-.3v-1.4q0-.3.3-.3m8 4.1c.1 0 .3.1.3.3v1.4c0 .1-.1.3-.3.3-.1 0-.3-.1-.3-.3v-1.4q0-.3.3-.3m-7.4-2.1c.1 0 .3.1.3.3v3.4c0 .1-.1.3-.3.3-.1 0-.3-.1-.3-.3v-3.4q.15-.3.3-.3m3.8 2.1c.1 0 .3.1.3.3v1.4c0 .1-.1.3-.3.3-.1 0-.3-.1-.3-.3v-1.4c0-.2.2-.3.3-.3"/><path fill="#383b3d" d="M161.8 26.3c.1-.1.3-.1.4 0l1.4 1.4c.1.1.1.3 0 .4s-.3.1-.4 0l-1.4-1.4c-.1-.1-.1-.3 0-.4m8 1c.1-.1.3-.1.4 0l3 3c.1.1.1.3 0 .4s-.3.1-.4 0l-3-3c-.1-.1-.1-.3 0-.4m-11.6-.2c.1 0 .3.1.3.3V29c0 .1-.1.3-.3.3-.1 0-.3-.1-.3-.3v-1.6c0-.2.2-.3.3-.3m8.2.3c.1 0 .3.1.3.3v1.4c0 .1-.1.3-.3.3-.1 0-.3-.1-.3-.3v-1.4c0-.2.2-.3.3-.3m-6.2-2.3c0-.1.1-.3.3-.3h3.4c.1 0 .3.1.3.3 0 .1-.1.3-.3.3h-3.4q-.3 0-.3-.3"/><path fill="#383b3d" d="M166.2 27.6c0-.1.1-.3.3-.3h3.5c.1 0 .3.1.3.3 0 .1-.1.3-.3.3h-3.6c-.1-.1-.2-.2-.2-.3m0-6.8c.1.1.1.3 0 .4l-4 4c-.1.1-.3.1-.4 0s-.1-.3 0-.4l4-4c.2-.1.3-.1.4 0m-5.7 4.2c.1.1.1.3 0 .4l-2.1 2.1c-.1.1-.3.1-.4 0s-.1-.3 0-.4l2.1-2.1c.1-.1.3-.1.4 0m6.1 3.9c.1.1.1.3 0 .4l-1.4 1.4c-.1.1-.3.1-.4 0s-.1-.3 0-.4l1.4-1.4c.2-.1.3-.1.4 0"/><path fill="#383b3d" d="M165.9 20.8c.1-.1.3-.1.4 0l5.2 5.1c.1.1.1.3 0 .4s-.3.1-.4 0l-5.2-5.1c-.1-.1-.1-.3 0-.4"/><path fill="#383b3d" d="M165.9 20.8c.1-.1.3-.1.4 0l5.2 5.1c.1.1.1.3 0 .4s-.3.1-.4 0l-5.2-5.1c-.1-.1-.1-.3 0-.4"/><path fill="#383b3d" d="M165.9 20.8c.1-.1.3-.1.4 0l5.2 5.1c.1.1.1.3 0 .4s-.3.1-.4 0l-5.2-5.1c-.1-.1-.1-.3 0-.4"/><path fill="#383b3d" d="M165.9 20.8c.1-.1.3-.1.4 0l5.2 5.1c.1.1.1.3 0 .4s-.3.1-.4 0l-5.2-5.1c-.1-.1-.1-.3 0-.4"/><path fill="#383b3d" d="M165.9 20.8c.1-.1.3-.1.4 0l5.2 5.1c.1.1.1.3 0 .4s-.3.1-.4 0l-5.2-5.1c-.1-.1-.1-.3 0-.4"/><path fill="#383b3d" d="M165.9 20.8c.1-.1.3-.1.4 0l5.2 5.1c.1.1.1.3 0 .4s-.3.1-.4 0l-5.2-5.1c-.1-.1-.1-.3 0-.4"/><path fill="#383b3d" d="M165.9 20.8c.1-.1.3-.1.4 0l5.2 5.1c.1.1.1.3 0 .4s-.3.1-.4 0l-5.2-5.1c-.1-.1-.1-.3 0-.4"/><path fill="#383b3d" d="M165.9 20.8c.1-.1.3-.1.4 0l5.2 5.1c.1.1.1.3 0 .4s-.3.1-.4 0l-5.2-5.1c-.1-.1-.1-.3 0-.4"/><path fill="#a3abb2" d="M164.7 43.7h4.9v1.5h-4.9z"/><path fill="#d1d4d9" d="M171.9 44h7v1.3h-7z"/><path fill="#c2c7cc" d="M162.9 45.5c-.6 0-1-.5-1-1s.5-1 1-1c.6 0 1 .5 1 1s-.4 1-1 1"/><path fill="none" stroke="#a3abb2" stroke-miterlimit="10" stroke-width=".25" d="M156.6 64.3c-1.4 0-2.5-1.1-2.5-2.5s1.1-2.5 2.5-2.5 2.5 1.1 2.5 2.5-1.1 2.5-2.5 2.5z"/><path fill="#004f33" d="M177.5 69.4h-23.3c-.6 0-1.1-.5-1.1-1.1V65h25.4v3.4c.1.6-.4 1-1 1M153.2 56.2h6.5v.2h-6.5zm7.2 0h18.2v.2h-18.2z"/><path fill="#c2c7cc" d="M167.2 56.7h11.4v1.6h-11.4zm4.7 1.8h6.7v.3h-6.7zm1.2.5h5.5v.3h-5.5z"/><path fill="#2e3033" d="M107.4 140.1H84.2c-1.5 0-2.6-1.2-2.6-2.6V82c0-1.5 1.2-2.6 2.6-2.6h23.2c1.5 0 2.6 1.2 2.6 2.6v55.4c0 1.5-1.1 2.7-2.6 2.7"/><path fill="none" stroke="#595e61" stroke-miterlimit="10" stroke-width=".75" d="M107.4 140.1H84.2c-1.5 0-2.6-1.2-2.6-2.6V82c0-1.5 1.2-2.6 2.6-2.6h23.2c1.5 0 2.6 1.2 2.6 2.6v55.4c0 1.5-1.1 2.7-2.6 2.7z"/><path fill="#f0f2f2" d="M107.5 139.9H84.2c-1.3 0-2.4-1.1-2.4-2.4v-33.4c0-1.3 1.1-2.4 2.4-2.4h23.3c1.3 0 2.4 1.1 2.4 2.4v33.4c-.1 1.3-1.1 2.4-2.4 2.4"/><path fill="#242629" d="M97 109.5h.3v.3H97zm-.7-1v-.2h-.4v.4h.4zm.7-1.6h.3v.3H97z"/><g fill="#242629"><path d="M97.8 109s.1 0 0 0l.1 1.2s0 .1-.1.1h-1.1s-.1 0-.1-.1V109s0-.1.1-.1h1.1zm.1-.5v.2s0 .1-.1.1h-1.4v.7s0 .1-.1.1H96v.2h.4v.7h1.7v-2.1h-.2zm-3.7-2.1v-.2h-.4v.4h.4z"/><path d="M95.3 109s.1 0 0 0l.1 1.1s0 .1-.1.1h-1.1v-1.1s0-.1.1-.1zm-.7-2.7v.5h-.7v.9h.4v.7h-.4v1.7H96v-.2h-.4v-1.4h-.3s-.1 0-.1-.1v-.3H95v.3s0 .1-.1.1h-.4s-.1 0-.1-.1v-1.5h.4v-.6h.4v-.2h-.6z"/></g><path fill="#242629" d="M94.5 109.5h.3v.3h-.3zm2.2-3H98v1.1s0 .1-.1.1h-1.1v-1.2zm-.8 0v-.3h-.2v.6h.8v.4s0 .1-.1.1h-.7v.2h.8v.3h.8v.3h.2v-.2h.6v-1.7h-1.7v.3zc.1.1 0 .1 0 0m-.7 1.3v-.2h-.4v.4h.4zm.3-.8v-.2h-.4v.3h.4z"/><path fill="#e0e3e5" d="M88.9 111.5H85c-.8 0-1.4-.7-1.4-1.5v-5.8c0-.8.6-1.5 1.4-1.5h.6c.2 0 .3-.1.4-.3l.2-.7h1.7l.2.7c0 .2.2.3.4.3h.4c.8 0 1.4.7 1.4 1.5v5.8c-.1.9-.7 1.5-1.4 1.5m8.3-25.9h-2.8c-.2 0-.4-.2-.4-.4v-3.1c0-.2.2-.4.4-.4h2.8c.2 0 .4.2.4.4v3.1c.1.2-.1.4-.4.4"/><path fill="#383b3d" d="M95.9 86.4c.1 0 .3.1.3.3v3.4c0 .1-.1.3-.3.3-.1 0-.3-.1-.3-.3v-3.4q0-.3.3-.3m2.7 6.3c.1 0 .3.1.3.3v3.4c0 .1-.1.3-.3.3-.1 0-.3-.1-.3-.3V93c.1-.1.2-.3.3-.3M91.8 94c.1 0 .3.1.3.3v1.4c0 .1-.1.3-.3.3-.1 0-.3-.1-.3-.3v-1.4q.15-.3.3-.3m8 4.1c.1 0 .3.1.3.3v1.4c0 .1-.1.3-.3.3-.1 0-.3-.1-.3-.3v-1.4q.15-.3.3-.3M92.5 96c.1 0 .3.1.3.3v3.4c0 .1-.1.3-.3.3-.1 0-.3-.1-.3-.3v-3.4c0-.2.2-.3.3-.3m3.8 2.1c.1 0 .3.1.3.3v1.4c0 .1-.1.3-.3.3-.1 0-.3-.1-.3-.3v-1.4q0-.3.3-.3"/><path fill="#383b3d" d="M91.7 95.4c.1-.1.3-.1.4 0l1.4 1.4c.1.1.1.3 0 .4s-.3.1-.4 0l-1.4-1.4c-.1-.1-.1-.3 0-.4m8 1.1c.1-.1.3-.1.4 0l3 3c.1.1.1.3 0 .4s-.3.1-.4 0l-3-3c-.1-.2-.1-.3 0-.4m-11.6-.3c.1 0 .3.1.3.3v1.6c0 .1-.1.3-.3.3-.1 0-.3-.1-.3-.3v-1.6q0-.3.3-.3m8.2.3c.1 0 .3.1.3.3v1.4c0 .1-.1.3-.3.3-.1 0-.3-.1-.3-.3v-1.4q0-.3.3-.3M90 94.2c0-.1.1-.3.3-.3h3.4c.1 0 .3.1.3.3 0 .1-.1.3-.3.3h-3.4q-.3 0-.3-.3"/><path fill="#383b3d" d="M96 96.7c0-.1.1-.3.3-.3h3.5c.1 0 .3.1.3.3 0 .1-.1.3-.3.3h-3.5q-.3-.15-.3-.3m.1-6.8c.1.1.1.3 0 .4l-4 4c-.1.1-.3.1-.4 0s-.1-.3 0-.4l4-4c.1-.1.3-.1.4 0m-5.8 4.2c.1.1.1.3 0 .4l-2.1 2.1c-.1.1-.3.1-.4 0s-.1-.3 0-.4l2.1-2.1c.2-.1.3-.1.4 0m6.2 3.9c.1.1.1.3 0 .4l-1.4 1.4c-.1.1-.3.1-.4 0s-.1-.3 0-.4l1.4-1.4c.1-.1.3-.1.4 0"/><path fill="#383b3d" d="M95.7 89.9c.1-.1.3-.1.4 0l5.2 5.1c.1.1.1.3 0 .4s-.3.1-.4 0l-5.2-5.1c-.1-.1-.1-.3 0-.4"/><path fill="#383b3d" d="M95.7 89.9c.1-.1.3-.1.4 0l5.2 5.1c.1.1.1.3 0 .4s-.3.1-.4 0l-5.2-5.1c-.1-.1-.1-.3 0-.4"/><path fill="#383b3d" d="M95.7 89.9c.1-.1.3-.1.4 0l5.2 5.1c.1.1.1.3 0 .4s-.3.1-.4 0l-5.2-5.1c-.1-.1-.1-.3 0-.4"/><path fill="#383b3d" d="M95.7 89.9c.1-.1.3-.1.4 0l5.2 5.1c.1.1.1.3 0 .4s-.3.1-.4 0l-5.2-5.1c-.1-.1-.1-.3 0-.4"/><path fill="#383b3d" d="M95.7 89.9c.1-.1.3-.1.4 0l5.2 5.1c.1.1.1.3 0 .4s-.3.1-.4 0l-5.2-5.1c-.1-.1-.1-.3 0-.4"/><path fill="#383b3d" d="M95.7 89.9c.1-.1.3-.1.4 0l5.2 5.1c.1.1.1.3 0 .4s-.3.1-.4 0l-5.2-5.1c-.1-.1-.1-.3 0-.4"/><path fill="#383b3d" d="M95.7 89.9c.1-.1.3-.1.4 0l5.2 5.1c.1.1.1.3 0 .4s-.3.1-.4 0l-5.2-5.1c-.1-.1-.1-.3 0-.4"/><path fill="#383b3d" d="M95.7 89.9c.1-.1.3-.1.4 0l5.2 5.1c.1.1.1.3 0 .4s-.3.1-.4 0l-5.2-5.1c-.1-.1-.1-.3 0-.4"/><path fill="#a3abb2" d="M94.6 112.9h4.9v1.5h-4.9z"/><path fill="#d1d4d9" d="M101.7 113.1h7v1.3h-7z"/><path fill="#c2c7cc" d="M92.8 114.6c-.6 0-1-.5-1-1s.5-1 1-1c.6 0 1 .5 1 1s-.4 1-1 1"/><path fill="none" stroke="#a3abb2" stroke-miterlimit="10" stroke-width=".25" d="M86.5 133.5c-1.4 0-2.5-1.1-2.5-2.5s1.1-2.5 2.5-2.5 2.5 1.1 2.5 2.5c0 1.3-1.1 2.5-2.5 2.5z"/><path fill="#f7bac9" d="M107.4 138.6H84.1c-.6 0-1.1-.5-1.1-1.1v-3.4h25.4v3.4c.1.6-.4 1.1-1 1.1M83.1 125.4h6.5v.2h-6.5zm7.1 0h18.2v.2H90.2z"/><path fill="#c2c7cc" d="M97.1 125.8h11.4v1.6H97.1zm4.6 1.8h6.7v.3h-6.7zm1.2.5h5.5v.3h-5.5z"/><path fill="#2e3033" d="M72.9 140.1H49.7c-1.5 0-2.6-1.2-2.6-2.6V82c0-1.5 1.2-2.6 2.6-2.6h23.2c1.5 0 2.6 1.2 2.6 2.6v55.4c0 1.5-1.1 2.7-2.6 2.7"/><path fill="none" stroke="#595e61" stroke-miterlimit="10" stroke-width=".75" d="M72.9 140.1H49.7c-1.5 0-2.6-1.2-2.6-2.6V82c0-1.5 1.2-2.6 2.6-2.6h23.2c1.5 0 2.6 1.2 2.6 2.6v55.4c0 1.5-1.1 2.7-2.6 2.7z"/><path fill="#f0f2f2" d="M73 139.9H49.7c-1.3 0-2.4-1.1-2.4-2.4v-33.4c0-1.3 1.1-2.4 2.4-2.4H73c1.3 0 2.4 1.1 2.4 2.4v33.4c-.1 1.3-1.1 2.4-2.4 2.4"/><path fill="#242629" d="M62.5 109.5h.3v.3h-.3zm-.7-1v-.2h-.4v.4h.4zm.7-1.6h.3v.3h-.3z"/><g fill="#242629"><path d="M63.3 109s.1 0 0 0l.1 1.2s0 .1-.1.1h-1.1s-.1 0-.1-.1V109s0-.1.1-.1h1.1zm.1-.5v.2s0 .1-.1.1h-1.4v.7s0 .1-.1.1h-.3v.2h.4v.7h1.7v-2.1h-.2zm-3.7-2.1v-.2h-.4v.4h.4z"/><path d="M60.8 109q.15 0 0 0l.1 1.1s0 .1-.1.1h-1.1v-1.1s0-.1.1-.1zm-.7-2.7v.5h-.8v.9h.4v.7h-.3v1.7h2.1v-.2h-.4v-1.4h-.3s-.1 0-.1-.1v-.3h-.2v.3s0 .1-.1.1H60s-.1 0-.1-.1v-1.5h.4v-.6h.4v-.2h-.6z"/></g><path fill="#242629" d="M60 109.5h.3v.3H60zm2.2-3h1.3v1.1s0 .1-.1.1h-1.1v-1.2zm-.8 0v-.3h-.2v.6h.8v.4s0 .1-.1.1h-.7v.2h.8v.3h.8v.3h.2v-.2h.7v-1.7h-1.8v.3zc.1.1 0 .1 0 0m-.7 1.3v-.2h-.4v.4h.4zm.3-.8v-.2h-.4v.3h.4z"/><path fill="#e0e3e5" d="M54.4 111.5h-3.9c-.8 0-1.4-.7-1.4-1.5v-5.8c0-.8.6-1.5 1.4-1.5h.6c.2 0 .3-.1.4-.3l.2-.7h1.7l.2.7c0 .2.2.3.4.3h.4c.8 0 1.4.7 1.4 1.5v5.8c0 .9-.7 1.5-1.4 1.5m8.3-25.9h-2.8c-.2 0-.4-.2-.4-.4v-3.1c0-.2.2-.4.4-.4h2.8c.2 0 .4.2.4.4v3.1c.1.2-.1.4-.4.4"/><path fill="#383b3d" d="M61.4 86.4c.1 0 .3.1.3.3v3.4c0 .1-.1.3-.3.3-.1 0-.3-.1-.3-.3v-3.4q0-.3.3-.3m2.7 6.3c.1 0 .3.1.3.3v3.4c0 .1-.1.3-.3.3-.1 0-.3-.1-.3-.3V93c.1-.1.2-.3.3-.3M57.3 94c.1 0 .3.1.3.3v1.4c0 .1-.1.3-.3.3-.1 0-.3-.1-.3-.3v-1.4q.15-.3.3-.3m8 4.1c.1 0 .3.1.3.3v1.4c0 .1-.1.3-.3.3-.1 0-.3-.1-.3-.3v-1.4q.15-.3.3-.3M58 96c.1 0 .3.1.3.3v3.4c0 .1-.1.3-.3.3-.1 0-.3-.1-.3-.3v-3.4c0-.2.2-.3.3-.3m3.8 2.1c.1 0 .3.1.3.3v1.4c0 .1-.1.3-.3.3-.1 0-.3-.1-.3-.3v-1.4q0-.3.3-.3"/><path fill="#383b3d" d="M57.2 95.4c.1-.1.3-.1.4 0l1.4 1.4c.1.1.1.3 0 .4s-.3.1-.4 0l-1.4-1.4c-.1-.1-.1-.3 0-.4m8 1.1c.1-.1.3-.1.4 0l3 3c.1.1.1.3 0 .4s-.3.1-.4 0l-3-3c-.1-.2-.1-.3 0-.4m-11.6-.3c.1 0 .3.1.3.3v1.6c0 .1-.1.3-.3.3-.1 0-.3-.1-.3-.3v-1.6q0-.3.3-.3m8.2.3c.1 0 .3.1.3.3v1.4c0 .1-.1.3-.3.3-.1 0-.3-.1-.3-.3v-1.4q0-.3.3-.3m-6.3-2.3c0-.1.1-.3.3-.3h3.4c.1 0 .3.1.3.3 0 .1-.1.3-.3.3h-3.4q-.3 0-.3-.3"/><path fill="#383b3d" d="M61.5 96.7c0-.1.1-.3.3-.3h3.5c.1 0 .3.1.3.3 0 .1-.1.3-.3.3h-3.5c-.1-.1-.3-.2-.3-.3m.1-6.8c.1.1.1.3 0 .4l-4 4c-.1.1-.3.1-.4 0s-.1-.3 0-.4l4-4c.1-.1.3-.1.4 0m-5.7 4.2c.1.1.1.3 0 .4l-2.1 2.1c-.1.1-.3.1-.4 0s-.1-.3 0-.4l2.1-2.1c.1-.1.3-.1.4 0M62 98c.1.1.1.3 0 .4l-1.4 1.4c-.1.1-.3.1-.4 0s-.1-.3 0-.4l1.4-1.4c.1-.1.3-.1.4 0"/><path fill="#383b3d" d="M61.2 89.9c.1-.1.3-.1.4 0l5.2 5.1c.1.1.1.3 0 .4s-.3.1-.4 0l-5.2-5.1c-.1-.1-.1-.3 0-.4"/><path fill="#383b3d" d="M61.2 89.9c.1-.1.3-.1.4 0l5.2 5.1c.1.1.1.3 0 .4s-.3.1-.4 0l-5.2-5.1c-.1-.1-.1-.3 0-.4"/><path fill="#383b3d" d="M61.2 89.9c.1-.1.3-.1.4 0l5.2 5.1c.1.1.1.3 0 .4s-.3.1-.4 0l-5.2-5.1c-.1-.1-.1-.3 0-.4"/><path fill="#383b3d" d="M61.2 89.9c.1-.1.3-.1.4 0l5.2 5.1c.1.1.1.3 0 .4s-.3.1-.4 0l-5.2-5.1c-.1-.1-.1-.3 0-.4"/><path fill="#383b3d" d="M61.2 89.9c.1-.1.3-.1.4 0l5.2 5.1c.1.1.1.3 0 .4s-.3.1-.4 0l-5.2-5.1c-.1-.1-.1-.3 0-.4"/><path fill="#383b3d" d="M61.2 89.9c.1-.1.3-.1.4 0l5.2 5.1c.1.1.1.3 0 .4s-.3.1-.4 0l-5.2-5.1c-.1-.1-.1-.3 0-.4"/><path fill="#383b3d" d="M61.2 89.9c.1-.1.3-.1.4 0l5.2 5.1c.1.1.1.3 0 .4s-.3.1-.4 0l-5.2-5.1c-.1-.1-.1-.3 0-.4"/><path fill="#383b3d" d="M61.2 89.9c.1-.1.3-.1.4 0l5.2 5.1c.1.1.1.3 0 .4s-.3.1-.4 0l-5.2-5.1c-.1-.1-.1-.3 0-.4"/><path fill="#a3abb2" d="M60.1 112.9H65v1.5h-4.9z"/><path fill="#d1d4d9" d="M67.2 113.1h7v1.3h-7z"/><path fill="#c2c7cc" d="M58.3 114.6c-.6 0-1-.5-1-1s.5-1 1-1c.6 0 1 .5 1 1s-.4 1-1 1"/><path fill="none" stroke="#a3abb2" stroke-miterlimit="10" stroke-width=".25" d="M52 133.5c-1.4 0-2.5-1.1-2.5-2.5s1.1-2.5 2.5-2.5 2.5 1.1 2.5 2.5c0 1.3-1.1 2.5-2.5 2.5z"/><path fill="#081421" d="M72.9 138.6H49.6c-.6 0-1.1-.5-1.1-1.1v-3.4H74v3.4c0 .6-.5 1.1-1.1 1.1M48.6 125.4h6.5v.2h-6.5zm7.2 0H74v.2H55.8z"/><path fill="#c2c7cc" d="M62.6 125.8H74v1.6H62.6zm4.6 1.8h6.7v.3h-6.7zm1.2.5h5.5v.3h-5.5z"/><path fill="#2e3033" d="M176.9 140.2h-23.2c-1.5 0-2.6-1.2-2.6-2.6V88.2c0-1.5 1.2-2.6 2.6-2.6h23.2c1.5 0 2.6 1.2 2.6 2.6v49.4c.1 1.4-1.1 2.6-2.6 2.6"/><path fill="none" stroke="#595e61" stroke-miterlimit="10" stroke-width=".75" d="M176.9 140.2h-23.2c-1.5 0-2.6-1.2-2.6-2.6V88.2c0-1.5 1.2-2.6 2.6-2.6h23.2c1.5 0 2.6 1.2 2.6 2.6v49.4c.1 1.4-1.1 2.6-2.6 2.6z"/><path fill="#f0f2f2" d="M177 140h-23.3c-1.3 0-2.4-1.1-2.4-2.4v-27.4c0-1.3 1.1-2.4 2.4-2.4H177c1.3 0 2.4 1.1 2.4 2.4v27.4c0 1.3-1.1 2.4-2.4 2.4"/><path fill="#242629" d="M166.5 115.6h.3v.3h-.3zm-.7-1v-.2h-.4v.4h.4c.1-.1.1-.1 0-.2m.7-1.6h.3v.3h-.3z"/><path fill="#242629" d="M167.3 115.1q.15 0 0 0l.1 1.2s0 .1-.1.1h-1.1s-.1 0-.1-.1v-1.1s0-.1.1-.1zm.1-.5v.2h-1.5v.7s0 .1-.1.1h-.3v.2h.3s.1 0 .1.1v.7h1.7v-2.1h-.2zm-3.7-2.1v-.2h-.4v.4h.4zm1.1 2.6c.1 0 .1.1 0 0l.1 1.1s0 .1-.1.1h-1.1v-1.1s0-.1.1-.1zm-.7-2.6v.5h-.8v.9h.4v.7h-.3v1.7h2.1v-.2h-.4v-1.2h-.4v-.3h-.2v.3h-.6v-1.5h.4v-.6h.4v-.2h-.6c.1-.2 0-.2 0-.1"/><path fill="#242629" d="M164.1 115.6h.3v.3h-.3zm2.1-2.9q0-.15 0 0h1.3v1.1s0 .1-.1.1h-1.1s-.1 0-.1-.1zm-.7 0v-.3h-.2v.6h.8v.4s0 .1-.1.1h-.7v.2h.8v.3h.7l.1.1v.3h.2v-.3s0-.1.1-.1h.7v-1.7h-2v.3zm-.8 1.3v-.2h-.4v.4h.4zm.3-.8v-.2h-.4v.3h.4z"/><path fill="#e0e3e5" d="M158.4 117.7h-3.9c-.8 0-1.4-.7-1.4-1.5v-5.8c0-.8.6-1.5 1.4-1.5h.6c.2 0 .3-.1.4-.3l.2-.7h1.7l.2.7c0 .2.2.3.4.3h.4c.8 0 1.4.7 1.4 1.5v5.8c0 .8-.6 1.5-1.4 1.5m8.4-26H164c-.2 0-.4-.2-.4-.4v-3.1c0-.2.2-.4.4-.4h2.8c.2 0 .4.2.4.4v3.1c0 .2-.2.4-.4.4"/><path fill="#383b3d" d="M165.4 92.6c.1 0 .3.1.3.3v3.4c0 .1-.1.3-.3.3-.1 0-.3-.1-.3-.3v-3.4c0-.2.2-.3.3-.3m2.8 6.3c.1 0 .3.1.3.3v3.4c0 .1-.1.3-.3.3-.1 0-.3-.1-.3-.3v-3.4q0-.3.3-.3m-6.9 1.2c.1 0 .3.1.3.3v1.4c0 .1-.1.3-.3.3-.1 0-.3-.1-.3-.3v-1.4q.15-.3.3-.3m8.1 4.1c.1 0 .3.1.3.3v1.4c0 .1-.1.3-.3.3-.1 0-.3-.1-.3-.3v-1.4q0-.3.3-.3m-7.4-2.1c.1 0 .3.1.3.3v3.4c0 .1-.1.3-.3.3-.1 0-.3-.1-.3-.3v-3.4c.1-.1.2-.3.3-.3m3.8 2.1c.1 0 .3.1.3.3v1.4c0 .1-.1.3-.3.3-.1 0-.3-.1-.3-.3v-1.4q0-.3.3-.3"/><path fill="#383b3d" d="M161.2 101.6c.1-.1.3-.1.4 0l1.4 1.4c.1.1.1.3 0 .4s-.3.1-.4 0l-1.4-1.4c-.1-.2-.1-.3 0-.4m8 1c.1-.1.3-.1.4 0l3 3c.1.1.1.3 0 .4s-.3.1-.4 0l-3-3c-.1-.1-.1-.3 0-.4m-11.6-.3c.1 0 .3.1.3.3v1.6c0 .1-.1.3-.3.3-.1 0-.3-.1-.3-.3v-1.6q0-.3.3-.3m8.2.4c.1 0 .3.1.3.3v1.4c0 .1-.1.3-.3.3-.1 0-.3-.1-.3-.3V103q0-.3.3-.3m-6.3-2.3c0-.1.1-.3.3-.3h3.4c.1 0 .3.1.3.3 0 .1-.1.3-.3.3h-3.4c-.1-.1-.3-.2-.3-.3"/><path fill="#383b3d" d="M165.6 102.8c0-.1.1-.3.3-.3h3.5c.1 0 .3.1.3.3 0 .1-.1.3-.3.3h-3.6c-.1-.1-.2-.2-.2-.3m0-6.8c.1.1.1.3 0 .4l-4 4c-.1.1-.3.1-.4 0s-.1-.3 0-.4l4-4c.1-.1.3-.1.4 0m-5.7 4.2c.1.1.1.3 0 .4l-2.1 2.1c-.1.1-.3.1-.4 0s-.1-.3 0-.4l2.1-2.1c.1-.1.3-.1.4 0m6.1 4c.1.1.1.3 0 .4l-1.4 1.4c-.1.1-.3.1-.4 0s-.1-.3 0-.4l1.4-1.4c.2-.1.3-.1.4 0"/><path fill="#383b3d" d="M165.2 96c.1-.1.3-.1.4 0l5.2 5.1c.1.1.1.3 0 .4s-.3.1-.4 0l-5.2-5.1c-.1-.1-.1-.3 0-.4"/><path fill="#383b3d" d="M165.2 96c.1-.1.3-.1.4 0l5.2 5.1c.1.1.1.3 0 .4s-.3.1-.4 0l-5.2-5.1c-.1-.1-.1-.3 0-.4"/><path fill="#383b3d" d="M165.2 96c.1-.1.3-.1.4 0l5.2 5.1c.1.1.1.3 0 .4s-.3.1-.4 0l-5.2-5.1c-.1-.1-.1-.3 0-.4"/><path fill="#383b3d" d="M165.2 96c.1-.1.3-.1.4 0l5.2 5.1c.1.1.1.3 0 .4s-.3.1-.4 0l-5.2-5.1c-.1-.1-.1-.3 0-.4"/><path fill="#383b3d" d="M165.2 96c.1-.1.3-.1.4 0l5.2 5.1c.1.1.1.3 0 .4s-.3.1-.4 0l-5.2-5.1c-.1-.1-.1-.3 0-.4"/><path fill="#383b3d" d="M165.2 96c.1-.1.3-.1.4 0l5.2 5.1c.1.1.1.3 0 .4s-.3.1-.4 0l-5.2-5.1c-.1-.1-.1-.3 0-.4"/><path fill="#383b3d" d="M165.2 96c.1-.1.3-.1.4 0l5.2 5.1c.1.1.1.3 0 .4s-.3.1-.4 0l-5.2-5.1c-.1-.1-.1-.3 0-.4"/><path fill="#383b3d" d="M165.2 96c.1-.1.3-.1.4 0l5.2 5.1c.1.1.1.3 0 .4s-.3.1-.4 0l-5.2-5.1c-.1-.1-.1-.3 0-.4"/><path fill="#a3abb2" d="M164.1 119h4.9v1.5h-4.9z"/><path fill="#d1d4d9" d="M171.3 119.3h7v1.3h-7z"/><path fill="#c2c7cc" d="M162.3 120.8c-.6 0-1-.5-1-1 0-.6.5-1 1-1 .6 0 1 .5 1 1s-.4 1-1 1"/><path fill="none" stroke="#a3abb2" stroke-miterlimit="10" stroke-width=".25" d="M156 133.5c-1.4 0-2.5-1.1-2.5-2.5s1.1-2.5 2.5-2.5 2.5 1.1 2.5 2.5-1.1 2.5-2.5 2.5z"/><path fill="#78ba26" d="M176.9 138.6h-23.3c-.6 0-1.1-.5-1.1-1.1v-3.4H178v3.4c0 .7-.5 1.1-1.1 1.1M152.6 125.4h6.5v.2h-6.5zm7.2 0H178v.2h-18.2z"/><path fill="#c2c7cc" d="M166.6 125.9H178v1.6h-11.4zm4.7 1.8h6.7v.3h-6.7zm1.1.5h5.5v.3h-5.5z"/><path fill="#2e3033" d="M142.4 140.2h-23.2c-1.5 0-2.6-1.2-2.6-2.6V88.2c0-1.5 1.2-2.6 2.6-2.6h23.2c1.5 0 2.6 1.2 2.6 2.6v49.4c.1 1.4-1.1 2.6-2.6 2.6"/><path fill="none" stroke="#595e61" stroke-miterlimit="10" stroke-width=".75" d="M142.4 140.2h-23.2c-1.5 0-2.6-1.2-2.6-2.6V88.2c0-1.5 1.2-2.6 2.6-2.6h23.2c1.5 0 2.6 1.2 2.6 2.6v49.4c.1 1.4-1.1 2.6-2.6 2.6z"/><path fill="#f0f2f2" d="M142.5 140h-23.3c-1.3 0-2.4-1.1-2.4-2.4v-27.4c0-1.3 1.1-2.4 2.4-2.4h23.3c1.3 0 2.4 1.1 2.4 2.4v27.4c0 1.3-1.1 2.4-2.4 2.4"/><path fill="#242629" d="M132 115.6h.3v.3h-.3zm-.6-1v-.2h-.4v.4h.4zm.6-1.6h.3v.3h-.3z"/><path fill="#242629" d="M132.8 115.1q.15 0 0 0l.1 1.2s0 .1-.1.1h-1.1s-.1 0-.1-.1v-1.1s0-.1.1-.1zm.1-.5v.2h-1.5v.7s0 .1-.1.1h-.3v.2h.3s.1 0 .1.1v.7h1.7v-2.1h-.2zm-3.7-2.1v-.2h-.4v.4h.4zm1.1 2.6c.1 0 .1.1 0 0l.1 1.1s0 .1-.1.1h-1.1v-1.1s0-.1.1-.1zm-.7-2.6v.5h-.7v.9h.4v.7h-.4v1.7h2.1v-.2h-.4v-1.2h-.4v-.3h-.2v.3h-.6v-1.5h.4v-.6h.4v-.2h-.6c.1-.2 0-.2 0-.1"/><path fill="#242629" d="M129.6 115.6h.3v.3h-.3zm2.1-2.9q0-.15 0 0h1.3v1.1s0 .1-.1.1h-1.1v-1.2zm-.7 0v-.3h-.2v.6h.8v.4s0 .1-.1.1h-.7v.2h.8v.3h.7s.1 0 .1.1v.3h.2v-.4h.7v-1.7h-1.7v.3zm-.8 1.3v-.2h-.4v.4h.4zm.3-.8v-.2h-.4v.3h.4z"/><path fill="#e0e3e5" d="M123.9 117.7H120c-.8 0-1.4-.7-1.4-1.5v-5.8c0-.8.6-1.5 1.4-1.5h.6c.2 0 .3-.1.4-.3l.2-.7h1.7l.2.7c0 .2.2.3.4.3h.4c.8 0 1.4.7 1.4 1.5v5.8c0 .8-.6 1.5-1.4 1.5m8.4-26h-2.8c-.2 0-.4-.2-.4-.4v-3.1c0-.2.2-.4.4-.4h2.8c.2 0 .4.2.4.4v3.1c0 .2-.2.4-.4.4"/><path fill="#383b3d" d="M130.9 92.6c.1 0 .3.1.3.3v3.4c0 .1-.1.3-.3.3-.1 0-.3-.1-.3-.3v-3.4c0-.2.2-.3.3-.3m2.8 6.3c.1 0 .3.1.3.3v3.4c0 .1-.1.3-.3.3-.1 0-.3-.1-.3-.3v-3.4q0-.3.3-.3m-6.9 1.2c.1 0 .3.1.3.3v1.4c0 .1-.1.3-.3.3-.1 0-.3-.1-.3-.3v-1.4q.15-.3.3-.3m8.1 4.1c.1 0 .3.1.3.3v1.4c0 .1-.1.3-.3.3-.1 0-.3-.1-.3-.3v-1.4q0-.3.3-.3m-7.4-2.1c.1 0 .3.1.3.3v3.4c0 .1-.1.3-.3.3-.1 0-.3-.1-.3-.3v-3.4c.1-.1.2-.3.3-.3m3.8 2.1c.1 0 .3.1.3.3v1.4c0 .1-.1.3-.3.3-.1 0-.3-.1-.3-.3v-1.4q0-.3.3-.3"/><path fill="#383b3d" d="M126.7 101.6c.1-.1.3-.1.4 0l1.4 1.4c.1.1.1.3 0 .4s-.3.1-.4 0l-1.4-1.4c-.1-.2-.1-.3 0-.4m8 1c.1-.1.3-.1.4 0l3 3c.1.1.1.3 0 .4s-.3.1-.4 0l-3-3c-.1-.1-.1-.3 0-.4m-11.6-.3c.1 0 .3.1.3.3v1.6c0 .1-.1.3-.3.3-.1 0-.3-.1-.3-.3v-1.6q0-.3.3-.3m8.2.4c.1 0 .3.1.3.3v1.4c0 .1-.1.3-.3.3-.1 0-.3-.1-.3-.3V103q0-.3.3-.3m-6.3-2.3c0-.1.1-.3.3-.3h3.4c.1 0 .3.1.3.3 0 .1-.1.3-.3.3h-3.4c-.1-.1-.3-.2-.3-.3"/><path fill="#383b3d" d="M131.1 102.8c0-.1.1-.3.3-.3h3.5c.1 0 .3.1.3.3 0 .1-.1.3-.3.3h-3.6c-.1-.1-.2-.2-.2-.3m0-6.8c.1.1.1.3 0 .4l-4 4c-.1.1-.3.1-.4 0s-.1-.3 0-.4l4-4c.1-.1.3-.1.4 0m-5.7 4.2c.1.1.1.3 0 .4l-2.1 2.1c-.1.1-.3.1-.4 0s-.1-.3 0-.4l2.1-2.1c.1-.1.3-.1.4 0m6.1 4c.1.1.1.3 0 .4l-1.4 1.4c-.1.1-.3.1-.4 0s-.1-.3 0-.4l1.4-1.4c.2-.1.3-.1.4 0"/><path fill="#383b3d" d="M130.7 96c.1-.1.3-.1.4 0l5.2 5.1c.1.1.1.3 0 .4s-.3.1-.4 0l-5.2-5.1c-.1-.1-.1-.3 0-.4"/><path fill="#383b3d" d="M130.7 96c.1-.1.3-.1.4 0l5.2 5.1c.1.1.1.3 0 .4s-.3.1-.4 0l-5.2-5.1c-.1-.1-.1-.3 0-.4"/><path fill="#383b3d" d="M130.7 96c.1-.1.3-.1.4 0l5.2 5.1c.1.1.1.3 0 .4s-.3.1-.4 0l-5.2-5.1c-.1-.1-.1-.3 0-.4"/><path fill="#383b3d" d="M130.7 96c.1-.1.3-.1.4 0l5.2 5.1c.1.1.1.3 0 .4s-.3.1-.4 0l-5.2-5.1c-.1-.1-.1-.3 0-.4"/><path fill="#383b3d" d="M130.7 96c.1-.1.3-.1.4 0l5.2 5.1c.1.1.1.3 0 .4s-.3.1-.4 0l-5.2-5.1c-.1-.1-.1-.3 0-.4"/><path fill="#383b3d" d="M130.7 96c.1-.1.3-.1.4 0l5.2 5.1c.1.1.1.3 0 .4s-.3.1-.4 0l-5.2-5.1c-.1-.1-.1-.3 0-.4"/><path fill="#383b3d" d="M130.7 96c.1-.1.3-.1.4 0l5.2 5.1c.1.1.1.3 0 .4s-.3.1-.4 0l-5.2-5.1c-.1-.1-.1-.3 0-.4"/><path fill="#383b3d" d="M130.7 96c.1-.1.3-.1.4 0l5.2 5.1c.1.1.1.3 0 .4s-.3.1-.4 0l-5.2-5.1c-.1-.1-.1-.3 0-.4"/><path fill="#a3abb2" d="M129.6 119h4.9v1.5h-4.9z"/><path fill="#d1d4d9" d="M136.8 119.3h7v1.3h-7z"/><path fill="#c2c7cc" d="M127.8 120.8c-.6 0-1-.5-1-1 0-.6.5-1 1-1 .6 0 1 .5 1 1s-.4 1-1 1"/><path fill="none" stroke="#a3abb2" stroke-miterlimit="10" stroke-width=".25" d="M121.5 133.5c-1.4 0-2.5-1.1-2.5-2.5s1.1-2.5 2.5-2.5 2.5 1.1 2.5 2.5-1.1 2.5-2.5 2.5z"/><path fill="#5c2482" d="M142.4 138.6h-23.3c-.6 0-1.1-.5-1.1-1.1v-3.4h25.4v3.4c.1.7-.4 1.1-1 1.1M118.1 125.4h6.5v.2h-6.5zm7.2 0h18.2v.2h-18.2z"/><path fill="#c2c7cc" d="M132.1 125.9h11.4v1.6h-11.4zm4.7 1.8h6.7v.3h-6.7zm1.1.5h5.5v.3h-5.5z"/><path fill="#2e3033" d="M142.9 71h-23.2c-1.5 0-2.6-1.2-2.6-2.6V13c0-1.5 1.2-2.6 2.6-2.6h23.2c1.5 0 2.6 1.2 2.6 2.6v55.4c0 1.5-1.2 2.6-2.6 2.6"/><path fill="none" stroke="#595e61" stroke-miterlimit="10" stroke-width=".75" d="M142.9 71h-23.2c-1.5 0-2.6-1.2-2.6-2.6V13c0-1.5 1.2-2.6 2.6-2.6h23.2c1.5 0 2.6 1.2 2.6 2.6v55.4c0 1.5-1.2 2.6-2.6 2.6z"/><path fill="#f0f2f2" d="M142.9 70.8h-23.3c-1.3 0-2.4-1.1-2.4-2.4V35c0-1.3 1.1-2.4 2.4-2.4h23.3c1.3 0 2.4 1.1 2.4 2.4v33.4c0 1.4-1.1 2.4-2.4 2.4"/><path fill="#242629" d="M132.4 40.4h.3v.3h-.3zm-.6-1v-.2h-.4v.4h.4zm.6-1.6h.3v.3h-.3z"/><g fill="#242629"><path d="M133.3 39.9s0 .1 0 0l.1 1.2s0 .1-.1.1h-1.1s-.1 0-.1-.1V40s0-.1.1-.1zm0-.5v.2s0 .1-.1.1h-1.3v.7s0 .1-.1.1h-.3v.2h.3s.1 0 .1.1v.7h1.7v-2.1h-.2c-.1-.1-.1 0-.1 0m-3.6-2.1v-.2h-.4v.4h.4z"/><path d="m130.8 40 .1 1.1s0 .1-.1.1h-1.1V40s0-.1.1-.1h1zm-.7-2.7v.5h-.8v.9h.4v.7h-.3v1.7h2.1v-.2h-.4v-1.4h-.3s-.1 0-.1-.1v-.3h-.2v.3s0 .1-.1.1h-.4s-.1 0-.1-.1v-1.5h.4v-.6h.4v-.2h-.6z"/></g><path fill="#242629" d="M130 40.4h.3v.3h-.3zm2.1-2.9c0-.1.1-.1 0 0h1.3v1.1s0 .1-.1.1h-1.1v-1.2zm-.7 0v-.3h-.2v.6h.8v.4s0 .1-.1.1h-.7v.2h.8v.3h.8v.3h.2v-.2h.7v-1.7h-1.8v.3zm-.8 1.3v-.2h-.4v.4h.4zm.4-.8v-.2h-.4v.3h.4z"/><path fill="#e0e3e5" d="M124.3 42.5h-3.9c-.8 0-1.4-.7-1.4-1.5v-5.8c0-.8.6-1.5 1.4-1.5h.6c.2 0 .3-.1.4-.3l.2-.7h1.7l.2.7c0 .2.2.3.4.3h.4c.8 0 1.4.7 1.4 1.5V41c0 .8-.6 1.5-1.4 1.5m8.4-26h-2.8c-.2 0-.4-.2-.4-.4V13c0-.2.2-.4.4-.4h2.8c.2 0 .4.2.4.4v3.1c0 .2-.2.4-.4.4"/><path fill="#383b3d" d="M131.3 17.4c.1 0 .3.1.3.3v3.4c0 .1-.1.3-.3.3-.1 0-.3-.1-.3-.3v-3.4q.15-.3.3-.3m2.8 6.3c.1 0 .3.1.3.3v3.4c0 .1-.1.3-.3.3-.1 0-.3-.1-.3-.3V24c0-.2.2-.3.3-.3m-6.8 1.2c.1 0 .3.1.3.3v1.4c0 .1-.1.3-.3.3-.1 0-.3-.1-.3-.3v-1.4q0-.3.3-.3m8 4.1c.1 0 .3.1.3.3v1.4c0 .1-.1.3-.3.3-.1 0-.3-.1-.3-.3v-1.4c0-.2.2-.3.3-.3m-7.3-2c.1 0 .3.1.3.3v3.4c0 .1-.1.3-.3.3-.1 0-.3-.1-.3-.3v-3.4q0-.3.3-.3m3.7 2c.1 0 .3.1.3.3v1.4c0 .1-.1.3-.3.3-.1 0-.3-.1-.3-.3v-1.4q.15-.3.3-.3"/><path fill="#383b3d" d="M127.1 26.4c.1-.1.3-.1.4 0l1.4 1.4c.1.1.1.3 0 .4s-.3.1-.4 0l-1.4-1.4c-.1-.2-.1-.3 0-.4m8 1c.1-.1.3-.1.4 0l3 3c.1.1.1.3 0 .4s-.3.1-.4 0l-3-3c-.1-.1-.1-.3 0-.4m-11.6-.3c.1 0 .3.1.3.3V29c0 .1-.1.3-.3.3-.1 0-.3-.1-.3-.3v-1.6q.15-.3.3-.3m8.2.4c.1 0 .3.1.3.3v1.4c0 .1-.1.3-.3.3-.1 0-.3-.1-.3-.3v-1.4q.15-.3.3-.3m-6.2-2.3c0-.1.1-.3.3-.3h3.4c.1 0 .3.1.3.3 0 .1-.1.3-.3.3h-3.4q-.3-.15-.3-.3"/><path fill="#383b3d" d="M131.5 27.6c0-.1.1-.3.3-.3h3.5c.1 0 .3.1.3.3 0 .1-.1.3-.3.3h-3.5c-.2 0-.3-.2-.3-.3m0-6.7c.1.1.1.3 0 .4l-4 4c-.1.1-.3.1-.4 0s-.1-.3 0-.4l4-4c.2-.1.3-.1.4 0m-5.7 4.2c.1.1.1.3 0 .4l-2.1 2.1c-.1.1-.3.1-.4 0s-.1-.3 0-.4l2.1-2.1c.1-.1.3-.1.4 0M132 29c.1.1.1.3 0 .4l-1.4 1.4c-.1.1-.3.1-.4 0s-.1-.3 0-.4l1.4-1.4c.1-.1.3-.1.4 0"/><path fill="#383b3d" d="M131.2 20.9c.1-.1.3-.1.4 0l5.2 5.1c.1.1.1.3 0 .4s-.3.1-.4 0l-5.2-5.1c-.1-.2-.1-.3 0-.4"/><path fill="#383b3d" d="M131.2 20.9c.1-.1.3-.1.4 0l5.2 5.1c.1.1.1.3 0 .4s-.3.1-.4 0l-5.2-5.1c-.1-.2-.1-.3 0-.4"/><path fill="#383b3d" d="M131.2 20.9c.1-.1.3-.1.4 0l5.2 5.1c.1.1.1.3 0 .4s-.3.1-.4 0l-5.2-5.1c-.1-.2-.1-.3 0-.4"/><path fill="#383b3d" d="M131.2 20.9c.1-.1.3-.1.4 0l5.2 5.1c.1.1.1.3 0 .4s-.3.1-.4 0l-5.2-5.1c-.1-.2-.1-.3 0-.4"/><path fill="#383b3d" d="M131.2 20.9c.1-.1.3-.1.4 0l5.2 5.1c.1.1.1.3 0 .4s-.3.1-.4 0l-5.2-5.1c-.1-.2-.1-.3 0-.4"/><path fill="#383b3d" d="M131.2 20.9c.1-.1.3-.1.4 0l5.2 5.1c.1.1.1.3 0 .4s-.3.1-.4 0l-5.2-5.1c-.1-.2-.1-.3 0-.4"/><path fill="#383b3d" d="M131.2 20.9c.1-.1.3-.1.4 0l5.2 5.1c.1.1.1.3 0 .4s-.3.1-.4 0l-5.2-5.1c-.1-.2-.1-.3 0-.4"/><path fill="#383b3d" d="M131.2 20.9c.1-.1.3-.1.4 0l5.2 5.1c.1.1.1.3 0 .4s-.3.1-.4 0l-5.2-5.1c-.1-.2-.1-.3 0-.4"/><path fill="#a3abb2" d="M130 43.8h4.9v1.5H130z"/><path fill="#d1d4d9" d="M137.2 44.1h7v1.3h-7z"/><path fill="#c2c7cc" d="M128.2 45.6c-.6 0-1-.5-1-1 0-.6.5-1 1-1s1 .5 1 1c.1.5-.4 1-1 1"/><path fill="none" stroke="#a3abb2" stroke-miterlimit="10" stroke-width=".25" d="M121.9 64.4c-1.4 0-2.5-1.1-2.5-2.5s1.1-2.5 2.5-2.5 2.5 1.1 2.5 2.5-1.1 2.5-2.5 2.5z"/><path fill="#b21a70" d="M142.8 69.5h-23.3c-.6 0-1.1-.5-1.1-1.1V65h25.4v3.4c.1.6-.4 1.1-1 1.1M118.5 56.3h6.5v.2h-6.5zm7.2 0h18.2v.2h-18.2z"/><path fill="#c2c7cc" d="M132.5 56.7h11.4v1.6h-11.4zm4.7 1.8h6.7v.3h-6.7zm1.2.6h5.5v.3h-5.5z"/><path fill="#2e3033" d="M107.8 71H84.6c-1.5 0-2.6-1.2-2.6-2.6V13c0-1.5 1.2-2.6 2.6-2.6h23.2c1.5 0 2.6 1.2 2.6 2.6v55.4c0 1.5-1.2 2.6-2.6 2.6"/><path fill="none" stroke="#595e61" stroke-miterlimit="10" stroke-width=".75" d="M107.8 71H84.6c-1.5 0-2.6-1.2-2.6-2.6V13c0-1.5 1.2-2.6 2.6-2.6h23.2c1.5 0 2.6 1.2 2.6 2.6v55.4c0 1.5-1.2 2.6-2.6 2.6z"/><path fill="#f0f2f2" d="M107.8 70.8H84.6c-1.3 0-2.4-1.1-2.4-2.4V35c0-1.3 1.1-2.4 2.4-2.4h23.3c1.3 0 2.4 1.1 2.4 2.4v33.4c-.1 1.4-1.2 2.4-2.5 2.4"/><path fill="#242629" d="M97.4 40.4h.3v.3h-.3zm-.7-1v-.2h-.4v.4h.4zm.7-1.6h.3v.3h-.3z"/><g fill="#242629"><path d="M98.2 39.9s0 .1 0 0l.1 1.2s0 .1-.1.1h-1.1s-.1 0-.1-.1V40s0-.1.1-.1zm0-.5v.2h-1.5v.7s0 .1-.1.1h-.3v.2h.3s.1 0 .1.1v.7h1.7v-2.1h-.2zm-3.6-2.1v-.2h-.4v.4h.4z"/><path d="m95.7 40 .1 1.1s0 .1-.1.1h-1.1V40s0-.1.1-.1h1zm-.7-2.7v.5h-.8v.9h.4v.7h-.3v1.7h2.1v-.2H96v-1.4h-.4v-.3h-.2v.3h-.6V38h.4v-.6h.4v-.2H95z"/></g><path fill="#242629" d="M94.9 40.4h.3v.3h-.3zm2.1-2.9c0-.1.1-.1 0 0h1.3v1.1s0 .1-.1.1h-1.1v-1.2zm-.7 0v-.3h-.2v.6h.8v.4s0 .1-.1.1h-.7v.2h.8v.3h.7l.1.1v.3h.2v-.4h.7v-1.7h-1.7v.3zm-.8 1.3v-.2h-.4v.4h.4c.1-.1.1-.2 0-.2m.4-.8v-.2h-.4v.3h.4z"/><path fill="#e0e3e5" d="M89.2 42.5h-3.9c-.8 0-1.4-.7-1.4-1.5v-5.8c0-.8.6-1.5 1.4-1.5h.6c.2 0 .3-.1.4-.3l.2-.7h1.7l.2.7c0 .2.2.3.4.3h.4c.8 0 1.4.7 1.4 1.5V41c0 .8-.6 1.5-1.4 1.5m8.4-26h-2.8c-.2 0-.4-.2-.4-.4V13c0-.2.2-.4.4-.4h2.8c.2 0 .4.2.4.4v3.1c0 .2-.2.4-.4.4"/><path fill="#383b3d" d="M96.2 17.4c.1 0 .3.1.3.3v3.4c0 .1-.1.3-.3.3-.1 0-.3-.1-.3-.3v-3.4q.15-.3.3-.3m2.8 6.3c.1 0 .3.1.3.3v3.4c0 .1-.1.3-.3.3-.1 0-.3-.1-.3-.3V24c0-.2.2-.3.3-.3m-6.8 1.2c.1 0 .3.1.3.3v1.4c0 .1-.1.3-.3.3-.1 0-.3-.1-.3-.3v-1.4q0-.3.3-.3m8 4.1c.1 0 .3.1.3.3v1.4c0 .1-.1.3-.3.3-.1 0-.3-.1-.3-.3v-1.4c0-.2.2-.3.3-.3m-7.3-2c.1 0 .3.1.3.3v3.4c0 .1-.1.3-.3.3-.1 0-.3-.1-.3-.3v-3.4q0-.3.3-.3m3.7 2c.1 0 .3.1.3.3v1.4c0 .1-.1.3-.3.3-.1 0-.3-.1-.3-.3v-1.4q.15-.3.3-.3"/><path fill="#383b3d" d="M92 26.4c.1-.1.3-.1.4 0l1.4 1.4c.1.1.1.3 0 .4s-.3.1-.4 0L92 26.7q-.15-.15 0-.3m8.1 1c.1-.1.3-.1.4 0l3 3c.1.1.1.3 0 .4s-.3.1-.4 0l-3-3c-.1-.1-.1-.3 0-.4m-11.7-.3c.1 0 .3.1.3.3V29c0 .1-.1.3-.3.3-.1 0-.3-.1-.3-.3v-1.6q.15-.3.3-.3m8.2.4c.1 0 .3.1.3.3v1.4c0 .1-.1.3-.3.3-.1 0-.3-.1-.3-.3v-1.4q.15-.3.3-.3m-6.2-2.3c0-.1.1-.3.3-.3h3.4c.1 0 .3.1.3.3 0 .1-.1.3-.3.3h-3.4q-.3-.15-.3-.3"/><path fill="#383b3d" d="M96.4 27.6c0-.1.1-.3.3-.3h3.5c.1 0 .3.1.3.3 0 .1-.1.3-.3.3h-3.6c-.1 0-.2-.2-.2-.3m0-6.8c.1.1.1.3 0 .4l-4 4c-.1.1-.3.1-.4 0s-.1-.3 0-.4l4-4c.2-.1.3-.1.4 0M90.7 25c.1.1.1.3 0 .4l-2.1 2.1c-.1.1-.3.1-.4 0s-.1-.3 0-.4l2.1-2.1c.2-.1.3-.1.4 0m6.2 4c.1.1.1.3 0 .4l-1.4 1.4c-.1.1-.3.1-.4 0s-.1-.3 0-.4l1.4-1.4c.1-.1.3-.1.4 0"/><path fill="#383b3d" d="M96.1 20.8c.1-.1.3-.1.4 0l5.2 5.1c.1.1.1.3 0 .4s-.3.1-.4 0l-5.2-5.1c-.1-.1-.1-.3 0-.4"/><path fill="#383b3d" d="M96.1 20.8c.1-.1.3-.1.4 0l5.2 5.1c.1.1.1.3 0 .4s-.3.1-.4 0l-5.2-5.1c-.1-.1-.1-.3 0-.4"/><path fill="#383b3d" d="M96.1 20.8c.1-.1.3-.1.4 0l5.2 5.1c.1.1.1.3 0 .4s-.3.1-.4 0l-5.2-5.1c-.1-.1-.1-.3 0-.4"/><path fill="#383b3d" d="M96.1 20.8c.1-.1.3-.1.4 0l5.2 5.1c.1.1.1.3 0 .4s-.3.1-.4 0l-5.2-5.1c-.1-.1-.1-.3 0-.4"/><path fill="#383b3d" d="M96.1 20.8c.1-.1.3-.1.4 0l5.2 5.1c.1.1.1.3 0 .4s-.3.1-.4 0l-5.2-5.1c-.1-.1-.1-.3 0-.4"/><path fill="#383b3d" d="M96.1 20.8c.1-.1.3-.1.4 0l5.2 5.1c.1.1.1.3 0 .4s-.3.1-.4 0l-5.2-5.1c-.1-.1-.1-.3 0-.4"/><path fill="#383b3d" d="M96.1 20.8c.1-.1.3-.1.4 0l5.2 5.1c.1.1.1.3 0 .4s-.3.1-.4 0l-5.2-5.1c-.1-.1-.1-.3 0-.4"/><path fill="#383b3d" d="M96.1 20.8c.1-.1.3-.1.4 0l5.2 5.1c.1.1.1.3 0 .4s-.3.1-.4 0l-5.2-5.1c-.1-.1-.1-.3 0-.4"/><path fill="#a3abb2" d="M95 43.8h4.9v1.5H95z"/><path fill="#d1d4d9" d="M102.1 44.1h7v1.3h-7z"/><path fill="#c2c7cc" d="M93.2 45.6c-.6 0-1-.5-1-1s.5-1 1-1c.6 0 1 .5 1 1s-.5 1-1 1"/><path fill="none" stroke="#a3abb2" stroke-miterlimit="10" stroke-width=".25" d="M86.8 64.4c-1.4 0-2.5-1.1-2.5-2.5s1.1-2.5 2.5-2.5 2.5 1.1 2.5 2.5c.1 1.4-1.1 2.5-2.5 2.5z"/><path fill="#14a8b0" d="M107.8 69.5H84.5c-.6 0-1.1-.5-1.1-1.1V65h25.4v3.4c0 .6-.5 1.1-1 1.1M83.4 56.3h6.5v.2h-6.5zm7.2 0h18.2v.2H90.6z"/><path fill="#c2c7cc" d="M97.4 56.7h11.4v1.6H97.4zm4.7 1.8h6.7v.3h-6.7zm1.2.6h5.5v.3h-5.5z"/><path fill="#2e3033" d="M73.3 71H50.1c-1.5 0-2.6-1.2-2.6-2.6V13c0-1.5 1.2-2.6 2.6-2.6h23.2c1.5 0 2.6 1.2 2.6 2.6v55.4c0 1.5-1.2 2.6-2.6 2.6"/><path fill="none" stroke="#595e61" stroke-miterlimit="10" stroke-width=".75" d="M73.3 71H50.1c-1.5 0-2.6-1.2-2.6-2.6V13c0-1.5 1.2-2.6 2.6-2.6h23.2c1.5 0 2.6 1.2 2.6 2.6v55.4c0 1.5-1.2 2.6-2.6 2.6z"/><path fill="#f0f2f2" d="M73.3 70.8H50.1c-1.3 0-2.4-1.1-2.4-2.4V35c0-1.3 1.1-2.4 2.4-2.4h23.3c1.3 0 2.4 1.1 2.4 2.4v33.4c-.1 1.4-1.2 2.4-2.5 2.4"/><path fill="#242629" d="M62.9 40.4h.3v.3h-.3zm-.7-1v-.2h-.4v.4h.4zm.7-1.6h.3v.3h-.3z"/><g fill="#242629"><path d="M63.7 39.9s0 .1 0 0l.1 1.2s0 .1-.1.1h-1.1s-.1 0-.1-.1V40s0-.1.1-.1zm0-.5v.2h-1.5v.7s0 .1-.1.1h-.2v.2h.3s.1 0 .1.1v.7H64v-2.1h-.2c-.1 0-.1.1-.1.1m-3.6-2.1v-.2h-.4v.4h.4z"/><path d="m61.2 40 .1 1.1s0 .1-.1.1h-1.1V40s0-.1.1-.1h1zm-.7-2.7v.5h-.8v.9h.4v.7h-.3v1.7h2.1v-.2h-.4v-1.4h-.4v-.3h-.2v.3h-.6V38h.4v-.6h.4v-.2h-.6z"/></g><path fill="#242629" d="M60.4 40.4h.3v.3h-.3zm2.1-2.9c0-.1.1-.1 0 0h1.3v1.1s0 .1-.1.1h-1.1v-1.2zm-.7 0v-.3h-.2v.6h.8v.4s0 .1-.1.1h-.7v.2h.8v.3h.6l.1.1v.3h.2v-.4h.7v-1.7h-1.7v.3zm-.7 1.3v-.2h-.4v.4h.4zm.3-.8v-.2H61v.3h.4z"/><path fill="#e0e3e5" d="M54.7 42.5h-3.9c-.8 0-1.4-.7-1.4-1.5v-5.8c0-.8.6-1.5 1.4-1.5h.6c.2 0 .3-.1.4-.3l.2-.7h1.7l.2.7c0 .2.2.3.4.3h.4c.8 0 1.4.7 1.4 1.5V41c0 .8-.6 1.5-1.4 1.5m8.4-26h-2.8c-.2 0-.4-.2-.4-.4V13c0-.2.2-.4.4-.4h2.8c.2 0 .4.2.4.4v3.1c0 .2-.2.4-.4.4"/><path fill="#383b3d" d="M61.7 17.4c.1 0 .3.1.3.3v3.4c0 .1-.1.3-.3.3-.1 0-.3-.1-.3-.3v-3.4q.15-.3.3-.3m2.8 6.3c.1 0 .3.1.3.3v3.4c0 .1-.1.3-.3.3-.1 0-.3-.1-.3-.3V24q.15-.3.3-.3m-6.8 1.2c.1 0 .3.1.3.3v1.4c0 .1-.1.3-.3.3-.1 0-.3-.1-.3-.3v-1.4q0-.3.3-.3m8 4.1c.1 0 .3.1.3.3v1.4c0 .1-.1.3-.3.3-.1 0-.3-.1-.3-.3v-1.4q.15-.3.3-.3m-7.3-2c.1 0 .3.1.3.3v3.4c0 .1-.1.3-.3.3-.1 0-.3-.1-.3-.3v-3.4q0-.3.3-.3m3.7 2c.1 0 .3.1.3.3v1.4c0 .1-.1.3-.3.3-.1 0-.3-.1-.3-.3v-1.4q.15-.3.3-.3"/><path fill="#383b3d" d="M57.5 26.4c.1-.1.3-.1.4 0l1.4 1.4c.1.1.1.3 0 .4s-.3.1-.4 0l-1.4-1.4c-.1-.2-.1-.3 0-.4m8.1 1c.1-.1.3-.1.4 0l3 3c.1.1.1.3 0 .4s-.3.1-.4 0l-3-3c-.1-.1-.1-.3 0-.4m-11.7-.3c.1 0 .3.1.3.3V29c0 .1-.1.3-.3.3-.1 0-.3-.1-.3-.3v-1.6q.15-.3.3-.3m8.2.4c.1 0 .3.1.3.3v1.4c0 .1-.1.3-.3.3-.1 0-.3-.1-.3-.3v-1.4q.15-.3.3-.3m-6.2-2.3c0-.1.1-.3.3-.3h3.4c.1 0 .3.1.3.3 0 .1-.1.3-.3.3h-3.4q-.3-.15-.3-.3"/><path fill="#383b3d" d="M61.9 27.6c0-.1.1-.3.3-.3h3.5c.1 0 .3.1.3.3 0 .1-.1.3-.3.3h-3.6c-.1 0-.2-.2-.2-.3m.1-6.8c.1.1.1.3 0 .4l-4 4c-.1.1-.3.1-.4 0s-.1-.3 0-.4l4-4c.1-.1.3-.1.4 0M56.2 25c.1.1.1.3 0 .4l-2.1 2.1c-.1.1-.3.1-.4 0s-.1-.3 0-.4l2.1-2.1c.2-.1.3-.1.4 0m6.2 4c.1.1.1.3 0 .4L61 30.8c-.1.1-.3.1-.4 0s-.1-.3 0-.4L62 29c.1-.1.3-.1.4 0"/><path fill="#383b3d" d="M61.6 20.8c.1-.1.3-.1.4 0l5.2 5.1c.1.1.1.3 0 .4s-.3.1-.4 0l-5.2-5.1c-.1-.1-.1-.3 0-.4"/><path fill="#383b3d" d="M61.6 20.8c.1-.1.3-.1.4 0l5.2 5.1c.1.1.1.3 0 .4s-.3.1-.4 0l-5.2-5.1c-.1-.1-.1-.3 0-.4"/><path fill="#383b3d" d="M61.6 20.8c.1-.1.3-.1.4 0l5.2 5.1c.1.1.1.3 0 .4s-.3.1-.4 0l-5.2-5.1c-.1-.1-.1-.3 0-.4"/><path fill="#383b3d" d="M61.6 20.8c.1-.1.3-.1.4 0l5.2 5.1c.1.1.1.3 0 .4s-.3.1-.4 0l-5.2-5.1c-.1-.1-.1-.3 0-.4"/><path fill="#383b3d" d="M61.6 20.8c.1-.1.3-.1.4 0l5.2 5.1c.1.1.1.3 0 .4s-.3.1-.4 0l-5.2-5.1c-.1-.1-.1-.3 0-.4"/><path fill="#383b3d" d="M61.6 20.8c.1-.1.3-.1.4 0l5.2 5.1c.1.1.1.3 0 .4s-.3.1-.4 0l-5.2-5.1c-.1-.1-.1-.3 0-.4"/><path fill="#383b3d" d="M61.6 20.8c.1-.1.3-.1.4 0l5.2 5.1c.1.1.1.3 0 .4s-.3.1-.4 0l-5.2-5.1c-.1-.1-.1-.3 0-.4"/><path fill="#383b3d" d="M61.6 20.8c.1-.1.3-.1.4 0l5.2 5.1c.1.1.1.3 0 .4s-.3.1-.4 0l-5.2-5.1c-.1-.1-.1-.3 0-.4"/><path fill="#a3abb2" d="M60.5 43.8h4.9v1.5h-4.9z"/><path fill="#d1d4d9" d="M67.6 44.1h7v1.3h-7z"/><path fill="#c2c7cc" d="M58.7 45.6c-.6 0-1-.5-1-1s.5-1 1-1c.6 0 1 .5 1 1s-.5 1-1 1"/><path fill="none" stroke="#a3abb2" stroke-miterlimit="10" stroke-width=".25" d="M52.3 64.4c-1.4 0-2.5-1.1-2.5-2.5s1.1-2.5 2.5-2.5 2.5 1.1 2.5 2.5c.1 1.4-1.1 2.5-2.5 2.5z"/><path fill="#c4def5" d="M73.3 69.5H50c-.6 0-1.1-.5-1.1-1.1V65h25.4v3.4c0 .6-.4 1.1-1 1.1M48.9 56.3h6.5v.2h-6.5zm7.2 0h18.2v.2H56.1z"/><path fill="#c2c7cc" d="M62.9 56.7h11.4v1.6H62.9zm4.7 1.8h6.7v.3h-6.7zm1.2.6h5.5v.3h-5.5z"/><path fill="#2e3033" d="M38.6 71.1H15.4c-1.5 0-2.6-1.2-2.6-2.6V13c0-1.5 1.2-2.6 2.6-2.6h23.2c1.5 0 2.6 1.2 2.6 2.6v55.4c0 1.5-1.2 2.7-2.6 2.7"/><path fill="none" stroke="#595e61" stroke-miterlimit="10" stroke-width=".75" d="M38.6 71.1H15.4c-1.5 0-2.6-1.2-2.6-2.6V13c0-1.5 1.2-2.6 2.6-2.6h23.2c1.5 0 2.6 1.2 2.6 2.6v55.4c0 1.5-1.2 2.7-2.6 2.7z"/><path fill="#f0f2f2" d="M38.6 70.9H15.4c-1.3 0-2.4-1.1-2.4-2.4V35.1c0-1.3 1.1-2.4 2.4-2.4h23.3c1.3 0 2.4 1.1 2.4 2.4v33.4c-.1 1.3-1.2 2.4-2.5 2.4"/><path fill="#242629" d="M28.2 40.5h.3v.3h-.3zm-.7-1v-.2h-.4v.4h.4zm.7-1.6h.3v.3h-.3z"/><g fill="#242629"><path d="m29 40 .1 1.2s0 .1-.1.1h-1.1s-.1 0-.1-.1V40s0-.1.1-.1H29zm0-.5v.2s0 .1-.1.1h-1.4v.7s0 .1-.1.1h-.3v.2h.3s.1 0 .1.1v.7h1.7v-2.1H29q0-.15 0 0m-3.6-2.1v-.2H25v.4h.4z"/><path d="M26.5 40s.1 0 0 0l.1 1.1s0 .1-.1.1h-1.1v-1.1s0-.1.1-.1zm-.7-2.7v.5s0 .1-.1.1H25v.9h.4v.7h-.3v1.7h2.1V41h-.4v-1.4h-.3s-.1 0-.1-.1v-.3h-.2v.3s0 .1-.1.1h-.4s-.1 0-.1-.1V38h.5v-.6h.4v-.2h-.6z"/></g><path fill="#242629" d="M25.7 40.5h.3v.3h-.3zm2.2-3h1.3v1.1s0 .1-.1.1H28v-1.2zm-.8 0v-.3h-.2v.6h.8v.4s0 .1-.1.1h-.7v.2h.8v.3h.8v.3h.2v-.2h.7v-1.7h-1.7v.3zc0 .1 0 0 0 0m-.7 1.3v-.2H26v.4h.4zm.3-.8v-.2h-.4v.3h.4z"/><path fill="#e0e3e5" d="M20.1 42.5h-3.9c-.8 0-1.4-.7-1.4-1.5v-5.8c0-.8.6-1.5 1.4-1.5h.6c.2 0 .3-.1.4-.3l.2-.7h1.7l.2.7c0 .2.2.3.4.3h.4c.8 0 1.4.7 1.4 1.5V41c-.1.9-.7 1.5-1.4 1.5m8.3-25.9h-2.8c-.2 0-.4-.2-.4-.4v-3.1c0-.2.2-.4.4-.4h2.8c.2 0 .4.2.4.4v3.1c0 .2-.1.4-.4.4"/><path fill="#383b3d" d="M27.1 17.4c.1 0 .3.1.3.3v3.4c0 .1-.1.3-.3.3-.1 0-.3-.1-.3-.3v-3.4q0-.3.3-.3m2.7 6.3c.1 0 .3.1.3.3v3.4c0 .1-.1.3-.3.3-.1 0-.3-.1-.3-.3V24q.15-.3.3-.3M23 25c.1 0 .3.1.3.3v1.4c0 .1-.1.3-.3.3-.1 0-.3-.1-.3-.3v-1.4c0-.2.2-.3.3-.3m8 4.1c.1 0 .3.1.3.3v1.4c0 .1-.1.3-.3.3-.1 0-.3-.1-.3-.3v-1.4q.15-.3.3-.3M23.7 27c.1 0 .3.1.3.3v3.4c0 .1-.1.3-.3.3-.1 0-.3-.1-.3-.3v-3.4q0-.3.3-.3m3.7 2.1c.1 0 .3.1.3.3v1.4c0 .1-.1.3-.3.3-.1 0-.3-.1-.3-.3v-1.4q.15-.3.3-.3"/><path fill="#383b3d" d="M22.8 26.4c.1-.1.3-.1.4 0l1.4 1.4c.1.1.1.3 0 .4s-.3.1-.4 0l-1.4-1.4c-.1-.1-.1-.3 0-.4m8.1 1.1c.1-.1.3-.1.4 0l3 3c.1.1.1.3 0 .4s-.3.1-.4 0l-3-3c-.1-.2-.1-.3 0-.4m-11.7-.3c.1 0 .3.1.3.3v1.6c0 .1-.1.3-.3.3-.1 0-.3-.1-.3-.3v-1.6q.15-.3.3-.3m8.2.3c.1 0 .3.1.3.3v1.4c0 .1-.1.3-.3.3-.1 0-.3-.1-.3-.3v-1.4q.15-.3.3-.3m-6.2-2.3c0-.1.1-.3.3-.3h3.4c.1 0 .3.1.3.3 0 .1-.1.3-.3.3h-3.4q-.3 0-.3-.3"/><path fill="#383b3d" d="M27.2 27.7c0-.1.1-.3.3-.3H31c.1 0 .3.1.3.3 0 .1-.1.3-.3.3h-3.5q-.3-.15-.3-.3m.1-6.8c.1.1.1.3 0 .4l-4 4c-.1.1-.3.1-.4 0s-.1-.3 0-.4l4-4c.1-.1.3-.1.4 0m-5.8 4.2c.1.1.1.3 0 .4l-2.1 2.1c-.1.1-.3.1-.4 0s-.1-.3 0-.4l2.1-2.1c.2-.1.3-.1.4 0m6.2 3.9c.1.1.1.3 0 .4l-1.4 1.4c-.1.1-.3.1-.4 0s-.1-.3 0-.4l1.4-1.4c.1-.1.3-.1.4 0"/><path fill="#383b3d" d="M26.9 20.9c.1-.1.3-.1.4 0l5.2 5.1c.1.1.1.3 0 .4s-.3.1-.4 0l-5.2-5.1c-.1-.1-.1-.3 0-.4"/><path fill="#383b3d" d="M26.9 20.9c.1-.1.3-.1.4 0l5.2 5.1c.1.1.1.3 0 .4s-.3.1-.4 0l-5.2-5.1c-.1-.1-.1-.3 0-.4"/><path fill="#383b3d" d="M26.9 20.9c.1-.1.3-.1.4 0l5.2 5.1c.1.1.1.3 0 .4s-.3.1-.4 0l-5.2-5.1c-.1-.1-.1-.3 0-.4"/><path fill="#383b3d" d="M26.9 20.9c.1-.1.3-.1.4 0l5.2 5.1c.1.1.1.3 0 .4s-.3.1-.4 0l-5.2-5.1c-.1-.1-.1-.3 0-.4"/><path fill="#383b3d" d="M26.9 20.9c.1-.1.3-.1.4 0l5.2 5.1c.1.1.1.3 0 .4s-.3.1-.4 0l-5.2-5.1c-.1-.1-.1-.3 0-.4"/><path fill="#383b3d" d="M26.9 20.9c.1-.1.3-.1.4 0l5.2 5.1c.1.1.1.3 0 .4s-.3.1-.4 0l-5.2-5.1c-.1-.1-.1-.3 0-.4"/><path fill="#383b3d" d="M26.9 20.9c.1-.1.3-.1.4 0l5.2 5.1c.1.1.1.3 0 .4s-.3.1-.4 0l-5.2-5.1c-.1-.1-.1-.3 0-.4"/><path fill="#383b3d" d="M26.9 20.9c.1-.1.3-.1.4 0l5.2 5.1c.1.1.1.3 0 .4s-.3.1-.4 0l-5.2-5.1c-.1-.1-.1-.3 0-.4"/><path fill="#a3abb2" d="M25.8 43.9h4.9v1.5h-4.9z"/><path fill="#d1d4d9" d="M32.9 44.1h7v1.3h-7z"/><path fill="#c2c7cc" d="M24 45.6c-.6 0-1-.5-1-1 0-.6.5-1 1-1s1 .5 1 1c0 .6-.5 1-1 1"/><path fill="none" stroke="#a3abb2" stroke-miterlimit="10" stroke-width=".25" d="M17.7 64.4c-1.4 0-2.5-1.1-2.5-2.5s1.1-2.5 2.5-2.5 2.5 1.1 2.5 2.5-1.2 2.5-2.5 2.5z"/><path fill="#055996" d="M38.6 69.6H15.3c-.6 0-1.1-.5-1.1-1.1v-3.4h25.4v3.4c0 .6-.4 1.1-1 1.1M14.2 56.4h6.5v.2h-6.5zm7.2 0h18.2v.2H21.4z"/><path fill="#c2c7cc" d="M28.2 56.8h11.4v1.6H28.2zm4.7 1.8h6.7v.3h-6.7zm1.2.5h5.5v.3h-5.5z"/></g></switch></svg>