<svg xmlns="http://www.w3.org/2000/svg" viewBox="0 0 346.9 158.5"><switch><g><path fill="#e0e2e5" d="M271.5 126H85.7l67.4 14.5h185.8c-17.5-8.7-39.4-13.9-67.4-14.5"/><path fill="#c2c7cd" d="M297.7 101H111.9c-7.7 12.1-17.6 18.6-29 21.5h185.8c11.9-1.6 21.5-8.8 29-21.5"/><path fill="#4f5256" d="M340.1 0H170.4c-5.4 0-9.3 3-12.1 7.9L111.9 101h185.8l46-92.2c2.7-5.4 2.3-8.8-3.6-8.8"/><path fill="#b2b9c1" d="M82 122.6c-28.5-.2-50 3.5-79 12.7h-.1c-3.8 1.3-3.8 1.9-.1 1.8h175c4.1-.1 7.8-.5 11-1.6h.1c29.5-9.3 51.1-13.1 79.9-13z"/><path fill="#979ea4" d="M175.8 140.5H3.3c-1.8 0-2.9-.1-3-.4l-.3-3.4c.1.3 1.1.4 2.8.4h175c4.2-.1 7.9-.6 11.1-1.6 29.5-9.4 51.1-13.2 79.9-13 25.1.2 48.9 4.9 71.4 14.5l-1.2 3.4c-22.4-9.6-45.7-14.3-70.2-14.5-24.1-.2-49.4 4-76.2 12l-3 .9c-3.2 1-6.9 1.5-11.1 1.6z"/><path fill="#979ea4" d="M268.7 122.6c12-2 21.6-9.1 29-21.5l46-92.2c1.7-3.4 2.1-5.8 1-7.3l1.7 2.3c1 1.3.6 3.9-1.1 7.6L300.8 102c-7.5 14.6-18.4 21.7-31.4 24z"/><ellipse cx="180.7" cy="132.6" fill="#eff1f2" rx="5.6" ry="1.4" transform="rotate(-7.146 180.735 132.595)"/><path fill="#d0d4d8" d="m192.9 127.1-151.6.1c-1.4 0-1.3-.2-.2-.6h.1c11.2-3.2 25.1-5.2 43.2-5.3l154.6-.1z"/><path fill="#eff1f2" d="M193.1 129H40.7c-.6 0-.9-.1-.9-.1l.5-1.8c.1.1.3.1.7.1l150.2-.1c.6 0 1.2 0 1.8-.1z"/><path fill="#e0e2e5" d="m238.9 121.3.8 1.2c-17.8.4-32.9 3-46.6 6.6l-.2-2c.5-.1.8-.1 1.4-.3h.1c11.8-3.5 25.9-5.5 44.5-5.5"/><path fill="#b2b9c1" d="M56.3 124.2c-.1.6.4 1.1 1 1.2 26 1.5 77.1.9 135.7 0h.1c1 0 1.9-.1 2.7-.4.1 0 .2-.1.3-.1 4.5-1.4 7.9-1.9 13.7-2.5 1-.1 1.1-.2.2-.2H83.1c-.5 0-1-.4-1-.9-.5-3.8-2.3-9.7-5.6-10.7-4-1.2-10.8-1.2-14.9 1-3.2 1.7-4.9 8.8-5.3 12.6"/><path fill="#e0e2e5" d="M46.5 125.3h10.8c-.6-.1-1-.6-1-1 2.1-11.5 3.8-14.3 14.7-14.5-1.6-.1-3.3 0-5.3.1-8.3.7-12.9 5.5-19.2 15.4"/><path fill="#43464a" d="M275.7 92.6h-137l42-83.4h137z"/><path fill="#c2c7cd" d="M201.3 155.1h-183c-5.7-2.6-11.6-7.5-17.5-14.6h182.6c5.9 7 10.2 10 17.9 14.6"/><path fill="#e0e2e5" d="M325 155.1H194.7c-4.4-2.6-9.7-7.3-14.3-14.6h158.5c-2.8 5.5-6.7 10.6-13.9 14.6"/><path fill="#8a9097" d="M193.1 155.1h12v3.4h-12zm117 0h12v3.4h-12zm-288.2 0h12v3.4h-12zm117 0h12v3.4h-12z"/><path fill="#e0e2e5" d="M195.3 124.7s-18.5-1.6-43.1-2c-18.4-.3-31.3 5.8-49.5 5.8-12.8 0-37.9 1.1-41.8-1.8-.4-.3-.4 0-1-1.6 4.2-.1 21.1-3.4 34.8-4.3 2.8-.2 8.5-.2 12.5-1.1 7.4-1.6 9.8-3.7 25-5.7 30.2-4.1 49.5 2.7 57.1 6.1 0 0 12.9 3 15.3 3.2-.7.8-3.6 1.5-9.3 1.4"/><path fill="#7d8389" d="M59.9 125.2c4.5.2 12.2.3 20.8 0 13.5-.5 27.9-3.9 36.8-5.4 32.8-5.5 73.5 1.4 73.5 1.4-2.7-4-14.5-11.9-16.7-11.9-.6-.6-41.9-5.9-58.8-2.8-19.4 6.3-24.9 11.3-31.1 12.1-11.6 1.5-24.9 2.7-24.9 2.7.2-.1.2 1.6.4 3.9"/><path fill="#eff1f2" d="M61.8 111.1c2-3.6 9.7-5.5 13-6.2 9.7-2 23.6-4 32.7-4.6 12-.8 31.3-.1 50.6 1.7 15 1.5 25 2.4 32.8 5.1 4.5 1.6 8.8 3 12.6 7.3 4.4 4.9 4.1 8.1.8 9.1-5.2 1.6-14.4-.8-19.1-5.5-4.2-4.1-6.2-6.6-8.8-7.7-5-1.2-15.5-2.7-24.5-3.3-14.7-.9-21.1-1.8-31.3-.1-16.5 2.7-18.5 7.7-31 11.2-10 2.8-30 3.3-30 3.3s.6-7.4 2.2-10.3M193.1 129H40.7c-.6 0-.9-.1-.9-.1l.5-1.8c.1.1.3.1.7.1l150.2-.1c.6 0 1.2 0 1.8-.1z"/><path fill="#e0e2e5" d="m238.9 121.3.8 1.2c-17.8.4-32.9 3-46.6 6.6l-.2-2c.5-.1.8-.1 1.4-.3h.1c11.8-3.5 25.9-5.5 44.5-5.5"/><path fill="#d0d4d8" d="M57.3 125.3c26 1.5 77.1.9 135.7 0h.1c1 0 1.9-.1 2.7-.4.1 0 .2-.1.3-.1 4.5-1.4 7.9-1.9 13.7-2.5 1-.1 1.1-.2.2-.2l28.9-.8c-19-.1-34 2.1-46 5.8l-151.6.1c-1.4 0-1.3-.2-.2-.6h.1z"/></g></switch></svg>