<svg xmlns="http://www.w3.org/2000/svg" viewBox="0 0 395.4 280.3"><switch><g><path fill="#656a6f" d="M24.1 280.3c-15.3-.5-20-41.3-22.4-86.7C1.1 180 .5 165.9 0 152.4c0-1.1.9-2.1 2-2.1h391.4c1.1 0 2 .9 2 2.1-.5 13.5-1.1 27.6-1.8 41.3-2.4 45.4-7 86.2-22.4 86.7H24.1z"/><path fill="#43464a" d="M1.8 193.6c-.1-1.4-.2-3.6-.3-5-.1-1.1.9-2.1 2-2.1h388.4c1.1 0 2.1 1 2 2.1-.1 1.7-.2 3.4-.3 5z"/><path fill="#d0d4d8" d="M1.8 193.6c2.4 45.4 7 86.2 22.4 86.7h347.1c15.3-.5 20-41.3 22.4-86.7z"/><path fill="#43464a" d="M231.9 150.3c-1.4 0-2.3-.8-2.3-2.9V130h-63.7v17.4c0 2.1-.9 2.9-2.3 2.9z"/><path fill="#e0e2e5" d="M229.6 130c6.8 0 9.2-13.1 12.3-120.4h-88.4c3.1 107.3 5.6 120.4 12.3 120.4z"/><path fill="#eff1f2" d="M241.2 10.3q-43.5 1.65-87 0c-.4 0-.7-.3-.7-.7 0-.1 1.1-7.2 1.1-7.2.4-.6 1-1 1.8-1 27.5-1.8 55.1-1.8 82.6 0 .7 0 1.4.4 1.8 1 0 0 1.1 7.1 1.1 7.2.1.3-.3.7-.7.7"/><path fill="#4e5256" d="M368.9 186.5c4.7 0 7.7-.7 7.9-2.2l1.6-28.4c0-1.3-2.3-1.9-7-2H24c-4.7 0-7 .7-7 2l1.6 28.4c.2 1.6 3.1 2.2 7.9 2.2z"/><path fill="#43464a" d="m17 155.9 1.6 28.4c.2 1.6 3.1 2.2 7.9 2.2h20c-10.6-3.7-20.7-15.1-29.5-30.6"/><path fill="#595e62" d="m378.4 155.9-1.6 28.4c-.2 1.6-3.1 2.2-7.9 2.2h-20c10.7-3.7 20.7-15.1 29.5-30.6"/><path fill="#047bc0" d="M212.107 147.413h-28.9v-17.4h28.9z"/><path fill="#c2c7cd" d="m185.7 178.5 6.9 6.1h10.3c2.8-1.3 5.2-3.3 7-6.2v-31.1h-24.1v31.2z"/><path fill="#d0d4d8" d="M185.7 178.5c1.5 2.7 3.8 4.8 6.9 6.1h4.1l-1.4-6.2v-31.1h-9.6z"/></g></switch></svg>