<svg xmlns="http://www.w3.org/2000/svg" viewBox="0 0 227.6 211.1"><switch><g><path fill="#71767c" d="M93.967 211.086h-81.6v-135h81.6z"/><path fill="#d0d4d8" d="M166.6 11.4 101.5 72c-1.2-11.6-6.6-16.2-15.2-16.8L150 0c7.9 0 13.5 3.8 16.6 11.4"/><path fill="#e0e2e5" d="M150 0h.4-70.2L16.6 55.2h69.7z"/><path fill="#eff1f2" d="M80.2 0c-3.4 0-6 1-8 2.6L5.3 60.7l8-2.7z"/><path fill="#7d8389" d="M19.7 199.7v-27.9h66.5v33.9H23.7c-2.7-.2-3.8-2.5-4-6"/><path fill="#c2c7cd" d="m101.5 72 65.1-60.6L227.3 160c.5 1.5.3 3.4-.6 4.4l-42.7 45c-1 1.1-2.9 1.7-4.1 1.7H104c-3.9 0-7-5.1-7-11.4l-.1-115.2c0-5.2 1.8-10 4.6-12.5"/><path fill="#8a9097" d="M16.6 55.2h70c8 0 14.4 4.4 14.9 16.8l.1 121.1c0 6.3 3.1 11.4 7 11.4h50.6c4.1.1 7.4-1.3 10-4 8.7-8.7 11.2-10.8 19.9-19.5 2.1-1.8 4.4-2.8 7-2.9.4 0 17.6-.3 18-.3-12.1 12.7-18 18.9-30 31.7-1 1.1-2.3 1.7-3.5 1.7h-77c-3.9 0-7-5.1-7-11.4V76.7c0-13.8-5.6-18.6-13.3-18.6H13.4c-3.9.1-6.3 1.1-8 2.7l2.9-2.5c1.6-1.6 4.2-2.7 8.3-3.1"/><path fill="#43464a" d="M19.7 176.4c0-2.6 1.5-4.6 3.3-4.6h-2.5c-1.8 0-3.3 2.1-3.3 4.6z"/><path fill="#71767c" d="M20.6 171.8h57.6c1.8 0 3.3 2.1 3.3 4.6v-94c0-2.6-1.5-4.6-3.3-4.6H20.6c-1.8 0-3.3 2.1-3.3 4.6v94.1c0-2.6 1.4-4.7 3.3-4.7"/><path fill="#43464a" d="M25.8 77.7H69"/><path fill="#595f63" d="M80.3 199.7c0 5.3 2.8 11.4 7 11.4h16.2c-4.2 0-6.9-6.1-7-11.4-.3-41.1.1-82.2 0-123.1 0-15-6-18.6-13.3-18.6H13.3c-3.4 0-6.1 1-8 2.7-3.7 3.2-5.1 9-5.1 16.2v122.8c0 5.3 2.8 11.4 7 11.4h16.2c-4.2 0-7-6.1-7-11.4l-.1-117.3c0-2.6 1.5-4.6 3.3-4.6h57.3c1.8 0 3.3 2.1 3.3 4.6z"/></g></switch></svg>