<svg xmlns="http://www.w3.org/2000/svg" xml:space="preserve" viewBox="0 0 779.7 352"><switch><g><path fill="#b2b9c0" d="M473.5 342.3H79.1q-10.65-.15-15.3-21.3L1.2 21.3C-1.6 8.9.2 1.5 8.7 1.4H402c7 0 11.8 7 14.5 20.5L479.1 321c3.2 14.4 1 21.2-5.6 21.3"/><path fill="#232628" d="M475.9 340.9H81.6q-10.65-.15-15.3-21.3L3.7 19.9C.9 7.5 2.7.1 11.1 0h393.3c7 0 11.8 7 14.5 20.5l62.5 299.1c3.3 14.5 1.2 21.2-5.5 21.3"/><path fill="#eff1f2" d="M473.7 338H84c-4.3 0-8.9-5.1-10.2-11.4L6.4 14.4C5 8.1 7.4 3 11.7 3h391.4c4.3 0 8.9 5.1 10.2 11.4l65.8 312.2c1.3 6.3-1.1 11.4-5.4 11.4"/><path fill="#d0d4d8" d="M381.5 335.5H181.2c-.9 0-1.9-1.1-2.2-2.4l-3.2-15.1c-.3-1.3.2-2.4 1.1-2.4h200.3c.9 0 1.9 1.1 2.2 2.4l3.2 15.1c.3 1.3-.2 2.4-1.1 2.4"/><path fill="#fff" d="M471.2 299.7H69.9L12.1 32.3h402.8z"/><path fill="#56b0ff" d="M121.6 101.9H62.3l-2-9h59.3z" opacity=".3"/><path fill="#a4abb3" d="M160.4 101.9h-24l-1.9-9h24z" opacity=".3"/><path fill="#c1c7cc" d="M209.1 172H82.7l-2.6-12h126.4z" opacity=".3"/><path fill="#d0d4d8" d="M432.7 116.9H30.4l.2.7h402.3zm5.3 25.2H35.9l.1.7h402.2z" opacity=".3"/><path fill="#0096e8" d="M126.9 119H67.2l-.5-2.4h59.7z" opacity=".3"/><path fill="#e0e2e5" d="M378.2 67.3h-50.3L325 53.4h50.3z"/><path fill="#56b0ff" d="M329.8 68.6h-11L314 46.2h11z"/><path fill="#007bc0" d="M164.9 214H91.7l-5.3-24.8h73.2z" opacity=".3"/><path fill="#eff1f2" d="M215.7 299.7h-49l-14.5-67.3h49.1zm119.2 0h-62.8l-14.3-67.3h62.8zm91.9 0h-57.5l-14.2-67.2h57.5z" opacity=".3"/><path fill="#d0d4d8" d="M412.5 232.4H95.7l.1.7h316.9zm6.1 28.6H101.8l.2.8h316.8zm6.3 30H108.3l.2.8h316.6z" opacity=".3"/><g fill="#e31517" fill-rule="evenodd" clip-rule="evenodd"><path d="M81.8 55.7c.7-.5 1-1.7.7-3-.6-2.7-2.2-4.1-4-4.1h-4.8l3.2 14.8h5.2c1.6 0 2.8-1.6 2.3-4.1-.7-3-2.6-3.6-2.6-3.6m-4.9-4h1.8c.5 0 1 .5 1.2 1.2v.2c.2.8-.1 1.4-.7 1.4h-1.9zm3.7 8.6h-1.8l-.6-2.9H80c.9 0 1.5.6 1.6 1.4.2 1.1-.3 1.5-1 1.5M87.4 48.2c-2.9 0-3.9 3.4-3 7.8s3.4 7.8 6.3 7.8 3.9-3.4 3-7.8-3.3-7.8-6.3-7.8m2.6 12c-1.4 0-2.6-1.9-3.1-4.2s-.2-4.2 1.2-4.2 2.6 1.9 3.1 4.2c.6 2.3.2 4.2-1.2 4.2M98.8 54.4l-.4-.1c-.9-.3-1.7-.6-1.9-1.5-.2-1 .4-1.4.9-1.4.8 0 1.6.5 2.4 1.4l1.1-2.3c-1-1.2-2.4-2.3-4.2-2.3-2.1 0-3.4 1.7-2.8 4.7.6 2.7 2.2 4 3.9 4.4l.4.1c1.4.4 2 .7 2.2 1.6s-.2 1.5-1.1 1.5c-1 0-2-.6-3-1.9l-1.1 2.3c1.2 1.6 2.6 2.8 4.8 2.8 1.9 0 3.6-1.6 2.9-4.8-.7-3.4-2.5-4-4.1-4.5M108.9 60.2c-1.1 0-2.6-1.4-3.2-4.3-.6-2.6.2-4.1 1.3-4.1.9 0 1.5.6 2.2 1.7l1.6-2c-1.5-2.3-2.9-3.2-4.6-3.2-3.1 0-4 3.5-3.1 7.7.9 4.4 3.5 7.8 6.4 7.8 2 0 2.7-1 3.3-3.2l-2.5-2c-.2.9-.5 1.6-1.4 1.6M117 48.6l1.2 5.4h-3.1l-1.2-5.4h-2.6l3.1 14.8h2.7l-1.3-5.8h3.1l1.3 5.8h2.6l-3.2-14.8z"/></g><path d="M57.6 44.8c-4.2 0-6.6 5-5.2 11.2 1.3 6.2 5.9 11.2 10.1 11.2s6.6-5 5.2-11.2-5.8-11.2-10.1-11.2m4.6 21.4c-3.8 0-7.9-4.6-9.1-10.2s.9-10.2 4.8-10.2S65.8 50.4 67 56c1.2 5.7-.9 10.2-4.8 10.2"/><path d="M61.7 49h-.5l.8 3.8h-5.3l-.8-3.8h-.5c-2.1 2.6-1.7 7.8.9 11.6.6.9 1.4 1.8 2.1 2.4h.5l-.8-3.8h5.3l.8 3.8h.5c2.1-2.6 1.7-7.8-.9-11.6q-.9-1.35-2.1-2.4m-3.8 12.6c-2.7-2.7-3.8-7.3-2.7-10.4l.3-.6zm5.2-3.4h-5.3l-.8-4.3h5.3zm1.5 3.3-.5-2.3-1.4-6.3-.5-2.3C64.9 53.3 66 58 64.8 61c0 .2-.1.3-.2.5"/><linearGradient id="a" x1="110.637" x2="109.922" y1="34.824" y2="34.824" gradientUnits="userSpaceOnUse"><stop offset="0" stop-color="#88357f"/><stop offset=".335" stop-color="#88357f"/><stop offset=".714" stop-color="#8c2b58"/><stop offset="1" stop-color="#8f2540"/><stop offset="1" stop-color="#8f2540"/></linearGradient><path fill="url(#a)" d="m110.6 35.7-.6-1.8-.1 1.8z"/><linearGradient id="b" x1="193.35" x2="192.368" y1="29.357" y2="35.494" gradientUnits="userSpaceOnUse"><stop offset="0" stop-color="#312a6f"/><stop offset=".243" stop-color="#312a6f"/><stop offset=".452" stop-color="#2c2e73"/><stop offset=".697" stop-color="#1d377f"/><stop offset=".961" stop-color="#064692"/><stop offset="1" stop-color="#024995"/></linearGradient><path fill="url(#b)" d="M211.6 32.3h-38.7l.2 1.6.6 1.8h38.6z"/><linearGradient id="c" x1="109.899" x2="153.886" y1="33.996" y2="33.996" gradientUnits="userSpaceOnUse"><stop offset="0" stop-color="#6e368c"/><stop offset="1" stop-color="#3a4190"/></linearGradient><path fill="url(#c)" d="m109.9 32.3.1 1.6.6 1.8h43.3v-1.8l-.7-1.6z"/><linearGradient id="d" x1="173.659" x2="153.201" y1="33.996" y2="33.996" gradientUnits="userSpaceOnUse"><stop offset="0" stop-color="#14387f"/><stop offset=".215" stop-color="#183880"/><stop offset=".469" stop-color="#273881"/><stop offset=".743" stop-color="#3f3983"/><stop offset="1" stop-color="#5c3986"/></linearGradient><path fill="url(#d)" d="m153.2 32.3.7 1.6v1.8h19.8l-.6-1.8-.2-1.6z"/><path fill="#af1917" d="m61.5 32.3 1 1.6-.3 1.8H66l-.5-1.8-.2-1.6z"/><linearGradient id="e" x1="110.008" x2="109.19" y1="33.097" y2="33.097" gradientUnits="userSpaceOnUse"><stop offset="0" stop-color="#88357f"/><stop offset=".335" stop-color="#88357f"/><stop offset=".714" stop-color="#8c2b58"/><stop offset="1" stop-color="#8f2540"/><stop offset="1" stop-color="#8f2540"/></linearGradient><path fill="url(#e)" d="m109.2 32.3.8 1.6-.1-1.6z"/><path fill="#b12638" d="m62.5 33.9-1-1.6H43.1l.8 3.4h18.3z"/><path fill="#942331" d="m12.1 32.3.8 3.4h31l-.8-3.4z"/><path fill="#d51317" d="m65.3 32.3.2 1.6.5 1.8h43.9l.1-1.8-.8-1.6z"/><linearGradient id="f" x1="367.152" x2="367.152" y1="32.269" y2="35.724" gradientUnits="userSpaceOnUse"><stop offset="0" stop-color="#94bd55"/><stop offset=".297" stop-color="#8cbc65"/><stop offset=".671" stop-color="#85bb73"/><stop offset="1" stop-color="#83bb78"/></linearGradient><path fill="url(#f)" d="M382.6 35.7s0-.1-.1-.2c-.4-1.1-.8-2.1-1.2-3.2v-.1h-29.5v.1c.4 1.1.9 2.2 1.3 3.4z"/><linearGradient id="g" x1="334.221" x2="337.279" y1="28.038" y2="39.613" gradientUnits="userSpaceOnUse"><stop offset="0" stop-color="#00a24c"/><stop offset=".265" stop-color="#00a052"/><stop offset=".639" stop-color="#009a65"/><stop offset="1" stop-color="#00937d"/></linearGradient><path fill="url(#g)" d="M319.1 32.3c.1 1.2.2 2.3.3 3.4h33.7s0-.1-.1-.2c-.4-1.1-.8-2.1-1.2-3.2l-.1-.1h-32.6z"/><linearGradient id="h" x1="399.558" x2="399.558" y1="32.269" y2="35.724" gradientUnits="userSpaceOnUse"><stop offset="0" stop-color="#699f60"/><stop offset=".003" stop-color="#689e60"/><stop offset=".15" stop-color="#4d9652"/><stop offset=".308" stop-color="#389047"/><stop offset=".485" stop-color="#298c3f"/><stop offset=".691" stop-color="#20893b"/><stop offset="1" stop-color="#1d893a"/></linearGradient><path fill="url(#h)" d="M383.5 32.3c0 1.2.1 2.3.1 3.4v.1h32v-.1l-.7-3.3v-.1z"/><linearGradient id="i" x1="309.748" x2="309.748" y1="32.269" y2="35.724" gradientUnits="userSpaceOnUse"><stop offset="0" stop-color="#00b5dd"/><stop offset=".277" stop-color="#00afd6"/><stop offset=".675" stop-color="#009ec3"/><stop offset="1" stop-color="#008bae"/></linearGradient><path fill="url(#i)" d="M323.3 35.7v-.2l-.3-3v-.2h-26.8v.1c.3 1.1.7 2.1 1 3.2 0 .1.1.2.1.2z"/><path fill="#283587" d="m211.6 32.3.7 3.4h9.7l-.2-1.8-.5-1.6z"/><linearGradient id="j" x1="381.853" x2="382.937" y1="34.958" y2="33.023" gradientUnits="userSpaceOnUse"><stop offset="0" stop-color="#62b16e"/><stop offset="1" stop-color="#86b857"/></linearGradient><path fill="url(#j)" d="M381.2 32.3c.5 1.2.9 2.3 1.3 3.4v.1h1v-.1c0-1.1-.1-2.2-.1-3.4z"/><linearGradient id="k" x1="278.425" x2="281.577" y1="28.159" y2="39.924" gradientUnits="userSpaceOnUse"><stop offset="0" stop-color="#009ad2"/><stop offset=".224" stop-color="#0f9ecf"/><stop offset=".653" stop-color="#37a7c7"/><stop offset="1" stop-color="#5bb0c0"/></linearGradient><path fill="url(#k)" d="M263.1 32.3c.2 1.1.4 2.3.6 3.4v.1h33.6v-.1c-.3-1.1-.7-2.1-1-3.2v-.1z"/><linearGradient id="l" x1="232.532" x2="232.532" y1="32.269" y2="35.724" gradientUnits="userSpaceOnUse"><stop offset="0" stop-color="#174290"/><stop offset=".394" stop-color="#20559e"/><stop offset="1" stop-color="#327ab9"/></linearGradient><path fill="url(#l)" d="m221.3 32.3.5 1.6.2 1.8h21.8l-.7-3.4z"/><linearGradient id="m" x1="253.351" x2="253.351" y1="35.724" y2="32.269" gradientUnits="userSpaceOnUse"><stop offset="0" stop-color="#3e9ac9"/><stop offset="1" stop-color="#1d61a1"/></linearGradient><path fill="url(#m)" d="M263.7 35.7s-.1 0 0 0c-.2-1.2-.4-2.3-.6-3.4h-20l.7 3.3v.1z"/><path fill="#e0e2e5" d="M76.4 334.2h287.3v12.2H76.4z"/><path fill="#c1c7cc" d="M363.8 334.2h415.9v12.2H363.8z"/><path fill="#979ea4" d="M372.1 352H121c-15.2-1-30.1-2.9-44.5-5.7h287.3z"/><path fill="#7d8389" d="M779.7 346.3c-14.5 3.7-29.1 5.6-43.9 5.7H372.1c-3.9-1.5-6.7-3.4-8.3-5.7z"/></g></switch></svg>