<svg xmlns="http://www.w3.org/2000/svg" viewBox="0 0 227.8 211"><switch><g><path fill="#d0d4d8" d="M222.7 69.9v129.7c0 6.3-3.1 11.4-7 11.4h-78.3c-1.2 0-2.4-.6-3.4-1.7l-42.9-46.1 63.5-152.5z"/><path fill="#8a9097" d="M104.6 177.7c6 6.2 17.7 19 29.4 31.6 1 1 2.1 1.7 3.4 1.7h-9.8c-1.2 0-2.4-.6-3.4-1.7l-29.3-31.6z"/><path fill="#979ea4" d="M227.8 199.6c0 6.3-3.1 11.4-7 11.4h-83.4c-1.2 0-2.5-.6-3.5-1.7-12.1-12.7-17.3-18.9-29.4-31.6.4 0 24.4.3 24.9.3 2.6.1 4.9 1.1 7 2.9 8.7 8.7 11.2 10.8 19.9 19.5 2.6 2.7 5.8 4.1 10 4h49.5c3.9 0 7-5.1 7-11.4l.1-121.1c0-.7 0-1.4-.1-2-.3-6.2-1.9-10.7-5.2-13.6l5.2 4.3c3.7 3.2 5.1 9 5.1 16.2z"/><path fill="#e0e2e5" d="M154.2 1.4c2 1.7 2 4.9.4 9.3l68.1 59.2c-.3-6.2-1.9-10.7-5.2-13.6z"/><path fill="#7d8389" d="m94.9 177.7 29.3 31.6c1.1 1.1 2.2 1.7 3.4 1.7H45.8c-1.3 0-2.5-.6-3.6-1.7L13 177.7"/><path fill="#b2b9c1" d="m13 177.7-12.1-13c.8.9 2 1.3 3.6 1.3H84l10.8 11.7"/><path fill="#c2c7cd" d="M104.6 177.7h-9.7L84 166c3-.1 5.3-1.1 7.1-2.8"/><path fill="#2f3134" d="M84 166H4.5c-4.7-.2-5-3.2-3.5-7.5L61.8 10.3C64.7 4.2 69.3.1 77.1 0h72.6c2 .1 3.5.5 4.5 1.4 2 1.7 2 4.9.4 9.3L93.9 159c-1.9 4.3-5 6.9-9.9 7"/><path fill="#101112" d="M82 164.2H4.3c-4.7-.2-5-2.2-3.4-6.4L61 11C63.9 4.9 68.4.9 76.1.8H147c6.1.2 7.2 4.1 4.9 10.6L91.7 158.2c-1.8 4.3-4.9 5.9-9.7 6"/><path fill="#383b3e" d="m63.4 166.9 6.8 7.3c1.2 1.7.3 2.4-2.4 2.5H35c-2.3-.1-4.3-.8-5.8-2.4l-6.9-7.4z"/><path fill="#2f3134" d="M87.8 107.3H45.3c-.8 0-1.1-.6-.7-1.8l4.1-10.4c.4-.9 1.2-1.4 2.1-1.5h42.6c.8 0 1 .6.7 1.5l-4.3 10.7c-.3.9-1 1.4-2 1.5"/><path fill="#232628" d="m144.1 14.8-23.3 56.6h-80l23.3-56.6z"/><ellipse cx="54.6" cy="125.7" fill="#232628" stroke="#047bc0" stroke-miterlimit="10" rx="3.3" ry="2.6" transform="rotate(-44.639 54.648 125.666)"/></g></switch></svg>