<svg xmlns="http://www.w3.org/2000/svg" viewBox="0 0 219.4 39.5"><switch><g><path fill="#d0d4d8" d="M204.2 33s-19.7-2.1-52.5-2.7c-24.7-.4-37 6.8-64.1 8.7-17.1 1.2-49.5.3-55-3.1-1-.6-3.3-4.4-3.5-6.9 5.6-.1 25.5.2 43.9-1 3.8-.2 12-1.6 17.5-2.8 9.9-2.2 14.1-2.3 34.4-5 40.4-5.5 61.6-1.3 71.9 3.2 0 0 17.4 7.5 20.5 7.8-1 .9-5.5 1.8-13.1 1.8"/><path fill="#006ead" d="M29.1 29c6.1.2 17.6.4 29.2 0 18-.6 37-3.5 49-5.5 43.9-7.4 90.7 0 90.7 0-3.6-5.4-10.7-11.8-13.8-12.9-.8-.9-53.2-9.1-75.8-5-15.7 2-26.4 10.3-46.2 14.6-15.3 3.3-33.4 3.6-33.3 3.5 0 0 0 2.3.2 5.3"/><path fill="#e0e2e5" d="M30.5 11.4C32.1 8 34 5.6 36.6 4.8 49.3 1.1 82.4-.2 96.1 0c16.1.3 38.9 1.1 64.8 3.6 20.1 2 28.7 3.6 39.2 7.3 6 2.1 10.2 4.7 14.9 9.7 6 6.5 5.5 9.8 1.2 11.1-7 2.2-13.9-.1-20.3-6.3-5.6-5.4-8.3-12.8-11.8-14.4-6.7-1.6-20.8-3.6-32.7-4.4-19.7-1.2-23.4-2-36.3-.9-13.4 1.3-22 7.6-38.6 12.2-13.4 3.7-47.6 5.8-47.6 5.8s-.4-8.2 1.6-12.3"/><path fill="#d0d4d8" d="M.5 17c-.2-.8-.4-2.4-.5-3.4 4.8-1.7 10.1-3 16.4-4.1l.6 19.8C10.8 28.5 7.3 18.1.5 17"/><path fill="#b2b9c0" d="M14 28.3c1.2 3.4 14.7 6.9 19 7.8-.9-.6-4.1-2.9-4-12.4.4-14.3 4-18.1 8.6-19.2-.4-.6-21.1 3-22.6 5.4-2.3 4.3-2.1 14.4-1 18.4"/><path fill="#00a4fd" stroke="#56b0ff" stroke-linecap="round" stroke-miterlimit="10" stroke-width=".75" d="m85.6.3 21.9.2"/></g></switch></svg>