<svg xmlns="http://www.w3.org/2000/svg" viewBox="0 0 146.2 93.7"><switch><g><path fill="#e8f0fb" d="M0 0h146.2v93.7H0z"/><path fill="#fff" d="M62.1 70.8c4.3-10.1 16.5-46.7 26.2-42.9 8.6.5 25.2 17.9 33.6 29.5 0 5.4-2.7 11.2-4.9 18.8-10.8-1.9-26.3-15.6-30.5-15.8-5 .9-15.5 13.6-20.7 14.5z"/><path fill="#eff1f2" d="M29 71.1c1 1.5 3 2.7 4.2 3.7 3.9 3.1 34 4.3 36.7-2.3-2.1.8-4.7 0-7.8-1.7z"/><path fill="#fff" d="M30.6 32.8c-4.3 9-5 30.6-2 37.4 2.7 7.2 30.1 7.1 34.2.6 7.9-9.4 11.7-43.8 25.5-42.9 11.3 2.9 24.5 18.3 33.6 29.5l-.3-1.8c-7.5-10.8-20.2-25.7-32.9-30.2-21.8-3.9-36-3.3-50.3 0-4.3 1.4-5.9 3.6-7.8 7.4"/><path fill="#e0e2e4" d="M28.6 70.2c2.7 7.2 30.1 7.1 34.2.6 7.9-9.4 11.7-43.8 25.5-42.9 11.3 2.9 24.5 18.3 33.6 29.5l-.3-1.8c-7.5-10.8-20.2-25.7-32.9-30.2-14.2-3.3-18.8 35-26.2 44.8-3.1 6.1-30.1 7.4-33.9 0"/><path fill="#7d8389" d="M33.2 74.8c2.2 1.6 7.1 2.8 9.9 2.8l71.9-.5c.7-.1 1.7-.4 2.1-.9-12.6-3.6-25.7-16.3-30.5-15.8-7.4 1.1-12.2 10.2-20.7 14.5-6.7 2.9-27.1 2.7-32.7-.1"/><path fill="#666a6f" d="M49.5 65.9c-3.5 2.4-8.3 2.4-9.8-.1-1.3-2.2-2.4-7.2-.8-12.7 3.2-4 14.8-4 16.1.2-.7 7-3.3 10.4-5.5 12.6"/><path fill="none" stroke="#2e91cf" stroke-linecap="round" stroke-linejoin="round" stroke-miterlimit="10" stroke-width=".75" d="M38.5 50.7c6.5-3.1 12.4-3.5 17.4 0"/></g></switch></svg>