<svg xmlns="http://www.w3.org/2000/svg" viewBox="0 0 238.81 339.91"><g data-name="Ebene 2"><g data-name="Ebene 1"><path fill="#fff" d="M0 0h238.81v330.81H0z"/><path fill="#001d33" d="M19.6 330.85h200.63v9.06H19.6z"/><path fill="#d0d4d8" fill-rule="evenodd" d="M221.69 168.83a101.3 101.3 0 1 1-101.3-101.3 101.3 101.3 0 0 1 101.3 101.3"/><path fill="#001d33" fill-rule="evenodd" d="M197.46 168.83a77.08 77.08 0 1 1-77.08-77.08 77.08 77.08 0 0 1 77.07 77.07"/><path fill="#d0d4d8" fill-rule="evenodd" d="M138 31.83a20.56 20.56 0 1 1-20.56-20.56A20.57 20.57 0 0 1 138 31.83"/><path fill="#001d33" fill-rule="evenodd" d="M133.09 31.83a15.64 15.64 0 1 1-15.64-15.64 15.64 15.64 0 0 1 15.64 15.64"/><path fill="#a4abb3" d="M154.64 162.47h69.49v13.21h-69.49z"/><path fill="#eff1f2" d="M9.55 11.01H85.4v43.55H9.55z"/></g></g></svg>