<svg xmlns="http://www.w3.org/2000/svg" viewBox="0 0 541 744"><g fill="none" fill-rule="evenodd"><path fill="#B2B9C0" fill-rule="nonzero" d="M351.2 742.82H225.1V181.4h126.1z"/><path fill="#D0D4D8" fill-rule="nonzero" d="M116.1 408.2h235.1v334.62H116.1z"/><path fill="#C1C7CC" d="M334.35 574.41c.008 40.339-24.285 76.71-61.551 92.153-37.266 15.442-80.165 6.915-108.692-21.606s-37.063-71.418-21.627-108.687c15.435-37.27 51.801-61.57 92.14-61.57 55.08 0 99.73 44.65 99.73 99.73z"/><path fill="#001D33" d="M310.45 574.41c0 41.907-33.973 75.88-75.88 75.88s-75.88-33.973-75.88-75.88 33.973-75.88 75.88-75.88a75.87 75.87 0 0 1 75.88 75.87z"/><path fill="#C1C7CC" d="M251.96 439.54c0 11.178-9.062 20.24-20.24 20.24s-20.24-9.062-20.24-20.24 9.062-20.24 20.24-20.24c11.176.006 20.234 9.064 20.24 20.24"/><path fill="#001D33" d="M247.12 439.54a15.4 15.4 0 1 1-15.39-15.4 15.39 15.39 0 0 1 15.39 15.4"/><path fill="#B2B9C0" fill-rule="nonzero" d="M268.34 568.15h68.41v13h-68.41z"/><path fill="#FFF" fill-rule="nonzero" d="M125.51 419.04h74.67v42.87h-74.67z"/><path fill="#B2B9C0" fill-rule="nonzero" d="M.45 408.2H116.1v334.62H.45z"/><path fill="#C1C7CC" fill-rule="nonzero" d="M351.2 181.41h188.35v561.42H351.2z"/><path fill="#D0D4D8" fill-rule="nonzero" d="M369.24 204.03h152.27v67.43H369.24z"/><path fill="#D0D4D8" fill-rule="nonzero" d="M369.24 271.46h152.27v136.79H369.24zm0 237.67h152.27v67.43H369.24zm0-84.16h152.27v67.43H369.24zm0 151.59h152.27v136.79H369.24zM358.79 86.37c-6.602-9.672-19.772-12.204-29.49-5.67-7.65 5.16-14.31 23.86-16.87 31.73l-5.66 5.67V65.23c2.19-3.16 5.05-7.32 8.11-11.86l5.37-8.06c5.95-9.29 11.41-18.5 12.39-22.57 2.116-9.73-3.986-19.354-13.69-21.59a18 18 0 0 0-20.45 10.1 18.3 18.3 0 0 1 4.64 5.62c0 .08.08.08.08.16.17.25.25.57.41.82.08.08.08.16.17.24.18.333.316.69.4 1.06q.071.21.11.43c0-.12-.07-.25-.11-.35-.16-.32-.24-.73-.4-1.06 0-.08-.09-.16-.17-.24-.16-.24-.24-.57-.41-.81 0-.09-.08-.09-.08-.17a17.4 17.4 0 0 0-4.64-5.62 18.08 18.08 0 0 0-28.35 20.21c1.63 4.56 9.94 15.15 18.08 24.85 4.74 5.69 9.46 11 12.67 14.72v25.3l-9.62-9.63c-3-8.31-8.6-21.81-14.78-27.62a12.7 12.7 0 0 0-2.77-2c-10.406-5.426-23.24-1.398-28.68 9a24.5 24.5 0 0 0-1.71 4.56 21 21 0 0 0 10.67 24.12c8.36 4.37 28.92 1.11 36.64-.31l10.25 10.17v32.26a2.94 2.94 0 0 0 2.94 2.94 2.94 2.94 0 0 0 2.93-2.94v-10.6l9.49-9.48c9.33 1.48 29.61 4 36.91-1a21.23 21.23 0 0 0 5.62-29.51"/><path fill="#D0D4D8" d="M327.83 181.41h-49.58l-6.12-48.27h60.83z"/><path fill="#D0D4D8" fill-rule="nonzero" d="M266.53 133.14h72.03v6.76h-72.03z"/></g></svg>