<svg xmlns="http://www.w3.org/2000/svg" viewBox="0 0 1920 1080"><g fill="none" fill-rule="evenodd"><path fill="#232628" fill-rule="nonzero" d="M0 0h1920v1080H0z"/><path fill="#1A1C1D" fill-rule="nonzero" d="M71.65 923.63h1776.7v14.71H71.65z"/><path fill="#1E2122" fill-rule="nonzero" d="M1088.1 266.66v154.52H954.14V578.8h-70.56V440.38l-47.02-42.96-47.02 42.96v232.46h482.89V266.66z"/><path d="M71.65 967.83h1776.7v29.49H71.65zm0-29.49h1776.7v29.49H71.65z"/><path fill="#1A1C1D" fill-rule="nonzero" d="M765.9 171.24v525.25h530.17V171.24zm253.26 501.6H789.54V529.29h229.62zm0-167.2H789.54V362.08h229.62zm0-167.2H789.54V194.88h229.62zm253.27 334.4h-229.62V529.29h229.62zm0-167.2h-229.62V362.08h229.62zm0-167.2h-229.62V194.88h229.62z"/></g></svg>