<svg xmlns="http://www.w3.org/2000/svg" data-name="Ebene 1" viewBox="0 0 1920 1080"><defs><clipPath id="a"><path fill="none" stroke-width="0" d="M0 0h1920v1080H0z"/></clipPath></defs><path fill="#eff1f2" d="M-.208-.117H1920V1080H-.208z"/><g stroke-width="0"><path fill="#e0e2e5" d="M1171.155 293.794h19.391v496.629h-19.391z"/><path fill="#e0e2e5" d="M1480.129 293.794h19.391v496.629h-19.391z" data-name="Rectangle"/><path fill="#e0e2e5" d="M1174.471 310.923h309.826v21.994h-309.826zM1174.471 443.668h309.826v21.994h-309.826zM1174.471 617.642h309.826v21.994h-309.826z" data-name="Rectangle"/><path fill="#e0e2e5" d="M1351.56 356.568v103.175h103.167V356.568zm67.399 34.505h-31.631a4.648 4.648 0 0 1 0-9.234h31.654a4.648 4.648 0 0 1 0 9.234z"/><path fill="#e0e2e5" d="M1215.925 459.743h103.167V356.568h-103.167zm35.745-77.92h31.662a4.648 4.648 0 0 1 0 9.235h-31.662a4.648 4.648 0 0 1 0-9.234" data-name="Shape"/><path fill="#e0e2e5" d="M1401.458 676.411v-13.642a2.4 2.4 0 0 1 2.565-2.208h18.337a2.41 2.41 0 0 1 2.564 2.208v13.642z"/><path fill="#e0e2e5" d="M1315.575 511.276a8.018 8.018 0 1 0 0 16.036H1391a8.018 8.018 0 1 0 0-16.036z" data-name="Path"/><path fill="#d0d4d8" d="M1310.5 676.411h-73.03a15.07 15.07 0 0 0-15.076 15.068v84.9c0 8.327 6.748 15.078 15.076 15.083h73.015c8.33 0 15.084-6.753 15.084-15.084v-84.9c0-8.32-6.747-15.067-15.068-15.067m-49.805 26.138-12.705 14.48a5.903 5.903 0 0 1-10.342-3.874v-14.48a5.91 5.91 0 0 1 5.903-5.91h12.705a5.903 5.903 0 0 1 4.44 9.784m172.206-26.138h-73.038c-8.322 0-15.068 6.746-15.068 15.068v84.907c.004 8.324 6.751 15.071 15.075 15.076h73.024c8.326 0 15.075-6.75 15.075-15.076v-84.907c0-8.322-6.746-15.068-15.068-15.068m-72.822 36.736v-14.471a5.896 5.896 0 0 1 5.888-5.896h12.713a5.895 5.895 0 0 1 4.44 9.785l-12.714 14.494a5.896 5.896 0 0 1-10.327-3.873z" data-name="Shape"/><path fill="#e0e2e5" d="M1247.177 565.66h212.214v51.734h-212.214z" data-name="Rectangle"/><path fill="#e0e2e5" d="M1285.238 676.419v-13.65a2.4 2.4 0 0 1 2.556-2.208h18.353a2.41 2.41 0 0 1 2.564 2.208v13.65z" data-name="Path"/><path fill="#d0d4d8" d="M1247.177 533.022h212.214v26.944h-212.214z" data-name="Rectangle"/><path fill="#e0e2e5" d="M1480.207 293.794v149.517h-289.428V293.794h-19.321v522.148h328.062V293.794zM1190.779 466.22h289.428v151.183h-289.428zm289.513 325.243h-289.46v-151.19h289.46z" data-name="Shape"/></g><g stroke-width="0"><rect width="177.72" height="61.903" x="805.195" y="754.039" fill="#d0d4d8" data-name="Rectangle" rx="18.386" ry="18.386"/><rect width="177.72" height="61.903" x="805.195" y="685.427" fill="#d0d4d8" data-name="Rectangle" rx="18.386" ry="18.386"/><circle cx="1081.744" cy="726.443" r="88.851" fill="#d0d4d8"/><circle cx="1081.744" cy="726.443" r="59.977" fill="#eff1f2" data-name="Oval"/><path fill="#e0e2e5" d="m1098.715 717.515 34.917 20.193c5.726-26.413-9.308-52.911-34.917-61.547zm-16.971 29.385-34.47 19.902c19.848 16.968 49.092 16.968 68.94 0zm-16.961-29.385v-41.381c-25.623 8.637-40.659 35.152-34.918 61.574z" data-name="Path"/></g><path fill="#979ea4" d="M-.208 816.895H1920V1080H-.208z"/><g stroke-width="0" data-name="Bosch/Office/People/male-with-suitcase-turquoise"><path fill="#56b0ff" d="M1722.119 403.94a47.6 47.6 0 0 1-8.728-6.91 75 75 0 0 0 8.553.796c.23 2.048.47 4.216.645 6.376l-.47-.23z" data-name="Path"/><path fill="#7ebdff" d="m1775.528 517.963 47.966-14.88 21.91-8.904 10.194 16.029s-9.788 3.331-18.515 5.738-15.869 4.392-15.869 4.392-41.996 27.65-56.526 35.141l-.876-25.186 11.716-12.298z" data-name="Path"/><path fill="#8a9097" d="m1822.617 505.545 15.143-42.76a4.03 4.03 0 0 1 3.81-2.695h15.662l-13.71.056a4.105 4.105 0 0 0-3.8 2.694l-15.145 42.705a4.113 4.113 0 0 0 2.52 5.213c.428.166.886.245 1.346.23h-1.993a4.08 4.08 0 0 1-4.104-4.096 3.6 3.6 0 0 1 .27-1.347m19.503 4.974-9.253.47z" data-name="Shape"/><path fill="#d0d4d8" d="m1824.61 505.545 15.143-42.705a3.985 3.985 0 0 1 3.802-2.694h15.494a4.05 4.05 0 0 1 4.041 4.041c.014.473-.064.944-.231 1.387l-15 42.354a4.03 4.03 0 0 1-3.746 2.694h-1.993l-9.31.462h-4.399a4.105 4.105 0 0 1-4.097-4.096q.084-.715.295-1.403z" data-name="Path"/><path fill="#9dc9ff" fill-rule="evenodd" d="m1857.128 482.36-26.007.876c-.797 5.332 2.343 14.235 7.38 16.052l17.105 10.92 1.522-27.817z" data-name="Path"/><path fill="#2e3033" d="m1749.935 519.127 7.349 42.944 52.038-23.218-.964-33.659-33.468 7.93-10.831-61.132z" data-name="Path"/><path fill="#71767c" d="M1629.512 653.626a19.7 19.7 0 0 0-.192 4.918h25.187-21.098a2.83 2.83 0 0 0-2.83 2.829v4.782h-5.858v-4.782a8.69 8.69 0 0 1 4.79-7.747" data-name="Path"/><path fill="#71767c" d="M1626.93 658.52h25.154l-.566-5.803h-20.532a8.6 8.6 0 0 0-3.89.925 19 19 0 0 0-.167 4.878" data-name="Path"/><path fill="#43464a" d="m1633.67 874.236 17.064 6.214 35.89 33.204-.155.098a20.86 20.86 0 0 1-17.811.805l-43.937-18.377 8.958-21.938zm196.665 24.391-.069.171a20.81 20.81 0 0 1-14.123 10.886l-46.5 10.277-.348-22.633 15.732-4.783 45.305 6.122z" data-name="Path"/><path fill="#003253" d="M1625.927 871.437c7.852-114.406 14.895-112.407 42.802-166.4 3.381-6.624 3.531-16.197 2.82-27.566-1.19-19.284-3.2-38.235-4.365-55.65 11.819 9.794 28.388 17.707 51.573 38.258-3.547 24.725-7.67 43.311-7.67 43.311l-58.886 177.648-2.203-.827-17.072-6.212zm118.405-303.612c-.12 4.631-4.536 58.802-8.226 77.43-10.186-20.014-10.193-73.588-10.448-78.075h16.578z" data-name="Path"/><path fill="#005587" d="M1669.253 623.659c8.088 13.04 21.254 25.81 36.744 52.656 4.171 7.24 8.466 15.417 12.917 24.963 4.84 10.334 8.109 19.331 7.274 26.726-6.576 60.424-1.758 52.32 35.114 171.754l8.107-2.462 15.74-4.782 3.906-1.186-22.228-176.953s-1.827-8.923-4.878-22.108c-3.703-15.997-6.887-39.116-13.152-59.567-3.08-10.06-12.989-29.469-13.433-30.612-8.083-20.68-9.336-32.222-9.49-36.58l-61.574-4.488c-6.864 33.767-4.107 48.353 4.953 62.639" data-name="Path"/><path fill="#004975" d="M1739.67 356.564a.2.2 0 0 0-.064-.176c.526.59.797.997.797.997s1.937-5.213 1.291-9.78a3 3 0 0 1-.064-.757c1.291 3.451 2.583 9.9-2.28 15.462.207-1.905.305-3.821.296-5.738z" data-name="Path"/><path fill="#004975" d="M1685.535 357.13c-.645-5.97 7.85-11.071 7.85-11.071s0-4.567 7.174-10.425c7.173-5.859 14.992-1.93 21.52-2.63 6.528-.702 13.884-2.639 19.129 0 4.918 2.454.526 9.604.582 14.226q-.02.404.063.798c.638 4.567-1.29 9.78-1.29 9.78s-.296-.407-.798-.997c-1.347-1.594-3.985-4.567-5.858-5.5-2.638-1.29-3.921.638-11.07 2.63-7.15 1.993-14.347-3.275-14.347-3.275 3.921 11.07-2.232 13.238-4.16 16.458a6 6 0 0 0-.798 2.814c-2.287-3.874-5.978-8.552-8.959-5.22-3.69 4.048 2.694 14.346 5.914 19.04l-1.466 3.189c-.175 0-12.649-22.142-13.47-29.817z" data-name="Path"/><path fill="#9dc9ff" d="M1722.812 404.202c.997 8.768 2.049 17.16 2.049 17.16h-32.336l6.265-34.615 1.466-3.188c-3.188-4.686-9.604-15-5.922-19.04 3.053-3.34 6.743 1.346 8.967 5.212a5.4 5.4 0 0 1 .797-2.806c1.929-3.284 8.082-5.388 4.16-16.459 0 0 7.174 5.213 14.347 3.276s8.496-3.921 11.07-2.638c2.464.925 5.875 5.492 5.93 5.58.057.087.049 2.343-.246 5.81a90 90 0 0 1-2.694 16.737c-3.109 11.478-5.683 16.985-5.683 16.985a39.5 39.5 0 0 1-8.967 1.61 27.9 27.9 0 0 1-8.552-.797 47.3 47.3 0 0 0 8.728 6.918z" data-name="Path"/><path fill="none" d="m1730.52 412.428-6.153-2.646z" data-name="Path"/><path fill="#d0d4d8" d="M1759.101 435.287a36.3 36.3 0 0 1 5.101 21.735c.638-7.516-1.29-14.953-5.1-21.735m-31.92 47.822 14.88 93.97h-42.004l6.815-162.133-17.862-5.682 1.698-.997h31.73l4.272 2.638-10.6 2.463z" data-name="Shape"/><path fill="#43464a" d="M1727.18 483.188s9.333 69.262 9.254 93.006c0 6.56 3.425 35.237 3.425 35.237 3.231 7.22 7.102 18.19 10.135 26.646a52 52 0 0 1 1.377 4.47c2.64 10.13 4.982 21.704 4.982 21.704l13.294-.183-2.2-30.52-7.174-123.3 3.865-52.365.056-.797a38.3 38.3 0 0 0-5.093-21.728 51.6 51.6 0 0 0-13.007-15l-13.359-10.831-6.025 1.402-10.609 2.463zm-67.477 49.496c2.645-9.15 5.877-23.152 9.832-39.31 2.529-10.335 5.326-24.21 7.11-33.99 1.754-9.78 0-30.534-12.375-38.404l-.35.056 21.966-12.848 3.188.996 17.861 5.58-4.28 266.542-41.35-1.522-29.171-1.347 5.1-55.704c1.97-.08 22.94-57.307 22.47-90.049" data-name="Path"/><path fill="#71767c" fill-rule="evenodd" d="M1693.147 427.77s10.361-7.842 13.94-13.055c.239-.358-10.832-15.582-10.832-15.582l-11.485 7.97c-.056.064 4.28 15.814 8.377 20.676zm37.723 0s-11.246-9.221-14.76-14.465c-.232-.351 6.559-12.753 6.559-12.753l11.07 6.448c0 .12 1.228 15.869-2.869 20.723z" data-name="Shape"/><path fill="#9dc9ff" d="M1633.282 632.504c-6.91-25.712-10.362-68.409-5.508-93.42l20.914 8.138c.295 21.145.526 49.671.646 67.596.056 10.075.12 16.738.12 16.738z" data-name="Path"/><path fill="#71767c" d="M1626.276 624.24c-3.69-29.547-7.078-97.773-7.078-97.773l24.07-82.469c3.535-11.684 12.165-21.67 20.62-23.114l.35-.056c13.765 6.735 14.761 30.638 13.008 40.362-4.567 25.067-13.239 56.287-17.535 71.343.47 32.678-2.781 91.069-2.781 91.069z" data-name="Path"/><path fill="#71767c" d="M1595.263 666.195h84.82v66.257h-84.82z" data-name="Rectangle"/><path fill="#a4abb3" d="M1680.083 666.195h12.856v66.257h-12.856z" data-name="Rectangle"/><path fill="#8a9097" d="M1680.083 666.195v27.84a5.17 5.17 0 0 1-3.881 5.014c-9.979 2.582-24.134 4.184-39.852 4.184s-29.865-1.594-39.851-4.184a5.17 5.17 0 0 1-3.882-5.014v-24.86a2.973 2.973 0 0 1 2.98-2.98z" data-name="Path"/><path fill="#c1c7cc" d="M1629.567 699.886h13.589v10.035h-13.589z" data-name="Rectangle"/><path fill="#71767c" d="m1652.084 658.504-.566-5.803h2.128a8.704 8.704 0 0 1 8.695 8.688v4.782h-5.858v-4.782a2.837 2.837 0 0 0-2.837-2.83h-1.594v-.055z" data-name="Path"/><path fill="#9dc9ff" d="M1626.897 658.544h25.187l-.566-5.859h2.128a8.67 8.67 0 0 1 6.814 3.3l-10.975-24.413-16.116-1.594c.184 1.315-5.021 14.69-6.24 23.688a19.3 19.3 0 0 0-.232 4.878" data-name="Path"/><path fill="#7ebdff" d="M1653.646 658.56a2.837 2.837 0 0 1 2.837 2.829v4.782h-25.999c-2-4.144-3.587-7.651-3.587-7.651z" data-name="Path"/></g><circle cx="266.612" cy="266.537" r="196" fill="#fff"/><g fill-rule="evenodd" stroke-width="0" data-name="iMac-gray frame"><path fill="#d0d4d8" d="M321.494 411.297H211.178v-4.686a5.535 5.535 0 0 1 5.537-5.533h99.241a5.535 5.535 0 0 1 5.538 5.533z"/><path fill="#c1c6cc" d="M310.03 401.233h-86.836l5.128-30.161h76.58z"/><path fill="#d0d4d8" d="M404.681 335.393H128.543V168.65a5.61 5.61 0 0 1 5.61-5.606h264.919c3.098 0 5.61 2.51 5.61 5.606z"/><path fill="#d0d4d8" d="M128.543 334.861H404.68v30.607a5.606 5.606 0 0 1-5.608 5.604H134.15a5.606 5.606 0 0 1-5.607-5.604z"/></g><path fill="#fff" fill-rule="evenodd" d="M137.14 171.474v155.433h258.847V171.474z"/><path fill="#007bc0" d="M259.968 245.143h66.907v6.385h-66.907z" data-name="Rectangle"/><path fill="#a4abb3" d="M259.968 262.2h115.594v6.385H259.968zM259.968 274.605h115.594v6.385H259.968zM259.968 287.011h115.594v6.385H259.968z" data-name="Rectangle"/><path fill="#007bc0" d="M182.86 272.658h-8.813a5.71 5.71 0 0 1-5.703-5.703v-1.037a5.71 5.71 0 0 1 5.703-5.703l.242.015s6.387.753 8.812 1.036c3.369.394 5.462 2.574 5.462 5.69a5.71 5.71 0 0 1-5.703 5.702m-8.91-8.292a1.557 1.557 0 0 0-1.459 1.552v1.037c0 .858.698 1.556 1.556 1.556h8.813c.858 0 1.555-.698 1.555-1.556 0-.541 0-1.36-1.796-1.57-2.209-.257-7.703-.905-8.67-1.019m57.644 29.03h-8.985l-.17-.028c-1.058-.177-4.35-1.452-4.793-10.341h-40.55c-.212 3.694-1.124 9.73-4.782 10.34l-.17.029h-8.985c-4.679 0-5.184-8.702-5.184-12.443v-14.516c0-3.18 1.307-6.285 2.53-8.491-2.913-.735-4.604-3.419-4.604-6.026 0-4.293 3.539-5.933 5.41-6.2l.293-.021h7.354c.948-2.534 3.146-7.896 6.01-11.598 2.283-3.254 6.815-5.427 13.472-6.458 4.47-.693 8.366-.625 8.937-.609.574-.014 4.492-.082 8.959.612 6.645 1.033 11.17 3.205 13.45 6.455 2.864 3.702 5.062 9.064 6.01 11.598l7.647.02c1.871.268 5.41 1.908 5.41 6.201 0 2.607-1.692 5.291-4.604 6.026 1.222 2.206 2.53 5.31 2.53 8.49v14.517c0 3.741-.505 12.443-5.185 12.443m-8.251-4.148h7.918c.535-.758 1.37-3.635 1.37-8.295v-14.516c0-3.656-2.666-7.79-3.693-9.074l-2.695-3.369h6.388c1.522 0 2.074-1.24 2.074-2.074 0-1.492-1.135-1.94-1.747-2.074h-10.116l-.473-1.417c-.025-.074-2.528-7.502-5.89-11.826l-.069-.093c-3.3-4.767-14.81-5.466-18.966-5.329l-.066.002-.066-.002c-4.162-.129-15.676.574-18.968 5.33l-.068.092c-3.372 4.336-5.866 11.751-5.891 11.826l-.473 1.417h-10.123c-.586.126-1.74.57-1.74 2.074 0 .834.552 2.074 2.073 2.074h6.389l-2.695 3.37c-.035.043-3.694 4.697-3.694 9.073v14.516c0 4.66.836 7.537 1.37 8.295h7.919c.41-.477 1.599-2.374 1.599-8.295v-2.074h48.734v2.074c0 5.92 1.188 7.818 1.599 8.295m-2.636-16.59h-8.813a5.71 5.71 0 0 1-5.703-5.703c0-3.115 2.093-5.295 5.462-5.689 2.425-.283 8.811-1.036 8.811-1.036l.243-.015a5.71 5.71 0 0 1 5.703 5.703v1.037a5.71 5.71 0 0 1-5.703 5.703m.097-8.292c-.966.114-6.46.762-8.67 1.02-1.796.21-1.796 1.028-1.796 1.57 0 .857.698 1.554 1.556 1.554h8.813c.858 0 1.555-.697 1.555-1.555v-1.037c0-.825-.645-1.502-1.458-1.552"/><path fill="#a4abb3" d="M137.141 171.474h258.846v11.177H137.141z" data-name="Rectangle"/><g fill="#007bc0" stroke-width="0"><path d="m1839.502 269.744-8.012-.01.004-3 8.012.01zm-16.023-.02-8.012-.011.004-3 8.012.01zm-16.023-.021-8.011-.01.004-3 8.011.01zm-16.023-.02-8.011-.011.003-3 8.012.01zm-16.023-.021-8.01-.01.003-3 8.011.01zm-16.023-.02-8.011-.011.004-3 8.011.01zm-16.023-.021-8.01-.01.003-3 8.011.01zm-16.023-.02-8.011-.011.004-3 8.011.01zm-16.022-.021-8.012-.01.004-3 8.011.01zm-16.023-.02-8.012-.011.004-3 8.011.01zm-16.023-.021-8.012-.01.004-3 8.012.01zm-16.023-.021-8.012-.01.004-3 8.012.01zm-16.023-.02-8.011-.01.003-3 8.012.01zm-16.023-.021-8.011-.01.003-3 8.012.01zm-16.023-.02-8.011-.01.004-3 8.01.01zm-16.023-.02-8.011-.01.004-3 8.01.01zm-16.023-.021-8.011-.01.004-3 8.01.01zm-16.023-.02-8.011-.01.004-3 8.01.01zm-16.023-.021-8.011-.01.004-3 8.011.01zm-16.023-.02-8.011-.01.004-3 8.011.01zm-16.023-.021-8.011-.01.004-3 8.011.01zm-16.023-.02-8.011-.01.004-3 8.011.01zm-16.023-.021-8.011-.01.004-3 8.011.01zm-16.023-.02-8.01-.01.003-3 8.011.01zm-16.023-.021-8.01-.01.003-3 8.011.01zm-16.023-.02-8.01-.01.003-3 8.011.01zm-16.023-.021-8.01-.01.003-3 8.011.01zm-16.022-.02-8.012-.01.004-3 8.011.01zm-16.023-.02-8.012-.01.004-3 8.012.01zm-16.023-.021-8.012-.01.004-3 8.012.01zm-16.023-.02-8.012-.01.004-3 8.012.01zm-16.023-.021-8.012-.01.004-3 8.012.01zm-16.023-.02-8.011-.01.003-3 8.012.01zm-16.023-.021-8.011-.01.003-3 8.012.01zm-16.023-.02-8.011-.01.004-3 8.011.01zm-16.023-.021-8.011-.01.004-3 8.011.01zm-16.023-.02-8.011-.01.004-3 8.011.01zm-16.023-.021-8.011-.01.004-3 8.011.01zm-16.022-.02-8.012-.01.004-3 8.011.01zm-16.023-.021-8.012-.01.004-3 8.012.01zm-16.023-.02-8.012-.01.004-3 8.012.01zm-16.023-.02-8.012-.011.004-3 8.012.01zm-16.023-.021-8.012-.01.004-3 8.012.01zm-16.023-.02-8.011-.011.003-3 8.012.01zm-16.023-.021-8.012-.01.004-3 8.012.01zm-16.023-.02-8.011-.011.004-3 8.01.01zm-16.023-.021-8.011-.01.004-3 8.01.01zm-16.023-.02-8.011-.011.004-3 8.01.01zm-16.023-.021-8.011-.01.004-3 8.011.01zm-16.023-.02-8.011-.011.004-3 8.011.01zm-16.023-.021-8.011-.01.004-3 8.011.01zm-16.023-.02-8.011-.011.004-3 8.011.01zm-16.023-.021-8.011-.01.004-3 8.011.01zm-16.023-.02-8.01-.011.003-3 8.011.01zm-16.023-.02-8.01-.011.003-3 8.011.01zm-16.023-.021-8.01-.01.003-3 8.011.01zm-16.023-.02-8.01-.011.003-3 8.011.01zm-16.022-.021-8.012-.01.004-3 8.011.01zm-16.023-.02-8.012-.011.004-3 8.011.01zm-16.023-.021-8.012-.01.004-3 8.012.01zm-16.023-.02-8.012-.011.004-3 8.012.01zm-16.023-.021-8.012-.01.004-3 8.012.01zm-16.023-.02-8.011-.011.003-3 8.012.01zm-16.023-.021-8.011-.01.004-3 8.011.01zm-16.023-.02-8.011-.011.004-3 8.011.01zm-16.023-.021-8.011-.01.004-3 8.011.01zm-16.023-.021-8.011-.01.004-3 8.011.01zm-16.022-.02-8.012-.01.004-3 8.011.01zm-16.023-.02-8.012-.01.004-3 8.011.01zm-16.023-.021-8.012-.01.004-3 8.012.01zm-16.023-.02-8.012-.01.004-3 8.012.01zm-16.023-.021-8.012-.01.004-3 8.012.01zm-16.023-.02-8.012-.01.004-3 8.012.01zm-16.023-.021-8.012-.01.004-3 8.012.01zm-16.023-.02-8.012-.01.004-3 8.012.01zm-16.023-.021-8.012-.01.004-3 8.012.01zm-16.023-.02-8.011-.01.004-3 8.01.01zm-16.023-.021-8.011-.01.004-3 8.01.01zm-16.023-.02-8.011-.01.004-3 8.011.01zm-16.023-.021-8.011-.01.004-3 8.011.01zm-16.023-.02-8.011-.01.004-3 8.011.01zm-16.023-.02-8.011-.01.004-3 8.011.01zm-16.023-.021-8.011-.01.004-3 8.011.01zm-16.023-.02-8.01-.01.003-3 8.011.01zm-16.023-.021-8.01-.01.003-3 8.011.01zm-16.023-.02-8.01-.01.003-3 8.011.01zm-16.023-.021-8.01-.01.003-3 8.011.01zm-16.022-.02-8.012-.01.004-3 8.011.01zM1853.015 272.259h-3v-2.502l-2.502-.004.004-3 5.498.008zM1853.015 455.119h-3v-8.312h3zm0-16.623h-3v-8.313h3zm0-16.624h-3v-8.312h3zm0-16.624h-3v-8.312h3zm0-16.624h-3v-8.312h3zm0-16.624h-3v-8.312h3zm0-16.623h-3v-8.312h3zm0-16.624h-3v-8.312h3zm0-16.624h-3v-8.311h3zm0-16.623h-3v-8.312h3zm0-16.624h-3v-8.312h3z"/></g><g stroke-width="0"><path fill="#595e62" d="M879.968 451.778c-6.902-2.992-13.97-6.052-20.93-9.057h-60.231c31.936 23.763 64.144 47.61 91.102 54.256a4996 4996 0 0 0-7.415-34.066c-.845-3.729-1.69-7.45-2.526-11.133"/><path fill="#43464a" d="m943.101 464.43-17.146 21.05c-6.497 7.978-19.275 5.407-22.182-4.462l-17.611-59.783 48.699-12.017z"/><path fill="#003253" d="m934.86 409.218-11.237-49.574c-3.857-18.536-10.129-27.838-29.783-24.395-19.653 3.442-15.595 24.468-15.256 46.516.138 11.16 7.578 39.47 7.578 39.47z"/><path fill="#383b3e" d="M951.664 632.735c-5.195 34.003-6.318 66.515-4.346 93.6q.475 6.496 1.183 12.54c-1.526 18-16.638 32.144-35.032 32.144-16.303 0-30.017-11.1-33.994-26.16l-.609-15.258-2.931-73.346 3.908-98.726c-.051-3.96 3.703-41.7 4.286-45.626l8.486-17.931s76.946-.506 76.946 0c0 0-7.877 92.426-17.897 138.763"/><path fill="#383b3e" d="m958.218 939.388 3.352 9.763s-2.428 18.172-2.15 21.069c.28 2.897 3.179 11.793 1.272 18.967s-35.269 7.995-35.269 7.995L897.9 987.064l-.17-35.573V936.38l4.903-14.803-3.463-13.389-4.054-67.895-15.429-86.169-.368-9.265-.609-15.258c2.949-16.431 17.315-28.903 34.603-28.903 16.123 0 29.71 10.86 33.85 25.663.316 4.303.702 8.469 1.173 12.48 1.243 10.74 3.026 20.392 5.263 28.655 12.026 44.237 0 80.066 4.175 112.732.617 4.431.617 13.388.617 23.134-.018 4.706 3.565 22.303 3.565 26.957z"/><path fill="#43464a" d="m921.877 974.796-37.067-2.687 8.051 28.292 28.488 7.503z"/><path fill="#43464a" d="M895.382 1045.47c-10.247 3.477-48.616 2.935-52.356-3.198-4.207-6.881 0-16.38 6.264-20.999s13.912-6.207 20.569-10.003c7.124-4.058 17.576-15.24 20.96-23.13 9.193 2.787 10.556 4.102 22.46 5.214 2.318.217 5.212-10.596 11.44-2.288 6.229 8.308 34.06-3.942 35.846-5.345 3.732-2.933-.298 6.14 2.338 13.432s1.328 25.804-1.066 29.189c-3.085 4.412-12.547 4.749-17.24 5.815-6.432 1.458-15.464-2.898-23.28-1.122-9.686 2.206-18.156 9.798-25.935 12.434"/><path fill="#232628" d="M843.55 1028.098c3.235-2.823 14.959 1.59 15.426 11.22a85.4 85.4 0 0 0 32.423 4.113c9.836-.822 22.663-12.752 34.686-12.696 18.157.112 34.07-4.114 37.865-13.538 3.74 2.188 0 13.65-2.262 16.605a12.66 12.66 0 0 1-5.124 3.31l-4.675 1.645a64 64 0 0 1-2.748.654l-4.675.71q-1.402.085-2.805 0l-4.58-.598a50.5 50.5 0 0 0-7.48-.56c-8.583 0-12.454 4.394-18.456 8.302l-3.496 2.019a27 27 0 0 1-2.076.972l-4.432 1.496c-.729.206-1.495.393-2.318.542l-4.9.674h-.111c-.786 0-1.571.112-2.375.15l-5.011.149h-1.852l-5.01-.131-1.87-.094-4.488-.261c-.86 0-1.72-.169-2.562-.28l-4.488-.562-1.87-.299-4.861-.879c-7.48-1.552-13.09-3.571-14.716-5.329-4.394-4.955-4.394-14.529-1.16-17.334"/><path fill="#d0d4d8" d="m884.25 998.247 24.993 9.949 2.305-2.114-25.793-9.722c-.483.63-.988 1.26-1.504 1.887m-4.676 5.155 21.595 12.22 2.174-2.002-21.885-12.178q-.93 1.003-1.884 1.96m-6.424 5.663 21.19 12.836 2.17-1.984-21.147-12.616a49 49 0 0 1-2.213 1.764m-7.382 4.255 22.56 14.12 1.862-1.712-21.872-13.63q-1.26.645-2.55 1.222"/><path fill="#4e5256" d="m1102.948 955.065 1.336 28.103-7.601 13.192-19.573 3.91-18.242-5.32-16.693-22.84 4.75-38.8-5.777-8.93 1.568-13.09-27.711-52.97-8.992-35.907-21.934-31.08-6.9-27.111s-1.895-2.17-4.449-7.62c0-.018-.009-.026-.017-.035-1.62-3.48-3.514-8.288-5.34-14.717a41 41 0 0 1-.446-5.991c0-22.055 17.889-39.935 39.943-39.935 13.852 0 26.057 7.054 33.215 17.76 1.825 5.58 3.728 10.157 5.554 12.823l.789 3.866 3.831 18.72 15.943 25.08 8.006 40.372c1.14 5.76 20.366 91.766 20.366 91.766l3.06 20.571-3.026 15.892z"/><path fill="#4e5256" d="M1047.005 735.859c0 22.054-17.88 39.934-39.934 39.934-14.435 0-27.078-7.654-34.098-19.123-1.645-3.489-3.548-8.331-5.4-14.829a155 155 0 0 1-1.414-5.382c-1.809-7.45-9.231-16.046-11.606-24.97l-58.097-209.195 51.06-4.748 22.44-2.057c46.338 50.057 54.635 75.506 60.918 171.592.788 12.292 4.834 32.606 9.411 46.603 1.826 5.58 3.729 10.157 5.555 12.823l.797 3.892c.24 1.782.368 3.608.368 5.46"/><path fill="#383b3e" d="m982.91 708.199 51.573.615c15.008-28.955 2.275-70.005-4.36-86.279l-52.46 2.049s-3.668 48.212 5.247 83.615"/><path fill="#595e62" d="m986.06 647.064 53.561-3.298-9.803-21.742-52.16 2.578z"/><path fill="#43464a" d="m1066.153 970.64-37.067-2.687 8.051 28.292 28.488 7.503z"/><path fill="#43464a" d="M1039.658 1041.314c-10.247 3.477-48.616 2.935-52.356-3.198-4.207-6.881 0-16.38 6.264-20.998 6.264-4.62 13.912-6.208 20.568-10.004 7.125-4.058 17.577-15.24 20.962-23.13 9.192 2.787 10.555 4.102 22.459 5.214 2.318.217 5.211-10.596 11.44-2.288s34.06-3.942 35.846-5.345c3.731-2.933-.298 6.14 2.338 13.432 2.635 7.293 1.327 25.804-1.066 29.189-3.085 4.412-12.547 4.75-17.24 5.815-6.433 1.458-15.464-2.898-23.28-1.122-9.686 2.206-18.156 9.798-25.935 12.435"/><path fill="#232628" d="M987.825 1023.942c3.235-2.823 14.96 1.59 15.427 11.22a85.4 85.4 0 0 0 32.423 4.113c9.836-.822 22.663-12.752 34.686-12.696 18.156.112 34.069-4.114 37.865-13.538 3.74 2.188 0 13.65-2.263 16.605a12.66 12.66 0 0 1-5.123 3.31l-4.675 1.645c-.935.243-1.87.467-2.748.654l-4.675.71q-1.402.086-2.805 0l-4.581-.598a50.5 50.5 0 0 0-7.48-.56c-8.582 0-12.453 4.394-18.455 8.302l-3.497 2.02c-.654.336-1.346.672-2.075.971l-4.432 1.496c-.73.206-1.496.393-2.318.542l-4.9.674h-.112c-.785 0-1.57.112-2.374.15l-5.012.149h-1.85l-5.012-.131-1.87-.094-4.488-.261c-.86 0-1.72-.169-2.561-.28l-4.488-.562-1.87-.299-4.861-.879c-7.48-1.552-13.09-3.571-14.716-5.329-4.394-4.955-4.394-14.529-1.16-17.334"/><path fill="#d0d4d8" d="m1028.526 994.091 24.992 9.949 2.305-2.114-25.792-9.722q-.728.947-1.505 1.887m-4.676 5.155 21.596 12.22 2.174-2.002-21.886-12.178q-.93 1.003-1.884 1.96m-6.423 5.663 21.189 12.836 2.17-1.984-21.146-12.616a49 49 0 0 1-2.213 1.764m-7.382 4.255 22.56 14.12 1.862-1.712-21.872-13.63q-1.26.645-2.55 1.222"/><path fill="#bfc0c3" d="M920.55 280.528a11 11 0 0 0 3.871 1.87 26 26 0 0 1-3.87-1.87"/><path fill="#c1c7cc" d="M981.807 265.569c7.293-17.222 4.151-30.423 4.058-31.133a76.5 76.5 0 0 0-2.113-10.752l-.337-1.16c-5.347-18.25-18.343-29.057-45.755-28.01a28.3 28.3 0 0 0-20.139 8.527 11 11 0 0 0-2.487 2.243 31.4 31.4 0 0 0-4.02 6.601 6.8 6.8 0 0 1-.71 1.59c-9.705 11.78-11.575 54.45 10.247 67.015-3.217-2.244-7.48-7.161-9.35-17.763a141 141 0 0 1-1.59-28.703l9.014.86.43-10.452 8.638 11.369 9.817.935 2.038-18.53 8.602 19.52 7.105.674 6.227 16.174c3.945-5.198 10.228-12.005 14.603-9.35a5.2 5.2 0 0 1 1.534 1.422c3.74 4.955-.823 13.089-5.442 19.054-8.002 2.768-12.246 11.5-9.477 19.503 2.768 8.003 11.5 12.246 19.503 9.477 8.003-2.768 12.246-11.5 9.478-19.503a15.33 15.33 0 0 0-9.874-9.608"/><path fill="#595e62" d="m923.168 328.228 48.86 4.656-2.618-31.096-1.271-15.333-1.29-14.734c4.637-4.937 15.893-18.138 10.62-25.131a5.2 5.2 0 0 0-1.533-1.421c-4.376-2.6-10.658 4.207-14.604 9.349l-6.226-16.174-6.956-.617-8.602-19.56-2.038 18.531-9.817-.935-8.638-11.331-.412 10.49-9.012-.86a141 141 0 0 0 1.589 28.702 176.5 176.5 0 0 0 6.096 26.552 58 58 0 0 0 13.388 3.74 42.8 42.8 0 0 0 12.397.187 76.7 76.7 0 0 1-14.286 9.05c-2.842 13.201-5.647 25.935-5.647 25.935"/><path fill="#43464a" d="M943.101 293.224c-4.12.54-8.296.477-12.397-.187-.337 1.608-.692 3.272-1.028 4.974-.281 1.402-.58 2.823-.86 4.263a76.7 76.7 0 0 0 14.285-9.05"/><path fill="#c1c7cc" d="m978.086 241.354-9.33 4.843-7.368 8.377-7.778-19.951 24.177-6.077z"/><path fill="#0096e8" d="M913.744 510.988c26.178-101.215 4.114-189.436 4.114-189.436l-20.195 7.592c-13.864 4.169-23.029 17.34-22.12 31.788l6.339 129.282 1.103-.467c15.82-6.32 30.815 6.45 30.76 21.241"/><path fill="#7ebdff" d="m1003.198 329.387-25.58-8.863-4.58-11.668-47.158-.617-4.394 11.556-19.447 7.666s-8.115 19.671-28.291 49.813c-8.9 11.313-12.753 23.205-7.667 46.747 7.835 36.163 18.045 87.883 18.045 87.883l98.13-4.132-22.083-.3z"/><path fill="#0088d4" d="M1023.262 368.692c0-.412 0-.823.131-1.234v-12.285l-.112-.748c0-.3 0-.599-.131-.88l-.206-.728c0-.3-.112-.58-.187-.88-.075-.298 0-.467-.13-.691-.132-.225-.15-.58-.206-.86a5 5 0 0 0-.187-.692c-.075-.225-.15-.561-.243-.86s-.113-.412-.187-.636c-.075-.224-.187-.58-.3-.86s-.13-.393-.187-.599-.243-.617-.374-.916c-.13-.299-.13-.336-.205-.505s-.318-.748-.505-1.122l-.112-.243c-.225-.448-.449-.897-.692-1.346l-.225-.374c-.187-.3-.355-.617-.542-.935l-.318-.467-.505-.767-.373-.505c-.169-.224-.337-.467-.524-.692l-.411-.504-.543-.636-.467-.505c-.187-.206-.374-.411-.58-.598s-.318-.318-.486-.487-.393-.392-.617-.58l-.505-.448-.654-.542-.561-.45-.692-.504-.598-.411-.73-.486-.617-.393-.785-.449-.655-.355-.822-.43-.673-.337-.898-.392-.692-.3-.972-.392-.673-.262h-.15L959.64 508.724l22.598-.933h.225l40.482-136.575c0-.636.168-1.272.243-1.87a8 8 0 0 1 .075-.654"/><path fill="#d0d4d8" d="m943.397 622.775 3.037-1.095-2.03-.621-6.242-1.91 3.049 4.413zM948.487 615.425l10.388 4.46.378.048 4.74.589 3.104-2.211-1.879-.759-10.704-4.325-3.662-.364-.382-.037-2.482 2.385zM970.094 612.598l2.926 1.412.834.403 5.17 2.496.688.23-2.833-3.763-2.3-3.057-1.327-.534-3.827.733-1.734.92z"/><path fill="#b2b9c0" d="m965.218 617.552 1.879.759 1.698.038 8.631.188.311-.316 1.288-1.312-5.171-2.496-.834-.403-2.926-1.412-2.403-1.16-7.299-.513-5.878 2.302zM938.162 619.15l6.241 1.909 2.031.621 8.984-.084 2.311-.022.95-1.4.196-.288-10.388-4.46-.5-.215-3.722-.117-4.852-.151z"/><path fill="#d0d4d8" d="M938.816 377.879h35.345v7.981h-35.345z"/><path fill="#43464a" d="M953.67 636.993c29.32 18.343 47.532-17.016 47.532-17.016l-30.367-7.367z"/><path fill="#595e62" d="M1005.346 559.693c-12.047-4.376-14.952 13.164-14.952 13.164l-19.559 39.753 30.367 7.367 4.039-24.663s12.153-31.246.105-35.621"/><path fill="#595e62" d="m952.978 606.757 1.683 7.367 22.588-8.564 8.826-22.42z"/><path fill="#43464a" d="m1050.959 465.344-17.146 21.05c-6.497 7.977-19.275 5.406-22.182-4.462l-17.611-59.784 48.698-12.016z"/><path fill="#00a4fd" d="m1042.718 410.132-11.237-49.574c-3.857-18.537-13.386-29.004-28.388-30.559-11.911 14.053-16.99 30.632-16.652 52.68.139 11.16 7.579 39.47 7.579 39.47z"/><path fill="#595e62" d="M1050.959 465.302c-4.822 40.475-25.116 90.936-44.007 124.17-.017.034-.041.067-.058.1-.14.247-.272.914-.412 1.911-1.549 4.72-5.99 8.132-11.229 8.132-6.525 0-11.814-5.29-11.814-11.815 0-1.697.354-3.303.997-4.762l.37-.659.05-.197.008-.009c.379-1.433 5.553-21.5 9.36-35.708 7.38-27.572 7.681-32.708 16.597-65.269 0 0 5.198-16.262 18.538-18.286s21.6 2.392 21.6 2.392"/><path fill="#8a9097" d="M902.977 435.827 894.7 418.92l-21.977-44.885a7.73 7.73 0 0 0-6.8-4.533h-6.208a7.73 7.73 0 0 1 6.8 4.533l28.883 58.989 1.372 2.802a9.8 9.8 0 0 1 .459 7.385c-1.084 3.24-3.79 5.723-7.26 5.723h6.21a7 7 0 0 0 2.257-.381c4.541-1.55 7.015-7.615 4.542-12.727"/><path fill="#c1c7cc" d="m896.769 435.827-1.372-2.802-28.883-58.99a7.73 7.73 0 0 0-6.8-4.533H760.67c-5.913 0-9.658 7.194-6.8 13.107l2.942 6.012 15.957 32.588 7.925 16.185 3.43 7.008a7.73 7.73 0 0 0 6.8 4.533h99.045c3.47 0 6.179-2.482 7.259-5.723a9.8 9.8 0 0 0-.46-7.385"/><path fill="#43464a" d="m759.939 428.758 18.628 4.23-6.682-13.646z"/><path fill="#595e62" d="m758.432 391.865-4.89-.166 6.397 37.057 11.946-9.416 6.5-5.118a15.9 15.9 0 0 0 4.708-4.078c3.905-4.886 5.838-12.021 5.096-17.275z"/></g><g data-name="Ebene 2"><g fill="#007bc0" stroke-width="0" data-name="Ebene 1-2"><path d="M581.517 93.834h233.389v246.994H581.517z"/><path fill-rule="evenodd" d="m814.906 405.27-64.441-64.442L780.915 330l33.991 10.83z"/></g></g><path fill="#fff" d="M764.23 260.192c-7.438 0-13.999 3.814-17.843 9.585l-30.93-14.275a21.31 21.31 0 0 0 .001-16.337l30.93-14.275c3.843 5.771 10.404 9.585 17.843 9.585 11.816 0 21.43-9.613 21.43-21.43s-9.614-21.43-21.43-21.43-21.43 9.613-21.43 21.43c0 1.33.137 2.625.37 3.888l-32.6 15.046c-3.861-3.753-9.12-6.076-14.918-6.076-11.816 0-21.43 9.614-21.43 21.43s9.614 21.43 21.43 21.43c5.798 0 11.057-2.322 14.918-6.075l32.6 15.046a21.4 21.4 0 0 0-.37 3.888c0 11.817 9.613 21.43 21.43 21.43s21.43-9.613 21.43-21.43-9.614-21.43-21.43-21.43m0-60.005c7.09 0 12.859 5.768 12.859 12.858s-5.769 12.858-12.858 12.858-12.859-5.768-12.859-12.858 5.769-12.858 12.859-12.858m-68.577 60.005c-7.09 0-12.858-5.769-12.858-12.858s5.769-12.859 12.858-12.859 12.859 5.769 12.859 12.859-5.769 12.858-12.859 12.858m68.578 34.288c-7.09 0-12.859-5.768-12.859-12.858s5.769-12.858 12.859-12.858 12.858 5.768 12.858 12.858-5.769 12.858-12.858 12.858m-80.413-99.521c9.673-6.069 16.121-16.823 16.121-29.06 0-18.908-15.381-34.29-34.288-34.29s-34.289 15.382-34.289 34.29c0 12.233 6.445 22.985 16.114 29.054-19.415 7.355-33.258 26.134-33.258 48.095h8.572c0-23.625 19.22-42.844 42.844-42.844 13.813 0 26.112 6.577 33.952 16.757a30.4 30.4 0 0 1 12.8 4.732c-5.616-12.248-15.903-21.925-28.568-26.734m-43.884-29.06c0-14.181 11.537-25.717 25.717-25.717s25.716 11.536 25.716 25.716-11.536 25.717-25.716 25.717-25.717-11.536-25.717-25.717"/><g clip-path="url(#a)"><path fill="#8a9097" d="m792.993 527.385-1.146 15.828s-52.28 41.729-70.507 71.466c-18.226 29.738-44.606 86.965-45.566 110.872l-.959 23.907-41.729-15.839 32.616-123.256 96.407-84.417 30.883-7.034z"/><path fill="#c1c7cc" d="M653.144 720.97s13.812-96.354 102.571-170.106c37.762-31.378 37.277-31.952 37.277-31.952l-169.746.37-70.936.156s-40.532 9.906-80.472 51.178c-39.94 41.27-34.31 75.298-34.31 75.298z"/><g stroke-width="0" data-name="Bosch/House-Outside/Main-objects/car-back"><path fill="#595e62" d="M-209.89 889.986c68.113 67.709 95.54 53.079 211.695 53.079v-53.08z" data-name="Path"/><path fill="#232628" d="M143.017 879.858c0 27.382-7.646 52.324-20.264 71.172v35.137h-58.37c-43.387 0-78.558-47.588-78.558-106.31s35.188-106.283 78.559-106.283h58.403v35.137c12.576 18.83 20.272 43.79 20.272 71.147" data-name="Path"/><path fill="#d0d4d8" d="M711.797 906.31a51 51 0 0 1-4.066 4.803c-5.257 14.396-2.717 28.85-19.116 31.792a36.6 36.6 0 0 1-5.793.537h-19.393l-41.81-167.303-1.988-7.981-32.211-128.846a558 558 0 0 1 23.131 19.501q16.014 14.253 31.81 30.359c16.583 16.944 30.03 27.08 41.081 38.784a103.2 103.2 0 0 1 21.606 33.863c.193.47.377.956.57 1.442l7.47 10.556 9.113 12.894s2.34 10.464 4.025 25.664c3.01 27.156 3.923 69.453-14.43 93.934" data-name="Path"/><path fill="#232628" d="M621.174 879.858c0 27.382-7.646 52.324-20.264 71.172v35.137h-58.353c-43.387 0-78.558-47.588-78.558-106.31s35.213-106.283 78.558-106.283h58.403v35.137c12.576 18.83 20.273 43.79 20.273 71.147" data-name="Path"/><path fill="#d0d4d8" d="M170.223 935.368 23.958 882.826c-4.349-44.88 11.476-81.25 36.603-107.718l109.662 2.113z" data-name="Path"/><path fill="#d0d4d8" d="M711.797 906.31a51 51 0 0 1-4.066 4.803c-5.257 14.396-2.717 28.85-19.116 31.792a36.6 36.6 0 0 1-5.793.537H171.12l-4.15-116.395-111.664-46.163 41.49-117.627c92.652-87.52 191.206-118.282 273.545-129.776 68.9-9.617 138.47 13.079 187.802 62.125a380 380 0 0 1 39.53 46.423 389 389 0 0 0 12.87 16.768 382.7 382.7 0 0 0 72.866 69.142 103.2 103.2 0 0 1 21.605 33.863c.193.47.378.956.57 1.443l7.47 10.555 9.114 12.895s.838 3.747 1.87 10.06c0 .26.092.529.134.839s.084.52.125.788a288 288 0 0 1 1.895 14.043c.302 2.717.587 5.592.839 8.585 0 .235 0 .461.058.696s0 .503.059.755c2.029 26.67.872 62.218-15.351 83.848" data-name="Path"/><path fill="#c1c7cc" d="M350.379 911.423v-357.31c69.923-17.245 124.922-7.226 172.71 37.402l31.315 168.996c-44.712 27.542-72.622 76.773-57.85 149.973z" data-name="Path"/><path fill="#8a9097" d="M545.307 876.303c0-43.329 25.99-78.466 58-78.466s58.018 35.146 58.018 78.466-25.99 78.449-57.975 78.449-58-35.112-58-78.45" data-name="Path"/><path fill="#c1c7cc" d="M603.308 954.752c-2.79-.01-5.573-.29-8.309-.838 28.078-5.534 49.742-38.14 49.742-77.645S623.144 804.066 595 798.617a44.5 44.5 0 0 1 8.309-.839c32.018 0 57.975 35.138 57.975 78.466s-25.99 78.45-57.975 78.45" data-name="Path"/><path fill="#c1c7cc" d="m668.93 900.055-48.745-22.344a15.02 15.02 0 0 1-8.108-8.476l-25.093-71.583-36.571 9.223 25.513 72.773a14.43 14.43 0 0 1-1.602 12.693l-23.953 37.385 17.246 39.405 35.741-54.295a9.3 9.3 0 0 1 11.494-2.868L665.064 935z" data-name="Path"/><path fill="#383b3e" d="M600.189 986.167c43.387 0 78.558-47.588 78.558-106.31s-35.213-106.283-78.558-106.283-78.558 47.587-78.558 106.284 35.17 106.309 78.558 106.309m3.119-188.33c32.018 0 57.975 35.137 57.975 78.466s-25.99 78.449-57.975 78.449-58-35.112-58-78.45 25.99-78.465 58-78.465" data-name="Shape"/><path fill="#d0d4d8" d="M711.797 906.31a51 51 0 0 1-4.066 4.803c-5.257 14.396-2.717 28.85-19.116 31.792 9.734-74.617-7.152-146.049-66.997-166.75a112 112 0 0 0-31.062-5.8l29.075-2.18 85.392-6.373c.192.47.377.956.57 1.442l7.47 10.556 13.138 38.566c3.035 27.165 3.948 69.462-14.404 93.943" data-name="Path"/><path fill="#8a9097" d="M164.288 943.459c12.785-14.412 20.85-36.051 20.85-60.365 0-43.337-25.99-78.45-57.975-78.45s-57.984 35.113-57.984 78.45c0 3.035.134 6.02.37 8.97l-17.741-6.312a138 138 0 0 1-.135-6.205c0-58.688 27.777-106.309 71.164-106.309s85.92 47.588 85.92 106.31a131.9 131.9 0 0 1-15.788 63.91z" data-name="Path"/><path fill="#8a9097" d="M67.611 883.438c0 43.328 25.99 78.466 58.001 78.466s57.984-35.138 57.984-78.466-25.99-78.45-57.984-78.45-58 35.113-58 78.45" data-name="Path"/><path fill="#c1c7cc" d="M125.587 804.988a42.5 42.5 0 0 0-8.309.839c28.095 5.525 49.743 38.13 49.743 77.636s-21.572 72.203-49.743 77.653c2.738.538 5.52.819 8.309.838 32.018 0 57.984-35.137 57.984-78.466s-25.99-78.45-57.984-78.45" data-name="Path"/><path fill="#c1c7cc" d="m191.242 892.995-48.736-22.343a15.1 15.1 0 0 1-8.124-8.476l-25.152-71.667-36.597 9.223 25.547 72.656a14.45 14.45 0 0 1-1.585 12.693l-23.953 37.376 17.246 39.405 35.74-54.262a9.315 9.315 0 0 1 11.504-2.875l50.22 23.03z" data-name="Path"/><path fill="#383b3e" d="M122.569 773.574c-43.388 0-78.559 47.604-78.559 106.309s35.171 106.284 78.559 106.284 78.566-47.546 78.566-106.284-35.213-106.31-78.566-106.31m3.018 188.33c-32.019 0-58-35.137-58-78.465s25.99-78.45 58-78.45 57.984 35.113 57.984 78.45-25.99 78.466-57.984 78.466" data-name="Shape"/><path fill="#d0d4d8" d="M293.267 943.224h-82.264c11.369-86.372-12.894-168.468-97.992-172.87l118.315-8.845z" data-name="Path"/><path fill="#c1c7cc" d="M179.848 619.073c61.799-32.22 114.861-54.756 161.51-65.538v357.997l-115.482 1.015c2.692-80.487-17.723-130.28-86.774-151.08z" data-name="Path"/><path fill="#383b3e" d="M608.22 702.737 475.04 771.11l-312.153-19.787-84.091-36.05 12.903-36.89c33.787-35.483 180.331-127.12 304.834-133.307 124.502-6.188 203.673 128.342 211.872 157.67" data-name="Path"/><ellipse cx="97.534" cy="745.479" fill="#c1c7cc" data-name="Oval" rx="9.633" ry="14.353"/><path fill="#595e62" d="M727.09 821.64c-11.47-2.566-22.47-5.618-33.704-9.265l-4.125-29.344a318 318 0 0 0 34.944 14.496c0 .251.084.52.126.788a288 288 0 0 1 1.895 14.043c.302 2.716.587 5.592.838 8.585-.017.235 0 .461.025.696" data-name="Path"/><path fill="#c1c7cc" d="M727.09 821.64c0-.236 0-.462-.06-.697-11.2-2.515-21.957-5.5-32.974-9.046l-4.25-27.835a319 319 0 0 0 34.5 14.253c0-.268-.084-.537-.126-.788-.042-.252-.092-.545-.134-.839a320 320 0 0 1-35.355-14.747l3.84 30.878c11.737 3.823 23.03 6.959 34.617 9.541-.017-.218-.042-.47-.059-.72" data-name="Path"/><path fill="#d0d4d8" d="M-246.998 663.257H96.796l-40.88 117.711h-343.594zM84.673 531.317a483.3 483.3 0 0 0-143.534 21.497c-61.313 19.074-126.507 52.224-188.137 110.443H96.796c92.652-87.52 191.206-118.282 273.545-129.776a232 232 0 0 1 21.539-1.954v-.21z" data-name="Path"/><path fill="#383b3e" d="M94.44 543.634a470.3 470.3 0 0 0-139.887 20.951c-32.127 10.003-71.993 31.072-91.201 44.084-34.81 23.584-45.374 37.35 55.007 37.35 69.856 0 130.858-3.051 201.35-39.48 28.44-14.689 72.598-37.175 97.607-47.957a481 481 0 0 1 39.061-14.948z" data-name="Path"/><ellipse cx="5.281" cy="756.214" fill="#595e62" data-name="Oval" rx="29.705" ry="20.683" transform="rotate(-39.84 5.281 756.214)"/><path fill="#c1c7cc" d="m-216.112 663.257-19.283 55.829h21.035c10.313 0 19.284 4.36 24.616 11.972a27.8 27.8 0 0 1 4.494 10.74 34.7 34.7 0 0 1-1.484 17.808l-7.412 21.396h153.009l9.717-28.053q.162-.48.335-.947a47 47 0 0 1 5.24-10.179 53.9 53.9 0 0 1 12.693-13.07c8.477-6.221 18.227-9.642 27.45-9.642h28.698l19.392-55.829z" data-name="Path"/><path fill="#8a9097" d="M663.12 943.459h10.278a131.95 131.95 0 0 0 15.594-63.576c0-58.688-35.213-106.31-78.558-106.31-1.727 0-3.446.084-5.14.235 40.99 3.58 73.42 49.692 73.42 106.05.025 23.852-5.794 45.86-15.595 63.6" data-name="Path"/><path fill="#d0d4d8" d="M24.015 882.826c-3.465-41.392 10.234-75.903 31.9-101.942h-343.593c-21.379 25.152-34.299 61.782-31.565 101.942q121.51.18 182.32.18 53.61 0 160.938-.18" data-name="Path"/><path fill="#8a9097" d="m24.015 882.826 20.364 7.319h-343.258l-20.364-7.32z" data-name="Path"/></g><path fill="#8a9097" d="m623.832 526.506 11.69-7.223h24.112l-11.074 7.414z"/></g></svg>